G04*
G04 #@! TF.GenerationSoftware,Altium Limited,Altium Designer,23.4.1 (23)*
G04*
G04 Layer_Physical_Order=3*
G04 Layer_Color=6736896*
%FSLAX44Y44*%
%MOMM*%
G71*
G04*
G04 #@! TF.SameCoordinates,119376F5-832C-499C-A5AA-40DF592A9E39*
G04*
G04*
G04 #@! TF.FilePolarity,Positive*
G04*
G01*
G75*
%ADD32C,3.0000*%
%ADD33C,0.4064*%
%ADD34C,0.4060*%
G36*
X222859Y246271D02*
X226128Y244917D01*
X229069Y242951D01*
X231571Y240449D01*
X233537Y237508D01*
X234891Y234239D01*
X235581Y230769D01*
Y229000D01*
X235581Y19000D01*
X235581Y17231D01*
X234891Y13761D01*
X233537Y10492D01*
X231571Y7551D01*
X229069Y5049D01*
X226127Y3083D01*
X222859Y1729D01*
X219389Y1039D01*
X217620Y1039D01*
X158464Y1039D01*
X158339Y2309D01*
X160069Y2653D01*
X163163Y3935D01*
X165947Y5795D01*
X168315Y8163D01*
X170175Y10948D01*
X171457Y14041D01*
X172110Y17326D01*
Y17750D01*
X155110D01*
X138110D01*
Y17326D01*
X138764Y14041D01*
X140045Y10948D01*
X141905Y8163D01*
X144273Y5795D01*
X147058Y3935D01*
X150151Y2653D01*
X151882Y2309D01*
X151756Y1039D01*
X33463Y1039D01*
X33338Y2309D01*
X35069Y2653D01*
X38163Y3935D01*
X40947Y5795D01*
X43315Y8163D01*
X45175Y10948D01*
X46457Y14041D01*
X47110Y17326D01*
Y17750D01*
X30110D01*
X13110D01*
Y17326D01*
X13764Y14041D01*
X15045Y10948D01*
X16905Y8163D01*
X19273Y5795D01*
X22058Y3935D01*
X25151Y2653D01*
X26882Y2309D01*
X26757Y1039D01*
X17231D01*
X13761Y1729D01*
X10492Y3083D01*
X7551Y5049D01*
X5049Y7551D01*
X3083Y10492D01*
X1729Y13761D01*
X1039Y17231D01*
Y19000D01*
Y229000D01*
Y230769D01*
X1729Y234239D01*
X3083Y237508D01*
X5049Y240449D01*
X7551Y242951D01*
X10492Y244917D01*
X13761Y246271D01*
X17231Y246961D01*
X19000Y246961D01*
X26757D01*
X26882Y245691D01*
X25151Y245347D01*
X22058Y244065D01*
X19273Y242205D01*
X16905Y239837D01*
X15045Y237052D01*
X13764Y233959D01*
X13110Y230674D01*
Y230250D01*
X30110D01*
Y229000D01*
D01*
Y230250D01*
X47110D01*
Y230674D01*
X46457Y233959D01*
X45175Y237052D01*
X43315Y239837D01*
X40947Y242205D01*
X38163Y244065D01*
X35069Y245347D01*
X33339Y245691D01*
X33464Y246961D01*
X151757Y246961D01*
X151882Y245691D01*
X150151Y245347D01*
X147058Y244065D01*
X144273Y242205D01*
X141905Y239837D01*
X140045Y237052D01*
X138764Y233959D01*
X138110Y230674D01*
Y230250D01*
X155110D01*
X172110D01*
Y230674D01*
X171457Y233959D01*
X170175Y237052D01*
X168315Y239837D01*
X165947Y242205D01*
X163163Y244065D01*
X160069Y245347D01*
X158338Y245691D01*
X158463Y246961D01*
X217620Y246961D01*
X219389D01*
X222859Y246271D01*
D02*
G37*
%LPC*%
G36*
X172110Y227750D02*
X156360D01*
Y212000D01*
X156784D01*
X160069Y212653D01*
X163163Y213935D01*
X165947Y215795D01*
X168315Y218163D01*
X170175Y220947D01*
X171457Y224041D01*
X172110Y227326D01*
Y227750D01*
D02*
G37*
G36*
X153860D02*
X138110D01*
Y227326D01*
X138764Y224041D01*
X140045Y220947D01*
X141905Y218163D01*
X144273Y215795D01*
X147058Y213935D01*
X150151Y212653D01*
X153436Y212000D01*
X153860D01*
Y227750D01*
D02*
G37*
G36*
X47110Y227750D02*
X31360D01*
Y212000D01*
X31785D01*
X35069Y212653D01*
X38163Y213935D01*
X40947Y215795D01*
X43315Y218163D01*
X45175Y220947D01*
X46457Y224041D01*
X47110Y227326D01*
Y227750D01*
D02*
G37*
G36*
X28860D02*
X13110D01*
Y227326D01*
X13764Y224041D01*
X15045Y220947D01*
X16905Y218163D01*
X19273Y215795D01*
X22058Y213935D01*
X25151Y212653D01*
X28436Y212000D01*
X28860D01*
Y227750D01*
D02*
G37*
G36*
X122991Y82863D02*
X121705D01*
X120517Y82370D01*
X119608Y81461D01*
X119116Y80273D01*
Y78988D01*
X119608Y77800D01*
X120517Y76891D01*
X121705Y76399D01*
X122991D01*
X124179Y76891D01*
X125088Y77800D01*
X125580Y78988D01*
Y80273D01*
X125088Y81461D01*
X124179Y82370D01*
X122991Y82863D01*
D02*
G37*
G36*
X103179Y82100D02*
X101893D01*
X100705Y81608D01*
X99796Y80699D01*
X99304Y79511D01*
Y78226D01*
X99796Y77038D01*
X100705Y76129D01*
X101893Y75637D01*
X103179D01*
X104367Y76129D01*
X105276Y77038D01*
X105768Y78226D01*
Y79511D01*
X105276Y80699D01*
X104367Y81608D01*
X103179Y82100D01*
D02*
G37*
G36*
X124615Y63018D02*
X123329D01*
X122141Y62525D01*
X121232Y61616D01*
X120740Y60428D01*
Y59143D01*
X121232Y57955D01*
X122141Y57045D01*
X123329Y56554D01*
X124615D01*
X125803Y57045D01*
X126712Y57955D01*
X127204Y59143D01*
Y60428D01*
X126712Y61616D01*
X125803Y62525D01*
X124615Y63018D01*
D02*
G37*
G36*
X84209Y58350D02*
X82923D01*
X81735Y57858D01*
X80826Y56949D01*
X80334Y55761D01*
Y54475D01*
X80826Y53287D01*
X81735Y52378D01*
X82923Y51886D01*
X84209D01*
X85397Y52378D01*
X86306Y53287D01*
X86798Y54475D01*
Y55761D01*
X86306Y56949D01*
X85397Y57858D01*
X84209Y58350D01*
D02*
G37*
G36*
X31785Y36000D02*
X31360D01*
Y20250D01*
X47110D01*
Y20674D01*
X46457Y23959D01*
X45175Y27053D01*
X43315Y29837D01*
X40947Y32205D01*
X38163Y34065D01*
X35069Y35347D01*
X31785Y36000D01*
D02*
G37*
G36*
X28860D02*
X28436D01*
X25151Y35347D01*
X22058Y34065D01*
X19273Y32205D01*
X16905Y29837D01*
X15045Y27053D01*
X13764Y23959D01*
X13110Y20674D01*
Y20250D01*
X28860D01*
Y36000D01*
D02*
G37*
G36*
X156784D02*
X156360D01*
Y20250D01*
X172110D01*
Y20674D01*
X171457Y23959D01*
X170175Y27053D01*
X168315Y29837D01*
X165947Y32205D01*
X163163Y34065D01*
X160069Y35347D01*
X156784Y36000D01*
D02*
G37*
G36*
X153860D02*
X153436D01*
X150151Y35347D01*
X147058Y34065D01*
X144273Y32205D01*
X141905Y29837D01*
X140045Y27053D01*
X138764Y23959D01*
X138110Y20674D01*
Y20250D01*
X153860D01*
Y36000D01*
D02*
G37*
%LPD*%
D32*
X30110Y229000D02*
D03*
X155110Y19000D02*
D03*
X30110D02*
D03*
X155110Y229000D02*
D03*
D33*
X159475Y194108D02*
D03*
X75692Y176784D02*
D03*
X80772Y186182D02*
D03*
X53086Y176530D02*
D03*
X76500Y161319D02*
D03*
X53848Y161290D02*
D03*
X52578Y146558D02*
D03*
X77216Y146304D02*
D03*
X53340Y131318D02*
D03*
X78994D02*
D03*
X53594Y116332D02*
D03*
X77978D02*
D03*
X76500Y86458D02*
D03*
X29671Y181540D02*
D03*
Y66478D02*
D03*
X87630Y110490D02*
D03*
X153416Y87376D02*
D03*
X142494D02*
D03*
X128524Y23876D02*
D03*
X111760D02*
D03*
X94996D02*
D03*
X87122Y44196D02*
D03*
X102616Y45212D02*
D03*
X123694Y40038D02*
D03*
X116252Y104015D02*
D03*
X101520Y102999D02*
D03*
X131746Y83948D02*
D03*
X101963Y146500D02*
D03*
X3556Y229616D02*
D03*
X17018Y244348D02*
D03*
X3556Y30734D02*
D03*
X5588Y11430D02*
D03*
X18288Y3556D02*
D03*
X226314Y6350D02*
D03*
X233172Y19558D02*
D03*
Y48260D02*
D03*
Y67310D02*
D03*
Y91186D02*
D03*
Y124460D02*
D03*
Y153162D02*
D03*
Y177038D02*
D03*
Y200914D02*
D03*
Y219964D02*
D03*
X228346Y240030D02*
D03*
X207264Y244602D02*
D03*
X185674D02*
D03*
X167386D02*
D03*
X133096Y212598D02*
D03*
X141986Y244602D02*
D03*
X119126D02*
D03*
X99060D02*
D03*
X81280D02*
D03*
X61468D02*
D03*
X42164D02*
D03*
X190474Y103886D02*
D03*
X160528Y109220D02*
D03*
X140716Y112268D02*
D03*
X128270Y109220D02*
D03*
X113284Y115062D02*
D03*
X99568Y129286D02*
D03*
X190500Y194818D02*
D03*
X191008Y164084D02*
D03*
X190754Y134112D02*
D03*
X160528Y128524D02*
D03*
X161036Y138938D02*
D03*
X154432Y129032D02*
D03*
X147574Y136398D02*
D03*
X133604Y136144D02*
D03*
X126746Y144272D02*
D03*
X127508Y129286D02*
D03*
X112268Y144526D02*
D03*
X86233Y163233D02*
D03*
X110873Y171127D02*
D03*
X101854Y189230D02*
D03*
X85344Y188722D02*
D03*
X160528D02*
D03*
Y158750D02*
D03*
X160782Y169164D02*
D03*
X139700Y159004D02*
D03*
X116078Y163830D02*
D03*
X136906Y172212D02*
D03*
X143000Y199000D02*
D03*
X129000Y198000D02*
D03*
X123000Y189000D02*
D03*
X151000D02*
D03*
X164236Y164000D02*
D03*
X164263Y134000D02*
D03*
X164000Y104027D02*
D03*
D34*
X217750Y224001D02*
D03*
Y184001D02*
D03*
X207750Y164001D02*
D03*
X217750Y144001D02*
D03*
X207750Y124001D02*
D03*
X217750Y104001D02*
D03*
X207750Y84001D02*
D03*
X217750Y64001D02*
D03*
Y24001D02*
D03*
X207750Y4001D02*
D03*
X197750Y224001D02*
D03*
Y184001D02*
D03*
Y144001D02*
D03*
Y64001D02*
D03*
Y24001D02*
D03*
X187750Y4001D02*
D03*
X177750Y224001D02*
D03*
X167750Y204001D02*
D03*
Y44001D02*
D03*
X177750Y24001D02*
D03*
X167750Y4001D02*
D03*
X147750Y44001D02*
D03*
X127750Y164001D02*
D03*
X137750Y104001D02*
D03*
X127750Y4001D02*
D03*
X117750Y224001D02*
D03*
X107750Y204001D02*
D03*
X117750Y144001D02*
D03*
X107750Y4001D02*
D03*
X97750Y224001D02*
D03*
X87750Y204001D02*
D03*
Y124001D02*
D03*
Y4001D02*
D03*
X77750Y224001D02*
D03*
X67750Y204001D02*
D03*
X77750Y104001D02*
D03*
X67750Y44001D02*
D03*
X77750Y24001D02*
D03*
X67750Y4001D02*
D03*
X57750Y224001D02*
D03*
X47750Y204001D02*
D03*
X57750Y184001D02*
D03*
Y64001D02*
D03*
X47750Y44001D02*
D03*
X57750Y24001D02*
D03*
X47750Y4001D02*
D03*
X27750Y164001D02*
D03*
X37750Y144001D02*
D03*
X27750Y124001D02*
D03*
X37750Y104001D02*
D03*
X27750Y84001D02*
D03*
X7750Y204001D02*
D03*
Y164001D02*
D03*
X17750Y144001D02*
D03*
X7750Y124001D02*
D03*
X17750Y104001D02*
D03*
X7750Y84001D02*
D03*
Y44001D02*
D03*
M02*
