G04*
G04 #@! TF.GenerationSoftware,Altium Limited,Altium Designer,23.4.1 (23)*
G04*
G04 Layer_Color=32896*
%FSLAX44Y44*%
%MOMM*%
G71*
G04*
G04 #@! TF.SameCoordinates,119376F5-832C-499C-A5AA-40DF592A9E39*
G04*
G04*
G04 #@! TF.FilePolarity,Positive*
G04*
G01*
G75*
%ADD35C,0.1080*%
G36*
X119018Y163555D02*
X119104Y163545D01*
X119130Y163539D01*
X119168Y163533D01*
X119194Y163526D01*
X119226Y163520D01*
X119251Y163514D01*
X119283Y163507D01*
X119351Y163498D01*
X119402Y163485D01*
X119443Y163469D01*
X119482Y163449D01*
X119523Y163440D01*
X119549Y163433D01*
X119594Y163414D01*
X119607Y163408D01*
X119616Y163398D01*
X119677Y163376D01*
X119709Y163363D01*
X119722Y163357D01*
X119734Y163344D01*
X119779Y163318D01*
X119824Y163299D01*
X119843Y163280D01*
X119901Y163248D01*
X119926Y163222D01*
X119971Y163190D01*
X119984Y163184D01*
X120022Y163146D01*
X120035Y163139D01*
X120048Y163126D01*
X120061Y163120D01*
X120112Y163069D01*
X120125Y163062D01*
X120147Y163040D01*
X120154Y163027D01*
X120195Y162986D01*
X120224Y162950D01*
X120230Y162938D01*
X120250Y162918D01*
X120294Y162861D01*
X120301Y162848D01*
X120333Y162816D01*
X120358Y162771D01*
X120384Y162746D01*
X120422Y162675D01*
X120435Y162663D01*
X120467Y162618D01*
X120473Y162592D01*
X120521Y162525D01*
X120538Y162483D01*
X120550Y162451D01*
X120563Y162439D01*
X120595Y162381D01*
X120602Y162355D01*
X120617Y162320D01*
X120649Y162269D01*
X120659Y162227D01*
X120672Y162195D01*
X120697Y162157D01*
X120713Y162115D01*
X120720Y162083D01*
X120729Y162048D01*
X120758Y162000D01*
X120771Y161968D01*
X120781Y161927D01*
X120793Y161882D01*
X120832Y161799D01*
X120838Y161760D01*
X120845Y161735D01*
X120857Y161690D01*
X120873Y161655D01*
X120893Y161604D01*
X120902Y161549D01*
X120915Y161498D01*
X120925Y161469D01*
X120950Y161405D01*
X120957Y161380D01*
X120966Y161325D01*
X120979Y161274D01*
X120995Y161232D01*
X121008Y161200D01*
X121017Y161165D01*
X121024Y161140D01*
X121030Y161095D01*
X121043Y161044D01*
X121056Y161012D01*
X121072Y160976D01*
X121088Y160903D01*
X121094Y160858D01*
X121110Y160816D01*
X121123Y160784D01*
X121139Y160743D01*
X121145Y160717D01*
X121158Y160641D01*
X121193Y160567D01*
X121209Y160500D01*
X121216Y160474D01*
X121251Y160394D01*
X121264Y160362D01*
X121273Y160327D01*
X121299Y160269D01*
X121321Y160234D01*
X121331Y160199D01*
X121350Y160154D01*
X121369Y160135D01*
X121408Y160065D01*
X121453Y160007D01*
X121459Y159994D01*
X121558Y159895D01*
X121603Y159869D01*
X121641Y159844D01*
X121676Y159822D01*
X121702Y159815D01*
X121795Y159805D01*
X121814Y159799D01*
X121894Y159802D01*
X121987Y159812D01*
X122038Y159825D01*
X122076Y159850D01*
X122147Y159889D01*
X122160Y159895D01*
X122185Y159927D01*
X122198Y159934D01*
X122240Y159975D01*
X122246Y159988D01*
X122275Y160036D01*
X122307Y160074D01*
X122316Y160109D01*
X122329Y160141D01*
X122352Y160183D01*
X122364Y160215D01*
X122390Y160369D01*
X122400Y160423D01*
X122406Y160442D01*
X122412Y160564D01*
X122419Y160583D01*
X122416Y160701D01*
X122409Y160759D01*
X122403Y160791D01*
X122396Y160829D01*
X122390Y160861D01*
X122383Y160900D01*
X122367Y161005D01*
X122342Y161063D01*
X122319Y161111D01*
X122310Y161152D01*
X122297Y161184D01*
X122284Y161197D01*
X122240Y161280D01*
X122227Y161293D01*
X122182Y161351D01*
X122176Y161364D01*
X122118Y161421D01*
X122112Y161434D01*
X122102Y161444D01*
X122089Y161450D01*
X122070Y161469D01*
X122057Y161476D01*
X122041Y161492D01*
X122006Y161520D01*
X121961Y161546D01*
X121936Y161572D01*
X121904Y161591D01*
X121846Y161616D01*
X121801Y161648D01*
X121763Y161655D01*
X121718Y161674D01*
X121705Y161706D01*
X121708Y161747D01*
X121721Y161779D01*
X121753Y161837D01*
X121772Y161914D01*
X121801Y161968D01*
X121814Y162000D01*
X121830Y162067D01*
X121846Y162103D01*
X121872Y162141D01*
X121881Y162176D01*
X121894Y162227D01*
X121913Y162272D01*
X121923Y162282D01*
X121936Y162314D01*
X121945Y162349D01*
X121958Y162400D01*
X121987Y162448D01*
X122000Y162480D01*
X122006Y162506D01*
X122016Y162547D01*
X122057Y162627D01*
X122073Y162694D01*
X122092Y162739D01*
X122099Y162752D01*
X122108Y162762D01*
X122121Y162794D01*
X122128Y162819D01*
X122137Y162861D01*
X122153Y162902D01*
X122179Y162941D01*
X122188Y162976D01*
X122201Y163027D01*
X122220Y163072D01*
X122230Y163082D01*
X122243Y163114D01*
X122259Y163181D01*
X122300Y163261D01*
X122310Y163296D01*
X122323Y163328D01*
X122329Y163341D01*
X122358Y163357D01*
X122377Y163350D01*
X122419Y163328D01*
X122486Y163312D01*
X122543Y163286D01*
X122566Y163270D01*
X122607Y163254D01*
X122652Y163242D01*
X122671Y163222D01*
X122684Y163216D01*
X122694Y163206D01*
X122755Y163184D01*
X122767Y163171D01*
X122780Y163165D01*
X122799Y163146D01*
X122812Y163139D01*
X122844Y163126D01*
X122876Y163094D01*
X122921Y163069D01*
X122934Y163056D01*
X122947Y163050D01*
X122966Y163030D01*
X123011Y162998D01*
X123023Y162992D01*
X123033Y162982D01*
X123039Y162970D01*
X123049Y162960D01*
X123062Y162954D01*
X123075Y162941D01*
X123087Y162934D01*
X123097Y162925D01*
X123103Y162912D01*
X123116Y162899D01*
X123154Y162867D01*
X123161Y162854D01*
X123202Y162813D01*
X123231Y162778D01*
X123238Y162765D01*
X123276Y162726D01*
X123308Y162669D01*
X123340Y162637D01*
X123366Y162592D01*
X123391Y162567D01*
X123436Y162483D01*
X123455Y162464D01*
X123481Y162419D01*
X123494Y162387D01*
X123500Y162375D01*
X123513Y162362D01*
X123538Y162317D01*
X123545Y162291D01*
X123558Y162259D01*
X123567Y162250D01*
X123593Y162211D01*
X123602Y162176D01*
X123609Y162151D01*
X123628Y162106D01*
X123644Y162090D01*
X123657Y162058D01*
X123666Y162016D01*
X123679Y161965D01*
X123714Y161898D01*
X123721Y161872D01*
X123730Y161812D01*
X123743Y161767D01*
X123759Y161725D01*
X123772Y161693D01*
X123778Y161667D01*
X123794Y161549D01*
X123807Y161498D01*
X123820Y161453D01*
X123830Y161418D01*
X123842Y161341D01*
X123849Y161271D01*
X123858Y161152D01*
X123865Y161108D01*
X123878Y160967D01*
X123884Y160948D01*
X123890Y160692D01*
X123897Y160672D01*
X123894Y160605D01*
X123884Y160378D01*
X123868Y160234D01*
X123862Y160183D01*
X123852Y160033D01*
X123846Y159988D01*
X123836Y159902D01*
X123830Y159869D01*
X123804Y159767D01*
X123794Y159726D01*
X123788Y159681D01*
X123775Y159604D01*
X123759Y159550D01*
X123740Y159498D01*
X123724Y159425D01*
X123718Y159399D01*
X123689Y159332D01*
X123676Y159300D01*
X123660Y159226D01*
X123641Y159182D01*
X123634Y159169D01*
X123625Y159159D01*
X123602Y159098D01*
X123596Y159073D01*
X123583Y159041D01*
X123561Y159018D01*
X123542Y158967D01*
X123532Y158932D01*
X123513Y158913D01*
X123481Y158855D01*
X123468Y158823D01*
X123462Y158811D01*
X123442Y158791D01*
X123423Y158759D01*
X123411Y158727D01*
X123378Y158695D01*
X123347Y158638D01*
X123315Y158606D01*
X123289Y158561D01*
X123260Y158532D01*
X123231Y158497D01*
X123225Y158484D01*
X123215Y158475D01*
X123202Y158468D01*
X123187Y158452D01*
X123180Y158439D01*
X123081Y158340D01*
X123068Y158334D01*
X123046Y158311D01*
X123039Y158299D01*
X122998Y158270D01*
X122985Y158263D01*
X122966Y158244D01*
X122921Y158212D01*
X122908Y158206D01*
X122883Y158180D01*
X122812Y158142D01*
X122793Y158123D01*
X122735Y158091D01*
X122703Y158078D01*
X122691Y158065D01*
X122678Y158059D01*
X122668Y158049D01*
X122607Y158027D01*
X122563Y158007D01*
X122547Y157992D01*
X122515Y157979D01*
X122479Y157969D01*
X122454Y157963D01*
X122387Y157934D01*
X122355Y157921D01*
X122300Y157912D01*
X122275Y157905D01*
X122230Y157899D01*
X122185Y157886D01*
X122160Y157879D01*
X122128Y157867D01*
X122076Y157860D01*
X122057Y157854D01*
X121859Y157847D01*
X121840Y157841D01*
X121590Y157847D01*
X121449Y157854D01*
X121424Y157860D01*
X121379Y157867D01*
X121353Y157873D01*
X121318Y157883D01*
X121292Y157889D01*
X121225Y157905D01*
X121200Y157912D01*
X121155Y157918D01*
X121059Y157963D01*
X121033Y157969D01*
X120969Y157988D01*
X120957Y158001D01*
X120944Y158007D01*
X120934Y158017D01*
X120854Y158046D01*
X120835Y158065D01*
X120752Y158110D01*
X120726Y158135D01*
X120681Y158161D01*
X120643Y158199D01*
X120611Y158219D01*
X120589Y158241D01*
X120582Y158254D01*
X120538Y158286D01*
X120531Y158299D01*
X120496Y158334D01*
X120483Y158340D01*
X120480Y158350D01*
X120416Y158414D01*
X120409Y158427D01*
X120397Y158439D01*
X120390Y158452D01*
X120381Y158455D01*
X120352Y158491D01*
X120345Y158503D01*
X120314Y158535D01*
X120281Y158593D01*
X120269Y158606D01*
X120262Y158618D01*
X120250Y158631D01*
X120218Y158689D01*
X120192Y158715D01*
X120166Y158759D01*
X120147Y158804D01*
X120128Y158823D01*
X120109Y158855D01*
X120080Y158923D01*
X120051Y158958D01*
X120045Y158983D01*
X120013Y159054D01*
X119990Y159089D01*
X119981Y159124D01*
X119955Y159182D01*
X119949Y159194D01*
X119939Y159204D01*
X119923Y159246D01*
X119917Y159271D01*
X119904Y159316D01*
X119866Y159380D01*
X119859Y159418D01*
X119846Y159470D01*
X119802Y159565D01*
X119795Y159604D01*
X119789Y159629D01*
X119757Y159700D01*
X119747Y159722D01*
X119741Y159748D01*
X119731Y159796D01*
X119718Y159841D01*
X119702Y159876D01*
X119683Y159927D01*
X119674Y159975D01*
X119661Y160026D01*
X119626Y160106D01*
X119619Y160132D01*
X119613Y160164D01*
X119603Y160218D01*
X119574Y160285D01*
X119562Y160317D01*
X119555Y160349D01*
X119546Y160404D01*
X119517Y160471D01*
X119504Y160503D01*
X119482Y160602D01*
X119440Y160695D01*
X119434Y160721D01*
X119424Y160762D01*
X119418Y160788D01*
X119376Y160868D01*
X119370Y160893D01*
X119360Y160935D01*
X119341Y160980D01*
X119325Y160996D01*
X119312Y161028D01*
X119303Y161063D01*
X119283Y161108D01*
X119270Y161120D01*
X119245Y161165D01*
X119239Y161191D01*
X119206Y161236D01*
X119174Y161293D01*
X119162Y161306D01*
X119117Y161364D01*
X119111Y161376D01*
X119082Y161405D01*
X119069Y161412D01*
X119066Y161421D01*
X119037Y161450D01*
X118992Y161482D01*
X118979Y161488D01*
X118960Y161507D01*
X118915Y161533D01*
X118807Y161584D01*
X118589Y161591D01*
X118544Y161584D01*
X118499Y161572D01*
X118471Y161556D01*
X118429Y161539D01*
X118371Y161514D01*
X118314Y161469D01*
X118301Y161463D01*
X118272Y161434D01*
X118266Y161421D01*
X118237Y161392D01*
X118208Y161357D01*
X118180Y161303D01*
X118151Y161268D01*
X118141Y161245D01*
X118132Y161210D01*
X118119Y161178D01*
X118087Y161120D01*
X118077Y161060D01*
X118064Y160983D01*
X118058Y160951D01*
X118052Y160925D01*
X118039Y160861D01*
X118032Y160804D01*
X118026Y160701D01*
X118029Y160513D01*
X118036Y160487D01*
X118045Y160401D01*
X118058Y160337D01*
X118071Y160260D01*
X118077Y160202D01*
X118087Y160141D01*
X118116Y160074D01*
X118128Y160042D01*
X118135Y160010D01*
X118144Y159969D01*
X118160Y159927D01*
X118192Y159876D01*
X118202Y159841D01*
X118218Y159805D01*
X118247Y159770D01*
X118253Y159757D01*
X118272Y159713D01*
X118292Y159693D01*
X118323Y159649D01*
X118330Y159636D01*
X118362Y159604D01*
X118368Y159591D01*
X118381Y159578D01*
X118387Y159565D01*
X118487Y159466D01*
X118499Y159460D01*
X118512Y159447D01*
X118525Y159441D01*
X118563Y159402D01*
X118608Y159377D01*
X118634Y159351D01*
X118691Y159319D01*
X118727Y159303D01*
X118762Y159274D01*
X118794Y159262D01*
X118819Y159255D01*
X118855Y159239D01*
X118893Y159214D01*
X118919Y159207D01*
X118973Y159198D01*
X118989Y159182D01*
X118995Y159137D01*
X118947Y159031D01*
X118938Y158996D01*
X118925Y158945D01*
X118896Y158897D01*
X118883Y158865D01*
X118877Y158839D01*
X118867Y158798D01*
X118826Y158718D01*
X118810Y158651D01*
X118791Y158606D01*
X118762Y158551D01*
X118755Y158526D01*
X118746Y158484D01*
X118730Y158443D01*
X118704Y158404D01*
X118695Y158369D01*
X118682Y158318D01*
X118663Y158273D01*
X118653Y158263D01*
X118640Y158231D01*
X118631Y158196D01*
X118618Y158145D01*
X118589Y158097D01*
X118576Y158065D01*
X118570Y158040D01*
X118560Y157998D01*
X118519Y157918D01*
X118503Y157851D01*
X118483Y157806D01*
X118477Y157793D01*
X118468Y157783D01*
X118451Y157742D01*
X118432Y157665D01*
X118397Y157604D01*
X118387Y157569D01*
X118375Y157537D01*
X118365Y157528D01*
X118333Y157521D01*
X118304Y157531D01*
X118237Y157547D01*
X118128Y157598D01*
X118064Y157617D01*
X118052Y157630D01*
X117994Y157662D01*
X117975Y157668D01*
X117968D01*
X117936Y157681D01*
X117924Y157694D01*
X117866Y157726D01*
X117834Y157739D01*
X117815Y157758D01*
X117744Y157796D01*
X117732Y157803D01*
X117706Y157828D01*
X117661Y157854D01*
X117629Y157886D01*
X117584Y157912D01*
X117565Y157931D01*
X117552Y157937D01*
X117549Y157947D01*
X117508Y157976D01*
X117495Y157982D01*
X117444Y158033D01*
X117431Y158040D01*
X117409Y158062D01*
X117402Y158075D01*
X117393Y158084D01*
X117380Y158091D01*
X117345Y158126D01*
X117338Y158139D01*
X117322Y158155D01*
X117309Y158161D01*
X117293Y158177D01*
X117287Y158190D01*
X117264Y158219D01*
X117252Y158225D01*
X117210Y158279D01*
X117204Y158292D01*
X117172Y158324D01*
X117146Y158369D01*
X117121Y158395D01*
X117089Y158439D01*
X117082Y158452D01*
X117057Y158478D01*
X117018Y158548D01*
X117012Y158561D01*
X116993Y158580D01*
X116973Y158612D01*
X116954Y158657D01*
X116948Y158670D01*
X116925Y158692D01*
X116909Y158734D01*
X116897Y158766D01*
X116890Y158778D01*
X116877Y158791D01*
X116852Y158836D01*
X116839Y158887D01*
X116820Y158919D01*
X116813Y158932D01*
X116804Y158942D01*
X116791Y158974D01*
X116781Y159015D01*
X116746Y159089D01*
X116733Y159121D01*
X116724Y159162D01*
X116717Y159188D01*
X116689Y159255D01*
X116676Y159287D01*
X116666Y159329D01*
X116660Y159374D01*
X116647Y159425D01*
X116625Y159479D01*
X116615Y159514D01*
X116609Y159534D01*
X116602Y159610D01*
X116596Y159636D01*
X116589Y159681D01*
X116583Y159706D01*
X116567Y159761D01*
X116554Y159825D01*
X116548Y159876D01*
X116535Y160029D01*
X116529Y160119D01*
X116519Y160231D01*
X116513Y160250D01*
X116506Y160417D01*
X116500Y160436D01*
X116503Y160740D01*
X116510Y160874D01*
X116516Y160957D01*
X116522Y160996D01*
X116529Y161060D01*
X116538Y161197D01*
X116545Y161261D01*
X116554Y161348D01*
X116561Y161380D01*
X116580Y161456D01*
X116586Y161488D01*
X116599Y161565D01*
X116609Y161639D01*
X116615Y161664D01*
X116631Y161719D01*
X116657Y161789D01*
X116666Y161850D01*
X116679Y161901D01*
X116714Y161975D01*
X116721Y162000D01*
X116727Y162032D01*
X116737Y162074D01*
X116765Y162122D01*
X116778Y162154D01*
X116788Y162189D01*
X116794Y162215D01*
X116813Y162247D01*
X116820Y162259D01*
X116829Y162269D01*
X116852Y162330D01*
X116865Y162362D01*
X116871Y162375D01*
X116893Y162397D01*
X116909Y162439D01*
X116922Y162470D01*
X116929Y162483D01*
X116941Y162496D01*
X116986Y162579D01*
X117005Y162598D01*
X117044Y162669D01*
X117076Y162701D01*
X117101Y162746D01*
X117140Y162784D01*
X117159Y162816D01*
X117204Y162861D01*
X117210Y162874D01*
X117261Y162925D01*
X117268Y162938D01*
X117335Y163005D01*
X117348Y163011D01*
X117399Y163062D01*
X117412Y163069D01*
X117424Y163082D01*
X117437Y163088D01*
X117447Y163098D01*
X117453Y163110D01*
X117501Y163139D01*
X117533Y163171D01*
X117565Y163190D01*
X117655Y163254D01*
X117681Y163261D01*
X117693Y163274D01*
X117706Y163280D01*
X117709Y163290D01*
X117751Y163312D01*
X117808Y163338D01*
X117821Y163344D01*
X117837Y163360D01*
X117879Y163376D01*
X117924Y163389D01*
X117965Y163411D01*
X118004Y163430D01*
X118052Y163440D01*
X118096Y163453D01*
X118167Y163485D01*
X118186Y163491D01*
X118244Y163498D01*
X118269Y163504D01*
X118314Y163510D01*
X118365Y163523D01*
X118400Y163533D01*
X118464Y163545D01*
X118516Y163552D01*
X118704Y163561D01*
X119018Y163555D01*
D02*
G37*
G36*
X125068Y157185D02*
X125145Y157179D01*
X125244Y157169D01*
X125295Y157156D01*
X125368Y157121D01*
X125436Y157105D01*
X125474Y157080D01*
X125560Y157032D01*
X125567Y157019D01*
X125589Y157003D01*
X125621Y156984D01*
X125730Y156875D01*
X125759Y156840D01*
X125765Y156827D01*
X125797Y156795D01*
X125829Y156737D01*
X125836Y156725D01*
X125848Y156712D01*
X125874Y156667D01*
X125887Y156622D01*
X125915Y156574D01*
X125928Y156542D01*
X125935Y156510D01*
X125948Y156433D01*
X125954Y156408D01*
X125964Y156366D01*
X125970Y156347D01*
X125976Y156251D01*
X125983Y156232D01*
X125979Y156158D01*
X125973Y156101D01*
X125967Y156062D01*
X125960Y156030D01*
X125948Y155979D01*
X125938Y155912D01*
X125925Y155861D01*
X125896Y155806D01*
X125868Y155726D01*
X125842Y155688D01*
X125804Y155618D01*
X125791Y155605D01*
X125746Y155547D01*
X125740Y155534D01*
X125730Y155525D01*
X125717Y155518D01*
X125701Y155502D01*
X125695Y155490D01*
X125666Y155461D01*
X125653Y155454D01*
X125615Y155416D01*
X125557Y155384D01*
X125535Y155362D01*
X125496Y155336D01*
X125436Y155314D01*
X125426Y155304D01*
X125388Y155278D01*
X125346Y155269D01*
X125321Y155262D01*
X125257Y155243D01*
X125225Y155230D01*
X125199Y155224D01*
X125180Y155218D01*
X124911Y155211D01*
X124821Y155224D01*
X124767Y155240D01*
X124716Y155259D01*
X124661Y155269D01*
X124604Y155294D01*
X124569Y155317D01*
X124508Y155339D01*
X124482Y155365D01*
X124425Y155397D01*
X124374Y155448D01*
X124361Y155454D01*
X124338Y155477D01*
X124332Y155490D01*
X124316Y155506D01*
X124303Y155512D01*
X124281Y155541D01*
X124274Y155554D01*
X124236Y155592D01*
X124204Y155649D01*
X124198Y155662D01*
X124185Y155675D01*
X124169Y155697D01*
X124146Y155758D01*
X124108Y155822D01*
X124089Y155912D01*
X124082Y155938D01*
X124066Y155992D01*
X124057Y156027D01*
X124050Y156046D01*
X124044Y156168D01*
X124038Y156187D01*
X124044Y156277D01*
X124050Y156360D01*
X124057Y156385D01*
X124079Y156459D01*
X124086Y156485D01*
X124095Y156539D01*
X124101Y156565D01*
X124114Y156596D01*
Y156603D01*
X124121Y156609D01*
X124127Y156622D01*
X124137Y156632D01*
X124159Y156692D01*
X124172Y156725D01*
X124191Y156744D01*
X124223Y156801D01*
X124246Y156824D01*
X124274Y156859D01*
X124281Y156872D01*
X124380Y156971D01*
X124425Y156996D01*
X124441Y157013D01*
X124476Y157041D01*
X124489Y157048D01*
X124521Y157060D01*
X124569Y157096D01*
X124610Y157112D01*
X124636Y157118D01*
X124703Y157147D01*
X124735Y157160D01*
X124761Y157166D01*
X124812Y157172D01*
X124937Y157182D01*
X124956Y157188D01*
X125068Y157185D01*
D02*
G37*
G36*
X123708Y157182D02*
X123724Y157160D01*
X123730Y155253D01*
X123724Y155227D01*
X123708Y155211D01*
X123650Y155205D01*
X123631Y155211D01*
X116743Y155208D01*
X116714Y155211D01*
X116689Y155218D01*
X116676Y155230D01*
X116669Y155256D01*
X116673Y157089D01*
X116666Y157108D01*
X116673Y157140D01*
X116679Y157166D01*
X116701Y157182D01*
X120707Y157188D01*
X123682D01*
X123708Y157182D01*
D02*
G37*
G36*
X121398Y154527D02*
X121462Y154520D01*
X121548Y154511D01*
X121587Y154504D01*
X121612Y154498D01*
X121676Y154485D01*
X121782Y154469D01*
X121846Y154463D01*
X121987Y154418D01*
X122012Y154411D01*
X122089Y154399D01*
X122156Y154370D01*
X122188Y154357D01*
X122255Y154341D01*
X122300Y154322D01*
X122313Y154315D01*
X122323Y154306D01*
X122364Y154290D01*
X122390Y154283D01*
X122448Y154258D01*
X122483Y154235D01*
X122543Y154213D01*
X122582Y154187D01*
X122614Y154168D01*
X122659Y154149D01*
X122671Y154143D01*
X122691Y154123D01*
X122723Y154104D01*
X122755Y154092D01*
X122767Y154079D01*
X122780Y154072D01*
X122793Y154059D01*
X122851Y154028D01*
X122883Y153996D01*
X122915Y153976D01*
X122934Y153957D01*
X122991Y153912D01*
X123004Y153906D01*
X123049Y153861D01*
X123062Y153855D01*
X123110Y153807D01*
X123148Y153775D01*
X123154Y153762D01*
X123225Y153692D01*
X123231Y153679D01*
X123263Y153647D01*
X123308Y153589D01*
X123315Y153576D01*
X123330Y153560D01*
X123359Y153525D01*
X123366Y153512D01*
X123398Y153480D01*
X123430Y153423D01*
X123455Y153397D01*
X123481Y153352D01*
X123494Y153320D01*
X123529Y153285D01*
X123545Y153244D01*
X123561Y153208D01*
X123590Y153173D01*
X123615Y153103D01*
X123634Y153071D01*
X123660Y153026D01*
X123673Y152975D01*
X123714Y152895D01*
X123724Y152860D01*
X123737Y152809D01*
X123772Y152729D01*
X123778Y152703D01*
X123788Y152661D01*
X123794Y152617D01*
X123830Y152505D01*
X123836Y152479D01*
X123842Y152447D01*
X123849Y152396D01*
X123855Y152338D01*
X123862Y152287D01*
X123868Y152255D01*
X123874Y152217D01*
X123881Y152185D01*
X123890Y152118D01*
X123897Y152098D01*
X123903Y151868D01*
X123910Y151849D01*
X123906Y151807D01*
X123900Y151538D01*
X123894Y151462D01*
X123887Y151410D01*
X123881Y151372D01*
X123874Y151340D01*
X123868Y151302D01*
X123852Y151196D01*
X123846Y151132D01*
X123839Y151087D01*
X123833Y151062D01*
X123804Y150969D01*
X123794Y150927D01*
X123788Y150902D01*
X123782Y150857D01*
X123775Y150831D01*
X123753Y150777D01*
X123740Y150745D01*
X123730Y150710D01*
X123718Y150659D01*
X123673Y150563D01*
X123660Y150518D01*
X123654Y150492D01*
X123634Y150460D01*
X123628Y150447D01*
X123618Y150438D01*
X123602Y150396D01*
X123596Y150371D01*
X123577Y150339D01*
X123554Y150303D01*
X123532Y150243D01*
X123513Y150224D01*
X123481Y150166D01*
X123468Y150134D01*
X123436Y150102D01*
X123404Y150044D01*
X123398Y150031D01*
X123388Y150028D01*
X123378Y150012D01*
X123347Y149955D01*
X123324Y149932D01*
X123295Y149897D01*
X123289Y149884D01*
X123260Y149856D01*
X123231Y149820D01*
X123225Y149808D01*
X123215Y149798D01*
X123202Y149791D01*
X123187Y149776D01*
X123180Y149763D01*
X123164Y149747D01*
X123151Y149740D01*
X123129Y149718D01*
X123123Y149680D01*
X123139Y149664D01*
X123574Y149657D01*
X123676Y149664D01*
X123702Y149657D01*
X123724Y149628D01*
X123730Y147843D01*
X123724Y147798D01*
X123708Y147782D01*
X120534Y147776D01*
X116759D01*
X116695Y147782D01*
X116679Y147798D01*
X116673Y149712D01*
X116679Y149737D01*
X116701Y149753D01*
X120816Y149760D01*
X120937Y149766D01*
X120963Y149772D01*
X121008Y149779D01*
X121033Y149785D01*
X121053Y149791D01*
X121117Y149798D01*
X121142Y149804D01*
X121187Y149811D01*
X121283Y149856D01*
X121334Y149868D01*
X121366Y149881D01*
X121379Y149888D01*
X121398Y149907D01*
X121411Y149913D01*
X121443Y149926D01*
X121478Y149942D01*
X121513Y149971D01*
X121558Y149996D01*
X121571Y150003D01*
X121574Y150012D01*
X121609Y150041D01*
X121622Y150048D01*
X121667Y150092D01*
X121680Y150099D01*
X121760Y150179D01*
X121766Y150191D01*
X121795Y150220D01*
X121824Y150255D01*
X121830Y150268D01*
X121862Y150300D01*
X121894Y150358D01*
X121900Y150371D01*
X121929Y150399D01*
X121945Y150441D01*
X121964Y150486D01*
X121977Y150499D01*
X122000Y150534D01*
X122006Y150559D01*
X122016Y150601D01*
X122044Y150649D01*
X122057Y150681D01*
X122064Y150707D01*
X122073Y150761D01*
X122079Y150787D01*
X122108Y150879D01*
X122118Y150940D01*
X122124Y150959D01*
X122131Y151286D01*
X122124Y151369D01*
X122115Y151455D01*
X122108Y151487D01*
X122102Y151513D01*
X122089Y151545D01*
X122076Y151596D01*
X122070Y151634D01*
X122064Y151666D01*
X122054Y151708D01*
X122025Y151756D01*
X122009Y151798D01*
X122003Y151823D01*
X121990Y151855D01*
X121984Y151868D01*
X121961Y151890D01*
X121945Y151932D01*
X121932Y151964D01*
X121907Y151989D01*
X121875Y152047D01*
X121852Y152070D01*
X121824Y152105D01*
X121817Y152118D01*
X121801Y152134D01*
X121779Y152149D01*
X121772Y152162D01*
X121737Y152198D01*
X121724Y152204D01*
X121708Y152220D01*
X121702Y152233D01*
X121692Y152242D01*
X121660Y152261D01*
X121622Y152300D01*
X121577Y152325D01*
X121565Y152332D01*
X121552Y152345D01*
X121539Y152351D01*
X121523Y152367D01*
X121491Y152380D01*
X121449Y152396D01*
X121437Y152409D01*
X121414Y152425D01*
X121372Y152441D01*
X121347Y152447D01*
X121277Y152479D01*
X121235Y152495D01*
X121203Y152501D01*
X121142Y152511D01*
X121117Y152517D01*
X121053Y152537D01*
X121033Y152543D01*
X120982Y152549D01*
X120963Y152556D01*
X116778Y152562D01*
X116695Y152569D01*
X116685Y152578D01*
X116669Y152601D01*
X116673Y154402D01*
X116666Y154485D01*
X116679Y154517D01*
X116689Y154527D01*
X121084Y154533D01*
X121398Y154527D01*
D02*
G37*
G36*
X120381Y147226D02*
X120579Y147219D01*
X120662Y147213D01*
X120749Y147203D01*
X120781Y147197D01*
X120857Y147178D01*
X120889Y147171D01*
X120982Y147162D01*
X121008Y147155D01*
X121053Y147149D01*
X121165Y147114D01*
X121190Y147107D01*
X121251Y147098D01*
X121277Y147091D01*
X121321Y147079D01*
X121392Y147046D01*
X121430Y147040D01*
X121456Y147034D01*
X121501Y147021D01*
X121568Y146986D01*
X121593Y146979D01*
X121625Y146973D01*
X121660Y146963D01*
X121705Y146931D01*
X121737Y146919D01*
X121763Y146912D01*
X121820Y146887D01*
X121865Y146861D01*
X121897Y146848D01*
X121923Y146842D01*
X121936Y146829D01*
X121948Y146823D01*
X121961Y146810D01*
X121974Y146803D01*
X122038Y146778D01*
X122051Y146771D01*
X122064Y146759D01*
X122147Y146714D01*
X122160Y146707D01*
X122172Y146695D01*
X122243Y146656D01*
X122275Y146624D01*
X122332Y146592D01*
X122345Y146586D01*
X122364Y146567D01*
X122409Y146541D01*
X122441Y146509D01*
X122464Y146493D01*
X122502Y146467D01*
X122508Y146455D01*
X122556Y146419D01*
X122569Y146413D01*
X122607Y146375D01*
X122620Y146368D01*
X122633Y146355D01*
X122646Y146349D01*
X122691Y146304D01*
X122703Y146298D01*
X122860Y146141D01*
X122876Y146119D01*
X122889Y146112D01*
X122911Y146090D01*
X122918Y146077D01*
X122953Y146042D01*
X122982Y146007D01*
X122988Y145994D01*
X123007Y145975D01*
X123014Y145962D01*
X123039Y145936D01*
X123059Y145904D01*
X123078Y145885D01*
X123123Y145828D01*
X123129Y145815D01*
X123139Y145812D01*
X123154Y145796D01*
X123180Y145751D01*
X123187Y145738D01*
X123196Y145728D01*
X123225Y145693D01*
X123231Y145680D01*
X123244Y145648D01*
X123276Y145616D01*
X123315Y145546D01*
X123321Y145533D01*
X123334Y145520D01*
X123359Y145476D01*
X123375Y145441D01*
X123404Y145405D01*
X123430Y145335D01*
X123449Y145316D01*
X123481Y145258D01*
X123487Y145220D01*
X123513Y145181D01*
X123538Y145136D01*
X123558Y145066D01*
X123567Y145056D01*
X123593Y145018D01*
X123606Y144967D01*
X123615Y144925D01*
X123644Y144877D01*
X123657Y144845D01*
X123673Y144772D01*
X123702Y144705D01*
X123714Y144673D01*
X123721Y144647D01*
X123730Y144593D01*
X123737Y144567D01*
X123753Y144513D01*
X123772Y144461D01*
X123778Y144436D01*
X123785Y144397D01*
X123794Y144318D01*
X123801Y144292D01*
X123814Y144247D01*
X123823Y144212D01*
X123830Y144186D01*
X123842Y144103D01*
X123849Y144039D01*
X123855Y143949D01*
X123868Y143834D01*
X123878Y143729D01*
X123884Y143710D01*
X123890Y143492D01*
X123897Y143473D01*
X123894Y143393D01*
X123887Y143201D01*
X123881Y143137D01*
X123862Y142964D01*
X123852Y142852D01*
X123846Y142788D01*
X123833Y142679D01*
X123826Y142654D01*
X123814Y142609D01*
X123804Y142574D01*
X123798Y142542D01*
X123791Y142503D01*
X123785Y142446D01*
X123772Y142382D01*
X123759Y142350D01*
X123740Y142299D01*
X123734Y142273D01*
X123724Y142212D01*
X123711Y142168D01*
X123695Y142132D01*
X123666Y142052D01*
X123660Y142008D01*
X123647Y141976D01*
X123625Y141934D01*
X123612Y141902D01*
X123602Y141860D01*
X123577Y141803D01*
X123570Y141790D01*
X123561Y141780D01*
X123548Y141748D01*
X123538Y141707D01*
X123526Y141675D01*
X123513Y141662D01*
X123490Y141627D01*
X123481Y141592D01*
X123468Y141560D01*
X123462Y141547D01*
X123449Y141534D01*
X123433Y141512D01*
X123417Y141470D01*
X123401Y141435D01*
X123372Y141400D01*
X123366Y141387D01*
X123347Y141342D01*
X123340Y141329D01*
X123321Y141310D01*
X123295Y141265D01*
X123282Y141233D01*
X123257Y141208D01*
X123225Y141150D01*
X123193Y141118D01*
X123167Y141073D01*
X123161Y141061D01*
X123142Y141041D01*
X123110Y140997D01*
X123103Y140984D01*
X123081Y140961D01*
X123052Y140926D01*
X123046Y140913D01*
X123001Y140869D01*
X122994Y140856D01*
X122950Y140811D01*
X122943Y140798D01*
X122879Y140734D01*
X122873Y140721D01*
X122735Y140584D01*
X122723Y140577D01*
X122671Y140526D01*
X122659Y140520D01*
X122607Y140469D01*
X122595Y140462D01*
X122556Y140424D01*
X122524Y140405D01*
X122479Y140360D01*
X122435Y140334D01*
X122422Y140328D01*
X122396Y140302D01*
X122339Y140270D01*
X122307Y140238D01*
X122249Y140206D01*
X122236Y140200D01*
X122217Y140181D01*
X122147Y140142D01*
X122134Y140136D01*
X122118Y140120D01*
X122028Y140075D01*
X121993Y140046D01*
X121971Y140037D01*
X121936Y140027D01*
X121897Y140002D01*
X121852Y139976D01*
X121827Y139970D01*
X121785Y139954D01*
X121747Y139928D01*
X121705Y139912D01*
X121641Y139893D01*
X121590Y139861D01*
X121513Y139842D01*
X121446Y139813D01*
X121414Y139800D01*
X121341Y139784D01*
X121267Y139762D01*
X121196Y139736D01*
X121091Y139720D01*
X121065Y139714D01*
X120992Y139691D01*
X120966Y139685D01*
X120896Y139672D01*
X120797Y139662D01*
X120752Y139656D01*
X120665Y139646D01*
X120589Y139634D01*
X120538Y139627D01*
X120400Y139618D01*
X120381Y139611D01*
X120358Y139614D01*
X120086Y139611D01*
X120061Y139618D01*
X120042Y139611D01*
X120013Y139614D01*
X119923Y139621D01*
X119853Y139627D01*
X119802Y139634D01*
X119747Y139643D01*
X119722Y139650D01*
X119658Y139656D01*
X119613Y139662D01*
X119472Y139675D01*
X119421Y139688D01*
X119347Y139710D01*
X119322Y139717D01*
X119255Y139726D01*
X119229Y139733D01*
X119184Y139739D01*
X119152Y139752D01*
X119098Y139774D01*
X118992Y139797D01*
X118925Y139826D01*
X118874Y139845D01*
X118848Y139851D01*
X118807Y139861D01*
X118759Y139890D01*
X118727Y139902D01*
X118691Y139912D01*
X118634Y139938D01*
X118621Y139944D01*
X118611Y139954D01*
X118532Y139982D01*
X118499Y140002D01*
X118477Y140018D01*
X118435Y140034D01*
X118391Y140053D01*
X118378Y140066D01*
X118320Y140098D01*
X118288Y140110D01*
X118269Y140129D01*
X118224Y140155D01*
X118192Y140168D01*
X118167Y140194D01*
X118154Y140200D01*
X118144Y140210D01*
X118103Y140225D01*
X118064Y140264D01*
X118020Y140289D01*
X118007Y140296D01*
X117991Y140312D01*
X117930Y140353D01*
X117917Y140360D01*
X117885Y140392D01*
X117853Y140411D01*
X117808Y140456D01*
X117796Y140462D01*
X117744Y140513D01*
X117732Y140520D01*
X117674Y140577D01*
X117661Y140584D01*
X117633Y140613D01*
X117626Y140625D01*
X117617Y140629D01*
X117524Y140721D01*
X117517Y140734D01*
X117460Y140792D01*
X117453Y140805D01*
X117424Y140833D01*
X117412Y140840D01*
X117402Y140856D01*
X117396Y140869D01*
X117367Y140897D01*
X117338Y140933D01*
X117332Y140945D01*
X117306Y140971D01*
X117274Y141016D01*
X117268Y141028D01*
X117236Y141061D01*
X117210Y141105D01*
X117204Y141118D01*
X117178Y141144D01*
X117146Y141201D01*
X117121Y141227D01*
X117095Y141272D01*
X117082Y141304D01*
X117073Y141313D01*
X117044Y141348D01*
X117037Y141361D01*
X117018Y141406D01*
X117012Y141419D01*
X116999Y141432D01*
X116977Y141467D01*
X116967Y141502D01*
X116941Y141540D01*
X116925Y141563D01*
X116903Y141624D01*
X116890Y141656D01*
X116868Y141678D01*
X116855Y141710D01*
X116845Y141745D01*
X116820Y141803D01*
X116797Y141838D01*
X116785Y141889D01*
X116775Y141931D01*
X116746Y141979D01*
X116733Y142011D01*
X116717Y142084D01*
X116689Y142151D01*
X116673Y142193D01*
X116666Y142219D01*
X116660Y142263D01*
X116653Y142289D01*
X116631Y142363D01*
X116618Y142395D01*
X116612Y142420D01*
X116606Y142459D01*
X116596Y142539D01*
X116583Y142590D01*
X116573Y142625D01*
X116561Y142676D01*
X116548Y142753D01*
X116535Y142913D01*
X116529Y142977D01*
X116519Y143089D01*
X116513Y143108D01*
X116506Y143230D01*
X116500Y143249D01*
X116503Y143610D01*
X116510Y143694D01*
X116516Y143751D01*
X116522Y143815D01*
X116529Y143873D01*
X116535Y143937D01*
X116545Y144081D01*
X116551Y144106D01*
X116564Y144183D01*
X116573Y144218D01*
X116593Y144295D01*
X116599Y144333D01*
X116606Y144391D01*
X116612Y144430D01*
X116618Y144455D01*
X116637Y144506D01*
X116650Y144538D01*
X116657Y144564D01*
X116666Y144625D01*
X116685Y144689D01*
X116701Y144724D01*
X116724Y144785D01*
X116730Y144829D01*
X116781Y144938D01*
X116788Y144977D01*
X116813Y145034D01*
X116820Y145047D01*
X116829Y145056D01*
X116842Y145089D01*
X116852Y145130D01*
X116865Y145162D01*
X116877Y145175D01*
X116884Y145188D01*
X116893Y145197D01*
X116909Y145239D01*
X116922Y145284D01*
X116941Y145303D01*
X116948Y145316D01*
X116957Y145325D01*
X116973Y145367D01*
X116986Y145399D01*
X116996Y145408D01*
X117028Y145460D01*
X117044Y145501D01*
X117063Y145520D01*
X117108Y145604D01*
X117133Y145629D01*
X117165Y145687D01*
X117191Y145712D01*
X117229Y145783D01*
X117261Y145815D01*
X117264Y145818D01*
X117281Y145840D01*
X117287Y145853D01*
X117309Y145876D01*
X117338Y145911D01*
X117345Y145924D01*
X117367Y145946D01*
X117396Y145981D01*
X117402Y145994D01*
X117447Y146039D01*
X117453Y146052D01*
X117472Y146071D01*
X117479Y146083D01*
X117488Y146093D01*
X117511Y146109D01*
X117517Y146122D01*
X117681Y146285D01*
X117693Y146292D01*
X117738Y146336D01*
X117751Y146343D01*
X117764Y146355D01*
X117776Y146362D01*
X117802Y146388D01*
X117860Y146432D01*
X117872Y146439D01*
X117882Y146448D01*
X117888Y146461D01*
X117930Y146490D01*
X117943Y146496D01*
X117981Y146535D01*
X118026Y146560D01*
X118039Y146567D01*
X118058Y146586D01*
X118116Y146618D01*
X118135Y146637D01*
X118180Y146669D01*
X118205Y146675D01*
X118218Y146688D01*
X118231Y146695D01*
X118253Y146717D01*
X118314Y146739D01*
X118330Y146755D01*
X118368Y146781D01*
X118432Y146807D01*
X118468Y146835D01*
X118480Y146842D01*
X118512Y146854D01*
X118570Y146880D01*
X118592Y146896D01*
X118624Y146909D01*
X118659Y146919D01*
X118704Y146938D01*
X118762Y146970D01*
X118813Y146982D01*
X118883Y147015D01*
X118906Y147024D01*
X118973Y147040D01*
X118999Y147046D01*
X119079Y147082D01*
X119104Y147088D01*
X119146Y147098D01*
X119191Y147104D01*
X119216Y147111D01*
X119328Y147146D01*
X119405Y147158D01*
X119462Y147165D01*
X119501Y147171D01*
X119565Y147184D01*
X119616Y147197D01*
X119693Y147210D01*
X119757Y147216D01*
X119965Y147226D01*
X120144Y147232D01*
X120381Y147226D01*
D02*
G37*
G36*
X116721Y140296D02*
X116759Y140270D01*
X116772Y140264D01*
X116788Y140248D01*
X116823Y140219D01*
X116836Y140213D01*
X116868Y140181D01*
X116925Y140149D01*
X116957Y140117D01*
X117002Y140091D01*
X117041Y140053D01*
X117085Y140027D01*
X117124Y139989D01*
X117169Y139963D01*
X117181Y139957D01*
X117201Y139938D01*
X117245Y139906D01*
X117258Y139899D01*
X117284Y139874D01*
X117329Y139842D01*
X117341Y139835D01*
X117360Y139816D01*
X117405Y139784D01*
X117418Y139778D01*
X117450Y139746D01*
X117463Y139739D01*
X117501Y139714D01*
X117514Y139707D01*
X117517Y139698D01*
X117527Y139688D01*
X117572Y139662D01*
X117610Y139624D01*
X117668Y139592D01*
X117700Y139560D01*
X117744Y139535D01*
X117770Y139509D01*
X117815Y139477D01*
X117828Y139471D01*
X117860Y139438D01*
X117904Y139413D01*
X117927Y139390D01*
X117988Y139349D01*
X118000Y139342D01*
X118016Y139326D01*
X118052Y139298D01*
X118064Y139291D01*
X118087Y139269D01*
X118147Y139227D01*
X118160Y139221D01*
X118186Y139195D01*
X118231Y139170D01*
X118269Y139131D01*
X118314Y139106D01*
X118352Y139067D01*
X118397Y139042D01*
X118410Y139035D01*
X118429Y139016D01*
X118474Y138984D01*
X118487Y138978D01*
X118519Y138946D01*
X118551Y138927D01*
X118563Y138914D01*
X118576Y138907D01*
X118580Y138898D01*
X118634Y138863D01*
X118647Y138856D01*
X118672Y138831D01*
X118685Y138824D01*
X118730Y138792D01*
X118743Y138786D01*
X118746Y138776D01*
X118755Y138767D01*
X118800Y138741D01*
X118839Y138703D01*
X118896Y138671D01*
X118928Y138639D01*
X118973Y138613D01*
X118999Y138588D01*
X119043Y138555D01*
X119056Y138549D01*
X119088Y138517D01*
X119133Y138491D01*
X119155Y138469D01*
X119216Y138427D01*
X119229Y138421D01*
X119239Y138412D01*
X119245Y138399D01*
X119280Y138376D01*
X119293Y138370D01*
X119315Y138348D01*
X119376Y138306D01*
X119389Y138300D01*
X119415Y138274D01*
X119459Y138248D01*
X119498Y138210D01*
X119543Y138184D01*
X119574Y138152D01*
X119619Y138127D01*
X119632Y138114D01*
X119645Y138108D01*
X119658Y138095D01*
X119702Y138063D01*
X119715Y138056D01*
X119747Y138024D01*
X119779Y138005D01*
X119802Y137983D01*
X119862Y137941D01*
X119875Y137935D01*
X119901Y137909D01*
X119946Y137884D01*
X119958Y137871D01*
X119971Y137864D01*
X119974Y137855D01*
X119984Y137845D01*
X120029Y137820D01*
X120067Y137781D01*
X120125Y137749D01*
X120147Y137727D01*
X120182Y137698D01*
X120240Y137692D01*
X120272Y137704D01*
X120285Y137711D01*
X120323Y137749D01*
X120368Y137775D01*
X120381Y137781D01*
X120406Y137807D01*
X120451Y137832D01*
X120470Y137852D01*
X120528Y137896D01*
X120541Y137903D01*
X120557Y137919D01*
X120617Y137960D01*
X120630Y137967D01*
X120649Y137986D01*
X120694Y138018D01*
X120707Y138024D01*
X120717Y138034D01*
X120723Y138047D01*
X120765Y138069D01*
X120777Y138082D01*
X120790Y138088D01*
X120806Y138104D01*
X120867Y138146D01*
X120880Y138152D01*
X120889Y138162D01*
X120925Y138191D01*
X120937Y138197D01*
X120976Y138236D01*
X121021Y138261D01*
X121033Y138267D01*
X121065Y138300D01*
X121078Y138306D01*
X121117Y138331D01*
X121174Y138376D01*
X121187Y138383D01*
X121225Y138421D01*
X121270Y138447D01*
X121283Y138453D01*
X121308Y138479D01*
X121353Y138504D01*
X121379Y138530D01*
X121424Y138562D01*
X121437Y138568D01*
X121468Y138600D01*
X121513Y138626D01*
X121526Y138639D01*
X121539Y138645D01*
X121558Y138664D01*
X121603Y138690D01*
X121628Y138715D01*
X121673Y138747D01*
X121686Y138754D01*
X121699Y138767D01*
X121702Y138770D01*
X121724Y138792D01*
X121769Y138818D01*
X121782Y138824D01*
X121808Y138850D01*
X121852Y138875D01*
X121878Y138901D01*
X121923Y138933D01*
X121936Y138939D01*
X121974Y138978D01*
X122019Y139003D01*
X122032Y139010D01*
X122057Y139035D01*
X122102Y139061D01*
X122128Y139087D01*
X122172Y139118D01*
X122185Y139125D01*
X122207Y139147D01*
X122268Y139189D01*
X122281Y139195D01*
X122307Y139221D01*
X122352Y139247D01*
X122377Y139272D01*
X122422Y139304D01*
X122435Y139311D01*
X122467Y139342D01*
X122479Y139349D01*
X122518Y139375D01*
X122531Y139381D01*
X122543Y139394D01*
X122588Y139426D01*
X122601Y139432D01*
X122627Y139458D01*
X122671Y139490D01*
X122684Y139496D01*
X122716Y139528D01*
X122761Y139554D01*
X122774Y139560D01*
X122793Y139579D01*
X122838Y139611D01*
X122851Y139618D01*
X122876Y139643D01*
X122921Y139675D01*
X122934Y139682D01*
X122966Y139714D01*
X123011Y139739D01*
X123023Y139746D01*
X123043Y139765D01*
X123087Y139797D01*
X123100Y139803D01*
X123110Y139813D01*
X123116Y139826D01*
X123170Y139861D01*
X123183Y139867D01*
X123215Y139899D01*
X123260Y139925D01*
X123273Y139931D01*
X123282Y139941D01*
X123289Y139954D01*
X123353Y139992D01*
X123359Y140005D01*
X123420Y140046D01*
X123433Y140053D01*
X123455Y140075D01*
X123526Y140120D01*
X123532Y140133D01*
X123586Y140168D01*
X123599Y140174D01*
X123644Y140219D01*
X123657Y140225D01*
X123676Y140245D01*
X123708Y140251D01*
X123724Y140235D01*
X123730Y138232D01*
X123724Y138188D01*
X123718Y138162D01*
X123702Y138146D01*
X123657Y138120D01*
X123644Y138114D01*
X123618Y138088D01*
X123574Y138063D01*
X123535Y138024D01*
X123490Y137999D01*
X123452Y137960D01*
X123407Y137935D01*
X123394Y137928D01*
X123369Y137903D01*
X123324Y137877D01*
X123286Y137839D01*
X123241Y137813D01*
X123209Y137781D01*
X123164Y137756D01*
X123145Y137736D01*
X123132Y137730D01*
X123119Y137717D01*
X123075Y137692D01*
X123055Y137672D01*
X122998Y137628D01*
X122985Y137621D01*
X122953Y137589D01*
X122908Y137564D01*
X122895Y137557D01*
X122892Y137548D01*
X122831Y137506D01*
X122819Y137500D01*
X122809Y137490D01*
X122803Y137477D01*
X122748Y137442D01*
X122735Y137436D01*
X122710Y137410D01*
X122665Y137385D01*
X122633Y137353D01*
X122588Y137327D01*
X122575Y137314D01*
X122563Y137308D01*
X122559Y137298D01*
X122518Y137269D01*
X122505Y137263D01*
X122495Y137253D01*
X122460Y137225D01*
X122416Y137199D01*
X122383Y137167D01*
X122339Y137141D01*
X122313Y137116D01*
X122268Y137084D01*
X122255Y137077D01*
X122240Y137061D01*
X122179Y137020D01*
X122166Y137013D01*
X122134Y136981D01*
X122089Y136956D01*
X122057Y136924D01*
X122012Y136898D01*
X121990Y136876D01*
X121929Y136834D01*
X121916Y136828D01*
X121884Y136796D01*
X121840Y136770D01*
X121814Y136745D01*
X121769Y136713D01*
X121756Y136706D01*
X121747Y136697D01*
X121712Y136668D01*
X121699Y136661D01*
X121667Y136649D01*
X121651Y136626D01*
X121657Y136601D01*
X121683Y136575D01*
X121718Y136546D01*
X121750Y136527D01*
X121782Y136495D01*
X121827Y136469D01*
X121840Y136457D01*
X121852Y136450D01*
X121865Y136438D01*
X121910Y136405D01*
X121923Y136399D01*
X121955Y136367D01*
X121987Y136348D01*
X122025Y136309D01*
X122083Y136278D01*
X122115Y136245D01*
X122160Y136220D01*
X122198Y136182D01*
X122243Y136156D01*
X122281Y136118D01*
X122326Y136092D01*
X122339Y136086D01*
X122364Y136060D01*
X122409Y136034D01*
X122441Y136002D01*
X122486Y135970D01*
X122499Y135964D01*
X122524Y135938D01*
X122569Y135913D01*
X122598Y135884D01*
X122668Y135839D01*
X122675Y135826D01*
X122684Y135817D01*
X122729Y135791D01*
X122767Y135753D01*
X122812Y135727D01*
X122825Y135721D01*
X122844Y135702D01*
X122889Y135670D01*
X122902Y135663D01*
X122927Y135638D01*
X122972Y135606D01*
X122985Y135599D01*
X123017Y135567D01*
X123062Y135542D01*
X123071Y135532D01*
X123106Y135503D01*
X123151Y135478D01*
X123167Y135462D01*
X123174Y135449D01*
X123215Y135427D01*
X123254Y135388D01*
X123311Y135356D01*
X123343Y135324D01*
X123388Y135299D01*
X123427Y135260D01*
X123471Y135235D01*
X123503Y135203D01*
X123548Y135177D01*
X123561Y135164D01*
X123574Y135158D01*
X123593Y135139D01*
X123638Y135113D01*
X123676Y135075D01*
X123708Y135055D01*
X123724Y135033D01*
X123730Y132902D01*
X123721Y132867D01*
X123682Y132861D01*
X123631Y132912D01*
X123618Y132918D01*
X123586Y132950D01*
X123529Y132982D01*
X123497Y133014D01*
X123452Y133040D01*
X123427Y133065D01*
X123382Y133097D01*
X123369Y133104D01*
X123337Y133136D01*
X123292Y133161D01*
X123270Y133184D01*
X123209Y133225D01*
X123196Y133232D01*
X123180Y133248D01*
X123145Y133277D01*
X123132Y133283D01*
X123094Y133321D01*
X123049Y133347D01*
X123036Y133353D01*
X123017Y133372D01*
X122972Y133405D01*
X122959Y133411D01*
X122927Y133443D01*
X122883Y133469D01*
X122844Y133507D01*
X122799Y133532D01*
X122767Y133565D01*
X122710Y133596D01*
X122678Y133629D01*
X122646Y133648D01*
X122617Y133677D01*
X122556Y133718D01*
X122543Y133724D01*
X122518Y133750D01*
X122473Y133776D01*
X122435Y133814D01*
X122390Y133840D01*
X122364Y133865D01*
X122319Y133897D01*
X122307Y133904D01*
X122275Y133936D01*
X122230Y133961D01*
X122217Y133968D01*
X122185Y134000D01*
X122153Y134019D01*
X122140Y134032D01*
X122128Y134038D01*
X122124Y134048D01*
X122115Y134057D01*
X122102Y134064D01*
X122064Y134089D01*
X122051Y134096D01*
X122025Y134121D01*
X121980Y134147D01*
X121955Y134172D01*
X121910Y134204D01*
X121897Y134211D01*
X121865Y134243D01*
X121820Y134268D01*
X121798Y134291D01*
X121737Y134332D01*
X121724Y134339D01*
X121699Y134364D01*
X121667Y134383D01*
X121654Y134396D01*
X121641Y134403D01*
X121638Y134412D01*
X121577Y134454D01*
X121565Y134460D01*
X121539Y134486D01*
X121494Y134511D01*
X121456Y134550D01*
X121411Y134576D01*
X121385Y134601D01*
X121341Y134633D01*
X121328Y134640D01*
X121296Y134671D01*
X121283Y134678D01*
X121244Y134704D01*
X121232Y134710D01*
X121206Y134735D01*
X121152Y134771D01*
X121145Y134783D01*
X121084Y134825D01*
X121072Y134831D01*
X121046Y134857D01*
X121001Y134883D01*
X120976Y134908D01*
X120931Y134940D01*
X120918Y134947D01*
X120886Y134979D01*
X120841Y135004D01*
X120803Y135043D01*
X120758Y135068D01*
X120745Y135075D01*
X120733Y135087D01*
X120675Y135132D01*
X120662Y135139D01*
X120649Y135158D01*
X120605Y135183D01*
X120582Y135206D01*
X120521Y135247D01*
X120509Y135254D01*
X120477Y135286D01*
X120432Y135311D01*
X120387Y135356D01*
X120342Y135382D01*
X120317Y135388D01*
X120259Y135363D01*
X120246Y135356D01*
X120221Y135330D01*
X120176Y135299D01*
X120163Y135292D01*
X120138Y135267D01*
X120102Y135244D01*
X120064Y135219D01*
X120058Y135206D01*
X120010Y135177D01*
X119971Y135139D01*
X119926Y135113D01*
X119904Y135091D01*
X119843Y135049D01*
X119830Y135043D01*
X119798Y135011D01*
X119754Y134985D01*
X119722Y134953D01*
X119690Y134934D01*
X119651Y134895D01*
X119594Y134863D01*
X119562Y134831D01*
X119517Y134806D01*
X119498Y134787D01*
X119440Y134742D01*
X119427Y134735D01*
X119402Y134710D01*
X119357Y134684D01*
X119344Y134671D01*
X119286Y134627D01*
X119274Y134620D01*
X119261Y134607D01*
X119203Y134563D01*
X119191Y134556D01*
X119159Y134524D01*
X119114Y134499D01*
X119091Y134476D01*
X119031Y134435D01*
X119018Y134428D01*
X118986Y134396D01*
X118954Y134377D01*
X118928Y134352D01*
X118883Y134319D01*
X118871Y134313D01*
X118855Y134297D01*
X118794Y134256D01*
X118781Y134249D01*
X118749Y134217D01*
X118695Y134182D01*
X118688Y134169D01*
X118679Y134160D01*
X118621Y134128D01*
X118589Y134096D01*
X118544Y134070D01*
X118506Y134032D01*
X118461Y134006D01*
X118435Y133980D01*
X118391Y133948D01*
X118378Y133942D01*
X118356Y133920D01*
X118295Y133878D01*
X118282Y133872D01*
X118256Y133846D01*
X118224Y133827D01*
X118186Y133788D01*
X118141Y133763D01*
X118119Y133740D01*
X118058Y133699D01*
X118045Y133693D01*
X118013Y133660D01*
X117968Y133635D01*
X117959Y133625D01*
X117952Y133612D01*
X117911Y133584D01*
X117898Y133577D01*
X117888Y133568D01*
X117853Y133539D01*
X117808Y133513D01*
X117783Y133488D01*
X117738Y133456D01*
X117725Y133449D01*
X117700Y133424D01*
X117655Y133392D01*
X117642Y133385D01*
X117623Y133366D01*
X117578Y133334D01*
X117565Y133328D01*
X117533Y133296D01*
X117488Y133270D01*
X117463Y133245D01*
X117418Y133213D01*
X117405Y133206D01*
X117373Y133174D01*
X117329Y133149D01*
X117316Y133136D01*
X117303Y133129D01*
X117300Y133120D01*
X117284Y133110D01*
X117229Y133075D01*
X117213Y133053D01*
X117169Y133027D01*
X117130Y132989D01*
X117073Y132957D01*
X117041Y132925D01*
X116996Y132899D01*
X116973Y132877D01*
X116938Y132848D01*
X116925Y132841D01*
X116893Y132809D01*
X116836Y132777D01*
X116804Y132746D01*
X116759Y132720D01*
X116714Y132675D01*
X116679Y132678D01*
X116669Y132701D01*
X116673Y134649D01*
X116666Y134694D01*
X116679Y134745D01*
X116705Y134771D01*
X116711Y134783D01*
X116721Y134793D01*
X116765Y134819D01*
X116797Y134851D01*
X116842Y134883D01*
X116855Y134889D01*
X116874Y134908D01*
X116919Y134940D01*
X116932Y134947D01*
X116964Y134979D01*
X117009Y135004D01*
X117047Y135043D01*
X117079Y135062D01*
X117101Y135084D01*
X117162Y135126D01*
X117175Y135132D01*
X117207Y135164D01*
X117252Y135190D01*
X117290Y135228D01*
X117322Y135247D01*
X117360Y135286D01*
X117373Y135292D01*
X117412Y135318D01*
X117424Y135324D01*
X117450Y135350D01*
X117495Y135375D01*
X117517Y135398D01*
X117552Y135427D01*
X117565Y135433D01*
X117604Y135471D01*
X117648Y135497D01*
X117671Y135519D01*
X117732Y135561D01*
X117744Y135567D01*
X117760Y135583D01*
X117796Y135612D01*
X117808Y135618D01*
X117847Y135657D01*
X117892Y135682D01*
X117924Y135715D01*
X117968Y135740D01*
X117981Y135753D01*
X118039Y135798D01*
X118052Y135804D01*
X118090Y135842D01*
X118135Y135868D01*
X118167Y135900D01*
X118211Y135926D01*
X118237Y135951D01*
X118282Y135983D01*
X118295Y135990D01*
X118320Y136015D01*
X118365Y136047D01*
X118378Y136054D01*
X118387Y136063D01*
X118394Y136076D01*
X118448Y136111D01*
X118461Y136118D01*
X118493Y136150D01*
X118538Y136175D01*
X118570Y136207D01*
X118602Y136226D01*
X118615Y136239D01*
X118627Y136245D01*
X118631Y136255D01*
X118640Y136265D01*
X118685Y136290D01*
X118701Y136306D01*
X118736Y136335D01*
X118781Y136361D01*
X118810Y136390D01*
X118861Y136421D01*
X118880Y136454D01*
X118861Y136498D01*
X118800Y136540D01*
X118787Y136546D01*
X118755Y136578D01*
X118701Y136614D01*
X118685Y136636D01*
X118640Y136661D01*
X118608Y136693D01*
X118551Y136726D01*
X118519Y136757D01*
X118474Y136783D01*
X118442Y136815D01*
X118397Y136847D01*
X118384Y136853D01*
X118365Y136873D01*
X118320Y136905D01*
X118308Y136911D01*
X118298Y136921D01*
X118263Y136949D01*
X118218Y136975D01*
X118208Y136985D01*
X118202Y136997D01*
X118160Y137026D01*
X118147Y137033D01*
X118125Y137055D01*
X118064Y137097D01*
X118052Y137103D01*
X118026Y137129D01*
X117981Y137154D01*
X117949Y137186D01*
X117927Y137202D01*
X117888Y137228D01*
X117882Y137240D01*
X117828Y137276D01*
X117815Y137282D01*
X117783Y137314D01*
X117770Y137320D01*
X117732Y137346D01*
X117719Y137353D01*
X117716Y137362D01*
X117706Y137372D01*
X117661Y137397D01*
X117623Y137436D01*
X117578Y137461D01*
X117565Y137474D01*
X117552Y137480D01*
X117549Y137490D01*
X117533Y137500D01*
X117488Y137525D01*
X117450Y137564D01*
X117437Y137570D01*
X117396Y137599D01*
X117389Y137612D01*
X117335Y137647D01*
X117322Y137653D01*
X117296Y137679D01*
X117252Y137704D01*
X117213Y137743D01*
X117169Y137768D01*
X117143Y137794D01*
X117098Y137826D01*
X117085Y137832D01*
X117076Y137842D01*
X117041Y137871D01*
X116996Y137896D01*
X116964Y137928D01*
X116932Y137948D01*
X116903Y137976D01*
X116842Y138018D01*
X116829Y138024D01*
X116804Y138050D01*
X116759Y138076D01*
X116708Y138127D01*
X116695Y138133D01*
X116676Y138152D01*
X116669Y138178D01*
X116673Y140261D01*
X116679Y140286D01*
X116695Y140302D01*
X116721Y140296D01*
D02*
G37*
G36*
X123708Y132349D02*
X123724Y132333D01*
X123730Y130420D01*
X123714Y130384D01*
X123692Y130368D01*
X119600Y130372D01*
X119440Y130365D01*
X119415Y130359D01*
X119338Y130346D01*
X119312Y130340D01*
X119178Y130320D01*
X119152Y130314D01*
X119120Y130301D01*
X119111Y130292D01*
X119050Y130269D01*
X119024Y130263D01*
X118979Y130244D01*
X118967Y130237D01*
X118951Y130221D01*
X118909Y130205D01*
X118877Y130192D01*
X118851Y130167D01*
X118794Y130135D01*
X118781Y130128D01*
X118749Y130096D01*
X118717Y130077D01*
X118695Y130055D01*
X118688Y130042D01*
X118679Y130032D01*
X118666Y130026D01*
X118631Y129991D01*
X118624Y129978D01*
X118608Y129962D01*
X118596Y129956D01*
X118560Y129908D01*
X118554Y129895D01*
X118528Y129869D01*
X118503Y129824D01*
X118471Y129780D01*
X118420Y129684D01*
X118387Y129626D01*
X118375Y129575D01*
X118346Y129508D01*
X118327Y129457D01*
X118320Y129405D01*
X118314Y129367D01*
X118295Y129290D01*
X118288Y129258D01*
X118279Y129197D01*
X118272Y129172D01*
X118266Y129031D01*
Y129025D01*
X118272Y128897D01*
X118279Y128833D01*
X118285Y128807D01*
X118292Y128762D01*
X118301Y128727D01*
X118308Y128701D01*
X118314Y128670D01*
X118323Y128609D01*
X118330Y128564D01*
X118375Y128468D01*
X118381Y128442D01*
X118394Y128398D01*
X118413Y128366D01*
X118439Y128321D01*
X118458Y128276D01*
X118464Y128263D01*
X118490Y128238D01*
X118516Y128193D01*
X118522Y128180D01*
X118532Y128170D01*
X118544Y128164D01*
X118547Y128154D01*
X118560Y128142D01*
X118567Y128129D01*
X118586Y128110D01*
X118592Y128097D01*
X118605Y128090D01*
X118611Y128078D01*
X118679Y128010D01*
X118691Y128004D01*
X118704Y127991D01*
X118717Y127985D01*
X118743Y127959D01*
X118787Y127927D01*
X118800Y127921D01*
X118835Y127886D01*
X118867Y127873D01*
X118909Y127857D01*
X118938Y127828D01*
X118970Y127815D01*
X119005Y127806D01*
X119114Y127754D01*
X119165Y127748D01*
X119216Y127735D01*
X119261Y127723D01*
X119315Y127706D01*
X119354Y127700D01*
X119411Y127694D01*
X123602Y127687D01*
X123682Y127690D01*
X123708Y127684D01*
X123724Y127668D01*
X123730Y125774D01*
X123724Y125729D01*
X123705Y125710D01*
X123679Y125704D01*
X119325Y125707D01*
X119280Y125713D01*
X119024Y125720D01*
X118922Y125726D01*
X118858Y125732D01*
X118771Y125742D01*
X118669Y125768D01*
X118631Y125774D01*
X118551Y125784D01*
X118525Y125790D01*
X118480Y125796D01*
X118439Y125813D01*
X118378Y125835D01*
X118352Y125841D01*
X118308Y125848D01*
X118256Y125861D01*
X118215Y125883D01*
X118183Y125896D01*
X118157Y125902D01*
X118116Y125912D01*
X118071Y125931D01*
X118013Y125963D01*
X117975Y125969D01*
X117930Y125988D01*
X117908Y126011D01*
X117866Y126027D01*
X117821Y126040D01*
X117802Y126059D01*
X117757Y126084D01*
X117712Y126104D01*
X117700Y126110D01*
X117696Y126120D01*
X117648Y126148D01*
X117617Y126161D01*
X117600Y126177D01*
X117540Y126219D01*
X117527Y126225D01*
X117495Y126257D01*
X117437Y126289D01*
X117415Y126312D01*
X117380Y126340D01*
X117367Y126347D01*
X117316Y126398D01*
X117303Y126404D01*
X117287Y126420D01*
X117281Y126433D01*
X117264Y126449D01*
X117252Y126456D01*
X117217Y126491D01*
X117210Y126504D01*
X117201Y126513D01*
X117188Y126519D01*
X117165Y126542D01*
X117159Y126555D01*
X117124Y126590D01*
X117095Y126625D01*
X117089Y126638D01*
X117050Y126676D01*
X117044Y126689D01*
X117018Y126728D01*
X117012Y126740D01*
X116986Y126766D01*
X116961Y126811D01*
X116935Y126836D01*
X116897Y126907D01*
X116890Y126919D01*
X116877Y126932D01*
X116845Y126990D01*
X116833Y127022D01*
X116820Y127035D01*
X116788Y127092D01*
X116781Y127118D01*
X116765Y127153D01*
X116733Y127204D01*
X116724Y127239D01*
X116717Y127265D01*
X116676Y127345D01*
X116669Y127371D01*
X116660Y127418D01*
X116650Y127454D01*
X116637Y127486D01*
X116618Y127524D01*
X116612Y127550D01*
X116596Y127642D01*
X116589Y127668D01*
X116577Y127713D01*
X116567Y127742D01*
X116554Y127793D01*
X116548Y127831D01*
X116538Y127943D01*
X116532Y127988D01*
X116522Y128074D01*
X116513Y128174D01*
X116506Y128193D01*
X116500Y128500D01*
X116506Y128641D01*
X116513Y128666D01*
X116522Y128753D01*
X116529Y128804D01*
X116538Y128903D01*
X116545Y128948D01*
X116551Y129012D01*
X116558Y129037D01*
X116586Y129130D01*
X116596Y129178D01*
X116602Y129204D01*
X116615Y129281D01*
X116650Y129354D01*
X116657Y129380D01*
X116673Y129453D01*
X116714Y129533D01*
X116727Y129585D01*
X116737Y129620D01*
X116769Y129664D01*
X116785Y129706D01*
X116794Y129741D01*
X116820Y129780D01*
X116836Y129802D01*
X116852Y129844D01*
X116865Y129876D01*
X116884Y129895D01*
X116909Y129940D01*
X116922Y129972D01*
X116941Y129991D01*
X116980Y130061D01*
X117012Y130093D01*
X117044Y130151D01*
X117076Y130183D01*
X117101Y130228D01*
X117124Y130250D01*
X117153Y130285D01*
X117159Y130298D01*
X117210Y130349D01*
X117217Y130362D01*
X117239Y130384D01*
X117252Y130391D01*
X117268Y130407D01*
X117300Y130464D01*
X117296Y130487D01*
X116721Y130493D01*
X116689Y130506D01*
X116679Y130515D01*
X116673Y132307D01*
X116679Y132333D01*
X116698Y132346D01*
X116737Y132352D01*
X123580Y132349D01*
X123663Y132355D01*
X123708Y132349D01*
D02*
G37*
G36*
X118439Y125281D02*
X118445Y121097D01*
X118451Y121071D01*
X118461Y121061D01*
X125922Y121055D01*
X125967Y121042D01*
X125976Y121033D01*
X125983Y121001D01*
X125976Y120937D01*
X125983Y120918D01*
X125979Y119219D01*
X125983Y119145D01*
X125976Y119100D01*
X125960Y119084D01*
X125938Y119068D01*
X125887Y119062D01*
X116721Y119065D01*
X116695Y119072D01*
X116679Y119087D01*
X116673Y124046D01*
Y124053D01*
Y125205D01*
X116666Y125230D01*
X116679Y125281D01*
X116695Y125297D01*
X118416Y125304D01*
X118439Y125281D01*
D02*
G37*
G36*
X121424Y115463D02*
X121680Y115456D01*
X121820Y115450D01*
X121907Y115440D01*
X121939Y115434D01*
X121964Y115427D01*
X121996Y115421D01*
X122073Y115408D01*
X122153Y115399D01*
X122281Y115386D01*
X122358Y115367D01*
X122393Y115357D01*
X122444Y115344D01*
X122518Y115335D01*
X122543Y115328D01*
X122588Y115322D01*
X122623Y115312D01*
X122694Y115287D01*
X122767Y115271D01*
X122812Y115264D01*
X122838Y115258D01*
X122895Y115232D01*
X122927Y115219D01*
X123011Y115207D01*
X123036Y115200D01*
X123078Y115178D01*
X123116Y115159D01*
X123148Y115152D01*
X123202Y115143D01*
X123247Y115124D01*
X123292Y115098D01*
X123369Y115079D01*
X123449Y115037D01*
X123484Y115028D01*
X123535Y115015D01*
X123580Y114983D01*
X123602Y114973D01*
X123638Y114964D01*
X123695Y114938D01*
X123753Y114906D01*
X123778Y114900D01*
X123823Y114880D01*
X123846Y114858D01*
X123906Y114836D01*
X123938Y114823D01*
X123951Y114810D01*
X123974Y114794D01*
X124034Y114772D01*
X124073Y114746D01*
X124117Y114720D01*
X124150Y114708D01*
X124162Y114695D01*
X124175Y114688D01*
X124204Y114666D01*
X124255Y114647D01*
X124290Y114618D01*
X124348Y114586D01*
X124361Y114580D01*
X124380Y114560D01*
X124393Y114554D01*
X124402Y114544D01*
X124444Y114528D01*
X124460Y114512D01*
X124495Y114484D01*
X124508Y114477D01*
X124540Y114464D01*
X124572Y114432D01*
X124629Y114400D01*
X124661Y114368D01*
X124719Y114336D01*
X124738Y114317D01*
X124783Y114285D01*
X124796Y114279D01*
X124818Y114256D01*
X124853Y114228D01*
X124866Y114221D01*
X124889Y114199D01*
X124924Y114170D01*
X124937Y114164D01*
X124975Y114125D01*
X124988Y114119D01*
X125001Y114106D01*
X125013Y114100D01*
X125052Y114061D01*
X125064Y114055D01*
X125077Y114042D01*
X125090Y114036D01*
X125119Y114007D01*
X125154Y113978D01*
X125167Y113972D01*
X125183Y113956D01*
X125189Y113943D01*
X125199Y113933D01*
X125212Y113927D01*
X125276Y113863D01*
X125288Y113856D01*
X125304Y113841D01*
X125311Y113828D01*
X125333Y113805D01*
X125346Y113799D01*
X125375Y113770D01*
X125381Y113757D01*
X125391Y113748D01*
X125404Y113741D01*
X125433Y113713D01*
X125439Y113700D01*
X125461Y113677D01*
X125474Y113671D01*
X125490Y113655D01*
X125496Y113642D01*
X125554Y113585D01*
X125560Y113572D01*
X125612Y113521D01*
X125618Y113508D01*
X125647Y113479D01*
X125676Y113444D01*
X125682Y113431D01*
X125711Y113402D01*
X125740Y113367D01*
X125746Y113354D01*
X125784Y113316D01*
X125800Y113294D01*
X125826Y113255D01*
X125839Y113249D01*
X125848Y113239D01*
X125874Y113194D01*
X125912Y113156D01*
X125944Y113098D01*
X125970Y113073D01*
X125996Y113028D01*
X126034Y112990D01*
X126060Y112945D01*
X126066Y112932D01*
X126085Y112913D01*
X126124Y112842D01*
X126149Y112817D01*
X126187Y112746D01*
X126194Y112734D01*
X126213Y112714D01*
X126229Y112692D01*
X126245Y112650D01*
X126258Y112638D01*
X126264Y112625D01*
X126284Y112606D01*
X126309Y112542D01*
X126315Y112529D01*
X126344Y112500D01*
X126360Y112458D01*
X126373Y112426D01*
X126392Y112407D01*
X126418Y112362D01*
X126424Y112337D01*
X126437Y112305D01*
X126456Y112286D01*
X126463Y112273D01*
X126472Y112263D01*
X126482Y112228D01*
X126498Y112186D01*
X126527Y112151D01*
X126536Y112129D01*
X126546Y112087D01*
X126565Y112043D01*
X126578Y112030D01*
X126594Y112007D01*
X126603Y111966D01*
X126629Y111908D01*
X126635Y111895D01*
X126645Y111886D01*
X126658Y111854D01*
X126667Y111806D01*
X126693Y111748D01*
X126699Y111735D01*
X126709Y111726D01*
X126722Y111694D01*
X126731Y111639D01*
X126779Y111534D01*
X126789Y111486D01*
X126795Y111460D01*
X126808Y111415D01*
X126837Y111361D01*
X126847Y111313D01*
X126853Y111287D01*
X126859Y111243D01*
X126866Y111217D01*
X126904Y111134D01*
X126910Y111070D01*
X126917Y111044D01*
X126923Y110999D01*
X126946Y110926D01*
X126959Y110894D01*
X126974Y110801D01*
X126981Y110737D01*
X126987Y110692D01*
X127000Y110648D01*
X127007Y110622D01*
X127016Y110587D01*
X127022Y110561D01*
X127029Y110523D01*
X127038Y110372D01*
X127045Y110328D01*
X127061Y110197D01*
X127067Y110158D01*
X127077Y110059D01*
X127083Y110040D01*
X127090Y109784D01*
X127096Y109765D01*
X127093Y109461D01*
X127086Y109294D01*
X127080Y109211D01*
X127074Y109141D01*
X127067Y109089D01*
X127061Y109058D01*
X127048Y108974D01*
X127042Y108910D01*
X127032Y108754D01*
X127026Y108728D01*
X127019Y108683D01*
X127013Y108658D01*
X127003Y108622D01*
X126997Y108597D01*
X126987Y108555D01*
X126981Y108536D01*
X126974Y108447D01*
X126968Y108421D01*
X126962Y108376D01*
X126939Y108302D01*
X126926Y108271D01*
X126917Y108229D01*
X126904Y108139D01*
X126898Y108114D01*
X126875Y108059D01*
X126863Y108027D01*
X126856Y108002D01*
X126847Y107935D01*
X126840Y107909D01*
X126805Y107835D01*
X126799Y107810D01*
X126789Y107762D01*
X126776Y107717D01*
X126741Y107650D01*
X126735Y107624D01*
X126725Y107570D01*
X126712Y107538D01*
X126687Y107500D01*
X126677Y107477D01*
X126661Y107410D01*
X126642Y107365D01*
X126626Y107349D01*
X126603Y107288D01*
X126597Y107263D01*
X126581Y107227D01*
X126549Y107176D01*
X126539Y107135D01*
X126527Y107103D01*
X126517Y107093D01*
X126485Y107042D01*
X126475Y107000D01*
X126450Y106962D01*
X126434Y106940D01*
X126418Y106898D01*
X126402Y106863D01*
X126373Y106828D01*
X126347Y106757D01*
X126338Y106748D01*
X126309Y106712D01*
X126284Y106648D01*
X126264Y106629D01*
X126226Y106559D01*
X126220Y106546D01*
X126200Y106527D01*
X126162Y106456D01*
X126156Y106444D01*
X126146Y106440D01*
X126136Y106431D01*
X126104Y106373D01*
X126098Y106361D01*
X126079Y106341D01*
X126040Y106271D01*
X126024Y106255D01*
X126011Y106249D01*
X125983Y106194D01*
X125951Y106162D01*
X125919Y106104D01*
X125896Y106082D01*
X125868Y106047D01*
X125861Y106034D01*
X125839Y106012D01*
X125810Y105977D01*
X125804Y105964D01*
X125765Y105925D01*
X125746Y105893D01*
X125701Y105849D01*
X125695Y105836D01*
X125682Y105823D01*
X125676Y105810D01*
X125637Y105772D01*
X125631Y105759D01*
X125618Y105746D01*
X125612Y105733D01*
X125560Y105682D01*
X125554Y105669D01*
X125538Y105653D01*
X125525Y105647D01*
X125509Y105631D01*
X125503Y105618D01*
X125439Y105554D01*
X125433Y105541D01*
X125423Y105532D01*
X125410Y105526D01*
X125397Y105513D01*
X125365Y105474D01*
X125352Y105468D01*
X125311Y105426D01*
X125304Y105414D01*
X125295Y105410D01*
X125282Y105398D01*
X125269Y105391D01*
X125260Y105381D01*
X125253Y105369D01*
X125231Y105346D01*
X125218Y105340D01*
X125167Y105289D01*
X125154Y105282D01*
X125119Y105247D01*
X125084Y105218D01*
X125071Y105212D01*
X125042Y105183D01*
X125007Y105154D01*
X124994Y105148D01*
X124956Y105110D01*
X124924Y105090D01*
X124879Y105046D01*
X124825Y105010D01*
X124809Y104988D01*
X124764Y104962D01*
X124751Y104956D01*
X124722Y104927D01*
X124652Y104882D01*
X124645Y104870D01*
X124629Y104860D01*
X124585Y104834D01*
X124565Y104815D01*
X124553Y104809D01*
X124537Y104793D01*
X124495Y104777D01*
X124479Y104761D01*
X124441Y104729D01*
X124399Y104713D01*
X124380Y104694D01*
X124367Y104687D01*
X124354Y104674D01*
X124341Y104668D01*
X124297Y104649D01*
X124262Y104614D01*
X124220Y104598D01*
X124188Y104585D01*
X124169Y104566D01*
X124146Y104550D01*
X124105Y104534D01*
X124028Y104482D01*
X124002Y104476D01*
X123958Y104457D01*
X123945Y104444D01*
X123922Y104428D01*
X123862Y104406D01*
X123833Y104390D01*
X123782Y104358D01*
X123734Y104348D01*
X123695Y104323D01*
X123660Y104300D01*
X123625Y104291D01*
X123567Y104265D01*
X123532Y104242D01*
X123465Y104227D01*
X123372Y104178D01*
X123299Y104163D01*
X123218Y104121D01*
X123193Y104115D01*
X123119Y104099D01*
X123062Y104073D01*
X123052Y104063D01*
X123017Y104054D01*
X122991Y104047D01*
X122947Y104041D01*
X122921Y104035D01*
X122841Y103999D01*
X122815Y103993D01*
X122761Y103983D01*
X122684Y103971D01*
X122630Y103948D01*
X122598Y103935D01*
X122537Y103926D01*
X122492Y103919D01*
X122428Y103913D01*
X122396Y103900D01*
X122367Y103865D01*
X122361Y103827D01*
X122355Y103801D01*
X122361Y103782D01*
X122358Y102262D01*
X122361Y102182D01*
X122348Y102150D01*
X122323Y102144D01*
X120202Y102147D01*
X120182Y102141D01*
X120138Y102147D01*
X120118Y102166D01*
X120122Y103807D01*
X120115Y103852D01*
X120102Y103884D01*
X120090Y103897D01*
X120058Y103910D01*
X120026Y103916D01*
X119946Y103926D01*
X119901Y103932D01*
X119875Y103939D01*
X119834Y103955D01*
X119802Y103967D01*
X119766Y103977D01*
X119741Y103983D01*
X119677Y103990D01*
X119632Y104003D01*
X119597Y104019D01*
X119565Y104031D01*
X119530Y104041D01*
X119504Y104047D01*
X119459Y104054D01*
X119379Y104089D01*
X119347Y104102D01*
X119309Y104108D01*
X119267Y104118D01*
X119187Y104159D01*
X119146Y104169D01*
X119101Y104182D01*
X119069Y104194D01*
X119053Y104211D01*
X119021Y104223D01*
X118979Y104233D01*
X118935Y104246D01*
X118922Y104258D01*
X118909Y104265D01*
X118899Y104275D01*
X118867Y104287D01*
X118819Y104297D01*
X118781Y104323D01*
X118736Y104348D01*
X118685Y104361D01*
X118621Y104406D01*
X118596Y104412D01*
X118551Y104431D01*
X118538Y104438D01*
X118525Y104451D01*
X118512Y104457D01*
X118503Y104466D01*
X118468Y104476D01*
X118435Y104489D01*
X118416Y104508D01*
X118371Y104534D01*
X118327Y104553D01*
X118314Y104559D01*
X118288Y104585D01*
X118275Y104591D01*
X118208Y104620D01*
X118202Y104633D01*
X118180Y104649D01*
X118167Y104655D01*
X118122Y104674D01*
X118103Y104694D01*
X118032Y104732D01*
X118007Y104758D01*
X117936Y104796D01*
X117911Y104822D01*
X117853Y104854D01*
X117821Y104886D01*
X117776Y104911D01*
X117767Y104921D01*
X117732Y104950D01*
X117687Y104975D01*
X117652Y105010D01*
X117600Y105042D01*
X117594Y105055D01*
X117559Y105084D01*
X117546Y105090D01*
X117517Y105119D01*
X117482Y105148D01*
X117469Y105154D01*
X117457Y105167D01*
X117444Y105174D01*
X117405Y105212D01*
X117393Y105218D01*
X117348Y105263D01*
X117335Y105269D01*
X117322Y105282D01*
X117309Y105289D01*
X117300Y105298D01*
X117293Y105311D01*
X117277Y105327D01*
X117264Y105333D01*
X117252Y105346D01*
X117239Y105353D01*
X117236Y105362D01*
X117207Y105391D01*
X117194Y105398D01*
X117165Y105426D01*
X117159Y105439D01*
X117149Y105449D01*
X117137Y105455D01*
X117108Y105484D01*
X117092Y105506D01*
X117079Y105513D01*
X117044Y105548D01*
X117037Y105561D01*
X117021Y105577D01*
X117009Y105583D01*
X116993Y105599D01*
X116986Y105612D01*
X116922Y105676D01*
X116916Y105689D01*
X116893Y105711D01*
X116881Y105717D01*
X116865Y105740D01*
X116858Y105753D01*
X116813Y105797D01*
X116807Y105810D01*
X116794Y105823D01*
X116788Y105836D01*
X116749Y105874D01*
X116743Y105887D01*
X116730Y105900D01*
X116724Y105913D01*
X116692Y105945D01*
X116673Y105977D01*
X116634Y106015D01*
X116618Y106037D01*
X116593Y106076D01*
X116580Y106082D01*
X116564Y106104D01*
X116538Y106149D01*
X116532Y106162D01*
X116506Y106188D01*
X116481Y106233D01*
X116442Y106271D01*
X116413Y106325D01*
X116385Y106361D01*
X116353Y106418D01*
X116334Y106437D01*
X116301Y106482D01*
X116295Y106508D01*
X116282Y106521D01*
X116276Y106533D01*
X116263Y106546D01*
X116244Y106578D01*
X116231Y106610D01*
X116212Y106629D01*
X116180Y106687D01*
X116167Y106719D01*
X116148Y106738D01*
X116132Y106760D01*
X116116Y106802D01*
X116100Y106837D01*
X116071Y106872D01*
X116052Y106924D01*
X116039Y106956D01*
X116026Y106968D01*
X116010Y106991D01*
X115994Y107032D01*
X115988Y107058D01*
X115962Y107096D01*
X115937Y107141D01*
X115924Y107192D01*
X115892Y107237D01*
X115879Y107269D01*
X115866Y107314D01*
X115857Y107343D01*
X115831Y107381D01*
X115815Y107423D01*
X115809Y107448D01*
X115796Y107493D01*
X115771Y107531D01*
X115761Y107554D01*
X115751Y107589D01*
X115745Y107615D01*
X115732Y107659D01*
X115703Y107714D01*
X115687Y107781D01*
X115674Y107832D01*
X115639Y107906D01*
X115630Y107954D01*
X115623Y107979D01*
X115617Y108024D01*
X115595Y108078D01*
X115582Y108111D01*
X115572Y108152D01*
X115566Y108178D01*
X115559Y108242D01*
X115543Y108296D01*
X115524Y108347D01*
X115518Y108373D01*
X115511Y108405D01*
X115502Y108498D01*
X115495Y108523D01*
X115489Y108568D01*
X115479Y108603D01*
X115460Y108680D01*
X115454Y108712D01*
X115441Y108859D01*
X115435Y108936D01*
X115428Y108994D01*
X115422Y109032D01*
X115409Y109115D01*
X115402Y109173D01*
X115393Y109304D01*
X115386Y109323D01*
X115390Y109941D01*
X115406Y110117D01*
X115412Y110142D01*
X115422Y110229D01*
X115428Y110267D01*
X115435Y110318D01*
X115444Y110430D01*
X115450Y110532D01*
X115470Y110609D01*
X115479Y110644D01*
X115486Y110670D01*
X115499Y110740D01*
X115511Y110856D01*
X115524Y110907D01*
X115540Y110948D01*
X115553Y110980D01*
X115562Y111041D01*
X115569Y111092D01*
X115575Y111124D01*
X115582Y111150D01*
X115614Y111220D01*
X115620Y111246D01*
X115630Y111307D01*
X115642Y111358D01*
X115681Y111441D01*
X115687Y111467D01*
X115694Y111511D01*
X115729Y111591D01*
X115742Y111623D01*
X115751Y111665D01*
X115758Y111691D01*
X115777Y111735D01*
X115793Y111758D01*
X115806Y111790D01*
X115815Y111838D01*
X115841Y111895D01*
X115857Y111918D01*
X115870Y111950D01*
X115879Y111991D01*
X115892Y112023D01*
X115905Y112036D01*
X115930Y112081D01*
X115937Y112107D01*
X115950Y112151D01*
X115962Y112164D01*
X115985Y112199D01*
X116001Y112241D01*
X116007Y112267D01*
X116020Y112279D01*
X116026Y112292D01*
X116042Y112308D01*
X116071Y112388D01*
X116084Y112401D01*
X116090Y112414D01*
X116103Y112426D01*
X116110Y112439D01*
X116135Y112503D01*
X116154Y112522D01*
X116186Y112580D01*
X116193Y112606D01*
X116202Y112615D01*
X116231Y112650D01*
X116237Y112663D01*
X116257Y112708D01*
X116276Y112727D01*
X116314Y112798D01*
X116340Y112823D01*
X116378Y112894D01*
X116385Y112906D01*
X116404Y112926D01*
X116430Y112970D01*
X116442Y112983D01*
X116449Y112996D01*
X116458Y112999D01*
X116468Y113009D01*
X116494Y113054D01*
X116500Y113066D01*
X116532Y113098D01*
X116558Y113143D01*
X116564Y113156D01*
X116596Y113188D01*
X116615Y113220D01*
X116653Y113258D01*
X116673Y113290D01*
X116701Y113319D01*
X116730Y113354D01*
X116737Y113367D01*
X116775Y113405D01*
X116781Y113418D01*
X116794Y113431D01*
X116801Y113444D01*
X116839Y113482D01*
X116845Y113495D01*
X116858Y113508D01*
X116865Y113521D01*
X116916Y113572D01*
X116922Y113585D01*
X116945Y113607D01*
X116957Y113613D01*
X116967Y113623D01*
X116973Y113636D01*
X117044Y113706D01*
X117050Y113719D01*
X117060Y113729D01*
X117073Y113735D01*
X117095Y113757D01*
X117101Y113770D01*
X117117Y113786D01*
X117130Y113793D01*
X117194Y113856D01*
X117207Y113863D01*
X117217Y113872D01*
X117223Y113885D01*
X117245Y113908D01*
X117258Y113914D01*
X117322Y113978D01*
X117335Y113984D01*
X117373Y114023D01*
X117386Y114029D01*
X117399Y114042D01*
X117412Y114049D01*
X117441Y114077D01*
X117476Y114106D01*
X117488Y114113D01*
X117527Y114151D01*
X117559Y114170D01*
X117597Y114208D01*
X117629Y114228D01*
X117668Y114266D01*
X117712Y114292D01*
X117725Y114304D01*
X117738Y114311D01*
X117764Y114336D01*
X117808Y114362D01*
X117821Y114368D01*
X117824Y114378D01*
X117885Y114420D01*
X117898Y114426D01*
X117924Y114452D01*
X117978Y114480D01*
X117981Y114484D01*
X117988D01*
X118013Y114509D01*
X118084Y114548D01*
X118103Y114567D01*
X118173Y114605D01*
X118186Y114612D01*
X118205Y114631D01*
X118250Y114656D01*
X118282Y114669D01*
X118295Y114676D01*
X118314Y114695D01*
X118346Y114714D01*
X118391Y114733D01*
X118404Y114740D01*
X118416Y114752D01*
X118439Y114768D01*
X118480Y114784D01*
X118512Y114797D01*
X118525Y114810D01*
X118538Y114816D01*
X118547Y114826D01*
X118580Y114839D01*
X118615Y114848D01*
X118653Y114874D01*
X118675Y114890D01*
X118717Y114906D01*
X118762Y114919D01*
X118775Y114931D01*
X118787Y114938D01*
X118797Y114948D01*
X118829Y114960D01*
X118871Y114970D01*
X118906Y114986D01*
X118941Y115015D01*
X119018Y115034D01*
X119047Y115043D01*
X119098Y115076D01*
X119165Y115091D01*
X119210Y115111D01*
X119222Y115117D01*
X119232Y115127D01*
X119264Y115140D01*
X119296Y115146D01*
X119334Y115152D01*
X119376Y115162D01*
X119424Y115191D01*
X119456Y115204D01*
X119517Y115213D01*
X119568Y115226D01*
X119603Y115242D01*
X119654Y115261D01*
X119696Y115271D01*
X119773Y115283D01*
X119827Y115299D01*
X119888Y115322D01*
X119914Y115328D01*
X119958Y115335D01*
X120022Y115341D01*
X120074Y115354D01*
X120128Y115370D01*
X120179Y115383D01*
X120218Y115389D01*
X120336Y115399D01*
X120361Y115405D01*
X120448Y115415D01*
X120512Y115427D01*
X120538Y115434D01*
X120621Y115447D01*
X120704Y115453D01*
X120989Y115463D01*
X121206Y115469D01*
X121424Y115463D01*
D02*
G37*
G36*
X194238Y39026D02*
X194472Y38979D01*
X194693Y38921D01*
X194880Y38851D01*
X195031Y38770D01*
X195148Y38711D01*
X195183Y38688D01*
X195218Y38665D01*
X195229Y38653D01*
X195241D01*
X195439Y38501D01*
X195626Y38315D01*
X195777Y38128D01*
X195917Y37942D01*
X196022Y37767D01*
X196092Y37627D01*
X196127Y37569D01*
X196150Y37534D01*
X196162Y37510D01*
Y37499D01*
X196209Y37394D01*
X196255Y37266D01*
X196302Y37114D01*
X196360Y36962D01*
X196453Y36636D01*
X196535Y36310D01*
X196582Y36146D01*
X196617Y36006D01*
X196652Y35866D01*
X196675Y35750D01*
X196698Y35657D01*
X196722Y35575D01*
X196733Y35528D01*
Y35517D01*
X196792Y35260D01*
X196850Y35027D01*
X196908Y34817D01*
X196966Y34631D01*
X197025Y34467D01*
X197071Y34328D01*
X197130Y34199D01*
X197176Y34083D01*
X197211Y34001D01*
X197246Y33919D01*
X197281Y33861D01*
X197316Y33815D01*
X197328Y33780D01*
X197351Y33756D01*
X197363Y33733D01*
X197491Y33616D01*
X197619Y33535D01*
X197748Y33477D01*
X197876Y33442D01*
X197992Y33418D01*
X198074Y33395D01*
X198132D01*
X198156D01*
X198354Y33418D01*
X198540Y33477D01*
X198704Y33547D01*
X198843Y33640D01*
X198960Y33733D01*
X199042Y33803D01*
X199088Y33861D01*
X199112Y33885D01*
X199182Y33978D01*
X199240Y34094D01*
X199345Y34339D01*
X199415Y34596D01*
X199461Y34852D01*
X199485Y35085D01*
X199496Y35179D01*
X199508Y35272D01*
Y35633D01*
X199485Y35808D01*
X199473Y35972D01*
X199438Y36123D01*
X199403Y36263D01*
X199368Y36391D01*
X199333Y36508D01*
X199298Y36613D01*
X199252Y36694D01*
X199217Y36776D01*
X199182Y36846D01*
X199147Y36904D01*
X199112Y36939D01*
X199100Y36974D01*
X199077Y36997D01*
X198902Y37184D01*
X198692Y37324D01*
X198482Y37429D01*
X198284Y37510D01*
X198097Y37569D01*
X198016Y37592D01*
X197946Y37604D01*
X197887Y37615D01*
X197841Y37627D01*
X197818D01*
X197806D01*
X197887Y38770D01*
X198167Y38746D01*
X198435Y38688D01*
X198669Y38618D01*
X198878Y38536D01*
X199053Y38455D01*
X199123Y38420D01*
X199182Y38396D01*
X199228Y38361D01*
X199263Y38350D01*
X199275Y38326D01*
X199287D01*
X199508Y38163D01*
X199706Y37965D01*
X199869Y37778D01*
X199998Y37580D01*
X200103Y37417D01*
X200184Y37277D01*
X200208Y37219D01*
X200231Y37184D01*
X200243Y37161D01*
Y37149D01*
X200347Y36858D01*
X200429Y36554D01*
X200487Y36263D01*
X200534Y35995D01*
X200546Y35866D01*
X200557Y35750D01*
Y35657D01*
X200569Y35563D01*
Y35400D01*
X200557Y35074D01*
X200522Y34759D01*
X200464Y34479D01*
X200417Y34234D01*
X200382Y34129D01*
X200359Y34036D01*
X200324Y33955D01*
X200301Y33885D01*
X200289Y33826D01*
X200266Y33791D01*
X200254Y33768D01*
Y33756D01*
X200126Y33500D01*
X199986Y33267D01*
X199834Y33080D01*
X199695Y32917D01*
X199566Y32800D01*
X199450Y32707D01*
X199380Y32660D01*
X199368Y32637D01*
X199356D01*
X199135Y32509D01*
X198913Y32416D01*
X198704Y32346D01*
X198505Y32299D01*
X198331Y32276D01*
X198202Y32264D01*
X198156Y32252D01*
X198121D01*
X198097D01*
X198086D01*
X197864Y32264D01*
X197654Y32299D01*
X197456Y32346D01*
X197293Y32404D01*
X197153Y32462D01*
X197060Y32509D01*
X196990Y32544D01*
X196978Y32555D01*
X196966D01*
X196792Y32684D01*
X196628Y32835D01*
X196488Y32998D01*
X196372Y33150D01*
X196267Y33290D01*
X196197Y33407D01*
X196174Y33453D01*
X196150Y33488D01*
X196139Y33500D01*
Y33512D01*
X196092Y33616D01*
X196034Y33733D01*
X195941Y33990D01*
X195836Y34281D01*
X195754Y34561D01*
X195672Y34829D01*
X195649Y34934D01*
X195614Y35039D01*
X195602Y35120D01*
X195579Y35179D01*
X195567Y35225D01*
Y35237D01*
X195509Y35459D01*
X195463Y35657D01*
X195416Y35843D01*
X195381Y36006D01*
X195334Y36158D01*
X195299Y36286D01*
X195276Y36403D01*
X195241Y36496D01*
X195218Y36589D01*
X195194Y36659D01*
X195183Y36718D01*
X195159Y36764D01*
X195148Y36811D01*
X195136Y36834D01*
X195054Y37032D01*
X194961Y37196D01*
X194880Y37336D01*
X194798Y37452D01*
X194728Y37534D01*
X194670Y37592D01*
X194623Y37627D01*
X194611Y37639D01*
X194495Y37720D01*
X194367Y37790D01*
X194238Y37837D01*
X194122Y37860D01*
X194028Y37884D01*
X193947Y37895D01*
X193900D01*
X193877D01*
X193725Y37884D01*
X193585Y37860D01*
X193457Y37813D01*
X193341Y37767D01*
X193247Y37720D01*
X193166Y37674D01*
X193119Y37650D01*
X193107Y37639D01*
X192979Y37534D01*
X192874Y37406D01*
X192781Y37277D01*
X192700Y37149D01*
X192641Y37032D01*
X192595Y36939D01*
X192571Y36881D01*
X192560Y36869D01*
Y36858D01*
X192490Y36659D01*
X192443Y36461D01*
X192408Y36251D01*
X192385Y36076D01*
X192373Y35913D01*
X192361Y35785D01*
Y35668D01*
X192373Y35389D01*
X192396Y35132D01*
X192443Y34899D01*
X192490Y34701D01*
X192536Y34526D01*
X192560Y34456D01*
X192583Y34397D01*
X192595Y34351D01*
X192606Y34316D01*
X192618Y34304D01*
Y34293D01*
X192723Y34083D01*
X192839Y33896D01*
X192956Y33745D01*
X193072Y33616D01*
X193166Y33523D01*
X193247Y33453D01*
X193294Y33407D01*
X193317Y33395D01*
X193492Y33302D01*
X193679Y33220D01*
X193865Y33150D01*
X194040Y33103D01*
X194203Y33068D01*
X194320Y33045D01*
X194367D01*
X194402Y33033D01*
X194425D01*
X194437D01*
X194343Y31914D01*
X194017Y31938D01*
X193702Y31996D01*
X193434Y32078D01*
X193189Y32171D01*
X193084Y32217D01*
X192991Y32252D01*
X192921Y32299D01*
X192851Y32334D01*
X192793Y32357D01*
X192758Y32381D01*
X192734Y32404D01*
X192723D01*
X192478Y32590D01*
X192256Y32800D01*
X192070Y33010D01*
X191918Y33220D01*
X191802Y33407D01*
X191755Y33488D01*
X191720Y33547D01*
X191685Y33605D01*
X191662Y33651D01*
X191650Y33675D01*
Y33686D01*
X191534Y34013D01*
X191452Y34351D01*
X191382Y34701D01*
X191347Y35015D01*
X191335Y35167D01*
X191324Y35295D01*
X191312Y35424D01*
Y35528D01*
X191300Y35610D01*
Y35727D01*
X191312Y36076D01*
X191359Y36403D01*
X191417Y36694D01*
X191475Y36939D01*
X191510Y37056D01*
X191545Y37149D01*
X191569Y37231D01*
X191592Y37312D01*
X191615Y37359D01*
X191639Y37406D01*
X191650Y37429D01*
Y37440D01*
X191790Y37709D01*
X191953Y37953D01*
X192117Y38152D01*
X192268Y38315D01*
X192408Y38443D01*
X192525Y38548D01*
X192571Y38571D01*
X192606Y38595D01*
X192618Y38618D01*
X192630D01*
X192863Y38758D01*
X193107Y38863D01*
X193329Y38933D01*
X193539Y38991D01*
X193714Y39014D01*
X193784Y39026D01*
X193854D01*
X193900Y39038D01*
X193935D01*
X193959D01*
X193970D01*
X194238Y39026D01*
D02*
G37*
G36*
X200417Y29139D02*
X196733D01*
Y24499D01*
X200417D01*
Y23310D01*
X191452D01*
Y24499D01*
X195672D01*
Y29139D01*
X191452D01*
Y30329D01*
X200417D01*
Y29139D01*
D02*
G37*
G36*
X195066Y21818D02*
X195334Y21795D01*
X195579Y21748D01*
X195812Y21701D01*
X196034Y21631D01*
X196232Y21561D01*
X196407Y21480D01*
X196570Y21410D01*
X196710Y21328D01*
X196838Y21247D01*
X196955Y21177D01*
X197036Y21107D01*
X197106Y21060D01*
X197165Y21014D01*
X197188Y20990D01*
X197200Y20979D01*
X197351Y20815D01*
X197491Y20640D01*
X197608Y20466D01*
X197713Y20279D01*
X197794Y20092D01*
X197864Y19906D01*
X197934Y19731D01*
X197981Y19568D01*
X198016Y19405D01*
X198039Y19253D01*
X198062Y19125D01*
X198074Y19008D01*
X198086Y18915D01*
Y18787D01*
X198074Y18565D01*
X198051Y18355D01*
X198016Y18157D01*
X197969Y17959D01*
X197922Y17784D01*
X197853Y17609D01*
X197794Y17458D01*
X197724Y17318D01*
X197654Y17190D01*
X197596Y17073D01*
X197526Y16980D01*
X197479Y16898D01*
X197433Y16828D01*
X197398Y16781D01*
X197375Y16758D01*
X197363Y16746D01*
X197188Y16572D01*
X197001Y16420D01*
X196792Y16292D01*
X196582Y16175D01*
X196360Y16082D01*
X196139Y16000D01*
X195917Y15930D01*
X195696Y15884D01*
X195497Y15837D01*
X195311Y15814D01*
X195136Y15790D01*
X194984Y15767D01*
X194868D01*
X194775Y15755D01*
X194716D01*
X194693D01*
X194390Y15767D01*
X194110Y15790D01*
X193854Y15837D01*
X193609Y15884D01*
X193376Y15954D01*
X193178Y16024D01*
X192991Y16093D01*
X192816Y16175D01*
X192665Y16257D01*
X192536Y16327D01*
X192431Y16397D01*
X192338Y16467D01*
X192268Y16513D01*
X192222Y16560D01*
X192187Y16583D01*
X192175Y16595D01*
X192023Y16758D01*
X191895Y16933D01*
X191778Y17108D01*
X191674Y17294D01*
X191592Y17481D01*
X191522Y17656D01*
X191464Y17831D01*
X191417Y18006D01*
X191382Y18169D01*
X191359Y18320D01*
X191335Y18449D01*
X191324Y18565D01*
Y18658D01*
X191312Y18728D01*
Y18787D01*
X191324Y19102D01*
X191370Y19393D01*
X191440Y19661D01*
X191510Y19883D01*
X191580Y20081D01*
X191615Y20162D01*
X191650Y20221D01*
X191674Y20279D01*
X191697Y20314D01*
X191709Y20337D01*
Y20349D01*
X191872Y20605D01*
X192047Y20827D01*
X192233Y21014D01*
X192408Y21165D01*
X192571Y21293D01*
X192700Y21375D01*
X192746Y21410D01*
X192781Y21433D01*
X192804Y21445D01*
X192816D01*
X192956Y21515D01*
X193107Y21573D01*
X193434Y21666D01*
X193760Y21736D01*
X194075Y21783D01*
X194215Y21795D01*
X194355Y21806D01*
X194472Y21818D01*
X194576Y21830D01*
X194670D01*
X194728D01*
X194775D01*
X194786D01*
X195066Y21818D01*
D02*
G37*
G36*
X193877Y13610D02*
X194133Y13435D01*
X194367Y13261D01*
X194576Y13097D01*
X194740Y12946D01*
X194880Y12806D01*
X194984Y12713D01*
X195043Y12643D01*
X195066Y12631D01*
Y12619D01*
X195148Y12514D01*
X195229Y12409D01*
X195381Y12176D01*
X195439Y12071D01*
X195486Y11990D01*
X195509Y11931D01*
X195521Y11908D01*
X195556Y12141D01*
X195602Y12363D01*
X195661Y12561D01*
X195719Y12747D01*
X195789Y12922D01*
X195859Y13086D01*
X195929Y13226D01*
X195999Y13354D01*
X196069Y13459D01*
X196139Y13552D01*
X196197Y13634D01*
X196244Y13704D01*
X196290Y13750D01*
X196325Y13797D01*
X196337Y13808D01*
X196349Y13820D01*
X196477Y13925D01*
X196605Y14030D01*
X196745Y14112D01*
X196873Y14181D01*
X197141Y14287D01*
X197398Y14356D01*
X197619Y14403D01*
X197713Y14415D01*
X197794Y14426D01*
X197864Y14438D01*
X197911D01*
X197946D01*
X197957D01*
X198226Y14426D01*
X198482Y14380D01*
X198715Y14321D01*
X198913Y14252D01*
X199077Y14181D01*
X199205Y14123D01*
X199252Y14100D01*
X199287Y14077D01*
X199298Y14065D01*
X199310D01*
X199520Y13913D01*
X199706Y13750D01*
X199858Y13587D01*
X199974Y13424D01*
X200068Y13284D01*
X200126Y13167D01*
X200149Y13121D01*
X200161Y13086D01*
X200173Y13074D01*
Y13062D01*
X200219Y12946D01*
X200254Y12806D01*
X200312Y12514D01*
X200359Y12211D01*
X200382Y11920D01*
X200394Y11780D01*
X200406Y11652D01*
Y11547D01*
X200417Y11442D01*
Y7268D01*
X191452D01*
Y8457D01*
X195428D01*
Y9996D01*
X195416Y10124D01*
Y10241D01*
X195404Y10334D01*
X195393Y10404D01*
Y10451D01*
X195381Y10474D01*
Y10486D01*
X195311Y10684D01*
X195276Y10777D01*
X195229Y10859D01*
X195194Y10929D01*
X195159Y10975D01*
X195148Y11010D01*
X195136Y11022D01*
X195054Y11127D01*
X194973Y11232D01*
X194868Y11337D01*
X194763Y11430D01*
X194681Y11512D01*
X194600Y11570D01*
X194553Y11617D01*
X194530Y11628D01*
X194355Y11768D01*
X194157Y11908D01*
X193959Y12048D01*
X193760Y12188D01*
X193585Y12305D01*
X193504Y12363D01*
X193434Y12409D01*
X193387Y12444D01*
X193341Y12468D01*
X193317Y12491D01*
X193306D01*
X191452Y13669D01*
Y15161D01*
X193877Y13610D01*
D02*
G37*
G36*
X216175Y33357D02*
X216584Y33318D01*
X216974Y33279D01*
X217286Y33220D01*
X217558Y33142D01*
X217773Y33103D01*
X217850Y33084D01*
X217909Y33064D01*
X217929Y33045D01*
X217948D01*
X218318Y32908D01*
X218649Y32772D01*
X218961Y32616D01*
X219214Y32460D01*
X219429Y32324D01*
X219565Y32227D01*
X219662Y32149D01*
X219701Y32129D01*
X219955Y31895D01*
X220188Y31662D01*
X220383Y31428D01*
X220558Y31194D01*
X220675Y30980D01*
X220773Y30824D01*
X220831Y30707D01*
X220851Y30688D01*
Y30668D01*
X220987Y30337D01*
X221084Y29986D01*
X221162Y29674D01*
X221201Y29382D01*
X221240Y29129D01*
X221260Y28934D01*
Y28759D01*
X221240Y28428D01*
X221201Y28116D01*
X221124Y27804D01*
X221026Y27531D01*
X220909Y27278D01*
X220792Y27025D01*
X220656Y26811D01*
X220520Y26596D01*
X220383Y26421D01*
X220247Y26265D01*
X220130Y26129D01*
X220013Y26012D01*
X219916Y25915D01*
X219838Y25856D01*
X219799Y25817D01*
X219779Y25798D01*
X225156D01*
Y23966D01*
X210175D01*
Y25661D01*
X211538D01*
X211266Y25876D01*
X211012Y26109D01*
X210798Y26343D01*
X210623Y26596D01*
X210467Y26850D01*
X210331Y27083D01*
X210233Y27337D01*
X210136Y27571D01*
X210077Y27785D01*
X210019Y27999D01*
X209999Y28194D01*
X209960Y28350D01*
Y28486D01*
X209941Y28584D01*
Y28661D01*
X209960Y29012D01*
X209999Y29363D01*
X210077Y29694D01*
X210175Y30006D01*
X210292Y30298D01*
X210408Y30571D01*
X210545Y30824D01*
X210701Y31058D01*
X210837Y31272D01*
X210973Y31447D01*
X211090Y31623D01*
X211207Y31740D01*
X211305Y31857D01*
X211383Y31934D01*
X211422Y31973D01*
X211441Y31993D01*
X211733Y32246D01*
X212064Y32441D01*
X212396Y32636D01*
X212746Y32792D01*
X213116Y32928D01*
X213467Y33045D01*
X213818Y33123D01*
X214168Y33201D01*
X214480Y33259D01*
X214792Y33298D01*
X215045Y33337D01*
X215279Y33357D01*
X215474Y33376D01*
X215630D01*
X215707D01*
X215746D01*
X216175Y33357D01*
D02*
G37*
G36*
X221221Y21687D02*
X221591Y21629D01*
X221942Y21551D01*
X222253Y21473D01*
X222507Y21395D01*
X222701Y21317D01*
X222760Y21278D01*
X222818Y21258D01*
X222838Y21239D01*
X222857D01*
X223189Y21064D01*
X223481Y20869D01*
X223734Y20654D01*
X223929Y20460D01*
X224085Y20304D01*
X224202Y20148D01*
X224279Y20070D01*
X224299Y20031D01*
X224474Y19739D01*
X224630Y19427D01*
X224747Y19135D01*
X224844Y18843D01*
X224922Y18589D01*
X224961Y18375D01*
X224981Y18297D01*
X225000Y18258D01*
Y18200D01*
X225059Y17888D01*
X225098Y17518D01*
X225117Y17128D01*
X225137Y16778D01*
X225156Y16446D01*
Y10290D01*
X210175D01*
Y12277D01*
X216253D01*
Y16096D01*
X216273Y16661D01*
X216311Y17187D01*
X216370Y17674D01*
X216467Y18122D01*
X216565Y18512D01*
X216682Y18882D01*
X216798Y19193D01*
X216915Y19486D01*
X217032Y19719D01*
X217169Y19934D01*
X217266Y20109D01*
X217363Y20245D01*
X217461Y20343D01*
X217519Y20421D01*
X217558Y20460D01*
X217578Y20479D01*
X217831Y20693D01*
X218104Y20888D01*
X218377Y21044D01*
X218649Y21181D01*
X218922Y21317D01*
X219175Y21414D01*
X219701Y21551D01*
X219916Y21609D01*
X220130Y21648D01*
X220325Y21667D01*
X220500Y21687D01*
X220636Y21707D01*
X220734D01*
X220792D01*
X220812D01*
X221221Y21687D01*
D02*
G37*
G36*
X104423Y158897D02*
X104222Y158780D01*
X104032Y158643D01*
X103842Y158495D01*
X103684Y158358D01*
X103536Y158221D01*
X103430Y158115D01*
X103388Y158073D01*
X103356Y158041D01*
X103345Y158020D01*
X103335Y158009D01*
X103134Y157766D01*
X102955Y157523D01*
X102786Y157269D01*
X102648Y157048D01*
X102542Y156847D01*
X102490Y156762D01*
X102458Y156688D01*
X102426Y156636D01*
X102405Y156593D01*
X102384Y156561D01*
Y156551D01*
X101412D01*
X101486Y156731D01*
X101570Y156910D01*
X101655Y157090D01*
X101739Y157248D01*
X101813Y157386D01*
X101877Y157502D01*
X101898Y157544D01*
X101919Y157576D01*
X101930Y157586D01*
Y157597D01*
X102056Y157808D01*
X102183Y157988D01*
X102299Y158157D01*
X102405Y158294D01*
X102490Y158400D01*
X102564Y158485D01*
X102606Y158527D01*
X102616Y158548D01*
X96266D01*
Y159541D01*
X104423D01*
Y158897D01*
D02*
G37*
G36*
X97227Y149725D02*
X99996D01*
Y154205D01*
X100957D01*
Y149725D01*
X103430D01*
Y154512D01*
X104392D01*
Y148647D01*
X96266D01*
Y154702D01*
X97227D01*
Y149725D01*
D02*
G37*
G36*
X104423Y145023D02*
X104222Y144907D01*
X104032Y144769D01*
X103842Y144621D01*
X103684Y144484D01*
X103536Y144347D01*
X103430Y144241D01*
X103388Y144199D01*
X103356Y144167D01*
X103345Y144146D01*
X103335Y144135D01*
X103134Y143892D01*
X102955Y143649D01*
X102786Y143396D01*
X102648Y143174D01*
X102542Y142973D01*
X102490Y142889D01*
X102458Y142815D01*
X102426Y142762D01*
X102405Y142720D01*
X102384Y142688D01*
Y142677D01*
X101412D01*
X101486Y142857D01*
X101570Y143036D01*
X101655Y143216D01*
X101739Y143375D01*
X101813Y143512D01*
X101877Y143628D01*
X101898Y143671D01*
X101919Y143702D01*
X101930Y143713D01*
Y143723D01*
X102056Y143935D01*
X102183Y144114D01*
X102299Y144283D01*
X102405Y144421D01*
X102490Y144526D01*
X102564Y144611D01*
X102606Y144653D01*
X102616Y144674D01*
X96266D01*
Y145668D01*
X104423D01*
Y145023D01*
D02*
G37*
G36*
X104392Y139137D02*
X98738Y137183D01*
X98432Y137077D01*
X98168Y136993D01*
X97946Y136919D01*
X97756Y136855D01*
X97619Y136813D01*
X97513Y136781D01*
X97449Y136760D01*
X97428Y136749D01*
X97597Y136697D01*
X97788Y136633D01*
X97988Y136570D01*
X98179Y136507D01*
X98358Y136454D01*
X98432Y136422D01*
X98506Y136401D01*
X98559Y136380D01*
X98601Y136369D01*
X98622Y136359D01*
X98633D01*
X104392Y134436D01*
Y132829D01*
X96266D01*
Y133865D01*
X103187D01*
X96266Y136211D01*
Y137172D01*
X103071Y139550D01*
X96266D01*
Y140585D01*
X104392D01*
Y139137D01*
D02*
G37*
G36*
X104423Y129258D02*
X104222Y129142D01*
X104032Y129004D01*
X103842Y128856D01*
X103684Y128719D01*
X103536Y128582D01*
X103430Y128476D01*
X103388Y128434D01*
X103356Y128402D01*
X103345Y128381D01*
X103335Y128370D01*
X103134Y128127D01*
X102955Y127884D01*
X102786Y127631D01*
X102648Y127409D01*
X102542Y127208D01*
X102490Y127123D01*
X102458Y127050D01*
X102426Y126997D01*
X102405Y126954D01*
X102384Y126923D01*
Y126912D01*
X101412D01*
X101486Y127092D01*
X101570Y127271D01*
X101655Y127451D01*
X101739Y127610D01*
X101813Y127747D01*
X101877Y127863D01*
X101898Y127906D01*
X101919Y127937D01*
X101930Y127948D01*
Y127958D01*
X102056Y128170D01*
X102183Y128349D01*
X102299Y128518D01*
X102405Y128656D01*
X102490Y128761D01*
X102564Y128846D01*
X102606Y128888D01*
X102616Y128909D01*
X96266D01*
Y129902D01*
X104423D01*
Y129258D01*
D02*
G37*
G36*
X98464Y124112D02*
X98696Y123954D01*
X98908Y123795D01*
X99098Y123647D01*
X99246Y123510D01*
X99373Y123383D01*
X99468Y123299D01*
X99521Y123235D01*
X99542Y123224D01*
Y123214D01*
X99615Y123119D01*
X99690Y123024D01*
X99827Y122812D01*
X99880Y122717D01*
X99922Y122643D01*
X99943Y122591D01*
X99954Y122569D01*
X99985Y122781D01*
X100028Y122982D01*
X100080Y123161D01*
X100133Y123330D01*
X100197Y123489D01*
X100260Y123637D01*
X100323Y123763D01*
X100387Y123880D01*
X100450Y123975D01*
X100514Y124059D01*
X100567Y124133D01*
X100609Y124197D01*
X100651Y124239D01*
X100683Y124281D01*
X100693Y124292D01*
X100704Y124302D01*
X100820Y124397D01*
X100936Y124493D01*
X101063Y124566D01*
X101179Y124630D01*
X101422Y124725D01*
X101655Y124788D01*
X101856Y124831D01*
X101940Y124841D01*
X102014Y124852D01*
X102078Y124862D01*
X102120D01*
X102151D01*
X102162D01*
X102405Y124852D01*
X102638Y124810D01*
X102849Y124757D01*
X103028Y124693D01*
X103176Y124630D01*
X103293Y124577D01*
X103335Y124556D01*
X103367Y124535D01*
X103377Y124524D01*
X103388D01*
X103578Y124387D01*
X103747Y124239D01*
X103884Y124091D01*
X103990Y123943D01*
X104075Y123816D01*
X104127Y123711D01*
X104149Y123668D01*
X104159Y123637D01*
X104170Y123626D01*
Y123616D01*
X104212Y123510D01*
X104244Y123383D01*
X104297Y123119D01*
X104339Y122844D01*
X104360Y122580D01*
X104370Y122453D01*
X104381Y122337D01*
Y122242D01*
X104392Y122147D01*
Y118364D01*
X96266D01*
Y119442D01*
X99869D01*
Y120836D01*
X99859Y120953D01*
Y121058D01*
X99848Y121143D01*
X99837Y121206D01*
Y121249D01*
X99827Y121270D01*
Y121280D01*
X99763Y121460D01*
X99732Y121545D01*
X99690Y121618D01*
X99658Y121682D01*
X99626Y121724D01*
X99615Y121756D01*
X99605Y121766D01*
X99531Y121861D01*
X99457Y121957D01*
X99362Y122052D01*
X99267Y122136D01*
X99193Y122210D01*
X99119Y122263D01*
X99077Y122305D01*
X99056Y122316D01*
X98897Y122443D01*
X98717Y122569D01*
X98538Y122696D01*
X98358Y122823D01*
X98200Y122929D01*
X98126Y122982D01*
X98062Y123024D01*
X98020Y123055D01*
X97978Y123077D01*
X97957Y123098D01*
X97946D01*
X96266Y124165D01*
Y125518D01*
X98464Y124112D01*
D02*
G37*
G36*
X109268Y156424D02*
X109469Y156403D01*
X109659Y156371D01*
X109850Y156329D01*
X110019Y156266D01*
X110167Y156213D01*
X110314Y156149D01*
X110441Y156086D01*
X110557Y156012D01*
X110663Y155949D01*
X110748Y155896D01*
X110822Y155843D01*
X110885Y155790D01*
X110927Y155758D01*
X110948Y155737D01*
X110959Y155727D01*
X111086Y155589D01*
X111202Y155452D01*
X111297Y155315D01*
X111392Y155167D01*
X111456Y155019D01*
X111519Y154881D01*
X111572Y154744D01*
X111603Y154617D01*
X111635Y154490D01*
X111656Y154385D01*
X111678Y154279D01*
X111688Y154195D01*
X111699Y154121D01*
Y154026D01*
X111688Y153814D01*
X111656Y153614D01*
X111614Y153434D01*
X111561Y153265D01*
X111508Y153127D01*
X111466Y153032D01*
X111445Y152990D01*
X111434Y152958D01*
X111424Y152948D01*
Y152937D01*
X111318Y152747D01*
X111181Y152578D01*
X111054Y152430D01*
X110917Y152303D01*
X110801Y152198D01*
X110705Y152124D01*
X110631Y152081D01*
X110621Y152060D01*
X110832D01*
X111044Y152071D01*
X111244Y152092D01*
X111424Y152113D01*
X111593Y152134D01*
X111741Y152155D01*
X111889Y152177D01*
X112016Y152198D01*
X112121Y152229D01*
X112216Y152250D01*
X112301Y152272D01*
X112375Y152293D01*
X112428Y152314D01*
X112459Y152324D01*
X112480Y152335D01*
X112491D01*
X112724Y152451D01*
X112924Y152567D01*
X113093Y152694D01*
X113231Y152810D01*
X113347Y152916D01*
X113421Y153001D01*
X113474Y153054D01*
X113484Y153075D01*
X113580Y153223D01*
X113643Y153360D01*
X113696Y153508D01*
X113727Y153635D01*
X113749Y153751D01*
X113759Y153835D01*
Y153920D01*
X113738Y154131D01*
X113696Y154332D01*
X113622Y154501D01*
X113548Y154649D01*
X113474Y154765D01*
X113400Y154850D01*
X113358Y154903D01*
X113336Y154924D01*
X113220Y155008D01*
X113093Y155082D01*
X112956Y155156D01*
X112819Y155209D01*
X112692Y155251D01*
X112586Y155283D01*
X112544Y155294D01*
X112512D01*
X112502Y155304D01*
X112491D01*
X112565Y156297D01*
X112734Y156266D01*
X112903Y156234D01*
X113188Y156128D01*
X113326Y156065D01*
X113442Y156012D01*
X113558Y155949D01*
X113653Y155885D01*
X113749Y155822D01*
X113822Y155758D01*
X113886Y155706D01*
X113949Y155653D01*
X113991Y155611D01*
X114023Y155589D01*
X114034Y155568D01*
X114044Y155558D01*
X114139Y155442D01*
X114224Y155315D01*
X114298Y155188D01*
X114361Y155050D01*
X114457Y154786D01*
X114520Y154543D01*
X114541Y154427D01*
X114552Y154321D01*
X114562Y154226D01*
X114573Y154142D01*
X114583Y154078D01*
Y153983D01*
X114573Y153751D01*
X114541Y153529D01*
X114499Y153318D01*
X114435Y153117D01*
X114361Y152937D01*
X114287Y152768D01*
X114203Y152610D01*
X114118Y152472D01*
X114023Y152356D01*
X113939Y152240D01*
X113865Y152145D01*
X113791Y152071D01*
X113727Y152007D01*
X113685Y151965D01*
X113653Y151944D01*
X113643Y151933D01*
X113432Y151785D01*
X113188Y151648D01*
X112935Y151532D01*
X112660Y151437D01*
X112375Y151352D01*
X112090Y151278D01*
X111804Y151226D01*
X111530Y151173D01*
X111265Y151141D01*
X111022Y151109D01*
X110801Y151099D01*
X110600Y151078D01*
X110441D01*
X110378Y151067D01*
X110325D01*
X110283D01*
X110251D01*
X110230D01*
X110219D01*
X109839Y151078D01*
X109490Y151099D01*
X109163Y151141D01*
X108856Y151194D01*
X108592Y151247D01*
X108338Y151310D01*
X108117Y151384D01*
X107916Y151458D01*
X107747Y151532D01*
X107599Y151606D01*
X107472Y151669D01*
X107377Y151722D01*
X107292Y151775D01*
X107240Y151817D01*
X107208Y151838D01*
X107197Y151849D01*
X107039Y152007D01*
X106902Y152166D01*
X106775Y152335D01*
X106669Y152504D01*
X106585Y152673D01*
X106510Y152842D01*
X106447Y153011D01*
X106405Y153170D01*
X106363Y153318D01*
X106341Y153455D01*
X106320Y153571D01*
X106299Y153677D01*
Y153772D01*
X106289Y153835D01*
Y153888D01*
X106299Y154152D01*
X106341Y154395D01*
X106394Y154617D01*
X106468Y154808D01*
X106532Y154966D01*
X106553Y155029D01*
X106585Y155093D01*
X106606Y155135D01*
X106627Y155167D01*
X106637Y155177D01*
Y155188D01*
X106785Y155399D01*
X106944Y155579D01*
X107113Y155727D01*
X107271Y155864D01*
X107419Y155959D01*
X107535Y156033D01*
X107578Y156065D01*
X107609Y156086D01*
X107631Y156097D01*
X107641D01*
X107895Y156213D01*
X108138Y156297D01*
X108381Y156350D01*
X108592Y156392D01*
X108782Y156414D01*
X108856Y156424D01*
X108930Y156435D01*
X108983D01*
X109025D01*
X109046D01*
X109057D01*
X109268Y156424D01*
D02*
G37*
G36*
X111181Y150137D02*
X111413Y150116D01*
X111635Y150095D01*
X111847Y150063D01*
X112026Y150042D01*
X112195Y150010D01*
X112354Y149979D01*
X112491Y149936D01*
X112607Y149905D01*
X112702Y149884D01*
X112787Y149852D01*
X112850Y149831D01*
X112903Y149810D01*
X112924Y149799D01*
X112935D01*
X113220Y149662D01*
X113463Y149503D01*
X113664Y149334D01*
X113844Y149176D01*
X113970Y149028D01*
X114076Y148912D01*
X114108Y148869D01*
X114129Y148837D01*
X114150Y148816D01*
Y148806D01*
X114298Y148552D01*
X114404Y148299D01*
X114478Y148056D01*
X114530Y147834D01*
X114562Y147643D01*
X114573Y147559D01*
Y147496D01*
X114583Y147432D01*
Y147358D01*
X114573Y147157D01*
X114552Y146967D01*
X114509Y146777D01*
X114467Y146608D01*
X114404Y146449D01*
X114340Y146302D01*
X114277Y146154D01*
X114203Y146037D01*
X114129Y145921D01*
X114066Y145815D01*
X114002Y145731D01*
X113939Y145657D01*
X113896Y145604D01*
X113854Y145562D01*
X113833Y145541D01*
X113822Y145530D01*
X113675Y145403D01*
X113527Y145298D01*
X113358Y145203D01*
X113199Y145118D01*
X113030Y145044D01*
X112861Y144991D01*
X112544Y144907D01*
X112407Y144875D01*
X112269Y144854D01*
X112142Y144833D01*
X112037Y144822D01*
X111952Y144812D01*
X111889D01*
X111847D01*
X111836D01*
X111614Y144822D01*
X111413Y144843D01*
X111213Y144875D01*
X111033Y144917D01*
X110864Y144970D01*
X110705Y145034D01*
X110557Y145097D01*
X110431Y145160D01*
X110314Y145224D01*
X110209Y145287D01*
X110114Y145351D01*
X110050Y145403D01*
X109987Y145446D01*
X109945Y145477D01*
X109923Y145499D01*
X109913Y145509D01*
X109786Y145646D01*
X109670Y145784D01*
X109575Y145921D01*
X109490Y146069D01*
X109416Y146217D01*
X109363Y146354D01*
X109311Y146492D01*
X109279Y146619D01*
X109247Y146745D01*
X109226Y146851D01*
X109205Y146957D01*
X109194Y147041D01*
X109184Y147115D01*
Y147210D01*
X109194Y147432D01*
X109226Y147643D01*
X109279Y147834D01*
X109332Y147992D01*
X109385Y148140D01*
X109437Y148235D01*
X109448Y148278D01*
X109469Y148309D01*
X109480Y148320D01*
Y148330D01*
X109596Y148510D01*
X109723Y148679D01*
X109850Y148816D01*
X109976Y148933D01*
X110082Y149028D01*
X110177Y149102D01*
X110230Y149144D01*
X110251Y149155D01*
X110167D01*
X110103D01*
X110061D01*
X110050D01*
X109818Y149144D01*
X109596Y149133D01*
X109385Y149112D01*
X109205Y149080D01*
X109046Y149049D01*
X108983Y149038D01*
X108930Y149028D01*
X108888Y149017D01*
X108856D01*
X108835Y149007D01*
X108825D01*
X108613Y148954D01*
X108423Y148890D01*
X108265Y148827D01*
X108127Y148764D01*
X108021Y148711D01*
X107937Y148679D01*
X107895Y148647D01*
X107874Y148637D01*
X107747Y148552D01*
X107641Y148457D01*
X107546Y148362D01*
X107462Y148267D01*
X107398Y148193D01*
X107356Y148130D01*
X107324Y148077D01*
X107314Y148066D01*
X107250Y147929D01*
X107197Y147791D01*
X107166Y147654D01*
X107134Y147538D01*
X107123Y147422D01*
X107113Y147337D01*
Y147263D01*
X107123Y147073D01*
X107155Y146893D01*
X107208Y146745D01*
X107261Y146619D01*
X107314Y146513D01*
X107366Y146439D01*
X107398Y146397D01*
X107409Y146376D01*
X107535Y146259D01*
X107683Y146164D01*
X107842Y146080D01*
X108011Y146027D01*
X108148Y145974D01*
X108275Y145942D01*
X108317Y145932D01*
X108349D01*
X108370Y145921D01*
X108381D01*
X108307Y144960D01*
X108127Y144991D01*
X107969Y145023D01*
X107810Y145065D01*
X107673Y145118D01*
X107535Y145182D01*
X107409Y145234D01*
X107303Y145298D01*
X107197Y145361D01*
X107113Y145425D01*
X107039Y145477D01*
X106965Y145530D01*
X106912Y145583D01*
X106870Y145625D01*
X106838Y145657D01*
X106827Y145668D01*
X106817Y145678D01*
X106722Y145794D01*
X106648Y145921D01*
X106574Y146048D01*
X106510Y146175D01*
X106415Y146439D01*
X106352Y146682D01*
X106331Y146798D01*
X106320Y146904D01*
X106310Y146988D01*
X106299Y147073D01*
X106289Y147136D01*
Y147231D01*
X106299Y147401D01*
X106310Y147559D01*
X106363Y147855D01*
X106437Y148119D01*
X106532Y148351D01*
X106574Y148447D01*
X106616Y148542D01*
X106658Y148616D01*
X106690Y148679D01*
X106722Y148732D01*
X106743Y148764D01*
X106764Y148785D01*
Y148795D01*
X106965Y149038D01*
X107187Y149239D01*
X107419Y149419D01*
X107652Y149556D01*
X107852Y149672D01*
X107937Y149714D01*
X108021Y149746D01*
X108085Y149778D01*
X108127Y149799D01*
X108159Y149810D01*
X108169D01*
X108349Y149873D01*
X108539Y149926D01*
X108941Y150010D01*
X109363Y150063D01*
X109564Y150084D01*
X109754Y150105D01*
X109945Y150116D01*
X110114Y150127D01*
X110262Y150137D01*
X110399Y150148D01*
X110505D01*
X110589D01*
X110631D01*
X110653D01*
X110927D01*
X111181Y150137D01*
D02*
G37*
G36*
Y143829D02*
X111413Y143808D01*
X111635Y143787D01*
X111847Y143755D01*
X112026Y143734D01*
X112195Y143702D01*
X112354Y143671D01*
X112491Y143628D01*
X112607Y143597D01*
X112702Y143575D01*
X112787Y143544D01*
X112850Y143523D01*
X112903Y143502D01*
X112924Y143491D01*
X112935D01*
X113220Y143354D01*
X113463Y143195D01*
X113664Y143026D01*
X113844Y142867D01*
X113970Y142720D01*
X114076Y142603D01*
X114108Y142561D01*
X114129Y142529D01*
X114150Y142508D01*
Y142498D01*
X114298Y142244D01*
X114404Y141990D01*
X114478Y141747D01*
X114530Y141525D01*
X114562Y141335D01*
X114573Y141251D01*
Y141187D01*
X114583Y141124D01*
Y141050D01*
X114573Y140849D01*
X114552Y140659D01*
X114509Y140469D01*
X114467Y140300D01*
X114404Y140141D01*
X114340Y139993D01*
X114277Y139846D01*
X114203Y139729D01*
X114129Y139613D01*
X114066Y139507D01*
X114002Y139423D01*
X113939Y139349D01*
X113896Y139296D01*
X113854Y139254D01*
X113833Y139233D01*
X113822Y139222D01*
X113675Y139095D01*
X113527Y138990D01*
X113358Y138895D01*
X113199Y138810D01*
X113030Y138736D01*
X112861Y138683D01*
X112544Y138599D01*
X112407Y138567D01*
X112269Y138546D01*
X112142Y138525D01*
X112037Y138514D01*
X111952Y138504D01*
X111889D01*
X111847D01*
X111836D01*
X111614Y138514D01*
X111413Y138535D01*
X111213Y138567D01*
X111033Y138609D01*
X110864Y138662D01*
X110705Y138726D01*
X110557Y138789D01*
X110431Y138852D01*
X110314Y138916D01*
X110209Y138979D01*
X110114Y139042D01*
X110050Y139095D01*
X109987Y139137D01*
X109945Y139169D01*
X109923Y139190D01*
X109913Y139201D01*
X109786Y139338D01*
X109670Y139476D01*
X109575Y139613D01*
X109490Y139761D01*
X109416Y139909D01*
X109363Y140046D01*
X109311Y140184D01*
X109279Y140310D01*
X109247Y140437D01*
X109226Y140543D01*
X109205Y140648D01*
X109194Y140733D01*
X109184Y140807D01*
Y140902D01*
X109194Y141124D01*
X109226Y141335D01*
X109279Y141525D01*
X109332Y141684D01*
X109385Y141832D01*
X109437Y141927D01*
X109448Y141969D01*
X109469Y142001D01*
X109480Y142012D01*
Y142022D01*
X109596Y142202D01*
X109723Y142371D01*
X109850Y142508D01*
X109976Y142625D01*
X110082Y142720D01*
X110177Y142794D01*
X110230Y142836D01*
X110251Y142846D01*
X110167D01*
X110103D01*
X110061D01*
X110050D01*
X109818Y142836D01*
X109596Y142825D01*
X109385Y142804D01*
X109205Y142772D01*
X109046Y142741D01*
X108983Y142730D01*
X108930Y142720D01*
X108888Y142709D01*
X108856D01*
X108835Y142698D01*
X108825D01*
X108613Y142646D01*
X108423Y142582D01*
X108265Y142519D01*
X108127Y142455D01*
X108021Y142403D01*
X107937Y142371D01*
X107895Y142339D01*
X107874Y142329D01*
X107747Y142244D01*
X107641Y142149D01*
X107546Y142054D01*
X107462Y141959D01*
X107398Y141885D01*
X107356Y141821D01*
X107324Y141769D01*
X107314Y141758D01*
X107250Y141621D01*
X107197Y141483D01*
X107166Y141346D01*
X107134Y141230D01*
X107123Y141114D01*
X107113Y141029D01*
Y140955D01*
X107123Y140765D01*
X107155Y140585D01*
X107208Y140437D01*
X107261Y140310D01*
X107314Y140205D01*
X107366Y140131D01*
X107398Y140089D01*
X107409Y140067D01*
X107535Y139951D01*
X107683Y139856D01*
X107842Y139771D01*
X108011Y139719D01*
X108148Y139666D01*
X108275Y139634D01*
X108317Y139624D01*
X108349D01*
X108370Y139613D01*
X108381D01*
X108307Y138652D01*
X108127Y138683D01*
X107969Y138715D01*
X107810Y138757D01*
X107673Y138810D01*
X107535Y138873D01*
X107409Y138926D01*
X107303Y138990D01*
X107197Y139053D01*
X107113Y139116D01*
X107039Y139169D01*
X106965Y139222D01*
X106912Y139275D01*
X106870Y139317D01*
X106838Y139349D01*
X106827Y139359D01*
X106817Y139370D01*
X106722Y139486D01*
X106648Y139613D01*
X106574Y139740D01*
X106510Y139867D01*
X106415Y140131D01*
X106352Y140374D01*
X106331Y140490D01*
X106320Y140596D01*
X106310Y140680D01*
X106299Y140765D01*
X106289Y140828D01*
Y140923D01*
X106299Y141092D01*
X106310Y141251D01*
X106363Y141547D01*
X106437Y141811D01*
X106532Y142043D01*
X106574Y142138D01*
X106616Y142233D01*
X106658Y142308D01*
X106690Y142371D01*
X106722Y142424D01*
X106743Y142455D01*
X106764Y142477D01*
Y142487D01*
X106965Y142730D01*
X107187Y142931D01*
X107419Y143111D01*
X107652Y143248D01*
X107852Y143364D01*
X107937Y143406D01*
X108021Y143438D01*
X108085Y143470D01*
X108127Y143491D01*
X108159Y143502D01*
X108169D01*
X108349Y143565D01*
X108539Y143618D01*
X108941Y143702D01*
X109363Y143755D01*
X109564Y143776D01*
X109754Y143797D01*
X109945Y143808D01*
X110114Y143819D01*
X110262Y143829D01*
X110399Y143840D01*
X110505D01*
X110589D01*
X110631D01*
X110653D01*
X110927D01*
X111181Y143829D01*
D02*
G37*
G36*
X109268Y137500D02*
X109469Y137479D01*
X109659Y137447D01*
X109850Y137405D01*
X110019Y137341D01*
X110167Y137288D01*
X110314Y137225D01*
X110441Y137162D01*
X110557Y137088D01*
X110663Y137024D01*
X110748Y136971D01*
X110822Y136919D01*
X110885Y136866D01*
X110927Y136834D01*
X110948Y136813D01*
X110959Y136802D01*
X111086Y136665D01*
X111202Y136528D01*
X111297Y136390D01*
X111392Y136242D01*
X111456Y136094D01*
X111519Y135957D01*
X111572Y135820D01*
X111603Y135693D01*
X111635Y135566D01*
X111656Y135460D01*
X111678Y135355D01*
X111688Y135270D01*
X111699Y135196D01*
Y135101D01*
X111688Y134890D01*
X111656Y134689D01*
X111614Y134509D01*
X111561Y134340D01*
X111508Y134203D01*
X111466Y134108D01*
X111445Y134066D01*
X111434Y134034D01*
X111424Y134023D01*
Y134013D01*
X111318Y133823D01*
X111181Y133654D01*
X111054Y133506D01*
X110917Y133379D01*
X110801Y133273D01*
X110705Y133199D01*
X110631Y133157D01*
X110621Y133136D01*
X110832D01*
X111044Y133146D01*
X111244Y133167D01*
X111424Y133189D01*
X111593Y133210D01*
X111741Y133231D01*
X111889Y133252D01*
X112016Y133273D01*
X112121Y133305D01*
X112216Y133326D01*
X112301Y133347D01*
X112375Y133368D01*
X112428Y133389D01*
X112459Y133400D01*
X112480Y133411D01*
X112491D01*
X112724Y133527D01*
X112924Y133643D01*
X113093Y133770D01*
X113231Y133886D01*
X113347Y133992D01*
X113421Y134076D01*
X113474Y134129D01*
X113484Y134150D01*
X113580Y134298D01*
X113643Y134436D01*
X113696Y134583D01*
X113727Y134710D01*
X113749Y134826D01*
X113759Y134911D01*
Y134995D01*
X113738Y135207D01*
X113696Y135408D01*
X113622Y135577D01*
X113548Y135725D01*
X113474Y135841D01*
X113400Y135925D01*
X113358Y135978D01*
X113336Y135999D01*
X113220Y136084D01*
X113093Y136158D01*
X112956Y136232D01*
X112819Y136285D01*
X112692Y136327D01*
X112586Y136359D01*
X112544Y136369D01*
X112512D01*
X112502Y136380D01*
X112491D01*
X112565Y137373D01*
X112734Y137341D01*
X112903Y137310D01*
X113188Y137204D01*
X113326Y137141D01*
X113442Y137088D01*
X113558Y137024D01*
X113653Y136961D01*
X113749Y136897D01*
X113822Y136834D01*
X113886Y136781D01*
X113949Y136728D01*
X113991Y136686D01*
X114023Y136665D01*
X114034Y136644D01*
X114044Y136633D01*
X114139Y136517D01*
X114224Y136390D01*
X114298Y136264D01*
X114361Y136126D01*
X114457Y135862D01*
X114520Y135619D01*
X114541Y135503D01*
X114552Y135397D01*
X114562Y135302D01*
X114573Y135217D01*
X114583Y135154D01*
Y135059D01*
X114573Y134826D01*
X114541Y134605D01*
X114499Y134393D01*
X114435Y134192D01*
X114361Y134013D01*
X114287Y133844D01*
X114203Y133685D01*
X114118Y133548D01*
X114023Y133432D01*
X113939Y133315D01*
X113865Y133220D01*
X113791Y133146D01*
X113727Y133083D01*
X113685Y133041D01*
X113653Y133020D01*
X113643Y133009D01*
X113432Y132861D01*
X113188Y132724D01*
X112935Y132607D01*
X112660Y132512D01*
X112375Y132428D01*
X112090Y132354D01*
X111804Y132301D01*
X111530Y132248D01*
X111265Y132217D01*
X111022Y132185D01*
X110801Y132174D01*
X110600Y132153D01*
X110441D01*
X110378Y132143D01*
X110325D01*
X110283D01*
X110251D01*
X110230D01*
X110219D01*
X109839Y132153D01*
X109490Y132174D01*
X109163Y132217D01*
X108856Y132269D01*
X108592Y132322D01*
X108338Y132386D01*
X108117Y132460D01*
X107916Y132534D01*
X107747Y132607D01*
X107599Y132682D01*
X107472Y132745D01*
X107377Y132798D01*
X107292Y132851D01*
X107240Y132893D01*
X107208Y132914D01*
X107197Y132924D01*
X107039Y133083D01*
X106902Y133242D01*
X106775Y133411D01*
X106669Y133580D01*
X106585Y133749D01*
X106510Y133918D01*
X106447Y134087D01*
X106405Y134245D01*
X106363Y134393D01*
X106341Y134531D01*
X106320Y134647D01*
X106299Y134753D01*
Y134848D01*
X106289Y134911D01*
Y134964D01*
X106299Y135228D01*
X106341Y135471D01*
X106394Y135693D01*
X106468Y135883D01*
X106532Y136042D01*
X106553Y136105D01*
X106585Y136168D01*
X106606Y136211D01*
X106627Y136242D01*
X106637Y136253D01*
Y136264D01*
X106785Y136475D01*
X106944Y136654D01*
X107113Y136802D01*
X107271Y136940D01*
X107419Y137035D01*
X107535Y137109D01*
X107578Y137141D01*
X107609Y137162D01*
X107631Y137172D01*
X107641D01*
X107895Y137288D01*
X108138Y137373D01*
X108381Y137426D01*
X108592Y137468D01*
X108782Y137489D01*
X108856Y137500D01*
X108930Y137510D01*
X108983D01*
X109025D01*
X109046D01*
X109057D01*
X109268Y137500D01*
D02*
G37*
G36*
X107388Y127324D02*
X114552D01*
Y126247D01*
X106426D01*
Y131318D01*
X107388D01*
Y127324D01*
D02*
G37*
G36*
X108951Y124810D02*
X109163Y124767D01*
X109363Y124714D01*
X109532Y124651D01*
X109670Y124577D01*
X109775Y124524D01*
X109807Y124503D01*
X109839Y124482D01*
X109850Y124471D01*
X109860D01*
X110040Y124334D01*
X110209Y124165D01*
X110346Y123996D01*
X110473Y123827D01*
X110568Y123668D01*
X110631Y123541D01*
X110663Y123489D01*
X110684Y123457D01*
X110695Y123436D01*
Y123425D01*
X110737Y123330D01*
X110779Y123214D01*
X110822Y123077D01*
X110875Y122939D01*
X110959Y122643D01*
X111033Y122347D01*
X111075Y122200D01*
X111107Y122073D01*
X111139Y121946D01*
X111160Y121840D01*
X111181Y121756D01*
X111202Y121682D01*
X111213Y121640D01*
Y121629D01*
X111265Y121397D01*
X111318Y121185D01*
X111371Y120995D01*
X111424Y120826D01*
X111477Y120678D01*
X111519Y120551D01*
X111572Y120435D01*
X111614Y120329D01*
X111646Y120255D01*
X111678Y120181D01*
X111709Y120129D01*
X111741Y120086D01*
X111751Y120055D01*
X111773Y120034D01*
X111783Y120012D01*
X111899Y119907D01*
X112016Y119833D01*
X112132Y119780D01*
X112248Y119748D01*
X112354Y119727D01*
X112428Y119706D01*
X112480D01*
X112502D01*
X112681Y119727D01*
X112850Y119780D01*
X112998Y119843D01*
X113125Y119928D01*
X113231Y120012D01*
X113305Y120076D01*
X113347Y120129D01*
X113368Y120150D01*
X113432Y120234D01*
X113484Y120340D01*
X113580Y120562D01*
X113643Y120794D01*
X113685Y121027D01*
X113706Y121238D01*
X113717Y121323D01*
X113727Y121407D01*
Y121735D01*
X113706Y121893D01*
X113696Y122041D01*
X113664Y122178D01*
X113632Y122305D01*
X113601Y122422D01*
X113569Y122527D01*
X113537Y122622D01*
X113495Y122696D01*
X113463Y122770D01*
X113432Y122834D01*
X113400Y122886D01*
X113368Y122918D01*
X113358Y122950D01*
X113336Y122971D01*
X113178Y123140D01*
X112988Y123267D01*
X112797Y123362D01*
X112618Y123436D01*
X112449Y123489D01*
X112375Y123510D01*
X112311Y123520D01*
X112259Y123531D01*
X112216Y123541D01*
X112195D01*
X112185D01*
X112259Y124577D01*
X112512Y124556D01*
X112755Y124503D01*
X112967Y124440D01*
X113157Y124366D01*
X113315Y124292D01*
X113379Y124260D01*
X113432Y124239D01*
X113474Y124207D01*
X113505Y124197D01*
X113516Y124176D01*
X113527D01*
X113727Y124028D01*
X113907Y123848D01*
X114055Y123679D01*
X114171Y123499D01*
X114266Y123351D01*
X114340Y123224D01*
X114361Y123172D01*
X114382Y123140D01*
X114393Y123119D01*
Y123108D01*
X114488Y122844D01*
X114562Y122569D01*
X114615Y122305D01*
X114657Y122062D01*
X114668Y121946D01*
X114678Y121840D01*
Y121756D01*
X114689Y121671D01*
Y121523D01*
X114678Y121228D01*
X114647Y120942D01*
X114594Y120689D01*
X114552Y120467D01*
X114520Y120372D01*
X114499Y120287D01*
X114467Y120213D01*
X114446Y120150D01*
X114435Y120097D01*
X114414Y120065D01*
X114404Y120044D01*
Y120034D01*
X114287Y119801D01*
X114161Y119590D01*
X114023Y119421D01*
X113896Y119273D01*
X113780Y119167D01*
X113675Y119082D01*
X113611Y119040D01*
X113601Y119019D01*
X113590D01*
X113389Y118903D01*
X113188Y118818D01*
X112998Y118755D01*
X112819Y118713D01*
X112660Y118692D01*
X112544Y118681D01*
X112502Y118670D01*
X112470D01*
X112449D01*
X112438D01*
X112238Y118681D01*
X112047Y118713D01*
X111868Y118755D01*
X111720Y118808D01*
X111593Y118861D01*
X111508Y118903D01*
X111445Y118935D01*
X111434Y118945D01*
X111424D01*
X111265Y119061D01*
X111117Y119199D01*
X110991Y119347D01*
X110885Y119484D01*
X110790Y119611D01*
X110726Y119717D01*
X110705Y119759D01*
X110684Y119790D01*
X110674Y119801D01*
Y119812D01*
X110631Y119907D01*
X110579Y120012D01*
X110494Y120245D01*
X110399Y120509D01*
X110325Y120763D01*
X110251Y121006D01*
X110230Y121101D01*
X110198Y121196D01*
X110188Y121270D01*
X110167Y121323D01*
X110156Y121365D01*
Y121375D01*
X110103Y121576D01*
X110061Y121756D01*
X110019Y121925D01*
X109987Y122073D01*
X109945Y122210D01*
X109913Y122326D01*
X109892Y122432D01*
X109860Y122517D01*
X109839Y122601D01*
X109818Y122664D01*
X109807Y122717D01*
X109786Y122760D01*
X109775Y122802D01*
X109765Y122823D01*
X109691Y123003D01*
X109607Y123151D01*
X109532Y123277D01*
X109459Y123383D01*
X109395Y123457D01*
X109342Y123510D01*
X109300Y123541D01*
X109290Y123552D01*
X109184Y123626D01*
X109068Y123689D01*
X108951Y123732D01*
X108846Y123753D01*
X108761Y123774D01*
X108687Y123785D01*
X108645D01*
X108624D01*
X108486Y123774D01*
X108360Y123753D01*
X108243Y123711D01*
X108138Y123668D01*
X108053Y123626D01*
X107979Y123584D01*
X107937Y123563D01*
X107926Y123552D01*
X107810Y123457D01*
X107715Y123341D01*
X107631Y123224D01*
X107557Y123108D01*
X107504Y123003D01*
X107462Y122918D01*
X107440Y122865D01*
X107430Y122855D01*
Y122844D01*
X107366Y122664D01*
X107324Y122485D01*
X107292Y122295D01*
X107271Y122136D01*
X107261Y121988D01*
X107250Y121872D01*
Y121766D01*
X107261Y121513D01*
X107282Y121280D01*
X107324Y121069D01*
X107366Y120889D01*
X107409Y120731D01*
X107430Y120667D01*
X107451Y120615D01*
X107462Y120572D01*
X107472Y120541D01*
X107483Y120530D01*
Y120520D01*
X107578Y120329D01*
X107683Y120160D01*
X107789Y120023D01*
X107895Y119907D01*
X107979Y119822D01*
X108053Y119759D01*
X108096Y119717D01*
X108117Y119706D01*
X108275Y119621D01*
X108444Y119547D01*
X108613Y119484D01*
X108772Y119442D01*
X108920Y119410D01*
X109025Y119389D01*
X109068D01*
X109099Y119378D01*
X109120D01*
X109131D01*
X109046Y118364D01*
X108751Y118385D01*
X108465Y118438D01*
X108222Y118512D01*
X108000Y118596D01*
X107905Y118639D01*
X107821Y118670D01*
X107757Y118713D01*
X107694Y118744D01*
X107641Y118765D01*
X107609Y118787D01*
X107588Y118808D01*
X107578D01*
X107356Y118977D01*
X107155Y119167D01*
X106986Y119357D01*
X106849Y119547D01*
X106743Y119717D01*
X106701Y119790D01*
X106669Y119843D01*
X106637Y119896D01*
X106616Y119938D01*
X106606Y119959D01*
Y119970D01*
X106500Y120266D01*
X106426Y120572D01*
X106363Y120889D01*
X106331Y121175D01*
X106320Y121312D01*
X106310Y121428D01*
X106299Y121545D01*
Y121640D01*
X106289Y121713D01*
Y121819D01*
X106299Y122136D01*
X106341Y122432D01*
X106394Y122696D01*
X106447Y122918D01*
X106479Y123024D01*
X106510Y123108D01*
X106532Y123182D01*
X106553Y123256D01*
X106574Y123299D01*
X106595Y123341D01*
X106606Y123362D01*
Y123372D01*
X106732Y123616D01*
X106880Y123837D01*
X107028Y124017D01*
X107166Y124165D01*
X107292Y124281D01*
X107398Y124376D01*
X107440Y124397D01*
X107472Y124418D01*
X107483Y124440D01*
X107493D01*
X107704Y124566D01*
X107926Y124662D01*
X108127Y124725D01*
X108317Y124778D01*
X108476Y124799D01*
X108539Y124810D01*
X108603D01*
X108645Y124820D01*
X108677D01*
X108698D01*
X108708D01*
X108951Y124810D01*
D02*
G37*
%LPC*%
G36*
X120240Y145255D02*
X120003Y145248D01*
X119872Y145232D01*
X119846Y145226D01*
X119814Y145220D01*
X119789Y145213D01*
X119747Y145204D01*
X119722Y145197D01*
X119613Y145184D01*
X119546Y145156D01*
X119504Y145140D01*
X119479Y145133D01*
X119434Y145127D01*
X119402Y145114D01*
X119363Y145089D01*
X119341Y145079D01*
X119299Y145069D01*
X119267Y145056D01*
X119222Y145024D01*
X119171Y145005D01*
X119143Y144989D01*
X119107Y144960D01*
X119095Y144954D01*
X119050Y144935D01*
X119024Y144909D01*
X118967Y144877D01*
X118935Y144845D01*
X118903Y144826D01*
X118851Y144775D01*
X118839Y144769D01*
X118746Y144676D01*
X118739Y144663D01*
X118717Y144647D01*
X118688Y144612D01*
X118682Y144599D01*
X118672Y144589D01*
X118650Y144573D01*
X118624Y144529D01*
X118608Y144513D01*
X118580Y144477D01*
X118573Y144465D01*
X118554Y144420D01*
X118528Y144394D01*
X118509Y144362D01*
X118490Y144318D01*
X118483Y144305D01*
X118461Y144282D01*
X118445Y144241D01*
X118439Y144215D01*
X118423Y144180D01*
X118397Y144142D01*
X118391Y144116D01*
X118381Y144074D01*
X118375Y144049D01*
X118340Y143969D01*
X118333Y143943D01*
X118301Y143751D01*
X118295Y143719D01*
X118285Y143678D01*
X118279Y143658D01*
X118272Y143498D01*
X118266Y143479D01*
X118269Y143386D01*
X118275Y143265D01*
X118282Y143214D01*
X118288Y143175D01*
X118304Y143102D01*
X118311Y143076D01*
X118323Y142987D01*
X118336Y142910D01*
X118371Y142830D01*
X118378Y142804D01*
X118387Y142756D01*
X118413Y142699D01*
X118439Y142654D01*
X118451Y142609D01*
X118464Y142577D01*
X118477Y142564D01*
X118493Y142542D01*
X118516Y142481D01*
X118541Y142455D01*
X118547Y142443D01*
X118557Y142433D01*
X118573Y142392D01*
X118605Y142360D01*
X118631Y142315D01*
X118644Y142302D01*
X118650Y142289D01*
X118659Y142286D01*
X118663Y142276D01*
X118682Y142257D01*
X118688Y142244D01*
X118701Y142232D01*
X118707Y142219D01*
X118723Y142203D01*
X118736Y142196D01*
X118739Y142187D01*
X118765Y142161D01*
X118771Y142148D01*
X118781Y142145D01*
X118800Y142126D01*
X118813Y142120D01*
X118823Y142110D01*
X118839Y142087D01*
X118851Y142081D01*
X118864Y142068D01*
X118877Y142062D01*
X118890Y142049D01*
X118903Y142043D01*
X118928Y142017D01*
X118973Y141992D01*
X119005Y141960D01*
X119063Y141928D01*
X119082Y141908D01*
X119139Y141876D01*
X119171Y141864D01*
X119184Y141857D01*
X119197Y141844D01*
X119232Y141822D01*
X119267Y141812D01*
X119309Y141796D01*
X119360Y141764D01*
X119395Y141755D01*
X119421Y141748D01*
X119488Y141720D01*
X119520Y141707D01*
X119571Y141694D01*
X119632Y141684D01*
X119658Y141678D01*
X119731Y141656D01*
X119766Y141646D01*
X119786Y141640D01*
X119901Y141633D01*
X119920Y141627D01*
X120144Y141620D01*
X120163Y141614D01*
X120243Y141617D01*
X120390Y141624D01*
X120541Y141633D01*
X120630Y141646D01*
X120723Y141675D01*
X120749Y141681D01*
X120825Y141694D01*
X120867Y141704D01*
X120899Y141716D01*
X120934Y141732D01*
X120966Y141745D01*
X121008Y141755D01*
X121065Y141780D01*
X121078Y141787D01*
X121088Y141796D01*
X121129Y141812D01*
X121155Y141819D01*
X121190Y141835D01*
X121225Y141864D01*
X121257Y141876D01*
X121302Y141896D01*
X121321Y141915D01*
X121379Y141947D01*
X121401Y141969D01*
X121462Y142011D01*
X121475Y142017D01*
X121497Y142039D01*
X121532Y142068D01*
X121545Y142075D01*
X121561Y142091D01*
X121568Y142104D01*
X121577Y142113D01*
X121590Y142120D01*
X121625Y142155D01*
X121641Y142177D01*
X121654Y142184D01*
X121667Y142196D01*
X121696Y142232D01*
X121702Y142244D01*
X121731Y142273D01*
X121772Y142334D01*
X121779Y142347D01*
X121814Y142382D01*
X121830Y142423D01*
X121833Y142427D01*
X121843Y142436D01*
X121849Y142449D01*
X121862Y142462D01*
X121878Y142484D01*
X121888Y142520D01*
X121913Y142558D01*
X121929Y142580D01*
X121958Y142660D01*
X121996Y142724D01*
X122009Y142782D01*
X122022Y142827D01*
X122038Y142862D01*
X122060Y142923D01*
X122079Y143057D01*
X122086Y143083D01*
X122092Y143127D01*
X122105Y143179D01*
X122112Y143198D01*
X122118Y143332D01*
X122124Y143377D01*
X122118Y143594D01*
X122108Y143681D01*
X122102Y143713D01*
X122095Y143738D01*
X122083Y143802D01*
X122060Y143946D01*
X122048Y143991D01*
X122032Y144026D01*
X122012Y144078D01*
X122003Y144132D01*
X121987Y144173D01*
X121955Y144225D01*
X121945Y144260D01*
X121932Y144292D01*
X121926Y144305D01*
X121913Y144318D01*
X121907Y144330D01*
X121897Y144340D01*
X121875Y144401D01*
X121856Y144420D01*
X121849Y144433D01*
X121836Y144445D01*
X121830Y144458D01*
X121811Y144503D01*
X121779Y144535D01*
X121760Y144567D01*
X121721Y144605D01*
X121715Y144618D01*
X121702Y144631D01*
X121696Y144644D01*
X121632Y144708D01*
X121625Y144721D01*
X121603Y144743D01*
X121590Y144749D01*
X121565Y144775D01*
X121552Y144781D01*
X121529Y144804D01*
X121494Y144833D01*
X121481Y144839D01*
X121449Y144871D01*
X121404Y144897D01*
X121372Y144929D01*
X121302Y144967D01*
X121289Y144973D01*
X121277Y144986D01*
X121244Y145005D01*
X121187Y145031D01*
X121174Y145037D01*
X121158Y145053D01*
X121117Y145069D01*
X121091Y145076D01*
X121046Y145095D01*
X121033Y145101D01*
X121024Y145111D01*
X120992Y145124D01*
X120966Y145130D01*
X120912Y145140D01*
X120880Y145153D01*
X120845Y145169D01*
X120803Y145184D01*
X120777Y145191D01*
X120691Y145201D01*
X120659Y145207D01*
X120608Y145220D01*
X120544Y145232D01*
X120477Y145242D01*
X120457Y145248D01*
X120240Y145255D01*
D02*
G37*
G36*
X121341Y113255D02*
X121139Y113252D01*
X120998Y113245D01*
X120934Y113239D01*
X120877Y113233D01*
X120845Y113226D01*
X120774Y113214D01*
X120736Y113207D01*
X120624Y113197D01*
X120534Y113185D01*
X120490Y113172D01*
X120448Y113156D01*
X120397Y113143D01*
X120317Y113133D01*
X120291Y113127D01*
X120233Y113102D01*
X120208Y113095D01*
X120205Y113092D01*
X120169Y113082D01*
X120144Y113076D01*
X120099Y113069D01*
X120003Y113025D01*
X119926Y113006D01*
X119891Y112990D01*
X119853Y112964D01*
X119827Y112957D01*
X119779Y112948D01*
X119741Y112922D01*
X119706Y112900D01*
X119664Y112890D01*
X119629Y112874D01*
X119594Y112846D01*
X119543Y112826D01*
X119510Y112814D01*
X119482Y112785D01*
X119440Y112769D01*
X119408Y112756D01*
X119382Y112730D01*
X119312Y112692D01*
X119299Y112686D01*
X119280Y112666D01*
X119248Y112647D01*
X119216Y112634D01*
X119184Y112602D01*
X119139Y112577D01*
X119127Y112570D01*
X119117Y112561D01*
X119111Y112548D01*
X119056Y112513D01*
X119043Y112506D01*
X119024Y112487D01*
X118979Y112455D01*
X118967Y112449D01*
X118938Y112420D01*
X118903Y112391D01*
X118890Y112385D01*
X118880Y112375D01*
X118874Y112362D01*
X118839Y112334D01*
X118826Y112327D01*
X118810Y112311D01*
X118803Y112298D01*
X118794Y112289D01*
X118781Y112282D01*
X118739Y112241D01*
X118733Y112228D01*
X118717Y112219D01*
X118704Y112212D01*
X118688Y112196D01*
X118682Y112183D01*
X118659Y112161D01*
X118637Y112145D01*
X118631Y112132D01*
X118618Y112119D01*
X118611Y112107D01*
X118602Y112103D01*
X118567Y112068D01*
X118560Y112055D01*
X118509Y112004D01*
X118503Y111991D01*
X118468Y111956D01*
X118439Y111921D01*
X118432Y111908D01*
X118400Y111876D01*
X118394Y111863D01*
X118362Y111819D01*
X118356Y111806D01*
X118330Y111780D01*
X118304Y111735D01*
X118272Y111703D01*
X118240Y111646D01*
X118231Y111636D01*
X118202Y111601D01*
X118195Y111588D01*
X118183Y111556D01*
X118157Y111531D01*
X118132Y111486D01*
X118112Y111441D01*
X118084Y111412D01*
X118068Y111371D01*
X118052Y111335D01*
X118023Y111300D01*
X117997Y111230D01*
X117952Y111166D01*
X117946Y111128D01*
X117927Y111083D01*
X117920Y111070D01*
X117904Y111054D01*
X117888Y111012D01*
X117882Y110987D01*
X117866Y110932D01*
X117834Y110881D01*
X117824Y110833D01*
X117818Y110808D01*
X117776Y110715D01*
X117770Y110689D01*
X117760Y110628D01*
X117754Y110603D01*
X117744Y110568D01*
X117719Y110504D01*
X117709Y110468D01*
X117703Y110443D01*
X117696Y110379D01*
X117684Y110302D01*
X117661Y110229D01*
X117655Y110197D01*
X117648Y110158D01*
X117642Y110088D01*
X117636Y109966D01*
X117626Y109809D01*
X117620Y109790D01*
X117623Y109473D01*
X117629Y109384D01*
X117639Y109221D01*
X117645Y109137D01*
X117652Y109073D01*
X117658Y109048D01*
X117671Y109003D01*
X117681Y108968D01*
X117687Y108942D01*
X117696Y108875D01*
X117703Y108850D01*
X117709Y108786D01*
X117716Y108760D01*
X117744Y108693D01*
X117751Y108667D01*
X117760Y108626D01*
X117767Y108581D01*
X117780Y108536D01*
X117802Y108495D01*
X117815Y108462D01*
X117824Y108414D01*
X117831Y108389D01*
X117840Y108360D01*
X117872Y108309D01*
X117882Y108274D01*
X117888Y108248D01*
X117914Y108190D01*
X117920Y108178D01*
X117930Y108168D01*
X117946Y108126D01*
X117952Y108101D01*
X117965Y108069D01*
X117978Y108056D01*
X117984Y108043D01*
X117997Y108031D01*
X118004Y108005D01*
X118029Y107947D01*
X118045Y107925D01*
X118090Y107835D01*
X118119Y107800D01*
X118138Y107749D01*
X118170Y107717D01*
X118208Y107647D01*
X118215Y107634D01*
X118234Y107615D01*
X118259Y107570D01*
X118266Y107557D01*
X118298Y107525D01*
X118323Y107480D01*
X118356Y107448D01*
X118381Y107403D01*
X118420Y107365D01*
X118445Y107320D01*
X118468Y107298D01*
X118480Y107291D01*
X118496Y107269D01*
X118503Y107256D01*
X118532Y107227D01*
X118544Y107221D01*
X118554Y107205D01*
X118560Y107192D01*
X118583Y107170D01*
X118596Y107163D01*
X118611Y107148D01*
X118618Y107135D01*
X118711Y107042D01*
X118723Y107036D01*
X118739Y107020D01*
X118746Y107007D01*
X118768Y106984D01*
X118781Y106978D01*
X118832Y106927D01*
X118845Y106920D01*
X118896Y106869D01*
X118909Y106863D01*
X118922Y106850D01*
X118935Y106844D01*
X118951Y106828D01*
X118957Y106815D01*
X119005Y106786D01*
X119018Y106780D01*
X119050Y106748D01*
X119095Y106722D01*
X119127Y106690D01*
X119171Y106664D01*
X119197Y106639D01*
X119280Y106594D01*
X119312Y106562D01*
X119325Y106556D01*
X119370Y106537D01*
X119389Y106517D01*
X119434Y106492D01*
X119479Y106473D01*
X119491Y106466D01*
X119504Y106453D01*
X119527Y106437D01*
X119568Y106421D01*
X119600Y106409D01*
X119613Y106396D01*
X119670Y106364D01*
X119709Y106357D01*
X119747Y106332D01*
X119792Y106306D01*
X119830Y106300D01*
X119862Y106287D01*
X119901Y106261D01*
X119933Y106249D01*
X120010Y106229D01*
X120077Y106194D01*
X120150Y106178D01*
X120202Y106165D01*
X120237Y106149D01*
X120288Y106130D01*
X120320Y106124D01*
X120393Y106114D01*
X120419Y106108D01*
X120454Y106098D01*
X120506Y106079D01*
X120531Y106073D01*
X120637Y106057D01*
X120739Y106050D01*
X120765Y106044D01*
X120809Y106037D01*
X120835Y106031D01*
X120854Y106025D01*
X120944Y106018D01*
X120963Y106012D01*
X121353Y106005D01*
X121494Y106012D01*
X121539Y106018D01*
X121625Y106028D01*
X121651Y106034D01*
X121772Y106053D01*
X121862Y106060D01*
X121913Y106066D01*
X121945Y106073D01*
X121987Y106082D01*
X122032Y106101D01*
X122051Y106108D01*
X122095Y106114D01*
X122121Y106121D01*
X122185Y106127D01*
X122252Y106156D01*
X122284Y106168D01*
X122310Y106175D01*
X122364Y106185D01*
X122409Y106197D01*
X122457Y106226D01*
X122483Y106233D01*
X122518Y106242D01*
X122543Y106249D01*
X122588Y106268D01*
X122601Y106274D01*
X122611Y106284D01*
X122652Y106300D01*
X122678Y106306D01*
X122723Y106325D01*
X122735Y106332D01*
X122748Y106344D01*
X122771Y106354D01*
X122806Y106364D01*
X122838Y106376D01*
X122886Y106412D01*
X122966Y106440D01*
X122985Y106460D01*
X123030Y106485D01*
X123075Y106504D01*
X123094Y106524D01*
X123164Y106562D01*
X123177Y106568D01*
X123196Y106588D01*
X123254Y106620D01*
X123266Y106626D01*
X123299Y106658D01*
X123311Y106664D01*
X123359Y106693D01*
X123366Y106706D01*
X123420Y106741D01*
X123433Y106748D01*
X123465Y106780D01*
X123510Y106805D01*
X123538Y106834D01*
X123574Y106863D01*
X123586Y106869D01*
X123596Y106879D01*
X123602Y106892D01*
X123638Y106920D01*
X123650Y106927D01*
X123666Y106943D01*
X123673Y106956D01*
X123689Y106972D01*
X123702Y106978D01*
X123737Y107013D01*
X123743Y107026D01*
X123753Y107029D01*
X123766Y107042D01*
X123778Y107048D01*
X123788Y107058D01*
X123794Y107071D01*
X123830Y107106D01*
X123842Y107112D01*
X123852Y107128D01*
X123868Y107151D01*
X123881Y107157D01*
X123916Y107192D01*
X123922Y107205D01*
X123974Y107256D01*
X123980Y107269D01*
X124009Y107298D01*
X124038Y107333D01*
X124044Y107346D01*
X124082Y107384D01*
X124089Y107397D01*
X124114Y107436D01*
X124121Y107448D01*
X124146Y107474D01*
X124172Y107519D01*
X124210Y107557D01*
X124236Y107602D01*
X124242Y107615D01*
X124262Y107634D01*
X124277Y107656D01*
X124293Y107698D01*
X124310Y107714D01*
X124338Y107749D01*
X124364Y107813D01*
X124383Y107832D01*
X124409Y107877D01*
X124422Y107909D01*
X124428Y107922D01*
X124438Y107931D01*
X124463Y107970D01*
X124473Y108005D01*
X124486Y108037D01*
X124498Y108050D01*
X124505Y108062D01*
X124514Y108072D01*
X124537Y108133D01*
X124556Y108178D01*
X124588Y108235D01*
X124607Y108312D01*
X124636Y108360D01*
X124649Y108392D01*
X124658Y108447D01*
X124693Y108526D01*
X124706Y108558D01*
X124716Y108600D01*
X124722Y108645D01*
X124729Y108670D01*
X124745Y108712D01*
X124764Y108763D01*
X124773Y108824D01*
X124780Y108850D01*
X124786Y108914D01*
X124799Y108965D01*
X124809Y109000D01*
X124821Y109051D01*
X124828Y109083D01*
X124834Y109134D01*
X124844Y109336D01*
X124850Y109355D01*
X124857Y109739D01*
X124850Y109861D01*
X124844Y109924D01*
X124837Y110065D01*
X124831Y110148D01*
X124825Y110193D01*
X124818Y110219D01*
X124805Y110264D01*
X124796Y110299D01*
X124783Y110369D01*
X124773Y110449D01*
X124761Y110500D01*
X124745Y110542D01*
X124732Y110574D01*
X124725Y110600D01*
X124716Y110641D01*
X124709Y110686D01*
X124703Y110712D01*
X124690Y110744D01*
X124681Y110753D01*
X124661Y110804D01*
X124652Y110859D01*
X124633Y110904D01*
X124626Y110916D01*
X124617Y110926D01*
X124604Y110958D01*
X124594Y110993D01*
X124581Y111038D01*
X124565Y111067D01*
X124540Y111105D01*
X124530Y111147D01*
X124517Y111179D01*
X124486Y111223D01*
X124466Y111275D01*
X124453Y111307D01*
X124444Y111316D01*
X124412Y111368D01*
X124402Y111403D01*
X124386Y111419D01*
X124354Y111470D01*
X124338Y111511D01*
X124313Y111537D01*
X124271Y111611D01*
X124242Y111646D01*
X124217Y111691D01*
X124210Y111703D01*
X124191Y111723D01*
X124159Y111767D01*
X124153Y111780D01*
X124121Y111812D01*
X124095Y111857D01*
X124073Y111879D01*
X124044Y111915D01*
X124038Y111927D01*
X124025Y111940D01*
X124018Y111953D01*
X124009Y111956D01*
X123980Y111991D01*
X123974Y112004D01*
X123958Y112020D01*
X123945Y112027D01*
X123916Y112062D01*
X123910Y112074D01*
X123900Y112084D01*
X123887Y112091D01*
X123858Y112119D01*
X123852Y112132D01*
X123830Y112155D01*
X123817Y112161D01*
X123807Y112170D01*
X123801Y112183D01*
X123772Y112212D01*
X123759Y112219D01*
X123737Y112241D01*
X123730Y112254D01*
X123714Y112270D01*
X123702Y112276D01*
X123650Y112327D01*
X123638Y112334D01*
X123602Y112369D01*
X123567Y112398D01*
X123554Y112404D01*
X123522Y112436D01*
X123478Y112468D01*
X123465Y112474D01*
X123433Y112506D01*
X123388Y112532D01*
X123350Y112570D01*
X123305Y112596D01*
X123292Y112602D01*
X123273Y112622D01*
X123202Y112660D01*
X123177Y112686D01*
X123106Y112724D01*
X123094Y112730D01*
X123081Y112743D01*
X123036Y112769D01*
X123004Y112782D01*
X122991Y112788D01*
X122963Y112817D01*
X122921Y112833D01*
X122895Y112839D01*
X122857Y112865D01*
X122812Y112890D01*
X122748Y112910D01*
X122735Y112922D01*
X122700Y112945D01*
X122665Y112954D01*
X122639Y112961D01*
X122604Y112977D01*
X122566Y113002D01*
X122531Y113012D01*
X122505Y113018D01*
X122460Y113031D01*
X122428Y113044D01*
X122419Y113054D01*
X122387Y113066D01*
X122361Y113073D01*
X122323Y113079D01*
X122271Y113092D01*
X122201Y113124D01*
X122176Y113130D01*
X122095Y113140D01*
X122070Y113146D01*
X122025Y113159D01*
X121984Y113175D01*
X121942Y113185D01*
X121923Y113191D01*
X121833Y113197D01*
X121788Y113204D01*
X121702Y113214D01*
X121664Y113220D01*
X121638Y113226D01*
X121565Y113236D01*
X121545Y113242D01*
X121360Y113249D01*
X121341Y113255D01*
D02*
G37*
%LPD*%
G36*
X121392Y110728D02*
X121456Y110721D01*
X121501Y110715D01*
X121580Y110680D01*
X121648Y110664D01*
X121673Y110657D01*
X121708Y110641D01*
X121744Y110612D01*
X121769Y110606D01*
X121814Y110587D01*
X121833Y110568D01*
X121891Y110536D01*
X121904Y110523D01*
X121916Y110516D01*
X121926Y110507D01*
X121961Y110478D01*
X121974Y110472D01*
X121990Y110456D01*
X121996Y110443D01*
X122012Y110427D01*
X122025Y110421D01*
X122054Y110392D01*
X122060Y110379D01*
X122105Y110334D01*
X122131Y110289D01*
X122153Y110267D01*
X122179Y110229D01*
X122195Y110187D01*
X122214Y110168D01*
X122220Y110155D01*
X122230Y110145D01*
X122246Y110104D01*
X122259Y110059D01*
X122288Y110011D01*
X122300Y109979D01*
X122313Y109896D01*
X122332Y109819D01*
X122342Y109777D01*
X122348Y109758D01*
X122355Y109553D01*
X122342Y109477D01*
X122329Y109425D01*
X122319Y109390D01*
X122303Y109291D01*
X122291Y109246D01*
X122265Y109208D01*
X122246Y109157D01*
X122233Y109112D01*
X122217Y109096D01*
X122191Y109058D01*
X122176Y109016D01*
X122143Y108984D01*
X122112Y108926D01*
X122089Y108904D01*
X122076Y108898D01*
X122073Y108888D01*
X122060Y108875D01*
X122054Y108862D01*
X122038Y108846D01*
X122025Y108840D01*
X121990Y108805D01*
X121984Y108792D01*
X121942Y108770D01*
X121910Y108738D01*
X121852Y108706D01*
X121830Y108683D01*
X121792Y108658D01*
X121750Y108648D01*
X121712Y108622D01*
X121676Y108600D01*
X121603Y108584D01*
X121536Y108555D01*
X121504Y108542D01*
X121465Y108536D01*
X121401Y108530D01*
X121254Y108523D01*
X121136Y108526D01*
X121053Y108533D01*
X120989Y108539D01*
X120947Y108555D01*
X120883Y108581D01*
X120809Y108597D01*
X120777Y108610D01*
X120765Y108622D01*
X120742Y108638D01*
X120710Y108651D01*
X120675Y108661D01*
X120643Y108693D01*
X120585Y108725D01*
X120573Y108731D01*
X120557Y108747D01*
X120521Y108776D01*
X120509Y108782D01*
X120451Y108840D01*
X120438Y108846D01*
X120422Y108869D01*
X120416Y108882D01*
X120371Y108926D01*
X120345Y108971D01*
X120320Y108997D01*
X120294Y109042D01*
X120281Y109073D01*
X120262Y109093D01*
X120237Y109137D01*
X120224Y109182D01*
X120182Y109262D01*
X120166Y109355D01*
X120141Y109457D01*
X120134Y109477D01*
X120128Y109547D01*
X120122Y109566D01*
X120125Y109697D01*
X120131Y109749D01*
X120144Y109813D01*
X120163Y109889D01*
X120173Y109950D01*
X120179Y109976D01*
X120189Y110011D01*
X120214Y110049D01*
X120230Y110091D01*
X120237Y110117D01*
X120250Y110148D01*
X120262Y110161D01*
X120269Y110174D01*
X120281Y110187D01*
X120288Y110200D01*
X120307Y110245D01*
X120323Y110260D01*
X120365Y110321D01*
X120371Y110334D01*
X120387Y110350D01*
X120400Y110357D01*
X120403Y110366D01*
X120416Y110379D01*
X120422Y110392D01*
X120438Y110408D01*
X120451Y110414D01*
X120493Y110456D01*
X120528Y110484D01*
X120541Y110491D01*
X120573Y110523D01*
X120617Y110548D01*
X120624D01*
X120649Y110574D01*
X120662Y110580D01*
X120672Y110590D01*
X120733Y110612D01*
X120771Y110638D01*
X120793Y110654D01*
X120819Y110660D01*
X120861Y110670D01*
X120886Y110676D01*
X120966Y110712D01*
X121043Y110724D01*
X121213Y110734D01*
X121392Y110728D01*
D02*
G37*
%LPC*%
G36*
X121238Y109934D02*
X121193Y109928D01*
X121110Y109889D01*
X121065Y109870D01*
X121030Y109835D01*
X121014Y109813D01*
X120985Y109777D01*
X120953Y109720D01*
X120947Y109592D01*
Y109585D01*
X120953Y109541D01*
X120973Y109496D01*
X120979Y109483D01*
X120998Y109464D01*
X121005Y109451D01*
X121017Y109438D01*
X121024Y109425D01*
X121053Y109397D01*
X121097Y109371D01*
X121129Y109358D01*
X121174Y109333D01*
X121283Y109326D01*
X121366Y109365D01*
X121411Y109384D01*
X121453Y109425D01*
X121459Y109438D01*
X121478Y109457D01*
X121484Y109470D01*
X121497Y109483D01*
X121523Y109528D01*
X121529Y109656D01*
X121523Y109720D01*
X121504Y109765D01*
X121497Y109777D01*
X121478Y109797D01*
X121472Y109809D01*
X121453Y109829D01*
X121446Y109841D01*
X121433Y109854D01*
X121382Y109886D01*
X121347Y109896D01*
X121296Y109928D01*
X121238Y109934D01*
D02*
G37*
G36*
X194845Y20699D02*
X194786D01*
X194740D01*
X194728D01*
X194495D01*
X194285Y20675D01*
X194087Y20652D01*
X193900Y20617D01*
X193725Y20570D01*
X193574Y20524D01*
X193434Y20477D01*
X193306Y20431D01*
X193201Y20372D01*
X193107Y20326D01*
X193026Y20279D01*
X192956Y20232D01*
X192909Y20197D01*
X192874Y20174D01*
X192851Y20162D01*
X192839Y20151D01*
X192734Y20046D01*
X192641Y19941D01*
X192548Y19824D01*
X192478Y19708D01*
X192373Y19475D01*
X192303Y19265D01*
X192256Y19078D01*
X192245Y18996D01*
X192233Y18927D01*
X192222Y18868D01*
Y18787D01*
X192233Y18635D01*
X192245Y18495D01*
X192315Y18227D01*
X192420Y17994D01*
X192536Y17796D01*
X192641Y17644D01*
X192746Y17516D01*
X192781Y17481D01*
X192816Y17446D01*
X192828Y17434D01*
X192839Y17423D01*
X192968Y17329D01*
X193096Y17248D01*
X193387Y17108D01*
X193702Y17015D01*
X193994Y16956D01*
X194133Y16933D01*
X194273Y16910D01*
X194390Y16898D01*
X194495D01*
X194576Y16886D01*
X194635D01*
X194681D01*
X194693D01*
X194915Y16898D01*
X195136Y16910D01*
X195334Y16933D01*
X195509Y16968D01*
X195684Y17015D01*
X195836Y17061D01*
X195975Y17108D01*
X196092Y17155D01*
X196209Y17201D01*
X196302Y17248D01*
X196372Y17294D01*
X196442Y17341D01*
X196488Y17376D01*
X196535Y17399D01*
X196547Y17423D01*
X196558D01*
X196663Y17528D01*
X196768Y17644D01*
X196850Y17749D01*
X196920Y17866D01*
X197025Y18099D01*
X197095Y18309D01*
X197141Y18495D01*
X197153Y18577D01*
X197165Y18647D01*
X197176Y18705D01*
Y18787D01*
X197165Y18938D01*
X197153Y19078D01*
X197083Y19346D01*
X196978Y19579D01*
X196862Y19778D01*
X196745Y19929D01*
X196640Y20057D01*
X196605Y20092D01*
X196570Y20127D01*
X196558Y20139D01*
X196547Y20151D01*
X196430Y20244D01*
X196290Y20337D01*
X195999Y20466D01*
X195696Y20570D01*
X195404Y20629D01*
X195264Y20652D01*
X195136Y20675D01*
X195031Y20687D01*
X194926D01*
X194845Y20699D01*
D02*
G37*
G36*
X198016Y13214D02*
X197981D01*
X197969D01*
X197957D01*
X197794Y13202D01*
X197654Y13179D01*
X197514Y13132D01*
X197398Y13097D01*
X197293Y13051D01*
X197223Y13004D01*
X197165Y12981D01*
X197153Y12969D01*
X197025Y12876D01*
X196908Y12759D01*
X196815Y12643D01*
X196745Y12538D01*
X196687Y12433D01*
X196652Y12351D01*
X196628Y12293D01*
X196617Y12270D01*
X196558Y12083D01*
X196523Y11885D01*
X196488Y11663D01*
X196477Y11465D01*
X196465Y11279D01*
X196453Y11197D01*
Y8457D01*
X199426D01*
Y11465D01*
X199403Y11640D01*
X199391Y11791D01*
X199356Y11931D01*
X199333Y12071D01*
X199298Y12188D01*
X199252Y12293D01*
X199217Y12386D01*
X199135Y12549D01*
X199077Y12654D01*
X199030Y12724D01*
X199007Y12747D01*
X198843Y12899D01*
X198669Y13016D01*
X198494Y13097D01*
X198331Y13156D01*
X198179Y13191D01*
X198062Y13202D01*
X198016Y13214D01*
D02*
G37*
G36*
X215805Y31486D02*
X215707D01*
X215630D01*
X215610D01*
X215240D01*
X214889Y31447D01*
X214558Y31408D01*
X214246Y31350D01*
X213974Y31272D01*
X213720Y31194D01*
X213487Y31116D01*
X213272Y31038D01*
X213097Y30960D01*
X212941Y30882D01*
X212805Y30805D01*
X212688Y30727D01*
X212610Y30668D01*
X212551Y30629D01*
X212512Y30610D01*
X212493Y30590D01*
X212318Y30415D01*
X212162Y30259D01*
X212006Y30064D01*
X211889Y29889D01*
X211714Y29538D01*
X211597Y29227D01*
X211519Y28934D01*
X211480Y28700D01*
X211460Y28623D01*
Y28506D01*
X211480Y28233D01*
X211519Y27980D01*
X211597Y27746D01*
X211675Y27512D01*
X211909Y27122D01*
X212162Y26791D01*
X212415Y26518D01*
X212649Y26324D01*
X212727Y26265D01*
X212805Y26207D01*
X212844Y26187D01*
X212863Y26168D01*
X213039Y26070D01*
X213233Y25993D01*
X213662Y25856D01*
X214130Y25778D01*
X214597Y25700D01*
X215006Y25661D01*
X215182D01*
X215357Y25642D01*
X215493D01*
X215591D01*
X215649D01*
X215669D01*
X216019Y25661D01*
X216370Y25681D01*
X216682Y25720D01*
X216974Y25778D01*
X217247Y25837D01*
X217480Y25915D01*
X217714Y25993D01*
X217909Y26090D01*
X218104Y26168D01*
X218260Y26246D01*
X218377Y26324D01*
X218493Y26382D01*
X218571Y26441D01*
X218649Y26479D01*
X218669Y26518D01*
X218688D01*
X218883Y26694D01*
X219039Y26869D01*
X219175Y27044D01*
X219292Y27220D01*
X219487Y27571D01*
X219604Y27882D01*
X219682Y28174D01*
X219721Y28408D01*
X219740Y28486D01*
Y28603D01*
X219721Y28817D01*
X219701Y29032D01*
X219584Y29421D01*
X219429Y29772D01*
X219234Y30064D01*
X219039Y30298D01*
X218883Y30473D01*
X218766Y30590D01*
X218747Y30629D01*
X218727D01*
X218532Y30785D01*
X218299Y30921D01*
X217812Y31116D01*
X217305Y31272D01*
X216798Y31389D01*
X216545Y31408D01*
X216331Y31447D01*
X216136Y31467D01*
X215961D01*
X215805Y31486D01*
D02*
G37*
G36*
X220909Y19661D02*
X220792D01*
X220773D01*
X220753D01*
X220286Y19622D01*
X219896Y19525D01*
X219545Y19408D01*
X219253Y19252D01*
X219020Y19096D01*
X218864Y18979D01*
X218766Y18882D01*
X218727Y18843D01*
X218610Y18687D01*
X218493Y18492D01*
X218318Y18083D01*
X218201Y17635D01*
X218123Y17187D01*
X218065Y16778D01*
X218045Y16602D01*
Y16446D01*
X218026Y16310D01*
Y12277D01*
X223383D01*
Y16563D01*
X223364Y16953D01*
X223344Y17265D01*
X223325Y17518D01*
X223286Y17693D01*
X223267Y17830D01*
X223247Y17908D01*
Y17927D01*
X223150Y18200D01*
X223013Y18453D01*
X222877Y18667D01*
X222721Y18843D01*
X222585Y18979D01*
X222468Y19096D01*
X222390Y19154D01*
X222351Y19174D01*
X222098Y19330D01*
X221825Y19447D01*
X221552Y19544D01*
X221299Y19602D01*
X221084Y19641D01*
X220909Y19661D01*
D02*
G37*
G36*
X102215Y123753D02*
X102183D01*
X102173D01*
X102162D01*
X102014Y123742D01*
X101887Y123721D01*
X101761Y123679D01*
X101655Y123647D01*
X101560Y123605D01*
X101496Y123563D01*
X101444Y123541D01*
X101433Y123531D01*
X101317Y123446D01*
X101211Y123341D01*
X101126Y123235D01*
X101063Y123140D01*
X101010Y123045D01*
X100979Y122971D01*
X100957Y122918D01*
X100947Y122897D01*
X100894Y122728D01*
X100862Y122548D01*
X100831Y122347D01*
X100820Y122168D01*
X100810Y121999D01*
X100799Y121925D01*
Y119442D01*
X103493D01*
Y122168D01*
X103472Y122326D01*
X103462Y122464D01*
X103430Y122591D01*
X103409Y122717D01*
X103377Y122823D01*
X103335Y122918D01*
X103303Y123003D01*
X103229Y123151D01*
X103176Y123246D01*
X103134Y123309D01*
X103113Y123330D01*
X102965Y123468D01*
X102807Y123573D01*
X102648Y123647D01*
X102500Y123700D01*
X102363Y123732D01*
X102257Y123742D01*
X102215Y123753D01*
D02*
G37*
G36*
X109089Y155410D02*
X109046D01*
X109015D01*
X109004D01*
X108846D01*
X108698Y155389D01*
X108423Y155336D01*
X108180Y155262D01*
X107979Y155188D01*
X107905Y155146D01*
X107831Y155103D01*
X107768Y155061D01*
X107715Y155029D01*
X107673Y154998D01*
X107641Y154977D01*
X107631Y154966D01*
X107620Y154955D01*
X107535Y154871D01*
X107451Y154776D01*
X107324Y154596D01*
X107240Y154417D01*
X107176Y154237D01*
X107144Y154089D01*
X107123Y153973D01*
X107113Y153931D01*
Y153867D01*
X107123Y153709D01*
X107155Y153561D01*
X107187Y153413D01*
X107240Y153296D01*
X107282Y153191D01*
X107314Y153106D01*
X107345Y153064D01*
X107356Y153043D01*
X107462Y152906D01*
X107567Y152779D01*
X107683Y152673D01*
X107800Y152589D01*
X107905Y152525D01*
X107990Y152472D01*
X108043Y152441D01*
X108064Y152430D01*
X108243Y152356D01*
X108423Y152303D01*
X108592Y152272D01*
X108740Y152250D01*
X108867Y152229D01*
X108973Y152219D01*
X109036D01*
X109046D01*
X109057D01*
X109205Y152229D01*
X109342Y152240D01*
X109596Y152293D01*
X109807Y152367D01*
X109997Y152451D01*
X110145Y152536D01*
X110251Y152610D01*
X110283Y152641D01*
X110314Y152662D01*
X110325Y152684D01*
X110336D01*
X110420Y152768D01*
X110494Y152863D01*
X110621Y153054D01*
X110705Y153254D01*
X110758Y153434D01*
X110801Y153582D01*
X110811Y153656D01*
Y153709D01*
X110822Y153761D01*
Y153952D01*
X110801Y154068D01*
X110748Y154290D01*
X110663Y154480D01*
X110579Y154649D01*
X110494Y154776D01*
X110409Y154871D01*
X110357Y154934D01*
X110346Y154955D01*
X110336D01*
X110240Y155040D01*
X110135Y155103D01*
X109923Y155220D01*
X109702Y155304D01*
X109490Y155357D01*
X109300Y155389D01*
X109215Y155399D01*
X109142D01*
X109089Y155410D01*
D02*
G37*
G36*
X111973Y149038D02*
X111931D01*
X111899D01*
X111889D01*
X111730D01*
X111582Y149017D01*
X111308Y148964D01*
X111075Y148890D01*
X110885Y148816D01*
X110737Y148732D01*
X110674Y148690D01*
X110631Y148658D01*
X110589Y148626D01*
X110557Y148605D01*
X110547Y148595D01*
X110536Y148584D01*
X110452Y148499D01*
X110378Y148404D01*
X110262Y148225D01*
X110177Y148034D01*
X110124Y147855D01*
X110082Y147696D01*
X110071Y147622D01*
Y147570D01*
X110061Y147517D01*
Y147453D01*
X110071Y147326D01*
X110082Y147200D01*
X110135Y146978D01*
X110209Y146777D01*
X110304Y146608D01*
X110388Y146471D01*
X110462Y146376D01*
X110515Y146312D01*
X110536Y146302D01*
Y146291D01*
X110631Y146207D01*
X110726Y146143D01*
X110938Y146027D01*
X111149Y145953D01*
X111350Y145890D01*
X111530Y145858D01*
X111603Y145847D01*
X111678D01*
X111730Y145837D01*
X111773D01*
X111794D01*
X111804D01*
X111963Y145847D01*
X112111Y145858D01*
X112385Y145911D01*
X112628Y145995D01*
X112829Y146080D01*
X112914Y146122D01*
X112998Y146164D01*
X113062Y146207D01*
X113115Y146249D01*
X113157Y146280D01*
X113188Y146302D01*
X113199Y146323D01*
X113210D01*
X113305Y146418D01*
X113389Y146513D01*
X113463Y146608D01*
X113527Y146703D01*
X113622Y146904D01*
X113696Y147084D01*
X113727Y147242D01*
X113738Y147305D01*
X113749Y147358D01*
X113759Y147411D01*
Y147474D01*
X113749Y147591D01*
X113738Y147707D01*
X113685Y147929D01*
X113601Y148119D01*
X113505Y148278D01*
X113410Y148404D01*
X113336Y148499D01*
X113273Y148563D01*
X113263Y148584D01*
X113252D01*
X113157Y148668D01*
X113051Y148732D01*
X112829Y148848D01*
X112597Y148933D01*
X112385Y148985D01*
X112185Y149017D01*
X112100Y149028D01*
X112026D01*
X111973Y149038D01*
D02*
G37*
G36*
Y142730D02*
X111931D01*
X111899D01*
X111889D01*
X111730D01*
X111582Y142709D01*
X111308Y142656D01*
X111075Y142582D01*
X110885Y142508D01*
X110737Y142424D01*
X110674Y142381D01*
X110631Y142350D01*
X110589Y142318D01*
X110557Y142297D01*
X110547Y142286D01*
X110536Y142276D01*
X110452Y142191D01*
X110378Y142096D01*
X110262Y141917D01*
X110177Y141726D01*
X110124Y141547D01*
X110082Y141388D01*
X110071Y141314D01*
Y141261D01*
X110061Y141209D01*
Y141145D01*
X110071Y141018D01*
X110082Y140892D01*
X110135Y140670D01*
X110209Y140469D01*
X110304Y140300D01*
X110388Y140162D01*
X110462Y140067D01*
X110515Y140004D01*
X110536Y139993D01*
Y139983D01*
X110631Y139898D01*
X110726Y139835D01*
X110938Y139719D01*
X111149Y139645D01*
X111350Y139581D01*
X111530Y139550D01*
X111603Y139539D01*
X111678D01*
X111730Y139529D01*
X111773D01*
X111794D01*
X111804D01*
X111963Y139539D01*
X112111Y139550D01*
X112385Y139602D01*
X112628Y139687D01*
X112829Y139771D01*
X112914Y139814D01*
X112998Y139856D01*
X113062Y139898D01*
X113115Y139941D01*
X113157Y139972D01*
X113188Y139993D01*
X113199Y140015D01*
X113210D01*
X113305Y140110D01*
X113389Y140205D01*
X113463Y140300D01*
X113527Y140395D01*
X113622Y140596D01*
X113696Y140775D01*
X113727Y140934D01*
X113738Y140997D01*
X113749Y141050D01*
X113759Y141103D01*
Y141166D01*
X113749Y141283D01*
X113738Y141399D01*
X113685Y141621D01*
X113601Y141811D01*
X113505Y141969D01*
X113410Y142096D01*
X113336Y142191D01*
X113273Y142255D01*
X113263Y142276D01*
X113252D01*
X113157Y142360D01*
X113051Y142424D01*
X112829Y142540D01*
X112597Y142625D01*
X112385Y142677D01*
X112185Y142709D01*
X112100Y142720D01*
X112026D01*
X111973Y142730D01*
D02*
G37*
G36*
X109089Y136485D02*
X109046D01*
X109015D01*
X109004D01*
X108846D01*
X108698Y136464D01*
X108423Y136411D01*
X108180Y136337D01*
X107979Y136264D01*
X107905Y136221D01*
X107831Y136179D01*
X107768Y136137D01*
X107715Y136105D01*
X107673Y136073D01*
X107641Y136052D01*
X107631Y136042D01*
X107620Y136031D01*
X107535Y135947D01*
X107451Y135851D01*
X107324Y135672D01*
X107240Y135492D01*
X107176Y135312D01*
X107144Y135165D01*
X107123Y135048D01*
X107113Y135006D01*
Y134943D01*
X107123Y134784D01*
X107155Y134636D01*
X107187Y134488D01*
X107240Y134372D01*
X107282Y134266D01*
X107314Y134182D01*
X107345Y134140D01*
X107356Y134118D01*
X107462Y133981D01*
X107567Y133854D01*
X107683Y133749D01*
X107800Y133664D01*
X107905Y133601D01*
X107990Y133548D01*
X108043Y133516D01*
X108064Y133506D01*
X108243Y133432D01*
X108423Y133379D01*
X108592Y133347D01*
X108740Y133326D01*
X108867Y133305D01*
X108973Y133294D01*
X109036D01*
X109046D01*
X109057D01*
X109205Y133305D01*
X109342Y133315D01*
X109596Y133368D01*
X109807Y133442D01*
X109997Y133527D01*
X110145Y133611D01*
X110251Y133685D01*
X110283Y133717D01*
X110314Y133738D01*
X110325Y133759D01*
X110336D01*
X110420Y133844D01*
X110494Y133939D01*
X110621Y134129D01*
X110705Y134330D01*
X110758Y134509D01*
X110801Y134657D01*
X110811Y134731D01*
Y134784D01*
X110822Y134837D01*
Y135027D01*
X110801Y135143D01*
X110748Y135365D01*
X110663Y135555D01*
X110579Y135725D01*
X110494Y135851D01*
X110409Y135947D01*
X110357Y136010D01*
X110346Y136031D01*
X110336D01*
X110240Y136116D01*
X110135Y136179D01*
X109923Y136295D01*
X109702Y136380D01*
X109490Y136433D01*
X109300Y136464D01*
X109215Y136475D01*
X109142D01*
X109089Y136485D01*
D02*
G37*
%LPD*%
D35*
X229211Y19268D02*
G03*
X229211Y19268I-12759J0D01*
G01*
M02*
