G04*
G04 #@! TF.GenerationSoftware,Altium Limited,Altium Designer,23.4.1 (23)*
G04*
G04 Layer_Color=8388736*
%FSLAX44Y44*%
%MOMM*%
G71*
G04*
G04 #@! TF.SameCoordinates,119376F5-832C-499C-A5AA-40DF592A9E39*
G04*
G04*
G04 #@! TF.FilePolarity,Negative*
G04*
G01*
G75*
%ADD17P,0.8202X4X270.0*%
%ADD18C,0.2425*%
%ADD19C,0.2700*%
%ADD22R,2.5000X2.5000*%
%ADD23R,2.5000X2.5000*%
%ADD24R,1.7000X0.4000*%
%ADD25R,0.6500X0.5500*%
%ADD26R,0.4000X0.8100*%
%ADD27R,0.6200X0.6200*%
%ADD28R,0.4200X0.4600*%
%ADD29C,3.1000*%
G36*
X109954Y44764D02*
Y43764D01*
X105654D01*
Y46764D01*
X107954D01*
X109954Y44764D01*
D02*
G37*
G36*
X107959Y50264D02*
X105659D01*
Y53264D01*
X110959D01*
X107959Y50264D01*
D02*
G37*
G36*
X118714Y43764D02*
X114414D01*
Y44764D01*
X116414Y46764D01*
X118714D01*
Y43764D01*
D02*
G37*
G36*
Y50264D02*
X116414D01*
X114414Y52264D01*
Y53264D01*
X118714D01*
Y50264D01*
D02*
G37*
D17*
X112184Y48514D02*
D03*
D18*
X116836Y51917D02*
D03*
Y45111D02*
D03*
D19*
X107154Y45264D02*
D03*
X107159Y51764D02*
D03*
D22*
X197250Y220000D02*
D03*
X38750Y50500D02*
D03*
D23*
X197250Y28000D02*
D03*
X38750Y197500D02*
D03*
D24*
X170750Y54000D02*
D03*
Y64000D02*
D03*
Y74000D02*
D03*
Y84000D02*
D03*
Y94000D02*
D03*
Y104000D02*
D03*
Y114000D02*
D03*
Y124000D02*
D03*
Y134000D02*
D03*
Y144000D02*
D03*
Y154000D02*
D03*
Y164000D02*
D03*
Y174000D02*
D03*
Y184000D02*
D03*
Y194000D02*
D03*
X65250Y81500D02*
D03*
Y86500D02*
D03*
Y91500D02*
D03*
Y96500D02*
D03*
Y101500D02*
D03*
Y106500D02*
D03*
Y111500D02*
D03*
Y121500D02*
D03*
Y126500D02*
D03*
Y131500D02*
D03*
Y136500D02*
D03*
Y141500D02*
D03*
Y146500D02*
D03*
Y151500D02*
D03*
Y156500D02*
D03*
Y161500D02*
D03*
Y166500D02*
D03*
Y171500D02*
D03*
Y176500D02*
D03*
Y116500D02*
D03*
Y71500D02*
D03*
Y76500D02*
D03*
D25*
X132000Y89608D02*
D03*
Y98609D02*
D03*
X83064Y87628D02*
D03*
Y96629D02*
D03*
X122348Y98609D02*
D03*
Y89608D02*
D03*
X93064Y96629D02*
D03*
Y87628D02*
D03*
D26*
X102362Y85723D02*
D03*
X112362D02*
D03*
X107362Y97922D02*
D03*
D27*
X92610Y44220D02*
D03*
Y52220D02*
D03*
D28*
X123952Y50050D02*
D03*
Y44450D02*
D03*
D29*
X30110Y229000D02*
D03*
X155110Y19000D02*
D03*
X30110D02*
D03*
X155110Y229000D02*
D03*
M02*
