G04*
G04 #@! TF.GenerationSoftware,Altium Limited,Altium Designer,22.7.1 (60)*
G04*
G04 Layer_Color=32768*
%FSLAX44Y44*%
%MOMM*%
G71*
G04*
G04 #@! TF.SameCoordinates,97EA9571-4948-4CBB-981D-70F8AE3DB673*
G04*
G04*
G04 #@! TF.FilePolarity,Positive*
G04*
G01*
G75*
%ADD52C,0.0500*%
D52*
X30250Y500D02*
Y16500D01*
X38250Y500D02*
Y16500D01*
X30250Y500D02*
X38250D01*
X30250Y16500D02*
X38250D01*
X34250Y5750D02*
Y11250D01*
X31500Y8500D02*
X37000D01*
X-62500Y-130750D02*
Y-121750D01*
X-67000Y-126250D02*
X-58000D01*
X-68000Y-137750D02*
Y-114750D01*
X-57000Y-137750D02*
Y-114750D01*
X-68000Y-137750D02*
X-57000D01*
X-68000Y-114750D02*
X-57000D01*
X-69000Y-83500D02*
Y-71500D01*
Y-58500D01*
X-81095Y-71500D02*
X-69000D01*
X-57095D01*
X-90000Y-32500D02*
X-50000D01*
X-90000Y-110500D02*
Y-32500D01*
Y-110500D02*
X-50000D01*
Y-32500D01*
X0Y-100500D02*
Y-93000D01*
Y-85500D01*
X-7500Y-93000D02*
X0D01*
X7500D01*
X-50000Y-163000D02*
Y-78000D01*
Y-163000D02*
X50000D01*
Y-78000D01*
X-50000D02*
X50000D01*
X88000Y-110500D02*
Y-32500D01*
X48000Y-110500D02*
X88000D01*
X48000D02*
Y-32500D01*
X88000D01*
X69000Y-71500D02*
X80905D01*
X56905D02*
X69000D01*
Y-58500D01*
Y-83500D02*
Y-71500D01*
M02*
