M48
;Layer_Color=9474304
;FILE_FORMAT=4:4
METRIC
;TYPE=PLATED
T1F00S00C0.2000
T2F00S00C0.2032
T3F00S00C0.3048
T5F00S00C0.8600
T6F00S00C2.7500
%
T01
X00639500Y00103250
X00606750Y00064000
X00582750Y00081750
X00545500Y00080000
X00527750Y00057000
X00490416Y00091581
X00489000Y00106000
X00490416Y00120206
X00488816Y00137284
X00489812Y00145553
X00488542Y00150633
X00488023Y00157011
X00489056Y00165899
X00473202Y00165862
X00468250Y00169500
X00462750Y00146750
X00452000Y00156000
X00444000Y00137000
X00442699Y00118247
Y00105752
X00447500Y00093500
X00468288Y00093248
X00464055Y00086046
X00464175Y00069731
X00466349Y00118247
X00470720Y00131503
X00439000Y00174500
X00451250Y00187500
X00443250Y00203250
X00444500Y00222250
X00460250Y00210750
X00470770Y00218849
X00493250Y00223750
X00493000Y00207000
X00490728Y00190246
X00487810Y00240709
X00488096Y00252833
X00487906Y00264765
X00502349Y00264616
X00502900Y00276703
X00467223Y00256649
X00462647Y00238425
X00382250Y00234750
X00346513Y00235760
X00342971Y00265017
X00334711Y00274137
X00326898Y00257556
X00298753Y00259538
X00303684Y00238425
X00309848Y00235690
X00294740Y00222769
X00285342
X00291050Y00216975
Y00211959
X00285088Y00208037
X00285755Y00185563
X00264405Y00179753
X00260930Y00161646
X00287782Y00151384
X00271705Y00128575
X00275703Y00105072
Y00096913
X00254644Y00099334
X00238071Y00087811
X00235858Y00080486
X00252002Y00065937
X00256600Y00040495
X00267614Y00046216
X00285911Y00049440
X00296618Y00051190
X00327500Y00050750
X00351028Y00035052
X00314952Y00009079
X00283464Y00030734
X00322750Y00117750
X00326914Y00179069
X00348750Y00180000
X00401250Y00209500
X00383032Y00124714
X00371500Y00092000
X00412334Y00008393
X00464456Y00008734
X00580000Y00026750
X00595000Y00283750
X00560500Y00311000
X00365750Y00297250
X00308250Y00306250
X00282250Y00274000
X00285560Y00243270
X00256203Y00239150
X00236580Y00237705
X00231550Y00237854
Y00230261
X00236780Y00230028
X00236430Y00246628
X00231550Y00246777
Y00254261
X00236596Y00254270
X00234000Y00309500
X00269404Y00199815
X00238982Y00130447
X00227638Y00113593
X00210671Y00113828
X00203172Y00088524
X00206075Y00080944
X00215913Y00080783
X00225787Y00080792
X00227371Y00066461
X00209096Y00066654
X00217678Y00031242
X00199390Y00010668
X00149750Y00011000
X00121250Y00085750
X00120000Y00155000
X00125000
X00130000
X00135000
X00093750Y00169250
X00091435Y00209770
X00019000Y00163250
X00058500Y00057500
X00194000Y00136750
X00206000Y00203250
X00214750Y00274500
X00136750Y00339250
X00091250Y00312750
X00261000Y00340250
X00376500Y00337500
X00449500Y00347250
X00501030Y00330101
X00526879Y00330997
X00489250Y00313750
X00583000Y00341250
T02
X00624840Y00181356
X00626110Y00186436
Y00191516
X00627634Y00232424
X00622720Y00196000
X00614172Y00173228
X00611727Y00168365
X00612194Y00163285
X00614620Y00158527
X00613038Y00153412
X00613292Y00147824
X00603504Y00136398
X00598170Y00133858
X00593090
X00586754Y00134608
X00580613Y00132157
X00575533
X00569715Y00131356
X00570028Y00125476
Y00120396
X00573250Y00108500
X00578458Y00105929
X00583538Y00105871
X00587303Y00109290
X00590904Y00105675
X00595984
X00600302Y00109231
X00620786Y00124750
X00572362Y00152103
X00575970Y00160032
X00578104Y00179324
Y00184404
X00593090Y00205978
X00592074Y00250190
X00551539Y00250013
X00519176Y00263652
X00502539Y00252879
X00502642Y00240812
X00504190Y00189992
X00517144Y00194056
X00517652Y00171196
Y00166370
X00498448Y00167397
X00502369Y00146105
X00518210Y00141756
X00517890Y00130048
X00521970Y00125476
Y00120396
X00516890Y00118110
X00523886Y00106172
X00527912Y00101611
Y00096531
X00523021Y00094000
X00516940Y00081090
X00510560Y00074094
X00501006Y00097453
X00501740Y00124086
X00473000Y00126000
Y00120920
X00472500Y00102540
Y00097460
X00438150Y00109460
Y00114540
X00390906Y00113030
Y00108030
Y00103030
Y00098030
X00368554Y00118872
X00362781
X00356082
X00346464Y00140152
X00384556Y00137668
X00312674Y00131572
X00313690Y00161544
X00305269Y00160209
X00296238Y00186508
X00262528Y00184439
X00251377Y00184908
X00240250Y00194860
X00239000Y00207000
X00332994Y00196596
X00303022Y00089154
X00287020Y00079502
X00307848Y00047498
X00471756Y00146550
X00472892Y00189994
X00469392Y00195326
X00485394Y00194564
X00461010Y00279146
X00456184Y00275082
X00454994Y00291418
X00465582Y00284480
X00415567Y00265587
X00219550Y00195352
X00221488Y00186690
X00216503Y00172161
X00211827Y00165816
X00219550Y00142076
X00163577Y00195352
X00139038Y00182289
X00117637Y00200023
X00128895Y00217970
X00094113Y00225012
X00086448Y00220095
Y00215015
X00082138Y00231012
X00077768Y00239762
X00080056Y00244659
X00081015Y00252523
X00088577Y00255281
X00092002Y00251158
X00100750Y00257000
X00067091Y00262592
X00061498Y00257952
X00066894Y00247543
X00067139Y00237822
X00067091Y00222512
X00067034Y00217432
X00067639Y00209509
X00057137Y00279445
X00083704Y00279989
X00046000Y00093000
X00080000Y00048000
X00069100Y00036100
X00070500Y00022500
X00100500
X00099100Y00036100
X00110000Y00048000
X00132334Y00100213
X00142428Y00106428
T03
X00395250Y00059125
X00436750
X00416000Y00038375
Y00079875
Y00280375
X00395250Y00301125
X00436750
X00194750
X00174000Y00280375
X00153250Y00301125
Y00059125
X00194750
X00174000Y00038375
Y00079875
Y00321875
X00416000
T05
X00084500Y00110000
Y00130000
T06
X00620000Y00030000
X00030000
Y00330000
X00620000
M30
