G04*
G04 #@! TF.GenerationSoftware,Altium Limited,Altium Designer,20.0.13 (296)*
G04*
G04 Layer_Color=16711935*
%FSLAX44Y44*%
%MOMM*%
G71*
G01*
G75*
%ADD14C,0.1000*%
%ADD226C,0.0254*%
D14*
X840000Y442000D02*
X842588Y442341D01*
X845000Y443340D01*
X847071Y444929D01*
X848660Y447000D01*
X849659Y449412D01*
X850000Y452000D01*
Y462000D02*
X849659Y464588D01*
X848660Y467000D01*
X847071Y469071D01*
X845000Y470660D01*
X842588Y471659D01*
X840000Y472000D01*
X760000D02*
X757412Y471659D01*
X755000Y470660D01*
X752929Y469071D01*
X751340Y467000D01*
X750341Y464588D01*
X750000Y462000D01*
Y452000D02*
X750341Y449412D01*
X751340Y447000D01*
X752929Y444929D01*
X755000Y443340D01*
X757412Y442341D01*
X760000Y442000D01*
X850000Y452000D02*
Y462000D01*
X750000Y452000D02*
Y462000D01*
X760000Y442000D02*
X840000D01*
X760000Y472000D02*
X840000D01*
D226*
X1070000Y0D02*
X1072477Y103D01*
X1074938Y409D01*
X1077365Y918D01*
X1079741Y1626D01*
X1082051Y2527D01*
X1084278Y3616D01*
X1086408Y4885D01*
X1088426Y6326D01*
X1090318Y7928D01*
X1092072Y9682D01*
X1093674Y11574D01*
X1095115Y13592D01*
X1096384Y15722D01*
X1097473Y17949D01*
X1098374Y20259D01*
X1099082Y22636D01*
X1099591Y25062D01*
X1099898Y27523D01*
X1100000Y30000D01*
X30000Y600000D02*
X27523Y599898D01*
X25062Y599591D01*
X22635Y599082D01*
X20259Y598374D01*
X17949Y597473D01*
X15722Y596384D01*
X13592Y595115D01*
X11574Y593674D01*
X9682Y592072D01*
X7928Y590318D01*
X6326Y588426D01*
X4885Y586409D01*
X3616Y584278D01*
X2527Y582051D01*
X1626Y579741D01*
X918Y577365D01*
X409Y574938D01*
X103Y572477D01*
X0Y570000D01*
X1100000D02*
X1099898Y572477D01*
X1099591Y574938D01*
X1099082Y577365D01*
X1098375Y579741D01*
X1097473Y582051D01*
X1096384Y584278D01*
X1095115Y586409D01*
X1093674Y588426D01*
X1092072Y590318D01*
X1090319Y592072D01*
X1088426Y593674D01*
X1086408Y595115D01*
X1084278Y596384D01*
X1082051Y597473D01*
X1079741Y598374D01*
X1077365Y599082D01*
X1074938Y599591D01*
X1072477Y599898D01*
X1070000Y600000D01*
X0Y30000D02*
X103Y27523D01*
X409Y25062D01*
X918Y22635D01*
X1626Y20259D01*
X2527Y17949D01*
X3616Y15722D01*
X4885Y13592D01*
X6326Y11574D01*
X7928Y9682D01*
X9682Y7928D01*
X11574Y6326D01*
X13592Y4885D01*
X15722Y3616D01*
X17949Y2527D01*
X20259Y1626D01*
X22636Y918D01*
X25062Y409D01*
X27523Y103D01*
X30000Y0D01*
Y-0D02*
X1070000Y0D01*
X-0Y30000D02*
X0Y570000D01*
X30000Y600000D02*
X1070000Y600000D01*
X1100000Y570000D02*
X1100000Y30000D01*
M02*
