M48
;Layer_Color=9474304
;FILE_FORMAT=4:4
METRIC
;TYPE=PLATED
T1F00S00C0.2032
T2F00S00C0.2540
T5F00S00C3.0000
%
T01
X00577750Y00112750
Y00124750
Y00136750
X00578250Y00148750
X00578500Y00160750
X00578250Y00168750
X00590559Y00170793
X00601250Y00169000
X00609000Y00168750
X00608000Y00181500
X00601818Y00182318
X00594385Y00198224
X00602000Y00220500
X00592250Y00227750
X00591750Y00234000
X00591000Y00240750
X00608251Y00238672
X00608179Y00243624
X00608500Y00248567
X00622458Y00259321
X00622600Y00264273
X00622606Y00269226
X00622401Y00274179
X00632250Y00273000
X00632500Y00279250
X00633000Y00285750
X00632750Y00295000
X00632250Y00305500
X00622100Y00305194
Y00300242
X00621809Y00295297
X00621350Y00284750
X00622100Y00310147
X00625150Y00317600
X00576750Y00308750
X00577750Y00296750
X00578250Y00284750
Y00272750
X00577500Y00260750
X00578000Y00252798
X00564993Y00248807
X00564383Y00256865
X00558978Y00245251
X00558102Y00234605
X00578250Y00224750
Y00212750
X00567750Y00202000
X00558070Y00188320
X00595000Y00156500
X00601000
X00606500Y00156750
X00621850Y00157250
Y00152250
X00621750Y00146500
X00620750Y00136750
Y00124750
Y00112750
X00633250Y00125000
X00635000Y00135750
X00628250Y00160750
X00621839Y00164750
X00624500Y00172250
X00634567Y00171500
X00634500Y00189048
X00627000
X00628500Y00205500
Y00212750
X00626250Y00232366
X00622500Y00237000
X00629000Y00243250
X00632933Y00251000
X00632250Y00261000
X00568250Y00357750
X00633450Y00077950
X00520477Y00125500
X00515311
X00510358
X00505227
X00512727Y00131250
X00513186Y00177976
X00512727Y00212250
X00500177Y00205000
X00492806Y00201888
X00480727Y00202000
X00474744Y00177280
X00450964Y00182555
X00449477Y00173000
X00437727Y00187500
X00442227Y00192750
X00432561Y00193681
X00434727Y00208750
X00415057Y00202806
X00401062Y00204991
X00393215Y00211599
X00388926Y00200382
X00349977Y00200000
X00337477Y00199250
X00333477Y00191250
X00357477Y00182250
X00343477Y00150000
X00317758Y00150015
X00283675Y00150260
X00252754Y00148048
X00252000Y00156750
X00230500Y00160112
X00230000Y00152250
X00223500Y00147250
X00220698Y00142750
X00226500Y00139000
X00220932Y00127604
X00222750Y00120250
X00222800Y00115226
Y00110274
X00222750Y00105250
X00239250Y00106750
X00238750Y00111750
X00255477Y00110750
X00261227Y00116500
X00260982Y00127133
X00252000Y00131750
X00250750Y00122750
X00208000
X00206750Y00142750
X00207725Y00164507
X00203000Y00174702
X00208250Y00190750
X00197000Y00191750
X00204750Y00200000
X00204500Y00205000
X00204202Y00210000
X00204754Y00215000
X00204500Y00220000
X00204750Y00230000
X00204500Y00240000
X00204500Y00250000
X00189250Y00250000
X00201500Y00263750
X00208250Y00262750
X00206500Y00268000
X00207750Y00275366
X00220000Y00279000
X00220250Y00270750
X00221000Y00263500
X00232750Y00265500
X00239250Y00267250
X00236500Y00271500
X00238250Y00279000
X00234250Y00285000
X00225250Y00288000
X00227000Y00297882
X00222000Y00297750
X00207000Y00298685
X00191973Y00298659
X00177117Y00296495
X00172170Y00296750
X00167217
X00162023
X00178250Y00287000
Y00268500
X00184001Y00319757
X00178477Y00331500
X00178608Y00336492
Y00341445
X00178727Y00346500
X00178849Y00351541
X00178845Y00356539
X00179018Y00361489
X00207227Y00346500
X00205750Y00319798
X00162023Y00324750
X00240977Y00349727
X00250500Y00275000
X00251000Y00262750
X00256750Y00259750
X00261250Y00253893
X00251250
X00238827Y00256298
X00228250
X00225500Y00250000
Y00240000
Y00232750
X00225469Y00220050
X00225500Y00209750
Y00200000
X00221750Y00179500
X00221250Y00162000
X00221500Y00155500
X00178477Y00145000
X00182477Y00108000
X00205750Y00096178
X00205046Y00091258
X00205044Y00086244
X00200000Y00083298
X00202023Y00061000
X00206976
X00212000Y00060770
X00197000Y00060770
X00191976Y00060750
X00187023
X00182071Y00060840
X00179000Y00052250
X00169750
X00167250Y00045750
X00169727Y00039500
X00165924Y00035500
X00178769Y00029334
X00189500Y00032750
X00217477Y00030750
X00227000Y00062250
X00258500Y00054500
X00266727Y00029000
X00288227Y00022000
X00308973Y00031367
X00315531Y00026297
X00322250Y00017000
X00336977Y00030523
X00357727Y00048750
X00355271Y00058729
X00362000Y00060250
X00362977Y00083250
X00357977
X00359477Y00099250
X00360512Y00106763
X00351227Y00104750
X00336918Y00090803
X00336977Y00083000
X00327977Y00068250
X00309439Y00061091
X00287434Y00063445
X00283853Y00067125
X00280350Y00070627
X00276733Y00074276
X00262928Y00086000
X00264500Y00090750
X00269477Y00095750
X00300477Y00102584
X00318727Y00094000
X00377977Y00083250
X00391410Y00083626
X00397977Y00083000
X00407977Y00083250
X00404500Y00057250
X00387977Y00060250
X00382727Y00056000
X00389500Y00022500
X00403750
X00363806Y00017444
X00452500Y00022500
X00444500Y00032500
X00444000Y00052500
X00459141Y00043652
X00452977Y00083836
X00437890
X00437500Y00110250
X00443000Y00110394
X00447953
X00453250Y00110500
X00467977Y00106734
X00473000Y00106750
X00477953
X00482977Y00106767
X00482981Y00089228
X00468106Y00083836
X00427727Y00104500
X00429500Y00113500
X00400477Y00128500
X00366848Y00140988
X00380977Y00101750
X00418420Y00183484
X00417977Y00273000
X00423000
X00427953
X00432977
X00455480Y00274342
X00453622Y00294333
X00457124Y00297835
X00462977Y00297750
X00468163Y00297542
X00477989Y00297767
X00482977Y00297750
X00488500Y00294250
X00487477Y00286000
X00500227Y00283750
X00508540Y00281317
X00523000Y00296750
X00519477Y00339000
X00527227Y00353500
X00435477Y00338000
X00413163Y00339128
X00411477Y00295250
X00417977Y00298000
X00415227Y00289750
X00414727Y00283250
X00409565Y00283000
X00404426
X00399227Y00283250
X00402977Y00297750
X00388025Y00297748
X00383079Y00298000
X00378126
X00372477
X00372977Y00319750
X00367954Y00320250
X00363001
X00357977Y00319750
X00354000Y00283500
X00344477Y00255000
X00327487Y00249740
X00313477Y00248000
X00311144Y00253000
X00304477Y00243000
X00292477Y00233000
X00275164Y00247164
X00268000Y00245750
X00254139Y00230413
X00256357Y00198292
X00260168Y00195697
X00252447Y00195664
X00299227Y00183500
X00298000Y00286750
X00301500Y00304250
X00319000Y00302750
X00336727Y00351500
X00352406Y00237430
X00378062Y00235353
X00384154Y00255366
X00432977Y00297750
X00442977Y00295250
X00447977Y00297750
X00474227Y00282250
X00542250Y00231000
X00549500Y00208000
X00555655Y00198382
X00555359Y00192465
X00543500Y00168500
X00165727Y00186250
X00167549Y00205485
X00181766Y00205167
X00153995Y00206970
X00145283Y00211187
X00144750Y00222000
X00144477Y00249250
X00142227Y00269000
X00140651Y00282117
X00147750Y00283750
X00144000Y00289000
X00132000Y00298000
X00120750Y00297000
X00116504Y00288822
X00109750Y00294500
X00099750Y00289750
X00098000Y00301750
X00097750Y00309500
X00087250Y00307750
X00089703Y00296250
X00084712Y00296288
X00079250Y00296000
X00065750Y00294250
X00052974Y00292180
X00052975Y00287227
Y00282274
X00053052Y00277321
X00066227Y00277750
X00066367Y00257239
X00066288Y00252232
X00066129Y00246689
X00066241Y00241737
X00066250Y00236750
X00079491Y00231844
X00084342Y00232842
X00087845Y00236345
X00091211Y00239978
X00095875Y00238875
X00095750Y00212000
X00112727Y00210000
Y00215750
X00117345Y00218135
X00117220Y00212914
X00117195Y00207295
X00127201Y00201293
X00134477Y00198250
X00140362Y00193749
X00141959Y00185216
X00120750Y00176250
X00119477Y00234000
X00104070Y00268329
X00099111Y00268235
X00092250Y00264500
X00085488Y00260612
X00080250Y00263250
X00080000Y00270500
X00087000Y00270750
X00090750Y00278750
X00082750Y00320202
X00073000Y00320202
X00059250Y00329500
X00064977Y00354500
X00093227Y00352584
X00098908Y00356230
X00094727Y00360750
X00113456Y00362979
X00120560Y00362101
X00121025Y00356427
X00118401Y00368604
X00111477Y00372287
X00131477Y00367750
X00124118Y00342912
X00117602Y00336625
X00147000Y00325000
X00152024Y00325000
X00156977
X00157255Y00360554
X00039250Y00297500
X00069977Y00199500
X00084250Y00075000
X00096267Y00080250
X00102000Y00082250
X00107000Y00082750
X00122250Y00082863
X00137000
X00152000
X00118500Y00060250
X00112000Y00059750
X00120727Y00039000
X00125892Y00034892
X00130727Y00039000
X00115250Y00031750
X00068500Y00061250
X00032000Y00074750
T02
X00037628Y00005833
X00043451Y00015919
X00057477Y00006000
X00080477
X00103477
X00126477
X00149477
X00172477
X00195477
X00218477
X00241477
X00264477
X00287477
X00310477
X00333477
X00356477
X00379477
X00402477
X00425477
X00448477
X00471477
X00494477
X00517477
X00540477
X00563477
X00612314Y00005808
X00606490Y00015895
Y00027541
X00612314Y00037628
X00622400Y00043451
X00634047
X00644134Y00037628
X00614139Y00060628
Y00083628
X00569727Y00077000
X00563477Y00373977
X00612347Y00374169
X00606524Y00364083
Y00352436
X00612347Y00342349
X00622434Y00336526
X00634081
X00644167Y00342349
X00540477Y00373977
X00517477
X00494477
X00471477
X00448477
X00425477
X00402477
X00379477
X00356477
X00333477
X00310477
X00287477
X00264477
X00241477
X00218477
X00195477
X00172477
X00257800Y00331749
X00299300
X00278550Y00310999
Y00352499
X00499850Y00089749
X00541350
X00520600Y00068999
Y00110499
X00006000Y00102495
X00005584Y00087500
X00006000Y00056495
X00005808Y00037653
X00015894Y00043476
X00027541
X00037628Y00037653
X00043451Y00027566
X00006000Y00125495
Y00148495
Y00171495
Y00194495
X00005704Y00241508
X00006000Y00263495
Y00286495
X00006312Y00328803
X00005808Y00342324
X00015894Y00336501
X00027541
X00037628Y00342324
X00043451Y00352411
Y00364058
X00037628Y00374144
X00057477Y00373977
X00079241Y00374222
X00103477Y00373977
X00126477
X00156477Y00374000
T05
X00278550Y00331749
X00520600Y00089749
M30
