M48
;Layer_Color=9474304
;FILE_FORMAT=4:4
METRIC
;TYPE=PLATED
T01F00S00C0.2032
T02F00S00C0.2540
T04F00S00C0.8000
T05F00S00C0.9000
T06F00S00C1.0200
T07F00S00C1.7000
T08F00S00C2.7500
T09F00S00C3.0000
T10F00S00C3.2000
%
T01
X00086000Y00063000
Y00105000
X00149000Y00104000
Y00063000
X00247000Y00107000
X00247000Y00115000
X00301151Y00080781
X00314960Y00079003
X00320040
X00325356Y00081815
X00329952Y00078489
X00340989Y00074761
X00337456Y00065270
X00327500Y00065345
X00322500
X00317500
X00312172Y00065281
X00347478
X00352500Y00065345
X00357500
X00362500
X00367798Y00065281
X00365040Y00079003
X00359960
X00354844Y00079251
X00381258Y00083466
X00329600Y00142014
X00323106Y00140646
X00695764Y00231071
X00705764
Y00241071
X00695764
X00561326Y00234203
Y00211424
X00541186Y00224818
X00522500Y00233192
X00519981Y00199361
X00515000Y00333000
X00536000Y00322000
X00531986Y00350985
X00539000Y00378000
X00540000Y00386466
Y00391600
X00515000Y00371000
X00414000
X00409000Y00366000
X00403000
X00399000Y00371000
X00389000Y00367000
X00372000
X00349000Y00343000
X00397681Y00330910
X00404000Y00331000
X00409673Y00333046
X00416000Y00334000
X00453750Y00301000
Y00291000
X00463750
Y00301000
X00573000
X00566000Y00427000
X00565000Y00461000
X00548000
X00533000Y00472000
X00521000Y00504000
X00531000Y00520000
X00539000Y00514000
X00495000Y00506000
X00469614Y00506386
X00471000Y00513000
X00471137Y00518090
X00460000Y00518000
X00454000Y00517000
X00451034Y00520966
X00446000Y00523000
X00423000Y00482000
X00478000Y00467000
X00484000
X00481000Y00461000
X00291000Y00467000
X00272000Y00480000
X00235000Y00375000
X00319000Y00312000
X00287000Y00280000
X00351000Y00267000
X00356000Y00265000
X00361000Y00262000
X00367000Y00262000
X00341596Y00167500
X00336591Y00153090
X00331836Y00147907
X00322977Y00172103
X00317430Y00171590
X00312500Y00167500
X00327500Y00177500
X00084000Y00178000
X00086000Y00194000
X00053000Y00270000
X00173000Y00293000
X00201000Y00478000
X00204000Y00534991
X00211000Y00549000
X00184696Y00551238
X00181000Y00555000
X00176047
X00171860Y00551686
X00168477Y00548000
X00163524
X00160091Y00551571
X00156476Y00548184
X00151523
X00148046Y00551711
X00144476Y00548277
X00139523
X00136740Y00552445
X00132476Y00549000
X00127523
X00120000Y00550000
X00086000Y00581000
X00186958Y00573419
X00192037Y00573353
X00187813Y00589374
X00186105Y00594158
X00345000Y00580000
X00386000Y00566000
X00404000Y00562000
X00409508Y00561801
X00427000Y00559000
X00442000
X00457000Y00558000
X00462000
X00466953
X00472000
X00477000
X00481953
X00487000Y00557721
X00492000Y00558000
X00497047Y00557997
X00502000Y00558000
X00517548
X00532000
X00554000Y00555000
X00528000Y00587000
X00483000Y00592000
X00433000
T02
X00029997Y00075613
X00046886Y00083499
X00050086Y00094999
X00029994Y00106477
X00029989Y00119617
X00057000Y00130000
X00050080Y00139005
X00206000Y00140000
X00200000Y00100000
X00192071Y00085038
Y00072338
Y00059638
Y00046938
Y00034238
Y00021538
X00163000Y00020000
X00101000Y00018000
X00224000Y00013353
X00238807
X00254045Y00021538
Y00034238
Y00046938
Y00059638
Y00072338
Y00085038
X00276000Y00084863
X00291000Y00082503
X00293339Y00110247
X00275000Y00109003
X00276683Y00133504
X00286000Y00139003
X00294000Y00137000
X00316040Y00135324
X00313000Y00115978
X00371385Y00118503
X00369000Y00132000
X00395569Y00030786
X00408000Y00040000
X00445000Y00021000
X00514997Y00035368
X00606270Y00031680
X00538841Y00120000
X00242812Y00096000
X00233000
X00224000Y00107000
X00285487Y00051997
X00285609Y00037312
X00275484Y00016052
X00651320Y00023000
X00652000Y00046143
X00675904Y00065643
X00660000Y00114000
X00649000Y00124000
X00637000Y00130000
X00628000
X00654000Y00141000
X00673000
X00722000Y00138000
X00731000Y00127000
Y00121000
X00761000Y00126000
X00782000
X00790000Y00160000
Y00180000
Y00220000
Y00240000
Y00260000
Y00280000
X00779000Y00286000
X00760000Y00280126
Y00300126
X00790000Y00300000
Y00320000
Y00340000
Y00360000
X00786000Y00374000
X00776000
X00770000Y00360000
X00750000
X00730000
Y00340000
X00710000
X00699000Y00332000
X00690000Y00340000
Y00360000
X00670000
Y00380000
X00690000
X00710000
X00730000
X00750000
Y00340000
X00770000
X00710000Y00360000
X00700000Y00420000
X00680000
X00660000
X00640000
X00616000Y00429000
X00635000Y00465000
X00640067Y00517069
Y00524069
Y00531069
X00650067
Y00524069
Y00517069
X00718731Y00510433
X00725732
X00732731
Y00500433
X00725732
X00718731
X00742650Y00496750
X00755350
X00767650
X00780350
X00790000Y00510000
Y00530000
X00770000
Y00510000
X00750000Y00520000
X00755350Y00468750
X00767650
X00780350
X00790000Y00450000
Y00429000
X00781000Y00429078
X00772000Y00429000
X00760000Y00420000
X00740000
X00720000
X00710000Y00460000
X00742650Y00468750
X00650000Y00380000
X00645000Y00327621
X00628822Y00328556
X00614000Y00341000
X00665037Y00332087
X00650000Y00280126
X00662250Y00255616
X00668000Y00244000
X00665018Y00236224
X00667443Y00210390
X00686077Y00207992
X00696882Y00204831
X00736697Y00205082
X00720403Y00221568
X00726514Y00228703
Y00243556
X00720264Y00250435
X00711000Y00265000
X00691000Y00266000
X00686330Y00255502
X00636275Y00249028
X00635547Y00191353
X00692000Y00160000
X00714341Y00161829
X00732000Y00143000
X00753000
X00750000Y00160000
X00756462Y00257020
X00730000Y00280126
X00723892Y00295359
X00600000Y00300126
Y00260126
Y00240126
Y00220126
Y00200126
Y00180126
Y00160000
X00590000
X00564876Y00186418
X00538233Y00188468
X00509108Y00186957
X00477394Y00190949
X00483500Y00206500
X00488000Y00222500
X00482445Y00227000
X00479500Y00237500
X00485000Y00242500
X00492000Y00242000
X00476494Y00266042
X00476184Y00272750
X00466958Y00268042
X00465000Y00258141
X00452500Y00262500
X00441000Y00245500
X00426000Y00237000
X00429000Y00222085
X00395000Y00222500
Y00214171
X00377500Y00202500
X00361765Y00214156
X00362165Y00221219
X00364420Y00229453
X00360458Y00235777
X00363219Y00244257
X00370084Y00240295
X00370133Y00249579
X00385000Y00241000
X00353755Y00227476
X00354002Y00218537
X00324475Y00198500
X00310000Y00184300
X00298000
X00286000
X00274000Y00198500
X00274000Y00150000
X00288804Y00145545
X00306000Y00167700
X00247000Y00150000
X00230000Y00153500
X00226000Y00167700
X00214000
X00256185Y00246924
X00260258Y00253071
X00266331Y00258552
X00270404Y00245591
X00271000Y00405000
X00276095Y00471838
X00283133Y00465505
X00284000Y00522000
X00273000
X00264000Y00523500
X00296000Y00522000
X00308000
X00328328Y00481672
Y00452328
X00357673Y00452328
Y00481672
X00368000Y00381000
X00378058Y00380829
X00384027
X00394000Y00381000
X00383969Y00364000
X00378000
X00433000Y00355000
X00457346Y00350000
X00473470Y00359169
X00468100Y00386500
X00475500Y00393500
X00468500Y00407516
X00474500Y00443900
X00483000Y00442500
X00515500Y00433500
X00523900Y00441500
X00525000Y00423000
X00523900Y00411500
X00522500Y00403000
X00521000Y00378056
X00509121Y00381000
X00503000Y00386000
X00493000Y00388500
X00505000Y00340500
X00499690Y00321000
X00483609Y00313609
X00484500Y00289881
X00499525Y00281500
X00519192Y00312192
X00548000Y00332000
X00560000
X00559432Y00366468
X00547588Y00374342
X00560000Y00411000
X00580000Y00420000
Y00440000
Y00460000
X00575000Y00474000
X00580000Y00480000
X00580000Y00500000
X00580000Y00520000
X00553241Y00503721
X00543000Y00504000
X00535000Y00490000
X00529000Y00482000
X00548000
X00566000Y00469000
X00609196Y00465072
X00607000Y00429000
X00598000
X00507603Y00484603
X00533000Y00535000
X00427100Y00420500
X00413100Y00417500
X00415077Y00410664
Y00404695
X00413000Y00397000
X00427100Y00394500
X00466000Y00328000
X00433000Y00291000
X00426500Y00282899
X00410000Y00275957
X00412000Y00292741
X00411657Y00303626
X00403000Y00299000
X00407025Y00190525
X00405649Y00160567
X00425160Y00177000
X00432801Y00174980
X00452000Y00196000
X00464500Y00201500
X00458577Y00156139
X00487981Y00155684
X00533721Y00157507
X00542131Y00270131
X00562000Y00263000
X00202545Y00263277
X00195545
X00188545
Y00273277
X00195545
X00202545
X00182042Y00201868
X00174042
X00166042
X00158042
X00161958Y00184432
X00153958
X00156564Y00178304
X00151750Y00172000
X00158042Y00167567
X00166042
X00174042
X00182042
X00177958Y00184432
X00169958
Y00150133
X00161958
X00153958
X00177839Y00150269
X00210000Y00153500
X00121750Y00225000
X00101000Y00204250
X00080250Y00225000
X00069000Y00247000
X00061000Y00250000
X00060792Y00266052
X00076830Y00264097
X00101000Y00245750
X00091039Y00315120
X00083302Y00329883
X00076218Y00324810
X00078581Y00343913
X00106764Y00337988
X00118770Y00338067
X00113143Y00330911
X00112523Y00320935
X00123998Y00311000
X00132000
X00140208Y00332452
X00132998Y00378000
X00127483Y00383802
X00138546Y00384278
X00110695Y00386271
X00095807Y00385609
X00103940Y00366116
X00112847Y00367598
X00117782Y00373203
X00109000Y00411000
X00078433Y00419132
X00077808Y00402721
X00030659Y00401443
X00041748Y00371447
X00036823Y00362757
X00021181Y00315540
X00070144Y00307759
X00021382Y00235091
X00013000Y00224000
X00029990Y00194485
X00029997Y00163613
X00029988Y00150483
X00050086Y00182999
X00039357Y00443785
X00036978Y00497317
X00029886Y00505158
X00061329Y00502061
X00078415Y00491975
X00086751Y00473443
X00095574Y00466241
X00098770Y00459301
X00084421Y00459010
X00105718Y00469962
X00111561Y00464744
X00103017Y00479265
X00109859Y00487308
X00104138Y00496509
X00103294Y00508318
X00100739Y00515616
X00135777Y00472327
X00152000Y00432000
X00199385Y00461902
X00196957Y00469184
X00180000Y00523500
X00178000Y00573000
X00135274Y00573671
X00107112Y00562656
X00106386Y00545291
X00204900Y00552500
X00264000Y00569000
X00272000
X00284000
X00296000
X00308000
X00320000
X00580000Y00560000
X00580000Y00540000
X00583000Y00586000
X00603000
X00635000Y00565000
X00680680Y00562433
X00687680
X00694680
Y00552433
X00687680
X00680680
X00740000Y00590000
T04
X00632500Y00276000
X00607500
X00607000Y00498500
Y00533500
T05
X00462850Y00120300
X00488250Y00107600
X00551750
X00577150Y00120300
Y00145500
X00551750
X00526350
X00500950
X00475550
X00462850Y00170900
X00488250
X00513650
X00539050
X00564450
T06
X00453700Y00041400
X00479100
X00560900
X00586300
T07
X00439355Y00112500
X00600645
T08
X00035000Y00035000
X00765000
X00035000Y00565000
X00765000
T09
X00343000Y00467000
X00101000Y00225000
T10
X00462850Y00082000
X00577150
M30
