G04*
G04 #@! TF.GenerationSoftware,Altium Limited,Altium Designer,21.7.2 (23)*
G04*
G04 Layer_Color=1930808*
%FSLAX44Y44*%
%MOMM*%
G71*
G04*
G04 #@! TF.SameCoordinates,7C38C3A3-C4E6-443E-8540-10D383AE158C*
G04*
G04*
G04 #@! TF.FilePolarity,Positive*
G04*
G01*
G75*
%ADD15C,0.1000*%
%ADD137C,0.0500*%
D15*
X750000Y150000D02*
Y160000D01*
X745000Y155000D02*
X755000D01*
X340500Y16250D02*
Y26250D01*
X335500Y21250D02*
X345500D01*
D137*
X205500Y148000D02*
X205186Y150487D01*
X204263Y152818D01*
X202790Y154846D01*
X200858Y156443D01*
X198590Y157511D01*
X196128Y157980D01*
X193626Y157823D01*
X191242Y157048D01*
X189126Y155705D01*
X187410Y153878D01*
X186202Y151681D01*
X185579Y149253D01*
Y146747D01*
X186202Y144319D01*
X187410Y142122D01*
X189126Y140295D01*
X191242Y138952D01*
X193626Y138177D01*
X196128Y138020D01*
X198590Y138489D01*
X200858Y139557D01*
X202790Y141154D01*
X204263Y143182D01*
X205186Y145513D01*
X205500Y148000D01*
X203000Y213000D02*
X202594Y215435D01*
X201418Y217607D01*
X199602Y219279D01*
X197341Y220271D01*
X194881Y220474D01*
X192487Y219868D01*
X190420Y218518D01*
X188904Y216570D01*
X188102Y214234D01*
Y211765D01*
X188904Y209430D01*
X190420Y207482D01*
X192487Y206132D01*
X194881Y205526D01*
X197341Y205730D01*
X199602Y206721D01*
X201418Y208393D01*
X202594Y210565D01*
X203000Y213000D01*
X200500Y194000D02*
X200186Y196487D01*
X199263Y198818D01*
X197790Y200846D01*
X195858Y202443D01*
X193590Y203511D01*
X191128Y203980D01*
X188626Y203823D01*
X186242Y203048D01*
X184126Y201705D01*
X182410Y199878D01*
X181202Y197681D01*
X180579Y195253D01*
Y192747D01*
X181202Y190319D01*
X182410Y188122D01*
X184126Y186295D01*
X186242Y184952D01*
X188626Y184177D01*
X191128Y184020D01*
X193590Y184489D01*
X195858Y185557D01*
X197790Y187155D01*
X199263Y189182D01*
X200186Y191513D01*
X200500Y194000D01*
X737750Y123500D02*
X737436Y125987D01*
X736513Y128317D01*
X735040Y130345D01*
X733108Y131943D01*
X730840Y133011D01*
X728378Y133480D01*
X725876Y133323D01*
X723492Y132548D01*
X721376Y131205D01*
X719660Y129378D01*
X718452Y127181D01*
X717829Y124753D01*
Y122247D01*
X718452Y119819D01*
X719660Y117622D01*
X721376Y115795D01*
X723492Y114452D01*
X725876Y113677D01*
X728378Y113520D01*
X730840Y113989D01*
X733108Y115057D01*
X735040Y116655D01*
X736513Y118682D01*
X737436Y121013D01*
X737750Y123500D01*
X589050Y30499D02*
X588938Y33017D01*
X588605Y35517D01*
X588051Y37976D01*
X587283Y40378D01*
X586305Y42702D01*
X585126Y44930D01*
X583754Y47046D01*
X582201Y49032D01*
X580478Y50873D01*
X578600Y52554D01*
X576580Y54063D01*
X574434Y55388D01*
X572180Y56518D01*
X569835Y57444D01*
X567418Y58159D01*
X564946Y58657D01*
X562440Y58936D01*
X559920Y58992D01*
X557404Y58824D01*
X554913Y58436D01*
X552466Y57828D01*
X550082Y57007D01*
X547780Y55978D01*
X545578Y54749D01*
X543494Y53331D01*
X541542Y51734D01*
X539740Y49971D01*
X538100Y48056D01*
X536637Y46003D01*
X535360Y43829D01*
X534280Y41551D01*
X533406Y39186D01*
X532745Y36753D01*
X532301Y34271D01*
X532078Y31759D01*
Y29238D01*
X532301Y26727D01*
X532745Y24245D01*
X533406Y21812D01*
X534280Y19447D01*
X535360Y17168D01*
X536636Y14994D01*
X538100Y12941D01*
X539740Y11026D01*
X541542Y9263D01*
X543493Y7666D01*
X545578Y6248D01*
X547780Y5020D01*
X550082Y3991D01*
X552466Y3169D01*
X554913Y2562D01*
X557404Y2173D01*
X559920Y2006D01*
X562440Y2061D01*
X564946Y2340D01*
X567418Y2838D01*
X569835Y3554D01*
X572180Y4480D01*
X574434Y5609D01*
X576580Y6934D01*
X578600Y8443D01*
X580478Y10124D01*
X582201Y11965D01*
X583754Y13951D01*
X585126Y16067D01*
X586305Y18296D01*
X587283Y20619D01*
X588051Y23021D01*
X588605Y25481D01*
X588938Y27980D01*
X589050Y30499D01*
X347100Y272499D02*
X346988Y275018D01*
X346655Y277517D01*
X346101Y279976D01*
X345333Y282378D01*
X344355Y284702D01*
X343176Y286930D01*
X341804Y289046D01*
X340251Y291032D01*
X338528Y292873D01*
X336650Y294554D01*
X334630Y296063D01*
X332484Y297388D01*
X330230Y298517D01*
X327885Y299444D01*
X325468Y300159D01*
X322996Y300658D01*
X320490Y300936D01*
X317969Y300992D01*
X315454Y300824D01*
X312963Y300436D01*
X310516Y299828D01*
X308132Y299007D01*
X305830Y297978D01*
X303628Y296749D01*
X301544Y295331D01*
X299592Y293734D01*
X297790Y291971D01*
X296150Y290056D01*
X294687Y288003D01*
X293410Y285829D01*
X292330Y283551D01*
X291456Y281186D01*
X290795Y278753D01*
X290351Y276271D01*
X290128Y273759D01*
Y271238D01*
X290351Y268727D01*
X290795Y266245D01*
X291456Y263812D01*
X292330Y261447D01*
X293410Y259168D01*
X294686Y256994D01*
X296150Y254941D01*
X297790Y253026D01*
X299592Y251263D01*
X301544Y249666D01*
X303628Y248248D01*
X305830Y247020D01*
X308132Y245991D01*
X310516Y245169D01*
X312963Y244562D01*
X315454Y244173D01*
X317969Y244006D01*
X320490Y244061D01*
X322996Y244340D01*
X325467Y244838D01*
X327885Y245554D01*
X330230Y246480D01*
X332484Y247609D01*
X334630Y248934D01*
X336650Y250443D01*
X338528Y252124D01*
X340251Y253965D01*
X341804Y255951D01*
X343176Y258067D01*
X344355Y260296D01*
X345333Y262619D01*
X346101Y265021D01*
X346655Y267481D01*
X346988Y269980D01*
X347100Y272499D01*
X793997Y233253D02*
X793683Y235740D01*
X792761Y238070D01*
X791287Y240098D01*
X789356Y241696D01*
X787088Y242763D01*
X784625Y243233D01*
X782124Y243076D01*
X779740Y242301D01*
X777623Y240958D01*
X775907Y239130D01*
X774700Y236934D01*
X774076Y234506D01*
Y231999D01*
X774700Y229571D01*
X775907Y227375D01*
X777623Y225548D01*
X779740Y224204D01*
X782124Y223430D01*
X784625Y223272D01*
X787088Y223742D01*
X789356Y224809D01*
X791287Y226407D01*
X792761Y228435D01*
X793683Y230766D01*
X793997Y233253D01*
X809250Y276000D02*
X808936Y278487D01*
X808013Y280818D01*
X806540Y282845D01*
X804608Y284443D01*
X802340Y285511D01*
X799878Y285980D01*
X797376Y285823D01*
X794992Y285048D01*
X792876Y283705D01*
X791160Y281878D01*
X789952Y279681D01*
X789329Y277253D01*
Y274747D01*
X789952Y272319D01*
X791160Y270122D01*
X792876Y268295D01*
X794992Y266952D01*
X797376Y266177D01*
X799878Y266020D01*
X802340Y266489D01*
X804608Y267557D01*
X806540Y269154D01*
X808013Y271182D01*
X808936Y273513D01*
X809250Y276000D01*
X491750Y224500D02*
X491436Y226987D01*
X490513Y229317D01*
X489040Y231346D01*
X487108Y232943D01*
X484840Y234011D01*
X482378Y234480D01*
X479876Y234323D01*
X477492Y233548D01*
X475376Y232205D01*
X473660Y230378D01*
X472452Y228181D01*
X471829Y225753D01*
Y223247D01*
X472452Y220819D01*
X473660Y218622D01*
X475376Y216795D01*
X477492Y215452D01*
X479876Y214677D01*
X482378Y214520D01*
X484840Y214989D01*
X487108Y216057D01*
X489040Y217654D01*
X490513Y219682D01*
X491436Y222013D01*
X491750Y224500D01*
X794750Y112000D02*
X794436Y114487D01*
X793513Y116818D01*
X792040Y118846D01*
X790108Y120443D01*
X787840Y121511D01*
X785378Y121980D01*
X782876Y121823D01*
X780492Y121048D01*
X778376Y119705D01*
X776660Y117878D01*
X775452Y115681D01*
X774829Y113253D01*
Y110747D01*
X775452Y108319D01*
X776660Y106122D01*
X778376Y104295D01*
X780492Y102952D01*
X782876Y102177D01*
X785378Y102020D01*
X787840Y102489D01*
X790108Y103557D01*
X792040Y105154D01*
X793513Y107182D01*
X794436Y109513D01*
X794750Y112000D01*
X220750Y215500D02*
X220436Y217987D01*
X219513Y220317D01*
X218040Y222346D01*
X216108Y223943D01*
X213840Y225011D01*
X211378Y225480D01*
X208876Y225323D01*
X206492Y224548D01*
X204376Y223205D01*
X202660Y221378D01*
X201452Y219181D01*
X200829Y216753D01*
Y214247D01*
X201452Y211819D01*
X202660Y209622D01*
X204376Y207795D01*
X206492Y206452D01*
X208876Y205677D01*
X211378Y205520D01*
X213840Y205989D01*
X216108Y207057D01*
X218040Y208654D01*
X219513Y210683D01*
X220436Y213013D01*
X220750Y215500D01*
X382000Y51250D02*
X381686Y53737D01*
X380763Y56068D01*
X379290Y58095D01*
X377358Y59693D01*
X375090Y60761D01*
X372628Y61230D01*
X370126Y61073D01*
X367742Y60298D01*
X365626Y58955D01*
X363910Y57128D01*
X362702Y54931D01*
X362079Y52503D01*
Y49997D01*
X362702Y47569D01*
X363910Y45372D01*
X365626Y43545D01*
X367742Y42202D01*
X370126Y41427D01*
X372628Y41270D01*
X375090Y41739D01*
X377358Y42807D01*
X379290Y44405D01*
X380763Y46432D01*
X381686Y48763D01*
X382000Y51250D01*
X517500Y225000D02*
X517186Y227487D01*
X516263Y229818D01*
X514790Y231845D01*
X512858Y233443D01*
X510590Y234511D01*
X508128Y234980D01*
X505626Y234823D01*
X503242Y234048D01*
X501126Y232705D01*
X499410Y230878D01*
X498202Y228681D01*
X497579Y226253D01*
Y223747D01*
X498202Y221319D01*
X499410Y219122D01*
X501126Y217295D01*
X503242Y215952D01*
X505626Y215177D01*
X508128Y215020D01*
X510590Y215489D01*
X512858Y216557D01*
X514790Y218155D01*
X516263Y220182D01*
X517186Y222513D01*
X517500Y225000D01*
X817000Y113500D02*
X816686Y115987D01*
X815763Y118317D01*
X814290Y120345D01*
X812358Y121943D01*
X810090Y123011D01*
X807628Y123480D01*
X805126Y123323D01*
X802742Y122548D01*
X800626Y121205D01*
X798910Y119378D01*
X797702Y117181D01*
X797079Y114753D01*
Y112247D01*
X797702Y109819D01*
X798910Y107622D01*
X800626Y105795D01*
X802742Y104452D01*
X805126Y103677D01*
X807628Y103520D01*
X810090Y103989D01*
X812358Y105057D01*
X814290Y106655D01*
X815763Y108682D01*
X816686Y111013D01*
X817000Y113500D01*
X330750Y56250D02*
X330436Y58737D01*
X329513Y61068D01*
X328040Y63095D01*
X326108Y64693D01*
X323840Y65761D01*
X321378Y66230D01*
X318876Y66073D01*
X316492Y65298D01*
X314376Y63955D01*
X312660Y62128D01*
X311452Y59931D01*
X310829Y57503D01*
Y54997D01*
X311452Y52569D01*
X312660Y50372D01*
X314376Y48545D01*
X316492Y47202D01*
X318876Y46427D01*
X321378Y46270D01*
X323840Y46739D01*
X326108Y47807D01*
X328040Y49405D01*
X329513Y51432D01*
X330436Y53763D01*
X330750Y56250D01*
X306250Y43000D02*
X305936Y45487D01*
X305013Y47818D01*
X303540Y49845D01*
X301608Y51443D01*
X299340Y52511D01*
X296878Y52980D01*
X294376Y52823D01*
X291992Y52048D01*
X289876Y50705D01*
X288160Y48878D01*
X286952Y46681D01*
X286329Y44253D01*
Y41747D01*
X286952Y39319D01*
X288160Y37122D01*
X289876Y35295D01*
X291992Y33952D01*
X294376Y33177D01*
X296878Y33020D01*
X299340Y33489D01*
X301608Y34557D01*
X303540Y36154D01*
X305013Y38182D01*
X305936Y40513D01*
X306250Y43000D01*
X31750Y79000D02*
X31436Y81487D01*
X30513Y83818D01*
X29040Y85845D01*
X27108Y87443D01*
X24840Y88511D01*
X22378Y88980D01*
X19876Y88823D01*
X17492Y88048D01*
X15376Y86705D01*
X13660Y84878D01*
X12452Y82681D01*
X11829Y80253D01*
Y77747D01*
X12452Y75319D01*
X13660Y73122D01*
X15376Y71295D01*
X17492Y69952D01*
X19876Y69177D01*
X22378Y69020D01*
X24840Y69489D01*
X27108Y70557D01*
X29040Y72154D01*
X30513Y74183D01*
X31436Y76513D01*
X31750Y79000D01*
X755250Y221250D02*
X754936Y223737D01*
X754013Y226068D01*
X752540Y228095D01*
X750608Y229693D01*
X748340Y230761D01*
X745878Y231230D01*
X743376Y231073D01*
X740992Y230298D01*
X738876Y228955D01*
X737160Y227128D01*
X735952Y224931D01*
X735329Y222503D01*
Y219997D01*
X735952Y217569D01*
X737160Y215372D01*
X738876Y213545D01*
X740992Y212202D01*
X743376Y211427D01*
X745878Y211270D01*
X748340Y211739D01*
X750608Y212807D01*
X752540Y214405D01*
X754013Y216432D01*
X754936Y218763D01*
X755250Y221250D01*
X639550Y146500D02*
Y156500D01*
X634550Y151500D02*
X644550D01*
X662050Y36500D02*
Y266500D01*
X617050Y36500D02*
Y266500D01*
Y36500D02*
X662050D01*
X617050Y266500D02*
X662050D01*
X247100Y236500D02*
X292100D01*
X247100Y6500D02*
X292100D01*
X247100D02*
Y236500D01*
X292100Y6500D02*
Y236500D01*
X264600Y121500D02*
X274600D01*
X269600Y116500D02*
Y126500D01*
X355000Y249750D02*
X360500D01*
X357750Y247000D02*
Y252500D01*
X353750Y257750D02*
X361750D01*
X353750Y241750D02*
X361750D01*
Y257750D01*
X353750Y241750D02*
Y257750D01*
X355000Y266250D02*
X360500D01*
X357750Y263500D02*
Y269000D01*
X353750Y258250D02*
X361750D01*
X353750Y274250D02*
X361750D01*
X353750Y258250D02*
Y274250D01*
X361750Y258250D02*
Y274250D01*
X355000Y283000D02*
X360500D01*
X357750Y280250D02*
Y285750D01*
X353750Y275000D02*
X361750D01*
X353750Y291000D02*
X361750D01*
X353750Y275000D02*
Y291000D01*
X361750Y275000D02*
Y291000D01*
X366750Y249750D02*
X372250D01*
X369500Y247000D02*
Y252500D01*
X365500Y241750D02*
X373500D01*
X365500Y257750D02*
X373500D01*
X365500Y241750D02*
Y257750D01*
X373500Y241750D02*
Y257750D01*
X366750Y266500D02*
X372250D01*
X369500Y263750D02*
Y269250D01*
X365500Y274500D02*
X373500D01*
X365500Y258500D02*
X373500D01*
Y274500D01*
X365500Y258500D02*
Y274500D01*
X366750Y283000D02*
X372250D01*
X369500Y280250D02*
Y285750D01*
X365500Y291000D02*
X373500D01*
X365500Y275000D02*
X373500D01*
Y291000D01*
X365500Y275000D02*
Y291000D01*
X168143Y134962D02*
Y160962D01*
X132143Y134962D02*
Y160962D01*
X150143Y147961D02*
X157643D01*
X150143D02*
Y155460D01*
X142644Y147961D02*
X150143D01*
Y140462D02*
Y147961D01*
X132143Y134962D02*
X168143D01*
X132143Y160962D02*
X168143D01*
X777250Y212500D02*
X782750D01*
X780000Y209750D02*
Y215250D01*
X776000Y220500D02*
X784000D01*
X776000Y204500D02*
X784000D01*
Y220500D01*
X776000Y204500D02*
Y220500D01*
X787250Y212500D02*
X792750D01*
X790000Y209750D02*
Y215250D01*
X786000Y220500D02*
X794000D01*
X786000Y204500D02*
X794000D01*
Y220500D01*
X786000Y204500D02*
Y220500D01*
X798801Y243935D02*
Y259935D01*
X790801Y243935D02*
Y259935D01*
X798801D01*
X790801Y243935D02*
X798801D01*
X794801Y248935D02*
Y254935D01*
X791801Y251935D02*
X797801D01*
X815572Y271671D02*
X821072D01*
X818322Y268921D02*
Y274421D01*
X814322Y263671D02*
X822322D01*
X814322Y279671D02*
X822322D01*
X814322Y263671D02*
Y279671D01*
X822322Y263671D02*
Y279671D01*
X822727Y263793D02*
Y279793D01*
X830726Y263793D02*
Y279793D01*
X822727Y263793D02*
X830726D01*
X822727Y279793D02*
X830726D01*
X826727Y268793D02*
Y274793D01*
X823727Y271793D02*
X829726D01*
X831227Y286793D02*
X842226D01*
X831227Y263793D02*
X842226D01*
Y286793D01*
X831227Y263793D02*
Y286793D01*
X831976Y275293D02*
X841477D01*
X836727Y270543D02*
Y280043D01*
X842750Y263000D02*
Y279000D01*
X850750Y263000D02*
Y279000D01*
X842750Y263000D02*
X850750D01*
X842750Y279000D02*
X850750D01*
X846750Y268000D02*
Y274000D01*
X843750Y271000D02*
X849750D01*
X856750Y268750D02*
Y278250D01*
X852000Y273500D02*
X861500D01*
X851250Y262000D02*
Y285000D01*
X862250Y262000D02*
Y285000D01*
X851250Y262000D02*
X862250D01*
X851250Y285000D02*
X862250D01*
X849348Y253500D02*
X855348D01*
X849348Y241500D02*
X855348D01*
Y253500D01*
X849348Y241500D02*
Y253500D01*
X852348Y245850D02*
Y249150D01*
X850698Y247500D02*
X853998D01*
X849283Y229100D02*
X855283D01*
X849283Y241099D02*
X855283D01*
X849283Y229100D02*
Y241099D01*
X855283Y229100D02*
Y241099D01*
X852283Y233449D02*
Y236749D01*
X850633Y235100D02*
X853933D01*
X799477Y262743D02*
X848477D01*
Y199743D02*
Y262743D01*
X799477Y199743D02*
X848477D01*
X799477D02*
Y262743D01*
X818977Y231243D02*
X828977D01*
X823977Y226243D02*
Y236243D01*
X847500Y142500D02*
X857500D01*
X852500Y137500D02*
Y147500D01*
X829000Y126500D02*
X876000D01*
X829000Y158500D02*
X876000D01*
Y126500D02*
Y158500D01*
X829000Y126500D02*
Y158500D01*
X847500Y175000D02*
X857500D01*
X852500Y170000D02*
Y180000D01*
X829000Y159000D02*
X876000D01*
X829000Y191000D02*
X876000D01*
Y159000D02*
Y191000D01*
X829000Y159000D02*
Y191000D01*
X790000Y175000D02*
X800000D01*
X795000Y170000D02*
Y180000D01*
X771500Y191000D02*
X818500D01*
X771500Y159000D02*
X818500D01*
X771500D02*
Y191000D01*
X818500Y159000D02*
Y191000D01*
X750000Y180000D02*
Y190000D01*
X745000Y185000D02*
X755000D01*
X734500Y197000D02*
X765500D01*
X734500Y173000D02*
X765500D01*
X734500D02*
Y197000D01*
X765500Y173000D02*
Y197000D01*
X736625Y167090D02*
X763375D01*
X736625Y142910D02*
Y167090D01*
Y142910D02*
X763375D01*
Y167090D01*
X773000Y139750D02*
Y155750D01*
X765000Y139750D02*
Y155750D01*
X773000D01*
X765000Y139750D02*
X773000D01*
X769000Y144750D02*
Y150750D01*
X766000Y147750D02*
X772000D01*
X737000Y133500D02*
X753000D01*
X737000Y141500D02*
X753000D01*
Y133500D02*
Y141500D01*
X737000Y133500D02*
Y141500D01*
X742250Y137500D02*
X747750D01*
X745000Y134750D02*
Y140250D01*
X850000Y95000D02*
X860000D01*
X855000Y90000D02*
Y100000D01*
X845000Y78000D02*
Y112000D01*
X865000Y78000D02*
Y112000D01*
X845000Y78000D02*
X865000D01*
X845000Y112000D02*
X865000D01*
X825000Y60250D02*
Y69750D01*
X820250Y65000D02*
X829750D01*
X819500Y53500D02*
Y76500D01*
X830500Y53500D02*
Y76500D01*
X819500Y53500D02*
X830500D01*
X819500Y76500D02*
X830500D01*
X834500Y67500D02*
X840500D01*
X837500Y64500D02*
Y70500D01*
X833500Y75500D02*
X841500D01*
X833500Y59500D02*
X841500D01*
Y75500D01*
X833500Y59500D02*
Y75500D01*
X844500Y67500D02*
X850500D01*
X847500Y64500D02*
Y70500D01*
X843500Y75500D02*
X851500D01*
X843500Y59500D02*
X851500D01*
Y75500D01*
X843500Y59500D02*
Y75500D01*
X860000Y60250D02*
Y69750D01*
X855250Y65000D02*
X864750D01*
X854500Y53500D02*
Y76500D01*
X865500Y53500D02*
Y76500D01*
X854500Y53500D02*
X865500D01*
X854500Y76500D02*
X865500D01*
X842500Y12250D02*
Y17750D01*
X839750Y15000D02*
X845250D01*
X834500Y11000D02*
Y19000D01*
X850500Y11000D02*
Y19000D01*
X834500D02*
X850500D01*
X834500Y11000D02*
X850500D01*
X805000Y24500D02*
Y30500D01*
X802000Y27500D02*
X808000D01*
X797000Y23500D02*
Y31500D01*
X813000Y23500D02*
Y31500D01*
X797000D02*
X813000D01*
X797000Y23500D02*
X813000D01*
X772500Y30000D02*
X782500D01*
X777500Y25000D02*
Y35000D01*
X767500Y13000D02*
Y47000D01*
X787500Y13000D02*
Y47000D01*
X767500Y13000D02*
X787500D01*
X767500Y47000D02*
X787500D01*
X597750Y140000D02*
X607250D01*
X602500Y135250D02*
Y144750D01*
X591000Y145500D02*
X614000D01*
X591000Y134500D02*
X614000D01*
X591000D02*
Y145500D01*
X614000Y134500D02*
Y145500D01*
X597750Y155000D02*
X607250D01*
X602500Y150250D02*
Y159750D01*
X591000Y160500D02*
X614000D01*
X591000Y149500D02*
X614000D01*
X591000D02*
Y160500D01*
X614000Y149500D02*
Y160500D01*
X597750Y170000D02*
X607250D01*
X602500Y165250D02*
Y174750D01*
X591000Y164500D02*
X614000D01*
X591000Y175500D02*
X614000D01*
Y164500D02*
Y175500D01*
X591000Y164500D02*
Y175500D01*
X597750Y185000D02*
X607250D01*
X602500Y180250D02*
Y189750D01*
X591000Y179500D02*
X614000D01*
X591000Y190500D02*
X614000D01*
Y179500D02*
Y190500D01*
X591000Y179500D02*
Y190500D01*
X527500Y220050D02*
Y230050D01*
X522500Y225050D02*
X532500D01*
X533750Y216257D02*
Y233646D01*
X521250Y216257D02*
Y233646D01*
Y216257D02*
X533750D01*
X521250Y233646D02*
X533750D01*
X517000Y236000D02*
X533000D01*
X517000Y244000D02*
X533000D01*
Y236000D02*
Y244000D01*
X517000Y236000D02*
Y244000D01*
X522000Y240000D02*
X528000D01*
X525000Y237000D02*
Y243000D01*
X534750Y287500D02*
X540250D01*
X537500Y284750D02*
Y290250D01*
X533500Y295500D02*
X541500D01*
X533500Y279500D02*
X541500D01*
Y295500D01*
X533500Y279500D02*
Y295500D01*
X508500Y287000D02*
Y298000D01*
X531500Y287000D02*
Y298000D01*
X508500D02*
X531500D01*
X508500Y287000D02*
X531500D01*
X520000Y288000D02*
Y297000D01*
X515500Y292500D02*
X524500D01*
X461000Y287000D02*
Y298000D01*
X484000Y287000D02*
Y298000D01*
X461000D02*
X484000D01*
X461000Y287000D02*
X484000D01*
X472500Y288000D02*
Y297000D01*
X468000Y292500D02*
X477000D01*
X486000Y279500D02*
Y295500D01*
X494000Y279500D02*
Y295500D01*
X486000Y279500D02*
X494000D01*
X486000Y295500D02*
X494000D01*
X490000Y284750D02*
Y290250D01*
X487250Y287500D02*
X492750D01*
X385153Y277132D02*
X401153D01*
X385153Y285132D02*
X401153D01*
Y277132D02*
Y285132D01*
X385153Y277132D02*
Y285132D01*
X390403Y281132D02*
X395903D01*
X393153Y278382D02*
Y283882D01*
X400250Y258000D02*
X410250D01*
X405250Y253000D02*
Y263000D01*
X388250Y275000D02*
X422250D01*
X374250D02*
X388250D01*
X374250Y241000D02*
Y275000D01*
Y241000D02*
X388250D01*
X422250D01*
X436250D01*
Y275000D01*
X422250D02*
X436250D01*
X383500Y167000D02*
Y183000D01*
X391500Y167000D02*
Y183000D01*
X383500Y167000D02*
X391500D01*
X383500Y183000D02*
X391500D01*
X387500Y172000D02*
Y178000D01*
X384500Y175000D02*
X390500D01*
X403000Y167250D02*
Y183250D01*
X395000Y167250D02*
Y183250D01*
X403000D01*
X395000Y167250D02*
X403000D01*
X399000Y172500D02*
Y178000D01*
X396250Y175250D02*
X401750D01*
X409500Y151000D02*
X425500D01*
X409500Y159000D02*
X425500D01*
Y151000D02*
Y159000D01*
X409500Y151000D02*
Y159000D01*
X414750Y155000D02*
X420250D01*
X417500Y152250D02*
Y157750D01*
X409500Y141000D02*
X425500D01*
X409500Y149000D02*
X425500D01*
Y141000D02*
Y149000D01*
X409500Y141000D02*
Y149000D01*
X414750Y145000D02*
X420250D01*
X417500Y142250D02*
Y147750D01*
X395999Y152749D02*
X403999D01*
X395999Y144751D02*
Y152749D01*
Y160749D01*
X388001Y152749D02*
X395999D01*
X384999Y163749D02*
X406999D01*
Y141749D02*
Y163749D01*
X384999Y141749D02*
X406999D01*
X384999D02*
Y163749D01*
X383500Y130250D02*
X389500D01*
X386500Y127250D02*
Y133250D01*
X382500Y122250D02*
X390500D01*
X382500Y138250D02*
X390500D01*
X382500Y122250D02*
Y138250D01*
X390500Y122250D02*
Y138250D01*
X400500Y122250D02*
Y138250D01*
X392500Y122250D02*
Y138250D01*
X400500D01*
X392500Y122250D02*
X400500D01*
X396500Y127500D02*
Y133000D01*
X393750Y130250D02*
X399250D01*
X410500Y122250D02*
Y138250D01*
X402500Y122250D02*
Y138250D01*
X410500D01*
X402500Y122250D02*
X410500D01*
X406500Y127500D02*
Y133000D01*
X403750Y130250D02*
X409250D01*
X505000Y62500D02*
X515000D01*
X510000Y57500D02*
Y67500D01*
X500000Y45500D02*
Y79500D01*
X520000Y45500D02*
Y79500D01*
X500000Y45500D02*
X520000D01*
X500000Y79500D02*
X520000D01*
X490000Y52750D02*
Y62250D01*
X485250Y57500D02*
X494750D01*
X484500Y46000D02*
Y69000D01*
X495500Y46000D02*
Y69000D01*
X484500Y46000D02*
X495500D01*
X484500Y69000D02*
X495500D01*
X400000Y79500D02*
X420000D01*
X400000Y45500D02*
X420000D01*
Y79500D01*
X400000Y45500D02*
Y79500D01*
X410000Y57500D02*
Y67500D01*
X405000Y62500D02*
X415000D01*
X425000Y79500D02*
X445000D01*
X425000Y45500D02*
X445000D01*
Y79500D01*
X425000Y45500D02*
Y79500D01*
X435000Y57500D02*
Y67500D01*
X430000Y62500D02*
X440000D01*
X455000Y52750D02*
Y62250D01*
X450250Y57500D02*
X459750D01*
X449500Y46000D02*
Y69000D01*
X460500Y46000D02*
Y69000D01*
X449500Y46000D02*
X460500D01*
X449500Y69000D02*
X460500D01*
X474500Y55000D02*
X480500D01*
X477500Y52000D02*
Y58000D01*
X473500Y63000D02*
X481500D01*
X473500Y47000D02*
X481500D01*
Y63000D01*
X473500Y47000D02*
Y63000D01*
X464000Y55000D02*
X470000D01*
X467000Y52000D02*
Y58000D01*
X463000Y63000D02*
X471000D01*
X463000Y47000D02*
X471000D01*
Y63000D01*
X463000Y47000D02*
Y63000D01*
X467500Y14750D02*
Y20250D01*
X464750Y17500D02*
X470250D01*
X459500Y13500D02*
Y21500D01*
X475500Y13500D02*
Y21500D01*
X459500D02*
X475500D01*
X459500Y13500D02*
X475500D01*
X427500Y22750D02*
Y32250D01*
X422750Y27500D02*
X432250D01*
X422000Y16000D02*
Y39000D01*
X433000Y16000D02*
Y39000D01*
X422000Y16000D02*
X433000D01*
X422000Y39000D02*
X433000D01*
X360500Y11000D02*
Y16500D01*
X357750Y13750D02*
X363250D01*
X368500Y9750D02*
Y17750D01*
X352500Y9750D02*
Y17750D01*
Y9750D02*
X368500D01*
X352500Y17750D02*
X368500D01*
X370000Y28750D02*
X376000D01*
X373000Y25750D02*
Y31750D01*
X369000Y20750D02*
X377000D01*
X369000Y36750D02*
X377000D01*
X369000Y20750D02*
Y36750D01*
X377000Y20750D02*
Y36750D01*
X360500Y30750D02*
Y36750D01*
X357500Y33750D02*
X363500D01*
X368500Y29750D02*
Y37750D01*
X352500Y29750D02*
Y37750D01*
Y29750D02*
X368500D01*
X352500Y37750D02*
X368500D01*
X360500Y21000D02*
Y26500D01*
X357750Y23750D02*
X363250D01*
X352500Y19750D02*
Y27750D01*
X368500Y19750D02*
Y27750D01*
X352500D02*
X368500D01*
X352500Y19750D02*
X368500D01*
X329500Y8250D02*
X351500D01*
X329500Y34250D02*
X351500D01*
X329500Y8250D02*
Y34250D01*
X351500Y8250D02*
Y34250D01*
X335750Y41250D02*
X345250D01*
X340500Y36500D02*
Y46000D01*
X329000Y46750D02*
X352000D01*
X329000Y35750D02*
X352000D01*
X329000D02*
Y46750D01*
X352000Y35750D02*
Y46750D01*
X320500Y18250D02*
Y24250D01*
X317500Y21250D02*
X323500D01*
X312500Y17250D02*
Y25250D01*
X328500Y17250D02*
Y25250D01*
X312500D02*
X328500D01*
X312500Y17250D02*
X328500D01*
X320500Y28250D02*
Y34250D01*
X317500Y31250D02*
X323500D01*
X312500Y27250D02*
Y35250D01*
X328500Y27250D02*
Y35250D01*
X312500D02*
X328500D01*
X312500Y27250D02*
X328500D01*
X325250Y39000D02*
Y50000D01*
X302250Y39000D02*
Y50000D01*
Y39000D02*
X325250D01*
X302250Y50000D02*
X325250D01*
X313750Y39750D02*
Y49250D01*
X309000Y44500D02*
X318500D01*
X238000Y70250D02*
X243500D01*
X240750Y67500D02*
Y73000D01*
X236750Y62250D02*
X244750D01*
X236750Y78250D02*
X244750D01*
X236750Y62250D02*
Y78250D01*
X244750Y62250D02*
Y78250D01*
X190500Y148000D02*
X200500D01*
X195500Y143000D02*
Y153000D01*
X185500Y194000D02*
X195500D01*
X190500Y189000D02*
Y199000D01*
X168500Y200000D02*
Y226000D01*
X132500Y200000D02*
Y226000D01*
X150501Y212999D02*
X158000D01*
X150501D02*
Y220498D01*
X143002Y212999D02*
X150501D01*
Y205500D02*
Y212999D01*
X132500Y200000D02*
X168500D01*
X132500Y226000D02*
X168500D01*
X120000Y201500D02*
X131000D01*
X120000Y224500D02*
X131000D01*
X120000Y201500D02*
Y224500D01*
X131000Y201500D02*
Y224500D01*
X120750Y213000D02*
X130250D01*
X125500Y208250D02*
Y217750D01*
X170000Y201500D02*
X181000D01*
X170000Y224500D02*
X181000D01*
X170000Y201500D02*
Y224500D01*
X181000Y201500D02*
Y224500D01*
X170750Y213000D02*
X180250D01*
X175500Y208250D02*
Y217750D01*
X120393Y168389D02*
X131392D01*
X120393Y191389D02*
X131392D01*
X120393Y168389D02*
Y191389D01*
X131392Y168389D02*
Y191389D01*
X121143Y179889D02*
X130642D01*
X125892Y175139D02*
Y184639D01*
X120393Y136462D02*
X131393D01*
X120393Y159462D02*
X131393D01*
X120393Y136462D02*
Y159462D01*
X131393Y136462D02*
Y159462D01*
X121143Y147962D02*
X130643D01*
X125893Y143212D02*
Y152712D01*
X169375Y136812D02*
X180375D01*
X169375Y159812D02*
X180375D01*
X169375Y136812D02*
Y159812D01*
X180375Y136812D02*
Y159812D01*
X170124Y148312D02*
X179625D01*
X174874Y143562D02*
Y153062D01*
X210443Y110750D02*
Y120250D01*
X205693Y115500D02*
X215193D01*
X204943Y104000D02*
Y127000D01*
X215943Y104000D02*
Y127000D01*
X204943Y104000D02*
X215943D01*
X204943Y127000D02*
X215943D01*
X198705Y110723D02*
Y120223D01*
X193955Y115473D02*
X203455D01*
X193205Y103973D02*
Y126973D01*
X204205Y103973D02*
Y126973D01*
X193205Y103973D02*
X204205D01*
X193205Y126973D02*
X204205D01*
X170250Y120500D02*
Y126500D01*
X167250Y123500D02*
X173250D01*
X178250Y119500D02*
Y127500D01*
X162250Y119500D02*
Y127500D01*
Y119500D02*
X178250D01*
X162250Y127500D02*
X178250D01*
X82000Y13500D02*
X98000D01*
X82000Y21500D02*
X98000D01*
Y13500D02*
Y21500D01*
X82000Y13500D02*
Y21500D01*
X87250Y17500D02*
X92750D01*
X90000Y14750D02*
Y20250D01*
X82500Y62750D02*
Y72250D01*
X77750Y67500D02*
X87250D01*
X77000Y56000D02*
Y79000D01*
X88000Y56000D02*
Y79000D01*
X77000Y56000D02*
X88000D01*
X77000Y79000D02*
X88000D01*
X89500Y55000D02*
X95500D01*
X92500Y52000D02*
Y58000D01*
X88500Y63000D02*
X96500D01*
X88500Y47000D02*
X96500D01*
Y63000D01*
X88500Y47000D02*
Y63000D01*
X99500Y62500D02*
X105500D01*
X102500Y59500D02*
Y65500D01*
X98500Y70500D02*
X106500D01*
X98500Y54500D02*
X106500D01*
Y70500D01*
X98500Y54500D02*
Y70500D01*
X71000Y97000D02*
Y113000D01*
X79000Y97000D02*
Y113000D01*
X71000Y97000D02*
X79000D01*
X71000Y113000D02*
X79000D01*
X75000Y102250D02*
Y107750D01*
X72250Y105000D02*
X77750D01*
X79000Y217000D02*
Y233000D01*
X71000Y217000D02*
Y233000D01*
X79000D01*
X71000Y217000D02*
X79000D01*
X75000Y222250D02*
Y227750D01*
X72250Y225000D02*
X77750D01*
X69000Y217000D02*
Y233000D01*
X61000Y217000D02*
Y233000D01*
X69000D01*
X61000Y217000D02*
X69000D01*
X65000Y222250D02*
Y227750D01*
X62250Y225000D02*
X67750D01*
X59000Y217000D02*
Y233000D01*
X51000Y217000D02*
Y233000D01*
X59000D01*
X51000Y217000D02*
X59000D01*
X55000Y222250D02*
Y227750D01*
X52250Y225000D02*
X57750D01*
X49000Y217000D02*
Y233000D01*
X41000Y217000D02*
Y233000D01*
X49000D01*
X41000Y217000D02*
X49000D01*
X45000Y222250D02*
Y227750D01*
X42250Y225000D02*
X47750D01*
X39000Y217000D02*
Y233000D01*
X31000Y217000D02*
Y233000D01*
X39000D01*
X31000Y217000D02*
X39000D01*
X35000Y222250D02*
Y227750D01*
X32250Y225000D02*
X37750D01*
X29000Y217000D02*
Y233000D01*
X21000Y217000D02*
Y233000D01*
X29000D01*
X21000Y217000D02*
X29000D01*
X25000Y222250D02*
Y227750D01*
X22250Y225000D02*
X27750D01*
X865227Y235093D02*
Y241093D01*
X859227D02*
X865227D01*
Y247093D01*
Y241093D02*
X871227D01*
X874726Y227593D02*
Y254593D01*
X855726Y227593D02*
X874726D01*
X855726D02*
Y254593D01*
X874726D01*
X131999Y193750D02*
X167999D01*
X131999Y167750D02*
X167999D01*
X150000Y173250D02*
Y180750D01*
X142501D02*
X150000D01*
Y188249D01*
Y180750D02*
X157499D01*
X131999Y167750D02*
Y193750D01*
X167999Y167750D02*
Y193750D01*
X363500Y149250D02*
X379500D01*
X363500Y141250D02*
X379500D01*
X363500D02*
Y149250D01*
X379500Y141250D02*
Y149250D01*
X368750Y145250D02*
X374250D01*
X371500Y142500D02*
Y148000D01*
X312500Y7250D02*
X328500D01*
X312500Y15250D02*
X328500D01*
Y7250D02*
Y15250D01*
X312500Y7250D02*
Y15250D01*
X317750Y11250D02*
X323250D01*
X320500Y8500D02*
Y14000D01*
X125000Y12500D02*
Y22500D01*
X120000Y17500D02*
X130000D01*
X108000Y27500D02*
X142000D01*
X108000Y7500D02*
X142000D01*
X108000D02*
Y27500D01*
X142000Y7500D02*
Y27500D01*
X125000Y35000D02*
Y45000D01*
X120000Y40000D02*
X130000D01*
X108000Y50000D02*
X142000D01*
X108000Y30000D02*
X142000D01*
X108000D02*
Y50000D01*
X142000Y30000D02*
Y50000D01*
X31750Y51000D02*
X41750D01*
X36750Y46000D02*
Y56000D01*
X26750Y34000D02*
Y68000D01*
X46750Y34000D02*
Y68000D01*
X26750Y34000D02*
X46750D01*
X26750Y68000D02*
X46750D01*
X34000Y23500D02*
X43500D01*
X38750Y18750D02*
Y28250D01*
X27250Y18000D02*
X50250D01*
X27250Y29000D02*
X50250D01*
Y18000D02*
Y29000D01*
X27250Y18000D02*
Y29000D01*
X60750Y13500D02*
Y19500D01*
X57750Y16500D02*
X63750D01*
X52750Y12500D02*
Y20500D01*
X68750Y12500D02*
Y20500D01*
X52750D02*
X68750D01*
X52750Y12500D02*
X68750D01*
X115250Y57500D02*
X124750D01*
X120000Y52750D02*
Y62250D01*
X108500Y63000D02*
X131500D01*
X108500Y52000D02*
X131500D01*
X108500D02*
Y63000D01*
X131500Y52000D02*
Y63000D01*
X525000Y207000D02*
Y213000D01*
X522000Y210000D02*
X528000D01*
X517000Y206000D02*
Y214000D01*
X533000Y206000D02*
Y214000D01*
X517000D02*
X533000D01*
X517000Y206000D02*
X533000D01*
X430000Y277000D02*
Y283000D01*
X427000Y280000D02*
X433000D01*
X438000Y276000D02*
Y284000D01*
X422000Y276000D02*
Y284000D01*
Y276000D02*
X438000D01*
X422000Y284000D02*
X438000D01*
X363500Y139250D02*
X379500D01*
X363500Y131250D02*
X379500D01*
X363500D02*
Y139250D01*
X379500Y131250D02*
Y139250D01*
X368750Y135250D02*
X374250D01*
X371500Y132500D02*
Y138000D01*
X797750Y17500D02*
X807250D01*
X802500Y12750D02*
Y22250D01*
X791000Y12000D02*
X814000D01*
X791000Y23000D02*
X814000D01*
Y12000D02*
Y23000D01*
X791000Y12000D02*
Y23000D01*
X437000Y20000D02*
X443000D01*
X440000Y17000D02*
Y23000D01*
X436000Y28000D02*
X444000D01*
X436000Y12000D02*
X444000D01*
Y28000D01*
X436000Y12000D02*
Y28000D01*
X169143Y168752D02*
X180143D01*
X169143Y191752D02*
X180143D01*
X169143Y168752D02*
Y191752D01*
X180143Y168752D02*
Y191752D01*
X169893Y180252D02*
X179393D01*
X174643Y175502D02*
Y185002D01*
X62250Y105000D02*
X67750D01*
X65000Y102250D02*
Y107750D01*
X61000Y113000D02*
X69000D01*
X61000Y97000D02*
X69000D01*
Y113000D01*
X61000Y97000D02*
Y113000D01*
X52250Y105000D02*
X57750D01*
X55000Y102250D02*
Y107750D01*
X51000Y113000D02*
X59000D01*
X51000Y97000D02*
X59000D01*
Y113000D01*
X51000Y97000D02*
Y113000D01*
X42250Y105000D02*
X47750D01*
X45000Y102250D02*
Y107750D01*
X41000Y113000D02*
X49000D01*
X41000Y97000D02*
X49000D01*
Y113000D01*
X41000Y97000D02*
Y113000D01*
X32250Y105000D02*
X37750D01*
X35000Y102250D02*
Y107750D01*
X31000Y113000D02*
X39000D01*
X31000Y97000D02*
X39000D01*
Y113000D01*
X31000Y97000D02*
Y113000D01*
X22250Y105000D02*
X27750D01*
X25000Y102250D02*
Y107750D01*
X21000Y113000D02*
X29000D01*
X21000Y97000D02*
X29000D01*
Y113000D01*
X21000Y97000D02*
Y113000D01*
X172250Y111250D02*
X181750D01*
X177000Y106500D02*
Y116000D01*
X165500Y105750D02*
X188500D01*
X165500Y116750D02*
X188500D01*
Y105750D02*
Y116750D01*
X165500Y105750D02*
Y116750D01*
X674000Y154500D02*
Y170500D01*
X666000Y154500D02*
Y170500D01*
X674000D01*
X666000Y154500D02*
X674000D01*
X670000Y159750D02*
Y165250D01*
X667250Y162500D02*
X672750D01*
X790000Y132500D02*
X800000D01*
X795000Y127500D02*
Y137500D01*
X775500Y142000D02*
X814500D01*
X775500Y123000D02*
X814500D01*
X775500D02*
Y142000D01*
X814500Y123000D02*
Y142000D01*
X727750Y118500D02*
Y128500D01*
X722750Y123500D02*
X732750D01*
X737000Y123500D02*
X753000D01*
X737000Y131500D02*
X753000D01*
Y123500D02*
Y131500D01*
X737000Y123500D02*
Y131500D01*
X742250Y127500D02*
X747750D01*
X745000Y124750D02*
Y130250D01*
X55000Y160000D02*
Y170000D01*
X50000Y165000D02*
X60000D01*
X15000Y118500D02*
X95000D01*
X15000Y211500D02*
X95000D01*
Y118500D02*
Y211500D01*
X15000Y118500D02*
Y211500D01*
X745750Y87250D02*
X757750D01*
X770750D01*
X757750D02*
Y99345D01*
Y75345D02*
Y87250D01*
X796750Y68250D02*
Y108250D01*
X718750D02*
X796750D01*
X718750Y68250D02*
Y108250D01*
Y68250D02*
X796750D01*
X467500Y275000D02*
X477500D01*
X472500Y270000D02*
Y280000D01*
X461850Y265500D02*
X483150D01*
Y284500D01*
X461850D02*
X483150D01*
X461850Y265500D02*
Y284500D01*
X515000Y275000D02*
X525000D01*
X520000Y270000D02*
Y280000D01*
X509350Y265500D02*
X530650D01*
Y284500D01*
X509350D02*
X530650D01*
X509350Y265500D02*
Y284500D01*
X555550Y30499D02*
X565550D01*
X560550Y25499D02*
Y35499D01*
X313600Y272499D02*
X323600D01*
X318600Y267499D02*
Y277499D01*
X162000Y102750D02*
X226000D01*
X162000Y52750D02*
X226000D01*
X183757Y77750D02*
X194000D01*
Y67507D02*
Y77750D01*
Y87993D01*
Y77750D02*
X204243D01*
X226000Y52750D02*
Y102750D01*
X162000Y52750D02*
Y102750D01*
X783997Y228253D02*
Y238253D01*
X778998Y233253D02*
X788997D01*
X799250Y271000D02*
Y281000D01*
X794250Y276000D02*
X804250D01*
X481750Y219500D02*
Y229500D01*
X476750Y224500D02*
X486750D01*
X784750Y107000D02*
Y117000D01*
X779750Y112000D02*
X789750D01*
X210750Y210500D02*
Y220500D01*
X205750Y215500D02*
X215750D01*
X372000Y46250D02*
Y56250D01*
X367000Y51250D02*
X377000D01*
X507500Y220000D02*
Y230000D01*
X502500Y225000D02*
X512500D01*
X802000Y113500D02*
X812000D01*
X807000Y108500D02*
Y118500D01*
X315750Y56250D02*
X325750D01*
X320750Y51250D02*
Y61250D01*
X291250Y43000D02*
X301250D01*
X296250Y38000D02*
Y48000D01*
X16750Y79000D02*
X26750D01*
X21750Y74000D02*
Y84000D01*
X740250Y221250D02*
X750250D01*
X745250Y216250D02*
Y226250D01*
X830000Y95000D02*
X840000D01*
X835000Y90000D02*
Y100000D01*
X825000Y78000D02*
Y112000D01*
X845000Y78000D02*
Y112000D01*
X825000Y78000D02*
X845000D01*
X825000Y112000D02*
X845000D01*
M02*
