G04*
G04 #@! TF.GenerationSoftware,Altium Limited,Altium Designer,21.2.2 (38)*
G04*
G04 Layer_Physical_Order=1*
G04 Layer_Color=255*
%FSLAX44Y44*%
%MOMM*%
G71*
G04*
G04 #@! TF.SameCoordinates,F74FCDBE-679D-443F-AF77-7FC649403346*
G04*
G04*
G04 #@! TF.FilePolarity,Positive*
G04*
G01*
G75*
%ADD13C,0.5000*%
%ADD18C,0.2540*%
%ADD19R,0.5500X0.6500*%
%ADD20R,0.3000X0.7100*%
%ADD21R,0.7000X0.3000*%
%ADD22R,0.7000X1.0000*%
%ADD23R,2.4000X2.4000*%
%ADD24R,0.3000X1.6000*%
%ADD25R,2.4000X2.4000*%
%ADD26R,2.4000X2.4000*%
%ADD27R,1.6000X0.3000*%
%ADD28R,2.4000X2.4000*%
%ADD29R,0.7000X0.1800*%
G04:AMPARAMS|DCode=30|XSize=0.2mm|YSize=0.565mm|CornerRadius=0.05mm|HoleSize=0mm|Usage=FLASHONLY|Rotation=0.000|XOffset=0mm|YOffset=0mm|HoleType=Round|Shape=RoundedRectangle|*
%AMROUNDEDRECTD30*
21,1,0.2000,0.4650,0,0,0.0*
21,1,0.1000,0.5650,0,0,0.0*
1,1,0.1000,0.0500,-0.2325*
1,1,0.1000,-0.0500,-0.2325*
1,1,0.1000,-0.0500,0.2325*
1,1,0.1000,0.0500,0.2325*
%
%ADD30ROUNDEDRECTD30*%
G04:AMPARAMS|DCode=31|XSize=0.4mm|YSize=0.565mm|CornerRadius=0.05mm|HoleSize=0mm|Usage=FLASHONLY|Rotation=0.000|XOffset=0mm|YOffset=0mm|HoleType=Round|Shape=RoundedRectangle|*
%AMROUNDEDRECTD31*
21,1,0.4000,0.4650,0,0,0.0*
21,1,0.3000,0.5650,0,0,0.0*
1,1,0.1000,0.1500,-0.2325*
1,1,0.1000,-0.1500,-0.2325*
1,1,0.1000,-0.1500,0.2325*
1,1,0.1000,0.1500,0.2325*
%
%ADD31ROUNDEDRECTD31*%
%ADD32R,0.8000X0.8000*%
%ADD33R,2.1590X2.7430*%
%ADD34R,1.0000X0.9000*%
%ADD35R,2.0000X1.5000*%
%ADD66C,0.5080*%
%ADD68C,0.1270*%
%ADD69C,1.0000*%
%ADD70C,0.7000*%
%ADD71C,0.1580*%
%ADD72C,0.3810*%
%ADD73C,0.1524*%
%ADD74C,0.1778*%
%ADD75C,0.2032*%
%ADD76C,0.2500*%
%ADD77C,0.5080*%
%ADD78C,5.3000*%
%ADD79C,5.5000*%
%ADD80O,1.9000X1.1000*%
%ADD81O,2.4000X1.1000*%
%ADD82R,1.3680X1.3680*%
%ADD83C,1.3680*%
%ADD84C,1.8000*%
%ADD85O,2.5000X4.5000*%
%ADD86O,2.5000X5.0000*%
%ADD87O,4.5000X2.5000*%
%ADD88C,1.5240*%
%ADD89C,0.4064*%
G36*
X575106Y395669D02*
X578413Y394782D01*
X581575Y393473D01*
X584540Y391761D01*
X587256Y389677D01*
X589677Y387256D01*
X591761Y384540D01*
X593472Y381575D01*
X594783Y378413D01*
X595669Y375106D01*
X596115Y371712D01*
X596115Y370000D01*
Y30000D01*
Y28288D01*
X595669Y24894D01*
X594783Y21587D01*
X593473Y18425D01*
X591761Y15460D01*
X589677Y12744D01*
X587256Y10323D01*
X584540Y8239D01*
X581575Y6528D01*
X578413Y5217D01*
X575106Y4331D01*
X571712Y3884D01*
X28288D01*
X24894Y4331D01*
X21587Y5217D01*
X18425Y6528D01*
X15460Y8239D01*
X12744Y10323D01*
X10323Y12744D01*
X8239Y15460D01*
X6528Y18425D01*
X5217Y21587D01*
X4331Y24894D01*
X3884Y28288D01*
Y30000D01*
Y370000D01*
Y371712D01*
X4331Y375106D01*
X5217Y378413D01*
X6528Y381575D01*
X8239Y384540D01*
X10323Y387256D01*
X12744Y389677D01*
X15460Y391761D01*
X18425Y393472D01*
X21587Y394783D01*
X24894Y395669D01*
X28288Y396115D01*
X30000Y396115D01*
X570000Y396115D01*
X571712D01*
X575106Y395669D01*
D02*
G37*
%LPC*%
G36*
X243868Y387472D02*
X231803D01*
Y372487D01*
X243868D01*
Y387472D01*
D02*
G37*
G36*
X223500Y394607D02*
X222311Y394370D01*
X221303Y393697D01*
X220629Y392688D01*
X220392Y391499D01*
X220629Y390310D01*
X221303Y389302D01*
X222140Y388742D01*
X222123Y388059D01*
X221929Y387472D01*
X217198D01*
Y372487D01*
X229263D01*
Y387472D01*
X225071D01*
X224877Y388059D01*
X224860Y388742D01*
X225697Y389302D01*
X226371Y390310D01*
X226608Y391499D01*
X226371Y392688D01*
X225697Y393697D01*
X224689Y394370D01*
X223500Y394607D01*
D02*
G37*
G36*
X493240Y381270D02*
X479970D01*
Y368000D01*
X493240D01*
Y381270D01*
D02*
G37*
G36*
X326240Y381270D02*
X312970D01*
Y368000D01*
X326240D01*
Y381270D01*
D02*
G37*
G36*
X477430Y381270D02*
X464160D01*
Y368000D01*
X477430D01*
Y381270D01*
D02*
G37*
G36*
X310430Y381270D02*
X297160D01*
Y368000D01*
X310430D01*
Y381270D01*
D02*
G37*
G36*
X503150Y388833D02*
X410349D01*
X409705Y388705D01*
X409159Y388340D01*
X371589Y350770D01*
X368970D01*
Y340230D01*
Y329690D01*
X371017D01*
Y320100D01*
X371145Y319456D01*
X371420Y319044D01*
X371292Y318400D01*
X371529Y317211D01*
X372202Y316203D01*
X373211Y315529D01*
X374400Y315292D01*
X375589Y315529D01*
X376598Y316203D01*
X377271Y317211D01*
X377508Y318400D01*
X377430Y318791D01*
X377844Y319848D01*
X378369Y320085D01*
X379089Y320229D01*
X380098Y320902D01*
X380771Y321911D01*
X381008Y323100D01*
X380771Y324289D01*
X380098Y325298D01*
X379483Y325708D01*
Y329690D01*
X381430D01*
Y340230D01*
Y350770D01*
X378660D01*
Y349246D01*
X376485D01*
X375999Y350419D01*
X411046Y385467D01*
X502453D01*
X512609Y375310D01*
X512233Y374747D01*
X511766Y372400D01*
X512233Y370053D01*
X513563Y368063D01*
X515553Y366733D01*
X517900Y366266D01*
X520247Y366733D01*
X522237Y368063D01*
X523567Y370053D01*
X524034Y372400D01*
X523567Y374747D01*
X522237Y376737D01*
X520247Y378067D01*
X517900Y378534D01*
X515553Y378067D01*
X514990Y377691D01*
X504340Y388340D01*
X503794Y388705D01*
X503150Y388833D01*
D02*
G37*
G36*
X278700Y390811D02*
X275824Y390432D01*
X273144Y389323D01*
X270843Y387557D01*
X269077Y385256D01*
X267968Y382576D01*
X267589Y379700D01*
X267968Y376824D01*
X269077Y374145D01*
X270843Y371843D01*
X273144Y370078D01*
X275824Y368968D01*
X275529Y367783D01*
X266100D01*
X265456Y367655D01*
X264910Y367290D01*
X261710Y364091D01*
X261147Y364467D01*
X258800Y364934D01*
X256453Y364467D01*
X254463Y363137D01*
X253133Y361147D01*
X252666Y358800D01*
X252983Y357207D01*
X252011Y356120D01*
X251958Y356099D01*
X250811Y355871D01*
X249802Y355197D01*
X249129Y354189D01*
X248892Y353000D01*
X249129Y351811D01*
X249802Y350802D01*
X250811Y350129D01*
X252000Y349892D01*
X253189Y350129D01*
X254198Y350802D01*
X254871Y351811D01*
X255021Y352562D01*
X256058Y353158D01*
X256345Y353205D01*
X256453Y353133D01*
X258800Y352666D01*
X261147Y353133D01*
X263137Y354463D01*
X264467Y356453D01*
X264934Y358800D01*
X264467Y361147D01*
X264091Y361710D01*
X266797Y364417D01*
X274490D01*
X274859Y363201D01*
X274763Y363137D01*
X273433Y361147D01*
X272966Y358800D01*
X273433Y356453D01*
X274763Y354463D01*
X276753Y353133D01*
X279100Y352666D01*
X281447Y353133D01*
X283437Y354463D01*
X283453Y354486D01*
X284716Y354610D01*
X322035Y317292D01*
X322581Y316927D01*
X323225Y316799D01*
X331659D01*
X332437Y315529D01*
X332292Y314799D01*
X332528Y313610D01*
X333202Y312602D01*
X333657Y312298D01*
Y241892D01*
X332387Y241214D01*
X332081Y241418D01*
X330892Y241654D01*
X329703Y241418D01*
X328694Y240744D01*
X328021Y239736D01*
X327902Y239139D01*
X326917Y238443D01*
X326559Y238400D01*
X325602Y238591D01*
X324412Y238354D01*
X323404Y237680D01*
X322730Y236672D01*
X322494Y235483D01*
X322730Y234294D01*
X323404Y233286D01*
X324412Y232612D01*
X325602Y232375D01*
X326791Y232612D01*
X327799Y233286D01*
X328473Y234294D01*
X328591Y234890D01*
X329577Y235586D01*
X329935Y235629D01*
X330892Y235439D01*
X332081Y235675D01*
X332387Y235879D01*
X333657Y235201D01*
Y232960D01*
X333785Y232316D01*
X334150Y231770D01*
X374317Y191603D01*
Y156600D01*
X374445Y155956D01*
X374810Y155410D01*
X379992Y150227D01*
Y110841D01*
X379478Y110497D01*
X378804Y109489D01*
X378568Y108300D01*
X378804Y107111D01*
X379478Y106102D01*
X380486Y105429D01*
X381675Y105192D01*
X383028Y104211D01*
X383702Y103202D01*
X384710Y102529D01*
X385527Y102366D01*
X385999Y101332D01*
X386027Y101070D01*
X381875Y96918D01*
X380386Y96714D01*
X379200Y96950D01*
X378970D01*
Y91525D01*
X377595D01*
Y93850D01*
X377260Y95532D01*
X376430Y96775D01*
Y96950D01*
X376312D01*
X376307Y96957D01*
X375875Y97246D01*
Y125965D01*
X375875Y125965D01*
X375530Y127699D01*
X374548Y129170D01*
X365846Y137871D01*
Y178919D01*
X365501Y180653D01*
X364519Y182124D01*
X364519Y182124D01*
X250268Y296374D01*
X248798Y297357D01*
X247063Y297702D01*
X236268D01*
X236268Y297702D01*
X236135Y297675D01*
X222710D01*
Y298710D01*
X221440D01*
Y301440D01*
X209360D01*
Y298710D01*
X208090D01*
Y289004D01*
X206820Y288117D01*
X205232Y288433D01*
X202953Y287980D01*
X201020Y286688D01*
X200343Y285675D01*
X191910D01*
Y298710D01*
X190640D01*
Y301440D01*
X178560D01*
Y298710D01*
X177290D01*
X176226Y299206D01*
X175068Y299979D01*
X172789Y300433D01*
X170510Y299979D01*
X168577Y298688D01*
X167286Y296756D01*
X166833Y294477D01*
X167286Y292197D01*
X167418Y292000D01*
X167286Y291803D01*
X166833Y289524D01*
X167286Y287244D01*
X168577Y285312D01*
X170510Y284021D01*
X172789Y283567D01*
X175068Y284021D01*
X176020Y284656D01*
X177290Y283977D01*
Y273290D01*
Y261290D01*
X178560D01*
Y259648D01*
X171978D01*
X171619Y260185D01*
X170611Y260858D01*
X169421Y261095D01*
X168232Y260858D01*
X167224Y260185D01*
X166550Y259177D01*
X166314Y257987D01*
X166550Y256798D01*
X167224Y255790D01*
X168224Y255121D01*
X168233Y255116D01*
X169128Y254189D01*
X168892Y252999D01*
X169128Y251810D01*
X169802Y250802D01*
X170810Y250128D01*
X172000Y249892D01*
X173189Y250128D01*
X174197Y250802D01*
X174871Y251810D01*
X174972Y252317D01*
X178560D01*
Y251270D01*
X184600D01*
X190640D01*
Y253440D01*
X189116D01*
Y255916D01*
X189116D01*
Y256084D01*
X189116D01*
Y258560D01*
X190640D01*
Y258993D01*
X191262Y259504D01*
X193542Y259957D01*
X195474Y261248D01*
X196765Y263181D01*
X197218Y265460D01*
X196765Y267740D01*
X196591Y268000D01*
X196765Y268261D01*
X197218Y270540D01*
X196765Y272819D01*
X196508Y273205D01*
X197106Y274325D01*
X200343D01*
X201020Y273312D01*
X202953Y272020D01*
X205232Y271567D01*
X206820Y271883D01*
X208090Y270996D01*
Y261290D01*
X209360D01*
Y258560D01*
X210884D01*
Y256084D01*
X210884D01*
Y255916D01*
X210884D01*
Y253440D01*
X209360D01*
Y251270D01*
X215400D01*
Y248730D01*
X209360D01*
Y246741D01*
X207038Y244419D01*
X205660Y244837D01*
X205621Y245032D01*
X204948Y246040D01*
X203940Y246714D01*
X202750Y246950D01*
X202157Y246833D01*
X201800Y247190D01*
X201254Y247555D01*
X200609Y247683D01*
X190640D01*
Y248730D01*
X184600D01*
X178560D01*
Y246560D01*
X178560D01*
Y245440D01*
X178560D01*
Y243270D01*
X184600D01*
Y240730D01*
X178560D01*
Y238560D01*
X180084D01*
Y236084D01*
X180084D01*
Y235916D01*
X180084D01*
Y232084D01*
X180084D01*
Y231916D01*
X180084Y231916D01*
X180084Y228084D01*
X178980Y227683D01*
X154770D01*
X131035Y251418D01*
X130489Y251783D01*
X129845Y251911D01*
X111446D01*
X111331Y252488D01*
X110672Y253475D01*
X109684Y254134D01*
X108637Y254343D01*
X108520Y254366D01*
X107377D01*
D01*
X107277Y254346D01*
X106213Y254134D01*
X105225Y253475D01*
X104844Y252904D01*
X104784Y252882D01*
X103493D01*
X103433Y252904D01*
X103052Y253475D01*
X102065Y254134D01*
X101017Y254343D01*
X100900Y254366D01*
X99757D01*
D01*
X99657Y254346D01*
X98593Y254134D01*
X97605Y253475D01*
X97261Y252960D01*
X97108Y252913D01*
X95845Y252968D01*
X95432Y253586D01*
X94445Y254245D01*
X93397Y254454D01*
X93280Y254477D01*
X92137D01*
D01*
X92037Y254457D01*
X90972Y254245D01*
X89985Y253586D01*
X89326Y252599D01*
X89189Y251911D01*
X74486D01*
X73842Y251783D01*
X73295Y251418D01*
X69415Y247538D01*
X68832Y247927D01*
X67667Y248159D01*
X66503Y247927D01*
X65615Y247334D01*
X65516Y247268D01*
Y247268D01*
X64707Y246459D01*
X64708D01*
X64651Y246375D01*
X64048Y245472D01*
X63816Y244308D01*
X63950Y243635D01*
X63923Y243576D01*
X63011Y242664D01*
X62952Y242637D01*
X62279Y242771D01*
X61115Y242539D01*
X60227Y241946D01*
X60128Y241879D01*
Y241879D01*
X59319Y241071D01*
X59319D01*
X59263Y240987D01*
X58660Y240084D01*
X58428Y238919D01*
X58562Y238246D01*
X58535Y238188D01*
X57623Y237276D01*
X57564Y237249D01*
X56891Y237383D01*
X55727Y237151D01*
X54839Y236558D01*
X54739Y236491D01*
Y236491D01*
X53931Y235683D01*
X53931D01*
X53875Y235599D01*
X53272Y234696D01*
X53040Y233531D01*
X53272Y232367D01*
X53902Y231423D01*
X53855Y231229D01*
X53305Y230247D01*
X53299Y230248D01*
X52252Y230040D01*
X52184Y230027D01*
X51239Y229395D01*
X51256Y229378D01*
X48561Y226683D01*
X37541D01*
X37197Y227197D01*
X36189Y227871D01*
X35000Y228108D01*
X33811Y227871D01*
X32803Y227197D01*
X32129Y226189D01*
X31892Y225000D01*
X32129Y223811D01*
X32803Y222803D01*
X33811Y222129D01*
X35000Y221892D01*
X36189Y222129D01*
X37197Y222803D01*
X37541Y223317D01*
X49258D01*
X49902Y223445D01*
X50448Y223810D01*
X53348Y226709D01*
X53931Y226320D01*
X55095Y226088D01*
X56260Y226320D01*
X57147Y226913D01*
X57247Y226979D01*
Y226979D01*
X58055Y227787D01*
X58055D01*
X58112Y227872D01*
X58715Y228775D01*
X58946Y229939D01*
X58812Y230612D01*
X58840Y230671D01*
X59752Y231583D01*
X59810Y231610D01*
X60483Y231476D01*
X61648Y231708D01*
X62536Y232301D01*
X62635Y232367D01*
Y232367D01*
X63443Y233176D01*
X63443D01*
X63500Y233260D01*
X64103Y234163D01*
X64335Y235327D01*
X64201Y236000D01*
X64228Y236059D01*
X65140Y236971D01*
X65198Y236998D01*
X65872Y236864D01*
X67036Y237096D01*
X67924Y237689D01*
X68023Y237756D01*
X68023D01*
X68830Y238563D01*
X68832Y238564D01*
X68832Y238564D01*
X69491Y239551D01*
X69723Y240715D01*
X69491Y241880D01*
X68861Y242823D01*
X68908Y243018D01*
X69458Y243999D01*
X69464Y243998D01*
X70511Y244207D01*
X70578Y244220D01*
X71524Y244852D01*
X71507Y244868D01*
X75183Y248544D01*
X89597D01*
Y248521D01*
X90712Y248742D01*
X90769Y248781D01*
X91657Y249374D01*
X91660Y249379D01*
X92511Y249214D01*
X92931Y248995D01*
X93136Y247968D01*
X93795Y246981D01*
X94782Y246321D01*
X95830Y246113D01*
X95947Y246089D01*
X97090D01*
D01*
X97190Y246109D01*
X98254Y246321D01*
X99242Y246981D01*
X99623Y247551D01*
X99683Y247573D01*
X100974D01*
X101034Y247551D01*
X101415Y246981D01*
X102402Y246321D01*
X103450Y246113D01*
X103567Y246089D01*
X104710D01*
D01*
X104810Y246109D01*
X105875Y246321D01*
X106862Y246981D01*
X107521Y247968D01*
X107726Y248995D01*
X108146Y249214D01*
X108997Y249379D01*
X109000Y249374D01*
X109888Y248781D01*
X109945Y248742D01*
X111060Y248521D01*
Y248544D01*
X129147D01*
X152882Y224810D01*
X152920Y224784D01*
X152995Y224447D01*
X152893Y223355D01*
X152647Y223190D01*
X145197Y215741D01*
X141794D01*
X141657Y216428D01*
X140997Y217416D01*
X140010Y218075D01*
X138963Y218283D01*
X138846Y218307D01*
X137703D01*
D01*
X137603Y218287D01*
X136538Y218075D01*
X135551Y217416D01*
X135170Y216845D01*
X135109Y216823D01*
X133819D01*
X133759Y216845D01*
X133378Y217416D01*
X132390Y218075D01*
X131343Y218283D01*
X131226Y218307D01*
X130083D01*
D01*
X129983Y218287D01*
X128918Y218075D01*
X127931Y217416D01*
X127550Y216845D01*
X127489Y216823D01*
X126199D01*
X126139Y216845D01*
X125758Y217416D01*
X124770Y218075D01*
X123723Y218283D01*
X123606Y218307D01*
X122463D01*
D01*
X122363Y218287D01*
X121298Y218075D01*
X120311Y217416D01*
X119651Y216428D01*
X119515Y215741D01*
X94433D01*
X94350Y216157D01*
X93691Y217145D01*
X92703Y217804D01*
X91656Y218013D01*
X91539Y218036D01*
X90396D01*
D01*
X90296Y218016D01*
X89231Y217804D01*
X88244Y217145D01*
X87863Y216574D01*
X87802Y216552D01*
X86512D01*
X86452Y216574D01*
X86070Y217145D01*
X85083Y217804D01*
X84036Y218013D01*
X83919Y218036D01*
X82776D01*
D01*
X82676Y218016D01*
X81611Y217804D01*
X80624Y217145D01*
X80139Y216418D01*
X79147Y216243D01*
X78696Y216291D01*
X78450Y216659D01*
X77515Y217284D01*
X77451Y217338D01*
X76761Y218442D01*
X76795Y218614D01*
X76998Y219631D01*
X76761Y220821D01*
X76087Y221829D01*
X75079Y222503D01*
X73890Y222739D01*
X72701Y222503D01*
X71692Y221829D01*
X71019Y220821D01*
X70782Y219631D01*
X70995Y218562D01*
X70734Y218243D01*
X69977Y217715D01*
X69843Y217804D01*
X68796Y218013D01*
X68679Y218036D01*
X67536D01*
D01*
X67436Y218016D01*
X66371Y217804D01*
X65384Y217145D01*
X65003Y216574D01*
X64942Y216552D01*
X63652D01*
X63592Y216574D01*
X63211Y217145D01*
X62223Y217804D01*
X61176Y218013D01*
X61059Y218036D01*
X59916D01*
D01*
X59816Y218016D01*
X58751Y217804D01*
X57764Y217145D01*
X57104Y216157D01*
X56925Y215253D01*
X56152Y214942D01*
X55629Y214906D01*
X55626Y214911D01*
X54738Y215504D01*
X54681Y215543D01*
X53566Y215764D01*
Y215741D01*
X49057D01*
X48413Y215612D01*
X47867Y215248D01*
X45349Y212729D01*
X44762Y212857D01*
X44061Y213237D01*
X43871Y214189D01*
X43197Y215198D01*
X42189Y215871D01*
X41000Y216108D01*
X39811Y215871D01*
X38802Y215198D01*
X38129Y214189D01*
X37892Y213000D01*
X38129Y211811D01*
X38802Y210802D01*
X39811Y210129D01*
X40763Y209939D01*
X41143Y209238D01*
X41271Y208651D01*
X35607Y202987D01*
X35000Y203108D01*
X33811Y202871D01*
X32803Y202197D01*
X32129Y201189D01*
X31892Y200000D01*
X31964Y199637D01*
X31149Y198488D01*
X30134Y198397D01*
X28233Y200297D01*
Y228853D01*
X34393Y235013D01*
X35000Y234892D01*
X36189Y235129D01*
X37197Y235802D01*
X37871Y236811D01*
X38108Y238000D01*
X37871Y239189D01*
X37197Y240198D01*
X36189Y240871D01*
X35000Y241108D01*
X33811Y240871D01*
X32803Y240198D01*
X32129Y239189D01*
X31892Y238000D01*
X32013Y237393D01*
X25905Y231286D01*
X24635Y231812D01*
Y238080D01*
X51383Y264827D01*
X51705Y265605D01*
Y293780D01*
X61477Y303553D01*
X83134D01*
X83631Y303759D01*
X84901Y303205D01*
Y264518D01*
X85223Y263740D01*
X91080Y257883D01*
X91857Y257561D01*
X111416D01*
X111559Y257621D01*
X111712Y257602D01*
X111934Y257776D01*
X112194Y257883D01*
X112861Y258188D01*
X113585Y258288D01*
X117651Y254222D01*
X118429Y253900D01*
X130000D01*
X130250Y253867D01*
X130500Y253900D01*
X136414D01*
X136711Y254023D01*
X137025Y254086D01*
X137042Y254097D01*
X138000Y254287D01*
X138958Y254097D01*
X138975Y254086D01*
X139290Y254023D01*
X139586Y253900D01*
X143499D01*
X144276Y254222D01*
X147778Y257724D01*
X148100Y258501D01*
X148100Y309779D01*
X149593Y311272D01*
X150820Y311151D01*
X152809Y309821D01*
X155157Y309354D01*
X157504Y309821D01*
X159494Y311151D01*
X160824Y313141D01*
X161291Y315488D01*
X160974Y317078D01*
X161633Y318198D01*
X161829Y318354D01*
X162156Y318529D01*
X162499Y318671D01*
X162521Y318724D01*
X162572Y318751D01*
X162942Y319202D01*
X163021Y319461D01*
X163171Y319685D01*
X163365Y320660D01*
X163795Y321305D01*
X164440Y321735D01*
X165200Y321886D01*
X165960Y321735D01*
X166679Y321255D01*
X166993Y321193D01*
X167290Y321070D01*
X167393Y321113D01*
X167504Y321091D01*
X167771Y321269D01*
X168067Y321392D01*
X179016Y332341D01*
X179338Y333118D01*
X179338Y356486D01*
X198144D01*
Y385948D01*
X174522D01*
Y385640D01*
X166101D01*
X165323Y385318D01*
X151110Y371104D01*
X151089Y371054D01*
X151041Y371029D01*
X151041Y371028D01*
X150931Y370672D01*
X150787Y370326D01*
X150808Y370277D01*
X150792Y370225D01*
X150813Y369997D01*
X150813Y369997D01*
X150899Y369833D01*
X150905Y369648D01*
X151384Y368581D01*
X151454Y368514D01*
X151473Y368420D01*
X151752Y368233D01*
X151996Y368003D01*
X152093Y368006D01*
X152173Y367952D01*
X152760Y367835D01*
X153405Y367405D01*
X153835Y366760D01*
X153987Y366000D01*
X153835Y365240D01*
X153405Y364595D01*
X152760Y364165D01*
X152000Y364013D01*
X151240Y364165D01*
X150595Y364595D01*
X150165Y365240D01*
X150106Y365536D01*
X149928Y365803D01*
X149805Y366099D01*
X149701Y366142D01*
X149638Y366236D01*
X149324Y366298D01*
X149027Y366421D01*
X147732D01*
X147656Y366462D01*
X147571Y366889D01*
X146897Y367897D01*
X146569Y368117D01*
X146837Y369465D01*
X147189Y369535D01*
X148197Y370209D01*
X148871Y371217D01*
X149108Y372406D01*
X148871Y373596D01*
X149024Y375162D01*
X149698Y376170D01*
X149935Y377359D01*
X149698Y378549D01*
X149024Y379557D01*
X148016Y380230D01*
X147165Y380400D01*
X147181Y382321D01*
X147179Y382325D01*
X147181Y382330D01*
X147022Y382714D01*
X146865Y383101D01*
X146860Y383103D01*
X146859Y383107D01*
X143574Y386392D01*
X143407Y386461D01*
X143288Y386598D01*
X143033Y386616D01*
X142796Y386714D01*
X142540D01*
Y387540D01*
X136270D01*
Y380500D01*
X133730D01*
Y387540D01*
X127460D01*
Y386714D01*
X101069Y386714D01*
X100291Y386392D01*
X92078Y378179D01*
X91756Y377402D01*
Y368744D01*
X83098D01*
X82321Y368422D01*
X73173Y359274D01*
X71786Y359202D01*
X71545Y359299D01*
X70689Y359871D01*
X69500Y360108D01*
X68311Y359871D01*
X67302Y359198D01*
X66629Y358189D01*
X66392Y357000D01*
X66490Y356508D01*
X58993Y349010D01*
X58347Y349441D01*
X56000Y349908D01*
X53653Y349441D01*
X51663Y348112D01*
X50333Y346122D01*
X49866Y343775D01*
X50333Y341427D01*
X51663Y339437D01*
X53450Y338243D01*
X53376Y337347D01*
X53239Y336973D01*
X45805D01*
X45478Y338617D01*
X44148Y340607D01*
X42158Y341937D01*
X39811Y342404D01*
X37463Y341937D01*
X35473Y340607D01*
X34144Y338617D01*
X33677Y336270D01*
X34144Y333923D01*
X35473Y331933D01*
X37463Y330603D01*
X39811Y330136D01*
X42158Y330603D01*
X44148Y331933D01*
X45266Y333606D01*
X61292D01*
X61936Y333734D01*
X62482Y334099D01*
X70474Y342091D01*
X80629D01*
X80972Y341577D01*
X81980Y340903D01*
X82851Y340730D01*
X84018Y340229D01*
X84160Y339887D01*
X84267Y339532D01*
X84318Y339505D01*
X84340Y339452D01*
X84901Y338890D01*
Y321919D01*
X84501Y321652D01*
X70445D01*
X70292Y321589D01*
X70126Y321605D01*
X69917Y321433D01*
X69668Y321330D01*
X69604Y321176D01*
X69475Y321071D01*
X68797Y319801D01*
X68780Y319635D01*
X68688Y319497D01*
X68741Y319232D01*
X68714Y318963D01*
X68820Y318835D01*
X68852Y318672D01*
X69013Y318431D01*
X69204Y317473D01*
X69013Y316514D01*
X68470Y315702D01*
X67657Y315159D01*
X66699Y314968D01*
X65741Y315159D01*
X64928Y315702D01*
X64385Y316514D01*
X64195Y317473D01*
X64385Y318431D01*
X64546Y318672D01*
X64578Y318835D01*
X64684Y318963D01*
X64658Y319232D01*
X64710Y319497D01*
X64618Y319635D01*
X64601Y319801D01*
X63923Y321071D01*
X63794Y321176D01*
X63730Y321330D01*
X63481Y321433D01*
X63272Y321605D01*
X63106Y321589D01*
X62953Y321652D01*
X42849D01*
X42072Y321330D01*
X8009Y287268D01*
X7687Y286490D01*
Y190675D01*
X8009Y189898D01*
X29400Y168507D01*
Y161647D01*
X29722Y160870D01*
X35370Y155222D01*
X36147Y154900D01*
X53000D01*
X53460Y154593D01*
Y152270D01*
X58230D01*
Y158540D01*
X57583D01*
X57206Y159106D01*
Y177894D01*
X56883Y178672D01*
X55883Y179672D01*
X62298Y186086D01*
X63901Y185767D01*
X66248Y186234D01*
X68238Y187564D01*
X69146Y188923D01*
X78358D01*
X79498Y189149D01*
X80464Y189795D01*
X85152Y194483D01*
X98770D01*
X99909Y194710D01*
X100876Y195356D01*
X102542Y197022D01*
X139998D01*
X141137Y197248D01*
X142104Y197894D01*
X145144Y200935D01*
X145696Y201303D01*
X145780Y201429D01*
X175301D01*
X175301Y201429D01*
X176094Y201587D01*
X176766Y202036D01*
X178658Y203928D01*
X178819D01*
X180084Y203916D01*
Y201186D01*
X180084Y200084D01*
X180084D01*
Y199916D01*
X180084D01*
Y196084D01*
X180084Y196084D01*
Y195916D01*
X180084D01*
X180084Y194814D01*
Y193440D01*
X178560D01*
Y191270D01*
X184600D01*
Y188730D01*
X178560D01*
Y187270D01*
X184600D01*
X190640D01*
Y190944D01*
X191567Y191129D01*
X192575Y191803D01*
X193249Y192811D01*
X193433Y193736D01*
X193715Y194205D01*
X194585Y194983D01*
X195317Y195129D01*
X196325Y195802D01*
X196999Y196811D01*
X197236Y198000D01*
X196999Y199189D01*
X196325Y200198D01*
X195317Y200871D01*
X194585Y201017D01*
X193715Y201795D01*
X193433Y202264D01*
X193249Y203189D01*
X192575Y204198D01*
X191567Y204871D01*
X191371Y204910D01*
X190534Y206335D01*
X190615Y206560D01*
X190640D01*
Y208730D01*
X184600D01*
X178560D01*
Y208072D01*
X177800D01*
X177007Y207914D01*
X176335Y207465D01*
X176335Y207465D01*
X174443Y205573D01*
X150281D01*
X150227Y206821D01*
X150871Y206949D01*
X151418Y207314D01*
X160421Y216317D01*
X178560D01*
Y215270D01*
X184600D01*
X190640D01*
Y215384D01*
X191759Y216096D01*
X191910Y216109D01*
X193000Y215892D01*
X193690Y216029D01*
X194293Y216015D01*
X195055Y215180D01*
X195129Y214811D01*
X195802Y213803D01*
X196811Y213129D01*
X198000Y212892D01*
X199189Y213129D01*
X199702Y213472D01*
X201042Y213036D01*
X201093Y212990D01*
X201128Y212810D01*
X201802Y211802D01*
X202810Y211128D01*
X204000Y210892D01*
X205189Y211128D01*
X206197Y211802D01*
X206871Y212810D01*
X207107Y214000D01*
X206871Y215189D01*
X206197Y216197D01*
X206141Y216761D01*
X209614Y220233D01*
X210145Y220184D01*
X210884Y219916D01*
X210884Y218814D01*
Y217440D01*
X209360D01*
Y215270D01*
X215400D01*
X221440D01*
Y215875D01*
X222585Y216658D01*
X223000Y216575D01*
X224189Y216812D01*
X225198Y217486D01*
X225871Y218494D01*
X226108Y219683D01*
X225871Y220872D01*
X225198Y221880D01*
X224189Y222554D01*
X223000Y222791D01*
X221811Y222554D01*
X221186Y222137D01*
X219982Y222638D01*
X219916Y222699D01*
X219916Y223916D01*
X219916Y225186D01*
Y227916D01*
X219916D01*
Y228084D01*
X219916D01*
Y231916D01*
X219916Y231916D01*
Y232084D01*
X219916D01*
X219916Y233186D01*
Y235916D01*
X219916Y235916D01*
Y236084D01*
X219916D01*
X219916Y237186D01*
Y238560D01*
X221440D01*
Y240730D01*
X215400D01*
Y243270D01*
X221440D01*
Y245440D01*
X221440D01*
Y246560D01*
X221440D01*
Y249218D01*
X222613Y249704D01*
X228309Y244008D01*
Y238590D01*
X225006Y235287D01*
X224400Y235407D01*
X223210Y235171D01*
X222202Y234497D01*
X221528Y233489D01*
X221292Y232299D01*
X221528Y231110D01*
X222202Y230102D01*
X223210Y229428D01*
X223517Y229367D01*
X224658Y228596D01*
X224895Y227406D01*
X225568Y226398D01*
X226576Y225724D01*
X227766Y225488D01*
X228955Y225724D01*
X229963Y226398D01*
X230637Y227406D01*
X230686Y227442D01*
X232015Y227827D01*
X232611Y227429D01*
X233800Y227192D01*
X234989Y227429D01*
X235998Y228102D01*
X236671Y229111D01*
X236908Y230300D01*
X236671Y231489D01*
X235998Y232498D01*
X234989Y233171D01*
X234433Y233282D01*
X233962Y233987D01*
Y246420D01*
X233834Y247064D01*
X233469Y247610D01*
X221888Y259190D01*
X221440Y259490D01*
Y261290D01*
X222710D01*
Y262325D01*
X225194D01*
X226234Y260768D01*
X228250Y259421D01*
X230627Y258948D01*
X233004Y259421D01*
X235020Y260768D01*
X235066Y260836D01*
X236330Y260961D01*
X305082Y192209D01*
Y161675D01*
X305082Y161675D01*
Y159897D01*
X305103Y159791D01*
X305408Y157477D01*
X306341Y155223D01*
X307827Y153287D01*
X307977Y153172D01*
Y151902D01*
X307827Y151787D01*
X306341Y149851D01*
X305408Y147596D01*
X305103Y145282D01*
X305082Y145177D01*
Y136875D01*
X305082Y136875D01*
Y115261D01*
X305427Y113527D01*
X306409Y112056D01*
X319181Y99284D01*
X320652Y98302D01*
X322386Y97957D01*
X323611D01*
X324288Y96944D01*
X326221Y95653D01*
X328500Y95199D01*
X330779Y95653D01*
X332430Y96756D01*
X333346Y95840D01*
X333140Y95532D01*
X332806Y93850D01*
Y89200D01*
X333140Y87518D01*
X333252Y87350D01*
X333140Y87182D01*
X332806Y85500D01*
Y80850D01*
X333140Y79168D01*
X334093Y77743D01*
X334525Y77454D01*
Y74724D01*
X334500Y74597D01*
Y71580D01*
X332390D01*
Y70310D01*
X328660D01*
Y49230D01*
X332390D01*
Y47960D01*
X378010D01*
Y49230D01*
X381740D01*
Y50754D01*
X403660D01*
Y49230D01*
X406430D01*
Y59770D01*
Y70310D01*
X403660D01*
Y68786D01*
X381740D01*
Y70310D01*
X378010D01*
Y71580D01*
X375850D01*
Y73548D01*
X375875Y73675D01*
Y77454D01*
X376307Y77743D01*
X376312Y77750D01*
X376430D01*
Y77925D01*
X377260Y79168D01*
X377595Y80850D01*
Y83175D01*
X378970D01*
Y77750D01*
X379200D01*
X380386Y77986D01*
X381452Y77171D01*
X381510Y77085D01*
X384710Y73885D01*
X385256Y73520D01*
X385900Y73392D01*
X400500D01*
X401144Y73520D01*
X401690Y73885D01*
X405097Y77292D01*
X411003D01*
X412348Y75946D01*
Y72299D01*
X411484Y71435D01*
X411119Y70889D01*
X411004Y70310D01*
X408970D01*
Y59770D01*
Y49230D01*
X411740D01*
Y50754D01*
X418660D01*
Y49230D01*
X421430D01*
Y59770D01*
Y70310D01*
X419345D01*
X419230Y70889D01*
X418865Y71435D01*
X418001Y72299D01*
Y77590D01*
X417873Y78235D01*
X417508Y78781D01*
X413837Y82451D01*
X413291Y82816D01*
X412647Y82944D01*
X403453D01*
X402809Y82816D01*
X402263Y82451D01*
X398970Y79158D01*
X390456D01*
X389666Y80428D01*
X389841Y80850D01*
Y85500D01*
X389383Y86605D01*
Y88095D01*
X389841Y89200D01*
Y93604D01*
X392022Y95785D01*
X392067Y95852D01*
X392556Y95949D01*
X393564Y96623D01*
X394237Y97631D01*
X394474Y98821D01*
X394353Y99427D01*
X396190Y101264D01*
X396555Y101810D01*
X396683Y102455D01*
Y110683D01*
X399077Y113077D01*
X420826D01*
X434713Y99190D01*
X435260Y98825D01*
X435904Y98696D01*
X470523D01*
X482817Y86403D01*
Y61116D01*
X482945Y60472D01*
X483310Y59926D01*
X500616Y42619D01*
X499633Y41147D01*
X499166Y38800D01*
X499633Y36453D01*
X500963Y34463D01*
X502953Y33133D01*
X505300Y32666D01*
X507647Y33133D01*
X509637Y34463D01*
X510967Y36453D01*
X511434Y38800D01*
X510967Y41147D01*
X509765Y42947D01*
X510134Y44217D01*
X520903D01*
X523409Y41710D01*
X523033Y41147D01*
X522566Y38800D01*
X523033Y36453D01*
X524363Y34463D01*
X526353Y33133D01*
X528700Y32666D01*
X531047Y33133D01*
X533037Y34463D01*
X534367Y36453D01*
X534834Y38800D01*
X534367Y41147D01*
X533037Y43137D01*
X531047Y44467D01*
X528700Y44934D01*
X526353Y44467D01*
X525790Y44091D01*
X522790Y47090D01*
X522244Y47455D01*
X521600Y47583D01*
X503997D01*
X488717Y62863D01*
Y88150D01*
X488589Y88794D01*
X488224Y89340D01*
X472774Y104790D01*
X472228Y105155D01*
X471584Y105283D01*
X437881D01*
X423774Y119390D01*
X423228Y119755D01*
X422584Y119883D01*
X397100D01*
X396456Y119755D01*
X395910Y119390D01*
X394331Y117811D01*
X393158Y118298D01*
Y148626D01*
X393030Y149270D01*
X392665Y149816D01*
X383883Y158597D01*
Y173555D01*
X385153Y173680D01*
X385263Y173127D01*
X386049Y171951D01*
X387225Y171165D01*
X388613Y170889D01*
X390000Y171165D01*
X390542Y171527D01*
X391669Y172126D01*
X392845Y171340D01*
X394233Y171064D01*
X395620Y171340D01*
X396796Y172126D01*
X397582Y173302D01*
X397858Y174690D01*
X397582Y176077D01*
X396796Y177253D01*
X395620Y178039D01*
X394233Y178315D01*
X392845Y178039D01*
X392304Y177678D01*
X391177Y177078D01*
X390000Y177864D01*
X388613Y178140D01*
X387225Y177864D01*
X386049Y177078D01*
X385263Y175902D01*
X385153Y175349D01*
X383883Y175474D01*
Y194900D01*
X383755Y195544D01*
X383390Y196090D01*
X377902Y201579D01*
X378712Y202565D01*
X378881Y202452D01*
X380070Y202215D01*
X381260Y202452D01*
X382268Y203125D01*
X382942Y204134D01*
X383178Y205323D01*
X382942Y206512D01*
X382268Y207521D01*
X381260Y208194D01*
X380070Y208431D01*
X378881Y208194D01*
X377873Y207521D01*
X377199Y206512D01*
X376963Y205323D01*
X377199Y204134D01*
X377313Y203964D01*
X376326Y203155D01*
X357883Y221597D01*
Y223398D01*
X358540Y223836D01*
X359213Y224844D01*
X359450Y226034D01*
X359213Y227223D01*
X359131Y227347D01*
X359810Y228617D01*
X393914D01*
X394558Y228745D01*
X395104Y229110D01*
X429428Y263433D01*
X430858Y263067D01*
X431302Y262402D01*
X432311Y261729D01*
X433500Y261492D01*
X434689Y261729D01*
X435698Y262402D01*
X436371Y263411D01*
X436608Y264600D01*
X436487Y265207D01*
X438090Y266810D01*
X438455Y267356D01*
X438583Y268000D01*
Y306600D01*
X438455Y307244D01*
X438090Y307790D01*
X430990Y314890D01*
X430444Y315255D01*
X429800Y315383D01*
X407200D01*
X406556Y315255D01*
X406010Y314890D01*
X398903Y307783D01*
X384741D01*
X384398Y308298D01*
X383389Y308971D01*
X382200Y309208D01*
X381011Y308971D01*
X380003Y308298D01*
X379329Y307289D01*
X379092Y306100D01*
X379263Y305240D01*
X378546Y303970D01*
X353818D01*
X338115Y319673D01*
X337970Y319769D01*
X337784Y320663D01*
X337778Y320967D01*
X337845Y321264D01*
X343890Y327310D01*
X343998Y327472D01*
X345283Y327630D01*
X345444Y327594D01*
X346452Y326921D01*
X347641Y326684D01*
X348831Y326921D01*
X349839Y327594D01*
X350513Y328603D01*
X350729Y329690D01*
X351430D01*
Y340230D01*
Y350770D01*
X348660D01*
Y349246D01*
X330184D01*
Y347908D01*
X328219D01*
X327513Y348380D01*
X326125Y348656D01*
X324738Y348380D01*
X323562Y347594D01*
X322776Y346418D01*
X322500Y345030D01*
X322776Y343643D01*
X323562Y342466D01*
X323646Y342410D01*
X323662Y340894D01*
X322876Y339717D01*
X322600Y338330D01*
X322876Y336942D01*
X323662Y335766D01*
X324447Y335242D01*
X324516Y334978D01*
X324485Y333944D01*
X324447Y333831D01*
X323587Y333257D01*
X322802Y332080D01*
X322525Y330693D01*
X322802Y329305D01*
X323587Y328129D01*
X324764Y327343D01*
X326151Y327067D01*
X327539Y327343D01*
X328715Y328129D01*
X329501Y329305D01*
X329546Y329532D01*
X329883Y329870D01*
X337573D01*
X338713Y330096D01*
X339679Y330742D01*
X339747Y330843D01*
X341017Y330458D01*
Y329197D01*
X335803Y323983D01*
X323397D01*
X290352Y357029D01*
Y359069D01*
X290224Y359713D01*
X289859Y360259D01*
X282828Y367290D01*
X282282Y367655D01*
X281637Y367783D01*
X281576Y368968D01*
X284256Y370078D01*
X286557Y371843D01*
X288323Y374145D01*
X289432Y376824D01*
X289811Y379700D01*
X289432Y382576D01*
X288323Y385256D01*
X286557Y387557D01*
X284256Y389323D01*
X281576Y390432D01*
X278700Y390811D01*
D02*
G37*
G36*
X529770Y367638D02*
Y361470D01*
X535938D01*
X535846Y362168D01*
X535086Y364002D01*
X533878Y365578D01*
X532303Y366786D01*
X530468Y367546D01*
X529770Y367638D01*
D02*
G37*
G36*
X527230Y367638D02*
X526532Y367546D01*
X524697Y366786D01*
X523122Y365578D01*
X521914Y364002D01*
X521154Y362168D01*
X521062Y361470D01*
X527230D01*
Y367638D01*
D02*
G37*
G36*
X229263Y369947D02*
X217198D01*
Y359212D01*
X215928Y359087D01*
X215871Y359372D01*
X215198Y360380D01*
X214189Y361054D01*
X213000Y361290D01*
X211811Y361054D01*
X210802Y360380D01*
X210129Y359372D01*
X209892Y358182D01*
X210129Y356993D01*
X210802Y355985D01*
X211811Y355311D01*
X213000Y355075D01*
X213741Y355222D01*
X214682Y354631D01*
X214935Y354282D01*
X215128Y353310D01*
X215802Y352302D01*
X216810Y351628D01*
X218000Y351392D01*
X219189Y351628D01*
X220197Y352302D01*
X220871Y353310D01*
X221107Y354499D01*
X221487Y354962D01*
X229263D01*
Y369947D01*
D02*
G37*
G36*
X243868D02*
X231803D01*
Y354962D01*
X243868D01*
Y369947D01*
D02*
G37*
G36*
X507400Y366334D02*
X505053Y365867D01*
X503063Y364537D01*
X501733Y362547D01*
X501266Y360200D01*
X501656Y358237D01*
X467338Y323918D01*
X466299Y324125D01*
X464912Y323849D01*
X463735Y323063D01*
X462949Y321887D01*
X462673Y320499D01*
X462949Y319112D01*
X463735Y317936D01*
X464912Y317150D01*
X466299Y316874D01*
X467687Y317150D01*
X468863Y317936D01*
X469649Y319112D01*
X469925Y320499D01*
X469718Y321538D01*
X503650Y355470D01*
X505053Y354533D01*
X507400Y354066D01*
X509747Y354533D01*
X511737Y355863D01*
X513067Y357853D01*
X513534Y360200D01*
X513067Y362547D01*
X511737Y364537D01*
X509747Y365867D01*
X507400Y366334D01*
D02*
G37*
G36*
X535938Y358930D02*
X529770D01*
Y352762D01*
X530468Y352854D01*
X532303Y353614D01*
X533878Y354822D01*
X535086Y356398D01*
X535846Y358232D01*
X535938Y358930D01*
D02*
G37*
G36*
X527230D02*
X521062D01*
X521154Y358232D01*
X521914Y356398D01*
X523122Y354822D01*
X524697Y353614D01*
X526532Y352854D01*
X527230Y352762D01*
Y358930D01*
D02*
G37*
G36*
X326240Y365460D02*
X312970D01*
Y352190D01*
X326240D01*
Y365460D01*
D02*
G37*
G36*
X310430D02*
X297160D01*
Y352190D01*
X310430D01*
Y365460D01*
D02*
G37*
G36*
X493240D02*
X479970D01*
Y352190D01*
X493240D01*
Y365460D01*
D02*
G37*
G36*
X477430D02*
X464160D01*
Y352190D01*
X477430D01*
Y365460D01*
D02*
G37*
G36*
X458010Y352040D02*
X412390D01*
Y350770D01*
X408660D01*
Y349246D01*
X386740D01*
Y350770D01*
X383970D01*
Y340230D01*
Y329690D01*
X386740D01*
Y331214D01*
X408660D01*
Y329690D01*
X412390D01*
Y328420D01*
X413388D01*
X413773Y327150D01*
X413611Y327042D01*
X412320Y325109D01*
X411867Y322830D01*
X412320Y320551D01*
X413611Y318618D01*
X415544Y317327D01*
X417823Y316874D01*
X420103Y317327D01*
X420300Y317459D01*
X420497Y317327D01*
X422776Y316874D01*
X425056Y317327D01*
X426988Y318618D01*
X427198Y318932D01*
X428468D01*
X428611Y318718D01*
X430544Y317427D01*
X432823Y316973D01*
X435103Y317427D01*
X435300Y317559D01*
X435497Y317427D01*
X437776Y316973D01*
X440056Y317427D01*
X441988Y318718D01*
X442132Y318932D01*
X443401D01*
X443611Y318618D01*
X445544Y317327D01*
X447823Y316874D01*
X450103Y317327D01*
X450300Y317459D01*
X450497Y317327D01*
X452776Y316874D01*
X455056Y317327D01*
X456988Y318618D01*
X458279Y320551D01*
X458733Y322830D01*
X458279Y325109D01*
X456988Y327042D01*
X456826Y327150D01*
X457212Y328420D01*
X458010D01*
Y329690D01*
X461740D01*
Y350770D01*
X458010D01*
Y352040D01*
D02*
G37*
G36*
X366430Y350770D02*
X363660D01*
Y349246D01*
X356740D01*
Y350770D01*
X353970D01*
Y340230D01*
Y329690D01*
X356389D01*
X356510Y329509D01*
X359016Y327003D01*
Y321640D01*
X358502Y321297D01*
X357828Y320289D01*
X357592Y319099D01*
X357670Y318707D01*
X356846Y317350D01*
X356754Y317297D01*
X356379Y317241D01*
X355934Y317538D01*
X354745Y317775D01*
X353556Y317538D01*
X352547Y316864D01*
X351874Y315856D01*
X351637Y314667D01*
X351874Y313478D01*
X352547Y312470D01*
X353556Y311796D01*
X354745Y311559D01*
X355934Y311796D01*
X356942Y312470D01*
X357286Y312984D01*
X361475D01*
X362120Y313112D01*
X362666Y313477D01*
X365573Y316383D01*
X365938Y316930D01*
X366066Y317574D01*
Y329690D01*
X366430D01*
Y340230D01*
Y350770D01*
D02*
G37*
G36*
X217600Y343408D02*
X216411Y343171D01*
X215403Y342497D01*
X214729Y341489D01*
X214492Y340300D01*
X214729Y339111D01*
X215403Y338102D01*
X216411Y337429D01*
X217600Y337192D01*
X218789Y337429D01*
X219797Y338102D01*
X220471Y339111D01*
X220708Y340300D01*
X220471Y341489D01*
X219797Y342497D01*
X218789Y343171D01*
X217600Y343408D01*
D02*
G37*
G36*
X16464Y344698D02*
X13556Y344315D01*
X10845Y343193D01*
X8518Y341407D01*
X6732Y339080D01*
X5610Y336369D01*
X5227Y333461D01*
X5610Y330553D01*
X6732Y327842D01*
X8518Y325515D01*
X10845Y323729D01*
X13556Y322607D01*
X16464Y322224D01*
X19372Y322607D01*
X22083Y323729D01*
X24410Y325515D01*
X26196Y327842D01*
X27318Y330553D01*
X27701Y333461D01*
X27318Y336369D01*
X26196Y339080D01*
X24410Y341407D01*
X22083Y343193D01*
X19372Y344315D01*
X16464Y344698D01*
D02*
G37*
G36*
X581240Y298040D02*
X567970D01*
Y284770D01*
X581240D01*
Y298040D01*
D02*
G37*
G36*
X565430D02*
X552160D01*
Y284770D01*
X565430D01*
Y298040D01*
D02*
G37*
G36*
X581240Y282230D02*
X567970D01*
Y268960D01*
X581240D01*
Y282230D01*
D02*
G37*
G36*
X565430D02*
X552160D01*
Y268960D01*
X565430D01*
Y282230D01*
D02*
G37*
G36*
X561100Y338220D02*
X558753Y337753D01*
X556763Y336424D01*
X555433Y334434D01*
X554966Y332086D01*
X555433Y329739D01*
X556044Y328825D01*
X552810Y325590D01*
X552445Y325044D01*
X552317Y324400D01*
Y314742D01*
X502994Y265419D01*
X502387Y265540D01*
X501198Y265303D01*
X500190Y264629D01*
X500031Y264392D01*
X498522Y263873D01*
X497333Y264109D01*
X496143Y263873D01*
X495135Y263199D01*
X494461Y262191D01*
X494225Y261001D01*
X494461Y259812D01*
X495135Y258804D01*
X496143Y258130D01*
X497333Y257894D01*
X498522Y258130D01*
X498639Y258209D01*
X500139Y256710D01*
X500685Y256345D01*
X501329Y256217D01*
X504623D01*
X505268Y256345D01*
X505814Y256710D01*
X508390Y259286D01*
X508755Y259832D01*
X508883Y260476D01*
Y261404D01*
X519347Y271868D01*
X520617Y271342D01*
Y254300D01*
X520745Y253656D01*
X521110Y253110D01*
X523210Y251010D01*
X523756Y250645D01*
X524400Y250516D01*
X531184D01*
Y248883D01*
X521497D01*
X516287Y254093D01*
X516408Y254700D01*
X516171Y255889D01*
X515498Y256898D01*
X514489Y257571D01*
X513300Y257808D01*
X512111Y257571D01*
X511102Y256898D01*
X510429Y255889D01*
X510192Y254700D01*
X510429Y253511D01*
X511102Y252502D01*
X512111Y251829D01*
X513300Y251592D01*
X513907Y251713D01*
X519610Y246010D01*
X520156Y245645D01*
X520800Y245516D01*
X529660D01*
Y243770D01*
X540200D01*
X550740D01*
Y246540D01*
X549216D01*
Y254984D01*
Y265016D01*
X547878D01*
Y266681D01*
X548350Y267387D01*
X548626Y268774D01*
X548350Y270162D01*
X547564Y271338D01*
X546387Y272124D01*
X545000Y272400D01*
X543613Y272124D01*
X542436Y271338D01*
X542380Y271254D01*
X540864Y271238D01*
X539688Y272024D01*
X538300Y272300D01*
X536912Y272024D01*
X535736Y271238D01*
X535156Y270369D01*
X534836Y270287D01*
X534064Y270287D01*
X533744Y270369D01*
X533164Y271238D01*
X531987Y272024D01*
X530600Y272300D01*
X529212Y272024D01*
X528036Y271238D01*
X527250Y270062D01*
X526974Y268674D01*
X527250Y267287D01*
X528036Y266111D01*
X529212Y265325D01*
X529439Y265280D01*
X529784Y264935D01*
Y257177D01*
X530011Y256037D01*
X530602Y255153D01*
X530507Y254721D01*
X530149Y253883D01*
X525097D01*
X523983Y254997D01*
Y271703D01*
X554899Y302618D01*
X564502D01*
X565146Y302746D01*
X565692Y303111D01*
X574590Y312010D01*
X574955Y312556D01*
X575083Y313200D01*
Y318501D01*
X575747Y318633D01*
X577737Y319963D01*
X579067Y321953D01*
X579534Y324300D01*
X579067Y326647D01*
X577737Y328637D01*
X575747Y329967D01*
X573400Y330434D01*
X571053Y329967D01*
X569063Y328637D01*
X567733Y326647D01*
X567266Y324300D01*
X567733Y321953D01*
X569063Y319963D01*
X571053Y318633D01*
X571717Y318501D01*
Y313897D01*
X568258Y310438D01*
X567088Y311064D01*
X567234Y311800D01*
X566767Y314147D01*
X565437Y316137D01*
X563447Y317467D01*
X561100Y317934D01*
X558753Y317467D01*
X556953Y316265D01*
X555683Y316634D01*
Y323703D01*
X558541Y326561D01*
X558753Y326420D01*
X561100Y325953D01*
X563447Y326420D01*
X565437Y327749D01*
X566767Y329739D01*
X567234Y332086D01*
X566767Y334434D01*
X565437Y336424D01*
X563447Y337753D01*
X561100Y338220D01*
D02*
G37*
G36*
X428343Y253913D02*
X426956Y253637D01*
X425779Y252851D01*
X424994Y251675D01*
X424717Y250287D01*
X424994Y248900D01*
X425779Y247724D01*
X426956Y246938D01*
X428343Y246662D01*
X429731Y246938D01*
X430907Y247724D01*
X431693Y248900D01*
X431969Y250287D01*
X431693Y251675D01*
X430907Y252851D01*
X429731Y253637D01*
X428343Y253913D01*
D02*
G37*
G36*
X164170Y248838D02*
Y242670D01*
X170338D01*
X170246Y243368D01*
X169486Y245203D01*
X168278Y246778D01*
X166702Y247986D01*
X164868Y248746D01*
X164170Y248838D01*
D02*
G37*
G36*
X161630D02*
X160932Y248746D01*
X159097Y247986D01*
X157522Y246778D01*
X156314Y245203D01*
X155554Y243368D01*
X155462Y242670D01*
X161630D01*
Y248838D01*
D02*
G37*
G36*
X550740Y241230D02*
X540200D01*
X529660D01*
Y238483D01*
X524341D01*
X523997Y238997D01*
X522989Y239671D01*
X521800Y239908D01*
X520611Y239671D01*
X519869Y239175D01*
X518471Y238981D01*
X517463Y239654D01*
X516274Y239891D01*
X515084Y239654D01*
X514076Y238981D01*
X513403Y237972D01*
X513166Y236783D01*
X513403Y235594D01*
X514076Y234585D01*
X515084Y233912D01*
X516274Y233675D01*
X516816Y233783D01*
X519390Y231210D01*
X519936Y230845D01*
X520580Y230717D01*
X529660D01*
Y228770D01*
X540200D01*
X550740D01*
Y231540D01*
X549216D01*
Y238460D01*
X550740D01*
Y241230D01*
D02*
G37*
G36*
X241604Y246712D02*
X240415Y246475D01*
X239407Y245802D01*
X238733Y244793D01*
X238496Y243604D01*
X238733Y242415D01*
X239407Y241407D01*
X239616Y241267D01*
X239995Y240022D01*
X239818Y239721D01*
X239329Y238989D01*
X239092Y237800D01*
X239329Y236611D01*
X240002Y235602D01*
X241011Y234929D01*
X242200Y234692D01*
X243389Y234929D01*
X244398Y235602D01*
X245071Y236611D01*
X245308Y237800D01*
X245071Y238989D01*
X244398Y239998D01*
X244188Y240137D01*
X243809Y241383D01*
X243986Y241683D01*
X244475Y242415D01*
X244712Y243604D01*
X244475Y244793D01*
X243802Y245802D01*
X242794Y246475D01*
X241604Y246712D01*
D02*
G37*
G36*
X170338Y240130D02*
X164170D01*
Y233962D01*
X164868Y234054D01*
X166702Y234814D01*
X168278Y236022D01*
X169486Y237598D01*
X170246Y239432D01*
X170338Y240130D01*
D02*
G37*
G36*
X161630D02*
X155462D01*
X155554Y239432D01*
X156314Y237598D01*
X157522Y236022D01*
X159097Y234814D01*
X160932Y234054D01*
X161630Y233962D01*
Y240130D01*
D02*
G37*
G36*
X71995Y234609D02*
X70805Y234373D01*
X69797Y233699D01*
X69124Y232691D01*
X68887Y231501D01*
X69124Y230312D01*
X69797Y229304D01*
X70805Y228630D01*
X71995Y228394D01*
X73184Y228630D01*
X74192Y229304D01*
X74866Y230312D01*
X75102Y231501D01*
X74866Y232691D01*
X74192Y233699D01*
X73184Y234373D01*
X71995Y234609D01*
D02*
G37*
G36*
X550740Y226230D02*
X540200D01*
X529660D01*
Y223460D01*
X528694Y222726D01*
X525838D01*
X525671Y223566D01*
X524997Y224574D01*
X523989Y225248D01*
X522800Y225484D01*
X521611Y225248D01*
X520602Y224574D01*
X519929Y223566D01*
X519692Y222376D01*
X519929Y221187D01*
X520602Y220179D01*
Y219621D01*
X519929Y218613D01*
X519692Y217423D01*
X519929Y216234D01*
X520602Y215226D01*
X521611Y214552D01*
X522015Y214472D01*
X522015Y213177D01*
X520521Y212880D01*
X518588Y211588D01*
X517297Y209656D01*
X516844Y207376D01*
X517297Y205097D01*
X517429Y204900D01*
X517297Y204703D01*
X516844Y202423D01*
X517297Y200144D01*
X518588Y198212D01*
X518853Y198035D01*
Y196765D01*
X518588Y196588D01*
X517297Y194656D01*
X516844Y192377D01*
X517297Y190097D01*
X517429Y189900D01*
X517297Y189703D01*
X516844Y187424D01*
X517297Y185144D01*
X518588Y183212D01*
X518853Y183035D01*
Y181765D01*
X518588Y181588D01*
X517297Y179656D01*
X516844Y177377D01*
X517297Y175097D01*
X517429Y174900D01*
X517297Y174703D01*
X516844Y172424D01*
X517297Y170144D01*
X518588Y168212D01*
X518903Y168002D01*
Y166732D01*
X518688Y166588D01*
X517397Y164656D01*
X516944Y162377D01*
X517397Y160097D01*
X517529Y159900D01*
X517397Y159703D01*
X516944Y157424D01*
X517397Y155144D01*
X518688Y153212D01*
X518903Y153069D01*
Y151798D01*
X518588Y151588D01*
X517297Y149656D01*
X516844Y147377D01*
X517297Y145097D01*
X517429Y144900D01*
X517297Y144703D01*
X516844Y142424D01*
X517297Y140144D01*
X518588Y138212D01*
X520521Y136921D01*
X522800Y136467D01*
X525079Y136921D01*
X527012Y138212D01*
X527120Y138374D01*
X528390Y137988D01*
Y137190D01*
X529660D01*
Y133460D01*
X550740D01*
Y137190D01*
X552010D01*
Y142190D01*
Y152190D01*
Y157190D01*
Y167190D01*
Y172190D01*
Y182190D01*
Y187190D01*
Y197190D01*
Y202190D01*
Y212810D01*
X550740D01*
Y216540D01*
X549216D01*
Y223460D01*
X550740D01*
Y226230D01*
D02*
G37*
G36*
X237824Y227019D02*
X236635Y226782D01*
X235627Y226109D01*
X234953Y225100D01*
X234716Y223911D01*
X234847Y223255D01*
X234600Y223008D01*
X233411Y222771D01*
X232402Y222097D01*
X231729Y221089D01*
X231492Y219900D01*
X231613Y219293D01*
X225710Y213390D01*
X225345Y212844D01*
X225217Y212200D01*
Y205625D01*
X225057Y205512D01*
X223842Y205237D01*
X221888Y207190D01*
X221440Y207490D01*
Y208730D01*
X215400D01*
X209360D01*
Y206560D01*
X209385D01*
X209466Y206335D01*
X208629Y204910D01*
X208433Y204871D01*
X207425Y204198D01*
X206751Y203189D01*
X206567Y202264D01*
X206285Y201795D01*
X205415Y201017D01*
X204683Y200871D01*
X203675Y200198D01*
X203001Y199189D01*
X202764Y198000D01*
X203001Y196811D01*
X203675Y195802D01*
X204683Y195129D01*
X205364Y194993D01*
X206514Y194266D01*
X206751Y193077D01*
X207425Y192069D01*
X208433Y191395D01*
X209360Y191210D01*
Y187270D01*
X215400D01*
Y184730D01*
X209360D01*
Y182560D01*
X210884D01*
Y180084D01*
X209780Y179683D01*
X209250D01*
X208606Y179555D01*
X208060Y179190D01*
X207326Y178457D01*
X205948Y178875D01*
X205924Y178995D01*
X205251Y180003D01*
X204242Y180677D01*
X203053Y180914D01*
X201864Y180677D01*
X200856Y180003D01*
X199606Y180356D01*
X198598Y181029D01*
X197408Y181266D01*
X196219Y181029D01*
X195211Y180356D01*
X194537Y179348D01*
X194301Y178158D01*
X194313Y178094D01*
X190386Y174167D01*
X189116Y174693D01*
Y175916D01*
X189116D01*
Y176084D01*
X189116Y176084D01*
X189116Y179916D01*
X189116Y181186D01*
Y182560D01*
X190640D01*
Y184730D01*
X184600D01*
X178560D01*
Y184608D01*
X177290Y184082D01*
X175747Y185625D01*
X175871Y185810D01*
X176107Y187000D01*
X175871Y188189D01*
X175197Y189197D01*
X174189Y189871D01*
X173000Y190107D01*
X171810Y189871D01*
X170802Y189197D01*
X170128Y188189D01*
X169892Y187000D01*
X170128Y185810D01*
X170802Y184802D01*
X171810Y184128D01*
X172649Y183962D01*
X175801Y180810D01*
X176347Y180445D01*
X176991Y180317D01*
X178980D01*
X180084Y179916D01*
X180084Y178465D01*
X179632Y178013D01*
X179226Y177741D01*
X172458Y170973D01*
X172093Y170427D01*
X171965Y169783D01*
Y167721D01*
X171949Y167718D01*
X170940Y167044D01*
X170267Y166036D01*
X170030Y164846D01*
X170267Y163657D01*
X170940Y162649D01*
X171949Y161975D01*
X172574Y161851D01*
X173043Y160524D01*
X166106Y153587D01*
X165500Y153708D01*
X164311Y153471D01*
X163302Y152797D01*
X162629Y151789D01*
X162392Y150600D01*
X162629Y149411D01*
X163302Y148403D01*
X164311Y147729D01*
X165500Y147492D01*
X166689Y147729D01*
X167698Y148403D01*
X168371Y149411D01*
X168608Y150600D01*
X168487Y151207D01*
X176117Y158836D01*
X177290Y158350D01*
Y153686D01*
X176637Y152963D01*
X176020Y152654D01*
X175831Y152692D01*
X174642Y152455D01*
X173633Y151782D01*
X172960Y150773D01*
X172723Y149584D01*
X172960Y148395D01*
X173633Y147387D01*
X174642Y146713D01*
X175831Y146476D01*
X176020Y146514D01*
X177290Y145482D01*
Y137290D01*
Y125290D01*
Y113290D01*
Y101290D01*
X178560D01*
Y98560D01*
X190640D01*
Y100101D01*
X191910Y100780D01*
X193047Y100021D01*
X193221Y99986D01*
X193590Y98770D01*
X185606Y90786D01*
X185241Y90240D01*
X185112Y89596D01*
Y65004D01*
X185241Y64360D01*
X185606Y63814D01*
X195770Y53650D01*
X195328Y52988D01*
X195091Y51799D01*
X195328Y50610D01*
X196001Y49601D01*
X197010Y48928D01*
X198199Y48691D01*
X199277Y48906D01*
X199765Y48615D01*
X200409Y48082D01*
X200392Y48000D01*
X200629Y46811D01*
X201303Y45802D01*
X202311Y45129D01*
X203500Y44892D01*
X204689Y45129D01*
X205697Y45802D01*
X206371Y46811D01*
X206608Y48000D01*
X206371Y49189D01*
X205697Y50198D01*
X205183Y50541D01*
Y51706D01*
X205055Y52351D01*
X204690Y52897D01*
X199497Y58090D01*
X199478Y58103D01*
X190883Y66697D01*
Y87903D01*
X207297Y104317D01*
X209360D01*
Y103270D01*
X215400D01*
Y100730D01*
X209360D01*
Y98560D01*
X216484D01*
X216689Y97529D01*
X217980Y95596D01*
X219912Y94305D01*
X220220Y94244D01*
X220281Y93937D01*
X221572Y92004D01*
X223505Y90713D01*
X223962Y90622D01*
X224331Y89407D01*
X211115Y76191D01*
X206257D01*
X206168Y76251D01*
X205873Y76691D01*
X203941Y77983D01*
X201662Y78436D01*
X199382Y77983D01*
X197450Y76691D01*
X196159Y74759D01*
X195705Y72480D01*
X196159Y70200D01*
X196290Y70003D01*
X196159Y69806D01*
X195705Y67526D01*
X196159Y65247D01*
X197450Y63315D01*
X199382Y62024D01*
X201662Y61570D01*
X203941Y62024D01*
X205873Y63315D01*
X206208Y63815D01*
X214257D01*
X216091Y64180D01*
X217645Y65218D01*
X237120Y84693D01*
X238302Y84079D01*
X238701Y82071D01*
X239992Y80138D01*
X241925Y78847D01*
X244204Y78394D01*
X246484Y78847D01*
X246681Y78979D01*
X246878Y78847D01*
X249157Y78394D01*
X251437Y78847D01*
X253369Y80138D01*
X254660Y82071D01*
X255114Y84350D01*
X254660Y86629D01*
X253369Y88562D01*
X252869Y88896D01*
Y131634D01*
X252504Y133467D01*
X251465Y135021D01*
X237702Y148785D01*
X236148Y149823D01*
X234314Y150188D01*
X222710D01*
Y150710D01*
X221440D01*
Y152959D01*
X233590Y165110D01*
X233955Y165656D01*
X234083Y166300D01*
Y203244D01*
X246523Y215684D01*
X247129Y215563D01*
X248319Y215800D01*
X249327Y216473D01*
X250000Y217482D01*
X250237Y218671D01*
X250000Y219860D01*
X249327Y220868D01*
X248319Y221542D01*
X247129Y221779D01*
X245940Y221542D01*
X245028Y220933D01*
X243997Y221084D01*
X243689Y221154D01*
X243015Y222163D01*
X242007Y222836D01*
X240818Y223073D01*
X240774Y223117D01*
X240932Y223911D01*
X240695Y225100D01*
X240022Y226109D01*
X239014Y226782D01*
X237824Y227019D01*
D02*
G37*
G36*
X421156Y222642D02*
X419768Y222366D01*
X418592Y221580D01*
X417806Y220404D01*
X417530Y219016D01*
X417806Y217629D01*
X418592Y216453D01*
X419768Y215667D01*
X421156Y215391D01*
X422543Y215667D01*
X423720Y216453D01*
X424506Y217629D01*
X424781Y219016D01*
X424506Y220404D01*
X423720Y221580D01*
X422543Y222366D01*
X421156Y222642D01*
D02*
G37*
G36*
X374544Y221910D02*
X373355Y221673D01*
X372346Y221000D01*
X371673Y219991D01*
X371436Y218802D01*
X371673Y217613D01*
X372346Y216604D01*
X373355Y215931D01*
X374328Y215737D01*
X374549Y215687D01*
X375288Y214547D01*
X375236Y214288D01*
X375473Y213099D01*
X376147Y212090D01*
X377155Y211417D01*
X378344Y211180D01*
X379533Y211417D01*
X380541Y212090D01*
X381215Y213099D01*
X381452Y214288D01*
X381448Y214305D01*
X382346Y215203D01*
X382400Y215192D01*
X383589Y215429D01*
X384598Y216103D01*
X385271Y217111D01*
X385508Y218300D01*
X385271Y219489D01*
X384598Y220497D01*
X383589Y221171D01*
X382400Y221408D01*
X381211Y221171D01*
X380202Y220497D01*
X379529Y219489D01*
X379477Y219231D01*
X378141Y218348D01*
X377663Y218446D01*
X377600Y218543D01*
X377652Y218802D01*
X377415Y219991D01*
X376741Y221000D01*
X375733Y221673D01*
X374544Y221910D01*
D02*
G37*
G36*
X221440Y212730D02*
X215400D01*
X209360D01*
Y211270D01*
X215400D01*
X221440D01*
Y212730D01*
D02*
G37*
G36*
X190640Y212730D02*
X184600D01*
X178560D01*
Y211270D01*
X184600D01*
X190640D01*
Y212730D01*
D02*
G37*
G36*
X407744Y217201D02*
X406555Y216964D01*
X405546Y216291D01*
X404873Y215283D01*
X404636Y214093D01*
X404873Y212904D01*
X405167Y212464D01*
X405449Y211563D01*
X405173Y210618D01*
X404889Y210194D01*
X404652Y209004D01*
X404889Y207815D01*
X405563Y206807D01*
X406571Y206133D01*
X407760Y205897D01*
X408950Y206133D01*
X409958Y206807D01*
X410301Y207321D01*
X415499D01*
X420607Y202212D01*
X419798Y201226D01*
X419591Y201364D01*
X419199Y201625D01*
X418010Y201862D01*
X416821Y201625D01*
X415813Y200952D01*
X415139Y199944D01*
X414902Y198754D01*
X415139Y197565D01*
X415813Y196557D01*
X416821Y195883D01*
X417878Y195673D01*
X418255Y195159D01*
X418602Y194469D01*
X418273Y193977D01*
X418036Y192788D01*
X418273Y191599D01*
X418946Y190590D01*
X419955Y189917D01*
X421144Y189680D01*
X422333Y189917D01*
X423341Y190590D01*
X424015Y191599D01*
X424252Y192788D01*
X424015Y193977D01*
X423341Y194986D01*
X422333Y195659D01*
X421276Y195870D01*
X420899Y196383D01*
X420553Y197073D01*
X420881Y197565D01*
X421118Y198754D01*
X420881Y199944D01*
X420620Y200335D01*
X420482Y200542D01*
X421468Y201351D01*
X433383Y189436D01*
Y138577D01*
X432113Y138051D01*
X407483Y162681D01*
Y179399D01*
X407355Y180043D01*
X406990Y180589D01*
X398386Y189193D01*
X398507Y189800D01*
X398270Y190989D01*
X397597Y191997D01*
X396589Y192671D01*
X395399Y192907D01*
X394210Y192671D01*
X393202Y191997D01*
X392528Y190989D01*
X392291Y189800D01*
X392528Y188610D01*
X393202Y187602D01*
X394210Y186929D01*
X395399Y186692D01*
X396006Y186812D01*
X404117Y178702D01*
Y161983D01*
X404245Y161339D01*
X404610Y160793D01*
X453493Y111910D01*
X454039Y111545D01*
X454683Y111417D01*
X526897D01*
X529934Y108379D01*
X529290Y107228D01*
X525611Y108111D01*
X521000Y108474D01*
X516389Y108111D01*
X511892Y107031D01*
X507619Y105261D01*
X503676Y102845D01*
X500159Y99841D01*
X497155Y96324D01*
X494739Y92381D01*
X492969Y88108D01*
X491889Y83611D01*
X491526Y79000D01*
X491889Y74389D01*
X492969Y69892D01*
X493884Y67683D01*
X493844Y67666D01*
X494346Y66915D01*
X494604Y66743D01*
X495102Y66410D01*
X495994Y66233D01*
X496886Y66410D01*
X497642Y66915D01*
X498147Y67671D01*
X498267Y68276D01*
X498325Y68563D01*
X498323Y68572D01*
X498147Y69455D01*
X498144Y69461D01*
X497744Y70633D01*
X496673Y74161D01*
X496197Y79000D01*
X496673Y83839D01*
X498085Y88492D01*
X500377Y92780D01*
X503461Y96539D01*
X507220Y99623D01*
X511508Y101915D01*
X516161Y103327D01*
X521000Y103803D01*
X525839Y103327D01*
X529191Y102310D01*
X530367Y101929D01*
X531247Y101754D01*
X531541Y101812D01*
X532139Y101931D01*
X532895Y102437D01*
X533370Y103147D01*
X533410Y103195D01*
X534766Y103547D01*
X559604Y78710D01*
X560150Y78345D01*
X560794Y78217D01*
X569703D01*
X576409Y71510D01*
X576033Y70947D01*
X575566Y68600D01*
X576033Y66253D01*
X577363Y64263D01*
X579353Y62933D01*
X581700Y62466D01*
X584047Y62933D01*
X586037Y64263D01*
X587367Y66253D01*
X587834Y68600D01*
X587367Y70947D01*
X586037Y72937D01*
X584047Y74267D01*
X581700Y74734D01*
X579353Y74267D01*
X578790Y73891D01*
X571590Y81090D01*
X571044Y81455D01*
X570400Y81583D01*
X562747D01*
X562543Y81858D01*
X563084Y83261D01*
X563447Y83333D01*
X565437Y84663D01*
X566767Y86653D01*
X567234Y89000D01*
X566767Y91347D01*
X565490Y93258D01*
X565686Y94157D01*
X565799Y94528D01*
X573791D01*
X576409Y91910D01*
X576033Y91347D01*
X575566Y89000D01*
X576033Y86653D01*
X577363Y84663D01*
X579353Y83333D01*
X581700Y82866D01*
X584047Y83333D01*
X586037Y84663D01*
X587367Y86653D01*
X587834Y89000D01*
X587367Y91347D01*
X586037Y93337D01*
X584047Y94667D01*
X581700Y95134D01*
X579353Y94667D01*
X578790Y94291D01*
X575679Y97402D01*
X575133Y97767D01*
X574488Y97895D01*
X553079D01*
X530384Y120590D01*
X529838Y120955D01*
X529194Y121083D01*
X458297D01*
X439683Y139697D01*
Y192400D01*
X439555Y193044D01*
X439190Y193590D01*
X417497Y215284D01*
X416951Y215648D01*
X416307Y215777D01*
X410285D01*
X409941Y216291D01*
X408933Y216964D01*
X407744Y217201D01*
D02*
G37*
G36*
X403999Y192907D02*
X402810Y192671D01*
X401802Y191997D01*
X401128Y190989D01*
X400891Y189800D01*
X401128Y188610D01*
X401802Y187602D01*
X402810Y186929D01*
X403999Y186692D01*
X405188Y186929D01*
X406197Y187602D01*
X406870Y188610D01*
X407107Y189800D01*
X406870Y190989D01*
X406197Y191997D01*
X405188Y192671D01*
X403999Y192907D01*
D02*
G37*
G36*
X296700Y189608D02*
X295511Y189371D01*
X294503Y188697D01*
X293829Y187689D01*
X293592Y186500D01*
X293829Y185311D01*
X294503Y184303D01*
X295511Y183629D01*
X296700Y183392D01*
X297889Y183629D01*
X298897Y184303D01*
X299571Y185311D01*
X299808Y186500D01*
X299571Y187689D01*
X298897Y188697D01*
X297889Y189371D01*
X296700Y189608D01*
D02*
G37*
G36*
X156537Y196604D02*
X154775Y196254D01*
X153281Y195256D01*
X152283Y193762D01*
X151933Y192000D01*
Y168745D01*
X144544Y161356D01*
X143546Y159862D01*
X143195Y158100D01*
Y150617D01*
X131266D01*
Y160016D01*
X130683D01*
Y162734D01*
X132766D01*
Y168986D01*
X133939Y169472D01*
X134284Y169127D01*
X134830Y168762D01*
X135475Y168634D01*
X140526D01*
X141170Y168762D01*
X141716Y169127D01*
X141854Y169265D01*
X143230Y169170D01*
X143344Y168999D01*
X144353Y168325D01*
X145542Y168088D01*
X146731Y168325D01*
X147739Y168999D01*
X148413Y170007D01*
X148650Y171196D01*
X148413Y172385D01*
X147739Y173393D01*
X146731Y174067D01*
X145542Y174304D01*
X144353Y174067D01*
X143344Y173393D01*
X142159Y173764D01*
X142080Y173861D01*
X142108Y174000D01*
X141871Y175189D01*
X141198Y176197D01*
X140189Y176871D01*
X139000Y177108D01*
X137811Y176871D01*
X137031Y176350D01*
X134290Y179090D01*
X134551Y180294D01*
X134670Y180461D01*
X134691Y180465D01*
X135699Y181139D01*
X136373Y182147D01*
X136609Y183336D01*
X136373Y184525D01*
X135699Y185534D01*
X134691Y186207D01*
X133501Y186444D01*
X133223Y186388D01*
X132827Y186755D01*
X132327Y187505D01*
X132746Y189609D01*
X132279Y191957D01*
X130949Y193947D01*
X128959Y195276D01*
X126612Y195743D01*
X124265Y195276D01*
X122275Y193947D01*
X120945Y191957D01*
X120573Y190087D01*
X119289Y189576D01*
X116705Y192159D01*
X116159Y192524D01*
X115515Y192652D01*
X91969D01*
X91325Y192524D01*
X90779Y192159D01*
X87910Y189291D01*
X87347Y189667D01*
X85000Y190134D01*
X82653Y189667D01*
X80663Y188337D01*
X79333Y186347D01*
X78866Y184000D01*
X79333Y181653D01*
X80663Y179663D01*
X82653Y178333D01*
X85000Y177866D01*
X87347Y178333D01*
X89337Y179663D01*
X90667Y181653D01*
X91134Y184000D01*
X90667Y186347D01*
X90291Y186910D01*
X92666Y189286D01*
X104037D01*
X104523Y188112D01*
X102462Y186051D01*
X102097Y185505D01*
X101969Y184861D01*
Y181706D01*
X101305Y181574D01*
X99315Y180244D01*
X97986Y178254D01*
X97519Y175907D01*
X97986Y173560D01*
X98362Y172997D01*
X96048Y170683D01*
X85541D01*
X85197Y171197D01*
X84189Y171871D01*
X83000Y172108D01*
X81811Y171871D01*
X80802Y171197D01*
X80129Y170189D01*
X79892Y169000D01*
X80129Y167811D01*
X80802Y166803D01*
X81811Y166129D01*
X83000Y165892D01*
X84189Y166129D01*
X85197Y166803D01*
X85541Y167317D01*
X96712D01*
X96782Y167244D01*
X97330Y166138D01*
X96352Y165160D01*
X95847Y164404D01*
X95819Y164266D01*
X94234D01*
Y155734D01*
X101766D01*
Y163982D01*
X102453Y164669D01*
X108246D01*
X109055Y164129D01*
X110244Y163892D01*
X111433Y164129D01*
X112242Y164669D01*
X115234D01*
Y162734D01*
X122766D01*
Y171266D01*
X121331D01*
Y175000D01*
X121153Y175892D01*
X120648Y176648D01*
X112061Y185235D01*
X111963Y185730D01*
X112657Y186863D01*
X113921Y186950D01*
X127874Y172997D01*
X128420Y172632D01*
X128901Y172536D01*
X128776Y171266D01*
X125234D01*
Y162734D01*
X127317D01*
Y160016D01*
X121234D01*
Y149984D01*
X127419D01*
X127945Y148714D01*
X118269Y139039D01*
X117764Y138283D01*
X117587Y137391D01*
Y136266D01*
X115234D01*
X114183Y136795D01*
Y139500D01*
X114055Y140144D01*
X113690Y140690D01*
X111987Y142394D01*
X112108Y143000D01*
X111871Y144189D01*
X111198Y145197D01*
X110189Y145871D01*
X109000Y146108D01*
X107811Y145871D01*
X106803Y145197D01*
X106129Y144189D01*
X105892Y143000D01*
X106129Y141811D01*
X106803Y140802D01*
X107811Y140129D01*
X109000Y139892D01*
X109607Y140013D01*
X110817Y138803D01*
Y125016D01*
X108734D01*
Y115879D01*
X99669D01*
X90763Y124785D01*
X89209Y125823D01*
X87375Y126188D01*
X80401D01*
X80096Y127458D01*
X80683Y127851D01*
X81357Y128859D01*
X81594Y130048D01*
X81357Y131237D01*
X80683Y132246D01*
X79675Y132919D01*
X79119Y133030D01*
X78293Y134198D01*
X78256Y134398D01*
X78359Y134690D01*
X79810D01*
Y134690D01*
X80721Y135438D01*
X80777Y135427D01*
X83056Y135880D01*
X84989Y137171D01*
X85214Y137508D01*
X86484Y137123D01*
Y131334D01*
X91516D01*
Y140466D01*
X90683D01*
Y142596D01*
X91484Y143534D01*
X91953Y143534D01*
X96516D01*
Y146417D01*
X105600D01*
X106244Y146545D01*
X106790Y146910D01*
X109865Y149984D01*
X118766D01*
Y160016D01*
X108734D01*
Y153615D01*
X104903Y149783D01*
X96516D01*
Y152666D01*
X91953D01*
X91484Y152666D01*
X90683Y153604D01*
Y155734D01*
X91766D01*
Y164266D01*
X84234D01*
Y155734D01*
X87317D01*
Y147938D01*
X86047Y147813D01*
X85767Y149219D01*
X84476Y151151D01*
X82543Y152442D01*
X80264Y152895D01*
X79522Y152748D01*
X78540Y153553D01*
Y154040D01*
X66460D01*
X65540Y154885D01*
Y158540D01*
X60770D01*
Y151000D01*
X59500D01*
Y149730D01*
X53460D01*
Y147810D01*
X52190D01*
Y137190D01*
Y132190D01*
X54984D01*
Y127810D01*
X52190D01*
Y117190D01*
Y112190D01*
X54984D01*
Y107810D01*
X52190D01*
Y97190D01*
Y92190D01*
X53460D01*
Y90270D01*
X59500D01*
Y89000D01*
X60770D01*
Y81460D01*
X65540D01*
Y85115D01*
X66460Y85960D01*
X78540D01*
Y89690D01*
X79810D01*
Y91503D01*
X79887D01*
X81682Y91861D01*
X83203Y92877D01*
X83209Y92883D01*
X83209Y92883D01*
X83333Y93007D01*
X83547Y92964D01*
X85342Y93321D01*
X86863Y94338D01*
X89418Y96892D01*
X90214Y98084D01*
X91484Y97699D01*
Y95534D01*
X96516D01*
Y98417D01*
X99978D01*
X102288Y96107D01*
X102167Y95500D01*
X102215Y95260D01*
X101207Y93990D01*
X100270D01*
Y89170D01*
X103040D01*
Y91800D01*
X103476Y92146D01*
X104310Y92584D01*
X105275Y92393D01*
X106464Y92629D01*
X107472Y93303D01*
X108146Y94311D01*
X108383Y95500D01*
X108146Y96690D01*
X107472Y97698D01*
X106464Y98371D01*
X105275Y98608D01*
X104668Y98487D01*
X101865Y101290D01*
X101319Y101655D01*
X100675Y101783D01*
X96516D01*
Y103494D01*
X96527Y103503D01*
X130383D01*
X131772Y102114D01*
X131246Y100844D01*
X125234D01*
Y92312D01*
X125817D01*
Y90016D01*
X121813D01*
Y92312D01*
X122766D01*
Y100844D01*
X115234D01*
Y92312D01*
X118187D01*
Y90016D01*
X108734D01*
Y81798D01*
X108702Y81635D01*
Y81382D01*
X102103Y74783D01*
X96516D01*
Y77666D01*
X91484D01*
Y68534D01*
X96516D01*
Y71417D01*
X102800D01*
X103444Y71545D01*
X103990Y71910D01*
X111575Y79495D01*
X111902Y79984D01*
X118190D01*
X118325Y79307D01*
X118718Y78718D01*
X124000Y73436D01*
Y65000D01*
X124322Y64222D01*
X127622Y60922D01*
X128400Y60600D01*
X136400D01*
X137178Y60922D01*
X142751Y66495D01*
X145707D01*
X145863Y66263D01*
X147853Y64933D01*
X150200Y64466D01*
X152547Y64933D01*
X154537Y66263D01*
X155867Y68253D01*
X156219Y70023D01*
X169707Y83511D01*
X170705Y85004D01*
X171056Y86766D01*
Y114349D01*
X170705Y116111D01*
X169707Y117605D01*
X152404Y134907D01*
Y146749D01*
X152566Y146969D01*
X153663Y147669D01*
X153674Y147670D01*
X154348Y147536D01*
X155537Y147772D01*
X156545Y148446D01*
X157219Y149454D01*
X157456Y150643D01*
X157219Y151833D01*
X156545Y152841D01*
X155537Y153515D01*
X154348Y153751D01*
X153674Y153617D01*
X152404Y154422D01*
Y156193D01*
X159793Y163582D01*
X160791Y165075D01*
X161142Y166837D01*
Y192000D01*
X160791Y193762D01*
X159793Y195256D01*
X158299Y196254D01*
X156537Y196604D01*
D02*
G37*
G36*
X495400Y183333D02*
X493121Y182880D01*
X491188Y181588D01*
X490511Y180575D01*
X489253D01*
X487519Y180230D01*
X486049Y179248D01*
X466595Y159795D01*
X465613Y158324D01*
X465268Y156590D01*
Y136489D01*
X464255Y135812D01*
X462963Y133879D01*
X462510Y131600D01*
X462963Y129321D01*
X464255Y127388D01*
X466187Y126097D01*
X468466Y125644D01*
X470746Y126097D01*
X470943Y126229D01*
X471140Y126097D01*
X473419Y125644D01*
X475699Y126097D01*
X477631Y127388D01*
X478923Y129321D01*
X479376Y131600D01*
X478923Y133879D01*
X477631Y135812D01*
X476618Y136489D01*
Y153766D01*
X491075Y168223D01*
X491188Y168212D01*
X493121Y166921D01*
X495400Y166467D01*
X497679Y166921D01*
X499612Y168212D01*
X500903Y170144D01*
X501357Y172423D01*
X500903Y174703D01*
X500771Y174900D01*
X500903Y175097D01*
X501357Y177376D01*
X500903Y179656D01*
X499612Y181588D01*
X497679Y182880D01*
X495400Y183333D01*
D02*
G37*
G36*
X258300Y182937D02*
X255392Y182554D01*
X252681Y181432D01*
X250354Y179646D01*
X248568Y177319D01*
X247446Y174608D01*
X247063Y171700D01*
X247446Y168792D01*
X248568Y166081D01*
X250354Y163754D01*
X252681Y161968D01*
X255392Y160846D01*
X258300Y160463D01*
X261208Y160846D01*
X263918Y161968D01*
X266246Y163754D01*
X268032Y166081D01*
X269154Y168792D01*
X269537Y171700D01*
X269154Y174608D01*
X268032Y177319D01*
X266246Y179646D01*
X263918Y181432D01*
X261208Y182554D01*
X258300Y182937D01*
D02*
G37*
G36*
X103040Y141990D02*
X100270D01*
Y137170D01*
X103040D01*
Y141990D01*
D02*
G37*
G36*
X97730D02*
X94960D01*
Y137170D01*
X97730D01*
Y141990D01*
D02*
G37*
G36*
X103040Y134630D02*
X100270D01*
Y129810D01*
X103040D01*
Y134630D01*
D02*
G37*
G36*
X97730D02*
X94960D01*
Y129810D01*
X97730D01*
Y134630D01*
D02*
G37*
G36*
X581240Y131040D02*
X567970D01*
Y117770D01*
X581240D01*
Y131040D01*
D02*
G37*
G36*
X565430D02*
X552160D01*
Y117770D01*
X565430D01*
Y131040D01*
D02*
G37*
G36*
X581240Y115230D02*
X567970D01*
Y101960D01*
X581240D01*
Y115230D01*
D02*
G37*
G36*
X565430D02*
X552160D01*
Y101960D01*
X565430D01*
Y115230D01*
D02*
G37*
G36*
X97730Y93990D02*
X94960D01*
Y89170D01*
X97730D01*
Y93990D01*
D02*
G37*
G36*
X103040Y86630D02*
X100270D01*
Y81810D01*
X103040D01*
Y86630D01*
D02*
G37*
G36*
X58230Y87730D02*
X53460D01*
Y81460D01*
X58230D01*
Y87730D01*
D02*
G37*
G36*
X91516Y92466D02*
X86484D01*
Y83334D01*
X89135D01*
X90270Y82199D01*
X90284Y82190D01*
X90388Y81665D01*
X91062Y80657D01*
X92070Y79984D01*
X93260Y79747D01*
X94449Y79984D01*
X95457Y80657D01*
X96131Y81665D01*
X96160Y81810D01*
X97730D01*
Y86630D01*
X94731D01*
X93690Y85877D01*
X93260Y85962D01*
X92786Y85868D01*
X91552Y86741D01*
X91516Y86812D01*
Y92466D01*
D02*
G37*
G36*
X562370Y76038D02*
Y69870D01*
X568538D01*
X568446Y70568D01*
X567686Y72403D01*
X566478Y73978D01*
X564902Y75186D01*
X563068Y75946D01*
X562370Y76038D01*
D02*
G37*
G36*
X559830D02*
X559132Y75946D01*
X557297Y75186D01*
X555722Y73978D01*
X554514Y72403D01*
X553754Y70568D01*
X553662Y69870D01*
X559830D01*
Y76038D01*
D02*
G37*
G36*
X103040Y66990D02*
X100270D01*
Y62170D01*
X103040D01*
Y66990D01*
D02*
G37*
G36*
X97730D02*
X94960D01*
Y62170D01*
X97730D01*
Y66990D01*
D02*
G37*
G36*
X568538Y67330D02*
X562370D01*
Y61162D01*
X563068Y61254D01*
X564902Y62014D01*
X566478Y63222D01*
X567686Y64798D01*
X568446Y66632D01*
X568538Y67330D01*
D02*
G37*
G36*
X559830D02*
X553662D01*
X553754Y66632D01*
X554514Y64798D01*
X555722Y63222D01*
X557297Y62014D01*
X559132Y61254D01*
X559830Y61162D01*
Y67330D01*
D02*
G37*
G36*
X103040Y59630D02*
X100270D01*
Y54810D01*
X103040D01*
Y59630D01*
D02*
G37*
G36*
X97730D02*
X94960D01*
Y54810D01*
X97730D01*
Y59630D01*
D02*
G37*
G36*
X401367Y107008D02*
X400177Y106771D01*
X399169Y106097D01*
X398495Y105089D01*
X398259Y103900D01*
X398495Y102711D01*
X399169Y101702D01*
X400177Y101029D01*
X401017Y100862D01*
Y99605D01*
X401145Y98961D01*
X401510Y98415D01*
X422987Y76938D01*
X423056Y76892D01*
X426662Y73285D01*
Y71613D01*
X426484Y71435D01*
X426119Y70889D01*
X426004Y70310D01*
X423970D01*
Y59770D01*
Y49230D01*
X426740D01*
Y50754D01*
X433660D01*
Y49230D01*
X437561D01*
X437946Y47960D01*
X437702Y47797D01*
X437029Y46789D01*
X436792Y45600D01*
X437029Y44411D01*
X437702Y43403D01*
X438711Y42729D01*
X439900Y42492D01*
X440793Y42670D01*
X441535Y41615D01*
X440179Y40259D01*
X353976D01*
X353332Y40131D01*
X352786Y39766D01*
X327203Y14183D01*
X298897D01*
X295483Y17597D01*
Y28918D01*
X295355Y29562D01*
X294990Y30108D01*
X289738Y35361D01*
X290467Y36453D01*
X290934Y38800D01*
X290467Y41147D01*
X289137Y43137D01*
X287147Y44467D01*
X284800Y44934D01*
X282453Y44467D01*
X280463Y43137D01*
X279133Y41147D01*
X278666Y38800D01*
X279133Y36453D01*
X280463Y34463D01*
X282453Y33133D01*
X284800Y32666D01*
X287147Y33133D01*
X287182Y33156D01*
X292117Y28221D01*
Y16900D01*
X292245Y16256D01*
X292610Y15710D01*
X297010Y11310D01*
X297556Y10945D01*
X298200Y10817D01*
X327900D01*
X328544Y10945D01*
X329090Y11310D01*
X354673Y36893D01*
X440876D01*
X441520Y37021D01*
X442066Y37386D01*
X448890Y44210D01*
X449255Y44756D01*
X449383Y45400D01*
Y50754D01*
X460216D01*
Y52262D01*
X462181D01*
X462887Y51790D01*
X464274Y51514D01*
X465662Y51790D01*
X466838Y52576D01*
X467624Y53752D01*
X467900Y55140D01*
X467624Y56528D01*
X466838Y57704D01*
X466754Y57760D01*
X466738Y59276D01*
X467524Y60452D01*
X467800Y61840D01*
X467524Y63228D01*
X466738Y64404D01*
X465869Y64984D01*
X465788Y65304D01*
X465788Y66076D01*
X465869Y66396D01*
X466738Y66976D01*
X467524Y68152D01*
X467800Y69540D01*
X467524Y70928D01*
X466738Y72104D01*
X465562Y72890D01*
X464174Y73166D01*
X462787Y72890D01*
X461611Y72104D01*
X460825Y70928D01*
X460698Y70290D01*
X460074Y69666D01*
X452455D01*
X451315Y69440D01*
X450349Y68794D01*
X450344Y68786D01*
X441740D01*
Y70310D01*
X438970D01*
Y59770D01*
X436430D01*
Y70310D01*
X434257D01*
X434255Y70320D01*
X433890Y70866D01*
X433001Y71755D01*
Y74243D01*
X432873Y74887D01*
X432508Y75434D01*
X426337Y81604D01*
X426268Y81650D01*
X408004Y99915D01*
X408246Y101468D01*
X408597Y101702D01*
X409270Y102711D01*
X409507Y103900D01*
X409270Y105089D01*
X408597Y106097D01*
X407589Y106771D01*
X406399Y107008D01*
X405210Y106771D01*
X404202Y106097D01*
X402949Y106508D01*
X402556Y106771D01*
X401367Y107008D01*
D02*
G37*
G36*
X91516Y65466D02*
X86484D01*
Y56334D01*
X87317D01*
Y50398D01*
X87445Y49754D01*
X87810Y49208D01*
X108208Y28810D01*
X108754Y28445D01*
X109398Y28317D01*
X115984D01*
Y21484D01*
X138016D01*
Y36702D01*
X138048Y36865D01*
Y36872D01*
X153793Y52617D01*
X155359D01*
X155702Y52102D01*
X156711Y51429D01*
X157900Y51192D01*
X159089Y51429D01*
X160098Y52102D01*
X160771Y53111D01*
X161008Y54300D01*
X160771Y55489D01*
X160098Y56498D01*
X159089Y57171D01*
X157900Y57408D01*
X156711Y57171D01*
X155702Y56498D01*
X155359Y55983D01*
X153096D01*
X152452Y55855D01*
X151906Y55490D01*
X135175Y38759D01*
X135012Y38516D01*
X115984D01*
Y31683D01*
X110096D01*
X90683Y51095D01*
Y56334D01*
X91516D01*
Y65466D01*
D02*
G37*
G36*
X265070Y46238D02*
Y40070D01*
X271238D01*
X271146Y40768D01*
X270386Y42603D01*
X269178Y44178D01*
X267603Y45386D01*
X265768Y46146D01*
X265070Y46238D01*
D02*
G37*
G36*
X262530Y46238D02*
X261832Y46146D01*
X259998Y45386D01*
X258422Y44178D01*
X257214Y42603D01*
X256454Y40768D01*
X256362Y40070D01*
X262530D01*
Y46238D01*
D02*
G37*
G36*
X493240Y47810D02*
X479970D01*
Y34540D01*
X493240D01*
Y47810D01*
D02*
G37*
G36*
X326240Y47810D02*
X312970D01*
Y34540D01*
X326240D01*
Y47810D01*
D02*
G37*
G36*
X477430Y47810D02*
X464160D01*
Y34540D01*
X477430D01*
Y47810D01*
D02*
G37*
G36*
X310430Y47810D02*
X297160D01*
Y34540D01*
X310430D01*
Y47810D01*
D02*
G37*
G36*
X174200Y55808D02*
X173011Y55571D01*
X172003Y54897D01*
X171329Y53889D01*
X171092Y52700D01*
X171329Y51511D01*
X172003Y50503D01*
X173011Y49829D01*
X174164Y49599D01*
X174617Y49147D01*
Y36516D01*
X165284D01*
Y32283D01*
X163997D01*
X158391Y37890D01*
X158767Y38453D01*
X159234Y40800D01*
X158767Y43147D01*
X157437Y45137D01*
X155447Y46467D01*
X153100Y46934D01*
X150753Y46467D01*
X148763Y45137D01*
X147433Y43147D01*
X146966Y40800D01*
X147433Y38453D01*
X148763Y36463D01*
X150753Y35133D01*
X153100Y34666D01*
X155447Y35133D01*
X156010Y35509D01*
X162110Y29410D01*
X162656Y29045D01*
X163300Y28917D01*
X165284D01*
Y19484D01*
X187316D01*
Y36516D01*
X177983D01*
Y49844D01*
X177855Y50488D01*
X177490Y51034D01*
X177048Y51476D01*
X177071Y51511D01*
X177308Y52700D01*
X177071Y53889D01*
X176397Y54897D01*
X175389Y55571D01*
X174200Y55808D01*
D02*
G37*
G36*
X271238Y37530D02*
X265070D01*
Y31362D01*
X265768Y31454D01*
X267603Y32214D01*
X269178Y33422D01*
X270386Y34997D01*
X271146Y36832D01*
X271238Y37530D01*
D02*
G37*
G36*
X262530D02*
X256362D01*
X256454Y36832D01*
X257214Y34997D01*
X258422Y33422D01*
X259998Y32214D01*
X261832Y31454D01*
X262530Y31362D01*
Y37530D01*
D02*
G37*
G36*
X71730Y40040D02*
X60460D01*
Y31270D01*
X71730D01*
Y40040D01*
D02*
G37*
G36*
X85540D02*
X74270D01*
Y30000D01*
Y19960D01*
X85540D01*
Y21584D01*
X86522Y22390D01*
X86600Y22374D01*
X87987Y22650D01*
X89164Y23436D01*
X89950Y24612D01*
X90225Y26000D01*
X89950Y27387D01*
X89466Y28111D01*
X89263Y29000D01*
X89466Y29889D01*
X89950Y30612D01*
X90225Y32000D01*
X89950Y33387D01*
X89164Y34564D01*
X87987Y35350D01*
X86600Y35626D01*
X86522Y35610D01*
X85540Y36416D01*
Y40040D01*
D02*
G37*
G36*
X97799Y22278D02*
X96411Y22002D01*
X95235Y21216D01*
X94364D01*
X93188Y22002D01*
X91800Y22278D01*
X90413Y22002D01*
X89236Y21216D01*
X88450Y20039D01*
X88174Y18652D01*
X88450Y17264D01*
X89236Y16088D01*
X90413Y15302D01*
X91800Y15026D01*
X93188Y15302D01*
X94364Y16088D01*
X95235D01*
X96411Y15302D01*
X97799Y15026D01*
X99186Y15302D01*
X100363Y16088D01*
X101149Y17264D01*
X101425Y18652D01*
X101149Y20039D01*
X100363Y21216D01*
X99186Y22002D01*
X97799Y22278D01*
D02*
G37*
G36*
X71730Y28730D02*
X60460D01*
Y19960D01*
X71730D01*
Y28730D01*
D02*
G37*
G36*
X233200Y53908D02*
X232011Y53671D01*
X231003Y52997D01*
X230329Y51989D01*
X230092Y50800D01*
X230329Y49611D01*
X230869Y48802D01*
Y36516D01*
X219284D01*
Y19484D01*
X241316D01*
Y36516D01*
X235531D01*
Y48802D01*
X236071Y49611D01*
X236308Y50800D01*
X236071Y51989D01*
X235397Y52997D01*
X234389Y53671D01*
X233200Y53908D01*
D02*
G37*
G36*
X493240Y32000D02*
X479970D01*
Y18730D01*
X493240D01*
Y32000D01*
D02*
G37*
G36*
X477430D02*
X464160D01*
Y18730D01*
X477430D01*
Y32000D01*
D02*
G37*
G36*
X326240D02*
X312970D01*
Y18730D01*
X326240D01*
Y32000D01*
D02*
G37*
G36*
X310430D02*
X297160D01*
Y18730D01*
X310430D01*
Y32000D01*
D02*
G37*
G36*
X402100Y33937D02*
X399192Y33554D01*
X396482Y32432D01*
X394154Y30646D01*
X392368Y28319D01*
X391246Y25608D01*
X390863Y22700D01*
X391246Y19792D01*
X392368Y17081D01*
X394154Y14754D01*
X396482Y12968D01*
X399192Y11846D01*
X402100Y11463D01*
X405008Y11846D01*
X407719Y12968D01*
X410046Y14754D01*
X411832Y17081D01*
X412954Y19792D01*
X413337Y22700D01*
X412954Y25608D01*
X411832Y28319D01*
X410046Y30646D01*
X407719Y32432D01*
X405008Y33554D01*
X402100Y33937D01*
D02*
G37*
G36*
X278000Y29811D02*
X275124Y29432D01*
X272444Y28322D01*
X270143Y26557D01*
X268377Y24255D01*
X267268Y21576D01*
X266889Y18700D01*
X267268Y15824D01*
X268377Y13145D01*
X270143Y10843D01*
X272444Y9078D01*
X275124Y7968D01*
X278000Y7589D01*
X280876Y7968D01*
X283556Y9078D01*
X285857Y10843D01*
X287623Y13145D01*
X288732Y15824D01*
X289111Y18700D01*
X288732Y21576D01*
X287623Y24255D01*
X285857Y26557D01*
X283556Y28322D01*
X280876Y29432D01*
X278000Y29811D01*
D02*
G37*
%LPD*%
G36*
X178238Y333118D02*
X167290Y322170D01*
X166389Y322771D01*
X165200Y323008D01*
X164011Y322771D01*
X163002Y322098D01*
X162329Y321089D01*
X162092Y319900D01*
X161721Y319448D01*
X156214D01*
X147000Y310234D01*
X147000Y258501D01*
X143499Y255000D01*
X139586D01*
X139388Y255133D01*
X138000Y255408D01*
X136613Y255133D01*
X136414Y255000D01*
X118429D01*
X111762Y261667D01*
Y330201D01*
X140545Y358984D01*
X141016D01*
Y359455D01*
X144244Y362683D01*
X144700Y362592D01*
X145889Y362829D01*
X146897Y363503D01*
X147571Y364511D01*
X147732Y365321D01*
X149027D01*
X149129Y364811D01*
X149803Y363802D01*
X150811Y363129D01*
X152000Y362892D01*
X153189Y363129D01*
X154198Y363802D01*
X154871Y364811D01*
X155108Y366000D01*
X154871Y367189D01*
X154198Y368198D01*
X153189Y368871D01*
X152387Y369031D01*
X151908Y370098D01*
X151887Y370326D01*
X166101Y384540D01*
X178238D01*
X178238Y333118D01*
D02*
G37*
G36*
X87500Y317554D02*
Y309018D01*
X83134Y304653D01*
X61022D01*
X50605Y294236D01*
Y265605D01*
X23536Y238536D01*
Y197008D01*
X26794Y193749D01*
X40251D01*
X56106Y177894D01*
Y159105D01*
X53000Y156000D01*
X36147D01*
X30500Y161647D01*
Y168962D01*
X8787Y190675D01*
Y286490D01*
X42849Y320552D01*
X62953D01*
X63632Y319282D01*
X63349Y318860D01*
X63073Y317473D01*
X63349Y316085D01*
X64135Y314909D01*
X65312Y314123D01*
X66699Y313847D01*
X68087Y314123D01*
X69263Y314909D01*
X70049Y316085D01*
X70325Y317473D01*
X70049Y318860D01*
X69767Y319282D01*
X70445Y320552D01*
X84501D01*
X87500Y317554D01*
D02*
G37*
G36*
X128984Y385614D02*
Y374984D01*
X141016D01*
Y385614D01*
X142796D01*
X142796Y385614D01*
X146081Y382330D01*
X146065Y380315D01*
X145638Y380230D01*
X144629Y379557D01*
X143956Y378549D01*
X143719Y377359D01*
X143956Y376170D01*
X143802Y374604D01*
X143129Y373596D01*
X142892Y372406D01*
X143129Y371217D01*
X143802Y370209D01*
X144131Y369989D01*
X143863Y368641D01*
X143511Y368571D01*
X142502Y367897D01*
X141829Y366889D01*
X141592Y365700D01*
X141829Y364511D01*
X142502Y363503D01*
X142593Y362587D01*
X140238Y360233D01*
X140100Y359900D01*
X139767Y359762D01*
X110984Y330979D01*
X110662Y330201D01*
Y261667D01*
X110984Y260889D01*
X112063Y259810D01*
X111416Y258661D01*
X91857D01*
X86001Y264518D01*
Y305964D01*
X88278Y308241D01*
X88600Y309018D01*
Y317554D01*
X88278Y318332D01*
X86001Y320608D01*
Y339346D01*
X85117Y340229D01*
X85242Y341493D01*
X85367Y341577D01*
X86041Y342585D01*
X86278Y343775D01*
X86041Y344964D01*
X85367Y345972D01*
X84359Y346646D01*
X84546Y347904D01*
X84738Y348870D01*
X84501Y350059D01*
X83828Y351068D01*
X82819Y351741D01*
X81630Y351978D01*
X80441Y351741D01*
X79433Y351068D01*
X78759Y350059D01*
X78523Y348870D01*
X78585Y348558D01*
X77414Y347933D01*
X73500Y351847D01*
Y358046D01*
X83098Y367644D01*
X92856D01*
Y377402D01*
X101069Y385614D01*
X128984Y385614D01*
D02*
G37*
G36*
X351930Y301096D02*
X352477Y300731D01*
X353121Y300603D01*
X389284D01*
X389628Y300089D01*
X390636Y299415D01*
X391825Y299179D01*
X393014Y299415D01*
X394023Y300089D01*
X394696Y301097D01*
X394933Y302286D01*
X394892Y302495D01*
X395757Y303613D01*
X395839Y303559D01*
X396592Y302442D01*
X396465Y301804D01*
X396701Y300614D01*
X397375Y299606D01*
X398383Y298933D01*
X399572Y298696D01*
X400762Y298933D01*
X401770Y299606D01*
X402444Y300614D01*
X402680Y301804D01*
X402532Y302551D01*
X409397Y309417D01*
X426103D01*
X432931Y302589D01*
Y271697D01*
X393217Y231983D01*
X352197D01*
X352083Y232097D01*
X351537Y232462D01*
X350893Y232591D01*
X345142D01*
X344889Y232970D01*
X344297Y234103D01*
X344971Y235111D01*
X345208Y236300D01*
X344971Y237489D01*
X344297Y238498D01*
X343289Y239171D01*
X342100Y239408D01*
X340911Y239171D01*
X339902Y238498D01*
X339229Y237489D01*
X338992Y236300D01*
X339229Y235111D01*
X339813Y234237D01*
X340117Y233654D01*
X339605Y232638D01*
X338291Y232390D01*
X337023Y233657D01*
Y312219D01*
X337597Y312602D01*
X338010Y313220D01*
X339459Y313568D01*
X351930Y301096D01*
D02*
G37*
G36*
X141033Y206194D02*
X141202Y205550D01*
X140932Y205147D01*
X138764Y202978D01*
X101308D01*
X100168Y202752D01*
X99202Y202106D01*
X97536Y200440D01*
X83919D01*
X82779Y200213D01*
X81813Y199568D01*
X78038Y195793D01*
X77052Y196602D01*
X77610Y197438D01*
X77847Y198628D01*
X77610Y199817D01*
X76936Y200825D01*
X75928Y201499D01*
X74739Y201735D01*
X73550Y201499D01*
X72541Y200825D01*
X71868Y199817D01*
X71631Y198628D01*
X71868Y197438D01*
X72541Y196430D01*
X72962Y196149D01*
X72577Y194879D01*
X69146D01*
X68238Y196238D01*
X66248Y197568D01*
X63901Y198035D01*
X61554Y197568D01*
X59564Y196238D01*
X58234Y194248D01*
X57767Y191901D01*
X58086Y190298D01*
X51672Y183883D01*
X42192Y193364D01*
X42718Y194634D01*
X43392D01*
X44036Y194762D01*
X44583Y195127D01*
X56276Y206821D01*
X140695D01*
X141033Y206194D01*
D02*
G37*
G36*
X354496Y176095D02*
Y144651D01*
X353226Y144220D01*
X352182Y145580D01*
X350219Y147086D01*
X347933Y148033D01*
X345875Y148304D01*
Y181990D01*
X345875Y181990D01*
X345644Y183150D01*
X346815Y183776D01*
X354496Y176095D01*
D02*
G37*
G36*
X334525Y179166D02*
Y148275D01*
Y146497D01*
X334543Y146408D01*
X334854Y144044D01*
X335695Y142012D01*
X335547Y141409D01*
X335020Y140688D01*
X332929Y140413D01*
X330642Y139466D01*
X328679Y137960D01*
X327173Y135996D01*
X326226Y133710D01*
X325903Y131257D01*
X326226Y128804D01*
X327173Y126517D01*
X328679Y124554D01*
X330642Y123048D01*
X332929Y122101D01*
X334525Y121891D01*
Y109893D01*
X333255Y109508D01*
X332712Y110320D01*
X330779Y111611D01*
X328500Y112065D01*
X326221Y111611D01*
X324288Y110320D01*
X324205Y110312D01*
X316432Y118085D01*
Y136875D01*
Y143445D01*
X316907Y143507D01*
X319161Y144441D01*
X321098Y145927D01*
X322583Y147863D01*
X323517Y150117D01*
X323822Y152431D01*
X323843Y152537D01*
X323822Y152642D01*
X323517Y154956D01*
X322583Y157211D01*
X321098Y159147D01*
X319161Y160632D01*
X316907Y161566D01*
X316432Y161629D01*
Y179261D01*
X316432Y179261D01*
Y195033D01*
X316325Y195569D01*
X317496Y196195D01*
X334525Y179166D01*
D02*
G37*
G36*
X354599Y133674D02*
X354788Y133577D01*
X354841Y133313D01*
X355823Y131842D01*
X364525Y123141D01*
Y103401D01*
X363255Y103275D01*
X363180Y103654D01*
X361888Y105587D01*
X359956Y106878D01*
X357677Y107331D01*
X355397Y106878D01*
X355200Y106746D01*
X355003Y106878D01*
X352724Y107331D01*
X350444Y106878D01*
X348512Y105587D01*
X347220Y103654D01*
X347145Y103275D01*
X345875Y103400D01*
Y113275D01*
Y123637D01*
X345857Y123726D01*
X345546Y126090D01*
X344705Y128122D01*
X345243Y129392D01*
X345480D01*
X345568Y129409D01*
X347933Y129721D01*
X350219Y130668D01*
X352182Y132174D01*
X353445Y133820D01*
X354599Y133674D01*
D02*
G37*
%LPC*%
G36*
X147000Y360108D02*
X145811Y359871D01*
X144803Y359198D01*
X144129Y358189D01*
X143892Y357000D01*
X144129Y355811D01*
X144803Y354803D01*
X145811Y354129D01*
X147000Y353892D01*
X148189Y354129D01*
X149198Y354803D01*
X149871Y355811D01*
X150108Y357000D01*
X149871Y358189D01*
X149198Y359198D01*
X148189Y359871D01*
X147000Y360108D01*
D02*
G37*
G36*
X148000Y350608D02*
X146811Y350371D01*
X145802Y349697D01*
X145129Y348689D01*
X144892Y347500D01*
X145129Y346311D01*
X145802Y345303D01*
X146811Y344629D01*
X148000Y344392D01*
X149189Y344629D01*
X150197Y345303D01*
X150871Y346311D01*
X151108Y347500D01*
X150871Y348689D01*
X150197Y349697D01*
X149189Y350371D01*
X148000Y350608D01*
D02*
G37*
G36*
X151000Y342107D02*
X149810Y341870D01*
X148802Y341197D01*
X148128Y340189D01*
X147892Y338999D01*
X148128Y337810D01*
X148802Y336802D01*
X149810Y336128D01*
X151000Y335892D01*
X152189Y336128D01*
X153197Y336802D01*
X153871Y337810D01*
X154107Y338999D01*
X153871Y340189D01*
X153197Y341197D01*
X152189Y341870D01*
X151000Y342107D01*
D02*
G37*
G36*
X149000Y333108D02*
X147811Y332871D01*
X146803Y332197D01*
X146129Y331189D01*
X145892Y330000D01*
X146129Y328811D01*
X146803Y327803D01*
X147811Y327129D01*
X149000Y326892D01*
X150189Y327129D01*
X151198Y327803D01*
X151871Y328811D01*
X152108Y330000D01*
X151871Y331189D01*
X151198Y332197D01*
X150189Y332871D01*
X149000Y333108D01*
D02*
G37*
G36*
X129573Y322108D02*
X128384Y321871D01*
X127376Y321198D01*
X126702Y320189D01*
X126466Y319000D01*
X126702Y317811D01*
X127376Y316803D01*
X128384Y316129D01*
X129573Y315892D01*
X130763Y316129D01*
X131771Y316803D01*
X132444Y317811D01*
X132681Y319000D01*
X132444Y320189D01*
X131771Y321198D01*
X130763Y321871D01*
X129573Y322108D01*
D02*
G37*
G36*
X28500Y290102D02*
X25885Y289758D01*
X23449Y288749D01*
X21356Y287143D01*
X19751Y285051D01*
X18742Y282615D01*
X18398Y280000D01*
X18742Y277385D01*
X19751Y274949D01*
X21356Y272857D01*
X23449Y271251D01*
X25885Y270242D01*
X28500Y269898D01*
X31115Y270242D01*
X33551Y271251D01*
X35643Y272857D01*
X37249Y274949D01*
X38258Y277385D01*
X38602Y280000D01*
X38258Y282615D01*
X37249Y285051D01*
X35643Y287143D01*
X33551Y288749D01*
X31115Y289758D01*
X28500Y290102D01*
D02*
G37*
G36*
X18000Y260108D02*
X16811Y259871D01*
X15803Y259198D01*
X15129Y258189D01*
X14892Y257000D01*
X15129Y255811D01*
X15803Y254802D01*
X16811Y254129D01*
X18000Y253892D01*
X19189Y254129D01*
X20198Y254802D01*
X20871Y255811D01*
X21108Y257000D01*
X20871Y258189D01*
X20198Y259198D01*
X19189Y259871D01*
X18000Y260108D01*
D02*
G37*
G36*
X93750Y315080D02*
X92363Y314804D01*
X91186Y314018D01*
X90400Y312842D01*
X90124Y311454D01*
X90400Y310067D01*
X91186Y308890D01*
X92363Y308104D01*
X93750Y307828D01*
X95138Y308104D01*
X96314Y308890D01*
X97100Y310067D01*
X97376Y311454D01*
X97100Y312842D01*
X96314Y314018D01*
X95138Y314804D01*
X93750Y315080D01*
D02*
G37*
G36*
X423534Y306157D02*
X421254Y305703D01*
X421057Y305571D01*
X420860Y305703D01*
X418581Y306157D01*
X416301Y305703D01*
X414369Y304412D01*
X413078Y302479D01*
X412624Y300200D01*
X413078Y297921D01*
X414369Y295988D01*
X415382Y295311D01*
Y292555D01*
X414593Y291417D01*
X412562Y291013D01*
X411041Y289997D01*
X410840Y289863D01*
X410840Y289863D01*
X410125Y289148D01*
X410123Y289146D01*
X410123Y289146D01*
X408973Y287424D01*
X408633Y285718D01*
X374753D01*
X373019Y285373D01*
X371548Y284391D01*
X360695Y273538D01*
X359713Y272067D01*
X359368Y270333D01*
Y262377D01*
X357652Y260662D01*
X356457Y260899D01*
X354178Y260446D01*
X352245Y259155D01*
X350954Y257222D01*
X350501Y254943D01*
X350954Y252663D01*
X352245Y250731D01*
X354178Y249440D01*
X354410Y249394D01*
X354456Y249161D01*
X355747Y247229D01*
X357680Y245938D01*
X359959Y245484D01*
X362239Y245938D01*
X364171Y247229D01*
X365462Y249161D01*
X365916Y251441D01*
X365678Y252636D01*
X369391Y256348D01*
X370373Y257819D01*
X370718Y259553D01*
Y267509D01*
X377577Y274368D01*
X412533D01*
X414267Y274713D01*
X415738Y275695D01*
X425405Y285362D01*
X425405Y285362D01*
X426387Y286833D01*
X426732Y288567D01*
X426732Y288567D01*
Y295311D01*
X427745Y295988D01*
X429036Y297921D01*
X429490Y300200D01*
X429036Y302479D01*
X427745Y304412D01*
X425813Y305703D01*
X423534Y306157D01*
D02*
G37*
%LPD*%
G36*
X210884Y166166D02*
Y164084D01*
X210884Y164084D01*
Y163916D01*
X210884D01*
X210884Y162814D01*
Y161440D01*
X209360D01*
Y159270D01*
X215400D01*
Y156730D01*
X209360D01*
Y154560D01*
X209360D01*
Y153440D01*
X209360D01*
Y150710D01*
X208090D01*
Y137290D01*
Y125290D01*
Y113290D01*
X209360D01*
Y111683D01*
X207200D01*
X206556Y111555D01*
X206010Y111190D01*
X202079Y107260D01*
X201789Y107348D01*
X200829Y108197D01*
X201283Y110477D01*
X200908Y112360D01*
X202332Y113312D01*
X203623Y115244D01*
X204076Y117523D01*
X203623Y119803D01*
X203491Y120000D01*
X203623Y120197D01*
X204076Y122477D01*
X203623Y124756D01*
X203438Y125033D01*
X203856Y125312D01*
X205147Y127244D01*
X205600Y129523D01*
X205147Y131803D01*
X205015Y132000D01*
X205147Y132197D01*
X205600Y134476D01*
X205147Y136756D01*
X203856Y138688D01*
X203438Y138967D01*
X203623Y139244D01*
X204076Y141524D01*
X203623Y143803D01*
X203491Y144000D01*
X203623Y144197D01*
X204076Y146476D01*
X203623Y148756D01*
X203281Y149267D01*
X203348Y149312D01*
X204639Y151244D01*
X205093Y153524D01*
X204639Y155803D01*
X204507Y156000D01*
X204639Y156197D01*
X205093Y158476D01*
X204639Y160756D01*
X203348Y162688D01*
X203120Y162841D01*
X203062Y163103D01*
X203854Y164316D01*
X206541D01*
X207185Y164445D01*
X207731Y164809D01*
X209614Y166692D01*
X210884Y166166D01*
D02*
G37*
G36*
X134317Y133950D02*
Y133900D01*
X134445Y133256D01*
X134810Y132710D01*
X159617Y107903D01*
Y89597D01*
X153603Y83583D01*
X141197D01*
X139387Y85393D01*
X139508Y86000D01*
X139271Y87189D01*
X138597Y88197D01*
X137589Y88871D01*
X136400Y89108D01*
X135211Y88871D01*
X134202Y88197D01*
X133529Y87189D01*
X133292Y86000D01*
X133529Y84811D01*
X134202Y83802D01*
X135150Y83170D01*
X135166Y83075D01*
X134694Y81900D01*
X131266D01*
Y90016D01*
X129183D01*
Y92312D01*
X132766D01*
Y99324D01*
X134036Y99850D01*
X136274Y97612D01*
X136274Y97612D01*
X140494Y93392D01*
X140494Y93392D01*
X141969Y91917D01*
X142016Y91681D01*
X141930Y91249D01*
X142383Y88969D01*
X143674Y87037D01*
X145607Y85746D01*
X147886Y85292D01*
X150166Y85746D01*
X152098Y87037D01*
X153389Y88969D01*
X153436Y89202D01*
X153668Y89248D01*
X155601Y90539D01*
X156892Y92472D01*
X157345Y94751D01*
X156892Y97030D01*
X155601Y98963D01*
X153668Y100254D01*
X151389Y100707D01*
X150956Y100621D01*
X150720Y100668D01*
X141204Y110185D01*
X141243Y110503D01*
X141704Y111481D01*
X142544Y111648D01*
X143552Y112322D01*
X144226Y113330D01*
X144463Y114519D01*
X144226Y115708D01*
X143552Y116717D01*
X142544Y117390D01*
X141355Y117627D01*
X140166Y117390D01*
X139157Y116717D01*
X138484Y115708D01*
X138317Y114868D01*
X137338Y114407D01*
X137021Y114368D01*
X136913Y114476D01*
X135358Y115515D01*
X133525Y115879D01*
X131266D01*
Y125016D01*
X129831D01*
Y127734D01*
X132766D01*
Y133375D01*
X134036Y134111D01*
X134317Y133950D01*
D02*
G37*
G36*
X144200Y72100D02*
Y69500D01*
X136400Y61700D01*
X128400D01*
X125100Y65000D01*
Y77300D01*
X127784Y79984D01*
X131266D01*
Y80800D01*
X135500D01*
X144200Y72100D01*
D02*
G37*
D13*
X566700Y283500D02*
Y299122D01*
Y278500D02*
Y283500D01*
Y267877D02*
Y278500D01*
X576540Y283500D02*
X582323D01*
X567300D02*
X576540D01*
X566700D02*
X567300D01*
X311700Y366730D02*
X327323D01*
X311700D02*
Y382352D01*
X296078Y366730D02*
X311700D01*
Y351107D02*
Y366730D01*
X478700D02*
X494322D01*
X478700D02*
Y382352D01*
X463077Y366730D02*
X478700D01*
Y351107D02*
Y366730D01*
X551077Y283500D02*
X566700D01*
Y116500D02*
X582323D01*
X566700D02*
Y132123D01*
X551077Y116500D02*
X566700D01*
Y100878D02*
Y116500D01*
X478700Y33270D02*
X494322D01*
X478700D02*
Y48892D01*
X463077Y33270D02*
X478700D01*
Y17648D02*
Y33270D01*
X311700Y17648D02*
Y33270D01*
X296078D02*
X311700D01*
Y48892D01*
X332901Y32899D02*
X333200Y32600D01*
X327693Y32899D02*
X332901D01*
X327323Y33270D02*
X327693Y32899D01*
X311700Y33270D02*
X327323D01*
D18*
X377750Y83225D02*
Y97725D01*
X347750Y83225D02*
Y97725D01*
X130813Y148286D02*
X147800D01*
X119917Y137391D02*
X130813Y148286D01*
X119000Y132000D02*
X119917Y132917D01*
Y137391D01*
X89500Y350875D02*
X103475Y364850D01*
X89500Y338000D02*
Y350875D01*
X233200Y27100D02*
Y50800D01*
X232200Y26100D02*
X233200Y27100D01*
X230300Y28000D02*
X232200Y26100D01*
X347700Y83175D02*
X347750Y83225D01*
X377750Y97725D02*
X377800Y97775D01*
X377700Y83175D02*
X377750Y83225D01*
X103475Y364850D02*
Y373975D01*
X105000Y375500D01*
X135000Y380500D02*
Y390433D01*
X134458Y390975D02*
X135000Y390433D01*
X134458Y390975D02*
Y391387D01*
X79699Y370199D02*
X85000Y375500D01*
X127500Y120000D02*
Y130500D01*
X109000Y185000D02*
X119000Y175000D01*
X109000Y185000D02*
X109000D01*
X119000Y167000D02*
Y175000D01*
Y167000D02*
X120000Y166000D01*
X98000Y160000D02*
Y163512D01*
X101488Y167000D01*
X110244D02*
X119000D01*
X101488D02*
X110244D01*
D19*
X119000Y96578D02*
D03*
X129000D02*
D03*
X98000Y160000D02*
D03*
X88000D02*
D03*
X119000Y132000D02*
D03*
X129000D02*
D03*
X119000Y167000D02*
D03*
X129000D02*
D03*
D20*
X94000Y100100D02*
D03*
X99000Y87900D02*
D03*
X89000D02*
D03*
X94000Y148100D02*
D03*
X99000Y135900D02*
D03*
X89000D02*
D03*
X94000Y73100D02*
D03*
X99000Y60900D02*
D03*
X89000D02*
D03*
D21*
X59500Y97500D02*
D03*
Y102500D02*
D03*
X72500Y150000D02*
D03*
Y145000D02*
D03*
Y140000D02*
D03*
Y135000D02*
D03*
Y130000D02*
D03*
Y125000D02*
D03*
Y115000D02*
D03*
Y110000D02*
D03*
Y105000D02*
D03*
Y100000D02*
D03*
Y95000D02*
D03*
Y90000D02*
D03*
X59500Y107500D02*
D03*
Y112500D02*
D03*
Y117500D02*
D03*
Y122500D02*
D03*
Y127500D02*
D03*
Y132500D02*
D03*
Y137500D02*
D03*
Y142500D02*
D03*
D22*
Y89000D02*
D03*
Y151000D02*
D03*
D23*
X478700Y33270D02*
D03*
X311700Y366730D02*
D03*
D24*
X452700Y59770D02*
D03*
X457700D02*
D03*
X432700D02*
D03*
X437700D02*
D03*
X442700D02*
D03*
X447700D02*
D03*
X392700D02*
D03*
X332700D02*
D03*
X337700D02*
D03*
X342700D02*
D03*
X347700D02*
D03*
X352700D02*
D03*
X357700D02*
D03*
X362700D02*
D03*
X367700D02*
D03*
X372700D02*
D03*
X377700D02*
D03*
X382700D02*
D03*
X387700D02*
D03*
X397700D02*
D03*
X402700D02*
D03*
X407700D02*
D03*
X412700D02*
D03*
X417700D02*
D03*
X422700D02*
D03*
X427700D02*
D03*
X337700Y340230D02*
D03*
X332700D02*
D03*
X357700D02*
D03*
X352700D02*
D03*
X347700D02*
D03*
X342700D02*
D03*
X397700D02*
D03*
X457700D02*
D03*
X452700D02*
D03*
X447700D02*
D03*
X442700D02*
D03*
X437700D02*
D03*
X432700D02*
D03*
X427700D02*
D03*
X422700D02*
D03*
X417700D02*
D03*
X412700D02*
D03*
X407700D02*
D03*
X402700D02*
D03*
X392700D02*
D03*
X387700D02*
D03*
X382700D02*
D03*
X377700D02*
D03*
X372700D02*
D03*
X367700D02*
D03*
X362700D02*
D03*
D25*
X311700Y33270D02*
D03*
X478700Y366730D02*
D03*
D26*
X566700Y283500D02*
D03*
D27*
X540200Y257500D02*
D03*
Y262500D02*
D03*
Y237500D02*
D03*
Y242500D02*
D03*
Y247500D02*
D03*
Y252500D02*
D03*
Y197500D02*
D03*
Y137500D02*
D03*
Y142500D02*
D03*
Y147500D02*
D03*
Y152500D02*
D03*
Y157500D02*
D03*
Y162500D02*
D03*
Y167500D02*
D03*
Y172500D02*
D03*
Y177500D02*
D03*
Y182500D02*
D03*
Y187500D02*
D03*
Y192500D02*
D03*
Y202500D02*
D03*
Y207500D02*
D03*
Y212500D02*
D03*
Y217500D02*
D03*
Y222500D02*
D03*
Y227500D02*
D03*
Y232500D02*
D03*
D28*
X566700Y116500D02*
D03*
D29*
X215400Y298000D02*
D03*
Y294000D02*
D03*
Y290000D02*
D03*
Y286000D02*
D03*
Y282000D02*
D03*
Y278000D02*
D03*
Y274000D02*
D03*
Y270000D02*
D03*
Y266000D02*
D03*
Y262000D02*
D03*
Y258000D02*
D03*
Y254000D02*
D03*
Y250000D02*
D03*
Y246000D02*
D03*
Y242000D02*
D03*
Y238000D02*
D03*
Y234000D02*
D03*
Y230000D02*
D03*
Y226000D02*
D03*
Y222000D02*
D03*
Y218000D02*
D03*
Y214000D02*
D03*
Y210000D02*
D03*
Y206000D02*
D03*
Y202000D02*
D03*
Y198000D02*
D03*
Y194000D02*
D03*
Y190000D02*
D03*
Y186000D02*
D03*
Y182000D02*
D03*
Y178000D02*
D03*
Y174000D02*
D03*
Y170000D02*
D03*
Y166000D02*
D03*
Y162000D02*
D03*
Y158000D02*
D03*
Y154000D02*
D03*
Y150000D02*
D03*
Y146000D02*
D03*
Y142000D02*
D03*
Y138000D02*
D03*
Y134000D02*
D03*
Y130000D02*
D03*
Y126000D02*
D03*
Y122000D02*
D03*
Y118000D02*
D03*
Y114000D02*
D03*
Y110000D02*
D03*
Y106000D02*
D03*
Y102000D02*
D03*
X184600Y298000D02*
D03*
Y294000D02*
D03*
Y290000D02*
D03*
Y286000D02*
D03*
Y282000D02*
D03*
Y278000D02*
D03*
Y274000D02*
D03*
Y270000D02*
D03*
Y266000D02*
D03*
Y262000D02*
D03*
Y258000D02*
D03*
Y254000D02*
D03*
Y250000D02*
D03*
Y246000D02*
D03*
Y242000D02*
D03*
Y238000D02*
D03*
Y234000D02*
D03*
Y230000D02*
D03*
Y226000D02*
D03*
Y222000D02*
D03*
Y218000D02*
D03*
Y214000D02*
D03*
Y210000D02*
D03*
Y206000D02*
D03*
Y202000D02*
D03*
Y198000D02*
D03*
Y194000D02*
D03*
Y190000D02*
D03*
Y186000D02*
D03*
Y182000D02*
D03*
Y178000D02*
D03*
Y174000D02*
D03*
Y170000D02*
D03*
Y166000D02*
D03*
Y162000D02*
D03*
Y158000D02*
D03*
Y154000D02*
D03*
Y150000D02*
D03*
Y146000D02*
D03*
Y142000D02*
D03*
Y138000D02*
D03*
Y134000D02*
D03*
Y130000D02*
D03*
Y126000D02*
D03*
Y122000D02*
D03*
Y118000D02*
D03*
Y114000D02*
D03*
Y110000D02*
D03*
Y106000D02*
D03*
Y102000D02*
D03*
D30*
X367700Y91525D02*
D03*
X372700D02*
D03*
X382700D02*
D03*
X387700D02*
D03*
Y83175D02*
D03*
X382700D02*
D03*
X372700D02*
D03*
X367700D02*
D03*
X337700Y91525D02*
D03*
X342700D02*
D03*
X352700D02*
D03*
X357700D02*
D03*
Y83175D02*
D03*
X352700D02*
D03*
X342700D02*
D03*
X337700D02*
D03*
D31*
X377700Y91525D02*
D03*
Y83175D02*
D03*
X347700Y91525D02*
D03*
Y83175D02*
D03*
D32*
X113750Y85000D02*
D03*
X126250D02*
D03*
X113750Y120000D02*
D03*
X126250D02*
D03*
X113750Y155000D02*
D03*
X126250D02*
D03*
D33*
X230533Y371217D02*
D03*
X186333D02*
D03*
D34*
X135000Y380500D02*
D03*
Y364500D02*
D03*
D35*
X230300Y28000D02*
D03*
X176300D02*
D03*
X73000Y30000D02*
D03*
X127000D02*
D03*
D66*
X326151Y330693D02*
D03*
X388613Y174515D02*
D03*
X394233Y174690D02*
D03*
X428343Y250287D02*
D03*
X541750Y79000D02*
D03*
X500250D02*
D03*
X521000Y58250D02*
D03*
Y99750D02*
D03*
X299750Y79000D02*
D03*
X258250D02*
D03*
X279000Y58250D02*
D03*
Y99750D02*
D03*
X541750Y321000D02*
D03*
X500250D02*
D03*
X521000Y300250D02*
D03*
Y341750D02*
D03*
X299750Y321000D02*
D03*
X258250D02*
D03*
X279000Y300250D02*
D03*
Y341750D02*
D03*
X326226Y338330D02*
D03*
X326125Y345030D02*
D03*
X538300Y268674D02*
D03*
X530600Y268674D02*
D03*
X545000Y268774D02*
D03*
X464274Y55140D02*
D03*
X464174Y69540D02*
D03*
X464174Y61840D02*
D03*
X421156Y219016D02*
D03*
X466299Y320499D02*
D03*
X101068Y77628D02*
D03*
X102842Y45060D02*
D03*
X86892Y45060D02*
D03*
X86600Y26000D02*
D03*
X86600Y32000D02*
D03*
X91800Y18652D02*
D03*
X97799D02*
D03*
X115100Y54500D02*
D03*
Y68100D02*
D03*
X131138Y65410D02*
D03*
Y71409D02*
D03*
X114300Y74900D02*
D03*
X261031Y375071D02*
D03*
Y367063D02*
D03*
X253833Y370347D02*
D03*
Y378354D02*
D03*
X93222Y266527D02*
D03*
X66699Y317473D02*
D03*
X93222Y282542D02*
D03*
Y290550D02*
D03*
Y274535D02*
D03*
X80243Y356427D02*
D03*
X96257D02*
D03*
X88250D02*
D03*
X138000Y251783D02*
D03*
X93750Y311454D02*
D03*
X80168Y315650D02*
D03*
X72668D02*
D03*
Y308150D02*
D03*
X80168D02*
D03*
D68*
X233043Y290857D02*
X231773Y289587D01*
X229239Y288729D02*
X230506Y287462D01*
X231773Y288729D01*
X229239Y289587D02*
X227969Y290857D01*
X339057Y123637D02*
X338276Y125523D01*
X336390Y126304D01*
X335382Y136210D02*
X332906Y135546D01*
X331093Y133733D01*
X330429Y131257D01*
X331093Y128780D01*
X332906Y126967D01*
X335382Y126304D01*
X345480Y136210D02*
X347789Y137543D01*
Y140210D01*
X345480Y141544D01*
X339057Y146497D02*
X339721Y144020D01*
X341534Y142207D01*
X344010Y141544D01*
X341343Y123637D02*
X340679Y126113D01*
X338867Y127926D01*
X336390Y128590D01*
X335382Y133924D02*
X333072Y132590D01*
Y129923D01*
X335382Y128590D01*
X345480Y133924D02*
X347956Y134587D01*
X349769Y136400D01*
X350433Y138877D01*
X349769Y141353D01*
X347956Y143166D01*
X345480Y143830D01*
X341343Y146497D02*
X342124Y144611D01*
X344010Y143830D01*
X415191Y286587D02*
X416987D01*
X415130Y286647D02*
X414055D01*
X413339Y285931D02*
Y284856D01*
X413399Y282999D02*
Y284795D01*
X314437Y147714D02*
X312643Y146971D01*
X311900Y145177D01*
X314487Y147714D02*
X316899Y148360D01*
X318664Y150125D01*
X319311Y152537D01*
Y152537D02*
X318664Y154948D01*
X316899Y156714D01*
X314487Y157360D01*
X311900Y159897D02*
X312643Y158103D01*
X314437Y157360D01*
Y150000D02*
X312026Y149354D01*
X310260Y147588D01*
X309614Y145177D01*
Y159897D02*
X310260Y157485D01*
X312026Y155720D01*
X314437Y155074D01*
X314487Y150000D02*
X316282Y150743D01*
X317024Y152537D01*
Y152537D02*
X316282Y154331D01*
X314487Y155074D01*
X228979Y265209D02*
X227331Y266857D01*
X228979Y265161D02*
X230627Y263513D01*
X232275Y265161D01*
X233923Y266857D02*
X232275Y265209D01*
X227307Y277333D02*
X225783Y278857D01*
X227307Y277228D02*
X228831Y275704D01*
X230355Y277228D01*
X231879Y278857D02*
X230355Y277333D01*
X109853Y251434D02*
X111060Y250228D01*
X109853Y251323D02*
X108520Y252656D01*
X107377D02*
X106044Y251323D01*
X104710Y247799D02*
X106044Y249132D01*
X102233D02*
X103567Y247799D01*
X102233Y251323D02*
X100900Y252656D01*
X99757D02*
X98424Y251323D01*
X97090Y247799D02*
X98424Y249132D01*
X94614D02*
X95947Y247799D01*
X94614Y251434D02*
X93280Y252768D01*
X92137D02*
X90803Y251434D01*
X89597Y250228D02*
X90803Y251434D01*
X68611Y246059D02*
X70317Y246059D01*
X68611D02*
X66725D01*
X65916Y245250D02*
Y243365D01*
X67623Y239772D02*
Y241658D01*
X64929Y238964D02*
X66814D01*
X63222Y240671D02*
X61336D01*
X60528Y239862D02*
Y237976D01*
X62235Y234384D02*
Y236270D01*
X59540Y233576D02*
X61426D01*
X57834Y235282D02*
X55948D01*
X55140Y234474D02*
Y232588D01*
X56846Y228996D02*
Y230882D01*
X54152Y228188D02*
X56038D01*
X54152Y228188D02*
X52446D01*
X92872Y214993D02*
X91539Y216326D01*
X90396D02*
X89062Y214993D01*
X87729Y211788D02*
X89062Y213122D01*
X85252D02*
X86586Y211788D01*
X85252Y214993D02*
X83919Y216326D01*
X82776D02*
X81442Y214993D01*
X80109Y211788D02*
X81442Y213122D01*
X77632D02*
X78966Y211788D01*
X77632Y214507D02*
X76299Y215840D01*
X75156D02*
X73822Y214507D01*
X72489Y211788D02*
X73822Y213122D01*
X70012D02*
X71346Y211788D01*
X70012Y214993D02*
X68679Y216326D01*
X67536D02*
X66202Y214993D01*
X64869Y211788D02*
X66202Y213122D01*
X62392D02*
X63726Y211788D01*
X62392Y214993D02*
X61059Y216326D01*
X59916D02*
X58582Y214993D01*
X57249Y211517D02*
X58582Y212851D01*
X54772D02*
X56106Y211517D01*
X54772Y212851D02*
X53566Y214057D01*
X119923D02*
X121129Y215264D01*
X122463Y216597D02*
X121129Y215264D01*
X124939D02*
X123606Y216597D01*
X124939Y212851D02*
X126273Y211517D01*
X127416D02*
X128749Y212851D01*
X130083Y216597D02*
X128749Y215264D01*
X132559D02*
X131226Y216597D01*
X132559Y212851D02*
X133893Y211517D01*
X135036D02*
X136369Y212851D01*
X137703Y216597D02*
X136369Y215264D01*
X140179D02*
X138846Y216597D01*
X140179Y215264D02*
X141386Y214057D01*
X176300Y28000D02*
Y49844D01*
X174200Y51944D02*
X176300Y49844D01*
X174200Y51944D02*
Y52700D01*
X165500Y150600D02*
X177475Y162575D01*
Y169610D01*
X165500Y150600D02*
X165500D01*
X173648Y165357D02*
Y169783D01*
X173138Y164846D02*
X173648Y165357D01*
X173400Y30900D02*
X174200Y31700D01*
X94000Y92000D02*
X96784Y89216D01*
X99000Y87900D02*
Y88351D01*
X98135Y89216D02*
X99000Y88351D01*
X96784Y89216D02*
X98135D01*
X395399Y189800D02*
X405800Y179399D01*
Y161983D02*
X454683Y113100D01*
X405800Y161983D02*
Y179399D01*
X435066Y137866D02*
X456409Y116524D01*
X407760Y209004D02*
X416196D01*
X435066Y190134D01*
Y137866D02*
Y190134D01*
X438000Y139000D02*
Y192400D01*
X407744Y214093D02*
X416307D01*
X438000Y192400D01*
Y139000D02*
X457600Y119400D01*
X385382Y104882D02*
X385899Y105400D01*
X391474Y112574D02*
Y148626D01*
X382200Y157900D02*
X391474Y148626D01*
X382200Y157900D02*
Y194900D01*
X385899Y105400D02*
Y149934D01*
X379000Y156833D02*
X385899Y149934D01*
X379000Y156833D02*
Y194700D01*
X391472Y112572D02*
X397100Y118200D01*
X383065Y95728D02*
X391472Y104135D01*
X376000Y156600D02*
X381675Y150925D01*
Y108300D02*
Y150925D01*
X376000Y156600D02*
Y192300D01*
X335340Y232960D02*
X376000Y192300D01*
X335340Y232960D02*
Y314740D01*
X350893Y230907D02*
X351500Y230300D01*
X342601Y230907D02*
X350893D01*
X352151Y221549D02*
Y230300D01*
Y221549D02*
X379000Y194700D01*
X356200Y220900D02*
X382200Y194900D01*
X356200Y225891D02*
X356342Y226034D01*
X356200Y220900D02*
Y225891D01*
X525500Y167400D02*
X525500Y167400D01*
X525436Y167336D02*
X525500Y167400D01*
X517518Y167271D02*
X517583Y167336D01*
X525436D01*
X525394Y152294D02*
X525500Y152400D01*
X519662Y152294D02*
X525394D01*
X519556Y152188D02*
X519662Y152294D01*
X525464Y182436D02*
X525500Y182400D01*
X519935Y182436D02*
X525464D01*
X519899Y182472D02*
X519935Y182436D01*
X525235Y212665D02*
X525500Y212400D01*
X520164Y212665D02*
X525235D01*
X519899Y212929D02*
X520164Y212665D01*
X525429Y197471D02*
X525500Y197400D01*
X517470Y197471D02*
X525429D01*
X517399Y197542D02*
X517470Y197471D01*
X442777Y325508D02*
X442800Y325530D01*
X442777Y320076D02*
Y325508D01*
X442755Y320054D02*
X442777Y320076D01*
X427672Y325402D02*
X427800Y325530D01*
X427672Y319248D02*
Y325402D01*
X427544Y319120D02*
X427672Y319248D01*
X427800Y325530D02*
Y338230D01*
Y325530D02*
X427800Y325530D01*
X576540Y283500D02*
X576657Y284027D01*
X576083Y281428D02*
X576540Y283500D01*
X567300D02*
Y294600D01*
Y279100D02*
Y283500D01*
X566700Y278500D02*
X575436D01*
X347750Y97725D02*
Y98581D01*
X184573Y274223D02*
X197963D01*
X184490Y149860D02*
X189391D01*
X184599Y138250D02*
X194396D01*
X140970Y90134D02*
Y93239D01*
X99135Y135170D02*
X99865Y135900D01*
X331841Y95207D02*
X333886Y97252D01*
Y109880D02*
X333886Y109880D01*
X333886Y97252D02*
Y109880D01*
X346410Y99921D02*
X347750Y98581D01*
X346410Y99921D02*
Y104630D01*
X362352Y97536D02*
Y98292D01*
X363730Y99670D02*
Y105430D01*
X364000Y105700D01*
X362352Y98292D02*
X363730Y99670D01*
X362352Y97536D02*
X362513Y97374D01*
Y74606D02*
X362674Y74445D01*
X362513Y74606D02*
Y97374D01*
X372700Y349501D02*
X410349Y387150D01*
X503150D02*
X517900Y372400D01*
X410349Y387150D02*
X503150D01*
X457600Y119400D02*
X529194D01*
X552382Y96212D01*
X574488D01*
X456409Y116524D02*
X528165D01*
X554224Y90465D02*
X559635D01*
X528165Y116524D02*
X554224Y90465D01*
X454683Y113100D02*
X527594D01*
X560794Y79900D01*
X559635Y90465D02*
X561100Y89000D01*
X574488Y96212D02*
X581700Y89000D01*
X284800Y37918D02*
Y38800D01*
X293800Y16900D02*
Y28918D01*
X284800Y37918D02*
X293800Y28918D01*
X575436Y278500D02*
X576083Y281428D01*
X554202Y304302D02*
X564502D01*
X522300Y272400D02*
X554202Y304302D01*
X564502D02*
X573400Y313200D01*
X372700Y340230D02*
Y349501D01*
Y320100D02*
Y340230D01*
X281637Y366100D02*
X288669Y359069D01*
Y356331D02*
X322700Y322300D01*
X288669Y356331D02*
Y359069D01*
X266100Y366100D02*
X281637D01*
X322700Y322300D02*
X336500D01*
X342700Y328500D02*
Y340230D01*
X336500Y322300D02*
X342700Y328500D01*
X347507Y340230D02*
X347641Y340095D01*
Y329792D02*
Y340095D01*
X335340Y314740D02*
X335399Y314799D01*
X351500Y230300D02*
X352151D01*
X421523Y114760D02*
X435904Y100380D01*
X471220D02*
X484500Y87100D01*
X435904Y100380D02*
X471220D01*
X398380Y114760D02*
X421523D01*
X395000Y111380D02*
X398380Y114760D01*
X395000Y102455D02*
Y111380D01*
X352151Y230300D02*
X393914D01*
X360699Y319099D02*
Y327700D01*
X361475Y314667D02*
X364382Y317574D01*
X354745Y314667D02*
X361475D01*
X357700Y330699D02*
Y338230D01*
Y330699D02*
X360699Y327700D01*
X364382Y317574D02*
Y336548D01*
X362700Y338230D02*
X364382Y336548D01*
X240413Y219560D02*
X240818Y219965D01*
X226900Y212200D02*
X234600Y219900D01*
X240170Y219560D02*
X240413D01*
X229800Y209190D02*
X240170Y219560D01*
X229800Y176317D02*
Y209190D01*
X232400Y203942D02*
X247129Y218671D01*
X504623Y257900D02*
X507200Y260476D01*
Y262102D01*
X559588Y310288D02*
X561100Y311800D01*
X555387Y310288D02*
X559588D01*
X507200Y262102D02*
X555387Y310288D01*
X501329Y257900D02*
X504623D01*
X502387Y262432D02*
X554000Y314045D01*
X497333Y261001D02*
X498089D01*
X499294Y259935D02*
X501329Y257900D01*
X499155Y259935D02*
X499294D01*
X498089Y261001D02*
X499155Y259935D01*
X554000Y314045D02*
Y324400D01*
X531565Y217200D02*
X540200D01*
X531565Y222200D02*
X540200D01*
X219748Y166265D02*
X229800Y176317D01*
X215665Y166265D02*
X219748D01*
X215400Y166000D02*
X215665Y166265D01*
X232400Y166300D02*
Y203942D01*
X220100Y154000D02*
X232400Y166300D01*
X215400Y154000D02*
X220100D01*
X561100Y331500D02*
Y332086D01*
X554000Y324400D02*
X561100Y331500D01*
X523556Y222376D02*
X524890Y221043D01*
X530408D02*
X531565Y222200D01*
X524890Y221043D02*
X530408D01*
X522800Y222376D02*
X523556D01*
X524748Y218757D02*
X530008D01*
X531565Y217200D01*
X523415Y217423D02*
X524748Y218757D01*
X522800Y217423D02*
X523415D01*
X393914Y230300D02*
X434614Y271000D01*
X353121Y302286D02*
X391825D01*
X336925Y318482D02*
X353121Y302286D01*
X377800Y322600D02*
Y338130D01*
X233043Y290857D02*
X236516D01*
X231773Y288729D02*
Y289587D01*
X229239Y288729D02*
Y289587D01*
X224800Y290857D02*
X227969D01*
X236516D02*
X237188D01*
X218857D02*
X224800D01*
X339057Y113275D02*
Y123637D01*
X335382Y126304D02*
X336390D01*
X335382Y136210D02*
X345480D01*
X344010Y141544D02*
X345480D01*
X339057Y146497D02*
Y148275D01*
X341343Y113275D02*
Y123637D01*
X335382Y128590D02*
X336390D01*
X335382Y133924D02*
X345480D01*
X344010Y143830D02*
X345480D01*
X341343Y146497D02*
Y148275D01*
X361314Y135994D02*
Y178919D01*
X247063Y293169D02*
X361314Y178919D01*
Y135994D02*
X371343Y125965D01*
X359028Y135047D02*
Y177972D01*
X246117Y290884D02*
X359028Y177972D01*
Y135047D02*
X369057Y125018D01*
X237215Y290884D02*
X246117D01*
X236268Y293169D02*
X247063D01*
X218857Y293143D02*
X236242D01*
X369057Y94459D02*
Y125018D01*
X368313Y93715D02*
X369057Y94459D01*
X368065Y93715D02*
X368313D01*
X369057Y86109D02*
Y88591D01*
X368313Y89335D02*
X369057Y88591D01*
X367700Y91525D02*
Y93350D01*
Y89700D02*
Y91525D01*
Y93350D02*
X368065Y93715D01*
Y89335D02*
X368313D01*
X367700Y89700D02*
X368065Y89335D01*
X368313Y80985D02*
X369057Y80241D01*
Y74622D02*
Y80241D01*
X368313Y85365D02*
X369057Y86109D01*
X369057Y67627D02*
Y69675D01*
X369032Y69700D02*
X369057Y69675D01*
X368065Y85365D02*
X368313D01*
X368065Y80985D02*
X368313D01*
X367700Y85000D02*
X368065Y85365D01*
X369032Y69700D02*
Y74597D01*
X369057Y74622D01*
X367675Y66245D02*
X369057Y67627D01*
X367700Y81350D02*
Y83175D01*
Y85000D01*
Y81350D02*
X368065Y80985D01*
X367675Y61745D02*
Y66245D01*
X218000Y290000D02*
X218857Y290857D01*
X215400Y290000D02*
X218000D01*
X372335Y93715D02*
X372700Y93350D01*
Y91525D02*
Y93350D01*
Y89700D02*
Y91525D01*
X372335Y89335D02*
X372700Y89700D01*
X372087Y93715D02*
X372335D01*
X372087Y89335D02*
X372335D01*
X371343Y88591D02*
X372087Y89335D01*
Y85365D02*
X372335D01*
X371343Y86109D02*
X372087Y85365D01*
X372335D02*
X372700Y85000D01*
Y83175D02*
Y85000D01*
Y81350D02*
Y83175D01*
X372335Y80985D02*
X372700Y81350D01*
X372087Y80985D02*
X372335D01*
X371343Y67627D02*
Y70622D01*
X372675Y60798D02*
Y66295D01*
X371343Y67627D02*
X372675Y66295D01*
X371343Y94459D02*
Y125965D01*
X215400Y294000D02*
X218000D01*
X218857Y293143D01*
X371343Y86109D02*
Y88591D01*
Y80241D02*
X372087Y80985D01*
X371343Y94459D02*
X372087Y93715D01*
X371318Y70647D02*
X371343Y70622D01*
X371343Y73675D02*
Y80241D01*
X371318Y73650D02*
X371343Y73675D01*
X371318Y70647D02*
Y73650D01*
X236242Y293143D02*
X236268Y293169D01*
X237188Y290857D02*
X237215Y290884D01*
X416987Y286587D02*
X419750Y289350D01*
X415130Y286647D02*
X415191Y286587D01*
X415130Y286647D02*
X415130Y286647D01*
X413339Y285931D02*
X414055Y286647D01*
X413339Y284856D02*
X413399Y284795D01*
X413399Y284795D02*
X413399Y284795D01*
X412950Y282550D02*
X413399Y282999D01*
X419750Y289350D02*
X419914Y289514D01*
X411586Y281186D02*
X412950Y282550D01*
X419914Y289514D02*
Y298111D01*
X374753Y281186D02*
X411586D01*
X533700Y162200D02*
X540200D01*
X533700Y157200D02*
X540200D01*
X198888Y134476D02*
X199644D01*
X197554Y133143D02*
X198888Y134476D01*
X187200Y134000D02*
X188057Y133143D01*
X197554D01*
X184600Y134000D02*
X187200D01*
X188057Y130857D02*
X197554D01*
X198888Y129523D01*
X187200Y130000D02*
X188057Y130857D01*
X198888Y129523D02*
X199644D01*
X184600Y130000D02*
X187200D01*
X540200Y147200D02*
X541147D01*
X534000Y142200D02*
X540200D01*
X197364Y122477D02*
X198120D01*
X187200Y122000D02*
X188057Y121143D01*
X196030D02*
X197364Y122477D01*
X188057Y121143D02*
X196030D01*
X184600Y122000D02*
X187200D01*
X533700Y147500D02*
X540200D01*
X532343Y146143D02*
X533700Y147500D01*
X529348Y146143D02*
X532343D01*
X522800Y147377D02*
X523556D01*
X524890Y146043D01*
X529248D01*
X529348Y146143D01*
X188057Y118857D02*
X196030D01*
X197364Y117523D01*
X187200Y118000D02*
X188057Y118857D01*
X184600Y118000D02*
X187200D01*
X197364Y117523D02*
X198120D01*
X530295Y143857D02*
X532343D01*
X533700Y142500D01*
X530195Y143757D02*
X530295Y143857D01*
X524890Y143757D02*
X530195D01*
X533700Y142500D02*
X540200D01*
X523556Y142424D02*
X524890Y143757D01*
X522800Y142424D02*
X523556D01*
X417800Y333630D02*
Y341077D01*
X419157Y324920D02*
Y329278D01*
X421443Y324920D02*
Y328373D01*
Y330225D01*
X422776Y322830D02*
Y323586D01*
X421443Y324920D02*
X422776Y323586D01*
X423534Y299444D02*
Y300200D01*
X422200Y298111D02*
X423534Y299444D01*
X422200Y288567D02*
Y298111D01*
X181143Y290857D02*
X182000Y290000D01*
X375700Y278900D02*
X412533D01*
X422200Y288567D01*
X182000Y290000D02*
X184600D01*
X174879Y290857D02*
X181143D01*
X173545Y289524D02*
X174879Y290857D01*
X172789Y289524D02*
X173545D01*
X366186Y269386D02*
X375700Y278900D01*
X366186Y259553D02*
Y269386D01*
X360494Y253861D02*
X366186Y259553D01*
X360494Y251975D02*
Y253861D01*
X359959Y251441D02*
X360494Y251975D01*
X417823Y323586D02*
X419157Y324920D01*
X417823Y322830D02*
Y323586D01*
X418581Y299444D02*
X419914Y298111D01*
X418581Y299444D02*
Y300200D01*
X173545Y294477D02*
X174879Y293143D01*
X172789Y294477D02*
X173545D01*
X182000Y294000D02*
X184600D01*
X181143Y293143D02*
X182000Y294000D01*
X174879Y293143D02*
X181143D01*
X363900Y270333D02*
X374753Y281186D01*
X363900Y260500D02*
Y270333D01*
X358877Y255478D02*
X363900Y260500D01*
X356992Y255478D02*
X358877D01*
X356457Y254943D02*
X356992Y255478D01*
X419057Y329378D02*
X419157Y329278D01*
X422700Y333730D02*
Y340230D01*
X421343Y330325D02*
X421443Y330225D01*
X419057Y329378D02*
Y332373D01*
X421343Y330325D02*
Y332373D01*
X417800Y333630D02*
X419057Y332373D01*
X421343D02*
X422700Y333730D01*
X432700D02*
X434057Y332373D01*
X434157Y325230D02*
Y329278D01*
X436443Y324878D02*
Y330225D01*
X184600Y266000D02*
X187200D01*
X188057Y266857D01*
X190518D01*
X436443Y324878D02*
X437776Y323545D01*
Y322930D02*
Y323545D01*
X187200Y270000D02*
X188057Y269143D01*
X184600Y270000D02*
X187200D01*
X188057Y269143D02*
X189865D01*
X191262Y270540D01*
X432823Y322930D02*
Y323686D01*
X433903Y324766D01*
Y324976D01*
X434157Y325230D01*
X434057Y329378D02*
X434157Y329278D01*
X437700Y333730D02*
Y340230D01*
X436343Y330325D02*
X436443Y330225D01*
X434057Y329378D02*
Y332373D01*
X436343Y330325D02*
Y332373D01*
X437700Y333730D01*
X432700D02*
Y340230D01*
X447800Y333630D02*
Y339177D01*
X449157Y325030D02*
Y329278D01*
X451443Y324778D02*
Y330225D01*
X187200Y282000D02*
X188057Y281143D01*
X184600Y282000D02*
X187200D01*
X203142Y281143D02*
X204476Y282477D01*
X188057Y281143D02*
X203142D01*
X204476Y282477D02*
X205232D01*
X447823Y322830D02*
Y323586D01*
X448903Y324666D02*
Y324776D01*
X447823Y323586D02*
X448903Y324666D01*
Y324776D02*
X449157Y325030D01*
X184600Y278000D02*
X187200D01*
X204476Y277523D02*
X205232D01*
X187200Y278000D02*
X188057Y278857D01*
X203142D02*
X204476Y277523D01*
X188057Y278857D02*
X203142D01*
X451443Y324778D02*
X452776Y323445D01*
Y322830D02*
Y323445D01*
X449057Y329378D02*
X449157Y329278D01*
X452800Y333830D02*
Y338230D01*
X451343Y330325D02*
X451443Y330225D01*
X449057Y329378D02*
Y332373D01*
X451343Y330325D02*
Y332373D01*
X447800Y333630D02*
X449057Y332373D01*
X451343Y332373D02*
X452800Y333830D01*
X432700Y59770D02*
Y69676D01*
X431317Y71058D02*
Y74243D01*
Y71058D02*
X432700Y69676D01*
X427674Y59795D02*
X427700Y59770D01*
X427674Y59795D02*
Y70245D01*
X412674Y59795D02*
X412700Y59770D01*
X412674Y59795D02*
Y70245D01*
X417674Y59795D02*
X417700Y59770D01*
X417674Y59795D02*
Y70245D01*
X356343Y67627D02*
X357700Y66270D01*
X311900Y179261D02*
X311900Y179261D01*
X311900Y179261D02*
Y195033D01*
X323333Y104775D02*
X326410D01*
X327744Y106109D01*
X328500D01*
X311900Y136875D02*
Y145177D01*
Y116208D02*
X323333Y104775D01*
X311900Y116208D02*
Y136875D01*
X314437Y147714D02*
X314487D01*
X314437Y157360D02*
X314487D01*
X319311Y152537D02*
Y152537D01*
X311900Y159897D02*
Y161675D01*
X356318Y70647D02*
Y73650D01*
X356343Y73675D01*
Y80241D01*
X357087Y80985D01*
X356343Y86109D02*
X357087Y85365D01*
Y80985D02*
X357335D01*
X357087Y85365D02*
X357335D01*
Y80985D02*
X357700Y81350D01*
X357335Y85365D02*
X357700Y85000D01*
Y81350D02*
Y83175D01*
Y85000D01*
X356343Y86109D02*
Y88591D01*
X357087Y89335D01*
X357335D01*
X357087Y93715D02*
X357335D01*
X356343Y100075D02*
X357643Y101375D01*
X356343Y94459D02*
X357087Y93715D01*
X356343Y94459D02*
Y100075D01*
X357335Y89335D02*
X357700Y89700D01*
X357335Y93715D02*
X357700Y93350D01*
Y89700D02*
Y91525D01*
Y93350D01*
X357643Y101375D02*
X357677D01*
X218857Y269143D02*
X237790D01*
X215400Y270000D02*
X218000D01*
X218857Y269143D01*
X311900Y161675D02*
Y179261D01*
X237790Y269143D02*
X311900Y195033D01*
X309614Y161675D02*
Y194086D01*
X309614Y136875D02*
Y145177D01*
X309614Y115261D02*
Y136875D01*
X309614D02*
X309614D01*
X314437Y150000D02*
X314487D01*
X326410Y102489D02*
X327744Y101156D01*
X322386Y102489D02*
X326410D01*
X327744Y101156D02*
X328500D01*
X309614Y115261D02*
X322386Y102489D01*
X317024Y152537D02*
Y152537D01*
X309614Y159897D02*
Y161675D01*
X309614D01*
X314437Y155074D02*
X314487D01*
X352700Y81350D02*
X353065Y80985D01*
X353313D01*
X352700Y81350D02*
Y83175D01*
Y85000D01*
X353065Y85365D01*
X353313D01*
X354032Y74597D02*
X354057Y74622D01*
X353313Y80985D02*
X354057Y80241D01*
X353313Y85365D02*
X354057Y86109D01*
Y74622D02*
Y80241D01*
X353313Y89335D02*
X354057Y88591D01*
Y86109D02*
Y88591D01*
X352700Y89700D02*
X353065Y89335D01*
X352700Y89700D02*
Y91525D01*
Y93350D01*
X353065Y93715D02*
X353313D01*
X352700Y93350D02*
X353065Y93715D01*
X352724Y101375D02*
X352757D01*
X353065Y89335D02*
X353313D01*
Y93715D02*
X354057Y94459D01*
Y100075D01*
X352757Y101375D02*
X354057Y100075D01*
X215400Y266000D02*
X218000D01*
X218857Y266857D01*
X223400D01*
X238000Y265700D02*
X309614Y194086D01*
X237421Y266278D02*
X238000Y265700D01*
X223400Y266857D02*
X227331D01*
X228979Y265161D02*
Y265209D01*
X232275Y265161D02*
Y265209D01*
X233923Y266857D02*
X236843D01*
X238000Y265700D01*
X354032Y69700D02*
Y74597D01*
X356318Y70647D02*
X356343Y70622D01*
X352700Y59770D02*
Y66270D01*
X354032Y69700D02*
X354057Y69675D01*
X356343Y67627D02*
Y70622D01*
X354057Y67627D02*
Y69675D01*
X352700Y66270D02*
X354057Y67627D01*
X357700Y59770D02*
Y66270D01*
X341343Y67627D02*
X342700Y66270D01*
X339057Y148275D02*
Y181043D01*
X218000Y278000D02*
X218857Y278857D01*
X215400Y278000D02*
X218000D01*
X218857Y278857D02*
X222100D01*
X225783D01*
X230355Y277228D02*
Y277333D01*
X227307Y277228D02*
Y277333D01*
X231879Y278857D02*
X241243D01*
X337700Y83175D02*
Y85000D01*
X338065Y85365D01*
X337700Y81350D02*
X338065Y80985D01*
X339032Y69700D02*
Y74597D01*
X338065Y80985D02*
X338313D01*
X337700Y81350D02*
Y83175D01*
X338065Y85365D02*
X338313D01*
X337700Y89700D02*
X338065Y89335D01*
X338313Y80985D02*
X339057Y80241D01*
X339032Y74597D02*
X339057Y74622D01*
Y80241D01*
X338313Y85365D02*
X339057Y86109D01*
Y88591D01*
X338313Y89335D02*
X339057Y88591D01*
X337700Y91525D02*
Y93350D01*
X338065Y89335D02*
X338313D01*
X337700Y89700D02*
Y91525D01*
Y93350D02*
X338065Y93715D01*
X338734D02*
X339057Y94038D01*
X338065Y93715D02*
X338734D01*
X339057Y94038D02*
Y113275D01*
X241243Y278857D02*
X339057Y181043D01*
X242190Y281143D02*
X341343Y181990D01*
X218857Y281143D02*
X242190D01*
X218000Y282000D02*
X218857Y281143D01*
X215400Y282000D02*
X218000D01*
X341318Y73650D02*
X341343Y73675D01*
Y80241D01*
Y94038D02*
Y113275D01*
Y86109D02*
Y88591D01*
Y80241D02*
X342087Y80985D01*
X341343Y86109D02*
X342087Y85365D01*
X341343Y148275D02*
Y181990D01*
X342087Y80985D02*
X342335D01*
X341343Y88591D02*
X342087Y89335D01*
X342335Y80985D02*
X342700Y81350D01*
X342087Y85365D02*
X342335D01*
X342700Y83175D02*
Y85000D01*
Y81350D02*
Y83175D01*
X342335Y85365D02*
X342700Y85000D01*
X342087Y89335D02*
X342335D01*
X342700Y91525D02*
Y93350D01*
X341666Y93715D02*
X342335D01*
X341343Y94038D02*
X341666Y93715D01*
X342335Y89335D02*
X342700Y89700D01*
Y91525D01*
X342335Y93715D02*
X342700Y93350D01*
X341318Y70647D02*
X341343Y70622D01*
X337700Y59770D02*
Y66270D01*
X339032Y69700D02*
X339057Y69675D01*
X341343Y67627D02*
Y70622D01*
X339057Y67627D02*
Y69675D01*
X337700Y66270D02*
X339057Y67627D01*
X342700Y59770D02*
Y66270D01*
X341318Y70647D02*
Y73650D01*
X540100Y232400D02*
X540200Y232500D01*
X520580Y232400D02*
X540100D01*
X522032Y236800D02*
X539500D01*
X540200Y237500D01*
X524990Y158757D02*
X530469D01*
X523656Y157424D02*
X524990Y158757D01*
X522900Y157424D02*
X523656D01*
Y162377D02*
X524425Y161607D01*
X522900Y162377D02*
X523656D01*
X524530Y161713D02*
X525200Y161043D01*
X529522D01*
X530469Y158757D02*
X530569Y158857D01*
X529622Y161143D02*
X532343D01*
X530569Y158857D02*
X532343D01*
Y161143D02*
X533700Y162500D01*
X532343Y158857D02*
X533700Y157500D01*
Y162500D02*
X540200D01*
X533700Y157500D02*
X540200D01*
X529522Y161043D02*
X529622Y161143D01*
X533700Y177200D02*
X540200D01*
X533700Y172200D02*
X540200D01*
X522800Y177377D02*
X523556D01*
X524890Y176043D01*
X529522D01*
X494644Y177376D02*
X495400D01*
X493311Y176043D02*
X494644Y177376D01*
X489253Y176043D02*
X493311D01*
X469800Y156590D02*
X489253Y176043D01*
X469800Y133690D02*
Y156590D01*
X468466Y132356D02*
X469800Y133690D01*
X468466Y131600D02*
Y132356D01*
X194570Y110477D02*
X194855D01*
X193450Y109356D02*
X194570Y110477D01*
X187200Y110000D02*
X188057Y109143D01*
X184600Y110000D02*
X187200D01*
X191165Y109356D02*
X193450D01*
X190952Y109143D02*
X191165Y109356D01*
X188057Y109143D02*
X190952D01*
X524748Y173757D02*
X530469D01*
X523415Y172424D02*
X524748Y173757D01*
X522800Y172424D02*
X523415D01*
X472086Y155643D02*
X490200Y173757D01*
X494644Y172423D02*
X495400D01*
X490200Y173757D02*
X493311D01*
X494644Y172423D01*
X472086Y133690D02*
Y155643D01*
X473419Y131600D02*
Y132356D01*
X472086Y133690D02*
X473419Y132356D01*
X192112Y107070D02*
X193773D01*
X194323Y106521D01*
X188057Y106857D02*
X191899D01*
X192112Y107070D01*
X184600Y106000D02*
X187200D01*
X188057Y106857D01*
X533700Y177500D02*
X540200D01*
X530469Y173757D02*
X530569Y173857D01*
X529622Y176143D02*
X532343D01*
Y173857D02*
X533700Y172500D01*
X529522Y176043D02*
X529622Y176143D01*
X533700Y172500D02*
X540200D01*
X530569Y173857D02*
X532343D01*
Y176143D02*
X533700Y177500D01*
Y187200D02*
X540200D01*
X524890Y188757D02*
X530195D01*
X530295Y188857D02*
X532343D01*
X533700Y192200D02*
X540200D01*
X529348Y191143D02*
X532343D01*
X522800Y192377D02*
X523556D01*
X524890Y191043D01*
X197421Y146476D02*
X198120D01*
X196088Y145143D02*
X197421Y146476D01*
X188057Y145143D02*
X196088D01*
X184600Y146000D02*
X187200D01*
X188057Y145143D01*
X523556Y187424D02*
X524890Y188757D01*
X522800Y187424D02*
X523556D01*
X198120Y142794D02*
X198120Y142794D01*
X196088Y142857D02*
X197421Y141524D01*
X188057Y142857D02*
X196088D01*
X187200Y142000D02*
X188057Y142857D01*
X197421Y141524D02*
X198120D01*
Y142794D01*
X184600Y142000D02*
X187200D01*
X529248Y191043D02*
X529348Y191143D01*
X533700Y187500D02*
X540200D01*
X530195Y188757D02*
X530295Y188857D01*
X532343Y191143D02*
X533700Y192500D01*
X532343Y188857D02*
X533700Y187500D01*
Y192500D02*
X540200D01*
X524890Y191043D02*
X529248D01*
X533700Y202200D02*
X540200D01*
X533700Y207200D02*
X540200D01*
X523556Y202423D02*
X524890Y203757D01*
X522800Y202423D02*
X523556D01*
X188057Y154857D02*
X197046D01*
X198380Y153524D01*
X187200Y154000D02*
X188057Y154857D01*
X184600Y154000D02*
X187200D01*
X198380Y153524D02*
X199136D01*
X522800Y207376D02*
X523556D01*
X524890Y206043D01*
X529522D01*
X198380Y158476D02*
X199136D01*
X197046Y157143D02*
X198380Y158476D01*
X187200Y158000D02*
X188057Y157143D01*
X197046D01*
X184600Y158000D02*
X187200D01*
X530469Y203757D02*
X530569Y203857D01*
X529622Y206143D02*
X532343D01*
X530569Y203857D02*
X532343D01*
Y206143D02*
X533700Y207500D01*
X532343Y203857D02*
X533700Y202500D01*
Y207500D02*
X540200D01*
X533700Y202500D02*
X540200D01*
X524890Y203757D02*
X530469D01*
X529522Y206043D02*
X529622Y206143D01*
X466299Y320499D02*
X506000Y360200D01*
X323225Y318482D02*
X336925D01*
X283607Y358100D02*
X323225Y318482D01*
X279800Y358100D02*
X283607D01*
X516274Y236706D02*
Y236783D01*
Y236706D02*
X520580Y232400D01*
X199616Y174366D02*
X203053Y177803D01*
Y177806D01*
X196199Y174366D02*
X199616D01*
X189282Y167449D02*
X196199Y174366D01*
X188649Y167449D02*
X189282D01*
X187200Y166000D02*
X188649Y167449D01*
X184600Y166000D02*
X187200D01*
X196758Y178158D02*
X197408D01*
X190049Y171449D02*
X196758Y178158D01*
X188649Y171449D02*
X190049D01*
X187200Y170000D02*
X188649Y171449D01*
X184600Y170000D02*
X187200D01*
X382200Y306100D02*
X399600D01*
X407200Y313700D02*
X429800D01*
X399600Y306100D02*
X407200Y313700D01*
X399572Y301804D02*
Y301972D01*
X408700Y311100D02*
X426800D01*
X399572Y301972D02*
X408700Y311100D01*
X258800Y358800D02*
X266100Y366100D01*
X279100Y358800D02*
X279800Y358100D01*
X377800Y61871D02*
Y75500D01*
X377674Y61745D02*
X377800Y61871D01*
X193630Y225994D02*
Y227370D01*
X195398Y223606D02*
Y224226D01*
X193630Y225994D02*
X195398Y224226D01*
X178244Y242000D02*
X184350D01*
X89000Y85850D02*
Y87900D01*
Y85850D02*
X91461Y83389D01*
X147549Y147651D02*
X147600Y147600D01*
X127500Y85000D02*
Y95500D01*
X154300Y81900D02*
X161300Y88900D01*
Y108600D01*
X140500Y81900D02*
X154300D01*
X136000Y133900D02*
X161300Y108600D01*
X153643Y100611D02*
X154178Y100076D01*
X150778Y100611D02*
X153643D01*
X136400Y86000D02*
X140500Y81900D01*
X372700Y320100D02*
X374400Y318400D01*
X377700Y338230D02*
X377800Y338130D01*
X429800Y313700D02*
X436900Y306600D01*
Y268000D02*
Y306600D01*
X347700Y338230D02*
X347950Y338480D01*
X513300Y254700D02*
X520800Y247200D01*
X538200D01*
X524400Y252200D02*
X538200D01*
X522300Y254300D02*
X524400Y252200D01*
X522300Y254300D02*
Y272400D01*
X573400Y313200D02*
Y324300D01*
X293800Y16900D02*
X298200Y12500D01*
X406399Y103313D02*
Y103900D01*
X404986Y101900D02*
X406399Y103313D01*
X404986Y100552D02*
Y101900D01*
X425147Y80414D02*
X431317Y74243D01*
X404986Y100552D02*
X425124Y80414D01*
X425147D01*
X184314Y257964D02*
X184350Y258000D01*
X169444Y257964D02*
X184314D01*
X169421Y257987D02*
X169444Y257964D01*
X424200Y78128D02*
X429031Y73296D01*
Y71602D02*
Y73296D01*
X424177Y78128D02*
X424200D01*
X427674Y70245D02*
X429031Y71602D01*
X401367Y103900D02*
X402700Y102566D01*
Y99605D02*
X424177Y78128D01*
X402700Y99605D02*
Y102566D01*
X173756Y254000D02*
X184350D01*
X172756Y252999D02*
X173756Y254000D01*
X172000Y252999D02*
X172756D01*
X407674Y61745D02*
Y74026D01*
X407100Y74600D02*
X407674Y74026D01*
X404400Y78975D02*
X411700D01*
X403453Y81261D02*
X412647D01*
X399667Y77475D02*
X403453Y81261D01*
X412647D02*
X416317Y77590D01*
Y71602D02*
Y77590D01*
X400500Y75075D02*
X404400Y78975D01*
X411700D02*
X414031Y76644D01*
Y71602D02*
Y76644D01*
X203500Y48000D02*
Y51706D01*
X198306Y56900D02*
X203500Y51706D01*
X198300Y56900D02*
X198306D01*
X391472Y104135D02*
Y112572D01*
X397100Y118200D02*
X422584D01*
X206600Y106000D02*
X215400D01*
X189200Y66000D02*
Y88600D01*
X206600Y106000D01*
X189200Y66000D02*
X198300Y56900D01*
X560794Y79900D02*
X570400D01*
X581700Y68600D01*
X207200Y110000D02*
X215400D01*
X201500Y104300D02*
X207200Y110000D01*
X201500Y104300D02*
Y104300D01*
X186796Y89596D02*
X201500Y104300D01*
X186796Y65004D02*
X198199Y53601D01*
X186796Y65004D02*
Y89596D01*
X198199Y51799D02*
Y53601D01*
X391366Y98821D02*
X395000Y102455D01*
X390832Y98286D02*
X391366Y98821D01*
X412674Y70245D02*
X414031Y71602D01*
X385900Y75075D02*
X400500D01*
X382700Y78275D02*
X385900Y75075D01*
X383065Y91890D02*
Y95728D01*
X382700Y91525D02*
X383065Y91890D01*
X382700Y83175D02*
Y91525D01*
Y78275D02*
Y83175D01*
X437184Y103600D02*
X471584D01*
X487034Y62166D02*
Y88150D01*
Y62166D02*
X503300Y45900D01*
X471584Y103600D02*
X487034Y88150D01*
X521600Y45900D02*
X528700Y38800D01*
X503300Y45900D02*
X521600D01*
X422584Y118200D02*
X437184Y103600D01*
X426800Y311100D02*
X434614Y303286D01*
Y271000D02*
Y303286D01*
X416317Y71602D02*
X417674Y70245D01*
X390832Y96975D02*
Y98286D01*
X388500Y77475D02*
X399667D01*
X388065Y94208D02*
X390832Y96975D01*
X388065Y91890D02*
Y94208D01*
X387700Y91525D02*
X388065Y91890D01*
X387700Y83175D02*
Y91525D01*
Y78275D02*
Y83175D01*
Y78275D02*
X388500Y77475D01*
X505300Y38800D02*
Y40316D01*
X484500Y61116D02*
X505300Y40316D01*
X484500Y61116D02*
Y87100D01*
X442700Y48400D02*
Y61770D01*
X439900Y45600D02*
X442700Y48400D01*
X353976Y38576D02*
X440876D01*
X447700Y45400D01*
Y61770D01*
X184600Y246000D02*
X200609D01*
X202750Y243843D02*
Y243859D01*
X200609Y246000D02*
X202750Y243859D01*
X202093Y238934D02*
X202159Y239000D01*
X204000D01*
X189265Y238265D02*
X191556Y240556D01*
Y241875D01*
X433500Y264600D02*
X436900Y268000D01*
X298200Y12500D02*
X327900D01*
X353976Y38576D01*
X412800Y325278D02*
Y338230D01*
X411492Y323969D02*
X412800Y325278D01*
X411492Y323214D02*
Y323969D01*
X136365Y37569D02*
X153096Y54300D01*
X157900D01*
X209120Y137840D02*
X209200Y137920D01*
X215320D01*
X525500Y227400D02*
X538200D01*
X538200Y227400D01*
X525500Y227400D02*
X525500Y227400D01*
X525500Y212400D02*
X525500Y212400D01*
X184865Y238265D02*
X189265D01*
X184600Y238000D02*
X184865Y238265D01*
X566700Y278500D02*
X567300Y279100D01*
X232278Y233987D02*
Y246420D01*
X227766Y229474D02*
X232278Y233987D01*
X227766Y228596D02*
Y229474D01*
X226900Y184600D02*
Y212200D01*
X224300Y182000D02*
X226900Y184600D01*
X215650Y190000D02*
X221678D01*
X215400Y182000D02*
X224300D01*
X215650Y258000D02*
X220698D01*
X232278Y246420D01*
X215650Y254000D02*
X220698D01*
X229992Y244706D01*
Y237892D02*
Y244706D01*
X224400Y232299D02*
X229992Y237892D01*
X203442Y233757D02*
X204337D01*
X205944Y232150D01*
X208058Y235833D02*
X209960Y237735D01*
X210666Y230000D02*
X215400D01*
X209984Y232551D02*
X211351D01*
X209584Y232150D02*
X209984Y232551D01*
X196683Y219683D02*
X206864Y229864D01*
X210531D01*
X212800Y234000D02*
X215400D01*
X205944Y232150D02*
X209584D01*
X210531Y229864D02*
X210666Y230000D01*
X211351Y232551D02*
X212800Y234000D01*
X221161Y241826D02*
X221336Y241651D01*
X215824Y241826D02*
X221161D01*
X190439Y234000D02*
X196509Y240070D01*
X184600Y234000D02*
X190439D01*
X215650Y242000D02*
X215824Y241826D01*
X191000Y230000D02*
X193630Y227370D01*
X184600Y230000D02*
X191000D01*
X209622Y202000D02*
X215400D01*
X209622Y194266D02*
X209755Y194133D01*
X209400Y188900D02*
X212034Y186265D01*
X184600Y186000D02*
X190378D01*
X197724Y170683D02*
X198028Y170379D01*
X204250Y173000D02*
X209250Y178000D01*
X205775Y169317D02*
X210245Y173787D01*
X202724Y169317D02*
X205775D01*
X201661Y170379D02*
X202724Y169317D01*
X198028Y170379D02*
X201661D01*
X200250Y166000D02*
X206541D01*
X205692Y162130D02*
X209557Y158265D01*
X206541Y166000D02*
X210541Y170000D01*
X215400D01*
X209182Y150160D02*
X209262Y150080D01*
X226309Y241474D02*
Y244069D01*
X222409Y164540D02*
X222591Y164359D01*
X223643D02*
X224178Y163824D01*
X219869Y162000D02*
X222409Y164540D01*
X222591Y164359D02*
X223643D01*
X215650Y162000D02*
X219869D01*
X215135Y158265D02*
X215400Y158000D01*
X209557Y158265D02*
X215135D01*
X442800Y325530D02*
X442800Y325530D01*
X442800Y325530D02*
Y338230D01*
X442800Y338230D02*
X442800Y338230D01*
X457800Y338230D02*
X457800Y338230D01*
Y325530D02*
Y338230D01*
Y325530D02*
X457800Y325530D01*
X427800Y338230D02*
X427800Y338230D01*
X347674Y74445D02*
X347675Y74445D01*
Y61745D02*
Y74445D01*
Y61745D02*
X347675Y61745D01*
X332674Y61745D02*
X332675Y61745D01*
X332674Y61745D02*
Y74445D01*
X332674Y74445D02*
X332674Y74445D01*
X362674Y61745D02*
X362675Y61745D01*
X362674Y61745D02*
Y74445D01*
X362674Y74445D02*
X362674Y74445D01*
X422674Y61745D02*
X422674Y61745D01*
X422674Y61745D02*
Y74445D01*
X422674Y74445D02*
X422674Y74445D01*
X525500Y212400D02*
X538200D01*
X538200Y212400D01*
X525500Y197400D02*
X525500Y197400D01*
X538200D01*
X538200Y197400D01*
X525500Y182400D02*
X525500Y182400D01*
X538200D01*
X538200Y182400D01*
X525500Y167400D02*
X538200D01*
X538200Y167400D01*
X525500Y137400D02*
X525500Y137400D01*
X538200D01*
X538200Y137400D01*
X538200Y152400D02*
X538200Y152400D01*
X525500Y152400D02*
X538200D01*
X525500Y152400D02*
X525500Y152400D01*
X95000Y73100D02*
X102800D01*
X110385Y81635D02*
X113750Y85000D01*
X110385Y80685D02*
Y81635D01*
X102800Y73100D02*
X110385Y80685D01*
X103783Y60817D02*
X104953D01*
X103700Y60900D02*
X103783Y60817D01*
X129500Y30000D02*
X136365Y36865D01*
Y37569D01*
X109398Y30000D02*
X129500D01*
X89000Y50398D02*
X109398Y30000D01*
X89000Y50398D02*
Y60900D01*
X136000Y133900D02*
Y141000D01*
X100675Y100100D02*
X105275Y95500D01*
X109000Y143000D02*
X112500Y139500D01*
X173648Y169783D02*
X180416Y176551D01*
X173400Y30900D02*
X173700Y30600D01*
X178000Y186200D02*
Y188559D01*
X163300Y30600D02*
X173700D01*
X153100Y40800D02*
X163300Y30600D01*
X197117Y262631D02*
X197873D01*
X195386Y260900D02*
X197117Y262631D01*
X188800Y260900D02*
X195386D01*
X187965Y261735D02*
X188800Y260900D01*
X184865Y261735D02*
X187965D01*
X184600Y262000D02*
X184865Y261735D01*
X215240Y262160D02*
X215400Y262000D01*
X208622Y262160D02*
X215240D01*
X206994Y263787D02*
X208622Y262160D01*
X206481Y263787D02*
X206994D01*
X220379Y250000D02*
X226309Y244069D01*
X215650Y250000D02*
X220379D01*
X204000Y239000D02*
X211000Y246000D01*
X178000Y249000D02*
X183349D01*
X215692Y210042D02*
X221637D01*
X221678Y210083D01*
X215650Y210000D02*
X215692Y210042D01*
X222652Y202146D02*
Y204046D01*
X215400Y206000D02*
X220698D01*
X222652Y204046D01*
X215135Y186265D02*
X215400Y186000D01*
X212034Y186265D02*
X215135D01*
X222317Y219000D02*
X223000Y219683D01*
X222244Y219000D02*
X222317D01*
X209622Y214000D02*
X215400D01*
X215650D01*
X215267Y194133D02*
X215400Y194000D01*
X209755Y194133D02*
X215267D01*
X215135Y237735D02*
X215400Y238000D01*
X209960Y237735D02*
X215135D01*
X215400Y102000D02*
X215650D01*
X189846D02*
X190681Y101165D01*
X184600Y102000D02*
X189846D01*
X221244Y218000D02*
X222244Y219000D01*
X215400Y218000D02*
X221244D01*
X211000Y246000D02*
X215400D01*
X184600Y114000D02*
X190132D01*
X184350D02*
X184600D01*
X215400Y226000D02*
X215650D01*
X208000D02*
X215400D01*
X198000Y216000D02*
X208000Y226000D01*
X215400Y222000D02*
X215650D01*
X209000D02*
X215400D01*
X204121Y217121D02*
X209000Y222000D01*
X204121Y214121D02*
Y217121D01*
X204000Y214000D02*
X204121Y214121D01*
X184600Y198000D02*
X194128D01*
X184350Y202000D02*
X184600D01*
X184350Y198000D02*
X184600D01*
Y202000D02*
X190378D01*
X215400Y198000D02*
X215650D01*
X205872D02*
X215400D01*
Y202000D02*
X215650D01*
X193000Y219000D02*
X193683Y219683D01*
X184600Y214000D02*
X190378D01*
X193683Y219683D02*
X196683D01*
X183349Y249000D02*
X184350Y250000D01*
X197963Y274223D02*
X200944Y271242D01*
X201154D01*
X192570Y125904D02*
X193482Y126816D01*
X187096Y125904D02*
X192570D01*
X190132Y114000D02*
X191020Y114888D01*
X138576Y95632D02*
X140970Y93239D01*
X137524Y95632D02*
X138576D01*
X142750Y87598D02*
Y88354D01*
X140970Y90134D02*
X142750Y88354D01*
X149098Y102291D02*
X150778Y100611D01*
X149098Y102291D02*
Y102362D01*
X89000Y135900D02*
Y160000D01*
X174051Y282702D02*
X177349Y286000D01*
X184350D01*
X168910Y282702D02*
X174051D01*
X174244Y299720D02*
X182630D01*
X184350Y298000D01*
X206516Y271031D02*
X209484Y274000D01*
X208534Y288036D02*
X210570Y286000D01*
X215400D01*
X184510Y274160D02*
X184573Y274223D01*
X215400Y298000D02*
X215650D01*
X207264Y296418D02*
X207823D01*
X209405Y298000D01*
X215400Y178000D02*
X215650D01*
X215400Y170000D02*
X215650D01*
X215436Y173787D02*
X215650Y174000D01*
X215320Y150080D02*
X215400Y150000D01*
X215320Y137920D02*
X215400Y138000D01*
X209262Y150080D02*
X215320D01*
X209504Y114000D02*
X215400D01*
X209224Y114280D02*
X209224D01*
X209312Y126000D02*
X215400D01*
X209224Y114280D02*
X209504Y114000D01*
X215400Y126000D02*
X215650D01*
X194418Y149777D02*
X194532Y149891D01*
X194396Y138250D02*
X194776Y137869D01*
X189475Y149777D02*
X194418D01*
X184600Y126000D02*
X187000D01*
X187096Y125904D01*
X209188Y102000D02*
X215400D01*
X169462Y371217D02*
X186333D01*
X168020Y369775D02*
X169462Y371217D01*
X154131Y316514D02*
X155157Y315488D01*
X148650Y316514D02*
X154131D01*
X69777Y343775D02*
X83170D01*
X61292Y335289D02*
X69777Y343775D01*
X56000D02*
X56137D01*
X69363Y357000D01*
X69500D01*
X39811Y336270D02*
X40791Y335289D01*
X61292D01*
X26550Y199600D02*
X29833Y196317D01*
X26550Y199600D02*
Y229550D01*
X35000Y238000D01*
X112500Y120000D02*
Y139500D01*
X210245Y173787D02*
X215436D01*
X115515Y190969D02*
X128235Y178249D01*
X91969Y190969D02*
X115515D01*
X85000Y184000D02*
X91969Y190969D01*
X137000Y174000D02*
X139000D01*
X132751Y178249D02*
X137000Y174000D01*
X128235Y178249D02*
X132751D01*
X83000Y169000D02*
X96745D01*
X103652Y175907D01*
X107474Y188683D02*
X114568D01*
X103652Y184861D02*
X107474Y188683D01*
X103652Y175907D02*
Y184861D01*
X141404Y171196D02*
X145542D01*
X140526Y170317D02*
X141404Y171196D01*
X135475Y170317D02*
X140526D01*
X131605Y174187D02*
X135475Y170317D01*
X129064Y174187D02*
X131605D01*
X114568Y188683D02*
X129064Y174187D01*
X35000Y225000D02*
X49258D01*
X55579Y208504D02*
X150227D01*
X29833Y196317D02*
X43392D01*
X55579Y208504D01*
X35000Y200000D02*
X49057Y214057D01*
X150227Y208504D02*
X159723Y218000D01*
X184600D01*
X65916Y243365D02*
Y243365D01*
Y243365D02*
X66769Y242512D01*
X64075Y239817D02*
X64928Y238964D01*
X64929D01*
X60528Y237976D02*
Y237976D01*
Y237976D02*
X61381Y237123D01*
X55140Y232588D02*
X55140Y232588D01*
X55993Y231735D01*
X154072Y226000D02*
X184600D01*
X129845Y250228D02*
X154072Y226000D01*
X113502Y250228D02*
X129845D01*
X74486D02*
X88898D01*
X111060D02*
X113502D01*
X109853Y251346D02*
Y251412D01*
X107377Y252656D02*
X108520D01*
X106044Y250228D02*
Y251323D01*
Y249132D02*
Y250228D01*
X103567Y247799D02*
X104710D01*
X102233Y249132D02*
Y250228D01*
Y251323D01*
X99757Y252656D02*
X100900D01*
X98424Y250228D02*
Y251323D01*
Y249132D02*
Y250228D01*
X95947Y247799D02*
X97090D01*
X94614Y249132D02*
Y250228D01*
Y251434D01*
X92137Y252768D02*
X93280D01*
X88898Y250228D02*
X89597D01*
X72000Y247742D02*
X74486Y250228D01*
X70317Y246059D02*
X72000Y247742D01*
X65916Y245250D02*
X66725Y246059D01*
X66769Y242512D02*
X67623Y241658D01*
X66814Y238964D02*
X67623Y239772D01*
X63222Y240671D02*
X64075Y239817D01*
X60528Y239862D02*
X61336Y240671D01*
X61381Y237123D02*
X62235Y236270D01*
X61426Y233576D02*
X62235Y234384D01*
X58687Y234429D02*
X59540Y233576D01*
X57834Y235282D02*
X58687Y234429D01*
X55140Y234474D02*
X55948Y235282D01*
X55993Y231735D02*
X56846Y230882D01*
X56038Y228188D02*
X56846Y228996D01*
X50605Y226347D02*
X52446Y228188D01*
X49258Y225000D02*
X50605Y226347D01*
X92969Y214057D02*
X117470D01*
X92872D02*
X92969D01*
X92872D02*
Y214993D01*
X90396Y216326D02*
X91539D01*
X89062Y214057D02*
Y214993D01*
Y213122D02*
Y214057D01*
X86586Y211788D02*
X87729D01*
X85252Y213122D02*
Y214057D01*
Y214993D01*
X82776Y216326D02*
X83919D01*
X81442Y214057D02*
Y214993D01*
Y213122D02*
Y214057D01*
X78966Y211788D02*
X80109D01*
X77632Y213122D02*
Y214057D01*
Y214507D01*
X75156Y215840D02*
X76299D01*
X73822Y214057D02*
Y214507D01*
Y213122D02*
Y214057D01*
X71346Y211788D02*
X72489D01*
X70012Y213122D02*
Y214057D01*
Y214993D01*
X67536Y216326D02*
X68679D01*
X66202Y214057D02*
Y214993D01*
Y213122D02*
Y214057D01*
X63726Y211788D02*
X64869D01*
X62392Y213122D02*
Y214057D01*
Y214993D01*
X59916Y216326D02*
X61059D01*
X58582Y214057D02*
Y214993D01*
Y212851D02*
Y214057D01*
X56106Y211517D02*
X57249D01*
X50962Y214057D02*
X53566D01*
X49057D02*
X50962D01*
X153837Y222000D02*
X184600Y222000D01*
X145894Y214057D02*
X153837Y222000D01*
X117470Y214057D02*
X119923D01*
X122463Y216597D02*
X123606D01*
X124939Y214057D02*
Y215264D01*
Y212851D02*
Y214057D01*
X126273Y211517D02*
X127416D01*
X128749Y212851D02*
Y214057D01*
Y215264D01*
X130083Y216597D02*
X131226D01*
X132559Y214057D02*
Y215264D01*
Y212851D02*
Y214057D01*
X133893Y211517D02*
X135036D01*
X136369Y212851D02*
Y214057D01*
Y215264D01*
X137703Y216597D02*
X138846D01*
X141386Y214057D02*
X143989D01*
X145894D01*
X184600Y222000D02*
X185000D01*
X126612Y189609D02*
X132885Y183336D01*
X133501D01*
X173000Y187000D02*
X173534Y186465D01*
X178000Y188559D02*
X179441Y190000D01*
X192749Y162000D02*
X195020D01*
X179441Y190000D02*
X184350D01*
X176991Y182000D02*
X184350D01*
X173534Y185457D02*
X176991Y182000D01*
X180416Y176551D02*
X180551D01*
X174534Y210465D02*
X174999Y210000D01*
X174534Y210465D02*
Y212465D01*
X174000Y213000D02*
X174534Y212465D01*
X173534Y185457D02*
Y186465D01*
X182000Y178000D02*
X184600D01*
X174999Y210000D02*
X184350D01*
X180416Y172551D02*
X180551D01*
X209405Y298000D02*
X215400D01*
X209484Y274000D02*
X215400D01*
X184350Y214000D02*
X184600D01*
Y162000D02*
X189251D01*
X184350D02*
X184600D01*
X184350Y186000D02*
X184600D01*
Y194000D02*
X190378D01*
X184350D02*
X184600D01*
X209250Y178000D02*
X215400D01*
X182000Y174000D02*
X184600D01*
X180551Y172551D02*
X182000Y174000D01*
X177475Y169610D02*
X180416Y172551D01*
X180551Y176551D02*
X182000Y178000D01*
X95000Y132000D02*
X95756D01*
X96741Y132985D01*
X99135Y133298D02*
Y135170D01*
X98822Y132985D02*
X99135Y133298D01*
X100000Y60900D02*
X103700D01*
X96741Y132985D02*
X98822D01*
X94250Y100100D02*
X100675D01*
X189391Y149860D02*
X189475Y149777D01*
X192526Y162223D02*
X192749Y162000D01*
X189475Y162223D02*
X192526D01*
X189251Y162000D02*
X189475Y162223D01*
X127500Y95500D02*
X129000Y97000D01*
X127500Y130500D02*
X129000Y132000D01*
X127500Y155000D02*
X129000Y156500D01*
Y167000D01*
X105600Y148100D02*
X112500Y155000D01*
X95000Y148100D02*
X105600D01*
X73000Y30000D02*
Y42774D01*
D69*
X103652Y175907D02*
D03*
X85000Y184000D02*
D03*
X126612Y189609D02*
D03*
X136000Y141000D02*
D03*
X63901Y191901D02*
D03*
X561100Y89000D02*
D03*
X581700D02*
D03*
X284800Y38800D02*
D03*
X258800Y358800D02*
D03*
X581700Y68600D02*
D03*
X91000Y339400D02*
D03*
X561100Y68600D02*
D03*
X162900Y241400D02*
D03*
X263800Y38800D02*
D03*
X528500Y360200D02*
D03*
X528700Y38800D02*
D03*
X56000Y343775D02*
D03*
X517900Y372400D02*
D03*
X39811Y336270D02*
D03*
X153100Y40800D02*
D03*
X507400Y360200D02*
D03*
X155157Y315488D02*
D03*
X150200Y70600D02*
D03*
X505300Y38800D02*
D03*
X561100Y332086D02*
D03*
Y311800D02*
D03*
X573400Y324300D02*
D03*
X279100Y358800D02*
D03*
X258300Y171700D02*
D03*
X16464Y333461D02*
D03*
X402100Y22700D02*
D03*
D70*
X156537Y166837D02*
Y192000D01*
X147800Y158100D02*
X156537Y166837D01*
X147800Y133000D02*
Y147651D01*
Y158100D01*
X138400Y71100D02*
X150785D01*
X147800Y133000D02*
X166451Y114349D01*
Y86766D02*
Y114349D01*
X150785Y71100D02*
X166451Y86766D01*
D71*
X80264Y146281D02*
Y146939D01*
X78289Y144306D02*
X80264Y146281D01*
X85001Y101308D02*
X86715Y103022D01*
X85001Y101308D02*
X86101Y100209D01*
X83547Y97654D02*
X86101Y100209D01*
X82447Y98754D02*
X83547Y97654D01*
X79893Y96200D02*
X82447Y98754D01*
X79893Y96200D02*
X79893Y96200D01*
X79887Y96194D02*
X79893Y96200D01*
X78781Y96194D02*
X79887D01*
X86715Y103022D02*
X86985Y103292D01*
X75694Y96194D02*
X78781D01*
X59500Y122500D02*
X59617Y122383D01*
X65180Y122415D02*
Y122458D01*
X65148Y122383D02*
X65180Y122415D01*
X59617Y122383D02*
X65148D01*
X86985Y103292D02*
Y112268D01*
X74500Y95000D02*
X75694Y96194D01*
X72500Y95000D02*
X74500D01*
X82507Y111793D02*
X83210Y111090D01*
Y103189D02*
Y111090D01*
X79327Y99306D02*
X83210Y103189D01*
X73194Y99306D02*
X79327D01*
X72500Y100000D02*
X73194Y99306D01*
X66028Y102488D02*
X66040Y102477D01*
X66028Y97512D02*
X66040Y97523D01*
X59512Y97512D02*
X66028D01*
X59500Y97500D02*
X59512Y97512D01*
X59512Y102488D02*
X66028D01*
X59500Y102500D02*
X59512Y102488D01*
X73194Y144306D02*
X78289D01*
X72500Y145000D02*
X73194Y144306D01*
X80450Y141710D02*
X80777Y141383D01*
X78289Y141710D02*
X80450D01*
X73210Y140710D02*
X77289D01*
X78289Y141710D01*
X72500Y140000D02*
X73210Y140710D01*
X59500Y137500D02*
X65342D01*
X59500Y142500D02*
X65342D01*
X59500Y132500D02*
X65342D01*
X72524Y130024D02*
X78462D01*
X72500Y130000D02*
X72524Y130024D01*
X78462D02*
X78486Y130048D01*
X71790Y134290D02*
X72500Y135000D01*
X69236Y134290D02*
X71790D01*
X67921Y132975D02*
X69236Y134290D01*
X65817Y132975D02*
X67921D01*
X65342Y132500D02*
X65817Y132975D01*
D72*
X326151Y330693D02*
X326495D01*
X328650Y332848D01*
X461308Y66688D02*
X464160Y69540D01*
X464174D01*
X452455Y66688D02*
X461308D01*
X328650Y332848D02*
X337573D01*
X544900Y257400D02*
Y268606D01*
X538200Y257200D02*
Y268506D01*
X532763Y257177D02*
Y266168D01*
X452900Y55240D02*
X464106D01*
X452700Y61940D02*
X464006D01*
X326294Y344930D02*
X337500D01*
X326394Y338230D02*
X337700D01*
X530600Y268331D02*
Y268674D01*
Y268331D02*
X532763Y266168D01*
X326226Y338330D02*
X326294D01*
X326394Y338230D01*
X326194Y345030D02*
X326294Y344930D01*
X326125Y345030D02*
X326194D01*
X538300Y268606D02*
Y268674D01*
X538200Y268506D02*
X538300Y268606D01*
X544900Y268606D02*
X545000Y268706D01*
Y268774D01*
X464206Y55140D02*
X464274D01*
X464106Y55240D02*
X464206Y55140D01*
X464006Y61940D02*
X464106Y61840D01*
X464174D01*
X78358Y191901D02*
X83919Y197462D01*
X63901Y191901D02*
X78358D01*
X101308Y200000D02*
X139998D01*
X98770Y197462D02*
X101308Y200000D01*
X83919Y197462D02*
X98770D01*
X139998Y200000D02*
X143499Y203501D01*
X51562Y179562D02*
X63901Y191901D01*
X51562Y163322D02*
Y179562D01*
X34798Y163322D02*
X51562D01*
X51562Y163322D01*
D73*
X120000Y80000D02*
X129600Y70400D01*
X120000Y80000D02*
Y95578D01*
X119000Y96578D02*
X120000Y95578D01*
X59500Y107500D02*
X65342D01*
X59511Y112511D02*
X65267D01*
X59500Y112500D02*
X59511Y112511D01*
X71762Y105738D02*
X72500Y105000D01*
X70500Y105000D02*
X72500D01*
X69762Y105738D02*
X70500Y105000D01*
X69762Y105738D02*
Y105787D01*
X68869Y106680D02*
X69762Y105787D01*
X66849Y106680D02*
X68869D01*
X66029Y107500D02*
X66849Y106680D01*
X65342Y107500D02*
X66029D01*
X65267Y112511D02*
X65278Y112522D01*
X59484Y107516D02*
X59500Y107500D01*
D74*
X72500Y115000D02*
X74444Y116944D01*
X72847Y118541D02*
X74444Y116944D01*
X74633Y115611D02*
Y117561D01*
X72500Y115000D02*
X74022D01*
X75675Y118603D02*
X86218D01*
X74022Y115000D02*
X74633Y115611D01*
Y117561D02*
X75675Y118603D01*
X86218D02*
X96527Y108294D01*
X245220Y85981D02*
X245284Y86044D01*
X245220Y85366D02*
Y85981D01*
X244204Y84350D02*
X245220Y85366D01*
X248997Y84692D02*
Y86203D01*
X201662Y72480D02*
X203354D01*
X143882Y96780D02*
X146493Y94169D01*
X133525Y111088D02*
X148469Y96145D01*
X87375Y121397D02*
X97684Y111088D01*
X75675Y121397D02*
X87375D01*
X97684Y111088D02*
X133525D01*
X213100Y71400D02*
X234834Y93135D01*
Y124462D01*
X228693Y130603D02*
X234834Y124462D01*
X220175Y130603D02*
X228693D01*
X219583Y130011D02*
X220175Y130603D01*
X215411Y130011D02*
X219583D01*
X215400Y130000D02*
X215411Y130011D01*
X203354Y72480D02*
X204433Y71400D01*
X213100D01*
X74022Y125000D02*
X74633Y124389D01*
Y122438D02*
Y124389D01*
Y122438D02*
X75675Y121397D01*
X72500Y125000D02*
X74022D01*
X71109D02*
X72500D01*
X70498Y121875D02*
Y124389D01*
X71109Y125000D01*
X66123Y117500D02*
X70498Y121875D01*
X59500Y117500D02*
X66123D01*
X132367Y108294D02*
X139662Y101000D01*
X96527Y108294D02*
X132367D01*
X237628Y91977D02*
Y125619D01*
X214257Y68606D02*
X237628Y91977D01*
X229850Y133397D02*
X237628Y125619D01*
X219583Y133989D02*
X220175Y133397D01*
X229850D01*
X215400Y134000D02*
X215411Y133989D01*
X219583D01*
X204433Y68606D02*
X214257D01*
X203501Y67674D02*
X204433Y68606D01*
X139662Y101000D02*
X139662D01*
X143882Y96780D01*
X148469Y96145D02*
X149377D01*
X150770Y94751D01*
X151389D01*
X146493Y93261D02*
Y94169D01*
Y93261D02*
X147886Y91867D01*
Y91249D02*
Y91867D01*
X226221Y98270D02*
X229142Y101191D01*
X224246Y100246D02*
X226348Y102348D01*
X224657Y121397D02*
X229142Y116912D01*
X220175Y121397D02*
X224657D01*
X229142Y101191D02*
Y116912D01*
X215411Y121989D02*
X219583D01*
X215400Y122000D02*
X215411Y121989D01*
X219583D02*
X220175Y121397D01*
X226221Y96654D02*
Y98270D01*
X225784Y96216D02*
X226221Y96654D01*
X223500Y118603D02*
X226348Y115755D01*
X220175Y118603D02*
X223500D01*
X226348Y102348D02*
Y115755D01*
X219583Y118011D02*
X220175Y118603D01*
X215411Y118011D02*
X219583D01*
X215400Y118000D02*
X215411Y118011D01*
X222192Y99808D02*
X222629Y100246D01*
X224246D01*
X243202Y132559D02*
X245284Y130477D01*
X243202Y132559D02*
X243202D01*
X245284Y86044D02*
Y130477D01*
X233157Y142603D02*
X243202Y132559D01*
X220175Y142603D02*
X233157D01*
X219583Y142011D02*
X220175Y142603D01*
X215411Y142011D02*
X219583D01*
X215400Y142000D02*
X215411Y142011D01*
X248078Y87122D02*
Y131634D01*
X234314Y145397D02*
X248078Y131634D01*
Y87122D02*
X248997Y86203D01*
X215411Y145989D02*
X219583D01*
X215400Y146000D02*
X215411Y145989D01*
X220175Y145397D02*
X234314D01*
X219583Y145989D02*
X220175Y145397D01*
D75*
X177800Y206000D02*
X182116D01*
X175301Y203501D02*
X177800Y206000D01*
X143499Y203501D02*
X175301D01*
D76*
X59500Y89000D02*
X62702Y92202D01*
X59500Y89000D02*
X61750Y86750D01*
X59500Y151000D02*
X61750Y153250D01*
Y147828D02*
X65278D01*
X59500Y150078D02*
X61750Y147828D01*
X59500Y150078D02*
Y151000D01*
X66700Y163200D02*
X68400D01*
X61750Y158250D02*
X66700Y163200D01*
X61750Y156215D02*
Y158250D01*
X61750Y156214D02*
X61750Y156215D01*
X61750Y153250D02*
Y156214D01*
X66700Y76800D02*
X68400D01*
X61750Y81750D02*
X66700Y76800D01*
X61750Y81750D02*
Y86750D01*
X72250Y149750D02*
X72500Y150000D01*
X67524Y149750D02*
X72250D01*
X65603Y147828D02*
X67524Y149750D01*
X65278Y147828D02*
X65603D01*
X62702Y92202D02*
X65278D01*
X69296Y90000D02*
X72500D01*
X67094Y92202D02*
X69296Y90000D01*
X65278Y92202D02*
X67094D01*
D77*
X68400Y67800D02*
Y76800D01*
X14800Y67800D02*
Y76800D01*
Y163200D02*
Y172200D01*
D78*
X521000Y79000D02*
D03*
X279000D02*
D03*
X521000Y321000D02*
D03*
X279000D02*
D03*
D79*
X570000Y370000D02*
D03*
Y30000D02*
D03*
X30000Y370000D02*
D03*
Y30000D02*
D03*
D80*
X68400Y163200D02*
D03*
Y76800D02*
D03*
D81*
X14800Y163200D02*
D03*
Y76800D02*
D03*
D82*
X85000Y375500D02*
D03*
D83*
X105000D02*
D03*
D84*
X28500Y280000D02*
D03*
D85*
X70250Y280000D02*
D03*
D86*
X130250Y280000D02*
D03*
D87*
X100500Y231750D02*
D03*
D88*
X278700Y379700D02*
D03*
X278000Y18700D02*
D03*
D89*
X156537Y192000D02*
D03*
X173138Y164846D02*
D03*
X175831Y149584D02*
D03*
X94000Y92000D02*
D03*
X80264Y146939D02*
D03*
X418010Y198754D02*
D03*
X421144Y192788D02*
D03*
X441683Y150300D02*
D03*
X342601Y230907D02*
D03*
X385883Y189696D02*
D03*
X517518Y167271D02*
D03*
X427800Y325530D02*
D03*
X347800Y97775D02*
D03*
X347641Y329792D02*
D03*
X361600Y189400D02*
D03*
X165200Y319900D02*
D03*
X319254Y257210D02*
D03*
X325602Y235483D02*
D03*
X321238Y242756D02*
D03*
X339023Y242000D02*
D03*
X362275Y226167D02*
D03*
X374544Y218802D02*
D03*
X393306Y219045D02*
D03*
X407648D02*
D03*
X407744Y214093D02*
D03*
X356342Y226034D02*
D03*
X452900Y109500D02*
D03*
X560953Y321699D02*
D03*
X492697Y267486D02*
D03*
X501400Y274700D02*
D03*
X448000Y269100D02*
D03*
X584874Y335000D02*
D03*
Y295000D02*
D03*
Y255000D02*
D03*
Y215000D02*
D03*
Y175000D02*
D03*
Y135000D02*
D03*
X574874Y235000D02*
D03*
X564873Y215000D02*
D03*
X574874Y195000D02*
D03*
X564873Y175000D02*
D03*
X574874Y155000D02*
D03*
X564873Y135000D02*
D03*
X554873Y235000D02*
D03*
Y195000D02*
D03*
Y155000D02*
D03*
X544873Y55000D02*
D03*
X524873Y15000D02*
D03*
X514873Y35000D02*
D03*
X504873Y15000D02*
D03*
X394873Y315000D02*
D03*
X354873Y235000D02*
D03*
X324873Y295000D02*
D03*
Y55000D02*
D03*
X314873Y315000D02*
D03*
X304873Y295000D02*
D03*
X284873Y175000D02*
D03*
X274873Y195000D02*
D03*
X244873Y175000D02*
D03*
X194873Y315000D02*
D03*
X64873Y375000D02*
D03*
Y55000D02*
D03*
X44873Y95000D02*
D03*
X54873Y75000D02*
D03*
X24873Y135000D02*
D03*
X34873Y115000D02*
D03*
X24873Y95000D02*
D03*
X34873Y75000D02*
D03*
X357542Y114519D02*
D03*
X350500Y171800D02*
D03*
X328900Y84600D02*
D03*
X305000Y109400D02*
D03*
X333200Y32600D02*
D03*
X457487Y33426D02*
D03*
X455568Y75640D02*
D03*
X419700Y102900D02*
D03*
X466946Y178640D02*
D03*
X273700Y277500D02*
D03*
X316500D02*
D03*
X347329Y276397D02*
D03*
X348300Y234600D02*
D03*
X248609Y243925D02*
D03*
X319100Y190800D02*
D03*
X323200Y170900D02*
D03*
X302100Y171700D02*
D03*
X455089Y189332D02*
D03*
X519899Y212929D02*
D03*
Y182472D02*
D03*
X407641Y110267D02*
D03*
X393300Y167900D02*
D03*
X360699Y319099D02*
D03*
X354745Y314667D02*
D03*
X342100Y236300D02*
D03*
X330892Y238547D02*
D03*
X237824Y223911D02*
D03*
X240818Y219965D02*
D03*
X234600Y219900D02*
D03*
X242200Y237800D02*
D03*
X247129Y218671D02*
D03*
X502387Y262432D02*
D03*
X497333Y261001D02*
D03*
X522800Y222376D02*
D03*
Y217423D02*
D03*
X435662Y239003D02*
D03*
X380070Y205323D02*
D03*
X392522Y234736D02*
D03*
X391825Y302286D02*
D03*
X199644Y134476D02*
D03*
Y129523D02*
D03*
X198120Y122477D02*
D03*
X522800Y147377D02*
D03*
X198120Y117523D02*
D03*
X522800Y142424D02*
D03*
X423534Y300200D02*
D03*
X422776Y322830D02*
D03*
X172789Y289524D02*
D03*
X359959Y251441D02*
D03*
X417823Y322830D02*
D03*
X418581Y300200D02*
D03*
X172789Y294477D02*
D03*
X356457Y254943D02*
D03*
X191262Y265460D02*
D03*
X437776Y322930D02*
D03*
X191262Y270540D02*
D03*
X432823Y322930D02*
D03*
X205232Y282477D02*
D03*
X447823Y322830D02*
D03*
X205232Y277523D02*
D03*
X452776Y322830D02*
D03*
X357677Y101375D02*
D03*
X328500Y106109D02*
D03*
Y101156D02*
D03*
X352724Y101375D02*
D03*
X522900Y157424D02*
D03*
Y162377D02*
D03*
X522800Y177377D02*
D03*
X495400Y177376D02*
D03*
X468466Y131600D02*
D03*
X195326Y110477D02*
D03*
X522800Y172424D02*
D03*
X495400Y172423D02*
D03*
X473419Y131600D02*
D03*
X195326Y105524D02*
D03*
X522800Y192377D02*
D03*
X198120Y146476D02*
D03*
X522800Y187424D02*
D03*
X198120Y141524D02*
D03*
X522800Y202423D02*
D03*
X199136Y153524D02*
D03*
X522800Y207376D02*
D03*
X199136Y158476D02*
D03*
X335399Y314799D02*
D03*
X490900Y182400D02*
D03*
X516274Y236783D02*
D03*
X203053Y177806D02*
D03*
X197408Y178158D02*
D03*
X521800Y236800D02*
D03*
X519556Y152188D02*
D03*
X442755Y320054D02*
D03*
X377800Y75500D02*
D03*
X178244Y242000D02*
D03*
X93260Y82855D02*
D03*
X123433Y147013D02*
D03*
X140718Y91441D02*
D03*
X154178Y100076D02*
D03*
X136400Y86000D02*
D03*
X461300Y131961D02*
D03*
X374400Y318400D02*
D03*
X377900Y323100D02*
D03*
X399572Y301804D02*
D03*
X513300Y254700D02*
D03*
X406399Y103900D02*
D03*
X169421Y257987D02*
D03*
X241604Y243604D02*
D03*
X401367Y103900D02*
D03*
X172000Y252999D02*
D03*
X407100Y74600D02*
D03*
X203500Y48000D02*
D03*
X395399Y189800D02*
D03*
X403999D02*
D03*
X198199Y51799D02*
D03*
X385899Y105400D02*
D03*
X233200Y50800D02*
D03*
X391366Y98821D02*
D03*
X439900Y45600D02*
D03*
X381675Y108300D02*
D03*
X202750Y243843D02*
D03*
X202093Y238934D02*
D03*
X191556Y241875D02*
D03*
X429130Y300373D02*
D03*
X433500Y264600D02*
D03*
X480700Y131200D02*
D03*
X362352Y97536D02*
D03*
X329273Y113294D02*
D03*
X386500Y267000D02*
D03*
X374280Y234481D02*
D03*
X351381Y260266D02*
D03*
X365074Y245455D02*
D03*
X425159Y269363D02*
D03*
X407760Y209004D02*
D03*
X382200Y306100D02*
D03*
X427544Y319120D02*
D03*
X411492Y323214D02*
D03*
X517399Y197542D02*
D03*
X496852Y166368D02*
D03*
X327236Y93528D02*
D03*
X174200Y52700D02*
D03*
X296700Y186500D02*
D03*
X209120Y137840D02*
D03*
X525500Y227400D02*
D03*
Y212400D02*
D03*
X398444Y203588D02*
D03*
X387232Y215060D02*
D03*
X382400Y218300D02*
D03*
X442900Y300525D02*
D03*
X412830Y300373D02*
D03*
X233800Y230300D02*
D03*
X567300Y294600D02*
D03*
X435368Y221046D02*
D03*
X221678Y190000D02*
D03*
X224400Y232299D02*
D03*
X227766Y228596D02*
D03*
X208058Y235833D02*
D03*
X203442Y233757D02*
D03*
X501700Y197600D02*
D03*
X221336Y241651D02*
D03*
X196509Y240070D02*
D03*
X378344Y214288D02*
D03*
X195398Y223606D02*
D03*
X209622Y202000D02*
D03*
Y194266D02*
D03*
X209400Y188900D02*
D03*
X190378Y186000D02*
D03*
X197724Y170683D02*
D03*
X204250Y173000D02*
D03*
X200250Y166000D02*
D03*
X205692Y162130D02*
D03*
X209182Y150160D02*
D03*
X226309Y241474D02*
D03*
X253368Y200326D02*
D03*
X292094Y200088D02*
D03*
X224178Y163824D02*
D03*
X377800Y97775D02*
D03*
X500100Y151700D02*
D03*
X442800Y325530D02*
D03*
X457800D02*
D03*
X347674Y74445D02*
D03*
X332674D02*
D03*
X362674D02*
D03*
X422674D02*
D03*
X525500Y197400D02*
D03*
Y182400D02*
D03*
Y167400D02*
D03*
Y137400D02*
D03*
Y152400D02*
D03*
X81100Y70600D02*
D03*
X104953Y60817D02*
D03*
X154348Y150643D02*
D03*
X105275Y95500D02*
D03*
X109000Y143000D02*
D03*
X160000Y157000D02*
D03*
X165500Y150600D02*
D03*
X178000Y186200D02*
D03*
X217600Y340300D02*
D03*
X441544Y209788D02*
D03*
Y230788D02*
D03*
X197873Y262631D02*
D03*
X181829Y332170D02*
D03*
X213000Y358182D02*
D03*
X206481Y263787D02*
D03*
X178000Y249000D02*
D03*
X221678Y210083D02*
D03*
X222652Y202146D02*
D03*
X223000Y219683D02*
D03*
X209622Y214000D02*
D03*
X247668Y201380D02*
D03*
X238062Y83579D02*
D03*
X224000Y89000D02*
D03*
X157900Y54300D02*
D03*
X209188Y102000D02*
D03*
X190681Y101165D02*
D03*
X151000Y338999D02*
D03*
X146827Y377359D02*
D03*
X144700Y365700D02*
D03*
X146000Y372406D02*
D03*
X198000Y216000D02*
D03*
X204000Y214000D02*
D03*
X194128Y198000D02*
D03*
X190378Y202000D02*
D03*
X205872Y198000D02*
D03*
X193000Y219000D02*
D03*
X190378Y214000D02*
D03*
X218000Y354499D02*
D03*
X201154Y271242D02*
D03*
X206516Y271031D02*
D03*
X193482Y126816D02*
D03*
X191020Y114888D02*
D03*
X201662Y72480D02*
D03*
Y67526D02*
D03*
X65180Y122458D02*
D03*
X72847Y118541D02*
D03*
X151389Y94751D02*
D03*
X147886Y91249D02*
D03*
X86985Y112268D02*
D03*
X81026Y111506D02*
D03*
X79248Y105156D02*
D03*
X66040Y102477D02*
D03*
Y97523D02*
D03*
X80777Y141383D02*
D03*
X174244Y299720D02*
D03*
X208534Y288036D02*
D03*
X207264Y296418D02*
D03*
X209224Y114280D02*
D03*
X209312Y126000D02*
D03*
X194532Y149891D02*
D03*
X194776Y137869D02*
D03*
X225784Y96216D02*
D03*
X222192Y99808D02*
D03*
X244204Y84350D02*
D03*
X249157D02*
D03*
X223500Y391499D02*
D03*
X83170Y343775D02*
D03*
X63000Y357689D02*
D03*
X81630Y348870D02*
D03*
X69500Y357000D02*
D03*
X134458Y391387D02*
D03*
X129573Y319000D02*
D03*
X85000Y184000D02*
D03*
X83000Y169000D02*
D03*
X71995Y231501D02*
D03*
X73890Y219631D02*
D03*
X18000Y257000D02*
D03*
X34000Y212000D02*
D03*
X74739Y198628D02*
D03*
X96718Y202415D02*
D03*
X35000Y200000D02*
D03*
X139000Y174000D02*
D03*
X133501Y183336D02*
D03*
X143499Y203501D02*
D03*
X173000Y187000D02*
D03*
X195020Y162000D02*
D03*
X174000Y213000D02*
D03*
X157988Y137414D02*
D03*
X145542Y171196D02*
D03*
X190378Y194000D02*
D03*
X41000Y213000D02*
D03*
X149000Y330000D02*
D03*
X35000Y238000D02*
D03*
Y225000D02*
D03*
X57000Y258000D02*
D03*
X252000Y353000D02*
D03*
X152000Y366000D02*
D03*
X147000Y357000D02*
D03*
X148000Y347500D02*
D03*
X65278Y92202D02*
D03*
Y147828D02*
D03*
Y112522D02*
D03*
X65342Y142500D02*
D03*
Y137500D02*
D03*
X68400Y67800D02*
D03*
X65342Y132500D02*
D03*
Y107500D02*
D03*
X78486Y130048D02*
D03*
X44000Y65000D02*
D03*
X270000Y114000D02*
D03*
X95000Y132000D02*
D03*
X199000Y78000D02*
D03*
X212000D02*
D03*
X206000Y63000D02*
D03*
X253951Y89126D02*
D03*
X136000Y141000D02*
D03*
X34798Y163322D02*
D03*
X109000Y185000D02*
D03*
X110244Y167000D02*
D03*
X138834Y120500D02*
D03*
X141355Y114519D02*
D03*
X168910Y282702D02*
D03*
X135890Y161798D02*
D03*
X14800Y172200D02*
D03*
Y67800D02*
D03*
X73000Y42774D02*
D03*
X51562Y163322D02*
D03*
X81812Y134644D02*
D03*
M02*
