G04*
G04 #@! TF.GenerationSoftware,Altium Limited,Altium Designer,21.2.2 (38)*
G04*
G04 Layer_Color=255*
%FSLAX44Y44*%
%MOMM*%
G71*
G04*
G04 #@! TF.SameCoordinates,F74FCDBE-679D-443F-AF77-7FC649403346*
G04*
G04*
G04 #@! TF.FilePolarity,Positive*
G04*
G01*
G75*
%ADD19R,0.5500X0.6500*%
%ADD20R,0.3000X0.7100*%
%ADD21R,0.7000X0.3000*%
%ADD22R,0.7000X1.0000*%
%ADD23R,2.4000X2.4000*%
%ADD24R,0.3000X1.6000*%
%ADD25R,2.4000X2.4000*%
%ADD26R,2.4000X2.4000*%
%ADD27R,1.6000X0.3000*%
%ADD28R,2.4000X2.4000*%
%ADD29R,0.7000X0.1800*%
G04:AMPARAMS|DCode=30|XSize=0.2mm|YSize=0.565mm|CornerRadius=0.05mm|HoleSize=0mm|Usage=FLASHONLY|Rotation=0.000|XOffset=0mm|YOffset=0mm|HoleType=Round|Shape=RoundedRectangle|*
%AMROUNDEDRECTD30*
21,1,0.2000,0.4650,0,0,0.0*
21,1,0.1000,0.5650,0,0,0.0*
1,1,0.1000,0.0500,-0.2325*
1,1,0.1000,-0.0500,-0.2325*
1,1,0.1000,-0.0500,0.2325*
1,1,0.1000,0.0500,0.2325*
%
%ADD30ROUNDEDRECTD30*%
G04:AMPARAMS|DCode=31|XSize=0.4mm|YSize=0.565mm|CornerRadius=0.05mm|HoleSize=0mm|Usage=FLASHONLY|Rotation=0.000|XOffset=0mm|YOffset=0mm|HoleType=Round|Shape=RoundedRectangle|*
%AMROUNDEDRECTD31*
21,1,0.4000,0.4650,0,0,0.0*
21,1,0.3000,0.5650,0,0,0.0*
1,1,0.1000,0.1500,-0.2325*
1,1,0.1000,-0.1500,-0.2325*
1,1,0.1000,-0.1500,0.2325*
1,1,0.1000,0.1500,0.2325*
%
%ADD31ROUNDEDRECTD31*%
%ADD32R,0.8000X0.8000*%
%ADD33R,2.1590X2.7430*%
%ADD34R,1.0000X0.9000*%
%ADD35R,2.0000X1.5000*%
%ADD69C,1.0000*%
%ADD78C,5.3000*%
%ADD79C,5.5000*%
%ADD80O,1.9000X1.1000*%
%ADD81O,2.4000X1.1000*%
%ADD82R,1.3680X1.3680*%
%ADD83C,1.3680*%
%ADD84C,1.8000*%
%ADD85O,2.5000X4.5000*%
%ADD86O,2.5000X5.0000*%
%ADD87O,4.5000X2.5000*%
%ADD88C,1.5240*%
D19*
X119000Y96578D02*
D03*
X129000D02*
D03*
X98000Y160000D02*
D03*
X88000D02*
D03*
X119000Y132000D02*
D03*
X129000D02*
D03*
X119000Y167000D02*
D03*
X129000D02*
D03*
D20*
X94000Y100100D02*
D03*
X99000Y87900D02*
D03*
X89000D02*
D03*
X94000Y148100D02*
D03*
X99000Y135900D02*
D03*
X89000D02*
D03*
X94000Y73100D02*
D03*
X99000Y60900D02*
D03*
X89000D02*
D03*
D21*
X59500Y97500D02*
D03*
Y102500D02*
D03*
X72500Y150000D02*
D03*
Y145000D02*
D03*
Y140000D02*
D03*
Y135000D02*
D03*
Y130000D02*
D03*
Y125000D02*
D03*
Y115000D02*
D03*
Y110000D02*
D03*
Y105000D02*
D03*
Y100000D02*
D03*
Y95000D02*
D03*
Y90000D02*
D03*
X59500Y107500D02*
D03*
Y112500D02*
D03*
Y117500D02*
D03*
Y122500D02*
D03*
Y127500D02*
D03*
Y132500D02*
D03*
Y137500D02*
D03*
Y142500D02*
D03*
D22*
Y89000D02*
D03*
Y151000D02*
D03*
D23*
X478700Y33270D02*
D03*
X311700Y366730D02*
D03*
D24*
X452700Y59770D02*
D03*
X457700D02*
D03*
X432700D02*
D03*
X437700D02*
D03*
X442700D02*
D03*
X447700D02*
D03*
X392700D02*
D03*
X332700D02*
D03*
X337700D02*
D03*
X342700D02*
D03*
X347700D02*
D03*
X352700D02*
D03*
X357700D02*
D03*
X362700D02*
D03*
X367700D02*
D03*
X372700D02*
D03*
X377700D02*
D03*
X382700D02*
D03*
X387700D02*
D03*
X397700D02*
D03*
X402700D02*
D03*
X407700D02*
D03*
X412700D02*
D03*
X417700D02*
D03*
X422700D02*
D03*
X427700D02*
D03*
X337700Y340230D02*
D03*
X332700D02*
D03*
X357700D02*
D03*
X352700D02*
D03*
X347700D02*
D03*
X342700D02*
D03*
X397700D02*
D03*
X457700D02*
D03*
X452700D02*
D03*
X447700D02*
D03*
X442700D02*
D03*
X437700D02*
D03*
X432700D02*
D03*
X427700D02*
D03*
X422700D02*
D03*
X417700D02*
D03*
X412700D02*
D03*
X407700D02*
D03*
X402700D02*
D03*
X392700D02*
D03*
X387700D02*
D03*
X382700D02*
D03*
X377700D02*
D03*
X372700D02*
D03*
X367700D02*
D03*
X362700D02*
D03*
D25*
X311700Y33270D02*
D03*
X478700Y366730D02*
D03*
D26*
X566700Y283500D02*
D03*
D27*
X540200Y257500D02*
D03*
Y262500D02*
D03*
Y237500D02*
D03*
Y242500D02*
D03*
Y247500D02*
D03*
Y252500D02*
D03*
Y197500D02*
D03*
Y137500D02*
D03*
Y142500D02*
D03*
Y147500D02*
D03*
Y152500D02*
D03*
Y157500D02*
D03*
Y162500D02*
D03*
Y167500D02*
D03*
Y172500D02*
D03*
Y177500D02*
D03*
Y182500D02*
D03*
Y187500D02*
D03*
Y192500D02*
D03*
Y202500D02*
D03*
Y207500D02*
D03*
Y212500D02*
D03*
Y217500D02*
D03*
Y222500D02*
D03*
Y227500D02*
D03*
Y232500D02*
D03*
D28*
X566700Y116500D02*
D03*
D29*
X215400Y298000D02*
D03*
Y294000D02*
D03*
Y290000D02*
D03*
Y286000D02*
D03*
Y282000D02*
D03*
Y278000D02*
D03*
Y274000D02*
D03*
Y270000D02*
D03*
Y266000D02*
D03*
Y262000D02*
D03*
Y258000D02*
D03*
Y254000D02*
D03*
Y250000D02*
D03*
Y246000D02*
D03*
Y242000D02*
D03*
Y238000D02*
D03*
Y234000D02*
D03*
Y230000D02*
D03*
Y226000D02*
D03*
Y222000D02*
D03*
Y218000D02*
D03*
Y214000D02*
D03*
Y210000D02*
D03*
Y206000D02*
D03*
Y202000D02*
D03*
Y198000D02*
D03*
Y194000D02*
D03*
Y190000D02*
D03*
Y186000D02*
D03*
Y182000D02*
D03*
Y178000D02*
D03*
Y174000D02*
D03*
Y170000D02*
D03*
Y166000D02*
D03*
Y162000D02*
D03*
Y158000D02*
D03*
Y154000D02*
D03*
Y150000D02*
D03*
Y146000D02*
D03*
Y142000D02*
D03*
Y138000D02*
D03*
Y134000D02*
D03*
Y130000D02*
D03*
Y126000D02*
D03*
Y122000D02*
D03*
Y118000D02*
D03*
Y114000D02*
D03*
Y110000D02*
D03*
Y106000D02*
D03*
Y102000D02*
D03*
X184600Y298000D02*
D03*
Y294000D02*
D03*
Y290000D02*
D03*
Y286000D02*
D03*
Y282000D02*
D03*
Y278000D02*
D03*
Y274000D02*
D03*
Y270000D02*
D03*
Y266000D02*
D03*
Y262000D02*
D03*
Y258000D02*
D03*
Y254000D02*
D03*
Y250000D02*
D03*
Y246000D02*
D03*
Y242000D02*
D03*
Y238000D02*
D03*
Y234000D02*
D03*
Y230000D02*
D03*
Y226000D02*
D03*
Y222000D02*
D03*
Y218000D02*
D03*
Y214000D02*
D03*
Y210000D02*
D03*
Y206000D02*
D03*
Y202000D02*
D03*
Y198000D02*
D03*
Y194000D02*
D03*
Y190000D02*
D03*
Y186000D02*
D03*
Y182000D02*
D03*
Y178000D02*
D03*
Y174000D02*
D03*
Y170000D02*
D03*
Y166000D02*
D03*
Y162000D02*
D03*
Y158000D02*
D03*
Y154000D02*
D03*
Y150000D02*
D03*
Y146000D02*
D03*
Y142000D02*
D03*
Y138000D02*
D03*
Y134000D02*
D03*
Y130000D02*
D03*
Y126000D02*
D03*
Y122000D02*
D03*
Y118000D02*
D03*
Y114000D02*
D03*
Y110000D02*
D03*
Y106000D02*
D03*
Y102000D02*
D03*
D30*
X367700Y91525D02*
D03*
X372700D02*
D03*
X382700D02*
D03*
X387700D02*
D03*
Y83175D02*
D03*
X382700D02*
D03*
X372700D02*
D03*
X367700D02*
D03*
X337700Y91525D02*
D03*
X342700D02*
D03*
X352700D02*
D03*
X357700D02*
D03*
Y83175D02*
D03*
X352700D02*
D03*
X342700D02*
D03*
X337700D02*
D03*
D31*
X377700Y91525D02*
D03*
Y83175D02*
D03*
X347700Y91525D02*
D03*
Y83175D02*
D03*
D32*
X113750Y85000D02*
D03*
X126250D02*
D03*
X113750Y120000D02*
D03*
X126250D02*
D03*
X113750Y155000D02*
D03*
X126250D02*
D03*
D33*
X230533Y371217D02*
D03*
X186333D02*
D03*
D34*
X135000Y380500D02*
D03*
Y364500D02*
D03*
D35*
X230300Y28000D02*
D03*
X176300D02*
D03*
X73000Y30000D02*
D03*
X127000D02*
D03*
D69*
X103652Y175907D02*
D03*
X85000Y184000D02*
D03*
X126612Y189609D02*
D03*
X136000Y141000D02*
D03*
X63901Y191901D02*
D03*
X561100Y89000D02*
D03*
X581700D02*
D03*
X284800Y38800D02*
D03*
X258800Y358800D02*
D03*
X581700Y68600D02*
D03*
X91000Y339400D02*
D03*
X561100Y68600D02*
D03*
X162900Y241400D02*
D03*
X263800Y38800D02*
D03*
X528500Y360200D02*
D03*
X528700Y38800D02*
D03*
X56000Y343775D02*
D03*
X517900Y372400D02*
D03*
X39811Y336270D02*
D03*
X153100Y40800D02*
D03*
X507400Y360200D02*
D03*
X155157Y315488D02*
D03*
X150200Y70600D02*
D03*
X505300Y38800D02*
D03*
X561100Y332086D02*
D03*
Y311800D02*
D03*
X573400Y324300D02*
D03*
X279100Y358800D02*
D03*
X258300Y171700D02*
D03*
X16464Y333461D02*
D03*
X402100Y22700D02*
D03*
D78*
X521000Y79000D02*
D03*
X279000D02*
D03*
X521000Y321000D02*
D03*
X279000D02*
D03*
D79*
X570000Y370000D02*
D03*
Y30000D02*
D03*
X30000Y370000D02*
D03*
Y30000D02*
D03*
D80*
X68400Y163200D02*
D03*
Y76800D02*
D03*
D81*
X14800Y163200D02*
D03*
Y76800D02*
D03*
D82*
X85000Y375500D02*
D03*
D83*
X105000D02*
D03*
D84*
X28500Y280000D02*
D03*
D85*
X70250Y280000D02*
D03*
D86*
X130250Y280000D02*
D03*
D87*
X100500Y231750D02*
D03*
D88*
X278700Y379700D02*
D03*
X278000Y18700D02*
D03*
M02*
