G04*
G04 #@! TF.GenerationSoftware,Altium Limited,Altium Designer,21.2.2 (38)*
G04*
G04 Layer_Color=65280*
%FSLAX44Y44*%
%MOMM*%
G71*
G04*
G04 #@! TF.SameCoordinates,0C7DD45D-D1DC-410A-9663-C9F4106EF834*
G04*
G04*
G04 #@! TF.FilePolarity,Positive*
G04*
G01*
G75*
%ADD105C,0.0500*%
D105*
X284767Y37774D02*
X284453Y40261D01*
X283530Y42592D01*
X282057Y44620D01*
X280126Y46218D01*
X277857Y47285D01*
X275395Y47755D01*
X272894Y47597D01*
X270509Y46823D01*
X268393Y45479D01*
X266677Y43652D01*
X265469Y41455D01*
X264846Y39028D01*
Y36521D01*
X265469Y34093D01*
X266677Y31896D01*
X268393Y30069D01*
X270509Y28726D01*
X272894Y27951D01*
X275395Y27794D01*
X277857Y28264D01*
X280126Y29331D01*
X282057Y30929D01*
X283530Y32957D01*
X284453Y35287D01*
X284767Y37774D01*
X262730Y37846D02*
X262416Y40333D01*
X261493Y42663D01*
X260020Y44692D01*
X258088Y46289D01*
X255820Y47357D01*
X253358Y47826D01*
X250856Y47669D01*
X248472Y46894D01*
X246356Y45551D01*
X244640Y43724D01*
X243432Y41527D01*
X242809Y39099D01*
Y36593D01*
X243432Y34165D01*
X244640Y31968D01*
X246356Y30141D01*
X248472Y28798D01*
X250856Y28023D01*
X253358Y27866D01*
X255820Y28335D01*
X258088Y29403D01*
X260020Y31000D01*
X261493Y33029D01*
X262416Y35359D01*
X262730Y37846D01*
X307500Y79000D02*
X307388Y81519D01*
X307055Y84018D01*
X306502Y86478D01*
X305733Y88879D01*
X304755Y91203D01*
X303576Y93432D01*
X302204Y95547D01*
X300651Y97533D01*
X298928Y99374D01*
X297050Y101056D01*
X295030Y102565D01*
X292884Y103889D01*
X290630Y105019D01*
X288285Y105945D01*
X285868Y106660D01*
X283396Y107159D01*
X280890Y107437D01*
X278370Y107493D01*
X275854Y107326D01*
X273363Y106937D01*
X270916Y106329D01*
X268532Y105508D01*
X266230Y104479D01*
X264028Y103251D01*
X261943Y101833D01*
X259992Y100236D01*
X258190Y98473D01*
X256550Y96557D01*
X255086Y94505D01*
X253810Y92331D01*
X252730Y90052D01*
X251856Y87687D01*
X251195Y85254D01*
X250751Y82772D01*
X250528Y80261D01*
Y77739D01*
X250751Y75228D01*
X251195Y72746D01*
X251856Y70313D01*
X252730Y67948D01*
X253810Y65670D01*
X255086Y63495D01*
X256550Y61443D01*
X258190Y59527D01*
X259992Y57764D01*
X261943Y56167D01*
X264028Y54749D01*
X266230Y53521D01*
X268532Y52492D01*
X270916Y51671D01*
X273363Y51063D01*
X275854Y50674D01*
X278370Y50507D01*
X280890Y50563D01*
X283396Y50841D01*
X285868Y51340D01*
X288285Y52055D01*
X290630Y52981D01*
X292884Y54111D01*
X295030Y55435D01*
X297050Y56944D01*
X298928Y58626D01*
X300651Y60467D01*
X302204Y62453D01*
X303576Y64568D01*
X304755Y66797D01*
X305733Y69121D01*
X306502Y71522D01*
X307055Y73982D01*
X307388Y76481D01*
X307500Y79000D01*
X549500Y321000D02*
X549389Y323519D01*
X549055Y326018D01*
X548502Y328478D01*
X547733Y330879D01*
X546755Y333203D01*
X545576Y335432D01*
X544204Y337547D01*
X542651Y339533D01*
X540928Y341374D01*
X539050Y343056D01*
X537030Y344565D01*
X534884Y345889D01*
X532630Y347019D01*
X530285Y347945D01*
X527868Y348660D01*
X525396Y349159D01*
X522890Y349437D01*
X520369Y349493D01*
X517854Y349326D01*
X515363Y348937D01*
X512916Y348329D01*
X510532Y347508D01*
X508230Y346479D01*
X506028Y345251D01*
X503944Y343833D01*
X501992Y342236D01*
X500190Y340473D01*
X498550Y338557D01*
X497086Y336505D01*
X495810Y334330D01*
X494730Y332052D01*
X493856Y329687D01*
X493195Y327254D01*
X492751Y324772D01*
X492528Y322261D01*
Y319739D01*
X492751Y317228D01*
X493195Y314746D01*
X493856Y312313D01*
X494730Y309948D01*
X495810Y307670D01*
X497086Y305495D01*
X498550Y303443D01*
X500190Y301527D01*
X501992Y299764D01*
X503943Y298167D01*
X506028Y296749D01*
X508230Y295521D01*
X510532Y294492D01*
X512916Y293671D01*
X515363Y293063D01*
X517854Y292674D01*
X520369Y292507D01*
X522890Y292563D01*
X525396Y292841D01*
X527868Y293340D01*
X530285Y294055D01*
X532630Y294981D01*
X534884Y296111D01*
X537030Y297435D01*
X539050Y298944D01*
X540928Y300626D01*
X542651Y302467D01*
X544204Y304453D01*
X545576Y306568D01*
X546755Y308797D01*
X547733Y311121D01*
X548502Y313522D01*
X549055Y315982D01*
X549389Y318481D01*
X549500Y321000D01*
X307500D02*
X307388Y323519D01*
X307055Y326018D01*
X306502Y328478D01*
X305733Y330879D01*
X304755Y333203D01*
X303576Y335432D01*
X302204Y337547D01*
X300651Y339533D01*
X298928Y341374D01*
X297050Y343056D01*
X295030Y344565D01*
X292884Y345889D01*
X290630Y347019D01*
X288285Y347945D01*
X285868Y348660D01*
X283396Y349159D01*
X280890Y349437D01*
X278370Y349493D01*
X275854Y349326D01*
X273363Y348937D01*
X270916Y348329D01*
X268532Y347508D01*
X266230Y346479D01*
X264028Y345251D01*
X261943Y343833D01*
X259992Y342236D01*
X258190Y340473D01*
X256550Y338557D01*
X255086Y336505D01*
X253810Y334330D01*
X252730Y332052D01*
X251856Y329687D01*
X251195Y327254D01*
X250751Y324772D01*
X250528Y322261D01*
Y319739D01*
X250751Y317228D01*
X251195Y314746D01*
X251856Y312313D01*
X252730Y309948D01*
X253810Y307670D01*
X255086Y305495D01*
X256550Y303443D01*
X258190Y301527D01*
X259992Y299764D01*
X261943Y298167D01*
X264028Y296749D01*
X266230Y295521D01*
X268532Y294492D01*
X270916Y293671D01*
X273363Y293063D01*
X275854Y292674D01*
X278370Y292507D01*
X280890Y292563D01*
X283396Y292841D01*
X285868Y293340D01*
X288285Y294055D01*
X290630Y294981D01*
X292884Y296111D01*
X295030Y297435D01*
X297050Y298944D01*
X298928Y300626D01*
X300651Y302467D01*
X302204Y304453D01*
X303576Y306568D01*
X304755Y308797D01*
X305733Y311121D01*
X306502Y313522D01*
X307055Y315982D01*
X307388Y318481D01*
X307500Y321000D01*
X549500Y79000D02*
X549389Y81519D01*
X549055Y84018D01*
X548502Y86478D01*
X547733Y88879D01*
X546755Y91203D01*
X545576Y93432D01*
X544204Y95547D01*
X542651Y97533D01*
X540928Y99374D01*
X539050Y101056D01*
X537030Y102565D01*
X534884Y103889D01*
X532630Y105019D01*
X530285Y105945D01*
X527868Y106660D01*
X525396Y107159D01*
X522890Y107437D01*
X520369Y107493D01*
X517854Y107326D01*
X515363Y106937D01*
X512916Y106329D01*
X510532Y105508D01*
X508230Y104479D01*
X506028Y103251D01*
X503944Y101833D01*
X501992Y100236D01*
X500190Y98473D01*
X498550Y96557D01*
X497086Y94505D01*
X495810Y92331D01*
X494730Y90052D01*
X493856Y87687D01*
X493195Y85254D01*
X492751Y82772D01*
X492528Y80261D01*
Y77739D01*
X492751Y75228D01*
X493195Y72746D01*
X493856Y70313D01*
X494730Y67948D01*
X495810Y65670D01*
X497086Y63495D01*
X498550Y61443D01*
X500190Y59527D01*
X501992Y57764D01*
X503943Y56167D01*
X506028Y54749D01*
X508230Y53521D01*
X510532Y52492D01*
X512916Y51671D01*
X515363Y51063D01*
X517854Y50674D01*
X520369Y50507D01*
X522890Y50563D01*
X525396Y50841D01*
X527868Y51340D01*
X530285Y52055D01*
X532630Y52981D01*
X534884Y54111D01*
X537030Y55435D01*
X539050Y56944D01*
X540928Y58626D01*
X542651Y60467D01*
X544204Y62453D01*
X545576Y64568D01*
X546755Y66797D01*
X547733Y69121D01*
X548502Y71522D01*
X549055Y73982D01*
X549389Y76481D01*
X549500Y79000D01*
X599000Y370000D02*
X598890Y372528D01*
X598559Y375036D01*
X598012Y377506D01*
X597251Y379919D01*
X596283Y382256D01*
X595115Y384500D01*
X593755Y386634D01*
X592215Y388641D01*
X590506Y390506D01*
X588641Y392215D01*
X586634Y393755D01*
X584500Y395115D01*
X582256Y396283D01*
X579919Y397251D01*
X577506Y398012D01*
X575036Y398559D01*
X572528Y398890D01*
X570000Y399000D01*
X567472Y398890D01*
X564964Y398559D01*
X562494Y398012D01*
X560081Y397251D01*
X557744Y396283D01*
X555500Y395115D01*
X553366Y393755D01*
X551359Y392215D01*
X549494Y390506D01*
X547785Y388641D01*
X546245Y386634D01*
X544885Y384500D01*
X543717Y382256D01*
X542749Y379919D01*
X541988Y377506D01*
X541441Y375036D01*
X541110Y372528D01*
X541000Y370000D01*
X541110Y367472D01*
X541441Y364964D01*
X541988Y362494D01*
X542749Y360081D01*
X543717Y357744D01*
X544885Y355500D01*
X546245Y353366D01*
X547785Y351359D01*
X549494Y349494D01*
X551359Y347785D01*
X553366Y346245D01*
X555500Y344885D01*
X557744Y343717D01*
X560081Y342749D01*
X562494Y341988D01*
X564964Y341441D01*
X567472Y341110D01*
X570000Y341000D01*
X572528Y341110D01*
X575036Y341441D01*
X577506Y341988D01*
X579919Y342749D01*
X582256Y343717D01*
X584500Y344885D01*
X586634Y346245D01*
X588641Y347785D01*
X590506Y349494D01*
X592215Y351359D01*
X593755Y353366D01*
X595115Y355500D01*
X596283Y357744D01*
X597251Y360081D01*
X598012Y362494D01*
X598559Y364964D01*
X598890Y367472D01*
X599000Y370000D01*
Y30000D02*
X598890Y32527D01*
X598559Y35036D01*
X598012Y37506D01*
X597251Y39919D01*
X596283Y42256D01*
X595115Y44500D01*
X593755Y46634D01*
X592215Y48641D01*
X590506Y50506D01*
X588641Y52215D01*
X586634Y53755D01*
X584500Y55115D01*
X582256Y56283D01*
X579919Y57251D01*
X577506Y58012D01*
X575036Y58559D01*
X572528Y58890D01*
X570000Y59000D01*
X567472Y58890D01*
X564964Y58559D01*
X562494Y58012D01*
X560081Y57251D01*
X557744Y56283D01*
X555500Y55115D01*
X553366Y53755D01*
X551359Y52215D01*
X549494Y50506D01*
X547785Y48641D01*
X546245Y46634D01*
X544885Y44500D01*
X543717Y42256D01*
X542749Y39919D01*
X541988Y37506D01*
X541441Y35036D01*
X541110Y32527D01*
X541000Y30000D01*
X541110Y27473D01*
X541441Y24964D01*
X541988Y22494D01*
X542749Y20081D01*
X543717Y17744D01*
X544885Y15500D01*
X546245Y13366D01*
X547785Y11359D01*
X549494Y9494D01*
X551359Y7785D01*
X553366Y6245D01*
X555500Y4885D01*
X557744Y3717D01*
X560081Y2749D01*
X562494Y1988D01*
X564964Y1441D01*
X567472Y1110D01*
X570000Y1000D01*
X572528Y1110D01*
X575036Y1441D01*
X577506Y1988D01*
X579919Y2749D01*
X582256Y3717D01*
X584500Y4885D01*
X586634Y6245D01*
X588641Y7785D01*
X590506Y9494D01*
X592215Y11359D01*
X593755Y13366D01*
X595115Y15500D01*
X596283Y17744D01*
X597251Y20081D01*
X598012Y22494D01*
X598559Y24964D01*
X598890Y27473D01*
X599000Y30000D01*
X59000Y370000D02*
X58890Y372528D01*
X58559Y375036D01*
X58012Y377506D01*
X57251Y379919D01*
X56283Y382256D01*
X55115Y384500D01*
X53755Y386634D01*
X52215Y388641D01*
X50506Y390506D01*
X48641Y392215D01*
X46634Y393755D01*
X44500Y395115D01*
X42256Y396283D01*
X39919Y397251D01*
X37506Y398012D01*
X35036Y398559D01*
X32527Y398890D01*
X30000Y399000D01*
X27473Y398890D01*
X24964Y398559D01*
X22494Y398012D01*
X20081Y397251D01*
X17744Y396283D01*
X15500Y395115D01*
X13366Y393755D01*
X11359Y392215D01*
X9494Y390506D01*
X7785Y388641D01*
X6245Y386634D01*
X4885Y384500D01*
X3717Y382256D01*
X2749Y379919D01*
X1988Y377506D01*
X1441Y375036D01*
X1110Y372528D01*
X1000Y370000D01*
X1110Y367472D01*
X1441Y364964D01*
X1988Y362494D01*
X2749Y360081D01*
X3717Y357744D01*
X4885Y355500D01*
X6245Y353366D01*
X7785Y351359D01*
X9494Y349494D01*
X11359Y347785D01*
X13366Y346245D01*
X15500Y344885D01*
X17744Y343717D01*
X20081Y342749D01*
X22494Y341988D01*
X24964Y341441D01*
X27473Y341110D01*
X30000Y341000D01*
X32527Y341110D01*
X35036Y341441D01*
X37506Y341988D01*
X39919Y342749D01*
X42256Y343717D01*
X44500Y344885D01*
X46634Y346245D01*
X48641Y347785D01*
X50506Y349494D01*
X52215Y351359D01*
X53755Y353366D01*
X55115Y355500D01*
X56283Y357744D01*
X57251Y360081D01*
X58012Y362494D01*
X58559Y364964D01*
X58890Y367472D01*
X59000Y370000D01*
Y30000D02*
X58890Y32527D01*
X58559Y35036D01*
X58012Y37506D01*
X57251Y39919D01*
X56283Y42256D01*
X55115Y44500D01*
X53755Y46634D01*
X52215Y48641D01*
X50506Y50506D01*
X48641Y52215D01*
X46634Y53755D01*
X44500Y55115D01*
X42256Y56283D01*
X39919Y57251D01*
X37506Y58012D01*
X35036Y58559D01*
X32527Y58890D01*
X30000Y59000D01*
X27473Y58890D01*
X24964Y58559D01*
X22494Y58012D01*
X20081Y57251D01*
X17744Y56283D01*
X15500Y55115D01*
X13366Y53755D01*
X11359Y52215D01*
X9494Y50506D01*
X7785Y48641D01*
X6245Y46634D01*
X4885Y44500D01*
X3717Y42256D01*
X2749Y39919D01*
X1988Y37506D01*
X1441Y35036D01*
X1110Y32527D01*
X1000Y30000D01*
X1110Y27473D01*
X1441Y24964D01*
X1988Y22494D01*
X2749Y20081D01*
X3717Y17744D01*
X4885Y15500D01*
X6245Y13366D01*
X7785Y11359D01*
X9494Y9494D01*
X11359Y7785D01*
X13366Y6245D01*
X15500Y4885D01*
X17744Y3717D01*
X20081Y2749D01*
X22494Y1988D01*
X24964Y1441D01*
X27473Y1110D01*
X30000Y1000D01*
X32527Y1110D01*
X35036Y1441D01*
X37506Y1988D01*
X39919Y2749D01*
X42256Y3717D01*
X44500Y4885D01*
X46634Y6245D01*
X48641Y7785D01*
X50506Y9494D01*
X52215Y11359D01*
X53755Y13366D01*
X55115Y15500D01*
X56283Y17744D01*
X57251Y20081D01*
X58012Y22494D01*
X58559Y24964D01*
X58890Y27473D01*
X59000Y30000D01*
X80000Y20000D02*
X79686Y22487D01*
X78763Y24818D01*
X77290Y26846D01*
X75358Y28443D01*
X73090Y29511D01*
X70628Y29980D01*
X68126Y29823D01*
X65742Y29048D01*
X63626Y27705D01*
X61910Y25878D01*
X60702Y23681D01*
X60079Y21253D01*
Y18747D01*
X60702Y16319D01*
X61910Y14122D01*
X63626Y12295D01*
X65742Y10952D01*
X68126Y10177D01*
X70628Y10020D01*
X73090Y10489D01*
X75358Y11557D01*
X77290Y13154D01*
X78763Y15182D01*
X79686Y17513D01*
X80000Y20000D01*
X30000Y320000D02*
X29686Y322487D01*
X28763Y324818D01*
X27290Y326846D01*
X25358Y328443D01*
X23090Y329511D01*
X20628Y329980D01*
X18126Y329823D01*
X15742Y329048D01*
X13626Y327705D01*
X11910Y325878D01*
X10702Y323681D01*
X10079Y321253D01*
Y318747D01*
X10702Y316319D01*
X11910Y314122D01*
X13626Y312295D01*
X15742Y310952D01*
X18126Y310177D01*
X20628Y310020D01*
X23090Y310489D01*
X25358Y311557D01*
X27290Y313155D01*
X28763Y315182D01*
X29686Y317513D01*
X30000Y320000D01*
X590000Y330000D02*
X589686Y332487D01*
X588763Y334818D01*
X587290Y336846D01*
X585358Y338443D01*
X583090Y339511D01*
X580628Y339980D01*
X578126Y339823D01*
X575742Y339048D01*
X573626Y337705D01*
X571910Y335878D01*
X570702Y333681D01*
X570079Y331253D01*
Y328747D01*
X570702Y326319D01*
X571910Y324122D01*
X573626Y322295D01*
X575742Y320952D01*
X578126Y320177D01*
X580628Y320020D01*
X583090Y320489D01*
X585358Y321557D01*
X587290Y323154D01*
X588763Y325182D01*
X589686Y327513D01*
X590000Y330000D01*
X147156Y182429D02*
Y188429D01*
X144156Y185429D02*
X150156D01*
X141156Y174929D02*
Y195929D01*
X153156Y174929D02*
Y195929D01*
X141156D02*
X153156D01*
X141156Y174929D02*
X153156D01*
X274767Y32774D02*
Y42774D01*
X269767Y37774D02*
X279767D01*
X252730Y32846D02*
Y42846D01*
X247730Y37846D02*
X257730D01*
X4000Y191000D02*
X72000D01*
X4000Y259000D02*
X72000D01*
Y191000D02*
Y259000D01*
X4000Y191000D02*
Y259000D01*
X38000Y225000D02*
X49000D01*
X38000Y214000D02*
Y225000D01*
X27000D02*
X38000D01*
Y236000D01*
X114000Y387000D02*
X182000D01*
X114000Y319000D02*
X182000D01*
X114000D02*
Y387000D01*
X182000Y319000D02*
Y387000D01*
X137000Y353000D02*
X148000D01*
Y364000D01*
Y353000D02*
X159000D01*
X148000Y342000D02*
Y353000D01*
X182000Y387000D02*
X250000D01*
X182000Y319000D02*
X250000D01*
X182000D02*
Y387000D01*
X250000Y319000D02*
Y387000D01*
X205000Y353000D02*
X216000D01*
Y364000D01*
Y353000D02*
X227000D01*
X216000Y342000D02*
Y353000D01*
X122501Y176249D02*
X130501D01*
X122501D02*
Y184247D01*
Y168249D02*
Y176249D01*
X114503D02*
X122501D01*
X111501Y165249D02*
X133501D01*
Y187249D01*
X111501D02*
X133501D01*
X111501Y165249D02*
Y187249D01*
X105000Y144000D02*
X137000D01*
Y92000D02*
Y144000D01*
X105000Y92000D02*
X137000D01*
X105000D02*
Y144000D01*
X121000Y118000D02*
Y126000D01*
Y110000D02*
Y118000D01*
X113000D02*
X121000D01*
X129000D01*
X113450Y66254D02*
X125950D01*
X113450Y83643D02*
X125950D01*
X113450Y66254D02*
Y83643D01*
X125950Y66254D02*
Y83643D01*
X114700Y74850D02*
X124700D01*
X119700Y69850D02*
Y79850D01*
X72000Y183250D02*
Y188750D01*
X69250Y186000D02*
X74750D01*
X81500Y181000D02*
Y191000D01*
X62500Y181000D02*
Y191000D01*
X81500D01*
X62500Y181000D02*
X81500D01*
X72000Y172250D02*
Y177750D01*
X69250Y175000D02*
X74750D01*
X81500Y170000D02*
Y180000D01*
X62500Y170000D02*
Y180000D01*
X81500D01*
X62500Y170000D02*
X81500D01*
X96000Y182250D02*
Y187750D01*
X93250Y185000D02*
X98750D01*
X86500Y180000D02*
Y190000D01*
X105500Y180000D02*
Y190000D01*
X86500Y180000D02*
X105500D01*
X86500Y190000D02*
X105500D01*
X96000Y166250D02*
Y171750D01*
X93250Y169000D02*
X98750D01*
X86500Y164000D02*
Y174000D01*
X105500Y164000D02*
Y174000D01*
X86500Y164000D02*
X105500D01*
X86500Y174000D02*
X105500D01*
X133250Y199000D02*
X138750D01*
X136000Y196250D02*
Y201750D01*
X131000Y208500D02*
X141000D01*
X131000Y189500D02*
X141000D01*
X131000D02*
Y208500D01*
X141000Y189500D02*
Y208500D01*
X123250Y199000D02*
X128750D01*
X126000Y196250D02*
Y201750D01*
X121000Y208500D02*
X131000D01*
X121000Y189500D02*
X131000D01*
X121000D02*
Y208500D01*
X131000Y189500D02*
Y208500D01*
X139501Y150499D02*
Y155999D01*
X136751Y153249D02*
X142251D01*
X130001Y148249D02*
Y158249D01*
X149001Y148249D02*
Y158249D01*
X130001Y148249D02*
X149001D01*
X130001Y158249D02*
X149001D01*
X148000Y136250D02*
Y141750D01*
X145250Y139000D02*
X150750D01*
X138500Y134000D02*
Y144000D01*
X157500Y134000D02*
Y144000D01*
X138500Y134000D02*
X157500D01*
X138500Y144000D02*
X157500D01*
X152250Y166000D02*
X157750D01*
X155000Y163250D02*
Y168750D01*
X150000Y156500D02*
X160000D01*
X150000Y175500D02*
X160000D01*
Y156500D02*
Y175500D01*
X150000Y156500D02*
Y175500D01*
X112751Y201499D02*
X118251D01*
X115501Y198749D02*
Y204249D01*
X110501Y191999D02*
X120501D01*
X110501Y210999D02*
X120501D01*
Y191999D02*
Y210999D01*
X110501Y191999D02*
Y210999D01*
X102751Y201499D02*
X108251D01*
X105501Y198749D02*
Y204249D01*
X100501Y191999D02*
X110501D01*
X100501Y210999D02*
X110501D01*
Y191999D02*
Y210999D01*
X100501Y191999D02*
Y210999D01*
X175826Y30712D02*
Y60712D01*
X190826Y30712D02*
Y60712D01*
X175826D02*
X190826D01*
X175826Y30712D02*
X190826D01*
X183326Y40962D02*
Y50462D01*
X178576Y45712D02*
X188076D01*
X207826Y30712D02*
Y60712D01*
X222826Y30712D02*
Y60712D01*
X207826D02*
X222826D01*
X207826Y30712D02*
X222826D01*
X215326Y40962D02*
Y50462D01*
X210576Y45712D02*
X220076D01*
X231566Y43680D02*
X237066D01*
X234316Y40930D02*
Y46430D01*
X229316Y53180D02*
X239316D01*
X229316Y34180D02*
X239316D01*
X229316D02*
Y53180D01*
X239316Y34180D02*
Y53180D01*
X65000Y20000D02*
X75000D01*
X70000Y15000D02*
Y25000D01*
X91501Y96249D02*
Y102249D01*
X103501Y96249D02*
Y102249D01*
X91501Y96249D02*
X103501D01*
X91501Y102249D02*
X103501D01*
X95851Y99249D02*
X99151D01*
X97501Y97599D02*
Y100899D01*
X91501Y102249D02*
Y108249D01*
X103501Y102249D02*
Y108249D01*
X91501Y102249D02*
X103501D01*
X91501Y108249D02*
X103501D01*
X95851Y105249D02*
X99151D01*
X97501Y103599D02*
Y106899D01*
X91501Y116249D02*
Y122249D01*
X103501Y116249D02*
Y122249D01*
X91501Y116249D02*
X103501D01*
X91501Y122249D02*
X103501D01*
X95851Y119249D02*
X99151D01*
X97501Y117599D02*
Y120899D01*
X91501Y122249D02*
Y128249D01*
X103501Y122249D02*
Y128249D01*
X91501Y122249D02*
X103501D01*
X91501Y128249D02*
X103501D01*
X95851Y125249D02*
X99151D01*
X97501Y123599D02*
Y126899D01*
X25194Y175768D02*
X31194D01*
X28194Y172768D02*
Y178768D01*
X17694Y181768D02*
X38694D01*
X17694Y169768D02*
X38694D01*
Y181768D01*
X17694Y169768D02*
Y181768D01*
X109501Y154249D02*
X115501D01*
X112501Y151249D02*
Y157249D01*
X102001Y148249D02*
X123001D01*
X102001Y160249D02*
X123001D01*
X102001Y148249D02*
Y160249D01*
X123001Y148249D02*
Y160249D01*
X149836Y113538D02*
X155836D01*
X152836Y110538D02*
Y116538D01*
X142336Y107538D02*
X163336D01*
X142336Y119538D02*
X163336D01*
X142336Y107538D02*
Y119538D01*
X163336Y107538D02*
Y119538D01*
X167000Y163000D02*
Y169000D01*
X164000Y166000D02*
X170000D01*
X161000Y155500D02*
Y176500D01*
X173000Y155500D02*
Y176500D01*
X161000D02*
X173000D01*
X161000Y155500D02*
X173000D01*
X207500Y183000D02*
Y213000D01*
X192500Y183000D02*
Y213000D01*
Y183000D02*
X207500D01*
X192500Y213000D02*
X207500D01*
X200000Y193250D02*
Y202750D01*
X195250Y198000D02*
X204750D01*
X103700Y72900D02*
Y78900D01*
X100700Y75900D02*
X106700D01*
X97700Y65400D02*
Y86400D01*
X109700Y65400D02*
Y86400D01*
X97700D02*
X109700D01*
X97700Y65400D02*
X109700D01*
X142500Y60000D02*
Y90000D01*
X127500Y60000D02*
Y90000D01*
Y60000D02*
X142500D01*
X127500Y90000D02*
X142500D01*
X135000Y70250D02*
Y79750D01*
X130250Y75000D02*
X139750D01*
X146250Y240000D02*
X155750D01*
X151000Y235250D02*
Y244750D01*
X143500Y255000D02*
X158500D01*
X143500Y225000D02*
X158500D01*
X143500D02*
Y255000D01*
X158500Y225000D02*
Y255000D01*
X20000Y315000D02*
Y325000D01*
X15000Y320000D02*
X25000D01*
X580000Y325000D02*
Y335000D01*
X575000Y330000D02*
X585000D01*
X78000Y349250D02*
Y358750D01*
X73250Y354000D02*
X82750D01*
X63000Y346500D02*
Y361500D01*
X93000Y346500D02*
Y361500D01*
X63000Y346500D02*
X93000D01*
X63000Y361500D02*
X93000D01*
M02*
