G04*
G04 #@! TF.GenerationSoftware,Altium Limited,Altium Designer,21.2.2 (38)*
G04*
G04 Layer_Color=128*
%FSLAX44Y44*%
%MOMM*%
G71*
G04*
G04 #@! TF.SameCoordinates,0C7DD45D-D1DC-410A-9663-C9F4106EF834*
G04*
G04*
G04 #@! TF.FilePolarity,Positive*
G04*
G01*
G75*
%ADD18R,0.5500X0.6500*%
%ADD76R,0.6200X0.6200*%
%ADD77R,2.4000X0.7600*%
G04:AMPARAMS|DCode=78|XSize=0.2mm|YSize=0.5mm|CornerRadius=0.05mm|HoleSize=0mm|Usage=FLASHONLY|Rotation=0.000|XOffset=0mm|YOffset=0mm|HoleType=Round|Shape=RoundedRectangle|*
%AMROUNDEDRECTD78*
21,1,0.2000,0.4000,0,0,0.0*
21,1,0.1000,0.5000,0,0,0.0*
1,1,0.1000,0.0500,-0.2000*
1,1,0.1000,-0.0500,-0.2000*
1,1,0.1000,-0.0500,0.2000*
1,1,0.1000,0.0500,0.2000*
%
%ADD78ROUNDEDRECTD78*%
G04:AMPARAMS|DCode=79|XSize=0.2mm|YSize=0.7mm|CornerRadius=0.05mm|HoleSize=0mm|Usage=FLASHONLY|Rotation=90.000|XOffset=0mm|YOffset=0mm|HoleType=Round|Shape=RoundedRectangle|*
%AMROUNDEDRECTD79*
21,1,0.2000,0.6000,0,0,90.0*
21,1,0.1000,0.7000,0,0,90.0*
1,1,0.1000,0.3000,0.0500*
1,1,0.1000,0.3000,-0.0500*
1,1,0.1000,-0.3000,-0.0500*
1,1,0.1000,-0.3000,0.0500*
%
%ADD79ROUNDEDRECTD79*%
G04:AMPARAMS|DCode=80|XSize=0.25mm|YSize=0.6mm|CornerRadius=0.025mm|HoleSize=0mm|Usage=FLASHONLY|Rotation=90.000|XOffset=0mm|YOffset=0mm|HoleType=Round|Shape=RoundedRectangle|*
%AMROUNDEDRECTD80*
21,1,0.2500,0.5500,0,0,90.0*
21,1,0.2000,0.6000,0,0,90.0*
1,1,0.0500,0.2750,0.1000*
1,1,0.0500,0.2750,-0.1000*
1,1,0.0500,-0.2750,-0.1000*
1,1,0.0500,-0.2750,0.1000*
%
%ADD80ROUNDEDRECTD80*%
G04:AMPARAMS|DCode=81|XSize=0.25mm|YSize=0.6mm|CornerRadius=0.025mm|HoleSize=0mm|Usage=FLASHONLY|Rotation=180.000|XOffset=0mm|YOffset=0mm|HoleType=Round|Shape=RoundedRectangle|*
%AMROUNDEDRECTD81*
21,1,0.2500,0.5500,0,0,180.0*
21,1,0.2000,0.6000,0,0,180.0*
1,1,0.0500,-0.1000,0.2750*
1,1,0.0500,0.1000,0.2750*
1,1,0.0500,0.1000,-0.2750*
1,1,0.0500,-0.1000,-0.2750*
%
%ADD81ROUNDEDRECTD81*%
%ADD83R,0.1500X0.1500*%
%ADD84R,0.1500X0.1500*%
%ADD85P,0.6788X4X90.0*%
%ADD86R,0.6500X0.5500*%
%ADD87R,1.0000X0.9000*%
%ADD88R,0.3600X0.3200*%
%ADD89R,0.6200X0.6200*%
%ADD90R,0.9000X1.0000*%
G36*
X125567Y131848D02*
X125848Y131567D01*
X126000Y131199D01*
Y131000D01*
Y120000D01*
Y119801D01*
X125848Y119434D01*
X125567Y119152D01*
X125199Y119000D01*
X116801D01*
X116434Y119152D01*
X116152Y119434D01*
X116000Y119801D01*
Y120000D01*
Y131000D01*
Y131199D01*
X116152Y131567D01*
X116434Y131848D01*
X116801Y132000D01*
X125199D01*
X125567Y131848D01*
D02*
G37*
G36*
Y116848D02*
X125848Y116567D01*
X126000Y116199D01*
Y116000D01*
Y105000D01*
Y104801D01*
X125848Y104434D01*
X125567Y104152D01*
X125199Y104000D01*
X116801D01*
X116434Y104152D01*
X116152Y104434D01*
X116000Y104801D01*
Y105000D01*
Y116000D01*
Y116199D01*
X116152Y116567D01*
X116434Y116848D01*
X116801Y117000D01*
X125199D01*
X125567Y116848D01*
D02*
G37*
G36*
X124000Y77400D02*
X123700D01*
X121900Y79200D01*
Y81000D01*
X124000D01*
Y77400D01*
D02*
G37*
G36*
X117500Y79200D02*
X115700Y77400D01*
X115400D01*
Y81000D01*
X117500D01*
Y79200D01*
D02*
G37*
G36*
X124000Y68800D02*
X121900D01*
Y70600D01*
X123700Y72400D01*
X124000D01*
Y68800D01*
D02*
G37*
G36*
X117500Y70600D02*
Y68800D01*
X115400D01*
Y72400D01*
X115700D01*
X117500Y70600D01*
D02*
G37*
D18*
X67000Y186000D02*
D03*
X77000D02*
D03*
X67000Y175000D02*
D03*
X77000D02*
D03*
X101000Y185000D02*
D03*
X91000D02*
D03*
X101000Y169000D02*
D03*
X91000D02*
D03*
X144501Y153249D02*
D03*
X134501D02*
D03*
X153000Y139000D02*
D03*
X143000D02*
D03*
D76*
X147156Y180929D02*
D03*
Y189929D02*
D03*
X167000Y161500D02*
D03*
Y170500D02*
D03*
X103700Y71400D02*
D03*
Y80400D02*
D03*
D77*
X57500Y250400D02*
D03*
Y237700D02*
D03*
Y225000D02*
D03*
Y212300D02*
D03*
Y199600D02*
D03*
X18500Y250400D02*
D03*
Y237700D02*
D03*
Y225000D02*
D03*
Y212300D02*
D03*
Y199600D02*
D03*
X128500Y327600D02*
D03*
Y340300D02*
D03*
Y353000D02*
D03*
Y365700D02*
D03*
Y378400D02*
D03*
X167500Y327600D02*
D03*
Y340300D02*
D03*
Y353000D02*
D03*
Y365700D02*
D03*
Y378400D02*
D03*
X196500Y327600D02*
D03*
Y340300D02*
D03*
Y353000D02*
D03*
Y365700D02*
D03*
Y378400D02*
D03*
X235500Y327600D02*
D03*
Y340300D02*
D03*
Y353000D02*
D03*
Y365700D02*
D03*
Y378400D02*
D03*
D78*
X116502Y168748D02*
D03*
X120502D02*
D03*
X124502D02*
D03*
X128502D02*
D03*
Y183748D02*
D03*
X124502D02*
D03*
X120502D02*
D03*
X116502D02*
D03*
D79*
X129002Y174249D02*
D03*
Y178249D02*
D03*
X116002D02*
D03*
Y174249D02*
D03*
D80*
X109500Y130500D02*
D03*
Y135500D02*
D03*
Y110500D02*
D03*
Y115500D02*
D03*
Y120500D02*
D03*
Y125500D02*
D03*
Y100500D02*
D03*
Y105500D02*
D03*
X132500Y100500D02*
D03*
Y115500D02*
D03*
Y120500D02*
D03*
Y135500D02*
D03*
Y110500D02*
D03*
Y105500D02*
D03*
Y130500D02*
D03*
Y125500D02*
D03*
D81*
X123500Y139500D02*
D03*
X118500D02*
D03*
Y96500D02*
D03*
X123500D02*
D03*
D83*
X123000Y80000D02*
D03*
D84*
X116400D02*
D03*
X123000Y69800D02*
D03*
X116400D02*
D03*
D85*
X119700Y74900D02*
D03*
D86*
X136000Y194000D02*
D03*
Y204000D02*
D03*
X126000Y194000D02*
D03*
Y204000D02*
D03*
X155000Y171000D02*
D03*
Y161000D02*
D03*
X115501Y206499D02*
D03*
Y196499D02*
D03*
X105501Y206499D02*
D03*
Y196499D02*
D03*
X234316Y38680D02*
D03*
Y48680D02*
D03*
D87*
X183326Y37712D02*
D03*
Y53712D02*
D03*
X215326Y37712D02*
D03*
Y53712D02*
D03*
X200000Y206000D02*
D03*
Y190000D02*
D03*
X135000Y83000D02*
D03*
Y67000D02*
D03*
X151000Y232000D02*
D03*
Y248000D02*
D03*
D88*
X100301Y99249D02*
D03*
X94701D02*
D03*
X100301Y105249D02*
D03*
X94701D02*
D03*
X100301Y119249D02*
D03*
X94701D02*
D03*
X100301Y125249D02*
D03*
X94701D02*
D03*
D89*
X23694Y175768D02*
D03*
X32694D02*
D03*
X117001Y154249D02*
D03*
X108001D02*
D03*
X157336Y113538D02*
D03*
X148336D02*
D03*
D90*
X86000Y354000D02*
D03*
X70000D02*
D03*
M02*
