M48
;Layer_Color=9474304
;FILE_FORMAT=4:4
METRIC
;TYPE=PLATED
T1F00S00C0.2032
T2F00S00C0.2540
T3F00S00C0.3000
T6F00S00C0.8000
T7F00S00C0.9000
T8F00S00C1.0200
T9F00S00C1.7000
T10F00S00C2.7500
T11F00S00C3.0000
T12F00S00C3.2000
%
T01
X00297730Y00079750
X00297730Y00089750
X00307730Y00089750
X00307730Y00079750
X00170500Y00462750
X00160500
Y00472750
X00170500
T02
X00020000Y00020000
X00092309Y00064181
X00098594Y00063976
X00099109Y00070363
X00092052Y00070621
X00123943Y00073294
X00132304Y00070711
X00122855Y00098175
X00112522Y00099602
X00100000Y00120000
X00165000Y00107758
X00165962Y00099750
X00160976Y00084660
X00155973Y00088907
X00204000Y00047000
X00210000Y00020000
X00190000
X00230000
X00250000
X00270000
X00290000
X00310000
X00330000
X00350000
X00356774Y00032008
X00370732Y00032250
X00373480Y00019317
X00395000Y00020000
X00415000
X00435000
X00439184Y00032250
X00450000Y00050000
Y00090000
Y00110000
X00430000Y00115000
Y00095000
Y00075000
X00491750Y00069250
X00538991Y00062730
X00539542Y00053568
X00538539Y00037035
X00538585Y00027915
X00540000Y00010000
X00570000
X00600000
X00510000
X00480000
X00539470Y00076637
Y00088664
X00539222Y00103968
X00539470Y00113264
X00373480Y00116167
X00360164Y00094121
X00367750Y00082250
X00366380Y00057108
X00333763Y00052989
X00339815Y00069909
X00330658Y00077252
X00333250Y00092500
X00328480Y00099142
X00314458Y00111150
X00303241Y00116920
X00295278Y00114331
X00277810Y00112293
X00275130Y00120798
X00272313Y00093375
X00273500Y00085000
X00275000Y00050000
X00288458Y00058900
X00295250Y00055603
X00302574Y00050085
X00309500Y00056000
X00316447Y00059000
X00235000Y00050000
X00219105Y00054771
Y00061358
X00229489Y00092788
X00610131Y00032250
X00630000Y00010000
X00660000
X00690000
X00720000
X00750000
X00780000
X00810000
X00803220Y00021892
X00802255Y00030593
X00784024Y00040112
X00756750Y00053500
X00756000Y00063000
X00763597Y00113466
X00745000Y00120000
X00735000
X00725000
X00715000
X00705000
X00652750Y00113250
X00793889Y00112104
X00795067Y00118344
X00825258Y00111185
X00830008Y00115006
X00824758Y00079358
X00834817Y00077939
X00852981Y00076847
X00869182Y00077066
Y00083034
X00869230Y00089585
Y00070484
X00887780Y00059756
X00892932Y00064627
X00897152Y00068847
X00901263Y00074615
X00905779Y00079779
X00910000Y00084000
X00915551Y00087994
X00921029Y00083721
X00925250Y00079500
X00930056Y00074452
X00911982Y00061005
X00907249Y00056053
X00913847Y00040000
X00923154Y00039510
X00916059Y00023988
X00907314Y00018438
X00923212Y00009327
X00937240Y00015422
X00934149Y00021415
X00940337Y00021446
X00950000Y00010000
X00980000
X01003750Y00044844
X00999258Y00069316
X00999791Y00080563
X00979773Y00085784
X00947422Y00056994
X00944525Y00120766
X00870250Y00120250
X00845500Y00053000
X00845321Y00031532
X00833000Y00034000
X00840000Y00010000
X00858716Y00006510
X00816000Y00053000
X01042191Y00053208
X01047668Y00032122
X01058000Y00028000
X01068457Y00029584
X01080000Y00010000
X01050000
X01014291Y00010600
X01019500Y00077750
X01051500Y00076000
X01077000Y00080000
X01119000Y00092000
X01139750Y00055817
X01139711Y00042788
X01140000Y00010000
X01170000
X01200000
X01230000
X01240000Y00030000
Y00060000
Y00100000
Y00120000
X01220000Y00090000
X01194000Y00095000
X01110000Y00010000
X01117512Y00155511
X01126000Y00168000
Y00189000
X01140934Y00179066
X01141000Y00159000
X01156000Y00167000
Y00188000
X01172900Y00179568
X01191000Y00187000
X01207251Y00178045
X01225000Y00188000
X01240284Y00181109
X01240000Y00200000
X01226000Y00165000
X01240000Y00150000
X01199302Y00141000
X01182751Y00133697
X01170612Y00133560
X01176362Y00126258
X01189323Y00126760
X01080915Y00147556
X01081657Y00162260
X01082000Y00180000
X01098000Y00188000
Y00169000
X01063000
X01064000Y00187000
X01046583Y00193140
X01037166Y00179358
X01030500Y00163500
X01048651Y00143605
X01009000Y00134000
X01044750Y00222750
X01047250Y00252750
X01037194Y00274695
X01062000Y00274758
X01065500Y00315847
X01061349Y00335072
X01040618Y00335613
X01047407Y00354246
X01028750Y00368750
X01029250Y00376750
X01025000Y00392500
X01029279Y00414500
X01036586Y00455128
X01035413Y00471357
X01035500Y00484000
X01047571Y00497514
X01093079Y00495839
X01109773Y00508302
X01122000Y00494000
X01119380Y00483878
X01108528Y00477180
X01128000Y00462000
X01115944Y00445483
X01086178Y00433691
X01093750Y00415000
X01097750Y00394750
X01072563Y00420631
X01078750Y00459750
X01060750Y00459500
X01025913Y00462836
X01010148Y00475543
X01011500Y00368000
X01047432Y00308757
X01169250Y00395000
X01186255Y00406133
X01195470
X01196844Y00435000
X01183000Y00465000
X01216395Y00470113
X01216035Y00497183
X01240000Y00510000
Y00480000
Y00450000
Y00420000
X01226000Y00411500
X01241925Y00394889
X01155421Y00448422
X01155750Y00495750
X01166751Y00504523
X01173250Y00498529
X01183000Y00517000
X01003000Y00487500
X00993250Y00496757
X00976101Y00511935
X00984076Y00433121
X00984659Y00425332
X00988880Y00421112
X00993804Y00415474
X00969313Y00421829
X00963353Y00426561
X00957384
X00949766Y00425716
X00943047Y00431003
X00936099Y00431255
X00931237Y00436540
X00940696Y00437939
X00939525Y00445552
X00939152Y00453698
X00900750Y00473500
X00874750Y00500000
X00844500Y00486000
X00831827Y00454173
X00861172
Y00424828
X00831827
X00908600Y00422898
X00903000Y00416330
Y00404330
Y00392330
Y00380330
Y00368330
Y00360330
X00948000Y00360182
Y00368330
X00948493Y00380500
Y00392500
Y00404500
X00964017Y00392699
X00971631Y00392804
X00975852Y00388584
X00983404Y00389562
X00997683Y00367436
X01003715Y00373467
X00989011Y00347425
X00955475Y00318587
X00966500Y00307000
X00957359Y00284250
X00951390
X00947968Y00290544
X00948000Y00268670
Y00256670
X00964475Y00264482
X00960255Y00268702
X00959750Y00275500
X00972000Y00266000
X00981108Y00252836
X00977500Y00246000
Y00240031
X00970093Y00236481
X00961750Y00233250
Y00227281
X00961746Y00219841
X00931825Y00216944
X00932000Y00223515
Y00229485
X00932000Y00236376
X00933800Y00244330
X00923548Y00258367
X00919484Y00264173
X00900922Y00265569
X00899508Y00276013
X00893824Y00272215
X00890799Y00283981
X00902198Y00306061
X00923000Y00291500
X00933800Y00280330
X00929662Y00321814
X00854846Y00289332
X00827358Y00290142
X00833196Y00278078
X00839750Y00266250
X00800500Y00265250
X00780000Y00284750
X00726000Y00292750
X00703250Y00288500
X00703539Y00255870
X00710500Y00252360
Y00246391
X00703795Y00242462
X00717205
X00725500Y00238629
Y00232661
X00732205Y00228731
X00732461Y00242139
X00717461Y00255870
X00684205Y00255962
X00677500Y00259891
Y00265860
X00684461Y00269370
X00668738Y00269041
X00660500Y00272612
Y00278581
X00653539Y00282091
X00653371Y00269071
X00668546Y00282147
X00669004Y00256090
X00652747Y00224168
X00619173Y00212173
Y00182827
X00675000Y00171000
X00691536Y00183966
X00685350Y00204500
X00698100
X00711250
X00723600
X00736350
X00749009
X00757500Y00198250
X00762600Y00171500
X00748814Y00142675
X00736089Y00143000
X00723450Y00143094
X00710750Y00143114
X00698051Y00143000
X00685361Y00143011
X00659378Y00146180
X00705000Y00130000
X00715000
X00725000
X00735000
X00745000
X00763000Y00122750
X00793405Y00128378
X00815000Y00133000
X00845250Y00140500
X00870000Y00135000
X00877997Y00144311
X00896000Y00142000
X00917030Y00142429
X00923711Y00142443
X00929680
X00936419Y00142603
X00980327Y00141325
X00977500Y00132500
Y00125306
X01004258Y00157777
X00907250Y00122750
X00899250
X00891250
X00878750Y00213000
X00882500Y00226250
X00895500Y00232500
X00890750Y00247500
X00880738Y00247537
X00869100Y00239967
X00859750Y00233000
X00851750Y00213750
X00827500Y00237000
X00799000Y00156750
X00723000Y00355000
X00725000Y00394500
X00733750Y00422250
X00665901Y00417793
X00666030Y00410110
Y00404141
X00666048Y00396689
X00683750Y00394750
X00677000Y00358250
X00643000Y00376000
X00639476Y00394231
X00639500Y00401891
Y00407860
X00632157Y00409304
X00633750Y00416899
X00629529Y00421120
X00626000Y00428000
X00641643Y00415661
X00619250Y00400750
X00638500Y00287750
X00755000Y00511250
X00795000Y00472250
X00538554Y00467905
X00538600Y00460266
Y00454297
X00533986Y00449070
X00529851Y00443484
Y00437515
X00523000Y00440750
X00508724Y00441208
X00503712Y00436212
X00499491Y00431991
X00494875Y00426797
X00509500Y00408000
X00514470Y00402530
X00518691Y00398309
X00523500Y00393000
X00552877Y00380614
X00555392Y00374326
X00562000Y00369345
X00556516Y00362005
X00556556Y00354164
X00547927Y00347844
X00549576Y00335486
X00554482Y00330832
X00532333Y00324559
Y00308559
X00549000Y00289118
X00557631Y00289760
X00562016Y00284027
X00553125Y00282750
X00583250Y00293750
X00605000Y00288750
X00597750Y00314000
X00581000Y00350500
X00579204Y00379035
X00583826Y00396593
X00581961Y00420085
X00556305Y00422500
X00556333Y00415145
Y00409176
X00556500Y00402500
X00519675Y00352341
X00511714Y00325748
X00470894Y00324178
X00459917Y00330742
X00459996Y00351207
X00470952Y00373982
X00471661Y00388435
X00463258Y00390724
X00462481Y00382508
X00468282Y00398434
X00459967Y00407599
X00467194Y00420743
X00460205Y00432771
X00440961Y00451869
X00435395Y00463911
X00411686Y00468947
X00396500Y00490000
X00373200Y00491253
X00365356Y00490715
X00341500Y00493000
X00330707Y00463191
X00332809Y00434195
X00322364Y00433912
X00307500Y00435000
X00316551Y00418132
X00329209Y00409616
X00330000Y00390000
Y00370000
Y00350000
Y00330000
X00318398Y00330861
X00304154Y00346568
X00304755Y00359415
X00303833Y00378835
X00304154Y00394568
X00305754Y00406024
X00350000Y00401040
Y00380000
Y00360000
Y00340000
X00370000Y00350000
Y00330000
X00368072Y00306647
X00375803Y00306724
X00361446Y00304003
X00354942Y00306708
X00343248Y00305305
X00331100Y00305035
X00324675Y00305610
X00313750Y00305500
X00303685Y00314252
X00300935Y00288420
X00287500Y00290000
X00272076Y00275730
X00287670Y00255742
X00300943Y00264833
X00320050Y00261304
X00347792Y00255731
X00353959Y00255602
X00369500Y00269750
X00378955Y00269592
X00395504Y00305415
X00409231Y00306911
X00410150Y00328880
X00410000Y00350000
Y00370000
X00409979Y00390144
X00412323Y00410969
X00434444Y00410825
X00436473Y00382798
X00435000Y00370000
X00433848Y00330774
X00479895Y00336640
X00494500Y00286750
X00453000Y00288000
X00437250Y00222500
X00489250Y00221750
X00500694Y00218027
X00505086Y00224198
X00512966Y00207692
X00493112Y00198331
X00492980Y00170375
X00492761Y00139469
X00448500Y00131750
X00430000Y00135000
X00431094Y00152538
X00441520Y00152986
X00408413Y00156677
X00407486Y00180580
X00376391Y00158979
X00365287Y00156603
X00330755Y00153118
X00321000Y00148750
X00308881Y00145539
X00297480Y00145665
X00284250Y00189750
X00272529Y00209892
X00245785Y00222865
Y00232865
X00246750Y00258000
X00226385Y00270000
X00233895Y00299786
X00226750Y00325000
X00227500Y00357000
X00257839Y00361723
X00272777Y00370553
X00272951Y00381821
X00255900Y00390004
X00239027Y00456493
X00222398Y00445642
X00224750Y00471000
X00258500
X00254527Y00504064
X00237000Y00502500
X00220939Y00508965
X00280500Y00504750
X00288000Y00500750
X00284000Y00514000
X00298871Y00485951
X00288745Y00455104
X00346144Y00434130
X00361285Y00432981
X00371802Y00433893
X00380420Y00433302
X00403782Y00434082
X00410221Y00433623
X00390000Y00400000
Y00380000
Y00360000
X00389353Y00338353
X00369981Y00371269
X00370000Y00390000
Y00410000
X00381558Y00461269
X00368810Y00517348
X00485333Y00469990
X00540250Y00506250
X00540393Y00242561
X00533000Y00242810
X00545000Y00225000
X00552500
X00560000
X00567500
Y00217500
X00560000
X00552500
X00545000
X00589827Y00212173
Y00182827
X00589859Y00136929
X00581250Y00137000
X00599014Y00136826
X00552500Y00162500
X00529323Y00168059
X00570716Y00242990
X00577817Y00242956
X00333000Y00224250
X00335250Y00207500
X00352041Y00189676
X00316250Y00189750
X00251000
X00220000Y00197250
X00220392Y00209608
X00195436Y00213865
X00202865Y00235365
X00209715Y00235512
X00203149Y00270276
X00203514Y00325276
X00191593Y00356177
X00209000Y00371500
X00189250Y00426759
X00189400Y00433457
Y00439426
X00196167Y00443466
X00203195Y00447087
X00207416Y00451307
X00210216Y00457956
X00207750Y00464766
Y00470734
X00207507Y00478293
X00201133Y00482617
X00196912Y00486838
X00196838Y00493993
X00198037Y00474299
X00190477Y00449173
X00173247Y00437544
X00167625Y00409147
X00119430Y00424211
X00112595Y00424252
X00106626
X00099436Y00424443
X00089869Y00414705
X00080733Y00412297
X00072898Y00412750
X00066929
X00058770Y00412433
X00053598Y00405190
X00054000Y00394500
X00056914Y00427164
X00084410Y00428847
X00084250Y00436250
X00084750Y00454000
X00094088Y00468425
X00109982Y00476945
X00123466Y00486571
X00124477Y00501031
X00119442Y00518610
X00086670Y00507518
X00077500Y00507085
X00077653Y00497888
X00086670Y00497499
X00096278Y00494992
X00077500Y00487500
X00053687Y00470618
X00043375Y00468708
X00010000Y00460000
Y00430000
Y00400000
Y00370000
Y00340000
Y00310000
Y00280000
Y00250000
Y00220000
X00048229Y00195419
X00042739Y00186963
X00042495Y00178859
X00044796Y00140376
X00051953Y00137796
X00060348Y00137680
X00066495Y00146665
X00099953Y00140047
X00100000Y00130000
X00085200Y00169500
X00135336Y00169578
X00169048Y00169438
X00164874Y00193140
Y00200126
X00170375Y00196729
X00152500Y00152500
X00160000Y00140000
X00132369Y00459793
X00139323Y00474068
X00139302Y00480164
X00175250Y00513500
X00211429Y00511373
X00029125Y00507875
X00010000Y00490000
Y00520000
Y00550000
Y00580000
Y00610000
X00030000Y00620000
X00060000
X00090000
X00120000
X00150000
X00156567Y00604746
X00162547Y00610068
X00162631Y00597668
X00156567Y00592371
Y00584005
X00165500Y00583750
X00183250Y00585000
X00196212Y00594500
X00191000Y00607250
X00180000Y00620000
X00210000
X00190457Y00532872
X00190858Y00519500
X00146921Y00527103
X00119442Y00525815
X00113879Y00549036
X00100329Y00550708
X00086867Y00537237
X00086875Y00525239
X00057945Y00523869
X00067000Y00539500
X00138000Y00572250
X00253105Y00575129
X00276738Y00575698
X00295318
X00291168Y00556078
X00302166Y00536334
X00296000Y00526500
X00269012Y00520796
X00236197Y00551455
X00218250Y00534000
X00240000Y00620000
X00270000
X00298500Y00620053
X00316317Y00619472
X00330000Y00620000
X00360000
X00367500Y00602250
X00362500Y00593250
X00353545Y00591180
X00357500Y00585500
X00372500
X00387500
X00417500Y00583780
X00432500Y00585500
X00447500
X00462500
X00450000Y00620000
X00420000
X00390000
X00343643Y00588444
X00337210Y00588356
X00335750Y00549500
X00356163Y00521834
X00380244Y00540682
X00390787Y00540047
X00396714Y00534630
X00417213Y00528188
X00447500Y00528175
X00473542Y00522791
X00478091Y00544484
X00505250Y00539750
X00525000Y00537500
X00532500
X00540000Y00540000
X00547500Y00542500
X00571183Y00543836
X00576729Y00522549
X00590308Y00524166
X00587210Y00588356
X00593643Y00588444
X00603962Y00592344
X00607500Y00585500
X00580000Y00620000
X00566317Y00619472
X00540000Y00620000
X00510000
X00483317Y00619472
X00610000Y00620000
X00640000
X00670000
X00700000
X00733317Y00619472
X00760000Y00620000
X00790000
X00816317Y00619472
X00840000Y00620000
X00833768Y00602011
X00847500Y00585500
X00857500
X00861750Y00592750
X00869000Y00593000
X00872500Y00585500
X00887500
X00917500
X00932500
X00947500
X00962500
X00960000Y00620000
X00983317Y00619472
X00930000Y00620000
X00900000
X00870000
X00874750Y00550250
X00842791Y00557144
X00836357Y00557056
X00831926Y00523522
X00900250Y00530000
X00917074Y00528790
X00912250Y00522133
X00917513Y00552446
X00947500Y00554995
X00947599Y00528982
X00975250Y00536000
X00977999Y00522001
X00976750Y00562000
X00792500Y00592500
X00712500Y00585500
X00682500
X00652500
X00622500
X00627500Y00554750
X00637500Y00554277
X00667500Y00554287
X00697500Y00554287
X00723000Y00549750
X00632500Y00526431
X01008000Y00567500
X01048192Y00554900
X01049750Y00532250
X01093196Y00529196
X01119178Y00529250
X01129250Y00525250
X01118299Y00554787
X01125250Y00581000
X01086000Y00585000
Y00593000
X01081758Y00606897
X01070000Y00620000
X01040000
X01041250Y00598250
X01010000Y00620000
X01100000
X01130000
X01180000
X01210000
X01230000Y00610000
X01240000Y00600000
Y00570000
Y00540000
X01208372Y00532681
X01079734Y00567450
T03
X00439649Y00289792
X00445484Y00295164
T06
X00677000Y00036500
Y00071500
X00271230Y00162250
X00246230
T07
X01081100Y00242850
Y00268250
Y00293650
Y00319050
Y00344450
X01106500Y00357150
X01131700
X01144400Y00331750
X01106500
Y00306350
Y00280950
Y00255550
X01131700Y00242850
X01144400Y00268250
X00172493Y00280950
Y00306350
Y00331750
Y00357150
X00147093Y00344450
Y00319050
Y00293650
Y00268250
Y00242850
X00121892
X00109192Y00268250
Y00331750
X00121892Y00357150
X00172493Y00255550
T08
X01210600Y00233700
Y00259100
Y00340900
Y00366300
X00042993
Y00340900
Y00259100
Y00233700
T09
X01139500Y00219355
Y00380645
X00114093
Y00219355
T10
X00050000Y00050000
X01200000
X00050000Y00580000
X01200000
T11
X00846500Y00439500
X00604500Y00197500
T12
X01170000Y00242850
Y00357150
X00083593
Y00242850
M30
