M48
;Layer_Color=9474304
;FILE_FORMAT=4:4
METRIC
;TYPE=PLATED
T1F00S00C0.2032
T2F00S00C0.2540
T3F00S00C0.5000
T5F00S00C0.8600
T6F00S00C2.7500
T7F00S00C3.0000
%
T01
X00014800Y00067800
X00044000Y00065000
X00068400Y00067800
X00084500Y00077650
X00094000Y00083350
Y00092000
X00105275Y00095500
X00112000Y00093000
X00110700Y00074900
X00116400Y00065210
X00118000Y00054814
X00103700Y00065400
X00128700Y00074900
X00144000Y00067000
X00144269Y00088275
Y00094231
X00147828Y00097790
X00154000Y00098000
X00137000Y00092000
X00141355Y00114519
X00138834Y00120500
X00136000Y00141000
X00123445Y00147000
X00109000Y00143000
X00095000Y00132000
X00081812Y00134644
X00078486Y00130048
X00079000Y00139960
Y00145040
X00065342Y00142500
Y00137500
Y00132500
X00064952Y00122500
X00065278Y00112522
X00065342Y00107500
Y00102500
Y00097500
X00065278Y00092202
X00079000Y00094960
Y00100040
X00079248Y00105156
X00072298Y00118702
X00065278Y00147828
X00051562Y00150000
X00034798Y00150000
X00157988Y00137414
X00134000Y00016000
X00073000Y00042774
X00164479Y00063885
X00183326Y00061152
X00206578Y00061978
X00206000Y00069225
X00206000Y00075000
X00199000Y00078000
X00212344Y00092329
Y00097282
X00209188Y00101840
X00209504Y00114159
X00209312Y00125841
X00200884Y00129523
Y00134476
X00201061Y00141513
X00201066Y00146476
X00194564Y00149860
X00194896Y00138000
X00195326Y00126238
X00200233Y00122134
Y00117181
X00193805Y00114317
X00197173Y00110477
Y00105524
X00193631Y00100516
X00224000Y00089000
X00235000Y00079000
X00241000Y00079000
X00245953
X00249000Y00072000
X00234000Y00055000
X00215326Y00061148
X00243874Y00027000
X00247000Y00017000
X00316000Y00021000
X00351135Y00050780
X00357738Y00052129
X00362691
X00367500Y00050000
X00372738Y00053552
X00377691
X00382500Y00049760
X00392553Y00050359
X00417500Y00055448
X00422500Y00049940
X00427738Y00052849
X00432691
X00437048Y00047457
X00413000Y00027000
X00400311Y00025496
X00404000Y00016000
X00402741Y00081578
X00422656Y00078158
X00368625Y00076250
X00362769Y00078216
X00357816
X00350363Y00077043
X00338544Y00070279
X00338761Y00091701
X00344791Y00095050
X00349744
X00355309Y00097015
X00378000Y00099000
X00339545Y00114213
X00333237Y00110294
X00328157Y00110166
X00326147Y00103179
X00322802Y00091701
X00296000Y00111000
X00288708Y00121000
X00270000Y00114000
X00209120Y00138160
X00209182Y00150000
X00173000Y00145000
X00174000Y00133000
X00463000Y00105000
X00512639Y00139996
X00483000Y00017000
X00572018Y00115646
X00573000Y00158000
Y00172000
X00584000Y00206000
X00576280Y00296718
X00548547Y00264524
X00548931Y00257477
Y00252523
X00549404Y00247490
X00547128Y00242477
Y00237523
X00551580Y00232644
X00546305Y00227477
Y00222523
X00549458Y00218223
X00548175Y00212764
Y00207811
X00551580Y00202566
X00547273Y00197477
Y00192523
X00550000Y00187594
X00550277Y00182372
X00544856Y00178041
X00523904Y00186112
X00523071Y00192873
Y00197826
X00528378Y00202280
X00523480Y00207811
Y00212764
X00525481Y00219037
X00540512Y00233057
X00523347Y00248454
X00508798Y00248360
X00494234Y00225165
X00493052Y00216732
X00488099
X00481169Y00215984
X00448317Y00203074
X00448044Y00197826
Y00192873
X00448317Y00187115
X00437000Y00174000
X00415000Y00189892
X00410000Y00197000
X00406317Y00203457
X00424000Y00206000
X00424125Y00214375
X00424000Y00222000
X00432500Y00220000
X00440436Y00221234
X00434086Y00212090
X00401000Y00234000
X00402500Y00240000
X00395000Y00239000
X00400000Y00247000
X00406000Y00257000
X00405000Y00265000
X00385000Y00252000
X00377500Y00250000
X00375683Y00238683
X00373000Y00234000
X00375000Y00217000
X00390000Y00231000
X00359906Y00262791
X00349617Y00281579
X00376102Y00322546
X00382466Y00319526
X00399999Y00324999
X00410000Y00322596
X00402999Y00334999
X00407085Y00342496
X00416306Y00347472
X00422109Y00348992
X00427062
X00432085Y00346514
X00437109Y00344928
X00442062
X00447500Y00346504
X00467360Y00353060
X00469836Y00337756
X00478190Y00325097
X00432035Y00322144
X00432000Y00287000
X00392500Y00340798
X00397510Y00347218
X00382085Y00345925
X00376274Y00345796
X00372062Y00349604
X00367109
X00362500Y00345736
X00357500Y00372854
X00352500Y00372642
X00316556Y00376500
X00314897Y00394843
X00399000Y00383000
X00481004Y00376500
X00523000Y00377000
X00518000Y00279000
X00497093Y00152250
X00340101Y00216888
X00303000Y00217000
X00304660Y00246884
X00291933Y00261926
X00254245Y00261843
X00240000Y00235000
X00233000Y00234000
X00228000Y00240000
X00209544Y00238000
X00204000Y00234000
X00196376
X00200000Y00240000
X00191466Y00244317
X00178244Y00242000
X00178000Y00250000
X00172000Y00252999
X00168656Y00259080
X00168631Y00271037
X00168910Y00282702
X00175418Y00289706
Y00294659
X00172042Y00300584
X00165223Y00322645
X00176412Y00331497
X00181229Y00337155
X00177981Y00347461
X00167562Y00351942
X00189520Y00360203
X00197782Y00366879
X00217589Y00372486
X00198353Y00338368
X00206533Y00297372
X00206831Y00290310
X00205549Y00285036
Y00279956
X00201451Y00274279
X00206756Y00271272
X00207898Y00262000
X00195708
X00190754Y00265523
Y00270476
X00206000Y00247000
X00195398Y00223606
X00193000Y00219000
X00198000Y00216000
X00204000Y00214000
X00209622Y00214000
Y00202000
X00205872Y00198000
X00209622Y00194000
Y00186000
X00203000Y00178000
X00197158Y00178158
X00197474Y00170683
X00200000Y00166000
X00195020Y00162000
X00198583Y00157927
Y00152974
X00205442Y00162130
X00204000Y00173000
X00190378Y00186000
Y00194000
X00194128Y00198000
X00190378Y00202000
X00191000Y00209000
X00173000Y00199000
X00166000Y00197000
X00163148Y00201328
X00168867Y00191380
X00178000Y00186200
X00171053Y00152697
X00221730Y00158624
X00225173Y00162185
X00221678Y00190000
Y00210000
X00222000Y00218000
X00248000Y00216000
Y00191000
X00288000
X00294000
X00287500Y00197500
X00157000Y00201000
X00154807Y00212704
X00157480Y00217809
X00127500Y00230000
X00110341Y00242490
X00088870Y00245000
X00085000Y00235000
X00077500Y00230250
X00055000Y00230000
X00062500Y00246250
X00070250Y00259000
X00054750
X00062500Y00271750
X00062500Y00287750
X00079000Y00293500
Y00281500
X00078708Y00311128
X00090000Y00302500
X00109264Y00296017
X00117734Y00294766
X00114000Y00288999
X00120396Y00280162
X00127000Y00279908
X00126000Y00272915
X00120500Y00260599
X00135298Y00281794
X00130000Y00310000
X00142455Y00316306
X00139240Y00321770
X00135000Y00329999
X00137890Y00338683
X00136027Y00352614
X00140977Y00351480
X00154432Y00351028
X00125984Y00351168
X00104154Y00328113
X00086000Y00332500
X00046000Y00330201
X00040000Y00318000
X00042500Y00300000
X00046000Y00281500
X00090000Y00220000
X00097539Y00206499
X00112014Y00213614
X00109000Y00185000
X00110244Y00167000
X00083000Y00169000
X00084074Y00189000
X00126612Y00189609
X00133886Y00189692
X00137412Y00172722
X00145542Y00171196
X00135890Y00161798
X00151471Y00153249
X00158000Y00158000
X00014800Y00172200
X00016000Y00187000
X00155000Y00312500
T02
X00258250Y00079000
X00299750
X00279000Y00058250
Y00099750
X00500250Y00079000
X00541750
X00521000Y00058250
Y00099750
X00572907Y00145658
X00584200Y00162560
X00541750Y00321000
X00500250
X00521000Y00300250
Y00341750
X00299750Y00321000
X00258250
X00279000Y00300250
Y00341750
X00112500Y00340000
X00105000
Y00347500
X00112500
T03
X00212782Y00379984
X00225282
X00237782
X00250282
X00262782
X00275282
X00287782
X00300282
X00100000Y00303750
Y00291250
Y00278750
Y00266250
Y00253750
Y00241250
Y00228750
Y00216250
X00030000
Y00228750
Y00241250
Y00253750
Y00266250
Y00278750
Y00291250
Y00303750
T05
X00090000Y00375500
X00110000
T06
X00030000Y00030000
X00570000
Y00370000
X00030000
T07
X00279000Y00079000
X00521000
Y00321000
X00279000
M30
