G04*
G04 #@! TF.GenerationSoftware,Altium Limited,Altium Designer,19.1.7 (138)*
G04*
G04 Layer_Color=128*
%FSLAX25Y25*%
%MOIN*%
G70*
G01*
G75*
%ADD121C,0.00200*%
D121*
X157874Y118553D02*
X169685D01*
X163779Y112648D02*
Y124459D01*
X238681Y11811D02*
X249508D01*
X244094Y6398D02*
Y17224D01*
X26196Y77480D02*
X28558D01*
X27377Y76299D02*
Y78661D01*
X5094Y77480D02*
X7456D01*
X6275Y76299D02*
Y78661D01*
X5094Y111496D02*
X7456D01*
X6275Y110315D02*
Y112677D01*
X26196Y111496D02*
X28558D01*
X27377Y110315D02*
Y112677D01*
X31575Y43307D02*
X34961D01*
X33268Y41614D02*
Y45000D01*
X31575Y51181D02*
X34961D01*
X33268Y49488D02*
Y52874D01*
X62598Y118553D02*
X74409D01*
X68504Y112648D02*
Y124459D01*
X62598Y23278D02*
X74409D01*
X68504Y17372D02*
Y29183D01*
X157874Y23278D02*
X169685D01*
X163779Y17372D02*
Y29183D01*
X6398Y11811D02*
X17224D01*
X11811Y6398D02*
Y17224D01*
X6398Y129921D02*
X17224D01*
X11811Y124508D02*
Y135335D01*
X238681Y129921D02*
X249508D01*
X244094Y124508D02*
Y135335D01*
X163179Y126723D02*
X164379D01*
X163779Y126122D02*
Y127322D01*
X163179Y110384D02*
X164379D01*
X163779Y109784D02*
Y110984D01*
X155010Y118553D02*
X156210D01*
X155610Y117953D02*
Y119153D01*
X171349Y118553D02*
X172549D01*
X171949Y117953D02*
Y119153D01*
X67904Y126723D02*
X69104D01*
X68504Y126122D02*
Y127322D01*
X67904Y110384D02*
X69104D01*
X68504Y109784D02*
Y110984D01*
X59735Y118553D02*
X60935D01*
X60335Y117953D02*
Y119153D01*
X76073Y118553D02*
X77273D01*
X76673Y117953D02*
Y119153D01*
X76073Y23278D02*
X77273D01*
X76673Y22678D02*
Y23878D01*
X59735Y23278D02*
X60935D01*
X60335Y22678D02*
Y23878D01*
X67904Y15108D02*
X69104D01*
X68504Y14508D02*
Y15708D01*
X67904Y31447D02*
X69104D01*
X68504Y30847D02*
Y32047D01*
X171349Y23278D02*
X172549D01*
X171949Y22678D02*
Y23878D01*
X155010Y23278D02*
X156210D01*
X155610Y22678D02*
Y23878D01*
X163179Y15108D02*
X164379D01*
X163779Y14508D02*
Y15708D01*
X163179Y31447D02*
X164379D01*
X163779Y30847D02*
Y32047D01*
X229035Y32185D02*
X229823D01*
X229429Y31791D02*
Y32579D01*
X214370Y31496D02*
X215158D01*
X214764Y31102D02*
Y31890D01*
X80709Y80020D02*
X81496D01*
X81102Y79626D02*
Y80413D01*
X36516Y66634D02*
X37303D01*
X36909Y66240D02*
Y67028D01*
X75984Y53839D02*
X76772D01*
X76378Y53445D02*
Y54232D01*
X157579Y82480D02*
X158366D01*
X157972Y82087D02*
Y82874D01*
X136909Y70866D02*
X137697D01*
X137303Y70472D02*
Y71260D01*
X126673Y46358D02*
X127461D01*
X127067Y45965D02*
Y46752D01*
X150406Y49100D02*
X151194D01*
X150800Y48706D02*
Y49494D01*
X174409Y53937D02*
X175197D01*
X174803Y53543D02*
Y54331D01*
X183957Y66732D02*
X184744D01*
X184350Y66339D02*
Y67126D01*
X177264Y73819D02*
X178051D01*
X177657Y73425D02*
Y74213D01*
X172441Y68701D02*
X173228D01*
X172835Y68307D02*
Y69095D01*
X177559Y61417D02*
X178347D01*
X177953Y61024D02*
Y61811D01*
X181791Y57776D02*
X182579D01*
X182185Y57382D02*
Y58169D01*
X193701Y81496D02*
X194488D01*
X194095Y81102D02*
Y81890D01*
X193799Y88090D02*
X194587D01*
X194193Y87697D02*
Y88484D01*
X180807Y82972D02*
X181595D01*
X181201Y82579D02*
Y83366D01*
X174606Y87500D02*
X175394D01*
X175000Y87106D02*
Y87894D01*
X174114Y80020D02*
X174902D01*
X174508Y79626D02*
Y80413D01*
X233858Y111713D02*
X234646D01*
X234252Y111319D02*
Y112106D01*
X229134Y134350D02*
X229921D01*
X229528Y133957D02*
Y134744D01*
X220276Y122441D02*
X221063D01*
X220669Y122047D02*
Y122835D01*
X192224Y123524D02*
X193012D01*
X192618Y123130D02*
Y123917D01*
X176575Y136713D02*
X177362D01*
X176969Y136319D02*
Y137106D01*
X128543Y19980D02*
X129331D01*
X128937Y19587D02*
Y20374D01*
X145866Y36220D02*
X146653D01*
X146260Y35827D02*
Y36614D01*
X175787Y36811D02*
X176575D01*
X176181Y36417D02*
Y37205D01*
X207382Y22441D02*
X208169D01*
X207776Y22047D02*
Y22835D01*
X227953Y10531D02*
X228740D01*
X228346Y10138D02*
Y10925D01*
X251378Y40650D02*
X252165D01*
X251772Y40256D02*
Y41043D01*
X238484Y25197D02*
X239272D01*
X238878Y24803D02*
Y25591D01*
X58563Y4331D02*
X59350D01*
X58957Y3937D02*
Y4724D01*
X47343Y33760D02*
X48130D01*
X47736Y33366D02*
Y34154D01*
X22638Y22638D02*
X23425D01*
X23031Y22244D02*
Y23031D01*
X7087Y64272D02*
X7874D01*
X7480Y63878D02*
Y64665D01*
X150098Y92421D02*
X150886D01*
X150492Y92028D02*
Y92815D01*
X143602Y117028D02*
X144390D01*
X143996Y116634D02*
Y117421D01*
X147835Y132874D02*
X148622D01*
X148228Y132480D02*
Y133268D01*
X120965Y120571D02*
X121752D01*
X121358Y120177D02*
Y120965D01*
X102362Y133957D02*
X103150D01*
X102756Y133563D02*
Y134350D01*
X91732Y121850D02*
X92520D01*
X92126Y121457D02*
Y122244D01*
X110728Y107874D02*
X111516D01*
X111122Y107480D02*
Y108268D01*
X84153Y108071D02*
X84941D01*
X84547Y107677D02*
Y108465D01*
X53445Y133563D02*
X54232D01*
X53839Y133169D02*
Y133957D01*
X35531Y123130D02*
X36319D01*
X35925Y122736D02*
Y123524D01*
X39265Y101181D02*
X40065D01*
X39665Y100781D02*
Y101581D01*
X192126Y41732D02*
X192913D01*
X192520Y41339D02*
Y42126D01*
X183972Y36712D02*
X184759D01*
X184365Y36318D02*
Y37105D01*
X173897Y41635D02*
X174685D01*
X174291Y41241D02*
Y42028D01*
X173897Y46554D02*
X174685D01*
X174291Y46160D02*
Y46948D01*
X183208Y46554D02*
X183995D01*
X183602Y46160D02*
Y46948D01*
X184929Y51773D02*
X185717D01*
X185323Y51379D02*
Y52167D01*
X244004Y49114D02*
X244804D01*
X244404Y48714D02*
Y49514D01*
X237200Y53700D02*
X238000D01*
X237600Y53300D02*
Y54100D01*
X114193Y83448D02*
X114980D01*
X114586Y83055D02*
Y83842D01*
X205514Y37008D02*
X206314D01*
X205914Y36608D02*
Y37408D01*
X225289Y42717D02*
X226089D01*
X225689Y42316D02*
Y43117D01*
X230606Y52995D02*
X231406D01*
X231006Y52595D02*
Y53395D01*
X223897Y51715D02*
X224697D01*
X224297Y51315D02*
Y52115D01*
X172100Y43094D02*
X172900D01*
X172500Y42694D02*
Y43494D01*
X114193Y85423D02*
X114980D01*
X114586Y85030D02*
Y85817D01*
X172100Y45094D02*
X172900D01*
X172500Y44694D02*
Y45494D01*
X31118Y96322D02*
X31918D01*
X31518Y95922D02*
Y96722D01*
X26033Y93631D02*
X26833D01*
X26433Y93231D02*
Y94031D01*
X93695Y81496D02*
X94494D01*
X94095Y81096D02*
Y81896D01*
X185820Y47606D02*
X186620D01*
X186221Y47206D02*
Y48006D01*
X185820Y49606D02*
X186620D01*
X186221Y49206D02*
Y50006D01*
X86037Y55936D02*
X86837D01*
X86437Y55536D02*
Y56336D01*
X94187Y76717D02*
X94987D01*
X94587Y76317D02*
Y77117D01*
X86800Y73500D02*
X87600D01*
X87200Y73100D02*
Y73900D01*
X86037Y76910D02*
X86837D01*
X86437Y76510D02*
Y77310D01*
X205100Y49400D02*
X205900D01*
X205500Y49000D02*
Y49800D01*
X224021Y47400D02*
X224821D01*
X224421Y47000D02*
Y47800D01*
X205100Y47400D02*
X205900D01*
X205500Y47000D02*
Y47800D01*
X224021Y49400D02*
X224821D01*
X224421Y49000D02*
Y49800D01*
X241576Y62412D02*
X242376D01*
X241976Y62012D02*
Y62812D01*
X234240Y41604D02*
X235039D01*
X234640Y41204D02*
Y42004D01*
X235100Y52700D02*
X235900D01*
X235500Y52300D02*
Y53100D01*
X232240Y41604D02*
X233039D01*
X232640Y41204D02*
Y42004D01*
X233100Y52700D02*
X233900D01*
X233500Y52300D02*
Y53100D01*
X204000Y103800D02*
X204800D01*
X204400Y103400D02*
Y104200D01*
X216741Y98430D02*
X217541D01*
X217141Y98030D02*
Y98830D01*
X192148Y65315D02*
X192935D01*
X192542Y64921D02*
Y65708D01*
X190700Y76600D02*
X191500D01*
X191100Y76200D02*
Y77000D01*
X185778Y74801D02*
X186578D01*
X186178Y74401D02*
Y75201D01*
X192806Y74900D02*
X193594D01*
X193200Y74506D02*
Y75294D01*
X123100Y63600D02*
X123900D01*
X123500Y63200D02*
Y64000D01*
X112906Y59600D02*
X113694D01*
X113300Y59206D02*
Y59994D01*
X151000Y54200D02*
X151800D01*
X151400Y53800D02*
Y54600D01*
X184400Y76900D02*
X185200D01*
X184800Y76500D02*
Y77300D01*
X185906Y65300D02*
X186694D01*
X186300Y64906D02*
Y65694D01*
X192683Y47325D02*
X193471D01*
X193077Y46932D02*
Y47719D01*
X197383Y57522D02*
X198183D01*
X197783Y57122D02*
Y57922D01*
X195840Y65904D02*
X196640D01*
X196239Y65504D02*
Y66304D01*
X185331Y57697D02*
X186131D01*
X185731Y57297D02*
Y58097D01*
X203400Y67400D02*
X204200D01*
X203800Y67000D02*
Y67800D01*
X203200Y76400D02*
X204000D01*
X203600Y76000D02*
Y76800D01*
X153500Y42531D02*
X154300D01*
X153900Y42132D02*
Y42932D01*
X153500Y40563D02*
X154300D01*
X153900Y40163D02*
Y40963D01*
X153500Y38594D02*
X154300D01*
X153900Y38195D02*
Y38995D01*
X153500Y44500D02*
X154300D01*
X153900Y44100D02*
Y44900D01*
X121594Y92791D02*
X122381D01*
X121987Y92398D02*
Y93185D01*
X128306Y101400D02*
X129094D01*
X128700Y101006D02*
Y101794D01*
X130700Y77400D02*
X131500D01*
X131100Y77000D02*
Y77800D01*
X178731Y114732D02*
X179531D01*
X179131Y114331D02*
Y115131D01*
X163209Y104562D02*
X164009D01*
X163609Y104162D02*
Y104962D01*
X207039Y130314D02*
X207826D01*
X207433Y129920D02*
Y130708D01*
X196862Y129961D02*
X197650D01*
X197256Y129567D02*
Y130354D01*
X136003Y55178D02*
X136803D01*
X136403Y54778D02*
Y55578D01*
X50787Y61024D02*
X51575D01*
X51181Y60630D02*
Y61417D01*
X46850Y61024D02*
X47638D01*
X47244Y60630D02*
Y61417D01*
X52756Y61024D02*
X53543D01*
X53150Y60630D02*
Y61417D01*
X48819Y61024D02*
X49606D01*
X49213Y60630D02*
Y61417D01*
X51700Y39454D02*
X52500D01*
X52100Y39054D02*
Y39854D01*
X55674Y41901D02*
X56474D01*
X56074Y41501D02*
Y42301D01*
X104966Y18195D02*
X105754D01*
X105360Y17802D02*
Y18589D01*
X89228Y44721D02*
X90015D01*
X89621Y44328D02*
Y45115D01*
X112170Y19465D02*
X112957D01*
X112563Y19071D02*
Y19858D01*
X120800Y18700D02*
X121600D01*
X121200Y18300D02*
Y19100D01*
X182900Y112000D02*
X183700D01*
X183300Y111600D02*
Y112400D01*
X181100Y109900D02*
X181900D01*
X181500Y109500D02*
Y110300D01*
X179200Y108300D02*
X180000D01*
X179600Y107900D02*
Y108700D01*
X139790Y46800D02*
X140590D01*
X140190Y46400D02*
Y47200D01*
X142427Y46800D02*
X143227D01*
X142827Y46400D02*
Y47200D01*
X144700Y46800D02*
X145500D01*
X145100Y46400D02*
Y47200D01*
X118900Y35100D02*
X119700D01*
X119300Y34700D02*
Y35500D01*
X112600Y31300D02*
X113400D01*
X113000Y30900D02*
Y31700D01*
X122700Y51800D02*
X123500D01*
X123100Y51400D02*
Y52200D01*
X102335Y63640D02*
X103122D01*
X102728Y63247D02*
Y64034D01*
X111846Y81904D02*
X112633D01*
X112240Y81511D02*
Y82298D01*
X111946Y87704D02*
X112733D01*
X112339Y87311D02*
Y88098D01*
X115646Y87704D02*
X116433D01*
X116040Y87311D02*
Y88098D01*
X185624Y38370D02*
X186424D01*
X186023Y37970D02*
Y38770D01*
X185624Y40370D02*
X186424D01*
X186023Y39970D02*
Y40770D01*
X229340Y41681D02*
X230139D01*
X229739Y41281D02*
Y42081D01*
X227340Y41704D02*
X228139D01*
X227740Y41304D02*
Y42104D01*
X233100Y81094D02*
X233900D01*
X233500Y80694D02*
Y81494D01*
X246700Y91505D02*
X247500D01*
X247100Y91106D02*
Y91905D01*
X245600Y71400D02*
X246400D01*
X246000Y71000D02*
Y71800D01*
X244765Y77165D02*
X245565D01*
X245165Y76765D02*
Y77565D01*
X240621Y64285D02*
X241421D01*
X241021Y63885D02*
Y64685D01*
X232700Y98500D02*
X233500D01*
X233100Y98100D02*
Y98900D01*
X241400Y68200D02*
X242200D01*
X241800Y67800D02*
Y68600D01*
X227200Y70600D02*
X228000D01*
X227600Y70200D02*
Y71000D01*
X227200Y72600D02*
X228000D01*
X227600Y72200D02*
Y73000D01*
X246100Y75400D02*
X246900D01*
X246500Y75000D02*
Y75800D01*
X246100Y73400D02*
X246900D01*
X246500Y73000D02*
Y73800D01*
X226360Y63005D02*
X227160D01*
X226760Y62605D02*
Y63405D01*
X226188Y52030D02*
X226988D01*
X226588Y51630D02*
Y52430D01*
X228188Y52030D02*
X228988D01*
X228588Y51630D02*
Y52430D01*
X224939Y59883D02*
X225739D01*
X225339Y59483D02*
Y60283D01*
X240953Y60399D02*
X241754D01*
X241354Y59999D02*
Y60799D01*
X240437Y66285D02*
X241237D01*
X240837Y65885D02*
Y66685D01*
X241054Y58198D02*
X241853D01*
X241454Y57798D02*
Y58599D01*
X203120Y31925D02*
X203920D01*
X203520Y31525D02*
Y32325D01*
X205855Y41800D02*
X206655D01*
X206255Y41400D02*
Y42200D01*
X203100Y46500D02*
X203900D01*
X203500Y46100D02*
Y46900D01*
X203620Y55809D02*
X204420D01*
X204020Y55409D02*
Y56209D01*
X203494Y51200D02*
X204294D01*
X203894Y50800D02*
Y51600D01*
X17710Y36614D02*
X18510D01*
X18110Y36214D02*
Y37014D01*
X38616Y14213D02*
X39416D01*
X39016Y13813D02*
Y14613D01*
X26805Y14213D02*
X27605D01*
X27205Y13813D02*
Y14613D01*
X39167Y8858D02*
X39967D01*
X39567Y8458D02*
Y9258D01*
X27356Y8858D02*
X28156D01*
X27756Y8458D02*
Y9258D01*
X42907Y18898D02*
X43707D01*
X43307Y18498D02*
Y19298D01*
X31096Y18898D02*
X31896D01*
X31496Y18498D02*
Y19298D01*
X36652Y88587D02*
X37452D01*
X37052Y88187D02*
Y88987D01*
X31496Y99419D02*
X32296D01*
X31896Y99019D02*
Y99819D01*
X23812Y101556D02*
X24612D01*
X24212Y101156D02*
Y101956D01*
X31938Y90950D02*
X32738D01*
X32338Y90550D02*
Y91350D01*
X33635Y86652D02*
X34435D01*
X34035Y86252D02*
Y87052D01*
X26014Y87603D02*
X26814D01*
X26414Y87203D02*
Y88003D01*
X30217Y94394D02*
X31017D01*
X30617Y93994D02*
Y94794D01*
X35822Y98881D02*
X36621D01*
X36222Y98481D02*
Y99281D01*
X34473Y100504D02*
X35273D01*
X34873Y100104D02*
Y100904D01*
X25991Y85603D02*
X26791D01*
X26391Y85203D02*
Y86003D01*
X25936Y97458D02*
X26736D01*
X26336Y97058D02*
Y97858D01*
X26014Y103383D02*
X26814D01*
X26414Y102982D02*
Y103782D01*
X33635Y84652D02*
X34435D01*
X34035Y84252D02*
Y85052D01*
X26229Y82484D02*
X27029D01*
X26629Y82084D02*
Y82884D01*
X22095Y110018D02*
X22895D01*
X22495Y109618D02*
Y110418D01*
X32554Y110232D02*
X33354D01*
X32954Y109832D02*
Y110632D01*
X50346Y85815D02*
X51146D01*
X50746Y85415D02*
Y86215D01*
X45914Y78749D02*
X46714D01*
X46314Y78349D02*
Y79149D01*
X35604Y82587D02*
X36392D01*
X35998Y82193D02*
Y82980D01*
X207439Y40004D02*
X208240D01*
X207839Y39604D02*
Y40404D01*
X207439Y38004D02*
X208240D01*
X207839Y37604D02*
Y38404D01*
X119784Y63074D02*
X120584D01*
X120185Y62674D02*
Y63475D01*
X183553Y101043D02*
X184340D01*
X183946Y100649D02*
Y101436D01*
X104294Y68570D02*
X105081D01*
X104687Y68176D02*
Y68963D01*
X102957Y72614D02*
X103757D01*
X103357Y72214D02*
Y73014D01*
X105671Y78667D02*
X106458D01*
X106065Y78274D02*
Y79061D01*
X112108Y73056D02*
X112896D01*
X112502Y72663D02*
Y73450D01*
X84838Y67780D02*
X85637D01*
X85237Y67380D02*
Y68180D01*
X98567Y72798D02*
X99367D01*
X98967Y72398D02*
Y73198D01*
X200608Y29171D02*
X201408D01*
X201008Y28771D02*
Y29571D01*
X182352Y27453D02*
X183140D01*
X182746Y27060D02*
Y27847D01*
X182305Y33876D02*
X183093D01*
X182699Y33483D02*
Y34270D01*
X191741Y61815D02*
X192529D01*
X192135Y61422D02*
Y62209D01*
X134634Y104337D02*
X135422D01*
X135028Y103944D02*
Y104731D01*
X131382Y107928D02*
X132169D01*
X131776Y107534D02*
Y108322D01*
X128313Y70499D02*
X129100D01*
X128706Y70106D02*
Y70893D01*
X108151Y38155D02*
X108938D01*
X108545Y37761D02*
Y38548D01*
X108151Y41367D02*
X108938D01*
X108545Y40973D02*
Y41761D01*
X100630Y15943D02*
X101417D01*
X101023Y15549D02*
Y16337D01*
X116385Y20154D02*
X117172D01*
X116779Y19760D02*
Y20547D01*
X92827Y90562D02*
X93614D01*
X93220Y90168D02*
Y90956D01*
X90768Y90654D02*
X91555D01*
X91162Y90260D02*
Y91048D01*
X92748Y93585D02*
X93536D01*
X93142Y93191D02*
Y93978D01*
X90768Y93643D02*
X91555D01*
X91162Y93250D02*
Y94037D01*
X92689Y97098D02*
X93477D01*
X93083Y96704D02*
Y97491D01*
X90768Y97156D02*
X91555D01*
X91162Y96763D02*
Y97550D01*
X92754Y100106D02*
X93542D01*
X93148Y99713D02*
Y100500D01*
X90768Y100103D02*
X91555D01*
X91162Y99709D02*
Y100496D01*
X81928Y26242D02*
X82715D01*
X82321Y25848D02*
Y26636D01*
X89123Y26166D02*
X89910D01*
X89516Y25772D02*
Y26559D01*
X98820Y25959D02*
X99607D01*
X99213Y25566D02*
Y26353D01*
X99860Y39108D02*
X100647D01*
X100254Y38714D02*
Y39502D01*
X106577Y50620D02*
X107364D01*
X106970Y50226D02*
Y51014D01*
X93694Y51357D02*
X94481D01*
X94087Y50963D02*
Y51751D01*
X203400Y65500D02*
X204200D01*
X203800Y65100D02*
Y65900D01*
X198100Y74800D02*
X198900D01*
X198500Y74400D02*
Y75200D01*
X184949Y86161D02*
X185736D01*
X185343Y85767D02*
Y86555D01*
X191657Y94767D02*
X192445D01*
X192051Y94374D02*
Y95161D01*
X191770Y99541D02*
X192558D01*
X192164Y99147D02*
Y99934D01*
X191695Y104238D02*
X192482D01*
X192089Y103845D02*
Y104632D01*
X197491Y94808D02*
X198291D01*
X197891Y94408D02*
Y95208D01*
X197450Y99559D02*
X198250D01*
X197850Y99159D02*
Y99959D01*
X197381Y104180D02*
X198169D01*
X197775Y103786D02*
Y104573D01*
X197599Y108938D02*
X198386D01*
X197992Y108545D02*
Y109332D01*
X182463Y3438D02*
X183250D01*
X182857Y3045D02*
Y3832D01*
X161943Y3304D02*
X162730D01*
X162336Y2911D02*
Y3698D01*
X137806Y13800D02*
X138594D01*
X138200Y13406D02*
Y14194D01*
X123603Y3574D02*
X124390D01*
X123997Y3181D02*
Y3968D01*
X111206Y12100D02*
X111994D01*
X111600Y11706D02*
Y12494D01*
X85306Y12300D02*
X86094D01*
X85700Y11906D02*
Y12694D01*
X78106Y4200D02*
X78894D01*
X78500Y3806D02*
Y4594D01*
X136029Y92819D02*
X136816D01*
X136422Y92425D02*
Y93213D01*
X197135Y48853D02*
X197935D01*
X197536Y48453D02*
Y49253D01*
X196847Y38367D02*
X197647D01*
X197247Y37967D02*
Y38767D01*
X192683Y36056D02*
X193471D01*
X193077Y35662D02*
Y36449D01*
X230822Y43027D02*
X231622D01*
X231222Y42628D02*
Y43428D01*
X235940Y43004D02*
X236739D01*
X236339Y42604D02*
Y43404D01*
X192053Y54049D02*
X192841D01*
X192447Y53655D02*
Y54443D01*
X192446Y57304D02*
X193233D01*
X192840Y56911D02*
Y57698D01*
X100473Y94154D02*
X101261D01*
X100867Y93760D02*
Y94547D01*
X112032Y95775D02*
X112819D01*
X112425Y95382D02*
Y96169D01*
X93335Y34571D02*
X94122D01*
X93729Y34178D02*
Y34965D01*
X92464Y31688D02*
X93251D01*
X92857Y31294D02*
Y32081D01*
X88499Y31808D02*
X89286D01*
X88893Y31414D02*
Y32201D01*
X84611Y31804D02*
X85399D01*
X85005Y31411D02*
Y32198D01*
X80738Y31868D02*
X81525D01*
X81132Y31474D02*
Y32261D01*
X79595Y34852D02*
X80383D01*
X79989Y34458D02*
Y35246D01*
X82548Y44814D02*
X83335D01*
X82941Y44421D02*
Y45208D01*
X181751Y93868D02*
X182538D01*
X182144Y93475D02*
Y94262D01*
X191946Y59304D02*
X192733D01*
X192340Y58911D02*
Y59698D01*
X119167Y93868D02*
X119954D01*
X119561Y93475D02*
Y94262D01*
X117226Y102181D02*
X118013D01*
X117619Y101787D02*
Y102574D01*
X54339Y71767D02*
X55139D01*
X54739Y71368D02*
Y72167D01*
X64000Y76910D02*
X64800D01*
X64400Y76510D02*
Y77310D01*
X116229Y73428D02*
X117029D01*
X116629Y73028D02*
Y73828D01*
X82996Y65282D02*
X83797D01*
X83397Y64882D02*
Y65682D01*
M02*
