G04*
G04 #@! TF.GenerationSoftware,Altium Limited,Altium Designer,20.0.13 (296)*
G04*
G04 Layer_Color=16711935*
%FSLAX44Y44*%
%MOMM*%
G71*
G01*
G75*
%ADD51R,1.1032X1.2032*%
%ADD52R,0.7532X0.6532*%
%ADD53R,0.6532X0.7532*%
%ADD55R,0.7232X0.7232*%
%ADD58R,0.8532X0.7532*%
%ADD59R,1.2032X1.1032*%
%ADD60R,0.8232X0.8232*%
%ADD62R,0.7532X0.8532*%
%ADD63R,0.8232X0.8232*%
%ADD73R,0.9032X1.1032*%
%ADD74R,0.7232X0.7232*%
%ADD75R,1.1032X0.9032*%
%ADD79C,2.0000*%
%ADD80R,1.5032X1.7032*%
%ADD81R,1.7032X1.5032*%
%ADD88C,2.2032*%
%ADD90C,1.7272*%
%ADD91O,2.0000X1.2000*%
%ADD92O,2.5000X1.2000*%
%ADD93C,1.0032*%
%ADD94R,1.0032X1.0032*%
%ADD95R,1.5712X1.5712*%
%ADD96C,1.5712*%
%ADD97C,0.7112*%
%ADD157R,6.4032X3.7032*%
%ADD158R,4.6032X3.5032*%
%ADD159R,0.5632X0.5232*%
%ADD160R,0.5232X0.5632*%
G04:AMPARAMS|DCode=161|XSize=0.5232mm|YSize=0.5632mm|CornerRadius=0mm|HoleSize=0mm|Usage=FLASHONLY|Rotation=225.000|XOffset=0mm|YOffset=0mm|HoleType=Round|Shape=Rectangle|*
%AMROTATEDRECTD161*
4,1,4,-0.0141,0.3841,0.3841,-0.0141,0.0141,-0.3841,-0.3841,0.0141,-0.0141,0.3841,0.0*
%
%ADD161ROTATEDRECTD161*%

%ADD162R,0.5000X1.0000*%
%ADD163R,0.9032X0.3832*%
%ADD164R,0.7520X0.7520*%
%ADD165R,0.7520X0.5520*%
%ADD166O,1.3532X0.5032*%
%ADD167O,0.5032X1.3532*%
%ADD168R,3.3532X3.3532*%
G04:AMPARAMS|DCode=169|XSize=0.38mm|YSize=0.74mm|CornerRadius=0.13mm|HoleSize=0mm|Usage=FLASHONLY|Rotation=270.000|XOffset=0mm|YOffset=0mm|HoleType=Round|Shape=RoundedRectangle|*
%AMROUNDEDRECTD169*
21,1,0.3800,0.4800,0,0,270.0*
21,1,0.1200,0.7400,0,0,270.0*
1,1,0.2600,-0.2400,-0.0600*
1,1,0.2600,-0.2400,0.0600*
1,1,0.2600,0.2400,0.0600*
1,1,0.2600,0.2400,-0.0600*
%
%ADD169ROUNDEDRECTD169*%
G04:AMPARAMS|DCode=170|XSize=0.39mm|YSize=0.79mm|CornerRadius=0.1325mm|HoleSize=0mm|Usage=FLASHONLY|Rotation=180.000|XOffset=0mm|YOffset=0mm|HoleType=Round|Shape=RoundedRectangle|*
%AMROUNDEDRECTD170*
21,1,0.3900,0.5250,0,0,180.0*
21,1,0.1250,0.7900,0,0,180.0*
1,1,0.2650,-0.0625,0.2625*
1,1,0.2650,0.0625,0.2625*
1,1,0.2650,0.0625,-0.2625*
1,1,0.2650,-0.0625,-0.2625*
%
%ADD170ROUNDEDRECTD170*%
G04:AMPARAMS|DCode=171|XSize=2.19mm|YSize=3.19mm|CornerRadius=0.1213mm|HoleSize=0mm|Usage=FLASHONLY|Rotation=0.000|XOffset=0mm|YOffset=0mm|HoleType=Round|Shape=RoundedRectangle|*
%AMROUNDEDRECTD171*
21,1,2.1900,2.9475,0,0,0.0*
21,1,1.9475,3.1900,0,0,0.0*
1,1,0.2425,0.9738,-1.4738*
1,1,0.2425,-0.9738,-1.4738*
1,1,0.2425,-0.9738,1.4738*
1,1,0.2425,0.9738,1.4738*
%
%ADD171ROUNDEDRECTD171*%
%ADD172R,0.6500X0.4000*%
%ADD173R,0.6500X0.5000*%
%ADD174R,1.7532X0.8032*%
%ADD175R,2.0032X1.4032*%
G04:AMPARAMS|DCode=176|XSize=0.552mm|YSize=1.052mm|CornerRadius=0.176mm|HoleSize=0mm|Usage=FLASHONLY|Rotation=270.000|XOffset=0mm|YOffset=0mm|HoleType=Round|Shape=RoundedRectangle|*
%AMROUNDEDRECTD176*
21,1,0.5520,0.7000,0,0,270.0*
21,1,0.2000,1.0520,0,0,270.0*
1,1,0.3520,-0.3500,-0.1000*
1,1,0.3520,-0.3500,0.1000*
1,1,0.3520,0.3500,0.1000*
1,1,0.3520,0.3500,-0.1000*
%
%ADD176ROUNDEDRECTD176*%
%ADD177R,2.3622X2.9462*%
%ADD178R,0.8000X1.1000*%
%ADD179R,0.8000X0.4000*%
%ADD180R,1.7032X2.2032*%
G04:AMPARAMS|DCode=181|XSize=0.4mm|YSize=0.65mm|CornerRadius=0mm|HoleSize=0mm|Usage=FLASHONLY|Rotation=45.000|XOffset=0mm|YOffset=0mm|HoleType=Round|Shape=Rectangle|*
%AMROTATEDRECTD181*
4,1,4,0.0884,-0.3712,-0.3712,0.0884,-0.0884,0.3712,0.3712,-0.0884,0.0884,-0.3712,0.0*
%
%ADD181ROTATEDRECTD181*%

G04:AMPARAMS|DCode=182|XSize=0.5mm|YSize=0.65mm|CornerRadius=0mm|HoleSize=0mm|Usage=FLASHONLY|Rotation=45.000|XOffset=0mm|YOffset=0mm|HoleType=Round|Shape=Rectangle|*
%AMROTATEDRECTD182*
4,1,4,0.0530,-0.4066,-0.4066,0.0530,-0.0530,0.4066,0.4066,-0.0530,0.0530,-0.4066,0.0*
%
%ADD182ROTATEDRECTD182*%

G04:AMPARAMS|DCode=183|XSize=0.3mm|YSize=0.8mm|CornerRadius=0.1mm|HoleSize=0mm|Usage=FLASHONLY|Rotation=270.000|XOffset=0mm|YOffset=0mm|HoleType=Round|Shape=RoundedRectangle|*
%AMROUNDEDRECTD183*
21,1,0.3000,0.6000,0,0,270.0*
21,1,0.1000,0.8000,0,0,270.0*
1,1,0.2000,-0.3000,-0.0500*
1,1,0.2000,-0.3000,0.0500*
1,1,0.2000,0.3000,0.0500*
1,1,0.2000,0.3000,-0.0500*
%
%ADD183ROUNDEDRECTD183*%
G04:AMPARAMS|DCode=184|XSize=0.3mm|YSize=0.6mm|CornerRadius=0.1mm|HoleSize=0mm|Usage=FLASHONLY|Rotation=180.000|XOffset=0mm|YOffset=0mm|HoleType=Round|Shape=RoundedRectangle|*
%AMROUNDEDRECTD184*
21,1,0.3000,0.4000,0,0,180.0*
21,1,0.1000,0.6000,0,0,180.0*
1,1,0.2000,-0.0500,0.2000*
1,1,0.2000,0.0500,0.2000*
1,1,0.2000,0.0500,-0.2000*
1,1,0.2000,-0.0500,-0.2000*
%
%ADD184ROUNDEDRECTD184*%
%ADD185R,0.3200X0.6000*%
%ADD186C,5.4000*%
%ADD187O,0.6096X0.6092*%
G36*
X-56336Y54886D02*
Y52922D01*
X-56848Y49027D01*
X-57865Y45232D01*
X-59369Y41602D01*
X-61333Y38199D01*
X-63725Y35082D01*
X-66503Y32304D01*
X-69620Y29912D01*
X-73023Y27948D01*
X-76653Y26444D01*
X-80448Y25427D01*
X-84343Y24914D01*
X-86307D01*
X-86363Y24914D01*
X-88328D01*
X-92223Y25427D01*
X-96018Y26444D01*
X-99648Y27948D01*
X-103051Y29912D01*
X-106168Y32304D01*
X-108946Y35082D01*
X-111338Y38199D01*
X-113302Y41602D01*
X-114806Y45231D01*
X-115823Y49027D01*
X-116335Y52922D01*
Y54886D01*
Y69914D01*
X-100086D01*
X-100085Y54914D01*
X-100019Y53567D01*
X-99494Y50923D01*
X-98462Y48433D01*
X-96964Y46192D01*
X-95058Y44285D01*
X-92817Y42788D01*
X-90327Y41757D01*
X-87683Y41231D01*
X-86336Y41164D01*
X-86335D01*
X-84988Y41231D01*
X-82344Y41757D01*
X-79854Y42788D01*
X-77613Y44285D01*
X-75707Y46192D01*
X-74209Y48433D01*
X-73178Y50923D01*
X-72652Y53567D01*
X-72586Y54914D01*
X-72586Y69914D01*
X-56336D01*
X-56336Y54886D01*
D02*
G37*
G36*
X-469855Y69445D02*
X-468466Y68056D01*
X-466074Y64939D01*
X-464109Y61537D01*
X-462606Y57907D01*
X-461589Y54112D01*
X-461076Y50216D01*
Y46287D01*
X-461589Y42392D01*
X-462606Y38597D01*
X-464109Y34967D01*
X-466074Y31565D01*
X-468466Y28448D01*
X-469855Y27058D01*
X-469894Y27019D01*
Y27019D01*
X-471283Y25630D01*
X-474400Y23238D01*
X-477803Y21274D01*
X-481433Y19770D01*
X-485228Y18753D01*
X-489123Y18240D01*
X-493052D01*
X-496948Y18753D01*
X-500743Y19770D01*
X-504372Y21274D01*
X-507775Y23238D01*
X-510892Y25630D01*
X-512281Y27019D01*
X-522908Y37645D01*
X-511417Y49136D01*
X-500811Y38529D01*
X-500811Y38529D01*
X-499811Y37623D01*
X-497570Y36126D01*
X-495079Y35094D01*
X-492436Y34568D01*
X-489740D01*
X-487096Y35094D01*
X-484606Y36126D01*
X-482365Y37623D01*
X-481365Y38529D01*
X-481365Y38529D01*
Y38529D01*
X-480459Y39529D01*
X-478961Y41770D01*
X-477930Y44261D01*
X-477404Y46904D01*
Y49600D01*
X-477930Y52243D01*
X-478961Y54734D01*
X-480459Y56975D01*
X-481365Y57975D01*
X-491972Y68581D01*
X-480481Y80072D01*
X-469855Y69445D01*
D02*
G37*
G36*
X449050Y68581D02*
X438444Y57975D01*
X437538Y56975D01*
X436040Y54734D01*
X435009Y52243D01*
X434483Y49600D01*
Y46904D01*
X435009Y44261D01*
X436040Y41770D01*
X437538Y39529D01*
X438444Y38529D01*
X438444Y38529D01*
X438444Y38529D01*
X439444Y37623D01*
X441685Y36126D01*
X444175Y35094D01*
X446819Y34568D01*
X449514D01*
X452158Y35094D01*
X454648Y36126D01*
X456889Y37623D01*
X457889Y38529D01*
Y38529D01*
X468496Y49136D01*
X479986Y37645D01*
X469360Y27019D01*
X467971Y25630D01*
X464854Y23238D01*
X461451Y21274D01*
X457821Y19770D01*
X454026Y18753D01*
X450131Y18240D01*
X446202D01*
X442307Y18753D01*
X438512Y19770D01*
X434882Y21274D01*
X431479Y23238D01*
X428362Y25630D01*
X426973Y27019D01*
X426973Y27019D01*
X426934Y27059D01*
X425544Y28448D01*
X423153Y31565D01*
X421188Y34967D01*
X419685Y38597D01*
X418668Y42392D01*
X418155Y46287D01*
Y50216D01*
X418668Y54112D01*
X419685Y57907D01*
X421188Y61537D01*
X423153Y64939D01*
X425544Y68056D01*
X426934Y69445D01*
X426934D01*
X437560Y80072D01*
X449050Y68581D01*
D02*
G37*
G36*
X454112Y-228668D02*
X457907Y-229685D01*
X461537Y-231188D01*
X464939Y-233153D01*
X468056Y-235544D01*
X469445Y-236933D01*
X480072Y-247560D01*
X468581Y-259050D01*
X457975Y-248444D01*
X456975Y-247538D01*
X454734Y-246040D01*
X452243Y-245009D01*
X449600Y-244483D01*
X446904D01*
X444261Y-245009D01*
X441770Y-246040D01*
X439529Y-247538D01*
X438529Y-248444D01*
X438529D01*
X438529Y-248444D01*
X437623Y-249444D01*
X436126Y-251685D01*
X435094Y-254175D01*
X434568Y-256819D01*
Y-259514D01*
X435094Y-262158D01*
X436126Y-264648D01*
X437623Y-266889D01*
X438529Y-267889D01*
X438529Y-267889D01*
X449136Y-278496D01*
X437645Y-289986D01*
X427019Y-279360D01*
X425630Y-277971D01*
X423238Y-274854D01*
X421274Y-271451D01*
X419770Y-267821D01*
X418753Y-264026D01*
X418240Y-260131D01*
Y-256202D01*
X418753Y-252307D01*
X419770Y-248512D01*
X421274Y-244882D01*
X423238Y-241479D01*
X425630Y-238362D01*
X427019Y-236973D01*
X427019D01*
X427059Y-236933D01*
X428448Y-235544D01*
X431565Y-233153D01*
X434967Y-231188D01*
X438597Y-229685D01*
X442392Y-228668D01*
X446288Y-228155D01*
X450216D01*
X454112Y-228668D01*
D02*
G37*
G36*
X-485228Y-228753D02*
X-481433Y-229770D01*
X-477803Y-231274D01*
X-474400Y-233238D01*
X-471283Y-235630D01*
X-469894Y-237019D01*
X-469855Y-237059D01*
X-468466Y-238448D01*
X-466074Y-241565D01*
X-464109Y-244967D01*
X-462606Y-248597D01*
X-461589Y-252392D01*
X-461076Y-256287D01*
Y-260217D01*
X-461589Y-264112D01*
X-462606Y-267907D01*
X-464109Y-271537D01*
X-466074Y-274939D01*
X-468466Y-278056D01*
X-469855Y-279445D01*
Y-279445D01*
X-480481Y-290072D01*
X-491972Y-278581D01*
X-481365Y-267975D01*
X-480459Y-266975D01*
X-478961Y-264734D01*
X-477930Y-262243D01*
X-477404Y-259600D01*
Y-256904D01*
X-477930Y-254261D01*
X-478961Y-251770D01*
X-480459Y-249529D01*
X-481365Y-248529D01*
X-481365Y-248529D01*
X-482365Y-247623D01*
X-484606Y-246126D01*
X-487096Y-245094D01*
X-489740Y-244568D01*
X-492436D01*
X-495079Y-245094D01*
X-497570Y-246126D01*
X-499811Y-247623D01*
X-500811Y-248529D01*
X-500811D01*
X-511417Y-259136D01*
X-522908Y-247645D01*
X-512281Y-237019D01*
X-510892Y-235630D01*
X-507775Y-233238D01*
X-504372Y-231274D01*
X-500743Y-229770D01*
X-496948Y-228753D01*
X-493052Y-228240D01*
X-489123D01*
X-485228Y-228753D01*
D02*
G37*
G36*
X-86222Y-235000D02*
X-84257D01*
X-80362Y-235513D01*
X-76567Y-236530D01*
X-72937Y-238033D01*
X-69535Y-239998D01*
X-66418Y-242390D01*
X-63639Y-245168D01*
X-61248Y-248285D01*
X-59283Y-251687D01*
X-57780Y-255317D01*
X-56763Y-259112D01*
X-56250Y-263008D01*
Y-264972D01*
X-56250Y-280000D01*
X-72500D01*
X-72500Y-265000D01*
X-72566Y-263652D01*
X-73092Y-261009D01*
X-74124Y-258518D01*
X-75621Y-256277D01*
X-77527Y-254371D01*
X-79768Y-252874D01*
X-82259Y-251842D01*
X-84902Y-251316D01*
X-86250Y-251250D01*
X-86250D01*
X-87598Y-251316D01*
X-90241Y-251842D01*
X-92732Y-252874D01*
X-94973Y-254371D01*
X-96879Y-256277D01*
X-98376Y-258518D01*
X-99408Y-261009D01*
X-99934Y-263652D01*
X-100000Y-265000D01*
X-100000Y-280000D01*
X-116250D01*
Y-264972D01*
Y-263008D01*
X-115737Y-259112D01*
X-114720Y-255317D01*
X-113217Y-251687D01*
X-111252Y-248285D01*
X-108861Y-245168D01*
X-106082Y-242390D01*
X-102965Y-239998D01*
X-99563Y-238033D01*
X-95933Y-236530D01*
X-92138Y-235513D01*
X-88243Y-235000D01*
X-86278D01*
X-86222Y-235000D01*
D02*
G37*
D51*
X-285519Y-129582D02*
D03*
X-301519D02*
D03*
D52*
X-302000Y-33500D02*
D03*
Y-24500D02*
D03*
X390028Y-123486D02*
D03*
Y-114486D02*
D03*
X-288958Y-24079D02*
D03*
Y-15079D02*
D03*
X-288882Y1717D02*
D03*
Y-7283D02*
D03*
X-321211Y-14007D02*
D03*
Y-23007D02*
D03*
X-321150Y-6234D02*
D03*
Y2766D02*
D03*
D53*
X-324618Y-140167D02*
D03*
X-315618D02*
D03*
X-294602Y10782D02*
D03*
X-303602D02*
D03*
X-320466D02*
D03*
X-311466D02*
D03*
D55*
X-51000Y-126000D02*
D03*
Y-134000D02*
D03*
X-312000Y-33000D02*
D03*
Y-25000D02*
D03*
D58*
X-314705Y-120435D02*
D03*
Y-130435D02*
D03*
X-325514Y-130501D02*
D03*
Y-120501D02*
D03*
X-262992Y-142509D02*
D03*
Y-132509D02*
D03*
X-263058Y-162292D02*
D03*
Y-152292D02*
D03*
D59*
X348999Y-111886D02*
D03*
Y-127886D02*
D03*
X375697Y-111886D02*
D03*
Y-127886D02*
D03*
X125711Y-16466D02*
D03*
Y-32466D02*
D03*
D60*
X139978Y-20748D02*
D03*
Y-29748D02*
D03*
D62*
X270199Y-101740D02*
D03*
X260199D02*
D03*
X-16062Y-215785D02*
D03*
X-6061D02*
D03*
X-53334Y-215322D02*
D03*
X-63334D02*
D03*
X-32773Y-225826D02*
D03*
X-22773D02*
D03*
X-42519Y-225893D02*
D03*
X-52519D02*
D03*
X154270Y-114932D02*
D03*
X164270D02*
D03*
D63*
X234523Y-174232D02*
D03*
X243523D02*
D03*
X267581Y-174740D02*
D03*
X258581D02*
D03*
X239938Y-101578D02*
D03*
X248938D02*
D03*
X183865Y-101720D02*
D03*
X174865D02*
D03*
X174459Y-174232D02*
D03*
X183459D02*
D03*
X211500Y-174232D02*
D03*
X202500D02*
D03*
D73*
X14000Y12000D02*
D03*
X28000D02*
D03*
X-77530Y-126334D02*
D03*
X-63530D02*
D03*
X367031Y-181611D02*
D03*
X381031D02*
D03*
X396449Y-233577D02*
D03*
X410449D02*
D03*
X354998Y-181546D02*
D03*
X340998D02*
D03*
D74*
X353413Y-192005D02*
D03*
X345413D02*
D03*
X391436Y-243991D02*
D03*
X399436D02*
D03*
X367076Y-192295D02*
D03*
X375076D02*
D03*
X-347227Y-146466D02*
D03*
X-355227D02*
D03*
D75*
X3838Y-5769D02*
D03*
Y-19769D02*
D03*
X-111176Y-5769D02*
D03*
Y-19769D02*
D03*
X-72674D02*
D03*
Y-5769D02*
D03*
X-17716Y-19769D02*
D03*
Y-5769D02*
D03*
X-56192D02*
D03*
Y-19769D02*
D03*
D79*
X-271208Y24629D02*
D03*
X-492887Y-155082D02*
D03*
D80*
X333521Y-164539D02*
D03*
X352521D02*
D03*
X388393Y-164459D02*
D03*
X369393D02*
D03*
D81*
X410379Y-200797D02*
D03*
Y-219797D02*
D03*
D88*
X-479750Y-181000D02*
D03*
D90*
X-212234Y-257871D02*
D03*
X448395Y-2575D02*
D03*
X-441871Y45171D02*
D03*
X345025Y-257871D02*
D03*
D91*
X-443778Y13745D02*
D03*
Y-72655D02*
D03*
D92*
X-497378Y13745D02*
D03*
Y-72655D02*
D03*
D93*
X54500Y-263000D02*
D03*
X29500D02*
D03*
X42000D02*
D03*
X-20500D02*
D03*
X-8000D02*
D03*
X17000D02*
D03*
X4500D02*
D03*
X-245738Y53165D02*
D03*
X-233238D02*
D03*
X-220738D02*
D03*
X-208238D02*
D03*
X-195738D02*
D03*
X-183238D02*
D03*
X-170738D02*
D03*
D94*
X-390000Y-254322D02*
D03*
Y-266822D02*
D03*
X-350000Y-254322D02*
D03*
Y-266822D02*
D03*
X-310000Y-254322D02*
D03*
Y-266822D02*
D03*
X-33000Y-263000D02*
D03*
X-158238Y53165D02*
D03*
D95*
X-305501Y46495D02*
D03*
D96*
X-325501D02*
D03*
D97*
X-137928Y-17172D02*
D03*
X-167272Y12172D02*
D03*
Y-17172D02*
D03*
X-137928Y12172D02*
D03*
X104073D02*
D03*
X74728Y-17172D02*
D03*
Y12172D02*
D03*
X104073Y-17172D02*
D03*
Y-229828D02*
D03*
X74728Y-259172D02*
D03*
Y-229828D02*
D03*
X104073Y-259172D02*
D03*
X-137928Y-229828D02*
D03*
X-167272Y-259172D02*
D03*
Y-229828D02*
D03*
X-137928Y-259172D02*
D03*
D157*
X-441750Y-243500D02*
D03*
Y-118500D02*
D03*
D158*
X-352250Y-174500D02*
D03*
D159*
X-392800Y-71689D02*
D03*
X-387200D02*
D03*
Y-66000D02*
D03*
D160*
X-392800D02*
D03*
D161*
X-347421Y-17375D02*
D03*
X-343461Y-21334D02*
D03*
X-351821Y-21777D02*
D03*
X-347862Y-25736D02*
D03*
D162*
X23181Y-23848D02*
D03*
X29681D02*
D03*
Y-1848D02*
D03*
X16681Y-23848D02*
D03*
Y-1848D02*
D03*
X-92151Y-23848D02*
D03*
X-85651D02*
D03*
Y-1848D02*
D03*
X-98651Y-23848D02*
D03*
Y-1848D02*
D03*
X-43274D02*
D03*
Y-23848D02*
D03*
X-30275Y-1848D02*
D03*
Y-23848D02*
D03*
X-36775D02*
D03*
D163*
X-247000Y-25500D02*
D03*
Y-29500D02*
D03*
Y-33500D02*
D03*
Y-37500D02*
D03*
Y-41500D02*
D03*
Y-45500D02*
D03*
Y-49500D02*
D03*
Y-53500D02*
D03*
Y-57500D02*
D03*
Y-61500D02*
D03*
Y-65500D02*
D03*
Y-69500D02*
D03*
Y-73500D02*
D03*
Y-77500D02*
D03*
Y-81500D02*
D03*
Y-85500D02*
D03*
Y-89500D02*
D03*
Y-93500D02*
D03*
Y-97500D02*
D03*
Y-101500D02*
D03*
Y-105500D02*
D03*
Y-109500D02*
D03*
Y-113500D02*
D03*
Y-117500D02*
D03*
Y-121500D02*
D03*
Y-125500D02*
D03*
Y-129500D02*
D03*
Y-133500D02*
D03*
Y-137500D02*
D03*
Y-141500D02*
D03*
Y-145500D02*
D03*
Y-149500D02*
D03*
Y-153500D02*
D03*
Y-157500D02*
D03*
Y-161500D02*
D03*
Y-165500D02*
D03*
Y-169500D02*
D03*
Y-173500D02*
D03*
Y-177500D02*
D03*
Y-181500D02*
D03*
Y-185500D02*
D03*
Y-189500D02*
D03*
Y-193500D02*
D03*
Y-197500D02*
D03*
Y-201500D02*
D03*
Y-205500D02*
D03*
Y-209500D02*
D03*
Y-213500D02*
D03*
Y-217500D02*
D03*
Y-221500D02*
D03*
X-216200Y-25500D02*
D03*
Y-29500D02*
D03*
Y-33500D02*
D03*
Y-37500D02*
D03*
Y-41500D02*
D03*
Y-45500D02*
D03*
Y-49500D02*
D03*
Y-53500D02*
D03*
Y-57500D02*
D03*
Y-61500D02*
D03*
Y-65500D02*
D03*
Y-69500D02*
D03*
Y-73500D02*
D03*
Y-77500D02*
D03*
Y-81500D02*
D03*
Y-85500D02*
D03*
Y-89500D02*
D03*
Y-93500D02*
D03*
Y-97500D02*
D03*
Y-101500D02*
D03*
Y-105500D02*
D03*
Y-109500D02*
D03*
Y-113500D02*
D03*
Y-117500D02*
D03*
Y-121500D02*
D03*
Y-125500D02*
D03*
Y-129500D02*
D03*
Y-133500D02*
D03*
Y-137500D02*
D03*
Y-141500D02*
D03*
Y-145500D02*
D03*
Y-149500D02*
D03*
Y-153500D02*
D03*
Y-157500D02*
D03*
Y-161500D02*
D03*
Y-165500D02*
D03*
Y-169500D02*
D03*
Y-173500D02*
D03*
Y-177500D02*
D03*
Y-181500D02*
D03*
Y-185500D02*
D03*
Y-189500D02*
D03*
Y-193500D02*
D03*
Y-197500D02*
D03*
Y-201500D02*
D03*
Y-205500D02*
D03*
Y-209500D02*
D03*
Y-213500D02*
D03*
Y-217500D02*
D03*
Y-221500D02*
D03*
D164*
X-487381Y-122426D02*
D03*
Y-107426D02*
D03*
X-505381D02*
D03*
Y-122426D02*
D03*
D165*
X-487381Y-114926D02*
D03*
X-505381D02*
D03*
D166*
X-272972Y-97357D02*
D03*
Y-92357D02*
D03*
Y-87357D02*
D03*
Y-82357D02*
D03*
Y-77357D02*
D03*
Y-72357D02*
D03*
Y-67357D02*
D03*
X-320971D02*
D03*
Y-72357D02*
D03*
Y-77357D02*
D03*
Y-82357D02*
D03*
Y-87357D02*
D03*
Y-92357D02*
D03*
Y-97357D02*
D03*
D167*
X-281972Y-58357D02*
D03*
X-286972D02*
D03*
X-291972D02*
D03*
X-296972D02*
D03*
X-301972D02*
D03*
X-306971D02*
D03*
X-311972D02*
D03*
Y-106357D02*
D03*
X-306971D02*
D03*
X-301972D02*
D03*
X-296972D02*
D03*
X-291972D02*
D03*
X-286972D02*
D03*
X-281972D02*
D03*
D168*
X-296972Y-82357D02*
D03*
D169*
X268435Y-154509D02*
D03*
X235435Y-119509D02*
D03*
X268435Y-149509D02*
D03*
Y-144509D02*
D03*
Y-139509D02*
D03*
Y-134509D02*
D03*
Y-129509D02*
D03*
Y-124509D02*
D03*
Y-119509D02*
D03*
X235435Y-124509D02*
D03*
Y-129509D02*
D03*
Y-134509D02*
D03*
Y-139509D02*
D03*
Y-144509D02*
D03*
Y-149509D02*
D03*
Y-154509D02*
D03*
X209632Y-154659D02*
D03*
X176632Y-119660D02*
D03*
X209632Y-149660D02*
D03*
Y-144660D02*
D03*
Y-139660D02*
D03*
Y-134659D02*
D03*
Y-129660D02*
D03*
Y-124660D02*
D03*
Y-119660D02*
D03*
X176632Y-124659D02*
D03*
Y-129659D02*
D03*
Y-134659D02*
D03*
Y-139659D02*
D03*
Y-144659D02*
D03*
Y-149659D02*
D03*
Y-154659D02*
D03*
D170*
X244435Y-115509D02*
D03*
X259435D02*
D03*
X244435Y-158509D02*
D03*
X259435D02*
D03*
X185632Y-115659D02*
D03*
X200632D02*
D03*
X185632Y-158659D02*
D03*
X200632D02*
D03*
D171*
X251935Y-137009D02*
D03*
X193132Y-137159D02*
D03*
D172*
X-403803Y-29709D02*
D03*
Y-24709D02*
D03*
Y-14709D02*
D03*
Y-9709D02*
D03*
X-411603D02*
D03*
Y-14709D02*
D03*
Y-24709D02*
D03*
Y-29709D02*
D03*
X-403691Y-51319D02*
D03*
Y-56319D02*
D03*
Y-66319D02*
D03*
Y-71319D02*
D03*
X-411491Y-71319D02*
D03*
Y-66319D02*
D03*
Y-56319D02*
D03*
Y-51319D02*
D03*
D173*
X-403803Y-19709D02*
D03*
X-411603D02*
D03*
X-403691Y-61319D02*
D03*
X-411491D02*
D03*
D174*
X419125Y-128500D02*
D03*
Y-118500D02*
D03*
Y-108500D02*
D03*
Y-98500D02*
D03*
D175*
X457875Y-85500D02*
D03*
Y-141500D02*
D03*
D176*
X-297628Y-158398D02*
D03*
Y-151898D02*
D03*
Y-145398D02*
D03*
X-275629D02*
D03*
Y-151898D02*
D03*
Y-158398D02*
D03*
D177*
X-349387Y-110877D02*
D03*
X-393587D02*
D03*
D178*
X-452678Y-60455D02*
D03*
Y1546D02*
D03*
D179*
Y-51954D02*
D03*
Y-46954D02*
D03*
Y-41954D02*
D03*
Y-36955D02*
D03*
Y-31955D02*
D03*
Y-26955D02*
D03*
Y-21955D02*
D03*
Y-16954D02*
D03*
X-439678Y545D02*
D03*
Y-4455D02*
D03*
Y-9455D02*
D03*
Y-14454D02*
D03*
Y-19454D02*
D03*
Y-24455D02*
D03*
Y-34455D02*
D03*
Y-39455D02*
D03*
Y-44454D02*
D03*
Y-49454D02*
D03*
Y-54454D02*
D03*
Y-59454D02*
D03*
X-452678Y-11954D02*
D03*
Y-6955D02*
D03*
D180*
X175509Y-81943D02*
D03*
Y-27943D02*
D03*
D181*
X-384829Y-9313D02*
D03*
X-381293Y-5778D02*
D03*
X-374222Y1293D02*
D03*
X-370687Y4829D02*
D03*
X-365171Y-687D02*
D03*
X-368707Y-4222D02*
D03*
X-375778Y-11293D02*
D03*
X-379313Y-14829D02*
D03*
D182*
X-377758Y-2242D02*
D03*
X-372242Y-7758D02*
D03*
D183*
X-311843Y-9359D02*
D03*
Y-5359D02*
D03*
X-298843D02*
D03*
Y-9359D02*
D03*
D184*
X-311343Y140D02*
D03*
X-307343D02*
D03*
X-303343D02*
D03*
X-299343D02*
D03*
Y-14860D02*
D03*
X-303343D02*
D03*
X-307343D02*
D03*
X-311343D02*
D03*
D185*
X28000Y-124380D02*
D03*
X24000D02*
D03*
X20000D02*
D03*
X16000D02*
D03*
X4000D02*
D03*
X0D02*
D03*
X-4000D02*
D03*
X-8000D02*
D03*
X-12000D02*
D03*
X-16000D02*
D03*
X-20000D02*
D03*
X-24000D02*
D03*
X-28000D02*
D03*
Y-100380D02*
D03*
X-24000D02*
D03*
X-20000D02*
D03*
X-16000D02*
D03*
X-12000D02*
D03*
X-8000D02*
D03*
X-4000D02*
D03*
X0D02*
D03*
X4000D02*
D03*
X8000D02*
D03*
X12000D02*
D03*
X16000D02*
D03*
X20000D02*
D03*
X24000D02*
D03*
X28000D02*
D03*
X12000Y-124380D02*
D03*
X8000D02*
D03*
D186*
X-152600Y-2500D02*
D03*
X89400D02*
D03*
Y-244500D02*
D03*
X-152600D02*
D03*
D187*
X259685Y-137009D02*
D03*
X244185D02*
D03*
X251935Y-124259D02*
D03*
X251935Y-149759D02*
D03*
X200882Y-137159D02*
D03*
X185382D02*
D03*
X193132Y-124409D02*
D03*
X193132Y-149909D02*
D03*
M02*
