G04*
G04 #@! TF.GenerationSoftware,Altium Limited,Altium Designer,21.2.2 (38)*
G04*
G04 Layer_Color=255*
%FSLAX44Y44*%
%MOMM*%
G71*
G04*
G04 #@! TF.SameCoordinates,36405A5B-2418-4226-AFD0-962F11BE92B9*
G04*
G04*
G04 #@! TF.FilePolarity,Positive*
G04*
G01*
G75*
%ADD14R,0.6200X0.6200*%
%ADD15R,0.4500X0.5500*%
G04:AMPARAMS|DCode=16|XSize=0.2mm|YSize=0.7mm|CornerRadius=0.05mm|HoleSize=0mm|Usage=FLASHONLY|Rotation=180.000|XOffset=0mm|YOffset=0mm|HoleType=Round|Shape=RoundedRectangle|*
%AMROUNDEDRECTD16*
21,1,0.2000,0.6000,0,0,180.0*
21,1,0.1000,0.7000,0,0,180.0*
1,1,0.1000,-0.0500,0.3000*
1,1,0.1000,0.0500,0.3000*
1,1,0.1000,0.0500,-0.3000*
1,1,0.1000,-0.0500,-0.3000*
%
%ADD16ROUNDEDRECTD16*%
G04:AMPARAMS|DCode=17|XSize=0.2mm|YSize=0.5mm|CornerRadius=0.05mm|HoleSize=0mm|Usage=FLASHONLY|Rotation=270.000|XOffset=0mm|YOffset=0mm|HoleType=Round|Shape=RoundedRectangle|*
%AMROUNDEDRECTD17*
21,1,0.2000,0.4000,0,0,270.0*
21,1,0.1000,0.5000,0,0,270.0*
1,1,0.1000,-0.2000,-0.0500*
1,1,0.1000,-0.2000,0.0500*
1,1,0.1000,0.2000,0.0500*
1,1,0.1000,0.2000,-0.0500*
%
%ADD17ROUNDEDRECTD17*%
%ADD18R,0.1500X0.1500*%
%ADD19R,0.1500X0.1500*%
%ADD20P,0.6788X4X270.0*%
%ADD23R,0.9000X1.6000*%
%ADD24R,0.5000X0.2800*%
%ADD25R,0.5500X0.4500*%
%ADD26R,0.3000X0.7100*%
G04:AMPARAMS|DCode=27|XSize=0.25mm|YSize=0.6mm|CornerRadius=0.025mm|HoleSize=0mm|Usage=FLASHONLY|Rotation=0.000|XOffset=0mm|YOffset=0mm|HoleType=Round|Shape=RoundedRectangle|*
%AMROUNDEDRECTD27*
21,1,0.2500,0.5500,0,0,0.0*
21,1,0.2000,0.6000,0,0,0.0*
1,1,0.0500,0.1000,-0.2750*
1,1,0.0500,-0.1000,-0.2750*
1,1,0.0500,-0.1000,0.2750*
1,1,0.0500,0.1000,0.2750*
%
%ADD27ROUNDEDRECTD27*%
G04:AMPARAMS|DCode=28|XSize=0.25mm|YSize=0.6mm|CornerRadius=0.025mm|HoleSize=0mm|Usage=FLASHONLY|Rotation=270.000|XOffset=0mm|YOffset=0mm|HoleType=Round|Shape=RoundedRectangle|*
%AMROUNDEDRECTD28*
21,1,0.2500,0.5500,0,0,270.0*
21,1,0.2000,0.6000,0,0,270.0*
1,1,0.0500,-0.2750,-0.1000*
1,1,0.0500,-0.2750,0.1000*
1,1,0.0500,0.2750,0.1000*
1,1,0.0500,0.2750,-0.1000*
%
%ADD28ROUNDEDRECTD28*%
%ADD29R,2.0000X0.8000*%
%ADD30R,0.9000X0.7000*%
%ADD31R,0.5200X0.5200*%
%ADD32R,0.3200X0.3600*%
%ADD33R,1.3000X1.5000*%
%ADD34R,2.4000X0.7600*%
%ADD35R,0.7000X0.9000*%
%ADD36R,0.5200X0.5200*%
%ADD37R,1.5000X1.3000*%
%ADD38R,1.0000X0.9000*%
%ADD79R,0.4000X0.9000*%
%ADD80R,0.9000X0.4000*%
G04:AMPARAMS|DCode=81|XSize=1mm|YSize=3mm|CornerRadius=0.05mm|HoleSize=0mm|Usage=FLASHONLY|Rotation=270.000|XOffset=0mm|YOffset=0mm|HoleType=Round|Shape=RoundedRectangle|*
%AMROUNDEDRECTD81*
21,1,1.0000,2.9000,0,0,270.0*
21,1,0.9000,3.0000,0,0,270.0*
1,1,0.1000,-1.4500,-0.4500*
1,1,0.1000,-1.4500,0.4500*
1,1,0.1000,1.4500,0.4500*
1,1,0.1000,1.4500,-0.4500*
%
%ADD81ROUNDEDRECTD81*%
%ADD82C,1.0000*%
%ADD89O,2.5000X4.5000*%
%ADD90O,5.0000X2.5000*%
%ADD91O,4.5000X2.5000*%
%ADD92C,1.8000*%
%ADD93C,5.5000*%
%ADD94R,1.3680X1.3680*%
%ADD95C,1.3680*%
%ADD96C,2.7000*%
%ADD97O,1.1000X1.9000*%
%ADD98O,1.1000X2.4000*%
D14*
X114486Y-231450D02*
D03*
X123486D02*
D03*
D15*
X136999Y-252498D02*
D03*
X145999D02*
D03*
X-500Y-104000D02*
D03*
X8500D02*
D03*
X-11000Y-165500D02*
D03*
X-20000D02*
D03*
X137500Y-231000D02*
D03*
X146500D02*
D03*
X113500Y-242000D02*
D03*
X122500D02*
D03*
X136499Y-282499D02*
D03*
X145499D02*
D03*
X136499Y-272499D02*
D03*
X145499D02*
D03*
X145999Y-262498D02*
D03*
X136999D02*
D03*
D16*
X114249Y-271998D02*
D03*
X118249D02*
D03*
Y-258998D02*
D03*
X114249D02*
D03*
D17*
X123748Y-271498D02*
D03*
Y-267498D02*
D03*
Y-263498D02*
D03*
Y-259498D02*
D03*
X108748D02*
D03*
Y-263498D02*
D03*
Y-267498D02*
D03*
Y-271498D02*
D03*
D18*
X2850Y-223300D02*
D03*
D19*
Y-216700D02*
D03*
X13050Y-223300D02*
D03*
Y-216700D02*
D03*
D20*
X7950Y-220000D02*
D03*
D23*
X-23500Y-181500D02*
D03*
D24*
X-14000Y-189000D02*
D03*
Y-184000D02*
D03*
Y-179000D02*
D03*
Y-174000D02*
D03*
X-33000Y-189000D02*
D03*
Y-184000D02*
D03*
Y-179000D02*
D03*
Y-174000D02*
D03*
D25*
X173000Y-245500D02*
D03*
Y-236500D02*
D03*
X-3500Y-184000D02*
D03*
Y-175000D02*
D03*
X93432Y-253681D02*
D03*
Y-244681D02*
D03*
X129000Y-312000D02*
D03*
Y-321000D02*
D03*
X109000Y-296000D02*
D03*
Y-287000D02*
D03*
X125000Y-296000D02*
D03*
Y-287000D02*
D03*
X115000Y-312000D02*
D03*
Y-321000D02*
D03*
X165000Y-305500D02*
D03*
Y-296500D02*
D03*
X174000Y-305500D02*
D03*
Y-296500D02*
D03*
X173000Y-275500D02*
D03*
Y-266500D02*
D03*
D26*
X188000Y-245100D02*
D03*
X183000Y-232900D02*
D03*
X193000D02*
D03*
X189000Y-305100D02*
D03*
X184000Y-292900D02*
D03*
X194000D02*
D03*
X188000Y-275100D02*
D03*
X183000Y-262900D02*
D03*
X193000D02*
D03*
D27*
X40500Y-278500D02*
D03*
X45500D02*
D03*
X60500D02*
D03*
X65500D02*
D03*
X55500D02*
D03*
X70500Y-255500D02*
D03*
X65500D02*
D03*
X45500D02*
D03*
X50500D02*
D03*
X75500D02*
D03*
X60500D02*
D03*
X55500D02*
D03*
X40500D02*
D03*
X50500Y-278500D02*
D03*
X75500D02*
D03*
X70500D02*
D03*
D28*
X36500Y-264500D02*
D03*
Y-269500D02*
D03*
X79500D02*
D03*
Y-264500D02*
D03*
D29*
X-51500Y-176500D02*
D03*
Y-196500D02*
D03*
D30*
X-178000Y-74000D02*
D03*
Y-88000D02*
D03*
X-37000Y-111000D02*
D03*
Y-97000D02*
D03*
X316000Y-41000D02*
D03*
Y-55000D02*
D03*
X311000Y-1000D02*
D03*
Y-15000D02*
D03*
X24000Y-222000D02*
D03*
Y-208000D02*
D03*
X-165001Y-136749D02*
D03*
Y-150749D02*
D03*
X-85749Y-106999D02*
D03*
Y-92999D02*
D03*
D31*
X94249Y-271999D02*
D03*
Y-279999D02*
D03*
X-29000Y-136000D02*
D03*
Y-128000D02*
D03*
X-20000Y-136000D02*
D03*
Y-128000D02*
D03*
X-26000Y-103000D02*
D03*
Y-111000D02*
D03*
X322000Y-19000D02*
D03*
Y-27000D02*
D03*
Y-8000D02*
D03*
Y0D02*
D03*
X-428000Y-35000D02*
D03*
Y-27000D02*
D03*
Y-18000D02*
D03*
Y-10000D02*
D03*
X17206Y-334711D02*
D03*
Y-342711D02*
D03*
X36000Y-230000D02*
D03*
Y-222000D02*
D03*
D32*
X39249Y-288199D02*
D03*
Y-293799D02*
D03*
X65249Y-288199D02*
D03*
Y-293799D02*
D03*
X59249Y-288199D02*
D03*
Y-293799D02*
D03*
X45249Y-288199D02*
D03*
Y-293799D02*
D03*
D33*
X-319500Y-48000D02*
D03*
X-300500D02*
D03*
X-51500Y-103000D02*
D03*
X-70500D02*
D03*
X-75000Y-125000D02*
D03*
X-94000D02*
D03*
X-59500Y-147000D02*
D03*
X-78500D02*
D03*
X307500Y52000D02*
D03*
X288500D02*
D03*
D34*
X108281Y-83465D02*
D03*
Y-70765D02*
D03*
Y-58065D02*
D03*
Y-45365D02*
D03*
Y-32665D02*
D03*
X69281Y-83465D02*
D03*
Y-70765D02*
D03*
Y-58065D02*
D03*
Y-45365D02*
D03*
Y-32665D02*
D03*
X108281D02*
D03*
X69281D02*
D03*
X-135500Y-322600D02*
D03*
Y-335300D02*
D03*
Y-348000D02*
D03*
Y-360700D02*
D03*
Y-373400D02*
D03*
X-96500Y-322600D02*
D03*
Y-335300D02*
D03*
Y-348000D02*
D03*
Y-360700D02*
D03*
Y-373400D02*
D03*
X-135500D02*
D03*
X-96500D02*
D03*
X-80320Y-14272D02*
D03*
Y-1572D02*
D03*
Y11128D02*
D03*
Y23828D02*
D03*
Y36528D02*
D03*
X-119320Y-14272D02*
D03*
Y-1572D02*
D03*
Y11128D02*
D03*
Y23828D02*
D03*
Y36528D02*
D03*
X-80320D02*
D03*
X-119320D02*
D03*
D35*
X-46000Y-147000D02*
D03*
X-32000D02*
D03*
X-47000Y-120000D02*
D03*
X-61000D02*
D03*
X326000Y56000D02*
D03*
X340000D02*
D03*
X-13000Y-250000D02*
D03*
X-27000D02*
D03*
X1000Y-250000D02*
D03*
X15000D02*
D03*
X-127001Y-122749D02*
D03*
X-141001D02*
D03*
X-99749Y-68999D02*
D03*
X-113749D02*
D03*
X-32500Y-199500D02*
D03*
X-18500D02*
D03*
X-43500Y-163500D02*
D03*
X-29500D02*
D03*
X-165000Y-112000D02*
D03*
X-151000D02*
D03*
D36*
X12000Y-203000D02*
D03*
X4000D02*
D03*
X137999Y-242499D02*
D03*
X145999D02*
D03*
D37*
X298000Y-35500D02*
D03*
Y-54500D02*
D03*
X-431000Y36500D02*
D03*
Y55500D02*
D03*
D38*
X-16000Y-291000D02*
D03*
Y-275000D02*
D03*
X4000Y-291000D02*
D03*
Y-275000D02*
D03*
D79*
X-112249Y-104999D02*
D03*
Y-82999D02*
D03*
X-99249Y-104999D02*
D03*
Y-82999D02*
D03*
X-105749D02*
D03*
X-158000Y-98000D02*
D03*
X-164500D02*
D03*
Y-76000D02*
D03*
X-151500Y-98000D02*
D03*
Y-76000D02*
D03*
D80*
X-151001Y-142749D02*
D03*
Y-136249D02*
D03*
X-129001D02*
D03*
X-151001Y-149249D02*
D03*
X-129001D02*
D03*
D81*
X58000Y-267000D02*
D03*
D82*
X40000Y-370000D02*
D03*
X-480000Y50000D02*
D03*
X480000Y-50000D02*
D03*
X-39513Y-349115D02*
D03*
X-133720Y-259925D02*
D03*
X190699Y-123507D02*
D03*
X165477Y-114557D02*
D03*
X-140000Y-171000D02*
D03*
X-81610Y-294216D02*
D03*
X183916Y-85428D02*
D03*
X34552Y-188765D02*
D03*
X263078Y-56329D02*
D03*
X-198081Y-46227D02*
D03*
X226498Y52000D02*
D03*
X-104103Y-152282D02*
D03*
X149778Y-90273D02*
D03*
X25941Y-123701D02*
D03*
X-431211Y-50750D02*
D03*
X175000Y32000D02*
D03*
X-2000Y-335265D02*
D03*
D89*
X-108250Y-287750D02*
D03*
D90*
X-60000Y-258000D02*
D03*
D91*
X-60000Y-318000D02*
D03*
D92*
X-60000Y-359750D02*
D03*
D93*
X465000Y0D02*
D03*
X-180000Y-360000D02*
D03*
X180000D02*
D03*
X-465000Y0D02*
D03*
D94*
X-175000Y-285000D02*
D03*
D95*
X-155000D02*
D03*
D96*
X71000Y-211000D02*
D03*
Y31000D02*
D03*
X-171000D02*
D03*
Y-211000D02*
D03*
D97*
X103200Y-319600D02*
D03*
X16800D02*
D03*
D98*
X103200Y-373200D02*
D03*
X16800D02*
D03*
M02*
