G04*
G04 #@! TF.GenerationSoftware,Altium Limited,Altium Designer,19.1.8 (144)*
G04*
G04 Layer_Color=2752767*
%FSLAX44Y44*%
%MOMM*%
G71*
G01*
G75*
%ADD137C,0.0508*%
%ADD138C,0.0677*%
%ADD139C,0.0339*%
D137*
X-110282Y-289782D02*
Y-285718D01*
X-106218D01*
Y-289782D01*
X-110282D01*
X-62032Y-320032D02*
Y-315968D01*
X-57968D01*
Y-320032D01*
X-62032D01*
X-60000Y-361782D02*
X-62032Y-357718D01*
X-57968D01*
X-60000Y-361782D01*
X465000Y-2032D02*
X466016Y-1016D01*
X467032D01*
X466016Y0D01*
X467032Y1016D01*
X466016D01*
X465000Y2032D01*
X463984Y1016D01*
X462968D01*
X463984Y0D01*
X462968Y-1016D01*
X463984D01*
X465000Y-2032D01*
X-177032Y-287032D02*
X-176016Y-285000D01*
X-177032Y-282968D01*
X-175000Y-283984D01*
X-172968Y-282968D01*
X-173984Y-285000D01*
X-172968Y-287032D01*
X-175000Y-286016D01*
X-177032Y-287032D01*
X-157032D02*
X-156016Y-285000D01*
X-157032Y-282968D01*
X-155000Y-283984D01*
X-152968Y-282968D01*
X-153984Y-285000D01*
X-152968Y-287032D01*
X-155000Y-286016D01*
X-157032Y-287032D01*
X69984Y-212016D02*
Y-213032D01*
X72016D01*
Y-212016D01*
X73032D01*
Y-209984D01*
X72016D01*
Y-208968D01*
X69984D01*
Y-209984D01*
X68968D01*
Y-212016D01*
X69984D01*
X101168Y-321632D02*
X102184D01*
X103200Y-320616D01*
X104216Y-321632D01*
X105232D01*
Y-320616D01*
X104216Y-319600D01*
X105232Y-318584D01*
Y-317568D01*
X104216D01*
X103200Y-318584D01*
X102184Y-317568D01*
X101168D01*
Y-318584D01*
X102184Y-319600D01*
X101168Y-320616D01*
Y-321632D01*
Y-373200D02*
X103200Y-371168D01*
X105232Y-373200D01*
X103200Y-375232D01*
X101168Y-373200D01*
X14768D02*
X16800Y-371168D01*
X18832Y-373200D01*
X16800Y-375232D01*
X14768Y-373200D01*
Y-321632D02*
X15784D01*
X16800Y-320616D01*
X17816Y-321632D01*
X18832D01*
Y-320616D01*
X17816Y-319600D01*
X18832Y-318584D01*
Y-317568D01*
X17816D01*
X16800Y-318584D01*
X15784Y-317568D01*
X14768D01*
Y-318584D01*
X15784Y-319600D01*
X14768Y-320616D01*
Y-321632D01*
X-180000Y-362032D02*
X-178984Y-361016D01*
X-177968D01*
X-178984Y-360000D01*
X-177968Y-358984D01*
X-178984D01*
X-180000Y-357968D01*
X-181016Y-358984D01*
X-182032D01*
X-181016Y-360000D01*
X-182032Y-361016D01*
X-181016D01*
X-180000Y-362032D01*
X180000D02*
X181016Y-361016D01*
X182032D01*
X181016Y-360000D01*
X182032Y-358984D01*
X181016D01*
X180000Y-357968D01*
X178984Y-358984D01*
X177968D01*
X178984Y-360000D01*
X177968Y-361016D01*
X178984D01*
X180000Y-362032D01*
X-465000Y-2032D02*
X-463984Y-1016D01*
X-462968D01*
X-463984Y0D01*
X-462968Y1016D01*
X-463984D01*
X-465000Y2032D01*
X-466016Y1016D01*
X-467032D01*
X-466016Y0D01*
X-467032Y-1016D01*
X-466016D01*
X-465000Y-2032D01*
X69984Y29984D02*
Y28968D01*
X72016D01*
Y29984D01*
X73032D01*
Y32016D01*
X72016D01*
Y33032D01*
X69984D01*
Y32016D01*
X68968D01*
Y29984D01*
X69984D01*
X-172016D02*
Y28968D01*
X-169984D01*
Y29984D01*
X-168968D01*
Y32016D01*
X-169984D01*
Y33032D01*
X-172016D01*
Y32016D01*
X-173032D01*
Y29984D01*
X-172016D01*
Y-212016D02*
Y-213032D01*
X-169984D01*
Y-212016D01*
X-168968D01*
Y-209984D01*
X-169984D01*
Y-208968D01*
X-172016D01*
Y-209984D01*
X-173032D01*
Y-212016D01*
X-172016D01*
X-25036Y-353322D02*
Y-349258D01*
X-20972D01*
Y-353322D01*
X-25036D01*
X-24020Y-352306D02*
Y-350274D01*
X-21988D01*
Y-352306D01*
X-24020D01*
X-97641Y-315747D02*
Y-311683D01*
X-93577D01*
Y-315747D01*
X-97641D01*
X-96625Y-314731D02*
Y-312699D01*
X-94593D01*
Y-314731D01*
X-96625D01*
X-120889Y-375711D02*
Y-371647D01*
X-116825D01*
Y-375711D01*
X-120889D01*
X-119873Y-374695D02*
Y-372663D01*
X-117841D01*
Y-374695D01*
X-119873D01*
X-121050Y-337815D02*
Y-333751D01*
X-116986D01*
Y-337815D01*
X-121050D01*
X-120034Y-336799D02*
Y-334767D01*
X-118002D01*
Y-336799D01*
X-120034D01*
X-120889Y-363178D02*
Y-359114D01*
X-116825D01*
Y-363178D01*
X-120889D01*
X-119873Y-362162D02*
Y-360130D01*
X-117841D01*
Y-362162D01*
X-119873D01*
X-121171Y-350518D02*
Y-346454D01*
X-117107D01*
Y-350518D01*
X-121171D01*
X-120155Y-349502D02*
Y-347470D01*
X-118123D01*
Y-349502D01*
X-120155D01*
X-152654Y-325606D02*
Y-321542D01*
X-148590D01*
Y-325606D01*
X-152654D01*
X-151638Y-324590D02*
Y-322558D01*
X-149607D01*
Y-324590D01*
X-151638D01*
X-115282Y-381282D02*
Y-377218D01*
X-111218D01*
Y-381282D01*
X-115282D01*
X-114266Y-380266D02*
Y-378234D01*
X-112234D01*
Y-380266D01*
X-114266D01*
X330968Y39968D02*
Y44032D01*
X335032D01*
Y39968D01*
X330968D01*
X331984Y40984D02*
Y43016D01*
X334016D01*
Y40984D01*
X331984D01*
X347968Y59968D02*
Y64032D01*
X352032D01*
Y59968D01*
X347968D01*
X348984Y60984D02*
Y63016D01*
X351016D01*
Y60984D01*
X348984D01*
X299968Y-3032D02*
Y1032D01*
X304032D01*
Y-3032D01*
X299968D01*
X300984Y-2016D02*
Y16D01*
X303016D01*
Y-2016D01*
X300984D01*
X327968Y-9032D02*
Y-4968D01*
X332032D01*
Y-9032D01*
X327968D01*
X328984Y-8016D02*
Y-5984D01*
X331016D01*
Y-8016D01*
X328984D01*
X-420032Y-40032D02*
Y-35968D01*
X-415968D01*
Y-40032D01*
X-420032D01*
X-419016Y-39016D02*
Y-36984D01*
X-416984D01*
Y-39016D01*
X-419016D01*
X-417032Y-33032D02*
Y-28968D01*
X-412968D01*
Y-33032D01*
X-417032D01*
X-416016Y-32016D02*
Y-29984D01*
X-413984D01*
Y-32016D01*
X-416016D01*
X-421032Y-12032D02*
Y-7968D01*
X-416968D01*
Y-12032D01*
X-421032D01*
X-420016Y-11016D02*
Y-8984D01*
X-417984D01*
Y-11016D01*
X-420016D01*
X-421032Y-20032D02*
Y-15968D01*
X-416968D01*
Y-20032D01*
X-421032D01*
X-420016Y-19016D02*
Y-16984D01*
X-417984D01*
Y-19016D01*
X-420016D01*
X48218Y-213032D02*
Y-208968D01*
X52282D01*
Y-213032D01*
X48218D01*
X49234Y-212016D02*
Y-209984D01*
X51266D01*
Y-212016D01*
X49234D01*
X89718Y-213032D02*
Y-208968D01*
X93782D01*
Y-213032D01*
X89718D01*
X90734Y-212016D02*
Y-209984D01*
X92766D01*
Y-212016D01*
X90734D01*
X68968Y-233782D02*
Y-229718D01*
X73032D01*
Y-233782D01*
X68968D01*
X69984Y-232766D02*
Y-230734D01*
X72016D01*
Y-232766D01*
X69984D01*
X68968Y-192282D02*
Y-188218D01*
X73032D01*
Y-192282D01*
X68968D01*
X69984Y-191266D02*
Y-189234D01*
X72016D01*
Y-191266D01*
X69984D01*
X83640Y14296D02*
Y18360D01*
X87704D01*
Y14296D01*
X83640D01*
X84656Y15312D02*
Y17344D01*
X86688D01*
Y15312D01*
X84656D01*
X54296Y43640D02*
Y47705D01*
X58359D01*
Y43640D01*
X54296D01*
X55311Y44657D02*
Y46688D01*
X57344D01*
Y44657D01*
X55311D01*
X54296Y14296D02*
Y18360D01*
X58359D01*
Y14296D01*
X54296D01*
X55311Y15312D02*
Y17344D01*
X57344D01*
Y15312D01*
X55311D01*
X83640Y43640D02*
Y47705D01*
X87704D01*
Y43640D01*
X83640D01*
X84656Y44657D02*
Y46688D01*
X86688D01*
Y44657D01*
X84656D01*
X-158360Y43640D02*
Y47705D01*
X-154296D01*
Y43640D01*
X-158360D01*
X-157344Y44657D02*
Y46688D01*
X-155312D01*
Y44657D01*
X-157344D01*
X-187705Y14296D02*
Y18360D01*
X-183640D01*
Y14296D01*
X-187705D01*
X-186688Y15312D02*
Y17344D01*
X-184657D01*
Y15312D01*
X-186688D01*
X-187705Y43640D02*
Y47705D01*
X-183640D01*
Y43640D01*
X-187705D01*
X-186688Y44657D02*
Y46688D01*
X-184657D01*
Y44657D01*
X-186688D01*
X-158360Y14296D02*
Y18360D01*
X-154296D01*
Y14296D01*
X-158360D01*
X-157344Y15312D02*
Y17344D01*
X-155312D01*
Y15312D01*
X-157344D01*
X-173032Y-192282D02*
Y-188218D01*
X-168968D01*
Y-192282D01*
X-173032D01*
X-172016Y-191266D02*
Y-189234D01*
X-169984D01*
Y-191266D01*
X-172016D01*
X-173032Y-233782D02*
Y-229718D01*
X-168968D01*
Y-233782D01*
X-173032D01*
X-172016Y-232766D02*
Y-230734D01*
X-169984D01*
Y-232766D01*
X-172016D01*
X-152282Y-213032D02*
Y-208968D01*
X-148218D01*
Y-213032D01*
X-152282D01*
X-151266Y-212016D02*
Y-209984D01*
X-149234D01*
Y-212016D01*
X-151266D01*
X-193782Y-213032D02*
Y-208968D01*
X-189718D01*
Y-213032D01*
X-193782D01*
X-192766Y-212016D02*
Y-209984D01*
X-190734D01*
Y-212016D01*
X-192766D01*
X204Y-356444D02*
Y-352380D01*
X4268D01*
Y-356444D01*
X204D01*
X1220Y-355428D02*
Y-353396D01*
X3252D01*
Y-355428D01*
X1220D01*
X128968Y-294032D02*
Y-289968D01*
X133032D01*
Y-294032D01*
X128968D01*
X129984Y-293016D02*
Y-290984D01*
X132016D01*
Y-293016D01*
X129984D01*
X108116Y-253236D02*
Y-249172D01*
X112180D01*
Y-253236D01*
X108116D01*
X109132Y-252220D02*
Y-250188D01*
X111164D01*
Y-252220D01*
X109132D01*
X153968Y-103032D02*
Y-98968D01*
X158032D01*
Y-103032D01*
X153968D01*
X154984Y-102016D02*
Y-99984D01*
X157016D01*
Y-102016D01*
X154984D01*
X-83032Y41968D02*
Y46032D01*
X-78968D01*
Y41968D01*
X-83032D01*
X-82016Y42984D02*
Y45016D01*
X-79984D01*
Y42984D01*
X-82016D01*
X-139032Y34968D02*
Y39032D01*
X-134968D01*
Y34968D01*
X-139032D01*
X-138016Y35984D02*
Y38016D01*
X-135984D01*
Y35984D01*
X-138016D01*
X-105032Y22968D02*
Y27032D01*
X-100968D01*
Y22968D01*
X-105032D01*
X-104016Y23984D02*
Y26016D01*
X-101984D01*
Y23984D01*
X-104016D01*
X-100032Y16968D02*
Y21032D01*
X-95968D01*
Y16968D01*
X-100032D01*
X-99016Y17984D02*
Y20016D01*
X-96984D01*
Y17984D01*
X-99016D01*
X-100032Y28968D02*
Y33032D01*
X-95968D01*
Y28968D01*
X-100032D01*
X-99016Y29984D02*
Y32016D01*
X-96984D01*
Y29984D01*
X-99016D01*
X-140032Y9968D02*
Y14032D01*
X-135968D01*
Y9968D01*
X-140032D01*
X-139016Y10984D02*
Y13016D01*
X-136984D01*
Y10984D01*
X-139016D01*
X-32032Y17968D02*
Y22032D01*
X-27968D01*
Y17968D01*
X-32032D01*
X-31016Y18984D02*
Y21016D01*
X-28984D01*
Y18984D01*
X-31016D01*
X-32032Y27968D02*
Y32032D01*
X-27968D01*
Y27968D01*
X-32032D01*
X-31016Y28984D02*
Y31016D01*
X-28984D01*
Y28984D01*
X-31016D01*
X-104032Y4968D02*
Y9032D01*
X-99968D01*
Y4968D01*
X-104032D01*
X-103016Y5984D02*
Y8016D01*
X-100984D01*
Y5984D01*
X-103016D01*
X159968Y12968D02*
Y17032D01*
X164032D01*
Y12968D01*
X159968D01*
X160984Y13984D02*
Y16016D01*
X163016D01*
Y13984D01*
X160984D01*
X95968Y-107032D02*
Y-102968D01*
X100032D01*
Y-107032D01*
X95968D01*
X96984Y-106016D02*
Y-103984D01*
X99016D01*
Y-106016D01*
X96984D01*
X83968Y-101032D02*
Y-96968D01*
X88032D01*
Y-101032D01*
X83968D01*
X84984Y-100016D02*
Y-97984D01*
X87016D01*
Y-100016D01*
X84984D01*
X124735Y-106013D02*
Y-101949D01*
X128799D01*
Y-106013D01*
X124735D01*
X125751Y-104997D02*
Y-102965D01*
X127783D01*
Y-104997D01*
X125751D01*
X107872Y-106032D02*
Y-101968D01*
X111936D01*
Y-106032D01*
X107872D01*
X108888Y-105016D02*
Y-102984D01*
X110920D01*
Y-105016D01*
X108888D01*
X170968Y-74032D02*
Y-69968D01*
X175032D01*
Y-74032D01*
X170968D01*
X171984Y-73016D02*
Y-70984D01*
X174016D01*
Y-73016D01*
X171984D01*
X171968Y-80425D02*
Y-76361D01*
X176032D01*
Y-80425D01*
X171968D01*
X172984Y-79409D02*
Y-77377D01*
X175016D01*
Y-79409D01*
X172984D01*
X22968Y-271032D02*
Y-266968D01*
X27032D01*
Y-271032D01*
X22968D01*
X23984Y-270016D02*
Y-267984D01*
X26016D01*
Y-270016D01*
X23984D01*
X-9032Y60968D02*
Y65032D01*
X-4968D01*
Y60968D01*
X-9032D01*
X-8016Y61984D02*
Y64016D01*
X-5984D01*
Y61984D01*
X-8016D01*
X98968Y60968D02*
Y65032D01*
X103032D01*
Y60968D01*
X98968D01*
X99984Y61984D02*
Y64016D01*
X102016D01*
Y61984D01*
X99984D01*
X205010Y45005D02*
Y49069D01*
X209074D01*
Y45005D01*
X205010D01*
X206026Y46021D02*
Y48053D01*
X208058D01*
Y46021D01*
X206026D01*
X-180032Y-60032D02*
Y-55968D01*
X-175968D01*
Y-60032D01*
X-180032D01*
X-179016Y-59016D02*
Y-56984D01*
X-176984D01*
Y-59016D01*
X-179016D01*
X-281032Y37968D02*
Y42032D01*
X-276968D01*
Y37968D01*
X-281032D01*
X-280016Y38984D02*
Y41016D01*
X-277984D01*
Y38984D01*
X-280016D01*
X-62032Y-166032D02*
Y-161968D01*
X-57968D01*
Y-166032D01*
X-62032D01*
X-61016Y-165016D02*
Y-162984D01*
X-58984D01*
Y-165016D01*
X-61016D01*
X272968Y-48032D02*
Y-43968D01*
X277032D01*
Y-48032D01*
X272968D01*
X273984Y-47016D02*
Y-44984D01*
X276016D01*
Y-47016D01*
X273984D01*
X224968Y-21032D02*
Y-16968D01*
X229032D01*
Y-21032D01*
X224968D01*
X225984Y-20016D02*
Y-17984D01*
X228016D01*
Y-20016D01*
X225984D01*
X219968Y33968D02*
Y38032D01*
X224032D01*
Y33968D01*
X219968D01*
X220984Y34984D02*
Y37016D01*
X223016D01*
Y34984D01*
X220984D01*
X-42032Y37968D02*
Y42032D01*
X-37968D01*
Y37968D01*
X-42032D01*
X-41016Y38984D02*
Y41016D01*
X-38984D01*
Y38984D01*
X-41016D01*
X37968Y27968D02*
Y32032D01*
X42032D01*
Y27968D01*
X37968D01*
X38984Y28984D02*
Y31016D01*
X41016D01*
Y28984D01*
X38984D01*
X37968Y17968D02*
Y22032D01*
X42032D01*
Y17968D01*
X37968D01*
X38984Y18984D02*
Y21016D01*
X41016D01*
Y18984D01*
X38984D01*
X37968Y37968D02*
Y42032D01*
X42032D01*
Y37968D01*
X37968D01*
X38984Y38984D02*
Y41016D01*
X41016D01*
Y38984D01*
X38984D01*
X27968Y27968D02*
Y32032D01*
X32032D01*
Y27968D01*
X27968D01*
X28984Y28984D02*
Y31016D01*
X31016D01*
Y28984D01*
X28984D01*
X27968Y17968D02*
Y22032D01*
X32032D01*
Y17968D01*
X27968D01*
X28984Y18984D02*
Y21016D01*
X31016D01*
Y18984D01*
X28984D01*
X27968Y37968D02*
Y42032D01*
X32032D01*
Y37968D01*
X27968D01*
X28984Y38984D02*
Y41016D01*
X31016D01*
Y38984D01*
X28984D01*
X-32032Y37968D02*
Y42032D01*
X-27968D01*
Y37968D01*
X-32032D01*
X-31016Y38984D02*
Y41016D01*
X-28984D01*
Y38984D01*
X-31016D01*
X-22032Y37968D02*
Y42032D01*
X-17968D01*
Y37968D01*
X-22032D01*
X-21016Y38984D02*
Y41016D01*
X-18984D01*
Y38984D01*
X-21016D01*
X-12032Y37968D02*
Y42032D01*
X-7968D01*
Y37968D01*
X-12032D01*
X-11016Y38984D02*
Y41016D01*
X-8984D01*
Y38984D01*
X-11016D01*
X-2032Y37968D02*
Y42032D01*
X2032D01*
Y37968D01*
X-2032D01*
X-1016Y38984D02*
Y41016D01*
X1016D01*
Y38984D01*
X-1016D01*
X7968Y37968D02*
Y42032D01*
X12032D01*
Y37968D01*
X7968D01*
X8984Y38984D02*
Y41016D01*
X11016D01*
Y38984D01*
X8984D01*
X17968Y37968D02*
Y42032D01*
X22032D01*
Y37968D01*
X17968D01*
X18984Y38984D02*
Y41016D01*
X21016D01*
Y38984D01*
X18984D01*
X-22032Y17968D02*
Y22032D01*
X-17968D01*
Y17968D01*
X-22032D01*
X-21016Y18984D02*
Y21016D01*
X-18984D01*
Y18984D01*
X-21016D01*
X-12032Y17968D02*
Y22032D01*
X-7968D01*
Y17968D01*
X-12032D01*
X-11016Y18984D02*
Y21016D01*
X-8984D01*
Y18984D01*
X-11016D01*
X-2032Y17968D02*
Y22032D01*
X2032D01*
Y17968D01*
X-2032D01*
X-1016Y18984D02*
Y21016D01*
X1016D01*
Y18984D01*
X-1016D01*
X7968Y17968D02*
Y22032D01*
X12032D01*
Y17968D01*
X7968D01*
X8984Y18984D02*
Y21016D01*
X11016D01*
Y18984D01*
X8984D01*
X17968Y17968D02*
Y22032D01*
X22032D01*
Y17968D01*
X17968D01*
X18984Y18984D02*
Y21016D01*
X21016D01*
Y18984D01*
X18984D01*
X17968Y27968D02*
Y32032D01*
X22032D01*
Y27968D01*
X17968D01*
X18984Y28984D02*
Y31016D01*
X21016D01*
Y28984D01*
X18984D01*
X7968Y27968D02*
Y32032D01*
X12032D01*
Y27968D01*
X7968D01*
X8984Y28984D02*
Y31016D01*
X11016D01*
Y28984D01*
X8984D01*
X-2032Y27968D02*
Y32032D01*
X2032D01*
Y27968D01*
X-2032D01*
X-1016Y28984D02*
Y31016D01*
X1016D01*
Y28984D01*
X-1016D01*
X-12032Y27968D02*
Y32032D01*
X-7968D01*
Y27968D01*
X-12032D01*
X-11016Y28984D02*
Y31016D01*
X-8984D01*
Y28984D01*
X-11016D01*
X-22032Y27968D02*
Y32032D01*
X-17968D01*
Y27968D01*
X-22032D01*
X-21016Y28984D02*
Y31016D01*
X-18984D01*
Y28984D01*
X-21016D01*
X-55157Y38593D02*
Y42657D01*
X-51093D01*
Y38593D01*
X-55157D01*
X-54141Y39609D02*
Y41641D01*
X-52109D01*
Y39609D01*
X-54141D01*
X-42032Y27968D02*
Y32032D01*
X-37968D01*
Y27968D01*
X-42032D01*
X-41016Y28984D02*
Y31016D01*
X-38984D01*
Y28984D01*
X-41016D01*
X169718Y41968D02*
Y46032D01*
X173782D01*
Y41968D01*
X169718D01*
X170734Y42984D02*
Y45016D01*
X172766D01*
Y42984D01*
X170734D01*
X245968Y56468D02*
Y60532D01*
X250032D01*
Y56468D01*
X245968D01*
X246984Y57484D02*
Y59516D01*
X249016D01*
Y57484D01*
X246984D01*
X-249032Y59468D02*
Y63532D01*
X-244968D01*
Y59468D01*
X-249032D01*
X-248016Y60484D02*
Y62516D01*
X-245984D01*
Y60484D01*
X-248016D01*
X-96532Y59218D02*
Y63282D01*
X-92468D01*
Y59218D01*
X-96532D01*
X-95516Y60234D02*
Y62266D01*
X-93484D01*
Y60234D01*
X-95516D01*
X-392532Y-61532D02*
Y-57468D01*
X-388468D01*
Y-61532D01*
X-392532D01*
X-391516Y-60516D02*
Y-58484D01*
X-389484D01*
Y-60516D01*
X-391516D01*
X437468Y56468D02*
Y60532D01*
X441532D01*
Y56468D01*
X437468D01*
X438484Y57484D02*
Y59516D01*
X440516D01*
Y57484D01*
X438484D01*
X489218Y-33782D02*
Y-29718D01*
X493282D01*
Y-33782D01*
X489218D01*
X490234Y-32766D02*
Y-30734D01*
X492266D01*
Y-32766D01*
X490234D01*
X401968Y-57782D02*
Y-53718D01*
X406032D01*
Y-57782D01*
X401968D01*
X402984Y-56766D02*
Y-54734D01*
X405016D01*
Y-56766D01*
X402984D01*
X341968Y-58032D02*
Y-53968D01*
X346032D01*
Y-58032D01*
X341968D01*
X342984Y-57016D02*
Y-54984D01*
X345016D01*
Y-57016D01*
X342984D01*
X216718Y-63782D02*
Y-59718D01*
X220782D01*
Y-63782D01*
X216718D01*
X217734Y-62766D02*
Y-60734D01*
X219766D01*
Y-62766D01*
X217734D01*
X11218Y-179032D02*
Y-174968D01*
X15282D01*
Y-179032D01*
X11218D01*
X12234Y-178016D02*
Y-175984D01*
X14266D01*
Y-178016D01*
X12234D01*
X117718Y-227282D02*
Y-223218D01*
X121782D01*
Y-227282D01*
X117718D01*
X118734Y-226266D02*
Y-224234D01*
X120766D01*
Y-226266D01*
X118734D01*
X84968Y-119782D02*
Y-115718D01*
X89032D01*
Y-119782D01*
X84968D01*
X85984Y-118766D02*
Y-116734D01*
X88016D01*
Y-118766D01*
X85984D01*
X-61782Y-69032D02*
Y-64968D01*
X-57718D01*
Y-69032D01*
X-61782D01*
X-60766Y-68016D02*
Y-65984D01*
X-58734D01*
Y-68016D01*
X-60766D01*
X-114782Y-140282D02*
Y-136218D01*
X-110718D01*
Y-140282D01*
X-114782D01*
X-113766Y-139266D02*
Y-137234D01*
X-111734D01*
Y-139266D01*
X-113766D01*
X-26282Y-378782D02*
Y-374718D01*
X-22218D01*
Y-378782D01*
X-26282D01*
X-25266Y-377766D02*
Y-375734D01*
X-23234D01*
Y-377766D01*
X-25266D01*
X-196782Y-258282D02*
Y-254218D01*
X-192718D01*
Y-258282D01*
X-196782D01*
X-195766Y-257266D02*
Y-255234D01*
X-193734D01*
Y-257266D01*
X-195766D01*
X-195032Y-112282D02*
Y-108218D01*
X-190968D01*
Y-112282D01*
X-195032D01*
X-194016Y-111266D02*
Y-109234D01*
X-191984D01*
Y-111266D01*
X-194016D01*
X-238032Y-64032D02*
Y-59968D01*
X-233968D01*
Y-64032D01*
X-238032D01*
X-237016Y-63016D02*
Y-60984D01*
X-234984D01*
Y-63016D01*
X-237016D01*
X-358782Y-61532D02*
Y-57468D01*
X-354718D01*
Y-61532D01*
X-358782D01*
X-357766Y-60516D02*
Y-58484D01*
X-355734D01*
Y-60516D01*
X-357766D01*
X-456032Y-61782D02*
Y-57718D01*
X-451968D01*
Y-61782D01*
X-456032D01*
X-455016Y-60766D02*
Y-58734D01*
X-452984D01*
Y-60766D01*
X-455016D01*
X-457782Y58968D02*
Y63032D01*
X-453718D01*
Y58968D01*
X-457782D01*
X-456766Y59984D02*
Y62016D01*
X-454734D01*
Y59984D01*
X-456766D01*
X155968Y-70032D02*
Y-65968D01*
X160032D01*
Y-70032D01*
X155968D01*
X156984Y-69016D02*
Y-66984D01*
X159016D01*
Y-69016D01*
X156984D01*
X155535Y-82013D02*
Y-77949D01*
X159599D01*
Y-82013D01*
X155535D01*
X156551Y-80997D02*
Y-78965D01*
X158583D01*
Y-80997D01*
X156551D01*
X147475Y-65035D02*
Y-60971D01*
X151539D01*
Y-65035D01*
X147475D01*
X148491Y-64019D02*
Y-61987D01*
X150523D01*
Y-64019D01*
X148491D01*
X153968Y24968D02*
Y29032D01*
X158032D01*
Y24968D01*
X153968D01*
X154984Y25984D02*
Y28016D01*
X157016D01*
Y25984D01*
X154984D01*
X150968Y31968D02*
Y36032D01*
X155032D01*
Y31968D01*
X150968D01*
X151984Y32984D02*
Y35016D01*
X154016D01*
Y32984D01*
X151984D01*
X147968Y-82032D02*
Y-77968D01*
X152032D01*
Y-82032D01*
X147968D01*
X148984Y-81016D02*
Y-78984D01*
X151016D01*
Y-81016D01*
X148984D01*
X-386743Y24508D02*
Y28572D01*
X-382679D01*
Y24508D01*
X-386743D01*
X-385727Y25524D02*
Y27556D01*
X-383695D01*
Y25524D01*
X-385727D01*
X-379823Y20845D02*
Y24909D01*
X-375759D01*
Y20845D01*
X-379823D01*
X-378807Y21861D02*
Y23893D01*
X-376775D01*
Y21861D01*
X-378807D01*
X129968Y36968D02*
Y41032D01*
X134032D01*
Y36968D01*
X129968D01*
X130984Y37984D02*
Y40016D01*
X133016D01*
Y37984D01*
X130984D01*
X136968Y19968D02*
Y24032D01*
X141032D01*
Y19968D01*
X136968D01*
X137984Y20984D02*
Y23016D01*
X140016D01*
Y20984D01*
X137984D01*
X143968Y26968D02*
Y31032D01*
X148032D01*
Y26968D01*
X143968D01*
X144984Y27984D02*
Y30016D01*
X147016D01*
Y27984D01*
X144984D01*
X121968Y-54032D02*
Y-49968D01*
X126032D01*
Y-54032D01*
X121968D01*
X122984Y-53016D02*
Y-50984D01*
X125016D01*
Y-53016D01*
X122984D01*
X121968Y-43032D02*
Y-38968D01*
X126032D01*
Y-43032D01*
X121968D01*
X122984Y-42016D02*
Y-39984D01*
X125016D01*
Y-42016D01*
X122984D01*
X143968Y17968D02*
Y22032D01*
X148032D01*
Y17968D01*
X143968D01*
X144984Y18984D02*
Y21016D01*
X147016D01*
Y18984D01*
X144984D01*
X124968Y-6192D02*
Y-2128D01*
X129032D01*
Y-6192D01*
X124968D01*
X125984Y-5176D02*
Y-3144D01*
X128016D01*
Y-5176D01*
X125984D01*
X124968Y5968D02*
Y10032D01*
X129032D01*
Y5968D01*
X124968D01*
X125984Y6984D02*
Y9016D01*
X128016D01*
Y6984D01*
X125984D01*
X143968Y37968D02*
Y42032D01*
X148032D01*
Y37968D01*
X143968D01*
X144984Y38984D02*
Y41016D01*
X147016D01*
Y38984D01*
X144984D01*
X137968Y44968D02*
Y49032D01*
X142032D01*
Y44968D01*
X137968D01*
X138984Y45984D02*
Y48016D01*
X141016D01*
Y45984D01*
X138984D01*
X182968Y-52654D02*
Y-48590D01*
X187032D01*
Y-52654D01*
X182968D01*
X183984Y-51638D02*
Y-49606D01*
X186016D01*
Y-51638D01*
X183984D01*
X159201Y-290779D02*
Y-286715D01*
X163265D01*
Y-290779D01*
X159201D01*
X160217Y-289763D02*
Y-287731D01*
X162249D01*
Y-289763D01*
X160217D01*
X180018Y-303189D02*
Y-299125D01*
X184082D01*
Y-303189D01*
X180018D01*
X181034Y-302173D02*
Y-300141D01*
X183066D01*
Y-302173D01*
X181034D01*
X138968Y-239032D02*
Y-234968D01*
X143032D01*
Y-239032D01*
X138968D01*
X139984Y-238016D02*
Y-235984D01*
X142016D01*
Y-238016D01*
X139984D01*
X37143Y-251435D02*
Y-247371D01*
X41206D01*
Y-251435D01*
X37143D01*
X38159Y-250419D02*
Y-248387D01*
X40191D01*
Y-250419D01*
X38159D01*
X81757Y-41060D02*
Y-36996D01*
X85822D01*
Y-41060D01*
X81757D01*
X82774Y-40044D02*
Y-38012D01*
X84805D01*
Y-40044D01*
X82774D01*
X-91032Y-40032D02*
Y-35968D01*
X-86968D01*
Y-40032D01*
X-91032D01*
X-90016Y-39016D02*
Y-36984D01*
X-87984D01*
Y-39016D01*
X-90016D01*
X127378Y-258198D02*
Y-254134D01*
X131442D01*
Y-258198D01*
X127378D01*
X128394Y-257182D02*
Y-255150D01*
X130426D01*
Y-257182D01*
X128394D01*
X195055Y-99225D02*
Y-95161D01*
X199119D01*
Y-99225D01*
X195055D01*
X196071Y-98209D02*
Y-96177D01*
X198103D01*
Y-98209D01*
X196071D01*
X171201Y-106051D02*
Y-101987D01*
X175265D01*
Y-106051D01*
X171201D01*
X172217Y-105035D02*
Y-103003D01*
X174249D01*
Y-105035D01*
X172217D01*
X173085Y-94095D02*
Y-90031D01*
X177149D01*
Y-94095D01*
X173085D01*
X174101Y-93079D02*
Y-91047D01*
X176133D01*
Y-93079D01*
X174101D01*
X-97032Y-52032D02*
Y-47968D01*
X-92968D01*
Y-52032D01*
X-97032D01*
X-96016Y-51016D02*
Y-48984D01*
X-93984D01*
Y-51016D01*
X-96016D01*
X126203Y-346020D02*
Y-341956D01*
X130267D01*
Y-346020D01*
X126203D01*
X127219Y-345004D02*
Y-342972D01*
X129251D01*
Y-345004D01*
X127219D01*
X137376Y-322048D02*
Y-317984D01*
X141440D01*
Y-322048D01*
X137376D01*
X138392Y-321032D02*
Y-319000D01*
X140424D01*
Y-321032D01*
X138392D01*
X151951Y-239853D02*
Y-235790D01*
X156015D01*
Y-239853D01*
X151951D01*
X152967Y-238838D02*
Y-236805D01*
X154999D01*
Y-238838D01*
X152967D01*
X160353Y-232803D02*
Y-228739D01*
X164417D01*
Y-232803D01*
X160353D01*
X161369Y-231787D02*
Y-229755D01*
X163401D01*
Y-231787D01*
X161369D01*
X151968Y-233032D02*
Y-228967D01*
X156032D01*
Y-233032D01*
X151968D01*
X152984Y-232015D02*
Y-229984D01*
X155016D01*
Y-232015D01*
X152984D01*
X170968Y-6032D02*
Y-1968D01*
X175032D01*
Y-6032D01*
X170968D01*
X171984Y-5016D02*
Y-2984D01*
X174016D01*
Y-5016D01*
X171984D01*
X170968Y-18032D02*
Y-13968D01*
X175032D01*
Y-18032D01*
X170968D01*
X171984Y-17016D02*
Y-14984D01*
X174016D01*
Y-17016D01*
X171984D01*
X144645Y-344232D02*
Y-340168D01*
X148709D01*
Y-344232D01*
X144645D01*
X145661Y-343216D02*
Y-341184D01*
X147693D01*
Y-343216D01*
X145661D01*
X178436Y-115308D02*
Y-111244D01*
X182500D01*
Y-115308D01*
X178436D01*
X179452Y-114292D02*
Y-112260D01*
X181484D01*
Y-114292D01*
X179452D01*
X162948Y-243960D02*
Y-239896D01*
X167012D01*
Y-243960D01*
X162948D01*
X163964Y-242944D02*
Y-240912D01*
X165996D01*
Y-242944D01*
X163964D01*
X-14077Y-351399D02*
Y-347335D01*
X-10013D01*
Y-351399D01*
X-14077D01*
X-13061Y-350383D02*
Y-348351D01*
X-11029D01*
Y-350383D01*
X-13061D01*
X156291Y-325292D02*
Y-321228D01*
X160355D01*
Y-325292D01*
X156291D01*
X157307Y-324276D02*
Y-322244D01*
X159339D01*
Y-324276D01*
X157307D01*
X131515Y-354978D02*
Y-350914D01*
X135579D01*
Y-354978D01*
X131515D01*
X132531Y-353962D02*
Y-351930D01*
X134563D01*
Y-353962D01*
X132531D01*
X101540Y-352585D02*
Y-348521D01*
X105604D01*
Y-352585D01*
X101540D01*
X102556Y-351570D02*
Y-349538D01*
X104588D01*
Y-351570D01*
X102556D01*
X179762Y-40722D02*
Y-36658D01*
X183825D01*
Y-40722D01*
X179762D01*
X180777Y-39706D02*
Y-37674D01*
X182810D01*
Y-39706D01*
X180777D01*
X172968Y-53032D02*
Y-48968D01*
X177032D01*
Y-53032D01*
X172968D01*
X173984Y-52016D02*
Y-49984D01*
X176016D01*
Y-52016D01*
X173984D01*
X-126032Y-70032D02*
Y-65968D01*
X-121968D01*
Y-70032D01*
X-126032D01*
X-125016Y-69016D02*
Y-66984D01*
X-122984D01*
Y-69016D01*
X-125016D01*
X155863Y-61828D02*
Y-57764D01*
X159927D01*
Y-61828D01*
X155863D01*
X156878Y-60812D02*
Y-58780D01*
X158911D01*
Y-60812D01*
X156878D01*
X124968Y-18032D02*
Y-13968D01*
X129032D01*
Y-18032D01*
X124968D01*
X125984Y-17016D02*
Y-14984D01*
X128016D01*
Y-17016D01*
X125984D01*
X124968Y-32032D02*
Y-27968D01*
X129032D01*
Y-32032D01*
X124968D01*
X125984Y-31016D02*
Y-28984D01*
X128016D01*
Y-31016D01*
X125984D01*
X-82352Y-31643D02*
Y-27579D01*
X-78288D01*
Y-31643D01*
X-82352D01*
X-81336Y-30627D02*
Y-28595D01*
X-79304D01*
Y-30627D01*
X-81336D01*
X-121352Y-31643D02*
Y-27579D01*
X-117288D01*
Y-31643D01*
X-121352D01*
X-120336Y-30627D02*
Y-28595D01*
X-118304D01*
Y-30627D01*
X-120336D01*
X-136691Y21796D02*
Y25860D01*
X-132627D01*
Y21796D01*
X-136691D01*
X-135675Y22812D02*
Y24844D01*
X-133643D01*
Y22812D01*
X-135675D01*
X72504Y-92515D02*
Y-88451D01*
X76568D01*
Y-92515D01*
X72504D01*
X73520Y-91499D02*
Y-89467D01*
X75552D01*
Y-91499D01*
X73520D01*
X142052Y-116490D02*
Y-112426D01*
X146116D01*
Y-116490D01*
X142052D01*
X143068Y-115474D02*
Y-113442D01*
X145100D01*
Y-115474D01*
X143068D01*
X170570Y-65887D02*
Y-61823D01*
X174634D01*
Y-65887D01*
X170570D01*
X171586Y-64871D02*
Y-62839D01*
X173618D01*
Y-64871D01*
X171586D01*
X162123Y-268988D02*
Y-264924D01*
X166187D01*
Y-268988D01*
X162123D01*
X163139Y-267972D02*
Y-265940D01*
X165171D01*
Y-267972D01*
X163139D01*
X90856Y-262658D02*
Y-258594D01*
X94920D01*
Y-262658D01*
X90856D01*
X91872Y-261642D02*
Y-259610D01*
X93904D01*
Y-261642D01*
X91872D01*
X151844Y-272636D02*
Y-268572D01*
X155908D01*
Y-272636D01*
X151844D01*
X152860Y-271620D02*
Y-269588D01*
X154892D01*
Y-271620D01*
X152860D01*
X176767Y-225187D02*
Y-221123D01*
X180831D01*
Y-225187D01*
X176767D01*
X177783Y-224171D02*
Y-222139D01*
X179815D01*
Y-224171D01*
X177783D01*
X96968Y-261031D02*
Y-256968D01*
X101032D01*
Y-261031D01*
X96968D01*
X97984Y-260016D02*
Y-257983D01*
X100016D01*
Y-260016D01*
X97984D01*
X120648Y-252831D02*
Y-248767D01*
X124712D01*
Y-252831D01*
X120648D01*
X121664Y-251815D02*
Y-249783D01*
X123696D01*
Y-251815D01*
X121664D01*
X114568Y-250418D02*
Y-246355D01*
X118632D01*
Y-250418D01*
X114568D01*
X115584Y-249403D02*
Y-247370D01*
X117616D01*
Y-249403D01*
X115584D01*
X84968Y-266587D02*
Y-262523D01*
X89032D01*
Y-266587D01*
X84968D01*
X85984Y-265571D02*
Y-263539D01*
X88016D01*
Y-265571D01*
X85984D01*
X179018Y-273189D02*
Y-269125D01*
X183082D01*
Y-273189D01*
X179018D01*
X180034Y-272173D02*
Y-270141D01*
X182066D01*
Y-272173D01*
X180034D01*
X179018Y-243189D02*
Y-239125D01*
X183082D01*
Y-243189D01*
X179018D01*
X180034Y-242173D02*
Y-240141D01*
X182066D01*
Y-242173D01*
X180034D01*
X185526Y-284644D02*
Y-280580D01*
X189590D01*
Y-284644D01*
X185526D01*
X186542Y-283628D02*
Y-281596D01*
X188574D01*
Y-283628D01*
X186542D01*
X185526Y-254644D02*
Y-250580D01*
X189590D01*
Y-254644D01*
X185526D01*
X186542Y-253628D02*
Y-251596D01*
X188574D01*
Y-253628D01*
X186542D01*
X170526Y-254644D02*
Y-250580D01*
X174590D01*
Y-254644D01*
X170526D01*
X171542Y-253628D02*
Y-251596D01*
X173574D01*
Y-253628D01*
X171542D01*
X170526Y-284644D02*
Y-280580D01*
X174590D01*
Y-284644D01*
X170526D01*
X171542Y-283628D02*
Y-281596D01*
X173574D01*
Y-283628D01*
X171542D01*
X185526Y-314644D02*
Y-310580D01*
X189590D01*
Y-314644D01*
X185526D01*
X186542Y-313628D02*
Y-311596D01*
X188574D01*
Y-313628D01*
X186542D01*
X170584Y-314586D02*
Y-310522D01*
X174648D01*
Y-314586D01*
X170584D01*
X171600Y-313570D02*
Y-311538D01*
X173632D01*
Y-313570D01*
X171600D01*
X-8550Y-112550D02*
Y-108486D01*
X-4486D01*
Y-112550D01*
X-8550D01*
X-7534Y-111534D02*
Y-109502D01*
X-5502D01*
Y-111534D01*
X-7534D01*
X74958Y-99910D02*
Y-95846D01*
X79022D01*
Y-99910D01*
X74958D01*
X75974Y-98894D02*
Y-96862D01*
X78006D01*
Y-98894D01*
X75974D01*
X-11032Y-99032D02*
Y-94968D01*
X-6968D01*
Y-99032D01*
X-11032D01*
X-10016Y-98016D02*
Y-95984D01*
X-7984D01*
Y-98016D01*
X-10016D01*
X64709Y-94159D02*
Y-90095D01*
X68773D01*
Y-94159D01*
X64709D01*
X65725Y-93143D02*
Y-91111D01*
X67757D01*
Y-93143D01*
X65725D01*
X146968Y-124032D02*
Y-119968D01*
X151032D01*
Y-124032D01*
X146968D01*
X147984Y-123016D02*
Y-120984D01*
X150016D01*
Y-123016D01*
X147984D01*
X148401Y-117172D02*
Y-113109D01*
X152465D01*
Y-117172D01*
X148401D01*
X149417Y-116157D02*
Y-114124D01*
X151449D01*
Y-116157D01*
X149417D01*
X-18203Y-98032D02*
Y-93968D01*
X-14139D01*
Y-98032D01*
X-18203D01*
X-17187Y-97016D02*
Y-94984D01*
X-15155D01*
Y-97016D01*
X-17187D01*
X143398Y-109813D02*
Y-105749D01*
X147462D01*
Y-109813D01*
X143398D01*
X144414Y-108797D02*
Y-106765D01*
X146446D01*
Y-108797D01*
X144414D01*
X124735Y-78013D02*
Y-73949D01*
X128799D01*
Y-78013D01*
X124735D01*
X125751Y-76997D02*
Y-74965D01*
X127783D01*
Y-76997D01*
X125751D01*
X140401Y-82051D02*
Y-77987D01*
X144465D01*
Y-82051D01*
X140401D01*
X141417Y-81035D02*
Y-79003D01*
X143449D01*
Y-81035D01*
X141417D01*
X140401Y-102051D02*
Y-97987D01*
X144465D01*
Y-102051D01*
X140401D01*
X141417Y-101035D02*
Y-99003D01*
X143449D01*
Y-101035D01*
X141417D01*
X191607Y36325D02*
Y40389D01*
X195671D01*
Y36325D01*
X191607D01*
X192623Y37341D02*
Y39373D01*
X194655D01*
Y37341D01*
X192623D01*
X-395208Y22077D02*
Y26141D01*
X-391144D01*
Y22077D01*
X-395208D01*
X-394192Y23093D02*
Y25125D01*
X-392160D01*
Y23093D01*
X-394192D01*
X196012Y44880D02*
Y48944D01*
X200076D01*
Y44880D01*
X196012D01*
X197028Y45896D02*
Y47928D01*
X199060D01*
Y45896D01*
X197028D01*
X-387031Y44968D02*
Y49032D01*
X-382967D01*
Y44968D01*
X-387031D01*
X-386015Y45984D02*
Y48016D01*
X-383983D01*
Y45984D01*
X-386015D01*
X-405271Y43196D02*
Y47260D01*
X-401207D01*
Y43196D01*
X-405271D01*
X-404255Y44212D02*
Y46244D01*
X-402223D01*
Y44212D01*
X-404255D01*
X-62032Y-222032D02*
Y-217968D01*
X-57968D01*
Y-222032D01*
X-62032D01*
X-61016Y-221016D02*
Y-218984D01*
X-58984D01*
Y-221016D01*
X-61016D01*
X-52032Y-222032D02*
Y-217968D01*
X-47968D01*
Y-222032D01*
X-52032D01*
X-51016Y-221016D02*
Y-218984D01*
X-48984D01*
Y-221016D01*
X-51016D01*
X-42032Y-222032D02*
Y-217968D01*
X-37968D01*
Y-222032D01*
X-42032D01*
X-41016Y-221016D02*
Y-218984D01*
X-38984D01*
Y-221016D01*
X-41016D01*
X-42032Y-232032D02*
Y-227968D01*
X-37968D01*
Y-232032D01*
X-42032D01*
X-41016Y-231016D02*
Y-228984D01*
X-38984D01*
Y-231016D01*
X-41016D01*
X-52032Y-232032D02*
Y-227968D01*
X-47968D01*
Y-232032D01*
X-52032D01*
X-51016Y-231016D02*
Y-228984D01*
X-48984D01*
Y-231016D01*
X-51016D01*
X-62032Y-232032D02*
Y-227968D01*
X-57968D01*
Y-232032D01*
X-62032D01*
X-61016Y-231016D02*
Y-228984D01*
X-58984D01*
Y-231016D01*
X-61016D01*
X-140032Y-82032D02*
Y-77968D01*
X-135968D01*
Y-82032D01*
X-140032D01*
X-139016Y-81016D02*
Y-78984D01*
X-136984D01*
Y-81016D01*
X-139016D01*
X-123032Y-85032D02*
Y-80968D01*
X-118968D01*
Y-85032D01*
X-123032D01*
X-122016Y-84016D02*
Y-81984D01*
X-119984D01*
Y-84016D01*
X-122016D01*
X-104032Y-46032D02*
Y-41968D01*
X-99968D01*
Y-46032D01*
X-104032D01*
X-103016Y-45016D02*
Y-42984D01*
X-100984D01*
Y-45016D01*
X-103016D01*
X265968Y17968D02*
Y22032D01*
X270032D01*
Y17968D01*
X265968D01*
X266984Y18984D02*
Y21016D01*
X269016D01*
Y18984D01*
X266984D01*
X265968Y26968D02*
Y31032D01*
X270032D01*
Y26968D01*
X265968D01*
X266984Y27984D02*
Y30016D01*
X269016D01*
Y27984D01*
X266984D01*
X269968Y33968D02*
Y38032D01*
X274032D01*
Y33968D01*
X269968D01*
X270984Y34984D02*
Y37016D01*
X273016D01*
Y34984D01*
X270984D01*
X274968Y40968D02*
Y45032D01*
X279032D01*
Y40968D01*
X274968D01*
X275984Y41984D02*
Y44016D01*
X278016D01*
Y41984D01*
X275984D01*
X256968Y29968D02*
Y34032D01*
X261032D01*
Y29968D01*
X256968D01*
X257984Y30984D02*
Y33016D01*
X260016D01*
Y30984D01*
X257984D01*
X235968Y26968D02*
Y31032D01*
X240032D01*
Y26968D01*
X235968D01*
X236984Y27984D02*
Y30016D01*
X239016D01*
Y27984D01*
X236984D01*
X170968Y-30032D02*
Y-25968D01*
X175032D01*
Y-30032D01*
X170968D01*
X171984Y-29016D02*
Y-26984D01*
X174016D01*
Y-29016D01*
X171984D01*
X170968Y5968D02*
Y10032D01*
X175032D01*
Y5968D01*
X170968D01*
X171984Y6984D02*
Y9016D01*
X174016D01*
Y6984D01*
X171984D01*
X242968Y14968D02*
Y19032D01*
X247032D01*
Y14968D01*
X242968D01*
X243984Y15984D02*
Y18016D01*
X246016D01*
Y15984D01*
X243984D01*
X230968Y17968D02*
Y22032D01*
X235032D01*
Y17968D01*
X230968D01*
X231984Y18984D02*
Y21016D01*
X234016D01*
Y18984D01*
X231984D01*
X218968Y16968D02*
Y21032D01*
X223032D01*
Y16968D01*
X218968D01*
X219984Y17984D02*
Y20016D01*
X222016D01*
Y17984D01*
X219984D01*
X216968Y23968D02*
Y28032D01*
X221032D01*
Y23968D01*
X216968D01*
X217984Y24984D02*
Y27016D01*
X220016D01*
Y24984D01*
X217984D01*
X-142032Y-160782D02*
Y-156718D01*
X-137968D01*
Y-160782D01*
X-142032D01*
X-141016Y-159766D02*
Y-157734D01*
X-138984D01*
Y-159766D01*
X-141016D01*
X-140032Y-100032D02*
Y-95968D01*
X-135968D01*
Y-100032D01*
X-140032D01*
X-139016Y-99016D02*
Y-96984D01*
X-136984D01*
Y-99016D01*
X-139016D01*
X135968Y-294032D02*
Y-289968D01*
X140032D01*
Y-294032D01*
X135968D01*
X136984Y-293016D02*
Y-290984D01*
X139016D01*
Y-293016D01*
X136984D01*
X-353031Y44968D02*
Y49032D01*
X-348967D01*
Y44968D01*
X-353031D01*
X-352015Y45984D02*
Y48016D01*
X-349983D01*
Y45984D01*
X-352015D01*
X-362031Y44968D02*
Y49032D01*
X-357967D01*
Y44968D01*
X-362031D01*
X-361015Y45984D02*
Y48016D01*
X-358983D01*
Y45984D01*
X-361015D01*
X-371031Y46968D02*
Y51032D01*
X-366967D01*
Y46968D01*
X-371031D01*
X-370015Y47984D02*
Y50016D01*
X-367983D01*
Y47984D01*
X-370015D01*
X-380031Y44968D02*
Y49032D01*
X-375967D01*
Y44968D01*
X-380031D01*
X-379015Y45984D02*
Y48016D01*
X-376983D01*
Y45984D01*
X-379015D01*
X-95032Y-210032D02*
Y-205968D01*
X-90968D01*
Y-210032D01*
X-95032D01*
X-94016Y-209016D02*
Y-206984D01*
X-91984D01*
Y-209016D01*
X-94016D01*
X-113032Y-210032D02*
Y-205968D01*
X-108968D01*
Y-210032D01*
X-113032D01*
X-112016Y-209016D02*
Y-206984D01*
X-109984D01*
Y-209016D01*
X-112016D01*
X-187532Y-68532D02*
Y-64468D01*
X-183468D01*
Y-68532D01*
X-187532D01*
X-186516Y-67516D02*
Y-65484D01*
X-184484D01*
Y-67516D01*
X-186516D01*
X-180032Y-98032D02*
Y-93968D01*
X-175968D01*
Y-98032D01*
X-180032D01*
X-179016Y-97016D02*
Y-94984D01*
X-176984D01*
Y-97016D01*
X-179016D01*
X57968Y-250032D02*
Y-245968D01*
X62032D01*
Y-250032D01*
X57968D01*
X58984Y-249016D02*
Y-246984D01*
X61016D01*
Y-249016D01*
X58984D01*
X-88032Y-85032D02*
Y-80968D01*
X-83968D01*
Y-85032D01*
X-88032D01*
X-87016Y-84016D02*
Y-81984D01*
X-84984D01*
Y-84016D01*
X-87016D01*
X-152032Y-125032D02*
Y-120968D01*
X-147968D01*
Y-125032D01*
X-152032D01*
X-151016Y-124016D02*
Y-121984D01*
X-148984D01*
Y-124016D01*
X-151016D01*
X-167032Y-163032D02*
Y-158968D01*
X-162968D01*
Y-163032D01*
X-167032D01*
X-166016Y-162016D02*
Y-159984D01*
X-163984D01*
Y-162016D01*
X-166016D01*
X-397032Y45968D02*
Y50032D01*
X-392968D01*
Y45968D01*
X-397032D01*
X-396016Y46984D02*
Y49016D01*
X-393984D01*
Y46984D01*
X-396016D01*
X349968Y-9032D02*
Y-4968D01*
X354032D01*
Y-9032D01*
X349968D01*
X350984Y-8016D02*
Y-5984D01*
X353016D01*
Y-8016D01*
X350984D01*
X352968Y45968D02*
Y50032D01*
X357032D01*
Y45968D01*
X352968D01*
X353984Y46984D02*
Y49016D01*
X356016D01*
Y46984D01*
X353984D01*
X386968Y44968D02*
Y49032D01*
X391032D01*
Y44968D01*
X386968D01*
X387984Y45984D02*
Y48016D01*
X390016D01*
Y45984D01*
X387984D01*
X377967Y44968D02*
Y49032D01*
X382031D01*
Y44968D01*
X377967D01*
X378983Y45984D02*
Y48016D01*
X381015D01*
Y45984D01*
X378983D01*
X367968Y45968D02*
Y50032D01*
X372032D01*
Y45968D01*
X367968D01*
X368984Y46984D02*
Y49016D01*
X371016D01*
Y46984D01*
X368984D01*
X-13532Y-201532D02*
Y-197468D01*
X-9468D01*
Y-201532D01*
X-13532D01*
X-12516Y-200516D02*
Y-198484D01*
X-10484D01*
Y-200516D01*
X-12516D01*
X11018Y-212082D02*
Y-208018D01*
X15082D01*
Y-212082D01*
X11018D01*
X12034Y-211066D02*
Y-209034D01*
X14066D01*
Y-211066D01*
X12034D01*
X12968Y-244032D02*
Y-239968D01*
X17032D01*
Y-244032D01*
X12968D01*
X13984Y-243016D02*
Y-240984D01*
X16016D01*
Y-243016D01*
X13984D01*
X-29032Y-243032D02*
Y-238968D01*
X-24968D01*
Y-243032D01*
X-29032D01*
X-28016Y-242016D02*
Y-239984D01*
X-25984D01*
Y-242016D01*
X-28016D01*
X-57032Y-130032D02*
Y-125968D01*
X-52968D01*
Y-130032D01*
X-57032D01*
X-56016Y-129016D02*
Y-126984D01*
X-53984D01*
Y-129016D01*
X-56016D01*
X-38032Y-130032D02*
Y-125968D01*
X-33968D01*
Y-130032D01*
X-38032D01*
X-37016Y-129016D02*
Y-126984D01*
X-34984D01*
Y-129016D01*
X-37016D01*
X-26032Y-145032D02*
Y-140968D01*
X-21968D01*
Y-145032D01*
X-26032D01*
X-25016Y-144016D02*
Y-141984D01*
X-22984D01*
Y-144016D01*
X-25016D01*
X-18032Y-145032D02*
Y-140968D01*
X-13968D01*
Y-145032D01*
X-18032D01*
X-17016Y-144016D02*
Y-141984D01*
X-14984D01*
Y-144016D01*
X-17016D01*
X-22032Y-123032D02*
Y-118968D01*
X-17968D01*
Y-123032D01*
X-22032D01*
X-21016Y-122016D02*
Y-119984D01*
X-18984D01*
Y-122016D01*
X-21016D01*
X-22032Y-114032D02*
Y-109968D01*
X-17968D01*
Y-114032D01*
X-22032D01*
X-21016Y-113016D02*
Y-110984D01*
X-18984D01*
Y-113016D01*
X-21016D01*
X-26032Y-98032D02*
Y-93968D01*
X-21968D01*
Y-98032D01*
X-26032D01*
X-25016Y-97016D02*
Y-94984D01*
X-22984D01*
Y-97016D01*
X-25016D01*
X382968Y49968D02*
Y54032D01*
X387032D01*
Y49968D01*
X382968D01*
X383984Y50984D02*
Y53016D01*
X386016D01*
Y50984D01*
X383984D01*
X345483Y1483D02*
Y5547D01*
X349547D01*
Y1483D01*
X345483D01*
X346499Y2499D02*
Y4531D01*
X348531D01*
Y2499D01*
X346499D01*
X394968Y44968D02*
Y49032D01*
X399032D01*
Y44968D01*
X394968D01*
X395984Y45984D02*
Y48016D01*
X398016D01*
Y45984D01*
X395984D01*
X358968Y-9032D02*
Y-4968D01*
X363032D01*
Y-9032D01*
X358968D01*
X359984Y-8016D02*
Y-5984D01*
X362016D01*
Y-8016D01*
X359984D01*
X370968Y-9032D02*
Y-4968D01*
X375032D01*
Y-9032D01*
X370968D01*
X371984Y-8016D02*
Y-5984D01*
X374016D01*
Y-8016D01*
X371984D01*
X382968Y-9032D02*
Y-4968D01*
X387032D01*
Y-9032D01*
X382968D01*
X383984Y-8016D02*
Y-5984D01*
X386016D01*
Y-8016D01*
X383984D01*
X394968Y-9032D02*
Y-4968D01*
X399032D01*
Y-9032D01*
X394968D01*
X395984Y-8016D02*
Y-5984D01*
X398016D01*
Y-8016D01*
X395984D01*
X-419032Y-50032D02*
Y-45968D01*
X-414968D01*
Y-50032D01*
X-419032D01*
X-418016Y-49016D02*
Y-46984D01*
X-415984D01*
Y-49016D01*
X-418016D01*
X-419032Y-26032D02*
Y-21968D01*
X-414968D01*
Y-26032D01*
X-419032D01*
X-418016Y-25016D02*
Y-22984D01*
X-415984D01*
Y-25016D01*
X-418016D01*
X-355032Y-9032D02*
Y-4968D01*
X-350968D01*
Y-9032D01*
X-355032D01*
X-354016Y-8016D02*
Y-5984D01*
X-351984D01*
Y-8016D01*
X-354016D01*
X-367032Y-9032D02*
Y-4968D01*
X-362968D01*
Y-9032D01*
X-367032D01*
X-366016Y-8016D02*
Y-5984D01*
X-363984D01*
Y-8016D01*
X-366016D01*
X-379032Y-9032D02*
Y-4968D01*
X-374968D01*
Y-9032D01*
X-379032D01*
X-378016Y-8016D02*
Y-5984D01*
X-375984D01*
Y-8016D01*
X-378016D01*
X-391032Y-9032D02*
Y-4968D01*
X-386968D01*
Y-9032D01*
X-391032D01*
X-390016Y-8016D02*
Y-5984D01*
X-387984D01*
Y-8016D01*
X-390016D01*
X100968Y-294032D02*
Y-289968D01*
X105032D01*
Y-294032D01*
X100968D01*
X101984Y-293016D02*
Y-290984D01*
X104016D01*
Y-293016D01*
X101984D01*
X31568Y-130032D02*
Y-125968D01*
X35632D01*
Y-130032D01*
X31568D01*
X32584Y-129016D02*
Y-126984D01*
X34616D01*
Y-129016D01*
X32584D01*
X101290Y-338470D02*
Y-334406D01*
X105354D01*
Y-338470D01*
X101290D01*
X102306Y-337454D02*
Y-335422D01*
X104338D01*
Y-337454D01*
X102306D01*
X5768Y-321632D02*
Y-317568D01*
X9832D01*
Y-321632D01*
X5768D01*
X6784Y-320616D02*
Y-318584D01*
X8816D01*
Y-320616D01*
X6784D01*
X5768Y-375232D02*
Y-371168D01*
X9832D01*
Y-375232D01*
X5768D01*
X6784Y-374216D02*
Y-372184D01*
X8816D01*
Y-374216D01*
X6784D01*
X110168Y-375232D02*
Y-371168D01*
X114232D01*
Y-375232D01*
X110168D01*
X111184Y-374216D02*
Y-372184D01*
X113216D01*
Y-374216D01*
X111184D01*
X104968Y-279788D02*
Y-275724D01*
X109032D01*
Y-279788D01*
X104968D01*
X105984Y-278772D02*
Y-276740D01*
X108016D01*
Y-278772D01*
X105984D01*
X122968Y-281032D02*
Y-276968D01*
X127032D01*
Y-281032D01*
X122968D01*
X123984Y-280016D02*
Y-277984D01*
X126016D01*
Y-280016D01*
X123984D01*
X29968Y-296032D02*
Y-291968D01*
X34032D01*
Y-296032D01*
X29968D01*
X30984Y-295016D02*
Y-292984D01*
X33016D01*
Y-295016D01*
X30984D01*
X69968Y-295032D02*
Y-290968D01*
X74032D01*
Y-295032D01*
X69968D01*
X70984Y-294016D02*
Y-291984D01*
X73016D01*
Y-294016D01*
X70984D01*
D138*
X-57968Y-258000D02*
X-59372Y-256068D01*
X-61644Y-256806D01*
Y-259194D01*
X-59372Y-259933D01*
X-57968Y-258000D01*
X-21468Y-176500D02*
X-22872Y-174567D01*
X-25144Y-175306D01*
Y-177694D01*
X-22872Y-178433D01*
X-21468Y-176500D01*
Y-186500D02*
X-22872Y-184567D01*
X-25144Y-185306D01*
Y-187694D01*
X-22872Y-188433D01*
X-21468Y-186500D01*
X110032Y-144000D02*
X108628Y-142067D01*
X106356Y-142806D01*
Y-145194D01*
X108628Y-145933D01*
X110032Y-144000D01*
X97529Y-130476D02*
X96125Y-128543D01*
X93853Y-129281D01*
Y-131670D01*
X96125Y-132408D01*
X97529Y-130476D01*
X-231968Y-31000D02*
X-233372Y-29067D01*
X-235644Y-29806D01*
Y-32194D01*
X-233372Y-32933D01*
X-231968Y-31000D01*
X120032Y-142000D02*
X118628Y-140067D01*
X116356Y-140806D01*
Y-143194D01*
X118628Y-143933D01*
X120032Y-142000D01*
X129032Y-164000D02*
X127628Y-162067D01*
X125356Y-162806D01*
Y-165194D01*
X127628Y-165933D01*
X129032Y-164000D01*
Y-152000D02*
X127628Y-150067D01*
X125356Y-150806D01*
Y-153194D01*
X127628Y-153933D01*
X129032Y-152000D01*
X147032Y-128000D02*
X145628Y-126067D01*
X143356Y-126806D01*
Y-129194D01*
X145628Y-129933D01*
X147032Y-128000D01*
X159032Y-150000D02*
X157628Y-148067D01*
X155356Y-148806D01*
Y-151194D01*
X157628Y-151933D01*
X159032Y-150000D01*
Y-128000D02*
X157628Y-126067D01*
X155356Y-126806D01*
Y-129194D01*
X157628Y-129933D01*
X159032Y-128000D01*
X175032Y-137000D02*
X173628Y-135067D01*
X171356Y-135806D01*
Y-138194D01*
X173628Y-138933D01*
X175032Y-137000D01*
Y-154000D02*
X173628Y-152067D01*
X171356Y-152806D01*
Y-155194D01*
X173628Y-155933D01*
X175032Y-154000D01*
X182032Y-176000D02*
X180628Y-174067D01*
X178356Y-174806D01*
Y-177194D01*
X180628Y-177933D01*
X182032Y-176000D01*
X171032Y-194000D02*
X169628Y-192067D01*
X167356Y-192806D01*
Y-195194D01*
X169628Y-195933D01*
X171032Y-194000D01*
X180032Y-166000D02*
X178628Y-164067D01*
X176356Y-164806D01*
Y-167194D01*
X178628Y-167933D01*
X180032Y-166000D01*
X155032Y-164000D02*
X153628Y-162067D01*
X151356Y-162806D01*
Y-165194D01*
X153628Y-165933D01*
X155032Y-164000D01*
X151032Y-187000D02*
X149628Y-185067D01*
X147356Y-185806D01*
Y-188194D01*
X149628Y-188933D01*
X151032Y-187000D01*
X144032Y-174000D02*
X142628Y-172067D01*
X140356Y-172806D01*
Y-175194D01*
X142628Y-175933D01*
X144032Y-174000D01*
X158032Y-174064D02*
X156628Y-172131D01*
X154356Y-172870D01*
Y-175258D01*
X156628Y-175996D01*
X158032Y-174064D01*
Y-169000D02*
X156628Y-167067D01*
X154356Y-167806D01*
Y-170194D01*
X156628Y-170933D01*
X158032Y-169000D01*
X19013Y-121646D02*
X17609Y-119714D01*
X15337Y-120452D01*
Y-122840D01*
X17609Y-123579D01*
X19013Y-121646D01*
X145228Y-179468D02*
X143824Y-177535D01*
X141552Y-178274D01*
Y-180662D01*
X143824Y-181401D01*
X145228Y-179468D01*
Y-184532D02*
X143824Y-182599D01*
X141552Y-183338D01*
Y-185726D01*
X143824Y-186465D01*
X145228Y-184532D01*
X26231Y-114625D02*
X24827Y-112693D01*
X22555Y-113431D01*
Y-115820D01*
X24827Y-116558D01*
X26231Y-114625D01*
X22564Y-109336D02*
X21160Y-107403D01*
X18888Y-108141D01*
Y-110530D01*
X21160Y-111268D01*
X22564Y-109336D01*
X14564Y-117958D02*
X13160Y-116025D01*
X10888Y-116763D01*
Y-119152D01*
X13160Y-119890D01*
X14564Y-117958D01*
X9500D02*
X8096Y-116025D01*
X5824Y-116763D01*
Y-119152D01*
X8096Y-119890D01*
X9500Y-117958D01*
X4715Y-121384D02*
X3311Y-119451D01*
X1039Y-120189D01*
Y-122578D01*
X3311Y-123316D01*
X4715Y-121384D01*
X175032Y-148532D02*
X173628Y-146599D01*
X171356Y-147338D01*
Y-149726D01*
X173628Y-150464D01*
X175032Y-148532D01*
Y-143468D02*
X173628Y-141535D01*
X171356Y-142274D01*
Y-144662D01*
X173628Y-145400D01*
X175032Y-143468D01*
X103032Y-132755D02*
X101628Y-130823D01*
X99356Y-131561D01*
Y-133949D01*
X101628Y-134688D01*
X103032Y-132755D01*
X107032Y-136410D02*
X105628Y-134477D01*
X103356Y-135215D01*
Y-137604D01*
X105628Y-138342D01*
X107032Y-136410D01*
X78032Y-249000D02*
X76628Y-247068D01*
X74356Y-247806D01*
Y-250194D01*
X76628Y-250933D01*
X78032Y-249000D01*
X46032Y-130000D02*
X44628Y-128067D01*
X42356Y-128806D01*
Y-131194D01*
X44628Y-131933D01*
X46032Y-130000D01*
Y-143000D02*
X44628Y-141067D01*
X42356Y-141806D01*
Y-144194D01*
X44628Y-144933D01*
X46032Y-143000D01*
X20032Y-140000D02*
X18628Y-138067D01*
X16356Y-138806D01*
Y-141194D01*
X18628Y-141933D01*
X20032Y-140000D01*
X-293968Y-19000D02*
X-295372Y-17067D01*
X-297644Y-17806D01*
Y-20194D01*
X-295372Y-20933D01*
X-293968Y-19000D01*
X-310968Y-18000D02*
X-312372Y-16067D01*
X-314644Y-16806D01*
Y-19194D01*
X-312372Y-19933D01*
X-310968Y-18000D01*
X-326968Y-9000D02*
X-328372Y-7067D01*
X-330644Y-7806D01*
Y-10194D01*
X-328372Y-10933D01*
X-326968Y-9000D01*
X-311968Y-4000D02*
X-313372Y-2067D01*
X-315644Y-2806D01*
Y-5194D01*
X-313372Y-5933D01*
X-311968Y-4000D01*
X-313968Y7000D02*
X-315372Y8933D01*
X-317644Y8194D01*
Y5806D01*
X-315372Y5067D01*
X-313968Y7000D01*
Y19000D02*
X-315372Y20933D01*
X-317644Y20194D01*
Y17806D01*
X-315372Y17067D01*
X-313968Y19000D01*
X-231968Y-20000D02*
X-233372Y-18068D01*
X-235644Y-18806D01*
Y-21194D01*
X-233372Y-21933D01*
X-231968Y-20000D01*
X-214968Y-9000D02*
X-216372Y-7067D01*
X-218644Y-7806D01*
Y-10194D01*
X-216372Y-10933D01*
X-214968Y-9000D01*
X-202968Y-19000D02*
X-204372Y-17067D01*
X-206644Y-17806D01*
Y-20194D01*
X-204372Y-20933D01*
X-202968Y-19000D01*
X-218968Y19000D02*
X-220372Y20933D01*
X-222644Y20194D01*
Y17806D01*
X-220372Y17067D01*
X-218968Y19000D01*
Y7000D02*
X-220372Y8933D01*
X-222644Y8194D01*
Y5806D01*
X-220372Y5067D01*
X-218968Y7000D01*
X266032Y-17000D02*
X264628Y-15067D01*
X262356Y-15806D01*
Y-18194D01*
X264628Y-18933D01*
X266032Y-17000D01*
X275032Y-9000D02*
X273628Y-7067D01*
X271356Y-7806D01*
Y-10194D01*
X273628Y-10933D01*
X275032Y-9000D01*
X299032Y-21000D02*
X297628Y-19067D01*
X295356Y-19806D01*
Y-22194D01*
X297628Y-22933D01*
X299032Y-21000D01*
X297032Y-8000D02*
X295628Y-6068D01*
X293356Y-6806D01*
Y-9194D01*
X295628Y-9933D01*
X297032Y-8000D01*
X300032Y18000D02*
X298628Y19933D01*
X296356Y19194D01*
Y16806D01*
X298628Y16067D01*
X300032Y18000D01*
X317032Y19000D02*
X315628Y20933D01*
X313356Y20194D01*
Y17806D01*
X315628Y17067D01*
X317032Y19000D01*
X-308968Y10346D02*
X-310372Y12278D01*
X-312644Y11540D01*
Y9151D01*
X-310372Y8413D01*
X-308968Y10346D01*
Y15410D02*
X-310372Y17342D01*
X-312644Y16604D01*
Y14215D01*
X-310372Y13477D01*
X-308968Y15410D01*
X-223968Y10346D02*
X-225372Y12278D01*
X-227644Y11540D01*
Y9151D01*
X-225372Y8413D01*
X-223968Y10346D01*
Y15410D02*
X-225372Y17342D01*
X-227644Y16604D01*
Y14215D01*
X-225372Y13477D01*
X-223968Y15410D01*
X31032Y-230000D02*
X29628Y-228067D01*
X27356Y-228806D01*
Y-231194D01*
X29628Y-231933D01*
X31032Y-230000D01*
X27431Y-234727D02*
X26027Y-232794D01*
X23755Y-233533D01*
Y-235921D01*
X26027Y-236659D01*
X27431Y-234727D01*
X302032Y-11000D02*
X300628Y-9067D01*
X298356Y-9806D01*
Y-12194D01*
X300628Y-12932D01*
X302032Y-11000D01*
Y-16064D02*
X300628Y-14131D01*
X298356Y-14870D01*
Y-17258D01*
X300628Y-17996D01*
X302032Y-16064D01*
X180377Y-12532D02*
X178973Y-10599D01*
X176701Y-11338D01*
Y-13726D01*
X178973Y-14465D01*
X180377Y-12532D01*
Y-7468D02*
X178973Y-5535D01*
X176701Y-6274D01*
Y-8662D01*
X178973Y-9401D01*
X180377Y-7468D01*
X180032Y-532D02*
X178628Y1401D01*
X176356Y662D01*
Y-1726D01*
X178628Y-2465D01*
X180032Y-532D01*
Y4532D02*
X178628Y6465D01*
X176356Y5726D01*
Y3338D01*
X178628Y2599D01*
X180032Y4532D01*
X-299904Y-17000D02*
X-301308Y-15067D01*
X-303580Y-15806D01*
Y-18194D01*
X-301308Y-18932D01*
X-299904Y-17000D01*
X-304968D02*
X-306372Y-15067D01*
X-308644Y-15806D01*
Y-18194D01*
X-306372Y-18932D01*
X-304968Y-17000D01*
X-226758Y-22696D02*
X-228162Y-20764D01*
X-230434Y-21502D01*
Y-23891D01*
X-228162Y-24629D01*
X-226758Y-22696D01*
Y-27760D02*
X-228162Y-25828D01*
X-230434Y-26566D01*
Y-28955D01*
X-228162Y-29693D01*
X-226758Y-27760D01*
X-209609Y-12473D02*
X-211013Y-10541D01*
X-213285Y-11279D01*
Y-13668D01*
X-211013Y-14406D01*
X-209609Y-12473D01*
Y-17537D02*
X-211013Y-15605D01*
X-213285Y-16343D01*
Y-18732D01*
X-211013Y-19470D01*
X-209609Y-17537D01*
X23032Y-240000D02*
X21628Y-238067D01*
X19356Y-238805D01*
Y-241194D01*
X21628Y-241932D01*
X23032Y-240000D01*
X6224Y-111349D02*
X4820Y-109416D01*
X2548Y-110154D01*
Y-112543D01*
X4820Y-113281D01*
X6224Y-111349D01*
X17500Y-109336D02*
X16096Y-107403D01*
X13824Y-108141D01*
Y-110530D01*
X16096Y-111268D01*
X17500Y-109336D01*
X159533Y-155468D02*
X158129Y-153535D01*
X155857Y-154274D01*
Y-156662D01*
X158129Y-157401D01*
X159533Y-155468D01*
Y-160532D02*
X158129Y-158599D01*
X155857Y-159338D01*
Y-161726D01*
X158129Y-162465D01*
X159533Y-160532D01*
X174259Y-167432D02*
X172855Y-165500D01*
X170583Y-166238D01*
Y-168627D01*
X172855Y-169365D01*
X174259Y-167432D01*
Y-172496D02*
X172855Y-170564D01*
X170583Y-171302D01*
Y-173691D01*
X172855Y-174429D01*
X174259Y-172496D01*
X50549Y-133666D02*
X49145Y-131734D01*
X46873Y-132472D01*
Y-134861D01*
X49145Y-135599D01*
X50549Y-133666D01*
Y-138730D02*
X49145Y-136798D01*
X46873Y-137536D01*
Y-139925D01*
X49145Y-140663D01*
X50549Y-138730D01*
X10032Y-141000D02*
X8628Y-139067D01*
X6356Y-139805D01*
Y-142194D01*
X8628Y-142932D01*
X10032Y-141000D01*
X14365Y-138171D02*
X12961Y-136239D01*
X10689Y-136977D01*
Y-139366D01*
X12961Y-140104D01*
X14365Y-138171D01*
X-5968Y-136000D02*
X-7372Y-134067D01*
X-9644Y-134806D01*
Y-137194D01*
X-7372Y-137933D01*
X-5968Y-136000D01*
X68451Y-244419D02*
X67047Y-242487D01*
X64775Y-243225D01*
Y-245614D01*
X67047Y-246352D01*
X68451Y-244419D01*
X72032Y-248000D02*
X70628Y-246068D01*
X68356Y-246806D01*
Y-249194D01*
X70628Y-249933D01*
X72032Y-248000D01*
X6032Y-137000D02*
X4628Y-135067D01*
X2356Y-135806D01*
Y-138194D01*
X4628Y-138933D01*
X6032Y-137000D01*
X180032Y-24675D02*
X178628Y-22742D01*
X176356Y-23481D01*
Y-25869D01*
X178628Y-26608D01*
X180032Y-24675D01*
Y-19611D02*
X178628Y-17679D01*
X176356Y-18417D01*
Y-20805D01*
X178628Y-21544D01*
X180032Y-19611D01*
X79532Y-322658D02*
X78128Y-320725D01*
X75856Y-321464D01*
Y-323852D01*
X78128Y-324590D01*
X79532Y-322658D01*
X84532D02*
X83128Y-320725D01*
X80856Y-321464D01*
Y-323852D01*
X83128Y-324590D01*
X84532Y-322658D01*
X-323968Y-4000D02*
X-325372Y-2067D01*
X-327644Y-2806D01*
Y-5194D01*
X-325372Y-5933D01*
X-323968Y-4000D01*
X-318904D02*
X-320308Y-2067D01*
X-322580Y-2806D01*
Y-5194D01*
X-320308Y-5933D01*
X-318904Y-4000D01*
X310707Y20000D02*
X309303Y21933D01*
X307031Y21194D01*
Y18806D01*
X309303Y18068D01*
X310707Y20000D01*
X305643D02*
X304239Y21933D01*
X301967Y21194D01*
Y18806D01*
X304239Y18068D01*
X305643Y20000D01*
X272451Y-18581D02*
X271047Y-16648D01*
X268775Y-17386D01*
Y-19775D01*
X271047Y-20513D01*
X272451Y-18581D01*
X276032Y-15000D02*
X274628Y-13067D01*
X272356Y-13806D01*
Y-16194D01*
X274628Y-16932D01*
X276032Y-15000D01*
X36992Y-309000D02*
X35588Y-307067D01*
X33316Y-307806D01*
Y-310194D01*
X35588Y-310933D01*
X36992Y-309000D01*
X42072D02*
X40668Y-307067D01*
X38396Y-307806D01*
Y-310194D01*
X40668Y-310933D01*
X42072Y-309000D01*
X89860Y-322722D02*
X88456Y-320789D01*
X86184Y-321528D01*
Y-323916D01*
X88456Y-324655D01*
X89860Y-322722D01*
X72080Y-309514D02*
X70676Y-307581D01*
X68404Y-308320D01*
Y-310708D01*
X70676Y-311446D01*
X72080Y-309514D01*
X81992Y-309000D02*
X80588Y-307067D01*
X78316Y-307806D01*
Y-310194D01*
X80588Y-310933D01*
X81992Y-309000D01*
X87072D02*
X85668Y-307067D01*
X83396Y-307806D01*
Y-310194D01*
X85668Y-310933D01*
X87072Y-309000D01*
X49532Y-322658D02*
X48128Y-320725D01*
X45856Y-321464D01*
Y-323852D01*
X48128Y-324590D01*
X49532Y-322658D01*
X54554Y-322722D02*
X53150Y-320789D01*
X50878Y-321528D01*
Y-323916D01*
X53150Y-324655D01*
X54554Y-322722D01*
X44532Y-322658D02*
X43128Y-320725D01*
X40856Y-321464D01*
Y-323852D01*
X43128Y-324590D01*
X44532Y-322658D01*
X39532D02*
X38128Y-320725D01*
X35856Y-321464D01*
Y-323852D01*
X38128Y-324590D01*
X39532Y-322658D01*
X76676Y-306188D02*
X75272Y-304255D01*
X73000Y-304994D01*
Y-307382D01*
X75272Y-308120D01*
X76676Y-306188D01*
X34234Y-322722D02*
X32830Y-320789D01*
X30558Y-321528D01*
Y-323916D01*
X32830Y-324655D01*
X34234Y-322722D01*
X74532Y-322658D02*
X73128Y-320725D01*
X70856Y-321464D01*
Y-323852D01*
X73128Y-324590D01*
X74532Y-322658D01*
X47188Y-308752D02*
X45784Y-306819D01*
X43512Y-307558D01*
Y-309946D01*
X45784Y-310685D01*
X47188Y-308752D01*
X60734Y-315702D02*
X59330Y-313769D01*
X57058Y-314507D01*
Y-316896D01*
X59330Y-317634D01*
X60734Y-315702D01*
X64532Y-323048D02*
X63128Y-321115D01*
X60856Y-321854D01*
Y-324242D01*
X63128Y-324981D01*
X64532Y-323048D01*
D139*
X-22484Y-176500D02*
X-24008Y-175620D01*
Y-177380D01*
X-22484Y-176500D01*
Y-186500D02*
X-24008Y-185620D01*
Y-187380D01*
X-22484Y-186500D01*
X109016Y-144000D02*
X107492Y-143120D01*
Y-144880D01*
X109016Y-144000D01*
X96513Y-130476D02*
X94989Y-129596D01*
Y-131356D01*
X96513Y-130476D01*
X-232984Y-31000D02*
X-234508Y-30120D01*
Y-31880D01*
X-232984Y-31000D01*
X119016Y-142000D02*
X117492Y-141120D01*
Y-142880D01*
X119016Y-142000D01*
X128016Y-164000D02*
X126492Y-163120D01*
Y-164880D01*
X128016Y-164000D01*
Y-152000D02*
X126492Y-151120D01*
Y-152880D01*
X128016Y-152000D01*
X146016Y-128000D02*
X144492Y-127120D01*
Y-128880D01*
X146016Y-128000D01*
X158016Y-150000D02*
X156492Y-149120D01*
Y-150880D01*
X158016Y-150000D01*
Y-128000D02*
X156492Y-127120D01*
Y-128880D01*
X158016Y-128000D01*
X174016Y-137000D02*
X172492Y-136120D01*
Y-137880D01*
X174016Y-137000D01*
Y-154000D02*
X172492Y-153120D01*
Y-154880D01*
X174016Y-154000D01*
X181016Y-176000D02*
X179492Y-175120D01*
Y-176880D01*
X181016Y-176000D01*
X170016Y-194000D02*
X168492Y-193120D01*
Y-194880D01*
X170016Y-194000D01*
X179016Y-166000D02*
X177492Y-165120D01*
Y-166880D01*
X179016Y-166000D01*
X154016Y-164000D02*
X152492Y-163120D01*
Y-164880D01*
X154016Y-164000D01*
X150016Y-187000D02*
X148492Y-186120D01*
Y-187880D01*
X150016Y-187000D01*
X143016Y-174000D02*
X141492Y-173120D01*
Y-174880D01*
X143016Y-174000D01*
X157016Y-174064D02*
X155492Y-173184D01*
Y-174944D01*
X157016Y-174064D01*
Y-169000D02*
X155492Y-168120D01*
Y-169880D01*
X157016Y-169000D01*
X17997Y-121646D02*
X16473Y-120766D01*
Y-122526D01*
X17997Y-121646D01*
X144212Y-179468D02*
X142688Y-178588D01*
Y-180348D01*
X144212Y-179468D01*
Y-184532D02*
X142688Y-183652D01*
Y-185412D01*
X144212Y-184532D01*
X25215Y-114625D02*
X23691Y-113745D01*
Y-115505D01*
X25215Y-114625D01*
X21548Y-109336D02*
X20024Y-108456D01*
Y-110216D01*
X21548Y-109336D01*
X13548Y-117958D02*
X12024Y-117078D01*
Y-118838D01*
X13548Y-117958D01*
X8484D02*
X6960Y-117078D01*
Y-118838D01*
X8484Y-117958D01*
X3699Y-121384D02*
X2175Y-120504D01*
Y-122264D01*
X3699Y-121384D01*
X174016Y-148532D02*
X172492Y-147652D01*
Y-149412D01*
X174016Y-148532D01*
Y-143468D02*
X172492Y-142588D01*
Y-144348D01*
X174016Y-143468D01*
X102016Y-132755D02*
X100492Y-131875D01*
Y-133635D01*
X102016Y-132755D01*
X106016Y-136410D02*
X104492Y-135530D01*
Y-137289D01*
X106016Y-136410D01*
X77016Y-249000D02*
X75492Y-248120D01*
Y-249880D01*
X77016Y-249000D01*
X45016Y-130000D02*
X43492Y-129120D01*
Y-130880D01*
X45016Y-130000D01*
Y-143000D02*
X43492Y-142120D01*
Y-143880D01*
X45016Y-143000D01*
X19016Y-140000D02*
X17492Y-139120D01*
Y-140880D01*
X19016Y-140000D01*
X-294984Y-19000D02*
X-296508Y-18120D01*
Y-19880D01*
X-294984Y-19000D01*
X-311984Y-18000D02*
X-313508Y-17120D01*
Y-18880D01*
X-311984Y-18000D01*
X-327984Y-9000D02*
X-329508Y-8120D01*
Y-9880D01*
X-327984Y-9000D01*
X-312984Y-4000D02*
X-314508Y-3120D01*
Y-4880D01*
X-312984Y-4000D01*
X-314984Y7000D02*
X-316508Y7880D01*
Y6120D01*
X-314984Y7000D01*
Y19000D02*
X-316508Y19880D01*
Y18120D01*
X-314984Y19000D01*
X-232984Y-20000D02*
X-234508Y-19120D01*
Y-20880D01*
X-232984Y-20000D01*
X-215984Y-9000D02*
X-217508Y-8120D01*
Y-9880D01*
X-215984Y-9000D01*
X-203984Y-19000D02*
X-205508Y-18120D01*
Y-19880D01*
X-203984Y-19000D01*
X-219984Y19000D02*
X-221508Y19880D01*
Y18120D01*
X-219984Y19000D01*
Y7000D02*
X-221508Y7880D01*
Y6120D01*
X-219984Y7000D01*
X265016Y-17000D02*
X263492Y-16120D01*
Y-17880D01*
X265016Y-17000D01*
X274016Y-9000D02*
X272492Y-8120D01*
Y-9880D01*
X274016Y-9000D01*
X298016Y-21000D02*
X296492Y-20120D01*
Y-21880D01*
X298016Y-21000D01*
X296016Y-8000D02*
X294492Y-7120D01*
Y-8880D01*
X296016Y-8000D01*
X299016Y18000D02*
X297492Y18880D01*
Y17120D01*
X299016Y18000D01*
X316016Y19000D02*
X314492Y19880D01*
Y18120D01*
X316016Y19000D01*
X-309984Y10346D02*
X-311508Y11226D01*
Y9466D01*
X-309984Y10346D01*
Y15410D02*
X-311508Y16289D01*
Y14530D01*
X-309984Y15410D01*
X-224984Y10346D02*
X-226508Y11226D01*
Y9466D01*
X-224984Y10346D01*
Y15410D02*
X-226508Y16289D01*
Y14530D01*
X-224984Y15410D01*
X30016Y-230000D02*
X28492Y-229120D01*
Y-230880D01*
X30016Y-230000D01*
X26415Y-234727D02*
X24891Y-233847D01*
Y-235607D01*
X26415Y-234727D01*
X301016Y-11000D02*
X299492Y-10120D01*
Y-11880D01*
X301016Y-11000D01*
Y-16064D02*
X299492Y-15184D01*
Y-16944D01*
X301016Y-16064D01*
X179361Y-12532D02*
X177837Y-11652D01*
Y-13412D01*
X179361Y-12532D01*
Y-7468D02*
X177837Y-6588D01*
Y-8348D01*
X179361Y-7468D01*
X179016Y-532D02*
X177492Y348D01*
Y-1412D01*
X179016Y-532D01*
Y4532D02*
X177492Y5412D01*
Y3652D01*
X179016Y4532D01*
X-300920Y-17000D02*
X-302444Y-16120D01*
Y-17880D01*
X-300920Y-17000D01*
X-305984D02*
X-307508Y-16120D01*
Y-17880D01*
X-305984Y-17000D01*
X-227774Y-22696D02*
X-229298Y-21817D01*
Y-23576D01*
X-227774Y-22696D01*
Y-27760D02*
X-229298Y-26881D01*
Y-28640D01*
X-227774Y-27760D01*
X-210625Y-12473D02*
X-212149Y-11594D01*
Y-13353D01*
X-210625Y-12473D01*
Y-17537D02*
X-212149Y-16658D01*
Y-18417D01*
X-210625Y-17537D01*
X22016Y-240000D02*
X20492Y-239120D01*
Y-240879D01*
X22016Y-240000D01*
X5208Y-111349D02*
X3684Y-110469D01*
Y-112229D01*
X5208Y-111349D01*
X16484Y-109336D02*
X14960Y-108456D01*
Y-110216D01*
X16484Y-109336D01*
X158517Y-155468D02*
X156993Y-154588D01*
Y-156348D01*
X158517Y-155468D01*
Y-160532D02*
X156993Y-159652D01*
Y-161412D01*
X158517Y-160532D01*
X173243Y-167432D02*
X171719Y-166552D01*
Y-168312D01*
X173243Y-167432D01*
Y-172496D02*
X171719Y-171616D01*
Y-173376D01*
X173243Y-172496D01*
X49533Y-133666D02*
X48009Y-132786D01*
Y-134546D01*
X49533Y-133666D01*
Y-138730D02*
X48009Y-137850D01*
Y-139610D01*
X49533Y-138730D01*
X9016Y-141000D02*
X7492Y-140120D01*
Y-141880D01*
X9016Y-141000D01*
X13349Y-138171D02*
X11825Y-137291D01*
Y-139051D01*
X13349Y-138171D01*
X-6984Y-136000D02*
X-8508Y-135120D01*
Y-136880D01*
X-6984Y-136000D01*
X67435Y-244419D02*
X65911Y-243539D01*
Y-245299D01*
X67435Y-244419D01*
X71016Y-248000D02*
X69492Y-247120D01*
Y-248880D01*
X71016Y-248000D01*
X5016Y-137000D02*
X3492Y-136120D01*
Y-137880D01*
X5016Y-137000D01*
X179016Y-24675D02*
X177492Y-23795D01*
Y-25555D01*
X179016Y-24675D01*
Y-19611D02*
X177492Y-18731D01*
Y-20491D01*
X179016Y-19611D01*
X78516Y-322658D02*
X76992Y-321778D01*
Y-323538D01*
X78516Y-322658D01*
X83516D02*
X81992Y-321778D01*
Y-323538D01*
X83516Y-322658D01*
X-324984Y-4000D02*
X-326508Y-3120D01*
Y-4880D01*
X-324984Y-4000D01*
X-319920D02*
X-321444Y-3120D01*
Y-4880D01*
X-319920Y-4000D01*
X309691Y20000D02*
X308167Y20880D01*
Y19120D01*
X309691Y20000D01*
X304627D02*
X303103Y20880D01*
Y19120D01*
X304627Y20000D01*
X271435Y-18581D02*
X269911Y-17701D01*
Y-19461D01*
X271435Y-18581D01*
X275016Y-15000D02*
X273492Y-14120D01*
Y-15880D01*
X275016Y-15000D01*
X35976Y-309000D02*
X34452Y-308120D01*
Y-309880D01*
X35976Y-309000D01*
X41056D02*
X39532Y-308120D01*
Y-309880D01*
X41056Y-309000D01*
X88844Y-322722D02*
X87320Y-321842D01*
Y-323602D01*
X88844Y-322722D01*
X71064Y-309514D02*
X69540Y-308634D01*
Y-310394D01*
X71064Y-309514D01*
X80976Y-309000D02*
X79452Y-308120D01*
Y-309880D01*
X80976Y-309000D01*
X86056D02*
X84532Y-308120D01*
Y-309880D01*
X86056Y-309000D01*
X48516Y-322658D02*
X46992Y-321778D01*
Y-323538D01*
X48516Y-322658D01*
X53538Y-322722D02*
X52014Y-321842D01*
Y-323602D01*
X53538Y-322722D01*
X43516Y-322658D02*
X41992Y-321778D01*
Y-323538D01*
X43516Y-322658D01*
X38516D02*
X36992Y-321778D01*
Y-323538D01*
X38516Y-322658D01*
X75660Y-306188D02*
X74136Y-305308D01*
Y-307068D01*
X75660Y-306188D01*
X33218Y-322722D02*
X31694Y-321842D01*
Y-323602D01*
X33218Y-322722D01*
X73516Y-322658D02*
X71992Y-321778D01*
Y-323538D01*
X73516Y-322658D01*
X46172Y-308752D02*
X44648Y-307872D01*
Y-309632D01*
X46172Y-308752D01*
X59718Y-315702D02*
X58194Y-314822D01*
Y-316582D01*
X59718Y-315702D01*
X63516Y-323048D02*
X61992Y-322168D01*
Y-323928D01*
X63516Y-323048D01*
M02*
