G04*
G04 #@! TF.GenerationSoftware,Altium Limited,Altium Designer,23.3.1 (30)*
G04*
G04 Layer_Color=32768*
%FSLAX44Y44*%
%MOMM*%
G71*
G04*
G04 #@! TF.SameCoordinates,D45B20F3-F38D-42A2-87FA-560754FB767C*
G04*
G04*
G04 #@! TF.FilePolarity,Positive*
G04*
G01*
G75*
G36*
X-358542Y329715D02*
X-358441Y329706D01*
X-358348Y329688D01*
X-358265Y329678D01*
X-358200Y329669D01*
X-358163Y329660D01*
X-358145D01*
X-358246Y328967D01*
X-358320Y328976D01*
X-358394Y328985D01*
X-358459D01*
X-358505Y328994D01*
X-358598D01*
X-358718Y328985D01*
X-358801Y328967D01*
X-358847Y328948D01*
X-358866Y328939D01*
X-358931Y328893D01*
X-358968Y328846D01*
X-358995Y328809D01*
X-359005Y328791D01*
X-359014Y328745D01*
X-359023Y328680D01*
X-359032Y328532D01*
X-359041Y328467D01*
Y328412D01*
Y328375D01*
Y328356D01*
Y325629D01*
X-358246D01*
Y325019D01*
X-359041D01*
Y323401D01*
X-359827Y323872D01*
Y325019D01*
X-360410D01*
Y325629D01*
X-359827D01*
Y328310D01*
Y328440D01*
Y328550D01*
X-359818Y328652D01*
X-359809Y328754D01*
Y328837D01*
X-359800Y328911D01*
X-359781Y329031D01*
X-359763Y329124D01*
X-359753Y329188D01*
X-359735Y329226D01*
Y329235D01*
X-359698Y329318D01*
X-359642Y329383D01*
X-359587Y329447D01*
X-359541Y329494D01*
X-359485Y329540D01*
X-359448Y329567D01*
X-359421Y329586D01*
X-359411Y329595D01*
X-359310Y329641D01*
X-359208Y329669D01*
X-359097Y329697D01*
X-358986Y329706D01*
X-358894Y329715D01*
X-358820Y329725D01*
X-358746D01*
X-358542Y329715D01*
D02*
G37*
G36*
X-370478D02*
X-370377Y329706D01*
X-370284Y329688D01*
X-370201Y329678D01*
X-370136Y329669D01*
X-370099Y329660D01*
X-370081D01*
X-370182Y328967D01*
X-370256Y328976D01*
X-370330Y328985D01*
X-370395D01*
X-370441Y328994D01*
X-370534D01*
X-370654Y328985D01*
X-370737Y328967D01*
X-370783Y328948D01*
X-370802Y328939D01*
X-370867Y328893D01*
X-370904Y328846D01*
X-370931Y328809D01*
X-370941Y328791D01*
X-370950Y328745D01*
X-370959Y328680D01*
X-370968Y328532D01*
X-370978Y328467D01*
Y328412D01*
Y328375D01*
Y328356D01*
Y325629D01*
X-370182D01*
Y325019D01*
X-370978D01*
Y323401D01*
X-371763Y323872D01*
Y325019D01*
X-372346D01*
Y325629D01*
X-371763D01*
Y328310D01*
Y328440D01*
Y328550D01*
X-371754Y328652D01*
X-371745Y328754D01*
Y328837D01*
X-371736Y328911D01*
X-371717Y329031D01*
X-371699Y329124D01*
X-371689Y329188D01*
X-371671Y329226D01*
Y329235D01*
X-371634Y329318D01*
X-371578Y329383D01*
X-371523Y329447D01*
X-371477Y329494D01*
X-371421Y329540D01*
X-371384Y329567D01*
X-371357Y329586D01*
X-371347Y329595D01*
X-371246Y329641D01*
X-371144Y329669D01*
X-371033Y329697D01*
X-370922Y329706D01*
X-370830Y329715D01*
X-370756Y329725D01*
X-370682D01*
X-370478Y329715D01*
D02*
G37*
G36*
X-348002Y329753D02*
X-347864Y329743D01*
X-347623Y329688D01*
X-347401Y329623D01*
X-347216Y329540D01*
X-347142Y329494D01*
X-347068Y329457D01*
X-347004Y329420D01*
X-346958Y329383D01*
X-346921Y329355D01*
X-346893Y329336D01*
X-346874Y329327D01*
X-346865Y329318D01*
X-346773Y329226D01*
X-346689Y329133D01*
X-346541Y328930D01*
X-346421Y328717D01*
X-346338Y328523D01*
X-346273Y328338D01*
X-346255Y328264D01*
X-346236Y328190D01*
X-346227Y328134D01*
X-346218Y328097D01*
X-346209Y328070D01*
Y328060D01*
X-346985Y327959D01*
X-347022Y328162D01*
X-347078Y328347D01*
X-347152Y328495D01*
X-347216Y328615D01*
X-347281Y328717D01*
X-347337Y328782D01*
X-347364Y328828D01*
X-347383Y328837D01*
X-347503Y328930D01*
X-347632Y328994D01*
X-347762Y329050D01*
X-347882Y329077D01*
X-347984Y329096D01*
X-348076Y329105D01*
X-348132Y329114D01*
X-348150D01*
X-348252Y329105D01*
X-348354Y329096D01*
X-348539Y329050D01*
X-348696Y328985D01*
X-348834Y328902D01*
X-348936Y328828D01*
X-349019Y328763D01*
X-349066Y328717D01*
X-349084Y328699D01*
X-349149Y328615D01*
X-349204Y328513D01*
X-349287Y328310D01*
X-349352Y328079D01*
X-349389Y327857D01*
X-349417Y327654D01*
X-349426Y327570D01*
Y327487D01*
X-349435Y327432D01*
Y327376D01*
Y327349D01*
Y327339D01*
Y327173D01*
X-349417Y327016D01*
X-349398Y326868D01*
X-349380Y326738D01*
X-349352Y326618D01*
X-349315Y326507D01*
X-349287Y326405D01*
X-349250Y326313D01*
X-349213Y326239D01*
X-349186Y326174D01*
X-349149Y326119D01*
X-349121Y326073D01*
X-349103Y326036D01*
X-349084Y326008D01*
X-349066Y325999D01*
Y325989D01*
X-348992Y325915D01*
X-348918Y325851D01*
X-348760Y325740D01*
X-348594Y325666D01*
X-348446Y325620D01*
X-348307Y325583D01*
X-348206Y325573D01*
X-348159Y325564D01*
X-348104D01*
X-347965Y325573D01*
X-347836Y325601D01*
X-347725Y325638D01*
X-347623Y325684D01*
X-347549Y325731D01*
X-347485Y325768D01*
X-347448Y325795D01*
X-347438Y325805D01*
X-347346Y325897D01*
X-347263Y326008D01*
X-347189Y326128D01*
X-347142Y326239D01*
X-347096Y326341D01*
X-347068Y326424D01*
X-347059Y326479D01*
X-347050Y326489D01*
Y326498D01*
X-346283Y326378D01*
X-346347Y326128D01*
X-346440Y325915D01*
X-346541Y325731D01*
X-346643Y325583D01*
X-346745Y325462D01*
X-346828Y325379D01*
X-346884Y325324D01*
X-346893Y325305D01*
X-346902D01*
X-347096Y325176D01*
X-347300Y325083D01*
X-347503Y325009D01*
X-347697Y324963D01*
X-347873Y324935D01*
X-347947Y324926D01*
X-348002D01*
X-348058Y324917D01*
X-348132D01*
X-348354Y324926D01*
X-348557Y324963D01*
X-348751Y325009D01*
X-348908Y325056D01*
X-349047Y325111D01*
X-349103Y325139D01*
X-349149Y325157D01*
X-349186Y325176D01*
X-349213Y325194D01*
X-349232Y325204D01*
X-349241D01*
X-349417Y325315D01*
X-349574Y325453D01*
X-349703Y325592D01*
X-349814Y325731D01*
X-349898Y325851D01*
X-349953Y325952D01*
X-349972Y325989D01*
X-349990Y326017D01*
X-349999Y326036D01*
Y326045D01*
X-350083Y326267D01*
X-350138Y326489D01*
X-350184Y326711D01*
X-350212Y326914D01*
X-350221Y327006D01*
X-350230Y327090D01*
Y327164D01*
X-350240Y327228D01*
Y327284D01*
Y327321D01*
Y327349D01*
Y327358D01*
X-350230Y327570D01*
X-350212Y327765D01*
X-350184Y327959D01*
X-350147Y328125D01*
X-350110Y328292D01*
X-350055Y328430D01*
X-350009Y328569D01*
X-349953Y328689D01*
X-349898Y328791D01*
X-349851Y328883D01*
X-349796Y328967D01*
X-349759Y329031D01*
X-349722Y329077D01*
X-349694Y329114D01*
X-349676Y329133D01*
X-349666Y329142D01*
X-349556Y329253D01*
X-349435Y329346D01*
X-349315Y329429D01*
X-349186Y329503D01*
X-349056Y329558D01*
X-348936Y329614D01*
X-348686Y329688D01*
X-348576Y329706D01*
X-348474Y329725D01*
X-348381Y329743D01*
X-348298Y329753D01*
X-348233Y329762D01*
X-348141D01*
X-348002Y329753D01*
D02*
G37*
G36*
X-362425D02*
X-362287Y329743D01*
X-362046Y329688D01*
X-361824Y329623D01*
X-361640Y329540D01*
X-361566Y329494D01*
X-361492Y329457D01*
X-361427Y329420D01*
X-361381Y329383D01*
X-361344Y329355D01*
X-361316Y329336D01*
X-361297Y329327D01*
X-361288Y329318D01*
X-361196Y329226D01*
X-361113Y329133D01*
X-360965Y328930D01*
X-360844Y328717D01*
X-360761Y328523D01*
X-360696Y328338D01*
X-360678Y328264D01*
X-360659Y328190D01*
X-360650Y328134D01*
X-360641Y328097D01*
X-360632Y328070D01*
Y328060D01*
X-361408Y327959D01*
X-361445Y328162D01*
X-361501Y328347D01*
X-361575Y328495D01*
X-361640Y328615D01*
X-361704Y328717D01*
X-361760Y328782D01*
X-361787Y328828D01*
X-361806Y328837D01*
X-361926Y328930D01*
X-362056Y328994D01*
X-362185Y329050D01*
X-362305Y329077D01*
X-362407Y329096D01*
X-362499Y329105D01*
X-362555Y329114D01*
X-362573D01*
X-362675Y329105D01*
X-362777Y329096D01*
X-362962Y329050D01*
X-363119Y328985D01*
X-363257Y328902D01*
X-363359Y328828D01*
X-363442Y328763D01*
X-363489Y328717D01*
X-363507Y328699D01*
X-363572Y328615D01*
X-363627Y328513D01*
X-363711Y328310D01*
X-363775Y328079D01*
X-363812Y327857D01*
X-363840Y327654D01*
X-363849Y327570D01*
Y327487D01*
X-363858Y327432D01*
Y327376D01*
Y327349D01*
Y327339D01*
Y327173D01*
X-363840Y327016D01*
X-363821Y326868D01*
X-363803Y326738D01*
X-363775Y326618D01*
X-363738Y326507D01*
X-363711Y326405D01*
X-363674Y326313D01*
X-363637Y326239D01*
X-363609Y326174D01*
X-363572Y326119D01*
X-363544Y326073D01*
X-363526Y326036D01*
X-363507Y326008D01*
X-363489Y325999D01*
Y325989D01*
X-363415Y325915D01*
X-363341Y325851D01*
X-363184Y325740D01*
X-363017Y325666D01*
X-362869Y325620D01*
X-362730Y325583D01*
X-362629Y325573D01*
X-362583Y325564D01*
X-362527D01*
X-362388Y325573D01*
X-362259Y325601D01*
X-362148Y325638D01*
X-362046Y325684D01*
X-361972Y325731D01*
X-361908Y325768D01*
X-361871Y325795D01*
X-361861Y325805D01*
X-361769Y325897D01*
X-361686Y326008D01*
X-361612Y326128D01*
X-361566Y326239D01*
X-361519Y326341D01*
X-361492Y326424D01*
X-361482Y326479D01*
X-361473Y326489D01*
Y326498D01*
X-360706Y326378D01*
X-360770Y326128D01*
X-360863Y325915D01*
X-360965Y325731D01*
X-361066Y325583D01*
X-361168Y325462D01*
X-361251Y325379D01*
X-361307Y325324D01*
X-361316Y325305D01*
X-361325D01*
X-361519Y325176D01*
X-361723Y325083D01*
X-361926Y325009D01*
X-362120Y324963D01*
X-362296Y324935D01*
X-362370Y324926D01*
X-362425D01*
X-362481Y324917D01*
X-362555D01*
X-362777Y324926D01*
X-362980Y324963D01*
X-363174Y325009D01*
X-363331Y325056D01*
X-363470Y325111D01*
X-363526Y325139D01*
X-363572Y325157D01*
X-363609Y325176D01*
X-363637Y325194D01*
X-363655Y325204D01*
X-363664D01*
X-363840Y325315D01*
X-363997Y325453D01*
X-364127Y325592D01*
X-364238Y325731D01*
X-364321Y325851D01*
X-364376Y325952D01*
X-364395Y325989D01*
X-364413Y326017D01*
X-364422Y326036D01*
Y326045D01*
X-364506Y326267D01*
X-364561Y326489D01*
X-364607Y326711D01*
X-364635Y326914D01*
X-364644Y327006D01*
X-364654Y327090D01*
Y327164D01*
X-364663Y327228D01*
Y327284D01*
Y327321D01*
Y327349D01*
Y327358D01*
X-364654Y327570D01*
X-364635Y327765D01*
X-364607Y327959D01*
X-364570Y328125D01*
X-364533Y328292D01*
X-364478Y328430D01*
X-364432Y328569D01*
X-364376Y328689D01*
X-364321Y328791D01*
X-364274Y328883D01*
X-364219Y328967D01*
X-364182Y329031D01*
X-364145Y329077D01*
X-364117Y329114D01*
X-364099Y329133D01*
X-364090Y329142D01*
X-363979Y329253D01*
X-363858Y329346D01*
X-363738Y329429D01*
X-363609Y329503D01*
X-363479Y329558D01*
X-363359Y329614D01*
X-363110Y329688D01*
X-362999Y329706D01*
X-362897Y329725D01*
X-362804Y329743D01*
X-362721Y329753D01*
X-362657Y329762D01*
X-362564D01*
X-362425Y329753D01*
D02*
G37*
G36*
X-384310D02*
X-384171Y329743D01*
X-383931Y329688D01*
X-383709Y329623D01*
X-383524Y329540D01*
X-383450Y329494D01*
X-383376Y329457D01*
X-383311Y329420D01*
X-383265Y329383D01*
X-383228Y329355D01*
X-383200Y329336D01*
X-383182Y329327D01*
X-383172Y329318D01*
X-383080Y329226D01*
X-382997Y329133D01*
X-382849Y328930D01*
X-382729Y328717D01*
X-382645Y328523D01*
X-382581Y328338D01*
X-382562Y328264D01*
X-382544Y328190D01*
X-382534Y328134D01*
X-382525Y328097D01*
X-382516Y328070D01*
Y328060D01*
X-383293Y327959D01*
X-383330Y328162D01*
X-383385Y328347D01*
X-383459Y328495D01*
X-383524Y328615D01*
X-383588Y328717D01*
X-383644Y328782D01*
X-383672Y328828D01*
X-383690Y328837D01*
X-383810Y328930D01*
X-383940Y328994D01*
X-384069Y329050D01*
X-384189Y329077D01*
X-384291Y329096D01*
X-384384Y329105D01*
X-384439Y329114D01*
X-384458D01*
X-384559Y329105D01*
X-384661Y329096D01*
X-384846Y329050D01*
X-385003Y328985D01*
X-385142Y328902D01*
X-385243Y328828D01*
X-385327Y328763D01*
X-385373Y328717D01*
X-385391Y328699D01*
X-385456Y328615D01*
X-385512Y328513D01*
X-385595Y328310D01*
X-385660Y328079D01*
X-385696Y327857D01*
X-385724Y327654D01*
X-385733Y327570D01*
Y327487D01*
X-385743Y327432D01*
Y327376D01*
Y327349D01*
Y327339D01*
Y327173D01*
X-385724Y327016D01*
X-385706Y326868D01*
X-385687Y326738D01*
X-385660Y326618D01*
X-385623Y326507D01*
X-385595Y326405D01*
X-385558Y326313D01*
X-385521Y326239D01*
X-385493Y326174D01*
X-385456Y326119D01*
X-385428Y326073D01*
X-385410Y326036D01*
X-385391Y326008D01*
X-385373Y325999D01*
Y325989D01*
X-385299Y325915D01*
X-385225Y325851D01*
X-385068Y325740D01*
X-384901Y325666D01*
X-384753Y325620D01*
X-384615Y325583D01*
X-384513Y325573D01*
X-384467Y325564D01*
X-384411D01*
X-384273Y325573D01*
X-384143Y325601D01*
X-384032Y325638D01*
X-383931Y325684D01*
X-383857Y325731D01*
X-383792Y325768D01*
X-383755Y325795D01*
X-383746Y325805D01*
X-383653Y325897D01*
X-383570Y326008D01*
X-383496Y326128D01*
X-383450Y326239D01*
X-383404Y326341D01*
X-383376Y326424D01*
X-383367Y326479D01*
X-383357Y326489D01*
Y326498D01*
X-382590Y326378D01*
X-382655Y326128D01*
X-382747Y325915D01*
X-382849Y325731D01*
X-382951Y325583D01*
X-383052Y325462D01*
X-383135Y325379D01*
X-383191Y325324D01*
X-383200Y325305D01*
X-383209D01*
X-383404Y325176D01*
X-383607Y325083D01*
X-383810Y325009D01*
X-384005Y324963D01*
X-384180Y324935D01*
X-384254Y324926D01*
X-384310D01*
X-384365Y324917D01*
X-384439D01*
X-384661Y324926D01*
X-384864Y324963D01*
X-385059Y325009D01*
X-385216Y325056D01*
X-385354Y325111D01*
X-385410Y325139D01*
X-385456Y325157D01*
X-385493Y325176D01*
X-385521Y325194D01*
X-385539Y325204D01*
X-385549D01*
X-385724Y325315D01*
X-385881Y325453D01*
X-386011Y325592D01*
X-386122Y325731D01*
X-386205Y325851D01*
X-386260Y325952D01*
X-386279Y325989D01*
X-386297Y326017D01*
X-386307Y326036D01*
Y326045D01*
X-386390Y326267D01*
X-386445Y326489D01*
X-386492Y326711D01*
X-386519Y326914D01*
X-386529Y327006D01*
X-386538Y327090D01*
Y327164D01*
X-386547Y327228D01*
Y327284D01*
Y327321D01*
Y327349D01*
Y327358D01*
X-386538Y327570D01*
X-386519Y327765D01*
X-386492Y327959D01*
X-386455Y328125D01*
X-386418Y328292D01*
X-386362Y328430D01*
X-386316Y328569D01*
X-386260Y328689D01*
X-386205Y328791D01*
X-386159Y328883D01*
X-386103Y328967D01*
X-386066Y329031D01*
X-386029Y329077D01*
X-386002Y329114D01*
X-385983Y329133D01*
X-385974Y329142D01*
X-385863Y329253D01*
X-385743Y329346D01*
X-385623Y329429D01*
X-385493Y329503D01*
X-385364Y329558D01*
X-385243Y329614D01*
X-384994Y329688D01*
X-384883Y329706D01*
X-384781Y329725D01*
X-384689Y329743D01*
X-384606Y329753D01*
X-384541Y329762D01*
X-384448D01*
X-384310Y329753D01*
D02*
G37*
G36*
X-373104Y326812D02*
Y326618D01*
X-373113Y326461D01*
X-373122Y326332D01*
Y326221D01*
X-373132Y326147D01*
X-373141Y326091D01*
X-373150Y326054D01*
Y326045D01*
X-373178Y325925D01*
X-373224Y325814D01*
X-373261Y325721D01*
X-373298Y325629D01*
X-373344Y325564D01*
X-373372Y325518D01*
X-373391Y325481D01*
X-373400Y325472D01*
X-373474Y325379D01*
X-373557Y325305D01*
X-373640Y325231D01*
X-373733Y325176D01*
X-373807Y325130D01*
X-373871Y325102D01*
X-373908Y325083D01*
X-373927Y325074D01*
X-374056Y325019D01*
X-374195Y324982D01*
X-374324Y324954D01*
X-374445Y324935D01*
X-374546Y324926D01*
X-374620Y324917D01*
X-374694D01*
X-374870Y324926D01*
X-375036Y324954D01*
X-375184Y324991D01*
X-375332Y325037D01*
X-375462Y325093D01*
X-375582Y325157D01*
X-375693Y325231D01*
X-375785Y325296D01*
X-375878Y325370D01*
X-375952Y325444D01*
X-376016Y325509D01*
X-376072Y325564D01*
X-376109Y325610D01*
X-376137Y325647D01*
X-376155Y325675D01*
X-376164Y325684D01*
Y325019D01*
X-376867D01*
Y329660D01*
X-376081D01*
Y327136D01*
Y326979D01*
X-376063Y326822D01*
X-376044Y326692D01*
X-376026Y326572D01*
X-375998Y326461D01*
X-375970Y326359D01*
X-375933Y326267D01*
X-375896Y326193D01*
X-375868Y326128D01*
X-375831Y326073D01*
X-375804Y326026D01*
X-375776Y325989D01*
X-375739Y325943D01*
X-375720Y325925D01*
X-375582Y325814D01*
X-375434Y325740D01*
X-375286Y325684D01*
X-375157Y325638D01*
X-375036Y325620D01*
X-374944Y325610D01*
X-374907Y325601D01*
X-374861D01*
X-374750Y325610D01*
X-374639Y325620D01*
X-374546Y325647D01*
X-374472Y325675D01*
X-374408Y325703D01*
X-374352Y325721D01*
X-374324Y325740D01*
X-374315Y325749D01*
X-374232Y325805D01*
X-374158Y325869D01*
X-374103Y325934D01*
X-374056Y325989D01*
X-374029Y326045D01*
X-374001Y326091D01*
X-373982Y326119D01*
Y326128D01*
X-373955Y326230D01*
X-373927Y326341D01*
X-373908Y326461D01*
X-373899Y326581D01*
X-373890Y326683D01*
Y326766D01*
Y326831D01*
Y326840D01*
Y326849D01*
Y329660D01*
X-373104D01*
Y326812D01*
D02*
G37*
G36*
X-367926Y329753D02*
X-367760Y329734D01*
X-367612Y329715D01*
X-367483Y329688D01*
X-367381Y329660D01*
X-367298Y329632D01*
X-367242Y329623D01*
X-367224Y329614D01*
X-367067Y329549D01*
X-366919Y329466D01*
X-366780Y329373D01*
X-366641Y329290D01*
X-366530Y329207D01*
X-366447Y329142D01*
X-366392Y329096D01*
X-366382Y329077D01*
X-366373D01*
X-366355Y329198D01*
X-366336Y329309D01*
X-366318Y329410D01*
X-366290Y329494D01*
X-366262Y329567D01*
X-366244Y329614D01*
X-366235Y329651D01*
X-366225Y329660D01*
X-365402D01*
X-365449Y329558D01*
X-365495Y329457D01*
X-365532Y329364D01*
X-365550Y329281D01*
X-365578Y329207D01*
X-365587Y329151D01*
X-365597Y329114D01*
Y329105D01*
X-365606Y329040D01*
X-365615Y328957D01*
Y328865D01*
X-365624Y328763D01*
X-365634Y328532D01*
Y328301D01*
X-365643Y328079D01*
Y327977D01*
Y327894D01*
Y327820D01*
Y327765D01*
Y327728D01*
Y327718D01*
Y326664D01*
Y326489D01*
X-365652Y326332D01*
X-365661Y326211D01*
Y326110D01*
X-365671Y326036D01*
X-365680Y325980D01*
X-365689Y325952D01*
Y325943D01*
X-365717Y325823D01*
X-365754Y325721D01*
X-365791Y325638D01*
X-365837Y325555D01*
X-365874Y325499D01*
X-365902Y325453D01*
X-365920Y325425D01*
X-365929Y325416D01*
X-366003Y325342D01*
X-366087Y325268D01*
X-366179Y325213D01*
X-366272Y325157D01*
X-366355Y325120D01*
X-366419Y325093D01*
X-366466Y325074D01*
X-366484Y325065D01*
X-366632Y325019D01*
X-366789Y324982D01*
X-366946Y324954D01*
X-367104Y324935D01*
X-367242Y324926D01*
X-367344Y324917D01*
X-367446D01*
X-367668Y324926D01*
X-367862Y324945D01*
X-368047Y324972D01*
X-368195Y325000D01*
X-368324Y325028D01*
X-368416Y325056D01*
X-368453Y325065D01*
X-368481Y325074D01*
X-368490Y325083D01*
X-368500D01*
X-368657Y325148D01*
X-368796Y325231D01*
X-368916Y325305D01*
X-369017Y325379D01*
X-369091Y325453D01*
X-369147Y325509D01*
X-369184Y325546D01*
X-369193Y325555D01*
X-369276Y325675D01*
X-369350Y325805D01*
X-369406Y325934D01*
X-369452Y326054D01*
X-369489Y326174D01*
X-369517Y326258D01*
X-369526Y326295D01*
Y326322D01*
X-369535Y326332D01*
Y326341D01*
X-368768Y326442D01*
X-368712Y326276D01*
X-368657Y326128D01*
X-368592Y326008D01*
X-368537Y325915D01*
X-368481Y325842D01*
X-368435Y325795D01*
X-368398Y325768D01*
X-368389Y325758D01*
X-368278Y325694D01*
X-368148Y325647D01*
X-368010Y325610D01*
X-367880Y325592D01*
X-367751Y325573D01*
X-367658Y325564D01*
X-367566D01*
X-367353Y325573D01*
X-367168Y325601D01*
X-367020Y325647D01*
X-366891Y325694D01*
X-366799Y325749D01*
X-366725Y325786D01*
X-366678Y325823D01*
X-366669Y325832D01*
X-366595Y325915D01*
X-366540Y326017D01*
X-366493Y326128D01*
X-366466Y326239D01*
X-366447Y326341D01*
X-366438Y326433D01*
Y326489D01*
Y326498D01*
Y326507D01*
Y326526D01*
Y326563D01*
Y326627D01*
X-366447Y326683D01*
Y326701D01*
Y326711D01*
X-366540Y326738D01*
X-366641Y326766D01*
X-366854Y326822D01*
X-367094Y326868D01*
X-367316Y326914D01*
X-367427Y326932D01*
X-367529Y326942D01*
X-367621Y326960D01*
X-367695Y326969D01*
X-367760Y326979D01*
X-367806D01*
X-367843Y326988D01*
X-367853D01*
X-368019Y327006D01*
X-368158Y327034D01*
X-368278Y327053D01*
X-368370Y327071D01*
X-368444Y327080D01*
X-368500Y327099D01*
X-368537Y327108D01*
X-368546D01*
X-368666Y327145D01*
X-368768Y327182D01*
X-368870Y327228D01*
X-368953Y327265D01*
X-369027Y327302D01*
X-369073Y327339D01*
X-369110Y327358D01*
X-369119Y327367D01*
X-369212Y327432D01*
X-369286Y327506D01*
X-369360Y327580D01*
X-369415Y327654D01*
X-369461Y327718D01*
X-369498Y327774D01*
X-369517Y327811D01*
X-369526Y327820D01*
X-369572Y327922D01*
X-369609Y328033D01*
X-369637Y328134D01*
X-369655Y328236D01*
X-369665Y328319D01*
X-369674Y328384D01*
Y328421D01*
Y328440D01*
X-369665Y328550D01*
X-369655Y328643D01*
X-369609Y328837D01*
X-369544Y328994D01*
X-369470Y329133D01*
X-369397Y329244D01*
X-369332Y329327D01*
X-369286Y329373D01*
X-369267Y329392D01*
X-369101Y329512D01*
X-368916Y329604D01*
X-368712Y329669D01*
X-368527Y329715D01*
X-368361Y329743D01*
X-368287Y329753D01*
X-368222D01*
X-368167Y329762D01*
X-368093D01*
X-367926Y329753D01*
D02*
G37*
G36*
X-379742D02*
X-379539Y329715D01*
X-379345Y329669D01*
X-379188Y329623D01*
X-379049Y329567D01*
X-378993Y329549D01*
X-378947Y329531D01*
X-378901Y329512D01*
X-378873Y329494D01*
X-378864Y329484D01*
X-378855D01*
X-378670Y329364D01*
X-378513Y329235D01*
X-378374Y329105D01*
X-378263Y328976D01*
X-378180Y328865D01*
X-378115Y328772D01*
X-378097Y328735D01*
X-378078Y328708D01*
X-378069Y328699D01*
Y328689D01*
X-377976Y328477D01*
X-377912Y328245D01*
X-377856Y328014D01*
X-377828Y327783D01*
X-377810Y327681D01*
Y327589D01*
X-377801Y327496D01*
X-377791Y327423D01*
Y327358D01*
Y327312D01*
Y327284D01*
Y327275D01*
X-377801Y327071D01*
X-377819Y326886D01*
X-377847Y326711D01*
X-377884Y326544D01*
X-377930Y326387D01*
X-377986Y326248D01*
X-378041Y326110D01*
X-378097Y325999D01*
X-378152Y325897D01*
X-378208Y325805D01*
X-378263Y325721D01*
X-378309Y325657D01*
X-378346Y325610D01*
X-378374Y325573D01*
X-378392Y325555D01*
X-378402Y325546D01*
X-378522Y325435D01*
X-378642Y325342D01*
X-378772Y325250D01*
X-378901Y325185D01*
X-379030Y325120D01*
X-379160Y325074D01*
X-379409Y324991D01*
X-379530Y324972D01*
X-379631Y324954D01*
X-379724Y324935D01*
X-379807Y324926D01*
X-379872Y324917D01*
X-379964D01*
X-380121Y324926D01*
X-380269Y324935D01*
X-380556Y325000D01*
X-380806Y325083D01*
X-380917Y325130D01*
X-381018Y325176D01*
X-381111Y325222D01*
X-381185Y325268D01*
X-381259Y325315D01*
X-381314Y325351D01*
X-381360Y325388D01*
X-381397Y325416D01*
X-381416Y325425D01*
X-381425Y325435D01*
X-381554Y325555D01*
X-381656Y325694D01*
X-381758Y325842D01*
X-381832Y325989D01*
X-381906Y326147D01*
X-381961Y326313D01*
X-382007Y326470D01*
X-382044Y326618D01*
X-382081Y326766D01*
X-382100Y326896D01*
X-382118Y327025D01*
X-382128Y327127D01*
Y327219D01*
X-382137Y327284D01*
Y327321D01*
Y327339D01*
X-382128Y327552D01*
X-382109Y327755D01*
X-382081Y327940D01*
X-382044Y328116D01*
X-381998Y328273D01*
X-381952Y328421D01*
X-381897Y328560D01*
X-381841Y328680D01*
X-381786Y328791D01*
X-381730Y328883D01*
X-381684Y328957D01*
X-381638Y329022D01*
X-381601Y329077D01*
X-381573Y329114D01*
X-381554Y329133D01*
X-381545Y329142D01*
X-381425Y329253D01*
X-381305Y329346D01*
X-381175Y329429D01*
X-381046Y329503D01*
X-380917Y329558D01*
X-380778Y329614D01*
X-380528Y329688D01*
X-380417Y329706D01*
X-380306Y329725D01*
X-380214Y329743D01*
X-380131Y329753D01*
X-380057Y329762D01*
X-379964D01*
X-379742Y329753D01*
D02*
G37*
G36*
X-392991Y329179D02*
X-392917Y329272D01*
X-392834Y329355D01*
X-392742Y329429D01*
X-392668Y329484D01*
X-392594Y329540D01*
X-392538Y329577D01*
X-392492Y329595D01*
X-392483Y329604D01*
X-392363Y329660D01*
X-392242Y329697D01*
X-392122Y329725D01*
X-392011Y329743D01*
X-391919Y329753D01*
X-391845Y329762D01*
X-391780D01*
X-391586Y329753D01*
X-391392Y329715D01*
X-391225Y329669D01*
X-391068Y329614D01*
X-390939Y329558D01*
X-390846Y329512D01*
X-390809Y329494D01*
X-390782Y329475D01*
X-390772Y329466D01*
X-390763D01*
X-390588Y329336D01*
X-390439Y329198D01*
X-390310Y329059D01*
X-390208Y328920D01*
X-390125Y328791D01*
X-390061Y328689D01*
X-390042Y328652D01*
X-390023Y328624D01*
X-390014Y328606D01*
Y328597D01*
X-389931Y328375D01*
X-389866Y328153D01*
X-389820Y327940D01*
X-389783Y327737D01*
X-389765Y327570D01*
Y327496D01*
X-389755Y327432D01*
Y327376D01*
Y327339D01*
Y327321D01*
Y327312D01*
X-389765Y327071D01*
X-389792Y326840D01*
X-389829Y326637D01*
X-389875Y326452D01*
X-389922Y326304D01*
X-389940Y326239D01*
X-389959Y326184D01*
X-389977Y326147D01*
X-389986Y326119D01*
X-389996Y326100D01*
Y326091D01*
X-390088Y325897D01*
X-390199Y325721D01*
X-390310Y325573D01*
X-390421Y325453D01*
X-390523Y325361D01*
X-390606Y325287D01*
X-390661Y325250D01*
X-390671Y325231D01*
X-390680D01*
X-390856Y325130D01*
X-391031Y325046D01*
X-391207Y324991D01*
X-391373Y324954D01*
X-391512Y324935D01*
X-391577Y324926D01*
X-391623Y324917D01*
X-391725D01*
X-391891Y324926D01*
X-392039Y324945D01*
X-392169Y324972D01*
X-392279Y325009D01*
X-392372Y325046D01*
X-392446Y325074D01*
X-392483Y325093D01*
X-392501Y325102D01*
X-392612Y325176D01*
X-392723Y325259D01*
X-392816Y325342D01*
X-392899Y325435D01*
X-392973Y325509D01*
X-393019Y325573D01*
X-393056Y325610D01*
X-393065Y325629D01*
Y325019D01*
X-393777D01*
Y331435D01*
X-392991D01*
Y329179D01*
D02*
G37*
G36*
X-396653Y329753D02*
X-396449Y329715D01*
X-396255Y329669D01*
X-396098Y329623D01*
X-395959Y329567D01*
X-395904Y329549D01*
X-395858Y329531D01*
X-395811Y329512D01*
X-395784Y329494D01*
X-395774Y329484D01*
X-395765D01*
X-395580Y329364D01*
X-395423Y329235D01*
X-395284Y329105D01*
X-395173Y328976D01*
X-395090Y328865D01*
X-395025Y328772D01*
X-395007Y328735D01*
X-394988Y328708D01*
X-394979Y328699D01*
Y328689D01*
X-394887Y328477D01*
X-394822Y328245D01*
X-394767Y328014D01*
X-394739Y327783D01*
X-394720Y327681D01*
Y327589D01*
X-394711Y327496D01*
X-394702Y327423D01*
Y327358D01*
Y327312D01*
Y327284D01*
Y327275D01*
X-394711Y327071D01*
X-394729Y326886D01*
X-394757Y326711D01*
X-394794Y326544D01*
X-394840Y326387D01*
X-394896Y326248D01*
X-394951Y326110D01*
X-395007Y325999D01*
X-395062Y325897D01*
X-395118Y325805D01*
X-395173Y325721D01*
X-395219Y325657D01*
X-395257Y325610D01*
X-395284Y325573D01*
X-395303Y325555D01*
X-395312Y325546D01*
X-395432Y325435D01*
X-395552Y325342D01*
X-395682Y325250D01*
X-395811Y325185D01*
X-395941Y325120D01*
X-396070Y325074D01*
X-396320Y324991D01*
X-396440Y324972D01*
X-396542Y324954D01*
X-396634Y324935D01*
X-396717Y324926D01*
X-396782Y324917D01*
X-396875D01*
X-397032Y324926D01*
X-397180Y324935D01*
X-397466Y325000D01*
X-397716Y325083D01*
X-397827Y325130D01*
X-397929Y325176D01*
X-398021Y325222D01*
X-398095Y325268D01*
X-398169Y325315D01*
X-398224Y325351D01*
X-398271Y325388D01*
X-398307Y325416D01*
X-398326Y325425D01*
X-398335Y325435D01*
X-398465Y325555D01*
X-398566Y325694D01*
X-398668Y325842D01*
X-398742Y325989D01*
X-398816Y326147D01*
X-398871Y326313D01*
X-398918Y326470D01*
X-398955Y326618D01*
X-398992Y326766D01*
X-399010Y326896D01*
X-399029Y327025D01*
X-399038Y327127D01*
Y327219D01*
X-399047Y327284D01*
Y327321D01*
Y327339D01*
X-399038Y327552D01*
X-399019Y327755D01*
X-398992Y327940D01*
X-398955Y328116D01*
X-398909Y328273D01*
X-398862Y328421D01*
X-398807Y328560D01*
X-398751Y328680D01*
X-398696Y328791D01*
X-398640Y328883D01*
X-398594Y328957D01*
X-398548Y329022D01*
X-398511Y329077D01*
X-398483Y329114D01*
X-398465Y329133D01*
X-398456Y329142D01*
X-398335Y329253D01*
X-398215Y329346D01*
X-398086Y329429D01*
X-397956Y329503D01*
X-397827Y329558D01*
X-397688Y329614D01*
X-397438Y329688D01*
X-397327Y329706D01*
X-397217Y329725D01*
X-397124Y329743D01*
X-397041Y329753D01*
X-396967Y329762D01*
X-396875D01*
X-396653Y329753D01*
D02*
G37*
G36*
X-401636Y324020D02*
X-399528D01*
Y323262D01*
X-404594D01*
Y324020D01*
X-402486D01*
Y329660D01*
X-401636D01*
Y324020D01*
D02*
G37*
G36*
X-351525Y325629D02*
X-350628D01*
Y325019D01*
X-351525D01*
Y324593D01*
X-351516Y324445D01*
X-351497Y324325D01*
X-351479Y324233D01*
X-351451Y324159D01*
X-351423Y324094D01*
X-351395Y324057D01*
X-351386Y324039D01*
X-351377Y324029D01*
X-351312Y323974D01*
X-351238Y323937D01*
X-351155Y323909D01*
X-351072Y323891D01*
X-350998Y323881D01*
X-350933Y323872D01*
X-350878D01*
X-350711Y323881D01*
X-350637Y323891D01*
X-350563D01*
X-350499Y323900D01*
X-350452Y323909D01*
X-350425Y323918D01*
X-350415D01*
X-350295Y323234D01*
X-350443Y323207D01*
X-350573Y323188D01*
X-350702Y323170D01*
X-350813Y323160D01*
X-350896Y323151D01*
X-351026D01*
X-351210Y323160D01*
X-351368Y323179D01*
X-351506Y323216D01*
X-351617Y323243D01*
X-351710Y323280D01*
X-351774Y323317D01*
X-351821Y323336D01*
X-351830Y323345D01*
X-351932Y323419D01*
X-352015Y323502D01*
X-352080Y323586D01*
X-352135Y323660D01*
X-352181Y323724D01*
X-352209Y323780D01*
X-352218Y323826D01*
X-352228Y323835D01*
X-352255Y323928D01*
X-352274Y324039D01*
X-352292Y324159D01*
X-352301Y324270D01*
Y324371D01*
X-352311Y324455D01*
Y324510D01*
Y324519D01*
Y324529D01*
Y325019D01*
X-353004D01*
Y325629D01*
X-352311D01*
Y329660D01*
X-351525D01*
Y325629D01*
D02*
G37*
G36*
X-354012D02*
X-353115D01*
Y325019D01*
X-354012D01*
Y324593D01*
X-354003Y324445D01*
X-353984Y324325D01*
X-353966Y324233D01*
X-353938Y324159D01*
X-353910Y324094D01*
X-353882Y324057D01*
X-353873Y324039D01*
X-353864Y324029D01*
X-353799Y323974D01*
X-353725Y323937D01*
X-353642Y323909D01*
X-353559Y323891D01*
X-353485Y323881D01*
X-353420Y323872D01*
X-353365D01*
X-353198Y323881D01*
X-353124Y323891D01*
X-353050D01*
X-352986Y323900D01*
X-352939Y323909D01*
X-352912Y323918D01*
X-352902D01*
X-352782Y323234D01*
X-352930Y323207D01*
X-353060Y323188D01*
X-353189Y323170D01*
X-353300Y323160D01*
X-353383Y323151D01*
X-353513D01*
X-353698Y323160D01*
X-353855Y323179D01*
X-353993Y323216D01*
X-354104Y323243D01*
X-354197Y323280D01*
X-354262Y323317D01*
X-354308Y323336D01*
X-354317Y323345D01*
X-354419Y323419D01*
X-354502Y323502D01*
X-354567Y323586D01*
X-354622Y323660D01*
X-354668Y323724D01*
X-354696Y323780D01*
X-354705Y323826D01*
X-354715Y323835D01*
X-354742Y323928D01*
X-354761Y324039D01*
X-354779Y324159D01*
X-354789Y324270D01*
Y324371D01*
X-354798Y324455D01*
Y324510D01*
Y324519D01*
Y324529D01*
Y325019D01*
X-355491D01*
Y325629D01*
X-354798D01*
Y329660D01*
X-354012D01*
Y325629D01*
D02*
G37*
%LPC*%
G36*
X-367825Y329142D02*
X-367899D01*
X-368065Y329133D01*
X-368204Y329114D01*
X-368324Y329077D01*
X-368426Y329040D01*
X-368500Y329004D01*
X-368555Y328967D01*
X-368592Y328948D01*
X-368601Y328939D01*
X-368675Y328856D01*
X-368731Y328763D01*
X-368777Y328680D01*
X-368805Y328597D01*
X-368823Y328523D01*
X-368833Y328467D01*
Y328421D01*
Y328412D01*
X-368823Y328338D01*
X-368814Y328264D01*
X-368796Y328208D01*
X-368777Y328153D01*
X-368759Y328107D01*
X-368749Y328070D01*
X-368731Y328051D01*
Y328042D01*
X-368638Y327931D01*
X-368527Y327857D01*
X-368490Y327829D01*
X-368453Y327811D01*
X-368426Y327792D01*
X-368416D01*
X-368324Y327755D01*
X-368222Y327728D01*
X-368111Y327700D01*
X-368000Y327681D01*
X-367899Y327663D01*
X-367806Y327645D01*
X-367751Y327635D01*
X-367732D01*
X-367575Y327607D01*
X-367427Y327589D01*
X-367298Y327561D01*
X-367168Y327533D01*
X-367048Y327506D01*
X-366946Y327478D01*
X-366845Y327459D01*
X-366762Y327432D01*
X-366688Y327413D01*
X-366623Y327395D01*
X-366567Y327376D01*
X-366521Y327358D01*
X-366484Y327349D01*
X-366456Y327339D01*
X-366447Y327330D01*
X-366438D01*
X-366447Y327626D01*
X-366456Y327811D01*
X-366466Y327968D01*
X-366484Y328097D01*
X-366512Y328208D01*
X-366540Y328292D01*
X-366558Y328356D01*
X-366567Y328393D01*
X-366577Y328403D01*
X-366651Y328523D01*
X-366725Y328634D01*
X-366817Y328726D01*
X-366900Y328800D01*
X-366974Y328865D01*
X-367039Y328911D01*
X-367076Y328939D01*
X-367094Y328948D01*
X-367233Y329013D01*
X-367372Y329059D01*
X-367501Y329096D01*
X-367631Y329114D01*
X-367732Y329133D01*
X-367825Y329142D01*
D02*
G37*
G36*
X-379909Y329114D02*
X-379964D01*
X-380075Y329105D01*
X-380177Y329096D01*
X-380371Y329050D01*
X-380537Y328976D01*
X-380676Y328893D01*
X-380787Y328819D01*
X-380870Y328745D01*
X-380926Y328699D01*
X-380935Y328680D01*
X-380944D01*
X-381009Y328587D01*
X-381074Y328495D01*
X-381166Y328282D01*
X-381240Y328060D01*
X-381286Y327839D01*
X-381314Y327645D01*
X-381323Y327561D01*
Y327487D01*
X-381333Y327423D01*
Y327376D01*
Y327349D01*
Y327339D01*
X-381323Y327182D01*
X-381314Y327025D01*
X-381296Y326886D01*
X-381268Y326757D01*
X-381240Y326637D01*
X-381212Y326526D01*
X-381175Y326433D01*
X-381138Y326341D01*
X-381101Y326267D01*
X-381064Y326193D01*
X-381037Y326137D01*
X-381009Y326091D01*
X-380981Y326054D01*
X-380963Y326026D01*
X-380944Y326017D01*
Y326008D01*
X-380870Y325934D01*
X-380787Y325860D01*
X-380630Y325749D01*
X-380463Y325675D01*
X-380306Y325620D01*
X-380168Y325583D01*
X-380066Y325573D01*
X-380020Y325564D01*
X-379964D01*
X-379853Y325573D01*
X-379752Y325583D01*
X-379567Y325629D01*
X-379400Y325703D01*
X-379262Y325786D01*
X-379151Y325869D01*
X-379067Y325934D01*
X-379012Y325989D01*
X-378993Y325999D01*
Y326008D01*
X-378919Y326091D01*
X-378864Y326193D01*
X-378762Y326396D01*
X-378688Y326618D01*
X-378642Y326822D01*
X-378614Y327016D01*
X-378605Y327099D01*
Y327173D01*
X-378596Y327228D01*
Y327275D01*
Y327302D01*
Y327312D01*
Y327478D01*
X-378614Y327635D01*
X-378633Y327774D01*
X-378661Y327913D01*
X-378688Y328033D01*
X-378725Y328144D01*
X-378753Y328245D01*
X-378790Y328338D01*
X-378827Y328412D01*
X-378864Y328486D01*
X-378901Y328541D01*
X-378929Y328587D01*
X-378956Y328624D01*
X-378975Y328652D01*
X-378984Y328661D01*
X-378993Y328671D01*
X-379067Y328745D01*
X-379151Y328819D01*
X-379308Y328930D01*
X-379474Y329004D01*
X-379622Y329059D01*
X-379761Y329087D01*
X-379863Y329105D01*
X-379909Y329114D01*
D02*
G37*
G36*
X-391780D02*
X-391836D01*
X-391928Y329105D01*
X-392020Y329096D01*
X-392187Y329050D01*
X-392335Y328976D01*
X-392464Y328902D01*
X-392566Y328828D01*
X-392640Y328754D01*
X-392686Y328708D01*
X-392705Y328689D01*
X-392769Y328606D01*
X-392825Y328513D01*
X-392917Y328301D01*
X-392973Y328088D01*
X-393019Y327866D01*
X-393047Y327672D01*
X-393056Y327589D01*
Y327515D01*
X-393065Y327450D01*
Y327404D01*
Y327376D01*
Y327367D01*
Y327201D01*
X-393047Y327053D01*
X-393028Y326914D01*
X-393010Y326775D01*
X-392973Y326655D01*
X-392945Y326544D01*
X-392908Y326442D01*
X-392871Y326350D01*
X-392843Y326276D01*
X-392806Y326202D01*
X-392769Y326147D01*
X-392742Y326091D01*
X-392723Y326054D01*
X-392705Y326026D01*
X-392686Y326017D01*
Y326008D01*
X-392612Y325925D01*
X-392538Y325851D01*
X-392464Y325786D01*
X-392381Y325731D01*
X-392233Y325647D01*
X-392094Y325592D01*
X-391974Y325564D01*
X-391882Y325546D01*
X-391845Y325536D01*
X-391799D01*
X-391706Y325546D01*
X-391614Y325555D01*
X-391447Y325601D01*
X-391299Y325675D01*
X-391170Y325758D01*
X-391068Y325842D01*
X-390994Y325906D01*
X-390948Y325962D01*
X-390929Y325971D01*
Y325980D01*
X-390865Y326063D01*
X-390809Y326165D01*
X-390717Y326378D01*
X-390652Y326590D01*
X-390606Y326803D01*
X-390578Y326997D01*
X-390569Y327080D01*
Y327154D01*
X-390560Y327219D01*
Y327265D01*
Y327293D01*
Y327302D01*
Y327469D01*
X-390578Y327626D01*
X-390597Y327774D01*
X-390615Y327913D01*
X-390643Y328033D01*
X-390680Y328144D01*
X-390717Y328255D01*
X-390745Y328338D01*
X-390782Y328421D01*
X-390819Y328486D01*
X-390846Y328550D01*
X-390883Y328597D01*
X-390902Y328634D01*
X-390920Y328661D01*
X-390939Y328671D01*
Y328680D01*
X-391013Y328754D01*
X-391087Y328819D01*
X-391235Y328930D01*
X-391383Y329004D01*
X-391521Y329059D01*
X-391651Y329087D01*
X-391743Y329105D01*
X-391780Y329114D01*
D02*
G37*
G36*
X-396819D02*
X-396875D01*
X-396985Y329105D01*
X-397087Y329096D01*
X-397281Y329050D01*
X-397448Y328976D01*
X-397586Y328893D01*
X-397697Y328819D01*
X-397780Y328745D01*
X-397836Y328699D01*
X-397845Y328680D01*
X-397854D01*
X-397919Y328587D01*
X-397984Y328495D01*
X-398076Y328282D01*
X-398150Y328060D01*
X-398197Y327839D01*
X-398224Y327645D01*
X-398234Y327561D01*
Y327487D01*
X-398243Y327423D01*
Y327376D01*
Y327349D01*
Y327339D01*
X-398234Y327182D01*
X-398224Y327025D01*
X-398206Y326886D01*
X-398178Y326757D01*
X-398150Y326637D01*
X-398123Y326526D01*
X-398086Y326433D01*
X-398049Y326341D01*
X-398012Y326267D01*
X-397975Y326193D01*
X-397947Y326137D01*
X-397919Y326091D01*
X-397892Y326054D01*
X-397873Y326026D01*
X-397854Y326017D01*
Y326008D01*
X-397780Y325934D01*
X-397697Y325860D01*
X-397540Y325749D01*
X-397374Y325675D01*
X-397217Y325620D01*
X-397078Y325583D01*
X-396976Y325573D01*
X-396930Y325564D01*
X-396875D01*
X-396763Y325573D01*
X-396662Y325583D01*
X-396477Y325629D01*
X-396311Y325703D01*
X-396172Y325786D01*
X-396061Y325869D01*
X-395978Y325934D01*
X-395922Y325989D01*
X-395904Y325999D01*
Y326008D01*
X-395830Y326091D01*
X-395774Y326193D01*
X-395672Y326396D01*
X-395599Y326618D01*
X-395552Y326822D01*
X-395525Y327016D01*
X-395515Y327099D01*
Y327173D01*
X-395506Y327228D01*
Y327275D01*
Y327302D01*
Y327312D01*
Y327478D01*
X-395525Y327635D01*
X-395543Y327774D01*
X-395571Y327913D01*
X-395599Y328033D01*
X-395636Y328144D01*
X-395663Y328245D01*
X-395700Y328338D01*
X-395737Y328412D01*
X-395774Y328486D01*
X-395811Y328541D01*
X-395839Y328587D01*
X-395867Y328624D01*
X-395885Y328652D01*
X-395894Y328661D01*
X-395904Y328671D01*
X-395978Y328745D01*
X-396061Y328819D01*
X-396218Y328930D01*
X-396384Y329004D01*
X-396532Y329059D01*
X-396671Y329087D01*
X-396773Y329105D01*
X-396819Y329114D01*
D02*
G37*
%LPD*%
M02*
