G04*
G04 #@! TF.GenerationSoftware,Altium Limited,Altium Designer,23.3.1 (30)*
G04*
G04 Layer_Color=32768*
%FSLAX44Y44*%
%MOMM*%
G71*
G04*
G04 #@! TF.SameCoordinates,D45B20F3-F38D-42A2-87FA-560754FB767C*
G04*
G04*
G04 #@! TF.FilePolarity,Positive*
G04*
G01*
G75*
%ADD11C,0.2000*%
%ADD13C,0.1016*%
%ADD15C,0.1270*%
%ADD194C,0.1000*%
%ADD198C,0.0500*%
D11*
X-398460Y100110D02*
X-345460D01*
X-398460Y139110D02*
X-345460D01*
X-398460Y100110D02*
Y139110D01*
X-345460Y100110D02*
Y139110D01*
D13*
X-49453Y16449D02*
Y40449D01*
X-71453Y40449D02*
X-49453Y40449D01*
X-71453Y16449D02*
Y40449D01*
Y16449D02*
X-49453D01*
X-22529Y22545D02*
Y46545D01*
X-44529D02*
X-22529D01*
X-44529Y22545D02*
Y46545D01*
Y22545D02*
X-22529D01*
X-192103Y124860D02*
X-170103D01*
X-192103D02*
Y148860D01*
X-170103D01*
Y124860D02*
Y148860D01*
D15*
X-385048Y150317D02*
Y162317D01*
X-365048Y150317D02*
Y162317D01*
X-385048Y150317D02*
X-365048D01*
X-385048Y162317D02*
X-365048D01*
D194*
X-33948Y55674D02*
X-22948D01*
X-33948Y61674D02*
X-22948D01*
X-33948Y55674D02*
Y61674D01*
X-22948Y55674D02*
X-22948Y61674D01*
X-571810Y101165D02*
X-452310D01*
Y-12835D02*
Y101165D01*
X-571810Y-12835D02*
X-452310D01*
X-571810D02*
Y101165D01*
X-172120Y29000D02*
Y71000D01*
Y29000D02*
X-136120D01*
X-172120Y71000D02*
X-136120D01*
Y29000D02*
Y71000D01*
X-147122Y269602D02*
X-33122D01*
X-147122D02*
Y304102D01*
X-33122D01*
Y269602D02*
Y304102D01*
X-132522Y147635D02*
X-47481D01*
X-47522Y232591D02*
Y244217D01*
X-132478Y232613D02*
Y244239D01*
X-141122Y268978D02*
X-132500Y244239D01*
X-132522Y147616D02*
Y232613D01*
X-47481Y147635D02*
Y232613D01*
X-47500Y244217D02*
X-38878Y268955D01*
X-176614Y156762D02*
Y162262D01*
X-187114Y156762D02*
Y162262D01*
X-176614D01*
X-187114Y156762D02*
X-176614D01*
X-66460Y50086D02*
Y56086D01*
X-55460Y50086D02*
Y56086D01*
X-66460Y50086D02*
X-55460D01*
X-66460Y56086D02*
X-55460D01*
X-107906Y71204D02*
X-102406D01*
X-107906Y81704D02*
X-102406D01*
Y71204D02*
Y81704D01*
X-107906Y71204D02*
Y81704D01*
X-263322Y1410D02*
X-263322Y18910D01*
X-253822Y1410D02*
Y18910D01*
X-263322D02*
X-253822D01*
X-263322Y1410D02*
X-253822D01*
X-301956Y138500D02*
Y144500D01*
X-312956Y138500D02*
Y144500D01*
X-301956D01*
X-312956Y138500D02*
X-301956D01*
X-119362Y24936D02*
Y30436D01*
X-108862Y24936D02*
Y30436D01*
X-119362Y24936D02*
X-108862D01*
X-119362Y30436D02*
X-108862D01*
X-192956Y92158D02*
X-182456D01*
X-192956Y86658D02*
X-182456D01*
Y92158D01*
X-192956Y86658D02*
Y92158D01*
X-534880Y317076D02*
X-529380D01*
X-534880Y327576D02*
X-529380D01*
Y317076D02*
Y327576D01*
X-534880Y317076D02*
Y327576D01*
X-560130Y140115D02*
X-549630D01*
X-560130Y134615D02*
X-549630D01*
Y140115D01*
X-560130Y134615D02*
Y140115D01*
X-244690Y122155D02*
Y128155D01*
X-255690Y122155D02*
Y128155D01*
X-244690D01*
X-255690Y122155D02*
X-244690D01*
X-290000Y139000D02*
Y144500D01*
X-279500Y139000D02*
Y144500D01*
X-290000Y139000D02*
X-279500D01*
X-290000Y144500D02*
X-279500D01*
X-15230Y68667D02*
Y132166D01*
X-70230Y68667D02*
X-15230D01*
X-70230D02*
Y132166D01*
X-15230D01*
X-21260Y270900D02*
X-11760D01*
X-21260Y287900D02*
X-11760D01*
Y270900D02*
Y287900D01*
X-21260Y270900D02*
Y287900D01*
X-11010Y298024D02*
Y304024D01*
X-22010Y298024D02*
Y304024D01*
X-11010D01*
X-22010Y298024D02*
X-11010D01*
Y310805D02*
Y316805D01*
X-22010Y310805D02*
Y316805D01*
X-11010D01*
X-22010Y310805D02*
X-11010D01*
X-173530Y295477D02*
Y306477D01*
X-179530Y295477D02*
Y306477D01*
Y295477D02*
X-173530D01*
X-179530Y306477D02*
X-173530D01*
X-201560Y314530D02*
X-187060D01*
X-201560Y292530D02*
X-187060D01*
X-201560D02*
Y314530D01*
X-187060Y292530D02*
Y314530D01*
X-159560Y295477D02*
Y306477D01*
X-165560Y295477D02*
Y306477D01*
Y295477D02*
X-159560D01*
X-165560Y306477D02*
X-159560D01*
X-221290Y296827D02*
X-210290D01*
X-221290Y302827D02*
X-210290D01*
X-221290Y296827D02*
Y302827D01*
X-210290Y296827D02*
Y302827D01*
X-221290Y310797D02*
X-210290D01*
X-221290Y316797D02*
X-210290D01*
X-221290Y310797D02*
Y316797D01*
X-210290Y310797D02*
Y316797D01*
X-50098Y317055D02*
X-39598D01*
X-50098Y311555D02*
X-39598D01*
Y317055D01*
X-50098Y311555D02*
Y317055D01*
X-71688Y311555D02*
X-61188D01*
X-71688Y317055D02*
X-61188D01*
X-71688Y311555D02*
Y317055D01*
X-61188Y311555D02*
Y317055D01*
X-150070Y313520D02*
Y324020D01*
X-144570Y313520D02*
Y324020D01*
X-150070D02*
X-144570D01*
X-150070Y313520D02*
X-144570D01*
X-132447D02*
Y324020D01*
X-137947Y313520D02*
Y324020D01*
Y313520D02*
X-132447D01*
X-137947Y324020D02*
X-132447D01*
X-123400Y313520D02*
Y324020D01*
X-117900Y313520D02*
Y324020D01*
X-123400D02*
X-117900D01*
X-123400Y313520D02*
X-117900D01*
X-90848Y332295D02*
X-80348D01*
X-90848Y326795D02*
X-80348D01*
Y332295D01*
X-90848Y326795D02*
Y332295D01*
X-248726Y317055D02*
X-238226D01*
X-248726Y311555D02*
X-238226D01*
Y317055D01*
X-248726Y311555D02*
Y317055D01*
X-329372Y316060D02*
Y326560D01*
X-334872Y316060D02*
Y326560D01*
Y316060D02*
X-329372D01*
X-334872Y326560D02*
X-329372D01*
X-357080Y316060D02*
Y326560D01*
X-351580Y316060D02*
Y326560D01*
X-357080D02*
X-351580D01*
X-357080Y316060D02*
X-351580D01*
X-270316Y311555D02*
X-259816D01*
X-270316Y317055D02*
X-259816D01*
X-270316Y311555D02*
Y317055D01*
X-259816Y311555D02*
Y317055D01*
X-322872Y316060D02*
Y326560D01*
X-317372Y316060D02*
Y326560D01*
X-322872D02*
X-317372D01*
X-322872Y316060D02*
X-317372D01*
X-288460Y331680D02*
X-277960D01*
X-288460Y326180D02*
X-277960D01*
Y331680D01*
X-288460Y326180D02*
Y331680D01*
X-223190Y268898D02*
X-213690D01*
X-223190Y285898D02*
X-213690D01*
Y268898D02*
Y285898D01*
X-223190Y268898D02*
Y285898D01*
X-538650Y251670D02*
X-528150D01*
X-538650Y246170D02*
X-528150D01*
Y251670D01*
X-538650Y246170D02*
Y251670D01*
X-347122Y269602D02*
X-233122D01*
X-347122D02*
Y304102D01*
X-233122D01*
Y269602D02*
Y304102D01*
X-332522Y147635D02*
X-247481D01*
X-247522Y232591D02*
Y244217D01*
X-332478Y232613D02*
Y244239D01*
X-341122Y268978D02*
X-332500Y244239D01*
X-332522Y147616D02*
Y232613D01*
X-247481Y147635D02*
Y232613D01*
X-247500Y244217D02*
X-238878Y268955D01*
X-400950Y277290D02*
Y299290D01*
X-386450Y277290D02*
Y299290D01*
X-400950D02*
X-386450D01*
X-400950Y277290D02*
X-386450D01*
X-552080Y272210D02*
Y294210D01*
X-537580Y272210D02*
Y294210D01*
X-552080D02*
X-537580D01*
X-552080Y272210D02*
X-537580D01*
X-524160Y141345D02*
X-494160D01*
Y111345D02*
Y141345D01*
X-524160Y111345D02*
X-494160D01*
X-524160D02*
Y141345D01*
X34641Y279035D02*
Y308610D01*
X9763Y279035D02*
X34641D01*
X9763D02*
Y308610D01*
X34641D01*
X-304212Y111420D02*
X-273228D01*
X-304212D02*
Y132420D01*
X-273228D01*
Y111420D02*
Y132420D01*
X-427729Y48812D02*
Y54312D01*
X-438229Y48812D02*
Y54312D01*
X-427729D01*
X-438229Y48812D02*
X-427729D01*
X-165214Y-12370D02*
X-147714Y-12370D01*
X-165214Y-2870D02*
X-147714D01*
X-165214D02*
X-165214Y-12370D01*
X-147714Y-12370D02*
Y-2870D01*
X-212936Y-5798D02*
Y-298D01*
X-223436Y-5798D02*
Y-298D01*
X-212936D01*
X-223436Y-5798D02*
X-212936D01*
X-223436Y4616D02*
X-212936D01*
X-223436Y10116D02*
X-212936D01*
X-223436Y4616D02*
Y10116D01*
X-212936Y4616D02*
Y10116D01*
X-165722Y12116D02*
X-148222D01*
X-165722Y2616D02*
X-148222D01*
Y12116D01*
X-165722Y2616D02*
Y12116D01*
X-247592Y67252D02*
X-208592D01*
X-247592Y28472D02*
Y67252D01*
X-208592Y28472D02*
Y67252D01*
X-247592Y28472D02*
X-208592D01*
X-192002Y-9137D02*
X-177822Y-9137D01*
X-192002Y7613D02*
X-192002Y-9137D01*
X-177822Y-9137D02*
Y7613D01*
X-192002D02*
X-177822D01*
X-427748Y85290D02*
Y90790D01*
X-438248Y85290D02*
Y90790D01*
X-427748D01*
X-438248Y85290D02*
X-427748D01*
X-526879Y266529D02*
X-412879D01*
X-526879D02*
Y301029D01*
X-412879D01*
Y266529D02*
Y301029D01*
X-412470Y107085D02*
Y112585D01*
X-422970Y107085D02*
Y112585D01*
X-412470D01*
X-422970Y107085D02*
X-412470D01*
X-471520Y327425D02*
X-465520D01*
X-471520Y316425D02*
X-465520D01*
X-471520D02*
Y327425D01*
X-465520Y316425D02*
Y327425D01*
X-484220D02*
X-478220D01*
X-484220Y316425D02*
X-478220D01*
X-484220D02*
Y327425D01*
X-478220Y316425D02*
Y327425D01*
X-306760Y23965D02*
X-279760D01*
X-306760Y-10035D02*
X-279760D01*
X-306760D02*
Y23965D01*
X-279760Y-10035D02*
Y23965D01*
X-357700Y171925D02*
X-348200D01*
X-357700Y154425D02*
X-348200D01*
X-357700D02*
Y171925D01*
X-348200Y154425D02*
Y171925D01*
X-289310Y83495D02*
Y92995D01*
X-271810Y83495D02*
Y92995D01*
X-289310Y83495D02*
X-271810D01*
X-289310Y92995D02*
X-271810D01*
X-333050Y117915D02*
X-322050D01*
X-333050Y111915D02*
X-322050D01*
Y117915D01*
X-333050Y111915D02*
Y117915D01*
X-238790Y134295D02*
Y143795D01*
X-256290Y134295D02*
Y143795D01*
X-238790D01*
X-256290Y134295D02*
X-238790D01*
X-255646Y109522D02*
X-244646D01*
X-255646Y115522D02*
X-244646D01*
X-255646Y109522D02*
Y115522D01*
X-244646Y109522D02*
Y115522D01*
X524Y272748D02*
X11524D01*
X524Y266748D02*
X11524D01*
Y272748D01*
X524Y266748D02*
X524Y272748D01*
X-1730Y291426D02*
Y302426D01*
X4270Y291426D02*
Y302426D01*
X-1730D02*
X4270D01*
X-1730Y291426D02*
X4270Y291426D01*
X-423220Y139505D02*
X-412220D01*
X-423220Y133505D02*
X-412220D01*
Y139505D01*
X-423220Y133505D02*
Y139505D01*
Y125110D02*
X-412220D01*
X-423220Y119110D02*
X-412220D01*
Y125110D01*
X-423220Y119110D02*
Y125110D01*
X-508350Y327425D02*
X-502350D01*
X-508350Y316425D02*
X-502350D01*
X-508350D02*
Y327425D01*
X-502350Y316425D02*
Y327425D01*
X-495650D02*
X-489650D01*
X-495650Y316425D02*
X-489650D01*
X-495650D02*
Y327425D01*
X-489650Y316425D02*
Y327425D01*
X-452470D02*
X-446470D01*
X-452470Y316425D02*
X-446470D01*
X-452470D02*
Y327425D01*
X-446470Y316425D02*
Y327425D01*
X-427070D02*
X-421070D01*
X-427070Y316425D02*
X-421070D01*
X-427070D02*
Y327425D01*
X-421070Y316425D02*
Y327425D01*
X-439770D02*
X-433770D01*
X-439770Y316425D02*
X-433770D01*
X-439770D02*
Y327425D01*
X-433770Y316425D02*
Y327425D01*
X-580814Y248710D02*
Y254210D01*
X-570314Y248710D02*
Y254210D01*
X-580814Y248710D02*
X-570314D01*
X-580814Y254210D02*
X-570314D01*
X-580814Y260140D02*
Y265640D01*
X-570314Y260140D02*
Y265640D01*
X-580814Y260140D02*
X-570314D01*
X-580814Y265640D02*
X-570314D01*
X-373336Y316314D02*
X-367836D01*
X-373336Y326814D02*
X-367836D01*
Y316314D02*
Y326814D01*
X-373336Y316314D02*
Y326814D01*
X-364950Y282790D02*
X-358950D01*
X-364950Y293790D02*
X-358950D01*
Y282790D02*
Y293790D01*
X-364950Y282790D02*
Y293790D01*
X-378920Y282790D02*
X-372920D01*
X-378920Y293790D02*
X-372920D01*
Y282790D02*
Y293790D01*
X-378920Y282790D02*
Y293790D01*
X-390896Y256795D02*
X-373896D01*
X-390896Y266295D02*
X-373896D01*
X-390896Y256795D02*
Y266295D01*
X-373896Y256795D02*
Y266295D01*
X-386820Y80165D02*
Y86165D01*
X-397820Y80165D02*
Y86165D01*
X-386820D01*
X-397820Y80165D02*
X-386820D01*
X-447887Y135430D02*
Y141430D01*
X-458887Y135430D02*
Y141430D01*
X-447887D01*
X-458887Y135430D02*
X-447887D01*
X-572490Y111755D02*
Y117255D01*
X-582990Y111755D02*
Y117255D01*
X-572490D01*
X-582990Y111755D02*
X-572490D01*
Y123185D02*
Y128685D01*
X-582990Y123185D02*
Y128685D01*
X-572490D01*
X-582990Y123185D02*
X-572490D01*
Y134615D02*
Y140115D01*
X-582990Y134615D02*
Y140115D01*
X-572490D01*
X-582990Y134615D02*
X-572490D01*
X-448665Y124250D02*
Y129750D01*
X-459165Y124250D02*
Y129750D01*
X-448665D01*
X-459165Y124250D02*
X-448665D01*
X-560130Y111755D02*
Y117255D01*
X-549630Y111755D02*
Y117255D01*
X-560130Y111755D02*
X-549630D01*
X-560130Y117255D02*
X-549630D01*
X-560130Y123185D02*
Y128685D01*
X-549630Y123185D02*
Y128685D01*
X-560130Y123185D02*
X-549630D01*
X-560130Y128685D02*
X-549630D01*
X-91540Y92225D02*
X-86040D01*
X-91540Y81725D02*
X-86040D01*
X-91540D02*
Y92225D01*
X-86040Y81725D02*
Y92225D01*
X-412470Y96925D02*
Y102425D01*
X-422970Y96925D02*
Y102425D01*
X-412470D01*
X-422970Y96925D02*
X-412470D01*
X-332800Y124865D02*
Y130365D01*
X-322300Y124865D02*
Y130365D01*
X-332800Y124865D02*
X-322300D01*
X-332800Y130365D02*
X-322300D01*
X-310240Y-10035D02*
Y23965D01*
X-337240Y-10035D02*
Y23965D01*
Y-10035D02*
X-310240D01*
X-337240Y23965D02*
X-310240D01*
X-384548Y168637D02*
X-378248D01*
X-384548Y171937D02*
X-378248D01*
X-384548Y168637D02*
Y171937D01*
X-378248Y168637D02*
Y171937D01*
X-370898D02*
X-364598D01*
X-370898Y168637D02*
X-364598D01*
Y171937D01*
X-370898Y168637D02*
Y171937D01*
X-323570Y86765D02*
Y92265D01*
X-334070Y86765D02*
Y92265D01*
X-323570D01*
X-334070Y86765D02*
X-323570D01*
Y96925D02*
Y102425D01*
X-334070Y96925D02*
Y102425D01*
X-323570D01*
X-334070Y96925D02*
X-323570D01*
D198*
X-418881Y241166D02*
Y266429D01*
Y241166D02*
X-408946D01*
Y145154D02*
Y241166D01*
X-561757Y145154D02*
X-408946D01*
X-561757D02*
Y166062D01*
X-585173D02*
X-561757D01*
X-585173D02*
Y214752D01*
X-561757D01*
Y240978D01*
X-520879D01*
Y265567D01*
Y266529D01*
M02*
