G04*
G04 #@! TF.GenerationSoftware,Altium Limited,Altium Designer,23.3.1 (30)*
G04*
G04 Layer_Physical_Order=5*
G04 Layer_Color=6736896*
%FSLAX44Y44*%
%MOMM*%
G71*
G04*
G04 #@! TF.SameCoordinates,D45B20F3-F38D-42A2-87FA-560754FB767C*
G04*
G04*
G04 #@! TF.FilePolarity,Positive*
G04*
G01*
G75*
%ADD116C,0.4064*%
%ADD117C,0.5080*%
%ADD118C,0.7620*%
%ADD128C,2.7000*%
G36*
X34820Y316316D02*
X34691Y316230D01*
X32873D01*
X31192Y315534D01*
X30572Y314914D01*
X30276Y315210D01*
X28595Y315907D01*
X26777D01*
X25096Y315210D01*
X23810Y313924D01*
X23114Y312244D01*
Y310425D01*
X23810Y308745D01*
X25096Y307459D01*
X26777Y306763D01*
X28595D01*
X30276Y307459D01*
X30896Y308078D01*
X31192Y307782D01*
X32873Y307086D01*
X34691D01*
X34820Y307000D01*
Y275850D01*
X33551Y275429D01*
X32562Y276418D01*
X30881Y277114D01*
X29063D01*
X27382Y276418D01*
X26096Y275132D01*
X25400Y273451D01*
Y271633D01*
X26096Y269952D01*
X27382Y268666D01*
X29063Y267970D01*
X30881D01*
X32562Y268666D01*
X33551Y269655D01*
X34820Y269234D01*
Y187198D01*
X33127D01*
X31446Y186502D01*
X30160Y185216D01*
X29464Y183535D01*
Y181717D01*
X30160Y180036D01*
X30872Y179324D01*
X30160Y178612D01*
X29464Y176931D01*
Y175113D01*
X30160Y173432D01*
X30745Y172847D01*
X30160Y172262D01*
X29464Y170581D01*
Y168763D01*
X30160Y167082D01*
X31446Y165796D01*
X33127Y165100D01*
X34820D01*
Y161290D01*
X33127D01*
X31446Y160594D01*
X30160Y159308D01*
X29464Y157627D01*
Y155809D01*
X30160Y154128D01*
X30745Y153543D01*
X30160Y152958D01*
X29464Y151277D01*
Y149459D01*
X30160Y147778D01*
X31446Y146492D01*
X33127Y145796D01*
X34820D01*
Y136292D01*
X33127D01*
X31446Y135596D01*
X30160Y134310D01*
X29464Y132630D01*
Y130811D01*
X30160Y129130D01*
X30745Y128545D01*
X30160Y127960D01*
X29464Y126280D01*
Y124461D01*
X30160Y122780D01*
X30745Y122195D01*
X30160Y121610D01*
X29464Y119930D01*
Y118111D01*
X30160Y116430D01*
X31446Y115144D01*
X33127Y114448D01*
X34820D01*
Y110892D01*
X33127D01*
X31446Y110196D01*
X30160Y108910D01*
X29464Y107230D01*
Y105411D01*
X30160Y103730D01*
X30745Y103145D01*
X30160Y102560D01*
X29464Y100880D01*
Y99061D01*
X30160Y97380D01*
X30745Y96795D01*
X30160Y96210D01*
X29464Y94530D01*
Y92711D01*
X30160Y91030D01*
X31446Y89744D01*
X33127Y89048D01*
X34820D01*
Y-14820D01*
X18733D01*
X18054Y-13550D01*
X19975Y-10677D01*
X21674Y-6575D01*
X22540Y-2220D01*
Y2220D01*
X21674Y6575D01*
X19975Y10677D01*
X17508Y14368D01*
X14368Y17508D01*
X10677Y19975D01*
X6575Y21674D01*
X2220Y22540D01*
X-1465D01*
X-1991Y23810D01*
X-1966Y23835D01*
X-644Y26125D01*
X40Y28678D01*
Y31322D01*
X-644Y33875D01*
X-1966Y36165D01*
X-3835Y38034D01*
X-6125Y39356D01*
X-8678Y40040D01*
X-11322D01*
X-13875Y39356D01*
X-16165Y38034D01*
X-18034Y36165D01*
X-19356Y33875D01*
X-20040Y31322D01*
Y28678D01*
X-19356Y26125D01*
X-18034Y23835D01*
X-16165Y21966D01*
X-13875Y20644D01*
X-12509Y20278D01*
X-12282Y18902D01*
X-14368Y17508D01*
X-17508Y14368D01*
X-17623Y14197D01*
X-19017Y14396D01*
X-19492Y15544D01*
X-20778Y16830D01*
X-22459Y17526D01*
X-24277D01*
X-25958Y16830D01*
X-27244Y15544D01*
X-27940Y13863D01*
Y12045D01*
X-27244Y10364D01*
X-25958Y9078D01*
X-24277Y8382D01*
X-22459D01*
X-22267Y8461D01*
X-21295Y7489D01*
X-21674Y6575D01*
X-22540Y2220D01*
Y-2220D01*
X-21674Y-6575D01*
X-19975Y-10677D01*
X-18054Y-13550D01*
X-18733Y-14820D01*
X-26371D01*
X-26897Y-13550D01*
X-26096Y-12750D01*
X-25400Y-11069D01*
Y-9251D01*
X-26096Y-7570D01*
X-27382Y-6284D01*
X-29063Y-5588D01*
X-30881D01*
X-32562Y-6284D01*
X-33848Y-7570D01*
X-34544Y-9251D01*
Y-11069D01*
X-33848Y-12750D01*
X-33047Y-13550D01*
X-33573Y-14820D01*
X-164485D01*
X-164592Y-14661D01*
Y-12640D01*
X-165365Y-10773D01*
X-166794Y-9344D01*
X-168661Y-8570D01*
X-170683D01*
X-172550Y-9344D01*
X-173979Y-10773D01*
X-174752Y-12640D01*
Y-14661D01*
X-174859Y-14820D01*
X-191143D01*
X-191827Y-13550D01*
X-191262Y-12186D01*
Y-10165D01*
X-192035Y-8298D01*
X-193464Y-6869D01*
X-195331Y-6096D01*
X-197353D01*
X-199220Y-6869D01*
X-199989Y-6857D01*
X-200652Y-6653D01*
X-200990Y-5875D01*
X-200406Y-4465D01*
Y-2647D01*
X-201102Y-966D01*
X-202388Y320D01*
X-204069Y1016D01*
X-205887D01*
X-207568Y320D01*
X-208854Y-966D01*
X-209550Y-2647D01*
Y-4465D01*
X-208854Y-6146D01*
X-208650Y-6350D01*
X-208854Y-6554D01*
X-209550Y-8235D01*
Y-10053D01*
X-208854Y-11734D01*
X-207568Y-13020D01*
X-206287Y-13550D01*
X-206540Y-14820D01*
X-219293D01*
X-219402Y-14638D01*
X-219683Y-13550D01*
X-218628Y-12496D01*
X-217932Y-10815D01*
Y-8997D01*
X-218628Y-7316D01*
X-219914Y-6030D01*
X-221595Y-5334D01*
X-223413D01*
X-225094Y-6030D01*
X-226380Y-7316D01*
X-227076Y-8997D01*
Y-10815D01*
X-226380Y-12496D01*
X-225325Y-13550D01*
X-225606Y-14638D01*
X-225715Y-14820D01*
X-385044D01*
X-385570Y-13550D01*
X-384507Y-12487D01*
X-383540Y-10153D01*
Y-7627D01*
X-384507Y-5293D01*
X-385990Y-3810D01*
X-384507Y-2327D01*
X-383540Y7D01*
Y2533D01*
X-384507Y4867D01*
X-385990Y6350D01*
X-384507Y7833D01*
X-383540Y10167D01*
Y12693D01*
X-384507Y15027D01*
X-386293Y16813D01*
X-388627Y17780D01*
X-391153D01*
X-393487Y16813D01*
X-395273Y15027D01*
X-396240Y12693D01*
Y10167D01*
X-395273Y7833D01*
X-393790Y6350D01*
X-395273Y4867D01*
X-396240Y2533D01*
Y7D01*
X-395273Y-2327D01*
X-393790Y-3810D01*
X-395273Y-5293D01*
X-396240Y-7627D01*
Y-10153D01*
X-395273Y-12487D01*
X-394210Y-13550D01*
X-394736Y-14820D01*
X-584821D01*
Y77721D01*
X-583550Y78302D01*
X-581543Y77470D01*
X-579017D01*
X-576683Y78437D01*
X-575382Y79738D01*
X-574081Y78437D01*
X-571747Y77470D01*
X-569221D01*
X-566887Y78437D01*
X-565101Y80223D01*
X-564452Y81790D01*
X-564405Y81847D01*
X-562985Y82432D01*
X-562919Y82424D01*
X-561995Y82042D01*
X-560177D01*
X-558496Y82738D01*
X-557210Y84024D01*
X-556514Y85705D01*
Y87523D01*
X-557210Y89204D01*
X-558496Y90490D01*
X-560177Y91186D01*
X-561995D01*
X-563676Y90490D01*
X-564962Y89204D01*
X-565089Y88898D01*
X-566334Y88650D01*
X-566887Y89203D01*
X-569001Y90079D01*
X-568960Y90177D01*
Y92703D01*
X-569927Y95037D01*
X-571713Y96823D01*
X-573950Y97750D01*
X-573930Y97797D01*
Y100323D01*
X-574897Y102657D01*
X-576683Y104443D01*
X-577950Y104968D01*
X-577660Y105669D01*
Y107690D01*
X-578433Y109558D01*
X-579862Y110987D01*
X-581730Y111760D01*
X-583750D01*
X-583764Y111754D01*
X-584821Y112460D01*
Y301267D01*
X-583550Y301945D01*
X-580677Y300025D01*
X-577348Y298647D01*
X-577046Y297153D01*
X-578034Y296165D01*
X-579356Y293875D01*
X-580040Y291322D01*
Y288678D01*
X-579356Y286125D01*
X-578034Y283835D01*
X-576165Y281966D01*
X-574951Y281265D01*
X-574926Y281074D01*
X-575149Y279913D01*
X-577129Y279093D01*
X-578915Y277307D01*
X-579882Y274973D01*
Y272447D01*
X-578915Y270113D01*
X-577129Y268327D01*
X-574795Y267360D01*
X-572269D01*
X-569935Y268327D01*
X-568149Y270113D01*
X-567182Y272447D01*
Y274973D01*
X-568149Y277307D01*
X-569532Y278690D01*
X-569006Y279960D01*
X-568678D01*
X-566125Y280644D01*
X-563835Y281966D01*
X-561966Y283835D01*
X-560644Y286125D01*
X-559960Y288678D01*
Y291322D01*
X-560644Y293875D01*
X-561966Y296165D01*
X-562954Y297153D01*
X-562652Y298647D01*
X-559323Y300025D01*
X-555632Y302492D01*
X-552492Y305632D01*
X-550025Y309323D01*
X-548326Y313425D01*
X-547460Y317780D01*
Y322220D01*
X-548326Y326575D01*
X-550025Y330677D01*
X-551945Y333550D01*
X-551267Y334821D01*
X-537360D01*
X-536654Y333764D01*
X-536702Y333649D01*
Y331831D01*
X-536006Y330150D01*
X-534720Y328864D01*
X-533039Y328168D01*
X-531221D01*
X-529540Y328864D01*
X-528254Y330150D01*
X-527558Y331831D01*
Y333649D01*
X-527606Y333764D01*
X-526900Y334821D01*
X-435735D01*
Y332306D01*
X-435538Y331315D01*
X-434976Y330474D01*
X-434136Y329913D01*
X-433145Y329716D01*
X-390814D01*
X-389965Y328446D01*
X-390398Y327401D01*
Y325379D01*
X-389625Y323512D01*
X-388196Y322083D01*
X-386329Y321310D01*
X-384308D01*
X-382440Y322083D01*
X-381494Y323029D01*
X-380633Y323351D01*
X-379847Y323017D01*
X-379018Y322188D01*
X-377337Y321492D01*
X-375519D01*
X-373838Y322188D01*
X-372552Y323474D01*
X-371856Y325155D01*
Y326973D01*
X-372466Y328446D01*
X-371955Y329716D01*
X-321095D01*
X-320104Y329913D01*
X-319264Y330474D01*
X-318702Y331315D01*
X-318505Y332306D01*
Y334821D01*
X-274495D01*
X-274242Y333550D01*
X-275000Y333237D01*
X-276429Y331808D01*
X-277202Y329940D01*
Y327920D01*
X-276429Y326052D01*
X-275000Y324623D01*
X-273133Y323850D01*
X-271112D01*
X-269245Y324623D01*
X-267816Y326052D01*
X-267042Y327920D01*
Y329940D01*
X-267816Y331808D01*
X-269245Y333237D01*
X-270002Y333550D01*
X-269750Y334821D01*
X34820D01*
Y316316D01*
D02*
G37*
%LPC*%
G36*
X-193300Y328930D02*
X-195320D01*
X-197188Y328157D01*
X-198617Y326728D01*
X-199390Y324860D01*
Y322840D01*
X-198617Y320972D01*
X-197188Y319543D01*
X-195320Y318770D01*
X-193300D01*
X-191432Y319543D01*
X-190003Y320972D01*
X-189230Y322840D01*
Y324860D01*
X-190003Y326728D01*
X-191432Y328157D01*
X-193300Y328930D01*
D02*
G37*
G36*
X-79762Y327152D02*
X-81783D01*
X-83650Y326379D01*
X-85079Y324950D01*
X-85852Y323083D01*
Y321062D01*
X-85079Y319194D01*
X-83650Y317765D01*
X-81783Y316992D01*
X-79762D01*
X-77894Y317765D01*
X-76465Y319194D01*
X-75692Y321062D01*
Y323083D01*
X-76465Y324950D01*
X-77894Y326379D01*
X-79762Y327152D01*
D02*
G37*
G36*
X-440950Y312166D02*
X-442971D01*
X-444838Y311393D01*
X-445516Y310714D01*
X-446194Y311393D01*
X-448061Y312166D01*
X-450083D01*
X-451950Y311393D01*
X-453136Y310206D01*
X-454322Y311393D01*
X-456189Y312166D01*
X-458210D01*
X-460078Y311393D01*
X-461507Y309964D01*
X-462280Y308097D01*
Y306075D01*
X-461507Y304208D01*
X-460078Y302779D01*
X-458210Y302006D01*
X-456189D01*
X-454322Y302779D01*
X-453136Y303966D01*
X-451950Y302779D01*
X-450083Y302006D01*
X-448061D01*
X-446194Y302779D01*
X-445516Y303458D01*
X-444838Y302779D01*
X-442971Y302006D01*
X-440950D01*
X-439082Y302779D01*
X-437653Y304208D01*
X-436880Y306075D01*
Y308097D01*
X-437653Y309964D01*
X-439082Y311393D01*
X-440950Y312166D01*
D02*
G37*
G36*
X-367391Y308356D02*
X-369209D01*
X-370890Y307660D01*
X-371602Y306948D01*
X-372060Y307406D01*
X-373741Y308102D01*
X-375559D01*
X-377240Y307406D01*
X-378526Y306120D01*
X-379222Y304439D01*
Y302621D01*
X-378526Y300940D01*
X-377240Y299654D01*
X-375559Y298958D01*
X-373741D01*
X-372060Y299654D01*
X-371348Y300366D01*
X-370890Y299908D01*
X-369209Y299212D01*
X-367391D01*
X-365710Y299908D01*
X-364424Y301194D01*
X-363728Y302875D01*
Y304693D01*
X-364424Y306374D01*
X-365710Y307660D01*
X-367391Y308356D01*
D02*
G37*
G36*
X15387Y315976D02*
X13569D01*
X11888Y315280D01*
X10602Y313994D01*
X9906Y312313D01*
Y310495D01*
X10602Y308814D01*
X11888Y307528D01*
X13569Y306832D01*
X15387D01*
X17068Y307528D01*
X18354Y308814D01*
X19050Y310495D01*
Y312313D01*
X18354Y313994D01*
X17068Y315280D01*
X15387Y315976D01*
D02*
G37*
G36*
X2535Y313690D02*
X514D01*
X-1354Y312917D01*
X-2783Y311488D01*
X-3556Y309620D01*
Y307600D01*
X-2783Y305732D01*
X-1354Y304303D01*
X514Y303530D01*
X2535D01*
X4402Y304303D01*
X5831Y305732D01*
X6604Y307600D01*
Y309620D01*
X5831Y311488D01*
X4402Y312917D01*
X2535Y313690D01*
D02*
G37*
G36*
X-471937Y294894D02*
X-473959D01*
X-475826Y294121D01*
X-476338Y293608D01*
X-476364Y293633D01*
X-478044Y294329D01*
X-479863D01*
X-481543Y293633D01*
X-482830Y292347D01*
X-483526Y290667D01*
Y288848D01*
X-482830Y287168D01*
X-481543Y285882D01*
X-479863Y285186D01*
X-478044D01*
X-476364Y285882D01*
X-476282Y285963D01*
X-475826Y285507D01*
X-473959Y284734D01*
X-471937D01*
X-470070Y285507D01*
X-468641Y286936D01*
X-467868Y288804D01*
Y290825D01*
X-468641Y292692D01*
X-470070Y294121D01*
X-471937Y294894D01*
D02*
G37*
G36*
X-490044Y294329D02*
X-491863D01*
X-493543Y293633D01*
X-493954Y293223D01*
X-494364Y293633D01*
X-496044Y294329D01*
X-497863D01*
X-499543Y293633D01*
X-500830Y292347D01*
X-501526Y290667D01*
Y288848D01*
X-501015Y287616D01*
X-501590Y286495D01*
X-501759Y286346D01*
X-502813D01*
X-504494Y285650D01*
X-505780Y284364D01*
X-506343Y283005D01*
X-507527Y282856D01*
X-507665Y282878D01*
X-508188Y284141D01*
X-509474Y285427D01*
X-510860Y286001D01*
X-511279Y286777D01*
X-511397Y287393D01*
X-510794Y288848D01*
Y290667D01*
X-511490Y292347D01*
X-512776Y293633D01*
X-514457Y294329D01*
X-516275D01*
X-517956Y293633D01*
X-519242Y292347D01*
X-519938Y290667D01*
Y288848D01*
X-519242Y287168D01*
X-517956Y285882D01*
X-516570Y285307D01*
X-516151Y284531D01*
X-516033Y283916D01*
X-516636Y282460D01*
Y280642D01*
X-515940Y278961D01*
X-514654Y277675D01*
X-512973Y276979D01*
X-511155D01*
X-509474Y277675D01*
X-508188Y278961D01*
X-507625Y280320D01*
X-506441Y280469D01*
X-506303Y280446D01*
X-505780Y279184D01*
X-504494Y277898D01*
X-502813Y277202D01*
X-500995D01*
X-499314Y277898D01*
X-498028Y279184D01*
X-497332Y280864D01*
Y282683D01*
X-497842Y283916D01*
X-497267Y285036D01*
X-497099Y285186D01*
X-496044D01*
X-494364Y285882D01*
X-493954Y286292D01*
X-493543Y285882D01*
X-491863Y285186D01*
X-490044D01*
X-488364Y285882D01*
X-487078Y287168D01*
X-486382Y288848D01*
Y290667D01*
X-487078Y292347D01*
X-488364Y293633D01*
X-490044Y294329D01*
D02*
G37*
G36*
X-62287Y297180D02*
X-64106D01*
X-65787Y296484D01*
X-67073Y295198D01*
X-67769Y293517D01*
Y291699D01*
X-67304Y290576D01*
X-67151Y289928D01*
X-67907Y289056D01*
X-68712Y288723D01*
X-69122Y288313D01*
X-69532Y288723D01*
X-70443Y289100D01*
X-71161Y289851D01*
X-71068Y290629D01*
X-70625Y291699D01*
Y293517D01*
X-71321Y295198D01*
X-72607Y296484D01*
X-74287Y297180D01*
X-76106D01*
X-77787Y296484D01*
X-78197Y296074D01*
X-78607Y296484D01*
X-80287Y297180D01*
X-82106D01*
X-83787Y296484D01*
X-85073Y295198D01*
X-85769Y293517D01*
Y291699D01*
X-85304Y290576D01*
X-85151Y289928D01*
X-85907Y289056D01*
X-86712Y288723D01*
X-87998Y287437D01*
X-88694Y285756D01*
Y283937D01*
X-87998Y282257D01*
X-86712Y280971D01*
X-85032Y280275D01*
X-83213D01*
X-81532Y280971D01*
X-80246Y282257D01*
X-79550Y283937D01*
Y285756D01*
X-80015Y286879D01*
X-80168Y287527D01*
X-79412Y288399D01*
X-78607Y288732D01*
X-78197Y289142D01*
X-77787Y288732D01*
X-76876Y288355D01*
X-76158Y287604D01*
X-76251Y286826D01*
X-76694Y285756D01*
Y283937D01*
X-75998Y282257D01*
X-74712Y280971D01*
X-73032Y280275D01*
X-71213D01*
X-69532Y280971D01*
X-69122Y281381D01*
X-68712Y280971D01*
X-67032Y280275D01*
X-65213D01*
X-63532Y280971D01*
X-62246Y282257D01*
X-61550Y283937D01*
Y285756D01*
X-62015Y286879D01*
X-62168Y287527D01*
X-61412Y288399D01*
X-60607Y288732D01*
X-59321Y290018D01*
X-58625Y291699D01*
Y293517D01*
X-59321Y295198D01*
X-60607Y296484D01*
X-62287Y297180D01*
D02*
G37*
G36*
X-262287D02*
X-264106D01*
X-265787Y296484D01*
X-267073Y295198D01*
X-267769Y293517D01*
Y291699D01*
X-267304Y290576D01*
X-267151Y289928D01*
X-267907Y289056D01*
X-268712Y288723D01*
X-269122Y288313D01*
X-269532Y288723D01*
X-270443Y289100D01*
X-271161Y289851D01*
X-271068Y290629D01*
X-270625Y291699D01*
Y293517D01*
X-271321Y295198D01*
X-272607Y296484D01*
X-274287Y297180D01*
X-276106D01*
X-277787Y296484D01*
X-278197Y296074D01*
X-278607Y296484D01*
X-280287Y297180D01*
X-282106D01*
X-283787Y296484D01*
X-285073Y295198D01*
X-285769Y293517D01*
Y291699D01*
X-285304Y290576D01*
X-285151Y289928D01*
X-285907Y289056D01*
X-286712Y288723D01*
X-287998Y287437D01*
X-288694Y285756D01*
Y283937D01*
X-287998Y282257D01*
X-286712Y280971D01*
X-285032Y280275D01*
X-283213D01*
X-281532Y280971D01*
X-280246Y282257D01*
X-279550Y283937D01*
Y285756D01*
X-280015Y286879D01*
X-280168Y287527D01*
X-279412Y288399D01*
X-278607Y288732D01*
X-278197Y289142D01*
X-277787Y288732D01*
X-276876Y288355D01*
X-276158Y287604D01*
X-276251Y286826D01*
X-276694Y285756D01*
Y283937D01*
X-275998Y282257D01*
X-274712Y280971D01*
X-273032Y280275D01*
X-271213D01*
X-269532Y280971D01*
X-269122Y281381D01*
X-268712Y280971D01*
X-267032Y280275D01*
X-265213D01*
X-263532Y280971D01*
X-262246Y282257D01*
X-261550Y283937D01*
Y285756D01*
X-262015Y286879D01*
X-262168Y287527D01*
X-261412Y288399D01*
X-260607Y288732D01*
X-259321Y290018D01*
X-258625Y291699D01*
Y293517D01*
X-259321Y295198D01*
X-260607Y296484D01*
X-262287Y297180D01*
D02*
G37*
G36*
X-311511D02*
X-313329D01*
X-315010Y296484D01*
X-316296Y295198D01*
X-316992Y293517D01*
Y291699D01*
X-316296Y290018D01*
X-315010Y288732D01*
X-313329Y288036D01*
X-311511D01*
X-309830Y288732D01*
X-308544Y290018D01*
X-307848Y291699D01*
Y293517D01*
X-308544Y295198D01*
X-309830Y296484D01*
X-311511Y297180D01*
D02*
G37*
G36*
X-442044Y294107D02*
X-443863D01*
X-445543Y293411D01*
X-446829Y292125D01*
X-447525Y290444D01*
Y288626D01*
X-447061Y287503D01*
X-446908Y286854D01*
X-447664Y285983D01*
X-448469Y285650D01*
X-448879Y285240D01*
X-449289Y285650D01*
X-450200Y286027D01*
X-450918Y286778D01*
X-450825Y287556D01*
X-450382Y288626D01*
Y290444D01*
X-451078Y292125D01*
X-452364Y293411D01*
X-454044Y294107D01*
X-455863D01*
X-457543Y293411D01*
X-457953Y293001D01*
X-458364Y293411D01*
X-460044Y294107D01*
X-461863D01*
X-463543Y293411D01*
X-464829Y292125D01*
X-465526Y290444D01*
Y288626D01*
X-464829Y286945D01*
X-464402Y286517D01*
X-464829Y286090D01*
X-465526Y284409D01*
Y282591D01*
X-464829Y280910D01*
X-463543Y279624D01*
X-461863Y278928D01*
X-460044D01*
X-458364Y279624D01*
X-457620Y280368D01*
X-456139Y280111D01*
X-455755Y279184D01*
X-454469Y277898D01*
X-452788Y277202D01*
X-450970D01*
X-449289Y277898D01*
X-448879Y278308D01*
X-448469Y277898D01*
X-446788Y277202D01*
X-444969D01*
X-443289Y277898D01*
X-442003Y279184D01*
X-441307Y280864D01*
Y282683D01*
X-441772Y283806D01*
X-441924Y284454D01*
X-441169Y285326D01*
X-440364Y285659D01*
X-439078Y286945D01*
X-438382Y288626D01*
Y290444D01*
X-439078Y292125D01*
X-440364Y293411D01*
X-442044Y294107D01*
D02*
G37*
G36*
X-119741Y289419D02*
X-121559D01*
X-123240Y288723D01*
X-124526Y287437D01*
X-125222Y285756D01*
Y283937D01*
X-124526Y282257D01*
X-123240Y280971D01*
X-121559Y280275D01*
X-119741D01*
X-118060Y280971D01*
X-117531Y281500D01*
X-116890Y280858D01*
X-115209Y280162D01*
X-113391D01*
X-111710Y280858D01*
X-110424Y282144D01*
X-109728Y283825D01*
Y285643D01*
X-110424Y287324D01*
X-111710Y288610D01*
X-113391Y289306D01*
X-115209D01*
X-116890Y288610D01*
X-117419Y288081D01*
X-118060Y288723D01*
X-119741Y289419D01*
D02*
G37*
G36*
X-253213Y286766D02*
X-255032D01*
X-256712Y286070D01*
X-257998Y284784D01*
X-258694Y283103D01*
Y281285D01*
X-257998Y279604D01*
X-256712Y278318D01*
X-255032Y277622D01*
X-253213D01*
X-251532Y278318D01*
X-250246Y279604D01*
X-249550Y281285D01*
Y283103D01*
X-250246Y284784D01*
X-251532Y286070D01*
X-253213Y286766D01*
D02*
G37*
G36*
X-420970Y283693D02*
X-422788D01*
X-424469Y282997D01*
X-425755Y281711D01*
X-426451Y280030D01*
Y278211D01*
X-425755Y276531D01*
X-424469Y275245D01*
X-422788Y274549D01*
X-420970D01*
X-419289Y275245D01*
X-418003Y276531D01*
X-417307Y278211D01*
Y280030D01*
X-418003Y281711D01*
X-419289Y282997D01*
X-420970Y283693D01*
D02*
G37*
G36*
X-432970D02*
X-434788D01*
X-436469Y282997D01*
X-437755Y281711D01*
X-438451Y280030D01*
Y278211D01*
X-437755Y276531D01*
X-436469Y275245D01*
X-434788Y274549D01*
X-432970D01*
X-431289Y275245D01*
X-430003Y276531D01*
X-429307Y278211D01*
Y280030D01*
X-430003Y281711D01*
X-431289Y282997D01*
X-432970Y283693D01*
D02*
G37*
G36*
X15506Y280659D02*
X13688D01*
X12007Y279963D01*
X10721Y278677D01*
X10025Y276997D01*
Y275178D01*
X10721Y273497D01*
X12007Y272211D01*
X13688Y271515D01*
X15506D01*
X17187Y272211D01*
X18473Y273497D01*
X19169Y275178D01*
Y276997D01*
X18473Y278677D01*
X17187Y279963D01*
X15506Y280659D01*
D02*
G37*
G36*
X-182102Y273984D02*
X-182560D01*
Y257714D01*
X-166290D01*
Y258172D01*
X-166964Y261560D01*
X-168286Y264752D01*
X-170206Y267625D01*
X-172649Y270068D01*
X-175522Y271988D01*
X-178714Y273310D01*
X-182102Y273984D01*
D02*
G37*
G36*
X-185100D02*
X-185557D01*
X-188946Y273310D01*
X-192138Y271988D01*
X-195011Y270068D01*
X-197454Y267625D01*
X-199374Y264752D01*
X-200696Y261560D01*
X-201370Y258172D01*
Y257714D01*
X-185100D01*
Y273984D01*
D02*
G37*
G36*
X-475087Y269494D02*
X-476905D01*
X-478586Y268798D01*
X-479872Y267512D01*
X-480568Y265831D01*
Y264013D01*
X-479872Y262332D01*
X-478586Y261046D01*
X-476905Y260350D01*
X-475087D01*
X-474866Y260259D01*
X-474207Y258667D01*
X-472778Y257238D01*
X-470910Y256465D01*
X-468890D01*
X-467022Y257238D01*
X-465593Y258667D01*
X-464820Y260534D01*
Y262556D01*
X-465593Y264423D01*
X-467022Y265852D01*
X-468890Y266625D01*
X-470910D01*
X-471629Y266327D01*
X-472120Y267512D01*
X-473406Y268798D01*
X-475087Y269494D01*
D02*
G37*
G36*
X-515117Y265684D02*
X-517138D01*
X-519006Y264911D01*
X-520435Y263482D01*
X-521208Y261614D01*
Y259594D01*
X-520435Y257726D01*
X-519006Y256297D01*
X-517138Y255524D01*
X-515117D01*
X-513250Y256297D01*
X-511821Y257726D01*
X-511048Y259594D01*
Y261614D01*
X-511821Y263482D01*
X-513250Y264911D01*
X-515117Y265684D01*
D02*
G37*
G36*
X-62235Y264668D02*
X-64257D01*
X-66124Y263895D01*
X-67553Y262466D01*
X-68326Y260599D01*
Y258577D01*
X-67553Y256710D01*
X-66124Y255281D01*
X-64257Y254508D01*
X-62235D01*
X-60368Y255281D01*
X-58939Y256710D01*
X-58166Y258577D01*
Y260599D01*
X-58939Y262466D01*
X-60368Y263895D01*
X-62235Y264668D01*
D02*
G37*
G36*
X-150121Y264922D02*
X-152647D01*
X-154981Y263955D01*
X-156767Y262169D01*
X-157734Y259835D01*
Y257309D01*
X-156767Y254975D01*
X-154981Y253189D01*
X-152647Y252222D01*
X-150121D01*
X-147787Y253189D01*
X-146001Y254975D01*
X-145034Y257309D01*
Y259835D01*
X-146001Y262169D01*
X-147787Y263955D01*
X-150121Y264922D01*
D02*
G37*
G36*
X-312213Y263906D02*
X-314032D01*
X-315712Y263210D01*
X-316998Y261924D01*
X-317694Y260243D01*
Y258425D01*
X-316998Y256744D01*
X-315712Y255458D01*
X-314032Y254762D01*
X-312694D01*
Y253091D01*
X-311998Y251410D01*
X-310712Y250124D01*
X-309032Y249428D01*
X-307213D01*
X-305532Y250124D01*
X-304246Y251410D01*
X-303550Y253091D01*
Y254909D01*
X-304246Y256590D01*
X-305532Y257876D01*
X-307213Y258572D01*
X-308550D01*
Y260243D01*
X-309246Y261924D01*
X-310532Y263210D01*
X-312213Y263906D01*
D02*
G37*
G36*
X-358357Y260350D02*
X-360883D01*
X-363217Y259383D01*
X-365003Y257597D01*
X-365970Y255263D01*
Y252737D01*
X-365003Y250403D01*
X-363217Y248617D01*
X-360883Y247650D01*
X-358357D01*
X-356023Y248617D01*
X-354237Y250403D01*
X-353270Y252737D01*
Y255263D01*
X-354237Y257597D01*
X-356023Y259383D01*
X-358357Y260350D01*
D02*
G37*
G36*
X-5949Y261392D02*
X-7767D01*
X-9448Y260696D01*
X-10734Y259410D01*
X-11430Y257729D01*
Y255910D01*
X-10749Y254267D01*
X-11430Y252623D01*
Y250805D01*
X-10734Y249124D01*
X-9448Y247838D01*
X-7767Y247142D01*
X-5949D01*
X-4268Y247838D01*
X-2982Y249124D01*
X-2286Y250805D01*
Y252623D01*
X-2967Y254267D01*
X-2286Y255910D01*
Y257729D01*
X-2982Y259410D01*
X-4268Y260696D01*
X-5949Y261392D01*
D02*
G37*
G36*
X-24137Y268224D02*
X-26663D01*
X-28997Y267257D01*
X-30783Y265471D01*
X-31750Y263137D01*
Y260611D01*
X-30783Y258277D01*
X-29254Y256747D01*
X-29029Y256230D01*
X-29159Y255183D01*
X-30038Y254304D01*
X-30734Y252623D01*
Y250805D01*
X-30038Y249124D01*
X-28752Y247838D01*
X-27071Y247142D01*
X-25253D01*
X-23572Y247838D01*
X-22286Y249124D01*
X-21590Y250805D01*
Y252623D01*
X-22286Y254304D01*
X-22719Y254737D01*
X-22421Y256235D01*
X-21803Y256491D01*
X-20017Y258277D01*
X-19050Y260611D01*
Y263137D01*
X-20017Y265471D01*
X-21803Y267257D01*
X-24137Y268224D01*
D02*
G37*
G36*
X-377449Y257239D02*
X-379470D01*
X-381338Y256465D01*
X-382767Y255036D01*
X-383540Y253169D01*
Y251148D01*
X-382767Y249281D01*
X-381338Y247852D01*
X-379470Y247078D01*
X-377449D01*
X-375582Y247852D01*
X-374153Y249281D01*
X-373380Y251148D01*
Y253169D01*
X-374153Y255036D01*
X-375582Y256465D01*
X-377449Y257239D01*
D02*
G37*
G36*
X-502417Y257302D02*
X-504438D01*
X-506306Y256529D01*
X-507735Y255100D01*
X-508508Y253232D01*
Y252992D01*
X-508749D01*
X-510616Y252218D01*
X-512045Y250789D01*
X-512818Y248922D01*
Y246901D01*
X-512045Y245034D01*
X-510616Y243605D01*
X-508749Y242831D01*
X-506728D01*
X-504861Y243605D01*
X-503432Y245034D01*
X-502659Y246901D01*
Y247142D01*
X-502417D01*
X-500550Y247915D01*
X-499121Y249344D01*
X-498348Y251211D01*
Y253232D01*
X-499121Y255100D01*
X-500550Y256529D01*
X-502417Y257302D01*
D02*
G37*
G36*
X15997Y251388D02*
X13975D01*
X12108Y250615D01*
X10679Y249186D01*
X9906Y247318D01*
Y245298D01*
X10679Y243430D01*
X12108Y242001D01*
X13975Y241228D01*
X15997D01*
X17864Y242001D01*
X19293Y243430D01*
X20066Y245298D01*
Y247318D01*
X19293Y249186D01*
X17864Y250615D01*
X15997Y251388D01*
D02*
G37*
G36*
X-577449Y248158D02*
X-579267D01*
X-580948Y247462D01*
X-582234Y246176D01*
X-582930Y244495D01*
Y242677D01*
X-582234Y240996D01*
X-580948Y239710D01*
X-579267Y239014D01*
X-577449D01*
X-575768Y239710D01*
X-574482Y240996D01*
X-573786Y242677D01*
Y244495D01*
X-574482Y246176D01*
X-575768Y247462D01*
X-577449Y248158D01*
D02*
G37*
G36*
X-166290Y255174D02*
X-182560D01*
Y238904D01*
X-182102D01*
X-178714Y239578D01*
X-175522Y240900D01*
X-172649Y242820D01*
X-170206Y245263D01*
X-168286Y248136D01*
X-166964Y251328D01*
X-166290Y254717D01*
Y255174D01*
D02*
G37*
G36*
X-185100D02*
X-201370D01*
Y254717D01*
X-200696Y251328D01*
X-199374Y248136D01*
X-197454Y245263D01*
X-195011Y242820D01*
X-192138Y240900D01*
X-188946Y239578D01*
X-185557Y238904D01*
X-185100D01*
Y255174D01*
D02*
G37*
G36*
X-140168Y250764D02*
X-142694D01*
X-145028Y249797D01*
X-146814Y248011D01*
X-147781Y245677D01*
Y243151D01*
X-146814Y240817D01*
X-145028Y239030D01*
X-142694Y238064D01*
X-140168D01*
X-137834Y239030D01*
X-136048Y240817D01*
X-135081Y243151D01*
Y245677D01*
X-136048Y248011D01*
X-137834Y249797D01*
X-140168Y250764D01*
D02*
G37*
G36*
X-240545Y243765D02*
X-243071D01*
X-245405Y242798D01*
X-247191Y241012D01*
X-248158Y238678D01*
Y236152D01*
X-247191Y233818D01*
X-245405Y232032D01*
X-243071Y231065D01*
X-240545D01*
X-238211Y232032D01*
X-236425Y233818D01*
X-235458Y236152D01*
Y238678D01*
X-236425Y241012D01*
X-238211Y242798D01*
X-240545Y243765D01*
D02*
G37*
G36*
X-341889Y236220D02*
X-343910D01*
X-345778Y235447D01*
X-347207Y234018D01*
X-347980Y232150D01*
Y230130D01*
X-347207Y228262D01*
X-345778Y226833D01*
X-343910Y226060D01*
X-341889D01*
X-340022Y226833D01*
X-338593Y228262D01*
X-337820Y230130D01*
Y232150D01*
X-338593Y234018D01*
X-340022Y235447D01*
X-341889Y236220D01*
D02*
G37*
G36*
X-401681Y225552D02*
X-403499D01*
X-405180Y224856D01*
X-406466Y223570D01*
X-407162Y221889D01*
Y220470D01*
X-407990Y219725D01*
X-408334Y219581D01*
X-408750Y219753D01*
X-409545D01*
X-410605Y220040D01*
X-410718Y220926D01*
Y221889D01*
X-411414Y223570D01*
X-412700Y224856D01*
X-414381Y225552D01*
X-416199D01*
X-417880Y224856D01*
X-419166Y223570D01*
X-419862Y221889D01*
Y220071D01*
X-419166Y218390D01*
X-417880Y217104D01*
X-416199Y216408D01*
X-415404D01*
X-414344Y216121D01*
X-414231Y215235D01*
Y214272D01*
X-413535Y212591D01*
X-412249Y211305D01*
X-410569Y210609D01*
X-408750D01*
X-407917Y210954D01*
X-407736Y210516D01*
X-406450Y209230D01*
X-404769Y208534D01*
X-402951D01*
X-401270Y209230D01*
X-399984Y210516D01*
X-399288Y212197D01*
Y214015D01*
X-399984Y215696D01*
X-400209Y215920D01*
X-399798Y217306D01*
X-398714Y218390D01*
X-398018Y220071D01*
Y221889D01*
X-398714Y223570D01*
X-400000Y224856D01*
X-401681Y225552D01*
D02*
G37*
G36*
X-509377Y228164D02*
X-511195D01*
X-512876Y227468D01*
X-514162Y226182D01*
X-514858Y224501D01*
Y222683D01*
X-514162Y221002D01*
X-512876Y219716D01*
X-511195Y219020D01*
X-509377D01*
X-507696Y219716D01*
X-506410Y221002D01*
X-505714Y222683D01*
Y224501D01*
X-506410Y226182D01*
X-507696Y227468D01*
X-509377Y228164D01*
D02*
G37*
G36*
X-388447Y215289D02*
X-390266D01*
X-391946Y214593D01*
X-393233Y213307D01*
X-393929Y211626D01*
Y209807D01*
X-393233Y208127D01*
X-391946Y206841D01*
X-390266Y206145D01*
X-388447D01*
X-386767Y206841D01*
X-385481Y208127D01*
X-384785Y209807D01*
Y211626D01*
X-385481Y213307D01*
X-386767Y214593D01*
X-388447Y215289D01*
D02*
G37*
G36*
X-480421Y212015D02*
X-482239D01*
X-483920Y211319D01*
X-485206Y210033D01*
X-485902Y208352D01*
Y206533D01*
X-485206Y204853D01*
X-483920Y203567D01*
X-482239Y202871D01*
X-480421D01*
X-478740Y203567D01*
X-477454Y204853D01*
X-476758Y206533D01*
Y208352D01*
X-477454Y210033D01*
X-478740Y211319D01*
X-480421Y212015D01*
D02*
G37*
G36*
X-344938Y211582D02*
X-346959D01*
X-348826Y210809D01*
X-350255Y209380D01*
X-351028Y207512D01*
Y205492D01*
X-350255Y203624D01*
X-348826Y202195D01*
X-346959Y201422D01*
X-344938D01*
X-343070Y202195D01*
X-341641Y203624D01*
X-340868Y205492D01*
Y207512D01*
X-341641Y209380D01*
X-343070Y210809D01*
X-344938Y211582D01*
D02*
G37*
G36*
X-501858Y208015D02*
X-503677D01*
X-505357Y207319D01*
X-506643Y206033D01*
X-507339Y204352D01*
Y202533D01*
X-506643Y200853D01*
X-505357Y199567D01*
X-503677Y198871D01*
X-501858D01*
X-500177Y199567D01*
X-498891Y200853D01*
X-498195Y202533D01*
Y204352D01*
X-498891Y206033D01*
X-500177Y207319D01*
X-501858Y208015D01*
D02*
G37*
G36*
X-130265Y234555D02*
X-132083D01*
X-133764Y233859D01*
X-135050Y232572D01*
X-135746Y230892D01*
Y229073D01*
X-135070Y227443D01*
X-135746Y225812D01*
Y223993D01*
X-135050Y222313D01*
X-134180Y221443D01*
X-135050Y220573D01*
X-135746Y218892D01*
Y217073D01*
X-135070Y215443D01*
X-135746Y213812D01*
Y211993D01*
X-135050Y210313D01*
X-134180Y209443D01*
X-135050Y208573D01*
X-135746Y206892D01*
Y205073D01*
X-135070Y203443D01*
X-135746Y201812D01*
Y199993D01*
X-135050Y198313D01*
X-133764Y197027D01*
X-132083Y196331D01*
X-130265D01*
X-128584Y197027D01*
X-127298Y198313D01*
X-126602Y199993D01*
Y201812D01*
X-127277Y203443D01*
X-126602Y205073D01*
Y206892D01*
X-127298Y208573D01*
X-128168Y209443D01*
X-127298Y210313D01*
X-126602Y211993D01*
Y213812D01*
X-127277Y215443D01*
X-126602Y217073D01*
Y218892D01*
X-127298Y220573D01*
X-128168Y221443D01*
X-127298Y222313D01*
X-126602Y223993D01*
Y225812D01*
X-127277Y227443D01*
X-126602Y229073D01*
Y230892D01*
X-127298Y232572D01*
X-128584Y233859D01*
X-130265Y234555D01*
D02*
G37*
G36*
X-3667Y205110D02*
X-6069D01*
X-8289Y204191D01*
X-9988Y202491D01*
X-10908Y200271D01*
Y197869D01*
X-9988Y195649D01*
X-8289Y193950D01*
X-6069Y193030D01*
X-3667D01*
X-1447Y193950D01*
X253Y195649D01*
X1172Y197869D01*
Y200271D01*
X253Y202491D01*
X-1447Y204191D01*
X-3667Y205110D01*
D02*
G37*
G36*
X-130265Y193802D02*
X-132083D01*
X-133764Y193106D01*
X-134623Y192247D01*
X-135482Y193106D01*
X-137163Y193802D01*
X-138982D01*
X-140662Y193106D01*
X-141948Y191820D01*
X-142644Y190139D01*
Y188321D01*
X-141948Y186640D01*
X-140662Y185354D01*
X-138982Y184658D01*
X-137163D01*
X-135482Y185354D01*
X-134623Y186213D01*
X-133764Y185354D01*
X-132083Y184658D01*
X-130265D01*
X-128584Y185354D01*
X-127298Y186640D01*
X-126602Y188321D01*
Y190139D01*
X-127298Y191820D01*
X-128584Y193106D01*
X-130265Y193802D01*
D02*
G37*
G36*
X-445877Y212555D02*
X-447695D01*
X-449376Y211859D01*
X-450662Y210572D01*
X-451358Y208892D01*
Y207073D01*
X-450683Y205443D01*
X-451358Y203812D01*
Y201993D01*
X-450662Y200313D01*
X-449522Y199173D01*
X-450662Y198032D01*
X-451358Y196352D01*
Y194533D01*
X-450662Y192853D01*
X-449376Y191567D01*
X-447695Y190871D01*
X-445877D01*
X-444196Y191567D01*
X-442910Y192853D01*
X-442214Y194533D01*
Y196352D01*
X-442910Y198032D01*
X-444050Y199173D01*
X-442910Y200313D01*
X-442214Y201993D01*
Y203812D01*
X-442889Y205443D01*
X-442214Y207073D01*
Y208892D01*
X-442910Y210572D01*
X-444196Y211859D01*
X-445877Y212555D01*
D02*
G37*
G36*
X-29317Y198882D02*
X-31135D01*
X-32816Y198186D01*
X-34102Y196900D01*
X-34798Y195219D01*
Y193401D01*
X-34102Y191720D01*
X-32816Y190434D01*
X-31135Y189738D01*
X-29317D01*
X-27636Y190434D01*
X-26350Y191720D01*
X-25654Y193401D01*
Y195219D01*
X-26350Y196900D01*
X-27636Y198186D01*
X-29317Y198882D01*
D02*
G37*
G36*
X-77577Y234555D02*
X-79395D01*
X-81076Y233859D01*
X-82362Y232572D01*
X-83058Y230892D01*
Y229073D01*
X-82383Y227443D01*
X-83058Y225812D01*
Y223993D01*
X-82362Y222313D01*
X-81492Y221443D01*
X-82362Y220572D01*
X-83058Y218892D01*
Y217073D01*
X-82383Y215443D01*
X-83058Y213812D01*
Y211993D01*
X-82362Y210313D01*
X-81492Y209443D01*
X-82362Y208573D01*
X-83058Y206892D01*
Y205073D01*
X-82383Y203443D01*
X-83058Y201812D01*
Y199993D01*
X-82362Y198313D01*
X-81076Y197027D01*
X-79395Y196331D01*
X-79295D01*
X-78446Y195061D01*
X-78740Y194352D01*
Y193802D01*
X-79395D01*
X-81076Y193106D01*
X-82362Y191820D01*
X-83058Y190139D01*
Y188321D01*
X-82362Y186640D01*
X-81142Y185420D01*
X-82362Y184200D01*
X-83058Y182519D01*
Y180701D01*
X-82362Y179020D01*
X-81076Y177734D01*
X-79395Y177038D01*
X-77577D01*
X-75896Y177734D01*
X-74610Y179020D01*
X-73914Y180701D01*
Y182519D01*
X-74610Y184200D01*
X-75830Y185420D01*
X-74610Y186640D01*
X-73914Y188321D01*
Y188871D01*
X-73259D01*
X-71578Y189567D01*
X-70292Y190853D01*
X-69596Y192533D01*
Y194352D01*
X-70292Y196033D01*
X-71578Y197319D01*
X-73259Y198015D01*
X-73359D01*
X-74208Y199285D01*
X-73914Y199993D01*
Y201812D01*
X-74589Y203443D01*
X-73914Y205073D01*
Y206892D01*
X-74610Y208573D01*
X-75480Y209443D01*
X-74610Y210313D01*
X-73914Y211993D01*
Y213812D01*
X-74589Y215443D01*
X-73914Y217073D01*
Y218892D01*
X-74610Y220572D01*
X-75480Y221443D01*
X-74610Y222313D01*
X-73914Y223993D01*
Y225812D01*
X-74589Y227443D01*
X-73914Y229073D01*
Y230892D01*
X-74610Y232572D01*
X-75896Y233859D01*
X-77577Y234555D01*
D02*
G37*
G36*
X-110851Y186015D02*
X-112669D01*
X-114350Y185319D01*
X-115636Y184033D01*
X-116332Y182352D01*
Y180533D01*
X-115636Y178853D01*
X-114350Y177567D01*
X-112669Y176871D01*
X-110851D01*
X-109170Y177567D01*
X-107884Y178853D01*
X-107188Y180533D01*
Y182352D01*
X-107884Y184033D01*
X-109170Y185319D01*
X-110851Y186015D01*
D02*
G37*
G36*
X-430637Y188015D02*
X-432455D01*
X-434136Y187319D01*
X-435422Y186033D01*
X-436118Y184352D01*
Y182533D01*
X-435422Y180853D01*
X-434809Y180240D01*
X-435422Y179628D01*
X-436118Y177947D01*
Y176384D01*
X-436845Y175901D01*
X-437291Y175762D01*
X-438363Y176833D01*
X-440697Y177800D01*
X-443223D01*
X-445557Y176833D01*
X-447343Y175047D01*
X-448310Y172713D01*
Y170187D01*
X-447343Y167853D01*
X-445860Y166370D01*
X-447343Y164887D01*
X-448310Y162553D01*
Y160027D01*
X-447343Y157693D01*
X-445557Y155907D01*
X-443223Y154940D01*
X-440697D01*
X-438363Y155907D01*
X-436577Y157693D01*
X-435610Y160027D01*
Y162553D01*
X-436577Y164887D01*
X-438060Y166370D01*
X-436577Y167853D01*
X-435610Y170187D01*
Y172713D01*
X-435700Y172930D01*
X-434623Y173649D01*
X-434136Y173162D01*
X-432455Y172466D01*
X-430637D01*
X-428956Y173162D01*
X-427670Y174448D01*
X-426974Y176129D01*
Y177947D01*
X-427670Y179628D01*
X-428283Y180240D01*
X-427670Y180853D01*
X-426974Y182533D01*
Y184352D01*
X-427670Y186033D01*
X-428956Y187319D01*
X-430637Y188015D01*
D02*
G37*
G36*
X-480242Y192015D02*
X-482061D01*
X-483742Y191319D01*
X-485028Y190033D01*
X-485724Y188352D01*
Y186533D01*
X-485028Y184853D01*
X-483742Y183567D01*
X-482061Y182871D01*
X-480822D01*
Y182533D01*
X-480126Y180853D01*
X-478840Y179567D01*
X-477159Y178871D01*
X-475742D01*
Y178161D01*
X-475046Y176480D01*
X-473760Y175194D01*
X-472079Y174498D01*
X-470261D01*
X-468580Y175194D01*
X-467294Y176480D01*
X-466598Y178161D01*
Y179979D01*
X-467294Y181660D01*
X-468580Y182946D01*
X-470261Y183642D01*
X-471678D01*
Y184352D01*
X-472374Y186033D01*
X-473660Y187319D01*
X-475341Y188015D01*
X-476580D01*
Y188352D01*
X-477276Y190033D01*
X-478562Y191319D01*
X-480242Y192015D01*
D02*
G37*
G36*
X-501757Y183642D02*
X-503575D01*
X-505256Y182946D01*
X-506542Y181660D01*
X-507238Y179979D01*
Y178161D01*
X-506542Y176480D01*
X-505256Y175194D01*
X-503575Y174498D01*
X-501757D01*
X-500076Y175194D01*
X-498790Y176480D01*
X-498094Y178161D01*
Y179979D01*
X-498790Y181660D01*
X-500076Y182946D01*
X-501757Y183642D01*
D02*
G37*
G36*
X-372714Y209655D02*
X-376366D01*
X-379948Y208943D01*
X-383322Y207545D01*
X-386358Y205516D01*
X-388941Y202934D01*
X-390970Y199897D01*
X-392368Y196523D01*
X-393080Y192941D01*
Y189289D01*
X-392368Y185707D01*
X-390970Y182333D01*
X-388941Y179296D01*
X-386358Y176714D01*
X-383322Y174685D01*
X-379948Y173288D01*
X-376366Y172575D01*
X-372714D01*
X-369132Y173288D01*
X-365758Y174685D01*
X-362721Y176714D01*
X-360139Y179296D01*
X-358110Y182333D01*
X-356712Y185707D01*
X-356000Y189289D01*
Y192941D01*
X-356712Y196523D01*
X-358110Y199897D01*
X-360139Y202934D01*
X-362721Y205516D01*
X-365758Y207545D01*
X-369132Y208943D01*
X-372714Y209655D01*
D02*
G37*
G36*
X-4679Y187092D02*
X-6497D01*
X-8178Y186396D01*
X-9464Y185110D01*
X-10160Y183430D01*
Y181611D01*
X-9464Y179930D01*
X-8879Y179345D01*
X-9464Y178760D01*
X-10160Y177080D01*
Y175261D01*
X-9464Y173580D01*
X-8178Y172294D01*
X-6497Y171598D01*
X-4679D01*
X-2998Y172294D01*
X-1712Y173580D01*
X-1016Y175261D01*
Y177080D01*
X-1712Y178760D01*
X-2297Y179345D01*
X-1712Y179930D01*
X-1016Y181611D01*
Y183430D01*
X-1712Y185110D01*
X-2998Y186396D01*
X-4679Y187092D01*
D02*
G37*
G36*
X-315219Y180594D02*
X-317241D01*
X-319108Y179821D01*
X-320537Y178392D01*
X-321310Y176525D01*
Y174503D01*
X-320537Y172636D01*
X-319108Y171207D01*
X-317241Y170434D01*
X-315219D01*
X-313352Y171207D01*
X-311923Y172636D01*
X-311150Y174503D01*
Y176525D01*
X-311923Y178392D01*
X-313352Y179821D01*
X-315219Y180594D01*
D02*
G37*
G36*
X-179674Y209655D02*
X-183326D01*
X-186908Y208943D01*
X-190282Y207545D01*
X-193319Y205516D01*
X-195901Y202934D01*
X-197930Y199897D01*
X-199328Y196523D01*
X-200040Y192941D01*
Y189289D01*
X-199328Y185707D01*
X-197930Y182333D01*
X-195901Y179296D01*
X-193319Y176714D01*
X-190282Y174685D01*
X-186908Y173288D01*
X-183326Y172575D01*
X-179674D01*
X-176092Y173288D01*
X-172718Y174685D01*
X-171531Y173951D01*
Y172980D01*
X-170758Y171112D01*
X-169329Y169683D01*
X-167461Y168910D01*
X-165441D01*
X-163573Y169683D01*
X-162144Y171112D01*
X-161371Y172980D01*
Y175000D01*
X-162144Y176868D01*
X-163573Y178297D01*
X-165441Y179070D01*
X-165723D01*
X-166402Y180340D01*
X-165070Y182333D01*
X-163672Y185707D01*
X-162960Y189289D01*
Y192941D01*
X-163672Y196523D01*
X-165070Y199897D01*
X-167099Y202934D01*
X-169681Y205516D01*
X-172718Y207545D01*
X-176092Y208943D01*
X-179674Y209655D01*
D02*
G37*
G36*
X-561855Y189484D02*
X-564381D01*
X-566715Y188517D01*
X-568501Y186731D01*
X-569468Y184397D01*
Y181871D01*
X-568501Y179537D01*
X-567526Y178562D01*
X-568501Y177587D01*
X-569468Y175253D01*
Y172727D01*
X-568501Y170393D01*
X-566715Y168607D01*
X-564381Y167640D01*
X-561855D01*
X-559521Y168607D01*
X-557735Y170393D01*
X-556768Y172727D01*
Y175253D01*
X-557735Y177587D01*
X-558710Y178562D01*
X-557735Y179537D01*
X-556768Y181871D01*
Y184397D01*
X-557735Y186731D01*
X-559521Y188517D01*
X-561855Y189484D01*
D02*
G37*
G36*
X-295811Y166624D02*
X-297629D01*
X-299310Y165928D01*
X-299744Y165494D01*
X-299924Y165674D01*
X-301605Y166370D01*
X-303423D01*
X-305104Y165674D01*
X-305689Y165089D01*
X-306020Y165420D01*
X-307701Y166116D01*
X-309519D01*
X-311200Y165420D01*
X-312486Y164134D01*
X-313182Y162453D01*
Y160635D01*
X-312486Y158954D01*
X-311200Y157668D01*
X-309519Y156972D01*
X-307701D01*
X-306020Y157668D01*
X-305435Y158253D01*
X-305104Y157922D01*
X-303423Y157226D01*
X-301605D01*
X-299924Y157922D01*
X-299490Y158356D01*
X-299310Y158176D01*
X-297629Y157480D01*
X-295811D01*
X-294130Y158176D01*
X-292844Y159462D01*
X-292148Y161143D01*
Y162961D01*
X-292844Y164642D01*
X-294130Y165928D01*
X-295811Y166624D01*
D02*
G37*
G36*
X-77577Y174015D02*
X-79395D01*
X-81076Y173319D01*
X-82362Y172033D01*
X-83058Y170352D01*
Y168533D01*
X-82362Y166853D01*
X-81076Y165567D01*
X-79395Y164871D01*
X-77577D01*
X-75896Y165567D01*
X-74610Y166853D01*
X-73914Y168533D01*
Y170352D01*
X-74610Y172033D01*
X-75896Y173319D01*
X-77577Y174015D01*
D02*
G37*
G36*
X-110597Y173990D02*
X-112415D01*
X-114096Y173294D01*
X-115382Y172008D01*
X-116078Y170327D01*
Y168509D01*
X-115382Y166828D01*
X-114096Y165542D01*
X-112415Y164846D01*
X-110597D01*
X-108916Y165542D01*
X-107630Y166828D01*
X-106934Y168509D01*
Y170327D01*
X-107630Y172008D01*
X-108916Y173294D01*
X-110597Y173990D01*
D02*
G37*
G36*
X-476991Y172015D02*
X-478809D01*
X-480490Y171319D01*
X-481776Y170033D01*
X-482472Y168352D01*
Y166533D01*
X-481776Y164853D01*
X-480490Y163567D01*
X-478809Y162871D01*
X-476991D01*
X-475310Y163567D01*
X-474024Y164853D01*
X-473328Y166533D01*
Y168352D01*
X-474024Y170033D01*
X-475310Y171319D01*
X-476991Y172015D01*
D02*
G37*
G36*
X-3917Y163322D02*
X-5735D01*
X-7416Y162626D01*
X-8001Y162041D01*
X-8078Y162118D01*
X-9759Y162814D01*
X-11577D01*
X-13258Y162118D01*
X-14544Y160832D01*
X-15240Y159151D01*
Y157333D01*
X-14544Y155652D01*
X-13258Y154366D01*
X-11577Y153670D01*
X-9759D01*
X-8078Y154366D01*
X-7493Y154951D01*
X-7416Y154874D01*
X-6961Y154685D01*
X-6040Y153842D01*
X-6326Y153153D01*
X-6736Y152161D01*
Y150342D01*
X-6040Y148662D01*
X-4754Y147376D01*
X-3074Y146680D01*
X-1255D01*
X426Y147376D01*
X1712Y148662D01*
X2408Y150342D01*
Y152161D01*
X1712Y153842D01*
X426Y155128D01*
X-30Y155316D01*
X-950Y156160D01*
X-665Y156849D01*
X-254Y157841D01*
Y159659D01*
X-950Y161340D01*
X-2236Y162626D01*
X-3917Y163322D01*
D02*
G37*
G36*
X-403866Y158750D02*
X-405886D01*
X-407754Y157977D01*
X-407924Y157806D01*
X-408094Y157977D01*
X-409962Y158750D01*
X-411982D01*
X-413850Y157977D01*
X-415279Y156548D01*
X-416052Y154681D01*
Y152660D01*
X-415279Y150792D01*
X-413850Y149363D01*
X-411982Y148590D01*
X-409962D01*
X-408094Y149363D01*
X-407924Y149534D01*
X-407754Y149363D01*
X-405886Y148590D01*
X-403866D01*
X-401998Y149363D01*
X-400569Y150792D01*
X-399796Y152660D01*
Y154681D01*
X-400569Y156548D01*
X-401998Y157977D01*
X-403866Y158750D01*
D02*
G37*
G36*
X-559669Y165421D02*
X-561487D01*
X-563168Y164725D01*
X-564454Y163439D01*
X-565150Y161759D01*
Y159940D01*
X-564454Y158259D01*
X-563168Y156973D01*
X-561487Y156277D01*
X-559669D01*
X-557988Y156973D01*
X-556702Y158259D01*
X-556006Y159940D01*
Y161759D01*
X-556702Y163439D01*
X-557988Y164725D01*
X-559669Y165421D01*
D02*
G37*
G36*
X-515981Y162535D02*
X-517799D01*
X-519480Y161839D01*
X-520766Y160553D01*
X-521462Y158872D01*
Y157053D01*
X-520766Y155373D01*
X-519480Y154087D01*
X-517799Y153391D01*
X-515981D01*
X-514300Y154087D01*
X-513014Y155373D01*
X-512318Y157053D01*
Y158872D01*
X-513014Y160553D01*
X-514300Y161839D01*
X-515981Y162535D01*
D02*
G37*
G36*
X-42647Y168042D02*
X-44466D01*
X-46146Y167346D01*
X-47432Y166060D01*
X-48128Y164380D01*
Y162561D01*
X-47432Y160880D01*
X-46847Y160295D01*
X-47432Y159710D01*
X-48128Y158030D01*
Y156211D01*
X-47432Y154530D01*
X-46146Y153244D01*
X-44466Y152548D01*
X-42647D01*
X-40966Y153244D01*
X-39680Y154530D01*
X-38984Y156211D01*
Y158030D01*
X-39680Y159710D01*
X-40265Y160295D01*
X-39680Y160880D01*
X-38984Y162561D01*
Y164380D01*
X-39680Y166060D01*
X-40966Y167346D01*
X-42647Y168042D01*
D02*
G37*
G36*
X-476991Y160015D02*
X-478809D01*
X-480490Y159319D01*
X-481776Y158033D01*
X-482472Y156352D01*
Y154533D01*
X-481776Y152853D01*
X-480490Y151567D01*
X-478809Y150871D01*
X-476991D01*
X-475310Y151567D01*
X-474024Y152853D01*
X-473328Y154533D01*
Y156352D01*
X-474024Y158033D01*
X-475310Y159319D01*
X-476991Y160015D01*
D02*
G37*
G36*
X-275709Y166370D02*
X-277730D01*
X-279597Y165597D01*
X-281027Y164168D01*
X-281800Y162300D01*
Y160280D01*
X-281027Y158412D01*
X-279597Y156983D01*
X-278684Y156605D01*
X-277622Y155849D01*
Y154031D01*
X-276926Y152350D01*
X-275640Y151064D01*
X-273959Y150368D01*
X-272141D01*
X-270460Y151064D01*
X-269174Y152350D01*
X-268478Y154031D01*
Y155849D01*
X-269174Y157530D01*
X-270460Y158816D01*
X-271985Y159447D01*
X-271640Y160280D01*
Y162300D01*
X-272413Y164168D01*
X-273842Y165597D01*
X-275709Y166370D01*
D02*
G37*
G36*
X-127361Y166015D02*
X-129179D01*
X-130860Y165319D01*
X-132146Y164032D01*
X-132603Y162930D01*
X-133711Y162015D01*
X-135529D01*
X-137210Y161319D01*
X-138496Y160033D01*
X-139192Y158352D01*
Y156533D01*
X-138496Y154853D01*
X-137210Y153567D01*
X-135529Y152871D01*
X-133711D01*
X-132603Y151955D01*
X-132146Y150853D01*
X-130860Y149567D01*
X-129179Y148871D01*
X-127361D01*
X-125680Y149567D01*
X-124394Y150853D01*
X-123698Y152533D01*
Y154352D01*
X-124394Y156032D01*
X-124975Y156613D01*
X-125588Y157443D01*
X-124975Y158272D01*
X-124394Y158853D01*
X-123698Y160533D01*
Y162352D01*
X-124394Y164032D01*
X-125680Y165319D01*
X-127361Y166015D01*
D02*
G37*
G36*
X-542550Y156745D02*
X-544571D01*
X-546438Y155972D01*
X-547867Y154543D01*
X-548640Y152675D01*
Y150654D01*
X-547867Y148787D01*
X-546438Y147358D01*
X-544571Y146585D01*
X-542550D01*
X-540682Y147358D01*
X-539253Y148787D01*
X-538480Y150654D01*
Y152675D01*
X-539253Y154543D01*
X-540682Y155972D01*
X-542550Y156745D01*
D02*
G37*
G36*
X-430637Y153416D02*
X-432455D01*
X-434136Y152720D01*
X-435422Y151434D01*
X-436118Y149753D01*
Y147935D01*
X-435422Y146254D01*
X-434136Y144968D01*
X-432455Y144272D01*
X-430637D01*
X-428956Y144968D01*
X-427670Y146254D01*
X-426974Y147935D01*
Y149753D01*
X-427670Y151434D01*
X-428956Y152720D01*
X-430637Y153416D01*
D02*
G37*
G36*
X-262388Y154178D02*
X-264408D01*
X-266276Y153405D01*
X-267705Y151976D01*
X-268478Y150108D01*
Y148088D01*
X-267705Y146220D01*
X-266276Y144791D01*
X-264408Y144018D01*
X-262388D01*
X-260520Y144791D01*
X-259091Y146220D01*
X-258318Y148088D01*
Y150108D01*
X-259091Y151976D01*
X-260520Y153405D01*
X-262388Y154178D01*
D02*
G37*
G36*
X-358550Y147638D02*
X-360369D01*
X-362050Y146941D01*
X-363336Y145655D01*
X-364032Y143975D01*
Y142156D01*
X-363336Y140476D01*
X-362050Y139190D01*
X-360369Y138493D01*
X-358550D01*
X-356870Y139190D01*
X-355584Y140476D01*
X-354888Y142156D01*
Y143975D01*
X-355584Y145655D01*
X-356870Y146941D01*
X-358550Y147638D01*
D02*
G37*
G36*
X-388550Y147427D02*
X-390369D01*
X-392050Y146731D01*
X-393336Y145445D01*
X-394032Y143764D01*
Y141946D01*
X-393336Y140265D01*
X-392050Y138979D01*
X-390369Y138283D01*
X-388550D01*
X-386870Y138979D01*
X-385584Y140265D01*
X-384888Y141946D01*
Y143764D01*
X-385584Y145445D01*
X-386870Y146731D01*
X-388550Y147427D01*
D02*
G37*
G36*
X-467620Y137160D02*
X-469641D01*
X-471508Y136387D01*
X-471805Y136089D01*
X-472102Y136387D01*
X-473969Y137160D01*
X-475990D01*
X-477858Y136387D01*
X-479287Y134958D01*
X-480060Y133090D01*
Y131069D01*
X-479287Y129202D01*
X-477858Y127773D01*
X-475990Y127000D01*
X-473969D01*
X-472102Y127773D01*
X-471805Y128071D01*
X-471508Y127773D01*
X-469641Y127000D01*
X-467620D01*
X-465752Y127773D01*
X-464323Y129202D01*
X-463550Y131069D01*
Y133090D01*
X-464323Y134958D01*
X-465752Y136387D01*
X-467620Y137160D01*
D02*
G37*
G36*
X-542550Y145315D02*
X-544570D01*
X-546438Y144542D01*
X-547867Y143112D01*
X-548640Y141245D01*
Y139225D01*
X-547867Y137357D01*
X-546438Y135928D01*
X-544570Y135155D01*
X-542550D01*
X-540682Y135928D01*
X-539253Y137357D01*
X-538480Y139225D01*
Y141245D01*
X-539253Y143112D01*
X-540682Y144542D01*
X-542550Y145315D01*
D02*
G37*
G36*
X-317861Y144272D02*
X-319679D01*
X-321360Y143576D01*
X-322646Y142290D01*
X-323342Y140609D01*
Y138791D01*
X-322646Y137110D01*
X-321360Y135824D01*
X-319679Y135128D01*
X-317861D01*
X-316180Y135824D01*
X-314894Y137110D01*
X-314198Y138791D01*
Y140609D01*
X-314894Y142290D01*
X-316180Y143576D01*
X-317861Y144272D01*
D02*
G37*
G36*
X-42647Y148992D02*
X-44466D01*
X-46146Y148296D01*
X-47432Y147010D01*
X-48128Y145330D01*
Y143511D01*
X-47432Y141830D01*
X-46847Y141245D01*
X-47432Y140660D01*
X-48128Y138980D01*
Y137161D01*
X-47432Y135480D01*
X-46146Y134194D01*
X-44466Y133498D01*
X-42647D01*
X-40966Y134194D01*
X-39680Y135480D01*
X-38984Y137161D01*
Y138980D01*
X-39680Y140660D01*
X-40265Y141245D01*
X-39680Y141830D01*
X-38984Y143511D01*
Y145330D01*
X-39680Y147010D01*
X-40966Y148296D01*
X-42647Y148992D01*
D02*
G37*
G36*
X-190861Y141478D02*
X-192679D01*
X-194360Y140782D01*
X-195646Y139496D01*
X-196342Y137815D01*
Y135997D01*
X-195646Y134316D01*
X-194360Y133030D01*
X-192679Y132334D01*
X-190861D01*
X-189180Y133030D01*
X-187894Y134316D01*
X-187198Y135997D01*
Y137815D01*
X-187894Y139496D01*
X-189180Y140782D01*
X-190861Y141478D01*
D02*
G37*
G36*
X-263251Y140727D02*
X-265069D01*
X-266750Y140031D01*
X-268036Y138745D01*
X-268732Y137064D01*
Y135246D01*
X-268036Y133565D01*
X-266750Y132279D01*
X-265069Y131583D01*
X-263251D01*
X-261570Y132279D01*
X-260284Y133565D01*
X-259588Y135246D01*
Y137064D01*
X-260284Y138745D01*
X-261570Y140031D01*
X-263251Y140727D01*
D02*
G37*
G36*
X-401925Y141585D02*
X-403946D01*
X-405813Y140812D01*
X-407242Y139383D01*
X-408016Y137515D01*
Y135494D01*
X-407242Y133627D01*
X-405813Y132198D01*
X-403946Y131425D01*
X-401925D01*
X-400058Y132198D01*
X-398629Y133627D01*
X-397855Y135494D01*
Y137515D01*
X-398629Y139383D01*
X-400058Y140812D01*
X-401925Y141585D01*
D02*
G37*
G36*
X-427589Y134112D02*
X-429407D01*
X-431088Y133416D01*
X-432374Y132130D01*
X-433070Y130449D01*
Y128631D01*
X-432374Y126950D01*
X-431088Y125664D01*
X-429407Y124968D01*
X-427589D01*
X-425908Y125664D01*
X-424622Y126950D01*
X-423926Y128631D01*
Y130449D01*
X-424622Y132130D01*
X-425908Y133416D01*
X-427589Y134112D01*
D02*
G37*
G36*
X-354691Y131384D02*
X-356509D01*
X-358190Y130688D01*
X-359476Y129402D01*
X-360172Y127721D01*
Y126682D01*
X-360369D01*
X-362050Y125986D01*
X-363189Y124847D01*
X-363666Y124717D01*
X-364682Y124768D01*
X-365710Y125796D01*
X-367391Y126492D01*
X-369209D01*
X-370890Y125796D01*
X-372176Y124510D01*
X-372872Y122829D01*
Y121011D01*
X-372176Y119330D01*
X-370890Y118044D01*
X-369209Y117348D01*
X-367391D01*
X-365710Y118044D01*
X-364571Y119183D01*
X-364094Y119313D01*
X-363078Y119262D01*
X-362050Y118234D01*
X-360369Y117538D01*
X-358550D01*
X-356870Y118234D01*
X-355584Y119520D01*
X-354888Y121201D01*
Y122240D01*
X-354691D01*
X-353010Y122936D01*
X-351724Y124222D01*
X-351028Y125903D01*
Y127721D01*
X-351724Y129402D01*
X-353010Y130688D01*
X-354691Y131384D01*
D02*
G37*
G36*
X-542550Y133885D02*
X-544571D01*
X-546438Y133112D01*
X-547867Y131683D01*
X-548640Y129815D01*
Y127795D01*
X-547867Y125927D01*
X-546438Y124498D01*
X-544571Y123725D01*
X-542550D01*
X-540682Y124498D01*
X-539253Y125927D01*
X-538480Y127795D01*
Y129815D01*
X-539253Y131683D01*
X-540682Y133112D01*
X-542550Y133885D01*
D02*
G37*
G36*
X-314986Y132727D02*
X-316804D01*
X-318485Y132031D01*
X-319771Y130745D01*
X-320467Y129064D01*
Y127246D01*
X-319771Y125565D01*
X-318485Y124279D01*
X-316804Y123583D01*
X-314986D01*
X-313305Y124279D01*
X-312019Y125565D01*
X-311323Y127246D01*
Y129064D01*
X-312019Y130745D01*
X-313305Y132031D01*
X-314986Y132727D01*
D02*
G37*
G36*
X-340721Y147427D02*
X-342539D01*
X-344220Y146731D01*
X-345506Y145445D01*
X-346202Y143764D01*
Y141946D01*
X-345506Y140265D01*
X-344220Y138979D01*
X-343763Y138790D01*
Y137415D01*
X-344220Y137226D01*
X-345506Y135940D01*
X-346202Y134259D01*
Y132441D01*
X-345549Y130864D01*
X-345985Y130428D01*
X-346681Y128747D01*
Y126929D01*
X-345985Y125248D01*
X-344699Y123962D01*
X-343018Y123266D01*
X-341199D01*
X-339519Y123962D01*
X-338233Y125248D01*
X-337537Y126929D01*
Y128747D01*
X-338190Y130324D01*
X-337754Y130760D01*
X-337058Y132441D01*
Y134259D01*
X-337754Y135940D01*
X-339040Y137226D01*
X-339497Y137415D01*
Y138790D01*
X-339040Y138979D01*
X-337754Y140265D01*
X-337058Y141946D01*
Y143764D01*
X-337754Y145445D01*
X-339040Y146731D01*
X-340721Y147427D01*
D02*
G37*
G36*
X-145903Y134366D02*
X-147721D01*
X-149402Y133670D01*
X-150688Y132384D01*
X-151384Y130703D01*
Y128885D01*
X-150688Y127204D01*
X-149402Y125918D01*
X-147721Y125222D01*
X-147320D01*
Y124313D01*
X-146624Y122632D01*
X-145338Y121346D01*
X-143657Y120650D01*
X-141839D01*
X-140158Y121346D01*
X-138872Y122632D01*
X-138176Y124313D01*
Y126131D01*
X-138872Y127812D01*
X-140158Y129098D01*
X-141839Y129794D01*
X-142240D01*
Y130703D01*
X-142936Y132384D01*
X-144222Y133670D01*
X-145903Y134366D01*
D02*
G37*
G36*
X-42647Y129942D02*
X-44466D01*
X-46146Y129246D01*
X-47432Y127960D01*
X-48128Y126280D01*
Y124461D01*
X-47432Y122780D01*
X-46847Y122195D01*
X-47432Y121610D01*
X-48128Y119930D01*
Y118111D01*
X-47432Y116430D01*
X-46146Y115144D01*
X-44466Y114448D01*
X-42647D01*
X-40966Y115144D01*
X-39680Y116430D01*
X-38984Y118111D01*
Y119930D01*
X-39680Y121610D01*
X-40265Y122195D01*
X-39680Y122780D01*
X-38984Y124461D01*
Y126280D01*
X-39680Y127960D01*
X-40966Y129246D01*
X-42647Y129942D01*
D02*
G37*
G36*
X-206017Y124797D02*
X-207836D01*
X-209516Y124101D01*
X-210802Y122815D01*
X-211478Y121185D01*
X-213109Y120509D01*
X-214395Y119223D01*
X-215091Y117543D01*
Y115724D01*
X-214395Y114044D01*
X-213109Y112757D01*
X-211428Y112061D01*
X-209609D01*
X-207929Y112757D01*
X-206643Y114044D01*
X-205967Y115674D01*
X-204337Y116349D01*
X-203051Y117636D01*
X-202355Y119316D01*
Y121135D01*
X-203051Y122815D01*
X-204337Y124101D01*
X-206017Y124797D01*
D02*
G37*
G36*
X-78190Y118015D02*
X-80009D01*
X-81690Y117319D01*
X-82976Y116032D01*
X-83672Y114352D01*
Y112533D01*
X-82976Y110853D01*
X-81690Y109567D01*
X-80009Y108871D01*
X-78190D01*
X-76510Y109567D01*
X-75224Y110853D01*
X-74528Y112533D01*
Y114352D01*
X-75224Y116032D01*
X-76510Y117319D01*
X-78190Y118015D01*
D02*
G37*
G36*
X-309613Y111136D02*
X-311431D01*
X-313112Y110440D01*
X-314398Y109154D01*
X-314575Y108728D01*
X-315739Y109210D01*
X-317557D01*
X-319238Y108514D01*
X-320524Y107227D01*
X-321220Y105547D01*
Y103728D01*
X-320524Y102048D01*
X-319238Y100762D01*
X-317557Y100066D01*
X-315739D01*
X-314058Y100762D01*
X-312772Y102048D01*
X-312595Y102474D01*
X-311431Y101992D01*
X-309613D01*
X-307932Y102688D01*
X-306646Y103974D01*
X-305950Y105655D01*
Y107473D01*
X-306646Y109154D01*
X-307932Y110440D01*
X-309613Y111136D01*
D02*
G37*
G36*
X-291493Y108259D02*
X-293312D01*
X-294943Y107584D01*
X-296574Y108259D01*
X-298392D01*
X-300073Y107563D01*
X-301359Y106277D01*
X-302055Y104597D01*
Y102778D01*
X-301359Y101098D01*
X-300073Y99812D01*
X-298392Y99115D01*
X-296574D01*
X-294943Y99791D01*
X-293312Y99115D01*
X-292765D01*
X-291592Y98699D01*
X-291592Y97942D01*
Y96881D01*
X-290896Y95200D01*
X-289610Y93914D01*
X-287929Y93218D01*
X-286111D01*
X-284430Y93914D01*
X-283870Y94474D01*
X-283310Y93914D01*
X-281629Y93218D01*
X-279811D01*
X-278130Y93914D01*
X-276844Y95200D01*
X-276148Y96881D01*
Y98699D01*
X-276844Y100380D01*
X-278130Y101666D01*
X-279811Y102362D01*
X-281629D01*
X-283310Y101666D01*
X-283870Y101106D01*
X-284430Y101666D01*
X-286111Y102362D01*
X-286658D01*
X-287831Y102778D01*
X-287831Y103535D01*
Y104597D01*
X-288527Y106277D01*
X-289813Y107563D01*
X-291493Y108259D01*
D02*
G37*
G36*
X-400919Y116586D02*
X-402737D01*
X-404418Y115890D01*
X-405704Y114604D01*
X-406400Y112923D01*
Y111105D01*
X-405704Y109424D01*
X-404418Y108138D01*
X-402737Y107442D01*
X-400919D01*
X-399238Y108138D01*
X-397952Y109424D01*
X-397256Y111105D01*
Y112923D01*
X-397952Y114604D01*
X-399238Y115890D01*
X-400919Y116586D01*
D02*
G37*
G36*
X-542651Y112713D02*
X-544469D01*
X-546150Y112016D01*
X-547436Y110730D01*
X-548132Y109050D01*
Y107231D01*
X-547436Y105551D01*
X-546150Y104265D01*
X-544469Y103569D01*
X-542651D01*
X-540970Y104265D01*
X-539684Y105551D01*
X-538988Y107231D01*
Y109050D01*
X-539684Y110730D01*
X-540970Y112016D01*
X-542651Y112713D01*
D02*
G37*
G36*
X-78190Y107442D02*
X-80009D01*
X-81690Y106746D01*
X-82976Y105460D01*
X-83672Y103779D01*
Y101961D01*
X-82976Y100280D01*
X-81690Y98994D01*
X-80009Y98298D01*
X-78190D01*
X-76510Y98994D01*
X-75224Y100280D01*
X-74528Y101961D01*
Y103779D01*
X-75224Y105460D01*
X-76510Y106746D01*
X-78190Y107442D01*
D02*
G37*
G36*
X-210339Y110570D02*
X-212158D01*
X-213838Y109874D01*
X-215124Y108588D01*
X-215800Y106957D01*
X-217430Y106281D01*
X-218716Y104995D01*
X-219412Y103315D01*
Y101496D01*
X-218716Y99816D01*
X-217430Y98530D01*
X-215750Y97834D01*
X-213931D01*
X-212251Y98530D01*
X-210964Y99816D01*
X-210289Y101446D01*
X-208659Y102122D01*
X-207372Y103408D01*
X-206676Y105088D01*
Y106907D01*
X-207372Y108588D01*
X-208659Y109874D01*
X-210339Y110570D01*
D02*
G37*
G36*
X-226869Y109999D02*
X-228688D01*
X-230368Y109303D01*
X-231654Y108017D01*
X-232330Y106387D01*
X-233960Y105711D01*
X-235247Y104425D01*
X-235943Y102745D01*
Y100926D01*
X-235247Y99245D01*
X-233960Y97959D01*
X-232280Y97263D01*
X-230461D01*
X-228781Y97959D01*
X-227495Y99245D01*
X-226819Y100876D01*
X-225189Y101551D01*
X-223903Y102837D01*
X-223207Y104518D01*
Y106337D01*
X-223903Y108017D01*
X-225189Y109303D01*
X-226869Y109999D01*
D02*
G37*
G36*
X-113137Y106015D02*
X-114955D01*
X-116636Y105319D01*
X-117922Y104032D01*
X-118618Y102352D01*
Y100533D01*
X-117922Y98853D01*
X-116636Y97567D01*
X-114955Y96871D01*
X-113137D01*
X-111456Y97567D01*
X-110170Y98853D01*
X-109474Y100533D01*
Y102352D01*
X-110170Y104032D01*
X-111456Y105319D01*
X-113137Y106015D01*
D02*
G37*
G36*
X-265283Y109728D02*
X-267101D01*
X-268782Y109032D01*
X-270068Y107746D01*
X-270764Y106065D01*
Y104247D01*
X-270089Y102616D01*
X-270764Y100985D01*
Y99167D01*
X-270068Y97486D01*
X-268782Y96200D01*
X-267101Y95504D01*
X-265283D01*
X-263602Y96200D01*
X-262316Y97486D01*
X-261620Y99167D01*
Y100985D01*
X-262295Y102616D01*
X-261620Y104247D01*
Y106065D01*
X-262316Y107746D01*
X-263602Y109032D01*
X-265283Y109728D01*
D02*
G37*
G36*
X-42647Y110892D02*
X-44466D01*
X-46146Y110196D01*
X-47432Y108910D01*
X-48128Y107230D01*
Y105411D01*
X-47432Y103730D01*
X-46847Y103145D01*
X-47432Y102560D01*
X-48128Y100880D01*
Y99061D01*
X-47432Y97380D01*
X-46146Y96094D01*
X-44466Y95398D01*
X-42647D01*
X-40966Y96094D01*
X-39680Y97380D01*
X-38984Y99061D01*
Y100880D01*
X-39680Y102560D01*
X-40265Y103145D01*
X-39680Y103730D01*
X-38984Y105411D01*
Y107230D01*
X-39680Y108910D01*
X-40966Y110196D01*
X-42647Y110892D01*
D02*
G37*
G36*
X-427589Y120142D02*
X-429407D01*
X-431088Y119446D01*
X-432374Y118160D01*
X-433070Y116479D01*
Y114661D01*
X-432374Y112980D01*
X-431916Y112522D01*
X-432120Y112318D01*
X-432816Y110637D01*
Y108819D01*
X-432120Y107138D01*
X-432043Y107061D01*
X-432374Y106730D01*
X-433070Y105049D01*
Y103231D01*
X-432374Y101550D01*
X-431916Y101092D01*
X-432374Y100634D01*
X-433070Y98953D01*
Y97135D01*
X-432374Y95454D01*
X-431088Y94168D01*
X-429407Y93472D01*
X-427589D01*
X-425908Y94168D01*
X-424622Y95454D01*
X-423926Y97135D01*
Y98953D01*
X-424622Y100634D01*
X-425080Y101092D01*
X-424622Y101550D01*
X-423926Y103231D01*
Y105049D01*
X-424622Y106730D01*
X-424699Y106807D01*
X-424368Y107138D01*
X-423672Y108819D01*
Y110637D01*
X-424368Y112318D01*
X-424826Y112776D01*
X-424622Y112980D01*
X-423926Y114661D01*
Y116479D01*
X-424622Y118160D01*
X-425908Y119446D01*
X-427589Y120142D01*
D02*
G37*
G36*
X-359771Y101346D02*
X-361589D01*
X-363270Y100650D01*
X-364556Y99364D01*
X-365252Y97683D01*
Y95864D01*
X-364556Y94184D01*
X-363270Y92898D01*
X-361589Y92202D01*
X-359771D01*
X-358090Y92898D01*
X-356804Y94184D01*
X-356108Y95864D01*
Y97683D01*
X-356804Y99364D01*
X-358090Y100650D01*
X-359771Y101346D01*
D02*
G37*
G36*
X-95611Y110015D02*
X-97429D01*
X-99110Y109319D01*
X-100396Y108033D01*
X-101092Y106352D01*
Y106015D01*
X-101239D01*
X-102920Y105319D01*
X-104206Y104032D01*
X-104902Y102352D01*
Y100533D01*
X-104206Y98853D01*
X-102920Y97567D01*
X-101904Y97146D01*
Y95772D01*
X-102920Y95351D01*
X-104206Y94065D01*
X-104902Y92384D01*
Y92156D01*
X-105843Y91834D01*
X-106172Y91810D01*
X-107392Y93030D01*
X-109073Y93726D01*
X-110891D01*
X-112572Y93030D01*
X-113858Y91744D01*
X-114554Y90063D01*
Y88245D01*
X-113858Y86564D01*
X-112572Y85278D01*
X-110891Y84582D01*
X-109073D01*
X-107392Y85278D01*
X-106106Y86564D01*
X-105410Y88245D01*
Y88473D01*
X-104469Y88795D01*
X-104140Y88819D01*
X-102920Y87599D01*
X-101239Y86903D01*
X-99421D01*
X-97740Y87599D01*
X-96454Y88885D01*
X-95758Y90566D01*
Y92384D01*
X-96454Y94065D01*
X-97740Y95351D01*
X-98756Y95772D01*
Y97146D01*
X-97740Y97567D01*
X-96454Y98853D01*
X-95758Y100533D01*
Y100871D01*
X-95611D01*
X-93930Y101567D01*
X-92644Y102853D01*
X-91948Y104533D01*
Y106352D01*
X-92644Y108033D01*
X-93930Y109319D01*
X-95611Y110015D01*
D02*
G37*
G36*
X-252594Y95950D02*
X-254615D01*
X-256482Y95177D01*
X-257911Y93748D01*
X-258685Y91881D01*
Y89860D01*
X-257911Y87993D01*
X-256482Y86564D01*
X-254615Y85790D01*
X-252594D01*
X-250727Y86564D01*
X-249298Y87993D01*
X-248525Y89860D01*
Y91881D01*
X-249298Y93748D01*
X-250727Y95177D01*
X-252594Y95950D01*
D02*
G37*
G36*
X-442220Y86360D02*
X-444240D01*
X-446108Y85587D01*
X-447537Y84158D01*
X-448310Y82290D01*
Y81264D01*
X-449580Y80415D01*
X-449840Y80523D01*
X-451861D01*
X-453728Y79749D01*
X-455157Y78320D01*
X-455930Y76453D01*
Y74432D01*
X-455157Y72565D01*
X-453728Y71136D01*
X-451861Y70363D01*
X-449840D01*
X-447972Y71136D01*
X-446543Y72565D01*
X-445770Y74432D01*
Y75459D01*
X-444500Y76308D01*
X-444240Y76200D01*
X-442220D01*
X-440352Y76973D01*
X-438923Y78402D01*
X-438150Y80269D01*
Y82290D01*
X-438923Y84158D01*
X-440352Y85587D01*
X-442220Y86360D01*
D02*
G37*
G36*
X-266355Y80772D02*
X-268174D01*
X-269855Y80076D01*
X-270163Y79768D01*
X-270471Y80076D01*
X-272151Y80772D01*
X-273970D01*
X-275650Y80076D01*
X-276888Y78838D01*
X-278491Y79502D01*
X-280309D01*
X-281990Y78806D01*
X-282560Y78236D01*
X-283130Y78806D01*
X-284811Y79502D01*
X-286629D01*
X-288310Y78806D01*
X-289596Y77520D01*
X-290292Y75839D01*
Y74021D01*
X-289596Y72340D01*
X-288310Y71054D01*
X-286629Y70358D01*
X-284811D01*
X-283130Y71054D01*
X-282560Y71624D01*
X-281990Y71054D01*
X-280309Y70358D01*
X-278491D01*
X-276810Y71054D01*
X-275572Y72292D01*
X-273970Y71628D01*
X-272151D01*
X-270471Y72324D01*
X-270163Y72632D01*
X-269855Y72324D01*
X-268174Y71628D01*
X-266355D01*
X-264675Y72324D01*
X-263389Y73610D01*
X-262693Y75291D01*
Y77109D01*
X-263389Y78790D01*
X-264675Y80076D01*
X-266355Y80772D01*
D02*
G37*
G36*
X-42647Y92202D02*
X-44466D01*
X-46146Y91506D01*
X-47432Y90220D01*
X-48128Y88539D01*
Y86721D01*
X-47432Y85040D01*
X-46786Y84394D01*
X-47564Y83616D01*
X-48260Y81935D01*
Y80117D01*
X-47564Y78436D01*
X-46278Y77150D01*
X-44597Y76454D01*
X-42779D01*
X-41098Y77150D01*
X-39812Y78436D01*
X-39116Y80117D01*
Y81935D01*
X-39812Y83616D01*
X-40458Y84262D01*
X-39680Y85040D01*
X-38984Y86721D01*
Y88539D01*
X-39680Y90220D01*
X-40966Y91506D01*
X-42647Y92202D01*
D02*
G37*
G36*
X-465588Y84328D02*
X-467608D01*
X-469476Y83555D01*
X-470905Y82126D01*
X-471678Y80259D01*
Y78238D01*
X-470905Y76370D01*
X-469476Y74941D01*
X-467608Y74168D01*
X-465588D01*
X-463720Y74941D01*
X-462291Y76370D01*
X-461518Y78238D01*
Y80259D01*
X-462291Y82126D01*
X-463720Y83555D01*
X-465588Y84328D01*
D02*
G37*
G36*
X-252736Y83384D02*
X-254757D01*
X-256624Y82611D01*
X-258053Y81182D01*
X-258826Y79314D01*
Y77294D01*
X-258053Y75426D01*
X-256624Y73997D01*
X-254757Y73224D01*
X-252736D01*
X-250868Y73997D01*
X-249439Y75426D01*
X-248666Y77294D01*
Y79314D01*
X-249439Y81182D01*
X-250868Y82611D01*
X-252736Y83384D01*
D02*
G37*
G36*
X19705Y81280D02*
X17887D01*
X16206Y80584D01*
X14920Y79298D01*
X14224Y77617D01*
Y75799D01*
X14920Y74118D01*
X16206Y72832D01*
X17887Y72136D01*
X19705D01*
X21386Y72832D01*
X22672Y74118D01*
X23368Y75799D01*
Y77617D01*
X22672Y79298D01*
X21386Y80584D01*
X19705Y81280D01*
D02*
G37*
G36*
X-496139Y92523D02*
X-498160D01*
X-500028Y91749D01*
X-501457Y90320D01*
X-502201Y88523D01*
X-502901D01*
X-504769Y87749D01*
X-506198Y86320D01*
X-506971Y84453D01*
Y82432D01*
X-506198Y80565D01*
X-505075Y79443D01*
X-506198Y78320D01*
X-506971Y76453D01*
Y74432D01*
X-506198Y72565D01*
X-504769Y71136D01*
X-502901Y70363D01*
X-500881D01*
X-499013Y71136D01*
X-497584Y72565D01*
X-496840Y74363D01*
X-496139D01*
X-494272Y75136D01*
X-492843Y76565D01*
X-492070Y78432D01*
Y80453D01*
X-492843Y82320D01*
X-493966Y83443D01*
X-492843Y84565D01*
X-492070Y86432D01*
Y88453D01*
X-492843Y90320D01*
X-494272Y91749D01*
X-496139Y92523D01*
D02*
G37*
G36*
X-3941Y84110D02*
X-5795D01*
X-7585Y83631D01*
X-9191Y82704D01*
X-10501Y81393D01*
X-11428Y79788D01*
X-11908Y77997D01*
Y76143D01*
X-11428Y74353D01*
X-10501Y72748D01*
X-9191Y71437D01*
X-7585Y70510D01*
X-5795Y70030D01*
X-3941D01*
X-2151Y70510D01*
X-545Y71437D01*
X765Y72748D01*
X1692Y74353D01*
X2172Y76143D01*
Y77997D01*
X1692Y79788D01*
X765Y81393D01*
X-545Y82704D01*
X-2151Y83631D01*
X-3941Y84110D01*
D02*
G37*
G36*
X-421810Y80015D02*
X-423629D01*
X-425310Y79319D01*
X-426596Y78032D01*
X-427292Y76352D01*
Y74533D01*
X-426596Y72853D01*
X-425310Y71567D01*
X-423629Y70871D01*
X-421810D01*
X-420130Y71567D01*
X-418844Y72853D01*
X-418803Y72951D01*
X-417429Y72951D01*
X-417057Y72052D01*
X-415628Y70623D01*
X-413760Y69850D01*
X-411740D01*
X-409872Y70623D01*
X-408443Y72052D01*
X-407670Y73920D01*
Y75940D01*
X-408443Y77808D01*
X-409872Y79237D01*
X-411740Y80010D01*
X-413760D01*
X-415628Y79237D01*
X-417057Y77808D01*
X-417216Y77422D01*
X-418591D01*
X-418844Y78032D01*
X-420130Y79319D01*
X-421810Y80015D01*
D02*
G37*
G36*
X-308869Y70612D02*
X-310891D01*
X-312758Y69839D01*
X-312928Y69668D01*
X-313098Y69839D01*
X-314965Y70612D01*
X-316987D01*
X-318854Y69839D01*
X-320283Y68410D01*
X-321056Y66543D01*
Y64521D01*
X-320283Y62654D01*
X-318854Y61225D01*
X-316987Y60452D01*
X-314965D01*
X-313098Y61225D01*
X-312928Y61396D01*
X-312758Y61225D01*
X-310891Y60452D01*
X-308869D01*
X-307002Y61225D01*
X-305573Y62654D01*
X-304800Y64521D01*
Y66543D01*
X-305573Y68410D01*
X-307002Y69839D01*
X-308869Y70612D01*
D02*
G37*
G36*
X-42647Y73623D02*
X-44466D01*
X-46146Y72927D01*
X-47432Y71641D01*
X-48128Y69960D01*
Y68141D01*
X-47432Y66461D01*
X-46146Y65175D01*
X-44466Y64479D01*
X-42647D01*
X-40966Y65175D01*
X-39680Y66461D01*
X-38984Y68141D01*
Y69960D01*
X-39680Y71641D01*
X-40966Y72927D01*
X-42647Y73623D01*
D02*
G37*
G36*
X-355961Y73152D02*
X-357779D01*
X-359460Y72456D01*
X-360746Y71170D01*
X-361442Y69489D01*
Y67671D01*
X-360746Y65990D01*
X-359460Y64704D01*
X-357779Y64008D01*
X-355961D01*
X-354280Y64704D01*
X-352994Y65990D01*
X-352298Y67671D01*
Y69489D01*
X-352994Y71170D01*
X-354280Y72456D01*
X-355961Y73152D01*
D02*
G37*
G36*
X-369821D02*
X-371639D01*
X-373320Y72456D01*
X-374606Y71170D01*
X-375302Y69489D01*
Y67671D01*
X-374606Y65990D01*
X-373320Y64704D01*
X-371639Y64008D01*
X-369821D01*
X-368140Y64704D01*
X-366854Y65990D01*
X-366158Y67671D01*
Y69489D01*
X-366854Y71170D01*
X-368140Y72456D01*
X-369821Y73152D01*
D02*
G37*
G36*
X-402026D02*
X-403845D01*
X-405525Y72456D01*
X-406811Y71170D01*
X-407508Y69489D01*
Y67671D01*
X-406811Y65990D01*
X-405525Y64704D01*
X-403845Y64008D01*
X-402026D01*
X-400346Y64704D01*
X-399060Y65990D01*
X-398363Y67671D01*
Y69489D01*
X-399060Y71170D01*
X-400346Y72456D01*
X-402026Y73152D01*
D02*
G37*
G36*
X-337063D02*
X-339085D01*
X-340952Y72379D01*
X-342381Y70950D01*
X-343154Y69082D01*
Y67062D01*
X-342381Y65194D01*
X-340952Y63765D01*
X-339085Y62992D01*
X-337063D01*
X-335196Y63765D01*
X-333767Y65194D01*
X-332994Y67062D01*
Y69082D01*
X-333767Y70950D01*
X-335196Y72379D01*
X-337063Y73152D01*
D02*
G37*
G36*
X-565401Y65278D02*
X-567219D01*
X-568900Y64582D01*
X-570186Y63296D01*
X-570882Y61615D01*
X-571444Y61240D01*
X-572014Y61476D01*
X-574035D01*
X-575902Y60703D01*
X-577331Y59274D01*
X-578104Y57407D01*
Y55385D01*
X-577331Y53518D01*
X-575902Y52089D01*
X-574035Y51316D01*
X-572014D01*
X-570146Y52089D01*
X-568717Y53518D01*
X-568059Y55107D01*
X-567219Y56134D01*
X-565401D01*
X-563720Y56830D01*
X-562434Y58116D01*
X-561738Y59797D01*
Y61615D01*
X-562434Y63296D01*
X-563720Y64582D01*
X-565401Y65278D01*
D02*
G37*
G36*
X-255631Y57912D02*
X-257449D01*
X-259130Y57216D01*
X-260249Y56097D01*
X-260985Y56003D01*
X-261721Y56097D01*
X-262840Y57216D01*
X-264521Y57912D01*
X-266339D01*
X-268020Y57216D01*
X-269306Y55930D01*
X-270002Y54249D01*
Y52431D01*
X-269306Y50750D01*
X-268020Y49464D01*
X-266339Y48768D01*
X-264521D01*
X-262840Y49464D01*
X-261721Y50583D01*
X-260985Y50677D01*
X-260249Y50583D01*
X-259130Y49464D01*
X-257449Y48768D01*
X-255631D01*
X-253950Y49464D01*
X-253746Y49668D01*
X-253288Y49210D01*
X-251607Y48514D01*
X-249789D01*
X-248108Y49210D01*
X-246822Y50496D01*
X-246126Y52177D01*
Y53995D01*
X-246822Y55676D01*
X-248108Y56962D01*
X-249789Y57658D01*
X-251607D01*
X-253288Y56962D01*
X-253492Y56758D01*
X-253950Y57216D01*
X-255631Y57912D01*
D02*
G37*
G36*
X21229Y63246D02*
X19411D01*
X17730Y62550D01*
X16444Y61264D01*
X15748Y59583D01*
Y57765D01*
X16444Y56084D01*
X17730Y54798D01*
X19411Y54102D01*
X21229D01*
X22910Y54798D01*
X24196Y56084D01*
X24892Y57765D01*
Y59583D01*
X24196Y61264D01*
X22910Y62550D01*
X21229Y63246D01*
D02*
G37*
G36*
X-281031Y51562D02*
X-282849D01*
X-284530Y50866D01*
X-285115Y50281D01*
X-285700Y50866D01*
X-287381Y51562D01*
X-289199D01*
X-290880Y50866D01*
X-291465Y50281D01*
X-292050Y50866D01*
X-293731Y51562D01*
X-295549D01*
X-297230Y50866D01*
X-297815Y50281D01*
X-298400Y50866D01*
X-300081Y51562D01*
X-301899D01*
X-303580Y50866D01*
X-304110Y50336D01*
X-304640Y50866D01*
X-306320Y51562D01*
X-308139D01*
X-309820Y50866D01*
X-310460Y50226D01*
X-311100Y50866D01*
X-312781Y51562D01*
X-314599D01*
X-316280Y50866D01*
X-317566Y49580D01*
X-318262Y47899D01*
Y46081D01*
X-317566Y44400D01*
X-316280Y43114D01*
X-314599Y42418D01*
X-312781D01*
X-311100Y43114D01*
X-310460Y43754D01*
X-309820Y43114D01*
X-308139Y42418D01*
X-306320D01*
X-304640Y43114D01*
X-304110Y43644D01*
X-303580Y43114D01*
X-301899Y42418D01*
X-300081D01*
X-298400Y43114D01*
X-297815Y43699D01*
X-297230Y43114D01*
X-295549Y42418D01*
X-293731D01*
X-292050Y43114D01*
X-291465Y43699D01*
X-290880Y43114D01*
X-289199Y42418D01*
X-287381D01*
X-285700Y43114D01*
X-285115Y43699D01*
X-284530Y43114D01*
X-282849Y42418D01*
X-281031D01*
X-279350Y43114D01*
X-278892Y43572D01*
X-278180Y42860D01*
X-276499Y42164D01*
X-274681D01*
X-273000Y42860D01*
X-271714Y44146D01*
X-271018Y45827D01*
Y47645D01*
X-271714Y49326D01*
X-273000Y50612D01*
X-274681Y51308D01*
X-276499D01*
X-278180Y50612D01*
X-278638Y50154D01*
X-279350Y50866D01*
X-281031Y51562D01*
D02*
G37*
G36*
X-98913Y62555D02*
X-100731D01*
X-102412Y61859D01*
X-103698Y60573D01*
X-104394Y58892D01*
Y57073D01*
X-103719Y55443D01*
X-104394Y53812D01*
Y51993D01*
X-103698Y50313D01*
X-102412Y49027D01*
X-100731Y48331D01*
X-98913D01*
X-97232Y49027D01*
X-95946Y50313D01*
X-95250Y51993D01*
Y53812D01*
X-95925Y55443D01*
X-95250Y57073D01*
Y58892D01*
X-95946Y60573D01*
X-97232Y61859D01*
X-98913Y62555D01*
D02*
G37*
G36*
X-77831Y74555D02*
X-79649D01*
X-81330Y73859D01*
X-82616Y72572D01*
X-83312Y70892D01*
Y69073D01*
X-82637Y67443D01*
X-83312Y65812D01*
Y63993D01*
X-82616Y62313D01*
X-81330Y61027D01*
X-81149Y60952D01*
Y59577D01*
X-81330Y59502D01*
X-82616Y58216D01*
X-83312Y56535D01*
Y54717D01*
X-82616Y53036D01*
X-81330Y51750D01*
X-80706Y51492D01*
Y50117D01*
X-81330Y49859D01*
X-82616Y48573D01*
X-83312Y46892D01*
Y45073D01*
X-82637Y43443D01*
X-83312Y41812D01*
Y39993D01*
X-82616Y38313D01*
X-81330Y37027D01*
X-79649Y36331D01*
X-77831D01*
X-76150Y37027D01*
X-74864Y38313D01*
X-74168Y39993D01*
Y41812D01*
X-74843Y43443D01*
X-74168Y45073D01*
Y46892D01*
X-74864Y48573D01*
X-76150Y49859D01*
X-76774Y50117D01*
Y51492D01*
X-76150Y51750D01*
X-74864Y53036D01*
X-74168Y54717D01*
Y56535D01*
X-74864Y58216D01*
X-76150Y59502D01*
X-76331Y59577D01*
Y60952D01*
X-76150Y61027D01*
X-74864Y62313D01*
X-74168Y63993D01*
Y65812D01*
X-74843Y67443D01*
X-74168Y69073D01*
Y70892D01*
X-74864Y72572D01*
X-76150Y73859D01*
X-77831Y74555D01*
D02*
G37*
G36*
X29103Y40640D02*
X27285D01*
X25604Y39944D01*
X24318Y38658D01*
X23622Y36977D01*
Y35159D01*
X24318Y33478D01*
X25604Y32192D01*
X27285Y31496D01*
X29103D01*
X30784Y32192D01*
X32070Y33478D01*
X32766Y35159D01*
Y36977D01*
X32070Y38658D01*
X30784Y39944D01*
X29103Y40640D01*
D02*
G37*
G36*
X-572014Y36076D02*
X-574035D01*
X-575902Y35303D01*
X-577331Y33874D01*
X-578104Y32006D01*
Y29985D01*
X-577331Y28118D01*
X-575902Y26689D01*
X-574035Y25916D01*
X-572014D01*
X-570146Y26689D01*
X-568717Y28118D01*
X-567944Y29985D01*
Y32006D01*
X-568717Y33874D01*
X-570146Y35303D01*
X-572014Y36076D01*
D02*
G37*
G36*
X-558653Y33782D02*
X-560471D01*
X-562152Y33086D01*
X-563438Y31800D01*
X-564134Y30119D01*
Y28301D01*
X-563438Y26620D01*
X-562152Y25334D01*
X-560471Y24638D01*
X-558653D01*
X-556972Y25334D01*
X-555686Y26620D01*
X-554990Y28301D01*
Y30119D01*
X-555686Y31800D01*
X-556972Y33086D01*
X-558653Y33782D01*
D02*
G37*
G36*
X-527157Y27813D02*
X-528975D01*
X-530656Y27117D01*
X-531942Y25831D01*
X-532638Y24150D01*
Y22332D01*
X-531942Y20651D01*
X-530656Y19365D01*
X-528975Y18669D01*
X-527157D01*
X-525476Y19365D01*
X-524190Y20651D01*
X-523494Y22332D01*
Y24150D01*
X-524190Y25831D01*
X-525476Y27117D01*
X-527157Y27813D01*
D02*
G37*
G36*
X-230739Y26162D02*
X-232557D01*
X-234238Y25466D01*
X-235524Y24180D01*
X-236220Y22499D01*
Y20681D01*
X-235524Y19000D01*
X-234238Y17714D01*
X-232557Y17018D01*
X-230739D01*
X-229058Y17714D01*
X-227772Y19000D01*
X-227076Y20681D01*
Y22499D01*
X-227772Y24180D01*
X-229058Y25466D01*
X-230739Y26162D01*
D02*
G37*
G36*
X-423852Y31984D02*
X-424310D01*
Y15714D01*
X-408040D01*
Y16172D01*
X-408714Y19560D01*
X-410036Y22752D01*
X-411956Y25625D01*
X-414399Y28068D01*
X-417272Y29988D01*
X-420464Y31310D01*
X-423852Y31984D01*
D02*
G37*
G36*
X-426850D02*
X-427308D01*
X-430696Y31310D01*
X-433888Y29988D01*
X-436761Y28068D01*
X-439204Y25625D01*
X-441124Y22752D01*
X-442446Y19560D01*
X-443120Y16172D01*
Y15714D01*
X-426850D01*
Y31984D01*
D02*
G37*
G36*
X-475749Y35814D02*
X-478275D01*
X-480609Y34847D01*
X-482395Y33061D01*
X-483362Y30727D01*
Y28201D01*
X-483367Y28194D01*
X-484117D01*
X-486451Y27227D01*
X-488237Y25441D01*
X-489204Y23107D01*
Y20581D01*
X-488237Y18247D01*
X-486451Y16461D01*
X-484117Y15494D01*
X-481591D01*
X-479257Y16461D01*
X-477471Y18247D01*
X-476504Y20581D01*
Y23107D01*
X-476499Y23114D01*
X-475749D01*
X-473415Y24081D01*
X-471629Y25867D01*
X-470662Y28201D01*
Y30727D01*
X-471629Y33061D01*
X-473415Y34847D01*
X-475749Y35814D01*
D02*
G37*
G36*
X-245371Y27178D02*
X-247897D01*
X-250231Y26211D01*
X-252017Y24425D01*
X-252984Y22091D01*
Y19565D01*
X-252017Y17231D01*
X-250231Y15445D01*
X-247897Y14478D01*
X-245371D01*
X-243037Y15445D01*
X-241251Y17231D01*
X-240284Y19565D01*
Y22091D01*
X-241251Y24425D01*
X-243037Y26211D01*
X-245371Y27178D01*
D02*
G37*
G36*
X-542651Y19812D02*
X-544469D01*
X-546150Y19116D01*
X-547436Y17830D01*
X-548132Y16149D01*
Y14331D01*
X-547537Y12893D01*
X-547741Y12299D01*
X-548886Y12041D01*
X-549203Y12109D01*
X-549860Y12766D01*
X-551541Y13462D01*
X-553359D01*
X-555040Y12766D01*
X-556260Y11546D01*
X-557480Y12766D01*
X-559161Y13462D01*
X-560001D01*
X-561086Y14218D01*
X-561259Y14635D01*
X-561859Y16086D01*
X-563288Y17515D01*
X-565155Y18288D01*
X-567177D01*
X-569044Y17515D01*
X-570473Y16086D01*
X-571246Y14218D01*
Y12198D01*
X-571014Y11637D01*
X-571986Y10664D01*
X-572014Y10676D01*
X-574035D01*
X-575902Y9903D01*
X-577331Y8474D01*
X-578104Y6607D01*
Y4586D01*
X-577331Y2718D01*
X-575902Y1289D01*
X-574035Y516D01*
X-572014D01*
X-570146Y1289D01*
X-568717Y2718D01*
X-567944Y4586D01*
Y6607D01*
X-568176Y7168D01*
X-567204Y8140D01*
X-567177Y8128D01*
X-565155D01*
X-564975Y8203D01*
X-564642Y7981D01*
X-563946Y6300D01*
X-562660Y5014D01*
X-560979Y4318D01*
X-559161D01*
X-557480Y5014D01*
X-556260Y6234D01*
X-555040Y5014D01*
X-553359Y4318D01*
X-551541D01*
X-549860Y5014D01*
X-548741Y6133D01*
X-548005Y6227D01*
X-547269Y6133D01*
X-546150Y5014D01*
X-544469Y4318D01*
X-542651D01*
X-540970Y5014D01*
X-539684Y6300D01*
X-538988Y7981D01*
Y9799D01*
X-539684Y11480D01*
X-540269Y12065D01*
X-539684Y12650D01*
X-538988Y14331D01*
Y16149D01*
X-539684Y17830D01*
X-540970Y19116D01*
X-542651Y19812D01*
D02*
G37*
G36*
X-230739Y14986D02*
X-232557D01*
X-234238Y14290D01*
X-235524Y13004D01*
X-236220Y11323D01*
Y9505D01*
X-235524Y7824D01*
X-234238Y6538D01*
X-232557Y5842D01*
X-230739D01*
X-229058Y6538D01*
X-227772Y7824D01*
X-227076Y9505D01*
Y11323D01*
X-227772Y13004D01*
X-229058Y14290D01*
X-230739Y14986D01*
D02*
G37*
G36*
X-462895Y8636D02*
X-464713D01*
X-466394Y7940D01*
X-467680Y6654D01*
X-468376Y4973D01*
Y3155D01*
X-467680Y1474D01*
X-466394Y188D01*
X-464713Y-508D01*
X-462895D01*
X-461214Y188D01*
X-459928Y1474D01*
X-459232Y3155D01*
Y4973D01*
X-459928Y6654D01*
X-461214Y7940D01*
X-462895Y8636D01*
D02*
G37*
G36*
X-528701Y11684D02*
X-531227D01*
X-533561Y10717D01*
X-535347Y8931D01*
X-536314Y6597D01*
Y4071D01*
X-535347Y1737D01*
X-533561Y-49D01*
X-531227Y-1016D01*
X-528701D01*
X-526367Y-49D01*
X-524581Y1737D01*
X-523614Y4071D01*
Y6597D01*
X-524581Y8931D01*
X-526367Y10717D01*
X-528701Y11684D01*
D02*
G37*
G36*
X-269601Y7112D02*
X-271419D01*
X-273100Y6416D01*
X-274386Y5130D01*
X-275082Y3449D01*
Y1631D01*
X-274386Y-50D01*
X-273100Y-1336D01*
X-271419Y-2032D01*
X-269601D01*
X-267920Y-1336D01*
X-266634Y-50D01*
X-265938Y1631D01*
Y3449D01*
X-266634Y5130D01*
X-267920Y6416D01*
X-269601Y7112D01*
D02*
G37*
G36*
X-408040Y13174D02*
X-424310D01*
Y-3096D01*
X-423852D01*
X-420464Y-2422D01*
X-417272Y-1100D01*
X-414399Y820D01*
X-411956Y3263D01*
X-410036Y6136D01*
X-408714Y9328D01*
X-408040Y12717D01*
Y13174D01*
D02*
G37*
G36*
X-426850D02*
X-443120D01*
Y12717D01*
X-442446Y9328D01*
X-441124Y6136D01*
X-439204Y3263D01*
X-436761Y820D01*
X-433888Y-1100D01*
X-430696Y-2422D01*
X-427308Y-3096D01*
X-426850D01*
Y13174D01*
D02*
G37*
G36*
X-81387Y-3048D02*
X-83205D01*
X-84886Y-3744D01*
X-85471Y-4329D01*
X-86056Y-3744D01*
X-87737Y-3048D01*
X-89555D01*
X-91236Y-3744D01*
X-91567Y-4075D01*
X-91898Y-3744D01*
X-93579Y-3048D01*
X-95397D01*
X-97078Y-3744D01*
X-98364Y-5030D01*
X-99060Y-6711D01*
Y-8529D01*
X-98364Y-10210D01*
X-97078Y-11496D01*
X-95397Y-12192D01*
X-93579D01*
X-91898Y-11496D01*
X-91567Y-11165D01*
X-91236Y-11496D01*
X-89555Y-12192D01*
X-87737D01*
X-86056Y-11496D01*
X-85471Y-10911D01*
X-84886Y-11496D01*
X-83205Y-12192D01*
X-81387D01*
X-79706Y-11496D01*
X-78420Y-10210D01*
X-77724Y-8529D01*
Y-6711D01*
X-78420Y-5030D01*
X-79706Y-3744D01*
X-81387Y-3048D01*
D02*
G37*
G36*
X-494391Y10922D02*
X-496209D01*
X-497890Y10226D01*
X-499176Y8940D01*
X-499872Y7259D01*
Y5441D01*
X-499176Y3760D01*
X-498591Y3175D01*
X-499176Y2590D01*
X-499872Y909D01*
Y-909D01*
X-499176Y-2590D01*
X-497890Y-3876D01*
X-496209Y-4572D01*
X-494391D01*
X-492710Y-3876D01*
X-491424Y-2590D01*
X-490728Y-909D01*
Y909D01*
X-491424Y2590D01*
X-492009Y3175D01*
X-491424Y3760D01*
X-490728Y5441D01*
Y7259D01*
X-491424Y8940D01*
X-492710Y10226D01*
X-494391Y10922D01*
D02*
G37*
G36*
X-354590Y-2697D02*
X-356610D01*
X-358478Y-3470D01*
X-359690Y-4683D01*
X-360353Y-4835D01*
X-361204Y-4713D01*
X-362374Y-3542D01*
X-364241Y-2769D01*
X-366263D01*
X-368130Y-3542D01*
X-369559Y-4971D01*
X-370332Y-6838D01*
Y-8859D01*
X-369559Y-10727D01*
X-368130Y-12156D01*
X-366263Y-12929D01*
X-364241D01*
X-362374Y-12156D01*
X-361162Y-10943D01*
X-360499Y-10791D01*
X-359648Y-10913D01*
X-358478Y-12084D01*
X-356610Y-12857D01*
X-354590D01*
X-352722Y-12084D01*
X-351915Y-11276D01*
X-351006Y-10826D01*
X-350255Y-11276D01*
X-349376Y-12156D01*
X-347509Y-12929D01*
X-345488D01*
X-343620Y-12156D01*
X-342191Y-10727D01*
X-341418Y-8859D01*
Y-6838D01*
X-342191Y-4971D01*
X-343620Y-3542D01*
X-345488Y-2769D01*
X-347509D01*
X-349376Y-3542D01*
X-350183Y-4350D01*
X-351092Y-4800D01*
X-351843Y-4350D01*
X-352722Y-3470D01*
X-354590Y-2697D01*
D02*
G37*
G36*
X-44811Y-2794D02*
X-46629D01*
X-48310Y-3490D01*
X-49596Y-4776D01*
X-50292Y-6457D01*
Y-8275D01*
X-49596Y-9956D01*
X-48310Y-11242D01*
X-46629Y-11938D01*
X-44811D01*
X-43130Y-11242D01*
X-41844Y-9956D01*
X-41148Y-8275D01*
Y-6457D01*
X-41844Y-4776D01*
X-43130Y-3490D01*
X-44811Y-2794D01*
D02*
G37*
%LPD*%
D116*
X-497224Y251314D02*
D03*
X-62738Y-7112D02*
D03*
X-73914Y50800D02*
D03*
X-457750Y279500D02*
D03*
X-466750Y290000D02*
D03*
X-287250Y295000D02*
D03*
X-447294Y286766D02*
D03*
X-165354Y159512D02*
D03*
X-189992Y110744D02*
D03*
X-185674Y106680D02*
D03*
X-399940Y149098D02*
D03*
X-413220Y160020D02*
D03*
X-48122Y270256D02*
D03*
X-281940Y228600D02*
D03*
X-95568Y61468D02*
D03*
X-277622Y268732D02*
D03*
X34036Y163470D02*
D03*
Y144272D02*
D03*
X-483613Y167443D02*
D03*
X-483627Y155443D02*
D03*
X-452827Y163443D02*
D03*
X-452625Y175443D02*
D03*
Y187443D02*
D03*
X-452827Y199443D02*
D03*
Y211443D02*
D03*
Y223443D02*
D03*
X-496333Y203443D02*
D03*
Y219443D02*
D03*
Y227443D02*
D03*
X-508254Y241300D02*
D03*
X-482600Y263443D02*
D03*
X-371582Y142006D02*
D03*
X-384460Y144272D02*
D03*
X-374540Y170287D02*
D03*
X-428498Y136505D02*
D03*
Y122110D02*
D03*
X-374396Y97536D02*
D03*
X-515620Y197225D02*
D03*
Y182225D02*
D03*
X-394970Y97562D02*
D03*
X-388366Y126310D02*
D03*
X-341630Y117110D02*
D03*
X-299047Y97790D02*
D03*
X-293370D02*
D03*
X-224790Y125155D02*
D03*
X-238760Y99060D02*
D03*
X-43556Y150770D02*
D03*
Y131720D02*
D03*
Y169820D02*
D03*
Y93620D02*
D03*
Y112670D02*
D03*
X-204724Y5842D02*
D03*
X-114046Y93472D02*
D03*
X-126348Y177443D02*
D03*
Y185443D02*
D03*
X-43556Y74930D02*
D03*
X-248122Y282194D02*
D03*
X-436954Y289535D02*
D03*
X-427879Y279121D02*
D03*
X-508954Y289757D02*
D03*
X-484954D02*
D03*
X-487879Y281551D02*
D03*
X-475879D02*
D03*
X-230124Y95887D02*
D03*
X-221488Y103718D02*
D03*
X-204470Y105031D02*
D03*
X-216662Y117348D02*
D03*
X-207772Y125859D02*
D03*
X-213868Y96395D02*
D03*
X-250952Y166370D02*
D03*
X-259334Y198882D02*
D03*
X-308610Y175514D02*
D03*
X-466344Y237490D02*
D03*
X-217558Y162712D02*
D03*
X-207558D02*
D03*
X-95631Y49468D02*
D03*
X-82782Y37338D02*
D03*
X-278122Y284847D02*
D03*
X-69197Y307783D02*
D03*
X-328930Y307885D02*
D03*
X-334010D02*
D03*
X-439879Y279121D02*
D03*
X-114112Y149443D02*
D03*
Y133443D02*
D03*
Y121443D02*
D03*
Y85443D02*
D03*
Y73443D02*
D03*
X-83312Y49443D02*
D03*
X-114112Y37443D02*
D03*
Y49443D02*
D03*
Y61443D02*
D03*
X-83312D02*
D03*
Y73443D02*
D03*
Y85443D02*
D03*
Y97443D02*
D03*
Y121443D02*
D03*
Y141443D02*
D03*
Y177443D02*
D03*
Y185443D02*
D03*
X-126348Y197443D02*
D03*
Y209443D02*
D03*
Y221443D02*
D03*
Y233443D02*
D03*
X-83312Y197443D02*
D03*
Y209443D02*
D03*
Y221443D02*
D03*
Y233443D02*
D03*
X-87122Y295148D02*
D03*
X-260122Y282194D02*
D03*
X-257197Y294386D02*
D03*
X-305197Y292608D02*
D03*
X-296122Y284539D02*
D03*
X-308122Y284847D02*
D03*
X-135197Y292608D02*
D03*
X-108122Y284847D02*
D03*
X-96122Y284539D02*
D03*
X-129197Y292608D02*
D03*
X-105197D02*
D03*
X-57197Y294386D02*
D03*
X-60122Y282194D02*
D03*
X-78232Y284734D02*
D03*
X-60198Y270256D02*
D03*
X-511780Y39985D02*
D03*
X-521780D02*
D03*
X-295720Y125155D02*
D03*
X-285720D02*
D03*
X-295720Y135155D02*
D03*
X-285720D02*
D03*
D117*
X-204580Y256444D02*
D03*
X-163080D02*
D03*
X-183830Y235694D02*
D03*
Y277194D02*
D03*
X-177800Y-13650D02*
D03*
X-174244Y-7874D02*
D03*
X-466852Y93472D02*
D03*
X-469305Y-12835D02*
D03*
X-139700Y-9332D02*
D03*
X-34290Y8890D02*
D03*
X-249166Y83130D02*
D03*
X-183388Y133858D02*
D03*
X-203200Y142748D02*
D03*
X-443230Y67443D02*
D03*
X-296122Y241915D02*
D03*
X-226568Y143256D02*
D03*
X-364744Y273812D02*
D03*
X-5842Y306578D02*
D03*
X-555244Y86614D02*
D03*
X-74168Y242316D02*
D03*
X-246570Y204216D02*
D03*
X-264922Y205232D02*
D03*
X-346202Y187198D02*
D03*
X-359918Y208788D02*
D03*
X-360680Y230915D02*
D03*
X-342646Y171196D02*
D03*
X-575848Y202946D02*
D03*
Y183134D02*
D03*
X-544830Y177800D02*
D03*
X-537210Y183443D02*
D03*
X-558800Y284480D02*
D03*
X-542798Y313690D02*
D03*
X-468630Y143443D02*
D03*
X-481152Y141986D02*
D03*
X-469900Y119443D02*
D03*
X-440690Y131233D02*
D03*
X-440690Y138430D02*
D03*
X-474980Y115570D02*
D03*
X-482790Y88900D02*
D03*
X-482600Y97790D02*
D03*
X-450850Y67443D02*
D03*
X-466598D02*
D03*
X-489980Y62230D02*
D03*
X-497150Y71120D02*
D03*
X-514280Y23241D02*
D03*
X-520700D02*
D03*
X-551180Y23475D02*
D03*
X-556768Y61468D02*
D03*
Y47244D02*
D03*
X-544068Y1016D02*
D03*
X-572770Y13208D02*
D03*
X-296926Y68072D02*
D03*
X-328930Y68580D02*
D03*
X-341630Y155555D02*
D03*
X-335114Y46085D02*
D03*
X-355434D02*
D03*
X-375754D02*
D03*
X-354330Y274320D02*
D03*
X-255270Y253390D02*
D03*
X-242570D02*
D03*
X-582930Y273304D02*
D03*
X-457962Y333650D02*
D03*
X-542798Y329184D02*
D03*
X-487680Y333650D02*
D03*
X-481220D02*
D03*
X-468630D02*
D03*
X-436880D02*
D03*
X-449580D02*
D03*
X-442953Y261545D02*
D03*
X-407670D02*
D03*
X-566420Y137365D02*
D03*
X-520446Y94515D02*
D03*
Y105945D02*
D03*
Y117375D02*
D03*
Y128805D02*
D03*
Y140235D02*
D03*
Y151665D02*
D03*
X-566420Y114505D02*
D03*
Y125935D02*
D03*
X-209804Y146383D02*
D03*
X-238506Y152400D02*
D03*
X-216916Y146383D02*
D03*
X-242316Y183642D02*
D03*
X-128270Y323770D02*
D03*
X-340360Y326390D02*
D03*
X-276860Y314706D02*
D03*
X-211290Y306324D02*
D03*
Y320802D02*
D03*
X-176530Y313797D02*
D03*
X-162560Y314270D02*
D03*
X27178Y241845D02*
D03*
X-71438Y321310D02*
D03*
X-82550Y242316D02*
D03*
X19617Y291084D02*
D03*
X1524Y276170D02*
D03*
Y285678D02*
D03*
X-5588Y313805D02*
D03*
X-425580Y35194D02*
D03*
Y-6306D02*
D03*
X-404830Y14444D02*
D03*
X-446330D02*
D03*
D118*
X-273304Y-8128D02*
D03*
X9906Y55118D02*
D03*
X-488188Y48260D02*
D03*
X-499618D02*
D03*
X10668Y220658D02*
D03*
X-283210Y2540D02*
D03*
X-334010D02*
D03*
X-306070D02*
D03*
X-294640D02*
D03*
X-225298Y87630D02*
D03*
X-158730Y70358D02*
D03*
X-158496Y83058D02*
D03*
X-148336Y76454D02*
D03*
D128*
X-183830Y256444D02*
D03*
X-425580Y14444D02*
D03*
M02*
