G04*
G04 #@! TF.GenerationSoftware,Altium Limited,Altium Designer,23.3.1 (30)*
G04*
G04 Layer_Color=16711935*
%FSLAX44Y44*%
%MOMM*%
G71*
G04*
G04 #@! TF.SameCoordinates,D45B20F3-F38D-42A2-87FA-560754FB767C*
G04*
G04*
G04 #@! TF.FilePolarity,Negative*
G04*
G01*
G75*
%ADD10C,0.2032*%
%ADD55R,0.7216X0.7216*%
%ADD59R,1.3016X1.1016*%
%ADD67R,0.6516X0.7516*%
%ADD68R,0.7516X0.6516*%
%ADD69R,1.1016X1.0016*%
%ADD70C,0.8516*%
%ADD71R,0.6516X0.5516*%
%ADD73R,0.7216X0.7216*%
%ADD74R,1.6016X1.4016*%
%ADD75R,0.5516X0.6516*%
%ADD77C,2.0000*%
%ADD87R,2.7016X1.0516*%
%ADD88R,1.0016X1.1016*%
%ADD91C,1.0524*%
%ADD92C,0.8524*%
%ADD93C,5.4000*%
%ADD95C,4.2032*%
%ADD96C,3.4032*%
%ADD97C,0.6080*%
%ADD136R,3.4000X1.8500*%
%ADD154R,0.6725X0.7154*%
%ADD162R,2.6524X0.5024*%
%ADD163R,2.1524X2.6524*%
%ADD164R,0.8016X0.2816*%
G04:AMPARAMS|DCode=165|XSize=0.6516mm|YSize=1.6016mm|CornerRadius=0.1883mm|HoleSize=0mm|Usage=FLASHONLY|Rotation=180.000|XOffset=0mm|YOffset=0mm|HoleType=Round|Shape=RoundedRectangle|*
%AMROUNDEDRECTD165*
21,1,0.6516,1.2250,0,0,180.0*
21,1,0.2750,1.6016,0,0,180.0*
1,1,0.3766,-0.1375,0.6125*
1,1,0.3766,0.1375,0.6125*
1,1,0.3766,0.1375,-0.6125*
1,1,0.3766,-0.1375,-0.6125*
%
%ADD165ROUNDEDRECTD165*%
%ADD166R,0.4016X1.0516*%
%ADD167R,0.4016X0.8116*%
%ADD168R,0.5000X1.0000*%
%ADD169R,0.9016X0.7016*%
%ADD170R,1.7400X1.0400*%
%ADD171R,0.4200X0.6400*%
%ADD172R,0.9016X0.9016*%
%ADD173R,0.9016X2.1016*%
%ADD174R,1.1016X1.1016*%
%ADD175R,0.4066X1.5066*%
%ADD176R,1.4016X1.6016*%
%ADD177R,1.0000X0.5000*%
%ADD178R,0.6516X0.7016*%
%ADD179R,0.6216X0.6216*%
%ADD180R,0.6216X0.6216*%
%ADD181R,2.1016X1.1016*%
%ADD182O,0.8524X0.3524*%
%ADD183R,2.8524X2.8524*%
%ADD184O,0.3524X0.8524*%
%ADD185R,0.7516X1.2016*%
%ADD186R,1.4016X0.9516*%
%ADD187R,0.6516X0.6516*%
%ADD188R,1.3516X2.4016*%
%ADD189R,2.7516X1.2016*%
%ADD190R,2.0516X1.7016*%
G36*
X-326760Y186466D02*
X-326665Y186437D01*
X-326576Y186389D01*
X-326499Y186326D01*
X-326436Y186249D01*
X-326388Y186160D01*
X-326359Y186065D01*
X-326349Y185965D01*
Y170465D01*
X-326359Y170365D01*
X-326388Y170270D01*
X-326436Y170181D01*
X-326499Y170104D01*
X-326576Y170041D01*
X-326665Y169993D01*
X-326760Y169964D01*
X-326860Y169954D01*
X-335860D01*
X-335960Y169964D01*
X-336055Y169993D01*
X-336143Y170041D01*
X-336221Y170104D01*
X-336284Y170181D01*
X-336331Y170270D01*
X-336361Y170365D01*
X-336370Y170465D01*
Y185965D01*
X-336361Y186065D01*
X-336331Y186160D01*
X-336284Y186249D01*
X-336221Y186326D01*
X-336143Y186389D01*
X-336055Y186437D01*
X-335960Y186466D01*
X-335860Y186475D01*
X-326860D01*
X-326760Y186466D01*
D02*
G37*
G36*
Y225466D02*
X-326665Y225437D01*
X-326576Y225389D01*
X-326499Y225326D01*
X-326436Y225249D01*
X-326388Y225160D01*
X-326359Y225065D01*
X-326349Y224965D01*
Y208965D01*
X-326359Y208865D01*
X-326388Y208770D01*
X-326436Y208681D01*
X-326499Y208604D01*
X-326576Y208541D01*
X-326665Y208493D01*
X-326760Y208464D01*
X-326860Y208454D01*
X-335860D01*
X-335960Y208464D01*
X-336055Y208493D01*
X-336143Y208541D01*
X-336221Y208604D01*
X-336284Y208681D01*
X-336331Y208770D01*
X-336361Y208865D01*
X-336370Y208965D01*
Y224965D01*
X-336361Y225065D01*
X-336331Y225160D01*
X-336284Y225249D01*
X-336221Y225326D01*
X-336143Y225389D01*
X-336055Y225437D01*
X-335960Y225466D01*
X-335860Y225475D01*
X-326860D01*
X-326760Y225466D01*
D02*
G37*
D10*
X-570000Y290000D02*
D03*
X-10000Y30000D02*
D03*
D55*
X-189738Y124714D02*
D03*
X-180738D02*
D03*
X-246454Y152400D02*
D03*
X-255455D02*
D03*
X-334590Y155555D02*
D03*
X-325590D02*
D03*
X-245690Y105410D02*
D03*
X-254690D02*
D03*
X-257700Y166370D02*
D03*
X-266700D02*
D03*
X-301570Y207625D02*
D03*
X-292570D02*
D03*
X-325590Y104755D02*
D03*
X-334590D02*
D03*
X-325590Y118725D02*
D03*
X-334590D02*
D03*
X-542870Y320655D02*
D03*
X-533870D02*
D03*
D59*
X-292870Y193805D02*
D03*
X-275870Y180805D02*
D03*
X-292870D02*
D03*
X-275870Y193805D02*
D03*
X-317450Y10385D02*
D03*
Y-6615D02*
D03*
X-261450Y10385D02*
D03*
Y-6615D02*
D03*
X-519888Y12925D02*
D03*
Y-4075D02*
D03*
X-463888Y12925D02*
D03*
Y-4075D02*
D03*
X-242520Y10385D02*
D03*
Y-6615D02*
D03*
X-186520Y10385D02*
D03*
Y-6615D02*
D03*
D67*
X-144112Y167386D02*
D03*
X-134112D02*
D03*
X-527507Y128805D02*
D03*
X-537507D02*
D03*
X-537507Y140235D02*
D03*
X-527507D02*
D03*
X-335090Y131425D02*
D03*
X-325090D02*
D03*
X-335090Y142855D02*
D03*
X-325090D02*
D03*
X-504393Y117375D02*
D03*
X-514393D02*
D03*
X-504393Y105945D02*
D03*
X-514393D02*
D03*
X-537507Y151665D02*
D03*
X-527507D02*
D03*
X-504393Y128805D02*
D03*
X-514393D02*
D03*
X-537507Y105945D02*
D03*
X-527507D02*
D03*
X-504393Y151665D02*
D03*
X-514393D02*
D03*
X-504393Y94515D02*
D03*
X-514393D02*
D03*
X-537507Y117375D02*
D03*
X-527507D02*
D03*
X-504393Y140235D02*
D03*
X-514393D02*
D03*
X-537507Y94515D02*
D03*
X-527507D02*
D03*
X-115490Y275844D02*
D03*
X-105490D02*
D03*
X-313122Y273050D02*
D03*
X-303122D02*
D03*
X-440356Y191008D02*
D03*
X-430356D02*
D03*
D68*
X-535830Y33635D02*
D03*
Y43635D02*
D03*
X-365650Y160555D02*
D03*
Y150555D02*
D03*
X-287020Y82745D02*
D03*
Y92745D02*
D03*
X-307230Y84355D02*
D03*
Y74355D02*
D03*
X-318660Y84355D02*
D03*
Y74355D02*
D03*
X-531047Y171905D02*
D03*
Y161905D02*
D03*
D69*
X-224790Y211710D02*
D03*
Y227710D02*
D03*
D70*
X-500407Y297180D02*
D03*
X-581152Y72898D02*
D03*
D71*
X-111760Y-6460D02*
D03*
Y2540D02*
D03*
X-120650Y2540D02*
D03*
Y-6460D02*
D03*
X-502920Y223592D02*
D03*
Y232592D02*
D03*
X14986Y260968D02*
D03*
Y251968D02*
D03*
X-502810Y162485D02*
D03*
Y171485D02*
D03*
X-566310Y45645D02*
D03*
Y54645D02*
D03*
Y20245D02*
D03*
Y29245D02*
D03*
Y-5155D02*
D03*
Y3845D02*
D03*
X-297070Y83855D02*
D03*
Y74855D02*
D03*
X-328820Y83855D02*
D03*
Y74855D02*
D03*
X-230124Y171632D02*
D03*
Y162632D02*
D03*
X-520887Y162405D02*
D03*
Y171405D02*
D03*
X-511997Y171405D02*
D03*
Y162405D02*
D03*
X-541207Y171405D02*
D03*
Y162405D02*
D03*
X-502810Y194345D02*
D03*
Y185345D02*
D03*
D73*
X-353568Y239915D02*
D03*
Y230915D02*
D03*
X-353568Y217860D02*
D03*
Y208860D02*
D03*
X-242570Y269930D02*
D03*
Y260930D02*
D03*
X-255270D02*
D03*
Y269930D02*
D03*
X-414110Y261545D02*
D03*
Y270545D02*
D03*
X-425340Y261545D02*
D03*
Y270545D02*
D03*
X-435610Y261545D02*
D03*
Y270545D02*
D03*
X-488188Y30552D02*
D03*
Y39552D02*
D03*
X-274320Y82745D02*
D03*
Y91745D02*
D03*
X-260350Y92130D02*
D03*
Y83130D02*
D03*
X-352552Y187305D02*
D03*
Y196305D02*
D03*
X-258970Y191805D02*
D03*
Y182805D02*
D03*
X-308500Y182805D02*
D03*
Y191805D02*
D03*
X-184150Y141296D02*
D03*
Y150296D02*
D03*
X-544830Y183460D02*
D03*
Y192460D02*
D03*
X-394970Y112450D02*
D03*
Y103450D02*
D03*
Y126310D02*
D03*
Y135310D02*
D03*
X-337710Y237415D02*
D03*
Y246415D02*
D03*
X-283100Y237415D02*
D03*
Y246415D02*
D03*
X-69850Y250770D02*
D03*
Y259770D02*
D03*
X-82550D02*
D03*
Y250770D02*
D03*
D74*
X-224790Y272390D02*
D03*
Y253390D02*
D03*
D75*
X-505642Y273050D02*
D03*
X-496642D02*
D03*
X-442650Y116586D02*
D03*
X-433650D02*
D03*
X-142820Y149205D02*
D03*
X-133820D02*
D03*
X22788Y30480D02*
D03*
X13788D02*
D03*
X-133820Y140315D02*
D03*
X-142820D02*
D03*
X-433880Y124775D02*
D03*
X-442880D02*
D03*
X-433650Y108458D02*
D03*
X-442650D02*
D03*
X-544140Y23475D02*
D03*
X-535140D02*
D03*
X-559867Y94515D02*
D03*
X-550867D02*
D03*
X-559490Y117375D02*
D03*
X-550490D02*
D03*
X-559490Y149860D02*
D03*
X-550490D02*
D03*
X-279870Y169525D02*
D03*
X-288870D02*
D03*
D77*
X19617Y327152D02*
D03*
X-579882Y121412D02*
D03*
D87*
X-478680Y299035D02*
D03*
Y327035D02*
D03*
X-449470Y299035D02*
D03*
Y327035D02*
D03*
D88*
X-289070Y221595D02*
D03*
X-305070D02*
D03*
X-552974Y-8021D02*
D03*
X-536974D02*
D03*
X-549784Y73152D02*
D03*
X-565784D02*
D03*
X-561468Y193335D02*
D03*
X-577468D02*
D03*
X-526560Y288905D02*
D03*
X-542560D02*
D03*
X-526560Y305415D02*
D03*
X-542560D02*
D03*
X-268122Y237415D02*
D03*
X-252122D02*
D03*
D91*
X-4868Y77070D02*
D03*
D92*
Y199070D02*
D03*
D93*
X-183830Y256444D02*
D03*
X-425580Y14444D02*
D03*
D95*
X-570000Y320000D02*
D03*
X0Y0D02*
D03*
D96*
X-374540Y191115D02*
D03*
X-181500D02*
D03*
D97*
X-204580Y256444D02*
D03*
X-163080D02*
D03*
X-183830Y235694D02*
D03*
Y277194D02*
D03*
X-425580Y35194D02*
D03*
Y-6306D02*
D03*
X-404830Y14444D02*
D03*
X-446330D02*
D03*
D136*
X-550308Y213911D02*
D03*
Y269411D02*
D03*
D154*
X-552637Y160849D02*
D03*
Y170421D02*
D03*
D162*
X-28368Y93620D02*
D03*
Y99970D02*
D03*
Y106320D02*
D03*
Y112670D02*
D03*
Y119020D02*
D03*
Y125370D02*
D03*
Y131720D02*
D03*
Y138070D02*
D03*
Y144420D02*
D03*
Y150770D02*
D03*
Y157120D02*
D03*
Y163470D02*
D03*
Y169820D02*
D03*
Y176170D02*
D03*
Y182520D02*
D03*
X18632Y93620D02*
D03*
Y99970D02*
D03*
Y106320D02*
D03*
Y112670D02*
D03*
Y119020D02*
D03*
Y125370D02*
D03*
Y131720D02*
D03*
Y138070D02*
D03*
Y144420D02*
D03*
Y150770D02*
D03*
Y157120D02*
D03*
Y163470D02*
D03*
Y169820D02*
D03*
Y176170D02*
D03*
Y182520D02*
D03*
D163*
X-4868Y56570D02*
D03*
Y219570D02*
D03*
D164*
X-89430Y37443D02*
D03*
X-120230D02*
D03*
X-89430Y41443D02*
D03*
X-120230D02*
D03*
X-89430Y45443D02*
D03*
X-120230D02*
D03*
X-89430Y49443D02*
D03*
X-120230D02*
D03*
X-89430Y53443D02*
D03*
X-120230D02*
D03*
X-89430Y57443D02*
D03*
X-120230D02*
D03*
X-89430Y61443D02*
D03*
X-120230D02*
D03*
X-89430Y65443D02*
D03*
X-120230D02*
D03*
X-89430Y69443D02*
D03*
X-120230D02*
D03*
X-89430Y73443D02*
D03*
X-120230D02*
D03*
X-89430Y77443D02*
D03*
X-120230D02*
D03*
X-89430Y81443D02*
D03*
X-120230D02*
D03*
Y85443D02*
D03*
X-89430D02*
D03*
Y89443D02*
D03*
X-120230D02*
D03*
X-89430Y93443D02*
D03*
X-120230D02*
D03*
X-89430Y97443D02*
D03*
X-120230D02*
D03*
X-89430Y101443D02*
D03*
X-120230D02*
D03*
Y105443D02*
D03*
X-89430D02*
D03*
Y109443D02*
D03*
X-120230D02*
D03*
Y113443D02*
D03*
X-89430D02*
D03*
X-120230Y117443D02*
D03*
X-89430D02*
D03*
X-120230Y121443D02*
D03*
X-89430D02*
D03*
X-120230Y125443D02*
D03*
X-89430D02*
D03*
X-120230Y129443D02*
D03*
X-89430D02*
D03*
Y133443D02*
D03*
X-120230D02*
D03*
Y137443D02*
D03*
X-89430D02*
D03*
X-120230Y141443D02*
D03*
X-89430D02*
D03*
X-120230Y145443D02*
D03*
X-89430D02*
D03*
X-120230Y149443D02*
D03*
X-89430D02*
D03*
Y153443D02*
D03*
X-120230D02*
D03*
Y157443D02*
D03*
X-89430D02*
D03*
Y161443D02*
D03*
X-120230D02*
D03*
X-89430Y165443D02*
D03*
X-120230D02*
D03*
X-89430Y169443D02*
D03*
X-120230D02*
D03*
Y173443D02*
D03*
X-89430D02*
D03*
Y177443D02*
D03*
X-120230D02*
D03*
X-89430Y181443D02*
D03*
X-120230D02*
D03*
Y185443D02*
D03*
X-89430D02*
D03*
Y189443D02*
D03*
X-120230D02*
D03*
X-89430Y193443D02*
D03*
X-120230D02*
D03*
Y197443D02*
D03*
X-89430D02*
D03*
Y201443D02*
D03*
X-120230D02*
D03*
X-89430Y205443D02*
D03*
X-120230D02*
D03*
X-89430Y209443D02*
D03*
X-120230D02*
D03*
X-89430Y213443D02*
D03*
X-120230D02*
D03*
X-89430Y217443D02*
D03*
X-120230D02*
D03*
X-89430Y221443D02*
D03*
X-120230D02*
D03*
Y225443D02*
D03*
X-89430D02*
D03*
Y229443D02*
D03*
X-120230D02*
D03*
X-89430Y233443D02*
D03*
X-120230D02*
D03*
X-489980Y263443D02*
D03*
X-459180D02*
D03*
X-489980Y259443D02*
D03*
X-459180D02*
D03*
Y255443D02*
D03*
X-489980D02*
D03*
Y251443D02*
D03*
X-459180D02*
D03*
X-489980Y247443D02*
D03*
X-459180D02*
D03*
X-489980Y243443D02*
D03*
X-459180D02*
D03*
X-489980Y239443D02*
D03*
X-459180D02*
D03*
X-489980Y235443D02*
D03*
X-459180D02*
D03*
X-489980Y231443D02*
D03*
X-459180D02*
D03*
Y227443D02*
D03*
X-489980D02*
D03*
Y223443D02*
D03*
X-459180D02*
D03*
X-489980Y219443D02*
D03*
X-459180D02*
D03*
Y215443D02*
D03*
X-489980D02*
D03*
Y211443D02*
D03*
X-459180D02*
D03*
X-489980Y207443D02*
D03*
X-459180D02*
D03*
Y203443D02*
D03*
X-489980D02*
D03*
Y199443D02*
D03*
X-459180D02*
D03*
X-489980Y195443D02*
D03*
X-459180D02*
D03*
X-489980Y191443D02*
D03*
X-459180D02*
D03*
Y187443D02*
D03*
X-489980D02*
D03*
Y183443D02*
D03*
X-459180D02*
D03*
Y179443D02*
D03*
X-489980D02*
D03*
X-459180Y175443D02*
D03*
X-489980D02*
D03*
X-459180Y171443D02*
D03*
X-489980D02*
D03*
X-459180Y167443D02*
D03*
X-489980D02*
D03*
Y163443D02*
D03*
X-459180D02*
D03*
Y159443D02*
D03*
X-489980D02*
D03*
X-459180Y155443D02*
D03*
X-489980D02*
D03*
X-459180Y151443D02*
D03*
X-489980D02*
D03*
X-459180Y147443D02*
D03*
X-489980D02*
D03*
X-459180Y143443D02*
D03*
X-489980D02*
D03*
Y139443D02*
D03*
X-459180D02*
D03*
Y135443D02*
D03*
X-489980D02*
D03*
Y131443D02*
D03*
X-459180D02*
D03*
X-489980Y127443D02*
D03*
X-459180D02*
D03*
X-489980Y123443D02*
D03*
X-459180D02*
D03*
X-489980Y119443D02*
D03*
X-459180D02*
D03*
Y115443D02*
D03*
X-489980D02*
D03*
Y111443D02*
D03*
X-459180D02*
D03*
X-489980Y107443D02*
D03*
X-459180D02*
D03*
X-489980Y103443D02*
D03*
X-459180D02*
D03*
X-489980Y99443D02*
D03*
X-459180D02*
D03*
X-489980Y95443D02*
D03*
X-459180D02*
D03*
X-489980Y91443D02*
D03*
X-459180D02*
D03*
X-489980Y87443D02*
D03*
X-459180D02*
D03*
X-489980Y83443D02*
D03*
X-459180D02*
D03*
X-489980Y79443D02*
D03*
X-459180D02*
D03*
X-489980Y75443D02*
D03*
X-459180D02*
D03*
X-489980Y71443D02*
D03*
X-459180D02*
D03*
X-489980Y67443D02*
D03*
X-459180D02*
D03*
D165*
X-101340Y-1270D02*
D03*
X-68840D02*
D03*
D166*
X-530547Y182225D02*
D03*
X-525547D02*
D03*
X-520547D02*
D03*
Y197225D02*
D03*
X-525547D02*
D03*
X-530547D02*
D03*
D167*
X-39370Y-11180D02*
D03*
X-34370Y1020D02*
D03*
X-44370D02*
D03*
X-340170Y46085D02*
D03*
X-330170D02*
D03*
X-335170Y33885D02*
D03*
X-360490Y46085D02*
D03*
X-350490D02*
D03*
X-355490Y33885D02*
D03*
X-380810Y46085D02*
D03*
X-370810D02*
D03*
X-375810Y33885D02*
D03*
D168*
X-380642Y239346D02*
D03*
Y217346D02*
D03*
X-367642Y239346D02*
D03*
Y217346D02*
D03*
X-374142D02*
D03*
D169*
X-242316Y176934D02*
D03*
Y163934D02*
D03*
D170*
X-212558Y162712D02*
D03*
X-516780Y39985D02*
D03*
D171*
X-205058Y153212D02*
D03*
X-210058D02*
D03*
X-215058D02*
D03*
X-220058D02*
D03*
X-205058Y172212D02*
D03*
X-210058D02*
D03*
X-215058D02*
D03*
X-220058D02*
D03*
X-524280Y49485D02*
D03*
X-519280D02*
D03*
X-514280D02*
D03*
X-509280D02*
D03*
X-524280Y30485D02*
D03*
X-519280D02*
D03*
X-514280D02*
D03*
X-509280D02*
D03*
D172*
X27178Y263335D02*
D03*
Y250835D02*
D03*
X-36830Y17880D02*
D03*
Y30380D02*
D03*
X-580280Y-6905D02*
D03*
Y5595D02*
D03*
Y18495D02*
D03*
Y30995D02*
D03*
Y43895D02*
D03*
Y56395D02*
D03*
D173*
X-227170Y191115D02*
D03*
X-207170D02*
D03*
X-535670Y73005D02*
D03*
X-515670D02*
D03*
D174*
X-339960Y297525D02*
D03*
X-414110Y297445D02*
D03*
D175*
X-354620Y287635D02*
D03*
X-359620D02*
D03*
X-364620D02*
D03*
X-369620D02*
D03*
X-374620D02*
D03*
X-379620D02*
D03*
X-384620D02*
D03*
X-389620D02*
D03*
X-394620D02*
D03*
X-399620D02*
D03*
D03*
D176*
X-129197Y256648D02*
D03*
X-110197D02*
D03*
D177*
X-300040Y248415D02*
D03*
X-322040D02*
D03*
X-300040Y235415D02*
D03*
X-322040D02*
D03*
Y241915D02*
D03*
D178*
X-366920Y11215D02*
D03*
Y2715D02*
D03*
D179*
X-548704Y54356D02*
D03*
X-556704D02*
D03*
X-246570Y211710D02*
D03*
X-238570D02*
D03*
D180*
X-499618Y30798D02*
D03*
Y38798D02*
D03*
X-196088Y142812D02*
D03*
Y150812D02*
D03*
D181*
X-331360Y208965D02*
D03*
Y185965D02*
D03*
D182*
X-309470Y144155D02*
D03*
Y140155D02*
D03*
Y136155D02*
D03*
Y132155D02*
D03*
Y128155D02*
D03*
Y124155D02*
D03*
Y120155D02*
D03*
Y116155D02*
D03*
X-271970D02*
D03*
Y120155D02*
D03*
Y124155D02*
D03*
Y128155D02*
D03*
Y132155D02*
D03*
Y136155D02*
D03*
Y140155D02*
D03*
Y144155D02*
D03*
D183*
X-290720Y130155D02*
D03*
D184*
X-276720Y148905D02*
D03*
X-280720D02*
D03*
X-284720D02*
D03*
X-288720D02*
D03*
X-292720D02*
D03*
X-296720D02*
D03*
X-300720D02*
D03*
X-304720D02*
D03*
Y111405D02*
D03*
X-300720D02*
D03*
X-296720D02*
D03*
X-292720D02*
D03*
X-288720D02*
D03*
X-284720D02*
D03*
X-280720D02*
D03*
X-276720D02*
D03*
D185*
X-356050Y109495D02*
D03*
X-375250D02*
D03*
X-365650Y130495D02*
D03*
D186*
X-501540Y326615D02*
D03*
Y309615D02*
D03*
D187*
X-346600Y2465D02*
D03*
Y11465D02*
D03*
X-356760Y2465D02*
D03*
Y11465D02*
D03*
D188*
X-343870Y300135D02*
D03*
X-410370Y300135D02*
D03*
D189*
X-336870Y299135D02*
D03*
X-417369Y299135D02*
D03*
D190*
X-340370Y296635D02*
D03*
X-413870Y296635D02*
D03*
M02*
