M48
;Layer_Color=9474304
;FILE_FORMAT=4:4
METRIC
;TYPE=PLATED
T1F00S00C0.2000
T2F00S00C0.2032
T3F00S00C0.2540
%
T01
X00025000Y-00110250
X00034451Y-00110800
X00037500Y-00100000
X00044451Y-00090800
X00064451
X00067797Y-00085965
X00067920Y-00070330
X00084011Y-00069198
X00099142Y-00085903
X00094451Y-00110800
X00074451
X00083420Y-00101588
X00062500Y-00100000
X00050000Y-00110000
X00047500Y-00045450
X00062500Y-00045450
X00070295Y-00026830
X00047500Y-00025500
X00044451Y-00010800
X00033170Y00022045
X00068149Y00016910
X00074682Y00017125
X00079782
X00084607Y00012404
X00098045Y00001795
X00116045Y-00000080
X00104451Y-00050800
X00115920Y-00103205
X00032500Y-00045450
X00084545Y00050295
X00099294Y00047296
X00008000Y00021625
X00015500Y00005625
X-00006375Y00006782
Y00001682
X-00003556Y-00002965
X-00007751Y00012625
X-00032830Y00004045
X-00054461Y00005875
X-00070330Y00017045
X-00078205Y00035420
X-00073205Y-00046330
X-00095549Y-00050800
X-00105549Y-00070800
X-00099203Y-00085965
X-00105549Y-00110800
X-00085549
X-00083580Y-00101588
X-00075000Y-00110000
X-00065549Y-00110800
X-00062500Y-00100000
X-00066393Y-00086084
X-00083541Y-00069025
X-00042500Y-00069570
X-00042500Y-00045450
X-00040563Y-00038850
X-00027500Y-00045450
X-00012500Y-00045450
X00002500Y-00045450
X00017500Y-00045450
Y-00025500
X-00011624Y-00026374
X-00017374Y-00025499
X-00014999Y-00019499
X-00022162Y-00019217
X-00019100Y-00014796
X-00008955Y-00073580
X-00012500Y-00100000
X00000000Y-00110000
X00014451Y-00110800
X00012500Y-00100000
X-00025000Y-00110000
X-00037755Y-00099745
X-00035549Y-00090800
X-00050000Y-00110250
X-00056250Y00072750
X-00055129Y00079127
X-00058736Y00082736
X-00063000Y00086500
X-00068028Y00097779
X-00055125Y00103000
X-00054625Y00108375
X-00039809Y00112833
X-00034250Y00100000
X-00024175Y00104224
X-00019651Y00108256
X-00020699Y00113925
X-00014998Y00105706
X-00008975Y00108029
X-00003521Y00106817
X00004000Y00094625
X00007450Y00090625
X00012550
X00016000Y00094625
X00013875Y00113375
X00012550Y00069247
X00007450
X00002012Y00069500
X-00001538Y00065560
X-00009750Y00070197
X-00014860
X-00019978Y00070353
X-00025078Y00070353
X-00077205Y00074295
X-00077205Y00112920
X-00087109Y00113487
X-00118580Y00081170
X00032150Y00078833
X00037365Y00077775
X00048670Y00082670
X00062000Y00077750
X00067469Y00082153
X00071120Y00085803
X00075750Y00091125
X00060545Y00095795
X00035670Y00098045
X00028000Y00094625
X00020420Y00107170
X00045437Y00113872
X00093890Y00070210
X00104420Y00065295
T02
X-00045500Y-00026200
Y-00016200
T03
X00100125Y00017000
X00115750Y00022875
X00104375Y00044000
X-00030090Y-00011351
X-00032030Y-00023700
X-00057258Y-00044873
X-00063247Y-00044873
X-00063038Y-00071165
X-00057099Y-00071377
X-00068410Y-00007593
X-00065836Y00003438
X-00060039Y00006847
X-00098375Y00001125
X-00119375
X-00105049Y00019600
X-00119140Y00039100
X-00069223Y00111277
X00115471Y00071904
M30
