G04*
G04 #@! TF.GenerationSoftware,Altium Limited,Altium Designer,20.0.13 (296)*
G04*
G04 Layer_Physical_Order=2*
G04 Layer_Color=36540*
%FSLAX44Y44*%
%MOMM*%
G71*
G01*
G75*
%ADD63C,0.4000*%
%ADD64C,0.3000*%
G36*
X89224Y113730D02*
X87136Y111186D01*
X85151Y107472D01*
X83929Y103441D01*
X83516Y99250D01*
X83929Y95059D01*
X85151Y91028D01*
X87136Y87314D01*
X89808Y84058D01*
X93064Y81386D01*
X96778Y79401D01*
X100809Y78179D01*
X105000Y77766D01*
X109191Y78179D01*
X113222Y79401D01*
X116936Y81386D01*
X119730Y83680D01*
X121000Y83082D01*
Y-10506D01*
X119730Y-10857D01*
X116751Y-8413D01*
X113095Y-6458D01*
X109127Y-5255D01*
X105000Y-4848D01*
X102334Y-5111D01*
X101884Y-3884D01*
X102768Y-2561D01*
X103078Y-1000D01*
X102768Y561D01*
X101884Y1884D01*
X100561Y2768D01*
X99000Y3078D01*
X97439Y2768D01*
X96116Y1884D01*
X95232Y561D01*
X94922Y-1000D01*
X95232Y-2561D01*
X96116Y-3884D01*
X97439Y-4768D01*
X97840Y-4848D01*
X97904Y-6155D01*
X96905Y-6458D01*
X93249Y-8413D01*
X90043Y-11043D01*
X87413Y-14249D01*
X85458Y-17905D01*
X84255Y-21874D01*
X83848Y-26000D01*
X84255Y-30127D01*
X85458Y-34095D01*
X87413Y-37751D01*
X90043Y-40957D01*
X93249Y-43587D01*
X96905Y-45542D01*
X100873Y-46745D01*
X105000Y-47152D01*
X109127Y-46745D01*
X113095Y-45542D01*
X116751Y-43587D01*
X119730Y-41143D01*
X121000Y-41494D01*
Y-100000D01*
Y-101477D01*
X120496Y-104011D01*
X119281Y-106944D01*
X117518Y-109583D01*
X115273Y-111828D01*
X113040Y-113320D01*
X110375Y-114424D01*
X107477Y-115000D01*
X-106576D01*
X-109667Y-114385D01*
X-112579Y-113179D01*
X-115199Y-111428D01*
X-117428Y-109199D01*
X-119179Y-106579D01*
X-120385Y-103667D01*
X-121000Y-100576D01*
Y-99000D01*
Y-69870D01*
X-119730Y-69745D01*
X-119518Y-70811D01*
X-118634Y-72134D01*
X-117311Y-73018D01*
X-115750Y-73328D01*
X-114189Y-73018D01*
X-112866Y-72134D01*
X-111982Y-70811D01*
X-111672Y-69250D01*
X-111982Y-67689D01*
X-112866Y-66366D01*
X-113207Y-66139D01*
Y-64611D01*
X-112866Y-64384D01*
X-111982Y-63061D01*
X-111672Y-61500D01*
X-111982Y-59939D01*
X-112866Y-58616D01*
X-114189Y-57732D01*
X-115750Y-57422D01*
X-117311Y-57732D01*
X-118634Y-58616D01*
X-119518Y-59939D01*
X-119730Y-61005D01*
X-121000Y-60880D01*
Y-41494D01*
X-119730Y-41143D01*
X-116751Y-43587D01*
X-113095Y-45542D01*
X-109127Y-46745D01*
X-105000Y-47152D01*
X-100873Y-46745D01*
X-96905Y-45542D01*
X-93249Y-43587D01*
X-90043Y-40957D01*
X-87413Y-37751D01*
X-85458Y-34095D01*
X-84255Y-30127D01*
X-83848Y-26000D01*
X-84255Y-21874D01*
X-85458Y-17905D01*
X-87413Y-14249D01*
X-90043Y-11043D01*
X-93249Y-8413D01*
X-96905Y-6458D01*
X-100873Y-5255D01*
X-105000Y-4848D01*
X-109127Y-5255D01*
X-113095Y-6458D01*
X-116751Y-8413D01*
X-119730Y-10857D01*
X-121000Y-10506D01*
Y83506D01*
X-119730Y83857D01*
X-116751Y81413D01*
X-113095Y79458D01*
X-109127Y78255D01*
X-105000Y77848D01*
X-100873Y78255D01*
X-96905Y79458D01*
X-93249Y81413D01*
X-90043Y84043D01*
X-87413Y87249D01*
X-85458Y90906D01*
X-84255Y94874D01*
X-83848Y99000D01*
X-84255Y103126D01*
X-85458Y107094D01*
X-87413Y110751D01*
X-89857Y113730D01*
X-89506Y115000D01*
X-24375D01*
X-23990Y113730D01*
X-24134Y113634D01*
X-25018Y112311D01*
X-25328Y110750D01*
X-25018Y109189D01*
X-24134Y107866D01*
X-22811Y106982D01*
X-21250Y106672D01*
X-19689Y106982D01*
X-18366Y107866D01*
X-17482Y109189D01*
X-17172Y110750D01*
X-17482Y112311D01*
X-18366Y113634D01*
X-18510Y113730D01*
X-18125Y115000D01*
X-13625D01*
X-13240Y113730D01*
X-13384Y113634D01*
X-14268Y112311D01*
X-14578Y110750D01*
X-14268Y109189D01*
X-13384Y107866D01*
X-12061Y106982D01*
X-10500Y106672D01*
X-8939Y106982D01*
X-7616Y107866D01*
X-6732Y109189D01*
X-6422Y110750D01*
X-6732Y112311D01*
X-7616Y113634D01*
X-7760Y113730D01*
X-7375Y115000D01*
X88624D01*
X89224Y113730D01*
D02*
G37*
%LPC*%
G36*
X51000Y111828D02*
X49439Y111518D01*
X48116Y110634D01*
X47232Y109311D01*
X46922Y107750D01*
X47232Y106189D01*
X48116Y104866D01*
X49439Y103982D01*
X51000Y103672D01*
X52561Y103982D01*
X53884Y104866D01*
X54768Y106189D01*
X55078Y107750D01*
X54768Y109311D01*
X53884Y110634D01*
X52561Y111518D01*
X51000Y111828D01*
D02*
G37*
G36*
X-33500Y108828D02*
X-35061Y108518D01*
X-36384Y107634D01*
X-37268Y106311D01*
X-37578Y104750D01*
X-37268Y103189D01*
X-36384Y101866D01*
X-35061Y100982D01*
X-33500Y100672D01*
X-31939Y100982D01*
X-30616Y101866D01*
X-29732Y103189D01*
X-29422Y104750D01*
X-29732Y106311D01*
X-30616Y107634D01*
X-31939Y108518D01*
X-33500Y108828D01*
D02*
G37*
G36*
X-55750Y97578D02*
X-57311Y97268D01*
X-58634Y96384D01*
X-59518Y95061D01*
X-59828Y93500D01*
X-59518Y91939D01*
X-58634Y90616D01*
X-57311Y89732D01*
X-55750Y89422D01*
X-54189Y89732D01*
X-52866Y90616D01*
X-51982Y91939D01*
X-51672Y93500D01*
X-51982Y95061D01*
X-52866Y96384D01*
X-54189Y97268D01*
X-55750Y97578D01*
D02*
G37*
G36*
X33250Y83578D02*
X31689Y83268D01*
X30366Y82384D01*
X29482Y81061D01*
X29172Y79500D01*
X29482Y77939D01*
X30366Y76616D01*
X31689Y75732D01*
X33250Y75422D01*
X34811Y75732D01*
X36134Y76616D01*
X37018Y77939D01*
X37328Y79500D01*
X37018Y81061D01*
X36134Y82384D01*
X34811Y83268D01*
X33250Y83578D01*
D02*
G37*
G36*
X-7152Y72829D02*
X-8712Y72518D01*
X-9826Y71774D01*
X-10940Y72518D01*
X-12500Y72828D01*
X-14061Y72518D01*
X-15384Y71634D01*
X-15615Y71288D01*
X-16885D01*
X-17116Y71634D01*
X-18439Y72518D01*
X-20000Y72828D01*
X-21561Y72518D01*
X-22884Y71634D01*
X-23768Y70311D01*
X-24078Y68750D01*
X-23768Y67189D01*
X-22884Y65866D01*
X-21631Y65029D01*
X-21616Y64935D01*
X-22196Y63759D01*
X-40000D01*
Y63821D01*
X-43655Y63340D01*
X-47060Y61929D01*
X-49985Y59685D01*
X-52229Y56761D01*
X-53640Y53355D01*
X-54121Y49700D01*
X-54059D01*
Y39700D01*
X-54121D01*
X-53640Y36045D01*
X-52229Y32640D01*
X-49985Y29715D01*
X-47060Y27471D01*
X-43655Y26060D01*
X-40000Y25579D01*
Y25641D01*
X40000D01*
Y25579D01*
X43655Y26060D01*
X47060Y27471D01*
X49985Y29715D01*
X52229Y32640D01*
X53640Y36045D01*
X54121Y39700D01*
X54059D01*
Y49700D01*
X54121D01*
X53640Y53355D01*
X52229Y56761D01*
X49985Y59685D01*
X47060Y61929D01*
X43655Y63340D01*
X40000Y63821D01*
Y63759D01*
X2196D01*
X1616Y64935D01*
X1631Y65029D01*
X2884Y65866D01*
X3768Y67189D01*
X4078Y68750D01*
X3768Y70311D01*
X2884Y71634D01*
X1561Y72518D01*
X0Y72828D01*
X-1561Y72518D01*
X-2884Y71634D01*
X-2941Y71549D01*
X-3972D01*
X-4367Y71700D01*
X-5591Y72518D01*
X-7152Y72829D01*
D02*
G37*
G36*
X91250Y62232D02*
X89689Y61922D01*
X88366Y61038D01*
X87482Y59715D01*
X87172Y58154D01*
X87482Y56593D01*
X88366Y55270D01*
X89689Y54386D01*
X91250Y54076D01*
X92811Y54386D01*
X94134Y55270D01*
X95018Y56593D01*
X95328Y58154D01*
X95018Y59715D01*
X94134Y61038D01*
X92811Y61922D01*
X91250Y62232D01*
D02*
G37*
G36*
X-115000Y10078D02*
X-116561Y9768D01*
X-117884Y8884D01*
X-118768Y7561D01*
X-119078Y6000D01*
X-118768Y4439D01*
X-117884Y3116D01*
X-116561Y2232D01*
X-115000Y1922D01*
X-113439Y2232D01*
X-112116Y3116D01*
X-111232Y4439D01*
X-110922Y6000D01*
X-111232Y7561D01*
X-112116Y8884D01*
X-113439Y9768D01*
X-115000Y10078D01*
D02*
G37*
G36*
X36250Y-8922D02*
X34689Y-9232D01*
X33366Y-10116D01*
X32482Y-11439D01*
X32172Y-13000D01*
X32482Y-14561D01*
X33366Y-15884D01*
X34689Y-16768D01*
X36250Y-17078D01*
X37811Y-16768D01*
X39134Y-15884D01*
X40018Y-14561D01*
X40328Y-13000D01*
X40018Y-11439D01*
X39134Y-10116D01*
X37811Y-9232D01*
X36250Y-8922D01*
D02*
G37*
G36*
X24500Y-19172D02*
X22939Y-19482D01*
X21616Y-20366D01*
X20732Y-21689D01*
X20422Y-23250D01*
X20732Y-24811D01*
X21616Y-26134D01*
X22939Y-27018D01*
X24500Y-27328D01*
X26061Y-27018D01*
X27384Y-26134D01*
X28268Y-24811D01*
X28578Y-23250D01*
X28268Y-21689D01*
X27384Y-20366D01*
X26061Y-19482D01*
X24500Y-19172D01*
D02*
G37*
G36*
X-79000Y-52422D02*
X-80561Y-52732D01*
X-81884Y-53616D01*
X-82768Y-54939D01*
X-83078Y-56500D01*
X-82768Y-58061D01*
X-81884Y-59384D01*
X-80561Y-60268D01*
X-79000Y-60578D01*
X-77921Y-60364D01*
X-77426Y-61560D01*
X-77884Y-61866D01*
X-78768Y-63189D01*
X-79078Y-64750D01*
X-78768Y-66311D01*
X-77884Y-67634D01*
X-76561Y-68518D01*
X-75000Y-68828D01*
X-73439Y-68518D01*
X-72116Y-67634D01*
X-71232Y-66311D01*
X-70922Y-64750D01*
X-71232Y-63189D01*
X-72116Y-61866D01*
X-73439Y-60982D01*
X-75000Y-60672D01*
X-76079Y-60886D01*
X-76574Y-59690D01*
X-76116Y-59384D01*
X-75232Y-58061D01*
X-74922Y-56500D01*
X-75232Y-54939D01*
X-76116Y-53616D01*
X-77439Y-52732D01*
X-79000Y-52422D01*
D02*
G37*
G36*
X67904Y-55446D02*
X66343Y-55757D01*
X65020Y-56641D01*
X64136Y-57964D01*
X63826Y-59525D01*
X64136Y-61085D01*
X65020Y-62408D01*
Y-62891D01*
X64136Y-64214D01*
X63826Y-65774D01*
X64136Y-67335D01*
X65020Y-68658D01*
X66343Y-69542D01*
X67904Y-69853D01*
X69465Y-69542D01*
X70788Y-68658D01*
X71672Y-67335D01*
X71982Y-65774D01*
X71672Y-64214D01*
X70788Y-62891D01*
Y-62408D01*
X71672Y-61085D01*
X71982Y-59525D01*
X71672Y-57964D01*
X70788Y-56641D01*
X69465Y-55757D01*
X67904Y-55446D01*
D02*
G37*
G36*
X-96500Y-57422D02*
X-98061Y-57732D01*
X-99384Y-58616D01*
X-100268Y-59939D01*
X-100578Y-61500D01*
X-100268Y-63061D01*
X-99384Y-64384D01*
X-98617Y-64896D01*
Y-66354D01*
X-99384Y-66866D01*
X-100268Y-68189D01*
X-100578Y-69750D01*
X-100268Y-71311D01*
X-99384Y-72634D01*
X-98061Y-73518D01*
X-96500Y-73828D01*
X-94939Y-73518D01*
X-93616Y-72634D01*
X-92732Y-71311D01*
X-92422Y-69750D01*
X-92732Y-68189D01*
X-93616Y-66866D01*
X-94383Y-66354D01*
Y-64896D01*
X-93616Y-64384D01*
X-92732Y-63061D01*
X-92422Y-61500D01*
X-92732Y-59939D01*
X-93616Y-58616D01*
X-94939Y-57732D01*
X-96500Y-57422D01*
D02*
G37*
G36*
X87000Y-80922D02*
X85439Y-81232D01*
X84116Y-82116D01*
X83232Y-83439D01*
X82922Y-85000D01*
X83232Y-86561D01*
X84116Y-87884D01*
X85439Y-88768D01*
X87000Y-89078D01*
X88561Y-88768D01*
X89884Y-87884D01*
X90768Y-86561D01*
X91078Y-85000D01*
X90768Y-83439D01*
X89884Y-82116D01*
X88561Y-81232D01*
X87000Y-80922D01*
D02*
G37*
G36*
X69750Y-81172D02*
X68189Y-81482D01*
X66866Y-82366D01*
X65982Y-83689D01*
X65672Y-85250D01*
X65982Y-86811D01*
X66866Y-88134D01*
X68189Y-89018D01*
X69750Y-89328D01*
X71311Y-89018D01*
X72634Y-88134D01*
X73518Y-86811D01*
X73828Y-85250D01*
X73518Y-83689D01*
X72634Y-82366D01*
X71311Y-81482D01*
X69750Y-81172D01*
D02*
G37*
G36*
X54500Y-89422D02*
X52939Y-89732D01*
X51616Y-90616D01*
X50794Y-91846D01*
X50125Y-91919D01*
X49456Y-91846D01*
X48634Y-90616D01*
X47311Y-89732D01*
X45750Y-89422D01*
X44189Y-89732D01*
X42866Y-90616D01*
X41982Y-91939D01*
X41958Y-92062D01*
X40634Y-92366D01*
X39311Y-91482D01*
X37750Y-91172D01*
X36189Y-91482D01*
X34866Y-92366D01*
X34854Y-92385D01*
X33362Y-92331D01*
X32884Y-91616D01*
X31561Y-90732D01*
X30000Y-90422D01*
X28439Y-90732D01*
X27116Y-91616D01*
X26232Y-92939D01*
X25922Y-94500D01*
X26232Y-96061D01*
X27116Y-97384D01*
X28439Y-98268D01*
X30000Y-98578D01*
X31561Y-98268D01*
X32884Y-97384D01*
X32896Y-97366D01*
X34388Y-97418D01*
X34866Y-98134D01*
X36189Y-99018D01*
X37750Y-99328D01*
X39311Y-99018D01*
X40634Y-98134D01*
X41518Y-96811D01*
X41542Y-96688D01*
X42866Y-96384D01*
X44189Y-97268D01*
X45750Y-97578D01*
X47311Y-97268D01*
X48634Y-96384D01*
X49456Y-95154D01*
X50125Y-95081D01*
X50794Y-95154D01*
X51616Y-96384D01*
X52939Y-97268D01*
X54500Y-97578D01*
X56061Y-97268D01*
X57384Y-96384D01*
X58268Y-95061D01*
X58578Y-93500D01*
X58268Y-91939D01*
X57384Y-90616D01*
X56061Y-89732D01*
X54500Y-89422D01*
D02*
G37*
G36*
X103000Y-85422D02*
X101439Y-85732D01*
X100116Y-86616D01*
X99232Y-87939D01*
X98922Y-89500D01*
X99232Y-91061D01*
X100116Y-92384D01*
X101439Y-93268D01*
X103000Y-93578D01*
X104561Y-93268D01*
X105884Y-92384D01*
X106768Y-91061D01*
X107078Y-89500D01*
X106768Y-87939D01*
X105884Y-86616D01*
X104561Y-85732D01*
X103000Y-85422D01*
D02*
G37*
%LPD*%
D63*
X-27500Y68750D02*
D03*
X5800D02*
D03*
X-80113Y-41834D02*
D03*
X-2500Y-35675D02*
D03*
X-17500Y-69000D02*
D03*
X-32500D02*
D03*
X12500D02*
D03*
X-47500D02*
D03*
Y-45000D02*
D03*
X-17500Y-45767D02*
D03*
X33782Y-4318D02*
D03*
X28000Y-69000D02*
D03*
X42500D02*
D03*
X84654Y-54274D02*
D03*
X82055Y-43600D02*
D03*
X114250Y66154D02*
D03*
X114006Y-2500D02*
D03*
X-64000Y80729D02*
D03*
X-33500Y24100D02*
D03*
X-92540Y-2500D02*
D03*
X105918Y11938D02*
D03*
X40000Y76250D02*
D03*
X91950Y37350D02*
D03*
X79250Y87000D02*
D03*
X69342Y2540D02*
D03*
X-5000Y109750D02*
D03*
X-27250Y110000D02*
D03*
X-67250Y-76250D02*
D03*
X-47500Y-93500D02*
D03*
X-2500D02*
D03*
X113000Y-53500D02*
D03*
X91500Y-107750D02*
D03*
X79000Y-98750D02*
D03*
X-91500Y-107750D02*
D03*
X-79000Y-98750D02*
D03*
X28000Y109000D02*
D03*
X16000D02*
D03*
X4000D02*
D03*
X-16000Y108250D02*
D03*
X-77250Y109750D02*
D03*
X-48861Y110250D02*
D03*
X12500Y-110000D02*
D03*
X-12500D02*
D03*
X-37500Y-110250D02*
D03*
X-62500Y-110000D02*
D03*
X37500Y-110250D02*
D03*
X62500Y-110000D02*
D03*
X-99000Y25750D02*
D03*
X-106750Y45500D02*
D03*
D64*
X66500Y-48500D02*
D03*
Y-38500D02*
D03*
M02*
