M48
;Layer_Color=9474304
;FILE_FORMAT=4:4
METRIC
;TYPE=PLATED
T1F00S00C0.2032
T2F00S00C0.2540
T3F00S00C0.5000
T5F00S00C0.8600
T7F00S00C2.1000
T8F00S00C3.0000
%
T01
X00499000Y00024000
X00519844Y00023692
X00511280Y00092829
X00511329Y00109135
X00509926Y00135000
X00504000
X00496000
X00492000Y00130000
X00500000
X00526250Y00141250
X00539000Y00126000
X00544333Y00130167
X00557500Y00129001
Y00124001
Y00119001
X00570863Y00115863
X00575863Y00115863
X00580863Y00115863
X00571863Y00124137
X00580000Y00084000
X00584353Y00079353
X00590000Y00078000
X00569710Y00072562
X00569710Y00067562
X00569656Y00062617
X00569656Y00057617
X00464000Y00065000
X00454000Y00063000
X00459000Y00073000
X00460000Y00051000
X00458000Y00040000
X00466000Y00034000
X00468000Y00019351
X00458000Y00009500
X00448000Y00021000
X00438000Y00019350
X00436000Y00034000
X00429000Y00041313
X00430000Y00052937
X00428822Y00060000
X00429263Y00067737
X00414902Y00061937
X00401000Y00063000
X00406000Y00033000
X00417000Y00035000
X00418000Y00020000
X00408000Y00018350
X00398000Y00010000
X00379000Y00017000
X00389000Y00028000
X00358295Y00040069
Y00045069
Y00050069
X00359000Y00083000
X00355000Y00088000
X00355796Y00097196
X00344424Y00096266
X00347287Y00109813
X00339233Y00108219
X00330978Y00115000
X00341000Y00122000
X00354838Y00121626
X00350387Y00128098
X00328962Y00131000
X00308580Y00130146
X00312420Y00122419
X00301040Y00112000
X00314000Y00097000
X00319686Y00090864
X00314350Y00080913
X00316021Y00073415
X00328257Y00071013
X00328837Y00064603
X00329837Y00083516
X00334972Y00084890
X00346589Y00075000
X00351000Y00079000
X00272451Y00077174
X00275260Y00091950
X00255500Y00106667
X00226342Y00096660
X00214875Y00122429
X00207000Y00124000
X00189000Y00126000
X00180602Y00068454
X00165872Y00069509
X00149844Y00063888
X00136821Y00061110
X00156411Y00053000
X00174520Y00045799
X00183631Y00047889
X00192000Y00044000
X00195588Y00048850
X00208000Y00044062
X00235000Y00044000
X00240500Y00042141
X00256000Y00042000
X00263429Y00042037
X00272023Y00042376
X00282740Y00026762
X00227687Y00012301
X00230445Y00006333
X00220000Y00006000
X00213000Y00009000
X00208000Y00013000
X00201000Y00014000
X00172000Y00020000
X00130000Y00030000
X00125599Y00043722
X00101169Y00039333
X00104584Y00033584
X00105000Y00054250
X00097250Y00067000
X00112750
X00105000Y00079750
X00107743Y00086256
X00102190Y00092083
X00094000Y00092175
X00123783Y00090250
X00125591Y00103000
X00101000Y00127000
X00215694Y00068485
X00278000Y00125000
X00431020Y00129339
X00434907Y00126093
X00434000Y00120000
X00445000Y00118000
X00433118Y00134675
X00450000Y00143000
X00480000Y00135000
X00488000
X00484000Y00130000
X00428000Y00009500
X00080770Y00034574
X00084319Y00043454
X00082000Y00054000
X00072689Y00054875
X00074000Y00047000
X00073612Y00039872
X00067282Y00034129
X00065250Y00051750
X00057000Y00054000
X00068178Y00061178
X00068650Y00075000
X00070113Y00080349
X00070475Y00085452
X00068379Y00091499
X00073485Y00091445
X00081250Y00090573
X00081055Y00074750
X00080000Y00067000
X00041500Y00067750
X00033750Y00080500
X00049250
X00041500Y00093250
X00038000Y00102000
X00049000Y00108790
X00028260Y00110783
X00019445Y00107000
X00018460Y00093000
Y00083000
X00014768Y00077526
X00018460Y00073000
X00016485Y00067500
X00011926Y00088000
X00068453Y00099523
X00069200Y00139000
X00045000Y00141000
X00043974Y00133791
X00042000Y00127000
X00041130Y00151274
X00047404Y00148442
X00048000Y00160000
X00046000Y00174000
X00046907Y00180093
X00041936Y00181948
X00030000Y00198000
X00024000Y00210000
X00015848Y00211848
X00012000Y00208000
X00014000Y00223000
Y00230000
X00012214Y00241316
X00038715Y00240000
Y00229800
X00037645Y00209786
X00028000Y00216423
X00050500Y00203000
X00054000Y00198811
X00071000Y00201000
X00072000Y00193000
X00072000Y00186000
X00071000Y00181000
X00085945Y00182737
X00085516Y00188102
X00085140Y00194000
X00082000Y00200000
X00086800Y00211000
X00086700Y00223000
X00082700Y00227000
Y00219000
X00073300Y00223000
Y00231000
X00069300Y00227000
X00070100Y00217192
X00069200Y00239000
X00086800
X00085035Y00244523
X00077639Y00251070
X00081359Y00255242
X00084909Y00262616
X00073817Y00278468
Y00283532
X00069000Y00287000
Y00275000
X00056000
Y00263000
X00038000Y00264000
X00034000Y00258994
X00034997Y00252987
X00048000Y00252000
X00045942Y00247000
X00023000Y00264000
X00011862Y00286939
X00038715Y00289000
X00039451Y00298800
X00068000Y00299000
Y00311000
X00063000Y00326000
X00037294Y00355833
X00041498Y00360065
X00021000Y00343000
X00011000Y00342000
X00007000Y00346000
X00011636Y00321118
X00069000Y00394000
X00059183Y00408086
X00078000Y00411000
X00076000Y00418000
X00087675Y00422921
X00087000Y00410000
X00086700Y00231000
X00069200Y00163000
Y00151000
X00028000Y00158480
X00019445Y00148000
X00100000Y00151000
X00112000Y00147000
X00113046Y00167391
X00107484Y00167426
X00102000Y00165000
X00118312Y00169661
X00127000Y00180000
X00132000Y00177000
X00137064
X00140500Y00181500
X00142000Y00189000
X00147419Y00188419
X00151000Y00192000
X00156336Y00194622
X00164000Y00192000
X00157000Y00214000
X00172000Y00224000
X00174000Y00240000
X00182000Y00238000
X00190000Y00240000
X00202000
X00214000
X00226000
X00235000Y00253000
X00229998Y00268999
X00222000Y00274000
X00204000Y00277000
X00198000Y00277000
X00189370
X00182000Y00277000
X00178000Y00263000
X00190000Y00263000
X00178000Y00250860
X00170000Y00251000
X00143000Y00257000
X00144000Y00230000
X00143000Y00225000
X00139419Y00221419
X00134000Y00223000
X00100000Y00215000
X00100500Y00198900
X00105000Y00203000
X00113235Y00198075
X00109000Y00193064
Y00188000
X00108000Y00183000
X00100000Y00235000
X00104000Y00256000
X00108484Y00253000
X00103000Y00263000
X00100000Y00275000
Y00287000
Y00299000
Y00311000
X00105457Y00311038
X00109733Y00315652
X00100000Y00323000
X00106292Y00360593
X00122000Y00372000
X00127000Y00374000
X00134000
X00143678Y00375738
X00180634Y00406657
X00230489Y00372885
X00235436Y00369740
X00240500
X00244967Y00372991
X00277733Y00375700
Y00369700
X00278000Y00363000
Y00357000
X00293541Y00342472
X00299476Y00329000
X00295232Y00315217
X00294816Y00304184
X00294601Y00292399
X00295067Y00279933
X00294637Y00269363
X00294000Y00261000
X00294956Y00252978
X00284456Y00252513
X00288000Y00239000
X00279324Y00238324
X00312999Y00235000
X00310000Y00228000
X00311000Y00222000
X00318000
X00323000Y00226000
X00322999Y00237000
X00334264Y00237998
X00341666Y00239949
X00340999Y00246000
X00337117Y00253205
X00332000Y00258000
X00328825Y00279250
Y00297600
X00338000Y00288425
Y00306775
X00328825Y00315950
X00347175
X00356350Y00306775
X00347175Y00297600
X00356350Y00288425
X00347175Y00279250
X00319650Y00288425
Y00306775
X00306000Y00314000
X00330209Y00358100
X00363000Y00357000
X00374000Y00315000
X00383000Y00317000
X00404000Y00313000
X00399000Y00308000
X00419000Y00303000
X00418001Y00273001
X00415519Y00265334
X00417000Y00251000
X00407500Y00252500
X00407000Y00278511
X00446396Y00263056
X00455702Y00270004
X00461702Y00261890
X00461000Y00255000
X00465000Y00282000
X00487000Y00260000
X00479000Y00240000
X00488000Y00225000
X00465284Y00223850
X00479000Y00210000
X00481255Y00183085
X00476000Y00182375
X00484747Y00171247
X00463000Y00163000
X00456522Y00164136
X00451220Y00163171
X00448000Y00159000
X00450946Y00148893
X00455503Y00151497
X00461000Y00149000
X00460000Y00193000
X00453581Y00191420
X00449746Y00195254
X00450000Y00201000
X00418000Y00199000
X00398557Y00174533
X00381613Y00145756
X00383000Y00220000
X00357500Y00231897
X00352540Y00232918
X00343916Y00232119
X00349000Y00242091
X00279000Y00200000
X00249000
X00232000Y00199000
Y00209000
X00244000Y00227000
X00219234Y00187129
X00228000Y00177000
X00240028Y00163464
X00226597Y00152536
X00202790Y00153441
X00185000Y00153000
X00179000Y00175000
X00189000Y00179123
X00154439Y00154115
X00163229Y00278957
X00091945Y00405945
X00420000Y00373000
X00449000Y00372000
X00462000Y00377000
X00476151Y00387346
X00487000Y00386000
Y00391064
X00488000Y00352000
X00479000
X00472000
Y00359000
X00449000Y00345000
X00292613Y00174349
X00292244Y00147080
X00514482Y00147500
X00520000Y00170500
X00508000
X00496000
X00500500Y00187500
X00497000Y00195000
X00498000Y00199968
Y00205032
X00497000Y00210000
X00509000Y00214936
Y00220000
X00515000Y00222000
X00522909Y00223062
X00527909Y00226063
X00534957Y00227563
X00534631Y00217584
X00534567Y00212562
Y00207563
Y00202562
X00534631Y00197264
X00520909Y00200022
Y00205102
X00516785Y00209373
X00515144Y00197183
X00519807Y00233494
X00517999Y00241000
X00534567Y00242562
Y00237563
Y00247563
X00534631Y00252890
X00536909Y00280522
X00514000Y00280083
X00497000Y00293000
X00506000Y00307000
X00505000Y00322000
X00522000Y00308500
X00548000Y00318000
X00533475Y00341075
X00536942Y00346483
X00537003Y00351608
X00531804Y00355061
X00546000Y00355000
X00570000Y00354782
Y00349718
Y00362000
X00548000Y00379000
X00544678Y00391064
X00550578Y00395000
X00541000Y00437000
X00490000
X00493000Y00383000
X00514467Y00363444
X00519000Y00357000
X00489000Y00271000
X00497000Y00255000
X00498000Y00250032
Y00244968
X00497000Y00240000
X00586000Y00283826
X00575000Y00148000
X00564500Y00146000
T02
X00142327Y00089328
Y00118672
X00171673
Y00089328
X00384328
X00384327Y00118672
X00413673
Y00089328
X00407800Y00226000
X00389921Y00247175
X00384328Y00331328
X00384327Y00360672
X00413673
Y00331328
X00171673Y00331328
Y00360672
X00142327
Y00331328
T03
X00096000Y00017000
X00108500
X00121000
X00133500
X00146000
X00158500
X00083500
X00071000
Y00433000
X00083500
X00096000
X00108500
X00121000
X00133500
X00146000
X00158500
T05
X00505000Y00427000
X00525000
T07
X00574000Y00026000
X00026000
Y00424000
X00574000
T08
X00157000Y00104000
X00399000Y00104000
Y00346000
X00157000Y00346000
M30
