G04*
G04 #@! TF.GenerationSoftware,Altium Limited,Altium Designer,23.4.1 (23)*
G04*
G04 Layer_Color=2752767*
%FSLAX44Y44*%
%MOMM*%
G71*
G04*
G04 #@! TF.SameCoordinates,EFB48218-AA6A-4B24-80ED-B411BF601C35*
G04*
G04*
G04 #@! TF.FilePolarity,Positive*
G04*
G01*
G75*
%ADD56C,0.0254*%
%ADD61C,0.2540*%
%ADD62C,0.0508*%
%ADD63C,0.0677*%
%ADD64C,0.3810*%
D56*
X1410521Y-165291D02*
X1425761Y-150051D01*
X1395281Y-165291D02*
X1425761Y-134811D01*
X1380041Y-165291D02*
X1410521Y-134811D01*
X1364801Y-165291D02*
X1395281Y-134811D01*
X1349561Y-165291D02*
X1380041Y-134811D01*
X1334321Y-165291D02*
X1364801Y-134811D01*
X1319081Y-165291D02*
X1349561Y-134811D01*
X1303841Y-165291D02*
X1334321Y-134811D01*
X1288601Y-165291D02*
X1319081Y-134811D01*
X1273361Y-165291D02*
X1303841Y-134811D01*
X1258121Y-165291D02*
X1288601Y-134811D01*
X1242881Y-165291D02*
X1273361Y-134811D01*
X1227641Y-165291D02*
X1258121Y-134811D01*
X1212401Y-165291D02*
X1242881Y-134811D01*
X1197161Y-165291D02*
X1227641Y-134811D01*
X1181921Y-165291D02*
X1212401Y-134811D01*
X1166681Y-165291D02*
X1197161Y-134811D01*
X1151441Y-165291D02*
X1181921Y-134811D01*
X1141362Y-160131D02*
X1166681Y-134811D01*
X1141362Y-144891D02*
X1151441Y-134811D01*
X1410521D02*
X1425761Y-119571D01*
X1395281Y-134811D02*
X1425761Y-104331D01*
X1380041Y-134811D02*
X1410521Y-104331D01*
X1364801Y-134811D02*
X1395281Y-104331D01*
X1349561Y-134811D02*
X1380041Y-104331D01*
X1334321Y-134811D02*
X1364801Y-104331D01*
X1319081Y-134811D02*
X1349561Y-104331D01*
X1303841Y-134811D02*
X1334321Y-104331D01*
X1288601Y-134811D02*
X1319081Y-104331D01*
X1273361Y-134811D02*
X1303841Y-104331D01*
X1258121Y-134811D02*
X1288601Y-104331D01*
X1242881Y-134811D02*
X1273361Y-104331D01*
X1227641Y-134811D02*
X1258121Y-104331D01*
X1212401Y-134811D02*
X1242881Y-104331D01*
X1197161Y-134811D02*
X1227641Y-104331D01*
X1181921Y-134811D02*
X1212401Y-104331D01*
X1166681Y-134811D02*
X1197161Y-104331D01*
X1151441Y-134811D02*
X1181921Y-104331D01*
X1141362Y-129651D02*
X1166681Y-104331D01*
X1141362Y-114411D02*
X1151441Y-104331D01*
X1410521D02*
X1425761Y-89091D01*
X1395281Y-104331D02*
X1425761Y-73851D01*
X1380041Y-104331D02*
X1410521Y-73851D01*
X1364801Y-104331D02*
X1395281Y-73851D01*
X1349561Y-104331D02*
X1380041Y-73851D01*
X1334321Y-104331D02*
X1364801Y-73851D01*
X1319081Y-104331D02*
X1349561Y-73851D01*
X1303841Y-104331D02*
X1334321Y-73851D01*
X1288601Y-104331D02*
X1319081Y-73851D01*
X1273361Y-104331D02*
X1303841Y-73851D01*
X1258121Y-104331D02*
X1288601Y-73851D01*
X1242881Y-104331D02*
X1273361Y-73851D01*
X1227641Y-104331D02*
X1258121Y-73851D01*
X1212401Y-104331D02*
X1242881Y-73851D01*
X1197161Y-104331D02*
X1227641Y-73851D01*
X1181921Y-104331D02*
X1212401Y-73851D01*
X1166681Y-104331D02*
X1197161Y-73851D01*
X1151441Y-104331D02*
X1181921Y-73851D01*
X1141362Y-99171D02*
X1166681Y-73851D01*
X1141362Y-83931D02*
X1151441Y-73851D01*
X1410521D02*
X1425761Y-58611D01*
X1395281Y-73851D02*
X1425761Y-43371D01*
X1380041Y-73851D02*
X1410521Y-43371D01*
X1364801Y-73851D02*
X1395281Y-43371D01*
X1349561Y-73851D02*
X1380041Y-43371D01*
X1334321Y-73851D02*
X1364801Y-43371D01*
X1319081Y-73851D02*
X1349561Y-43371D01*
X1303841Y-73851D02*
X1334321Y-43371D01*
X1288601Y-73851D02*
X1319081Y-43371D01*
X1273361Y-73851D02*
X1303841Y-43371D01*
X1258121Y-73851D02*
X1288601Y-43371D01*
X1242881Y-73851D02*
X1273361Y-43371D01*
X1227641Y-73851D02*
X1258121Y-43371D01*
X1212401Y-73851D02*
X1242881Y-43371D01*
X1197161Y-73851D02*
X1227641Y-43371D01*
X1181921Y-73851D02*
X1212401Y-43371D01*
X1166681Y-73851D02*
X1197161Y-43371D01*
X1151441Y-73851D02*
X1181921Y-43371D01*
X1141362Y-68691D02*
X1166681Y-43371D01*
X1141362Y-53451D02*
X1151441Y-43371D01*
X1410521D02*
X1425761Y-28131D01*
X1395281Y-43371D02*
X1425761Y-12891D01*
X1380041Y-43371D02*
X1410521Y-12891D01*
X1364801Y-43371D02*
X1395281Y-12891D01*
X1349561Y-43371D02*
X1380041Y-12891D01*
X1334321Y-43371D02*
X1364801Y-12891D01*
X1319081Y-43371D02*
X1349561Y-12891D01*
X1303841Y-43371D02*
X1334321Y-12891D01*
X1288601Y-43371D02*
X1319081Y-12891D01*
X1273361Y-43371D02*
X1303841Y-12891D01*
X1258121Y-43371D02*
X1288601Y-12891D01*
X1242881Y-43371D02*
X1273361Y-12891D01*
X1227641Y-43371D02*
X1258121Y-12891D01*
X1212401Y-43371D02*
X1242881Y-12891D01*
X1197161Y-43371D02*
X1227641Y-12891D01*
X1181921Y-43371D02*
X1212401Y-12891D01*
X1166681Y-43371D02*
X1197161Y-12891D01*
X1151441Y-43371D02*
X1181921Y-12891D01*
X1141362Y-38211D02*
X1166681Y-12891D01*
X1141362Y-22971D02*
X1151441Y-12891D01*
X1410521D02*
X1425761Y2349D01*
X1395281Y-12891D02*
X1425761Y17589D01*
X1380041Y-12891D02*
X1410521Y17589D01*
X1364801Y-12891D02*
X1395281Y17589D01*
X1349561Y-12891D02*
X1380041Y17589D01*
X1334321Y-12891D02*
X1364801Y17589D01*
X1319081Y-12891D02*
X1349561Y17589D01*
X1303841Y-12891D02*
X1334321Y17589D01*
X1288601Y-12891D02*
X1319081Y17589D01*
X1273361Y-12891D02*
X1303841Y17589D01*
X1258121Y-12891D02*
X1288601Y17589D01*
X1242881Y-12891D02*
X1273361Y17589D01*
X1227641Y-12891D02*
X1258121Y17589D01*
X1212401Y-12891D02*
X1242881Y17589D01*
X1197161Y-12891D02*
X1227641Y17589D01*
X1181921Y-12891D02*
X1212401Y17589D01*
X1166681Y-12891D02*
X1197161Y17589D01*
X1151441Y-12891D02*
X1181921Y17589D01*
X1141362Y-7731D02*
X1166681Y17589D01*
X1141362Y7509D02*
X1151441Y17589D01*
X1410521D02*
X1425761Y32829D01*
X1395281Y17589D02*
X1425761Y48069D01*
X1380041Y17589D02*
X1410521Y48069D01*
X1364801Y17589D02*
X1395281Y48069D01*
X1349561Y17589D02*
X1380041Y48069D01*
X1334321Y17589D02*
X1364801Y48069D01*
X1319081Y17589D02*
X1349561Y48069D01*
X1303841Y17589D02*
X1334321Y48069D01*
X1288601Y17589D02*
X1319081Y48069D01*
X1273361Y17589D02*
X1303841Y48069D01*
X1258121Y17589D02*
X1288601Y48069D01*
X1242881Y17589D02*
X1273361Y48069D01*
X1227641Y17589D02*
X1258121Y48069D01*
X1212401Y17589D02*
X1242881Y48069D01*
X1197161Y17589D02*
X1227641Y48069D01*
X1181921Y17589D02*
X1212401Y48069D01*
X1166681Y17589D02*
X1197161Y48069D01*
X1151441Y17589D02*
X1181921Y48069D01*
X1141362Y22749D02*
X1166681Y48069D01*
X1141362Y37989D02*
X1151441Y48069D01*
X1410521D02*
X1425761Y63309D01*
X1395281Y48069D02*
X1425761Y78549D01*
X1380041Y48069D02*
X1410521Y78549D01*
X1364801Y48069D02*
X1395281Y78549D01*
X1349561Y48069D02*
X1380041Y78549D01*
X1334321Y48069D02*
X1364801Y78549D01*
X1319081Y48069D02*
X1349561Y78549D01*
X1303841Y48069D02*
X1334321Y78549D01*
X1288601Y48069D02*
X1319081Y78549D01*
X1273361Y48069D02*
X1303841Y78549D01*
X1258121Y48069D02*
X1288601Y78549D01*
X1242881Y48069D02*
X1273361Y78549D01*
X1227641Y48069D02*
X1258121Y78549D01*
X1212401Y48069D02*
X1242881Y78549D01*
X1197161Y48069D02*
X1227641Y78549D01*
X1181921Y48069D02*
X1212401Y78549D01*
X1166681Y48069D02*
X1197161Y78549D01*
X1151441Y48069D02*
X1181921Y78549D01*
X1141362Y53229D02*
X1166681Y78549D01*
X1141362Y68469D02*
X1151441Y78549D01*
X1410521D02*
X1425761Y93789D01*
X1395281Y78549D02*
X1425761Y109029D01*
X1380041Y78549D02*
X1410521Y109029D01*
X1364801Y78549D02*
X1395281Y109029D01*
X1349561Y78549D02*
X1380041Y109029D01*
X1334321Y78549D02*
X1364801Y109029D01*
X1319081Y78549D02*
X1349561Y109029D01*
X1303841Y78549D02*
X1334321Y109029D01*
X1288601Y78549D02*
X1319081Y109029D01*
X1273361Y78549D02*
X1303841Y109029D01*
X1258121Y78549D02*
X1288601Y109029D01*
X1242881Y78549D02*
X1273361Y109029D01*
X1227641Y78549D02*
X1258121Y109029D01*
X1212401Y78549D02*
X1242881Y109029D01*
X1197161Y78549D02*
X1227641Y109029D01*
X1181921Y78549D02*
X1212401Y109029D01*
X1166681Y78549D02*
X1197161Y109029D01*
X1151441Y78549D02*
X1181921Y109029D01*
X1141362Y83709D02*
X1166681Y109029D01*
X1141362Y98949D02*
X1151441Y109029D01*
X1410521D02*
X1425761Y124269D01*
X1395281Y109029D02*
X1425761Y139509D01*
X1380041Y109029D02*
X1410521Y139509D01*
X1364801Y109029D02*
X1395281Y139509D01*
X1349561Y109029D02*
X1380041Y139509D01*
X1334321Y109029D02*
X1364801Y139509D01*
X1319081Y109029D02*
X1349561Y139509D01*
X1303841Y109029D02*
X1334321Y139509D01*
X1288601Y109029D02*
X1319081Y139509D01*
X1273361Y109029D02*
X1303841Y139509D01*
X1258121Y109029D02*
X1288601Y139509D01*
X1242881Y109029D02*
X1273361Y139509D01*
X1227641Y109029D02*
X1258121Y139509D01*
X1212401Y109029D02*
X1242881Y139509D01*
X1197161Y109029D02*
X1227641Y139509D01*
X1181921Y109029D02*
X1212401Y139509D01*
X1166681Y109029D02*
X1197161Y139509D01*
X1151441Y109029D02*
X1181921Y139509D01*
X1141362Y114189D02*
X1166681Y139509D01*
X1141362Y129429D02*
X1151441Y139509D01*
X1410521D02*
X1425761Y154749D01*
X1395281Y139509D02*
X1425761Y169989D01*
X1380041Y139509D02*
X1410521Y169989D01*
X1364801Y139509D02*
X1395281Y169989D01*
X1349561Y139509D02*
X1380041Y169989D01*
X1334321Y139509D02*
X1364801Y169989D01*
X1319081Y139509D02*
X1349561Y169989D01*
X1303841Y139509D02*
X1334321Y169989D01*
X1288601Y139509D02*
X1319081Y169989D01*
X1273361Y139509D02*
X1303841Y169989D01*
X1258121Y139509D02*
X1288601Y169989D01*
X1242881Y139509D02*
X1273361Y169989D01*
X1227641Y139509D02*
X1258121Y169989D01*
X1212401Y139509D02*
X1242881Y169989D01*
X1197161Y139509D02*
X1227641Y169989D01*
X1181921Y139509D02*
X1212401Y169989D01*
X1166681Y139509D02*
X1197161Y169989D01*
X1151441Y139509D02*
X1181921Y169989D01*
X1141362Y144669D02*
X1166681Y169989D01*
X1141362Y159909D02*
X1151441Y169989D01*
X511809Y-414480D02*
X525824Y-400465D01*
X495916Y-415132D02*
X526534Y-384515D01*
X480676Y-415132D02*
X526534Y-369275D01*
X465436Y-415132D02*
X526534Y-354035D01*
X450196Y-415132D02*
X526534Y-338795D01*
X434956Y-415132D02*
X526534Y-323555D01*
X419716Y-415132D02*
X526534Y-308315D01*
X404476Y-415132D02*
X526534Y-293075D01*
X389236Y-415132D02*
X526534Y-277835D01*
X373996Y-415132D02*
X526534Y-262595D01*
X358756Y-415132D02*
X526534Y-247355D01*
X343516Y-415132D02*
X526534Y-232115D01*
X328276Y-415132D02*
X526534Y-216875D01*
X313036Y-415132D02*
X526534Y-201635D01*
X297796Y-415132D02*
X525768Y-187160D01*
X284450Y-413238D02*
X519810Y-177879D01*
X276306Y-406143D02*
X509484Y-172964D01*
X272905Y-394304D02*
X494435Y-172774D01*
X272905Y-379063D02*
X479195Y-172774D01*
X272905Y-363824D02*
X463955Y-172774D01*
X272905Y-348583D02*
X448715Y-172774D01*
X272905Y-333344D02*
X433475Y-172774D01*
X272905Y-318104D02*
X418235Y-172774D01*
X272905Y-302864D02*
X402995Y-172774D01*
X272905Y-287624D02*
X387755Y-172774D01*
X272905Y-272383D02*
X372515Y-172774D01*
X272905Y-257143D02*
X357275Y-172774D01*
X272905Y-241903D02*
X342035Y-172774D01*
X272905Y-226663D02*
X326795Y-172774D01*
X272905Y-211423D02*
X311555Y-172774D01*
X272905Y-196183D02*
X296315Y-172774D01*
D61*
X290685Y192844D02*
Y177609D01*
X300842D01*
X308459Y187766D02*
X313538D01*
X316077Y185226D01*
Y177609D01*
X308459D01*
X305920Y180148D01*
X308459Y182687D01*
X316077D01*
X321155Y187766D02*
Y180148D01*
X323694Y177609D01*
X331312D01*
Y175070D01*
X328773Y172530D01*
X326234D01*
X331312Y177609D02*
Y187766D01*
X344008Y177609D02*
X338929D01*
X336390Y180148D01*
Y185226D01*
X338929Y187766D01*
X344008D01*
X346547Y185226D01*
Y182687D01*
X336390D01*
X351625Y187766D02*
Y177609D01*
Y182687D01*
X354165Y185226D01*
X356704Y187766D01*
X359243D01*
X298303Y-96711D02*
Y-81476D01*
X290685Y-89094D01*
X300842D01*
X290685Y-23055D02*
X293224Y-20516D01*
X298303D01*
X300842Y-23055D01*
Y-25594D01*
X298303Y-28134D01*
X295763D01*
X298303D01*
X300842Y-30673D01*
Y-33212D01*
X298303Y-35751D01*
X293224D01*
X290685Y-33212D01*
X300842Y25209D02*
X290685D01*
X300842Y35366D01*
Y37905D01*
X298303Y40444D01*
X293224D01*
X290685Y37905D01*
Y86169D02*
X295763D01*
X293224D01*
Y101404D01*
X290685Y98865D01*
X394803Y177609D02*
Y192844D01*
X404960Y177609D01*
Y192844D01*
X412577Y187766D02*
X417656D01*
X420195Y185226D01*
Y177609D01*
X412577D01*
X410038Y180148D01*
X412577Y182687D01*
X420195D01*
X425273Y177609D02*
Y187766D01*
X427812D01*
X430351Y185226D01*
Y177609D01*
Y185226D01*
X432891Y187766D01*
X435430Y185226D01*
Y177609D01*
X448126D02*
X443047D01*
X440508Y180148D01*
Y185226D01*
X443047Y187766D01*
X448126D01*
X450665Y185226D01*
Y182687D01*
X440508D01*
X394803Y-142436D02*
Y-157671D01*
X402421D01*
X404960Y-155132D01*
Y-152593D01*
X402421Y-150054D01*
X394803D01*
X402421D01*
X404960Y-147514D01*
Y-144975D01*
X402421Y-142436D01*
X394803D01*
X412577Y-157671D02*
X417656D01*
X420195Y-155132D01*
Y-150054D01*
X417656Y-147514D01*
X412577D01*
X410038Y-150054D01*
Y-155132D01*
X412577Y-157671D01*
X427812Y-144975D02*
Y-147514D01*
X425273D01*
X430351D01*
X427812D01*
Y-155132D01*
X430351Y-157671D01*
X440508Y-144975D02*
Y-147514D01*
X437969D01*
X443047D01*
X440508D01*
Y-155132D01*
X443047Y-157671D01*
X453204D02*
X458282D01*
X460822Y-155132D01*
Y-150054D01*
X458282Y-147514D01*
X453204D01*
X450665Y-150054D01*
Y-155132D01*
X453204Y-157671D01*
X465900D02*
Y-147514D01*
X468439D01*
X470978Y-150054D01*
Y-157671D01*
Y-150054D01*
X473517Y-147514D01*
X476057Y-150054D01*
Y-157671D01*
X503988Y-142436D02*
X498909D01*
X496370Y-144975D01*
Y-155132D01*
X498909Y-157671D01*
X503988D01*
X506527Y-155132D01*
Y-144975D01*
X503988Y-142436D01*
X511605Y-147514D02*
X516684Y-157671D01*
X521762Y-147514D01*
X534458Y-157671D02*
X529379D01*
X526840Y-155132D01*
Y-150054D01*
X529379Y-147514D01*
X534458D01*
X536997Y-150054D01*
Y-152593D01*
X526840D01*
X542075Y-147514D02*
Y-157671D01*
Y-152593D01*
X544614Y-150054D01*
X547154Y-147514D01*
X549693D01*
X557310Y-157671D02*
X562389D01*
X559850D01*
Y-142436D01*
X557310D01*
X572545Y-147514D02*
X577624D01*
X580163Y-150054D01*
Y-157671D01*
X572545D01*
X570006Y-155132D01*
X572545Y-152593D01*
X580163D01*
X585241Y-147514D02*
Y-155132D01*
X587780Y-157671D01*
X595398D01*
Y-160210D01*
X592859Y-162750D01*
X590320D01*
X595398Y-157671D02*
Y-147514D01*
X394803Y-111956D02*
Y-127191D01*
X402421D01*
X404960Y-124652D01*
Y-122113D01*
X402421Y-119574D01*
X394803D01*
X402421D01*
X404960Y-117035D01*
Y-114495D01*
X402421Y-111956D01*
X394803D01*
X412577Y-127191D02*
X417656D01*
X420195Y-124652D01*
Y-119574D01*
X417656Y-117035D01*
X412577D01*
X410038Y-119574D01*
Y-124652D01*
X412577Y-127191D01*
X427812Y-114495D02*
Y-117035D01*
X425273D01*
X430351D01*
X427812D01*
Y-124652D01*
X430351Y-127191D01*
X440508Y-114495D02*
Y-117035D01*
X437969D01*
X443047D01*
X440508D01*
Y-124652D01*
X443047Y-127191D01*
X453204D02*
X458282D01*
X460822Y-124652D01*
Y-119574D01*
X458282Y-117035D01*
X453204D01*
X450665Y-119574D01*
Y-124652D01*
X453204Y-127191D01*
X465900D02*
Y-117035D01*
X468439D01*
X470978Y-119574D01*
Y-127191D01*
Y-119574D01*
X473517Y-117035D01*
X476057Y-119574D01*
Y-127191D01*
X506527Y-114495D02*
X503988Y-111956D01*
X498909D01*
X496370Y-114495D01*
Y-117035D01*
X498909Y-119574D01*
X503988D01*
X506527Y-122113D01*
Y-124652D01*
X503988Y-127191D01*
X498909D01*
X496370Y-124652D01*
X514144Y-127191D02*
X519223D01*
X521762Y-124652D01*
Y-119574D01*
X519223Y-117035D01*
X514144D01*
X511605Y-119574D01*
Y-124652D01*
X514144Y-127191D01*
X526840D02*
X531919D01*
X529379D01*
Y-111956D01*
X526840D01*
X549693D02*
Y-127191D01*
X542075D01*
X539536Y-124652D01*
Y-119574D01*
X542075Y-117035D01*
X549693D01*
X562389Y-127191D02*
X557310D01*
X554771Y-124652D01*
Y-119574D01*
X557310Y-117035D01*
X562389D01*
X564928Y-119574D01*
Y-122113D01*
X554771D01*
X570006Y-117035D02*
Y-127191D01*
Y-122113D01*
X572545Y-119574D01*
X575085Y-117035D01*
X577624D01*
X394803Y-81476D02*
Y-96711D01*
X402421D01*
X404960Y-94172D01*
Y-91633D01*
X402421Y-89094D01*
X394803D01*
X402421D01*
X404960Y-86554D01*
Y-84015D01*
X402421Y-81476D01*
X394803D01*
X412577Y-96711D02*
X417656D01*
X420195Y-94172D01*
Y-89094D01*
X417656Y-86554D01*
X412577D01*
X410038Y-89094D01*
Y-94172D01*
X412577Y-96711D01*
X427812Y-84015D02*
Y-86554D01*
X425273D01*
X430351D01*
X427812D01*
Y-94172D01*
X430351Y-96711D01*
X440508Y-84015D02*
Y-86554D01*
X437969D01*
X443047D01*
X440508D01*
Y-94172D01*
X443047Y-96711D01*
X453204D02*
X458282D01*
X460822Y-94172D01*
Y-89094D01*
X458282Y-86554D01*
X453204D01*
X450665Y-89094D01*
Y-94172D01*
X453204Y-96711D01*
X465900D02*
Y-86554D01*
X468439D01*
X470978Y-89094D01*
Y-96711D01*
Y-89094D01*
X473517Y-86554D01*
X476057Y-89094D01*
Y-96711D01*
X496370Y-81476D02*
Y-96711D01*
X506527D01*
X514144Y-86554D02*
X519223D01*
X521762Y-89094D01*
Y-96711D01*
X514144D01*
X511605Y-94172D01*
X514144Y-91633D01*
X521762D01*
X526840Y-86554D02*
Y-94172D01*
X529379Y-96711D01*
X536997D01*
Y-99250D01*
X534458Y-101790D01*
X531919D01*
X536997Y-96711D02*
Y-86554D01*
X549693Y-96711D02*
X544614D01*
X542075Y-94172D01*
Y-89094D01*
X544614Y-86554D01*
X549693D01*
X552232Y-89094D01*
Y-91633D01*
X542075D01*
X557310Y-86554D02*
Y-96711D01*
Y-91633D01*
X559850Y-89094D01*
X562389Y-86554D01*
X564928D01*
X394803Y-50996D02*
Y-66231D01*
X402421D01*
X404960Y-63692D01*
Y-53535D01*
X402421Y-50996D01*
X394803D01*
X410038Y-66231D02*
X415116D01*
X412577D01*
Y-56075D01*
X410038D01*
X430351Y-66231D02*
X425273D01*
X422734Y-63692D01*
Y-58614D01*
X425273Y-56075D01*
X430351D01*
X432891Y-58614D01*
Y-61153D01*
X422734D01*
X437969Y-66231D02*
X443047D01*
X440508D01*
Y-50996D01*
X437969D01*
X458282Y-66231D02*
X453204D01*
X450665Y-63692D01*
Y-58614D01*
X453204Y-56075D01*
X458282D01*
X460822Y-58614D01*
Y-61153D01*
X450665D01*
X476057Y-56075D02*
X468439D01*
X465900Y-58614D01*
Y-63692D01*
X468439Y-66231D01*
X476057D01*
X483674Y-53535D02*
Y-56075D01*
X481135D01*
X486213D01*
X483674D01*
Y-63692D01*
X486213Y-66231D01*
X493831Y-56075D02*
Y-66231D01*
Y-61153D01*
X496370Y-58614D01*
X498909Y-56075D01*
X501448D01*
X509066Y-66231D02*
X514144D01*
X511605D01*
Y-56075D01*
X509066D01*
X531919D02*
X524301D01*
X521762Y-58614D01*
Y-63692D01*
X524301Y-66231D01*
X531919D01*
X562389D02*
X552232D01*
X562389Y-56075D01*
Y-53535D01*
X559850Y-50996D01*
X554771D01*
X552232Y-53535D01*
X394803Y-20516D02*
Y-35751D01*
X404960D01*
X412577Y-25594D02*
X417656D01*
X420195Y-28134D01*
Y-35751D01*
X412577D01*
X410038Y-33212D01*
X412577Y-30673D01*
X420195D01*
X425273Y-25594D02*
Y-33212D01*
X427812Y-35751D01*
X435430D01*
Y-38290D01*
X432891Y-40830D01*
X430351D01*
X435430Y-35751D02*
Y-25594D01*
X448126Y-35751D02*
X443047D01*
X440508Y-33212D01*
Y-28134D01*
X443047Y-25594D01*
X448126D01*
X450665Y-28134D01*
Y-30673D01*
X440508D01*
X455743Y-25594D02*
Y-35751D01*
Y-30673D01*
X458282Y-28134D01*
X460822Y-25594D01*
X463361D01*
X486213Y-35751D02*
X491292D01*
X488753D01*
Y-20516D01*
X486213Y-23055D01*
X404960Y7425D02*
X402421Y9964D01*
X397342D01*
X394803Y7425D01*
Y-2732D01*
X397342Y-5271D01*
X402421D01*
X404960Y-2732D01*
X412577Y-5271D02*
X417656D01*
X420195Y-2732D01*
Y2346D01*
X417656Y4886D01*
X412577D01*
X410038Y2346D01*
Y-2732D01*
X412577Y-5271D01*
X425273Y4886D02*
Y-5271D01*
Y-193D01*
X427812Y2346D01*
X430351Y4886D01*
X432891D01*
X448126Y-5271D02*
X443047D01*
X440508Y-2732D01*
Y2346D01*
X443047Y4886D01*
X448126D01*
X450665Y2346D01*
Y-193D01*
X440508D01*
X404960Y37905D02*
X402421Y40444D01*
X397342D01*
X394803Y37905D01*
Y35366D01*
X397342Y32826D01*
X402421D01*
X404960Y30287D01*
Y27748D01*
X402421Y25209D01*
X397342D01*
X394803Y27748D01*
X410038Y25209D02*
X415116D01*
X412577D01*
Y35366D01*
X410038D01*
X427812Y20130D02*
X430351D01*
X432891Y22670D01*
Y35366D01*
X425273D01*
X422734Y32826D01*
Y27748D01*
X425273Y25209D01*
X432891D01*
X437969D02*
Y35366D01*
X445587D01*
X448126Y32826D01*
Y25209D01*
X455743Y35366D02*
X460822D01*
X463361Y32826D01*
Y25209D01*
X455743D01*
X453204Y27748D01*
X455743Y30287D01*
X463361D01*
X468439Y25209D02*
X473517D01*
X470978D01*
Y40444D01*
X468439D01*
X496370D02*
Y25209D01*
X506527D01*
X514144Y35366D02*
X519223D01*
X521762Y32826D01*
Y25209D01*
X514144D01*
X511605Y27748D01*
X514144Y30287D01*
X521762D01*
X526840Y35366D02*
Y27748D01*
X529379Y25209D01*
X536997D01*
Y22670D01*
X534458Y20130D01*
X531919D01*
X536997Y25209D02*
Y35366D01*
X549693Y25209D02*
X544614D01*
X542075Y27748D01*
Y32826D01*
X544614Y35366D01*
X549693D01*
X552232Y32826D01*
Y30287D01*
X542075D01*
X557310Y35366D02*
Y25209D01*
Y30287D01*
X559850Y32826D01*
X562389Y35366D01*
X564928D01*
X587780Y25209D02*
X592859D01*
X590320D01*
Y40444D01*
X587780Y37905D01*
X394803Y70924D02*
Y55689D01*
X402421D01*
X404960Y58228D01*
Y68385D01*
X402421Y70924D01*
X394803D01*
X410038Y55689D02*
X415116D01*
X412577D01*
Y65845D01*
X410038D01*
X430351Y55689D02*
X425273D01*
X422734Y58228D01*
Y63306D01*
X425273Y65845D01*
X430351D01*
X432891Y63306D01*
Y60767D01*
X422734D01*
X437969Y55689D02*
X443047D01*
X440508D01*
Y70924D01*
X437969D01*
X458282Y55689D02*
X453204D01*
X450665Y58228D01*
Y63306D01*
X453204Y65845D01*
X458282D01*
X460822Y63306D01*
Y60767D01*
X450665D01*
X476057Y65845D02*
X468439D01*
X465900Y63306D01*
Y58228D01*
X468439Y55689D01*
X476057D01*
X483674Y68385D02*
Y65845D01*
X481135D01*
X486213D01*
X483674D01*
Y58228D01*
X486213Y55689D01*
X493831Y65845D02*
Y55689D01*
Y60767D01*
X496370Y63306D01*
X498909Y65845D01*
X501448D01*
X509066Y55689D02*
X514144D01*
X511605D01*
Y65845D01*
X509066D01*
X531919D02*
X524301D01*
X521762Y63306D01*
Y58228D01*
X524301Y55689D01*
X531919D01*
X552232D02*
X557310D01*
X554771D01*
Y70924D01*
X552232Y68385D01*
X394803Y101404D02*
X404960D01*
X399881D01*
Y86169D01*
X412577D02*
X417656D01*
X420195Y88708D01*
Y93786D01*
X417656Y96326D01*
X412577D01*
X410038Y93786D01*
Y88708D01*
X412577Y86169D01*
X425273Y81090D02*
Y96326D01*
X432891D01*
X435430Y93786D01*
Y88708D01*
X432891Y86169D01*
X425273D01*
X465900Y98865D02*
X463361Y101404D01*
X458282D01*
X455743Y98865D01*
Y88708D01*
X458282Y86169D01*
X463361D01*
X465900Y88708D01*
X473517Y86169D02*
X478596D01*
X481135Y88708D01*
Y93786D01*
X478596Y96326D01*
X473517D01*
X470978Y93786D01*
Y88708D01*
X473517Y86169D01*
X486213Y81090D02*
Y96326D01*
X493831D01*
X496370Y93786D01*
Y88708D01*
X493831Y86169D01*
X486213D01*
X501449Y81090D02*
Y96326D01*
X509066D01*
X511605Y93786D01*
Y88708D01*
X509066Y86169D01*
X501449D01*
X524301D02*
X519223D01*
X516684Y88708D01*
Y93786D01*
X519223Y96326D01*
X524301D01*
X526840Y93786D01*
Y91247D01*
X516684D01*
X531919Y96326D02*
Y86169D01*
Y91247D01*
X534458Y93786D01*
X536997Y96326D01*
X539536D01*
X394803Y131884D02*
X404960D01*
X399881D01*
Y116649D01*
X412577D02*
X417656D01*
X420195Y119188D01*
Y124266D01*
X417656Y126805D01*
X412577D01*
X410038Y124266D01*
Y119188D01*
X412577Y116649D01*
X425273Y111570D02*
Y126805D01*
X432891D01*
X435430Y124266D01*
Y119188D01*
X432891Y116649D01*
X425273D01*
X455743D02*
Y131884D01*
X460822Y126805D01*
X465900Y131884D01*
Y116649D01*
X473517Y126805D02*
X478596D01*
X481135Y124266D01*
Y116649D01*
X473517D01*
X470978Y119188D01*
X473517Y121727D01*
X481135D01*
X486213Y116649D02*
X493831D01*
X496370Y119188D01*
X493831Y121727D01*
X488753D01*
X486213Y124266D01*
X488753Y126805D01*
X496370D01*
X501449Y116649D02*
Y131884D01*
Y121727D02*
X509066Y126805D01*
X501449Y121727D02*
X509066Y116649D01*
X394803Y162364D02*
X404960D01*
X399881D01*
Y147129D01*
X412577D02*
X417656D01*
X420195Y149668D01*
Y154746D01*
X417656Y157285D01*
X412577D01*
X410038Y154746D01*
Y149668D01*
X412577Y147129D01*
X425273Y142050D02*
Y157285D01*
X432891D01*
X435430Y154746D01*
Y149668D01*
X432891Y147129D01*
X425273D01*
X463361Y162364D02*
X458282D01*
X455743Y159825D01*
Y149668D01*
X458282Y147129D01*
X463361D01*
X465900Y149668D01*
Y159825D01*
X463361Y162364D01*
X470978Y157285D02*
X476057Y147129D01*
X481135Y157285D01*
X493831Y147129D02*
X488753D01*
X486213Y149668D01*
Y154746D01*
X488753Y157285D01*
X493831D01*
X496370Y154746D01*
Y152207D01*
X486213D01*
X501449Y157285D02*
Y147129D01*
Y152207D01*
X503988Y154746D01*
X506527Y157285D01*
X509066D01*
X516684Y147129D02*
X521762D01*
X519223D01*
Y162364D01*
X516684D01*
X531919Y157285D02*
X536997D01*
X539536Y154746D01*
Y147129D01*
X531919D01*
X529379Y149668D01*
X531919Y152207D01*
X539536D01*
X544614Y157285D02*
Y149668D01*
X547154Y147129D01*
X554771D01*
Y144590D01*
X552232Y142050D01*
X549693D01*
X554771Y147129D02*
Y157285D01*
X630958Y177609D02*
Y192844D01*
X636036Y187766D01*
X641115Y192844D01*
Y177609D01*
X648732Y187766D02*
X653811D01*
X656350Y185226D01*
Y177609D01*
X648732D01*
X646193Y180148D01*
X648732Y182687D01*
X656350D01*
X663967Y190305D02*
Y187766D01*
X661428D01*
X666507D01*
X663967D01*
Y180148D01*
X666507Y177609D01*
X681742D02*
X676663D01*
X674124Y180148D01*
Y185226D01*
X676663Y187766D01*
X681742D01*
X684281Y185226D01*
Y182687D01*
X674124D01*
X689359Y187766D02*
Y177609D01*
Y182687D01*
X691898Y185226D01*
X694437Y187766D01*
X696977D01*
X704594Y177609D02*
X709673D01*
X707133D01*
Y187766D01*
X704594D01*
X719829D02*
X724908D01*
X727447Y185226D01*
Y177609D01*
X719829D01*
X717290Y180148D01*
X719829Y182687D01*
X727447D01*
X732525Y177609D02*
X737604D01*
X735064D01*
Y192844D01*
X732525D01*
X641115Y-114495D02*
X638576Y-111956D01*
X633497D01*
X630958Y-114495D01*
Y-117035D01*
X633497Y-119574D01*
X638576D01*
X641115Y-122113D01*
Y-124652D01*
X638576Y-127191D01*
X633497D01*
X630958Y-124652D01*
X648732Y-127191D02*
X653811D01*
X656350Y-124652D01*
Y-119574D01*
X653811Y-117035D01*
X648732D01*
X646193Y-119574D01*
Y-124652D01*
X648732Y-127191D01*
X661428D02*
X666507D01*
X663967D01*
Y-111956D01*
X661428D01*
X684281D02*
Y-127191D01*
X676663D01*
X674124Y-124652D01*
Y-119574D01*
X676663Y-117035D01*
X684281D01*
X696977Y-127191D02*
X691898D01*
X689359Y-124652D01*
Y-119574D01*
X691898Y-117035D01*
X696977D01*
X699516Y-119574D01*
Y-122113D01*
X689359D01*
X704594Y-117035D02*
Y-127191D01*
Y-122113D01*
X707133Y-119574D01*
X709673Y-117035D01*
X712212D01*
X735064Y-127191D02*
Y-111956D01*
X742682D01*
X745221Y-114495D01*
Y-119574D01*
X742682Y-122113D01*
X735064D01*
X740143D02*
X745221Y-127191D01*
X757917D02*
X752839D01*
X750299Y-124652D01*
Y-119574D01*
X752839Y-117035D01*
X757917D01*
X760456Y-119574D01*
Y-122113D01*
X750299D01*
X765535Y-127191D02*
X773152D01*
X775691Y-124652D01*
X773152Y-122113D01*
X768074D01*
X765535Y-119574D01*
X768074Y-117035D01*
X775691D01*
X780770Y-127191D02*
X785848D01*
X783309D01*
Y-117035D01*
X780770D01*
X793465Y-127191D02*
X801083D01*
X803622Y-124652D01*
X801083Y-122113D01*
X796005D01*
X793465Y-119574D01*
X796005Y-117035D01*
X803622D01*
X811240Y-114495D02*
Y-117035D01*
X808700D01*
X813779D01*
X811240D01*
Y-124652D01*
X813779Y-127191D01*
X630958Y-66231D02*
Y-50996D01*
X638576D01*
X641115Y-53535D01*
Y-58614D01*
X638576Y-61153D01*
X630958D01*
X646193Y-66231D02*
Y-50996D01*
X653811D01*
X656350Y-53535D01*
Y-58614D01*
X653811Y-61153D01*
X646193D01*
X661428Y-58614D02*
X671585D01*
X676663Y-53535D02*
X679202Y-50996D01*
X684281D01*
X686820Y-53535D01*
Y-63692D01*
X684281Y-66231D01*
X679202D01*
X676663Y-63692D01*
Y-53535D01*
X702055Y-66231D02*
X691898D01*
X702055Y-56075D01*
Y-53535D01*
X699516Y-50996D01*
X694437D01*
X691898Y-53535D01*
X707133Y-66231D02*
X712212D01*
X709673D01*
Y-50996D01*
X707133Y-53535D01*
X641115Y7425D02*
X638576Y9964D01*
X633497D01*
X630958Y7425D01*
Y-2732D01*
X633497Y-5271D01*
X638576D01*
X641115Y-2732D01*
X648732Y-5271D02*
X653811D01*
X656350Y-2732D01*
Y2346D01*
X653811Y4886D01*
X648732D01*
X646193Y2346D01*
Y-2732D01*
X648732Y-5271D01*
X661428Y4886D02*
Y-5271D01*
Y-193D01*
X663967Y2346D01*
X666507Y4886D01*
X669046D01*
X684281Y-5271D02*
X679202D01*
X676663Y-2732D01*
Y2346D01*
X679202Y4886D01*
X684281D01*
X686820Y2346D01*
Y-193D01*
X676663D01*
X691898Y2346D02*
X702055D01*
X707133Y7425D02*
X709673Y9964D01*
X714751D01*
X717290Y7425D01*
Y-2732D01*
X714751Y-5271D01*
X709673D01*
X707133Y-2732D01*
Y7425D01*
X729986Y-5271D02*
Y9964D01*
X722368Y2346D01*
X732525D01*
X747760Y-5271D02*
X737604D01*
X747760Y4886D01*
Y7425D01*
X745221Y9964D01*
X740143D01*
X737604Y7425D01*
X630958Y55689D02*
Y70924D01*
X638576D01*
X641115Y68385D01*
Y63306D01*
X638576Y60767D01*
X630958D01*
X646193Y55689D02*
Y70924D01*
X653811D01*
X656350Y68385D01*
Y63306D01*
X653811Y60767D01*
X646193D01*
X661428Y63306D02*
X671585D01*
X676663Y68385D02*
X679202Y70924D01*
X684281D01*
X686820Y68385D01*
Y58228D01*
X684281Y55689D01*
X679202D01*
X676663Y58228D01*
Y68385D01*
X702055Y55689D02*
X691898D01*
X702055Y65845D01*
Y68385D01*
X699516Y70924D01*
X694437D01*
X691898Y68385D01*
X707133Y55689D02*
X712212D01*
X709673D01*
Y70924D01*
X707133Y68385D01*
X641115Y129345D02*
X638576Y131884D01*
X633497D01*
X630958Y129345D01*
Y126805D01*
X633497Y124266D01*
X638576D01*
X641115Y121727D01*
Y119188D01*
X638576Y116649D01*
X633497D01*
X630958Y119188D01*
X648732Y116649D02*
X653811D01*
X656350Y119188D01*
Y124266D01*
X653811Y126805D01*
X648732D01*
X646193Y124266D01*
Y119188D01*
X648732Y116649D01*
X661428D02*
X666507D01*
X663967D01*
Y131884D01*
X661428D01*
X684281D02*
Y116649D01*
X676663D01*
X674124Y119188D01*
Y124266D01*
X676663Y126805D01*
X684281D01*
X696977Y116649D02*
X691898D01*
X689359Y119188D01*
Y124266D01*
X691898Y126805D01*
X696977D01*
X699516Y124266D01*
Y121727D01*
X689359D01*
X704594Y126805D02*
Y116649D01*
Y121727D01*
X707133Y124266D01*
X709673Y126805D01*
X712212D01*
X735064Y116649D02*
Y131884D01*
X742682D01*
X745221Y129345D01*
Y124266D01*
X742682Y121727D01*
X735064D01*
X740143D02*
X745221Y116649D01*
X757917D02*
X752839D01*
X750299Y119188D01*
Y124266D01*
X752839Y126805D01*
X757917D01*
X760456Y124266D01*
Y121727D01*
X750299D01*
X765535Y116649D02*
X773152D01*
X775691Y119188D01*
X773152Y121727D01*
X768074D01*
X765535Y124266D01*
X768074Y126805D01*
X775691D01*
X780770Y116649D02*
X785848D01*
X783309D01*
Y126805D01*
X780770D01*
X793465Y116649D02*
X801083D01*
X803622Y119188D01*
X801083Y121727D01*
X796005D01*
X793465Y124266D01*
X796005Y126805D01*
X803622D01*
X811240Y129345D02*
Y126805D01*
X808700D01*
X813779D01*
X811240D01*
Y119188D01*
X813779Y116649D01*
X849339Y192844D02*
X859496D01*
X854417D01*
Y177609D01*
X864574Y192844D02*
Y177609D01*
Y185226D01*
X867113Y187766D01*
X872191D01*
X874731Y185226D01*
Y177609D01*
X879809D02*
X884887D01*
X882348D01*
Y187766D01*
X879809D01*
X902662D02*
X895044D01*
X892505Y185226D01*
Y180148D01*
X895044Y177609D01*
X902662D01*
X907740D02*
Y192844D01*
Y182687D02*
X915358Y187766D01*
X907740Y182687D02*
X915358Y177609D01*
X922975D02*
Y187766D01*
X930593D01*
X933132Y185226D01*
Y177609D01*
X945828D02*
X940749D01*
X938210Y180148D01*
Y185226D01*
X940749Y187766D01*
X945828D01*
X948367Y185226D01*
Y182687D01*
X938210D01*
X953445Y177609D02*
X961063D01*
X963602Y180148D01*
X961063Y182687D01*
X955984D01*
X953445Y185226D01*
X955984Y187766D01*
X963602D01*
X968680Y177609D02*
X976298D01*
X978837Y180148D01*
X976298Y182687D01*
X971219D01*
X968680Y185226D01*
X971219Y187766D01*
X978837D01*
X849339Y-114495D02*
X851878Y-111956D01*
X856956D01*
X859496Y-114495D01*
Y-124652D01*
X856956Y-127191D01*
X851878D01*
X849339Y-124652D01*
Y-114495D01*
X867113Y-129730D02*
X869652Y-127191D01*
Y-124652D01*
X867113D01*
Y-127191D01*
X869652D01*
X867113Y-129730D01*
X864574Y-132270D01*
X879809Y-111956D02*
X889966D01*
Y-114495D01*
X879809Y-124652D01*
Y-127191D01*
X895044D02*
X900123D01*
X897583D01*
Y-111956D01*
X895044Y-114495D01*
X907740Y-127191D02*
Y-117035D01*
X910279D01*
X912818Y-119574D01*
Y-127191D01*
Y-119574D01*
X915358Y-117035D01*
X917897Y-119574D01*
Y-127191D01*
X922975D02*
X928053D01*
X925514D01*
Y-117035D01*
X922975D01*
X935671Y-127191D02*
X940749D01*
X938210D01*
Y-111956D01*
X935671D01*
X849339Y-96711D02*
X854417D01*
X851878D01*
Y-81476D01*
X849339Y-84015D01*
X864574Y-99250D02*
X867113Y-96711D01*
Y-94172D01*
X864574D01*
Y-96711D01*
X867113D01*
X864574Y-99250D01*
X862035Y-101790D01*
X884887Y-96711D02*
Y-81476D01*
X877270Y-89094D01*
X887427D01*
X892505Y-84015D02*
X895044Y-81476D01*
X900123D01*
X902662Y-84015D01*
Y-94172D01*
X900123Y-96711D01*
X895044D01*
X892505Y-94172D01*
Y-84015D01*
X907740Y-96711D02*
Y-86554D01*
X910279D01*
X912818Y-89094D01*
Y-96711D01*
Y-89094D01*
X915358Y-86554D01*
X917897Y-89094D01*
Y-96711D01*
X922975D02*
X928053D01*
X925514D01*
Y-86554D01*
X922975D01*
X935671Y-96711D02*
X940749D01*
X938210D01*
Y-81476D01*
X935671D01*
X849339Y-50996D02*
X859496D01*
Y-53535D01*
X849339Y-63692D01*
Y-66231D01*
X867113Y-68770D02*
X869652Y-66231D01*
Y-63692D01*
X867113D01*
Y-66231D01*
X869652D01*
X867113Y-68770D01*
X864574Y-71310D01*
X879809Y-53535D02*
X882348Y-50996D01*
X887427D01*
X889966Y-53535D01*
Y-63692D01*
X887427Y-66231D01*
X882348D01*
X879809Y-63692D01*
Y-53535D01*
X895044Y-63692D02*
X897583Y-66231D01*
X902662D01*
X905201Y-63692D01*
Y-53535D01*
X902662Y-50996D01*
X897583D01*
X895044Y-53535D01*
Y-56075D01*
X897583Y-58614D01*
X905201D01*
X910279Y-66231D02*
Y-56075D01*
X912818D01*
X915358Y-58614D01*
Y-66231D01*
Y-58614D01*
X917897Y-56075D01*
X920436Y-58614D01*
Y-66231D01*
X925514D02*
X930593D01*
X928053D01*
Y-56075D01*
X925514D01*
X938210Y-66231D02*
X943288D01*
X940749D01*
Y-50996D01*
X938210D01*
X849339Y-35751D02*
X854417D01*
X851878D01*
Y-20516D01*
X849339Y-23055D01*
X864574Y-38290D02*
X867113Y-35751D01*
Y-33212D01*
X864574D01*
Y-35751D01*
X867113D01*
X864574Y-38290D01*
X862035Y-40830D01*
X884887Y-35751D02*
Y-20516D01*
X877270Y-28134D01*
X887427D01*
X892505Y-23055D02*
X895044Y-20516D01*
X900123D01*
X902662Y-23055D01*
Y-33212D01*
X900123Y-35751D01*
X895044D01*
X892505Y-33212D01*
Y-23055D01*
X907740Y-35751D02*
Y-25594D01*
X910279D01*
X912818Y-28134D01*
Y-35751D01*
Y-28134D01*
X915358Y-25594D01*
X917897Y-28134D01*
Y-35751D01*
X922975D02*
X928053D01*
X925514D01*
Y-25594D01*
X922975D01*
X935671Y-35751D02*
X940749D01*
X938210D01*
Y-20516D01*
X935671D01*
X856956Y-5271D02*
Y9964D01*
X849339Y2346D01*
X859496D01*
X864574Y7425D02*
X867113Y9964D01*
X872191D01*
X874731Y7425D01*
Y4886D01*
X872191Y2346D01*
X869652D01*
X872191D01*
X874731Y-193D01*
Y-2732D01*
X872191Y-5271D01*
X867113D01*
X864574Y-2732D01*
X882348Y-7810D02*
X884887Y-5271D01*
Y-2732D01*
X882348D01*
Y-5271D01*
X884887D01*
X882348Y-7810D01*
X879809Y-10350D01*
X895044Y7425D02*
X897583Y9964D01*
X902662D01*
X905201Y7425D01*
Y4886D01*
X902662Y2346D01*
X900123D01*
X902662D01*
X905201Y-193D01*
Y-2732D01*
X902662Y-5271D01*
X897583D01*
X895044Y-2732D01*
X910279Y-5271D02*
X915358D01*
X912818D01*
Y9964D01*
X910279Y7425D01*
X922975Y-5271D02*
Y4886D01*
X925514D01*
X928053Y2346D01*
Y-5271D01*
Y2346D01*
X930593Y4886D01*
X933132Y2346D01*
Y-5271D01*
X938210D02*
X943288D01*
X940749D01*
Y4886D01*
X938210D01*
X950906Y-5271D02*
X955984D01*
X953445D01*
Y9964D01*
X950906D01*
X849339Y25209D02*
X854417D01*
X851878D01*
Y40444D01*
X849339Y37905D01*
X864574Y22670D02*
X867113Y25209D01*
Y27748D01*
X864574D01*
Y25209D01*
X867113D01*
X864574Y22670D01*
X862035Y20130D01*
X884887Y25209D02*
Y40444D01*
X877270Y32826D01*
X887427D01*
X892505Y37905D02*
X895044Y40444D01*
X900123D01*
X902662Y37905D01*
Y27748D01*
X900123Y25209D01*
X895044D01*
X892505Y27748D01*
Y37905D01*
X907740Y25209D02*
Y35366D01*
X910279D01*
X912818Y32826D01*
Y25209D01*
Y32826D01*
X915358Y35366D01*
X917897Y32826D01*
Y25209D01*
X922975D02*
X928053D01*
X925514D01*
Y35366D01*
X922975D01*
X935671Y25209D02*
X940749D01*
X938210D01*
Y40444D01*
X935671D01*
X849339Y70924D02*
X859496D01*
Y68385D01*
X849339Y58228D01*
Y55689D01*
X867113Y53150D02*
X869652Y55689D01*
Y58228D01*
X867113D01*
Y55689D01*
X869652D01*
X867113Y53150D01*
X864574Y50610D01*
X879809Y68385D02*
X882348Y70924D01*
X887427D01*
X889966Y68385D01*
Y58228D01*
X887427Y55689D01*
X882348D01*
X879809Y58228D01*
Y68385D01*
X895044Y58228D02*
X897583Y55689D01*
X902662D01*
X905201Y58228D01*
Y68385D01*
X902662Y70924D01*
X897583D01*
X895044Y68385D01*
Y65845D01*
X897583Y63306D01*
X905201D01*
X910279Y55689D02*
Y65845D01*
X912818D01*
X915358Y63306D01*
Y55689D01*
Y63306D01*
X917897Y65845D01*
X920436Y63306D01*
Y55689D01*
X925514D02*
X930593D01*
X928053D01*
Y65845D01*
X925514D01*
X938210Y55689D02*
X943288D01*
X940749D01*
Y70924D01*
X938210D01*
X849339Y86169D02*
X854417D01*
X851878D01*
Y101404D01*
X849339Y98865D01*
X864574Y83630D02*
X867113Y86169D01*
Y88708D01*
X864574D01*
Y86169D01*
X867113D01*
X864574Y83630D01*
X862035Y81090D01*
X884887Y86169D02*
Y101404D01*
X877270Y93786D01*
X887427D01*
X892505Y98865D02*
X895044Y101404D01*
X900123D01*
X902662Y98865D01*
Y88708D01*
X900123Y86169D01*
X895044D01*
X892505Y88708D01*
Y98865D01*
X907740Y86169D02*
Y96326D01*
X910279D01*
X912818Y93786D01*
Y86169D01*
Y93786D01*
X915358Y96326D01*
X917897Y93786D01*
Y86169D01*
X922975D02*
X928053D01*
X925514D01*
Y96326D01*
X922975D01*
X935671Y86169D02*
X940749D01*
X938210D01*
Y101404D01*
X935671D01*
X849339Y129345D02*
X851878Y131884D01*
X856956D01*
X859496Y129345D01*
Y119188D01*
X856956Y116649D01*
X851878D01*
X849339Y119188D01*
Y129345D01*
X867113Y114110D02*
X869652Y116649D01*
Y119188D01*
X867113D01*
Y116649D01*
X869652D01*
X867113Y114110D01*
X864574Y111570D01*
X879809Y131884D02*
X889966D01*
Y129345D01*
X879809Y119188D01*
Y116649D01*
X895044D02*
X900123D01*
X897583D01*
Y131884D01*
X895044Y129345D01*
X907740Y116649D02*
Y126805D01*
X910279D01*
X912818Y124266D01*
Y116649D01*
Y124266D01*
X915358Y126805D01*
X917897Y124266D01*
Y116649D01*
X922975D02*
X928053D01*
X925514D01*
Y126805D01*
X922975D01*
X935671Y116649D02*
X940749D01*
X938210D01*
Y131884D01*
X935671D01*
X1024554Y190305D02*
X1022014Y192844D01*
X1016936D01*
X1014397Y190305D01*
Y180148D01*
X1016936Y177609D01*
X1022014D01*
X1024554Y180148D01*
X1032171Y177609D02*
X1037250D01*
X1039789Y180148D01*
Y185226D01*
X1037250Y187766D01*
X1032171D01*
X1029632Y185226D01*
Y180148D01*
X1032171Y177609D01*
X1044867D02*
Y187766D01*
X1052485D01*
X1055024Y185226D01*
Y177609D01*
X1060102D02*
X1067720D01*
X1070259Y180148D01*
X1067720Y182687D01*
X1062641D01*
X1060102Y185226D01*
X1062641Y187766D01*
X1070259D01*
X1077877Y190305D02*
Y187766D01*
X1075337D01*
X1080416D01*
X1077877D01*
Y180148D01*
X1080416Y177609D01*
X1090572Y187766D02*
X1095651D01*
X1098190Y185226D01*
Y177609D01*
X1090572D01*
X1088033Y180148D01*
X1090572Y182687D01*
X1098190D01*
X1103268Y177609D02*
Y187766D01*
X1110886D01*
X1113425Y185226D01*
Y177609D01*
X1121042Y190305D02*
Y187766D01*
X1118503D01*
X1123582D01*
X1121042D01*
Y180148D01*
X1123582Y177609D01*
X1022014Y-127191D02*
Y-111956D01*
X1014397Y-119574D01*
X1024554D01*
X1029632Y-127191D02*
Y-124652D01*
X1032171D01*
Y-127191D01*
X1029632D01*
X1052485D02*
X1042328D01*
X1052485Y-117035D01*
Y-114495D01*
X1049946Y-111956D01*
X1044867D01*
X1042328Y-114495D01*
X1022014Y-66231D02*
Y-50996D01*
X1014397Y-58614D01*
X1024554D01*
X1029632Y-66231D02*
Y-63692D01*
X1032171D01*
Y-66231D01*
X1029632D01*
X1052485D02*
X1042328D01*
X1052485Y-56075D01*
Y-53535D01*
X1049946Y-50996D01*
X1044867D01*
X1042328Y-53535D01*
X1022014Y-5271D02*
Y9964D01*
X1014397Y2346D01*
X1024554D01*
X1029632Y-5271D02*
Y-2732D01*
X1032171D01*
Y-5271D01*
X1029632D01*
X1052485D02*
X1042328D01*
X1052485Y4886D01*
Y7425D01*
X1049946Y9964D01*
X1044867D01*
X1042328Y7425D01*
X1022014Y55689D02*
Y70924D01*
X1014397Y63306D01*
X1024554D01*
X1029632Y55689D02*
Y58228D01*
X1032171D01*
Y55689D01*
X1029632D01*
X1052485D02*
X1042328D01*
X1052485Y65845D01*
Y68385D01*
X1049946Y70924D01*
X1044867D01*
X1042328Y68385D01*
X1022014Y116649D02*
Y131884D01*
X1014397Y124266D01*
X1024554D01*
X1029632Y116649D02*
Y119188D01*
X1032171D01*
Y116649D01*
X1029632D01*
X1052485D02*
X1042328D01*
X1052485Y126805D01*
Y129345D01*
X1049946Y131884D01*
X1044867D01*
X1042328Y129345D01*
X1159142Y192844D02*
Y177609D01*
X1166759D01*
X1169298Y180148D01*
Y182687D01*
X1166759Y185226D01*
X1159142D01*
X1166759D01*
X1169298Y187766D01*
Y190305D01*
X1166759Y192844D01*
X1159142D01*
X1176916Y177609D02*
X1181994D01*
X1184533Y180148D01*
Y185226D01*
X1181994Y187766D01*
X1176916D01*
X1174377Y185226D01*
Y180148D01*
X1176916Y177609D01*
X1192151Y187766D02*
X1197229D01*
X1199769Y185226D01*
Y177609D01*
X1192151D01*
X1189612Y180148D01*
X1192151Y182687D01*
X1199769D01*
X1204847Y187766D02*
Y177609D01*
Y182687D01*
X1207386Y185226D01*
X1209925Y187766D01*
X1212464D01*
X1230239Y192844D02*
Y177609D01*
X1222621D01*
X1220082Y180148D01*
Y185226D01*
X1222621Y187766D01*
X1230239D01*
X1250552Y192844D02*
Y177609D01*
X1260709D01*
X1268326Y187766D02*
X1273405D01*
X1275944Y185226D01*
Y177609D01*
X1268326D01*
X1265787Y180148D01*
X1268326Y182687D01*
X1275944D01*
X1281022Y187766D02*
Y180148D01*
X1283561Y177609D01*
X1291179D01*
Y175070D01*
X1288640Y172530D01*
X1286101D01*
X1291179Y177609D02*
Y187766D01*
X1303875Y177609D02*
X1298797D01*
X1296257Y180148D01*
Y185226D01*
X1298797Y187766D01*
X1303875D01*
X1306414Y185226D01*
Y182687D01*
X1296257D01*
X1311492Y187766D02*
Y177609D01*
Y182687D01*
X1314032Y185226D01*
X1316571Y187766D01*
X1319110D01*
X1352119Y190305D02*
X1349580Y192844D01*
X1344502D01*
X1341962Y190305D01*
Y187766D01*
X1344502Y185226D01*
X1349580D01*
X1352119Y182687D01*
Y180148D01*
X1349580Y177609D01*
X1344502D01*
X1341962Y180148D01*
X1359737Y190305D02*
Y187766D01*
X1357198D01*
X1362276D01*
X1359737D01*
Y180148D01*
X1362276Y177609D01*
X1372433Y187766D02*
X1377511D01*
X1380050Y185226D01*
Y177609D01*
X1372433D01*
X1369893Y180148D01*
X1372433Y182687D01*
X1380050D01*
X1395285Y187766D02*
X1387668D01*
X1385129Y185226D01*
Y180148D01*
X1387668Y177609D01*
X1395285D01*
X1400364D02*
Y192844D01*
Y182687D02*
X1407981Y187766D01*
X1400364Y182687D02*
X1407981Y177609D01*
D62*
X102968Y-2032D02*
Y2032D01*
X107032D01*
Y-2032D01*
X102968D01*
Y122968D02*
Y127032D01*
X107032D01*
Y122968D01*
X102968D01*
X-107032D02*
Y127032D01*
X-102968D01*
Y122968D01*
X-107032D01*
Y-2032D02*
Y2032D01*
X-102968D01*
Y-2032D01*
X-107032D01*
X-91675Y105039D02*
X-93707Y109103D01*
X-89643D01*
X-91675Y105039D01*
X-75754Y90472D02*
X-77786Y94537D01*
X-73722D01*
X-75754Y90472D01*
X-65503Y107223D02*
X-67535Y111287D01*
X-63471D01*
X-65503Y107223D01*
X92505Y-71285D02*
X90472Y-67221D01*
X94537D01*
X92505Y-71285D01*
X116506D02*
X114474Y-67221D01*
X118538D01*
X116506Y-71285D01*
X79254Y117224D02*
X77222Y121288D01*
X81286D01*
X79254Y117224D01*
X-94505Y-71535D02*
X-96537Y-67471D01*
X-92473D01*
X-94505Y-71535D01*
X55253Y117724D02*
X53221Y121788D01*
X57285D01*
X55253Y117724D01*
X-117006Y-70285D02*
X-119038Y-66221D01*
X-114974D01*
X-117006Y-70285D01*
X-19500Y21468D02*
X-21532Y25532D01*
X-17468D01*
X-19500Y21468D01*
X-30250D02*
X-32282Y25532D01*
X-28218D01*
X-30250Y21468D01*
X-41250Y21718D02*
X-43282Y25782D01*
X-39218D01*
X-41250Y21718D01*
X-40000Y31968D02*
X-42032Y36032D01*
X-37968D01*
X-40000Y31968D01*
X-30000Y33968D02*
X-32032Y38032D01*
X-27968D01*
X-30000Y33968D01*
X-20000Y31968D02*
X-22032Y36032D01*
X-17968D01*
X-20000Y31968D01*
X18000Y40968D02*
X15968Y45032D01*
X20032D01*
X18000Y40968D01*
X29000D02*
X26968Y45032D01*
X31032D01*
X29000Y40968D01*
X40000D02*
X37968Y45032D01*
X42032D01*
X40000Y40968D01*
Y30968D02*
X37968Y35032D01*
X42032D01*
X40000Y30968D01*
X29000D02*
X26968Y35032D01*
X31032D01*
X29000Y30968D01*
X18000D02*
X15968Y35032D01*
X20032D01*
X18000Y30968D01*
X-10000Y23968D02*
X-12032Y28032D01*
X-7968D01*
X-10000Y23968D01*
Y32968D02*
X-12032Y37032D01*
X-7968D01*
X-10000Y32968D01*
X-56000Y25968D02*
X-58032Y30032D01*
X-53968D01*
X-56000Y25968D01*
X-68000Y37968D02*
X-70032Y42032D01*
X-65968D01*
X-68000Y37968D01*
Y25968D02*
X-70032Y30032D01*
X-65968D01*
X-68000Y25968D01*
X-56000Y37968D02*
X-58032Y42032D01*
X-53968D01*
X-56000Y37968D01*
X-54000Y12968D02*
X-56032Y17032D01*
X-51968D01*
X-54000Y12968D01*
X-62750D02*
X-64782Y17032D01*
X-60718D01*
X-62750Y12968D01*
X-72000D02*
X-74032Y17032D01*
X-69968D01*
X-72000Y12968D01*
X-80000Y15968D02*
X-82032Y20032D01*
X-77968D01*
X-80000Y15968D01*
Y26968D02*
X-82032Y31032D01*
X-77968D01*
X-80000Y26968D01*
Y37968D02*
X-82032Y42032D01*
X-77968D01*
X-80000Y37968D01*
X27000Y1968D02*
X24968Y6032D01*
X29032D01*
X27000Y1968D01*
X111699Y76068D02*
X109668Y80132D01*
X113731D01*
X111699Y76068D01*
Y46068D02*
X109668Y50132D01*
X113731D01*
X111699Y46068D01*
Y-43932D02*
X109668Y-39868D01*
X113731D01*
X111699Y-43932D01*
X104199Y91068D02*
X102168Y95132D01*
X106231D01*
X104199Y91068D01*
X96699Y76068D02*
X94668Y80132D01*
X98731D01*
X96699Y76068D01*
X104199Y61068D02*
X102168Y65132D01*
X106231D01*
X104199Y61068D01*
X96699Y46068D02*
X94668Y50132D01*
X98731D01*
X96699Y46068D01*
X104199Y31068D02*
X102168Y35132D01*
X106231D01*
X104199Y31068D01*
Y-28932D02*
X102168Y-24868D01*
X106231D01*
X104199Y-28932D01*
X96699Y-43932D02*
X94668Y-39868D01*
X98731D01*
X96699Y-43932D01*
X104199Y-58932D02*
X102168Y-54868D01*
X106231D01*
X104199Y-58932D01*
X81699Y106068D02*
X79668Y110132D01*
X83731D01*
X81699Y106068D01*
X89199Y91068D02*
X87168Y95132D01*
X91231D01*
X89199Y91068D01*
X81699Y76068D02*
X79668Y80132D01*
X83731D01*
X81699Y76068D01*
X89199Y61068D02*
X87168Y65132D01*
X91231D01*
X89199Y61068D01*
X81699Y46068D02*
X79668Y50132D01*
X83731D01*
X81699Y46068D01*
X89199Y31068D02*
X87168Y35132D01*
X91231D01*
X89199Y31068D01*
X81699Y16068D02*
X79668Y20132D01*
X83731D01*
X81699Y16068D01*
X89199Y-28932D02*
X87168Y-24868D01*
X91231D01*
X89199Y-28932D01*
X81699Y-43932D02*
X79668Y-39868D01*
X83731D01*
X81699Y-43932D01*
X89199Y-58932D02*
X87168Y-54868D01*
X91231D01*
X89199Y-58932D01*
X81699Y-73932D02*
X79668Y-69868D01*
X83731D01*
X81699Y-73932D01*
X66700Y106068D02*
X64668Y110132D01*
X68731D01*
X66700Y106068D01*
X74200Y91068D02*
X72168Y95132D01*
X76231D01*
X74200Y91068D01*
X66700Y76068D02*
X64668Y80132D01*
X68731D01*
X66700Y76068D01*
X74200Y61068D02*
X72168Y65132D01*
X76231D01*
X74200Y61068D01*
X66700Y46068D02*
X64668Y50132D01*
X68731D01*
X66700Y46068D01*
Y16068D02*
X64668Y20132D01*
X68731D01*
X66700Y16068D01*
Y-43932D02*
X64668Y-39868D01*
X68731D01*
X66700Y-43932D01*
X74200Y-58932D02*
X72168Y-54868D01*
X76231D01*
X74200Y-58932D01*
X66700Y-73932D02*
X64668Y-69868D01*
X68731D01*
X66700Y-73932D01*
X51700Y106068D02*
X49668Y110132D01*
X53731D01*
X51700Y106068D01*
X59200Y91068D02*
X57168Y95132D01*
X61231D01*
X59200Y91068D01*
X51700Y76068D02*
X49668Y80132D01*
X53731D01*
X51700Y76068D01*
X59200Y61068D02*
X57168Y65132D01*
X61231D01*
X59200Y61068D01*
X51700Y-43932D02*
X49668Y-39868D01*
X53731D01*
X51700Y-43932D01*
X44200Y121068D02*
X42168Y125132D01*
X46231D01*
X44200Y121068D01*
X36700Y106068D02*
X34667Y110132D01*
X38732D01*
X36700Y106068D01*
X44200Y91068D02*
X42168Y95132D01*
X46231D01*
X44200Y91068D01*
X36700Y76068D02*
X34667Y80132D01*
X38732D01*
X36700Y76068D01*
X44200Y61068D02*
X42168Y65132D01*
X46231D01*
X44200Y61068D01*
X29200Y121068D02*
X27167Y125132D01*
X31232D01*
X29200Y121068D01*
X21700Y106068D02*
X19668Y110132D01*
X23732D01*
X21700Y106068D01*
X29200Y91068D02*
X27167Y95132D01*
X31232D01*
X29200Y91068D01*
X21700Y76068D02*
X19668Y80132D01*
X23732D01*
X21700Y76068D01*
X29200Y61068D02*
X27167Y65132D01*
X31232D01*
X29200Y61068D01*
X21700Y-73932D02*
X19668Y-69868D01*
X23732D01*
X21700Y-73932D01*
X14200Y121068D02*
X12168Y125132D01*
X16231D01*
X14200Y121068D01*
X6700Y106068D02*
X4668Y110132D01*
X8732D01*
X6700Y106068D01*
X14200Y91068D02*
X12168Y95132D01*
X16231D01*
X14200Y91068D01*
X6700Y76068D02*
X4668Y80132D01*
X8732D01*
X6700Y76068D01*
X14200Y61068D02*
X12168Y65132D01*
X16231D01*
X14200Y61068D01*
Y-58932D02*
X12168Y-54868D01*
X16231D01*
X14200Y-58932D01*
X6700Y-73932D02*
X4668Y-69868D01*
X8732D01*
X6700Y-73932D01*
X-800Y121068D02*
X-2833Y125132D01*
X1231D01*
X-800Y121068D01*
X-8300Y106068D02*
X-10332Y110132D01*
X-6268D01*
X-8300Y106068D01*
X-800Y91068D02*
X-2833Y95132D01*
X1231D01*
X-800Y91068D01*
X-8300Y76068D02*
X-10332Y80132D01*
X-6268D01*
X-8300Y76068D01*
X-800Y61068D02*
X-2833Y65132D01*
X1231D01*
X-800Y61068D01*
X-8300Y-73932D02*
X-10332Y-69868D01*
X-6268D01*
X-8300Y-73932D01*
X-15800Y121068D02*
X-17832Y125132D01*
X-13769D01*
X-15800Y121068D01*
X-23300Y106068D02*
X-25332Y110132D01*
X-21268D01*
X-23300Y106068D01*
X-15800Y91068D02*
X-17832Y95132D01*
X-13769D01*
X-15800Y91068D01*
X-23300Y76068D02*
X-25332Y80132D01*
X-21268D01*
X-23300Y76068D01*
X-15800Y61068D02*
X-17832Y65132D01*
X-13769D01*
X-15800Y61068D01*
Y-58932D02*
X-17832Y-54868D01*
X-13769D01*
X-15800Y-58932D01*
X-23300Y-73932D02*
X-25332Y-69868D01*
X-21268D01*
X-23300Y-73932D01*
X-30800Y121068D02*
X-32832Y125132D01*
X-28768D01*
X-30800Y121068D01*
X-38300Y106068D02*
X-40332Y110132D01*
X-36268D01*
X-38300Y106068D01*
X-30800Y91068D02*
X-32832Y95132D01*
X-28768D01*
X-30800Y91068D01*
X-38300Y76068D02*
X-40332Y80132D01*
X-36268D01*
X-38300Y76068D01*
X-30800Y61068D02*
X-32832Y65132D01*
X-28768D01*
X-30800Y61068D01*
X-45800Y121068D02*
X-47832Y125132D01*
X-43768D01*
X-45800Y121068D01*
X-53300Y106068D02*
X-55332Y110132D01*
X-51268D01*
X-53300Y106068D01*
X-45800Y91068D02*
X-47832Y95132D01*
X-43768D01*
X-45800Y91068D01*
X-53300Y76068D02*
X-55332Y80132D01*
X-51268D01*
X-53300Y76068D01*
X-45800Y61068D02*
X-47832Y65132D01*
X-43768D01*
X-45800Y61068D01*
X-53300Y-43932D02*
X-55332Y-39868D01*
X-51268D01*
X-53300Y-43932D01*
X-60800Y121068D02*
X-62832Y125132D01*
X-58768D01*
X-60800Y121068D01*
Y91068D02*
X-62832Y95132D01*
X-58768D01*
X-60800Y91068D01*
X-68300Y76068D02*
X-70332Y80132D01*
X-66268D01*
X-68300Y76068D01*
X-60800Y61068D02*
X-62832Y65132D01*
X-58768D01*
X-60800Y61068D01*
X-68300Y-73932D02*
X-70332Y-69868D01*
X-66268D01*
X-68300Y-73932D01*
X-75800Y121068D02*
X-77832Y125132D01*
X-73768D01*
X-75800Y121068D01*
X-83300Y76068D02*
X-85332Y80132D01*
X-81268D01*
X-83300Y76068D01*
X-75800Y61068D02*
X-77832Y65132D01*
X-73768D01*
X-75800Y61068D01*
X-83300Y46068D02*
X-85332Y50132D01*
X-81268D01*
X-83300Y46068D01*
Y-73932D02*
X-85332Y-69868D01*
X-81268D01*
X-83300Y-73932D01*
X-90800Y91068D02*
X-92832Y95132D01*
X-88768D01*
X-90800Y91068D01*
X-98300Y76068D02*
X-100332Y80132D01*
X-96268D01*
X-98300Y76068D01*
X-90800Y61068D02*
X-92832Y65132D01*
X-88768D01*
X-90800Y61068D01*
X-98300Y46068D02*
X-100332Y50132D01*
X-96268D01*
X-98300Y46068D01*
X-90800Y31068D02*
X-92832Y35132D01*
X-88768D01*
X-90800Y31068D01*
X-98300Y-43932D02*
X-100332Y-39868D01*
X-96268D01*
X-98300Y-43932D01*
X-90800Y-58932D02*
X-92832Y-54868D01*
X-88768D01*
X-90800Y-58932D01*
X-105800Y91068D02*
X-107832Y95132D01*
X-103768D01*
X-105800Y91068D01*
X-113300Y76068D02*
X-115332Y80132D01*
X-111268D01*
X-113300Y76068D01*
X-105800Y61068D02*
X-107832Y65132D01*
X-103768D01*
X-105800Y61068D01*
X-113300Y46068D02*
X-115332Y50132D01*
X-111268D01*
X-113300Y46068D01*
X-105800Y31068D02*
X-107832Y35132D01*
X-103768D01*
X-105800Y31068D01*
Y-28932D02*
X-107832Y-24868D01*
X-103768D01*
X-105800Y-28932D01*
X-113300Y-43932D02*
X-115332Y-39868D01*
X-111268D01*
X-113300Y-43932D01*
X-105800Y-58932D02*
X-107832Y-54868D01*
X-103768D01*
X-105800Y-58932D01*
X-25414Y-11642D02*
X-27446Y-7578D01*
X-23382D01*
X-25414Y-11642D01*
X-30000Y50968D02*
X-32032Y55032D01*
X-27968D01*
X-30000Y50968D01*
X-10000D02*
X-12032Y55032D01*
X-7968D01*
X-10000Y50968D01*
X-50000D02*
X-52032Y55032D01*
X-47968D01*
X-50000Y50968D01*
X-20000D02*
X-22032Y55032D01*
X-17968D01*
X-20000Y50968D01*
X-40000D02*
X-42032Y55032D01*
X-37968D01*
X-40000Y50968D01*
X50000Y25968D02*
X47968Y30032D01*
X52032D01*
X50000Y25968D01*
Y35968D02*
X47968Y40032D01*
X52032D01*
X50000Y35968D01*
Y45968D02*
X47968Y50032D01*
X52032D01*
X50000Y45968D01*
X45000Y50968D02*
X42968Y55032D01*
X47032D01*
X45000Y50968D01*
X35000D02*
X32968Y55032D01*
X37032D01*
X35000Y50968D01*
X25000D02*
X22968Y55032D01*
X27032D01*
X25000Y50968D01*
X15000D02*
X12968Y55032D01*
X17032D01*
X15000Y50968D01*
X10000Y45968D02*
X7968Y50032D01*
X12032D01*
X10000Y45968D01*
Y35968D02*
X7968Y40032D01*
X12032D01*
X10000Y35968D01*
Y25968D02*
X7968Y30032D01*
X12032D01*
X10000Y25968D01*
X8250Y-45282D02*
X6218Y-41218D01*
X10282D01*
X8250Y-45282D01*
X2750Y-45532D02*
X718Y-41468D01*
X4782D01*
X2750Y-45532D01*
X-3866Y-45032D02*
X-5898Y-40968D01*
X-1834D01*
X-3866Y-45032D01*
X-61250Y-6282D02*
X-63282Y-2218D01*
X-59218D01*
X-61250Y-6282D01*
X-80000Y-5962D02*
X-82032Y-1899D01*
X-77968D01*
X-80000Y-5962D01*
X-41750Y-5782D02*
X-43782Y-1718D01*
X-39718D01*
X-41750Y-5782D01*
X-54250Y-6282D02*
X-56282Y-2218D01*
X-52218D01*
X-54250Y-6282D01*
X-61500Y-52782D02*
X-63532Y-48718D01*
X-59468D01*
X-61500Y-52782D01*
X-78500Y-56282D02*
X-80532Y-52218D01*
X-76468D01*
X-78500Y-56282D01*
X-70250Y-63782D02*
X-72282Y-59718D01*
X-68218D01*
X-70250Y-63782D01*
X19500Y5218D02*
X17468Y9282D01*
X21532D01*
X19500Y5218D01*
X20000Y10468D02*
X17968Y14532D01*
X22032D01*
X20000Y10468D01*
X30500Y10968D02*
X28468Y15032D01*
X32532D01*
X30500Y10968D01*
X25000D02*
X22968Y15032D01*
X27032D01*
X25000Y10968D01*
X-12000Y15968D02*
X-14032Y20032D01*
X-9968D01*
X-12000Y15968D01*
X-20000Y12968D02*
X-22032Y17032D01*
X-17968D01*
X-20000Y12968D01*
X-29000D02*
X-31032Y17032D01*
X-26968D01*
X-29000Y12968D01*
X-38000D02*
X-40032Y17032D01*
X-35968D01*
X-38000Y12968D01*
X-46000D02*
X-48032Y17032D01*
X-43968D01*
X-46000Y12968D01*
X-78750Y-41782D02*
X-80782Y-37718D01*
X-76718D01*
X-78750Y-41782D01*
X-79250Y-46782D02*
X-81282Y-42718D01*
X-77218D01*
X-79250Y-46782D01*
X-84500Y-43532D02*
X-86532Y-39468D01*
X-82468D01*
X-84500Y-43532D01*
X-82750Y-38032D02*
X-84782Y-33968D01*
X-80718D01*
X-82750Y-38032D01*
X-20000Y-21032D02*
X-22032Y-16968D01*
X-17968D01*
X-20000Y-21032D01*
X-25000Y-18032D02*
X-27032Y-13968D01*
X-22968D01*
X-25000Y-18032D01*
X-5046Y-50067D02*
X-7078Y-46003D01*
X-3014D01*
X-5046Y-50067D01*
X-17000Y-50782D02*
X-19032Y-46718D01*
X-14968D01*
X-17000Y-50782D01*
X-12250Y-46032D02*
X-14282Y-41968D01*
X-10218D01*
X-12250Y-46032D01*
X28000Y-60532D02*
X25968Y-56468D01*
X30032D01*
X28000Y-60532D01*
X44000Y-76782D02*
X41968Y-72718D01*
X46032D01*
X44000Y-76782D01*
X60000Y-60282D02*
X57968Y-56218D01*
X62032D01*
X60000Y-60282D01*
X43750Y-45282D02*
X41718Y-41218D01*
X45782D01*
X43750Y-45282D01*
X-43750Y-76532D02*
X-45782Y-72468D01*
X-41718D01*
X-43750Y-76532D01*
X-59000Y-60532D02*
X-61032Y-56468D01*
X-56968D01*
X-59000Y-60532D01*
X-43000Y-45532D02*
X-45032Y-41468D01*
X-40968D01*
X-43000Y-45532D01*
X-27500Y-61032D02*
X-29532Y-56968D01*
X-25468D01*
X-27500Y-61032D01*
X-22750Y-46032D02*
X-24782Y-41968D01*
X-20718D01*
X-22750Y-46032D01*
D63*
X29782Y-2250D02*
X28378Y-317D01*
X26106Y-1056D01*
Y-3444D01*
X28378Y-4183D01*
X29782Y-2250D01*
X-1968Y-11000D02*
X-3372Y-9067D01*
X-5644Y-9806D01*
Y-12194D01*
X-3372Y-12933D01*
X-1968Y-11000D01*
X-7218Y-7750D02*
X-8622Y-5817D01*
X-10894Y-6556D01*
Y-8944D01*
X-8622Y-9683D01*
X-7218Y-7750D01*
X51032Y20000D02*
X49628Y21933D01*
X47356Y21194D01*
Y18806D01*
X49628Y18068D01*
X51032Y20000D01*
X12032Y19000D02*
X10628Y20933D01*
X8356Y20194D01*
Y17806D01*
X10628Y17067D01*
X12032Y19000D01*
D64*
X272905Y169989D02*
X1425761D01*
X272905Y200469D02*
X1425761D01*
X272905Y-165291D02*
Y200469D01*
Y-165291D02*
X377023D01*
X272905Y-134811D02*
X377023D01*
X272905Y-104331D02*
X377023D01*
X272905Y-73851D02*
X377023D01*
X272905Y-43371D02*
X377023D01*
X272905Y-12891D02*
X377023D01*
X272905Y17589D02*
X377023D01*
X272905Y48069D02*
X377023D01*
X272905Y78549D02*
X377023D01*
X272905Y109029D02*
X377023D01*
X272905Y139509D02*
X377023D01*
Y-165291D02*
Y200469D01*
Y-165291D02*
X613178D01*
X377023Y-134811D02*
X613178D01*
X377023Y-104331D02*
X613178D01*
X377023Y-73851D02*
X613178D01*
X377023Y-43371D02*
X613178D01*
X377023Y-12891D02*
X613178D01*
X377023Y17589D02*
X613178D01*
X377023Y48069D02*
X613178D01*
X377023Y78549D02*
X613178D01*
X377023Y109029D02*
X613178D01*
X377023Y139509D02*
X613178D01*
Y-165291D02*
Y200469D01*
Y-165291D02*
X831559D01*
X613178Y-134811D02*
X831559D01*
X613178Y-104331D02*
X831559D01*
X613178Y-73851D02*
X831559D01*
X613178Y-43371D02*
X831559D01*
X613178Y-12891D02*
X831559D01*
X613178Y17589D02*
X831559D01*
X613178Y48069D02*
X831559D01*
X613178Y78549D02*
X831559D01*
X613178Y109029D02*
X831559D01*
X613178Y139509D02*
X831559D01*
Y-165291D02*
Y200469D01*
Y-165291D02*
X996617D01*
X831559Y-134811D02*
X996617D01*
X831559Y-104331D02*
X996617D01*
X831559Y-73851D02*
X996617D01*
X831559Y-43371D02*
X996617D01*
X831559Y-12891D02*
X996617D01*
X831559Y17589D02*
X996617D01*
X831559Y48069D02*
X996617D01*
X831559Y78549D02*
X996617D01*
X831559Y109029D02*
X996617D01*
X831559Y139509D02*
X996617D01*
Y-165291D02*
Y200469D01*
Y-165291D02*
X1141362D01*
X996617Y-134811D02*
X1141362D01*
X996617Y-104331D02*
X1141362D01*
X996617Y-73851D02*
X1141362D01*
X996617Y-43371D02*
X1141362D01*
X996617Y-12891D02*
X1141362D01*
X996617Y17589D02*
X1141362D01*
X996617Y48069D02*
X1141362D01*
X996617Y78549D02*
X1141362D01*
X996617Y109029D02*
X1141362D01*
X996617Y139509D02*
X1141362D01*
Y-165291D02*
Y200469D01*
Y-165291D02*
X1425761D01*
X1141362Y-134811D02*
X1425761D01*
X1141362Y-104331D02*
X1425761D01*
X1141362Y-73851D02*
X1425761D01*
X1141362Y-43371D02*
X1425761D01*
X1141362Y-12891D02*
X1425761D01*
X1141362Y17589D02*
X1425761D01*
X1141362Y48069D02*
X1425761D01*
X1141362Y78549D02*
X1425761D01*
X1141362Y109029D02*
X1425761D01*
X1141362Y139509D02*
X1425761D01*
Y-165291D02*
Y200469D01*
X272905Y-396703D02*
Y-394704D01*
Y-396703D02*
X273685Y-400623D01*
X275214Y-404315D01*
X277435Y-407639D01*
X280261Y-410465D01*
X283584Y-412685D01*
X287277Y-414215D01*
X291197Y-414995D01*
X293195D01*
X506243Y-414995D01*
X508242D01*
X512162Y-414215D01*
X515854Y-412686D01*
X519178Y-410465D01*
X522004Y-407639D01*
X524224Y-404315D01*
X525754Y-400623D01*
X526534Y-396703D01*
X526534Y-394704D01*
Y-193202D01*
Y-191203D01*
X525754Y-187283D02*
X526534Y-191203D01*
X524224Y-183591D02*
X525754Y-187283D01*
X522004Y-180267D02*
X524224Y-183591D01*
X519178Y-177441D02*
X522004Y-180267D01*
X515854Y-175221D02*
X519178Y-177441D01*
X512162Y-173691D02*
X515854Y-175221D01*
X508242Y-172911D02*
X512162Y-173691D01*
X506243Y-172911D02*
X508242D01*
X293195Y-172911D02*
X506243Y-172911D01*
X291197Y-172911D02*
X293195D01*
X287277Y-173691D02*
X291197Y-172911D01*
X283584Y-175220D02*
X287277Y-173691D01*
X280261Y-177441D02*
X283584Y-175220D01*
X277435Y-180267D02*
X280261Y-177441D01*
X275214Y-183591D02*
X277435Y-180267D01*
X273685Y-187283D02*
X275214Y-183591D01*
X272905Y-191203D02*
X273685Y-187283D01*
X272905Y-193202D02*
Y-191203D01*
Y-394704D02*
Y-193202D01*
M02*
