G04*
G04 #@! TF.GenerationSoftware,Altium Limited,Altium Designer,22.3.1 (43)*
G04*
G04 Layer_Color=32768*
%FSLAX44Y44*%
%MOMM*%
G71*
G04*
G04 #@! TF.SameCoordinates,1EA146FA-79B1-4300-8D41-9773874625C2*
G04*
G04*
G04 #@! TF.FilePolarity,Positive*
G04*
G01*
G75*
G36*
X406840Y156688D02*
X406450D01*
Y157134D01*
X406840D01*
Y156688D01*
D02*
G37*
G36*
X389513D02*
X389123D01*
Y157134D01*
X389513D01*
Y156688D01*
D02*
G37*
G36*
X364980Y153946D02*
X364617D01*
Y154236D01*
X364614Y154232D01*
X364607Y154222D01*
X364593Y154205D01*
X364576Y154184D01*
X364551Y154156D01*
X364524Y154129D01*
X364493Y154098D01*
X364455Y154067D01*
X364410Y154032D01*
X364361Y154001D01*
X364310Y153973D01*
X364251Y153949D01*
X364185Y153925D01*
X364120Y153908D01*
X364047Y153897D01*
X363968Y153894D01*
X363940D01*
X363919Y153897D01*
X363895D01*
X363867Y153901D01*
X363836Y153908D01*
X363802Y153915D01*
X363722Y153932D01*
X363636Y153960D01*
X363550Y153997D01*
X363505Y154018D01*
X363460Y154046D01*
X363456Y154049D01*
X363449Y154053D01*
X363439Y154063D01*
X363422Y154073D01*
X363401Y154091D01*
X363380Y154108D01*
X363329Y154156D01*
X363270Y154215D01*
X363211Y154288D01*
X363152Y154374D01*
X363101Y154471D01*
Y154474D01*
X363094Y154485D01*
X363090Y154498D01*
X363080Y154519D01*
X363073Y154543D01*
X363063Y154574D01*
X363049Y154612D01*
X363038Y154650D01*
X363028Y154695D01*
X363014Y154744D01*
X363004Y154795D01*
X362997Y154851D01*
X362983Y154968D01*
X362976Y155096D01*
Y155099D01*
Y155113D01*
Y155131D01*
X362980Y155155D01*
Y155186D01*
X362983Y155220D01*
X362986Y155262D01*
X362990Y155307D01*
X363004Y155403D01*
X363024Y155507D01*
X363052Y155618D01*
X363090Y155725D01*
Y155728D01*
X363097Y155738D01*
X363104Y155752D01*
X363111Y155773D01*
X363125Y155794D01*
X363139Y155821D01*
X363176Y155884D01*
X363225Y155956D01*
X363284Y156025D01*
X363353Y156094D01*
X363436Y156157D01*
X363439Y156160D01*
X363446Y156163D01*
X363460Y156170D01*
X363477Y156181D01*
X363498Y156191D01*
X363525Y156205D01*
X363553Y156219D01*
X363588Y156233D01*
X363664Y156260D01*
X363750Y156284D01*
X363847Y156302D01*
X363899Y156308D01*
X363985D01*
X364026Y156305D01*
X364075Y156298D01*
X364133Y156288D01*
X364196Y156271D01*
X364261Y156250D01*
X364323Y156219D01*
X364327D01*
X364330Y156215D01*
X364351Y156201D01*
X364379Y156184D01*
X364417Y156157D01*
X364458Y156122D01*
X364503Y156084D01*
X364548Y156039D01*
X364589Y155987D01*
Y157134D01*
X364980D01*
Y153946D01*
D02*
G37*
G36*
X402881Y156305D02*
X402902D01*
X402954Y156298D01*
X403013Y156291D01*
X403078Y156277D01*
X403144Y156257D01*
X403210Y156233D01*
X403213D01*
X403217Y156229D01*
X403237Y156219D01*
X403268Y156201D01*
X403310Y156181D01*
X403351Y156150D01*
X403396Y156118D01*
X403438Y156081D01*
X403472Y156036D01*
X403476Y156029D01*
X403486Y156015D01*
X403500Y155987D01*
X403521Y155953D01*
X403541Y155911D01*
X403559Y155863D01*
X403579Y155808D01*
X403593Y155745D01*
Y155742D01*
X403596Y155725D01*
X403600Y155697D01*
X403607Y155659D01*
X403610Y155607D01*
Y155576D01*
X403614Y155542D01*
Y155504D01*
X403617Y155459D01*
Y155414D01*
Y155365D01*
Y153946D01*
X403227D01*
Y155352D01*
Y155355D01*
Y155362D01*
Y155376D01*
Y155390D01*
Y155410D01*
X403223Y155435D01*
X403220Y155486D01*
X403217Y155545D01*
X403206Y155604D01*
X403196Y155659D01*
X403178Y155707D01*
X403175Y155714D01*
X403168Y155728D01*
X403158Y155749D01*
X403140Y155777D01*
X403120Y155808D01*
X403092Y155839D01*
X403058Y155870D01*
X403016Y155897D01*
X403013Y155901D01*
X402995Y155908D01*
X402971Y155922D01*
X402940Y155935D01*
X402899Y155946D01*
X402854Y155960D01*
X402802Y155967D01*
X402743Y155970D01*
X402719D01*
X402702Y155967D01*
X402681D01*
X402653Y155963D01*
X402595Y155949D01*
X402529Y155932D01*
X402457Y155904D01*
X402384Y155863D01*
X402346Y155839D01*
X402311Y155811D01*
X402308Y155808D01*
X402304Y155804D01*
X402294Y155794D01*
X402284Y155780D01*
X402270Y155759D01*
X402256Y155738D01*
X402239Y155711D01*
X402222Y155676D01*
X402204Y155638D01*
X402187Y155593D01*
X402173Y155545D01*
X402159Y155490D01*
X402149Y155428D01*
X402139Y155362D01*
X402135Y155286D01*
X402132Y155206D01*
Y153946D01*
X401741D01*
Y156257D01*
X402094D01*
Y155925D01*
X402097Y155928D01*
X402104Y155942D01*
X402121Y155960D01*
X402142Y155984D01*
X402166Y156015D01*
X402197Y156046D01*
X402235Y156081D01*
X402280Y156118D01*
X402329Y156153D01*
X402384Y156188D01*
X402443Y156219D01*
X402508Y156250D01*
X402581Y156274D01*
X402657Y156291D01*
X402740Y156305D01*
X402826Y156308D01*
X402861D01*
X402881Y156305D01*
D02*
G37*
G36*
X370452D02*
X370472D01*
X370524Y156298D01*
X370583Y156291D01*
X370648Y156277D01*
X370714Y156257D01*
X370780Y156233D01*
X370783D01*
X370787Y156229D01*
X370807Y156219D01*
X370838Y156201D01*
X370880Y156181D01*
X370921Y156150D01*
X370966Y156118D01*
X371008Y156081D01*
X371042Y156036D01*
X371046Y156029D01*
X371056Y156015D01*
X371070Y155987D01*
X371091Y155953D01*
X371111Y155911D01*
X371129Y155863D01*
X371149Y155808D01*
X371163Y155745D01*
Y155742D01*
X371167Y155725D01*
X371170Y155697D01*
X371177Y155659D01*
X371180Y155607D01*
Y155576D01*
X371184Y155542D01*
Y155504D01*
X371187Y155459D01*
Y155414D01*
Y155365D01*
Y153946D01*
X370797D01*
Y155352D01*
Y155355D01*
Y155362D01*
Y155376D01*
Y155390D01*
Y155410D01*
X370793Y155435D01*
X370790Y155486D01*
X370787Y155545D01*
X370776Y155604D01*
X370766Y155659D01*
X370749Y155707D01*
X370745Y155714D01*
X370738Y155728D01*
X370728Y155749D01*
X370711Y155777D01*
X370690Y155808D01*
X370662Y155839D01*
X370628Y155870D01*
X370586Y155897D01*
X370583Y155901D01*
X370565Y155908D01*
X370541Y155922D01*
X370510Y155935D01*
X370469Y155946D01*
X370424Y155960D01*
X370372Y155967D01*
X370313Y155970D01*
X370289D01*
X370272Y155967D01*
X370251D01*
X370224Y155963D01*
X370165Y155949D01*
X370099Y155932D01*
X370027Y155904D01*
X369954Y155863D01*
X369916Y155839D01*
X369882Y155811D01*
X369878Y155808D01*
X369875Y155804D01*
X369864Y155794D01*
X369854Y155780D01*
X369840Y155759D01*
X369826Y155738D01*
X369809Y155711D01*
X369792Y155676D01*
X369774Y155638D01*
X369757Y155593D01*
X369743Y155545D01*
X369729Y155490D01*
X369719Y155428D01*
X369709Y155362D01*
X369705Y155286D01*
X369702Y155206D01*
Y153946D01*
X369312D01*
Y156257D01*
X369664D01*
Y155925D01*
X369667Y155928D01*
X369674Y155942D01*
X369692Y155960D01*
X369712Y155984D01*
X369736Y156015D01*
X369767Y156046D01*
X369805Y156081D01*
X369850Y156118D01*
X369899Y156153D01*
X369954Y156188D01*
X370013Y156219D01*
X370078Y156250D01*
X370151Y156274D01*
X370227Y156291D01*
X370310Y156305D01*
X370396Y156308D01*
X370431D01*
X370452Y156305D01*
D02*
G37*
G36*
X396629D02*
X396657D01*
X396722Y156298D01*
X396795Y156288D01*
X396878Y156274D01*
X396957Y156257D01*
X397037Y156229D01*
X397040D01*
X397047Y156226D01*
X397057Y156222D01*
X397071Y156215D01*
X397106Y156198D01*
X397154Y156174D01*
X397202Y156143D01*
X397251Y156105D01*
X397299Y156063D01*
X397341Y156015D01*
X397344Y156008D01*
X397358Y155991D01*
X397375Y155960D01*
X397396Y155922D01*
X397420Y155870D01*
X397441Y155808D01*
X397462Y155738D01*
X397479Y155659D01*
X397095Y155607D01*
Y155611D01*
Y155614D01*
X397088Y155635D01*
X397081Y155669D01*
X397068Y155707D01*
X397047Y155752D01*
X397019Y155797D01*
X396985Y155842D01*
X396943Y155884D01*
X396936Y155887D01*
X396919Y155901D01*
X396892Y155918D01*
X396853Y155935D01*
X396802Y155956D01*
X396740Y155970D01*
X396670Y155984D01*
X396587Y155987D01*
X396543D01*
X396522Y155984D01*
X396498D01*
X396439Y155977D01*
X396377Y155967D01*
X396311Y155949D01*
X396252Y155928D01*
X396228Y155915D01*
X396204Y155897D01*
X396201Y155894D01*
X396187Y155880D01*
X396170Y155863D01*
X396149Y155839D01*
X396125Y155808D01*
X396107Y155770D01*
X396093Y155732D01*
X396090Y155687D01*
Y155683D01*
Y155673D01*
X396093Y155659D01*
X396097Y155642D01*
X396111Y155597D01*
X396121Y155573D01*
X396135Y155548D01*
X396138Y155545D01*
X396145Y155538D01*
X396156Y155528D01*
X396173Y155514D01*
X396194Y155497D01*
X396221Y155479D01*
X396252Y155462D01*
X396287Y155445D01*
X396290D01*
X396301Y155441D01*
X396321Y155435D01*
X396353Y155424D01*
X396373Y155417D01*
X396398Y155410D01*
X396425Y155403D01*
X396456Y155393D01*
X396494Y155383D01*
X396536Y155372D01*
X396581Y155358D01*
X396632Y155345D01*
X396636D01*
X396650Y155341D01*
X396670Y155334D01*
X396702Y155327D01*
X396733Y155317D01*
X396771Y155307D01*
X396815Y155293D01*
X396860Y155279D01*
X396957Y155251D01*
X397050Y155220D01*
X397095Y155206D01*
X397137Y155189D01*
X397175Y155175D01*
X397209Y155162D01*
X397213D01*
X397216Y155158D01*
X397237Y155148D01*
X397268Y155134D01*
X397303Y155110D01*
X397344Y155082D01*
X397389Y155048D01*
X397430Y155006D01*
X397468Y154958D01*
X397472Y154951D01*
X397482Y154934D01*
X397500Y154906D01*
X397517Y154865D01*
X397534Y154816D01*
X397551Y154761D01*
X397562Y154695D01*
X397565Y154623D01*
Y154619D01*
Y154612D01*
Y154602D01*
Y154588D01*
X397558Y154550D01*
X397551Y154502D01*
X397537Y154447D01*
X397517Y154384D01*
X397486Y154319D01*
X397448Y154253D01*
Y154250D01*
X397441Y154246D01*
X397427Y154226D01*
X397399Y154194D01*
X397365Y154156D01*
X397316Y154111D01*
X397261Y154067D01*
X397196Y154025D01*
X397119Y153987D01*
X397116D01*
X397109Y153984D01*
X397099Y153980D01*
X397081Y153973D01*
X397061Y153966D01*
X397037Y153956D01*
X397009Y153949D01*
X396978Y153942D01*
X396905Y153925D01*
X396822Y153908D01*
X396733Y153897D01*
X396632Y153894D01*
X396587D01*
X396556Y153897D01*
X396522Y153901D01*
X396477Y153904D01*
X396429Y153908D01*
X396377Y153918D01*
X396266Y153939D01*
X396149Y153970D01*
X396093Y153991D01*
X396038Y154018D01*
X395990Y154046D01*
X395942Y154077D01*
X395938Y154080D01*
X395931Y154087D01*
X395921Y154098D01*
X395904Y154111D01*
X395886Y154132D01*
X395866Y154156D01*
X395841Y154184D01*
X395817Y154215D01*
X395789Y154253D01*
X395765Y154295D01*
X395741Y154340D01*
X395717Y154391D01*
X395696Y154443D01*
X395676Y154502D01*
X395658Y154567D01*
X395644Y154633D01*
X396031Y154695D01*
Y154692D01*
X396035Y154685D01*
Y154675D01*
X396038Y154657D01*
X396042Y154636D01*
X396049Y154616D01*
X396066Y154564D01*
X396090Y154505D01*
X396121Y154443D01*
X396159Y154388D01*
X396211Y154336D01*
X396214D01*
X396218Y154333D01*
X396239Y154319D01*
X396273Y154298D01*
X396321Y154277D01*
X396380Y154253D01*
X396453Y154236D01*
X396536Y154222D01*
X396629Y154215D01*
X396657D01*
X396674Y154219D01*
X396698D01*
X396722Y154222D01*
X396781Y154229D01*
X396847Y154243D01*
X396916Y154260D01*
X396978Y154288D01*
X397033Y154322D01*
X397040Y154326D01*
X397054Y154343D01*
X397075Y154364D01*
X397099Y154395D01*
X397123Y154433D01*
X397144Y154478D01*
X397158Y154526D01*
X397164Y154581D01*
Y154588D01*
Y154602D01*
X397158Y154630D01*
X397151Y154657D01*
X397137Y154692D01*
X397116Y154726D01*
X397085Y154761D01*
X397047Y154792D01*
X397043Y154795D01*
X397030Y154802D01*
X397006Y154813D01*
X396988Y154820D01*
X396968Y154826D01*
X396940Y154837D01*
X396912Y154847D01*
X396881Y154858D01*
X396843Y154868D01*
X396802Y154882D01*
X396753Y154896D01*
X396702Y154909D01*
X396646Y154923D01*
X396643D01*
X396629Y154927D01*
X396605Y154934D01*
X396577Y154941D01*
X396543Y154951D01*
X396501Y154961D01*
X396456Y154975D01*
X396408Y154989D01*
X396311Y155020D01*
X396211Y155051D01*
X396163Y155065D01*
X396121Y155082D01*
X396080Y155099D01*
X396045Y155113D01*
X396042D01*
X396038Y155117D01*
X396017Y155127D01*
X395990Y155144D01*
X395952Y155172D01*
X395910Y155203D01*
X395869Y155238D01*
X395827Y155282D01*
X395793Y155331D01*
X395789Y155338D01*
X395779Y155355D01*
X395765Y155386D01*
X395751Y155424D01*
X395738Y155469D01*
X395724Y155521D01*
X395714Y155580D01*
X395710Y155642D01*
Y155645D01*
Y155649D01*
Y155669D01*
X395714Y155697D01*
X395720Y155735D01*
X395727Y155780D01*
X395738Y155828D01*
X395755Y155880D01*
X395779Y155928D01*
X395783Y155935D01*
X395793Y155949D01*
X395807Y155973D01*
X395831Y156004D01*
X395855Y156039D01*
X395890Y156077D01*
X395928Y156112D01*
X395973Y156146D01*
X395976Y156150D01*
X395990Y156157D01*
X396011Y156170D01*
X396038Y156184D01*
X396073Y156201D01*
X396114Y156222D01*
X396166Y156243D01*
X396221Y156260D01*
X396225D01*
X396228Y156264D01*
X396249Y156267D01*
X396280Y156274D01*
X396325Y156284D01*
X396373Y156295D01*
X396432Y156302D01*
X396494Y156305D01*
X396560Y156308D01*
X396605D01*
X396629Y156305D01*
D02*
G37*
G36*
X359245D02*
X359273D01*
X359339Y156298D01*
X359411Y156288D01*
X359494Y156274D01*
X359574Y156257D01*
X359653Y156229D01*
X359656D01*
X359663Y156226D01*
X359674Y156222D01*
X359688Y156215D01*
X359722Y156198D01*
X359771Y156174D01*
X359819Y156143D01*
X359867Y156105D01*
X359916Y156063D01*
X359957Y156015D01*
X359961Y156008D01*
X359974Y155991D01*
X359992Y155960D01*
X360012Y155922D01*
X360037Y155870D01*
X360057Y155808D01*
X360078Y155738D01*
X360095Y155659D01*
X359712Y155607D01*
Y155611D01*
Y155614D01*
X359705Y155635D01*
X359698Y155669D01*
X359684Y155707D01*
X359663Y155752D01*
X359636Y155797D01*
X359601Y155842D01*
X359560Y155884D01*
X359553Y155887D01*
X359536Y155901D01*
X359508Y155918D01*
X359470Y155935D01*
X359418Y155956D01*
X359356Y155970D01*
X359287Y155984D01*
X359204Y155987D01*
X359159D01*
X359138Y155984D01*
X359114D01*
X359055Y155977D01*
X358993Y155967D01*
X358928Y155949D01*
X358869Y155928D01*
X358845Y155915D01*
X358820Y155897D01*
X358817Y155894D01*
X358803Y155880D01*
X358786Y155863D01*
X358765Y155839D01*
X358741Y155808D01*
X358724Y155770D01*
X358710Y155732D01*
X358707Y155687D01*
Y155683D01*
Y155673D01*
X358710Y155659D01*
X358713Y155642D01*
X358727Y155597D01*
X358738Y155573D01*
X358751Y155548D01*
X358755Y155545D01*
X358762Y155538D01*
X358772Y155528D01*
X358789Y155514D01*
X358810Y155497D01*
X358838Y155479D01*
X358869Y155462D01*
X358903Y155445D01*
X358907D01*
X358917Y155441D01*
X358938Y155435D01*
X358969Y155424D01*
X358990Y155417D01*
X359014Y155410D01*
X359042Y155403D01*
X359073Y155393D01*
X359111Y155383D01*
X359152Y155372D01*
X359197Y155358D01*
X359249Y155345D01*
X359252D01*
X359266Y155341D01*
X359287Y155334D01*
X359318Y155327D01*
X359349Y155317D01*
X359387Y155307D01*
X359432Y155293D01*
X359477Y155279D01*
X359574Y155251D01*
X359667Y155220D01*
X359712Y155206D01*
X359753Y155189D01*
X359791Y155175D01*
X359826Y155162D01*
X359829D01*
X359833Y155158D01*
X359853Y155148D01*
X359884Y155134D01*
X359919Y155110D01*
X359961Y155082D01*
X360005Y155048D01*
X360047Y155006D01*
X360085Y154958D01*
X360088Y154951D01*
X360099Y154934D01*
X360116Y154906D01*
X360133Y154865D01*
X360150Y154816D01*
X360168Y154761D01*
X360178Y154695D01*
X360182Y154623D01*
Y154619D01*
Y154612D01*
Y154602D01*
Y154588D01*
X360175Y154550D01*
X360168Y154502D01*
X360154Y154447D01*
X360133Y154384D01*
X360102Y154319D01*
X360064Y154253D01*
Y154250D01*
X360057Y154246D01*
X360043Y154226D01*
X360016Y154194D01*
X359981Y154156D01*
X359933Y154111D01*
X359878Y154067D01*
X359812Y154025D01*
X359736Y153987D01*
X359733D01*
X359726Y153984D01*
X359715Y153980D01*
X359698Y153973D01*
X359677Y153966D01*
X359653Y153956D01*
X359625Y153949D01*
X359594Y153942D01*
X359522Y153925D01*
X359439Y153908D01*
X359349Y153897D01*
X359249Y153894D01*
X359204D01*
X359173Y153897D01*
X359138Y153901D01*
X359093Y153904D01*
X359045Y153908D01*
X358993Y153918D01*
X358883Y153939D01*
X358765Y153970D01*
X358710Y153991D01*
X358655Y154018D01*
X358606Y154046D01*
X358558Y154077D01*
X358555Y154080D01*
X358548Y154087D01*
X358537Y154098D01*
X358520Y154111D01*
X358503Y154132D01*
X358482Y154156D01*
X358458Y154184D01*
X358434Y154215D01*
X358406Y154253D01*
X358382Y154295D01*
X358358Y154340D01*
X358334Y154391D01*
X358313Y154443D01*
X358292Y154502D01*
X358275Y154567D01*
X358261Y154633D01*
X358648Y154695D01*
Y154692D01*
X358651Y154685D01*
Y154675D01*
X358655Y154657D01*
X358658Y154636D01*
X358665Y154616D01*
X358682Y154564D01*
X358707Y154505D01*
X358738Y154443D01*
X358776Y154388D01*
X358828Y154336D01*
X358831D01*
X358834Y154333D01*
X358855Y154319D01*
X358890Y154298D01*
X358938Y154277D01*
X358997Y154253D01*
X359069Y154236D01*
X359152Y154222D01*
X359245Y154215D01*
X359273D01*
X359290Y154219D01*
X359314D01*
X359339Y154222D01*
X359397Y154229D01*
X359463Y154243D01*
X359532Y154260D01*
X359594Y154288D01*
X359650Y154322D01*
X359656Y154326D01*
X359670Y154343D01*
X359691Y154364D01*
X359715Y154395D01*
X359739Y154433D01*
X359760Y154478D01*
X359774Y154526D01*
X359781Y154581D01*
Y154588D01*
Y154602D01*
X359774Y154630D01*
X359767Y154657D01*
X359753Y154692D01*
X359733Y154726D01*
X359701Y154761D01*
X359663Y154792D01*
X359660Y154795D01*
X359646Y154802D01*
X359622Y154813D01*
X359605Y154820D01*
X359584Y154826D01*
X359556Y154837D01*
X359529Y154847D01*
X359498Y154858D01*
X359460Y154868D01*
X359418Y154882D01*
X359370Y154896D01*
X359318Y154909D01*
X359263Y154923D01*
X359259D01*
X359245Y154927D01*
X359221Y154934D01*
X359194Y154941D01*
X359159Y154951D01*
X359118Y154961D01*
X359073Y154975D01*
X359024Y154989D01*
X358928Y155020D01*
X358828Y155051D01*
X358779Y155065D01*
X358738Y155082D01*
X358696Y155099D01*
X358662Y155113D01*
X358658D01*
X358655Y155117D01*
X358634Y155127D01*
X358606Y155144D01*
X358568Y155172D01*
X358527Y155203D01*
X358485Y155238D01*
X358444Y155282D01*
X358410Y155331D01*
X358406Y155338D01*
X358396Y155355D01*
X358382Y155386D01*
X358368Y155424D01*
X358354Y155469D01*
X358340Y155521D01*
X358330Y155580D01*
X358327Y155642D01*
Y155645D01*
Y155649D01*
Y155669D01*
X358330Y155697D01*
X358337Y155735D01*
X358344Y155780D01*
X358354Y155828D01*
X358372Y155880D01*
X358396Y155928D01*
X358399Y155935D01*
X358410Y155949D01*
X358423Y155973D01*
X358447Y156004D01*
X358472Y156039D01*
X358506Y156077D01*
X358544Y156112D01*
X358589Y156146D01*
X358593Y156150D01*
X358606Y156157D01*
X358627Y156170D01*
X358655Y156184D01*
X358689Y156201D01*
X358731Y156222D01*
X358783Y156243D01*
X358838Y156260D01*
X358841D01*
X358845Y156264D01*
X358865Y156267D01*
X358896Y156274D01*
X358941Y156284D01*
X358990Y156295D01*
X359049Y156302D01*
X359111Y156305D01*
X359176Y156308D01*
X359221D01*
X359245Y156305D01*
D02*
G37*
G36*
X405213D02*
X405244Y156302D01*
X405282Y156298D01*
X405324Y156291D01*
X405369Y156284D01*
X405465Y156260D01*
X405569Y156226D01*
X405621Y156205D01*
X405673Y156181D01*
X405721Y156150D01*
X405766Y156115D01*
X405769Y156112D01*
X405776Y156105D01*
X405790Y156094D01*
X405804Y156081D01*
X405825Y156060D01*
X405845Y156036D01*
X405869Y156008D01*
X405894Y155977D01*
X405921Y155939D01*
X405946Y155901D01*
X405973Y155856D01*
X405997Y155808D01*
X406018Y155756D01*
X406039Y155701D01*
X406059Y155638D01*
X406073Y155576D01*
X405693Y155517D01*
Y155521D01*
X405690Y155528D01*
X405686Y155538D01*
X405683Y155555D01*
X405669Y155597D01*
X405648Y155649D01*
X405621Y155704D01*
X405590Y155763D01*
X405548Y155818D01*
X405500Y155866D01*
X405493Y155873D01*
X405476Y155887D01*
X405445Y155904D01*
X405407Y155928D01*
X405358Y155949D01*
X405303Y155970D01*
X405237Y155984D01*
X405168Y155987D01*
X405141D01*
X405120Y155984D01*
X405092Y155980D01*
X405065Y155977D01*
X404995Y155960D01*
X404920Y155935D01*
X404882Y155918D01*
X404840Y155897D01*
X404802Y155873D01*
X404761Y155842D01*
X404723Y155811D01*
X404688Y155773D01*
X404685Y155770D01*
X404681Y155763D01*
X404671Y155752D01*
X404660Y155732D01*
X404647Y155711D01*
X404629Y155683D01*
X404612Y155649D01*
X404598Y155611D01*
X404581Y155566D01*
X404564Y155517D01*
X404546Y155462D01*
X404533Y155400D01*
X404522Y155334D01*
X404512Y155265D01*
X404508Y155186D01*
X404505Y155103D01*
Y155099D01*
Y155082D01*
Y155058D01*
X404508Y155027D01*
X404512Y154989D01*
X404515Y154944D01*
X404519Y154896D01*
X404526Y154844D01*
X404546Y154733D01*
X404581Y154619D01*
X404598Y154567D01*
X404622Y154516D01*
X404650Y154467D01*
X404681Y154426D01*
X404685Y154422D01*
X404688Y154416D01*
X404698Y154405D01*
X404712Y154395D01*
X404733Y154377D01*
X404754Y154360D01*
X404778Y154340D01*
X404805Y154322D01*
X404875Y154281D01*
X404954Y154250D01*
X404999Y154236D01*
X405044Y154226D01*
X405096Y154219D01*
X405148Y154215D01*
X405168D01*
X405186Y154219D01*
X405206D01*
X405227Y154222D01*
X405282Y154232D01*
X405341Y154250D01*
X405407Y154274D01*
X405469Y154308D01*
X405531Y154353D01*
X405534Y154357D01*
X405538Y154360D01*
X405555Y154381D01*
X405583Y154416D01*
X405597Y154436D01*
X405614Y154460D01*
X405631Y154492D01*
X405648Y154523D01*
X405662Y154557D01*
X405680Y154599D01*
X405693Y154640D01*
X405707Y154688D01*
X405718Y154737D01*
X405728Y154792D01*
X406111Y154740D01*
Y154737D01*
X406108Y154723D01*
X406104Y154702D01*
X406097Y154675D01*
X406087Y154640D01*
X406077Y154602D01*
X406063Y154560D01*
X406046Y154512D01*
X406004Y154416D01*
X405977Y154364D01*
X405946Y154312D01*
X405914Y154260D01*
X405876Y154208D01*
X405831Y154163D01*
X405787Y154118D01*
X405783Y154115D01*
X405776Y154108D01*
X405759Y154098D01*
X405742Y154084D01*
X405714Y154067D01*
X405686Y154046D01*
X405648Y154029D01*
X405610Y154008D01*
X405565Y153984D01*
X405517Y153966D01*
X405465Y153946D01*
X405410Y153928D01*
X405348Y153915D01*
X405286Y153904D01*
X405220Y153897D01*
X405151Y153894D01*
X405130D01*
X405106Y153897D01*
X405071D01*
X405033Y153904D01*
X404985Y153911D01*
X404933Y153918D01*
X404878Y153932D01*
X404819Y153949D01*
X404757Y153970D01*
X404695Y153994D01*
X404629Y154025D01*
X404567Y154060D01*
X404505Y154101D01*
X404446Y154146D01*
X404391Y154201D01*
X404388Y154205D01*
X404377Y154215D01*
X404363Y154232D01*
X404346Y154260D01*
X404325Y154291D01*
X404301Y154329D01*
X404273Y154377D01*
X404249Y154429D01*
X404222Y154488D01*
X404194Y154554D01*
X404170Y154626D01*
X404149Y154706D01*
X404132Y154792D01*
X404118Y154885D01*
X404108Y154985D01*
X404104Y155089D01*
Y155092D01*
Y155106D01*
Y155127D01*
X404108Y155151D01*
Y155186D01*
X404111Y155224D01*
X404115Y155265D01*
X404118Y155314D01*
X404135Y155414D01*
X404156Y155524D01*
X404184Y155638D01*
X404225Y155745D01*
Y155749D01*
X404232Y155759D01*
X404239Y155773D01*
X404249Y155790D01*
X404263Y155815D01*
X404277Y155842D01*
X404318Y155904D01*
X404370Y155970D01*
X404436Y156042D01*
X404512Y156108D01*
X404602Y156167D01*
X404605D01*
X404612Y156174D01*
X404626Y156181D01*
X404647Y156188D01*
X404671Y156201D01*
X404698Y156212D01*
X404729Y156226D01*
X404764Y156239D01*
X404805Y156250D01*
X404847Y156264D01*
X404940Y156288D01*
X405044Y156302D01*
X405151Y156308D01*
X405189D01*
X405213Y156305D01*
D02*
G37*
G36*
X391102D02*
X391133Y156302D01*
X391171Y156298D01*
X391213Y156291D01*
X391257Y156284D01*
X391354Y156260D01*
X391458Y156226D01*
X391510Y156205D01*
X391561Y156181D01*
X391610Y156150D01*
X391655Y156115D01*
X391658Y156112D01*
X391665Y156105D01*
X391679Y156094D01*
X391693Y156081D01*
X391713Y156060D01*
X391734Y156036D01*
X391758Y156008D01*
X391782Y155977D01*
X391810Y155939D01*
X391834Y155901D01*
X391862Y155856D01*
X391886Y155808D01*
X391907Y155756D01*
X391927Y155701D01*
X391948Y155638D01*
X391962Y155576D01*
X391582Y155517D01*
Y155521D01*
X391579Y155528D01*
X391575Y155538D01*
X391572Y155555D01*
X391558Y155597D01*
X391537Y155649D01*
X391510Y155704D01*
X391478Y155763D01*
X391437Y155818D01*
X391389Y155866D01*
X391382Y155873D01*
X391364Y155887D01*
X391333Y155904D01*
X391295Y155928D01*
X391247Y155949D01*
X391192Y155970D01*
X391126Y155984D01*
X391057Y155987D01*
X391029D01*
X391009Y155984D01*
X390981Y155980D01*
X390953Y155977D01*
X390884Y155960D01*
X390808Y155935D01*
X390770Y155918D01*
X390729Y155897D01*
X390691Y155873D01*
X390649Y155842D01*
X390611Y155811D01*
X390577Y155773D01*
X390573Y155770D01*
X390570Y155763D01*
X390560Y155752D01*
X390549Y155732D01*
X390535Y155711D01*
X390518Y155683D01*
X390501Y155649D01*
X390487Y155611D01*
X390470Y155566D01*
X390452Y155517D01*
X390435Y155462D01*
X390421Y155400D01*
X390411Y155334D01*
X390401Y155265D01*
X390397Y155186D01*
X390394Y155103D01*
Y155099D01*
Y155082D01*
Y155058D01*
X390397Y155027D01*
X390401Y154989D01*
X390404Y154944D01*
X390408Y154896D01*
X390415Y154844D01*
X390435Y154733D01*
X390470Y154619D01*
X390487Y154567D01*
X390511Y154516D01*
X390539Y154467D01*
X390570Y154426D01*
X390573Y154422D01*
X390577Y154416D01*
X390587Y154405D01*
X390601Y154395D01*
X390622Y154377D01*
X390643Y154360D01*
X390667Y154340D01*
X390694Y154322D01*
X390763Y154281D01*
X390843Y154250D01*
X390888Y154236D01*
X390933Y154226D01*
X390984Y154219D01*
X391036Y154215D01*
X391057D01*
X391074Y154219D01*
X391095D01*
X391116Y154222D01*
X391171Y154232D01*
X391230Y154250D01*
X391295Y154274D01*
X391357Y154308D01*
X391420Y154353D01*
X391423Y154357D01*
X391427Y154360D01*
X391444Y154381D01*
X391471Y154416D01*
X391485Y154436D01*
X391503Y154460D01*
X391520Y154492D01*
X391537Y154523D01*
X391551Y154557D01*
X391568Y154599D01*
X391582Y154640D01*
X391596Y154688D01*
X391606Y154737D01*
X391617Y154792D01*
X392000Y154740D01*
Y154737D01*
X391997Y154723D01*
X391993Y154702D01*
X391986Y154675D01*
X391976Y154640D01*
X391965Y154602D01*
X391952Y154560D01*
X391934Y154512D01*
X391893Y154416D01*
X391865Y154364D01*
X391834Y154312D01*
X391803Y154260D01*
X391765Y154208D01*
X391720Y154163D01*
X391675Y154118D01*
X391672Y154115D01*
X391665Y154108D01*
X391648Y154098D01*
X391630Y154084D01*
X391603Y154067D01*
X391575Y154046D01*
X391537Y154029D01*
X391499Y154008D01*
X391454Y153984D01*
X391406Y153966D01*
X391354Y153946D01*
X391299Y153928D01*
X391237Y153915D01*
X391175Y153904D01*
X391109Y153897D01*
X391040Y153894D01*
X391019D01*
X390995Y153897D01*
X390960D01*
X390922Y153904D01*
X390874Y153911D01*
X390822Y153918D01*
X390767Y153932D01*
X390708Y153949D01*
X390646Y153970D01*
X390584Y153994D01*
X390518Y154025D01*
X390456Y154060D01*
X390394Y154101D01*
X390335Y154146D01*
X390280Y154201D01*
X390276Y154205D01*
X390266Y154215D01*
X390252Y154232D01*
X390235Y154260D01*
X390214Y154291D01*
X390190Y154329D01*
X390162Y154377D01*
X390138Y154429D01*
X390111Y154488D01*
X390083Y154554D01*
X390059Y154626D01*
X390038Y154706D01*
X390021Y154792D01*
X390007Y154885D01*
X389996Y154985D01*
X389993Y155089D01*
Y155092D01*
Y155106D01*
Y155127D01*
X389996Y155151D01*
Y155186D01*
X390000Y155224D01*
X390003Y155265D01*
X390007Y155314D01*
X390024Y155414D01*
X390045Y155524D01*
X390073Y155638D01*
X390114Y155745D01*
Y155749D01*
X390121Y155759D01*
X390128Y155773D01*
X390138Y155790D01*
X390152Y155815D01*
X390166Y155842D01*
X390207Y155904D01*
X390259Y155970D01*
X390325Y156042D01*
X390401Y156108D01*
X390490Y156167D01*
X390494D01*
X390501Y156174D01*
X390515Y156181D01*
X390535Y156188D01*
X390560Y156201D01*
X390587Y156212D01*
X390618Y156226D01*
X390653Y156239D01*
X390694Y156250D01*
X390736Y156264D01*
X390829Y156288D01*
X390933Y156302D01*
X391040Y156308D01*
X391078D01*
X391102Y156305D01*
D02*
G37*
G36*
X383547Y156720D02*
X382272D01*
X382103Y155863D01*
X382107Y155866D01*
X382117Y155873D01*
X382131Y155880D01*
X382152Y155894D01*
X382179Y155908D01*
X382210Y155925D01*
X382245Y155946D01*
X382286Y155963D01*
X382328Y155980D01*
X382376Y156001D01*
X382476Y156032D01*
X382532Y156046D01*
X382587Y156056D01*
X382645Y156060D01*
X382704Y156063D01*
X382721D01*
X382746Y156060D01*
X382773D01*
X382808Y156053D01*
X382849Y156049D01*
X382898Y156039D01*
X382946Y156029D01*
X383001Y156011D01*
X383057Y155994D01*
X383115Y155970D01*
X383174Y155942D01*
X383233Y155908D01*
X383292Y155870D01*
X383350Y155825D01*
X383405Y155773D01*
X383409Y155770D01*
X383419Y155759D01*
X383433Y155742D01*
X383450Y155721D01*
X383475Y155694D01*
X383499Y155656D01*
X383523Y155618D01*
X383551Y155573D01*
X383578Y155521D01*
X383602Y155462D01*
X383630Y155403D01*
X383651Y155334D01*
X383668Y155265D01*
X383682Y155189D01*
X383692Y155110D01*
X383696Y155027D01*
Y155023D01*
Y155006D01*
Y154985D01*
X383692Y154954D01*
X383689Y154916D01*
X383682Y154875D01*
X383675Y154826D01*
X383665Y154771D01*
X383651Y154716D01*
X383633Y154654D01*
X383613Y154592D01*
X383589Y154529D01*
X383561Y154467D01*
X383526Y154402D01*
X383488Y154340D01*
X383443Y154281D01*
X383440Y154277D01*
X383430Y154263D01*
X383412Y154246D01*
X383388Y154222D01*
X383357Y154191D01*
X383319Y154160D01*
X383274Y154122D01*
X383222Y154087D01*
X383167Y154053D01*
X383105Y154015D01*
X383036Y153984D01*
X382960Y153956D01*
X382880Y153928D01*
X382794Y153911D01*
X382704Y153897D01*
X382607Y153894D01*
X382566D01*
X382535Y153897D01*
X382497Y153901D01*
X382455Y153908D01*
X382407Y153915D01*
X382355Y153925D01*
X382300Y153935D01*
X382241Y153953D01*
X382183Y153973D01*
X382124Y153997D01*
X382065Y154025D01*
X382006Y154056D01*
X381951Y154094D01*
X381896Y154136D01*
X381893Y154139D01*
X381886Y154146D01*
X381872Y154160D01*
X381855Y154181D01*
X381830Y154205D01*
X381806Y154232D01*
X381782Y154267D01*
X381754Y154308D01*
X381727Y154350D01*
X381699Y154398D01*
X381675Y154453D01*
X381651Y154509D01*
X381627Y154571D01*
X381609Y154636D01*
X381595Y154709D01*
X381585Y154782D01*
X381996Y154813D01*
Y154809D01*
X382000Y154799D01*
X382003Y154785D01*
X382006Y154764D01*
X382010Y154740D01*
X382020Y154709D01*
X382038Y154643D01*
X382065Y154571D01*
X382103Y154495D01*
X382148Y154426D01*
X382176Y154395D01*
X382203Y154364D01*
X382207D01*
X382210Y154357D01*
X382221Y154350D01*
X382234Y154340D01*
X382269Y154315D01*
X382317Y154291D01*
X382376Y154263D01*
X382445Y154239D01*
X382521Y154222D01*
X382563Y154219D01*
X382607Y154215D01*
X382635D01*
X382656Y154219D01*
X382680Y154222D01*
X382708Y154226D01*
X382773Y154243D01*
X382849Y154267D01*
X382887Y154284D01*
X382929Y154305D01*
X382970Y154329D01*
X383008Y154357D01*
X383046Y154388D01*
X383084Y154426D01*
X383088Y154429D01*
X383091Y154436D01*
X383102Y154447D01*
X383115Y154464D01*
X383129Y154488D01*
X383146Y154512D01*
X383164Y154543D01*
X383184Y154578D01*
X383202Y154616D01*
X383219Y154657D01*
X383236Y154706D01*
X383250Y154754D01*
X383264Y154809D01*
X383274Y154868D01*
X383278Y154927D01*
X383281Y154992D01*
Y154996D01*
Y155006D01*
Y155023D01*
X383278Y155048D01*
X383274Y155075D01*
X383271Y155110D01*
X383264Y155144D01*
X383257Y155186D01*
X383236Y155269D01*
X383202Y155358D01*
X383181Y155400D01*
X383153Y155441D01*
X383126Y155483D01*
X383091Y155521D01*
X383088Y155524D01*
X383084Y155528D01*
X383070Y155538D01*
X383057Y155552D01*
X383039Y155566D01*
X383015Y155583D01*
X382991Y155600D01*
X382960Y155621D01*
X382925Y155638D01*
X382891Y155656D01*
X382804Y155687D01*
X382760Y155701D01*
X382708Y155711D01*
X382656Y155714D01*
X382601Y155718D01*
X382570D01*
X382532Y155714D01*
X382487Y155707D01*
X382431Y155697D01*
X382373Y155680D01*
X382314Y155659D01*
X382255Y155628D01*
X382248Y155625D01*
X382231Y155614D01*
X382203Y155593D01*
X382169Y155569D01*
X382134Y155535D01*
X382093Y155497D01*
X382055Y155452D01*
X382020Y155403D01*
X381654Y155455D01*
X381962Y157093D01*
X383547D01*
Y156720D01*
D02*
G37*
G36*
X407814Y153946D02*
X407424D01*
Y157134D01*
X407814D01*
Y153946D01*
D02*
G37*
G36*
X406840D02*
X406450D01*
Y156257D01*
X406840D01*
Y153946D01*
D02*
G37*
G36*
X392725Y155314D02*
X393655Y156257D01*
X394162D01*
X393278Y155396D01*
X394252Y153946D01*
X393769D01*
X393002Y155127D01*
X392725Y154858D01*
Y153946D01*
X392335D01*
Y157134D01*
X392725D01*
Y155314D01*
D02*
G37*
G36*
X389513Y153946D02*
X389123D01*
Y156257D01*
X389513D01*
Y153946D01*
D02*
G37*
G36*
X387033Y155987D02*
X387036Y155991D01*
X387046Y156001D01*
X387060Y156018D01*
X387081Y156039D01*
X387109Y156063D01*
X387140Y156087D01*
X387178Y156118D01*
X387223Y156150D01*
X387267Y156177D01*
X387319Y156208D01*
X387378Y156233D01*
X387437Y156260D01*
X387502Y156277D01*
X387571Y156295D01*
X387644Y156305D01*
X387720Y156308D01*
X387761D01*
X387786Y156305D01*
X387810Y156302D01*
X387872Y156295D01*
X387941Y156284D01*
X388014Y156264D01*
X388090Y156239D01*
X388162Y156205D01*
X388166D01*
X388169Y156201D01*
X388180Y156194D01*
X388193Y156188D01*
X388228Y156163D01*
X388269Y156132D01*
X388311Y156094D01*
X388359Y156046D01*
X388401Y155987D01*
X388435Y155925D01*
Y155922D01*
X388439Y155918D01*
X388442Y155908D01*
X388449Y155894D01*
X388456Y155873D01*
X388463Y155852D01*
X388470Y155825D01*
X388477Y155794D01*
X388484Y155759D01*
X388490Y155721D01*
X388497Y155680D01*
X388504Y155631D01*
X388511Y155583D01*
X388515Y155528D01*
X388518Y155469D01*
Y155407D01*
Y153946D01*
X388128D01*
Y155407D01*
Y155410D01*
Y155421D01*
Y155435D01*
X388124Y155455D01*
Y155479D01*
X388121Y155507D01*
X388110Y155569D01*
X388097Y155642D01*
X388072Y155711D01*
X388041Y155780D01*
X388024Y155808D01*
X388000Y155835D01*
X387993Y155842D01*
X387976Y155856D01*
X387948Y155877D01*
X387907Y155904D01*
X387855Y155928D01*
X387796Y155949D01*
X387724Y155963D01*
X387641Y155970D01*
X387613D01*
X387578Y155967D01*
X387533Y155960D01*
X387485Y155946D01*
X387430Y155932D01*
X387371Y155908D01*
X387312Y155877D01*
X387305Y155873D01*
X387288Y155859D01*
X387261Y155839D01*
X387229Y155811D01*
X387192Y155777D01*
X387157Y155735D01*
X387122Y155687D01*
X387095Y155631D01*
X387091Y155625D01*
X387088Y155614D01*
X387084Y155604D01*
X387074Y155569D01*
X387064Y155521D01*
X387053Y155462D01*
X387043Y155390D01*
X387036Y155303D01*
X387033Y155206D01*
Y153946D01*
X386642D01*
Y157134D01*
X387033D01*
Y155987D01*
D02*
G37*
G36*
X380238Y157141D02*
X380276Y157137D01*
X380321Y157131D01*
X380373Y157124D01*
X380424Y157113D01*
X380483Y157100D01*
X380542Y157082D01*
X380604Y157062D01*
X380663Y157037D01*
X380725Y157006D01*
X380784Y156972D01*
X380839Y156934D01*
X380891Y156889D01*
X380894Y156885D01*
X380901Y156878D01*
X380915Y156861D01*
X380932Y156844D01*
X380953Y156820D01*
X380977Y156789D01*
X381001Y156754D01*
X381025Y156713D01*
X381050Y156671D01*
X381074Y156623D01*
X381098Y156571D01*
X381119Y156516D01*
X381136Y156454D01*
X381150Y156391D01*
X381157Y156326D01*
X381160Y156257D01*
Y156253D01*
Y156250D01*
Y156239D01*
Y156226D01*
X381157Y156188D01*
X381150Y156139D01*
X381139Y156081D01*
X381126Y156018D01*
X381108Y155949D01*
X381081Y155880D01*
Y155877D01*
X381077Y155873D01*
X381074Y155863D01*
X381067Y155849D01*
X381046Y155811D01*
X381018Y155763D01*
X380980Y155704D01*
X380936Y155638D01*
X380884Y155569D01*
X380818Y155493D01*
X380815Y155490D01*
X380811Y155483D01*
X380797Y155472D01*
X380784Y155455D01*
X380763Y155435D01*
X380739Y155410D01*
X380711Y155379D01*
X380676Y155348D01*
X380635Y155310D01*
X380590Y155269D01*
X380542Y155220D01*
X380486Y155172D01*
X380428Y155117D01*
X380362Y155061D01*
X380290Y154999D01*
X380214Y154934D01*
X380210Y154930D01*
X380200Y154920D01*
X380179Y154906D01*
X380158Y154885D01*
X380127Y154861D01*
X380096Y154833D01*
X380024Y154771D01*
X379948Y154706D01*
X379875Y154636D01*
X379841Y154606D01*
X379809Y154578D01*
X379782Y154550D01*
X379761Y154529D01*
X379758Y154526D01*
X379744Y154512D01*
X379727Y154492D01*
X379702Y154464D01*
X379675Y154433D01*
X379647Y154398D01*
X379592Y154322D01*
X381164D01*
Y153946D01*
X379053D01*
Y153953D01*
Y153970D01*
Y153997D01*
X379056Y154032D01*
X379060Y154073D01*
X379070Y154118D01*
X379081Y154167D01*
X379098Y154215D01*
Y154219D01*
X379101Y154226D01*
X379105Y154236D01*
X379112Y154253D01*
X379122Y154270D01*
X379132Y154295D01*
X379160Y154350D01*
X379195Y154416D01*
X379240Y154488D01*
X379291Y154564D01*
X379353Y154640D01*
X379357Y154643D01*
X379360Y154650D01*
X379371Y154661D01*
X379388Y154678D01*
X379405Y154695D01*
X379430Y154719D01*
X379454Y154747D01*
X379485Y154778D01*
X379519Y154813D01*
X379557Y154847D01*
X379599Y154889D01*
X379647Y154930D01*
X379696Y154975D01*
X379751Y155020D01*
X379806Y155068D01*
X379868Y155120D01*
X379875Y155124D01*
X379892Y155141D01*
X379917Y155162D01*
X379951Y155193D01*
X379993Y155227D01*
X380041Y155269D01*
X380096Y155314D01*
X380151Y155365D01*
X380269Y155472D01*
X380383Y155587D01*
X380438Y155642D01*
X380490Y155697D01*
X380535Y155749D01*
X380573Y155797D01*
X380576Y155801D01*
X380580Y155808D01*
X380590Y155821D01*
X380601Y155839D01*
X380618Y155863D01*
X380632Y155887D01*
X380666Y155949D01*
X380701Y156022D01*
X380732Y156101D01*
X380752Y156184D01*
X380756Y156226D01*
X380759Y156267D01*
Y156271D01*
Y156277D01*
Y156291D01*
X380756Y156305D01*
Y156326D01*
X380749Y156350D01*
X380739Y156402D01*
X380718Y156464D01*
X380687Y156530D01*
X380670Y156564D01*
X380645Y156595D01*
X380621Y156626D01*
X380590Y156657D01*
X380587Y156661D01*
X380583Y156664D01*
X380573Y156671D01*
X380559Y156682D01*
X380542Y156695D01*
X380521Y156709D01*
X380473Y156740D01*
X380407Y156768D01*
X380335Y156796D01*
X380248Y156813D01*
X380200Y156820D01*
X380124D01*
X380103Y156816D01*
X380079D01*
X380051Y156809D01*
X379989Y156799D01*
X379917Y156778D01*
X379841Y156747D01*
X379803Y156727D01*
X379765Y156706D01*
X379730Y156678D01*
X379696Y156647D01*
X379692Y156644D01*
X379689Y156640D01*
X379682Y156630D01*
X379668Y156616D01*
X379658Y156599D01*
X379644Y156578D01*
X379626Y156554D01*
X379613Y156526D01*
X379595Y156495D01*
X379581Y156461D01*
X379554Y156378D01*
X379533Y156288D01*
X379530Y156236D01*
X379526Y156181D01*
X379126Y156222D01*
Y156229D01*
X379129Y156243D01*
X379132Y156264D01*
X379136Y156295D01*
X379143Y156333D01*
X379153Y156378D01*
X379164Y156426D01*
X379181Y156478D01*
X379198Y156530D01*
X379219Y156588D01*
X379246Y156644D01*
X379274Y156699D01*
X379309Y156757D01*
X379347Y156809D01*
X379388Y156861D01*
X379436Y156906D01*
X379440Y156910D01*
X379450Y156917D01*
X379464Y156927D01*
X379485Y156944D01*
X379512Y156961D01*
X379547Y156982D01*
X379585Y157003D01*
X379630Y157027D01*
X379678Y157048D01*
X379734Y157068D01*
X379792Y157089D01*
X379858Y157106D01*
X379927Y157124D01*
X380000Y157134D01*
X380079Y157141D01*
X380162Y157144D01*
X380207D01*
X380238Y157141D01*
D02*
G37*
G36*
X378103Y153946D02*
X377713D01*
Y156436D01*
X377706Y156429D01*
X377688Y156412D01*
X377657Y156388D01*
X377612Y156353D01*
X377561Y156312D01*
X377495Y156267D01*
X377422Y156219D01*
X377340Y156167D01*
X377336D01*
X377329Y156160D01*
X377319Y156153D01*
X377302Y156146D01*
X377281Y156132D01*
X377257Y156122D01*
X377201Y156091D01*
X377139Y156060D01*
X377070Y156025D01*
X376998Y155994D01*
X376928Y155967D01*
Y156343D01*
X376932Y156347D01*
X376942Y156350D01*
X376960Y156360D01*
X376984Y156371D01*
X377011Y156384D01*
X377046Y156405D01*
X377084Y156426D01*
X377122Y156447D01*
X377212Y156502D01*
X377309Y156568D01*
X377409Y156637D01*
X377502Y156716D01*
X377505Y156720D01*
X377512Y156727D01*
X377526Y156737D01*
X377543Y156754D01*
X377561Y156775D01*
X377585Y156796D01*
X377637Y156854D01*
X377695Y156917D01*
X377754Y156989D01*
X377806Y157065D01*
X377851Y157144D01*
X378103D01*
Y153946D01*
D02*
G37*
G36*
X376058D02*
X375612D01*
Y154391D01*
X376058D01*
Y153946D01*
D02*
G37*
G36*
X356990Y156305D02*
X357021D01*
X357086Y156298D01*
X357162Y156291D01*
X357242Y156277D01*
X357321Y156260D01*
X357394Y156236D01*
X357397D01*
X357401Y156233D01*
X357411Y156229D01*
X357425Y156222D01*
X357456Y156208D01*
X357497Y156188D01*
X357542Y156163D01*
X357587Y156132D01*
X357629Y156098D01*
X357667Y156060D01*
X357670Y156056D01*
X357681Y156042D01*
X357698Y156018D01*
X357715Y155987D01*
X357736Y155949D01*
X357757Y155904D01*
X357777Y155852D01*
X357791Y155794D01*
Y155790D01*
X357795Y155773D01*
X357798Y155749D01*
X357802Y155711D01*
X357805Y155662D01*
X357808Y155600D01*
Y155562D01*
X357812Y155524D01*
Y155483D01*
Y155435D01*
Y154913D01*
Y154906D01*
Y154889D01*
Y154861D01*
Y154826D01*
Y154782D01*
Y154733D01*
X357815Y154678D01*
Y154623D01*
X357819Y154505D01*
Y154447D01*
X357822Y154391D01*
X357826Y154340D01*
X357829Y154295D01*
X357833Y154253D01*
X357836Y154222D01*
Y154215D01*
X357840Y154198D01*
X357846Y154170D01*
X357857Y154132D01*
X357871Y154091D01*
X357888Y154046D01*
X357909Y153994D01*
X357933Y153946D01*
X357525D01*
X357522Y153953D01*
X357515Y153966D01*
X357504Y153994D01*
X357494Y154029D01*
X357480Y154070D01*
X357466Y154118D01*
X357456Y154174D01*
X357449Y154236D01*
X357446Y154232D01*
X357439Y154229D01*
X357428Y154219D01*
X357411Y154205D01*
X357390Y154191D01*
X357370Y154170D01*
X357314Y154132D01*
X357249Y154087D01*
X357180Y154042D01*
X357104Y154004D01*
X357028Y153970D01*
X357024D01*
X357017Y153966D01*
X357007Y153963D01*
X356993Y153960D01*
X356976Y153953D01*
X356952Y153946D01*
X356900Y153932D01*
X356834Y153918D01*
X356762Y153904D01*
X356682Y153897D01*
X356596Y153894D01*
X356558D01*
X356534Y153897D01*
X356503Y153901D01*
X356465Y153904D01*
X356423Y153908D01*
X356382Y153918D01*
X356285Y153939D01*
X356188Y153970D01*
X356143Y153991D01*
X356095Y154018D01*
X356054Y154046D01*
X356012Y154077D01*
X356009Y154080D01*
X356002Y154087D01*
X355995Y154098D01*
X355981Y154111D01*
X355964Y154129D01*
X355947Y154153D01*
X355929Y154177D01*
X355912Y154208D01*
X355874Y154274D01*
X355839Y154357D01*
X355826Y154402D01*
X355819Y154450D01*
X355812Y154502D01*
X355808Y154554D01*
Y154557D01*
Y154560D01*
Y154581D01*
X355812Y154616D01*
X355819Y154657D01*
X355826Y154706D01*
X355839Y154757D01*
X355860Y154809D01*
X355884Y154865D01*
X355888Y154871D01*
X355898Y154889D01*
X355915Y154913D01*
X355940Y154947D01*
X355967Y154982D01*
X356002Y155020D01*
X356040Y155055D01*
X356085Y155089D01*
X356092Y155092D01*
X356109Y155103D01*
X356133Y155120D01*
X356168Y155137D01*
X356209Y155158D01*
X356257Y155179D01*
X356313Y155200D01*
X356368Y155217D01*
X356375D01*
X356389Y155224D01*
X356416Y155227D01*
X356454Y155238D01*
X356503Y155245D01*
X356565Y155255D01*
X356634Y155265D01*
X356717Y155276D01*
X356724D01*
X356738Y155279D01*
X356762Y155282D01*
X356793Y155286D01*
X356834Y155293D01*
X356879Y155300D01*
X356927Y155307D01*
X356983Y155314D01*
X357097Y155334D01*
X357211Y155358D01*
X357266Y155372D01*
X357321Y155386D01*
X357370Y155400D01*
X357415Y155414D01*
Y155417D01*
Y155428D01*
Y155441D01*
X357418Y155455D01*
Y155490D01*
Y155504D01*
Y155514D01*
Y155517D01*
Y155524D01*
Y155538D01*
Y155552D01*
X357411Y155593D01*
X357404Y155645D01*
X357390Y155701D01*
X357370Y155756D01*
X357342Y155808D01*
X357304Y155849D01*
X357297Y155856D01*
X357290Y155863D01*
X357276Y155870D01*
X357259Y155880D01*
X357242Y155891D01*
X357193Y155918D01*
X357131Y155942D01*
X357055Y155963D01*
X356965Y155977D01*
X356862Y155984D01*
X356817D01*
X356793Y155980D01*
X356769D01*
X356706Y155973D01*
X356641Y155960D01*
X356575Y155942D01*
X356510Y155918D01*
X356454Y155887D01*
X356447Y155884D01*
X356434Y155870D01*
X356409Y155842D01*
X356382Y155808D01*
X356351Y155763D01*
X356316Y155701D01*
X356288Y155631D01*
X356275Y155590D01*
X356261Y155545D01*
X355877Y155597D01*
Y155600D01*
X355881Y155607D01*
X355884Y155621D01*
X355888Y155638D01*
X355895Y155659D01*
X355902Y155683D01*
X355919Y155738D01*
X355943Y155801D01*
X355971Y155866D01*
X356005Y155932D01*
X356047Y155991D01*
Y155994D01*
X356054Y155998D01*
X356071Y156015D01*
X356099Y156042D01*
X356137Y156077D01*
X356185Y156115D01*
X356244Y156153D01*
X356313Y156191D01*
X356392Y156226D01*
X356396D01*
X356403Y156229D01*
X356416Y156233D01*
X356434Y156239D01*
X356454Y156246D01*
X356479Y156253D01*
X356510Y156260D01*
X356544Y156267D01*
X356579Y156274D01*
X356620Y156281D01*
X356710Y156295D01*
X356810Y156305D01*
X356917Y156308D01*
X356965D01*
X356990Y156305D01*
D02*
G37*
G36*
X354285Y157131D02*
X354323D01*
X354361Y157127D01*
X354406Y157120D01*
X354496Y157110D01*
X354596Y157093D01*
X354689Y157068D01*
X354779Y157034D01*
X354782D01*
X354789Y157030D01*
X354800Y157023D01*
X354817Y157017D01*
X354855Y156992D01*
X354907Y156961D01*
X354962Y156920D01*
X355017Y156868D01*
X355073Y156806D01*
X355124Y156737D01*
Y156733D01*
X355131Y156727D01*
X355135Y156716D01*
X355145Y156702D01*
X355155Y156685D01*
X355166Y156661D01*
X355190Y156609D01*
X355211Y156547D01*
X355231Y156474D01*
X355245Y156398D01*
X355252Y156315D01*
Y156312D01*
Y156305D01*
Y156295D01*
Y156281D01*
X355245Y156243D01*
X355238Y156191D01*
X355224Y156132D01*
X355204Y156067D01*
X355176Y156001D01*
X355138Y155932D01*
Y155928D01*
X355135Y155925D01*
X355128Y155915D01*
X355117Y155901D01*
X355093Y155870D01*
X355055Y155828D01*
X355010Y155783D01*
X354952Y155735D01*
X354886Y155687D01*
X354807Y155642D01*
X354810D01*
X354820Y155638D01*
X354834Y155631D01*
X354855Y155625D01*
X354879Y155614D01*
X354907Y155604D01*
X354969Y155573D01*
X355041Y155535D01*
X355114Y155483D01*
X355187Y155424D01*
X355249Y155352D01*
X355252Y155348D01*
X355256Y155341D01*
X355262Y155331D01*
X355273Y155317D01*
X355287Y155296D01*
X355300Y155272D01*
X355314Y155245D01*
X355328Y155213D01*
X355356Y155144D01*
X355383Y155061D01*
X355401Y154968D01*
X355408Y154920D01*
Y154868D01*
Y154865D01*
Y154858D01*
Y154847D01*
Y154830D01*
X355404Y154809D01*
Y154789D01*
X355397Y154733D01*
X355383Y154668D01*
X355366Y154599D01*
X355342Y154523D01*
X355311Y154450D01*
Y154447D01*
X355307Y154443D01*
X355300Y154433D01*
X355294Y154419D01*
X355273Y154384D01*
X355245Y154343D01*
X355214Y154295D01*
X355173Y154246D01*
X355128Y154198D01*
X355076Y154153D01*
X355069Y154150D01*
X355052Y154136D01*
X355021Y154118D01*
X354979Y154094D01*
X354931Y154070D01*
X354872Y154042D01*
X354803Y154018D01*
X354727Y153997D01*
X354724D01*
X354717Y153994D01*
X354706D01*
X354689Y153991D01*
X354668Y153987D01*
X354644Y153980D01*
X354617Y153977D01*
X354585Y153973D01*
X354551Y153966D01*
X354510Y153963D01*
X354423Y153953D01*
X354323Y153949D01*
X354212Y153946D01*
X353000D01*
Y157134D01*
X354254D01*
X354285Y157131D01*
D02*
G37*
G36*
X398484Y156257D02*
X398881D01*
Y155953D01*
X398484D01*
Y154599D01*
Y154595D01*
Y154592D01*
Y154571D01*
Y154543D01*
X398487Y154509D01*
Y154474D01*
X398494Y154440D01*
X398498Y154409D01*
X398505Y154384D01*
Y154381D01*
X398508Y154377D01*
X398522Y154357D01*
X398543Y154333D01*
X398570Y154308D01*
X398574D01*
X398581Y154305D01*
X398591Y154302D01*
X398605Y154295D01*
X398626Y154291D01*
X398646Y154284D01*
X398674Y154281D01*
X398733D01*
X398753Y154284D01*
X398778D01*
X398809Y154288D01*
X398843Y154291D01*
X398881Y154295D01*
X398933Y153949D01*
X398926D01*
X398905Y153942D01*
X398874Y153939D01*
X398833Y153932D01*
X398788Y153925D01*
X398740Y153921D01*
X398636Y153915D01*
X398601D01*
X398563Y153918D01*
X398515Y153921D01*
X398460Y153932D01*
X398405Y153942D01*
X398353Y153960D01*
X398304Y153980D01*
X398301Y153984D01*
X398287Y153994D01*
X398266Y154008D01*
X398239Y154029D01*
X398211Y154053D01*
X398183Y154084D01*
X398159Y154118D01*
X398139Y154156D01*
X398135Y154163D01*
X398132Y154181D01*
X398128Y154194D01*
X398125Y154212D01*
X398121Y154232D01*
X398118Y154257D01*
X398111Y154284D01*
X398107Y154319D01*
X398104Y154357D01*
X398101Y154398D01*
X398097Y154447D01*
Y154498D01*
X398094Y154557D01*
Y154619D01*
Y155953D01*
X397803D01*
Y156257D01*
X398094D01*
Y156827D01*
X398484Y157062D01*
Y156257D01*
D02*
G37*
G36*
X385862D02*
X386259D01*
Y155953D01*
X385862D01*
Y154599D01*
Y154595D01*
Y154592D01*
Y154571D01*
Y154543D01*
X385865Y154509D01*
Y154474D01*
X385872Y154440D01*
X385875Y154409D01*
X385882Y154384D01*
Y154381D01*
X385886Y154377D01*
X385900Y154357D01*
X385920Y154333D01*
X385948Y154308D01*
X385951D01*
X385958Y154305D01*
X385969Y154302D01*
X385983Y154295D01*
X386003Y154291D01*
X386024Y154284D01*
X386052Y154281D01*
X386110D01*
X386131Y154284D01*
X386155D01*
X386186Y154288D01*
X386221Y154291D01*
X386259Y154295D01*
X386311Y153949D01*
X386304D01*
X386283Y153942D01*
X386252Y153939D01*
X386211Y153932D01*
X386166Y153925D01*
X386117Y153921D01*
X386014Y153915D01*
X385979D01*
X385941Y153918D01*
X385893Y153921D01*
X385837Y153932D01*
X385782Y153942D01*
X385730Y153960D01*
X385682Y153980D01*
X385678Y153984D01*
X385665Y153994D01*
X385644Y154008D01*
X385616Y154029D01*
X385589Y154053D01*
X385561Y154084D01*
X385537Y154118D01*
X385516Y154156D01*
X385513Y154163D01*
X385509Y154181D01*
X385506Y154194D01*
X385502Y154212D01*
X385499Y154232D01*
X385495Y154257D01*
X385489Y154284D01*
X385485Y154319D01*
X385482Y154357D01*
X385478Y154398D01*
X385475Y154447D01*
Y154498D01*
X385471Y154557D01*
Y154619D01*
Y155953D01*
X385181D01*
Y156257D01*
X385471D01*
Y156827D01*
X385862Y157062D01*
Y156257D01*
D02*
G37*
G36*
X400256Y156305D02*
X400287D01*
X400329Y156298D01*
X400373Y156291D01*
X400425Y156281D01*
X400481Y156271D01*
X400539Y156253D01*
X400598Y156233D01*
X400664Y156205D01*
X400726Y156174D01*
X400788Y156139D01*
X400850Y156094D01*
X400912Y156046D01*
X400968Y155991D01*
X400971Y155987D01*
X400981Y155977D01*
X400995Y155960D01*
X401013Y155932D01*
X401037Y155901D01*
X401061Y155863D01*
X401089Y155815D01*
X401116Y155763D01*
X401140Y155704D01*
X401168Y155638D01*
X401192Y155566D01*
X401216Y155486D01*
X401234Y155400D01*
X401247Y155307D01*
X401258Y155210D01*
X401261Y155106D01*
Y155099D01*
Y155082D01*
Y155048D01*
X401258Y155003D01*
X399534D01*
Y154999D01*
Y154985D01*
X399538Y154965D01*
X399541Y154941D01*
X399544Y154906D01*
X399551Y154871D01*
X399558Y154830D01*
X399569Y154785D01*
X399596Y154692D01*
X399634Y154592D01*
X399659Y154547D01*
X399683Y154498D01*
X399714Y154457D01*
X399748Y154416D01*
X399752Y154412D01*
X399759Y154409D01*
X399769Y154398D01*
X399783Y154384D01*
X399804Y154371D01*
X399824Y154353D01*
X399852Y154333D01*
X399883Y154315D01*
X399952Y154277D01*
X400035Y154246D01*
X400080Y154232D01*
X400128Y154226D01*
X400180Y154219D01*
X400232Y154215D01*
X400253D01*
X400266Y154219D01*
X400308Y154222D01*
X400360Y154229D01*
X400415Y154243D01*
X400477Y154263D01*
X400539Y154288D01*
X400598Y154326D01*
X400602D01*
X400605Y154333D01*
X400622Y154346D01*
X400650Y154374D01*
X400684Y154416D01*
X400722Y154464D01*
X400764Y154529D01*
X400805Y154606D01*
X400840Y154692D01*
X401247Y154640D01*
Y154636D01*
X401244Y154623D01*
X401237Y154606D01*
X401227Y154581D01*
X401216Y154550D01*
X401203Y154516D01*
X401185Y154478D01*
X401168Y154436D01*
X401120Y154350D01*
X401058Y154257D01*
X401020Y154212D01*
X400981Y154167D01*
X400940Y154125D01*
X400892Y154087D01*
X400888Y154084D01*
X400881Y154080D01*
X400864Y154070D01*
X400847Y154056D01*
X400819Y154042D01*
X400788Y154025D01*
X400754Y154008D01*
X400712Y153991D01*
X400667Y153973D01*
X400615Y153956D01*
X400564Y153939D01*
X400505Y153925D01*
X400443Y153911D01*
X400377Y153901D01*
X400304Y153897D01*
X400232Y153894D01*
X400211D01*
X400183Y153897D01*
X400149D01*
X400104Y153904D01*
X400056Y153911D01*
X400000Y153921D01*
X399942Y153932D01*
X399879Y153949D01*
X399814Y153970D01*
X399745Y153994D01*
X399679Y154025D01*
X399610Y154060D01*
X399548Y154101D01*
X399486Y154150D01*
X399427Y154205D01*
X399424Y154208D01*
X399413Y154219D01*
X399399Y154236D01*
X399382Y154263D01*
X399358Y154295D01*
X399334Y154333D01*
X399306Y154377D01*
X399282Y154429D01*
X399254Y154488D01*
X399227Y154554D01*
X399202Y154626D01*
X399178Y154706D01*
X399161Y154789D01*
X399147Y154878D01*
X399137Y154975D01*
X399133Y155079D01*
Y155086D01*
Y155103D01*
X399137Y155134D01*
Y155175D01*
X399144Y155224D01*
X399151Y155279D01*
X399158Y155345D01*
X399171Y155410D01*
X399185Y155483D01*
X399206Y155555D01*
X399230Y155631D01*
X399258Y155707D01*
X399292Y155780D01*
X399334Y155852D01*
X399379Y155922D01*
X399431Y155984D01*
X399434Y155987D01*
X399444Y155998D01*
X399462Y156015D01*
X399486Y156036D01*
X399513Y156060D01*
X399551Y156087D01*
X399593Y156115D01*
X399641Y156146D01*
X399693Y156177D01*
X399752Y156205D01*
X399817Y156233D01*
X399886Y156257D01*
X399962Y156277D01*
X400038Y156295D01*
X400125Y156305D01*
X400211Y156308D01*
X400232D01*
X400256Y156305D01*
D02*
G37*
G36*
X374020Y157141D02*
X374044Y157137D01*
X374106Y157131D01*
X374175Y157120D01*
X374251Y157100D01*
X374327Y157075D01*
X374403Y157041D01*
X374407D01*
X374414Y157037D01*
X374424Y157030D01*
X374438Y157020D01*
X374472Y156999D01*
X374517Y156965D01*
X374569Y156923D01*
X374621Y156872D01*
X374676Y156809D01*
X374725Y156740D01*
Y156737D01*
X374731Y156730D01*
X374735Y156720D01*
X374745Y156706D01*
X374756Y156688D01*
X374770Y156664D01*
X374780Y156637D01*
X374797Y156609D01*
X374828Y156540D01*
X374859Y156461D01*
X374894Y156367D01*
X374921Y156267D01*
Y156264D01*
X374925Y156253D01*
X374928Y156239D01*
X374932Y156215D01*
X374939Y156188D01*
X374946Y156153D01*
X374953Y156115D01*
X374959Y156070D01*
X374963Y156018D01*
X374970Y155963D01*
X374977Y155901D01*
X374984Y155835D01*
X374987Y155763D01*
X374991Y155687D01*
X374994Y155604D01*
Y155517D01*
Y155511D01*
Y155493D01*
Y155462D01*
Y155424D01*
X374991Y155376D01*
X374987Y155324D01*
X374984Y155262D01*
X374980Y155196D01*
X374973Y155124D01*
X374966Y155051D01*
X374946Y154899D01*
X374915Y154750D01*
X374897Y154678D01*
X374877Y154612D01*
Y154609D01*
X374870Y154599D01*
X374866Y154578D01*
X374856Y154557D01*
X374842Y154526D01*
X374828Y154495D01*
X374811Y154457D01*
X374790Y154416D01*
X374742Y154329D01*
X374683Y154243D01*
X374614Y154156D01*
X374573Y154118D01*
X374531Y154080D01*
X374528Y154077D01*
X374521Y154073D01*
X374507Y154063D01*
X374490Y154053D01*
X374469Y154039D01*
X374441Y154022D01*
X374410Y154004D01*
X374372Y153987D01*
X374334Y153970D01*
X374289Y153953D01*
X374244Y153939D01*
X374193Y153921D01*
X374137Y153911D01*
X374079Y153901D01*
X374020Y153897D01*
X373954Y153894D01*
X373933D01*
X373909Y153897D01*
X373878Y153901D01*
X373840Y153904D01*
X373795Y153911D01*
X373747Y153921D01*
X373692Y153935D01*
X373637Y153953D01*
X373578Y153973D01*
X373516Y154001D01*
X373457Y154032D01*
X373398Y154070D01*
X373339Y154115D01*
X373284Y154163D01*
X373232Y154222D01*
X373229Y154226D01*
X373218Y154239D01*
X373205Y154263D01*
X373184Y154298D01*
X373160Y154343D01*
X373132Y154395D01*
X373105Y154460D01*
X373077Y154533D01*
X373046Y154619D01*
X373018Y154712D01*
X372990Y154820D01*
X372966Y154937D01*
X372946Y155065D01*
X372932Y155203D01*
X372921Y155355D01*
X372918Y155517D01*
Y155524D01*
Y155542D01*
Y155573D01*
X372921Y155611D01*
Y155659D01*
X372925Y155714D01*
X372928Y155777D01*
X372932Y155842D01*
X372939Y155915D01*
X372946Y155987D01*
X372966Y156139D01*
X372994Y156288D01*
X373011Y156360D01*
X373032Y156426D01*
Y156429D01*
X373039Y156440D01*
X373046Y156461D01*
X373053Y156485D01*
X373066Y156512D01*
X373080Y156547D01*
X373098Y156581D01*
X373118Y156623D01*
X373167Y156709D01*
X373229Y156796D01*
X373298Y156882D01*
X373336Y156920D01*
X373377Y156958D01*
X373381Y156961D01*
X373388Y156965D01*
X373402Y156975D01*
X373419Y156986D01*
X373440Y157003D01*
X373467Y157017D01*
X373498Y157034D01*
X373536Y157051D01*
X373574Y157068D01*
X373619Y157086D01*
X373668Y157103D01*
X373716Y157117D01*
X373771Y157127D01*
X373830Y157137D01*
X373892Y157141D01*
X373954Y157144D01*
X373996D01*
X374020Y157141D01*
D02*
G37*
G36*
X367816Y156305D02*
X367850D01*
X367892Y156298D01*
X367937Y156291D01*
X367989Y156281D01*
X368047Y156271D01*
X368106Y156253D01*
X368172Y156233D01*
X368234Y156205D01*
X368299Y156177D01*
X368365Y156139D01*
X368427Y156098D01*
X368489Y156049D01*
X368548Y155994D01*
X368552Y155991D01*
X368562Y155980D01*
X368576Y155963D01*
X368596Y155935D01*
X368617Y155904D01*
X368645Y155866D01*
X368672Y155821D01*
X368700Y155770D01*
X368728Y155711D01*
X368755Y155645D01*
X368783Y155576D01*
X368804Y155500D01*
X368825Y155417D01*
X368838Y155327D01*
X368849Y155231D01*
X368852Y155131D01*
Y155127D01*
Y155110D01*
Y155089D01*
X368849Y155058D01*
Y155020D01*
X368845Y154975D01*
X368842Y154927D01*
X368835Y154875D01*
X368821Y154764D01*
X368797Y154647D01*
X368762Y154533D01*
X368742Y154481D01*
X368717Y154429D01*
Y154426D01*
X368711Y154419D01*
X368704Y154405D01*
X368693Y154388D01*
X368679Y154367D01*
X368662Y154340D01*
X368617Y154284D01*
X368562Y154219D01*
X368496Y154153D01*
X368417Y154091D01*
X368327Y154032D01*
X368324D01*
X368317Y154025D01*
X368303Y154018D01*
X368282Y154011D01*
X368258Y154001D01*
X368230Y153987D01*
X368199Y153977D01*
X368161Y153963D01*
X368123Y153949D01*
X368078Y153939D01*
X367985Y153915D01*
X367881Y153901D01*
X367771Y153894D01*
X367750D01*
X367726Y153897D01*
X367691D01*
X367650Y153904D01*
X367602Y153911D01*
X367550Y153921D01*
X367491Y153932D01*
X367429Y153949D01*
X367367Y153970D01*
X367301Y153994D01*
X367235Y154025D01*
X367170Y154060D01*
X367108Y154101D01*
X367046Y154150D01*
X366987Y154205D01*
X366983Y154208D01*
X366973Y154219D01*
X366959Y154236D01*
X366942Y154263D01*
X366918Y154295D01*
X366894Y154333D01*
X366866Y154381D01*
X366838Y154433D01*
X366811Y154495D01*
X366783Y154560D01*
X366759Y154633D01*
X366735Y154712D01*
X366717Y154799D01*
X366703Y154892D01*
X366693Y154992D01*
X366690Y155099D01*
Y155103D01*
Y155106D01*
Y155127D01*
X366693Y155162D01*
X366697Y155203D01*
X366700Y155258D01*
X366707Y155321D01*
X366721Y155386D01*
X366735Y155459D01*
X366752Y155535D01*
X366776Y155614D01*
X366807Y155694D01*
X366838Y155773D01*
X366880Y155849D01*
X366928Y155922D01*
X366983Y155987D01*
X367046Y156049D01*
X367049Y156053D01*
X367059Y156060D01*
X367077Y156074D01*
X367097Y156091D01*
X367128Y156108D01*
X367163Y156132D01*
X367201Y156157D01*
X367249Y156181D01*
X367298Y156205D01*
X367353Y156226D01*
X367412Y156250D01*
X367477Y156267D01*
X367546Y156284D01*
X367615Y156298D01*
X367691Y156305D01*
X367771Y156308D01*
X367792D01*
X367816Y156305D01*
D02*
G37*
G36*
X361636D02*
X361667D01*
X361708Y156298D01*
X361753Y156291D01*
X361805Y156281D01*
X361860Y156271D01*
X361919Y156253D01*
X361978Y156233D01*
X362043Y156205D01*
X362106Y156174D01*
X362168Y156139D01*
X362230Y156094D01*
X362292Y156046D01*
X362347Y155991D01*
X362351Y155987D01*
X362361Y155977D01*
X362375Y155960D01*
X362392Y155932D01*
X362417Y155901D01*
X362441Y155863D01*
X362468Y155815D01*
X362496Y155763D01*
X362520Y155704D01*
X362548Y155638D01*
X362572Y155566D01*
X362596Y155486D01*
X362613Y155400D01*
X362627Y155307D01*
X362638Y155210D01*
X362641Y155106D01*
Y155099D01*
Y155082D01*
Y155048D01*
X362638Y155003D01*
X360914D01*
Y154999D01*
Y154985D01*
X360917Y154965D01*
X360921Y154941D01*
X360924Y154906D01*
X360931Y154871D01*
X360938Y154830D01*
X360948Y154785D01*
X360976Y154692D01*
X361014Y154592D01*
X361038Y154547D01*
X361062Y154498D01*
X361093Y154457D01*
X361128Y154416D01*
X361132Y154412D01*
X361138Y154409D01*
X361149Y154398D01*
X361163Y154384D01*
X361183Y154371D01*
X361204Y154353D01*
X361232Y154333D01*
X361263Y154315D01*
X361332Y154277D01*
X361415Y154246D01*
X361460Y154232D01*
X361508Y154226D01*
X361560Y154219D01*
X361612Y154215D01*
X361632D01*
X361646Y154219D01*
X361688Y154222D01*
X361740Y154229D01*
X361795Y154243D01*
X361857Y154263D01*
X361919Y154288D01*
X361978Y154326D01*
X361981D01*
X361985Y154333D01*
X362002Y154346D01*
X362030Y154374D01*
X362064Y154416D01*
X362102Y154464D01*
X362144Y154529D01*
X362185Y154606D01*
X362220Y154692D01*
X362627Y154640D01*
Y154636D01*
X362624Y154623D01*
X362617Y154606D01*
X362607Y154581D01*
X362596Y154550D01*
X362582Y154516D01*
X362565Y154478D01*
X362548Y154436D01*
X362500Y154350D01*
X362437Y154257D01*
X362399Y154212D01*
X362361Y154167D01*
X362320Y154125D01*
X362271Y154087D01*
X362268Y154084D01*
X362261Y154080D01*
X362244Y154070D01*
X362227Y154056D01*
X362199Y154042D01*
X362168Y154025D01*
X362133Y154008D01*
X362092Y153991D01*
X362047Y153973D01*
X361995Y153956D01*
X361943Y153939D01*
X361885Y153925D01*
X361822Y153911D01*
X361757Y153901D01*
X361684Y153897D01*
X361612Y153894D01*
X361591D01*
X361563Y153897D01*
X361529D01*
X361484Y153904D01*
X361436Y153911D01*
X361380Y153921D01*
X361321Y153932D01*
X361259Y153949D01*
X361194Y153970D01*
X361125Y153994D01*
X361059Y154025D01*
X360990Y154060D01*
X360928Y154101D01*
X360866Y154150D01*
X360807Y154205D01*
X360803Y154208D01*
X360793Y154219D01*
X360779Y154236D01*
X360762Y154263D01*
X360738Y154295D01*
X360714Y154333D01*
X360686Y154377D01*
X360662Y154429D01*
X360634Y154488D01*
X360606Y154554D01*
X360582Y154626D01*
X360558Y154706D01*
X360541Y154789D01*
X360527Y154878D01*
X360517Y154975D01*
X360513Y155079D01*
Y155086D01*
Y155103D01*
X360517Y155134D01*
Y155175D01*
X360524Y155224D01*
X360531Y155279D01*
X360537Y155345D01*
X360551Y155410D01*
X360565Y155483D01*
X360586Y155555D01*
X360610Y155631D01*
X360638Y155707D01*
X360672Y155780D01*
X360714Y155852D01*
X360759Y155922D01*
X360810Y155984D01*
X360814Y155987D01*
X360824Y155998D01*
X360841Y156015D01*
X360866Y156036D01*
X360893Y156060D01*
X360931Y156087D01*
X360973Y156115D01*
X361021Y156146D01*
X361073Y156177D01*
X361132Y156205D01*
X361197Y156233D01*
X361266Y156257D01*
X361342Y156277D01*
X361418Y156295D01*
X361505Y156305D01*
X361591Y156308D01*
X361612D01*
X361636Y156305D01*
D02*
G37*
G36*
X35619Y141008D02*
X35508Y140987D01*
X35411Y140966D01*
X35314Y140939D01*
X35231Y140911D01*
X35147Y140876D01*
X35078Y140849D01*
X35015Y140814D01*
X34953Y140779D01*
X34905Y140744D01*
X34863Y140717D01*
X34794Y140661D01*
X34752Y140627D01*
X34745Y140620D01*
X34738Y140613D01*
X34648Y140488D01*
X34579Y140363D01*
X34530Y140231D01*
X34495Y140113D01*
X34475Y140003D01*
X34468Y139961D01*
Y139919D01*
X34461Y139885D01*
Y139843D01*
X34468Y139739D01*
X34482Y139635D01*
X34502Y139545D01*
X34530Y139455D01*
X34592Y139295D01*
X34676Y139157D01*
X34710Y139101D01*
X34752Y139053D01*
X34787Y139011D01*
X34821Y138969D01*
X34842Y138942D01*
X34863Y138921D01*
X34877Y138914D01*
X34884Y138907D01*
X34967Y138845D01*
X35064Y138789D01*
X35168Y138741D01*
X35272Y138706D01*
X35501Y138637D01*
X35723Y138595D01*
X35827Y138581D01*
X35924Y138574D01*
X36014Y138567D01*
X36090Y138560D01*
X36153Y138553D01*
X36201D01*
X36236D01*
X36243D01*
X36409Y138560D01*
X36569Y138567D01*
X36707Y138588D01*
X36839Y138609D01*
X36964Y138637D01*
X37075Y138671D01*
X37172Y138706D01*
X37262Y138741D01*
X37339Y138768D01*
X37408Y138803D01*
X37463Y138838D01*
X37505Y138865D01*
X37547Y138886D01*
X37567Y138907D01*
X37581Y138914D01*
X37588Y138921D01*
X37664Y138990D01*
X37727Y139066D01*
X37789Y139150D01*
X37838Y139226D01*
X37879Y139309D01*
X37914Y139385D01*
X37963Y139538D01*
X37997Y139677D01*
X38004Y139732D01*
X38011Y139788D01*
X38018Y139829D01*
Y139885D01*
X38011Y140023D01*
X37983Y140155D01*
X37942Y140266D01*
X37900Y140363D01*
X37852Y140439D01*
X37817Y140502D01*
X37789Y140536D01*
X37775Y140550D01*
X37678Y140647D01*
X37567Y140731D01*
X37449Y140793D01*
X37339Y140849D01*
X37234Y140890D01*
X37151Y140918D01*
X37117Y140925D01*
X37096Y140932D01*
X37082Y140939D01*
X37075D01*
X37193Y141701D01*
X37318Y141674D01*
X37443Y141632D01*
X37553Y141590D01*
X37657Y141549D01*
X37754Y141500D01*
X37845Y141445D01*
X37921Y141396D01*
X37997Y141341D01*
X38060Y141292D01*
X38115Y141244D01*
X38164Y141202D01*
X38205Y141161D01*
X38233Y141133D01*
X38254Y141105D01*
X38268Y141091D01*
X38275Y141084D01*
X38344Y140994D01*
X38406Y140897D01*
X38455Y140793D01*
X38496Y140689D01*
X38566Y140481D01*
X38614Y140287D01*
X38628Y140197D01*
X38642Y140113D01*
X38649Y140037D01*
X38656Y139975D01*
X38663Y139926D01*
Y139850D01*
X38649Y139635D01*
X38621Y139427D01*
X38573Y139240D01*
X38545Y139157D01*
X38524Y139073D01*
X38496Y139004D01*
X38469Y138942D01*
X38448Y138886D01*
X38420Y138838D01*
X38406Y138796D01*
X38393Y138768D01*
X38379Y138754D01*
Y138748D01*
X38261Y138567D01*
X38129Y138415D01*
X37983Y138283D01*
X37852Y138179D01*
X37727Y138096D01*
X37671Y138068D01*
X37623Y138040D01*
X37588Y138019D01*
X37560Y138006D01*
X37540Y137992D01*
X37533D01*
X37318Y137908D01*
X37089Y137853D01*
X36867Y137811D01*
X36666Y137777D01*
X36569Y137770D01*
X36486Y137763D01*
X36409Y137756D01*
X36340D01*
X36291Y137749D01*
X36250D01*
X36222D01*
X36215D01*
X36007Y137756D01*
X35806Y137777D01*
X35619Y137804D01*
X35445Y137839D01*
X35286Y137881D01*
X35140Y137929D01*
X35009Y137985D01*
X34891Y138040D01*
X34787Y138089D01*
X34690Y138144D01*
X34613Y138193D01*
X34551Y138234D01*
X34495Y138269D01*
X34461Y138297D01*
X34440Y138318D01*
X34433Y138324D01*
X34322Y138435D01*
X34232Y138553D01*
X34149Y138678D01*
X34079Y138803D01*
X34017Y138935D01*
X33968Y139059D01*
X33927Y139184D01*
X33892Y139302D01*
X33864Y139413D01*
X33851Y139517D01*
X33837Y139614D01*
X33823Y139691D01*
Y139760D01*
X33816Y139808D01*
Y139850D01*
X33823Y139989D01*
X33837Y140120D01*
X33858Y140245D01*
X33885Y140370D01*
X33920Y140481D01*
X33962Y140585D01*
X33996Y140682D01*
X34045Y140772D01*
X34086Y140849D01*
X34121Y140925D01*
X34163Y140980D01*
X34197Y141036D01*
X34225Y141070D01*
X34246Y141105D01*
X34260Y141119D01*
X34267Y141126D01*
X34357Y141216D01*
X34447Y141306D01*
X34551Y141383D01*
X34655Y141445D01*
X34759Y141507D01*
X34863Y141563D01*
X35057Y141646D01*
X35154Y141681D01*
X35237Y141708D01*
X35314Y141729D01*
X35383Y141750D01*
X35438Y141764D01*
X35480Y141771D01*
X35508Y141778D01*
X35515D01*
X35619Y141008D01*
D02*
G37*
G36*
X40369Y137555D02*
X40389Y137416D01*
X40403Y137291D01*
X40417Y137180D01*
Y137090D01*
X40424Y137021D01*
Y136965D01*
X40417Y136785D01*
X40396Y136626D01*
X40362Y136487D01*
X40327Y136369D01*
X40292Y136279D01*
X40258Y136216D01*
X40237Y136175D01*
X40230Y136161D01*
X40154Y136064D01*
X40078Y135981D01*
X39994Y135911D01*
X39911Y135856D01*
X39842Y135814D01*
X39786Y135787D01*
X39752Y135773D01*
X39745Y135766D01*
X39738D01*
X39641Y135738D01*
X39530Y135717D01*
X39419Y135703D01*
X39308Y135696D01*
X39204Y135689D01*
X39121Y135683D01*
X39086D01*
X39065D01*
X39051D01*
X39044D01*
X38559D01*
Y134989D01*
X37949D01*
Y135683D01*
X33920D01*
Y136466D01*
X37949D01*
Y137368D01*
X38559D01*
Y136466D01*
X38982D01*
X39128Y136473D01*
X39245Y136487D01*
X39342Y136515D01*
X39426Y136542D01*
X39481Y136563D01*
X39523Y136591D01*
X39543Y136605D01*
X39550Y136612D01*
X39599Y136674D01*
X39641Y136750D01*
X39668Y136834D01*
X39682Y136917D01*
X39696Y136993D01*
X39703Y137063D01*
Y137118D01*
X39696Y137284D01*
X39689Y137361D01*
X39682Y137430D01*
X39668Y137492D01*
X39661Y137541D01*
X39655Y137569D01*
Y137583D01*
X40341Y137700D01*
X40369Y137555D01*
D02*
G37*
G36*
Y135072D02*
X40389Y134934D01*
X40403Y134809D01*
X40417Y134698D01*
Y134608D01*
X40424Y134538D01*
Y134483D01*
X40417Y134303D01*
X40396Y134143D01*
X40362Y134004D01*
X40327Y133887D01*
X40292Y133797D01*
X40258Y133734D01*
X40237Y133693D01*
X40230Y133679D01*
X40154Y133581D01*
X40078Y133498D01*
X39994Y133429D01*
X39911Y133373D01*
X39842Y133332D01*
X39786Y133304D01*
X39752Y133290D01*
X39745Y133283D01*
X39738D01*
X39641Y133256D01*
X39530Y133235D01*
X39419Y133221D01*
X39308Y133214D01*
X39204Y133207D01*
X39121Y133200D01*
X39086D01*
X39065D01*
X39051D01*
X39044D01*
X38559D01*
Y132507D01*
X37949D01*
Y133200D01*
X33920D01*
Y133984D01*
X37949D01*
Y134885D01*
X38559D01*
Y133984D01*
X38982D01*
X39128Y133991D01*
X39245Y134004D01*
X39342Y134032D01*
X39426Y134060D01*
X39481Y134081D01*
X39523Y134108D01*
X39543Y134122D01*
X39550Y134129D01*
X39599Y134192D01*
X39641Y134268D01*
X39668Y134351D01*
X39682Y134434D01*
X39696Y134511D01*
X39703Y134580D01*
Y134635D01*
X39696Y134802D01*
X39689Y134878D01*
X39682Y134948D01*
X39668Y135010D01*
X39661Y135058D01*
X39655Y135086D01*
Y135100D01*
X40341Y135218D01*
X40369Y135072D01*
D02*
G37*
G36*
X34620Y129761D02*
X34613Y129684D01*
X34606Y129615D01*
X34599Y129553D01*
Y129504D01*
X34592Y129463D01*
Y129345D01*
X34599Y129289D01*
X34613Y129248D01*
X34620Y129206D01*
X34634Y129178D01*
X34641Y129157D01*
X34648Y129144D01*
Y129137D01*
X34697Y129081D01*
X34745Y129040D01*
X34787Y129012D01*
X34794Y129005D01*
X34801D01*
X34849Y128991D01*
X34911Y128984D01*
X34981Y128970D01*
X35050D01*
X35120Y128963D01*
X35175D01*
X35217D01*
X35224D01*
X35231D01*
X37949D01*
Y129761D01*
X38559D01*
Y128963D01*
X40174D01*
X39703Y128180D01*
X38559D01*
Y127597D01*
X37949D01*
Y128180D01*
X35272D01*
X35147D01*
X35029Y128187D01*
X34925D01*
X34828Y128194D01*
X34745Y128201D01*
X34669Y128208D01*
X34599Y128215D01*
X34544Y128228D01*
X34495Y128235D01*
X34454Y128242D01*
X34419Y128249D01*
X34391Y128256D01*
X34357Y128263D01*
X34343Y128270D01*
X34267Y128312D01*
X34197Y128360D01*
X34135Y128415D01*
X34086Y128471D01*
X34045Y128526D01*
X34017Y128568D01*
X33996Y128596D01*
X33989Y128603D01*
X33948Y128700D01*
X33913Y128804D01*
X33892Y128915D01*
X33871Y129026D01*
X33864Y129123D01*
X33858Y129199D01*
Y129268D01*
X33871Y129476D01*
X33878Y129574D01*
X33892Y129664D01*
X33906Y129747D01*
X33913Y129809D01*
X33927Y129851D01*
Y129865D01*
X34620Y129761D01*
D02*
G37*
G36*
X35619Y126606D02*
X35508Y126585D01*
X35411Y126564D01*
X35314Y126536D01*
X35231Y126509D01*
X35147Y126474D01*
X35078Y126446D01*
X35015Y126412D01*
X34953Y126377D01*
X34905Y126342D01*
X34863Y126314D01*
X34794Y126259D01*
X34752Y126224D01*
X34745Y126217D01*
X34738Y126210D01*
X34648Y126086D01*
X34579Y125961D01*
X34530Y125829D01*
X34495Y125711D01*
X34475Y125600D01*
X34468Y125559D01*
Y125517D01*
X34461Y125482D01*
Y125441D01*
X34468Y125337D01*
X34482Y125233D01*
X34502Y125143D01*
X34530Y125052D01*
X34592Y124893D01*
X34676Y124754D01*
X34710Y124699D01*
X34752Y124650D01*
X34787Y124609D01*
X34821Y124567D01*
X34842Y124539D01*
X34863Y124518D01*
X34877Y124512D01*
X34884Y124505D01*
X34967Y124442D01*
X35064Y124387D01*
X35168Y124338D01*
X35272Y124304D01*
X35501Y124234D01*
X35723Y124193D01*
X35827Y124179D01*
X35924Y124172D01*
X36014Y124165D01*
X36090Y124158D01*
X36153Y124151D01*
X36201D01*
X36236D01*
X36243D01*
X36409Y124158D01*
X36569Y124165D01*
X36707Y124186D01*
X36839Y124206D01*
X36964Y124234D01*
X37075Y124269D01*
X37172Y124304D01*
X37262Y124338D01*
X37339Y124366D01*
X37408Y124401D01*
X37463Y124435D01*
X37505Y124463D01*
X37547Y124484D01*
X37567Y124505D01*
X37581Y124512D01*
X37588Y124518D01*
X37664Y124588D01*
X37727Y124664D01*
X37789Y124747D01*
X37838Y124824D01*
X37879Y124907D01*
X37914Y124983D01*
X37963Y125136D01*
X37997Y125274D01*
X38004Y125330D01*
X38011Y125385D01*
X38018Y125427D01*
Y125482D01*
X38011Y125621D01*
X37983Y125753D01*
X37942Y125864D01*
X37900Y125961D01*
X37852Y126037D01*
X37817Y126100D01*
X37789Y126134D01*
X37775Y126148D01*
X37678Y126245D01*
X37567Y126328D01*
X37449Y126391D01*
X37339Y126446D01*
X37234Y126488D01*
X37151Y126516D01*
X37117Y126523D01*
X37096Y126529D01*
X37082Y126536D01*
X37075D01*
X37193Y127299D01*
X37318Y127271D01*
X37443Y127230D01*
X37553Y127188D01*
X37657Y127147D01*
X37754Y127098D01*
X37845Y127043D01*
X37921Y126994D01*
X37997Y126939D01*
X38060Y126890D01*
X38115Y126841D01*
X38164Y126800D01*
X38205Y126758D01*
X38233Y126730D01*
X38254Y126703D01*
X38268Y126689D01*
X38275Y126682D01*
X38344Y126592D01*
X38406Y126495D01*
X38455Y126391D01*
X38496Y126287D01*
X38566Y126079D01*
X38614Y125885D01*
X38628Y125794D01*
X38642Y125711D01*
X38649Y125635D01*
X38656Y125573D01*
X38663Y125524D01*
Y125448D01*
X38649Y125233D01*
X38621Y125025D01*
X38573Y124838D01*
X38545Y124754D01*
X38524Y124671D01*
X38496Y124602D01*
X38469Y124539D01*
X38448Y124484D01*
X38420Y124435D01*
X38406Y124394D01*
X38393Y124366D01*
X38379Y124352D01*
Y124345D01*
X38261Y124165D01*
X38129Y124012D01*
X37983Y123881D01*
X37852Y123777D01*
X37727Y123693D01*
X37671Y123666D01*
X37623Y123638D01*
X37588Y123617D01*
X37560Y123603D01*
X37540Y123589D01*
X37533D01*
X37318Y123506D01*
X37089Y123451D01*
X36867Y123409D01*
X36666Y123374D01*
X36569Y123367D01*
X36486Y123361D01*
X36409Y123354D01*
X36340D01*
X36291Y123347D01*
X36250D01*
X36222D01*
X36215D01*
X36007Y123354D01*
X35806Y123374D01*
X35619Y123402D01*
X35445Y123437D01*
X35286Y123478D01*
X35140Y123527D01*
X35009Y123582D01*
X34891Y123638D01*
X34787Y123686D01*
X34690Y123742D01*
X34613Y123790D01*
X34551Y123832D01*
X34495Y123867D01*
X34461Y123894D01*
X34440Y123915D01*
X34433Y123922D01*
X34322Y124033D01*
X34232Y124151D01*
X34149Y124276D01*
X34079Y124401D01*
X34017Y124532D01*
X33968Y124657D01*
X33927Y124782D01*
X33892Y124900D01*
X33864Y125011D01*
X33851Y125115D01*
X33837Y125212D01*
X33823Y125288D01*
Y125358D01*
X33816Y125406D01*
Y125448D01*
X33823Y125586D01*
X33837Y125718D01*
X33858Y125843D01*
X33885Y125968D01*
X33920Y126079D01*
X33962Y126183D01*
X33996Y126280D01*
X34045Y126370D01*
X34086Y126446D01*
X34121Y126523D01*
X34163Y126578D01*
X34197Y126634D01*
X34225Y126668D01*
X34246Y126703D01*
X34260Y126717D01*
X34267Y126724D01*
X34357Y126814D01*
X34447Y126904D01*
X34551Y126980D01*
X34655Y127043D01*
X34759Y127105D01*
X34863Y127161D01*
X35057Y127244D01*
X35154Y127278D01*
X35237Y127306D01*
X35314Y127327D01*
X35383Y127348D01*
X35438Y127361D01*
X35480Y127368D01*
X35508Y127375D01*
X35515D01*
X35619Y126606D01*
D02*
G37*
G36*
X34017Y122556D02*
X34121Y122514D01*
X34211Y122480D01*
X34294Y122452D01*
X34371Y122431D01*
X34426Y122417D01*
X34461Y122410D01*
X34475D01*
X34537Y122404D01*
X34620Y122397D01*
X34710Y122390D01*
X34814Y122383D01*
X34925Y122376D01*
X35043D01*
X35279Y122369D01*
X35390D01*
X35501Y122362D01*
X35598D01*
X35688D01*
X35758D01*
X35813D01*
X35848D01*
X35861D01*
X36909D01*
X37006D01*
X37089D01*
X37165Y122355D01*
X37241D01*
X37366Y122348D01*
X37463Y122341D01*
X37540Y122334D01*
X37588Y122327D01*
X37623Y122320D01*
X37630D01*
X37748Y122293D01*
X37852Y122251D01*
X37942Y122209D01*
X38018Y122168D01*
X38080Y122133D01*
X38129Y122099D01*
X38157Y122078D01*
X38164Y122071D01*
X38240Y121994D01*
X38309Y121911D01*
X38372Y121821D01*
X38420Y121731D01*
X38462Y121648D01*
X38489Y121585D01*
X38503Y121558D01*
X38510Y121537D01*
X38517Y121530D01*
Y121523D01*
X38566Y121377D01*
X38600Y121218D01*
X38628Y121058D01*
X38642Y120906D01*
X38656Y120774D01*
Y120712D01*
X38663Y120663D01*
Y120566D01*
X38656Y120351D01*
X38635Y120150D01*
X38607Y119970D01*
X38593Y119887D01*
X38580Y119817D01*
X38566Y119748D01*
X38552Y119685D01*
X38538Y119637D01*
X38524Y119595D01*
X38510Y119561D01*
X38503Y119533D01*
X38496Y119519D01*
Y119512D01*
X38427Y119353D01*
X38351Y119214D01*
X38275Y119096D01*
X38198Y118999D01*
X38129Y118923D01*
X38073Y118867D01*
X38039Y118833D01*
X38032Y118819D01*
X38025D01*
X37907Y118735D01*
X37775Y118666D01*
X37644Y118611D01*
X37519Y118562D01*
X37408Y118527D01*
X37359Y118513D01*
X37318Y118500D01*
X37283Y118493D01*
X37255Y118486D01*
X37241Y118479D01*
X37234D01*
X37130Y119249D01*
X37221Y119276D01*
X37304Y119304D01*
X37443Y119360D01*
X37567Y119429D01*
X37657Y119491D01*
X37727Y119547D01*
X37782Y119595D01*
X37810Y119623D01*
X37817Y119637D01*
X37879Y119748D01*
X37928Y119880D01*
X37963Y120011D01*
X37990Y120143D01*
X38004Y120268D01*
Y120316D01*
X38011Y120365D01*
Y120455D01*
X37997Y120663D01*
X37970Y120843D01*
X37928Y120996D01*
X37879Y121121D01*
X37824Y121218D01*
X37803Y121252D01*
X37782Y121287D01*
X37768Y121315D01*
X37754Y121329D01*
X37741Y121343D01*
X37657Y121419D01*
X37553Y121474D01*
X37443Y121516D01*
X37332Y121544D01*
X37227Y121558D01*
X37144Y121572D01*
X37117D01*
X37089D01*
X37075D01*
X37068D01*
X37047D01*
X37020D01*
X36950D01*
X36922Y121565D01*
X36895D01*
X36874D01*
X36867D01*
X36839Y121474D01*
X36811Y121377D01*
X36784Y121266D01*
X36756Y121155D01*
X36707Y120927D01*
X36666Y120698D01*
X36652Y120587D01*
X36638Y120490D01*
X36624Y120400D01*
X36610Y120316D01*
X36603Y120254D01*
X36597Y120205D01*
X36590Y120178D01*
Y120164D01*
X36569Y119997D01*
X36548Y119859D01*
X36527Y119734D01*
X36513Y119637D01*
X36493Y119561D01*
X36486Y119505D01*
X36472Y119477D01*
Y119464D01*
X36437Y119353D01*
X36395Y119242D01*
X36354Y119144D01*
X36312Y119061D01*
X36277Y118992D01*
X36243Y118943D01*
X36222Y118909D01*
X36215Y118895D01*
X36146Y118805D01*
X36076Y118729D01*
X36000Y118659D01*
X35931Y118604D01*
X35861Y118555D01*
X35813Y118520D01*
X35778Y118500D01*
X35764Y118493D01*
X35653Y118444D01*
X35549Y118403D01*
X35445Y118375D01*
X35348Y118361D01*
X35265Y118347D01*
X35196Y118340D01*
X35154D01*
X35147D01*
X35140D01*
X35036Y118347D01*
X34932Y118361D01*
X34835Y118375D01*
X34745Y118403D01*
X34579Y118472D01*
X34447Y118548D01*
X34385Y118583D01*
X34336Y118617D01*
X34287Y118652D01*
X34253Y118687D01*
X34225Y118715D01*
X34204Y118729D01*
X34190Y118742D01*
X34183Y118749D01*
X34121Y118833D01*
X34065Y118916D01*
X34010Y119013D01*
X33968Y119103D01*
X33906Y119297D01*
X33864Y119491D01*
X33844Y119574D01*
X33837Y119658D01*
X33830Y119734D01*
X33823Y119796D01*
X33816Y119845D01*
Y119921D01*
X33823Y120094D01*
X33837Y120254D01*
X33864Y120400D01*
X33892Y120531D01*
X33920Y120635D01*
X33934Y120684D01*
X33948Y120719D01*
X33955Y120746D01*
X33962Y120767D01*
X33968Y120781D01*
Y120788D01*
X34038Y120941D01*
X34114Y121093D01*
X34204Y121232D01*
X34294Y121363D01*
X34371Y121474D01*
X34412Y121516D01*
X34440Y121558D01*
X34468Y121592D01*
X34488Y121613D01*
X34495Y121627D01*
X34502Y121634D01*
X34378Y121648D01*
X34267Y121669D01*
X34169Y121696D01*
X34086Y121724D01*
X34017Y121745D01*
X33962Y121766D01*
X33934Y121779D01*
X33920Y121786D01*
Y122605D01*
X34017Y122556D01*
D02*
G37*
G36*
X34620Y117834D02*
X34613Y117758D01*
X34606Y117688D01*
X34599Y117626D01*
Y117577D01*
X34592Y117536D01*
Y117418D01*
X34599Y117362D01*
X34613Y117321D01*
X34620Y117279D01*
X34634Y117252D01*
X34641Y117231D01*
X34648Y117217D01*
Y117210D01*
X34697Y117154D01*
X34745Y117113D01*
X34787Y117085D01*
X34794Y117078D01*
X34801D01*
X34849Y117064D01*
X34911Y117057D01*
X34981Y117044D01*
X35050D01*
X35120Y117037D01*
X35175D01*
X35217D01*
X35224D01*
X35231D01*
X37949D01*
Y117834D01*
X38559D01*
Y117037D01*
X40174D01*
X39703Y116253D01*
X38559D01*
Y115670D01*
X37949D01*
Y116253D01*
X35272D01*
X35147D01*
X35029Y116260D01*
X34925D01*
X34828Y116267D01*
X34745Y116274D01*
X34669Y116281D01*
X34599Y116288D01*
X34544Y116301D01*
X34495Y116308D01*
X34454Y116315D01*
X34419Y116322D01*
X34391Y116329D01*
X34357Y116336D01*
X34343Y116343D01*
X34267Y116385D01*
X34197Y116433D01*
X34135Y116489D01*
X34086Y116544D01*
X34045Y116600D01*
X34017Y116641D01*
X33996Y116669D01*
X33989Y116676D01*
X33948Y116773D01*
X33913Y116877D01*
X33892Y116988D01*
X33871Y117099D01*
X33864Y117196D01*
X33858Y117272D01*
Y117342D01*
X33871Y117550D01*
X33878Y117647D01*
X33892Y117737D01*
X33906Y117820D01*
X33913Y117882D01*
X33927Y117924D01*
Y117938D01*
X34620Y117834D01*
D02*
G37*
G36*
X37047Y114908D02*
X37123D01*
X37193Y114901D01*
X37255D01*
X37359Y114894D01*
X37436Y114880D01*
X37491Y114873D01*
X37526Y114866D01*
X37533D01*
X37657Y114838D01*
X37768Y114797D01*
X37866Y114762D01*
X37949Y114720D01*
X38018Y114679D01*
X38073Y114651D01*
X38101Y114630D01*
X38115Y114623D01*
X38205Y114554D01*
X38282Y114471D01*
X38344Y114381D01*
X38406Y114298D01*
X38448Y114214D01*
X38483Y114152D01*
X38503Y114110D01*
X38510Y114103D01*
Y114096D01*
X38559Y113965D01*
X38600Y113833D01*
X38628Y113701D01*
X38642Y113583D01*
X38656Y113479D01*
Y113438D01*
X38663Y113396D01*
Y113327D01*
X38656Y113153D01*
X38628Y112987D01*
X38593Y112834D01*
X38545Y112689D01*
X38483Y112557D01*
X38420Y112439D01*
X38351Y112328D01*
X38282Y112231D01*
X38205Y112141D01*
X38136Y112065D01*
X38073Y112002D01*
X38011Y111954D01*
X37963Y111912D01*
X37928Y111877D01*
X37900Y111864D01*
X37893Y111857D01*
X38559D01*
Y111149D01*
X33920D01*
Y111933D01*
X36451D01*
X36610Y111940D01*
X36763Y111947D01*
X36895Y111968D01*
X37020Y111988D01*
X37130Y112016D01*
X37227Y112044D01*
X37318Y112079D01*
X37394Y112113D01*
X37463Y112148D01*
X37519Y112183D01*
X37560Y112210D01*
X37602Y112238D01*
X37630Y112259D01*
X37650Y112280D01*
X37657Y112287D01*
X37664Y112294D01*
X37720Y112363D01*
X37768Y112439D01*
X37852Y112585D01*
X37907Y112730D01*
X37942Y112862D01*
X37970Y112980D01*
X37976Y113035D01*
Y113077D01*
X37983Y113112D01*
Y113160D01*
X37976Y113278D01*
X37963Y113382D01*
X37935Y113472D01*
X37914Y113556D01*
X37886Y113618D01*
X37859Y113666D01*
X37845Y113701D01*
X37838Y113708D01*
X37782Y113791D01*
X37720Y113861D01*
X37657Y113916D01*
X37595Y113958D01*
X37540Y113992D01*
X37498Y114013D01*
X37470Y114027D01*
X37456Y114034D01*
X37359Y114069D01*
X37248Y114089D01*
X37130Y114110D01*
X37013Y114117D01*
X36909Y114124D01*
X36860Y114131D01*
X36818D01*
X36791D01*
X36763D01*
X36749D01*
X36742D01*
X33920D01*
Y114915D01*
X36770D01*
X36867D01*
X36957D01*
X37047Y114908D01*
D02*
G37*
G36*
X36499Y110220D02*
X36694Y110199D01*
X36874Y110172D01*
X37040Y110130D01*
X37193Y110089D01*
X37332Y110033D01*
X37463Y109978D01*
X37581Y109922D01*
X37685Y109867D01*
X37775Y109811D01*
X37852Y109756D01*
X37914Y109714D01*
X37970Y109672D01*
X38004Y109645D01*
X38025Y109624D01*
X38032Y109617D01*
X38143Y109499D01*
X38240Y109374D01*
X38323Y109249D01*
X38399Y109118D01*
X38455Y108986D01*
X38510Y108861D01*
X38552Y108729D01*
X38587Y108611D01*
X38607Y108494D01*
X38628Y108390D01*
X38642Y108299D01*
X38656Y108216D01*
Y108147D01*
X38663Y108098D01*
Y108057D01*
X38656Y107897D01*
X38642Y107745D01*
X38614Y107606D01*
X38580Y107467D01*
X38545Y107336D01*
X38496Y107218D01*
X38455Y107107D01*
X38406Y107010D01*
X38358Y106913D01*
X38309Y106836D01*
X38261Y106767D01*
X38226Y106705D01*
X38191Y106663D01*
X38164Y106628D01*
X38150Y106608D01*
X38143Y106601D01*
X38018Y106476D01*
X37886Y106365D01*
X37741Y106268D01*
X37588Y106185D01*
X37429Y106122D01*
X37269Y106060D01*
X37110Y106011D01*
X36957Y105976D01*
X36811Y105949D01*
X36680Y105921D01*
X36555Y105907D01*
X36444Y105900D01*
X36361Y105893D01*
X36291Y105886D01*
X36250D01*
X36243D01*
X36236D01*
X36021Y105893D01*
X35820Y105914D01*
X35633Y105942D01*
X35459Y105976D01*
X35300Y106025D01*
X35154Y106074D01*
X35022Y106129D01*
X34898Y106185D01*
X34794Y106240D01*
X34697Y106295D01*
X34620Y106344D01*
X34558Y106392D01*
X34502Y106427D01*
X34468Y106455D01*
X34447Y106476D01*
X34440Y106483D01*
X34329Y106601D01*
X34232Y106725D01*
X34149Y106850D01*
X34079Y106982D01*
X34017Y107114D01*
X33968Y107245D01*
X33927Y107370D01*
X33892Y107495D01*
X33871Y107613D01*
X33851Y107717D01*
X33837Y107814D01*
X33823Y107897D01*
Y107967D01*
X33816Y108015D01*
Y108057D01*
X33830Y108279D01*
X33858Y108487D01*
X33906Y108674D01*
X33927Y108764D01*
X33955Y108840D01*
X33982Y108917D01*
X34003Y108979D01*
X34031Y109035D01*
X34052Y109083D01*
X34065Y109125D01*
X34079Y109152D01*
X34093Y109166D01*
Y109173D01*
X34211Y109353D01*
X34336Y109513D01*
X34468Y109645D01*
X34599Y109756D01*
X34710Y109846D01*
X34766Y109880D01*
X34808Y109908D01*
X34842Y109929D01*
X34870Y109943D01*
X34884Y109957D01*
X34891D01*
X34995Y110005D01*
X35099Y110047D01*
X35327Y110116D01*
X35563Y110165D01*
X35785Y110192D01*
X35889Y110206D01*
X35986Y110213D01*
X36076Y110220D01*
X36153D01*
X36215Y110227D01*
X36257D01*
X36291D01*
X36298D01*
X36499Y110220D01*
D02*
G37*
G36*
X35619Y104735D02*
X35508Y104714D01*
X35411Y104694D01*
X35314Y104666D01*
X35231Y104638D01*
X35147Y104604D01*
X35078Y104576D01*
X35015Y104541D01*
X34953Y104506D01*
X34905Y104472D01*
X34863Y104444D01*
X34794Y104389D01*
X34752Y104354D01*
X34745Y104347D01*
X34738Y104340D01*
X34648Y104215D01*
X34579Y104090D01*
X34530Y103959D01*
X34495Y103841D01*
X34475Y103730D01*
X34468Y103688D01*
Y103647D01*
X34461Y103612D01*
Y103570D01*
X34468Y103466D01*
X34482Y103362D01*
X34502Y103272D01*
X34530Y103182D01*
X34592Y103022D01*
X34676Y102884D01*
X34710Y102828D01*
X34752Y102780D01*
X34787Y102738D01*
X34821Y102697D01*
X34842Y102669D01*
X34863Y102648D01*
X34877Y102641D01*
X34884Y102634D01*
X34967Y102572D01*
X35064Y102516D01*
X35168Y102468D01*
X35272Y102433D01*
X35501Y102364D01*
X35723Y102322D01*
X35827Y102308D01*
X35924Y102301D01*
X36014Y102294D01*
X36090Y102288D01*
X36153Y102281D01*
X36201D01*
X36236D01*
X36243D01*
X36409Y102288D01*
X36569Y102294D01*
X36707Y102315D01*
X36839Y102336D01*
X36964Y102364D01*
X37075Y102398D01*
X37172Y102433D01*
X37262Y102468D01*
X37339Y102495D01*
X37408Y102530D01*
X37463Y102565D01*
X37505Y102593D01*
X37547Y102613D01*
X37567Y102634D01*
X37581Y102641D01*
X37588Y102648D01*
X37664Y102717D01*
X37727Y102794D01*
X37789Y102877D01*
X37838Y102953D01*
X37879Y103036D01*
X37914Y103113D01*
X37963Y103265D01*
X37997Y103404D01*
X38004Y103459D01*
X38011Y103515D01*
X38018Y103556D01*
Y103612D01*
X38011Y103751D01*
X37983Y103882D01*
X37942Y103993D01*
X37900Y104090D01*
X37852Y104167D01*
X37817Y104229D01*
X37789Y104264D01*
X37775Y104278D01*
X37678Y104375D01*
X37567Y104458D01*
X37449Y104520D01*
X37339Y104576D01*
X37234Y104617D01*
X37151Y104645D01*
X37117Y104652D01*
X37096Y104659D01*
X37082Y104666D01*
X37075D01*
X37193Y105429D01*
X37318Y105401D01*
X37443Y105359D01*
X37553Y105318D01*
X37657Y105276D01*
X37754Y105228D01*
X37845Y105172D01*
X37921Y105124D01*
X37997Y105068D01*
X38060Y105020D01*
X38115Y104971D01*
X38164Y104929D01*
X38205Y104888D01*
X38233Y104860D01*
X38254Y104832D01*
X38268Y104818D01*
X38275Y104811D01*
X38344Y104721D01*
X38406Y104624D01*
X38455Y104520D01*
X38496Y104416D01*
X38566Y104208D01*
X38614Y104014D01*
X38628Y103924D01*
X38642Y103841D01*
X38649Y103764D01*
X38656Y103702D01*
X38663Y103653D01*
Y103577D01*
X38649Y103362D01*
X38621Y103154D01*
X38573Y102967D01*
X38545Y102884D01*
X38524Y102801D01*
X38496Y102731D01*
X38469Y102669D01*
X38448Y102613D01*
X38420Y102565D01*
X38406Y102523D01*
X38393Y102495D01*
X38379Y102482D01*
Y102475D01*
X38261Y102294D01*
X38129Y102142D01*
X37983Y102010D01*
X37852Y101906D01*
X37727Y101823D01*
X37671Y101795D01*
X37623Y101767D01*
X37588Y101747D01*
X37560Y101733D01*
X37540Y101719D01*
X37533D01*
X37318Y101636D01*
X37089Y101580D01*
X36867Y101539D01*
X36666Y101504D01*
X36569Y101497D01*
X36486Y101490D01*
X36409Y101483D01*
X36340D01*
X36291Y101476D01*
X36250D01*
X36222D01*
X36215D01*
X36007Y101483D01*
X35806Y101504D01*
X35619Y101532D01*
X35445Y101566D01*
X35286Y101608D01*
X35140Y101657D01*
X35009Y101712D01*
X34891Y101767D01*
X34787Y101816D01*
X34690Y101871D01*
X34613Y101920D01*
X34551Y101962D01*
X34495Y101996D01*
X34461Y102024D01*
X34440Y102045D01*
X34433Y102052D01*
X34322Y102163D01*
X34232Y102281D01*
X34149Y102405D01*
X34079Y102530D01*
X34017Y102662D01*
X33968Y102787D01*
X33927Y102912D01*
X33892Y103029D01*
X33864Y103140D01*
X33851Y103244D01*
X33837Y103342D01*
X33823Y103418D01*
Y103487D01*
X33816Y103536D01*
Y103577D01*
X33823Y103716D01*
X33837Y103848D01*
X33858Y103973D01*
X33885Y104097D01*
X33920Y104208D01*
X33962Y104312D01*
X33996Y104409D01*
X34045Y104500D01*
X34086Y104576D01*
X34121Y104652D01*
X34163Y104707D01*
X34197Y104763D01*
X34225Y104798D01*
X34246Y104832D01*
X34260Y104846D01*
X34267Y104853D01*
X34357Y104943D01*
X34447Y105033D01*
X34551Y105110D01*
X34655Y105172D01*
X34759Y105234D01*
X34863Y105290D01*
X35057Y105373D01*
X35154Y105408D01*
X35237Y105436D01*
X35314Y105456D01*
X35383Y105477D01*
X35438Y105491D01*
X35480Y105498D01*
X35508Y105505D01*
X35515D01*
X35619Y104735D01*
D02*
G37*
G36*
X36513Y98266D02*
X36742Y98238D01*
X36950Y98196D01*
X37040Y98175D01*
X37130Y98155D01*
X37207Y98134D01*
X37283Y98113D01*
X37345Y98092D01*
X37394Y98071D01*
X37436Y98058D01*
X37463Y98044D01*
X37484Y98037D01*
X37491D01*
X37685Y97940D01*
X37859Y97836D01*
X38004Y97718D01*
X38129Y97607D01*
X38226Y97510D01*
X38295Y97427D01*
X38316Y97392D01*
X38337Y97371D01*
X38351Y97357D01*
Y97350D01*
X38406Y97267D01*
X38455Y97177D01*
X38531Y96997D01*
X38587Y96823D01*
X38621Y96657D01*
X38635Y96581D01*
X38649Y96518D01*
X38656Y96456D01*
Y96400D01*
X38663Y96359D01*
Y96303D01*
X38656Y96144D01*
X38635Y95991D01*
X38607Y95859D01*
X38573Y95749D01*
X38538Y95658D01*
X38510Y95589D01*
X38489Y95547D01*
X38483Y95541D01*
Y95534D01*
X38406Y95416D01*
X38323Y95312D01*
X38233Y95215D01*
X38150Y95131D01*
X38073Y95062D01*
X38004Y95007D01*
X37963Y94979D01*
X37956Y94965D01*
X38559D01*
Y94251D01*
X32145D01*
Y95034D01*
X34398D01*
X34308Y95111D01*
X34225Y95194D01*
X34149Y95277D01*
X34093Y95360D01*
X34045Y95430D01*
X34003Y95492D01*
X33982Y95527D01*
X33975Y95541D01*
X33920Y95658D01*
X33885Y95783D01*
X33858Y95901D01*
X33837Y96012D01*
X33823Y96109D01*
X33816Y96178D01*
Y96248D01*
X33823Y96352D01*
X33830Y96449D01*
X33864Y96636D01*
X33913Y96810D01*
X33968Y96962D01*
X33996Y97031D01*
X34017Y97094D01*
X34045Y97142D01*
X34065Y97191D01*
X34086Y97226D01*
X34100Y97253D01*
X34114Y97267D01*
Y97274D01*
X34239Y97447D01*
X34378Y97593D01*
X34523Y97725D01*
X34669Y97829D01*
X34794Y97912D01*
X34849Y97940D01*
X34898Y97968D01*
X34932Y97988D01*
X34960Y98002D01*
X34981Y98016D01*
X34988D01*
X35210Y98099D01*
X35432Y98162D01*
X35647Y98210D01*
X35841Y98238D01*
X35931Y98252D01*
X36014Y98259D01*
X36090Y98266D01*
X36153D01*
X36201Y98273D01*
X36236D01*
X36264D01*
X36271D01*
X36513Y98266D01*
D02*
G37*
G36*
X36499Y93322D02*
X36694Y93301D01*
X36874Y93273D01*
X37040Y93231D01*
X37193Y93190D01*
X37332Y93134D01*
X37463Y93079D01*
X37581Y93023D01*
X37685Y92968D01*
X37775Y92912D01*
X37852Y92857D01*
X37914Y92815D01*
X37970Y92774D01*
X38004Y92746D01*
X38025Y92725D01*
X38032Y92718D01*
X38143Y92600D01*
X38240Y92476D01*
X38323Y92351D01*
X38399Y92219D01*
X38455Y92087D01*
X38510Y91962D01*
X38552Y91831D01*
X38587Y91713D01*
X38607Y91595D01*
X38628Y91491D01*
X38642Y91401D01*
X38656Y91318D01*
Y91248D01*
X38663Y91200D01*
Y91158D01*
X38656Y90999D01*
X38642Y90846D01*
X38614Y90707D01*
X38580Y90569D01*
X38545Y90437D01*
X38496Y90319D01*
X38455Y90208D01*
X38406Y90111D01*
X38358Y90014D01*
X38309Y89938D01*
X38261Y89868D01*
X38226Y89806D01*
X38191Y89764D01*
X38164Y89730D01*
X38150Y89709D01*
X38143Y89702D01*
X38018Y89577D01*
X37886Y89466D01*
X37741Y89369D01*
X37588Y89286D01*
X37429Y89223D01*
X37269Y89161D01*
X37110Y89113D01*
X36957Y89078D01*
X36811Y89050D01*
X36680Y89022D01*
X36555Y89009D01*
X36444Y89002D01*
X36361Y88995D01*
X36291Y88988D01*
X36250D01*
X36243D01*
X36236D01*
X36021Y88995D01*
X35820Y89015D01*
X35633Y89043D01*
X35459Y89078D01*
X35300Y89126D01*
X35154Y89175D01*
X35022Y89230D01*
X34898Y89286D01*
X34794Y89341D01*
X34697Y89397D01*
X34620Y89445D01*
X34558Y89494D01*
X34502Y89529D01*
X34468Y89556D01*
X34447Y89577D01*
X34440Y89584D01*
X34329Y89702D01*
X34232Y89827D01*
X34149Y89951D01*
X34079Y90083D01*
X34017Y90215D01*
X33968Y90347D01*
X33927Y90472D01*
X33892Y90596D01*
X33871Y90714D01*
X33851Y90818D01*
X33837Y90915D01*
X33823Y90999D01*
Y91068D01*
X33816Y91117D01*
Y91158D01*
X33830Y91380D01*
X33858Y91588D01*
X33906Y91775D01*
X33927Y91865D01*
X33955Y91942D01*
X33982Y92018D01*
X34003Y92080D01*
X34031Y92136D01*
X34052Y92184D01*
X34065Y92226D01*
X34079Y92254D01*
X34093Y92268D01*
Y92275D01*
X34211Y92455D01*
X34336Y92614D01*
X34468Y92746D01*
X34599Y92857D01*
X34710Y92947D01*
X34766Y92982D01*
X34808Y93010D01*
X34842Y93030D01*
X34870Y93044D01*
X34884Y93058D01*
X34891D01*
X34995Y93107D01*
X35099Y93148D01*
X35327Y93217D01*
X35563Y93266D01*
X35785Y93294D01*
X35889Y93308D01*
X35986Y93315D01*
X36076Y93322D01*
X36153D01*
X36215Y93329D01*
X36257D01*
X36291D01*
X36298D01*
X36499Y93322D01*
D02*
G37*
G36*
X40320Y83440D02*
X39564D01*
Y85548D01*
X33920D01*
Y86394D01*
X39564D01*
Y88502D01*
X40320D01*
Y83440D01*
D02*
G37*
%LPC*%
G36*
X363988Y155984D02*
X363964D01*
X363943Y155980D01*
X363923Y155977D01*
X363895Y155973D01*
X363836Y155956D01*
X363767Y155932D01*
X363729Y155915D01*
X363691Y155894D01*
X363657Y155870D01*
X363619Y155839D01*
X363584Y155808D01*
X363550Y155770D01*
X363546Y155766D01*
X363543Y155759D01*
X363532Y155745D01*
X363522Y155728D01*
X363508Y155707D01*
X363494Y155676D01*
X363480Y155645D01*
X363463Y155604D01*
X363446Y155562D01*
X363432Y155511D01*
X363418Y155455D01*
X363405Y155396D01*
X363394Y155327D01*
X363384Y155258D01*
X363380Y155179D01*
X363377Y155096D01*
Y155092D01*
Y155075D01*
Y155055D01*
X363380Y155023D01*
X363384Y154985D01*
X363387Y154944D01*
X363394Y154899D01*
X363401Y154847D01*
X363422Y154740D01*
X363456Y154630D01*
X363477Y154578D01*
X363501Y154526D01*
X363532Y154478D01*
X363563Y154433D01*
X363567Y154429D01*
X363570Y154422D01*
X363584Y154412D01*
X363598Y154398D01*
X363615Y154381D01*
X363636Y154364D01*
X363688Y154326D01*
X363753Y154284D01*
X363829Y154250D01*
X363871Y154236D01*
X363912Y154226D01*
X363957Y154219D01*
X364006Y154215D01*
X364030D01*
X364050Y154219D01*
X364071Y154222D01*
X364099Y154226D01*
X364158Y154243D01*
X364227Y154267D01*
X364265Y154284D01*
X364299Y154302D01*
X364337Y154326D01*
X364375Y154353D01*
X364410Y154384D01*
X364444Y154422D01*
X364448Y154426D01*
X364451Y154433D01*
X364462Y154443D01*
X364472Y154464D01*
X364486Y154485D01*
X364503Y154512D01*
X364520Y154543D01*
X364538Y154581D01*
X364551Y154623D01*
X364569Y154671D01*
X364586Y154726D01*
X364600Y154782D01*
X364610Y154844D01*
X364621Y154913D01*
X364624Y154985D01*
X364627Y155065D01*
Y155072D01*
Y155086D01*
Y155110D01*
X364624Y155141D01*
X364621Y155182D01*
X364617Y155227D01*
X364614Y155276D01*
X364603Y155331D01*
X364582Y155441D01*
X364548Y155559D01*
X364527Y155614D01*
X364503Y155666D01*
X364475Y155714D01*
X364441Y155759D01*
X364437Y155763D01*
X364434Y155770D01*
X364424Y155780D01*
X364410Y155794D01*
X364389Y155811D01*
X364368Y155832D01*
X364316Y155873D01*
X364251Y155911D01*
X364171Y155949D01*
X364130Y155963D01*
X364085Y155973D01*
X364037Y155980D01*
X363988Y155984D01*
D02*
G37*
G36*
X357418Y155106D02*
X357415D01*
X357408Y155103D01*
X357394Y155099D01*
X357377Y155092D01*
X357356Y155082D01*
X357328Y155075D01*
X357294Y155065D01*
X357259Y155055D01*
X357214Y155044D01*
X357166Y155030D01*
X357114Y155020D01*
X357055Y155006D01*
X356993Y154992D01*
X356927Y154982D01*
X356855Y154968D01*
X356776Y154958D01*
X356765D01*
X356751Y154954D01*
X356738Y154951D01*
X356693Y154944D01*
X356641Y154934D01*
X356586Y154923D01*
X356530Y154909D01*
X356479Y154896D01*
X356434Y154878D01*
X356430Y154875D01*
X356416Y154871D01*
X356399Y154861D01*
X356378Y154847D01*
X356351Y154826D01*
X356326Y154806D01*
X356302Y154782D01*
X356278Y154750D01*
X356275Y154747D01*
X356271Y154737D01*
X356261Y154719D01*
X356254Y154695D01*
X356244Y154668D01*
X356233Y154636D01*
X356230Y154602D01*
X356226Y154564D01*
Y154557D01*
X356230Y154540D01*
X356233Y154509D01*
X356240Y154474D01*
X356254Y154433D01*
X356275Y154388D01*
X356306Y154346D01*
X356344Y154305D01*
X356351Y154302D01*
X356365Y154288D01*
X356392Y154274D01*
X356430Y154253D01*
X356479Y154236D01*
X356541Y154219D01*
X356610Y154205D01*
X356689Y154201D01*
X356727D01*
X356748Y154205D01*
X356772Y154208D01*
X356824Y154215D01*
X356889Y154226D01*
X356955Y154243D01*
X357024Y154267D01*
X357093Y154298D01*
X357097D01*
X357100Y154302D01*
X357121Y154315D01*
X357152Y154340D01*
X357193Y154371D01*
X357235Y154409D01*
X357276Y154457D01*
X357318Y154509D01*
X357352Y154571D01*
X357356Y154578D01*
X357363Y154595D01*
X357373Y154626D01*
X357383Y154668D01*
X357394Y154723D01*
X357404Y154792D01*
X357411Y154871D01*
X357415Y154961D01*
X357418Y155106D01*
D02*
G37*
G36*
X354119Y156757D02*
X353421D01*
Y155794D01*
X354178D01*
X354206Y155797D01*
X354264D01*
X354330Y155801D01*
X354399Y155808D01*
X354461Y155818D01*
X354489Y155821D01*
X354513Y155828D01*
X354516D01*
X354520Y155832D01*
X354540Y155839D01*
X354568Y155849D01*
X354603Y155866D01*
X354641Y155887D01*
X354682Y155915D01*
X354720Y155949D01*
X354755Y155987D01*
X354758Y155994D01*
X354768Y156008D01*
X354782Y156032D01*
X354796Y156063D01*
X354810Y156105D01*
X354824Y156153D01*
X354834Y156205D01*
X354838Y156267D01*
Y156271D01*
Y156274D01*
Y156295D01*
X354834Y156322D01*
X354827Y156360D01*
X354817Y156405D01*
X354803Y156454D01*
X354786Y156502D01*
X354758Y156547D01*
X354755Y156554D01*
X354744Y156568D01*
X354727Y156588D01*
X354703Y156613D01*
X354672Y156640D01*
X354634Y156668D01*
X354592Y156692D01*
X354540Y156713D01*
X354534Y156716D01*
X354527D01*
X354513Y156720D01*
X354499Y156723D01*
X354478Y156727D01*
X354454Y156730D01*
X354430Y156737D01*
X354399Y156740D01*
X354361Y156744D01*
X354323Y156747D01*
X354278Y156751D01*
X354230Y156754D01*
X354178D01*
X354119Y156757D01*
D02*
G37*
G36*
X354157Y155417D02*
X353421D01*
Y154322D01*
X354285D01*
X354330Y154326D01*
X354375D01*
X354423Y154329D01*
X354468Y154333D01*
X354502Y154336D01*
X354510D01*
X354527Y154340D01*
X354554Y154346D01*
X354589Y154357D01*
X354627Y154367D01*
X354665Y154384D01*
X354706Y154402D01*
X354744Y154422D01*
X354748Y154426D01*
X354762Y154433D01*
X354779Y154447D01*
X354803Y154467D01*
X354827Y154492D01*
X354855Y154523D01*
X354883Y154557D01*
X354907Y154599D01*
X354910Y154606D01*
X354917Y154619D01*
X354927Y154643D01*
X354941Y154678D01*
X354952Y154716D01*
X354962Y154761D01*
X354969Y154813D01*
X354972Y154868D01*
Y154871D01*
Y154875D01*
Y154885D01*
Y154899D01*
X354969Y154930D01*
X354962Y154975D01*
X354948Y155023D01*
X354934Y155075D01*
X354910Y155127D01*
X354879Y155179D01*
X354876Y155186D01*
X354862Y155200D01*
X354841Y155224D01*
X354813Y155251D01*
X354775Y155282D01*
X354730Y155310D01*
X354682Y155338D01*
X354623Y155362D01*
X354620D01*
X354617Y155365D01*
X354606Y155369D01*
X354592Y155372D01*
X354575Y155376D01*
X354558Y155379D01*
X354534Y155386D01*
X354506Y155390D01*
X354472Y155396D01*
X354437Y155400D01*
X354399Y155403D01*
X354357Y155410D01*
X354264Y155414D01*
X354157Y155417D01*
D02*
G37*
G36*
X400211Y155987D02*
X400183D01*
X400166Y155984D01*
X400142Y155980D01*
X400118Y155977D01*
X400052Y155963D01*
X399983Y155942D01*
X399904Y155911D01*
X399866Y155891D01*
X399828Y155866D01*
X399790Y155835D01*
X399755Y155804D01*
X399752Y155801D01*
X399748Y155797D01*
X399738Y155787D01*
X399728Y155773D01*
X399714Y155752D01*
X399697Y155732D01*
X399679Y155707D01*
X399662Y155676D01*
X399645Y155645D01*
X399627Y155607D01*
X399593Y155524D01*
X399569Y155431D01*
X399562Y155379D01*
X399555Y155324D01*
X400847D01*
Y155327D01*
Y155338D01*
X400843Y155352D01*
X400840Y155372D01*
X400836Y155396D01*
X400833Y155424D01*
X400819Y155486D01*
X400798Y155559D01*
X400774Y155631D01*
X400740Y155701D01*
X400698Y155759D01*
X400695Y155763D01*
X400691Y155770D01*
X400677Y155780D01*
X400664Y155794D01*
X400646Y155811D01*
X400622Y155832D01*
X400595Y155852D01*
X400567Y155873D01*
X400532Y155894D01*
X400494Y155915D01*
X400411Y155953D01*
X400367Y155967D01*
X400318Y155977D01*
X400266Y155984D01*
X400211Y155987D01*
D02*
G37*
G36*
X373951Y156820D02*
X373927D01*
X373906Y156816D01*
X373885Y156813D01*
X373857Y156809D01*
X373795Y156792D01*
X373726Y156764D01*
X373692Y156747D01*
X373654Y156723D01*
X373619Y156699D01*
X373585Y156668D01*
X373550Y156633D01*
X373519Y156592D01*
X373516Y156588D01*
X373512Y156578D01*
X373502Y156561D01*
X373488Y156533D01*
X373474Y156498D01*
X373457Y156457D01*
X373436Y156409D01*
X373419Y156347D01*
X373402Y156277D01*
X373381Y156201D01*
X373364Y156112D01*
X373350Y156015D01*
X373336Y155908D01*
X373329Y155787D01*
X373322Y155659D01*
X373319Y155517D01*
Y155514D01*
Y155507D01*
Y155497D01*
Y155483D01*
Y155466D01*
Y155441D01*
X373322Y155390D01*
X373326Y155327D01*
X373329Y155255D01*
X373332Y155175D01*
X373343Y155092D01*
X373364Y154916D01*
X373377Y154830D01*
X373395Y154744D01*
X373415Y154664D01*
X373443Y154592D01*
X373471Y154526D01*
X373502Y154471D01*
X373505Y154467D01*
X373509Y154460D01*
X373519Y154447D01*
X373536Y154429D01*
X373554Y154412D01*
X373574Y154391D01*
X373626Y154343D01*
X373692Y154295D01*
X373771Y154257D01*
X373813Y154239D01*
X373857Y154226D01*
X373906Y154219D01*
X373954Y154215D01*
X373965D01*
X373982Y154219D01*
X373999D01*
X374023Y154222D01*
X374051Y154229D01*
X374113Y154246D01*
X374148Y154260D01*
X374182Y154277D01*
X374220Y154298D01*
X374258Y154326D01*
X374296Y154353D01*
X374334Y154388D01*
X374372Y154429D01*
X374407Y154474D01*
X374410Y154478D01*
X374414Y154488D01*
X374424Y154502D01*
X374434Y154526D01*
X374452Y154557D01*
X374465Y154599D01*
X374483Y154647D01*
X374500Y154702D01*
X374517Y154768D01*
X374535Y154844D01*
X374552Y154927D01*
X374566Y155023D01*
X374576Y155131D01*
X374586Y155248D01*
X374590Y155376D01*
X374593Y155517D01*
Y155521D01*
Y155528D01*
Y155538D01*
Y155552D01*
Y155569D01*
Y155590D01*
X374590Y155645D01*
X374586Y155707D01*
X374583Y155780D01*
X374580Y155859D01*
X374569Y155942D01*
X374548Y156118D01*
X374531Y156205D01*
X374514Y156288D01*
X374493Y156367D01*
X374469Y156443D01*
X374441Y156505D01*
X374407Y156561D01*
X374403Y156564D01*
X374400Y156571D01*
X374389Y156585D01*
X374376Y156602D01*
X374355Y156619D01*
X374334Y156644D01*
X374310Y156668D01*
X374282Y156692D01*
X374217Y156737D01*
X374137Y156778D01*
X374096Y156796D01*
X374048Y156809D01*
X374003Y156816D01*
X373951Y156820D01*
D02*
G37*
G36*
X367771Y155984D02*
X367743D01*
X367723Y155980D01*
X367698Y155977D01*
X367667Y155973D01*
X367602Y155956D01*
X367522Y155928D01*
X367484Y155911D01*
X367443Y155891D01*
X367401Y155866D01*
X367360Y155835D01*
X367322Y155801D01*
X367284Y155763D01*
X367280Y155759D01*
X367277Y155752D01*
X367267Y155738D01*
X367253Y155721D01*
X367239Y155697D01*
X367222Y155669D01*
X367204Y155635D01*
X367187Y155597D01*
X367170Y155552D01*
X367153Y155504D01*
X367135Y155448D01*
X367122Y155390D01*
X367108Y155324D01*
X367097Y155255D01*
X367094Y155179D01*
X367090Y155099D01*
Y155096D01*
Y155079D01*
Y155058D01*
X367094Y155027D01*
X367097Y154989D01*
X367101Y154947D01*
X367108Y154899D01*
X367115Y154851D01*
X367139Y154740D01*
X367173Y154630D01*
X367194Y154578D01*
X367222Y154526D01*
X367249Y154478D01*
X367284Y154433D01*
X367287Y154429D01*
X367294Y154422D01*
X367304Y154412D01*
X367318Y154398D01*
X367339Y154381D01*
X367360Y154364D01*
X367388Y154343D01*
X367419Y154326D01*
X367488Y154284D01*
X367570Y154250D01*
X367615Y154236D01*
X367667Y154226D01*
X367716Y154219D01*
X367771Y154215D01*
X367799D01*
X367819Y154219D01*
X367843Y154222D01*
X367874Y154226D01*
X367940Y154243D01*
X368016Y154270D01*
X368058Y154288D01*
X368099Y154308D01*
X368137Y154333D01*
X368178Y154364D01*
X368217Y154398D01*
X368255Y154436D01*
X368258Y154440D01*
X368261Y154447D01*
X368272Y154460D01*
X368286Y154478D01*
X368299Y154502D01*
X368317Y154529D01*
X368334Y154564D01*
X368355Y154606D01*
X368372Y154647D01*
X368389Y154699D01*
X368406Y154754D01*
X368420Y154816D01*
X368434Y154882D01*
X368445Y154954D01*
X368448Y155030D01*
X368451Y155113D01*
Y155117D01*
Y155131D01*
Y155155D01*
X368448Y155182D01*
X368445Y155220D01*
X368441Y155262D01*
X368434Y155307D01*
X368427Y155355D01*
X368403Y155459D01*
X368389Y155514D01*
X368368Y155569D01*
X368344Y155621D01*
X368320Y155673D01*
X368289Y155718D01*
X368255Y155763D01*
X368251Y155766D01*
X368244Y155773D01*
X368234Y155783D01*
X368220Y155797D01*
X368199Y155815D01*
X368178Y155832D01*
X368151Y155852D01*
X368123Y155873D01*
X368051Y155915D01*
X367968Y155949D01*
X367923Y155963D01*
X367874Y155973D01*
X367823Y155980D01*
X367771Y155984D01*
D02*
G37*
G36*
X361591Y155987D02*
X361563D01*
X361546Y155984D01*
X361522Y155980D01*
X361498Y155977D01*
X361432Y155963D01*
X361363Y155942D01*
X361283Y155911D01*
X361245Y155891D01*
X361208Y155866D01*
X361170Y155835D01*
X361135Y155804D01*
X361132Y155801D01*
X361128Y155797D01*
X361118Y155787D01*
X361107Y155773D01*
X361093Y155752D01*
X361076Y155732D01*
X361059Y155707D01*
X361042Y155676D01*
X361024Y155645D01*
X361007Y155607D01*
X360973Y155524D01*
X360948Y155431D01*
X360942Y155379D01*
X360935Y155324D01*
X362227D01*
Y155327D01*
Y155338D01*
X362223Y155352D01*
X362220Y155372D01*
X362216Y155396D01*
X362213Y155424D01*
X362199Y155486D01*
X362178Y155559D01*
X362154Y155631D01*
X362119Y155701D01*
X362078Y155759D01*
X362075Y155763D01*
X362071Y155770D01*
X362057Y155780D01*
X362043Y155794D01*
X362026Y155811D01*
X362002Y155832D01*
X361974Y155852D01*
X361947Y155873D01*
X361912Y155894D01*
X361874Y155915D01*
X361791Y155953D01*
X361746Y155967D01*
X361698Y155977D01*
X361646Y155984D01*
X361591Y155987D01*
D02*
G37*
G36*
X36250Y121572D02*
X35959Y121565D01*
X35778Y121558D01*
X35619Y121544D01*
X35480Y121523D01*
X35369Y121502D01*
X35286Y121481D01*
X35224Y121461D01*
X35189Y121447D01*
X35175Y121440D01*
X35050Y121370D01*
X34946Y121287D01*
X34849Y121204D01*
X34773Y121121D01*
X34710Y121038D01*
X34662Y120975D01*
X34634Y120934D01*
X34627Y120927D01*
Y120920D01*
X34565Y120781D01*
X34516Y120642D01*
X34482Y120511D01*
X34461Y120379D01*
X34447Y120275D01*
X34440Y120226D01*
X34433Y120185D01*
Y120108D01*
X34440Y119949D01*
X34468Y119810D01*
X34502Y119685D01*
X34537Y119588D01*
X34579Y119512D01*
X34606Y119457D01*
X34634Y119429D01*
X34641Y119415D01*
X34724Y119339D01*
X34808Y119276D01*
X34898Y119235D01*
X34981Y119207D01*
X35050Y119193D01*
X35113Y119186D01*
X35147Y119179D01*
X35161D01*
X35237Y119186D01*
X35307Y119193D01*
X35369Y119214D01*
X35425Y119235D01*
X35473Y119249D01*
X35508Y119269D01*
X35529Y119276D01*
X35536Y119283D01*
X35598Y119332D01*
X35647Y119380D01*
X35688Y119429D01*
X35730Y119484D01*
X35758Y119526D01*
X35778Y119561D01*
X35785Y119588D01*
X35792Y119595D01*
X35827Y119685D01*
X35854Y119789D01*
X35882Y119900D01*
X35903Y120011D01*
X35924Y120115D01*
X35938Y120205D01*
X35945Y120233D01*
X35952Y120261D01*
Y120282D01*
X35972Y120441D01*
X36000Y120587D01*
X36021Y120719D01*
X36049Y120843D01*
X36076Y120961D01*
X36097Y121065D01*
X36125Y121162D01*
X36146Y121252D01*
X36167Y121322D01*
X36187Y121391D01*
X36201Y121447D01*
X36222Y121488D01*
X36236Y121523D01*
X36243Y121551D01*
X36250Y121565D01*
Y121572D01*
D02*
G37*
G36*
X36347Y109423D02*
X36298D01*
X36271D01*
X36264D01*
X36097Y109416D01*
X35945Y109409D01*
X35799Y109388D01*
X35667Y109360D01*
X35543Y109333D01*
X35432Y109298D01*
X35327Y109263D01*
X35244Y109229D01*
X35161Y109187D01*
X35092Y109152D01*
X35036Y109118D01*
X34988Y109090D01*
X34953Y109062D01*
X34925Y109041D01*
X34911Y109035D01*
X34905Y109028D01*
X34828Y108951D01*
X34759Y108875D01*
X34697Y108792D01*
X34648Y108715D01*
X34606Y108632D01*
X34572Y108549D01*
X34516Y108397D01*
X34482Y108265D01*
X34475Y108202D01*
X34468Y108154D01*
X34461Y108112D01*
Y108057D01*
X34468Y107946D01*
X34482Y107849D01*
X34502Y107745D01*
X34530Y107654D01*
X34599Y107488D01*
X34683Y107349D01*
X34717Y107287D01*
X34759Y107232D01*
X34794Y107190D01*
X34828Y107148D01*
X34856Y107121D01*
X34877Y107100D01*
X34891Y107086D01*
X34898Y107079D01*
X34988Y107010D01*
X35085Y106954D01*
X35189Y106899D01*
X35293Y106857D01*
X35515Y106788D01*
X35737Y106739D01*
X35834Y106725D01*
X35931Y106712D01*
X36014Y106705D01*
X36090Y106698D01*
X36153Y106691D01*
X36194D01*
X36229D01*
X36236D01*
X36395Y106698D01*
X36548Y106705D01*
X36687Y106725D01*
X36818Y106753D01*
X36936Y106781D01*
X37047Y106816D01*
X37144Y106850D01*
X37234Y106885D01*
X37311Y106919D01*
X37380Y106954D01*
X37436Y106989D01*
X37484Y107017D01*
X37519Y107044D01*
X37547Y107065D01*
X37560Y107072D01*
X37567Y107079D01*
X37644Y107155D01*
X37713Y107232D01*
X37775Y107315D01*
X37824Y107398D01*
X37866Y107481D01*
X37900Y107557D01*
X37956Y107717D01*
X37990Y107849D01*
X37997Y107911D01*
X38004Y107960D01*
X38011Y108001D01*
Y108057D01*
X38004Y108161D01*
X37990Y108265D01*
X37970Y108362D01*
X37942Y108452D01*
X37872Y108618D01*
X37789Y108764D01*
X37748Y108820D01*
X37706Y108875D01*
X37671Y108917D01*
X37637Y108958D01*
X37609Y108986D01*
X37588Y109007D01*
X37574Y109021D01*
X37567Y109028D01*
X37477Y109097D01*
X37387Y109159D01*
X37283Y109208D01*
X37179Y109256D01*
X37068Y109298D01*
X36957Y109326D01*
X36749Y109374D01*
X36652Y109388D01*
X36562Y109402D01*
X36479Y109409D01*
X36402Y109416D01*
X36347Y109423D01*
D02*
G37*
G36*
X36354Y97468D02*
X36312D01*
X36277D01*
X36271D01*
X36104Y97461D01*
X35945Y97454D01*
X35799Y97434D01*
X35667Y97413D01*
X35543Y97385D01*
X35425Y97350D01*
X35327Y97316D01*
X35237Y97281D01*
X35154Y97246D01*
X35085Y97212D01*
X35029Y97184D01*
X34981Y97149D01*
X34946Y97128D01*
X34918Y97108D01*
X34905Y97101D01*
X34898Y97094D01*
X34821Y97024D01*
X34752Y96948D01*
X34697Y96872D01*
X34648Y96796D01*
X34606Y96719D01*
X34565Y96643D01*
X34516Y96504D01*
X34482Y96379D01*
X34475Y96324D01*
X34468Y96283D01*
X34461Y96241D01*
Y96192D01*
X34468Y96095D01*
X34482Y96005D01*
X34502Y95922D01*
X34530Y95839D01*
X34592Y95693D01*
X34676Y95561D01*
X34752Y95457D01*
X34787Y95416D01*
X34821Y95381D01*
X34842Y95353D01*
X34863Y95332D01*
X34877Y95325D01*
X34884Y95319D01*
X34967Y95256D01*
X35064Y95201D01*
X35168Y95152D01*
X35272Y95111D01*
X35494Y95048D01*
X35709Y95007D01*
X35806Y94986D01*
X35903Y94979D01*
X35986Y94972D01*
X36063Y94965D01*
X36125Y94958D01*
X36167D01*
X36201D01*
X36208D01*
X36375Y94965D01*
X36527Y94972D01*
X36666Y94993D01*
X36798Y95020D01*
X36922Y95048D01*
X37033Y95076D01*
X37137Y95111D01*
X37227Y95152D01*
X37311Y95187D01*
X37380Y95222D01*
X37436Y95249D01*
X37484Y95277D01*
X37526Y95305D01*
X37553Y95325D01*
X37567Y95332D01*
X37574Y95339D01*
X37657Y95416D01*
X37727Y95492D01*
X37796Y95568D01*
X37845Y95645D01*
X37893Y95721D01*
X37928Y95790D01*
X37990Y95929D01*
X38018Y96047D01*
X38032Y96102D01*
X38039Y96144D01*
X38046Y96178D01*
Y96227D01*
X38039Y96317D01*
X38025Y96407D01*
X38004Y96497D01*
X37976Y96581D01*
X37907Y96726D01*
X37824Y96851D01*
X37741Y96955D01*
X37706Y97004D01*
X37671Y97038D01*
X37644Y97066D01*
X37623Y97087D01*
X37609Y97094D01*
X37602Y97101D01*
X37512Y97163D01*
X37415Y97226D01*
X37318Y97274D01*
X37207Y97316D01*
X36985Y97378D01*
X36770Y97420D01*
X36666Y97441D01*
X36576Y97447D01*
X36493Y97454D01*
X36416Y97461D01*
X36354Y97468D01*
D02*
G37*
G36*
X36347Y92524D02*
X36298D01*
X36271D01*
X36264D01*
X36097Y92517D01*
X35945Y92510D01*
X35799Y92490D01*
X35667Y92462D01*
X35543Y92434D01*
X35432Y92399D01*
X35327Y92365D01*
X35244Y92330D01*
X35161Y92288D01*
X35092Y92254D01*
X35036Y92219D01*
X34988Y92191D01*
X34953Y92163D01*
X34925Y92143D01*
X34911Y92136D01*
X34905Y92129D01*
X34828Y92053D01*
X34759Y91976D01*
X34697Y91893D01*
X34648Y91817D01*
X34606Y91734D01*
X34572Y91650D01*
X34516Y91498D01*
X34482Y91366D01*
X34475Y91304D01*
X34468Y91255D01*
X34461Y91214D01*
Y91158D01*
X34468Y91047D01*
X34482Y90950D01*
X34502Y90846D01*
X34530Y90756D01*
X34599Y90590D01*
X34683Y90451D01*
X34717Y90388D01*
X34759Y90333D01*
X34794Y90291D01*
X34828Y90250D01*
X34856Y90222D01*
X34877Y90201D01*
X34891Y90187D01*
X34898Y90180D01*
X34988Y90111D01*
X35085Y90056D01*
X35189Y90000D01*
X35293Y89958D01*
X35515Y89889D01*
X35737Y89841D01*
X35834Y89827D01*
X35931Y89813D01*
X36014Y89806D01*
X36090Y89799D01*
X36153Y89792D01*
X36194D01*
X36229D01*
X36236D01*
X36395Y89799D01*
X36548Y89806D01*
X36687Y89827D01*
X36818Y89854D01*
X36936Y89882D01*
X37047Y89917D01*
X37144Y89951D01*
X37234Y89986D01*
X37311Y90021D01*
X37380Y90056D01*
X37436Y90090D01*
X37484Y90118D01*
X37519Y90146D01*
X37547Y90167D01*
X37560Y90173D01*
X37567Y90180D01*
X37644Y90257D01*
X37713Y90333D01*
X37775Y90416D01*
X37824Y90499D01*
X37866Y90583D01*
X37900Y90659D01*
X37956Y90818D01*
X37990Y90950D01*
X37997Y91012D01*
X38004Y91061D01*
X38011Y91103D01*
Y91158D01*
X38004Y91262D01*
X37990Y91366D01*
X37970Y91463D01*
X37942Y91553D01*
X37872Y91720D01*
X37789Y91865D01*
X37748Y91921D01*
X37706Y91976D01*
X37671Y92018D01*
X37637Y92059D01*
X37609Y92087D01*
X37588Y92108D01*
X37574Y92122D01*
X37567Y92129D01*
X37477Y92198D01*
X37387Y92261D01*
X37283Y92309D01*
X37179Y92358D01*
X37068Y92399D01*
X36957Y92427D01*
X36749Y92476D01*
X36652Y92490D01*
X36562Y92503D01*
X36479Y92510D01*
X36402Y92517D01*
X36347Y92524D01*
D02*
G37*
%LPD*%
M02*
