G04*
G04 #@! TF.GenerationSoftware,Altium Limited,Altium Designer,23.5.1 (21)*
G04*
G04 Layer_Color=255*
%FSLAX44Y44*%
%MOMM*%
G71*
G04*
G04 #@! TF.SameCoordinates,0C852D97-15EF-43E7-8D4E-587EAF6ACFB3*
G04*
G04*
G04 #@! TF.FilePolarity,Positive*
G04*
G01*
G75*
%ADD18R,0.6200X0.6200*%
%ADD19R,0.6500X0.5500*%
G04:AMPARAMS|DCode=20|XSize=0.7mm|YSize=0.2mm|CornerRadius=0.05mm|HoleSize=0mm|Usage=FLASHONLY|Rotation=0.000|XOffset=0mm|YOffset=0mm|HoleType=Round|Shape=RoundedRectangle|*
%AMROUNDEDRECTD20*
21,1,0.7000,0.1000,0,0,0.0*
21,1,0.6000,0.2000,0,0,0.0*
1,1,0.1000,0.3000,-0.0500*
1,1,0.1000,-0.3000,-0.0500*
1,1,0.1000,-0.3000,0.0500*
1,1,0.1000,0.3000,0.0500*
%
%ADD20ROUNDEDRECTD20*%
G04:AMPARAMS|DCode=21|XSize=0.7mm|YSize=0.2mm|CornerRadius=0.05mm|HoleSize=0mm|Usage=FLASHONLY|Rotation=270.000|XOffset=0mm|YOffset=0mm|HoleType=Round|Shape=RoundedRectangle|*
%AMROUNDEDRECTD21*
21,1,0.7000,0.1000,0,0,270.0*
21,1,0.6000,0.2000,0,0,270.0*
1,1,0.1000,-0.0500,-0.3000*
1,1,0.1000,-0.0500,0.3000*
1,1,0.1000,0.0500,0.3000*
1,1,0.1000,0.0500,-0.3000*
%
%ADD21ROUNDEDRECTD21*%
%ADD22R,1.5500X1.2700*%
%ADD23R,0.4500X0.5500*%
%ADD24R,1.4500X1.1500*%
%ADD25R,1.0000X0.9000*%
%ADD26R,0.6500X1.0600*%
%ADD27R,0.9500X1.3500*%
%ADD28R,0.9000X1.0000*%
%ADD29R,1.0500X1.4000*%
%ADD30R,1.8000X1.1500*%
%ADD31R,1.4000X3.5600*%
%ADD32R,0.9500X1.7000*%
%ADD33R,0.5000X0.4000*%
%ADD34R,0.7000X0.2500*%
%ADD35R,0.2500X0.7000*%
%ADD36R,1.0000X1.0000*%
%ADD37R,1.7500X1.4000*%
%ADD38R,0.6200X0.6200*%
%ADD39R,0.5500X0.4500*%
%ADD40R,1.4000X1.0500*%
%ADD41R,1.1500X2.7000*%
G04:AMPARAMS|DCode=80|XSize=4mm|YSize=2mm|CornerRadius=0.5mm|HoleSize=0mm|Usage=FLASHONLY|Rotation=0.000|XOffset=0mm|YOffset=0mm|HoleType=Round|Shape=RoundedRectangle|*
%AMROUNDEDRECTD80*
21,1,4.0000,1.0000,0,0,0.0*
21,1,3.0000,2.0000,0,0,0.0*
1,1,1.0000,1.5000,-0.5000*
1,1,1.0000,-1.5000,-0.5000*
1,1,1.0000,-1.5000,0.5000*
1,1,1.0000,1.5000,0.5000*
%
%ADD80ROUNDEDRECTD80*%
%ADD81C,0.7500*%
%ADD82C,1.0000*%
%ADD83R,2.6000X2.6000*%
%ADD90C,0.9000*%
%ADD91C,0.7000*%
G04:AMPARAMS|DCode=92|XSize=4mm|YSize=1.5mm|CornerRadius=0.375mm|HoleSize=0mm|Usage=FLASHONLY|Rotation=270.000|XOffset=0mm|YOffset=0mm|HoleType=Round|Shape=RoundedRectangle|*
%AMROUNDEDRECTD92*
21,1,4.0000,0.7500,0,0,270.0*
21,1,3.2500,1.5000,0,0,270.0*
1,1,0.7500,-0.3750,-1.6250*
1,1,0.7500,-0.3750,1.6250*
1,1,0.7500,0.3750,1.6250*
1,1,0.7500,0.3750,-1.6250*
%
%ADD92ROUNDEDRECTD92*%
%ADD93C,1.4000*%
%ADD94P,2.2627X4X270.0*%
%ADD95C,1.6000*%
%ADD96C,2.0000*%
%ADD97C,4.3000*%
%ADD98C,4.2000*%
%ADD99R,1.6000X1.6000*%
D18*
X462280Y257120D02*
D03*
Y266120D02*
D03*
X495300Y266120D02*
D03*
Y257120D02*
D03*
X370680Y103520D02*
D03*
Y94520D02*
D03*
D19*
X483870Y256540D02*
D03*
Y266540D02*
D03*
X493478Y217170D02*
D03*
Y227170D02*
D03*
X473478Y256540D02*
D03*
Y266540D02*
D03*
D20*
X480478Y245156D02*
D03*
Y229156D02*
D03*
Y237156D02*
D03*
Y241156D02*
D03*
Y233156D02*
D03*
X466478Y245156D02*
D03*
Y229156D02*
D03*
Y237156D02*
D03*
Y241156D02*
D03*
Y233156D02*
D03*
D21*
X473478Y245656D02*
D03*
Y228656D02*
D03*
D22*
X182826Y195618D02*
D03*
Y220618D02*
D03*
Y245618D02*
D03*
Y270618D02*
D03*
Y295618D02*
D03*
X17326Y195618D02*
D03*
Y220618D02*
D03*
Y245618D02*
D03*
Y270618D02*
D03*
Y295618D02*
D03*
D23*
X399470Y106680D02*
D03*
X390470D02*
D03*
D24*
X99060Y30370D02*
D03*
Y48370D02*
D03*
X308917Y279250D02*
D03*
Y297250D02*
D03*
X372417Y276710D02*
D03*
Y294710D02*
D03*
D25*
X120650Y-11810D02*
D03*
Y4190D02*
D03*
X135890Y-11810D02*
D03*
Y4190D02*
D03*
D26*
X87172Y13364D02*
D03*
X96672D02*
D03*
X106172D02*
D03*
Y-8636D02*
D03*
X96672D02*
D03*
X87172D02*
D03*
D27*
X158370Y78740D02*
D03*
X174370D02*
D03*
X158370Y48399D02*
D03*
X174370D02*
D03*
X158370Y17780D02*
D03*
X174370D02*
D03*
X158370Y109220D02*
D03*
X174370D02*
D03*
D28*
X142370Y63500D02*
D03*
X158370D02*
D03*
X53212Y106172D02*
D03*
X37212D02*
D03*
X142370Y125730D02*
D03*
X158370D02*
D03*
X142370Y93980D02*
D03*
X158370D02*
D03*
X142370Y33020D02*
D03*
X158370D02*
D03*
X326610Y171410D02*
D03*
X310610D02*
D03*
D29*
X292710Y190500D02*
D03*
X273710D02*
D03*
X352240Y252690D02*
D03*
X333240D02*
D03*
D30*
X99060Y135050D02*
D03*
Y105050D02*
D03*
D31*
X20330Y139700D02*
D03*
X74930D02*
D03*
D32*
X122810Y148336D02*
D03*
X150810D02*
D03*
D33*
X401770Y82360D02*
D03*
Y88860D02*
D03*
Y95360D02*
D03*
X382770D02*
D03*
Y88860D02*
D03*
Y82360D02*
D03*
D34*
X312277Y195700D02*
D03*
Y200700D02*
D03*
Y205700D02*
D03*
Y210700D02*
D03*
Y215700D02*
D03*
X351278D02*
D03*
Y210700D02*
D03*
Y205700D02*
D03*
Y200700D02*
D03*
Y195700D02*
D03*
D35*
X321777Y225200D02*
D03*
X326777D02*
D03*
X331777D02*
D03*
X336777D02*
D03*
X341777D02*
D03*
Y186200D02*
D03*
X336777D02*
D03*
X331777D02*
D03*
X326777D02*
D03*
X321777D02*
D03*
D36*
X351667Y275550D02*
D03*
X329667D02*
D03*
X351667Y297140D02*
D03*
X329667D02*
D03*
D37*
X392270Y37030D02*
D03*
Y67030D02*
D03*
D38*
X398200Y118110D02*
D03*
X389200D02*
D03*
X286330Y240221D02*
D03*
X295330D02*
D03*
X349780Y171410D02*
D03*
X340780D02*
D03*
D39*
X411480Y104720D02*
D03*
Y113720D02*
D03*
Y85670D02*
D03*
Y94670D02*
D03*
D40*
X372417Y192340D02*
D03*
Y173340D02*
D03*
Y229170D02*
D03*
Y210170D02*
D03*
D41*
X224870Y219670D02*
D03*
X254870D02*
D03*
X224870Y186650D02*
D03*
X254870D02*
D03*
D80*
X499612Y23247D02*
D03*
Y148247D02*
D03*
D81*
X480822Y178816D02*
D03*
X410210Y37030D02*
D03*
X308917Y245070D02*
D03*
X460502Y178816D02*
D03*
X291940Y171410D02*
D03*
X292100Y203708D02*
D03*
X99060Y83820D02*
D03*
X0Y97750D02*
D03*
D82*
X572262Y225806D02*
D03*
X-5080Y35560D02*
D03*
D83*
X331777Y205700D02*
D03*
D90*
X19200Y66500D02*
D03*
D91*
Y180500D02*
D03*
D92*
X437112Y85747D02*
D03*
X562112D02*
D03*
D93*
X518112Y89247D02*
D03*
X514112Y73747D02*
D03*
X499612Y85747D02*
D03*
Y67247D02*
D03*
X485112Y73747D02*
D03*
X481112Y89247D02*
D03*
X490612Y102247D02*
D03*
X508612D02*
D03*
X302320Y95286D02*
D03*
X288320Y109286D02*
D03*
X260320D02*
D03*
X246320Y95286D02*
D03*
Y67286D02*
D03*
X260320Y53286D02*
D03*
X288320D02*
D03*
X302320Y67286D02*
D03*
D94*
X61468Y51562D02*
D03*
D95*
X36719Y26813D02*
D03*
X242410Y282970D02*
D03*
D96*
X324320Y81286D02*
D03*
X274320Y131286D02*
D03*
X224320Y81286D02*
D03*
D97*
X570000Y300000D02*
D03*
X394500Y-0D02*
D03*
D98*
X0Y0D02*
D03*
D99*
X242410Y257970D02*
D03*
M02*
