G04*
G04 #@! TF.GenerationSoftware,Altium Limited,Altium Designer,23.5.1 (21)*
G04*
G04 Layer_Physical_Order=2*
G04 Layer_Color=32768*
%FSLAX44Y44*%
%MOMM*%
G71*
G04*
G04 #@! TF.SameCoordinates,0C852D97-15EF-43E7-8D4E-587EAF6ACFB3*
G04*
G04*
G04 #@! TF.FilePolarity,Negative*
G04*
G01*
G75*
%ADD84C,0.5080*%
%ADD87C,1.0160*%
%ADD102C,0.7620*%
%ADD103C,2.0320*%
%ADD104C,1.4080*%
%ADD105C,1.2080*%
%AMTHOVALD106*
21,1,2.4000,2.1240,0,0,270.0*
1,1,2.1240,0.0000,1.2000*
1,1,2.1240,0.0000,-1.2000*
21,0,2.4000,1.6160,0,0,270.0*
1,0,1.6160,0.0000,1.2000*
1,0,1.6160,0.0000,-1.2000*
4,0,4,-0.0898,1.1102,-0.8408,1.8611,-0.6611,2.0408,0.0898,1.2898,-0.0898,1.1102,0.0*
4,0,4,-0.0898,-1.2898,0.6611,-2.0408,0.8408,-1.8611,0.0898,-1.1102,-0.0898,-1.2898,0.0*
4,0,4,-0.0898,1.2898,0.6611,2.0408,0.8408,1.8611,0.0898,1.1102,-0.0898,1.2898,0.0*
4,0,4,-0.0898,-1.1102,-0.8408,-1.8611,-0.6611,-2.0408,0.0898,-1.2898,-0.0898,-1.1102,0.0*
%
%ADD106THOVALD106*%

%ADD107C,1.3080*%
G04:AMPARAMS|DCode=108|XSize=2.324mm|YSize=2.324mm|CornerRadius=0mm|HoleSize=0mm|Usage=FLASHONLY|Rotation=0.000|XOffset=0mm|YOffset=0mm|HoleType=Round|Shape=Relief|Width=0.254mm|Gap=0.254mm|Entries=4|*
%AMTHD108*
7,0,0,2.3240,1.8160,0.2540,45*
%
%ADD108THD108*%
G04:AMPARAMS|DCode=109|XSize=2.724mm|YSize=2.724mm|CornerRadius=0mm|HoleSize=0mm|Usage=FLASHONLY|Rotation=0.000|XOffset=0mm|YOffset=0mm|HoleType=Round|Shape=Relief|Width=0.254mm|Gap=0.254mm|Entries=4|*
%AMTHD109*
7,0,0,2.7240,2.2160,0.2540,45*
%
%ADD109THD109*%
%ADD110C,2.8080*%
G04:AMPARAMS|DCode=111|XSize=3.824mm|YSize=3.824mm|CornerRadius=0mm|HoleSize=0mm|Usage=FLASHONLY|Rotation=0.000|XOffset=0mm|YOffset=0mm|HoleType=Round|Shape=Relief|Width=0.254mm|Gap=0.254mm|Entries=4|*
%AMTHD111*
7,0,0,3.8240,3.3160,0.2540,45*
%
%ADD111THD111*%
%ADD112C,0.7112*%
%ADD113C,0.9144*%
D84*
X341630Y104140D02*
X378460Y140970D01*
X335280Y104140D02*
X341630D01*
D87*
X-1270Y318730D02*
X-3880Y318559D01*
X-6446Y318049D01*
X-8924Y317208D01*
X-11270Y316051D01*
X-13445Y314597D01*
X-15412Y312872D01*
X-17137Y310905D01*
X-18591Y308730D01*
X-19748Y306384D01*
X-20589Y303906D01*
X-21099Y301341D01*
X-21270Y298730D01*
X567098Y311128D02*
X564727Y310220D01*
X562614Y308815D01*
X560860Y306980D01*
X559552Y304804D01*
X558752Y302395D01*
X558501Y299870D01*
X558809Y297350D01*
X559663Y294960D01*
X561021Y292815D01*
X562815Y291021D01*
X564960Y289663D01*
X567350Y288809D01*
X569870Y288501D01*
X572396Y288752D01*
X574804Y289552D01*
X576979Y290860D01*
X578815Y292614D01*
X580220Y294727D01*
X581128Y297098D01*
X568730Y-21270D02*
X571340Y-21099D01*
X573906Y-20588D01*
X576384Y-19748D01*
X578730Y-18590D01*
X580905Y-17137D01*
X582872Y-15412D01*
X584597Y-13445D01*
X586050Y-11270D01*
X587208Y-8924D01*
X588049Y-6446D01*
X588559Y-3880D01*
X588730Y-1270D01*
X-21270D02*
X-21099Y-3880D01*
X-20589Y-6446D01*
X-19748Y-8924D01*
X-18591Y-11270D01*
X-17137Y-13445D01*
X-15412Y-15412D01*
X-13445Y-17137D01*
X-11270Y-18590D01*
X-8924Y-19748D01*
X-6446Y-20588D01*
X-3880Y-21099D01*
X-1270Y-21270D01*
X139700Y171450D02*
X154940Y156210D01*
X283210D02*
X335280Y104140D01*
X154940Y156210D02*
X283210D01*
X-21270Y-1270D02*
Y298730D01*
X-1270Y318730D02*
X559495D01*
X567098Y311128D01*
X581128Y297098D02*
X588730Y289496D01*
Y-1270D02*
Y289496D01*
X-1270Y-21270D02*
X568730Y-21270D01*
D102*
X196072Y240063D02*
D03*
X195580Y251460D02*
D03*
X284480Y15240D02*
D03*
Y21336D02*
D03*
X61468Y20701D02*
D03*
X505460Y217170D02*
D03*
Y257120D02*
D03*
X453390Y257120D02*
D03*
X483870Y274320D02*
D03*
X161290Y-11430D02*
D03*
X470916Y178943D02*
D03*
X460756Y191516D02*
D03*
X429514Y231902D02*
D03*
X434086Y236982D02*
D03*
X438658Y242316D02*
D03*
X443484Y247156D02*
D03*
X199644Y245618D02*
D03*
X339598Y233172D02*
D03*
X302648Y231100D02*
D03*
X161798Y217424D02*
D03*
Y225044D02*
D03*
X169418Y213614D02*
D03*
Y221594D02*
D03*
Y228854D02*
D03*
D103*
X406400Y171450D02*
Y328930D01*
X336550Y101600D02*
X406400Y171450D01*
X88900Y220980D02*
X139700Y170180D01*
X88900Y220980D02*
Y344170D01*
D104*
X19200Y66500D02*
D03*
D105*
Y180500D02*
D03*
D106*
X437112Y85747D02*
D03*
X562112D02*
D03*
D107*
X518112Y89247D02*
D03*
X514112Y73747D02*
D03*
X499612Y67247D02*
D03*
X485112Y73747D02*
D03*
X481112Y89247D02*
D03*
X490612Y102247D02*
D03*
X508612D02*
D03*
X61468Y51562D02*
D03*
X302320Y95286D02*
D03*
X288320Y109286D02*
D03*
X260320D02*
D03*
X246320Y95286D02*
D03*
Y67286D02*
D03*
X260320Y53286D02*
D03*
X288320D02*
D03*
X302320Y67286D02*
D03*
X242410Y257970D02*
D03*
D108*
X499612Y85747D02*
D03*
X36719Y26813D02*
D03*
X242410Y282970D02*
D03*
D109*
X324320Y81286D02*
D03*
X274320Y131286D02*
D03*
X224320Y81286D02*
D03*
D110*
X570000Y300000D02*
D03*
D111*
X394500Y-0D02*
D03*
X0Y0D02*
D03*
D112*
X425450Y55880D02*
D03*
X-12934Y141915D02*
D03*
X425450Y50800D02*
D03*
X-12934Y136835D02*
D03*
X292100Y200742D02*
D03*
X284480Y229870D02*
D03*
Y224623D02*
D03*
X210820Y137590D02*
D03*
Y132510D02*
D03*
X541020Y149860D02*
D03*
X553720Y154940D02*
D03*
X551180Y121920D02*
D03*
X525780Y129660D02*
D03*
X103632Y-254D02*
D03*
X52538Y161534D02*
D03*
X-12934Y155184D02*
D03*
Y161534D02*
D03*
Y167884D02*
D03*
X331619Y157555D02*
D03*
X-14138Y123500D02*
D03*
Y117150D02*
D03*
Y110800D02*
D03*
Y104450D02*
D03*
X561340Y8160D02*
D03*
X-14138Y91750D02*
D03*
X52538Y167950D02*
D03*
X-14138Y85400D02*
D03*
Y79050D02*
D03*
X65278Y-9730D02*
D03*
X360845Y207518D02*
D03*
X336777Y210700D02*
D03*
X336777Y200700D02*
D03*
X326777Y200700D02*
D03*
X326777Y210700D02*
D03*
D113*
X510540Y49530D02*
D03*
Y40640D02*
D03*
X344170Y113030D02*
D03*
X224790Y271340D02*
D03*
X381000Y113030D02*
D03*
X492760Y-8890D02*
D03*
X504190D02*
D03*
X419100Y16510D02*
D03*
X412750Y24130D02*
D03*
X374396Y71628D02*
D03*
Y60706D02*
D03*
X125730Y16510D02*
D03*
X135890D02*
D03*
X117680Y60050D02*
D03*
Y30050D02*
D03*
X118110Y243840D02*
D03*
X308917Y259588D02*
D03*
X294496Y297250D02*
D03*
X372417Y306017D02*
D03*
Y264160D02*
D03*
X370947Y160020D02*
D03*
X345947D02*
D03*
X320147D02*
D03*
X295147D02*
D03*
X162560Y262470D02*
D03*
X69850Y293370D02*
D03*
X40640Y246380D02*
D03*
Y234950D02*
D03*
X50800Y251460D02*
D03*
Y241300D02*
D03*
Y229870D02*
D03*
X63500Y180340D02*
D03*
Y191770D02*
D03*
Y201930D02*
D03*
Y212090D02*
D03*
X117680Y120050D02*
D03*
Y90050D02*
D03*
X174370Y90050D02*
D03*
Y120050D02*
D03*
Y60050D02*
D03*
Y30050D02*
D03*
M02*
