G04*
G04 #@! TF.GenerationSoftware,Altium Limited,Altium Designer,20.0.13 (296)*
G04*
G04 Layer_Color=128*
%FSLAX44Y44*%
%MOMM*%
G71*
G01*
G75*
%ADD137C,0.0508*%
D137*
X65400Y163200D02*
X71400D01*
X68400Y160200D02*
Y166200D01*
X11800Y163200D02*
X17800D01*
X14800Y160200D02*
Y166200D01*
X11800Y76800D02*
X17800D01*
X14800Y73800D02*
Y79800D01*
X65400Y76800D02*
X71400D01*
X68400Y73800D02*
Y79800D01*
X297782Y379984D02*
X302782D01*
X300282Y377484D02*
Y382484D01*
X285282Y379984D02*
X290282D01*
X287782Y377484D02*
Y382484D01*
X272782Y379984D02*
X277782D01*
X275282Y377484D02*
Y382484D01*
X260282Y379984D02*
X265282D01*
X262782Y377484D02*
Y382484D01*
X247782Y379984D02*
X252782D01*
X250282Y377484D02*
Y382484D01*
X235282Y379984D02*
X240282D01*
X237782Y377484D02*
Y382484D01*
X222782Y379984D02*
X227782D01*
X225282Y377484D02*
Y382484D01*
X210282Y379984D02*
X215282D01*
X212782Y377484D02*
Y382484D01*
X85700Y375500D02*
X94300D01*
X90000Y371200D02*
Y379800D01*
X105700Y375500D02*
X114300D01*
X110000Y371200D02*
Y379800D01*
X53734Y259000D02*
X55766D01*
X54750Y257984D02*
Y260016D01*
X69234Y259000D02*
X71266D01*
X70250Y257984D02*
Y260016D01*
X61484Y246250D02*
X63516D01*
X62500Y245234D02*
Y247266D01*
X61484Y271750D02*
X63516D01*
X62500Y270734D02*
Y272766D01*
X27500Y216250D02*
X32500D01*
X30000Y213750D02*
Y218750D01*
X27500Y228750D02*
X32500D01*
X30000Y226250D02*
Y231250D01*
X27500Y241250D02*
X32500D01*
X30000Y238750D02*
Y243750D01*
X27500Y253750D02*
X32500D01*
X30000Y251250D02*
Y256250D01*
X27500Y266250D02*
X32500D01*
X30000Y263750D02*
Y268750D01*
X27500Y278750D02*
X32500D01*
X30000Y276250D02*
Y281250D01*
X27500Y291250D02*
X32500D01*
X30000Y288750D02*
Y293750D01*
X27500Y303750D02*
X32500D01*
X30000Y301250D02*
Y306250D01*
X97500Y216250D02*
X102500D01*
X100000Y213750D02*
Y218750D01*
X97500Y228750D02*
X102500D01*
X100000Y226250D02*
Y231250D01*
X97500Y241250D02*
X102500D01*
X100000Y238750D02*
Y243750D01*
X97500Y253750D02*
X102500D01*
X100000Y251250D02*
Y256250D01*
X97500Y266250D02*
X102500D01*
X100000Y263750D02*
Y268750D01*
X97500Y278750D02*
X102500D01*
X100000Y276250D02*
Y281250D01*
X97500Y291250D02*
X102500D01*
X100000Y288750D02*
Y293750D01*
X97500Y303750D02*
X102500D01*
X100000Y301250D02*
Y306250D01*
X16250Y30000D02*
X43750D01*
X30000Y16250D02*
Y43750D01*
X16250Y370000D02*
X43750D01*
X30000Y356250D02*
Y383750D01*
X556250Y30000D02*
X583750D01*
X570000Y16250D02*
Y43750D01*
X556250Y370000D02*
X583750D01*
X570000Y356250D02*
Y383750D01*
X264000Y321000D02*
X294000D01*
X279000Y306000D02*
Y336000D01*
X506000Y321000D02*
X536000D01*
X521000Y306000D02*
Y336000D01*
X264000Y79000D02*
X294000D01*
X279000Y64000D02*
Y94000D01*
X506000Y79000D02*
X536000D01*
X521000Y64000D02*
Y94000D01*
X466344Y353060D02*
X468376D01*
X467360Y352044D02*
Y354076D01*
X468820Y337756D02*
X470852D01*
X469836Y336740D02*
Y338772D01*
X156464Y217809D02*
X158496D01*
X157480Y216793D02*
Y218825D01*
X87854Y245000D02*
X89886D01*
X88870Y243984D02*
Y246016D01*
X313881Y394843D02*
X315914D01*
X314897Y393827D02*
Y395859D01*
X153416Y351028D02*
X155448D01*
X154432Y350012D02*
Y352044D01*
X176965Y347461D02*
X178997D01*
X177981Y346445D02*
Y348477D01*
X477174Y325097D02*
X479206D01*
X478190Y324081D02*
Y326113D01*
X356484Y372854D02*
X358516D01*
X357500Y371838D02*
Y373870D01*
X351484Y372642D02*
X353516D01*
X352500Y371626D02*
Y373658D01*
X516984Y279000D02*
X519016D01*
X518000Y277984D02*
Y280016D01*
X571984Y172000D02*
X574016D01*
X573000Y170984D02*
Y173016D01*
X582930Y162560D02*
X585470D01*
X584200Y161290D02*
Y163830D01*
X571637Y145658D02*
X574177D01*
X572907Y144388D02*
Y146928D01*
X290917Y261926D02*
X292949D01*
X291933Y260910D02*
Y262942D01*
X253229Y261843D02*
X255261D01*
X254245Y260827D02*
Y262859D01*
X303645Y246884D02*
X305676D01*
X304660Y245868D02*
Y247900D01*
X314984Y21000D02*
X317016D01*
X316000Y19984D02*
Y22016D01*
X507782Y248360D02*
X509814D01*
X508798Y247344D02*
Y249376D01*
X496077Y152250D02*
X498109D01*
X497093Y151234D02*
Y153266D01*
X511623Y139996D02*
X513655D01*
X512639Y138980D02*
Y141012D01*
X492036Y216732D02*
X494068D01*
X493052Y215716D02*
Y217748D01*
X199868Y129523D02*
X201900D01*
X200884Y128507D02*
Y130540D01*
X547159Y212764D02*
X549190D01*
X548175Y211748D02*
Y213780D01*
X487083Y216732D02*
X489115D01*
X488099Y215716D02*
Y217748D01*
X199868Y134476D02*
X201900D01*
X200884Y133461D02*
Y135492D01*
X547159Y207811D02*
X549190D01*
X548175Y206795D02*
Y208827D01*
X480153Y215984D02*
X482185D01*
X481169Y214968D02*
Y217000D01*
X522464Y212764D02*
X524496D01*
X523480Y211748D02*
Y213780D01*
X522464Y207811D02*
X524496D01*
X523480Y206795D02*
Y208827D01*
X522055Y192873D02*
X524087D01*
X523071Y191857D02*
Y193889D01*
X522055Y197826D02*
X524087D01*
X523071Y196810D02*
Y198842D01*
X163463Y63885D02*
X165495D01*
X164479Y62869D02*
Y64901D01*
X200051Y146476D02*
X202083D01*
X201066Y145461D02*
Y147493D01*
X547915Y257477D02*
X549947D01*
X548931Y256460D02*
Y258493D01*
X200045Y141513D02*
X202077D01*
X201061Y140497D02*
Y142529D01*
X547915Y252523D02*
X549947D01*
X548931Y251507D02*
Y253540D01*
X199217Y117181D02*
X201249D01*
X200233Y116165D02*
Y118197D01*
X546112Y237523D02*
X548144D01*
X547128Y236507D02*
Y238540D01*
X199217Y122134D02*
X201249D01*
X200233Y121118D02*
Y123150D01*
X546112Y242477D02*
X548144D01*
X547128Y241460D02*
Y243493D01*
X242858Y27000D02*
X244890D01*
X243874Y25984D02*
Y28016D01*
X77692Y311128D02*
X79724D01*
X78708Y310112D02*
Y312144D01*
X116984Y54814D02*
X119016D01*
X118000Y53798D02*
Y55830D01*
X71984Y42774D02*
X74016D01*
X73000Y41758D02*
Y43790D01*
X204984Y69225D02*
X207016D01*
X206000Y68209D02*
Y70241D01*
X197984Y78000D02*
X200016D01*
X199000Y76984D02*
Y79016D01*
X204984Y75000D02*
X207016D01*
X206000Y73984D02*
Y76016D01*
X83484Y77650D02*
X85516D01*
X84500Y76634D02*
Y78666D01*
X42984Y65000D02*
X45016D01*
X44000Y63984D02*
Y66016D01*
X50546Y150000D02*
X52578D01*
X51562Y148984D02*
Y151016D01*
X33782Y150000D02*
X35814D01*
X34798Y148984D02*
Y151016D01*
X44984Y281500D02*
X47016D01*
X46000Y280484D02*
Y282516D01*
X44984Y330201D02*
X47016D01*
X46000Y329185D02*
Y331217D01*
X38984Y318000D02*
X41016D01*
X40000Y316984D02*
Y319016D01*
X76484Y230250D02*
X78516D01*
X77500Y229234D02*
Y231266D01*
X171984Y145000D02*
X174016D01*
X173000Y143984D02*
Y146016D01*
X170037Y152697D02*
X172069D01*
X171053Y151681D02*
Y153714D01*
X156984Y158000D02*
X159016D01*
X158000Y156984D02*
Y159016D01*
X153791Y212704D02*
X155823D01*
X154807Y211688D02*
Y213720D01*
X548388Y247490D02*
X550420D01*
X549404Y246474D02*
Y248506D01*
X527362Y202280D02*
X529394D01*
X528378Y201264D02*
Y203296D01*
X349347Y77043D02*
X351379D01*
X350363Y76027D02*
Y78059D01*
X354293Y97015D02*
X356325D01*
X355309Y95999D02*
Y98031D01*
X325131Y103179D02*
X327163D01*
X326147Y102163D02*
Y104195D01*
X338529Y114213D02*
X340561D01*
X339545Y113197D02*
Y115229D01*
X205562Y61978D02*
X207594D01*
X206578Y60962D02*
Y62994D01*
X136874Y338683D02*
X138906D01*
X137890Y337667D02*
Y339699D01*
X138224Y321770D02*
X140256D01*
X139240Y320754D02*
Y322786D01*
X133984Y329999D02*
X136016D01*
X135000Y328983D02*
Y331015D01*
X415290Y347472D02*
X417322D01*
X416306Y346456D02*
Y348488D01*
X350119Y50780D02*
X352151D01*
X351135Y49764D02*
Y51796D01*
X550564Y202566D02*
X552596D01*
X551580Y201550D02*
Y203582D01*
X547531Y264524D02*
X549563D01*
X548547Y263508D02*
Y265541D01*
X539496Y233057D02*
X541528D01*
X540512Y232041D02*
Y234073D01*
X550564Y232644D02*
X552595D01*
X551580Y231628D02*
Y233660D01*
X524465Y219037D02*
X526497D01*
X525481Y218021D02*
Y220053D01*
X522887Y186112D02*
X524920D01*
X523904Y185096D02*
Y187128D01*
X216573Y372486D02*
X218605D01*
X217589Y371470D02*
Y373502D01*
X431019Y322144D02*
X433051D01*
X432035Y321128D02*
Y323160D01*
X375086Y322546D02*
X377118D01*
X376102Y321530D02*
Y323562D01*
X522331Y248454D02*
X524363D01*
X523347Y247437D02*
Y249470D01*
X548442Y218223D02*
X550474D01*
X549458Y217207D02*
Y219239D01*
X543840Y178041D02*
X545872D01*
X544856Y177025D02*
Y179057D01*
X549261Y182372D02*
X551293D01*
X550277Y181356D02*
Y183388D01*
X367609Y76250D02*
X369641D01*
X368625Y75234D02*
Y77266D01*
X421640Y78158D02*
X423672D01*
X422656Y77142D02*
Y79174D01*
X401725Y81578D02*
X403757D01*
X402741Y80562D02*
Y82593D01*
X416484Y55448D02*
X418516D01*
X417500Y54432D02*
Y56464D01*
X391537Y50359D02*
X393569D01*
X392553Y49342D02*
Y51375D01*
X399295Y25496D02*
X401327D01*
X400311Y24480D02*
Y26512D01*
X493218Y225165D02*
X495250D01*
X494234Y224149D02*
Y226181D01*
X196157Y105524D02*
X198189D01*
X197173Y104508D02*
Y106539D01*
X196157Y110477D02*
X198189D01*
X197173Y109460D02*
Y111493D01*
X545289Y222523D02*
X547321D01*
X546305Y221507D02*
Y223540D01*
X545289Y227477D02*
X547321D01*
X546305Y226460D02*
Y228493D01*
X192789Y114317D02*
X194821D01*
X193805Y113301D02*
Y115333D01*
X287692Y121000D02*
X289724D01*
X288708Y119984D02*
Y122016D01*
X268984Y114000D02*
X271016D01*
X270000Y112984D02*
Y115016D01*
X208172Y101840D02*
X210204D01*
X209188Y100824D02*
Y102857D01*
X208488Y114159D02*
X210520D01*
X209504Y113144D02*
Y115176D01*
X208296Y125841D02*
X210328D01*
X209312Y124824D02*
Y126856D01*
X208104Y138160D02*
X210136D01*
X209120Y137143D02*
Y139176D01*
X194310Y126238D02*
X196342D01*
X195326Y125222D02*
Y127254D01*
X193880Y138000D02*
X195912D01*
X194896Y136984D02*
Y139016D01*
X193548Y149860D02*
X195580D01*
X194564Y148844D02*
Y150876D01*
X447301Y187115D02*
X449333D01*
X448317Y186098D02*
Y188130D01*
X546257Y192523D02*
X548289D01*
X547273Y191507D02*
Y193540D01*
X546257Y197477D02*
X548289D01*
X547273Y196460D02*
Y198493D01*
X197567Y157927D02*
X199599D01*
X198583Y156911D02*
Y158943D01*
X197567Y152974D02*
X199599D01*
X198583Y151958D02*
Y153990D01*
X194004Y162000D02*
X196036D01*
X195020Y160984D02*
Y163016D01*
X208166Y150000D02*
X210198D01*
X209182Y148984D02*
Y151016D01*
X447301Y203074D02*
X449333D01*
X448317Y202058D02*
Y204090D01*
X447028Y197826D02*
X449060D01*
X448044Y196810D02*
Y198842D01*
X447028Y192873D02*
X449060D01*
X448044Y191857D02*
Y193889D01*
X361753Y78216D02*
X363784D01*
X362769Y77200D02*
Y79232D01*
X361675Y52129D02*
X363708D01*
X362691Y51113D02*
Y53145D01*
X356800Y78216D02*
X358831D01*
X357816Y77200D02*
Y79232D01*
X356722Y52129D02*
X358755D01*
X357738Y51113D02*
Y53145D01*
X371722Y53552D02*
X373755D01*
X372738Y52536D02*
Y54568D01*
X343775Y95050D02*
X345807D01*
X344791Y94034D02*
Y96066D01*
X348728Y95050D02*
X350760D01*
X349744Y94034D02*
Y96066D01*
X376675Y53552D02*
X378708D01*
X377691Y52536D02*
Y54568D01*
X332221Y110294D02*
X334253D01*
X333237Y109278D02*
Y111310D01*
X431675Y52849D02*
X433708D01*
X432691Y51833D02*
Y53865D01*
X327141Y110166D02*
X329173D01*
X328157Y109150D02*
Y111182D01*
X426722Y52849D02*
X428755D01*
X427738Y51833D02*
Y53865D01*
X301984Y217000D02*
X304016D01*
X303000Y215984D02*
Y218016D01*
X426046Y348992D02*
X428078D01*
X427062Y347976D02*
Y350008D01*
X204533Y279956D02*
X206565D01*
X205549Y278940D02*
Y280972D01*
X421093Y348992D02*
X423125D01*
X422109Y347976D02*
Y350008D01*
X204533Y285036D02*
X206565D01*
X205549Y284020D02*
Y286052D01*
X408984Y322596D02*
X411016D01*
X410000Y321580D02*
Y323612D01*
X205815Y290310D02*
X207847D01*
X206831Y289294D02*
Y291326D01*
X205517Y297372D02*
X207549D01*
X206533Y296356D02*
Y298388D01*
X436093Y344928D02*
X438125D01*
X437109Y343912D02*
Y345944D01*
X441046Y344928D02*
X443078D01*
X442062Y343912D02*
Y345944D01*
X174402Y294659D02*
X176434D01*
X175418Y293643D02*
Y295675D01*
X174402Y289706D02*
X176434D01*
X175418Y288690D02*
Y290722D01*
X206882Y262000D02*
X208914D01*
X207898Y260984D02*
Y263016D01*
X358890Y262791D02*
X360922D01*
X359906Y261775D02*
Y263807D01*
X383984Y252000D02*
X386016D01*
X385000Y250984D02*
Y253016D01*
X371046Y349604D02*
X373078D01*
X372062Y348588D02*
Y350620D01*
X366093Y349604D02*
X368125D01*
X367109Y348588D02*
Y350620D01*
X189738Y265523D02*
X191770D01*
X190754Y264508D02*
Y266539D01*
X189738Y270476D02*
X191770D01*
X190754Y269461D02*
Y271493D01*
X200435Y274279D02*
X202467D01*
X201451Y273263D02*
Y275295D01*
X381450Y319526D02*
X383482D01*
X382466Y318510D02*
Y320542D01*
X405301Y203457D02*
X407333D01*
X406317Y202441D02*
Y204473D01*
X431069Y346514D02*
X433102D01*
X432085Y345498D02*
Y347530D01*
X375258Y345796D02*
X377290D01*
X376274Y344780D02*
Y346812D01*
X381069Y345925D02*
X383102D01*
X382085Y344910D02*
Y346941D01*
X406069Y342496D02*
X408102D01*
X407085Y341480D02*
Y343512D01*
X135011Y352614D02*
X137043D01*
X136027Y351598D02*
Y353630D01*
X166546Y351942D02*
X168578D01*
X167562Y350926D02*
Y352958D01*
X139961Y351480D02*
X141993D01*
X140977Y350464D02*
Y352496D01*
X175396Y331497D02*
X177428D01*
X176412Y330481D02*
Y332513D01*
X188503Y360203D02*
X190536D01*
X189520Y359187D02*
Y361219D01*
X196766Y366879D02*
X198798D01*
X197782Y365863D02*
Y367895D01*
X164207Y322645D02*
X166239D01*
X165223Y321629D02*
Y323661D01*
X374667Y238683D02*
X376699D01*
X375683Y237667D02*
Y239699D01*
X231984Y234000D02*
X234016D01*
X233000Y232984D02*
Y235016D01*
X371984Y234000D02*
X374016D01*
X373000Y232984D02*
Y235016D01*
X238984Y235000D02*
X241016D01*
X240000Y233984D02*
Y236016D01*
X167851Y191380D02*
X169883D01*
X168867Y190364D02*
Y192396D01*
X172984Y133000D02*
X175016D01*
X174000Y131984D02*
Y134016D01*
X92984Y83350D02*
X95016D01*
X94000Y82334D02*
Y84366D01*
X171984Y199000D02*
X174016D01*
X173000Y197984D02*
Y200016D01*
X162132Y201328D02*
X164164D01*
X163148Y200312D02*
Y202344D01*
X164984Y197000D02*
X167016D01*
X166000Y195984D02*
Y198016D01*
X125984Y279908D02*
X128016D01*
X127000Y278892D02*
Y280924D01*
X119380Y280162D02*
X121412D01*
X120396Y279146D02*
Y281178D01*
X134282Y281794D02*
X136314D01*
X135298Y280778D02*
Y282810D01*
X208606Y186000D02*
X210638D01*
X209622Y184984D02*
Y187016D01*
X401484Y240000D02*
X403516D01*
X402500Y238984D02*
Y241016D01*
X220714Y158624D02*
X222746D01*
X221730Y157608D02*
Y159640D01*
X224157Y162185D02*
X226189D01*
X225173Y161169D02*
Y163201D01*
X171026Y300584D02*
X173058D01*
X172042Y299568D02*
Y301600D01*
X190450Y244317D02*
X192482D01*
X191466Y243301D02*
Y245333D01*
X195360Y234000D02*
X197392D01*
X196376Y232984D02*
Y235016D01*
X376484Y250000D02*
X378516D01*
X377500Y248984D02*
Y251016D01*
X431484Y220000D02*
X433516D01*
X432500Y218984D02*
Y221016D01*
X286484Y197500D02*
X288516D01*
X287500Y196484D02*
Y198516D01*
X88984Y302500D02*
X91016D01*
X90000Y301484D02*
Y303516D01*
X126484Y230000D02*
X128516D01*
X127500Y228984D02*
Y231016D01*
X116718Y294766D02*
X118750D01*
X117734Y293750D02*
Y295782D01*
X128984Y310000D02*
X131016D01*
X130000Y308984D02*
Y311016D01*
X141439Y316306D02*
X143471D01*
X142455Y315290D02*
Y317322D01*
X153984Y312500D02*
X156016D01*
X155000Y311484D02*
Y313516D01*
X84984Y332500D02*
X87016D01*
X86000Y331484D02*
Y333516D01*
X77984Y293500D02*
X80016D01*
X79000Y292484D02*
Y294516D01*
X41484Y300000D02*
X43516D01*
X42500Y298984D02*
Y301016D01*
X88984Y220000D02*
X91016D01*
X90000Y218984D02*
Y221016D01*
X53984Y230000D02*
X56016D01*
X55000Y228984D02*
Y231016D01*
X61484Y287750D02*
X63516D01*
X62500Y286734D02*
Y288766D01*
X83984Y235000D02*
X86016D01*
X85000Y233984D02*
Y236016D01*
X77984Y281500D02*
X80016D01*
X79000Y280484D02*
Y282516D01*
X103138Y328113D02*
X105170D01*
X104154Y327097D02*
Y329129D01*
X103730Y340000D02*
X106270D01*
X105000Y338730D02*
Y341270D01*
X103730Y347500D02*
X106270D01*
X105000Y346230D02*
Y348770D01*
X111230Y347500D02*
X113770D01*
X112500Y346230D02*
Y348770D01*
X111230Y340000D02*
X113770D01*
X112500Y338730D02*
Y341270D01*
X124968Y351168D02*
X127000D01*
X125984Y350152D02*
Y352184D01*
X83058Y189000D02*
X85090D01*
X84074Y187984D02*
Y190016D01*
X110998Y213614D02*
X113030D01*
X112014Y212598D02*
Y214630D01*
X192615Y100516D02*
X194647D01*
X193631Y99500D02*
Y101532D01*
X298480Y321000D02*
X301020D01*
X299750Y319730D02*
Y322270D01*
X256980Y321000D02*
X259520D01*
X258250Y319730D02*
Y322270D01*
X277730Y300250D02*
X280270D01*
X279000Y298980D02*
Y301520D01*
X277730Y341750D02*
X280270D01*
X279000Y340480D02*
Y343020D01*
X540480Y321000D02*
X543020D01*
X541750Y319730D02*
Y322270D01*
X498980Y321000D02*
X501520D01*
X500250Y319730D02*
Y322270D01*
X519730Y300250D02*
X522270D01*
X521000Y298980D02*
Y301520D01*
X519730Y341750D02*
X522270D01*
X521000Y340480D02*
Y343020D01*
X298480Y79000D02*
X301020D01*
X299750Y77730D02*
Y80270D01*
X256980Y79000D02*
X259520D01*
X258250Y77730D02*
Y80270D01*
X277730Y58250D02*
X280270D01*
X279000Y56980D02*
Y59520D01*
X277730Y99750D02*
X280270D01*
X279000Y98480D02*
Y101020D01*
X540480Y79000D02*
X543020D01*
X541750Y77730D02*
Y80270D01*
X498980Y79000D02*
X501520D01*
X500250Y77730D02*
Y80270D01*
X519730Y58250D02*
X522270D01*
X521000Y56980D02*
Y59520D01*
X519730Y99750D02*
X522270D01*
X521000Y98480D02*
Y101020D01*
X14984Y187000D02*
X17016D01*
X16000Y185984D02*
Y188016D01*
X13784Y172200D02*
X15816D01*
X14800Y171184D02*
Y173216D01*
X110984Y93000D02*
X113016D01*
X112000Y91984D02*
Y94016D01*
X102684Y65400D02*
X104716D01*
X103700Y64384D02*
Y66416D01*
X92984Y92000D02*
X95016D01*
X94000Y90984D02*
Y93016D01*
X104259Y95500D02*
X106291D01*
X105275Y94484D02*
Y96516D01*
X93984Y132000D02*
X96016D01*
X95000Y130984D02*
Y133016D01*
X204426Y162130D02*
X206458D01*
X205442Y161114D02*
Y163146D01*
X167615Y271037D02*
X169647D01*
X168631Y270021D02*
Y272053D01*
X109325Y242490D02*
X111357D01*
X110341Y241474D02*
Y243506D01*
X132870Y189692D02*
X134902D01*
X133886Y188675D02*
Y190707D01*
X180213Y337155D02*
X182245D01*
X181229Y336139D02*
Y338171D01*
X197337Y338368D02*
X199369D01*
X198353Y337352D02*
Y339384D01*
X142984Y67000D02*
X145016D01*
X144000Y65984D02*
Y68016D01*
X146812Y97790D02*
X148844D01*
X147828Y96774D02*
Y98806D01*
X143253Y88275D02*
X145285D01*
X144269Y87259D02*
Y89291D01*
X81984Y169000D02*
X84016D01*
X83000Y167984D02*
Y170016D01*
X315540Y376500D02*
X317572D01*
X316556Y375484D02*
Y377516D01*
X112984Y288999D02*
X115016D01*
X114000Y287983D02*
Y290015D01*
X571002Y115646D02*
X573034D01*
X572018Y114630D02*
Y116662D01*
X479988Y376500D02*
X482020D01*
X481004Y375484D02*
Y377516D01*
X361484Y345736D02*
X363516D01*
X362500Y344720D02*
Y346752D01*
X446484Y346504D02*
X448516D01*
X447500Y345488D02*
Y347520D01*
X396494Y347218D02*
X398526D01*
X397510Y346202D02*
Y348234D01*
X391484Y340798D02*
X393516D01*
X392500Y339782D02*
Y341814D01*
X198984Y166000D02*
X201016D01*
X200000Y164984D02*
Y167016D01*
X196458Y170683D02*
X198491D01*
X197474Y169667D02*
Y171699D01*
X196142Y178158D02*
X198174D01*
X197158Y177142D02*
Y179174D01*
X189362Y186000D02*
X191394D01*
X190378Y184984D02*
Y187016D01*
X202984Y173000D02*
X205016D01*
X204000Y171984D02*
Y174016D01*
X201984Y178000D02*
X204016D01*
X203000Y176984D02*
Y179016D01*
X155984Y201000D02*
X158016D01*
X157000Y199984D02*
Y202016D01*
X189984Y209000D02*
X192016D01*
X191000Y207984D02*
Y210016D01*
X191984Y219000D02*
X194016D01*
X193000Y217984D02*
Y220016D01*
X156972Y137414D02*
X159004D01*
X157988Y136398D02*
Y138430D01*
X124984Y272915D02*
X127016D01*
X126000Y271899D02*
Y273931D01*
X119484Y260599D02*
X121516D01*
X120500Y259583D02*
Y261615D01*
X108248Y296017D02*
X110280D01*
X109264Y295001D02*
Y297033D01*
X176984Y250000D02*
X179016D01*
X178000Y248983D02*
Y251015D01*
X177228Y242000D02*
X179260D01*
X178244Y240984D02*
Y243016D01*
X220984Y218000D02*
X223016D01*
X222000Y216984D02*
Y219016D01*
X232984Y55000D02*
X235016D01*
X234000Y53984D02*
Y56016D01*
X575264Y296718D02*
X577296D01*
X576280Y295702D02*
Y297734D01*
X571984Y158000D02*
X574016D01*
X573000Y156984D02*
Y159016D01*
X548984Y187594D02*
X551016D01*
X550000Y186578D02*
Y188610D01*
X439420Y221234D02*
X441452D01*
X440436Y220218D02*
Y222250D01*
X433070Y212090D02*
X435102D01*
X434086Y211074D02*
Y213106D01*
X77984Y100040D02*
X80016D01*
X79000Y99024D02*
Y101056D01*
X77984Y94960D02*
X80016D01*
X79000Y93944D02*
Y95976D01*
X64262Y92202D02*
X66294D01*
X65278Y91186D02*
Y93218D01*
X143253Y94231D02*
X145285D01*
X144269Y93215D02*
Y95247D01*
X64262Y147828D02*
X66294D01*
X65278Y146812D02*
Y148844D01*
X71282Y118702D02*
X73314D01*
X72298Y117686D02*
Y119718D01*
X77984Y139960D02*
X80016D01*
X79000Y138944D02*
Y140976D01*
X64326Y97500D02*
X66358D01*
X65342Y96484D02*
Y98516D01*
X64262Y112522D02*
X66294D01*
X65278Y111506D02*
Y113538D01*
X64326Y142500D02*
X66358D01*
X65342Y141484D02*
Y143516D01*
X64326Y137500D02*
X66358D01*
X65342Y136484D02*
Y138516D01*
X67384Y67800D02*
X69416D01*
X68400Y66784D02*
Y68816D01*
X77984Y145040D02*
X80016D01*
X79000Y144024D02*
Y146056D01*
X64326Y102500D02*
X66358D01*
X65342Y101484D02*
Y103516D01*
X64326Y132500D02*
X66358D01*
X65342Y131484D02*
Y133516D01*
X64326Y107500D02*
X66358D01*
X65342Y106484D02*
Y108516D01*
X63936Y122500D02*
X65968D01*
X64952Y121484D02*
Y123516D01*
X77470Y130048D02*
X79502D01*
X78486Y129032D02*
Y131064D01*
X481984Y17000D02*
X484016D01*
X483000Y15984D02*
Y18016D01*
X411984Y27000D02*
X414016D01*
X413000Y25984D02*
Y28016D01*
X421484Y49940D02*
X423516D01*
X422500Y48924D02*
Y50956D01*
X436032Y47457D02*
X438064D01*
X437048Y46441D02*
Y48473D01*
X366484Y50000D02*
X368516D01*
X367500Y48984D02*
Y51016D01*
X376984Y99000D02*
X379016D01*
X378000Y97984D02*
Y100016D01*
X381484Y49760D02*
X383516D01*
X382500Y48744D02*
Y50776D01*
X182310Y61152D02*
X184342D01*
X183326Y60136D02*
Y62168D01*
X135984Y92000D02*
X138016D01*
X137000Y90984D02*
Y93016D01*
X115384Y65210D02*
X117416D01*
X116400Y64194D02*
Y66226D01*
X109684Y74900D02*
X111716D01*
X110700Y73884D02*
Y75916D01*
X127684Y74900D02*
X129716D01*
X128700Y73884D02*
Y75916D01*
X408984Y197000D02*
X411016D01*
X410000Y195984D02*
Y198016D01*
X204984Y247000D02*
X207016D01*
X206000Y245984D02*
Y248016D01*
X226984Y240000D02*
X229016D01*
X228000Y238984D02*
Y241016D01*
X144526Y171196D02*
X146558D01*
X145542Y170180D02*
Y172212D01*
X413984Y189892D02*
X416016D01*
X415000Y188876D02*
Y190908D01*
X388984Y231000D02*
X391016D01*
X390000Y229984D02*
Y232016D01*
X399984Y234000D02*
X402016D01*
X401000Y232984D02*
Y235016D01*
X393984Y239000D02*
X396016D01*
X395000Y237984D02*
Y240016D01*
X398984Y247000D02*
X401016D01*
X400000Y245984D02*
Y248016D01*
X404984Y257000D02*
X407016D01*
X406000Y255984D02*
Y258016D01*
X286984Y191000D02*
X289016D01*
X288000Y189984D02*
Y192016D01*
X292984Y191000D02*
X295016D01*
X294000Y189984D02*
Y192016D01*
X403984Y265000D02*
X406016D01*
X405000Y263984D02*
Y266016D01*
X435984Y174000D02*
X438016D01*
X437000Y172984D02*
Y175016D01*
X373984Y217000D02*
X376016D01*
X375000Y215984D02*
Y218016D01*
X246984Y191000D02*
X249016D01*
X248000Y189984D02*
Y192016D01*
X246984Y216000D02*
X249016D01*
X248000Y214984D02*
Y217016D01*
X339085Y216888D02*
X341116D01*
X340101Y215872D02*
Y217904D01*
X430984Y287000D02*
X433016D01*
X432000Y285984D02*
Y288016D01*
X461984Y105000D02*
X464016D01*
X463000Y103984D02*
Y106016D01*
X348601Y281579D02*
X350633D01*
X349617Y280562D02*
Y282595D01*
X521984Y377000D02*
X524016D01*
X523000Y375984D02*
Y378016D01*
X397984Y383000D02*
X400016D01*
X399000Y381984D02*
Y384016D01*
X582984Y206000D02*
X585016D01*
X584000Y204984D02*
Y207016D01*
X402984Y16000D02*
X405016D01*
X404000Y14984D02*
Y17016D01*
X245984Y17000D02*
X248016D01*
X247000Y15984D02*
Y18016D01*
X194382Y223606D02*
X196414D01*
X195398Y222591D02*
Y224622D01*
X208606Y214000D02*
X210638D01*
X209622Y212984D02*
Y215016D01*
X202984Y214000D02*
X205016D01*
X204000Y212984D02*
Y215016D01*
X107984Y143000D02*
X110016D01*
X109000Y141984D02*
Y144016D01*
X222984Y89000D02*
X225016D01*
X224000Y87984D02*
Y90016D01*
X247984Y72000D02*
X250016D01*
X249000Y70984D02*
Y73016D01*
X233984Y79000D02*
X236016D01*
X235000Y77984D02*
Y80016D01*
X244937Y79000D02*
X246969D01*
X245953Y77984D02*
Y80016D01*
X239984Y79000D02*
X242016D01*
X241000Y77984D02*
Y80016D01*
X152984Y98000D02*
X155016D01*
X154000Y96984D02*
Y99016D01*
X337528Y70279D02*
X339560D01*
X338544Y69263D02*
Y71295D01*
X321786Y91701D02*
X323818D01*
X322802Y90685D02*
Y92717D01*
X337745Y91701D02*
X339777D01*
X338761Y90685D02*
Y92717D01*
X294984Y111000D02*
X297016D01*
X296000Y109984D02*
Y112016D01*
X125596Y189609D02*
X127628D01*
X126612Y188593D02*
Y190625D01*
X423109Y214375D02*
X425141D01*
X424125Y213359D02*
Y215391D01*
X422984Y222000D02*
X425016D01*
X424000Y220984D02*
Y223016D01*
X422984Y206000D02*
X425016D01*
X424000Y204984D02*
Y207016D01*
X196984Y216000D02*
X199016D01*
X198000Y214984D02*
Y217016D01*
X202984Y234000D02*
X205016D01*
X204000Y232984D02*
Y235016D01*
X208528Y238000D02*
X210560D01*
X209544Y236984D02*
Y239016D01*
X220662Y210000D02*
X222694D01*
X221678Y208984D02*
Y211016D01*
X198984Y240000D02*
X201016D01*
X200000Y238984D02*
Y241016D01*
X134984Y141000D02*
X137016D01*
X136000Y139984D02*
Y142016D01*
X122429Y147000D02*
X124461D01*
X123445Y145984D02*
Y148016D01*
X107984Y185000D02*
X110016D01*
X109000Y183984D02*
Y186016D01*
X109228Y167000D02*
X111260D01*
X110244Y165984D02*
Y168016D01*
X136396Y172722D02*
X138428D01*
X137412Y171707D02*
Y173738D01*
X176984Y186200D02*
X179016D01*
X178000Y185184D02*
Y187216D01*
X137818Y120500D02*
X139850D01*
X138834Y119484D02*
Y121516D01*
X140339Y114519D02*
X142371D01*
X141355Y113503D02*
Y115535D01*
X167894Y282702D02*
X169926D01*
X168910Y281686D02*
Y283718D01*
X132984Y16000D02*
X135016D01*
X134000Y14984D02*
Y17016D01*
X170984Y252999D02*
X173016D01*
X172000Y251984D02*
Y254016D01*
X401983Y334999D02*
X404015D01*
X402999Y333983D02*
Y336015D01*
X398983Y324999D02*
X401015D01*
X399999Y323983D02*
Y326015D01*
X167640Y259080D02*
X169672D01*
X168656Y258064D02*
Y260096D01*
X214310Y61148D02*
X216342D01*
X215326Y60132D02*
Y62164D01*
X211328Y92329D02*
X213360D01*
X212344Y91313D02*
Y93345D01*
X211328Y97282D02*
X213360D01*
X212344Y96266D02*
Y98298D01*
X208606Y202000D02*
X210638D01*
X209622Y200984D02*
Y203016D01*
X204856Y198000D02*
X206888D01*
X205872Y196984D02*
Y199016D01*
X205740Y271272D02*
X207772D01*
X206756Y270256D02*
Y272288D01*
X194692Y262000D02*
X196724D01*
X195708Y260984D02*
Y263016D01*
X193112Y198000D02*
X195144D01*
X194128Y196984D02*
Y199016D01*
X208606Y194000D02*
X210638D01*
X209622Y192984D02*
Y195016D01*
X189362Y194000D02*
X191394D01*
X190378Y192984D02*
Y195016D01*
X189362Y202000D02*
X191394D01*
X190378Y200984D02*
Y203016D01*
X220662Y190000D02*
X222694D01*
X221678Y188984D02*
Y191016D01*
X134874Y161798D02*
X136906D01*
X135890Y160782D02*
Y162814D01*
X13784Y67800D02*
X15816D01*
X14800Y66784D02*
Y68816D01*
X96523Y206499D02*
X98555D01*
X97539Y205483D02*
Y207515D01*
X150455Y153249D02*
X152487D01*
X151471Y152233D02*
Y154265D01*
X78232Y105156D02*
X80264D01*
X79248Y104140D02*
Y106172D01*
X80796Y134644D02*
X82828D01*
X81812Y133628D02*
Y135660D01*
M02*
