G04*
G04 #@! TF.GenerationSoftware,Altium Limited,Altium Designer,20.0.13 (296)*
G04*
G04 Layer_Color=16711935*
%FSLAX44Y44*%
%MOMM*%
G71*
G01*
G75*
%ADD29R,1.1016X1.0016*%
%ADD38R,0.9016X0.9016*%
%ADD39R,0.6516X0.7516*%
%ADD42C,2.0000*%
%ADD44O,2.0000X1.2000*%
%ADD45O,2.5000X1.2000*%
%ADD46R,0.9016X0.9016*%
%ADD47C,0.9016*%
%ADD48R,1.4696X1.4696*%
%ADD49C,1.4696*%
%ADD50O,0.5080X0.5076*%
%ADD51C,5.6016*%
%ADD53C,0.6096*%
%ADD54C,0.6080*%
%ADD89R,0.1500X0.1500*%
%ADD91R,0.1500X0.1500*%
G04:AMPARAMS|DCode=106|XSize=0.34mm|YSize=0.705mm|CornerRadius=0.12mm|HoleSize=0mm|Usage=FLASHONLY|Rotation=180.000|XOffset=0mm|YOffset=0mm|HoleType=Round|Shape=RoundedRectangle|*
%AMROUNDEDRECTD106*
21,1,0.3400,0.4650,0,0,180.0*
21,1,0.1000,0.7050,0,0,180.0*
1,1,0.2400,-0.0500,0.2325*
1,1,0.2400,0.0500,0.2325*
1,1,0.2400,0.0500,-0.2325*
1,1,0.2400,-0.0500,-0.2325*
%
%ADD106ROUNDEDRECTD106*%
G04:AMPARAMS|DCode=107|XSize=0.54mm|YSize=0.705mm|CornerRadius=0.12mm|HoleSize=0mm|Usage=FLASHONLY|Rotation=180.000|XOffset=0mm|YOffset=0mm|HoleType=Round|Shape=RoundedRectangle|*
%AMROUNDEDRECTD107*
21,1,0.5400,0.4650,0,0,180.0*
21,1,0.3000,0.7050,0,0,180.0*
1,1,0.2400,-0.1500,0.2325*
1,1,0.2400,0.1500,0.2325*
1,1,0.2400,0.1500,-0.2325*
1,1,0.2400,-0.1500,-0.2325*
%
%ADD107ROUNDEDRECTD107*%
G04:AMPARAMS|DCode=108|XSize=0.34mm|YSize=0.705mm|CornerRadius=0.12mm|HoleSize=0mm|Usage=FLASHONLY|Rotation=270.000|XOffset=0mm|YOffset=0mm|HoleType=Round|Shape=RoundedRectangle|*
%AMROUNDEDRECTD108*
21,1,0.3400,0.4650,0,0,270.0*
21,1,0.1000,0.7050,0,0,270.0*
1,1,0.2400,-0.2325,-0.0500*
1,1,0.2400,-0.2325,0.0500*
1,1,0.2400,0.2325,0.0500*
1,1,0.2400,0.2325,-0.0500*
%
%ADD108ROUNDEDRECTD108*%
G04:AMPARAMS|DCode=109|XSize=0.54mm|YSize=0.705mm|CornerRadius=0.12mm|HoleSize=0mm|Usage=FLASHONLY|Rotation=270.000|XOffset=0mm|YOffset=0mm|HoleType=Round|Shape=RoundedRectangle|*
%AMROUNDEDRECTD109*
21,1,0.5400,0.4650,0,0,270.0*
21,1,0.3000,0.7050,0,0,270.0*
1,1,0.2400,-0.2325,-0.1500*
1,1,0.2400,-0.2325,0.1500*
1,1,0.2400,0.2325,0.1500*
1,1,0.2400,0.2325,-0.1500*
%
%ADD109ROUNDEDRECTD109*%
%ADD110R,0.7216X0.7216*%
%ADD111R,0.7216X0.7216*%
%ADD112P,0.8202X4X90.0*%
%ADD113R,0.7516X0.6516*%
%ADD114R,1.0016X1.1016*%
G04:AMPARAMS|DCode=115|XSize=0.38mm|YSize=0.74mm|CornerRadius=0.13mm|HoleSize=0mm|Usage=FLASHONLY|Rotation=90.000|XOffset=0mm|YOffset=0mm|HoleType=Round|Shape=RoundedRectangle|*
%AMROUNDEDRECTD115*
21,1,0.3800,0.4800,0,0,90.0*
21,1,0.1200,0.7400,0,0,90.0*
1,1,0.2600,0.2400,0.0600*
1,1,0.2600,0.2400,-0.0600*
1,1,0.2600,-0.2400,-0.0600*
1,1,0.2600,-0.2400,0.0600*
%
%ADD115ROUNDEDRECTD115*%
G04:AMPARAMS|DCode=116|XSize=0.39mm|YSize=0.79mm|CornerRadius=0.1325mm|HoleSize=0mm|Usage=FLASHONLY|Rotation=0.000|XOffset=0mm|YOffset=0mm|HoleType=Round|Shape=RoundedRectangle|*
%AMROUNDEDRECTD116*
21,1,0.3900,0.5250,0,0,0.0*
21,1,0.1250,0.7900,0,0,0.0*
1,1,0.2650,0.0625,-0.2625*
1,1,0.2650,-0.0625,-0.2625*
1,1,0.2650,-0.0625,0.2625*
1,1,0.2650,0.0625,0.2625*
%
%ADD116ROUNDEDRECTD116*%
G04:AMPARAMS|DCode=117|XSize=2.19mm|YSize=3.19mm|CornerRadius=0.1213mm|HoleSize=0mm|Usage=FLASHONLY|Rotation=180.000|XOffset=0mm|YOffset=0mm|HoleType=Round|Shape=RoundedRectangle|*
%AMROUNDEDRECTD117*
21,1,2.1900,2.9475,0,0,180.0*
21,1,1.9475,3.1900,0,0,180.0*
1,1,0.2425,-0.9738,1.4738*
1,1,0.2425,0.9738,1.4738*
1,1,0.2425,0.9738,-1.4738*
1,1,0.2425,-0.9738,-1.4738*
%
%ADD117ROUNDEDRECTD117*%
%ADD118R,0.4516X0.9516*%
%ADD119R,0.4616X0.4216*%
%ADD120R,1.0000X0.5000*%
G04:AMPARAMS|DCode=121|XSize=0.39mm|YSize=0.74mm|CornerRadius=0.095mm|HoleSize=0mm|Usage=FLASHONLY|Rotation=90.000|XOffset=0mm|YOffset=0mm|HoleType=Round|Shape=RoundedRectangle|*
%AMROUNDEDRECTD121*
21,1,0.3900,0.5500,0,0,90.0*
21,1,0.2000,0.7400,0,0,90.0*
1,1,0.1900,0.2750,0.1000*
1,1,0.1900,0.2750,-0.1000*
1,1,0.1900,-0.2750,-0.1000*
1,1,0.1900,-0.2750,0.1000*
%
%ADD121ROUNDEDRECTD121*%
G04:AMPARAMS|DCode=122|XSize=1.14mm|YSize=3.14mm|CornerRadius=0.12mm|HoleSize=0mm|Usage=FLASHONLY|Rotation=180.000|XOffset=0mm|YOffset=0mm|HoleType=Round|Shape=RoundedRectangle|*
%AMROUNDEDRECTD122*
21,1,1.1400,2.9000,0,0,180.0*
21,1,0.9000,3.1400,0,0,180.0*
1,1,0.2400,-0.4500,1.4500*
1,1,0.2400,0.4500,1.4500*
1,1,0.2400,0.4500,-1.4500*
1,1,0.2400,-0.4500,-1.4500*
%
%ADD122ROUNDEDRECTD122*%
G04:AMPARAMS|DCode=123|XSize=0.39mm|YSize=0.74mm|CornerRadius=0.095mm|HoleSize=0mm|Usage=FLASHONLY|Rotation=180.000|XOffset=0mm|YOffset=0mm|HoleType=Round|Shape=RoundedRectangle|*
%AMROUNDEDRECTD123*
21,1,0.3900,0.5500,0,0,180.0*
21,1,0.2000,0.7400,0,0,180.0*
1,1,0.1900,-0.1000,0.2750*
1,1,0.1900,0.1000,0.2750*
1,1,0.1900,0.1000,-0.2750*
1,1,0.1900,-0.1000,-0.2750*
%
%ADD123ROUNDEDRECTD123*%
G04:AMPARAMS|DCode=124|XSize=0.3mm|YSize=0.6mm|CornerRadius=0.1mm|HoleSize=0mm|Usage=FLASHONLY|Rotation=0.000|XOffset=0mm|YOffset=0mm|HoleType=Round|Shape=RoundedRectangle|*
%AMROUNDEDRECTD124*
21,1,0.3000,0.4000,0,0,0.0*
21,1,0.1000,0.6000,0,0,0.0*
1,1,0.2000,0.0500,-0.2000*
1,1,0.2000,-0.0500,-0.2000*
1,1,0.2000,-0.0500,0.2000*
1,1,0.2000,0.0500,0.2000*
%
%ADD124ROUNDEDRECTD124*%
G04:AMPARAMS|DCode=125|XSize=0.3mm|YSize=0.8mm|CornerRadius=0.1mm|HoleSize=0mm|Usage=FLASHONLY|Rotation=90.000|XOffset=0mm|YOffset=0mm|HoleType=Round|Shape=RoundedRectangle|*
%AMROUNDEDRECTD125*
21,1,0.3000,0.6000,0,0,90.0*
21,1,0.1000,0.8000,0,0,90.0*
1,1,0.2000,0.3000,0.0500*
1,1,0.2000,0.3000,-0.0500*
1,1,0.2000,-0.3000,-0.0500*
1,1,0.2000,-0.3000,0.0500*
%
%ADD125ROUNDEDRECTD125*%
%ADD126C,2.8000*%
G36*
X115789Y72894D02*
X115798Y72893D01*
X115892Y72864D01*
X115979Y72818D01*
X116021Y72783D01*
X116055Y72755D01*
X116055Y72755D01*
X117855Y70955D01*
X117918Y70879D01*
X117964Y70792D01*
X117971Y70770D01*
X117993Y70698D01*
X117998Y70649D01*
X118003Y70600D01*
X118002Y70600D01*
Y68800D01*
X117993Y68702D01*
X117964Y68608D01*
X117918Y68521D01*
X117855Y68445D01*
X117779Y68382D01*
X117692Y68336D01*
X117598Y68307D01*
X117500Y68298D01*
X115400D01*
X115302Y68307D01*
X115208Y68336D01*
X115121Y68382D01*
X115045Y68445D01*
X114982Y68521D01*
X114936Y68608D01*
X114907Y68702D01*
X114898Y68800D01*
Y72400D01*
X114907Y72498D01*
X114936Y72592D01*
X114982Y72679D01*
X115045Y72755D01*
X115121Y72818D01*
X115208Y72864D01*
X115302Y72893D01*
X115400Y72902D01*
X115700D01*
X115700Y72902D01*
X115789Y72894D01*
D02*
G37*
G36*
X123700Y72902D02*
X124000D01*
X124098Y72893D01*
X124192Y72864D01*
X124279Y72818D01*
X124355Y72755D01*
X124418Y72679D01*
X124464Y72592D01*
X124493Y72498D01*
X124502Y72400D01*
Y68800D01*
X124493Y68702D01*
X124464Y68608D01*
X124418Y68521D01*
X124355Y68445D01*
X124279Y68382D01*
X124192Y68336D01*
X124098Y68307D01*
X124000Y68298D01*
X121900D01*
X121802Y68307D01*
X121708Y68336D01*
X121621Y68382D01*
X121545Y68445D01*
X121482Y68521D01*
X121436Y68608D01*
X121407Y68702D01*
X121398Y68800D01*
Y70600D01*
X121398Y70600D01*
X121403Y70649D01*
X121407Y70698D01*
X121429Y70770D01*
X121436Y70792D01*
X121482Y70879D01*
X121545Y70955D01*
X123345Y72755D01*
X123345Y72755D01*
X123379Y72783D01*
X123421Y72818D01*
X123508Y72864D01*
X123602Y72893D01*
X123611Y72894D01*
X123700Y72902D01*
X123700Y72902D01*
D02*
G37*
G36*
X117598Y81493D02*
X117692Y81464D01*
X117779Y81418D01*
X117855Y81355D01*
X117918Y81279D01*
X117964Y81192D01*
X117993Y81098D01*
X118002Y81000D01*
Y79200D01*
X118003Y79200D01*
X117998Y79151D01*
X117993Y79102D01*
X117971Y79030D01*
X117964Y79008D01*
X117918Y78921D01*
X117886Y78883D01*
X117855Y78845D01*
X117855Y78845D01*
X116055Y77045D01*
X116055Y77045D01*
X115979Y76982D01*
X115892Y76936D01*
X115870Y76929D01*
X115798Y76907D01*
X115700Y76898D01*
X115400D01*
X115302Y76907D01*
X115208Y76936D01*
X115121Y76982D01*
X115045Y77045D01*
X114982Y77121D01*
X114936Y77208D01*
X114907Y77302D01*
X114898Y77400D01*
Y81000D01*
X114907Y81098D01*
X114936Y81192D01*
X114982Y81279D01*
X115045Y81355D01*
X115121Y81418D01*
X115208Y81464D01*
X115302Y81493D01*
X115400Y81502D01*
X117500D01*
X117598Y81493D01*
D02*
G37*
G36*
X124098D02*
X124192Y81464D01*
X124279Y81418D01*
X124355Y81355D01*
X124418Y81279D01*
X124464Y81192D01*
X124493Y81098D01*
X124502Y81000D01*
Y77400D01*
X124493Y77302D01*
X124464Y77208D01*
X124418Y77121D01*
X124355Y77045D01*
X124279Y76982D01*
X124192Y76936D01*
X124098Y76907D01*
X124000Y76898D01*
X123700D01*
X123602Y76907D01*
X123530Y76929D01*
X123508Y76936D01*
X123421Y76982D01*
X123345Y77045D01*
X123345Y77045D01*
X121545Y78845D01*
X121545Y78845D01*
X121514Y78883D01*
X121482Y78921D01*
X121436Y79008D01*
X121429Y79030D01*
X121407Y79102D01*
X121402Y79151D01*
X121398Y79200D01*
X121398Y79200D01*
Y81000D01*
X121407Y81098D01*
X121436Y81192D01*
X121482Y81279D01*
X121545Y81355D01*
X121621Y81418D01*
X121708Y81464D01*
X121802Y81493D01*
X121900Y81502D01*
X124000D01*
X124098Y81493D01*
D02*
G37*
D29*
X200000Y206000D02*
D03*
Y190000D02*
D03*
X139909Y307543D02*
D03*
Y291543D02*
D03*
X215326Y37712D02*
D03*
Y53712D02*
D03*
X183326Y37712D02*
D03*
Y53712D02*
D03*
D38*
X30000Y303750D02*
D03*
X100000D02*
D03*
D39*
X67500Y222500D02*
D03*
X77500D02*
D03*
X143000Y139000D02*
D03*
X153000D02*
D03*
X134501Y153249D02*
D03*
X144501D02*
D03*
X91000Y169000D02*
D03*
X101000D02*
D03*
X91000Y185000D02*
D03*
X101000D02*
D03*
X77000Y175000D02*
D03*
X67000D02*
D03*
X77000Y189000D02*
D03*
X67000D02*
D03*
D42*
X13907Y333887D02*
D03*
X70000Y20000D02*
D03*
X580000Y330000D02*
D03*
D44*
X68400Y163200D02*
D03*
Y76800D02*
D03*
D45*
X14800Y163200D02*
D03*
Y76800D02*
D03*
D46*
X300282Y379984D02*
D03*
D47*
X287782D02*
D03*
X275282D02*
D03*
X262782D02*
D03*
X250282D02*
D03*
X237782D02*
D03*
X225282D02*
D03*
X212782D02*
D03*
X30000Y216250D02*
D03*
Y228750D02*
D03*
Y241250D02*
D03*
Y253750D02*
D03*
Y266250D02*
D03*
Y278750D02*
D03*
Y291250D02*
D03*
X100000Y216250D02*
D03*
Y228750D02*
D03*
Y241250D02*
D03*
Y253750D02*
D03*
Y266250D02*
D03*
Y278750D02*
D03*
Y291250D02*
D03*
D48*
X90000Y375500D02*
D03*
D49*
X110000D02*
D03*
D50*
X54750Y259000D02*
D03*
X70250D02*
D03*
X62500Y246250D02*
D03*
X62500Y271750D02*
D03*
D51*
X30000Y30000D02*
D03*
Y370000D02*
D03*
X570000Y30000D02*
D03*
Y370000D02*
D03*
D53*
X584200Y162560D02*
D03*
X572907Y145658D02*
D03*
D54*
X299750Y321000D02*
D03*
X258250D02*
D03*
X279000Y300250D02*
D03*
Y341750D02*
D03*
X541750Y321000D02*
D03*
X500250D02*
D03*
X521000Y300250D02*
D03*
Y341750D02*
D03*
X299750Y79000D02*
D03*
X258250D02*
D03*
X279000Y58250D02*
D03*
Y99750D02*
D03*
X541750Y79000D02*
D03*
X500250D02*
D03*
X521000Y58250D02*
D03*
Y99750D02*
D03*
D89*
X116400Y69800D02*
D03*
X123000D02*
D03*
X116400Y80000D02*
D03*
D91*
X123000D02*
D03*
D106*
X432656Y62065D02*
D03*
X427656D02*
D03*
X417656D02*
D03*
X412656D02*
D03*
Y70415D02*
D03*
X417656D02*
D03*
X427656D02*
D03*
X432656D02*
D03*
X377792Y62065D02*
D03*
X372792D02*
D03*
X362792D02*
D03*
X357792D02*
D03*
Y70415D02*
D03*
X362792D02*
D03*
X372792D02*
D03*
X377792D02*
D03*
X422085Y337315D02*
D03*
X427085D02*
D03*
X437085D02*
D03*
X442086D02*
D03*
Y328965D02*
D03*
X437085D02*
D03*
X427085D02*
D03*
X422085D02*
D03*
X366014Y337312D02*
D03*
X371014D02*
D03*
X381014D02*
D03*
X386014D02*
D03*
Y328962D02*
D03*
X381014D02*
D03*
X371014D02*
D03*
X366014D02*
D03*
D107*
X422656Y62065D02*
D03*
Y70415D02*
D03*
X367792Y62065D02*
D03*
Y70415D02*
D03*
X432085Y337315D02*
D03*
Y328965D02*
D03*
X376014Y337312D02*
D03*
Y328962D02*
D03*
D108*
X538675Y197850D02*
D03*
Y192850D02*
D03*
Y182850D02*
D03*
Y177850D02*
D03*
X530325D02*
D03*
Y182850D02*
D03*
Y192850D02*
D03*
Y197850D02*
D03*
X538675Y227787D02*
D03*
Y222787D02*
D03*
Y212787D02*
D03*
Y207787D02*
D03*
X530325D02*
D03*
Y212787D02*
D03*
Y222787D02*
D03*
Y227787D02*
D03*
X538675Y258381D02*
D03*
Y253381D02*
D03*
Y243381D02*
D03*
Y238381D02*
D03*
X530325D02*
D03*
Y243381D02*
D03*
Y253381D02*
D03*
Y258381D02*
D03*
D109*
X538675Y187850D02*
D03*
X530325D02*
D03*
X538675Y217787D02*
D03*
X530325D02*
D03*
X538675Y248381D02*
D03*
X530325D02*
D03*
D110*
X95500Y360000D02*
D03*
X104500D02*
D03*
X70000Y300000D02*
D03*
X79000D02*
D03*
X57500D02*
D03*
X48500D02*
D03*
X48000Y222500D02*
D03*
X57000D02*
D03*
X157336Y113538D02*
D03*
X148336D02*
D03*
X117001Y154249D02*
D03*
X108001D02*
D03*
X17701Y145210D02*
D03*
X26701D02*
D03*
D111*
X103700Y80400D02*
D03*
Y71400D02*
D03*
X135000Y70500D02*
D03*
Y79500D02*
D03*
X40000Y333000D02*
D03*
Y324000D02*
D03*
X92000Y333000D02*
D03*
Y324000D02*
D03*
X167008Y165335D02*
D03*
Y174335D02*
D03*
D112*
X119700Y74900D02*
D03*
D113*
X125501Y196499D02*
D03*
Y206499D02*
D03*
X234316Y48680D02*
D03*
Y38680D02*
D03*
X105501Y196499D02*
D03*
Y206499D02*
D03*
X115501Y196499D02*
D03*
Y206499D02*
D03*
X155525Y164706D02*
D03*
Y174706D02*
D03*
X135501Y206499D02*
D03*
Y196499D02*
D03*
D114*
X147954Y361950D02*
D03*
X131954D02*
D03*
D115*
X46000Y276500D02*
D03*
X79000Y241500D02*
D03*
X46000Y271500D02*
D03*
Y266500D02*
D03*
Y261500D02*
D03*
Y256500D02*
D03*
Y251500D02*
D03*
Y246500D02*
D03*
Y241500D02*
D03*
X79000Y246500D02*
D03*
Y251500D02*
D03*
Y256500D02*
D03*
Y261500D02*
D03*
Y266500D02*
D03*
Y271500D02*
D03*
Y276500D02*
D03*
D116*
X70000Y237500D02*
D03*
X55000D02*
D03*
X70000Y280500D02*
D03*
X55000D02*
D03*
D117*
X62500Y259000D02*
D03*
D118*
X119484Y344168D02*
D03*
X125984D02*
D03*
X132484D02*
D03*
Y322168D02*
D03*
X125984D02*
D03*
X119484D02*
D03*
X147932Y344168D02*
D03*
X154432D02*
D03*
X160932D02*
D03*
Y322168D02*
D03*
X154432D02*
D03*
X147932D02*
D03*
D119*
X100301Y125249D02*
D03*
X94701D02*
D03*
X100301Y119249D02*
D03*
X94701D02*
D03*
X100301Y105249D02*
D03*
X94701D02*
D03*
X100301Y99249D02*
D03*
X94701D02*
D03*
D120*
X77000Y334000D02*
D03*
X55000D02*
D03*
X77000Y321000D02*
D03*
X55000D02*
D03*
Y327500D02*
D03*
D121*
X132500Y125500D02*
D03*
Y130500D02*
D03*
Y105500D02*
D03*
Y110500D02*
D03*
Y135500D02*
D03*
Y120500D02*
D03*
Y115500D02*
D03*
Y100500D02*
D03*
X109500Y105500D02*
D03*
Y100500D02*
D03*
Y125500D02*
D03*
Y120500D02*
D03*
Y115500D02*
D03*
Y110500D02*
D03*
Y135500D02*
D03*
Y130500D02*
D03*
D122*
X121000Y118000D02*
D03*
D123*
X123500Y96500D02*
D03*
X118500D02*
D03*
Y139500D02*
D03*
X123500D02*
D03*
D124*
X116502Y168748D02*
D03*
X120502D02*
D03*
X124502D02*
D03*
X128502D02*
D03*
Y183748D02*
D03*
X124502D02*
D03*
X120502D02*
D03*
X116502D02*
D03*
D125*
X129002Y174249D02*
D03*
Y178249D02*
D03*
X116002D02*
D03*
Y174249D02*
D03*
D126*
X279000Y321000D02*
D03*
X521000D02*
D03*
X279000Y79000D02*
D03*
X521000D02*
D03*
M02*
