G04*
G04 #@! TF.GenerationSoftware,Altium Limited,Altium Designer,19.1.8 (144)*
G04*
G04 Layer_Color=16776960*
%FSLAX44Y44*%
%MOMM*%
G71*
G01*
G75*
%ADD14C,0.1016*%
%ADD15C,0.1000*%
%ADD119C,0.0500*%
D14*
X439648Y250748D02*
Y258748D01*
X431650Y250748D02*
X439648D01*
X447648D01*
X439648Y242750D02*
Y250748D01*
X451648Y238748D02*
Y262748D01*
X427648D02*
X451648D01*
X427648Y238748D02*
Y262748D01*
Y238748D02*
X451648D01*
X502249Y249499D02*
Y257499D01*
Y241499D02*
Y249499D01*
X511249D01*
X493249D02*
X502249D01*
X476249Y233499D02*
X528249D01*
Y265499D01*
X476249D02*
X528249D01*
X476249Y233499D02*
Y265499D01*
X427691Y155977D02*
X456879D01*
X427691Y136493D02*
X456879D01*
X438468Y146275D02*
X446088D01*
X442278Y142465D02*
Y150085D01*
X427691Y136493D02*
Y155977D01*
X456879Y136493D02*
Y155977D01*
X520999Y149620D02*
Y153120D01*
Y156620D01*
X516998Y153120D02*
X520999D01*
X524998D01*
X527999Y143620D02*
Y162620D01*
X513999Y143620D02*
X527999D01*
X513999D02*
Y162620D01*
X527999D01*
X183840Y263160D02*
Y299372D01*
X165226Y260672D02*
Y299372D01*
X180000Y280000D02*
X183840D01*
X180000D02*
Y283840D01*
X176160Y280000D02*
X180000D01*
Y276160D02*
Y280000D01*
X165226Y260672D02*
X183840D01*
X165226Y299372D02*
X183840D01*
Y260672D02*
Y263160D01*
X463397Y110824D02*
X492585D01*
X463397Y130307D02*
X492585D01*
X474189Y120525D02*
X481809D01*
X477999Y116715D02*
Y124335D01*
X492585Y110824D02*
Y130307D01*
X463397Y110824D02*
Y130307D01*
X504068Y111077D02*
X533256D01*
X504068Y130561D02*
X533256D01*
X514859Y120779D02*
X522479D01*
X518669Y116969D02*
Y124589D01*
X533256Y111077D02*
Y130561D01*
X504068Y111077D02*
Y130561D01*
X465500Y149275D02*
Y152775D01*
Y156275D01*
X461499Y152775D02*
X465500D01*
X469499D01*
X472500Y143275D02*
Y162275D01*
X458500Y143275D02*
X472500D01*
X458500D02*
Y162275D01*
X472500D01*
X483799Y149275D02*
Y152775D01*
Y156275D01*
X479798Y152775D02*
X483799D01*
X487798D01*
X490798Y143275D02*
Y162275D01*
X476798Y143275D02*
X490798D01*
X476798D02*
Y162275D01*
X490798D01*
X501928Y149370D02*
Y152870D01*
Y156369D01*
X497928Y152870D02*
X501928D01*
X505928D01*
X508928Y143370D02*
Y162369D01*
X494928Y143370D02*
X508928D01*
X494928D02*
Y162369D01*
X508928D01*
D15*
X619500Y159000D02*
X619389Y161519D01*
X619055Y164018D01*
X618502Y166478D01*
X617733Y168879D01*
X616755Y171203D01*
X615576Y173432D01*
X614204Y175547D01*
X612651Y177533D01*
X610928Y179374D01*
X609050Y181056D01*
X607030Y182565D01*
X604884Y183889D01*
X602630Y185019D01*
X600285Y185945D01*
X597868Y186660D01*
X595396Y187159D01*
X592890Y187437D01*
X590369Y187493D01*
X587854Y187326D01*
X585363Y186937D01*
X582916Y186329D01*
X580532Y185508D01*
X578230Y184479D01*
X576028Y183251D01*
X573944Y181833D01*
X571992Y180236D01*
X570190Y178473D01*
X568550Y176557D01*
X567086Y174505D01*
X565810Y172330D01*
X564730Y170052D01*
X563856Y167687D01*
X563195Y165254D01*
X562751Y162772D01*
X562528Y160261D01*
Y157739D01*
X562751Y155228D01*
X563195Y152746D01*
X563856Y150313D01*
X564730Y147948D01*
X565810Y145670D01*
X567086Y143496D01*
X568550Y141443D01*
X570190Y139527D01*
X571992Y137764D01*
X573943Y136167D01*
X576028Y134749D01*
X578230Y133521D01*
X580532Y132492D01*
X582916Y131671D01*
X585363Y131063D01*
X587854Y130674D01*
X590369Y130507D01*
X592890Y130563D01*
X595396Y130841D01*
X597868Y131340D01*
X600285Y132055D01*
X602630Y132981D01*
X604884Y134111D01*
X607030Y135435D01*
X609050Y136944D01*
X610928Y138626D01*
X612651Y140467D01*
X614204Y142453D01*
X615576Y144568D01*
X616755Y146797D01*
X617733Y149121D01*
X618502Y151522D01*
X619055Y153982D01*
X619389Y156481D01*
X619500Y159000D01*
X377500Y401000D02*
X377388Y403519D01*
X377055Y406018D01*
X376502Y408478D01*
X375733Y410879D01*
X374755Y413203D01*
X373576Y415432D01*
X372204Y417547D01*
X370651Y419533D01*
X368928Y421374D01*
X367050Y423056D01*
X365030Y424565D01*
X362884Y425889D01*
X360630Y427019D01*
X358285Y427945D01*
X355868Y428660D01*
X353396Y429159D01*
X350890Y429437D01*
X348369Y429493D01*
X345854Y429326D01*
X343363Y428937D01*
X340916Y428329D01*
X338532Y427508D01*
X336230Y426479D01*
X334028Y425251D01*
X331944Y423833D01*
X329992Y422236D01*
X328190Y420473D01*
X326550Y418557D01*
X325086Y416505D01*
X323810Y414330D01*
X322730Y412052D01*
X321856Y409687D01*
X321195Y407254D01*
X320751Y404772D01*
X320528Y402261D01*
Y399739D01*
X320751Y397228D01*
X321195Y394746D01*
X321856Y392313D01*
X322730Y389948D01*
X323810Y387670D01*
X325086Y385495D01*
X326550Y383443D01*
X328190Y381527D01*
X329992Y379764D01*
X331944Y378167D01*
X334028Y376749D01*
X336230Y375521D01*
X338532Y374492D01*
X340916Y373671D01*
X343363Y373063D01*
X345854Y372674D01*
X348369Y372507D01*
X350890Y372563D01*
X353396Y372841D01*
X355868Y373340D01*
X358285Y374055D01*
X360630Y374981D01*
X362884Y376111D01*
X365030Y377435D01*
X367050Y378944D01*
X368928Y380626D01*
X370651Y382467D01*
X372204Y384453D01*
X373576Y386568D01*
X374755Y388797D01*
X375733Y391121D01*
X376502Y393522D01*
X377055Y395982D01*
X377388Y398481D01*
X377500Y401000D01*
X619500D02*
X619389Y403519D01*
X619055Y406018D01*
X618502Y408478D01*
X617733Y410879D01*
X616755Y413203D01*
X615576Y415432D01*
X614204Y417547D01*
X612651Y419533D01*
X610928Y421374D01*
X609050Y423056D01*
X607030Y424565D01*
X604884Y425889D01*
X602630Y427019D01*
X600285Y427945D01*
X597868Y428660D01*
X595396Y429159D01*
X592890Y429437D01*
X590369Y429493D01*
X587854Y429326D01*
X585363Y428937D01*
X582916Y428329D01*
X580532Y427508D01*
X578230Y426479D01*
X576028Y425251D01*
X573944Y423833D01*
X571992Y422236D01*
X570190Y420473D01*
X568550Y418557D01*
X567086Y416505D01*
X565810Y414330D01*
X564730Y412052D01*
X563856Y409687D01*
X563195Y407254D01*
X562751Y404772D01*
X562528Y402261D01*
Y399739D01*
X562751Y397228D01*
X563195Y394746D01*
X563856Y392313D01*
X564730Y389948D01*
X565810Y387670D01*
X567086Y385495D01*
X568550Y383443D01*
X570190Y381527D01*
X571992Y379764D01*
X573943Y378167D01*
X576028Y376749D01*
X578230Y375521D01*
X580532Y374492D01*
X582916Y373671D01*
X585363Y373063D01*
X587854Y372674D01*
X590369Y372507D01*
X592890Y372563D01*
X595396Y372841D01*
X597868Y373340D01*
X600285Y374055D01*
X602630Y374981D01*
X604884Y376111D01*
X607030Y377435D01*
X609050Y378944D01*
X610928Y380626D01*
X612651Y382467D01*
X614204Y384453D01*
X615576Y386568D01*
X616755Y388797D01*
X617733Y391121D01*
X618502Y393522D01*
X619055Y395982D01*
X619389Y398481D01*
X619500Y401000D01*
X377500Y159000D02*
X377388Y161519D01*
X377055Y164018D01*
X376502Y166478D01*
X375733Y168879D01*
X374755Y171203D01*
X373576Y173432D01*
X372204Y175547D01*
X370651Y177533D01*
X368928Y179374D01*
X367050Y181056D01*
X365030Y182565D01*
X362884Y183889D01*
X360630Y185019D01*
X358285Y185945D01*
X355868Y186660D01*
X353396Y187159D01*
X350890Y187437D01*
X348369Y187493D01*
X345854Y187326D01*
X343363Y186937D01*
X340916Y186329D01*
X338532Y185508D01*
X336230Y184479D01*
X334028Y183251D01*
X331944Y181833D01*
X329992Y180236D01*
X328190Y178473D01*
X326550Y176557D01*
X325086Y174505D01*
X323810Y172330D01*
X322730Y170052D01*
X321856Y167687D01*
X321195Y165254D01*
X320751Y162772D01*
X320528Y160261D01*
Y157739D01*
X320751Y155228D01*
X321195Y152746D01*
X321856Y150313D01*
X322730Y147948D01*
X323810Y145670D01*
X325086Y143496D01*
X326550Y141443D01*
X328190Y139527D01*
X329992Y137764D01*
X331944Y136167D01*
X334028Y134749D01*
X336230Y133521D01*
X338532Y132492D01*
X340916Y131671D01*
X343363Y131063D01*
X345854Y130674D01*
X348369Y130507D01*
X350890Y130563D01*
X353396Y130841D01*
X355868Y131340D01*
X358285Y132055D01*
X360630Y132981D01*
X362884Y134111D01*
X365030Y135435D01*
X367050Y136944D01*
X368928Y138626D01*
X370651Y140467D01*
X372204Y142453D01*
X373576Y144568D01*
X374755Y146797D01*
X375733Y149121D01*
X376502Y151522D01*
X377055Y153982D01*
X377388Y156481D01*
X377500Y159000D01*
X73000Y483000D02*
X72738Y485495D01*
X71962Y487881D01*
X70708Y490053D01*
X69030Y491918D01*
X67000Y493392D01*
X64708Y494413D01*
X62254Y494934D01*
X59746D01*
X57292Y494413D01*
X55000Y493392D01*
X52970Y491918D01*
X51292Y490053D01*
X50037Y487881D01*
X49262Y485495D01*
X49000Y483000D01*
X49262Y480505D01*
X50037Y478119D01*
X51292Y475947D01*
X52970Y474082D01*
X55000Y472608D01*
X57292Y471587D01*
X59746Y471066D01*
X62254D01*
X64708Y471587D01*
X67000Y472608D01*
X69030Y474082D01*
X70708Y475947D01*
X71962Y478119D01*
X72738Y480505D01*
X73000Y483000D01*
X647000Y80000D02*
X646738Y82495D01*
X645963Y84881D01*
X644708Y87053D01*
X643030Y88918D01*
X641000Y90392D01*
X638708Y91413D01*
X636254Y91934D01*
X633746D01*
X631292Y91413D01*
X629000Y90392D01*
X626970Y88918D01*
X625292Y87053D01*
X624038Y84881D01*
X623262Y82495D01*
X623000Y80000D01*
X623262Y77505D01*
X624038Y75119D01*
X625292Y72947D01*
X626970Y71082D01*
X629000Y69608D01*
X631292Y68587D01*
X633746Y68066D01*
X636254D01*
X638708Y68587D01*
X641000Y69608D01*
X643030Y71082D01*
X644708Y72947D01*
X645963Y75119D01*
X646738Y77505D01*
X647000Y80000D01*
X272000Y15000D02*
X271738Y17495D01*
X270963Y19881D01*
X269708Y22053D01*
X268030Y23918D01*
X266000Y25392D01*
X263708Y26413D01*
X261254Y26934D01*
X258746D01*
X256292Y26413D01*
X254000Y25392D01*
X251970Y23918D01*
X250292Y22053D01*
X249037Y19881D01*
X248262Y17495D01*
X248000Y15000D01*
X248262Y12505D01*
X249037Y10119D01*
X250292Y7947D01*
X251970Y6082D01*
X254000Y4608D01*
X256292Y3587D01*
X258746Y3066D01*
X261254D01*
X263708Y3587D01*
X266000Y4608D01*
X268030Y6082D01*
X269708Y7947D01*
X270963Y10119D01*
X271738Y12505D01*
X272000Y15000D01*
X-5500Y176412D02*
Y362507D01*
Y172507D02*
Y176412D01*
Y172507D02*
X-3401D01*
X44500D01*
X6000D02*
Y362507D01*
X24220Y267507D02*
X36220D01*
X24220Y255507D02*
Y267507D01*
X12220D02*
X24220D01*
Y279507D01*
X44500Y197507D02*
X50220D01*
X44500Y337397D02*
X50220D01*
X-5500Y362507D02*
X44500D01*
Y172507D02*
Y197507D01*
Y337397D02*
Y362507D01*
X50220Y197507D02*
Y337397D01*
X61000Y478000D02*
Y488000D01*
X56000Y483000D02*
X66000D01*
X635000Y75000D02*
Y85000D01*
X630000Y80000D02*
X640000D01*
X260000Y10000D02*
Y20000D01*
X255000Y15000D02*
X265000D01*
D119*
X517319Y196025D02*
X523319D01*
X517319Y184025D02*
X523319D01*
X517319D02*
Y196025D01*
X523319Y184025D02*
Y196025D01*
X520319Y188375D02*
Y191675D01*
X518669Y190026D02*
X521969D01*
X486445Y35541D02*
Y41541D01*
X483445Y38541D02*
X489445D01*
X480445Y28041D02*
Y49041D01*
X492445Y28041D02*
Y49041D01*
X480445D02*
X492445D01*
X480445Y28041D02*
X492445D01*
X476350Y195743D02*
X482350D01*
X476350Y183743D02*
X482350D01*
X476350D02*
Y195743D01*
X482350Y183743D02*
Y195743D01*
X479350Y188093D02*
Y191393D01*
X477700Y189743D02*
X481000D01*
X483551Y195743D02*
X489552D01*
X483551Y183743D02*
X489552D01*
X483551D02*
Y195743D01*
X489552Y183743D02*
Y195743D01*
X486552Y188093D02*
Y191393D01*
X484902Y189743D02*
X488201D01*
X510319Y196025D02*
X516319D01*
X510319Y184025D02*
X516319D01*
X510319D02*
Y196025D01*
X516319Y184025D02*
Y196025D01*
X513319Y188375D02*
Y191675D01*
X511669Y190026D02*
X514969D01*
X402499Y284366D02*
X421499D01*
X402499Y294366D02*
X421499D01*
X402499Y284366D02*
Y294366D01*
X421499Y284366D02*
Y294366D01*
X409249Y289366D02*
X414749D01*
X411999Y286616D02*
Y292115D01*
X472420Y270074D02*
Y289074D01*
X482420Y270074D02*
Y289074D01*
X472420D02*
X482420D01*
X472420Y270074D02*
X482420D01*
X477420Y276824D02*
Y282324D01*
X474670Y279574D02*
X480170D01*
X459799Y259197D02*
Y278197D01*
X469799Y259197D02*
Y278197D01*
X459799D02*
X469799D01*
X459799Y259197D02*
X469799D01*
X464799Y265947D02*
Y271447D01*
X462049Y268697D02*
X467549D01*
X402499Y270824D02*
X421499D01*
X402499Y280824D02*
X421499D01*
X402499Y270824D02*
Y280824D01*
X421499Y270824D02*
Y280824D01*
X409249Y275824D02*
X414749D01*
X411999Y273074D02*
Y278574D01*
X442305Y201479D02*
Y220480D01*
X452305Y201479D02*
Y220480D01*
X442305D02*
X452305D01*
X442305Y201479D02*
X452305D01*
X447305Y208230D02*
Y213729D01*
X444555Y210979D02*
X450055D01*
X419439Y201387D02*
Y220387D01*
X429439Y201387D02*
Y220387D01*
X419439D02*
X429439D01*
X419439Y201387D02*
X429439D01*
X424439Y208137D02*
Y213637D01*
X421689Y210887D02*
X427189D01*
X440805Y169980D02*
Y188980D01*
X450805Y169980D02*
Y188980D01*
X440805D02*
X450805D01*
X440805Y169980D02*
X450805D01*
X445805Y176730D02*
Y182230D01*
X443055Y179480D02*
X448555D01*
X420804Y170177D02*
Y189177D01*
X430804Y170177D02*
Y189177D01*
X420804D02*
X430804D01*
X420804Y170177D02*
X430804D01*
X425804Y176926D02*
Y182426D01*
X423054Y179676D02*
X428554D01*
X408999Y303499D02*
X414999D01*
X411999Y300499D02*
Y306499D01*
X401499Y297499D02*
X422499D01*
X401499Y309499D02*
X422499D01*
X401499Y297499D02*
Y309499D01*
X422499Y297499D02*
Y309499D01*
X503258Y284582D02*
Y290582D01*
X500258Y287582D02*
X506258D01*
X509258Y277082D02*
Y298082D01*
X497258Y277082D02*
Y298082D01*
Y277082D02*
X509258D01*
X497258Y298082D02*
X509258D01*
X464799Y238275D02*
Y244275D01*
X461799Y241275D02*
X467799D01*
X470799Y230775D02*
Y251775D01*
X458799Y230775D02*
Y251775D01*
Y230775D02*
X470799D01*
X458799Y251775D02*
X470799D01*
X402599Y229998D02*
X421599D01*
X402599Y239998D02*
X421599D01*
X402599Y229998D02*
Y239998D01*
X421599Y229998D02*
Y239998D01*
X409349Y234998D02*
X414849D01*
X412099Y232248D02*
Y237749D01*
X402599Y243749D02*
X421599D01*
X402599Y253749D02*
X421599D01*
X402599Y243749D02*
Y253749D01*
X421599Y243749D02*
Y253749D01*
X409349Y248749D02*
X414849D01*
X412099Y245999D02*
Y251499D01*
X402500Y258000D02*
X421500D01*
X402500Y268000D02*
X421500D01*
X402500Y258000D02*
Y268000D01*
X421500Y258000D02*
Y268000D01*
X409250Y263000D02*
X414750D01*
X412000Y260250D02*
Y265750D01*
M02*
