G04*
G04 #@! TF.GenerationSoftware,Altium Limited,Altium Designer,19.1.8 (144)*
G04*
G04 Layer_Color=16711935*
%FSLAX44Y44*%
%MOMM*%
G71*
G01*
G75*
%ADD121C,0.0254*%
%ADD122C,0.7620*%
D121*
X648020Y524750D02*
X647923Y527278D01*
X647633Y529790D01*
X647151Y532274D01*
X646481Y534713D01*
X645626Y537093D01*
X644591Y539402D01*
X643383Y541624D01*
X642008Y543747D01*
X640475Y545759D01*
X638792Y547647D01*
X636969Y549401D01*
X635018Y551011D01*
X632949Y552466D01*
X630774Y553759D01*
X628507Y554881D01*
X626161Y555826D01*
X623750Y556590D01*
X621287Y557166D01*
X618787Y557552D01*
X616265Y557746D01*
X613735D01*
X611213Y557552D01*
X608713Y557166D01*
X606250Y556590D01*
X603839Y555826D01*
X601493Y554881D01*
X599226Y553759D01*
X597051Y552466D01*
X594982Y551011D01*
X593031Y549401D01*
X591208Y547647D01*
X589525Y545759D01*
X587992Y543747D01*
X586617Y541624D01*
X585409Y539402D01*
X584374Y537093D01*
X583519Y534713D01*
X582849Y532274D01*
X582367Y529790D01*
X582077Y527278D01*
X581980Y524750D01*
X582077Y522222D01*
X582367Y519710D01*
X582849Y517226D01*
X583519Y514787D01*
X584374Y512407D01*
X585409Y510098D01*
X586617Y507876D01*
X587992Y505753D01*
X589525Y503741D01*
X591208Y501853D01*
X593031Y500099D01*
X594982Y498489D01*
X597051Y497034D01*
X599226Y495742D01*
X601493Y494619D01*
X603839Y493674D01*
X606250Y492910D01*
X608713Y492334D01*
X611213Y491948D01*
X613735Y491754D01*
X616265D01*
X618787Y491948D01*
X621287Y492334D01*
X623750Y492910D01*
X626161Y493674D01*
X628507Y494619D01*
X630774Y495742D01*
X632949Y497034D01*
X635018Y498489D01*
X636969Y500099D01*
X638792Y501853D01*
X640475Y503741D01*
X642008Y505753D01*
X643383Y507876D01*
X644591Y510098D01*
X645626Y512407D01*
X646481Y514787D01*
X647151Y517226D01*
X647633Y519710D01*
X647923Y522223D01*
X648020Y524750D01*
Y35000D02*
X647923Y37528D01*
X647633Y40040D01*
X647151Y42524D01*
X646481Y44963D01*
X645626Y47343D01*
X644591Y49652D01*
X643383Y51874D01*
X642008Y53997D01*
X640475Y56009D01*
X638792Y57897D01*
X636969Y59651D01*
X635018Y61261D01*
X632949Y62716D01*
X630774Y64008D01*
X628507Y65131D01*
X626161Y66076D01*
X623750Y66840D01*
X621287Y67416D01*
X618787Y67802D01*
X616265Y67996D01*
X613735D01*
X611213Y67802D01*
X608713Y67416D01*
X606250Y66840D01*
X603839Y66076D01*
X601493Y65131D01*
X599226Y64008D01*
X597051Y62716D01*
X594982Y61261D01*
X593031Y59651D01*
X591208Y57897D01*
X589525Y56009D01*
X587992Y53997D01*
X586617Y51874D01*
X585409Y49652D01*
X584374Y47343D01*
X583519Y44963D01*
X582849Y42524D01*
X582367Y40040D01*
X582077Y37528D01*
X581980Y35000D01*
X582077Y32472D01*
X582367Y29959D01*
X582849Y27476D01*
X583519Y25037D01*
X584374Y22657D01*
X585409Y20348D01*
X586617Y18126D01*
X587992Y16003D01*
X589525Y13991D01*
X591208Y12103D01*
X593031Y10349D01*
X594982Y8739D01*
X597051Y7284D01*
X599226Y5992D01*
X601493Y4869D01*
X603839Y3924D01*
X606250Y3160D01*
X608713Y2584D01*
X611213Y2198D01*
X613735Y2004D01*
X616265D01*
X618787Y2198D01*
X621287Y2584D01*
X623750Y3160D01*
X626161Y3924D01*
X628507Y4869D01*
X630774Y5992D01*
X632949Y7284D01*
X635018Y8740D01*
X636969Y10349D01*
X638792Y12103D01*
X640475Y13991D01*
X642008Y16003D01*
X643383Y18126D01*
X644591Y20348D01*
X645626Y22657D01*
X646481Y25037D01*
X647151Y27476D01*
X647633Y29960D01*
X647923Y32473D01*
X648020Y35000D01*
X68020D02*
X67923Y37528D01*
X67633Y40040D01*
X67151Y42524D01*
X66481Y44963D01*
X65626Y47343D01*
X64591Y49652D01*
X63383Y51874D01*
X62008Y53997D01*
X60475Y56009D01*
X58792Y57897D01*
X56969Y59651D01*
X55018Y61261D01*
X52949Y62716D01*
X50774Y64008D01*
X48507Y65131D01*
X46161Y66076D01*
X43750Y66840D01*
X41287Y67416D01*
X38787Y67802D01*
X36265Y67996D01*
X33735D01*
X31213Y67802D01*
X28713Y67416D01*
X26250Y66840D01*
X23839Y66076D01*
X21493Y65131D01*
X19226Y64008D01*
X17051Y62716D01*
X14982Y61261D01*
X13031Y59651D01*
X11208Y57897D01*
X9525Y56009D01*
X7992Y53997D01*
X6617Y51874D01*
X5409Y49652D01*
X4374Y47343D01*
X3519Y44963D01*
X2849Y42524D01*
X2367Y40040D01*
X2077Y37528D01*
X1980Y35000D01*
X2077Y32472D01*
X2367Y29959D01*
X2849Y27476D01*
X3519Y25037D01*
X4374Y22657D01*
X5409Y20348D01*
X6617Y18126D01*
X7992Y16003D01*
X9525Y13991D01*
X11208Y12103D01*
X13031Y10349D01*
X14982Y8739D01*
X17051Y7284D01*
X19226Y5992D01*
X21493Y4869D01*
X23839Y3924D01*
X26250Y3160D01*
X28713Y2584D01*
X31213Y2198D01*
X33735Y2004D01*
X36265D01*
X38787Y2198D01*
X41287Y2584D01*
X43750Y3160D01*
X46161Y3924D01*
X48507Y4869D01*
X50774Y5992D01*
X52949Y7284D01*
X55018Y8740D01*
X56969Y10349D01*
X58792Y12103D01*
X60475Y13991D01*
X62008Y16003D01*
X63383Y18126D01*
X64591Y20348D01*
X65626Y22657D01*
X66481Y25037D01*
X67151Y27476D01*
X67633Y29960D01*
X67923Y32473D01*
X68020Y35000D01*
Y525000D02*
X67923Y527528D01*
X67633Y530041D01*
X67151Y532524D01*
X66481Y534963D01*
X65626Y537343D01*
X64591Y539652D01*
X63383Y541874D01*
X62008Y543997D01*
X60475Y546009D01*
X58792Y547897D01*
X56969Y549651D01*
X55018Y551261D01*
X52949Y552716D01*
X50774Y554008D01*
X48507Y555131D01*
X46161Y556076D01*
X43750Y556840D01*
X41287Y557416D01*
X38787Y557802D01*
X36265Y557996D01*
X33735D01*
X31213Y557802D01*
X28713Y557416D01*
X26250Y556840D01*
X23839Y556076D01*
X21493Y555131D01*
X19226Y554008D01*
X17051Y552716D01*
X14982Y551261D01*
X13031Y549651D01*
X11208Y547897D01*
X9525Y546009D01*
X7992Y543997D01*
X6617Y541874D01*
X5409Y539652D01*
X4374Y537343D01*
X3519Y534963D01*
X2849Y532524D01*
X2367Y530041D01*
X2077Y527528D01*
X1980Y525000D01*
X2077Y522472D01*
X2367Y519959D01*
X2849Y517476D01*
X3519Y515037D01*
X4374Y512657D01*
X5409Y510348D01*
X6617Y508126D01*
X7992Y506003D01*
X9525Y503991D01*
X11208Y502103D01*
X13031Y500349D01*
X14982Y498739D01*
X17051Y497284D01*
X19226Y495992D01*
X21493Y494869D01*
X23839Y493923D01*
X26250Y493160D01*
X28713Y492584D01*
X31213Y492198D01*
X33735Y492004D01*
X36265D01*
X38787Y492198D01*
X41287Y492584D01*
X43750Y493160D01*
X46161Y493924D01*
X48507Y494869D01*
X50774Y495992D01*
X52949Y497284D01*
X55018Y498740D01*
X56969Y500349D01*
X58792Y502103D01*
X60475Y503991D01*
X62008Y506003D01*
X63383Y508126D01*
X64591Y510349D01*
X65626Y512657D01*
X66481Y515037D01*
X67151Y517476D01*
X67633Y519960D01*
X67923Y522472D01*
X68020Y525000D01*
D122*
X620000Y0D02*
X622477Y103D01*
X624938Y409D01*
X627365Y918D01*
X629741Y1626D01*
X632051Y2527D01*
X634278Y3616D01*
X636409Y4885D01*
X638426Y6326D01*
X640319Y7928D01*
X642072Y9682D01*
X643674Y11574D01*
X645115Y13592D01*
X646384Y15722D01*
X647473Y17949D01*
X648374Y20259D01*
X649082Y22636D01*
X649591Y25062D01*
X649898Y27523D01*
X650000Y30000D01*
X0D02*
X103Y27523D01*
X409Y25062D01*
X918Y22635D01*
X1626Y20259D01*
X2527Y17949D01*
X3616Y15722D01*
X4885Y13592D01*
X6326Y11574D01*
X7928Y9682D01*
X9682Y7928D01*
X11574Y6326D01*
X13592Y4885D01*
X15722Y3616D01*
X17949Y2527D01*
X20259Y1626D01*
X22636Y918D01*
X25062Y409D01*
X27523Y103D01*
X30000Y0D01*
Y560000D02*
X27523Y559897D01*
X25062Y559591D01*
X22635Y559082D01*
X20259Y558374D01*
X17949Y557473D01*
X15722Y556384D01*
X13592Y555115D01*
X11574Y553674D01*
X9682Y552072D01*
X7928Y550318D01*
X6326Y548426D01*
X4885Y546409D01*
X3616Y544278D01*
X2527Y542051D01*
X1626Y539741D01*
X918Y537365D01*
X409Y534938D01*
X103Y532477D01*
X0Y530000D01*
X650000D02*
X649898Y532477D01*
X649591Y534938D01*
X649082Y537365D01*
X648374Y539741D01*
X647473Y542051D01*
X646384Y544278D01*
X645115Y546409D01*
X643674Y548426D01*
X642072Y550318D01*
X640319Y552072D01*
X638426Y553674D01*
X636408Y555115D01*
X634278Y556384D01*
X632051Y557473D01*
X629741Y558374D01*
X627365Y559082D01*
X624938Y559591D01*
X622477Y559897D01*
X620000Y560000D01*
X3Y530000D02*
X3Y30000D01*
X650000Y530000D02*
X650000Y30000D01*
X30000Y-0D02*
X620000Y0D01*
X30000Y560000D02*
X620000D01*
M02*
