G04*
G04 #@! TF.GenerationSoftware,Altium Limited,Altium Designer,20.0.13 (296)*
G04*
G04 Layer_Color=32768*
%FSLAX44Y44*%
%MOMM*%
G71*
G01*
G75*
%ADD230C,0.0500*%
G36*
X155448Y479806D02*
D01*
D02*
G37*
D230*
X641952Y353060D02*
X641638Y355547D01*
X640715Y357878D01*
X639242Y359906D01*
X637310Y361503D01*
X635042Y362571D01*
X632580Y363040D01*
X630078Y362883D01*
X627694Y362108D01*
X625578Y360765D01*
X623862Y358938D01*
X622654Y356741D01*
X622031Y354313D01*
Y351807D01*
X622654Y349379D01*
X623862Y347182D01*
X625578Y345355D01*
X627694Y344012D01*
X630078Y343237D01*
X632580Y343080D01*
X635042Y343549D01*
X637310Y344617D01*
X639242Y346214D01*
X640715Y348242D01*
X641638Y350573D01*
X641952Y353060D01*
X641444Y337566D02*
X641130Y340053D01*
X640207Y342383D01*
X638734Y344412D01*
X636802Y346009D01*
X634534Y347077D01*
X632072Y347546D01*
X629570Y347389D01*
X627186Y346614D01*
X625070Y345271D01*
X623354Y343444D01*
X622146Y341247D01*
X621523Y338819D01*
Y336313D01*
X622146Y333885D01*
X623354Y331688D01*
X625070Y329861D01*
X627186Y328518D01*
X629570Y327743D01*
X632072Y327586D01*
X634534Y328055D01*
X636802Y329123D01*
X638734Y330720D01*
X640207Y332748D01*
X641130Y335079D01*
X641444Y337566D01*
X381500Y484000D02*
X381389Y486519D01*
X381055Y489018D01*
X380502Y491478D01*
X379733Y493879D01*
X378755Y496203D01*
X377576Y498432D01*
X376204Y500547D01*
X374651Y502533D01*
X372928Y504374D01*
X371050Y506056D01*
X369030Y507565D01*
X366884Y508889D01*
X364630Y510019D01*
X362285Y510945D01*
X359868Y511660D01*
X357396Y512159D01*
X354890Y512437D01*
X352370Y512493D01*
X349854Y512326D01*
X347363Y511937D01*
X344916Y511329D01*
X342532Y510508D01*
X340230Y509479D01*
X338028Y508251D01*
X335944Y506833D01*
X333992Y505236D01*
X332190Y503473D01*
X330550Y501557D01*
X329086Y499505D01*
X327810Y497331D01*
X326730Y495052D01*
X325856Y492687D01*
X325195Y490254D01*
X324751Y487772D01*
X324528Y485261D01*
Y482739D01*
X324751Y480228D01*
X325195Y477746D01*
X325856Y475313D01*
X326730Y472948D01*
X327810Y470670D01*
X329086Y468495D01*
X330550Y466443D01*
X332190Y464527D01*
X333992Y462764D01*
X335943Y461167D01*
X338028Y459749D01*
X340230Y458521D01*
X342532Y457492D01*
X344916Y456671D01*
X347363Y456063D01*
X349854Y455674D01*
X352369Y455507D01*
X354890Y455563D01*
X357396Y455841D01*
X359868Y456340D01*
X362285Y457055D01*
X364630Y457981D01*
X366884Y459111D01*
X369030Y460435D01*
X371050Y461944D01*
X372928Y463626D01*
X374651Y465467D01*
X376204Y467453D01*
X377576Y469568D01*
X378755Y471797D01*
X379733Y474121D01*
X380502Y476522D01*
X381055Y478982D01*
X381389Y481481D01*
X381500Y484000D01*
X861500Y154000D02*
X861388Y156519D01*
X861055Y159018D01*
X860502Y161478D01*
X859733Y163879D01*
X858755Y166203D01*
X857576Y168432D01*
X856204Y170547D01*
X854651Y172533D01*
X852928Y174374D01*
X851050Y176056D01*
X849030Y177565D01*
X846885Y178889D01*
X844630Y180019D01*
X842285Y180945D01*
X839868Y181660D01*
X837396Y182159D01*
X834890Y182437D01*
X832370Y182493D01*
X829854Y182326D01*
X827363Y181937D01*
X824916Y181329D01*
X822532Y180508D01*
X820230Y179479D01*
X818028Y178251D01*
X815944Y176833D01*
X813992Y175236D01*
X812190Y173473D01*
X810550Y171557D01*
X809087Y169505D01*
X807810Y167330D01*
X806730Y165052D01*
X805856Y162687D01*
X805195Y160254D01*
X804751Y157772D01*
X804528Y155261D01*
Y152739D01*
X804751Y150228D01*
X805195Y147746D01*
X805856Y145313D01*
X806730Y142948D01*
X807810Y140670D01*
X809087Y138496D01*
X810550Y136443D01*
X812190Y134527D01*
X813992Y132764D01*
X815944Y131167D01*
X818028Y129749D01*
X820230Y128521D01*
X822532Y127492D01*
X824916Y126671D01*
X827363Y126063D01*
X829854Y125674D01*
X832370Y125507D01*
X834890Y125563D01*
X837396Y125841D01*
X839868Y126340D01*
X842285Y127055D01*
X844630Y127981D01*
X846885Y129111D01*
X849030Y130435D01*
X851050Y131944D01*
X852928Y133626D01*
X854651Y135467D01*
X856204Y137453D01*
X857576Y139568D01*
X858755Y141797D01*
X859733Y144121D01*
X860502Y146522D01*
X861055Y148982D01*
X861388Y151481D01*
X861500Y154000D01*
X147738Y307580D02*
X147424Y310067D01*
X146501Y312397D01*
X145028Y314425D01*
X143096Y316023D01*
X140828Y317090D01*
X138366Y317560D01*
X135864Y317402D01*
X133480Y316628D01*
X131364Y315285D01*
X129648Y313458D01*
X128440Y311261D01*
X127817Y308833D01*
Y306326D01*
X128440Y303898D01*
X129648Y301702D01*
X131364Y299874D01*
X133480Y298531D01*
X135864Y297757D01*
X138366Y297599D01*
X140828Y298069D01*
X143096Y299136D01*
X145028Y300734D01*
X146501Y302762D01*
X147424Y305093D01*
X147738Y307580D01*
X605122Y363728D02*
X604808Y366215D01*
X603885Y368545D01*
X602412Y370574D01*
X600480Y372171D01*
X598212Y373239D01*
X595750Y373708D01*
X593248Y373551D01*
X590864Y372776D01*
X588748Y371433D01*
X587032Y369606D01*
X585824Y367409D01*
X585201Y364981D01*
Y362475D01*
X585824Y360047D01*
X587032Y357850D01*
X588748Y356023D01*
X590864Y354680D01*
X593248Y353905D01*
X595750Y353748D01*
X598212Y354217D01*
X600480Y355285D01*
X602412Y356883D01*
X603885Y358910D01*
X604808Y361241D01*
X605122Y363728D01*
X823791Y209372D02*
X823476Y211859D01*
X822554Y214190D01*
X821080Y216218D01*
X819149Y217815D01*
X816881Y218883D01*
X814418Y219352D01*
X811917Y219195D01*
X809533Y218421D01*
X807416Y217077D01*
X805700Y215250D01*
X804493Y213053D01*
X803869Y210625D01*
Y208119D01*
X804493Y205691D01*
X805700Y203494D01*
X807416Y201667D01*
X809533Y200324D01*
X811917Y199549D01*
X814418Y199392D01*
X816881Y199862D01*
X819149Y200929D01*
X821080Y202527D01*
X822554Y204555D01*
X823476Y206885D01*
X823791Y209372D01*
X809313Y209372D02*
X808998Y211859D01*
X808076Y214190D01*
X806602Y216218D01*
X804671Y217815D01*
X802403Y218883D01*
X799940Y219352D01*
X797439Y219195D01*
X795055Y218421D01*
X792938Y217077D01*
X791222Y215250D01*
X790015Y213053D01*
X789391Y210625D01*
Y208119D01*
X790015Y205691D01*
X791222Y203494D01*
X792938Y201667D01*
X795055Y200324D01*
X797439Y199549D01*
X799940Y199392D01*
X802403Y199862D01*
X804671Y200929D01*
X806602Y202527D01*
X808076Y204555D01*
X808998Y206885D01*
X809313Y209372D01*
X793057Y209372D02*
X792742Y211859D01*
X791820Y214190D01*
X790346Y216218D01*
X788415Y217815D01*
X786147Y218883D01*
X783684Y219352D01*
X781183Y219195D01*
X778799Y218421D01*
X776682Y217077D01*
X774966Y215250D01*
X773759Y213053D01*
X773135Y210625D01*
Y208119D01*
X773759Y205691D01*
X774966Y203494D01*
X776682Y201667D01*
X778799Y200324D01*
X781183Y199549D01*
X783684Y199392D01*
X786147Y199862D01*
X788415Y200929D01*
X790346Y202527D01*
X791820Y204555D01*
X792742Y206885D01*
X793057Y209372D01*
X778833Y209372D02*
X778518Y211859D01*
X777596Y214190D01*
X776122Y216218D01*
X774191Y217815D01*
X771923Y218883D01*
X769461Y219352D01*
X766959Y219195D01*
X764575Y218421D01*
X762458Y217077D01*
X760742Y215250D01*
X759535Y213053D01*
X758911Y210625D01*
Y208119D01*
X759535Y205691D01*
X760742Y203494D01*
X762458Y201667D01*
X764575Y200324D01*
X766959Y199549D01*
X769461Y199392D01*
X771923Y199862D01*
X774191Y200929D01*
X776122Y202527D01*
X777596Y204555D01*
X778518Y206885D01*
X778833Y209372D01*
X841012Y367487D02*
X840698Y369974D01*
X839775Y372305D01*
X838301Y374333D01*
X836370Y375930D01*
X834102Y376998D01*
X831640Y377467D01*
X829138Y377310D01*
X826754Y376535D01*
X824638Y375192D01*
X822922Y373365D01*
X821714Y371168D01*
X821091Y368741D01*
Y366234D01*
X821714Y363806D01*
X822922Y361609D01*
X824638Y359782D01*
X826754Y358439D01*
X829138Y357664D01*
X831640Y357507D01*
X834102Y357977D01*
X836370Y359044D01*
X838301Y360642D01*
X839775Y362670D01*
X840698Y365000D01*
X841012Y367487D01*
X815637Y367487D02*
X815323Y369974D01*
X814400Y372305D01*
X812927Y374333D01*
X810995Y375930D01*
X808727Y376998D01*
X806265Y377467D01*
X803763Y377310D01*
X801379Y376535D01*
X799263Y375192D01*
X797547Y373365D01*
X796339Y371168D01*
X795716Y368741D01*
Y366234D01*
X796339Y363806D01*
X797547Y361609D01*
X799263Y359782D01*
X801379Y358439D01*
X803763Y357664D01*
X806265Y357507D01*
X808727Y357977D01*
X810995Y359044D01*
X812927Y360642D01*
X814400Y362670D01*
X815323Y365000D01*
X815637Y367487D01*
X802810Y367487D02*
X802496Y369974D01*
X801573Y372305D01*
X800100Y374333D01*
X798168Y375930D01*
X795900Y376998D01*
X793438Y377467D01*
X790936Y377310D01*
X788552Y376535D01*
X786436Y375192D01*
X784720Y373365D01*
X783512Y371168D01*
X782889Y368741D01*
Y366234D01*
X783512Y363806D01*
X784720Y361609D01*
X786436Y359782D01*
X788552Y358439D01*
X790936Y357664D01*
X793438Y357507D01*
X795900Y357977D01*
X798168Y359044D01*
X800100Y360642D01*
X801573Y362670D01*
X802496Y365000D01*
X802810Y367487D01*
X1022361Y530000D02*
X1022215Y532549D01*
X1021780Y535065D01*
X1021060Y537514D01*
X1020067Y539866D01*
X1018811Y542089D01*
X1017310Y544155D01*
X1015584Y546036D01*
X1013654Y547707D01*
X1011547Y549149D01*
X1009289Y550340D01*
X1006910Y551266D01*
X1004441Y551915D01*
X1001914Y552279D01*
X999361Y552352D01*
X996818Y552133D01*
X994315Y551626D01*
X991887Y550837D01*
X989565Y549776D01*
X987379Y548458D01*
X985357Y546899D01*
X983526Y545120D01*
X981910Y543143D01*
X980529Y540995D01*
X979403Y538704D01*
X978545Y536300D01*
X977967Y533813D01*
X977676Y531277D01*
Y528723D01*
X977967Y526187D01*
X978545Y523700D01*
X979403Y521296D01*
X980529Y519005D01*
X981910Y516857D01*
X983526Y514880D01*
X985357Y513101D01*
X987379Y511542D01*
X989565Y510224D01*
X991887Y509163D01*
X994315Y508374D01*
X996818Y507867D01*
X999361Y507648D01*
X1001914Y507721D01*
X1004441Y508085D01*
X1006910Y508734D01*
X1009289Y509660D01*
X1011547Y510852D01*
X1013654Y512293D01*
X1015584Y513964D01*
X1017310Y515845D01*
X1018811Y517911D01*
X1020066Y520134D01*
X1021060Y522486D01*
X1021780Y524935D01*
X1022215Y527451D01*
X1022361Y530000D01*
X122361Y530000D02*
X122215Y532549D01*
X121780Y535065D01*
X121060Y537514D01*
X120066Y539866D01*
X118811Y542089D01*
X117310Y544155D01*
X115584Y546036D01*
X113654Y547707D01*
X111547Y549149D01*
X109289Y550340D01*
X106910Y551266D01*
X104441Y551915D01*
X101913Y552279D01*
X99361Y552352D01*
X96818Y552133D01*
X94316Y551626D01*
X91887Y550837D01*
X89565Y549776D01*
X87379Y548458D01*
X85357Y546899D01*
X83526Y545120D01*
X81910Y543143D01*
X80529Y540995D01*
X79403Y538704D01*
X78545Y536300D01*
X77967Y533813D01*
X77676Y531277D01*
Y528723D01*
X77967Y526187D01*
X78545Y523700D01*
X79403Y521296D01*
X80529Y519005D01*
X81910Y516857D01*
X83526Y514880D01*
X85357Y513101D01*
X87379Y511542D01*
X89565Y510224D01*
X91887Y509163D01*
X94316Y508374D01*
X96818Y507867D01*
X99361Y507648D01*
X101913Y507721D01*
X104441Y508085D01*
X106910Y508734D01*
X109289Y509660D01*
X111547Y510852D01*
X113654Y512293D01*
X115584Y513964D01*
X117310Y515845D01*
X118811Y517911D01*
X120066Y520134D01*
X121060Y522486D01*
X121780Y524935D01*
X122215Y527451D01*
X122361Y530000D01*
X960000Y244000D02*
X959686Y246487D01*
X958763Y248818D01*
X957290Y250846D01*
X955358Y252443D01*
X953090Y253511D01*
X950628Y253980D01*
X948126Y253823D01*
X945742Y253048D01*
X943626Y251705D01*
X941910Y249878D01*
X940702Y247681D01*
X940079Y245253D01*
Y242747D01*
X940702Y240319D01*
X941910Y238122D01*
X943626Y236295D01*
X945742Y234952D01*
X948126Y234177D01*
X950628Y234020D01*
X953090Y234489D01*
X955358Y235557D01*
X957290Y237155D01*
X958763Y239182D01*
X959686Y241513D01*
X960000Y244000D01*
X510900Y483000D02*
X510788Y485519D01*
X510455Y488018D01*
X509902Y490478D01*
X509133Y492879D01*
X508155Y495203D01*
X506976Y497432D01*
X505604Y499547D01*
X504051Y501533D01*
X502328Y503374D01*
X500450Y505056D01*
X498430Y506565D01*
X496284Y507889D01*
X494030Y509019D01*
X491685Y509945D01*
X489268Y510660D01*
X486796Y511159D01*
X484290Y511437D01*
X481769Y511493D01*
X479254Y511326D01*
X476763Y510937D01*
X474316Y510329D01*
X471932Y509508D01*
X469630Y508479D01*
X467428Y507251D01*
X465344Y505833D01*
X463392Y504236D01*
X461590Y502473D01*
X459950Y500557D01*
X458487Y498505D01*
X457210Y496330D01*
X456130Y494052D01*
X455256Y491687D01*
X454595Y489254D01*
X454151Y486772D01*
X453928Y484261D01*
Y481739D01*
X454151Y479228D01*
X454595Y476746D01*
X455256Y474313D01*
X456130Y471948D01*
X457210Y469670D01*
X458487Y467495D01*
X459950Y465443D01*
X461590Y463527D01*
X463392Y461764D01*
X465344Y460168D01*
X467428Y458749D01*
X469630Y457521D01*
X471932Y456492D01*
X474316Y455671D01*
X476763Y455063D01*
X479254Y454674D01*
X481769Y454507D01*
X484290Y454563D01*
X486796Y454841D01*
X489268Y455340D01*
X491685Y456055D01*
X494030Y456981D01*
X496284Y458111D01*
X498430Y459435D01*
X500450Y460944D01*
X502328Y462626D01*
X504051Y464467D01*
X505604Y466453D01*
X506976Y468568D01*
X508155Y470797D01*
X509133Y473121D01*
X509902Y475522D01*
X510455Y477982D01*
X510788Y480481D01*
X510900Y483000D01*
X268900Y241000D02*
X268789Y243519D01*
X268455Y246018D01*
X267901Y248478D01*
X267133Y250879D01*
X266155Y253203D01*
X264976Y255432D01*
X263604Y257547D01*
X262051Y259533D01*
X260328Y261374D01*
X258450Y263056D01*
X256430Y264565D01*
X254284Y265889D01*
X252030Y267019D01*
X249685Y267945D01*
X247268Y268660D01*
X244796Y269159D01*
X242290Y269437D01*
X239769Y269493D01*
X237254Y269326D01*
X234763Y268937D01*
X232316Y268329D01*
X229932Y267508D01*
X227630Y266479D01*
X225428Y265251D01*
X223344Y263833D01*
X221392Y262236D01*
X219590Y260473D01*
X217950Y258557D01*
X216486Y256505D01*
X215210Y254331D01*
X214130Y252052D01*
X213256Y249687D01*
X212595Y247254D01*
X212151Y244772D01*
X211928Y242261D01*
Y239739D01*
X212151Y237228D01*
X212595Y234746D01*
X213256Y232313D01*
X214130Y229948D01*
X215210Y227670D01*
X216486Y225495D01*
X217950Y223443D01*
X219590Y221527D01*
X221392Y219764D01*
X223344Y218167D01*
X225428Y216749D01*
X227630Y215521D01*
X229932Y214492D01*
X232316Y213671D01*
X234763Y213063D01*
X237254Y212674D01*
X239769Y212507D01*
X242290Y212563D01*
X244796Y212841D01*
X247268Y213340D01*
X249685Y214055D01*
X252030Y214981D01*
X254284Y216111D01*
X256430Y217435D01*
X258450Y218944D01*
X260328Y220626D01*
X262051Y222467D01*
X263604Y224453D01*
X264976Y226568D01*
X266155Y228797D01*
X267133Y231121D01*
X267901Y233522D01*
X268455Y235982D01*
X268789Y238481D01*
X268900Y241000D01*
Y483000D02*
X268789Y485519D01*
X268455Y488018D01*
X267901Y490478D01*
X267133Y492879D01*
X266155Y495203D01*
X264976Y497432D01*
X263604Y499547D01*
X262051Y501533D01*
X260328Y503374D01*
X258450Y505056D01*
X256430Y506565D01*
X254284Y507889D01*
X252030Y509019D01*
X249685Y509945D01*
X247268Y510660D01*
X244796Y511159D01*
X242290Y511437D01*
X239769Y511493D01*
X237254Y511326D01*
X234763Y510937D01*
X232316Y510329D01*
X229932Y509508D01*
X227630Y508479D01*
X225428Y507251D01*
X223344Y505833D01*
X221392Y504236D01*
X219590Y502473D01*
X217950Y500557D01*
X216486Y498505D01*
X215210Y496330D01*
X214130Y494052D01*
X213256Y491687D01*
X212595Y489254D01*
X212151Y486772D01*
X211928Y484261D01*
Y481739D01*
X212151Y479228D01*
X212595Y476746D01*
X213256Y474313D01*
X214130Y471948D01*
X215210Y469670D01*
X216486Y467495D01*
X217950Y465443D01*
X219590Y463527D01*
X221392Y461764D01*
X223344Y460168D01*
X225428Y458749D01*
X227630Y457521D01*
X229932Y456492D01*
X232316Y455671D01*
X234763Y455063D01*
X237254Y454674D01*
X239769Y454507D01*
X242290Y454563D01*
X244796Y454841D01*
X247268Y455340D01*
X249685Y456055D01*
X252030Y456981D01*
X254284Y458111D01*
X256430Y459435D01*
X258450Y460944D01*
X260328Y462626D01*
X262051Y464467D01*
X263604Y466453D01*
X264976Y468568D01*
X266155Y470797D01*
X267133Y473121D01*
X267901Y475522D01*
X268455Y477982D01*
X268789Y480481D01*
X268900Y483000D01*
X510900Y241000D02*
X510788Y243519D01*
X510455Y246018D01*
X509902Y248478D01*
X509133Y250879D01*
X508155Y253203D01*
X506976Y255432D01*
X505604Y257547D01*
X504051Y259533D01*
X502328Y261374D01*
X500450Y263056D01*
X498430Y264565D01*
X496284Y265889D01*
X494030Y267019D01*
X491685Y267945D01*
X489268Y268660D01*
X486796Y269159D01*
X484290Y269437D01*
X481769Y269493D01*
X479254Y269326D01*
X476763Y268937D01*
X474316Y268329D01*
X471932Y267508D01*
X469630Y266479D01*
X467428Y265251D01*
X465344Y263833D01*
X463392Y262236D01*
X461590Y260473D01*
X459950Y258557D01*
X458487Y256505D01*
X457210Y254331D01*
X456130Y252052D01*
X455256Y249687D01*
X454595Y247254D01*
X454151Y244772D01*
X453928Y242261D01*
Y239739D01*
X454151Y237228D01*
X454595Y234746D01*
X455256Y232313D01*
X456130Y229948D01*
X457210Y227670D01*
X458487Y225495D01*
X459950Y223443D01*
X461590Y221527D01*
X463392Y219764D01*
X465344Y218167D01*
X467428Y216749D01*
X469630Y215521D01*
X471932Y214492D01*
X474316Y213671D01*
X476763Y213063D01*
X479254Y212674D01*
X481769Y212507D01*
X484290Y212563D01*
X486796Y212841D01*
X489268Y213340D01*
X491685Y214055D01*
X494030Y214981D01*
X496284Y216111D01*
X498430Y217435D01*
X500450Y218944D01*
X502328Y220626D01*
X504051Y222467D01*
X505604Y224453D01*
X506976Y226568D01*
X508155Y228797D01*
X509133Y231121D01*
X509902Y233522D01*
X510455Y235982D01*
X510788Y238481D01*
X510900Y241000D01*
X1089000Y40000D02*
X1088890Y42527D01*
X1088559Y45036D01*
X1088012Y47506D01*
X1087251Y49919D01*
X1086283Y52256D01*
X1085115Y54500D01*
X1083755Y56634D01*
X1082215Y58641D01*
X1080506Y60506D01*
X1078641Y62215D01*
X1076634Y63755D01*
X1074500Y65115D01*
X1072256Y66283D01*
X1069919Y67251D01*
X1067506Y68012D01*
X1065036Y68559D01*
X1062527Y68890D01*
X1060000Y69000D01*
X1057473Y68890D01*
X1054964Y68559D01*
X1052494Y68012D01*
X1050081Y67251D01*
X1047744Y66283D01*
X1045500Y65115D01*
X1043366Y63755D01*
X1041359Y62215D01*
X1039494Y60506D01*
X1037785Y58641D01*
X1036245Y56634D01*
X1034885Y54500D01*
X1033717Y52256D01*
X1032749Y49919D01*
X1031988Y47506D01*
X1031441Y45036D01*
X1031110Y42527D01*
X1031000Y40000D01*
X1031110Y37473D01*
X1031441Y34964D01*
X1031988Y32494D01*
X1032749Y30081D01*
X1033717Y27744D01*
X1034885Y25500D01*
X1036245Y23366D01*
X1037785Y21359D01*
X1039494Y19494D01*
X1041359Y17785D01*
X1043366Y16245D01*
X1045500Y14885D01*
X1047744Y13717D01*
X1050081Y12749D01*
X1052494Y11988D01*
X1054964Y11441D01*
X1057473Y11110D01*
X1060000Y11000D01*
X1062527Y11110D01*
X1065036Y11441D01*
X1067506Y11988D01*
X1069919Y12749D01*
X1072256Y13717D01*
X1074500Y14885D01*
X1076634Y16245D01*
X1078641Y17785D01*
X1080506Y19494D01*
X1082215Y21359D01*
X1083755Y23366D01*
X1085115Y25500D01*
X1086283Y27744D01*
X1087251Y30081D01*
X1088012Y32494D01*
X1088559Y34964D01*
X1088890Y37473D01*
X1089000Y40000D01*
X69000D02*
X68890Y42527D01*
X68559Y45036D01*
X68012Y47506D01*
X67251Y49919D01*
X66283Y52256D01*
X65115Y54500D01*
X63755Y56634D01*
X62215Y58641D01*
X60506Y60506D01*
X58641Y62215D01*
X56634Y63755D01*
X54500Y65115D01*
X52256Y66283D01*
X49919Y67251D01*
X47506Y68012D01*
X45036Y68559D01*
X42527Y68890D01*
X40000Y69000D01*
X37473Y68890D01*
X34964Y68559D01*
X32494Y68012D01*
X30081Y67251D01*
X27744Y66283D01*
X25500Y65115D01*
X23366Y63755D01*
X21359Y62215D01*
X19494Y60506D01*
X17785Y58641D01*
X16245Y56634D01*
X14885Y54500D01*
X13717Y52256D01*
X12749Y49919D01*
X11988Y47506D01*
X11441Y45036D01*
X11110Y42527D01*
X11000Y40000D01*
X11110Y37473D01*
X11441Y34964D01*
X11988Y32494D01*
X12749Y30081D01*
X13717Y27744D01*
X14885Y25500D01*
X16245Y23366D01*
X17785Y21359D01*
X19494Y19494D01*
X21359Y17785D01*
X23366Y16245D01*
X25500Y14885D01*
X27744Y13717D01*
X30081Y12749D01*
X32494Y11988D01*
X34964Y11441D01*
X37473Y11110D01*
X40000Y11000D01*
X42527Y11110D01*
X45036Y11441D01*
X47506Y11988D01*
X49919Y12749D01*
X52256Y13717D01*
X54500Y14885D01*
X56634Y16245D01*
X58641Y17785D01*
X60506Y19494D01*
X62215Y21359D01*
X63755Y23366D01*
X65115Y25500D01*
X66283Y27744D01*
X67251Y30081D01*
X68012Y32494D01*
X68559Y34964D01*
X68890Y37473D01*
X69000Y40000D01*
X209000Y560000D02*
X208890Y562528D01*
X208559Y565036D01*
X208012Y567506D01*
X207251Y569919D01*
X206283Y572256D01*
X205115Y574500D01*
X203755Y576634D01*
X202215Y578641D01*
X200506Y580506D01*
X198641Y582215D01*
X196634Y583755D01*
X194500Y585115D01*
X192256Y586283D01*
X189919Y587251D01*
X187506Y588012D01*
X185036Y588559D01*
X182528Y588890D01*
X180000Y589000D01*
X177472Y588890D01*
X174964Y588559D01*
X172494Y588012D01*
X170081Y587251D01*
X167744Y586283D01*
X165500Y585115D01*
X163366Y583755D01*
X161359Y582215D01*
X159494Y580506D01*
X157785Y578641D01*
X156245Y576634D01*
X154885Y574500D01*
X153717Y572256D01*
X152749Y569919D01*
X151988Y567506D01*
X151441Y565036D01*
X151110Y562528D01*
X151000Y560000D01*
X151110Y557472D01*
X151441Y554964D01*
X151988Y552494D01*
X152749Y550081D01*
X153717Y547744D01*
X154885Y545500D01*
X156245Y543366D01*
X157785Y541359D01*
X159494Y539494D01*
X161359Y537785D01*
X163366Y536245D01*
X165500Y534885D01*
X167744Y533717D01*
X170081Y532749D01*
X172494Y531988D01*
X174964Y531441D01*
X177472Y531110D01*
X180000Y531000D01*
X182528Y531110D01*
X185036Y531441D01*
X187506Y531988D01*
X189919Y532749D01*
X192256Y533717D01*
X194500Y534885D01*
X196634Y536245D01*
X198641Y537785D01*
X200506Y539494D01*
X202215Y541359D01*
X203755Y543366D01*
X205115Y545500D01*
X206283Y547744D01*
X207251Y550081D01*
X208012Y552494D01*
X208559Y554964D01*
X208890Y557472D01*
X209000Y560000D01*
X929000D02*
X928890Y562528D01*
X928559Y565036D01*
X928012Y567506D01*
X927251Y569919D01*
X926283Y572256D01*
X925115Y574500D01*
X923755Y576634D01*
X922215Y578641D01*
X920506Y580506D01*
X918641Y582215D01*
X916634Y583755D01*
X914500Y585115D01*
X912256Y586283D01*
X909919Y587251D01*
X907506Y588012D01*
X905036Y588559D01*
X902527Y588890D01*
X900000Y589000D01*
X897473Y588890D01*
X894964Y588559D01*
X892494Y588012D01*
X890081Y587251D01*
X887744Y586283D01*
X885500Y585115D01*
X883366Y583755D01*
X881359Y582215D01*
X879494Y580506D01*
X877785Y578641D01*
X876245Y576634D01*
X874885Y574500D01*
X873717Y572256D01*
X872749Y569919D01*
X871988Y567506D01*
X871441Y565036D01*
X871110Y562528D01*
X871000Y560000D01*
X871110Y557472D01*
X871441Y554964D01*
X871988Y552494D01*
X872749Y550081D01*
X873717Y547744D01*
X874885Y545500D01*
X876245Y543366D01*
X877785Y541359D01*
X879494Y539494D01*
X881359Y537785D01*
X883366Y536245D01*
X885500Y534885D01*
X887744Y533717D01*
X890081Y532749D01*
X892494Y531988D01*
X894964Y531441D01*
X897473Y531110D01*
X900000Y531000D01*
X902527Y531110D01*
X905036Y531441D01*
X907506Y531988D01*
X909919Y532749D01*
X912256Y533717D01*
X914500Y534885D01*
X916634Y536245D01*
X918641Y537785D01*
X920506Y539494D01*
X922215Y541359D01*
X923755Y543366D01*
X925115Y545500D01*
X926283Y547744D01*
X927251Y550081D01*
X928012Y552494D01*
X928559Y554964D01*
X928890Y557472D01*
X929000Y560000D01*
X30000Y580000D02*
X29686Y582487D01*
X28763Y584818D01*
X27290Y586846D01*
X25358Y588443D01*
X23090Y589511D01*
X20628Y589980D01*
X18126Y589823D01*
X15742Y589048D01*
X13626Y587705D01*
X11910Y585878D01*
X10702Y583681D01*
X10079Y581253D01*
Y578747D01*
X10702Y576319D01*
X11910Y574122D01*
X13626Y572295D01*
X15742Y570952D01*
X18126Y570177D01*
X20628Y570020D01*
X23090Y570489D01*
X25358Y571557D01*
X27290Y573154D01*
X28763Y575182D01*
X29686Y577513D01*
X30000Y580000D01*
X1090000Y580000D02*
X1089686Y582487D01*
X1088763Y584818D01*
X1087290Y586846D01*
X1085358Y588443D01*
X1083090Y589511D01*
X1080628Y589980D01*
X1078126Y589823D01*
X1075742Y589048D01*
X1073626Y587705D01*
X1071910Y585878D01*
X1070702Y583681D01*
X1070079Y581253D01*
Y578747D01*
X1070702Y576319D01*
X1071910Y574122D01*
X1073626Y572295D01*
X1075742Y570952D01*
X1078126Y570177D01*
X1080628Y570020D01*
X1083090Y570489D01*
X1085358Y571557D01*
X1087290Y573154D01*
X1088763Y575182D01*
X1089686Y577513D01*
X1090000Y580000D01*
X85946Y14224D02*
X85632Y16711D01*
X84709Y19042D01*
X83236Y21070D01*
X81304Y22667D01*
X79036Y23735D01*
X76574Y24204D01*
X74072Y24047D01*
X71688Y23272D01*
X69572Y21929D01*
X67856Y20102D01*
X66648Y17905D01*
X66025Y15477D01*
Y12971D01*
X66648Y10543D01*
X67856Y8346D01*
X69572Y6519D01*
X71688Y5176D01*
X74072Y4401D01*
X76574Y4244D01*
X79036Y4713D01*
X81304Y5781D01*
X83236Y7379D01*
X84709Y9406D01*
X85632Y11737D01*
X85946Y14224D01*
X854550Y362458D02*
X854236Y364945D01*
X853313Y367276D01*
X851840Y369304D01*
X849908Y370901D01*
X847640Y371969D01*
X845178Y372438D01*
X842676Y372281D01*
X840292Y371506D01*
X838176Y370163D01*
X836460Y368336D01*
X835252Y366139D01*
X834629Y363711D01*
Y361205D01*
X835252Y358777D01*
X836460Y356580D01*
X838176Y354753D01*
X840292Y353410D01*
X842676Y352635D01*
X845178Y352478D01*
X847640Y352947D01*
X849908Y354015D01*
X851840Y355612D01*
X853313Y357640D01*
X854236Y359971D01*
X854550Y362458D01*
X859837Y346056D02*
X859523Y348543D01*
X858601Y350873D01*
X857127Y352901D01*
X855196Y354499D01*
X852928Y355566D01*
X850465Y356036D01*
X847964Y355879D01*
X845580Y355104D01*
X843463Y353761D01*
X841747Y351934D01*
X840540Y349737D01*
X839916Y347309D01*
Y344802D01*
X840540Y342374D01*
X841747Y340178D01*
X843463Y338351D01*
X845580Y337007D01*
X847964Y336233D01*
X850465Y336076D01*
X852928Y336545D01*
X855196Y337612D01*
X857127Y339210D01*
X858601Y341238D01*
X859523Y343569D01*
X859837Y346056D01*
X36052Y157734D02*
X41552D01*
X38802Y154984D02*
Y160484D01*
X33802Y167234D02*
X43802D01*
X33802Y148234D02*
X43802D01*
Y167234D01*
X33802Y148234D02*
Y167234D01*
X33694Y145980D02*
Y168980D01*
X22694Y145980D02*
Y168980D01*
X33694D01*
X22694Y145980D02*
X33694D01*
X28194Y152980D02*
Y161980D01*
X23694Y157480D02*
X32694D01*
X626952Y353060D02*
X636952D01*
X631952Y348060D02*
Y358060D01*
X626444Y337566D02*
X636444D01*
X631444Y332566D02*
Y342566D01*
X309198Y475394D02*
Y495394D01*
Y475394D02*
X319198D01*
X314198Y482894D02*
Y487894D01*
X311698Y485394D02*
X316698D01*
X319198Y475394D02*
Y495394D01*
X309198D02*
X319198D01*
X137738Y302580D02*
Y312580D01*
X132738Y307580D02*
X142738D01*
X595122Y358728D02*
Y368728D01*
X590122Y363728D02*
X600122D01*
X808791Y209372D02*
X818791D01*
X813791Y204372D02*
Y214372D01*
X794313Y209372D02*
X804313D01*
X799313Y204372D02*
Y214372D01*
X778057Y209372D02*
X788057D01*
X783057Y204372D02*
Y214372D01*
X763833Y209372D02*
X773833D01*
X768833Y204372D02*
Y214372D01*
X826012Y367487D02*
X836012D01*
X831012Y362487D02*
Y372487D01*
X805637Y362487D02*
Y372487D01*
X800637Y367487D02*
X810637D01*
X792810Y362487D02*
Y372487D01*
X787810Y367487D02*
X797810D01*
X178428Y171436D02*
Y201436D01*
X193428Y171436D02*
Y201436D01*
X178428Y171436D02*
X193428D01*
X178428Y201436D02*
X193428D01*
X185928Y181686D02*
Y191186D01*
X181178Y186436D02*
X190678D01*
X213480Y168006D02*
Y198006D01*
X228480Y168006D02*
Y198006D01*
X213480Y168006D02*
X228480D01*
X213480Y198006D02*
X228480D01*
X220980Y178256D02*
Y187756D01*
X216230Y183006D02*
X225730D01*
X682828Y510286D02*
X692328D01*
X687578Y505536D02*
Y515036D01*
X680078Y495286D02*
X695078D01*
X680078Y525286D02*
X695078D01*
X680078Y495286D02*
Y525286D01*
X695078Y495286D02*
Y525286D01*
X647700Y487248D02*
Y496748D01*
X642950Y491998D02*
X652450D01*
X662700Y484498D02*
Y499498D01*
X632700Y484498D02*
Y499498D01*
Y484498D02*
X662700D01*
X632700Y499498D02*
X662700D01*
X665378Y493696D02*
X684378D01*
X665378Y483696D02*
X684378D01*
X665378D02*
Y493696D01*
X684378Y483696D02*
Y493696D01*
X672128Y488696D02*
X677628D01*
X674878Y485946D02*
Y491446D01*
X663448Y471500D02*
Y481000D01*
X658698Y476250D02*
X668198D01*
X678448Y468750D02*
Y483750D01*
X648448Y468750D02*
Y483750D01*
Y468750D02*
X678448D01*
X648448Y483750D02*
X678448D01*
X653186Y455248D02*
X672186D01*
X653186Y465248D02*
X672186D01*
Y455248D02*
Y465248D01*
X653186Y455248D02*
Y465248D01*
X659936Y460248D02*
X665436D01*
X662686Y457498D02*
Y462998D01*
X35784Y253537D02*
Y259037D01*
X33034Y256287D02*
X38534D01*
X26284Y251287D02*
Y261287D01*
X45284Y251287D02*
Y261287D01*
X26284D02*
X45284D01*
X26284Y251287D02*
X45284D01*
X289000Y77500D02*
Y96500D01*
X299000Y77500D02*
Y96500D01*
X289000Y77500D02*
X299000D01*
X289000Y96500D02*
X299000D01*
X294000Y84250D02*
Y89750D01*
X291250Y87000D02*
X296750D01*
X395000Y96000D02*
X412000D01*
X395000Y79000D02*
Y96000D01*
X378000D02*
X395000D01*
Y113000D01*
X305000Y-12000D02*
Y204000D01*
Y-12000D02*
X485000D01*
Y204000D01*
X305000D02*
X485000D01*
X526000Y183332D02*
Y193332D01*
X521000Y188332D02*
X531000D01*
X552400Y175282D02*
Y201382D01*
X499600Y175282D02*
X552400D01*
X499600D02*
Y201382D01*
X552400D01*
X288500Y49500D02*
Y72500D01*
X299500Y49500D02*
Y72500D01*
X288500Y49500D02*
X299500D01*
X288500Y72500D02*
X299500D01*
X294000Y56500D02*
Y65500D01*
X289500Y61000D02*
X298500D01*
X576800Y183332D02*
Y193332D01*
X571800Y188332D02*
X581800D01*
X550400Y175282D02*
Y201382D01*
X603200D01*
Y175282D02*
Y201382D01*
X550400Y175282D02*
X603200D01*
X610632Y401512D02*
X650682D01*
X610632D02*
Y425512D01*
X630682Y408512D02*
Y418512D01*
X625682Y413512D02*
X635682D01*
X650682Y401512D02*
Y425512D01*
X610632D02*
X650682D01*
X661986Y199492D02*
Y239542D01*
X637986Y199492D02*
X661986D01*
X649986Y214492D02*
Y224492D01*
X644986Y219492D02*
X654986D01*
X637986Y239542D02*
X661986D01*
X637986Y199492D02*
Y239542D01*
X744812Y199492D02*
Y239542D01*
X720812Y199492D02*
X744812D01*
X732812Y214492D02*
Y224492D01*
X727812Y219492D02*
X737812D01*
X720812Y239542D02*
X744812D01*
X720812Y199492D02*
Y239542D01*
X678372Y199710D02*
Y239760D01*
X702372D01*
X685372Y219710D02*
X695372D01*
X690372Y214710D02*
Y224710D01*
X678372Y199710D02*
X702372D01*
Y239760D01*
X670800Y260470D02*
X700800D01*
X670800Y275470D02*
X700800D01*
Y260470D02*
Y275470D01*
X670800Y260470D02*
Y275470D01*
X681050Y267970D02*
X690550D01*
X685800Y263220D02*
Y272720D01*
X654798Y275470D02*
X684798D01*
X654798Y260470D02*
X684798D01*
X654798D02*
Y275470D01*
X684798Y260470D02*
Y275470D01*
X665048Y267970D02*
X674548D01*
X669798Y263220D02*
Y272720D01*
X280464Y247396D02*
X286464D01*
X283464Y244396D02*
Y250396D01*
X272964Y253396D02*
X293964D01*
X272964Y241396D02*
X293964D01*
X272964D02*
Y253396D01*
X293964Y241396D02*
Y253396D01*
X722804Y315874D02*
Y334874D01*
X712804Y315874D02*
Y334874D01*
X722804D01*
X712804Y315874D02*
X722804D01*
X717804Y322624D02*
Y328124D01*
X715054Y325374D02*
X720554D01*
X695532Y301650D02*
Y320650D01*
X705532Y301650D02*
Y320650D01*
X695532Y301650D02*
X705532D01*
X695532Y320650D02*
X705532D01*
X700532Y308400D02*
Y313900D01*
X697782Y311150D02*
X703282D01*
X663000Y-11000D02*
X881000D01*
X772000Y84000D02*
Y94000D01*
X762000Y84000D02*
X772000D01*
X772000Y74000D02*
Y84000D01*
X772000D02*
X782000D01*
X663000Y73000D02*
X693000Y103000D01*
X663000Y-11000D02*
Y73000D01*
X693000Y103000D02*
X851000D01*
X881000Y73000D01*
Y-11000D02*
Y73000D01*
X39160Y123444D02*
X44660D01*
X41910Y120694D02*
Y126194D01*
X36910Y132944D02*
X46910D01*
X36910Y113944D02*
X46910D01*
Y132944D01*
X36910Y113944D02*
Y132944D01*
X33440Y110420D02*
Y133420D01*
X22440Y110420D02*
Y133420D01*
X33440D01*
X22440Y110420D02*
X33440D01*
X27940Y117420D02*
Y126420D01*
X23440Y121920D02*
X32440D01*
X170000Y71250D02*
Y82750D01*
Y93750D01*
Y82750D02*
X182000D01*
X158500D02*
X170000D01*
X83500Y23500D02*
Y90500D01*
X122500D02*
Y136500D01*
X157500D02*
Y171500D01*
X195500Y136500D02*
Y171500D01*
X217500Y91000D02*
Y136500D01*
X257000Y23000D02*
Y91000D01*
X122500Y-13500D02*
Y23500D01*
X217500Y-13500D02*
Y23000D01*
X122500Y-13500D02*
X217500D01*
X157500Y171500D02*
X195500D01*
X83500Y90500D02*
X122500D01*
X83500Y23500D02*
X122500D01*
Y136500D02*
X157500D01*
X195500D02*
X217500D01*
Y91000D02*
X257000D01*
X217500Y23000D02*
X257000D01*
X495500Y-9750D02*
X661500D01*
X495500D02*
Y121000D01*
X502500D01*
X661500D01*
Y-9750D02*
Y121000D01*
X578500Y53000D02*
Y69000D01*
X594500D01*
X578634D02*
Y85000D01*
X562500Y69000D02*
X578500D01*
X962000Y62900D02*
Y72900D01*
X957000Y67900D02*
X967000D01*
X879000Y-20100D02*
X879050D01*
X1044950D02*
X1045000D01*
X1044950D02*
X1045000D01*
X879050Y142500D02*
Y159750D01*
X1044950Y142500D02*
Y159750D01*
X879050Y-20100D02*
Y85700D01*
X1044950Y-20100D02*
Y85700D01*
X879050D02*
Y142500D01*
X1044950Y85700D02*
Y142500D01*
X879050Y159750D02*
X896300D01*
X1027700D02*
X1044950D01*
X879000Y-20100D02*
X1044950D01*
X896300Y159750D02*
X1027700D01*
X146892Y149504D02*
Y168504D01*
X156892Y149504D02*
Y168504D01*
X146892Y149504D02*
X156892D01*
X146892Y168504D02*
X156892D01*
X151892Y156254D02*
Y161754D01*
X149142Y159004D02*
X154642D01*
X85350Y191683D02*
X104350D01*
X85350Y201683D02*
X104350D01*
Y191683D02*
Y201683D01*
X85350Y191683D02*
Y201683D01*
X92100Y196683D02*
X97600D01*
X94850Y193933D02*
Y199433D01*
X190500Y226000D02*
X209500D01*
X190500Y236000D02*
X209500D01*
Y226000D02*
Y236000D01*
X190500Y226000D02*
Y236000D01*
X197250Y231000D02*
X202750D01*
X200000Y228250D02*
Y233750D01*
X59869Y224500D02*
Y243500D01*
X69869Y224500D02*
Y243500D01*
X59869Y224500D02*
X69869D01*
X59869Y243500D02*
X69869D01*
X64869Y231250D02*
Y236750D01*
X62119Y234000D02*
X67619D01*
X626952Y371500D02*
Y390500D01*
X636952Y371500D02*
Y390500D01*
X626952Y371500D02*
X636952D01*
X626952Y390500D02*
X636952D01*
X631952Y378250D02*
Y383750D01*
X629202Y381000D02*
X634702D01*
X124000Y268500D02*
Y287500D01*
X134000Y268500D02*
Y287500D01*
X124000Y268500D02*
X134000D01*
X124000Y287500D02*
X134000D01*
X129000Y275250D02*
Y280750D01*
X126250Y278000D02*
X131750D01*
X943084Y253649D02*
X962084D01*
X943084Y263649D02*
X962084D01*
Y253649D02*
Y263649D01*
X943084Y253649D02*
Y263649D01*
X949834Y258649D02*
X955334D01*
X952584Y255899D02*
Y261399D01*
X724399Y302056D02*
Y321056D01*
X734399Y302056D02*
Y321056D01*
X724399Y302056D02*
X734399D01*
X724399Y321056D02*
X734399D01*
X729399Y308806D02*
Y314306D01*
X726649Y311556D02*
X732149D01*
X857838Y321172D02*
Y340173D01*
X847838Y321172D02*
Y340173D01*
X857838D01*
X847838Y321172D02*
X857838D01*
X852838Y327923D02*
Y333423D01*
X850088Y330672D02*
X855587D01*
X26314Y261446D02*
X45314D01*
X26314Y271446D02*
X45314D01*
Y261446D02*
Y271446D01*
X26314Y261446D02*
Y271446D01*
X33064Y266446D02*
X38564D01*
X35814Y263696D02*
Y269196D01*
X1047500Y342000D02*
Y578000D01*
Y342000D02*
X1058000D01*
X952500Y578000D02*
X1048000D01*
X1058000Y288000D02*
Y342000D01*
X942000Y288000D02*
X1058000D01*
X942000D02*
Y342000D01*
X952500D01*
Y578000D01*
X1000000Y315000D02*
Y331391D01*
X983609Y315000D02*
X1000000D01*
Y298609D02*
Y315000D01*
X1016391D01*
X990000Y530000D02*
X1010000D01*
X1000000Y520000D02*
Y540000D01*
X100000Y520000D02*
Y540000D01*
X90000Y530000D02*
X110000D01*
X100000Y315000D02*
X116391D01*
X100000Y298609D02*
Y315000D01*
X83609D02*
X100000D01*
Y331391D01*
X52500Y342000D02*
Y578000D01*
X42000Y342000D02*
X52500D01*
X42000Y288000D02*
Y342000D01*
Y288000D02*
X158000D01*
Y342000D01*
X52500Y578000D02*
X148000D01*
X147500Y342000D02*
X158000D01*
X147500D02*
Y578000D01*
X1094607Y235826D02*
Y275876D01*
X1070607Y235826D02*
X1094607D01*
X1082607Y250826D02*
Y260826D01*
X1077607Y255826D02*
X1087607D01*
X1070607Y275876D02*
X1094607D01*
X1070607Y235826D02*
Y275876D01*
X748000Y582000D02*
X852000D01*
X748000Y570000D02*
Y582000D01*
Y477000D02*
Y570000D01*
Y477000D02*
X770000D01*
X829100D02*
X852000D01*
Y582000D01*
X859000Y218000D02*
Y250000D01*
X831000Y218000D02*
Y250000D01*
X844890Y234001D02*
X853590D01*
X844890D02*
Y242701D01*
X836190Y234001D02*
X844890D01*
Y225301D02*
Y234001D01*
X831000Y218000D02*
X859000D01*
X831000Y250000D02*
X859000D01*
X271122Y464092D02*
Y506092D01*
X307122Y464092D02*
Y506092D01*
X271122Y464092D02*
X307122D01*
X271122Y506092D02*
X307122D01*
X289122Y480092D02*
Y490092D01*
X284122Y485092D02*
X294122D01*
X835000Y264556D02*
Y362556D01*
X737000Y264556D02*
Y362556D01*
Y264556D02*
X835000D01*
X737000Y362556D02*
X835000D01*
X781000Y313556D02*
X791000D01*
X786000Y308556D02*
Y318556D01*
X197578Y445724D02*
Y471724D01*
X161578Y445724D02*
Y471724D01*
X179579Y458723D02*
X187078D01*
X179579D02*
Y466222D01*
X172080Y458723D02*
X179579D01*
Y451224D02*
Y458723D01*
X161578Y445724D02*
X197578D01*
X161578Y471724D02*
X197578D01*
X166553Y169121D02*
Y231121D01*
X104553Y169121D02*
Y231121D01*
X135553Y195121D02*
Y205121D01*
X130553Y200121D02*
X140553D01*
X104553Y231121D02*
X166553D01*
X104553Y169121D02*
X166553D01*
X202658Y486364D02*
Y512364D01*
X166658Y486364D02*
Y512364D01*
X184659Y499363D02*
X192158D01*
X184659D02*
Y506862D01*
X177160Y499363D02*
X184659D01*
Y491864D02*
Y499363D01*
X166658Y486364D02*
X202658D01*
X166658Y512364D02*
X202658D01*
X950000Y239000D02*
Y249000D01*
X945000Y244000D02*
X955000D01*
X971215Y235950D02*
Y265950D01*
X986215Y235950D02*
Y265950D01*
X971215Y235950D02*
X986215D01*
X971215Y265950D02*
X986215D01*
X978715Y246200D02*
Y255700D01*
X973965Y250950D02*
X983465D01*
X971215Y251950D02*
Y281950D01*
X986215Y251950D02*
Y281950D01*
X971215Y251950D02*
X986215D01*
X971215Y281950D02*
X986215D01*
X978715Y262200D02*
Y271700D01*
X973965Y266950D02*
X983465D01*
X971715Y235450D02*
X1001715D01*
X971715Y250450D02*
X1001715D01*
Y235450D02*
Y250450D01*
X971715Y235450D02*
Y250450D01*
X981965Y242950D02*
X991465D01*
X986715Y238200D02*
Y247700D01*
X971715Y251450D02*
X1001715D01*
X971715Y266450D02*
X1001715D01*
Y251450D02*
Y266450D01*
X971715Y251450D02*
Y266450D01*
X981965Y258950D02*
X991465D01*
X986715Y254200D02*
Y263700D01*
X971715Y267450D02*
X1001715D01*
X971715Y282450D02*
X1001715D01*
Y267450D02*
Y282450D01*
X971715Y267450D02*
Y282450D01*
X981965Y274950D02*
X991465D01*
X986715Y270200D02*
Y279700D01*
X987215Y235950D02*
Y265950D01*
X1002215Y235950D02*
Y265950D01*
X987215Y235950D02*
X1002215D01*
X987215Y265950D02*
X1002215D01*
X994715Y246200D02*
Y255700D01*
X989965Y250950D02*
X999465D01*
X987215Y251950D02*
Y281950D01*
X1002215Y251950D02*
Y281950D01*
X987215Y251950D02*
X1002215D01*
X987215Y281950D02*
X1002215D01*
X994715Y262200D02*
Y271700D01*
X989965Y266950D02*
X999465D01*
X911900Y226489D02*
Y231989D01*
X909150Y229239D02*
X914650D01*
X902400Y224239D02*
Y234239D01*
X921400Y224239D02*
Y234239D01*
X902400D02*
X921400D01*
X902400Y224239D02*
X921400D01*
X812291Y244717D02*
X817791D01*
X815041Y241967D02*
Y247467D01*
X810041Y254217D02*
X820041D01*
X810041Y235217D02*
X820041D01*
Y254217D01*
X810041Y235217D02*
Y254217D01*
X1020562Y164845D02*
Y170345D01*
X1017812Y167595D02*
X1023312D01*
X1011062Y162595D02*
Y172595D01*
X1030062Y162595D02*
Y172595D01*
X1011062D02*
X1030062D01*
X1011062Y162595D02*
X1030062D01*
X1009250Y203068D02*
X1014750D01*
X1012000Y200318D02*
Y205818D01*
X1007000Y212568D02*
X1017000D01*
X1007000Y193568D02*
X1017000D01*
Y212568D01*
X1007000Y193568D02*
Y212568D01*
X1038250Y203000D02*
X1043750D01*
X1041000Y200250D02*
Y205750D01*
X1036000Y212500D02*
X1046000D01*
X1036000Y193500D02*
X1046000D01*
Y212500D01*
X1036000Y193500D02*
Y212500D01*
X746385Y252987D02*
X751885D01*
X749135Y250236D02*
Y255737D01*
X744135Y243486D02*
X754135D01*
X744135Y262486D02*
X754135D01*
X744135Y243486D02*
Y262486D01*
X754135Y243486D02*
Y262486D01*
X836260Y256070D02*
Y261570D01*
X833510Y258820D02*
X839010D01*
X845760Y253820D02*
Y263820D01*
X826760Y253820D02*
Y263820D01*
Y253820D02*
X845760D01*
X826760Y263820D02*
X845760D01*
X38250Y89500D02*
X43750D01*
X41000Y86750D02*
Y92250D01*
X36000Y80000D02*
X46000D01*
X36000Y99000D02*
X46000D01*
X36000Y80000D02*
Y99000D01*
X46000Y80000D02*
Y99000D01*
X197224Y168006D02*
Y198006D01*
X212224Y168006D02*
Y198006D01*
X197224Y168006D02*
X212224D01*
X197224Y198006D02*
X212224D01*
X204724Y178256D02*
Y187756D01*
X199974Y183006D02*
X209474D01*
X277122Y506592D02*
X307122D01*
X277122Y521592D02*
X307122D01*
Y506592D02*
Y521592D01*
X277122Y506592D02*
Y521592D01*
X287372Y514092D02*
X296872D01*
X292122Y509342D02*
Y518842D01*
X277122Y448592D02*
X307122D01*
X277122Y463592D02*
X307122D01*
Y448592D02*
Y463592D01*
X277122Y448592D02*
Y463592D01*
X287372Y456092D02*
X296872D01*
X292122Y451342D02*
Y460842D01*
X94689Y183933D02*
Y189433D01*
X91939Y186683D02*
X97439D01*
X85189Y181683D02*
Y191683D01*
X104189Y181683D02*
Y191683D01*
X85189D02*
X104189D01*
X85189Y181683D02*
X104189D01*
X180383Y214871D02*
Y220371D01*
X177633Y217621D02*
X183134D01*
X189883Y212621D02*
Y222621D01*
X170884Y212621D02*
Y222621D01*
Y212621D02*
X189883D01*
X170884Y222621D02*
X189883D01*
X72300Y225900D02*
X77800D01*
X75050Y223150D02*
Y228650D01*
X70050Y235400D02*
X80050D01*
X70050Y216400D02*
X80050D01*
Y235400D01*
X70050Y216400D02*
Y235400D01*
X72797Y201641D02*
Y207141D01*
X70047Y204391D02*
X75546D01*
X63296Y199391D02*
Y209391D01*
X82296Y199391D02*
Y209391D01*
X63296D02*
X82296D01*
X63296Y199391D02*
X82296D01*
X68845Y258377D02*
Y263877D01*
X66095Y261127D02*
X71595D01*
X59345Y256127D02*
Y266127D01*
X78345Y256127D02*
Y266127D01*
X59345D02*
X78345D01*
X59345Y256127D02*
X78345D01*
X176216Y204218D02*
Y209718D01*
X173466Y206968D02*
X178966D01*
X185716Y201968D02*
Y211968D01*
X166716Y201968D02*
Y211968D01*
Y201968D02*
X185716D01*
X166716Y211968D02*
X185716D01*
X62369Y181462D02*
X67869D01*
X65119Y178712D02*
Y184212D01*
X60119Y190962D02*
X70119D01*
X60119Y171962D02*
X70119D01*
Y190962D01*
X60119Y171962D02*
Y190962D01*
X478865Y486536D02*
X485936Y479464D01*
X478865D02*
X485936Y486536D01*
X236864Y244536D02*
X243936Y237465D01*
X236864D02*
X243936Y244536D01*
X236864Y486536D02*
X243936Y479464D01*
X236864D02*
X243936Y486536D01*
X478865Y244536D02*
X485936Y237465D01*
X478865D02*
X485936Y244536D01*
X21164Y283139D02*
X31164D01*
X26164Y278139D02*
Y288139D01*
X15514Y273639D02*
X36814D01*
Y292639D01*
X15514D02*
X36814D01*
X15514Y273639D02*
Y292639D01*
X720166Y265050D02*
X729666D01*
X724916Y260300D02*
Y269800D01*
X717416Y280050D02*
X732416D01*
X717416Y250050D02*
X732416D01*
Y280050D01*
X717416Y250050D02*
Y280050D01*
X87026Y253427D02*
X97026D01*
X92026Y248427D02*
Y258427D01*
X104026Y237927D02*
Y268927D01*
X80026Y237927D02*
Y268927D01*
X104026D01*
X80026Y237927D02*
X104026D01*
X175711Y243540D02*
Y253540D01*
X170711Y248540D02*
X180711D01*
X160211Y236540D02*
X191211D01*
X160211Y260540D02*
X191211D01*
Y236540D02*
Y260540D01*
X160211Y236540D02*
Y260540D01*
X83724Y148987D02*
X93724D01*
X88724Y143987D02*
Y153987D01*
X76724Y133487D02*
Y164487D01*
X100724Y133487D02*
Y164487D01*
X76724Y133487D02*
X100724D01*
X76724Y164487D02*
X100724D01*
X859000Y343500D02*
Y393500D01*
X923000Y343500D02*
Y393500D01*
X891000Y368500D02*
X901243D01*
X891000D02*
Y378743D01*
Y358257D02*
Y368500D01*
X880757D02*
X891000D01*
X859000Y343500D02*
X923000D01*
X859000Y393500D02*
X923000D01*
X217480Y525570D02*
Y581870D01*
Y525570D02*
X732480D01*
Y581870D01*
X217480D02*
X732480D01*
X474980Y548720D02*
Y558720D01*
X469980Y553720D02*
X479980D01*
X562400Y357000D02*
Y367000D01*
X557400Y362000D02*
X567400D01*
X584900Y247000D02*
Y477000D01*
X539900Y247000D02*
Y477000D01*
Y247000D02*
X584900D01*
X539900Y477000D02*
X584900D01*
X20000Y575000D02*
Y585000D01*
X15000Y580000D02*
X25000D01*
X1080000Y575000D02*
Y585000D01*
X1075000Y580000D02*
X1085000D01*
X75946Y9224D02*
Y19224D01*
X70946Y14224D02*
X80946D01*
X993500Y207000D02*
X1002500D01*
X998000Y202500D02*
Y211500D01*
X992500Y195500D02*
X1003500D01*
X992500Y218500D02*
X1003500D01*
X992500Y195500D02*
Y218500D01*
X1003500Y195500D02*
Y218500D01*
X1022500Y207000D02*
X1031500D01*
X1027000Y202500D02*
Y211500D01*
X1021500Y195500D02*
X1032500D01*
X1021500Y218500D02*
X1032500D01*
X1021500Y195500D02*
Y218500D01*
X1032500Y195500D02*
Y218500D01*
X23500Y86000D02*
X32500D01*
X28000Y81500D02*
Y90500D01*
X22500Y74500D02*
X33500D01*
X22500Y97500D02*
X33500D01*
X22500Y74500D02*
Y97500D01*
X33500Y74500D02*
Y97500D01*
X131184Y138670D02*
Y168670D01*
X146184Y138670D02*
Y168670D01*
X131184Y138670D02*
X146184D01*
X131184Y168670D02*
X146184D01*
X138684Y148920D02*
Y158420D01*
X133934Y153670D02*
X143434D01*
X101500Y149500D02*
X131500D01*
X101500Y134500D02*
X131500D01*
X101500D02*
Y149500D01*
X131500Y134500D02*
Y149500D01*
X111750Y142000D02*
X121250D01*
X116500Y137250D02*
Y146750D01*
X822000Y222700D02*
X828000D01*
X822000Y234700D02*
X828000D01*
X822000Y222700D02*
Y234700D01*
X828000Y222700D02*
Y234700D01*
X825000Y227050D02*
Y230350D01*
X823350Y228700D02*
X826650D01*
X822000Y251300D02*
X828000D01*
X822000Y239300D02*
X828000D01*
Y251300D01*
X822000Y239300D02*
Y251300D01*
X825000Y243650D02*
Y246950D01*
X823350Y245300D02*
X826650D01*
X864317Y327620D02*
Y333620D01*
X861317Y330620D02*
X867317D01*
X870317Y320120D02*
Y341120D01*
X858317Y320120D02*
Y341120D01*
X870317D01*
X858317Y320120D02*
X870317D01*
X901123Y169553D02*
X907122D01*
X904122Y166553D02*
Y172553D01*
X893623Y175553D02*
X914622D01*
X893623Y163553D02*
X914622D01*
X893623D02*
Y175553D01*
X914622Y163553D02*
Y175553D01*
X730500Y288056D02*
Y294056D01*
X727501Y291056D02*
X733501D01*
X724501Y280556D02*
Y301556D01*
X736500Y280556D02*
Y301556D01*
X724501Y280556D02*
X736500D01*
X724501Y301556D02*
X736500D01*
X70850Y192175D02*
X82850D01*
X70850Y171175D02*
X82850D01*
Y192175D01*
X70850Y171175D02*
Y192175D01*
X73850Y181683D02*
X79850D01*
X76850Y178683D02*
Y184683D01*
X190000Y224492D02*
X202000D01*
X190000Y203492D02*
X202000D01*
Y224492D01*
X190000Y203492D02*
Y224492D01*
X193000Y214000D02*
X199000D01*
X196000Y211000D02*
Y217000D01*
X77942Y244000D02*
Y256000D01*
X56942Y244000D02*
Y256000D01*
Y244000D02*
X77942D01*
X56942Y256000D02*
X77942D01*
X67450Y247000D02*
Y253000D01*
X64450Y250000D02*
X70450D01*
X731000Y344000D02*
Y350000D01*
X728000Y347000D02*
X734000D01*
X725000Y336500D02*
Y357500D01*
X737000Y336500D02*
Y357500D01*
X725000Y336500D02*
X737000D01*
X725000Y357500D02*
X737000D01*
X47950Y281077D02*
X77950D01*
X47950Y266077D02*
X77950D01*
X47950D02*
Y281077D01*
X77950Y266077D02*
Y281077D01*
X58200Y273577D02*
X67700D01*
X62950Y268827D02*
Y278327D01*
X121500Y248000D02*
Y278000D01*
X106500Y248000D02*
Y278000D01*
X121500D01*
X106500Y248000D02*
X121500D01*
X114000Y258250D02*
Y267750D01*
X109250Y263000D02*
X118750D01*
X89026Y228150D02*
X95026D01*
X92026Y225150D02*
Y231150D01*
X81526Y234150D02*
X102526D01*
X81526Y222150D02*
X102526D01*
X81526D02*
Y234150D01*
X102526Y222150D02*
Y234150D01*
X161278Y278040D02*
X191278D01*
X161278Y263040D02*
X191278D01*
X161278D02*
Y278040D01*
X191278Y263040D02*
Y278040D01*
X171528Y270540D02*
X181028D01*
X176278Y265790D02*
Y275290D01*
X193277Y289040D02*
X223278D01*
X193277Y304040D02*
X223278D01*
Y289040D02*
Y304040D01*
X193277Y289040D02*
Y304040D01*
X203528Y296540D02*
X213028D01*
X208278Y291790D02*
Y301290D01*
X193277Y273040D02*
X223278D01*
X193277Y288040D02*
X223278D01*
Y273040D02*
Y288040D01*
X193277Y273040D02*
Y288040D01*
X203528Y280540D02*
X213028D01*
X208278Y275790D02*
Y285290D01*
X161278Y294040D02*
X191278D01*
X161278Y279040D02*
X191278D01*
X161278D02*
Y294040D01*
X191278Y279040D02*
Y294040D01*
X171528Y286540D02*
X181028D01*
X176278Y281790D02*
Y291290D01*
X103643Y209968D02*
Y221968D01*
X82643Y209968D02*
Y221968D01*
Y209968D02*
X103643D01*
X82643Y221968D02*
X103643D01*
X93152Y212968D02*
Y218968D01*
X90152Y215968D02*
X96152D01*
X176000Y230000D02*
X182000D01*
X179000Y227000D02*
Y233000D01*
X168500Y236000D02*
X189500D01*
X168500Y224000D02*
X189500D01*
X168500D02*
Y236000D01*
X189500Y224000D02*
Y236000D01*
X53960Y100718D02*
X83960D01*
X53960Y85718D02*
X83960D01*
X53960D02*
Y100718D01*
X83960Y85718D02*
Y100718D01*
X64210Y93218D02*
X73710D01*
X68960Y88468D02*
Y97968D01*
X85838Y116452D02*
X115838D01*
X85838Y131452D02*
X115838D01*
Y116452D02*
Y131452D01*
X85838Y116452D02*
Y131452D01*
X96088Y123952D02*
X105588D01*
X100838Y119202D02*
Y128702D01*
X55850Y130813D02*
X85850D01*
X55850Y115813D02*
X85850D01*
X55850D02*
Y130813D01*
X85850Y115813D02*
Y130813D01*
X66100Y123313D02*
X75600D01*
X70850Y118563D02*
Y128063D01*
X55850Y115813D02*
X85850D01*
X55850Y100813D02*
X85850D01*
X55850D02*
Y115813D01*
X85850Y100813D02*
Y115813D01*
X66100Y108313D02*
X75600D01*
X70850Y103563D02*
Y113063D01*
X75515Y131500D02*
Y161500D01*
X60515Y131500D02*
Y161500D01*
X75515D01*
X60515Y131500D02*
X75515D01*
X68015Y141750D02*
Y151250D01*
X63265Y146500D02*
X72765D01*
X941458Y310374D02*
Y340374D01*
X926458Y310374D02*
Y340374D01*
X941458D01*
X926458Y310374D02*
X941458D01*
X933958Y320624D02*
Y330124D01*
X929208Y325374D02*
X938708D01*
X936592Y349656D02*
X942592D01*
X939592Y346656D02*
Y352656D01*
X929092Y343656D02*
X950092D01*
X929092Y355656D02*
X950092D01*
Y343656D02*
Y355656D01*
X929092Y343656D02*
Y355656D01*
X48000Y85500D02*
X78000D01*
X48000Y70500D02*
X78000D01*
X48000D02*
Y85500D01*
X78000Y70500D02*
Y85500D01*
X58250Y78000D02*
X67750D01*
X63000Y73250D02*
Y82750D01*
X90358Y172968D02*
X96358D01*
X93358Y169968D02*
Y175968D01*
X82858Y178968D02*
X103858D01*
X82858Y166968D02*
X103858D01*
X82858D02*
Y178968D01*
X103858Y166968D02*
Y178968D01*
X140553Y231900D02*
Y261900D01*
X155553Y231900D02*
Y261900D01*
X140553Y231900D02*
X155553D01*
X140553Y261900D02*
X155553D01*
X148053Y242150D02*
Y251650D01*
X143303Y246900D02*
X152803D01*
X181342Y471544D02*
X211342D01*
X181342Y486544D02*
X211342D01*
Y471544D02*
Y486544D01*
X181342Y471544D02*
Y486544D01*
X191592Y479044D02*
X201092D01*
X196342Y474294D02*
Y483794D01*
X148576Y486544D02*
X178576D01*
X148576Y471544D02*
X178576D01*
X148576D02*
Y486544D01*
X178576Y471544D02*
Y486544D01*
X158826Y479044D02*
X168326D01*
X163576Y474294D02*
Y483794D01*
X277122Y447592D02*
X307122D01*
X277122Y432592D02*
X307122D01*
X277122D02*
Y447592D01*
X307122Y432592D02*
Y447592D01*
X287372Y440092D02*
X296872D01*
X292122Y435342D02*
Y444842D01*
X173722Y512946D02*
X203722D01*
X173722Y527946D02*
X203722D01*
Y512946D02*
Y527946D01*
X173722Y512946D02*
Y527946D01*
X183972Y520446D02*
X193472D01*
X188722Y515696D02*
Y525196D01*
X165996Y486396D02*
Y516396D01*
X150996Y486396D02*
Y516396D01*
X165996D01*
X150996Y486396D02*
X165996D01*
X158496Y496646D02*
Y506146D01*
X153746Y501396D02*
X163246D01*
X101500Y164487D02*
X131500D01*
X101500Y149487D02*
X131500D01*
X101500D02*
Y164487D01*
X131500Y149487D02*
Y164487D01*
X111750Y156987D02*
X121250D01*
X116500Y152237D02*
Y161737D01*
X107000Y248500D02*
X137000D01*
X107000Y233500D02*
X137000D01*
X107000D02*
Y248500D01*
X137000Y233500D02*
Y248500D01*
X117250Y241000D02*
X126750D01*
X122000Y236250D02*
Y245750D01*
X172633Y188092D02*
Y194092D01*
X169634Y191092D02*
X175634D01*
X166633Y180592D02*
Y201592D01*
X178633Y180592D02*
Y201592D01*
X166633Y180592D02*
X178633D01*
X166633Y201592D02*
X178633D01*
X37084Y212344D02*
Y224344D01*
Y199344D02*
Y212344D01*
X49179D01*
X25179D02*
X37084D01*
X18084Y173344D02*
X58084D01*
Y251344D01*
X18084D02*
X58084D01*
X18084Y173344D02*
Y251344D01*
X839550Y362458D02*
X849550D01*
X844550Y357458D02*
Y367458D01*
X844838Y346056D02*
X854837D01*
X849837Y341056D02*
Y351056D01*
X894258Y235113D02*
X925158D01*
Y343713D01*
X894258D02*
X925158D01*
X894258Y235113D02*
Y343713D01*
X904708Y289413D02*
X914708D01*
X909708Y284413D02*
Y294413D01*
M02*
