G04*
G04 #@! TF.GenerationSoftware,Altium Limited,Altium Designer,23.8.1 (32)*
G04*
G04 Layer_Color=39423*
%FSLAX44Y44*%
%MOMM*%
G71*
G04*
G04 #@! TF.SameCoordinates,D32FF3FC-BFFE-4070-827C-C4EDDC97BD27*
G04*
G04*
G04 #@! TF.FilePolarity,Positive*
G04*
G01*
G75*
%ADD13C,0.1000*%
D13*
X-56878Y79468D02*
X57122D01*
Y113968D01*
X-56878D02*
X57122D01*
X-56878Y79468D02*
Y113968D01*
X-42519Y-42500D02*
X42522D01*
X-42478Y42456D02*
Y54082D01*
X42478Y42478D02*
Y54104D01*
X42500D02*
X51122Y78843D01*
X42522Y-42519D02*
Y42478D01*
X-42519Y-42500D02*
Y42478D01*
X-51122Y78820D02*
X-42500Y54082D01*
X-43750Y123250D02*
X-33250D01*
X-43750Y117750D02*
X-33250D01*
X-43750D02*
Y123250D01*
X-33250Y117750D02*
Y123250D01*
X32750D02*
X43250D01*
X32750Y117750D02*
X43250D01*
X32750D02*
Y123250D01*
X43250Y117750D02*
Y123250D01*
X-64150Y96866D02*
Y103166D01*
X-60850Y96866D02*
Y103166D01*
X-64150Y96866D02*
X-60850D01*
X-64150Y103166D02*
X-60850D01*
X60750Y96866D02*
Y103166D01*
X64050Y96866D02*
Y103166D01*
X60750Y96866D02*
X64050D01*
X60750Y103166D02*
X64050D01*
M02*
