G04*
G04 #@! TF.GenerationSoftware,Altium Limited,Altium Designer,23.8.1 (32)*
G04*
G04 Layer_Color=32896*
%FSLAX44Y44*%
%MOMM*%
G71*
G04*
G04 #@! TF.SameCoordinates,D32FF3FC-BFFE-4070-827C-C4EDDC97BD27*
G04*
G04*
G04 #@! TF.FilePolarity,Positive*
G04*
G01*
G75*
%ADD10C,0.2500*%
%ADD11C,0.2000*%
%ADD88C,0.1080*%
G36*
X78839Y-62705D02*
X78901Y-62720D01*
X78940Y-62774D01*
X78956Y-72503D01*
Y-72519D01*
Y-79731D01*
X78940Y-79793D01*
X78886Y-79832D01*
X74254Y-79847D01*
X74192Y-79832D01*
X74153Y-79793D01*
X74138Y-79653D01*
X74153Y-79606D01*
X74145Y-62875D01*
X74153Y-62806D01*
X74169Y-62743D01*
X74200Y-62712D01*
X74262Y-62697D01*
X78715Y-62705D01*
X78761Y-62689D01*
X78839Y-62705D01*
D02*
G37*
G36*
X72467Y-62720D02*
X72490Y-62743D01*
X72506Y-73421D01*
X72490Y-74182D01*
X72475Y-74338D01*
X72451Y-74547D01*
X72436Y-74641D01*
X72420Y-74703D01*
X72389Y-74858D01*
X72350Y-75115D01*
X72335Y-75270D01*
X72226Y-75612D01*
X72210Y-75674D01*
X72179Y-75861D01*
X72109Y-76024D01*
X72078Y-76101D01*
X72039Y-76265D01*
X71993Y-76374D01*
X71977Y-76405D01*
X71954Y-76428D01*
X71915Y-76529D01*
X71900Y-76591D01*
X71838Y-76731D01*
X71783Y-76816D01*
X71729Y-76964D01*
X71666Y-77057D01*
X71620Y-77135D01*
X71573Y-77244D01*
X71558Y-77275D01*
X71511Y-77322D01*
X71464Y-77399D01*
X71433Y-77477D01*
X71402Y-77508D01*
X71387Y-77539D01*
X71356Y-77570D01*
X71278Y-77710D01*
X71200Y-77788D01*
X71154Y-77866D01*
X71107Y-77912D01*
X70998Y-78052D01*
X70983Y-78083D01*
X70874Y-78192D01*
X70858Y-78223D01*
X70742Y-78340D01*
X70664Y-78433D01*
X70633Y-78448D01*
X70462Y-78619D01*
X70431Y-78635D01*
X70353Y-78713D01*
X70213Y-78821D01*
X70182Y-78837D01*
X70143Y-78876D01*
X70058Y-78946D01*
X70027Y-78961D01*
X69949Y-79039D01*
X69809Y-79117D01*
X69747Y-79179D01*
X69638Y-79241D01*
X69561Y-79272D01*
X69475Y-79358D01*
X69374Y-79396D01*
X69289Y-79435D01*
X69203Y-79505D01*
X69032Y-79567D01*
X68955Y-79614D01*
X68846Y-79676D01*
X68721Y-79707D01*
X68527Y-79808D01*
X68442Y-79832D01*
X68317Y-79863D01*
X68123Y-79948D01*
X68061Y-79964D01*
X67960Y-79987D01*
X67851Y-80002D01*
X67579Y-80088D01*
X67517Y-80104D01*
X67439Y-80119D01*
X67315Y-80135D01*
X67175Y-80150D01*
X67051Y-80166D01*
X66973Y-80181D01*
X66880Y-80197D01*
X66802Y-80212D01*
X66639Y-80236D01*
X66592Y-80251D01*
X66033Y-80267D01*
X65986Y-80282D01*
X65885Y-80274D01*
X65232Y-80259D01*
X65046Y-80243D01*
X64921Y-80228D01*
X64828Y-80212D01*
X64750Y-80197D01*
X64657Y-80181D01*
X64401Y-80142D01*
X64245Y-80127D01*
X64137Y-80111D01*
X64074Y-80096D01*
X63849Y-80026D01*
X63748Y-80002D01*
X63686Y-79987D01*
X63577Y-79971D01*
X63515Y-79956D01*
X63383Y-79901D01*
X63305Y-79870D01*
X63220Y-79847D01*
X63095Y-79816D01*
X62862Y-79707D01*
X62753Y-79676D01*
X62691Y-79661D01*
X62613Y-79614D01*
X62582Y-79598D01*
X62559Y-79575D01*
X62458Y-79536D01*
X62396Y-79521D01*
X62318Y-79474D01*
X62233Y-79420D01*
X62085Y-79365D01*
X62038Y-79319D01*
X61898Y-79241D01*
X61821Y-79210D01*
X61743Y-79132D01*
X61603Y-79054D01*
X61572Y-79039D01*
X61564Y-79016D01*
X61526Y-78992D01*
X61386Y-78914D01*
X61331Y-78860D01*
X61246Y-78790D01*
X61215Y-78775D01*
X61145Y-78705D01*
X61059Y-78635D01*
X61028Y-78619D01*
X61005Y-78596D01*
X60989Y-78565D01*
X60950Y-78526D01*
X60919Y-78510D01*
X60880Y-78472D01*
X60865Y-78440D01*
X60811Y-78386D01*
X60717Y-78371D01*
X60679Y-78409D01*
X60663Y-79466D01*
X60679Y-79715D01*
X60663Y-79777D01*
X60593Y-79832D01*
X56257Y-79847D01*
X56148Y-79832D01*
X56109Y-79793D01*
X56094Y-72084D01*
Y-72068D01*
Y-62914D01*
X56109Y-62759D01*
X56148Y-62720D01*
X60795Y-62705D01*
X60857Y-62720D01*
X60896Y-62774D01*
X60912Y-72768D01*
X60927Y-73063D01*
X60943Y-73125D01*
X60958Y-73234D01*
X60974Y-73296D01*
X60989Y-73343D01*
X61005Y-73498D01*
X61020Y-73560D01*
X61036Y-73669D01*
X61145Y-73902D01*
X61176Y-74027D01*
X61207Y-74104D01*
X61223Y-74135D01*
X61269Y-74182D01*
X61285Y-74213D01*
X61316Y-74291D01*
X61355Y-74376D01*
X61424Y-74462D01*
X61487Y-74571D01*
X61502Y-74602D01*
X61526Y-74609D01*
X61596Y-74695D01*
X61611Y-74726D01*
X61720Y-74835D01*
X61735Y-74866D01*
X61930Y-75060D01*
X61961Y-75076D01*
X62031Y-75146D01*
X62116Y-75216D01*
X62147Y-75231D01*
X62225Y-75309D01*
X62365Y-75387D01*
X62396Y-75402D01*
X62466Y-75472D01*
X62567Y-75511D01*
X62676Y-75557D01*
X62707Y-75589D01*
X62792Y-75643D01*
X62854Y-75658D01*
X62955Y-75682D01*
X63072Y-75752D01*
X63150Y-75783D01*
X63212Y-75798D01*
X63344Y-75822D01*
X63406Y-75837D01*
X63631Y-75907D01*
X63779Y-75931D01*
X63826Y-75946D01*
X64618Y-75962D01*
X64820Y-75946D01*
X65030Y-75923D01*
X65108Y-75907D01*
X65170Y-75892D01*
X65248Y-75861D01*
X65372Y-75830D01*
X65465Y-75814D01*
X65543Y-75798D01*
X65644Y-75775D01*
X65761Y-75705D01*
X65862Y-75666D01*
X65924Y-75651D01*
X66002Y-75620D01*
X66033Y-75604D01*
X66087Y-75550D01*
X66188Y-75511D01*
X66266Y-75480D01*
X66328Y-75418D01*
X66468Y-75340D01*
X66522Y-75286D01*
X66608Y-75216D01*
X66639Y-75200D01*
X66678Y-75161D01*
X66716Y-75107D01*
X66748Y-75091D01*
X66833Y-75006D01*
X66849Y-74975D01*
X66887Y-74936D01*
X66919Y-74920D01*
X66942Y-74897D01*
X66988Y-74819D01*
X67082Y-74726D01*
X67144Y-74617D01*
X67159Y-74586D01*
X67190Y-74555D01*
X67206Y-74524D01*
X67245Y-74485D01*
X67276Y-74407D01*
X67315Y-74306D01*
X67346Y-74275D01*
X67385Y-74221D01*
X67424Y-74120D01*
X67439Y-74058D01*
X67517Y-73887D01*
X67556Y-73786D01*
X67571Y-73708D01*
X67595Y-73560D01*
X67610Y-73498D01*
X67657Y-73343D01*
X67672Y-73296D01*
X67688Y-73172D01*
X67703Y-73125D01*
X67719Y-62961D01*
X67734Y-62759D01*
X67758Y-62736D01*
X67812Y-62697D01*
X72187Y-62705D01*
X72389Y-62689D01*
X72467Y-62720D01*
D02*
G37*
G36*
X24443D02*
X24505Y-62782D01*
X24536Y-62798D01*
X24560Y-62821D01*
X24622Y-62930D01*
X24699Y-63007D01*
X24777Y-63116D01*
X24793Y-63147D01*
X24839Y-63194D01*
X24917Y-63303D01*
X24932Y-63334D01*
X25010Y-63412D01*
X25072Y-63520D01*
X25166Y-63614D01*
X25212Y-63691D01*
X25267Y-63746D01*
X25368Y-63893D01*
X25383Y-63924D01*
X25461Y-64002D01*
X25523Y-64111D01*
X25616Y-64204D01*
X25663Y-64282D01*
X25756Y-64375D01*
X25772Y-64406D01*
X25834Y-64500D01*
X25849Y-64531D01*
X25912Y-64593D01*
X25974Y-64702D01*
X26028Y-64756D01*
X26098Y-64841D01*
X26114Y-64873D01*
X26207Y-64966D01*
X26269Y-65075D01*
X26323Y-65129D01*
X26425Y-65277D01*
X26440Y-65308D01*
X26479Y-65347D01*
X26549Y-65432D01*
X26564Y-65463D01*
X26658Y-65556D01*
X26720Y-65665D01*
X26797Y-65743D01*
X26860Y-65852D01*
X26891Y-65883D01*
X26999Y-66023D01*
X27015Y-66054D01*
X27108Y-66147D01*
X27171Y-66256D01*
X27248Y-66333D01*
X27310Y-66442D01*
X27373Y-66505D01*
X27450Y-66613D01*
X27466Y-66644D01*
X27528Y-66707D01*
X27606Y-66815D01*
X27621Y-66846D01*
X27645Y-66870D01*
X27676Y-66885D01*
X27761Y-67017D01*
X27777Y-67048D01*
X27854Y-67126D01*
X27917Y-67235D01*
X27994Y-67313D01*
X28041Y-67390D01*
X28072Y-67421D01*
X28087Y-67453D01*
X28111Y-67460D01*
X28134Y-67484D01*
X28196Y-67592D01*
X28235Y-67631D01*
X28305Y-67717D01*
X28367Y-67825D01*
X28437Y-67895D01*
X28515Y-68020D01*
X28593Y-68066D01*
X28701Y-68020D01*
X28802Y-67872D01*
X28818Y-67841D01*
X28896Y-67763D01*
X28981Y-67631D01*
X29035Y-67592D01*
X29098Y-67484D01*
X29175Y-67406D01*
X29253Y-67266D01*
X29331Y-67188D01*
X29393Y-67080D01*
X29471Y-67002D01*
X29548Y-66893D01*
X29564Y-66862D01*
X29611Y-66815D01*
X29688Y-66707D01*
X29704Y-66675D01*
X29727Y-66652D01*
X29797Y-66567D01*
X29859Y-66458D01*
X29883Y-66434D01*
X29914Y-66419D01*
X29984Y-66318D01*
X29999Y-66287D01*
X30054Y-66233D01*
X30155Y-66085D01*
X30170Y-66054D01*
X30232Y-65992D01*
X30294Y-65883D01*
X30372Y-65805D01*
X30411Y-65751D01*
X30473Y-65657D01*
X30504Y-65642D01*
X30590Y-65510D01*
X30605Y-65479D01*
X30683Y-65401D01*
X30698Y-65370D01*
X30761Y-65277D01*
X30776Y-65246D01*
X30800Y-65238D01*
X30823Y-65215D01*
X30885Y-65106D01*
X30978Y-65012D01*
X31040Y-64904D01*
X31072Y-64873D01*
X31087Y-64841D01*
X31110Y-64834D01*
X31134Y-64795D01*
X31196Y-64686D01*
X31289Y-64593D01*
X31305Y-64562D01*
X31375Y-64461D01*
X31406Y-64445D01*
X31491Y-64313D01*
X31507Y-64282D01*
X31569Y-64220D01*
X31631Y-64111D01*
X31724Y-64018D01*
X31786Y-63909D01*
X31849Y-63847D01*
X31926Y-63738D01*
X31942Y-63707D01*
X31965Y-63684D01*
X32035Y-63598D01*
X32097Y-63489D01*
X32175Y-63412D01*
X32222Y-63334D01*
X32292Y-63264D01*
X32392Y-63116D01*
X32408Y-63085D01*
X32470Y-63023D01*
X32532Y-62914D01*
X32657Y-62790D01*
X32672Y-62759D01*
X32719Y-62712D01*
X32781Y-62697D01*
X37840Y-62705D01*
X37902Y-62720D01*
X37941Y-62759D01*
X37925Y-62821D01*
X37863Y-62914D01*
X37848Y-62945D01*
X37809Y-62984D01*
X37739Y-63070D01*
X37723Y-63101D01*
X37646Y-63179D01*
X37568Y-63318D01*
X37490Y-63396D01*
X37428Y-63505D01*
X37335Y-63598D01*
X37273Y-63707D01*
X37179Y-63800D01*
X37117Y-63909D01*
X37102Y-63940D01*
X37055Y-63987D01*
X36977Y-64096D01*
X36962Y-64127D01*
X36900Y-64189D01*
X36822Y-64297D01*
X36806Y-64329D01*
X36760Y-64375D01*
X36682Y-64484D01*
X36667Y-64515D01*
X36589Y-64593D01*
X36573Y-64624D01*
X36511Y-64717D01*
X36495Y-64748D01*
X36472Y-64756D01*
X36449Y-64779D01*
X36387Y-64888D01*
X36293Y-64981D01*
X36216Y-65121D01*
X36138Y-65199D01*
X36076Y-65308D01*
X36014Y-65370D01*
X35936Y-65479D01*
X35921Y-65510D01*
X35843Y-65588D01*
X35781Y-65696D01*
X35726Y-65751D01*
X35625Y-65898D01*
X35610Y-65929D01*
X35571Y-65968D01*
X35501Y-66054D01*
X35485Y-66085D01*
X35431Y-66139D01*
X35330Y-66287D01*
X35314Y-66318D01*
X35252Y-66380D01*
X35190Y-66489D01*
X35097Y-66582D01*
X35035Y-66691D01*
X34941Y-66784D01*
X34879Y-66893D01*
X34864Y-66924D01*
X34817Y-66971D01*
X34739Y-67080D01*
X34724Y-67111D01*
X34646Y-67188D01*
X34599Y-67266D01*
X34568Y-67297D01*
X34553Y-67328D01*
X34530Y-67336D01*
X34444Y-67468D01*
X34429Y-67499D01*
X34366Y-67561D01*
X34351Y-67592D01*
X34273Y-67701D01*
X34258Y-67732D01*
X34234Y-67740D01*
X34211Y-67763D01*
X34149Y-67872D01*
X34056Y-67965D01*
X33978Y-68105D01*
X33900Y-68183D01*
X33838Y-68292D01*
X33776Y-68354D01*
X33698Y-68463D01*
X33682Y-68494D01*
X33605Y-68572D01*
X33543Y-68680D01*
X33488Y-68735D01*
X33387Y-68882D01*
X33372Y-68913D01*
X33348Y-68937D01*
X33317Y-68952D01*
X33263Y-69038D01*
X33247Y-69069D01*
X33193Y-69123D01*
X33092Y-69271D01*
X33076Y-69302D01*
X33014Y-69364D01*
X32952Y-69473D01*
X32859Y-69566D01*
X32797Y-69675D01*
X32719Y-69753D01*
X32657Y-69861D01*
X32626Y-69893D01*
X32610Y-69924D01*
X32579Y-69955D01*
X32501Y-70064D01*
X32486Y-70095D01*
X32408Y-70172D01*
X32362Y-70250D01*
X32307Y-70304D01*
X32206Y-70452D01*
X32190Y-70483D01*
X32128Y-70545D01*
X32066Y-70654D01*
X32035Y-70685D01*
X32020Y-70716D01*
X31996Y-70724D01*
X31973Y-70747D01*
X31911Y-70856D01*
X31818Y-70949D01*
X31740Y-71089D01*
X31685Y-71144D01*
X31615Y-71229D01*
X31600Y-71369D01*
X31631Y-71447D01*
X31646Y-71478D01*
X31740Y-71571D01*
X31802Y-71680D01*
X31818Y-71711D01*
X31880Y-71773D01*
X31942Y-71882D01*
X31988Y-71929D01*
X32097Y-72068D01*
X32113Y-72099D01*
X32152Y-72138D01*
X32253Y-72286D01*
X32268Y-72317D01*
X32315Y-72364D01*
X32392Y-72473D01*
X32408Y-72503D01*
X32431Y-72527D01*
X32462Y-72542D01*
X32517Y-72643D01*
X32548Y-72674D01*
X32564Y-72706D01*
X32602Y-72744D01*
X32703Y-72892D01*
X32719Y-72923D01*
X32742Y-72947D01*
X32812Y-73032D01*
X32828Y-73063D01*
X32921Y-73156D01*
X32983Y-73265D01*
X32999Y-73296D01*
X33076Y-73374D01*
X33092Y-73405D01*
X33154Y-73498D01*
X33263Y-73638D01*
X33278Y-73669D01*
X33372Y-73762D01*
X33434Y-73871D01*
X33449Y-73902D01*
X33512Y-73965D01*
X33574Y-74073D01*
X33636Y-74135D01*
X33714Y-74244D01*
X33729Y-74275D01*
X33807Y-74353D01*
X33869Y-74462D01*
X33900Y-74493D01*
X33916Y-74524D01*
X33962Y-74571D01*
X34024Y-74679D01*
X34087Y-74742D01*
X34164Y-74850D01*
X34180Y-74881D01*
X34211Y-74913D01*
X34219Y-74920D01*
X34273Y-74975D01*
X34335Y-75083D01*
X34351Y-75115D01*
X34413Y-75177D01*
X34475Y-75286D01*
X34537Y-75348D01*
X34615Y-75457D01*
X34630Y-75488D01*
X34724Y-75581D01*
X34786Y-75690D01*
X34801Y-75721D01*
X34864Y-75783D01*
X34926Y-75892D01*
X34988Y-75954D01*
X35066Y-76063D01*
X35081Y-76094D01*
X35136Y-76148D01*
X35237Y-76296D01*
X35252Y-76327D01*
X35314Y-76389D01*
X35377Y-76498D01*
X35439Y-76560D01*
X35516Y-76669D01*
X35532Y-76700D01*
X35610Y-76778D01*
X35625Y-76809D01*
X35687Y-76902D01*
X35703Y-76933D01*
X35734Y-76964D01*
X35812Y-77073D01*
X35827Y-77104D01*
X35889Y-77166D01*
X35967Y-77275D01*
X35983Y-77306D01*
X36060Y-77384D01*
X36123Y-77492D01*
X36138Y-77523D01*
X36185Y-77570D01*
X36262Y-77679D01*
X36278Y-77710D01*
X36340Y-77772D01*
X36418Y-77881D01*
X36433Y-77912D01*
X36511Y-77990D01*
X36573Y-78099D01*
X36589Y-78130D01*
X36635Y-78176D01*
X36713Y-78285D01*
X36729Y-78316D01*
X36752Y-78340D01*
X36783Y-78355D01*
X36869Y-78487D01*
X36884Y-78518D01*
X36962Y-78596D01*
X37024Y-78705D01*
X37039Y-78736D01*
X37063Y-78759D01*
X37094Y-78775D01*
X37187Y-78930D01*
X37218Y-78946D01*
X37319Y-79093D01*
X37335Y-79124D01*
X37389Y-79179D01*
X37498Y-79350D01*
X37529Y-79365D01*
X37615Y-79497D01*
X37630Y-79528D01*
X37739Y-79637D01*
X37754Y-79668D01*
X37801Y-79715D01*
X37817Y-79793D01*
X37778Y-79832D01*
X32913Y-79847D01*
X32804Y-79832D01*
X32742Y-79816D01*
X32703Y-79777D01*
X32641Y-79668D01*
X32626Y-79637D01*
X32564Y-79575D01*
X32501Y-79466D01*
X32408Y-79373D01*
X32346Y-79264D01*
X32253Y-79171D01*
X32190Y-79062D01*
X32175Y-79031D01*
X32113Y-78969D01*
X32051Y-78860D01*
X31957Y-78767D01*
X31895Y-78658D01*
X31818Y-78580D01*
X31755Y-78472D01*
X31709Y-78425D01*
X31693Y-78394D01*
X31662Y-78363D01*
X31600Y-78254D01*
X31553Y-78207D01*
X31444Y-78067D01*
X31429Y-78036D01*
X31351Y-77959D01*
X31289Y-77850D01*
X31274Y-77819D01*
X31250Y-77811D01*
X31149Y-77663D01*
X31134Y-77632D01*
X31110Y-77609D01*
X31079Y-77593D01*
X30994Y-77461D01*
X30978Y-77430D01*
X30916Y-77368D01*
X30854Y-77259D01*
X30776Y-77182D01*
X30714Y-77073D01*
X30683Y-77042D01*
X30667Y-77011D01*
X30644Y-77003D01*
X30574Y-76902D01*
X30559Y-76871D01*
X30535Y-76848D01*
X30465Y-76762D01*
X30403Y-76653D01*
X30326Y-76575D01*
X30263Y-76467D01*
X30201Y-76405D01*
X30123Y-76296D01*
X30108Y-76265D01*
X30069Y-76226D01*
X29968Y-76078D01*
X29952Y-76047D01*
X29875Y-75969D01*
X29813Y-75861D01*
X29735Y-75783D01*
X29673Y-75674D01*
X29618Y-75620D01*
X29517Y-75472D01*
X29502Y-75441D01*
X29424Y-75363D01*
X29362Y-75255D01*
X29300Y-75192D01*
X29222Y-75083D01*
X29207Y-75052D01*
X29183Y-75029D01*
X29113Y-74944D01*
X29098Y-74913D01*
X29067Y-74835D01*
X29012Y-74796D01*
X28950Y-74812D01*
X28888Y-74874D01*
X28818Y-74959D01*
X28771Y-75037D01*
X28694Y-75115D01*
X28631Y-75223D01*
X28600Y-75255D01*
X28585Y-75286D01*
X28554Y-75317D01*
X28476Y-75425D01*
X28460Y-75457D01*
X28383Y-75534D01*
X28336Y-75612D01*
X28243Y-75705D01*
X28165Y-75845D01*
X28087Y-75923D01*
X28025Y-76031D01*
X27932Y-76125D01*
X27870Y-76234D01*
X27777Y-76327D01*
X27715Y-76436D01*
X27699Y-76467D01*
X27637Y-76529D01*
X27575Y-76638D01*
X27497Y-76715D01*
X27419Y-76824D01*
X27404Y-76855D01*
X27341Y-76917D01*
X27279Y-77026D01*
X27209Y-77096D01*
X27101Y-77267D01*
X27069Y-77283D01*
X27046Y-77306D01*
X26984Y-77415D01*
X26891Y-77508D01*
X26829Y-77617D01*
X26813Y-77648D01*
X26766Y-77695D01*
X26689Y-77803D01*
X26673Y-77834D01*
X26611Y-77896D01*
X26533Y-78005D01*
X26518Y-78036D01*
X26440Y-78114D01*
X26378Y-78223D01*
X26355Y-78246D01*
X26285Y-78332D01*
X26223Y-78440D01*
X26184Y-78479D01*
X26153Y-78495D01*
X26098Y-78596D01*
X26005Y-78689D01*
X25927Y-78829D01*
X25849Y-78907D01*
X25787Y-79016D01*
X25694Y-79109D01*
X25632Y-79218D01*
X25554Y-79295D01*
X25492Y-79404D01*
X25461Y-79435D01*
X25445Y-79466D01*
X25399Y-79513D01*
X25337Y-79622D01*
X25243Y-79715D01*
X25197Y-79793D01*
X25142Y-79832D01*
X19967Y-79847D01*
X19881Y-79824D01*
X19866Y-79731D01*
X19990Y-79606D01*
X20006Y-79575D01*
X20083Y-79497D01*
X20161Y-79358D01*
X20239Y-79280D01*
X20301Y-79171D01*
X20363Y-79109D01*
X20441Y-79000D01*
X20457Y-78969D01*
X20534Y-78891D01*
X20596Y-78782D01*
X20651Y-78728D01*
X20752Y-78580D01*
X20767Y-78549D01*
X20806Y-78510D01*
X20876Y-78425D01*
X20892Y-78394D01*
X20985Y-78301D01*
X21047Y-78192D01*
X21063Y-78161D01*
X21109Y-78114D01*
X21187Y-78005D01*
X21202Y-77974D01*
X21280Y-77896D01*
X21342Y-77788D01*
X21436Y-77695D01*
X21498Y-77586D01*
X21576Y-77508D01*
X21653Y-77368D01*
X21731Y-77290D01*
X21778Y-77213D01*
X21848Y-77143D01*
X21948Y-76995D01*
X21964Y-76964D01*
X22026Y-76902D01*
X22088Y-76793D01*
X22182Y-76700D01*
X22244Y-76591D01*
X22306Y-76529D01*
X22384Y-76420D01*
X22399Y-76389D01*
X22477Y-76311D01*
X22539Y-76203D01*
X22555Y-76171D01*
X22632Y-76094D01*
X22679Y-76016D01*
X22710Y-75985D01*
X22726Y-75954D01*
X22749Y-75946D01*
X22772Y-75923D01*
X22788Y-75892D01*
X22850Y-75798D01*
X22865Y-75767D01*
X22928Y-75705D01*
X22990Y-75596D01*
X23052Y-75534D01*
X23130Y-75425D01*
X23145Y-75394D01*
X23223Y-75317D01*
X23285Y-75208D01*
X23340Y-75153D01*
X23440Y-75006D01*
X23456Y-74975D01*
X23518Y-74913D01*
X23565Y-74835D01*
X23596Y-74804D01*
X23612Y-74773D01*
X23635Y-74765D01*
X23736Y-74617D01*
X23751Y-74586D01*
X23814Y-74524D01*
X23876Y-74415D01*
X23969Y-74322D01*
X24031Y-74213D01*
X24093Y-74151D01*
X24171Y-74042D01*
X24186Y-74011D01*
X24264Y-73933D01*
X24280Y-73902D01*
X24342Y-73809D01*
X24357Y-73778D01*
X24420Y-73716D01*
X24505Y-73584D01*
X24536Y-73568D01*
X24637Y-73421D01*
X24653Y-73389D01*
X24715Y-73327D01*
X24777Y-73218D01*
X24839Y-73156D01*
X24917Y-73048D01*
X24932Y-73016D01*
X25010Y-72939D01*
X25072Y-72830D01*
X25166Y-72737D01*
X25228Y-72628D01*
X25243Y-72597D01*
X25274Y-72566D01*
X25383Y-72426D01*
X25399Y-72395D01*
X25445Y-72364D01*
X25508Y-72255D01*
X25562Y-72200D01*
X25663Y-72053D01*
X25679Y-72022D01*
X25756Y-71944D01*
X25818Y-71835D01*
X25927Y-71726D01*
X25989Y-71618D01*
X26005Y-71556D01*
X25943Y-71416D01*
X25927Y-71385D01*
X25865Y-71322D01*
X25787Y-71214D01*
X25772Y-71182D01*
X25710Y-71120D01*
X25655Y-71035D01*
X25593Y-70942D01*
X25562Y-70926D01*
X25492Y-70809D01*
X25399Y-70716D01*
X25337Y-70608D01*
X25282Y-70553D01*
X25181Y-70405D01*
X25166Y-70374D01*
X25088Y-70297D01*
X25026Y-70188D01*
X24948Y-70110D01*
X24901Y-70032D01*
X24808Y-69939D01*
X24731Y-69799D01*
X24653Y-69722D01*
X24591Y-69613D01*
X24544Y-69566D01*
X24435Y-69426D01*
X24420Y-69395D01*
X24357Y-69333D01*
X24295Y-69224D01*
X24264Y-69193D01*
X24155Y-69053D01*
X24140Y-69022D01*
X24109Y-68991D01*
X24000Y-68851D01*
X23984Y-68820D01*
X23907Y-68742D01*
X23845Y-68634D01*
X23790Y-68579D01*
X23689Y-68432D01*
X23674Y-68401D01*
X23596Y-68323D01*
X23549Y-68245D01*
X23487Y-68183D01*
X23409Y-68074D01*
X23394Y-68043D01*
X23355Y-68004D01*
X23254Y-67857D01*
X23238Y-67825D01*
X23161Y-67748D01*
X23075Y-67616D01*
X23044Y-67600D01*
X23021Y-67577D01*
X22943Y-67437D01*
X22865Y-67359D01*
X22803Y-67250D01*
X22710Y-67157D01*
X22648Y-67048D01*
X22586Y-66986D01*
X22508Y-66877D01*
X22492Y-66846D01*
X22438Y-66792D01*
X22337Y-66644D01*
X22322Y-66613D01*
X22259Y-66551D01*
X22213Y-66473D01*
X22119Y-66380D01*
X22057Y-66271D01*
X22003Y-66217D01*
X21902Y-66069D01*
X21886Y-66038D01*
X21809Y-65960D01*
X21746Y-65852D01*
X21723Y-65828D01*
X21692Y-65813D01*
X21622Y-65712D01*
X21607Y-65681D01*
X21583Y-65657D01*
X21513Y-65572D01*
X21451Y-65463D01*
X21389Y-65401D01*
X21311Y-65292D01*
X21296Y-65261D01*
X21234Y-65199D01*
X21156Y-65090D01*
X21140Y-65059D01*
X21094Y-65012D01*
X21016Y-64904D01*
X21000Y-64873D01*
X20923Y-64795D01*
X20861Y-64686D01*
X20798Y-64624D01*
X20721Y-64515D01*
X20705Y-64484D01*
X20627Y-64406D01*
X20565Y-64297D01*
X20534Y-64266D01*
X20519Y-64235D01*
X20495Y-64228D01*
X20472Y-64189D01*
X20387Y-64057D01*
X20332Y-64018D01*
X20270Y-63909D01*
X20177Y-63816D01*
X20099Y-63676D01*
X20021Y-63598D01*
X19959Y-63489D01*
X19905Y-63435D01*
X19835Y-63349D01*
X19819Y-63318D01*
X19741Y-63241D01*
X19664Y-63101D01*
X19586Y-63023D01*
X19524Y-62914D01*
X19415Y-62806D01*
X19423Y-62720D01*
X19477Y-62697D01*
X24210Y-62705D01*
X24319Y-62689D01*
X24443Y-62720D01*
D02*
G37*
G36*
X-35805Y-59588D02*
X-35377Y-59627D01*
X-35315Y-59643D01*
X-35105Y-59666D01*
X-35012Y-59682D01*
X-34888Y-59697D01*
X-34616Y-59721D01*
X-34367Y-59736D01*
X-34181Y-59783D01*
X-34095Y-59806D01*
X-34033Y-59822D01*
X-33862Y-59853D01*
X-33582Y-59884D01*
X-33458Y-59915D01*
X-33357Y-59954D01*
X-33279Y-59985D01*
X-33131Y-60008D01*
X-33007Y-60024D01*
X-32929Y-60039D01*
X-32867Y-60055D01*
X-32696Y-60132D01*
X-32634Y-60148D01*
X-32486Y-60171D01*
X-32362Y-60202D01*
X-32160Y-60296D01*
X-32098Y-60311D01*
X-31989Y-60327D01*
X-31795Y-60412D01*
X-31717Y-60443D01*
X-31616Y-60466D01*
X-31554Y-60482D01*
X-31445Y-60529D01*
X-31391Y-60567D01*
X-31313Y-60599D01*
X-31196Y-60622D01*
X-31057Y-60684D01*
X-31002Y-60723D01*
X-30924Y-60754D01*
X-30824Y-60777D01*
X-30746Y-60808D01*
X-30715Y-60840D01*
X-30606Y-60902D01*
X-30544Y-60917D01*
X-30435Y-60948D01*
X-30404Y-60979D01*
X-30318Y-61034D01*
X-30217Y-61073D01*
X-30155Y-61088D01*
X-30124Y-61119D01*
X-30093Y-61135D01*
X-30054Y-61174D01*
X-29860Y-61244D01*
X-29829Y-61275D01*
X-29798Y-61290D01*
X-29767Y-61321D01*
X-29736Y-61337D01*
X-29580Y-61399D01*
X-29534Y-61446D01*
X-29394Y-61523D01*
X-29332Y-61539D01*
X-29308Y-61562D01*
X-29223Y-61632D01*
X-29192Y-61648D01*
X-29083Y-61694D01*
X-29036Y-61741D01*
X-28865Y-61834D01*
X-28803Y-61896D01*
X-28632Y-61990D01*
X-28601Y-62005D01*
X-28554Y-62052D01*
X-28446Y-62114D01*
X-28414Y-62145D01*
X-28383Y-62161D01*
X-28376Y-62184D01*
X-28352Y-62207D01*
X-28244Y-62269D01*
X-28212Y-62285D01*
X-28135Y-62363D01*
X-28026Y-62425D01*
X-27995Y-62440D01*
X-27917Y-62518D01*
X-27840Y-62565D01*
X-27746Y-62658D01*
X-27668Y-62705D01*
X-27599Y-62774D01*
X-27513Y-62844D01*
X-27482Y-62860D01*
X-27389Y-62953D01*
X-27358Y-62969D01*
X-27327Y-63000D01*
X-27295Y-63015D01*
X-27202Y-63109D01*
X-27171Y-63124D01*
X-27140Y-63155D01*
X-27109Y-63171D01*
X-26985Y-63295D01*
X-26954Y-63311D01*
X-26899Y-63365D01*
X-26884Y-63396D01*
X-26860Y-63419D01*
X-26829Y-63435D01*
X-26658Y-63606D01*
X-26627Y-63622D01*
X-26604Y-63645D01*
X-26588Y-63676D01*
X-26534Y-63730D01*
X-26503Y-63746D01*
X-26464Y-63785D01*
X-26449Y-63816D01*
X-26293Y-63971D01*
X-26277Y-64002D01*
X-26254Y-64026D01*
X-26223Y-64041D01*
X-26169Y-64096D01*
X-26153Y-64127D01*
X-25998Y-64282D01*
X-25982Y-64313D01*
X-25889Y-64406D01*
X-25873Y-64437D01*
X-25842Y-64468D01*
X-25827Y-64500D01*
X-25757Y-64570D01*
X-25687Y-64655D01*
X-25671Y-64686D01*
X-25578Y-64779D01*
X-25531Y-64857D01*
X-25438Y-64950D01*
X-25392Y-65028D01*
X-25298Y-65121D01*
X-25236Y-65230D01*
X-25205Y-65261D01*
X-25190Y-65292D01*
X-25127Y-65354D01*
X-25065Y-65463D01*
X-25050Y-65494D01*
X-25026Y-65502D01*
X-24925Y-65650D01*
X-24910Y-65681D01*
X-24848Y-65743D01*
X-24778Y-65875D01*
X-24770Y-65883D01*
Y-65898D01*
X-24708Y-65960D01*
X-24615Y-66132D01*
X-24568Y-66178D01*
X-24475Y-66349D01*
X-24459Y-66380D01*
X-24413Y-66427D01*
X-24350Y-66536D01*
X-24319Y-66613D01*
X-24304Y-66644D01*
X-24257Y-66691D01*
X-24211Y-66769D01*
X-24164Y-66877D01*
X-24148Y-66909D01*
X-24117Y-66940D01*
X-24078Y-66994D01*
X-24040Y-67095D01*
X-24008Y-67173D01*
X-23977Y-67204D01*
X-23962Y-67235D01*
X-23939Y-67258D01*
X-23907Y-67336D01*
X-23884Y-67421D01*
X-23822Y-67515D01*
X-23783Y-67569D01*
X-23744Y-67670D01*
X-23713Y-67779D01*
X-23682Y-67810D01*
X-23667Y-67841D01*
X-23643Y-67864D01*
X-23612Y-67942D01*
X-23589Y-68043D01*
X-23550Y-68129D01*
X-23480Y-68214D01*
X-23433Y-68401D01*
X-23410Y-68471D01*
X-23332Y-68595D01*
X-23293Y-68758D01*
X-23247Y-68867D01*
X-23231Y-68898D01*
X-23208Y-68921D01*
X-23177Y-68999D01*
X-23161Y-69077D01*
X-23146Y-69170D01*
X-23123Y-69271D01*
X-23053Y-69387D01*
X-23022Y-69465D01*
X-22998Y-69613D01*
X-22967Y-69737D01*
X-22928Y-69823D01*
X-22882Y-69947D01*
X-22858Y-70048D01*
X-22827Y-70234D01*
X-22788Y-70367D01*
X-22734Y-70514D01*
X-22719Y-70576D01*
X-22703Y-70685D01*
X-22687Y-70841D01*
X-22656Y-70965D01*
X-22617Y-71097D01*
X-22586Y-71221D01*
X-22571Y-71315D01*
X-22548Y-71602D01*
X-22532Y-71664D01*
X-22509Y-71874D01*
X-22478Y-72030D01*
X-22462Y-72092D01*
X-22431Y-72294D01*
X-22415Y-72496D01*
X-22392Y-73187D01*
X-22377Y-73716D01*
X-22392Y-74244D01*
X-22408Y-74866D01*
X-22423Y-75208D01*
X-22446Y-75418D01*
X-22462Y-75495D01*
X-22478Y-75557D01*
X-22493Y-75635D01*
X-22524Y-75822D01*
X-22548Y-76016D01*
X-22579Y-76327D01*
X-22625Y-76513D01*
X-22648Y-76599D01*
X-22680Y-76723D01*
X-22703Y-76902D01*
X-22719Y-76964D01*
X-22734Y-77073D01*
X-22757Y-77158D01*
X-22819Y-77329D01*
X-22858Y-77508D01*
X-22874Y-77617D01*
X-22889Y-77679D01*
X-22952Y-77819D01*
X-22983Y-77896D01*
X-23014Y-78099D01*
X-23029Y-78161D01*
X-23084Y-78262D01*
X-23130Y-78355D01*
X-23146Y-78433D01*
X-23169Y-78565D01*
X-23216Y-78674D01*
X-23278Y-78782D01*
X-23325Y-78969D01*
X-23426Y-79163D01*
X-23449Y-79249D01*
X-23480Y-79373D01*
X-23558Y-79482D01*
X-23581Y-79536D01*
X-23604Y-79622D01*
X-23667Y-79762D01*
X-23744Y-79901D01*
X-23760Y-79964D01*
X-23806Y-80072D01*
X-23861Y-80127D01*
X-23915Y-80274D01*
X-23946Y-80352D01*
X-23977Y-80383D01*
X-24016Y-80438D01*
X-24071Y-80585D01*
X-24133Y-80679D01*
X-24195Y-80787D01*
X-24226Y-80865D01*
X-24257Y-80896D01*
X-24273Y-80927D01*
X-24327Y-80997D01*
X-24374Y-81122D01*
X-24444Y-81207D01*
X-24521Y-81347D01*
X-24537Y-81378D01*
X-24583Y-81425D01*
X-24599Y-81456D01*
X-24622Y-81479D01*
X-24661Y-81580D01*
X-24700Y-81619D01*
X-24770Y-81704D01*
X-24785Y-81735D01*
X-24817Y-81813D01*
X-24894Y-81891D01*
X-24972Y-82031D01*
X-25050Y-82108D01*
X-25127Y-82248D01*
X-25174Y-82295D01*
X-25252Y-82404D01*
X-25267Y-82435D01*
X-25322Y-82489D01*
X-25392Y-82575D01*
X-25407Y-82606D01*
X-25462Y-82660D01*
X-25531Y-82746D01*
X-25547Y-82777D01*
X-25640Y-82870D01*
X-25656Y-82901D01*
X-25687Y-82932D01*
X-25703Y-82963D01*
X-25796Y-83056D01*
X-25811Y-83088D01*
X-25842Y-83119D01*
X-25858Y-83150D01*
X-25928Y-83220D01*
X-25998Y-83305D01*
X-26013Y-83336D01*
X-26052Y-83375D01*
X-26083Y-83391D01*
X-26107Y-83414D01*
X-26122Y-83445D01*
X-26277Y-83600D01*
X-26293Y-83631D01*
X-26332Y-83670D01*
X-26363Y-83686D01*
X-26417Y-83740D01*
X-26433Y-83771D01*
X-26503Y-83841D01*
X-26534Y-83857D01*
X-26557Y-83880D01*
X-26573Y-83911D01*
X-26643Y-83981D01*
X-26674Y-83997D01*
X-26728Y-84051D01*
X-26744Y-84082D01*
X-26783Y-84121D01*
X-26814Y-84137D01*
X-26954Y-84276D01*
X-26985Y-84292D01*
X-27109Y-84416D01*
X-27140Y-84432D01*
X-27210Y-84502D01*
X-27295Y-84572D01*
X-27327Y-84587D01*
X-27397Y-84657D01*
X-27482Y-84727D01*
X-27513Y-84743D01*
X-27606Y-84836D01*
X-27661Y-84875D01*
X-27754Y-84937D01*
X-27770Y-84968D01*
X-27793Y-84991D01*
X-27902Y-85054D01*
X-27995Y-85147D01*
X-28135Y-85225D01*
X-28197Y-85287D01*
X-28306Y-85349D01*
X-28399Y-85442D01*
X-28508Y-85504D01*
X-28539Y-85520D01*
X-28586Y-85566D01*
X-28756Y-85660D01*
X-28819Y-85722D01*
X-28990Y-85815D01*
X-29021Y-85831D01*
X-29067Y-85877D01*
X-29122Y-85916D01*
X-29223Y-85955D01*
X-29254Y-85986D01*
X-29285Y-86002D01*
X-29332Y-86048D01*
X-29487Y-86110D01*
X-29518Y-86126D01*
X-29588Y-86196D01*
X-29689Y-86235D01*
X-29767Y-86266D01*
X-29813Y-86312D01*
X-29922Y-86375D01*
X-29984Y-86390D01*
X-30062Y-86421D01*
X-30109Y-86468D01*
X-30140Y-86483D01*
X-30163Y-86507D01*
X-30248Y-86530D01*
X-30350Y-86569D01*
X-30435Y-86639D01*
X-30489Y-86662D01*
X-30590Y-86685D01*
X-30699Y-86732D01*
X-30730Y-86763D01*
X-30785Y-86802D01*
X-30886Y-86825D01*
X-31026Y-86887D01*
X-31057Y-86903D01*
X-31080Y-86926D01*
X-31158Y-86957D01*
X-31274Y-86981D01*
X-31414Y-87043D01*
X-31445Y-87058D01*
X-31469Y-87082D01*
X-31546Y-87113D01*
X-31678Y-87136D01*
X-31935Y-87253D01*
X-32051Y-87276D01*
X-32113Y-87291D01*
X-32222Y-87323D01*
X-32354Y-87393D01*
X-32471Y-87416D01*
X-32533Y-87431D01*
X-32642Y-87447D01*
X-32704Y-87463D01*
X-32906Y-87556D01*
X-33061Y-87571D01*
X-33124Y-87587D01*
X-33233Y-87602D01*
X-33411Y-87657D01*
X-33489Y-87688D01*
X-33714Y-87727D01*
X-33870Y-87742D01*
X-33979Y-87758D01*
X-34087Y-87789D01*
X-34149Y-87804D01*
X-34235Y-87828D01*
X-34297Y-87843D01*
X-34390Y-87859D01*
X-34756Y-87882D01*
X-34864Y-87898D01*
X-35183Y-87936D01*
X-35276Y-87952D01*
X-35517Y-87975D01*
X-35564Y-87991D01*
X-36185Y-88006D01*
X-36232Y-88022D01*
X-36970Y-88014D01*
X-37374Y-87999D01*
X-37576Y-87983D01*
X-37747Y-87968D01*
X-37872Y-87952D01*
X-37949Y-87936D01*
X-38151Y-87905D01*
X-38307Y-87890D01*
X-38688Y-87867D01*
X-38750Y-87851D01*
X-38859Y-87836D01*
X-38921Y-87820D01*
X-39006Y-87797D01*
X-39068Y-87781D01*
X-39169Y-87758D01*
X-39216Y-87742D01*
X-39434Y-87727D01*
X-39496Y-87711D01*
X-39605Y-87696D01*
X-39783Y-87641D01*
X-39861Y-87610D01*
X-39962Y-87587D01*
X-40180Y-87556D01*
X-40242Y-87540D01*
X-40374Y-87486D01*
X-40452Y-87455D01*
X-40514Y-87439D01*
X-40677Y-87416D01*
X-40739Y-87400D01*
X-40918Y-87315D01*
X-40980Y-87299D01*
X-41097Y-87276D01*
X-41205Y-87245D01*
X-41369Y-87159D01*
X-41431Y-87144D01*
X-41563Y-87121D01*
X-41641Y-87090D01*
X-41734Y-87027D01*
X-41788Y-87004D01*
X-41951Y-86965D01*
X-42060Y-86918D01*
X-42099Y-86880D01*
X-42247Y-86825D01*
X-42309Y-86810D01*
X-42394Y-86771D01*
X-42519Y-86693D01*
X-42620Y-86670D01*
X-42697Y-86639D01*
X-42721Y-86615D01*
X-42845Y-86538D01*
X-42946Y-86514D01*
X-43039Y-86452D01*
X-43094Y-86413D01*
X-43195Y-86375D01*
X-43280Y-86336D01*
X-43366Y-86266D01*
X-43537Y-86204D01*
X-43560Y-86180D01*
X-43645Y-86110D01*
X-43801Y-86048D01*
X-43847Y-86002D01*
X-44019Y-85908D01*
X-44050Y-85893D01*
X-44096Y-85846D01*
X-44267Y-85753D01*
X-44298Y-85737D01*
X-44306Y-85714D01*
X-44329Y-85691D01*
X-44469Y-85613D01*
X-44500Y-85597D01*
X-44547Y-85551D01*
X-44718Y-85458D01*
X-44757Y-85419D01*
X-44772Y-85388D01*
X-44904Y-85318D01*
X-44982Y-85240D01*
X-45122Y-85162D01*
X-45176Y-85108D01*
X-45262Y-85038D01*
X-45293Y-85022D01*
X-45347Y-84968D01*
X-45433Y-84898D01*
X-45464Y-84883D01*
X-45557Y-84789D01*
X-45635Y-84743D01*
X-45744Y-84634D01*
X-45775Y-84618D01*
X-45806Y-84587D01*
X-45837Y-84572D01*
X-45930Y-84479D01*
X-45961Y-84463D01*
X-45992Y-84432D01*
X-46023Y-84416D01*
X-46148Y-84292D01*
X-46179Y-84276D01*
X-46218Y-84238D01*
X-46233Y-84206D01*
X-46272Y-84168D01*
X-46303Y-84152D01*
X-46459Y-83997D01*
X-46490Y-83981D01*
X-46513Y-83958D01*
X-46528Y-83927D01*
X-46560Y-83896D01*
X-46653Y-83818D01*
X-46668Y-83787D01*
X-46769Y-83686D01*
X-46800Y-83670D01*
X-46808Y-83647D01*
X-46839Y-83616D01*
X-46855Y-83585D01*
X-46878Y-83561D01*
X-46909Y-83546D01*
X-46964Y-83492D01*
X-46979Y-83461D01*
X-47104Y-83336D01*
X-47119Y-83305D01*
X-47204Y-83220D01*
X-47274Y-83134D01*
X-47290Y-83103D01*
X-47360Y-83033D01*
X-47430Y-82948D01*
X-47445Y-82916D01*
X-47539Y-82823D01*
X-47585Y-82746D01*
X-47694Y-82637D01*
X-47779Y-82505D01*
X-47834Y-82466D01*
X-47896Y-82357D01*
X-47912Y-82326D01*
X-47982Y-82256D01*
X-48090Y-82085D01*
X-48122Y-82070D01*
X-48145Y-82031D01*
X-48207Y-81922D01*
X-48254Y-81875D01*
X-48269Y-81844D01*
X-48308Y-81805D01*
X-48347Y-81704D01*
X-48386Y-81665D01*
X-48463Y-81572D01*
X-48502Y-81471D01*
X-48549Y-81425D01*
X-48564Y-81393D01*
X-48595Y-81362D01*
X-48611Y-81331D01*
X-48658Y-81222D01*
X-48743Y-81137D01*
X-48782Y-81036D01*
X-48813Y-80958D01*
X-48860Y-80912D01*
X-48899Y-80857D01*
X-48937Y-80756D01*
X-49062Y-80570D01*
X-49077Y-80508D01*
X-49124Y-80399D01*
X-49155Y-80368D01*
X-49194Y-80313D01*
X-49248Y-80166D01*
X-49287Y-80096D01*
X-49365Y-79971D01*
X-49388Y-79855D01*
X-49450Y-79762D01*
X-49505Y-79676D01*
X-49528Y-79591D01*
X-49590Y-79451D01*
X-49645Y-79365D01*
X-49683Y-79202D01*
X-49800Y-78977D01*
X-49839Y-78798D01*
X-49940Y-78604D01*
X-49955Y-78541D01*
X-49994Y-78363D01*
X-50056Y-78223D01*
X-50080Y-78200D01*
X-50103Y-78114D01*
X-50119Y-78052D01*
X-50134Y-77943D01*
X-50150Y-77881D01*
X-50235Y-77687D01*
X-50251Y-77625D01*
X-50274Y-77492D01*
X-50305Y-77306D01*
X-50360Y-77174D01*
X-50391Y-77096D01*
X-50414Y-76948D01*
X-50429Y-76840D01*
X-50445Y-76684D01*
X-50476Y-76607D01*
X-50561Y-76537D01*
X-50655Y-76521D01*
X-50717Y-76506D01*
X-50764Y-76521D01*
X-54455Y-76513D01*
X-54649Y-76521D01*
X-54727Y-76490D01*
X-54742Y-76428D01*
X-54735Y-71276D01*
X-54750Y-71229D01*
X-54735Y-71120D01*
X-54688Y-71074D01*
X-50701Y-71082D01*
X-50593Y-71066D01*
X-50515Y-71035D01*
X-50484Y-71004D01*
X-50453Y-70926D01*
X-50437Y-70848D01*
X-50414Y-70654D01*
X-50398Y-70545D01*
X-50383Y-70483D01*
X-50344Y-70382D01*
X-50313Y-70304D01*
X-50290Y-70219D01*
X-50274Y-70157D01*
X-50258Y-70001D01*
X-50227Y-69893D01*
X-50188Y-69807D01*
X-50157Y-69729D01*
X-50134Y-69644D01*
X-50119Y-69582D01*
X-50103Y-69473D01*
X-50017Y-69279D01*
X-49987Y-69201D01*
X-49971Y-69108D01*
X-49948Y-69007D01*
X-49847Y-68812D01*
X-49823Y-68711D01*
X-49792Y-68603D01*
X-49761Y-68525D01*
X-49722Y-68486D01*
X-49691Y-68408D01*
X-49668Y-68307D01*
X-49637Y-68198D01*
X-49606Y-68167D01*
X-49590Y-68136D01*
X-49567Y-68113D01*
X-49536Y-68035D01*
X-49512Y-67919D01*
X-49450Y-67825D01*
X-49388Y-67717D01*
X-49357Y-67592D01*
X-49248Y-67437D01*
X-49233Y-67375D01*
X-49186Y-67266D01*
X-49170Y-67235D01*
X-49139Y-67204D01*
X-49124Y-67173D01*
X-49101Y-67149D01*
X-49077Y-67064D01*
X-49046Y-66986D01*
X-49000Y-66940D01*
X-48937Y-66831D01*
X-48891Y-66722D01*
X-48875Y-66691D01*
X-48813Y-66629D01*
X-48797Y-66598D01*
X-48728Y-66434D01*
X-48696Y-66419D01*
X-48658Y-66365D01*
X-48642Y-66333D01*
X-48595Y-66225D01*
X-48549Y-66178D01*
X-48456Y-66007D01*
X-48394Y-65945D01*
X-48300Y-65774D01*
X-48238Y-65712D01*
X-48160Y-65572D01*
X-48083Y-65494D01*
X-48020Y-65385D01*
X-47997Y-65362D01*
X-47927Y-65277D01*
X-47865Y-65168D01*
X-47779Y-65082D01*
X-47702Y-64958D01*
X-47671Y-64942D01*
X-47601Y-64857D01*
X-47585Y-64826D01*
X-47515Y-64756D01*
X-47445Y-64671D01*
X-47430Y-64640D01*
X-47399Y-64608D01*
X-47383Y-64577D01*
X-47290Y-64484D01*
X-47274Y-64453D01*
X-47166Y-64344D01*
X-47150Y-64313D01*
X-47119Y-64282D01*
X-47104Y-64251D01*
X-47080Y-64228D01*
X-47049Y-64212D01*
X-47010Y-64173D01*
X-46995Y-64142D01*
X-46964Y-64111D01*
X-46948Y-64080D01*
X-46925Y-64072D01*
X-46855Y-64002D01*
X-46839Y-63971D01*
X-46769Y-63901D01*
X-46738Y-63886D01*
X-46715Y-63862D01*
X-46699Y-63831D01*
X-46630Y-63761D01*
X-46575Y-63723D01*
X-46560Y-63691D01*
X-46474Y-63606D01*
X-46443Y-63590D01*
X-46404Y-63552D01*
X-46389Y-63520D01*
X-46350Y-63482D01*
X-46319Y-63466D01*
X-46163Y-63311D01*
X-46132Y-63295D01*
X-46078Y-63241D01*
X-46062Y-63210D01*
X-46008Y-63171D01*
X-45977Y-63155D01*
X-45868Y-63046D01*
X-45837Y-63031D01*
X-45806Y-63000D01*
X-45775Y-62984D01*
X-45681Y-62891D01*
X-45650Y-62875D01*
X-45619Y-62844D01*
X-45588Y-62829D01*
X-45510Y-62751D01*
X-45433Y-62705D01*
X-45339Y-62611D01*
X-45285Y-62572D01*
X-45192Y-62510D01*
X-45176Y-62479D01*
X-45122Y-62440D01*
X-45013Y-62378D01*
X-44982Y-62363D01*
X-44920Y-62300D01*
X-44811Y-62238D01*
X-44718Y-62145D01*
X-44586Y-62075D01*
X-44500Y-62005D01*
X-44360Y-61927D01*
X-44314Y-61881D01*
X-44205Y-61803D01*
X-44143Y-61788D01*
X-44112Y-61757D01*
X-44081Y-61741D01*
X-44050Y-61710D01*
X-43972Y-61663D01*
X-43894Y-61632D01*
X-43847Y-61585D01*
X-43708Y-61508D01*
X-43630Y-61477D01*
X-43583Y-61430D01*
X-43529Y-61391D01*
X-43428Y-61352D01*
X-43342Y-61314D01*
X-43257Y-61244D01*
X-43133Y-61197D01*
X-43055Y-61166D01*
X-43024Y-61135D01*
X-42969Y-61096D01*
X-42868Y-61057D01*
X-42806Y-61042D01*
X-42713Y-60979D01*
X-42604Y-60917D01*
X-42480Y-60886D01*
X-42371Y-60808D01*
X-42293Y-60777D01*
X-42185Y-60746D01*
X-42115Y-60723D01*
X-42021Y-60661D01*
X-41920Y-60622D01*
X-41858Y-60606D01*
X-41749Y-60575D01*
X-41656Y-60513D01*
X-41602Y-60490D01*
X-41516Y-60466D01*
X-41454Y-60451D01*
X-41345Y-60420D01*
X-41213Y-60350D01*
X-41050Y-60311D01*
X-40926Y-60280D01*
X-40747Y-60195D01*
X-40630Y-60171D01*
X-40568Y-60156D01*
X-40459Y-60140D01*
X-40327Y-60086D01*
X-40250Y-60055D01*
X-40149Y-60031D01*
X-40086Y-60016D01*
X-39931Y-60000D01*
X-39799Y-59961D01*
X-39674Y-59915D01*
X-39612Y-59899D01*
X-39535Y-59884D01*
X-39309Y-59860D01*
X-39247Y-59845D01*
X-39138Y-59829D01*
X-39053Y-59806D01*
X-38866Y-59759D01*
X-38789Y-59744D01*
X-38431Y-59713D01*
X-38245Y-59697D01*
X-38105Y-59682D01*
X-38012Y-59666D01*
X-37810Y-59635D01*
X-37670Y-59619D01*
X-37351Y-59596D01*
X-37304Y-59581D01*
X-35805Y-59588D01*
D02*
G37*
G36*
X9616Y-62300D02*
X9678Y-62316D01*
X9888Y-62339D01*
X10012Y-62355D01*
X10253Y-62378D01*
X10362Y-62394D01*
X10518Y-62409D01*
X10580Y-62425D01*
X10805Y-62495D01*
X10922Y-62518D01*
X10984Y-62534D01*
X11170Y-62565D01*
X11349Y-62650D01*
X11411Y-62666D01*
X11590Y-62705D01*
X11784Y-62806D01*
X11909Y-62837D01*
X11994Y-62860D01*
X12103Y-62938D01*
X12204Y-62976D01*
X12289Y-63000D01*
X12383Y-63062D01*
X12437Y-63101D01*
X12538Y-63140D01*
X12616Y-63171D01*
X12662Y-63217D01*
X12771Y-63280D01*
X12849Y-63311D01*
X12895Y-63357D01*
X13066Y-63450D01*
X13144Y-63528D01*
X13284Y-63606D01*
X13362Y-63684D01*
X13470Y-63746D01*
X13525Y-63800D01*
X13610Y-63870D01*
X13641Y-63886D01*
X13766Y-64010D01*
X13797Y-64026D01*
X13851Y-64080D01*
X13867Y-64111D01*
X13906Y-64150D01*
X14045Y-64228D01*
X14100Y-64220D01*
X14116Y-62821D01*
X14146Y-62743D01*
X14170Y-62720D01*
X18521Y-62705D01*
X18584Y-62720D01*
X18615Y-62767D01*
X18630Y-62860D01*
X18622Y-79482D01*
X18638Y-79684D01*
X18622Y-79793D01*
X18584Y-79832D01*
X13937Y-79847D01*
X13851Y-79808D01*
X13812Y-79754D01*
X13820Y-69815D01*
X13805Y-69426D01*
X13789Y-69364D01*
X13758Y-69178D01*
X13742Y-69116D01*
X13696Y-68789D01*
X13680Y-68727D01*
X13649Y-68649D01*
X13626Y-68626D01*
X13571Y-68478D01*
X13556Y-68416D01*
X13509Y-68307D01*
X13494Y-68276D01*
X13455Y-68237D01*
X13416Y-68136D01*
X13385Y-68059D01*
X13323Y-67997D01*
X13245Y-67857D01*
X13230Y-67825D01*
X13152Y-67748D01*
X13105Y-67670D01*
X13051Y-67616D01*
X13020Y-67600D01*
X12996Y-67577D01*
X12981Y-67546D01*
X12895Y-67460D01*
X12864Y-67445D01*
X12825Y-67406D01*
X12810Y-67375D01*
X12693Y-67289D01*
X12662Y-67274D01*
X12600Y-67212D01*
X12491Y-67149D01*
X12383Y-67072D01*
X12149Y-66947D01*
X12010Y-66870D01*
X11885Y-66839D01*
X11722Y-66769D01*
X11598Y-66722D01*
X11473Y-66707D01*
X11380Y-66691D01*
X11194Y-66644D01*
X11116Y-66629D01*
X10968Y-66606D01*
X10906Y-66590D01*
X10564Y-66574D01*
X10549D01*
X10238Y-66590D01*
X10082Y-66606D01*
X10020Y-66621D01*
X9911Y-66637D01*
X9826Y-66660D01*
X9764Y-66675D01*
X9686Y-66691D01*
X9538Y-66714D01*
X9430Y-66730D01*
X9197Y-66839D01*
X9134Y-66854D01*
X9025Y-66885D01*
X8948Y-66932D01*
X8839Y-66994D01*
X8730Y-67041D01*
X8699Y-67056D01*
X8637Y-67118D01*
X8528Y-67181D01*
X8497Y-67196D01*
X8474Y-67219D01*
X8458Y-67250D01*
X8435Y-67258D01*
X8404Y-67289D01*
X8373Y-67305D01*
X8326Y-67351D01*
X8295Y-67367D01*
X8280Y-67398D01*
X8248Y-67414D01*
X8085Y-67577D01*
X8070Y-67608D01*
X8039Y-67639D01*
X8023Y-67670D01*
X7961Y-67732D01*
X7883Y-67841D01*
X7868Y-67872D01*
X7782Y-67958D01*
X7751Y-68035D01*
X7712Y-68136D01*
X7642Y-68206D01*
X7611Y-68284D01*
X7588Y-68369D01*
X7464Y-68634D01*
X7448Y-68758D01*
X7417Y-68882D01*
X7386Y-68991D01*
X7347Y-69123D01*
X7332Y-69216D01*
X7316Y-69356D01*
X7300Y-79536D01*
X7308Y-79731D01*
X7293Y-79793D01*
X7254Y-79832D01*
X2653Y-79847D01*
X2545Y-79832D01*
X2498Y-79785D01*
X2482Y-79723D01*
X2490Y-69146D01*
X2506Y-69038D01*
X2521Y-68416D01*
X2537Y-68167D01*
X2552Y-68012D01*
X2576Y-67802D01*
X2638Y-67554D01*
X2653Y-67460D01*
X2677Y-67266D01*
X2692Y-67204D01*
X2708Y-67095D01*
X2747Y-66994D01*
X2801Y-66846D01*
X2817Y-66784D01*
X2832Y-66675D01*
X2863Y-66551D01*
X2918Y-66450D01*
X2949Y-66372D01*
X2964Y-66310D01*
X2988Y-66209D01*
X3034Y-66100D01*
X3112Y-65960D01*
X3127Y-65867D01*
X3174Y-65758D01*
X3228Y-65704D01*
X3267Y-65603D01*
X3298Y-65494D01*
X3345Y-65448D01*
X3407Y-65339D01*
X3454Y-65230D01*
X3469Y-65199D01*
X3493Y-65191D01*
X3563Y-65075D01*
X3594Y-64997D01*
X3632Y-64958D01*
X3733Y-64810D01*
X3749Y-64779D01*
X3827Y-64702D01*
X3905Y-64562D01*
X3959Y-64507D01*
X4029Y-64422D01*
X4044Y-64391D01*
X4169Y-64266D01*
X4184Y-64235D01*
X4223Y-64197D01*
X4254Y-64181D01*
X4293Y-64142D01*
X4309Y-64111D01*
X4394Y-64026D01*
X4425Y-64010D01*
X4448Y-63987D01*
X4464Y-63956D01*
X4518Y-63901D01*
X4550Y-63886D01*
X4635Y-63800D01*
X4720Y-63730D01*
X4752Y-63715D01*
X4845Y-63622D01*
X4876Y-63606D01*
X4969Y-63544D01*
X5000Y-63528D01*
X5062Y-63466D01*
X5171Y-63404D01*
X5233Y-63342D01*
X5404Y-63249D01*
X5435Y-63233D01*
X5466Y-63202D01*
X5606Y-63124D01*
X5684Y-63093D01*
X5715Y-63062D01*
X5855Y-62984D01*
X5917Y-62969D01*
X6003Y-62930D01*
X6127Y-62852D01*
X6212Y-62829D01*
X6275Y-62813D01*
X6469Y-62712D01*
X6531Y-62697D01*
X6648Y-62673D01*
X6733Y-62650D01*
X6811Y-62619D01*
X6904Y-62572D01*
X6966Y-62557D01*
X7192Y-62518D01*
X7254Y-62502D01*
X7363Y-62471D01*
X7433Y-62448D01*
X7557Y-62417D01*
X7650Y-62401D01*
X7922Y-62378D01*
X8031Y-62363D01*
X8241Y-62339D01*
X8482Y-62316D01*
X8528Y-62300D01*
X9274Y-62285D01*
X9616Y-62300D01*
D02*
G37*
G36*
X87581Y-62293D02*
X87908Y-62308D01*
X88110Y-62324D01*
X88203Y-62339D01*
X88358Y-62355D01*
X88693Y-62378D01*
X88848Y-62394D01*
X89058Y-62417D01*
X89135Y-62432D01*
X89322Y-62479D01*
X89400Y-62495D01*
X89586Y-62526D01*
X89765Y-62549D01*
X89827Y-62565D01*
X89959Y-62604D01*
X90130Y-62666D01*
X90278Y-62689D01*
X90402Y-62720D01*
X90581Y-62806D01*
X90643Y-62821D01*
X90721Y-62837D01*
X90822Y-62860D01*
X90938Y-62930D01*
X91016Y-62961D01*
X91101Y-62984D01*
X91164Y-63000D01*
X91241Y-63046D01*
X91272Y-63062D01*
X91296Y-63085D01*
X91443Y-63140D01*
X91521Y-63171D01*
X91552Y-63186D01*
X91607Y-63241D01*
X91708Y-63280D01*
X91785Y-63311D01*
X91816Y-63326D01*
X91847Y-63357D01*
X92050Y-63466D01*
X92096Y-63513D01*
X92267Y-63606D01*
X92345Y-63684D01*
X92454Y-63746D01*
X92547Y-63839D01*
X92625Y-63886D01*
X92733Y-63994D01*
X92764Y-64010D01*
X92889Y-64134D01*
X92920Y-64150D01*
X93083Y-64313D01*
X93098Y-64344D01*
X93223Y-64468D01*
X93238Y-64500D01*
X93270Y-64531D01*
X93285Y-64562D01*
X93308Y-64585D01*
X93340Y-64601D01*
X93409Y-64717D01*
X93487Y-64795D01*
X93534Y-64873D01*
X93689Y-65090D01*
X93705Y-65152D01*
X93736Y-65183D01*
X93751Y-65215D01*
X93775Y-65222D01*
X93829Y-65323D01*
X93891Y-65463D01*
X93907Y-65494D01*
X93946Y-65533D01*
X93984Y-65634D01*
X94016Y-65743D01*
X94070Y-65844D01*
X94117Y-65937D01*
X94140Y-66054D01*
X94171Y-66163D01*
X94249Y-66333D01*
X94264Y-66380D01*
X94280Y-66520D01*
X94295Y-66582D01*
X94311Y-66691D01*
X94342Y-66815D01*
X94365Y-66901D01*
X94396Y-67056D01*
X94412Y-67181D01*
X94435Y-67639D01*
X94420Y-68401D01*
X94396Y-68610D01*
X94381Y-68672D01*
X94365Y-68766D01*
X94350Y-68828D01*
X94334Y-68906D01*
X94319Y-68968D01*
X94303Y-69046D01*
X94280Y-69209D01*
X94249Y-69333D01*
X94210Y-69434D01*
X94163Y-69527D01*
X94140Y-69628D01*
X94124Y-69690D01*
X94078Y-69799D01*
X94062Y-69830D01*
X94039Y-69854D01*
X93984Y-70001D01*
X93953Y-70079D01*
X93938Y-70110D01*
X93907Y-70141D01*
X93845Y-70250D01*
X93798Y-70359D01*
X93751Y-70405D01*
X93674Y-70545D01*
X93611Y-70608D01*
X93534Y-70716D01*
X93518Y-70747D01*
X93425Y-70841D01*
X93409Y-70872D01*
X93378Y-70903D01*
X93363Y-70934D01*
X93238Y-71058D01*
X93223Y-71089D01*
X93168Y-71144D01*
X93137Y-71159D01*
X93036Y-71260D01*
X92951Y-71330D01*
X92920Y-71346D01*
X92873Y-71392D01*
X92733Y-71501D01*
X92702Y-71517D01*
X92625Y-71594D01*
X92516Y-71656D01*
X92454Y-71719D01*
X92283Y-71812D01*
X92252Y-71843D01*
X92143Y-71921D01*
X92081Y-71936D01*
X91917Y-72053D01*
X91816Y-72092D01*
X91739Y-72123D01*
X91708Y-72154D01*
X91568Y-72232D01*
X91505Y-72247D01*
X91420Y-72286D01*
X91296Y-72364D01*
X91195Y-72387D01*
X91117Y-72418D01*
X91024Y-72480D01*
X90923Y-72519D01*
X90845Y-72535D01*
X90760Y-72558D01*
X90643Y-72628D01*
X90565Y-72659D01*
X90464Y-72682D01*
X90355Y-72713D01*
X90153Y-72807D01*
X90060Y-72822D01*
X89998Y-72838D01*
X89889Y-72869D01*
X89804Y-72908D01*
X89679Y-72954D01*
X89547Y-72978D01*
X89423Y-73009D01*
X89353Y-73032D01*
X89198Y-73094D01*
X89135Y-73110D01*
X89003Y-73133D01*
X88879Y-73164D01*
X88778Y-73203D01*
X88700Y-73234D01*
X88615Y-73257D01*
X88553Y-73273D01*
X88444Y-73288D01*
X88320Y-73320D01*
X88242Y-73351D01*
X88156Y-73389D01*
X87978Y-73428D01*
X87869Y-73444D01*
X87768Y-73483D01*
X87690Y-73514D01*
X87589Y-73553D01*
X87527Y-73568D01*
X87340Y-73599D01*
X87162Y-73685D01*
X86998Y-73724D01*
X86936Y-73739D01*
X86742Y-73825D01*
X86664Y-73856D01*
X86579Y-73879D01*
X86439Y-73941D01*
X86353Y-73996D01*
X86268Y-74019D01*
X86159Y-74065D01*
X86113Y-74112D01*
X85942Y-74205D01*
X85802Y-74314D01*
X85771Y-74330D01*
X85530Y-74571D01*
X85468Y-74679D01*
X85405Y-74773D01*
X85351Y-74858D01*
X85336Y-74920D01*
X85312Y-75146D01*
X85297Y-75192D01*
X85304Y-75387D01*
X85328Y-75612D01*
X85359Y-75736D01*
X85421Y-75830D01*
X85514Y-76000D01*
X85530Y-76031D01*
X85607Y-76094D01*
X85623Y-76125D01*
X85724Y-76226D01*
X85755Y-76241D01*
X85872Y-76311D01*
X85965Y-76389D01*
X86050Y-76412D01*
X86128Y-76443D01*
X86229Y-76498D01*
X86307Y-76529D01*
X86680Y-76591D01*
X86812Y-76614D01*
X86859Y-76630D01*
X87154Y-76645D01*
X87200Y-76661D01*
X87488Y-76653D01*
X87628Y-76638D01*
X87706Y-76622D01*
X87799Y-76607D01*
X87877Y-76591D01*
X87970Y-76575D01*
X88226Y-76537D01*
X88366Y-76474D01*
X88483Y-76420D01*
X88584Y-76397D01*
X88661Y-76366D01*
X88693Y-76335D01*
X88895Y-76226D01*
X88926Y-76195D01*
X89066Y-76086D01*
X89097Y-76070D01*
X89236Y-75931D01*
X89268Y-75915D01*
X89291Y-75892D01*
X89306Y-75861D01*
X89353Y-75814D01*
X89369Y-75783D01*
X89407Y-75744D01*
X89477Y-75658D01*
X89539Y-75550D01*
X89602Y-75488D01*
X89648Y-75410D01*
X89711Y-75270D01*
X89788Y-75161D01*
X89804Y-75068D01*
X89850Y-74959D01*
X89928Y-74928D01*
X90029Y-74936D01*
X90107Y-74967D01*
X90247Y-75045D01*
X90433Y-75091D01*
X90565Y-75161D01*
X90643Y-75192D01*
X90806Y-75231D01*
X90892Y-75270D01*
X90985Y-75332D01*
X91070Y-75356D01*
X91195Y-75387D01*
X91304Y-75433D01*
X91327Y-75457D01*
X91404Y-75488D01*
X91490Y-75511D01*
X91614Y-75542D01*
X91731Y-75612D01*
X91809Y-75643D01*
X91871Y-75658D01*
X91972Y-75682D01*
X92166Y-75783D01*
X92329Y-75822D01*
X92438Y-75868D01*
X92469Y-75884D01*
X92492Y-75907D01*
X92570Y-75938D01*
X92632Y-75954D01*
X92733Y-75977D01*
X92834Y-76016D01*
X92928Y-76078D01*
X93013Y-76101D01*
X93137Y-76133D01*
X93246Y-76179D01*
X93270Y-76203D01*
X93347Y-76234D01*
X93510Y-76272D01*
X93705Y-76374D01*
X93790Y-76397D01*
X93868Y-76428D01*
X93899Y-76443D01*
X93938Y-76513D01*
X93922Y-76560D01*
X93868Y-76661D01*
X93829Y-76824D01*
X93767Y-76964D01*
X93728Y-77018D01*
X93689Y-77119D01*
X93658Y-77228D01*
X93611Y-77275D01*
X93596Y-77306D01*
X93573Y-77329D01*
X93518Y-77477D01*
X93487Y-77508D01*
X93472Y-77539D01*
X93425Y-77586D01*
X93409Y-77617D01*
X93378Y-77695D01*
X93301Y-77772D01*
X93238Y-77881D01*
X93207Y-77912D01*
X93192Y-77943D01*
X93145Y-77990D01*
X93068Y-78099D01*
X93052Y-78130D01*
X93029Y-78153D01*
X92998Y-78169D01*
X92974Y-78192D01*
X92959Y-78223D01*
X92928Y-78254D01*
X92912Y-78285D01*
X92889Y-78308D01*
X92858Y-78324D01*
X92827Y-78355D01*
X92749Y-78448D01*
X92718Y-78464D01*
X92617Y-78565D01*
X92531Y-78635D01*
X92500Y-78650D01*
X92407Y-78744D01*
X92267Y-78821D01*
X92189Y-78899D01*
X92081Y-78961D01*
X92018Y-79023D01*
X91816Y-79132D01*
X91770Y-79179D01*
X91661Y-79241D01*
X91583Y-79272D01*
X91552Y-79288D01*
X91521Y-79319D01*
X91412Y-79381D01*
X91350Y-79396D01*
X91272Y-79427D01*
X91249Y-79451D01*
X91156Y-79513D01*
X91070Y-79536D01*
X91008Y-79552D01*
X90899Y-79598D01*
X90861Y-79637D01*
X90783Y-79668D01*
X90682Y-79692D01*
X90557Y-79723D01*
X90394Y-79808D01*
X90332Y-79824D01*
X90184Y-79847D01*
X90076Y-79878D01*
X89975Y-79917D01*
X89897Y-79948D01*
X89835Y-79964D01*
X89547Y-80002D01*
X89423Y-80034D01*
X89314Y-80065D01*
X89229Y-80088D01*
X89042Y-80119D01*
X88871Y-80135D01*
X88584Y-80158D01*
X88475Y-80173D01*
X88133Y-80204D01*
X88086Y-80220D01*
X87465Y-80236D01*
X87418Y-80251D01*
X87255Y-80243D01*
X86703Y-80220D01*
X86353Y-80181D01*
X86229Y-80166D01*
X85864Y-80142D01*
X85755Y-80127D01*
X85545Y-80104D01*
X85468Y-80088D01*
X85219Y-80026D01*
X85118Y-80002D01*
X85009Y-79987D01*
X84823Y-79956D01*
X84691Y-79917D01*
X84566Y-79870D01*
X84387Y-79832D01*
X84325Y-79816D01*
X84162Y-79746D01*
X84084Y-79715D01*
X83906Y-79676D01*
X83797Y-79630D01*
X83766Y-79614D01*
X83742Y-79591D01*
X83595Y-79536D01*
X83533Y-79521D01*
X83455Y-79490D01*
X83400Y-79435D01*
X83276Y-79389D01*
X83191Y-79365D01*
X83144Y-79319D01*
X83004Y-79241D01*
X82927Y-79210D01*
X82895Y-79194D01*
X82849Y-79148D01*
X82771Y-79101D01*
X82693Y-79070D01*
X82616Y-78992D01*
X82476Y-78914D01*
X82398Y-78837D01*
X82289Y-78775D01*
X82219Y-78705D01*
X82134Y-78635D01*
X82103Y-78619D01*
X82079Y-78596D01*
X82064Y-78565D01*
X82025Y-78526D01*
X81994Y-78510D01*
X81753Y-78270D01*
X81738Y-78239D01*
X81683Y-78184D01*
X81652Y-78169D01*
X81582Y-78067D01*
X81567Y-78036D01*
X81520Y-77990D01*
X81442Y-77881D01*
X81427Y-77850D01*
X81365Y-77788D01*
X81271Y-77617D01*
X81225Y-77570D01*
X81147Y-77430D01*
X81116Y-77353D01*
X81085Y-77322D01*
X81069Y-77290D01*
X81046Y-77267D01*
X80992Y-77119D01*
X80945Y-77011D01*
X80906Y-76972D01*
X80875Y-76894D01*
X80852Y-76809D01*
X80836Y-76747D01*
X80766Y-76583D01*
X80735Y-76506D01*
X80712Y-76374D01*
X80696Y-76311D01*
X80681Y-76203D01*
X80650Y-76094D01*
X80634Y-76031D01*
X80603Y-75954D01*
X80587Y-75830D01*
X80572Y-75783D01*
X80556Y-75301D01*
X80541Y-75255D01*
X80556Y-74648D01*
X80572Y-74306D01*
X80587Y-74244D01*
X80603Y-74135D01*
X80619Y-74073D01*
X80642Y-73988D01*
X80657Y-73926D01*
X80696Y-73762D01*
X80712Y-73700D01*
X80727Y-73591D01*
X80836Y-73358D01*
X80852Y-73296D01*
X80898Y-73141D01*
X80929Y-73110D01*
X80945Y-73079D01*
X80968Y-73055D01*
X81038Y-72861D01*
X81085Y-72814D01*
X81194Y-72612D01*
X81256Y-72550D01*
X81318Y-72441D01*
X81411Y-72348D01*
X81458Y-72270D01*
X81512Y-72216D01*
X81543Y-72200D01*
X81621Y-72092D01*
X81652Y-72076D01*
X81738Y-71991D01*
X81753Y-71960D01*
X81776Y-71952D01*
X81932Y-71796D01*
X81963Y-71781D01*
X81994Y-71750D01*
X82025Y-71734D01*
X82033Y-71711D01*
X82118Y-71641D01*
X82149Y-71625D01*
X82227Y-71548D01*
X82367Y-71470D01*
X82398Y-71439D01*
X82429Y-71423D01*
X82460Y-71392D01*
X82600Y-71315D01*
X82662Y-71252D01*
X82771Y-71190D01*
X82880Y-71144D01*
X82927Y-71097D01*
X83004Y-71050D01*
X83167Y-70981D01*
X83253Y-70911D01*
X83315Y-70895D01*
X83486Y-70817D01*
X83572Y-70763D01*
X83657Y-70740D01*
X83797Y-70677D01*
X83828Y-70662D01*
X83851Y-70638D01*
X83952Y-70600D01*
X84014Y-70584D01*
X84123Y-70553D01*
X84279Y-70460D01*
X84372Y-70444D01*
X84496Y-70413D01*
X84729Y-70304D01*
X84823Y-70289D01*
X84885Y-70273D01*
X85056Y-70196D01*
X85110Y-70172D01*
X85172Y-70157D01*
X85289Y-70133D01*
X85398Y-70102D01*
X85483Y-70064D01*
X85607Y-70017D01*
X85724Y-69994D01*
X85848Y-69963D01*
X86043Y-69877D01*
X86105Y-69861D01*
X86182Y-69846D01*
X86315Y-69823D01*
X86478Y-69753D01*
X86556Y-69722D01*
X86633Y-69706D01*
X86765Y-69683D01*
X86929Y-69613D01*
X87006Y-69582D01*
X87247Y-69527D01*
X87472Y-69426D01*
X87535Y-69411D01*
X87636Y-69387D01*
X87698Y-69372D01*
X87892Y-69271D01*
X87954Y-69255D01*
X88055Y-69232D01*
X88164Y-69185D01*
X88203Y-69146D01*
X88281Y-69116D01*
X88366Y-69092D01*
X88475Y-69046D01*
X88506Y-69015D01*
X88615Y-68952D01*
X88677Y-68937D01*
X88786Y-68859D01*
X88926Y-68781D01*
X88957Y-68750D01*
X89097Y-68641D01*
X89128Y-68626D01*
X89198Y-68556D01*
X89213Y-68525D01*
X89236Y-68517D01*
X89306Y-68447D01*
X89384Y-68338D01*
X89400Y-68307D01*
X89446Y-68261D01*
X89508Y-68152D01*
X89633Y-67888D01*
X89648Y-67359D01*
X89633Y-67250D01*
X89602Y-67142D01*
X89563Y-67072D01*
X89524Y-66971D01*
X89462Y-66831D01*
X89353Y-66691D01*
X89338Y-66660D01*
X89268Y-66590D01*
X89236Y-66574D01*
X89166Y-66505D01*
X89081Y-66434D01*
X88949Y-66365D01*
X88863Y-66295D01*
X88809Y-66271D01*
X88723Y-66248D01*
X88646Y-66217D01*
X88506Y-66139D01*
X88358Y-66116D01*
X88172Y-66085D01*
X88094Y-66069D01*
X88032Y-66054D01*
X87877Y-66023D01*
X87737Y-66007D01*
X87488Y-65992D01*
X87029Y-65999D01*
X86967Y-66015D01*
X86757Y-66038D01*
X86602Y-66069D01*
X86416Y-66100D01*
X86276Y-66116D01*
X86128Y-66139D01*
X85965Y-66209D01*
X85887Y-66240D01*
X85809Y-66256D01*
X85709Y-66279D01*
X85607Y-66318D01*
X85483Y-66396D01*
X85398Y-66419D01*
X85312Y-66458D01*
X85227Y-66528D01*
X85196Y-66543D01*
X85087Y-66590D01*
X85040Y-66637D01*
X84931Y-66714D01*
X84900Y-66730D01*
X84823Y-66807D01*
X84791Y-66823D01*
X84760Y-66854D01*
X84729Y-66870D01*
X84488Y-67111D01*
X84473Y-67142D01*
X84442Y-67173D01*
X84426Y-67204D01*
X84333Y-67297D01*
X84271Y-67406D01*
X84209Y-67468D01*
X84131Y-67608D01*
X84092Y-67693D01*
X84022Y-67779D01*
X83991Y-67857D01*
X83975Y-67919D01*
X83937Y-68004D01*
X83875Y-68098D01*
X83859Y-68160D01*
X83836Y-68292D01*
X83797Y-68331D01*
X83688Y-68346D01*
X83432Y-68230D01*
X83346Y-68206D01*
X83222Y-68175D01*
X83105Y-68105D01*
X83027Y-68074D01*
X82965Y-68059D01*
X82864Y-68035D01*
X82670Y-67934D01*
X82507Y-67895D01*
X82398Y-67849D01*
X82266Y-67779D01*
X82204Y-67763D01*
X82103Y-67740D01*
X82002Y-67701D01*
X81909Y-67639D01*
X81823Y-67616D01*
X81699Y-67585D01*
X81590Y-67538D01*
X81567Y-67515D01*
X81489Y-67484D01*
X81403Y-67460D01*
X81279Y-67429D01*
X81163Y-67359D01*
X81085Y-67328D01*
X81023Y-67313D01*
X80922Y-67289D01*
X80727Y-67188D01*
X80564Y-67149D01*
X80455Y-67103D01*
X80424Y-67087D01*
X80401Y-67064D01*
X80300Y-67025D01*
X80113Y-66979D01*
X79966Y-66893D01*
X79880Y-66870D01*
X79803Y-66839D01*
X79779Y-66815D01*
X79764Y-66738D01*
X79787Y-66668D01*
X79826Y-66505D01*
X79950Y-66240D01*
X79997Y-66085D01*
X80028Y-66054D01*
X80106Y-65914D01*
X80121Y-65867D01*
Y-65852D01*
X80152Y-65774D01*
X80183Y-65743D01*
X80261Y-65603D01*
X80292Y-65525D01*
X80339Y-65479D01*
X80432Y-65308D01*
X80448Y-65277D01*
X80510Y-65215D01*
X80572Y-65106D01*
X80650Y-65028D01*
X80712Y-64919D01*
X80758Y-64873D01*
X80774Y-64841D01*
X80797Y-64834D01*
X80867Y-64733D01*
X80883Y-64702D01*
X81007Y-64577D01*
X81023Y-64546D01*
X81077Y-64492D01*
X81108Y-64476D01*
X81131Y-64453D01*
X81147Y-64422D01*
X81233Y-64336D01*
X81264Y-64321D01*
X81302Y-64282D01*
X81318Y-64251D01*
X81357Y-64212D01*
X81388Y-64197D01*
X81458Y-64142D01*
X81473Y-64111D01*
X81606Y-64010D01*
X81637Y-63994D01*
X81714Y-63917D01*
X81823Y-63855D01*
X81885Y-63792D01*
X81994Y-63715D01*
X82025Y-63699D01*
X82087Y-63637D01*
X82258Y-63544D01*
X82289Y-63528D01*
X82336Y-63482D01*
X82414Y-63435D01*
X82522Y-63388D01*
X82554Y-63373D01*
X82608Y-63318D01*
X82709Y-63280D01*
X82787Y-63249D01*
X82818Y-63233D01*
X82849Y-63202D01*
X82958Y-63140D01*
X83082Y-63109D01*
X83160Y-63062D01*
X83191Y-63046D01*
X83214Y-63023D01*
X83292Y-62992D01*
X83393Y-62969D01*
X83572Y-62883D01*
X83649Y-62852D01*
X83750Y-62829D01*
X83812Y-62813D01*
X83975Y-62743D01*
X84053Y-62712D01*
X84154Y-62689D01*
X84263Y-62673D01*
X84387Y-62642D01*
X84520Y-62588D01*
X84605Y-62565D01*
X84652Y-62549D01*
X84838Y-62534D01*
X84900Y-62518D01*
X85009Y-62502D01*
X85071Y-62487D01*
X85203Y-62448D01*
X85359Y-62417D01*
X85483Y-62401D01*
X85856Y-62370D01*
X86074Y-62355D01*
X86346Y-62332D01*
X86392Y-62316D01*
X86796Y-62300D01*
X86843Y-62285D01*
X87581Y-62293D01*
D02*
G37*
G36*
X45976D02*
X46178Y-62308D01*
X46318Y-62324D01*
X46473Y-62339D01*
X46613Y-62355D01*
X46769Y-62370D01*
X47118Y-62394D01*
X47181Y-62409D01*
X47367Y-62440D01*
X47453Y-62464D01*
X47639Y-62510D01*
X47732Y-62526D01*
X47872Y-62541D01*
X47965Y-62557D01*
X48028Y-62572D01*
X48152Y-62619D01*
X48229Y-62650D01*
X48292Y-62666D01*
X48439Y-62689D01*
X48595Y-62736D01*
X48680Y-62774D01*
X48828Y-62829D01*
X48937Y-62844D01*
X49201Y-62969D01*
X49294Y-62984D01*
X49434Y-63046D01*
X49465Y-63062D01*
X49488Y-63085D01*
X49566Y-63116D01*
X49667Y-63140D01*
X49745Y-63171D01*
X49776Y-63202D01*
X49807Y-63217D01*
X49830Y-63241D01*
X49931Y-63280D01*
X50040Y-63311D01*
X50087Y-63357D01*
X50118Y-63373D01*
X50141Y-63396D01*
X50242Y-63435D01*
X50320Y-63466D01*
X50343Y-63489D01*
X50468Y-63567D01*
X50569Y-63606D01*
X50615Y-63653D01*
X50817Y-63761D01*
X50879Y-63823D01*
X51019Y-63901D01*
X51082Y-63963D01*
X51252Y-64057D01*
X51330Y-64134D01*
X51338Y-64142D01*
X51392Y-64181D01*
X51423Y-64197D01*
X51478Y-64251D01*
X51563Y-64321D01*
X51594Y-64336D01*
X51649Y-64391D01*
X51734Y-64461D01*
X51765Y-64476D01*
X51874Y-64585D01*
X51905Y-64601D01*
X51952Y-64647D01*
X51983Y-64663D01*
X52006Y-64686D01*
X52045Y-64741D01*
X52076Y-64756D01*
X52472Y-65152D01*
X52488Y-65183D01*
X52597Y-65292D01*
X52612Y-65323D01*
X52643Y-65354D01*
X52659Y-65385D01*
X52721Y-65448D01*
X52830Y-65588D01*
X52846Y-65619D01*
X52869Y-65642D01*
X52900Y-65657D01*
X52970Y-65758D01*
X52985Y-65790D01*
X53079Y-65883D01*
X53141Y-65992D01*
X53156Y-66023D01*
X53203Y-66069D01*
X53281Y-66209D01*
X53327Y-66256D01*
X53405Y-66365D01*
X53421Y-66427D01*
X53452Y-66458D01*
X53467Y-66489D01*
X53521Y-66543D01*
X53576Y-66691D01*
X53615Y-66730D01*
X53677Y-66823D01*
X53739Y-66979D01*
X53809Y-67064D01*
X53825Y-67095D01*
X53856Y-67173D01*
X53918Y-67313D01*
X53957Y-67367D01*
X53988Y-67445D01*
X54011Y-67530D01*
X54058Y-67639D01*
X54135Y-67779D01*
X54166Y-67903D01*
X54244Y-68074D01*
X54268Y-68129D01*
X54306Y-68292D01*
X54322Y-68354D01*
X54407Y-68548D01*
X54423Y-68610D01*
X54446Y-68711D01*
X54462Y-68820D01*
X54477Y-68882D01*
X54563Y-69154D01*
X54594Y-69341D01*
X54609Y-69481D01*
X54625Y-69574D01*
X54656Y-69729D01*
X54687Y-69854D01*
X54718Y-70040D01*
X54734Y-70196D01*
X54757Y-70701D01*
X54773Y-71136D01*
X54757Y-71711D01*
X54742Y-72193D01*
X54726Y-72395D01*
X54703Y-72605D01*
X54687Y-72682D01*
X54640Y-72869D01*
X54625Y-72947D01*
X54602Y-73172D01*
X54586Y-73234D01*
X54571Y-73343D01*
X54485Y-73615D01*
X54470Y-73677D01*
X54446Y-73825D01*
X54431Y-73887D01*
X54400Y-73996D01*
X54322Y-74166D01*
X54306Y-74260D01*
X54291Y-74322D01*
X54260Y-74431D01*
X54174Y-74594D01*
X54159Y-74656D01*
X54143Y-74734D01*
X54120Y-74819D01*
X54042Y-74928D01*
X54011Y-75006D01*
X53995Y-75068D01*
X53933Y-75208D01*
X53871Y-75317D01*
X53840Y-75394D01*
X53825Y-75457D01*
X53794Y-75488D01*
X53778Y-75519D01*
X53747Y-75550D01*
X53731Y-75581D01*
X53669Y-75736D01*
X53654Y-75767D01*
X53622Y-75798D01*
X53514Y-76000D01*
X53498Y-76031D01*
X53467Y-76063D01*
X53374Y-76234D01*
X53296Y-76311D01*
X53218Y-76451D01*
X53203Y-76482D01*
X53156Y-76529D01*
X53094Y-76638D01*
X53016Y-76715D01*
X52977Y-76770D01*
X52915Y-76863D01*
X52884Y-76879D01*
X52799Y-76995D01*
X52783Y-77026D01*
X52690Y-77119D01*
X52674Y-77151D01*
X52643Y-77182D01*
X52628Y-77213D01*
X52519Y-77322D01*
X52504Y-77353D01*
X52123Y-77733D01*
X52068Y-77772D01*
X52053Y-77803D01*
X51998Y-77858D01*
X51967Y-77873D01*
X51882Y-77959D01*
X51796Y-78029D01*
X51765Y-78044D01*
X51719Y-78091D01*
X51688Y-78106D01*
X51625Y-78169D01*
X51548Y-78215D01*
X51501Y-78262D01*
X51361Y-78371D01*
X51330Y-78386D01*
X51322Y-78409D01*
X51283Y-78448D01*
X51175Y-78510D01*
X51144Y-78526D01*
X51120Y-78549D01*
X51035Y-78619D01*
X51004Y-78635D01*
X50926Y-78666D01*
X50848Y-78744D01*
X50677Y-78837D01*
X50646Y-78852D01*
X50615Y-78884D01*
X50506Y-78946D01*
X50421Y-78984D01*
X50335Y-79054D01*
X50164Y-79117D01*
X50118Y-79163D01*
X49978Y-79241D01*
X49885Y-79256D01*
X49791Y-79319D01*
X49683Y-79381D01*
X49512Y-79427D01*
X49488Y-79451D01*
X49395Y-79513D01*
X49271Y-79544D01*
X49170Y-79567D01*
X49053Y-79637D01*
X48976Y-79668D01*
X48797Y-79707D01*
X48634Y-79777D01*
X48556Y-79808D01*
X48494Y-79824D01*
X48362Y-79847D01*
X48299Y-79863D01*
X48167Y-79901D01*
X48043Y-79948D01*
X47981Y-79964D01*
X47888Y-79979D01*
X47693Y-80002D01*
X47631Y-80018D01*
X47522Y-80049D01*
X47437Y-80072D01*
X47375Y-80088D01*
X47173Y-80119D01*
X47017Y-80135D01*
X46800Y-80150D01*
X46520Y-80181D01*
X46263Y-80204D01*
X46217Y-80220D01*
X45689Y-80236D01*
X45642Y-80251D01*
X45448Y-80243D01*
X44981Y-80228D01*
X44826Y-80212D01*
X44406Y-80166D01*
X44134Y-80142D01*
X43979Y-80127D01*
X43715Y-80096D01*
X43653Y-80080D01*
X43544Y-80049D01*
X43458Y-80026D01*
X43381Y-80010D01*
X43287Y-79995D01*
X43147Y-79979D01*
X42992Y-79948D01*
X42914Y-79917D01*
X42790Y-79870D01*
X42728Y-79855D01*
X42580Y-79832D01*
X42471Y-79800D01*
X42386Y-79762D01*
X42192Y-79692D01*
X42083Y-79676D01*
X42005Y-79645D01*
X41904Y-79591D01*
X41826Y-79559D01*
X41725Y-79536D01*
X41585Y-79474D01*
X41554Y-79458D01*
X41531Y-79435D01*
X41453Y-79404D01*
X41352Y-79381D01*
X41275Y-79350D01*
X41244Y-79319D01*
X41158Y-79264D01*
X41073Y-79241D01*
X40995Y-79210D01*
X40964Y-79194D01*
X40933Y-79163D01*
X40878Y-79124D01*
X40777Y-79085D01*
X40692Y-79047D01*
X40606Y-78977D01*
X40575Y-78961D01*
X40466Y-78914D01*
X40435Y-78899D01*
X40389Y-78852D01*
X40280Y-78790D01*
X40202Y-78759D01*
X40140Y-78697D01*
X40000Y-78619D01*
X39922Y-78541D01*
X39814Y-78479D01*
X39783Y-78464D01*
X39736Y-78417D01*
X39627Y-78340D01*
X39596Y-78324D01*
X39542Y-78270D01*
X39456Y-78200D01*
X39425Y-78184D01*
X39316Y-78075D01*
X39285Y-78060D01*
X39176Y-77951D01*
X39145Y-77935D01*
X38990Y-77780D01*
X38959Y-77764D01*
X38625Y-77430D01*
X38609Y-77399D01*
X38485Y-77275D01*
X38469Y-77244D01*
X38345Y-77119D01*
X38330Y-77088D01*
X38236Y-76995D01*
X38190Y-76917D01*
X38081Y-76809D01*
X38019Y-76700D01*
X38003Y-76669D01*
X37941Y-76607D01*
X37863Y-76467D01*
X37785Y-76389D01*
X37708Y-76249D01*
X37692Y-76218D01*
X37646Y-76171D01*
X37552Y-76000D01*
X37537Y-75969D01*
X37498Y-75931D01*
X37389Y-75713D01*
X37319Y-75627D01*
X37296Y-75573D01*
X37273Y-75488D01*
X37211Y-75394D01*
X37148Y-75286D01*
X37133Y-75223D01*
X37094Y-75122D01*
X37032Y-75029D01*
X36993Y-74928D01*
X36946Y-74773D01*
X36869Y-74648D01*
X36822Y-74462D01*
X36752Y-74299D01*
X36721Y-74221D01*
X36682Y-74042D01*
X36628Y-73864D01*
X36565Y-73692D01*
X36527Y-73436D01*
X36511Y-73374D01*
X36457Y-73195D01*
X36441Y-73133D01*
X36410Y-72962D01*
X36387Y-72721D01*
X36371Y-72612D01*
X36348Y-72403D01*
X36317Y-72216D01*
X36301Y-72092D01*
X36278Y-71758D01*
X36262Y-71711D01*
X36270Y-71656D01*
X36262Y-70996D01*
X36278Y-70934D01*
X36262Y-70887D01*
X36270Y-70817D01*
X36286Y-70600D01*
X36301Y-70429D01*
X36317Y-70304D01*
X36340Y-70172D01*
X36356Y-70110D01*
X36371Y-69955D01*
X36387Y-69846D01*
X36418Y-69504D01*
X36449Y-69380D01*
X36503Y-69201D01*
X36519Y-69139D01*
X36542Y-68976D01*
X36558Y-68913D01*
X36573Y-68805D01*
X36604Y-68727D01*
X36659Y-68595D01*
X36713Y-68338D01*
X36783Y-68175D01*
X36830Y-68051D01*
X36845Y-67989D01*
X36869Y-67888D01*
X36939Y-67771D01*
X36970Y-67693D01*
X36993Y-67608D01*
X37055Y-67468D01*
X37071Y-67437D01*
X37094Y-67414D01*
X37164Y-67219D01*
X37211Y-67142D01*
X37249Y-67087D01*
X37288Y-66986D01*
X37335Y-66877D01*
X37366Y-66846D01*
X37444Y-66707D01*
X37475Y-66629D01*
X37521Y-66582D01*
X37583Y-66473D01*
X37615Y-66396D01*
X37677Y-66333D01*
X37692Y-66302D01*
X37716Y-66279D01*
X37754Y-66178D01*
X37848Y-66085D01*
X37910Y-65976D01*
X37925Y-65945D01*
X37964Y-65906D01*
X38065Y-65758D01*
X38081Y-65727D01*
X38159Y-65650D01*
X38205Y-65572D01*
X38314Y-65463D01*
X38330Y-65432D01*
X38454Y-65308D01*
X38469Y-65277D01*
X38609Y-65137D01*
X38625Y-65106D01*
X38695Y-65036D01*
X38726Y-65020D01*
X38734Y-64997D01*
X38959Y-64771D01*
X38990Y-64756D01*
X39130Y-64616D01*
X39161Y-64601D01*
X39231Y-64531D01*
X39246Y-64500D01*
X39285Y-64476D01*
X39316Y-64461D01*
X39386Y-64391D01*
X39472Y-64321D01*
X39503Y-64305D01*
X39565Y-64243D01*
X39674Y-64165D01*
X39705Y-64150D01*
X39783Y-64072D01*
X39891Y-64010D01*
X39922Y-63994D01*
X39985Y-63932D01*
X40125Y-63855D01*
X40187Y-63792D01*
X40296Y-63730D01*
X40373Y-63699D01*
X40396Y-63676D01*
X40482Y-63606D01*
X40513Y-63590D01*
X40622Y-63544D01*
X40653Y-63528D01*
X40684Y-63497D01*
X40770Y-63443D01*
X40855Y-63419D01*
X40948Y-63357D01*
X41003Y-63318D01*
X41150Y-63264D01*
X41228Y-63233D01*
X41282Y-63179D01*
X41360Y-63147D01*
X41446Y-63124D01*
X41585Y-63062D01*
X41671Y-63007D01*
X41795Y-62976D01*
X41896Y-62953D01*
X42013Y-62883D01*
X42091Y-62852D01*
X42269Y-62813D01*
X42432Y-62743D01*
X42533Y-62705D01*
X42596Y-62689D01*
X42705Y-62673D01*
X42767Y-62658D01*
X42945Y-62604D01*
X43023Y-62572D01*
X43085Y-62557D01*
X43179Y-62541D01*
X43373Y-62518D01*
X43497Y-62487D01*
X43583Y-62464D01*
X43707Y-62432D01*
X43893Y-62401D01*
X44282Y-62370D01*
X44437Y-62355D01*
X44709Y-62332D01*
X44756Y-62316D01*
X45051Y-62300D01*
X45098Y-62285D01*
X45976Y-62293D01*
D02*
G37*
G36*
X76741Y-80609D02*
X76943Y-80624D01*
X77005Y-80640D01*
X77184Y-80694D01*
X77246Y-80710D01*
X77378Y-80733D01*
X77440Y-80749D01*
X77518Y-80779D01*
X77533D01*
X77549Y-80795D01*
X77580Y-80811D01*
X77604Y-80834D01*
X77751Y-80888D01*
X77829Y-80919D01*
X77875Y-80966D01*
X78015Y-81044D01*
X78070Y-81098D01*
X78155Y-81168D01*
X78186Y-81184D01*
X78427Y-81425D01*
X78489Y-81533D01*
X78528Y-81572D01*
X78598Y-81658D01*
X78614Y-81689D01*
X78645Y-81766D01*
X78730Y-81883D01*
X78769Y-81984D01*
X78785Y-82046D01*
X78855Y-82209D01*
X78886Y-82287D01*
X78901Y-82349D01*
X78917Y-82474D01*
X78940Y-82777D01*
X78956Y-82823D01*
X78948Y-83095D01*
X78932Y-83282D01*
X78909Y-83523D01*
X78878Y-83647D01*
X78792Y-83826D01*
X78754Y-83989D01*
X78691Y-84082D01*
X78575Y-84292D01*
X78544Y-84307D01*
X78505Y-84362D01*
X78458Y-84440D01*
X78194Y-84704D01*
X78109Y-84774D01*
X78078Y-84789D01*
X78000Y-84867D01*
X77860Y-84945D01*
X77829Y-84960D01*
X77798Y-84991D01*
X77689Y-85054D01*
X77580Y-85085D01*
X77464Y-85154D01*
X77386Y-85186D01*
X77308Y-85201D01*
X77122Y-85232D01*
X77059Y-85248D01*
X76958Y-85271D01*
X76912Y-85287D01*
X76679Y-85302D01*
X76632Y-85318D01*
X76453Y-85310D01*
X76314Y-85294D01*
X76220Y-85279D01*
X76143Y-85263D01*
X76018Y-85232D01*
X75855Y-85209D01*
X75731Y-85178D01*
X75599Y-85108D01*
X75404Y-85038D01*
X75311Y-84976D01*
X75140Y-84883D01*
X75109Y-84852D01*
X74969Y-84743D01*
X74938Y-84727D01*
X74915Y-84704D01*
X74899Y-84673D01*
X74860Y-84634D01*
X74829Y-84618D01*
X74759Y-84548D01*
X74744Y-84517D01*
X74651Y-84424D01*
X74573Y-84284D01*
X74518Y-84230D01*
X74456Y-84137D01*
X74402Y-83989D01*
X74379Y-83966D01*
X74316Y-83872D01*
X74293Y-83771D01*
X74278Y-83709D01*
X74231Y-83554D01*
X74200Y-83476D01*
X74184Y-83414D01*
X74169Y-83367D01*
X74153Y-82715D01*
X74184Y-82497D01*
X74223Y-82365D01*
X74270Y-82240D01*
X74293Y-82108D01*
X74355Y-81968D01*
X74410Y-81883D01*
X74464Y-81735D01*
X74526Y-81673D01*
X74604Y-81533D01*
X74728Y-81409D01*
X74744Y-81378D01*
X74798Y-81323D01*
X74829Y-81308D01*
X74868Y-81269D01*
X74884Y-81238D01*
X74954Y-81184D01*
X74985Y-81168D01*
X75078Y-81075D01*
X75218Y-80997D01*
X75249Y-80982D01*
X75280Y-80950D01*
X75334Y-80912D01*
X75482Y-80857D01*
X75637Y-80764D01*
X75855Y-80717D01*
X75917Y-80702D01*
X76049Y-80663D01*
X76135Y-80640D01*
X76181Y-80624D01*
X76477Y-80609D01*
X76523Y-80593D01*
X76741Y-80609D01*
D02*
G37*
G36*
X1457Y-62720D02*
X1496Y-62759D01*
X1511Y-66940D01*
X1457Y-66994D01*
X-8708Y-67010D01*
X-8770Y-67025D01*
X-8793Y-67048D01*
X-8809Y-85170D01*
X-8840Y-85279D01*
X-8863Y-85302D01*
X-8941Y-85318D01*
X-9096Y-85302D01*
X-9143Y-85318D01*
X-13269Y-85310D01*
X-13448Y-85318D01*
X-13557Y-85302D01*
X-13595Y-85263D01*
X-13634Y-85209D01*
X-13650Y-85085D01*
X-13642Y-62821D01*
X-13627Y-62759D01*
X-13588Y-62720D01*
X-1543Y-62705D01*
X1270D01*
X1332Y-62689D01*
X1457Y-62720D01*
D02*
G37*
G36*
X-77604Y-76160D02*
X-77357Y-76196D01*
X-77128Y-76249D01*
X-76934Y-76319D01*
X-76855Y-76346D01*
X-76776Y-76381D01*
X-76714Y-76407D01*
X-76661Y-76434D01*
X-76617Y-76451D01*
X-76582Y-76469D01*
X-76564Y-76487D01*
X-76555D01*
X-76353Y-76628D01*
X-76167Y-76795D01*
X-76009Y-76962D01*
X-75885Y-77121D01*
X-75780Y-77271D01*
X-75744Y-77333D01*
X-75709Y-77386D01*
X-75683Y-77430D01*
X-75665Y-77465D01*
X-75647Y-77483D01*
Y-77491D01*
X-75533Y-77747D01*
X-75454Y-77994D01*
X-75392Y-78232D01*
X-75356Y-78452D01*
X-75339Y-78549D01*
X-75330Y-78646D01*
X-75321Y-78725D01*
Y-78787D01*
X-75312Y-78849D01*
Y-78884D01*
Y-78910D01*
Y-78919D01*
X-75321Y-79131D01*
X-75339Y-79333D01*
X-75374Y-79527D01*
X-75418Y-79704D01*
X-75480Y-79871D01*
X-75533Y-80030D01*
X-75603Y-80171D01*
X-75665Y-80303D01*
X-75727Y-80417D01*
X-75797Y-80523D01*
X-75850Y-80611D01*
X-75903Y-80682D01*
X-75956Y-80744D01*
X-75991Y-80779D01*
X-76009Y-80805D01*
X-76018Y-80814D01*
X-76150Y-80946D01*
X-76291Y-81061D01*
X-76432Y-81158D01*
X-76582Y-81246D01*
X-76723Y-81316D01*
X-76864Y-81378D01*
X-77005Y-81422D01*
X-77128Y-81466D01*
X-77252Y-81493D01*
X-77366Y-81519D01*
X-77463Y-81528D01*
X-77551Y-81546D01*
X-77622D01*
X-77675Y-81554D01*
X-77719D01*
X-77930Y-81546D01*
X-78133Y-81510D01*
X-78318Y-81466D01*
X-78485Y-81422D01*
X-78626Y-81369D01*
X-78679Y-81343D01*
X-78732Y-81325D01*
X-78767Y-81308D01*
X-78794Y-81290D01*
X-78812Y-81281D01*
X-78820D01*
X-79005Y-81167D01*
X-79173Y-81043D01*
X-79323Y-80911D01*
X-79455Y-80779D01*
X-79552Y-80655D01*
X-79631Y-80559D01*
X-79658Y-80523D01*
X-79675Y-80497D01*
X-79693Y-80480D01*
X-79684Y-80691D01*
X-79675Y-80902D01*
X-79667Y-81096D01*
X-79649Y-81272D01*
X-79622Y-81440D01*
X-79596Y-81599D01*
X-79578Y-81740D01*
X-79552Y-81863D01*
X-79525Y-81969D01*
X-79499Y-82066D01*
X-79473Y-82154D01*
X-79455Y-82215D01*
X-79437Y-82268D01*
X-79420Y-82312D01*
X-79411Y-82330D01*
Y-82339D01*
X-79296Y-82568D01*
X-79182Y-82771D01*
X-79058Y-82947D01*
X-78935Y-83088D01*
X-78829Y-83203D01*
X-78750Y-83282D01*
X-78715Y-83308D01*
X-78688Y-83326D01*
X-78679Y-83344D01*
X-78671D01*
X-78530Y-83432D01*
X-78389Y-83502D01*
X-78247Y-83546D01*
X-78115Y-83582D01*
X-78001Y-83599D01*
X-77904Y-83617D01*
X-77824D01*
X-77719Y-83608D01*
X-77613Y-83599D01*
X-77419Y-83546D01*
X-77243Y-83485D01*
X-77102Y-83405D01*
X-76978Y-83326D01*
X-76890Y-83256D01*
X-76864Y-83229D01*
X-76837Y-83203D01*
X-76828Y-83194D01*
X-76820Y-83185D01*
X-76732Y-83070D01*
X-76661Y-82938D01*
X-76590Y-82797D01*
X-76538Y-82656D01*
X-76494Y-82533D01*
X-76467Y-82427D01*
X-76458Y-82383D01*
X-76449Y-82357D01*
X-76441Y-82339D01*
Y-82330D01*
X-75445Y-82409D01*
X-75471Y-82586D01*
X-75515Y-82744D01*
X-75559Y-82894D01*
X-75612Y-83035D01*
X-75674Y-83167D01*
X-75736Y-83291D01*
X-75797Y-83405D01*
X-75859Y-83502D01*
X-75921Y-83590D01*
X-75982Y-83670D01*
X-76035Y-83740D01*
X-76088Y-83793D01*
X-76123Y-83837D01*
X-76159Y-83864D01*
X-76176Y-83881D01*
X-76185Y-83890D01*
X-76308Y-83987D01*
X-76432Y-84066D01*
X-76555Y-84146D01*
X-76687Y-84207D01*
X-76828Y-84260D01*
X-76952Y-84304D01*
X-77207Y-84366D01*
X-77322Y-84392D01*
X-77428Y-84410D01*
X-77525Y-84419D01*
X-77604Y-84428D01*
X-77666Y-84437D01*
X-77763D01*
X-78001Y-84428D01*
X-78221Y-84392D01*
X-78433Y-84348D01*
X-78626Y-84287D01*
X-78812Y-84216D01*
X-78979Y-84137D01*
X-79138Y-84058D01*
X-79279Y-83969D01*
X-79402Y-83881D01*
X-79508Y-83802D01*
X-79605Y-83723D01*
X-79675Y-83652D01*
X-79737Y-83590D01*
X-79781Y-83546D01*
X-79808Y-83511D01*
X-79816Y-83502D01*
X-79966Y-83291D01*
X-80107Y-83053D01*
X-80222Y-82788D01*
X-80319Y-82515D01*
X-80407Y-82233D01*
X-80477Y-81951D01*
X-80530Y-81669D01*
X-80583Y-81387D01*
X-80618Y-81123D01*
X-80645Y-80876D01*
X-80662Y-80655D01*
X-80671Y-80462D01*
X-80680Y-80373D01*
Y-80303D01*
X-80689Y-80232D01*
Y-80180D01*
Y-80135D01*
Y-80100D01*
Y-80083D01*
Y-80074D01*
X-80680Y-79695D01*
X-80654Y-79342D01*
X-80618Y-79016D01*
X-80566Y-78717D01*
X-80504Y-78443D01*
X-80442Y-78196D01*
X-80372Y-77976D01*
X-80292Y-77782D01*
X-80222Y-77606D01*
X-80151Y-77456D01*
X-80090Y-77333D01*
X-80028Y-77236D01*
X-79975Y-77156D01*
X-79940Y-77104D01*
X-79913Y-77068D01*
X-79904Y-77059D01*
X-79755Y-76901D01*
X-79587Y-76760D01*
X-79429Y-76636D01*
X-79252Y-76531D01*
X-79085Y-76442D01*
X-78917Y-76363D01*
X-78750Y-76310D01*
X-78591Y-76257D01*
X-78441Y-76222D01*
X-78309Y-76196D01*
X-78186Y-76169D01*
X-78080Y-76160D01*
X-77992Y-76152D01*
X-77921Y-76143D01*
X-77868D01*
X-77604Y-76160D01*
D02*
G37*
G36*
X-94606Y-84410D02*
X-96060D01*
X-98017Y-78752D01*
X-98070Y-78593D01*
X-98123Y-78452D01*
X-98167Y-78311D01*
X-98211Y-78188D01*
X-98246Y-78064D01*
X-98281Y-77958D01*
X-98316Y-77861D01*
X-98343Y-77773D01*
X-98369Y-77703D01*
X-98387Y-77632D01*
X-98405Y-77579D01*
X-98422Y-77527D01*
X-98431Y-77491D01*
X-98440Y-77465D01*
X-98449Y-77456D01*
Y-77447D01*
X-98475Y-77527D01*
X-98502Y-77615D01*
X-98563Y-77800D01*
X-98625Y-78003D01*
X-98687Y-78196D01*
X-98748Y-78373D01*
X-98775Y-78452D01*
X-98792Y-78514D01*
X-98810Y-78567D01*
X-98828Y-78611D01*
X-98836Y-78637D01*
Y-78646D01*
X-100767Y-84410D01*
X-102380D01*
Y-76275D01*
X-101340D01*
Y-83203D01*
X-98995Y-76275D01*
X-98026D01*
X-95646Y-83088D01*
Y-76275D01*
X-94606D01*
Y-84410D01*
D02*
G37*
G36*
X-81711Y-77236D02*
X-85722D01*
X-85581Y-77430D01*
X-85510Y-77518D01*
X-85440Y-77597D01*
X-85378Y-77668D01*
X-85334Y-77720D01*
X-85299Y-77756D01*
X-85290Y-77765D01*
X-85237Y-77817D01*
X-85166Y-77888D01*
X-85087Y-77958D01*
X-84999Y-78038D01*
X-84814Y-78214D01*
X-84620Y-78382D01*
X-84435Y-78540D01*
X-84355Y-78611D01*
X-84276Y-78672D01*
X-84223Y-78725D01*
X-84170Y-78760D01*
X-84144Y-78787D01*
X-84135Y-78796D01*
X-83941Y-78963D01*
X-83756Y-79122D01*
X-83589Y-79263D01*
X-83439Y-79404D01*
X-83298Y-79527D01*
X-83174Y-79651D01*
X-83060Y-79756D01*
X-82954Y-79853D01*
X-82866Y-79933D01*
X-82795Y-80012D01*
X-82734Y-80074D01*
X-82681Y-80127D01*
X-82646Y-80171D01*
X-82610Y-80197D01*
X-82601Y-80215D01*
X-82593Y-80224D01*
X-82425Y-80417D01*
X-82293Y-80594D01*
X-82178Y-80761D01*
X-82081Y-80911D01*
X-82011Y-81034D01*
X-81958Y-81131D01*
X-81940Y-81167D01*
X-81932Y-81193D01*
X-81923Y-81202D01*
Y-81211D01*
X-81852Y-81387D01*
X-81808Y-81563D01*
X-81773Y-81722D01*
X-81747Y-81872D01*
X-81729Y-81995D01*
X-81720Y-82092D01*
Y-82127D01*
Y-82154D01*
Y-82163D01*
Y-82171D01*
X-81729Y-82348D01*
X-81747Y-82515D01*
X-81782Y-82674D01*
X-81826Y-82832D01*
X-81879Y-82973D01*
X-81940Y-83106D01*
X-82002Y-83229D01*
X-82064Y-83335D01*
X-82126Y-83441D01*
X-82187Y-83529D01*
X-82249Y-83608D01*
X-82302Y-83670D01*
X-82346Y-83714D01*
X-82381Y-83758D01*
X-82399Y-83776D01*
X-82408Y-83784D01*
X-82540Y-83899D01*
X-82681Y-83996D01*
X-82831Y-84084D01*
X-82989Y-84163D01*
X-83139Y-84225D01*
X-83298Y-84278D01*
X-83448Y-84322D01*
X-83597Y-84357D01*
X-83730Y-84384D01*
X-83862Y-84401D01*
X-83976Y-84419D01*
X-84073Y-84428D01*
X-84153Y-84437D01*
X-84267D01*
X-84479Y-84428D01*
X-84682Y-84410D01*
X-84867Y-84384D01*
X-85043Y-84340D01*
X-85210Y-84296D01*
X-85360Y-84243D01*
X-85501Y-84190D01*
X-85625Y-84137D01*
X-85739Y-84075D01*
X-85836Y-84022D01*
X-85924Y-83969D01*
X-85995Y-83925D01*
X-86048Y-83881D01*
X-86083Y-83855D01*
X-86109Y-83837D01*
X-86118Y-83828D01*
X-86242Y-83714D01*
X-86347Y-83582D01*
X-86444Y-83449D01*
X-86532Y-83300D01*
X-86603Y-83159D01*
X-86673Y-83018D01*
X-86726Y-82868D01*
X-86770Y-82736D01*
X-86814Y-82603D01*
X-86841Y-82480D01*
X-86867Y-82365D01*
X-86885Y-82268D01*
X-86894Y-82189D01*
X-86903Y-82136D01*
X-86911Y-82101D01*
Y-82083D01*
X-85889Y-81978D01*
X-85880Y-82119D01*
X-85871Y-82251D01*
X-85819Y-82480D01*
X-85748Y-82691D01*
X-85713Y-82780D01*
X-85669Y-82859D01*
X-85633Y-82929D01*
X-85589Y-82991D01*
X-85554Y-83044D01*
X-85528Y-83088D01*
X-85492Y-83123D01*
X-85475Y-83150D01*
X-85466Y-83159D01*
X-85457Y-83167D01*
X-85369Y-83247D01*
X-85281Y-83317D01*
X-85184Y-83370D01*
X-85087Y-83423D01*
X-84893Y-83502D01*
X-84708Y-83555D01*
X-84549Y-83582D01*
X-84479Y-83599D01*
X-84417D01*
X-84364Y-83608D01*
X-84170D01*
X-84047Y-83590D01*
X-83827Y-83546D01*
X-83642Y-83476D01*
X-83474Y-83405D01*
X-83351Y-83326D01*
X-83298Y-83291D01*
X-83254Y-83256D01*
X-83218Y-83229D01*
X-83192Y-83211D01*
X-83183Y-83203D01*
X-83174Y-83194D01*
X-83095Y-83115D01*
X-83033Y-83035D01*
X-82972Y-82956D01*
X-82928Y-82868D01*
X-82848Y-82700D01*
X-82795Y-82542D01*
X-82769Y-82409D01*
X-82751Y-82348D01*
Y-82295D01*
X-82743Y-82260D01*
Y-82224D01*
Y-82207D01*
Y-82198D01*
X-82751Y-82092D01*
X-82760Y-81986D01*
X-82813Y-81775D01*
X-82892Y-81572D01*
X-82980Y-81387D01*
X-83069Y-81228D01*
X-83104Y-81167D01*
X-83148Y-81105D01*
X-83174Y-81061D01*
X-83201Y-81026D01*
X-83210Y-81008D01*
X-83218Y-80999D01*
X-83315Y-80876D01*
X-83430Y-80744D01*
X-83562Y-80603D01*
X-83703Y-80462D01*
X-83994Y-80171D01*
X-84294Y-79897D01*
X-84435Y-79765D01*
X-84576Y-79651D01*
X-84699Y-79545D01*
X-84805Y-79457D01*
X-84893Y-79377D01*
X-84955Y-79325D01*
X-84999Y-79281D01*
X-85016Y-79272D01*
X-85175Y-79139D01*
X-85316Y-79016D01*
X-85457Y-78902D01*
X-85581Y-78787D01*
X-85704Y-78681D01*
X-85810Y-78575D01*
X-85907Y-78487D01*
X-85995Y-78399D01*
X-86074Y-78320D01*
X-86136Y-78249D01*
X-86198Y-78188D01*
X-86242Y-78144D01*
X-86286Y-78099D01*
X-86312Y-78073D01*
X-86321Y-78055D01*
X-86330Y-78047D01*
X-86488Y-77853D01*
X-86621Y-77659D01*
X-86735Y-77474D01*
X-86823Y-77306D01*
X-86894Y-77165D01*
X-86920Y-77104D01*
X-86947Y-77059D01*
X-86964Y-77015D01*
X-86973Y-76989D01*
X-86982Y-76971D01*
Y-76962D01*
X-87026Y-76839D01*
X-87052Y-76716D01*
X-87079Y-76601D01*
X-87088Y-76495D01*
X-87097Y-76407D01*
Y-76337D01*
Y-76293D01*
Y-76275D01*
X-81711D01*
Y-77236D01*
D02*
G37*
G36*
X-107351Y-76284D02*
X-107104Y-76293D01*
X-106883Y-76319D01*
X-106690Y-76346D01*
X-106610Y-76354D01*
X-106540Y-76363D01*
X-106469Y-76381D01*
X-106416Y-76390D01*
X-106372Y-76398D01*
X-106346D01*
X-106328Y-76407D01*
X-106319D01*
X-106117Y-76469D01*
X-105923Y-76531D01*
X-105755Y-76601D01*
X-105614Y-76663D01*
X-105500Y-76725D01*
X-105412Y-76769D01*
X-105359Y-76804D01*
X-105350Y-76813D01*
X-105341D01*
X-105191Y-76927D01*
X-105050Y-77042D01*
X-104927Y-77165D01*
X-104821Y-77289D01*
X-104724Y-77394D01*
X-104662Y-77474D01*
X-104636Y-77509D01*
X-104618Y-77535D01*
X-104601Y-77544D01*
Y-77553D01*
X-104477Y-77738D01*
X-104372Y-77932D01*
X-104275Y-78135D01*
X-104195Y-78320D01*
X-104134Y-78487D01*
X-104107Y-78558D01*
X-104081Y-78619D01*
X-104072Y-78664D01*
X-104054Y-78699D01*
X-104045Y-78725D01*
Y-78734D01*
X-103975Y-79016D01*
X-103922Y-79298D01*
X-103878Y-79571D01*
X-103852Y-79827D01*
X-103843Y-79942D01*
X-103834Y-80047D01*
Y-80144D01*
X-103825Y-80224D01*
Y-80294D01*
Y-80338D01*
Y-80373D01*
Y-80382D01*
X-103843Y-80779D01*
X-103852Y-80964D01*
X-103878Y-81140D01*
X-103904Y-81308D01*
X-103931Y-81466D01*
X-103957Y-81616D01*
X-103984Y-81757D01*
X-104019Y-81881D01*
X-104045Y-81986D01*
X-104072Y-82083D01*
X-104098Y-82163D01*
X-104125Y-82224D01*
X-104134Y-82277D01*
X-104151Y-82304D01*
Y-82312D01*
X-104283Y-82612D01*
X-104433Y-82885D01*
X-104513Y-83009D01*
X-104592Y-83123D01*
X-104671Y-83229D01*
X-104751Y-83326D01*
X-104821Y-83414D01*
X-104892Y-83485D01*
X-104953Y-83555D01*
X-105006Y-83608D01*
X-105050Y-83652D01*
X-105085Y-83679D01*
X-105103Y-83696D01*
X-105112Y-83705D01*
X-105306Y-83855D01*
X-105509Y-83978D01*
X-105702Y-84075D01*
X-105887Y-84155D01*
X-106055Y-84216D01*
X-106125Y-84234D01*
X-106187Y-84251D01*
X-106231Y-84269D01*
X-106266Y-84278D01*
X-106293Y-84287D01*
X-106302D01*
X-106399Y-84304D01*
X-106504Y-84331D01*
X-106742Y-84357D01*
X-106980Y-84384D01*
X-107218Y-84392D01*
X-107324Y-84401D01*
X-107430D01*
X-107518Y-84410D01*
X-110550D01*
Y-76275D01*
X-107615D01*
X-107351Y-76284D01*
D02*
G37*
G36*
X-71505Y-76152D02*
X-71355Y-76160D01*
X-71205Y-76187D01*
X-71064Y-76213D01*
X-70932Y-76257D01*
X-70817Y-76293D01*
X-70703Y-76337D01*
X-70606Y-76381D01*
X-70509Y-76425D01*
X-70430Y-76469D01*
X-70359Y-76513D01*
X-70306Y-76548D01*
X-70262Y-76575D01*
X-70227Y-76601D01*
X-70209Y-76610D01*
X-70201Y-76619D01*
X-70095Y-76716D01*
X-69989Y-76813D01*
X-69813Y-77033D01*
X-69663Y-77253D01*
X-69539Y-77474D01*
X-69487Y-77579D01*
X-69443Y-77676D01*
X-69407Y-77756D01*
X-69372Y-77835D01*
X-69345Y-77888D01*
X-69337Y-77941D01*
X-69319Y-77967D01*
Y-77976D01*
X-69266Y-78144D01*
X-69222Y-78329D01*
X-69143Y-78708D01*
X-69090Y-79095D01*
X-69072Y-79281D01*
X-69055Y-79466D01*
X-69046Y-79633D01*
X-69037Y-79792D01*
X-69028Y-79924D01*
X-69019Y-80047D01*
Y-80144D01*
Y-80224D01*
Y-80268D01*
Y-80285D01*
Y-80506D01*
X-69028Y-80717D01*
X-69037Y-80911D01*
X-69046Y-81096D01*
X-69064Y-81264D01*
X-69081Y-81422D01*
X-69099Y-81563D01*
X-69108Y-81695D01*
X-69125Y-81810D01*
X-69143Y-81907D01*
X-69160Y-81995D01*
X-69178Y-82066D01*
X-69187Y-82127D01*
X-69196Y-82163D01*
X-69205Y-82189D01*
Y-82198D01*
X-69275Y-82453D01*
X-69363Y-82691D01*
X-69443Y-82894D01*
X-69522Y-83070D01*
X-69566Y-83141D01*
X-69592Y-83211D01*
X-69628Y-83273D01*
X-69654Y-83317D01*
X-69681Y-83352D01*
X-69689Y-83379D01*
X-69707Y-83397D01*
Y-83405D01*
X-69830Y-83582D01*
X-69971Y-83740D01*
X-70104Y-83872D01*
X-70236Y-83978D01*
X-70350Y-84066D01*
X-70438Y-84119D01*
X-70474Y-84146D01*
X-70500Y-84163D01*
X-70518Y-84172D01*
X-70527D01*
X-70721Y-84260D01*
X-70914Y-84322D01*
X-71108Y-84375D01*
X-71285Y-84401D01*
X-71443Y-84419D01*
X-71505Y-84428D01*
X-71567Y-84437D01*
X-71672D01*
X-71831Y-84428D01*
X-71990Y-84419D01*
X-72140Y-84392D01*
X-72281Y-84366D01*
X-72404Y-84331D01*
X-72527Y-84287D01*
X-72642Y-84243D01*
X-72739Y-84199D01*
X-72836Y-84155D01*
X-72915Y-84110D01*
X-72986Y-84075D01*
X-73039Y-84031D01*
X-73083Y-84005D01*
X-73118Y-83978D01*
X-73135Y-83969D01*
X-73144Y-83961D01*
X-73250Y-83864D01*
X-73347Y-83767D01*
X-73523Y-83546D01*
X-73682Y-83326D01*
X-73805Y-83106D01*
X-73858Y-83000D01*
X-73902Y-82912D01*
X-73938Y-82824D01*
X-73973Y-82753D01*
X-73990Y-82691D01*
X-74008Y-82639D01*
X-74026Y-82612D01*
Y-82603D01*
X-74078Y-82436D01*
X-74123Y-82251D01*
X-74193Y-81872D01*
X-74246Y-81484D01*
X-74264Y-81299D01*
X-74281Y-81114D01*
X-74290Y-80946D01*
X-74299Y-80788D01*
X-74308Y-80647D01*
Y-80523D01*
X-74317Y-80426D01*
Y-80347D01*
Y-80303D01*
Y-80285D01*
X-74308Y-79871D01*
X-74281Y-79483D01*
X-74246Y-79131D01*
X-74193Y-78805D01*
X-74131Y-78505D01*
X-74061Y-78232D01*
X-73990Y-77994D01*
X-73911Y-77773D01*
X-73841Y-77588D01*
X-73770Y-77421D01*
X-73699Y-77289D01*
X-73638Y-77174D01*
X-73585Y-77086D01*
X-73550Y-77024D01*
X-73523Y-76989D01*
X-73514Y-76980D01*
X-73382Y-76830D01*
X-73241Y-76707D01*
X-73091Y-76592D01*
X-72942Y-76495D01*
X-72792Y-76416D01*
X-72633Y-76346D01*
X-72483Y-76293D01*
X-72342Y-76249D01*
X-72201Y-76213D01*
X-72078Y-76187D01*
X-71963Y-76169D01*
X-71866Y-76160D01*
X-71787Y-76152D01*
X-71725Y-76143D01*
X-71672D01*
X-71505Y-76152D01*
D02*
G37*
G36*
X-90463D02*
X-90314Y-76160D01*
X-90164Y-76187D01*
X-90023Y-76213D01*
X-89890Y-76257D01*
X-89776Y-76293D01*
X-89661Y-76337D01*
X-89564Y-76381D01*
X-89467Y-76425D01*
X-89388Y-76469D01*
X-89318Y-76513D01*
X-89265Y-76548D01*
X-89221Y-76575D01*
X-89185Y-76601D01*
X-89168Y-76610D01*
X-89159Y-76619D01*
X-89053Y-76716D01*
X-88947Y-76813D01*
X-88771Y-77033D01*
X-88621Y-77253D01*
X-88498Y-77474D01*
X-88445Y-77579D01*
X-88401Y-77676D01*
X-88366Y-77756D01*
X-88330Y-77835D01*
X-88304Y-77888D01*
X-88295Y-77941D01*
X-88278Y-77967D01*
Y-77976D01*
X-88225Y-78144D01*
X-88181Y-78329D01*
X-88101Y-78708D01*
X-88048Y-79095D01*
X-88031Y-79281D01*
X-88013Y-79466D01*
X-88004Y-79633D01*
X-87996Y-79792D01*
X-87987Y-79924D01*
X-87978Y-80047D01*
Y-80144D01*
Y-80224D01*
Y-80268D01*
Y-80285D01*
Y-80506D01*
X-87987Y-80717D01*
X-87996Y-80911D01*
X-88004Y-81096D01*
X-88022Y-81264D01*
X-88040Y-81422D01*
X-88057Y-81563D01*
X-88066Y-81695D01*
X-88084Y-81810D01*
X-88101Y-81907D01*
X-88119Y-81995D01*
X-88137Y-82066D01*
X-88145Y-82127D01*
X-88154Y-82163D01*
X-88163Y-82189D01*
Y-82198D01*
X-88233Y-82453D01*
X-88322Y-82691D01*
X-88401Y-82894D01*
X-88480Y-83070D01*
X-88524Y-83141D01*
X-88551Y-83211D01*
X-88586Y-83273D01*
X-88612Y-83317D01*
X-88639Y-83352D01*
X-88648Y-83379D01*
X-88665Y-83397D01*
Y-83405D01*
X-88789Y-83582D01*
X-88930Y-83740D01*
X-89062Y-83872D01*
X-89194Y-83978D01*
X-89309Y-84066D01*
X-89397Y-84119D01*
X-89432Y-84146D01*
X-89459Y-84163D01*
X-89476Y-84172D01*
X-89485D01*
X-89679Y-84260D01*
X-89873Y-84322D01*
X-90067Y-84375D01*
X-90243Y-84401D01*
X-90402Y-84419D01*
X-90463Y-84428D01*
X-90525Y-84437D01*
X-90631D01*
X-90789Y-84428D01*
X-90948Y-84419D01*
X-91098Y-84392D01*
X-91239Y-84366D01*
X-91362Y-84331D01*
X-91486Y-84287D01*
X-91600Y-84243D01*
X-91697Y-84199D01*
X-91794Y-84155D01*
X-91874Y-84110D01*
X-91944Y-84075D01*
X-91997Y-84031D01*
X-92041Y-84005D01*
X-92076Y-83978D01*
X-92094Y-83969D01*
X-92103Y-83961D01*
X-92208Y-83864D01*
X-92305Y-83767D01*
X-92482Y-83546D01*
X-92640Y-83326D01*
X-92764Y-83106D01*
X-92817Y-83000D01*
X-92861Y-82912D01*
X-92896Y-82824D01*
X-92931Y-82753D01*
X-92949Y-82691D01*
X-92966Y-82639D01*
X-92984Y-82612D01*
Y-82603D01*
X-93037Y-82436D01*
X-93081Y-82251D01*
X-93152Y-81872D01*
X-93204Y-81484D01*
X-93222Y-81299D01*
X-93240Y-81114D01*
X-93249Y-80946D01*
X-93257Y-80788D01*
X-93266Y-80647D01*
Y-80523D01*
X-93275Y-80426D01*
Y-80347D01*
Y-80303D01*
Y-80285D01*
X-93266Y-79871D01*
X-93240Y-79483D01*
X-93204Y-79131D01*
X-93152Y-78805D01*
X-93090Y-78505D01*
X-93019Y-78232D01*
X-92949Y-77994D01*
X-92870Y-77773D01*
X-92799Y-77588D01*
X-92729Y-77421D01*
X-92658Y-77289D01*
X-92596Y-77174D01*
X-92543Y-77086D01*
X-92508Y-77024D01*
X-92482Y-76989D01*
X-92473Y-76980D01*
X-92341Y-76830D01*
X-92200Y-76707D01*
X-92050Y-76592D01*
X-91900Y-76495D01*
X-91750Y-76416D01*
X-91592Y-76346D01*
X-91442Y-76293D01*
X-91301Y-76249D01*
X-91160Y-76213D01*
X-91036Y-76187D01*
X-90922Y-76169D01*
X-90825Y-76160D01*
X-90745Y-76152D01*
X-90684Y-76143D01*
X-90631D01*
X-90463Y-76152D01*
D02*
G37*
G36*
X-92747Y39957D02*
X-92406Y39908D01*
X-92081Y39827D01*
X-91773Y39730D01*
X-91481Y39616D01*
X-91205Y39502D01*
X-90961Y39356D01*
X-90718Y39210D01*
X-90523Y39080D01*
X-90328Y38934D01*
X-90166Y38821D01*
X-90036Y38691D01*
X-89939Y38610D01*
X-89858Y38528D01*
X-89809Y38480D01*
X-89793Y38464D01*
X-89549Y38155D01*
X-89338Y37847D01*
X-89143Y37506D01*
X-88981Y37149D01*
X-88851Y36792D01*
X-88738Y36419D01*
X-88640Y36078D01*
X-88575Y35737D01*
X-88511Y35412D01*
X-88478Y35104D01*
X-88446Y34844D01*
X-88413Y34601D01*
Y34406D01*
X-88397Y34276D01*
Y34179D01*
Y34146D01*
X-88413Y33708D01*
X-88446Y33302D01*
X-88511Y32929D01*
X-88559Y32604D01*
X-88592Y32458D01*
X-88624Y32329D01*
X-88657Y32215D01*
X-88689Y32118D01*
X-88705Y32036D01*
X-88722Y31988D01*
X-88738Y31955D01*
Y31939D01*
X-88868Y31566D01*
X-89014Y31225D01*
X-89160Y30916D01*
X-89306Y30657D01*
X-89452Y30462D01*
X-89549Y30300D01*
X-89614Y30202D01*
X-89647Y30170D01*
X-89874Y29910D01*
X-90117Y29683D01*
X-90361Y29488D01*
X-90588Y29326D01*
X-90799Y29196D01*
X-90961Y29115D01*
X-91026Y29082D01*
X-91075Y29050D01*
X-91091Y29034D01*
X-91107D01*
X-91448Y28904D01*
X-91773Y28806D01*
X-92098Y28725D01*
X-92390Y28677D01*
X-92633Y28644D01*
X-92747D01*
X-92828Y28628D01*
X-93006D01*
X-93331Y28644D01*
X-93656Y28693D01*
X-93948Y28758D01*
X-94240Y28855D01*
X-94500Y28969D01*
X-94743Y29082D01*
X-94970Y29228D01*
X-95165Y29358D01*
X-95360Y29488D01*
X-95522Y29618D01*
X-95652Y29748D01*
X-95766Y29861D01*
X-95863Y29959D01*
X-95928Y30024D01*
X-95960Y30072D01*
X-95977Y30089D01*
Y24749D01*
X-97811D01*
Y39730D01*
X-96106D01*
Y38382D01*
X-95895Y38658D01*
X-95668Y38902D01*
X-95425Y39113D01*
X-95181Y39308D01*
X-94922Y39454D01*
X-94678Y39583D01*
X-94435Y39697D01*
X-94191Y39778D01*
X-93980Y39843D01*
X-93769Y39892D01*
X-93574Y39924D01*
X-93412Y39941D01*
X-93282Y39957D01*
X-93185Y39973D01*
X-93104D01*
X-92747Y39957D01*
D02*
G37*
G36*
X-109545Y33643D02*
X-105715D01*
X-105131Y33627D01*
X-104611Y33578D01*
X-104124Y33513D01*
X-103670Y33432D01*
X-103280Y33335D01*
X-102907Y33221D01*
X-102599Y33108D01*
X-102306Y32978D01*
X-102063Y32864D01*
X-101852Y32750D01*
X-101673Y32637D01*
X-101544Y32540D01*
X-101430Y32442D01*
X-101365Y32377D01*
X-101316Y32345D01*
X-101300Y32329D01*
X-101089Y32069D01*
X-100894Y31809D01*
X-100732Y31533D01*
X-100602Y31257D01*
X-100472Y30981D01*
X-100375Y30722D01*
X-100294Y30462D01*
X-100229Y30219D01*
X-100180Y29975D01*
X-100148Y29764D01*
X-100115Y29585D01*
X-100099Y29423D01*
X-100083Y29277D01*
Y29180D01*
Y29115D01*
Y29099D01*
X-100099Y28693D01*
X-100148Y28303D01*
X-100229Y27962D01*
X-100310Y27654D01*
X-100407Y27411D01*
X-100440Y27297D01*
X-100472Y27216D01*
X-100505Y27151D01*
X-100537Y27102D01*
X-100554Y27070D01*
Y27053D01*
X-100732Y26713D01*
X-100927Y26437D01*
X-101138Y26177D01*
X-101316Y25982D01*
X-101495Y25820D01*
X-101625Y25706D01*
X-101722Y25625D01*
X-101739Y25609D01*
X-101755D01*
X-102047Y25431D01*
X-102355Y25284D01*
X-102664Y25155D01*
X-102956Y25057D01*
X-103215Y24976D01*
X-103329Y24960D01*
X-103426Y24927D01*
X-103491Y24911D01*
X-103556D01*
X-103589Y24895D01*
X-103605D01*
X-103751Y24862D01*
X-103930Y24846D01*
X-104287Y24814D01*
X-104660Y24781D01*
X-105033Y24765D01*
X-105358Y24749D01*
X-111525D01*
Y39730D01*
X-109545D01*
Y33643D01*
D02*
G37*
G36*
X-108924Y55065D02*
X-109098Y54812D01*
X-109273Y54580D01*
X-109438Y54376D01*
X-109584Y54201D01*
X-109710Y54065D01*
X-109768Y54007D01*
X-109816Y53959D01*
X-109855Y53920D01*
X-109884Y53891D01*
X-109894Y53881D01*
X-109904Y53871D01*
X-110001Y53794D01*
X-110117Y53706D01*
X-110234Y53638D01*
X-110350Y53570D01*
X-110457Y53512D01*
X-110544Y53464D01*
X-110602Y53435D01*
X-110612Y53425D01*
X-110622D01*
X-110389Y53386D01*
X-110166Y53337D01*
X-109962Y53279D01*
X-109778Y53221D01*
X-109603Y53153D01*
X-109448Y53085D01*
X-109312Y53017D01*
X-109186Y52949D01*
X-109069Y52881D01*
X-108972Y52814D01*
X-108895Y52755D01*
X-108827Y52707D01*
X-108778Y52658D01*
X-108739Y52629D01*
X-108720Y52610D01*
X-108710Y52600D01*
X-108604Y52474D01*
X-108507Y52348D01*
X-108419Y52212D01*
X-108351Y52076D01*
X-108293Y51940D01*
X-108245Y51804D01*
X-108167Y51552D01*
X-108138Y51436D01*
X-108118Y51329D01*
X-108109Y51232D01*
X-108099Y51145D01*
X-108089Y51087D01*
Y51028D01*
Y50999D01*
Y50989D01*
X-108109Y50718D01*
X-108148Y50465D01*
X-108206Y50242D01*
X-108274Y50039D01*
X-108313Y49951D01*
X-108351Y49874D01*
X-108380Y49806D01*
X-108410Y49748D01*
X-108429Y49699D01*
X-108448Y49670D01*
X-108468Y49650D01*
Y49641D01*
X-108613Y49427D01*
X-108778Y49253D01*
X-108943Y49097D01*
X-109108Y48981D01*
X-109244Y48894D01*
X-109360Y48835D01*
X-109409Y48816D01*
X-109438Y48797D01*
X-109457Y48787D01*
X-109467D01*
X-109593Y48748D01*
X-109719Y48709D01*
X-110010Y48651D01*
X-110311Y48602D01*
X-110602Y48573D01*
X-110748Y48564D01*
X-110874Y48554D01*
X-110981D01*
X-111088Y48544D01*
X-115250D01*
Y57500D01*
X-114066D01*
Y53522D01*
X-112543D01*
X-112407Y53532D01*
X-112291Y53541D01*
X-112194D01*
X-112126Y53551D01*
X-112077Y53561D01*
X-112048Y53570D01*
X-112038D01*
X-111932Y53600D01*
X-111835Y53638D01*
X-111747Y53677D01*
X-111660Y53716D01*
X-111592Y53755D01*
X-111544Y53784D01*
X-111505Y53803D01*
X-111495Y53813D01*
X-111398Y53881D01*
X-111291Y53978D01*
X-111185Y54075D01*
X-111097Y54172D01*
X-111010Y54259D01*
X-110952Y54337D01*
X-110913Y54385D01*
X-110893Y54395D01*
Y54405D01*
X-110758Y54580D01*
X-110612Y54774D01*
X-110476Y54977D01*
X-110340Y55181D01*
X-110224Y55356D01*
X-110166Y55433D01*
X-110127Y55501D01*
X-110088Y55560D01*
X-110059Y55598D01*
X-110049Y55627D01*
X-110040Y55637D01*
X-108856Y57500D01*
X-107371D01*
X-108924Y55065D01*
D02*
G37*
G36*
X-92216Y48544D02*
X-93399D01*
Y52222D01*
X-98047D01*
Y48544D01*
X-99231D01*
Y57500D01*
X-98047D01*
Y53279D01*
X-93399D01*
Y57500D01*
X-92216D01*
Y48544D01*
D02*
G37*
G36*
X-103432Y57626D02*
X-103141Y57587D01*
X-102879Y57519D01*
X-102753Y57490D01*
X-102646Y57452D01*
X-102539Y57413D01*
X-102452Y57384D01*
X-102374Y57345D01*
X-102306Y57316D01*
X-102248Y57296D01*
X-102209Y57277D01*
X-102190Y57257D01*
X-102180D01*
X-101928Y57092D01*
X-101705Y56918D01*
X-101521Y56733D01*
X-101365Y56549D01*
X-101239Y56394D01*
X-101191Y56316D01*
X-101152Y56258D01*
X-101123Y56210D01*
X-101103Y56171D01*
X-101084Y56151D01*
Y56142D01*
X-101016Y55996D01*
X-100958Y55851D01*
X-100861Y55530D01*
X-100793Y55200D01*
X-100754Y54890D01*
X-100735Y54744D01*
X-100725Y54609D01*
X-100715Y54482D01*
Y54376D01*
X-100705Y54288D01*
Y54230D01*
Y54182D01*
Y54172D01*
X-100715Y53891D01*
X-100744Y53619D01*
X-100783Y53367D01*
X-100841Y53134D01*
X-100900Y52920D01*
X-100977Y52726D01*
X-101055Y52542D01*
X-101132Y52377D01*
X-101210Y52231D01*
X-101288Y52105D01*
X-101365Y51999D01*
X-101424Y51911D01*
X-101482Y51834D01*
X-101521Y51785D01*
X-101550Y51756D01*
X-101559Y51746D01*
X-101724Y51591D01*
X-101899Y51455D01*
X-102074Y51339D01*
X-102258Y51232D01*
X-102442Y51154D01*
X-102617Y51077D01*
X-102801Y51019D01*
X-102966Y50970D01*
X-103131Y50941D01*
X-103277Y50912D01*
X-103403Y50892D01*
X-103519Y50873D01*
X-103616D01*
X-103684Y50863D01*
X-103743D01*
X-103966Y50873D01*
X-104179Y50892D01*
X-104373Y50931D01*
X-104567Y50980D01*
X-104752Y51028D01*
X-104916Y51096D01*
X-105072Y51154D01*
X-105208Y51222D01*
X-105344Y51290D01*
X-105450Y51358D01*
X-105547Y51426D01*
X-105634Y51475D01*
X-105693Y51523D01*
X-105741Y51562D01*
X-105770Y51581D01*
X-105780Y51591D01*
X-105955Y51766D01*
X-106110Y51950D01*
X-106246Y52154D01*
X-106362Y52367D01*
X-106450Y52590D01*
X-106537Y52814D01*
X-106605Y53037D01*
X-106653Y53250D01*
X-106692Y53454D01*
X-106731Y53638D01*
X-106750Y53813D01*
X-106760Y53968D01*
X-106770Y54085D01*
X-106779Y54182D01*
Y54240D01*
Y54250D01*
Y54259D01*
X-106770Y54560D01*
X-106741Y54841D01*
X-106702Y55103D01*
X-106653Y55346D01*
X-106585Y55569D01*
X-106517Y55773D01*
X-106440Y55957D01*
X-106362Y56132D01*
X-106285Y56277D01*
X-106207Y56413D01*
X-106139Y56520D01*
X-106071Y56607D01*
X-106023Y56685D01*
X-105984Y56733D01*
X-105955Y56763D01*
X-105945Y56772D01*
X-105780Y56927D01*
X-105605Y57063D01*
X-105431Y57180D01*
X-105246Y57277D01*
X-105062Y57364D01*
X-104878Y57432D01*
X-104703Y57490D01*
X-104528Y57539D01*
X-104363Y57568D01*
X-104218Y57597D01*
X-104082Y57616D01*
X-103966Y57636D01*
X-103869D01*
X-103801Y57646D01*
X-103743D01*
X-103432Y57626D01*
D02*
G37*
G36*
X-86472D02*
X-86151Y57587D01*
X-85860Y57539D01*
X-85724Y57500D01*
X-85608Y57471D01*
X-85492Y57442D01*
X-85394Y57403D01*
X-85307Y57374D01*
X-85239Y57354D01*
X-85181Y57325D01*
X-85142Y57316D01*
X-85113Y57296D01*
X-85103D01*
X-84832Y57151D01*
X-84599Y56996D01*
X-84395Y56831D01*
X-84230Y56675D01*
X-84094Y56530D01*
X-84007Y56423D01*
X-83968Y56375D01*
X-83949Y56345D01*
X-83929Y56326D01*
Y56316D01*
X-83852Y56200D01*
X-83793Y56074D01*
X-83687Y55841D01*
X-83609Y55618D01*
X-83561Y55414D01*
X-83532Y55230D01*
X-83522Y55162D01*
Y55094D01*
X-83512Y55045D01*
Y55006D01*
Y54987D01*
Y54977D01*
X-83532Y54715D01*
X-83570Y54473D01*
X-83629Y54259D01*
X-83696Y54075D01*
X-83774Y53920D01*
X-83803Y53852D01*
X-83832Y53803D01*
X-83852Y53764D01*
X-83871Y53735D01*
X-83891Y53716D01*
Y53706D01*
X-83968Y53609D01*
X-84046Y53512D01*
X-84230Y53328D01*
X-84415Y53173D01*
X-84609Y53046D01*
X-84774Y52940D01*
X-84851Y52891D01*
X-84919Y52862D01*
X-84968Y52833D01*
X-85006Y52814D01*
X-85035Y52794D01*
X-85045D01*
X-85152Y52746D01*
X-85288Y52697D01*
X-85424Y52649D01*
X-85579Y52600D01*
X-85909Y52513D01*
X-86239Y52425D01*
X-86394Y52377D01*
X-86539Y52348D01*
X-86675Y52309D01*
X-86792Y52290D01*
X-86889Y52260D01*
X-86957Y52241D01*
X-87005Y52231D01*
X-87025D01*
X-87287Y52173D01*
X-87519Y52105D01*
X-87723Y52047D01*
X-87917Y51989D01*
X-88082Y51931D01*
X-88228Y51882D01*
X-88354Y51834D01*
X-88461Y51785D01*
X-88548Y51736D01*
X-88625Y51698D01*
X-88684Y51669D01*
X-88732Y51639D01*
X-88771Y51610D01*
X-88791Y51591D01*
X-88810Y51581D01*
X-88926Y51455D01*
X-89004Y51329D01*
X-89062Y51193D01*
X-89111Y51067D01*
X-89130Y50960D01*
X-89140Y50873D01*
X-89150Y50815D01*
Y50805D01*
Y50795D01*
X-89140Y50689D01*
X-89130Y50592D01*
X-89072Y50417D01*
X-88994Y50252D01*
X-88907Y50116D01*
X-88820Y50000D01*
X-88742Y49912D01*
X-88684Y49864D01*
X-88674Y49844D01*
X-88664D01*
X-88567Y49777D01*
X-88451Y49709D01*
X-88208Y49612D01*
X-87956Y49544D01*
X-87694Y49495D01*
X-87578Y49476D01*
X-87461Y49466D01*
X-87364Y49456D01*
X-87277D01*
X-87199Y49447D01*
X-86918D01*
X-86743Y49466D01*
X-86578Y49486D01*
X-86423Y49515D01*
X-86287Y49544D01*
X-86161Y49583D01*
X-86045Y49621D01*
X-85938Y49660D01*
X-85850Y49709D01*
X-85773Y49748D01*
X-85705Y49786D01*
X-85647Y49815D01*
X-85608Y49844D01*
X-85569Y49864D01*
X-85559Y49874D01*
X-85550Y49883D01*
X-85453Y49971D01*
X-85365Y50058D01*
X-85230Y50262D01*
X-85113Y50475D01*
X-85035Y50679D01*
X-84977Y50863D01*
X-84958Y50941D01*
X-84938Y51019D01*
X-84929Y51077D01*
Y51116D01*
X-84919Y51145D01*
Y51154D01*
X-83784Y51067D01*
X-83813Y50776D01*
X-83871Y50514D01*
X-83939Y50271D01*
X-84017Y50068D01*
X-84065Y49980D01*
X-84094Y49893D01*
X-84133Y49825D01*
X-84162Y49767D01*
X-84191Y49718D01*
X-84211Y49689D01*
X-84221Y49670D01*
X-84230Y49660D01*
X-84395Y49437D01*
X-84579Y49253D01*
X-84774Y49088D01*
X-84968Y48952D01*
X-85133Y48855D01*
X-85210Y48816D01*
X-85268Y48777D01*
X-85317Y48748D01*
X-85365Y48738D01*
X-85385Y48719D01*
X-85394D01*
X-85686Y48612D01*
X-85986Y48525D01*
X-86287Y48467D01*
X-86559Y48428D01*
X-86685Y48418D01*
X-86792Y48408D01*
X-86898Y48399D01*
X-86986Y48389D01*
X-87151D01*
X-87481Y48399D01*
X-87791Y48438D01*
X-88063Y48486D01*
X-88189Y48515D01*
X-88305Y48544D01*
X-88412Y48573D01*
X-88509Y48602D01*
X-88596Y48632D01*
X-88664Y48651D01*
X-88713Y48671D01*
X-88761Y48690D01*
X-88781Y48700D01*
X-88791D01*
X-89052Y48826D01*
X-89276Y48971D01*
X-89470Y49117D01*
X-89625Y49262D01*
X-89751Y49398D01*
X-89848Y49505D01*
X-89877Y49544D01*
X-89897Y49573D01*
X-89916Y49592D01*
Y49602D01*
X-90042Y49825D01*
X-90139Y50048D01*
X-90197Y50252D01*
X-90246Y50446D01*
X-90275Y50621D01*
X-90285Y50689D01*
Y50747D01*
X-90294Y50795D01*
Y50834D01*
Y50854D01*
Y50863D01*
X-90285Y51087D01*
X-90246Y51300D01*
X-90197Y51494D01*
X-90139Y51659D01*
X-90081Y51795D01*
X-90032Y51901D01*
X-90013Y51940D01*
X-89994Y51969D01*
X-89984Y51979D01*
Y51989D01*
X-89858Y52164D01*
X-89703Y52328D01*
X-89547Y52464D01*
X-89382Y52590D01*
X-89247Y52687D01*
X-89130Y52755D01*
X-89082Y52775D01*
X-89052Y52794D01*
X-89033Y52814D01*
X-89023D01*
X-88926Y52862D01*
X-88810Y52911D01*
X-88684Y52959D01*
X-88548Y53008D01*
X-88266Y53105D01*
X-87975Y53192D01*
X-87840Y53231D01*
X-87723Y53270D01*
X-87607Y53299D01*
X-87500Y53328D01*
X-87422Y53347D01*
X-87354Y53367D01*
X-87316Y53376D01*
X-87306D01*
X-87083Y53425D01*
X-86879Y53483D01*
X-86704Y53522D01*
X-86539Y53570D01*
X-86394Y53609D01*
X-86258Y53638D01*
X-86151Y53677D01*
X-86045Y53706D01*
X-85967Y53726D01*
X-85889Y53755D01*
X-85831Y53774D01*
X-85792Y53784D01*
X-85753Y53794D01*
X-85734Y53803D01*
X-85715Y53813D01*
X-85521Y53900D01*
X-85356Y53988D01*
X-85210Y54075D01*
X-85103Y54152D01*
X-85016Y54230D01*
X-84958Y54288D01*
X-84919Y54327D01*
X-84909Y54337D01*
X-84822Y54453D01*
X-84764Y54580D01*
X-84715Y54706D01*
X-84686Y54822D01*
X-84667Y54919D01*
X-84657Y55006D01*
Y55055D01*
Y55065D01*
Y55074D01*
X-84667Y55220D01*
X-84696Y55365D01*
X-84744Y55491D01*
X-84783Y55608D01*
X-84832Y55705D01*
X-84880Y55783D01*
X-84909Y55821D01*
X-84919Y55841D01*
X-85026Y55967D01*
X-85142Y56074D01*
X-85278Y56171D01*
X-85404Y56248D01*
X-85521Y56307D01*
X-85608Y56355D01*
X-85647Y56375D01*
X-85676Y56384D01*
X-85686Y56394D01*
X-85695D01*
X-85889Y56462D01*
X-86093Y56510D01*
X-86297Y56539D01*
X-86481Y56559D01*
X-86636Y56578D01*
X-86704D01*
X-86763Y56588D01*
X-86879D01*
X-87160Y56578D01*
X-87413Y56549D01*
X-87655Y56501D01*
X-87859Y56452D01*
X-87946Y56433D01*
X-88024Y56413D01*
X-88092Y56384D01*
X-88150Y56365D01*
X-88199Y56345D01*
X-88228Y56336D01*
X-88247Y56326D01*
X-88257D01*
X-88470Y56219D01*
X-88655Y56103D01*
X-88810Y55996D01*
X-88936Y55880D01*
X-89033Y55783D01*
X-89101Y55705D01*
X-89150Y55656D01*
X-89159Y55637D01*
X-89256Y55462D01*
X-89334Y55278D01*
X-89392Y55094D01*
X-89441Y54919D01*
X-89479Y54754D01*
X-89489Y54696D01*
X-89499Y54638D01*
X-89508Y54589D01*
X-89518Y54550D01*
Y54531D01*
Y54521D01*
X-90634Y54618D01*
X-90624Y54783D01*
X-90605Y54948D01*
X-90547Y55249D01*
X-90469Y55530D01*
X-90430Y55656D01*
X-90382Y55763D01*
X-90343Y55870D01*
X-90294Y55967D01*
X-90256Y56045D01*
X-90217Y56112D01*
X-90188Y56171D01*
X-90168Y56210D01*
X-90159Y56229D01*
X-90149Y56239D01*
X-89965Y56491D01*
X-89751Y56704D01*
X-89538Y56889D01*
X-89334Y57034D01*
X-89150Y57151D01*
X-89072Y57189D01*
X-89004Y57228D01*
X-88946Y57257D01*
X-88907Y57277D01*
X-88878Y57296D01*
X-88868D01*
X-88538Y57413D01*
X-88199Y57500D01*
X-87859Y57558D01*
X-87539Y57597D01*
X-87384Y57616D01*
X-87248Y57626D01*
X-87131Y57636D01*
X-87025D01*
X-86937Y57646D01*
X-86821D01*
X-86472Y57626D01*
D02*
G37*
G36*
X-104803Y-67987D02*
X-104962Y-68216D01*
X-105121Y-68428D01*
X-105271Y-68613D01*
X-105403Y-68772D01*
X-105517Y-68895D01*
X-105570Y-68948D01*
X-105614Y-68992D01*
X-105650Y-69027D01*
X-105676Y-69054D01*
X-105685Y-69063D01*
X-105694Y-69071D01*
X-105782Y-69142D01*
X-105887Y-69221D01*
X-105993Y-69283D01*
X-106099Y-69345D01*
X-106196Y-69398D01*
X-106275Y-69442D01*
X-106328Y-69468D01*
X-106337Y-69477D01*
X-106346D01*
X-106134Y-69512D01*
X-105932Y-69556D01*
X-105746Y-69609D01*
X-105579Y-69662D01*
X-105420Y-69724D01*
X-105279Y-69785D01*
X-105156Y-69847D01*
X-105041Y-69909D01*
X-104936Y-69970D01*
X-104847Y-70032D01*
X-104777Y-70085D01*
X-104715Y-70129D01*
X-104671Y-70173D01*
X-104636Y-70200D01*
X-104618Y-70217D01*
X-104609Y-70226D01*
X-104513Y-70341D01*
X-104424Y-70455D01*
X-104345Y-70578D01*
X-104283Y-70702D01*
X-104231Y-70825D01*
X-104186Y-70949D01*
X-104116Y-71178D01*
X-104089Y-71284D01*
X-104072Y-71381D01*
X-104063Y-71469D01*
X-104054Y-71548D01*
X-104045Y-71601D01*
Y-71654D01*
Y-71680D01*
Y-71689D01*
X-104063Y-71936D01*
X-104098Y-72165D01*
X-104151Y-72368D01*
X-104213Y-72553D01*
X-104248Y-72632D01*
X-104283Y-72703D01*
X-104310Y-72764D01*
X-104336Y-72817D01*
X-104354Y-72861D01*
X-104372Y-72888D01*
X-104389Y-72905D01*
Y-72914D01*
X-104521Y-73108D01*
X-104671Y-73267D01*
X-104821Y-73408D01*
X-104971Y-73513D01*
X-105094Y-73593D01*
X-105200Y-73646D01*
X-105244Y-73663D01*
X-105271Y-73681D01*
X-105288Y-73690D01*
X-105297D01*
X-105412Y-73725D01*
X-105526Y-73760D01*
X-105791Y-73813D01*
X-106064Y-73857D01*
X-106328Y-73884D01*
X-106460Y-73892D01*
X-106575Y-73901D01*
X-106672D01*
X-106769Y-73910D01*
X-110550D01*
Y-65775D01*
X-109475D01*
Y-69389D01*
X-108091D01*
X-107968Y-69380D01*
X-107862Y-69371D01*
X-107774D01*
X-107712Y-69362D01*
X-107668Y-69353D01*
X-107641Y-69345D01*
X-107633D01*
X-107536Y-69318D01*
X-107448Y-69283D01*
X-107368Y-69248D01*
X-107289Y-69212D01*
X-107227Y-69177D01*
X-107183Y-69151D01*
X-107148Y-69133D01*
X-107139Y-69124D01*
X-107051Y-69063D01*
X-106954Y-68974D01*
X-106857Y-68886D01*
X-106778Y-68798D01*
X-106698Y-68719D01*
X-106645Y-68648D01*
X-106610Y-68604D01*
X-106593Y-68595D01*
Y-68587D01*
X-106469Y-68428D01*
X-106337Y-68252D01*
X-106214Y-68067D01*
X-106090Y-67881D01*
X-105984Y-67723D01*
X-105932Y-67652D01*
X-105896Y-67591D01*
X-105861Y-67538D01*
X-105835Y-67502D01*
X-105826Y-67476D01*
X-105817Y-67467D01*
X-104742Y-65775D01*
X-103393D01*
X-104803Y-67987D01*
D02*
G37*
G36*
X-88304Y-73910D02*
X-89758D01*
X-91715Y-68252D01*
X-91768Y-68093D01*
X-91821Y-67952D01*
X-91865Y-67811D01*
X-91909Y-67688D01*
X-91944Y-67564D01*
X-91979Y-67459D01*
X-92015Y-67361D01*
X-92041Y-67273D01*
X-92067Y-67203D01*
X-92085Y-67132D01*
X-92103Y-67080D01*
X-92120Y-67027D01*
X-92129Y-66991D01*
X-92138Y-66965D01*
X-92147Y-66956D01*
Y-66947D01*
X-92173Y-67027D01*
X-92200Y-67115D01*
X-92261Y-67300D01*
X-92323Y-67502D01*
X-92385Y-67696D01*
X-92446Y-67873D01*
X-92473Y-67952D01*
X-92491Y-68014D01*
X-92508Y-68067D01*
X-92526Y-68111D01*
X-92535Y-68137D01*
Y-68146D01*
X-94465Y-73910D01*
X-96078D01*
Y-65775D01*
X-95038D01*
Y-72703D01*
X-92693Y-65775D01*
X-91724D01*
X-89344Y-72588D01*
Y-65775D01*
X-88304D01*
Y-73910D01*
D02*
G37*
G36*
X-67830Y-66736D02*
X-71840D01*
X-71699Y-66930D01*
X-71628Y-67018D01*
X-71558Y-67097D01*
X-71496Y-67168D01*
X-71452Y-67221D01*
X-71417Y-67256D01*
X-71408Y-67265D01*
X-71355Y-67317D01*
X-71285Y-67388D01*
X-71205Y-67459D01*
X-71117Y-67538D01*
X-70932Y-67714D01*
X-70738Y-67881D01*
X-70553Y-68040D01*
X-70474Y-68111D01*
X-70394Y-68172D01*
X-70342Y-68225D01*
X-70289Y-68260D01*
X-70262Y-68287D01*
X-70253Y-68296D01*
X-70059Y-68463D01*
X-69874Y-68622D01*
X-69707Y-68763D01*
X-69557Y-68904D01*
X-69416Y-69027D01*
X-69293Y-69151D01*
X-69178Y-69257D01*
X-69072Y-69353D01*
X-68984Y-69433D01*
X-68914Y-69512D01*
X-68852Y-69574D01*
X-68799Y-69627D01*
X-68764Y-69671D01*
X-68729Y-69697D01*
X-68720Y-69715D01*
X-68711Y-69724D01*
X-68544Y-69917D01*
X-68411Y-70094D01*
X-68297Y-70261D01*
X-68200Y-70411D01*
X-68129Y-70535D01*
X-68076Y-70631D01*
X-68059Y-70667D01*
X-68050Y-70693D01*
X-68041Y-70702D01*
Y-70711D01*
X-67971Y-70887D01*
X-67927Y-71063D01*
X-67891Y-71222D01*
X-67865Y-71372D01*
X-67847Y-71495D01*
X-67838Y-71592D01*
Y-71627D01*
Y-71654D01*
Y-71663D01*
Y-71672D01*
X-67847Y-71848D01*
X-67865Y-72015D01*
X-67900Y-72174D01*
X-67944Y-72333D01*
X-67997Y-72474D01*
X-68059Y-72606D01*
X-68120Y-72729D01*
X-68182Y-72835D01*
X-68244Y-72941D01*
X-68306Y-73029D01*
X-68367Y-73108D01*
X-68420Y-73170D01*
X-68464Y-73214D01*
X-68499Y-73258D01*
X-68517Y-73276D01*
X-68526Y-73284D01*
X-68658Y-73399D01*
X-68799Y-73496D01*
X-68949Y-73584D01*
X-69108Y-73663D01*
X-69257Y-73725D01*
X-69416Y-73778D01*
X-69566Y-73822D01*
X-69716Y-73857D01*
X-69848Y-73884D01*
X-69980Y-73901D01*
X-70095Y-73919D01*
X-70192Y-73928D01*
X-70271Y-73937D01*
X-70386D01*
X-70597Y-73928D01*
X-70800Y-73910D01*
X-70985Y-73884D01*
X-71161Y-73840D01*
X-71329Y-73796D01*
X-71479Y-73743D01*
X-71620Y-73690D01*
X-71743Y-73637D01*
X-71858Y-73575D01*
X-71954Y-73522D01*
X-72043Y-73470D01*
X-72113Y-73425D01*
X-72166Y-73381D01*
X-72201Y-73355D01*
X-72228Y-73337D01*
X-72236Y-73328D01*
X-72360Y-73214D01*
X-72466Y-73082D01*
X-72563Y-72950D01*
X-72651Y-72800D01*
X-72721Y-72659D01*
X-72792Y-72518D01*
X-72845Y-72368D01*
X-72889Y-72235D01*
X-72933Y-72103D01*
X-72959Y-71980D01*
X-72986Y-71865D01*
X-73003Y-71768D01*
X-73012Y-71689D01*
X-73021Y-71636D01*
X-73030Y-71601D01*
Y-71583D01*
X-72007Y-71478D01*
X-71999Y-71619D01*
X-71990Y-71751D01*
X-71937Y-71980D01*
X-71866Y-72192D01*
X-71831Y-72280D01*
X-71787Y-72359D01*
X-71752Y-72429D01*
X-71708Y-72491D01*
X-71672Y-72544D01*
X-71646Y-72588D01*
X-71611Y-72623D01*
X-71593Y-72650D01*
X-71584Y-72659D01*
X-71575Y-72667D01*
X-71487Y-72747D01*
X-71399Y-72817D01*
X-71302Y-72870D01*
X-71205Y-72923D01*
X-71011Y-73002D01*
X-70826Y-73055D01*
X-70668Y-73082D01*
X-70597Y-73099D01*
X-70535D01*
X-70483Y-73108D01*
X-70289D01*
X-70165Y-73091D01*
X-69945Y-73046D01*
X-69760Y-72976D01*
X-69592Y-72905D01*
X-69469Y-72826D01*
X-69416Y-72791D01*
X-69372Y-72756D01*
X-69337Y-72729D01*
X-69310Y-72712D01*
X-69302Y-72703D01*
X-69293Y-72694D01*
X-69213Y-72614D01*
X-69152Y-72535D01*
X-69090Y-72456D01*
X-69046Y-72368D01*
X-68966Y-72200D01*
X-68914Y-72042D01*
X-68887Y-71909D01*
X-68870Y-71848D01*
Y-71795D01*
X-68861Y-71760D01*
Y-71724D01*
Y-71707D01*
Y-71698D01*
X-68870Y-71592D01*
X-68878Y-71486D01*
X-68931Y-71275D01*
X-69011Y-71072D01*
X-69099Y-70887D01*
X-69187Y-70728D01*
X-69222Y-70667D01*
X-69266Y-70605D01*
X-69293Y-70561D01*
X-69319Y-70526D01*
X-69328Y-70508D01*
X-69337Y-70499D01*
X-69434Y-70376D01*
X-69548Y-70244D01*
X-69681Y-70103D01*
X-69822Y-69962D01*
X-70112Y-69671D01*
X-70412Y-69398D01*
X-70553Y-69265D01*
X-70694Y-69151D01*
X-70817Y-69045D01*
X-70923Y-68957D01*
X-71011Y-68878D01*
X-71073Y-68825D01*
X-71117Y-68780D01*
X-71135Y-68772D01*
X-71293Y-68639D01*
X-71434Y-68516D01*
X-71575Y-68401D01*
X-71699Y-68287D01*
X-71822Y-68181D01*
X-71928Y-68075D01*
X-72025Y-67987D01*
X-72113Y-67899D01*
X-72192Y-67820D01*
X-72254Y-67749D01*
X-72316Y-67688D01*
X-72360Y-67644D01*
X-72404Y-67600D01*
X-72430Y-67573D01*
X-72439Y-67555D01*
X-72448Y-67547D01*
X-72607Y-67353D01*
X-72739Y-67159D01*
X-72853Y-66974D01*
X-72942Y-66806D01*
X-73012Y-66665D01*
X-73039Y-66603D01*
X-73065Y-66560D01*
X-73083Y-66515D01*
X-73091Y-66489D01*
X-73100Y-66471D01*
Y-66462D01*
X-73144Y-66339D01*
X-73171Y-66216D01*
X-73197Y-66101D01*
X-73206Y-65995D01*
X-73215Y-65907D01*
Y-65837D01*
Y-65793D01*
Y-65775D01*
X-67830D01*
Y-66736D01*
D02*
G37*
G36*
X-81729D02*
X-85739D01*
X-85598Y-66930D01*
X-85528Y-67018D01*
X-85457Y-67097D01*
X-85395Y-67168D01*
X-85351Y-67221D01*
X-85316Y-67256D01*
X-85307Y-67265D01*
X-85254Y-67317D01*
X-85184Y-67388D01*
X-85105Y-67459D01*
X-85016Y-67538D01*
X-84831Y-67714D01*
X-84637Y-67881D01*
X-84452Y-68040D01*
X-84373Y-68111D01*
X-84294Y-68172D01*
X-84241Y-68225D01*
X-84188Y-68260D01*
X-84162Y-68287D01*
X-84153Y-68296D01*
X-83959Y-68463D01*
X-83774Y-68622D01*
X-83606Y-68763D01*
X-83456Y-68904D01*
X-83315Y-69027D01*
X-83192Y-69151D01*
X-83077Y-69257D01*
X-82972Y-69353D01*
X-82884Y-69433D01*
X-82813Y-69512D01*
X-82751Y-69574D01*
X-82698Y-69627D01*
X-82663Y-69671D01*
X-82628Y-69697D01*
X-82619Y-69715D01*
X-82610Y-69724D01*
X-82443Y-69917D01*
X-82311Y-70094D01*
X-82196Y-70261D01*
X-82099Y-70411D01*
X-82029Y-70535D01*
X-81976Y-70631D01*
X-81958Y-70667D01*
X-81949Y-70693D01*
X-81940Y-70702D01*
Y-70711D01*
X-81870Y-70887D01*
X-81826Y-71063D01*
X-81791Y-71222D01*
X-81764Y-71372D01*
X-81747Y-71495D01*
X-81738Y-71592D01*
Y-71627D01*
Y-71654D01*
Y-71663D01*
Y-71672D01*
X-81747Y-71848D01*
X-81764Y-72015D01*
X-81799Y-72174D01*
X-81844Y-72333D01*
X-81896Y-72474D01*
X-81958Y-72606D01*
X-82020Y-72729D01*
X-82081Y-72835D01*
X-82143Y-72941D01*
X-82205Y-73029D01*
X-82267Y-73108D01*
X-82319Y-73170D01*
X-82364Y-73214D01*
X-82399Y-73258D01*
X-82416Y-73276D01*
X-82425Y-73284D01*
X-82557Y-73399D01*
X-82698Y-73496D01*
X-82848Y-73584D01*
X-83007Y-73663D01*
X-83157Y-73725D01*
X-83315Y-73778D01*
X-83465Y-73822D01*
X-83615Y-73857D01*
X-83747Y-73884D01*
X-83879Y-73901D01*
X-83994Y-73919D01*
X-84091Y-73928D01*
X-84170Y-73937D01*
X-84285D01*
X-84496Y-73928D01*
X-84699Y-73910D01*
X-84884Y-73884D01*
X-85061Y-73840D01*
X-85228Y-73796D01*
X-85378Y-73743D01*
X-85519Y-73690D01*
X-85642Y-73637D01*
X-85757Y-73575D01*
X-85854Y-73522D01*
X-85942Y-73470D01*
X-86012Y-73425D01*
X-86065Y-73381D01*
X-86101Y-73355D01*
X-86127Y-73337D01*
X-86136Y-73328D01*
X-86259Y-73214D01*
X-86365Y-73082D01*
X-86462Y-72950D01*
X-86550Y-72800D01*
X-86621Y-72659D01*
X-86691Y-72518D01*
X-86744Y-72368D01*
X-86788Y-72235D01*
X-86832Y-72103D01*
X-86859Y-71980D01*
X-86885Y-71865D01*
X-86903Y-71768D01*
X-86911Y-71689D01*
X-86920Y-71636D01*
X-86929Y-71601D01*
Y-71583D01*
X-85907Y-71478D01*
X-85898Y-71619D01*
X-85889Y-71751D01*
X-85836Y-71980D01*
X-85766Y-72192D01*
X-85730Y-72280D01*
X-85686Y-72359D01*
X-85651Y-72429D01*
X-85607Y-72491D01*
X-85572Y-72544D01*
X-85545Y-72588D01*
X-85510Y-72623D01*
X-85492Y-72650D01*
X-85484Y-72659D01*
X-85475Y-72667D01*
X-85387Y-72747D01*
X-85299Y-72817D01*
X-85202Y-72870D01*
X-85105Y-72923D01*
X-84911Y-73002D01*
X-84726Y-73055D01*
X-84567Y-73082D01*
X-84496Y-73099D01*
X-84435D01*
X-84382Y-73108D01*
X-84188D01*
X-84065Y-73091D01*
X-83844Y-73046D01*
X-83659Y-72976D01*
X-83492Y-72905D01*
X-83368Y-72826D01*
X-83315Y-72791D01*
X-83271Y-72756D01*
X-83236Y-72729D01*
X-83210Y-72712D01*
X-83201Y-72703D01*
X-83192Y-72694D01*
X-83113Y-72614D01*
X-83051Y-72535D01*
X-82989Y-72456D01*
X-82945Y-72368D01*
X-82866Y-72200D01*
X-82813Y-72042D01*
X-82787Y-71909D01*
X-82769Y-71848D01*
Y-71795D01*
X-82760Y-71760D01*
Y-71724D01*
Y-71707D01*
Y-71698D01*
X-82769Y-71592D01*
X-82778Y-71486D01*
X-82831Y-71275D01*
X-82910Y-71072D01*
X-82998Y-70887D01*
X-83086Y-70728D01*
X-83122Y-70667D01*
X-83166Y-70605D01*
X-83192Y-70561D01*
X-83218Y-70526D01*
X-83227Y-70508D01*
X-83236Y-70499D01*
X-83333Y-70376D01*
X-83448Y-70244D01*
X-83580Y-70103D01*
X-83721Y-69962D01*
X-84012Y-69671D01*
X-84311Y-69398D01*
X-84452Y-69265D01*
X-84593Y-69151D01*
X-84717Y-69045D01*
X-84823Y-68957D01*
X-84911Y-68878D01*
X-84972Y-68825D01*
X-85016Y-68780D01*
X-85034Y-68772D01*
X-85193Y-68639D01*
X-85334Y-68516D01*
X-85475Y-68401D01*
X-85598Y-68287D01*
X-85722Y-68181D01*
X-85827Y-68075D01*
X-85924Y-67987D01*
X-86012Y-67899D01*
X-86092Y-67820D01*
X-86153Y-67749D01*
X-86215Y-67688D01*
X-86259Y-67644D01*
X-86303Y-67600D01*
X-86330Y-67573D01*
X-86339Y-67555D01*
X-86347Y-67547D01*
X-86506Y-67353D01*
X-86638Y-67159D01*
X-86753Y-66974D01*
X-86841Y-66806D01*
X-86911Y-66665D01*
X-86938Y-66603D01*
X-86964Y-66560D01*
X-86982Y-66515D01*
X-86991Y-66489D01*
X-87000Y-66471D01*
Y-66462D01*
X-87044Y-66339D01*
X-87070Y-66216D01*
X-87097Y-66101D01*
X-87105Y-65995D01*
X-87114Y-65907D01*
Y-65837D01*
Y-65793D01*
Y-65775D01*
X-81729D01*
Y-66736D01*
D02*
G37*
G36*
X-74158D02*
X-79155D01*
Y-69503D01*
X-74651D01*
Y-70464D01*
X-79155D01*
Y-72950D01*
X-74343D01*
Y-73910D01*
X-80231D01*
Y-65775D01*
X-74158D01*
Y-66736D01*
D02*
G37*
G36*
X-98563Y-67723D02*
X-97462D01*
Y-68639D01*
X-98563D01*
Y-73910D01*
X-99383D01*
X-103102Y-68639D01*
Y-67723D01*
X-99559D01*
Y-65775D01*
X-98563D01*
Y-67723D01*
D02*
G37*
G36*
X-35326Y134320D02*
X-38168D01*
Y133231D01*
X-38162Y133134D01*
X-38155Y133051D01*
Y132982D01*
X-38148Y132933D01*
X-38141Y132899D01*
X-38134Y132878D01*
Y132871D01*
X-38113Y132795D01*
X-38085Y132725D01*
X-38058Y132663D01*
X-38030Y132600D01*
X-38002Y132552D01*
X-37981Y132517D01*
X-37967Y132489D01*
X-37961Y132483D01*
X-37912Y132413D01*
X-37843Y132337D01*
X-37773Y132261D01*
X-37704Y132198D01*
X-37641Y132136D01*
X-37586Y132094D01*
X-37551Y132066D01*
X-37544Y132052D01*
X-37538D01*
X-37413Y131955D01*
X-37274Y131852D01*
X-37128Y131754D01*
X-36983Y131657D01*
X-36858Y131574D01*
X-36802Y131532D01*
X-36754Y131505D01*
X-36712Y131477D01*
X-36685Y131456D01*
X-36664Y131449D01*
X-36657Y131442D01*
X-35326Y130596D01*
Y129535D01*
X-37066Y130645D01*
X-37246Y130770D01*
X-37413Y130894D01*
X-37558Y131012D01*
X-37683Y131116D01*
X-37780Y131207D01*
X-37822Y131248D01*
X-37857Y131283D01*
X-37884Y131311D01*
X-37905Y131331D01*
X-37912Y131338D01*
X-37919Y131345D01*
X-37974Y131415D01*
X-38037Y131498D01*
X-38085Y131581D01*
X-38134Y131664D01*
X-38175Y131741D01*
X-38210Y131803D01*
X-38231Y131845D01*
X-38238Y131852D01*
Y131858D01*
X-38266Y131692D01*
X-38300Y131532D01*
X-38342Y131387D01*
X-38384Y131255D01*
X-38432Y131130D01*
X-38481Y131019D01*
X-38529Y130922D01*
X-38578Y130832D01*
X-38626Y130749D01*
X-38675Y130680D01*
X-38716Y130624D01*
X-38751Y130576D01*
X-38786Y130541D01*
X-38807Y130513D01*
X-38820Y130499D01*
X-38827Y130492D01*
X-38917Y130416D01*
X-39007Y130347D01*
X-39105Y130284D01*
X-39202Y130236D01*
X-39299Y130194D01*
X-39396Y130160D01*
X-39576Y130104D01*
X-39659Y130083D01*
X-39736Y130069D01*
X-39805Y130062D01*
X-39867Y130056D01*
X-39909Y130049D01*
X-39951D01*
X-39971D01*
X-39978D01*
X-40173Y130062D01*
X-40353Y130090D01*
X-40512Y130132D01*
X-40658Y130180D01*
X-40720Y130208D01*
X-40776Y130236D01*
X-40824Y130257D01*
X-40866Y130277D01*
X-40901Y130291D01*
X-40921Y130305D01*
X-40935Y130319D01*
X-40942D01*
X-41095Y130423D01*
X-41220Y130541D01*
X-41330Y130659D01*
X-41414Y130777D01*
X-41476Y130874D01*
X-41518Y130957D01*
X-41532Y130992D01*
X-41546Y131012D01*
X-41552Y131026D01*
Y131033D01*
X-41580Y131123D01*
X-41608Y131214D01*
X-41649Y131421D01*
X-41684Y131636D01*
X-41705Y131845D01*
X-41712Y131948D01*
X-41719Y132039D01*
Y132115D01*
X-41726Y132191D01*
Y135166D01*
X-35326D01*
Y134320D01*
D02*
G37*
G36*
X-37024Y129043D02*
X-36879Y129022D01*
X-36733Y128995D01*
X-36601Y128960D01*
X-36484Y128918D01*
X-36366Y128870D01*
X-36262Y128814D01*
X-36165Y128759D01*
X-36074Y128710D01*
X-35998Y128655D01*
X-35936Y128606D01*
X-35880Y128565D01*
X-35832Y128530D01*
X-35804Y128502D01*
X-35783Y128481D01*
X-35776Y128475D01*
X-35679Y128364D01*
X-35596Y128239D01*
X-35520Y128114D01*
X-35457Y127989D01*
X-35402Y127857D01*
X-35360Y127732D01*
X-35319Y127608D01*
X-35291Y127490D01*
X-35270Y127379D01*
X-35249Y127275D01*
X-35235Y127178D01*
X-35228Y127101D01*
Y127032D01*
X-35222Y126984D01*
Y126942D01*
X-35228Y126769D01*
X-35242Y126602D01*
X-35270Y126450D01*
X-35312Y126304D01*
X-35353Y126172D01*
X-35395Y126047D01*
X-35450Y125930D01*
X-35499Y125826D01*
X-35547Y125736D01*
X-35603Y125652D01*
X-35645Y125583D01*
X-35693Y125520D01*
X-35728Y125479D01*
X-35755Y125444D01*
X-35769Y125423D01*
X-35776Y125416D01*
X-35880Y125312D01*
X-35998Y125222D01*
X-36109Y125146D01*
X-36227Y125077D01*
X-36345Y125021D01*
X-36456Y124973D01*
X-36567Y124938D01*
X-36678Y124903D01*
X-36775Y124883D01*
X-36865Y124862D01*
X-36948Y124855D01*
X-37017Y124841D01*
X-37080D01*
X-37121Y124834D01*
X-37149D01*
X-37156D01*
X-37267D01*
X-37371Y124848D01*
X-37565Y124883D01*
X-37739Y124931D01*
X-37884Y124987D01*
X-37947Y125021D01*
X-38002Y125049D01*
X-38051Y125077D01*
X-38092Y125098D01*
X-38127Y125118D01*
X-38148Y125132D01*
X-38162Y125139D01*
X-38168Y125146D01*
X-38321Y125271D01*
X-38446Y125416D01*
X-38557Y125562D01*
X-38640Y125708D01*
X-38709Y125840D01*
X-38737Y125895D01*
X-38758Y125943D01*
X-38772Y125985D01*
X-38786Y126013D01*
X-38793Y126034D01*
Y126041D01*
X-38869Y125874D01*
X-38945Y125729D01*
X-39035Y125611D01*
X-39112Y125507D01*
X-39188Y125430D01*
X-39243Y125375D01*
X-39285Y125347D01*
X-39292Y125333D01*
X-39299D01*
X-39430Y125257D01*
X-39562Y125195D01*
X-39694Y125153D01*
X-39812Y125125D01*
X-39916Y125111D01*
X-39964Y125105D01*
X-39999Y125098D01*
X-40034D01*
X-40055D01*
X-40068D01*
X-40075D01*
X-40200Y125105D01*
X-40325Y125118D01*
X-40443Y125146D01*
X-40554Y125181D01*
X-40658Y125215D01*
X-40755Y125257D01*
X-40845Y125306D01*
X-40928Y125354D01*
X-40998Y125403D01*
X-41067Y125451D01*
X-41122Y125493D01*
X-41171Y125527D01*
X-41206Y125562D01*
X-41233Y125590D01*
X-41247Y125604D01*
X-41254Y125611D01*
X-41344Y125708D01*
X-41414Y125819D01*
X-41483Y125923D01*
X-41539Y126041D01*
X-41587Y126152D01*
X-41629Y126263D01*
X-41656Y126373D01*
X-41684Y126477D01*
X-41705Y126581D01*
X-41719Y126672D01*
X-41733Y126755D01*
X-41740Y126824D01*
X-41747Y126880D01*
Y126963D01*
X-41740Y127115D01*
X-41726Y127261D01*
X-41705Y127393D01*
X-41670Y127524D01*
X-41636Y127642D01*
X-41594Y127746D01*
X-41552Y127850D01*
X-41511Y127941D01*
X-41462Y128024D01*
X-41421Y128093D01*
X-41379Y128155D01*
X-41344Y128204D01*
X-41310Y128246D01*
X-41289Y128273D01*
X-41275Y128287D01*
X-41268Y128294D01*
X-41178Y128384D01*
X-41081Y128461D01*
X-40984Y128523D01*
X-40887Y128585D01*
X-40783Y128634D01*
X-40686Y128669D01*
X-40595Y128703D01*
X-40505Y128731D01*
X-40415Y128752D01*
X-40339Y128766D01*
X-40270Y128780D01*
X-40214Y128786D01*
X-40166D01*
X-40124Y128793D01*
X-40103D01*
X-40096D01*
X-39930Y128786D01*
X-39777Y128759D01*
X-39639Y128717D01*
X-39521Y128676D01*
X-39430Y128634D01*
X-39361Y128592D01*
X-39333Y128579D01*
X-39313Y128565D01*
X-39306Y128558D01*
X-39299D01*
X-39181Y128461D01*
X-39084Y128343D01*
X-38994Y128225D01*
X-38924Y128107D01*
X-38869Y128003D01*
X-38841Y127954D01*
X-38827Y127913D01*
X-38813Y127885D01*
X-38800Y127857D01*
X-38793Y127844D01*
Y127837D01*
X-38723Y128045D01*
X-38640Y128225D01*
X-38543Y128377D01*
X-38446Y128502D01*
X-38404Y128558D01*
X-38356Y128606D01*
X-38321Y128648D01*
X-38286Y128676D01*
X-38259Y128703D01*
X-38238Y128724D01*
X-38224Y128731D01*
X-38217Y128738D01*
X-38134Y128793D01*
X-38051Y128842D01*
X-37877Y128918D01*
X-37704Y128974D01*
X-37544Y129008D01*
X-37468Y129022D01*
X-37399Y129036D01*
X-37336Y129043D01*
X-37281D01*
X-37239Y129050D01*
X-37205D01*
X-37184D01*
X-37177D01*
X-37024Y129043D01*
D02*
G37*
G36*
X-54013Y124744D02*
X-57168D01*
X-57057Y124592D01*
X-57002Y124522D01*
X-56946Y124460D01*
X-56898Y124404D01*
X-56863Y124363D01*
X-56835Y124335D01*
X-56828Y124328D01*
X-56787Y124286D01*
X-56731Y124231D01*
X-56669Y124176D01*
X-56599Y124113D01*
X-56454Y123975D01*
X-56301Y123843D01*
X-56156Y123718D01*
X-56093Y123662D01*
X-56031Y123614D01*
X-55989Y123572D01*
X-55947Y123545D01*
X-55927Y123524D01*
X-55920Y123517D01*
X-55767Y123385D01*
X-55622Y123260D01*
X-55490Y123149D01*
X-55372Y123038D01*
X-55261Y122941D01*
X-55164Y122844D01*
X-55074Y122761D01*
X-54991Y122685D01*
X-54921Y122622D01*
X-54866Y122560D01*
X-54817Y122511D01*
X-54776Y122470D01*
X-54748Y122435D01*
X-54720Y122414D01*
X-54713Y122400D01*
X-54706Y122394D01*
X-54575Y122241D01*
X-54471Y122102D01*
X-54380Y121971D01*
X-54304Y121853D01*
X-54249Y121756D01*
X-54207Y121679D01*
X-54193Y121651D01*
X-54186Y121631D01*
X-54179Y121624D01*
Y121617D01*
X-54124Y121478D01*
X-54089Y121340D01*
X-54061Y121215D01*
X-54041Y121097D01*
X-54027Y121000D01*
X-54020Y120923D01*
Y120896D01*
Y120875D01*
Y120868D01*
Y120861D01*
X-54027Y120722D01*
X-54041Y120591D01*
X-54068Y120466D01*
X-54103Y120341D01*
X-54145Y120230D01*
X-54193Y120126D01*
X-54242Y120029D01*
X-54290Y119946D01*
X-54339Y119862D01*
X-54387Y119793D01*
X-54436Y119731D01*
X-54478Y119682D01*
X-54512Y119648D01*
X-54540Y119613D01*
X-54554Y119599D01*
X-54561Y119592D01*
X-54665Y119502D01*
X-54776Y119426D01*
X-54893Y119356D01*
X-55018Y119294D01*
X-55136Y119245D01*
X-55261Y119204D01*
X-55379Y119169D01*
X-55497Y119141D01*
X-55601Y119121D01*
X-55705Y119107D01*
X-55795Y119093D01*
X-55871Y119086D01*
X-55934Y119079D01*
X-56024D01*
X-56190Y119086D01*
X-56350Y119100D01*
X-56495Y119121D01*
X-56634Y119155D01*
X-56766Y119190D01*
X-56884Y119232D01*
X-56995Y119273D01*
X-57092Y119315D01*
X-57182Y119363D01*
X-57258Y119405D01*
X-57327Y119446D01*
X-57383Y119481D01*
X-57425Y119516D01*
X-57452Y119537D01*
X-57473Y119551D01*
X-57480Y119557D01*
X-57577Y119648D01*
X-57660Y119752D01*
X-57737Y119856D01*
X-57806Y119973D01*
X-57861Y120084D01*
X-57917Y120195D01*
X-57958Y120313D01*
X-57993Y120417D01*
X-58028Y120521D01*
X-58049Y120618D01*
X-58069Y120709D01*
X-58083Y120785D01*
X-58090Y120847D01*
X-58097Y120889D01*
X-58104Y120917D01*
Y120930D01*
X-57300Y121014D01*
X-57293Y120903D01*
X-57286Y120799D01*
X-57244Y120618D01*
X-57189Y120452D01*
X-57161Y120383D01*
X-57126Y120320D01*
X-57099Y120265D01*
X-57064Y120216D01*
X-57036Y120175D01*
X-57015Y120140D01*
X-56988Y120112D01*
X-56974Y120091D01*
X-56967Y120084D01*
X-56960Y120077D01*
X-56891Y120015D01*
X-56821Y119960D01*
X-56745Y119918D01*
X-56669Y119876D01*
X-56516Y119814D01*
X-56371Y119772D01*
X-56246Y119752D01*
X-56190Y119738D01*
X-56142D01*
X-56100Y119731D01*
X-55947D01*
X-55851Y119745D01*
X-55677Y119779D01*
X-55532Y119835D01*
X-55400Y119890D01*
X-55303Y119953D01*
X-55261Y119980D01*
X-55226Y120008D01*
X-55199Y120029D01*
X-55178Y120043D01*
X-55171Y120050D01*
X-55164Y120057D01*
X-55102Y120119D01*
X-55053Y120182D01*
X-55005Y120244D01*
X-54970Y120313D01*
X-54907Y120445D01*
X-54866Y120570D01*
X-54845Y120674D01*
X-54831Y120722D01*
Y120764D01*
X-54824Y120792D01*
Y120819D01*
Y120833D01*
Y120840D01*
X-54831Y120923D01*
X-54838Y121007D01*
X-54880Y121173D01*
X-54942Y121333D01*
X-55011Y121478D01*
X-55081Y121603D01*
X-55108Y121651D01*
X-55143Y121700D01*
X-55164Y121735D01*
X-55185Y121763D01*
X-55192Y121776D01*
X-55199Y121783D01*
X-55275Y121880D01*
X-55365Y121984D01*
X-55469Y122095D01*
X-55580Y122206D01*
X-55809Y122435D01*
X-56045Y122650D01*
X-56156Y122754D01*
X-56266Y122844D01*
X-56364Y122927D01*
X-56447Y122997D01*
X-56516Y123059D01*
X-56565Y123101D01*
X-56599Y123135D01*
X-56613Y123142D01*
X-56738Y123246D01*
X-56849Y123343D01*
X-56960Y123434D01*
X-57057Y123524D01*
X-57154Y123607D01*
X-57237Y123690D01*
X-57314Y123759D01*
X-57383Y123829D01*
X-57445Y123891D01*
X-57494Y123947D01*
X-57542Y123995D01*
X-57577Y124030D01*
X-57612Y124065D01*
X-57632Y124085D01*
X-57639Y124099D01*
X-57646Y124106D01*
X-57771Y124259D01*
X-57875Y124411D01*
X-57965Y124557D01*
X-58035Y124689D01*
X-58090Y124800D01*
X-58111Y124848D01*
X-58132Y124883D01*
X-58146Y124917D01*
X-58153Y124938D01*
X-58159Y124952D01*
Y124959D01*
X-58194Y125056D01*
X-58215Y125153D01*
X-58236Y125243D01*
X-58243Y125327D01*
X-58250Y125396D01*
Y125451D01*
Y125486D01*
Y125500D01*
X-54013D01*
Y124744D01*
D02*
G37*
G36*
X-60802Y125597D02*
X-60614Y125569D01*
X-60448Y125535D01*
X-60302Y125486D01*
X-60240Y125465D01*
X-60184Y125444D01*
X-60136Y125431D01*
X-60101Y125410D01*
X-60066Y125396D01*
X-60046Y125382D01*
X-60032Y125375D01*
X-60025D01*
X-59879Y125278D01*
X-59748Y125174D01*
X-59644Y125063D01*
X-59560Y124959D01*
X-59491Y124862D01*
X-59442Y124779D01*
X-59429Y124751D01*
X-59415Y124730D01*
X-59408Y124716D01*
Y124710D01*
X-59373Y124619D01*
X-59338Y124529D01*
X-59290Y124328D01*
X-59255Y124120D01*
X-59234Y123919D01*
X-59220Y123829D01*
X-59214Y123739D01*
Y123662D01*
X-59207Y123593D01*
Y123538D01*
Y123496D01*
Y123468D01*
Y123461D01*
Y119100D01*
X-60053D01*
Y123510D01*
Y123607D01*
X-60059Y123704D01*
X-60066Y123863D01*
X-60080Y124002D01*
X-60094Y124113D01*
X-60115Y124196D01*
X-60129Y124259D01*
X-60136Y124293D01*
X-60143Y124307D01*
X-60184Y124397D01*
X-60233Y124474D01*
X-60288Y124543D01*
X-60337Y124599D01*
X-60392Y124640D01*
X-60427Y124675D01*
X-60455Y124696D01*
X-60469Y124703D01*
X-60559Y124751D01*
X-60649Y124786D01*
X-60739Y124813D01*
X-60829Y124827D01*
X-60905Y124841D01*
X-60961Y124848D01*
X-61016D01*
X-61169Y124834D01*
X-61301Y124807D01*
X-61419Y124765D01*
X-61516Y124716D01*
X-61592Y124668D01*
X-61648Y124626D01*
X-61682Y124599D01*
X-61696Y124585D01*
X-61738Y124529D01*
X-61779Y124467D01*
X-61814Y124390D01*
X-61842Y124314D01*
X-61890Y124148D01*
X-61925Y123981D01*
X-61946Y123829D01*
X-61953Y123759D01*
X-61960Y123697D01*
Y123649D01*
X-61966Y123614D01*
Y123586D01*
Y123579D01*
X-62729Y123690D01*
Y123863D01*
X-62715Y124023D01*
X-62695Y124176D01*
X-62674Y124314D01*
X-62639Y124446D01*
X-62604Y124564D01*
X-62563Y124668D01*
X-62528Y124765D01*
X-62487Y124848D01*
X-62445Y124924D01*
X-62410Y124987D01*
X-62375Y125035D01*
X-62348Y125077D01*
X-62327Y125105D01*
X-62313Y125119D01*
X-62306Y125126D01*
X-62216Y125209D01*
X-62119Y125285D01*
X-62022Y125347D01*
X-61911Y125403D01*
X-61807Y125451D01*
X-61696Y125486D01*
X-61592Y125521D01*
X-61488Y125542D01*
X-61391Y125562D01*
X-61301Y125576D01*
X-61217Y125590D01*
X-61148Y125597D01*
X-61093Y125604D01*
X-61009D01*
X-60802Y125597D01*
D02*
G37*
G36*
X40000Y132654D02*
X37157D01*
Y131565D01*
X37164Y131468D01*
X37171Y131385D01*
Y131316D01*
X37178Y131267D01*
X37185Y131233D01*
X37192Y131212D01*
Y131205D01*
X37212Y131129D01*
X37240Y131059D01*
X37268Y130997D01*
X37296Y130934D01*
X37323Y130886D01*
X37344Y130851D01*
X37358Y130823D01*
X37365Y130816D01*
X37413Y130747D01*
X37483Y130671D01*
X37552Y130595D01*
X37622Y130532D01*
X37684Y130470D01*
X37739Y130428D01*
X37774Y130400D01*
X37781Y130386D01*
X37788D01*
X37913Y130289D01*
X38052Y130185D01*
X38197Y130088D01*
X38343Y129991D01*
X38468Y129908D01*
X38523Y129867D01*
X38572Y129839D01*
X38613Y129811D01*
X38641Y129790D01*
X38662Y129783D01*
X38669Y129776D01*
X40000Y128930D01*
Y127869D01*
X38259Y128979D01*
X38079Y129104D01*
X37913Y129228D01*
X37767Y129346D01*
X37642Y129450D01*
X37545Y129541D01*
X37504Y129582D01*
X37469Y129617D01*
X37441Y129645D01*
X37420Y129665D01*
X37413Y129672D01*
X37407Y129679D01*
X37351Y129749D01*
X37289Y129832D01*
X37240Y129915D01*
X37192Y129998D01*
X37150Y130075D01*
X37115Y130137D01*
X37095Y130178D01*
X37088Y130185D01*
Y130192D01*
X37060Y130026D01*
X37025Y129867D01*
X36984Y129721D01*
X36942Y129589D01*
X36893Y129464D01*
X36845Y129353D01*
X36796Y129256D01*
X36748Y129166D01*
X36699Y129083D01*
X36651Y129014D01*
X36609Y128958D01*
X36574Y128910D01*
X36540Y128875D01*
X36519Y128847D01*
X36505Y128833D01*
X36498Y128826D01*
X36408Y128750D01*
X36318Y128681D01*
X36221Y128618D01*
X36124Y128570D01*
X36027Y128528D01*
X35930Y128493D01*
X35749Y128438D01*
X35666Y128417D01*
X35590Y128403D01*
X35521Y128396D01*
X35458Y128390D01*
X35417Y128383D01*
X35375D01*
X35354D01*
X35347D01*
X35153Y128396D01*
X34973Y128424D01*
X34813Y128466D01*
X34668Y128514D01*
X34605Y128542D01*
X34550Y128570D01*
X34501Y128591D01*
X34460Y128611D01*
X34425Y128625D01*
X34404Y128639D01*
X34390Y128653D01*
X34383D01*
X34231Y128757D01*
X34106Y128875D01*
X33995Y128993D01*
X33912Y129111D01*
X33849Y129208D01*
X33808Y129291D01*
X33794Y129326D01*
X33780Y129346D01*
X33773Y129360D01*
Y129367D01*
X33745Y129457D01*
X33718Y129548D01*
X33676Y129755D01*
X33641Y129971D01*
X33621Y130178D01*
X33614Y130282D01*
X33607Y130373D01*
Y130449D01*
X33600Y130525D01*
Y133500D01*
X40000D01*
Y132654D01*
D02*
G37*
G36*
X35888Y126635D02*
X35826Y126489D01*
X35756Y126351D01*
X35694Y126226D01*
X35631Y126115D01*
X35611Y126067D01*
X35583Y126025D01*
X35569Y125990D01*
X35555Y125969D01*
X35541Y125956D01*
Y125949D01*
X35437Y125782D01*
X35340Y125637D01*
X35250Y125505D01*
X35167Y125401D01*
X35097Y125311D01*
X35049Y125248D01*
X35014Y125214D01*
X35000Y125200D01*
X40000D01*
Y124416D01*
X33579D01*
Y124922D01*
X33738Y125013D01*
X33891Y125117D01*
X34037Y125234D01*
X34161Y125352D01*
X34279Y125456D01*
X34321Y125505D01*
X34362Y125540D01*
X34397Y125574D01*
X34418Y125602D01*
X34432Y125616D01*
X34439Y125623D01*
X34598Y125810D01*
X34737Y126011D01*
X34869Y126205D01*
X34980Y126385D01*
X35021Y126462D01*
X35063Y126538D01*
X35104Y126607D01*
X35132Y126663D01*
X35153Y126711D01*
X35174Y126746D01*
X35181Y126767D01*
X35188Y126774D01*
X35944D01*
X35888Y126635D01*
D02*
G37*
G36*
X-71079Y104993D02*
X-70912Y104986D01*
X-70593Y104944D01*
X-70441Y104924D01*
X-70302Y104896D01*
X-70170Y104861D01*
X-70046Y104834D01*
X-69935Y104799D01*
X-69831Y104771D01*
X-69747Y104743D01*
X-69671Y104716D01*
X-69616Y104695D01*
X-69567Y104681D01*
X-69539Y104674D01*
X-69532Y104667D01*
X-69387Y104598D01*
X-69248Y104529D01*
X-69123Y104452D01*
X-69005Y104369D01*
X-68895Y104286D01*
X-68797Y104209D01*
X-68707Y104126D01*
X-68624Y104050D01*
X-68548Y103974D01*
X-68485Y103904D01*
X-68437Y103842D01*
X-68388Y103786D01*
X-68354Y103745D01*
X-68333Y103710D01*
X-68319Y103689D01*
X-68312Y103682D01*
X-68236Y103558D01*
X-68173Y103426D01*
X-68118Y103287D01*
X-68069Y103142D01*
X-68035Y103003D01*
X-68000Y102864D01*
X-67972Y102726D01*
X-67951Y102594D01*
X-67931Y102469D01*
X-67917Y102358D01*
X-67910Y102254D01*
X-67903Y102171D01*
X-67896Y102095D01*
Y101997D01*
X-67903Y101810D01*
X-67917Y101637D01*
X-67944Y101470D01*
X-67979Y101311D01*
X-68021Y101158D01*
X-68069Y101020D01*
X-68118Y100895D01*
X-68166Y100777D01*
X-68215Y100666D01*
X-68264Y100576D01*
X-68312Y100493D01*
X-68354Y100430D01*
X-68388Y100375D01*
X-68416Y100340D01*
X-68430Y100312D01*
X-68437Y100306D01*
X-68548Y100181D01*
X-68666Y100063D01*
X-68790Y99959D01*
X-68915Y99862D01*
X-69047Y99772D01*
X-69186Y99695D01*
X-69311Y99626D01*
X-69442Y99564D01*
X-69560Y99508D01*
X-69671Y99466D01*
X-69775Y99425D01*
X-69858Y99397D01*
X-69935Y99369D01*
X-69983Y99356D01*
X-70018Y99342D01*
X-70032D01*
X-70247Y100188D01*
X-70101Y100222D01*
X-69962Y100271D01*
X-69831Y100319D01*
X-69713Y100368D01*
X-69602Y100423D01*
X-69505Y100479D01*
X-69415Y100534D01*
X-69331Y100590D01*
X-69262Y100645D01*
X-69200Y100694D01*
X-69144Y100742D01*
X-69103Y100777D01*
X-69068Y100812D01*
X-69047Y100840D01*
X-69033Y100853D01*
X-69026Y100860D01*
X-68957Y100957D01*
X-68895Y101054D01*
X-68839Y101152D01*
X-68790Y101256D01*
X-68749Y101360D01*
X-68714Y101457D01*
X-68666Y101651D01*
X-68652Y101734D01*
X-68638Y101817D01*
X-68631Y101887D01*
X-68624Y101949D01*
X-68617Y101997D01*
Y102067D01*
X-68624Y102178D01*
X-68631Y102282D01*
X-68666Y102483D01*
X-68714Y102670D01*
X-68770Y102830D01*
X-68797Y102899D01*
X-68818Y102961D01*
X-68846Y103017D01*
X-68867Y103065D01*
X-68888Y103107D01*
X-68901Y103135D01*
X-68915Y103149D01*
Y103155D01*
X-68978Y103246D01*
X-69040Y103329D01*
X-69186Y103481D01*
X-69331Y103606D01*
X-69484Y103710D01*
X-69616Y103786D01*
X-69671Y103821D01*
X-69727Y103849D01*
X-69768Y103863D01*
X-69796Y103877D01*
X-69817Y103890D01*
X-69824D01*
X-70059Y103967D01*
X-70302Y104029D01*
X-70545Y104071D01*
X-70656Y104085D01*
X-70767Y104099D01*
X-70871Y104106D01*
X-70961Y104112D01*
X-71044Y104119D01*
X-71113D01*
X-71176Y104126D01*
X-71217D01*
X-71245D01*
X-71252D01*
X-71488Y104119D01*
X-71710Y104099D01*
X-71918Y104064D01*
X-72015Y104050D01*
X-72105Y104029D01*
X-72181Y104008D01*
X-72258Y103995D01*
X-72320Y103974D01*
X-72375Y103960D01*
X-72417Y103953D01*
X-72452Y103939D01*
X-72473Y103932D01*
X-72480D01*
X-72694Y103842D01*
X-72882Y103738D01*
X-73041Y103627D01*
X-73110Y103565D01*
X-73180Y103509D01*
X-73235Y103454D01*
X-73284Y103405D01*
X-73332Y103357D01*
X-73367Y103322D01*
X-73395Y103287D01*
X-73416Y103259D01*
X-73422Y103246D01*
X-73429Y103239D01*
X-73492Y103142D01*
X-73547Y103045D01*
X-73596Y102941D01*
X-73637Y102837D01*
X-73700Y102628D01*
X-73748Y102427D01*
X-73762Y102344D01*
X-73769Y102261D01*
X-73776Y102185D01*
X-73783Y102122D01*
X-73790Y102067D01*
Y101880D01*
X-73776Y101769D01*
X-73741Y101561D01*
X-73686Y101380D01*
X-73658Y101304D01*
X-73631Y101228D01*
X-73603Y101158D01*
X-73575Y101103D01*
X-73547Y101054D01*
X-73520Y101013D01*
X-73499Y100978D01*
X-73485Y100957D01*
X-73478Y100943D01*
X-73471Y100937D01*
X-73409Y100860D01*
X-73339Y100784D01*
X-73180Y100659D01*
X-73007Y100541D01*
X-72840Y100451D01*
X-72688Y100382D01*
X-72625Y100347D01*
X-72570Y100326D01*
X-72521Y100306D01*
X-72480Y100299D01*
X-72459Y100285D01*
X-72452D01*
X-72646Y99453D01*
X-72805Y99508D01*
X-72958Y99571D01*
X-73104Y99633D01*
X-73235Y99709D01*
X-73360Y99778D01*
X-73471Y99855D01*
X-73575Y99931D01*
X-73665Y100007D01*
X-73748Y100084D01*
X-73818Y100146D01*
X-73880Y100209D01*
X-73929Y100264D01*
X-73970Y100306D01*
X-73998Y100340D01*
X-74012Y100361D01*
X-74019Y100368D01*
X-74109Y100493D01*
X-74178Y100625D01*
X-74248Y100756D01*
X-74303Y100895D01*
X-74352Y101034D01*
X-74393Y101165D01*
X-74421Y101297D01*
X-74449Y101422D01*
X-74470Y101540D01*
X-74483Y101644D01*
X-74497Y101741D01*
X-74504Y101824D01*
X-74511Y101894D01*
Y101984D01*
X-74504Y102143D01*
X-74497Y102296D01*
X-74449Y102580D01*
X-74421Y102719D01*
X-74386Y102844D01*
X-74352Y102968D01*
X-74317Y103079D01*
X-74282Y103176D01*
X-74248Y103266D01*
X-74213Y103350D01*
X-74185Y103412D01*
X-74158Y103468D01*
X-74137Y103502D01*
X-74130Y103530D01*
X-74123Y103537D01*
X-74047Y103662D01*
X-73963Y103786D01*
X-73873Y103897D01*
X-73783Y104002D01*
X-73686Y104099D01*
X-73596Y104189D01*
X-73499Y104265D01*
X-73416Y104341D01*
X-73326Y104404D01*
X-73249Y104459D01*
X-73180Y104508D01*
X-73117Y104549D01*
X-73062Y104577D01*
X-73027Y104598D01*
X-73000Y104612D01*
X-72993Y104619D01*
X-72854Y104688D01*
X-72701Y104743D01*
X-72556Y104792D01*
X-72410Y104840D01*
X-72112Y104910D01*
X-71973Y104931D01*
X-71842Y104951D01*
X-71717Y104965D01*
X-71606Y104979D01*
X-71502Y104986D01*
X-71412Y104993D01*
X-71342Y105000D01*
X-71287D01*
X-71259D01*
X-71245D01*
X-71079Y104993D01*
D02*
G37*
G36*
X-69532Y98593D02*
X-69387Y98565D01*
X-69255Y98530D01*
X-69130Y98482D01*
X-69019Y98433D01*
X-68908Y98385D01*
X-68811Y98329D01*
X-68728Y98274D01*
X-68645Y98218D01*
X-68576Y98170D01*
X-68520Y98121D01*
X-68471Y98073D01*
X-68430Y98038D01*
X-68402Y98010D01*
X-68388Y97997D01*
X-68381Y97990D01*
X-68298Y97879D01*
X-68222Y97768D01*
X-68159Y97650D01*
X-68104Y97532D01*
X-68056Y97414D01*
X-68014Y97296D01*
X-67979Y97178D01*
X-67958Y97067D01*
X-67938Y96963D01*
X-67924Y96866D01*
X-67910Y96783D01*
X-67903Y96707D01*
X-67896Y96644D01*
Y96561D01*
X-67903Y96367D01*
X-67931Y96187D01*
X-67965Y96013D01*
X-68021Y95854D01*
X-68076Y95701D01*
X-68139Y95562D01*
X-68215Y95438D01*
X-68284Y95327D01*
X-68354Y95223D01*
X-68430Y95133D01*
X-68492Y95056D01*
X-68555Y94994D01*
X-68603Y94945D01*
X-68638Y94911D01*
X-68666Y94890D01*
X-68673Y94883D01*
X-68790Y94793D01*
X-68915Y94717D01*
X-69047Y94647D01*
X-69172Y94592D01*
X-69297Y94543D01*
X-69422Y94502D01*
X-69546Y94467D01*
X-69657Y94439D01*
X-69768Y94418D01*
X-69865Y94404D01*
X-69949Y94391D01*
X-70025Y94384D01*
X-70087Y94377D01*
X-70129D01*
X-70163D01*
X-70170D01*
X-70337Y94384D01*
X-70496Y94404D01*
X-70649Y94432D01*
X-70788Y94467D01*
X-70926Y94508D01*
X-71044Y94564D01*
X-71162Y94613D01*
X-71266Y94668D01*
X-71356Y94724D01*
X-71432Y94772D01*
X-71509Y94821D01*
X-71564Y94869D01*
X-71606Y94904D01*
X-71640Y94931D01*
X-71661Y94952D01*
X-71668Y94959D01*
X-71772Y95070D01*
X-71862Y95188D01*
X-71939Y95306D01*
X-72008Y95424D01*
X-72063Y95542D01*
X-72112Y95660D01*
X-72147Y95771D01*
X-72181Y95882D01*
X-72202Y95979D01*
X-72223Y96076D01*
X-72230Y96159D01*
X-72244Y96228D01*
Y96284D01*
X-72251Y96332D01*
Y96367D01*
X-72244Y96485D01*
X-72237Y96603D01*
X-72216Y96714D01*
X-72188Y96825D01*
X-72126Y97026D01*
X-72084Y97123D01*
X-72050Y97206D01*
X-72015Y97289D01*
X-71973Y97359D01*
X-71939Y97421D01*
X-71911Y97476D01*
X-71883Y97518D01*
X-71869Y97546D01*
X-71855Y97566D01*
X-71849Y97573D01*
X-73568Y97234D01*
Y94675D01*
X-74317D01*
Y97858D01*
X-71030Y98475D01*
X-70926Y97740D01*
X-71023Y97670D01*
X-71113Y97594D01*
X-71190Y97511D01*
X-71259Y97442D01*
X-71308Y97372D01*
X-71349Y97317D01*
X-71370Y97282D01*
X-71377Y97268D01*
X-71439Y97150D01*
X-71481Y97033D01*
X-71516Y96915D01*
X-71536Y96804D01*
X-71550Y96714D01*
X-71557Y96637D01*
Y96575D01*
X-71550Y96464D01*
X-71543Y96360D01*
X-71523Y96256D01*
X-71495Y96166D01*
X-71432Y95992D01*
X-71398Y95923D01*
X-71363Y95854D01*
X-71322Y95791D01*
X-71287Y95743D01*
X-71252Y95694D01*
X-71224Y95660D01*
X-71197Y95632D01*
X-71176Y95604D01*
X-71169Y95597D01*
X-71162Y95590D01*
X-71086Y95521D01*
X-71002Y95465D01*
X-70919Y95410D01*
X-70836Y95368D01*
X-70656Y95299D01*
X-70489Y95257D01*
X-70406Y95244D01*
X-70337Y95230D01*
X-70268Y95223D01*
X-70212Y95216D01*
X-70163Y95209D01*
X-70129D01*
X-70108D01*
X-70101D01*
X-69969Y95216D01*
X-69851Y95223D01*
X-69734Y95244D01*
X-69623Y95271D01*
X-69525Y95299D01*
X-69428Y95334D01*
X-69345Y95368D01*
X-69269Y95403D01*
X-69200Y95445D01*
X-69137Y95479D01*
X-69089Y95514D01*
X-69040Y95542D01*
X-69005Y95569D01*
X-68985Y95590D01*
X-68971Y95597D01*
X-68964Y95604D01*
X-68888Y95680D01*
X-68825Y95757D01*
X-68770Y95833D01*
X-68721Y95916D01*
X-68679Y95999D01*
X-68645Y96076D01*
X-68596Y96228D01*
X-68562Y96360D01*
X-68555Y96416D01*
X-68548Y96464D01*
X-68541Y96506D01*
Y96561D01*
X-68548Y96651D01*
X-68555Y96734D01*
X-68589Y96887D01*
X-68638Y97026D01*
X-68693Y97143D01*
X-68742Y97241D01*
X-68790Y97310D01*
X-68811Y97338D01*
X-68825Y97359D01*
X-68839Y97365D01*
Y97372D01*
X-68901Y97428D01*
X-68964Y97483D01*
X-69103Y97573D01*
X-69255Y97650D01*
X-69401Y97705D01*
X-69532Y97740D01*
X-69595Y97761D01*
X-69643Y97768D01*
X-69685Y97775D01*
X-69713Y97781D01*
X-69734Y97788D01*
X-69741D01*
X-69678Y98614D01*
X-69532Y98593D01*
D02*
G37*
G36*
X67921Y103993D02*
X68088Y103986D01*
X68407Y103945D01*
X68559Y103924D01*
X68698Y103896D01*
X68830Y103861D01*
X68954Y103834D01*
X69065Y103799D01*
X69169Y103771D01*
X69253Y103743D01*
X69329Y103716D01*
X69384Y103695D01*
X69433Y103681D01*
X69461Y103674D01*
X69468Y103667D01*
X69613Y103598D01*
X69752Y103528D01*
X69877Y103452D01*
X69995Y103369D01*
X70106Y103286D01*
X70203Y103209D01*
X70293Y103126D01*
X70376Y103050D01*
X70452Y102974D01*
X70515Y102904D01*
X70563Y102842D01*
X70612Y102787D01*
X70646Y102745D01*
X70667Y102710D01*
X70681Y102689D01*
X70688Y102683D01*
X70764Y102558D01*
X70827Y102426D01*
X70882Y102287D01*
X70931Y102142D01*
X70965Y102003D01*
X71000Y101864D01*
X71028Y101726D01*
X71048Y101594D01*
X71069Y101469D01*
X71083Y101358D01*
X71090Y101254D01*
X71097Y101171D01*
X71104Y101095D01*
Y100997D01*
X71097Y100810D01*
X71083Y100637D01*
X71055Y100471D01*
X71021Y100311D01*
X70979Y100158D01*
X70931Y100020D01*
X70882Y99895D01*
X70834Y99777D01*
X70785Y99666D01*
X70736Y99576D01*
X70688Y99493D01*
X70646Y99430D01*
X70612Y99375D01*
X70584Y99340D01*
X70570Y99312D01*
X70563Y99305D01*
X70452Y99181D01*
X70334Y99063D01*
X70209Y98959D01*
X70085Y98862D01*
X69953Y98772D01*
X69814Y98695D01*
X69689Y98626D01*
X69558Y98564D01*
X69440Y98508D01*
X69329Y98467D01*
X69225Y98425D01*
X69142Y98397D01*
X69065Y98369D01*
X69017Y98356D01*
X68982Y98342D01*
X68968D01*
X68753Y99188D01*
X68899Y99222D01*
X69038Y99271D01*
X69169Y99319D01*
X69287Y99368D01*
X69398Y99423D01*
X69495Y99479D01*
X69585Y99534D01*
X69669Y99590D01*
X69738Y99645D01*
X69800Y99694D01*
X69856Y99742D01*
X69897Y99777D01*
X69932Y99812D01*
X69953Y99839D01*
X69967Y99853D01*
X69974Y99860D01*
X70043Y99957D01*
X70106Y100054D01*
X70161Y100152D01*
X70209Y100255D01*
X70251Y100359D01*
X70286Y100457D01*
X70334Y100651D01*
X70348Y100734D01*
X70362Y100817D01*
X70369Y100886D01*
X70376Y100949D01*
X70383Y100997D01*
Y101067D01*
X70376Y101178D01*
X70369Y101282D01*
X70334Y101483D01*
X70286Y101670D01*
X70230Y101830D01*
X70203Y101899D01*
X70182Y101961D01*
X70154Y102017D01*
X70133Y102065D01*
X70112Y102107D01*
X70099Y102135D01*
X70085Y102149D01*
Y102156D01*
X70022Y102246D01*
X69960Y102329D01*
X69814Y102481D01*
X69669Y102606D01*
X69516Y102710D01*
X69384Y102787D01*
X69329Y102821D01*
X69273Y102849D01*
X69232Y102863D01*
X69204Y102877D01*
X69183Y102891D01*
X69176D01*
X68941Y102967D01*
X68698Y103029D01*
X68455Y103071D01*
X68344Y103085D01*
X68233Y103098D01*
X68129Y103105D01*
X68039Y103112D01*
X67956Y103119D01*
X67887D01*
X67824Y103126D01*
X67783D01*
X67755D01*
X67748D01*
X67512Y103119D01*
X67290Y103098D01*
X67082Y103064D01*
X66985Y103050D01*
X66895Y103029D01*
X66819Y103008D01*
X66742Y102994D01*
X66680Y102974D01*
X66624Y102960D01*
X66583Y102953D01*
X66548Y102939D01*
X66528Y102932D01*
X66521D01*
X66306Y102842D01*
X66118Y102738D01*
X65959Y102627D01*
X65890Y102565D01*
X65820Y102509D01*
X65765Y102454D01*
X65716Y102405D01*
X65668Y102357D01*
X65633Y102322D01*
X65605Y102287D01*
X65584Y102260D01*
X65578Y102246D01*
X65571Y102239D01*
X65508Y102142D01*
X65453Y102045D01*
X65404Y101940D01*
X65363Y101837D01*
X65300Y101629D01*
X65252Y101427D01*
X65238Y101344D01*
X65231Y101261D01*
X65224Y101185D01*
X65217Y101122D01*
X65210Y101067D01*
Y100880D01*
X65224Y100769D01*
X65258Y100561D01*
X65314Y100380D01*
X65342Y100304D01*
X65369Y100228D01*
X65397Y100158D01*
X65425Y100103D01*
X65453Y100054D01*
X65480Y100013D01*
X65501Y99978D01*
X65515Y99957D01*
X65522Y99944D01*
X65529Y99937D01*
X65591Y99860D01*
X65661Y99784D01*
X65820Y99659D01*
X65993Y99541D01*
X66160Y99451D01*
X66312Y99382D01*
X66375Y99347D01*
X66430Y99326D01*
X66479Y99305D01*
X66521Y99299D01*
X66541Y99285D01*
X66548D01*
X66354Y98453D01*
X66195Y98508D01*
X66042Y98570D01*
X65896Y98633D01*
X65765Y98709D01*
X65640Y98778D01*
X65529Y98855D01*
X65425Y98931D01*
X65335Y99007D01*
X65252Y99084D01*
X65182Y99146D01*
X65120Y99208D01*
X65071Y99264D01*
X65030Y99305D01*
X65002Y99340D01*
X64988Y99361D01*
X64981Y99368D01*
X64891Y99493D01*
X64822Y99625D01*
X64752Y99756D01*
X64697Y99895D01*
X64648Y100034D01*
X64607Y100165D01*
X64579Y100297D01*
X64551Y100422D01*
X64530Y100540D01*
X64517Y100644D01*
X64503Y100741D01*
X64496Y100824D01*
X64489Y100893D01*
Y100984D01*
X64496Y101143D01*
X64503Y101296D01*
X64551Y101580D01*
X64579Y101719D01*
X64614Y101844D01*
X64648Y101968D01*
X64683Y102079D01*
X64718Y102176D01*
X64752Y102266D01*
X64787Y102350D01*
X64815Y102412D01*
X64842Y102467D01*
X64863Y102502D01*
X64870Y102530D01*
X64877Y102537D01*
X64953Y102662D01*
X65037Y102787D01*
X65127Y102898D01*
X65217Y103001D01*
X65314Y103098D01*
X65404Y103189D01*
X65501Y103265D01*
X65584Y103341D01*
X65675Y103404D01*
X65751Y103459D01*
X65820Y103508D01*
X65883Y103549D01*
X65938Y103577D01*
X65973Y103598D01*
X66000Y103612D01*
X66007Y103619D01*
X66146Y103688D01*
X66299Y103743D01*
X66444Y103792D01*
X66590Y103841D01*
X66888Y103910D01*
X67027Y103931D01*
X67158Y103952D01*
X67283Y103965D01*
X67394Y103979D01*
X67498Y103986D01*
X67588Y103993D01*
X67658Y104000D01*
X67713D01*
X67741D01*
X67755D01*
X67921Y103993D01*
D02*
G37*
G36*
X69454Y97593D02*
X69592Y97565D01*
X69724Y97523D01*
X69849Y97482D01*
X69967Y97433D01*
X70071Y97378D01*
X70175Y97322D01*
X70258Y97267D01*
X70341Y97211D01*
X70411Y97163D01*
X70473Y97114D01*
X70522Y97073D01*
X70563Y97031D01*
X70591Y97003D01*
X70605Y96989D01*
X70612Y96983D01*
X70702Y96879D01*
X70778Y96761D01*
X70841Y96650D01*
X70903Y96532D01*
X70951Y96414D01*
X70986Y96296D01*
X71021Y96185D01*
X71048Y96074D01*
X71069Y95970D01*
X71083Y95880D01*
X71097Y95797D01*
X71104Y95721D01*
Y95665D01*
X71111Y95617D01*
Y95582D01*
X71104Y95408D01*
X71083Y95249D01*
X71055Y95097D01*
X71021Y94951D01*
X70979Y94812D01*
X70931Y94687D01*
X70875Y94570D01*
X70820Y94466D01*
X70771Y94368D01*
X70716Y94285D01*
X70667Y94209D01*
X70626Y94153D01*
X70591Y94105D01*
X70563Y94070D01*
X70542Y94049D01*
X70535Y94043D01*
X70424Y93932D01*
X70307Y93841D01*
X70189Y93758D01*
X70064Y93689D01*
X69946Y93626D01*
X69828Y93578D01*
X69717Y93536D01*
X69606Y93502D01*
X69502Y93474D01*
X69412Y93460D01*
X69329Y93446D01*
X69253Y93432D01*
X69197D01*
X69149Y93425D01*
X69121D01*
X69114D01*
X69003D01*
X68892Y93439D01*
X68691Y93474D01*
X68518Y93529D01*
X68441Y93557D01*
X68372Y93585D01*
X68303Y93613D01*
X68247Y93640D01*
X68199Y93668D01*
X68164Y93696D01*
X68129Y93717D01*
X68108Y93730D01*
X68095Y93737D01*
X68088Y93744D01*
X67942Y93869D01*
X67824Y94015D01*
X67734Y94160D01*
X67658Y94299D01*
X67602Y94431D01*
X67581Y94486D01*
X67568Y94528D01*
X67554Y94570D01*
X67547Y94597D01*
X67540Y94618D01*
Y94625D01*
X67457Y94472D01*
X67373Y94341D01*
X67283Y94223D01*
X67193Y94133D01*
X67117Y94056D01*
X67055Y94008D01*
X67013Y93973D01*
X67006Y93966D01*
X66999D01*
X66867Y93890D01*
X66736Y93834D01*
X66611Y93793D01*
X66493Y93765D01*
X66396Y93751D01*
X66312Y93737D01*
X66285D01*
X66264D01*
X66250D01*
X66243D01*
X66084Y93744D01*
X65931Y93772D01*
X65792Y93814D01*
X65668Y93855D01*
X65564Y93897D01*
X65522Y93918D01*
X65487Y93939D01*
X65460Y93952D01*
X65432Y93966D01*
X65425Y93973D01*
X65418D01*
X65279Y94070D01*
X65161Y94181D01*
X65057Y94292D01*
X64967Y94403D01*
X64898Y94500D01*
X64849Y94576D01*
X64829Y94611D01*
X64815Y94632D01*
X64808Y94646D01*
Y94653D01*
X64731Y94819D01*
X64676Y94986D01*
X64634Y95152D01*
X64607Y95298D01*
X64593Y95429D01*
X64586Y95478D01*
X64579Y95526D01*
Y95617D01*
X64586Y95755D01*
X64600Y95887D01*
X64620Y96012D01*
X64648Y96137D01*
X64683Y96248D01*
X64718Y96352D01*
X64759Y96449D01*
X64794Y96532D01*
X64836Y96615D01*
X64877Y96684D01*
X64912Y96740D01*
X64946Y96795D01*
X64974Y96830D01*
X64995Y96865D01*
X65009Y96879D01*
X65016Y96885D01*
X65099Y96976D01*
X65196Y97059D01*
X65293Y97135D01*
X65390Y97205D01*
X65494Y97267D01*
X65591Y97315D01*
X65792Y97406D01*
X65883Y97440D01*
X65966Y97468D01*
X66042Y97489D01*
X66104Y97510D01*
X66160Y97523D01*
X66202Y97530D01*
X66229Y97537D01*
X66236D01*
X66375Y96754D01*
X66174Y96712D01*
X66000Y96657D01*
X65848Y96594D01*
X65730Y96525D01*
X65633Y96469D01*
X65571Y96414D01*
X65529Y96379D01*
X65515Y96365D01*
X65418Y96241D01*
X65349Y96116D01*
X65293Y95984D01*
X65258Y95866D01*
X65238Y95755D01*
X65231Y95714D01*
Y95672D01*
X65224Y95637D01*
Y95596D01*
X65238Y95429D01*
X65265Y95284D01*
X65314Y95152D01*
X65363Y95041D01*
X65418Y94958D01*
X65466Y94895D01*
X65494Y94854D01*
X65508Y94840D01*
X65564Y94784D01*
X65619Y94743D01*
X65744Y94667D01*
X65862Y94611D01*
X65973Y94576D01*
X66077Y94556D01*
X66153Y94549D01*
X66188Y94542D01*
X66209D01*
X66222D01*
X66229D01*
X66326Y94549D01*
X66417Y94563D01*
X66507Y94576D01*
X66583Y94604D01*
X66722Y94674D01*
X66833Y94743D01*
X66923Y94819D01*
X66985Y94888D01*
X67006Y94916D01*
X67020Y94930D01*
X67034Y94944D01*
Y94951D01*
X67124Y95103D01*
X67186Y95263D01*
X67235Y95415D01*
X67263Y95554D01*
X67283Y95672D01*
X67290Y95721D01*
Y95769D01*
X67297Y95804D01*
Y95894D01*
X67290Y95935D01*
X67283Y95970D01*
Y95984D01*
X67970Y96067D01*
X67942Y95949D01*
X67921Y95838D01*
X67907Y95748D01*
X67894Y95665D01*
Y95603D01*
X67887Y95554D01*
Y95513D01*
X67894Y95415D01*
X67900Y95318D01*
X67942Y95145D01*
X67997Y94993D01*
X68060Y94861D01*
X68129Y94757D01*
X68157Y94715D01*
X68185Y94680D01*
X68205Y94653D01*
X68226Y94632D01*
X68233Y94625D01*
X68240Y94618D01*
X68309Y94556D01*
X68379Y94500D01*
X68448Y94452D01*
X68524Y94410D01*
X68670Y94348D01*
X68816Y94299D01*
X68941Y94278D01*
X68989Y94271D01*
X69038Y94264D01*
X69072Y94257D01*
X69107D01*
X69121D01*
X69128D01*
X69232Y94264D01*
X69329Y94271D01*
X69516Y94320D01*
X69676Y94375D01*
X69814Y94445D01*
X69877Y94486D01*
X69925Y94521D01*
X69974Y94549D01*
X70008Y94576D01*
X70036Y94604D01*
X70057Y94625D01*
X70071Y94632D01*
X70078Y94639D01*
X70147Y94715D01*
X70203Y94791D01*
X70251Y94868D01*
X70300Y94944D01*
X70369Y95103D01*
X70411Y95256D01*
X70438Y95381D01*
X70445Y95443D01*
X70452Y95485D01*
X70459Y95526D01*
Y95582D01*
X70445Y95748D01*
X70411Y95908D01*
X70369Y96039D01*
X70314Y96157D01*
X70258Y96255D01*
X70216Y96324D01*
X70196Y96345D01*
X70182Y96365D01*
X70168Y96372D01*
Y96379D01*
X70106Y96435D01*
X70043Y96490D01*
X69897Y96587D01*
X69738Y96664D01*
X69578Y96726D01*
X69433Y96775D01*
X69370Y96788D01*
X69315Y96802D01*
X69267Y96816D01*
X69232Y96823D01*
X69211Y96830D01*
X69204D01*
X69308Y97614D01*
X69454Y97593D01*
D02*
G37*
%LPC*%
G36*
X-36170Y-65005D02*
X-36939Y-65012D01*
X-37157Y-65028D01*
X-37553Y-65051D01*
X-37755Y-65067D01*
X-37910Y-65082D01*
X-37973Y-65098D01*
X-38082Y-65129D01*
X-38167Y-65152D01*
X-38229Y-65168D01*
X-38392Y-65191D01*
X-38454Y-65207D01*
X-38610Y-65222D01*
X-38672Y-65238D01*
X-38835Y-65308D01*
X-38897Y-65323D01*
X-38998Y-65347D01*
X-39107Y-65362D01*
X-39216Y-65393D01*
X-39317Y-65448D01*
X-39395Y-65479D01*
X-39511Y-65502D01*
X-39574Y-65518D01*
X-39643Y-65541D01*
X-39768Y-65619D01*
X-39853Y-65642D01*
X-39915Y-65657D01*
X-40055Y-65720D01*
X-40086Y-65735D01*
X-40110Y-65758D01*
X-40211Y-65797D01*
X-40273Y-65813D01*
X-40351Y-65844D01*
X-40382Y-65875D01*
X-40413Y-65890D01*
X-40444Y-65922D01*
X-40506Y-65937D01*
X-40646Y-65999D01*
X-40700Y-66038D01*
X-40918Y-66147D01*
X-41003Y-66217D01*
X-41128Y-66263D01*
X-41205Y-66341D01*
X-41376Y-66434D01*
X-41407Y-66450D01*
X-41454Y-66497D01*
X-41563Y-66559D01*
X-41594Y-66574D01*
X-41672Y-66652D01*
X-41780Y-66714D01*
X-41858Y-66792D01*
X-41967Y-66854D01*
X-42060Y-66947D01*
X-42169Y-67010D01*
X-42223Y-67064D01*
X-42239Y-67095D01*
X-42293Y-67134D01*
X-42324Y-67149D01*
X-42394Y-67219D01*
X-42410Y-67250D01*
X-42449Y-67274D01*
X-42480Y-67289D01*
X-42534Y-67344D01*
X-42550Y-67375D01*
X-42589Y-67414D01*
X-42620Y-67429D01*
X-42845Y-67655D01*
X-42861Y-67686D01*
X-42899Y-67724D01*
X-42930Y-67740D01*
X-42985Y-67794D01*
X-43000Y-67825D01*
X-43125Y-67950D01*
X-43140Y-67981D01*
X-43265Y-68105D01*
X-43280Y-68136D01*
X-43311Y-68167D01*
X-43327Y-68198D01*
X-43366Y-68237D01*
X-43397Y-68253D01*
X-43467Y-68369D01*
X-43482Y-68401D01*
X-43560Y-68478D01*
X-43622Y-68587D01*
X-43700Y-68665D01*
X-43762Y-68773D01*
X-43824Y-68836D01*
X-43933Y-69038D01*
X-44011Y-69116D01*
X-44026Y-69146D01*
X-44073Y-69255D01*
X-44120Y-69302D01*
X-44182Y-69411D01*
X-44228Y-69520D01*
X-44244Y-69551D01*
X-44275Y-69582D01*
X-44314Y-69636D01*
X-44353Y-69737D01*
X-44384Y-69815D01*
X-44415Y-69846D01*
X-44492Y-69986D01*
X-44508Y-70079D01*
X-44570Y-70172D01*
X-44632Y-70281D01*
X-44648Y-70374D01*
X-44679Y-70452D01*
X-44741Y-70545D01*
X-44772Y-70623D01*
X-44819Y-70809D01*
X-44904Y-70973D01*
X-44943Y-71151D01*
X-44974Y-71276D01*
X-45013Y-71361D01*
X-45060Y-71486D01*
X-45075Y-71563D01*
X-45099Y-71742D01*
X-45114Y-71804D01*
X-45137Y-71890D01*
X-45184Y-72014D01*
X-45200Y-72076D01*
X-45238Y-72333D01*
X-45254Y-72581D01*
X-45269Y-72643D01*
X-45285Y-72752D01*
X-45301Y-72814D01*
X-45316Y-72861D01*
X-45332Y-73079D01*
X-45347Y-73125D01*
X-45363Y-74073D01*
X-45347Y-74415D01*
X-45332Y-74524D01*
X-45308Y-74734D01*
X-45293Y-74796D01*
X-45246Y-75091D01*
X-45231Y-75309D01*
X-45215Y-75433D01*
X-45200Y-75511D01*
X-45176Y-75612D01*
X-45130Y-75721D01*
X-45114Y-75767D01*
X-45099Y-75876D01*
X-45083Y-75938D01*
X-45068Y-76094D01*
X-44998Y-76257D01*
X-44967Y-76335D01*
X-44951Y-76397D01*
X-44928Y-76529D01*
X-44897Y-76638D01*
X-44827Y-76754D01*
X-44811Y-76816D01*
X-44788Y-76902D01*
X-44772Y-76964D01*
X-44726Y-77073D01*
X-44710Y-77104D01*
X-44687Y-77127D01*
X-44648Y-77228D01*
X-44632Y-77290D01*
X-44586Y-77399D01*
X-44570Y-77430D01*
X-44539Y-77461D01*
X-44516Y-77516D01*
X-44492Y-77601D01*
X-44461Y-77679D01*
X-44376Y-77796D01*
X-44306Y-77990D01*
X-44259Y-78036D01*
X-44197Y-78145D01*
X-44151Y-78254D01*
X-44104Y-78301D01*
X-44011Y-78472D01*
X-43995Y-78503D01*
X-43948Y-78549D01*
X-43871Y-78689D01*
X-43855Y-78720D01*
X-43777Y-78798D01*
X-43762Y-78829D01*
X-43692Y-78946D01*
X-43661Y-78961D01*
X-43576Y-79093D01*
X-43560Y-79124D01*
X-43482Y-79202D01*
X-43420Y-79311D01*
X-43350Y-79381D01*
X-43280Y-79466D01*
X-43265Y-79497D01*
X-43241Y-79521D01*
X-43210Y-79536D01*
X-43140Y-79622D01*
X-43125Y-79653D01*
X-43086Y-79692D01*
X-43055Y-79707D01*
X-43016Y-79746D01*
X-43000Y-79777D01*
X-42915Y-79863D01*
X-42884Y-79878D01*
X-42876Y-79901D01*
X-42845Y-79932D01*
X-42829Y-79964D01*
X-42806Y-79987D01*
X-42775Y-80002D01*
X-42690Y-80088D01*
X-42674Y-80119D01*
X-42635Y-80142D01*
X-42581Y-80181D01*
X-42565Y-80212D01*
X-42480Y-80298D01*
X-42449Y-80313D01*
X-42324Y-80438D01*
X-42293Y-80453D01*
X-42223Y-80523D01*
X-42138Y-80593D01*
X-42107Y-80609D01*
X-42014Y-80702D01*
X-41982Y-80717D01*
X-41889Y-80779D01*
X-41858Y-80795D01*
X-41796Y-80857D01*
X-41687Y-80919D01*
X-41594Y-81013D01*
X-41485Y-81075D01*
X-41454Y-81090D01*
X-41407Y-81137D01*
X-41353Y-81176D01*
X-41252Y-81215D01*
X-41213Y-81254D01*
X-41128Y-81323D01*
X-40972Y-81386D01*
X-40926Y-81432D01*
X-40817Y-81495D01*
X-40739Y-81526D01*
X-40708Y-81541D01*
X-40685Y-81564D01*
X-40592Y-81627D01*
X-40506Y-81650D01*
X-40428Y-81681D01*
X-40397Y-81712D01*
X-40366Y-81728D01*
X-40343Y-81751D01*
X-40195Y-81805D01*
X-40086Y-81852D01*
X-39946Y-81930D01*
X-39760Y-81976D01*
X-39643Y-82046D01*
X-39566Y-82077D01*
X-39434Y-82101D01*
X-39239Y-82186D01*
X-39162Y-82217D01*
X-39061Y-82240D01*
X-38952Y-82256D01*
X-38890Y-82271D01*
X-38789Y-82310D01*
X-38664Y-82357D01*
X-38517Y-82380D01*
X-38454Y-82396D01*
X-38299Y-82411D01*
X-38175Y-82443D01*
X-38089Y-82466D01*
X-37965Y-82497D01*
X-37887Y-82512D01*
X-37763Y-82528D01*
X-37273Y-82551D01*
X-37227Y-82567D01*
X-36294Y-82582D01*
X-35999Y-82567D01*
X-35844Y-82551D01*
X-35502Y-82536D01*
X-35299Y-82520D01*
X-35191Y-82505D01*
X-35129Y-82489D01*
X-35020Y-82458D01*
X-34934Y-82435D01*
X-34763Y-82404D01*
X-34569Y-82380D01*
X-34445Y-82349D01*
X-34344Y-82310D01*
X-34266Y-82279D01*
X-34204Y-82264D01*
X-34103Y-82240D01*
X-33994Y-82225D01*
X-33932Y-82209D01*
X-33854Y-82178D01*
X-33831Y-82155D01*
X-33707Y-82108D01*
X-33574Y-82085D01*
X-33466Y-82038D01*
X-33435Y-82023D01*
X-33411Y-82000D01*
X-33333Y-81968D01*
X-33248Y-81945D01*
X-33139Y-81914D01*
X-33069Y-81875D01*
X-32976Y-81813D01*
X-32875Y-81790D01*
X-32797Y-81759D01*
X-32689Y-81681D01*
X-32564Y-81634D01*
X-32486Y-81603D01*
X-32463Y-81580D01*
X-32339Y-81502D01*
X-32253Y-81479D01*
X-32215Y-81440D01*
X-32090Y-81362D01*
X-31989Y-81323D01*
X-31927Y-81261D01*
X-31748Y-81160D01*
X-31663Y-81090D01*
X-31554Y-81028D01*
X-31523Y-81013D01*
X-31476Y-80966D01*
X-31367Y-80888D01*
X-31336Y-80873D01*
X-31259Y-80795D01*
X-31150Y-80733D01*
X-31095Y-80679D01*
X-31010Y-80609D01*
X-30979Y-80593D01*
X-30948Y-80562D01*
X-30917Y-80546D01*
X-30909Y-80523D01*
X-30824Y-80453D01*
X-30792Y-80438D01*
X-30754Y-80399D01*
X-30738Y-80368D01*
X-30653Y-80298D01*
X-30622Y-80282D01*
X-30598Y-80259D01*
X-30583Y-80228D01*
X-30513Y-80158D01*
X-30482Y-80142D01*
X-30427Y-80088D01*
X-30412Y-80057D01*
X-30388Y-80034D01*
X-30357Y-80018D01*
X-30287Y-79948D01*
X-30272Y-79917D01*
X-30217Y-79863D01*
X-30186Y-79847D01*
X-30148Y-79808D01*
X-30132Y-79777D01*
X-30008Y-79653D01*
X-29992Y-79622D01*
X-29906Y-79536D01*
X-29837Y-79451D01*
X-29821Y-79420D01*
X-29743Y-79342D01*
X-29666Y-79233D01*
X-29650Y-79202D01*
X-29572Y-79124D01*
X-29510Y-79016D01*
X-29417Y-78922D01*
X-29355Y-78814D01*
X-29339Y-78782D01*
X-29293Y-78736D01*
X-29199Y-78565D01*
X-29137Y-78503D01*
X-29044Y-78332D01*
X-29028Y-78301D01*
X-28997Y-78270D01*
X-28935Y-78161D01*
X-28904Y-78083D01*
X-28888Y-78052D01*
X-28819Y-77982D01*
X-28780Y-77881D01*
X-28764Y-77819D01*
X-28702Y-77726D01*
X-28640Y-77617D01*
X-28593Y-77461D01*
X-28562Y-77430D01*
X-28508Y-77345D01*
X-28484Y-77259D01*
X-28469Y-77197D01*
X-28430Y-77112D01*
X-28368Y-77018D01*
X-28345Y-76933D01*
X-28329Y-76871D01*
X-28298Y-76762D01*
X-28267Y-76684D01*
X-28244Y-76661D01*
X-28212Y-76583D01*
X-28197Y-76521D01*
X-28181Y-76428D01*
X-28150Y-76304D01*
X-28073Y-76133D01*
X-28057Y-76070D01*
X-28034Y-75876D01*
X-28018Y-75814D01*
X-27987Y-75705D01*
X-27948Y-75604D01*
X-27925Y-75503D01*
X-27909Y-75457D01*
X-27894Y-75239D01*
X-27878Y-75130D01*
X-27855Y-74920D01*
X-27840Y-74827D01*
X-27824Y-74765D01*
X-27801Y-74586D01*
X-27785Y-74540D01*
X-27770Y-74089D01*
X-27754Y-74042D01*
X-27762Y-73553D01*
X-27777Y-73211D01*
X-27793Y-73055D01*
X-27808Y-72915D01*
X-27824Y-72838D01*
X-27855Y-72667D01*
X-27871Y-72573D01*
X-27894Y-72302D01*
X-27925Y-72084D01*
X-27956Y-71975D01*
X-27995Y-71874D01*
X-28026Y-71750D01*
X-28049Y-71556D01*
X-28065Y-71493D01*
X-28127Y-71354D01*
X-28143Y-71291D01*
X-28150Y-71283D01*
X-28174Y-71198D01*
X-28189Y-71136D01*
X-28205Y-71027D01*
X-28314Y-70794D01*
X-28360Y-70608D01*
X-28399Y-70522D01*
X-28461Y-70429D01*
X-28477Y-70367D01*
X-28500Y-70250D01*
X-28562Y-70157D01*
X-28617Y-70071D01*
X-28640Y-69970D01*
X-28679Y-69885D01*
X-28749Y-69799D01*
X-28795Y-69675D01*
X-28826Y-69597D01*
X-28896Y-69527D01*
X-28935Y-69426D01*
X-28966Y-69349D01*
X-29028Y-69286D01*
X-29122Y-69116D01*
X-29137Y-69084D01*
X-29184Y-69038D01*
X-29230Y-68960D01*
X-29262Y-68882D01*
X-29339Y-68805D01*
X-29401Y-68696D01*
X-29417Y-68665D01*
X-29440Y-68641D01*
X-29471Y-68626D01*
X-29557Y-68494D01*
X-29572Y-68463D01*
X-29619Y-68416D01*
X-29697Y-68307D01*
X-29712Y-68276D01*
X-29782Y-68206D01*
X-29852Y-68121D01*
X-29868Y-68090D01*
X-29891Y-68066D01*
X-29922Y-68051D01*
X-29992Y-67965D01*
X-30008Y-67934D01*
X-30046Y-67895D01*
X-30078Y-67880D01*
X-30101Y-67857D01*
X-30116Y-67825D01*
X-30217Y-67724D01*
X-30248Y-67709D01*
X-30272Y-67670D01*
X-30287Y-67639D01*
X-30326Y-67600D01*
X-30357Y-67585D01*
X-30412Y-67530D01*
X-30450Y-67476D01*
X-30482Y-67460D01*
X-30513Y-67429D01*
X-30544Y-67414D01*
X-30552Y-67390D01*
X-30637Y-67305D01*
X-30668Y-67289D01*
X-30792Y-67165D01*
X-30824Y-67149D01*
X-30909Y-67064D01*
X-30995Y-66994D01*
X-31026Y-66979D01*
X-31103Y-66901D01*
X-31134Y-66885D01*
X-31243Y-66807D01*
X-31274Y-66792D01*
X-31336Y-66730D01*
X-31445Y-66668D01*
X-31523Y-66590D01*
X-31663Y-66512D01*
X-31686Y-66489D01*
X-31772Y-66419D01*
X-31803Y-66403D01*
X-31880Y-66372D01*
X-31943Y-66310D01*
X-32051Y-66248D01*
X-32160Y-66201D01*
X-32230Y-66132D01*
X-32331Y-66093D01*
X-32417Y-66054D01*
X-32502Y-65984D01*
X-32673Y-65922D01*
X-32828Y-65813D01*
X-32922Y-65797D01*
X-33030Y-65751D01*
X-33061Y-65735D01*
X-33100Y-65696D01*
X-33201Y-65657D01*
X-33263Y-65642D01*
X-33396Y-65603D01*
X-33520Y-65525D01*
X-33637Y-65502D01*
X-33699Y-65486D01*
X-33924Y-65385D01*
X-33986Y-65370D01*
X-34134Y-65347D01*
X-34196Y-65331D01*
X-34281Y-65308D01*
X-34437Y-65246D01*
X-34522Y-65222D01*
X-34585Y-65207D01*
X-34740Y-65191D01*
X-34927Y-65160D01*
X-35105Y-65106D01*
X-35183Y-65090D01*
X-35276Y-65075D01*
X-35447Y-65059D01*
X-35742Y-65044D01*
X-36123Y-65020D01*
X-36170Y-65005D01*
D02*
G37*
%LPD*%
G36*
X-36395Y-71089D02*
X-36271Y-71105D01*
X-36116Y-71136D01*
X-35929Y-71182D01*
X-35781Y-71206D01*
X-35719Y-71221D01*
X-35634Y-71245D01*
X-35540Y-71307D01*
X-35439Y-71346D01*
X-35377Y-71361D01*
X-35299Y-71392D01*
X-35268Y-71423D01*
X-35237Y-71439D01*
X-35206Y-71470D01*
X-35175Y-71486D01*
X-35066Y-71532D01*
X-35027Y-71571D01*
X-34880Y-71672D01*
X-34849Y-71688D01*
X-34810Y-71726D01*
X-34794Y-71758D01*
X-34771Y-71765D01*
X-34740Y-71796D01*
X-34709Y-71812D01*
X-34670Y-71851D01*
X-34655Y-71882D01*
X-34553Y-71983D01*
X-34484Y-72068D01*
X-34468Y-72099D01*
X-34390Y-72177D01*
X-34328Y-72286D01*
Y-72302D01*
X-34266Y-72364D01*
X-34251Y-72395D01*
X-34227Y-72418D01*
X-34173Y-72566D01*
X-34111Y-72659D01*
X-34072Y-72713D01*
X-34056Y-72776D01*
X-34033Y-72877D01*
X-34017Y-72939D01*
X-33932Y-73133D01*
X-33901Y-73320D01*
X-33877Y-73731D01*
X-33893Y-74166D01*
X-33909Y-74322D01*
X-33924Y-74431D01*
X-34010Y-74625D01*
X-34048Y-74788D01*
X-34064Y-74850D01*
X-34103Y-74936D01*
X-34173Y-75021D01*
X-34188Y-75083D01*
X-34235Y-75192D01*
X-34281Y-75239D01*
X-34359Y-75379D01*
X-34390Y-75410D01*
X-34406Y-75441D01*
X-34429Y-75464D01*
X-34499Y-75550D01*
X-34515Y-75581D01*
X-34553Y-75620D01*
X-34585Y-75635D01*
X-34623Y-75674D01*
X-34639Y-75705D01*
X-34709Y-75775D01*
X-34740Y-75791D01*
X-34849Y-75899D01*
X-34958Y-75962D01*
X-35012Y-76016D01*
X-35105Y-76078D01*
X-35206Y-76117D01*
X-35253Y-76164D01*
X-35284Y-76179D01*
X-35307Y-76203D01*
X-35408Y-76241D01*
X-35517Y-76272D01*
X-35634Y-76342D01*
X-35711Y-76374D01*
X-35913Y-76405D01*
X-36100Y-76451D01*
X-36201Y-76474D01*
X-36248Y-76490D01*
X-36745Y-76506D01*
X-36931Y-76474D01*
X-37056Y-76443D01*
X-37141Y-76420D01*
X-37382Y-76381D01*
X-37491Y-76350D01*
X-37584Y-76288D01*
X-37708Y-76241D01*
X-37817Y-76210D01*
X-37856Y-76171D01*
X-37949Y-76109D01*
X-38050Y-76070D01*
X-38128Y-75993D01*
X-38268Y-75915D01*
X-38322Y-75861D01*
X-38338Y-75830D01*
X-38361Y-75822D01*
X-38392Y-75791D01*
X-38423Y-75775D01*
X-38462Y-75736D01*
X-38478Y-75705D01*
X-38563Y-75620D01*
X-38594Y-75604D01*
X-38649Y-75503D01*
X-38726Y-75425D01*
X-38804Y-75286D01*
X-38859Y-75231D01*
X-38921Y-75138D01*
X-38944Y-75037D01*
X-39006Y-74944D01*
X-39061Y-74858D01*
X-39100Y-74679D01*
X-39169Y-74516D01*
X-39200Y-74439D01*
X-39216Y-74345D01*
X-39232Y-74190D01*
X-39247Y-73832D01*
X-39239Y-73545D01*
X-39224Y-73343D01*
X-39208Y-73187D01*
X-39169Y-73086D01*
X-39107Y-72931D01*
X-39068Y-72752D01*
X-39037Y-72674D01*
X-39006Y-72643D01*
X-38967Y-72589D01*
X-38936Y-72511D01*
X-38913Y-72426D01*
X-38835Y-72348D01*
X-38758Y-72208D01*
X-38742Y-72177D01*
X-38703Y-72138D01*
X-38633Y-72053D01*
X-38618Y-72022D01*
X-38478Y-71882D01*
X-38462Y-71851D01*
X-38408Y-71812D01*
X-38377Y-71796D01*
X-38268Y-71688D01*
X-38159Y-71625D01*
X-38097Y-71563D01*
X-37988Y-71501D01*
X-37910Y-71470D01*
X-37864Y-71423D01*
X-37755Y-71361D01*
X-37646Y-71330D01*
X-37452Y-71229D01*
X-37227Y-71190D01*
X-36978Y-71128D01*
X-36931Y-71113D01*
X-36760Y-71097D01*
X-36714Y-71082D01*
X-36395Y-71089D01*
D02*
G37*
%LPC*%
G36*
X-36652Y-73086D02*
X-36667D01*
X-36776Y-73102D01*
X-36885Y-73148D01*
X-36916Y-73164D01*
X-36962Y-73211D01*
X-36994Y-73226D01*
X-37025Y-73257D01*
X-37056Y-73273D01*
X-37126Y-73343D01*
X-37188Y-73452D01*
X-37219Y-73529D01*
X-37281Y-73638D01*
X-37297Y-73902D01*
X-37203Y-74104D01*
X-37157Y-74213D01*
X-37056Y-74314D01*
X-37025Y-74330D01*
X-36978Y-74376D01*
X-36947Y-74392D01*
X-36916Y-74423D01*
X-36807Y-74485D01*
X-36496Y-74501D01*
X-36341Y-74485D01*
X-36232Y-74439D01*
X-36201Y-74423D01*
X-36154Y-74376D01*
X-36123Y-74361D01*
X-36077Y-74314D01*
X-36045Y-74299D01*
X-36014Y-74268D01*
X-35937Y-74143D01*
X-35913Y-74058D01*
X-35836Y-73933D01*
X-35820Y-73794D01*
X-35836Y-73685D01*
X-35929Y-73483D01*
X-35976Y-73374D01*
X-36061Y-73288D01*
X-36116Y-73250D01*
X-36201Y-73180D01*
X-36341Y-73102D01*
X-36652Y-73086D01*
D02*
G37*
G36*
X45657Y-66574D02*
X45432Y-66582D01*
X45137Y-66598D01*
X45012Y-66613D01*
X44919Y-66629D01*
X44740Y-66668D01*
X44678Y-66683D01*
X44461Y-66714D01*
X44274Y-66745D01*
X44080Y-66831D01*
X44018Y-66846D01*
X43901Y-66870D01*
X43761Y-66932D01*
X43653Y-66994D01*
X43544Y-67025D01*
X43466Y-67056D01*
X43435Y-67087D01*
X43381Y-67126D01*
X43233Y-67181D01*
X43171Y-67243D01*
X43140Y-67258D01*
X43116Y-67282D01*
X43015Y-67320D01*
X42938Y-67398D01*
X42829Y-67460D01*
X42798Y-67491D01*
X42767Y-67507D01*
X42759Y-67530D01*
X42736Y-67538D01*
X42689Y-67585D01*
X42658Y-67600D01*
X42627Y-67631D01*
X42596Y-67647D01*
X42557Y-67686D01*
X42541Y-67717D01*
X42518Y-67724D01*
X42456Y-67787D01*
X42425Y-67802D01*
X42417Y-67825D01*
X42370Y-67872D01*
X42355Y-67903D01*
X42332Y-67927D01*
X42277Y-67965D01*
X42262Y-67997D01*
X42231Y-68028D01*
X42215Y-68059D01*
X42184Y-68090D01*
X42168Y-68121D01*
X42106Y-68183D01*
X42044Y-68292D01*
X41966Y-68369D01*
X41888Y-68509D01*
X41842Y-68556D01*
X41764Y-68696D01*
X41733Y-68773D01*
X41718Y-68805D01*
X41687Y-68836D01*
X41632Y-68921D01*
X41609Y-69007D01*
X41570Y-69108D01*
X41492Y-69232D01*
X41469Y-69317D01*
X41453Y-69380D01*
X41383Y-69543D01*
X41352Y-69621D01*
X41321Y-69745D01*
X41298Y-69893D01*
X41282Y-69955D01*
X41228Y-70133D01*
X41205Y-70219D01*
X41189Y-70265D01*
X41174Y-70545D01*
X41158Y-70592D01*
X41143Y-71136D01*
X41127Y-71182D01*
X41135Y-71377D01*
X41150Y-71734D01*
X41174Y-72099D01*
X41205Y-72317D01*
X41275Y-72542D01*
X41290Y-72605D01*
X41321Y-72791D01*
X41345Y-72892D01*
X41376Y-72970D01*
X41414Y-73055D01*
X41446Y-73133D01*
X41469Y-73234D01*
X41531Y-73374D01*
X41547Y-73405D01*
X41570Y-73428D01*
X41609Y-73529D01*
X41624Y-73591D01*
X41663Y-73677D01*
X41733Y-73762D01*
X41764Y-73840D01*
X41811Y-73949D01*
X41857Y-73996D01*
X41935Y-74135D01*
X41990Y-74190D01*
X42091Y-74338D01*
X42106Y-74369D01*
X42161Y-74423D01*
X42231Y-74508D01*
X42246Y-74540D01*
X42285Y-74578D01*
X42316Y-74594D01*
X42339Y-74617D01*
X42355Y-74648D01*
X42440Y-74734D01*
X42495Y-74773D01*
X42510Y-74804D01*
X42541Y-74835D01*
X42627Y-74905D01*
X42658Y-74920D01*
X42728Y-74990D01*
X42875Y-75091D01*
X42906Y-75107D01*
X42992Y-75192D01*
X43093Y-75231D01*
X43101Y-75239D01*
X43124Y-75262D01*
X43155Y-75278D01*
X43186Y-75309D01*
X43241Y-75348D01*
X43326Y-75371D01*
X43419Y-75433D01*
X43474Y-75472D01*
X43668Y-75542D01*
X43823Y-75635D01*
X43963Y-75666D01*
X44072Y-75697D01*
X44158Y-75736D01*
X44305Y-75791D01*
X44632Y-75837D01*
X44694Y-75853D01*
X44803Y-75868D01*
X44927Y-75899D01*
X44974Y-75915D01*
X45300Y-75931D01*
X45409Y-75946D01*
X45937Y-75931D01*
X46147Y-75907D01*
X46225Y-75892D01*
X46287Y-75876D01*
X46442Y-75845D01*
X46792Y-75791D01*
X46901Y-75760D01*
X46986Y-75721D01*
X47111Y-75674D01*
X47243Y-75651D01*
X47344Y-75612D01*
X47468Y-75534D01*
X47554Y-75511D01*
X47631Y-75480D01*
X47662Y-75464D01*
X47693Y-75433D01*
X47724Y-75418D01*
X47748Y-75394D01*
X47895Y-75340D01*
X47942Y-75293D01*
X47973Y-75278D01*
X48004Y-75247D01*
X48035Y-75231D01*
X48144Y-75184D01*
X48222Y-75107D01*
X48299Y-75060D01*
X48393Y-74967D01*
X48424Y-74951D01*
X48455Y-74920D01*
X48486Y-74905D01*
X48641Y-74749D01*
X48672Y-74734D01*
X48727Y-74679D01*
X48742Y-74648D01*
X48805Y-74586D01*
X48820Y-74555D01*
X48875Y-74501D01*
X48945Y-74415D01*
X48960Y-74384D01*
X49038Y-74306D01*
X49100Y-74198D01*
X49178Y-74120D01*
X49271Y-73949D01*
X49286Y-73918D01*
X49317Y-73887D01*
X49364Y-73809D01*
X49426Y-73669D01*
X49442Y-73638D01*
X49481Y-73599D01*
X49520Y-73498D01*
X49535Y-73436D01*
X49582Y-73327D01*
X49597Y-73296D01*
X49621Y-73273D01*
X49652Y-73195D01*
X49667Y-73133D01*
X49690Y-73001D01*
X49722Y-72923D01*
X49760Y-72838D01*
X49799Y-72737D01*
X49815Y-72674D01*
X49838Y-72465D01*
X49854Y-72387D01*
X49885Y-72263D01*
X49916Y-72107D01*
X49939Y-71944D01*
X49955Y-71897D01*
X49970Y-71369D01*
X49955Y-70794D01*
X49916Y-70475D01*
X49900Y-70413D01*
X49885Y-70335D01*
X49869Y-70273D01*
X49846Y-70172D01*
X49830Y-70110D01*
X49799Y-69846D01*
X49729Y-69683D01*
X49690Y-69582D01*
X49675Y-69520D01*
X49659Y-69411D01*
X49628Y-69333D01*
X49566Y-69240D01*
X49543Y-69185D01*
X49520Y-69084D01*
X49488Y-69007D01*
X49411Y-68898D01*
X49364Y-68773D01*
X49325Y-68704D01*
X49255Y-68618D01*
X49240Y-68587D01*
X49193Y-68478D01*
X49131Y-68416D01*
X49053Y-68276D01*
X48976Y-68198D01*
X48929Y-68121D01*
X48805Y-67997D01*
X48789Y-67965D01*
X48564Y-67740D01*
X48533Y-67724D01*
X48494Y-67670D01*
X48408Y-67600D01*
X48377Y-67585D01*
X48354Y-67561D01*
X48315Y-67507D01*
X48206Y-67445D01*
X48167Y-67406D01*
X48082Y-67336D01*
X48051Y-67320D01*
X47942Y-67274D01*
X47880Y-67212D01*
X47802Y-67165D01*
X47693Y-67118D01*
X47662Y-67103D01*
X47608Y-67048D01*
X47507Y-67010D01*
X47445Y-66994D01*
X47359Y-66955D01*
X47266Y-66893D01*
X47204Y-66877D01*
X47103Y-66854D01*
X47041Y-66839D01*
X46846Y-66753D01*
X46784Y-66738D01*
X46318Y-66660D01*
X46240Y-66644D01*
X46139Y-66621D01*
X46093Y-66606D01*
X45704Y-66590D01*
X45657Y-66574D01*
D02*
G37*
G36*
X-79693Y-80470D02*
Y-80479D01*
X-79693Y-80480D01*
X-79693Y-80470D01*
D02*
G37*
G36*
X-77824Y-76962D02*
X-77886D01*
X-78045Y-76971D01*
X-78203Y-76998D01*
X-78344Y-77042D01*
X-78468Y-77086D01*
X-78574Y-77130D01*
X-78653Y-77174D01*
X-78706Y-77200D01*
X-78715Y-77209D01*
X-78723D01*
X-78864Y-77315D01*
X-78979Y-77430D01*
X-79085Y-77544D01*
X-79173Y-77659D01*
X-79243Y-77765D01*
X-79288Y-77844D01*
X-79305Y-77879D01*
X-79323Y-77906D01*
X-79332Y-77914D01*
Y-77923D01*
X-79402Y-78099D01*
X-79455Y-78276D01*
X-79490Y-78443D01*
X-79517Y-78593D01*
X-79534Y-78725D01*
Y-78778D01*
X-79543Y-78822D01*
Y-78857D01*
Y-78884D01*
Y-78902D01*
Y-78910D01*
X-79534Y-79051D01*
X-79525Y-79192D01*
X-79473Y-79439D01*
X-79393Y-79660D01*
X-79349Y-79756D01*
X-79305Y-79836D01*
X-79270Y-79915D01*
X-79226Y-79986D01*
X-79182Y-80047D01*
X-79146Y-80091D01*
X-79120Y-80127D01*
X-79094Y-80153D01*
X-79085Y-80171D01*
X-79076Y-80180D01*
X-78988Y-80268D01*
X-78891Y-80347D01*
X-78794Y-80409D01*
X-78697Y-80462D01*
X-78503Y-80550D01*
X-78318Y-80611D01*
X-78159Y-80647D01*
X-78089Y-80655D01*
X-78036Y-80664D01*
X-77983Y-80673D01*
X-77921D01*
X-77798Y-80664D01*
X-77675Y-80655D01*
X-77454Y-80594D01*
X-77260Y-80514D01*
X-77093Y-80426D01*
X-76961Y-80338D01*
X-76908Y-80294D01*
X-76864Y-80259D01*
X-76828Y-80224D01*
X-76802Y-80197D01*
X-76793Y-80188D01*
X-76784Y-80180D01*
X-76705Y-80083D01*
X-76634Y-79986D01*
X-76573Y-79880D01*
X-76520Y-79765D01*
X-76441Y-79545D01*
X-76388Y-79333D01*
X-76370Y-79236D01*
X-76361Y-79148D01*
X-76353Y-79069D01*
X-76344Y-78998D01*
X-76335Y-78937D01*
Y-78893D01*
Y-78866D01*
Y-78857D01*
X-76344Y-78699D01*
X-76353Y-78549D01*
X-76379Y-78399D01*
X-76405Y-78267D01*
X-76441Y-78144D01*
X-76476Y-78029D01*
X-76520Y-77923D01*
X-76564Y-77835D01*
X-76608Y-77747D01*
X-76652Y-77676D01*
X-76687Y-77615D01*
X-76723Y-77562D01*
X-76749Y-77518D01*
X-76776Y-77491D01*
X-76784Y-77474D01*
X-76793Y-77465D01*
X-76881Y-77377D01*
X-76969Y-77297D01*
X-77058Y-77236D01*
X-77155Y-77174D01*
X-77243Y-77130D01*
X-77340Y-77086D01*
X-77507Y-77024D01*
X-77657Y-76989D01*
X-77719Y-76980D01*
X-77780Y-76971D01*
X-77824Y-76962D01*
D02*
G37*
G36*
X-107606Y-77236D02*
X-109475D01*
Y-83449D01*
X-107597D01*
X-107439Y-83441D01*
X-107289Y-83432D01*
X-107148Y-83423D01*
X-107024Y-83414D01*
X-106910Y-83397D01*
X-106804Y-83379D01*
X-106716Y-83370D01*
X-106637Y-83352D01*
X-106566Y-83335D01*
X-106513Y-83317D01*
X-106460Y-83308D01*
X-106425Y-83300D01*
X-106399Y-83291D01*
X-106390Y-83282D01*
X-106381D01*
X-106266Y-83229D01*
X-106161Y-83176D01*
X-105967Y-83035D01*
X-105791Y-82885D01*
X-105641Y-82727D01*
X-105526Y-82586D01*
X-105473Y-82524D01*
X-105438Y-82471D01*
X-105403Y-82418D01*
X-105376Y-82383D01*
X-105367Y-82365D01*
X-105359Y-82357D01*
X-105288Y-82224D01*
X-105218Y-82074D01*
X-105112Y-81766D01*
X-105041Y-81440D01*
X-104988Y-81123D01*
X-104971Y-80973D01*
X-104953Y-80841D01*
X-104944Y-80717D01*
Y-80611D01*
X-104936Y-80523D01*
Y-80453D01*
Y-80417D01*
Y-80400D01*
X-104944Y-80065D01*
X-104971Y-79765D01*
X-104988Y-79624D01*
X-105006Y-79501D01*
X-105024Y-79377D01*
X-105041Y-79272D01*
X-105068Y-79175D01*
X-105085Y-79087D01*
X-105103Y-79007D01*
X-105121Y-78946D01*
X-105138Y-78893D01*
X-105147Y-78857D01*
X-105156Y-78840D01*
Y-78831D01*
X-105244Y-78602D01*
X-105341Y-78399D01*
X-105438Y-78223D01*
X-105526Y-78073D01*
X-105614Y-77958D01*
X-105685Y-77870D01*
X-105729Y-77817D01*
X-105738Y-77809D01*
X-105746Y-77800D01*
X-105852Y-77703D01*
X-105976Y-77615D01*
X-106099Y-77544D01*
X-106214Y-77483D01*
X-106319Y-77439D01*
X-106399Y-77403D01*
X-106434Y-77394D01*
X-106460Y-77386D01*
X-106469Y-77377D01*
X-106478D01*
X-106663Y-77333D01*
X-106866Y-77297D01*
X-107077Y-77271D01*
X-107280Y-77253D01*
X-107456Y-77245D01*
X-107536D01*
X-107606Y-77236D01*
D02*
G37*
G36*
X-71646Y-76962D02*
X-71672D01*
X-71796Y-76971D01*
X-71919Y-76989D01*
X-72034Y-77024D01*
X-72140Y-77068D01*
X-72342Y-77165D01*
X-72510Y-77289D01*
X-72642Y-77412D01*
X-72695Y-77465D01*
X-72739Y-77509D01*
X-72783Y-77553D01*
X-72809Y-77588D01*
X-72818Y-77606D01*
X-72827Y-77615D01*
X-72906Y-77756D01*
X-72977Y-77923D01*
X-73047Y-78108D01*
X-73100Y-78311D01*
X-73144Y-78531D01*
X-73179Y-78752D01*
X-73232Y-79201D01*
X-73259Y-79413D01*
X-73268Y-79616D01*
X-73277Y-79801D01*
X-73285Y-79959D01*
X-73294Y-80091D01*
Y-80153D01*
Y-80197D01*
Y-80232D01*
Y-80259D01*
Y-80276D01*
Y-80285D01*
X-73285Y-80647D01*
X-73268Y-80973D01*
X-73250Y-81281D01*
X-73215Y-81554D01*
X-73179Y-81801D01*
X-73135Y-82030D01*
X-73083Y-82224D01*
X-73039Y-82401D01*
X-72994Y-82559D01*
X-72942Y-82683D01*
X-72898Y-82788D01*
X-72862Y-82877D01*
X-72827Y-82947D01*
X-72800Y-82991D01*
X-72792Y-83018D01*
X-72783Y-83026D01*
X-72704Y-83132D01*
X-72615Y-83220D01*
X-72527Y-83300D01*
X-72439Y-83361D01*
X-72342Y-83423D01*
X-72254Y-83467D01*
X-72078Y-83538D01*
X-71919Y-83582D01*
X-71849Y-83590D01*
X-71796Y-83599D01*
X-71743Y-83608D01*
X-71681D01*
X-71549Y-83599D01*
X-71434Y-83582D01*
X-71311Y-83546D01*
X-71205Y-83502D01*
X-71002Y-83397D01*
X-70835Y-83282D01*
X-70765Y-83220D01*
X-70703Y-83159D01*
X-70650Y-83097D01*
X-70597Y-83053D01*
X-70562Y-83009D01*
X-70535Y-82973D01*
X-70527Y-82956D01*
X-70518Y-82947D01*
X-70430Y-82806D01*
X-70359Y-82647D01*
X-70297Y-82453D01*
X-70244Y-82251D01*
X-70201Y-82039D01*
X-70156Y-81819D01*
X-70104Y-81369D01*
X-70077Y-81158D01*
X-70068Y-80955D01*
X-70059Y-80770D01*
X-70051Y-80611D01*
X-70042Y-80470D01*
Y-80417D01*
Y-80373D01*
Y-80338D01*
Y-80312D01*
Y-80294D01*
Y-80285D01*
X-70051Y-79924D01*
X-70059Y-79598D01*
X-70086Y-79298D01*
X-70112Y-79025D01*
X-70148Y-78778D01*
X-70192Y-78567D01*
X-70236Y-78373D01*
X-70280Y-78205D01*
X-70324Y-78064D01*
X-70368Y-77941D01*
X-70403Y-77835D01*
X-70447Y-77756D01*
X-70474Y-77694D01*
X-70500Y-77659D01*
X-70509Y-77632D01*
X-70518Y-77624D01*
X-70606Y-77509D01*
X-70703Y-77403D01*
X-70800Y-77315D01*
X-70897Y-77245D01*
X-70994Y-77174D01*
X-71091Y-77121D01*
X-71179Y-77077D01*
X-71267Y-77042D01*
X-71426Y-76998D01*
X-71496Y-76980D01*
X-71558Y-76971D01*
X-71602D01*
X-71646Y-76962D01*
D02*
G37*
G36*
X-90604D02*
X-90631D01*
X-90754Y-76971D01*
X-90878Y-76989D01*
X-90992Y-77024D01*
X-91098Y-77068D01*
X-91301Y-77165D01*
X-91468Y-77289D01*
X-91600Y-77412D01*
X-91653Y-77465D01*
X-91697Y-77509D01*
X-91741Y-77553D01*
X-91768Y-77588D01*
X-91777Y-77606D01*
X-91785Y-77615D01*
X-91865Y-77756D01*
X-91935Y-77923D01*
X-92006Y-78108D01*
X-92059Y-78311D01*
X-92103Y-78531D01*
X-92138Y-78752D01*
X-92191Y-79201D01*
X-92217Y-79413D01*
X-92226Y-79616D01*
X-92235Y-79801D01*
X-92244Y-79959D01*
X-92253Y-80091D01*
Y-80153D01*
Y-80197D01*
Y-80232D01*
Y-80259D01*
Y-80276D01*
Y-80285D01*
X-92244Y-80647D01*
X-92226Y-80973D01*
X-92208Y-81281D01*
X-92173Y-81554D01*
X-92138Y-81801D01*
X-92094Y-82030D01*
X-92041Y-82224D01*
X-91997Y-82401D01*
X-91953Y-82559D01*
X-91900Y-82683D01*
X-91856Y-82788D01*
X-91821Y-82877D01*
X-91785Y-82947D01*
X-91759Y-82991D01*
X-91750Y-83018D01*
X-91741Y-83026D01*
X-91662Y-83132D01*
X-91574Y-83220D01*
X-91486Y-83300D01*
X-91398Y-83361D01*
X-91301Y-83423D01*
X-91213Y-83467D01*
X-91036Y-83538D01*
X-90878Y-83582D01*
X-90807Y-83590D01*
X-90754Y-83599D01*
X-90701Y-83608D01*
X-90640D01*
X-90507Y-83599D01*
X-90393Y-83582D01*
X-90269Y-83546D01*
X-90164Y-83502D01*
X-89961Y-83397D01*
X-89794Y-83282D01*
X-89723Y-83220D01*
X-89661Y-83159D01*
X-89608Y-83097D01*
X-89556Y-83053D01*
X-89520Y-83009D01*
X-89494Y-82973D01*
X-89485Y-82956D01*
X-89476Y-82947D01*
X-89388Y-82806D01*
X-89318Y-82647D01*
X-89256Y-82453D01*
X-89203Y-82251D01*
X-89159Y-82039D01*
X-89115Y-81819D01*
X-89062Y-81369D01*
X-89036Y-81158D01*
X-89027Y-80955D01*
X-89018Y-80770D01*
X-89009Y-80611D01*
X-89000Y-80470D01*
Y-80417D01*
Y-80373D01*
Y-80338D01*
Y-80312D01*
Y-80294D01*
Y-80285D01*
X-89009Y-79924D01*
X-89018Y-79598D01*
X-89044Y-79298D01*
X-89071Y-79025D01*
X-89106Y-78778D01*
X-89150Y-78567D01*
X-89194Y-78373D01*
X-89238Y-78205D01*
X-89282Y-78064D01*
X-89326Y-77941D01*
X-89362Y-77835D01*
X-89406Y-77756D01*
X-89432Y-77694D01*
X-89459Y-77659D01*
X-89467Y-77632D01*
X-89476Y-77624D01*
X-89564Y-77509D01*
X-89661Y-77403D01*
X-89758Y-77315D01*
X-89855Y-77245D01*
X-89952Y-77174D01*
X-90049Y-77121D01*
X-90137Y-77077D01*
X-90225Y-77042D01*
X-90384Y-76998D01*
X-90455Y-76980D01*
X-90516Y-76971D01*
X-90560D01*
X-90604Y-76962D01*
D02*
G37*
G36*
X-93136Y38464D02*
X-93250D01*
X-93526Y38447D01*
X-93769Y38399D01*
X-94013Y38334D01*
X-94240Y38236D01*
X-94451Y38139D01*
X-94646Y38009D01*
X-94824Y37896D01*
X-94986Y37750D01*
X-95116Y37620D01*
X-95246Y37490D01*
X-95360Y37376D01*
X-95441Y37279D01*
X-95506Y37181D01*
X-95555Y37116D01*
X-95587Y37068D01*
X-95603Y37052D01*
X-95701Y36873D01*
X-95782Y36678D01*
X-95847Y36467D01*
X-95895Y36240D01*
X-95993Y35769D01*
X-96058Y35315D01*
X-96074Y35088D01*
X-96090Y34893D01*
X-96106Y34698D01*
Y34552D01*
X-96123Y34406D01*
Y34309D01*
Y34244D01*
Y34227D01*
X-96106Y33870D01*
X-96090Y33530D01*
X-96041Y33205D01*
X-95993Y32913D01*
X-95912Y32653D01*
X-95847Y32393D01*
X-95766Y32166D01*
X-95684Y31971D01*
X-95603Y31793D01*
X-95522Y31630D01*
X-95441Y31501D01*
X-95376Y31387D01*
X-95327Y31306D01*
X-95279Y31241D01*
X-95262Y31209D01*
X-95246Y31192D01*
X-95084Y31014D01*
X-94905Y30852D01*
X-94727Y30705D01*
X-94548Y30576D01*
X-94370Y30478D01*
X-94207Y30397D01*
X-93883Y30267D01*
X-93591Y30186D01*
X-93477Y30170D01*
X-93364Y30154D01*
X-93282Y30137D01*
X-93169D01*
X-92942Y30154D01*
X-92731Y30186D01*
X-92536Y30235D01*
X-92341Y30300D01*
X-92000Y30462D01*
X-91692Y30640D01*
X-91448Y30835D01*
X-91351Y30916D01*
X-91270Y30998D01*
X-91205Y31063D01*
X-91156Y31111D01*
X-91140Y31144D01*
X-91124Y31160D01*
X-90978Y31355D01*
X-90848Y31582D01*
X-90734Y31825D01*
X-90637Y32069D01*
X-90491Y32588D01*
X-90377Y33108D01*
X-90345Y33335D01*
X-90328Y33562D01*
X-90312Y33773D01*
X-90296Y33951D01*
X-90280Y34081D01*
Y34195D01*
Y34260D01*
Y34292D01*
X-90296Y34666D01*
X-90312Y35023D01*
X-90361Y35347D01*
X-90426Y35656D01*
X-90491Y35932D01*
X-90556Y36191D01*
X-90637Y36435D01*
X-90718Y36630D01*
X-90815Y36824D01*
X-90896Y36987D01*
X-90961Y37116D01*
X-91026Y37230D01*
X-91091Y37311D01*
X-91140Y37376D01*
X-91156Y37409D01*
X-91172Y37425D01*
X-91335Y37603D01*
X-91513Y37766D01*
X-91692Y37912D01*
X-91870Y38025D01*
X-92049Y38123D01*
X-92211Y38204D01*
X-92536Y38334D01*
X-92828Y38415D01*
X-92942Y38431D01*
X-93055Y38447D01*
X-93136Y38464D01*
D02*
G37*
G36*
X-105504Y31874D02*
X-109545D01*
Y26518D01*
X-105244D01*
X-105049Y26534D01*
X-104855D01*
X-104692Y26550D01*
X-104530Y26567D01*
X-104400Y26583D01*
X-104287D01*
X-104092Y26615D01*
X-103962Y26648D01*
X-103881Y26664D01*
X-103865D01*
X-103589Y26761D01*
X-103345Y26891D01*
X-103134Y27037D01*
X-102940Y27183D01*
X-102810Y27313D01*
X-102696Y27427D01*
X-102631Y27508D01*
X-102615Y27540D01*
X-102453Y27800D01*
X-102339Y28076D01*
X-102242Y28336D01*
X-102193Y28595D01*
X-102161Y28806D01*
X-102128Y28985D01*
Y29050D01*
Y29099D01*
Y29131D01*
Y29147D01*
X-102144Y29391D01*
X-102161Y29602D01*
X-102258Y30008D01*
X-102388Y30348D01*
X-102534Y30640D01*
X-102680Y30868D01*
X-102810Y31030D01*
X-102858Y31079D01*
X-102907Y31127D01*
X-102923Y31144D01*
X-102940Y31160D01*
X-103102Y31290D01*
X-103297Y31387D01*
X-103491Y31484D01*
X-103702Y31566D01*
X-104157Y31695D01*
X-104611Y31777D01*
X-104822Y31809D01*
X-105033Y31841D01*
X-105212Y31858D01*
X-105374D01*
X-105504Y31874D01*
D02*
G37*
G36*
X-111388Y52493D02*
X-114066D01*
Y49534D01*
X-111049D01*
X-110884Y49553D01*
X-110729Y49573D01*
X-110583Y49602D01*
X-110457Y49631D01*
X-110340Y49670D01*
X-110234Y49699D01*
X-110137Y49738D01*
X-110049Y49777D01*
X-109981Y49815D01*
X-109914Y49854D01*
X-109865Y49883D01*
X-109826Y49912D01*
X-109797Y49932D01*
X-109787Y49942D01*
X-109778Y49951D01*
X-109700Y50029D01*
X-109622Y50116D01*
X-109506Y50281D01*
X-109428Y50456D01*
X-109370Y50621D01*
X-109331Y50766D01*
X-109322Y50834D01*
Y50883D01*
X-109312Y50931D01*
Y50960D01*
Y50980D01*
Y50989D01*
X-109322Y51145D01*
X-109351Y51300D01*
X-109389Y51436D01*
X-109428Y51552D01*
X-109477Y51659D01*
X-109516Y51727D01*
X-109545Y51775D01*
X-109555Y51795D01*
X-109651Y51921D01*
X-109768Y52037D01*
X-109884Y52125D01*
X-109991Y52202D01*
X-110098Y52260D01*
X-110175Y52299D01*
X-110234Y52319D01*
X-110243Y52328D01*
X-110253D01*
X-110437Y52387D01*
X-110641Y52425D01*
X-110855Y52455D01*
X-111058Y52474D01*
X-111243Y52484D01*
X-111320D01*
X-111388Y52493D01*
D02*
G37*
G36*
X-103665Y56743D02*
X-103743D01*
X-103898Y56733D01*
X-104034Y56714D01*
X-104179Y56685D01*
X-104305Y56646D01*
X-104538Y56549D01*
X-104732Y56433D01*
X-104819Y56384D01*
X-104897Y56326D01*
X-104955Y56277D01*
X-105014Y56229D01*
X-105052Y56190D01*
X-105082Y56161D01*
X-105101Y56142D01*
X-105111Y56132D01*
X-105208Y56006D01*
X-105285Y55870D01*
X-105363Y55724D01*
X-105421Y55579D01*
X-105518Y55268D01*
X-105586Y54958D01*
X-105605Y54822D01*
X-105625Y54686D01*
X-105634Y54570D01*
X-105644Y54463D01*
X-105654Y54376D01*
Y54317D01*
Y54269D01*
Y54259D01*
X-105644Y54036D01*
X-105634Y53823D01*
X-105605Y53629D01*
X-105567Y53444D01*
X-105528Y53279D01*
X-105479Y53124D01*
X-105431Y52988D01*
X-105382Y52862D01*
X-105334Y52755D01*
X-105285Y52658D01*
X-105237Y52581D01*
X-105198Y52513D01*
X-105159Y52464D01*
X-105130Y52425D01*
X-105120Y52406D01*
X-105111Y52396D01*
X-105004Y52290D01*
X-104897Y52193D01*
X-104781Y52105D01*
X-104664Y52037D01*
X-104548Y51979D01*
X-104441Y51931D01*
X-104218Y51853D01*
X-104034Y51804D01*
X-103946Y51795D01*
X-103878Y51785D01*
X-103820Y51775D01*
X-103743D01*
X-103597Y51785D01*
X-103451Y51804D01*
X-103316Y51834D01*
X-103189Y51872D01*
X-102957Y51969D01*
X-102753Y52086D01*
X-102675Y52144D01*
X-102598Y52202D01*
X-102539Y52251D01*
X-102481Y52299D01*
X-102442Y52338D01*
X-102413Y52367D01*
X-102394Y52387D01*
X-102384Y52396D01*
X-102287Y52523D01*
X-102200Y52649D01*
X-102132Y52794D01*
X-102064Y52940D01*
X-102006Y53095D01*
X-101967Y53250D01*
X-101899Y53541D01*
X-101880Y53677D01*
X-101860Y53803D01*
X-101850Y53920D01*
X-101841Y54026D01*
X-101831Y54104D01*
Y54172D01*
Y54211D01*
Y54220D01*
X-101841Y54453D01*
X-101850Y54667D01*
X-101880Y54871D01*
X-101918Y55055D01*
X-101957Y55230D01*
X-102006Y55385D01*
X-102054Y55530D01*
X-102103Y55647D01*
X-102161Y55763D01*
X-102209Y55860D01*
X-102258Y55938D01*
X-102297Y56006D01*
X-102336Y56054D01*
X-102365Y56093D01*
X-102374Y56112D01*
X-102384Y56122D01*
X-102491Y56229D01*
X-102598Y56326D01*
X-102714Y56413D01*
X-102821Y56481D01*
X-102937Y56539D01*
X-103054Y56588D01*
X-103267Y56666D01*
X-103451Y56714D01*
X-103539Y56724D01*
X-103607Y56733D01*
X-103665Y56743D01*
D02*
G37*
G36*
X-107042Y-70323D02*
X-109475D01*
Y-73011D01*
X-106734D01*
X-106584Y-72993D01*
X-106443Y-72976D01*
X-106311Y-72950D01*
X-106196Y-72923D01*
X-106090Y-72888D01*
X-105993Y-72861D01*
X-105905Y-72826D01*
X-105826Y-72791D01*
X-105764Y-72756D01*
X-105702Y-72720D01*
X-105658Y-72694D01*
X-105623Y-72667D01*
X-105597Y-72650D01*
X-105588Y-72641D01*
X-105579Y-72632D01*
X-105509Y-72562D01*
X-105438Y-72482D01*
X-105332Y-72333D01*
X-105262Y-72174D01*
X-105209Y-72024D01*
X-105174Y-71892D01*
X-105165Y-71830D01*
Y-71786D01*
X-105156Y-71742D01*
Y-71715D01*
Y-71698D01*
Y-71689D01*
X-105165Y-71548D01*
X-105191Y-71407D01*
X-105226Y-71284D01*
X-105262Y-71178D01*
X-105306Y-71081D01*
X-105341Y-71019D01*
X-105367Y-70975D01*
X-105376Y-70957D01*
X-105464Y-70843D01*
X-105570Y-70737D01*
X-105676Y-70658D01*
X-105773Y-70587D01*
X-105870Y-70535D01*
X-105940Y-70499D01*
X-105993Y-70482D01*
X-106002Y-70473D01*
X-106011D01*
X-106178Y-70420D01*
X-106363Y-70385D01*
X-106557Y-70358D01*
X-106742Y-70341D01*
X-106910Y-70332D01*
X-106980D01*
X-107042Y-70323D01*
D02*
G37*
G36*
X-99559Y-68639D02*
X-102124D01*
X-99559Y-72306D01*
Y-68639D01*
D02*
G37*
G36*
X-38904Y134320D02*
X-41019D01*
Y132163D01*
X-41005Y132046D01*
X-40991Y131935D01*
X-40970Y131831D01*
X-40949Y131741D01*
X-40921Y131657D01*
X-40901Y131581D01*
X-40873Y131512D01*
X-40845Y131449D01*
X-40817Y131401D01*
X-40790Y131352D01*
X-40769Y131318D01*
X-40748Y131290D01*
X-40734Y131269D01*
X-40727Y131262D01*
X-40720Y131255D01*
X-40665Y131200D01*
X-40602Y131144D01*
X-40484Y131061D01*
X-40360Y131005D01*
X-40242Y130964D01*
X-40138Y130936D01*
X-40089Y130929D01*
X-40055D01*
X-40020Y130922D01*
X-39999D01*
X-39985D01*
X-39978D01*
X-39867Y130929D01*
X-39756Y130950D01*
X-39659Y130978D01*
X-39576Y131005D01*
X-39500Y131040D01*
X-39451Y131068D01*
X-39417Y131089D01*
X-39403Y131096D01*
X-39313Y131165D01*
X-39229Y131248D01*
X-39167Y131331D01*
X-39112Y131408D01*
X-39070Y131484D01*
X-39042Y131539D01*
X-39028Y131581D01*
X-39021Y131588D01*
Y131595D01*
X-38980Y131727D01*
X-38952Y131872D01*
X-38931Y132025D01*
X-38917Y132170D01*
X-38911Y132302D01*
Y132358D01*
X-38904Y132406D01*
Y134320D01*
D02*
G37*
G36*
X-40082Y127989D02*
X-40103D01*
X-40117D01*
X-40124D01*
X-40270Y127975D01*
X-40401Y127941D01*
X-40519Y127899D01*
X-40616Y127844D01*
X-40700Y127788D01*
X-40762Y127746D01*
X-40797Y127712D01*
X-40810Y127698D01*
X-40908Y127580D01*
X-40977Y127455D01*
X-41032Y127330D01*
X-41067Y127212D01*
X-41088Y127108D01*
X-41095Y127060D01*
Y127025D01*
X-41102Y126991D01*
Y126866D01*
X-41088Y126790D01*
X-41053Y126644D01*
X-41005Y126512D01*
X-40956Y126408D01*
X-40901Y126318D01*
X-40852Y126256D01*
X-40817Y126214D01*
X-40810Y126200D01*
X-40803D01*
X-40748Y126145D01*
X-40686Y126103D01*
X-40568Y126027D01*
X-40443Y125971D01*
X-40332Y125937D01*
X-40228Y125916D01*
X-40152Y125909D01*
X-40117Y125902D01*
X-40096D01*
X-40082D01*
X-40075D01*
X-39930Y125916D01*
X-39798Y125950D01*
X-39673Y125992D01*
X-39576Y126047D01*
X-39493Y126103D01*
X-39430Y126145D01*
X-39396Y126179D01*
X-39382Y126193D01*
X-39285Y126311D01*
X-39216Y126436D01*
X-39167Y126561D01*
X-39132Y126678D01*
X-39112Y126783D01*
X-39105Y126824D01*
Y126866D01*
X-39098Y126900D01*
Y126942D01*
X-39112Y127108D01*
X-39139Y127261D01*
X-39188Y127393D01*
X-39243Y127497D01*
X-39292Y127587D01*
X-39340Y127649D01*
X-39368Y127691D01*
X-39382Y127705D01*
X-39493Y127802D01*
X-39618Y127871D01*
X-39743Y127920D01*
X-39860Y127954D01*
X-39964Y127975D01*
X-40006Y127982D01*
X-40048D01*
X-40082Y127989D01*
D02*
G37*
G36*
X-37115Y128246D02*
X-37156D01*
X-37163D01*
X-37170D01*
X-37274Y128239D01*
X-37364Y128232D01*
X-37544Y128190D01*
X-37704Y128135D01*
X-37836Y128065D01*
X-37891Y128031D01*
X-37940Y127996D01*
X-37981Y127968D01*
X-38023Y127941D01*
X-38051Y127920D01*
X-38071Y127899D01*
X-38078Y127892D01*
X-38085Y127885D01*
X-38148Y127816D01*
X-38210Y127739D01*
X-38259Y127663D01*
X-38300Y127587D01*
X-38363Y127434D01*
X-38404Y127289D01*
X-38432Y127157D01*
X-38439Y127101D01*
X-38446Y127053D01*
X-38453Y127018D01*
Y126963D01*
X-38446Y126859D01*
X-38439Y126762D01*
X-38397Y126574D01*
X-38335Y126415D01*
X-38266Y126276D01*
X-38231Y126221D01*
X-38196Y126165D01*
X-38168Y126124D01*
X-38134Y126089D01*
X-38113Y126054D01*
X-38092Y126034D01*
X-38085Y126027D01*
X-38078Y126020D01*
X-38009Y125950D01*
X-37933Y125895D01*
X-37857Y125840D01*
X-37780Y125798D01*
X-37621Y125729D01*
X-37475Y125687D01*
X-37343Y125659D01*
X-37288Y125652D01*
X-37239Y125645D01*
X-37198Y125638D01*
X-37170D01*
X-37149D01*
X-37142D01*
X-37038Y125645D01*
X-36941Y125652D01*
X-36768Y125694D01*
X-36608Y125756D01*
X-36477Y125819D01*
X-36421Y125853D01*
X-36372Y125888D01*
X-36331Y125923D01*
X-36289Y125950D01*
X-36262Y125971D01*
X-36241Y125992D01*
X-36234Y125999D01*
X-36227Y126006D01*
X-36165Y126075D01*
X-36109Y126152D01*
X-36061Y126228D01*
X-36019Y126304D01*
X-35956Y126464D01*
X-35915Y126609D01*
X-35887Y126741D01*
X-35880Y126796D01*
X-35873Y126845D01*
X-35866Y126887D01*
Y126942D01*
X-35873Y127074D01*
X-35894Y127199D01*
X-35922Y127317D01*
X-35950Y127414D01*
X-35977Y127504D01*
X-36005Y127566D01*
X-36026Y127608D01*
X-36033Y127615D01*
Y127622D01*
X-36102Y127732D01*
X-36185Y127830D01*
X-36262Y127906D01*
X-36338Y127975D01*
X-36407Y128024D01*
X-36470Y128065D01*
X-36504Y128086D01*
X-36518Y128093D01*
X-36636Y128142D01*
X-36754Y128183D01*
X-36865Y128211D01*
X-36962Y128225D01*
X-37045Y128239D01*
X-37115Y128246D01*
D02*
G37*
G36*
X36422Y132654D02*
X34307D01*
Y130498D01*
X34321Y130380D01*
X34335Y130269D01*
X34356Y130165D01*
X34376Y130075D01*
X34404Y129991D01*
X34425Y129915D01*
X34453Y129846D01*
X34480Y129783D01*
X34508Y129735D01*
X34536Y129686D01*
X34557Y129651D01*
X34578Y129624D01*
X34591Y129603D01*
X34598Y129596D01*
X34605Y129589D01*
X34661Y129534D01*
X34723Y129478D01*
X34841Y129395D01*
X34966Y129340D01*
X35084Y129298D01*
X35188Y129270D01*
X35236Y129263D01*
X35271D01*
X35306Y129256D01*
X35326D01*
X35340D01*
X35347D01*
X35458Y129263D01*
X35569Y129284D01*
X35666Y129312D01*
X35749Y129340D01*
X35826Y129374D01*
X35874Y129402D01*
X35909Y129423D01*
X35923Y129430D01*
X36013Y129499D01*
X36096Y129582D01*
X36158Y129665D01*
X36214Y129742D01*
X36256Y129818D01*
X36283Y129873D01*
X36297Y129915D01*
X36304Y129922D01*
Y129929D01*
X36346Y130061D01*
X36373Y130206D01*
X36394Y130359D01*
X36408Y130504D01*
X36415Y130636D01*
Y130692D01*
X36422Y130740D01*
Y132654D01*
D02*
G37*
%LPD*%
D10*
X-42500Y43810D02*
X42500D01*
D11*
X46708Y64305D02*
X43827Y63270D01*
X42522Y60500D01*
X-42500D02*
X-43805Y63270D01*
X-46686Y64305D01*
X46708D02*
X50455D01*
Y76842D01*
X42522Y-54157D02*
Y60500D01*
X-50433Y64305D02*
X-46686D01*
X-50433D02*
Y76842D01*
X-42500Y-54157D02*
Y60500D01*
X42878Y0D02*
X52878D01*
X-54122Y42500D02*
X53478D01*
X-61478Y76842D02*
X62147D01*
X-59253Y86593D02*
Y110592D01*
X-55753D01*
X-61753Y76842D02*
Y116842D01*
X-59253Y86593D02*
X-55753D01*
X59647D02*
Y110592D01*
X56146D02*
X59647D01*
X56146Y86593D02*
X59647D01*
X-61753Y116842D02*
X61622D01*
X62147Y116318D01*
Y76842D02*
Y116318D01*
X-53478Y-42500D02*
X54122D01*
X-52878Y0D02*
X-42878D01*
X-63721Y54038D02*
X-53721D01*
X-54000Y-63927D02*
Y-53927D01*
X-64000D02*
X-54000D01*
X-53878Y-54084D02*
X54122D01*
X-53878D02*
Y53916D01*
X54122D01*
X55200Y-84D02*
X65200D01*
X-50876Y53916D02*
Y76913D01*
X51122Y53916D02*
Y76913D01*
X54122Y-54084D02*
Y53916D01*
X-64955Y-84D02*
X-54955D01*
X53965Y54038D02*
X63965D01*
X54245Y-63927D02*
Y-53927D01*
X64245D01*
D88*
X-89789Y33452D02*
X-90034Y35941D01*
X-90760Y38335D01*
X-91939Y40541D01*
X-93526Y42474D01*
X-95459Y44061D01*
X-97665Y45240D01*
X-100059Y45966D01*
X-102548Y46211D01*
X-105037Y45966D01*
X-107430Y45240D01*
X-109636Y44061D01*
X-111569Y42474D01*
X-113156Y40541D01*
X-114335Y38335D01*
X-115061Y35941D01*
X-115306Y33452D01*
X-115061Y30963D01*
X-114335Y28570D01*
X-113156Y26364D01*
X-111569Y24431D01*
X-109636Y22844D01*
X-107430Y21665D01*
X-105037Y20939D01*
X-102548Y20694D01*
X-100059Y20939D01*
X-97665Y21665D01*
X-95459Y22844D01*
X-93526Y24431D01*
X-91939Y26364D01*
X-90760Y28570D01*
X-90034Y30963D01*
X-89789Y33452D01*
X-111500Y24500D02*
X-93532Y42469D01*
M02*
