G04*
G04 #@! TF.GenerationSoftware,Altium Limited,Altium Designer,23.8.1 (32)*
G04*
G04 Layer_Physical_Order=1*
G04 Layer_Color=255*
%FSLAX44Y44*%
%MOMM*%
G71*
G04*
G04 #@! TF.SameCoordinates,D32FF3FC-BFFE-4070-827C-C4EDDC97BD27*
G04*
G04*
G04 #@! TF.FilePolarity,Positive*
G04*
G01*
G75*
%ADD11C,0.2000*%
%ADD14R,0.3500X0.3500*%
%ADD15O,0.3500X1.4000*%
%ADD16R,0.3500X1.4000*%
%ADD17R,0.5200X0.5200*%
%ADD18R,0.5500X0.4500*%
%ADD19R,0.3500X0.3500*%
%ADD21R,0.5000X0.2800*%
%ADD22R,0.9000X1.6000*%
%ADD23R,0.7000X0.9000*%
%ADD24R,0.4500X0.5500*%
%ADD25R,2.0000X0.8000*%
%ADD26R,1.5000X1.3000*%
%ADD27R,1.3000X1.5000*%
G04:AMPARAMS|DCode=28|XSize=0.2mm|YSize=0.565mm|CornerRadius=0.05mm|HoleSize=0mm|Usage=FLASHONLY|Rotation=180.000|XOffset=0mm|YOffset=0mm|HoleType=Round|Shape=RoundedRectangle|*
%AMROUNDEDRECTD28*
21,1,0.2000,0.4650,0,0,180.0*
21,1,0.1000,0.5650,0,0,180.0*
1,1,0.1000,-0.0500,0.2325*
1,1,0.1000,0.0500,0.2325*
1,1,0.1000,0.0500,-0.2325*
1,1,0.1000,-0.0500,-0.2325*
%
%ADD28ROUNDEDRECTD28*%
G04:AMPARAMS|DCode=29|XSize=0.4mm|YSize=0.565mm|CornerRadius=0.05mm|HoleSize=0mm|Usage=FLASHONLY|Rotation=180.000|XOffset=0mm|YOffset=0mm|HoleType=Round|Shape=RoundedRectangle|*
%AMROUNDEDRECTD29*
21,1,0.4000,0.4650,0,0,180.0*
21,1,0.3000,0.5650,0,0,180.0*
1,1,0.1000,-0.1500,0.2325*
1,1,0.1000,0.1500,0.2325*
1,1,0.1000,0.1500,-0.2325*
1,1,0.1000,-0.1500,-0.2325*
%
%ADD29ROUNDEDRECTD29*%
%ADD30R,0.6200X0.6200*%
%ADD31R,0.6200X0.6200*%
%ADD32R,0.9000X0.7000*%
%ADD33R,0.5200X0.5200*%
%ADD34R,0.3200X0.3600*%
%ADD35R,0.3000X1.6000*%
%ADD36R,2.4000X2.4000*%
%ADD37R,2.4000X2.4000*%
%ADD48C,1.0000*%
%ADD67C,0.1270*%
%ADD68R,0.4000X0.9000*%
%ADD69C,0.3810*%
%ADD70C,0.1020*%
%ADD71C,0.1016*%
%ADD72C,0.1524*%
%ADD73C,0.2540*%
%ADD74C,0.5000*%
%ADD75C,0.3800*%
%ADD76O,3.9000X2.9000*%
%ADD77C,1.5240*%
%ADD78C,0.4100*%
%ADD79C,0.5000*%
%ADD80C,0.4064*%
G36*
X-53540Y139540D02*
Y134770D01*
X-46500D01*
Y133500D01*
X-45230D01*
Y127460D01*
X-41000D01*
Y124000D01*
X-52000D01*
Y115000D01*
X-53270Y115000D01*
X-59500D01*
Y111554D01*
X-60360Y110640D01*
X-60770Y110640D01*
X-64230D01*
Y105500D01*
X-66770D01*
Y110640D01*
X-70640D01*
Y106380D01*
X-71510Y105470D01*
X-75462D01*
Y108733D01*
X-75025Y108913D01*
X-73337Y110601D01*
X-72424Y112807D01*
Y115194D01*
X-73337Y117399D01*
X-75025Y119087D01*
X-77230Y120000D01*
X-79617D01*
X-81822Y119087D01*
X-83510Y117399D01*
X-84424Y115194D01*
Y112807D01*
X-83510Y110601D01*
X-81822Y108913D01*
X-81385Y108733D01*
Y105470D01*
X-88510D01*
Y90470D01*
X-71510D01*
Y94538D01*
X-69100D01*
Y93900D01*
X-68462D01*
Y92336D01*
X-68550Y92123D01*
Y90910D01*
X-68086Y89789D01*
X-67228Y88931D01*
X-66107Y88467D01*
X-64893D01*
X-63772Y88931D01*
X-62914Y89789D01*
X-62450Y90910D01*
Y92123D01*
X-62538Y92336D01*
Y93900D01*
X-61900D01*
Y99462D01*
X-61002Y100360D01*
X-60621Y100360D01*
X-59500Y100000D01*
X-59239Y100000D01*
X-42500D01*
Y108866D01*
X-8250D01*
X-7997Y107596D01*
X-9319Y107048D01*
X-10968Y105399D01*
X-11860Y103246D01*
Y100914D01*
X-11801Y100772D01*
X-12878Y100053D01*
X-13746Y100921D01*
X-14532Y102819D01*
X-16181Y104468D01*
X-18334Y105360D01*
X-20666D01*
X-22819Y104468D01*
X-24468Y102819D01*
X-25278Y100864D01*
X-25986Y100634D01*
X-26630Y100601D01*
X-27087Y101285D01*
X-27087Y101285D01*
X-28140Y102338D01*
Y102798D01*
X-29032Y104952D01*
X-30681Y106600D01*
X-32834Y107492D01*
X-35166D01*
X-37319Y106600D01*
X-38968Y104952D01*
X-39860Y102798D01*
Y100467D01*
X-39084Y98593D01*
X-39860Y96718D01*
Y94387D01*
X-38968Y92233D01*
X-37319Y90585D01*
X-37110Y90498D01*
Y75223D01*
Y71096D01*
X-38874Y69917D01*
X-40137Y68027D01*
X-40290Y67255D01*
X-41560Y67380D01*
Y68730D01*
X-44430D01*
Y65660D01*
X-41804D01*
X-41560Y65660D01*
X-40468Y65231D01*
X-40137Y63567D01*
X-38874Y61677D01*
X-37110Y60498D01*
Y44355D01*
X-36765Y42621D01*
X-35873Y41285D01*
X-35966Y41059D01*
Y38728D01*
X-35074Y36574D01*
X-34893Y36393D01*
X-35379Y35220D01*
X-40364D01*
Y31700D01*
X-29784D01*
Y34034D01*
X-28941D01*
X-26787Y34926D01*
X-25138Y36574D01*
X-24565Y37959D01*
X-23181Y38532D01*
X-21532Y40181D01*
X-20640Y42334D01*
Y44666D01*
X-21532Y46819D01*
X-23181Y48468D01*
X-25334Y49360D01*
X-25759D01*
Y55684D01*
X-24495Y56070D01*
X-24490Y56070D01*
X-21779Y53360D01*
X-21860Y53166D01*
Y50834D01*
X-20968Y48681D01*
X-19319Y47032D01*
X-17166Y46140D01*
X-14834D01*
X-12681Y47032D01*
X-11199Y48514D01*
X-10375Y48286D01*
X-9995Y48059D01*
X-10130Y47380D01*
X-10113D01*
Y45730D01*
X-10130D01*
X-9721Y43674D01*
X-8556Y41931D01*
X-8549Y41860D01*
X-10282Y40127D01*
X-11265Y38657D01*
X-11610Y36923D01*
Y29355D01*
X-11265Y27620D01*
X-10373Y26285D01*
X-10466Y26059D01*
Y23728D01*
X-9574Y21574D01*
X-7926Y19926D01*
X-5772Y19034D01*
X-3441D01*
X-1287Y19926D01*
X362Y21574D01*
X935Y22959D01*
X2319Y23532D01*
X3055Y24268D01*
X4325Y23742D01*
Y5655D01*
X3055Y5402D01*
X2468Y6819D01*
X819Y8468D01*
X-1334Y9360D01*
X-3666D01*
X-5050Y8787D01*
X-6434Y9360D01*
X-7778D01*
Y11490D01*
X-12568D01*
Y12760D01*
X-13838D01*
Y18050D01*
X-15171D01*
X-15697Y19320D01*
X-14517Y20500D01*
X-13604Y22705D01*
Y25092D01*
X-14517Y27297D01*
X-16205Y28985D01*
X-18410Y29899D01*
X-20797D01*
X-23002Y28985D01*
X-24690Y27297D01*
X-25371Y25653D01*
X-29107D01*
X-29784Y26330D01*
Y29160D01*
X-40364D01*
Y27564D01*
X-46313D01*
X-47183Y28434D01*
X-48338Y28913D01*
X-55035D01*
X-55903Y29780D01*
X-55864Y29873D01*
Y31087D01*
X-55903Y31180D01*
X-54181Y32901D01*
X-53702Y34057D01*
Y39400D01*
X-52587D01*
Y55400D01*
X-58087D01*
Y54099D01*
X-58707Y53898D01*
X-59357Y53888D01*
X-59854Y54633D01*
X-60764Y55240D01*
X-61837Y55454D01*
X-62910Y55240D01*
X-63819Y54633D01*
X-64427Y53723D01*
X-64439Y53662D01*
X-65734D01*
X-65746Y53723D01*
X-66354Y54633D01*
X-67264Y55240D01*
X-68337Y55454D01*
X-69410Y55240D01*
X-69738Y55021D01*
X-71253Y55167D01*
X-71424Y55265D01*
X-71744Y55743D01*
X-73163Y56691D01*
X-73567Y56771D01*
Y47400D01*
X-76107D01*
Y56771D01*
X-76511Y56691D01*
X-77930Y55743D01*
X-78878Y54324D01*
X-79211Y52650D01*
Y51580D01*
X-80481Y50858D01*
X-81069Y51102D01*
X-94965D01*
X-95780Y52034D01*
X-95780Y52372D01*
Y55889D01*
X-92287D01*
X-91153Y56115D01*
X-90192Y56757D01*
X-85615Y61334D01*
X-82344D01*
Y59794D01*
X-77973D01*
Y65434D01*
X-76704D01*
Y66704D01*
X-71063D01*
Y71074D01*
X-71063D01*
X-71510Y71470D01*
Y86470D01*
X-88510D01*
Y71470D01*
X-88052D01*
Y69534D01*
X-89803D01*
Y65523D01*
X-93513Y61813D01*
X-95780D01*
Y63034D01*
X-101780D01*
Y52034D01*
X-98676D01*
X-98424Y50764D01*
X-98764Y50623D01*
X-101273Y48114D01*
X-102446Y48600D01*
Y50630D01*
X-105466D01*
Y46340D01*
X-108006D01*
Y50630D01*
X-111026D01*
Y49089D01*
X-115486D01*
Y44360D01*
X-115486Y43590D01*
X-115486D01*
X-115486Y43089D01*
X-115486D01*
Y39553D01*
X-116756Y38705D01*
X-116897Y38763D01*
X-118110D01*
X-118826Y38467D01*
X-119887Y38990D01*
X-120096Y39211D01*
Y109854D01*
X-118826Y110409D01*
X-116193Y108248D01*
X-112710Y106387D01*
X-108931Y105240D01*
X-105000Y104853D01*
X-101069Y105240D01*
X-97290Y106387D01*
X-93807Y108248D01*
X-90754Y110754D01*
X-88248Y113807D01*
X-86387Y117290D01*
X-85240Y121069D01*
X-84853Y125000D01*
X-85240Y128931D01*
X-86387Y132710D01*
X-88248Y136193D01*
X-90663Y139136D01*
X-90532Y139867D01*
X-90339Y140406D01*
X-69007D01*
X-68840Y139136D01*
X-68950Y139106D01*
X-70670Y138113D01*
X-72073Y136710D01*
X-73066Y134990D01*
X-73506Y133350D01*
X-66040D01*
X-58574D01*
X-59014Y134990D01*
X-60006Y136710D01*
X-61410Y138113D01*
X-63130Y139106D01*
X-63240Y139136D01*
X-63073Y140406D01*
X-54451D01*
X-53540Y139540D01*
D02*
G37*
G36*
X90532Y139867D02*
X90663Y139136D01*
X88248Y136193D01*
X86387Y132710D01*
X85240Y128931D01*
X84853Y125000D01*
X85240Y121069D01*
X86387Y117290D01*
X88248Y113807D01*
X90754Y110754D01*
X93807Y108248D01*
X97290Y106387D01*
X101069Y105240D01*
X105000Y104853D01*
X108930Y105240D01*
X112710Y106387D01*
X116193Y108248D01*
X118826Y110409D01*
X120096Y109854D01*
X120096Y15145D01*
X118826Y14591D01*
X116193Y16752D01*
X112710Y18613D01*
X108930Y19760D01*
X105000Y20147D01*
X101069Y19760D01*
X99739Y19356D01*
X98695Y20367D01*
X98792Y20730D01*
X91327D01*
X83861D01*
X84301Y19090D01*
X85293Y17370D01*
X86697Y15967D01*
X88417Y14974D01*
X89475Y14690D01*
X89938Y13252D01*
X88248Y11193D01*
X86387Y7710D01*
X85240Y3930D01*
X84853Y0D01*
X85240Y-3930D01*
X86387Y-7710D01*
X88248Y-11193D01*
X89027Y-12141D01*
X88541Y-13315D01*
X86961Y-13470D01*
X84040Y-14357D01*
X81347Y-15796D01*
X78987Y-17733D01*
X77050Y-20093D01*
X75611Y-22786D01*
X74724Y-25707D01*
X74425Y-28746D01*
X74724Y-31785D01*
X75611Y-34706D01*
X77050Y-37399D01*
X78987Y-39759D01*
X81347Y-41696D01*
X84040Y-43135D01*
X86961Y-44022D01*
X88772Y-44200D01*
X88709Y-45470D01*
X84770D01*
Y-58740D01*
X98040D01*
Y-45470D01*
X98040D01*
X98332Y-44321D01*
X100000D01*
X103039Y-44022D01*
X105960Y-43135D01*
X108653Y-41696D01*
X111013Y-39759D01*
X112950Y-37399D01*
X114389Y-34706D01*
X115276Y-31785D01*
X115575Y-28746D01*
X115276Y-25707D01*
X114389Y-22786D01*
X112950Y-20093D01*
X112704Y-19793D01*
X113175Y-18365D01*
X116193Y-16752D01*
X118826Y-14591D01*
X120096Y-15145D01*
X120096Y-68108D01*
X119521Y-68379D01*
X118826Y-68455D01*
X117184Y-66316D01*
X114860Y-64532D01*
X112154Y-63411D01*
X109250Y-63029D01*
X106346Y-63411D01*
X103639Y-64532D01*
X101316Y-66316D01*
X99532Y-68639D01*
X99310Y-69177D01*
X98040Y-68924D01*
Y-61280D01*
X84770D01*
Y-74550D01*
X98040D01*
X98040Y-74550D01*
X98222Y-75712D01*
X98411Y-77154D01*
X99532Y-79861D01*
X101316Y-82184D01*
X103639Y-83968D01*
X106346Y-85089D01*
X109250Y-85471D01*
X112154Y-85089D01*
X112462Y-84961D01*
X113006Y-86110D01*
X110792Y-87294D01*
X107953Y-88155D01*
X106236Y-88324D01*
X105000Y-88406D01*
Y-88406D01*
X104999Y-88406D01*
X-104999D01*
X-105000Y-88406D01*
Y-88406D01*
X-106236Y-88324D01*
X-107953Y-88155D01*
X-110792Y-87294D01*
X-113409Y-85895D01*
X-115703Y-84013D01*
X-117585Y-81719D01*
X-118984Y-79102D01*
X-119845Y-76263D01*
X-120123Y-73445D01*
X-120096Y-73310D01*
Y-15146D01*
X-118826Y-14591D01*
X-116193Y-16752D01*
X-113175Y-18365D01*
X-112704Y-19793D01*
X-112950Y-20093D01*
X-114389Y-22786D01*
X-115276Y-25707D01*
X-115575Y-28746D01*
X-115276Y-31785D01*
X-114389Y-34706D01*
X-112950Y-37399D01*
X-111013Y-39759D01*
X-108653Y-41696D01*
X-105960Y-43135D01*
X-103039Y-44022D01*
X-100000Y-44321D01*
X-98332D01*
X-98040Y-45470D01*
X-98040Y-45591D01*
Y-58740D01*
X-84770D01*
Y-45470D01*
X-88709D01*
X-88771Y-44200D01*
X-86961Y-44022D01*
X-84040Y-43135D01*
X-81347Y-41696D01*
X-78987Y-39759D01*
X-77050Y-37399D01*
X-75611Y-34706D01*
X-74724Y-31785D01*
X-74425Y-28746D01*
X-74724Y-25707D01*
X-75611Y-22786D01*
X-77050Y-20093D01*
X-78987Y-17733D01*
X-81347Y-15796D01*
X-84040Y-14357D01*
X-86961Y-13470D01*
X-88541Y-13315D01*
X-89027Y-12141D01*
X-88248Y-11193D01*
X-86387Y-7710D01*
X-85240Y-3930D01*
X-84853Y0D01*
X-85240Y3930D01*
X-86387Y7710D01*
X-88248Y11193D01*
X-90754Y14246D01*
X-93807Y16752D01*
X-97290Y18613D01*
X-101069Y19760D01*
X-105000Y20147D01*
X-108931Y19760D01*
X-112710Y18613D01*
X-116193Y16752D01*
X-118826Y14591D01*
X-120096Y15146D01*
Y32216D01*
X-119887Y32436D01*
X-118826Y32960D01*
X-118110Y32663D01*
X-116897D01*
X-116579Y32795D01*
X-115985Y32448D01*
X-115309Y31458D01*
Y30958D01*
X-115309D01*
Y25458D01*
X-109809D01*
Y25458D01*
X-109279D01*
Y25458D01*
X-103779D01*
Y26338D01*
X-61469D01*
X-60313Y26816D01*
X-59647Y27482D01*
X-59521Y27430D01*
X-58307D01*
X-58214Y27469D01*
X-57366Y26621D01*
X-57892Y25351D01*
X-59769D01*
X-60923Y24873D01*
X-74423Y11372D01*
X-74837Y11454D01*
X-75910Y11240D01*
X-76819Y10633D01*
X-77427Y9723D01*
X-77641Y8650D01*
Y-1850D01*
X-77427Y-2923D01*
X-76819Y-3833D01*
X-76356Y-4142D01*
Y-10715D01*
X-75878Y-11869D01*
X-72699Y-15048D01*
X-71545Y-15526D01*
X-70934D01*
X-70202Y-17292D01*
X-68514Y-18980D01*
X-66309Y-19893D01*
X-65836D01*
X-65518Y-20337D01*
X-65179Y-21163D01*
X-65550Y-22060D01*
Y-23273D01*
X-65462Y-23486D01*
Y-45102D01*
X-65550Y-45315D01*
Y-46528D01*
X-65086Y-47649D01*
X-64228Y-48507D01*
X-63107Y-48972D01*
X-61893D01*
X-61665Y-48877D01*
X-61601Y-48879D01*
X-61534Y-48890D01*
X-61020Y-49127D01*
X-60406Y-49730D01*
Y-52555D01*
X-60181Y-53689D01*
X-59539Y-54650D01*
X-52094Y-62094D01*
X-51133Y-62737D01*
X-50000Y-62962D01*
X52750D01*
X53884Y-62737D01*
X54844Y-62094D01*
X67787Y-49152D01*
X68960Y-49638D01*
Y-58740D01*
X82230D01*
Y-45470D01*
X73038D01*
X72483Y-44718D01*
X72273Y-44200D01*
X72462Y-43250D01*
Y14775D01*
X74409Y16722D01*
X74757Y16579D01*
X77144D01*
X79349Y17492D01*
X81037Y19180D01*
X81950Y21385D01*
Y23772D01*
X81037Y25977D01*
X79534Y27480D01*
X79714Y28355D01*
X79923Y28750D01*
X80050D01*
Y31083D01*
X87813D01*
X88675Y31255D01*
X89532Y30486D01*
X89292Y29261D01*
X88417Y29026D01*
X86697Y28033D01*
X85293Y26630D01*
X84301Y24910D01*
X83861Y23270D01*
X91327D01*
X98793D01*
X98353Y24910D01*
X97360Y26630D01*
X95956Y28033D01*
X94520Y28863D01*
X94819Y30133D01*
X98703D01*
X99837Y30359D01*
X100798Y31001D01*
X103999Y34202D01*
X104532Y35000D01*
X105000D01*
Y46000D01*
X100040D01*
Y47540D01*
X96770D01*
Y40500D01*
X94230D01*
Y47540D01*
X90960D01*
Y46000D01*
X86000D01*
Y37007D01*
X81590D01*
Y40580D01*
X70310D01*
Y36210D01*
X71850D01*
Y28750D01*
X71977D01*
X72186Y28355D01*
X72366Y27480D01*
X70863Y25977D01*
X69950Y23772D01*
Y21385D01*
X70168Y20859D01*
X67406Y18096D01*
X66764Y17135D01*
X66538Y16002D01*
Y-22970D01*
X62810D01*
Y-21700D01*
X60675D01*
Y-18721D01*
X61107Y-18432D01*
X62060Y-17007D01*
X62394Y-15325D01*
Y-10675D01*
X62060Y-8993D01*
X61947Y-8825D01*
X62060Y-8657D01*
X62394Y-6975D01*
Y-2325D01*
X62060Y-643D01*
X61107Y782D01*
X60675Y1071D01*
Y28857D01*
X60675Y28857D01*
X60330Y30591D01*
X59348Y32062D01*
X59348Y32062D01*
X53205Y38205D01*
X51734Y39187D01*
X50000Y39532D01*
X47360D01*
Y41166D01*
X46468Y43319D01*
X44819Y44968D01*
X42666Y45860D01*
X40334D01*
X38181Y44968D01*
X36532Y43319D01*
X36318Y42802D01*
X35560Y42562D01*
X34318Y43458D01*
Y48130D01*
X34318Y48130D01*
X33973Y49864D01*
X32991Y51335D01*
X29528Y54798D01*
X28937Y55192D01*
X29323Y56462D01*
X31810D01*
X32111Y56522D01*
X33832Y56748D01*
X35717Y57529D01*
X37335Y58771D01*
X38577Y60389D01*
X39357Y62273D01*
X39418Y62733D01*
X40739Y63041D01*
X40795Y62957D01*
X45531Y58222D01*
X45581Y56968D01*
X43932Y55319D01*
X43040Y53166D01*
Y50834D01*
X43932Y48681D01*
X45581Y47032D01*
X47734Y46140D01*
X50066D01*
X51450Y46713D01*
X52834Y46140D01*
X55166D01*
X57319Y47032D01*
X58968Y48681D01*
X59860Y50834D01*
Y53166D01*
X58968Y55319D01*
X57319Y56968D01*
X57125Y57048D01*
Y60802D01*
X56780Y62536D01*
X55798Y64007D01*
X50818Y68986D01*
Y86447D01*
X50473Y88181D01*
X49491Y89652D01*
X49491Y89652D01*
X50038Y90900D01*
X56600D01*
X57500Y90007D01*
Y80500D01*
X72500D01*
Y97500D01*
X69039D01*
Y101155D01*
X70447Y102563D01*
X71807Y102000D01*
X74194D01*
X76399Y102914D01*
X78087Y104601D01*
X79000Y106806D01*
Y109193D01*
X78087Y111399D01*
X76399Y113087D01*
X74194Y114000D01*
X71807D01*
X69601Y113087D01*
X67913Y111399D01*
X67000Y109193D01*
Y106806D01*
X67563Y105447D01*
X65558Y103442D01*
X65116Y102780D01*
X64961Y102000D01*
Y97500D01*
X58140D01*
Y101230D01*
X47860D01*
Y99050D01*
X47393D01*
X46272Y98586D01*
X45414Y97728D01*
X44950Y96607D01*
Y95988D01*
X43680Y95462D01*
X35754Y103388D01*
X34284Y104370D01*
X32550Y104715D01*
X23251D01*
X22968Y105399D01*
X21319Y107048D01*
X19166Y107940D01*
X16834D01*
X14681Y107048D01*
X13032Y105399D01*
X13032Y105399D01*
X11663Y105413D01*
X10174Y106902D01*
X8020Y107794D01*
X5689D01*
X3535Y106902D01*
X1886Y105254D01*
X1159Y103498D01*
X994Y103410D01*
X-346Y103743D01*
X-1032Y105399D01*
X-2681Y107048D01*
X-4003Y107596D01*
X-3750Y108866D01*
X-0D01*
X1156Y109344D01*
X3061Y111250D01*
X7250D01*
Y113893D01*
X8198Y114093D01*
X8307D01*
X8419Y114139D01*
X8494Y114155D01*
X9750Y113316D01*
Y111250D01*
X16250D01*
Y115059D01*
X16307Y115345D01*
Y118115D01*
X17635Y119443D01*
X20405D01*
X20691Y119500D01*
X26500D01*
Y129230D01*
X26500Y130500D01*
X26500D01*
Y130500D01*
X26500D01*
Y140406D01*
X31500D01*
Y131770D01*
X31500Y130500D01*
X31500D01*
Y130500D01*
X31500D01*
Y119500D01*
X33961D01*
Y116000D01*
X34116Y115220D01*
X34558Y114558D01*
X37808Y111308D01*
X37808Y111308D01*
X38470Y110866D01*
X39250Y110711D01*
X41250D01*
Y109250D01*
X48750D01*
Y115750D01*
X49498Y116710D01*
X50290D01*
Y120230D01*
X45000D01*
Y122770D01*
X50290D01*
Y123710D01*
Y127230D01*
X45000D01*
Y129770D01*
X50290D01*
Y133290D01*
X49498D01*
X48750Y134250D01*
Y140406D01*
X90339D01*
X90532Y139867D01*
D02*
G37*
G36*
X-58707Y40902D02*
X-58087Y40700D01*
Y39400D01*
X-56971D01*
Y34734D01*
X-58214Y33491D01*
X-58307Y33530D01*
X-59521D01*
X-60642Y33066D01*
X-61500Y32208D01*
X-61964Y31087D01*
Y29873D01*
X-63137Y29606D01*
X-101097D01*
X-102239Y29918D01*
Y34041D01*
X-101076Y34300D01*
Y34300D01*
X-98056D01*
Y38590D01*
X-95516D01*
Y34300D01*
X-92496D01*
Y35840D01*
X-87686D01*
Y36046D01*
X-86416Y36572D01*
X-82740Y32896D01*
X-81584Y32418D01*
X-64418D01*
X-63262Y32896D01*
X-60681Y35477D01*
X-60202Y36633D01*
Y39935D01*
X-59854Y40167D01*
X-59357Y40912D01*
X-58707Y40902D01*
D02*
G37*
G36*
X-41230Y-44050D02*
X-38460D01*
Y-42510D01*
X-31540D01*
Y-44050D01*
X-28770D01*
Y-33510D01*
X-26230D01*
Y-44050D01*
X-23460D01*
Y-42510D01*
X-16540D01*
Y-44050D01*
X-12810D01*
Y-45320D01*
X61445D01*
X61971Y-46590D01*
X51523Y-57038D01*
X-40006D01*
X-40455Y-55768D01*
X-39914Y-55228D01*
X-39450Y-54107D01*
Y-52893D01*
X-39468Y-52851D01*
X-38496Y-51879D01*
X-38107Y-52040D01*
X-36893D01*
X-35772Y-51576D01*
X-34914Y-50718D01*
X-34450Y-49597D01*
Y-48383D01*
X-34914Y-47262D01*
X-35772Y-46404D01*
X-36893Y-45940D01*
X-38107D01*
X-39228Y-46404D01*
X-40086Y-47262D01*
X-40125Y-47358D01*
X-42334D01*
X-44468Y-45223D01*
X-43982Y-44050D01*
X-43770D01*
Y-33510D01*
X-41230D01*
Y-44050D01*
D02*
G37*
%LPC*%
G36*
X-47770Y132230D02*
X-53540D01*
Y127460D01*
X-47770D01*
Y132230D01*
D02*
G37*
G36*
X-58574Y130810D02*
X-64770D01*
Y124614D01*
X-63130Y125054D01*
X-61410Y126046D01*
X-60006Y127450D01*
X-59014Y129170D01*
X-58574Y130810D01*
D02*
G37*
G36*
X-67310D02*
X-73506D01*
X-73066Y129170D01*
X-72073Y127450D01*
X-70670Y126046D01*
X-68950Y125054D01*
X-67310Y124614D01*
Y130810D01*
D02*
G37*
G36*
X-97100Y98350D02*
X-101470D01*
Y93980D01*
X-97100D01*
Y98350D01*
D02*
G37*
G36*
X-42500Y96000D02*
X-59500D01*
Y81000D01*
X-56462D01*
Y79100D01*
X-57100D01*
Y78039D01*
X-58000D01*
X-58780Y77884D01*
X-59442Y77442D01*
X-65022Y71862D01*
X-65464Y71200D01*
X-65619Y70420D01*
Y68742D01*
X-66979Y68179D01*
X-68667Y66491D01*
X-69580Y64286D01*
Y61899D01*
X-68667Y59693D01*
X-66979Y58006D01*
X-64774Y57092D01*
X-62386D01*
X-60181Y58006D01*
X-58493Y59693D01*
X-57580Y61899D01*
Y62360D01*
X-54770D01*
Y67500D01*
X-52230D01*
Y62360D01*
X-48360D01*
Y65660D01*
X-46970D01*
Y70000D01*
X-45700D01*
Y71270D01*
X-41560D01*
Y74340D01*
X-41560Y74340D01*
X-41560D01*
X-41010Y75379D01*
X-40119Y76271D01*
X-39772Y76414D01*
X-38914Y77272D01*
X-38450Y78393D01*
Y79607D01*
X-38914Y80728D01*
X-39772Y81586D01*
X-40893Y82050D01*
X-42107D01*
X-42500Y82313D01*
Y96000D01*
D02*
G37*
G36*
X-111044Y103651D02*
X-112436D01*
X-113723Y103119D01*
X-114707Y102134D01*
X-115240Y100848D01*
Y99455D01*
X-114707Y98169D01*
X-114702Y98164D01*
Y96810D01*
X-115840D01*
Y88610D01*
X-114722D01*
Y85034D01*
X-114780D01*
Y74034D01*
X-113576D01*
Y71534D01*
X-113440Y70847D01*
X-113050Y70264D01*
X-111050Y68264D01*
X-110468Y67874D01*
X-109780Y67738D01*
X-100611D01*
X-99924Y67874D01*
X-99341Y68264D01*
X-97510Y70095D01*
X-97120Y70678D01*
X-96983Y71365D01*
Y74034D01*
X-95780D01*
Y85034D01*
X-100740D01*
Y86574D01*
X-99675Y87070D01*
X-97100D01*
Y91440D01*
X-102740D01*
Y92710D01*
X-104010D01*
Y98350D01*
X-107323D01*
X-108240Y99455D01*
X-108240Y99562D01*
Y100848D01*
X-108773Y102134D01*
X-109757Y103119D01*
X-111044Y103651D01*
D02*
G37*
G36*
X-71063Y64164D02*
X-75434D01*
Y59794D01*
X-71063D01*
Y64164D01*
D02*
G37*
G36*
X-108780Y63034D02*
X-114780D01*
Y52034D01*
X-108780D01*
Y63034D01*
D02*
G37*
G36*
X-7778Y18050D02*
X-11298D01*
Y14030D01*
X-7778D01*
Y18050D01*
D02*
G37*
G36*
X74270Y130466D02*
Y124270D01*
X80466D01*
X80026Y125910D01*
X79033Y127630D01*
X77630Y129033D01*
X75910Y130026D01*
X74270Y130466D01*
D02*
G37*
G36*
X71730Y130466D02*
X70090Y130026D01*
X68370Y129033D01*
X66967Y127630D01*
X65974Y125910D01*
X65534Y124270D01*
X71730D01*
Y130466D01*
D02*
G37*
G36*
X80466Y121730D02*
X74270D01*
Y115534D01*
X75910Y115974D01*
X77630Y116966D01*
X79033Y118370D01*
X80026Y120090D01*
X80466Y121730D01*
D02*
G37*
G36*
X71730D02*
X65534D01*
X65974Y120090D01*
X66967Y118370D01*
X68370Y116966D01*
X70090Y115974D01*
X71730Y115534D01*
Y121730D01*
D02*
G37*
G36*
X58140Y107640D02*
X54270D01*
Y103770D01*
X58140D01*
Y107640D01*
D02*
G37*
G36*
X51730D02*
X47860D01*
Y103770D01*
X51730D01*
Y107640D01*
D02*
G37*
G36*
X91500Y97500D02*
X76500D01*
Y80500D01*
X79538D01*
Y77227D01*
X73806Y71494D01*
X73164Y70533D01*
X72938Y69400D01*
Y67675D01*
X71800D01*
Y60215D01*
X70260D01*
Y55845D01*
X75900D01*
X81540D01*
Y60215D01*
X82645Y60613D01*
X86000D01*
Y57000D01*
X92000D01*
Y68000D01*
X86000D01*
Y66537D01*
X80319D01*
X80000Y67675D01*
D01*
X79634Y68945D01*
X84594Y73906D01*
X85237Y74866D01*
X85462Y76000D01*
Y80500D01*
X91500D01*
Y85938D01*
X97072D01*
X97077Y85933D01*
X98364Y85400D01*
X99756D01*
X101043Y85933D01*
X102027Y86917D01*
X102560Y88204D01*
Y89596D01*
X102027Y90883D01*
X101043Y91867D01*
X99756Y92400D01*
X98364D01*
X97077Y91867D01*
X97072Y91862D01*
X91500D01*
Y97500D01*
D02*
G37*
G36*
X105000Y68000D02*
X99000D01*
Y57000D01*
X105000D01*
Y68000D01*
D02*
G37*
G36*
X81540Y53305D02*
X77170D01*
Y48935D01*
X81540D01*
Y53305D01*
D02*
G37*
G36*
X74630D02*
X70260D01*
Y48935D01*
X74630D01*
Y53305D01*
D02*
G37*
G36*
X81590Y47490D02*
X77220D01*
Y43120D01*
X81590D01*
Y47490D01*
D02*
G37*
G36*
X74680D02*
X70310D01*
Y43120D01*
X74680D01*
Y47490D01*
D02*
G37*
G36*
X-68960Y-45470D02*
X-82230D01*
Y-58740D01*
X-68960D01*
Y-45470D01*
D02*
G37*
G36*
X82230Y-61280D02*
X68960D01*
Y-74550D01*
X82230D01*
Y-61280D01*
D02*
G37*
G36*
X-68960Y-61280D02*
X-82230D01*
Y-74550D01*
X-68960D01*
Y-61280D01*
D02*
G37*
G36*
X-84770D02*
X-98040D01*
Y-74550D01*
X-84770D01*
Y-61280D01*
D02*
G37*
G36*
X-55000Y-63779D02*
X-57904Y-64161D01*
X-60610Y-65282D01*
X-62934Y-67066D01*
X-64718Y-69390D01*
X-65839Y-72096D01*
X-66221Y-75000D01*
X-65839Y-77904D01*
X-64718Y-80611D01*
X-62934Y-82934D01*
X-60610Y-84718D01*
X-57904Y-85839D01*
X-55000Y-86221D01*
X-52096Y-85839D01*
X-49390Y-84718D01*
X-47066Y-82934D01*
X-45282Y-80611D01*
X-44161Y-77904D01*
X-43779Y-75000D01*
X-44161Y-72096D01*
X-45282Y-69390D01*
X-47066Y-67066D01*
X-49390Y-65282D01*
X-52096Y-64161D01*
X-55000Y-63779D01*
D02*
G37*
%LPD*%
D11*
X-32714Y1386D02*
X-27879D01*
X-34100Y0D02*
X-32714Y1386D01*
X-27879D02*
X-27478Y1788D01*
X-32500Y-1600D02*
X-29326D01*
X-28046Y-2880D02*
X-27478D01*
X-34100Y0D02*
X-32500Y-1600D01*
X-29326D02*
X-28046Y-2880D01*
X-104396Y91053D02*
X-102740Y92710D01*
X-105280Y86236D02*
X-104396Y87120D01*
Y91053D01*
X-105280Y79534D02*
Y86236D01*
X-22500Y-13000D02*
Y-6475D01*
X-63580Y61899D02*
Y70420D01*
X-58000Y76000D01*
X-22500Y-33510D02*
Y-13000D01*
X-97536Y37840D02*
X-96786Y38590D01*
X-99898Y37840D02*
X-97536D01*
X-100898Y36840D02*
X-99898Y37840D01*
X-101466Y36840D02*
X-100898D01*
X-106529Y34208D02*
X-104298Y36438D01*
X-101868D01*
X-101466Y36840D01*
X-11250Y119500D02*
X-9500D01*
X-12000D02*
X-11250D01*
Y122600D01*
Y115750D02*
Y119500D01*
X-12000Y115000D02*
X-11250Y115750D01*
X-10850Y123000D02*
X-10500D01*
X-11250Y122600D02*
X-10850Y123000D01*
X11200Y124600D02*
X11828D01*
X13648Y126420D02*
Y128098D01*
X8500Y123000D02*
X9600D01*
X11200Y124600D01*
X11828D02*
X13648Y126420D01*
Y128098D02*
X14050Y128500D01*
X-3000Y123500D02*
X-1000Y125500D01*
X51400Y95598D02*
X53000Y93998D01*
X48000Y96000D02*
X48402Y95598D01*
X53000Y93500D02*
Y93998D01*
X48402Y95598D02*
X51400D01*
X65000Y89000D02*
X67000Y91000D01*
Y102000D02*
X73000Y108000D01*
X67000Y91000D02*
Y102000D01*
X-58000Y76000D02*
X-54000D01*
X-53500Y75500D01*
X45000Y121500D02*
Y128500D01*
X36000Y116000D02*
Y125000D01*
X39250Y112750D02*
X44750D01*
X36000Y116000D02*
X39250Y112750D01*
X44750D02*
X45000Y112500D01*
X36000Y136000D02*
X37500Y137500D01*
X45000D01*
X-22500Y-6475D02*
Y-4716D01*
X-9250Y119750D02*
Y121500D01*
X-9500Y119500D02*
X-9250Y119750D01*
X-14275Y119500D02*
X-12000D01*
X60000Y83500D02*
Y94000D01*
X53000Y94500D02*
X59500D01*
X60000Y94000D01*
X-22500Y-6475D02*
X-22500Y-6475D01*
X-17500Y-13000D02*
Y-4650D01*
Y-14825D02*
X-17500Y-14825D01*
Y-33510D02*
Y-14825D01*
X-17500Y-14825D02*
Y-13000D01*
D14*
X-90436Y44590D02*
D03*
Y38590D02*
D03*
X-96786Y44590D02*
D03*
Y38590D02*
D03*
X-112559Y34208D02*
D03*
Y28208D02*
D03*
X-106529D02*
D03*
Y34208D02*
D03*
D15*
X-74837Y3400D02*
D03*
X-68337Y3400D02*
D03*
X-55337D02*
D03*
X-61837Y3400D02*
D03*
X-74837Y47400D02*
D03*
X-68337D02*
D03*
X-61837D02*
D03*
D16*
X-55337D02*
D03*
D17*
X-42100Y0D02*
D03*
X-34100D02*
D03*
X-4000Y115000D02*
D03*
X-12000D02*
D03*
D18*
X-35074Y21430D02*
D03*
Y30430D02*
D03*
X45000Y112500D02*
D03*
Y121500D02*
D03*
Y137500D02*
D03*
Y128500D02*
D03*
D19*
X-106736Y46340D02*
D03*
X-112736D02*
D03*
X-106736Y40340D02*
D03*
X-112736D02*
D03*
D21*
X-10500Y138000D02*
D03*
Y133000D02*
D03*
Y128000D02*
D03*
Y123000D02*
D03*
X8500Y138000D02*
D03*
Y133000D02*
D03*
Y128000D02*
D03*
Y123000D02*
D03*
D22*
X-1000Y130500D02*
D03*
D23*
X36000Y136000D02*
D03*
X22000D02*
D03*
X36000Y125000D02*
D03*
X22000D02*
D03*
D24*
X-21568Y12760D02*
D03*
X-12568D02*
D03*
X4000Y115000D02*
D03*
X13000D02*
D03*
D25*
X-28500Y116500D02*
D03*
Y136500D02*
D03*
D26*
X-80010Y78970D02*
D03*
Y97970D02*
D03*
X-51000Y107500D02*
D03*
Y88500D02*
D03*
D27*
X84000Y89000D02*
D03*
X65000D02*
D03*
D28*
X-2500Y-13000D02*
D03*
X-7500D02*
D03*
X-17500D02*
D03*
X-22500D02*
D03*
Y-4650D02*
D03*
X-17500D02*
D03*
X-7500D02*
D03*
X-2500D02*
D03*
X27500Y-13000D02*
D03*
X22500D02*
D03*
X12500D02*
D03*
X7500D02*
D03*
Y-4650D02*
D03*
X12500D02*
D03*
X22500D02*
D03*
X27500D02*
D03*
X57500Y-13000D02*
D03*
X52500D02*
D03*
X42500D02*
D03*
X37500D02*
D03*
Y-4650D02*
D03*
X42500D02*
D03*
X52500D02*
D03*
X57500D02*
D03*
D29*
X-12500Y-13000D02*
D03*
Y-4650D02*
D03*
X17500Y-13000D02*
D03*
Y-4650D02*
D03*
X47500Y-13000D02*
D03*
Y-4650D02*
D03*
D30*
X-76704Y65434D02*
D03*
X-85703D02*
D03*
X-102740Y92710D02*
D03*
X-111740D02*
D03*
D31*
X75900Y54575D02*
D03*
Y63575D02*
D03*
X75950Y41850D02*
D03*
Y32850D02*
D03*
D32*
X-46500Y119500D02*
D03*
Y133500D02*
D03*
D33*
X-65500Y105500D02*
D03*
Y97500D02*
D03*
X53000Y102500D02*
D03*
Y94500D02*
D03*
X-53500Y67500D02*
D03*
Y75500D02*
D03*
D34*
X-45700Y75600D02*
D03*
Y70000D02*
D03*
D35*
X-52500Y-33510D02*
D03*
X-7500D02*
D03*
X-2500D02*
D03*
X7500D02*
D03*
X12500D02*
D03*
X-17500D02*
D03*
X37500D02*
D03*
X42500D02*
D03*
X52500D02*
D03*
X57500D02*
D03*
X22500D02*
D03*
X27500D02*
D03*
X2500D02*
D03*
X62500D02*
D03*
X47500D02*
D03*
X-62500D02*
D03*
X-57500D02*
D03*
X-47500D02*
D03*
X-42500D02*
D03*
X-37500D02*
D03*
X-32500D02*
D03*
X-27500D02*
D03*
X-22500D02*
D03*
X-12500D02*
D03*
X17500D02*
D03*
X32500D02*
D03*
D36*
X83500Y-60010D02*
D03*
D37*
X-83500D02*
D03*
D48*
X75950Y22578D02*
D03*
X91327Y22000D02*
D03*
X-43180Y57150D02*
D03*
X-66040Y132080D02*
D03*
X73000Y123000D02*
D03*
X-78424Y114000D02*
D03*
X73000Y108000D02*
D03*
X-63580Y63092D02*
D03*
X-19604Y23899D02*
D03*
X-31500Y12392D02*
D03*
X-36830Y-11430D02*
D03*
X-65116Y-13894D02*
D03*
X109250Y-74250D02*
D03*
X-55000Y-75000D02*
D03*
D67*
X-3315Y79798D02*
X-800Y80839D01*
X241Y83354D01*
X-11368Y79798D02*
X-12320Y78846D01*
Y76942D02*
X-11368Y75990D01*
X3400Y72752D02*
X2452Y75041D01*
X162Y75990D01*
Y67610D02*
X2452Y68558D01*
X3400Y70848D01*
X-11368Y67610D02*
X-12320Y66658D01*
Y64754D02*
X-11368Y63802D01*
X241Y60246D02*
X-800Y62760D01*
X-3315Y63802D01*
Y82084D02*
X-2045Y83354D01*
X-11368Y82084D02*
X-13658Y81135D01*
X-14606Y78846D01*
Y76942D02*
X-13658Y74652D01*
X-11368Y73704D01*
X1114Y72752D02*
X162Y73704D01*
Y69896D02*
X1114Y70848D01*
X-11368Y69896D02*
X-13658Y68947D01*
X-14606Y66658D01*
Y64754D02*
X-13658Y62464D01*
X-11368Y61516D01*
X-2045Y60246D02*
X-3315Y61516D01*
X13770Y63280D02*
X11256Y62238D01*
X10214Y59724D01*
X31810Y63280D02*
X32826Y64296D01*
Y66326D02*
X31810Y67342D01*
X10021Y70644D02*
X10988Y68309D01*
X13322Y67342D01*
Y75976D02*
X10988Y75009D01*
X10021Y72674D01*
X31810Y75976D02*
X32826Y76992D01*
Y79022D02*
X31810Y80038D01*
X10214Y83594D02*
X11256Y81080D01*
X13770Y80038D01*
Y60994D02*
X12500Y59724D01*
X31810Y60994D02*
X34144Y61961D01*
X35111Y64296D01*
Y66326D02*
X34144Y68661D01*
X31810Y69628D01*
X12307Y70644D02*
X13322Y69628D01*
Y73690D02*
X12307Y72674D01*
X31810Y73690D02*
X34144Y74657D01*
X35111Y76992D01*
Y79022D02*
X34144Y81357D01*
X31810Y82324D01*
X12500Y83594D02*
X13770Y82324D01*
X36056Y93444D02*
X34260D01*
X31879Y92230D02*
X33045Y92230D01*
X30712Y94564D02*
Y93397D01*
X31926Y95778D02*
X31926Y97574D01*
X-22556Y82342D02*
X-21286Y83612D01*
X-22758Y82342D02*
X-24015Y81084D01*
Y80805D02*
X-22758Y79548D01*
X-21286Y78291D02*
X-22543Y79548D01*
Y76754D02*
X-21286Y78011D01*
X-22758Y76754D02*
X-24015Y75497D01*
Y75217D02*
X-22758Y73960D01*
X-21286Y72702D02*
X-22543Y73960D01*
Y71166D02*
X-21286Y72423D01*
X-22758Y71166D02*
X-24015Y69908D01*
Y69629D02*
X-22758Y68372D01*
X-21286Y67115D02*
X-22543Y68372D01*
Y65578D02*
X-21286Y66835D01*
X-22758Y65578D02*
X-24015Y64321D01*
Y64041D02*
X-22758Y62784D01*
X-21286Y61514D02*
X-22556Y62784D01*
X43048Y15745D02*
X40953Y15183D01*
X39418Y13649D01*
X38857Y11554D01*
X43048Y15745D02*
X44953Y17650D01*
Y17650D02*
X43048Y19555D01*
X37854Y21413D02*
X39913Y20038D01*
X42341Y19555D01*
X37854Y21413D02*
X37854Y21413D01*
X37850Y21417D02*
X37854Y21413D01*
X43048Y13459D02*
X41143Y11554D01*
X43048Y13459D02*
X45143Y14020D01*
X46677Y15554D01*
X47239Y17650D01*
Y17650D02*
X46677Y19745D01*
X45143Y21279D01*
X43048Y21841D01*
X39471Y23029D02*
X42341Y21841D01*
X39471Y23029D02*
X39466Y23034D01*
X-33847Y67067D02*
X-32578Y68337D01*
X-34753Y67067D02*
X-36023Y65797D01*
X-34753Y64527D01*
X-32578Y63257D02*
X-33847Y64527D01*
X8944Y44705D02*
X10214Y45975D01*
X8477Y44705D02*
X7652Y43880D01*
Y42230D02*
X8477Y41405D01*
X10214Y40135D02*
X8944Y41405D01*
X-3315Y48205D02*
X-2045Y49475D01*
X-4756Y48205D02*
X-5581Y47380D01*
Y45730D02*
X-4756Y44905D01*
X-2045Y43635D02*
X-3315Y44905D01*
X241Y83354D02*
Y96005D01*
X-11368Y79798D02*
X-3315D01*
X-12320Y76942D02*
Y78846D01*
X-11368Y75990D02*
X162D01*
X3400Y70848D02*
Y72752D01*
X-11368Y67610D02*
X162D01*
X-12320Y64754D02*
Y66658D01*
X-11368Y63802D02*
X-3315D01*
X241Y58467D02*
Y60246D01*
X-2450Y96005D02*
X-2045Y95601D01*
Y83354D02*
Y95601D01*
X-11368Y82084D02*
X-3315D01*
X-14606Y76942D02*
Y78846D01*
X-11368Y73704D02*
X162D01*
X1114Y70848D02*
Y72752D01*
X-11368Y69896D02*
X162D01*
X-14606Y64754D02*
Y66658D01*
X-11368Y61516D02*
X-3315D01*
X-2045Y58467D02*
Y60246D01*
X10214Y53500D02*
Y59724D01*
X13770Y63280D02*
X31810D01*
X32826Y64296D02*
Y66326D01*
X13322Y67342D02*
X31810D01*
X10021Y70644D02*
Y72674D01*
X13322Y75976D02*
X31810D01*
X32826Y76992D02*
Y79022D01*
X13770Y80038D02*
X31810D01*
X10214Y83594D02*
Y85372D01*
X12500Y53500D02*
Y59724D01*
X13770Y60994D02*
X31810D01*
X35111Y64296D02*
Y66326D01*
X13322Y69628D02*
X31810D01*
X12307Y70644D02*
Y72674D01*
X13322Y73690D02*
X31810D01*
X35111Y76992D02*
Y79022D01*
X13770Y82324D02*
X31810D01*
X12500Y83594D02*
Y85372D01*
X37352Y92148D02*
X37801Y91699D01*
X36056Y93444D02*
X37352Y92148D01*
X36056Y93444D02*
X36056Y93444D01*
X33045Y92230D02*
X34260Y93444D01*
X30712Y93397D02*
X31879Y92230D01*
X30712Y94564D02*
X31926Y95778D01*
X31603Y97897D02*
X31926Y97574D01*
X27897Y97897D02*
X31603D01*
X37801Y91699D02*
X44000Y85500D01*
X20159Y97897D02*
X27897D01*
X20159Y100183D02*
X32550D01*
X44000Y66162D02*
Y85500D01*
X32550Y100183D02*
X46286Y86447D01*
Y67109D02*
Y86447D01*
X241Y41008D02*
Y58467D01*
X-2045Y52000D02*
Y58467D01*
X-21286Y85714D02*
X-20721Y86279D01*
X-21286Y83612D02*
Y85714D01*
X-22758Y82342D02*
X-22556D01*
X-24015Y80805D02*
Y81084D01*
X-22758Y79548D02*
X-22543D01*
X-21286Y78011D02*
Y78291D01*
X-22758Y76754D02*
X-22543D01*
X-24015Y75217D02*
Y75497D01*
X-22758Y73960D02*
X-22543D01*
X-21286Y72423D02*
Y72702D01*
X-22758Y71166D02*
X-22543D01*
X-24015Y69629D02*
Y69908D01*
X-22758Y68372D02*
X-22543D01*
X-21286Y66835D02*
Y67115D01*
X-22758Y65578D02*
X-22543D01*
X-24015Y64041D02*
Y64321D01*
X-22758Y62784D02*
X-22556D01*
X-21286Y60879D02*
Y61514D01*
X-20721Y86279D02*
X-17971Y89029D01*
X-21286Y59276D02*
Y60879D01*
X38857Y2457D02*
Y11554D01*
X43048Y15745D02*
X43048D01*
X44953Y17650D02*
Y17650D01*
X42341Y19555D02*
X43048D01*
X35267Y24000D02*
X37850Y21417D01*
X41143Y2457D02*
Y11554D01*
X43048Y13459D02*
X43048D01*
X47239Y17650D02*
Y17650D01*
X42341Y21841D02*
X43048D01*
X38500Y24000D02*
X39466Y23034D01*
X38500Y24000D02*
X38500Y24000D01*
X38857Y-1716D02*
Y2457D01*
X27500Y31767D02*
X35267Y24000D01*
X41143Y-1716D02*
Y2457D01*
X29786Y32714D02*
X38500Y24000D01*
X-32578Y75223D02*
Y93393D01*
Y68337D02*
Y75223D01*
X-34753Y67067D02*
X-33847D01*
X-34753Y64527D02*
X-33847D01*
X-32578Y62622D02*
Y63257D01*
Y44355D02*
Y62622D01*
X56143Y-1716D02*
Y28857D01*
X43553Y32714D02*
X49053D01*
X53857Y27910D01*
Y-1716D02*
Y27910D01*
X50000Y35000D02*
X56143Y28857D01*
X44500Y35000D02*
X50000D01*
X41500Y40000D02*
X42027Y39473D01*
X37894Y36394D02*
X38431Y35857D01*
X40410D01*
X42027Y37473D02*
X44500Y35000D01*
X42027Y37473D02*
Y39473D01*
X40410Y35857D02*
X43553Y32714D01*
X-19500Y92790D02*
X-17971Y91261D01*
Y89029D02*
Y91261D01*
X-19500Y92790D02*
Y93420D01*
X-19000Y84767D02*
X-15685Y88082D01*
X-34000Y94816D02*
Y95553D01*
X-33844Y101632D02*
X-30292Y98080D01*
Y45302D02*
Y98080D01*
X-34000Y94816D02*
X-32578Y93393D01*
X-15685Y88082D02*
Y96451D01*
X-18734Y99500D02*
X-15685Y96451D01*
X-19500Y99500D02*
X-18734D01*
X-12925Y56138D02*
X-12394Y55606D01*
X-14915Y56138D02*
X-12925D01*
X-19000Y60223D02*
Y84767D01*
Y60223D02*
X-14915Y56138D01*
X-34000Y101632D02*
X-33844D01*
X46286Y67109D02*
X52593Y60802D01*
X50307Y54159D02*
Y59855D01*
X44000Y66162D02*
X50307Y59855D01*
X52593Y54159D02*
Y60802D01*
X18000Y102580D02*
X18156D01*
X52593Y54159D02*
X54000Y52752D01*
Y52000D02*
Y52752D01*
X18000Y102080D02*
X18262D01*
X20159Y100183D01*
X-2500Y2734D02*
Y3500D01*
X-3857Y1377D02*
X-2500Y2734D01*
X-3113Y-2460D02*
X-2865D01*
X-3857Y-1716D02*
X-3113Y-2460D01*
X-2865D02*
X-2500Y-2825D01*
X-3857Y-1716D02*
Y1377D01*
X-2500Y-4650D02*
Y-2825D01*
Y-6475D02*
Y-4650D01*
X-3113Y-6840D02*
X-2865D01*
X-2500Y-6475D01*
Y-13000D02*
Y-11175D01*
X-2865Y-10810D02*
X-2500Y-11175D01*
Y-14825D02*
Y-13000D01*
X-2865Y-15190D02*
X-2500Y-14825D01*
X-2500Y-33510D02*
Y-27010D01*
X-3857Y-25653D02*
X-2500Y-27010D01*
X-3113Y-10810D02*
X-2865D01*
X-3857Y-10066D02*
X-3113Y-10810D01*
X-3857Y-15934D02*
X-3113Y-15190D01*
X-3857Y-7584D02*
X-3113Y-6840D01*
X-3857Y-10066D02*
Y-7584D01*
X-3113Y-15190D02*
X-2865D01*
X-3857Y-25653D02*
Y-22108D01*
X-3857Y-22108D02*
Y-15934D01*
Y-22108D02*
X-3857Y-22108D01*
X48900Y52752D02*
X50307Y54159D01*
X18262Y96000D02*
X20159Y97897D01*
X18000Y96000D02*
X18262D01*
X48900Y52000D02*
Y52752D01*
X-6143Y-1716D02*
Y1291D01*
X-6887Y-2460D02*
X-6143Y-1716D01*
X-7600Y2748D02*
X-6143Y1291D01*
X-7600Y2748D02*
Y3500D01*
X-7500Y-2825D02*
X-7135Y-2460D01*
X-6887D01*
X-7500Y-6475D02*
X-7135Y-6840D01*
X-7500Y-4650D02*
Y-2825D01*
Y-6475D02*
Y-4650D01*
X-6887Y-10810D02*
X-6143Y-10066D01*
Y-7584D01*
X-6887Y-15190D02*
X-6143Y-15934D01*
X-6887Y-6840D02*
X-6143Y-7584D01*
Y-23055D02*
X-6143Y-23055D01*
X-6143Y-23055D02*
Y-15934D01*
X-6143Y-25653D02*
Y-23055D01*
X-7500Y-27010D02*
X-6143Y-25653D01*
X-7135Y-10810D02*
X-6887D01*
X-7135Y-6840D02*
X-6887D01*
X-7500Y-13000D02*
Y-11175D01*
X-7135Y-10810D01*
Y-15190D02*
X-6887D01*
X-7500Y-33510D02*
Y-27010D01*
X-7500Y-14825D02*
Y-13000D01*
Y-14825D02*
X-7135Y-15190D01*
X27500Y31767D02*
Y47183D01*
X29786Y32714D02*
Y48130D01*
X10214Y45975D02*
Y51500D01*
X8477Y44705D02*
X8944D01*
X7652Y42230D02*
Y43880D01*
X8477Y41405D02*
X8944D01*
X10214Y39500D02*
Y40135D01*
Y51500D02*
Y53500D01*
Y37447D02*
Y39500D01*
X7000Y95392D02*
X10214Y92177D01*
Y85372D02*
Y92177D01*
X12500Y36500D02*
Y53500D01*
Y-6475D02*
Y-4650D01*
X8857Y-10066D02*
Y-7584D01*
X8113Y-15190D02*
X8857Y-15934D01*
X8113Y-10810D02*
X8857Y-10066D01*
Y-22108D02*
Y-15934D01*
X8857Y-25653D02*
Y-22108D01*
X8857Y-22108D01*
X7500Y-6475D02*
Y-4650D01*
Y-6475D02*
X7865Y-6840D01*
X7000Y95392D02*
Y96000D01*
X8113Y-6840D02*
X8857Y-7584D01*
X7865Y-10810D02*
X8113D01*
X7865Y-15190D02*
X8113D01*
X7500Y-27010D02*
X8857Y-25653D01*
X7865Y-6840D02*
X8113D01*
X7500Y-13000D02*
Y-11175D01*
X7865Y-10810D01*
X7500Y-14825D02*
Y-13000D01*
Y-14825D02*
X7865Y-15190D01*
X7500Y-33510D02*
Y-27010D01*
X12500Y85372D02*
Y96736D01*
X12135Y-15190D02*
X12500Y-14825D01*
X12135Y-6840D02*
X12500Y-6475D01*
Y-13000D02*
Y-11175D01*
Y-14825D02*
Y-13000D01*
X12500Y-33510D02*
Y-27010D01*
X7156Y102080D02*
X12500Y96736D01*
X11887Y-6840D02*
X12135D01*
X11143Y-10066D02*
Y-7584D01*
X11887Y-6840D01*
X7000Y102080D02*
X7156D01*
X11887Y-10810D02*
X12135D01*
X12500Y-11175D01*
X11887Y-15190D02*
X12135D01*
X11143Y-25653D02*
X12500Y-27010D01*
X11143Y-15934D02*
X11887Y-15190D01*
X11143Y-23055D02*
Y-15934D01*
Y-10066D02*
X11887Y-10810D01*
X11143Y-25653D02*
Y-23055D01*
X11143Y-23055D01*
Y35143D02*
X12500Y36500D01*
X11143Y-1716D02*
Y35143D01*
Y-1716D02*
X11887Y-2460D01*
X7500Y-2825D02*
X7865Y-2460D01*
X8113D02*
X8857Y-1716D01*
Y36090D01*
X10214Y37447D01*
X7500Y-4650D02*
Y-2825D01*
X12500Y36500D02*
X12500D01*
X7865Y-2460D02*
X8113D01*
X12135D02*
X12500Y-2825D01*
Y-4650D02*
Y-2825D01*
X11887Y-2460D02*
X12135D01*
X-21286Y59276D02*
X-16532Y54521D01*
X-2045Y49475D02*
Y52000D01*
X-4756Y48205D02*
X-3315D01*
X-5581Y45730D02*
Y47380D01*
X-4756Y44905D02*
X-3315D01*
X-2045Y43000D02*
Y43635D01*
Y41955D02*
Y43000D01*
X-16532Y52532D02*
X-16000Y52000D01*
X-16532Y52532D02*
Y54521D01*
X241Y96005D02*
Y96548D01*
X-2789Y96345D02*
X-2450Y96005D01*
X25376Y49307D02*
X27500Y47183D01*
X22659Y49307D02*
X25376D01*
X38113Y-6840D02*
X38857Y-7584D01*
X38113Y-2460D02*
X38857Y-1716D01*
Y-10066D02*
Y-7584D01*
X38113Y-10810D02*
X38857Y-10066D01*
X37865Y-10810D02*
X38113D01*
X37865Y-2460D02*
X38113D01*
X37500Y-4650D02*
Y-2825D01*
X37865Y-2460D01*
X37500Y-6475D02*
X37865Y-6840D01*
X38113D01*
X37500Y-6475D02*
Y-4650D01*
X38857Y-22108D02*
Y-15934D01*
X38857Y-22108D02*
X38857Y-22108D01*
X38113Y-15190D02*
X38857Y-15934D01*
X38857Y-25653D02*
Y-22108D01*
X37500Y-27010D02*
X38857Y-25653D01*
X37500Y-13000D02*
Y-11175D01*
Y-14825D02*
Y-13000D01*
Y-11175D02*
X37865Y-10810D01*
X37500Y-14825D02*
X37865Y-15190D01*
X38113D01*
X37500Y-33510D02*
Y-27010D01*
X21252Y47900D02*
X22659Y49307D01*
X20500Y47900D02*
X21252D01*
X26323Y51593D02*
X29786Y48130D01*
X22659Y51593D02*
X26323D01*
X42500Y-4650D02*
Y-2825D01*
Y-6475D02*
Y-4650D01*
X42135Y-2460D02*
X42500Y-2825D01*
X42135Y-6840D02*
X42500Y-6475D01*
X41887Y-10810D02*
X42135D01*
X41887Y-6840D02*
X42135D01*
X41143Y-1716D02*
X41887Y-2460D01*
X42135D01*
X41143Y-10066D02*
Y-7584D01*
Y-10066D02*
X41887Y-10810D01*
X41143Y-7584D02*
X41887Y-6840D01*
X42500Y-13000D02*
Y-11175D01*
Y-14825D02*
Y-13000D01*
X42135Y-10810D02*
X42500Y-11175D01*
X42135Y-15190D02*
X42500Y-14825D01*
X42500Y-33510D02*
Y-27010D01*
X41887Y-15190D02*
X42135D01*
X41143Y-23055D02*
Y-15934D01*
X41887Y-15190D01*
X41143Y-25653D02*
Y-23055D01*
Y-25653D02*
X42500Y-27010D01*
X41143Y-23055D02*
X41143Y-23055D01*
X21252Y53000D02*
X22659Y51593D01*
X20500Y53000D02*
X21252D01*
X27508Y4583D02*
Y18733D01*
X23781Y25693D02*
X29794Y19680D01*
X20659Y23407D02*
X22834D01*
X27508Y18733D01*
X20659Y25693D02*
X23781D01*
X29794Y3636D02*
Y19680D01*
X18500Y22000D02*
X19252D01*
X20659Y23407D01*
X-7078Y36923D02*
X-2045Y41955D01*
X-5138Y25425D02*
Y27415D01*
Y25425D02*
X-4606Y24894D01*
X-7078Y29355D02*
Y36923D01*
Y29355D02*
X-5138Y27415D01*
X23857Y932D02*
X27508Y4583D01*
X23857Y-1716D02*
Y932D01*
X22500Y-4650D02*
Y-2825D01*
Y-6475D02*
Y-4650D01*
X23113Y-2460D02*
X23857Y-1716D01*
X22865Y-2460D02*
X23113D01*
X22500Y-2825D02*
X22865Y-2460D01*
X22500Y-6475D02*
X22865Y-6840D01*
X23113D01*
X23857Y-10066D02*
Y-7584D01*
X23113Y-15190D02*
X23857Y-15934D01*
X23113Y-6840D02*
X23857Y-7584D01*
X23113Y-10810D02*
X23857Y-10066D01*
Y-22108D02*
Y-15934D01*
X23857Y-25653D02*
Y-22108D01*
X23857Y-22108D01*
X22500Y-27010D02*
X23857Y-25653D01*
X22865Y-10810D02*
X23113D01*
X22500Y-14825D02*
Y-13000D01*
Y-11175D02*
X22865Y-10810D01*
X22500Y-13000D02*
Y-11175D01*
Y-14825D02*
X22865Y-15190D01*
X23113D01*
X22500Y-33510D02*
Y-27010D01*
X-5655Y96345D02*
X-2789D01*
X-6000Y96000D02*
X-5655Y96345D01*
X18500Y27100D02*
X19252D01*
X20659Y25693D01*
X-4791Y30302D02*
X-3521Y29032D01*
X-1532D01*
X-4791Y35976D02*
X241Y41008D01*
X-4791Y30302D02*
Y35976D01*
X-1532Y29032D02*
X-1000Y28500D01*
X26214Y56D02*
X29794Y3636D01*
X26214Y-1787D02*
Y56D01*
X27500Y-4650D02*
Y-3494D01*
Y-6475D02*
Y-4650D01*
X26214Y-1787D02*
X27500Y-3494D01*
X27135Y-6840D02*
X27500Y-6475D01*
X26887Y-6840D02*
X27135D01*
X26143Y-7584D02*
X26887Y-6840D01*
X27500Y-13000D02*
Y-11175D01*
Y-14825D02*
Y-13000D01*
X27135Y-10810D02*
X27500Y-11175D01*
X27135Y-15190D02*
X27500Y-14825D01*
X27500Y-33510D02*
Y-27010D01*
X26143Y-25653D02*
X27500Y-27010D01*
X26887Y-10810D02*
X27135D01*
X26143Y-15934D02*
X26887Y-15190D01*
X26143Y-10066D02*
Y-7584D01*
Y-10066D02*
X26887Y-10810D01*
Y-15190D02*
X27135D01*
X26143Y-23055D02*
Y-15934D01*
X26143Y-23055D02*
X26143Y-23055D01*
X26143Y-25653D02*
Y-23055D01*
X-1842Y98631D02*
X241Y96548D01*
X-6000Y102080D02*
X-2551Y98631D01*
X-1842D01*
X57500Y-6475D02*
Y-4650D01*
Y-2825D01*
X52500Y-6475D02*
Y-4650D01*
Y-2825D01*
X57135Y-2460D02*
X57500Y-2825D01*
X57135Y-6840D02*
X57500Y-6475D01*
X56887Y-10810D02*
X57135D01*
X56887Y-6840D02*
X57135D01*
X56143Y-1716D02*
X56887Y-2460D01*
X57135D01*
X56143Y-10066D02*
Y-7584D01*
Y-10066D02*
X56887Y-10810D01*
X56143Y-7584D02*
X56887Y-6840D01*
X57135Y-10810D02*
X57500Y-11175D01*
Y-13000D02*
Y-11175D01*
Y-14825D02*
Y-13000D01*
X57500Y-33510D02*
Y-27010D01*
X57135Y-15190D02*
X57500Y-14825D01*
X56887Y-15190D02*
X57135D01*
X56143Y-23055D02*
Y-15934D01*
X56887Y-15190D01*
X56143Y-25653D02*
Y-23055D01*
Y-25653D02*
X57500Y-27010D01*
X56143Y-23055D02*
X56143Y-23055D01*
X-30292Y45302D02*
X-29021Y44032D01*
X-27032D02*
X-26500Y43500D01*
X-29021Y44032D02*
X-27032D01*
X53113Y-2460D02*
X53857Y-1716D01*
Y-10066D02*
Y-7584D01*
X53113Y-10810D02*
X53857Y-10066D01*
X53113Y-6840D02*
X53857Y-7584D01*
X52865Y-2460D02*
X53113D01*
X52500Y-2825D02*
X52865Y-2460D01*
Y-6840D02*
X53113D01*
X52865Y-10810D02*
X53113D01*
X52500Y-6475D02*
X52865Y-6840D01*
X53113Y-15190D02*
X53857Y-15934D01*
Y-22108D02*
Y-15934D01*
X53857Y-22108D02*
X53857Y-22108D01*
X53857Y-25653D02*
Y-22108D01*
X52500Y-27010D02*
X53857Y-25653D01*
X52500Y-13000D02*
Y-11175D01*
Y-14825D02*
Y-13000D01*
Y-11175D02*
X52865Y-10810D01*
X52500Y-14825D02*
X52865Y-15190D01*
X53113D01*
X52500Y-33510D02*
Y-27010D01*
X-30638Y40425D02*
Y42415D01*
X-32578Y44355D02*
X-30638Y42415D01*
Y40425D02*
X-30106Y39894D01*
D68*
X-111780Y57534D02*
D03*
Y79534D02*
D03*
X-98780Y57534D02*
D03*
Y79534D02*
D03*
X-105280D02*
D03*
X95500Y40500D02*
D03*
X89000D02*
D03*
Y62500D02*
D03*
X102000Y40500D02*
D03*
Y62500D02*
D03*
D69*
X-98685Y58851D02*
X-92287D01*
X-98780Y57534D02*
Y58756D01*
X-98685Y58851D01*
X-92287D02*
X-85090Y66048D01*
X-57500Y-33510D02*
Y-22725D01*
X-62500Y-45922D02*
Y-22666D01*
X-42100Y0D02*
X-41965Y135D01*
Y7257D01*
X-41830Y7392D01*
X-55337Y3400D02*
X-49530D01*
X-42795Y695D02*
X-42100Y0D01*
X-46825Y695D02*
X-42795D01*
X-49530Y3400D02*
X-46825Y695D01*
X-80495Y78970D02*
X-80010D01*
X-85090Y74375D02*
X-80495Y78970D01*
X-85090Y66048D02*
Y74375D01*
X-80010Y97970D02*
X-78424Y99557D01*
Y114000D01*
X-111740Y92710D02*
Y100151D01*
X-111780Y79534D02*
X-111760Y79554D01*
Y92690D01*
X-111740Y92710D01*
X-79540Y97500D02*
X-65500D01*
X-80010Y97970D02*
X-79540Y97500D01*
X-57436Y-48736D02*
X-57380Y-48792D01*
X-57436Y-48736D02*
Y-39605D01*
X-57500Y-48911D02*
X-57445Y-48967D01*
Y-52555D02*
Y-48967D01*
X84000Y89000D02*
X84100Y88900D01*
X99060D01*
X-65556Y91461D02*
X-65500Y91517D01*
Y97500D01*
X52750Y-60000D02*
X69500Y-43250D01*
Y16002D02*
X75950Y22452D01*
X69500Y-43250D02*
Y16002D01*
X75950Y22452D02*
Y32850D01*
X-50000Y-60000D02*
X52750D01*
X-12000Y115000D02*
Y119500D01*
X-11250Y115750D02*
X-9556Y117444D01*
X-12000Y119500D02*
Y121500D01*
X13345Y115345D02*
Y119342D01*
X16408Y122405D02*
X20405D01*
X22000Y124000D01*
X13345Y119342D02*
X16408Y122405D01*
X13000Y115000D02*
X13345Y115345D01*
X22000Y124000D02*
Y136845D01*
X-46500Y118000D02*
Y119500D01*
X-57445Y-52555D02*
X-50000Y-60000D01*
X-45078Y75500D02*
X-41578Y79000D01*
X-41500D01*
X-45700Y75500D02*
X-45078D01*
X77145Y34045D02*
X87813D01*
X-9556Y117444D02*
Y119445D01*
X-9500Y119500D01*
X-12000Y115000D02*
Y115000D01*
Y121500D02*
X-12000Y121500D01*
X-14275Y119500D02*
X-14219Y119445D01*
Y117219D02*
Y119445D01*
X-12000Y115000D02*
X-12000D01*
X-14219Y117219D02*
X-12000Y115000D01*
X-46500Y112000D02*
Y118000D01*
X-45000D02*
X-30000D01*
X-46500Y119500D02*
X-45000Y118000D01*
X-30000D02*
X-28500Y116500D01*
X-53500Y75500D02*
Y86000D01*
X-51000Y88500D01*
X-53500Y75500D02*
X-45800D01*
X75900Y63575D02*
Y69400D01*
X82500Y76000D02*
Y87500D01*
X75900Y69400D02*
X82500Y76000D01*
Y87500D02*
X84000Y89000D01*
X75900Y63575D02*
X88905D01*
X9143Y138000D02*
X20155D01*
X-28500Y136500D02*
X-22500D01*
X-16499Y130499D01*
Y129998D02*
Y130499D01*
Y129998D02*
X-14500Y128000D01*
X-10500D01*
X-10500Y128000D01*
X89000Y35232D02*
Y40500D01*
X87813Y34045D02*
X89000Y35232D01*
X89095Y35327D02*
X91327Y33095D01*
X98703D01*
X101905Y36297D01*
Y40405D01*
X88905Y63575D02*
X89000Y63480D01*
Y62500D02*
Y63480D01*
X101905Y40405D02*
X102000Y40500D01*
X-48000Y110500D02*
X-46500Y112000D01*
D70*
X-97608Y49468D02*
X-81069D01*
X-106736Y40340D02*
X-97608Y49468D01*
X-79211Y39824D02*
Y47609D01*
X-81069Y49468D02*
X-79211Y47609D01*
X-111671Y27972D02*
X-61469D01*
X-58961Y30480D02*
X-58914D01*
X-61469Y27972D02*
X-58961Y30480D01*
X-58914D02*
X-55337Y34057D01*
Y47400D01*
X-76217Y36830D02*
X-70907D01*
X-79211Y39824D02*
X-76217Y36830D01*
X-70907D02*
X-68337Y39400D01*
X-90436Y38590D02*
X-86122D01*
X-81584Y34052D01*
X-64418D01*
X-61837Y36633D02*
Y47400D01*
X-64418Y34052D02*
X-61837Y36633D01*
X-68337Y39400D02*
Y47400D01*
X-46990Y25930D02*
X-31695D01*
X-29784Y24019D01*
X-19724D01*
X-96786Y44590D02*
X-92026Y39830D01*
X-91676D01*
X-90436Y38590D01*
X-21200Y6940D02*
X-17500Y3240D01*
X-21568Y12760D02*
X-21200Y12392D01*
Y6940D02*
Y12392D01*
X-21127Y13201D02*
Y16443D01*
X-21568Y12760D02*
X-21127Y13201D01*
Y16443D02*
X-19604Y17966D01*
Y23899D01*
X-42210Y17392D02*
X-36500D01*
X-31500Y12392D01*
X-32090Y11772D02*
X-22500Y2182D01*
Y-4650D02*
Y2182D01*
X-55712Y27278D02*
X-48338D01*
X-46990Y25930D01*
X-58914Y30480D02*
X-55712Y27278D01*
X-19724Y24019D02*
X-19604Y23899D01*
X-112736Y46340D02*
X-107976Y41580D01*
X-107976D01*
X-106736Y40340D01*
X-17500Y-4650D02*
Y3240D01*
X-46500Y110500D02*
X-0D01*
X-14221Y138450D02*
X-13996Y138225D01*
X-10725D01*
X-10500Y138000D01*
X-22500Y-4716D02*
Y-4650D01*
X-0Y110500D02*
X4000Y114500D01*
X-48000Y110500D02*
X-46500D01*
X4000Y115402D02*
X5740Y117142D01*
X7700D01*
X4000Y114647D02*
Y115402D01*
X8500Y138000D02*
X9143D01*
X-48000Y110500D02*
X-48000Y110500D01*
D71*
X-74724Y-10715D02*
Y3287D01*
Y-10715D02*
X-71545Y-13894D01*
X-44539D01*
X-37500Y-20933D01*
X-74837Y3400D02*
X-74724Y3287D01*
X-56757Y-11430D02*
X-36830D01*
X-68337Y-4930D02*
X-66917Y-6350D01*
X-61837D02*
X-56757Y-11430D01*
X-66917Y-6350D02*
X-61837D01*
Y-1937D02*
X-57900Y-5874D01*
X-46853D01*
X-61837Y-1937D02*
Y8650D01*
X-59769Y23718D02*
X-50800D01*
X-74837Y3400D02*
Y8650D01*
X-59769Y23718D01*
X-68337Y3400D02*
Y8650D01*
X-58617Y18370D01*
X-54610D01*
X-68337Y-4930D02*
Y3400D01*
X-61837Y8650D02*
X-56517Y13970D01*
X-52997D01*
X-45538Y21430D01*
X-35074D01*
X-36830Y-11996D02*
X-32500Y-16326D01*
Y-33510D02*
Y-16326D01*
X-36830Y-11996D02*
Y-11430D01*
X-37500Y-33510D02*
Y-20933D01*
X-43010Y-48990D02*
X-37500D01*
X-47500Y-44500D02*
X-43010Y-48990D01*
X-51508Y-41589D02*
Y-41002D01*
Y-41589D02*
X-51500Y-41597D01*
Y-47000D02*
Y-41597D01*
Y-47000D02*
X-46016Y-52484D01*
X-52500Y-40010D02*
X-51508Y-41002D01*
X-52500Y-40010D02*
Y-33510D01*
X-46016Y-52484D02*
X-44351D01*
X-43334Y-53500D01*
X-42500D01*
X-47500Y-44500D02*
Y-33510D01*
D72*
X-112647Y34296D02*
X-112559Y34208D01*
X-113183Y34832D02*
X-112647Y34296D01*
X-90436Y44590D02*
X-83600D01*
X-115926Y34832D02*
X-113183D01*
X-116806Y35713D02*
X-115926Y34832D01*
X-117503Y35713D02*
X-116806D01*
X-112780Y40295D02*
X-112736Y40340D01*
X-98780Y71365D02*
Y79534D01*
X-100611Y69534D02*
X-98780Y71365D01*
X-109780Y69534D02*
X-100611D01*
X-111780Y71534D02*
Y79534D01*
Y71534D02*
X-109780Y69534D01*
X-112647Y34296D02*
Y40251D01*
X-112736Y40340D02*
X-112647Y40251D01*
D73*
X62441Y-33451D02*
X62500Y-33510D01*
X62441Y-33451D02*
Y-19941D01*
X62382Y-19882D02*
X62441Y-19941D01*
X-27500Y-43907D02*
Y-21982D01*
X-42500Y-33510D02*
X-42462Y-33547D01*
Y-43870D02*
X-42425Y-43907D01*
X-42462Y-43870D02*
Y-33547D01*
X-27500Y-21982D02*
X-27312Y-21794D01*
X-42500Y-22725D02*
X-42441Y-22666D01*
X-42500Y-33510D02*
Y-22725D01*
X-64170Y106830D02*
Y107782D01*
X-62000Y109952D02*
Y110500D01*
X-65500Y105500D02*
X-64170Y106830D01*
Y107782D02*
X-62000Y109952D01*
X1500Y128000D02*
X8500D01*
X-1000Y130500D02*
X1500Y128000D01*
X1500Y133000D02*
X8500D01*
X-1000Y130500D02*
X1500Y133000D01*
X75925Y48525D02*
X75950Y48500D01*
X75925Y48525D02*
Y54550D01*
X75950Y41850D02*
Y48500D01*
X75900Y54575D02*
X75925Y54550D01*
X95500Y40500D02*
Y48500D01*
X95500Y48500D02*
X95500Y48500D01*
Y40500D02*
X95500Y40500D01*
X47500Y-20000D02*
Y-4650D01*
X47500Y-33510D02*
X47500Y-33510D01*
Y-20000D01*
X47500Y-20000D01*
X32500Y-20000D02*
X32500Y-20000D01*
X32500Y-33510D02*
X32500Y-33510D01*
Y-20000D01*
X2500Y-33510D02*
Y-20000D01*
X17500D02*
Y-4650D01*
X17500Y-33510D02*
Y-20000D01*
X17500Y-20000D01*
X17500Y-33510D02*
X17500Y-33510D01*
X-12500Y-20000D02*
Y-4650D01*
X-12500Y-33510D02*
Y-20000D01*
X-12500Y-20000D02*
X-12500Y-20000D01*
X47500Y-4650D02*
X47500Y-4650D01*
X17500Y-4650D02*
X17500Y-4650D01*
X-12500Y-4650D02*
X-12500Y-4650D01*
D74*
X-83500Y-75633D02*
Y-60010D01*
X-67877D01*
X83500D02*
X99122D01*
X67877D02*
X83500D01*
Y-75633D02*
Y-60010D01*
X-99122D02*
X-83500D01*
D75*
X-3435Y115565D02*
Y128065D01*
X-4000Y115000D02*
X-3435Y115565D01*
Y128065D02*
X-1000Y130500D01*
D76*
X95000Y-28746D02*
D03*
X-95000D02*
D03*
D77*
X105000Y310D02*
D03*
X-105000D02*
D03*
X105000Y125310D02*
D03*
X-105000D02*
D03*
D78*
X-57500Y-22725D02*
D03*
X-62500Y-22666D02*
D03*
X-83600Y44590D02*
D03*
X-46853Y13970D02*
D03*
X-42210Y17392D02*
D03*
X-54610Y18370D02*
D03*
X-50800Y23718D02*
D03*
X-41465Y31170D02*
D03*
X-28045Y30430D02*
D03*
X-117503Y35713D02*
D03*
X62382Y-19882D02*
D03*
X-68580Y69534D02*
D03*
X-78330Y57534D02*
D03*
X-101466Y36840D02*
D03*
X-27478Y1788D02*
D03*
Y-2880D02*
D03*
X-58914Y30480D02*
D03*
X-57380Y-48792D02*
D03*
X-62500Y-45922D02*
D03*
X-51230Y-20933D02*
D03*
X-65500Y91517D02*
D03*
X-7000Y56500D02*
D03*
X25405Y56363D02*
D03*
X-54000Y61000D02*
D03*
X-46694Y126274D02*
D03*
X-55650Y133479D02*
D03*
X50127Y121224D02*
D03*
X14050Y128500D02*
D03*
X18300Y117263D02*
D03*
X-10950Y91972D02*
D03*
X6000Y79000D02*
D03*
X24000Y92642D02*
D03*
X48000Y96000D02*
D03*
X-40234Y92000D02*
D03*
X-39174Y74000D02*
D03*
X-14221Y138450D02*
D03*
X-27500Y-43907D02*
D03*
X-42425D02*
D03*
X-37500Y-48990D02*
D03*
X-27312Y-21794D02*
D03*
X-42441Y-22666D02*
D03*
X-42500Y-53500D02*
D03*
X-22500Y105000D02*
D03*
X-19500Y99500D02*
D03*
Y93420D02*
D03*
X-34000Y101632D02*
D03*
Y95553D02*
D03*
X-40000Y97069D02*
D03*
X-41500Y79000D02*
D03*
X-62000Y110500D02*
D03*
X75950Y22578D02*
D03*
X-14275Y119500D02*
D03*
X-9500D02*
D03*
X46500Y105318D02*
D03*
X58000Y103000D02*
D03*
X40703Y105318D02*
D03*
X7700Y117142D02*
D03*
X75950Y48500D02*
D03*
X95500D02*
D03*
X54000Y52000D02*
D03*
X18000Y102080D02*
D03*
X-2500Y3500D02*
D03*
X18000Y96000D02*
D03*
X48900Y52000D02*
D03*
X-7600Y3500D02*
D03*
X32500Y-20000D02*
D03*
X2500D02*
D03*
X47500D02*
D03*
X17500D02*
D03*
X-12500D02*
D03*
X-13500Y5000D02*
D03*
X3000D02*
D03*
X62000Y52000D02*
D03*
X40415D02*
D03*
X38476Y30298D02*
D03*
X43500Y46000D02*
D03*
X18560Y42866D02*
D03*
X23000Y30000D02*
D03*
X22040Y18029D02*
D03*
X-5242Y19133D02*
D03*
X4229Y30377D02*
D03*
X-37500Y38000D02*
D03*
X-23750Y50134D02*
D03*
X-16000Y46000D02*
D03*
X7000Y96000D02*
D03*
X6854Y101934D02*
D03*
X-16000Y52000D02*
D03*
X-12394Y55606D02*
D03*
X20500Y47900D02*
D03*
Y53000D02*
D03*
X-4606Y24894D02*
D03*
X-6000Y96000D02*
D03*
X-1000Y28500D02*
D03*
X-6000Y102080D02*
D03*
X18500Y27100D02*
D03*
Y22000D02*
D03*
X41500Y40000D02*
D03*
X37894Y36394D02*
D03*
X-26500Y43500D02*
D03*
X-30106Y39894D02*
D03*
X-12000Y102000D02*
D03*
X-24154Y96742D02*
D03*
X808Y102654D02*
D03*
X24500Y104500D02*
D03*
X-40000Y103000D02*
D03*
D79*
X-46853Y-5874D02*
D03*
X-41830Y7392D02*
D03*
X-111740Y100151D02*
D03*
X99060Y88900D02*
D03*
D80*
X-1000Y125500D02*
D03*
Y135500D02*
D03*
M02*
