G04*
G04 #@! TF.GenerationSoftware,Altium Limited,Altium Designer,22.7.1 (60)*
G04*
G04 Layer_Color=8388736*
%FSLAX44Y44*%
%MOMM*%
G71*
G04*
G04 #@! TF.SameCoordinates,C5309086-A274-4426-B6F9-96ACF7C2936D*
G04*
G04*
G04 #@! TF.FilePolarity,Negative*
G04*
G01*
G75*
%ADD33R,0.5000X1.0000*%
%ADD34R,0.6400X0.4200*%
%ADD35R,1.0400X1.7400*%
%ADD36C,1.2032*%
%ADD37R,0.7532X0.6532*%
%ADD38R,0.9032X1.1032*%
%ADD39R,0.6532X0.7532*%
%ADD40R,2.2032X1.0032*%
%ADD41C,2.0000*%
%ADD42R,1.7032X1.5032*%
%ADD43R,1.5032X1.7032*%
G04:AMPARAMS|DCode=44|XSize=0.34mm|YSize=0.705mm|CornerRadius=0.12mm|HoleSize=0mm|Usage=FLASHONLY|Rotation=180.000|XOffset=0mm|YOffset=0mm|HoleType=Round|Shape=RoundedRectangle|*
%AMROUNDEDRECTD44*
21,1,0.3400,0.4650,0,0,180.0*
21,1,0.1000,0.7050,0,0,180.0*
1,1,0.2400,-0.0500,0.2325*
1,1,0.2400,0.0500,0.2325*
1,1,0.2400,0.0500,-0.2325*
1,1,0.2400,-0.0500,-0.2325*
%
%ADD44ROUNDEDRECTD44*%
G04:AMPARAMS|DCode=45|XSize=0.54mm|YSize=0.705mm|CornerRadius=0.12mm|HoleSize=0mm|Usage=FLASHONLY|Rotation=180.000|XOffset=0mm|YOffset=0mm|HoleType=Round|Shape=RoundedRectangle|*
%AMROUNDEDRECTD45*
21,1,0.5400,0.4650,0,0,180.0*
21,1,0.3000,0.7050,0,0,180.0*
1,1,0.2400,-0.1500,0.2325*
1,1,0.2400,0.1500,0.2325*
1,1,0.2400,0.1500,-0.2325*
1,1,0.2400,-0.1500,-0.2325*
%
%ADD45ROUNDEDRECTD45*%
%ADD46R,0.8232X0.8232*%
%ADD47R,1.1032X0.9032*%
%ADD48R,0.7232X0.7232*%
%ADD49R,0.7232X0.7232*%
%ADD50R,0.5232X0.5632*%
%ADD51R,0.5032X1.8032*%
%ADD52R,2.6032X2.6032*%
%ADD53R,2.6032X2.6032*%
%ADD54C,1.7272*%
%ADD55C,0.2032*%
%ADD56C,0.6096*%
D33*
X-115000Y50000D02*
D03*
Y72000D02*
D03*
X-102000Y50000D02*
D03*
Y72000D02*
D03*
X-108500D02*
D03*
X95500Y40500D02*
D03*
X89000D02*
D03*
Y62500D02*
D03*
X102000Y40500D02*
D03*
Y62500D02*
D03*
D34*
X-10500Y138000D02*
D03*
Y133000D02*
D03*
Y128000D02*
D03*
Y123000D02*
D03*
X8500Y138000D02*
D03*
Y133000D02*
D03*
Y128000D02*
D03*
Y123000D02*
D03*
D35*
X-1000Y130500D02*
D03*
D36*
X75950Y22578D02*
D03*
X91327Y22000D02*
D03*
X-45000Y43000D02*
D03*
X-103000Y98000D02*
D03*
X73000Y123000D02*
D03*
X-79000Y98000D02*
D03*
X73000Y108000D02*
D03*
X-60000Y43000D02*
D03*
X-35000Y25000D02*
D03*
Y5000D02*
D03*
X-73000Y13500D02*
D03*
X-72000Y-7000D02*
D03*
D37*
X45000Y112500D02*
D03*
Y121500D02*
D03*
Y137500D02*
D03*
Y128500D02*
D03*
D38*
X36000Y136000D02*
D03*
X22000D02*
D03*
X36000Y125000D02*
D03*
X22000D02*
D03*
D39*
X-24000Y13500D02*
D03*
X-15000D02*
D03*
X4000Y115000D02*
D03*
X13000D02*
D03*
D40*
X-28500Y116500D02*
D03*
Y136500D02*
D03*
D41*
X106000Y-35000D02*
D03*
X-55000Y-75000D02*
D03*
D42*
X-72500Y63000D02*
D03*
Y82000D02*
D03*
X-51000Y107500D02*
D03*
Y88500D02*
D03*
D43*
X84000Y89000D02*
D03*
X65000D02*
D03*
D44*
X-2500Y-13000D02*
D03*
X-7500D02*
D03*
X-17500D02*
D03*
X-22500D02*
D03*
Y-4650D02*
D03*
X-17500D02*
D03*
X-7500D02*
D03*
X-2500D02*
D03*
X27500Y-13000D02*
D03*
X22500D02*
D03*
X12500D02*
D03*
X7500D02*
D03*
Y-4650D02*
D03*
X12500D02*
D03*
X22500D02*
D03*
X27500D02*
D03*
X57500Y-13000D02*
D03*
X52500D02*
D03*
X42500D02*
D03*
X37500D02*
D03*
Y-4650D02*
D03*
X42500D02*
D03*
X52500D02*
D03*
X57500D02*
D03*
D45*
X-12500Y-13000D02*
D03*
Y-4650D02*
D03*
X17500Y-13000D02*
D03*
Y-4650D02*
D03*
X47500Y-13000D02*
D03*
Y-4650D02*
D03*
D46*
X-89000Y55500D02*
D03*
Y46500D02*
D03*
X-89000Y68000D02*
D03*
Y77000D02*
D03*
X75900Y54575D02*
D03*
Y63575D02*
D03*
X75950Y41850D02*
D03*
Y32850D02*
D03*
D47*
X-46500Y119500D02*
D03*
Y133500D02*
D03*
D48*
X-4000Y115000D02*
D03*
X-12000D02*
D03*
D49*
X-65500Y105500D02*
D03*
Y97500D02*
D03*
X53000Y102500D02*
D03*
Y94500D02*
D03*
X-53500Y67500D02*
D03*
Y75500D02*
D03*
D50*
X-45700Y75600D02*
D03*
Y70000D02*
D03*
D51*
X-52500Y-33510D02*
D03*
X-7500D02*
D03*
X-2500D02*
D03*
X7500D02*
D03*
X12500D02*
D03*
X-17500D02*
D03*
X37500D02*
D03*
X42500D02*
D03*
X52500D02*
D03*
X57500D02*
D03*
X22500D02*
D03*
X27500D02*
D03*
X2500D02*
D03*
X62500D02*
D03*
X47500D02*
D03*
X-62500D02*
D03*
X-57500D02*
D03*
X-47500D02*
D03*
X-42500D02*
D03*
X-37500D02*
D03*
X-32500D02*
D03*
X-27500D02*
D03*
X-22500D02*
D03*
X-12500D02*
D03*
X17500D02*
D03*
X32500D02*
D03*
D52*
X83500Y-60010D02*
D03*
D53*
X-83500D02*
D03*
D54*
X105000Y310D02*
D03*
X-105000D02*
D03*
X105000Y125310D02*
D03*
X-105000D02*
D03*
D55*
X-90000Y0D02*
D03*
X90000D02*
D03*
D56*
X-1000Y125500D02*
D03*
Y135500D02*
D03*
M02*
