G04*
G04 #@! TF.GenerationSoftware,Altium Limited,Altium Designer,23.8.1 (32)*
G04*
G04 Layer_Color=16711935*
%FSLAX44Y44*%
%MOMM*%
G71*
G04*
G04 #@! TF.SameCoordinates,2B8CACFB-8808-4C00-8352-55F1F9CD23E6*
G04*
G04*
G04 #@! TF.FilePolarity,Positive*
G04*
G01*
G75*
%ADD13C,0.1000*%
%ADD91C,0.1500*%
G36*
X-65555Y28311D02*
X-65436Y28295D01*
X-65321Y28274D01*
X-65217Y28248D01*
X-65113Y28217D01*
X-65024Y28175D01*
X-64936Y28139D01*
X-64858Y28097D01*
X-64790Y28055D01*
X-64732Y28019D01*
X-64675Y27982D01*
X-64634Y27946D01*
X-64602Y27920D01*
X-64576Y27899D01*
X-64561Y27884D01*
X-64556Y27878D01*
X-64477Y27795D01*
X-64410Y27707D01*
X-64352Y27618D01*
X-64300Y27529D01*
X-64259Y27441D01*
X-64222Y27352D01*
X-64196Y27269D01*
X-64170Y27186D01*
X-64155Y27113D01*
X-64139Y27040D01*
X-64134Y26978D01*
X-64123Y26925D01*
Y26884D01*
X-64118Y26847D01*
Y26821D01*
X-64123Y26733D01*
X-64128Y26644D01*
X-64144Y26561D01*
X-64165Y26478D01*
X-64212Y26327D01*
X-64243Y26254D01*
X-64269Y26191D01*
X-64295Y26129D01*
X-64326Y26077D01*
X-64352Y26030D01*
X-64373Y25988D01*
X-64394Y25957D01*
X-64405Y25936D01*
X-64415Y25921D01*
X-64420Y25915D01*
X-63129Y26170D01*
Y28092D01*
X-62566D01*
Y25702D01*
X-65034Y25238D01*
X-65113Y25790D01*
X-65040Y25842D01*
X-64972Y25900D01*
X-64915Y25962D01*
X-64863Y26014D01*
X-64826Y26066D01*
X-64795Y26108D01*
X-64779Y26134D01*
X-64774Y26144D01*
X-64727Y26233D01*
X-64696Y26321D01*
X-64670Y26410D01*
X-64654Y26493D01*
X-64644Y26561D01*
X-64639Y26618D01*
Y26665D01*
X-64644Y26748D01*
X-64649Y26827D01*
X-64665Y26905D01*
X-64686Y26972D01*
X-64732Y27103D01*
X-64759Y27155D01*
X-64785Y27207D01*
X-64816Y27254D01*
X-64842Y27290D01*
X-64868Y27327D01*
X-64889Y27352D01*
X-64910Y27373D01*
X-64925Y27394D01*
X-64930Y27399D01*
X-64936Y27405D01*
X-64993Y27457D01*
X-65055Y27498D01*
X-65118Y27540D01*
X-65180Y27571D01*
X-65316Y27623D01*
X-65441Y27655D01*
X-65503Y27665D01*
X-65555Y27675D01*
X-65607Y27680D01*
X-65649Y27686D01*
X-65685Y27691D01*
X-65711D01*
X-65727D01*
X-65732D01*
X-65831Y27686D01*
X-65920Y27680D01*
X-66008Y27665D01*
X-66092Y27644D01*
X-66164Y27623D01*
X-66237Y27597D01*
X-66300Y27571D01*
X-66357Y27545D01*
X-66409Y27514D01*
X-66456Y27488D01*
X-66493Y27462D01*
X-66529Y27441D01*
X-66555Y27420D01*
X-66571Y27405D01*
X-66581Y27399D01*
X-66586Y27394D01*
X-66644Y27337D01*
X-66690Y27280D01*
X-66732Y27222D01*
X-66768Y27160D01*
X-66800Y27097D01*
X-66826Y27040D01*
X-66862Y26925D01*
X-66888Y26827D01*
X-66893Y26785D01*
X-66899Y26748D01*
X-66904Y26717D01*
Y26676D01*
X-66899Y26608D01*
X-66893Y26545D01*
X-66867Y26431D01*
X-66831Y26327D01*
X-66789Y26238D01*
X-66753Y26165D01*
X-66716Y26113D01*
X-66701Y26092D01*
X-66690Y26077D01*
X-66680Y26072D01*
Y26066D01*
X-66633Y26025D01*
X-66586Y25983D01*
X-66482Y25915D01*
X-66368Y25858D01*
X-66258Y25816D01*
X-66159Y25790D01*
X-66112Y25775D01*
X-66076Y25770D01*
X-66045Y25764D01*
X-66024Y25759D01*
X-66008Y25754D01*
X-66003D01*
X-66050Y25134D01*
X-66159Y25150D01*
X-66269Y25171D01*
X-66368Y25197D01*
X-66461Y25233D01*
X-66545Y25270D01*
X-66628Y25306D01*
X-66701Y25348D01*
X-66763Y25389D01*
X-66826Y25431D01*
X-66878Y25468D01*
X-66919Y25504D01*
X-66956Y25540D01*
X-66987Y25566D01*
X-67008Y25587D01*
X-67018Y25598D01*
X-67024Y25603D01*
X-67086Y25686D01*
X-67143Y25770D01*
X-67190Y25858D01*
X-67232Y25947D01*
X-67268Y26035D01*
X-67300Y26124D01*
X-67326Y26212D01*
X-67341Y26295D01*
X-67357Y26374D01*
X-67367Y26446D01*
X-67378Y26509D01*
X-67383Y26566D01*
X-67388Y26613D01*
Y26676D01*
X-67383Y26821D01*
X-67362Y26957D01*
X-67336Y27087D01*
X-67294Y27207D01*
X-67253Y27321D01*
X-67206Y27425D01*
X-67149Y27519D01*
X-67097Y27602D01*
X-67044Y27680D01*
X-66987Y27748D01*
X-66940Y27806D01*
X-66893Y27852D01*
X-66857Y27889D01*
X-66831Y27915D01*
X-66810Y27931D01*
X-66805Y27936D01*
X-66716Y28003D01*
X-66623Y28061D01*
X-66524Y28113D01*
X-66430Y28154D01*
X-66336Y28191D01*
X-66243Y28222D01*
X-66149Y28248D01*
X-66066Y28269D01*
X-65982Y28285D01*
X-65909Y28295D01*
X-65847Y28305D01*
X-65790Y28311D01*
X-65743Y28316D01*
X-65711D01*
X-65685D01*
X-65680D01*
X-65555Y28311D01*
D02*
G37*
G36*
X-62488Y23239D02*
X-62608Y23171D01*
X-62723Y23093D01*
X-62832Y23005D01*
X-62926Y22916D01*
X-63014Y22838D01*
X-63046Y22802D01*
X-63077Y22775D01*
X-63103Y22750D01*
X-63118Y22729D01*
X-63129Y22718D01*
X-63134Y22713D01*
X-63254Y22573D01*
X-63358Y22422D01*
X-63457Y22276D01*
X-63540Y22140D01*
X-63571Y22083D01*
X-63603Y22026D01*
X-63634Y21974D01*
X-63655Y21932D01*
X-63670Y21896D01*
X-63686Y21869D01*
X-63691Y21854D01*
X-63696Y21849D01*
X-64264D01*
X-64222Y21953D01*
X-64175Y22062D01*
X-64123Y22166D01*
X-64076Y22260D01*
X-64030Y22343D01*
X-64014Y22380D01*
X-63993Y22411D01*
X-63983Y22437D01*
X-63972Y22453D01*
X-63962Y22463D01*
Y22468D01*
X-63884Y22593D01*
X-63811Y22703D01*
X-63743Y22802D01*
X-63681Y22880D01*
X-63629Y22947D01*
X-63592Y22994D01*
X-63566Y23020D01*
X-63556Y23031D01*
X-67310D01*
Y23619D01*
X-62488D01*
Y23239D01*
D02*
G37*
G36*
X-63769Y20823D02*
X-63644Y20807D01*
X-63535Y20781D01*
X-63436Y20755D01*
X-63358Y20724D01*
X-63321Y20714D01*
X-63295Y20703D01*
X-63275Y20693D01*
X-63259Y20682D01*
X-63249Y20677D01*
X-63243D01*
X-63134Y20620D01*
X-63046Y20557D01*
X-62962Y20490D01*
X-62900Y20432D01*
X-62848Y20375D01*
X-62811Y20333D01*
X-62785Y20302D01*
X-62780Y20297D01*
Y20292D01*
X-62723Y20198D01*
X-62676Y20099D01*
X-62634Y20000D01*
X-62603Y19907D01*
X-62577Y19823D01*
X-62572Y19787D01*
X-62561Y19756D01*
X-62556Y19735D01*
Y19714D01*
X-62551Y19703D01*
Y19698D01*
X-62540Y19651D01*
X-62535Y19594D01*
X-62525Y19480D01*
X-62514Y19360D01*
X-62509Y19240D01*
X-62504Y19136D01*
Y17157D01*
X-67310D01*
Y17792D01*
X-65357D01*
Y19021D01*
X-65352Y19209D01*
X-65336Y19375D01*
X-65316Y19532D01*
X-65290Y19677D01*
X-65258Y19802D01*
X-65222Y19922D01*
X-65185Y20021D01*
X-65144Y20115D01*
X-65107Y20193D01*
X-65071Y20261D01*
X-65034Y20318D01*
X-65003Y20359D01*
X-64972Y20396D01*
X-64951Y20417D01*
X-64941Y20432D01*
X-64936Y20438D01*
X-64852Y20505D01*
X-64769Y20568D01*
X-64681Y20620D01*
X-64592Y20661D01*
X-64503Y20703D01*
X-64420Y20734D01*
X-64337Y20760D01*
X-64259Y20781D01*
X-64181Y20797D01*
X-64113Y20807D01*
X-64056Y20818D01*
X-64004Y20823D01*
X-63957Y20828D01*
X-63925D01*
X-63905D01*
X-63899D01*
X-63769Y20823D01*
D02*
G37*
G36*
X-62504Y12700D02*
X-63071D01*
Y14283D01*
X-67310D01*
Y14918D01*
X-63071D01*
Y16501D01*
X-62504D01*
Y12700D01*
D02*
G37*
G36*
X8859Y97776D02*
X5704D01*
X5815Y97623D01*
X5871Y97554D01*
X5926Y97491D01*
X5975Y97436D01*
X6010Y97394D01*
X6037Y97367D01*
X6044Y97360D01*
X6086Y97318D01*
X6141Y97262D01*
X6204Y97207D01*
X6273Y97145D01*
X6419Y97006D01*
X6571Y96874D01*
X6717Y96749D01*
X6779Y96694D01*
X6842Y96645D01*
X6883Y96604D01*
X6925Y96576D01*
X6946Y96555D01*
X6952Y96548D01*
X7105Y96417D01*
X7251Y96292D01*
X7382Y96181D01*
X7500Y96070D01*
X7611Y95973D01*
X7708Y95876D01*
X7799Y95793D01*
X7882Y95716D01*
X7951Y95654D01*
X8007Y95591D01*
X8055Y95543D01*
X8097Y95501D01*
X8124Y95467D01*
X8152Y95446D01*
X8159Y95432D01*
X8166Y95425D01*
X8298Y95272D01*
X8402Y95134D01*
X8492Y95002D01*
X8568Y94884D01*
X8624Y94787D01*
X8665Y94711D01*
X8679Y94683D01*
X8686Y94662D01*
X8693Y94655D01*
Y94648D01*
X8748Y94510D01*
X8783Y94371D01*
X8811Y94246D01*
X8832Y94128D01*
X8846Y94031D01*
X8852Y93955D01*
Y93927D01*
Y93906D01*
Y93899D01*
Y93892D01*
X8846Y93754D01*
X8832Y93622D01*
X8804Y93497D01*
X8769Y93372D01*
X8728Y93261D01*
X8679Y93158D01*
X8631Y93060D01*
X8582Y92977D01*
X8533Y92894D01*
X8485Y92825D01*
X8436Y92762D01*
X8395Y92714D01*
X8360Y92679D01*
X8332Y92644D01*
X8319Y92631D01*
X8312Y92624D01*
X8208Y92533D01*
X8097Y92457D01*
X7979Y92388D01*
X7854Y92325D01*
X7736Y92277D01*
X7611Y92235D01*
X7493Y92201D01*
X7376Y92173D01*
X7272Y92152D01*
X7168Y92138D01*
X7077Y92124D01*
X7001Y92117D01*
X6939Y92110D01*
X6848D01*
X6682Y92117D01*
X6523Y92131D01*
X6377Y92152D01*
X6238Y92187D01*
X6107Y92221D01*
X5989Y92263D01*
X5878Y92305D01*
X5781Y92346D01*
X5691Y92395D01*
X5614Y92436D01*
X5545Y92478D01*
X5489Y92513D01*
X5448Y92547D01*
X5420Y92568D01*
X5399Y92582D01*
X5392Y92589D01*
X5295Y92679D01*
X5212Y92783D01*
X5136Y92887D01*
X5066Y93005D01*
X5011Y93116D01*
X4956Y93227D01*
X4914Y93345D01*
X4879Y93449D01*
X4845Y93553D01*
X4824Y93650D01*
X4803Y93740D01*
X4789Y93816D01*
X4782Y93879D01*
X4775Y93920D01*
X4768Y93948D01*
Y93962D01*
X5573Y94045D01*
X5580Y93934D01*
X5587Y93830D01*
X5628Y93650D01*
X5684Y93483D01*
X5711Y93414D01*
X5746Y93352D01*
X5774Y93296D01*
X5808Y93248D01*
X5836Y93206D01*
X5857Y93171D01*
X5885Y93144D01*
X5899Y93123D01*
X5905Y93116D01*
X5912Y93109D01*
X5982Y93047D01*
X6051Y92991D01*
X6127Y92949D01*
X6204Y92908D01*
X6356Y92845D01*
X6502Y92804D01*
X6627Y92783D01*
X6682Y92769D01*
X6731D01*
X6772Y92762D01*
X6925D01*
X7022Y92776D01*
X7195Y92811D01*
X7341Y92866D01*
X7473Y92922D01*
X7570Y92984D01*
X7611Y93012D01*
X7646Y93040D01*
X7674Y93060D01*
X7695Y93074D01*
X7701Y93081D01*
X7708Y93088D01*
X7771Y93151D01*
X7819Y93213D01*
X7868Y93275D01*
X7903Y93345D01*
X7965Y93476D01*
X8007Y93601D01*
X8027Y93705D01*
X8041Y93754D01*
Y93795D01*
X8048Y93823D01*
Y93851D01*
Y93865D01*
Y93872D01*
X8041Y93955D01*
X8034Y94038D01*
X7993Y94205D01*
X7930Y94364D01*
X7861Y94510D01*
X7792Y94635D01*
X7764Y94683D01*
X7729Y94732D01*
X7708Y94766D01*
X7688Y94794D01*
X7681Y94808D01*
X7674Y94815D01*
X7597Y94912D01*
X7507Y95016D01*
X7403Y95127D01*
X7292Y95238D01*
X7064Y95467D01*
X6828Y95681D01*
X6717Y95786D01*
X6606Y95876D01*
X6509Y95959D01*
X6425Y96028D01*
X6356Y96091D01*
X6308Y96132D01*
X6273Y96167D01*
X6259Y96174D01*
X6134Y96278D01*
X6023Y96375D01*
X5912Y96465D01*
X5815Y96555D01*
X5718Y96638D01*
X5635Y96722D01*
X5559Y96791D01*
X5489Y96860D01*
X5427Y96923D01*
X5378Y96978D01*
X5330Y97027D01*
X5295Y97062D01*
X5261Y97096D01*
X5240Y97117D01*
X5233Y97131D01*
X5226Y97138D01*
X5101Y97290D01*
X4997Y97443D01*
X4907Y97589D01*
X4838Y97720D01*
X4782Y97831D01*
X4761Y97880D01*
X4740Y97914D01*
X4727Y97949D01*
X4720Y97970D01*
X4713Y97984D01*
Y97991D01*
X4678Y98088D01*
X4657Y98185D01*
X4636Y98275D01*
X4630Y98358D01*
X4623Y98427D01*
Y98483D01*
Y98518D01*
Y98532D01*
X8859D01*
Y97776D01*
D02*
G37*
G36*
X2071Y98629D02*
X2258Y98601D01*
X2424Y98566D01*
X2570Y98518D01*
X2632Y98497D01*
X2688Y98476D01*
X2736Y98462D01*
X2771Y98441D01*
X2806Y98427D01*
X2827Y98414D01*
X2840Y98407D01*
X2848D01*
X2993Y98310D01*
X3125Y98206D01*
X3229Y98095D01*
X3312Y97991D01*
X3381Y97894D01*
X3430Y97810D01*
X3444Y97783D01*
X3458Y97762D01*
X3465Y97748D01*
Y97741D01*
X3499Y97651D01*
X3534Y97561D01*
X3582Y97360D01*
X3617Y97152D01*
X3638Y96951D01*
X3652Y96860D01*
X3659Y96770D01*
Y96694D01*
X3666Y96625D01*
Y96569D01*
Y96528D01*
Y96500D01*
Y96493D01*
Y92131D01*
X2820D01*
Y96541D01*
Y96638D01*
X2813Y96735D01*
X2806Y96895D01*
X2792Y97034D01*
X2778Y97145D01*
X2757Y97228D01*
X2743Y97290D01*
X2736Y97325D01*
X2730Y97339D01*
X2688Y97429D01*
X2639Y97505D01*
X2584Y97575D01*
X2535Y97630D01*
X2480Y97672D01*
X2445Y97706D01*
X2418Y97727D01*
X2404Y97734D01*
X2314Y97783D01*
X2223Y97817D01*
X2133Y97845D01*
X2043Y97859D01*
X1967Y97873D01*
X1911Y97880D01*
X1856D01*
X1703Y97866D01*
X1572Y97838D01*
X1454Y97796D01*
X1357Y97748D01*
X1280Y97699D01*
X1225Y97658D01*
X1190Y97630D01*
X1176Y97616D01*
X1135Y97561D01*
X1093Y97498D01*
X1058Y97422D01*
X1031Y97346D01*
X982Y97179D01*
X948Y97013D01*
X927Y96860D01*
X920Y96791D01*
X913Y96729D01*
Y96680D01*
X906Y96645D01*
Y96618D01*
Y96611D01*
X143Y96722D01*
Y96895D01*
X157Y97055D01*
X178Y97207D01*
X199Y97346D01*
X233Y97478D01*
X268Y97595D01*
X310Y97699D01*
X344Y97796D01*
X386Y97880D01*
X427Y97956D01*
X462Y98018D01*
X497Y98067D01*
X525Y98109D01*
X545Y98136D01*
X559Y98150D01*
X566Y98157D01*
X656Y98240D01*
X753Y98316D01*
X850Y98379D01*
X961Y98434D01*
X1065Y98483D01*
X1176Y98518D01*
X1280Y98552D01*
X1384Y98573D01*
X1481Y98594D01*
X1572Y98608D01*
X1655Y98622D01*
X1724Y98629D01*
X1780Y98636D01*
X1863D01*
X2071Y98629D01*
D02*
G37*
G36*
X72568Y114430D02*
X72682Y114513D01*
X72734Y114555D01*
X72781Y114597D01*
X72823Y114633D01*
X72854Y114659D01*
X72875Y114680D01*
X72880Y114685D01*
X72911Y114716D01*
X72953Y114758D01*
X72994Y114805D01*
X73041Y114857D01*
X73145Y114966D01*
X73245Y115081D01*
X73338Y115190D01*
X73380Y115237D01*
X73416Y115284D01*
X73448Y115315D01*
X73468Y115346D01*
X73484Y115362D01*
X73489Y115367D01*
X73588Y115482D01*
X73682Y115591D01*
X73765Y115690D01*
X73849Y115779D01*
X73921Y115862D01*
X73994Y115935D01*
X74057Y116002D01*
X74114Y116065D01*
X74161Y116117D01*
X74208Y116159D01*
X74244Y116195D01*
X74275Y116226D01*
X74302Y116247D01*
X74317Y116268D01*
X74328Y116273D01*
X74333Y116278D01*
X74447Y116377D01*
X74551Y116455D01*
X74650Y116523D01*
X74739Y116580D01*
X74812Y116622D01*
X74869Y116653D01*
X74890Y116664D01*
X74906Y116669D01*
X74911Y116674D01*
X74916D01*
X75020Y116716D01*
X75124Y116742D01*
X75218Y116763D01*
X75307Y116778D01*
X75379Y116789D01*
X75437Y116794D01*
X75458D01*
X75473D01*
X75478D01*
X75483D01*
X75588Y116789D01*
X75687Y116778D01*
X75780Y116757D01*
X75874Y116731D01*
X75957Y116700D01*
X76035Y116664D01*
X76108Y116627D01*
X76171Y116591D01*
X76233Y116554D01*
X76285Y116518D01*
X76332Y116481D01*
X76369Y116450D01*
X76395Y116424D01*
X76421Y116403D01*
X76431Y116393D01*
X76436Y116388D01*
X76504Y116310D01*
X76561Y116226D01*
X76613Y116138D01*
X76660Y116044D01*
X76697Y115955D01*
X76728Y115862D01*
X76754Y115773D01*
X76775Y115685D01*
X76790Y115607D01*
X76801Y115528D01*
X76811Y115461D01*
X76817Y115404D01*
X76822Y115357D01*
Y115289D01*
X76817Y115164D01*
X76806Y115044D01*
X76790Y114935D01*
X76764Y114831D01*
X76738Y114732D01*
X76707Y114643D01*
X76676Y114560D01*
X76645Y114487D01*
X76608Y114419D01*
X76577Y114362D01*
X76546Y114310D01*
X76520Y114269D01*
X76494Y114237D01*
X76478Y114216D01*
X76468Y114201D01*
X76462Y114196D01*
X76395Y114123D01*
X76317Y114060D01*
X76238Y114003D01*
X76150Y113951D01*
X76067Y113909D01*
X75983Y113868D01*
X75895Y113836D01*
X75817Y113810D01*
X75739Y113784D01*
X75666Y113769D01*
X75598Y113753D01*
X75541Y113743D01*
X75494Y113737D01*
X75463Y113732D01*
X75442Y113727D01*
X75431D01*
X75369Y114331D01*
X75452Y114336D01*
X75530Y114341D01*
X75666Y114373D01*
X75791Y114414D01*
X75843Y114435D01*
X75890Y114461D01*
X75931Y114482D01*
X75968Y114508D01*
X75999Y114529D01*
X76025Y114544D01*
X76046Y114565D01*
X76062Y114576D01*
X76067Y114581D01*
X76072Y114586D01*
X76119Y114638D01*
X76160Y114690D01*
X76192Y114747D01*
X76223Y114805D01*
X76270Y114919D01*
X76301Y115029D01*
X76317Y115122D01*
X76327Y115164D01*
Y115201D01*
X76332Y115232D01*
Y115346D01*
X76322Y115419D01*
X76296Y115549D01*
X76254Y115659D01*
X76213Y115758D01*
X76166Y115831D01*
X76145Y115862D01*
X76124Y115888D01*
X76108Y115909D01*
X76098Y115924D01*
X76093Y115929D01*
X76087Y115935D01*
X76041Y115982D01*
X75994Y116018D01*
X75947Y116054D01*
X75895Y116081D01*
X75796Y116127D01*
X75702Y116159D01*
X75624Y116174D01*
X75588Y116185D01*
X75556D01*
X75536Y116190D01*
X75515D01*
X75504D01*
X75499D01*
X75437Y116185D01*
X75374Y116179D01*
X75249Y116148D01*
X75129Y116101D01*
X75020Y116049D01*
X74926Y115997D01*
X74890Y115976D01*
X74853Y115950D01*
X74827Y115935D01*
X74807Y115919D01*
X74796Y115914D01*
X74791Y115909D01*
X74718Y115851D01*
X74640Y115784D01*
X74557Y115706D01*
X74473Y115622D01*
X74302Y115450D01*
X74140Y115273D01*
X74062Y115190D01*
X73994Y115107D01*
X73932Y115034D01*
X73880Y114971D01*
X73833Y114919D01*
X73802Y114883D01*
X73776Y114857D01*
X73770Y114846D01*
X73692Y114753D01*
X73619Y114669D01*
X73552Y114586D01*
X73484Y114513D01*
X73422Y114440D01*
X73359Y114378D01*
X73307Y114320D01*
X73255Y114269D01*
X73208Y114222D01*
X73166Y114185D01*
X73130Y114149D01*
X73104Y114123D01*
X73078Y114097D01*
X73062Y114081D01*
X73052Y114076D01*
X73047Y114071D01*
X72932Y113977D01*
X72818Y113899D01*
X72708Y113831D01*
X72609Y113779D01*
X72526Y113737D01*
X72490Y113722D01*
X72463Y113706D01*
X72437Y113696D01*
X72422Y113691D01*
X72411Y113685D01*
X72406D01*
X72333Y113659D01*
X72260Y113644D01*
X72193Y113628D01*
X72130Y113623D01*
X72078Y113618D01*
X72036D01*
X72010D01*
X72000D01*
Y116799D01*
X72568D01*
Y114430D01*
D02*
G37*
G36*
X75541Y113123D02*
X75666Y113107D01*
X75775Y113081D01*
X75874Y113055D01*
X75952Y113024D01*
X75989Y113014D01*
X76015Y113003D01*
X76035Y112993D01*
X76051Y112982D01*
X76062Y112977D01*
X76067D01*
X76176Y112920D01*
X76265Y112857D01*
X76348Y112790D01*
X76410Y112732D01*
X76462Y112675D01*
X76499Y112633D01*
X76525Y112602D01*
X76530Y112597D01*
Y112592D01*
X76587Y112498D01*
X76634Y112399D01*
X76676Y112300D01*
X76707Y112206D01*
X76733Y112123D01*
X76738Y112087D01*
X76749Y112056D01*
X76754Y112035D01*
Y112014D01*
X76759Y112003D01*
Y111998D01*
X76770Y111951D01*
X76775Y111894D01*
X76785Y111779D01*
X76796Y111660D01*
X76801Y111540D01*
X76806Y111436D01*
Y109457D01*
X72000D01*
Y110092D01*
X73953D01*
Y111321D01*
X73958Y111509D01*
X73973Y111675D01*
X73994Y111832D01*
X74020Y111977D01*
X74052Y112102D01*
X74088Y112222D01*
X74124Y112321D01*
X74166Y112415D01*
X74203Y112493D01*
X74239Y112561D01*
X74275Y112618D01*
X74307Y112660D01*
X74338Y112696D01*
X74359Y112717D01*
X74369Y112732D01*
X74374Y112738D01*
X74458Y112805D01*
X74541Y112868D01*
X74630Y112920D01*
X74718Y112962D01*
X74807Y113003D01*
X74890Y113034D01*
X74973Y113060D01*
X75051Y113081D01*
X75129Y113097D01*
X75197Y113107D01*
X75254Y113118D01*
X75307Y113123D01*
X75353Y113128D01*
X75385D01*
X75405D01*
X75411D01*
X75541Y113123D01*
D02*
G37*
G36*
X76806Y105000D02*
X76238D01*
Y106583D01*
X72000D01*
Y107218D01*
X76238D01*
Y108801D01*
X76806D01*
Y105000D01*
D02*
G37*
G36*
X78822Y135539D02*
X78702Y135471D01*
X78587Y135393D01*
X78478Y135305D01*
X78384Y135216D01*
X78296Y135138D01*
X78264Y135102D01*
X78233Y135076D01*
X78207Y135049D01*
X78192Y135029D01*
X78181Y135018D01*
X78176Y135013D01*
X78056Y134873D01*
X77952Y134721D01*
X77853Y134576D01*
X77770Y134440D01*
X77739Y134383D01*
X77707Y134326D01*
X77676Y134274D01*
X77655Y134232D01*
X77640Y134196D01*
X77624Y134170D01*
X77619Y134154D01*
X77614Y134149D01*
X77046D01*
X77088Y134253D01*
X77135Y134362D01*
X77187Y134466D01*
X77234Y134560D01*
X77280Y134643D01*
X77296Y134680D01*
X77317Y134711D01*
X77327Y134737D01*
X77338Y134753D01*
X77348Y134763D01*
Y134768D01*
X77426Y134893D01*
X77499Y135003D01*
X77567Y135102D01*
X77629Y135180D01*
X77681Y135247D01*
X77718Y135294D01*
X77744Y135320D01*
X77754Y135331D01*
X74000D01*
Y135919D01*
X78822D01*
Y135539D01*
D02*
G37*
G36*
X77541Y133123D02*
X77666Y133107D01*
X77775Y133081D01*
X77874Y133055D01*
X77952Y133024D01*
X77989Y133014D01*
X78015Y133003D01*
X78035Y132993D01*
X78051Y132982D01*
X78061Y132977D01*
X78067D01*
X78176Y132920D01*
X78264Y132857D01*
X78348Y132790D01*
X78410Y132732D01*
X78462Y132675D01*
X78499Y132633D01*
X78525Y132602D01*
X78530Y132597D01*
Y132592D01*
X78587Y132498D01*
X78634Y132399D01*
X78676Y132300D01*
X78707Y132206D01*
X78733Y132123D01*
X78738Y132087D01*
X78749Y132056D01*
X78754Y132035D01*
Y132014D01*
X78759Y132003D01*
Y131998D01*
X78770Y131951D01*
X78775Y131894D01*
X78785Y131779D01*
X78796Y131660D01*
X78801Y131540D01*
X78806Y131436D01*
Y129457D01*
X74000D01*
Y130092D01*
X75953D01*
Y131321D01*
X75958Y131509D01*
X75974Y131675D01*
X75994Y131832D01*
X76020Y131977D01*
X76052Y132102D01*
X76088Y132222D01*
X76125Y132321D01*
X76166Y132415D01*
X76203Y132493D01*
X76239Y132561D01*
X76276Y132618D01*
X76307Y132660D01*
X76338Y132696D01*
X76359Y132717D01*
X76369Y132732D01*
X76374Y132738D01*
X76458Y132805D01*
X76541Y132868D01*
X76630Y132920D01*
X76718Y132962D01*
X76807Y133003D01*
X76890Y133034D01*
X76973Y133060D01*
X77051Y133081D01*
X77129Y133097D01*
X77197Y133107D01*
X77254Y133118D01*
X77306Y133123D01*
X77353Y133128D01*
X77385D01*
X77405D01*
X77411D01*
X77541Y133123D01*
D02*
G37*
G36*
X78806Y125000D02*
X78239D01*
Y126583D01*
X74000D01*
Y127218D01*
X78239D01*
Y128801D01*
X78806D01*
Y125000D01*
D02*
G37*
G36*
X-33000Y118000D02*
X-33846D01*
Y120843D01*
X-34935D01*
X-35032Y120836D01*
X-35115Y120829D01*
X-35184D01*
X-35233Y120822D01*
X-35268Y120815D01*
X-35288Y120808D01*
X-35295D01*
X-35371Y120787D01*
X-35441Y120760D01*
X-35503Y120732D01*
X-35566Y120704D01*
X-35614Y120677D01*
X-35649Y120656D01*
X-35677Y120642D01*
X-35684Y120635D01*
X-35753Y120586D01*
X-35829Y120517D01*
X-35905Y120448D01*
X-35968Y120378D01*
X-36030Y120316D01*
X-36072Y120260D01*
X-36100Y120226D01*
X-36114Y120219D01*
Y120212D01*
X-36210Y120087D01*
X-36315Y119949D01*
X-36412Y119803D01*
X-36509Y119657D01*
X-36592Y119532D01*
X-36634Y119477D01*
X-36661Y119428D01*
X-36689Y119387D01*
X-36710Y119359D01*
X-36717Y119338D01*
X-36724Y119331D01*
X-37570Y118000D01*
X-38631D01*
X-37521Y119740D01*
X-37396Y119921D01*
X-37271Y120087D01*
X-37154Y120233D01*
X-37050Y120358D01*
X-36959Y120455D01*
X-36918Y120496D01*
X-36883Y120531D01*
X-36855Y120559D01*
X-36835Y120580D01*
X-36828Y120586D01*
X-36821Y120593D01*
X-36751Y120649D01*
X-36668Y120711D01*
X-36585Y120760D01*
X-36502Y120808D01*
X-36425Y120850D01*
X-36363Y120885D01*
X-36321Y120905D01*
X-36315Y120912D01*
X-36308D01*
X-36474Y120940D01*
X-36634Y120975D01*
X-36779Y121016D01*
X-36911Y121058D01*
X-37036Y121107D01*
X-37147Y121155D01*
X-37244Y121204D01*
X-37334Y121252D01*
X-37417Y121301D01*
X-37486Y121349D01*
X-37542Y121391D01*
X-37590Y121426D01*
X-37625Y121460D01*
X-37653Y121481D01*
X-37667Y121495D01*
X-37674Y121502D01*
X-37750Y121592D01*
X-37819Y121682D01*
X-37882Y121779D01*
X-37930Y121876D01*
X-37972Y121973D01*
X-38006Y122070D01*
X-38062Y122251D01*
X-38083Y122334D01*
X-38097Y122410D01*
X-38104Y122479D01*
X-38110Y122542D01*
X-38117Y122584D01*
Y122625D01*
Y122646D01*
Y122653D01*
X-38104Y122847D01*
X-38076Y123027D01*
X-38034Y123187D01*
X-37986Y123332D01*
X-37958Y123395D01*
X-37930Y123450D01*
X-37909Y123499D01*
X-37889Y123540D01*
X-37875Y123575D01*
X-37861Y123596D01*
X-37847Y123610D01*
Y123617D01*
X-37743Y123769D01*
X-37625Y123894D01*
X-37507Y124005D01*
X-37389Y124088D01*
X-37292Y124151D01*
X-37209Y124192D01*
X-37174Y124206D01*
X-37154Y124220D01*
X-37140Y124227D01*
X-37133D01*
X-37043Y124255D01*
X-36953Y124282D01*
X-36744Y124324D01*
X-36530Y124359D01*
X-36321Y124380D01*
X-36218Y124386D01*
X-36127Y124393D01*
X-36051D01*
X-35975Y124400D01*
X-33000D01*
Y118000D01*
D02*
G37*
G36*
X-41051Y124414D02*
X-40905Y124400D01*
X-40773Y124380D01*
X-40641Y124345D01*
X-40524Y124310D01*
X-40420Y124269D01*
X-40316Y124227D01*
X-40225Y124185D01*
X-40142Y124137D01*
X-40073Y124095D01*
X-40010Y124053D01*
X-39962Y124019D01*
X-39920Y123984D01*
X-39893Y123963D01*
X-39879Y123949D01*
X-39872Y123943D01*
X-39782Y123853D01*
X-39705Y123755D01*
X-39643Y123658D01*
X-39581Y123561D01*
X-39532Y123457D01*
X-39497Y123360D01*
X-39463Y123270D01*
X-39435Y123180D01*
X-39414Y123090D01*
X-39400Y123013D01*
X-39386Y122944D01*
X-39379Y122889D01*
Y122840D01*
X-39372Y122799D01*
Y122778D01*
Y122771D01*
X-39379Y122604D01*
X-39407Y122452D01*
X-39449Y122313D01*
X-39490Y122195D01*
X-39532Y122105D01*
X-39574Y122036D01*
X-39588Y122008D01*
X-39601Y121987D01*
X-39608Y121980D01*
Y121973D01*
X-39705Y121855D01*
X-39823Y121758D01*
X-39941Y121668D01*
X-40059Y121599D01*
X-40163Y121543D01*
X-40212Y121516D01*
X-40253Y121502D01*
X-40281Y121488D01*
X-40309Y121474D01*
X-40322Y121467D01*
X-40329D01*
X-40121Y121398D01*
X-39941Y121314D01*
X-39789Y121217D01*
X-39664Y121120D01*
X-39608Y121079D01*
X-39560Y121030D01*
X-39518Y120996D01*
X-39490Y120961D01*
X-39463Y120933D01*
X-39442Y120912D01*
X-39435Y120899D01*
X-39428Y120892D01*
X-39372Y120808D01*
X-39324Y120725D01*
X-39248Y120552D01*
X-39192Y120378D01*
X-39158Y120219D01*
X-39144Y120143D01*
X-39130Y120073D01*
X-39123Y120011D01*
Y119955D01*
X-39116Y119914D01*
Y119879D01*
Y119858D01*
Y119851D01*
X-39123Y119699D01*
X-39144Y119553D01*
X-39171Y119408D01*
X-39206Y119276D01*
X-39248Y119158D01*
X-39296Y119040D01*
X-39352Y118936D01*
X-39407Y118839D01*
X-39456Y118749D01*
X-39511Y118673D01*
X-39560Y118610D01*
X-39601Y118555D01*
X-39636Y118506D01*
X-39664Y118478D01*
X-39685Y118458D01*
X-39692Y118451D01*
X-39802Y118354D01*
X-39927Y118270D01*
X-40052Y118194D01*
X-40177Y118132D01*
X-40309Y118076D01*
X-40434Y118035D01*
X-40558Y117993D01*
X-40676Y117965D01*
X-40787Y117944D01*
X-40891Y117924D01*
X-40988Y117910D01*
X-41065Y117903D01*
X-41134D01*
X-41182Y117896D01*
X-41224D01*
X-41397Y117903D01*
X-41564Y117917D01*
X-41716Y117944D01*
X-41862Y117986D01*
X-41994Y118028D01*
X-42119Y118069D01*
X-42236Y118125D01*
X-42340Y118173D01*
X-42431Y118222D01*
X-42514Y118277D01*
X-42583Y118319D01*
X-42646Y118368D01*
X-42687Y118402D01*
X-42722Y118430D01*
X-42743Y118444D01*
X-42750Y118451D01*
X-42853Y118555D01*
X-42944Y118673D01*
X-43020Y118784D01*
X-43089Y118901D01*
X-43145Y119019D01*
X-43193Y119130D01*
X-43228Y119241D01*
X-43263Y119352D01*
X-43283Y119449D01*
X-43304Y119539D01*
X-43311Y119623D01*
X-43325Y119692D01*
Y119754D01*
X-43332Y119796D01*
Y119824D01*
Y119831D01*
Y119942D01*
X-43318Y120046D01*
X-43283Y120240D01*
X-43235Y120413D01*
X-43179Y120559D01*
X-43145Y120621D01*
X-43117Y120677D01*
X-43089Y120725D01*
X-43068Y120767D01*
X-43048Y120801D01*
X-43034Y120822D01*
X-43027Y120836D01*
X-43020Y120843D01*
X-42895Y120996D01*
X-42750Y121120D01*
X-42604Y121231D01*
X-42458Y121314D01*
X-42326Y121384D01*
X-42271Y121412D01*
X-42222Y121432D01*
X-42181Y121446D01*
X-42153Y121460D01*
X-42132Y121467D01*
X-42125D01*
X-42292Y121543D01*
X-42438Y121620D01*
X-42555Y121710D01*
X-42659Y121786D01*
X-42736Y121862D01*
X-42791Y121918D01*
X-42819Y121959D01*
X-42833Y121966D01*
Y121973D01*
X-42909Y122105D01*
X-42971Y122237D01*
X-43013Y122368D01*
X-43041Y122486D01*
X-43055Y122590D01*
X-43061Y122639D01*
X-43068Y122674D01*
Y122708D01*
Y122729D01*
Y122743D01*
Y122750D01*
X-43061Y122875D01*
X-43048Y123000D01*
X-43020Y123117D01*
X-42985Y123228D01*
X-42951Y123332D01*
X-42909Y123429D01*
X-42860Y123520D01*
X-42812Y123603D01*
X-42763Y123672D01*
X-42715Y123742D01*
X-42673Y123797D01*
X-42639Y123846D01*
X-42604Y123880D01*
X-42576Y123908D01*
X-42562Y123922D01*
X-42555Y123929D01*
X-42458Y124019D01*
X-42347Y124088D01*
X-42243Y124158D01*
X-42125Y124213D01*
X-42014Y124262D01*
X-41904Y124303D01*
X-41793Y124331D01*
X-41689Y124359D01*
X-41585Y124380D01*
X-41494Y124393D01*
X-41411Y124407D01*
X-41342Y124414D01*
X-41286Y124421D01*
X-41203D01*
X-41051Y124414D01*
D02*
G37*
G36*
X34513Y124262D02*
X34616Y124109D01*
X34734Y123963D01*
X34852Y123839D01*
X34956Y123721D01*
X35005Y123679D01*
X35040Y123638D01*
X35074Y123603D01*
X35102Y123582D01*
X35116Y123568D01*
X35123Y123561D01*
X35310Y123402D01*
X35511Y123263D01*
X35705Y123131D01*
X35886Y123020D01*
X35962Y122979D01*
X36038Y122937D01*
X36107Y122895D01*
X36163Y122868D01*
X36211Y122847D01*
X36246Y122826D01*
X36267Y122819D01*
X36274Y122812D01*
Y122057D01*
X36135Y122112D01*
X35989Y122174D01*
X35851Y122244D01*
X35726Y122306D01*
X35615Y122368D01*
X35566Y122389D01*
X35525Y122417D01*
X35490Y122431D01*
X35469Y122445D01*
X35456Y122459D01*
X35449D01*
X35282Y122563D01*
X35137Y122660D01*
X35005Y122750D01*
X34901Y122833D01*
X34811Y122902D01*
X34748Y122951D01*
X34714Y122986D01*
X34700Y123000D01*
Y118000D01*
X33916D01*
Y124421D01*
X34422D01*
X34513Y124262D01*
D02*
G37*
G36*
X43000Y118000D02*
X42154D01*
Y120843D01*
X41065D01*
X40968Y120836D01*
X40885Y120829D01*
X40816D01*
X40767Y120822D01*
X40732Y120815D01*
X40712Y120808D01*
X40705D01*
X40628Y120787D01*
X40559Y120760D01*
X40497Y120732D01*
X40434Y120704D01*
X40386Y120677D01*
X40351Y120656D01*
X40323Y120642D01*
X40317Y120635D01*
X40247Y120586D01*
X40171Y120517D01*
X40095Y120448D01*
X40032Y120378D01*
X39970Y120316D01*
X39928Y120260D01*
X39900Y120226D01*
X39887Y120219D01*
Y120212D01*
X39790Y120087D01*
X39685Y119949D01*
X39588Y119803D01*
X39491Y119657D01*
X39408Y119532D01*
X39367Y119477D01*
X39339Y119428D01*
X39311Y119387D01*
X39290Y119359D01*
X39283Y119338D01*
X39276Y119331D01*
X38430Y118000D01*
X37369D01*
X38479Y119740D01*
X38604Y119921D01*
X38728Y120087D01*
X38846Y120233D01*
X38950Y120358D01*
X39041Y120455D01*
X39082Y120496D01*
X39117Y120531D01*
X39145Y120559D01*
X39165Y120580D01*
X39172Y120586D01*
X39179Y120593D01*
X39249Y120649D01*
X39332Y120711D01*
X39415Y120760D01*
X39498Y120808D01*
X39574Y120850D01*
X39637Y120885D01*
X39678Y120905D01*
X39685Y120912D01*
X39692D01*
X39526Y120940D01*
X39367Y120975D01*
X39221Y121016D01*
X39089Y121058D01*
X38964Y121107D01*
X38853Y121155D01*
X38756Y121204D01*
X38666Y121252D01*
X38583Y121301D01*
X38514Y121349D01*
X38458Y121391D01*
X38410Y121426D01*
X38375Y121460D01*
X38347Y121481D01*
X38333Y121495D01*
X38326Y121502D01*
X38250Y121592D01*
X38181Y121682D01*
X38118Y121779D01*
X38070Y121876D01*
X38028Y121973D01*
X37994Y122070D01*
X37938Y122251D01*
X37917Y122334D01*
X37903Y122410D01*
X37896Y122479D01*
X37889Y122542D01*
X37883Y122584D01*
Y122625D01*
Y122646D01*
Y122653D01*
X37896Y122847D01*
X37924Y123027D01*
X37966Y123187D01*
X38014Y123332D01*
X38042Y123395D01*
X38070Y123450D01*
X38091Y123499D01*
X38111Y123540D01*
X38125Y123575D01*
X38139Y123596D01*
X38153Y123610D01*
Y123617D01*
X38257Y123769D01*
X38375Y123894D01*
X38493Y124005D01*
X38611Y124088D01*
X38708Y124151D01*
X38791Y124192D01*
X38826Y124206D01*
X38846Y124220D01*
X38860Y124227D01*
X38867D01*
X38957Y124255D01*
X39048Y124282D01*
X39255Y124324D01*
X39471Y124359D01*
X39678Y124380D01*
X39783Y124386D01*
X39873Y124393D01*
X39949D01*
X40025Y124400D01*
X43000D01*
Y118000D01*
D02*
G37*
G36*
X105254Y10876D02*
X109400D01*
Y10231D01*
X105254Y7305D01*
X104532D01*
Y10092D01*
X103000D01*
Y10876D01*
X104532D01*
Y11743D01*
X105254D01*
Y10876D01*
D02*
G37*
G36*
X106266Y3928D02*
X105510D01*
Y5807D01*
X104311D01*
X104220Y5696D01*
X104144Y5571D01*
X104068Y5440D01*
X103998Y5308D01*
X103943Y5190D01*
X103915Y5141D01*
X103895Y5100D01*
X103881Y5058D01*
X103867Y5030D01*
X103860Y5016D01*
Y5010D01*
X103791Y4815D01*
X103742Y4621D01*
X103700Y4441D01*
X103680Y4281D01*
X103673Y4205D01*
X103666Y4143D01*
X103659Y4087D01*
Y4039D01*
X103652Y3997D01*
Y3942D01*
X103666Y3706D01*
X103693Y3484D01*
X103742Y3283D01*
X103763Y3186D01*
X103791Y3103D01*
X103818Y3026D01*
X103839Y2957D01*
X103867Y2895D01*
X103888Y2839D01*
X103901Y2798D01*
X103915Y2770D01*
X103929Y2749D01*
Y2742D01*
X103985Y2638D01*
X104047Y2541D01*
X104179Y2375D01*
X104324Y2229D01*
X104463Y2104D01*
X104588Y2014D01*
X104643Y1972D01*
X104685Y1945D01*
X104727Y1917D01*
X104754Y1903D01*
X104775Y1896D01*
X104782Y1889D01*
X105011Y1792D01*
X105254Y1723D01*
X105489Y1667D01*
X105718Y1633D01*
X105822Y1626D01*
X105919Y1612D01*
X106003Y1605D01*
X106079D01*
X106134Y1598D01*
X106183D01*
X106210D01*
X106217D01*
X106474Y1612D01*
X106717Y1640D01*
X106932Y1674D01*
X107036Y1695D01*
X107126Y1723D01*
X107209Y1744D01*
X107285Y1764D01*
X107348Y1785D01*
X107403Y1806D01*
X107452Y1820D01*
X107479Y1834D01*
X107500Y1841D01*
X107507D01*
X107632Y1896D01*
X107750Y1958D01*
X107861Y2028D01*
X107951Y2090D01*
X108027Y2146D01*
X108090Y2194D01*
X108124Y2222D01*
X108138Y2236D01*
X108242Y2340D01*
X108332Y2458D01*
X108416Y2569D01*
X108485Y2680D01*
X108540Y2777D01*
X108575Y2853D01*
X108589Y2881D01*
X108603Y2902D01*
X108610Y2916D01*
Y2922D01*
X108672Y3089D01*
X108714Y3255D01*
X108748Y3429D01*
X108769Y3581D01*
X108776Y3657D01*
X108783Y3720D01*
Y3782D01*
X108790Y3831D01*
Y3928D01*
X108783Y4101D01*
X108762Y4268D01*
X108735Y4413D01*
X108707Y4545D01*
X108672Y4649D01*
X108658Y4698D01*
X108644Y4732D01*
X108631Y4760D01*
X108624Y4781D01*
X108617Y4795D01*
Y4802D01*
X108547Y4940D01*
X108478Y5065D01*
X108402Y5169D01*
X108332Y5259D01*
X108263Y5322D01*
X108215Y5370D01*
X108180Y5405D01*
X108166Y5412D01*
X108055Y5488D01*
X107930Y5557D01*
X107805Y5620D01*
X107681Y5675D01*
X107570Y5717D01*
X107521Y5731D01*
X107486Y5745D01*
X107452Y5759D01*
X107424Y5765D01*
X107410Y5772D01*
X107403D01*
X107611Y6542D01*
X107840Y6473D01*
X108048Y6396D01*
X108138Y6355D01*
X108228Y6313D01*
X108305Y6278D01*
X108374Y6237D01*
X108443Y6202D01*
X108499Y6168D01*
X108547Y6133D01*
X108589Y6112D01*
X108617Y6084D01*
X108638Y6071D01*
X108651Y6064D01*
X108658Y6057D01*
X108804Y5925D01*
X108929Y5786D01*
X109033Y5641D01*
X109123Y5495D01*
X109192Y5370D01*
X109220Y5315D01*
X109241Y5266D01*
X109262Y5232D01*
X109275Y5204D01*
X109282Y5183D01*
Y5176D01*
X109359Y4961D01*
X109414Y4746D01*
X109456Y4531D01*
X109483Y4337D01*
X109490Y4247D01*
X109497Y4171D01*
X109504Y4101D01*
X109511Y4039D01*
Y3921D01*
X109504Y3748D01*
X109497Y3574D01*
X109476Y3408D01*
X109449Y3255D01*
X109421Y3103D01*
X109386Y2964D01*
X109352Y2832D01*
X109317Y2714D01*
X109275Y2610D01*
X109241Y2513D01*
X109206Y2430D01*
X109178Y2361D01*
X109151Y2305D01*
X109130Y2264D01*
X109123Y2236D01*
X109116Y2229D01*
X109040Y2097D01*
X108949Y1972D01*
X108859Y1855D01*
X108762Y1751D01*
X108658Y1646D01*
X108561Y1556D01*
X108464Y1473D01*
X108367Y1397D01*
X108270Y1335D01*
X108187Y1272D01*
X108111Y1223D01*
X108041Y1182D01*
X107986Y1154D01*
X107944Y1133D01*
X107916Y1120D01*
X107909Y1113D01*
X107757Y1043D01*
X107604Y988D01*
X107452Y932D01*
X107299Y891D01*
X107008Y821D01*
X106869Y794D01*
X106737Y773D01*
X106620Y759D01*
X106509Y745D01*
X106412Y738D01*
X106328Y731D01*
X106259Y724D01*
X106210D01*
X106183D01*
X106169D01*
X105996Y731D01*
X105822Y738D01*
X105663Y759D01*
X105503Y787D01*
X105358Y814D01*
X105212Y849D01*
X105080Y884D01*
X104962Y918D01*
X104851Y953D01*
X104754Y988D01*
X104671Y1022D01*
X104595Y1050D01*
X104539Y1078D01*
X104498Y1099D01*
X104470Y1106D01*
X104463Y1113D01*
X104324Y1189D01*
X104193Y1279D01*
X104075Y1369D01*
X103957Y1459D01*
X103853Y1556D01*
X103763Y1653D01*
X103673Y1751D01*
X103596Y1841D01*
X103527Y1931D01*
X103465Y2014D01*
X103416Y2090D01*
X103374Y2153D01*
X103340Y2201D01*
X103319Y2243D01*
X103305Y2271D01*
X103298Y2278D01*
X103229Y2423D01*
X103166Y2576D01*
X103111Y2721D01*
X103069Y2867D01*
X103028Y3020D01*
X102993Y3158D01*
X102965Y3297D01*
X102944Y3422D01*
X102931Y3539D01*
X102917Y3650D01*
X102910Y3748D01*
X102903Y3831D01*
X102896Y3900D01*
Y3990D01*
X102910Y4247D01*
X102938Y4496D01*
X102972Y4725D01*
X103000Y4829D01*
X103021Y4933D01*
X103042Y5023D01*
X103069Y5100D01*
X103090Y5176D01*
X103104Y5232D01*
X103125Y5287D01*
X103132Y5322D01*
X103146Y5342D01*
Y5349D01*
X103250Y5599D01*
X103368Y5835D01*
X103492Y6050D01*
X103555Y6154D01*
X103610Y6244D01*
X103666Y6327D01*
X103721Y6403D01*
X103763Y6473D01*
X103804Y6528D01*
X103839Y6577D01*
X103867Y6611D01*
X103881Y6632D01*
X103888Y6639D01*
X106266D01*
Y3928D01*
D02*
G37*
G36*
X109400Y-5003D02*
X108644D01*
Y-2895D01*
X103000D01*
Y-2049D01*
X108644D01*
Y59D01*
X109400D01*
Y-5003D01*
D02*
G37*
G36*
Y-7028D02*
X104949Y-8568D01*
X104824Y-8609D01*
X104713Y-8651D01*
X104602Y-8686D01*
X104505Y-8720D01*
X104408Y-8748D01*
X104324Y-8776D01*
X104248Y-8803D01*
X104179Y-8824D01*
X104123Y-8845D01*
X104068Y-8859D01*
X104026Y-8873D01*
X103985Y-8887D01*
X103957Y-8893D01*
X103936Y-8900D01*
X103929Y-8907D01*
X103922D01*
X103985Y-8928D01*
X104054Y-8949D01*
X104200Y-8997D01*
X104359Y-9046D01*
X104512Y-9095D01*
X104650Y-9143D01*
X104713Y-9164D01*
X104761Y-9178D01*
X104803Y-9192D01*
X104838Y-9205D01*
X104858Y-9212D01*
X104865D01*
X109400Y-10731D01*
Y-12000D01*
X103000D01*
Y-11182D01*
X108450D01*
X103000Y-9337D01*
Y-8575D01*
X108360Y-6702D01*
X103000D01*
Y-5884D01*
X109400D01*
Y-7028D01*
D02*
G37*
G36*
X-106835Y13791D02*
X-106634Y13756D01*
X-106461Y13701D01*
X-106385Y13673D01*
X-106315Y13645D01*
X-106246Y13617D01*
X-106190Y13590D01*
X-106142Y13562D01*
X-106107Y13534D01*
X-106073Y13513D01*
X-106052Y13499D01*
X-106038Y13493D01*
X-106031Y13486D01*
X-105885Y13361D01*
X-105767Y13215D01*
X-105677Y13070D01*
X-105601Y12931D01*
X-105546Y12799D01*
X-105525Y12744D01*
X-105511Y12702D01*
X-105497Y12660D01*
X-105490Y12633D01*
X-105483Y12612D01*
Y12605D01*
X-105400Y12758D01*
X-105317Y12889D01*
X-105227Y13007D01*
X-105136Y13097D01*
X-105060Y13174D01*
X-104998Y13222D01*
X-104956Y13257D01*
X-104949Y13264D01*
X-104942D01*
X-104810Y13340D01*
X-104679Y13396D01*
X-104554Y13437D01*
X-104436Y13465D01*
X-104339Y13479D01*
X-104256Y13493D01*
X-104228D01*
X-104207D01*
X-104193D01*
X-104186D01*
X-104027Y13486D01*
X-103874Y13458D01*
X-103736Y13416D01*
X-103611Y13375D01*
X-103507Y13333D01*
X-103465Y13312D01*
X-103431Y13291D01*
X-103403Y13278D01*
X-103375Y13264D01*
X-103368Y13257D01*
X-103361D01*
X-103223Y13160D01*
X-103105Y13049D01*
X-103001Y12938D01*
X-102911Y12827D01*
X-102841Y12730D01*
X-102793Y12653D01*
X-102772Y12619D01*
X-102758Y12598D01*
X-102751Y12584D01*
Y12577D01*
X-102675Y12411D01*
X-102619Y12244D01*
X-102578Y12078D01*
X-102550Y11932D01*
X-102536Y11801D01*
X-102529Y11752D01*
X-102522Y11703D01*
Y11613D01*
X-102529Y11475D01*
X-102543Y11343D01*
X-102564Y11218D01*
X-102592Y11093D01*
X-102626Y10982D01*
X-102661Y10878D01*
X-102703Y10781D01*
X-102737Y10698D01*
X-102779Y10615D01*
X-102820Y10546D01*
X-102855Y10490D01*
X-102890Y10435D01*
X-102917Y10400D01*
X-102938Y10365D01*
X-102952Y10351D01*
X-102959Y10344D01*
X-103042Y10254D01*
X-103139Y10171D01*
X-103237Y10095D01*
X-103334Y10026D01*
X-103438Y9963D01*
X-103535Y9915D01*
X-103736Y9824D01*
X-103826Y9790D01*
X-103909Y9762D01*
X-103985Y9741D01*
X-104048Y9720D01*
X-104103Y9707D01*
X-104145Y9700D01*
X-104173Y9693D01*
X-104179D01*
X-104318Y10476D01*
X-104117Y10518D01*
X-103944Y10573D01*
X-103791Y10636D01*
X-103673Y10705D01*
X-103576Y10761D01*
X-103514Y10816D01*
X-103472Y10851D01*
X-103458Y10864D01*
X-103361Y10989D01*
X-103292Y11114D01*
X-103237Y11246D01*
X-103202Y11364D01*
X-103181Y11475D01*
X-103174Y11516D01*
Y11558D01*
X-103167Y11593D01*
Y11634D01*
X-103181Y11801D01*
X-103209Y11946D01*
X-103257Y12078D01*
X-103306Y12189D01*
X-103361Y12272D01*
X-103410Y12335D01*
X-103438Y12376D01*
X-103451Y12390D01*
X-103507Y12445D01*
X-103562Y12487D01*
X-103687Y12563D01*
X-103805Y12619D01*
X-103916Y12653D01*
X-104020Y12674D01*
X-104096Y12681D01*
X-104131Y12688D01*
X-104152D01*
X-104166D01*
X-104173D01*
X-104270Y12681D01*
X-104360Y12667D01*
X-104450Y12653D01*
X-104526Y12626D01*
X-104665Y12556D01*
X-104776Y12487D01*
X-104866Y12411D01*
X-104928Y12342D01*
X-104949Y12314D01*
X-104963Y12300D01*
X-104977Y12286D01*
Y12279D01*
X-105067Y12126D01*
X-105129Y11967D01*
X-105178Y11815D01*
X-105206Y11676D01*
X-105227Y11558D01*
X-105233Y11509D01*
Y11461D01*
X-105240Y11426D01*
Y11336D01*
X-105233Y11294D01*
X-105227Y11260D01*
Y11246D01*
X-105913Y11163D01*
X-105885Y11280D01*
X-105864Y11392D01*
X-105851Y11482D01*
X-105837Y11565D01*
Y11627D01*
X-105830Y11676D01*
Y11717D01*
X-105837Y11815D01*
X-105844Y11912D01*
X-105885Y12085D01*
X-105941Y12237D01*
X-106003Y12369D01*
X-106073Y12473D01*
X-106100Y12515D01*
X-106128Y12550D01*
X-106149Y12577D01*
X-106170Y12598D01*
X-106177Y12605D01*
X-106184Y12612D01*
X-106253Y12674D01*
X-106322Y12730D01*
X-106391Y12778D01*
X-106468Y12820D01*
X-106613Y12882D01*
X-106759Y12931D01*
X-106884Y12952D01*
X-106932Y12959D01*
X-106981Y12966D01*
X-107016Y12973D01*
X-107050D01*
X-107064D01*
X-107071D01*
X-107175Y12966D01*
X-107272Y12959D01*
X-107459Y12910D01*
X-107619Y12855D01*
X-107758Y12785D01*
X-107820Y12744D01*
X-107868Y12709D01*
X-107917Y12681D01*
X-107952Y12653D01*
X-107979Y12626D01*
X-108000Y12605D01*
X-108014Y12598D01*
X-108021Y12591D01*
X-108090Y12515D01*
X-108146Y12439D01*
X-108194Y12362D01*
X-108243Y12286D01*
X-108312Y12126D01*
X-108354Y11974D01*
X-108382Y11849D01*
X-108389Y11787D01*
X-108396Y11745D01*
X-108403Y11703D01*
Y11648D01*
X-108389Y11482D01*
X-108354Y11322D01*
X-108312Y11190D01*
X-108257Y11072D01*
X-108201Y10975D01*
X-108160Y10906D01*
X-108139Y10885D01*
X-108125Y10864D01*
X-108111Y10858D01*
Y10851D01*
X-108049Y10795D01*
X-107986Y10740D01*
X-107841Y10643D01*
X-107681Y10566D01*
X-107522Y10504D01*
X-107376Y10455D01*
X-107314Y10441D01*
X-107258Y10428D01*
X-107210Y10414D01*
X-107175Y10407D01*
X-107154Y10400D01*
X-107147D01*
X-107251Y9616D01*
X-107397Y9637D01*
X-107536Y9665D01*
X-107667Y9707D01*
X-107792Y9748D01*
X-107910Y9797D01*
X-108014Y9852D01*
X-108118Y9908D01*
X-108201Y9963D01*
X-108285Y10019D01*
X-108354Y10067D01*
X-108416Y10116D01*
X-108465Y10157D01*
X-108506Y10199D01*
X-108534Y10227D01*
X-108548Y10240D01*
X-108555Y10247D01*
X-108645Y10351D01*
X-108721Y10469D01*
X-108784Y10580D01*
X-108846Y10698D01*
X-108895Y10816D01*
X-108929Y10934D01*
X-108964Y11045D01*
X-108992Y11156D01*
X-109013Y11260D01*
X-109026Y11350D01*
X-109040Y11433D01*
X-109047Y11509D01*
Y11565D01*
X-109054Y11613D01*
Y11648D01*
X-109047Y11821D01*
X-109026Y11981D01*
X-108999Y12134D01*
X-108964Y12279D01*
X-108923Y12418D01*
X-108874Y12543D01*
X-108819Y12660D01*
X-108763Y12765D01*
X-108715Y12861D01*
X-108659Y12945D01*
X-108610Y13021D01*
X-108569Y13076D01*
X-108534Y13125D01*
X-108506Y13160D01*
X-108486Y13181D01*
X-108479Y13188D01*
X-108368Y13298D01*
X-108250Y13389D01*
X-108132Y13472D01*
X-108007Y13541D01*
X-107889Y13604D01*
X-107771Y13652D01*
X-107661Y13694D01*
X-107549Y13728D01*
X-107445Y13756D01*
X-107355Y13770D01*
X-107272Y13784D01*
X-107196Y13798D01*
X-107140D01*
X-107092Y13805D01*
X-107064D01*
X-107057D01*
X-106946D01*
X-106835Y13791D01*
D02*
G37*
G36*
X-105677Y5969D02*
X-106433D01*
Y7848D01*
X-107633D01*
X-107723Y7737D01*
X-107799Y7612D01*
X-107875Y7481D01*
X-107945Y7349D01*
X-108000Y7231D01*
X-108028Y7182D01*
X-108049Y7141D01*
X-108063Y7099D01*
X-108076Y7071D01*
X-108083Y7058D01*
Y7051D01*
X-108153Y6856D01*
X-108201Y6662D01*
X-108243Y6482D01*
X-108264Y6323D01*
X-108271Y6246D01*
X-108278Y6184D01*
X-108285Y6128D01*
Y6080D01*
X-108292Y6038D01*
Y5983D01*
X-108278Y5747D01*
X-108250Y5525D01*
X-108201Y5324D01*
X-108181Y5227D01*
X-108153Y5144D01*
X-108125Y5067D01*
X-108104Y4998D01*
X-108076Y4936D01*
X-108056Y4880D01*
X-108042Y4839D01*
X-108028Y4811D01*
X-108014Y4790D01*
Y4783D01*
X-107959Y4679D01*
X-107896Y4582D01*
X-107765Y4416D01*
X-107619Y4270D01*
X-107480Y4145D01*
X-107355Y4055D01*
X-107300Y4013D01*
X-107258Y3986D01*
X-107217Y3958D01*
X-107189Y3944D01*
X-107168Y3937D01*
X-107161Y3930D01*
X-106932Y3833D01*
X-106690Y3764D01*
X-106454Y3708D01*
X-106225Y3674D01*
X-106121Y3667D01*
X-106024Y3653D01*
X-105941Y3646D01*
X-105864D01*
X-105809Y3639D01*
X-105760D01*
X-105733D01*
X-105726D01*
X-105469Y3653D01*
X-105227Y3681D01*
X-105012Y3715D01*
X-104908Y3736D01*
X-104817Y3764D01*
X-104734Y3785D01*
X-104658Y3805D01*
X-104596Y3826D01*
X-104540Y3847D01*
X-104492Y3861D01*
X-104464Y3875D01*
X-104443Y3882D01*
X-104436D01*
X-104311Y3937D01*
X-104193Y4000D01*
X-104082Y4069D01*
X-103992Y4131D01*
X-103916Y4187D01*
X-103854Y4235D01*
X-103819Y4263D01*
X-103805Y4277D01*
X-103701Y4381D01*
X-103611Y4499D01*
X-103528Y4610D01*
X-103458Y4721D01*
X-103403Y4818D01*
X-103368Y4894D01*
X-103354Y4922D01*
X-103341Y4943D01*
X-103334Y4957D01*
Y4963D01*
X-103271Y5130D01*
X-103230Y5296D01*
X-103195Y5470D01*
X-103174Y5622D01*
X-103167Y5699D01*
X-103160Y5761D01*
Y5823D01*
X-103153Y5872D01*
Y5969D01*
X-103160Y6142D01*
X-103181Y6309D01*
X-103209Y6454D01*
X-103237Y6586D01*
X-103271Y6690D01*
X-103285Y6739D01*
X-103299Y6773D01*
X-103313Y6801D01*
X-103320Y6822D01*
X-103327Y6836D01*
Y6843D01*
X-103396Y6981D01*
X-103465Y7106D01*
X-103542Y7210D01*
X-103611Y7300D01*
X-103680Y7363D01*
X-103729Y7411D01*
X-103764Y7446D01*
X-103777Y7453D01*
X-103888Y7529D01*
X-104013Y7599D01*
X-104138Y7661D01*
X-104263Y7716D01*
X-104374Y7758D01*
X-104422Y7772D01*
X-104457Y7786D01*
X-104492Y7800D01*
X-104519Y7807D01*
X-104533Y7813D01*
X-104540D01*
X-104332Y8583D01*
X-104103Y8514D01*
X-103895Y8438D01*
X-103805Y8396D01*
X-103715Y8354D01*
X-103639Y8320D01*
X-103569Y8278D01*
X-103500Y8243D01*
X-103444Y8209D01*
X-103396Y8174D01*
X-103354Y8153D01*
X-103327Y8126D01*
X-103306Y8112D01*
X-103292Y8105D01*
X-103285Y8098D01*
X-103139Y7966D01*
X-103015Y7827D01*
X-102911Y7682D01*
X-102820Y7536D01*
X-102751Y7411D01*
X-102723Y7356D01*
X-102703Y7307D01*
X-102682Y7273D01*
X-102668Y7245D01*
X-102661Y7224D01*
Y7217D01*
X-102585Y7002D01*
X-102529Y6787D01*
X-102488Y6572D01*
X-102460Y6378D01*
X-102453Y6288D01*
X-102446Y6212D01*
X-102439Y6142D01*
X-102432Y6080D01*
Y5962D01*
X-102439Y5789D01*
X-102446Y5615D01*
X-102467Y5449D01*
X-102494Y5296D01*
X-102522Y5144D01*
X-102557Y5005D01*
X-102592Y4873D01*
X-102626Y4755D01*
X-102668Y4651D01*
X-102703Y4554D01*
X-102737Y4471D01*
X-102765Y4402D01*
X-102793Y4346D01*
X-102814Y4305D01*
X-102820Y4277D01*
X-102827Y4270D01*
X-102904Y4138D01*
X-102994Y4013D01*
X-103084Y3896D01*
X-103181Y3792D01*
X-103285Y3688D01*
X-103382Y3598D01*
X-103479Y3514D01*
X-103576Y3438D01*
X-103673Y3376D01*
X-103757Y3313D01*
X-103833Y3265D01*
X-103902Y3223D01*
X-103958Y3195D01*
X-103999Y3174D01*
X-104027Y3161D01*
X-104034Y3154D01*
X-104186Y3084D01*
X-104339Y3029D01*
X-104492Y2973D01*
X-104644Y2932D01*
X-104935Y2862D01*
X-105074Y2835D01*
X-105206Y2814D01*
X-105324Y2800D01*
X-105435Y2786D01*
X-105532Y2779D01*
X-105615Y2772D01*
X-105684Y2765D01*
X-105733D01*
X-105760D01*
X-105774D01*
X-105948Y2772D01*
X-106121Y2779D01*
X-106281Y2800D01*
X-106440Y2828D01*
X-106586Y2855D01*
X-106731Y2890D01*
X-106863Y2925D01*
X-106981Y2959D01*
X-107092Y2994D01*
X-107189Y3029D01*
X-107272Y3063D01*
X-107348Y3091D01*
X-107404Y3119D01*
X-107445Y3140D01*
X-107473Y3147D01*
X-107480Y3154D01*
X-107619Y3230D01*
X-107751Y3320D01*
X-107868Y3410D01*
X-107986Y3500D01*
X-108090Y3598D01*
X-108181Y3695D01*
X-108271Y3792D01*
X-108347Y3882D01*
X-108416Y3972D01*
X-108479Y4055D01*
X-108527Y4131D01*
X-108569Y4194D01*
X-108603Y4242D01*
X-108624Y4284D01*
X-108638Y4312D01*
X-108645Y4319D01*
X-108715Y4464D01*
X-108777Y4617D01*
X-108832Y4762D01*
X-108874Y4908D01*
X-108916Y5061D01*
X-108950Y5199D01*
X-108978Y5338D01*
X-108999Y5463D01*
X-109013Y5581D01*
X-109026Y5692D01*
X-109033Y5789D01*
X-109040Y5872D01*
X-109047Y5941D01*
Y6031D01*
X-109033Y6288D01*
X-109006Y6538D01*
X-108971Y6766D01*
X-108943Y6870D01*
X-108923Y6974D01*
X-108902Y7065D01*
X-108874Y7141D01*
X-108853Y7217D01*
X-108839Y7273D01*
X-108819Y7328D01*
X-108812Y7363D01*
X-108798Y7383D01*
Y7390D01*
X-108694Y7640D01*
X-108576Y7876D01*
X-108451Y8091D01*
X-108389Y8195D01*
X-108333Y8285D01*
X-108278Y8368D01*
X-108222Y8444D01*
X-108181Y8514D01*
X-108139Y8569D01*
X-108104Y8618D01*
X-108076Y8652D01*
X-108063Y8673D01*
X-108056Y8680D01*
X-105677D01*
Y5969D01*
D02*
G37*
G36*
X-102543Y-2962D02*
X-103299D01*
Y-854D01*
X-108943D01*
Y-8D01*
X-103299D01*
Y2100D01*
X-102543D01*
Y-2962D01*
D02*
G37*
G36*
Y-4987D02*
X-106995Y-6526D01*
X-107120Y-6568D01*
X-107231Y-6610D01*
X-107341Y-6644D01*
X-107439Y-6679D01*
X-107536Y-6707D01*
X-107619Y-6734D01*
X-107695Y-6762D01*
X-107765Y-6783D01*
X-107820Y-6804D01*
X-107875Y-6818D01*
X-107917Y-6832D01*
X-107959Y-6845D01*
X-107986Y-6852D01*
X-108007Y-6859D01*
X-108014Y-6866D01*
X-108021D01*
X-107959Y-6887D01*
X-107889Y-6908D01*
X-107744Y-6956D01*
X-107584Y-7005D01*
X-107432Y-7053D01*
X-107293Y-7102D01*
X-107231Y-7123D01*
X-107182Y-7137D01*
X-107140Y-7151D01*
X-107106Y-7164D01*
X-107085Y-7171D01*
X-107078D01*
X-102543Y-8690D01*
Y-9959D01*
X-108943D01*
Y-9141D01*
X-103493D01*
X-108943Y-7296D01*
Y-6533D01*
X-103583Y-4661D01*
X-108943D01*
Y-3843D01*
X-102543D01*
Y-4987D01*
D02*
G37*
G36*
X102756Y133546D02*
X102908Y133657D01*
X102978Y133713D01*
X103040Y133768D01*
X103096Y133816D01*
X103137Y133851D01*
X103165Y133879D01*
X103172Y133886D01*
X103214Y133927D01*
X103269Y133983D01*
X103324Y134045D01*
X103387Y134115D01*
X103525Y134260D01*
X103657Y134413D01*
X103782Y134558D01*
X103838Y134621D01*
X103886Y134683D01*
X103928Y134725D01*
X103955Y134767D01*
X103976Y134787D01*
X103983Y134794D01*
X104115Y134947D01*
X104240Y135092D01*
X104351Y135224D01*
X104462Y135342D01*
X104559Y135453D01*
X104656Y135550D01*
X104739Y135640D01*
X104815Y135723D01*
X104878Y135793D01*
X104940Y135848D01*
X104989Y135897D01*
X105030Y135938D01*
X105065Y135966D01*
X105086Y135994D01*
X105100Y136001D01*
X105106Y136008D01*
X105259Y136139D01*
X105398Y136243D01*
X105529Y136334D01*
X105647Y136410D01*
X105744Y136465D01*
X105821Y136507D01*
X105849Y136521D01*
X105869Y136528D01*
X105876Y136535D01*
X105883D01*
X106022Y136590D01*
X106160Y136625D01*
X106285Y136653D01*
X106403Y136673D01*
X106500Y136687D01*
X106577Y136694D01*
X106604D01*
X106625D01*
X106632D01*
X106639D01*
X106778Y136687D01*
X106909Y136673D01*
X107034Y136646D01*
X107159Y136611D01*
X107270Y136569D01*
X107374Y136521D01*
X107471Y136472D01*
X107554Y136424D01*
X107638Y136375D01*
X107707Y136327D01*
X107769Y136278D01*
X107818Y136236D01*
X107852Y136202D01*
X107887Y136174D01*
X107901Y136160D01*
X107908Y136153D01*
X107998Y136049D01*
X108074Y135938D01*
X108144Y135821D01*
X108206Y135696D01*
X108255Y135578D01*
X108296Y135453D01*
X108331Y135335D01*
X108359Y135217D01*
X108379Y135113D01*
X108393Y135009D01*
X108407Y134919D01*
X108414Y134843D01*
X108421Y134780D01*
Y134690D01*
X108414Y134524D01*
X108400Y134364D01*
X108379Y134219D01*
X108345Y134080D01*
X108310Y133948D01*
X108268Y133830D01*
X108227Y133719D01*
X108185Y133622D01*
X108137Y133532D01*
X108095Y133456D01*
X108054Y133387D01*
X108019Y133331D01*
X107984Y133289D01*
X107963Y133262D01*
X107949Y133241D01*
X107943Y133234D01*
X107852Y133137D01*
X107748Y133054D01*
X107644Y132977D01*
X107527Y132908D01*
X107416Y132853D01*
X107305Y132797D01*
X107187Y132755D01*
X107083Y132721D01*
X106979Y132686D01*
X106882Y132665D01*
X106791Y132645D01*
X106715Y132631D01*
X106653Y132624D01*
X106611Y132617D01*
X106583Y132610D01*
X106570D01*
X106486Y133414D01*
X106597Y133421D01*
X106701Y133428D01*
X106882Y133470D01*
X107048Y133525D01*
X107117Y133553D01*
X107180Y133588D01*
X107235Y133615D01*
X107284Y133650D01*
X107325Y133678D01*
X107360Y133699D01*
X107388Y133726D01*
X107409Y133740D01*
X107416Y133747D01*
X107423Y133754D01*
X107485Y133823D01*
X107540Y133893D01*
X107582Y133969D01*
X107624Y134045D01*
X107686Y134198D01*
X107728Y134344D01*
X107748Y134468D01*
X107762Y134524D01*
Y134572D01*
X107769Y134614D01*
Y134767D01*
X107755Y134864D01*
X107721Y135037D01*
X107665Y135183D01*
X107610Y135314D01*
X107547Y135411D01*
X107520Y135453D01*
X107492Y135488D01*
X107471Y135515D01*
X107457Y135536D01*
X107450Y135543D01*
X107443Y135550D01*
X107381Y135612D01*
X107318Y135661D01*
X107256Y135709D01*
X107187Y135744D01*
X107055Y135807D01*
X106930Y135848D01*
X106826Y135869D01*
X106778Y135883D01*
X106736D01*
X106708Y135890D01*
X106681D01*
X106667D01*
X106660D01*
X106577Y135883D01*
X106493Y135876D01*
X106327Y135834D01*
X106167Y135772D01*
X106022Y135703D01*
X105897Y135633D01*
X105849Y135605D01*
X105800Y135571D01*
X105765Y135550D01*
X105737Y135529D01*
X105724Y135522D01*
X105717Y135515D01*
X105620Y135439D01*
X105516Y135349D01*
X105405Y135245D01*
X105294Y135134D01*
X105065Y134905D01*
X104850Y134669D01*
X104746Y134558D01*
X104656Y134447D01*
X104573Y134350D01*
X104503Y134267D01*
X104441Y134198D01*
X104399Y134149D01*
X104365Y134115D01*
X104358Y134101D01*
X104254Y133976D01*
X104157Y133865D01*
X104066Y133754D01*
X103976Y133657D01*
X103893Y133560D01*
X103810Y133477D01*
X103741Y133400D01*
X103671Y133331D01*
X103609Y133269D01*
X103553Y133220D01*
X103505Y133172D01*
X103470Y133137D01*
X103435Y133102D01*
X103415Y133081D01*
X103401Y133075D01*
X103394Y133068D01*
X103241Y132943D01*
X103089Y132839D01*
X102943Y132749D01*
X102811Y132679D01*
X102700Y132624D01*
X102652Y132603D01*
X102617Y132582D01*
X102583Y132568D01*
X102562Y132561D01*
X102548Y132554D01*
X102541D01*
X102444Y132520D01*
X102347Y132499D01*
X102257Y132478D01*
X102173Y132471D01*
X102104Y132464D01*
X102049D01*
X102014D01*
X102000D01*
Y136701D01*
X102756D01*
Y133546D01*
D02*
G37*
G36*
X105266Y128928D02*
X104510D01*
Y130807D01*
X103311D01*
X103220Y130696D01*
X103144Y130571D01*
X103068Y130440D01*
X102999Y130308D01*
X102943Y130190D01*
X102915Y130141D01*
X102894Y130100D01*
X102881Y130058D01*
X102867Y130030D01*
X102860Y130016D01*
Y130010D01*
X102790Y129815D01*
X102742Y129621D01*
X102700Y129441D01*
X102680Y129282D01*
X102673Y129205D01*
X102666Y129143D01*
X102659Y129087D01*
Y129039D01*
X102652Y128997D01*
Y128942D01*
X102666Y128706D01*
X102693Y128484D01*
X102742Y128283D01*
X102763Y128186D01*
X102790Y128103D01*
X102818Y128026D01*
X102839Y127957D01*
X102867Y127895D01*
X102888Y127839D01*
X102901Y127798D01*
X102915Y127770D01*
X102929Y127749D01*
Y127742D01*
X102985Y127638D01*
X103047Y127541D01*
X103179Y127375D01*
X103324Y127229D01*
X103463Y127104D01*
X103588Y127014D01*
X103643Y126972D01*
X103685Y126945D01*
X103727Y126917D01*
X103754Y126903D01*
X103775Y126896D01*
X103782Y126889D01*
X104011Y126792D01*
X104254Y126723D01*
X104489Y126667D01*
X104718Y126633D01*
X104822Y126626D01*
X104919Y126612D01*
X105002Y126605D01*
X105079D01*
X105134Y126598D01*
X105183D01*
X105211D01*
X105218D01*
X105474Y126612D01*
X105717Y126640D01*
X105932Y126674D01*
X106036Y126695D01*
X106126Y126723D01*
X106209Y126744D01*
X106285Y126764D01*
X106348Y126785D01*
X106403Y126806D01*
X106452Y126820D01*
X106480Y126834D01*
X106500Y126841D01*
X106507D01*
X106632Y126896D01*
X106750Y126959D01*
X106861Y127028D01*
X106951Y127090D01*
X107027Y127146D01*
X107090Y127194D01*
X107124Y127222D01*
X107138Y127236D01*
X107242Y127340D01*
X107332Y127458D01*
X107416Y127569D01*
X107485Y127680D01*
X107540Y127777D01*
X107575Y127853D01*
X107589Y127881D01*
X107603Y127902D01*
X107610Y127915D01*
Y127922D01*
X107672Y128089D01*
X107714Y128255D01*
X107748Y128429D01*
X107769Y128581D01*
X107776Y128657D01*
X107783Y128720D01*
Y128782D01*
X107790Y128831D01*
Y128928D01*
X107783Y129101D01*
X107762Y129268D01*
X107735Y129413D01*
X107707Y129545D01*
X107672Y129649D01*
X107658Y129698D01*
X107644Y129732D01*
X107631Y129760D01*
X107624Y129781D01*
X107617Y129795D01*
Y129802D01*
X107547Y129940D01*
X107478Y130065D01*
X107402Y130169D01*
X107332Y130259D01*
X107263Y130322D01*
X107214Y130370D01*
X107180Y130405D01*
X107166Y130412D01*
X107055Y130488D01*
X106930Y130557D01*
X106805Y130620D01*
X106681Y130675D01*
X106570Y130717D01*
X106521Y130731D01*
X106486Y130745D01*
X106452Y130758D01*
X106424Y130765D01*
X106410Y130772D01*
X106403D01*
X106611Y131542D01*
X106840Y131473D01*
X107048Y131396D01*
X107138Y131355D01*
X107228Y131313D01*
X107305Y131279D01*
X107374Y131237D01*
X107443Y131202D01*
X107499Y131168D01*
X107547Y131133D01*
X107589Y131112D01*
X107617Y131084D01*
X107638Y131070D01*
X107651Y131064D01*
X107658Y131057D01*
X107804Y130925D01*
X107929Y130786D01*
X108033Y130641D01*
X108123Y130495D01*
X108192Y130370D01*
X108220Y130315D01*
X108241Y130266D01*
X108262Y130232D01*
X108275Y130204D01*
X108282Y130183D01*
Y130176D01*
X108359Y129961D01*
X108414Y129746D01*
X108456Y129531D01*
X108483Y129337D01*
X108490Y129247D01*
X108497Y129171D01*
X108504Y129101D01*
X108511Y129039D01*
Y128921D01*
X108504Y128748D01*
X108497Y128574D01*
X108476Y128408D01*
X108449Y128255D01*
X108421Y128103D01*
X108386Y127964D01*
X108352Y127832D01*
X108317Y127714D01*
X108275Y127610D01*
X108241Y127513D01*
X108206Y127430D01*
X108178Y127361D01*
X108151Y127305D01*
X108130Y127264D01*
X108123Y127236D01*
X108116Y127229D01*
X108040Y127097D01*
X107949Y126972D01*
X107859Y126854D01*
X107762Y126750D01*
X107658Y126646D01*
X107561Y126556D01*
X107464Y126473D01*
X107367Y126397D01*
X107270Y126334D01*
X107187Y126272D01*
X107111Y126223D01*
X107041Y126182D01*
X106986Y126154D01*
X106944Y126133D01*
X106916Y126119D01*
X106909Y126113D01*
X106757Y126043D01*
X106604Y125988D01*
X106452Y125932D01*
X106299Y125891D01*
X106008Y125821D01*
X105869Y125794D01*
X105737Y125773D01*
X105620Y125759D01*
X105509Y125745D01*
X105412Y125738D01*
X105328Y125731D01*
X105259Y125724D01*
X105211D01*
X105183D01*
X105169D01*
X104996Y125731D01*
X104822Y125738D01*
X104663Y125759D01*
X104503Y125787D01*
X104358Y125814D01*
X104212Y125849D01*
X104080Y125884D01*
X103962Y125918D01*
X103851Y125953D01*
X103754Y125988D01*
X103671Y126022D01*
X103595Y126050D01*
X103539Y126078D01*
X103498Y126099D01*
X103470Y126106D01*
X103463Y126113D01*
X103324Y126189D01*
X103193Y126279D01*
X103075Y126369D01*
X102957Y126459D01*
X102853Y126556D01*
X102763Y126653D01*
X102673Y126750D01*
X102596Y126841D01*
X102527Y126931D01*
X102465Y127014D01*
X102416Y127090D01*
X102374Y127153D01*
X102340Y127201D01*
X102319Y127243D01*
X102305Y127271D01*
X102298Y127277D01*
X102229Y127423D01*
X102166Y127576D01*
X102111Y127721D01*
X102069Y127867D01*
X102028Y128020D01*
X101993Y128158D01*
X101965Y128297D01*
X101945Y128422D01*
X101931Y128539D01*
X101917Y128651D01*
X101910Y128748D01*
X101903Y128831D01*
X101896Y128900D01*
Y128990D01*
X101910Y129247D01*
X101938Y129496D01*
X101972Y129725D01*
X102000Y129829D01*
X102021Y129933D01*
X102042Y130023D01*
X102069Y130100D01*
X102090Y130176D01*
X102104Y130232D01*
X102125Y130287D01*
X102132Y130322D01*
X102146Y130342D01*
Y130349D01*
X102250Y130599D01*
X102367Y130835D01*
X102492Y131050D01*
X102555Y131154D01*
X102610Y131244D01*
X102666Y131327D01*
X102721Y131403D01*
X102763Y131473D01*
X102804Y131528D01*
X102839Y131577D01*
X102867Y131611D01*
X102881Y131632D01*
X102888Y131639D01*
X105266D01*
Y128928D01*
D02*
G37*
G36*
X108400Y119997D02*
X107644D01*
Y122105D01*
X102000D01*
Y122951D01*
X107644D01*
Y125059D01*
X108400D01*
Y119997D01*
D02*
G37*
G36*
Y117972D02*
X103948Y116432D01*
X103824Y116391D01*
X103713Y116349D01*
X103602Y116315D01*
X103505Y116280D01*
X103408Y116252D01*
X103324Y116224D01*
X103248Y116197D01*
X103179Y116176D01*
X103123Y116155D01*
X103068Y116141D01*
X103026Y116127D01*
X102985Y116114D01*
X102957Y116107D01*
X102936Y116100D01*
X102929Y116093D01*
X102922D01*
X102985Y116072D01*
X103054Y116051D01*
X103200Y116003D01*
X103359Y115954D01*
X103512Y115905D01*
X103650Y115857D01*
X103713Y115836D01*
X103761Y115822D01*
X103803Y115808D01*
X103838Y115794D01*
X103858Y115788D01*
X103865D01*
X108400Y114269D01*
Y113000D01*
X102000D01*
Y113818D01*
X107450D01*
X102000Y115663D01*
Y116426D01*
X107360Y118298D01*
X102000D01*
Y119116D01*
X108400D01*
Y117972D01*
D02*
G37*
G36*
X-103579Y134023D02*
X-103738Y133933D01*
X-103891Y133829D01*
X-104037Y133711D01*
X-104161Y133593D01*
X-104279Y133489D01*
X-104321Y133441D01*
X-104362Y133406D01*
X-104397Y133371D01*
X-104418Y133343D01*
X-104432Y133330D01*
X-104439Y133323D01*
X-104598Y133135D01*
X-104737Y132934D01*
X-104869Y132740D01*
X-104980Y132560D01*
X-105021Y132484D01*
X-105063Y132407D01*
X-105105Y132338D01*
X-105132Y132282D01*
X-105153Y132234D01*
X-105174Y132199D01*
X-105181Y132178D01*
X-105188Y132172D01*
X-105943D01*
X-105888Y132310D01*
X-105826Y132456D01*
X-105756Y132595D01*
X-105694Y132719D01*
X-105632Y132830D01*
X-105611Y132879D01*
X-105583Y132921D01*
X-105569Y132955D01*
X-105555Y132976D01*
X-105541Y132990D01*
Y132997D01*
X-105437Y133163D01*
X-105340Y133309D01*
X-105250Y133441D01*
X-105167Y133545D01*
X-105098Y133635D01*
X-105049Y133697D01*
X-105014Y133732D01*
X-105000Y133746D01*
X-110000D01*
Y134529D01*
X-103579D01*
Y134023D01*
D02*
G37*
G36*
X-106734Y127928D02*
X-107490D01*
Y129807D01*
X-108689D01*
X-108780Y129696D01*
X-108856Y129571D01*
X-108932Y129439D01*
X-109002Y129308D01*
X-109057Y129190D01*
X-109085Y129141D01*
X-109106Y129100D01*
X-109119Y129058D01*
X-109133Y129030D01*
X-109140Y129017D01*
Y129010D01*
X-109209Y128815D01*
X-109258Y128621D01*
X-109300Y128441D01*
X-109320Y128281D01*
X-109327Y128205D01*
X-109334Y128143D01*
X-109341Y128087D01*
Y128039D01*
X-109348Y127997D01*
Y127942D01*
X-109334Y127706D01*
X-109307Y127484D01*
X-109258Y127283D01*
X-109237Y127186D01*
X-109209Y127103D01*
X-109182Y127026D01*
X-109161Y126957D01*
X-109133Y126895D01*
X-109112Y126839D01*
X-109099Y126798D01*
X-109085Y126770D01*
X-109071Y126749D01*
Y126742D01*
X-109015Y126638D01*
X-108953Y126541D01*
X-108821Y126375D01*
X-108676Y126229D01*
X-108537Y126104D01*
X-108412Y126014D01*
X-108357Y125972D01*
X-108315Y125945D01*
X-108273Y125917D01*
X-108246Y125903D01*
X-108225Y125896D01*
X-108218Y125889D01*
X-107989Y125792D01*
X-107746Y125723D01*
X-107511Y125667D01*
X-107282Y125633D01*
X-107178Y125626D01*
X-107081Y125612D01*
X-106997Y125605D01*
X-106921D01*
X-106866Y125598D01*
X-106817D01*
X-106790D01*
X-106783D01*
X-106526Y125612D01*
X-106283Y125640D01*
X-106068Y125674D01*
X-105964Y125695D01*
X-105874Y125723D01*
X-105791Y125744D01*
X-105715Y125764D01*
X-105652Y125785D01*
X-105597Y125806D01*
X-105548Y125820D01*
X-105520Y125834D01*
X-105500Y125841D01*
X-105493D01*
X-105368Y125896D01*
X-105250Y125958D01*
X-105139Y126028D01*
X-105049Y126090D01*
X-104973Y126146D01*
X-104910Y126194D01*
X-104876Y126222D01*
X-104862Y126236D01*
X-104758Y126340D01*
X-104668Y126458D01*
X-104584Y126569D01*
X-104515Y126680D01*
X-104460Y126777D01*
X-104425Y126853D01*
X-104411Y126881D01*
X-104397Y126902D01*
X-104390Y126916D01*
Y126922D01*
X-104328Y127089D01*
X-104286Y127255D01*
X-104252Y127429D01*
X-104231Y127581D01*
X-104224Y127657D01*
X-104217Y127720D01*
Y127782D01*
X-104210Y127831D01*
Y127928D01*
X-104217Y128101D01*
X-104238Y128268D01*
X-104265Y128413D01*
X-104293Y128545D01*
X-104328Y128649D01*
X-104342Y128698D01*
X-104356Y128732D01*
X-104369Y128760D01*
X-104376Y128781D01*
X-104383Y128795D01*
Y128802D01*
X-104453Y128940D01*
X-104522Y129065D01*
X-104598Y129169D01*
X-104668Y129259D01*
X-104737Y129322D01*
X-104785Y129370D01*
X-104820Y129405D01*
X-104834Y129412D01*
X-104945Y129488D01*
X-105070Y129557D01*
X-105195Y129620D01*
X-105319Y129675D01*
X-105430Y129717D01*
X-105479Y129731D01*
X-105514Y129745D01*
X-105548Y129759D01*
X-105576Y129765D01*
X-105590Y129772D01*
X-105597D01*
X-105389Y130542D01*
X-105160Y130473D01*
X-104952Y130396D01*
X-104862Y130355D01*
X-104772Y130313D01*
X-104695Y130279D01*
X-104626Y130237D01*
X-104557Y130202D01*
X-104501Y130168D01*
X-104453Y130133D01*
X-104411Y130112D01*
X-104383Y130084D01*
X-104362Y130070D01*
X-104349Y130064D01*
X-104342Y130057D01*
X-104196Y129925D01*
X-104071Y129786D01*
X-103967Y129641D01*
X-103877Y129495D01*
X-103808Y129370D01*
X-103780Y129315D01*
X-103759Y129266D01*
X-103738Y129232D01*
X-103725Y129204D01*
X-103718Y129183D01*
Y129176D01*
X-103641Y128961D01*
X-103586Y128746D01*
X-103544Y128531D01*
X-103517Y128337D01*
X-103510Y128247D01*
X-103503Y128171D01*
X-103496Y128101D01*
X-103489Y128039D01*
Y127921D01*
X-103496Y127748D01*
X-103503Y127574D01*
X-103524Y127408D01*
X-103551Y127255D01*
X-103579Y127103D01*
X-103614Y126964D01*
X-103648Y126832D01*
X-103683Y126714D01*
X-103725Y126610D01*
X-103759Y126513D01*
X-103794Y126430D01*
X-103822Y126361D01*
X-103849Y126305D01*
X-103870Y126264D01*
X-103877Y126236D01*
X-103884Y126229D01*
X-103960Y126097D01*
X-104051Y125972D01*
X-104141Y125855D01*
X-104238Y125751D01*
X-104342Y125646D01*
X-104439Y125556D01*
X-104536Y125473D01*
X-104633Y125397D01*
X-104730Y125335D01*
X-104813Y125272D01*
X-104889Y125224D01*
X-104959Y125182D01*
X-105014Y125154D01*
X-105056Y125133D01*
X-105084Y125119D01*
X-105091Y125113D01*
X-105243Y125043D01*
X-105396Y124988D01*
X-105548Y124932D01*
X-105701Y124891D01*
X-105992Y124821D01*
X-106131Y124794D01*
X-106263Y124773D01*
X-106380Y124759D01*
X-106491Y124745D01*
X-106588Y124738D01*
X-106672Y124731D01*
X-106741Y124724D01*
X-106790D01*
X-106817D01*
X-106831D01*
X-107004Y124731D01*
X-107178Y124738D01*
X-107337Y124759D01*
X-107497Y124787D01*
X-107642Y124814D01*
X-107788Y124849D01*
X-107920Y124884D01*
X-108038Y124918D01*
X-108149Y124953D01*
X-108246Y124988D01*
X-108329Y125022D01*
X-108405Y125050D01*
X-108461Y125078D01*
X-108502Y125099D01*
X-108530Y125106D01*
X-108537Y125113D01*
X-108676Y125189D01*
X-108807Y125279D01*
X-108925Y125369D01*
X-109043Y125459D01*
X-109147Y125556D01*
X-109237Y125653D01*
X-109327Y125751D01*
X-109404Y125841D01*
X-109473Y125931D01*
X-109535Y126014D01*
X-109584Y126090D01*
X-109626Y126153D01*
X-109660Y126201D01*
X-109681Y126243D01*
X-109695Y126271D01*
X-109702Y126278D01*
X-109771Y126423D01*
X-109834Y126576D01*
X-109889Y126721D01*
X-109931Y126867D01*
X-109972Y127020D01*
X-110007Y127158D01*
X-110035Y127297D01*
X-110056Y127422D01*
X-110069Y127540D01*
X-110083Y127650D01*
X-110090Y127748D01*
X-110097Y127831D01*
X-110104Y127900D01*
Y127990D01*
X-110090Y128247D01*
X-110062Y128497D01*
X-110028Y128725D01*
X-110000Y128829D01*
X-109979Y128933D01*
X-109958Y129024D01*
X-109931Y129100D01*
X-109910Y129176D01*
X-109896Y129232D01*
X-109875Y129287D01*
X-109868Y129322D01*
X-109854Y129342D01*
Y129349D01*
X-109750Y129599D01*
X-109633Y129835D01*
X-109508Y130050D01*
X-109445Y130154D01*
X-109390Y130244D01*
X-109334Y130327D01*
X-109279Y130403D01*
X-109237Y130473D01*
X-109196Y130528D01*
X-109161Y130577D01*
X-109133Y130611D01*
X-109119Y130632D01*
X-109112Y130639D01*
X-106734D01*
Y127928D01*
D02*
G37*
G36*
X-103600Y118997D02*
X-104356D01*
Y121105D01*
X-110000D01*
Y121951D01*
X-104356D01*
Y124059D01*
X-103600D01*
Y118997D01*
D02*
G37*
G36*
Y116972D02*
X-108052Y115432D01*
X-108176Y115391D01*
X-108287Y115349D01*
X-108398Y115315D01*
X-108495Y115280D01*
X-108592Y115252D01*
X-108676Y115224D01*
X-108752Y115197D01*
X-108821Y115176D01*
X-108877Y115155D01*
X-108932Y115141D01*
X-108974Y115127D01*
X-109015Y115113D01*
X-109043Y115106D01*
X-109064Y115100D01*
X-109071Y115093D01*
X-109078D01*
X-109015Y115072D01*
X-108946Y115051D01*
X-108800Y115002D01*
X-108641Y114954D01*
X-108488Y114905D01*
X-108350Y114857D01*
X-108287Y114836D01*
X-108239Y114822D01*
X-108197Y114808D01*
X-108162Y114795D01*
X-108142Y114788D01*
X-108135D01*
X-103600Y113269D01*
Y112000D01*
X-110000D01*
Y112818D01*
X-104550D01*
X-110000Y114663D01*
Y115426D01*
X-104640Y117298D01*
X-110000D01*
Y118116D01*
X-103600D01*
Y116972D01*
D02*
G37*
G36*
X-111383Y-48444D02*
X-111232Y-48470D01*
X-111102Y-48512D01*
X-111045Y-48533D01*
X-110992Y-48554D01*
X-110941Y-48575D01*
X-110899Y-48595D01*
X-110862Y-48616D01*
X-110836Y-48637D01*
X-110810Y-48653D01*
X-110795Y-48663D01*
X-110784Y-48668D01*
X-110779Y-48674D01*
X-110670Y-48767D01*
X-110581Y-48877D01*
X-110513Y-48986D01*
X-110456Y-49090D01*
X-110415Y-49189D01*
X-110399Y-49231D01*
X-110388Y-49262D01*
X-110378Y-49293D01*
X-110373Y-49314D01*
X-110368Y-49330D01*
Y-49335D01*
X-110305Y-49220D01*
X-110243Y-49121D01*
X-110175Y-49033D01*
X-110107Y-48965D01*
X-110050Y-48908D01*
X-110003Y-48871D01*
X-109972Y-48845D01*
X-109967Y-48840D01*
X-109962D01*
X-109863Y-48783D01*
X-109764Y-48741D01*
X-109670Y-48710D01*
X-109581Y-48689D01*
X-109508Y-48679D01*
X-109446Y-48668D01*
X-109425D01*
X-109410D01*
X-109399D01*
X-109394D01*
X-109274Y-48674D01*
X-109160Y-48694D01*
X-109056Y-48726D01*
X-108962Y-48757D01*
X-108884Y-48788D01*
X-108853Y-48804D01*
X-108826Y-48819D01*
X-108806Y-48830D01*
X-108785Y-48840D01*
X-108780Y-48845D01*
X-108774D01*
X-108670Y-48918D01*
X-108582Y-49002D01*
X-108504Y-49085D01*
X-108436Y-49168D01*
X-108384Y-49241D01*
X-108347Y-49298D01*
X-108332Y-49324D01*
X-108321Y-49340D01*
X-108316Y-49350D01*
Y-49356D01*
X-108259Y-49481D01*
X-108217Y-49606D01*
X-108186Y-49731D01*
X-108165Y-49840D01*
X-108155Y-49939D01*
X-108149Y-49975D01*
X-108144Y-50012D01*
Y-50079D01*
X-108149Y-50184D01*
X-108160Y-50283D01*
X-108176Y-50376D01*
X-108196Y-50470D01*
X-108222Y-50553D01*
X-108248Y-50631D01*
X-108280Y-50704D01*
X-108306Y-50767D01*
X-108337Y-50829D01*
X-108368Y-50881D01*
X-108394Y-50923D01*
X-108420Y-50965D01*
X-108441Y-50991D01*
X-108457Y-51017D01*
X-108467Y-51027D01*
X-108472Y-51032D01*
X-108535Y-51100D01*
X-108608Y-51163D01*
X-108681Y-51220D01*
X-108753Y-51272D01*
X-108832Y-51319D01*
X-108904Y-51355D01*
X-109056Y-51423D01*
X-109123Y-51449D01*
X-109186Y-51470D01*
X-109243Y-51485D01*
X-109290Y-51501D01*
X-109332Y-51511D01*
X-109363Y-51516D01*
X-109384Y-51522D01*
X-109389D01*
X-109493Y-50933D01*
X-109342Y-50902D01*
X-109212Y-50861D01*
X-109097Y-50814D01*
X-109009Y-50761D01*
X-108936Y-50720D01*
X-108889Y-50678D01*
X-108858Y-50652D01*
X-108847Y-50642D01*
X-108774Y-50548D01*
X-108722Y-50454D01*
X-108681Y-50355D01*
X-108655Y-50267D01*
X-108639Y-50184D01*
X-108634Y-50152D01*
Y-50121D01*
X-108629Y-50095D01*
Y-50064D01*
X-108639Y-49939D01*
X-108660Y-49830D01*
X-108696Y-49731D01*
X-108733Y-49647D01*
X-108774Y-49585D01*
X-108811Y-49538D01*
X-108832Y-49507D01*
X-108842Y-49496D01*
X-108884Y-49455D01*
X-108925Y-49423D01*
X-109019Y-49366D01*
X-109108Y-49324D01*
X-109191Y-49298D01*
X-109269Y-49283D01*
X-109326Y-49278D01*
X-109352Y-49272D01*
X-109368D01*
X-109378D01*
X-109384D01*
X-109457Y-49278D01*
X-109524Y-49288D01*
X-109592Y-49298D01*
X-109649Y-49319D01*
X-109753Y-49371D01*
X-109837Y-49423D01*
X-109904Y-49481D01*
X-109951Y-49533D01*
X-109967Y-49553D01*
X-109977Y-49564D01*
X-109988Y-49574D01*
Y-49580D01*
X-110055Y-49694D01*
X-110102Y-49814D01*
X-110139Y-49928D01*
X-110159Y-50033D01*
X-110175Y-50121D01*
X-110180Y-50157D01*
Y-50194D01*
X-110185Y-50220D01*
Y-50288D01*
X-110180Y-50319D01*
X-110175Y-50345D01*
Y-50355D01*
X-110690Y-50418D01*
X-110670Y-50329D01*
X-110654Y-50246D01*
X-110644Y-50178D01*
X-110633Y-50116D01*
Y-50069D01*
X-110628Y-50033D01*
Y-50001D01*
X-110633Y-49928D01*
X-110639Y-49855D01*
X-110670Y-49725D01*
X-110711Y-49611D01*
X-110758Y-49512D01*
X-110810Y-49434D01*
X-110831Y-49402D01*
X-110852Y-49377D01*
X-110868Y-49356D01*
X-110883Y-49340D01*
X-110888Y-49335D01*
X-110894Y-49330D01*
X-110946Y-49283D01*
X-110998Y-49241D01*
X-111050Y-49205D01*
X-111107Y-49173D01*
X-111216Y-49127D01*
X-111326Y-49090D01*
X-111419Y-49075D01*
X-111456Y-49069D01*
X-111492Y-49064D01*
X-111518Y-49059D01*
X-111545D01*
X-111555D01*
X-111560D01*
X-111638Y-49064D01*
X-111711Y-49069D01*
X-111852Y-49106D01*
X-111972Y-49147D01*
X-112076Y-49199D01*
X-112122Y-49231D01*
X-112159Y-49257D01*
X-112195Y-49278D01*
X-112221Y-49298D01*
X-112242Y-49319D01*
X-112258Y-49335D01*
X-112268Y-49340D01*
X-112274Y-49345D01*
X-112325Y-49402D01*
X-112367Y-49460D01*
X-112404Y-49517D01*
X-112440Y-49574D01*
X-112492Y-49694D01*
X-112523Y-49809D01*
X-112544Y-49902D01*
X-112549Y-49949D01*
X-112555Y-49981D01*
X-112560Y-50012D01*
Y-50053D01*
X-112549Y-50178D01*
X-112523Y-50298D01*
X-112492Y-50397D01*
X-112451Y-50486D01*
X-112409Y-50558D01*
X-112378Y-50610D01*
X-112362Y-50626D01*
X-112352Y-50642D01*
X-112341Y-50647D01*
Y-50652D01*
X-112294Y-50694D01*
X-112247Y-50736D01*
X-112138Y-50808D01*
X-112018Y-50866D01*
X-111899Y-50912D01*
X-111789Y-50949D01*
X-111742Y-50959D01*
X-111701Y-50970D01*
X-111664Y-50980D01*
X-111638Y-50985D01*
X-111623Y-50991D01*
X-111617D01*
X-111695Y-51579D01*
X-111805Y-51563D01*
X-111909Y-51543D01*
X-112008Y-51511D01*
X-112102Y-51480D01*
X-112190Y-51444D01*
X-112268Y-51402D01*
X-112346Y-51360D01*
X-112409Y-51319D01*
X-112471Y-51277D01*
X-112523Y-51241D01*
X-112570Y-51204D01*
X-112607Y-51173D01*
X-112638Y-51142D01*
X-112659Y-51121D01*
X-112669Y-51110D01*
X-112674Y-51105D01*
X-112742Y-51027D01*
X-112799Y-50939D01*
X-112846Y-50855D01*
X-112893Y-50767D01*
X-112929Y-50678D01*
X-112956Y-50590D01*
X-112982Y-50506D01*
X-113002Y-50423D01*
X-113018Y-50345D01*
X-113028Y-50277D01*
X-113039Y-50215D01*
X-113044Y-50157D01*
Y-50116D01*
X-113049Y-50079D01*
Y-50053D01*
X-113044Y-49923D01*
X-113028Y-49803D01*
X-113008Y-49689D01*
X-112982Y-49580D01*
X-112950Y-49475D01*
X-112914Y-49382D01*
X-112872Y-49293D01*
X-112831Y-49215D01*
X-112794Y-49142D01*
X-112753Y-49080D01*
X-112716Y-49022D01*
X-112685Y-48981D01*
X-112659Y-48944D01*
X-112638Y-48918D01*
X-112622Y-48903D01*
X-112617Y-48897D01*
X-112534Y-48814D01*
X-112445Y-48746D01*
X-112357Y-48684D01*
X-112263Y-48632D01*
X-112175Y-48585D01*
X-112086Y-48548D01*
X-112003Y-48517D01*
X-111919Y-48491D01*
X-111841Y-48470D01*
X-111774Y-48460D01*
X-111711Y-48450D01*
X-111654Y-48439D01*
X-111612D01*
X-111576Y-48434D01*
X-111555D01*
X-111550D01*
X-111466D01*
X-111383Y-48444D01*
D02*
G37*
G36*
X-110305Y-52230D02*
X-110196Y-52235D01*
X-110092Y-52251D01*
X-109993Y-52266D01*
X-109899Y-52282D01*
X-109810Y-52298D01*
X-109727Y-52313D01*
X-109654Y-52334D01*
X-109592Y-52350D01*
X-109535Y-52365D01*
X-109488Y-52381D01*
X-109451Y-52396D01*
X-109420Y-52402D01*
X-109404Y-52412D01*
X-109399D01*
X-109222Y-52490D01*
X-109061Y-52579D01*
X-108988Y-52626D01*
X-108920Y-52673D01*
X-108858Y-52719D01*
X-108800Y-52766D01*
X-108748Y-52808D01*
X-108707Y-52849D01*
X-108665Y-52886D01*
X-108634Y-52917D01*
X-108608Y-52943D01*
X-108592Y-52964D01*
X-108582Y-52975D01*
X-108576Y-52980D01*
X-108488Y-53094D01*
X-108415Y-53214D01*
X-108358Y-53329D01*
X-108311Y-53438D01*
X-108274Y-53537D01*
X-108264Y-53579D01*
X-108254Y-53615D01*
X-108243Y-53641D01*
X-108238Y-53662D01*
X-108233Y-53677D01*
Y-53683D01*
X-108222Y-53740D01*
X-108207Y-53802D01*
X-108191Y-53943D01*
X-108176Y-54084D01*
X-108170Y-54224D01*
X-108165Y-54287D01*
Y-54349D01*
X-108160Y-54401D01*
Y-56192D01*
X-112966D01*
Y-54458D01*
X-112961Y-54302D01*
X-112956Y-54156D01*
X-112940Y-54026D01*
X-112924Y-53912D01*
X-112919Y-53865D01*
X-112914Y-53823D01*
X-112903Y-53782D01*
X-112898Y-53750D01*
X-112893Y-53724D01*
Y-53709D01*
X-112888Y-53698D01*
Y-53693D01*
X-112851Y-53573D01*
X-112815Y-53459D01*
X-112773Y-53360D01*
X-112737Y-53277D01*
X-112700Y-53209D01*
X-112674Y-53157D01*
X-112654Y-53126D01*
X-112648Y-53120D01*
Y-53115D01*
X-112581Y-53027D01*
X-112513Y-52943D01*
X-112440Y-52870D01*
X-112367Y-52808D01*
X-112305Y-52751D01*
X-112258Y-52714D01*
X-112237Y-52698D01*
X-112221Y-52688D01*
X-112216Y-52678D01*
X-112211D01*
X-112102Y-52605D01*
X-111987Y-52542D01*
X-111867Y-52485D01*
X-111758Y-52438D01*
X-111659Y-52402D01*
X-111617Y-52386D01*
X-111581Y-52371D01*
X-111555Y-52365D01*
X-111534Y-52355D01*
X-111518Y-52350D01*
X-111513D01*
X-111347Y-52308D01*
X-111180Y-52277D01*
X-111019Y-52251D01*
X-110868Y-52235D01*
X-110800Y-52230D01*
X-110737Y-52225D01*
X-110680D01*
X-110633Y-52220D01*
X-110592D01*
X-110566D01*
X-110545D01*
X-110540D01*
X-110305Y-52230D01*
D02*
G37*
G36*
X-108160Y-57947D02*
X-112966D01*
Y-57312D01*
X-108160D01*
Y-57947D01*
D02*
G37*
G36*
Y-62118D02*
X-112966D01*
Y-61483D01*
X-110784D01*
Y-59228D01*
X-110217D01*
Y-61483D01*
X-108728D01*
Y-58879D01*
X-108160D01*
Y-62118D01*
D02*
G37*
G36*
X101568Y73268D02*
X101682Y73351D01*
X101734Y73393D01*
X101781Y73435D01*
X101823Y73471D01*
X101854Y73497D01*
X101875Y73518D01*
X101880Y73523D01*
X101911Y73554D01*
X101953Y73596D01*
X101994Y73643D01*
X102041Y73695D01*
X102146Y73804D01*
X102245Y73919D01*
X102338Y74028D01*
X102380Y74075D01*
X102416Y74122D01*
X102448Y74153D01*
X102468Y74184D01*
X102484Y74200D01*
X102489Y74205D01*
X102588Y74320D01*
X102682Y74429D01*
X102765Y74528D01*
X102849Y74617D01*
X102921Y74700D01*
X102994Y74773D01*
X103057Y74840D01*
X103114Y74903D01*
X103161Y74955D01*
X103208Y74997D01*
X103244Y75033D01*
X103275Y75064D01*
X103301Y75085D01*
X103317Y75106D01*
X103328Y75111D01*
X103333Y75116D01*
X103447Y75215D01*
X103551Y75293D01*
X103650Y75361D01*
X103739Y75418D01*
X103812Y75460D01*
X103869Y75491D01*
X103890Y75502D01*
X103905Y75507D01*
X103911Y75512D01*
X103916D01*
X104020Y75554D01*
X104124Y75580D01*
X104218Y75601D01*
X104306Y75616D01*
X104379Y75627D01*
X104437Y75632D01*
X104457D01*
X104473D01*
X104478D01*
X104483D01*
X104588Y75627D01*
X104687Y75616D01*
X104780Y75595D01*
X104874Y75569D01*
X104957Y75538D01*
X105035Y75502D01*
X105108Y75465D01*
X105171Y75429D01*
X105233Y75392D01*
X105285Y75356D01*
X105332Y75319D01*
X105369Y75288D01*
X105395Y75262D01*
X105421Y75241D01*
X105431Y75231D01*
X105436Y75226D01*
X105504Y75148D01*
X105561Y75064D01*
X105613Y74976D01*
X105660Y74882D01*
X105697Y74794D01*
X105728Y74700D01*
X105754Y74611D01*
X105775Y74523D01*
X105790Y74445D01*
X105801Y74367D01*
X105811Y74299D01*
X105816Y74242D01*
X105822Y74195D01*
Y74127D01*
X105816Y74002D01*
X105806Y73882D01*
X105790Y73773D01*
X105764Y73669D01*
X105738Y73570D01*
X105707Y73481D01*
X105676Y73398D01*
X105645Y73325D01*
X105608Y73257D01*
X105577Y73200D01*
X105546Y73148D01*
X105520Y73106D01*
X105494Y73075D01*
X105478Y73054D01*
X105468Y73039D01*
X105462Y73034D01*
X105395Y72961D01*
X105317Y72898D01*
X105239Y72841D01*
X105150Y72789D01*
X105067Y72747D01*
X104983Y72706D01*
X104895Y72674D01*
X104817Y72648D01*
X104739Y72622D01*
X104666Y72607D01*
X104598Y72591D01*
X104541Y72581D01*
X104494Y72575D01*
X104463Y72570D01*
X104442Y72565D01*
X104431D01*
X104369Y73169D01*
X104452Y73174D01*
X104530Y73179D01*
X104666Y73211D01*
X104791Y73252D01*
X104843Y73273D01*
X104890Y73299D01*
X104931Y73320D01*
X104968Y73346D01*
X104999Y73367D01*
X105025Y73383D01*
X105046Y73403D01*
X105062Y73414D01*
X105067Y73419D01*
X105072Y73424D01*
X105119Y73476D01*
X105160Y73528D01*
X105192Y73586D01*
X105223Y73643D01*
X105270Y73757D01*
X105301Y73867D01*
X105317Y73960D01*
X105327Y74002D01*
Y74039D01*
X105332Y74070D01*
Y74184D01*
X105322Y74257D01*
X105296Y74387D01*
X105254Y74497D01*
X105212Y74596D01*
X105166Y74669D01*
X105145Y74700D01*
X105124Y74726D01*
X105108Y74747D01*
X105098Y74762D01*
X105093Y74768D01*
X105087Y74773D01*
X105041Y74820D01*
X104994Y74856D01*
X104947Y74893D01*
X104895Y74919D01*
X104796Y74965D01*
X104702Y74997D01*
X104624Y75012D01*
X104588Y75023D01*
X104556D01*
X104536Y75028D01*
X104515D01*
X104504D01*
X104499D01*
X104437Y75023D01*
X104374Y75017D01*
X104249Y74986D01*
X104129Y74939D01*
X104020Y74887D01*
X103926Y74835D01*
X103890Y74814D01*
X103853Y74788D01*
X103827Y74773D01*
X103807Y74757D01*
X103796Y74752D01*
X103791Y74747D01*
X103718Y74689D01*
X103640Y74622D01*
X103557Y74544D01*
X103473Y74460D01*
X103301Y74289D01*
X103140Y74111D01*
X103062Y74028D01*
X102994Y73945D01*
X102932Y73872D01*
X102880Y73809D01*
X102833Y73757D01*
X102802Y73721D01*
X102776Y73695D01*
X102770Y73685D01*
X102692Y73591D01*
X102619Y73507D01*
X102552Y73424D01*
X102484Y73351D01*
X102422Y73278D01*
X102359Y73216D01*
X102307Y73159D01*
X102255Y73106D01*
X102208Y73060D01*
X102166Y73023D01*
X102130Y72987D01*
X102104Y72961D01*
X102078Y72935D01*
X102062Y72919D01*
X102052Y72914D01*
X102047Y72909D01*
X101932Y72815D01*
X101818Y72737D01*
X101708Y72669D01*
X101609Y72617D01*
X101526Y72575D01*
X101489Y72560D01*
X101463Y72544D01*
X101437Y72534D01*
X101422Y72529D01*
X101411Y72523D01*
X101406D01*
X101333Y72497D01*
X101260Y72482D01*
X101193Y72466D01*
X101130Y72461D01*
X101078Y72456D01*
X101037D01*
X101010D01*
X101000D01*
Y75637D01*
X101568D01*
Y73268D01*
D02*
G37*
G36*
X103661Y71888D02*
X103770Y71883D01*
X103874Y71867D01*
X103973Y71852D01*
X104067Y71836D01*
X104155Y71820D01*
X104239Y71805D01*
X104312Y71784D01*
X104374Y71768D01*
X104431Y71753D01*
X104478Y71737D01*
X104515Y71722D01*
X104546Y71716D01*
X104562Y71706D01*
X104567D01*
X104744Y71628D01*
X104905Y71539D01*
X104978Y71492D01*
X105046Y71445D01*
X105108Y71399D01*
X105166Y71352D01*
X105218Y71310D01*
X105259Y71269D01*
X105301Y71232D01*
X105332Y71201D01*
X105358Y71175D01*
X105374Y71154D01*
X105384Y71143D01*
X105389Y71138D01*
X105478Y71024D01*
X105551Y70904D01*
X105608Y70789D01*
X105655Y70680D01*
X105691Y70581D01*
X105702Y70539D01*
X105712Y70503D01*
X105723Y70477D01*
X105728Y70456D01*
X105733Y70441D01*
Y70435D01*
X105744Y70378D01*
X105759Y70316D01*
X105775Y70175D01*
X105790Y70034D01*
X105796Y69894D01*
X105801Y69831D01*
Y69769D01*
X105806Y69717D01*
Y67926D01*
X101000D01*
Y69660D01*
X101005Y69816D01*
X101010Y69962D01*
X101026Y70092D01*
X101042Y70206D01*
X101047Y70253D01*
X101052Y70295D01*
X101062Y70336D01*
X101068Y70368D01*
X101073Y70394D01*
Y70409D01*
X101078Y70420D01*
Y70425D01*
X101115Y70545D01*
X101151Y70659D01*
X101193Y70758D01*
X101229Y70841D01*
X101266Y70909D01*
X101292Y70961D01*
X101312Y70992D01*
X101318Y70998D01*
Y71003D01*
X101385Y71091D01*
X101453Y71175D01*
X101526Y71248D01*
X101599Y71310D01*
X101661Y71367D01*
X101708Y71404D01*
X101729Y71420D01*
X101745Y71430D01*
X101750Y71440D01*
X101755D01*
X101864Y71513D01*
X101979Y71576D01*
X102099Y71633D01*
X102208Y71680D01*
X102307Y71716D01*
X102349Y71732D01*
X102385Y71747D01*
X102411Y71753D01*
X102432Y71763D01*
X102448Y71768D01*
X102453D01*
X102619Y71810D01*
X102786Y71841D01*
X102947Y71867D01*
X103098Y71883D01*
X103166Y71888D01*
X103229Y71893D01*
X103286D01*
X103333Y71898D01*
X103374D01*
X103400D01*
X103421D01*
X103427D01*
X103661Y71888D01*
D02*
G37*
G36*
X105806Y66171D02*
X101000D01*
Y66806D01*
X105806D01*
Y66171D01*
D02*
G37*
G36*
Y62000D02*
X101000D01*
Y62635D01*
X103182D01*
Y64890D01*
X103749D01*
Y62635D01*
X105239D01*
Y65239D01*
X105806D01*
Y62000D01*
D02*
G37*
G36*
X-71663Y104633D02*
X-71504Y104612D01*
X-71351Y104584D01*
X-71213Y104549D01*
X-71074Y104508D01*
X-70956Y104452D01*
X-70838Y104404D01*
X-70734Y104348D01*
X-70644Y104293D01*
X-70568Y104244D01*
X-70491Y104196D01*
X-70436Y104147D01*
X-70394Y104113D01*
X-70360Y104085D01*
X-70339Y104064D01*
X-70332Y104057D01*
X-70228Y103946D01*
X-70138Y103828D01*
X-70061Y103710D01*
X-69992Y103593D01*
X-69937Y103475D01*
X-69888Y103357D01*
X-69853Y103246D01*
X-69819Y103135D01*
X-69798Y103038D01*
X-69777Y102941D01*
X-69770Y102858D01*
X-69756Y102788D01*
Y102733D01*
X-69749Y102684D01*
Y102649D01*
X-69756Y102532D01*
X-69763Y102414D01*
X-69784Y102303D01*
X-69812Y102192D01*
X-69874Y101991D01*
X-69916Y101894D01*
X-69950Y101810D01*
X-69985Y101727D01*
X-70027Y101658D01*
X-70061Y101595D01*
X-70089Y101540D01*
X-70117Y101498D01*
X-70131Y101471D01*
X-70145Y101450D01*
X-70152Y101443D01*
X-68432Y101783D01*
Y104341D01*
X-67683D01*
Y101159D01*
X-70970Y100541D01*
X-71074Y101277D01*
X-70977Y101346D01*
X-70887Y101422D01*
X-70810Y101505D01*
X-70741Y101575D01*
X-70692Y101644D01*
X-70651Y101699D01*
X-70630Y101734D01*
X-70623Y101748D01*
X-70561Y101866D01*
X-70519Y101984D01*
X-70484Y102102D01*
X-70464Y102213D01*
X-70450Y102303D01*
X-70443Y102379D01*
Y102441D01*
X-70450Y102552D01*
X-70457Y102656D01*
X-70477Y102760D01*
X-70505Y102851D01*
X-70568Y103024D01*
X-70602Y103093D01*
X-70637Y103163D01*
X-70679Y103225D01*
X-70713Y103273D01*
X-70748Y103322D01*
X-70776Y103357D01*
X-70803Y103385D01*
X-70824Y103412D01*
X-70831Y103419D01*
X-70838Y103426D01*
X-70914Y103495D01*
X-70998Y103551D01*
X-71081Y103606D01*
X-71164Y103648D01*
X-71344Y103717D01*
X-71511Y103759D01*
X-71594Y103773D01*
X-71663Y103787D01*
X-71733Y103794D01*
X-71788Y103800D01*
X-71837Y103807D01*
X-71871D01*
X-71892D01*
X-71899D01*
X-72031Y103800D01*
X-72149Y103794D01*
X-72267Y103773D01*
X-72377Y103745D01*
X-72474Y103717D01*
X-72572Y103683D01*
X-72655Y103648D01*
X-72731Y103613D01*
X-72800Y103572D01*
X-72863Y103537D01*
X-72911Y103502D01*
X-72960Y103475D01*
X-72994Y103447D01*
X-73015Y103426D01*
X-73029Y103419D01*
X-73036Y103412D01*
X-73112Y103336D01*
X-73175Y103260D01*
X-73230Y103183D01*
X-73279Y103100D01*
X-73320Y103017D01*
X-73355Y102941D01*
X-73404Y102788D01*
X-73438Y102656D01*
X-73445Y102601D01*
X-73452Y102552D01*
X-73459Y102511D01*
Y102455D01*
X-73452Y102365D01*
X-73445Y102282D01*
X-73411Y102129D01*
X-73362Y101991D01*
X-73307Y101873D01*
X-73258Y101776D01*
X-73210Y101706D01*
X-73189Y101679D01*
X-73175Y101658D01*
X-73161Y101651D01*
Y101644D01*
X-73099Y101588D01*
X-73036Y101533D01*
X-72898Y101443D01*
X-72745Y101367D01*
X-72599Y101311D01*
X-72467Y101277D01*
X-72405Y101256D01*
X-72357Y101249D01*
X-72315Y101242D01*
X-72287Y101235D01*
X-72267Y101228D01*
X-72259D01*
X-72322Y100403D01*
X-72467Y100424D01*
X-72613Y100451D01*
X-72745Y100486D01*
X-72870Y100534D01*
X-72981Y100583D01*
X-73092Y100632D01*
X-73189Y100687D01*
X-73272Y100743D01*
X-73355Y100798D01*
X-73425Y100847D01*
X-73480Y100895D01*
X-73528Y100944D01*
X-73570Y100978D01*
X-73598Y101006D01*
X-73612Y101020D01*
X-73619Y101027D01*
X-73702Y101138D01*
X-73778Y101249D01*
X-73840Y101367D01*
X-73896Y101484D01*
X-73945Y101602D01*
X-73986Y101720D01*
X-74021Y101838D01*
X-74042Y101949D01*
X-74062Y102053D01*
X-74076Y102150D01*
X-74090Y102233D01*
X-74097Y102310D01*
X-74104Y102372D01*
Y102455D01*
X-74097Y102649D01*
X-74069Y102830D01*
X-74035Y103003D01*
X-73979Y103163D01*
X-73924Y103315D01*
X-73861Y103454D01*
X-73785Y103579D01*
X-73716Y103690D01*
X-73646Y103794D01*
X-73570Y103884D01*
X-73508Y103960D01*
X-73445Y104022D01*
X-73397Y104071D01*
X-73362Y104106D01*
X-73334Y104126D01*
X-73327Y104133D01*
X-73210Y104223D01*
X-73085Y104300D01*
X-72953Y104369D01*
X-72828Y104425D01*
X-72703Y104473D01*
X-72579Y104515D01*
X-72454Y104549D01*
X-72343Y104577D01*
X-72232Y104598D01*
X-72135Y104612D01*
X-72052Y104626D01*
X-71975Y104633D01*
X-71913Y104640D01*
X-71871D01*
X-71837D01*
X-71830D01*
X-71663Y104633D01*
D02*
G37*
G36*
X-71753Y98829D02*
X-71899Y98794D01*
X-72038Y98745D01*
X-72169Y98697D01*
X-72287Y98648D01*
X-72398Y98593D01*
X-72495Y98538D01*
X-72585Y98482D01*
X-72669Y98427D01*
X-72738Y98371D01*
X-72800Y98322D01*
X-72856Y98274D01*
X-72898Y98239D01*
X-72932Y98205D01*
X-72953Y98177D01*
X-72967Y98163D01*
X-72974Y98156D01*
X-73043Y98059D01*
X-73106Y97962D01*
X-73161Y97865D01*
X-73210Y97761D01*
X-73251Y97657D01*
X-73286Y97560D01*
X-73334Y97366D01*
X-73348Y97282D01*
X-73362Y97199D01*
X-73369Y97130D01*
X-73376Y97067D01*
X-73383Y97019D01*
Y96950D01*
X-73376Y96839D01*
X-73369Y96735D01*
X-73334Y96533D01*
X-73286Y96346D01*
X-73230Y96187D01*
X-73203Y96117D01*
X-73182Y96055D01*
X-73154Y96000D01*
X-73133Y95951D01*
X-73112Y95909D01*
X-73099Y95882D01*
X-73085Y95868D01*
Y95861D01*
X-73022Y95771D01*
X-72960Y95688D01*
X-72814Y95535D01*
X-72669Y95410D01*
X-72516Y95306D01*
X-72384Y95230D01*
X-72329Y95195D01*
X-72273Y95168D01*
X-72232Y95154D01*
X-72204Y95140D01*
X-72183Y95126D01*
X-72176D01*
X-71940Y95050D01*
X-71698Y94987D01*
X-71455Y94946D01*
X-71344Y94932D01*
X-71233Y94918D01*
X-71129Y94911D01*
X-71039Y94904D01*
X-70956Y94897D01*
X-70887D01*
X-70824Y94890D01*
X-70782D01*
X-70755D01*
X-70748D01*
X-70512Y94897D01*
X-70290Y94918D01*
X-70082Y94952D01*
X-69985Y94966D01*
X-69895Y94987D01*
X-69819Y95008D01*
X-69742Y95022D01*
X-69680Y95043D01*
X-69625Y95056D01*
X-69583Y95063D01*
X-69548Y95077D01*
X-69527Y95084D01*
X-69521D01*
X-69306Y95174D01*
X-69118Y95278D01*
X-68959Y95389D01*
X-68889Y95452D01*
X-68820Y95507D01*
X-68765Y95563D01*
X-68716Y95611D01*
X-68668Y95660D01*
X-68633Y95694D01*
X-68605Y95729D01*
X-68584Y95757D01*
X-68577Y95771D01*
X-68570Y95778D01*
X-68508Y95875D01*
X-68453Y95972D01*
X-68404Y96076D01*
X-68362Y96180D01*
X-68300Y96388D01*
X-68252Y96589D01*
X-68238Y96672D01*
X-68231Y96755D01*
X-68224Y96832D01*
X-68217Y96894D01*
X-68210Y96950D01*
Y97137D01*
X-68224Y97248D01*
X-68259Y97456D01*
X-68314Y97636D01*
X-68342Y97712D01*
X-68369Y97789D01*
X-68397Y97858D01*
X-68425Y97913D01*
X-68453Y97962D01*
X-68480Y98004D01*
X-68501Y98038D01*
X-68515Y98059D01*
X-68522Y98073D01*
X-68529Y98080D01*
X-68591Y98156D01*
X-68661Y98232D01*
X-68820Y98357D01*
X-68994Y98475D01*
X-69160Y98565D01*
X-69313Y98635D01*
X-69375Y98669D01*
X-69430Y98690D01*
X-69479Y98711D01*
X-69521Y98718D01*
X-69541Y98732D01*
X-69548D01*
X-69354Y99564D01*
X-69195Y99508D01*
X-69042Y99446D01*
X-68896Y99383D01*
X-68765Y99307D01*
X-68640Y99238D01*
X-68529Y99162D01*
X-68425Y99085D01*
X-68335Y99009D01*
X-68252Y98933D01*
X-68182Y98870D01*
X-68120Y98808D01*
X-68071Y98752D01*
X-68030Y98711D01*
X-68002Y98676D01*
X-67988Y98655D01*
X-67981Y98648D01*
X-67891Y98524D01*
X-67822Y98392D01*
X-67752Y98260D01*
X-67697Y98121D01*
X-67648Y97983D01*
X-67607Y97851D01*
X-67579Y97719D01*
X-67551Y97594D01*
X-67530Y97477D01*
X-67516Y97373D01*
X-67503Y97275D01*
X-67496Y97192D01*
X-67489Y97123D01*
Y97033D01*
X-67496Y96873D01*
X-67503Y96721D01*
X-67551Y96436D01*
X-67579Y96298D01*
X-67614Y96173D01*
X-67648Y96048D01*
X-67683Y95937D01*
X-67718Y95840D01*
X-67752Y95750D01*
X-67787Y95667D01*
X-67815Y95604D01*
X-67842Y95549D01*
X-67863Y95514D01*
X-67870Y95486D01*
X-67877Y95479D01*
X-67953Y95355D01*
X-68037Y95230D01*
X-68127Y95119D01*
X-68217Y95015D01*
X-68314Y94918D01*
X-68404Y94828D01*
X-68501Y94751D01*
X-68584Y94675D01*
X-68675Y94613D01*
X-68751Y94557D01*
X-68820Y94509D01*
X-68883Y94467D01*
X-68938Y94439D01*
X-68973Y94419D01*
X-69000Y94405D01*
X-69007Y94398D01*
X-69146Y94328D01*
X-69299Y94273D01*
X-69444Y94224D01*
X-69590Y94176D01*
X-69888Y94107D01*
X-70027Y94086D01*
X-70159Y94065D01*
X-70283Y94051D01*
X-70394Y94037D01*
X-70498Y94030D01*
X-70588Y94023D01*
X-70658Y94016D01*
X-70713D01*
X-70741D01*
X-70755D01*
X-70921Y94023D01*
X-71088Y94030D01*
X-71407Y94072D01*
X-71559Y94093D01*
X-71698Y94120D01*
X-71830Y94155D01*
X-71954Y94183D01*
X-72065Y94218D01*
X-72169Y94245D01*
X-72253Y94273D01*
X-72329Y94301D01*
X-72384Y94321D01*
X-72433Y94335D01*
X-72461Y94342D01*
X-72467Y94349D01*
X-72613Y94419D01*
X-72752Y94488D01*
X-72877Y94564D01*
X-72994Y94647D01*
X-73106Y94731D01*
X-73203Y94807D01*
X-73293Y94890D01*
X-73376Y94966D01*
X-73452Y95043D01*
X-73515Y95112D01*
X-73563Y95174D01*
X-73612Y95230D01*
X-73646Y95272D01*
X-73667Y95306D01*
X-73681Y95327D01*
X-73688Y95334D01*
X-73764Y95459D01*
X-73827Y95590D01*
X-73882Y95729D01*
X-73931Y95875D01*
X-73965Y96013D01*
X-74000Y96152D01*
X-74028Y96291D01*
X-74049Y96423D01*
X-74069Y96547D01*
X-74083Y96658D01*
X-74090Y96762D01*
X-74097Y96846D01*
X-74104Y96922D01*
Y97019D01*
X-74097Y97206D01*
X-74083Y97380D01*
X-74056Y97546D01*
X-74021Y97705D01*
X-73979Y97858D01*
X-73931Y97997D01*
X-73882Y98121D01*
X-73834Y98239D01*
X-73785Y98350D01*
X-73737Y98440D01*
X-73688Y98524D01*
X-73646Y98586D01*
X-73612Y98642D01*
X-73584Y98676D01*
X-73570Y98704D01*
X-73563Y98711D01*
X-73452Y98836D01*
X-73334Y98954D01*
X-73210Y99058D01*
X-73085Y99155D01*
X-72953Y99245D01*
X-72814Y99321D01*
X-72689Y99390D01*
X-72558Y99453D01*
X-72440Y99508D01*
X-72329Y99550D01*
X-72225Y99592D01*
X-72142Y99619D01*
X-72065Y99647D01*
X-72017Y99661D01*
X-71982Y99675D01*
X-71968D01*
X-71753Y98829D01*
D02*
G37*
G36*
X61108Y90561D02*
X61309Y90526D01*
X61483Y90471D01*
X61559Y90443D01*
X61628Y90415D01*
X61697Y90387D01*
X61753Y90360D01*
X61801Y90332D01*
X61836Y90304D01*
X61871Y90283D01*
X61892Y90269D01*
X61905Y90263D01*
X61912Y90256D01*
X62058Y90131D01*
X62176Y89985D01*
X62266Y89840D01*
X62342Y89701D01*
X62398Y89569D01*
X62419Y89514D01*
X62432Y89472D01*
X62446Y89431D01*
X62453Y89403D01*
X62460Y89382D01*
Y89375D01*
X62543Y89528D01*
X62627Y89659D01*
X62717Y89777D01*
X62807Y89867D01*
X62883Y89944D01*
X62946Y89992D01*
X62987Y90027D01*
X62994Y90034D01*
X63001D01*
X63133Y90110D01*
X63264Y90166D01*
X63389Y90207D01*
X63507Y90235D01*
X63604Y90249D01*
X63688Y90263D01*
X63715D01*
X63736D01*
X63750D01*
X63757D01*
X63916Y90256D01*
X64069Y90228D01*
X64208Y90186D01*
X64332Y90145D01*
X64436Y90103D01*
X64478Y90082D01*
X64513Y90062D01*
X64540Y90048D01*
X64568Y90034D01*
X64575Y90027D01*
X64582D01*
X64721Y89930D01*
X64839Y89819D01*
X64943Y89708D01*
X65033Y89597D01*
X65102Y89500D01*
X65151Y89424D01*
X65171Y89389D01*
X65185Y89368D01*
X65192Y89354D01*
Y89347D01*
X65269Y89181D01*
X65324Y89015D01*
X65366Y88848D01*
X65393Y88702D01*
X65407Y88571D01*
X65414Y88522D01*
X65421Y88474D01*
Y88383D01*
X65414Y88245D01*
X65400Y88113D01*
X65380Y87988D01*
X65352Y87863D01*
X65317Y87752D01*
X65282Y87648D01*
X65241Y87551D01*
X65206Y87468D01*
X65164Y87385D01*
X65123Y87316D01*
X65088Y87260D01*
X65054Y87205D01*
X65026Y87170D01*
X65005Y87135D01*
X64991Y87121D01*
X64984Y87114D01*
X64901Y87024D01*
X64804Y86941D01*
X64707Y86865D01*
X64610Y86796D01*
X64506Y86733D01*
X64409Y86685D01*
X64208Y86594D01*
X64117Y86560D01*
X64034Y86532D01*
X63958Y86511D01*
X63896Y86490D01*
X63840Y86476D01*
X63798Y86470D01*
X63771Y86463D01*
X63764D01*
X63625Y87246D01*
X63826Y87288D01*
X64000Y87343D01*
X64152Y87406D01*
X64270Y87475D01*
X64367Y87530D01*
X64429Y87586D01*
X64471Y87621D01*
X64485Y87634D01*
X64582Y87759D01*
X64651Y87884D01*
X64707Y88016D01*
X64742Y88134D01*
X64762Y88245D01*
X64769Y88286D01*
Y88328D01*
X64776Y88363D01*
Y88404D01*
X64762Y88571D01*
X64735Y88716D01*
X64686Y88848D01*
X64637Y88959D01*
X64582Y89042D01*
X64534Y89105D01*
X64506Y89146D01*
X64492Y89160D01*
X64436Y89215D01*
X64381Y89257D01*
X64256Y89333D01*
X64138Y89389D01*
X64027Y89424D01*
X63923Y89444D01*
X63847Y89451D01*
X63812Y89458D01*
X63791D01*
X63778D01*
X63771D01*
X63674Y89451D01*
X63583Y89437D01*
X63493Y89424D01*
X63417Y89396D01*
X63278Y89326D01*
X63168Y89257D01*
X63077Y89181D01*
X63015Y89111D01*
X62994Y89084D01*
X62980Y89070D01*
X62966Y89056D01*
Y89049D01*
X62876Y88897D01*
X62814Y88737D01*
X62765Y88584D01*
X62737Y88446D01*
X62717Y88328D01*
X62710Y88279D01*
Y88231D01*
X62703Y88196D01*
Y88106D01*
X62710Y88064D01*
X62717Y88030D01*
Y88016D01*
X62030Y87933D01*
X62058Y88051D01*
X62079Y88161D01*
X62093Y88252D01*
X62106Y88335D01*
Y88397D01*
X62113Y88446D01*
Y88488D01*
X62106Y88584D01*
X62100Y88682D01*
X62058Y88855D01*
X62003Y89008D01*
X61940Y89139D01*
X61871Y89243D01*
X61843Y89285D01*
X61815Y89320D01*
X61795Y89347D01*
X61774Y89368D01*
X61767Y89375D01*
X61760Y89382D01*
X61691Y89444D01*
X61621Y89500D01*
X61552Y89548D01*
X61476Y89590D01*
X61330Y89652D01*
X61184Y89701D01*
X61059Y89722D01*
X61011Y89729D01*
X60962Y89736D01*
X60928Y89742D01*
X60893D01*
X60879D01*
X60872D01*
X60768Y89736D01*
X60671Y89729D01*
X60484Y89680D01*
X60324Y89625D01*
X60186Y89555D01*
X60123Y89514D01*
X60075Y89479D01*
X60026Y89451D01*
X59992Y89424D01*
X59964Y89396D01*
X59943Y89375D01*
X59929Y89368D01*
X59922Y89361D01*
X59853Y89285D01*
X59797Y89209D01*
X59749Y89132D01*
X59700Y89056D01*
X59631Y88897D01*
X59589Y88744D01*
X59562Y88619D01*
X59555Y88557D01*
X59548Y88515D01*
X59541Y88474D01*
Y88418D01*
X59555Y88252D01*
X59589Y88092D01*
X59631Y87961D01*
X59686Y87843D01*
X59742Y87746D01*
X59784Y87676D01*
X59804Y87655D01*
X59818Y87634D01*
X59832Y87628D01*
Y87621D01*
X59894Y87565D01*
X59957Y87510D01*
X60103Y87413D01*
X60262Y87336D01*
X60422Y87274D01*
X60567Y87225D01*
X60630Y87212D01*
X60685Y87198D01*
X60734Y87184D01*
X60768Y87177D01*
X60789Y87170D01*
X60796D01*
X60692Y86386D01*
X60546Y86407D01*
X60408Y86435D01*
X60276Y86476D01*
X60151Y86518D01*
X60033Y86567D01*
X59929Y86622D01*
X59825Y86678D01*
X59742Y86733D01*
X59659Y86789D01*
X59589Y86837D01*
X59527Y86886D01*
X59479Y86927D01*
X59437Y86969D01*
X59409Y86997D01*
X59395Y87010D01*
X59388Y87017D01*
X59298Y87121D01*
X59222Y87239D01*
X59159Y87350D01*
X59097Y87468D01*
X59049Y87586D01*
X59014Y87704D01*
X58979Y87815D01*
X58952Y87926D01*
X58931Y88030D01*
X58917Y88120D01*
X58903Y88203D01*
X58896Y88279D01*
Y88335D01*
X58889Y88383D01*
Y88418D01*
X58896Y88591D01*
X58917Y88751D01*
X58945Y88904D01*
X58979Y89049D01*
X59021Y89188D01*
X59069Y89313D01*
X59125Y89431D01*
X59180Y89535D01*
X59229Y89632D01*
X59284Y89715D01*
X59333Y89791D01*
X59374Y89847D01*
X59409Y89895D01*
X59437Y89930D01*
X59458Y89951D01*
X59465Y89958D01*
X59576Y90069D01*
X59693Y90159D01*
X59811Y90242D01*
X59936Y90311D01*
X60054Y90374D01*
X60172Y90422D01*
X60283Y90464D01*
X60394Y90498D01*
X60498Y90526D01*
X60588Y90540D01*
X60671Y90554D01*
X60747Y90568D01*
X60803D01*
X60851Y90575D01*
X60879D01*
X60886D01*
X60997D01*
X61108Y90561D01*
D02*
G37*
G36*
X61247Y84812D02*
X61101Y84778D01*
X60962Y84729D01*
X60831Y84681D01*
X60713Y84632D01*
X60602Y84577D01*
X60505Y84521D01*
X60415Y84466D01*
X60331Y84410D01*
X60262Y84355D01*
X60200Y84306D01*
X60144Y84258D01*
X60103Y84223D01*
X60068Y84188D01*
X60047Y84160D01*
X60033Y84147D01*
X60026Y84140D01*
X59957Y84043D01*
X59894Y83946D01*
X59839Y83848D01*
X59791Y83744D01*
X59749Y83640D01*
X59714Y83543D01*
X59666Y83349D01*
X59652Y83266D01*
X59638Y83183D01*
X59631Y83113D01*
X59624Y83051D01*
X59617Y83003D01*
Y82933D01*
X59624Y82822D01*
X59631Y82718D01*
X59666Y82517D01*
X59714Y82330D01*
X59770Y82170D01*
X59797Y82101D01*
X59818Y82039D01*
X59846Y81983D01*
X59867Y81935D01*
X59888Y81893D01*
X59901Y81865D01*
X59915Y81851D01*
Y81845D01*
X59978Y81754D01*
X60040Y81671D01*
X60186Y81519D01*
X60331Y81394D01*
X60484Y81290D01*
X60616Y81214D01*
X60671Y81179D01*
X60727Y81151D01*
X60768Y81137D01*
X60796Y81123D01*
X60817Y81110D01*
X60824D01*
X61059Y81033D01*
X61302Y80971D01*
X61545Y80929D01*
X61656Y80915D01*
X61767Y80901D01*
X61871Y80894D01*
X61961Y80888D01*
X62044Y80881D01*
X62113D01*
X62176Y80874D01*
X62217D01*
X62245D01*
X62252D01*
X62488Y80881D01*
X62710Y80901D01*
X62918Y80936D01*
X63015Y80950D01*
X63105Y80971D01*
X63181Y80992D01*
X63258Y81005D01*
X63320Y81026D01*
X63376Y81040D01*
X63417Y81047D01*
X63452Y81061D01*
X63473Y81068D01*
X63479D01*
X63695Y81158D01*
X63882Y81262D01*
X64041Y81373D01*
X64110Y81435D01*
X64180Y81491D01*
X64235Y81546D01*
X64284Y81595D01*
X64332Y81643D01*
X64367Y81678D01*
X64395Y81713D01*
X64416Y81741D01*
X64423Y81754D01*
X64429Y81761D01*
X64492Y81858D01*
X64547Y81955D01*
X64596Y82059D01*
X64637Y82163D01*
X64700Y82372D01*
X64749Y82573D01*
X64762Y82656D01*
X64769Y82739D01*
X64776Y82815D01*
X64783Y82878D01*
X64790Y82933D01*
Y83120D01*
X64776Y83231D01*
X64742Y83439D01*
X64686Y83620D01*
X64658Y83696D01*
X64631Y83772D01*
X64603Y83841D01*
X64575Y83897D01*
X64547Y83946D01*
X64520Y83987D01*
X64499Y84022D01*
X64485Y84043D01*
X64478Y84057D01*
X64471Y84063D01*
X64409Y84140D01*
X64339Y84216D01*
X64180Y84341D01*
X64007Y84459D01*
X63840Y84549D01*
X63688Y84618D01*
X63625Y84653D01*
X63570Y84674D01*
X63521Y84694D01*
X63479Y84701D01*
X63459Y84715D01*
X63452D01*
X63646Y85547D01*
X63805Y85492D01*
X63958Y85429D01*
X64104Y85367D01*
X64235Y85291D01*
X64360Y85221D01*
X64471Y85145D01*
X64575Y85069D01*
X64665Y84993D01*
X64749Y84916D01*
X64818Y84854D01*
X64880Y84791D01*
X64929Y84736D01*
X64970Y84694D01*
X64998Y84660D01*
X65012Y84639D01*
X65019Y84632D01*
X65109Y84507D01*
X65178Y84375D01*
X65248Y84244D01*
X65303Y84105D01*
X65352Y83966D01*
X65393Y83835D01*
X65421Y83703D01*
X65449Y83578D01*
X65470Y83460D01*
X65483Y83356D01*
X65497Y83259D01*
X65504Y83176D01*
X65511Y83106D01*
Y83016D01*
X65504Y82857D01*
X65497Y82704D01*
X65449Y82420D01*
X65421Y82281D01*
X65386Y82156D01*
X65352Y82032D01*
X65317Y81921D01*
X65282Y81824D01*
X65248Y81734D01*
X65213Y81650D01*
X65185Y81588D01*
X65158Y81532D01*
X65137Y81498D01*
X65130Y81470D01*
X65123Y81463D01*
X65047Y81338D01*
X64963Y81214D01*
X64873Y81103D01*
X64783Y80998D01*
X64686Y80901D01*
X64596Y80811D01*
X64499Y80735D01*
X64416Y80659D01*
X64325Y80596D01*
X64249Y80541D01*
X64180Y80492D01*
X64117Y80451D01*
X64062Y80423D01*
X64027Y80402D01*
X64000Y80388D01*
X63993Y80381D01*
X63854Y80312D01*
X63701Y80257D01*
X63556Y80208D01*
X63410Y80160D01*
X63112Y80090D01*
X62973Y80069D01*
X62842Y80049D01*
X62717Y80035D01*
X62606Y80021D01*
X62502Y80014D01*
X62412Y80007D01*
X62342Y80000D01*
X62287D01*
X62259D01*
X62245D01*
X62079Y80007D01*
X61912Y80014D01*
X61593Y80056D01*
X61441Y80076D01*
X61302Y80104D01*
X61170Y80139D01*
X61046Y80166D01*
X60935Y80201D01*
X60831Y80229D01*
X60747Y80257D01*
X60671Y80284D01*
X60616Y80305D01*
X60567Y80319D01*
X60539Y80326D01*
X60532Y80333D01*
X60387Y80402D01*
X60248Y80471D01*
X60123Y80548D01*
X60005Y80631D01*
X59894Y80714D01*
X59797Y80791D01*
X59707Y80874D01*
X59624Y80950D01*
X59548Y81026D01*
X59485Y81096D01*
X59437Y81158D01*
X59388Y81214D01*
X59354Y81255D01*
X59333Y81290D01*
X59319Y81311D01*
X59312Y81318D01*
X59236Y81442D01*
X59173Y81574D01*
X59118Y81713D01*
X59069Y81858D01*
X59035Y81997D01*
X59000Y82136D01*
X58972Y82274D01*
X58952Y82406D01*
X58931Y82531D01*
X58917Y82642D01*
X58910Y82746D01*
X58903Y82829D01*
X58896Y82905D01*
Y83003D01*
X58903Y83190D01*
X58917Y83363D01*
X58945Y83530D01*
X58979Y83689D01*
X59021Y83841D01*
X59069Y83980D01*
X59118Y84105D01*
X59166Y84223D01*
X59215Y84334D01*
X59264Y84424D01*
X59312Y84507D01*
X59354Y84570D01*
X59388Y84625D01*
X59416Y84660D01*
X59430Y84688D01*
X59437Y84694D01*
X59548Y84819D01*
X59666Y84937D01*
X59791Y85041D01*
X59915Y85138D01*
X60047Y85228D01*
X60186Y85305D01*
X60311Y85374D01*
X60442Y85436D01*
X60560Y85492D01*
X60671Y85534D01*
X60775Y85575D01*
X60858Y85603D01*
X60935Y85631D01*
X60983Y85644D01*
X61018Y85658D01*
X61032D01*
X61247Y84812D01*
D02*
G37*
%LPC*%
G36*
X-63863Y20172D02*
X-63884D01*
X-63899D01*
X-63910D01*
X-63915D01*
X-63993Y20167D01*
X-64061Y20162D01*
X-64191Y20130D01*
X-64300Y20089D01*
X-64394Y20042D01*
X-64467Y19995D01*
X-64519Y19953D01*
X-64535Y19938D01*
X-64550Y19922D01*
X-64556Y19917D01*
X-64561Y19912D01*
X-64602Y19860D01*
X-64634Y19797D01*
X-64665Y19735D01*
X-64691Y19667D01*
X-64732Y19521D01*
X-64759Y19375D01*
X-64769Y19308D01*
X-64779Y19240D01*
X-64785Y19183D01*
Y19131D01*
X-64790Y19089D01*
Y17792D01*
X-63071D01*
Y19172D01*
X-63077Y19235D01*
Y19297D01*
X-63082Y19349D01*
X-63087Y19401D01*
X-63092Y19443D01*
Y19480D01*
X-63103Y19542D01*
X-63113Y19584D01*
X-63118Y19610D01*
Y19615D01*
X-63150Y19703D01*
X-63191Y19782D01*
X-63238Y19849D01*
X-63285Y19912D01*
X-63327Y19953D01*
X-63363Y19990D01*
X-63389Y20011D01*
X-63400Y20016D01*
X-63483Y20068D01*
X-63571Y20104D01*
X-63655Y20136D01*
X-63738Y20151D01*
X-63806Y20162D01*
X-63863Y20172D01*
D02*
G37*
G36*
X75447Y112472D02*
X75426D01*
X75411D01*
X75400D01*
X75395D01*
X75317Y112467D01*
X75249Y112462D01*
X75119Y112430D01*
X75010Y112389D01*
X74916Y112342D01*
X74843Y112295D01*
X74791Y112253D01*
X74775Y112238D01*
X74760Y112222D01*
X74755Y112217D01*
X74749Y112212D01*
X74708Y112160D01*
X74676Y112097D01*
X74645Y112035D01*
X74619Y111967D01*
X74577Y111821D01*
X74551Y111675D01*
X74541Y111608D01*
X74531Y111540D01*
X74525Y111483D01*
Y111431D01*
X74520Y111389D01*
Y110092D01*
X76238D01*
Y111472D01*
X76233Y111535D01*
Y111597D01*
X76228Y111649D01*
X76223Y111701D01*
X76218Y111743D01*
Y111779D01*
X76207Y111842D01*
X76197Y111884D01*
X76192Y111910D01*
Y111915D01*
X76160Y112003D01*
X76119Y112081D01*
X76072Y112149D01*
X76025Y112212D01*
X75983Y112253D01*
X75947Y112290D01*
X75921Y112311D01*
X75911Y112316D01*
X75827Y112368D01*
X75739Y112404D01*
X75655Y112436D01*
X75572Y112451D01*
X75504Y112462D01*
X75447Y112472D01*
D02*
G37*
G36*
X77447Y132472D02*
X77426D01*
X77411D01*
X77400D01*
X77395D01*
X77317Y132467D01*
X77249Y132462D01*
X77119Y132430D01*
X77010Y132389D01*
X76916Y132342D01*
X76843Y132295D01*
X76791Y132253D01*
X76775Y132238D01*
X76760Y132222D01*
X76754Y132217D01*
X76749Y132212D01*
X76708Y132160D01*
X76676Y132097D01*
X76645Y132035D01*
X76619Y131967D01*
X76578Y131821D01*
X76551Y131675D01*
X76541Y131608D01*
X76531Y131540D01*
X76525Y131483D01*
Y131431D01*
X76520Y131389D01*
Y130092D01*
X78239D01*
Y131472D01*
X78233Y131535D01*
Y131597D01*
X78228Y131649D01*
X78223Y131701D01*
X78218Y131743D01*
Y131779D01*
X78207Y131842D01*
X78197Y131884D01*
X78192Y131910D01*
Y131915D01*
X78160Y132003D01*
X78119Y132081D01*
X78072Y132149D01*
X78025Y132212D01*
X77983Y132253D01*
X77947Y132290D01*
X77921Y132311D01*
X77910Y132316D01*
X77827Y132368D01*
X77739Y132404D01*
X77655Y132436D01*
X77572Y132451D01*
X77504Y132462D01*
X77447Y132472D01*
D02*
G37*
G36*
X-33846Y123693D02*
X-36003D01*
X-36120Y123679D01*
X-36231Y123665D01*
X-36335Y123644D01*
X-36425Y123624D01*
X-36509Y123596D01*
X-36585Y123575D01*
X-36654Y123547D01*
X-36717Y123520D01*
X-36765Y123492D01*
X-36814Y123464D01*
X-36848Y123443D01*
X-36876Y123422D01*
X-36897Y123409D01*
X-36904Y123402D01*
X-36911Y123395D01*
X-36966Y123339D01*
X-37022Y123277D01*
X-37105Y123159D01*
X-37160Y123034D01*
X-37202Y122916D01*
X-37230Y122812D01*
X-37237Y122764D01*
Y122729D01*
X-37244Y122694D01*
Y122674D01*
Y122660D01*
Y122653D01*
X-37237Y122542D01*
X-37216Y122431D01*
X-37188Y122334D01*
X-37160Y122251D01*
X-37126Y122174D01*
X-37098Y122126D01*
X-37077Y122091D01*
X-37070Y122077D01*
X-37001Y121987D01*
X-36918Y121904D01*
X-36835Y121841D01*
X-36758Y121786D01*
X-36682Y121744D01*
X-36627Y121717D01*
X-36585Y121703D01*
X-36578Y121696D01*
X-36571D01*
X-36439Y121654D01*
X-36294Y121627D01*
X-36141Y121606D01*
X-35996Y121592D01*
X-35864Y121585D01*
X-35808D01*
X-35760Y121578D01*
X-33846D01*
Y123693D01*
D02*
G37*
G36*
X-41175Y123776D02*
X-41300D01*
X-41377Y123762D01*
X-41522Y123728D01*
X-41654Y123679D01*
X-41758Y123631D01*
X-41848Y123575D01*
X-41911Y123526D01*
X-41952Y123492D01*
X-41966Y123485D01*
Y123478D01*
X-42021Y123422D01*
X-42063Y123360D01*
X-42139Y123242D01*
X-42195Y123117D01*
X-42229Y123006D01*
X-42250Y122902D01*
X-42257Y122826D01*
X-42264Y122792D01*
Y122771D01*
Y122757D01*
Y122750D01*
X-42250Y122604D01*
X-42216Y122473D01*
X-42174Y122348D01*
X-42119Y122251D01*
X-42063Y122167D01*
X-42021Y122105D01*
X-41987Y122070D01*
X-41973Y122057D01*
X-41855Y121959D01*
X-41730Y121890D01*
X-41605Y121841D01*
X-41487Y121807D01*
X-41384Y121786D01*
X-41342Y121779D01*
X-41300D01*
X-41266Y121772D01*
X-41224D01*
X-41058Y121786D01*
X-40905Y121814D01*
X-40773Y121862D01*
X-40669Y121918D01*
X-40579Y121966D01*
X-40517Y122015D01*
X-40475Y122043D01*
X-40461Y122057D01*
X-40364Y122167D01*
X-40295Y122292D01*
X-40246Y122417D01*
X-40212Y122535D01*
X-40191Y122639D01*
X-40184Y122681D01*
Y122722D01*
X-40177Y122757D01*
Y122778D01*
Y122792D01*
Y122799D01*
X-40191Y122944D01*
X-40225Y123076D01*
X-40267Y123194D01*
X-40322Y123291D01*
X-40378Y123374D01*
X-40420Y123436D01*
X-40454Y123471D01*
X-40468Y123485D01*
X-40586Y123582D01*
X-40711Y123651D01*
X-40836Y123707D01*
X-40953Y123742D01*
X-41058Y123762D01*
X-41106Y123769D01*
X-41141D01*
X-41175Y123776D01*
D02*
G37*
G36*
X-41148Y121127D02*
X-41203D01*
X-41307Y121120D01*
X-41404Y121113D01*
X-41592Y121072D01*
X-41751Y121009D01*
X-41890Y120940D01*
X-41945Y120905D01*
X-42001Y120871D01*
X-42042Y120843D01*
X-42077Y120808D01*
X-42112Y120787D01*
X-42132Y120767D01*
X-42139Y120760D01*
X-42146Y120753D01*
X-42216Y120683D01*
X-42271Y120607D01*
X-42326Y120531D01*
X-42368Y120455D01*
X-42438Y120295D01*
X-42479Y120150D01*
X-42507Y120018D01*
X-42514Y119962D01*
X-42521Y119914D01*
X-42528Y119872D01*
Y119845D01*
Y119824D01*
Y119817D01*
X-42521Y119713D01*
X-42514Y119616D01*
X-42472Y119442D01*
X-42410Y119283D01*
X-42347Y119151D01*
X-42313Y119096D01*
X-42278Y119047D01*
X-42243Y119005D01*
X-42216Y118964D01*
X-42195Y118936D01*
X-42174Y118915D01*
X-42167Y118908D01*
X-42160Y118901D01*
X-42091Y118839D01*
X-42014Y118784D01*
X-41938Y118735D01*
X-41862Y118693D01*
X-41702Y118631D01*
X-41557Y118589D01*
X-41425Y118562D01*
X-41370Y118555D01*
X-41321Y118548D01*
X-41279Y118541D01*
X-41224D01*
X-41092Y118548D01*
X-40967Y118569D01*
X-40849Y118596D01*
X-40752Y118624D01*
X-40662Y118652D01*
X-40600Y118680D01*
X-40558Y118700D01*
X-40551Y118707D01*
X-40544D01*
X-40434Y118777D01*
X-40336Y118860D01*
X-40260Y118936D01*
X-40191Y119012D01*
X-40142Y119082D01*
X-40101Y119144D01*
X-40080Y119179D01*
X-40073Y119193D01*
X-40024Y119311D01*
X-39983Y119428D01*
X-39955Y119539D01*
X-39941Y119636D01*
X-39927Y119720D01*
X-39920Y119789D01*
Y119831D01*
Y119838D01*
Y119845D01*
X-39927Y119949D01*
X-39934Y120039D01*
X-39976Y120219D01*
X-40031Y120378D01*
X-40101Y120510D01*
X-40135Y120566D01*
X-40170Y120614D01*
X-40198Y120656D01*
X-40225Y120697D01*
X-40246Y120725D01*
X-40267Y120746D01*
X-40274Y120753D01*
X-40281Y120760D01*
X-40350Y120822D01*
X-40427Y120885D01*
X-40503Y120933D01*
X-40579Y120975D01*
X-40732Y121037D01*
X-40877Y121079D01*
X-41009Y121107D01*
X-41065Y121113D01*
X-41113Y121120D01*
X-41148Y121127D01*
D02*
G37*
G36*
X42154Y123693D02*
X39997D01*
X39880Y123679D01*
X39769Y123665D01*
X39665Y123644D01*
X39574Y123624D01*
X39491Y123596D01*
X39415Y123575D01*
X39346Y123547D01*
X39283Y123520D01*
X39235Y123492D01*
X39186Y123464D01*
X39151Y123443D01*
X39124Y123422D01*
X39103Y123409D01*
X39096Y123402D01*
X39089Y123395D01*
X39034Y123339D01*
X38978Y123277D01*
X38895Y123159D01*
X38839Y123034D01*
X38798Y122916D01*
X38770Y122812D01*
X38763Y122764D01*
Y122729D01*
X38756Y122694D01*
Y122674D01*
Y122660D01*
Y122653D01*
X38763Y122542D01*
X38784Y122431D01*
X38812Y122334D01*
X38839Y122251D01*
X38874Y122174D01*
X38902Y122126D01*
X38923Y122091D01*
X38930Y122077D01*
X38999Y121987D01*
X39082Y121904D01*
X39165Y121841D01*
X39242Y121786D01*
X39318Y121744D01*
X39373Y121717D01*
X39415Y121703D01*
X39422Y121696D01*
X39429D01*
X39561Y121654D01*
X39706Y121627D01*
X39859Y121606D01*
X40004Y121592D01*
X40136Y121585D01*
X40192D01*
X40240Y121578D01*
X42154D01*
Y123693D01*
D02*
G37*
G36*
X108138Y10092D02*
X105254D01*
Y8074D01*
X108138Y10092D01*
D02*
G37*
G36*
X-110456Y-52876D02*
X-110498D01*
X-110519D01*
X-110529D01*
X-110727Y-52881D01*
X-110904Y-52896D01*
X-110987Y-52907D01*
X-111060Y-52917D01*
X-111133Y-52928D01*
X-111196Y-52938D01*
X-111253Y-52954D01*
X-111305Y-52964D01*
X-111352Y-52975D01*
X-111388Y-52985D01*
X-111419Y-52995D01*
X-111440Y-53000D01*
X-111451Y-53006D01*
X-111456D01*
X-111591Y-53058D01*
X-111711Y-53115D01*
X-111815Y-53172D01*
X-111904Y-53224D01*
X-111972Y-53277D01*
X-112023Y-53318D01*
X-112055Y-53344D01*
X-112060Y-53349D01*
X-112065Y-53355D01*
X-112122Y-53417D01*
X-112175Y-53490D01*
X-112216Y-53563D01*
X-112253Y-53631D01*
X-112279Y-53693D01*
X-112299Y-53740D01*
X-112305Y-53761D01*
X-112310Y-53776D01*
X-112315Y-53782D01*
Y-53787D01*
X-112341Y-53896D01*
X-112362Y-54016D01*
X-112378Y-54141D01*
X-112388Y-54261D01*
X-112393Y-54365D01*
Y-54412D01*
X-112398Y-54453D01*
Y-55557D01*
X-108728D01*
Y-54448D01*
X-108733Y-54354D01*
X-108738Y-54266D01*
X-108743Y-54183D01*
X-108748Y-54110D01*
X-108759Y-54042D01*
X-108769Y-53979D01*
X-108774Y-53927D01*
X-108785Y-53881D01*
X-108795Y-53839D01*
X-108806Y-53808D01*
X-108811Y-53776D01*
X-108816Y-53755D01*
X-108821Y-53740D01*
X-108826Y-53735D01*
Y-53730D01*
X-108858Y-53662D01*
X-108889Y-53599D01*
X-108972Y-53485D01*
X-109061Y-53381D01*
X-109155Y-53292D01*
X-109238Y-53224D01*
X-109274Y-53193D01*
X-109305Y-53172D01*
X-109337Y-53151D01*
X-109358Y-53136D01*
X-109368Y-53131D01*
X-109373Y-53126D01*
X-109451Y-53084D01*
X-109540Y-53042D01*
X-109722Y-52980D01*
X-109915Y-52938D01*
X-110102Y-52907D01*
X-110191Y-52896D01*
X-110269Y-52886D01*
X-110342Y-52881D01*
X-110404D01*
X-110456Y-52876D01*
D02*
G37*
G36*
X103510Y71242D02*
X103468D01*
X103447D01*
X103437D01*
X103239Y71237D01*
X103062Y71222D01*
X102979Y71211D01*
X102906Y71201D01*
X102833Y71190D01*
X102770Y71180D01*
X102713Y71164D01*
X102661Y71154D01*
X102614Y71143D01*
X102578Y71133D01*
X102547Y71123D01*
X102526Y71118D01*
X102515Y71112D01*
X102510D01*
X102375Y71060D01*
X102255Y71003D01*
X102151Y70946D01*
X102062Y70894D01*
X101994Y70841D01*
X101943Y70800D01*
X101911Y70774D01*
X101906Y70769D01*
X101901Y70763D01*
X101844Y70701D01*
X101791Y70628D01*
X101750Y70555D01*
X101713Y70487D01*
X101687Y70425D01*
X101666Y70378D01*
X101661Y70357D01*
X101656Y70342D01*
X101651Y70336D01*
Y70331D01*
X101625Y70222D01*
X101604Y70102D01*
X101588Y69977D01*
X101578Y69857D01*
X101573Y69753D01*
Y69706D01*
X101568Y69665D01*
Y68561D01*
X105239D01*
Y69670D01*
X105233Y69764D01*
X105228Y69852D01*
X105223Y69935D01*
X105218Y70008D01*
X105207Y70076D01*
X105197Y70139D01*
X105192Y70191D01*
X105181Y70237D01*
X105171Y70279D01*
X105160Y70310D01*
X105155Y70342D01*
X105150Y70362D01*
X105145Y70378D01*
X105140Y70383D01*
Y70388D01*
X105108Y70456D01*
X105077Y70519D01*
X104994Y70633D01*
X104905Y70737D01*
X104811Y70826D01*
X104728Y70894D01*
X104692Y70925D01*
X104661Y70946D01*
X104629Y70967D01*
X104608Y70982D01*
X104598Y70987D01*
X104593Y70992D01*
X104515Y71034D01*
X104426Y71076D01*
X104244Y71138D01*
X104051Y71180D01*
X103864Y71211D01*
X103775Y71222D01*
X103697Y71232D01*
X103624Y71237D01*
X103562D01*
X103510Y71242D01*
D02*
G37*
%LPD*%
D13*
X-57270Y21590D02*
X-57676Y24025D01*
X-58851Y26197D01*
X-60668Y27869D01*
X-62929Y28860D01*
X-65389Y29064D01*
X-67783Y28458D01*
X-69850Y27108D01*
X-71366Y25160D01*
X-72168Y22824D01*
Y20356D01*
X-71366Y18020D01*
X-69850Y16072D01*
X-67783Y14722D01*
X-65389Y14116D01*
X-62929Y14319D01*
X-60668Y15311D01*
X-58851Y16983D01*
X-57676Y19155D01*
X-57270Y21590D01*
X10000Y0D02*
X9686Y2487D01*
X8763Y4818D01*
X7290Y6845D01*
X5358Y8443D01*
X3090Y9511D01*
X628Y9980D01*
X-1874Y9823D01*
X-4258Y9048D01*
X-6374Y7705D01*
X-8090Y5878D01*
X-9298Y3681D01*
X-9921Y1253D01*
Y-1253D01*
X-9298Y-3681D01*
X-8090Y-5878D01*
X-6374Y-7705D01*
X-4258Y-9048D01*
X-1874Y-9823D01*
X628Y-9980D01*
X3090Y-9511D01*
X5358Y-8443D01*
X7290Y-6845D01*
X8763Y-4818D01*
X9686Y-2487D01*
X10000Y-0D01*
X85000Y110000D02*
X84686Y112487D01*
X83763Y114818D01*
X82290Y116846D01*
X80358Y118443D01*
X78090Y119511D01*
X75628Y119980D01*
X73126Y119823D01*
X70742Y119048D01*
X68626Y117705D01*
X66910Y115878D01*
X65702Y113681D01*
X65079Y111253D01*
Y108747D01*
X65702Y106319D01*
X66910Y104122D01*
X68626Y102295D01*
X70742Y100952D01*
X73126Y100177D01*
X75628Y100020D01*
X78090Y100489D01*
X80358Y101557D01*
X82290Y103154D01*
X83763Y105183D01*
X84686Y107513D01*
X85000Y110000D01*
Y130000D02*
X84686Y132487D01*
X83763Y134817D01*
X82290Y136846D01*
X80358Y138443D01*
X78090Y139511D01*
X75628Y139980D01*
X73126Y139823D01*
X70742Y139048D01*
X68626Y137705D01*
X66910Y135878D01*
X65702Y133681D01*
X65079Y131253D01*
Y128747D01*
X65702Y126319D01*
X66910Y124122D01*
X68626Y122295D01*
X70742Y120952D01*
X73126Y120177D01*
X75628Y120020D01*
X78090Y120489D01*
X80358Y121557D01*
X82290Y123154D01*
X83763Y125183D01*
X84686Y127513D01*
X85000Y130000D01*
X116000Y310D02*
X115703Y2847D01*
X114830Y5247D01*
X113427Y7381D01*
X111569Y9133D01*
X109357Y10410D01*
X106910Y11143D01*
X104360Y11291D01*
X101845Y10848D01*
X99500Y9836D01*
X97451Y8311D01*
X95810Y6355D01*
X94663Y4072D01*
X94074Y1587D01*
Y-967D01*
X94663Y-3452D01*
X95810Y-5735D01*
X97451Y-7691D01*
X99500Y-9216D01*
X101845Y-10228D01*
X104360Y-10671D01*
X106910Y-10523D01*
X109357Y-9790D01*
X111569Y-8513D01*
X113427Y-6761D01*
X114830Y-4627D01*
X115703Y-2227D01*
X116000Y310D01*
X-94000D02*
X-94297Y2847D01*
X-95170Y5247D01*
X-96573Y7381D01*
X-98431Y9133D01*
X-100643Y10410D01*
X-103090Y11143D01*
X-105640Y11291D01*
X-108155Y10848D01*
X-110500Y9836D01*
X-112549Y8311D01*
X-114190Y6355D01*
X-115337Y4072D01*
X-115926Y1587D01*
Y-967D01*
X-115337Y-3452D01*
X-114190Y-5735D01*
X-112549Y-7691D01*
X-110500Y-9216D01*
X-108155Y-10228D01*
X-105640Y-10671D01*
X-103090Y-10523D01*
X-100643Y-9790D01*
X-98431Y-8513D01*
X-96573Y-6761D01*
X-95170Y-4627D01*
X-94297Y-2227D01*
X-94000Y310D01*
X116000Y125310D02*
X115703Y127847D01*
X114830Y130247D01*
X113427Y132381D01*
X111569Y134133D01*
X109357Y135410D01*
X106910Y136143D01*
X104360Y136291D01*
X101845Y135848D01*
X99500Y134836D01*
X97451Y133311D01*
X95810Y131355D01*
X94663Y129072D01*
X94074Y126587D01*
Y124033D01*
X94663Y121548D01*
X95810Y119265D01*
X97451Y117309D01*
X99500Y115784D01*
X101845Y114772D01*
X104360Y114329D01*
X106910Y114477D01*
X109357Y115210D01*
X111569Y116487D01*
X113427Y118239D01*
X114830Y120373D01*
X115703Y122773D01*
X116000Y125310D01*
X-94000D02*
X-94297Y127847D01*
X-95170Y130247D01*
X-96573Y132381D01*
X-98431Y134133D01*
X-100643Y135410D01*
X-103090Y136143D01*
X-105640Y136291D01*
X-108155Y135848D01*
X-110500Y134836D01*
X-112549Y133311D01*
X-114190Y131355D01*
X-115337Y129072D01*
X-115926Y126587D01*
Y124033D01*
X-115337Y121548D01*
X-114190Y119265D01*
X-112549Y117309D01*
X-110500Y115784D01*
X-108155Y114772D01*
X-105640Y114329D01*
X-103090Y114477D01*
X-100643Y115210D01*
X-98431Y116487D01*
X-96573Y118239D01*
X-95170Y120373D01*
X-94297Y122773D01*
X-94000Y125310D01*
X-98966Y-55118D02*
X-99280Y-52631D01*
X-100203Y-50300D01*
X-101676Y-48273D01*
X-103608Y-46675D01*
X-105876Y-45607D01*
X-108338Y-45138D01*
X-110840Y-45295D01*
X-113224Y-46070D01*
X-115340Y-47413D01*
X-117056Y-49240D01*
X-118264Y-51437D01*
X-118887Y-53865D01*
Y-56371D01*
X-118264Y-58799D01*
X-117056Y-60996D01*
X-115340Y-62823D01*
X-113224Y-64166D01*
X-110840Y-64941D01*
X-108338Y-65098D01*
X-105876Y-64629D01*
X-103608Y-63561D01*
X-101676Y-61964D01*
X-100203Y-59935D01*
X-99280Y-57605D01*
X-98966Y-55118D01*
X113000Y68000D02*
X112686Y70487D01*
X111763Y72818D01*
X110290Y74845D01*
X108358Y76443D01*
X106090Y77511D01*
X103628Y77980D01*
X101126Y77823D01*
X98742Y77048D01*
X96626Y75705D01*
X94910Y73878D01*
X93702Y71681D01*
X93079Y69253D01*
Y66747D01*
X93702Y64319D01*
X94910Y62122D01*
X96626Y60295D01*
X98742Y58952D01*
X101126Y58177D01*
X103628Y58020D01*
X106090Y58489D01*
X108358Y59557D01*
X110290Y61154D01*
X111763Y63182D01*
X112686Y65513D01*
X113000Y68000D01*
X27622Y78593D02*
X56997D01*
X-56878D02*
X-27378D01*
X-56878D02*
Y113968D01*
X56997D01*
Y78593D02*
Y113968D01*
X-27378Y78593D02*
X27622D01*
X-25100Y0D02*
X25100D01*
X0Y-25000D02*
Y25000D01*
X-30500Y116500D02*
Y124500D01*
X-46500Y116500D02*
Y124500D01*
Y116500D02*
X-30500D01*
X-46500Y124500D02*
X-30500D01*
X46000Y116500D02*
Y124500D01*
X30000Y116500D02*
Y124500D01*
Y116500D02*
X46000D01*
X30000Y124500D02*
X46000D01*
X-65500Y106016D02*
X-59500D01*
X-65500Y94016D02*
X-59500D01*
Y106016D01*
X-65500Y94016D02*
Y106016D01*
X59400D02*
X65400D01*
X59400Y94016D02*
X65400D01*
Y106016D01*
X59400Y94016D02*
Y106016D01*
D91*
X-51122Y78820D02*
X-42500Y54082D01*
X-42478Y42456D02*
Y54082D01*
X42500Y54104D02*
X51122Y78843D01*
X42478Y42478D02*
Y54104D01*
X-42519Y42478D02*
X42522D01*
Y-42519D02*
Y42478D01*
X-42519Y-42500D02*
X42522D01*
X-42519D02*
Y42478D01*
M02*
