M48
;Layer_Color=9474304
;FILE_FORMAT=4:4
METRIC
;TYPE=PLATED
T1F00S00C0.2032
T2F00S00C0.2540
T4F00S00C0.8600
T6F00S00C2.7500
T7F00S00C3.0000
%
T01
X00014800Y00067800
X00044000Y00065000
X00068400Y00067800
X00065278Y00092202
X00066040Y00097523
Y00102477
X00065342Y00107500
X00065278Y00112522
X00065180Y00122458
X00065342Y00132500
Y00137500
Y00142500
X00065278Y00147828
X00080264Y00146939
X00080777Y00141383
X00081812Y00134644
X00078486Y00130048
X00072847Y00118541
X00081026Y00111506
X00086985Y00112268
X00079248Y00105156
X00094000Y00092000
Y00083350
X00105275Y00095500
X00112000Y00093000
X00110700Y00074900
X00116400Y00065210
X00118000Y00055000
X00103700Y00065400
X00128700Y00074900
X00144000Y00067000
X00142750Y00087598
X00147886Y00091249
X00151389Y00094751
X00154178Y00100076
X00137000Y00091425
X00141355Y00114519
X00138834Y00120500
X00136000Y00141000
X00123445Y00147000
X00109000Y00143000
X00095000Y00132000
X00157988Y00137414
X00134000Y00016000
X00073000Y00042774
X00183326Y00061152
X00206000Y00063000
X00201662Y00067526
Y00072480
X00199000Y00078000
X00212000
X00215326Y00061148
X00234316Y00054738
X00238062Y00083579
X00244204Y00084350
X00249157
X00253510Y00092198
X00225784Y00096216
X00222192Y00099808
X00224000Y00089000
X00209188Y00102000
X00209224Y00114280
X00209312Y00126000
X00209120Y00137840
X00209182Y00150160
X00198120Y00146476
Y00141524
X00194776Y00137869
X00199644Y00134476
Y00129523
X00198120Y00122477
Y00117523
X00191020Y00114888
X00195326Y00110477
Y00105524
X00190681Y00101165
X00193482Y00126816
X00194532Y00149891
X00173000Y00145000
X00174000Y00133000
X00270000Y00114000
X00288708Y00121000
X00296000Y00111000
X00320439Y00112746
X00328637Y00111750
X00333717
X00339742Y00112746
X00337373Y00096216
X00346169Y00097291
X00351122
X00359308Y00097168
X00357523Y00080750
X00362477
X00368296Y00078542
X00350873Y00080400
X00351215Y00058535
X00357738Y00055500
X00362691
X00367500Y00050000
X00372523Y00052116
X00377477
X00384099Y00048939
X00387500Y00053712
X00417500Y00055448
X00422677Y00049325
X00427675Y00051203
X00432755
X00438201Y00047061
X00413000Y00027000
X00404000Y00016000
X00385238Y00022000
X00352552Y00050000
X00316000Y00021000
X00279071Y00037583
X00252730Y00037846
X00247000Y00017000
X00306000Y00137000
X00339000
X00377000
X00378000Y00093000
X00403682Y00081319
X00420500Y00079000
X00463000Y00105000
X00483000Y00017000
X00586278Y00098202
X00573000Y00158000
Y00172000
X00584000Y00206000
X00576280Y00296718
X00550000Y00262594
X00546354Y00258477
Y00253524
X00541274Y00249415
X00546354Y00243477
Y00238524
X00544252Y00234039
X00548640Y00228477
Y00223524
X00546220Y00217523
X00546608Y00212477
Y00207523
X00551141Y00202524
X00547116Y00197634
Y00192554
X00546920Y00186399
X00549500Y00180373
X00545098Y00175567
X00522831Y00185921
X00521208Y00192976
Y00197929
X00518730Y00203104
X00521208Y00208524
Y00213477
X00524597Y00218798
X00518414Y00232918
X00517831Y00248408
X00518000Y00279000
X00550990Y00247147
X00483292Y00230317
X00481012Y00217932
X00485965
X00492548Y00220886
X00473074Y00220915
X00440436Y00221234
X00434086Y00212090
X00424125Y00214375
X00424000Y00222000
Y00206000
X00415872Y00209888
X00412000Y00206756
X00401000Y00234000
X00395000Y00239000
X00400000Y00247000
X00406000Y00257000
X00405000Y00265000
X00385000Y00252000
X00376158Y00238051
X00373000Y00234000
X00375000Y00217000
X00390000Y00231000
X00334000Y00217000
X00303000
X00292301Y00194900
X00286589Y00195800
X00248000Y00191000
Y00216000
X00240000Y00235000
X00233000Y00234000
X00228000Y00240000
X00209544Y00238000
X00204000Y00234000
X00200000Y00240000
X00195005Y00235544
X00195398Y00223606
X00193000Y00219000
X00190378Y00214000
X00198000Y00216000
X00204000Y00214000
X00209622Y00214000
Y00202000
X00205872Y00198000
X00209622Y00194000
Y00186000
X00203250Y00178000
X00197408Y00178158
X00197724Y00170683
X00200250Y00166000
X00199136Y00158476
Y00153524
X00195020Y00162000
X00205692Y00162130
X00204250Y00173000
X00190378Y00186000
Y00194000
X00194128Y00198000
X00190378Y00202000
X00174000Y00213000
X00166000Y00197000
X00169000Y00192000
X00173000Y00187000
X00178000Y00186200
X00221678Y00190000
Y00210000
X00226999Y00206000
X00223000Y00219000
X00206000Y00247000
X00191000Y00246999
X00178000Y00249000
X00178244Y00242000
X00172000Y00252999
X00168656Y00259080
X00168910Y00282702
X00172789Y00289524
Y00294477
X00174244Y00299720
X00207264Y00296418
X00208534Y00288036
X00205232Y00282477
Y00277523
X00206516Y00271031
X00201154Y00271242
X00191262Y00270540
Y00265460
X00197358Y00260604
X00207898Y00262000
X00211694Y00339144
X00216316Y00343267
X00220162Y00336660
X00218000Y00354499
X00213000Y00357000
X00252000Y00353000
X00259655Y00355017
X00241000Y00316000
X00182000Y00331999
X00223500Y00391499
X00316556Y00376500
X00320000Y00332000
X00362500Y00345736
X00367523Y00349608
X00372477
X00376688Y00345800
X00382500Y00345929
X00392500Y00340798
X00397510Y00347218
X00407500Y00342500
X00402999Y00334999
X00399999Y00324999
X00412000Y00319448
X00432500Y00321000
Y00346518
X00437523Y00344932
X00442477
X00447500Y00346504
X00427477Y00348996
X00422523
X00416385Y00347957
X00399000Y00383000
X00376000Y00321000
X00381450Y00314716
X00351000Y00286000
X00441613Y00280705
X00448631Y00203950
X00448818Y00197993
Y00192913
X00451283Y00186399
X00448882Y00160655
X00482015Y00166000
X00475000Y00332000
X00481004Y00376500
X00523000Y00377000
X00225044Y00162052
X00221730Y00158000
X00160000Y00157000
X00151471Y00153249
X00145542Y00171196
X00139000Y00174000
X00133501Y00183336
X00135890Y00161798
X00110244Y00167000
X00109000Y00185000
X00085000Y00184000
X00083000Y00169000
X00051562Y00163322
X00034798Y00163322
X00014800Y00172200
X00035000Y00200000
X00034000Y00212000
X00041000Y00213000
X00035000Y00225000
Y00238000
X00018000Y00257000
X00057000Y00258000
X00071995Y00231501
X00073890Y00219631
X00074739Y00198628
X00096718Y00202415
X00143499Y00203501
X00156000Y00192000
X00149000Y00330000
X00151000Y00338999
X00148000Y00347500
X00147000Y00357000
X00144700Y00365700
X00152000Y00366000
X00146000Y00372406
X00146827Y00377359
X00134458Y00391387
X00129573Y00319000
X00083170Y00343775
X00081630Y00348870
X00069500Y00357000
X00063000Y00357689
T02
X00258250Y00079000
X00299750
X00279000Y00058250
Y00099750
X00500250Y00079000
X00541750
X00521000Y00058250
Y00099750
Y00300250
X00541750Y00321000
X00500250
X00521000Y00341750
X00340019Y00361289
X00332011
X00324004
X00299750Y00321000
X00258250
X00279000Y00300250
Y00341750
X00261031Y00367063
Y00375071
X00253833Y00378354
Y00370347
X00096257Y00356427
X00088250
X00080243
X00080168Y00315650
X00072668
Y00308150
X00080168
X00093750Y00311454
X00093222Y00290550
Y00282542
Y00274535
Y00266527
X00138000Y00251783
X00066699Y00317473
T04
X00085000Y00375500
X00105000
T06
X00030000Y00030000
X00570000
Y00370000
X00030000
T07
X00279000Y00079000
X00521000
Y00321000
X00279000
M30
