G04*
G04 #@! TF.GenerationSoftware,Altium Limited,Altium Designer,20.0.13 (296)*
G04*
G04 Layer_Color=255*
%FSLAX44Y44*%
%MOMM*%
G71*
G01*
G75*
%ADD13R,0.3000X0.8000*%
%ADD14R,1.6500X1.3000*%
%ADD15R,0.3000X1.0000*%
%ADD16R,1.1000X1.1000*%
%ADD18R,0.5500X0.6500*%
%ADD19R,0.9000X1.0000*%
%ADD20R,1.0000X0.9000*%
%ADD21R,0.6500X0.5500*%
%ADD22R,0.6200X0.6200*%
%ADD24R,0.6200X0.6200*%
%ADD25R,0.6000X4.2000*%
%ADD26R,0.6000X2.0000*%
%ADD44C,1.0000*%
%ADD45C,0.7500*%
G04:AMPARAMS|DCode=46|XSize=1.2mm|YSize=2mm|CornerRadius=0.06mm|HoleSize=0mm|Usage=FLASHONLY|Rotation=180.000|XOffset=0mm|YOffset=0mm|HoleType=Round|Shape=RoundedRectangle|*
%AMROUNDEDRECTD46*
21,1,1.2000,1.8800,0,0,180.0*
21,1,1.0800,2.0000,0,0,180.0*
1,1,0.1200,-0.5400,0.9400*
1,1,0.1200,0.5400,0.9400*
1,1,0.1200,0.5400,-0.9400*
1,1,0.1200,-0.5400,-0.9400*
%
%ADD46ROUNDEDRECTD46*%
G04:AMPARAMS|DCode=47|XSize=0.6mm|YSize=0.5mm|CornerRadius=0.025mm|HoleSize=0mm|Usage=FLASHONLY|Rotation=180.000|XOffset=0mm|YOffset=0mm|HoleType=Round|Shape=RoundedRectangle|*
%AMROUNDEDRECTD47*
21,1,0.6000,0.4500,0,0,180.0*
21,1,0.5500,0.5000,0,0,180.0*
1,1,0.0500,-0.2750,0.2250*
1,1,0.0500,0.2750,0.2250*
1,1,0.0500,0.2750,-0.2250*
1,1,0.0500,-0.2750,-0.2250*
%
%ADD47ROUNDEDRECTD47*%
%ADD48R,0.4000X0.9000*%
D13*
X27500Y124500D02*
D03*
X32500D02*
D03*
X37500D02*
D03*
X42500D02*
D03*
X27500Y155500D02*
D03*
X32500D02*
D03*
X37500D02*
D03*
X42500D02*
D03*
X30000Y69500D02*
D03*
X35000D02*
D03*
X40000D02*
D03*
X45000D02*
D03*
X30000Y100500D02*
D03*
X35000D02*
D03*
X40000D02*
D03*
X45000D02*
D03*
D14*
X39840Y21000D02*
D03*
X210340D02*
D03*
D15*
X187590Y40000D02*
D03*
X167590D02*
D03*
X147590D02*
D03*
X127590D02*
D03*
X122590D02*
D03*
X102590D02*
D03*
X82590D02*
D03*
X62590D02*
D03*
X177590D02*
D03*
X182590D02*
D03*
X172590D02*
D03*
X157590D02*
D03*
X162590D02*
D03*
X152590D02*
D03*
X137590D02*
D03*
X142590D02*
D03*
X132590D02*
D03*
X117590D02*
D03*
X112590D02*
D03*
X107590D02*
D03*
X92590D02*
D03*
X97590D02*
D03*
X87590D02*
D03*
X72590D02*
D03*
X77590D02*
D03*
X67590D02*
D03*
D16*
X87500Y128500D02*
D03*
Y146500D02*
D03*
X112500Y128500D02*
D03*
Y146500D02*
D03*
X137500Y128500D02*
D03*
Y146500D02*
D03*
X162500Y128500D02*
D03*
Y146500D02*
D03*
X112500Y78500D02*
D03*
Y96500D02*
D03*
X162500Y78500D02*
D03*
Y96500D02*
D03*
X137500Y78500D02*
D03*
Y96500D02*
D03*
X87500Y78500D02*
D03*
Y96500D02*
D03*
D18*
X192500Y112500D02*
D03*
X202500D02*
D03*
X10000Y175000D02*
D03*
X20000D02*
D03*
D19*
X233000Y55000D02*
D03*
X217000D02*
D03*
X238000Y167500D02*
D03*
X222000D02*
D03*
X233750Y111250D02*
D03*
X217750D02*
D03*
D20*
X195000Y143000D02*
D03*
Y127000D02*
D03*
D21*
X180000Y117500D02*
D03*
Y107500D02*
D03*
X15000Y100000D02*
D03*
Y110000D02*
D03*
D22*
X197000Y72500D02*
D03*
X188000D02*
D03*
X33500Y55000D02*
D03*
X42500D02*
D03*
D24*
X12500Y150500D02*
D03*
Y159500D02*
D03*
X12500Y137500D02*
D03*
Y128500D02*
D03*
X15000Y71000D02*
D03*
Y80000D02*
D03*
D25*
X205000Y195000D02*
D03*
X45000D02*
D03*
D26*
X195000Y175000D02*
D03*
X185000D02*
D03*
X175000D02*
D03*
X165000D02*
D03*
X155000D02*
D03*
X145000D02*
D03*
X135000D02*
D03*
X125000D02*
D03*
X115000D02*
D03*
X105000D02*
D03*
X95000D02*
D03*
X85000D02*
D03*
X75000D02*
D03*
X65000D02*
D03*
X55000D02*
D03*
D44*
X235000Y15000D02*
D03*
X15000D02*
D03*
X185000Y90000D02*
D03*
X17500Y55000D02*
D03*
X235000Y220000D02*
D03*
D45*
X62590Y60000D02*
D03*
X77590D02*
D03*
X117590D02*
D03*
X130090Y55000D02*
D03*
D46*
X225000Y85000D02*
D03*
D47*
X235500Y75250D02*
D03*
Y81750D02*
D03*
Y88250D02*
D03*
Y94750D02*
D03*
X214500D02*
D03*
Y88250D02*
D03*
Y81750D02*
D03*
Y75250D02*
D03*
D48*
X231500Y151000D02*
D03*
Y129000D02*
D03*
X218500Y151000D02*
D03*
Y129000D02*
D03*
X225000D02*
D03*
M02*
