G04*
G04 #@! TF.GenerationSoftware,Altium Limited,Altium Designer,20.0.13 (296)*
G04*
G04 Layer_Color=255*
%FSLAX44Y44*%
%MOMM*%
G71*
G01*
G75*
G04:AMPARAMS|DCode=16|XSize=0.24mm|YSize=0.6mm|CornerRadius=0.06mm|HoleSize=0mm|Usage=FLASHONLY|Rotation=90.000|XOffset=0mm|YOffset=0mm|HoleType=Round|Shape=RoundedRectangle|*
%AMROUNDEDRECTD16*
21,1,0.2400,0.4800,0,0,90.0*
21,1,0.1200,0.6000,0,0,90.0*
1,1,0.1200,0.2400,0.0600*
1,1,0.1200,0.2400,-0.0600*
1,1,0.1200,-0.2400,-0.0600*
1,1,0.1200,-0.2400,0.0600*
%
%ADD16ROUNDEDRECTD16*%
G04:AMPARAMS|DCode=17|XSize=0.25mm|YSize=0.65mm|CornerRadius=0.0625mm|HoleSize=0mm|Usage=FLASHONLY|Rotation=0.000|XOffset=0mm|YOffset=0mm|HoleType=Round|Shape=RoundedRectangle|*
%AMROUNDEDRECTD17*
21,1,0.2500,0.5250,0,0,0.0*
21,1,0.1250,0.6500,0,0,0.0*
1,1,0.1250,0.0625,-0.2625*
1,1,0.1250,-0.0625,-0.2625*
1,1,0.1250,-0.0625,0.2625*
1,1,0.1250,0.0625,0.2625*
%
%ADD17ROUNDEDRECTD17*%
%ADD18R,0.6200X0.6200*%
%ADD19R,0.1500X0.6500*%
%ADD20R,2.0000X0.9000*%
%ADD21R,1.3300X1.3300*%
%ADD22R,0.9000X2.0000*%
%ADD23R,0.9000X0.7000*%
%ADD24R,0.6200X0.6200*%
%ADD25R,0.6500X0.5500*%
%ADD26R,0.5500X0.6500*%
%ADD27R,0.7000X0.9000*%
G04:AMPARAMS|DCode=30|XSize=0.3mm|YSize=0.67mm|CornerRadius=0.0495mm|HoleSize=0mm|Usage=FLASHONLY|Rotation=270.000|XOffset=0mm|YOffset=0mm|HoleType=Round|Shape=RoundedRectangle|*
%AMROUNDEDRECTD30*
21,1,0.3000,0.5710,0,0,270.0*
21,1,0.2010,0.6700,0,0,270.0*
1,1,0.0990,-0.2855,-0.1005*
1,1,0.0990,-0.2855,0.1005*
1,1,0.0990,0.2855,0.1005*
1,1,0.0990,0.2855,-0.1005*
%
%ADD30ROUNDEDRECTD30*%
%ADD31R,2.0000X0.8000*%
%ADD32R,0.9000X1.0000*%
%ADD33R,0.4500X0.5500*%
%ADD34R,0.9000X1.6000*%
%ADD35R,0.5000X0.2800*%
%ADD36R,0.5200X0.5200*%
%ADD37R,0.6000X0.6000*%
%ADD38R,0.6000X0.4000*%
%ADD39R,0.5500X0.3000*%
%ADD40R,0.5500X0.4000*%
%ADD41R,1.3000X1.5000*%
%ADD42R,1.5000X1.3000*%
%ADD43R,0.5200X0.5200*%
%ADD44R,1.5500X0.6000*%
%ADD45R,1.8000X1.2000*%
%ADD46R,0.3000X0.7100*%
%ADD47R,0.5500X0.4500*%
%ADD48R,0.6750X0.2500*%
%ADD49R,0.2500X0.5750*%
%ADD50R,1.4000X0.7500*%
%ADD51R,1.0000X0.9000*%
%ADD52R,0.4200X0.4600*%
%ADD53R,0.3500X0.8500*%
%ADD54R,0.8500X0.3500*%
G04:AMPARAMS|DCode=112|XSize=2.05mm|YSize=3.05mm|CornerRadius=0.0513mm|HoleSize=0mm|Usage=FLASHONLY|Rotation=0.000|XOffset=0mm|YOffset=0mm|HoleType=Round|Shape=RoundedRectangle|*
%AMROUNDEDRECTD112*
21,1,2.0500,2.9475,0,0,0.0*
21,1,1.9475,3.0500,0,0,0.0*
1,1,0.1025,0.9738,-1.4738*
1,1,0.1025,-0.9738,-1.4738*
1,1,0.1025,-0.9738,1.4738*
1,1,0.1025,0.9738,1.4738*
%
%ADD112ROUNDEDRECTD112*%
%ADD113C,1.0000*%
%ADD114R,0.9000X0.4000*%
%ADD115R,0.4000X0.9000*%
%ADD124O,0.4064X0.4060*%
%ADD125O,4.5000X2.5000*%
%ADD126O,2.5000X5.0000*%
%ADD127O,2.5000X4.5000*%
%ADD128C,1.8000*%
%ADD129C,0.8000*%
%ADD130R,0.8000X0.8000*%
%ADD131C,4.7500*%
%ADD132R,1.3680X1.3680*%
%ADD133C,1.3680*%
%ADD134O,1.9000X1.1000*%
%ADD135O,2.4000X1.1000*%
%ADD136C,2.7000*%
D16*
X25000Y98000D02*
D03*
Y93000D02*
D03*
Y88000D02*
D03*
Y83000D02*
D03*
Y78000D02*
D03*
Y73000D02*
D03*
Y68000D02*
D03*
X58000Y63000D02*
D03*
Y68000D02*
D03*
Y73000D02*
D03*
Y78000D02*
D03*
Y83000D02*
D03*
Y88000D02*
D03*
Y93000D02*
D03*
X25000Y63000D02*
D03*
X58000Y98000D02*
D03*
X88500Y84500D02*
D03*
Y79500D02*
D03*
Y74500D02*
D03*
Y69500D02*
D03*
Y64500D02*
D03*
Y59500D02*
D03*
Y54500D02*
D03*
X121500Y49500D02*
D03*
Y54500D02*
D03*
Y59500D02*
D03*
Y64500D02*
D03*
Y69500D02*
D03*
Y74500D02*
D03*
Y79500D02*
D03*
X88500Y49500D02*
D03*
X121500Y84500D02*
D03*
D17*
X49000Y102000D02*
D03*
X34000D02*
D03*
X49000Y59000D02*
D03*
X34000D02*
D03*
X112500Y88500D02*
D03*
X97500D02*
D03*
X112500Y45500D02*
D03*
X97500D02*
D03*
D18*
X567364Y280162D02*
D03*
X558364D02*
D03*
X54500Y45000D02*
D03*
X63500D02*
D03*
X34000Y118000D02*
D03*
X43000D02*
D03*
X110500Y103000D02*
D03*
X119500D02*
D03*
X86500D02*
D03*
X95500D02*
D03*
X112500Y31000D02*
D03*
X121500D02*
D03*
X269500Y114000D02*
D03*
X278500D02*
D03*
X255500Y114000D02*
D03*
X246500D02*
D03*
D19*
X76000Y176750D02*
D03*
X80000D02*
D03*
X84000D02*
D03*
X88000D02*
D03*
X92000D02*
D03*
X96000D02*
D03*
X100000D02*
D03*
X104000D02*
D03*
X108000D02*
D03*
X112000D02*
D03*
X116000D02*
D03*
X120000D02*
D03*
X76000Y141250D02*
D03*
X80000D02*
D03*
X84000D02*
D03*
X88000D02*
D03*
X92000D02*
D03*
X96000D02*
D03*
X100000D02*
D03*
X104000D02*
D03*
X108000D02*
D03*
X112000D02*
D03*
X116000D02*
D03*
X120000D02*
D03*
X476000Y176750D02*
D03*
X480000D02*
D03*
X484000D02*
D03*
X488000D02*
D03*
X492000D02*
D03*
X496000D02*
D03*
X500000D02*
D03*
X504000D02*
D03*
X508000D02*
D03*
X512000D02*
D03*
X516000D02*
D03*
X520000D02*
D03*
X476000Y141250D02*
D03*
X480000D02*
D03*
X484000D02*
D03*
X488000D02*
D03*
X492000D02*
D03*
X496000D02*
D03*
X500000D02*
D03*
X504000D02*
D03*
X508000D02*
D03*
X512000D02*
D03*
X516000D02*
D03*
X520000D02*
D03*
D20*
X433000Y194800D02*
D03*
X263000D02*
D03*
Y182100D02*
D03*
Y169400D02*
D03*
Y156700D02*
D03*
Y144000D02*
D03*
X433000D02*
D03*
Y156700D02*
D03*
Y169400D02*
D03*
Y182100D02*
D03*
Y207500D02*
D03*
Y220200D02*
D03*
Y232900D02*
D03*
Y245600D02*
D03*
Y258300D02*
D03*
Y271000D02*
D03*
Y283700D02*
D03*
Y296400D02*
D03*
Y309100D02*
D03*
Y321800D02*
D03*
Y334500D02*
D03*
Y347200D02*
D03*
Y359900D02*
D03*
Y372600D02*
D03*
X263000D02*
D03*
Y359900D02*
D03*
Y347200D02*
D03*
Y334500D02*
D03*
Y321800D02*
D03*
Y309100D02*
D03*
Y296400D02*
D03*
Y283700D02*
D03*
Y271000D02*
D03*
Y258300D02*
D03*
Y245600D02*
D03*
Y232900D02*
D03*
Y220200D02*
D03*
Y207500D02*
D03*
D21*
X356350Y279250D02*
D03*
X319650Y315950D02*
D03*
X338000D02*
D03*
X356350D02*
D03*
X319650Y297600D02*
D03*
X338000D02*
D03*
X356350D02*
D03*
X319650Y279250D02*
D03*
X338000D02*
D03*
D22*
X290850Y197500D02*
D03*
X303550D02*
D03*
X316250D02*
D03*
X328950D02*
D03*
X341650D02*
D03*
X354350D02*
D03*
X367050D02*
D03*
X379750D02*
D03*
X392450D02*
D03*
X405150D02*
D03*
D23*
X225000Y130000D02*
D03*
Y144000D02*
D03*
X33000Y144000D02*
D03*
Y130000D02*
D03*
X240000Y171000D02*
D03*
Y157000D02*
D03*
X175000Y138000D02*
D03*
Y152000D02*
D03*
X191000Y157000D02*
D03*
Y171000D02*
D03*
X157000Y222000D02*
D03*
Y208000D02*
D03*
X422000Y53000D02*
D03*
Y67000D02*
D03*
X190000Y256000D02*
D03*
Y270000D02*
D03*
X172000Y232000D02*
D03*
Y218000D02*
D03*
X33000Y180000D02*
D03*
Y166000D02*
D03*
X580000Y71000D02*
D03*
Y57000D02*
D03*
D24*
X56000Y116500D02*
D03*
Y125500D02*
D03*
X216000Y85000D02*
D03*
Y94000D02*
D03*
D25*
X61000Y24000D02*
D03*
Y34000D02*
D03*
X203000Y91000D02*
D03*
Y101000D02*
D03*
D26*
X96000Y34000D02*
D03*
X86000D02*
D03*
X422000Y43000D02*
D03*
X412000D02*
D03*
X402000Y43000D02*
D03*
X392000D02*
D03*
X218000Y60000D02*
D03*
X208000D02*
D03*
X218000Y49000D02*
D03*
X208000D02*
D03*
D27*
X166000Y167000D02*
D03*
X180000D02*
D03*
X229000Y185000D02*
D03*
X243000D02*
D03*
X219473Y230456D02*
D03*
X233473D02*
D03*
X163486Y269704D02*
D03*
X149486D02*
D03*
X118000Y118000D02*
D03*
X104000D02*
D03*
X578000Y124000D02*
D03*
X564000D02*
D03*
D30*
X393600Y60000D02*
D03*
X408400Y55000D02*
D03*
Y60000D02*
D03*
Y65000D02*
D03*
X393600D02*
D03*
Y55000D02*
D03*
D31*
X374000Y64000D02*
D03*
Y44000D02*
D03*
X203000Y209000D02*
D03*
Y189000D02*
D03*
D32*
X363000Y29000D02*
D03*
X379000D02*
D03*
X240000Y31000D02*
D03*
X224000D02*
D03*
X272000D02*
D03*
X256000D02*
D03*
X309000Y112000D02*
D03*
X293000D02*
D03*
X215000Y114000D02*
D03*
X231000D02*
D03*
D33*
X244500Y220000D02*
D03*
X235500D02*
D03*
X227000D02*
D03*
X218000D02*
D03*
X463500Y40000D02*
D03*
X472500D02*
D03*
X571086Y210268D02*
D03*
X580086D02*
D03*
D34*
X232000Y204000D02*
D03*
D35*
X241500Y196500D02*
D03*
Y201500D02*
D03*
Y206500D02*
D03*
Y211500D02*
D03*
X222500Y196500D02*
D03*
Y201500D02*
D03*
Y206500D02*
D03*
Y211500D02*
D03*
D36*
X519500Y130000D02*
D03*
X511500D02*
D03*
X486500Y187500D02*
D03*
X494500D02*
D03*
X471000Y187000D02*
D03*
X463000D02*
D03*
X179000Y257000D02*
D03*
X171000D02*
D03*
X194014Y246844D02*
D03*
X186014D02*
D03*
X571514Y192819D02*
D03*
X579514D02*
D03*
X571586Y201632D02*
D03*
X579586D02*
D03*
X110000Y128000D02*
D03*
X118000D02*
D03*
X505000Y101000D02*
D03*
X497000D02*
D03*
X55000Y185000D02*
D03*
X63000D02*
D03*
D37*
X559000Y362500D02*
D03*
Y347500D02*
D03*
X577000D02*
D03*
Y362500D02*
D03*
D38*
X559000Y355000D02*
D03*
X577000D02*
D03*
D39*
X481900Y215000D02*
D03*
Y220000D02*
D03*
Y230000D02*
D03*
Y235000D02*
D03*
X474100D02*
D03*
Y230000D02*
D03*
Y220000D02*
D03*
Y215000D02*
D03*
D40*
X481900Y225000D02*
D03*
X474100D02*
D03*
D41*
X206500Y253000D02*
D03*
X225500D02*
D03*
X186500Y226000D02*
D03*
X205500D02*
D03*
X90500Y120000D02*
D03*
X71500D02*
D03*
D42*
X156000Y255500D02*
D03*
Y236500D02*
D03*
X16000Y136500D02*
D03*
Y117500D02*
D03*
Y176500D02*
D03*
Y157500D02*
D03*
D43*
X172900Y275500D02*
D03*
Y267500D02*
D03*
X79000Y194000D02*
D03*
Y186000D02*
D03*
D44*
X50375Y288800D02*
D03*
Y298800D02*
D03*
Y308800D02*
D03*
Y318800D02*
D03*
Y210000D02*
D03*
Y220000D02*
D03*
Y230000D02*
D03*
Y240000D02*
D03*
D45*
X11625Y331800D02*
D03*
Y275800D02*
D03*
Y253000D02*
D03*
Y197000D02*
D03*
D46*
X448000Y27100D02*
D03*
X438000D02*
D03*
X443000Y14900D02*
D03*
X418000Y26100D02*
D03*
X408000D02*
D03*
X413000Y13900D02*
D03*
X478000Y27100D02*
D03*
X468000D02*
D03*
X473000Y14900D02*
D03*
D47*
X398000Y28500D02*
D03*
Y19500D02*
D03*
X428000Y28500D02*
D03*
Y19500D02*
D03*
X458000Y28500D02*
D03*
Y19500D02*
D03*
X562993Y256492D02*
D03*
Y265493D02*
D03*
X552993D02*
D03*
Y256492D02*
D03*
D48*
X263625Y97500D02*
D03*
Y52500D02*
D03*
Y57500D02*
D03*
Y62500D02*
D03*
Y67500D02*
D03*
Y72500D02*
D03*
Y77500D02*
D03*
Y82500D02*
D03*
Y87500D02*
D03*
Y92500D02*
D03*
X232375Y97500D02*
D03*
Y92500D02*
D03*
Y87500D02*
D03*
Y82500D02*
D03*
Y77500D02*
D03*
Y72500D02*
D03*
Y67500D02*
D03*
Y62500D02*
D03*
Y57500D02*
D03*
Y52500D02*
D03*
D49*
X240500Y51875D02*
D03*
X245500D02*
D03*
X250500D02*
D03*
X255500D02*
D03*
Y98125D02*
D03*
X250500D02*
D03*
X245500D02*
D03*
X240500D02*
D03*
D50*
X301500Y77150D02*
D03*
Y91750D02*
D03*
D51*
X242000Y129000D02*
D03*
Y145000D02*
D03*
D52*
X286250Y96500D02*
D03*
Y89900D02*
D03*
Y72900D02*
D03*
Y79500D02*
D03*
D53*
X577500Y160000D02*
D03*
X571000D02*
D03*
X564500D02*
D03*
Y138000D02*
D03*
X571000D02*
D03*
X577500D02*
D03*
D54*
X555677Y68466D02*
D03*
Y61966D02*
D03*
Y55466D02*
D03*
X533677D02*
D03*
Y61966D02*
D03*
Y68466D02*
D03*
D112*
X41500Y80500D02*
D03*
X105000Y67000D02*
D03*
D113*
X519844Y23692D02*
D03*
X586037Y251614D02*
D03*
X130412Y124877D02*
D03*
X499000Y24000D02*
D03*
X497000Y86000D02*
D03*
X537858Y36186D02*
D03*
X590000Y90000D02*
D03*
X160919Y138035D02*
D03*
X57000Y13000D02*
D03*
X435081Y59487D02*
D03*
X143000Y148000D02*
D03*
X240627Y244018D02*
D03*
X212321Y273958D02*
D03*
X369000Y96000D02*
D03*
X184000Y105000D02*
D03*
X379000Y17000D02*
D03*
X265318Y127933D02*
D03*
X205000Y80000D02*
D03*
X294000Y30000D02*
D03*
X318874D02*
D03*
X182644Y82103D02*
D03*
X564000Y388000D02*
D03*
X320328Y124069D02*
D03*
X180602Y68454D02*
D03*
X490000Y437000D02*
D03*
X541000D02*
D03*
X319686Y90864D02*
D03*
X328700Y105499D02*
D03*
X341000Y122000D02*
D03*
X367284Y123444D02*
D03*
X360803Y108584D02*
D03*
X312794Y54858D02*
D03*
X344424Y96266D02*
D03*
X291718Y58510D02*
D03*
X239037Y272959D02*
D03*
X586000Y323826D02*
D03*
X566000Y303826D02*
D03*
Y323826D02*
D03*
X586000Y283826D02*
D03*
Y303826D02*
D03*
X448000Y43000D02*
D03*
X454000Y63000D02*
D03*
X15000Y353000D02*
D03*
X38000Y390500D02*
D03*
X538000Y15000D02*
D03*
X584767Y387000D02*
D03*
D114*
X211000Y137000D02*
D03*
Y130500D02*
D03*
X189000D02*
D03*
X211000Y143500D02*
D03*
X189000D02*
D03*
X227000Y164000D02*
D03*
Y157500D02*
D03*
X205000D02*
D03*
X227000Y170500D02*
D03*
X205000D02*
D03*
D115*
X182500Y206000D02*
D03*
Y184000D02*
D03*
X169500Y206000D02*
D03*
Y184000D02*
D03*
X176000D02*
D03*
D124*
X41500Y93250D02*
D03*
X41500Y67750D02*
D03*
X33750Y80500D02*
D03*
X49250D02*
D03*
X105000Y79750D02*
D03*
X105000Y54250D02*
D03*
X97250Y67000D02*
D03*
X112750D02*
D03*
X328825Y315950D02*
D03*
X347175D02*
D03*
X319650Y306775D02*
D03*
X338000D02*
D03*
X356350D02*
D03*
X328825Y297600D02*
D03*
X347175D02*
D03*
X319650Y288425D02*
D03*
X338000D02*
D03*
X356350D02*
D03*
X328825Y279250D02*
D03*
X347175D02*
D03*
D125*
X499750Y52750D02*
D03*
D126*
X470000Y101000D02*
D03*
D127*
X530000Y101000D02*
D03*
D128*
X571750Y101000D02*
D03*
D129*
X158500Y433000D02*
D03*
X146000D02*
D03*
X108500D02*
D03*
X96000D02*
D03*
X83500D02*
D03*
X121000D02*
D03*
X133500D02*
D03*
X71000Y17000D02*
D03*
X96000D02*
D03*
X83500D02*
D03*
X146000D02*
D03*
X133500D02*
D03*
X108500D02*
D03*
X121000D02*
D03*
D130*
X71000Y433000D02*
D03*
X158500Y17000D02*
D03*
D131*
X26000Y424000D02*
D03*
X574000Y26000D02*
D03*
X26000D02*
D03*
X574000Y424000D02*
D03*
D132*
X525000Y427000D02*
D03*
D133*
X505000D02*
D03*
D134*
X531509Y268263D02*
D03*
Y181862D02*
D03*
D135*
X585109Y268263D02*
D03*
Y181862D02*
D03*
D136*
X157000Y346000D02*
D03*
Y104000D02*
D03*
X399000Y104000D02*
D03*
Y346000D02*
D03*
M02*
