G04*
G04 #@! TF.GenerationSoftware,Altium Limited,Altium Designer,20.0.13 (296)*
G04*
G04 Layer_Color=7807054*
%FSLAX44Y44*%
%MOMM*%
G71*
G01*
G75*
%ADD12C,0.2000*%
%ADD110C,0.1016*%
%ADD111C,0.1270*%
%ADD188C,0.1000*%
D12*
X228500Y48500D02*
X267500D01*
X228500Y101500D02*
X267500D01*
Y48500D02*
Y101500D01*
X228500Y48500D02*
Y101500D01*
D110*
X187999Y126001D02*
Y148001D01*
X211999D01*
Y126001D02*
Y148001D01*
X187999Y126001D02*
X211999D01*
X203999Y153001D02*
Y175000D01*
X228000D01*
Y153001D02*
Y175000D01*
X203999Y153001D02*
X228000D01*
X165001Y183001D02*
Y207001D01*
Y183001D02*
X187001D01*
Y207001D01*
X165001D02*
X187001D01*
D111*
X258000Y192600D02*
Y384000D01*
Y192500D02*
Y384500D01*
X438000Y192500D02*
Y384500D01*
Y192600D02*
Y384000D01*
X258000Y192500D02*
X438000D01*
Y384500D02*
Y447500D01*
Y384000D02*
Y447000D01*
X258000Y384500D02*
X438000D01*
X258000Y384000D02*
X438000D01*
X258000Y447500D02*
X438000D01*
X258000Y447000D02*
X438000D01*
X258000Y384500D02*
Y447500D01*
Y384000D02*
Y447000D01*
X295500Y94450D02*
X307500D01*
X295500Y74450D02*
X307500D01*
X295500D02*
Y94450D01*
X307500Y74450D02*
Y94450D01*
D188*
X148005Y422995D02*
X247995D01*
X148005Y323005D02*
X247995D01*
X148005D02*
Y422995D01*
X247995Y323005D02*
Y422995D01*
X23250Y57250D02*
Y103750D01*
X59750Y57250D02*
Y103750D01*
X23250Y57250D02*
X59750D01*
X23250Y103750D02*
X59750D01*
X86750Y43750D02*
Y90250D01*
X123250Y43750D02*
Y90250D01*
X86750Y43750D02*
X123250D01*
X86750Y90250D02*
X123250D01*
X568364Y277162D02*
Y283162D01*
X557364Y277162D02*
Y283162D01*
X568364D01*
X557364Y277162D02*
X568364D01*
X45500Y136500D02*
Y181500D01*
X55500D01*
Y416500D01*
X140500D01*
Y181500D02*
Y416500D01*
Y181500D02*
X150500D01*
Y136500D02*
Y181500D01*
X45500Y136500D02*
X150500D01*
X445500D02*
Y181500D01*
X455500D01*
Y416500D01*
X540500D01*
Y181500D02*
Y416500D01*
Y181500D02*
X550500D01*
Y136500D02*
Y181500D01*
X445500Y136500D02*
X550500D01*
X220250Y128250D02*
X229750D01*
X220250Y145750D02*
X229750D01*
Y128250D02*
Y145750D01*
X220250Y128250D02*
Y145750D01*
X28250Y128250D02*
Y145750D01*
X37750Y128250D02*
Y145750D01*
X28250D02*
X37750D01*
X28250Y128250D02*
X37750D01*
X53500Y42000D02*
X64500D01*
X53500Y48000D02*
X64500D01*
X53500Y42000D02*
Y48000D01*
X64500Y42000D02*
Y48000D01*
X59000Y115500D02*
Y126500D01*
X53000Y115500D02*
Y126500D01*
Y115500D02*
X59000D01*
X53000Y126500D02*
X59000D01*
X33000Y115000D02*
X44000D01*
X33000Y121000D02*
X44000D01*
X33000Y115000D02*
Y121000D01*
X44000Y115000D02*
Y121000D01*
X58250Y23750D02*
X63750D01*
X58250Y34250D02*
X63750D01*
Y23750D02*
Y34250D01*
X58250Y23750D02*
Y34250D01*
X109500Y100000D02*
X120500D01*
X109500Y106000D02*
X120500D01*
X109500Y100000D02*
Y106000D01*
X120500Y100000D02*
Y106000D01*
X85500Y100000D02*
X96500D01*
X85500Y106000D02*
X96500D01*
X85500Y100000D02*
Y106000D01*
X96500Y100000D02*
Y106000D01*
X96250Y31250D02*
Y36750D01*
X85750Y31250D02*
Y36750D01*
X96250D01*
X85750Y31250D02*
X96250D01*
X111500Y28000D02*
X122500D01*
X111500Y34000D02*
X122500D01*
X111500Y28000D02*
Y34000D01*
X122500Y28000D02*
Y34000D01*
X235250Y155250D02*
Y172750D01*
X244750Y155250D02*
Y172750D01*
X235250D02*
X244750D01*
X235250Y155250D02*
X244750D01*
X164250Y162250D02*
X181750D01*
X164250Y171750D02*
X181750D01*
X164250Y162250D02*
Y171750D01*
X181750Y162250D02*
Y171750D01*
X179750Y136250D02*
Y153750D01*
X170250Y136250D02*
Y153750D01*
Y136250D02*
X179750D01*
X170250Y153750D02*
X179750D01*
X195750Y155250D02*
Y172750D01*
X186250Y155250D02*
Y172750D01*
Y155250D02*
X195750D01*
X186250Y172750D02*
X195750D01*
X152250Y206250D02*
Y223750D01*
X161750Y206250D02*
Y223750D01*
X152250D02*
X161750D01*
X152250Y206250D02*
X161750D01*
X417250Y51250D02*
X426750D01*
X417250Y68750D02*
X426750D01*
Y51250D02*
Y68750D01*
X417250Y51250D02*
Y68750D01*
X409001Y51999D02*
Y68000D01*
X393000D02*
X409001D01*
X393000Y51999D02*
Y68000D01*
Y51999D02*
X409001D01*
X422250Y40250D02*
Y45750D01*
X411750Y40250D02*
Y45750D01*
X422250D01*
X411750Y40250D02*
X422250D01*
X402250Y40250D02*
Y45750D01*
X391750Y40250D02*
Y45750D01*
X402250D01*
X391750Y40250D02*
X402250D01*
X385000Y41500D02*
Y66500D01*
X363000Y41500D02*
X385000D01*
X363000D02*
Y66500D01*
X385000D01*
X362250Y33750D02*
X379750D01*
X362250Y24250D02*
X379750D01*
Y33750D01*
X362250Y24250D02*
Y33750D01*
X245250Y217250D02*
Y222750D01*
X234750Y217250D02*
Y222750D01*
X245250D01*
X234750Y217250D02*
X245250D01*
X227250Y180250D02*
X244750D01*
X227250Y189750D02*
X244750D01*
X227250Y180250D02*
Y189750D01*
X244750Y180250D02*
Y189750D01*
X221500Y193500D02*
X242500D01*
X221500D02*
Y214500D01*
X242500D01*
Y193500D02*
Y214500D01*
X192000Y186500D02*
X214000D01*
Y211500D01*
X192000D02*
X214000D01*
X192000Y186500D02*
Y211500D01*
X217723Y225706D02*
X235223D01*
X217723Y235205D02*
X235223D01*
X217723Y225706D02*
Y235205D01*
X235223Y225706D02*
Y235205D01*
X227750Y217250D02*
Y222750D01*
X217250Y217250D02*
Y222750D01*
X227750D01*
X217250Y217250D02*
X227750D01*
X510000Y127000D02*
X521000D01*
X510000Y133000D02*
X521000D01*
X510000Y127000D02*
Y133000D01*
X521000Y127000D02*
Y133000D01*
X557000Y345250D02*
X579000D01*
Y365087D01*
X557000D02*
X579000D01*
X557000Y345250D02*
Y365087D01*
X496000Y184500D02*
Y190500D01*
X485000Y184500D02*
Y190500D01*
X496000D01*
X485000Y184500D02*
X496000D01*
X461500Y184000D02*
Y190000D01*
X472500Y184000D02*
Y190000D01*
X461500Y184000D02*
X472500D01*
X461500Y190000D02*
X472500D01*
X470850Y213000D02*
X485150D01*
X470850D02*
Y237000D01*
X485150Y213000D02*
Y237000D01*
X470850D02*
X485150D01*
X169500Y254000D02*
X180500D01*
X169500Y260000D02*
X180500D01*
X169500Y254000D02*
Y260000D01*
X180500Y254000D02*
Y260000D01*
X227000Y245750D02*
Y260250D01*
X205000Y245750D02*
Y260250D01*
X227000D01*
X205000Y245750D02*
X227000D01*
X147736Y274454D02*
X165236D01*
X147736Y264954D02*
X165236D01*
Y274454D01*
X147736Y264954D02*
Y274454D01*
X207000Y218750D02*
Y233250D01*
X185000Y218750D02*
Y233250D01*
X207000D01*
X185000Y218750D02*
X207000D01*
X194750Y254250D02*
Y271750D01*
X185250Y254250D02*
Y271750D01*
Y254250D02*
X194750D01*
X185250Y271750D02*
X194750D01*
X167250Y216250D02*
Y233750D01*
X176750Y216250D02*
Y233750D01*
X167250D02*
X176750D01*
X167250Y216250D02*
X176750D01*
X148750Y235000D02*
X163250D01*
X148750Y257000D02*
X163250D01*
Y235000D02*
Y257000D01*
X148750Y235000D02*
Y257000D01*
X175900Y266000D02*
Y277000D01*
X169900Y266000D02*
Y277000D01*
Y266000D02*
X175900D01*
X169900Y277000D02*
X175900D01*
X184514Y243844D02*
X195514D01*
X184514Y249844D02*
X195514D01*
X184514Y243844D02*
Y249844D01*
X195514Y243844D02*
Y249844D01*
X47125Y273800D02*
Y333800D01*
X4625D02*
X47125D01*
X4625Y273800D02*
X47125D01*
X4625D02*
Y333800D01*
X47125Y195000D02*
Y255000D01*
X4625D02*
X47125D01*
X4625Y195000D02*
X47125D01*
X4625D02*
Y255000D01*
X451500Y16200D02*
Y25800D01*
X434500Y16200D02*
Y25800D01*
X451500D01*
X434500Y16200D02*
X451500D01*
X421500Y15200D02*
Y24800D01*
X404500Y15200D02*
Y24800D01*
X421500D01*
X404500Y15200D02*
X421500D01*
X481500Y16200D02*
Y25800D01*
X464500Y16200D02*
Y25800D01*
X481500D01*
X464500Y16200D02*
X481500D01*
X395250Y18750D02*
Y29250D01*
X400750Y18750D02*
Y29250D01*
X395250D02*
X400750D01*
X395250Y18750D02*
X400750D01*
X425250Y18750D02*
Y29250D01*
X430750Y18750D02*
Y29250D01*
X425250D02*
X430750D01*
X425250Y18750D02*
X430750D01*
X455250Y18750D02*
Y29250D01*
X460750Y18750D02*
Y29250D01*
X455250D02*
X460750D01*
X455250Y18750D02*
X460750D01*
X462750Y37250D02*
X473250D01*
X462750Y42750D02*
X473250D01*
X462750Y37250D02*
Y42750D01*
X473250Y37250D02*
Y42750D01*
X581013Y189819D02*
Y195819D01*
X570014Y189819D02*
Y195819D01*
X581013D01*
X570014Y189819D02*
X581013D01*
X581086Y198632D02*
Y204632D01*
X570086Y198632D02*
Y204632D01*
X581086D01*
X570086Y198632D02*
X581086D01*
X570336Y207518D02*
X580836D01*
X570336Y213018D02*
X580836D01*
X570336Y207518D02*
Y213018D01*
X580836Y207518D02*
Y213018D01*
X560243Y255743D02*
X565742D01*
X560243Y266243D02*
X565742D01*
Y255743D02*
Y266243D01*
X560243Y255743D02*
Y266243D01*
X550243Y255743D02*
Y266243D01*
X555742Y255743D02*
Y266243D01*
X550243D02*
X555742D01*
X550243Y255743D02*
X555742D01*
X28250Y181750D02*
X37750D01*
X28250Y164250D02*
X37750D01*
X28250D02*
Y181750D01*
X37750Y164250D02*
Y181750D01*
X70000Y112750D02*
Y127250D01*
X92000Y112750D02*
Y127250D01*
X70000Y112750D02*
X92000D01*
X70000Y127250D02*
X92000D01*
X119750Y113250D02*
Y122750D01*
X102250Y113250D02*
Y122750D01*
X119750D01*
X102250Y113250D02*
X119750D01*
X119500Y125000D02*
Y131000D01*
X108500Y125000D02*
Y131000D01*
X119500D01*
X108500Y125000D02*
X119500D01*
X240500Y26250D02*
Y35750D01*
X223500Y26250D02*
Y35750D01*
X240500D01*
X223500Y26250D02*
X240500D01*
X272500D02*
Y35750D01*
X255500Y26250D02*
Y35750D01*
X272500D01*
X255500Y26250D02*
X272500D01*
X205750Y90750D02*
Y101250D01*
X200250Y90750D02*
Y101250D01*
Y90750D02*
X205750D01*
X200250Y101250D02*
X205750D01*
X237250Y128500D02*
X246750D01*
X237250Y145500D02*
X246750D01*
Y128500D02*
Y145500D01*
X237250Y128500D02*
Y145500D01*
X268500Y111000D02*
Y117000D01*
X279500Y111000D02*
Y117000D01*
X268500Y111000D02*
X279500D01*
X268500Y117000D02*
X279500D01*
X256500Y111000D02*
Y117000D01*
X245500Y111000D02*
Y117000D01*
X256500D01*
X245500Y111000D02*
X256500D01*
X292250Y107250D02*
X309750D01*
X292250Y116750D02*
X309750D01*
X292250Y107250D02*
Y116750D01*
X309750Y107250D02*
Y116750D01*
X214250Y118750D02*
X231750D01*
X214250Y109250D02*
X231750D01*
Y118750D01*
X214250Y109250D02*
Y118750D01*
X213000Y84000D02*
X219000D01*
X213000Y95000D02*
X219000D01*
Y84000D02*
Y95000D01*
X213000Y84000D02*
Y95000D01*
X284600Y96350D02*
X287900D01*
X284600Y90050D02*
X287900D01*
X284600D02*
Y96350D01*
X287900Y90050D02*
Y96350D01*
X284600Y73050D02*
X287900D01*
X284600Y79350D02*
X287900D01*
Y73050D02*
Y79350D01*
X284600Y73050D02*
Y79350D01*
X207750Y62750D02*
X218250D01*
X207750Y57250D02*
X218250D01*
Y62750D01*
X207750Y57250D02*
Y62750D01*
Y51750D02*
X218250D01*
X207750Y46250D02*
X218250D01*
Y51750D01*
X207750Y46250D02*
Y51750D01*
X560250Y161000D02*
X581750D01*
X560250Y137000D02*
X581750D01*
Y161000D01*
X560250Y137000D02*
Y161000D01*
X532677Y51216D02*
X556677D01*
X532677Y72716D02*
X556677D01*
Y51216D02*
Y72716D01*
X532677Y51216D02*
Y72716D01*
X495500Y98000D02*
X506500D01*
X495500Y104000D02*
X506500D01*
X495500Y98000D02*
Y104000D01*
X506500Y98000D02*
Y104000D01*
X8750Y116000D02*
X23250D01*
X8750Y138000D02*
X23250D01*
Y116000D02*
Y138000D01*
X8750Y116000D02*
Y138000D01*
X562250Y128750D02*
X579750D01*
X562250Y119250D02*
X579750D01*
Y128750D01*
X562250Y119250D02*
Y128750D01*
X575250Y55250D02*
Y72750D01*
X584750Y55250D02*
Y72750D01*
X575250D02*
X584750D01*
X575250Y55250D02*
X584750D01*
X82000Y184500D02*
Y195500D01*
X76000Y184500D02*
Y195500D01*
Y184500D02*
X82000D01*
X76000Y195500D02*
X82000D01*
X53500Y188000D02*
X64500D01*
X53500Y182000D02*
X64500D01*
Y188000D01*
X53500Y182000D02*
Y188000D01*
X8750Y156000D02*
X23250D01*
X8750Y178000D02*
X23250D01*
Y156000D02*
Y178000D01*
X8750Y156000D02*
Y178000D01*
M02*
