G04*
G04 #@! TF.GenerationSoftware,Altium Limited,Altium Designer,20.0.13 (296)*
G04*
G04 Layer_Physical_Order=3*
G04 Layer_Color=16776960*
%FSLAX44Y44*%
%MOMM*%
G71*
G01*
G75*
%ADD10C,0.2500*%
%ADD13C,0.2032*%
%ADD110C,0.1016*%
%ADD116C,0.3810*%
%ADD117C,0.5000*%
%ADD118C,0.5080*%
%ADD119C,0.2540*%
%ADD123C,0.1500*%
%ADD124O,0.4064X0.4060*%
%ADD125O,4.5000X2.5000*%
%ADD127O,2.5000X4.5000*%
%ADD129C,0.8000*%
%ADD130R,0.8000X0.8000*%
%ADD132R,1.3680X1.3680*%
%ADD133C,1.3680*%
%ADD134O,1.9000X1.1000*%
%ADD135O,2.4000X1.1000*%
%ADD136C,2.7000*%
%ADD137C,0.4064*%
%ADD138C,0.5080*%
%ADD139C,0.3000*%
%ADD140C,2.2000*%
%ADD141C,1.0000*%
G36*
X531434Y434898D02*
X531784Y434098D01*
X531757Y434035D01*
Y420242D01*
X518242D01*
Y434098D01*
X519230Y435291D01*
X519398Y435368D01*
X531013D01*
X531434Y434898D01*
D02*
G37*
G36*
X80543Y407525D02*
Y402912D01*
X74013Y396382D01*
X73535Y395228D01*
Y333657D01*
X59806Y319928D01*
X59328Y318774D01*
Y260038D01*
X58993Y259229D01*
Y206307D01*
X55040Y202355D01*
X53712Y202712D01*
X53569Y203111D01*
X53356Y204183D01*
X52686Y205186D01*
X52132Y205556D01*
Y248638D01*
X53614Y250120D01*
X54092Y251274D01*
Y275790D01*
X55007Y276705D01*
X55485Y277859D01*
Y386177D01*
X64522Y395214D01*
X64849Y395182D01*
X65909Y394000D01*
X66144Y392817D01*
X66814Y391814D01*
X67817Y391144D01*
X69000Y390909D01*
X70183Y391144D01*
X71186Y391814D01*
X71856Y392817D01*
X72091Y394000D01*
X71856Y395183D01*
X71186Y396186D01*
X70183Y396856D01*
X69000Y397091D01*
X67818Y398151D01*
X67786Y398478D01*
X77347Y408039D01*
X78000Y407909D01*
X79183Y408144D01*
X79273Y408204D01*
X80543Y407525D01*
D02*
G37*
G36*
X584701Y445496D02*
X587634Y444281D01*
X590273Y442518D01*
X592518Y440273D01*
X594281Y437634D01*
X595496Y434701D01*
X596115Y431587D01*
X596115Y430000D01*
X596115Y20000D01*
Y18413D01*
X595496Y15299D01*
X594281Y12366D01*
X592518Y9727D01*
X590273Y7482D01*
X587634Y5719D01*
X584701Y4504D01*
X581587Y3884D01*
X400507D01*
X400254Y5155D01*
X400620Y5306D01*
X402064Y6750D01*
X421696D01*
X422850Y7228D01*
X423946Y8324D01*
X425381Y7962D01*
X425814Y7314D01*
X426817Y6644D01*
X428000Y6409D01*
X429183Y6644D01*
X430186Y7314D01*
X430856Y8317D01*
X431091Y9500D01*
X430856Y10683D01*
X430186Y11686D01*
X429888Y11885D01*
X429644Y13294D01*
X430269Y14051D01*
X442683D01*
X443837Y14529D01*
X447347Y18038D01*
X448000Y17909D01*
X449183Y18144D01*
X450186Y18814D01*
X450856Y19817D01*
X450960Y20338D01*
X452336Y20757D01*
X455546Y17547D01*
X455546Y17547D01*
X456213Y17101D01*
X457000Y16945D01*
X461774D01*
X464870Y13849D01*
X464870Y13849D01*
X465537Y13404D01*
X466323Y13247D01*
X516302D01*
X516302Y13247D01*
X517089Y13404D01*
X517756Y13849D01*
X518729Y14822D01*
X519540Y14814D01*
X520176Y14610D01*
X520375Y14527D01*
X520527Y14375D01*
X520742D01*
X520941Y14293D01*
X566048D01*
X566278Y14388D01*
X566527Y14404D01*
X566646Y14540D01*
X566814Y14610D01*
X566909Y14840D01*
X567073Y15027D01*
X567505Y16297D01*
X567488Y16546D01*
X567553Y16786D01*
X567462Y16943D01*
X567450Y17124D01*
X567263Y17288D01*
X567138Y17504D01*
X566213Y18213D01*
X564463Y20494D01*
X563363Y23150D01*
X562988Y26000D01*
X563363Y28850D01*
X564463Y31506D01*
X566213Y33786D01*
X568494Y35537D01*
X571150Y36637D01*
X574141Y37030D01*
X574415Y37188D01*
X574714Y37290D01*
X574949Y37496D01*
X574966Y37530D01*
X575001Y37545D01*
X575147Y37897D01*
X575316Y38239D01*
X575303Y38275D01*
X575318Y38310D01*
Y90278D01*
X575303Y90313D01*
X575316Y90349D01*
X575634Y91669D01*
X575789Y91822D01*
X575841Y91871D01*
X576793Y92265D01*
X578882Y93868D01*
X580485Y95957D01*
X581493Y98390D01*
X581836Y101000D01*
X581493Y103610D01*
X580485Y106043D01*
X578882Y108132D01*
X577728Y109018D01*
X578044Y110376D01*
X578450Y110456D01*
X578773Y110673D01*
X586384D01*
Y92692D01*
X580653Y86961D01*
X580000Y87091D01*
X578817Y86856D01*
X577814Y86186D01*
X577144Y85183D01*
X576909Y84000D01*
X577144Y82817D01*
X577814Y81814D01*
X578817Y81144D01*
X580000Y80909D01*
X580386Y80985D01*
X581367Y79886D01*
X581261Y79353D01*
X581497Y78170D01*
X582167Y77167D01*
X583170Y76497D01*
X584353Y76262D01*
X585536Y76497D01*
X585868Y76719D01*
X586951Y76802D01*
X587447Y76363D01*
X587814Y75814D01*
X588817Y75144D01*
X590000Y74909D01*
X591183Y75144D01*
X592186Y75814D01*
X592856Y76817D01*
X593091Y78000D01*
X592856Y79183D01*
X592780Y79297D01*
X593202Y79719D01*
X593680Y80873D01*
Y152658D01*
X593202Y153812D01*
X570906Y176108D01*
Y344978D01*
X571883Y345172D01*
X573479Y346239D01*
X574546Y347835D01*
X574921Y349718D01*
X574546Y351601D01*
X574112Y352250D01*
X574546Y352899D01*
X574921Y354782D01*
X574546Y356665D01*
X573479Y358261D01*
X572813Y358706D01*
X572191Y359805D01*
X572520Y360314D01*
X572856Y360817D01*
X572993Y361508D01*
X573072Y361555D01*
X574342Y361680D01*
X574664Y361852D01*
X575001Y361992D01*
X575023Y362044D01*
X575072Y362071D01*
X575178Y362420D01*
X575318Y362757D01*
Y411690D01*
X575303Y411725D01*
X575316Y411761D01*
X575315Y411761D01*
X575147Y412103D01*
X575001Y412455D01*
X574966Y412470D01*
X574949Y412504D01*
X574714Y412710D01*
X574714Y412710D01*
X574617Y412743D01*
X574415Y412812D01*
X574141Y412970D01*
X571150Y413363D01*
X568494Y414464D01*
X566213Y416213D01*
X564463Y418494D01*
X563363Y421150D01*
X562988Y424000D01*
X563363Y426850D01*
X564463Y429506D01*
X566213Y431787D01*
X568024Y433176D01*
X568148Y433391D01*
X568336Y433556D01*
X568348Y433736D01*
X568438Y433893D01*
X568374Y434134D01*
X568390Y434382D01*
X567959Y435652D01*
X567794Y435840D01*
X567699Y436070D01*
X567532Y436139D01*
X567413Y436275D01*
X567164Y436292D01*
X566934Y436387D01*
X544595Y436387D01*
X544091Y437000D01*
X543856Y438183D01*
X543186Y439186D01*
X542183Y439856D01*
X541000Y440091D01*
X539817Y439856D01*
X538814Y439186D01*
X538444Y438632D01*
X503194D01*
X502040Y438154D01*
X495498Y431612D01*
X495019Y430458D01*
Y406564D01*
X493846Y406078D01*
X491632Y408292D01*
Y434444D01*
X492186Y434814D01*
X492856Y435817D01*
X493091Y437000D01*
X492856Y438183D01*
X492186Y439186D01*
X491183Y439856D01*
X490000Y440091D01*
X488817Y439856D01*
X487814Y439186D01*
X487144Y438183D01*
X486909Y437000D01*
X487144Y435817D01*
X487814Y434814D01*
X488368Y434444D01*
Y407616D01*
X488846Y406462D01*
X494908Y400400D01*
Y386783D01*
X493638Y385965D01*
X493000Y386091D01*
X491817Y385856D01*
X491287Y385502D01*
X490676Y385757D01*
X490058Y386167D01*
X489856Y387183D01*
X489572Y387608D01*
X489291Y388532D01*
X489572Y389456D01*
X489856Y389881D01*
X490091Y391064D01*
X489856Y392247D01*
X489186Y393250D01*
X488183Y393920D01*
X487000Y394155D01*
X485817Y393920D01*
X484814Y393250D01*
X484144Y392247D01*
X483909Y391064D01*
X484018Y390513D01*
X480459Y386953D01*
X479742Y387185D01*
X479211Y387502D01*
X479007Y388529D01*
X478337Y389532D01*
X477334Y390202D01*
X476151Y390438D01*
X474968Y390202D01*
X473965Y389532D01*
X473595Y388978D01*
X467340D01*
X466186Y388500D01*
X454840Y377154D01*
X454362Y376000D01*
Y371834D01*
X453103Y370575D01*
X451932Y371201D01*
X452091Y372000D01*
X451856Y373183D01*
X451186Y374186D01*
X450183Y374856D01*
X449000Y375092D01*
X447817Y374856D01*
X446814Y374186D01*
X446144Y373183D01*
X445909Y372000D01*
X446144Y370817D01*
X446814Y369814D01*
X447817Y369144D01*
X448755Y368957D01*
X449268Y368205D01*
X449458Y367705D01*
X449255Y367392D01*
X362712D01*
X361558Y366914D01*
X354376Y359732D01*
X332765D01*
X332395Y360286D01*
X331392Y360956D01*
X330209Y361191D01*
X329026Y360956D01*
X328023Y360286D01*
X327642Y359715D01*
X326177Y359384D01*
X323227Y362335D01*
X321242Y363661D01*
X318901Y364127D01*
X281344D01*
X281297Y364366D01*
X280523Y365523D01*
X279366Y366297D01*
X278000Y366569D01*
X276634Y366297D01*
X275477Y365523D01*
X274703Y364366D01*
X274431Y363000D01*
Y361958D01*
X273530Y360609D01*
X231786D01*
X183186Y409209D01*
X182015Y409992D01*
X180634Y410266D01*
X180634D01*
X179252Y409992D01*
X178081Y409209D01*
X177299Y408038D01*
X177024Y406657D01*
X177167Y405937D01*
X175997Y405311D01*
X150529Y430779D01*
X150710Y431049D01*
X151098Y433000D01*
X150710Y434951D01*
X149605Y436605D01*
X147951Y437710D01*
X146000Y438098D01*
X144049Y437710D01*
X142395Y436605D01*
X141290Y434951D01*
X140902Y433000D01*
X141290Y431049D01*
X142395Y429395D01*
X144049Y428290D01*
X146000Y427902D01*
X147951Y428290D01*
X148221Y428470D01*
X167890Y408801D01*
X167404Y407628D01*
X160812D01*
X160754Y407667D01*
X160509Y407716D01*
X160091Y409094D01*
X160509Y409511D01*
X160651Y409854D01*
X161026Y410415D01*
X161225Y411420D01*
X161026Y412425D01*
X160651Y412985D01*
X160509Y413328D01*
X159862Y413975D01*
X159519Y414117D01*
X158958Y414492D01*
X157954Y414692D01*
X156915Y415730D01*
X156715Y416735D01*
X156340Y417296D01*
X156198Y417639D01*
X155552Y418285D01*
X155209Y418428D01*
X154648Y418802D01*
X153643Y419002D01*
X152604Y420041D01*
X152404Y421046D01*
X152030Y421607D01*
X151888Y421949D01*
X151241Y422596D01*
X150898Y422738D01*
X150337Y423113D01*
X149333Y423313D01*
X148328Y423113D01*
X147767Y422738D01*
X147424Y422596D01*
X146818Y421990D01*
X138029Y430779D01*
X138210Y431049D01*
X138598Y433000D01*
X138210Y434951D01*
X137105Y436605D01*
X135451Y437710D01*
X133500Y438098D01*
X131549Y437710D01*
X129895Y436605D01*
X128790Y434951D01*
X128402Y433000D01*
X128790Y431049D01*
X129895Y429395D01*
X131549Y428290D01*
X133500Y427902D01*
X135451Y428290D01*
X135721Y428470D01*
X144910Y419282D01*
X145252Y419140D01*
X145813Y418765D01*
X146059Y418716D01*
X146477Y417338D01*
X145746Y416608D01*
X145268Y415454D01*
Y415012D01*
X145746Y413858D01*
X146501Y413103D01*
X147655Y412625D01*
X148818D01*
X149667Y411355D01*
X149579Y411143D01*
Y410701D01*
X150057Y409547D01*
X150811Y408793D01*
X151966Y408315D01*
X153129D01*
X153977Y407045D01*
X153890Y406833D01*
Y406391D01*
X154368Y405237D01*
X155122Y404482D01*
X156276Y404004D01*
X158636D01*
X159790Y404482D01*
X159915Y404607D01*
X160504Y404364D01*
X169477D01*
X185709Y388131D01*
X185223Y386958D01*
X169350D01*
X125529Y430779D01*
X125710Y431049D01*
X126098Y433000D01*
X125710Y434951D01*
X124605Y436605D01*
X122951Y437710D01*
X121000Y438098D01*
X119049Y437710D01*
X117395Y436605D01*
X116290Y434951D01*
X115902Y433000D01*
X116290Y431049D01*
X117395Y429395D01*
X119049Y428290D01*
X121000Y427902D01*
X122951Y428290D01*
X123221Y428470D01*
X165576Y386115D01*
X165090Y384942D01*
X158867D01*
X113030Y430779D01*
X113210Y431049D01*
X113598Y433000D01*
X113210Y434951D01*
X112105Y436605D01*
X110451Y437710D01*
X108500Y438098D01*
X106549Y437710D01*
X104895Y436605D01*
X103790Y434951D01*
X103402Y433000D01*
X103790Y431049D01*
X104895Y429395D01*
X106549Y428290D01*
X108500Y427902D01*
X110451Y428290D01*
X110721Y428470D01*
X155092Y384099D01*
X154606Y382926D01*
X148382D01*
X100529Y430779D01*
X100710Y431049D01*
X101098Y433000D01*
X100710Y434951D01*
X99605Y436605D01*
X97951Y437710D01*
X96000Y438098D01*
X94049Y437710D01*
X92395Y436605D01*
X91290Y434951D01*
X90902Y433000D01*
X91290Y431049D01*
X92395Y429395D01*
X94049Y428290D01*
X96000Y427902D01*
X97951Y428290D01*
X98221Y428470D01*
X144608Y382083D01*
X144122Y380910D01*
X137898D01*
X88029Y430779D01*
X88210Y431049D01*
X88598Y433000D01*
X88210Y434951D01*
X87105Y436605D01*
X85451Y437710D01*
X83500Y438098D01*
X81549Y437710D01*
X79895Y436605D01*
X78790Y434951D01*
X78402Y433000D01*
X78790Y431049D01*
X79895Y429395D01*
X81549Y428290D01*
X81868Y428227D01*
Y419397D01*
X82346Y418243D01*
X86335Y414254D01*
X85917Y412876D01*
X85817Y412856D01*
X85077Y412362D01*
X84108Y412642D01*
X84106Y412643D01*
X83747Y412875D01*
X83329Y413884D01*
X79061Y418152D01*
X78856Y419183D01*
X78186Y420186D01*
X77183Y420856D01*
X76000Y421091D01*
X74817Y420856D01*
X73814Y420186D01*
X73144Y419183D01*
X72909Y418000D01*
X73144Y416817D01*
X73814Y415814D01*
X74817Y415144D01*
X76000Y414908D01*
X76398Y414987D01*
X76817Y413856D01*
X75814Y413186D01*
X75144Y412183D01*
X74909Y411000D01*
X75038Y410347D01*
X52699Y388007D01*
X52221Y386853D01*
Y278535D01*
X51306Y277621D01*
X50828Y276467D01*
Y255285D01*
X49558Y254606D01*
X49183Y254856D01*
X48000Y255091D01*
X46817Y254856D01*
X45814Y254186D01*
X45444Y253632D01*
X42858D01*
X41704Y253154D01*
X30935Y242385D01*
X30456Y241231D01*
Y219956D01*
X29186Y219277D01*
X29183Y219279D01*
X28000Y219515D01*
X26817Y219279D01*
X25814Y218609D01*
X25144Y217606D01*
X24909Y216423D01*
X25144Y215240D01*
X25814Y214237D01*
X26817Y213567D01*
X28000Y213332D01*
X29183Y213567D01*
X29186Y213570D01*
X30456Y212891D01*
Y202296D01*
X30320Y201936D01*
X29537Y200999D01*
X28817Y200856D01*
X27814Y200186D01*
X27144Y199183D01*
X26909Y198000D01*
X27144Y196817D01*
X27814Y195814D01*
X28817Y195144D01*
X30000Y194909D01*
X30653Y195039D01*
X36764Y188928D01*
Y180482D01*
X37242Y179328D01*
X39498Y177072D01*
Y153830D01*
X38944Y153460D01*
X38274Y152457D01*
X38039Y151274D01*
X38166Y150636D01*
X37405Y149457D01*
X36157Y149382D01*
X30102Y155437D01*
X30186Y156294D01*
X30856Y157297D01*
X31091Y158480D01*
X30856Y159663D01*
X30186Y160666D01*
X29183Y161336D01*
X28000Y161571D01*
X26817Y161336D01*
X25814Y160666D01*
X25444Y160112D01*
X13270D01*
X12116Y159634D01*
X5058Y152576D01*
X3884Y153062D01*
X3884Y343024D01*
X4035Y343152D01*
X5155Y343587D01*
X5817Y343144D01*
X7000Y342909D01*
X7013Y342911D01*
X7911Y342013D01*
X7909Y342000D01*
X8144Y340817D01*
X8814Y339814D01*
X9817Y339144D01*
X11000Y338909D01*
X11653Y339039D01*
X14287Y336405D01*
X15441Y335927D01*
X22466D01*
X23621Y336405D01*
X38338Y351122D01*
X38816Y352277D01*
Y353203D01*
X39480Y353647D01*
X40150Y354650D01*
X40386Y355833D01*
X40371Y355903D01*
X41452Y356983D01*
X41498Y356974D01*
X42260Y357126D01*
X43530Y356366D01*
Y307984D01*
X36898Y301352D01*
X36116Y300181D01*
X35841Y298800D01*
X36116Y297419D01*
X36898Y296248D01*
X38069Y295465D01*
X39451Y295191D01*
X40832Y295465D01*
X42003Y296248D01*
X49692Y303937D01*
X50474Y305108D01*
X50749Y306489D01*
Y394547D01*
X61736Y405534D01*
X62518Y406705D01*
X62793Y408086D01*
X62518Y409468D01*
X61736Y410638D01*
X60564Y411421D01*
X59183Y411696D01*
X57802Y411421D01*
X56631Y410638D01*
X44587Y398595D01*
X43805Y397424D01*
X43530Y396043D01*
Y363765D01*
X42260Y363005D01*
X41498Y363157D01*
X40315Y362922D01*
X39312Y362251D01*
X38942Y361698D01*
X21065D01*
X19911Y361220D01*
X7653Y348961D01*
X7000Y349091D01*
X5817Y348856D01*
X5155Y348414D01*
X4035Y348848D01*
X3884Y348976D01*
Y430000D01*
X3884Y431587D01*
X4504Y434701D01*
X5719Y437634D01*
X7482Y440273D01*
X9727Y442518D01*
X12366Y444281D01*
X15299Y445496D01*
X18413Y446115D01*
X246917D01*
X246918Y384500D01*
X247235Y383735D01*
X248000Y383418D01*
X448000D01*
X448765Y383735D01*
X449082Y384500D01*
X449082Y446115D01*
X581587D01*
X584701Y445496D01*
D02*
G37*
G36*
X133846Y380346D02*
X133360Y379172D01*
X130540D01*
X129386Y378694D01*
X127653Y376962D01*
X127000Y377091D01*
X125817Y376856D01*
X124814Y376186D01*
X124144Y375183D01*
X122799Y374933D01*
X122000Y375092D01*
X120817Y374856D01*
X119814Y374186D01*
X119144Y373183D01*
X118909Y372000D01*
X119144Y370817D01*
X119814Y369814D01*
X120368Y369444D01*
Y365676D01*
X96371Y341680D01*
X95893Y340526D01*
Y326208D01*
X95306Y325621D01*
X94828Y324466D01*
Y269540D01*
X95306Y268386D01*
X99443Y264249D01*
X99446Y263628D01*
X99098Y263379D01*
X98010Y263267D01*
X96011Y265267D01*
X96011Y265267D01*
X92489Y268789D01*
Y375085D01*
X99544Y382141D01*
X100023Y383295D01*
Y412205D01*
X99904Y412491D01*
X100981Y413211D01*
X133846Y380346D01*
D02*
G37*
G36*
X131149Y372809D02*
X131814Y371814D01*
X132368Y371444D01*
Y295900D01*
X132846Y294746D01*
X155701Y271891D01*
X155215Y270718D01*
X126581D01*
X125427Y270240D01*
X119819Y264632D01*
X105556D01*
X105186Y265186D01*
X104183Y265856D01*
X103000Y266091D01*
X102347Y265961D01*
X98092Y270216D01*
Y323790D01*
X98680Y324378D01*
X99158Y325532D01*
Y339849D01*
X123154Y363846D01*
X123632Y365000D01*
Y369444D01*
X124186Y369814D01*
X124856Y370817D01*
X126201Y371068D01*
X127000Y370909D01*
X128183Y371144D01*
X129186Y371814D01*
X129851Y372809D01*
X129893Y372817D01*
X131107D01*
X131149Y372809D01*
D02*
G37*
G36*
X516082Y435304D02*
X517160Y434840D01*
X517160Y434035D01*
Y419160D01*
X532840D01*
Y434035D01*
X533917Y435304D01*
X538486D01*
X538814Y434814D01*
X539817Y434144D01*
X541000Y433909D01*
X542183Y434144D01*
X543186Y434814D01*
X543514Y435304D01*
X566934Y435304D01*
X567365Y434035D01*
X565442Y432559D01*
X563518Y430052D01*
X562309Y427133D01*
X561896Y424000D01*
X562309Y420867D01*
X563518Y417948D01*
X565442Y415442D01*
X567948Y413518D01*
X570867Y412309D01*
X574000Y411897D01*
X574236Y411690D01*
Y362757D01*
X572966Y362632D01*
X572856Y363183D01*
X572186Y364186D01*
X571183Y364856D01*
X570000Y365092D01*
X569362Y364965D01*
X568092Y365783D01*
Y379118D01*
X567614Y380272D01*
X553539Y394347D01*
X553669Y395000D01*
X553434Y396183D01*
X552764Y397186D01*
X551761Y397856D01*
X550578Y398091D01*
X549395Y397856D01*
X548392Y397186D01*
X547722Y396183D01*
X547486Y395000D01*
X547648Y394189D01*
X546549Y393461D01*
X545861Y393920D01*
X544678Y394155D01*
X543495Y393920D01*
X542492Y393250D01*
X541822Y392247D01*
X541586Y391064D01*
X541822Y389881D01*
X542492Y388878D01*
X543495Y388208D01*
X544678Y387973D01*
X545331Y388103D01*
X562812Y370622D01*
Y347416D01*
X563290Y346262D01*
X565626Y343926D01*
Y174597D01*
X566104Y173443D01*
X574236Y165311D01*
Y155750D01*
X583797D01*
X586549Y152998D01*
Y140419D01*
X585376Y139933D01*
X577962Y147347D01*
X578091Y148000D01*
X577856Y149183D01*
X577186Y150186D01*
X576183Y150856D01*
X575000Y151091D01*
X573817Y150856D01*
X572814Y150186D01*
X572144Y149183D01*
X571909Y148000D01*
X572144Y146817D01*
X572814Y145814D01*
X573817Y145144D01*
X575000Y144909D01*
X575653Y145038D01*
X586384Y134308D01*
Y111755D01*
X574236D01*
Y111722D01*
X573281Y110885D01*
X571750Y111086D01*
X569140Y110743D01*
X566707Y109735D01*
X564618Y108132D01*
X563015Y106043D01*
X562007Y103610D01*
X561664Y101000D01*
X562007Y98390D01*
X563015Y95957D01*
X564618Y93868D01*
X566707Y92265D01*
X569140Y91257D01*
X571750Y90914D01*
X573281Y91115D01*
X574236Y90278D01*
Y38310D01*
X574000Y38104D01*
X570867Y37691D01*
X567948Y36482D01*
X565442Y34558D01*
X563518Y32052D01*
X562309Y29133D01*
X561896Y26000D01*
X562309Y22867D01*
X563518Y19948D01*
X565442Y17442D01*
X566479Y16645D01*
X566048Y15375D01*
X520941D01*
X520455Y16548D01*
X520991Y17084D01*
X520991Y17084D01*
X521437Y17751D01*
X521593Y18538D01*
X521593Y18538D01*
Y21214D01*
X522030Y21506D01*
X522700Y22509D01*
X522935Y23692D01*
X522700Y24875D01*
X522030Y25878D01*
X521027Y26548D01*
X519844Y26783D01*
X518661Y26548D01*
X517658Y25878D01*
X516988Y24875D01*
X516753Y23692D01*
X516988Y22509D01*
X517482Y21769D01*
Y19389D01*
X515451Y17358D01*
X471726D01*
X470948Y18628D01*
X471091Y19351D01*
X470856Y20533D01*
X470186Y21536D01*
X469183Y22207D01*
X468000Y22442D01*
X466817Y22207D01*
X465814Y21536D01*
X465405Y20924D01*
X464410Y20571D01*
X463862Y20599D01*
X463412Y20899D01*
X462626Y21056D01*
X462626Y21056D01*
X457851D01*
X452406Y26501D01*
X451739Y26947D01*
X450952Y27103D01*
X450952Y27103D01*
X408973D01*
X408973Y27103D01*
X408186Y26947D01*
X407519Y26501D01*
X407519Y26501D01*
X404058Y23040D01*
X386158D01*
X386078Y23056D01*
X386078Y23056D01*
X381193D01*
X380952Y23104D01*
X380952Y23103D01*
X375048D01*
X374261Y22947D01*
X373595Y22501D01*
X373595Y22501D01*
X370149Y19056D01*
X303974D01*
X256050Y66980D01*
X255679Y67227D01*
X233055Y89852D01*
Y98000D01*
X233055Y98000D01*
X232899Y98787D01*
X232453Y99453D01*
X232453Y99453D01*
X227861Y104045D01*
Y125194D01*
X227861Y125194D01*
X227705Y125981D01*
X227260Y126648D01*
X211504Y142403D01*
Y153125D01*
X209319Y155309D01*
Y155736D01*
X209319Y155736D01*
X209163Y156523D01*
X208717Y157190D01*
X206719Y159187D01*
X206053Y159633D01*
X205266Y159789D01*
X205266Y159789D01*
X204839D01*
X170203Y194425D01*
Y195337D01*
X170203Y195337D01*
X170047Y196124D01*
X169601Y196791D01*
X169601Y196791D01*
X160055Y206337D01*
X159388Y206783D01*
X158601Y206939D01*
X158601Y206939D01*
X121088D01*
X111622Y216405D01*
X110955Y216851D01*
X110168Y217007D01*
X110168Y217007D01*
X106624D01*
X103130Y220501D01*
X102463Y220947D01*
X101677Y221103D01*
X101677Y221103D01*
X89123D01*
X89123Y221103D01*
X88337Y220947D01*
X87670Y220501D01*
X87670Y220501D01*
X84176Y217007D01*
X74224D01*
X72980Y218251D01*
X72956Y218375D01*
X72286Y219377D01*
X71283Y220048D01*
X70100Y220283D01*
X68917Y220048D01*
X67914Y219377D01*
X67244Y218375D01*
X67008Y217192D01*
X67244Y216008D01*
X67914Y215006D01*
X68917Y214335D01*
X70100Y214100D01*
X71115Y214302D01*
X71919Y213498D01*
X72586Y213053D01*
X73373Y212896D01*
X83010D01*
X83833Y211626D01*
X83709Y211000D01*
X83849Y210295D01*
X83062Y209025D01*
X69081D01*
X67947Y208799D01*
X66986Y208157D01*
X63995Y205166D01*
X63430Y205215D01*
X62257Y205631D01*
Y254161D01*
X74646D01*
X74735Y254060D01*
X75209Y252891D01*
X74783Y252253D01*
X74547Y251070D01*
X74783Y249887D01*
X75453Y248884D01*
X76456Y248214D01*
X77639Y247978D01*
X78822Y248214D01*
X79825Y248884D01*
X80495Y249887D01*
X80713Y250984D01*
X80773Y251144D01*
X81359Y252151D01*
X81698Y252218D01*
X82542Y252386D01*
X83545Y253056D01*
X84215Y254059D01*
X84235Y254161D01*
X85531D01*
X91926Y247766D01*
X92707Y247442D01*
X92454Y246172D01*
X87579D01*
X87221Y246709D01*
X86218Y247379D01*
X85035Y247614D01*
X83852Y247379D01*
X82849Y246709D01*
X82179Y245706D01*
X81943Y244523D01*
X82179Y243340D01*
X82849Y242337D01*
X83852Y241667D01*
X84044Y240333D01*
X83944Y240183D01*
X83709Y239000D01*
X83944Y237817D01*
X84614Y236814D01*
X85617Y236144D01*
X86800Y235909D01*
X87983Y236144D01*
X88986Y236814D01*
X89656Y237817D01*
X89891Y239000D01*
X89656Y240183D01*
X88986Y241186D01*
X88310Y241638D01*
X88695Y242908D01*
X161784D01*
X171513Y233179D01*
X172667Y232701D01*
X172805D01*
X216272Y189234D01*
Y187780D01*
X216142Y187129D01*
X216378Y185946D01*
X217048Y184943D01*
X218051Y184273D01*
X219234Y184038D01*
X220417Y184273D01*
X220906Y184600D01*
X238133Y167372D01*
X237972Y165737D01*
X237842Y165650D01*
X237172Y164647D01*
X236937Y163464D01*
X237172Y162281D01*
X237842Y161278D01*
X238845Y160608D01*
X240028Y160373D01*
X241211Y160608D01*
X242214Y161278D01*
X242301Y161408D01*
X243936Y161569D01*
X276368Y129138D01*
Y127556D01*
X275814Y127186D01*
X275144Y126183D01*
X274909Y125000D01*
X275144Y123817D01*
X275814Y122814D01*
X276817Y122144D01*
X278000Y121909D01*
X279183Y122144D01*
X280186Y122814D01*
X280470Y123239D01*
X281992Y123513D01*
X295741Y109765D01*
Y92063D01*
X296219Y90909D01*
X301167Y85961D01*
Y78055D01*
X326722Y52500D01*
X351366Y52500D01*
X352408Y51230D01*
X352177Y50069D01*
Y40069D01*
X352643Y37727D01*
X353969Y35743D01*
X355953Y34417D01*
X358295Y33951D01*
X360636Y34417D01*
X362620Y35743D01*
X363946Y37727D01*
X364412Y40069D01*
Y47535D01*
X369378Y52500D01*
X370631D01*
X409103Y90972D01*
X410264Y90337D01*
X410063Y89328D01*
X410338Y87947D01*
X411120Y86776D01*
X412291Y85993D01*
X413673Y85718D01*
X415054Y85993D01*
X416225Y86776D01*
X417007Y87947D01*
X417282Y89328D01*
X417007Y90709D01*
X416225Y91880D01*
X415054Y92662D01*
X413673Y92937D01*
X412663Y92736D01*
X412028Y93897D01*
X413422Y95291D01*
Y97039D01*
X413854Y97847D01*
X414768Y100863D01*
X415077Y104000D01*
X414768Y107136D01*
X413854Y110152D01*
X413422Y110960D01*
Y114857D01*
X413673Y115063D01*
X415054Y115338D01*
X416225Y116120D01*
X417007Y117291D01*
X417282Y118672D01*
X417007Y120054D01*
X416225Y121224D01*
X415054Y122007D01*
X413673Y122282D01*
X413422Y122488D01*
Y248612D01*
X414692Y248997D01*
X414814Y248814D01*
X415817Y248144D01*
X417000Y247909D01*
X418183Y248144D01*
X419186Y248814D01*
X419856Y249817D01*
X420091Y251000D01*
X419856Y252183D01*
X419186Y253186D01*
X418183Y253856D01*
X417000Y254091D01*
X415817Y253856D01*
X414814Y253186D01*
X414692Y253003D01*
X413422Y253388D01*
Y261678D01*
X414692Y262407D01*
X415519Y262242D01*
X416703Y262478D01*
X417705Y263148D01*
X418376Y264151D01*
X418611Y265334D01*
X418376Y266517D01*
X417705Y267520D01*
X416703Y268190D01*
X415519Y268425D01*
X414692Y268260D01*
X414531Y268353D01*
X414186Y269804D01*
X415252Y270870D01*
X415815Y270815D01*
X416818Y270145D01*
X418001Y269909D01*
X419184Y270145D01*
X420187Y270815D01*
X420857Y271818D01*
X421092Y273001D01*
X420857Y274184D01*
X420187Y275187D01*
X419184Y275857D01*
X418001Y276092D01*
X416818Y275857D01*
X415815Y275187D01*
X415422Y274599D01*
X415040D01*
X414692Y274455D01*
X413422Y275303D01*
Y302828D01*
X414747D01*
X415454Y302828D01*
X416144Y301817D01*
X416814Y300814D01*
X417817Y300144D01*
X419000Y299909D01*
X420183Y300144D01*
X421186Y300814D01*
X421556Y301368D01*
X443324D01*
X462038Y282653D01*
X461909Y282000D01*
X462144Y280817D01*
X462814Y279814D01*
X463817Y279144D01*
X465000Y278909D01*
X466183Y279144D01*
X467186Y279814D01*
X467856Y280817D01*
X468091Y282000D01*
X467856Y283183D01*
X467186Y284186D01*
X466183Y284856D01*
X465000Y285091D01*
X464347Y284961D01*
X445154Y304154D01*
X444000Y304632D01*
X421556D01*
X421186Y305186D01*
X420645Y305547D01*
X420326Y307024D01*
X429438Y316136D01*
X433316D01*
X434470Y316614D01*
X463686Y345830D01*
X464164Y346984D01*
Y353862D01*
X467976Y357674D01*
X469453Y357355D01*
X469814Y356814D01*
X470809Y356149D01*
X470817Y356108D01*
Y354892D01*
X470809Y354851D01*
X469814Y354186D01*
X469144Y353183D01*
X468909Y352000D01*
X469144Y350817D01*
X469814Y349814D01*
X470817Y349144D01*
X472000Y348908D01*
X473183Y349144D01*
X474186Y349814D01*
X474851Y350808D01*
X474895Y350817D01*
X476105D01*
X476149Y350808D01*
X476814Y349814D01*
X477817Y349144D01*
X479000Y348908D01*
X480183Y349144D01*
X481186Y349814D01*
X481856Y350817D01*
X482091Y352000D01*
X481961Y352653D01*
X489821Y360513D01*
X491248D01*
Y361940D01*
X501154Y371846D01*
X501632Y373000D01*
Y400467D01*
X501154Y401621D01*
X498284Y404491D01*
Y429782D01*
X503807Y435305D01*
X516082Y435304D01*
D02*
G37*
G36*
X459805Y374828D02*
X459814Y374814D01*
X460817Y374144D01*
X462000Y373909D01*
X463183Y374144D01*
X463503Y374358D01*
X464313Y373372D01*
X457346Y366404D01*
X456868Y365250D01*
Y349330D01*
X453245Y345708D01*
X451867Y346126D01*
X451856Y346183D01*
X451186Y347186D01*
X450183Y347856D01*
X449000Y348092D01*
X447817Y347856D01*
X446814Y347186D01*
X446144Y346183D01*
X445909Y345000D01*
X446144Y343817D01*
X446814Y342814D01*
X447817Y342144D01*
X447874Y342133D01*
X448292Y340755D01*
X430970Y323433D01*
X387876D01*
X364632Y346676D01*
Y354444D01*
X365186Y354814D01*
X365856Y355817D01*
X366091Y357000D01*
X365856Y358183D01*
X365186Y359186D01*
X364183Y359856D01*
X363000Y360091D01*
X361817Y359856D01*
X360814Y359186D01*
X360144Y358183D01*
X359909Y357000D01*
X360144Y355817D01*
X360814Y354814D01*
X361368Y354444D01*
Y346000D01*
X361846Y344846D01*
X383346Y323346D01*
X382860Y322172D01*
X379540D01*
X378386Y321694D01*
X374653Y317962D01*
X374000Y318091D01*
X372817Y317856D01*
X371814Y317186D01*
X371144Y316183D01*
X369771Y315791D01*
X331494Y354068D01*
X331825Y355533D01*
X332395Y355914D01*
X332765Y356468D01*
X355052D01*
X356206Y356946D01*
X363388Y364128D01*
X450596D01*
X451750Y364606D01*
X457148Y370004D01*
X457626Y371158D01*
Y374489D01*
X458315Y375063D01*
X459805Y374828D01*
D02*
G37*
G36*
X379392Y317162D02*
X379941Y316837D01*
X380144Y315817D01*
X380814Y314814D01*
X381817Y314144D01*
X383000Y313909D01*
X383653Y314039D01*
X394386Y303306D01*
X395540Y302828D01*
X412339D01*
Y280805D01*
X409024D01*
X408183Y281367D01*
X407000Y281603D01*
X405817Y281367D01*
X404814Y280697D01*
X404144Y279694D01*
X403909Y278511D01*
X404144Y277328D01*
X404814Y276325D01*
X405817Y275655D01*
X407000Y275420D01*
X408183Y275655D01*
X409024Y276217D01*
X411650D01*
X412360Y275092D01*
X412536Y274830D01*
X412656Y274538D01*
X412865Y273948D01*
X412941Y273176D01*
X408758Y268993D01*
X408280Y267839D01*
Y256232D01*
X407500Y255592D01*
X406317Y255356D01*
X405314Y254686D01*
X404644Y253683D01*
X404408Y252500D01*
X404644Y251317D01*
X405314Y250314D01*
X406317Y249644D01*
X407500Y249409D01*
X408683Y249644D01*
X409686Y250314D01*
X410356Y251317D01*
X410572Y252403D01*
X411660Y253140D01*
X412467Y252878D01*
X412594Y252774D01*
X412656Y252623D01*
X412902Y252521D01*
X413107Y252352D01*
X414378Y251967D01*
X414642Y251993D01*
X414903Y251941D01*
X415039Y252032D01*
X415202Y252048D01*
X415371Y252254D01*
X415592Y252402D01*
X415594Y252406D01*
X416239Y252836D01*
X417000Y252988D01*
X417761Y252836D01*
X418406Y252406D01*
X418837Y251761D01*
X418988Y251000D01*
X418837Y250239D01*
X418406Y249594D01*
X417761Y249163D01*
X417000Y249012D01*
X416239Y249163D01*
X415594Y249594D01*
X415592Y249599D01*
X415371Y249746D01*
X415202Y249952D01*
X415039Y249968D01*
X414903Y250059D01*
X414642Y250007D01*
X414378Y250033D01*
X413107Y249648D01*
X412902Y249479D01*
X412656Y249377D01*
X412594Y249226D01*
X412467Y249122D01*
X412441Y248857D01*
X412339Y248612D01*
Y228257D01*
X412138Y228122D01*
X410413Y228461D01*
X410352Y228552D01*
X409181Y229335D01*
X407800Y229609D01*
X406419Y229335D01*
X405248Y228552D01*
X405132Y228379D01*
X389321Y212567D01*
X372640D01*
Y243606D01*
X389716D01*
X389921Y243566D01*
X391302Y243840D01*
X392473Y244623D01*
X393255Y245794D01*
X393530Y247175D01*
X393255Y248556D01*
X392473Y249727D01*
X391302Y250510D01*
X389921Y250784D01*
X389716Y250744D01*
X372640D01*
Y310387D01*
X372534Y310922D01*
X373618Y311985D01*
X374000Y311909D01*
X375183Y312144D01*
X376186Y312814D01*
X376856Y313817D01*
X377091Y315000D01*
X376962Y315653D01*
X378689Y317381D01*
X379392Y317162D01*
D02*
G37*
G36*
X425664Y316979D02*
X414778Y306092D01*
X396216D01*
X385961Y316347D01*
X386087Y316979D01*
X386092Y317001D01*
X387157Y318152D01*
X425178D01*
X425664Y316979D01*
D02*
G37*
G36*
X332749Y314723D02*
Y305501D01*
X331575Y305014D01*
X302480Y334110D01*
X302966Y335283D01*
X312189D01*
X332749Y314723D01*
D02*
G37*
G36*
X140587Y375738D02*
X140822Y374555D01*
X141492Y373552D01*
X142495Y372882D01*
X143678Y372646D01*
X144861Y372882D01*
X145864Y373552D01*
X146234Y374105D01*
X166848D01*
X220799Y320155D01*
X220796Y320035D01*
X220516Y318885D01*
X157015D01*
X156640Y318810D01*
X156257D01*
X154325Y318426D01*
X153972Y318279D01*
X153596Y318205D01*
X151777Y317451D01*
X151459Y317238D01*
X151105Y317092D01*
X149467Y315998D01*
X149197Y315727D01*
X148878Y315514D01*
X147486Y314121D01*
X147273Y313803D01*
X147002Y313533D01*
X145908Y311895D01*
X145762Y311541D01*
X145549Y311223D01*
X144795Y309403D01*
X144721Y309028D01*
X144574Y308675D01*
X144190Y306743D01*
Y306360D01*
X144115Y305985D01*
Y294015D01*
X144190Y293640D01*
Y293257D01*
X144337Y292519D01*
X143166Y291893D01*
X139172Y295887D01*
Y375466D01*
X139158Y375501D01*
X139812Y376579D01*
X140587Y375738D01*
D02*
G37*
G36*
X77616Y331633D02*
Y288325D01*
X76346Y287647D01*
X75700Y288078D01*
X73817Y288453D01*
X71934Y288078D01*
X70337Y287012D01*
X69271Y285415D01*
X68896Y283532D01*
X69271Y281649D01*
X69704Y281000D01*
X69271Y280351D01*
X68896Y278468D01*
X69271Y276585D01*
X70337Y274989D01*
X71934Y273922D01*
X73817Y273548D01*
X75700Y273922D01*
X76346Y274354D01*
X77616Y273675D01*
Y258814D01*
X76665Y257863D01*
X76187Y256709D01*
Y255830D01*
X76146Y255777D01*
X75673Y255395D01*
X74917Y255140D01*
X74709Y255241D01*
X74708Y255241D01*
X74677Y255230D01*
X74646Y255243D01*
X62257D01*
Y258755D01*
X62592Y259564D01*
Y318098D01*
X76321Y331826D01*
X76346Y331886D01*
X77616Y331633D01*
D02*
G37*
G36*
X302921Y314062D02*
X302909Y314000D01*
X303144Y312817D01*
X303814Y311814D01*
X304817Y311144D01*
X306000Y310909D01*
X307183Y311144D01*
X308186Y311814D01*
X308547Y312355D01*
X310024Y312674D01*
X311572Y311126D01*
Y274261D01*
X309463Y272152D01*
X308193Y272678D01*
Y303889D01*
X307714Y305043D01*
X298194Y314564D01*
X298324Y315217D01*
X298088Y316400D01*
X297418Y317403D01*
X296415Y318073D01*
X295232Y318308D01*
X294049Y318073D01*
X293046Y317403D01*
X292376Y316400D01*
X292141Y315217D01*
X292376Y314034D01*
X293046Y313031D01*
X294049Y312361D01*
X295232Y312125D01*
X295886Y312255D01*
X304928Y303213D01*
Y298040D01*
X303755Y297554D01*
X297778Y303531D01*
X297908Y304184D01*
X297672Y305367D01*
X297002Y306370D01*
X295999Y307040D01*
X294816Y307275D01*
X293633Y307040D01*
X292630Y306370D01*
X291960Y305367D01*
X291725Y304184D01*
X291960Y303001D01*
X292630Y301998D01*
X293633Y301328D01*
X294816Y301092D01*
X295469Y301222D01*
X302912Y293780D01*
Y288056D01*
X301739Y287570D01*
X297563Y291746D01*
X297693Y292399D01*
X297457Y293582D01*
X296787Y294585D01*
X295784Y295255D01*
X294601Y295490D01*
X293418Y295255D01*
X292415Y294585D01*
X291745Y293582D01*
X291510Y292399D01*
X291745Y291216D01*
X292415Y290213D01*
X293418Y289543D01*
X294601Y289307D01*
X295254Y289437D01*
X300896Y283796D01*
Y278072D01*
X299723Y277586D01*
X298028Y279280D01*
X298158Y279933D01*
X297923Y281116D01*
X297253Y282119D01*
X296250Y282789D01*
X295067Y283025D01*
X293884Y282789D01*
X292881Y282119D01*
X292211Y281116D01*
X291975Y279933D01*
X292211Y278750D01*
X292881Y277747D01*
X293884Y277077D01*
X295067Y276842D01*
X295720Y276972D01*
X298880Y273812D01*
Y270083D01*
X297610Y269958D01*
X297493Y270546D01*
X296823Y271549D01*
X295820Y272219D01*
X294637Y272454D01*
X293454Y272219D01*
X292451Y271549D01*
X291781Y270546D01*
X291546Y269363D01*
X291781Y268180D01*
X292451Y267177D01*
X293454Y266507D01*
X294637Y266272D01*
X295290Y266402D01*
X296307Y265385D01*
X296223Y264689D01*
X295880Y264414D01*
X294891Y263914D01*
X294000Y264091D01*
X292817Y263856D01*
X291814Y263186D01*
X291444Y262632D01*
X240006D01*
X238852Y262154D01*
X234870Y258172D01*
X233534D01*
X232379Y257694D01*
X230306Y255620D01*
X229828Y254466D01*
Y253130D01*
X212663Y235965D01*
X185698D01*
X184939Y237235D01*
X185091Y238000D01*
X184856Y239183D01*
X184186Y240186D01*
X184056Y240273D01*
Y247917D01*
X184133Y247994D01*
X184578Y248661D01*
X184735Y249447D01*
X184735Y249448D01*
Y258321D01*
X184735Y258321D01*
X184578Y259107D01*
X184133Y259774D01*
X181061Y262846D01*
X181092Y263000D01*
X180873Y264098D01*
X180877Y264216D01*
X181592Y265368D01*
X227879D01*
X229033Y265846D01*
X229245Y266058D01*
X229998Y265908D01*
X231181Y266143D01*
X232184Y266813D01*
X232854Y267816D01*
X233090Y268999D01*
X232854Y270182D01*
X232184Y271185D01*
X231181Y271855D01*
X229998Y272091D01*
X228815Y271855D01*
X227812Y271185D01*
X227142Y270182D01*
X226907Y268999D01*
X226605Y268632D01*
X193600D01*
X193114Y269806D01*
X197347Y274039D01*
X198000Y273909D01*
X199183Y274144D01*
X200186Y274814D01*
X200856Y275817D01*
X201092Y277000D01*
X200856Y278183D01*
X200186Y279186D01*
X199183Y279856D01*
X199363Y281115D01*
X238985D01*
X239360Y281190D01*
X239743D01*
X241675Y281574D01*
X242028Y281721D01*
X242404Y281795D01*
X244223Y282549D01*
X244541Y282762D01*
X244895Y282908D01*
X246533Y284002D01*
X246803Y284273D01*
X247121Y284486D01*
X248514Y285879D01*
X248727Y286197D01*
X248997Y286467D01*
X250092Y288105D01*
X250238Y288459D01*
X250451Y288777D01*
X251205Y290597D01*
X251279Y290972D01*
X251426Y291325D01*
X251810Y293257D01*
Y293640D01*
X251885Y294015D01*
Y305985D01*
X251810Y306360D01*
Y306743D01*
X251426Y308675D01*
X251279Y309028D01*
X251205Y309403D01*
X250451Y311223D01*
X250238Y311541D01*
X250092Y311895D01*
X248997Y313533D01*
X248727Y313803D01*
X248514Y314121D01*
X247121Y315514D01*
X246803Y315727D01*
X246533Y315998D01*
X244895Y317092D01*
X244541Y317238D01*
X244223Y317451D01*
X242404Y318205D01*
X242330Y318386D01*
X243188Y319655D01*
X297328D01*
X302921Y314062D01*
D02*
G37*
G36*
X321558Y307564D02*
Y277804D01*
X313685Y269931D01*
X312307Y270349D01*
X312302Y270375D01*
X314358Y272431D01*
X314836Y273585D01*
Y311802D01*
X314358Y312957D01*
X305734Y321581D01*
X306152Y322959D01*
X306162Y322961D01*
X321558Y307564D01*
D02*
G37*
G36*
X330733Y301240D02*
Y272600D01*
X315902Y257770D01*
X315266Y257865D01*
X314632Y258159D01*
Y266261D01*
X324344Y275974D01*
X324822Y277128D01*
Y305492D01*
X325995Y305978D01*
X330733Y301240D01*
D02*
G37*
G36*
X291814Y258814D02*
X292817Y258144D01*
X294000Y257909D01*
X295183Y258144D01*
X295478Y258341D01*
X296568Y257764D01*
X296594Y256587D01*
X295594Y255943D01*
X294956Y256070D01*
X293773Y255834D01*
X292770Y255164D01*
X292100Y254161D01*
X291865Y252978D01*
X292100Y251795D01*
X292770Y250792D01*
X293324Y250422D01*
Y247613D01*
X292151Y247127D01*
X287418Y251860D01*
X287548Y252513D01*
X287312Y253696D01*
X286642Y254699D01*
X285639Y255369D01*
X284456Y255604D01*
X283273Y255369D01*
X282270Y254699D01*
X281600Y253696D01*
X281365Y252513D01*
X281600Y251330D01*
X282270Y250327D01*
X283273Y249657D01*
X284456Y249421D01*
X285109Y249551D01*
X291054Y243607D01*
Y242017D01*
X291019Y241983D01*
X289784Y241454D01*
X289183Y241856D01*
X288000Y242091D01*
X286817Y241856D01*
X285814Y241186D01*
X285144Y240183D01*
X284908Y239000D01*
X285144Y237817D01*
X285814Y236814D01*
X286817Y236144D01*
X288000Y235909D01*
X288784Y234770D01*
Y193506D01*
X289262Y192352D01*
X299319Y182295D01*
Y133207D01*
X299797Y132053D01*
X301035Y130815D01*
Y119489D01*
X296219Y114673D01*
X295741Y113519D01*
Y112955D01*
X294568Y112469D01*
X282757Y124279D01*
X282664Y124318D01*
X282610Y124403D01*
X282292Y124472D01*
X281992Y124596D01*
X281024Y125341D01*
X280856Y126183D01*
X280186Y127186D01*
X279632Y127556D01*
Y193157D01*
X279154Y194311D01*
X274632Y198834D01*
Y231324D01*
X278671Y235363D01*
X279324Y235233D01*
X280507Y235468D01*
X281510Y236138D01*
X282181Y237141D01*
X282416Y238324D01*
X282181Y239507D01*
X281510Y240510D01*
X280507Y241180D01*
X279324Y241416D01*
X278141Y241180D01*
X277138Y240510D01*
X276468Y239507D01*
X276233Y238324D01*
X276363Y237671D01*
X271846Y233154D01*
X271367Y232000D01*
Y198158D01*
X271846Y197003D01*
X276368Y192481D01*
Y132328D01*
X275194Y131842D01*
X244701Y162335D01*
X244649Y162356D01*
X244623Y162406D01*
X244273Y162512D01*
X243936Y162652D01*
X243884Y162630D01*
X243830Y162647D01*
X242195Y162486D01*
X242145Y162459D01*
X242090Y162470D01*
X241786Y162267D01*
X241625Y162181D01*
X241613Y162178D01*
X241583Y162159D01*
X241464Y162095D01*
X241458Y162075D01*
X240789Y161628D01*
X240028Y161477D01*
X239268Y161628D01*
X238623Y162059D01*
X238192Y162704D01*
X238040Y163464D01*
X238192Y164225D01*
X238639Y164894D01*
X238659Y164900D01*
X238723Y165020D01*
X238742Y165049D01*
X238745Y165061D01*
X238831Y165223D01*
X239034Y165526D01*
X239023Y165581D01*
X239049Y165631D01*
X239210Y167266D01*
X239194Y167320D01*
X239216Y167372D01*
X239076Y167710D01*
X238970Y168059D01*
X238920Y168085D01*
X238899Y168138D01*
X233141Y173895D01*
X233652Y174659D01*
X234118Y177000D01*
X233652Y179341D01*
X232326Y181326D01*
X230341Y182652D01*
X228000Y183117D01*
X225659Y182652D01*
X224895Y182141D01*
X221689Y185347D01*
X222090Y185946D01*
X222325Y187129D01*
X222196Y187780D01*
Y225025D01*
X237170Y239999D01*
X237812Y240960D01*
X238037Y242093D01*
Y252728D01*
X238091Y253000D01*
X237856Y254183D01*
X237186Y255186D01*
X237125Y255810D01*
X240683Y259368D01*
X291444D01*
X291814Y258814D01*
D02*
G37*
G36*
X175123Y264216D02*
X175127Y264098D01*
X174909Y263000D01*
X175144Y261817D01*
X175814Y260814D01*
X176817Y260144D01*
X178000Y259909D01*
X178154Y259939D01*
X180624Y257469D01*
Y254281D01*
X179354Y253602D01*
X179183Y253716D01*
X178000Y253951D01*
X176817Y253716D01*
X175814Y253046D01*
X175144Y252043D01*
X174909Y250860D01*
X175144Y249677D01*
X175814Y248674D01*
X176817Y248004D01*
X178000Y247769D01*
X178675Y247903D01*
X179944Y247101D01*
Y240273D01*
X179814Y240186D01*
X179144Y239183D01*
X178909Y238000D01*
X179061Y237235D01*
X178302Y235965D01*
X173343D01*
X163614Y245694D01*
X162460Y246172D01*
X111116D01*
X110863Y247442D01*
X111644Y247766D01*
X129246Y265368D01*
X174408D01*
X175123Y264216D01*
D02*
G37*
G36*
X230291Y353391D02*
X275122D01*
X276668Y352357D01*
X279009Y351892D01*
X316367D01*
X360405Y307853D01*
Y246460D01*
Y235118D01*
X359135Y234451D01*
X358683Y234753D01*
X357500Y234988D01*
X356317Y234753D01*
X355379Y234126D01*
X354726Y235104D01*
X353723Y235774D01*
X352540Y236009D01*
X351902Y235883D01*
X350632Y236701D01*
Y239536D01*
X351186Y239905D01*
X351856Y240908D01*
X352091Y242091D01*
X351856Y243274D01*
X351186Y244277D01*
X350183Y244947D01*
X349000Y245183D01*
X347817Y244947D01*
X346814Y244277D01*
X346144Y243274D01*
X345909Y242091D01*
X346144Y240908D01*
X346814Y239905D01*
X347368Y239536D01*
Y234697D01*
X346102Y234305D01*
X345099Y234975D01*
X343916Y235211D01*
X343341Y235096D01*
X342346Y235872D01*
X342452Y237014D01*
X342849Y237093D01*
X343852Y237763D01*
X344522Y238766D01*
X344757Y239949D01*
X344522Y241132D01*
X343852Y242135D01*
X343405Y242433D01*
X343196Y243745D01*
X343267Y243937D01*
X343856Y244817D01*
X344091Y246000D01*
X343856Y247183D01*
X343185Y248186D01*
X342183Y248856D01*
X340999Y249091D01*
X339816Y248856D01*
X338814Y248186D01*
X338143Y247183D01*
X337908Y246000D01*
X338038Y245347D01*
X336972Y244281D01*
X336494Y243127D01*
Y241682D01*
X336056Y241336D01*
X335224Y240898D01*
X334264Y241089D01*
X333626Y240963D01*
X332356Y241781D01*
Y246137D01*
X336463Y250244D01*
X337117Y250114D01*
X338300Y250349D01*
X339302Y251019D01*
X339973Y252022D01*
X340208Y253205D01*
X339973Y254388D01*
X339302Y255391D01*
X338300Y256061D01*
X337117Y256297D01*
X335933Y256061D01*
X335834Y255995D01*
X335004Y256693D01*
X334868Y256877D01*
X335091Y258000D01*
X334856Y259183D01*
X334186Y260186D01*
X333645Y260547D01*
X333326Y262024D01*
X344710Y273408D01*
X345188Y274562D01*
Y311927D01*
X344710Y313081D01*
X310625Y347166D01*
X309471Y347644D01*
X233664D01*
X228944Y352364D01*
X229570Y353534D01*
X230291Y353391D01*
D02*
G37*
G36*
X232113Y249139D02*
Y243320D01*
X217139Y228346D01*
X216497Y227385D01*
X216272Y226252D01*
Y192424D01*
X215098Y191938D01*
X175509Y231528D01*
X175995Y232701D01*
X213339D01*
X214494Y233179D01*
X230940Y249625D01*
X232113Y249139D01*
D02*
G37*
G36*
X115967Y198869D02*
X116928Y198226D01*
X118061Y198001D01*
X149922D01*
X150047Y196731D01*
X149117Y196546D01*
X147521Y195479D01*
X146454Y193883D01*
X146302Y193118D01*
X145536Y192965D01*
X143940Y191899D01*
X142873Y190302D01*
X142499Y188419D01*
X142873Y186536D01*
X143940Y184940D01*
X145536Y183873D01*
X147419Y183499D01*
X149302Y183873D01*
X150899Y184940D01*
X151965Y186536D01*
X152118Y187302D01*
X152883Y187454D01*
X154479Y188521D01*
X155546Y190117D01*
X155920Y192000D01*
X155546Y193883D01*
X154479Y195479D01*
X152883Y196546D01*
X151953Y196731D01*
X152078Y198001D01*
X155751D01*
X160989Y192762D01*
Y192407D01*
X160909Y192000D01*
X161038Y191349D01*
Y178392D01*
X161264Y177258D01*
X161906Y176298D01*
X182050Y156154D01*
X182353Y155769D01*
X182220Y154409D01*
X163979Y136167D01*
X132426D01*
X131293Y135942D01*
X130332Y135300D01*
X110586Y115554D01*
X109944Y114593D01*
X109718Y113459D01*
Y89994D01*
X108448Y89207D01*
X107743Y89348D01*
X106560Y89112D01*
X105557Y88442D01*
X104887Y87439D01*
X104652Y86256D01*
X104887Y85073D01*
X105557Y84070D01*
X106560Y83400D01*
X107743Y83165D01*
X108448Y83305D01*
X109718Y82518D01*
Y76676D01*
X97969Y64926D01*
X97327Y63966D01*
X97101Y62832D01*
Y54124D01*
X96612Y53762D01*
X95342Y54401D01*
Y86203D01*
X98694Y89555D01*
X99172Y90709D01*
Y125454D01*
X98694Y126608D01*
X98092Y127210D01*
Y169790D01*
X105614Y177312D01*
X106092Y178466D01*
Y182728D01*
X107362Y183405D01*
X109000Y183080D01*
X110883Y183454D01*
X112479Y184521D01*
X113546Y186117D01*
X113921Y188000D01*
X113546Y189883D01*
X113112Y190532D01*
X113546Y191181D01*
X113921Y193064D01*
X113546Y194947D01*
X112479Y196543D01*
X110883Y197610D01*
X109000Y197984D01*
X107362Y197659D01*
X106092Y198336D01*
Y200126D01*
X106183Y200144D01*
X107186Y200814D01*
X107856Y201817D01*
X108091Y203000D01*
X107951Y203705D01*
X108649Y204832D01*
X109917Y204918D01*
X115967Y198869D01*
D02*
G37*
G36*
X183064Y180034D02*
X182882Y179123D01*
X183348Y176782D01*
X184674Y174798D01*
X186659Y173472D01*
X189000Y173006D01*
X190092D01*
X202135Y160963D01*
X201649Y159789D01*
X194146D01*
X189160Y164776D01*
X188493Y165221D01*
X187706Y165378D01*
X187706Y165378D01*
X185805D01*
X170203Y180979D01*
Y191235D01*
X171377Y191721D01*
X183064Y180034D01*
D02*
G37*
G36*
X44385Y178410D02*
X44721Y177907D01*
X45724Y177237D01*
X46907Y177002D01*
X48090Y177237D01*
X48638Y177603D01*
X49908Y177015D01*
Y151944D01*
X48638Y151265D01*
X48587Y151299D01*
X47404Y151534D01*
X46221Y151299D01*
X45414Y150759D01*
X44574Y151094D01*
X44204Y151362D01*
X43986Y152457D01*
X43316Y153460D01*
X42762Y153830D01*
Y177748D01*
X42856Y178101D01*
X44022Y178606D01*
X44385Y178410D01*
D02*
G37*
G36*
X71235Y163843D02*
Y141250D01*
Y129462D01*
X71204Y129449D01*
X70542Y129318D01*
X69691Y128748D01*
X69122Y127897D01*
X68990Y127235D01*
X68848Y126892D01*
Y125978D01*
X68990Y125635D01*
X69122Y124973D01*
X68257Y124024D01*
X68021Y123973D01*
X66882Y124890D01*
Y166536D01*
X68055Y167022D01*
X71235Y163843D01*
D02*
G37*
G36*
X40973Y134247D02*
X40883Y133791D01*
X41118Y132608D01*
X41788Y131605D01*
X42791Y130935D01*
X43974Y130700D01*
X45157Y130935D01*
X46160Y131605D01*
X46830Y132608D01*
X47066Y133791D01*
X46830Y134974D01*
X46160Y135977D01*
X45157Y136647D01*
X44914Y136695D01*
X45000Y137909D01*
X46183Y138144D01*
X47186Y138814D01*
X47856Y139817D01*
X48091Y141000D01*
X47856Y142183D01*
X47186Y143186D01*
X46183Y143856D01*
X45000Y144091D01*
X43817Y143856D01*
X42814Y143186D01*
X42444Y142632D01*
X40056D01*
X37759Y144929D01*
X38245Y146102D01*
X45450D01*
X46221Y145586D01*
X47404Y145351D01*
X48587Y145586D01*
X48638Y145620D01*
X49908Y144941D01*
Y121558D01*
X33745Y105395D01*
X32994Y105056D01*
X32092Y105344D01*
X31271Y106165D01*
Y110376D01*
X31352Y110783D01*
X31222Y111434D01*
Y139185D01*
X30997Y140318D01*
X30355Y141279D01*
X23628Y148006D01*
X24154Y149276D01*
X25945D01*
X40973Y134247D01*
D02*
G37*
G36*
X200696Y139401D02*
X218296Y121801D01*
Y93155D01*
X218265Y93124D01*
X217122Y92533D01*
X201621Y108034D01*
Y118549D01*
X201395Y119683D01*
X200753Y120644D01*
X198962Y122435D01*
Y139836D01*
X200232Y140095D01*
X200696Y139401D01*
D02*
G37*
G36*
X412339Y223743D02*
Y122488D01*
X412361Y122436D01*
X412345Y122381D01*
X412345Y122381D01*
X412517Y122059D01*
X412656Y121722D01*
X412709Y121701D01*
X412735Y121651D01*
X412986Y121445D01*
X412986Y121445D01*
X413072Y121419D01*
X413240Y121368D01*
X413461Y121220D01*
X414632Y120987D01*
X415444Y120444D01*
X415988Y119631D01*
X416178Y118672D01*
X415988Y117713D01*
X415444Y116901D01*
X414632Y116357D01*
X413461Y116125D01*
X413240Y115977D01*
X412986Y115900D01*
X412986Y115900D01*
X412735Y115694D01*
X412709Y115644D01*
X412656Y115623D01*
X412517Y115285D01*
X412345Y114964D01*
X412345Y114963D01*
X412361Y114909D01*
X412339Y114857D01*
Y110960D01*
X412441Y110715D01*
X412467Y110450D01*
X412849Y109736D01*
X413702Y106924D01*
X413990Y104000D01*
X413702Y101075D01*
X412849Y98263D01*
X412467Y97549D01*
X412441Y97285D01*
X412339Y97039D01*
Y95739D01*
X411263Y94663D01*
X411159Y94413D01*
X410989Y94202D01*
X411006Y94044D01*
X410946Y93897D01*
X411049Y93647D01*
X411078Y93378D01*
X411713Y92217D01*
X411916Y92053D01*
X412061Y91836D01*
X412227Y91803D01*
X412358Y91698D01*
X412618Y91726D01*
X412874Y91675D01*
X413673Y91833D01*
X414632Y91643D01*
X415444Y91100D01*
X415988Y90287D01*
X416178Y89328D01*
X415988Y88369D01*
X415444Y87556D01*
X414632Y87013D01*
X413673Y86822D01*
X412714Y87013D01*
X411901Y87556D01*
X411358Y88369D01*
X411167Y89328D01*
X411326Y90126D01*
X411275Y90382D01*
X411303Y90642D01*
X411197Y90773D01*
X411164Y90939D01*
X410947Y91084D01*
X410783Y91287D01*
X409622Y91922D01*
X409353Y91951D01*
X409103Y92055D01*
X408956Y91994D01*
X408798Y92011D01*
X408587Y91841D01*
X408337Y91738D01*
X374786Y58187D01*
X373616Y58812D01*
X373730Y59387D01*
Y133648D01*
X373265Y135989D01*
X372640Y136923D01*
Y205430D01*
X390799D01*
X392164Y205702D01*
X393322Y206476D01*
X410178Y223332D01*
X410352Y223448D01*
X410413Y223539D01*
X412138Y223878D01*
X412339Y223743D01*
D02*
G37*
G36*
X51797Y85895D02*
Y64267D01*
X50623Y63781D01*
X46672Y67732D01*
Y84705D01*
X46194Y85859D01*
X39592Y92461D01*
Y93784D01*
X39114Y94938D01*
X36855Y97198D01*
X36931Y97912D01*
X38000Y98908D01*
X38653Y99038D01*
X51797Y85895D01*
D02*
G37*
G36*
X186038Y109000D02*
X186264Y107866D01*
X186906Y106906D01*
X253445Y40366D01*
X253814Y39814D01*
X254817Y39144D01*
X256000Y38909D01*
X257183Y39144D01*
X258186Y39814D01*
X258779Y40702D01*
X259006Y40846D01*
X260202Y41075D01*
X260874Y40403D01*
X261243Y39851D01*
X262246Y39181D01*
X263429Y38946D01*
X264612Y39181D01*
X265615Y39851D01*
X266285Y40854D01*
X266496Y41917D01*
X266936Y42191D01*
X267726Y42483D01*
X269468Y40742D01*
X269837Y40190D01*
X270840Y39520D01*
X272023Y39284D01*
X273206Y39520D01*
X274209Y40190D01*
X274618Y40802D01*
X276067Y41150D01*
X301670Y15547D01*
X301670Y15547D01*
X301417Y14188D01*
X301206Y13933D01*
X230243D01*
X229873Y14487D01*
X228870Y15157D01*
X227687Y15393D01*
X226504Y15157D01*
X225501Y14487D01*
X224831Y13484D01*
X224596Y12301D01*
X224831Y11118D01*
X225501Y10115D01*
X226504Y9445D01*
X227297Y9287D01*
X227843Y8278D01*
X227893Y7972D01*
X227589Y7516D01*
X227353Y6333D01*
X227589Y5150D01*
X226907Y3884D01*
X223644D01*
X222923Y5155D01*
X223091Y6000D01*
X222856Y7183D01*
X222186Y8186D01*
X221183Y8856D01*
X220000Y9091D01*
X218817Y8856D01*
X217814Y8186D01*
X217700Y8015D01*
X217146Y8019D01*
X216091Y9000D01*
X215856Y10183D01*
X215186Y11186D01*
X214183Y11856D01*
X213000Y12091D01*
X212173Y11927D01*
X211306Y12557D01*
X211068Y12883D01*
X211091Y13000D01*
X210856Y14183D01*
X210186Y15186D01*
X209183Y15856D01*
X208000Y16091D01*
X206817Y15856D01*
X205814Y15186D01*
X205303Y14421D01*
X204324Y14445D01*
X203981Y14555D01*
X203856Y15183D01*
X203186Y16186D01*
X202183Y16856D01*
X201000Y17091D01*
X199817Y16856D01*
X198814Y16186D01*
X198444Y15632D01*
X174515D01*
X173946Y16316D01*
X174181Y17811D01*
X174186Y17814D01*
X174856Y18817D01*
X175091Y20000D01*
X174856Y21183D01*
X174186Y22186D01*
X174013Y22301D01*
Y23705D01*
X191347Y41039D01*
X192000Y40909D01*
X193183Y41144D01*
X194186Y41814D01*
X194856Y42817D01*
X195091Y44000D01*
X194975Y44585D01*
X195485Y45561D01*
X195925Y45825D01*
X196771Y45993D01*
X197774Y46664D01*
X198167Y47252D01*
X199625Y47589D01*
X205077Y42137D01*
X205477Y41539D01*
X206635Y40765D01*
X208000Y40494D01*
X209366Y40765D01*
X210523Y41539D01*
X211297Y42697D01*
X211569Y44062D01*
Y44261D01*
X211297Y45626D01*
X210523Y46784D01*
X191862Y65445D01*
X190704Y66219D01*
X189339Y66491D01*
X184347D01*
X183555Y67761D01*
X183693Y68454D01*
X183458Y69637D01*
X182788Y70640D01*
X181785Y71310D01*
X180602Y71546D01*
X179419Y71310D01*
X178416Y70640D01*
X177745Y69637D01*
X177510Y68454D01*
X177648Y67761D01*
X176856Y66491D01*
X161669D01*
X135387Y92773D01*
X134229Y93547D01*
X132863Y93819D01*
X123783D01*
X122610Y93585D01*
X121340Y94144D01*
Y101542D01*
X142836Y123038D01*
X186038D01*
Y109000D01*
D02*
G37*
G36*
X123783Y86681D02*
X131385D01*
X149883Y68184D01*
X149881Y68110D01*
X149383Y66888D01*
X148661Y66744D01*
X147658Y66074D01*
X146988Y65071D01*
X146752Y63888D01*
X146988Y62705D01*
X147658Y61702D01*
X148661Y61032D01*
X149844Y60797D01*
X151027Y61032D01*
X152030Y61702D01*
X152700Y62705D01*
X152844Y63427D01*
X154066Y63925D01*
X154139Y63927D01*
X157668Y60399D01*
X158826Y59625D01*
X160191Y59353D01*
X187861D01*
X194328Y52887D01*
X193990Y51428D01*
X193402Y51035D01*
X192732Y50033D01*
X192496Y48850D01*
X192613Y48264D01*
X192103Y47289D01*
X191663Y47024D01*
X190817Y46856D01*
X189814Y46186D01*
X189144Y45183D01*
X188909Y44000D01*
X189039Y43347D01*
X171227Y25535D01*
X170749Y24381D01*
Y22810D01*
X169814Y22186D01*
X169453Y21645D01*
X167976Y21326D01*
X164148Y25154D01*
X162994Y25632D01*
X86233D01*
X85848Y26902D01*
X86141Y27098D01*
X97129Y38086D01*
X98583Y37744D01*
X98983Y37147D01*
X99986Y36477D01*
X101169Y36241D01*
X101188Y36245D01*
X101952Y35102D01*
X101728Y34767D01*
X101492Y33584D01*
X101728Y32401D01*
X102398Y31398D01*
X103401Y30728D01*
X104584Y30492D01*
X105767Y30728D01*
X106770Y31398D01*
X107440Y32401D01*
X107675Y33584D01*
X107440Y34767D01*
X106770Y35770D01*
X105767Y36440D01*
X104584Y36675D01*
X104565Y36671D01*
X103801Y37814D01*
X104025Y38150D01*
X104260Y39333D01*
X104025Y40516D01*
X103777Y40887D01*
X103758Y41016D01*
X103781Y42004D01*
X104156Y42431D01*
X104746Y42825D01*
X120473Y58553D01*
X121115Y59514D01*
X121340Y60647D01*
Y86355D01*
X122610Y86915D01*
X123783Y86681D01*
D02*
G37*
G36*
X415504Y21722D02*
X415144Y21183D01*
X414909Y20000D01*
X415039Y19347D01*
X412134Y16443D01*
X397804D01*
X396650Y15965D01*
X393777Y13092D01*
X312709D01*
X312112Y13674D01*
X312608Y14944D01*
X371000D01*
X371000Y14944D01*
X371787Y15101D01*
X372453Y15547D01*
X375899Y18993D01*
X380759D01*
X381000Y18944D01*
X381000Y18944D01*
X386013D01*
X386094Y18929D01*
X404909D01*
X404909Y18929D01*
X405696Y19085D01*
X406362Y19531D01*
X409824Y22992D01*
X414909D01*
X415504Y21722D01*
D02*
G37*
G36*
X445052Y21722D02*
X444908Y21000D01*
X445038Y20347D01*
X442007Y17315D01*
X428997D01*
X427843Y16837D01*
X421020Y10014D01*
X401388D01*
X400859Y11170D01*
X400856Y11183D01*
X400372Y11908D01*
X400710Y12881D01*
X400934Y13178D01*
X412811D01*
X413965Y13656D01*
X417347Y17039D01*
X418000Y16909D01*
X419183Y17144D01*
X420186Y17814D01*
X420856Y18817D01*
X421092Y20000D01*
X420856Y21183D01*
X420496Y21722D01*
X421091Y22992D01*
X444274D01*
X445052Y21722D01*
D02*
G37*
G36*
X171323Y13362D02*
X170797Y12092D01*
X149940D01*
X149555Y13362D01*
X149605Y13395D01*
X150710Y15049D01*
X151098Y17000D01*
X150710Y18951D01*
X149605Y20605D01*
X148867Y21098D01*
X149252Y22368D01*
X162318D01*
X171323Y13362D01*
D02*
G37*
G36*
X64537Y5155D02*
X64011Y3884D01*
X18413D01*
X15299Y4504D01*
X12366Y5719D01*
X9727Y7482D01*
X7482Y9727D01*
X5719Y12366D01*
X4504Y15299D01*
X3884Y18413D01*
Y20000D01*
Y64148D01*
X5058Y64634D01*
X64537Y5155D01*
D02*
G37*
%LPC*%
G36*
X240500Y374661D02*
X238617Y374286D01*
X237968Y373853D01*
X237319Y374286D01*
X235436Y374661D01*
X233553Y374286D01*
X231957Y373220D01*
X230890Y371623D01*
X230516Y369740D01*
X230890Y367857D01*
X231957Y366261D01*
X233553Y365194D01*
X235436Y364820D01*
X237319Y365194D01*
X237968Y365628D01*
X238617Y365194D01*
X240500Y364820D01*
X242383Y365194D01*
X243980Y366261D01*
X245046Y367857D01*
X245421Y369740D01*
X245046Y371623D01*
X243980Y373220D01*
X242383Y374286D01*
X240500Y374661D01*
D02*
G37*
G36*
X586000Y286917D02*
X584817Y286682D01*
X583814Y286012D01*
X583144Y285009D01*
X582909Y283826D01*
X583144Y282643D01*
X583814Y281640D01*
X584817Y280970D01*
X586000Y280735D01*
X587183Y280970D01*
X588186Y281640D01*
X588856Y282643D01*
X589091Y283826D01*
X588856Y285009D01*
X588186Y286012D01*
X587183Y286682D01*
X586000Y286917D01*
D02*
G37*
G36*
X38000Y267091D02*
X36817Y266856D01*
X35814Y266186D01*
X35144Y265183D01*
X34909Y264000D01*
X35074Y263166D01*
X34451Y262305D01*
X34122Y262061D01*
X34000Y262085D01*
X32817Y261850D01*
X31814Y261180D01*
X31144Y260177D01*
X30909Y258994D01*
X31144Y257811D01*
X31814Y256808D01*
X32393Y256421D01*
X32711Y255471D01*
X32617Y254883D01*
X32141Y254170D01*
X31906Y252987D01*
X32141Y251804D01*
X32811Y250801D01*
X33814Y250131D01*
X34997Y249895D01*
X36180Y250131D01*
X37183Y250801D01*
X37853Y251804D01*
X38088Y252987D01*
X37853Y254170D01*
X37183Y255173D01*
X36604Y255560D01*
X36286Y256509D01*
X36380Y257098D01*
X36856Y257811D01*
X37091Y258994D01*
X36926Y259827D01*
X37549Y260689D01*
X37878Y260933D01*
X38000Y260909D01*
X39183Y261144D01*
X40186Y261814D01*
X40856Y262817D01*
X41091Y264000D01*
X40856Y265183D01*
X40186Y266186D01*
X39183Y266856D01*
X38000Y267091D01*
D02*
G37*
G36*
X14000Y233091D02*
X12817Y232856D01*
X11814Y232186D01*
X11144Y231183D01*
X10909Y230000D01*
X11144Y228817D01*
X11814Y227814D01*
X12809Y227149D01*
X12817Y227107D01*
Y225893D01*
X12809Y225851D01*
X11814Y225186D01*
X11144Y224183D01*
X10909Y223000D01*
X11144Y221817D01*
X11814Y220814D01*
X12817Y220144D01*
X14000Y219909D01*
X15183Y220144D01*
X16186Y220814D01*
X16856Y221817D01*
X17091Y223000D01*
X16856Y224183D01*
X16186Y225186D01*
X15191Y225851D01*
X15183Y225893D01*
Y227107D01*
X15191Y227149D01*
X16186Y227814D01*
X16856Y228817D01*
X17091Y230000D01*
X16856Y231183D01*
X16186Y232186D01*
X15183Y232856D01*
X14000Y233091D01*
D02*
G37*
G36*
X15848Y214939D02*
X14664Y214704D01*
X13662Y214034D01*
X12991Y213031D01*
X12756Y211848D01*
X12991Y210665D01*
X13662Y209662D01*
X14664Y208992D01*
X15848Y208756D01*
X17031Y208992D01*
X18033Y209662D01*
X18704Y210665D01*
X18939Y211848D01*
X18704Y213031D01*
X18033Y214034D01*
X17031Y214704D01*
X15848Y214939D01*
D02*
G37*
G36*
X458000Y12592D02*
X456817Y12356D01*
X455814Y11686D01*
X455144Y10683D01*
X454909Y9500D01*
X455144Y8317D01*
X455814Y7314D01*
X456817Y6644D01*
X458000Y6409D01*
X459183Y6644D01*
X460186Y7314D01*
X460856Y8317D01*
X461092Y9500D01*
X460856Y10683D01*
X460186Y11686D01*
X459183Y12356D01*
X458000Y12592D01*
D02*
G37*
G36*
X109733Y318744D02*
X108550Y318508D01*
X107547Y317838D01*
X106877Y316835D01*
X106642Y315652D01*
X106738Y315170D01*
X105729Y314076D01*
X105457Y314130D01*
X104274Y313894D01*
X103271Y313224D01*
X102601Y312221D01*
X102366Y311038D01*
X102601Y309855D01*
X103271Y308852D01*
X104274Y308182D01*
X105457Y307947D01*
X106640Y308182D01*
X107643Y308852D01*
X108313Y309855D01*
X108548Y311038D01*
X108453Y311521D01*
X109461Y312615D01*
X109733Y312561D01*
X110916Y312796D01*
X111919Y313466D01*
X112589Y314469D01*
X112824Y315652D01*
X112589Y316835D01*
X111919Y317838D01*
X110916Y318508D01*
X109733Y318744D01*
D02*
G37*
G36*
X548000Y382091D02*
X546817Y381856D01*
X545814Y381186D01*
X545144Y380183D01*
X544909Y379000D01*
X545144Y377817D01*
X545814Y376814D01*
X546817Y376144D01*
X548000Y375909D01*
X549183Y376144D01*
X550186Y376814D01*
X550856Y377817D01*
X551091Y379000D01*
X550856Y380183D01*
X550186Y381186D01*
X549183Y381856D01*
X548000Y382091D01*
D02*
G37*
G36*
X514467Y366535D02*
X513284Y366300D01*
X512281Y365630D01*
X511611Y364627D01*
X511376Y363444D01*
X511611Y362261D01*
X512281Y361258D01*
X513284Y360588D01*
X514467Y360353D01*
X515650Y360588D01*
X516653Y361258D01*
X517323Y362261D01*
X517559Y363444D01*
X517323Y364627D01*
X516653Y365630D01*
X515650Y366300D01*
X514467Y366535D01*
D02*
G37*
G36*
X519000Y360091D02*
X517817Y359856D01*
X516814Y359186D01*
X516144Y358183D01*
X515909Y357000D01*
X516144Y355817D01*
X516814Y354814D01*
X517817Y354144D01*
X519000Y353909D01*
X520183Y354144D01*
X521186Y354814D01*
X521856Y355817D01*
X522091Y357000D01*
X521856Y358183D01*
X521186Y359186D01*
X520183Y359856D01*
X519000Y360091D01*
D02*
G37*
G36*
X546000Y358092D02*
X544817Y357856D01*
X543814Y357186D01*
X543144Y356183D01*
X542909Y355000D01*
X543144Y353817D01*
X543814Y352814D01*
X544817Y352144D01*
X546000Y351909D01*
X547183Y352144D01*
X548186Y352814D01*
X548856Y353817D01*
X549091Y355000D01*
X548856Y356183D01*
X548186Y357186D01*
X547183Y357856D01*
X546000Y358092D01*
D02*
G37*
G36*
X488000Y355091D02*
X486817Y354856D01*
X485814Y354186D01*
X485144Y353183D01*
X484909Y352000D01*
X485144Y350817D01*
X485814Y349814D01*
X486817Y349144D01*
X488000Y348908D01*
X489183Y349144D01*
X490186Y349814D01*
X490856Y350817D01*
X491091Y352000D01*
X490856Y353183D01*
X490186Y354186D01*
X489183Y354856D01*
X488000Y355091D01*
D02*
G37*
G36*
X531804Y358153D02*
X530621Y357918D01*
X529618Y357248D01*
X528948Y356245D01*
X528713Y355061D01*
X528948Y353879D01*
X529618Y352876D01*
X530621Y352205D01*
X531804Y351970D01*
X532250Y350764D01*
X532457Y349725D01*
X532881Y349091D01*
X532396Y348366D01*
X532021Y346483D01*
X532396Y344600D01*
X531617Y343480D01*
X531289Y343261D01*
X530618Y342258D01*
X530383Y341075D01*
X530618Y339892D01*
X531289Y338889D01*
X532291Y338219D01*
X533475Y337983D01*
X534658Y338219D01*
X535661Y338889D01*
X536331Y339892D01*
X536566Y341075D01*
X537733Y341720D01*
X538825Y341937D01*
X540421Y343004D01*
X541488Y344600D01*
X541863Y346483D01*
X541488Y348366D01*
X541064Y349000D01*
X541549Y349725D01*
X541923Y351608D01*
X541549Y353491D01*
X540482Y355087D01*
X538886Y356154D01*
X537003Y356529D01*
X535120Y356154D01*
X534139Y357026D01*
X533990Y357248D01*
X532988Y357918D01*
X531804Y358153D01*
D02*
G37*
G36*
X505000Y325091D02*
X503817Y324856D01*
X502814Y324186D01*
X502144Y323183D01*
X501908Y322000D01*
X502144Y320817D01*
X502814Y319814D01*
X503817Y319144D01*
X505000Y318909D01*
X506183Y319144D01*
X507186Y319814D01*
X507856Y320817D01*
X508091Y322000D01*
X507856Y323183D01*
X507186Y324186D01*
X506183Y324856D01*
X505000Y325091D01*
D02*
G37*
G36*
X548000Y321091D02*
X546817Y320856D01*
X545814Y320186D01*
X545144Y319183D01*
X544909Y318000D01*
X545144Y316817D01*
X545814Y315814D01*
X546817Y315144D01*
X548000Y314909D01*
X549183Y315144D01*
X550186Y315814D01*
X550856Y316817D01*
X551091Y318000D01*
X550856Y319183D01*
X550186Y320186D01*
X549183Y320856D01*
X548000Y321091D01*
D02*
G37*
G36*
X522000Y311592D02*
X520817Y311356D01*
X519814Y310686D01*
X519144Y309683D01*
X518908Y308500D01*
X519144Y307317D01*
X519814Y306314D01*
X520817Y305644D01*
X522000Y305409D01*
X523183Y305644D01*
X524186Y306314D01*
X524856Y307317D01*
X525091Y308500D01*
X524856Y309683D01*
X524186Y310686D01*
X523183Y311356D01*
X522000Y311592D01*
D02*
G37*
G36*
X506000Y310092D02*
X504817Y309856D01*
X503814Y309186D01*
X503144Y308183D01*
X502909Y307000D01*
X503144Y305817D01*
X503814Y304814D01*
X504817Y304144D01*
X506000Y303909D01*
X507183Y304144D01*
X508186Y304814D01*
X508856Y305817D01*
X509091Y307000D01*
X508856Y308183D01*
X508186Y309186D01*
X507183Y309856D01*
X506000Y310092D01*
D02*
G37*
G36*
X497000Y296092D02*
X495817Y295856D01*
X494814Y295186D01*
X494144Y294183D01*
X493908Y293000D01*
X494144Y291817D01*
X494814Y290814D01*
X495817Y290144D01*
X497000Y289909D01*
X498183Y290144D01*
X499186Y290814D01*
X499856Y291817D01*
X500091Y293000D01*
X499856Y294183D01*
X499186Y295186D01*
X498183Y295856D01*
X497000Y296092D01*
D02*
G37*
G36*
X536909Y283614D02*
X535726Y283378D01*
X534723Y282708D01*
X534053Y281705D01*
X533818Y280522D01*
X534053Y279339D01*
X534723Y278336D01*
X535726Y277666D01*
X536909Y277431D01*
X538092Y277666D01*
X539095Y278336D01*
X539765Y279339D01*
X540001Y280522D01*
X539765Y281705D01*
X539095Y282708D01*
X538092Y283378D01*
X536909Y283614D01*
D02*
G37*
G36*
X514000Y283175D02*
X512817Y282939D01*
X511814Y282269D01*
X511144Y281266D01*
X510909Y280083D01*
X511144Y278900D01*
X511814Y277897D01*
X512817Y277227D01*
X514000Y276992D01*
X515183Y277227D01*
X516186Y277897D01*
X516856Y278900D01*
X517091Y280083D01*
X516856Y281266D01*
X516186Y282269D01*
X515183Y282939D01*
X514000Y283175D01*
D02*
G37*
G36*
X489000Y274091D02*
X487817Y273856D01*
X486814Y273186D01*
X486144Y272183D01*
X485909Y271000D01*
X486144Y269817D01*
X486814Y268814D01*
X487817Y268144D01*
X489000Y267909D01*
X490183Y268144D01*
X491186Y268814D01*
X491856Y269817D01*
X492091Y271000D01*
X491856Y272183D01*
X491186Y273186D01*
X490183Y273856D01*
X489000Y274091D01*
D02*
G37*
G36*
X535509Y274819D02*
X527509D01*
X525812Y274595D01*
X524231Y273940D01*
X522873Y272898D01*
X521832Y271541D01*
X521177Y269959D01*
X520953Y268263D01*
X521177Y266566D01*
X521832Y264984D01*
X522873Y263627D01*
X524231Y262585D01*
X525812Y261930D01*
X527509Y261707D01*
X535509D01*
X537206Y261930D01*
X538787Y262585D01*
X540145Y263627D01*
X541187Y264984D01*
X541842Y266566D01*
X542065Y268263D01*
X541842Y269959D01*
X541187Y271541D01*
X540145Y272898D01*
X538787Y273940D01*
X537206Y274595D01*
X535509Y274819D01*
D02*
G37*
G36*
X487000Y263091D02*
X485817Y262856D01*
X484814Y262186D01*
X484144Y261183D01*
X483909Y260000D01*
X484144Y258817D01*
X484814Y257814D01*
X485817Y257144D01*
X487000Y256909D01*
X488183Y257144D01*
X489186Y257814D01*
X489856Y258817D01*
X490091Y260000D01*
X489856Y261183D01*
X489186Y262186D01*
X488183Y262856D01*
X487000Y263091D01*
D02*
G37*
G36*
X446396Y266147D02*
X445213Y265912D01*
X444210Y265242D01*
X443540Y264239D01*
X443304Y263056D01*
X443540Y261873D01*
X444210Y260870D01*
X445213Y260200D01*
X446396Y259964D01*
X447579Y260200D01*
X448582Y260870D01*
X448951Y261423D01*
X452268D01*
X458038Y255653D01*
X457909Y255000D01*
X458144Y253817D01*
X458814Y252814D01*
X459817Y252144D01*
X461000Y251909D01*
X462183Y252144D01*
X463186Y252814D01*
X463856Y253817D01*
X464091Y255000D01*
X463856Y256183D01*
X463186Y257186D01*
X462479Y257658D01*
X462573Y258875D01*
X462613Y258980D01*
X462885Y259034D01*
X463888Y259704D01*
X464558Y260707D01*
X464794Y261890D01*
X464558Y263073D01*
X463888Y264076D01*
X462885Y264746D01*
X461702Y264981D01*
X460519Y264746D01*
X459516Y264076D01*
X458846Y263073D01*
X458611Y261890D01*
X458709Y261395D01*
X457539Y260770D01*
X454099Y264210D01*
X452944Y264688D01*
X448951D01*
X448582Y265242D01*
X447579Y265912D01*
X446396Y266147D01*
D02*
G37*
G36*
X517999Y244091D02*
X516816Y243856D01*
X515813Y243186D01*
X515143Y242183D01*
X514908Y241000D01*
X515143Y239817D01*
X515813Y238814D01*
X516816Y238144D01*
X517999Y237909D01*
X519182Y238144D01*
X520185Y238814D01*
X520855Y239817D01*
X521091Y241000D01*
X520855Y242183D01*
X520185Y243186D01*
X519182Y243856D01*
X517999Y244091D01*
D02*
G37*
G36*
X497000Y258092D02*
X495817Y257856D01*
X494814Y257186D01*
X494144Y256183D01*
X493908Y255000D01*
X494144Y253817D01*
X494434Y253382D01*
X493454Y251915D01*
X493079Y250032D01*
X493454Y248149D01*
X493888Y247500D01*
X493454Y246851D01*
X493079Y244968D01*
X493454Y243085D01*
X494434Y241618D01*
X494144Y241183D01*
X493908Y240000D01*
X494144Y238817D01*
X494814Y237814D01*
X495817Y237144D01*
X497000Y236909D01*
X498183Y237144D01*
X499186Y237814D01*
X499856Y238817D01*
X500091Y240000D01*
X499993Y240495D01*
X501479Y241489D01*
X502546Y243085D01*
X502921Y244968D01*
X502546Y246851D01*
X502113Y247500D01*
X502546Y248149D01*
X502921Y250032D01*
X502546Y251915D01*
X501479Y253511D01*
X499993Y254505D01*
X500091Y255000D01*
X499856Y256183D01*
X499186Y257186D01*
X498183Y257856D01*
X497000Y258092D01*
D02*
G37*
G36*
X479000Y243091D02*
X477817Y242856D01*
X476814Y242186D01*
X476144Y241183D01*
X475908Y240000D01*
X476144Y238817D01*
X476814Y237814D01*
X477817Y237144D01*
X479000Y236909D01*
X480183Y237144D01*
X481186Y237814D01*
X481856Y238817D01*
X482091Y240000D01*
X481856Y241183D01*
X481186Y242186D01*
X480183Y242856D01*
X479000Y243091D01*
D02*
G37*
G36*
X69200Y242092D02*
X68017Y241856D01*
X67014Y241186D01*
X66344Y240183D01*
X66108Y239000D01*
X66344Y237817D01*
X67014Y236814D01*
X68017Y236144D01*
X69200Y235909D01*
X70383Y236144D01*
X71386Y236814D01*
X72056Y237817D01*
X72291Y239000D01*
X72056Y240183D01*
X71386Y241186D01*
X70383Y241856D01*
X69200Y242092D01*
D02*
G37*
G36*
X534631Y255982D02*
X533448Y255746D01*
X532445Y255076D01*
X531775Y254074D01*
X531540Y252890D01*
X531775Y251707D01*
X531871Y251565D01*
X531088Y251042D01*
X530021Y249446D01*
X529647Y247563D01*
X530021Y245679D01*
X530434Y245062D01*
X530021Y244445D01*
X529647Y242562D01*
X530021Y240679D01*
X531088Y239083D01*
X531698Y238676D01*
X531476Y237563D01*
X531711Y236380D01*
X532382Y235377D01*
X533384Y234706D01*
X534567Y234471D01*
X535751Y234706D01*
X536753Y235377D01*
X537424Y236380D01*
X537659Y237563D01*
X537437Y238676D01*
X538047Y239083D01*
X539113Y240679D01*
X539488Y242562D01*
X539113Y244445D01*
X538701Y245062D01*
X539113Y245679D01*
X539488Y247563D01*
X539113Y249446D01*
X538047Y251042D01*
X537353Y251506D01*
X537487Y251707D01*
X537723Y252890D01*
X537487Y254074D01*
X536817Y255076D01*
X535815Y255746D01*
X534631Y255982D01*
D02*
G37*
G36*
X100000Y238092D02*
X98817Y237856D01*
X97814Y237186D01*
X97144Y236183D01*
X96908Y235000D01*
X97144Y233817D01*
X97814Y232814D01*
X98817Y232144D01*
X100000Y231909D01*
X101183Y232144D01*
X102186Y232814D01*
X102856Y233817D01*
X103091Y235000D01*
X102856Y236183D01*
X102186Y237186D01*
X101183Y237856D01*
X100000Y238092D01*
D02*
G37*
G36*
X519807Y236585D02*
X518624Y236350D01*
X517621Y235680D01*
X516951Y234677D01*
X516715Y233494D01*
X516951Y232311D01*
X517621Y231308D01*
X518624Y230638D01*
X519807Y230402D01*
X520990Y230638D01*
X521993Y231308D01*
X522663Y232311D01*
X522898Y233494D01*
X522663Y234677D01*
X521993Y235680D01*
X520990Y236350D01*
X519807Y236585D01*
D02*
G37*
G36*
X534957Y232483D02*
X533074Y232109D01*
X531478Y231042D01*
X530757Y229964D01*
X529792Y230609D01*
X527909Y230983D01*
X526026Y230609D01*
X524430Y229542D01*
X523363Y227945D01*
X523353Y227894D01*
X522909Y227983D01*
X521026Y227608D01*
X519430Y226542D01*
X518363Y224945D01*
X518327Y224764D01*
X517892Y224543D01*
X516949Y224344D01*
X516183Y224856D01*
X515000Y225091D01*
X513817Y224856D01*
X512814Y224186D01*
X512384Y223543D01*
X510883Y224546D01*
X509000Y224921D01*
X507117Y224546D01*
X505521Y223479D01*
X504454Y221883D01*
X504079Y220000D01*
X504454Y218117D01*
X504888Y217468D01*
X504454Y216819D01*
X504079Y214936D01*
X504454Y213053D01*
X505521Y211457D01*
X507117Y210390D01*
X509000Y210015D01*
X510883Y210390D01*
X512479Y211457D01*
X513546Y213053D01*
X513920Y214936D01*
X513546Y216819D01*
X513472Y216929D01*
X513935Y218329D01*
X514998Y218909D01*
X515000Y218909D01*
X516183Y219144D01*
X517186Y219814D01*
X517467Y220235D01*
X518950Y220302D01*
X519430Y219583D01*
X521026Y218516D01*
X522909Y218142D01*
X524792Y218516D01*
X526389Y219583D01*
X527455Y221179D01*
X527466Y221230D01*
X527909Y221142D01*
X529792Y221516D01*
X531388Y222583D01*
X532109Y223661D01*
X533074Y223017D01*
X534957Y222642D01*
X536840Y223017D01*
X538436Y224083D01*
X539503Y225680D01*
X539878Y227563D01*
X539503Y229446D01*
X538436Y231042D01*
X536840Y232109D01*
X534957Y232483D01*
D02*
G37*
G36*
X488000Y228091D02*
X486817Y227856D01*
X485814Y227186D01*
X485144Y226183D01*
X484909Y225000D01*
X485144Y223817D01*
X485814Y222814D01*
X486817Y222144D01*
X488000Y221908D01*
X489183Y222144D01*
X490186Y222814D01*
X490856Y223817D01*
X491091Y225000D01*
X490856Y226183D01*
X490186Y227186D01*
X489183Y227856D01*
X488000Y228091D01*
D02*
G37*
G36*
X172000Y227092D02*
X170817Y226856D01*
X169814Y226186D01*
X169144Y225183D01*
X168908Y224000D01*
X169144Y222817D01*
X169814Y221814D01*
X170817Y221144D01*
X172000Y220909D01*
X173183Y221144D01*
X174186Y221814D01*
X174856Y222817D01*
X175091Y224000D01*
X174856Y225183D01*
X174186Y226186D01*
X173183Y226856D01*
X172000Y227092D01*
D02*
G37*
G36*
X465284Y226941D02*
X464101Y226706D01*
X463098Y226036D01*
X462428Y225033D01*
X462192Y223850D01*
X462428Y222667D01*
X463098Y221664D01*
X464101Y220994D01*
X465284Y220758D01*
X466467Y220994D01*
X467470Y221664D01*
X468140Y222667D01*
X468375Y223850D01*
X468140Y225033D01*
X467470Y226036D01*
X466467Y226706D01*
X465284Y226941D01*
D02*
G37*
G36*
X144000Y233092D02*
X142817Y232856D01*
X141814Y232186D01*
X141444Y231632D01*
X139603D01*
X138449Y231154D01*
X133234Y225939D01*
X132817Y225856D01*
X131814Y225186D01*
X131144Y224183D01*
X130909Y223000D01*
X131144Y221817D01*
X131814Y220814D01*
X132368Y220444D01*
Y218415D01*
X132846Y217261D01*
X135798Y214309D01*
X136952Y213831D01*
X145104D01*
X146258Y214309D01*
X149676Y217726D01*
X150154Y218881D01*
Y221145D01*
X151154Y222145D01*
X151632Y223299D01*
Y224756D01*
X151154Y225910D01*
X147087Y229977D01*
X147091Y230000D01*
X146856Y231183D01*
X146186Y232186D01*
X145183Y232856D01*
X144000Y233092D01*
D02*
G37*
G36*
X157000Y217091D02*
X155817Y216856D01*
X154814Y216186D01*
X154144Y215183D01*
X153909Y214000D01*
X154144Y212817D01*
X154814Y211814D01*
X155817Y211144D01*
X157000Y210908D01*
X158183Y211144D01*
X159186Y211814D01*
X159856Y212817D01*
X160091Y214000D01*
X159856Y215183D01*
X159186Y216186D01*
X158183Y216856D01*
X157000Y217091D01*
D02*
G37*
G36*
X479000Y213092D02*
X477817Y212856D01*
X476814Y212186D01*
X476144Y211183D01*
X475908Y210000D01*
X476144Y208817D01*
X476814Y207814D01*
X477817Y207144D01*
X479000Y206909D01*
X480183Y207144D01*
X481186Y207814D01*
X481856Y208817D01*
X482091Y210000D01*
X481856Y211183D01*
X481186Y212186D01*
X480183Y212856D01*
X479000Y213092D01*
D02*
G37*
G36*
X418000Y202091D02*
X416817Y201856D01*
X415814Y201186D01*
X415144Y200183D01*
X414909Y199000D01*
X415144Y197817D01*
X415814Y196814D01*
X416817Y196144D01*
X418000Y195909D01*
X419183Y196144D01*
X420186Y196814D01*
X420856Y197817D01*
X421091Y199000D01*
X420856Y200183D01*
X420186Y201186D01*
X419183Y201856D01*
X418000Y202091D01*
D02*
G37*
G36*
X516785Y212464D02*
X515602Y212229D01*
X514599Y211558D01*
X513929Y210556D01*
X513693Y209373D01*
X513929Y208190D01*
X514599Y207187D01*
X515602Y206516D01*
X516245Y206389D01*
X515989Y205102D01*
X516363Y203219D01*
X516802Y202562D01*
X516363Y201905D01*
X516176Y200964D01*
X515144Y200275D01*
X513961Y200039D01*
X512958Y199369D01*
X512288Y198366D01*
X512052Y197183D01*
X512288Y196000D01*
X512958Y194997D01*
X513961Y194327D01*
X515144Y194092D01*
X516327Y194327D01*
X517330Y194997D01*
X517369Y195056D01*
X519026Y195476D01*
X520909Y195102D01*
X522792Y195476D01*
X524389Y196543D01*
X525455Y198139D01*
X525830Y200022D01*
X525455Y201905D01*
X525016Y202562D01*
X525455Y203219D01*
X525830Y205102D01*
X525455Y206985D01*
X524389Y208582D01*
X522792Y209648D01*
X520909Y210023D01*
X519791Y209800D01*
X519641Y210556D01*
X518971Y211558D01*
X517968Y212229D01*
X516785Y212464D01*
D02*
G37*
G36*
X534631Y220676D02*
X533448Y220441D01*
X532445Y219770D01*
X531775Y218768D01*
X531540Y217584D01*
X531775Y216401D01*
X532445Y215399D01*
X531996Y214171D01*
X531711Y213745D01*
X531476Y212562D01*
X531698Y211449D01*
X531088Y211042D01*
X530021Y209446D01*
X529647Y207563D01*
X530021Y205680D01*
X530434Y205063D01*
X530021Y204445D01*
X529647Y202562D01*
X530021Y200679D01*
X531088Y199083D01*
X531857Y198569D01*
X531775Y198447D01*
X531540Y197264D01*
X531775Y196081D01*
X532445Y195079D01*
X533448Y194408D01*
X534631Y194173D01*
X535815Y194408D01*
X536817Y195079D01*
X537487Y196081D01*
X537723Y197264D01*
X537487Y198447D01*
X537366Y198629D01*
X538047Y199083D01*
X539113Y200679D01*
X539488Y202562D01*
X539113Y204445D01*
X538701Y205063D01*
X539113Y205680D01*
X539488Y207563D01*
X539113Y209446D01*
X538047Y211042D01*
X537437Y211449D01*
X537659Y212562D01*
X537424Y213745D01*
X536753Y214748D01*
X537203Y215975D01*
X537487Y216401D01*
X537723Y217584D01*
X537487Y218768D01*
X536817Y219770D01*
X535815Y220441D01*
X534631Y220676D01*
D02*
G37*
G36*
X497000Y213092D02*
X495817Y212856D01*
X494814Y212186D01*
X494144Y211183D01*
X493908Y210000D01*
X494144Y208817D01*
X494434Y208382D01*
X493454Y206915D01*
X493079Y205032D01*
X493454Y203149D01*
X493888Y202500D01*
X493454Y201851D01*
X493079Y199968D01*
X493454Y198085D01*
X494434Y196618D01*
X494144Y196183D01*
X493908Y195000D01*
X494144Y193817D01*
X494814Y192814D01*
X495817Y192144D01*
X497000Y191908D01*
X498183Y192144D01*
X499186Y192814D01*
X499856Y193817D01*
X500091Y195000D01*
X499993Y195495D01*
X501479Y196489D01*
X502546Y198085D01*
X502921Y199968D01*
X502546Y201851D01*
X502113Y202500D01*
X502546Y203149D01*
X502921Y205032D01*
X502546Y206915D01*
X501479Y208511D01*
X499993Y209505D01*
X500091Y210000D01*
X499856Y211183D01*
X499186Y212186D01*
X498183Y212856D01*
X497000Y213092D01*
D02*
G37*
G36*
X450000Y204091D02*
X448817Y203856D01*
X447814Y203186D01*
X447144Y202183D01*
X446909Y201000D01*
X447144Y199817D01*
X447374Y199473D01*
X446267Y198733D01*
X445200Y197137D01*
X444826Y195254D01*
X445200Y193371D01*
X446267Y191775D01*
X447863Y190708D01*
X448840Y190513D01*
X449035Y189536D01*
X450101Y187940D01*
X451698Y186873D01*
X453581Y186499D01*
X455464Y186873D01*
X457060Y187940D01*
X458126Y189536D01*
X459515Y190005D01*
X460000Y189909D01*
X461183Y190144D01*
X462186Y190814D01*
X462856Y191817D01*
X463091Y193000D01*
X462856Y194183D01*
X462186Y195186D01*
X461183Y195856D01*
X460000Y196091D01*
X458817Y195856D01*
X457814Y195186D01*
X456393Y195345D01*
X455464Y195965D01*
X454487Y196160D01*
X454292Y197137D01*
X453226Y198733D01*
X452469Y199238D01*
X452856Y199817D01*
X453091Y201000D01*
X452856Y202183D01*
X452186Y203186D01*
X451183Y203856D01*
X450000Y204091D01*
D02*
G37*
G36*
X481255Y186176D02*
X480072Y185941D01*
X479069Y185271D01*
X478186Y184561D01*
X477183Y185231D01*
X476000Y185466D01*
X474817Y185231D01*
X473814Y184561D01*
X473144Y183558D01*
X472909Y182375D01*
X473144Y181192D01*
X473814Y180189D01*
X474817Y179519D01*
X476000Y179284D01*
X477183Y179519D01*
X478186Y180189D01*
X479069Y180899D01*
X480072Y180229D01*
X481255Y179993D01*
X482438Y180229D01*
X483441Y180899D01*
X484111Y181902D01*
X484346Y183085D01*
X484111Y184268D01*
X483441Y185271D01*
X482438Y185941D01*
X481255Y186176D01*
D02*
G37*
G36*
X500500Y190592D02*
X499317Y190356D01*
X498314Y189686D01*
X497644Y188683D01*
X497408Y187500D01*
X497644Y186317D01*
X498314Y185314D01*
X499317Y184644D01*
X500500Y184409D01*
X501683Y184644D01*
X502686Y185314D01*
X503356Y186317D01*
X503591Y187500D01*
X503356Y188683D01*
X502686Y189686D01*
X501683Y190356D01*
X500500Y190592D01*
D02*
G37*
G36*
X535509Y188419D02*
X527509D01*
X525812Y188195D01*
X524231Y187540D01*
X522873Y186498D01*
X521832Y185140D01*
X521177Y183559D01*
X520953Y181862D01*
X521177Y180166D01*
X521832Y178584D01*
X522873Y177227D01*
X524231Y176185D01*
X525812Y175530D01*
X527509Y175306D01*
X535509D01*
X537206Y175530D01*
X538787Y176185D01*
X540145Y177227D01*
X541187Y178584D01*
X541842Y180166D01*
X542065Y181862D01*
X541842Y183559D01*
X541187Y185140D01*
X540145Y186498D01*
X538787Y187540D01*
X537206Y188195D01*
X535509Y188419D01*
D02*
G37*
G36*
X484747Y174338D02*
X483564Y174103D01*
X482561Y173433D01*
X481891Y172430D01*
X481656Y171247D01*
X481891Y170064D01*
X482561Y169061D01*
X483564Y168391D01*
X484747Y168155D01*
X485930Y168391D01*
X486933Y169061D01*
X487603Y170064D01*
X487838Y171247D01*
X487603Y172430D01*
X486933Y173433D01*
X485930Y174103D01*
X484747Y174338D01*
D02*
G37*
G36*
X456522Y169057D02*
X454639Y168682D01*
X453149Y167687D01*
X453103Y167717D01*
X451220Y168092D01*
X449337Y167717D01*
X447741Y166650D01*
X446674Y165054D01*
X446300Y163171D01*
X446591Y161705D01*
X445814Y161186D01*
X445144Y160183D01*
X444909Y159000D01*
X445144Y157817D01*
X445814Y156814D01*
X446817Y156144D01*
X448000Y155909D01*
X449183Y156144D01*
X450186Y156814D01*
X450856Y157817D01*
X450953Y158304D01*
X451220Y158250D01*
X453103Y158625D01*
X454593Y159621D01*
X454639Y159590D01*
X456522Y159216D01*
X458405Y159590D01*
X459580Y160375D01*
X460814Y160814D01*
X461817Y160144D01*
X463000Y159909D01*
X464183Y160144D01*
X465186Y160814D01*
X465856Y161817D01*
X466091Y163000D01*
X465856Y164183D01*
X465186Y165186D01*
X464183Y165856D01*
X463000Y166091D01*
X462373Y165967D01*
X461068Y166019D01*
X460001Y167616D01*
X458405Y168682D01*
X456522Y169057D01*
D02*
G37*
G36*
X520000Y173591D02*
X518817Y173356D01*
X517814Y172686D01*
X517144Y171683D01*
X516909Y170500D01*
X517144Y169317D01*
X517814Y168314D01*
X518817Y167644D01*
X520000Y167409D01*
X521183Y167644D01*
X522186Y168314D01*
X522856Y169317D01*
X523091Y170500D01*
X522856Y171683D01*
X522186Y172686D01*
X521183Y173356D01*
X520000Y173591D01*
D02*
G37*
G36*
X508000D02*
X506817Y173356D01*
X505814Y172686D01*
X505144Y171683D01*
X504909Y170500D01*
X505144Y169317D01*
X505814Y168314D01*
X506817Y167644D01*
X508000Y167409D01*
X509183Y167644D01*
X510186Y168314D01*
X510856Y169317D01*
X511091Y170500D01*
X510856Y171683D01*
X510186Y172686D01*
X509183Y173356D01*
X508000Y173591D01*
D02*
G37*
G36*
X496000D02*
X494817Y173356D01*
X493814Y172686D01*
X493144Y171683D01*
X492909Y170500D01*
X493144Y169317D01*
X493814Y168314D01*
X494817Y167644D01*
X496000Y167409D01*
X497183Y167644D01*
X498186Y168314D01*
X498856Y169317D01*
X499091Y170500D01*
X498856Y171683D01*
X498186Y172686D01*
X497183Y173356D01*
X496000Y173591D01*
D02*
G37*
G36*
X455503Y156417D02*
X453620Y156043D01*
X452024Y154976D01*
X451211Y153760D01*
X450946Y153813D01*
X449063Y153439D01*
X447467Y152372D01*
X446400Y150776D01*
X446025Y148893D01*
X446400Y147010D01*
X447467Y145413D01*
X447812Y145183D01*
X447144Y144183D01*
X446909Y143000D01*
X447144Y141817D01*
X447814Y140814D01*
X448817Y140144D01*
X450000Y139909D01*
X451183Y140144D01*
X452186Y140814D01*
X452856Y141817D01*
X453091Y143000D01*
X453072Y143100D01*
X452829Y144347D01*
X454425Y145413D01*
X455238Y146629D01*
X455503Y146576D01*
X457386Y146951D01*
X458310Y147568D01*
X458814Y146814D01*
X459817Y146144D01*
X461000Y145909D01*
X462183Y146144D01*
X463186Y146814D01*
X463856Y147817D01*
X464091Y149000D01*
X463856Y150183D01*
X463186Y151186D01*
X462183Y151856D01*
X461000Y152091D01*
X460199Y152627D01*
X460049Y153380D01*
X458983Y154976D01*
X457386Y156043D01*
X455503Y156417D01*
D02*
G37*
G36*
X514482Y150591D02*
X513299Y150356D01*
X512296Y149686D01*
X511626Y148683D01*
X511390Y147500D01*
X511626Y146317D01*
X512296Y145314D01*
X513299Y144644D01*
X514482Y144408D01*
X515665Y144644D01*
X516668Y145314D01*
X517338Y146317D01*
X517573Y147500D01*
X517338Y148683D01*
X516668Y149686D01*
X515665Y150356D01*
X514482Y150591D01*
D02*
G37*
G36*
X564500Y149092D02*
X563317Y148856D01*
X562314Y148186D01*
X561644Y147184D01*
X561408Y146000D01*
X561644Y144817D01*
X562314Y143814D01*
X563317Y143144D01*
X564500Y142909D01*
X565683Y143144D01*
X566686Y143814D01*
X567356Y144817D01*
X567591Y146000D01*
X567356Y147184D01*
X566686Y148186D01*
X565683Y148856D01*
X564500Y149092D01*
D02*
G37*
G36*
X526250Y144341D02*
X525067Y144106D01*
X524064Y143436D01*
X523394Y142433D01*
X523158Y141250D01*
X523394Y140067D01*
X524064Y139064D01*
X525067Y138394D01*
X526250Y138159D01*
X527433Y138394D01*
X528436Y139064D01*
X529106Y140067D01*
X529341Y141250D01*
X529106Y142433D01*
X528436Y143436D01*
X527433Y144106D01*
X526250Y144341D01*
D02*
G37*
G36*
X509926Y138091D02*
X508743Y137856D01*
X507740Y137186D01*
X507727Y137166D01*
X506199D01*
X506186Y137186D01*
X505183Y137856D01*
X504000Y138091D01*
X502817Y137856D01*
X501814Y137186D01*
X501144Y136183D01*
X500909Y135000D01*
X500976Y134663D01*
X500019Y133638D01*
X499981D01*
X499025Y134663D01*
X499091Y135000D01*
X498856Y136183D01*
X498186Y137186D01*
X497183Y137856D01*
X496000Y138091D01*
X494817Y137856D01*
X493814Y137186D01*
X493144Y136183D01*
X492909Y135000D01*
X492976Y134663D01*
X492020Y133638D01*
X491981D01*
X491025Y134663D01*
X491091Y135000D01*
X490856Y136183D01*
X490186Y137186D01*
X489183Y137856D01*
X488000Y138091D01*
X486817Y137856D01*
X485814Y137186D01*
X485144Y136183D01*
X484909Y135000D01*
X484976Y134663D01*
X484020Y133638D01*
X483981D01*
X483025Y134663D01*
X483092Y135000D01*
X482856Y136183D01*
X482186Y137186D01*
X481183Y137856D01*
X480000Y138091D01*
X478817Y137856D01*
X477814Y137186D01*
X477144Y136183D01*
X476909Y135000D01*
X477144Y133817D01*
X477814Y132814D01*
X478817Y132144D01*
X480000Y131909D01*
X480117Y131932D01*
X480443Y131694D01*
X481073Y130827D01*
X480909Y130000D01*
X481144Y128817D01*
X481814Y127814D01*
X482817Y127144D01*
X484000Y126909D01*
X485183Y127144D01*
X486186Y127814D01*
X486856Y128817D01*
X487091Y130000D01*
X487025Y130337D01*
X487981Y131362D01*
X488019D01*
X488976Y130337D01*
X488909Y130000D01*
X489144Y128817D01*
X489814Y127814D01*
X490817Y127144D01*
X492000Y126909D01*
X493183Y127144D01*
X494186Y127814D01*
X494856Y128817D01*
X495092Y130000D01*
X495024Y130337D01*
X495981Y131362D01*
X496020D01*
X496976Y130337D01*
X496909Y130000D01*
X497144Y128817D01*
X497814Y127814D01*
X498817Y127144D01*
X500000Y126909D01*
X501183Y127144D01*
X502186Y127814D01*
X502856Y128817D01*
X503092Y130000D01*
X502927Y130827D01*
X503557Y131694D01*
X503883Y131932D01*
X504000Y131909D01*
X505183Y132144D01*
X506186Y132814D01*
X506199Y132834D01*
X507727D01*
X507740Y132814D01*
X508743Y132144D01*
X509926Y131909D01*
X511109Y132144D01*
X512112Y132814D01*
X512782Y133817D01*
X513017Y135000D01*
X512782Y136183D01*
X512112Y137186D01*
X511109Y137856D01*
X509926Y138091D01*
D02*
G37*
G36*
X544333Y133259D02*
X543150Y133023D01*
X542147Y132353D01*
X541477Y131350D01*
X541242Y130167D01*
X541354Y129601D01*
X540713Y129034D01*
X540185Y128857D01*
X540150Y128863D01*
X539000Y129091D01*
X537817Y128856D01*
X536814Y128186D01*
X536144Y127183D01*
X535909Y126000D01*
X536144Y124817D01*
X536490Y124299D01*
X535648Y123273D01*
X533524Y124153D01*
X530000Y124616D01*
X526476Y124153D01*
X523192Y122792D01*
X520372Y120628D01*
X518208Y117808D01*
X516847Y114524D01*
X516384Y111000D01*
Y91000D01*
X516847Y87476D01*
X518208Y84192D01*
X520372Y81372D01*
X523192Y79208D01*
X523800Y78956D01*
X523547Y77686D01*
X480706D01*
X479981Y77542D01*
X479894Y77636D01*
X479628Y78872D01*
X481792Y81692D01*
X483153Y84976D01*
X483616Y88500D01*
Y113500D01*
X483153Y117024D01*
X481792Y120308D01*
X479628Y123128D01*
X476808Y125292D01*
X473524Y126652D01*
X470000Y127116D01*
X466476Y126652D01*
X463192Y125292D01*
X460372Y123128D01*
X458208Y120308D01*
X456847Y117024D01*
X456384Y113500D01*
Y88500D01*
X456847Y84976D01*
X458208Y81692D01*
X460372Y78872D01*
X463192Y76708D01*
X466476Y75347D01*
X470000Y74883D01*
X473524Y75347D01*
X476808Y76708D01*
X477461Y75668D01*
X468040Y66247D01*
X466585Y66588D01*
X466186Y67186D01*
X465183Y67856D01*
X464000Y68091D01*
X462817Y67856D01*
X461814Y67186D01*
X461144Y66183D01*
X460909Y65000D01*
X461144Y63817D01*
X461814Y62814D01*
X462412Y62415D01*
X462456Y62263D01*
X461787Y61025D01*
X457738D01*
X456951Y62295D01*
X457091Y63000D01*
X456856Y64183D01*
X456186Y65186D01*
X455183Y65856D01*
X454000Y66091D01*
X452817Y65856D01*
X451814Y65186D01*
X451144Y64183D01*
X450909Y63000D01*
X449705Y62962D01*
X429473D01*
X428822Y63091D01*
X427639Y62856D01*
X426636Y62186D01*
X425966Y61183D01*
X425731Y60000D01*
X425966Y58817D01*
X426636Y57814D01*
X427639Y57144D01*
X428477Y56977D01*
X428627Y56457D01*
X428643Y55677D01*
X427814Y55123D01*
X427144Y54120D01*
X426909Y52937D01*
X427144Y51754D01*
X427814Y50751D01*
X428817Y50081D01*
X430000Y49846D01*
X431183Y50081D01*
X432186Y50751D01*
X432856Y51754D01*
X433091Y52937D01*
X432856Y54120D01*
X432186Y55123D01*
X431220Y55768D01*
X431198Y55869D01*
X431432Y57038D01*
X448791D01*
X449861Y55969D01*
X450822Y55327D01*
X451955Y55101D01*
X458568D01*
X458802Y53932D01*
X458779Y53831D01*
X457814Y53186D01*
X457144Y52183D01*
X456909Y51000D01*
X457144Y49817D01*
X457814Y48814D01*
X458817Y48144D01*
X460000Y47909D01*
X461183Y48144D01*
X462186Y48814D01*
X462856Y49817D01*
X463091Y51000D01*
X462856Y52183D01*
X462186Y53186D01*
X461220Y53831D01*
X461198Y53932D01*
X461432Y55101D01*
X464045D01*
X465178Y55327D01*
X466139Y55969D01*
X481933Y71762D01*
X543768D01*
X544902Y71988D01*
X545863Y72630D01*
X548094Y74861D01*
X548736Y75822D01*
X548962Y76956D01*
Y126625D01*
X548736Y127759D01*
X548094Y128720D01*
X547343Y129471D01*
Y129761D01*
X547424Y130167D01*
X547189Y131350D01*
X546519Y132353D01*
X545516Y133023D01*
X544333Y133259D01*
D02*
G37*
G36*
X433118Y137767D02*
X431935Y137531D01*
X430932Y136861D01*
X430262Y135858D01*
X430027Y134675D01*
X429554Y133968D01*
X429137Y133885D01*
X427541Y132818D01*
X426474Y131222D01*
X426100Y129339D01*
X426474Y127456D01*
X427541Y125860D01*
X429137Y124793D01*
X430291Y124564D01*
X430361Y124210D01*
X431428Y122614D01*
X431544Y122536D01*
X431814Y122186D01*
X431144Y121183D01*
X430909Y120000D01*
X431144Y118817D01*
X431814Y117814D01*
X432817Y117144D01*
X434000Y116909D01*
X435183Y117144D01*
X436186Y117814D01*
X436856Y118817D01*
X437091Y120000D01*
X437032Y120300D01*
X436790Y121547D01*
X438387Y122614D01*
X439453Y124210D01*
X439828Y126093D01*
X439453Y127976D01*
X438387Y129572D01*
X436790Y130639D01*
X435636Y130869D01*
X435566Y131222D01*
X434900Y132219D01*
X435304Y132489D01*
X435974Y133492D01*
X436209Y134675D01*
X435974Y135858D01*
X435304Y136861D01*
X434301Y137531D01*
X433118Y137767D01*
D02*
G37*
G36*
X557500Y132092D02*
X556317Y131857D01*
X555314Y131187D01*
X554644Y130183D01*
X554409Y129001D01*
X554644Y127817D01*
X554899Y127436D01*
X555210Y126501D01*
X554899Y125565D01*
X554644Y125183D01*
X554409Y124001D01*
X554644Y122817D01*
X554899Y122436D01*
X555210Y121501D01*
X554899Y120565D01*
X554644Y120183D01*
X554409Y119001D01*
X554644Y117817D01*
X555314Y116814D01*
X556317Y116144D01*
X557500Y115909D01*
X558683Y116144D01*
X559686Y116814D01*
X560356Y117817D01*
X560591Y119001D01*
X560356Y120183D01*
X560101Y120565D01*
X559790Y121501D01*
X560101Y122436D01*
X560356Y122817D01*
X560591Y124001D01*
X560356Y125183D01*
X560101Y125565D01*
X559790Y126501D01*
X560101Y127436D01*
X560356Y127817D01*
X560591Y129001D01*
X560356Y130183D01*
X559686Y131187D01*
X558683Y131857D01*
X557500Y132092D01*
D02*
G37*
G36*
X445000Y121091D02*
X443817Y120856D01*
X442814Y120186D01*
X442144Y119183D01*
X441909Y118000D01*
X442144Y116817D01*
X442814Y115814D01*
X443817Y115144D01*
X445000Y114909D01*
X446183Y115144D01*
X447186Y115814D01*
X447856Y116817D01*
X448091Y118000D01*
X447856Y119183D01*
X447186Y120186D01*
X446183Y120856D01*
X445000Y121091D01*
D02*
G37*
G36*
X511329Y112226D02*
X510146Y111991D01*
X509143Y111320D01*
X508473Y110318D01*
X508238Y109135D01*
X508473Y107951D01*
X509143Y106949D01*
X510146Y106278D01*
X511329Y106043D01*
X512512Y106278D01*
X513515Y106949D01*
X514185Y107951D01*
X514421Y109135D01*
X514185Y110318D01*
X513515Y111320D01*
X512512Y111991D01*
X511329Y112226D01*
D02*
G37*
G36*
X255500Y109758D02*
X254317Y109523D01*
X253314Y108853D01*
X252644Y107850D01*
X252409Y106667D01*
X252644Y105484D01*
X253314Y104481D01*
X254317Y103811D01*
X255500Y103576D01*
X256683Y103811D01*
X257686Y104481D01*
X258356Y105484D01*
X258592Y106667D01*
X258356Y107850D01*
X257686Y108853D01*
X256683Y109523D01*
X255500Y109758D01*
D02*
G37*
G36*
X511280Y95920D02*
X510097Y95684D01*
X509094Y95014D01*
X508424Y94011D01*
X508189Y92829D01*
X508424Y91645D01*
X509094Y90642D01*
X510097Y89972D01*
X511280Y89737D01*
X512463Y89972D01*
X513466Y90642D01*
X514136Y91645D01*
X514372Y92829D01*
X514136Y94011D01*
X513466Y95014D01*
X512463Y95684D01*
X511280Y95920D01*
D02*
G37*
G36*
X275260Y95041D02*
X274077Y94806D01*
X273074Y94136D01*
X272404Y93133D01*
X272169Y91950D01*
X272404Y90767D01*
X273074Y89764D01*
X274077Y89094D01*
X275260Y88859D01*
X276443Y89094D01*
X277446Y89764D01*
X278116Y90767D01*
X278352Y91950D01*
X278116Y93133D01*
X277446Y94136D01*
X276443Y94806D01*
X275260Y95041D01*
D02*
G37*
G36*
X272451Y80265D02*
X271268Y80030D01*
X270265Y79360D01*
X269595Y78357D01*
X269360Y77174D01*
X269595Y75991D01*
X270265Y74988D01*
X271268Y74318D01*
X272451Y74082D01*
X273634Y74318D01*
X274637Y74988D01*
X275307Y75991D01*
X275542Y77174D01*
X275307Y78357D01*
X274637Y79360D01*
X273634Y80030D01*
X272451Y80265D01*
D02*
G37*
G36*
X459000Y76091D02*
X457817Y75856D01*
X456814Y75186D01*
X456144Y74183D01*
X455909Y73000D01*
X456144Y71817D01*
X456814Y70814D01*
X457817Y70144D01*
X459000Y69909D01*
X460183Y70144D01*
X461186Y70814D01*
X461856Y71817D01*
X462091Y73000D01*
X461856Y74183D01*
X461186Y75186D01*
X460183Y75856D01*
X459000Y76091D01*
D02*
G37*
G36*
X414902Y65028D02*
X413719Y64793D01*
X412716Y64123D01*
X412046Y63120D01*
X411810Y61937D01*
X412046Y60754D01*
X412716Y59751D01*
X413719Y59081D01*
X414902Y58846D01*
X416085Y59081D01*
X417088Y59751D01*
X417758Y60754D01*
X417993Y61937D01*
X417758Y63120D01*
X417088Y64123D01*
X416085Y64793D01*
X414902Y65028D01*
D02*
G37*
G36*
X509750Y66367D02*
X489750D01*
X486226Y65903D01*
X482942Y64542D01*
X480122Y62378D01*
X477958Y59558D01*
X476598Y56274D01*
X476133Y52750D01*
X476598Y49226D01*
X477958Y45942D01*
X480122Y43122D01*
X482942Y40958D01*
X486226Y39597D01*
X489750Y39134D01*
X509750D01*
X513274Y39597D01*
X516558Y40958D01*
X519378Y43122D01*
X521542Y45942D01*
X522902Y49226D01*
X523367Y52750D01*
X522902Y56274D01*
X521542Y59558D01*
X519378Y62378D01*
X516558Y64542D01*
X513274Y65903D01*
X509750Y66367D01*
D02*
G37*
G36*
X429000Y44404D02*
X427817Y44169D01*
X426814Y43499D01*
X426144Y42496D01*
X425909Y41313D01*
X426144Y40130D01*
X426814Y39127D01*
X427817Y38457D01*
X429000Y38222D01*
X430183Y38457D01*
X431186Y39127D01*
X431856Y40130D01*
X432091Y41313D01*
X431856Y42496D01*
X431186Y43499D01*
X430183Y44169D01*
X429000Y44404D01*
D02*
G37*
G36*
X466000Y37091D02*
X464817Y36856D01*
X463814Y36186D01*
X463144Y35183D01*
X462909Y34000D01*
X463144Y32817D01*
X463814Y31814D01*
X464817Y31144D01*
X466000Y30909D01*
X467183Y31144D01*
X468186Y31814D01*
X468856Y32817D01*
X469091Y34000D01*
X468856Y35183D01*
X468186Y36186D01*
X467183Y36856D01*
X466000Y37091D01*
D02*
G37*
G36*
X436000D02*
X434817Y36856D01*
X433814Y36186D01*
X433144Y35183D01*
X432909Y34000D01*
X433144Y32817D01*
X433814Y31814D01*
X434817Y31144D01*
X436000Y30909D01*
X437183Y31144D01*
X438186Y31814D01*
X438856Y32817D01*
X439091Y34000D01*
X438856Y35183D01*
X438186Y36186D01*
X437183Y36856D01*
X436000Y37091D01*
D02*
G37*
G36*
X406000Y36091D02*
X404817Y35856D01*
X403814Y35186D01*
X403144Y34183D01*
X402909Y33000D01*
X403144Y31817D01*
X403814Y30814D01*
X404817Y30144D01*
X406000Y29909D01*
X407183Y30144D01*
X408186Y30814D01*
X408856Y31817D01*
X409091Y33000D01*
X408856Y34183D01*
X408186Y35186D01*
X407183Y35856D01*
X406000Y36091D01*
D02*
G37*
%LPD*%
G36*
X536923Y273541D02*
X538241Y272995D01*
X539373Y272126D01*
X540242Y270995D01*
X540787Y269677D01*
X540974Y268263D01*
X540787Y266848D01*
X540242Y265530D01*
X539373Y264399D01*
X538241Y263530D01*
X536923Y262984D01*
X535438Y262789D01*
X527580D01*
X526095Y262984D01*
X524777Y263530D01*
X523645Y264399D01*
X522777Y265530D01*
X522231Y266848D01*
X522045Y268263D01*
X522231Y269677D01*
X522777Y270995D01*
X523645Y272126D01*
X524777Y272995D01*
X526095Y273541D01*
X527580Y273736D01*
X535438D01*
X536923Y273541D01*
D02*
G37*
G36*
Y187141D02*
X538241Y186595D01*
X539373Y185726D01*
X540242Y184595D01*
X540787Y183277D01*
X540974Y181862D01*
X540787Y180448D01*
X540242Y179130D01*
X539373Y177999D01*
X538241Y177130D01*
X536923Y176584D01*
X535438Y176389D01*
X527580D01*
X526095Y176584D01*
X524777Y177130D01*
X523645Y177999D01*
X522777Y179130D01*
X522231Y180448D01*
X522045Y181862D01*
X522231Y183277D01*
X522777Y184595D01*
X523645Y185726D01*
X524777Y186595D01*
X526095Y187141D01*
X527580Y187336D01*
X535438D01*
X536923Y187141D01*
D02*
G37*
G36*
X543038Y123789D02*
Y78183D01*
X542541Y77686D01*
X525652D01*
X524846Y78668D01*
X524861Y78745D01*
X524800Y79054D01*
Y79370D01*
X524721Y79449D01*
X524700Y79557D01*
X524437Y79733D01*
X524214Y79956D01*
X523738Y80153D01*
X521144Y82144D01*
X519153Y84738D01*
X517902Y87758D01*
X517466Y91071D01*
Y110929D01*
X517902Y114242D01*
X519153Y117262D01*
X521144Y119856D01*
X523738Y121847D01*
X526758Y123098D01*
X530000Y123525D01*
X533242Y123098D01*
X535234Y122273D01*
X535500D01*
X535754Y122196D01*
X535899Y122273D01*
X536063D01*
X536251Y122461D01*
X536485Y122586D01*
X537252Y123521D01*
X537817Y123144D01*
X539000Y122909D01*
X540183Y123144D01*
X541186Y123814D01*
X542812Y123961D01*
X543038Y123789D01*
D02*
G37*
G36*
X512992Y64848D02*
X516012Y63597D01*
X518606Y61606D01*
X520597Y59012D01*
X521848Y55992D01*
X522275Y52750D01*
X521848Y49508D01*
X520597Y46488D01*
X518606Y43894D01*
X516012Y41903D01*
X512992Y40652D01*
X509679Y40216D01*
X489821D01*
X486508Y40652D01*
X483488Y41903D01*
X480894Y43894D01*
X478903Y46488D01*
X477652Y49508D01*
X477225Y52750D01*
X477652Y55992D01*
X478903Y59012D01*
X480894Y61606D01*
X483488Y63597D01*
X486508Y64848D01*
X489821Y65284D01*
X509679D01*
X512992Y64848D01*
D02*
G37*
%LPC*%
G36*
X404000Y316091D02*
X402817Y315856D01*
X401814Y315186D01*
X401144Y314183D01*
X400908Y313000D01*
X401144Y311817D01*
X401814Y310814D01*
X402817Y310144D01*
X404000Y309909D01*
X405183Y310144D01*
X406186Y310814D01*
X406856Y311817D01*
X407091Y313000D01*
X406856Y314183D01*
X406186Y315186D01*
X405183Y315856D01*
X404000Y316091D01*
D02*
G37*
G36*
X170000Y254092D02*
X168817Y253856D01*
X167814Y253186D01*
X167144Y252183D01*
X166909Y251000D01*
X167144Y249817D01*
X167814Y248814D01*
X168817Y248144D01*
X170000Y247909D01*
X171183Y248144D01*
X172186Y248814D01*
X172856Y249817D01*
X173092Y251000D01*
X172856Y252183D01*
X172186Y253186D01*
X171183Y253856D01*
X170000Y254092D01*
D02*
G37*
G36*
X137064Y181920D02*
X135181Y181546D01*
X134532Y181112D01*
X133883Y181546D01*
X132000Y181920D01*
X130117Y181546D01*
X128520Y180479D01*
X127454Y178883D01*
X127079Y177000D01*
X127454Y175117D01*
X128520Y173521D01*
X130117Y172454D01*
X132000Y172079D01*
X133883Y172454D01*
X134532Y172888D01*
X135181Y172454D01*
X137064Y172079D01*
X138947Y172454D01*
X140543Y173521D01*
X141610Y175117D01*
X141985Y177000D01*
X141610Y178883D01*
X140543Y180479D01*
X138947Y181546D01*
X137064Y181920D01*
D02*
G37*
G36*
X107484Y172346D02*
X105601Y171972D01*
X104004Y170905D01*
X102938Y169309D01*
X102563Y167426D01*
X102938Y165543D01*
X104004Y163946D01*
X105601Y162880D01*
X107484Y162505D01*
X109367Y162880D01*
X110239Y163463D01*
X111163Y162845D01*
X113046Y162470D01*
X114929Y162845D01*
X116526Y163911D01*
X117592Y165508D01*
X117967Y167391D01*
X117592Y169274D01*
X116526Y170870D01*
X114929Y171937D01*
X113046Y172311D01*
X111163Y171937D01*
X110291Y171354D01*
X109367Y171972D01*
X107484Y172346D01*
D02*
G37*
G36*
X207000Y127091D02*
X205817Y126856D01*
X204814Y126186D01*
X204144Y125183D01*
X203909Y124000D01*
X204144Y122817D01*
X204814Y121814D01*
X205817Y121144D01*
X207000Y120909D01*
X208183Y121144D01*
X209186Y121814D01*
X209856Y122817D01*
X210091Y124000D01*
X209856Y125183D01*
X209186Y126186D01*
X208183Y126856D01*
X207000Y127091D01*
D02*
G37*
G36*
X235000Y47091D02*
X233817Y46856D01*
X232814Y46186D01*
X232144Y45183D01*
X231909Y44000D01*
X232144Y42817D01*
X232814Y41814D01*
X233817Y41144D01*
X235000Y40909D01*
X236183Y41144D01*
X236297Y41220D01*
X237644Y40958D01*
X238314Y39955D01*
X239317Y39285D01*
X240500Y39050D01*
X241683Y39285D01*
X242686Y39955D01*
X243356Y40958D01*
X243591Y42141D01*
X243356Y43324D01*
X242686Y44327D01*
X241683Y44997D01*
X240500Y45232D01*
X239317Y44997D01*
X239203Y44921D01*
X237856Y45183D01*
X237186Y46186D01*
X236183Y46856D01*
X235000Y47091D01*
D02*
G37*
G36*
X136821Y64201D02*
X135638Y63966D01*
X134635Y63296D01*
X133965Y62293D01*
X133730Y61110D01*
X133965Y59927D01*
X134635Y58924D01*
X135638Y58254D01*
X136821Y58019D01*
X138005Y58254D01*
X139007Y58924D01*
X139677Y59927D01*
X139913Y61110D01*
X139677Y62293D01*
X139007Y63296D01*
X138005Y63966D01*
X136821Y64201D01*
D02*
G37*
G36*
X156411Y56091D02*
X155228Y55856D01*
X154225Y55186D01*
X153555Y54183D01*
X153320Y53000D01*
X153555Y51817D01*
X154225Y50814D01*
X155228Y50144D01*
X156411Y49909D01*
X157594Y50144D01*
X158597Y50814D01*
X159267Y51817D01*
X159503Y53000D01*
X159267Y54183D01*
X158597Y55186D01*
X157594Y55856D01*
X156411Y56091D01*
D02*
G37*
G36*
X183631Y50980D02*
X182448Y50745D01*
X181445Y50075D01*
X180775Y49072D01*
X180540Y47889D01*
X180775Y46706D01*
X181445Y45703D01*
X182448Y45033D01*
X183631Y44798D01*
X184814Y45033D01*
X185817Y45703D01*
X186487Y46706D01*
X186723Y47889D01*
X186487Y49072D01*
X185817Y50075D01*
X184814Y50745D01*
X183631Y50980D01*
D02*
G37*
G36*
X174520Y48891D02*
X173337Y48655D01*
X172334Y47985D01*
X171664Y46982D01*
X171429Y45799D01*
X171664Y44616D01*
X172334Y43613D01*
X173337Y42943D01*
X174520Y42708D01*
X175703Y42943D01*
X176706Y43613D01*
X177376Y44616D01*
X177612Y45799D01*
X177376Y46982D01*
X176706Y47985D01*
X175703Y48655D01*
X174520Y48891D01*
D02*
G37*
%LPD*%
D10*
X455702Y270004D02*
X476004D01*
X490000Y284000D01*
X474530Y131415D02*
X487945Y118000D01*
X461223Y131415D02*
X474530D01*
X452000Y122191D02*
X458059Y128250D01*
X447194Y278511D02*
X455702Y270004D01*
X407000Y278511D02*
X447194D01*
X447386Y111496D02*
X450945Y115055D01*
X487945Y118000D02*
X501500D01*
X521000Y32000D02*
X557000Y68000D01*
X458000Y40000D02*
X472000D01*
X480000Y32000D01*
X521000D01*
X557000Y68000D02*
Y109274D01*
X571863Y124137D01*
X423000Y47000D02*
X451000D01*
X430632Y68029D02*
X447386Y84783D01*
Y111496D01*
X401000Y63000D02*
X409881D01*
X414618Y67737D01*
X429263D01*
X399000Y38000D02*
X414000D01*
X389000Y28000D02*
X399000Y38000D01*
X385000Y32177D02*
Y54000D01*
Y32177D02*
X389000Y28177D01*
Y28000D02*
Y28177D01*
X451000Y47000D02*
X458000Y40000D01*
X414000Y38000D02*
X423000Y47000D01*
X414000Y38000D02*
X417000Y35000D01*
X385000Y54000D02*
X394000Y63000D01*
X401000D01*
D13*
X225806Y103194D02*
X231000Y98000D01*
Y89000D02*
Y98000D01*
X225806Y103194D02*
Y125194D01*
X231000Y89000D02*
X254474Y65526D01*
X254597D01*
X303123Y17000D01*
X207264Y143736D02*
X225806Y125194D01*
X303123Y17000D02*
X371000D01*
X205266Y157734D02*
X207264Y155736D01*
Y143736D02*
Y155736D01*
X158601Y204884D02*
X168148Y195337D01*
Y180127D02*
X184953Y163322D01*
X168148Y180127D02*
Y195337D01*
X187706Y163322D02*
X193294Y157734D01*
X205266D01*
X184953Y163322D02*
X187706D01*
X105773Y214952D02*
X110168D01*
X120236Y204884D02*
X158601D01*
X110168Y214952D02*
X120236Y204884D01*
X89123Y219048D02*
X101677D01*
X85027Y214952D02*
X89123Y219048D01*
X101677D02*
X105773Y214952D01*
X519844Y23618D02*
Y23692D01*
X519538Y23312D02*
X519844Y23618D01*
X519538Y18538D02*
Y23312D01*
X516302Y15302D02*
X519538Y18538D01*
X466323Y15302D02*
X516302D01*
X462626Y19000D02*
X466323Y15302D01*
X457000Y19000D02*
X462626D01*
X450952Y25048D02*
X457000Y19000D01*
X408973Y25048D02*
X450952D01*
X404909Y20984D02*
X408973Y25048D01*
X386094Y20984D02*
X404909D01*
X386078Y21000D02*
X386094Y20984D01*
X381000Y21000D02*
X386078D01*
X380952Y21048D02*
X381000Y21000D01*
X375048Y21048D02*
X380952D01*
X371000Y17000D02*
X375048Y21048D01*
X73373Y214952D02*
X85027D01*
X71133Y217192D02*
X73373Y214952D01*
X70100Y217192D02*
X71133D01*
X182000Y238000D02*
Y248768D01*
X182679Y249447D01*
X178000Y263000D02*
X182679Y258321D01*
Y249447D02*
Y258321D01*
D110*
X146064Y420436D02*
X147572D01*
X150087Y421442D02*
X148578D01*
X150733Y419287D02*
Y420795D01*
X159354Y410666D02*
Y412174D01*
X158708Y412821D02*
X157199D01*
X160504Y405996D02*
X158995D01*
X154397Y417131D02*
X152889D01*
X155044Y414976D02*
Y416485D01*
X83850Y127976D02*
X84917Y129043D01*
X82097Y127976D02*
X81030Y126909D01*
Y125995D02*
X82097Y124928D01*
X84917Y123861D02*
X83850Y124928D01*
Y121880D02*
X84917Y122947D01*
X80108Y121880D02*
X79041Y120813D01*
Y119899D02*
X80108Y118832D01*
X84917Y117765D02*
X83850Y118832D01*
Y115784D02*
X84917Y116851D01*
X80108Y115784D02*
X79041Y114717D01*
Y113803D02*
X80108Y112736D01*
X84917Y111669D02*
X83850Y112736D01*
Y109688D02*
X84917Y110755D01*
X80108Y109688D02*
X79041Y108621D01*
Y107707D02*
X80108Y106640D01*
X84917Y105573D02*
X83850Y106640D01*
Y103592D02*
X84917Y104659D01*
X80108Y103592D02*
X79041Y102525D01*
Y101611D02*
X80108Y100544D01*
X84917Y99477D02*
X83850Y100544D01*
X89485Y70223D02*
X90552Y69156D01*
X91619Y68089D02*
X90552Y69156D01*
Y66108D02*
X91619Y67175D01*
X86401Y66108D02*
X85334Y65041D01*
Y64127D02*
X86401Y63060D01*
X89485Y61993D02*
X88418Y63060D01*
X77025Y167045D02*
X75958Y168112D01*
X74211Y169179D02*
X75277Y168112D01*
Y171160D02*
X74211Y170093D01*
X76496Y171160D02*
X77563Y172227D01*
Y173141D02*
X76496Y174208D01*
X72453Y175275D02*
X73520Y174208D01*
Y177256D02*
X72453Y176189D01*
X75958Y177256D02*
X77025Y178323D01*
X92933Y119118D02*
X94000Y120185D01*
X92933Y119118D02*
X91866Y118051D01*
Y117137D02*
X92933Y116070D01*
X95067Y115003D02*
X94000Y116070D01*
Y113022D02*
X95067Y114089D01*
X93745Y113022D02*
X92678Y111955D01*
Y111041D02*
X93745Y109974D01*
X95524Y108907D02*
X94457Y109974D01*
Y106926D02*
X95524Y107993D01*
X92568Y106926D02*
X91501Y105859D01*
Y104945D02*
X92568Y103878D01*
X95524Y102811D02*
X94457Y103878D01*
Y100830D02*
X95524Y101897D01*
X92568Y100830D02*
X91501Y99763D01*
Y98849D02*
X92568Y97782D01*
X94000Y96715D02*
X92933Y97782D01*
X89485Y158284D02*
X90552Y157217D01*
X91984Y156150D02*
X90917Y157217D01*
Y154169D02*
X91984Y155236D01*
X90485Y154169D02*
X89418Y153102D01*
Y152188D02*
X90485Y151121D01*
X91984Y150054D02*
X90917Y151121D01*
Y148073D02*
X91984Y149140D01*
X90394Y148073D02*
X89327Y147006D01*
Y146092D02*
X90394Y145025D01*
X91984Y143958D02*
X90917Y145025D01*
Y141977D02*
X91984Y143044D01*
X85059Y141977D02*
X83992Y140910D01*
Y139996D02*
X85059Y138929D01*
X91984Y137862D02*
X90917Y138929D01*
Y135881D02*
X91984Y136948D01*
X89649Y135881D02*
X88582Y134814D01*
Y133900D02*
X89649Y132833D01*
X91984Y131766D02*
X90917Y132833D01*
Y129785D02*
X91984Y130852D01*
X90552Y129785D02*
X89485Y128718D01*
X71800Y127959D02*
X72867Y129026D01*
X71547Y127959D02*
X70480Y126892D01*
Y125978D02*
X71547Y124911D01*
X75009Y123844D02*
X73942Y124911D01*
Y121863D02*
X75009Y122930D01*
X68400Y121863D02*
X67333Y120796D01*
Y119882D02*
X68400Y118815D01*
X75009Y117748D02*
X73942Y118815D01*
Y115767D02*
X75009Y116834D01*
X68400Y115767D02*
X67333Y114700D01*
Y113786D02*
X68400Y112719D01*
X75009Y111652D02*
X73942Y112719D01*
Y109671D02*
X75009Y110738D01*
X68400Y109671D02*
X67333Y108604D01*
Y107690D02*
X68400Y106623D01*
X72867Y105556D02*
X71800Y106623D01*
X81976Y176681D02*
X83043Y175614D01*
X85008Y174548D02*
X83941Y175614D01*
Y172567D02*
X85008Y173633D01*
X82662Y172567D02*
X81595Y171500D01*
Y170585D02*
X82662Y169519D01*
X87469Y168452D02*
X86402Y169519D01*
Y166471D02*
X87469Y167537D01*
X82662Y166471D02*
X81595Y165404D01*
Y164489D02*
X82662Y163423D01*
X87469Y162356D02*
X86402Y163423D01*
Y160375D02*
X87469Y161441D01*
X82662Y160375D02*
X81595Y159308D01*
Y158393D02*
X82662Y157326D01*
X87469Y156260D02*
X86402Y157326D01*
Y154278D02*
X87469Y155345D01*
X82662Y154278D02*
X81595Y153212D01*
Y152297D02*
X82662Y151230D01*
X87469Y150164D02*
X86402Y151230D01*
Y148182D02*
X87469Y149249D01*
X83043Y148182D02*
X81976Y147116D01*
X94000Y191685D02*
X95067Y190618D01*
X102444Y189552D02*
X101377Y190618D01*
Y187570D02*
X102444Y188637D01*
X92542Y187570D02*
X91476Y186504D01*
Y185589D02*
X92542Y184522D01*
X102444Y183456D02*
X101377Y184522D01*
Y181474D02*
X102444Y182541D01*
X92568Y181474D02*
X91501Y180408D01*
Y179493D02*
X92568Y178426D01*
X98521Y177360D02*
X97454Y178426D01*
Y175378D02*
X98521Y176445D01*
X92568Y175378D02*
X91501Y174312D01*
Y173397D02*
X92568Y172330D01*
X94000Y171264D02*
X92933Y172330D01*
X63271Y39872D02*
X73612D01*
X58994Y47000D02*
X74000D01*
X72867Y92064D02*
X73485Y91445D01*
X450596Y365760D02*
X455994Y371158D01*
Y376000D02*
X467340Y387346D01*
X455994Y371158D02*
Y376000D01*
X362712Y365760D02*
X450596D01*
X330209Y358100D02*
X355052D01*
X362712Y365760D01*
X467340Y387346D02*
X476151D01*
X334518Y107442D02*
Y237744D01*
X298396Y201476D02*
X315960Y183912D01*
Y108459D02*
X319686Y104733D01*
X315960Y108459D02*
Y183912D01*
X308580Y103033D02*
Y130146D01*
X312420Y122419D02*
Y181038D01*
X308580Y103033D02*
X314000Y97613D01*
X292686Y194740D02*
Y244283D01*
X304333Y138601D02*
Y183093D01*
X292686Y194740D02*
X304333Y183093D01*
X290416Y193506D02*
Y236583D01*
Y193506D02*
X300951Y182971D01*
Y133207D02*
Y182971D01*
X298396Y201476D02*
Y246915D01*
X300412Y205302D02*
Y246080D01*
X319374Y107896D02*
Y186340D01*
X300412Y205302D02*
X319374Y186340D01*
X302428Y210398D02*
Y245245D01*
X321390Y108731D02*
Y191436D01*
X302428Y210398D02*
X321390Y191436D01*
X304444Y215240D02*
Y244410D01*
X323406Y112852D02*
Y196278D01*
X304444Y215240D02*
X323406Y196278D01*
X306460Y219574D02*
Y243575D01*
X325422Y113687D02*
Y200612D01*
X306460Y219574D02*
X325422Y200612D01*
X306460Y243575D02*
X306560Y243675D01*
X334972Y84890D02*
Y104137D01*
X350387Y128098D02*
Y184110D01*
X357500Y231231D02*
Y231897D01*
X349000Y185497D02*
X350387Y184110D01*
X357500Y231231D02*
X358850Y229881D01*
Y101074D02*
Y229881D01*
X349000Y185497D02*
Y242091D01*
X346847Y110254D02*
Y229188D01*
Y110254D02*
X347287Y109813D01*
X343916Y232119D02*
X346847Y229188D01*
X352540Y232093D02*
X354255Y230378D01*
Y122210D02*
X354838Y121626D01*
X352540Y232093D02*
Y232918D01*
X355796Y98020D02*
X358850Y101074D01*
X355796Y97196D02*
Y98020D01*
X354255Y122210D02*
Y230378D01*
X340376Y180641D02*
X341000Y180017D01*
X340376Y237834D02*
X341666Y239124D01*
X340376Y180641D02*
Y237834D01*
X338126Y243127D02*
X340999Y246000D01*
X337460Y236188D02*
X338126Y236854D01*
X337460Y120534D02*
X339233Y118761D01*
X334518Y107442D02*
X343408Y98552D01*
X334264Y237998D02*
X334518Y237744D01*
X332502Y129534D02*
Y186872D01*
X328708Y131254D02*
X328962Y131000D01*
X326539Y229540D02*
Y257546D01*
X322999Y237000D02*
Y256857D01*
X341540Y275397D01*
X323000Y226000D02*
X326539Y229540D01*
Y257546D02*
X343556Y274562D01*
X328708Y254708D02*
X332000Y258000D01*
X330724Y246813D02*
X337117Y253205D01*
X341000Y122000D02*
Y180017D01*
X341666Y239124D02*
Y239949D01*
X325422Y113687D02*
X334972Y104137D01*
X330724Y188650D02*
X332502Y186872D01*
X329837Y83516D02*
Y106420D01*
X338126Y236854D02*
Y243127D01*
X337460Y120534D02*
Y236188D01*
X330978Y115000D02*
Y128010D01*
X328708Y131254D02*
Y254708D01*
X330978Y128010D02*
X332502Y129534D01*
X294816Y304184D02*
X304544Y294456D01*
X330724Y188650D02*
Y246813D01*
X339233Y108219D02*
Y118761D01*
X331797Y67564D02*
Y76550D01*
X302528Y245345D02*
Y284472D01*
X421696Y8382D02*
X428997Y15683D01*
X401388Y8382D02*
X421696D01*
X396534Y6460D02*
X399466D01*
X394612Y8382D02*
X396534Y6460D01*
X399466D02*
X401388Y8382D01*
X230445Y6333D02*
X230515D01*
X232564Y8382D01*
X394612D01*
X311062Y12301D02*
X311903Y11460D01*
X394453D01*
X397804Y14810D01*
X412811D01*
X418000Y20000D01*
X85318Y256682D02*
X93080Y248920D01*
X110490D02*
X128570Y267000D01*
X93080Y248920D02*
X110490D01*
X128570Y267000D02*
X227879D01*
X96460Y269540D02*
X103000Y263000D01*
X96460Y269540D02*
Y324466D01*
X90857Y268113D02*
Y375761D01*
X94857Y264112D02*
Y264112D01*
X90857Y268113D02*
X94857Y264112D01*
Y264112D02*
X102970Y256000D01*
X79248Y396099D02*
X87000Y403851D01*
X77819Y251250D02*
Y256709D01*
X77639Y251070D02*
X77819Y251250D01*
X79248Y258138D02*
Y396099D01*
X77819Y256709D02*
X79248Y258138D01*
X81264Y395264D02*
X91945Y405945D01*
X81264Y255337D02*
X81359Y255242D01*
X81264Y255337D02*
Y395264D01*
X60625Y259229D02*
X60960Y259564D01*
Y318774D02*
X75167Y332981D01*
X60960Y259564D02*
Y318774D01*
X54000Y199006D02*
X60625Y205631D01*
Y259229D01*
X50500Y249314D02*
X52460Y251274D01*
Y276467D01*
X53556Y118352D02*
Y185712D01*
X34105Y205163D02*
X53556Y185712D01*
X34105Y205163D02*
Y240396D01*
X41656Y201676D02*
Y226859D01*
X38715Y229800D02*
X41656Y226859D01*
Y201676D02*
X57516Y185816D01*
Y61019D02*
Y185816D01*
X51540Y120882D02*
Y182648D01*
X32089Y202099D02*
Y241231D01*
Y202099D02*
X51540Y182648D01*
X46579Y201226D02*
X60327Y187478D01*
Y69030D02*
Y187478D01*
X34460Y97284D02*
Y103802D01*
X51540Y120882D01*
X45040Y67056D02*
Y84705D01*
X37960Y91784D02*
X45040Y84705D01*
X66540Y5460D02*
X219460D01*
X4318Y67682D02*
X66540Y5460D01*
X8386Y70592D02*
X68518Y10460D01*
X205460D01*
X569274Y175432D02*
Y345438D01*
Y175432D02*
X592048Y152658D01*
Y80873D02*
Y152658D01*
X590032Y85032D02*
Y151823D01*
X567258Y174597D02*
X590032Y151823D01*
X567258Y174597D02*
Y344602D01*
X452944Y263056D02*
X461000Y255000D01*
X446396Y263056D02*
X452944D01*
X84917Y78612D02*
Y98969D01*
X86933Y73933D02*
Y131674D01*
X80000Y67000D02*
X86933Y73933D01*
X81976Y136631D02*
X86933Y131674D01*
X81055Y74750D02*
X84917Y78612D01*
X570863Y115863D02*
X572532Y117531D01*
X82700Y227000D02*
X86700D01*
X86700Y227000D01*
X332365Y271924D02*
Y301917D01*
X299382Y334900D02*
X332365Y301917D01*
X150015Y414258D02*
X152889Y417131D01*
X151966Y409947D02*
X154326D01*
X341540Y289890D02*
X341540Y289890D01*
X146901Y415012D02*
Y415454D01*
X155522Y406833D02*
X155834Y407145D01*
X151211Y410701D02*
X151966Y409947D01*
X146901Y415012D02*
X147655Y414258D01*
X155522Y406391D02*
X156276Y405637D01*
X151211Y411143D02*
X151524Y411456D01*
X341540Y275397D02*
Y289890D01*
X155522Y406391D02*
Y406833D01*
X146901Y415454D02*
X147213Y415766D01*
X158636Y405637D02*
X158995Y405996D01*
X154326Y409947D02*
X157199Y412821D01*
X147655Y414258D02*
X150015D01*
X334381Y271089D02*
Y315399D01*
X156276Y405637D02*
X158636D01*
X341540Y289890D02*
Y311092D01*
X151211Y410701D02*
Y411143D01*
X155044Y416485D02*
X155044Y416485D01*
X159354Y412174D02*
X159354Y412174D01*
X170153Y405996D02*
X237217Y338932D01*
X155834Y407145D02*
X159354Y410666D01*
X313700Y338932D02*
X341540Y311092D01*
X150733Y420795D02*
X150733Y420795D01*
X160504Y405996D02*
X170153D01*
X147572Y420436D02*
X148578Y421442D01*
X147213Y415766D02*
X150733Y419287D01*
X158708Y412821D02*
X159354Y412174D01*
X151524Y411456D02*
X155044Y414976D01*
X133500Y433000D02*
X146064Y420436D01*
X312865Y336916D02*
X334381Y315399D01*
X318937Y227085D02*
Y255645D01*
X334381Y271089D01*
X235547Y334900D02*
X299382D01*
X187137Y383310D02*
X235547Y334900D01*
X316921Y227921D02*
Y256480D01*
X312999Y266937D02*
X323190Y277128D01*
X147706Y381294D02*
X186302D01*
X312999Y235000D02*
Y266937D01*
X158190Y383310D02*
X187137D01*
X305970Y325460D02*
X323190Y308241D01*
X186302Y381294D02*
X242135Y325460D01*
X309719Y270100D02*
X313204Y273585D01*
X301562Y323444D02*
X313204Y311802D01*
Y273585D02*
Y311802D01*
X242135Y325460D02*
X305970D01*
X235233Y323444D02*
X301562D01*
X137222Y379278D02*
X179399D01*
X168674Y385326D02*
X187972D01*
X309471Y346012D02*
X343556Y311927D01*
X316921Y256480D02*
X332365Y271924D01*
X343556Y274562D02*
Y311927D01*
X158708Y412821D02*
X158708D01*
X232988Y346012D02*
X309471D01*
X490411Y382417D02*
X492417D01*
X462532Y354538D02*
X490411Y382417D01*
X492417D02*
X493000Y383000D01*
X462532Y346984D02*
Y354538D01*
X472000Y352000D02*
X496540Y376540D01*
Y401076D01*
X154397Y417131D02*
X155044Y416485D01*
X146000Y433000D02*
X232988Y346012D01*
X150087Y421442D02*
X150087D01*
X150733Y420795D01*
X72867Y92064D02*
Y105048D01*
X409912Y254275D02*
Y267839D01*
X417966Y272967D02*
X418001Y273001D01*
X415040Y272967D02*
X417966D01*
X409912Y267839D02*
X415040Y272967D01*
X407500Y252500D02*
X408137D01*
X409912Y254275D01*
X34105Y240396D02*
X40709Y247000D01*
X32089Y241231D02*
X42858Y252000D01*
X53853Y386853D02*
X78000Y411000D01*
X52460Y276467D02*
X53853Y277859D01*
Y386853D01*
X314000Y97000D02*
Y97613D01*
X572532Y117531D02*
Y119685D01*
X78000Y411000D02*
Y411000D01*
X237217Y338932D02*
X313700D01*
X167524Y375738D02*
X221974Y321288D01*
X298004D01*
X187972Y385326D02*
X236382Y336916D01*
X143678Y375738D02*
X167524D01*
X179399Y379278D02*
X235233Y323444D01*
X96000Y433000D02*
X147706Y381294D01*
X108500Y433000D02*
X158190Y383310D01*
X81757Y133999D02*
X84917Y130839D01*
Y129043D02*
Y130839D01*
X82097Y127976D02*
X83850D01*
X81030Y125995D02*
Y126909D01*
X82097Y124928D02*
X83850D01*
X84917Y122947D02*
Y123861D01*
X80108Y121880D02*
X83850D01*
X79041Y119899D02*
Y120813D01*
X80108Y118832D02*
X83850D01*
X84917Y116851D02*
Y117765D01*
X80108Y115784D02*
X83850D01*
X79041Y113803D02*
Y114717D01*
X80108Y112736D02*
X83850D01*
X84917Y110755D02*
Y111669D01*
X80108Y109688D02*
X83850D01*
X79041Y107707D02*
Y108621D01*
X80108Y106640D02*
X83850D01*
X84917Y104659D02*
Y105573D01*
X80108Y103592D02*
X83850D01*
X79041Y101611D02*
Y102525D01*
X80108Y100544D02*
X83850D01*
X84917Y98969D02*
Y99477D01*
X79579Y136177D02*
X81757Y133999D01*
X79579Y136177D02*
Y196853D01*
X89485Y70223D02*
Y86879D01*
X90552Y69156D02*
X90552D01*
X91619Y67175D02*
Y68089D01*
X86401Y66108D02*
X90552D01*
X85334Y64127D02*
Y65041D01*
X86401Y63060D02*
X88418D01*
X89485Y61485D02*
Y61993D01*
Y86879D02*
Y125162D01*
X77025Y150174D02*
Y167045D01*
X75277Y168112D02*
X75958D01*
X74211Y169179D02*
Y170093D01*
X75277Y171160D02*
X76496D01*
X77563Y172227D02*
Y173141D01*
X73520Y174208D02*
X76496D01*
X72453Y175275D02*
Y176189D01*
X73520Y177256D02*
X75958D01*
X77025Y178323D02*
Y187975D01*
Y82256D02*
Y150174D01*
X94000Y120185D02*
Y127000D01*
X92933Y119118D02*
X92933D01*
X91866Y117137D02*
Y118051D01*
X92933Y116070D02*
X94000D01*
X95067Y114089D02*
Y115003D01*
X93745Y113022D02*
X94000D01*
X92678Y111041D02*
Y111955D01*
X93745Y109974D02*
X94457D01*
X95524Y107993D02*
Y108907D01*
X92568Y106926D02*
X94457D01*
X91501Y104945D02*
Y105859D01*
X92568Y103878D02*
X94457D01*
X95524Y101897D02*
Y102811D01*
X92568Y100830D02*
X94457D01*
X91501Y98849D02*
Y99763D01*
X92568Y97782D02*
X92933D01*
X94000Y96207D02*
Y96715D01*
Y127000D02*
Y170755D01*
Y92175D02*
Y96207D01*
X89485Y158284D02*
Y164110D01*
X90552Y157217D02*
X90917D01*
X91984Y155236D02*
Y156150D01*
X90485Y154169D02*
X90917D01*
X89418Y152188D02*
Y153102D01*
X90485Y151121D02*
X90917D01*
X91984Y149140D02*
Y150054D01*
X90394Y148073D02*
X90917D01*
X89327Y146092D02*
Y147006D01*
X90394Y145025D02*
X90917D01*
X91984Y143044D02*
Y143958D01*
X85059Y141977D02*
X90917D01*
X83992Y139996D02*
Y140910D01*
X85059Y138929D02*
X90917D01*
X91984Y136948D02*
Y137862D01*
X89649Y135881D02*
X90917D01*
X88582Y133900D02*
Y134814D01*
X89649Y132833D02*
X90917D01*
X91984Y130852D02*
Y131766D01*
X90552Y129785D02*
X90917D01*
X89485Y125162D02*
Y128718D01*
Y164110D02*
Y184203D01*
X72867Y129026D02*
Y141250D01*
X71547Y127959D02*
X71800D01*
X70480Y125978D02*
Y126892D01*
X71547Y124911D02*
X73942D01*
X75009Y122930D02*
Y123844D01*
X68400Y121863D02*
X73942D01*
X67333Y119882D02*
Y120796D01*
X68400Y118815D02*
X73942D01*
X75009Y116834D02*
Y117748D01*
X68400Y115767D02*
X73942D01*
X67333Y113786D02*
Y114700D01*
X68400Y112719D02*
X73942D01*
X75009Y110738D02*
Y111652D01*
X68400Y109671D02*
X73942D01*
X67333Y107690D02*
Y108604D01*
X68400Y106623D02*
X71800D01*
X72867Y105048D02*
Y105556D01*
Y141250D02*
Y164519D01*
X81976Y176681D02*
Y181520D01*
X83043Y175614D02*
X83941D01*
X85008Y173633D02*
Y174548D01*
X82662Y172567D02*
X83941D01*
X81595Y170585D02*
Y171500D01*
X82662Y169519D02*
X86402D01*
X87469Y167537D02*
Y168452D01*
X82662Y166471D02*
X86402D01*
X81595Y164489D02*
Y165404D01*
X82662Y163423D02*
X86402D01*
X87469Y161441D02*
Y162356D01*
X82662Y160375D02*
X86402D01*
X81595Y158393D02*
Y159308D01*
X82662Y157326D02*
X86402D01*
X87469Y155345D02*
Y156260D01*
X82662Y154278D02*
X86402D01*
X81595Y152297D02*
Y153212D01*
X82662Y151230D02*
X86402D01*
X87469Y149249D02*
Y150164D01*
X83043Y148182D02*
X86402D01*
X81976Y143560D02*
Y147116D01*
Y181520D02*
Y190836D01*
Y136631D02*
Y143560D01*
X94000Y191685D02*
Y194480D01*
X95067Y190618D02*
X101377D01*
X102444Y188637D02*
Y189552D01*
X92542Y187570D02*
X101377D01*
X91476Y185589D02*
Y186504D01*
X92542Y184522D02*
X101377D01*
X102444Y182541D02*
Y183456D01*
X92568Y181474D02*
X101377D01*
X91501Y179493D02*
Y180408D01*
X92568Y178426D02*
X97454D01*
X98521Y176445D02*
Y177360D01*
X92568Y175378D02*
X97454D01*
X91501Y173397D02*
Y174312D01*
X92568Y172330D02*
X92933D01*
X94000Y170755D02*
Y171264D01*
X100042Y198442D02*
X100500Y198900D01*
X97962Y198442D02*
X100042D01*
X94000Y194480D02*
X97962Y198442D01*
X298004Y321288D02*
X305292Y314000D01*
X126581Y269086D02*
X190086D01*
X75167Y395228D02*
X82175Y402236D01*
X54000Y198811D02*
Y199006D01*
X98390Y383295D02*
Y412205D01*
X96460Y324466D02*
X97525Y325532D01*
X122000Y365000D02*
Y372000D01*
X102970Y256000D02*
X104000D01*
X97525Y325532D02*
Y340526D01*
X154397Y417131D02*
X154397D01*
X309459Y228540D02*
X310000Y228000D01*
X97525Y340526D02*
X122000Y365000D01*
X305292Y314000D02*
X306000D01*
X121000Y433000D02*
X168674Y385326D01*
X104460Y178466D02*
Y202460D01*
X96460Y170466D02*
X104460Y178466D01*
Y202460D02*
X105000Y203000D01*
X67333Y170053D02*
X72867Y164519D01*
X304333Y138601D02*
X304937Y137998D01*
Y90325D02*
Y137998D01*
X300951Y133207D02*
X302667Y131491D01*
Y118813D02*
Y131491D01*
X297373Y113519D02*
X302667Y118813D01*
X304937Y90325D02*
X314350Y80913D01*
X172667Y234333D02*
X213339D01*
X240006Y261000D02*
X294000D01*
X213339Y234333D02*
X231460Y252454D01*
X235546Y256540D02*
X240006Y261000D01*
X231460Y254466D02*
X233534Y256540D01*
X231460Y252454D02*
Y254466D01*
X233534Y256540D02*
X235546D01*
X85318Y256682D02*
Y262207D01*
X84909Y262616D02*
X85318Y262207D01*
X162460Y244540D02*
X172667Y234333D01*
X85052Y244540D02*
X162460D01*
X85035Y244523D02*
X85052Y244540D01*
X88841Y266153D02*
Y376596D01*
Y266153D02*
X102534Y252460D01*
X130540Y377540D02*
X135466D01*
X127000Y374000D02*
X130540Y377540D01*
X134000Y295900D02*
Y374000D01*
Y295900D02*
X158456Y271444D01*
X137540Y295211D02*
Y375466D01*
Y295211D02*
X159291Y273460D01*
X135466Y377540D02*
X137540Y375466D01*
X190086Y269086D02*
X198000Y277000D01*
X103000Y263000D02*
X120495D01*
X126581Y269086D01*
X227879Y267000D02*
X229878Y268999D01*
X229998D01*
X318000Y222000D02*
Y226149D01*
X433316Y317768D02*
X462532Y346984D01*
X428762Y317768D02*
X433316D01*
X415454Y304460D02*
X428762Y317768D01*
X395540Y304460D02*
X415454D01*
X460516Y359516D02*
X487000Y386000D01*
X460516Y347819D02*
Y359516D01*
X432481Y319784D02*
X460516Y347819D01*
X386365Y319784D02*
X432481D01*
X385609Y320540D02*
X386365Y319784D01*
X379540Y320540D02*
X385609D01*
X374000Y315000D02*
X379540Y320540D01*
X442683Y15683D02*
X448000Y21000D01*
X428997Y15683D02*
X442683D01*
X486878Y391064D02*
X487000D01*
X473704Y377890D02*
X486878Y391064D01*
X471140Y377890D02*
X473704D01*
X458500Y365250D02*
X471140Y377890D01*
X383000Y317000D02*
X395540Y304460D01*
X363000Y346000D02*
X387200Y321800D01*
X588016Y92016D02*
Y134984D01*
X580000Y84000D02*
Y84000D01*
X588016Y92016D01*
X575000Y148000D02*
X588016Y134984D01*
X590000Y78825D02*
X592048Y80873D01*
X590000Y78000D02*
Y78825D01*
X584353Y79353D02*
X590032Y85032D01*
X496652Y430458D02*
X503194Y437000D01*
X541000D01*
X490000Y407616D02*
Y437000D01*
Y407616D02*
X496540Y401076D01*
X496652Y403815D02*
Y430458D01*
Y403815D02*
X500000Y400467D01*
Y373000D02*
Y400467D01*
X479000Y352000D02*
X500000Y373000D01*
X444000Y303000D02*
X465000Y282000D01*
X419000Y303000D02*
X444000D01*
X458500Y348654D02*
Y365250D01*
X387200Y321800D02*
X431646D01*
X458500Y348654D01*
X227687Y12301D02*
X311062D01*
X21065Y360065D02*
X41498D01*
X37184Y355722D02*
X37294Y355833D01*
X37184Y352277D02*
Y355722D01*
X22466Y337559D02*
X37184Y352277D01*
X7000Y346000D02*
X21065Y360065D01*
X15441Y337559D02*
X22466D01*
X11000Y342000D02*
X15441Y337559D01*
X323226Y76044D02*
X328257Y71013D01*
X323226Y76044D02*
Y104044D01*
X284456Y252513D02*
X292686Y244283D01*
X294601Y292399D02*
X302528Y284472D01*
X297373Y92063D02*
X316021Y73415D01*
X72689Y54875D02*
Y77919D01*
X77025Y82256D01*
X72000Y193000D02*
X77025Y187975D01*
X81976Y190836D02*
X85140Y194000D01*
X96460Y126534D02*
Y170466D01*
Y126534D02*
X97540Y125454D01*
Y90709D02*
Y125454D01*
X93710Y86879D02*
X97540Y90709D01*
X93710Y52845D02*
Y86879D01*
X84319Y43454D02*
X93710Y52845D01*
X85516Y188102D02*
X85586D01*
X89485Y184203D01*
X82000Y54000D02*
X89485Y61485D01*
X46579Y148442D02*
X47404D01*
X45871Y147734D02*
X46579Y148442D01*
X35496Y147734D02*
X45871D01*
X26534Y154940D02*
X28291D01*
X25902Y155572D02*
X26534Y154940D01*
X16309Y155572D02*
X25902D01*
X60327Y69030D02*
X68178Y61178D01*
X46579Y201226D02*
Y232136D01*
X38715Y240000D02*
X46579Y232136D01*
X295067Y279933D02*
X300512Y274488D01*
X319374Y107896D02*
X323226Y104044D01*
X300512Y246180D02*
Y274488D01*
X300412Y246080D02*
X300512Y246180D01*
X544678Y391064D02*
X564444Y371298D01*
Y347416D02*
Y371298D01*
Y347416D02*
X567258Y344602D01*
X550578Y395000D02*
X566460Y379118D01*
Y348252D02*
Y379118D01*
Y348252D02*
X569274Y345438D01*
X87000Y403851D02*
Y410000D01*
X318000Y226149D02*
X318937Y227085D01*
X236382Y336916D02*
X312865D01*
X311000Y222000D02*
X316921Y227921D01*
X107944Y252460D02*
X108484Y253000D01*
X102534Y252460D02*
X107944D01*
X88841Y376596D02*
X95485Y383241D01*
Y407412D01*
X83500Y419397D02*
X95485Y407412D01*
X83500Y419397D02*
Y433000D01*
X86700Y227000D02*
Y231000D01*
Y227000D02*
X86700Y227000D01*
X172000Y20000D02*
X172381Y20381D01*
Y24381D01*
X192000Y44000D01*
X162994Y24000D02*
X172994Y14000D01*
X58503Y24000D02*
X162994D01*
X172994Y14000D02*
X201000D01*
X219460Y5460D02*
X220000Y6000D01*
X4318Y67682D02*
Y149528D01*
X8386Y144799D02*
X17144Y153556D01*
X22819D01*
X8386Y70592D02*
Y144799D01*
X6370Y145634D02*
X16309Y155572D01*
X6370Y69757D02*
Y145634D01*
X4318Y149528D02*
X13270Y158480D01*
X14920Y91534D02*
Y148482D01*
X17979Y151540D01*
X21984D01*
X6370Y69757D02*
X67683Y8444D01*
X14920Y91534D02*
X18581Y87873D01*
X18594D01*
X13270Y158480D02*
X28000D01*
X27456Y152924D02*
X39379Y141000D01*
X28291Y154940D02*
X35496Y147734D01*
X26621Y150908D02*
X43738Y133791D01*
X22616Y150908D02*
X26621D01*
X22819Y153556D02*
X23451Y152924D01*
X21984Y151540D02*
X22616Y150908D01*
X23451Y152924D02*
X27456D01*
X38396Y180482D02*
Y189604D01*
X30000Y198000D02*
X38396Y189604D01*
X30000Y198000D02*
Y198000D01*
X41130Y151274D02*
Y177748D01*
X38396Y180482D02*
X41130Y177748D01*
X212444Y8444D02*
X213000Y9000D01*
X67683Y8444D02*
X212444D01*
X205460Y10460D02*
X208000Y13000D01*
X22254Y60248D02*
X58503Y24000D01*
X51413Y51730D02*
X63271Y39872D01*
X51413Y51730D02*
Y60683D01*
X18594Y87873D02*
X22254Y84212D01*
Y60248D02*
Y84212D01*
X53429Y52565D02*
Y86571D01*
Y52565D02*
X58994Y47000D01*
X45040Y67056D02*
X51413Y60683D01*
X38000Y102000D02*
X53429Y86571D01*
X37960Y91784D02*
Y93784D01*
X34460Y97284D02*
X37960Y93784D01*
X39379Y141000D02*
X45000D01*
X43738Y133791D02*
X43974D01*
X38000Y102796D02*
X53556Y118352D01*
X40709Y247000D02*
X45942D01*
X42858Y252000D02*
X48000D01*
X57000Y60503D02*
X57516Y61019D01*
X38000Y102000D02*
Y102796D01*
X297373Y92063D02*
Y113519D01*
X288000Y239000D02*
X290416Y236583D01*
X278000Y125000D02*
Y193157D01*
X90857Y375761D02*
X98390Y383295D01*
X295232Y315217D02*
X306560Y303889D01*
X304444Y244410D02*
X304544Y244510D01*
X326297Y82050D02*
Y103823D01*
X328837Y64603D02*
X331797Y67564D01*
X83500Y433000D02*
X137222Y379278D01*
X309459Y243005D02*
X309719Y243265D01*
X323190Y277128D02*
Y308241D01*
X298496Y247015D02*
Y265504D01*
X294637Y269363D02*
X298496Y265504D01*
X298396Y246915D02*
X298496Y247015D01*
X50500Y203000D02*
Y249314D01*
X75167Y332981D02*
Y395228D01*
X294956Y198501D02*
Y252978D01*
X273000Y232000D02*
X279324Y238324D01*
X273000Y198158D02*
Y232000D01*
Y198158D02*
X278000Y193157D01*
X363000Y346000D02*
Y357000D01*
X183814Y271444D02*
X189370Y277000D01*
X158456Y271444D02*
X183814D01*
X321390Y108731D02*
X326297Y103823D01*
X302428Y245245D02*
X302528Y245345D01*
X326297Y82050D02*
X331797Y76550D01*
X67333Y197333D02*
X71000Y201000D01*
X79579Y196853D02*
X82000Y199274D01*
Y200000D01*
X67333Y170053D02*
Y197333D01*
X57000Y54000D02*
Y60503D01*
X144000Y230000D02*
X144756D01*
X139603D02*
X144000D01*
X134000Y224397D02*
X139603Y230000D01*
X134000Y218415D02*
Y223000D01*
Y218415D02*
X136952Y215463D01*
X145104D02*
X148522Y218881D01*
X136952Y215463D02*
X145104D01*
X148522Y218881D02*
Y221821D01*
X150000Y223299D01*
X145496Y229260D02*
X150000Y224756D01*
Y223299D02*
Y224756D01*
X144756Y230000D02*
X145496Y229260D01*
X145496D01*
X306560Y243675D02*
Y303889D01*
X323406Y112852D02*
X329837Y106420D01*
X294956Y198501D02*
X312420Y181038D01*
X319686Y90864D02*
Y104733D01*
X304544Y244510D02*
Y294456D01*
X309719Y243265D02*
Y270100D01*
X309459Y228540D02*
Y243005D01*
X178460Y273460D02*
X182000Y277000D01*
X159291Y273460D02*
X178460D01*
X82175Y402236D02*
Y412729D01*
X87675Y422921D02*
X98390Y412205D01*
X76905Y418000D02*
X82175Y412729D01*
X76000Y418000D02*
X76905D01*
D116*
X202790Y141496D02*
X221258Y123027D01*
X202790Y141496D02*
Y153324D01*
X164000Y178392D02*
X184455Y157937D01*
X187045D01*
X164000Y178392D02*
Y192000D01*
X187045Y157937D02*
X196000Y148982D01*
Y121208D02*
Y148982D01*
X102955Y207937D02*
X111087D01*
X118061Y200963D01*
X156977D01*
X36563Y61599D02*
Y76332D01*
Y61599D02*
X63984Y34178D01*
X480706Y74724D02*
X543768D01*
X546000Y76956D01*
Y126625D01*
X464045Y58063D02*
X480706Y74724D01*
X544333Y130167D02*
X544382Y130119D01*
Y128244D02*
Y130119D01*
Y128244D02*
X546000Y126625D01*
X63920Y104056D02*
X68453Y99523D01*
X63920Y104056D02*
Y200902D01*
X163951Y192049D02*
X164000Y192000D01*
X163951Y192049D02*
Y193989D01*
X156977Y200963D02*
X163951Y193989D01*
X101081Y206063D02*
X102955Y207937D01*
X69081Y206063D02*
X101081D01*
X63920Y200902D02*
X69081Y206063D01*
X221258Y93140D02*
Y123027D01*
Y93140D02*
X272023Y42376D01*
X198659Y106807D02*
Y118549D01*
X189000Y109000D02*
X256000Y42000D01*
X189000Y109000D02*
Y126000D01*
X198659Y106807D02*
X263429Y42037D01*
X235000Y253000D02*
X235075Y253076D01*
X219234Y187129D02*
Y226252D01*
X235075Y242093D02*
Y253076D01*
X219234Y226252D02*
X235075Y242093D01*
X165205Y133205D02*
X185000Y153000D01*
X428822Y60000D02*
X450018D01*
X451955Y58063D01*
X464045D01*
X102651Y44920D02*
X118378Y60647D01*
X99774Y44920D02*
X102651D01*
X84047Y29192D02*
X99774Y44920D01*
X141609Y126000D02*
X189000D01*
X118378Y102769D02*
X141609Y126000D01*
X118378Y60647D02*
Y102769D01*
X62167Y29192D02*
X84047D01*
X25667Y65692D02*
X62167Y29192D01*
X25667Y65692D02*
Y100778D01*
X84379Y36532D02*
X100063Y52216D01*
X82798Y36532D02*
X84379D01*
X80839Y34574D02*
X82798Y36532D01*
X80770Y34574D02*
X80839D01*
X28260Y110783D02*
X28260Y110783D01*
X63984Y34178D02*
X67234D01*
X67282Y34129D01*
X19445Y107000D02*
X25667Y100778D01*
X30477Y92401D02*
Y102770D01*
X36563Y76332D02*
X38687Y78456D01*
X30477Y92401D02*
X38687Y84191D01*
Y78456D02*
Y84191D01*
X67341Y34188D02*
X67341D01*
X67400Y34129D01*
X80257D01*
X19445Y148000D02*
X28260Y139185D01*
Y110783D02*
Y139185D01*
X28260Y110783D02*
X28260Y110783D01*
X28260Y110783D02*
X28309Y110734D01*
X100063Y52216D02*
Y62832D01*
X80257Y34129D02*
X80702Y34574D01*
X132426Y133205D02*
X165205D01*
X80702Y34574D02*
X80770D01*
X28309Y104939D02*
X30477Y102770D01*
X28309Y104939D02*
Y110734D01*
X100063Y62832D02*
X112680Y75449D01*
X196000Y121208D02*
X198659Y118549D01*
X112680Y75449D02*
Y113459D01*
X132426Y133205D01*
D117*
X458059Y128250D02*
X461223Y131415D01*
X487809Y158000D01*
X452000Y122191D02*
X458059Y128250D01*
X278000Y357000D02*
Y363000D01*
X429263Y91263D02*
X448441Y110441D01*
X452000Y114000D01*
X73300Y223000D02*
X82700D01*
X86700D01*
X501500Y118000D02*
X513750Y130250D01*
X527594D01*
X429263Y67737D02*
Y91263D01*
X160191Y62922D02*
X189339D01*
X132863Y90250D02*
X160191Y62922D01*
X123783Y90250D02*
X132863D01*
X189339Y62922D02*
X208000Y44261D01*
Y44062D02*
Y44261D01*
X390799Y208999D02*
X407800Y226000D01*
X366523Y208999D02*
X390799D01*
X367238Y247175D02*
X389921D01*
X366523Y246460D02*
X367238Y247175D01*
X86700Y223000D02*
X86700Y223000D01*
X452000Y114000D02*
Y122191D01*
D118*
X230291Y357000D02*
X278000D01*
X180634Y406657D02*
X230291Y357000D01*
X47140Y396043D02*
X59183Y408086D01*
X47140Y306489D02*
Y396043D01*
X39451Y298800D02*
X47140Y306489D01*
X180634Y406657D02*
X180634D01*
D119*
X81250Y81029D02*
Y90573D01*
X75698Y75477D02*
X81250Y81029D01*
X527594Y130250D02*
X555422Y158078D01*
X567827Y154032D02*
X570698Y151161D01*
X571863Y124806D02*
X572532Y124137D01*
X571863Y124806D02*
Y137273D01*
X570698Y138438D02*
X571863Y137273D01*
X570698Y138438D02*
Y151161D01*
X505000Y427000D02*
X505302Y426698D01*
Y341698D02*
X559750Y287250D01*
X505302Y341698D02*
Y426698D01*
X572532Y119685D02*
Y124137D01*
X559467Y154032D02*
X567827D01*
X506476Y284000D02*
X510968Y288492D01*
X541327D01*
X542569Y287250D01*
X559750D01*
X75698Y57950D02*
Y75477D01*
Y57950D02*
X76991Y56657D01*
Y52925D02*
Y56657D01*
Y52925D02*
X78302Y51614D01*
Y37454D02*
Y51614D01*
Y37454D02*
X80770Y34986D01*
Y34574D02*
Y34986D01*
X560750Y163407D02*
Y286250D01*
X559750Y287250D02*
X560750Y286250D01*
X538000Y164000D02*
X560157D01*
X532000Y158000D02*
X538000Y164000D01*
X487809Y158000D02*
X532000D01*
X555422Y158078D02*
X560750Y163407D01*
X555422Y158078D02*
X559467Y154032D01*
X560157Y164000D02*
X560750Y163407D01*
X490000Y284000D02*
X506476D01*
D123*
X572835Y119382D02*
X575536Y122084D01*
X571354Y117902D02*
X572835Y119382D01*
X576109Y116108D02*
X576354Y116354D01*
X575863Y115863D02*
X576109Y116108D01*
X576354Y116354D02*
Y118659D01*
X576415Y118720D01*
Y121206D01*
X575536Y122084D02*
X576415Y121206D01*
X570863Y115863D02*
X571354Y116354D01*
Y117902D01*
D124*
X41500Y93250D02*
D03*
X49250Y80500D02*
D03*
X105000Y79750D02*
D03*
X97250Y67000D02*
D03*
X328825Y315950D02*
D03*
X347175D02*
D03*
X319650Y306775D02*
D03*
X356350D02*
D03*
X328825Y297600D02*
D03*
X347175D02*
D03*
X319650Y288425D02*
D03*
X356350D02*
D03*
X328825Y279250D02*
D03*
X347175D02*
D03*
D125*
X499750Y52750D02*
D03*
D127*
X530000Y101000D02*
D03*
D129*
X158500Y433000D02*
D03*
X146000D02*
D03*
X108500D02*
D03*
X96000D02*
D03*
X83500D02*
D03*
X121000D02*
D03*
X133500D02*
D03*
D130*
X71000D02*
D03*
X158500Y17000D02*
D03*
D132*
X525000Y427000D02*
D03*
D133*
X505000D02*
D03*
D134*
X531509Y268263D02*
D03*
Y181862D02*
D03*
D135*
X585109Y268263D02*
D03*
Y181862D02*
D03*
D136*
X157000Y346000D02*
D03*
Y104000D02*
D03*
X399000Y104000D02*
D03*
Y346000D02*
D03*
D137*
X11636Y321118D02*
D03*
X11862Y286939D02*
D03*
X461000Y255000D02*
D03*
X73612Y39872D02*
D03*
X74000Y47000D02*
D03*
X73485Y91445D02*
D03*
X330209Y358100D02*
D03*
X312420Y122419D02*
D03*
X344424Y96266D02*
D03*
X334972Y84890D02*
D03*
X350387Y128098D02*
D03*
X357500Y231897D02*
D03*
X354838Y121626D02*
D03*
X352540Y232918D02*
D03*
X343916Y232119D02*
D03*
X347287Y109813D02*
D03*
X349000Y242091D02*
D03*
X334264Y237998D02*
D03*
X322999Y237000D02*
D03*
X339233Y108219D02*
D03*
X330978Y115000D02*
D03*
X328962Y131000D02*
D03*
X341666Y239949D02*
D03*
X355796Y97196D02*
D03*
X328837Y64603D02*
D03*
X358295Y50069D02*
D03*
X292244Y147080D02*
D03*
X398557Y174533D02*
D03*
X292613Y174349D02*
D03*
X240028Y163464D02*
D03*
X381613Y145756D02*
D03*
X215694Y68485D02*
D03*
X165872Y69509D02*
D03*
X106292Y360593D02*
D03*
X154439Y154115D02*
D03*
X125599Y43722D02*
D03*
X446396Y263056D02*
D03*
X278000Y357000D02*
D03*
Y363000D02*
D03*
X81250Y90573D02*
D03*
X68453Y99523D02*
D03*
X476151Y387346D02*
D03*
X70100Y217192D02*
D03*
X39451Y298800D02*
D03*
X59183Y408086D02*
D03*
X180634Y406657D02*
D03*
X118312Y169661D02*
D03*
X308580Y130146D02*
D03*
X143678Y375738D02*
D03*
X244967Y372991D02*
D03*
X230489Y372885D02*
D03*
X69000Y275000D02*
D03*
X84909Y262616D02*
D03*
X81359Y255242D02*
D03*
X77639Y251070D02*
D03*
X85035Y244523D02*
D03*
X122000Y372000D02*
D03*
X127000Y374000D02*
D03*
X134000D02*
D03*
X143000Y257000D02*
D03*
X318000Y222000D02*
D03*
X519844Y23692D02*
D03*
X499000Y24000D02*
D03*
X487000Y391064D02*
D03*
X374000Y315000D02*
D03*
X383000Y317000D02*
D03*
X580000Y84000D02*
D03*
X584353Y79353D02*
D03*
X590000Y78000D02*
D03*
X575000Y148000D02*
D03*
X256000Y42000D02*
D03*
X490000Y437000D02*
D03*
X541000D02*
D03*
X465000Y282000D02*
D03*
X419000Y303000D02*
D03*
X379000Y17000D02*
D03*
X11000Y342000D02*
D03*
X7000Y346000D02*
D03*
X314000Y97000D02*
D03*
X341000Y122000D02*
D03*
X569656Y57617D02*
D03*
X569656Y62617D02*
D03*
X569710Y72562D02*
D03*
X569710Y67562D02*
D03*
X172000Y20000D02*
D03*
X192000Y44000D02*
D03*
X220000Y6000D02*
D03*
X28000Y158480D02*
D03*
X213000Y9000D02*
D03*
X208000Y13000D02*
D03*
X201000Y14000D02*
D03*
X230445Y6333D02*
D03*
X227687Y12301D02*
D03*
X30000Y198000D02*
D03*
X23000Y264000D02*
D03*
X208000Y44062D02*
D03*
X47404Y148442D02*
D03*
X41130Y151274D02*
D03*
X43974Y133791D02*
D03*
X45000Y141000D02*
D03*
X81055Y74750D02*
D03*
X80000Y67000D02*
D03*
X72689Y54875D02*
D03*
X82000Y54000D02*
D03*
X84319Y43454D02*
D03*
X68178Y61178D02*
D03*
X105000Y203000D02*
D03*
X100500Y198900D02*
D03*
X108484Y253000D02*
D03*
X104000Y256000D02*
D03*
X294000Y261000D02*
D03*
X294956Y252978D02*
D03*
X48000Y252000D02*
D03*
X45942Y247000D02*
D03*
X37294Y355833D02*
D03*
X41498Y360065D02*
D03*
X306000Y314000D02*
D03*
X493000Y383000D02*
D03*
X279324Y238324D02*
D03*
X278000Y125000D02*
D03*
X544678Y391064D02*
D03*
X550578Y395000D02*
D03*
X487000Y386000D02*
D03*
X575863Y115863D02*
D03*
X544333Y130167D02*
D03*
X363000Y357000D02*
D03*
X282740Y26762D02*
D03*
X123783Y90250D02*
D03*
X102190Y92083D02*
D03*
X125591Y103000D02*
D03*
X263429Y42037D02*
D03*
X12214Y241316D02*
D03*
X189000Y179123D02*
D03*
X228000Y177000D02*
D03*
X226597Y152536D02*
D03*
X219234Y187129D02*
D03*
X428822Y60000D02*
D03*
X272023Y42376D02*
D03*
X328257Y71013D02*
D03*
X316021Y73415D02*
D03*
X314350Y80913D02*
D03*
X319686Y90864D02*
D03*
X329837Y83516D02*
D03*
X214875Y122429D02*
D03*
X202790Y153441D02*
D03*
X179000Y175000D02*
D03*
X67282Y34129D02*
D03*
X80770Y34574D02*
D03*
X28260Y110783D02*
D03*
X19445Y107000D02*
D03*
X73300Y223000D02*
D03*
X82700Y227000D02*
D03*
X73300Y231000D02*
D03*
X86700Y223000D02*
D03*
X82700Y219000D02*
D03*
X69300Y227000D02*
D03*
X86700Y231000D02*
D03*
X429263Y67737D02*
D03*
X312999Y235000D02*
D03*
X310000Y228000D02*
D03*
X311000Y222000D02*
D03*
X323000Y226000D02*
D03*
X288000Y239000D02*
D03*
X332000Y258000D02*
D03*
X337117Y253205D02*
D03*
X340999Y246000D02*
D03*
X284456Y252513D02*
D03*
X294637Y269363D02*
D03*
X295232Y315217D02*
D03*
X294816Y304184D02*
D03*
X294601Y292399D02*
D03*
X295067Y279933D02*
D03*
X407000Y278511D02*
D03*
X358295Y40069D02*
D03*
Y45069D02*
D03*
X417000Y35000D02*
D03*
X389000Y28000D02*
D03*
X401000Y63000D02*
D03*
X580863Y115863D02*
D03*
X570863D02*
D03*
X571863Y124137D02*
D03*
X156336Y194622D02*
D03*
X185000Y153000D02*
D03*
X235000Y253000D02*
D03*
X130000Y30000D02*
D03*
X71000Y201000D02*
D03*
X54000Y198811D02*
D03*
X94000Y92175D02*
D03*
X19445Y148000D02*
D03*
X38715Y240000D02*
D03*
Y229800D02*
D03*
Y289000D02*
D03*
X46000Y174000D02*
D03*
X72000Y193000D02*
D03*
X189000Y126000D02*
D03*
X164000Y192000D02*
D03*
X399000Y308000D02*
D03*
X417000Y251000D02*
D03*
X383000Y220000D02*
D03*
X24000Y210000D02*
D03*
X12000Y208000D02*
D03*
X42000Y127000D02*
D03*
X182000Y277000D02*
D03*
X189370Y277000D02*
D03*
X204000Y277000D02*
D03*
X178000Y263000D02*
D03*
X190000Y263000D02*
D03*
X244000Y227000D02*
D03*
X279000Y200000D02*
D03*
X249000D02*
D03*
X438000Y19350D02*
D03*
X408000Y18350D02*
D03*
X458000Y40000D02*
D03*
X448000Y21000D02*
D03*
X418000Y20000D02*
D03*
X407500Y252500D02*
D03*
X418001Y273001D02*
D03*
X455702Y270004D02*
D03*
X182000Y238000D02*
D03*
X190000Y240000D02*
D03*
X222000Y274000D02*
D03*
X100000Y275000D02*
D03*
X226000Y240000D02*
D03*
X87675Y422921D02*
D03*
X91945Y405945D02*
D03*
X87000Y410000D02*
D03*
X76000Y418000D02*
D03*
X78000Y411000D02*
D03*
X103000Y263000D02*
D03*
X100000Y323000D02*
D03*
X69200Y163000D02*
D03*
Y151000D02*
D03*
X82000Y200000D02*
D03*
X85140Y194000D02*
D03*
X85516Y188102D02*
D03*
X50500Y203000D02*
D03*
X142000Y189000D02*
D03*
X134000Y223000D02*
D03*
X144000Y230000D02*
D03*
X48000Y160000D02*
D03*
X56000Y263000D02*
D03*
X63000Y326000D02*
D03*
X68000Y299000D02*
D03*
Y311000D02*
D03*
X69000Y287000D02*
D03*
X56000Y275000D02*
D03*
X100000Y311000D02*
D03*
X112000Y147000D02*
D03*
X127000Y180000D02*
D03*
X140500Y181500D02*
D03*
X113235Y198075D02*
D03*
X108000Y183000D02*
D03*
X102000Y165000D02*
D03*
X100000Y151000D02*
D03*
X57000Y54000D02*
D03*
X38000Y102000D02*
D03*
X420000Y373000D02*
D03*
X472000Y352000D02*
D03*
X479000D02*
D03*
X69200Y139000D02*
D03*
X101000Y127000D02*
D03*
X202000Y240000D02*
D03*
X174000D02*
D03*
X214000D02*
D03*
X277733Y375700D02*
D03*
Y369700D02*
D03*
X100000Y287000D02*
D03*
Y299000D02*
D03*
X198000Y277000D02*
D03*
X229998Y268999D02*
D03*
D138*
X389921Y247175D02*
D03*
X407800Y226000D02*
D03*
X171673Y360672D02*
D03*
X142327Y331328D02*
D03*
Y360672D02*
D03*
X171673Y331328D02*
D03*
Y89328D02*
D03*
X142327Y118672D02*
D03*
Y89328D02*
D03*
X171673Y118672D02*
D03*
X413673D02*
D03*
X384328Y89328D02*
D03*
X384327Y118672D02*
D03*
X413673Y89328D02*
D03*
Y331328D02*
D03*
X384327Y360672D02*
D03*
X384328Y331328D02*
D03*
X413673Y360672D02*
D03*
D139*
X232000Y209000D02*
D03*
Y199000D02*
D03*
D140*
X26000Y424000D02*
D03*
X574000Y26000D02*
D03*
X26000D02*
D03*
X574000Y424000D02*
D03*
D141*
X279009Y358009D02*
X279009Y358009D01*
X318901D02*
X366523Y310387D01*
X279009Y358009D02*
X318901D01*
X366523Y246460D02*
Y310387D01*
X358295Y45069D02*
Y50069D01*
Y40069D02*
Y45069D01*
X309447Y28064D02*
X385000D01*
X388936D01*
X389000Y28000D01*
X239689Y97823D02*
X309447Y28064D01*
X572532Y119685D02*
X572835Y119382D01*
X573609Y118608D02*
X576109Y116108D01*
X86700Y227000D02*
X96641D01*
X82700D02*
X86700D01*
X69300D02*
X73300D01*
X69300Y227000D02*
X69300Y227000D01*
X358295Y50069D02*
X367613Y59387D01*
X366523Y134738D02*
X367613Y133648D01*
X366523Y134738D02*
Y208999D01*
X367613Y59387D02*
Y133648D01*
X199010Y179123D02*
X225597Y152536D01*
X226597D01*
X163968Y220673D02*
Y222971D01*
X137673Y238032D02*
X148906D01*
X163968Y222971D01*
X226597Y152536D02*
Y175597D01*
X572835Y119382D02*
X573609Y118608D01*
X103327Y226968D02*
X103358Y227000D01*
X96641D02*
X96673Y226968D01*
X103327D01*
X126641Y227000D02*
X137673Y238032D01*
X103358Y227000D02*
X126641D01*
X163968Y220673D02*
X165032Y219609D01*
Y216302D02*
Y219609D01*
X366523Y208999D02*
Y246460D01*
X199010Y179123D02*
Y182324D01*
X226597Y175597D02*
X228000Y177000D01*
X189000Y179123D02*
X199010D01*
X165032Y216302D02*
X199010Y182324D01*
X226597Y149401D02*
Y151536D01*
Y149401D02*
X239689Y136309D01*
Y97823D02*
Y136309D01*
X73300Y231000D02*
X79984D01*
X80016Y230968D01*
M02*
