G04*
G04 #@! TF.GenerationSoftware,Altium Limited,Altium Designer,23.1.1 (15)*
G04*
G04 Layer_Color=8388736*
%FSLAX44Y44*%
%MOMM*%
G71*
G04*
G04 #@! TF.SameCoordinates,9B01D1D2-6DC0-4E1C-ADDC-18CA85A18B4E*
G04*
G04*
G04 #@! TF.FilePolarity,Positive*
G04*
G01*
G75*
%ADD10C,0.2000*%
%ADD14C,0.1000*%
%ADD258C,0.0500*%
D10*
X607832Y121286D02*
Y137286D01*
Y121286D02*
X640832D01*
Y137286D01*
X607832D02*
X640832D01*
X1379439Y207250D02*
Y217750D01*
X1389939D01*
Y207250D02*
Y217750D01*
X1379439Y207250D02*
X1389939D01*
D14*
X-55633Y167786D02*
Y180086D01*
Y167786D02*
X-49233D01*
Y180086D01*
X-81033Y205486D02*
Y217786D01*
X-74633D01*
Y205486D02*
Y217786D01*
X-106433Y167786D02*
Y180086D01*
Y167786D02*
X-100033D01*
Y180086D01*
X-125433Y205486D02*
Y217786D01*
X-131833D02*
X-125433D01*
X-131833Y205486D02*
Y217786D01*
X-141333Y180086D02*
Y205486D01*
Y180086D02*
X-39733D01*
Y205486D01*
X-141333D02*
X-39733D01*
X1105200Y209573D02*
X1166800D01*
X1179700Y97573D02*
Y203573D01*
X1166800D02*
X1179700D01*
X1166800D02*
Y209573D01*
X1105200Y203573D02*
Y209573D01*
X1092300Y203573D02*
X1105200D01*
X1092300Y97573D02*
Y203573D01*
Y97573D02*
X1179400D01*
D258*
X1162500Y209573D02*
Y215473D01*
X1164500D01*
Y209573D02*
Y215473D01*
X1157500Y209573D02*
Y215473D01*
X1159500D01*
Y209573D02*
Y215473D01*
X1152500Y209573D02*
Y215473D01*
X1154500D01*
Y209573D02*
Y215473D01*
X1147500Y209573D02*
Y215473D01*
X1149500D01*
Y209573D02*
Y215473D01*
X1142500Y209573D02*
Y215473D01*
X1144500D01*
Y209573D02*
Y215473D01*
X1137500Y209573D02*
Y215473D01*
X1139500D01*
Y209573D02*
Y215473D01*
X1107500Y209573D02*
Y215473D01*
X1109500D01*
Y209573D02*
Y215473D01*
X1112500Y209573D02*
Y215473D01*
X1114500D01*
Y209573D02*
Y215473D01*
X1117500Y209573D02*
Y215473D01*
X1119500D01*
Y209573D02*
Y215473D01*
X1122500Y209573D02*
Y215473D01*
X1124500D01*
Y209573D02*
Y215473D01*
X1127500Y209573D02*
Y215473D01*
X1129500D01*
Y209573D02*
Y215473D01*
X1134500Y209573D02*
Y215473D01*
X1132500D02*
X1134500D01*
X1132500Y209573D02*
Y215473D01*
M02*
