G04*
G04 #@! TF.GenerationSoftware,Altium Limited,Altium Designer,23.5.1 (21)*
G04*
G04 Layer_Color=12632256*
%FSLAX44Y44*%
%MOMM*%
G71*
G04*
G04 #@! TF.SameCoordinates,DE583170-315A-417A-B135-1053CC169A87*
G04*
G04*
G04 #@! TF.FilePolarity,Positive*
G04*
G01*
G75*
%ADD187C,1.6000*%
%ADD188C,3.2000*%
%ADD189C,2.4000*%
%ADD190C,1.7500*%
%ADD191C,1.5000*%
%ADD193C,2.7000*%
%ADD195C,3.0000*%
%ADD196O,1.0000X1.6000*%
%ADD197C,0.6500*%
%ADD203C,2.5000*%
%ADD204C,2.0000*%
D187*
X956141Y367500D02*
D03*
Y342500D02*
D03*
X1352500Y291000D02*
D03*
X1317500D02*
D03*
D188*
X828700Y202116D02*
D03*
X943000D02*
D03*
D189*
X805205Y232616D02*
D03*
X966495D02*
D03*
D190*
X819550Y161516D02*
D03*
X844950D02*
D03*
X926750D02*
D03*
X952150D02*
D03*
D191*
X828700Y240416D02*
D03*
X854100Y227716D02*
D03*
X917600D02*
D03*
X943000Y240416D02*
D03*
X828700Y291016D02*
D03*
X854100D02*
D03*
X879500D02*
D03*
X904900D02*
D03*
X930300D02*
D03*
X943000Y265616D02*
D03*
X917600D02*
D03*
X892200D02*
D03*
X866800D02*
D03*
X841400D02*
D03*
D193*
X-17963Y148109D02*
D03*
X224037Y390109D02*
D03*
D195*
X1684037Y309109D02*
D03*
X1484037D02*
D03*
X684037D02*
D03*
X484037D02*
D03*
X184037D02*
D03*
X-15963D02*
D03*
D196*
X1093300Y141574D02*
D03*
X1178700D02*
D03*
X1093300Y188874D02*
D03*
X1178700D02*
D03*
D197*
X1160000Y193374D02*
D03*
X1112000D02*
D03*
X1152000D02*
D03*
X1120000D02*
D03*
X1144000D02*
D03*
X1128000D02*
D03*
X1164000Y200373D02*
D03*
X1108000D02*
D03*
X1156000D02*
D03*
X1116000D02*
D03*
X1148000D02*
D03*
X1124000D02*
D03*
X1140000D02*
D03*
X1132000D02*
D03*
D203*
X-120963Y394109D02*
D03*
X744037Y252000D02*
D03*
X1427531Y291000D02*
D03*
X-120963Y144109D02*
D03*
X1704037Y143370D02*
D03*
Y394109D02*
D03*
X884000Y399250D02*
D03*
D204*
X1710436Y271526D02*
D03*
M02*
