G04*
G04 #@! TF.GenerationSoftware,Altium Limited,Altium Designer,23.1.1 (15)*
G04*
G04 Layer_Color=35253*
%FSLAX44Y44*%
%MOMM*%
G71*
G04*
G04 #@! TF.SameCoordinates,9B01D1D2-6DC0-4E1C-ADDC-18CA85A18B4E*
G04*
G04*
G04 #@! TF.FilePolarity,Positive*
G04*
G01*
G75*
%ADD10C,0.2000*%
%ADD11C,0.2500*%
%ADD12C,0.2540*%
%ADD14C,0.1000*%
%ADD16C,0.1270*%
%ADD164C,0.1016*%
%ADD181C,0.1500*%
%ADD183C,0.3048*%
G36*
X1635186Y400530D02*
X1635735D01*
Y400420D01*
X1636284D01*
Y400310D01*
X1636614D01*
Y400201D01*
X1636943D01*
Y400091D01*
X1637272D01*
Y399981D01*
X1637382D01*
Y399871D01*
X1637712D01*
Y399761D01*
X1637822D01*
Y399651D01*
X1638041D01*
Y399542D01*
X1638261D01*
Y399432D01*
X1638371D01*
Y399322D01*
X1638590D01*
Y399212D01*
X1638700D01*
Y399102D01*
X1638920D01*
Y398993D01*
X1639029D01*
Y398883D01*
X1639139D01*
Y398773D01*
X1639249D01*
Y398663D01*
X1639359D01*
Y398553D01*
X1639469D01*
Y398444D01*
X1639578D01*
Y398334D01*
X1639688D01*
Y398224D01*
X1639798D01*
Y398114D01*
X1639908D01*
Y398004D01*
X1640018D01*
Y397895D01*
X1640128D01*
Y397785D01*
X1640237D01*
Y397565D01*
X1640347D01*
Y397455D01*
X1640457D01*
Y397236D01*
X1640567D01*
Y397126D01*
X1640677D01*
Y397016D01*
X1640786D01*
Y396796D01*
X1640896D01*
Y396687D01*
X1641006D01*
Y396357D01*
X1641116D01*
Y396247D01*
X1641225D01*
Y396028D01*
X1641335D01*
Y395808D01*
X1641445D01*
Y395588D01*
X1641555D01*
Y395369D01*
X1641665D01*
Y395149D01*
X1641775D01*
Y394820D01*
X1641884D01*
Y394710D01*
X1641994D01*
Y394381D01*
X1642104D01*
Y394051D01*
X1642214D01*
Y393832D01*
X1642324D01*
Y393392D01*
X1642433D01*
Y393173D01*
X1642543D01*
Y392733D01*
X1642653D01*
Y392514D01*
X1642763D01*
Y392184D01*
X1642873D01*
Y391635D01*
X1642982D01*
Y391416D01*
X1643092D01*
Y390867D01*
X1643202D01*
Y390647D01*
X1643312D01*
Y390098D01*
X1643422D01*
Y389769D01*
X1643531D01*
Y389439D01*
X1643641D01*
Y389000D01*
X1643751D01*
Y388671D01*
X1643861D01*
Y388231D01*
X1643971D01*
Y387902D01*
X1644081D01*
Y387573D01*
X1644190D01*
Y387243D01*
X1644300D01*
Y387024D01*
X1644410D01*
Y386694D01*
X1644520D01*
Y386474D01*
X1644630D01*
Y386255D01*
X1644739D01*
Y386035D01*
X1644849D01*
Y385816D01*
X1644959D01*
Y385596D01*
X1645069D01*
Y385486D01*
X1645179D01*
Y385376D01*
X1645289D01*
Y385266D01*
X1645398D01*
Y385157D01*
X1645508D01*
Y385047D01*
X1645618D01*
Y384937D01*
X1645728D01*
Y384827D01*
X1645947D01*
Y384717D01*
X1646057D01*
Y384608D01*
X1646716D01*
Y384498D01*
X1647155D01*
Y384608D01*
X1647704D01*
Y384717D01*
X1647924D01*
Y384827D01*
X1648143D01*
Y384937D01*
X1648253D01*
Y385047D01*
X1648363D01*
Y385157D01*
X1648473D01*
Y385266D01*
X1648583D01*
Y385376D01*
X1648692D01*
Y385596D01*
X1648802D01*
Y385706D01*
X1648912D01*
Y386035D01*
X1649022D01*
Y386255D01*
X1649132D01*
Y386804D01*
X1649242D01*
Y387573D01*
X1649351D01*
Y388671D01*
X1649242D01*
Y389220D01*
X1649132D01*
Y389769D01*
X1649022D01*
Y389988D01*
X1648912D01*
Y390318D01*
X1648802D01*
Y390537D01*
X1648692D01*
Y390757D01*
X1648583D01*
Y390977D01*
X1648473D01*
Y391086D01*
X1648363D01*
Y391196D01*
X1648253D01*
Y391306D01*
X1648143D01*
Y391416D01*
X1648034D01*
Y391526D01*
X1647924D01*
Y391635D01*
X1647814D01*
Y391745D01*
X1647704D01*
Y391855D01*
X1647594D01*
Y391965D01*
X1647375D01*
Y392075D01*
X1647265D01*
Y392184D01*
X1647045D01*
Y392294D01*
X1646826D01*
Y392404D01*
X1646716D01*
Y392514D01*
X1646387D01*
Y392624D01*
X1646277D01*
Y392953D01*
X1646387D01*
Y393173D01*
X1646496D01*
Y393612D01*
X1646606D01*
Y393832D01*
X1646716D01*
Y394051D01*
X1646826D01*
Y394381D01*
X1646936D01*
Y394600D01*
X1647045D01*
Y395039D01*
X1647155D01*
Y395149D01*
X1647265D01*
Y395588D01*
X1647375D01*
Y395808D01*
X1647485D01*
Y396028D01*
X1647594D01*
Y396467D01*
X1647704D01*
Y396577D01*
X1647814D01*
Y397016D01*
X1647924D01*
Y397236D01*
X1648034D01*
Y397455D01*
X1648143D01*
Y397785D01*
X1648253D01*
Y398004D01*
X1648363D01*
Y398444D01*
X1648473D01*
Y398663D01*
X1648583D01*
Y398993D01*
X1648692D01*
Y399212D01*
X1648802D01*
Y399432D01*
X1648912D01*
Y399761D01*
X1649242D01*
Y399651D01*
X1649681D01*
Y399542D01*
X1649900D01*
Y399432D01*
X1650010D01*
Y399322D01*
X1650340D01*
Y399212D01*
X1650450D01*
Y399102D01*
X1650779D01*
Y398993D01*
X1650889D01*
Y398883D01*
X1651108D01*
Y398773D01*
X1651218D01*
Y398663D01*
X1651328D01*
Y398553D01*
X1651548D01*
Y398444D01*
X1651657D01*
Y398334D01*
X1651877D01*
Y398224D01*
X1651987D01*
Y398114D01*
X1652097D01*
Y398004D01*
X1652206D01*
Y397895D01*
X1652316D01*
Y397785D01*
X1652426D01*
Y397675D01*
X1652536D01*
Y397565D01*
X1652646D01*
Y397455D01*
X1652755D01*
Y397346D01*
X1652865D01*
Y397126D01*
X1652975D01*
Y397016D01*
X1653085D01*
Y396906D01*
X1653195D01*
Y396796D01*
X1653304D01*
Y396577D01*
X1653414D01*
Y396467D01*
X1653524D01*
Y396357D01*
X1653634D01*
Y396028D01*
X1653744D01*
Y395918D01*
X1653853D01*
Y395698D01*
X1653963D01*
Y395479D01*
X1654073D01*
Y395369D01*
X1654183D01*
Y395039D01*
X1654293D01*
Y394930D01*
X1654403D01*
Y394600D01*
X1654512D01*
Y394381D01*
X1654622D01*
Y394051D01*
X1654732D01*
Y393722D01*
X1654842D01*
Y393502D01*
X1654952D01*
Y392953D01*
X1655061D01*
Y392733D01*
X1655171D01*
Y392184D01*
X1655281D01*
Y391635D01*
X1655391D01*
Y391086D01*
X1655501D01*
Y389879D01*
X1655611D01*
Y388231D01*
X1655720D01*
Y388012D01*
X1655611D01*
Y386474D01*
X1655501D01*
Y385157D01*
X1655391D01*
Y384608D01*
X1655281D01*
Y384168D01*
X1655171D01*
Y383510D01*
X1655061D01*
Y383290D01*
X1654952D01*
Y382741D01*
X1654842D01*
Y382521D01*
X1654732D01*
Y382192D01*
X1654622D01*
Y381862D01*
X1654512D01*
Y381643D01*
X1654403D01*
Y381313D01*
X1654293D01*
Y381204D01*
X1654183D01*
Y380874D01*
X1654073D01*
Y380655D01*
X1653963D01*
Y380545D01*
X1653853D01*
Y380325D01*
X1653744D01*
Y380215D01*
X1653634D01*
Y379886D01*
X1653524D01*
Y379776D01*
X1653414D01*
Y379666D01*
X1653304D01*
Y379447D01*
X1653195D01*
Y379337D01*
X1653085D01*
Y379227D01*
X1652975D01*
Y379117D01*
X1652865D01*
Y378898D01*
X1652755D01*
Y378788D01*
X1652646D01*
Y378678D01*
X1652536D01*
Y378568D01*
X1652426D01*
Y378458D01*
X1652316D01*
Y378349D01*
X1652206D01*
Y378239D01*
X1652097D01*
Y378129D01*
X1651987D01*
Y378019D01*
X1651767D01*
Y377909D01*
X1651657D01*
Y377799D01*
X1651548D01*
Y377690D01*
X1651328D01*
Y377580D01*
X1651218D01*
Y377470D01*
X1650999D01*
Y377360D01*
X1650889D01*
Y377251D01*
X1650669D01*
Y377141D01*
X1650450D01*
Y377031D01*
X1650340D01*
Y376921D01*
X1650010D01*
Y376811D01*
X1649791D01*
Y376702D01*
X1649461D01*
Y376592D01*
X1649242D01*
Y376482D01*
X1648802D01*
Y376372D01*
X1648253D01*
Y376262D01*
X1647814D01*
Y376152D01*
X1645069D01*
Y376262D01*
X1644630D01*
Y376372D01*
X1644081D01*
Y376482D01*
X1643751D01*
Y376592D01*
X1643531D01*
Y376702D01*
X1643202D01*
Y376811D01*
X1642982D01*
Y376921D01*
X1642763D01*
Y377031D01*
X1642543D01*
Y377141D01*
X1642433D01*
Y377251D01*
X1642214D01*
Y377360D01*
X1642104D01*
Y377470D01*
X1641884D01*
Y377580D01*
X1641775D01*
Y377690D01*
X1641665D01*
Y377799D01*
X1641445D01*
Y377909D01*
X1641335D01*
Y378019D01*
X1641225D01*
Y378129D01*
X1641116D01*
Y378239D01*
X1641006D01*
Y378349D01*
X1640896D01*
Y378458D01*
X1640786D01*
Y378568D01*
X1640677D01*
Y378788D01*
X1640567D01*
Y378898D01*
X1640457D01*
Y379007D01*
X1640347D01*
Y379117D01*
X1640237D01*
Y379337D01*
X1640128D01*
Y379447D01*
X1640018D01*
Y379666D01*
X1639908D01*
Y379776D01*
X1639798D01*
Y379886D01*
X1639688D01*
Y380215D01*
X1639578D01*
Y380325D01*
X1639469D01*
Y380545D01*
X1639359D01*
Y380764D01*
X1639249D01*
Y380874D01*
X1639139D01*
Y381204D01*
X1639029D01*
Y381423D01*
X1638920D01*
Y381643D01*
X1638810D01*
Y381862D01*
X1638700D01*
Y382082D01*
X1638590D01*
Y382521D01*
X1638480D01*
Y382631D01*
X1638371D01*
Y383070D01*
X1638261D01*
Y383290D01*
X1638151D01*
Y383619D01*
X1638041D01*
Y383949D01*
X1637931D01*
Y384168D01*
X1637822D01*
Y384717D01*
X1637712D01*
Y384937D01*
X1637602D01*
Y385376D01*
X1637492D01*
Y385706D01*
X1637382D01*
Y385925D01*
X1637272D01*
Y386474D01*
X1637163D01*
Y386694D01*
X1637053D01*
Y387133D01*
X1636943D01*
Y387463D01*
X1636833D01*
Y387792D01*
X1636723D01*
Y388122D01*
X1636614D01*
Y388451D01*
X1636504D01*
Y388780D01*
X1636394D01*
Y389000D01*
X1636284D01*
Y389329D01*
X1636174D01*
Y389549D01*
X1636064D01*
Y389769D01*
X1635955D01*
Y390098D01*
X1635845D01*
Y390208D01*
X1635735D01*
Y390537D01*
X1635625D01*
Y390647D01*
X1635515D01*
Y390867D01*
X1635406D01*
Y390977D01*
X1635296D01*
Y391086D01*
X1635186D01*
Y391306D01*
X1635076D01*
Y391416D01*
X1634966D01*
Y391526D01*
X1634857D01*
Y391635D01*
X1634747D01*
Y391745D01*
X1634527D01*
Y391855D01*
X1634417D01*
Y391965D01*
X1634198D01*
Y392075D01*
X1633978D01*
Y392184D01*
X1632551D01*
Y392075D01*
X1632331D01*
Y391965D01*
X1632002D01*
Y391855D01*
X1631892D01*
Y391745D01*
X1631782D01*
Y391635D01*
X1631562D01*
Y391526D01*
X1631453D01*
Y391306D01*
X1631343D01*
Y391196D01*
X1631233D01*
Y390977D01*
X1631123D01*
Y390867D01*
X1631013D01*
Y390647D01*
X1630903D01*
Y390318D01*
X1630794D01*
Y390098D01*
X1630684D01*
Y389439D01*
X1630574D01*
Y388780D01*
X1630464D01*
Y387573D01*
X1630574D01*
Y386914D01*
X1630684D01*
Y386145D01*
X1630794D01*
Y385816D01*
X1630903D01*
Y385486D01*
X1631013D01*
Y385047D01*
X1631123D01*
Y384937D01*
X1631233D01*
Y384608D01*
X1631343D01*
Y384498D01*
X1631453D01*
Y384278D01*
X1631562D01*
Y384059D01*
X1631672D01*
Y383949D01*
X1631782D01*
Y383839D01*
X1631892D01*
Y383729D01*
X1632002D01*
Y383510D01*
X1632111D01*
Y383400D01*
X1632221D01*
Y383290D01*
X1632331D01*
Y383180D01*
X1632441D01*
Y383070D01*
X1632551D01*
Y382961D01*
X1632770D01*
Y382851D01*
X1632880D01*
Y382741D01*
X1632990D01*
Y382631D01*
X1633100D01*
Y382521D01*
X1633319D01*
Y382411D01*
X1633539D01*
Y382302D01*
X1633759D01*
Y382192D01*
X1634088D01*
Y382082D01*
X1634198D01*
Y381972D01*
X1634637D01*
Y381533D01*
X1634527D01*
Y381313D01*
X1634417D01*
Y380874D01*
X1634308D01*
Y380655D01*
X1634198D01*
Y380435D01*
X1634088D01*
Y380106D01*
X1633978D01*
Y379886D01*
X1633868D01*
Y379447D01*
X1633759D01*
Y379337D01*
X1633649D01*
Y378898D01*
X1633539D01*
Y378678D01*
X1633429D01*
Y378458D01*
X1633319D01*
Y378019D01*
X1633210D01*
Y377909D01*
X1633100D01*
Y377470D01*
X1632990D01*
Y377251D01*
X1632880D01*
Y376921D01*
X1632770D01*
Y376592D01*
X1632661D01*
Y376482D01*
X1632551D01*
Y376043D01*
X1632441D01*
Y375823D01*
X1632331D01*
Y375494D01*
X1632221D01*
Y375274D01*
X1632111D01*
Y375054D01*
X1632002D01*
Y374835D01*
X1631892D01*
Y374725D01*
X1631782D01*
Y374835D01*
X1631343D01*
Y374944D01*
X1631123D01*
Y375054D01*
X1630903D01*
Y375164D01*
X1630574D01*
Y375274D01*
X1630464D01*
Y375384D01*
X1630135D01*
Y375494D01*
X1630025D01*
Y375603D01*
X1629805D01*
Y375713D01*
X1629586D01*
Y375823D01*
X1629476D01*
Y375933D01*
X1629256D01*
Y376043D01*
X1629147D01*
Y376152D01*
X1628927D01*
Y376262D01*
X1628817D01*
Y376372D01*
X1628598D01*
Y376482D01*
X1628488D01*
Y376592D01*
X1628378D01*
Y376702D01*
X1628158D01*
Y376921D01*
X1627939D01*
Y377031D01*
X1627829D01*
Y377141D01*
X1627719D01*
Y377251D01*
X1627609D01*
Y377360D01*
X1627500D01*
Y377470D01*
X1627390D01*
Y377580D01*
X1627280D01*
Y377799D01*
X1627060D01*
Y378019D01*
X1626950D01*
Y378129D01*
X1626841D01*
Y378239D01*
X1626731D01*
Y378458D01*
X1626621D01*
Y378568D01*
X1626511D01*
Y378788D01*
X1626401D01*
Y378898D01*
X1626292D01*
Y379007D01*
X1626182D01*
Y379227D01*
X1626072D01*
Y379337D01*
X1625962D01*
Y379666D01*
X1625852D01*
Y379776D01*
X1625742D01*
Y379996D01*
X1625633D01*
Y380215D01*
X1625523D01*
Y380435D01*
X1625413D01*
Y380764D01*
X1625303D01*
Y380874D01*
X1625193D01*
Y381204D01*
X1625084D01*
Y381423D01*
X1624974D01*
Y381753D01*
X1624864D01*
Y382082D01*
X1624754D01*
Y382411D01*
X1624644D01*
Y382961D01*
X1624535D01*
Y383180D01*
X1624425D01*
Y383839D01*
X1624315D01*
Y384278D01*
X1624205D01*
Y384937D01*
X1624095D01*
Y386255D01*
X1623986D01*
Y389659D01*
X1624095D01*
Y390977D01*
X1624205D01*
Y391526D01*
X1624315D01*
Y392075D01*
X1624425D01*
Y392624D01*
X1624535D01*
Y392953D01*
X1624644D01*
Y393502D01*
X1624754D01*
Y393722D01*
X1624864D01*
Y394051D01*
X1624974D01*
Y394381D01*
X1625084D01*
Y394600D01*
X1625193D01*
Y394930D01*
X1625303D01*
Y395149D01*
X1625413D01*
Y395369D01*
X1625523D01*
Y395588D01*
X1625633D01*
Y395808D01*
X1625742D01*
Y396028D01*
X1625852D01*
Y396138D01*
X1625962D01*
Y396357D01*
X1626072D01*
Y396577D01*
X1626182D01*
Y396687D01*
X1626292D01*
Y396906D01*
X1626401D01*
Y397016D01*
X1626511D01*
Y397236D01*
X1626621D01*
Y397346D01*
X1626731D01*
Y397455D01*
X1626841D01*
Y397565D01*
X1626950D01*
Y397675D01*
X1627060D01*
Y397895D01*
X1627170D01*
Y398004D01*
X1627280D01*
Y398114D01*
X1627390D01*
Y398224D01*
X1627500D01*
Y398334D01*
X1627719D01*
Y398444D01*
X1627829D01*
Y398553D01*
X1627939D01*
Y398663D01*
X1628049D01*
Y398773D01*
X1628158D01*
Y398883D01*
X1628378D01*
Y398993D01*
X1628488D01*
Y399102D01*
X1628598D01*
Y399212D01*
X1628707D01*
Y399322D01*
X1629037D01*
Y399432D01*
X1629147D01*
Y399542D01*
X1629366D01*
Y399651D01*
X1629586D01*
Y399761D01*
X1629696D01*
Y399871D01*
X1630025D01*
Y399981D01*
X1630245D01*
Y400091D01*
X1630574D01*
Y400201D01*
X1630903D01*
Y400310D01*
X1631233D01*
Y400420D01*
X1631892D01*
Y400530D01*
X1632331D01*
Y400640D01*
X1635186D01*
Y400530D01*
D02*
G37*
G36*
X1661540Y373187D02*
X1661760D01*
Y373078D01*
X1662089D01*
Y372968D01*
X1662419D01*
Y372858D01*
X1662528D01*
Y372748D01*
X1662748D01*
Y372639D01*
X1662858D01*
Y372529D01*
X1663078D01*
Y372419D01*
X1663187D01*
Y372309D01*
X1663297D01*
Y372199D01*
X1663407D01*
Y372090D01*
X1663517D01*
Y371980D01*
X1663627D01*
Y371760D01*
X1663736D01*
Y371650D01*
X1663846D01*
Y371540D01*
X1663956D01*
Y371321D01*
X1664066D01*
Y371211D01*
X1664176D01*
Y370882D01*
X1664285D01*
Y370662D01*
X1664395D01*
Y370223D01*
X1664505D01*
Y369674D01*
X1664615D01*
Y368576D01*
X1664505D01*
Y368027D01*
X1664395D01*
Y367587D01*
X1664285D01*
Y367368D01*
X1664176D01*
Y367038D01*
X1664066D01*
Y366928D01*
X1663956D01*
Y366709D01*
X1663846D01*
Y366489D01*
X1663736D01*
Y366379D01*
X1663627D01*
Y366270D01*
X1663517D01*
Y366160D01*
X1663407D01*
Y366050D01*
X1663297D01*
Y365940D01*
X1663187D01*
Y365830D01*
X1663078D01*
Y365721D01*
X1662968D01*
Y365611D01*
X1662748D01*
Y365501D01*
X1662638D01*
Y365391D01*
X1662419D01*
Y365281D01*
X1662199D01*
Y365172D01*
X1661979D01*
Y365062D01*
X1661540D01*
Y364952D01*
X1661211D01*
Y364842D01*
X1659673D01*
Y364952D01*
X1659344D01*
Y365062D01*
X1658905D01*
Y365172D01*
X1658685D01*
Y365281D01*
X1658466D01*
Y365391D01*
X1658246D01*
Y365501D01*
X1658136D01*
Y365611D01*
X1657916D01*
Y365721D01*
X1657807D01*
Y365830D01*
X1657697D01*
Y365940D01*
X1657587D01*
Y366050D01*
X1657477D01*
Y366160D01*
X1657367D01*
Y366270D01*
X1657258D01*
Y366379D01*
X1657148D01*
Y366489D01*
X1657038D01*
Y366709D01*
X1656928D01*
Y366928D01*
X1656818D01*
Y367148D01*
X1656709D01*
Y367368D01*
X1656599D01*
Y367587D01*
X1656489D01*
Y368136D01*
X1656379D01*
Y368576D01*
X1656269D01*
Y369674D01*
X1656379D01*
Y370113D01*
X1656489D01*
Y370662D01*
X1656599D01*
Y370882D01*
X1656709D01*
Y371101D01*
X1656818D01*
Y371321D01*
X1656928D01*
Y371431D01*
X1657038D01*
Y371650D01*
X1657148D01*
Y371760D01*
X1657258D01*
Y371980D01*
X1657367D01*
Y372090D01*
X1657477D01*
Y372199D01*
X1657587D01*
Y372309D01*
X1657697D01*
Y372419D01*
X1657807D01*
Y372529D01*
X1658026D01*
Y372639D01*
X1658136D01*
Y372748D01*
X1658356D01*
Y372858D01*
X1658466D01*
Y372968D01*
X1658795D01*
Y373078D01*
X1659124D01*
Y373187D01*
X1659454D01*
Y373297D01*
X1661540D01*
Y373187D01*
D02*
G37*
G36*
X1654952Y364842D02*
X1624754D01*
Y364952D01*
X1624644D01*
Y373187D01*
X1624754D01*
Y373297D01*
X1654952D01*
Y364842D01*
D02*
G37*
G36*
X1644520Y361877D02*
X1645728D01*
Y361768D01*
X1646277D01*
Y361658D01*
X1647045D01*
Y361548D01*
X1647375D01*
Y361438D01*
X1647814D01*
Y361328D01*
X1648143D01*
Y361218D01*
X1648473D01*
Y361109D01*
X1648802D01*
Y360999D01*
X1649022D01*
Y360889D01*
X1649351D01*
Y360779D01*
X1649461D01*
Y360669D01*
X1649791D01*
Y360560D01*
X1650010D01*
Y360450D01*
X1650120D01*
Y360340D01*
X1650340D01*
Y360230D01*
X1650559D01*
Y360120D01*
X1650779D01*
Y360010D01*
X1650889D01*
Y359901D01*
X1650999D01*
Y359791D01*
X1651218D01*
Y359681D01*
X1651328D01*
Y359571D01*
X1651548D01*
Y359462D01*
X1651657D01*
Y359352D01*
X1651767D01*
Y359242D01*
X1651877D01*
Y359132D01*
X1651987D01*
Y359022D01*
X1652206D01*
Y358912D01*
X1652316D01*
Y358803D01*
X1652426D01*
Y358693D01*
X1652536D01*
Y358583D01*
X1652646D01*
Y358473D01*
X1652755D01*
Y358363D01*
X1652865D01*
Y358144D01*
X1652975D01*
Y358034D01*
X1653085D01*
Y357924D01*
X1653195D01*
Y357814D01*
X1653304D01*
Y357595D01*
X1653414D01*
Y357485D01*
X1653524D01*
Y357375D01*
X1653634D01*
Y357155D01*
X1653744D01*
Y357046D01*
X1653853D01*
Y356826D01*
X1653963D01*
Y356716D01*
X1654073D01*
Y356497D01*
X1654183D01*
Y356277D01*
X1654293D01*
Y356167D01*
X1654403D01*
Y355838D01*
X1654512D01*
Y355618D01*
X1654622D01*
Y355399D01*
X1654732D01*
Y355069D01*
X1654842D01*
Y354959D01*
X1654952D01*
Y354520D01*
X1655061D01*
Y354300D01*
X1655171D01*
Y353751D01*
X1655281D01*
Y353422D01*
X1655391D01*
Y352983D01*
X1655501D01*
Y352104D01*
X1655611D01*
Y351445D01*
X1655720D01*
Y348810D01*
X1655611D01*
Y348151D01*
X1655501D01*
Y347273D01*
X1655391D01*
Y346833D01*
X1655281D01*
Y346394D01*
X1655171D01*
Y345955D01*
X1655061D01*
Y345735D01*
X1654952D01*
Y345296D01*
X1654842D01*
Y345077D01*
X1654732D01*
Y344747D01*
X1654622D01*
Y344528D01*
X1654512D01*
Y344308D01*
X1654403D01*
Y343979D01*
X1654293D01*
Y343869D01*
X1654183D01*
Y343649D01*
X1654073D01*
Y343429D01*
X1653963D01*
Y343320D01*
X1653853D01*
Y342990D01*
X1653744D01*
Y342880D01*
X1653634D01*
Y342661D01*
X1653524D01*
Y342551D01*
X1653414D01*
Y342441D01*
X1653304D01*
Y342221D01*
X1653195D01*
Y342112D01*
X1653085D01*
Y342002D01*
X1652975D01*
Y341892D01*
X1652865D01*
Y341673D01*
X1652755D01*
Y341563D01*
X1652646D01*
Y341453D01*
X1652536D01*
Y341343D01*
X1652426D01*
Y341233D01*
X1652316D01*
Y341123D01*
X1652426D01*
Y341014D01*
X1654952D01*
Y332998D01*
X1624754D01*
Y333107D01*
X1624644D01*
Y341343D01*
X1624754D01*
Y341453D01*
X1642982D01*
Y341563D01*
X1643531D01*
Y341673D01*
X1644190D01*
Y341782D01*
X1644410D01*
Y341892D01*
X1644739D01*
Y342002D01*
X1644849D01*
Y342112D01*
X1645069D01*
Y342221D01*
X1645289D01*
Y342331D01*
X1645508D01*
Y342441D01*
X1645618D01*
Y342551D01*
X1645728D01*
Y342661D01*
X1645947D01*
Y342771D01*
X1646057D01*
Y342880D01*
X1646167D01*
Y342990D01*
X1646277D01*
Y343100D01*
X1646387D01*
Y343210D01*
X1646496D01*
Y343320D01*
X1646606D01*
Y343429D01*
X1646716D01*
Y343539D01*
X1646826D01*
Y343759D01*
X1646936D01*
Y343869D01*
X1647045D01*
Y344088D01*
X1647155D01*
Y344198D01*
X1647265D01*
Y344418D01*
X1647375D01*
Y344637D01*
X1647485D01*
Y344857D01*
X1647594D01*
Y345186D01*
X1647704D01*
Y345296D01*
X1647814D01*
Y345845D01*
X1647924D01*
Y346175D01*
X1648034D01*
Y346943D01*
X1648143D01*
Y348261D01*
X1648034D01*
Y348920D01*
X1647924D01*
Y349359D01*
X1647814D01*
Y349798D01*
X1647704D01*
Y350018D01*
X1647594D01*
Y350347D01*
X1647485D01*
Y350567D01*
X1647375D01*
Y350787D01*
X1647265D01*
Y351006D01*
X1647155D01*
Y351116D01*
X1647045D01*
Y351336D01*
X1646936D01*
Y351445D01*
X1646826D01*
Y351555D01*
X1646716D01*
Y351665D01*
X1646606D01*
Y351775D01*
X1646496D01*
Y351885D01*
X1646387D01*
Y351995D01*
X1646277D01*
Y352104D01*
X1646167D01*
Y352214D01*
X1646057D01*
Y352324D01*
X1645947D01*
Y352434D01*
X1645728D01*
Y352543D01*
X1645508D01*
Y352653D01*
X1645398D01*
Y352763D01*
X1645179D01*
Y352873D01*
X1644959D01*
Y352983D01*
X1644630D01*
Y353093D01*
X1644410D01*
Y353202D01*
X1643971D01*
Y353312D01*
X1643531D01*
Y353422D01*
X1642873D01*
Y353532D01*
X1624754D01*
Y353642D01*
X1624644D01*
Y361877D01*
X1624864D01*
Y361987D01*
X1644520D01*
Y361877D01*
D02*
G37*
G36*
X1153891Y340000D02*
X1143891Y330000D01*
Y350000D01*
X1153891Y340000D01*
D02*
G37*
G36*
X1641994Y330472D02*
X1642543D01*
Y330362D01*
X1643312D01*
Y330252D01*
X1643751D01*
Y330143D01*
X1644081D01*
Y330033D01*
X1644630D01*
Y329923D01*
X1644849D01*
Y329813D01*
X1645289D01*
Y329703D01*
X1645508D01*
Y329594D01*
X1645838D01*
Y329484D01*
X1646167D01*
Y329374D01*
X1646277D01*
Y329264D01*
X1646716D01*
Y329154D01*
X1646826D01*
Y329044D01*
X1647155D01*
Y328935D01*
X1647265D01*
Y328825D01*
X1647485D01*
Y328715D01*
X1647704D01*
Y328605D01*
X1647924D01*
Y328495D01*
X1648143D01*
Y328386D01*
X1648253D01*
Y328276D01*
X1648473D01*
Y328166D01*
X1648583D01*
Y328056D01*
X1648802D01*
Y327946D01*
X1649022D01*
Y327837D01*
X1649132D01*
Y327727D01*
X1649242D01*
Y327617D01*
X1649351D01*
Y327507D01*
X1649571D01*
Y327397D01*
X1649681D01*
Y327287D01*
X1649791D01*
Y327178D01*
X1650010D01*
Y327068D01*
X1650120D01*
Y326958D01*
X1650230D01*
Y326848D01*
X1650340D01*
Y326739D01*
X1650450D01*
Y326629D01*
X1650559D01*
Y326519D01*
X1650669D01*
Y326409D01*
X1650779D01*
Y326299D01*
X1650999D01*
Y326080D01*
X1651218D01*
Y325860D01*
X1651328D01*
Y325750D01*
X1651438D01*
Y325640D01*
X1651548D01*
Y325531D01*
X1651657D01*
Y325421D01*
X1651767D01*
Y325311D01*
X1651877D01*
Y325201D01*
X1651987D01*
Y324982D01*
X1652097D01*
Y324872D01*
X1652206D01*
Y324762D01*
X1652316D01*
Y324542D01*
X1652426D01*
Y324432D01*
X1652536D01*
Y324323D01*
X1652646D01*
Y324103D01*
X1652755D01*
Y323993D01*
X1652865D01*
Y323774D01*
X1652975D01*
Y323664D01*
X1653085D01*
Y323444D01*
X1653195D01*
Y323334D01*
X1653304D01*
Y323115D01*
X1653414D01*
Y322895D01*
X1653524D01*
Y322785D01*
X1653634D01*
Y322456D01*
X1653744D01*
Y322346D01*
X1653853D01*
Y322017D01*
X1653963D01*
Y321907D01*
X1654073D01*
Y321687D01*
X1654183D01*
Y321358D01*
X1654293D01*
Y321138D01*
X1654403D01*
Y320809D01*
X1654512D01*
Y320589D01*
X1654622D01*
Y320260D01*
X1654732D01*
Y319930D01*
X1654842D01*
Y319601D01*
X1654952D01*
Y319162D01*
X1655061D01*
Y318832D01*
X1655171D01*
Y318173D01*
X1655281D01*
Y317734D01*
X1655391D01*
Y317185D01*
X1655501D01*
Y315977D01*
X1655611D01*
Y314440D01*
X1655720D01*
Y314220D01*
X1655611D01*
Y312573D01*
X1655501D01*
Y311365D01*
X1655391D01*
Y310816D01*
X1655281D01*
Y310377D01*
X1655171D01*
Y309828D01*
X1655061D01*
Y309499D01*
X1654952D01*
Y308950D01*
X1654842D01*
Y308730D01*
X1654732D01*
Y308291D01*
X1654622D01*
Y308071D01*
X1654512D01*
Y307742D01*
X1654403D01*
Y307412D01*
X1654293D01*
Y307302D01*
X1654183D01*
Y306863D01*
X1654073D01*
Y306753D01*
X1653963D01*
Y306534D01*
X1653853D01*
Y306204D01*
X1653744D01*
Y306094D01*
X1653634D01*
Y305875D01*
X1653524D01*
Y305655D01*
X1653414D01*
Y305436D01*
X1653304D01*
Y305326D01*
X1653195D01*
Y305106D01*
X1653085D01*
Y304887D01*
X1652975D01*
Y304777D01*
X1652865D01*
Y304557D01*
X1652755D01*
Y304447D01*
X1652646D01*
Y304338D01*
X1652536D01*
Y304118D01*
X1652426D01*
Y304008D01*
X1652316D01*
Y303789D01*
X1652206D01*
Y303679D01*
X1652097D01*
Y303569D01*
X1651987D01*
Y303459D01*
X1651877D01*
Y303349D01*
X1651767D01*
Y303130D01*
X1651657D01*
Y303020D01*
X1651548D01*
Y302910D01*
X1651438D01*
Y302800D01*
X1651328D01*
Y302690D01*
X1651218D01*
Y302581D01*
X1651108D01*
Y302471D01*
X1650999D01*
Y302361D01*
X1650889D01*
Y302251D01*
X1650779D01*
Y302141D01*
X1650669D01*
Y302032D01*
X1650559D01*
Y301922D01*
X1650450D01*
Y301812D01*
X1650230D01*
Y301702D01*
X1650120D01*
Y301592D01*
X1650010D01*
Y301483D01*
X1649900D01*
Y301373D01*
X1649791D01*
Y301263D01*
X1649681D01*
Y301153D01*
X1649461D01*
Y301043D01*
X1649351D01*
Y300933D01*
X1649242D01*
Y300824D01*
X1649022D01*
Y300714D01*
X1648912D01*
Y300604D01*
X1648692D01*
Y300494D01*
X1648583D01*
Y300384D01*
X1648363D01*
Y300275D01*
X1648143D01*
Y300165D01*
X1648034D01*
Y300055D01*
X1647814D01*
Y299945D01*
X1647594D01*
Y299835D01*
X1647485D01*
Y299726D01*
X1647155D01*
Y299616D01*
X1647045D01*
Y299506D01*
X1646716D01*
Y299396D01*
X1646496D01*
Y299286D01*
X1646277D01*
Y299177D01*
X1645947D01*
Y299067D01*
X1645728D01*
Y298957D01*
X1645398D01*
Y298847D01*
X1645069D01*
Y298737D01*
X1644739D01*
Y298627D01*
X1644300D01*
Y298518D01*
X1643971D01*
Y298408D01*
X1643422D01*
Y298298D01*
X1643092D01*
Y298188D01*
X1642104D01*
Y298078D01*
X1641335D01*
Y297969D01*
X1638261D01*
Y298078D01*
X1637492D01*
Y298188D01*
X1636614D01*
Y298298D01*
X1636174D01*
Y298408D01*
X1635625D01*
Y298518D01*
X1635296D01*
Y298627D01*
X1634966D01*
Y298737D01*
X1634527D01*
Y298847D01*
X1634308D01*
Y298957D01*
X1633868D01*
Y299067D01*
X1633649D01*
Y299177D01*
X1633429D01*
Y299286D01*
X1633100D01*
Y299396D01*
X1632880D01*
Y299506D01*
X1632661D01*
Y299616D01*
X1632441D01*
Y299726D01*
X1632221D01*
Y299835D01*
X1632002D01*
Y299945D01*
X1631892D01*
Y300055D01*
X1631562D01*
Y300165D01*
X1631453D01*
Y300275D01*
X1631233D01*
Y300384D01*
X1631123D01*
Y300494D01*
X1630903D01*
Y300604D01*
X1630794D01*
Y300714D01*
X1630574D01*
Y300824D01*
X1630464D01*
Y300933D01*
X1630354D01*
Y301043D01*
X1630135D01*
Y301153D01*
X1630025D01*
Y301263D01*
X1629915D01*
Y301373D01*
X1629696D01*
Y301483D01*
X1629586D01*
Y301592D01*
X1629476D01*
Y301702D01*
X1629366D01*
Y301812D01*
X1629256D01*
Y301922D01*
X1629147D01*
Y302032D01*
X1629037D01*
Y302141D01*
X1628817D01*
Y302251D01*
X1628707D01*
Y302361D01*
X1628598D01*
Y302471D01*
X1628488D01*
Y302581D01*
X1628378D01*
Y302690D01*
X1628268D01*
Y302910D01*
X1628158D01*
Y303020D01*
X1628049D01*
Y303130D01*
X1627939D01*
Y303239D01*
X1627829D01*
Y303349D01*
X1627719D01*
Y303459D01*
X1627609D01*
Y303569D01*
X1627500D01*
Y303789D01*
X1627390D01*
Y303898D01*
X1627280D01*
Y304008D01*
X1627170D01*
Y304118D01*
X1627060D01*
Y304338D01*
X1626950D01*
Y304447D01*
X1626841D01*
Y304667D01*
X1626731D01*
Y304777D01*
X1626621D01*
Y304996D01*
X1626511D01*
Y305216D01*
X1626401D01*
Y305326D01*
X1626292D01*
Y305545D01*
X1626182D01*
Y305765D01*
X1626072D01*
Y305875D01*
X1625962D01*
Y306094D01*
X1625852D01*
Y306314D01*
X1625742D01*
Y306534D01*
X1625633D01*
Y306753D01*
X1625523D01*
Y306973D01*
X1625413D01*
Y307302D01*
X1625303D01*
Y307412D01*
X1625193D01*
Y307851D01*
X1625084D01*
Y308071D01*
X1624974D01*
Y308400D01*
X1624864D01*
Y308730D01*
X1624754D01*
Y308950D01*
X1624644D01*
Y309499D01*
X1624535D01*
Y309828D01*
X1624425D01*
Y310487D01*
X1624315D01*
Y310926D01*
X1624205D01*
Y311475D01*
X1624095D01*
Y312683D01*
X1623986D01*
Y315867D01*
X1624095D01*
Y317075D01*
X1624205D01*
Y317734D01*
X1624315D01*
Y318173D01*
X1624425D01*
Y318722D01*
X1624535D01*
Y319052D01*
X1624644D01*
Y319601D01*
X1624754D01*
Y319821D01*
X1624864D01*
Y320260D01*
X1624974D01*
Y320479D01*
X1625084D01*
Y320699D01*
X1625193D01*
Y321138D01*
X1625303D01*
Y321248D01*
X1625413D01*
Y321577D01*
X1625523D01*
Y321797D01*
X1625633D01*
Y322017D01*
X1625742D01*
Y322346D01*
X1625852D01*
Y322456D01*
X1625962D01*
Y322676D01*
X1626072D01*
Y322895D01*
X1626182D01*
Y323115D01*
X1626292D01*
Y323225D01*
X1626401D01*
Y323444D01*
X1626511D01*
Y323664D01*
X1626621D01*
Y323774D01*
X1626731D01*
Y323993D01*
X1626841D01*
Y324103D01*
X1626950D01*
Y324213D01*
X1627060D01*
Y324432D01*
X1627170D01*
Y324542D01*
X1627280D01*
Y324762D01*
X1627390D01*
Y324872D01*
X1627500D01*
Y324982D01*
X1627609D01*
Y325091D01*
X1627719D01*
Y325201D01*
X1627829D01*
Y325421D01*
X1627939D01*
Y325531D01*
X1628049D01*
Y325640D01*
X1628158D01*
Y325750D01*
X1628268D01*
Y325860D01*
X1628378D01*
Y325970D01*
X1628488D01*
Y326080D01*
X1628598D01*
Y326189D01*
X1628707D01*
Y326299D01*
X1628817D01*
Y326409D01*
X1628927D01*
Y326519D01*
X1629037D01*
Y326629D01*
X1629147D01*
Y326739D01*
X1629256D01*
Y326848D01*
X1629366D01*
Y326958D01*
X1629586D01*
Y327068D01*
X1629696D01*
Y327178D01*
X1629805D01*
Y327287D01*
X1629915D01*
Y327397D01*
X1630135D01*
Y327507D01*
X1630245D01*
Y327617D01*
X1630354D01*
Y327727D01*
X1630574D01*
Y327837D01*
X1630684D01*
Y327946D01*
X1630903D01*
Y328056D01*
X1631013D01*
Y328166D01*
X1631233D01*
Y328276D01*
X1631343D01*
Y328386D01*
X1631562D01*
Y328495D01*
X1631782D01*
Y328605D01*
X1631892D01*
Y328715D01*
X1632111D01*
Y328825D01*
X1632331D01*
Y328935D01*
X1632551D01*
Y329044D01*
X1632770D01*
Y329154D01*
X1632990D01*
Y329264D01*
X1633319D01*
Y329374D01*
X1633429D01*
Y329484D01*
X1633759D01*
Y329594D01*
X1634088D01*
Y329703D01*
X1634308D01*
Y329813D01*
X1634747D01*
Y329923D01*
X1634966D01*
Y330033D01*
X1635515D01*
Y330143D01*
X1635845D01*
Y330252D01*
X1636284D01*
Y330362D01*
X1637053D01*
Y330472D01*
X1637602D01*
Y330582D01*
X1641994D01*
Y330472D01*
D02*
G37*
G36*
X1133891Y289750D02*
X1128891Y294750D01*
X1133891Y299750D01*
Y289750D01*
D02*
G37*
G36*
X1624864Y300824D02*
X1625084D01*
Y300714D01*
X1625193D01*
Y300604D01*
X1625303D01*
Y300494D01*
X1625523D01*
Y300384D01*
X1625633D01*
Y300275D01*
X1625852D01*
Y300165D01*
X1625962D01*
Y300055D01*
X1626072D01*
Y299945D01*
X1626182D01*
Y299835D01*
X1626401D01*
Y299726D01*
X1626511D01*
Y299616D01*
X1626621D01*
Y299506D01*
X1626841D01*
Y299396D01*
X1626950D01*
Y299286D01*
X1627060D01*
Y299177D01*
X1627280D01*
Y299067D01*
X1627390D01*
Y298957D01*
X1627500D01*
Y298847D01*
X1627719D01*
Y298737D01*
X1627829D01*
Y298627D01*
X1627939D01*
Y298518D01*
X1628158D01*
Y298408D01*
X1628268D01*
Y298298D01*
X1628378D01*
Y298188D01*
X1628598D01*
Y298078D01*
X1628707D01*
Y297969D01*
X1628817D01*
Y297859D01*
X1629037D01*
Y297749D01*
X1629147D01*
Y297639D01*
X1629366D01*
Y297529D01*
X1629476D01*
Y297420D01*
X1629586D01*
Y297310D01*
X1629696D01*
Y297200D01*
X1629915D01*
Y297090D01*
X1630025D01*
Y296980D01*
X1630135D01*
Y296871D01*
X1630354D01*
Y296761D01*
X1630464D01*
Y296651D01*
X1630574D01*
Y296541D01*
X1630794D01*
Y296431D01*
X1630903D01*
Y296322D01*
X1631123D01*
Y296212D01*
X1631233D01*
Y296102D01*
X1631343D01*
Y295992D01*
X1631453D01*
Y295882D01*
X1631672D01*
Y295772D01*
X1631782D01*
Y295663D01*
X1631892D01*
Y295553D01*
X1632111D01*
Y295443D01*
X1632221D01*
Y295333D01*
X1632331D01*
Y295223D01*
X1632551D01*
Y295114D01*
X1632661D01*
Y295004D01*
X1632770D01*
Y294894D01*
X1632880D01*
Y294784D01*
X1633100D01*
Y294674D01*
X1633210D01*
Y294565D01*
X1633429D01*
Y294455D01*
X1633539D01*
Y294345D01*
X1633649D01*
Y294235D01*
X1633868D01*
Y294125D01*
X1633978D01*
Y294016D01*
X1634088D01*
Y293906D01*
X1634308D01*
Y293796D01*
X1634417D01*
Y293686D01*
X1634637D01*
Y293576D01*
X1634747D01*
Y293466D01*
X1634857D01*
Y293357D01*
X1634966D01*
Y293247D01*
X1635186D01*
Y293137D01*
X1635296D01*
Y293027D01*
X1635406D01*
Y292917D01*
X1635625D01*
Y292808D01*
X1635735D01*
Y292698D01*
X1635845D01*
Y292588D01*
X1636064D01*
Y292478D01*
X1636174D01*
Y292368D01*
X1636394D01*
Y292259D01*
X1636504D01*
Y292149D01*
X1636614D01*
Y292039D01*
X1636723D01*
Y291929D01*
X1636943D01*
Y291819D01*
X1637053D01*
Y291710D01*
X1637163D01*
Y291600D01*
X1637382D01*
Y291490D01*
X1637492D01*
Y291380D01*
X1637602D01*
Y291270D01*
X1637822D01*
Y291161D01*
X1637931D01*
Y291051D01*
X1638041D01*
Y290941D01*
X1638151D01*
Y290831D01*
X1638371D01*
Y290721D01*
X1638480D01*
Y290611D01*
X1638700D01*
Y290502D01*
X1638810D01*
Y290392D01*
X1638920D01*
Y290282D01*
X1639139D01*
Y290172D01*
X1639249D01*
Y290062D01*
X1639359D01*
Y289953D01*
X1639578D01*
Y289843D01*
X1639688D01*
Y289733D01*
X1640128D01*
Y289843D01*
X1640237D01*
Y289953D01*
X1640457D01*
Y290062D01*
X1640567D01*
Y290172D01*
X1640677D01*
Y290282D01*
X1640896D01*
Y290392D01*
X1641006D01*
Y290502D01*
X1641225D01*
Y290611D01*
X1641335D01*
Y290721D01*
X1641445D01*
Y290831D01*
X1641665D01*
Y290941D01*
X1641775D01*
Y291051D01*
X1641884D01*
Y291161D01*
X1642104D01*
Y291270D01*
X1642214D01*
Y291380D01*
X1642324D01*
Y291490D01*
X1642433D01*
Y291600D01*
X1642653D01*
Y291710D01*
X1642763D01*
Y291819D01*
X1642982D01*
Y291929D01*
X1643092D01*
Y292039D01*
X1643202D01*
Y292149D01*
X1643422D01*
Y292259D01*
X1643531D01*
Y292368D01*
X1643751D01*
Y292478D01*
X1643861D01*
Y292588D01*
X1643971D01*
Y292698D01*
X1644190D01*
Y292808D01*
X1644300D01*
Y292917D01*
X1644410D01*
Y293027D01*
X1644520D01*
Y293137D01*
X1644739D01*
Y293247D01*
X1644849D01*
Y293357D01*
X1644959D01*
Y293466D01*
X1645179D01*
Y293576D01*
X1645289D01*
Y293686D01*
X1645508D01*
Y293796D01*
X1645618D01*
Y293906D01*
X1645728D01*
Y294016D01*
X1645947D01*
Y294125D01*
X1646057D01*
Y294235D01*
X1646167D01*
Y294345D01*
X1646277D01*
Y294455D01*
X1646496D01*
Y294565D01*
X1646606D01*
Y294674D01*
X1646826D01*
Y294784D01*
X1646936D01*
Y294894D01*
X1647045D01*
Y295004D01*
X1647265D01*
Y295114D01*
X1647375D01*
Y295223D01*
X1647485D01*
Y295333D01*
X1647704D01*
Y295443D01*
X1647814D01*
Y295553D01*
X1648034D01*
Y295663D01*
X1648143D01*
Y295772D01*
X1648253D01*
Y295882D01*
X1648363D01*
Y295992D01*
X1648583D01*
Y296102D01*
X1648692D01*
Y296212D01*
X1648802D01*
Y296322D01*
X1649022D01*
Y296431D01*
X1649132D01*
Y296541D01*
X1649242D01*
Y296651D01*
X1649461D01*
Y296761D01*
X1649571D01*
Y296871D01*
X1649791D01*
Y296980D01*
X1649900D01*
Y297090D01*
X1650010D01*
Y297200D01*
X1650230D01*
Y297310D01*
X1650340D01*
Y297420D01*
X1650450D01*
Y297529D01*
X1650559D01*
Y297639D01*
X1650779D01*
Y297749D01*
X1650889D01*
Y297859D01*
X1651108D01*
Y297969D01*
X1651218D01*
Y298078D01*
X1651328D01*
Y298188D01*
X1651548D01*
Y298298D01*
X1651657D01*
Y298408D01*
X1651877D01*
Y298518D01*
X1651987D01*
Y298627D01*
X1652097D01*
Y298737D01*
X1652316D01*
Y298847D01*
X1652426D01*
Y298957D01*
X1652536D01*
Y299067D01*
X1652646D01*
Y299177D01*
X1652865D01*
Y299286D01*
X1652975D01*
Y299396D01*
X1653085D01*
Y299506D01*
X1653304D01*
Y299616D01*
X1653414D01*
Y299726D01*
X1653634D01*
Y299835D01*
X1653744D01*
Y299945D01*
X1653853D01*
Y300055D01*
X1654073D01*
Y300165D01*
X1654183D01*
Y300275D01*
X1654293D01*
Y300384D01*
X1654512D01*
Y300494D01*
X1654622D01*
Y300604D01*
X1654732D01*
Y300714D01*
X1654952D01*
Y291710D01*
X1654842D01*
Y291600D01*
X1654622D01*
Y291490D01*
X1654512D01*
Y291380D01*
X1654403D01*
Y291270D01*
X1654183D01*
Y291161D01*
X1654073D01*
Y291051D01*
X1653853D01*
Y290941D01*
X1653744D01*
Y290831D01*
X1653634D01*
Y290721D01*
X1653414D01*
Y290611D01*
X1653304D01*
Y290502D01*
X1653195D01*
Y290392D01*
X1653085D01*
Y290282D01*
X1652865D01*
Y290172D01*
X1652755D01*
Y290062D01*
X1652536D01*
Y289953D01*
X1652426D01*
Y289843D01*
X1652316D01*
Y289733D01*
X1652097D01*
Y289623D01*
X1651987D01*
Y289513D01*
X1651877D01*
Y289404D01*
X1651657D01*
Y289294D01*
X1651548D01*
Y289184D01*
X1651438D01*
Y289074D01*
X1651218D01*
Y288964D01*
X1651108D01*
Y288855D01*
X1650999D01*
Y288745D01*
X1650779D01*
Y288635D01*
X1650669D01*
Y288525D01*
X1650559D01*
Y288415D01*
X1650340D01*
Y288305D01*
X1650230D01*
Y288196D01*
X1650010D01*
Y288086D01*
X1649900D01*
Y287976D01*
X1649791D01*
Y287866D01*
X1649681D01*
Y287756D01*
X1649461D01*
Y287647D01*
X1649351D01*
Y287537D01*
X1649242D01*
Y287427D01*
X1649022D01*
Y287317D01*
X1648912D01*
Y287207D01*
X1648802D01*
Y287098D01*
X1648583D01*
Y286988D01*
X1648473D01*
Y286878D01*
X1648253D01*
Y286768D01*
X1648143D01*
Y286658D01*
X1648034D01*
Y286549D01*
X1647814D01*
Y286439D01*
X1647704D01*
Y286329D01*
X1647594D01*
Y286219D01*
X1647485D01*
Y286109D01*
X1647265D01*
Y286000D01*
X1647155D01*
Y285890D01*
X1647045D01*
Y285780D01*
X1646826D01*
Y285670D01*
X1646716D01*
Y285560D01*
X1646496D01*
Y285450D01*
X1646387D01*
Y285341D01*
X1646277D01*
Y285231D01*
X1646057D01*
Y285011D01*
X1646167D01*
Y284901D01*
X1646277D01*
Y284792D01*
X1646387D01*
Y284682D01*
X1646606D01*
Y284572D01*
X1646716D01*
Y284462D01*
X1646826D01*
Y284352D01*
X1647045D01*
Y284243D01*
X1647155D01*
Y284133D01*
X1647265D01*
Y284023D01*
X1647375D01*
Y283913D01*
X1647594D01*
Y283803D01*
X1647704D01*
Y283694D01*
X1647924D01*
Y283584D01*
X1648034D01*
Y283474D01*
X1648143D01*
Y283364D01*
X1648363D01*
Y283254D01*
X1648473D01*
Y283144D01*
X1648583D01*
Y283035D01*
X1648692D01*
Y282925D01*
X1648912D01*
Y282815D01*
X1649022D01*
Y282705D01*
X1649242D01*
Y282595D01*
X1649351D01*
Y282486D01*
X1649461D01*
Y282376D01*
X1649681D01*
Y282266D01*
X1649791D01*
Y282156D01*
X1649900D01*
Y282046D01*
X1650120D01*
Y281937D01*
X1650230D01*
Y281827D01*
X1650340D01*
Y281717D01*
X1650450D01*
Y281607D01*
X1650669D01*
Y281497D01*
X1650779D01*
Y281388D01*
X1650889D01*
Y281278D01*
X1651108D01*
Y281168D01*
X1651218D01*
Y281058D01*
X1651438D01*
Y280948D01*
X1651548D01*
Y280839D01*
X1651657D01*
Y280729D01*
X1651877D01*
Y280619D01*
X1651987D01*
Y280509D01*
X1652097D01*
Y280399D01*
X1652206D01*
Y280289D01*
X1652426D01*
Y280180D01*
X1652536D01*
Y280070D01*
X1652646D01*
Y279960D01*
X1652865D01*
Y279850D01*
X1652975D01*
Y279740D01*
X1653195D01*
Y279631D01*
X1653304D01*
Y279521D01*
X1653414D01*
Y279411D01*
X1653634D01*
Y279301D01*
X1653744D01*
Y279191D01*
X1653853D01*
Y279082D01*
X1653963D01*
Y278972D01*
X1654183D01*
Y278862D01*
X1654293D01*
Y278752D01*
X1654512D01*
Y278642D01*
X1654622D01*
Y278533D01*
X1654732D01*
Y278423D01*
X1654842D01*
Y278313D01*
X1654952D01*
Y268979D01*
X1654732D01*
Y269089D01*
X1654622D01*
Y269199D01*
X1654512D01*
Y269309D01*
X1654403D01*
Y269418D01*
X1654183D01*
Y269528D01*
X1654073D01*
Y269638D01*
X1653853D01*
Y269748D01*
X1653744D01*
Y269858D01*
X1653634D01*
Y269967D01*
X1653414D01*
Y270077D01*
X1653304D01*
Y270187D01*
X1653195D01*
Y270297D01*
X1652975D01*
Y270407D01*
X1652865D01*
Y270516D01*
X1652646D01*
Y270626D01*
X1652536D01*
Y270736D01*
X1652426D01*
Y270846D01*
X1652316D01*
Y270956D01*
X1652206D01*
Y271066D01*
X1651987D01*
Y271175D01*
X1651877D01*
Y271285D01*
X1651657D01*
Y271395D01*
X1651548D01*
Y271505D01*
X1651438D01*
Y271615D01*
X1651218D01*
Y271724D01*
X1651108D01*
Y271834D01*
X1650999D01*
Y271944D01*
X1650889D01*
Y272054D01*
X1650669D01*
Y272164D01*
X1650559D01*
Y272273D01*
X1650450D01*
Y272383D01*
X1650230D01*
Y272493D01*
X1650120D01*
Y272603D01*
X1649900D01*
Y272713D01*
X1649791D01*
Y272822D01*
X1649681D01*
Y272932D01*
X1649461D01*
Y273042D01*
X1649351D01*
Y273152D01*
X1649242D01*
Y273262D01*
X1649132D01*
Y273372D01*
X1648912D01*
Y273481D01*
X1648802D01*
Y273591D01*
X1648692D01*
Y273701D01*
X1648473D01*
Y273811D01*
X1648363D01*
Y273920D01*
X1648143D01*
Y274030D01*
X1648034D01*
Y274140D01*
X1647924D01*
Y274250D01*
X1647704D01*
Y274360D01*
X1647594D01*
Y274470D01*
X1647485D01*
Y274579D01*
X1647375D01*
Y274689D01*
X1647155D01*
Y274799D01*
X1647045D01*
Y274909D01*
X1646936D01*
Y275019D01*
X1646716D01*
Y275128D01*
X1646606D01*
Y275238D01*
X1646387D01*
Y275348D01*
X1646277D01*
Y275458D01*
X1646167D01*
Y275568D01*
X1645947D01*
Y275678D01*
X1645838D01*
Y275787D01*
X1645728D01*
Y275897D01*
X1645618D01*
Y276007D01*
X1645398D01*
Y276117D01*
X1645289D01*
Y276227D01*
X1645179D01*
Y276336D01*
X1644959D01*
Y276446D01*
X1644849D01*
Y276556D01*
X1644739D01*
Y276666D01*
X1644520D01*
Y276776D01*
X1644410D01*
Y276885D01*
X1644190D01*
Y276995D01*
X1644081D01*
Y277105D01*
X1643971D01*
Y277215D01*
X1643861D01*
Y277325D01*
X1643641D01*
Y277434D01*
X1643531D01*
Y277544D01*
X1643422D01*
Y277654D01*
X1643202D01*
Y277764D01*
X1643092D01*
Y277874D01*
X1642873D01*
Y277983D01*
X1642763D01*
Y278093D01*
X1642653D01*
Y278203D01*
X1642543D01*
Y278313D01*
X1642324D01*
Y278423D01*
X1642214D01*
Y278533D01*
X1642104D01*
Y278642D01*
X1641884D01*
Y278752D01*
X1641775D01*
Y278862D01*
X1641665D01*
Y278972D01*
X1641445D01*
Y279082D01*
X1641335D01*
Y279191D01*
X1641225D01*
Y279301D01*
X1641006D01*
Y279411D01*
X1640896D01*
Y279521D01*
X1640786D01*
Y279631D01*
X1640677D01*
Y279740D01*
X1640457D01*
Y279850D01*
X1640237D01*
Y279740D01*
X1640018D01*
Y279631D01*
X1639908D01*
Y279521D01*
X1639798D01*
Y279411D01*
X1639578D01*
Y279301D01*
X1639469D01*
Y279191D01*
X1639249D01*
Y279082D01*
X1639139D01*
Y278972D01*
X1639029D01*
Y278862D01*
X1638920D01*
Y278752D01*
X1638700D01*
Y278642D01*
X1638590D01*
Y278533D01*
X1638480D01*
Y278423D01*
X1638261D01*
Y278313D01*
X1638151D01*
Y278203D01*
X1638041D01*
Y278093D01*
X1637822D01*
Y277983D01*
X1637712D01*
Y277874D01*
X1637602D01*
Y277764D01*
X1637492D01*
Y277654D01*
X1637272D01*
Y277544D01*
X1637163D01*
Y277434D01*
X1636943D01*
Y277325D01*
X1636833D01*
Y277215D01*
X1636723D01*
Y277105D01*
X1636504D01*
Y276995D01*
X1636394D01*
Y276885D01*
X1636284D01*
Y276776D01*
X1636064D01*
Y276666D01*
X1635955D01*
Y276556D01*
X1635845D01*
Y276446D01*
X1635735D01*
Y276336D01*
X1635515D01*
Y276227D01*
X1635406D01*
Y276117D01*
X1635296D01*
Y276007D01*
X1635076D01*
Y275897D01*
X1634966D01*
Y275787D01*
X1634747D01*
Y275678D01*
X1634637D01*
Y275568D01*
X1634527D01*
Y275458D01*
X1634417D01*
Y275348D01*
X1634198D01*
Y275238D01*
X1634088D01*
Y275128D01*
X1633978D01*
Y275019D01*
X1633759D01*
Y274909D01*
X1633649D01*
Y274799D01*
X1633539D01*
Y274689D01*
X1633319D01*
Y274579D01*
X1633210D01*
Y274470D01*
X1633100D01*
Y274360D01*
X1632880D01*
Y274250D01*
X1632770D01*
Y274140D01*
X1632661D01*
Y274030D01*
X1632441D01*
Y273920D01*
X1632331D01*
Y273811D01*
X1632221D01*
Y273701D01*
X1632002D01*
Y273591D01*
X1631892D01*
Y273481D01*
X1631782D01*
Y273372D01*
X1631562D01*
Y273262D01*
X1631453D01*
Y273152D01*
X1631343D01*
Y273042D01*
X1631233D01*
Y272932D01*
X1631013D01*
Y272822D01*
X1630903D01*
Y272713D01*
X1630794D01*
Y272603D01*
X1630574D01*
Y272493D01*
X1630464D01*
Y272383D01*
X1630245D01*
Y272273D01*
X1630135D01*
Y272164D01*
X1630025D01*
Y272054D01*
X1629915D01*
Y271944D01*
X1629696D01*
Y271834D01*
X1629586D01*
Y271724D01*
X1629476D01*
Y271615D01*
X1629256D01*
Y271505D01*
X1629147D01*
Y271395D01*
X1629037D01*
Y271285D01*
X1628817D01*
Y271175D01*
X1628707D01*
Y271066D01*
X1628598D01*
Y270956D01*
X1628378D01*
Y270846D01*
X1628268D01*
Y270736D01*
X1628158D01*
Y270626D01*
X1628049D01*
Y270516D01*
X1627829D01*
Y270407D01*
X1627719D01*
Y270297D01*
X1627500D01*
Y270187D01*
X1627390D01*
Y270077D01*
X1627280D01*
Y269967D01*
X1627060D01*
Y269858D01*
X1626950D01*
Y269748D01*
X1626841D01*
Y269638D01*
X1626731D01*
Y269528D01*
X1626511D01*
Y269418D01*
X1626401D01*
Y269309D01*
X1626292D01*
Y269199D01*
X1626072D01*
Y269089D01*
X1625962D01*
Y268979D01*
X1625852D01*
Y268869D01*
X1625633D01*
Y268760D01*
X1625523D01*
Y268650D01*
X1625303D01*
Y268540D01*
X1625193D01*
Y268430D01*
X1625084D01*
Y268320D01*
X1624974D01*
Y268211D01*
X1624644D01*
Y276995D01*
X1624754D01*
Y277215D01*
X1624864D01*
Y277325D01*
X1625084D01*
Y277434D01*
X1625193D01*
Y277544D01*
X1625303D01*
Y277654D01*
X1625523D01*
Y277764D01*
X1625633D01*
Y277874D01*
X1625742D01*
Y277983D01*
X1625962D01*
Y278093D01*
X1626072D01*
Y278203D01*
X1626182D01*
Y278313D01*
X1626292D01*
Y278423D01*
X1626511D01*
Y278533D01*
X1626621D01*
Y278642D01*
X1626731D01*
Y278752D01*
X1626950D01*
Y278862D01*
X1627060D01*
Y278972D01*
X1627170D01*
Y279082D01*
X1627280D01*
Y279191D01*
X1627500D01*
Y279301D01*
X1627609D01*
Y279411D01*
X1627719D01*
Y279521D01*
X1627939D01*
Y279631D01*
X1628049D01*
Y279740D01*
X1628268D01*
Y279850D01*
X1628378D01*
Y279960D01*
X1628488D01*
Y280070D01*
X1628598D01*
Y280180D01*
X1628707D01*
Y280289D01*
X1628927D01*
Y280399D01*
X1629037D01*
Y280509D01*
X1629256D01*
Y280619D01*
X1629366D01*
Y280729D01*
X1629476D01*
Y280839D01*
X1629696D01*
Y280948D01*
X1629805D01*
Y281058D01*
X1629915D01*
Y281168D01*
X1630025D01*
Y281278D01*
X1630245D01*
Y281388D01*
X1630354D01*
Y281497D01*
X1630464D01*
Y281607D01*
X1630684D01*
Y281717D01*
X1630794D01*
Y281827D01*
X1630903D01*
Y281937D01*
X1631013D01*
Y282046D01*
X1631233D01*
Y282156D01*
X1631343D01*
Y282266D01*
X1631453D01*
Y282376D01*
X1631672D01*
Y282486D01*
X1631782D01*
Y282595D01*
X1631892D01*
Y282705D01*
X1632111D01*
Y282815D01*
X1632221D01*
Y282925D01*
X1632331D01*
Y283035D01*
X1632441D01*
Y283144D01*
X1632661D01*
Y283254D01*
X1632770D01*
Y283364D01*
X1632880D01*
Y283474D01*
X1633100D01*
Y283584D01*
X1633210D01*
Y283694D01*
X1633319D01*
Y283803D01*
X1633539D01*
Y283913D01*
X1633649D01*
Y284023D01*
X1633759D01*
Y284133D01*
X1633978D01*
Y284243D01*
X1634088D01*
Y284352D01*
X1634198D01*
Y284462D01*
X1634088D01*
Y284682D01*
X1633868D01*
Y284792D01*
X1633759D01*
Y284901D01*
X1633649D01*
Y285011D01*
X1633429D01*
Y285121D01*
X1633319D01*
Y285231D01*
X1633210D01*
Y285341D01*
X1632990D01*
Y285450D01*
X1632880D01*
Y285560D01*
X1632661D01*
Y285670D01*
X1632551D01*
Y285780D01*
X1632441D01*
Y285890D01*
X1632331D01*
Y286000D01*
X1632111D01*
Y286109D01*
X1632002D01*
Y286219D01*
X1631892D01*
Y286329D01*
X1631672D01*
Y286439D01*
X1631562D01*
Y286549D01*
X1631343D01*
Y286658D01*
X1631233D01*
Y286768D01*
X1631123D01*
Y286878D01*
X1631013D01*
Y286988D01*
X1630903D01*
Y287098D01*
X1630684D01*
Y287207D01*
X1630574D01*
Y287317D01*
X1630354D01*
Y287427D01*
X1630245D01*
Y287537D01*
X1630135D01*
Y287647D01*
X1629915D01*
Y287756D01*
X1629805D01*
Y287866D01*
X1629696D01*
Y287976D01*
X1629476D01*
Y288086D01*
X1629366D01*
Y288196D01*
X1629256D01*
Y288305D01*
X1629147D01*
Y288415D01*
X1628927D01*
Y288525D01*
X1628817D01*
Y288635D01*
X1628598D01*
Y288745D01*
X1628488D01*
Y288855D01*
X1628378D01*
Y288964D01*
X1628158D01*
Y289074D01*
X1628049D01*
Y289184D01*
X1627939D01*
Y289294D01*
X1627829D01*
Y289404D01*
X1627609D01*
Y289513D01*
X1627500D01*
Y289623D01*
X1627390D01*
Y289733D01*
X1627170D01*
Y289843D01*
X1627060D01*
Y289953D01*
X1626950D01*
Y290062D01*
X1626731D01*
Y290172D01*
X1626621D01*
Y290282D01*
X1626401D01*
Y290392D01*
X1626292D01*
Y290502D01*
X1626182D01*
Y290611D01*
X1625962D01*
Y290721D01*
X1625852D01*
Y290831D01*
X1625742D01*
Y290941D01*
X1625633D01*
Y291051D01*
X1625413D01*
Y291161D01*
X1625303D01*
Y291270D01*
X1625193D01*
Y291380D01*
X1624974D01*
Y291490D01*
X1624864D01*
Y291600D01*
X1624754D01*
Y291710D01*
X1624644D01*
Y300824D01*
X1624754D01*
Y300933D01*
X1624864D01*
Y300824D01*
D02*
G37*
G36*
X1654952Y258328D02*
X1636504D01*
Y258218D01*
X1635845D01*
Y258108D01*
X1635296D01*
Y257998D01*
X1635076D01*
Y257889D01*
X1634747D01*
Y257779D01*
X1634527D01*
Y257669D01*
X1634308D01*
Y257559D01*
X1634088D01*
Y257449D01*
X1633978D01*
Y257339D01*
X1633759D01*
Y257230D01*
X1633649D01*
Y257120D01*
X1633539D01*
Y257010D01*
X1633319D01*
Y256790D01*
X1633100D01*
Y256571D01*
X1632880D01*
Y256351D01*
X1632770D01*
Y256241D01*
X1632661D01*
Y256132D01*
X1632551D01*
Y255912D01*
X1632441D01*
Y255802D01*
X1632331D01*
Y255583D01*
X1632221D01*
Y255363D01*
X1632111D01*
Y255143D01*
X1632002D01*
Y254814D01*
X1631892D01*
Y254594D01*
X1631782D01*
Y253935D01*
X1631672D01*
Y253496D01*
X1631562D01*
Y251520D01*
X1631672D01*
Y251080D01*
X1631782D01*
Y250422D01*
X1631892D01*
Y250312D01*
X1632002D01*
Y249872D01*
X1632111D01*
Y249653D01*
X1632221D01*
Y249543D01*
X1632331D01*
Y249323D01*
X1632441D01*
Y249104D01*
X1632551D01*
Y248994D01*
X1632661D01*
Y248884D01*
X1632770D01*
Y248665D01*
X1632880D01*
Y248555D01*
X1632990D01*
Y248445D01*
X1633100D01*
Y248335D01*
X1633210D01*
Y248225D01*
X1633319D01*
Y248116D01*
X1633429D01*
Y248006D01*
X1633539D01*
Y247896D01*
X1633759D01*
Y247786D01*
X1633868D01*
Y247676D01*
X1634088D01*
Y247567D01*
X1634308D01*
Y247457D01*
X1634417D01*
Y247347D01*
X1634747D01*
Y247237D01*
X1634966D01*
Y247127D01*
X1635296D01*
Y247017D01*
X1635735D01*
Y246908D01*
X1636174D01*
Y246798D01*
X1654952D01*
Y238343D01*
X1634308D01*
Y238452D01*
X1633539D01*
Y238562D01*
X1632990D01*
Y238672D01*
X1632331D01*
Y238782D01*
X1632111D01*
Y238892D01*
X1631562D01*
Y239001D01*
X1631343D01*
Y239111D01*
X1631013D01*
Y239221D01*
X1630684D01*
Y239331D01*
X1630464D01*
Y239441D01*
X1630135D01*
Y239550D01*
X1630025D01*
Y239660D01*
X1629696D01*
Y239770D01*
X1629476D01*
Y239880D01*
X1629366D01*
Y239990D01*
X1629147D01*
Y240100D01*
X1629037D01*
Y240209D01*
X1628707D01*
Y240319D01*
X1628598D01*
Y240429D01*
X1628488D01*
Y240539D01*
X1628268D01*
Y240648D01*
X1628158D01*
Y240758D01*
X1627939D01*
Y240868D01*
X1627829D01*
Y240978D01*
X1627719D01*
Y241088D01*
X1627609D01*
Y241198D01*
X1627500D01*
Y241307D01*
X1627390D01*
Y241417D01*
X1627280D01*
Y241527D01*
X1627060D01*
Y241747D01*
X1626950D01*
Y241856D01*
X1626841D01*
Y241966D01*
X1626731D01*
Y242076D01*
X1626621D01*
Y242186D01*
X1626511D01*
Y242296D01*
X1626401D01*
Y242405D01*
X1626292D01*
Y242625D01*
X1626182D01*
Y242735D01*
X1626072D01*
Y242845D01*
X1625962D01*
Y243064D01*
X1625852D01*
Y243174D01*
X1625742D01*
Y243394D01*
X1625633D01*
Y243613D01*
X1625523D01*
Y243723D01*
X1625413D01*
Y243943D01*
X1625303D01*
Y244162D01*
X1625193D01*
Y244382D01*
X1625084D01*
Y244602D01*
X1624974D01*
Y244821D01*
X1624864D01*
Y245151D01*
X1624754D01*
Y245370D01*
X1624644D01*
Y245809D01*
X1624535D01*
Y246029D01*
X1624425D01*
Y246578D01*
X1624315D01*
Y247017D01*
X1624205D01*
Y247457D01*
X1624095D01*
Y248555D01*
X1623986D01*
Y251300D01*
X1624095D01*
Y252288D01*
X1624205D01*
Y252837D01*
X1624315D01*
Y253167D01*
X1624425D01*
Y253716D01*
X1624535D01*
Y253935D01*
X1624644D01*
Y254375D01*
X1624754D01*
Y254594D01*
X1624864D01*
Y254924D01*
X1624974D01*
Y255143D01*
X1625084D01*
Y255363D01*
X1625193D01*
Y255692D01*
X1625303D01*
Y255802D01*
X1625413D01*
Y256022D01*
X1625523D01*
Y256241D01*
X1625633D01*
Y256461D01*
X1625742D01*
Y256681D01*
X1625852D01*
Y256790D01*
X1625962D01*
Y257010D01*
X1626072D01*
Y257120D01*
X1626182D01*
Y257230D01*
X1626292D01*
Y257449D01*
X1626401D01*
Y257559D01*
X1626511D01*
Y257779D01*
X1626621D01*
Y257889D01*
X1626731D01*
Y257998D01*
X1626841D01*
Y258108D01*
X1626950D01*
Y258218D01*
X1627060D01*
Y258328D01*
X1627170D01*
Y258438D01*
X1627280D01*
Y258657D01*
X1627390D01*
Y258877D01*
X1624754D01*
Y258987D01*
X1624644D01*
Y266673D01*
X1624754D01*
Y266783D01*
X1654952D01*
Y258328D01*
D02*
G37*
G36*
X1632221Y236476D02*
X1632331D01*
Y226373D01*
Y226264D01*
Y218357D01*
X1664505D01*
Y218248D01*
X1664615D01*
Y209902D01*
X1664395D01*
Y209792D01*
X1624864D01*
Y209902D01*
X1624754D01*
Y210012D01*
X1624644D01*
Y236476D01*
X1624754D01*
Y236586D01*
X1632221D01*
Y236476D01*
D02*
G37*
G36*
X1645728Y194309D02*
X1647265D01*
Y194200D01*
X1647814D01*
Y194090D01*
X1648802D01*
Y193980D01*
X1649242D01*
Y193870D01*
X1649791D01*
Y193760D01*
X1650230D01*
Y193650D01*
X1650559D01*
Y193541D01*
X1651108D01*
Y193431D01*
X1651438D01*
Y193321D01*
X1651877D01*
Y193211D01*
X1652097D01*
Y193101D01*
X1652426D01*
Y192992D01*
X1652865D01*
Y192882D01*
X1653085D01*
Y192772D01*
X1653414D01*
Y192662D01*
X1653634D01*
Y192552D01*
X1653963D01*
Y192442D01*
X1654183D01*
Y192333D01*
X1654403D01*
Y192223D01*
X1654732D01*
Y192113D01*
X1654842D01*
Y192003D01*
X1655171D01*
Y191894D01*
X1655391D01*
Y191784D01*
X1655611D01*
Y191674D01*
X1655830D01*
Y191564D01*
X1656050D01*
Y191454D01*
X1656269D01*
Y191344D01*
X1656379D01*
Y191235D01*
X1656599D01*
Y191125D01*
X1656818D01*
Y191015D01*
X1656928D01*
Y190905D01*
X1657258D01*
Y190795D01*
X1657367D01*
Y190686D01*
X1657587D01*
Y190576D01*
X1657697D01*
Y190466D01*
X1657916D01*
Y190356D01*
X1658136D01*
Y190246D01*
X1658246D01*
Y190137D01*
X1658466D01*
Y190027D01*
X1658575D01*
Y189917D01*
X1658685D01*
Y189807D01*
X1658905D01*
Y189697D01*
X1659014D01*
Y189587D01*
X1659234D01*
Y189478D01*
X1659344D01*
Y189368D01*
X1659454D01*
Y189258D01*
X1659673D01*
Y189148D01*
X1659783D01*
Y189039D01*
X1659893D01*
Y188929D01*
X1660003D01*
Y188819D01*
X1660222D01*
Y188709D01*
X1660332D01*
Y188599D01*
X1660442D01*
Y188489D01*
X1660552D01*
Y188380D01*
X1660662D01*
Y188270D01*
X1660881D01*
Y188160D01*
X1660991D01*
Y188050D01*
X1661101D01*
Y187940D01*
X1661211D01*
Y187831D01*
X1661320D01*
Y187721D01*
X1661430D01*
Y187611D01*
X1661540D01*
Y187501D01*
X1661650D01*
Y187391D01*
X1661760D01*
Y187281D01*
X1661870D01*
Y187172D01*
X1661979D01*
Y187062D01*
X1662089D01*
Y186952D01*
X1662199D01*
Y186842D01*
X1662309D01*
Y186733D01*
X1662419D01*
Y186623D01*
X1662528D01*
Y186513D01*
X1662638D01*
Y186403D01*
X1662748D01*
Y186293D01*
X1662858D01*
Y186183D01*
X1662968D01*
Y186074D01*
X1663078D01*
Y185854D01*
X1663187D01*
Y185744D01*
X1663297D01*
Y185634D01*
X1663407D01*
Y185525D01*
X1663517D01*
Y185415D01*
X1663627D01*
Y185195D01*
X1663736D01*
Y185085D01*
X1663846D01*
Y184976D01*
X1663956D01*
Y184866D01*
X1664066D01*
Y184756D01*
X1664176D01*
Y184536D01*
X1664285D01*
Y184426D01*
X1664395D01*
Y184207D01*
X1664505D01*
Y184097D01*
X1664615D01*
Y183987D01*
X1664725D01*
Y183768D01*
X1664834D01*
Y183658D01*
X1664944D01*
Y183548D01*
X1665054D01*
Y183328D01*
X1665164D01*
Y183109D01*
X1665274D01*
Y182999D01*
X1665383D01*
Y182889D01*
X1665493D01*
Y182670D01*
X1665603D01*
Y182560D01*
X1665713D01*
Y182340D01*
X1665823D01*
Y182120D01*
X1665932D01*
Y181901D01*
X1666042D01*
Y181791D01*
X1666152D01*
Y181572D01*
X1666262D01*
Y181352D01*
X1666372D01*
Y181242D01*
X1666481D01*
Y180913D01*
X1666591D01*
Y180693D01*
X1666701D01*
Y180473D01*
X1666811D01*
Y180254D01*
X1666921D01*
Y180144D01*
X1667031D01*
Y179815D01*
X1667140D01*
Y179595D01*
X1667250D01*
Y179265D01*
X1667360D01*
Y179046D01*
X1667470D01*
Y178826D01*
X1667580D01*
Y178497D01*
X1667689D01*
Y178277D01*
X1667799D01*
Y177948D01*
X1667909D01*
Y177618D01*
X1668019D01*
Y177399D01*
X1668129D01*
Y176959D01*
X1668238D01*
Y176740D01*
X1668348D01*
Y176191D01*
X1668458D01*
Y175971D01*
X1668568D01*
Y175422D01*
X1668678D01*
Y174983D01*
X1668788D01*
Y174653D01*
X1668897D01*
Y173775D01*
X1669007D01*
Y173446D01*
X1669117D01*
Y172238D01*
X1669227D01*
Y171469D01*
X1669337D01*
Y167187D01*
X1669227D01*
Y166418D01*
X1669117D01*
Y165320D01*
X1669007D01*
Y164881D01*
X1668897D01*
Y164112D01*
X1668788D01*
Y163673D01*
X1668678D01*
Y163343D01*
X1668568D01*
Y162794D01*
X1668458D01*
Y162465D01*
X1668348D01*
Y161916D01*
X1668238D01*
Y161696D01*
X1668129D01*
Y161367D01*
X1668019D01*
Y161037D01*
X1667909D01*
Y160818D01*
X1667799D01*
Y160378D01*
X1667689D01*
Y160269D01*
X1667580D01*
Y159829D01*
X1667470D01*
Y159610D01*
X1667360D01*
Y159390D01*
X1667250D01*
Y159061D01*
X1667140D01*
Y158951D01*
X1667031D01*
Y158622D01*
X1666921D01*
Y158402D01*
X1666811D01*
Y158182D01*
X1666701D01*
Y157963D01*
X1666591D01*
Y157743D01*
X1666481D01*
Y157523D01*
X1666372D01*
Y157414D01*
X1666262D01*
Y157084D01*
X1666152D01*
Y156974D01*
X1666042D01*
Y156755D01*
X1665932D01*
Y156535D01*
X1665823D01*
Y156425D01*
X1665713D01*
Y156206D01*
X1665603D01*
Y156096D01*
X1665493D01*
Y155876D01*
X1665383D01*
Y155657D01*
X1665274D01*
Y155547D01*
X1665164D01*
Y155327D01*
X1665054D01*
Y155217D01*
X1664944D01*
Y154998D01*
X1664834D01*
Y154888D01*
X1664725D01*
Y154778D01*
X1664615D01*
Y154559D01*
X1664505D01*
Y154449D01*
X1664395D01*
Y154229D01*
X1664285D01*
Y154119D01*
X1664176D01*
Y154010D01*
X1664066D01*
Y153790D01*
X1663956D01*
Y153680D01*
X1663846D01*
Y153570D01*
X1663736D01*
Y153461D01*
X1663627D01*
Y153351D01*
X1663517D01*
Y153131D01*
X1663407D01*
Y153021D01*
X1663297D01*
Y152911D01*
X1663187D01*
Y152802D01*
X1663078D01*
Y152692D01*
X1662968D01*
Y152582D01*
X1662858D01*
Y152362D01*
X1662748D01*
Y152253D01*
X1662638D01*
Y152143D01*
X1662528D01*
Y152033D01*
X1662419D01*
Y151923D01*
X1662309D01*
Y151813D01*
X1662199D01*
Y151704D01*
X1662089D01*
Y151594D01*
X1661979D01*
Y151484D01*
X1661870D01*
Y151374D01*
X1661760D01*
Y151264D01*
X1661650D01*
Y151154D01*
X1661540D01*
Y151045D01*
X1661430D01*
Y150935D01*
X1661211D01*
Y150715D01*
X1660991D01*
Y150605D01*
X1660881D01*
Y150496D01*
X1660771D01*
Y150386D01*
X1660662D01*
Y150276D01*
X1660552D01*
Y150166D01*
X1660332D01*
Y150056D01*
X1660222D01*
Y149947D01*
X1660113D01*
Y149837D01*
X1660003D01*
Y149727D01*
X1659893D01*
Y149617D01*
X1659673D01*
Y149507D01*
X1659564D01*
Y149397D01*
X1659344D01*
Y149288D01*
X1659234D01*
Y149178D01*
X1659124D01*
Y149068D01*
X1658905D01*
Y148958D01*
X1658795D01*
Y148848D01*
X1658685D01*
Y148739D01*
X1658466D01*
Y148629D01*
X1658356D01*
Y148519D01*
X1658136D01*
Y148409D01*
X1658026D01*
Y148299D01*
X1657807D01*
Y148190D01*
X1657697D01*
Y148080D01*
X1657477D01*
Y147970D01*
X1657258D01*
Y147860D01*
X1657148D01*
Y147750D01*
X1656928D01*
Y147641D01*
X1656818D01*
Y147531D01*
X1656489D01*
Y147421D01*
X1656379D01*
Y147311D01*
X1656160D01*
Y147201D01*
X1655940D01*
Y147092D01*
X1655720D01*
Y146982D01*
X1655501D01*
Y146872D01*
X1655281D01*
Y146762D01*
X1655061D01*
Y146652D01*
X1654842D01*
Y146543D01*
X1654622D01*
Y146433D01*
X1654293D01*
Y146323D01*
X1654183D01*
Y146213D01*
X1653744D01*
Y146103D01*
X1653524D01*
Y145993D01*
X1653304D01*
Y145884D01*
X1652975D01*
Y145774D01*
X1652755D01*
Y145664D01*
X1652316D01*
Y145554D01*
X1652097D01*
Y145444D01*
X1651657D01*
Y145335D01*
X1651328D01*
Y145225D01*
X1650999D01*
Y145115D01*
X1650450D01*
Y145005D01*
X1650120D01*
Y144895D01*
X1649461D01*
Y144786D01*
X1649132D01*
Y144456D01*
X1649022D01*
Y144236D01*
X1649132D01*
Y137758D01*
X1649022D01*
Y137648D01*
X1649132D01*
Y137319D01*
X1649022D01*
Y137209D01*
X1639578D01*
Y137319D01*
X1639469D01*
Y144676D01*
X1639359D01*
Y144786D01*
X1639139D01*
Y144895D01*
X1638371D01*
Y145005D01*
X1638151D01*
Y145115D01*
X1637602D01*
Y145225D01*
X1637272D01*
Y145335D01*
X1636943D01*
Y145444D01*
X1636504D01*
Y145554D01*
X1636284D01*
Y145664D01*
X1635845D01*
Y145774D01*
X1635625D01*
Y145884D01*
X1635296D01*
Y145993D01*
X1634966D01*
Y146103D01*
X1634747D01*
Y146213D01*
X1634417D01*
Y146323D01*
X1634198D01*
Y146433D01*
X1633978D01*
Y146543D01*
X1633759D01*
Y146652D01*
X1633539D01*
Y146762D01*
X1633210D01*
Y146872D01*
X1633100D01*
Y146982D01*
X1632770D01*
Y147092D01*
X1632661D01*
Y147201D01*
X1632441D01*
Y147311D01*
X1632221D01*
Y147421D01*
X1632002D01*
Y147531D01*
X1631782D01*
Y147641D01*
X1631672D01*
Y147750D01*
X1631453D01*
Y147860D01*
X1631233D01*
Y147970D01*
X1631123D01*
Y148080D01*
X1630903D01*
Y148190D01*
X1630794D01*
Y148299D01*
X1630574D01*
Y148409D01*
X1630354D01*
Y148519D01*
X1630245D01*
Y148629D01*
X1630025D01*
Y148739D01*
X1629915D01*
Y148848D01*
X1629696D01*
Y148958D01*
X1629586D01*
Y149068D01*
X1629476D01*
Y149178D01*
X1629256D01*
Y149288D01*
X1629147D01*
Y149397D01*
X1628927D01*
Y149507D01*
X1628817D01*
Y149617D01*
X1628707D01*
Y149727D01*
X1628598D01*
Y149837D01*
X1628488D01*
Y149947D01*
X1628268D01*
Y150056D01*
X1628158D01*
Y150166D01*
X1628049D01*
Y150276D01*
X1627939D01*
Y150386D01*
X1627829D01*
Y150496D01*
X1627609D01*
Y150605D01*
X1627500D01*
Y150715D01*
X1627390D01*
Y150825D01*
X1627280D01*
Y150935D01*
X1627170D01*
Y151045D01*
X1627060D01*
Y151154D01*
X1626950D01*
Y151264D01*
X1626841D01*
Y151374D01*
X1626731D01*
Y151484D01*
X1626621D01*
Y151594D01*
X1626511D01*
Y151704D01*
X1626401D01*
Y151813D01*
X1626292D01*
Y151923D01*
X1626182D01*
Y152033D01*
X1626072D01*
Y152143D01*
X1625962D01*
Y152253D01*
X1625852D01*
Y152362D01*
X1625742D01*
Y152472D01*
X1625633D01*
Y152582D01*
X1625523D01*
Y152692D01*
X1625413D01*
Y152911D01*
X1625303D01*
Y153021D01*
X1625193D01*
Y153131D01*
X1625084D01*
Y153241D01*
X1624974D01*
Y153351D01*
X1624864D01*
Y153570D01*
X1624754D01*
Y153680D01*
X1624644D01*
Y153790D01*
X1624535D01*
Y153900D01*
X1624425D01*
Y154119D01*
X1624315D01*
Y154229D01*
X1624205D01*
Y154339D01*
X1624095D01*
Y154559D01*
X1623986D01*
Y154668D01*
X1623876D01*
Y154888D01*
X1623656D01*
Y155108D01*
X1623546D01*
Y155327D01*
X1623437D01*
Y155437D01*
X1623327D01*
Y155657D01*
X1623217D01*
Y155766D01*
X1623107D01*
Y155986D01*
X1622997D01*
Y156096D01*
X1622888D01*
Y156315D01*
X1622778D01*
Y156535D01*
X1622668D01*
Y156645D01*
X1622558D01*
Y156865D01*
X1622448D01*
Y156974D01*
X1622339D01*
Y157304D01*
X1622229D01*
Y157414D01*
X1622119D01*
Y157633D01*
X1622009D01*
Y157853D01*
X1621899D01*
Y158072D01*
X1621789D01*
Y158402D01*
X1621680D01*
Y158512D01*
X1621570D01*
Y158841D01*
X1621460D01*
Y159061D01*
X1621350D01*
Y159171D01*
X1621240D01*
Y159500D01*
X1621131D01*
Y159719D01*
X1621021D01*
Y160159D01*
X1620911D01*
Y160269D01*
X1620801D01*
Y160598D01*
X1620691D01*
Y160928D01*
X1620582D01*
Y161147D01*
X1620472D01*
Y161586D01*
X1620362D01*
Y161916D01*
X1620252D01*
Y162355D01*
X1620142D01*
Y162684D01*
X1620033D01*
Y163014D01*
X1619923D01*
Y163563D01*
X1619813D01*
Y163892D01*
X1619703D01*
Y164661D01*
X1619593D01*
Y165100D01*
X1619483D01*
Y165759D01*
X1619374D01*
Y166857D01*
X1619264D01*
Y167845D01*
X1619154D01*
Y170810D01*
X1619264D01*
Y171798D01*
X1619374D01*
Y172897D01*
X1619483D01*
Y173556D01*
X1619593D01*
Y173995D01*
X1619703D01*
Y174763D01*
X1619813D01*
Y175093D01*
X1619923D01*
Y175752D01*
X1620033D01*
Y175971D01*
X1620142D01*
Y176411D01*
X1620252D01*
Y176850D01*
X1620362D01*
Y177069D01*
X1620472D01*
Y177509D01*
X1620582D01*
Y177728D01*
X1620691D01*
Y178058D01*
X1620801D01*
Y178387D01*
X1620911D01*
Y178607D01*
X1621021D01*
Y178936D01*
X1621131D01*
Y179156D01*
X1621240D01*
Y179485D01*
X1621350D01*
Y179705D01*
X1621460D01*
Y179924D01*
X1621570D01*
Y180254D01*
X1621680D01*
Y180364D01*
X1621789D01*
Y180693D01*
X1621899D01*
Y180803D01*
X1622009D01*
Y181022D01*
X1622119D01*
Y181242D01*
X1622229D01*
Y181462D01*
X1622339D01*
Y181681D01*
X1622448D01*
Y181791D01*
X1622558D01*
Y182011D01*
X1622668D01*
Y182230D01*
X1622778D01*
Y182340D01*
X1622888D01*
Y182560D01*
X1622997D01*
Y182670D01*
X1623107D01*
Y182999D01*
X1623217D01*
Y183109D01*
X1623327D01*
Y183219D01*
X1623437D01*
Y183438D01*
X1623546D01*
Y183548D01*
X1623656D01*
Y183768D01*
X1623766D01*
Y183878D01*
X1623876D01*
Y184097D01*
X1623986D01*
Y184207D01*
X1624095D01*
Y184317D01*
X1624205D01*
Y184536D01*
X1624315D01*
Y184646D01*
X1624425D01*
Y184756D01*
X1624535D01*
Y184866D01*
X1624644D01*
Y185085D01*
X1624754D01*
Y185195D01*
X1624864D01*
Y185305D01*
X1624974D01*
Y185415D01*
X1625084D01*
Y185525D01*
X1625193D01*
Y185744D01*
X1625303D01*
Y185854D01*
X1625413D01*
Y185964D01*
X1625523D01*
Y186074D01*
X1625633D01*
Y186183D01*
X1625742D01*
Y186293D01*
X1625852D01*
Y186403D01*
X1625962D01*
Y186513D01*
X1626072D01*
Y186733D01*
X1626292D01*
Y186952D01*
X1626401D01*
Y187062D01*
X1626511D01*
Y187172D01*
X1626621D01*
Y187281D01*
X1626731D01*
Y187391D01*
X1626841D01*
Y187501D01*
X1627060D01*
Y187721D01*
X1627280D01*
Y187831D01*
X1627390D01*
Y187940D01*
X1627500D01*
Y188050D01*
X1627609D01*
Y188160D01*
X1627719D01*
Y188270D01*
X1627829D01*
Y188380D01*
X1627939D01*
Y188489D01*
X1628158D01*
Y188599D01*
X1628268D01*
Y188709D01*
X1628378D01*
Y188819D01*
X1628598D01*
Y189039D01*
X1628817D01*
Y189148D01*
X1628927D01*
Y189258D01*
X1629037D01*
Y189368D01*
X1629256D01*
Y189478D01*
X1629366D01*
Y189587D01*
X1629586D01*
Y189697D01*
X1629696D01*
Y189807D01*
X1629805D01*
Y189917D01*
X1630025D01*
Y190027D01*
X1630135D01*
Y190137D01*
X1630354D01*
Y190246D01*
X1630464D01*
Y190356D01*
X1630684D01*
Y190466D01*
X1630794D01*
Y190576D01*
X1631013D01*
Y190686D01*
X1631233D01*
Y190795D01*
X1631343D01*
Y190905D01*
X1631562D01*
Y191015D01*
X1631672D01*
Y191125D01*
X1631892D01*
Y191235D01*
X1632111D01*
Y191344D01*
X1632221D01*
Y191454D01*
X1632551D01*
Y191564D01*
X1632661D01*
Y191674D01*
X1632990D01*
Y191784D01*
X1633210D01*
Y191894D01*
X1633319D01*
Y192003D01*
X1633649D01*
Y192113D01*
X1633868D01*
Y192223D01*
X1634198D01*
Y192333D01*
X1634308D01*
Y192442D01*
X1634637D01*
Y192552D01*
X1634966D01*
Y192662D01*
X1635076D01*
Y192772D01*
X1635515D01*
Y192882D01*
X1635735D01*
Y192992D01*
X1636174D01*
Y193101D01*
X1636394D01*
Y193211D01*
X1636614D01*
Y193321D01*
X1637163D01*
Y193431D01*
X1637382D01*
Y193541D01*
X1637931D01*
Y193650D01*
X1638261D01*
Y193760D01*
X1638810D01*
Y193870D01*
X1639359D01*
Y193980D01*
X1639798D01*
Y194090D01*
X1640786D01*
Y194200D01*
X1641335D01*
Y194309D01*
X1642873D01*
Y194419D01*
X1645728D01*
Y194309D01*
D02*
G37*
G36*
X1612848Y395536D02*
X1612681Y395474D01*
X1612525Y395401D01*
X1612233Y395224D01*
X1611973Y395037D01*
X1611744Y394839D01*
X1611640Y394745D01*
X1611556Y394662D01*
X1611473Y394589D01*
X1611411Y394516D01*
X1611358Y394464D01*
X1611327Y394422D01*
X1611306Y394391D01*
X1611296Y394380D01*
X1611067Y394068D01*
X1610879Y393776D01*
X1610723Y393516D01*
X1610609Y393287D01*
X1610556Y393183D01*
X1610515Y393089D01*
X1610484Y393016D01*
X1610452Y392943D01*
X1610432Y392891D01*
X1610421Y392850D01*
X1610411Y392829D01*
Y392818D01*
X1608734D01*
X1608828Y393068D01*
X1608922Y393308D01*
X1609026Y393547D01*
X1609140Y393766D01*
X1609255Y393974D01*
X1609369Y394172D01*
X1609484Y394349D01*
X1609598Y394516D01*
X1609703Y394672D01*
X1609807Y394797D01*
X1609900Y394922D01*
X1609973Y395016D01*
X1610036Y395089D01*
X1610088Y395151D01*
X1610119Y395182D01*
X1610130Y395193D01*
X1603204D01*
Y397036D01*
X1612848D01*
Y395536D01*
D02*
G37*
G36*
X1604829Y385716D02*
X1607443D01*
Y390538D01*
X1609067D01*
Y385716D01*
X1611192D01*
Y390902D01*
X1612816D01*
Y383779D01*
X1603204D01*
Y391090D01*
X1604829D01*
Y385716D01*
D02*
G37*
G36*
X1612848Y379114D02*
X1612681Y379051D01*
X1612525Y378978D01*
X1612233Y378801D01*
X1611973Y378614D01*
X1611744Y378416D01*
X1611640Y378322D01*
X1611556Y378239D01*
X1611473Y378166D01*
X1611411Y378093D01*
X1611358Y378041D01*
X1611327Y377999D01*
X1611306Y377968D01*
X1611296Y377957D01*
X1611067Y377645D01*
X1610879Y377354D01*
X1610723Y377093D01*
X1610609Y376864D01*
X1610556Y376760D01*
X1610515Y376666D01*
X1610484Y376593D01*
X1610452Y376520D01*
X1610432Y376468D01*
X1610421Y376427D01*
X1610411Y376406D01*
Y376395D01*
X1608734D01*
X1608828Y376645D01*
X1608922Y376885D01*
X1609026Y377124D01*
X1609140Y377343D01*
X1609255Y377551D01*
X1609369Y377749D01*
X1609484Y377926D01*
X1609598Y378093D01*
X1609703Y378249D01*
X1609807Y378374D01*
X1609900Y378499D01*
X1609973Y378593D01*
X1610036Y378666D01*
X1610088Y378728D01*
X1610119Y378759D01*
X1610130Y378770D01*
X1603204D01*
Y380613D01*
X1612848D01*
Y379114D01*
D02*
G37*
G36*
X1612816Y371449D02*
X1606255Y369741D01*
X1612816Y368012D01*
Y365107D01*
X1603204D01*
Y366898D01*
X1610765D01*
X1603204Y368793D01*
Y370668D01*
X1610765Y372563D01*
X1603204Y372574D01*
Y374365D01*
X1612816D01*
Y371449D01*
D02*
G37*
G36*
X1612848Y360462D02*
X1612681Y360400D01*
X1612525Y360327D01*
X1612233Y360150D01*
X1611973Y359962D01*
X1611744Y359764D01*
X1611640Y359670D01*
X1611556Y359587D01*
X1611473Y359514D01*
X1611411Y359441D01*
X1611358Y359389D01*
X1611327Y359348D01*
X1611306Y359316D01*
X1611296Y359306D01*
X1611067Y358994D01*
X1610879Y358702D01*
X1610723Y358442D01*
X1610609Y358213D01*
X1610556Y358108D01*
X1610515Y358015D01*
X1610484Y357942D01*
X1610452Y357869D01*
X1610432Y357817D01*
X1610421Y357775D01*
X1610411Y357754D01*
Y357744D01*
X1608734D01*
X1608828Y357994D01*
X1608922Y358233D01*
X1609026Y358473D01*
X1609140Y358692D01*
X1609255Y358900D01*
X1609369Y359098D01*
X1609484Y359275D01*
X1609598Y359441D01*
X1609703Y359598D01*
X1609807Y359723D01*
X1609900Y359848D01*
X1609973Y359941D01*
X1610036Y360014D01*
X1610088Y360077D01*
X1610119Y360108D01*
X1610130Y360118D01*
X1603204D01*
Y361962D01*
X1612848D01*
Y360462D01*
D02*
G37*
G36*
X1605068Y355432D02*
X1605277Y355307D01*
X1605454Y355182D01*
X1605631Y355067D01*
X1605787Y354963D01*
X1605933Y354870D01*
X1606058Y354776D01*
X1606172Y354693D01*
X1606276Y354620D01*
X1606360Y354557D01*
X1606433Y354495D01*
X1606495Y354443D01*
X1606547Y354401D01*
X1606578Y354370D01*
X1606610Y354349D01*
X1606630Y354328D01*
X1606787Y354172D01*
X1606943Y353995D01*
X1607078Y353818D01*
X1607193Y353651D01*
X1607297Y353505D01*
X1607370Y353391D01*
X1607401Y353349D01*
X1607411Y353318D01*
X1607432Y353297D01*
Y353287D01*
X1607474Y353516D01*
X1607526Y353735D01*
X1607589Y353932D01*
X1607651Y354120D01*
X1607724Y354297D01*
X1607797Y354453D01*
X1607870Y354589D01*
X1607953Y354714D01*
X1608026Y354828D01*
X1608099Y354922D01*
X1608161Y355005D01*
X1608213Y355078D01*
X1608265Y355130D01*
X1608297Y355161D01*
X1608318Y355182D01*
X1608328Y355192D01*
X1608463Y355307D01*
X1608609Y355401D01*
X1608755Y355484D01*
X1608911Y355557D01*
X1609057Y355620D01*
X1609203Y355672D01*
X1609494Y355744D01*
X1609619Y355776D01*
X1609744Y355797D01*
X1609848Y355807D01*
X1609942Y355817D01*
X1610015Y355828D01*
X1610067D01*
X1610109D01*
X1610119D01*
X1610432Y355807D01*
X1610713Y355765D01*
X1610973Y355692D01*
X1611192Y355620D01*
X1611286Y355578D01*
X1611379Y355536D01*
X1611452Y355505D01*
X1611515Y355463D01*
X1611567Y355442D01*
X1611598Y355422D01*
X1611619Y355401D01*
X1611629D01*
X1611858Y355234D01*
X1612056Y355047D01*
X1612212Y354870D01*
X1612348Y354693D01*
X1612442Y354526D01*
X1612473Y354464D01*
X1612504Y354401D01*
X1612525Y354349D01*
X1612546Y354318D01*
X1612556Y354297D01*
Y354286D01*
X1612598Y354151D01*
X1612639Y353995D01*
X1612681Y353818D01*
X1612702Y353641D01*
X1612754Y353276D01*
X1612785Y352901D01*
X1612796Y352735D01*
X1612806Y352568D01*
Y352422D01*
X1612816Y352297D01*
Y347965D01*
X1603204D01*
Y349902D01*
X1607214D01*
Y350527D01*
X1607193Y350725D01*
X1607182Y350891D01*
X1607162Y351027D01*
X1607141Y351131D01*
X1607120Y351204D01*
X1607110Y351256D01*
X1607099Y351266D01*
X1607057Y351381D01*
X1606995Y351485D01*
X1606932Y351589D01*
X1606859Y351673D01*
X1606797Y351745D01*
X1606755Y351808D01*
X1606714Y351839D01*
X1606703Y351850D01*
X1606641Y351912D01*
X1606557Y351975D01*
X1606464Y352048D01*
X1606360Y352131D01*
X1606131Y352297D01*
X1605891Y352475D01*
X1605662Y352631D01*
X1605568Y352704D01*
X1605475Y352756D01*
X1605402Y352808D01*
X1605349Y352849D01*
X1605308Y352870D01*
X1605297Y352881D01*
X1603204Y354286D01*
Y356609D01*
X1605068Y355432D01*
D02*
G37*
G36*
X1612691Y332636D02*
X1610983D01*
Y336822D01*
X1610671Y336583D01*
X1610359Y336364D01*
X1610036Y336145D01*
X1609713Y335947D01*
X1609401Y335760D01*
X1609088Y335593D01*
X1608797Y335437D01*
X1608515Y335291D01*
X1608255Y335166D01*
X1608015Y335052D01*
X1607797Y334958D01*
X1607620Y334885D01*
X1607474Y334823D01*
X1607359Y334771D01*
X1607318Y334760D01*
X1607287Y334750D01*
X1607276Y334739D01*
X1607266D01*
X1606880Y334604D01*
X1606495Y334479D01*
X1606120Y334375D01*
X1605756Y334292D01*
X1605402Y334208D01*
X1605068Y334146D01*
X1604756Y334094D01*
X1604454Y334042D01*
X1604183Y334010D01*
X1603944Y333979D01*
X1603725Y333958D01*
X1603548Y333948D01*
X1603402Y333937D01*
X1603298Y333927D01*
X1603256D01*
X1603225D01*
X1603215D01*
X1603204D01*
Y335708D01*
X1603694Y335718D01*
X1604194Y335770D01*
X1604673Y335833D01*
X1604902Y335864D01*
X1605120Y335906D01*
X1605329Y335947D01*
X1605516Y335979D01*
X1605672Y336020D01*
X1605818Y336052D01*
X1605933Y336072D01*
X1606016Y336093D01*
X1606068Y336114D01*
X1606089D01*
X1606682Y336291D01*
X1606974Y336385D01*
X1607255Y336489D01*
X1607516Y336593D01*
X1607776Y336687D01*
X1608005Y336791D01*
X1608234Y336885D01*
X1608432Y336978D01*
X1608609Y337072D01*
X1608765Y337145D01*
X1608901Y337207D01*
X1609005Y337270D01*
X1609088Y337312D01*
X1609130Y337332D01*
X1609151Y337343D01*
X1609411Y337499D01*
X1609661Y337645D01*
X1609890Y337791D01*
X1610098Y337937D01*
X1610296Y338072D01*
X1610484Y338207D01*
X1610650Y338332D01*
X1610796Y338447D01*
X1610921Y338551D01*
X1611036Y338645D01*
X1611140Y338728D01*
X1611213Y338801D01*
X1611275Y338863D01*
X1611327Y338905D01*
X1611348Y338926D01*
X1611358Y338936D01*
X1612691D01*
Y332636D01*
D02*
G37*
G36*
X1606308Y331438D02*
X1606578Y331396D01*
X1606828Y331324D01*
X1607037Y331251D01*
X1607130Y331209D01*
X1607203Y331178D01*
X1607276Y331136D01*
X1607339Y331105D01*
X1607380Y331084D01*
X1607411Y331063D01*
X1607432Y331042D01*
X1607443D01*
X1607661Y330876D01*
X1607849Y330678D01*
X1608005Y330470D01*
X1608141Y330282D01*
X1608245Y330105D01*
X1608286Y330022D01*
X1608318Y329959D01*
X1608349Y329897D01*
X1608370Y329855D01*
X1608380Y329834D01*
Y329824D01*
X1608495Y330043D01*
X1608620Y330241D01*
X1608755Y330407D01*
X1608890Y330543D01*
X1609005Y330647D01*
X1609099Y330730D01*
X1609161Y330772D01*
X1609171Y330793D01*
X1609182D01*
X1609380Y330907D01*
X1609588Y331001D01*
X1609786Y331063D01*
X1609973Y331105D01*
X1610130Y331126D01*
X1610202Y331136D01*
X1610255Y331147D01*
X1610307D01*
X1610338D01*
X1610359D01*
X1610369D01*
X1610567Y331136D01*
X1610754Y331115D01*
X1610931Y331074D01*
X1611098Y331032D01*
X1611254Y330970D01*
X1611400Y330907D01*
X1611535Y330834D01*
X1611660Y330772D01*
X1611765Y330699D01*
X1611858Y330626D01*
X1611942Y330563D01*
X1612014Y330501D01*
X1612066Y330459D01*
X1612108Y330418D01*
X1612129Y330397D01*
X1612139Y330386D01*
X1612264Y330241D01*
X1612369Y330074D01*
X1612473Y329907D01*
X1612546Y329730D01*
X1612619Y329553D01*
X1612671Y329376D01*
X1612764Y329043D01*
X1612785Y328876D01*
X1612806Y328731D01*
X1612827Y328606D01*
X1612837Y328491D01*
X1612848Y328397D01*
Y328262D01*
X1612837Y328012D01*
X1612816Y327772D01*
X1612785Y327554D01*
X1612733Y327346D01*
X1612681Y327158D01*
X1612629Y326981D01*
X1612556Y326814D01*
X1612493Y326679D01*
X1612431Y326544D01*
X1612369Y326440D01*
X1612306Y326346D01*
X1612254Y326262D01*
X1612202Y326210D01*
X1612171Y326158D01*
X1612150Y326137D01*
X1612139Y326127D01*
X1612004Y325992D01*
X1611858Y325877D01*
X1611712Y325783D01*
X1611567Y325690D01*
X1611421Y325617D01*
X1611275Y325565D01*
X1611129Y325513D01*
X1610994Y325471D01*
X1610869Y325440D01*
X1610744Y325419D01*
X1610640Y325398D01*
X1610546Y325388D01*
X1610473D01*
X1610421Y325377D01*
X1610379D01*
X1610369D01*
X1610140Y325388D01*
X1609921Y325429D01*
X1609723Y325481D01*
X1609546Y325544D01*
X1609401Y325596D01*
X1609296Y325648D01*
X1609255Y325669D01*
X1609223Y325690D01*
X1609213Y325700D01*
X1609203D01*
X1609015Y325835D01*
X1608859Y326002D01*
X1608713Y326169D01*
X1608599Y326335D01*
X1608505Y326492D01*
X1608432Y326617D01*
X1608411Y326669D01*
X1608390Y326700D01*
X1608380Y326721D01*
Y326731D01*
X1608234Y326440D01*
X1608078Y326200D01*
X1607901Y325992D01*
X1607745Y325815D01*
X1607599Y325690D01*
X1607474Y325596D01*
X1607432Y325565D01*
X1607401Y325544D01*
X1607380Y325523D01*
X1607370D01*
X1607120Y325398D01*
X1606870Y325304D01*
X1606630Y325231D01*
X1606412Y325190D01*
X1606224Y325159D01*
X1606141Y325148D01*
X1606078D01*
X1606016Y325138D01*
X1605974D01*
X1605954D01*
X1605943D01*
X1605683Y325148D01*
X1605443Y325179D01*
X1605214Y325231D01*
X1604995Y325294D01*
X1604798Y325377D01*
X1604621Y325461D01*
X1604454Y325554D01*
X1604298Y325648D01*
X1604162Y325742D01*
X1604048Y325835D01*
X1603944Y325919D01*
X1603860Y326002D01*
X1603798Y326064D01*
X1603756Y326117D01*
X1603725Y326148D01*
X1603714Y326158D01*
X1603590Y326325D01*
X1603485Y326502D01*
X1603392Y326689D01*
X1603319Y326866D01*
X1603246Y327054D01*
X1603194Y327231D01*
X1603111Y327585D01*
X1603090Y327741D01*
X1603069Y327887D01*
X1603048Y328012D01*
X1603038Y328126D01*
X1603027Y328220D01*
Y328345D01*
X1603038Y328606D01*
X1603058Y328845D01*
X1603100Y329074D01*
X1603163Y329293D01*
X1603225Y329491D01*
X1603288Y329678D01*
X1603371Y329845D01*
X1603444Y330001D01*
X1603517Y330136D01*
X1603600Y330261D01*
X1603663Y330365D01*
X1603735Y330449D01*
X1603787Y330522D01*
X1603829Y330563D01*
X1603850Y330595D01*
X1603860Y330605D01*
X1604027Y330751D01*
X1604194Y330886D01*
X1604371Y331001D01*
X1604548Y331095D01*
X1604725Y331178D01*
X1604912Y331251D01*
X1605079Y331303D01*
X1605256Y331355D01*
X1605412Y331386D01*
X1605558Y331417D01*
X1605683Y331438D01*
X1605797Y331449D01*
X1605891D01*
X1605954Y331459D01*
X1606006D01*
X1606016D01*
X1606308Y331438D01*
D02*
G37*
G36*
X1608422Y323919D02*
X1608880Y323888D01*
X1609307Y323846D01*
X1609692Y323784D01*
X1610046Y323711D01*
X1610369Y323638D01*
X1610661Y323544D01*
X1610911Y323461D01*
X1611140Y323378D01*
X1611327Y323294D01*
X1611494Y323211D01*
X1611619Y323138D01*
X1611723Y323076D01*
X1611796Y323034D01*
X1611837Y323003D01*
X1611848Y322992D01*
X1612025Y322836D01*
X1612181Y322670D01*
X1612316Y322492D01*
X1612431Y322315D01*
X1612525Y322138D01*
X1612608Y321951D01*
X1612671Y321774D01*
X1612723Y321607D01*
X1612764Y321441D01*
X1612796Y321284D01*
X1612816Y321149D01*
X1612837Y321035D01*
Y320941D01*
X1612848Y320868D01*
Y320806D01*
X1612837Y320555D01*
X1612806Y320316D01*
X1612754Y320087D01*
X1612691Y319879D01*
X1612619Y319681D01*
X1612535Y319504D01*
X1612442Y319337D01*
X1612358Y319191D01*
X1612264Y319066D01*
X1612171Y318952D01*
X1612087Y318858D01*
X1612014Y318775D01*
X1611952Y318712D01*
X1611900Y318671D01*
X1611869Y318639D01*
X1611858Y318629D01*
X1611619Y318462D01*
X1611348Y318316D01*
X1611056Y318192D01*
X1610744Y318087D01*
X1610421Y317994D01*
X1610098Y317921D01*
X1609776Y317858D01*
X1609453Y317806D01*
X1609151Y317775D01*
X1608869Y317744D01*
X1608620Y317723D01*
X1608390Y317702D01*
X1608297D01*
X1608213D01*
X1608141Y317692D01*
X1608068D01*
X1608026D01*
X1607984D01*
X1607963D01*
X1607953D01*
X1607453Y317702D01*
X1606995Y317733D01*
X1606568Y317775D01*
X1606183Y317827D01*
X1605829Y317890D01*
X1605516Y317962D01*
X1605235Y318035D01*
X1604985Y318119D01*
X1604777Y318202D01*
X1604589Y318275D01*
X1604433Y318348D01*
X1604308Y318410D01*
X1604214Y318462D01*
X1604152Y318514D01*
X1604110Y318535D01*
X1604100Y318546D01*
X1603912Y318712D01*
X1603746Y318889D01*
X1603600Y319077D01*
X1603475Y319264D01*
X1603381Y319452D01*
X1603288Y319639D01*
X1603215Y319816D01*
X1603163Y319993D01*
X1603121Y320160D01*
X1603079Y320316D01*
X1603058Y320451D01*
X1603048Y320576D01*
X1603038Y320670D01*
X1603027Y320743D01*
Y320806D01*
X1603038Y321055D01*
X1603069Y321295D01*
X1603121Y321524D01*
X1603183Y321732D01*
X1603256Y321930D01*
X1603340Y322107D01*
X1603423Y322274D01*
X1603517Y322420D01*
X1603610Y322545D01*
X1603694Y322659D01*
X1603777Y322763D01*
X1603850Y322836D01*
X1603912Y322899D01*
X1603965Y322951D01*
X1603996Y322972D01*
X1604006Y322982D01*
X1604246Y323149D01*
X1604516Y323294D01*
X1604818Y323419D01*
X1605120Y323534D01*
X1605443Y323617D01*
X1605777Y323701D01*
X1606099Y323763D01*
X1606422Y323815D01*
X1606724Y323846D01*
X1607005Y323878D01*
X1607266Y323898D01*
X1607484Y323919D01*
X1607589D01*
X1607672D01*
X1607745Y323930D01*
X1607818D01*
X1607859D01*
X1607901D01*
X1607922D01*
X1607932D01*
X1608422Y323919D01*
D02*
G37*
G36*
X1610379Y316442D02*
X1610577Y316421D01*
X1610765Y316380D01*
X1610952Y316327D01*
X1611119Y316265D01*
X1611275Y316192D01*
X1611421Y316119D01*
X1611546Y316046D01*
X1611671Y315963D01*
X1611775Y315890D01*
X1611869Y315817D01*
X1611942Y315755D01*
X1611994Y315703D01*
X1612046Y315661D01*
X1612066Y315640D01*
X1612077Y315630D01*
X1612212Y315473D01*
X1612327Y315296D01*
X1612431Y315119D01*
X1612525Y314942D01*
X1612598Y314755D01*
X1612660Y314568D01*
X1612712Y314391D01*
X1612754Y314213D01*
X1612785Y314047D01*
X1612806Y313891D01*
X1612827Y313755D01*
X1612837Y313641D01*
X1612848Y313536D01*
Y313401D01*
X1612837Y313162D01*
X1612816Y312932D01*
X1612785Y312714D01*
X1612744Y312516D01*
X1612691Y312318D01*
X1612639Y312141D01*
X1612577Y311985D01*
X1612514Y311829D01*
X1612452Y311693D01*
X1612389Y311579D01*
X1612337Y311474D01*
X1612285Y311391D01*
X1612244Y311329D01*
X1612212Y311277D01*
X1612191Y311245D01*
X1612181Y311235D01*
X1612046Y311079D01*
X1611900Y310943D01*
X1611733Y310819D01*
X1611556Y310714D01*
X1611379Y310621D01*
X1611192Y310537D01*
X1611015Y310464D01*
X1610838Y310402D01*
X1610671Y310350D01*
X1610515Y310308D01*
X1610369Y310277D01*
X1610244Y310256D01*
X1610140Y310235D01*
X1610057Y310225D01*
X1610015Y310214D01*
X1609994D01*
X1609817Y312047D01*
X1609963Y312058D01*
X1610098Y312078D01*
X1610338Y312131D01*
X1610536Y312193D01*
X1610692Y312256D01*
X1610817Y312328D01*
X1610900Y312381D01*
X1610942Y312422D01*
X1610963Y312433D01*
X1611077Y312568D01*
X1611171Y312724D01*
X1611233Y312880D01*
X1611275Y313026D01*
X1611296Y313162D01*
X1611317Y313266D01*
Y313360D01*
X1611306Y313568D01*
X1611265Y313745D01*
X1611213Y313901D01*
X1611150Y314036D01*
X1611088Y314140D01*
X1611036Y314213D01*
X1610994Y314265D01*
X1610983Y314276D01*
X1610848Y314391D01*
X1610692Y314474D01*
X1610536Y314526D01*
X1610390Y314568D01*
X1610244Y314588D01*
X1610140Y314609D01*
X1610098D01*
X1610067D01*
X1610046D01*
X1610036D01*
X1609828Y314588D01*
X1609619Y314547D01*
X1609432Y314484D01*
X1609265Y314422D01*
X1609119Y314349D01*
X1609005Y314286D01*
X1608963Y314255D01*
X1608932Y314245D01*
X1608922Y314224D01*
X1608911D01*
X1608828Y314161D01*
X1608724Y314078D01*
X1608609Y313974D01*
X1608495Y313870D01*
X1608234Y313620D01*
X1607974Y313349D01*
X1607849Y313224D01*
X1607724Y313099D01*
X1607620Y312995D01*
X1607526Y312891D01*
X1607453Y312808D01*
X1607391Y312745D01*
X1607349Y312703D01*
X1607339Y312693D01*
X1607078Y312412D01*
X1606828Y312162D01*
X1606589Y311922D01*
X1606370Y311714D01*
X1606172Y311527D01*
X1605974Y311360D01*
X1605808Y311204D01*
X1605652Y311079D01*
X1605506Y310964D01*
X1605391Y310870D01*
X1605277Y310787D01*
X1605193Y310725D01*
X1605131Y310683D01*
X1605079Y310641D01*
X1605047Y310631D01*
X1605037Y310621D01*
X1604714Y310443D01*
X1604391Y310308D01*
X1604079Y310194D01*
X1603798Y310110D01*
X1603673Y310079D01*
X1603558Y310058D01*
X1603454Y310037D01*
X1603371Y310017D01*
X1603298Y310006D01*
X1603246D01*
X1603215Y309996D01*
X1603204D01*
Y316452D01*
X1604912D01*
Y312787D01*
X1605089Y312912D01*
X1605172Y312974D01*
X1605256Y313026D01*
X1605318Y313078D01*
X1605370Y313120D01*
X1605402Y313151D01*
X1605412Y313162D01*
X1605464Y313214D01*
X1605537Y313276D01*
X1605610Y313349D01*
X1605693Y313432D01*
X1605870Y313609D01*
X1606047Y313797D01*
X1606214Y313974D01*
X1606287Y314057D01*
X1606349Y314130D01*
X1606401Y314182D01*
X1606443Y314224D01*
X1606464Y314255D01*
X1606474Y314265D01*
X1606620Y314422D01*
X1606755Y314568D01*
X1606891Y314703D01*
X1607005Y314828D01*
X1607120Y314932D01*
X1607214Y315036D01*
X1607307Y315119D01*
X1607391Y315203D01*
X1607526Y315317D01*
X1607620Y315411D01*
X1607682Y315453D01*
X1607703Y315473D01*
X1607943Y315651D01*
X1608172Y315807D01*
X1608380Y315932D01*
X1608557Y316036D01*
X1608713Y316109D01*
X1608776Y316140D01*
X1608828Y316171D01*
X1608869Y316192D01*
X1608911Y316203D01*
X1608922Y316213D01*
X1608932D01*
X1609151Y316296D01*
X1609369Y316348D01*
X1609578Y316390D01*
X1609776Y316421D01*
X1609932Y316442D01*
X1610005D01*
X1610057Y316452D01*
X1610109D01*
X1610140D01*
X1610161D01*
X1610171D01*
X1610379Y316442D01*
D02*
G37*
G36*
X1606735Y307090D02*
X1606547Y307038D01*
X1606360Y306986D01*
X1606193Y306924D01*
X1606047Y306861D01*
X1605901Y306788D01*
X1605777Y306726D01*
X1605662Y306653D01*
X1605558Y306590D01*
X1605475Y306528D01*
X1605391Y306465D01*
X1605329Y306413D01*
X1605277Y306372D01*
X1605235Y306330D01*
X1605204Y306299D01*
X1605193Y306288D01*
X1605183Y306278D01*
X1605100Y306174D01*
X1605027Y306059D01*
X1604902Y305841D01*
X1604818Y305622D01*
X1604756Y305414D01*
X1604725Y305226D01*
X1604704Y305153D01*
Y305080D01*
X1604693Y305028D01*
Y304955D01*
X1604704Y304768D01*
X1604725Y304580D01*
X1604766Y304403D01*
X1604818Y304247D01*
X1604870Y304091D01*
X1604933Y303956D01*
X1605006Y303820D01*
X1605079Y303706D01*
X1605152Y303602D01*
X1605225Y303508D01*
X1605287Y303435D01*
X1605339Y303362D01*
X1605391Y303320D01*
X1605433Y303279D01*
X1605454Y303258D01*
X1605464Y303248D01*
X1605620Y303133D01*
X1605797Y303039D01*
X1605985Y302945D01*
X1606193Y302873D01*
X1606412Y302810D01*
X1606620Y302758D01*
X1607047Y302685D01*
X1607255Y302654D01*
X1607443Y302633D01*
X1607609Y302623D01*
X1607766Y302612D01*
X1607880Y302602D01*
X1607974D01*
X1608036D01*
X1608057D01*
X1608370Y302612D01*
X1608661Y302633D01*
X1608922Y302664D01*
X1609171Y302706D01*
X1609401Y302758D01*
X1609598Y302810D01*
X1609786Y302873D01*
X1609942Y302935D01*
X1610088Y302987D01*
X1610213Y303050D01*
X1610317Y303102D01*
X1610400Y303154D01*
X1610463Y303195D01*
X1610515Y303227D01*
X1610536Y303248D01*
X1610546Y303258D01*
X1610681Y303383D01*
X1610796Y303529D01*
X1610900Y303664D01*
X1610994Y303810D01*
X1611067Y303956D01*
X1611129Y304101D01*
X1611181Y304247D01*
X1611223Y304383D01*
X1611254Y304508D01*
X1611275Y304622D01*
X1611296Y304726D01*
X1611306Y304820D01*
X1611317Y304893D01*
Y304997D01*
X1611296Y305278D01*
X1611244Y305528D01*
X1611181Y305747D01*
X1611098Y305945D01*
X1611015Y306101D01*
X1610983Y306163D01*
X1610952Y306215D01*
X1610921Y306257D01*
X1610900Y306288D01*
X1610890Y306299D01*
X1610879Y306309D01*
X1610702Y306497D01*
X1610515Y306653D01*
X1610317Y306778D01*
X1610130Y306871D01*
X1609963Y306944D01*
X1609890Y306976D01*
X1609828Y306996D01*
X1609776Y307007D01*
X1609734Y307017D01*
X1609713Y307028D01*
X1609703D01*
X1610161Y308944D01*
X1610369Y308881D01*
X1610567Y308809D01*
X1610744Y308725D01*
X1610921Y308652D01*
X1611077Y308569D01*
X1611223Y308486D01*
X1611348Y308402D01*
X1611473Y308330D01*
X1611577Y308246D01*
X1611671Y308184D01*
X1611744Y308121D01*
X1611806Y308059D01*
X1611858Y308017D01*
X1611889Y307986D01*
X1611910Y307965D01*
X1611921Y307955D01*
X1612108Y307736D01*
X1612264Y307517D01*
X1612410Y307278D01*
X1612525Y307038D01*
X1612629Y306799D01*
X1612712Y306559D01*
X1612785Y306330D01*
X1612837Y306111D01*
X1612889Y305903D01*
X1612921Y305705D01*
X1612941Y305528D01*
X1612952Y305382D01*
X1612962Y305257D01*
X1612973Y305174D01*
Y305091D01*
X1612962Y304726D01*
X1612921Y304372D01*
X1612848Y304039D01*
X1612764Y303727D01*
X1612660Y303435D01*
X1612556Y303175D01*
X1612431Y302925D01*
X1612306Y302706D01*
X1612181Y302508D01*
X1612066Y302331D01*
X1611952Y302185D01*
X1611848Y302060D01*
X1611765Y301956D01*
X1611702Y301894D01*
X1611650Y301842D01*
X1611640Y301831D01*
X1611379Y301612D01*
X1611098Y301425D01*
X1610806Y301258D01*
X1610504Y301123D01*
X1610192Y300998D01*
X1609880Y300904D01*
X1609578Y300821D01*
X1609276Y300758D01*
X1609005Y300707D01*
X1608745Y300665D01*
X1608505Y300644D01*
X1608307Y300623D01*
X1608141Y300613D01*
X1608078Y300602D01*
X1608015D01*
X1607974D01*
X1607943D01*
X1607922D01*
X1607911D01*
X1607495Y300613D01*
X1607110Y300654D01*
X1606745Y300717D01*
X1606401Y300790D01*
X1606078Y300884D01*
X1605787Y300988D01*
X1605516Y301102D01*
X1605277Y301217D01*
X1605058Y301331D01*
X1604870Y301446D01*
X1604714Y301550D01*
X1604579Y301644D01*
X1604475Y301717D01*
X1604402Y301779D01*
X1604350Y301821D01*
X1604339Y301831D01*
X1604110Y302071D01*
X1603912Y302321D01*
X1603735Y302581D01*
X1603590Y302841D01*
X1603465Y303102D01*
X1603360Y303362D01*
X1603267Y303622D01*
X1603204Y303862D01*
X1603142Y304091D01*
X1603111Y304310D01*
X1603079Y304497D01*
X1603058Y304653D01*
X1603048Y304789D01*
X1603038Y304893D01*
Y304976D01*
X1603048Y305257D01*
X1603069Y305528D01*
X1603111Y305788D01*
X1603152Y306028D01*
X1603215Y306257D01*
X1603277Y306465D01*
X1603350Y306663D01*
X1603423Y306830D01*
X1603485Y306996D01*
X1603558Y307132D01*
X1603621Y307246D01*
X1603683Y307351D01*
X1603725Y307423D01*
X1603767Y307486D01*
X1603787Y307517D01*
X1603798Y307528D01*
X1603954Y307715D01*
X1604121Y307882D01*
X1604298Y308038D01*
X1604496Y308184D01*
X1604683Y308309D01*
X1604881Y308434D01*
X1605079Y308538D01*
X1605266Y308631D01*
X1605443Y308715D01*
X1605610Y308788D01*
X1605766Y308840D01*
X1605891Y308892D01*
X1606006Y308934D01*
X1606078Y308954D01*
X1606131Y308975D01*
X1606151D01*
X1606735Y307090D01*
D02*
G37*
G36*
X1606287Y299280D02*
X1606568Y299228D01*
X1606808Y299144D01*
X1607026Y299061D01*
X1607110Y299019D01*
X1607193Y298978D01*
X1607266Y298936D01*
X1607328Y298894D01*
X1607370Y298863D01*
X1607401Y298842D01*
X1607422Y298832D01*
X1607432Y298822D01*
X1607651Y298634D01*
X1607828Y298415D01*
X1607984Y298186D01*
X1608099Y297978D01*
X1608192Y297780D01*
X1608224Y297697D01*
X1608255Y297624D01*
X1608276Y297561D01*
X1608297Y297520D01*
X1608307Y297488D01*
Y297478D01*
X1608422Y297697D01*
X1608557Y297895D01*
X1608703Y298061D01*
X1608838Y298207D01*
X1608963Y298322D01*
X1609057Y298405D01*
X1609099Y298426D01*
X1609130Y298447D01*
X1609140Y298467D01*
X1609151D01*
X1609369Y298592D01*
X1609578Y298676D01*
X1609786Y298738D01*
X1609984Y298790D01*
X1610150Y298811D01*
X1610213Y298822D01*
X1610275D01*
X1610327Y298832D01*
X1610359D01*
X1610379D01*
X1610390D01*
X1610619Y298822D01*
X1610827Y298790D01*
X1611025Y298738D01*
X1611192Y298686D01*
X1611327Y298624D01*
X1611431Y298582D01*
X1611463Y298561D01*
X1611494Y298540D01*
X1611504Y298530D01*
X1611515D01*
X1611692Y298415D01*
X1611848Y298290D01*
X1611983Y298165D01*
X1612108Y298051D01*
X1612191Y297947D01*
X1612264Y297863D01*
X1612306Y297811D01*
X1612316Y297801D01*
Y297791D01*
X1612421Y297624D01*
X1612504Y297447D01*
X1612577Y297280D01*
X1612629Y297124D01*
X1612671Y296989D01*
X1612691Y296884D01*
X1612702Y296843D01*
X1612712Y296812D01*
Y296791D01*
X1612733Y296676D01*
X1612744Y296562D01*
X1612775Y296291D01*
X1612796Y296010D01*
X1612806Y295729D01*
Y295604D01*
X1612816Y295479D01*
Y291250D01*
X1603204D01*
Y294854D01*
X1603215Y295156D01*
Y295666D01*
X1603225Y295885D01*
Y296072D01*
X1603235Y296239D01*
Y296385D01*
X1603246Y296499D01*
Y296603D01*
X1603256Y296687D01*
Y296749D01*
X1603267Y296801D01*
Y296853D01*
X1603308Y297134D01*
X1603371Y297384D01*
X1603444Y297614D01*
X1603527Y297801D01*
X1603600Y297947D01*
X1603631Y298009D01*
X1603652Y298061D01*
X1603683Y298103D01*
X1603704Y298134D01*
X1603714Y298145D01*
Y298155D01*
X1603860Y298342D01*
X1604027Y298509D01*
X1604194Y298655D01*
X1604350Y298769D01*
X1604485Y298863D01*
X1604600Y298936D01*
X1604641Y298957D01*
X1604673Y298978D01*
X1604693Y298988D01*
X1604704D01*
X1604943Y299092D01*
X1605172Y299165D01*
X1605381Y299228D01*
X1605579Y299259D01*
X1605745Y299280D01*
X1605818Y299290D01*
X1605870Y299301D01*
X1605922D01*
X1605954D01*
X1605974D01*
X1605985D01*
X1606141D01*
X1606287Y299280D01*
D02*
G37*
G36*
X15910Y361714D02*
X15404D01*
X15314Y361874D01*
X15210Y362026D01*
X15092Y362172D01*
X14974Y362297D01*
X14870Y362415D01*
X14822Y362456D01*
X14787Y362498D01*
X14752Y362533D01*
X14725Y362553D01*
X14711Y362567D01*
X14704Y362574D01*
X14517Y362734D01*
X14316Y362872D01*
X14121Y363004D01*
X13941Y363115D01*
X13865Y363157D01*
X13789Y363198D01*
X13719Y363240D01*
X13664Y363268D01*
X13615Y363288D01*
X13580Y363309D01*
X13560Y363316D01*
X13553Y363323D01*
Y364079D01*
X13692Y364023D01*
X13837Y363961D01*
X13976Y363892D01*
X14101Y363829D01*
X14212Y363767D01*
X14260Y363746D01*
X14302Y363718D01*
X14336Y363704D01*
X14357Y363691D01*
X14371Y363677D01*
X14378D01*
X14544Y363573D01*
X14690Y363476D01*
X14822Y363386D01*
X14926Y363302D01*
X15016Y363233D01*
X15078Y363184D01*
X15113Y363150D01*
X15127Y363136D01*
Y368135D01*
X15910D01*
Y361714D01*
D02*
G37*
G36*
X74223D02*
X73716D01*
X73626Y361874D01*
X73522Y362026D01*
X73404Y362172D01*
X73286Y362297D01*
X73183Y362415D01*
X73134Y362456D01*
X73099Y362498D01*
X73065Y362533D01*
X73037Y362553D01*
X73023Y362567D01*
X73016Y362574D01*
X72829Y362734D01*
X72628Y362872D01*
X72434Y363004D01*
X72253Y363115D01*
X72177Y363157D01*
X72101Y363198D01*
X72031Y363240D01*
X71976Y363268D01*
X71927Y363288D01*
X71893Y363309D01*
X71872Y363316D01*
X71865Y363323D01*
Y364079D01*
X72004Y364023D01*
X72149Y363961D01*
X72288Y363892D01*
X72413Y363829D01*
X72524Y363767D01*
X72572Y363746D01*
X72614Y363718D01*
X72649Y363704D01*
X72669Y363691D01*
X72683Y363677D01*
X72690D01*
X72857Y363573D01*
X73002Y363476D01*
X73134Y363386D01*
X73238Y363302D01*
X73328Y363233D01*
X73390Y363184D01*
X73425Y363150D01*
X73439Y363136D01*
Y368135D01*
X74223D01*
Y361714D01*
D02*
G37*
G36*
X78453Y368232D02*
X78570Y368226D01*
X78688Y368205D01*
X78799Y368184D01*
X78903Y368149D01*
X78993Y368121D01*
X79083Y368087D01*
X79160Y368052D01*
X79236Y368018D01*
X79299Y367983D01*
X79354Y367948D01*
X79395Y367920D01*
X79430Y367900D01*
X79458Y367879D01*
X79472Y367872D01*
X79479Y367865D01*
X79562Y367789D01*
X79645Y367712D01*
X79784Y367539D01*
X79902Y367366D01*
X79999Y367192D01*
X80040Y367109D01*
X80075Y367033D01*
X80103Y366970D01*
X80131Y366908D01*
X80151Y366866D01*
X80158Y366825D01*
X80172Y366804D01*
Y366797D01*
X80214Y366665D01*
X80248Y366520D01*
X80311Y366222D01*
X80352Y365916D01*
X80366Y365771D01*
X80380Y365625D01*
X80387Y365494D01*
X80394Y365369D01*
X80401Y365265D01*
X80408Y365168D01*
Y365091D01*
Y365029D01*
Y364994D01*
Y364980D01*
Y364807D01*
X80401Y364641D01*
X80394Y364488D01*
X80387Y364342D01*
X80373Y364211D01*
X80359Y364086D01*
X80345Y363975D01*
X80339Y363871D01*
X80325Y363781D01*
X80311Y363704D01*
X80297Y363635D01*
X80283Y363580D01*
X80276Y363531D01*
X80269Y363503D01*
X80262Y363483D01*
Y363476D01*
X80207Y363274D01*
X80138Y363087D01*
X80075Y362928D01*
X80013Y362789D01*
X79978Y362734D01*
X79957Y362678D01*
X79929Y362630D01*
X79909Y362595D01*
X79888Y362567D01*
X79881Y362546D01*
X79867Y362533D01*
Y362526D01*
X79770Y362387D01*
X79659Y362262D01*
X79555Y362158D01*
X79451Y362075D01*
X79361Y362006D01*
X79292Y361964D01*
X79264Y361943D01*
X79243Y361929D01*
X79229Y361922D01*
X79222D01*
X79070Y361853D01*
X78917Y361805D01*
X78765Y361763D01*
X78626Y361742D01*
X78501Y361728D01*
X78453Y361721D01*
X78404Y361714D01*
X78321D01*
X78196Y361721D01*
X78071Y361728D01*
X77953Y361749D01*
X77842Y361770D01*
X77745Y361797D01*
X77648Y361832D01*
X77558Y361867D01*
X77482Y361902D01*
X77405Y361936D01*
X77343Y361971D01*
X77288Y361999D01*
X77246Y362033D01*
X77211Y362054D01*
X77183Y362075D01*
X77170Y362082D01*
X77163Y362089D01*
X77080Y362165D01*
X77003Y362241D01*
X76865Y362415D01*
X76740Y362588D01*
X76643Y362761D01*
X76601Y362845D01*
X76566Y362914D01*
X76539Y362983D01*
X76511Y363039D01*
X76497Y363087D01*
X76483Y363129D01*
X76469Y363150D01*
Y363157D01*
X76428Y363288D01*
X76393Y363434D01*
X76338Y363732D01*
X76296Y364037D01*
X76282Y364183D01*
X76268Y364328D01*
X76261Y364460D01*
X76254Y364585D01*
X76247Y364696D01*
Y364793D01*
X76241Y364869D01*
Y364932D01*
Y364967D01*
Y364980D01*
X76247Y365306D01*
X76268Y365611D01*
X76296Y365889D01*
X76338Y366145D01*
X76386Y366381D01*
X76442Y366596D01*
X76497Y366783D01*
X76560Y366957D01*
X76615Y367102D01*
X76670Y367234D01*
X76726Y367338D01*
X76774Y367428D01*
X76816Y367497D01*
X76844Y367546D01*
X76865Y367574D01*
X76872Y367581D01*
X76975Y367699D01*
X77087Y367796D01*
X77204Y367886D01*
X77322Y367962D01*
X77440Y368024D01*
X77565Y368080D01*
X77683Y368121D01*
X77794Y368156D01*
X77905Y368184D01*
X78002Y368205D01*
X78092Y368219D01*
X78168Y368226D01*
X78231Y368232D01*
X78279Y368239D01*
X78321D01*
X78453Y368232D01*
D02*
G37*
%LPC*%
G36*
X1641225Y322127D02*
X1638480D01*
Y322017D01*
X1638041D01*
Y321907D01*
X1637382D01*
Y321797D01*
X1637053D01*
Y321687D01*
X1636723D01*
Y321577D01*
X1636394D01*
Y321468D01*
X1636174D01*
Y321358D01*
X1635845D01*
Y321248D01*
X1635625D01*
Y321138D01*
X1635406D01*
Y321029D01*
X1635186D01*
Y320919D01*
X1635076D01*
Y320809D01*
X1634857D01*
Y320699D01*
X1634747D01*
Y320589D01*
X1634527D01*
Y320479D01*
X1634417D01*
Y320370D01*
X1634308D01*
Y320260D01*
X1634198D01*
Y320150D01*
X1634088D01*
Y320040D01*
X1633868D01*
Y319930D01*
X1633759D01*
Y319821D01*
X1633649D01*
Y319711D01*
X1633539D01*
Y319601D01*
X1633429D01*
Y319491D01*
X1633319D01*
Y319272D01*
X1633210D01*
Y319162D01*
X1633100D01*
Y319052D01*
X1632990D01*
Y318942D01*
X1632880D01*
Y318722D01*
X1632770D01*
Y318503D01*
X1632661D01*
Y318393D01*
X1632551D01*
Y318173D01*
X1632441D01*
Y317954D01*
X1632331D01*
Y317734D01*
X1632221D01*
Y317515D01*
X1632111D01*
Y317295D01*
X1632002D01*
Y316856D01*
X1631892D01*
Y316636D01*
X1631782D01*
Y315977D01*
X1631672D01*
Y315428D01*
X1631562D01*
Y313232D01*
X1631672D01*
Y312683D01*
X1631782D01*
Y312024D01*
X1631892D01*
Y311805D01*
X1632002D01*
Y311365D01*
X1632111D01*
Y311146D01*
X1632221D01*
Y310926D01*
X1632331D01*
Y310707D01*
X1632441D01*
Y310487D01*
X1632551D01*
Y310267D01*
X1632661D01*
Y310157D01*
X1632770D01*
Y309938D01*
X1632880D01*
Y309718D01*
X1632990D01*
Y309608D01*
X1633100D01*
Y309499D01*
X1633210D01*
Y309389D01*
X1633319D01*
Y309169D01*
X1633429D01*
Y309059D01*
X1633539D01*
Y308950D01*
X1633649D01*
Y308840D01*
X1633759D01*
Y308730D01*
X1633868D01*
Y308620D01*
X1633978D01*
Y308510D01*
X1634088D01*
Y308400D01*
X1634308D01*
Y308291D01*
X1634417D01*
Y308181D01*
X1634637D01*
Y308071D01*
X1634747D01*
Y307961D01*
X1634857D01*
Y307851D01*
X1635076D01*
Y307742D01*
X1635186D01*
Y307632D01*
X1635406D01*
Y307522D01*
X1635625D01*
Y307412D01*
X1635955D01*
Y307302D01*
X1636064D01*
Y307193D01*
X1636394D01*
Y307083D01*
X1636723D01*
Y306973D01*
X1636943D01*
Y306863D01*
X1637492D01*
Y306753D01*
X1637822D01*
Y306644D01*
X1638810D01*
Y306534D01*
X1640786D01*
Y306644D01*
X1641775D01*
Y306753D01*
X1642104D01*
Y306863D01*
X1642653D01*
Y306973D01*
X1642982D01*
Y307083D01*
X1643312D01*
Y307193D01*
X1643531D01*
Y307302D01*
X1643751D01*
Y307412D01*
X1644081D01*
Y307522D01*
X1644190D01*
Y307632D01*
X1644410D01*
Y307742D01*
X1644630D01*
Y307851D01*
X1644739D01*
Y307961D01*
X1644959D01*
Y308071D01*
X1645069D01*
Y308181D01*
X1645179D01*
Y308291D01*
X1645398D01*
Y308400D01*
X1645508D01*
Y308510D01*
X1645618D01*
Y308620D01*
X1645728D01*
Y308730D01*
X1645838D01*
Y308840D01*
X1645947D01*
Y308950D01*
X1646057D01*
Y309059D01*
X1646167D01*
Y309169D01*
X1646277D01*
Y309279D01*
X1646387D01*
Y309389D01*
X1646496D01*
Y309608D01*
X1646606D01*
Y309718D01*
X1646716D01*
Y309938D01*
X1646826D01*
Y310048D01*
X1646936D01*
Y310267D01*
X1647045D01*
Y310487D01*
X1647155D01*
Y310597D01*
X1647265D01*
Y310926D01*
X1647375D01*
Y311146D01*
X1647485D01*
Y311365D01*
X1647594D01*
Y311805D01*
X1647704D01*
Y312024D01*
X1647814D01*
Y312683D01*
X1647924D01*
Y313232D01*
X1648034D01*
Y315538D01*
X1647924D01*
Y316087D01*
X1647814D01*
Y316746D01*
X1647704D01*
Y316966D01*
X1647594D01*
Y317405D01*
X1647485D01*
Y317624D01*
X1647375D01*
Y317844D01*
X1647265D01*
Y318064D01*
X1647155D01*
Y318283D01*
X1647045D01*
Y318503D01*
X1646936D01*
Y318613D01*
X1646826D01*
Y318832D01*
X1646716D01*
Y318942D01*
X1646606D01*
Y319162D01*
X1646496D01*
Y319272D01*
X1646387D01*
Y319381D01*
X1646277D01*
Y319491D01*
X1646167D01*
Y319711D01*
X1646057D01*
Y319821D01*
X1645947D01*
Y319930D01*
X1645838D01*
Y320040D01*
X1645618D01*
Y320150D01*
X1645508D01*
Y320260D01*
X1645398D01*
Y320370D01*
X1645289D01*
Y320479D01*
X1645179D01*
Y320589D01*
X1644959D01*
Y320699D01*
X1644849D01*
Y320809D01*
X1644630D01*
Y320919D01*
X1644520D01*
Y321029D01*
X1644300D01*
Y321138D01*
X1644081D01*
Y321248D01*
X1643861D01*
Y321358D01*
X1643531D01*
Y321468D01*
X1643312D01*
Y321577D01*
X1642982D01*
Y321687D01*
X1642653D01*
Y321797D01*
X1642433D01*
Y321907D01*
X1641775D01*
Y322017D01*
X1641225D01*
Y322127D01*
D02*
G37*
G36*
X1645838Y184866D02*
X1642763D01*
Y184756D01*
X1642104D01*
Y184646D01*
X1641225D01*
Y184536D01*
X1640896D01*
Y184426D01*
X1640237D01*
Y184317D01*
X1640018D01*
Y184207D01*
X1639688D01*
Y184097D01*
X1639249D01*
Y183987D01*
X1639029D01*
Y183878D01*
X1638590D01*
Y183768D01*
X1638371D01*
Y183658D01*
X1638151D01*
Y183548D01*
X1637931D01*
Y183438D01*
X1637712D01*
Y183328D01*
X1637382D01*
Y183219D01*
X1637272D01*
Y183109D01*
X1636943D01*
Y182999D01*
X1636833D01*
Y182889D01*
X1636614D01*
Y182779D01*
X1636394D01*
Y182670D01*
X1636284D01*
Y182560D01*
X1636064D01*
Y182450D01*
X1635955D01*
Y182340D01*
X1635735D01*
Y182230D01*
X1635515D01*
Y182120D01*
X1635406D01*
Y182011D01*
X1635186D01*
Y181901D01*
X1635076D01*
Y181791D01*
X1634966D01*
Y181681D01*
X1634857D01*
Y181572D01*
X1634637D01*
Y181462D01*
X1634527D01*
Y181352D01*
X1634417D01*
Y181242D01*
X1634198D01*
Y181132D01*
X1634088D01*
Y181022D01*
X1633978D01*
Y180913D01*
X1633868D01*
Y180803D01*
X1633759D01*
Y180693D01*
X1633649D01*
Y180583D01*
X1633539D01*
Y180473D01*
X1633429D01*
Y180364D01*
X1633319D01*
Y180254D01*
X1633210D01*
Y180144D01*
X1633100D01*
Y180034D01*
X1632990D01*
Y179924D01*
X1632880D01*
Y179815D01*
X1632770D01*
Y179705D01*
X1632661D01*
Y179595D01*
X1632551D01*
Y179485D01*
X1632441D01*
Y179375D01*
X1632331D01*
Y179156D01*
X1632221D01*
Y179046D01*
X1632111D01*
Y178936D01*
X1632002D01*
Y178717D01*
X1631892D01*
Y178607D01*
X1631782D01*
Y178497D01*
X1631672D01*
Y178277D01*
X1631562D01*
Y178167D01*
X1631453D01*
Y177948D01*
X1631343D01*
Y177838D01*
X1631233D01*
Y177618D01*
X1631123D01*
Y177509D01*
X1631013D01*
Y177399D01*
X1630903D01*
Y177069D01*
X1630794D01*
Y176959D01*
X1630684D01*
Y176740D01*
X1630574D01*
Y176520D01*
X1630464D01*
Y176301D01*
X1630354D01*
Y176081D01*
X1630245D01*
Y175971D01*
X1630135D01*
Y175642D01*
X1630025D01*
Y175422D01*
X1629915D01*
Y175093D01*
X1629805D01*
Y174873D01*
X1629696D01*
Y174544D01*
X1629586D01*
Y174214D01*
X1629476D01*
Y173995D01*
X1629366D01*
Y173446D01*
X1629256D01*
Y173226D01*
X1629147D01*
Y172567D01*
X1629037D01*
Y172018D01*
X1628927D01*
Y171579D01*
X1628817D01*
Y169712D01*
X1628707D01*
Y168944D01*
X1628817D01*
Y167077D01*
X1628927D01*
Y166637D01*
X1629037D01*
Y166089D01*
X1629147D01*
Y165539D01*
X1629256D01*
Y165210D01*
X1629366D01*
Y164661D01*
X1629476D01*
Y164441D01*
X1629586D01*
Y164112D01*
X1629696D01*
Y163892D01*
X1629805D01*
Y163673D01*
X1629915D01*
Y163233D01*
X1630025D01*
Y163124D01*
X1630135D01*
Y162794D01*
X1630245D01*
Y162575D01*
X1630354D01*
Y162355D01*
X1630464D01*
Y162135D01*
X1630574D01*
Y162026D01*
X1630684D01*
Y161696D01*
X1630794D01*
Y161586D01*
X1630903D01*
Y161367D01*
X1631013D01*
Y161147D01*
X1631123D01*
Y161037D01*
X1631233D01*
Y160818D01*
X1631343D01*
Y160708D01*
X1631453D01*
Y160488D01*
X1631562D01*
Y160378D01*
X1631672D01*
Y160269D01*
X1631782D01*
Y160049D01*
X1631892D01*
Y159939D01*
X1632002D01*
Y159719D01*
X1632111D01*
Y159610D01*
X1632221D01*
Y159500D01*
X1632331D01*
Y159390D01*
X1632441D01*
Y159280D01*
X1632551D01*
Y159061D01*
X1632770D01*
Y158841D01*
X1632880D01*
Y158731D01*
X1632990D01*
Y158622D01*
X1633100D01*
Y158512D01*
X1633210D01*
Y158402D01*
X1633319D01*
Y158292D01*
X1633429D01*
Y158182D01*
X1633539D01*
Y158072D01*
X1633649D01*
Y157963D01*
X1633759D01*
Y157853D01*
X1633868D01*
Y157743D01*
X1634088D01*
Y157633D01*
X1634198D01*
Y157523D01*
X1634308D01*
Y157414D01*
X1634417D01*
Y157304D01*
X1634527D01*
Y157194D01*
X1634747D01*
Y157084D01*
X1634857D01*
Y156974D01*
X1634966D01*
Y156865D01*
X1635186D01*
Y156755D01*
X1635296D01*
Y156645D01*
X1635515D01*
Y156535D01*
X1635625D01*
Y156425D01*
X1635845D01*
Y156315D01*
X1635955D01*
Y156206D01*
X1636064D01*
Y156096D01*
X1636284D01*
Y155986D01*
X1636504D01*
Y155876D01*
X1636723D01*
Y155766D01*
X1636833D01*
Y155657D01*
X1637053D01*
Y155547D01*
X1637272D01*
Y155437D01*
X1637492D01*
Y155327D01*
X1637822D01*
Y155217D01*
X1637931D01*
Y155108D01*
X1638261D01*
Y154998D01*
X1638480D01*
Y154888D01*
X1638810D01*
Y154778D01*
X1639139D01*
Y154668D01*
X1639359D01*
Y154559D01*
X1639798D01*
Y154449D01*
X1640018D01*
Y154339D01*
X1640567D01*
Y154229D01*
X1641006D01*
Y154119D01*
X1641445D01*
Y154010D01*
X1642433D01*
Y153900D01*
X1643202D01*
Y153790D01*
X1645398D01*
Y153900D01*
X1646167D01*
Y154010D01*
X1647045D01*
Y154119D01*
X1647594D01*
Y154229D01*
X1647924D01*
Y154339D01*
X1648473D01*
Y154449D01*
X1648692D01*
Y154559D01*
X1649242D01*
Y154668D01*
X1649461D01*
Y154778D01*
X1649791D01*
Y154888D01*
X1650120D01*
Y154998D01*
X1650230D01*
Y155108D01*
X1650669D01*
Y155217D01*
X1650779D01*
Y155327D01*
X1651108D01*
Y155437D01*
X1651218D01*
Y155547D01*
X1651438D01*
Y155657D01*
X1651657D01*
Y155766D01*
X1651877D01*
Y155876D01*
X1652097D01*
Y155986D01*
X1652206D01*
Y156096D01*
X1652426D01*
Y156206D01*
X1652646D01*
Y156315D01*
X1652755D01*
Y156425D01*
X1652975D01*
Y156535D01*
X1653085D01*
Y156645D01*
X1653304D01*
Y156755D01*
X1653414D01*
Y156865D01*
X1653524D01*
Y156974D01*
X1653744D01*
Y157084D01*
X1653853D01*
Y157194D01*
X1653963D01*
Y157304D01*
X1654073D01*
Y157414D01*
X1654293D01*
Y157523D01*
X1654403D01*
Y157633D01*
X1654512D01*
Y157743D01*
X1654622D01*
Y157853D01*
X1654732D01*
Y157963D01*
X1654842D01*
Y158072D01*
X1654952D01*
Y158182D01*
X1655061D01*
Y158292D01*
X1655171D01*
Y158402D01*
X1655281D01*
Y158512D01*
X1655391D01*
Y158622D01*
X1655501D01*
Y158731D01*
X1655611D01*
Y158841D01*
X1655720D01*
Y158951D01*
X1655830D01*
Y159061D01*
X1655940D01*
Y159171D01*
X1656050D01*
Y159280D01*
X1656160D01*
Y159390D01*
X1656269D01*
Y159610D01*
X1656379D01*
Y159719D01*
X1656489D01*
Y159829D01*
X1656599D01*
Y160049D01*
X1656709D01*
Y160159D01*
X1656818D01*
Y160269D01*
X1656928D01*
Y160378D01*
X1657038D01*
Y160598D01*
X1657148D01*
Y160708D01*
X1657258D01*
Y160928D01*
X1657367D01*
Y161147D01*
X1657477D01*
Y161257D01*
X1657587D01*
Y161476D01*
X1657697D01*
Y161586D01*
X1657807D01*
Y161806D01*
X1657916D01*
Y162026D01*
X1658026D01*
Y162245D01*
X1658136D01*
Y162465D01*
X1658246D01*
Y162684D01*
X1658356D01*
Y162904D01*
X1658466D01*
Y163124D01*
X1658575D01*
Y163343D01*
X1658685D01*
Y163783D01*
X1658795D01*
Y163892D01*
X1658905D01*
Y164331D01*
X1659014D01*
Y164551D01*
X1659124D01*
Y164881D01*
X1659234D01*
Y165430D01*
X1659344D01*
Y165649D01*
X1659454D01*
Y166418D01*
X1659564D01*
Y166747D01*
X1659673D01*
Y167845D01*
X1659783D01*
Y170810D01*
X1659673D01*
Y171908D01*
X1659564D01*
Y172348D01*
X1659454D01*
Y173006D01*
X1659344D01*
Y173336D01*
X1659234D01*
Y173775D01*
X1659124D01*
Y174104D01*
X1659014D01*
Y174324D01*
X1658905D01*
Y174763D01*
X1658795D01*
Y174983D01*
X1658685D01*
Y175312D01*
X1658575D01*
Y175532D01*
X1658466D01*
Y175752D01*
X1658356D01*
Y176081D01*
X1658246D01*
Y176191D01*
X1658136D01*
Y176520D01*
X1658026D01*
Y176630D01*
X1657916D01*
Y176850D01*
X1657807D01*
Y177069D01*
X1657697D01*
Y177179D01*
X1657587D01*
Y177509D01*
X1657477D01*
Y177618D01*
X1657367D01*
Y177838D01*
X1657258D01*
Y177948D01*
X1657148D01*
Y178058D01*
X1657038D01*
Y178277D01*
X1656928D01*
Y178387D01*
X1656818D01*
Y178607D01*
X1656709D01*
Y178717D01*
X1656599D01*
Y178826D01*
X1656489D01*
Y179046D01*
X1656379D01*
Y179156D01*
X1656269D01*
Y179265D01*
X1656160D01*
Y179375D01*
X1656050D01*
Y179485D01*
X1655940D01*
Y179595D01*
X1655830D01*
Y179815D01*
X1655720D01*
Y179924D01*
X1655611D01*
Y180034D01*
X1655501D01*
Y180144D01*
X1655391D01*
Y180254D01*
X1655281D01*
Y180364D01*
X1655171D01*
Y180473D01*
X1655061D01*
Y180583D01*
X1654952D01*
Y180693D01*
X1654842D01*
Y180803D01*
X1654732D01*
Y180913D01*
X1654512D01*
Y181022D01*
X1654403D01*
Y181132D01*
X1654293D01*
Y181242D01*
X1654183D01*
Y181352D01*
X1654073D01*
Y181462D01*
X1653853D01*
Y181572D01*
X1653744D01*
Y181681D01*
X1653634D01*
Y181791D01*
X1653414D01*
Y181901D01*
X1653304D01*
Y182011D01*
X1653195D01*
Y182120D01*
X1652975D01*
Y182230D01*
X1652865D01*
Y182340D01*
X1652646D01*
Y182450D01*
X1652536D01*
Y182560D01*
X1652316D01*
Y182670D01*
X1652206D01*
Y182779D01*
X1651987D01*
Y182889D01*
X1651767D01*
Y182999D01*
X1651548D01*
Y183109D01*
X1651328D01*
Y183219D01*
X1651218D01*
Y183328D01*
X1650889D01*
Y183438D01*
X1650669D01*
Y183548D01*
X1650450D01*
Y183658D01*
X1650120D01*
Y183768D01*
X1649900D01*
Y183878D01*
X1649571D01*
Y183987D01*
X1649351D01*
Y184097D01*
X1648912D01*
Y184207D01*
X1648583D01*
Y184317D01*
X1648253D01*
Y184426D01*
X1647704D01*
Y184536D01*
X1647375D01*
Y184646D01*
X1646496D01*
Y184756D01*
X1645838D01*
Y184866D01*
D02*
G37*
%LPD*%
G36*
X1645179Y173995D02*
X1645618D01*
Y173885D01*
X1645838D01*
Y173775D01*
X1646277D01*
Y173665D01*
X1646387D01*
Y173556D01*
X1646716D01*
Y173446D01*
X1646826D01*
Y173336D01*
X1646936D01*
Y173226D01*
X1647155D01*
Y173116D01*
X1647265D01*
Y173006D01*
X1647485D01*
Y172787D01*
X1647704D01*
Y172677D01*
X1647814D01*
Y172457D01*
X1647924D01*
Y172348D01*
X1648034D01*
Y172238D01*
X1648143D01*
Y172128D01*
X1648253D01*
Y171908D01*
X1648363D01*
Y171689D01*
X1648473D01*
Y171579D01*
X1648583D01*
Y171250D01*
X1648692D01*
Y171030D01*
X1648802D01*
Y170700D01*
X1648912D01*
Y170151D01*
X1649022D01*
Y168504D01*
X1648912D01*
Y168065D01*
X1648802D01*
Y167626D01*
X1648692D01*
Y167516D01*
X1648583D01*
Y167187D01*
X1648473D01*
Y166967D01*
X1648363D01*
Y166747D01*
X1648253D01*
Y166637D01*
X1648143D01*
Y166528D01*
X1648034D01*
Y166308D01*
X1647924D01*
Y166198D01*
X1647814D01*
Y166089D01*
X1647704D01*
Y165979D01*
X1647594D01*
Y165869D01*
X1647485D01*
Y165759D01*
X1647375D01*
Y165649D01*
X1647265D01*
Y165539D01*
X1647045D01*
Y165430D01*
X1646936D01*
Y165320D01*
X1646716D01*
Y165210D01*
X1646496D01*
Y165100D01*
X1646277D01*
Y164990D01*
X1646167D01*
Y164881D01*
X1645728D01*
Y164771D01*
X1645508D01*
Y164661D01*
X1643092D01*
Y164771D01*
X1642873D01*
Y164881D01*
X1642433D01*
Y164990D01*
X1642214D01*
Y165100D01*
X1641994D01*
Y165210D01*
X1641775D01*
Y165320D01*
X1641665D01*
Y165430D01*
X1641445D01*
Y165539D01*
X1641335D01*
Y165649D01*
X1641225D01*
Y165759D01*
X1641006D01*
Y165979D01*
X1640786D01*
Y166198D01*
X1640677D01*
Y166308D01*
X1640567D01*
Y166418D01*
X1640457D01*
Y166528D01*
X1640347D01*
Y166747D01*
X1640237D01*
Y166967D01*
X1640128D01*
Y167077D01*
X1640018D01*
Y167296D01*
X1639908D01*
Y167626D01*
X1639798D01*
Y167736D01*
X1639688D01*
Y168394D01*
X1639578D01*
Y168834D01*
X1639469D01*
Y169822D01*
X1639578D01*
Y170371D01*
X1639688D01*
Y170920D01*
X1639798D01*
Y171140D01*
X1639908D01*
Y171359D01*
X1640018D01*
Y171579D01*
X1640128D01*
Y171798D01*
X1640237D01*
Y172018D01*
X1640347D01*
Y172128D01*
X1640457D01*
Y172348D01*
X1640567D01*
Y172457D01*
X1640677D01*
Y172567D01*
X1640786D01*
Y172677D01*
X1640896D01*
Y172787D01*
X1641006D01*
Y172897D01*
X1641116D01*
Y173006D01*
X1641335D01*
Y173116D01*
X1641445D01*
Y173226D01*
X1641555D01*
Y173336D01*
X1641775D01*
Y173446D01*
X1641884D01*
Y173556D01*
X1642214D01*
Y173665D01*
X1642324D01*
Y173775D01*
X1642763D01*
Y173885D01*
X1642982D01*
Y173995D01*
X1643422D01*
Y174104D01*
X1645179D01*
Y173995D01*
D02*
G37*
%LPC*%
G36*
X1644410Y170700D02*
X1644081D01*
Y170591D01*
X1643861D01*
Y170481D01*
X1643641D01*
Y170371D01*
X1643422D01*
Y170261D01*
X1643312D01*
Y170042D01*
X1643202D01*
Y169932D01*
X1643092D01*
Y169602D01*
X1642982D01*
Y169163D01*
X1643092D01*
Y168724D01*
X1643202D01*
Y168614D01*
X1643312D01*
Y168504D01*
X1643422D01*
Y168394D01*
X1643531D01*
Y168285D01*
X1643751D01*
Y168175D01*
X1643971D01*
Y168065D01*
X1644630D01*
Y168175D01*
X1644849D01*
Y168285D01*
X1645069D01*
Y168394D01*
X1645179D01*
Y168504D01*
X1645289D01*
Y168724D01*
X1645398D01*
Y168834D01*
X1645508D01*
Y169822D01*
X1645398D01*
Y170042D01*
X1645289D01*
Y170151D01*
X1645179D01*
Y170261D01*
X1645069D01*
Y170371D01*
X1644959D01*
Y170481D01*
X1644739D01*
Y170591D01*
X1644410D01*
Y170700D01*
D02*
G37*
G36*
X1610078Y353828D02*
X1610015D01*
X1610005D01*
X1609994D01*
X1609838Y353818D01*
X1609692Y353797D01*
X1609567Y353766D01*
X1609463Y353735D01*
X1609380Y353693D01*
X1609317Y353662D01*
X1609276Y353641D01*
X1609265Y353630D01*
X1609161Y353547D01*
X1609078Y353464D01*
X1609005Y353370D01*
X1608953Y353276D01*
X1608911Y353203D01*
X1608880Y353141D01*
X1608869Y353099D01*
X1608859Y353078D01*
X1608838Y353006D01*
X1608817Y352901D01*
X1608807Y352787D01*
X1608797Y352662D01*
X1608776Y352381D01*
X1608755Y352079D01*
Y351797D01*
X1608745Y351673D01*
Y349902D01*
X1611192D01*
Y351985D01*
X1611181Y352131D01*
Y352381D01*
X1611171Y352485D01*
Y352641D01*
X1611160Y352693D01*
Y352776D01*
X1611150Y352818D01*
Y352828D01*
X1611109Y352995D01*
X1611056Y353151D01*
X1611004Y353276D01*
X1610931Y353381D01*
X1610879Y353464D01*
X1610827Y353516D01*
X1610786Y353558D01*
X1610775Y353568D01*
X1610650Y353651D01*
X1610525Y353714D01*
X1610400Y353766D01*
X1610275Y353797D01*
X1610161Y353818D01*
X1610078Y353828D01*
D02*
G37*
G36*
X1610327Y329418D02*
X1610265D01*
X1610255D01*
X1610244D01*
X1610046Y329407D01*
X1609880Y329366D01*
X1609723Y329314D01*
X1609609Y329262D01*
X1609505Y329199D01*
X1609442Y329147D01*
X1609390Y329105D01*
X1609380Y329095D01*
X1609276Y328970D01*
X1609203Y328835D01*
X1609140Y328689D01*
X1609109Y328554D01*
X1609088Y328439D01*
X1609078Y328335D01*
X1609067Y328272D01*
Y328251D01*
X1609078Y328064D01*
X1609119Y327897D01*
X1609161Y327762D01*
X1609223Y327637D01*
X1609276Y327543D01*
X1609328Y327481D01*
X1609359Y327429D01*
X1609369Y327418D01*
X1609494Y327314D01*
X1609640Y327241D01*
X1609776Y327189D01*
X1609921Y327158D01*
X1610046Y327137D01*
X1610140Y327116D01*
X1610182D01*
X1610213D01*
X1610223D01*
X1610234D01*
X1610421Y327127D01*
X1610588Y327168D01*
X1610723Y327220D01*
X1610848Y327273D01*
X1610942Y327335D01*
X1611015Y327377D01*
X1611056Y327418D01*
X1611067Y327429D01*
X1611171Y327554D01*
X1611254Y327689D01*
X1611306Y327835D01*
X1611348Y327970D01*
X1611369Y328085D01*
X1611390Y328189D01*
Y328272D01*
X1611379Y328460D01*
X1611338Y328626D01*
X1611286Y328762D01*
X1611233Y328887D01*
X1611171Y328980D01*
X1611119Y329053D01*
X1611077Y329095D01*
X1611067Y329105D01*
X1610942Y329210D01*
X1610806Y329282D01*
X1610671Y329345D01*
X1610536Y329376D01*
X1610421Y329397D01*
X1610327Y329418D01*
D02*
G37*
G36*
X1606162Y329637D02*
X1606131D01*
X1606110D01*
X1606099D01*
X1605829Y329616D01*
X1605589Y329574D01*
X1605381Y329522D01*
X1605214Y329449D01*
X1605089Y329376D01*
X1604985Y329324D01*
X1604933Y329282D01*
X1604912Y329262D01*
X1604777Y329116D01*
X1604673Y328960D01*
X1604610Y328793D01*
X1604558Y328647D01*
X1604527Y328512D01*
X1604516Y328408D01*
X1604506Y328366D01*
Y328314D01*
X1604527Y328106D01*
X1604568Y327918D01*
X1604641Y327752D01*
X1604725Y327606D01*
X1604798Y327491D01*
X1604870Y327408D01*
X1604912Y327356D01*
X1604933Y327335D01*
X1605110Y327210D01*
X1605297Y327116D01*
X1605495Y327043D01*
X1605683Y327002D01*
X1605860Y326971D01*
X1605933Y326960D01*
X1605995D01*
X1606047Y326950D01*
X1606089D01*
X1606110D01*
X1606120D01*
X1606318Y326960D01*
X1606516Y327002D01*
X1606682Y327054D01*
X1606839Y327116D01*
X1606964Y327168D01*
X1607057Y327220D01*
X1607120Y327262D01*
X1607141Y327273D01*
X1607224Y327335D01*
X1607297Y327408D01*
X1607411Y327575D01*
X1607495Y327741D01*
X1607547Y327908D01*
X1607589Y328054D01*
X1607599Y328168D01*
X1607609Y328220D01*
Y328283D01*
X1607589Y328491D01*
X1607547Y328679D01*
X1607474Y328845D01*
X1607401Y328991D01*
X1607328Y329095D01*
X1607255Y329178D01*
X1607214Y329230D01*
X1607193Y329251D01*
X1607026Y329376D01*
X1606849Y329470D01*
X1606662Y329543D01*
X1606495Y329585D01*
X1606339Y329616D01*
X1606214Y329626D01*
X1606162Y329637D01*
D02*
G37*
G36*
X1608338Y322003D02*
X1608203D01*
X1608088D01*
X1608005D01*
X1607953D01*
X1607932D01*
X1607630D01*
X1607339Y321993D01*
X1607078Y321982D01*
X1606839Y321972D01*
X1606620Y321961D01*
X1606422Y321941D01*
X1606245Y321920D01*
X1606089Y321909D01*
X1605954Y321889D01*
X1605839Y321868D01*
X1605745Y321847D01*
X1605662Y321837D01*
X1605600Y321826D01*
X1605558Y321816D01*
X1605537Y321805D01*
X1605527D01*
X1605339Y321743D01*
X1605172Y321680D01*
X1605047Y321618D01*
X1604943Y321545D01*
X1604860Y321493D01*
X1604808Y321441D01*
X1604777Y321409D01*
X1604766Y321399D01*
X1604693Y321295D01*
X1604641Y321201D01*
X1604610Y321097D01*
X1604589Y321003D01*
X1604568Y320920D01*
X1604558Y320858D01*
Y320806D01*
X1604568Y320681D01*
X1604589Y320576D01*
X1604621Y320472D01*
X1604662Y320389D01*
X1604704Y320316D01*
X1604735Y320253D01*
X1604756Y320222D01*
X1604766Y320212D01*
X1604860Y320118D01*
X1604985Y320035D01*
X1605120Y319962D01*
X1605266Y319900D01*
X1605391Y319847D01*
X1605495Y319816D01*
X1605537Y319806D01*
X1605568Y319795D01*
X1605589Y319785D01*
X1605600D01*
X1605735Y319754D01*
X1605881Y319733D01*
X1606047Y319712D01*
X1606235Y319691D01*
X1606620Y319660D01*
X1607005Y319639D01*
X1607193Y319629D01*
X1607359D01*
X1607516D01*
X1607661Y319618D01*
X1607776D01*
X1607859D01*
X1607911D01*
X1607932D01*
X1608234D01*
X1608515Y319629D01*
X1608786Y319639D01*
X1609015Y319650D01*
X1609234Y319660D01*
X1609432Y319681D01*
X1609609Y319691D01*
X1609765Y319712D01*
X1609900Y319733D01*
X1610025Y319743D01*
X1610119Y319764D01*
X1610202Y319774D01*
X1610265Y319785D01*
X1610307Y319795D01*
X1610327Y319806D01*
X1610338D01*
X1610525Y319868D01*
X1610692Y319931D01*
X1610817Y320004D01*
X1610921Y320066D01*
X1611004Y320118D01*
X1611056Y320170D01*
X1611088Y320201D01*
X1611098Y320212D01*
X1611171Y320316D01*
X1611223Y320410D01*
X1611265Y320514D01*
X1611286Y320608D01*
X1611306Y320691D01*
X1611317Y320753D01*
Y320806D01*
X1611306Y320930D01*
X1611286Y321035D01*
X1611244Y321139D01*
X1611213Y321232D01*
X1611171Y321295D01*
X1611129Y321357D01*
X1611109Y321389D01*
X1611098Y321399D01*
X1611004Y321493D01*
X1610879Y321576D01*
X1610744Y321649D01*
X1610598Y321712D01*
X1610463Y321764D01*
X1610359Y321795D01*
X1610317Y321805D01*
X1610286Y321816D01*
X1610265Y321826D01*
X1610255D01*
X1610119Y321857D01*
X1609973Y321889D01*
X1609807Y321909D01*
X1609619Y321930D01*
X1609244Y321961D01*
X1608859Y321982D01*
X1608672Y321993D01*
X1608505D01*
X1608338Y322003D01*
D02*
G37*
G36*
X1610192Y296947D02*
X1610140D01*
X1610119D01*
X1609953Y296937D01*
X1609807Y296905D01*
X1609671Y296853D01*
X1609567Y296801D01*
X1609474Y296749D01*
X1609411Y296697D01*
X1609369Y296666D01*
X1609359Y296655D01*
X1609265Y296541D01*
X1609192Y296416D01*
X1609130Y296280D01*
X1609088Y296155D01*
X1609057Y296051D01*
X1609036Y295958D01*
X1609026Y295895D01*
Y295812D01*
X1609015Y295729D01*
Y295635D01*
X1609005Y295531D01*
Y295302D01*
X1608994Y295062D01*
Y293188D01*
X1611213D01*
Y294968D01*
X1611202Y295145D01*
Y295427D01*
X1611192Y295551D01*
Y295729D01*
X1611181Y295802D01*
Y295895D01*
X1611171Y295926D01*
Y295958D01*
X1611140Y296135D01*
X1611098Y296280D01*
X1611046Y296406D01*
X1610983Y296510D01*
X1610931Y296593D01*
X1610879Y296655D01*
X1610848Y296687D01*
X1610838Y296697D01*
X1610723Y296780D01*
X1610609Y296843D01*
X1610484Y296884D01*
X1610369Y296916D01*
X1610275Y296937D01*
X1610192Y296947D01*
D02*
G37*
G36*
X1606151Y297301D02*
X1606099D01*
X1606078D01*
X1605901Y297291D01*
X1605735Y297259D01*
X1605600Y297207D01*
X1605485Y297166D01*
X1605391Y297114D01*
X1605318Y297062D01*
X1605277Y297030D01*
X1605266Y297020D01*
X1605162Y296916D01*
X1605079Y296791D01*
X1605016Y296676D01*
X1604964Y296562D01*
X1604922Y296468D01*
X1604902Y296385D01*
X1604881Y296333D01*
Y296312D01*
X1604870Y296249D01*
X1604860Y296176D01*
Y296083D01*
X1604850Y295989D01*
X1604839Y295770D01*
Y295541D01*
X1604829Y295322D01*
Y293188D01*
X1607391D01*
Y294989D01*
X1607380Y295208D01*
Y295406D01*
X1607370Y295583D01*
X1607359Y295739D01*
X1607349Y295885D01*
X1607328Y296010D01*
X1607318Y296114D01*
X1607307Y296208D01*
X1607287Y296280D01*
X1607276Y296343D01*
X1607266Y296395D01*
X1607255Y296437D01*
Y296458D01*
X1607245Y296478D01*
X1607182Y296614D01*
X1607120Y296739D01*
X1607047Y296843D01*
X1606974Y296926D01*
X1606912Y296999D01*
X1606859Y297041D01*
X1606818Y297072D01*
X1606808Y297082D01*
X1606693Y297155D01*
X1606568Y297207D01*
X1606443Y297249D01*
X1606328Y297270D01*
X1606235Y297291D01*
X1606151Y297301D01*
D02*
G37*
G36*
X78342Y367594D02*
X78321D01*
X78224Y367588D01*
X78127Y367574D01*
X78036Y367546D01*
X77953Y367511D01*
X77794Y367435D01*
X77662Y367338D01*
X77558Y367241D01*
X77516Y367199D01*
X77482Y367165D01*
X77447Y367130D01*
X77426Y367102D01*
X77419Y367088D01*
X77412Y367081D01*
X77350Y366970D01*
X77295Y366839D01*
X77239Y366693D01*
X77197Y366534D01*
X77163Y366360D01*
X77135Y366187D01*
X77093Y365833D01*
X77073Y365667D01*
X77066Y365507D01*
X77059Y365362D01*
X77052Y365237D01*
X77045Y365133D01*
Y365084D01*
Y365050D01*
Y365022D01*
Y365001D01*
Y364987D01*
Y364980D01*
X77052Y364696D01*
X77066Y364440D01*
X77080Y364197D01*
X77107Y363982D01*
X77135Y363788D01*
X77170Y363607D01*
X77211Y363455D01*
X77246Y363316D01*
X77281Y363191D01*
X77322Y363094D01*
X77357Y363011D01*
X77385Y362942D01*
X77412Y362886D01*
X77433Y362851D01*
X77440Y362831D01*
X77447Y362824D01*
X77509Y362741D01*
X77579Y362671D01*
X77648Y362609D01*
X77717Y362560D01*
X77794Y362512D01*
X77863Y362477D01*
X78002Y362422D01*
X78127Y362387D01*
X78182Y362380D01*
X78224Y362373D01*
X78265Y362366D01*
X78314D01*
X78418Y362373D01*
X78508Y362387D01*
X78605Y362415D01*
X78688Y362449D01*
X78848Y362533D01*
X78980Y362623D01*
X79035Y362671D01*
X79083Y362720D01*
X79125Y362768D01*
X79167Y362803D01*
X79194Y362838D01*
X79215Y362865D01*
X79222Y362879D01*
X79229Y362886D01*
X79299Y362997D01*
X79354Y363122D01*
X79402Y363274D01*
X79444Y363434D01*
X79479Y363600D01*
X79513Y363774D01*
X79555Y364127D01*
X79576Y364294D01*
X79583Y364453D01*
X79590Y364599D01*
X79597Y364724D01*
X79604Y364835D01*
Y364876D01*
Y364911D01*
Y364939D01*
Y364959D01*
Y364973D01*
Y364980D01*
X79597Y365265D01*
X79590Y365521D01*
X79569Y365757D01*
X79548Y365972D01*
X79520Y366166D01*
X79486Y366333D01*
X79451Y366485D01*
X79416Y366617D01*
X79382Y366728D01*
X79347Y366825D01*
X79319Y366908D01*
X79285Y366970D01*
X79264Y367019D01*
X79243Y367047D01*
X79236Y367067D01*
X79229Y367074D01*
X79160Y367165D01*
X79083Y367248D01*
X79007Y367317D01*
X78931Y367373D01*
X78855Y367428D01*
X78778Y367470D01*
X78709Y367504D01*
X78640Y367532D01*
X78515Y367567D01*
X78459Y367581D01*
X78411Y367588D01*
X78376D01*
X78342Y367594D01*
D02*
G37*
%LPD*%
D10*
X1276891Y323000D02*
X1274891D01*
X1276891D01*
X362442Y276098D02*
X360442D01*
X362442D01*
X1155748Y225712D02*
Y245712D01*
X1161748Y225712D02*
Y245712D01*
X1155748Y225712D02*
X1161748D01*
X1155748Y245712D02*
X1161748D01*
X1133658Y233712D02*
X1133658Y234712D01*
X1140658Y233712D02*
X1140658Y234712D01*
X-96900Y138982D02*
X-96563Y118645D01*
X-76226Y118982D01*
X-97171Y418666D02*
X-76834Y419003D01*
X-97171Y418666D02*
X-96834Y398329D01*
X-73400Y407500D02*
X-60400D01*
X-73400Y190500D02*
X-60400D01*
X-73400D02*
Y407500D01*
X-60400Y190500D02*
Y407500D01*
X309350Y160500D02*
Y377500D01*
X296350Y160500D02*
Y377500D01*
Y160500D02*
X309350D01*
X296350Y377500D02*
X309350D01*
X332850Y119003D02*
X353187Y119340D01*
X352850Y139677D02*
X353187Y119340D01*
X352513Y419348D02*
X352850Y399011D01*
X332176Y419011D02*
X352513Y419348D01*
X702450Y185500D02*
Y187950D01*
Y200050D02*
Y202500D01*
X699400D02*
X702450D01*
X699400Y185500D02*
X702450D01*
X725050D02*
Y187950D01*
Y200050D02*
Y202500D01*
X722000D02*
X725050D01*
X722000Y185500D02*
X725050D01*
X748050D02*
Y187950D01*
Y200050D02*
Y202500D01*
X745000D02*
X748050D01*
X745000Y185500D02*
X748050D01*
X792825Y323000D02*
X803825D01*
X792825Y295000D02*
X803825D01*
X881500Y236750D02*
X882500D01*
X881500Y249250D02*
X882500D01*
X1272458Y348500D02*
X1273458D01*
X1272458Y356500D02*
X1273458D01*
X792825Y329000D02*
X803825D01*
X792825Y357000D02*
X803825D01*
X1012533Y284000D02*
X1013533D01*
X1012533Y296000D02*
X1013533D01*
X1012533Y303000D02*
X1013533D01*
X1012533Y315000D02*
X1013533D01*
X1209391Y368000D02*
X1220391D01*
X1209391Y384000D02*
X1220391D01*
X1305500Y362000D02*
X1306500D01*
X1305500Y354000D02*
X1306500D01*
X1305500Y339000D02*
X1306500D01*
X1305500Y347000D02*
X1306500D01*
X1109891Y286000D02*
Y303500D01*
X1128891Y294750D02*
X1133891Y289750D01*
X1128891Y294750D02*
X1133891Y299750D01*
Y289750D02*
Y299750D01*
X1128891Y294750D02*
Y299750D01*
Y289750D02*
Y294750D01*
X1134391Y307750D02*
X1135391D01*
X1134391Y315750D02*
X1135391D01*
X1245891Y274100D02*
Y319900D01*
X1189891Y274100D02*
X1245891D01*
X1189891D02*
Y319900D01*
Y320000D02*
X1245891D01*
X1305500Y369000D02*
X1306500D01*
X1305500Y377000D02*
X1306500D01*
X1121641Y373500D02*
Y374500D01*
X1134141Y373500D02*
Y374500D01*
X1142891Y371500D02*
Y372500D01*
X1150891Y371500D02*
Y372500D01*
X1181891Y330000D02*
Y350000D01*
X1153891Y330000D02*
Y350000D01*
X1143891Y350000D02*
X1153891Y340000D01*
X1143891Y330000D02*
X1153891Y340000D01*
X1125891Y355000D02*
X1171891D01*
X1125891Y325000D02*
X1171891D01*
X1143891Y330000D02*
Y350000D01*
X1272458Y338000D02*
X1273458D01*
X1272458Y330000D02*
X1273458D01*
X1230958Y357104D02*
X1240958D01*
X1230958Y349250D02*
Y357104D01*
Y327894D02*
X1240958D01*
X1230958D02*
Y335750D01*
X989533Y264000D02*
X990533D01*
X989533Y276000D02*
X990533D01*
X241500Y166100D02*
X242500D01*
X241500Y174100D02*
X242500D01*
X260500Y260500D02*
X261500D01*
X260500Y253500D02*
X261500D01*
X337970Y284898D02*
X358970D01*
X337970Y300898D02*
X358970D01*
Y284898D02*
Y300898D01*
X337970Y284898D02*
Y300898D01*
D11*
X1169498Y249712D02*
X1167623Y250795D01*
Y248629D01*
X1169498Y249712D01*
X1250208Y360250D02*
X1248333Y361333D01*
Y359168D01*
X1250208Y360250D01*
D12*
X-46646Y190500D02*
D03*
X323104Y160500D02*
D03*
X1013671Y174074D02*
D03*
X1010664Y187574D02*
D03*
X789200Y296000D02*
D03*
Y330000D02*
D03*
D14*
X1007910Y190074D02*
X1014410D01*
X1007910D02*
Y191574D01*
X1032910Y190074D02*
Y191574D01*
X1026410Y190074D02*
X1032910D01*
X1007910Y233573D02*
Y235074D01*
X1014410D01*
X1032910Y233573D02*
Y235074D01*
X1026410D02*
X1032910D01*
X1148891Y335000D02*
X1153891Y340000D01*
D16*
X137836Y414756D02*
Y424756D01*
Y414756D02*
X158836D01*
Y424756D01*
X137836D02*
X158836D01*
X124836Y379756D02*
Y414756D01*
Y379756D02*
X171836D01*
Y414756D01*
X158836D02*
X171836D01*
X124836D02*
X158836D01*
X668740Y249500D02*
X669290D01*
X668740Y219500D02*
X669290D01*
X644290D02*
X644840D01*
X644290Y249500D02*
X644840D01*
X669290Y243950D02*
Y249500D01*
Y219500D02*
Y225050D01*
X644290Y219500D02*
Y225050D01*
Y243950D02*
Y249500D01*
D164*
X-44400Y201000D02*
X-39400Y202150D01*
X-44400Y201000D02*
X-39400Y199850D01*
X325350Y171000D02*
X330350Y172150D01*
X325350Y171000D02*
X330350Y169850D01*
D181*
X648540Y254500D02*
X647040D01*
X648540D01*
D183*
X48115Y297781D02*
Y304639D01*
X18905Y297781D02*
Y304639D01*
X43035Y297781D02*
X48115D01*
X18905D02*
X23985D01*
M02*
