G04*
G04 #@! TF.GenerationSoftware,Altium Limited,Altium Designer,21.2.2 (38)*
G04*
G04 Layer_Color=16711935*
%FSLAX44Y44*%
%MOMM*%
G71*
G04*
G04 #@! TF.SameCoordinates,2A6C1C92-B5F8-495A-87A3-FCD029FF8D19*
G04*
G04*
G04 #@! TF.FilePolarity,Negative*
G04*
G01*
G75*
%ADD33R,0.8232X0.8232*%
%ADD40C,0.9532*%
%ADD49R,1.2032X1.1032*%
%ADD50C,2.0000*%
%ADD51C,5.4000*%
%ADD52C,5.7032*%
%ADD53O,2.0000X1.2000*%
%ADD54O,2.5000X1.2000*%
%ADD55C,1.5712*%
%ADD56R,1.5712X1.5712*%
%ADD91R,0.1500X0.1500*%
%ADD92R,0.1500X0.1500*%
%ADD101R,0.6000X0.3200*%
%ADD102R,0.8400X1.4400*%
%ADD103R,0.6400X0.3900*%
%ADD104R,0.4000X0.4000*%
%ADD105R,0.5000X1.0000*%
%ADD106R,0.8000X0.4000*%
%ADD107R,0.8000X1.1000*%
G04:AMPARAMS|DCode=108|XSize=0.9mm|YSize=0.9mm|CornerRadius=0.25mm|HoleSize=0mm|Usage=FLASHONLY|Rotation=90.000|XOffset=0mm|YOffset=0mm|HoleType=Round|Shape=RoundedRectangle|*
%AMROUNDEDRECTD108*
21,1,0.9000,0.4000,0,0,90.0*
21,1,0.4000,0.9000,0,0,90.0*
1,1,0.5000,0.2000,0.2000*
1,1,0.5000,0.2000,-0.2000*
1,1,0.5000,-0.2000,-0.2000*
1,1,0.5000,-0.2000,0.2000*
%
%ADD108ROUNDEDRECTD108*%
%ADD109R,1.7032X2.2032*%
%ADD110P,0.8202X4X270.0*%
%ADD111R,0.9532X0.4232*%
%ADD112R,3.6032X1.2032*%
%ADD113R,0.9632X0.9032*%
%ADD114R,0.9032X0.9632*%
%ADD115R,1.3462X1.4732*%
G36*
X289036Y173100D02*
X289108Y173078D01*
X289130Y173072D01*
X289217Y173025D01*
X289293Y172963D01*
X289293Y172963D01*
X291093Y171163D01*
X291093Y171163D01*
X291124Y171125D01*
X291156Y171087D01*
X291202Y171000D01*
X291209Y170978D01*
X291231Y170906D01*
X291235Y170857D01*
X291240Y170808D01*
X291240Y170807D01*
Y169008D01*
X291231Y168910D01*
X291202Y168815D01*
X291156Y168729D01*
X291093Y168652D01*
X291017Y168590D01*
X290930Y168543D01*
X290836Y168515D01*
X290738Y168505D01*
X288638D01*
X288540Y168515D01*
X288445Y168543D01*
X288359Y168590D01*
X288283Y168652D01*
X288220Y168729D01*
X288174Y168815D01*
X288145Y168910D01*
X288135Y169008D01*
Y172608D01*
X288145Y172706D01*
X288174Y172800D01*
X288220Y172887D01*
X288283Y172963D01*
X288359Y173025D01*
X288445Y173072D01*
X288540Y173100D01*
X288638Y173110D01*
X288938D01*
X289036Y173100D01*
D02*
G37*
G36*
X297336D02*
X297430Y173072D01*
X297517Y173025D01*
X297593Y172963D01*
X297656Y172887D01*
X297702Y172800D01*
X297731Y172706D01*
X297740Y172608D01*
Y169008D01*
X297731Y168910D01*
X297702Y168815D01*
X297656Y168729D01*
X297593Y168652D01*
X297517Y168590D01*
X297430Y168543D01*
X297336Y168515D01*
X297238Y168505D01*
X295138D01*
X295040Y168515D01*
X294946Y168543D01*
X294859Y168590D01*
X294783Y168652D01*
X294720Y168729D01*
X294674Y168815D01*
X294645Y168910D01*
X294635Y169008D01*
Y170807D01*
X294635Y170808D01*
X294640Y170857D01*
X294645Y170906D01*
X294667Y170978D01*
X294674Y171000D01*
X294720Y171087D01*
X294751Y171125D01*
X294783Y171163D01*
X294783Y171163D01*
X296583Y172963D01*
X296583Y172963D01*
X296659Y173025D01*
X296746Y173072D01*
X296768Y173078D01*
X296840Y173100D01*
X296938Y173110D01*
X297238D01*
X297336Y173100D01*
D02*
G37*
G36*
X290836Y181700D02*
X290930Y181672D01*
X291017Y181625D01*
X291093Y181563D01*
X291155Y181487D01*
X291202Y181400D01*
X291231Y181306D01*
X291240Y181208D01*
Y179408D01*
X291240Y179408D01*
X291235Y179359D01*
X291231Y179310D01*
X291209Y179237D01*
X291202Y179215D01*
X291156Y179128D01*
X291093Y179052D01*
X289293Y177253D01*
X289293Y177252D01*
X289259Y177224D01*
X289217Y177190D01*
X289130Y177143D01*
X289036Y177115D01*
X289027Y177114D01*
X288938Y177105D01*
X288937Y177105D01*
X288638D01*
X288540Y177115D01*
X288445Y177143D01*
X288359Y177190D01*
X288283Y177252D01*
X288220Y177328D01*
X288174Y177415D01*
X288145Y177510D01*
X288135Y177608D01*
Y181208D01*
X288145Y181306D01*
X288174Y181400D01*
X288220Y181487D01*
X288283Y181563D01*
X288359Y181625D01*
X288445Y181672D01*
X288540Y181700D01*
X288638Y181710D01*
X290738D01*
X290836Y181700D01*
D02*
G37*
G36*
X297336D02*
X297430Y181672D01*
X297517Y181625D01*
X297593Y181563D01*
X297656Y181487D01*
X297702Y181400D01*
X297731Y181306D01*
X297740Y181208D01*
Y177608D01*
X297731Y177510D01*
X297702Y177415D01*
X297656Y177328D01*
X297593Y177252D01*
X297517Y177190D01*
X297430Y177143D01*
X297336Y177115D01*
X297238Y177105D01*
X296938D01*
X296938Y177105D01*
X296849Y177114D01*
X296840Y177115D01*
X296746Y177143D01*
X296659Y177190D01*
X296617Y177224D01*
X296583Y177252D01*
X296582Y177253D01*
X294783Y179052D01*
X294720Y179128D01*
X294674Y179215D01*
X294667Y179237D01*
X294645Y179310D01*
X294640Y179359D01*
X294635Y179408D01*
X294635Y179408D01*
Y181208D01*
X294645Y181306D01*
X294674Y181400D01*
X294720Y181487D01*
X294783Y181563D01*
X294859Y181625D01*
X294946Y181672D01*
X295040Y181700D01*
X295138Y181710D01*
X297238D01*
X297336Y181700D01*
D02*
G37*
D33*
X288438Y194008D02*
D03*
X297438D02*
D03*
X297200Y159889D02*
D03*
X288200D02*
D03*
D40*
X177979Y13655D02*
D03*
D49*
X228632Y88905D02*
D03*
Y104905D02*
D03*
X212504Y89249D02*
D03*
Y105249D02*
D03*
D50*
X70000Y340000D02*
D03*
X630000Y80000D02*
D03*
X134673Y20427D02*
D03*
D51*
X416000Y301125D02*
D03*
X174000D02*
D03*
Y59125D02*
D03*
X416000D02*
D03*
D52*
X620000Y30000D02*
D03*
X30000D02*
D03*
Y330000D02*
D03*
X620000D02*
D03*
D53*
X69538Y196800D02*
D03*
Y283200D02*
D03*
D54*
X15938Y196800D02*
D03*
Y283200D02*
D03*
D55*
X84500Y110000D02*
D03*
D56*
Y130000D02*
D03*
D91*
X289638Y170008D02*
D03*
D92*
X296238D02*
D03*
X289638Y180208D02*
D03*
X296238D02*
D03*
D101*
X607000Y188000D02*
D03*
Y192000D02*
D03*
X583000Y208000D02*
D03*
Y204000D02*
D03*
Y200000D02*
D03*
Y196000D02*
D03*
Y192000D02*
D03*
Y188000D02*
D03*
Y184000D02*
D03*
Y180000D02*
D03*
Y176000D02*
D03*
Y172000D02*
D03*
Y168000D02*
D03*
Y164000D02*
D03*
Y160000D02*
D03*
Y156000D02*
D03*
Y152000D02*
D03*
X607000D02*
D03*
Y156000D02*
D03*
Y160000D02*
D03*
Y164000D02*
D03*
Y168000D02*
D03*
Y172000D02*
D03*
Y176000D02*
D03*
Y180000D02*
D03*
Y184000D02*
D03*
Y196000D02*
D03*
Y200000D02*
D03*
Y204000D02*
D03*
Y208000D02*
D03*
D102*
X303064Y79800D02*
D03*
D103*
X312564Y87300D02*
D03*
Y82300D02*
D03*
Y77300D02*
D03*
Y72300D02*
D03*
X293564Y87300D02*
D03*
Y82300D02*
D03*
Y77300D02*
D03*
Y72300D02*
D03*
D104*
X98137Y243511D02*
D03*
Y236511D02*
D03*
X89637Y240011D02*
D03*
D105*
X326914Y248616D02*
D03*
X320414D02*
D03*
Y224616D02*
D03*
X333414Y248616D02*
D03*
Y224616D02*
D03*
X333414Y148819D02*
D03*
Y172819D02*
D03*
X320414Y148819D02*
D03*
Y172819D02*
D03*
X326914D02*
D03*
D106*
X73639Y260000D02*
D03*
Y265000D02*
D03*
Y210000D02*
D03*
Y225000D02*
D03*
Y230000D02*
D03*
Y235000D02*
D03*
Y245000D02*
D03*
Y250000D02*
D03*
Y255000D02*
D03*
Y270000D02*
D03*
X60639Y252500D02*
D03*
Y247500D02*
D03*
Y232500D02*
D03*
Y227500D02*
D03*
X73639Y220000D02*
D03*
Y215000D02*
D03*
X60639Y262500D02*
D03*
Y257500D02*
D03*
Y242500D02*
D03*
Y237500D02*
D03*
Y222500D02*
D03*
Y217500D02*
D03*
D107*
Y271000D02*
D03*
Y209000D02*
D03*
D108*
X80000Y37500D02*
D03*
Y22500D02*
D03*
X110000Y37500D02*
D03*
Y22500D02*
D03*
D109*
X30000Y147000D02*
D03*
Y93000D02*
D03*
D110*
X292938Y175108D02*
D03*
D111*
X510650Y102000D02*
D03*
Y98000D02*
D03*
Y90000D02*
D03*
Y86000D02*
D03*
Y138000D02*
D03*
Y134000D02*
D03*
X479350Y126000D02*
D03*
Y122000D02*
D03*
Y102000D02*
D03*
Y98000D02*
D03*
X510650Y262000D02*
D03*
Y258000D02*
D03*
Y274000D02*
D03*
Y270000D02*
D03*
Y250000D02*
D03*
Y246000D02*
D03*
X479350Y250000D02*
D03*
Y246000D02*
D03*
Y262000D02*
D03*
Y258000D02*
D03*
Y274000D02*
D03*
Y270000D02*
D03*
Y278000D02*
D03*
Y266000D02*
D03*
Y254000D02*
D03*
Y242000D02*
D03*
Y238000D02*
D03*
Y234000D02*
D03*
Y230000D02*
D03*
Y226000D02*
D03*
Y222000D02*
D03*
Y218000D02*
D03*
Y214000D02*
D03*
Y210000D02*
D03*
Y206000D02*
D03*
Y202000D02*
D03*
Y198000D02*
D03*
Y194000D02*
D03*
Y190000D02*
D03*
Y186000D02*
D03*
Y182000D02*
D03*
Y178000D02*
D03*
Y174000D02*
D03*
Y170000D02*
D03*
Y166000D02*
D03*
Y162000D02*
D03*
Y158000D02*
D03*
Y154000D02*
D03*
Y150000D02*
D03*
Y146000D02*
D03*
Y142000D02*
D03*
Y138000D02*
D03*
Y134000D02*
D03*
Y130000D02*
D03*
Y118000D02*
D03*
Y106000D02*
D03*
Y94000D02*
D03*
Y90000D02*
D03*
Y86000D02*
D03*
Y82000D02*
D03*
X510650Y278000D02*
D03*
Y266000D02*
D03*
Y254000D02*
D03*
Y242000D02*
D03*
Y238000D02*
D03*
Y234000D02*
D03*
Y230000D02*
D03*
Y226000D02*
D03*
Y222000D02*
D03*
Y218000D02*
D03*
Y214000D02*
D03*
Y210000D02*
D03*
Y206000D02*
D03*
Y202000D02*
D03*
Y198000D02*
D03*
Y194000D02*
D03*
Y190000D02*
D03*
Y186000D02*
D03*
Y182000D02*
D03*
Y178000D02*
D03*
Y174000D02*
D03*
Y170000D02*
D03*
Y166000D02*
D03*
Y162000D02*
D03*
Y158000D02*
D03*
Y154000D02*
D03*
Y150000D02*
D03*
Y146000D02*
D03*
Y142000D02*
D03*
Y130000D02*
D03*
Y118000D02*
D03*
Y106000D02*
D03*
Y94000D02*
D03*
Y82000D02*
D03*
Y126000D02*
D03*
Y122000D02*
D03*
Y114000D02*
D03*
Y110000D02*
D03*
X479350D02*
D03*
Y114000D02*
D03*
D112*
X339337Y68450D02*
D03*
Y90450D02*
D03*
D113*
X267387Y88281D02*
D03*
Y103521D02*
D03*
X267387Y70493D02*
D03*
Y55253D02*
D03*
D114*
X319294Y189758D02*
D03*
X334534D02*
D03*
X334534Y131560D02*
D03*
X319294D02*
D03*
X334534Y264808D02*
D03*
X319294D02*
D03*
X334534Y208619D02*
D03*
X319294D02*
D03*
D115*
X307911Y100912D02*
D03*
X285911D02*
D03*
X307911Y58412D02*
D03*
X285911D02*
D03*
M02*
