G04*
G04 #@! TF.GenerationSoftware,Altium Limited,Altium Designer,21.2.2 (38)*
G04*
G04 Layer_Color=8421504*
%FSLAX44Y44*%
%MOMM*%
G71*
G04*
G04 #@! TF.SameCoordinates,2A6C1C92-B5F8-495A-87A3-FCD029FF8D19*
G04*
G04*
G04 #@! TF.FilePolarity,Positive*
G04*
G01*
G75*
%ADD15R,0.6500X0.5500*%
%ADD16R,0.6200X0.6200*%
%ADD17R,0.6200X0.6200*%
G04:AMPARAMS|DCode=18|XSize=0.2mm|YSize=0.5mm|CornerRadius=0.01mm|HoleSize=0mm|Usage=FLASHONLY|Rotation=0.000|XOffset=0mm|YOffset=0mm|HoleType=Round|Shape=RoundedRectangle|*
%AMROUNDEDRECTD18*
21,1,0.2000,0.4800,0,0,0.0*
21,1,0.1800,0.5000,0,0,0.0*
1,1,0.0200,0.0900,-0.2400*
1,1,0.0200,-0.0900,-0.2400*
1,1,0.0200,-0.0900,0.2400*
1,1,0.0200,0.0900,0.2400*
%
%ADD18ROUNDEDRECTD18*%
G04:AMPARAMS|DCode=19|XSize=0.2mm|YSize=0.7mm|CornerRadius=0.01mm|HoleSize=0mm|Usage=FLASHONLY|Rotation=270.000|XOffset=0mm|YOffset=0mm|HoleType=Round|Shape=RoundedRectangle|*
%AMROUNDEDRECTD19*
21,1,0.2000,0.6800,0,0,270.0*
21,1,0.1800,0.7000,0,0,270.0*
1,1,0.0200,-0.3400,-0.0900*
1,1,0.0200,-0.3400,0.0900*
1,1,0.0200,0.3400,0.0900*
1,1,0.0200,0.3400,-0.0900*
%
%ADD19ROUNDEDRECTD19*%
G04:AMPARAMS|DCode=20|XSize=0.25mm|YSize=0.6mm|CornerRadius=0.025mm|HoleSize=0mm|Usage=FLASHONLY|Rotation=270.000|XOffset=0mm|YOffset=0mm|HoleType=Round|Shape=RoundedRectangle|*
%AMROUNDEDRECTD20*
21,1,0.2500,0.5500,0,0,270.0*
21,1,0.2000,0.6000,0,0,270.0*
1,1,0.0500,-0.2750,-0.1000*
1,1,0.0500,-0.2750,0.1000*
1,1,0.0500,0.2750,0.1000*
1,1,0.0500,0.2750,-0.1000*
%
%ADD20ROUNDEDRECTD20*%
G04:AMPARAMS|DCode=21|XSize=0.25mm|YSize=0.6mm|CornerRadius=0.025mm|HoleSize=0mm|Usage=FLASHONLY|Rotation=180.000|XOffset=0mm|YOffset=0mm|HoleType=Round|Shape=RoundedRectangle|*
%AMROUNDEDRECTD21*
21,1,0.2500,0.5500,0,0,180.0*
21,1,0.2000,0.6000,0,0,180.0*
1,1,0.0500,-0.1000,0.2750*
1,1,0.0500,0.1000,0.2750*
1,1,0.0500,0.1000,-0.2750*
1,1,0.0500,-0.1000,-0.2750*
%
%ADD21ROUNDEDRECTD21*%
%ADD22R,0.3000X0.7100*%
%ADD23R,1.4000X1.0500*%
%ADD24R,0.9000X1.0000*%
%ADD25R,0.5500X0.3000*%
%ADD26R,0.5500X0.4000*%
%ADD27R,0.3600X0.3200*%
%ADD28R,1.2700X1.1430*%
%ADD29R,0.5500X0.6500*%
%ADD30R,1.0000X0.9000*%
G36*
X239050Y229261D02*
Y229062D01*
X238898Y228694D01*
X238617Y228413D01*
X238249Y228261D01*
X238050D01*
D01*
X230050D01*
X229851D01*
X229484Y228413D01*
X229203Y228694D01*
X229050Y229062D01*
Y229261D01*
D01*
Y240261D01*
Y240460D01*
X229203Y240827D01*
X229484Y241108D01*
X229851Y241261D01*
X230050D01*
D01*
X238050D01*
X238249D01*
X238617Y241108D01*
X238898Y240827D01*
X239050Y240460D01*
Y240261D01*
D01*
Y229261D01*
D02*
G37*
G36*
X229050Y255261D02*
Y255460D01*
X229203Y255827D01*
X229484Y256108D01*
X229851Y256261D01*
X230050D01*
D01*
X238050D01*
X238249D01*
X238617Y256108D01*
X238898Y255827D01*
X239050Y255460D01*
Y255261D01*
D01*
Y244261D01*
Y244062D01*
X238898Y243694D01*
X238617Y243413D01*
X238249Y243261D01*
X238050D01*
D01*
X230050D01*
X229851D01*
X229484Y243413D01*
X229203Y243694D01*
X229050Y244062D01*
Y244261D01*
D01*
Y255261D01*
D02*
G37*
D15*
X265430Y147146D02*
D03*
Y157146D02*
D03*
X80000Y55000D02*
D03*
Y65000D02*
D03*
X254762Y157146D02*
D03*
Y147146D02*
D03*
X244094Y157146D02*
D03*
Y147146D02*
D03*
X233300Y157111D02*
D03*
Y147111D02*
D03*
X219550Y157111D02*
D03*
Y147111D02*
D03*
X110000Y55000D02*
D03*
Y65000D02*
D03*
D16*
X277114Y146376D02*
D03*
Y155376D02*
D03*
X581222Y150400D02*
D03*
Y159400D02*
D03*
D17*
X264772Y168377D02*
D03*
X255772D02*
D03*
X92554Y238000D02*
D03*
X83554D02*
D03*
X230229Y204905D02*
D03*
X221229D02*
D03*
X276633Y243270D02*
D03*
X267633D02*
D03*
X598242Y147066D02*
D03*
X607242D02*
D03*
X611102Y135030D02*
D03*
X620102D02*
D03*
D18*
X229300Y187161D02*
D03*
X233300D02*
D03*
X237300D02*
D03*
X241300D02*
D03*
Y172161D02*
D03*
X237300D02*
D03*
X233300D02*
D03*
X229300D02*
D03*
D19*
X241800Y181660D02*
D03*
Y177660D02*
D03*
X228800D02*
D03*
Y181660D02*
D03*
D20*
X245550Y249761D02*
D03*
Y254761D02*
D03*
X222550Y229761D02*
D03*
Y224761D02*
D03*
Y249761D02*
D03*
Y244761D02*
D03*
Y239761D02*
D03*
Y234761D02*
D03*
Y259760D02*
D03*
Y254761D02*
D03*
X245550Y259760D02*
D03*
Y244761D02*
D03*
Y239761D02*
D03*
Y224761D02*
D03*
Y229761D02*
D03*
Y234761D02*
D03*
D21*
X236551Y220761D02*
D03*
X231550D02*
D03*
Y263761D02*
D03*
X236551D02*
D03*
D22*
X85000Y36100D02*
D03*
X75000D02*
D03*
X80000Y23900D02*
D03*
X115000Y36100D02*
D03*
X105000D02*
D03*
X110000Y23900D02*
D03*
D23*
X128000Y127500D02*
D03*
Y146500D02*
D03*
D24*
X547068Y263876D02*
D03*
X531068D02*
D03*
X582494Y196426D02*
D03*
X598494D02*
D03*
X156228Y165816D02*
D03*
X172228D02*
D03*
X156031Y185817D02*
D03*
X172031D02*
D03*
D25*
X130726Y192289D02*
D03*
Y187289D02*
D03*
Y177289D02*
D03*
Y172289D02*
D03*
X122927D02*
D03*
Y177289D02*
D03*
Y187289D02*
D03*
Y192289D02*
D03*
X113264Y208011D02*
D03*
Y213011D02*
D03*
Y223011D02*
D03*
Y228011D02*
D03*
X121064D02*
D03*
Y223011D02*
D03*
Y213011D02*
D03*
Y208011D02*
D03*
X113518Y248681D02*
D03*
Y253681D02*
D03*
Y263681D02*
D03*
Y268681D02*
D03*
X121318D02*
D03*
Y263681D02*
D03*
Y253681D02*
D03*
Y248681D02*
D03*
D26*
X130726Y182289D02*
D03*
X122927D02*
D03*
X113264Y218011D02*
D03*
X121064D02*
D03*
X113518Y258681D02*
D03*
X121318D02*
D03*
D27*
X171494Y219362D02*
D03*
X177094D02*
D03*
X171777Y260331D02*
D03*
X177377D02*
D03*
X171777Y253331D02*
D03*
X177377D02*
D03*
X171494Y226563D02*
D03*
X177094D02*
D03*
D28*
X584200Y215568D02*
D03*
Y237568D02*
D03*
X627380Y247826D02*
D03*
Y269826D02*
D03*
X601980Y215568D02*
D03*
Y237568D02*
D03*
D29*
X190438Y164451D02*
D03*
X200438D02*
D03*
X190531Y187317D02*
D03*
X200531D02*
D03*
X248249Y204811D02*
D03*
X258249D02*
D03*
X259126Y217432D02*
D03*
X269126D02*
D03*
D30*
X595376Y176148D02*
D03*
Y160148D02*
D03*
X627634Y225424D02*
D03*
Y209424D02*
D03*
M02*
