G04*
G04 #@! TF.GenerationSoftware,Altium Limited,Altium Designer,21.2.2 (38)*
G04*
G04 Layer_Color=8388736*
%FSLAX44Y44*%
%MOMM*%
G71*
G04*
G04 #@! TF.SameCoordinates,2A6C1C92-B5F8-495A-87A3-FCD029FF8D19*
G04*
G04*
G04 #@! TF.FilePolarity,Negative*
G04*
G01*
G75*
%ADD31R,0.8532X0.7532*%
%ADD32R,0.8232X0.8232*%
%ADD33R,0.8232X0.8232*%
G04:AMPARAMS|DCode=34|XSize=0.3mm|YSize=0.6mm|CornerRadius=0.06mm|HoleSize=0mm|Usage=FLASHONLY|Rotation=0.000|XOffset=0mm|YOffset=0mm|HoleType=Round|Shape=RoundedRectangle|*
%AMROUNDEDRECTD34*
21,1,0.3000,0.4800,0,0,0.0*
21,1,0.1800,0.6000,0,0,0.0*
1,1,0.1200,0.0900,-0.2400*
1,1,0.1200,-0.0900,-0.2400*
1,1,0.1200,-0.0900,0.2400*
1,1,0.1200,0.0900,0.2400*
%
%ADD34ROUNDEDRECTD34*%
G04:AMPARAMS|DCode=35|XSize=0.3mm|YSize=0.8mm|CornerRadius=0.06mm|HoleSize=0mm|Usage=FLASHONLY|Rotation=270.000|XOffset=0mm|YOffset=0mm|HoleType=Round|Shape=RoundedRectangle|*
%AMROUNDEDRECTD35*
21,1,0.3000,0.6800,0,0,270.0*
21,1,0.1800,0.8000,0,0,270.0*
1,1,0.1200,-0.3400,-0.0900*
1,1,0.1200,-0.3400,0.0900*
1,1,0.1200,0.3400,0.0900*
1,1,0.1200,0.3400,-0.0900*
%
%ADD35ROUNDEDRECTD35*%
G04:AMPARAMS|DCode=36|XSize=0.32mm|YSize=0.67mm|CornerRadius=0.06mm|HoleSize=0mm|Usage=FLASHONLY|Rotation=270.000|XOffset=0mm|YOffset=0mm|HoleType=Round|Shape=RoundedRectangle|*
%AMROUNDEDRECTD36*
21,1,0.3200,0.5500,0,0,270.0*
21,1,0.2000,0.6700,0,0,270.0*
1,1,0.1200,-0.2750,-0.1000*
1,1,0.1200,-0.2750,0.1000*
1,1,0.1200,0.2750,0.1000*
1,1,0.1200,0.2750,-0.1000*
%
%ADD36ROUNDEDRECTD36*%
G04:AMPARAMS|DCode=37|XSize=0.32mm|YSize=0.67mm|CornerRadius=0.06mm|HoleSize=0mm|Usage=FLASHONLY|Rotation=180.000|XOffset=0mm|YOffset=0mm|HoleType=Round|Shape=RoundedRectangle|*
%AMROUNDEDRECTD37*
21,1,0.3200,0.5500,0,0,180.0*
21,1,0.2000,0.6700,0,0,180.0*
1,1,0.1200,-0.1000,0.2750*
1,1,0.1200,0.1000,0.2750*
1,1,0.1200,0.1000,-0.2750*
1,1,0.1200,-0.1000,-0.2750*
%
%ADD37ROUNDEDRECTD37*%
G04:AMPARAMS|DCode=38|XSize=1.07mm|YSize=3.07mm|CornerRadius=0.085mm|HoleSize=0mm|Usage=FLASHONLY|Rotation=180.000|XOffset=0mm|YOffset=0mm|HoleType=Round|Shape=RoundedRectangle|*
%AMROUNDEDRECTD38*
21,1,1.0700,2.9000,0,0,180.0*
21,1,0.9000,3.0700,0,0,180.0*
1,1,0.1700,-0.4500,1.4500*
1,1,0.1700,0.4500,1.4500*
1,1,0.1700,0.4500,-1.4500*
1,1,0.1700,-0.4500,-1.4500*
%
%ADD38ROUNDEDRECTD38*%
%ADD39C,1.0000*%
%ADD40C,0.9532*%
%ADD41R,0.5032X0.9132*%
%ADD42R,1.6032X1.2532*%
%ADD43R,1.1032X1.2032*%
%ADD44R,0.6500X0.4000*%
%ADD45R,0.6500X0.5000*%
%ADD46R,0.5632X0.5232*%
%ADD47R,1.4732X1.3462*%
%ADD48R,0.7532X0.8532*%
%ADD49R,1.2032X1.1032*%
%ADD50C,2.0000*%
%ADD51C,5.4000*%
%ADD52C,5.7032*%
%ADD53O,2.0000X1.2000*%
%ADD54O,2.5000X1.2000*%
%ADD55C,1.5712*%
%ADD56R,1.5712X1.5712*%
D31*
X265430Y147146D02*
D03*
Y157146D02*
D03*
X80000Y55000D02*
D03*
Y65000D02*
D03*
X254762Y157146D02*
D03*
Y147146D02*
D03*
X244094Y157146D02*
D03*
Y147146D02*
D03*
X233300Y157111D02*
D03*
Y147111D02*
D03*
X219550Y157111D02*
D03*
Y147111D02*
D03*
X110000Y55000D02*
D03*
Y65000D02*
D03*
D32*
X277114Y146376D02*
D03*
Y155376D02*
D03*
X581222Y150400D02*
D03*
Y159400D02*
D03*
D33*
X264772Y168377D02*
D03*
X255772D02*
D03*
X92554Y238000D02*
D03*
X83554D02*
D03*
X230229Y204905D02*
D03*
X221229D02*
D03*
X276633Y243270D02*
D03*
X267633D02*
D03*
X598242Y147066D02*
D03*
X607242D02*
D03*
X611102Y135030D02*
D03*
X620102D02*
D03*
D34*
X229300Y187161D02*
D03*
X233300D02*
D03*
X237300D02*
D03*
X241300D02*
D03*
Y172161D02*
D03*
X237300D02*
D03*
X233300D02*
D03*
X229300D02*
D03*
D35*
X241800Y181660D02*
D03*
Y177660D02*
D03*
X228800D02*
D03*
Y181660D02*
D03*
D36*
X245550Y249761D02*
D03*
Y254761D02*
D03*
X222550Y229761D02*
D03*
Y224761D02*
D03*
Y249761D02*
D03*
Y244761D02*
D03*
Y239761D02*
D03*
Y234761D02*
D03*
Y259760D02*
D03*
Y254761D02*
D03*
X245550Y259760D02*
D03*
Y244761D02*
D03*
Y239761D02*
D03*
Y224761D02*
D03*
Y229761D02*
D03*
Y234761D02*
D03*
D37*
X236551Y220761D02*
D03*
X231550D02*
D03*
Y263761D02*
D03*
X236551D02*
D03*
D38*
X234050Y242261D02*
D03*
D39*
X210671Y113828D02*
D03*
X635508Y291338D02*
D03*
X577088Y51308D02*
D03*
X579230Y170900D02*
D03*
X116586Y286512D02*
D03*
X609854Y268986D02*
D03*
X377444Y258572D02*
D03*
X152500Y91750D02*
D03*
X323546Y203694D02*
D03*
X67000Y155000D02*
D03*
D40*
X503750Y20000D02*
D03*
X273000Y191800D02*
D03*
X273000Y179500D02*
D03*
X273000Y167362D02*
D03*
X473000Y50000D02*
D03*
X454455Y246307D02*
D03*
X454289Y259151D02*
D03*
X501030Y340726D02*
D03*
X527050Y340614D02*
D03*
X245200Y273511D02*
D03*
X473000Y35000D02*
D03*
X503750Y65000D02*
D03*
Y50000D02*
D03*
Y35000D02*
D03*
D41*
X85000Y36100D02*
D03*
X75000D02*
D03*
X80000Y23900D02*
D03*
X115000Y36100D02*
D03*
X105000D02*
D03*
X110000Y23900D02*
D03*
D42*
X128000Y127500D02*
D03*
Y146500D02*
D03*
D43*
X547068Y263876D02*
D03*
X531068D02*
D03*
X582494Y196426D02*
D03*
X598494D02*
D03*
X156228Y165816D02*
D03*
X172228D02*
D03*
X156031Y185817D02*
D03*
X172031D02*
D03*
D44*
X130726Y192289D02*
D03*
Y187289D02*
D03*
Y177289D02*
D03*
Y172289D02*
D03*
X122927D02*
D03*
Y177289D02*
D03*
Y187289D02*
D03*
Y192289D02*
D03*
X113264Y208011D02*
D03*
Y213011D02*
D03*
Y223011D02*
D03*
Y228011D02*
D03*
X121064D02*
D03*
Y223011D02*
D03*
Y213011D02*
D03*
Y208011D02*
D03*
X113518Y248681D02*
D03*
Y253681D02*
D03*
Y263681D02*
D03*
Y268681D02*
D03*
X121318D02*
D03*
Y263681D02*
D03*
Y253681D02*
D03*
Y248681D02*
D03*
D45*
X130726Y182289D02*
D03*
X122927D02*
D03*
X113264Y218011D02*
D03*
X121064D02*
D03*
X113518Y258681D02*
D03*
X121318D02*
D03*
D46*
X171494Y219362D02*
D03*
X177094D02*
D03*
X171777Y260331D02*
D03*
X177377D02*
D03*
X171777Y253331D02*
D03*
X177377D02*
D03*
X171494Y226563D02*
D03*
X177094D02*
D03*
D47*
X584200Y215568D02*
D03*
Y237568D02*
D03*
X627380Y247826D02*
D03*
Y269826D02*
D03*
X601980Y215568D02*
D03*
Y237568D02*
D03*
D48*
X190438Y164451D02*
D03*
X200438D02*
D03*
X190531Y187317D02*
D03*
X200531D02*
D03*
X248249Y204811D02*
D03*
X258249D02*
D03*
X259126Y217432D02*
D03*
X269126D02*
D03*
D49*
X595376Y176148D02*
D03*
Y160148D02*
D03*
X627634Y225424D02*
D03*
Y209424D02*
D03*
D50*
X70000Y340000D02*
D03*
X630000Y80000D02*
D03*
X134673Y20427D02*
D03*
D51*
X416000Y301125D02*
D03*
X174000D02*
D03*
Y59125D02*
D03*
X416000D02*
D03*
D52*
X620000Y30000D02*
D03*
X30000D02*
D03*
Y330000D02*
D03*
X620000D02*
D03*
D53*
X69538Y196800D02*
D03*
Y283200D02*
D03*
D54*
X15938Y196800D02*
D03*
Y283200D02*
D03*
D55*
X84500Y110000D02*
D03*
D56*
Y130000D02*
D03*
M02*
