G04*
G04 #@! TF.GenerationSoftware,Altium Limited,Altium Designer,19.1.7 (138)*
G04*
G04 Layer_Physical_Order=2*
G04 Layer_Color=36540*
%FSLAX25Y25*%
%MOIN*%
G70*
G01*
G75*
%ADD11C,0.00787*%
%ADD61C,0.00984*%
%ADD62C,0.00591*%
%ADD65C,0.00600*%
%ADD72C,0.20866*%
%ADD74O,0.07480X0.04331*%
%ADD75O,0.09449X0.04331*%
%ADD77R,0.05386X0.05386*%
%ADD78C,0.02400*%
%ADD79C,0.01575*%
%ADD80C,0.01600*%
%ADD81C,0.11811*%
G36*
X11811Y139795D02*
X245905D01*
X245993Y139813D01*
X247484Y139666D01*
X249001Y139206D01*
X250399Y138458D01*
X251625Y137452D01*
X252631Y136226D01*
X253379Y134828D01*
X253839Y133310D01*
X253986Y131820D01*
X253968Y131732D01*
X253968Y11811D01*
X253992Y11694D01*
X253813Y9878D01*
X253249Y8019D01*
X252333Y6306D01*
X251101Y4804D01*
X249600Y3572D01*
X247886Y2657D01*
X246028Y2093D01*
X244212Y1914D01*
X244094Y1937D01*
X11811D01*
X11694Y1914D01*
X9878Y2093D01*
X8019Y2657D01*
X6306Y3572D01*
X4804Y4804D01*
X3572Y6306D01*
X2657Y8019D01*
X2093Y9878D01*
X1951Y11317D01*
X1937Y11811D01*
X1937Y12308D01*
X1937Y129921D01*
X1914Y130039D01*
X2093Y131854D01*
X2657Y133713D01*
X3572Y135426D01*
X4804Y136928D01*
X6306Y138160D01*
X8019Y139076D01*
X9878Y139640D01*
X11694Y139818D01*
X11811Y139795D01*
D02*
G37*
%LPC*%
G36*
X207433Y131525D02*
X206969Y131432D01*
X206576Y131170D01*
X206314Y130777D01*
X206222Y130314D01*
X206314Y129851D01*
X206576Y129458D01*
X206969Y129195D01*
X207433Y129103D01*
X207896Y129195D01*
X208289Y129458D01*
X208551Y129851D01*
X208643Y130314D01*
X208551Y130777D01*
X208289Y131170D01*
X207896Y131432D01*
X207433Y131525D01*
D02*
G37*
G36*
X197256Y131172D02*
X196793Y131079D01*
X196400Y130817D01*
X196137Y130424D01*
X196045Y129961D01*
X196137Y129498D01*
X196400Y129105D01*
X196793Y128842D01*
X197256Y128750D01*
X197719Y128842D01*
X198112Y129105D01*
X198374Y129498D01*
X198467Y129961D01*
X198374Y130424D01*
X198112Y130817D01*
X197719Y131079D01*
X197256Y131172D01*
D02*
G37*
G36*
X179131Y115955D02*
X178663Y115862D01*
X178266Y115597D01*
X178001Y115200D01*
X177908Y114732D01*
X178001Y114263D01*
X178266Y113866D01*
X178663Y113601D01*
X179131Y113508D01*
X179600Y113601D01*
X179997Y113866D01*
X180262Y114263D01*
X180355Y114732D01*
X180262Y115200D01*
X179997Y115597D01*
X179600Y115862D01*
X179131Y115955D01*
D02*
G37*
G36*
X183300Y113224D02*
X182832Y113130D01*
X182435Y112865D01*
X182170Y112468D01*
X182077Y112000D01*
X182170Y111532D01*
X182224Y111451D01*
X182082Y111218D01*
X181893Y111045D01*
X181500Y111124D01*
X181032Y111030D01*
X180635Y110765D01*
X180370Y110368D01*
X180277Y109900D01*
X180285Y109858D01*
X180265Y109819D01*
X179851Y109474D01*
X179600Y109523D01*
X179132Y109430D01*
X178735Y109165D01*
X178470Y108768D01*
X178376Y108300D01*
X178470Y107832D01*
X178735Y107435D01*
X179132Y107170D01*
X179600Y107077D01*
X180068Y107170D01*
X180465Y107435D01*
X180730Y107832D01*
X180824Y108300D01*
X180815Y108342D01*
X180835Y108381D01*
X181248Y108727D01*
X181500Y108677D01*
X181968Y108770D01*
X182365Y109035D01*
X182630Y109432D01*
X182723Y109900D01*
X182630Y110368D01*
X182576Y110450D01*
X182718Y110682D01*
X182907Y110855D01*
X183300Y110776D01*
X183768Y110870D01*
X184165Y111135D01*
X184430Y111532D01*
X184523Y112000D01*
X184430Y112468D01*
X184165Y112865D01*
X183768Y113130D01*
X183300Y113224D01*
D02*
G37*
G36*
X163609Y105785D02*
X163141Y105692D01*
X162744Y105427D01*
X162479Y105030D01*
X162385Y104562D01*
X162479Y104094D01*
X162744Y103697D01*
X163141Y103431D01*
X163609Y103338D01*
X164077Y103431D01*
X164474Y103697D01*
X164739Y104094D01*
X164832Y104562D01*
X164739Y105030D01*
X164474Y105427D01*
X164077Y105692D01*
X163609Y105785D01*
D02*
G37*
G36*
X117619Y103391D02*
X117156Y103299D01*
X116763Y103037D01*
X116501Y102644D01*
X116409Y102181D01*
X116501Y101717D01*
X116763Y101324D01*
X117156Y101062D01*
X117619Y100970D01*
X118083Y101062D01*
X118475Y101324D01*
X118738Y101717D01*
X118830Y102181D01*
X118738Y102644D01*
X118475Y103037D01*
X118083Y103299D01*
X117619Y103391D01*
D02*
G37*
G36*
X34873Y102849D02*
X33975Y102671D01*
X33215Y102163D01*
X32706Y101402D01*
X32620Y100969D01*
X32364Y100549D01*
X31896Y100642D01*
X31427Y100549D01*
X31031Y100284D01*
X30765Y99887D01*
X30672Y99419D01*
X30765Y98950D01*
X30768Y98946D01*
X30518Y98420D01*
X29860Y97981D01*
X29352Y97220D01*
X29173Y96322D01*
X29352Y95425D01*
X29860Y94664D01*
X30621Y94156D01*
X31518Y93977D01*
X32416Y94156D01*
X33176Y94664D01*
X33685Y95425D01*
X33863Y96322D01*
X33685Y97220D01*
X33176Y97981D01*
X33148Y98000D01*
X33142Y98562D01*
X33402Y98720D01*
X33420Y98709D01*
X33975Y98338D01*
X33985Y98336D01*
X34055Y97983D01*
X34563Y97223D01*
X35324Y96714D01*
X36222Y96536D01*
X37119Y96714D01*
X37880Y97223D01*
X38388Y97983D01*
X38566Y98881D01*
X38388Y99778D01*
X37880Y100539D01*
X37119Y101048D01*
X37110Y101049D01*
X37039Y101402D01*
X36531Y102163D01*
X35770Y102671D01*
X34873Y102849D01*
D02*
G37*
G36*
X183946Y102253D02*
X183483Y102161D01*
X183090Y101899D01*
X182828Y101506D01*
X182736Y101043D01*
X182828Y100579D01*
X183090Y100187D01*
X183483Y99924D01*
X183946Y99832D01*
X184409Y99924D01*
X184802Y100187D01*
X185065Y100579D01*
X185157Y101043D01*
X185065Y101506D01*
X184802Y101899D01*
X184409Y102161D01*
X183946Y102253D01*
D02*
G37*
G36*
X26414Y105728D02*
X25516Y105549D01*
X24755Y105041D01*
X24247Y104280D01*
X24170Y103893D01*
X23314Y103723D01*
X22554Y103214D01*
X22045Y102453D01*
X21867Y101556D01*
X22045Y100659D01*
X22554Y99898D01*
X23314Y99389D01*
X24212Y99211D01*
X25109Y99389D01*
X25870Y99898D01*
X26378Y100659D01*
X26455Y101046D01*
X27311Y101216D01*
X28072Y101724D01*
X28580Y102485D01*
X28759Y103383D01*
X28580Y104280D01*
X28072Y105041D01*
X27311Y105549D01*
X26414Y105728D01*
D02*
G37*
G36*
X217141Y99654D02*
X216673Y99561D01*
X216276Y99296D01*
X216011Y98899D01*
X215918Y98430D01*
X216011Y97962D01*
X216276Y97565D01*
X216673Y97300D01*
X217141Y97207D01*
X217610Y97300D01*
X218006Y97565D01*
X218272Y97962D01*
X218365Y98430D01*
X218272Y98899D01*
X218006Y99296D01*
X217610Y99561D01*
X217141Y99654D01*
D02*
G37*
G36*
X182144Y95079D02*
X181681Y94987D01*
X181288Y94724D01*
X181026Y94332D01*
X180934Y93868D01*
X181026Y93405D01*
X181288Y93012D01*
X181681Y92750D01*
X182144Y92658D01*
X182608Y92750D01*
X183000Y93012D01*
X183263Y93405D01*
X183355Y93868D01*
X183263Y94332D01*
X183000Y94724D01*
X182608Y94987D01*
X182144Y95079D01*
D02*
G37*
G36*
X119561D02*
X119097Y94987D01*
X118704Y94724D01*
X118442Y94332D01*
X118350Y93868D01*
X118442Y93405D01*
X118704Y93012D01*
X119097Y92750D01*
X119561Y92658D01*
X120024Y92750D01*
X120417Y93012D01*
X120679Y93405D01*
X120771Y93868D01*
X120679Y94332D01*
X120417Y94724D01*
X120024Y94987D01*
X119561Y95079D01*
D02*
G37*
G36*
X26336Y98681D02*
X25868Y98588D01*
X25471Y98323D01*
X25206Y97926D01*
X25113Y97458D01*
X25206Y96990D01*
X25471Y96593D01*
X25815Y96363D01*
X25830Y96152D01*
X25762Y95843D01*
X25535Y95797D01*
X24774Y95289D01*
X24266Y94528D01*
X24088Y93631D01*
X24266Y92734D01*
X24774Y91973D01*
X25535Y91464D01*
X26433Y91286D01*
X27330Y91464D01*
X28091Y91973D01*
X28599Y92734D01*
X28778Y93631D01*
X28599Y94528D01*
X28091Y95289D01*
X27330Y95797D01*
X26954Y95872D01*
X26915Y95992D01*
X26902Y96393D01*
X27201Y96593D01*
X27467Y96990D01*
X27560Y97458D01*
X27467Y97926D01*
X27201Y98323D01*
X26804Y98588D01*
X26336Y98681D01*
D02*
G37*
G36*
X32338Y92173D02*
X31870Y92080D01*
X31473Y91815D01*
X31208Y91418D01*
X31115Y90950D01*
X31208Y90481D01*
X31473Y90084D01*
X31870Y89819D01*
X32338Y89726D01*
X32806Y89819D01*
X33203Y90084D01*
X33468Y90481D01*
X33562Y90950D01*
X33468Y91418D01*
X33203Y91815D01*
X32806Y92080D01*
X32338Y92173D01*
D02*
G37*
G36*
X37052Y89811D02*
X36584Y89718D01*
X36187Y89452D01*
X35922Y89056D01*
X35870Y88793D01*
X35408Y88546D01*
X35348Y88540D01*
X34932Y88818D01*
X34035Y88997D01*
X33137Y88818D01*
X32377Y88310D01*
X31868Y87549D01*
X31690Y86652D01*
X31868Y85754D01*
X31937Y85652D01*
X31868Y85549D01*
X31690Y84652D01*
X31868Y83754D01*
X32377Y82993D01*
X33137Y82485D01*
X34035Y82307D01*
X34932Y82485D01*
X35693Y82993D01*
X36201Y83754D01*
X36380Y84652D01*
X36201Y85549D01*
X36133Y85652D01*
X36201Y85754D01*
X36380Y86652D01*
X36302Y87044D01*
X36386Y87167D01*
X36735Y87427D01*
X37052Y87364D01*
X37521Y87457D01*
X37918Y87722D01*
X38183Y88119D01*
X38276Y88587D01*
X38183Y89056D01*
X37918Y89452D01*
X37521Y89718D01*
X37052Y89811D01*
D02*
G37*
G36*
X26414Y89948D02*
X25516Y89770D01*
X24755Y89261D01*
X24247Y88501D01*
X24069Y87603D01*
X24247Y86706D01*
X24305Y86620D01*
X24225Y86501D01*
X24046Y85603D01*
X24225Y84706D01*
X24733Y83945D01*
X25494Y83437D01*
X26391Y83258D01*
X27289Y83437D01*
X28050Y83945D01*
X28558Y84706D01*
X28736Y85603D01*
X28558Y86501D01*
X28501Y86586D01*
X28580Y86706D01*
X28759Y87603D01*
X28580Y88501D01*
X28072Y89261D01*
X27311Y89770D01*
X26414Y89948D01*
D02*
G37*
G36*
X114586Y87756D02*
X113694Y87578D01*
X112937Y87072D01*
X112432Y86316D01*
X112254Y85423D01*
X112432Y84531D01*
X112495Y84436D01*
X112432Y84341D01*
X112254Y83448D01*
X112432Y82556D01*
X112937Y81799D01*
X113694Y81294D01*
X114586Y81116D01*
X115479Y81294D01*
X116236Y81799D01*
X116741Y82556D01*
X116919Y83448D01*
X116741Y84341D01*
X116678Y84436D01*
X116741Y84531D01*
X116919Y85423D01*
X116741Y86316D01*
X116236Y87072D01*
X115479Y87578D01*
X114586Y87756D01*
D02*
G37*
G36*
X106065Y79878D02*
X105601Y79786D01*
X105209Y79524D01*
X104946Y79131D01*
X104854Y78667D01*
X104946Y78204D01*
X105209Y77811D01*
X105601Y77549D01*
X106065Y77457D01*
X106528Y77549D01*
X106921Y77811D01*
X107183Y78204D01*
X107275Y78667D01*
X107183Y79131D01*
X106921Y79524D01*
X106528Y79786D01*
X106065Y79878D01*
D02*
G37*
G36*
X86437Y78134D02*
X85969Y78040D01*
X85572Y77775D01*
X85307Y77378D01*
X85214Y76910D01*
X85307Y76442D01*
X85572Y76045D01*
X85969Y75780D01*
X86437Y75687D01*
X86905Y75780D01*
X87302Y76045D01*
X87567Y76442D01*
X87661Y76910D01*
X87567Y77378D01*
X87302Y77775D01*
X86905Y78040D01*
X86437Y78134D01*
D02*
G37*
G36*
X184800Y78123D02*
X184332Y78030D01*
X183935Y77765D01*
X183670Y77368D01*
X183577Y76900D01*
X183670Y76432D01*
X183935Y76035D01*
X184332Y75770D01*
X184800Y75677D01*
X185268Y75770D01*
X185665Y76035D01*
X185930Y76432D01*
X186023Y76900D01*
X185930Y77368D01*
X185665Y77765D01*
X185268Y78030D01*
X184800Y78123D01*
D02*
G37*
G36*
X193200Y76111D02*
X192737Y76019D01*
X192344Y75756D01*
X192081Y75363D01*
X191989Y74900D01*
X192081Y74437D01*
X192344Y74044D01*
X192737Y73782D01*
X193200Y73689D01*
X193663Y73782D01*
X194056Y74044D01*
X194318Y74437D01*
X194411Y74900D01*
X194318Y75363D01*
X194056Y75756D01*
X193663Y76019D01*
X193200Y76111D01*
D02*
G37*
G36*
X87200Y74724D02*
X86732Y74630D01*
X86335Y74365D01*
X86070Y73968D01*
X85976Y73500D01*
X86070Y73032D01*
X86335Y72635D01*
X86732Y72370D01*
X87200Y72277D01*
X87668Y72370D01*
X88065Y72635D01*
X88330Y73032D01*
X88424Y73500D01*
X88330Y73968D01*
X88065Y74365D01*
X87668Y74630D01*
X87200Y74724D01*
D02*
G37*
G36*
X112502Y74267D02*
X112039Y74175D01*
X111646Y73913D01*
X111383Y73520D01*
X111291Y73056D01*
X111383Y72593D01*
X111646Y72200D01*
X112039Y71938D01*
X112502Y71846D01*
X112965Y71938D01*
X113358Y72200D01*
X113620Y72593D01*
X113713Y73056D01*
X113620Y73520D01*
X113358Y73913D01*
X112965Y74175D01*
X112502Y74267D01*
D02*
G37*
G36*
X98967Y74022D02*
X98499Y73929D01*
X98102Y73663D01*
X97837Y73267D01*
X97744Y72798D01*
X97837Y72330D01*
X98102Y71933D01*
X98499Y71668D01*
X98967Y71575D01*
X99436Y71668D01*
X99832Y71933D01*
X100098Y72330D01*
X100191Y72798D01*
X100098Y73267D01*
X99832Y73663D01*
X99436Y73929D01*
X98967Y74022D01*
D02*
G37*
G36*
X103357Y73837D02*
X102889Y73744D01*
X102492Y73479D01*
X102227Y73082D01*
X102134Y72614D01*
X102227Y72146D01*
X102492Y71749D01*
X102889Y71483D01*
X103357Y71390D01*
X103825Y71483D01*
X104222Y71749D01*
X104488Y72146D01*
X104581Y72614D01*
X104488Y73082D01*
X104222Y73479D01*
X103825Y73744D01*
X103357Y73837D01*
D02*
G37*
G36*
X246500Y77745D02*
X245603Y77567D01*
X244842Y77058D01*
X244334Y76297D01*
X244155Y75400D01*
X244334Y74503D01*
X244402Y74400D01*
X244334Y74297D01*
X244155Y73400D01*
X244334Y72503D01*
X244842Y71742D01*
X245603Y71233D01*
X246500Y71055D01*
X247397Y71233D01*
X248158Y71742D01*
X248667Y72503D01*
X248845Y73400D01*
X248667Y74297D01*
X248598Y74400D01*
X248667Y74503D01*
X248845Y75400D01*
X248667Y76297D01*
X248158Y77058D01*
X247397Y77567D01*
X246500Y77745D01*
D02*
G37*
G36*
X227600Y71824D02*
X227132Y71730D01*
X226735Y71465D01*
X226470Y71068D01*
X226377Y70600D01*
X226470Y70132D01*
X226735Y69735D01*
X227132Y69470D01*
X227600Y69376D01*
X228068Y69470D01*
X228465Y69735D01*
X228730Y70132D01*
X228823Y70600D01*
X228730Y71068D01*
X228465Y71465D01*
X228068Y71730D01*
X227600Y71824D01*
D02*
G37*
G36*
X104687Y69780D02*
X104224Y69688D01*
X103831Y69426D01*
X103569Y69033D01*
X103477Y68570D01*
X103569Y68106D01*
X103831Y67714D01*
X104224Y67451D01*
X104687Y67359D01*
X105151Y67451D01*
X105543Y67714D01*
X105806Y68106D01*
X105898Y68570D01*
X105806Y69033D01*
X105543Y69426D01*
X105151Y69688D01*
X104687Y69780D01*
D02*
G37*
G36*
X85237Y69003D02*
X84769Y68910D01*
X84372Y68645D01*
X84107Y68248D01*
X84014Y67780D01*
X84107Y67312D01*
X84372Y66915D01*
X84769Y66649D01*
X85237Y66556D01*
X85706Y66649D01*
X86103Y66915D01*
X86368Y67312D01*
X86461Y67780D01*
X86368Y68248D01*
X86103Y68645D01*
X85706Y68910D01*
X85237Y69003D01*
D02*
G37*
G36*
X240837Y67509D02*
X240369Y67416D01*
X239972Y67151D01*
X239871Y66999D01*
X233419D01*
X233146Y66945D01*
X232915Y66790D01*
X229843Y63718D01*
X227726D01*
X227625Y63870D01*
X227228Y64135D01*
X226760Y64228D01*
X226291Y64135D01*
X225894Y63870D01*
X225629Y63473D01*
X225536Y63005D01*
X225629Y62536D01*
X225894Y62139D01*
X226291Y61874D01*
X226760Y61781D01*
X227228Y61874D01*
X227625Y62139D01*
X227726Y62291D01*
X230139D01*
X230412Y62345D01*
X230643Y62500D01*
X233715Y65572D01*
X239871D01*
X239972Y65420D01*
X240369Y65155D01*
X240837Y65062D01*
X241306Y65155D01*
X241703Y65420D01*
X241968Y65817D01*
X242061Y66285D01*
X241968Y66754D01*
X241703Y67151D01*
X241306Y67416D01*
X240837Y67509D01*
D02*
G37*
G36*
X196239Y67128D02*
X195771Y67035D01*
X195374Y66769D01*
X195109Y66373D01*
X195016Y65904D01*
X195109Y65436D01*
X195374Y65039D01*
X195771Y64774D01*
X196239Y64681D01*
X196708Y64774D01*
X197105Y65039D01*
X197370Y65436D01*
X197463Y65904D01*
X197370Y66373D01*
X197105Y66769D01*
X196708Y67035D01*
X196239Y67128D01*
D02*
G37*
G36*
X192542Y66525D02*
X192078Y66433D01*
X191686Y66171D01*
X191423Y65778D01*
X191331Y65315D01*
X191423Y64851D01*
X191686Y64458D01*
X192078Y64196D01*
X192542Y64104D01*
X193005Y64196D01*
X193398Y64458D01*
X193660Y64851D01*
X193752Y65315D01*
X193660Y65778D01*
X193398Y66171D01*
X193005Y66433D01*
X192542Y66525D01*
D02*
G37*
G36*
X83397Y66505D02*
X82928Y66412D01*
X82531Y66147D01*
X82266Y65750D01*
X82173Y65282D01*
X82266Y64814D01*
X82531Y64417D01*
X82928Y64152D01*
X83397Y64059D01*
X83865Y64152D01*
X84262Y64417D01*
X84527Y64814D01*
X84620Y65282D01*
X84527Y65750D01*
X84262Y66147D01*
X83865Y66412D01*
X83397Y66505D01*
D02*
G37*
G36*
X123500Y64824D02*
X123032Y64730D01*
X122635Y64465D01*
X122370Y64068D01*
X122276Y63600D01*
X122370Y63132D01*
X122635Y62735D01*
X123032Y62470D01*
X123500Y62376D01*
X123968Y62470D01*
X124365Y62735D01*
X124630Y63132D01*
X124723Y63600D01*
X124630Y64068D01*
X124365Y64465D01*
X123968Y64730D01*
X123500Y64824D01*
D02*
G37*
G36*
X53150Y62234D02*
X52686Y62142D01*
X52294Y61880D01*
X52037D01*
X51644Y62142D01*
X51181Y62234D01*
X50718Y62142D01*
X50325Y61880D01*
X50069D01*
X49676Y62142D01*
X49213Y62234D01*
X48749Y62142D01*
X48357Y61880D01*
X48100D01*
X47707Y62142D01*
X47244Y62234D01*
X46781Y62142D01*
X46388Y61880D01*
X46126Y61487D01*
X46033Y61024D01*
X46126Y60560D01*
X46388Y60168D01*
X46781Y59905D01*
X47244Y59813D01*
X47707Y59905D01*
X48100Y60168D01*
X48357D01*
X48749Y59905D01*
X49213Y59813D01*
X49676Y59905D01*
X50069Y60168D01*
X50325D01*
X50718Y59905D01*
X51181Y59813D01*
X51644Y59905D01*
X52037Y60168D01*
X52294D01*
X52686Y59905D01*
X53150Y59813D01*
X53613Y59905D01*
X54006Y60168D01*
X54268Y60560D01*
X54360Y61024D01*
X54268Y61487D01*
X54006Y61880D01*
X53613Y62142D01*
X53150Y62234D01*
D02*
G37*
G36*
X241976Y63636D02*
X241508Y63542D01*
X241111Y63277D01*
X240846Y62880D01*
X240753Y62412D01*
X240846Y61944D01*
X241111Y61547D01*
X241508Y61282D01*
X241976Y61189D01*
X242445Y61282D01*
X242842Y61547D01*
X243107Y61944D01*
X243200Y62412D01*
X243107Y62880D01*
X242842Y63277D01*
X242445Y63542D01*
X241976Y63636D01*
D02*
G37*
G36*
X113300Y60811D02*
X112837Y60719D01*
X112444Y60456D01*
X112181Y60063D01*
X112089Y59600D01*
X112181Y59137D01*
X112444Y58744D01*
X112837Y58482D01*
X113300Y58389D01*
X113763Y58482D01*
X114156Y58744D01*
X114418Y59137D01*
X114511Y59600D01*
X114418Y60063D01*
X114156Y60456D01*
X113763Y60719D01*
X113300Y60811D01*
D02*
G37*
G36*
X241454Y59422D02*
X240985Y59329D01*
X240588Y59064D01*
X240323Y58667D01*
X240230Y58198D01*
X240323Y57730D01*
X240588Y57333D01*
X240985Y57068D01*
X241454Y56975D01*
X241922Y57068D01*
X242319Y57333D01*
X242584Y57730D01*
X242677Y58198D01*
X242584Y58667D01*
X242319Y59064D01*
X241922Y59329D01*
X241454Y59422D01*
D02*
G37*
G36*
X185731Y58921D02*
X185262Y58827D01*
X184865Y58562D01*
X184600Y58165D01*
X184507Y57697D01*
X184600Y57229D01*
X184865Y56832D01*
X185262Y56567D01*
X185731Y56473D01*
X186199Y56567D01*
X186596Y56832D01*
X186861Y57229D01*
X186954Y57697D01*
X186861Y58165D01*
X186596Y58562D01*
X186199Y58827D01*
X185731Y58921D01*
D02*
G37*
G36*
X192135Y63026D02*
X191672Y62934D01*
X191279Y62671D01*
X191016Y62278D01*
X190924Y61815D01*
X191016Y61352D01*
X191279Y60959D01*
X191529Y60792D01*
X191590Y60332D01*
X191563Y60214D01*
X191483Y60160D01*
X191221Y59768D01*
X191129Y59304D01*
X191221Y58841D01*
X191483Y58448D01*
X191876Y58186D01*
X191721Y57767D01*
X191629Y57304D01*
X191721Y56841D01*
X191983Y56448D01*
X192376Y56186D01*
X192840Y56094D01*
X193303Y56186D01*
X193696Y56448D01*
X193958Y56841D01*
X194050Y57304D01*
X193958Y57768D01*
X193696Y58160D01*
X193303Y58423D01*
X193458Y58841D01*
X193550Y59304D01*
X193458Y59768D01*
X193196Y60160D01*
X192946Y60327D01*
X192885Y60787D01*
X192911Y60906D01*
X192991Y60959D01*
X193254Y61352D01*
X193346Y61815D01*
X193254Y62278D01*
X192991Y62671D01*
X192598Y62934D01*
X192135Y63026D01*
D02*
G37*
G36*
X136403Y56401D02*
X135935Y56308D01*
X135538Y56043D01*
X135273Y55646D01*
X135179Y55178D01*
X135273Y54710D01*
X135538Y54313D01*
X135935Y54048D01*
X136403Y53954D01*
X136871Y54048D01*
X137268Y54313D01*
X137533Y54710D01*
X137627Y55178D01*
X137533Y55646D01*
X137268Y56043D01*
X136871Y56308D01*
X136403Y56401D01*
D02*
G37*
G36*
X151400Y55423D02*
X150932Y55330D01*
X150535Y55065D01*
X150270Y54668D01*
X150177Y54200D01*
X150270Y53732D01*
X150535Y53335D01*
X150932Y53070D01*
X151400Y52977D01*
X151868Y53070D01*
X152265Y53335D01*
X152530Y53732D01*
X152623Y54200D01*
X152530Y54668D01*
X152265Y55065D01*
X151868Y55330D01*
X151400Y55423D01*
D02*
G37*
G36*
X219291Y91591D02*
X215354D01*
X215331Y91581D01*
X214068Y91415D01*
X212869Y90918D01*
X211840Y90128D01*
X211050Y89099D01*
X210554Y87901D01*
X210387Y86638D01*
X210378Y86614D01*
Y55118D01*
X210387Y55094D01*
X210554Y53832D01*
X211050Y52633D01*
X211840Y51604D01*
X212869Y50814D01*
X214068Y50317D01*
X215331Y50151D01*
X215354Y50141D01*
X219291D01*
X219315Y50151D01*
X220578Y50317D01*
X221776Y50814D01*
X222231Y51162D01*
X222601Y50816D01*
X222254Y50297D01*
X222076Y49400D01*
X222254Y48503D01*
X222323Y48400D01*
X222254Y48297D01*
X222076Y47400D01*
X222254Y46503D01*
X222762Y45742D01*
X223523Y45234D01*
X224421Y45055D01*
X225318Y45234D01*
X226079Y45742D01*
X226587Y46503D01*
X226766Y47400D01*
X226587Y48297D01*
X226519Y48400D01*
X226587Y48503D01*
X226766Y49400D01*
X226704Y49708D01*
X227485Y49864D01*
X227588Y49932D01*
X227690Y49864D01*
X228588Y49685D01*
X229485Y49864D01*
X230246Y50372D01*
X230754Y51133D01*
X230862Y51676D01*
X231082Y51735D01*
X231383Y51729D01*
X231842Y51042D01*
X232603Y50533D01*
X233500Y50355D01*
X234397Y50533D01*
X234500Y50602D01*
X234603Y50533D01*
X235500Y50355D01*
X236397Y50533D01*
X237158Y51042D01*
X237667Y51803D01*
X237845Y52700D01*
X237667Y53597D01*
X237158Y54358D01*
X236397Y54867D01*
X235500Y55045D01*
X234603Y54867D01*
X234500Y54798D01*
X234397Y54867D01*
X233500Y55045D01*
X232603Y54867D01*
X231842Y54358D01*
X231333Y53597D01*
X231225Y53054D01*
X231006Y52995D01*
X230705Y53001D01*
X230246Y53689D01*
X229485Y54197D01*
X228588Y54375D01*
X227690Y54197D01*
X227588Y54128D01*
X227485Y54197D01*
X226588Y54375D01*
X225690Y54197D01*
X224930Y53689D01*
X224421Y52928D01*
X224243Y52030D01*
X224304Y51722D01*
X223523Y51567D01*
X223286Y51408D01*
X222939Y51778D01*
X223596Y52633D01*
X224092Y53832D01*
X224258Y55094D01*
X224268Y55118D01*
Y70866D01*
Y86614D01*
X224258Y86638D01*
X224092Y87901D01*
X223596Y89099D01*
X222806Y90128D01*
X221776Y90918D01*
X220578Y91415D01*
X219315Y91581D01*
X219291Y91591D01*
D02*
G37*
G36*
X145100Y48024D02*
X144632Y47930D01*
X144235Y47665D01*
X143692D01*
X143295Y47930D01*
X142827Y48024D01*
X142359Y47930D01*
X141962Y47665D01*
X141786Y47402D01*
X141699Y47377D01*
X141318D01*
X141231Y47402D01*
X141055Y47665D01*
X140658Y47930D01*
X140190Y48024D01*
X139721Y47930D01*
X139324Y47665D01*
X139059Y47268D01*
X138966Y46800D01*
X139059Y46332D01*
X139324Y45935D01*
X139721Y45670D01*
X140190Y45577D01*
X140658Y45670D01*
X141055Y45935D01*
X141231Y46198D01*
X141318Y46223D01*
X141699D01*
X141786Y46198D01*
X141962Y45935D01*
X142359Y45670D01*
X142827Y45577D01*
X143295Y45670D01*
X143692Y45935D01*
X144235D01*
X144632Y45670D01*
X145100Y45577D01*
X145568Y45670D01*
X145965Y45935D01*
X146230Y46332D01*
X146324Y46800D01*
X146230Y47268D01*
X145965Y47665D01*
X145568Y47930D01*
X145100Y48024D01*
D02*
G37*
G36*
X186221Y51951D02*
X185323Y51773D01*
X184562Y51265D01*
X184054Y50504D01*
X183875Y49606D01*
X184054Y48709D01*
X184123Y48606D01*
X184054Y48504D01*
X183875Y47606D01*
X184054Y46709D01*
X184562Y45948D01*
X185323Y45440D01*
X186221Y45261D01*
X187118Y45440D01*
X187879Y45948D01*
X188387Y46709D01*
X188566Y47606D01*
X188387Y48504D01*
X188319Y48606D01*
X188387Y48709D01*
X188566Y49606D01*
X188387Y50504D01*
X187879Y51265D01*
X187118Y51773D01*
X186221Y51951D01*
D02*
G37*
G36*
X205500Y51745D02*
X204603Y51567D01*
X203842Y51058D01*
X203333Y50297D01*
X203155Y49400D01*
X203333Y48503D01*
X203402Y48400D01*
X203333Y48297D01*
X203155Y47400D01*
X203333Y46503D01*
X203842Y45742D01*
X204603Y45234D01*
X205500Y45055D01*
X206397Y45234D01*
X207158Y45742D01*
X207667Y46503D01*
X207845Y47400D01*
X207667Y48297D01*
X207598Y48400D01*
X207667Y48503D01*
X207845Y49400D01*
X207667Y50297D01*
X207158Y51058D01*
X206397Y51567D01*
X205500Y51745D01*
D02*
G37*
G36*
X82941Y46025D02*
X82478Y45933D01*
X82085Y45670D01*
X81823Y45278D01*
X81731Y44814D01*
X81823Y44351D01*
X82085Y43958D01*
X82478Y43696D01*
X82941Y43604D01*
X83405Y43696D01*
X83797Y43958D01*
X84060Y44351D01*
X84152Y44814D01*
X84060Y45278D01*
X83797Y45670D01*
X83405Y45933D01*
X82941Y46025D01*
D02*
G37*
G36*
X89621Y45932D02*
X89158Y45840D01*
X88765Y45577D01*
X88503Y45185D01*
X88411Y44721D01*
X88503Y44258D01*
X88765Y43865D01*
X89158Y43603D01*
X89621Y43511D01*
X90085Y43603D01*
X90478Y43865D01*
X90740Y44258D01*
X90832Y44721D01*
X90740Y45185D01*
X90478Y45577D01*
X90085Y45840D01*
X89621Y45932D01*
D02*
G37*
G36*
X172500Y47439D02*
X171603Y47261D01*
X170842Y46753D01*
X170334Y45992D01*
X170155Y45094D01*
X170334Y44197D01*
X170402Y44094D01*
X170334Y43992D01*
X170155Y43094D01*
X170334Y42197D01*
X170842Y41436D01*
X171603Y40928D01*
X172500Y40749D01*
X173397Y40928D01*
X174158Y41436D01*
X174667Y42197D01*
X174845Y43094D01*
X174667Y43992D01*
X174598Y44094D01*
X174667Y44197D01*
X174845Y45094D01*
X174667Y45992D01*
X174158Y46753D01*
X173397Y47261D01*
X172500Y47439D01*
D02*
G37*
G36*
X56074Y43124D02*
X55606Y43031D01*
X55209Y42766D01*
X54944Y42369D01*
X54851Y41901D01*
X54944Y41433D01*
X55209Y41036D01*
X55606Y40771D01*
X56074Y40677D01*
X56542Y40771D01*
X56939Y41036D01*
X57205Y41433D01*
X57298Y41901D01*
X57205Y42369D01*
X56939Y42766D01*
X56542Y43031D01*
X56074Y43124D01*
D02*
G37*
G36*
X33268Y46428D02*
X32460Y46322D01*
X31707Y46010D01*
X31061Y45514D01*
X30565Y44868D01*
X30253Y44115D01*
X30147Y43307D01*
X30253Y42499D01*
X30565Y41747D01*
X31061Y41100D01*
X31707Y40604D01*
X32460Y40292D01*
X33268Y40186D01*
X34075Y40292D01*
X34828Y40604D01*
X35475Y41100D01*
X35971Y41747D01*
X36283Y42499D01*
X36389Y43307D01*
X36283Y44115D01*
X35971Y44868D01*
X35475Y45514D01*
X34828Y46010D01*
X34075Y46322D01*
X33268Y46428D01*
D02*
G37*
G36*
X227740Y44049D02*
X226842Y43871D01*
X226081Y43363D01*
X225573Y42602D01*
X225394Y41704D01*
X225573Y40807D01*
X226081Y40046D01*
X226842Y39538D01*
X227740Y39359D01*
X228637Y39538D01*
X228722Y39595D01*
X228842Y39515D01*
X229739Y39336D01*
X230637Y39515D01*
X231132Y39845D01*
X231742Y39438D01*
X232640Y39259D01*
X233537Y39438D01*
X233640Y39506D01*
X233742Y39438D01*
X234640Y39259D01*
X235537Y39438D01*
X236298Y39946D01*
X236806Y40707D01*
X236984Y41604D01*
X236806Y42502D01*
X236298Y43262D01*
X235537Y43771D01*
X234640Y43949D01*
X233742Y43771D01*
X233640Y43702D01*
X233537Y43771D01*
X232640Y43949D01*
X231742Y43771D01*
X231247Y43440D01*
X230637Y43848D01*
X229739Y44026D01*
X228842Y43848D01*
X228757Y43791D01*
X228637Y43871D01*
X227740Y44049D01*
D02*
G37*
G36*
X52100Y40677D02*
X51632Y40584D01*
X51235Y40319D01*
X50970Y39922D01*
X50876Y39454D01*
X50970Y38986D01*
X51235Y38589D01*
X51632Y38323D01*
X52100Y38230D01*
X52568Y38323D01*
X52965Y38589D01*
X53230Y38986D01*
X53324Y39454D01*
X53230Y39922D01*
X52965Y40319D01*
X52568Y40584D01*
X52100Y40677D01*
D02*
G37*
G36*
X153900Y45724D02*
X153432Y45630D01*
X153035Y45365D01*
X152770Y44968D01*
X152676Y44500D01*
X152770Y44032D01*
X152867Y43886D01*
X152994Y43516D01*
X152867Y43146D01*
X152770Y43000D01*
X152676Y42531D01*
X152770Y42063D01*
X152867Y41917D01*
X152994Y41547D01*
X152867Y41177D01*
X152770Y41031D01*
X152676Y40563D01*
X152770Y40095D01*
X152867Y39949D01*
X152994Y39579D01*
X152867Y39209D01*
X152770Y39063D01*
X152676Y38594D01*
X152770Y38126D01*
X153035Y37729D01*
X153432Y37464D01*
X153900Y37371D01*
X154368Y37464D01*
X154765Y37729D01*
X155030Y38126D01*
X155123Y38594D01*
X155030Y39063D01*
X154933Y39209D01*
X154806Y39579D01*
X154933Y39949D01*
X155030Y40095D01*
X155123Y40563D01*
X155030Y41031D01*
X154933Y41177D01*
X154806Y41547D01*
X154933Y41917D01*
X155030Y42063D01*
X155123Y42531D01*
X155030Y43000D01*
X154933Y43146D01*
X154806Y43516D01*
X154933Y43886D01*
X155030Y44032D01*
X155123Y44500D01*
X155030Y44968D01*
X154765Y45365D01*
X154368Y45630D01*
X153900Y45724D01*
D02*
G37*
G36*
X186023Y42715D02*
X185126Y42537D01*
X184365Y42028D01*
X183857Y41267D01*
X183678Y40370D01*
X183857Y39472D01*
X183925Y39370D01*
X183857Y39267D01*
X183678Y38370D01*
X183857Y37473D01*
X184365Y36712D01*
X185126Y36203D01*
X186023Y36025D01*
X186921Y36203D01*
X187682Y36712D01*
X188190Y37473D01*
X188369Y38370D01*
X188190Y39267D01*
X188121Y39370D01*
X188190Y39472D01*
X188369Y40370D01*
X188190Y41267D01*
X187682Y42028D01*
X186921Y42537D01*
X186023Y42715D01*
D02*
G37*
G36*
X207839Y42349D02*
X206942Y42171D01*
X206181Y41662D01*
X205673Y40902D01*
X205494Y40004D01*
X205673Y39107D01*
X205742Y39004D01*
X205673Y38902D01*
X205494Y38004D01*
X205673Y37107D01*
X206181Y36346D01*
X206942Y35838D01*
X207839Y35659D01*
X208737Y35838D01*
X209498Y36346D01*
X210006Y37107D01*
X210185Y38004D01*
X210006Y38902D01*
X209938Y39004D01*
X210006Y39107D01*
X210185Y40004D01*
X210006Y40902D01*
X209498Y41662D01*
X208737Y42171D01*
X207839Y42349D01*
D02*
G37*
G36*
X182699Y35087D02*
X182236Y34995D01*
X181843Y34732D01*
X181580Y34340D01*
X181488Y33876D01*
X181580Y33413D01*
X181843Y33020D01*
X182236Y32758D01*
X182699Y32666D01*
X183162Y32758D01*
X183555Y33020D01*
X183817Y33413D01*
X183909Y33876D01*
X183817Y34340D01*
X183555Y34732D01*
X183162Y34995D01*
X182699Y35087D01*
D02*
G37*
G36*
X182746Y28664D02*
X182283Y28572D01*
X181890Y28309D01*
X181628Y27917D01*
X181535Y27453D01*
X181628Y26990D01*
X181890Y26597D01*
X182283Y26335D01*
X182746Y26243D01*
X183209Y26335D01*
X183602Y26597D01*
X183865Y26990D01*
X183957Y27453D01*
X183865Y27917D01*
X183602Y28309D01*
X183209Y28572D01*
X182746Y28664D01*
D02*
G37*
G36*
X43307Y20121D02*
X42839Y20028D01*
X42442Y19763D01*
X42177Y19366D01*
X42084Y18898D01*
X42177Y18429D01*
X42442Y18033D01*
X42839Y17767D01*
X43307Y17674D01*
X43775Y17767D01*
X44172Y18033D01*
X44438Y18429D01*
X44531Y18898D01*
X44438Y19366D01*
X44172Y19763D01*
X43775Y20028D01*
X43307Y20121D01*
D02*
G37*
G36*
X31496D02*
X31028Y20028D01*
X30631Y19763D01*
X30366Y19366D01*
X30273Y18898D01*
X30366Y18429D01*
X30631Y18033D01*
X31028Y17767D01*
X31496Y17674D01*
X31964Y17767D01*
X32361Y18033D01*
X32626Y18429D01*
X32720Y18898D01*
X32626Y19366D01*
X32361Y19763D01*
X31964Y20028D01*
X31496Y20121D01*
D02*
G37*
G36*
X121200Y19924D02*
X120732Y19830D01*
X120335Y19565D01*
X120070Y19168D01*
X119976Y18700D01*
X120070Y18232D01*
X120335Y17835D01*
X120732Y17570D01*
X121200Y17477D01*
X121668Y17570D01*
X122065Y17835D01*
X122330Y18232D01*
X122424Y18700D01*
X122330Y19168D01*
X122065Y19565D01*
X121668Y19830D01*
X121200Y19924D01*
D02*
G37*
G36*
X39567Y10082D02*
X39099Y9989D01*
X38702Y9723D01*
X38436Y9326D01*
X38343Y8858D01*
X38436Y8390D01*
X38702Y7993D01*
X39099Y7728D01*
X39567Y7635D01*
X40035Y7728D01*
X40432Y7993D01*
X40697Y8390D01*
X40790Y8858D01*
X40697Y9326D01*
X40432Y9723D01*
X40035Y9989D01*
X39567Y10082D01*
D02*
G37*
G36*
X27756D02*
X27288Y9989D01*
X26891Y9723D01*
X26625Y9326D01*
X26532Y8858D01*
X26625Y8390D01*
X26891Y7993D01*
X27288Y7728D01*
X27756Y7635D01*
X28224Y7728D01*
X28621Y7993D01*
X28886Y8390D01*
X28979Y8858D01*
X28886Y9326D01*
X28621Y9723D01*
X28224Y9989D01*
X27756Y10082D01*
D02*
G37*
%LPD*%
D11*
X237600Y53700D02*
X237755Y53856D01*
X231102Y53092D02*
Y55216D01*
X231006Y52995D02*
X231102Y53092D01*
X238796Y53856D02*
X238976Y54035D01*
X237755Y53856D02*
X238796D01*
X231222Y43027D02*
Y44485D01*
D61*
X30499Y94277D02*
X30617Y94394D01*
X30499Y93240D02*
Y94277D01*
X30369Y93110D02*
X30499Y93240D01*
D62*
X235994Y46330D02*
X236339Y45984D01*
Y43004D02*
Y45984D01*
X234524Y46330D02*
X235994D01*
X231222Y43027D02*
X234524Y46330D01*
X231262Y50625D02*
Y52145D01*
X231199Y52208D02*
X231262Y52145D01*
X231199Y52208D02*
Y52802D01*
X231006Y52995D02*
X231199Y52802D01*
X224695Y42910D02*
X225496D01*
X225689Y42717D01*
X221392Y46213D02*
X224695Y42910D01*
X221392Y46213D02*
Y49832D01*
X222967Y51408D01*
X223446D01*
X223561Y51522D01*
X224104D01*
X224297Y51715D01*
D65*
X230139Y63005D02*
X233419Y66285D01*
X240837D01*
X226760Y63005D02*
X230139D01*
D72*
X163779Y118553D02*
D03*
X68504D02*
D03*
Y23278D02*
D03*
X163779D02*
D03*
D74*
X27377Y77480D02*
D03*
Y111496D02*
D03*
D75*
X6275Y77480D02*
D03*
Y111496D02*
D03*
D77*
X33268Y51181D02*
D03*
D78*
X163779Y126723D02*
D03*
Y110384D02*
D03*
X155610Y118553D02*
D03*
X171949D02*
D03*
X68504Y126723D02*
D03*
Y110384D02*
D03*
X60335Y118553D02*
D03*
X76673D02*
D03*
Y23278D02*
D03*
X60335D02*
D03*
X68504Y15108D02*
D03*
Y31447D02*
D03*
X171949Y23278D02*
D03*
X155610D02*
D03*
X163779Y15108D02*
D03*
Y31447D02*
D03*
D79*
X229429Y32185D02*
D03*
X214764Y31496D02*
D03*
X81102Y80020D02*
D03*
X36909Y66634D02*
D03*
X76378Y53839D02*
D03*
X157972Y82480D02*
D03*
X137303Y70866D02*
D03*
X127067Y46358D02*
D03*
X150800Y49100D02*
D03*
X174803Y53937D02*
D03*
X184350Y66732D02*
D03*
X177657Y73819D02*
D03*
X172835Y68701D02*
D03*
X177953Y61417D02*
D03*
X182185Y57776D02*
D03*
X194095Y81496D02*
D03*
X194193Y88090D02*
D03*
X181201Y82972D02*
D03*
X175000Y87500D02*
D03*
X174508Y80020D02*
D03*
X234252Y111713D02*
D03*
X229528Y134350D02*
D03*
X220669Y122441D02*
D03*
X192618Y123524D02*
D03*
X176969Y136713D02*
D03*
X128937Y19980D02*
D03*
X146260Y36220D02*
D03*
X176181Y36811D02*
D03*
X207776Y22441D02*
D03*
X228346Y10531D02*
D03*
X251772Y40650D02*
D03*
X238878Y25197D02*
D03*
X58957Y4331D02*
D03*
X47736Y33760D02*
D03*
X23031Y22638D02*
D03*
X7480Y64272D02*
D03*
X150492Y92421D02*
D03*
X143996Y117028D02*
D03*
X148228Y132874D02*
D03*
X121358Y120571D02*
D03*
X102756Y133957D02*
D03*
X92126Y121850D02*
D03*
X111122Y107874D02*
D03*
X84547Y108071D02*
D03*
X53839Y133563D02*
D03*
X35925Y123130D02*
D03*
X192520Y41732D02*
D03*
X184365Y36712D02*
D03*
X174291Y41635D02*
D03*
Y46554D02*
D03*
X183602D02*
D03*
X185323Y51773D02*
D03*
X186300Y65300D02*
D03*
X193077Y47325D02*
D03*
X121987Y92791D02*
D03*
X128700Y101400D02*
D03*
X105360Y18195D02*
D03*
X112563Y19465D02*
D03*
X102728Y63640D02*
D03*
X112240Y81904D02*
D03*
X112339Y87704D02*
D03*
X116040D02*
D03*
X35998Y82587D02*
D03*
X135028Y104337D02*
D03*
X131776Y107928D02*
D03*
X128706Y70499D02*
D03*
X108545Y38155D02*
D03*
Y41367D02*
D03*
X101023Y15943D02*
D03*
X116779Y20154D02*
D03*
X93220Y90562D02*
D03*
X91162Y90654D02*
D03*
X93142Y93585D02*
D03*
X91162Y93643D02*
D03*
X93083Y97098D02*
D03*
X91162Y97156D02*
D03*
X93148Y100106D02*
D03*
X91162Y100103D02*
D03*
X82321Y26242D02*
D03*
X89516Y26166D02*
D03*
X99213Y25959D02*
D03*
X100254Y39108D02*
D03*
X106970Y50620D02*
D03*
X94087Y51357D02*
D03*
X185343Y86161D02*
D03*
X192051Y94767D02*
D03*
X192164Y99541D02*
D03*
X192089Y104238D02*
D03*
X197775Y104180D02*
D03*
X197992Y108938D02*
D03*
X182857Y3438D02*
D03*
X162336Y3304D02*
D03*
X138200Y13800D02*
D03*
X123997Y3574D02*
D03*
X111600Y12100D02*
D03*
X85700Y12300D02*
D03*
X78500Y4200D02*
D03*
X136422Y92819D02*
D03*
X193077Y36056D02*
D03*
X192447Y54049D02*
D03*
X100867Y94154D02*
D03*
X112425Y95775D02*
D03*
X93729Y34571D02*
D03*
X92857Y31688D02*
D03*
X88893Y31808D02*
D03*
X85005Y31804D02*
D03*
X81132Y31868D02*
D03*
X79989Y34852D02*
D03*
D80*
X39665Y101181D02*
D03*
X244404Y49114D02*
D03*
X237600Y53700D02*
D03*
X205914Y37008D02*
D03*
X225689Y42717D02*
D03*
X231006Y52995D02*
D03*
X224297Y51715D02*
D03*
X94095Y81496D02*
D03*
X86437Y55936D02*
D03*
X94587Y76717D02*
D03*
X204400Y103800D02*
D03*
X191100Y76600D02*
D03*
X186178Y74801D02*
D03*
X197783Y57522D02*
D03*
X203800Y67400D02*
D03*
X203600Y76400D02*
D03*
X131100Y77400D02*
D03*
X119300Y35100D02*
D03*
X113000Y31300D02*
D03*
X123100Y51800D02*
D03*
X233500Y81094D02*
D03*
X247100Y91505D02*
D03*
X246000Y71400D02*
D03*
X245165Y77165D02*
D03*
X241021Y64285D02*
D03*
X233100Y98500D02*
D03*
X241800Y68200D02*
D03*
X227600Y72600D02*
D03*
X226760Y63005D02*
D03*
X225339Y59883D02*
D03*
X241354Y60399D02*
D03*
X240837Y66285D02*
D03*
X203520Y31925D02*
D03*
X206255Y41800D02*
D03*
X203500Y46500D02*
D03*
X204020Y55809D02*
D03*
X203894Y51200D02*
D03*
X18110Y36614D02*
D03*
X39016Y14213D02*
D03*
X27205D02*
D03*
X30617Y94394D02*
D03*
X26629Y82484D02*
D03*
X22495Y110018D02*
D03*
X32954Y110232D02*
D03*
X50746Y85815D02*
D03*
X46314Y78749D02*
D03*
X120185Y63074D02*
D03*
X201008Y29171D02*
D03*
X203800Y65500D02*
D03*
X198500Y74800D02*
D03*
X197891Y94808D02*
D03*
X197850Y99559D02*
D03*
X197536Y48853D02*
D03*
X197247Y38367D02*
D03*
X231222Y43027D02*
D03*
X236339Y43004D02*
D03*
X54739Y71767D02*
D03*
X64400Y76910D02*
D03*
X116629Y73428D02*
D03*
D81*
X244094Y11811D02*
D03*
X11811D02*
D03*
Y129921D02*
D03*
X244094D02*
D03*
M02*
