G04*
G04 #@! TF.GenerationSoftware,Altium Limited,Altium Designer,21.2.2 (38)*
G04*
G04 Layer_Physical_Order=3*
G04 Layer_Color=16440176*
%FSLAX44Y44*%
%MOMM*%
G71*
G04*
G04 #@! TF.SameCoordinates,2A6C1C92-B5F8-495A-87A3-FCD029FF8D19*
G04*
G04*
G04 #@! TF.FilePolarity,Positive*
G04*
G01*
G75*
%ADD63C,0.1500*%
%ADD72C,5.3000*%
%ADD74O,1.9000X1.1000*%
%ADD75O,2.4000X1.1000*%
%ADD77R,1.3680X1.3680*%
%ADD78C,0.4000*%
%ADD79C,0.6096*%
%ADD80C,0.4064*%
%ADD81C,3.0000*%
G36*
X30000Y355079D02*
X624600D01*
X624823Y355124D01*
X628608Y354751D01*
X632463Y353582D01*
X636015Y351683D01*
X639128Y349128D01*
X641683Y346015D01*
X643582Y342463D01*
X644751Y338608D01*
X645124Y334824D01*
X645079Y334600D01*
X645079Y30000D01*
X645139Y29702D01*
X644685Y25090D01*
X643252Y20368D01*
X640927Y16017D01*
X637797Y12203D01*
X633983Y9073D01*
X629632Y6748D01*
X624910Y5315D01*
X620298Y4861D01*
X620000Y4920D01*
X30000D01*
X29702Y4861D01*
X25090Y5315D01*
X20368Y6748D01*
X16017Y9073D01*
X12203Y12203D01*
X9073Y16017D01*
X6748Y20368D01*
X5315Y25090D01*
X4956Y28744D01*
X4921Y30000D01*
X4920Y31263D01*
X4920Y330000D01*
X4861Y330298D01*
X5315Y334910D01*
X6748Y339632D01*
X9073Y343983D01*
X12203Y347797D01*
X16017Y350927D01*
X20368Y353252D01*
X25090Y354685D01*
X29702Y355139D01*
X30000Y355079D01*
D02*
G37*
%LPC*%
G36*
X526879Y334072D02*
X525702Y333838D01*
X524704Y333172D01*
X524038Y332174D01*
X523804Y330997D01*
X524038Y329821D01*
X524704Y328823D01*
X525702Y328156D01*
X526879Y327922D01*
X528055Y328156D01*
X529053Y328823D01*
X529720Y329821D01*
X529954Y330997D01*
X529720Y332174D01*
X529053Y333172D01*
X528055Y333838D01*
X526879Y334072D01*
D02*
G37*
G36*
X501030Y333176D02*
X499854Y332942D01*
X498856Y332275D01*
X498189Y331277D01*
X497955Y330101D01*
X498189Y328924D01*
X498856Y327926D01*
X499854Y327259D01*
X501030Y327025D01*
X502207Y327259D01*
X503205Y327926D01*
X503871Y328924D01*
X504105Y330101D01*
X503871Y331277D01*
X503205Y332275D01*
X502207Y332942D01*
X501030Y333176D01*
D02*
G37*
G36*
X454994Y294526D02*
X453804Y294289D01*
X452796Y293616D01*
X452122Y292607D01*
X451886Y291418D01*
X452122Y290229D01*
X452796Y289221D01*
X453804Y288547D01*
X454994Y288310D01*
X456183Y288547D01*
X457191Y289221D01*
X457865Y290229D01*
X458101Y291418D01*
X457865Y292607D01*
X457191Y293616D01*
X456183Y294289D01*
X454994Y294526D01*
D02*
G37*
G36*
X465582Y287588D02*
X464393Y287351D01*
X463385Y286677D01*
X462711Y285669D01*
X462474Y284480D01*
X462711Y283291D01*
X462849Y283084D01*
X462490Y282494D01*
X462009Y282055D01*
X461010Y282254D01*
X459821Y282017D01*
X458812Y281343D01*
X458139Y280335D01*
X457902Y279146D01*
X457923Y279040D01*
X457872Y278939D01*
X456823Y278063D01*
X456184Y278190D01*
X454995Y277953D01*
X453987Y277279D01*
X453313Y276271D01*
X453076Y275082D01*
X453313Y273893D01*
X453987Y272885D01*
X454995Y272211D01*
X456184Y271974D01*
X457373Y272211D01*
X458382Y272885D01*
X459055Y273893D01*
X459292Y275082D01*
X459271Y275188D01*
X459322Y275289D01*
X460371Y276165D01*
X461010Y276038D01*
X462199Y276275D01*
X463208Y276949D01*
X463881Y277957D01*
X464118Y279146D01*
X463881Y280335D01*
X463743Y280542D01*
X464102Y281132D01*
X464583Y281571D01*
X465582Y281372D01*
X466771Y281609D01*
X467780Y282283D01*
X468453Y283291D01*
X468690Y284480D01*
X468453Y285669D01*
X467780Y286677D01*
X466771Y287351D01*
X465582Y287588D01*
D02*
G37*
G36*
X415567Y268694D02*
X414378Y268458D01*
X413369Y267784D01*
X412696Y266776D01*
X412459Y265587D01*
X412696Y264398D01*
X413369Y263389D01*
X414378Y262716D01*
X415567Y262479D01*
X416756Y262716D01*
X417764Y263389D01*
X418438Y264398D01*
X418674Y265587D01*
X418438Y266776D01*
X417764Y267784D01*
X416756Y268458D01*
X415567Y268694D01*
D02*
G37*
G36*
X298753Y262614D02*
X297576Y262379D01*
X296579Y261713D01*
X295912Y260715D01*
X295678Y259538D01*
X295912Y258362D01*
X296579Y257364D01*
X297576Y256698D01*
X298753Y256463D01*
X299930Y256698D01*
X300927Y257364D01*
X301594Y258362D01*
X301828Y259538D01*
X301594Y260715D01*
X300927Y261713D01*
X299930Y262379D01*
X298753Y262614D01*
D02*
G37*
G36*
X88577Y261237D02*
X86298Y260784D01*
X84365Y259493D01*
X83074Y257560D01*
X82856Y256462D01*
X82204Y255395D01*
X81015Y255631D01*
X79826Y255395D01*
X78818Y254721D01*
X78144Y253713D01*
X77907Y252523D01*
X78144Y251334D01*
X78152Y251323D01*
X77516Y249988D01*
X75845Y248871D01*
X74553Y246938D01*
X74100Y244659D01*
X74553Y242379D01*
X75845Y240447D01*
X77777Y239156D01*
X80056Y238702D01*
X82336Y239156D01*
X84268Y240447D01*
X85560Y242379D01*
X86013Y244659D01*
X85560Y246938D01*
X84268Y248871D01*
X84196Y248919D01*
X84181Y250348D01*
X84841Y250749D01*
X84887Y250720D01*
X86298Y249778D01*
X86321Y249773D01*
X86500Y248878D01*
X87791Y246946D01*
X89723Y245655D01*
X92002Y245201D01*
X94282Y245655D01*
X96214Y246946D01*
X97506Y248878D01*
X97959Y251158D01*
X97506Y253437D01*
X96214Y255369D01*
X94282Y256661D01*
X94258Y256665D01*
X94080Y257560D01*
X92789Y259493D01*
X90857Y260784D01*
X88577Y261237D01*
D02*
G37*
G36*
X467223Y259724D02*
X466047Y259490D01*
X465049Y258823D01*
X464382Y257825D01*
X464148Y256649D01*
X464382Y255472D01*
X465049Y254474D01*
X466047Y253808D01*
X467223Y253573D01*
X468400Y253808D01*
X469398Y254474D01*
X470064Y255472D01*
X470299Y256649D01*
X470064Y257825D01*
X469398Y258823D01*
X468400Y259490D01*
X467223Y259724D01*
D02*
G37*
G36*
X67091Y268548D02*
X64811Y268095D01*
X62879Y266803D01*
X61588Y264871D01*
X61392Y263888D01*
X59218Y263455D01*
X57286Y262164D01*
X55995Y260232D01*
X55541Y257952D01*
X55995Y255673D01*
X57286Y253740D01*
X59218Y252449D01*
X61498Y251996D01*
X63777Y252449D01*
X65710Y253740D01*
X67001Y255673D01*
X67196Y256656D01*
X69370Y257089D01*
X71302Y258380D01*
X72594Y260312D01*
X73047Y262592D01*
X72594Y264871D01*
X71302Y266803D01*
X69370Y268095D01*
X67091Y268548D01*
D02*
G37*
G36*
X551539Y253121D02*
X550350Y252884D01*
X549342Y252211D01*
X548668Y251202D01*
X548431Y250013D01*
X548668Y248824D01*
X549342Y247816D01*
X550350Y247142D01*
X551539Y246905D01*
X552728Y247142D01*
X553737Y247816D01*
X554410Y248824D01*
X554647Y250013D01*
X554410Y251202D01*
X553737Y252211D01*
X552728Y252884D01*
X551539Y253121D01*
D02*
G37*
G36*
X462647Y241500D02*
X461470Y241266D01*
X460472Y240600D01*
X459806Y239602D01*
X459571Y238425D01*
X459806Y237248D01*
X460472Y236251D01*
X461470Y235584D01*
X462647Y235350D01*
X463823Y235584D01*
X464821Y236251D01*
X465488Y237248D01*
X465722Y238425D01*
X465488Y239602D01*
X464821Y240600D01*
X463823Y241266D01*
X462647Y241500D01*
D02*
G37*
G36*
X303684D02*
X302507Y241266D01*
X301509Y240600D01*
X300843Y239602D01*
X300609Y238425D01*
X300843Y237248D01*
X301509Y236251D01*
X302507Y235584D01*
X303684Y235350D01*
X304861Y235584D01*
X305858Y236251D01*
X306525Y237248D01*
X306759Y238425D01*
X306525Y239602D01*
X305858Y240600D01*
X304861Y241266D01*
X303684Y241500D01*
D02*
G37*
G36*
X66894Y250651D02*
X65705Y250414D01*
X64696Y249741D01*
X64023Y248732D01*
X63786Y247543D01*
X64023Y246354D01*
X64696Y245345D01*
X65570Y244762D01*
X65607Y244226D01*
X65436Y243440D01*
X64859Y243326D01*
X62927Y242034D01*
X61636Y240102D01*
X61182Y237822D01*
X61636Y235543D01*
X62927Y233611D01*
X64859Y232319D01*
X67139Y231866D01*
X69418Y232319D01*
X71351Y233611D01*
X72642Y235543D01*
X73095Y237822D01*
X72642Y240102D01*
X71351Y242034D01*
X69418Y243326D01*
X68464Y243515D01*
X68364Y243819D01*
X68330Y244837D01*
X69091Y245345D01*
X69765Y246354D01*
X70002Y247543D01*
X69765Y248732D01*
X69091Y249741D01*
X68083Y250414D01*
X66894Y250651D01*
D02*
G37*
G36*
X557985Y231100D02*
X546015D01*
X545911Y231057D01*
X545801Y231079D01*
X543869Y230694D01*
X543775Y230632D01*
X543662D01*
X541842Y229878D01*
X541763Y229798D01*
X541652Y229776D01*
X540014Y228682D01*
X539952Y228588D01*
X539848Y228545D01*
X538455Y227152D01*
X538412Y227048D01*
X538318Y226986D01*
X537224Y225348D01*
X537202Y225237D01*
X537122Y225158D01*
X536368Y223338D01*
Y223225D01*
X536306Y223131D01*
X535922Y221199D01*
X535943Y221089D01*
X535900Y220985D01*
Y220000D01*
Y140000D01*
Y139015D01*
X535943Y138911D01*
X535922Y138800D01*
X536306Y136869D01*
X536368Y136775D01*
Y136662D01*
X537122Y134842D01*
X537202Y134763D01*
X537224Y134652D01*
X538318Y133014D01*
X538412Y132952D01*
X538455Y132848D01*
X539848Y131455D01*
X539952Y131412D01*
X540014Y131318D01*
X541652Y130224D01*
X541763Y130202D01*
X541842Y130122D01*
X543662Y129368D01*
X543775D01*
X543869Y129306D01*
X545801Y128921D01*
X545911Y128943D01*
X546015Y128900D01*
X557985D01*
X558089Y128943D01*
X558200Y128921D01*
X560131Y129306D01*
X560225Y129368D01*
X560338D01*
X562158Y130122D01*
X562237Y130202D01*
X562348Y130224D01*
X563986Y131318D01*
X564048Y131412D01*
X564152Y131455D01*
X565545Y132848D01*
X565588Y132952D01*
X565682Y133014D01*
X566776Y134652D01*
X566798Y134763D01*
X566878Y134842D01*
X567632Y136662D01*
Y136775D01*
X567694Y136868D01*
X568079Y138800D01*
X568057Y138911D01*
X568100Y139015D01*
Y140000D01*
Y220000D01*
Y220985D01*
X568057Y221089D01*
X568079Y221199D01*
X567694Y223131D01*
X567632Y223225D01*
Y223338D01*
X566878Y225158D01*
X566798Y225237D01*
X566776Y225348D01*
X565682Y226986D01*
X565588Y227048D01*
X565545Y227152D01*
X564152Y228545D01*
X564048Y228588D01*
X563986Y228682D01*
X562348Y229776D01*
X562237Y229798D01*
X562158Y229878D01*
X560338Y230632D01*
X560225D01*
X560131Y230694D01*
X558200Y231079D01*
X558089Y231057D01*
X557985Y231100D01*
D02*
G37*
G36*
X82138Y234120D02*
X80949Y233883D01*
X79941Y233209D01*
X79267Y232201D01*
X79031Y231012D01*
X79267Y229823D01*
X79941Y228815D01*
X80949Y228141D01*
X82138Y227904D01*
X83328Y228141D01*
X84336Y228815D01*
X85010Y229823D01*
X85246Y231012D01*
X85010Y232201D01*
X84336Y233209D01*
X83328Y233883D01*
X82138Y234120D01*
D02*
G37*
G36*
X94113Y228120D02*
X92924Y227883D01*
X91916Y227209D01*
X91242Y226201D01*
X91109Y225535D01*
X89937Y224907D01*
X89785Y224892D01*
X88728Y225598D01*
X86448Y226052D01*
X84169Y225598D01*
X82237Y224307D01*
X80946Y222375D01*
X80492Y220095D01*
X80946Y217816D01*
X81120Y217555D01*
X80946Y217295D01*
X80492Y215015D01*
X80946Y212736D01*
X82237Y210803D01*
X84169Y209512D01*
X86448Y209059D01*
X88728Y209512D01*
X90660Y210803D01*
X91952Y212736D01*
X92405Y215015D01*
X91952Y217295D01*
X91777Y217555D01*
X91952Y217816D01*
X92405Y220095D01*
X92207Y221092D01*
X92421Y221405D01*
X93308Y222064D01*
X94113Y221904D01*
X95302Y222141D01*
X96310Y222814D01*
X96984Y223823D01*
X97221Y225012D01*
X96984Y226201D01*
X96310Y227209D01*
X95302Y227883D01*
X94113Y228120D01*
D02*
G37*
G36*
X67091Y228468D02*
X64811Y228015D01*
X62879Y226724D01*
X61588Y224791D01*
X61134Y222512D01*
X61588Y220233D01*
X61733Y220014D01*
X61531Y219711D01*
X61078Y217432D01*
X61531Y215153D01*
X62822Y213220D01*
X64755Y211929D01*
X67034Y211476D01*
X69314Y211929D01*
X71246Y213220D01*
X72537Y215153D01*
X72990Y217432D01*
X72537Y219711D01*
X72391Y219930D01*
X72594Y220233D01*
X73047Y222512D01*
X72594Y224791D01*
X71302Y226724D01*
X69370Y228015D01*
X67091Y228468D01*
D02*
G37*
G36*
X291050Y222899D02*
X288783Y222448D01*
X286861Y221164D01*
X285577Y219242D01*
X285126Y216975D01*
X285577Y214708D01*
X285738Y214467D01*
X285577Y214226D01*
X285126Y211959D01*
X285577Y209692D01*
X286861Y207770D01*
X288783Y206486D01*
X291050Y206035D01*
X293317Y206486D01*
X295239Y207770D01*
X296523Y209692D01*
X296974Y211959D01*
X296523Y214226D01*
X296362Y214467D01*
X296523Y214708D01*
X296974Y216975D01*
X296523Y219242D01*
X295239Y221164D01*
X293317Y222448D01*
X291050Y222899D01*
D02*
G37*
G36*
X269404Y202890D02*
X268227Y202656D01*
X267230Y201990D01*
X266563Y200992D01*
X266329Y199815D01*
X266563Y198639D01*
X267230Y197641D01*
X268227Y196974D01*
X269404Y196740D01*
X270581Y196974D01*
X271578Y197641D01*
X272245Y198639D01*
X272479Y199815D01*
X272245Y200992D01*
X271578Y201990D01*
X270581Y202656D01*
X269404Y202890D01*
D02*
G37*
G36*
X219550Y198459D02*
X218361Y198223D01*
X217353Y197549D01*
X216679Y196541D01*
X216442Y195352D01*
X216679Y194163D01*
X217353Y193154D01*
X218361Y192481D01*
X219550Y192244D01*
X220739Y192481D01*
X221748Y193154D01*
X222421Y194163D01*
X222658Y195352D01*
X222421Y196541D01*
X221748Y197549D01*
X220739Y198223D01*
X219550Y198459D01*
D02*
G37*
G36*
X469392Y198434D02*
X468203Y198197D01*
X467195Y197523D01*
X466521Y196515D01*
X466284Y195326D01*
X466521Y194137D01*
X467195Y193129D01*
X468203Y192455D01*
X469392Y192218D01*
X470581Y192455D01*
X471590Y193129D01*
X472263Y194137D01*
X472500Y195326D01*
X472263Y196515D01*
X471590Y197523D01*
X470581Y198197D01*
X469392Y198434D01*
D02*
G37*
G36*
X490728Y193321D02*
X489551Y193087D01*
X488554Y192420D01*
X487887Y191423D01*
X487653Y190246D01*
X487887Y189069D01*
X488554Y188072D01*
X489551Y187405D01*
X490728Y187171D01*
X491905Y187405D01*
X492902Y188072D01*
X493569Y189069D01*
X493803Y190246D01*
X493569Y191423D01*
X492902Y192420D01*
X491905Y193087D01*
X490728Y193321D01*
D02*
G37*
G36*
X221488Y189798D02*
X220299Y189561D01*
X219291Y188888D01*
X218617Y187879D01*
X218380Y186690D01*
X218617Y185501D01*
X219291Y184492D01*
X220299Y183819D01*
X221488Y183582D01*
X222677Y183819D01*
X223685Y184492D01*
X224359Y185501D01*
X224596Y186690D01*
X224359Y187879D01*
X223685Y188888D01*
X222677Y189561D01*
X221488Y189798D01*
D02*
G37*
G36*
X285755Y188638D02*
X284578Y188404D01*
X283580Y187738D01*
X282914Y186740D01*
X282680Y185563D01*
X282914Y184387D01*
X283580Y183389D01*
X284578Y182722D01*
X285755Y182488D01*
X286931Y182722D01*
X287929Y183389D01*
X288596Y184387D01*
X288830Y185563D01*
X288596Y186740D01*
X287929Y187738D01*
X286931Y188404D01*
X285755Y188638D01*
D02*
G37*
G36*
X251377Y188015D02*
X250188Y187779D01*
X249179Y187105D01*
X248506Y186097D01*
X248269Y184908D01*
X248506Y183718D01*
X249179Y182710D01*
X250188Y182036D01*
X251377Y181800D01*
X252566Y182036D01*
X253575Y182710D01*
X254248Y183718D01*
X254485Y184908D01*
X254248Y186097D01*
X253575Y187105D01*
X252566Y187779D01*
X251377Y188015D01*
D02*
G37*
G36*
X626110Y197472D02*
X623831Y197019D01*
X621898Y195728D01*
X620607Y193796D01*
X620154Y191516D01*
X620607Y189237D01*
X620781Y188976D01*
X620607Y188715D01*
X620154Y186436D01*
X620607Y184157D01*
X621898Y182224D01*
X623831Y180933D01*
X626110Y180480D01*
X628390Y180933D01*
X630322Y182224D01*
X631613Y184157D01*
X632066Y186436D01*
X631613Y188715D01*
X631439Y188976D01*
X631613Y189237D01*
X632066Y191516D01*
X631613Y193796D01*
X630322Y195728D01*
X628390Y197019D01*
X626110Y197472D01*
D02*
G37*
G36*
X262528Y187547D02*
X261338Y187310D01*
X260330Y186637D01*
X259656Y185629D01*
X259420Y184439D01*
X259656Y183250D01*
X260330Y182242D01*
X261338Y181568D01*
X261430Y180255D01*
X261330Y179753D01*
X261564Y178577D01*
X262231Y177579D01*
X263229Y176912D01*
X264405Y176678D01*
X265582Y176912D01*
X266580Y177579D01*
X267246Y178577D01*
X267480Y179753D01*
X267246Y180930D01*
X266580Y181928D01*
X266208Y182176D01*
X265399Y183250D01*
X265635Y184439D01*
X265399Y185629D01*
X264725Y186637D01*
X263717Y187310D01*
X262528Y187547D01*
D02*
G37*
G36*
X578104Y182432D02*
X576915Y182195D01*
X575906Y181521D01*
X575233Y180513D01*
X574996Y179324D01*
X575233Y178135D01*
X575906Y177127D01*
X576915Y176453D01*
X578104Y176216D01*
X579293Y176453D01*
X580302Y177127D01*
X580975Y178135D01*
X581212Y179324D01*
X580975Y180513D01*
X580302Y181521D01*
X579293Y182195D01*
X578104Y182432D01*
D02*
G37*
G36*
X216503Y175268D02*
X215314Y175032D01*
X214306Y174358D01*
X213632Y173350D01*
X213395Y172161D01*
X213632Y170971D01*
X214306Y169963D01*
X215314Y169289D01*
X216503Y169053D01*
X217692Y169289D01*
X218701Y169963D01*
X219374Y170971D01*
X219611Y172161D01*
X219374Y173350D01*
X218701Y174358D01*
X217692Y175032D01*
X216503Y175268D01*
D02*
G37*
G36*
X611727Y171473D02*
X610538Y171236D01*
X609529Y170562D01*
X608856Y169554D01*
X608619Y168365D01*
X608856Y167176D01*
X609529Y166168D01*
X610538Y165494D01*
X611727Y165257D01*
X612916Y165494D01*
X613924Y166168D01*
X614598Y167176D01*
X614835Y168365D01*
X614598Y169554D01*
X613924Y170562D01*
X612916Y171236D01*
X611727Y171473D01*
D02*
G37*
G36*
X498448Y170504D02*
X497259Y170268D01*
X496251Y169594D01*
X495577Y168586D01*
X495341Y167397D01*
X495577Y166208D01*
X496251Y165199D01*
X497259Y164526D01*
X498448Y164289D01*
X499638Y164526D01*
X500646Y165199D01*
X501319Y166208D01*
X501556Y167397D01*
X501319Y168586D01*
X500646Y169594D01*
X499638Y170268D01*
X498448Y170504D01*
D02*
G37*
G36*
X489056Y168974D02*
X487879Y168740D01*
X486881Y168073D01*
X486215Y167076D01*
X485981Y165899D01*
X486215Y164722D01*
X486881Y163724D01*
X487879Y163058D01*
X489056Y162824D01*
X490233Y163058D01*
X491230Y163724D01*
X491897Y164722D01*
X492131Y165899D01*
X491897Y167076D01*
X491230Y168073D01*
X490233Y168740D01*
X489056Y168974D01*
D02*
G37*
G36*
X211827Y168924D02*
X210638Y168687D01*
X209629Y168014D01*
X208956Y167006D01*
X208719Y165816D01*
X208956Y164627D01*
X209629Y163619D01*
X210638Y162945D01*
X211827Y162708D01*
X213016Y162945D01*
X214025Y163619D01*
X214698Y164627D01*
X214935Y165816D01*
X214698Y167006D01*
X214025Y168014D01*
X213016Y168687D01*
X211827Y168924D01*
D02*
G37*
G36*
X313690Y164652D02*
X312501Y164415D01*
X311493Y163741D01*
X310819Y162733D01*
X310582Y161544D01*
X310819Y160355D01*
X311493Y159347D01*
X312501Y158673D01*
X313690Y158436D01*
X314879Y158673D01*
X315888Y159347D01*
X316561Y160355D01*
X316798Y161544D01*
X316561Y162733D01*
X315888Y163741D01*
X314879Y164415D01*
X313690Y164652D01*
D02*
G37*
G36*
X135000Y158075D02*
X133823Y157841D01*
X132826Y157174D01*
X132174D01*
X131177Y157841D01*
X130000Y158075D01*
X128823Y157841D01*
X127826Y157174D01*
X127174D01*
X126177Y157841D01*
X125000Y158075D01*
X123823Y157841D01*
X122826Y157174D01*
X122174D01*
X121177Y157841D01*
X120000Y158075D01*
X118823Y157841D01*
X117826Y157174D01*
X117159Y156177D01*
X116925Y155000D01*
X117159Y153823D01*
X117826Y152826D01*
X118823Y152159D01*
X120000Y151925D01*
X121177Y152159D01*
X122174Y152826D01*
X122826D01*
X123823Y152159D01*
X125000Y151925D01*
X126177Y152159D01*
X127174Y152826D01*
X127826D01*
X128823Y152159D01*
X130000Y151925D01*
X131177Y152159D01*
X132174Y152826D01*
X132826D01*
X133823Y152159D01*
X135000Y151925D01*
X136177Y152159D01*
X137174Y152826D01*
X137841Y153823D01*
X138075Y155000D01*
X137841Y156177D01*
X137174Y157174D01*
X136177Y157841D01*
X135000Y158075D01*
D02*
G37*
G36*
X575970Y163139D02*
X574780Y162903D01*
X573772Y162229D01*
X573098Y161221D01*
X572862Y160032D01*
X573098Y158842D01*
X573772Y157834D01*
X574780Y157161D01*
X575970Y156924D01*
X577159Y157161D01*
X578167Y157834D01*
X578841Y158842D01*
X579077Y160032D01*
X578841Y161221D01*
X578167Y162229D01*
X577159Y162903D01*
X575970Y163139D01*
D02*
G37*
G36*
X614620Y161635D02*
X613431Y161398D01*
X612422Y160724D01*
X611749Y159716D01*
X611512Y158527D01*
X611749Y157338D01*
X612422Y156329D01*
X613431Y155656D01*
X614620Y155419D01*
X615809Y155656D01*
X616818Y156329D01*
X617491Y157338D01*
X617728Y158527D01*
X617491Y159716D01*
X616818Y160724D01*
X615809Y161398D01*
X614620Y161635D01*
D02*
G37*
G36*
X287782Y154459D02*
X286605Y154225D01*
X285608Y153558D01*
X284941Y152561D01*
X284707Y151384D01*
X284941Y150207D01*
X285608Y149210D01*
X286605Y148543D01*
X287782Y148309D01*
X288959Y148543D01*
X289956Y149210D01*
X290623Y150207D01*
X290857Y151384D01*
X290623Y152561D01*
X289956Y153558D01*
X288959Y154225D01*
X287782Y154459D01*
D02*
G37*
G36*
X613292Y150932D02*
X612103Y150695D01*
X611095Y150022D01*
X610421Y149013D01*
X610184Y147824D01*
X610421Y146635D01*
X611095Y145627D01*
X612103Y144953D01*
X613292Y144716D01*
X614481Y144953D01*
X615489Y145627D01*
X616163Y146635D01*
X616400Y147824D01*
X616163Y149013D01*
X615489Y150022D01*
X614481Y150695D01*
X613292Y150932D01*
D02*
G37*
G36*
X471756Y149658D02*
X470566Y149422D01*
X469558Y148748D01*
X468885Y147740D01*
X468648Y146550D01*
X468885Y145361D01*
X469558Y144353D01*
X470566Y143679D01*
X471756Y143443D01*
X472945Y143679D01*
X473953Y144353D01*
X474627Y145361D01*
X474863Y146550D01*
X474627Y147740D01*
X473953Y148748D01*
X472945Y149422D01*
X471756Y149658D01*
D02*
G37*
G36*
X488023Y160086D02*
X486846Y159852D01*
X485849Y159185D01*
X485182Y158187D01*
X484948Y157011D01*
X485182Y155834D01*
X485849Y154836D01*
X486484Y154412D01*
X486638Y153243D01*
X486571Y152943D01*
X486368Y152807D01*
X485701Y151810D01*
X485467Y150633D01*
X485701Y149456D01*
X486368Y148458D01*
X487365Y147792D01*
X486971Y146730D01*
X486737Y145553D01*
X486971Y144376D01*
X487638Y143378D01*
X488635Y142712D01*
X489812Y142478D01*
X490989Y142712D01*
X491987Y143378D01*
X492653Y144376D01*
X492887Y145553D01*
X492653Y146730D01*
X491987Y147727D01*
X490989Y148394D01*
X491383Y149456D01*
X491617Y150633D01*
X491383Y151810D01*
X490717Y152807D01*
X490082Y153231D01*
X489927Y154400D01*
X489995Y154701D01*
X490197Y154836D01*
X490864Y155834D01*
X491098Y157011D01*
X490864Y158187D01*
X490197Y159185D01*
X489200Y159852D01*
X488023Y160086D01*
D02*
G37*
G36*
X598170Y139815D02*
X595891Y139361D01*
X595630Y139187D01*
X595369Y139361D01*
X593090Y139815D01*
X590811Y139361D01*
X588878Y138070D01*
X587587Y136138D01*
X587313Y134758D01*
X586754Y134608D01*
X585991Y134624D01*
X584825Y136369D01*
X582893Y137660D01*
X580613Y138113D01*
X578334Y137660D01*
X578073Y137486D01*
X577813Y137660D01*
X575533Y138113D01*
X573254Y137660D01*
X571321Y136369D01*
X570030Y134437D01*
X569577Y132157D01*
X569733Y131374D01*
X567749Y130979D01*
X565816Y129688D01*
X564525Y127755D01*
X564072Y125476D01*
X564525Y123197D01*
X564700Y122936D01*
X564525Y122676D01*
X564072Y120396D01*
X564525Y118117D01*
X565816Y116184D01*
X567749Y114893D01*
X570028Y114440D01*
X572308Y114893D01*
X574240Y116184D01*
X575531Y118117D01*
X575985Y120396D01*
X575531Y122676D01*
X575357Y122936D01*
X575531Y123197D01*
X575985Y125476D01*
X575829Y126259D01*
X577813Y126654D01*
X578073Y126828D01*
X578334Y126654D01*
X580613Y126201D01*
X582893Y126654D01*
X584825Y127945D01*
X586116Y129878D01*
X586391Y131257D01*
X586949Y131407D01*
X587712Y131391D01*
X588878Y129646D01*
X590811Y128355D01*
X593090Y127902D01*
X595369Y128355D01*
X595630Y128529D01*
X595891Y128355D01*
X598170Y127902D01*
X600449Y128355D01*
X602382Y129646D01*
X603673Y131579D01*
X604127Y133858D01*
X603673Y136138D01*
X602382Y138070D01*
X600449Y139361D01*
X598170Y139815D01*
D02*
G37*
G36*
X346464Y143260D02*
X345274Y143023D01*
X344266Y142350D01*
X343592Y141341D01*
X343356Y140152D01*
X343592Y138963D01*
X344266Y137955D01*
X345274Y137281D01*
X346464Y137044D01*
X347653Y137281D01*
X348661Y137955D01*
X349335Y138963D01*
X349571Y140152D01*
X349335Y141341D01*
X348661Y142350D01*
X347653Y143023D01*
X346464Y143260D01*
D02*
G37*
G36*
X384556Y140776D02*
X383367Y140539D01*
X382359Y139866D01*
X381685Y138857D01*
X381448Y137668D01*
X381685Y136479D01*
X382359Y135471D01*
X383367Y134797D01*
X384556Y134560D01*
X385745Y134797D01*
X386754Y135471D01*
X387427Y136479D01*
X387664Y137668D01*
X387427Y138857D01*
X386754Y139866D01*
X385745Y140539D01*
X384556Y140776D01*
D02*
G37*
G36*
X368554Y121980D02*
X367365Y121743D01*
X366357Y121069D01*
X364978D01*
X363970Y121743D01*
X362781Y121980D01*
X361592Y121743D01*
X360584Y121069D01*
X360137Y120401D01*
X359914Y120337D01*
X358949D01*
X358726Y120401D01*
X358279Y121069D01*
X357271Y121743D01*
X356082Y121980D01*
X354892Y121743D01*
X353884Y121069D01*
X353210Y120061D01*
X352974Y118872D01*
X353210Y117683D01*
X353884Y116674D01*
X354892Y116001D01*
X356082Y115764D01*
X357271Y116001D01*
X358279Y116674D01*
X358726Y117343D01*
X358949Y117407D01*
X359914D01*
X360137Y117343D01*
X360584Y116674D01*
X361592Y116001D01*
X362781Y115764D01*
X363970Y116001D01*
X364978Y116674D01*
X366357D01*
X367365Y116001D01*
X368554Y115764D01*
X369743Y116001D01*
X370751Y116674D01*
X371425Y117683D01*
X371662Y118872D01*
X371425Y120061D01*
X370751Y121069D01*
X369743Y121743D01*
X368554Y121980D01*
D02*
G37*
G36*
X473000Y131957D02*
X470720Y131503D01*
X468788Y130212D01*
X467497Y128279D01*
X467043Y126000D01*
X467497Y123721D01*
X467671Y123460D01*
X467497Y123200D01*
X467043Y120920D01*
X467497Y118641D01*
X468788Y116708D01*
X470720Y115417D01*
X473000Y114964D01*
X475279Y115417D01*
X477212Y116708D01*
X478503Y118641D01*
X478956Y120920D01*
X478503Y123200D01*
X478329Y123460D01*
X478503Y123721D01*
X478956Y126000D01*
X478503Y128279D01*
X477212Y130212D01*
X475279Y131503D01*
X473000Y131957D01*
D02*
G37*
G36*
X521970Y131433D02*
X519691Y130979D01*
X517758Y129688D01*
X516467Y127755D01*
X516014Y125476D01*
X516467Y123197D01*
X516641Y122936D01*
X516467Y122676D01*
X516014Y120396D01*
X516467Y118117D01*
X517758Y116184D01*
X519691Y114893D01*
X521970Y114440D01*
X524249Y114893D01*
X526182Y116184D01*
X527473Y118117D01*
X527926Y120396D01*
X527473Y122676D01*
X527299Y122936D01*
X527473Y123197D01*
X527926Y125476D01*
X527473Y127755D01*
X526182Y129688D01*
X524249Y130979D01*
X521970Y131433D01*
D02*
G37*
G36*
X210671Y116903D02*
X209494Y116669D01*
X208496Y116003D01*
X207830Y115005D01*
X207596Y113828D01*
X207830Y112652D01*
X208496Y111654D01*
X209494Y110987D01*
X210671Y110753D01*
X211848Y110987D01*
X212845Y111654D01*
X213512Y112652D01*
X213746Y113828D01*
X213512Y115005D01*
X212845Y116003D01*
X211848Y116669D01*
X210671Y116903D01*
D02*
G37*
G36*
X227638Y116668D02*
X226462Y116433D01*
X225464Y115767D01*
X224797Y114769D01*
X224563Y113593D01*
X224797Y112416D01*
X225464Y111418D01*
X226462Y110751D01*
X227638Y110518D01*
X228815Y110751D01*
X229813Y111418D01*
X230479Y112416D01*
X230714Y113593D01*
X230479Y114769D01*
X229813Y115767D01*
X228815Y116433D01*
X227638Y116668D01*
D02*
G37*
G36*
X438150Y120496D02*
X435871Y120043D01*
X433938Y118751D01*
X432647Y116819D01*
X432194Y114540D01*
X432647Y112260D01*
X432821Y112000D01*
X432647Y111739D01*
X432194Y109460D01*
X432647Y107180D01*
X433938Y105248D01*
X435871Y103957D01*
X438150Y103503D01*
X440429Y103957D01*
X442362Y105248D01*
X443653Y107180D01*
X444106Y109460D01*
X443653Y111739D01*
X443479Y112000D01*
X443653Y112260D01*
X444106Y114540D01*
X443653Y116819D01*
X442362Y118751D01*
X440429Y120043D01*
X438150Y120496D01*
D02*
G37*
G36*
X142428Y109536D02*
X141239Y109299D01*
X140231Y108626D01*
X139557Y107618D01*
X139320Y106428D01*
X139557Y105239D01*
X140231Y104231D01*
X141239Y103557D01*
X142428Y103321D01*
X143617Y103557D01*
X144626Y104231D01*
X145299Y105239D01*
X145536Y106428D01*
X145299Y107618D01*
X144626Y108626D01*
X143617Y109299D01*
X142428Y109536D01*
D02*
G37*
G36*
X84500Y117928D02*
X82448Y117658D01*
X80536Y116866D01*
X78894Y115606D01*
X77634Y113964D01*
X76842Y112052D01*
X76572Y110000D01*
X76842Y107948D01*
X77634Y106036D01*
X78894Y104394D01*
X80536Y103134D01*
X82448Y102342D01*
X84500Y102072D01*
X86552Y102342D01*
X88464Y103134D01*
X90106Y104394D01*
X91366Y106036D01*
X92158Y107948D01*
X92428Y110000D01*
X92158Y112052D01*
X91366Y113964D01*
X90106Y115606D01*
X88464Y116866D01*
X86552Y117658D01*
X84500Y117928D01*
D02*
G37*
G36*
X578458Y111885D02*
X576179Y111432D01*
X574246Y110141D01*
X572955Y108208D01*
X572502Y105929D01*
X572955Y103649D01*
X574246Y101717D01*
X576179Y100426D01*
X578458Y99972D01*
X580738Y100426D01*
X580955Y100571D01*
X581259Y100368D01*
X583538Y99914D01*
X585818Y100368D01*
X587075Y101208D01*
X588625Y100172D01*
X590904Y99718D01*
X593184Y100172D01*
X593444Y100346D01*
X593705Y100172D01*
X595984Y99718D01*
X598264Y100172D01*
X600196Y101463D01*
X601487Y103395D01*
X601941Y105675D01*
X601487Y107954D01*
X600196Y109887D01*
X598264Y111178D01*
X595984Y111631D01*
X593705Y111178D01*
X593444Y111004D01*
X593184Y111178D01*
X590904Y111631D01*
X588625Y111178D01*
X587368Y110338D01*
X585818Y111374D01*
X583538Y111827D01*
X581259Y111374D01*
X581042Y111229D01*
X580738Y111432D01*
X578458Y111885D01*
D02*
G37*
G36*
X132334Y103320D02*
X131145Y103084D01*
X130136Y102410D01*
X129463Y101402D01*
X129226Y100213D01*
X129463Y99023D01*
X130136Y98015D01*
X131145Y97341D01*
X132334Y97105D01*
X133523Y97341D01*
X134531Y98015D01*
X135205Y99023D01*
X135442Y100213D01*
X135205Y101402D01*
X134531Y102410D01*
X133523Y103084D01*
X132334Y103320D01*
D02*
G37*
G36*
X390906Y116138D02*
X389717Y115901D01*
X388708Y115227D01*
X388035Y114219D01*
X387798Y113030D01*
X388035Y111841D01*
X388282Y111470D01*
X388605Y110530D01*
X388282Y109590D01*
X388035Y109219D01*
X387798Y108030D01*
X388035Y106841D01*
X388282Y106470D01*
X388605Y105530D01*
X388282Y104590D01*
X388035Y104219D01*
X387798Y103030D01*
X388035Y101841D01*
X388282Y101470D01*
X388605Y100530D01*
X388282Y99590D01*
X388035Y99219D01*
X387798Y98030D01*
X388035Y96841D01*
X388708Y95833D01*
X389717Y95159D01*
X390906Y94922D01*
X392095Y95159D01*
X393103Y95833D01*
X393777Y96841D01*
X394014Y98030D01*
X393777Y99219D01*
X393530Y99590D01*
X393207Y100530D01*
X393530Y101470D01*
X393777Y101841D01*
X394014Y103030D01*
X393777Y104219D01*
X393530Y104590D01*
X393207Y105530D01*
X393530Y106470D01*
X393777Y106841D01*
X394014Y108030D01*
X393777Y109219D01*
X393530Y109590D01*
X393207Y110530D01*
X393530Y111470D01*
X393777Y111841D01*
X394014Y113030D01*
X393777Y114219D01*
X393103Y115227D01*
X392095Y115901D01*
X390906Y116138D01*
D02*
G37*
G36*
X472500Y108496D02*
X470220Y108043D01*
X468288Y106751D01*
X466997Y104819D01*
X466543Y102540D01*
X466997Y100260D01*
X467171Y100000D01*
X466997Y99739D01*
X466543Y97460D01*
X466997Y95180D01*
X468288Y93248D01*
X470220Y91957D01*
X472500Y91503D01*
X474779Y91957D01*
X476712Y93248D01*
X478003Y95180D01*
X478456Y97460D01*
X478003Y99739D01*
X477829Y100000D01*
X478003Y100260D01*
X478456Y102540D01*
X478003Y104819D01*
X476712Y106751D01*
X474779Y108043D01*
X472500Y108496D01*
D02*
G37*
G36*
X527912Y107567D02*
X525633Y107114D01*
X523700Y105823D01*
X522409Y103890D01*
X521956Y101611D01*
X522409Y99331D01*
X522583Y99071D01*
X522409Y98810D01*
X521956Y96531D01*
X522409Y94251D01*
X523700Y92319D01*
X525633Y91028D01*
X527912Y90574D01*
X530192Y91028D01*
X532124Y92319D01*
X533415Y94251D01*
X533869Y96531D01*
X533415Y98810D01*
X533241Y99071D01*
X533415Y99331D01*
X533869Y101611D01*
X533415Y103890D01*
X532124Y105823D01*
X530192Y107114D01*
X527912Y107567D01*
D02*
G37*
G36*
X464055Y89121D02*
X462878Y88887D01*
X461881Y88220D01*
X461214Y87222D01*
X460980Y86046D01*
X461214Y84869D01*
X461881Y83871D01*
X462878Y83205D01*
X464055Y82971D01*
X465232Y83205D01*
X466230Y83871D01*
X466896Y84869D01*
X467130Y86046D01*
X466896Y87222D01*
X466230Y88220D01*
X465232Y88887D01*
X464055Y89121D01*
D02*
G37*
G36*
X464175Y72807D02*
X462998Y72572D01*
X462001Y71906D01*
X461334Y70908D01*
X461100Y69731D01*
X461334Y68555D01*
X462001Y67557D01*
X462998Y66890D01*
X464175Y66656D01*
X465352Y66890D01*
X466349Y67557D01*
X467016Y68555D01*
X467250Y69731D01*
X467016Y70908D01*
X466349Y71906D01*
X465352Y72572D01*
X464175Y72807D01*
D02*
G37*
G36*
X110000Y51108D02*
X108811Y50871D01*
X107802Y50198D01*
X107129Y49189D01*
X106892Y48000D01*
X107129Y46811D01*
X107802Y45802D01*
X108811Y45129D01*
X110000Y44892D01*
X111189Y45129D01*
X112198Y45802D01*
X112871Y46811D01*
X113108Y48000D01*
X112871Y49189D01*
X112198Y50198D01*
X111189Y50871D01*
X110000Y51108D01*
D02*
G37*
G36*
X80000D02*
X78811Y50871D01*
X77803Y50198D01*
X77129Y49189D01*
X76892Y48000D01*
X77129Y46811D01*
X77803Y45802D01*
X78811Y45129D01*
X80000Y44892D01*
X81189Y45129D01*
X82198Y45802D01*
X82871Y46811D01*
X83108Y48000D01*
X82871Y49189D01*
X82198Y50198D01*
X81189Y50871D01*
X80000Y51108D01*
D02*
G37*
G36*
X307848Y50606D02*
X306659Y50369D01*
X305651Y49696D01*
X304977Y48687D01*
X304740Y47498D01*
X304977Y46309D01*
X305651Y45300D01*
X306659Y44627D01*
X307848Y44390D01*
X309037Y44627D01*
X310046Y45300D01*
X310719Y46309D01*
X310956Y47498D01*
X310719Y48687D01*
X310046Y49696D01*
X309037Y50369D01*
X307848Y50606D01*
D02*
G37*
G36*
X100500Y25608D02*
X99311Y25371D01*
X98302Y24697D01*
X97629Y23689D01*
X97392Y22500D01*
X97629Y21311D01*
X98302Y20303D01*
X99311Y19629D01*
X100500Y19392D01*
X101689Y19629D01*
X102697Y20303D01*
X103371Y21311D01*
X103608Y22500D01*
X103371Y23689D01*
X102697Y24697D01*
X101689Y25371D01*
X100500Y25608D01*
D02*
G37*
G36*
X70500D02*
X69311Y25371D01*
X68303Y24697D01*
X67629Y23689D01*
X67392Y22500D01*
X67629Y21311D01*
X68303Y20303D01*
X69311Y19629D01*
X70500Y19392D01*
X71689Y19629D01*
X72698Y20303D01*
X73371Y21311D01*
X73608Y22500D01*
X73371Y23689D01*
X72698Y24697D01*
X71689Y25371D01*
X70500Y25608D01*
D02*
G37*
%LPD*%
D63*
X609138Y136398D02*
X620786Y124750D01*
X603504Y136398D02*
X609138D01*
X605266Y109231D02*
X620786Y124750D01*
X600302Y109231D02*
X605266D01*
X561650Y127075D02*
X563022Y125704D01*
Y116694D02*
Y125704D01*
Y116694D02*
X570725Y108991D01*
X572759D01*
X573250Y108500D01*
X587303Y109290D02*
Y113287D01*
X589649Y115633D01*
Y124500D01*
X588421Y125728D02*
X589649Y124500D01*
X588421Y125728D02*
Y127573D01*
X586389Y129605D02*
X588421Y127573D01*
X586389Y129605D02*
Y130847D01*
X586779Y131237D01*
Y134583D01*
X586754Y134608D02*
X586779Y134583D01*
X563690Y128412D02*
X564173D01*
X566888Y131127D01*
X569486D01*
X569715Y131356D01*
D72*
X416000Y301125D02*
D03*
X174000D02*
D03*
Y59125D02*
D03*
X416000D02*
D03*
D74*
X69538Y196800D02*
D03*
Y283200D02*
D03*
D75*
X15938Y196800D02*
D03*
Y283200D02*
D03*
D77*
X84500Y130000D02*
D03*
D78*
X260930Y161646D02*
D03*
X582750Y81750D02*
D03*
X545500Y80000D02*
D03*
X206000Y203250D02*
D03*
X93750Y169250D02*
D03*
X194000Y136750D02*
D03*
X401250Y209500D02*
D03*
X348750Y180000D02*
D03*
X322750Y117750D02*
D03*
X383032Y124714D02*
D03*
X444000Y137000D02*
D03*
X468250Y169500D02*
D03*
X451250Y187500D02*
D03*
X439000Y174500D02*
D03*
X452000Y156000D02*
D03*
X462750Y146750D02*
D03*
X493000Y207000D02*
D03*
X493250Y223750D02*
D03*
X460250Y210750D02*
D03*
X444500Y222250D02*
D03*
X443250Y203250D02*
D03*
X595000Y283750D02*
D03*
X583000Y341250D02*
D03*
X560500Y311000D02*
D03*
X489250Y313750D02*
D03*
X449500Y347250D02*
D03*
X327500Y50750D02*
D03*
X371500Y92000D02*
D03*
X447500Y93500D02*
D03*
X527750Y57000D02*
D03*
X580000Y26750D02*
D03*
X639500Y103250D02*
D03*
X606750Y64000D02*
D03*
X149750Y11000D02*
D03*
X121250Y85750D02*
D03*
X58500Y57500D02*
D03*
X19000Y163250D02*
D03*
X382250Y234750D02*
D03*
X365750Y297250D02*
D03*
X376500Y337500D02*
D03*
X308250Y306250D02*
D03*
X261000Y340250D02*
D03*
X234000Y309500D02*
D03*
X282250Y274000D02*
D03*
X214750Y274500D02*
D03*
X136750Y339250D02*
D03*
X91250Y312750D02*
D03*
X489000Y106000D02*
D03*
X468288Y93248D02*
D03*
X442699Y105752D02*
D03*
Y118247D02*
D03*
X466349D02*
D03*
X470720Y131503D02*
D03*
X473202Y165862D02*
D03*
X490416Y120206D02*
D03*
X309848Y235690D02*
D03*
X326898Y257556D02*
D03*
X267614Y46216D02*
D03*
X285911Y49440D02*
D03*
X285088Y208037D02*
D03*
X285342Y222769D02*
D03*
X294740D02*
D03*
X91435Y209770D02*
D03*
X342971Y265017D02*
D03*
X334711Y274137D02*
D03*
X326914Y179069D02*
D03*
X275703Y96913D02*
D03*
Y105072D02*
D03*
X256600Y40495D02*
D03*
X296618Y51190D02*
D03*
X236780Y230028D02*
D03*
X231550Y230261D02*
D03*
X236580Y237705D02*
D03*
X231550Y237854D02*
D03*
X236430Y246628D02*
D03*
X231550Y246777D02*
D03*
X236596Y254270D02*
D03*
X231550Y254261D02*
D03*
X209096Y66654D02*
D03*
X227371Y66461D02*
D03*
X252002Y65937D02*
D03*
X254644Y99334D02*
D03*
X271705Y128575D02*
D03*
X238982Y130447D02*
D03*
X470770Y218849D02*
D03*
X487810Y240709D02*
D03*
X488096Y252833D02*
D03*
X487906Y264765D02*
D03*
X502349Y264616D02*
D03*
X502900Y276703D02*
D03*
X464456Y8734D02*
D03*
X412334Y8393D02*
D03*
X351028Y35052D02*
D03*
X314952Y9079D02*
D03*
X283464Y30734D02*
D03*
X217678Y31242D02*
D03*
X199390Y10668D02*
D03*
X346513Y235760D02*
D03*
X490416Y91581D02*
D03*
X488816Y137284D02*
D03*
X256203Y239150D02*
D03*
X285560Y243270D02*
D03*
X238071Y87811D02*
D03*
X235858Y80486D02*
D03*
X225787Y80792D02*
D03*
X215913Y80783D02*
D03*
X206075Y80944D02*
D03*
X203172Y88524D02*
D03*
D79*
X416000Y321875D02*
D03*
Y280375D02*
D03*
X395250Y301125D02*
D03*
X436750D02*
D03*
X174000Y321875D02*
D03*
Y280375D02*
D03*
X153250Y301125D02*
D03*
X194750D02*
D03*
Y59125D02*
D03*
X153250D02*
D03*
X174000Y38375D02*
D03*
Y79875D02*
D03*
X436750Y59125D02*
D03*
X395250D02*
D03*
X416000Y38375D02*
D03*
Y79875D02*
D03*
D80*
X100750Y257000D02*
D03*
X620786Y124750D02*
D03*
X603504Y136398D02*
D03*
X523021Y94000D02*
D03*
X573250Y108500D02*
D03*
X586754Y134608D02*
D03*
X569715Y131356D02*
D03*
X239000Y207000D02*
D03*
X219550Y142076D02*
D03*
X240250Y194860D02*
D03*
X519176Y263652D02*
D03*
X485394Y194564D02*
D03*
X472892Y189994D02*
D03*
X502369Y146105D02*
D03*
X517652Y171196D02*
D03*
X517144Y194056D02*
D03*
X332994Y196596D02*
D03*
X303022Y89154D02*
D03*
X287020Y79502D02*
D03*
X312674Y131572D02*
D03*
X593090Y205978D02*
D03*
X627634Y232424D02*
D03*
X624840Y181356D02*
D03*
X622720Y196000D02*
D03*
X612194Y163285D02*
D03*
X592074Y250190D02*
D03*
X614172Y173228D02*
D03*
X578104Y184404D02*
D03*
X572362Y152103D02*
D03*
X613038Y153412D02*
D03*
X516940Y81090D02*
D03*
X523886Y106172D02*
D03*
X516890Y118110D02*
D03*
X518210Y141756D02*
D03*
X517890Y130048D02*
D03*
X46000Y93000D02*
D03*
X99100Y36100D02*
D03*
X69100D02*
D03*
X77768Y239762D02*
D03*
X67639Y209509D02*
D03*
X57137Y279445D02*
D03*
X83704Y279989D02*
D03*
X128895Y217970D02*
D03*
X117637Y200023D02*
D03*
X305269Y160209D02*
D03*
X510560Y74094D02*
D03*
X517652Y166370D02*
D03*
X504190Y189992D02*
D03*
X502642Y240812D02*
D03*
X502539Y252879D02*
D03*
X501740Y124086D02*
D03*
X501006Y97453D02*
D03*
X587303Y109290D02*
D03*
X600302Y109231D02*
D03*
X139038Y182289D02*
D03*
X163577Y195352D02*
D03*
X296238Y186508D02*
D03*
D81*
X620000Y30000D02*
D03*
X30000D02*
D03*
Y330000D02*
D03*
X620000D02*
D03*
M02*
