G04*
G04 #@! TF.GenerationSoftware,Altium Limited,Altium Designer,21.2.2 (38)*
G04*
G04 Layer_Color=128*
%FSLAX44Y44*%
%MOMM*%
G71*
G04*
G04 #@! TF.SameCoordinates,2A6C1C92-B5F8-495A-87A3-FCD029FF8D19*
G04*
G04*
G04 #@! TF.FilePolarity,Positive*
G04*
G01*
G75*
%ADD121C,0.0508*%
D121*
X401000Y301125D02*
X431000D01*
X416000Y286125D02*
Y316125D01*
X606250Y30000D02*
X633750D01*
X620000Y16250D02*
Y43750D01*
X66539Y196800D02*
X72538D01*
X69538Y193800D02*
Y199800D01*
X12938Y196800D02*
X18938D01*
X15938Y193800D02*
Y199800D01*
X12938Y283200D02*
X18938D01*
X15938Y280200D02*
Y286200D01*
X66539Y283200D02*
X72538D01*
X69538Y280200D02*
Y286200D01*
X80200Y110000D02*
X88800D01*
X84500Y105700D02*
Y114300D01*
X80200Y130000D02*
X88800D01*
X84500Y125700D02*
Y134300D01*
X159000Y301125D02*
X189000D01*
X174000Y286125D02*
Y316125D01*
X159000Y59125D02*
X189000D01*
X174000Y44125D02*
Y74125D01*
X401000Y59125D02*
X431000D01*
X416000Y44125D02*
Y74125D01*
X16250Y30000D02*
X43750D01*
X30000Y16250D02*
Y43750D01*
X16250Y330000D02*
X43750D01*
X30000Y316250D02*
Y343750D01*
X606250Y330000D02*
X633750D01*
X620000Y316250D02*
Y343750D01*
X286782Y151384D02*
X288782D01*
X287782Y150384D02*
Y152384D01*
X263405Y179753D02*
X265405D01*
X264405Y178754D02*
Y180753D01*
X259930Y161646D02*
X261930D01*
X260930Y160646D02*
Y162646D01*
X414476Y321875D02*
X417524D01*
X416000Y320351D02*
Y323399D01*
X414476Y280375D02*
X417524D01*
X416000Y278851D02*
Y281899D01*
X393726Y301125D02*
X396774D01*
X395250Y299601D02*
Y302649D01*
X435226Y301125D02*
X438274D01*
X436750Y299601D02*
Y302649D01*
X172476Y321875D02*
X175524D01*
X174000Y320351D02*
Y323399D01*
X172476Y280375D02*
X175524D01*
X174000Y278851D02*
Y281899D01*
X151726Y301125D02*
X154774D01*
X153250Y299601D02*
Y302649D01*
X193226Y301125D02*
X196274D01*
X194750Y299601D02*
Y302649D01*
X193226Y59125D02*
X196274D01*
X194750Y57601D02*
Y60649D01*
X151726Y59125D02*
X154774D01*
X153250Y57601D02*
Y60649D01*
X172476Y38375D02*
X175524D01*
X174000Y36851D02*
Y39899D01*
X172476Y79875D02*
X175524D01*
X174000Y78351D02*
Y81399D01*
X435226Y59125D02*
X438274D01*
X436750Y57601D02*
Y60649D01*
X393726Y59125D02*
X396774D01*
X395250Y57601D02*
Y60649D01*
X414476Y38375D02*
X417524D01*
X416000Y36851D02*
Y39899D01*
X414476Y79875D02*
X417524D01*
X416000Y78351D02*
Y81399D01*
X581750Y81750D02*
X583750D01*
X582750Y80750D02*
Y82750D01*
X544500Y80000D02*
X546500D01*
X545500Y79000D02*
Y81000D01*
X205000Y203250D02*
X207000D01*
X206000Y202250D02*
Y204250D01*
X92750Y169250D02*
X94750D01*
X93750Y168250D02*
Y170250D01*
X193000Y136750D02*
X195000D01*
X194000Y135750D02*
Y137750D01*
X400250Y209500D02*
X402250D01*
X401250Y208500D02*
Y210500D01*
X347750Y180000D02*
X349750D01*
X348750Y179000D02*
Y181000D01*
X321750Y117750D02*
X323750D01*
X322750Y116750D02*
Y118750D01*
X382032Y124714D02*
X384032D01*
X383032Y123714D02*
Y125714D01*
X443000Y137000D02*
X445000D01*
X444000Y136000D02*
Y138000D01*
X467250Y169500D02*
X469250D01*
X468250Y168500D02*
Y170500D01*
X450250Y187500D02*
X452250D01*
X451250Y186500D02*
Y188500D01*
X438000Y174500D02*
X440000D01*
X439000Y173500D02*
Y175500D01*
X451000Y156000D02*
X453000D01*
X452000Y155000D02*
Y157000D01*
X461750Y146750D02*
X463750D01*
X462750Y145750D02*
Y147750D01*
X492000Y207000D02*
X494000D01*
X493000Y206000D02*
Y208000D01*
X492250Y223750D02*
X494250D01*
X493250Y222750D02*
Y224750D01*
X459250Y210750D02*
X461250D01*
X460250Y209750D02*
Y211750D01*
X443500Y222250D02*
X445500D01*
X444500Y221250D02*
Y223250D01*
X442250Y203250D02*
X444250D01*
X443250Y202250D02*
Y204250D01*
X594000Y283750D02*
X596000D01*
X595000Y282750D02*
Y284750D01*
X582000Y341250D02*
X584000D01*
X583000Y340250D02*
Y342250D01*
X559500Y311000D02*
X561500D01*
X560500Y310000D02*
Y312000D01*
X488250Y313750D02*
X490250D01*
X489250Y312750D02*
Y314750D01*
X448500Y347250D02*
X450500D01*
X449500Y346250D02*
Y348250D01*
X326500Y50750D02*
X328500D01*
X327500Y49750D02*
Y51750D01*
X370500Y92000D02*
X372500D01*
X371500Y91000D02*
Y93000D01*
X446500Y93500D02*
X448500D01*
X447500Y92500D02*
Y94500D01*
X526750Y57000D02*
X528750D01*
X527750Y56000D02*
Y58000D01*
X579000Y26750D02*
X581000D01*
X580000Y25750D02*
Y27750D01*
X638500Y103250D02*
X640500D01*
X639500Y102250D02*
Y104250D01*
X605750Y64000D02*
X607750D01*
X606750Y63000D02*
Y65000D01*
X148750Y11000D02*
X150750D01*
X149750Y10000D02*
Y12000D01*
X120250Y85750D02*
X122250D01*
X121250Y84750D02*
Y86750D01*
X57500Y57500D02*
X59500D01*
X58500Y56500D02*
Y58500D01*
X18000Y163250D02*
X20000D01*
X19000Y162250D02*
Y164250D01*
X381250Y234750D02*
X383250D01*
X382250Y233750D02*
Y235750D01*
X364750Y297250D02*
X366750D01*
X365750Y296250D02*
Y298250D01*
X375500Y337500D02*
X377500D01*
X376500Y336500D02*
Y338500D01*
X307250Y306250D02*
X309250D01*
X308250Y305250D02*
Y307250D01*
X260000Y340250D02*
X262000D01*
X261000Y339250D02*
Y341250D01*
X233000Y309500D02*
X235000D01*
X234000Y308500D02*
Y310500D01*
X281250Y274000D02*
X283250D01*
X282250Y273000D02*
Y275000D01*
X213750Y274500D02*
X215750D01*
X214750Y273500D02*
Y275500D01*
X135750Y339250D02*
X137750D01*
X136750Y338250D02*
Y340250D01*
X90250Y312750D02*
X92250D01*
X91250Y311750D02*
Y313750D01*
X99734Y257000D02*
X101766D01*
X100750Y255984D02*
Y258016D01*
X488000Y106000D02*
X490000D01*
X489000Y105000D02*
Y107000D01*
X467288Y93248D02*
X469288D01*
X468288Y92248D02*
Y94248D01*
X441699Y105752D02*
X443699D01*
X442699Y104752D02*
Y106752D01*
X441699Y118247D02*
X443699D01*
X442699Y117247D02*
Y119247D01*
X465349Y118247D02*
X467349D01*
X466349Y117247D02*
Y119247D01*
X469720Y131503D02*
X471721D01*
X470720Y130503D02*
Y132503D01*
X619770Y124750D02*
X621802D01*
X620786Y123734D02*
Y125766D01*
X602488Y136398D02*
X604520D01*
X603504Y135382D02*
Y137414D01*
X290050Y211959D02*
X292050D01*
X291050Y210959D02*
Y212959D01*
X522005Y94000D02*
X524037D01*
X523021Y92984D02*
Y95016D01*
X572234Y108500D02*
X574266D01*
X573250Y107484D02*
Y109516D01*
X585738Y134608D02*
X587770D01*
X586754Y133592D02*
Y135624D01*
X568699Y131356D02*
X570731D01*
X569715Y130340D02*
Y132372D01*
X437134Y109460D02*
X439166D01*
X438150Y108444D02*
Y110476D01*
X290050Y216975D02*
X292050D01*
X291050Y215975D02*
Y217975D01*
X437134Y114540D02*
X439166D01*
X438150Y113524D02*
Y115556D01*
X79040Y244659D02*
X81073D01*
X80056Y243643D02*
Y245675D01*
X66123Y237822D02*
X68155D01*
X67139Y236807D02*
Y238839D01*
X237984Y207000D02*
X240016D01*
X239000Y205984D02*
Y208016D01*
X471984Y120920D02*
X474016D01*
X473000Y119904D02*
Y121936D01*
X471984Y126000D02*
X474016D01*
X473000Y124984D02*
Y127016D01*
X218534Y142076D02*
X220566D01*
X219550Y141060D02*
Y143092D01*
X239234Y194860D02*
X241266D01*
X240250Y193844D02*
Y195876D01*
X220472Y186690D02*
X222504D01*
X221488Y185674D02*
Y187706D01*
X218534Y195352D02*
X220566D01*
X219550Y194336D02*
Y196368D01*
X520954Y125476D02*
X522986D01*
X521970Y124460D02*
Y126492D01*
X569012Y120396D02*
X571044D01*
X570028Y119380D02*
Y121412D01*
X520954Y120396D02*
X522986D01*
X521970Y119380D02*
Y121412D01*
X569012Y125476D02*
X571044D01*
X570028Y124460D02*
Y126492D01*
X613604Y158527D02*
X615636D01*
X614620Y157511D02*
Y159543D01*
X594968Y105675D02*
X597000D01*
X595984Y104659D02*
Y106691D01*
X597154Y133858D02*
X599186D01*
X598170Y132842D02*
Y134874D01*
X589888Y105675D02*
X591920D01*
X590904Y104659D02*
Y106691D01*
X592074Y133858D02*
X594106D01*
X593090Y132842D02*
Y134874D01*
X518160Y263652D02*
X520192D01*
X519176Y262636D02*
Y264668D01*
X550523Y250013D02*
X552555D01*
X551539Y248997D02*
Y251029D01*
X488056Y165899D02*
X490056D01*
X489056Y164899D02*
Y166899D01*
X484378Y194564D02*
X486410D01*
X485394Y193548D02*
Y195580D01*
X471876Y189994D02*
X473908D01*
X472892Y188978D02*
Y191010D01*
X489728Y190246D02*
X491728D01*
X490728Y189246D02*
Y191246D01*
X312674Y161544D02*
X314706D01*
X313690Y160528D02*
Y162560D01*
X383540Y137668D02*
X385572D01*
X384556Y136652D02*
Y138684D01*
X468376Y195326D02*
X470408D01*
X469392Y194310D02*
Y196342D01*
X472202Y165862D02*
X474202D01*
X473202Y164862D02*
Y166862D01*
X489416Y120206D02*
X491416D01*
X490416Y119206D02*
Y121206D01*
X501353Y146105D02*
X503385D01*
X502369Y145089D02*
Y147121D01*
X497432Y167397D02*
X499464D01*
X498448Y166381D02*
Y168413D01*
X470740Y146550D02*
X472772D01*
X471756Y145534D02*
Y147566D01*
X516636Y171196D02*
X518668D01*
X517652Y170180D02*
Y172212D01*
X516128Y194056D02*
X518160D01*
X517144Y193040D02*
Y195072D01*
X389890Y108030D02*
X391922D01*
X390906Y107014D02*
Y109046D01*
X389890Y103030D02*
X391922D01*
X390906Y102014D02*
Y104046D01*
X389890Y98030D02*
X391922D01*
X390906Y97014D02*
Y99046D01*
X389890Y113030D02*
X391922D01*
X390906Y112014D02*
Y114046D01*
X308848Y235690D02*
X310848D01*
X309848Y234690D02*
Y236690D01*
X325898Y257556D02*
X327898D01*
X326898Y256556D02*
Y258556D01*
X331978Y196596D02*
X334010D01*
X332994Y195580D02*
Y197612D01*
X453978Y291418D02*
X456010D01*
X454994Y290402D02*
Y292434D01*
X414551Y265587D02*
X416583D01*
X415567Y264571D02*
Y266603D01*
X525879Y330997D02*
X527879D01*
X526879Y329997D02*
Y331997D01*
X500030Y330101D02*
X502030D01*
X501030Y329100D02*
Y331101D01*
X345448Y140152D02*
X347480D01*
X346464Y139136D02*
Y141168D01*
X129000Y155000D02*
X131000D01*
X130000Y154000D02*
Y156000D01*
X119000Y155000D02*
X121000D01*
X120000Y154000D02*
Y156000D01*
X134000Y155000D02*
X136000D01*
X135000Y154000D02*
Y156000D01*
X124000Y155000D02*
X126000D01*
X125000Y154000D02*
Y156000D01*
X131318Y100213D02*
X133350D01*
X132334Y99197D02*
Y101229D01*
X141412Y106428D02*
X143444D01*
X142428Y105412D02*
Y107444D01*
X266614Y46216D02*
X268614D01*
X267614Y45216D02*
Y47216D01*
X226638Y113593D02*
X228638D01*
X227638Y112592D02*
Y114593D01*
X284911Y49440D02*
X286911D01*
X285911Y48440D02*
Y50440D01*
X306832Y47498D02*
X308864D01*
X307848Y46482D02*
Y48514D01*
X464566Y284480D02*
X466598D01*
X465582Y283464D02*
Y285496D01*
X459994Y279146D02*
X462026D01*
X461010Y278130D02*
Y280162D01*
X455168Y275082D02*
X457200D01*
X456184Y274066D02*
Y276098D01*
X355066Y118872D02*
X357098D01*
X356082Y117856D02*
Y119888D01*
X361765Y118872D02*
X363797D01*
X362781Y117856D02*
Y119888D01*
X367538Y118872D02*
X369570D01*
X368554Y117856D02*
Y119888D01*
X302006Y89154D02*
X304038D01*
X303022Y88138D02*
Y90170D01*
X286004Y79502D02*
X288036D01*
X287020Y78486D02*
Y80518D01*
X311658Y131572D02*
X313690D01*
X312674Y130556D02*
Y132588D01*
X284088Y208037D02*
X286088D01*
X285088Y207037D02*
Y209037D01*
X284342Y222769D02*
X286342D01*
X285342Y221769D02*
Y223769D01*
X293740Y222769D02*
X295740D01*
X294740Y221769D02*
Y223769D01*
X471484Y97460D02*
X473516D01*
X472500Y96444D02*
Y98476D01*
X471484Y102540D02*
X473516D01*
X472500Y101524D02*
Y103556D01*
X582522Y105871D02*
X584554D01*
X583538Y104855D02*
Y106887D01*
X577442Y105929D02*
X579474D01*
X578458Y104913D02*
Y106945D01*
X592074Y205978D02*
X594106D01*
X593090Y204962D02*
Y206994D01*
X626618Y232424D02*
X628650D01*
X627634Y231408D02*
Y233440D01*
X623824Y181356D02*
X625856D01*
X624840Y180340D02*
Y182372D01*
X621704Y196000D02*
X623736D01*
X622720Y194984D02*
Y197016D01*
X611178Y163285D02*
X613210D01*
X612194Y162269D02*
Y164301D01*
X591058Y250190D02*
X593090D01*
X592074Y249174D02*
Y251206D01*
X613156Y173228D02*
X615188D01*
X614172Y172212D02*
Y174244D01*
X577088Y179324D02*
X579120D01*
X578104Y178308D02*
Y180340D01*
X577088Y184404D02*
X579120D01*
X578104Y183388D02*
Y185420D01*
X625094Y191516D02*
X627126D01*
X626110Y190500D02*
Y192532D01*
X625094Y186436D02*
X627126D01*
X626110Y185420D02*
Y187452D01*
X574953Y160032D02*
X576986D01*
X575970Y159016D02*
Y161048D01*
X574517Y132157D02*
X576549D01*
X575533Y131141D02*
Y133173D01*
X579597Y132157D02*
X581629D01*
X580613Y131141D02*
Y133173D01*
X571346Y152103D02*
X573378D01*
X572362Y151087D02*
Y153119D01*
X612022Y153412D02*
X614054D01*
X613038Y152396D02*
Y154428D01*
X610711Y168365D02*
X612743D01*
X611727Y167349D02*
Y169381D01*
X612276Y147824D02*
X614308D01*
X613292Y146808D02*
Y148840D01*
X515924Y81090D02*
X517956D01*
X516940Y80074D02*
Y82106D01*
X522870Y106172D02*
X524902D01*
X523886Y105156D02*
Y107188D01*
X515874Y118110D02*
X517906D01*
X516890Y117094D02*
Y119126D01*
X517194Y141756D02*
X519226D01*
X518210Y140740D02*
Y142772D01*
X516874Y130048D02*
X518906D01*
X517890Y129032D02*
Y131064D01*
X44984Y93000D02*
X47016D01*
X46000Y91984D02*
Y94016D01*
X98084Y36100D02*
X100116D01*
X99100Y35084D02*
Y37116D01*
X68084Y36100D02*
X70116D01*
X69100Y35084D02*
Y37116D01*
X99484Y22500D02*
X101516D01*
X100500Y21484D02*
Y23516D01*
X69484Y22500D02*
X71516D01*
X70500Y21484D02*
Y23516D01*
X108984Y48000D02*
X111016D01*
X110000Y46984D02*
Y49016D01*
X78984Y48000D02*
X81016D01*
X80000Y46984D02*
Y49016D01*
X93097Y225012D02*
X95129D01*
X94113Y223996D02*
Y226028D01*
X79999Y252523D02*
X82031D01*
X81015Y251507D02*
Y253540D01*
X60482Y257952D02*
X62514D01*
X61498Y256936D02*
Y258968D01*
X81122Y231012D02*
X83154D01*
X82138Y229996D02*
Y232028D01*
X85433Y220095D02*
X87465D01*
X86448Y219079D02*
Y221111D01*
X66075Y222512D02*
X68107D01*
X67091Y221496D02*
Y223528D01*
X76751Y239762D02*
X78783D01*
X77768Y238746D02*
Y240778D01*
X90986Y251158D02*
X93019D01*
X92002Y250142D02*
Y252174D01*
X87561Y255281D02*
X89593D01*
X88577Y254265D02*
Y256297D01*
X66018Y217432D02*
X68050D01*
X67034Y216416D02*
Y218448D01*
X65878Y247543D02*
X67910D01*
X66894Y246527D02*
Y248559D01*
X66075Y262592D02*
X68107D01*
X67091Y261576D02*
Y263608D01*
X85433Y215015D02*
X87465D01*
X86448Y213999D02*
Y216031D01*
X66623Y209509D02*
X68655D01*
X67639Y208493D02*
Y210525D01*
X56121Y279445D02*
X58153D01*
X57137Y278430D02*
Y280462D01*
X82688Y279989D02*
X84720D01*
X83704Y278973D02*
Y281005D01*
X127879Y217970D02*
X129911D01*
X128895Y216954D02*
Y218986D01*
X116621Y200023D02*
X118653D01*
X117637Y199007D02*
Y201039D01*
X90435Y209770D02*
X92435D01*
X91435Y208770D02*
Y210770D01*
X526896Y101611D02*
X528928D01*
X527912Y100595D02*
Y102627D01*
X526896Y96531D02*
X528928D01*
X527912Y95515D02*
Y97547D01*
X304253Y160209D02*
X306285D01*
X305269Y159193D02*
Y161225D01*
X466223Y256649D02*
X468223D01*
X467223Y255649D02*
Y257649D01*
X261511Y184439D02*
X263543D01*
X262528Y183423D02*
Y185455D01*
X268404Y199815D02*
X270404D01*
X269404Y198815D02*
Y200815D01*
X284755Y185563D02*
X286755D01*
X285755Y184563D02*
Y186563D01*
X215487Y172161D02*
X217519D01*
X216503Y171145D02*
Y173177D01*
X250361Y184908D02*
X252393D01*
X251377Y183892D02*
Y185924D01*
X509544Y74094D02*
X511576D01*
X510560Y73078D02*
Y75110D01*
X463175Y69731D02*
X465175D01*
X464175Y68731D02*
Y70731D01*
X463055Y86046D02*
X465055D01*
X464055Y85046D02*
Y87046D01*
X487023Y157011D02*
X489023D01*
X488023Y156011D02*
Y158011D01*
X341972Y265017D02*
X343971D01*
X342971Y264017D02*
Y266017D01*
X333711Y274137D02*
X335711D01*
X334711Y273137D02*
Y275137D01*
X325914Y179069D02*
X327914D01*
X326914Y178069D02*
Y180069D01*
X274703Y96913D02*
X276703D01*
X275703Y95913D02*
Y97913D01*
X274703Y105072D02*
X276703D01*
X275703Y104072D02*
Y106072D01*
X255600Y40495D02*
X257600D01*
X256600Y39495D02*
Y41495D01*
X295618Y51190D02*
X297617D01*
X296618Y50190D02*
Y52190D01*
X235780Y230028D02*
X237780D01*
X236780Y229028D02*
Y231028D01*
X230550Y230261D02*
X232550D01*
X231550Y229261D02*
Y231261D01*
X235580Y237705D02*
X237580D01*
X236580Y236705D02*
Y238705D01*
X230550Y237854D02*
X232550D01*
X231550Y236854D02*
Y238854D01*
X235431Y246628D02*
X237430D01*
X236430Y245628D02*
Y247628D01*
X230550Y246777D02*
X232550D01*
X231550Y245777D02*
Y247777D01*
X235596Y254270D02*
X237596D01*
X236596Y253270D02*
Y255270D01*
X230550Y254261D02*
X232550D01*
X231550Y253261D02*
Y255261D01*
X208096Y66654D02*
X210096D01*
X209096Y65654D02*
Y67654D01*
X226371Y66461D02*
X228371D01*
X227371Y65461D02*
Y67461D01*
X251002Y65937D02*
X253002D01*
X252002Y64937D02*
Y66937D01*
X253644Y99334D02*
X255644D01*
X254644Y98334D02*
Y100334D01*
X270705Y128575D02*
X272705D01*
X271705Y127575D02*
Y129575D01*
X237982Y130447D02*
X239982D01*
X238982Y129447D02*
Y131447D01*
X516636Y166370D02*
X518668D01*
X517652Y165354D02*
Y167386D01*
X503174Y189992D02*
X505206D01*
X504190Y188976D02*
Y191008D01*
X469770Y218849D02*
X471770D01*
X470770Y217849D02*
Y219849D01*
X486810Y240709D02*
X488810D01*
X487810Y239709D02*
Y241709D01*
X487096Y252833D02*
X489096D01*
X488096Y251833D02*
Y253833D01*
X486906Y264765D02*
X488905D01*
X487906Y263765D02*
Y265765D01*
X501626Y240812D02*
X503658D01*
X502642Y239796D02*
Y241828D01*
X501523Y252879D02*
X503555D01*
X502539Y251863D02*
Y253895D01*
X501349Y264616D02*
X503349D01*
X502349Y263616D02*
Y265616D01*
X501900Y276703D02*
X503900D01*
X502900Y275703D02*
Y277703D01*
X463456Y8734D02*
X465456D01*
X464456Y7734D02*
Y9734D01*
X411334Y8393D02*
X413334D01*
X412334Y7393D02*
Y9393D01*
X350028Y35052D02*
X352028D01*
X351028Y34052D02*
Y36052D01*
X313952Y9079D02*
X315952D01*
X314952Y8079D02*
Y10079D01*
X282464Y30734D02*
X284464D01*
X283464Y29734D02*
Y31734D01*
X216678Y31242D02*
X218678D01*
X217678Y30242D02*
Y32242D01*
X198390Y10668D02*
X200390D01*
X199390Y9668D02*
Y11668D01*
X345513Y235760D02*
X347513D01*
X346513Y234760D02*
Y236760D01*
X500724Y124086D02*
X502756D01*
X501740Y123070D02*
Y125102D01*
X499990Y97453D02*
X502022D01*
X501006Y96437D02*
Y98469D01*
X489416Y91581D02*
X491416D01*
X490416Y90581D02*
Y92581D01*
X586287Y109290D02*
X588319D01*
X587303Y108274D02*
Y110306D01*
X599286Y109231D02*
X601318D01*
X600302Y108215D02*
Y110247D01*
X487816Y137284D02*
X489816D01*
X488816Y136284D02*
Y138284D01*
X488812Y145553D02*
X490812D01*
X489812Y144553D02*
Y146553D01*
X255203Y239150D02*
X257203D01*
X256203Y238150D02*
Y240150D01*
X284561Y243270D02*
X286560D01*
X285560Y242270D02*
Y244270D01*
X237071Y87811D02*
X239071D01*
X238071Y86811D02*
Y88811D01*
X234858Y80486D02*
X236858D01*
X235858Y79486D02*
Y81486D01*
X224787Y80792D02*
X226787D01*
X225787Y79792D02*
Y81792D01*
X214913Y80783D02*
X216913D01*
X215913Y79783D02*
Y81783D01*
X205075Y80944D02*
X207075D01*
X206075Y79944D02*
Y81944D01*
X202172Y88524D02*
X204172D01*
X203172Y87524D02*
Y89524D01*
X209671Y113828D02*
X211671D01*
X210671Y112828D02*
Y114828D01*
X461647Y238425D02*
X463647D01*
X462647Y237425D02*
Y239425D01*
X487542Y150633D02*
X489542D01*
X488542Y149633D02*
Y151633D01*
X302684Y238425D02*
X304684D01*
X303684Y237425D02*
Y239425D01*
X297753Y259538D02*
X299753D01*
X298753Y258538D02*
Y260539D01*
X138022Y182289D02*
X140054D01*
X139038Y181273D02*
Y183305D01*
X162561Y195352D02*
X164593D01*
X163577Y194336D02*
Y196368D01*
X295222Y186508D02*
X297254D01*
X296238Y185492D02*
Y187524D01*
X210811Y165816D02*
X212843D01*
X211827Y164800D02*
Y166832D01*
M02*
