G04*
G04 #@! TF.GenerationSoftware,Altium Limited,Altium Designer,21.2.2 (38)*
G04*
G04 Layer_Color=255*
%FSLAX44Y44*%
%MOMM*%
G71*
G04*
G04 #@! TF.SameCoordinates,2A6C1C92-B5F8-495A-87A3-FCD029FF8D19*
G04*
G04*
G04 #@! TF.FilePolarity,Positive*
G04*
G01*
G75*
%ADD17R,0.6200X0.6200*%
%ADD30R,1.0000X0.9000*%
%ADD39C,1.0000*%
%ADD60C,0.7500*%
%ADD72C,5.3000*%
%ADD73C,5.5000*%
%ADD74O,1.9000X1.1000*%
%ADD75O,2.4000X1.1000*%
%ADD76C,1.3680*%
%ADD77R,1.3680X1.3680*%
%ADD82R,0.5000X0.2200*%
%ADD83R,0.7000X1.3000*%
%ADD84R,0.5000X0.2500*%
%ADD85R,0.3000X0.3000*%
%ADD86R,0.4000X0.9000*%
%ADD87R,0.7000X0.3000*%
%ADD88R,0.7000X1.0000*%
G04:AMPARAMS|DCode=89|XSize=0.8mm|YSize=0.8mm|CornerRadius=0.2mm|HoleSize=0mm|Usage=FLASHONLY|Rotation=90.000|XOffset=0mm|YOffset=0mm|HoleType=Round|Shape=RoundedRectangle|*
%AMROUNDEDRECTD89*
21,1,0.8000,0.4000,0,0,90.0*
21,1,0.4000,0.8000,0,0,90.0*
1,1,0.4000,0.2000,0.2000*
1,1,0.4000,0.2000,-0.2000*
1,1,0.4000,-0.2000,-0.2000*
1,1,0.4000,-0.2000,0.2000*
%
%ADD89ROUNDEDRECTD89*%
%ADD90R,1.5000X2.0000*%
%ADD91R,0.1500X0.1500*%
%ADD92R,0.1500X0.1500*%
%ADD93P,0.6788X4X270.0*%
%ADD94R,0.7500X0.2200*%
%ADD95R,3.4000X1.0000*%
%ADD96R,0.7600X0.7000*%
%ADD97R,0.7000X0.7600*%
%ADD98R,1.1430X1.2700*%
D17*
X288438Y194008D02*
D03*
X297438D02*
D03*
X297200Y159889D02*
D03*
X288200D02*
D03*
D30*
X228632Y88905D02*
D03*
Y104905D02*
D03*
X212504Y89249D02*
D03*
Y105249D02*
D03*
D39*
X70000Y340000D02*
D03*
X630000Y80000D02*
D03*
X134673Y20427D02*
D03*
D60*
X177979Y13655D02*
D03*
D72*
X416000Y301125D02*
D03*
X174000D02*
D03*
Y59125D02*
D03*
X416000D02*
D03*
D73*
X620000Y30000D02*
D03*
X30000D02*
D03*
Y330000D02*
D03*
X620000D02*
D03*
D74*
X69538Y196800D02*
D03*
Y283200D02*
D03*
D75*
X15938Y196800D02*
D03*
Y283200D02*
D03*
D76*
X84500Y110000D02*
D03*
D77*
Y130000D02*
D03*
D82*
X607000Y188000D02*
D03*
Y192000D02*
D03*
X583000Y208000D02*
D03*
Y204000D02*
D03*
Y200000D02*
D03*
Y196000D02*
D03*
Y192000D02*
D03*
Y188000D02*
D03*
Y184000D02*
D03*
Y180000D02*
D03*
Y176000D02*
D03*
Y172000D02*
D03*
Y168000D02*
D03*
Y164000D02*
D03*
Y160000D02*
D03*
Y156000D02*
D03*
Y152000D02*
D03*
X607000D02*
D03*
Y156000D02*
D03*
Y160000D02*
D03*
Y164000D02*
D03*
Y168000D02*
D03*
Y172000D02*
D03*
Y176000D02*
D03*
Y180000D02*
D03*
Y184000D02*
D03*
Y196000D02*
D03*
Y200000D02*
D03*
Y204000D02*
D03*
Y208000D02*
D03*
D83*
X303064Y79800D02*
D03*
D84*
X312564Y87300D02*
D03*
Y82300D02*
D03*
Y77300D02*
D03*
Y72300D02*
D03*
X293564Y87300D02*
D03*
Y82300D02*
D03*
Y77300D02*
D03*
Y72300D02*
D03*
D85*
X98137Y243511D02*
D03*
Y236511D02*
D03*
X89637Y240011D02*
D03*
D86*
X326914Y248616D02*
D03*
X320414D02*
D03*
Y224616D02*
D03*
X333414Y248616D02*
D03*
Y224616D02*
D03*
X333414Y148819D02*
D03*
Y172819D02*
D03*
X320414Y148819D02*
D03*
Y172819D02*
D03*
X326914D02*
D03*
D87*
X73639Y260000D02*
D03*
Y265000D02*
D03*
Y210000D02*
D03*
Y225000D02*
D03*
Y230000D02*
D03*
Y235000D02*
D03*
Y245000D02*
D03*
Y250000D02*
D03*
Y255000D02*
D03*
Y270000D02*
D03*
X60639Y252500D02*
D03*
Y247500D02*
D03*
Y232500D02*
D03*
Y227500D02*
D03*
X73639Y220000D02*
D03*
Y215000D02*
D03*
X60639Y262500D02*
D03*
Y257500D02*
D03*
Y242500D02*
D03*
Y237500D02*
D03*
Y222500D02*
D03*
Y217500D02*
D03*
D88*
Y271000D02*
D03*
Y209000D02*
D03*
D89*
X80000Y37500D02*
D03*
Y22500D02*
D03*
X110000Y37500D02*
D03*
Y22500D02*
D03*
D90*
X30000Y147000D02*
D03*
Y93000D02*
D03*
D91*
X289638Y170008D02*
D03*
D92*
X296238D02*
D03*
X289638Y180208D02*
D03*
X296238D02*
D03*
D93*
X292938Y175108D02*
D03*
D94*
X510650Y102000D02*
D03*
Y98000D02*
D03*
Y90000D02*
D03*
Y86000D02*
D03*
Y138000D02*
D03*
Y134000D02*
D03*
X479350Y126000D02*
D03*
Y122000D02*
D03*
Y102000D02*
D03*
Y98000D02*
D03*
X510650Y262000D02*
D03*
Y258000D02*
D03*
Y274000D02*
D03*
Y270000D02*
D03*
Y250000D02*
D03*
Y246000D02*
D03*
X479350Y250000D02*
D03*
Y246000D02*
D03*
Y262000D02*
D03*
Y258000D02*
D03*
Y274000D02*
D03*
Y270000D02*
D03*
Y278000D02*
D03*
Y266000D02*
D03*
Y254000D02*
D03*
Y242000D02*
D03*
Y238000D02*
D03*
Y234000D02*
D03*
Y230000D02*
D03*
Y226000D02*
D03*
Y222000D02*
D03*
Y218000D02*
D03*
Y214000D02*
D03*
Y210000D02*
D03*
Y206000D02*
D03*
Y202000D02*
D03*
Y198000D02*
D03*
Y194000D02*
D03*
Y190000D02*
D03*
Y186000D02*
D03*
Y182000D02*
D03*
Y178000D02*
D03*
Y174000D02*
D03*
Y170000D02*
D03*
Y166000D02*
D03*
Y162000D02*
D03*
Y158000D02*
D03*
Y154000D02*
D03*
Y150000D02*
D03*
Y146000D02*
D03*
Y142000D02*
D03*
Y138000D02*
D03*
Y134000D02*
D03*
Y130000D02*
D03*
Y118000D02*
D03*
Y106000D02*
D03*
Y94000D02*
D03*
Y90000D02*
D03*
Y86000D02*
D03*
Y82000D02*
D03*
X510650Y278000D02*
D03*
Y266000D02*
D03*
Y254000D02*
D03*
Y242000D02*
D03*
Y238000D02*
D03*
Y234000D02*
D03*
Y230000D02*
D03*
Y226000D02*
D03*
Y222000D02*
D03*
Y218000D02*
D03*
Y214000D02*
D03*
Y210000D02*
D03*
Y206000D02*
D03*
Y202000D02*
D03*
Y198000D02*
D03*
Y194000D02*
D03*
Y190000D02*
D03*
Y186000D02*
D03*
Y182000D02*
D03*
Y178000D02*
D03*
Y174000D02*
D03*
Y170000D02*
D03*
Y166000D02*
D03*
Y162000D02*
D03*
Y158000D02*
D03*
Y154000D02*
D03*
Y150000D02*
D03*
Y146000D02*
D03*
Y142000D02*
D03*
Y130000D02*
D03*
Y118000D02*
D03*
Y106000D02*
D03*
Y94000D02*
D03*
Y82000D02*
D03*
Y126000D02*
D03*
Y122000D02*
D03*
Y114000D02*
D03*
Y110000D02*
D03*
X479350D02*
D03*
Y114000D02*
D03*
D95*
X339337Y68450D02*
D03*
Y90450D02*
D03*
D96*
X267387Y88281D02*
D03*
Y103521D02*
D03*
X267387Y70493D02*
D03*
Y55253D02*
D03*
D97*
X319294Y189758D02*
D03*
X334534D02*
D03*
X334534Y131560D02*
D03*
X319294D02*
D03*
X334534Y264808D02*
D03*
X319294D02*
D03*
X334534Y208619D02*
D03*
X319294D02*
D03*
D98*
X307911Y100912D02*
D03*
X285911D02*
D03*
X307911Y58412D02*
D03*
X285911D02*
D03*
M02*
