G04*
G04 #@! TF.GenerationSoftware,Altium Limited,Altium Designer,21.2.2 (38)*
G04*
G04 Layer_Color=32768*
%FSLAX44Y44*%
%MOMM*%
G71*
G04*
G04 #@! TF.SameCoordinates,2A6C1C92-B5F8-495A-87A3-FCD029FF8D19*
G04*
G04*
G04 #@! TF.FilePolarity,Positive*
G04*
G01*
G75*
%ADD13C,0.1000*%
%ADD65C,0.1524*%
D13*
X0Y-113000D02*
X1000Y-112667D01*
X0Y-113000D02*
X1000Y-113333D01*
X649000D02*
X650000Y-113000D01*
X649000Y-112667D02*
X650000Y-113000D01*
X0D02*
X284403D01*
X360549D02*
X650000D01*
X0Y-114000D02*
Y0D01*
X650000Y-114000D02*
Y28500D01*
X-49000Y360000D02*
X-48667Y359000D01*
X-49333D02*
X-49000Y360000D01*
X-49333Y1000D02*
X-49000Y0D01*
X-48667Y1000D01*
X-49000Y215548D02*
Y360000D01*
Y0D02*
Y139403D01*
X-50000Y360000D02*
X28500D01*
X-50000Y0D02*
X0D01*
D65*
X297084Y-109446D02*
X292006Y-111985D01*
X286928Y-117063D01*
Y-122142D01*
X289467Y-124681D01*
X294545D01*
X297084Y-122142D01*
Y-119602D01*
X294545Y-117063D01*
X286928D01*
X312319Y-109446D02*
X302163D01*
Y-117063D01*
X307241Y-114524D01*
X309780D01*
X312319Y-117063D01*
Y-122142D01*
X309780Y-124681D01*
X304702D01*
X302163Y-122142D01*
X319937Y-127220D02*
X322476Y-124681D01*
Y-122142D01*
X319937D01*
Y-124681D01*
X322476D01*
X319937Y-127220D01*
X317398Y-129759D01*
X332633Y-111985D02*
X335172Y-109446D01*
X340250D01*
X342789Y-111985D01*
Y-122142D01*
X340250Y-124681D01*
X335172D01*
X332633Y-122142D01*
Y-111985D01*
X347868D02*
X350407Y-109446D01*
X355485D01*
X358024Y-111985D01*
Y-122142D01*
X355485Y-124681D01*
X350407D01*
X347868Y-122142D01*
Y-111985D01*
X-50015Y141927D02*
X-52554Y144467D01*
Y149545D01*
X-50015Y152084D01*
X-47476D01*
X-44937Y149545D01*
Y147006D01*
Y149545D01*
X-42398Y152084D01*
X-39859D01*
X-37319Y149545D01*
Y144467D01*
X-39859Y141927D01*
X-52554Y167319D02*
X-50015Y162241D01*
X-44937Y157163D01*
X-39859D01*
X-37319Y159702D01*
Y164780D01*
X-39859Y167319D01*
X-42398D01*
X-44937Y164780D01*
Y157163D01*
X-34780Y174937D02*
X-37319Y177476D01*
X-39859D01*
Y174937D01*
X-37319D01*
Y177476D01*
X-34780Y174937D01*
X-32241Y172398D01*
X-50015Y187633D02*
X-52554Y190172D01*
Y195250D01*
X-50015Y197789D01*
X-39859D01*
X-37319Y195250D01*
Y190172D01*
X-39859Y187633D01*
X-50015D01*
Y202868D02*
X-52554Y205407D01*
Y210485D01*
X-50015Y213025D01*
X-39859D01*
X-37319Y210485D01*
Y205407D01*
X-39859Y202868D01*
X-50015D01*
M02*
