G04*
G04 #@! TF.GenerationSoftware,Altium Limited,Altium Designer,20.0.13 (296)*
G04*
G04 Layer_Color=8388736*
%FSLAX44Y44*%
%MOMM*%
G71*
G01*
G75*
G36*
X305922Y-24626D02*
X306144Y-24644D01*
X306403Y-24681D01*
X306663Y-24718D01*
X306959Y-24774D01*
X306718Y-26144D01*
X306700D01*
X306644Y-26126D01*
X306552Y-26107D01*
X306422Y-26089D01*
X306274D01*
X306126Y-26070D01*
X305792Y-26052D01*
X305681D01*
X305552Y-26070D01*
X305403Y-26089D01*
X305237Y-26126D01*
X305070Y-26181D01*
X304922Y-26255D01*
X304792Y-26367D01*
X304774Y-26385D01*
X304755Y-26422D01*
X304700Y-26496D01*
X304644Y-26626D01*
X304589Y-26774D01*
X304552Y-26959D01*
X304515Y-27200D01*
X304496Y-27496D01*
Y-28348D01*
X306292D01*
Y-29570D01*
X304496D01*
Y-37643D01*
X302922D01*
Y-29570D01*
X301534D01*
Y-28348D01*
X302922D01*
Y-27366D01*
Y-27348D01*
Y-27329D01*
Y-27218D01*
X302941Y-27052D01*
Y-26848D01*
X302959Y-26626D01*
X302996Y-26385D01*
X303033Y-26163D01*
X303089Y-25978D01*
X303107Y-25959D01*
X303126Y-25866D01*
X303181Y-25755D01*
X303274Y-25626D01*
X303385Y-25478D01*
X303515Y-25311D01*
X303682Y-25144D01*
X303885Y-24996D01*
X303904Y-24978D01*
X303996Y-24941D01*
X304126Y-24867D01*
X304311Y-24793D01*
X304533Y-24737D01*
X304811Y-24663D01*
X305126Y-24626D01*
X305496Y-24607D01*
X305755D01*
X305922Y-24626D01*
D02*
G37*
G36*
X409689Y-26626D02*
X408115D01*
Y-24830D01*
X409689D01*
Y-26626D01*
D02*
G37*
G36*
X227430Y-24626D02*
X227578D01*
X227930Y-24663D01*
X228319Y-24718D01*
X228726Y-24811D01*
X229171Y-24922D01*
X229597Y-25070D01*
X229615D01*
X229652Y-25089D01*
X229708Y-25107D01*
X229782Y-25144D01*
X229985Y-25255D01*
X230245Y-25385D01*
X230522Y-25570D01*
X230819Y-25793D01*
X231096Y-26033D01*
X231356Y-26330D01*
X231393Y-26367D01*
X231467Y-26478D01*
X231578Y-26644D01*
X231726Y-26885D01*
X231874Y-27181D01*
X232041Y-27552D01*
X232207Y-27959D01*
X232337Y-28422D01*
X230800Y-28829D01*
Y-28811D01*
X230782Y-28792D01*
X230763Y-28737D01*
X230745Y-28663D01*
X230689Y-28496D01*
X230615Y-28274D01*
X230504Y-28015D01*
X230374Y-27774D01*
X230245Y-27515D01*
X230078Y-27292D01*
X230060Y-27274D01*
X230004Y-27200D01*
X229893Y-27107D01*
X229763Y-26978D01*
X229597Y-26829D01*
X229374Y-26681D01*
X229134Y-26533D01*
X228856Y-26404D01*
X228819Y-26385D01*
X228726Y-26348D01*
X228560Y-26293D01*
X228337Y-26218D01*
X228078Y-26163D01*
X227782Y-26107D01*
X227449Y-26070D01*
X227097Y-26052D01*
X226893D01*
X226801Y-26070D01*
X226689D01*
X226412Y-26089D01*
X226097Y-26144D01*
X225745Y-26200D01*
X225412Y-26293D01*
X225079Y-26422D01*
X225042Y-26441D01*
X224930Y-26478D01*
X224782Y-26570D01*
X224597Y-26663D01*
X224375Y-26811D01*
X224134Y-26959D01*
X223912Y-27144D01*
X223708Y-27348D01*
X223690Y-27366D01*
X223616Y-27441D01*
X223523Y-27570D01*
X223412Y-27718D01*
X223282Y-27903D01*
X223153Y-28126D01*
X223023Y-28366D01*
X222894Y-28626D01*
Y-28644D01*
X222875Y-28681D01*
X222857Y-28737D01*
X222819Y-28829D01*
X222782Y-28940D01*
X222745Y-29070D01*
X222690Y-29218D01*
X222653Y-29385D01*
X222560Y-29774D01*
X222486Y-30218D01*
X222431Y-30681D01*
X222412Y-31199D01*
Y-31218D01*
Y-31273D01*
Y-31366D01*
X222431Y-31477D01*
Y-31625D01*
X222449Y-31810D01*
X222468Y-31996D01*
X222486Y-32199D01*
X222560Y-32662D01*
X222653Y-33144D01*
X222801Y-33625D01*
X222986Y-34088D01*
Y-34107D01*
X223023Y-34144D01*
X223042Y-34199D01*
X223097Y-34273D01*
X223227Y-34477D01*
X223431Y-34736D01*
X223671Y-35014D01*
X223967Y-35292D01*
X224319Y-35551D01*
X224708Y-35791D01*
X224727D01*
X224764Y-35810D01*
X224819Y-35847D01*
X224912Y-35884D01*
X225005Y-35921D01*
X225134Y-35958D01*
X225430Y-36069D01*
X225801Y-36162D01*
X226208Y-36254D01*
X226652Y-36328D01*
X227115Y-36347D01*
X227300D01*
X227412Y-36328D01*
X227523D01*
X227801Y-36291D01*
X228134Y-36254D01*
X228486Y-36180D01*
X228874Y-36069D01*
X229263Y-35940D01*
X229282D01*
X229319Y-35921D01*
X229356Y-35903D01*
X229430Y-35865D01*
X229634Y-35773D01*
X229856Y-35662D01*
X230115Y-35532D01*
X230393Y-35384D01*
X230652Y-35217D01*
X230874Y-35032D01*
Y-32625D01*
X227097D01*
Y-31107D01*
X232541D01*
Y-35865D01*
X232522Y-35884D01*
X232485Y-35903D01*
X232411Y-35958D01*
X232318Y-36032D01*
X232207Y-36106D01*
X232078Y-36199D01*
X231911Y-36310D01*
X231744Y-36421D01*
X231356Y-36662D01*
X230911Y-36921D01*
X230448Y-37162D01*
X229948Y-37365D01*
X229930D01*
X229893Y-37384D01*
X229819Y-37402D01*
X229726Y-37439D01*
X229597Y-37476D01*
X229448Y-37532D01*
X229282Y-37569D01*
X229115Y-37606D01*
X228708Y-37699D01*
X228245Y-37791D01*
X227745Y-37847D01*
X227226Y-37865D01*
X227041D01*
X226912Y-37847D01*
X226745D01*
X226541Y-37828D01*
X226319Y-37791D01*
X226078Y-37773D01*
X225541Y-37662D01*
X224967Y-37532D01*
X224375Y-37328D01*
X224079Y-37217D01*
X223782Y-37069D01*
X223764Y-37051D01*
X223708Y-37032D01*
X223634Y-36976D01*
X223523Y-36921D01*
X223393Y-36828D01*
X223264Y-36736D01*
X222912Y-36477D01*
X222542Y-36143D01*
X222153Y-35736D01*
X221783Y-35273D01*
X221449Y-34736D01*
Y-34718D01*
X221412Y-34662D01*
X221375Y-34588D01*
X221320Y-34458D01*
X221264Y-34329D01*
X221208Y-34144D01*
X221134Y-33958D01*
X221060Y-33736D01*
X220986Y-33495D01*
X220912Y-33218D01*
X220857Y-32940D01*
X220801Y-32644D01*
X220709Y-31996D01*
X220672Y-31311D01*
Y-31292D01*
Y-31218D01*
Y-31125D01*
X220690Y-30996D01*
Y-30829D01*
X220709Y-30625D01*
X220746Y-30422D01*
X220764Y-30181D01*
X220820Y-29922D01*
X220857Y-29644D01*
X221005Y-29051D01*
X221190Y-28440D01*
X221449Y-27829D01*
X221468Y-27811D01*
X221486Y-27755D01*
X221523Y-27681D01*
X221597Y-27570D01*
X221672Y-27422D01*
X221764Y-27274D01*
X222023Y-26922D01*
X222338Y-26515D01*
X222727Y-26126D01*
X223171Y-25737D01*
X223431Y-25570D01*
X223690Y-25404D01*
X223708Y-25385D01*
X223764Y-25367D01*
X223838Y-25330D01*
X223949Y-25274D01*
X224097Y-25219D01*
X224264Y-25144D01*
X224449Y-25070D01*
X224671Y-24996D01*
X224912Y-24922D01*
X225171Y-24867D01*
X225449Y-24793D01*
X225745Y-24737D01*
X226393Y-24644D01*
X226726Y-24607D01*
X227319D01*
X227430Y-24626D01*
D02*
G37*
G36*
X371749Y-37643D02*
X370286D01*
Y-36477D01*
X370267Y-36495D01*
X370249Y-36532D01*
X370193Y-36606D01*
X370119Y-36699D01*
X370027Y-36791D01*
X369915Y-36902D01*
X369786Y-37032D01*
X369619Y-37162D01*
X369452Y-37291D01*
X369267Y-37421D01*
X369045Y-37532D01*
X368804Y-37625D01*
X368564Y-37717D01*
X368286Y-37791D01*
X367990Y-37828D01*
X367675Y-37847D01*
X367564D01*
X367490Y-37828D01*
X367267Y-37810D01*
X367008Y-37773D01*
X366693Y-37699D01*
X366342Y-37588D01*
X365990Y-37439D01*
X365638Y-37236D01*
X365620D01*
X365601Y-37199D01*
X365490Y-37125D01*
X365323Y-36976D01*
X365120Y-36791D01*
X364879Y-36551D01*
X364638Y-36254D01*
X364397Y-35921D01*
X364194Y-35532D01*
Y-35514D01*
X364175Y-35477D01*
X364157Y-35421D01*
X364120Y-35347D01*
X364083Y-35236D01*
X364027Y-35106D01*
X363990Y-34977D01*
X363953Y-34810D01*
X363860Y-34440D01*
X363768Y-34014D01*
X363712Y-33532D01*
X363694Y-33014D01*
Y-32995D01*
Y-32958D01*
Y-32884D01*
Y-32773D01*
X363712Y-32662D01*
Y-32514D01*
X363749Y-32181D01*
X363805Y-31792D01*
X363898Y-31366D01*
X364009Y-30922D01*
X364157Y-30496D01*
Y-30477D01*
X364175Y-30440D01*
X364212Y-30385D01*
X364249Y-30310D01*
X364360Y-30107D01*
X364509Y-29848D01*
X364694Y-29570D01*
X364934Y-29292D01*
X365212Y-28996D01*
X365545Y-28755D01*
X365564D01*
X365583Y-28737D01*
X365638Y-28700D01*
X365712Y-28663D01*
X365897Y-28570D01*
X366157Y-28440D01*
X366453Y-28329D01*
X366805Y-28237D01*
X367193Y-28163D01*
X367601Y-28144D01*
X367749D01*
X367897Y-28163D01*
X368101Y-28181D01*
X368341Y-28237D01*
X368601Y-28292D01*
X368860Y-28385D01*
X369101Y-28514D01*
X369138Y-28533D01*
X369212Y-28570D01*
X369323Y-28663D01*
X369471Y-28755D01*
X369656Y-28885D01*
X369823Y-29051D01*
X370008Y-29218D01*
X370175Y-29422D01*
Y-24830D01*
X371749D01*
Y-37643D01*
D02*
G37*
G36*
X416744Y-28163D02*
X416948Y-28181D01*
X417188Y-28218D01*
X417448Y-28274D01*
X417725Y-28348D01*
X417985Y-28459D01*
X418022Y-28477D01*
X418096Y-28514D01*
X418225Y-28570D01*
X418373Y-28663D01*
X418559Y-28774D01*
X418725Y-28922D01*
X418892Y-29070D01*
X419040Y-29255D01*
X419058Y-29274D01*
X419095Y-29348D01*
X419151Y-29440D01*
X419244Y-29570D01*
X419318Y-29755D01*
X419392Y-29940D01*
X419484Y-30162D01*
X419540Y-30403D01*
Y-30422D01*
X419558Y-30496D01*
X419577Y-30607D01*
X419595Y-30755D01*
Y-30977D01*
X419614Y-31236D01*
X419632Y-31551D01*
Y-31940D01*
Y-37643D01*
X418059D01*
Y-32014D01*
Y-31995D01*
Y-31977D01*
Y-31847D01*
Y-31681D01*
X418040Y-31477D01*
X418022Y-31236D01*
X417985Y-30996D01*
X417929Y-30773D01*
X417873Y-30570D01*
Y-30551D01*
X417836Y-30496D01*
X417781Y-30403D01*
X417725Y-30292D01*
X417633Y-30181D01*
X417522Y-30051D01*
X417373Y-29922D01*
X417207Y-29811D01*
X417188Y-29792D01*
X417133Y-29755D01*
X417022Y-29718D01*
X416892Y-29662D01*
X416744Y-29607D01*
X416559Y-29551D01*
X416337Y-29533D01*
X416114Y-29514D01*
X416022D01*
X415948Y-29533D01*
X415762Y-29551D01*
X415522Y-29588D01*
X415262Y-29681D01*
X414966Y-29792D01*
X414670Y-29940D01*
X414392Y-30162D01*
X414355Y-30199D01*
X414281Y-30292D01*
X414226Y-30366D01*
X414170Y-30459D01*
X414096Y-30570D01*
X414040Y-30699D01*
X413966Y-30847D01*
X413892Y-31033D01*
X413837Y-31236D01*
X413781Y-31458D01*
X413744Y-31699D01*
X413707Y-31958D01*
X413670Y-32273D01*
Y-32588D01*
Y-37643D01*
X412096D01*
Y-28348D01*
X413503D01*
Y-29681D01*
X413522Y-29662D01*
X413559Y-29607D01*
X413615Y-29533D01*
X413689Y-29440D01*
X413800Y-29329D01*
X413929Y-29200D01*
X414077Y-29051D01*
X414263Y-28903D01*
X414448Y-28774D01*
X414670Y-28626D01*
X414911Y-28496D01*
X415170Y-28385D01*
X415466Y-28292D01*
X415762Y-28218D01*
X416096Y-28163D01*
X416448Y-28144D01*
X416596D01*
X416744Y-28163D01*
D02*
G37*
G36*
X279314Y-28163D02*
X279517Y-28181D01*
X279758Y-28218D01*
X280017Y-28274D01*
X280295Y-28348D01*
X280554Y-28459D01*
X280591Y-28477D01*
X280665Y-28514D01*
X280795Y-28570D01*
X280943Y-28663D01*
X281128Y-28774D01*
X281295Y-28922D01*
X281462Y-29070D01*
X281610Y-29255D01*
X281628Y-29274D01*
X281665Y-29348D01*
X281721Y-29440D01*
X281813Y-29570D01*
X281887Y-29755D01*
X281961Y-29940D01*
X282054Y-30162D01*
X282110Y-30403D01*
Y-30422D01*
X282128Y-30496D01*
X282147Y-30607D01*
X282165Y-30755D01*
Y-30977D01*
X282184Y-31236D01*
X282202Y-31551D01*
Y-31940D01*
Y-37643D01*
X280628D01*
Y-32014D01*
Y-31995D01*
Y-31977D01*
Y-31847D01*
Y-31681D01*
X280610Y-31477D01*
X280591Y-31236D01*
X280554Y-30996D01*
X280499Y-30773D01*
X280443Y-30570D01*
Y-30551D01*
X280406Y-30496D01*
X280351Y-30403D01*
X280295Y-30292D01*
X280202Y-30181D01*
X280091Y-30051D01*
X279943Y-29922D01*
X279777Y-29811D01*
X279758Y-29792D01*
X279702Y-29755D01*
X279591Y-29718D01*
X279462Y-29662D01*
X279314Y-29607D01*
X279128Y-29551D01*
X278906Y-29533D01*
X278684Y-29514D01*
X278591D01*
X278517Y-29533D01*
X278332Y-29551D01*
X278092Y-29588D01*
X277832Y-29681D01*
X277536Y-29792D01*
X277240Y-29940D01*
X276962Y-30162D01*
X276925Y-30199D01*
X276851Y-30292D01*
X276795Y-30366D01*
X276740Y-30459D01*
X276666Y-30570D01*
X276610Y-30699D01*
X276536Y-30847D01*
X276462Y-31033D01*
X276406Y-31236D01*
X276351Y-31459D01*
X276314Y-31699D01*
X276277Y-31958D01*
X276240Y-32273D01*
Y-32588D01*
Y-37643D01*
X274666D01*
Y-28348D01*
X276073D01*
Y-29681D01*
X276092Y-29662D01*
X276129Y-29607D01*
X276184Y-29533D01*
X276258Y-29440D01*
X276369Y-29329D01*
X276499Y-29200D01*
X276647Y-29051D01*
X276832Y-28903D01*
X277018Y-28774D01*
X277240Y-28626D01*
X277481Y-28496D01*
X277740Y-28385D01*
X278036Y-28292D01*
X278332Y-28218D01*
X278666Y-28163D01*
X279017Y-28144D01*
X279165D01*
X279314Y-28163D01*
D02*
G37*
G36*
X362027D02*
X362231Y-28200D01*
X362472Y-28274D01*
X362731Y-28366D01*
X363027Y-28496D01*
X363342Y-28663D01*
X362768Y-30107D01*
X362749Y-30088D01*
X362675Y-30051D01*
X362564Y-29996D01*
X362416Y-29940D01*
X362249Y-29885D01*
X362046Y-29829D01*
X361842Y-29792D01*
X361638Y-29773D01*
X361546D01*
X361453Y-29792D01*
X361324Y-29811D01*
X361194Y-29848D01*
X361027Y-29903D01*
X360861Y-29977D01*
X360713Y-30088D01*
X360694Y-30107D01*
X360639Y-30144D01*
X360583Y-30218D01*
X360490Y-30310D01*
X360398Y-30440D01*
X360305Y-30588D01*
X360213Y-30755D01*
X360139Y-30959D01*
X360120Y-30996D01*
X360102Y-31107D01*
X360065Y-31273D01*
X360009Y-31496D01*
X359953Y-31773D01*
X359916Y-32088D01*
X359898Y-32421D01*
X359879Y-32792D01*
Y-37643D01*
X358306D01*
Y-28348D01*
X359731D01*
Y-29755D01*
X359750Y-29736D01*
X359824Y-29607D01*
X359916Y-29440D01*
X360065Y-29237D01*
X360213Y-29033D01*
X360379Y-28811D01*
X360546Y-28626D01*
X360713Y-28477D01*
X360731Y-28459D01*
X360787Y-28422D01*
X360898Y-28366D01*
X361009Y-28311D01*
X361157Y-28255D01*
X361342Y-28200D01*
X361527Y-28163D01*
X361731Y-28144D01*
X361861D01*
X362027Y-28163D01*
D02*
G37*
G36*
X321198D02*
X321402Y-28200D01*
X321643Y-28274D01*
X321902Y-28366D01*
X322198Y-28496D01*
X322513Y-28663D01*
X321939Y-30107D01*
X321920Y-30088D01*
X321846Y-30051D01*
X321735Y-29996D01*
X321587Y-29940D01*
X321420Y-29885D01*
X321217Y-29829D01*
X321013Y-29792D01*
X320809Y-29773D01*
X320717D01*
X320624Y-29792D01*
X320495Y-29811D01*
X320365Y-29848D01*
X320198Y-29903D01*
X320032Y-29977D01*
X319883Y-30088D01*
X319865Y-30107D01*
X319809Y-30144D01*
X319754Y-30218D01*
X319661Y-30310D01*
X319569Y-30440D01*
X319476Y-30588D01*
X319384Y-30755D01*
X319310Y-30959D01*
X319291Y-30996D01*
X319272Y-31107D01*
X319235Y-31273D01*
X319180Y-31496D01*
X319124Y-31773D01*
X319087Y-32088D01*
X319069Y-32421D01*
X319050Y-32792D01*
Y-37643D01*
X317476D01*
Y-28348D01*
X318902D01*
Y-29755D01*
X318921Y-29736D01*
X318995Y-29607D01*
X319087Y-29440D01*
X319235Y-29237D01*
X319384Y-29033D01*
X319550Y-28811D01*
X319717Y-28626D01*
X319883Y-28477D01*
X319902Y-28459D01*
X319958Y-28422D01*
X320069Y-28366D01*
X320180Y-28311D01*
X320328Y-28255D01*
X320513Y-28200D01*
X320698Y-28163D01*
X320902Y-28144D01*
X321031D01*
X321198Y-28163D01*
D02*
G37*
G36*
X195452Y-28163D02*
X195730Y-28181D01*
X196026Y-28218D01*
X196341Y-28292D01*
X196674Y-28366D01*
X196989Y-28477D01*
X197007D01*
X197026Y-28496D01*
X197118Y-28533D01*
X197267Y-28607D01*
X197452Y-28700D01*
X197655Y-28829D01*
X197859Y-28977D01*
X198044Y-29144D01*
X198211Y-29329D01*
X198229Y-29348D01*
X198267Y-29422D01*
X198340Y-29551D01*
X198433Y-29699D01*
X198526Y-29922D01*
X198618Y-30162D01*
X198692Y-30440D01*
X198766Y-30755D01*
X197230Y-30959D01*
Y-30922D01*
X197211Y-30847D01*
X197174Y-30718D01*
X197118Y-30551D01*
X197026Y-30385D01*
X196915Y-30199D01*
X196785Y-30014D01*
X196600Y-29848D01*
X196581Y-29829D01*
X196507Y-29792D01*
X196396Y-29718D01*
X196230Y-29644D01*
X196045Y-29570D01*
X195804Y-29496D01*
X195508Y-29459D01*
X195193Y-29440D01*
X195008D01*
X194822Y-29459D01*
X194582Y-29477D01*
X194341Y-29533D01*
X194082Y-29588D01*
X193841Y-29681D01*
X193637Y-29811D01*
X193619Y-29829D01*
X193563Y-29866D01*
X193489Y-29940D01*
X193415Y-30051D01*
X193323Y-30162D01*
X193249Y-30311D01*
X193193Y-30477D01*
X193174Y-30644D01*
Y-30662D01*
Y-30699D01*
X193193Y-30755D01*
Y-30829D01*
X193249Y-31014D01*
X193360Y-31199D01*
X193378Y-31218D01*
X193397Y-31236D01*
X193434Y-31292D01*
X193508Y-31347D01*
X193582Y-31403D01*
X193693Y-31477D01*
X193822Y-31533D01*
X193971Y-31607D01*
X193989D01*
X194026Y-31625D01*
X194100Y-31644D01*
X194230Y-31699D01*
X194415Y-31755D01*
X194656Y-31810D01*
X194804Y-31866D01*
X194970Y-31903D01*
X195156Y-31958D01*
X195359Y-32014D01*
X195378D01*
X195433Y-32033D01*
X195526Y-32051D01*
X195637Y-32088D01*
X195767Y-32125D01*
X195933Y-32162D01*
X196285Y-32273D01*
X196674Y-32384D01*
X197063Y-32514D01*
X197415Y-32644D01*
X197563Y-32699D01*
X197693Y-32755D01*
X197729Y-32773D01*
X197804Y-32810D01*
X197915Y-32866D01*
X198081Y-32958D01*
X198248Y-33070D01*
X198415Y-33218D01*
X198581Y-33384D01*
X198729Y-33570D01*
X198748Y-33588D01*
X198785Y-33662D01*
X198859Y-33773D01*
X198933Y-33940D01*
X198989Y-34144D01*
X199063Y-34366D01*
X199100Y-34625D01*
X199118Y-34921D01*
Y-34958D01*
Y-35051D01*
X199100Y-35199D01*
X199063Y-35403D01*
X199007Y-35625D01*
X198915Y-35865D01*
X198804Y-36143D01*
X198655Y-36402D01*
X198637Y-36440D01*
X198563Y-36514D01*
X198470Y-36643D01*
X198322Y-36791D01*
X198118Y-36958D01*
X197896Y-37143D01*
X197637Y-37310D01*
X197322Y-37476D01*
X197304D01*
X197285Y-37495D01*
X197174Y-37532D01*
X196989Y-37588D01*
X196748Y-37662D01*
X196452Y-37736D01*
X196119Y-37791D01*
X195767Y-37828D01*
X195359Y-37847D01*
X195193D01*
X195063Y-37828D01*
X194915D01*
X194730Y-37810D01*
X194545Y-37791D01*
X194341Y-37754D01*
X193897Y-37662D01*
X193434Y-37532D01*
X192989Y-37347D01*
X192786Y-37236D01*
X192600Y-37106D01*
X192582Y-37088D01*
X192563Y-37069D01*
X192452Y-36958D01*
X192286Y-36791D01*
X192101Y-36532D01*
X191897Y-36217D01*
X191693Y-35847D01*
X191526Y-35384D01*
X191397Y-34866D01*
X192952Y-34625D01*
Y-34643D01*
Y-34662D01*
X192989Y-34773D01*
X193026Y-34958D01*
X193100Y-35162D01*
X193193Y-35384D01*
X193304Y-35625D01*
X193471Y-35865D01*
X193674Y-36069D01*
X193711Y-36088D01*
X193785Y-36143D01*
X193934Y-36217D01*
X194119Y-36310D01*
X194359Y-36402D01*
X194637Y-36477D01*
X194970Y-36532D01*
X195359Y-36551D01*
X195544D01*
X195730Y-36532D01*
X195970Y-36495D01*
X196230Y-36440D01*
X196507Y-36365D01*
X196748Y-36273D01*
X196970Y-36125D01*
X196989Y-36106D01*
X197063Y-36051D01*
X197137Y-35958D01*
X197248Y-35828D01*
X197341Y-35680D01*
X197433Y-35495D01*
X197489Y-35310D01*
X197507Y-35088D01*
Y-35069D01*
Y-34995D01*
X197489Y-34903D01*
X197452Y-34773D01*
X197396Y-34643D01*
X197304Y-34514D01*
X197192Y-34366D01*
X197026Y-34255D01*
X197007Y-34236D01*
X196952Y-34218D01*
X196859Y-34162D01*
X196711Y-34107D01*
X196489Y-34032D01*
X196359Y-33977D01*
X196211Y-33940D01*
X196045Y-33884D01*
X195859Y-33829D01*
X195656Y-33773D01*
X195415Y-33718D01*
X195396D01*
X195341Y-33699D01*
X195248Y-33681D01*
X195137Y-33644D01*
X194989Y-33607D01*
X194822Y-33551D01*
X194471Y-33458D01*
X194063Y-33329D01*
X193674Y-33218D01*
X193304Y-33088D01*
X193137Y-33014D01*
X193008Y-32958D01*
X192971Y-32940D01*
X192897Y-32903D01*
X192786Y-32829D01*
X192637Y-32736D01*
X192471Y-32607D01*
X192304Y-32459D01*
X192138Y-32292D01*
X191989Y-32088D01*
X191971Y-32070D01*
X191934Y-31996D01*
X191878Y-31866D01*
X191823Y-31718D01*
X191767Y-31533D01*
X191712Y-31311D01*
X191675Y-31088D01*
X191656Y-30829D01*
Y-30792D01*
Y-30718D01*
X191675Y-30607D01*
X191693Y-30440D01*
X191730Y-30273D01*
X191767Y-30070D01*
X191841Y-29885D01*
X191934Y-29681D01*
X191952Y-29662D01*
X191989Y-29588D01*
X192045Y-29496D01*
X192138Y-29366D01*
X192249Y-29237D01*
X192378Y-29070D01*
X192526Y-28922D01*
X192712Y-28792D01*
X192730Y-28774D01*
X192786Y-28755D01*
X192860Y-28700D01*
X192971Y-28644D01*
X193119Y-28570D01*
X193286Y-28496D01*
X193489Y-28422D01*
X193711Y-28348D01*
X193748Y-28329D01*
X193822Y-28311D01*
X193952Y-28274D01*
X194119Y-28237D01*
X194322Y-28200D01*
X194545Y-28181D01*
X194804Y-28144D01*
X195248D01*
X195452Y-28163D01*
D02*
G37*
G36*
X247206Y-37643D02*
X245576D01*
Y-26922D01*
X241836Y-37643D01*
X240318D01*
X236614Y-26737D01*
Y-37643D01*
X234985D01*
Y-24830D01*
X237522D01*
X240558Y-33921D01*
Y-33940D01*
X240577Y-33977D01*
X240595Y-34032D01*
X240632Y-34125D01*
X240707Y-34347D01*
X240799Y-34625D01*
X240892Y-34940D01*
X241003Y-35254D01*
X241095Y-35551D01*
X241169Y-35810D01*
X241188Y-35773D01*
X241206Y-35680D01*
X241262Y-35514D01*
X241336Y-35292D01*
X241429Y-34995D01*
X241558Y-34643D01*
X241688Y-34236D01*
X241855Y-33755D01*
X244928Y-24830D01*
X247206D01*
Y-37643D01*
D02*
G37*
G36*
X292683Y-37791D02*
Y-37810D01*
X292664Y-37865D01*
X292627Y-37939D01*
X292590Y-38032D01*
X292535Y-38162D01*
X292479Y-38310D01*
X292349Y-38624D01*
X292220Y-38976D01*
X292072Y-39328D01*
X291923Y-39643D01*
X291849Y-39773D01*
X291794Y-39902D01*
X291775Y-39939D01*
X291720Y-40032D01*
X291627Y-40161D01*
X291516Y-40328D01*
X291368Y-40513D01*
X291201Y-40698D01*
X291035Y-40883D01*
X290831Y-41032D01*
X290812Y-41050D01*
X290738Y-41087D01*
X290627Y-41143D01*
X290461Y-41217D01*
X290275Y-41291D01*
X290053Y-41346D01*
X289813Y-41384D01*
X289535Y-41402D01*
X289461D01*
X289368Y-41384D01*
X289238D01*
X289090Y-41346D01*
X288924Y-41309D01*
X288739Y-41272D01*
X288535Y-41198D01*
X288368Y-39736D01*
X288387D01*
X288461Y-39754D01*
X288553Y-39773D01*
X288664Y-39810D01*
X288961Y-39865D01*
X289257Y-39884D01*
X289350D01*
X289442Y-39865D01*
X289553D01*
X289831Y-39810D01*
X289961Y-39754D01*
X290090Y-39698D01*
X290109D01*
X290146Y-39661D01*
X290201Y-39624D01*
X290275Y-39569D01*
X290442Y-39421D01*
X290590Y-39217D01*
Y-39199D01*
X290627Y-39162D01*
X290664Y-39087D01*
X290701Y-38976D01*
X290775Y-38828D01*
X290849Y-38606D01*
X290961Y-38347D01*
X291072Y-38032D01*
Y-38013D01*
X291109Y-37939D01*
X291146Y-37810D01*
X291220Y-37643D01*
X287702Y-28348D01*
X289368D01*
X291312Y-33736D01*
Y-33755D01*
X291331Y-33773D01*
X291349Y-33829D01*
X291368Y-33921D01*
X291405Y-34014D01*
X291442Y-34125D01*
X291535Y-34384D01*
X291646Y-34699D01*
X291757Y-35069D01*
X291868Y-35458D01*
X291979Y-35884D01*
Y-35865D01*
X291998Y-35828D01*
X292016Y-35773D01*
X292034Y-35699D01*
X292053Y-35606D01*
X292090Y-35495D01*
X292164Y-35217D01*
X292257Y-34903D01*
X292386Y-34532D01*
X292498Y-34162D01*
X292646Y-33773D01*
X294645Y-28348D01*
X296219D01*
X292683Y-37791D01*
D02*
G37*
G36*
X189397Y-32236D02*
Y-32255D01*
Y-32329D01*
Y-32421D01*
Y-32551D01*
X189379Y-32718D01*
Y-32903D01*
X189360Y-33125D01*
X189342Y-33347D01*
X189286Y-33847D01*
X189212Y-34366D01*
X189101Y-34866D01*
X189027Y-35106D01*
X188953Y-35329D01*
Y-35347D01*
X188934Y-35384D01*
X188897Y-35440D01*
X188860Y-35514D01*
X188749Y-35717D01*
X188582Y-35977D01*
X188360Y-36273D01*
X188101Y-36569D01*
X187768Y-36884D01*
X187360Y-37162D01*
X187342D01*
X187305Y-37199D01*
X187249Y-37217D01*
X187157Y-37273D01*
X187045Y-37328D01*
X186897Y-37384D01*
X186749Y-37439D01*
X186564Y-37513D01*
X186360Y-37588D01*
X186138Y-37643D01*
X185897Y-37699D01*
X185620Y-37754D01*
X185342Y-37791D01*
X185046Y-37828D01*
X184379Y-37865D01*
X184212D01*
X184083Y-37847D01*
X183935D01*
X183750Y-37828D01*
X183546Y-37810D01*
X183342Y-37791D01*
X182879Y-37717D01*
X182379Y-37606D01*
X181898Y-37458D01*
X181435Y-37254D01*
X181416D01*
X181379Y-37217D01*
X181324Y-37180D01*
X181250Y-37143D01*
X181046Y-36995D01*
X180805Y-36791D01*
X180528Y-36532D01*
X180268Y-36236D01*
X180009Y-35865D01*
X179805Y-35458D01*
Y-35440D01*
X179787Y-35403D01*
X179768Y-35329D01*
X179731Y-35236D01*
X179694Y-35125D01*
X179657Y-34977D01*
X179602Y-34810D01*
X179565Y-34606D01*
X179528Y-34384D01*
X179472Y-34144D01*
X179435Y-33884D01*
X179398Y-33607D01*
X179361Y-33292D01*
X179342Y-32958D01*
X179324Y-32607D01*
Y-32236D01*
Y-24830D01*
X181028D01*
Y-32236D01*
Y-32255D01*
Y-32310D01*
Y-32403D01*
Y-32514D01*
X181046Y-32644D01*
Y-32810D01*
X181065Y-33162D01*
X181102Y-33570D01*
X181157Y-33977D01*
X181231Y-34366D01*
X181268Y-34532D01*
X181324Y-34699D01*
X181342Y-34736D01*
X181379Y-34829D01*
X181472Y-34958D01*
X181583Y-35143D01*
X181713Y-35329D01*
X181898Y-35532D01*
X182120Y-35736D01*
X182379Y-35903D01*
X182416Y-35921D01*
X182509Y-35977D01*
X182675Y-36032D01*
X182898Y-36106D01*
X183157Y-36199D01*
X183490Y-36254D01*
X183842Y-36310D01*
X184231Y-36328D01*
X184416D01*
X184527Y-36310D01*
X184694D01*
X184860Y-36291D01*
X185268Y-36217D01*
X185712Y-36125D01*
X186138Y-35977D01*
X186546Y-35773D01*
X186731Y-35643D01*
X186897Y-35495D01*
X186916Y-35477D01*
X186934Y-35458D01*
X186971Y-35403D01*
X187027Y-35329D01*
X187083Y-35217D01*
X187157Y-35106D01*
X187231Y-34940D01*
X187305Y-34773D01*
X187379Y-34569D01*
X187434Y-34329D01*
X187508Y-34051D01*
X187564Y-33755D01*
X187619Y-33421D01*
X187656Y-33070D01*
X187694Y-32662D01*
Y-32236D01*
Y-24830D01*
X189397D01*
Y-32236D01*
D02*
G37*
G36*
X396690Y-37643D02*
X395283D01*
Y-36291D01*
X395265Y-36310D01*
X395228Y-36365D01*
X395172Y-36439D01*
X395079Y-36532D01*
X394968Y-36643D01*
X394839Y-36791D01*
X394691Y-36921D01*
X394505Y-37069D01*
X394302Y-37217D01*
X394080Y-37347D01*
X393839Y-37476D01*
X393580Y-37606D01*
X393283Y-37699D01*
X392987Y-37773D01*
X392654Y-37828D01*
X392320Y-37847D01*
X392191D01*
X392024Y-37828D01*
X391820Y-37810D01*
X391580Y-37773D01*
X391321Y-37717D01*
X391061Y-37643D01*
X390784Y-37532D01*
X390746Y-37513D01*
X390672Y-37476D01*
X390543Y-37402D01*
X390395Y-37310D01*
X390210Y-37199D01*
X390043Y-37069D01*
X389876Y-36921D01*
X389728Y-36754D01*
X389710Y-36736D01*
X389673Y-36662D01*
X389617Y-36569D01*
X389543Y-36421D01*
X389450Y-36254D01*
X389376Y-36051D01*
X389302Y-35828D01*
X389247Y-35588D01*
Y-35569D01*
X389228Y-35495D01*
X389210Y-35384D01*
Y-35236D01*
X389191Y-35014D01*
X389173Y-34773D01*
X389154Y-34458D01*
Y-34106D01*
Y-28348D01*
X390728D01*
Y-33514D01*
Y-33532D01*
Y-33570D01*
Y-33625D01*
Y-33718D01*
Y-33921D01*
X390746Y-34181D01*
Y-34458D01*
X390765Y-34736D01*
X390784Y-34977D01*
X390821Y-35180D01*
Y-35199D01*
X390858Y-35273D01*
X390895Y-35384D01*
X390950Y-35532D01*
X391043Y-35680D01*
X391154Y-35847D01*
X391283Y-35995D01*
X391450Y-36143D01*
X391469Y-36162D01*
X391543Y-36199D01*
X391635Y-36254D01*
X391783Y-36310D01*
X391950Y-36384D01*
X392154Y-36439D01*
X392376Y-36477D01*
X392635Y-36495D01*
X392765D01*
X392895Y-36477D01*
X393061Y-36458D01*
X393265Y-36402D01*
X393487Y-36347D01*
X393728Y-36254D01*
X393968Y-36143D01*
X394006Y-36125D01*
X394080Y-36069D01*
X394191Y-35995D01*
X394320Y-35884D01*
X394468Y-35736D01*
X394617Y-35569D01*
X394746Y-35384D01*
X394857Y-35162D01*
X394876Y-35125D01*
X394894Y-35051D01*
X394931Y-34903D01*
X394987Y-34699D01*
X395042Y-34440D01*
X395079Y-34125D01*
X395098Y-33755D01*
X395117Y-33329D01*
Y-28348D01*
X396690D01*
Y-37643D01*
D02*
G37*
G36*
X434260Y-37643D02*
X432464D01*
Y-35847D01*
X434260D01*
Y-37643D01*
D02*
G37*
G36*
X409689D02*
X408115D01*
Y-28348D01*
X409689D01*
Y-37643D01*
D02*
G37*
G36*
X405671D02*
X404097D01*
Y-24830D01*
X405671D01*
Y-37643D01*
D02*
G37*
G36*
X352695Y-28163D02*
X352973Y-28181D01*
X353288Y-28218D01*
X353602Y-28274D01*
X353917Y-28348D01*
X354213Y-28440D01*
X354250Y-28459D01*
X354343Y-28496D01*
X354473Y-28551D01*
X354639Y-28626D01*
X354824Y-28737D01*
X355009Y-28848D01*
X355176Y-28996D01*
X355324Y-29144D01*
X355343Y-29162D01*
X355380Y-29218D01*
X355435Y-29311D01*
X355509Y-29422D01*
X355602Y-29588D01*
X355676Y-29755D01*
X355750Y-29959D01*
X355806Y-30199D01*
Y-30218D01*
X355824Y-30273D01*
X355843Y-30385D01*
X355861Y-30533D01*
Y-30736D01*
X355880Y-30977D01*
X355898Y-31292D01*
Y-31644D01*
Y-33755D01*
Y-33773D01*
Y-33847D01*
Y-33958D01*
Y-34106D01*
Y-34273D01*
Y-34477D01*
X355917Y-34921D01*
Y-35384D01*
X355935Y-35847D01*
X355954Y-36051D01*
Y-36236D01*
X355972Y-36402D01*
X355991Y-36532D01*
Y-36551D01*
X356009Y-36625D01*
X356028Y-36736D01*
X356083Y-36884D01*
X356120Y-37051D01*
X356195Y-37236D01*
X356287Y-37439D01*
X356380Y-37643D01*
X354732D01*
X354713Y-37625D01*
X354695Y-37550D01*
X354658Y-37458D01*
X354602Y-37310D01*
X354547Y-37143D01*
X354510Y-36939D01*
X354473Y-36717D01*
X354436Y-36477D01*
X354417D01*
X354398Y-36514D01*
X354287Y-36606D01*
X354121Y-36736D01*
X353899Y-36902D01*
X353621Y-37069D01*
X353343Y-37254D01*
X353047Y-37421D01*
X352732Y-37550D01*
X352695Y-37569D01*
X352584Y-37588D01*
X352417Y-37643D01*
X352214Y-37699D01*
X351954Y-37754D01*
X351658Y-37791D01*
X351325Y-37828D01*
X350991Y-37847D01*
X350843D01*
X350732Y-37828D01*
X350602D01*
X350454Y-37810D01*
X350121Y-37754D01*
X349751Y-37662D01*
X349343Y-37532D01*
X348973Y-37347D01*
X348640Y-37106D01*
X348603Y-37069D01*
X348510Y-36976D01*
X348381Y-36810D01*
X348232Y-36588D01*
X348084Y-36310D01*
X347955Y-35995D01*
X347862Y-35606D01*
X347844Y-35421D01*
X347825Y-35199D01*
Y-35162D01*
Y-35088D01*
X347844Y-34958D01*
X347862Y-34792D01*
X347899Y-34588D01*
X347955Y-34384D01*
X348029Y-34162D01*
X348121Y-33958D01*
X348140Y-33940D01*
X348177Y-33866D01*
X348251Y-33755D01*
X348344Y-33625D01*
X348455Y-33477D01*
X348603Y-33329D01*
X348751Y-33181D01*
X348936Y-33051D01*
X348955Y-33033D01*
X349029Y-32995D01*
X349121Y-32921D01*
X349269Y-32847D01*
X349436Y-32773D01*
X349640Y-32681D01*
X349843Y-32607D01*
X350084Y-32532D01*
X350103D01*
X350177Y-32514D01*
X350288Y-32477D01*
X350436Y-32459D01*
X350621Y-32421D01*
X350862Y-32384D01*
X351139Y-32329D01*
X351473Y-32292D01*
X351491D01*
X351565Y-32273D01*
X351658D01*
X351788Y-32255D01*
X351936Y-32236D01*
X352121Y-32199D01*
X352325Y-32181D01*
X352547Y-32144D01*
X352991Y-32051D01*
X353473Y-31958D01*
X353899Y-31847D01*
X354102Y-31792D01*
X354287Y-31736D01*
Y-31718D01*
Y-31681D01*
X354306Y-31570D01*
Y-31440D01*
Y-31366D01*
Y-31329D01*
Y-31310D01*
Y-31292D01*
Y-31181D01*
X354287Y-30996D01*
X354250Y-30792D01*
X354195Y-30570D01*
X354102Y-30348D01*
X353991Y-30144D01*
X353843Y-29977D01*
X353824Y-29959D01*
X353732Y-29885D01*
X353584Y-29811D01*
X353399Y-29699D01*
X353139Y-29607D01*
X352843Y-29514D01*
X352473Y-29459D01*
X352047Y-29440D01*
X351862D01*
X351676Y-29459D01*
X351417Y-29496D01*
X351158Y-29533D01*
X350880Y-29607D01*
X350621Y-29699D01*
X350399Y-29829D01*
X350380Y-29848D01*
X350306Y-29903D01*
X350214Y-29996D01*
X350103Y-30144D01*
X349991Y-30329D01*
X349862Y-30570D01*
X349751Y-30866D01*
X349640Y-31199D01*
X348103Y-30996D01*
Y-30977D01*
X348121Y-30959D01*
Y-30903D01*
X348140Y-30829D01*
X348195Y-30662D01*
X348270Y-30422D01*
X348362Y-30181D01*
X348473Y-29922D01*
X348621Y-29662D01*
X348788Y-29422D01*
X348806Y-29403D01*
X348881Y-29329D01*
X348992Y-29218D01*
X349140Y-29070D01*
X349343Y-28922D01*
X349584Y-28774D01*
X349862Y-28607D01*
X350177Y-28477D01*
X350195D01*
X350214Y-28459D01*
X350269Y-28440D01*
X350343Y-28422D01*
X350528Y-28366D01*
X350788Y-28311D01*
X351084Y-28255D01*
X351454Y-28200D01*
X351843Y-28163D01*
X352288Y-28144D01*
X352491D01*
X352695Y-28163D01*
D02*
G37*
G36*
X286165Y-37643D02*
X284591D01*
Y-24830D01*
X286165D01*
Y-37643D01*
D02*
G37*
G36*
X255242D02*
X253668D01*
Y-27626D01*
X253650Y-27644D01*
X253557Y-27718D01*
X253446Y-27829D01*
X253261Y-27959D01*
X253057Y-28126D01*
X252798Y-28311D01*
X252502Y-28514D01*
X252168Y-28718D01*
X252150D01*
X252131Y-28737D01*
X252020Y-28811D01*
X251835Y-28903D01*
X251613Y-29014D01*
X251354Y-29144D01*
X251076Y-29274D01*
X250798Y-29403D01*
X250520Y-29514D01*
Y-27996D01*
X250539D01*
X250576Y-27959D01*
X250650Y-27940D01*
X250742Y-27885D01*
X250854Y-27829D01*
X250983Y-27755D01*
X251298Y-27570D01*
X251668Y-27366D01*
X252039Y-27107D01*
X252428Y-26811D01*
X252816Y-26496D01*
X252835Y-26478D01*
X252853Y-26459D01*
X252909Y-26404D01*
X252983Y-26348D01*
X253150Y-26163D01*
X253372Y-25941D01*
X253594Y-25681D01*
X253835Y-25385D01*
X254039Y-25089D01*
X254224Y-24774D01*
X255242D01*
Y-37643D01*
D02*
G37*
G36*
X218172Y-37643D02*
X216376D01*
Y-35847D01*
X218172D01*
Y-37643D01*
D02*
G37*
G36*
X400986Y-28348D02*
X402579D01*
Y-29570D01*
X400986D01*
Y-35032D01*
Y-35069D01*
Y-35143D01*
Y-35254D01*
X401005Y-35384D01*
X401023Y-35680D01*
X401042Y-35810D01*
X401060Y-35903D01*
X401079Y-35940D01*
X401134Y-36014D01*
X401208Y-36106D01*
X401338Y-36199D01*
X401375Y-36217D01*
X401468Y-36254D01*
X401634Y-36291D01*
X401875Y-36310D01*
X402060D01*
X402153Y-36291D01*
X402282D01*
X402430Y-36273D01*
X402579Y-36254D01*
X402782Y-37643D01*
X402745D01*
X402671Y-37662D01*
X402542Y-37680D01*
X402375Y-37699D01*
X402190Y-37736D01*
X401986Y-37754D01*
X401579Y-37773D01*
X401431D01*
X401283Y-37754D01*
X401097Y-37736D01*
X400875Y-37717D01*
X400653Y-37662D01*
X400449Y-37606D01*
X400246Y-37513D01*
X400227Y-37495D01*
X400172Y-37458D01*
X400097Y-37402D01*
X399986Y-37310D01*
X399894Y-37217D01*
X399783Y-37088D01*
X399672Y-36958D01*
X399598Y-36791D01*
Y-36773D01*
X399560Y-36699D01*
X399542Y-36569D01*
X399505Y-36384D01*
X399468Y-36143D01*
X399449Y-35995D01*
Y-35828D01*
X399431Y-35625D01*
X399412Y-35421D01*
Y-35199D01*
Y-34940D01*
Y-29570D01*
X398246D01*
Y-28348D01*
X399412D01*
Y-26052D01*
X400986Y-25107D01*
Y-28348D01*
D02*
G37*
G36*
X426169Y-28163D02*
X426317Y-28181D01*
X426502Y-28218D01*
X426706Y-28255D01*
X426946Y-28311D01*
X427169Y-28366D01*
X427428Y-28459D01*
X427669Y-28551D01*
X427928Y-28681D01*
X428187Y-28829D01*
X428446Y-28996D01*
X428687Y-29200D01*
X428909Y-29422D01*
X428928Y-29440D01*
X428965Y-29477D01*
X429020Y-29551D01*
X429094Y-29662D01*
X429187Y-29792D01*
X429280Y-29940D01*
X429391Y-30125D01*
X429502Y-30347D01*
X429613Y-30588D01*
X429724Y-30847D01*
X429817Y-31144D01*
X429909Y-31458D01*
X429983Y-31810D01*
X430039Y-32181D01*
X430076Y-32569D01*
X430094Y-32995D01*
Y-33014D01*
Y-33088D01*
Y-33218D01*
X430076Y-33403D01*
X423132D01*
Y-33421D01*
Y-33477D01*
X423151Y-33551D01*
Y-33662D01*
X423169Y-33792D01*
X423206Y-33940D01*
X423262Y-34273D01*
X423373Y-34643D01*
X423521Y-35051D01*
X423725Y-35421D01*
X423984Y-35754D01*
X424002D01*
X424021Y-35791D01*
X424132Y-35884D01*
X424299Y-36014D01*
X424521Y-36143D01*
X424817Y-36291D01*
X425150Y-36421D01*
X425521Y-36514D01*
X425724Y-36532D01*
X425947Y-36551D01*
X426095D01*
X426261Y-36532D01*
X426465Y-36495D01*
X426687Y-36439D01*
X426946Y-36365D01*
X427187Y-36254D01*
X427428Y-36106D01*
X427446Y-36088D01*
X427539Y-36014D01*
X427650Y-35903D01*
X427780Y-35754D01*
X427928Y-35551D01*
X428094Y-35292D01*
X428261Y-34995D01*
X428409Y-34643D01*
X430039Y-34847D01*
Y-34866D01*
X430020Y-34903D01*
X430002Y-34977D01*
X429965Y-35088D01*
X429909Y-35199D01*
X429854Y-35347D01*
X429706Y-35662D01*
X429520Y-36014D01*
X429261Y-36384D01*
X428965Y-36736D01*
X428595Y-37069D01*
X428576D01*
X428539Y-37106D01*
X428483Y-37143D01*
X428409Y-37199D01*
X428298Y-37254D01*
X428187Y-37310D01*
X428039Y-37384D01*
X427872Y-37458D01*
X427687Y-37532D01*
X427502Y-37606D01*
X427039Y-37717D01*
X426521Y-37810D01*
X425947Y-37847D01*
X425743D01*
X425613Y-37828D01*
X425447Y-37810D01*
X425243Y-37773D01*
X425021Y-37736D01*
X424780Y-37699D01*
X424262Y-37550D01*
X423984Y-37439D01*
X423725Y-37328D01*
X423447Y-37180D01*
X423188Y-37013D01*
X422947Y-36828D01*
X422706Y-36606D01*
X422688Y-36588D01*
X422651Y-36551D01*
X422595Y-36477D01*
X422521Y-36365D01*
X422428Y-36236D01*
X422336Y-36088D01*
X422225Y-35903D01*
X422114Y-35699D01*
X422003Y-35458D01*
X421892Y-35199D01*
X421799Y-34903D01*
X421706Y-34588D01*
X421632Y-34255D01*
X421577Y-33884D01*
X421540Y-33495D01*
X421521Y-33088D01*
Y-33070D01*
Y-32977D01*
Y-32866D01*
X421540Y-32699D01*
X421558Y-32496D01*
X421577Y-32273D01*
X421614Y-32014D01*
X421669Y-31755D01*
X421817Y-31162D01*
X421910Y-30866D01*
X422021Y-30551D01*
X422169Y-30255D01*
X422336Y-29977D01*
X422521Y-29699D01*
X422725Y-29440D01*
X422743Y-29422D01*
X422780Y-29385D01*
X422854Y-29329D01*
X422947Y-29237D01*
X423058Y-29144D01*
X423206Y-29033D01*
X423373Y-28903D01*
X423577Y-28792D01*
X423780Y-28663D01*
X424021Y-28551D01*
X424280Y-28440D01*
X424558Y-28348D01*
X424854Y-28255D01*
X425169Y-28200D01*
X425502Y-28163D01*
X425854Y-28144D01*
X426039D01*
X426169Y-28163D01*
D02*
G37*
G36*
X383303Y-28163D02*
X383470Y-28181D01*
X383655Y-28218D01*
X383858Y-28255D01*
X384099Y-28292D01*
X384599Y-28459D01*
X384858Y-28551D01*
X385117Y-28681D01*
X385377Y-28811D01*
X385636Y-28996D01*
X385877Y-29181D01*
X386117Y-29403D01*
X386136Y-29422D01*
X386173Y-29459D01*
X386228Y-29533D01*
X386303Y-29625D01*
X386395Y-29755D01*
X386506Y-29922D01*
X386617Y-30107D01*
X386728Y-30310D01*
X386839Y-30533D01*
X386951Y-30810D01*
X387062Y-31088D01*
X387154Y-31403D01*
X387228Y-31736D01*
X387284Y-32088D01*
X387321Y-32459D01*
X387340Y-32866D01*
Y-32884D01*
Y-32940D01*
Y-33033D01*
Y-33162D01*
X387321Y-33310D01*
X387303Y-33495D01*
Y-33681D01*
X387265Y-33884D01*
X387210Y-34347D01*
X387099Y-34810D01*
X386969Y-35273D01*
X386784Y-35699D01*
Y-35717D01*
X386766Y-35736D01*
X386728Y-35791D01*
X386691Y-35865D01*
X386562Y-36051D01*
X386395Y-36273D01*
X386173Y-36532D01*
X385895Y-36791D01*
X385580Y-37051D01*
X385210Y-37291D01*
X385192D01*
X385173Y-37310D01*
X385117Y-37347D01*
X385025Y-37384D01*
X384932Y-37421D01*
X384821Y-37458D01*
X384543Y-37569D01*
X384229Y-37662D01*
X383840Y-37754D01*
X383433Y-37828D01*
X382988Y-37847D01*
X382803D01*
X382655Y-37828D01*
X382488Y-37810D01*
X382303Y-37773D01*
X382081Y-37736D01*
X381859Y-37699D01*
X381359Y-37550D01*
X381081Y-37439D01*
X380822Y-37328D01*
X380562Y-37180D01*
X380303Y-37013D01*
X380062Y-36828D01*
X379822Y-36606D01*
X379803Y-36588D01*
X379766Y-36551D01*
X379711Y-36477D01*
X379637Y-36365D01*
X379544Y-36236D01*
X379451Y-36088D01*
X379340Y-35903D01*
X379229Y-35680D01*
X379118Y-35440D01*
X379007Y-35162D01*
X378914Y-34866D01*
X378822Y-34551D01*
X378748Y-34199D01*
X378692Y-33829D01*
X378655Y-33421D01*
X378637Y-32995D01*
Y-32958D01*
Y-32884D01*
X378655Y-32755D01*
Y-32570D01*
X378674Y-32366D01*
X378711Y-32107D01*
X378748Y-31847D01*
X378822Y-31551D01*
X378896Y-31255D01*
X378988Y-30940D01*
X379100Y-30607D01*
X379248Y-30292D01*
X379396Y-29996D01*
X379599Y-29699D01*
X379803Y-29422D01*
X380062Y-29181D01*
X380081Y-29162D01*
X380118Y-29144D01*
X380192Y-29088D01*
X380285Y-29014D01*
X380396Y-28940D01*
X380544Y-28848D01*
X380692Y-28755D01*
X380877Y-28663D01*
X381081Y-28570D01*
X381303Y-28477D01*
X381803Y-28311D01*
X382377Y-28181D01*
X382673Y-28163D01*
X382988Y-28144D01*
X383173D01*
X383303Y-28163D01*
D02*
G37*
G36*
X342474D02*
X342640Y-28181D01*
X342826Y-28218D01*
X343029Y-28255D01*
X343270Y-28292D01*
X343770Y-28459D01*
X344029Y-28551D01*
X344288Y-28681D01*
X344548Y-28811D01*
X344807Y-28996D01*
X345048Y-29181D01*
X345288Y-29403D01*
X345307Y-29422D01*
X345344Y-29459D01*
X345399Y-29533D01*
X345474Y-29625D01*
X345566Y-29755D01*
X345677Y-29922D01*
X345788Y-30107D01*
X345899Y-30310D01*
X346010Y-30533D01*
X346121Y-30810D01*
X346233Y-31088D01*
X346325Y-31403D01*
X346399Y-31736D01*
X346455Y-32088D01*
X346492Y-32459D01*
X346510Y-32866D01*
Y-32884D01*
Y-32940D01*
Y-33033D01*
Y-33162D01*
X346492Y-33310D01*
X346473Y-33495D01*
Y-33681D01*
X346436Y-33884D01*
X346381Y-34347D01*
X346270Y-34810D01*
X346140Y-35273D01*
X345955Y-35699D01*
Y-35717D01*
X345936Y-35736D01*
X345899Y-35791D01*
X345862Y-35865D01*
X345733Y-36051D01*
X345566Y-36273D01*
X345344Y-36532D01*
X345066Y-36791D01*
X344751Y-37051D01*
X344381Y-37291D01*
X344362D01*
X344344Y-37310D01*
X344288Y-37347D01*
X344196Y-37384D01*
X344103Y-37421D01*
X343992Y-37458D01*
X343714Y-37569D01*
X343400Y-37662D01*
X343011Y-37754D01*
X342603Y-37828D01*
X342159Y-37847D01*
X341974D01*
X341826Y-37828D01*
X341659Y-37810D01*
X341474Y-37773D01*
X341252Y-37736D01*
X341030Y-37699D01*
X340530Y-37550D01*
X340252Y-37439D01*
X339992Y-37328D01*
X339733Y-37180D01*
X339474Y-37013D01*
X339233Y-36828D01*
X338993Y-36606D01*
X338974Y-36588D01*
X338937Y-36551D01*
X338881Y-36477D01*
X338807Y-36365D01*
X338715Y-36236D01*
X338622Y-36088D01*
X338511Y-35903D01*
X338400Y-35680D01*
X338289Y-35440D01*
X338178Y-35162D01*
X338085Y-34866D01*
X337993Y-34551D01*
X337919Y-34199D01*
X337863Y-33829D01*
X337826Y-33421D01*
X337808Y-32995D01*
Y-32958D01*
Y-32884D01*
X337826Y-32755D01*
Y-32570D01*
X337845Y-32366D01*
X337882Y-32107D01*
X337919Y-31847D01*
X337993Y-31551D01*
X338067Y-31255D01*
X338159Y-30940D01*
X338270Y-30607D01*
X338419Y-30292D01*
X338567Y-29996D01*
X338770Y-29699D01*
X338974Y-29422D01*
X339233Y-29181D01*
X339252Y-29162D01*
X339289Y-29144D01*
X339363Y-29088D01*
X339456Y-29014D01*
X339567Y-28940D01*
X339715Y-28848D01*
X339863Y-28755D01*
X340048Y-28663D01*
X340252Y-28570D01*
X340474Y-28477D01*
X340974Y-28311D01*
X341548Y-28181D01*
X341844Y-28163D01*
X342159Y-28144D01*
X342344D01*
X342474Y-28163D01*
D02*
G37*
G36*
X329975Y-29403D02*
X329994Y-29385D01*
X330012Y-29348D01*
X330068Y-29292D01*
X330160Y-29200D01*
X330253Y-29107D01*
X330364Y-28996D01*
X330512Y-28885D01*
X330660Y-28774D01*
X331031Y-28533D01*
X331456Y-28348D01*
X331697Y-28255D01*
X331956Y-28200D01*
X332234Y-28163D01*
X332512Y-28144D01*
X332660D01*
X332827Y-28163D01*
X333030Y-28181D01*
X333271Y-28237D01*
X333549Y-28292D01*
X333845Y-28385D01*
X334123Y-28496D01*
X334160Y-28514D01*
X334252Y-28551D01*
X334400Y-28644D01*
X334567Y-28755D01*
X334771Y-28885D01*
X334975Y-29051D01*
X335197Y-29255D01*
X335382Y-29477D01*
X335400Y-29496D01*
X335456Y-29588D01*
X335549Y-29718D01*
X335660Y-29885D01*
X335789Y-30107D01*
X335919Y-30366D01*
X336049Y-30662D01*
X336160Y-30977D01*
Y-30996D01*
X336178Y-31014D01*
X336197Y-31070D01*
X336215Y-31125D01*
X336252Y-31310D01*
X336308Y-31551D01*
X336363Y-31829D01*
X336419Y-32144D01*
X336437Y-32496D01*
X336456Y-32866D01*
Y-32884D01*
Y-32977D01*
Y-33088D01*
X336437Y-33255D01*
X336419Y-33458D01*
X336400Y-33681D01*
X336363Y-33940D01*
X336308Y-34218D01*
X336160Y-34810D01*
X336067Y-35125D01*
X335956Y-35421D01*
X335826Y-35736D01*
X335660Y-36014D01*
X335475Y-36291D01*
X335271Y-36551D01*
X335252Y-36569D01*
X335215Y-36606D01*
X335160Y-36662D01*
X335067Y-36754D01*
X334938Y-36847D01*
X334808Y-36958D01*
X334660Y-37069D01*
X334475Y-37199D01*
X334271Y-37310D01*
X334067Y-37439D01*
X333567Y-37643D01*
X333308Y-37736D01*
X333030Y-37791D01*
X332734Y-37828D01*
X332438Y-37847D01*
X332364D01*
X332271Y-37828D01*
X332160D01*
X332030Y-37810D01*
X331864Y-37773D01*
X331493Y-37680D01*
X331290Y-37606D01*
X331086Y-37513D01*
X330864Y-37402D01*
X330660Y-37273D01*
X330438Y-37106D01*
X330234Y-36921D01*
X330049Y-36717D01*
X329864Y-36477D01*
Y-37643D01*
X328401D01*
Y-24830D01*
X329975D01*
Y-29403D01*
D02*
G37*
G36*
X311607Y-28163D02*
X311773Y-28181D01*
X311958Y-28218D01*
X312162Y-28255D01*
X312403Y-28292D01*
X312903Y-28459D01*
X313162Y-28551D01*
X313421Y-28681D01*
X313680Y-28811D01*
X313940Y-28996D01*
X314180Y-29181D01*
X314421Y-29403D01*
X314440Y-29422D01*
X314477Y-29459D01*
X314532Y-29533D01*
X314606Y-29625D01*
X314699Y-29755D01*
X314810Y-29922D01*
X314921Y-30107D01*
X315032Y-30310D01*
X315143Y-30533D01*
X315254Y-30810D01*
X315366Y-31088D01*
X315458Y-31403D01*
X315532Y-31736D01*
X315588Y-32088D01*
X315625Y-32459D01*
X315643Y-32866D01*
Y-32884D01*
Y-32940D01*
Y-33033D01*
Y-33162D01*
X315625Y-33310D01*
X315606Y-33495D01*
Y-33681D01*
X315569Y-33884D01*
X315514Y-34347D01*
X315403Y-34810D01*
X315273Y-35273D01*
X315088Y-35699D01*
Y-35717D01*
X315069Y-35736D01*
X315032Y-35791D01*
X314995Y-35865D01*
X314865Y-36051D01*
X314699Y-36273D01*
X314477Y-36532D01*
X314199Y-36791D01*
X313884Y-37051D01*
X313514Y-37291D01*
X313495D01*
X313477Y-37310D01*
X313421Y-37347D01*
X313329Y-37384D01*
X313236Y-37421D01*
X313125Y-37458D01*
X312847Y-37569D01*
X312532Y-37662D01*
X312144Y-37754D01*
X311736Y-37828D01*
X311292Y-37847D01*
X311107D01*
X310958Y-37828D01*
X310792Y-37810D01*
X310607Y-37773D01*
X310385Y-37736D01*
X310162Y-37699D01*
X309662Y-37550D01*
X309385Y-37439D01*
X309125Y-37328D01*
X308866Y-37180D01*
X308607Y-37013D01*
X308366Y-36828D01*
X308125Y-36606D01*
X308107Y-36588D01*
X308070Y-36551D01*
X308014Y-36477D01*
X307940Y-36365D01*
X307848Y-36236D01*
X307755Y-36088D01*
X307644Y-35903D01*
X307533Y-35680D01*
X307422Y-35440D01*
X307311Y-35162D01*
X307218Y-34866D01*
X307126Y-34551D01*
X307052Y-34199D01*
X306996Y-33829D01*
X306959Y-33421D01*
X306940Y-32995D01*
Y-32958D01*
Y-32884D01*
X306959Y-32755D01*
Y-32570D01*
X306977Y-32366D01*
X307015Y-32107D01*
X307052Y-31847D01*
X307126Y-31551D01*
X307200Y-31255D01*
X307292Y-30940D01*
X307403Y-30607D01*
X307551Y-30292D01*
X307700Y-29996D01*
X307903Y-29699D01*
X308107Y-29422D01*
X308366Y-29181D01*
X308385Y-29162D01*
X308422Y-29144D01*
X308496Y-29088D01*
X308588Y-29014D01*
X308699Y-28940D01*
X308848Y-28848D01*
X308996Y-28755D01*
X309181Y-28663D01*
X309385Y-28570D01*
X309607Y-28477D01*
X310107Y-28311D01*
X310681Y-28181D01*
X310977Y-28163D01*
X311292Y-28144D01*
X311477D01*
X311607Y-28163D01*
D02*
G37*
G36*
X268778D02*
X268944Y-28181D01*
X269130Y-28218D01*
X269333Y-28255D01*
X269574Y-28292D01*
X270074Y-28459D01*
X270333Y-28551D01*
X270592Y-28681D01*
X270852Y-28811D01*
X271111Y-28996D01*
X271352Y-29181D01*
X271592Y-29403D01*
X271611Y-29422D01*
X271648Y-29459D01*
X271703Y-29533D01*
X271777Y-29625D01*
X271870Y-29755D01*
X271981Y-29922D01*
X272092Y-30107D01*
X272203Y-30310D01*
X272314Y-30533D01*
X272425Y-30810D01*
X272537Y-31088D01*
X272629Y-31403D01*
X272703Y-31736D01*
X272759Y-32088D01*
X272796Y-32459D01*
X272814Y-32866D01*
Y-32884D01*
Y-32940D01*
Y-33033D01*
Y-33162D01*
X272796Y-33310D01*
X272777Y-33495D01*
Y-33681D01*
X272740Y-33884D01*
X272685Y-34347D01*
X272574Y-34810D01*
X272444Y-35273D01*
X272259Y-35699D01*
Y-35717D01*
X272240Y-35736D01*
X272203Y-35791D01*
X272166Y-35865D01*
X272037Y-36051D01*
X271870Y-36273D01*
X271648Y-36532D01*
X271370Y-36791D01*
X271055Y-37051D01*
X270685Y-37291D01*
X270666D01*
X270648Y-37310D01*
X270592Y-37347D01*
X270500Y-37384D01*
X270407Y-37421D01*
X270296Y-37458D01*
X270018Y-37569D01*
X269704Y-37662D01*
X269315Y-37754D01*
X268907Y-37828D01*
X268463Y-37847D01*
X268278D01*
X268130Y-37828D01*
X267963Y-37810D01*
X267778Y-37773D01*
X267556Y-37736D01*
X267333Y-37699D01*
X266833Y-37550D01*
X266556Y-37439D01*
X266297Y-37328D01*
X266037Y-37180D01*
X265778Y-37013D01*
X265537Y-36828D01*
X265297Y-36606D01*
X265278Y-36588D01*
X265241Y-36551D01*
X265186Y-36477D01*
X265111Y-36365D01*
X265019Y-36236D01*
X264926Y-36088D01*
X264815Y-35903D01*
X264704Y-35680D01*
X264593Y-35440D01*
X264482Y-35162D01*
X264389Y-34866D01*
X264297Y-34551D01*
X264223Y-34199D01*
X264167Y-33829D01*
X264130Y-33421D01*
X264111Y-32995D01*
Y-32958D01*
Y-32884D01*
X264130Y-32755D01*
Y-32570D01*
X264149Y-32366D01*
X264186Y-32107D01*
X264223Y-31847D01*
X264297Y-31551D01*
X264371Y-31255D01*
X264463Y-30940D01*
X264574Y-30607D01*
X264723Y-30292D01*
X264871Y-29996D01*
X265074Y-29699D01*
X265278Y-29422D01*
X265537Y-29181D01*
X265556Y-29162D01*
X265593Y-29144D01*
X265667Y-29088D01*
X265760Y-29014D01*
X265871Y-28940D01*
X266019Y-28848D01*
X266167Y-28755D01*
X266352Y-28663D01*
X266556Y-28570D01*
X266778Y-28477D01*
X267278Y-28311D01*
X267852Y-28181D01*
X268148Y-28163D01*
X268463Y-28144D01*
X268648D01*
X268778Y-28163D01*
D02*
G37*
G36*
X205099Y-28163D02*
X205247Y-28181D01*
X205432Y-28218D01*
X205636Y-28255D01*
X205877Y-28311D01*
X206099Y-28366D01*
X206358Y-28459D01*
X206599Y-28551D01*
X206858Y-28681D01*
X207117Y-28829D01*
X207377Y-28996D01*
X207617Y-29200D01*
X207840Y-29422D01*
X207858Y-29440D01*
X207895Y-29477D01*
X207951Y-29551D01*
X208025Y-29662D01*
X208117Y-29792D01*
X208210Y-29940D01*
X208321Y-30125D01*
X208432Y-30348D01*
X208543Y-30588D01*
X208654Y-30847D01*
X208747Y-31144D01*
X208839Y-31459D01*
X208913Y-31810D01*
X208969Y-32181D01*
X209006Y-32570D01*
X209025Y-32996D01*
Y-33014D01*
Y-33088D01*
Y-33218D01*
X209006Y-33403D01*
X202062D01*
Y-33421D01*
Y-33477D01*
X202081Y-33551D01*
Y-33662D01*
X202099Y-33792D01*
X202136Y-33940D01*
X202192Y-34273D01*
X202303Y-34643D01*
X202451Y-35051D01*
X202655Y-35421D01*
X202914Y-35754D01*
X202933D01*
X202951Y-35791D01*
X203062Y-35884D01*
X203229Y-36014D01*
X203451Y-36143D01*
X203747Y-36291D01*
X204081Y-36421D01*
X204451Y-36514D01*
X204655Y-36532D01*
X204877Y-36551D01*
X205025D01*
X205192Y-36532D01*
X205395Y-36495D01*
X205618Y-36440D01*
X205877Y-36365D01*
X206117Y-36254D01*
X206358Y-36106D01*
X206377Y-36088D01*
X206469Y-36014D01*
X206580Y-35903D01*
X206710Y-35754D01*
X206858Y-35551D01*
X207025Y-35292D01*
X207192Y-34995D01*
X207340Y-34643D01*
X208969Y-34847D01*
Y-34866D01*
X208951Y-34903D01*
X208932Y-34977D01*
X208895Y-35088D01*
X208839Y-35199D01*
X208784Y-35347D01*
X208636Y-35662D01*
X208451Y-36014D01*
X208191Y-36384D01*
X207895Y-36736D01*
X207525Y-37069D01*
X207506D01*
X207469Y-37106D01*
X207414Y-37143D01*
X207340Y-37199D01*
X207229Y-37254D01*
X207117Y-37310D01*
X206969Y-37384D01*
X206803Y-37458D01*
X206618Y-37532D01*
X206432Y-37606D01*
X205969Y-37717D01*
X205451Y-37810D01*
X204877Y-37847D01*
X204673D01*
X204544Y-37828D01*
X204377Y-37810D01*
X204173Y-37773D01*
X203951Y-37736D01*
X203710Y-37699D01*
X203192Y-37550D01*
X202914Y-37439D01*
X202655Y-37328D01*
X202377Y-37180D01*
X202118Y-37014D01*
X201877Y-36828D01*
X201637Y-36606D01*
X201618Y-36588D01*
X201581Y-36551D01*
X201525Y-36477D01*
X201451Y-36365D01*
X201359Y-36236D01*
X201266Y-36088D01*
X201155Y-35903D01*
X201044Y-35699D01*
X200933Y-35458D01*
X200822Y-35199D01*
X200729Y-34903D01*
X200637Y-34588D01*
X200562Y-34255D01*
X200507Y-33884D01*
X200470Y-33495D01*
X200451Y-33088D01*
Y-33070D01*
Y-32977D01*
Y-32866D01*
X200470Y-32699D01*
X200488Y-32496D01*
X200507Y-32273D01*
X200544Y-32014D01*
X200600Y-31755D01*
X200748Y-31162D01*
X200840Y-30866D01*
X200951Y-30551D01*
X201099Y-30255D01*
X201266Y-29977D01*
X201451Y-29699D01*
X201655Y-29440D01*
X201674Y-29422D01*
X201711Y-29385D01*
X201785Y-29329D01*
X201877Y-29237D01*
X201988Y-29144D01*
X202136Y-29033D01*
X202303Y-28903D01*
X202507Y-28792D01*
X202710Y-28663D01*
X202951Y-28551D01*
X203210Y-28440D01*
X203488Y-28348D01*
X203784Y-28255D01*
X204099Y-28200D01*
X204433Y-28163D01*
X204784Y-28144D01*
X204970D01*
X205099Y-28163D01*
D02*
G37*
%LPC*%
G36*
X367767Y-29440D02*
X367675D01*
X367601Y-29459D01*
X367397Y-29477D01*
X367156Y-29551D01*
X366879Y-29644D01*
X366582Y-29811D01*
X366286Y-30014D01*
X366138Y-30162D01*
X366008Y-30310D01*
Y-30329D01*
X365971Y-30348D01*
X365953Y-30403D01*
X365897Y-30477D01*
X365842Y-30570D01*
X365786Y-30681D01*
X365731Y-30810D01*
X365657Y-30959D01*
X365583Y-31144D01*
X365527Y-31347D01*
X365471Y-31570D01*
X365416Y-31810D01*
X365379Y-32070D01*
X365342Y-32366D01*
X365305Y-32681D01*
Y-33014D01*
Y-33033D01*
Y-33088D01*
Y-33181D01*
X365323Y-33310D01*
Y-33458D01*
X365342Y-33625D01*
X365397Y-34014D01*
X365490Y-34440D01*
X365620Y-34884D01*
X365805Y-35310D01*
X365916Y-35495D01*
X366045Y-35680D01*
X366064D01*
X366082Y-35717D01*
X366175Y-35810D01*
X366342Y-35958D01*
X366545Y-36106D01*
X366805Y-36273D01*
X367119Y-36421D01*
X367453Y-36514D01*
X367638Y-36532D01*
X367823Y-36551D01*
X367916D01*
X367990Y-36532D01*
X368193Y-36514D01*
X368434Y-36439D01*
X368712Y-36347D01*
X369008Y-36199D01*
X369304Y-35995D01*
X369452Y-35865D01*
X369582Y-35717D01*
Y-35699D01*
X369619Y-35680D01*
X369656Y-35625D01*
X369693Y-35551D01*
X369749Y-35458D01*
X369823Y-35366D01*
X369878Y-35217D01*
X369952Y-35069D01*
X370027Y-34903D01*
X370082Y-34718D01*
X370156Y-34495D01*
X370212Y-34273D01*
X370249Y-34014D01*
X370286Y-33755D01*
X370323Y-33458D01*
Y-33144D01*
Y-33125D01*
Y-33051D01*
Y-32958D01*
X370304Y-32829D01*
Y-32681D01*
X370286Y-32496D01*
X370267Y-32292D01*
X370230Y-32070D01*
X370138Y-31625D01*
X370008Y-31162D01*
X369823Y-30718D01*
X369712Y-30533D01*
X369582Y-30348D01*
Y-30329D01*
X369545Y-30310D01*
X369452Y-30199D01*
X369286Y-30051D01*
X369082Y-29885D01*
X368823Y-29718D01*
X368508Y-29588D01*
X368156Y-29477D01*
X367971Y-29459D01*
X367767Y-29440D01*
D02*
G37*
G36*
X354306Y-32977D02*
X354287D01*
X354269Y-32995D01*
X354213Y-33014D01*
X354139Y-33033D01*
X354047Y-33070D01*
X353936Y-33107D01*
X353806Y-33144D01*
X353658Y-33181D01*
X353491Y-33236D01*
X353288Y-33273D01*
X353084Y-33329D01*
X352843Y-33384D01*
X352584Y-33440D01*
X352325Y-33495D01*
X352028Y-33532D01*
X351713Y-33588D01*
X351676D01*
X351565Y-33607D01*
X351380Y-33644D01*
X351177Y-33681D01*
X350954Y-33718D01*
X350732Y-33773D01*
X350528Y-33829D01*
X350343Y-33903D01*
X350325D01*
X350269Y-33940D01*
X350195Y-33977D01*
X350121Y-34032D01*
X349899Y-34181D01*
X349714Y-34403D01*
Y-34421D01*
X349677Y-34458D01*
X349658Y-34532D01*
X349621Y-34625D01*
X349584Y-34736D01*
X349547Y-34847D01*
X349529Y-34995D01*
X349510Y-35143D01*
Y-35162D01*
Y-35254D01*
X349529Y-35366D01*
X349566Y-35514D01*
X349621Y-35680D01*
X349714Y-35847D01*
X349825Y-36032D01*
X349973Y-36199D01*
X349991Y-36217D01*
X350066Y-36254D01*
X350177Y-36328D01*
X350325Y-36402D01*
X350528Y-36477D01*
X350769Y-36551D01*
X351047Y-36588D01*
X351380Y-36606D01*
X351528D01*
X351713Y-36588D01*
X351917Y-36551D01*
X352177Y-36514D01*
X352436Y-36439D01*
X352713Y-36347D01*
X352991Y-36217D01*
X353028Y-36199D01*
X353102Y-36143D01*
X353232Y-36051D01*
X353380Y-35921D01*
X353547Y-35773D01*
X353732Y-35588D01*
X353880Y-35366D01*
X354028Y-35125D01*
X354047Y-35106D01*
X354065Y-35032D01*
X354102Y-34903D01*
X354158Y-34736D01*
X354213Y-34514D01*
X354250Y-34255D01*
X354269Y-33940D01*
X354287Y-33570D01*
X354306Y-32977D01*
D02*
G37*
G36*
X425872Y-29440D02*
X425761D01*
X425687Y-29459D01*
X425484Y-29477D01*
X425243Y-29533D01*
X424947Y-29625D01*
X424632Y-29755D01*
X424336Y-29940D01*
X424039Y-30181D01*
X424002Y-30218D01*
X423928Y-30310D01*
X423799Y-30477D01*
X423669Y-30699D01*
X423521Y-30959D01*
X423391Y-31292D01*
X423280Y-31681D01*
X423225Y-32107D01*
X428428D01*
Y-32088D01*
Y-32051D01*
X428409Y-31995D01*
Y-31921D01*
X428372Y-31699D01*
X428317Y-31458D01*
X428224Y-31162D01*
X428132Y-30884D01*
X427983Y-30607D01*
X427817Y-30366D01*
Y-30347D01*
X427780Y-30329D01*
X427687Y-30218D01*
X427520Y-30070D01*
X427298Y-29903D01*
X427021Y-29736D01*
X426687Y-29588D01*
X426298Y-29477D01*
X426095Y-29459D01*
X425872Y-29440D01*
D02*
G37*
G36*
X382988Y-29440D02*
X382877D01*
X382784Y-29459D01*
X382581Y-29477D01*
X382303Y-29551D01*
X381988Y-29662D01*
X381655Y-29811D01*
X381340Y-30033D01*
X381174Y-30181D01*
X381025Y-30329D01*
Y-30348D01*
X380988Y-30366D01*
X380951Y-30422D01*
X380896Y-30496D01*
X380840Y-30588D01*
X380785Y-30699D01*
X380710Y-30847D01*
X380636Y-30996D01*
X380562Y-31181D01*
X380488Y-31366D01*
X380433Y-31588D01*
X380377Y-31829D01*
X380322Y-32088D01*
X380285Y-32366D01*
X380266Y-32681D01*
X380248Y-32995D01*
Y-33014D01*
Y-33070D01*
Y-33162D01*
X380266Y-33292D01*
Y-33440D01*
X380285Y-33607D01*
X380340Y-33995D01*
X380433Y-34440D01*
X380581Y-34884D01*
X380766Y-35310D01*
X380896Y-35495D01*
X381025Y-35680D01*
X381044D01*
X381062Y-35717D01*
X381174Y-35810D01*
X381340Y-35958D01*
X381562Y-36106D01*
X381840Y-36273D01*
X382173Y-36421D01*
X382562Y-36514D01*
X382766Y-36532D01*
X382988Y-36551D01*
X383099D01*
X383192Y-36532D01*
X383395Y-36495D01*
X383673Y-36439D01*
X383969Y-36328D01*
X384303Y-36180D01*
X384618Y-35958D01*
X384784Y-35810D01*
X384932Y-35662D01*
X384951Y-35643D01*
X384969Y-35625D01*
X385006Y-35569D01*
X385062Y-35495D01*
X385117Y-35403D01*
X385192Y-35292D01*
X385266Y-35143D01*
X385340Y-34995D01*
X385414Y-34810D01*
X385469Y-34606D01*
X385543Y-34384D01*
X385599Y-34144D01*
X385654Y-33866D01*
X385691Y-33588D01*
X385728Y-33273D01*
Y-32940D01*
Y-32921D01*
Y-32866D01*
Y-32773D01*
X385710Y-32662D01*
Y-32514D01*
X385691Y-32347D01*
X385636Y-31958D01*
X385543Y-31551D01*
X385395Y-31107D01*
X385192Y-30699D01*
X385080Y-30496D01*
X384932Y-30329D01*
Y-30310D01*
X384895Y-30292D01*
X384784Y-30181D01*
X384618Y-30051D01*
X384395Y-29885D01*
X384118Y-29718D01*
X383784Y-29570D01*
X383414Y-29477D01*
X383210Y-29459D01*
X382988Y-29440D01*
D02*
G37*
G36*
X342159D02*
X342048D01*
X341955Y-29459D01*
X341752Y-29477D01*
X341474Y-29551D01*
X341159Y-29662D01*
X340826Y-29811D01*
X340511Y-30033D01*
X340344Y-30181D01*
X340196Y-30329D01*
Y-30348D01*
X340159Y-30366D01*
X340122Y-30422D01*
X340067Y-30496D01*
X340011Y-30588D01*
X339955Y-30699D01*
X339881Y-30847D01*
X339807Y-30996D01*
X339733Y-31181D01*
X339659Y-31366D01*
X339604Y-31588D01*
X339548Y-31829D01*
X339493Y-32088D01*
X339456Y-32366D01*
X339437Y-32681D01*
X339418Y-32995D01*
Y-33014D01*
Y-33070D01*
Y-33162D01*
X339437Y-33292D01*
Y-33440D01*
X339456Y-33607D01*
X339511Y-33995D01*
X339604Y-34440D01*
X339752Y-34884D01*
X339937Y-35310D01*
X340067Y-35495D01*
X340196Y-35680D01*
X340215D01*
X340233Y-35717D01*
X340344Y-35810D01*
X340511Y-35958D01*
X340733Y-36106D01*
X341011Y-36273D01*
X341344Y-36421D01*
X341733Y-36514D01*
X341937Y-36532D01*
X342159Y-36551D01*
X342270D01*
X342363Y-36532D01*
X342566Y-36495D01*
X342844Y-36439D01*
X343140Y-36328D01*
X343474Y-36180D01*
X343788Y-35958D01*
X343955Y-35810D01*
X344103Y-35662D01*
X344122Y-35643D01*
X344140Y-35625D01*
X344177Y-35569D01*
X344233Y-35495D01*
X344288Y-35403D01*
X344362Y-35292D01*
X344436Y-35143D01*
X344511Y-34995D01*
X344585Y-34810D01*
X344640Y-34606D01*
X344714Y-34384D01*
X344770Y-34144D01*
X344825Y-33866D01*
X344862Y-33588D01*
X344899Y-33273D01*
Y-32940D01*
Y-32921D01*
Y-32866D01*
Y-32773D01*
X344881Y-32662D01*
Y-32514D01*
X344862Y-32347D01*
X344807Y-31958D01*
X344714Y-31551D01*
X344566Y-31107D01*
X344362Y-30699D01*
X344251Y-30496D01*
X344103Y-30329D01*
Y-30310D01*
X344066Y-30292D01*
X343955Y-30181D01*
X343788Y-30051D01*
X343566Y-29885D01*
X343288Y-29718D01*
X342955Y-29570D01*
X342585Y-29477D01*
X342381Y-29459D01*
X342159Y-29440D01*
D02*
G37*
G36*
X332549D02*
X332271D01*
X332197Y-29459D01*
X331993Y-29496D01*
X331753Y-29551D01*
X331475Y-29662D01*
X331179Y-29829D01*
X331031Y-29922D01*
X330882Y-30051D01*
X330734Y-30181D01*
X330586Y-30348D01*
Y-30366D01*
X330549Y-30385D01*
X330512Y-30440D01*
X330475Y-30514D01*
X330420Y-30607D01*
X330345Y-30718D01*
X330290Y-30847D01*
X330216Y-30996D01*
X330142Y-31181D01*
X330086Y-31366D01*
X330012Y-31588D01*
X329957Y-31810D01*
X329920Y-32070D01*
X329883Y-32347D01*
X329845Y-32625D01*
Y-32940D01*
Y-32958D01*
Y-33014D01*
Y-33107D01*
Y-33218D01*
X329864Y-33347D01*
Y-33514D01*
X329901Y-33866D01*
X329957Y-34255D01*
X330031Y-34662D01*
X330142Y-35032D01*
X330216Y-35199D01*
X330290Y-35347D01*
Y-35366D01*
X330327Y-35403D01*
X330364Y-35458D01*
X330420Y-35532D01*
X330586Y-35736D01*
X330827Y-35940D01*
X331105Y-36162D01*
X331456Y-36365D01*
X331642Y-36439D01*
X331864Y-36495D01*
X332067Y-36532D01*
X332308Y-36551D01*
X332401D01*
X332475Y-36532D01*
X332678Y-36495D01*
X332919Y-36439D01*
X333197Y-36328D01*
X333493Y-36180D01*
X333789Y-35958D01*
X333938Y-35810D01*
X334086Y-35662D01*
Y-35643D01*
X334123Y-35625D01*
X334160Y-35569D01*
X334197Y-35495D01*
X334271Y-35403D01*
X334327Y-35292D01*
X334400Y-35143D01*
X334475Y-34995D01*
X334530Y-34810D01*
X334604Y-34625D01*
X334678Y-34403D01*
X334734Y-34162D01*
X334771Y-33903D01*
X334808Y-33625D01*
X334845Y-33310D01*
Y-32995D01*
Y-32977D01*
Y-32921D01*
Y-32829D01*
X334826Y-32699D01*
Y-32551D01*
X334808Y-32366D01*
X334752Y-31977D01*
X334678Y-31551D01*
X334549Y-31088D01*
X334364Y-30681D01*
X334252Y-30477D01*
X334123Y-30310D01*
Y-30292D01*
X334086Y-30273D01*
X333993Y-30181D01*
X333845Y-30033D01*
X333641Y-29866D01*
X333382Y-29718D01*
X333086Y-29570D01*
X332734Y-29477D01*
X332549Y-29440D01*
D02*
G37*
G36*
X311292D02*
X311181D01*
X311088Y-29459D01*
X310884Y-29477D01*
X310607Y-29551D01*
X310292Y-29662D01*
X309959Y-29811D01*
X309644Y-30033D01*
X309477Y-30181D01*
X309329Y-30329D01*
Y-30348D01*
X309292Y-30366D01*
X309255Y-30422D01*
X309199Y-30496D01*
X309144Y-30588D01*
X309088Y-30699D01*
X309014Y-30847D01*
X308940Y-30996D01*
X308866Y-31181D01*
X308792Y-31366D01*
X308736Y-31588D01*
X308681Y-31829D01*
X308625Y-32088D01*
X308588Y-32366D01*
X308570Y-32681D01*
X308551Y-32995D01*
Y-33014D01*
Y-33070D01*
Y-33162D01*
X308570Y-33292D01*
Y-33440D01*
X308588Y-33607D01*
X308644Y-33995D01*
X308736Y-34440D01*
X308885Y-34884D01*
X309070Y-35310D01*
X309199Y-35495D01*
X309329Y-35680D01*
X309348D01*
X309366Y-35717D01*
X309477Y-35810D01*
X309644Y-35958D01*
X309866Y-36106D01*
X310144Y-36273D01*
X310477Y-36421D01*
X310866Y-36514D01*
X311070Y-36532D01*
X311292Y-36551D01*
X311403D01*
X311495Y-36532D01*
X311699Y-36495D01*
X311977Y-36439D01*
X312273Y-36328D01*
X312607Y-36180D01*
X312921Y-35958D01*
X313088Y-35810D01*
X313236Y-35662D01*
X313255Y-35643D01*
X313273Y-35625D01*
X313310Y-35569D01*
X313366Y-35495D01*
X313421Y-35403D01*
X313495Y-35292D01*
X313569Y-35143D01*
X313643Y-34995D01*
X313717Y-34810D01*
X313773Y-34606D01*
X313847Y-34384D01*
X313903Y-34144D01*
X313958Y-33866D01*
X313995Y-33588D01*
X314032Y-33273D01*
Y-32940D01*
Y-32921D01*
Y-32866D01*
Y-32773D01*
X314014Y-32662D01*
Y-32514D01*
X313995Y-32347D01*
X313940Y-31958D01*
X313847Y-31551D01*
X313699Y-31107D01*
X313495Y-30699D01*
X313384Y-30496D01*
X313236Y-30329D01*
Y-30310D01*
X313199Y-30292D01*
X313088Y-30181D01*
X312921Y-30051D01*
X312699Y-29885D01*
X312421Y-29718D01*
X312088Y-29570D01*
X311718Y-29477D01*
X311514Y-29459D01*
X311292Y-29440D01*
D02*
G37*
G36*
X268463D02*
X268352D01*
X268259Y-29459D01*
X268055Y-29477D01*
X267778Y-29551D01*
X267463Y-29662D01*
X267130Y-29811D01*
X266815Y-30033D01*
X266648Y-30181D01*
X266500Y-30329D01*
Y-30348D01*
X266463Y-30366D01*
X266426Y-30422D01*
X266371Y-30496D01*
X266315Y-30588D01*
X266259Y-30699D01*
X266185Y-30847D01*
X266111Y-30996D01*
X266037Y-31181D01*
X265963Y-31366D01*
X265908Y-31588D01*
X265852Y-31829D01*
X265797Y-32088D01*
X265760Y-32366D01*
X265741Y-32681D01*
X265723Y-32995D01*
Y-33014D01*
Y-33070D01*
Y-33162D01*
X265741Y-33292D01*
Y-33440D01*
X265760Y-33607D01*
X265815Y-33995D01*
X265908Y-34440D01*
X266056Y-34884D01*
X266241Y-35310D01*
X266371Y-35495D01*
X266500Y-35680D01*
X266519D01*
X266537Y-35717D01*
X266648Y-35810D01*
X266815Y-35958D01*
X267037Y-36106D01*
X267315Y-36273D01*
X267648Y-36421D01*
X268037Y-36514D01*
X268241Y-36532D01*
X268463Y-36551D01*
X268574D01*
X268667Y-36532D01*
X268870Y-36495D01*
X269148Y-36439D01*
X269444Y-36328D01*
X269778Y-36180D01*
X270092Y-35958D01*
X270259Y-35810D01*
X270407Y-35662D01*
X270426Y-35643D01*
X270444Y-35625D01*
X270481Y-35569D01*
X270537Y-35495D01*
X270592Y-35403D01*
X270666Y-35292D01*
X270741Y-35143D01*
X270814Y-34995D01*
X270889Y-34810D01*
X270944Y-34606D01*
X271018Y-34384D01*
X271074Y-34144D01*
X271129Y-33866D01*
X271166Y-33588D01*
X271203Y-33273D01*
Y-32940D01*
Y-32921D01*
Y-32866D01*
Y-32773D01*
X271185Y-32662D01*
Y-32514D01*
X271166Y-32347D01*
X271111Y-31958D01*
X271018Y-31551D01*
X270870Y-31107D01*
X270666Y-30699D01*
X270555Y-30496D01*
X270407Y-30329D01*
Y-30310D01*
X270370Y-30292D01*
X270259Y-30181D01*
X270092Y-30051D01*
X269870Y-29885D01*
X269592Y-29718D01*
X269259Y-29570D01*
X268889Y-29477D01*
X268685Y-29459D01*
X268463Y-29440D01*
D02*
G37*
G36*
X204803Y-29440D02*
X204692D01*
X204618Y-29459D01*
X204414Y-29477D01*
X204173Y-29533D01*
X203877Y-29625D01*
X203562Y-29755D01*
X203266Y-29940D01*
X202970Y-30181D01*
X202933Y-30218D01*
X202859Y-30311D01*
X202729Y-30477D01*
X202599Y-30699D01*
X202451Y-30959D01*
X202322Y-31292D01*
X202211Y-31681D01*
X202155Y-32107D01*
X207358D01*
Y-32088D01*
Y-32051D01*
X207340Y-31996D01*
Y-31922D01*
X207303Y-31699D01*
X207247Y-31459D01*
X207154Y-31162D01*
X207062Y-30885D01*
X206914Y-30607D01*
X206747Y-30366D01*
Y-30348D01*
X206710Y-30329D01*
X206618Y-30218D01*
X206451Y-30070D01*
X206229Y-29903D01*
X205951Y-29736D01*
X205618Y-29588D01*
X205229Y-29477D01*
X205025Y-29459D01*
X204803Y-29440D01*
D02*
G37*
%LPD*%
M02*
