G04*
G04 #@! TF.GenerationSoftware,Altium Limited,Altium Designer,21.6.1 (37)*
G04*
G04 Layer_Color=65280*
%FSLAX44Y44*%
%MOMM*%
G71*
G04*
G04 #@! TF.SameCoordinates,2C954E57-417A-4088-9090-092BEE8FAD55*
G04*
G04*
G04 #@! TF.FilePolarity,Positive*
G04*
G01*
G75*
%ADD198C,0.1000*%
%ADD201C,0.0500*%
D198*
X427500Y104000D02*
X427388Y106519D01*
X427055Y109018D01*
X426502Y111478D01*
X425733Y113879D01*
X424755Y116203D01*
X423576Y118432D01*
X422204Y120547D01*
X420651Y122533D01*
X418928Y124374D01*
X417050Y126056D01*
X415030Y127565D01*
X412884Y128889D01*
X410630Y130019D01*
X408285Y130945D01*
X405868Y131660D01*
X403396Y132159D01*
X400890Y132437D01*
X398369Y132493D01*
X395854Y132326D01*
X393363Y131937D01*
X390916Y131329D01*
X388532Y130508D01*
X386230Y129479D01*
X384028Y128251D01*
X381944Y126833D01*
X379992Y125236D01*
X378190Y123473D01*
X376550Y121557D01*
X375087Y119505D01*
X373810Y117331D01*
X372730Y115052D01*
X371856Y112687D01*
X371195Y110254D01*
X370751Y107772D01*
X370528Y105261D01*
Y102739D01*
X370751Y100228D01*
X371195Y97746D01*
X371856Y95313D01*
X372730Y92948D01*
X373810Y90670D01*
X375086Y88496D01*
X376550Y86443D01*
X378190Y84527D01*
X379992Y82764D01*
X381944Y81167D01*
X384028Y79749D01*
X386230Y78521D01*
X388532Y77492D01*
X390916Y76671D01*
X393363Y76063D01*
X395854Y75674D01*
X398369Y75507D01*
X400890Y75563D01*
X403396Y75841D01*
X405868Y76340D01*
X408285Y77055D01*
X410630Y77981D01*
X412884Y79111D01*
X415030Y80435D01*
X417050Y81944D01*
X418928Y83626D01*
X420651Y85467D01*
X422204Y87453D01*
X423576Y89568D01*
X424755Y91797D01*
X425733Y94121D01*
X426502Y96522D01*
X427055Y98982D01*
X427388Y101481D01*
X427500Y104000D01*
X185500D02*
X185389Y106519D01*
X185055Y109018D01*
X184501Y111478D01*
X183733Y113879D01*
X182755Y116203D01*
X181576Y118432D01*
X180204Y120547D01*
X178651Y122533D01*
X176928Y124374D01*
X175050Y126056D01*
X173030Y127565D01*
X170884Y128889D01*
X168630Y130019D01*
X166285Y130945D01*
X163868Y131660D01*
X161396Y132159D01*
X158890Y132437D01*
X156369Y132493D01*
X153854Y132326D01*
X151363Y131937D01*
X148916Y131329D01*
X146532Y130508D01*
X144230Y129479D01*
X142028Y128251D01*
X139944Y126833D01*
X137992Y125236D01*
X136190Y123473D01*
X134550Y121557D01*
X133087Y119505D01*
X131810Y117331D01*
X130730Y115052D01*
X129856Y112687D01*
X129195Y110254D01*
X128751Y107772D01*
X128528Y105261D01*
Y102739D01*
X128751Y100228D01*
X129195Y97746D01*
X129856Y95313D01*
X130730Y92948D01*
X131810Y90670D01*
X133086Y88496D01*
X134550Y86443D01*
X136190Y84527D01*
X137992Y82764D01*
X139944Y81167D01*
X142028Y79749D01*
X144230Y78521D01*
X146532Y77492D01*
X148916Y76671D01*
X151363Y76063D01*
X153854Y75674D01*
X156369Y75507D01*
X158890Y75563D01*
X161396Y75841D01*
X163868Y76340D01*
X166285Y77055D01*
X168630Y77981D01*
X170884Y79111D01*
X173030Y80435D01*
X175050Y81944D01*
X176928Y83626D01*
X178651Y85467D01*
X180204Y87453D01*
X181576Y89568D01*
X182755Y91797D01*
X183733Y94121D01*
X184501Y96522D01*
X185055Y98982D01*
X185389Y101481D01*
X185500Y104000D01*
Y346000D02*
X185389Y348519D01*
X185055Y351018D01*
X184501Y353478D01*
X183733Y355879D01*
X182755Y358203D01*
X181576Y360432D01*
X180204Y362547D01*
X178651Y364533D01*
X176928Y366374D01*
X175050Y368056D01*
X173030Y369565D01*
X170884Y370889D01*
X168630Y372019D01*
X166285Y372945D01*
X163868Y373660D01*
X161396Y374159D01*
X158890Y374437D01*
X156369Y374493D01*
X153854Y374326D01*
X151363Y373937D01*
X148916Y373329D01*
X146532Y372508D01*
X144230Y371479D01*
X142028Y370251D01*
X139944Y368833D01*
X137992Y367236D01*
X136190Y365473D01*
X134550Y363557D01*
X133087Y361505D01*
X131810Y359330D01*
X130730Y357052D01*
X129856Y354687D01*
X129195Y352254D01*
X128751Y349772D01*
X128528Y347261D01*
Y344739D01*
X128751Y342228D01*
X129195Y339746D01*
X129856Y337313D01*
X130730Y334948D01*
X131810Y332670D01*
X133086Y330495D01*
X134550Y328443D01*
X136190Y326527D01*
X137992Y324764D01*
X139944Y323167D01*
X142028Y321749D01*
X144230Y320521D01*
X146532Y319492D01*
X148916Y318671D01*
X151363Y318063D01*
X153854Y317674D01*
X156369Y317507D01*
X158890Y317563D01*
X161396Y317841D01*
X163868Y318340D01*
X166285Y319055D01*
X168630Y319981D01*
X170884Y321111D01*
X173030Y322435D01*
X175050Y323944D01*
X176928Y325626D01*
X178651Y327467D01*
X180204Y329453D01*
X181576Y331568D01*
X182755Y333797D01*
X183733Y336121D01*
X184501Y338522D01*
X185055Y340982D01*
X185389Y343481D01*
X185500Y346000D01*
X427500D02*
X427388Y348519D01*
X427055Y351018D01*
X426502Y353478D01*
X425733Y355879D01*
X424755Y358203D01*
X423576Y360432D01*
X422204Y362547D01*
X420651Y364533D01*
X418928Y366374D01*
X417050Y368056D01*
X415030Y369565D01*
X412884Y370889D01*
X410630Y372019D01*
X408285Y372945D01*
X405868Y373660D01*
X403396Y374159D01*
X400890Y374437D01*
X398369Y374493D01*
X395854Y374326D01*
X393363Y373937D01*
X390916Y373329D01*
X388532Y372508D01*
X386230Y371479D01*
X384028Y370251D01*
X381944Y368833D01*
X379992Y367236D01*
X378190Y365473D01*
X376550Y363557D01*
X375087Y361505D01*
X373810Y359330D01*
X372730Y357052D01*
X371856Y354687D01*
X371195Y352254D01*
X370751Y349772D01*
X370528Y347261D01*
Y344739D01*
X370751Y342228D01*
X371195Y339746D01*
X371856Y337313D01*
X372730Y334948D01*
X373810Y332670D01*
X375086Y330495D01*
X376550Y328443D01*
X378190Y326527D01*
X379992Y324764D01*
X381944Y323167D01*
X384028Y321749D01*
X386230Y320521D01*
X388532Y319492D01*
X390916Y318671D01*
X393363Y318063D01*
X395854Y317674D01*
X398369Y317507D01*
X400890Y317563D01*
X403396Y317841D01*
X405868Y318340D01*
X408285Y319055D01*
X410630Y319981D01*
X412884Y321111D01*
X415030Y322435D01*
X417050Y323944D01*
X418928Y325626D01*
X420651Y327467D01*
X422204Y329453D01*
X423576Y331568D01*
X424755Y333797D01*
X425733Y336121D01*
X426502Y338522D01*
X427055Y340982D01*
X427388Y343481D01*
X427500Y346000D01*
X114750Y433000D02*
X124750D01*
X114750D02*
Y443000D01*
X104750Y433000D02*
X114750D01*
Y423000D02*
Y433000D01*
X585750Y344000D02*
Y354000D01*
X580750Y349000D02*
X590750D01*
X104750Y17000D02*
X114750D01*
Y7000D02*
Y17000D01*
X124750D01*
X114750D02*
Y27000D01*
D201*
X441608Y304756D02*
X441202Y307191D01*
X440027Y309363D01*
X438210Y311035D01*
X435949Y312027D01*
X433489Y312230D01*
X431095Y311624D01*
X429028Y310274D01*
X427512Y308326D01*
X426710Y305991D01*
Y303522D01*
X427512Y301186D01*
X429028Y299238D01*
X431095Y297888D01*
X433489Y297282D01*
X435949Y297486D01*
X438210Y298477D01*
X440027Y300149D01*
X441202Y302321D01*
X441608Y304756D01*
X437676Y266836D02*
X437270Y269271D01*
X436095Y271442D01*
X434278Y273114D01*
X432017Y274106D01*
X429557Y274310D01*
X427163Y273704D01*
X425097Y272354D01*
X423580Y270405D01*
X422778Y268070D01*
Y265601D01*
X423580Y263266D01*
X425097Y261318D01*
X427163Y259967D01*
X429557Y259361D01*
X432017Y259565D01*
X434278Y260557D01*
X436095Y262229D01*
X437270Y264401D01*
X437676Y266836D01*
X441532Y320080D02*
X441126Y322515D01*
X439951Y324687D01*
X438134Y326359D01*
X435873Y327351D01*
X433413Y327554D01*
X431019Y326948D01*
X428952Y325598D01*
X427436Y323650D01*
X426634Y321315D01*
Y318846D01*
X427436Y316510D01*
X428952Y314562D01*
X431019Y313212D01*
X433413Y312606D01*
X435873Y312810D01*
X438134Y313801D01*
X439951Y315473D01*
X441126Y317645D01*
X441532Y320080D01*
X316982Y300261D02*
X316668Y302748D01*
X315745Y305079D01*
X314272Y307107D01*
X312340Y308704D01*
X310072Y309772D01*
X307610Y310242D01*
X305108Y310084D01*
X302724Y309310D01*
X300608Y307966D01*
X298892Y306139D01*
X297684Y303943D01*
X297061Y301515D01*
Y299008D01*
X297684Y296580D01*
X298892Y294383D01*
X300608Y292556D01*
X302724Y291213D01*
X305108Y290438D01*
X307610Y290281D01*
X310072Y290751D01*
X312340Y291818D01*
X314272Y293416D01*
X315745Y295444D01*
X316668Y297774D01*
X316982Y300261D01*
X599000Y424000D02*
X598872Y426529D01*
X598488Y429033D01*
X597853Y431484D01*
X596974Y433859D01*
X595859Y436133D01*
X594519Y438282D01*
X592969Y440284D01*
X591224Y442120D01*
X589303Y443769D01*
X587224Y445216D01*
X585010Y446445D01*
X582683Y447444D01*
X580266Y448202D01*
X577786Y448712D01*
X575266Y448968D01*
X572734D01*
X570214Y448712D01*
X567734Y448202D01*
X565317Y447444D01*
X562990Y446445D01*
X560776Y445216D01*
X558697Y443769D01*
X556776Y442120D01*
X555031Y440284D01*
X553481Y438282D01*
X552141Y436133D01*
X551026Y433859D01*
X550146Y431484D01*
X549512Y429033D01*
X549128Y426529D01*
X549000Y424000D01*
X549128Y421471D01*
X549512Y418968D01*
X550146Y416516D01*
X551026Y414141D01*
X552141Y411867D01*
X553481Y409718D01*
X555031Y407716D01*
X556776Y405880D01*
X558697Y404231D01*
X560776Y402784D01*
X562990Y401555D01*
X565317Y400556D01*
X567734Y399798D01*
X570214Y399288D01*
X572734Y399032D01*
X575266D01*
X577786Y399288D01*
X580266Y399798D01*
X582683Y400556D01*
X585010Y401555D01*
X587224Y402784D01*
X589303Y404231D01*
X591224Y405880D01*
X592969Y407716D01*
X594519Y409718D01*
X595859Y411868D01*
X596974Y414141D01*
X597854Y416516D01*
X598488Y418968D01*
X598872Y421471D01*
X599000Y424000D01*
X51000Y26000D02*
X50872Y28529D01*
X50488Y31033D01*
X49853Y33484D01*
X48974Y35859D01*
X47859Y38133D01*
X46519Y40282D01*
X44969Y42284D01*
X43224Y44120D01*
X41303Y45769D01*
X39224Y47216D01*
X37010Y48445D01*
X34683Y49444D01*
X32266Y50202D01*
X29786Y50712D01*
X27266Y50968D01*
X24734D01*
X22214Y50712D01*
X19734Y50202D01*
X17317Y49444D01*
X14990Y48445D01*
X12776Y47216D01*
X10697Y45769D01*
X8776Y44120D01*
X7031Y42284D01*
X5481Y40282D01*
X4141Y38133D01*
X3026Y35859D01*
X2147Y33484D01*
X1512Y31033D01*
X1128Y28529D01*
X1000Y26000D01*
X1128Y23471D01*
X1512Y20968D01*
X2147Y18516D01*
X3026Y16141D01*
X4141Y13867D01*
X5481Y11718D01*
X7031Y9716D01*
X8776Y7880D01*
X10697Y6231D01*
X12776Y4784D01*
X14990Y3555D01*
X17317Y2556D01*
X19734Y1798D01*
X22214Y1288D01*
X24734Y1032D01*
X27266D01*
X29786Y1288D01*
X32266Y1798D01*
X34683Y2556D01*
X37010Y3555D01*
X39224Y4784D01*
X41303Y6231D01*
X43224Y7880D01*
X44969Y9716D01*
X46519Y11718D01*
X47859Y13867D01*
X48974Y16141D01*
X49854Y18516D01*
X50488Y20968D01*
X50872Y23471D01*
X51000Y26000D01*
X599000D02*
X598872Y28529D01*
X598488Y31033D01*
X597853Y33484D01*
X596974Y35859D01*
X595859Y38133D01*
X594519Y40282D01*
X592969Y42284D01*
X591224Y44120D01*
X589303Y45769D01*
X587224Y47216D01*
X585010Y48445D01*
X582683Y49444D01*
X580266Y50202D01*
X577786Y50712D01*
X575266Y50968D01*
X572734D01*
X570214Y50712D01*
X567734Y50202D01*
X565317Y49444D01*
X562990Y48445D01*
X560776Y47216D01*
X558697Y45769D01*
X556776Y44120D01*
X555031Y42284D01*
X553481Y40282D01*
X552141Y38133D01*
X551026Y35859D01*
X550146Y33484D01*
X549512Y31033D01*
X549128Y28529D01*
X549000Y26000D01*
X549128Y23471D01*
X549512Y20968D01*
X550146Y18516D01*
X551026Y16141D01*
X552141Y13867D01*
X553481Y11718D01*
X555031Y9716D01*
X556776Y7880D01*
X558697Y6231D01*
X560776Y4784D01*
X562990Y3555D01*
X565317Y2556D01*
X567734Y1798D01*
X570214Y1288D01*
X572734Y1032D01*
X575266D01*
X577786Y1288D01*
X580266Y1798D01*
X582683Y2556D01*
X585010Y3555D01*
X587224Y4784D01*
X589303Y6231D01*
X591224Y7880D01*
X592969Y9716D01*
X594519Y11718D01*
X595859Y13867D01*
X596974Y16141D01*
X597854Y18516D01*
X598488Y20968D01*
X598872Y23471D01*
X599000Y26000D01*
X51000Y424000D02*
X50872Y426529D01*
X50488Y429033D01*
X49853Y431484D01*
X48974Y433859D01*
X47859Y436133D01*
X46519Y438282D01*
X44969Y440284D01*
X43224Y442120D01*
X41303Y443769D01*
X39224Y445216D01*
X37010Y446445D01*
X34683Y447444D01*
X32266Y448202D01*
X29786Y448712D01*
X27266Y448968D01*
X24734D01*
X22214Y448712D01*
X19734Y448202D01*
X17317Y447444D01*
X14990Y446445D01*
X12776Y445216D01*
X10697Y443769D01*
X8776Y442120D01*
X7031Y440284D01*
X5481Y438282D01*
X4141Y436133D01*
X3026Y433859D01*
X2147Y431484D01*
X1512Y429033D01*
X1128Y426529D01*
X1000Y424000D01*
X1128Y421471D01*
X1512Y418968D01*
X2147Y416516D01*
X3026Y414141D01*
X4141Y411867D01*
X5481Y409718D01*
X7031Y407716D01*
X8776Y405880D01*
X10697Y404231D01*
X12776Y402784D01*
X14990Y401555D01*
X17317Y400556D01*
X19734Y399798D01*
X22214Y399288D01*
X24734Y399032D01*
X27266D01*
X29786Y399288D01*
X32266Y399798D01*
X34683Y400556D01*
X37010Y401555D01*
X39224Y402784D01*
X41303Y404231D01*
X43224Y405880D01*
X44969Y407716D01*
X46519Y409718D01*
X47859Y411868D01*
X48974Y414141D01*
X49854Y416516D01*
X50488Y418968D01*
X50872Y421471D01*
X51000Y424000D01*
X185500Y346000D02*
X185389Y348519D01*
X185055Y351018D01*
X184501Y353478D01*
X183733Y355879D01*
X182755Y358203D01*
X181576Y360432D01*
X180204Y362547D01*
X178651Y364533D01*
X176928Y366374D01*
X175050Y368056D01*
X173030Y369565D01*
X170884Y370889D01*
X168630Y372019D01*
X166285Y372945D01*
X163868Y373660D01*
X161396Y374159D01*
X158890Y374437D01*
X156369Y374493D01*
X153854Y374326D01*
X151363Y373937D01*
X148916Y373329D01*
X146532Y372508D01*
X144230Y371479D01*
X142028Y370251D01*
X139944Y368833D01*
X137992Y367236D01*
X136190Y365473D01*
X134550Y363557D01*
X133086Y361505D01*
X131810Y359330D01*
X130730Y357052D01*
X129856Y354687D01*
X129195Y352254D01*
X128751Y349772D01*
X128528Y347261D01*
Y344739D01*
X128751Y342228D01*
X129195Y339746D01*
X129856Y337313D01*
X130730Y334948D01*
X131810Y332670D01*
X133086Y330495D01*
X134550Y328443D01*
X136190Y326527D01*
X137992Y324764D01*
X139944Y323167D01*
X142028Y321749D01*
X144230Y320521D01*
X146532Y319492D01*
X148916Y318671D01*
X151363Y318063D01*
X153854Y317674D01*
X156369Y317507D01*
X158890Y317563D01*
X161396Y317841D01*
X163867Y318340D01*
X166285Y319055D01*
X168630Y319981D01*
X170884Y321111D01*
X173030Y322435D01*
X175050Y323944D01*
X176928Y325626D01*
X178651Y327467D01*
X180204Y329453D01*
X181576Y331568D01*
X182755Y333797D01*
X183733Y336121D01*
X184501Y338522D01*
X185055Y340982D01*
X185389Y343481D01*
X185500Y346000D01*
X427500D02*
X427388Y348519D01*
X427055Y351018D01*
X426502Y353478D01*
X425733Y355879D01*
X424755Y358203D01*
X423576Y360432D01*
X422204Y362547D01*
X420651Y364533D01*
X418928Y366374D01*
X417050Y368056D01*
X415030Y369565D01*
X412884Y370889D01*
X410630Y372019D01*
X408285Y372945D01*
X405868Y373660D01*
X403396Y374159D01*
X400890Y374437D01*
X398369Y374493D01*
X395854Y374326D01*
X393363Y373937D01*
X390916Y373329D01*
X388532Y372508D01*
X386230Y371479D01*
X384028Y370251D01*
X381944Y368833D01*
X379992Y367236D01*
X378190Y365473D01*
X376550Y363557D01*
X375086Y361505D01*
X373810Y359330D01*
X372730Y357052D01*
X371856Y354687D01*
X371195Y352254D01*
X370751Y349772D01*
X370528Y347261D01*
Y344739D01*
X370751Y342228D01*
X371195Y339746D01*
X371856Y337313D01*
X372730Y334948D01*
X373810Y332670D01*
X375086Y330495D01*
X376550Y328443D01*
X378190Y326527D01*
X379992Y324764D01*
X381944Y323167D01*
X384028Y321749D01*
X386230Y320521D01*
X388532Y319492D01*
X390916Y318671D01*
X393363Y318063D01*
X395854Y317674D01*
X398369Y317507D01*
X400890Y317563D01*
X403396Y317841D01*
X405868Y318340D01*
X408285Y319055D01*
X410630Y319981D01*
X412884Y321111D01*
X415030Y322435D01*
X417050Y323944D01*
X418928Y325626D01*
X420651Y327467D01*
X422204Y329453D01*
X423576Y331568D01*
X424755Y333797D01*
X425733Y336121D01*
X426502Y338522D01*
X427055Y340982D01*
X427388Y343481D01*
X427500Y346000D01*
Y104000D02*
X427388Y106519D01*
X427055Y109018D01*
X426502Y111478D01*
X425733Y113879D01*
X424755Y116203D01*
X423576Y118432D01*
X422204Y120547D01*
X420651Y122533D01*
X418928Y124374D01*
X417050Y126056D01*
X415030Y127565D01*
X412884Y128889D01*
X410630Y130019D01*
X408285Y130945D01*
X405868Y131660D01*
X403396Y132159D01*
X400890Y132437D01*
X398369Y132493D01*
X395854Y132326D01*
X393363Y131937D01*
X390916Y131329D01*
X388532Y130508D01*
X386230Y129479D01*
X384028Y128251D01*
X381944Y126833D01*
X379992Y125236D01*
X378190Y123473D01*
X376550Y121557D01*
X375086Y119505D01*
X373810Y117331D01*
X372730Y115052D01*
X371856Y112687D01*
X371195Y110254D01*
X370751Y107772D01*
X370528Y105261D01*
Y102739D01*
X370751Y100228D01*
X371195Y97746D01*
X371856Y95313D01*
X372730Y92948D01*
X373810Y90670D01*
X375086Y88496D01*
X376550Y86443D01*
X378190Y84527D01*
X379992Y82764D01*
X381944Y81167D01*
X384028Y79749D01*
X386230Y78521D01*
X388532Y77492D01*
X390916Y76671D01*
X393363Y76063D01*
X395854Y75674D01*
X398369Y75507D01*
X400890Y75563D01*
X403396Y75841D01*
X405868Y76340D01*
X408285Y77055D01*
X410630Y77981D01*
X412884Y79111D01*
X415030Y80435D01*
X417050Y81944D01*
X418928Y83626D01*
X420651Y85467D01*
X422204Y87453D01*
X423576Y89568D01*
X424755Y91797D01*
X425733Y94121D01*
X426502Y96522D01*
X427055Y98982D01*
X427388Y101481D01*
X427500Y104000D01*
X185500D02*
X185389Y106519D01*
X185055Y109018D01*
X184501Y111478D01*
X183733Y113879D01*
X182755Y116203D01*
X181576Y118432D01*
X180204Y120547D01*
X178651Y122533D01*
X176928Y124374D01*
X175050Y126056D01*
X173030Y127565D01*
X170884Y128889D01*
X168630Y130019D01*
X166285Y130945D01*
X163868Y131660D01*
X161396Y132159D01*
X158890Y132437D01*
X156369Y132493D01*
X153854Y132326D01*
X151363Y131937D01*
X148916Y131329D01*
X146532Y130508D01*
X144230Y129479D01*
X142028Y128251D01*
X139944Y126833D01*
X137992Y125236D01*
X136190Y123473D01*
X134550Y121557D01*
X133086Y119505D01*
X131810Y117331D01*
X130730Y115052D01*
X129856Y112687D01*
X129195Y110254D01*
X128751Y107772D01*
X128528Y105261D01*
Y102739D01*
X128751Y100228D01*
X129195Y97746D01*
X129856Y95313D01*
X130730Y92948D01*
X131810Y90670D01*
X133086Y88496D01*
X134550Y86443D01*
X136190Y84527D01*
X137992Y82764D01*
X139944Y81167D01*
X142028Y79749D01*
X144230Y78521D01*
X146532Y77492D01*
X148916Y76671D01*
X151363Y76063D01*
X153854Y75674D01*
X156369Y75507D01*
X158890Y75563D01*
X161396Y75841D01*
X163867Y76340D01*
X166285Y77055D01*
X168630Y77981D01*
X170884Y79111D01*
X173030Y80435D01*
X175050Y81944D01*
X176928Y83626D01*
X178651Y85467D01*
X180204Y87453D01*
X181576Y89568D01*
X182755Y91797D01*
X183733Y94121D01*
X184501Y96522D01*
X185055Y98982D01*
X185389Y101481D01*
X185500Y104000D01*
X197960Y15240D02*
X197646Y17727D01*
X196723Y20057D01*
X195250Y22085D01*
X193318Y23683D01*
X191050Y24751D01*
X188588Y25220D01*
X186086Y25063D01*
X183702Y24288D01*
X181586Y22945D01*
X179870Y21118D01*
X178662Y18921D01*
X178039Y16493D01*
Y13987D01*
X178662Y11559D01*
X179870Y9362D01*
X181586Y7535D01*
X183702Y6192D01*
X186086Y5417D01*
X188588Y5260D01*
X191050Y5729D01*
X193318Y6797D01*
X195250Y8395D01*
X196723Y10423D01*
X197646Y12753D01*
X197960Y15240D01*
X65500Y95000D02*
X65186Y97487D01*
X64263Y99818D01*
X62790Y101846D01*
X60858Y103443D01*
X58590Y104511D01*
X56128Y104980D01*
X53626Y104823D01*
X51242Y104048D01*
X49126Y102705D01*
X47410Y100878D01*
X46202Y98681D01*
X45579Y96253D01*
Y93747D01*
X46202Y91319D01*
X47410Y89122D01*
X49126Y87295D01*
X51242Y85952D01*
X53626Y85177D01*
X56128Y85020D01*
X58590Y85490D01*
X60858Y86557D01*
X62790Y88155D01*
X64263Y90183D01*
X65186Y92513D01*
X65500Y95000D01*
X48000Y390500D02*
X47686Y392987D01*
X46763Y395318D01*
X45290Y397346D01*
X43358Y398943D01*
X41090Y400011D01*
X38628Y400480D01*
X36126Y400323D01*
X33742Y399548D01*
X31626Y398205D01*
X29910Y396378D01*
X28702Y394181D01*
X28079Y391754D01*
Y389247D01*
X28702Y386819D01*
X29910Y384622D01*
X31626Y382795D01*
X33742Y381452D01*
X36126Y380677D01*
X38628Y380520D01*
X41090Y380990D01*
X43358Y382057D01*
X45290Y383655D01*
X46763Y385683D01*
X47686Y388013D01*
X48000Y390500D01*
X225500Y277000D02*
X243000D01*
X198000Y257061D02*
Y266161D01*
X188900Y257061D02*
X198000D01*
Y247961D02*
Y257061D01*
X207100D01*
X170500Y277000D02*
X225500D01*
Y300000D01*
X170500Y277000D02*
Y300000D01*
X153000Y277000D02*
X170500D01*
X153000Y237000D02*
Y277000D01*
Y237000D02*
X243000D01*
Y277000D01*
X432000Y43000D02*
X452000D01*
X432000Y77000D02*
X452000D01*
Y43000D02*
Y77000D01*
X432000Y43000D02*
Y77000D01*
X442000Y55000D02*
Y65000D01*
X437000Y60000D02*
X447000D01*
X432000Y81000D02*
X452000D01*
X432000Y115000D02*
X452000D01*
Y81000D02*
Y115000D01*
X432000Y81000D02*
Y115000D01*
X442000Y93000D02*
Y103000D01*
X437000Y98000D02*
X447000D01*
X557000Y153000D02*
Y173000D01*
X523000Y153000D02*
Y173000D01*
X557000D01*
X523000Y153000D02*
X557000D01*
X535000Y163000D02*
X545000D01*
X540000Y158000D02*
Y168000D01*
X409000Y275000D02*
Y297000D01*
X431000D01*
Y275000D02*
Y297000D01*
X409000Y275000D02*
X431000D01*
X412002Y286000D02*
X420000D01*
Y278000D02*
Y286000D01*
Y293998D01*
Y286000D02*
X428000D01*
X412000Y199000D02*
X444000D01*
X412000D02*
Y251000D01*
X444000D01*
Y199000D02*
Y251000D01*
X428000Y217000D02*
Y225000D01*
Y233000D01*
Y225000D02*
X436000D01*
X420000D02*
X428000D01*
X306982Y295261D02*
Y305261D01*
X301982Y300261D02*
X311982D01*
X446250Y361000D02*
X451750D01*
X449000Y358250D02*
Y363750D01*
X444000Y370500D02*
X454000D01*
X444000Y351500D02*
X454000D01*
X444000D02*
Y370500D01*
X454000Y351500D02*
Y370500D01*
X556000Y284250D02*
Y289750D01*
X553250Y287000D02*
X558750D01*
X564000Y283000D02*
Y291000D01*
X548000Y283000D02*
Y291000D01*
X564000D01*
X548000Y283000D02*
X564000D01*
X537000Y284250D02*
Y289750D01*
X534250Y287000D02*
X539750D01*
X546500Y282000D02*
Y292000D01*
X527500Y282000D02*
Y292000D01*
X546500D01*
X527500Y282000D02*
X546500D01*
X494250Y361000D02*
X499750D01*
X497000Y358250D02*
Y363750D01*
X492000Y351500D02*
X502000D01*
X492000Y370500D02*
X502000D01*
Y351500D02*
Y370500D01*
X492000Y351500D02*
Y370500D01*
X517000Y284250D02*
Y289750D01*
X514250Y287000D02*
X519750D01*
X507500Y282000D02*
Y292000D01*
X526500Y282000D02*
Y292000D01*
X507500Y282000D02*
X526500D01*
X507500Y292000D02*
X526500D01*
X305909Y351890D02*
Y357390D01*
X303159Y354640D02*
X308659D01*
X315409Y349640D02*
Y359640D01*
X296409Y349640D02*
Y359640D01*
X315409D01*
X296409Y349640D02*
X315409D01*
X366820Y22932D02*
X372320D01*
X369570Y20182D02*
Y25682D01*
X365570Y14932D02*
X373570D01*
X365570Y30932D02*
X373570D01*
Y14932D02*
Y30932D01*
X365570Y14932D02*
Y30932D01*
X327018Y322820D02*
Y352820D01*
X342018Y322820D02*
Y352820D01*
X327018D02*
X342018D01*
X327018Y322820D02*
X342018D01*
X334518Y333070D02*
Y342570D01*
X329768Y337820D02*
X339268D01*
X348875Y322917D02*
Y352917D01*
X363875Y322917D02*
Y352917D01*
X348875D02*
X363875D01*
X348875Y322917D02*
X363875D01*
X356375Y333167D02*
Y342667D01*
X351625Y337917D02*
X361125D01*
X445972Y265730D02*
Y271230D01*
X443222Y268480D02*
X448722D01*
X437972Y264480D02*
Y272480D01*
X453972Y264480D02*
Y272480D01*
X437972Y264480D02*
X453972D01*
X437972Y272480D02*
X453972D01*
X446270Y275250D02*
Y280750D01*
X443520Y278000D02*
X449020D01*
X438270Y274000D02*
Y282000D01*
X454270Y274000D02*
Y282000D01*
X438270Y274000D02*
X454270D01*
X438270Y282000D02*
X454270D01*
X473000Y256250D02*
Y261750D01*
X470250Y259000D02*
X475750D01*
X465000Y255000D02*
Y263000D01*
X481000Y255000D02*
Y263000D01*
X465000Y255000D02*
X481000D01*
X465000Y263000D02*
X481000D01*
X473000Y268250D02*
Y273750D01*
X470250Y271000D02*
X475750D01*
X465000Y267000D02*
Y275000D01*
X481000Y267000D02*
Y275000D01*
X465000Y267000D02*
X481000D01*
X465000Y275000D02*
X481000D01*
X400000Y299250D02*
Y304750D01*
X397250Y302000D02*
X402750D01*
X408000Y298000D02*
Y306000D01*
X392000Y298000D02*
Y306000D01*
X408000D01*
X392000Y298000D02*
X408000D01*
X400000Y290250D02*
Y295750D01*
X397250Y293000D02*
X402750D01*
X408000Y289000D02*
Y297000D01*
X392000Y289000D02*
Y297000D01*
X408000D01*
X392000Y289000D02*
X408000D01*
X403000Y244250D02*
Y249750D01*
X400250Y247000D02*
X405750D01*
X411000Y243000D02*
Y251000D01*
X395000Y243000D02*
Y251000D01*
X411000D01*
X395000Y243000D02*
X411000D01*
X403000Y200250D02*
Y205750D01*
X400250Y203000D02*
X405750D01*
X411000Y199000D02*
Y207000D01*
X395000Y199000D02*
Y207000D01*
X411000D01*
X395000Y199000D02*
X411000D01*
X307000Y339250D02*
Y344750D01*
X304250Y342000D02*
X309750D01*
X299000Y338000D02*
Y346000D01*
X315000Y338000D02*
Y346000D01*
X299000Y338000D02*
X315000D01*
X299000Y346000D02*
X315000D01*
X31000Y201250D02*
Y206750D01*
X28250Y204000D02*
X33750D01*
X39000Y200000D02*
Y208000D01*
X23000Y200000D02*
Y208000D01*
X39000D01*
X23000Y200000D02*
X39000D01*
X308625Y329417D02*
X314125D01*
X311375Y326667D02*
Y332167D01*
X307375Y337417D02*
X315375D01*
X307375Y321417D02*
X315375D01*
X307375D02*
Y337417D01*
X315375Y321417D02*
Y337417D01*
X365250Y323000D02*
X370750D01*
X368000Y320250D02*
Y325750D01*
X364000Y315000D02*
X372000D01*
X364000Y331000D02*
X372000D01*
Y315000D02*
Y331000D01*
X364000Y315000D02*
Y331000D01*
X31000Y187250D02*
Y192750D01*
X28250Y190000D02*
X33750D01*
X39000Y186000D02*
Y194000D01*
X23000Y186000D02*
Y194000D01*
X39000D01*
X23000Y186000D02*
X39000D01*
X35000Y268250D02*
Y273750D01*
X32250Y271000D02*
X37750D01*
X43000Y267000D02*
Y275000D01*
X27000Y267000D02*
Y275000D01*
X43000D01*
X27000Y267000D02*
X43000D01*
X391922Y44530D02*
Y54530D01*
X386922Y49530D02*
X396922D01*
X382422Y38880D02*
Y60180D01*
X401422D01*
Y38880D02*
Y60180D01*
X382422Y38880D02*
X401422D01*
X412068Y44526D02*
Y54526D01*
X407068Y49526D02*
X417068D01*
X402568Y38876D02*
Y60176D01*
X421568D01*
Y38876D02*
Y60176D01*
X402568Y38876D02*
X421568D01*
X153464Y342464D02*
X160536Y349536D01*
X153464D02*
X160536Y342464D01*
X395465D02*
X402536Y349536D01*
X395465D02*
X402536Y342464D01*
X395465Y100464D02*
X402536Y107535D01*
X395465D02*
X402536Y100464D01*
X153464D02*
X160536Y107535D01*
X153464D02*
X160536Y100464D01*
X533909Y225062D02*
X541409D01*
X526409D02*
X533909D01*
Y232562D01*
Y217562D02*
Y225062D01*
X518909Y275062D02*
X603909D01*
Y175062D02*
Y275062D01*
X518909Y175062D02*
X603909D01*
X518909D02*
Y275062D01*
X483000Y396500D02*
Y446500D01*
X547000Y396500D02*
Y446500D01*
X515000Y421500D02*
X525243D01*
X515000Y411257D02*
Y421500D01*
Y431743D01*
X504757Y421500D02*
X515000D01*
X483000Y446500D02*
X547000D01*
X483000Y396500D02*
X547000D01*
X455250Y44689D02*
Y151000D01*
X610250D01*
X455250Y44689D02*
X473250D01*
X477250D01*
Y36000D02*
Y44689D01*
X522250Y36000D02*
Y44689D01*
X477250Y36000D02*
X522250D01*
X610250Y44689D02*
Y151000D01*
X522250Y44689D02*
X610250D01*
X530250Y101000D02*
Y113500D01*
Y88000D02*
Y101000D01*
X543250D01*
X517750D02*
X530250D01*
X51000Y449500D02*
X178500D01*
Y407000D02*
Y449500D01*
X51000Y407000D02*
X178500D01*
X51000D02*
Y449500D01*
X78000Y220000D02*
Y230000D01*
X73000Y225000D02*
X83000D01*
X55500Y110000D02*
Y340000D01*
X100500Y110000D02*
Y340000D01*
X55500Y110000D02*
X100500D01*
X55500Y340000D02*
X100500D01*
X182960Y15240D02*
X192960D01*
X187960Y10240D02*
Y20240D01*
X50500Y95000D02*
X60500D01*
X55500Y90000D02*
Y100000D01*
X33000Y390500D02*
X43000D01*
X38000Y385500D02*
Y395500D01*
X479000Y224000D02*
X497000D01*
X479000Y196000D02*
X497000D01*
X484190Y210000D02*
X491810D01*
X488000Y206190D02*
Y213810D01*
X497000Y196000D02*
Y224000D01*
X479000Y196000D02*
Y224000D01*
Y254000D02*
X497000D01*
X479000Y226000D02*
X497000D01*
X484190Y240000D02*
X491810D01*
X488000Y236190D02*
Y243810D01*
X497000Y226000D02*
Y254000D01*
X479000Y226000D02*
Y254000D01*
X405500Y11500D02*
Y34500D01*
X394500Y11500D02*
Y34500D01*
Y11500D02*
X405500D01*
X394500Y34500D02*
X405500D01*
X400000Y18500D02*
Y27500D01*
X395500Y23000D02*
X404500D01*
X433000Y11500D02*
Y34500D01*
X422000Y11500D02*
Y34500D01*
Y11500D02*
X433000D01*
X422000Y34500D02*
X433000D01*
X427500Y18500D02*
Y27500D01*
X423000Y23000D02*
X432000D01*
X460500Y11500D02*
Y34500D01*
X449500Y11500D02*
Y34500D01*
Y11500D02*
X460500D01*
X449500Y34500D02*
X460500D01*
X455000Y18500D02*
Y27500D01*
X450500Y23000D02*
X459500D01*
X507000Y293500D02*
X537000D01*
X507000Y308500D02*
X537000D01*
X507000Y293500D02*
Y308500D01*
X537000Y293500D02*
Y308500D01*
X517250Y301000D02*
X526750D01*
X522000Y296250D02*
Y305750D01*
X296150Y374530D02*
X326150D01*
X296150Y359530D02*
X326150D01*
Y374530D01*
X296150Y359530D02*
Y374530D01*
X306400Y367030D02*
X315900D01*
X311150Y362280D02*
Y371780D01*
X295327Y345214D02*
Y375214D01*
X280327Y345214D02*
Y375214D01*
Y345214D02*
X295327D01*
X280327Y375214D02*
X295327D01*
X287827Y355464D02*
Y364964D01*
X283077Y360214D02*
X292577D01*
X271000Y362000D02*
Y368000D01*
X268000Y365000D02*
X274000D01*
X277000Y354500D02*
Y375500D01*
X265000Y354500D02*
Y375500D01*
Y354500D02*
X277000D01*
X265000Y375500D02*
X277000D01*
X400235Y261334D02*
Y277334D01*
X408235Y261334D02*
Y277334D01*
X400235D02*
X408235D01*
X400235Y261334D02*
X408235D01*
X404235Y266334D02*
Y272334D01*
X401235Y269334D02*
X407235D01*
X389000Y230000D02*
X405000D01*
X389000Y222000D02*
X405000D01*
Y230000D01*
X389000Y222000D02*
Y230000D01*
X394000Y226000D02*
X400000D01*
X397000Y223000D02*
Y229000D01*
X474000Y196000D02*
Y202000D01*
X462000Y196000D02*
Y202000D01*
X474000D01*
X462000Y196000D02*
X474000D01*
X466350Y199000D02*
X469650D01*
X468000Y197350D02*
Y200650D01*
X474000Y202000D02*
Y208000D01*
X462000Y202000D02*
Y208000D01*
X474000D01*
X462000Y202000D02*
X474000D01*
X466350Y205000D02*
X469650D01*
X468000Y203350D02*
Y206650D01*
X474000Y226000D02*
Y232000D01*
X462000Y226000D02*
Y232000D01*
X474000D01*
X462000Y226000D02*
X474000D01*
X466350Y229000D02*
X469650D01*
X468000Y227350D02*
Y230650D01*
X474000Y232000D02*
Y238000D01*
X462000Y232000D02*
Y238000D01*
X474000D01*
X462000Y232000D02*
X474000D01*
X466350Y235000D02*
X469650D01*
X468000Y233350D02*
Y236650D01*
X492690Y151980D02*
Y162980D01*
X515690Y151980D02*
Y162980D01*
X492690Y151980D02*
X515690D01*
X492690Y162980D02*
X515690D01*
X504190Y152730D02*
Y162230D01*
X499440Y157480D02*
X508940D01*
X450500Y172500D02*
Y183500D01*
X473500Y172500D02*
Y183500D01*
X450500Y172500D02*
X473500D01*
X450500Y183500D02*
X473500D01*
X462000Y173250D02*
Y182750D01*
X457250Y178000D02*
X466750D01*
X506500Y173500D02*
Y184500D01*
X483500Y173500D02*
Y184500D01*
X506500D01*
X483500Y173500D02*
X506500D01*
X495000Y174250D02*
Y183750D01*
X490250Y179000D02*
X499750D01*
X528000Y349000D02*
Y361000D01*
Y336000D02*
Y349000D01*
X515905D02*
X528000D01*
X539905D01*
X507000Y310000D02*
X547000D01*
X507000D02*
Y388000D01*
X547000D01*
Y310000D02*
Y388000D01*
X548750Y299000D02*
Y399000D01*
X613450D01*
X548750Y299000D02*
X613450D01*
Y399000D01*
X51000Y500D02*
X178500D01*
X51000D02*
Y43000D01*
X178500D01*
Y500D02*
Y43000D01*
X468000Y364000D02*
X478000D01*
X473000Y359000D02*
Y369000D01*
X491000Y350750D02*
Y377750D01*
X455000Y350750D02*
X491000D01*
X455000D02*
Y377750D01*
X491000D01*
X440000Y284000D02*
Y350000D01*
X506000D01*
X440000Y284000D02*
X506000D01*
Y350000D01*
X473000Y312000D02*
Y322000D01*
X468000Y317000D02*
X478000D01*
X28000Y75000D02*
X428000D01*
X28000D02*
Y375000D01*
X428000Y75000D02*
Y375000D01*
X28000D02*
X428000D01*
X55500Y340000D02*
X100500D01*
X55500Y110000D02*
X100500D01*
Y340000D01*
X55500Y110000D02*
Y340000D01*
X78000Y220000D02*
Y230000D01*
X73000Y225000D02*
X83000D01*
M02*
