G04*
G04 #@! TF.GenerationSoftware,Altium Limited,Altium Designer,21.6.1 (37)*
G04*
G04 Layer_Color=8388736*
%FSLAX44Y44*%
%MOMM*%
G71*
G04*
G04 #@! TF.SameCoordinates,2C954E57-417A-4088-9090-092BEE8FAD55*
G04*
G04*
G04 #@! TF.FilePolarity,Positive*
G04*
G01*
G75*
G36*
X305499Y-24649D02*
X305679D01*
X305901Y-24677D01*
X306150Y-24704D01*
X306428Y-24746D01*
X306719Y-24801D01*
X306483Y-26174D01*
X306456D01*
X306400Y-26161D01*
X306303Y-26147D01*
X306178Y-26119D01*
X306040Y-26105D01*
X305887Y-26091D01*
X305554Y-26077D01*
X305443D01*
X305305Y-26091D01*
X305152Y-26119D01*
X304986Y-26147D01*
X304819Y-26202D01*
X304667Y-26285D01*
X304542Y-26383D01*
X304528Y-26396D01*
X304500Y-26438D01*
X304445Y-26521D01*
X304403Y-26632D01*
X304348Y-26799D01*
X304292Y-26993D01*
X304264Y-27229D01*
X304251Y-27520D01*
Y-28366D01*
X306053D01*
Y-29586D01*
X304251D01*
Y-37644D01*
X302683D01*
Y-29586D01*
X301297D01*
Y-28366D01*
X302683D01*
Y-27395D01*
Y-27381D01*
Y-27353D01*
Y-27312D01*
Y-27242D01*
X302697Y-27076D01*
X302711Y-26868D01*
X302725Y-26646D01*
X302753Y-26424D01*
X302794Y-26202D01*
X302850Y-26008D01*
Y-25994D01*
X302864Y-25980D01*
X302891Y-25911D01*
X302947Y-25800D01*
X303030Y-25661D01*
X303141Y-25495D01*
X303280Y-25329D01*
X303446Y-25176D01*
X303640Y-25023D01*
X303668Y-25010D01*
X303751Y-24968D01*
X303876Y-24899D01*
X304056Y-24829D01*
X304292Y-24760D01*
X304569Y-24691D01*
X304888Y-24649D01*
X305249Y-24635D01*
X305360D01*
X305499Y-24649D01*
D02*
G37*
G36*
X409221Y-26632D02*
X407653D01*
Y-24843D01*
X409221D01*
Y-26632D01*
D02*
G37*
G36*
X227364Y-24635D02*
X227503Y-24649D01*
X227655Y-24663D01*
X227836Y-24677D01*
X228224Y-24732D01*
X228654Y-24815D01*
X229084Y-24926D01*
X229514Y-25079D01*
X229528D01*
X229569Y-25093D01*
X229625Y-25120D01*
X229694Y-25162D01*
X229791Y-25204D01*
X229902Y-25259D01*
X230152Y-25398D01*
X230443Y-25578D01*
X230734Y-25786D01*
X231012Y-26036D01*
X231275Y-26327D01*
X231289Y-26341D01*
X231303Y-26369D01*
X231331Y-26410D01*
X231386Y-26466D01*
X231428Y-26549D01*
X231497Y-26646D01*
X231566Y-26757D01*
X231636Y-26896D01*
X231719Y-27034D01*
X231788Y-27187D01*
X231871Y-27367D01*
X231955Y-27548D01*
X232107Y-27964D01*
X232246Y-28421D01*
X230706Y-28837D01*
Y-28823D01*
X230693Y-28796D01*
X230679Y-28740D01*
X230651Y-28671D01*
X230623Y-28602D01*
X230595Y-28504D01*
X230512Y-28282D01*
X230401Y-28033D01*
X230277Y-27783D01*
X230138Y-27534D01*
X229985Y-27312D01*
X229971Y-27284D01*
X229902Y-27215D01*
X229805Y-27118D01*
X229680Y-26979D01*
X229500Y-26840D01*
X229292Y-26688D01*
X229042Y-26549D01*
X228765Y-26410D01*
X228751D01*
X228723Y-26396D01*
X228682Y-26383D01*
X228626Y-26355D01*
X228557Y-26327D01*
X228460Y-26299D01*
X228252Y-26230D01*
X227988Y-26174D01*
X227697Y-26119D01*
X227364Y-26077D01*
X227017Y-26063D01*
X226823D01*
X226726Y-26077D01*
X226601D01*
X226477Y-26091D01*
X226324Y-26105D01*
X226019Y-26147D01*
X225672Y-26216D01*
X225339Y-26299D01*
X225007Y-26424D01*
X224993D01*
X224965Y-26438D01*
X224923Y-26466D01*
X224868Y-26493D01*
X224715Y-26563D01*
X224521Y-26674D01*
X224299Y-26812D01*
X224077Y-26979D01*
X223842Y-27159D01*
X223633Y-27367D01*
X223606Y-27395D01*
X223550Y-27464D01*
X223453Y-27589D01*
X223342Y-27742D01*
X223218Y-27922D01*
X223079Y-28144D01*
X222954Y-28380D01*
X222843Y-28629D01*
Y-28643D01*
X222829Y-28685D01*
X222801Y-28740D01*
X222774Y-28837D01*
X222732Y-28948D01*
X222691Y-29073D01*
X222649Y-29225D01*
X222607Y-29392D01*
X222552Y-29572D01*
X222510Y-29780D01*
X222441Y-30210D01*
X222385Y-30696D01*
X222358Y-31209D01*
Y-31223D01*
Y-31278D01*
Y-31375D01*
X222372Y-31486D01*
Y-31639D01*
X222385Y-31805D01*
X222413Y-31999D01*
X222427Y-32207D01*
X222496Y-32665D01*
X222607Y-33136D01*
X222746Y-33622D01*
X222940Y-34079D01*
X222954Y-34093D01*
X222968Y-34135D01*
X222996Y-34190D01*
X223051Y-34274D01*
X223106Y-34357D01*
X223190Y-34468D01*
X223370Y-34717D01*
X223620Y-34995D01*
X223911Y-35286D01*
X224244Y-35549D01*
X224438Y-35674D01*
X224646Y-35785D01*
X224660D01*
X224701Y-35813D01*
X224757Y-35841D01*
X224840Y-35868D01*
X224951Y-35910D01*
X225076Y-35966D01*
X225215Y-36007D01*
X225367Y-36063D01*
X225534Y-36118D01*
X225728Y-36160D01*
X226130Y-36257D01*
X226574Y-36312D01*
X227045Y-36340D01*
X227156D01*
X227239Y-36326D01*
X227336D01*
X227447Y-36312D01*
X227572Y-36298D01*
X227725Y-36285D01*
X228044Y-36243D01*
X228404Y-36160D01*
X228793Y-36063D01*
X229181Y-35924D01*
X229195D01*
X229223Y-35910D01*
X229278Y-35882D01*
X229361Y-35855D01*
X229444Y-35813D01*
X229541Y-35758D01*
X229777Y-35647D01*
X230041Y-35508D01*
X230304Y-35355D01*
X230554Y-35203D01*
X230776Y-35022D01*
Y-32623D01*
X227017D01*
Y-31112D01*
X232440D01*
Y-35868D01*
X232426Y-35882D01*
X232384Y-35910D01*
X232315Y-35966D01*
X232218Y-36035D01*
X232107Y-36118D01*
X231968Y-36201D01*
X231816Y-36312D01*
X231649Y-36423D01*
X231469Y-36534D01*
X231261Y-36659D01*
X230831Y-36909D01*
X230360Y-37144D01*
X229860Y-37352D01*
X229847D01*
X229805Y-37380D01*
X229736Y-37394D01*
X229625Y-37436D01*
X229514Y-37463D01*
X229361Y-37505D01*
X229209Y-37561D01*
X229028Y-37602D01*
X228820Y-37644D01*
X228612Y-37699D01*
X228155Y-37768D01*
X227655Y-37824D01*
X227142Y-37852D01*
X226962D01*
X226823Y-37838D01*
X226657Y-37824D01*
X226463Y-37810D01*
X226241Y-37782D01*
X226005Y-37755D01*
X225755Y-37713D01*
X225478Y-37657D01*
X225201Y-37588D01*
X224896Y-37505D01*
X224604Y-37422D01*
X224313Y-37311D01*
X224008Y-37186D01*
X223717Y-37047D01*
X223703Y-37034D01*
X223647Y-37006D01*
X223564Y-36964D01*
X223467Y-36895D01*
X223342Y-36812D01*
X223190Y-36714D01*
X223023Y-36590D01*
X222843Y-36451D01*
X222663Y-36298D01*
X222469Y-36118D01*
X222274Y-35938D01*
X222080Y-35730D01*
X221900Y-35494D01*
X221720Y-35258D01*
X221539Y-34995D01*
X221387Y-34717D01*
X221373Y-34704D01*
X221359Y-34648D01*
X221318Y-34565D01*
X221262Y-34454D01*
X221207Y-34301D01*
X221137Y-34135D01*
X221068Y-33941D01*
X220998Y-33719D01*
X220929Y-33483D01*
X220860Y-33220D01*
X220791Y-32928D01*
X220735Y-32637D01*
X220680Y-32318D01*
X220638Y-31999D01*
X220624Y-31653D01*
X220610Y-31306D01*
Y-31278D01*
Y-31223D01*
Y-31126D01*
X220624Y-30987D01*
X220638Y-30820D01*
X220652Y-30626D01*
X220680Y-30404D01*
X220707Y-30169D01*
X220749Y-29905D01*
X220804Y-29628D01*
X220943Y-29045D01*
X221026Y-28740D01*
X221137Y-28435D01*
X221248Y-28130D01*
X221387Y-27825D01*
X221401Y-27811D01*
X221429Y-27755D01*
X221470Y-27672D01*
X221525Y-27561D01*
X221609Y-27423D01*
X221706Y-27270D01*
X221831Y-27104D01*
X221956Y-26909D01*
X222108Y-26715D01*
X222274Y-26521D01*
X222455Y-26327D01*
X222663Y-26119D01*
X222871Y-25925D01*
X223106Y-25745D01*
X223356Y-25564D01*
X223620Y-25412D01*
X223633Y-25398D01*
X223689Y-25384D01*
X223772Y-25342D01*
X223883Y-25287D01*
X224022Y-25231D01*
X224188Y-25162D01*
X224382Y-25093D01*
X224590Y-25010D01*
X224826Y-24940D01*
X225090Y-24871D01*
X225367Y-24801D01*
X225672Y-24746D01*
X225977Y-24691D01*
X226310Y-24649D01*
X226657Y-24635D01*
X227004Y-24621D01*
X227239D01*
X227364Y-24635D01*
D02*
G37*
G36*
X371374Y-37644D02*
X369917D01*
Y-36479D01*
X369904Y-36493D01*
X369876Y-36534D01*
X369820Y-36604D01*
X369751Y-36687D01*
X369654Y-36798D01*
X369543Y-36909D01*
X369418Y-37033D01*
X369266Y-37158D01*
X369085Y-37297D01*
X368891Y-37422D01*
X368683Y-37533D01*
X368447Y-37630D01*
X368184Y-37727D01*
X367920Y-37796D01*
X367629Y-37838D01*
X367310Y-37852D01*
X367199D01*
X367116Y-37838D01*
X367019D01*
X366908Y-37824D01*
X366783Y-37796D01*
X366645Y-37768D01*
X366325Y-37699D01*
X365979Y-37588D01*
X365632Y-37436D01*
X365452Y-37352D01*
X365271Y-37241D01*
X365258Y-37228D01*
X365230Y-37214D01*
X365188Y-37172D01*
X365119Y-37130D01*
X365036Y-37061D01*
X364953Y-36992D01*
X364744Y-36798D01*
X364509Y-36562D01*
X364273Y-36271D01*
X364037Y-35924D01*
X363829Y-35536D01*
Y-35522D01*
X363801Y-35480D01*
X363788Y-35425D01*
X363746Y-35341D01*
X363718Y-35244D01*
X363677Y-35120D01*
X363621Y-34967D01*
X363580Y-34815D01*
X363538Y-34634D01*
X363483Y-34440D01*
X363441Y-34232D01*
X363413Y-34010D01*
X363358Y-33539D01*
X363330Y-33026D01*
Y-33012D01*
Y-32956D01*
Y-32887D01*
X363344Y-32790D01*
Y-32665D01*
X363358Y-32526D01*
X363372Y-32360D01*
X363385Y-32180D01*
X363441Y-31791D01*
X363524Y-31375D01*
X363635Y-30931D01*
X363788Y-30501D01*
Y-30487D01*
X363815Y-30446D01*
X363843Y-30391D01*
X363871Y-30307D01*
X363926Y-30224D01*
X363982Y-30113D01*
X364134Y-29864D01*
X364328Y-29572D01*
X364564Y-29295D01*
X364842Y-29018D01*
X365174Y-28768D01*
X365188Y-28754D01*
X365216Y-28740D01*
X365271Y-28712D01*
X365341Y-28671D01*
X365424Y-28629D01*
X365535Y-28574D01*
X365646Y-28518D01*
X365785Y-28463D01*
X366090Y-28352D01*
X366437Y-28255D01*
X366825Y-28185D01*
X367033Y-28158D01*
X367379D01*
X367546Y-28172D01*
X367740Y-28199D01*
X367976Y-28241D01*
X368226Y-28310D01*
X368489Y-28393D01*
X368739Y-28518D01*
X368753D01*
X368766Y-28532D01*
X368850Y-28588D01*
X368960Y-28657D01*
X369113Y-28768D01*
X369280Y-28907D01*
X369460Y-29059D01*
X369640Y-29239D01*
X369807Y-29447D01*
Y-24843D01*
X371374D01*
Y-37644D01*
D02*
G37*
G36*
X416182Y-28172D02*
X416266D01*
X416474Y-28199D01*
X416709Y-28227D01*
X416973Y-28282D01*
X417236Y-28366D01*
X417500Y-28463D01*
X417514D01*
X417528Y-28477D01*
X417611Y-28518D01*
X417736Y-28588D01*
X417902Y-28671D01*
X418069Y-28796D01*
X418249Y-28920D01*
X418415Y-29073D01*
X418554Y-29253D01*
X418568Y-29281D01*
X418609Y-29336D01*
X418665Y-29447D01*
X418748Y-29586D01*
X418831Y-29753D01*
X418901Y-29947D01*
X418984Y-30168D01*
X419039Y-30418D01*
Y-30432D01*
X419053Y-30501D01*
X419067Y-30612D01*
X419095Y-30765D01*
X419109Y-30973D01*
Y-31098D01*
X419123Y-31236D01*
Y-31389D01*
X419136Y-31569D01*
Y-31749D01*
Y-31944D01*
Y-37644D01*
X417569D01*
Y-31999D01*
Y-31985D01*
Y-31958D01*
Y-31902D01*
Y-31847D01*
Y-31763D01*
X417555Y-31666D01*
X417542Y-31458D01*
X417528Y-31223D01*
X417486Y-30987D01*
X417444Y-30765D01*
X417375Y-30571D01*
X417361Y-30543D01*
X417333Y-30487D01*
X417292Y-30404D01*
X417223Y-30293D01*
X417139Y-30168D01*
X417028Y-30044D01*
X416890Y-29919D01*
X416723Y-29808D01*
X416709Y-29794D01*
X416640Y-29766D01*
X416543Y-29711D01*
X416418Y-29655D01*
X416252Y-29614D01*
X416072Y-29558D01*
X415863Y-29531D01*
X415628Y-29517D01*
X415531D01*
X415461Y-29531D01*
X415378D01*
X415267Y-29544D01*
X415031Y-29600D01*
X414768Y-29669D01*
X414477Y-29780D01*
X414185Y-29947D01*
X414033Y-30044D01*
X413894Y-30155D01*
X413880Y-30168D01*
X413866Y-30182D01*
X413825Y-30224D01*
X413783Y-30280D01*
X413728Y-30363D01*
X413672Y-30446D01*
X413603Y-30557D01*
X413534Y-30696D01*
X413464Y-30848D01*
X413395Y-31028D01*
X413339Y-31223D01*
X413284Y-31444D01*
X413242Y-31694D01*
X413201Y-31958D01*
X413187Y-32263D01*
X413173Y-32582D01*
Y-37644D01*
X411606D01*
Y-28366D01*
X413020D01*
Y-29697D01*
X413034Y-29683D01*
X413062Y-29628D01*
X413131Y-29558D01*
X413215Y-29461D01*
X413312Y-29336D01*
X413437Y-29212D01*
X413589Y-29073D01*
X413769Y-28920D01*
X413964Y-28782D01*
X414185Y-28643D01*
X414421Y-28518D01*
X414685Y-28393D01*
X414976Y-28296D01*
X415281Y-28227D01*
X415614Y-28172D01*
X415961Y-28158D01*
X416099D01*
X416182Y-28172D01*
D02*
G37*
G36*
X279065Y-28172D02*
X279149D01*
X279357Y-28199D01*
X279592Y-28227D01*
X279856Y-28282D01*
X280119Y-28366D01*
X280383Y-28463D01*
X280397D01*
X280411Y-28477D01*
X280494Y-28518D01*
X280619Y-28588D01*
X280785Y-28671D01*
X280952Y-28796D01*
X281132Y-28920D01*
X281298Y-29073D01*
X281437Y-29253D01*
X281451Y-29281D01*
X281493Y-29337D01*
X281548Y-29447D01*
X281631Y-29586D01*
X281714Y-29753D01*
X281784Y-29947D01*
X281867Y-30169D01*
X281922Y-30418D01*
Y-30432D01*
X281936Y-30501D01*
X281950Y-30612D01*
X281978Y-30765D01*
X281992Y-30973D01*
Y-31098D01*
X282006Y-31236D01*
Y-31389D01*
X282020Y-31569D01*
Y-31750D01*
Y-31944D01*
Y-37644D01*
X280452D01*
Y-31999D01*
Y-31985D01*
Y-31958D01*
Y-31902D01*
Y-31847D01*
Y-31763D01*
X280438Y-31666D01*
X280425Y-31458D01*
X280411Y-31223D01*
X280369Y-30987D01*
X280328Y-30765D01*
X280258Y-30571D01*
X280244Y-30543D01*
X280217Y-30487D01*
X280175Y-30404D01*
X280106Y-30293D01*
X280023Y-30169D01*
X279911Y-30044D01*
X279773Y-29919D01*
X279606Y-29808D01*
X279592Y-29794D01*
X279523Y-29766D01*
X279426Y-29711D01*
X279301Y-29655D01*
X279135Y-29614D01*
X278955Y-29558D01*
X278747Y-29531D01*
X278511Y-29517D01*
X278414D01*
X278344Y-29531D01*
X278261D01*
X278150Y-29544D01*
X277915Y-29600D01*
X277651Y-29669D01*
X277360Y-29780D01*
X277069Y-29947D01*
X276916Y-30044D01*
X276777Y-30155D01*
X276763Y-30169D01*
X276749Y-30182D01*
X276708Y-30224D01*
X276666Y-30280D01*
X276611Y-30363D01*
X276555Y-30446D01*
X276486Y-30557D01*
X276417Y-30696D01*
X276347Y-30848D01*
X276278Y-31028D01*
X276222Y-31223D01*
X276167Y-31444D01*
X276125Y-31694D01*
X276084Y-31958D01*
X276070Y-32263D01*
X276056Y-32582D01*
Y-37644D01*
X274489D01*
Y-28366D01*
X275903D01*
Y-29697D01*
X275917Y-29683D01*
X275945Y-29628D01*
X276014Y-29558D01*
X276098Y-29461D01*
X276195Y-29337D01*
X276320Y-29212D01*
X276472Y-29073D01*
X276652Y-28920D01*
X276847Y-28782D01*
X277069Y-28643D01*
X277304Y-28518D01*
X277568Y-28393D01*
X277859Y-28296D01*
X278164Y-28227D01*
X278497Y-28172D01*
X278844Y-28158D01*
X278982D01*
X279065Y-28172D01*
D02*
G37*
G36*
X361499D02*
X361569D01*
X361652Y-28185D01*
X361860Y-28227D01*
X362109Y-28282D01*
X362373Y-28379D01*
X362678Y-28504D01*
X362983Y-28671D01*
X362429Y-30127D01*
X362401Y-30113D01*
X362331Y-30071D01*
X362220Y-30016D01*
X362068Y-29947D01*
X361902Y-29891D01*
X361707Y-29836D01*
X361499Y-29794D01*
X361277Y-29780D01*
X361194D01*
X361097Y-29794D01*
X360972Y-29822D01*
X360820Y-29864D01*
X360667Y-29919D01*
X360515Y-29988D01*
X360348Y-30099D01*
X360334Y-30113D01*
X360279Y-30155D01*
X360210Y-30224D01*
X360126Y-30321D01*
X360029Y-30446D01*
X359932Y-30585D01*
X359849Y-30765D01*
X359766Y-30959D01*
Y-30973D01*
X359752Y-31001D01*
X359738Y-31042D01*
X359724Y-31098D01*
X359710Y-31181D01*
X359683Y-31278D01*
X359641Y-31500D01*
X359599Y-31777D01*
X359558Y-32082D01*
X359530Y-32429D01*
X359516Y-32790D01*
Y-37644D01*
X357949D01*
Y-28366D01*
X359364D01*
Y-29766D01*
X359391Y-29739D01*
X359419Y-29683D01*
X359461Y-29628D01*
X359558Y-29447D01*
X359696Y-29253D01*
X359849Y-29031D01*
X360015Y-28809D01*
X360182Y-28629D01*
X360279Y-28546D01*
X360362Y-28477D01*
X360390Y-28463D01*
X360445Y-28421D01*
X360542Y-28379D01*
X360653Y-28310D01*
X360806Y-28255D01*
X360972Y-28213D01*
X361166Y-28172D01*
X361361Y-28158D01*
X361444D01*
X361499Y-28172D01*
D02*
G37*
G36*
X320754D02*
X320823D01*
X320906Y-28185D01*
X321115Y-28227D01*
X321364Y-28282D01*
X321628Y-28379D01*
X321933Y-28504D01*
X322238Y-28671D01*
X321683Y-30127D01*
X321655Y-30113D01*
X321586Y-30071D01*
X321475Y-30016D01*
X321323Y-29947D01*
X321156Y-29891D01*
X320962Y-29836D01*
X320754Y-29794D01*
X320532Y-29780D01*
X320449D01*
X320352Y-29794D01*
X320227Y-29822D01*
X320074Y-29864D01*
X319922Y-29919D01*
X319769Y-29988D01*
X319603Y-30099D01*
X319589Y-30113D01*
X319534Y-30155D01*
X319464Y-30224D01*
X319381Y-30321D01*
X319284Y-30446D01*
X319187Y-30585D01*
X319104Y-30765D01*
X319020Y-30959D01*
Y-30973D01*
X319007Y-31001D01*
X318993Y-31042D01*
X318979Y-31098D01*
X318965Y-31181D01*
X318937Y-31278D01*
X318896Y-31500D01*
X318854Y-31777D01*
X318812Y-32082D01*
X318785Y-32429D01*
X318771Y-32790D01*
Y-37644D01*
X317204D01*
Y-28366D01*
X318618D01*
Y-29766D01*
X318646Y-29739D01*
X318674Y-29683D01*
X318715Y-29628D01*
X318812Y-29447D01*
X318951Y-29253D01*
X319104Y-29031D01*
X319270Y-28809D01*
X319436Y-28629D01*
X319534Y-28546D01*
X319617Y-28477D01*
X319645Y-28463D01*
X319700Y-28421D01*
X319797Y-28379D01*
X319908Y-28310D01*
X320061Y-28255D01*
X320227Y-28213D01*
X320421Y-28172D01*
X320615Y-28158D01*
X320699D01*
X320754Y-28172D01*
D02*
G37*
G36*
X195342Y-28172D02*
X195453D01*
X195716Y-28199D01*
X196008Y-28241D01*
X196341Y-28296D01*
X196660Y-28366D01*
X196978Y-28477D01*
X196992D01*
X197020Y-28491D01*
X197062Y-28504D01*
X197117Y-28532D01*
X197256Y-28602D01*
X197450Y-28698D01*
X197644Y-28823D01*
X197838Y-28976D01*
X198032Y-29142D01*
X198199Y-29337D01*
X198213Y-29364D01*
X198268Y-29434D01*
X198338Y-29558D01*
X198421Y-29711D01*
X198518Y-29919D01*
X198601Y-30169D01*
X198684Y-30446D01*
X198754Y-30765D01*
X197214Y-30973D01*
Y-30959D01*
Y-30945D01*
X197187Y-30862D01*
X197159Y-30723D01*
X197103Y-30571D01*
X197020Y-30391D01*
X196909Y-30210D01*
X196770Y-30030D01*
X196604Y-29864D01*
X196576Y-29850D01*
X196507Y-29794D01*
X196396Y-29725D01*
X196243Y-29655D01*
X196035Y-29572D01*
X195786Y-29517D01*
X195508Y-29461D01*
X195176Y-29447D01*
X194995D01*
X194912Y-29461D01*
X194815D01*
X194579Y-29489D01*
X194330Y-29531D01*
X194066Y-29600D01*
X193830Y-29683D01*
X193733Y-29739D01*
X193636Y-29808D01*
X193622Y-29822D01*
X193567Y-29877D01*
X193498Y-29947D01*
X193414Y-30044D01*
X193317Y-30169D01*
X193248Y-30321D01*
X193192Y-30474D01*
X193179Y-30654D01*
Y-30668D01*
Y-30710D01*
X193192Y-30765D01*
X193206Y-30834D01*
X193262Y-31015D01*
X193303Y-31112D01*
X193359Y-31209D01*
X193373Y-31223D01*
X193400Y-31250D01*
X193442Y-31292D01*
X193511Y-31347D01*
X193595Y-31417D01*
X193706Y-31486D01*
X193830Y-31555D01*
X193969Y-31625D01*
X193983D01*
X194025Y-31639D01*
X194108Y-31666D01*
X194233Y-31708D01*
X194316Y-31736D01*
X194413Y-31764D01*
X194524Y-31791D01*
X194649Y-31833D01*
X194801Y-31874D01*
X194968Y-31916D01*
X195148Y-31971D01*
X195356Y-32027D01*
X195370D01*
X195425Y-32041D01*
X195508Y-32069D01*
X195633Y-32096D01*
X195758Y-32138D01*
X195911Y-32180D01*
X196091Y-32235D01*
X196271Y-32290D01*
X196660Y-32401D01*
X197034Y-32526D01*
X197214Y-32582D01*
X197381Y-32651D01*
X197533Y-32706D01*
X197672Y-32762D01*
X197686D01*
X197700Y-32776D01*
X197783Y-32817D01*
X197908Y-32873D01*
X198046Y-32970D01*
X198213Y-33081D01*
X198393Y-33220D01*
X198559Y-33386D01*
X198712Y-33580D01*
X198726Y-33608D01*
X198768Y-33677D01*
X198837Y-33788D01*
X198906Y-33955D01*
X198976Y-34149D01*
X199045Y-34371D01*
X199086Y-34634D01*
X199100Y-34925D01*
Y-34939D01*
Y-34967D01*
Y-35009D01*
Y-35064D01*
X199073Y-35217D01*
X199045Y-35411D01*
X198989Y-35633D01*
X198906Y-35882D01*
X198781Y-36146D01*
X198629Y-36409D01*
Y-36423D01*
X198601Y-36437D01*
X198546Y-36520D01*
X198435Y-36645D01*
X198296Y-36798D01*
X198102Y-36978D01*
X197880Y-37158D01*
X197616Y-37325D01*
X197311Y-37477D01*
X197297D01*
X197270Y-37491D01*
X197228Y-37505D01*
X197159Y-37533D01*
X197076Y-37561D01*
X196978Y-37602D01*
X196868Y-37630D01*
X196743Y-37657D01*
X196451Y-37727D01*
X196119Y-37796D01*
X195758Y-37838D01*
X195356Y-37852D01*
X195176D01*
X195051Y-37838D01*
X194912Y-37824D01*
X194732Y-37810D01*
X194538Y-37796D01*
X194330Y-37755D01*
X193886Y-37671D01*
X193414Y-37547D01*
X193192Y-37463D01*
X192971Y-37352D01*
X192776Y-37241D01*
X192582Y-37117D01*
X192568Y-37103D01*
X192541Y-37075D01*
X192499Y-37034D01*
X192430Y-36978D01*
X192360Y-36895D01*
X192277Y-36798D01*
X192180Y-36687D01*
X192083Y-36562D01*
X191972Y-36409D01*
X191875Y-36243D01*
X191778Y-36063D01*
X191681Y-35855D01*
X191597Y-35647D01*
X191514Y-35411D01*
X191445Y-35147D01*
X191390Y-34884D01*
X192943Y-34634D01*
Y-34648D01*
X192957Y-34676D01*
Y-34717D01*
X192971Y-34787D01*
X192984Y-34870D01*
X193012Y-34953D01*
X193081Y-35161D01*
X193179Y-35397D01*
X193303Y-35647D01*
X193456Y-35868D01*
X193664Y-36077D01*
X193678D01*
X193692Y-36090D01*
X193775Y-36146D01*
X193914Y-36229D01*
X194108Y-36312D01*
X194343Y-36409D01*
X194635Y-36479D01*
X194968Y-36534D01*
X195342Y-36562D01*
X195453D01*
X195522Y-36548D01*
X195619D01*
X195716Y-36534D01*
X195952Y-36507D01*
X196216Y-36451D01*
X196493Y-36382D01*
X196743Y-36271D01*
X196965Y-36132D01*
X196992Y-36118D01*
X197048Y-36049D01*
X197131Y-35966D01*
X197228Y-35841D01*
X197325Y-35688D01*
X197408Y-35508D01*
X197464Y-35314D01*
X197492Y-35092D01*
Y-35064D01*
Y-35009D01*
X197464Y-34898D01*
X197436Y-34787D01*
X197381Y-34648D01*
X197297Y-34509D01*
X197173Y-34371D01*
X197020Y-34246D01*
X197006Y-34232D01*
X196951Y-34204D01*
X196854Y-34163D01*
X196784Y-34135D01*
X196701Y-34107D01*
X196590Y-34066D01*
X196479Y-34024D01*
X196354Y-33982D01*
X196202Y-33941D01*
X196035Y-33885D01*
X195841Y-33830D01*
X195633Y-33774D01*
X195411Y-33719D01*
X195397D01*
X195342Y-33705D01*
X195245Y-33677D01*
X195134Y-33650D01*
X194995Y-33608D01*
X194829Y-33566D01*
X194649Y-33511D01*
X194454Y-33455D01*
X194066Y-33331D01*
X193664Y-33206D01*
X193470Y-33150D01*
X193303Y-33081D01*
X193137Y-33012D01*
X192998Y-32956D01*
X192984D01*
X192971Y-32942D01*
X192887Y-32901D01*
X192776Y-32831D01*
X192624Y-32720D01*
X192457Y-32596D01*
X192291Y-32457D01*
X192125Y-32277D01*
X191986Y-32082D01*
X191972Y-32055D01*
X191930Y-31985D01*
X191875Y-31860D01*
X191819Y-31708D01*
X191764Y-31528D01*
X191709Y-31320D01*
X191667Y-31084D01*
X191653Y-30834D01*
Y-30820D01*
Y-30807D01*
Y-30723D01*
X191667Y-30612D01*
X191695Y-30460D01*
X191722Y-30280D01*
X191764Y-30085D01*
X191833Y-29877D01*
X191930Y-29683D01*
X191944Y-29655D01*
X191986Y-29600D01*
X192041Y-29503D01*
X192138Y-29378D01*
X192236Y-29239D01*
X192374Y-29087D01*
X192527Y-28948D01*
X192707Y-28809D01*
X192721Y-28796D01*
X192776Y-28768D01*
X192860Y-28712D01*
X192971Y-28657D01*
X193109Y-28588D01*
X193276Y-28504D01*
X193484Y-28421D01*
X193706Y-28352D01*
X193719D01*
X193733Y-28338D01*
X193817Y-28324D01*
X193941Y-28296D01*
X194122Y-28255D01*
X194316Y-28213D01*
X194552Y-28185D01*
X194801Y-28172D01*
X195065Y-28158D01*
X195245D01*
X195342Y-28172D01*
D02*
G37*
G36*
X247113Y-37644D02*
X245476D01*
Y-26923D01*
X241732Y-37644D01*
X240206D01*
X236517Y-26743D01*
Y-37644D01*
X234881D01*
Y-24843D01*
X237419D01*
X240456Y-33913D01*
Y-33927D01*
X240470Y-33969D01*
X240497Y-34038D01*
X240525Y-34121D01*
X240553Y-34218D01*
X240595Y-34343D01*
X240692Y-34620D01*
X240789Y-34925D01*
X240886Y-35244D01*
X240983Y-35536D01*
X241024Y-35674D01*
X241066Y-35799D01*
Y-35785D01*
X241080Y-35771D01*
X241094Y-35730D01*
X241108Y-35674D01*
X241136Y-35591D01*
X241163Y-35508D01*
X241191Y-35397D01*
X241232Y-35286D01*
X241274Y-35147D01*
X241330Y-34995D01*
X241385Y-34828D01*
X241441Y-34634D01*
X241510Y-34440D01*
X241579Y-34218D01*
X241663Y-33996D01*
X241746Y-33747D01*
X244825Y-24843D01*
X247113D01*
Y-37644D01*
D02*
G37*
G36*
X292476Y-37796D02*
Y-37810D01*
X292449Y-37866D01*
X292421Y-37935D01*
X292379Y-38046D01*
X292338Y-38171D01*
X292282Y-38309D01*
X292213Y-38462D01*
X292157Y-38628D01*
X292005Y-38975D01*
X291866Y-39322D01*
X291783Y-39488D01*
X291714Y-39641D01*
X291658Y-39779D01*
X291589Y-39890D01*
Y-39904D01*
X291575Y-39918D01*
X291547Y-39960D01*
X291519Y-40015D01*
X291422Y-40154D01*
X291311Y-40320D01*
X291173Y-40514D01*
X291006Y-40695D01*
X290826Y-40875D01*
X290632Y-41027D01*
X290604Y-41041D01*
X290535Y-41083D01*
X290424Y-41152D01*
X290271Y-41208D01*
X290077Y-41277D01*
X289855Y-41347D01*
X289619Y-41388D01*
X289342Y-41402D01*
X289259D01*
X289162Y-41388D01*
X289051Y-41374D01*
X288898Y-41360D01*
X288718Y-41319D01*
X288538Y-41277D01*
X288330Y-41208D01*
X288149Y-39738D01*
X288177D01*
X288232Y-39766D01*
X288330Y-39779D01*
X288454Y-39807D01*
X288593Y-39835D01*
X288746Y-39863D01*
X288898Y-39876D01*
X289037Y-39890D01*
X289120D01*
X289217Y-39876D01*
X289342Y-39863D01*
X289467Y-39849D01*
X289606Y-39807D01*
X289744Y-39766D01*
X289869Y-39710D01*
X289883Y-39696D01*
X289925Y-39682D01*
X289980Y-39641D01*
X290049Y-39585D01*
X290133Y-39516D01*
X290230Y-39433D01*
X290396Y-39225D01*
X290410Y-39211D01*
X290424Y-39169D01*
X290465Y-39100D01*
X290507Y-38989D01*
X290576Y-38836D01*
X290660Y-38628D01*
X290701Y-38503D01*
X290757Y-38365D01*
X290812Y-38212D01*
X290868Y-38046D01*
X290881Y-38018D01*
X290909Y-37949D01*
X290951Y-37824D01*
X291020Y-37657D01*
X287511Y-28366D01*
X289176D01*
X291103Y-33747D01*
Y-33760D01*
X291117Y-33788D01*
X291145Y-33844D01*
X291173Y-33927D01*
X291200Y-34024D01*
X291242Y-34135D01*
X291284Y-34260D01*
X291339Y-34398D01*
X291436Y-34717D01*
X291561Y-35092D01*
X291672Y-35480D01*
X291783Y-35896D01*
Y-35882D01*
X291797Y-35841D01*
X291811Y-35785D01*
X291838Y-35716D01*
X291852Y-35619D01*
X291894Y-35494D01*
X291922Y-35369D01*
X291963Y-35231D01*
X292060Y-34912D01*
X292171Y-34551D01*
X292296Y-34176D01*
X292435Y-33788D01*
X294432Y-28366D01*
X295999D01*
X292476Y-37796D01*
D02*
G37*
G36*
X189393Y-32235D02*
Y-32263D01*
Y-32318D01*
Y-32415D01*
Y-32554D01*
X189379Y-32720D01*
X189365Y-32901D01*
X189351Y-33109D01*
X189337Y-33345D01*
X189282Y-33830D01*
X189212Y-34343D01*
X189101Y-34842D01*
X189032Y-35078D01*
X188949Y-35300D01*
Y-35314D01*
X188935Y-35355D01*
X188907Y-35411D01*
X188866Y-35494D01*
X188810Y-35591D01*
X188755Y-35702D01*
X188588Y-35952D01*
X188491Y-36104D01*
X188380Y-36243D01*
X188241Y-36409D01*
X188103Y-36562D01*
X187936Y-36714D01*
X187770Y-36867D01*
X187576Y-37006D01*
X187368Y-37144D01*
X187354Y-37158D01*
X187312Y-37172D01*
X187257Y-37214D01*
X187160Y-37255D01*
X187049Y-37311D01*
X186910Y-37366D01*
X186758Y-37436D01*
X186563Y-37491D01*
X186369Y-37561D01*
X186147Y-37630D01*
X185898Y-37685D01*
X185634Y-37741D01*
X185343Y-37782D01*
X185038Y-37824D01*
X184719Y-37838D01*
X184386Y-37852D01*
X184206D01*
X184081Y-37838D01*
X183928D01*
X183762Y-37824D01*
X183554Y-37796D01*
X183346Y-37768D01*
X182874Y-37699D01*
X182375Y-37588D01*
X181890Y-37436D01*
X181654Y-37352D01*
X181432Y-37241D01*
X181418Y-37228D01*
X181376Y-37214D01*
X181321Y-37172D01*
X181252Y-37130D01*
X181155Y-37061D01*
X181044Y-36978D01*
X180933Y-36895D01*
X180808Y-36784D01*
X180531Y-36534D01*
X180267Y-36229D01*
X180017Y-35868D01*
X179907Y-35661D01*
X179809Y-35452D01*
Y-35439D01*
X179795Y-35397D01*
X179768Y-35328D01*
X179740Y-35231D01*
X179698Y-35120D01*
X179657Y-34967D01*
X179615Y-34801D01*
X179574Y-34606D01*
X179518Y-34385D01*
X179477Y-34149D01*
X179435Y-33885D01*
X179407Y-33594D01*
X179366Y-33289D01*
X179352Y-32956D01*
X179324Y-32609D01*
Y-32235D01*
Y-24843D01*
X181016D01*
Y-32235D01*
Y-32249D01*
Y-32304D01*
Y-32387D01*
Y-32512D01*
X181030Y-32651D01*
Y-32804D01*
X181044Y-32984D01*
X181057Y-33164D01*
X181085Y-33566D01*
X181141Y-33969D01*
X181224Y-34357D01*
X181266Y-34537D01*
X181321Y-34690D01*
Y-34704D01*
X181335Y-34717D01*
X181349Y-34759D01*
X181376Y-34815D01*
X181460Y-34967D01*
X181571Y-35134D01*
X181709Y-35341D01*
X181890Y-35536D01*
X182111Y-35730D01*
X182375Y-35910D01*
X182389D01*
X182417Y-35924D01*
X182458Y-35952D01*
X182514Y-35979D01*
X182583Y-36007D01*
X182680Y-36035D01*
X182777Y-36077D01*
X182888Y-36118D01*
X183165Y-36188D01*
X183484Y-36257D01*
X183845Y-36312D01*
X184233Y-36326D01*
X184414D01*
X184538Y-36312D01*
X184691Y-36298D01*
X184871Y-36285D01*
X185065Y-36257D01*
X185273Y-36215D01*
X185704Y-36118D01*
X185925Y-36049D01*
X186147Y-35966D01*
X186355Y-35868D01*
X186549Y-35758D01*
X186730Y-35633D01*
X186896Y-35480D01*
X186910Y-35466D01*
X186938Y-35439D01*
X186966Y-35383D01*
X187021Y-35314D01*
X187076Y-35217D01*
X187146Y-35092D01*
X187229Y-34939D01*
X187298Y-34759D01*
X187368Y-34551D01*
X187451Y-34315D01*
X187520Y-34052D01*
X187576Y-33760D01*
X187631Y-33428D01*
X187673Y-33067D01*
X187687Y-32665D01*
X187701Y-32235D01*
Y-24843D01*
X189393D01*
Y-32235D01*
D02*
G37*
G36*
X396240Y-37644D02*
X394839D01*
Y-36284D01*
X394825Y-36298D01*
X394784Y-36354D01*
X394728Y-36423D01*
X394645Y-36534D01*
X394534Y-36645D01*
X394395Y-36784D01*
X394243Y-36923D01*
X394062Y-37061D01*
X393854Y-37214D01*
X393632Y-37352D01*
X393397Y-37491D01*
X393133Y-37602D01*
X392842Y-37713D01*
X392551Y-37782D01*
X392232Y-37838D01*
X391885Y-37852D01*
X391746D01*
X391594Y-37838D01*
X391386Y-37810D01*
X391150Y-37782D01*
X390886Y-37727D01*
X390623Y-37644D01*
X390346Y-37547D01*
X390332D01*
X390318Y-37533D01*
X390235Y-37491D01*
X390110Y-37422D01*
X389943Y-37325D01*
X389777Y-37214D01*
X389597Y-37075D01*
X389430Y-36923D01*
X389292Y-36756D01*
X389278Y-36728D01*
X389236Y-36673D01*
X389181Y-36562D01*
X389111Y-36423D01*
X389028Y-36257D01*
X388945Y-36063D01*
X388876Y-35841D01*
X388806Y-35591D01*
Y-35563D01*
X388792Y-35508D01*
X388778Y-35383D01*
X388765Y-35231D01*
X388751Y-35022D01*
X388737Y-34773D01*
X388723Y-34468D01*
Y-34121D01*
Y-28366D01*
X390290D01*
Y-33511D01*
Y-33525D01*
Y-33566D01*
Y-33622D01*
Y-33705D01*
Y-33816D01*
Y-33927D01*
X390304Y-34176D01*
Y-34454D01*
X390332Y-34731D01*
X390346Y-34981D01*
X390359Y-35092D01*
X390373Y-35175D01*
X390387Y-35203D01*
X390401Y-35272D01*
X390443Y-35397D01*
X390512Y-35536D01*
X390595Y-35688D01*
X390706Y-35841D01*
X390845Y-36007D01*
X391011Y-36146D01*
X391039Y-36160D01*
X391095Y-36201D01*
X391205Y-36257D01*
X391344Y-36312D01*
X391511Y-36382D01*
X391718Y-36437D01*
X391954Y-36479D01*
X392204Y-36493D01*
X392329D01*
X392454Y-36479D01*
X392634Y-36451D01*
X392842Y-36409D01*
X393064Y-36340D01*
X393286Y-36257D01*
X393521Y-36132D01*
X393535D01*
X393549Y-36118D01*
X393619Y-36063D01*
X393730Y-35979D01*
X393868Y-35868D01*
X394007Y-35730D01*
X394159Y-35563D01*
X394298Y-35369D01*
X394409Y-35147D01*
Y-35134D01*
X394423Y-35120D01*
X394437Y-35078D01*
X394451Y-35036D01*
X394464Y-34967D01*
X394492Y-34884D01*
X394520Y-34801D01*
X394548Y-34690D01*
X394589Y-34426D01*
X394631Y-34121D01*
X394659Y-33760D01*
X394673Y-33344D01*
Y-28366D01*
X396240D01*
Y-37644D01*
D02*
G37*
G36*
X433726Y-37644D02*
X431937D01*
Y-35855D01*
X433726D01*
Y-37644D01*
D02*
G37*
G36*
X409221D02*
X407653D01*
Y-28366D01*
X409221D01*
Y-37644D01*
D02*
G37*
G36*
X405199D02*
X403632D01*
Y-24843D01*
X405199D01*
Y-37644D01*
D02*
G37*
G36*
X352235Y-28172D02*
X352360D01*
X352623Y-28199D01*
X352929Y-28227D01*
X353248Y-28282D01*
X353567Y-28352D01*
X353858Y-28449D01*
X353872D01*
X353886Y-28463D01*
X353927Y-28477D01*
X353983Y-28504D01*
X354107Y-28560D01*
X354274Y-28643D01*
X354454Y-28740D01*
X354634Y-28865D01*
X354801Y-29004D01*
X354953Y-29156D01*
X354967Y-29170D01*
X355009Y-29225D01*
X355078Y-29323D01*
X355148Y-29447D01*
X355231Y-29600D01*
X355314Y-29780D01*
X355397Y-29988D01*
X355453Y-30224D01*
Y-30238D01*
X355466Y-30307D01*
X355480Y-30404D01*
X355494Y-30557D01*
X355508Y-30751D01*
X355522Y-31001D01*
Y-31153D01*
X355536Y-31306D01*
Y-31472D01*
Y-31666D01*
Y-33760D01*
Y-33788D01*
Y-33858D01*
Y-33969D01*
Y-34107D01*
Y-34288D01*
Y-34482D01*
X355550Y-34704D01*
Y-34925D01*
X355564Y-35397D01*
Y-35633D01*
X355578Y-35855D01*
X355591Y-36063D01*
X355605Y-36243D01*
X355619Y-36409D01*
X355633Y-36534D01*
Y-36562D01*
X355647Y-36631D01*
X355675Y-36742D01*
X355716Y-36895D01*
X355772Y-37061D01*
X355841Y-37241D01*
X355924Y-37450D01*
X356021Y-37644D01*
X354385D01*
X354371Y-37616D01*
X354343Y-37560D01*
X354302Y-37450D01*
X354260Y-37311D01*
X354204Y-37144D01*
X354149Y-36950D01*
X354107Y-36728D01*
X354080Y-36479D01*
X354066Y-36493D01*
X354038Y-36506D01*
X353997Y-36548D01*
X353927Y-36604D01*
X353844Y-36659D01*
X353761Y-36742D01*
X353539Y-36895D01*
X353275Y-37075D01*
X352998Y-37255D01*
X352693Y-37408D01*
X352388Y-37547D01*
X352374D01*
X352346Y-37560D01*
X352305Y-37574D01*
X352249Y-37588D01*
X352180Y-37616D01*
X352083Y-37644D01*
X351875Y-37699D01*
X351611Y-37755D01*
X351320Y-37810D01*
X351001Y-37838D01*
X350654Y-37852D01*
X350502D01*
X350405Y-37838D01*
X350280Y-37824D01*
X350127Y-37810D01*
X349961Y-37796D01*
X349794Y-37755D01*
X349406Y-37671D01*
X349018Y-37547D01*
X348838Y-37463D01*
X348643Y-37352D01*
X348477Y-37241D01*
X348311Y-37117D01*
X348297Y-37103D01*
X348269Y-37075D01*
X348241Y-37033D01*
X348186Y-36978D01*
X348116Y-36909D01*
X348047Y-36811D01*
X347978Y-36714D01*
X347908Y-36590D01*
X347756Y-36326D01*
X347617Y-35993D01*
X347562Y-35813D01*
X347534Y-35619D01*
X347506Y-35411D01*
X347492Y-35203D01*
Y-35189D01*
Y-35175D01*
Y-35092D01*
X347506Y-34953D01*
X347534Y-34787D01*
X347562Y-34593D01*
X347617Y-34385D01*
X347700Y-34176D01*
X347797Y-33955D01*
X347811Y-33927D01*
X347853Y-33858D01*
X347922Y-33760D01*
X348019Y-33622D01*
X348130Y-33483D01*
X348269Y-33331D01*
X348421Y-33192D01*
X348602Y-33053D01*
X348629Y-33039D01*
X348699Y-32998D01*
X348796Y-32928D01*
X348935Y-32859D01*
X349101Y-32776D01*
X349295Y-32693D01*
X349517Y-32609D01*
X349739Y-32540D01*
X349767D01*
X349822Y-32512D01*
X349933Y-32499D01*
X350086Y-32457D01*
X350280Y-32429D01*
X350529Y-32387D01*
X350807Y-32346D01*
X351140Y-32304D01*
X351167D01*
X351223Y-32290D01*
X351320Y-32277D01*
X351445Y-32263D01*
X351611Y-32235D01*
X351791Y-32207D01*
X351986Y-32180D01*
X352207Y-32152D01*
X352665Y-32069D01*
X353123Y-31971D01*
X353345Y-31916D01*
X353567Y-31860D01*
X353761Y-31805D01*
X353941Y-31750D01*
Y-31736D01*
Y-31694D01*
Y-31639D01*
X353955Y-31583D01*
Y-31444D01*
Y-31389D01*
Y-31347D01*
Y-31333D01*
Y-31306D01*
Y-31250D01*
Y-31195D01*
X353927Y-31028D01*
X353899Y-30820D01*
X353844Y-30598D01*
X353761Y-30377D01*
X353650Y-30169D01*
X353497Y-30002D01*
X353470Y-29974D01*
X353442Y-29947D01*
X353386Y-29919D01*
X353317Y-29877D01*
X353248Y-29836D01*
X353053Y-29725D01*
X352804Y-29628D01*
X352499Y-29544D01*
X352138Y-29489D01*
X351722Y-29461D01*
X351542D01*
X351445Y-29475D01*
X351348D01*
X351098Y-29503D01*
X350835Y-29558D01*
X350571Y-29628D01*
X350308Y-29725D01*
X350086Y-29850D01*
X350058Y-29864D01*
X350002Y-29919D01*
X349905Y-30030D01*
X349794Y-30169D01*
X349670Y-30349D01*
X349531Y-30598D01*
X349420Y-30876D01*
X349365Y-31042D01*
X349309Y-31223D01*
X347770Y-31014D01*
Y-31001D01*
X347784Y-30973D01*
X347797Y-30917D01*
X347811Y-30848D01*
X347839Y-30765D01*
X347867Y-30668D01*
X347936Y-30446D01*
X348033Y-30196D01*
X348144Y-29933D01*
X348283Y-29669D01*
X348449Y-29434D01*
Y-29420D01*
X348477Y-29406D01*
X348546Y-29337D01*
X348657Y-29225D01*
X348810Y-29087D01*
X349004Y-28934D01*
X349240Y-28782D01*
X349517Y-28629D01*
X349836Y-28491D01*
X349850D01*
X349878Y-28477D01*
X349933Y-28463D01*
X350002Y-28435D01*
X350086Y-28407D01*
X350183Y-28379D01*
X350308Y-28352D01*
X350446Y-28324D01*
X350585Y-28296D01*
X350751Y-28269D01*
X351112Y-28213D01*
X351514Y-28172D01*
X351944Y-28158D01*
X352138D01*
X352235Y-28172D01*
D02*
G37*
G36*
X285958Y-37644D02*
X284391D01*
Y-24843D01*
X285958D01*
Y-37644D01*
D02*
G37*
G36*
X255115D02*
X253548D01*
Y-27645D01*
X253520Y-27672D01*
X253451Y-27742D01*
X253326Y-27839D01*
X253146Y-27977D01*
X252938Y-28144D01*
X252674Y-28324D01*
X252383Y-28518D01*
X252050Y-28726D01*
X252036D01*
X252008Y-28754D01*
X251967Y-28782D01*
X251897Y-28809D01*
X251814Y-28865D01*
X251717Y-28907D01*
X251495Y-29031D01*
X251245Y-29156D01*
X250968Y-29295D01*
X250677Y-29420D01*
X250399Y-29531D01*
Y-28019D01*
X250413Y-28005D01*
X250455Y-27991D01*
X250524Y-27950D01*
X250621Y-27908D01*
X250732Y-27853D01*
X250871Y-27769D01*
X251024Y-27686D01*
X251176Y-27603D01*
X251537Y-27381D01*
X251925Y-27118D01*
X252327Y-26840D01*
X252702Y-26521D01*
X252716Y-26507D01*
X252743Y-26480D01*
X252799Y-26438D01*
X252868Y-26369D01*
X252938Y-26285D01*
X253034Y-26202D01*
X253243Y-25966D01*
X253478Y-25717D01*
X253714Y-25426D01*
X253922Y-25120D01*
X254102Y-24801D01*
X255115D01*
Y-37644D01*
D02*
G37*
G36*
X218100Y-37644D02*
X216311D01*
Y-35855D01*
X218100D01*
Y-37644D01*
D02*
G37*
G36*
X400539Y-28366D02*
X402134D01*
Y-29586D01*
X400539D01*
Y-35022D01*
Y-35036D01*
Y-35050D01*
Y-35133D01*
Y-35244D01*
X400553Y-35383D01*
Y-35522D01*
X400580Y-35660D01*
X400594Y-35785D01*
X400622Y-35882D01*
Y-35896D01*
X400636Y-35910D01*
X400691Y-35993D01*
X400775Y-36090D01*
X400886Y-36187D01*
X400899D01*
X400927Y-36201D01*
X400969Y-36215D01*
X401024Y-36243D01*
X401107Y-36257D01*
X401191Y-36284D01*
X401302Y-36298D01*
X401537D01*
X401621Y-36284D01*
X401718D01*
X401842Y-36271D01*
X401981Y-36257D01*
X402134Y-36243D01*
X402342Y-37630D01*
X402314D01*
X402231Y-37657D01*
X402106Y-37671D01*
X401940Y-37699D01*
X401759Y-37727D01*
X401565Y-37741D01*
X401149Y-37768D01*
X401010D01*
X400858Y-37755D01*
X400664Y-37741D01*
X400442Y-37699D01*
X400220Y-37657D01*
X400012Y-37588D01*
X399818Y-37505D01*
X399804Y-37491D01*
X399748Y-37450D01*
X399665Y-37394D01*
X399554Y-37311D01*
X399443Y-37214D01*
X399332Y-37089D01*
X399235Y-36950D01*
X399152Y-36798D01*
X399138Y-36770D01*
X399124Y-36701D01*
X399110Y-36645D01*
X399096Y-36576D01*
X399083Y-36493D01*
X399069Y-36395D01*
X399041Y-36284D01*
X399027Y-36146D01*
X399013Y-35993D01*
X398999Y-35827D01*
X398986Y-35633D01*
Y-35425D01*
X398972Y-35189D01*
Y-34939D01*
Y-29586D01*
X397807D01*
Y-28366D01*
X398972D01*
Y-26077D01*
X400539Y-25134D01*
Y-28366D01*
D02*
G37*
G36*
X425530Y-28172D02*
X425654D01*
X425821Y-28199D01*
X426001Y-28227D01*
X426209Y-28269D01*
X426431Y-28310D01*
X426667Y-28379D01*
X426903Y-28463D01*
X427166Y-28574D01*
X427416Y-28698D01*
X427665Y-28837D01*
X427915Y-29018D01*
X428165Y-29212D01*
X428387Y-29434D01*
X428400Y-29447D01*
X428442Y-29489D01*
X428498Y-29558D01*
X428567Y-29669D01*
X428664Y-29794D01*
X428761Y-29947D01*
X428872Y-30141D01*
X428983Y-30349D01*
X429080Y-30585D01*
X429191Y-30848D01*
X429288Y-31139D01*
X429385Y-31458D01*
X429454Y-31805D01*
X429510Y-32180D01*
X429552Y-32568D01*
X429565Y-32984D01*
Y-33012D01*
Y-33081D01*
Y-33220D01*
X429552Y-33400D01*
X422631D01*
Y-33414D01*
Y-33469D01*
X422645Y-33552D01*
X422659Y-33649D01*
X422673Y-33788D01*
X422701Y-33927D01*
X422728Y-34093D01*
X422770Y-34274D01*
X422881Y-34648D01*
X423033Y-35050D01*
X423130Y-35231D01*
X423228Y-35425D01*
X423352Y-35591D01*
X423491Y-35758D01*
X423505Y-35771D01*
X423533Y-35785D01*
X423574Y-35827D01*
X423630Y-35882D01*
X423713Y-35938D01*
X423796Y-36007D01*
X423907Y-36090D01*
X424032Y-36160D01*
X424309Y-36312D01*
X424642Y-36437D01*
X424822Y-36493D01*
X425017Y-36520D01*
X425225Y-36548D01*
X425433Y-36562D01*
X425516D01*
X425571Y-36548D01*
X425738Y-36534D01*
X425946Y-36506D01*
X426168Y-36451D01*
X426417Y-36368D01*
X426667Y-36271D01*
X426903Y-36118D01*
X426917D01*
X426930Y-36090D01*
X427000Y-36035D01*
X427111Y-35924D01*
X427249Y-35758D01*
X427402Y-35563D01*
X427568Y-35300D01*
X427735Y-34995D01*
X427873Y-34648D01*
X429510Y-34856D01*
Y-34870D01*
X429496Y-34925D01*
X429468Y-34995D01*
X429427Y-35092D01*
X429385Y-35217D01*
X429330Y-35355D01*
X429260Y-35508D01*
X429191Y-35674D01*
X428997Y-36021D01*
X428747Y-36395D01*
X428595Y-36576D01*
X428442Y-36756D01*
X428276Y-36923D01*
X428082Y-37075D01*
X428068Y-37089D01*
X428040Y-37103D01*
X427971Y-37144D01*
X427901Y-37200D01*
X427790Y-37255D01*
X427665Y-37325D01*
X427527Y-37394D01*
X427360Y-37463D01*
X427180Y-37533D01*
X426972Y-37602D01*
X426764Y-37671D01*
X426528Y-37727D01*
X426279Y-37782D01*
X426015Y-37824D01*
X425724Y-37838D01*
X425433Y-37852D01*
X425349D01*
X425238Y-37838D01*
X425100D01*
X424920Y-37810D01*
X424725Y-37782D01*
X424503Y-37741D01*
X424268Y-37699D01*
X424018Y-37630D01*
X423755Y-37547D01*
X423477Y-37450D01*
X423214Y-37325D01*
X422936Y-37186D01*
X422687Y-37020D01*
X422437Y-36825D01*
X422201Y-36604D01*
X422187Y-36590D01*
X422146Y-36548D01*
X422090Y-36479D01*
X422021Y-36368D01*
X421924Y-36243D01*
X421827Y-36090D01*
X421716Y-35910D01*
X421619Y-35702D01*
X421508Y-35466D01*
X421397Y-35203D01*
X421300Y-34911D01*
X421203Y-34593D01*
X421133Y-34260D01*
X421078Y-33899D01*
X421036Y-33511D01*
X421022Y-33095D01*
Y-33067D01*
Y-32998D01*
X421036Y-32873D01*
Y-32706D01*
X421064Y-32512D01*
X421092Y-32290D01*
X421120Y-32027D01*
X421175Y-31763D01*
X421231Y-31472D01*
X421314Y-31181D01*
X421411Y-30876D01*
X421522Y-30571D01*
X421660Y-30280D01*
X421827Y-29988D01*
X422007Y-29711D01*
X422215Y-29461D01*
X422229Y-29447D01*
X422271Y-29406D01*
X422340Y-29336D01*
X422437Y-29253D01*
X422548Y-29156D01*
X422701Y-29045D01*
X422867Y-28934D01*
X423061Y-28809D01*
X423269Y-28685D01*
X423505Y-28574D01*
X423768Y-28463D01*
X424046Y-28366D01*
X424351Y-28282D01*
X424656Y-28213D01*
X425003Y-28172D01*
X425349Y-28158D01*
X425433D01*
X425530Y-28172D01*
D02*
G37*
G36*
X382760Y-28172D02*
X382898D01*
X383065Y-28199D01*
X383245Y-28227D01*
X383453Y-28269D01*
X383689Y-28310D01*
X383924Y-28379D01*
X384188Y-28463D01*
X384438Y-28574D01*
X384701Y-28685D01*
X384965Y-28837D01*
X385214Y-29004D01*
X385464Y-29198D01*
X385700Y-29420D01*
X385714Y-29434D01*
X385755Y-29475D01*
X385811Y-29544D01*
X385894Y-29655D01*
X385977Y-29780D01*
X386088Y-29933D01*
X386199Y-30113D01*
X386310Y-30321D01*
X386421Y-30557D01*
X386532Y-30820D01*
X386643Y-31098D01*
X386726Y-31403D01*
X386809Y-31736D01*
X386865Y-32096D01*
X386906Y-32485D01*
X386920Y-32887D01*
Y-32901D01*
Y-32970D01*
Y-33053D01*
X386906Y-33178D01*
Y-33331D01*
X386892Y-33511D01*
X386879Y-33705D01*
X386851Y-33913D01*
X386795Y-34357D01*
X386698Y-34828D01*
X386559Y-35286D01*
X386476Y-35494D01*
X386379Y-35702D01*
Y-35716D01*
X386352Y-35744D01*
X386324Y-35799D01*
X386282Y-35868D01*
X386227Y-35952D01*
X386157Y-36063D01*
X385977Y-36284D01*
X385755Y-36548D01*
X385492Y-36811D01*
X385173Y-37061D01*
X384812Y-37297D01*
X384798D01*
X384771Y-37325D01*
X384715Y-37352D01*
X384632Y-37380D01*
X384535Y-37422D01*
X384424Y-37477D01*
X384299Y-37519D01*
X384146Y-37574D01*
X383994Y-37630D01*
X383814Y-37671D01*
X383439Y-37768D01*
X383023Y-37824D01*
X382579Y-37852D01*
X382496D01*
X382399Y-37838D01*
X382260D01*
X382094Y-37810D01*
X381900Y-37782D01*
X381692Y-37741D01*
X381456Y-37699D01*
X381206Y-37630D01*
X380957Y-37547D01*
X380693Y-37450D01*
X380430Y-37325D01*
X380166Y-37186D01*
X379916Y-37020D01*
X379667Y-36825D01*
X379431Y-36604D01*
X379417Y-36590D01*
X379376Y-36548D01*
X379320Y-36479D01*
X379251Y-36368D01*
X379154Y-36243D01*
X379057Y-36090D01*
X378946Y-35896D01*
X378835Y-35688D01*
X378724Y-35439D01*
X378613Y-35175D01*
X378516Y-34884D01*
X378419Y-34565D01*
X378349Y-34218D01*
X378294Y-33844D01*
X378252Y-33442D01*
X378238Y-33012D01*
Y-32998D01*
Y-32984D01*
Y-32901D01*
X378252Y-32762D01*
X378266Y-32596D01*
X378280Y-32374D01*
X378308Y-32124D01*
X378363Y-31860D01*
X378419Y-31569D01*
X378488Y-31264D01*
X378585Y-30945D01*
X378710Y-30626D01*
X378835Y-30307D01*
X379001Y-30002D01*
X379195Y-29711D01*
X379417Y-29447D01*
X379667Y-29198D01*
X379681Y-29184D01*
X379722Y-29156D01*
X379792Y-29101D01*
X379875Y-29031D01*
X380000Y-28962D01*
X380138Y-28865D01*
X380291Y-28768D01*
X380485Y-28671D01*
X380679Y-28574D01*
X380901Y-28491D01*
X381137Y-28393D01*
X381400Y-28324D01*
X381678Y-28255D01*
X381955Y-28199D01*
X382260Y-28172D01*
X382579Y-28158D01*
X382663D01*
X382760Y-28172D01*
D02*
G37*
G36*
X342014D02*
X342153D01*
X342319Y-28199D01*
X342500Y-28227D01*
X342708Y-28269D01*
X342943Y-28310D01*
X343179Y-28379D01*
X343443Y-28463D01*
X343692Y-28574D01*
X343956Y-28685D01*
X344219Y-28837D01*
X344469Y-29004D01*
X344719Y-29198D01*
X344954Y-29420D01*
X344968Y-29434D01*
X345010Y-29475D01*
X345065Y-29544D01*
X345149Y-29655D01*
X345232Y-29780D01*
X345343Y-29933D01*
X345454Y-30113D01*
X345564Y-30321D01*
X345676Y-30557D01*
X345786Y-30820D01*
X345897Y-31098D01*
X345981Y-31403D01*
X346064Y-31736D01*
X346119Y-32096D01*
X346161Y-32485D01*
X346175Y-32887D01*
Y-32901D01*
Y-32970D01*
Y-33053D01*
X346161Y-33178D01*
Y-33331D01*
X346147Y-33511D01*
X346133Y-33705D01*
X346105Y-33913D01*
X346050Y-34357D01*
X345953Y-34828D01*
X345814Y-35286D01*
X345731Y-35494D01*
X345634Y-35702D01*
Y-35716D01*
X345606Y-35744D01*
X345578Y-35799D01*
X345537Y-35868D01*
X345481Y-35952D01*
X345412Y-36063D01*
X345232Y-36284D01*
X345010Y-36548D01*
X344746Y-36811D01*
X344427Y-37061D01*
X344067Y-37297D01*
X344053D01*
X344025Y-37325D01*
X343970Y-37352D01*
X343886Y-37380D01*
X343789Y-37422D01*
X343678Y-37477D01*
X343554Y-37519D01*
X343401Y-37574D01*
X343248Y-37630D01*
X343068Y-37671D01*
X342694Y-37768D01*
X342278Y-37824D01*
X341834Y-37852D01*
X341751D01*
X341654Y-37838D01*
X341515D01*
X341348Y-37810D01*
X341154Y-37782D01*
X340946Y-37741D01*
X340711Y-37699D01*
X340461Y-37630D01*
X340211Y-37547D01*
X339948Y-37450D01*
X339684Y-37325D01*
X339421Y-37186D01*
X339171Y-37020D01*
X338922Y-36825D01*
X338686Y-36604D01*
X338672Y-36590D01*
X338630Y-36548D01*
X338575Y-36479D01*
X338506Y-36368D01*
X338408Y-36243D01*
X338311Y-36090D01*
X338200Y-35896D01*
X338089Y-35688D01*
X337979Y-35439D01*
X337868Y-35175D01*
X337771Y-34884D01*
X337673Y-34565D01*
X337604Y-34218D01*
X337549Y-33844D01*
X337507Y-33442D01*
X337493Y-33012D01*
Y-32998D01*
Y-32984D01*
Y-32901D01*
X337507Y-32762D01*
X337521Y-32596D01*
X337535Y-32374D01*
X337562Y-32124D01*
X337618Y-31860D01*
X337673Y-31569D01*
X337743Y-31264D01*
X337840Y-30945D01*
X337965Y-30626D01*
X338089Y-30307D01*
X338256Y-30002D01*
X338450Y-29711D01*
X338672Y-29447D01*
X338922Y-29198D01*
X338935Y-29184D01*
X338977Y-29156D01*
X339046Y-29101D01*
X339130Y-29031D01*
X339254Y-28962D01*
X339393Y-28865D01*
X339546Y-28768D01*
X339740Y-28671D01*
X339934Y-28574D01*
X340156Y-28491D01*
X340392Y-28393D01*
X340655Y-28324D01*
X340933Y-28255D01*
X341210Y-28199D01*
X341515Y-28172D01*
X341834Y-28158D01*
X341917D01*
X342014Y-28172D01*
D02*
G37*
G36*
X329685Y-29406D02*
X329699Y-29392D01*
X329727Y-29350D01*
X329782Y-29295D01*
X329865Y-29212D01*
X329963Y-29115D01*
X330074Y-29004D01*
X330212Y-28893D01*
X330379Y-28782D01*
X330545Y-28671D01*
X330739Y-28546D01*
X330947Y-28449D01*
X331169Y-28352D01*
X331419Y-28269D01*
X331668Y-28213D01*
X331946Y-28172D01*
X332223Y-28158D01*
X332376D01*
X332445Y-28172D01*
X332542D01*
X332750Y-28199D01*
X333000Y-28241D01*
X333277Y-28310D01*
X333554Y-28393D01*
X333846Y-28504D01*
X333860D01*
X333873Y-28518D01*
X333915Y-28546D01*
X333970Y-28574D01*
X334109Y-28643D01*
X334290Y-28754D01*
X334484Y-28893D01*
X334692Y-29059D01*
X334900Y-29253D01*
X335094Y-29475D01*
X335122Y-29503D01*
X335177Y-29586D01*
X335260Y-29725D01*
X335385Y-29891D01*
X335510Y-30113D01*
X335635Y-30377D01*
X335760Y-30668D01*
X335871Y-30987D01*
Y-31001D01*
X335884Y-31028D01*
X335898Y-31070D01*
X335912Y-31139D01*
X335940Y-31223D01*
X335968Y-31320D01*
X335995Y-31431D01*
X336023Y-31555D01*
X336065Y-31833D01*
X336120Y-32152D01*
X336148Y-32499D01*
X336162Y-32873D01*
Y-32901D01*
Y-32984D01*
X336148Y-33095D01*
Y-33261D01*
X336120Y-33469D01*
X336092Y-33691D01*
X336065Y-33955D01*
X336009Y-34232D01*
X335954Y-34523D01*
X335871Y-34815D01*
X335773Y-35134D01*
X335662Y-35439D01*
X335524Y-35744D01*
X335357Y-36035D01*
X335177Y-36298D01*
X334969Y-36562D01*
X334955Y-36576D01*
X334914Y-36617D01*
X334844Y-36687D01*
X334761Y-36756D01*
X334650Y-36867D01*
X334511Y-36964D01*
X334345Y-37089D01*
X334179Y-37200D01*
X333970Y-37325D01*
X333763Y-37450D01*
X333527Y-37547D01*
X333277Y-37644D01*
X333014Y-37727D01*
X332736Y-37796D01*
X332445Y-37838D01*
X332140Y-37852D01*
X332071D01*
X331987Y-37838D01*
X331876Y-37824D01*
X331738Y-37810D01*
X331571Y-37782D01*
X331391Y-37741D01*
X331211Y-37685D01*
X331003Y-37616D01*
X330795Y-37519D01*
X330587Y-37408D01*
X330365Y-37283D01*
X330157Y-37117D01*
X329949Y-36936D01*
X329754Y-36728D01*
X329574Y-36493D01*
Y-37644D01*
X328118D01*
Y-24843D01*
X329685D01*
Y-29406D01*
D02*
G37*
G36*
X311213Y-28172D02*
X311351D01*
X311518Y-28199D01*
X311698Y-28227D01*
X311906Y-28269D01*
X312142Y-28310D01*
X312377Y-28379D01*
X312641Y-28463D01*
X312891Y-28574D01*
X313154Y-28685D01*
X313418Y-28837D01*
X313667Y-29004D01*
X313917Y-29198D01*
X314153Y-29420D01*
X314167Y-29434D01*
X314208Y-29475D01*
X314263Y-29544D01*
X314347Y-29655D01*
X314430Y-29780D01*
X314541Y-29933D01*
X314652Y-30113D01*
X314763Y-30321D01*
X314874Y-30557D01*
X314985Y-30820D01*
X315096Y-31098D01*
X315179Y-31403D01*
X315262Y-31736D01*
X315317Y-32096D01*
X315359Y-32485D01*
X315373Y-32887D01*
Y-32901D01*
Y-32970D01*
Y-33053D01*
X315359Y-33178D01*
Y-33331D01*
X315345Y-33511D01*
X315331Y-33705D01*
X315304Y-33913D01*
X315248Y-34357D01*
X315151Y-34828D01*
X315012Y-35286D01*
X314929Y-35494D01*
X314832Y-35702D01*
Y-35716D01*
X314804Y-35744D01*
X314777Y-35799D01*
X314735Y-35868D01*
X314680Y-35952D01*
X314610Y-36063D01*
X314430Y-36284D01*
X314208Y-36548D01*
X313945Y-36811D01*
X313626Y-37061D01*
X313265Y-37297D01*
X313251D01*
X313223Y-37325D01*
X313168Y-37352D01*
X313085Y-37380D01*
X312988Y-37422D01*
X312877Y-37477D01*
X312752Y-37519D01*
X312599Y-37574D01*
X312447Y-37630D01*
X312267Y-37671D01*
X311892Y-37768D01*
X311476Y-37824D01*
X311032Y-37852D01*
X310949D01*
X310852Y-37838D01*
X310713D01*
X310547Y-37810D01*
X310353Y-37782D01*
X310145Y-37741D01*
X309909Y-37699D01*
X309659Y-37630D01*
X309410Y-37547D01*
X309146Y-37450D01*
X308883Y-37325D01*
X308619Y-37186D01*
X308370Y-37020D01*
X308120Y-36825D01*
X307884Y-36604D01*
X307870Y-36590D01*
X307829Y-36548D01*
X307773Y-36479D01*
X307704Y-36368D01*
X307607Y-36243D01*
X307510Y-36090D01*
X307399Y-35896D01*
X307288Y-35688D01*
X307177Y-35439D01*
X307066Y-35175D01*
X306969Y-34884D01*
X306872Y-34565D01*
X306802Y-34218D01*
X306747Y-33844D01*
X306705Y-33442D01*
X306691Y-33012D01*
Y-32998D01*
Y-32984D01*
Y-32901D01*
X306705Y-32762D01*
X306719Y-32596D01*
X306733Y-32374D01*
X306761Y-32124D01*
X306816Y-31860D01*
X306872Y-31569D01*
X306941Y-31264D01*
X307038Y-30945D01*
X307163Y-30626D01*
X307288Y-30307D01*
X307454Y-30002D01*
X307648Y-29711D01*
X307870Y-29447D01*
X308120Y-29198D01*
X308134Y-29184D01*
X308175Y-29156D01*
X308245Y-29101D01*
X308328Y-29031D01*
X308453Y-28962D01*
X308591Y-28865D01*
X308744Y-28768D01*
X308938Y-28671D01*
X309132Y-28574D01*
X309354Y-28491D01*
X309590Y-28393D01*
X309853Y-28324D01*
X310131Y-28255D01*
X310408Y-28199D01*
X310713Y-28172D01*
X311032Y-28158D01*
X311115D01*
X311213Y-28172D01*
D02*
G37*
G36*
X268484D02*
X268623D01*
X268789Y-28199D01*
X268969Y-28227D01*
X269177Y-28269D01*
X269413Y-28310D01*
X269649Y-28379D01*
X269912Y-28463D01*
X270162Y-28574D01*
X270425Y-28685D01*
X270689Y-28837D01*
X270939Y-29004D01*
X271188Y-29198D01*
X271424Y-29420D01*
X271438Y-29434D01*
X271479Y-29475D01*
X271535Y-29544D01*
X271618Y-29655D01*
X271701Y-29780D01*
X271812Y-29933D01*
X271923Y-30113D01*
X272034Y-30321D01*
X272145Y-30557D01*
X272256Y-30820D01*
X272367Y-31098D01*
X272450Y-31403D01*
X272533Y-31736D01*
X272589Y-32096D01*
X272631Y-32485D01*
X272645Y-32887D01*
Y-32901D01*
Y-32970D01*
Y-33053D01*
X272631Y-33178D01*
Y-33331D01*
X272617Y-33511D01*
X272603Y-33705D01*
X272575Y-33913D01*
X272520Y-34357D01*
X272423Y-34828D01*
X272284Y-35286D01*
X272201Y-35494D01*
X272104Y-35702D01*
Y-35716D01*
X272076Y-35744D01*
X272048Y-35799D01*
X272006Y-35868D01*
X271951Y-35952D01*
X271882Y-36063D01*
X271701Y-36284D01*
X271479Y-36548D01*
X271216Y-36811D01*
X270897Y-37061D01*
X270536Y-37297D01*
X270523D01*
X270495Y-37325D01*
X270439Y-37352D01*
X270356Y-37380D01*
X270259Y-37422D01*
X270148Y-37477D01*
X270023Y-37519D01*
X269871Y-37574D01*
X269718Y-37630D01*
X269538Y-37671D01*
X269163Y-37768D01*
X268747Y-37824D01*
X268304Y-37852D01*
X268220D01*
X268123Y-37838D01*
X267985D01*
X267818Y-37810D01*
X267624Y-37782D01*
X267416Y-37741D01*
X267180Y-37699D01*
X266931Y-37630D01*
X266681Y-37547D01*
X266418Y-37450D01*
X266154Y-37325D01*
X265891Y-37186D01*
X265641Y-37020D01*
X265391Y-36825D01*
X265156Y-36604D01*
X265142Y-36590D01*
X265100Y-36548D01*
X265045Y-36479D01*
X264975Y-36368D01*
X264878Y-36243D01*
X264781Y-36090D01*
X264670Y-35896D01*
X264559Y-35688D01*
X264448Y-35439D01*
X264337Y-35175D01*
X264240Y-34884D01*
X264143Y-34565D01*
X264074Y-34218D01*
X264018Y-33844D01*
X263977Y-33442D01*
X263963Y-33012D01*
Y-32998D01*
Y-32984D01*
Y-32901D01*
X263977Y-32762D01*
X263991Y-32596D01*
X264004Y-32374D01*
X264032Y-32124D01*
X264088Y-31860D01*
X264143Y-31569D01*
X264212Y-31264D01*
X264310Y-30945D01*
X264434Y-30626D01*
X264559Y-30307D01*
X264726Y-30002D01*
X264920Y-29711D01*
X265142Y-29447D01*
X265391Y-29198D01*
X265405Y-29184D01*
X265447Y-29156D01*
X265516Y-29101D01*
X265599Y-29031D01*
X265724Y-28962D01*
X265863Y-28865D01*
X266015Y-28768D01*
X266210Y-28671D01*
X266404Y-28574D01*
X266626Y-28491D01*
X266861Y-28393D01*
X267125Y-28324D01*
X267402Y-28255D01*
X267680Y-28199D01*
X267985Y-28172D01*
X268304Y-28158D01*
X268387D01*
X268484Y-28172D01*
D02*
G37*
G36*
X204939Y-28172D02*
X205064D01*
X205230Y-28199D01*
X205410Y-28227D01*
X205618Y-28269D01*
X205840Y-28310D01*
X206076Y-28380D01*
X206312Y-28463D01*
X206575Y-28574D01*
X206825Y-28698D01*
X207075Y-28837D01*
X207324Y-29018D01*
X207574Y-29212D01*
X207796Y-29434D01*
X207810Y-29447D01*
X207851Y-29489D01*
X207907Y-29558D01*
X207976Y-29669D01*
X208073Y-29794D01*
X208170Y-29947D01*
X208281Y-30141D01*
X208392Y-30349D01*
X208489Y-30585D01*
X208600Y-30848D01*
X208697Y-31139D01*
X208794Y-31458D01*
X208864Y-31805D01*
X208919Y-32180D01*
X208961Y-32568D01*
X208975Y-32984D01*
Y-33012D01*
Y-33081D01*
Y-33220D01*
X208961Y-33400D01*
X202040D01*
Y-33414D01*
Y-33469D01*
X202054Y-33552D01*
X202068Y-33650D01*
X202082Y-33788D01*
X202110Y-33927D01*
X202138Y-34093D01*
X202179Y-34274D01*
X202290Y-34648D01*
X202443Y-35050D01*
X202540Y-35231D01*
X202637Y-35425D01*
X202762Y-35591D01*
X202900Y-35758D01*
X202914Y-35771D01*
X202942Y-35785D01*
X202983Y-35827D01*
X203039Y-35882D01*
X203122Y-35938D01*
X203205Y-36007D01*
X203316Y-36090D01*
X203441Y-36160D01*
X203718Y-36312D01*
X204051Y-36437D01*
X204232Y-36493D01*
X204426Y-36520D01*
X204634Y-36548D01*
X204842Y-36562D01*
X204925D01*
X204981Y-36548D01*
X205147Y-36534D01*
X205355Y-36507D01*
X205577Y-36451D01*
X205826Y-36368D01*
X206076Y-36271D01*
X206312Y-36118D01*
X206326D01*
X206340Y-36090D01*
X206409Y-36035D01*
X206520Y-35924D01*
X206659Y-35758D01*
X206811Y-35563D01*
X206978Y-35300D01*
X207144Y-34995D01*
X207283Y-34648D01*
X208919Y-34856D01*
Y-34870D01*
X208905Y-34925D01*
X208878Y-34995D01*
X208836Y-35092D01*
X208794Y-35217D01*
X208739Y-35355D01*
X208669Y-35508D01*
X208600Y-35674D01*
X208406Y-36021D01*
X208156Y-36395D01*
X208004Y-36576D01*
X207851Y-36756D01*
X207685Y-36923D01*
X207491Y-37075D01*
X207477Y-37089D01*
X207449Y-37103D01*
X207380Y-37144D01*
X207310Y-37200D01*
X207199Y-37255D01*
X207075Y-37325D01*
X206936Y-37394D01*
X206770Y-37463D01*
X206589Y-37533D01*
X206381Y-37602D01*
X206173Y-37671D01*
X205938Y-37727D01*
X205688Y-37782D01*
X205424Y-37824D01*
X205133Y-37838D01*
X204842Y-37852D01*
X204759D01*
X204648Y-37838D01*
X204509D01*
X204329Y-37810D01*
X204135Y-37782D01*
X203913Y-37741D01*
X203677Y-37699D01*
X203427Y-37630D01*
X203164Y-37547D01*
X202886Y-37450D01*
X202623Y-37325D01*
X202346Y-37186D01*
X202096Y-37020D01*
X201846Y-36825D01*
X201611Y-36604D01*
X201597Y-36590D01*
X201555Y-36548D01*
X201500Y-36479D01*
X201430Y-36368D01*
X201333Y-36243D01*
X201236Y-36090D01*
X201125Y-35910D01*
X201028Y-35702D01*
X200917Y-35466D01*
X200806Y-35203D01*
X200709Y-34912D01*
X200612Y-34593D01*
X200543Y-34260D01*
X200487Y-33899D01*
X200446Y-33511D01*
X200432Y-33095D01*
Y-33067D01*
Y-32998D01*
X200446Y-32873D01*
Y-32706D01*
X200473Y-32512D01*
X200501Y-32290D01*
X200529Y-32027D01*
X200584Y-31764D01*
X200640Y-31472D01*
X200723Y-31181D01*
X200820Y-30876D01*
X200931Y-30571D01*
X201070Y-30280D01*
X201236Y-29988D01*
X201416Y-29711D01*
X201624Y-29461D01*
X201638Y-29447D01*
X201680Y-29406D01*
X201749Y-29337D01*
X201846Y-29253D01*
X201957Y-29156D01*
X202110Y-29045D01*
X202276Y-28934D01*
X202470Y-28809D01*
X202678Y-28685D01*
X202914Y-28574D01*
X203178Y-28463D01*
X203455Y-28366D01*
X203760Y-28282D01*
X204065Y-28213D01*
X204412Y-28172D01*
X204759Y-28158D01*
X204842D01*
X204939Y-28172D01*
D02*
G37*
%LPC*%
G36*
X367393Y-29461D02*
X367296D01*
X367213Y-29475D01*
X367130Y-29489D01*
X367019Y-29503D01*
X366783Y-29572D01*
X366506Y-29669D01*
X366353Y-29739D01*
X366201Y-29822D01*
X366062Y-29919D01*
X365910Y-30044D01*
X365771Y-30169D01*
X365632Y-30321D01*
X365618Y-30335D01*
X365604Y-30363D01*
X365563Y-30418D01*
X365521Y-30487D01*
X365466Y-30571D01*
X365410Y-30696D01*
X365355Y-30820D01*
X365285Y-30987D01*
X365216Y-31153D01*
X365161Y-31361D01*
X365105Y-31583D01*
X365050Y-31819D01*
X365008Y-32096D01*
X364966Y-32374D01*
X364953Y-32693D01*
X364939Y-33026D01*
Y-33039D01*
Y-33109D01*
Y-33192D01*
X364953Y-33317D01*
X364966Y-33469D01*
X364980Y-33636D01*
X365008Y-33816D01*
X365036Y-34024D01*
X365119Y-34454D01*
X365258Y-34898D01*
X365341Y-35106D01*
X365438Y-35314D01*
X365563Y-35508D01*
X365688Y-35688D01*
X365701Y-35702D01*
X365715Y-35730D01*
X365771Y-35771D01*
X365826Y-35827D01*
X365896Y-35896D01*
X365979Y-35966D01*
X366187Y-36118D01*
X366450Y-36284D01*
X366755Y-36423D01*
X366922Y-36479D01*
X367088Y-36520D01*
X367269Y-36548D01*
X367463Y-36562D01*
X367560D01*
X367643Y-36548D01*
X367726Y-36534D01*
X367837Y-36520D01*
X368073Y-36451D01*
X368350Y-36354D01*
X368503Y-36284D01*
X368642Y-36215D01*
X368794Y-36118D01*
X368947Y-36007D01*
X369085Y-35882D01*
X369224Y-35730D01*
X369238Y-35716D01*
X369252Y-35688D01*
X369293Y-35647D01*
X369335Y-35563D01*
X369390Y-35480D01*
X369460Y-35369D01*
X369529Y-35244D01*
X369598Y-35092D01*
X369654Y-34925D01*
X369723Y-34731D01*
X369793Y-34509D01*
X369848Y-34288D01*
X369890Y-34038D01*
X369931Y-33760D01*
X369945Y-33469D01*
X369959Y-33150D01*
Y-33122D01*
Y-33067D01*
Y-32970D01*
X369945Y-32845D01*
X369931Y-32679D01*
X369917Y-32499D01*
X369904Y-32304D01*
X369862Y-32082D01*
X369779Y-31639D01*
X369640Y-31167D01*
X369557Y-30945D01*
X369460Y-30737D01*
X369349Y-30543D01*
X369210Y-30363D01*
X369196Y-30349D01*
X369182Y-30321D01*
X369141Y-30280D01*
X369085Y-30224D01*
X369002Y-30155D01*
X368919Y-30071D01*
X368711Y-29905D01*
X368447Y-29753D01*
X368128Y-29600D01*
X367962Y-29544D01*
X367782Y-29503D01*
X367588Y-29475D01*
X367393Y-29461D01*
D02*
G37*
G36*
X353955Y-32984D02*
X353941D01*
X353913Y-32998D01*
X353858Y-33012D01*
X353788Y-33039D01*
X353705Y-33081D01*
X353594Y-33109D01*
X353456Y-33150D01*
X353317Y-33192D01*
X353137Y-33233D01*
X352943Y-33289D01*
X352734Y-33331D01*
X352499Y-33386D01*
X352249Y-33442D01*
X351986Y-33483D01*
X351694Y-33539D01*
X351375Y-33580D01*
X351334D01*
X351278Y-33594D01*
X351223Y-33608D01*
X351043Y-33636D01*
X350835Y-33677D01*
X350613Y-33719D01*
X350391Y-33774D01*
X350183Y-33830D01*
X350002Y-33899D01*
X349989Y-33913D01*
X349933Y-33927D01*
X349864Y-33969D01*
X349781Y-34024D01*
X349670Y-34107D01*
X349572Y-34190D01*
X349475Y-34288D01*
X349378Y-34412D01*
X349365Y-34426D01*
X349351Y-34468D01*
X349309Y-34537D01*
X349281Y-34634D01*
X349240Y-34745D01*
X349198Y-34870D01*
X349184Y-35009D01*
X349170Y-35161D01*
Y-35189D01*
X349184Y-35258D01*
X349198Y-35383D01*
X349226Y-35522D01*
X349281Y-35688D01*
X349365Y-35868D01*
X349489Y-36035D01*
X349642Y-36201D01*
X349670Y-36215D01*
X349725Y-36271D01*
X349836Y-36326D01*
X349989Y-36409D01*
X350183Y-36479D01*
X350432Y-36548D01*
X350710Y-36604D01*
X351029Y-36617D01*
X351181D01*
X351264Y-36604D01*
X351362Y-36590D01*
X351570Y-36562D01*
X351833Y-36520D01*
X352096Y-36451D01*
X352374Y-36354D01*
X352651Y-36229D01*
X352665D01*
X352679Y-36215D01*
X352762Y-36160D01*
X352887Y-36063D01*
X353053Y-35938D01*
X353220Y-35785D01*
X353386Y-35591D01*
X353553Y-35383D01*
X353691Y-35134D01*
X353705Y-35106D01*
X353733Y-35036D01*
X353775Y-34912D01*
X353816Y-34745D01*
X353858Y-34523D01*
X353899Y-34246D01*
X353927Y-33927D01*
X353941Y-33566D01*
X353955Y-32984D01*
D02*
G37*
G36*
X425349Y-29447D02*
X425238D01*
X425169Y-29461D01*
X425072Y-29475D01*
X424975Y-29489D01*
X424711Y-29544D01*
X424434Y-29628D01*
X424115Y-29753D01*
X423963Y-29836D01*
X423810Y-29933D01*
X423657Y-30058D01*
X423519Y-30182D01*
X423505Y-30196D01*
X423491Y-30210D01*
X423449Y-30252D01*
X423408Y-30307D01*
X423352Y-30390D01*
X423283Y-30474D01*
X423214Y-30571D01*
X423144Y-30696D01*
X423075Y-30820D01*
X423006Y-30973D01*
X422867Y-31306D01*
X422770Y-31680D01*
X422742Y-31888D01*
X422714Y-32110D01*
X427901D01*
Y-32096D01*
Y-32055D01*
X427887Y-31999D01*
X427873Y-31916D01*
X427860Y-31819D01*
X427846Y-31708D01*
X427790Y-31458D01*
X427707Y-31167D01*
X427610Y-30876D01*
X427471Y-30598D01*
X427305Y-30363D01*
X427291Y-30349D01*
X427277Y-30321D01*
X427222Y-30280D01*
X427166Y-30224D01*
X427097Y-30155D01*
X427000Y-30071D01*
X426889Y-29988D01*
X426778Y-29905D01*
X426639Y-29822D01*
X426487Y-29739D01*
X426154Y-29586D01*
X425974Y-29531D01*
X425779Y-29489D01*
X425571Y-29461D01*
X425349Y-29447D01*
D02*
G37*
G36*
X382579Y-29461D02*
X382468D01*
X382385Y-29475D01*
X382288Y-29489D01*
X382163Y-29503D01*
X381900Y-29572D01*
X381581Y-29683D01*
X381428Y-29753D01*
X381262Y-29836D01*
X381095Y-29933D01*
X380929Y-30058D01*
X380776Y-30196D01*
X380624Y-30349D01*
X380610Y-30363D01*
X380596Y-30391D01*
X380555Y-30446D01*
X380499Y-30515D01*
X380443Y-30612D01*
X380374Y-30723D01*
X380305Y-30862D01*
X380235Y-31014D01*
X380166Y-31195D01*
X380097Y-31389D01*
X380028Y-31611D01*
X379972Y-31847D01*
X379916Y-32110D01*
X379875Y-32387D01*
X379861Y-32693D01*
X379847Y-33012D01*
Y-33026D01*
Y-33095D01*
Y-33178D01*
X379861Y-33303D01*
X379875Y-33455D01*
X379889Y-33622D01*
X379916Y-33816D01*
X379944Y-34010D01*
X380041Y-34454D01*
X380180Y-34898D01*
X380263Y-35106D01*
X380374Y-35314D01*
X380485Y-35508D01*
X380624Y-35688D01*
X380638Y-35702D01*
X380665Y-35730D01*
X380707Y-35771D01*
X380762Y-35827D01*
X380846Y-35896D01*
X380929Y-35966D01*
X381040Y-36049D01*
X381165Y-36118D01*
X381442Y-36284D01*
X381775Y-36423D01*
X381955Y-36479D01*
X382163Y-36520D01*
X382357Y-36548D01*
X382579Y-36562D01*
X382690D01*
X382773Y-36548D01*
X382870Y-36534D01*
X382995Y-36520D01*
X383259Y-36451D01*
X383564Y-36340D01*
X383730Y-36271D01*
X383897Y-36188D01*
X384049Y-36090D01*
X384216Y-35966D01*
X384368Y-35827D01*
X384521Y-35674D01*
X384535Y-35661D01*
X384549Y-35633D01*
X384590Y-35577D01*
X384646Y-35508D01*
X384701Y-35411D01*
X384771Y-35300D01*
X384840Y-35161D01*
X384923Y-34995D01*
X384992Y-34828D01*
X385062Y-34620D01*
X385131Y-34398D01*
X385187Y-34149D01*
X385242Y-33885D01*
X385284Y-33594D01*
X385298Y-33289D01*
X385311Y-32956D01*
Y-32942D01*
Y-32887D01*
Y-32790D01*
X385298Y-32679D01*
X385284Y-32526D01*
X385270Y-32360D01*
X385242Y-32180D01*
X385214Y-31985D01*
X385117Y-31569D01*
X385062Y-31347D01*
X384978Y-31126D01*
X384881Y-30917D01*
X384784Y-30709D01*
X384660Y-30529D01*
X384521Y-30349D01*
X384507Y-30335D01*
X384479Y-30307D01*
X384438Y-30266D01*
X384382Y-30210D01*
X384299Y-30141D01*
X384216Y-30071D01*
X384105Y-29988D01*
X383994Y-29905D01*
X383703Y-29739D01*
X383370Y-29600D01*
X383190Y-29544D01*
X382995Y-29503D01*
X382787Y-29475D01*
X382579Y-29461D01*
D02*
G37*
G36*
X341834D02*
X341723D01*
X341640Y-29475D01*
X341543Y-29489D01*
X341418Y-29503D01*
X341154Y-29572D01*
X340835Y-29683D01*
X340683Y-29753D01*
X340516Y-29836D01*
X340350Y-29933D01*
X340184Y-30058D01*
X340031Y-30196D01*
X339879Y-30349D01*
X339865Y-30363D01*
X339851Y-30391D01*
X339809Y-30446D01*
X339754Y-30515D01*
X339698Y-30612D01*
X339629Y-30723D01*
X339560Y-30862D01*
X339490Y-31014D01*
X339421Y-31195D01*
X339352Y-31389D01*
X339282Y-31611D01*
X339227Y-31847D01*
X339171Y-32110D01*
X339130Y-32387D01*
X339116Y-32693D01*
X339102Y-33012D01*
Y-33026D01*
Y-33095D01*
Y-33178D01*
X339116Y-33303D01*
X339130Y-33455D01*
X339143Y-33622D01*
X339171Y-33816D01*
X339199Y-34010D01*
X339296Y-34454D01*
X339435Y-34898D01*
X339518Y-35106D01*
X339629Y-35314D01*
X339740Y-35508D01*
X339879Y-35688D01*
X339892Y-35702D01*
X339920Y-35730D01*
X339962Y-35771D01*
X340017Y-35827D01*
X340100Y-35896D01*
X340184Y-35966D01*
X340294Y-36049D01*
X340419Y-36118D01*
X340697Y-36284D01*
X341030Y-36423D01*
X341210Y-36479D01*
X341418Y-36520D01*
X341612Y-36548D01*
X341834Y-36562D01*
X341945D01*
X342028Y-36548D01*
X342125Y-36534D01*
X342250Y-36520D01*
X342514Y-36451D01*
X342819Y-36340D01*
X342985Y-36271D01*
X343151Y-36188D01*
X343304Y-36090D01*
X343470Y-35966D01*
X343623Y-35827D01*
X343775Y-35674D01*
X343789Y-35661D01*
X343803Y-35633D01*
X343845Y-35577D01*
X343900Y-35508D01*
X343956Y-35411D01*
X344025Y-35300D01*
X344095Y-35161D01*
X344178Y-34995D01*
X344247Y-34828D01*
X344316Y-34620D01*
X344386Y-34398D01*
X344441Y-34149D01*
X344497Y-33885D01*
X344538Y-33594D01*
X344552Y-33289D01*
X344566Y-32956D01*
Y-32942D01*
Y-32887D01*
Y-32790D01*
X344552Y-32679D01*
X344538Y-32526D01*
X344524Y-32360D01*
X344497Y-32180D01*
X344469Y-31985D01*
X344372Y-31569D01*
X344316Y-31347D01*
X344233Y-31126D01*
X344136Y-30917D01*
X344039Y-30709D01*
X343914Y-30529D01*
X343775Y-30349D01*
X343762Y-30335D01*
X343734Y-30307D01*
X343692Y-30266D01*
X343637Y-30210D01*
X343554Y-30141D01*
X343470Y-30071D01*
X343359Y-29988D01*
X343248Y-29905D01*
X342957Y-29739D01*
X342624Y-29600D01*
X342444Y-29544D01*
X342250Y-29503D01*
X342042Y-29475D01*
X341834Y-29461D01*
D02*
G37*
G36*
X332084Y-29447D02*
X331987D01*
X331918Y-29461D01*
X331821Y-29475D01*
X331724Y-29489D01*
X331474Y-29558D01*
X331197Y-29669D01*
X331058Y-29739D01*
X330906Y-29822D01*
X330753Y-29933D01*
X330601Y-30058D01*
X330448Y-30196D01*
X330309Y-30349D01*
X330295Y-30363D01*
X330281Y-30391D01*
X330240Y-30446D01*
X330198Y-30515D01*
X330143Y-30612D01*
X330074Y-30723D01*
X330004Y-30862D01*
X329935Y-31014D01*
X329865Y-31181D01*
X329796Y-31375D01*
X329741Y-31597D01*
X329671Y-31819D01*
X329630Y-32069D01*
X329588Y-32346D01*
X329574Y-32637D01*
X329560Y-32942D01*
Y-32956D01*
Y-33012D01*
Y-33095D01*
X329574Y-33220D01*
Y-33344D01*
X329588Y-33511D01*
X329602Y-33677D01*
X329616Y-33871D01*
X329671Y-34260D01*
X329754Y-34662D01*
X329796Y-34856D01*
X329852Y-35036D01*
X329921Y-35203D01*
X330004Y-35355D01*
X330018Y-35369D01*
X330046Y-35411D01*
X330087Y-35466D01*
X330143Y-35549D01*
X330212Y-35633D01*
X330309Y-35730D01*
X330420Y-35841D01*
X330531Y-35952D01*
X330670Y-36077D01*
X330822Y-36174D01*
X330989Y-36284D01*
X331169Y-36368D01*
X331363Y-36451D01*
X331571Y-36506D01*
X331779Y-36548D01*
X332015Y-36562D01*
X332112D01*
X332182Y-36548D01*
X332279Y-36534D01*
X332376Y-36520D01*
X332625Y-36451D01*
X332903Y-36340D01*
X333041Y-36271D01*
X333194Y-36188D01*
X333346Y-36090D01*
X333499Y-35966D01*
X333652Y-35827D01*
X333790Y-35674D01*
X333804Y-35661D01*
X333818Y-35633D01*
X333860Y-35577D01*
X333915Y-35508D01*
X333970Y-35411D01*
X334026Y-35300D01*
X334095Y-35161D01*
X334179Y-34995D01*
X334248Y-34828D01*
X334317Y-34620D01*
X334373Y-34398D01*
X334428Y-34163D01*
X334484Y-33899D01*
X334525Y-33622D01*
X334539Y-33317D01*
X334553Y-32998D01*
Y-32970D01*
Y-32915D01*
Y-32817D01*
X334539Y-32706D01*
X334525Y-32554D01*
X334511Y-32374D01*
X334497Y-32180D01*
X334470Y-31985D01*
X334373Y-31542D01*
X334248Y-31098D01*
X334165Y-30890D01*
X334068Y-30682D01*
X333957Y-30487D01*
X333832Y-30321D01*
X333818Y-30307D01*
X333804Y-30280D01*
X333763Y-30238D01*
X333707Y-30182D01*
X333638Y-30113D01*
X333554Y-30044D01*
X333346Y-29877D01*
X333083Y-29725D01*
X332792Y-29586D01*
X332625Y-29531D01*
X332459Y-29489D01*
X332279Y-29461D01*
X332084Y-29447D01*
D02*
G37*
G36*
X311032Y-29461D02*
X310921D01*
X310838Y-29475D01*
X310741Y-29489D01*
X310616Y-29503D01*
X310353Y-29572D01*
X310034Y-29683D01*
X309881Y-29753D01*
X309715Y-29836D01*
X309548Y-29933D01*
X309382Y-30058D01*
X309229Y-30196D01*
X309077Y-30349D01*
X309063Y-30363D01*
X309049Y-30391D01*
X309007Y-30446D01*
X308952Y-30515D01*
X308897Y-30612D01*
X308827Y-30723D01*
X308758Y-30862D01*
X308688Y-31014D01*
X308619Y-31195D01*
X308550Y-31389D01*
X308480Y-31611D01*
X308425Y-31847D01*
X308370Y-32110D01*
X308328Y-32387D01*
X308314Y-32693D01*
X308300Y-33012D01*
Y-33026D01*
Y-33095D01*
Y-33178D01*
X308314Y-33303D01*
X308328Y-33455D01*
X308342Y-33622D01*
X308370Y-33816D01*
X308397Y-34010D01*
X308494Y-34454D01*
X308633Y-34898D01*
X308716Y-35106D01*
X308827Y-35314D01*
X308938Y-35508D01*
X309077Y-35688D01*
X309091Y-35702D01*
X309118Y-35730D01*
X309160Y-35771D01*
X309215Y-35827D01*
X309299Y-35896D01*
X309382Y-35966D01*
X309493Y-36049D01*
X309618Y-36118D01*
X309895Y-36284D01*
X310228Y-36423D01*
X310408Y-36479D01*
X310616Y-36520D01*
X310810Y-36548D01*
X311032Y-36562D01*
X311143D01*
X311226Y-36548D01*
X311323Y-36534D01*
X311448Y-36520D01*
X311712Y-36451D01*
X312017Y-36340D01*
X312183Y-36271D01*
X312350Y-36188D01*
X312502Y-36090D01*
X312669Y-35966D01*
X312821Y-35827D01*
X312974Y-35674D01*
X312988Y-35661D01*
X313001Y-35633D01*
X313043Y-35577D01*
X313099Y-35508D01*
X313154Y-35411D01*
X313223Y-35300D01*
X313293Y-35161D01*
X313376Y-34995D01*
X313445Y-34828D01*
X313515Y-34620D01*
X313584Y-34398D01*
X313640Y-34149D01*
X313695Y-33885D01*
X313736Y-33594D01*
X313750Y-33289D01*
X313764Y-32956D01*
Y-32942D01*
Y-32887D01*
Y-32790D01*
X313750Y-32679D01*
X313736Y-32526D01*
X313723Y-32360D01*
X313695Y-32180D01*
X313667Y-31985D01*
X313570Y-31569D01*
X313515Y-31347D01*
X313431Y-31126D01*
X313334Y-30917D01*
X313237Y-30709D01*
X313113Y-30529D01*
X312974Y-30349D01*
X312960Y-30335D01*
X312932Y-30307D01*
X312891Y-30266D01*
X312835Y-30210D01*
X312752Y-30141D01*
X312669Y-30071D01*
X312558Y-29988D01*
X312447Y-29905D01*
X312155Y-29739D01*
X311823Y-29600D01*
X311642Y-29544D01*
X311448Y-29503D01*
X311240Y-29475D01*
X311032Y-29461D01*
D02*
G37*
G36*
X268304D02*
X268193D01*
X268109Y-29475D01*
X268012Y-29489D01*
X267888Y-29503D01*
X267624Y-29572D01*
X267305Y-29683D01*
X267153Y-29753D01*
X266986Y-29836D01*
X266820Y-29933D01*
X266653Y-30058D01*
X266501Y-30196D01*
X266348Y-30349D01*
X266334Y-30363D01*
X266320Y-30391D01*
X266279Y-30446D01*
X266223Y-30515D01*
X266168Y-30612D01*
X266099Y-30723D01*
X266029Y-30862D01*
X265960Y-31014D01*
X265891Y-31195D01*
X265821Y-31389D01*
X265752Y-31611D01*
X265696Y-31847D01*
X265641Y-32110D01*
X265599Y-32387D01*
X265585Y-32693D01*
X265572Y-33012D01*
Y-33026D01*
Y-33095D01*
Y-33178D01*
X265585Y-33303D01*
X265599Y-33455D01*
X265613Y-33622D01*
X265641Y-33816D01*
X265669Y-34010D01*
X265766Y-34454D01*
X265904Y-34898D01*
X265988Y-35106D01*
X266099Y-35314D01*
X266210Y-35508D01*
X266348Y-35688D01*
X266362Y-35702D01*
X266390Y-35730D01*
X266431Y-35771D01*
X266487Y-35827D01*
X266570Y-35896D01*
X266653Y-35966D01*
X266764Y-36049D01*
X266889Y-36118D01*
X267166Y-36284D01*
X267499Y-36423D01*
X267680Y-36479D01*
X267888Y-36520D01*
X268082Y-36548D01*
X268304Y-36562D01*
X268415D01*
X268498Y-36548D01*
X268595Y-36534D01*
X268720Y-36520D01*
X268983Y-36451D01*
X269288Y-36340D01*
X269455Y-36271D01*
X269621Y-36188D01*
X269774Y-36090D01*
X269940Y-35966D01*
X270093Y-35827D01*
X270245Y-35674D01*
X270259Y-35661D01*
X270273Y-35633D01*
X270315Y-35577D01*
X270370Y-35508D01*
X270425Y-35411D01*
X270495Y-35300D01*
X270564Y-35161D01*
X270647Y-34995D01*
X270717Y-34828D01*
X270786Y-34620D01*
X270855Y-34398D01*
X270911Y-34149D01*
X270966Y-33885D01*
X271008Y-33594D01*
X271022Y-33289D01*
X271036Y-32956D01*
Y-32942D01*
Y-32887D01*
Y-32790D01*
X271022Y-32679D01*
X271008Y-32526D01*
X270994Y-32360D01*
X270966Y-32180D01*
X270939Y-31985D01*
X270842Y-31569D01*
X270786Y-31347D01*
X270703Y-31126D01*
X270606Y-30917D01*
X270509Y-30709D01*
X270384Y-30529D01*
X270245Y-30349D01*
X270231Y-30335D01*
X270204Y-30307D01*
X270162Y-30266D01*
X270107Y-30210D01*
X270023Y-30141D01*
X269940Y-30071D01*
X269829Y-29988D01*
X269718Y-29905D01*
X269427Y-29739D01*
X269094Y-29600D01*
X268914Y-29544D01*
X268720Y-29503D01*
X268512Y-29475D01*
X268304Y-29461D01*
D02*
G37*
G36*
X204759Y-29447D02*
X204648D01*
X204578Y-29461D01*
X204481Y-29475D01*
X204384Y-29489D01*
X204121Y-29544D01*
X203843Y-29628D01*
X203524Y-29753D01*
X203372Y-29836D01*
X203219Y-29933D01*
X203067Y-30058D01*
X202928Y-30182D01*
X202914Y-30196D01*
X202900Y-30210D01*
X202859Y-30252D01*
X202817Y-30307D01*
X202762Y-30391D01*
X202692Y-30474D01*
X202623Y-30571D01*
X202554Y-30696D01*
X202484Y-30820D01*
X202415Y-30973D01*
X202276Y-31306D01*
X202179Y-31680D01*
X202151Y-31888D01*
X202124Y-32110D01*
X207310D01*
Y-32096D01*
Y-32055D01*
X207297Y-31999D01*
X207283Y-31916D01*
X207269Y-31819D01*
X207255Y-31708D01*
X207199Y-31458D01*
X207116Y-31167D01*
X207019Y-30876D01*
X206880Y-30598D01*
X206714Y-30363D01*
X206700Y-30349D01*
X206686Y-30321D01*
X206631Y-30280D01*
X206575Y-30224D01*
X206506Y-30155D01*
X206409Y-30071D01*
X206298Y-29988D01*
X206187Y-29905D01*
X206048Y-29822D01*
X205896Y-29739D01*
X205563Y-29586D01*
X205383Y-29531D01*
X205189Y-29489D01*
X204981Y-29461D01*
X204759Y-29447D01*
D02*
G37*
%LPD*%
M02*
