G04*
G04 #@! TF.GenerationSoftware,Altium Limited,Altium Designer,23.8.1 (32)*
G04*
G04 Layer_Color=16711935*
%FSLAX44Y44*%
%MOMM*%
G71*
G04*
G04 #@! TF.SameCoordinates,734B7F2F-E986-4DD8-8F6E-206143954E38*
G04*
G04*
G04 #@! TF.FilePolarity,Positive*
G04*
G01*
G75*
%ADD16C,0.1270*%
D16*
X528436Y346994D02*
G03*
X550435Y346994I10999J100D01*
G01*
X614435Y308852D02*
G03*
X611506Y315923I-10000J-0D01*
G01*
X614435Y308852D02*
G03*
X611506Y315923I-10000J-0D01*
G01*
X583364Y344065D02*
G03*
X576293Y346994I-7071J-7071D01*
G01*
X4431Y347031D02*
G03*
X-15569Y327031I0J-20000D01*
G01*
X-15565Y6998D02*
G03*
X4431Y-13006I20000J-4D01*
G01*
X611506Y18065D02*
G03*
X614435Y25136I-7071J7071D01*
G01*
X566257Y-22996D02*
G03*
X573328Y-20067I-0J10000D01*
G01*
X566283Y-23031D02*
G03*
X573354Y-20103I-0J10000D01*
G01*
X566283Y-23031D02*
G03*
X573354Y-20103I-0J10000D01*
G01*
X611532Y18030D02*
G03*
X614461Y25101I-7071J7071D01*
G01*
X-15539Y6963D02*
G03*
X4457Y-13042I20000J-4D01*
G01*
X528461Y346958D02*
G03*
X550460Y346958I10999J100D01*
G01*
X528461D02*
G03*
X550460Y346958I10999J100D01*
G01*
X614461Y308816D02*
G03*
X611532Y315887I-10000J-0D01*
G01*
X-15539Y6963D02*
G03*
X4457Y-13042I20000J-4D01*
G01*
X611532Y18030D02*
G03*
X614461Y25101I-7071J7071D01*
G01*
X583390Y344030D02*
G03*
X576319Y346958I-7071J-7071D01*
G01*
X583390Y344030D02*
G03*
X576319Y346958I-7071J-7071D01*
G01*
X4457Y346996D02*
G03*
X-15543Y326996I0J-20000D01*
G01*
X4457Y346996D02*
G03*
X-15543Y326996I0J-20000D01*
G01*
X-15565Y242144D02*
X4435D01*
X550435Y346994D02*
X576293D01*
X4431Y347031D02*
X4435Y346994D01*
X-15565Y242144D02*
Y326994D01*
Y92144D02*
X4435D01*
X-15565Y6998D02*
Y92144D01*
X4435D02*
Y242144D01*
X566257Y-23006D02*
Y-22996D01*
X573351Y-20090D02*
X583364Y-10077D01*
X573328Y-20067D02*
X573351Y-20090D01*
X573354Y-20103D02*
X573377Y-20126D01*
X4457Y346996D02*
X4461Y346958D01*
X583390Y-10113D02*
X611532Y18030D01*
X583390Y344030D02*
X611532Y315887D01*
X566283Y-23042D02*
Y-23031D01*
X311461Y-13042D02*
X321461Y-23042D01*
X614461Y25101D02*
Y308816D01*
X321461Y-23042D02*
X566283D01*
X4457Y-13042D02*
X311461D01*
X-15543Y326996D02*
X-15539Y326959D01*
X4461Y346958D02*
X528461D01*
M02*
