G04*
G04 #@! TF.GenerationSoftware,Altium Limited,Altium Designer,23.8.1 (32)*
G04*
G04 Layer_Color=16711935*
%FSLAX44Y44*%
%MOMM*%
G71*
G04*
G04 #@! TF.SameCoordinates,734B7F2F-E986-4DD8-8F6E-206143954E38*
G04*
G04*
G04 #@! TF.FilePolarity,Negative*
G04*
G01*
G75*
%ADD48R,0.4000X0.9000*%
%ADD58R,0.6516X0.5516*%
%ADD60R,0.6216X0.6216*%
%ADD61R,0.6216X0.6216*%
%ADD67C,0.8516*%
%ADD68R,0.5516X0.6516*%
%ADD71R,0.9016X2.1016*%
%ADD72R,0.4200X0.6400*%
%ADD73R,1.7400X1.0400*%
%ADD74R,1.0016X0.8016*%
%ADD75R,1.0016X1.1016*%
%ADD76R,0.8016X1.0016*%
%ADD77R,1.4016X1.6016*%
%ADD83R,1.3016X1.1016*%
%ADD88R,1.1016X1.0016*%
%ADD91R,0.7516X0.6516*%
%ADD97C,2.0000*%
%ADD98C,0.6016*%
%ADD99O,1.0016X1.4016*%
%ADD100C,5.4000*%
%ADD101C,1.4016*%
%ADD102C,3.8016*%
%ADD103C,0.8524*%
%ADD104C,1.0524*%
%ADD105C,4.4032*%
%ADD106C,0.6080*%
%ADD107C,0.5020*%
%ADD135R,0.6000X0.5500*%
%ADD136R,0.6000X0.9000*%
%ADD168R,0.7000X0.6220*%
%ADD169R,0.6220X0.7000*%
%ADD170R,0.7216X0.7216*%
G04:AMPARAMS|DCode=171|XSize=0.6516mm|YSize=0.6016mm|CornerRadius=0.1133mm|HoleSize=0mm|Usage=FLASHONLY|Rotation=270.000|XOffset=0mm|YOffset=0mm|HoleType=Round|Shape=RoundedRectangle|*
%AMROUNDEDRECTD171*
21,1,0.6516,0.3750,0,0,270.0*
21,1,0.4250,0.6016,0,0,270.0*
1,1,0.2266,-0.1875,-0.2125*
1,1,0.2266,-0.1875,0.2125*
1,1,0.2266,0.1875,0.2125*
1,1,0.2266,0.1875,-0.2125*
%
%ADD171ROUNDEDRECTD171*%
G04:AMPARAMS|DCode=172|XSize=0.6516mm|YSize=0.9016mm|CornerRadius=0.1003mm|HoleSize=0mm|Usage=FLASHONLY|Rotation=90.000|XOffset=0mm|YOffset=0mm|HoleType=Round|Shape=RoundedRectangle|*
%AMROUNDEDRECTD172*
21,1,0.6516,0.7010,0,0,90.0*
21,1,0.4510,0.9016,0,0,90.0*
1,1,0.2006,0.3505,0.2255*
1,1,0.2006,0.3505,-0.2255*
1,1,0.2006,-0.3505,-0.2255*
1,1,0.2006,-0.3505,0.2255*
%
%ADD172ROUNDEDRECTD172*%
%ADD173R,0.4016X0.8116*%
%ADD174R,0.8016X0.2816*%
%ADD175R,0.4066X1.5066*%
%ADD176R,1.1016X1.1016*%
%ADD177R,0.6516X0.3216*%
%ADD178R,0.6516X0.8516*%
%ADD179R,2.1524X2.6524*%
%ADD180R,2.6524X0.5024*%
%ADD181R,1.0000X0.5000*%
%ADD182R,0.6516X0.7516*%
%ADD183R,0.9000X1.1000*%
%ADD184R,1.6000X0.9000*%
%ADD185R,0.9000X1.2000*%
%ADD186R,0.7516X0.7516*%
%ADD187R,0.7216X0.7216*%
%ADD188R,1.3516X2.4016*%
%ADD189R,2.7516X1.2016*%
%ADD190R,2.0516X1.7016*%
%ADD191C,2.8000*%
G36*
X30432Y279612D02*
X30863Y279580D01*
X31292Y279526D01*
X31718Y279451D01*
X32140Y279354D01*
X32556Y279237D01*
X32966Y279099D01*
X33368Y278940D01*
X33762Y278762D01*
X34146Y278564D01*
X34520Y278347D01*
X34883Y278112D01*
X35234Y277859D01*
X35571Y277588D01*
X35922Y277276D01*
X33094Y274447D01*
X32936Y274581D01*
X32757Y274720D01*
X32571Y274851D01*
X32379Y274972D01*
X32181Y275083D01*
X31978Y275185D01*
X31770Y275276D01*
X31558Y275358D01*
X31343Y275429D01*
X31124Y275489D01*
X30902Y275538D01*
X30679Y275577D01*
X30453Y275605D01*
X30227Y275621D01*
X30000Y275627D01*
X29773Y275621D01*
X29547Y275605D01*
X29321Y275577D01*
X29098Y275538D01*
X28876Y275489D01*
X28657Y275429D01*
X28442Y275358D01*
X28230Y275276D01*
X28022Y275185D01*
X27819Y275083D01*
X27621Y274972D01*
X27429Y274851D01*
X27243Y274720D01*
X27064Y274581D01*
X26906Y274447D01*
X24078Y277276D01*
X24429Y277588D01*
X24766Y277859D01*
X25117Y278112D01*
X25480Y278347D01*
X25854Y278564D01*
X26238Y278762D01*
X26632Y278940D01*
X27034Y279099D01*
X27444Y279237D01*
X27860Y279354D01*
X28282Y279451D01*
X28708Y279526D01*
X29137Y279580D01*
X29568Y279612D01*
X30000Y279623D01*
X30432Y279612D01*
D02*
G37*
G36*
X35922Y264724D02*
X35571Y264412D01*
X35234Y264141D01*
X34883Y263888D01*
X34520Y263653D01*
X34146Y263436D01*
X33762Y263238D01*
X33368Y263060D01*
X32966Y262901D01*
X32556Y262763D01*
X32140Y262646D01*
X31718Y262549D01*
X31292Y262474D01*
X30863Y262420D01*
X30432Y262388D01*
X30000Y262377D01*
X29568Y262388D01*
X29137Y262420D01*
X28708Y262474D01*
X28282Y262549D01*
X27860Y262646D01*
X27444Y262763D01*
X27034Y262901D01*
X26632Y263060D01*
X26238Y263238D01*
X25854Y263436D01*
X25480Y263653D01*
X25117Y263888D01*
X24766Y264141D01*
X24429Y264412D01*
X24078Y264724D01*
X26906Y267553D01*
X27064Y267419D01*
X27243Y267279D01*
X27429Y267149D01*
X27621Y267028D01*
X27819Y266917D01*
X28022Y266815D01*
X28230Y266724D01*
X28442Y266642D01*
X28657Y266571D01*
X28876Y266511D01*
X29098Y266462D01*
X29321Y266423D01*
X29547Y266395D01*
X29773Y266379D01*
X30000Y266373D01*
X30227Y266379D01*
X30453Y266395D01*
X30679Y266423D01*
X30902Y266462D01*
X31124Y266511D01*
X31343Y266571D01*
X31558Y266642D01*
X31770Y266724D01*
X31978Y266815D01*
X32181Y266917D01*
X32379Y267028D01*
X32571Y267149D01*
X32757Y267279D01*
X32936Y267419D01*
X33094Y267553D01*
X35922Y264724D01*
D02*
G37*
G36*
X36588Y276571D02*
X36859Y276234D01*
X37112Y275883D01*
X37347Y275520D01*
X37564Y275146D01*
X37762Y274762D01*
X37940Y274368D01*
X38099Y273965D01*
X38237Y273556D01*
X38354Y273140D01*
X38451Y272718D01*
X38526Y272292D01*
X38580Y271863D01*
X38612Y271432D01*
X38623Y271000D01*
X38612Y270568D01*
X38580Y270137D01*
X38526Y269708D01*
X38451Y269282D01*
X38354Y268860D01*
X38237Y268444D01*
X38099Y268034D01*
X37940Y267632D01*
X37762Y267238D01*
X37564Y266854D01*
X37347Y266480D01*
X37112Y266117D01*
X36859Y265767D01*
X36588Y265429D01*
X36276Y265078D01*
X33447Y267906D01*
X33581Y268064D01*
X33721Y268243D01*
X33851Y268429D01*
X33972Y268621D01*
X34083Y268819D01*
X34185Y269022D01*
X34276Y269230D01*
X34358Y269442D01*
X34429Y269657D01*
X34489Y269876D01*
X34538Y270098D01*
X34577Y270321D01*
X34605Y270547D01*
X34621Y270773D01*
X34627Y271000D01*
X34621Y271227D01*
X34605Y271453D01*
X34577Y271679D01*
X34538Y271902D01*
X34489Y272124D01*
X34429Y272343D01*
X34358Y272558D01*
X34276Y272770D01*
X34185Y272978D01*
X34083Y273181D01*
X33972Y273379D01*
X33851Y273571D01*
X33721Y273757D01*
X33581Y273936D01*
X33447Y274094D01*
X36276Y276922D01*
X36588Y276571D01*
D02*
G37*
G36*
X26553Y274094D02*
X26419Y273936D01*
X26280Y273757D01*
X26149Y273571D01*
X26028Y273379D01*
X25917Y273181D01*
X25815Y272978D01*
X25724Y272770D01*
X25642Y272558D01*
X25571Y272343D01*
X25511Y272124D01*
X25462Y271902D01*
X25423Y271679D01*
X25395Y271453D01*
X25379Y271227D01*
X25373Y271000D01*
X25379Y270773D01*
X25395Y270547D01*
X25423Y270321D01*
X25462Y270098D01*
X25511Y269876D01*
X25571Y269657D01*
X25642Y269442D01*
X25724Y269230D01*
X25815Y269022D01*
X25917Y268819D01*
X26028Y268621D01*
X26149Y268429D01*
X26280Y268243D01*
X26419Y268064D01*
X26553Y267906D01*
X23724Y265078D01*
X23412Y265429D01*
X23141Y265767D01*
X22888Y266117D01*
X22653Y266480D01*
X22436Y266854D01*
X22238Y267238D01*
X22060Y267632D01*
X21901Y268034D01*
X21763Y268444D01*
X21646Y268860D01*
X21549Y269282D01*
X21474Y269708D01*
X21420Y270137D01*
X21388Y270568D01*
X21377Y271000D01*
X21388Y271432D01*
X21420Y271863D01*
X21474Y272292D01*
X21549Y272718D01*
X21646Y273140D01*
X21763Y273556D01*
X21901Y273965D01*
X22060Y274368D01*
X22238Y274762D01*
X22436Y275146D01*
X22653Y275520D01*
X22888Y275883D01*
X23141Y276234D01*
X23412Y276571D01*
X23724Y276922D01*
X26553Y274094D01*
D02*
G37*
G36*
X539232Y279612D02*
X539663Y279580D01*
X540092Y279526D01*
X540518Y279451D01*
X540940Y279354D01*
X541356Y279237D01*
X541766Y279099D01*
X542168Y278940D01*
X542562Y278762D01*
X542946Y278564D01*
X543320Y278347D01*
X543683Y278112D01*
X544034Y277859D01*
X544371Y277588D01*
X544722Y277276D01*
X541894Y274447D01*
X541736Y274581D01*
X541557Y274720D01*
X541371Y274851D01*
X541179Y274972D01*
X540981Y275083D01*
X540778Y275185D01*
X540570Y275276D01*
X540358Y275358D01*
X540143Y275429D01*
X539924Y275489D01*
X539702Y275538D01*
X539479Y275577D01*
X539253Y275605D01*
X539027Y275621D01*
X538800Y275627D01*
X538573Y275621D01*
X538347Y275605D01*
X538121Y275577D01*
X537898Y275538D01*
X537676Y275489D01*
X537457Y275429D01*
X537242Y275358D01*
X537030Y275276D01*
X536822Y275185D01*
X536619Y275083D01*
X536421Y274972D01*
X536229Y274851D01*
X536043Y274720D01*
X535864Y274581D01*
X535706Y274447D01*
X532878Y277276D01*
X533229Y277588D01*
X533567Y277859D01*
X533917Y278112D01*
X534280Y278347D01*
X534654Y278564D01*
X535038Y278762D01*
X535432Y278940D01*
X535835Y279099D01*
X536244Y279237D01*
X536660Y279354D01*
X537082Y279451D01*
X537508Y279526D01*
X537937Y279580D01*
X538368Y279612D01*
X538800Y279623D01*
X539232Y279612D01*
D02*
G37*
G36*
X544722Y264724D02*
X544371Y264412D01*
X544034Y264141D01*
X543683Y263888D01*
X543320Y263653D01*
X542946Y263436D01*
X542562Y263238D01*
X542168Y263060D01*
X541766Y262901D01*
X541356Y262763D01*
X540940Y262646D01*
X540518Y262549D01*
X540092Y262474D01*
X539663Y262420D01*
X539232Y262388D01*
X538800Y262377D01*
X538368Y262388D01*
X537937Y262420D01*
X537508Y262474D01*
X537082Y262549D01*
X536660Y262646D01*
X536244Y262763D01*
X535835Y262901D01*
X535432Y263060D01*
X535038Y263238D01*
X534654Y263436D01*
X534280Y263653D01*
X533917Y263888D01*
X533567Y264141D01*
X533229Y264412D01*
X532878Y264724D01*
X535706Y267553D01*
X535864Y267419D01*
X536043Y267280D01*
X536229Y267149D01*
X536421Y267028D01*
X536619Y266917D01*
X536822Y266815D01*
X537030Y266724D01*
X537242Y266642D01*
X537457Y266571D01*
X537676Y266511D01*
X537898Y266462D01*
X538121Y266423D01*
X538347Y266395D01*
X538573Y266379D01*
X538800Y266373D01*
X539027Y266379D01*
X539253Y266395D01*
X539479Y266423D01*
X539702Y266462D01*
X539924Y266511D01*
X540143Y266571D01*
X540358Y266642D01*
X540570Y266724D01*
X540778Y266815D01*
X540981Y266917D01*
X541179Y267028D01*
X541371Y267149D01*
X541557Y267280D01*
X541736Y267419D01*
X541894Y267553D01*
X544722Y264724D01*
D02*
G37*
G36*
X545388Y276571D02*
X545658Y276234D01*
X545912Y275883D01*
X546147Y275520D01*
X546364Y275146D01*
X546562Y274762D01*
X546740Y274368D01*
X546899Y273965D01*
X547037Y273556D01*
X547154Y273140D01*
X547251Y272718D01*
X547326Y272292D01*
X547380Y271863D01*
X547412Y271432D01*
X547423Y271000D01*
X547412Y270568D01*
X547380Y270137D01*
X547326Y269708D01*
X547251Y269282D01*
X547154Y268860D01*
X547037Y268444D01*
X546899Y268034D01*
X546740Y267632D01*
X546562Y267238D01*
X546364Y266854D01*
X546147Y266480D01*
X545912Y266117D01*
X545658Y265767D01*
X545388Y265429D01*
X545075Y265078D01*
X542247Y267906D01*
X542381Y268064D01*
X542520Y268243D01*
X542651Y268429D01*
X542772Y268621D01*
X542883Y268819D01*
X542985Y269022D01*
X543076Y269230D01*
X543158Y269442D01*
X543229Y269657D01*
X543289Y269876D01*
X543338Y270098D01*
X543377Y270321D01*
X543405Y270547D01*
X543421Y270773D01*
X543427Y271000D01*
X543421Y271227D01*
X543405Y271453D01*
X543377Y271679D01*
X543338Y271902D01*
X543289Y272124D01*
X543229Y272343D01*
X543158Y272558D01*
X543076Y272770D01*
X542985Y272978D01*
X542883Y273181D01*
X542772Y273379D01*
X542651Y273571D01*
X542520Y273757D01*
X542381Y273936D01*
X542247Y274094D01*
X545075Y276922D01*
X545388Y276571D01*
D02*
G37*
G36*
X535353Y274094D02*
X535219Y273936D01*
X535079Y273757D01*
X534949Y273571D01*
X534828Y273379D01*
X534717Y273181D01*
X534615Y272978D01*
X534524Y272770D01*
X534442Y272558D01*
X534371Y272343D01*
X534311Y272124D01*
X534262Y271902D01*
X534223Y271679D01*
X534195Y271453D01*
X534179Y271227D01*
X534173Y271000D01*
X534179Y270773D01*
X534195Y270547D01*
X534223Y270321D01*
X534262Y270098D01*
X534311Y269876D01*
X534371Y269657D01*
X534442Y269442D01*
X534524Y269230D01*
X534615Y269022D01*
X534717Y268819D01*
X534828Y268621D01*
X534949Y268429D01*
X535079Y268243D01*
X535219Y268064D01*
X535353Y267906D01*
X532524Y265078D01*
X532212Y265429D01*
X531941Y265767D01*
X531688Y266117D01*
X531453Y266480D01*
X531236Y266854D01*
X531038Y267238D01*
X530860Y267632D01*
X530701Y268034D01*
X530563Y268444D01*
X530446Y268860D01*
X530349Y269282D01*
X530274Y269708D01*
X530220Y270137D01*
X530188Y270568D01*
X530177Y271000D01*
X530188Y271432D01*
X530220Y271863D01*
X530274Y272292D01*
X530349Y272718D01*
X530446Y273140D01*
X530563Y273556D01*
X530701Y273965D01*
X530860Y274368D01*
X531038Y274762D01*
X531236Y275146D01*
X531453Y275520D01*
X531688Y275883D01*
X531941Y276234D01*
X532212Y276571D01*
X532524Y276922D01*
X535353Y274094D01*
D02*
G37*
D48*
X147500Y186500D02*
D03*
X152500D02*
D03*
X157500D02*
D03*
X162500D02*
D03*
X147500Y155500D02*
D03*
X152500D02*
D03*
X157500D02*
D03*
X162500D02*
D03*
D58*
X369062Y89988D02*
D03*
X369062Y98988D02*
D03*
X369062Y115752D02*
D03*
Y106752D02*
D03*
X265669Y273884D02*
D03*
Y282884D02*
D03*
X257810Y282884D02*
D03*
Y273884D02*
D03*
X249682Y282884D02*
D03*
Y273884D02*
D03*
X241554D02*
D03*
Y282884D02*
D03*
X233426Y273884D02*
D03*
Y282884D02*
D03*
X225552Y282884D02*
D03*
Y273884D02*
D03*
X71882Y159948D02*
D03*
Y150948D02*
D03*
X171958Y172140D02*
D03*
X171958Y163140D02*
D03*
X137000Y161958D02*
D03*
Y170958D02*
D03*
X173990Y192714D02*
D03*
Y183714D02*
D03*
X183598Y202500D02*
D03*
X183598Y193500D02*
D03*
X367851Y282602D02*
D03*
Y291602D02*
D03*
D60*
X76200Y49848D02*
D03*
Y57848D02*
D03*
X64008Y173132D02*
D03*
Y165132D02*
D03*
X367851Y299852D02*
D03*
X367851Y307852D02*
D03*
X411101Y297852D02*
D03*
X411101Y305852D02*
D03*
X369324Y65000D02*
D03*
Y73000D02*
D03*
X378000Y73000D02*
D03*
Y65000D02*
D03*
X50740Y301910D02*
D03*
Y293910D02*
D03*
X517000Y283000D02*
D03*
Y291000D02*
D03*
D61*
X261323Y213337D02*
D03*
X269323D02*
D03*
X266002Y191008D02*
D03*
X274002D02*
D03*
X157600Y198458D02*
D03*
X149600D02*
D03*
X152000Y144000D02*
D03*
X160000D02*
D03*
X20446Y237732D02*
D03*
X28446Y237732D02*
D03*
X343980Y260604D02*
D03*
X351980D02*
D03*
Y251460D02*
D03*
X343980D02*
D03*
X20446Y229602D02*
D03*
X28446Y229602D02*
D03*
X60622Y231314D02*
D03*
X52622D02*
D03*
X28446Y245872D02*
D03*
X20446D02*
D03*
X52622Y239188D02*
D03*
X60622Y239188D02*
D03*
D67*
X403102Y319852D02*
D03*
X419100Y330557D02*
D03*
X342000Y218000D02*
D03*
X370332Y2286D02*
D03*
D68*
X213835Y87030D02*
D03*
X222835D02*
D03*
X213835Y78102D02*
D03*
X222835D02*
D03*
X213846Y96478D02*
D03*
X222846Y96478D02*
D03*
D71*
X388102Y325852D02*
D03*
X368102D02*
D03*
D72*
X391538Y287102D02*
D03*
X386538D02*
D03*
X381538D02*
D03*
X376538D02*
D03*
X391538Y306102D02*
D03*
X386538D02*
D03*
X381538Y306102D02*
D03*
X376538D02*
D03*
D73*
X384038Y296602D02*
D03*
D74*
X243840Y195468D02*
D03*
Y181468D02*
D03*
X236227Y204182D02*
D03*
X236227Y218182D02*
D03*
X60706Y294910D02*
D03*
Y308910D02*
D03*
X506000Y290520D02*
D03*
Y276520D02*
D03*
D75*
X87504Y41656D02*
D03*
X103504Y41656D02*
D03*
X475000Y290406D02*
D03*
X491000D02*
D03*
D76*
X226882Y193500D02*
D03*
X212882Y193500D02*
D03*
D77*
X336500Y59000D02*
D03*
X355500D02*
D03*
X351500Y235000D02*
D03*
X332500D02*
D03*
X2438Y74676D02*
D03*
X21438D02*
D03*
D83*
X257496Y17390D02*
D03*
Y390D02*
D03*
X313496Y17390D02*
D03*
Y390D02*
D03*
X54804Y19930D02*
D03*
Y2930D02*
D03*
X110804Y19930D02*
D03*
Y2930D02*
D03*
D88*
X343662Y288182D02*
D03*
Y304182D02*
D03*
X437293Y311836D02*
D03*
Y327836D02*
D03*
D91*
X168562Y109900D02*
D03*
X168562Y99900D02*
D03*
X178562Y99900D02*
D03*
Y109900D02*
D03*
X148562Y75478D02*
D03*
X148562Y85478D02*
D03*
X168562Y75478D02*
D03*
X168562Y85478D02*
D03*
X178562Y75478D02*
D03*
Y85478D02*
D03*
X188562Y99900D02*
D03*
Y109900D02*
D03*
X198562Y99900D02*
D03*
Y109900D02*
D03*
X188562Y75478D02*
D03*
Y85478D02*
D03*
X198562Y75478D02*
D03*
Y85478D02*
D03*
X148562Y99900D02*
D03*
Y109900D02*
D03*
X158562Y75478D02*
D03*
X158562Y85478D02*
D03*
Y109900D02*
D03*
Y99900D02*
D03*
X357312Y306852D02*
D03*
Y296852D02*
D03*
X366268Y215312D02*
D03*
Y205312D02*
D03*
D97*
X542798Y-5842D02*
D03*
X180340Y-1524D02*
D03*
D98*
X538800Y271000D02*
D03*
X30000D02*
D03*
D99*
X241760Y92660D02*
D03*
X254460D02*
D03*
X267160D02*
D03*
X279860D02*
D03*
X292560D02*
D03*
X305260D02*
D03*
X317960D02*
D03*
D100*
X148880Y21400D02*
D03*
D101*
X601440Y31310D02*
D03*
X4440Y296990D02*
D03*
D102*
X511100Y162000D02*
D03*
X311300D02*
D03*
D103*
X569590Y206034D02*
D03*
D104*
Y84034D02*
D03*
D105*
X4460Y326960D02*
D03*
X574460Y6960D02*
D03*
D106*
X228110Y316990D02*
D03*
X269610D02*
D03*
X248860Y337740D02*
D03*
Y296240D02*
D03*
D107*
X128130Y21400D02*
D03*
X169630D02*
D03*
X148880Y650D02*
D03*
Y42150D02*
D03*
D135*
X203122Y11298D02*
D03*
X212122D02*
D03*
D136*
X193622Y8048D02*
D03*
X221622D02*
D03*
D168*
X529800Y283520D02*
D03*
Y291740D02*
D03*
X547800Y283520D02*
D03*
X538800Y291740D02*
D03*
X547800D02*
D03*
D169*
X42520Y280000D02*
D03*
X50740D02*
D03*
X42520Y262000D02*
D03*
X50740Y271000D02*
D03*
Y262000D02*
D03*
D170*
X10802Y58094D02*
D03*
Y49094D02*
D03*
X22860Y58094D02*
D03*
Y49094D02*
D03*
X401101Y297102D02*
D03*
Y306102D02*
D03*
X500922Y319556D02*
D03*
X500922Y328557D02*
D03*
X451922Y330556D02*
D03*
X451922Y321557D02*
D03*
D171*
X27360Y33020D02*
D03*
X18360D02*
D03*
D172*
X40590Y58522D02*
D03*
Y39522D02*
D03*
X66090D02*
D03*
Y49022D02*
D03*
Y58522D02*
D03*
D173*
X188746Y44318D02*
D03*
X198746D02*
D03*
X193746Y32118D02*
D03*
X229990Y44318D02*
D03*
X239990D02*
D03*
X234990Y32118D02*
D03*
X208746Y44318D02*
D03*
X218746D02*
D03*
X213746Y32118D02*
D03*
D174*
X115132Y74458D02*
D03*
X84332D02*
D03*
X115132Y78458D02*
D03*
X84332D02*
D03*
X115132Y82458D02*
D03*
X84332D02*
D03*
X115132Y86458D02*
D03*
X84332D02*
D03*
X115132Y90458D02*
D03*
X84332D02*
D03*
X115132Y94458D02*
D03*
X84332D02*
D03*
X115132Y98458D02*
D03*
X84332D02*
D03*
X115132Y102458D02*
D03*
X84332D02*
D03*
X115132Y106458D02*
D03*
X84332D02*
D03*
X115132Y110458D02*
D03*
X84332D02*
D03*
X115132Y114458D02*
D03*
X84332D02*
D03*
X115132Y118458D02*
D03*
X84332D02*
D03*
Y122458D02*
D03*
X115132D02*
D03*
Y126458D02*
D03*
X84332D02*
D03*
X115132Y130458D02*
D03*
X84332D02*
D03*
X115132Y134458D02*
D03*
X84332D02*
D03*
X115132Y138458D02*
D03*
X84332D02*
D03*
Y142458D02*
D03*
X115132D02*
D03*
Y146458D02*
D03*
X84332D02*
D03*
Y150458D02*
D03*
X115132D02*
D03*
X84332Y154458D02*
D03*
X115132D02*
D03*
X84332Y158458D02*
D03*
X115132D02*
D03*
X84332Y162458D02*
D03*
X115132D02*
D03*
X84332Y166458D02*
D03*
X115132D02*
D03*
Y170458D02*
D03*
X84332D02*
D03*
Y174458D02*
D03*
X115132D02*
D03*
X84332Y178458D02*
D03*
X115132D02*
D03*
X84332Y182458D02*
D03*
X115132D02*
D03*
X84332Y186458D02*
D03*
X115132D02*
D03*
Y190458D02*
D03*
X84332D02*
D03*
Y194458D02*
D03*
X115132D02*
D03*
Y198458D02*
D03*
X84332D02*
D03*
X115132Y202458D02*
D03*
X84332D02*
D03*
X115132Y206458D02*
D03*
X84332D02*
D03*
Y210458D02*
D03*
X115132D02*
D03*
Y214458D02*
D03*
X84332D02*
D03*
X115132Y218458D02*
D03*
X84332D02*
D03*
Y222458D02*
D03*
X115132D02*
D03*
Y226458D02*
D03*
X84332D02*
D03*
X115132Y230458D02*
D03*
X84332D02*
D03*
Y234458D02*
D03*
X115132D02*
D03*
Y238458D02*
D03*
X84332D02*
D03*
X115132Y242458D02*
D03*
X84332D02*
D03*
X115132Y246458D02*
D03*
X84332D02*
D03*
X115132Y250458D02*
D03*
X84332D02*
D03*
X115132Y254458D02*
D03*
X84332D02*
D03*
X115132Y258458D02*
D03*
X84332D02*
D03*
Y262458D02*
D03*
X115132D02*
D03*
Y266458D02*
D03*
X84332D02*
D03*
X115132Y270458D02*
D03*
X84332D02*
D03*
X454281Y240475D02*
D03*
X485081Y240475D02*
D03*
X454281Y236475D02*
D03*
X485081Y236475D02*
D03*
Y232475D02*
D03*
X454281Y232475D02*
D03*
Y228475D02*
D03*
X485081D02*
D03*
X454281Y224475D02*
D03*
X485081Y224475D02*
D03*
X454281Y220475D02*
D03*
X485081Y220475D02*
D03*
X454281Y216475D02*
D03*
X485081D02*
D03*
X454281Y212475D02*
D03*
X485081Y212475D02*
D03*
X454281Y208475D02*
D03*
X485081Y208475D02*
D03*
Y204475D02*
D03*
X454281D02*
D03*
Y200475D02*
D03*
X485081Y200475D02*
D03*
X454281Y196475D02*
D03*
X485081Y196475D02*
D03*
Y192475D02*
D03*
X454281Y192475D02*
D03*
Y188475D02*
D03*
X485081Y188475D02*
D03*
X454281Y184475D02*
D03*
X485081Y184475D02*
D03*
Y180475D02*
D03*
X454281Y180475D02*
D03*
X454281Y176475D02*
D03*
X485081Y176475D02*
D03*
X454281Y172475D02*
D03*
X485081D02*
D03*
X454281Y168475D02*
D03*
X485081D02*
D03*
Y164475D02*
D03*
X454281D02*
D03*
Y160475D02*
D03*
X485081D02*
D03*
X485081Y156475D02*
D03*
X454281Y156475D02*
D03*
X485081Y152475D02*
D03*
X454281D02*
D03*
X485081Y148475D02*
D03*
X454281Y148475D02*
D03*
X485081Y144475D02*
D03*
X454281Y144475D02*
D03*
Y140475D02*
D03*
X485081Y140475D02*
D03*
X485081Y136475D02*
D03*
X454281D02*
D03*
X485081Y132475D02*
D03*
X454281D02*
D03*
X485081Y128475D02*
D03*
X454281Y128475D02*
D03*
X485081Y124475D02*
D03*
X454281D02*
D03*
X485081Y120475D02*
D03*
X454281Y120475D02*
D03*
X454281Y116475D02*
D03*
X485081D02*
D03*
Y112475D02*
D03*
X454281D02*
D03*
Y108475D02*
D03*
X485081D02*
D03*
X454281Y104475D02*
D03*
X485081Y104475D02*
D03*
X454281Y100475D02*
D03*
X485081Y100475D02*
D03*
X454281Y96475D02*
D03*
X485081Y96475D02*
D03*
Y92475D02*
D03*
X454281Y92475D02*
D03*
Y88475D02*
D03*
X485081Y88475D02*
D03*
X454281Y84475D02*
D03*
X485081Y84475D02*
D03*
X454281Y80475D02*
D03*
X485081D02*
D03*
X454281Y76475D02*
D03*
X485081D02*
D03*
X454281Y72475D02*
D03*
X485081D02*
D03*
X454281Y68475D02*
D03*
X485081D02*
D03*
X454281Y64475D02*
D03*
X485081D02*
D03*
X454281Y60475D02*
D03*
X485081Y60475D02*
D03*
X454281Y56475D02*
D03*
X485081D02*
D03*
X454281Y52475D02*
D03*
X485081Y52475D02*
D03*
X454281Y48475D02*
D03*
X485081Y48475D02*
D03*
X454281Y44475D02*
D03*
X485081Y44475D02*
D03*
D175*
X127254Y292100D02*
D03*
D03*
X132254D02*
D03*
X137254D02*
D03*
X142254D02*
D03*
X147254D02*
D03*
X152254D02*
D03*
X157254D02*
D03*
X162254D02*
D03*
X167254D02*
D03*
X172254D02*
D03*
D176*
X112764Y301910D02*
D03*
X186914Y301990D02*
D03*
D177*
X27880Y129132D02*
D03*
Y133132D02*
D03*
Y137132D02*
D03*
Y141132D02*
D03*
Y145132D02*
D03*
Y149132D02*
D03*
Y153132D02*
D03*
Y157132D02*
D03*
Y161132D02*
D03*
Y165132D02*
D03*
Y205132D02*
D03*
Y201132D02*
D03*
Y197132D02*
D03*
Y193132D02*
D03*
Y189132D02*
D03*
Y185132D02*
D03*
Y181132D02*
D03*
Y177132D02*
D03*
Y173132D02*
D03*
Y169132D02*
D03*
X51880Y205132D02*
D03*
Y201132D02*
D03*
Y197132D02*
D03*
Y193132D02*
D03*
Y189132D02*
D03*
Y185132D02*
D03*
Y181132D02*
D03*
Y177132D02*
D03*
Y173132D02*
D03*
Y169132D02*
D03*
Y129132D02*
D03*
Y133132D02*
D03*
Y137132D02*
D03*
Y141132D02*
D03*
Y145132D02*
D03*
Y149132D02*
D03*
Y153132D02*
D03*
Y157132D02*
D03*
Y161132D02*
D03*
Y165132D02*
D03*
D178*
X27940Y120904D02*
D03*
X27942Y213360D02*
D03*
X51818D02*
D03*
X51820Y120904D02*
D03*
D179*
X569590Y226534D02*
D03*
Y63534D02*
D03*
D180*
X593090Y189484D02*
D03*
Y183134D02*
D03*
Y176784D02*
D03*
Y170434D02*
D03*
Y164084D02*
D03*
Y157734D02*
D03*
Y151384D02*
D03*
Y145034D02*
D03*
Y138684D02*
D03*
Y132334D02*
D03*
Y125984D02*
D03*
Y119634D02*
D03*
Y113284D02*
D03*
Y106934D02*
D03*
Y100584D02*
D03*
X546090Y189484D02*
D03*
Y183134D02*
D03*
Y176784D02*
D03*
Y170434D02*
D03*
Y164084D02*
D03*
Y157734D02*
D03*
Y151384D02*
D03*
Y145034D02*
D03*
Y138684D02*
D03*
Y132334D02*
D03*
Y125984D02*
D03*
Y119634D02*
D03*
Y113284D02*
D03*
Y106934D02*
D03*
Y100584D02*
D03*
D181*
X465673Y317557D02*
D03*
X487673D02*
D03*
X465673Y330557D02*
D03*
X487673Y330557D02*
D03*
Y324057D02*
D03*
D182*
X418258Y57912D02*
D03*
X408258D02*
D03*
D183*
X514619Y2246D02*
D03*
D184*
X518119Y-5754D02*
D03*
Y5246D02*
D03*
D185*
X521619Y-3254D02*
D03*
D186*
X504524Y128016D02*
D03*
X514524D02*
D03*
D187*
X21916Y91440D02*
D03*
X30916D02*
D03*
X30924Y103923D02*
D03*
X21924D02*
D03*
D188*
X116526Y304599D02*
D03*
X183005Y304610D02*
D03*
D189*
X109504Y303600D02*
D03*
X190004Y303600D02*
D03*
D190*
X113004Y301100D02*
D03*
X186504Y301100D02*
D03*
D191*
X248860Y316990D02*
D03*
M02*
