G04*
G04 #@! TF.GenerationSoftware,Altium Limited,Altium Designer,21.7.2 (23)*
G04*
G04 Layer_Color=32768*
%FSLAX44Y44*%
%MOMM*%
G71*
G04*
G04 #@! TF.SameCoordinates,7C38C3A3-C4E6-443E-8540-10D383AE158C*
G04*
G04*
G04 #@! TF.FilePolarity,Positive*
G04*
G01*
G75*
G36*
X329877Y136689D02*
X329487D01*
Y137134D01*
X329877D01*
Y136689D01*
D02*
G37*
G36*
X312550D02*
X312160D01*
Y137134D01*
X312550D01*
Y136689D01*
D02*
G37*
G36*
X338921Y137141D02*
X339000Y137134D01*
X339073Y137124D01*
X339142Y137107D01*
X339208Y137089D01*
X339266Y137069D01*
X339322Y137048D01*
X339370Y137027D01*
X339415Y137003D01*
X339453Y136982D01*
X339487Y136961D01*
X339515Y136944D01*
X339536Y136927D01*
X339550Y136917D01*
X339560Y136910D01*
X339563Y136906D01*
X339612Y136861D01*
X339653Y136810D01*
X339691Y136758D01*
X339726Y136699D01*
X339753Y136644D01*
X339781Y136588D01*
X339802Y136530D01*
X339819Y136478D01*
X339836Y136426D01*
X339847Y136378D01*
X339857Y136333D01*
X339864Y136295D01*
X339868Y136264D01*
X339871Y136243D01*
X339874Y136229D01*
Y136222D01*
X339474Y136181D01*
X339470Y136236D01*
X339467Y136288D01*
X339446Y136378D01*
X339418Y136461D01*
X339405Y136495D01*
X339387Y136526D01*
X339374Y136554D01*
X339356Y136578D01*
X339342Y136599D01*
X339332Y136616D01*
X339318Y136630D01*
X339311Y136640D01*
X339308Y136644D01*
X339304Y136647D01*
X339270Y136678D01*
X339235Y136706D01*
X339197Y136727D01*
X339159Y136747D01*
X339083Y136778D01*
X339011Y136799D01*
X338949Y136810D01*
X338921Y136816D01*
X338897D01*
X338876Y136820D01*
X338800D01*
X338752Y136813D01*
X338665Y136796D01*
X338593Y136768D01*
X338527Y136740D01*
X338479Y136709D01*
X338458Y136695D01*
X338441Y136682D01*
X338427Y136671D01*
X338417Y136664D01*
X338413Y136661D01*
X338410Y136657D01*
X338379Y136626D01*
X338354Y136595D01*
X338330Y136564D01*
X338313Y136530D01*
X338282Y136464D01*
X338261Y136402D01*
X338251Y136350D01*
X338244Y136326D01*
Y136305D01*
X338240Y136291D01*
Y136278D01*
Y136271D01*
Y136267D01*
X338244Y136226D01*
X338247Y136184D01*
X338268Y136101D01*
X338299Y136022D01*
X338334Y135949D01*
X338368Y135887D01*
X338382Y135863D01*
X338399Y135839D01*
X338410Y135822D01*
X338420Y135808D01*
X338424Y135801D01*
X338427Y135797D01*
X338465Y135749D01*
X338510Y135697D01*
X338562Y135642D01*
X338617Y135587D01*
X338731Y135473D01*
X338848Y135365D01*
X338904Y135314D01*
X338959Y135269D01*
X339007Y135227D01*
X339049Y135193D01*
X339083Y135162D01*
X339108Y135141D01*
X339125Y135124D01*
X339132Y135120D01*
X339194Y135069D01*
X339249Y135020D01*
X339304Y134975D01*
X339353Y134930D01*
X339401Y134889D01*
X339443Y134847D01*
X339481Y134813D01*
X339515Y134778D01*
X339546Y134747D01*
X339570Y134720D01*
X339595Y134695D01*
X339612Y134678D01*
X339629Y134661D01*
X339640Y134650D01*
X339643Y134644D01*
X339646Y134640D01*
X339709Y134564D01*
X339760Y134488D01*
X339805Y134416D01*
X339840Y134350D01*
X339868Y134295D01*
X339878Y134270D01*
X339888Y134253D01*
X339895Y134236D01*
X339899Y134226D01*
X339902Y134219D01*
Y134215D01*
X339919Y134167D01*
X339930Y134118D01*
X339940Y134074D01*
X339944Y134032D01*
X339947Y133998D01*
Y133970D01*
Y133953D01*
Y133946D01*
X337836D01*
Y134322D01*
X339408D01*
X339353Y134398D01*
X339325Y134433D01*
X339297Y134464D01*
X339273Y134492D01*
X339256Y134512D01*
X339242Y134526D01*
X339239Y134530D01*
X339218Y134550D01*
X339190Y134578D01*
X339159Y134606D01*
X339125Y134637D01*
X339052Y134706D01*
X338976Y134771D01*
X338904Y134834D01*
X338873Y134861D01*
X338842Y134885D01*
X338821Y134906D01*
X338800Y134920D01*
X338790Y134930D01*
X338786Y134934D01*
X338710Y134999D01*
X338638Y135062D01*
X338572Y135117D01*
X338513Y135172D01*
X338458Y135220D01*
X338410Y135269D01*
X338365Y135310D01*
X338323Y135348D01*
X338289Y135379D01*
X338261Y135410D01*
X338237Y135435D01*
X338216Y135455D01*
X338202Y135473D01*
X338189Y135483D01*
X338185Y135490D01*
X338182Y135493D01*
X338116Y135569D01*
X338064Y135638D01*
X338019Y135704D01*
X337981Y135763D01*
X337954Y135811D01*
X337933Y135849D01*
X337926Y135863D01*
X337923Y135873D01*
X337919Y135877D01*
Y135880D01*
X337892Y135949D01*
X337874Y136018D01*
X337860Y136081D01*
X337850Y136139D01*
X337843Y136188D01*
X337840Y136226D01*
Y136240D01*
Y136250D01*
Y136253D01*
Y136257D01*
X337843Y136326D01*
X337850Y136391D01*
X337864Y136454D01*
X337881Y136516D01*
X337902Y136571D01*
X337926Y136623D01*
X337950Y136671D01*
X337975Y136713D01*
X337999Y136754D01*
X338023Y136789D01*
X338047Y136820D01*
X338068Y136844D01*
X338085Y136861D01*
X338099Y136879D01*
X338106Y136885D01*
X338109Y136889D01*
X338161Y136934D01*
X338216Y136972D01*
X338275Y137006D01*
X338337Y137037D01*
X338396Y137062D01*
X338458Y137082D01*
X338517Y137100D01*
X338576Y137114D01*
X338627Y137124D01*
X338679Y137131D01*
X338724Y137138D01*
X338762Y137141D01*
X338793Y137145D01*
X338838D01*
X338921Y137141D01*
D02*
G37*
G36*
X332358Y133946D02*
X331967D01*
Y135207D01*
X331964Y135303D01*
X331957Y135390D01*
X331946Y135462D01*
X331936Y135521D01*
X331926Y135569D01*
X331915Y135604D01*
X331912Y135614D01*
X331908Y135625D01*
X331905Y135632D01*
X331877Y135687D01*
X331843Y135735D01*
X331808Y135777D01*
X331770Y135811D01*
X331739Y135839D01*
X331712Y135859D01*
X331694Y135873D01*
X331687Y135877D01*
X331629Y135908D01*
X331570Y135932D01*
X331515Y135946D01*
X331466Y135960D01*
X331422Y135967D01*
X331387Y135970D01*
X331359D01*
X331276Y135963D01*
X331204Y135949D01*
X331145Y135929D01*
X331093Y135904D01*
X331052Y135877D01*
X331024Y135856D01*
X331007Y135842D01*
X331000Y135835D01*
X330976Y135808D01*
X330959Y135780D01*
X330928Y135711D01*
X330903Y135642D01*
X330890Y135569D01*
X330879Y135507D01*
X330876Y135479D01*
Y135455D01*
X330872Y135435D01*
Y135421D01*
Y135410D01*
Y135407D01*
Y133946D01*
X330482D01*
Y135407D01*
Y135469D01*
X330485Y135528D01*
X330489Y135583D01*
X330496Y135632D01*
X330503Y135680D01*
X330509Y135721D01*
X330516Y135759D01*
X330523Y135794D01*
X330530Y135825D01*
X330537Y135853D01*
X330544Y135873D01*
X330551Y135894D01*
X330558Y135908D01*
X330561Y135918D01*
X330565Y135922D01*
Y135925D01*
X330599Y135987D01*
X330641Y136046D01*
X330689Y136094D01*
X330731Y136132D01*
X330772Y136164D01*
X330807Y136188D01*
X330820Y136195D01*
X330831Y136201D01*
X330834Y136205D01*
X330838D01*
X330910Y136240D01*
X330986Y136264D01*
X331059Y136284D01*
X331128Y136295D01*
X331190Y136302D01*
X331214Y136305D01*
X331238Y136309D01*
X331280D01*
X331356Y136305D01*
X331428Y136295D01*
X331497Y136278D01*
X331563Y136260D01*
X331622Y136233D01*
X331680Y136208D01*
X331732Y136177D01*
X331777Y136150D01*
X331822Y136119D01*
X331860Y136088D01*
X331891Y136063D01*
X331919Y136039D01*
X331940Y136018D01*
X331953Y136001D01*
X331964Y135991D01*
X331967Y135987D01*
Y137134D01*
X332358D01*
Y133946D01*
D02*
G37*
G36*
X341194Y137065D02*
X341246Y136989D01*
X341305Y136917D01*
X341363Y136854D01*
X341415Y136796D01*
X341439Y136775D01*
X341456Y136754D01*
X341474Y136737D01*
X341488Y136727D01*
X341494Y136720D01*
X341498Y136716D01*
X341591Y136637D01*
X341691Y136568D01*
X341788Y136502D01*
X341878Y136447D01*
X341916Y136426D01*
X341954Y136405D01*
X341988Y136385D01*
X342016Y136371D01*
X342040Y136360D01*
X342058Y136350D01*
X342068Y136347D01*
X342071Y136343D01*
Y135967D01*
X342002Y135994D01*
X341930Y136025D01*
X341861Y136060D01*
X341799Y136091D01*
X341743Y136122D01*
X341719Y136132D01*
X341698Y136146D01*
X341681Y136153D01*
X341671Y136160D01*
X341664Y136167D01*
X341660D01*
X341577Y136219D01*
X341505Y136267D01*
X341439Y136312D01*
X341387Y136354D01*
X341343Y136388D01*
X341311Y136412D01*
X341294Y136430D01*
X341287Y136436D01*
Y133946D01*
X340897D01*
Y137145D01*
X341149D01*
X341194Y137065D01*
D02*
G37*
G36*
X337346Y135455D02*
X336980Y135403D01*
X336945Y135452D01*
X336907Y135497D01*
X336866Y135535D01*
X336831Y135569D01*
X336796Y135594D01*
X336769Y135614D01*
X336752Y135625D01*
X336745Y135628D01*
X336686Y135659D01*
X336627Y135680D01*
X336568Y135697D01*
X336513Y135708D01*
X336468Y135714D01*
X336430Y135718D01*
X336399D01*
X336344Y135714D01*
X336292Y135711D01*
X336240Y135701D01*
X336195Y135687D01*
X336109Y135656D01*
X336074Y135638D01*
X336040Y135621D01*
X336009Y135600D01*
X335985Y135583D01*
X335961Y135566D01*
X335943Y135552D01*
X335929Y135538D01*
X335916Y135528D01*
X335912Y135524D01*
X335909Y135521D01*
X335874Y135483D01*
X335846Y135442D01*
X335819Y135400D01*
X335798Y135359D01*
X335764Y135269D01*
X335743Y135186D01*
X335736Y135145D01*
X335729Y135110D01*
X335726Y135075D01*
X335722Y135048D01*
X335719Y135024D01*
Y135006D01*
Y134996D01*
Y134993D01*
X335722Y134927D01*
X335726Y134868D01*
X335736Y134809D01*
X335750Y134754D01*
X335764Y134706D01*
X335781Y134657D01*
X335798Y134616D01*
X335816Y134578D01*
X335836Y134543D01*
X335854Y134512D01*
X335871Y134488D01*
X335885Y134464D01*
X335898Y134447D01*
X335909Y134436D01*
X335912Y134429D01*
X335916Y134426D01*
X335954Y134388D01*
X335992Y134357D01*
X336030Y134329D01*
X336071Y134305D01*
X336113Y134284D01*
X336151Y134267D01*
X336227Y134243D01*
X336292Y134226D01*
X336320Y134222D01*
X336344Y134219D01*
X336365Y134215D01*
X336392D01*
X336437Y134219D01*
X336479Y134222D01*
X336555Y134239D01*
X336624Y134264D01*
X336683Y134291D01*
X336731Y134315D01*
X336765Y134340D01*
X336779Y134350D01*
X336790Y134357D01*
X336793Y134364D01*
X336796D01*
X336824Y134395D01*
X336852Y134426D01*
X336897Y134495D01*
X336935Y134571D01*
X336962Y134644D01*
X336980Y134709D01*
X336990Y134740D01*
X336993Y134764D01*
X336997Y134785D01*
X337000Y134799D01*
X337004Y134809D01*
Y134813D01*
X337415Y134782D01*
X337405Y134709D01*
X337391Y134637D01*
X337373Y134571D01*
X337349Y134509D01*
X337325Y134454D01*
X337301Y134398D01*
X337273Y134350D01*
X337246Y134309D01*
X337218Y134267D01*
X337194Y134233D01*
X337170Y134205D01*
X337145Y134181D01*
X337128Y134160D01*
X337114Y134146D01*
X337107Y134139D01*
X337104Y134136D01*
X337049Y134094D01*
X336993Y134056D01*
X336935Y134025D01*
X336876Y133998D01*
X336817Y133973D01*
X336758Y133953D01*
X336700Y133935D01*
X336645Y133925D01*
X336593Y133915D01*
X336544Y133908D01*
X336503Y133901D01*
X336465Y133897D01*
X336434Y133894D01*
X336392D01*
X336296Y133897D01*
X336206Y133911D01*
X336119Y133928D01*
X336040Y133956D01*
X335964Y133984D01*
X335895Y134015D01*
X335833Y134053D01*
X335778Y134087D01*
X335726Y134122D01*
X335681Y134160D01*
X335643Y134191D01*
X335612Y134222D01*
X335588Y134246D01*
X335570Y134264D01*
X335560Y134277D01*
X335556Y134281D01*
X335512Y134340D01*
X335474Y134402D01*
X335439Y134467D01*
X335411Y134530D01*
X335387Y134592D01*
X335366Y134654D01*
X335349Y134716D01*
X335335Y134771D01*
X335325Y134827D01*
X335318Y134875D01*
X335311Y134916D01*
X335308Y134955D01*
X335304Y134986D01*
Y135006D01*
Y135024D01*
Y135027D01*
X335308Y135110D01*
X335318Y135189D01*
X335332Y135265D01*
X335349Y135335D01*
X335370Y135403D01*
X335397Y135462D01*
X335422Y135521D01*
X335449Y135573D01*
X335477Y135618D01*
X335501Y135656D01*
X335525Y135694D01*
X335550Y135721D01*
X335567Y135742D01*
X335581Y135759D01*
X335591Y135770D01*
X335594Y135773D01*
X335650Y135825D01*
X335708Y135870D01*
X335767Y135908D01*
X335826Y135942D01*
X335885Y135970D01*
X335943Y135994D01*
X335998Y136011D01*
X336054Y136029D01*
X336102Y136039D01*
X336151Y136049D01*
X336192Y136053D01*
X336227Y136060D01*
X336254D01*
X336278Y136063D01*
X336296D01*
X336354Y136060D01*
X336413Y136056D01*
X336468Y136046D01*
X336524Y136032D01*
X336624Y136001D01*
X336672Y135980D01*
X336714Y135963D01*
X336755Y135946D01*
X336790Y135925D01*
X336821Y135908D01*
X336848Y135894D01*
X336869Y135880D01*
X336883Y135873D01*
X336893Y135866D01*
X336897Y135863D01*
X336727Y136720D01*
X335453D01*
Y137093D01*
X337038D01*
X337346Y135455D01*
D02*
G37*
G36*
X362190Y136305D02*
X362290Y136295D01*
X362380Y136281D01*
X362421Y136274D01*
X362456Y136267D01*
X362490Y136260D01*
X362521Y136253D01*
X362546Y136246D01*
X362566Y136240D01*
X362584Y136233D01*
X362597Y136229D01*
X362604Y136226D01*
X362608D01*
X362687Y136191D01*
X362756Y136153D01*
X362815Y136115D01*
X362863Y136077D01*
X362901Y136043D01*
X362929Y136015D01*
X362946Y135998D01*
X362953Y135994D01*
Y135991D01*
X362995Y135932D01*
X363029Y135866D01*
X363057Y135801D01*
X363081Y135739D01*
X363098Y135683D01*
X363105Y135659D01*
X363112Y135638D01*
X363116Y135621D01*
X363119Y135607D01*
X363122Y135600D01*
Y135597D01*
X362739Y135545D01*
X362725Y135590D01*
X362711Y135632D01*
X362684Y135701D01*
X362649Y135763D01*
X362618Y135808D01*
X362590Y135842D01*
X362566Y135870D01*
X362552Y135884D01*
X362546Y135887D01*
X362490Y135918D01*
X362425Y135942D01*
X362359Y135960D01*
X362293Y135974D01*
X362231Y135980D01*
X362207D01*
X362183Y135984D01*
X362138D01*
X362034Y135977D01*
X361945Y135963D01*
X361869Y135942D01*
X361806Y135918D01*
X361758Y135891D01*
X361741Y135880D01*
X361724Y135870D01*
X361710Y135863D01*
X361703Y135856D01*
X361696Y135849D01*
X361658Y135808D01*
X361630Y135756D01*
X361609Y135701D01*
X361596Y135645D01*
X361589Y135594D01*
X361582Y135552D01*
Y135538D01*
Y135524D01*
Y135518D01*
Y135514D01*
Y135504D01*
Y135490D01*
Y135455D01*
X361585Y135442D01*
Y135428D01*
Y135417D01*
Y135414D01*
X361630Y135400D01*
X361679Y135386D01*
X361734Y135372D01*
X361789Y135359D01*
X361903Y135335D01*
X362017Y135314D01*
X362072Y135307D01*
X362121Y135300D01*
X362166Y135293D01*
X362207Y135286D01*
X362238Y135283D01*
X362262Y135279D01*
X362276Y135276D01*
X362283D01*
X362366Y135265D01*
X362435Y135255D01*
X362497Y135245D01*
X362546Y135238D01*
X362584Y135227D01*
X362611Y135224D01*
X362625Y135217D01*
X362632D01*
X362687Y135200D01*
X362743Y135179D01*
X362791Y135158D01*
X362832Y135138D01*
X362867Y135120D01*
X362891Y135103D01*
X362908Y135093D01*
X362915Y135089D01*
X362960Y135055D01*
X362998Y135020D01*
X363033Y134982D01*
X363060Y134948D01*
X363084Y134913D01*
X363102Y134889D01*
X363112Y134872D01*
X363116Y134865D01*
X363140Y134809D01*
X363161Y134758D01*
X363174Y134706D01*
X363181Y134657D01*
X363188Y134616D01*
X363192Y134581D01*
Y134561D01*
Y134557D01*
Y134554D01*
X363188Y134502D01*
X363181Y134450D01*
X363174Y134402D01*
X363161Y134357D01*
X363126Y134274D01*
X363088Y134208D01*
X363071Y134177D01*
X363053Y134153D01*
X363036Y134129D01*
X363019Y134112D01*
X363005Y134098D01*
X362998Y134087D01*
X362991Y134080D01*
X362988Y134077D01*
X362946Y134046D01*
X362905Y134018D01*
X362856Y133991D01*
X362812Y133970D01*
X362715Y133939D01*
X362618Y133918D01*
X362577Y133908D01*
X362535Y133904D01*
X362497Y133901D01*
X362466Y133897D01*
X362442Y133894D01*
X362404D01*
X362318Y133897D01*
X362238Y133904D01*
X362166Y133918D01*
X362100Y133932D01*
X362048Y133946D01*
X362024Y133953D01*
X362007Y133960D01*
X361993Y133963D01*
X361982Y133967D01*
X361976Y133970D01*
X361972D01*
X361896Y134004D01*
X361820Y134043D01*
X361751Y134087D01*
X361685Y134132D01*
X361630Y134170D01*
X361609Y134191D01*
X361589Y134205D01*
X361572Y134219D01*
X361561Y134229D01*
X361554Y134233D01*
X361551Y134236D01*
X361544Y134174D01*
X361534Y134118D01*
X361520Y134070D01*
X361506Y134029D01*
X361496Y133994D01*
X361485Y133967D01*
X361478Y133953D01*
X361475Y133946D01*
X361067D01*
X361091Y133994D01*
X361112Y134046D01*
X361129Y134091D01*
X361143Y134132D01*
X361153Y134170D01*
X361160Y134198D01*
X361164Y134215D01*
Y134222D01*
X361167Y134253D01*
X361171Y134295D01*
X361174Y134340D01*
X361178Y134391D01*
X361181Y134447D01*
Y134505D01*
X361185Y134623D01*
Y134678D01*
X361188Y134733D01*
Y134782D01*
Y134827D01*
Y134861D01*
Y134889D01*
Y134906D01*
Y134913D01*
Y135435D01*
Y135483D01*
Y135524D01*
X361191Y135562D01*
Y135600D01*
X361195Y135663D01*
X361198Y135711D01*
X361202Y135749D01*
X361205Y135773D01*
X361209Y135790D01*
Y135794D01*
X361223Y135853D01*
X361243Y135904D01*
X361264Y135949D01*
X361285Y135987D01*
X361302Y136018D01*
X361319Y136043D01*
X361330Y136056D01*
X361333Y136060D01*
X361371Y136098D01*
X361413Y136132D01*
X361457Y136164D01*
X361502Y136188D01*
X361544Y136208D01*
X361575Y136222D01*
X361589Y136229D01*
X361599Y136233D01*
X361603Y136236D01*
X361606D01*
X361679Y136260D01*
X361758Y136278D01*
X361838Y136291D01*
X361913Y136298D01*
X361979Y136305D01*
X362010D01*
X362034Y136309D01*
X362083D01*
X362190Y136305D01*
D02*
G37*
G36*
X326665Y133946D02*
X326274D01*
Y134858D01*
X325998Y135127D01*
X325231Y133946D01*
X324748D01*
X325722Y135397D01*
X324837Y136257D01*
X325345D01*
X326274Y135314D01*
Y137134D01*
X326665D01*
Y133946D01*
D02*
G37*
G36*
X333529Y136827D02*
Y136257D01*
X333819D01*
Y135953D01*
X333529D01*
Y134619D01*
Y134557D01*
X333525Y134499D01*
Y134447D01*
X333522Y134398D01*
X333518Y134357D01*
X333515Y134319D01*
X333511Y134284D01*
X333504Y134257D01*
X333501Y134233D01*
X333498Y134212D01*
X333494Y134194D01*
X333491Y134181D01*
X333487Y134163D01*
X333484Y134157D01*
X333463Y134118D01*
X333439Y134084D01*
X333411Y134053D01*
X333384Y134029D01*
X333356Y134008D01*
X333335Y133994D01*
X333321Y133984D01*
X333318Y133980D01*
X333270Y133960D01*
X333218Y133942D01*
X333162Y133932D01*
X333107Y133922D01*
X333059Y133918D01*
X333021Y133915D01*
X332986D01*
X332883Y133922D01*
X332834Y133925D01*
X332789Y133932D01*
X332748Y133939D01*
X332717Y133942D01*
X332696Y133949D01*
X332689D01*
X332741Y134295D01*
X332779Y134291D01*
X332814Y134288D01*
X332845Y134284D01*
X332869D01*
X332890Y134281D01*
X332948D01*
X332976Y134284D01*
X332997Y134291D01*
X333017Y134295D01*
X333031Y134302D01*
X333042Y134305D01*
X333049Y134309D01*
X333052D01*
X333080Y134333D01*
X333100Y134357D01*
X333114Y134378D01*
X333118Y134381D01*
Y134384D01*
X333125Y134409D01*
X333128Y134440D01*
X333135Y134474D01*
Y134509D01*
X333138Y134543D01*
Y134571D01*
Y134592D01*
Y134595D01*
Y134599D01*
Y135953D01*
X332741D01*
Y136257D01*
X333138D01*
Y137062D01*
X333529Y136827D01*
D02*
G37*
G36*
X320906D02*
Y136257D01*
X321196D01*
Y135953D01*
X320906D01*
Y134619D01*
Y134557D01*
X320903Y134499D01*
Y134447D01*
X320899Y134398D01*
X320896Y134357D01*
X320892Y134319D01*
X320889Y134284D01*
X320882Y134257D01*
X320879Y134233D01*
X320875Y134212D01*
X320872Y134194D01*
X320868Y134181D01*
X320865Y134163D01*
X320861Y134157D01*
X320841Y134118D01*
X320816Y134084D01*
X320789Y134053D01*
X320761Y134029D01*
X320733Y134008D01*
X320713Y133994D01*
X320699Y133984D01*
X320695Y133980D01*
X320647Y133960D01*
X320595Y133942D01*
X320540Y133932D01*
X320485Y133922D01*
X320437Y133918D01*
X320398Y133915D01*
X320364D01*
X320260Y133922D01*
X320212Y133925D01*
X320167Y133932D01*
X320126Y133939D01*
X320094Y133942D01*
X320074Y133949D01*
X320067D01*
X320119Y134295D01*
X320157Y134291D01*
X320191Y134288D01*
X320222Y134284D01*
X320247D01*
X320267Y134281D01*
X320326D01*
X320354Y134284D01*
X320374Y134291D01*
X320395Y134295D01*
X320409Y134302D01*
X320419Y134305D01*
X320426Y134309D01*
X320430D01*
X320457Y134333D01*
X320478Y134357D01*
X320492Y134378D01*
X320495Y134381D01*
Y134384D01*
X320502Y134409D01*
X320506Y134440D01*
X320513Y134474D01*
Y134509D01*
X320516Y134543D01*
Y134571D01*
Y134592D01*
Y134595D01*
Y134599D01*
Y135953D01*
X320119D01*
Y136257D01*
X320516D01*
Y137062D01*
X320906Y136827D01*
D02*
G37*
G36*
X357495Y136305D02*
X357582Y136295D01*
X357658Y136278D01*
X357734Y136257D01*
X357803Y136233D01*
X357868Y136205D01*
X357927Y136177D01*
X357979Y136146D01*
X358027Y136115D01*
X358069Y136088D01*
X358107Y136060D01*
X358134Y136036D01*
X358158Y136015D01*
X358176Y135998D01*
X358186Y135987D01*
X358190Y135984D01*
X358241Y135922D01*
X358286Y135853D01*
X358328Y135780D01*
X358362Y135708D01*
X358390Y135632D01*
X358414Y135555D01*
X358435Y135483D01*
X358449Y135410D01*
X358462Y135345D01*
X358469Y135279D01*
X358476Y135224D01*
X358483Y135176D01*
Y135134D01*
X358487Y135103D01*
Y135086D01*
Y135079D01*
X358483Y134975D01*
X358473Y134879D01*
X358459Y134789D01*
X358442Y134706D01*
X358418Y134626D01*
X358393Y134554D01*
X358366Y134488D01*
X358338Y134429D01*
X358314Y134378D01*
X358286Y134333D01*
X358262Y134295D01*
X358238Y134264D01*
X358221Y134236D01*
X358207Y134219D01*
X358196Y134208D01*
X358193Y134205D01*
X358134Y134150D01*
X358072Y134101D01*
X358010Y134060D01*
X357941Y134025D01*
X357875Y133994D01*
X357806Y133970D01*
X357741Y133949D01*
X357678Y133932D01*
X357620Y133922D01*
X357564Y133911D01*
X357516Y133904D01*
X357471Y133897D01*
X357436D01*
X357409Y133894D01*
X357388D01*
X357316Y133897D01*
X357243Y133901D01*
X357178Y133911D01*
X357115Y133925D01*
X357057Y133939D01*
X357005Y133956D01*
X356953Y133973D01*
X356908Y133991D01*
X356867Y134008D01*
X356832Y134025D01*
X356801Y134043D01*
X356773Y134056D01*
X356756Y134070D01*
X356739Y134080D01*
X356732Y134084D01*
X356728Y134087D01*
X356680Y134125D01*
X356639Y134167D01*
X356601Y134212D01*
X356563Y134257D01*
X356500Y134350D01*
X356452Y134436D01*
X356435Y134478D01*
X356418Y134516D01*
X356404Y134550D01*
X356393Y134581D01*
X356383Y134606D01*
X356376Y134623D01*
X356373Y134637D01*
Y134640D01*
X356780Y134692D01*
X356815Y134606D01*
X356856Y134530D01*
X356898Y134464D01*
X356936Y134416D01*
X356970Y134374D01*
X356998Y134347D01*
X357015Y134333D01*
X357019Y134326D01*
X357022D01*
X357081Y134288D01*
X357143Y134264D01*
X357205Y134243D01*
X357260Y134229D01*
X357312Y134222D01*
X357354Y134219D01*
X357368Y134215D01*
X357388D01*
X357440Y134219D01*
X357492Y134226D01*
X357540Y134233D01*
X357585Y134246D01*
X357668Y134277D01*
X357737Y134315D01*
X357768Y134333D01*
X357796Y134353D01*
X357817Y134371D01*
X357837Y134384D01*
X357851Y134398D01*
X357861Y134409D01*
X357868Y134412D01*
X357872Y134416D01*
X357906Y134457D01*
X357937Y134499D01*
X357962Y134547D01*
X357986Y134592D01*
X358024Y134692D01*
X358051Y134785D01*
X358062Y134830D01*
X358069Y134872D01*
X358076Y134906D01*
X358079Y134941D01*
X358083Y134965D01*
X358086Y134986D01*
Y134999D01*
Y135003D01*
X356362D01*
X356359Y135048D01*
Y135082D01*
Y135100D01*
Y135106D01*
X356362Y135210D01*
X356373Y135307D01*
X356386Y135400D01*
X356404Y135486D01*
X356428Y135566D01*
X356452Y135638D01*
X356480Y135704D01*
X356504Y135763D01*
X356531Y135815D01*
X356559Y135863D01*
X356583Y135901D01*
X356608Y135932D01*
X356625Y135960D01*
X356639Y135977D01*
X356649Y135987D01*
X356652Y135991D01*
X356708Y136046D01*
X356770Y136094D01*
X356832Y136139D01*
X356894Y136174D01*
X356956Y136205D01*
X357022Y136233D01*
X357081Y136253D01*
X357140Y136271D01*
X357195Y136281D01*
X357247Y136291D01*
X357291Y136298D01*
X357333Y136305D01*
X357364D01*
X357388Y136309D01*
X357409D01*
X357495Y136305D01*
D02*
G37*
G36*
X328067Y136302D02*
X328171Y136288D01*
X328264Y136264D01*
X328306Y136250D01*
X328347Y136240D01*
X328382Y136226D01*
X328413Y136212D01*
X328440Y136201D01*
X328465Y136188D01*
X328485Y136181D01*
X328499Y136174D01*
X328506Y136167D01*
X328509D01*
X328599Y136108D01*
X328675Y136043D01*
X328741Y135970D01*
X328793Y135904D01*
X328834Y135842D01*
X328848Y135815D01*
X328862Y135790D01*
X328872Y135773D01*
X328879Y135759D01*
X328886Y135749D01*
Y135745D01*
X328927Y135638D01*
X328955Y135524D01*
X328976Y135414D01*
X328993Y135314D01*
X328997Y135265D01*
X329000Y135224D01*
X329003Y135186D01*
Y135151D01*
X329007Y135127D01*
Y135106D01*
Y135093D01*
Y135089D01*
X329003Y134986D01*
X328993Y134885D01*
X328979Y134792D01*
X328962Y134706D01*
X328941Y134626D01*
X328917Y134554D01*
X328889Y134488D01*
X328862Y134429D01*
X328838Y134378D01*
X328810Y134329D01*
X328786Y134291D01*
X328765Y134260D01*
X328748Y134233D01*
X328734Y134215D01*
X328724Y134205D01*
X328720Y134201D01*
X328665Y134146D01*
X328606Y134101D01*
X328544Y134060D01*
X328482Y134025D01*
X328416Y133994D01*
X328354Y133970D01*
X328292Y133949D01*
X328233Y133932D01*
X328178Y133918D01*
X328126Y133911D01*
X328078Y133904D01*
X328040Y133897D01*
X328005D01*
X327981Y133894D01*
X327960D01*
X327891Y133897D01*
X327825Y133904D01*
X327763Y133915D01*
X327701Y133928D01*
X327646Y133946D01*
X327594Y133967D01*
X327546Y133984D01*
X327501Y134008D01*
X327463Y134029D01*
X327425Y134046D01*
X327397Y134067D01*
X327369Y134084D01*
X327352Y134098D01*
X327335Y134108D01*
X327328Y134115D01*
X327324Y134118D01*
X327280Y134163D01*
X327235Y134208D01*
X327197Y134260D01*
X327166Y134312D01*
X327135Y134364D01*
X327107Y134416D01*
X327066Y134512D01*
X327048Y134561D01*
X327034Y134602D01*
X327024Y134640D01*
X327014Y134675D01*
X327007Y134702D01*
X327003Y134723D01*
X327000Y134737D01*
Y134740D01*
X327383Y134792D01*
X327394Y134737D01*
X327404Y134689D01*
X327418Y134640D01*
X327432Y134599D01*
X327449Y134557D01*
X327463Y134523D01*
X327480Y134492D01*
X327497Y134460D01*
X327514Y134436D01*
X327528Y134416D01*
X327556Y134381D01*
X327573Y134360D01*
X327577Y134357D01*
X327580Y134353D01*
X327642Y134309D01*
X327705Y134274D01*
X327770Y134250D01*
X327829Y134233D01*
X327884Y134222D01*
X327905Y134219D01*
X327926D01*
X327943Y134215D01*
X327964D01*
X328015Y134219D01*
X328067Y134226D01*
X328112Y134236D01*
X328157Y134250D01*
X328237Y134281D01*
X328306Y134322D01*
X328333Y134340D01*
X328357Y134360D01*
X328378Y134378D01*
X328399Y134395D01*
X328413Y134405D01*
X328423Y134416D01*
X328427Y134423D01*
X328430Y134426D01*
X328461Y134467D01*
X328489Y134516D01*
X328513Y134568D01*
X328530Y134619D01*
X328565Y134733D01*
X328585Y134844D01*
X328592Y134896D01*
X328596Y134944D01*
X328599Y134989D01*
X328603Y135027D01*
X328606Y135058D01*
Y135082D01*
Y135100D01*
Y135103D01*
X328603Y135186D01*
X328599Y135265D01*
X328589Y135335D01*
X328578Y135400D01*
X328565Y135462D01*
X328547Y135518D01*
X328530Y135566D01*
X328513Y135611D01*
X328499Y135649D01*
X328482Y135683D01*
X328465Y135711D01*
X328451Y135732D01*
X328440Y135752D01*
X328430Y135763D01*
X328427Y135770D01*
X328423Y135773D01*
X328388Y135811D01*
X328350Y135842D01*
X328309Y135873D01*
X328271Y135898D01*
X328230Y135918D01*
X328192Y135935D01*
X328116Y135960D01*
X328046Y135977D01*
X328019Y135980D01*
X327991Y135984D01*
X327971Y135987D01*
X327943D01*
X327874Y135984D01*
X327808Y135970D01*
X327753Y135949D01*
X327705Y135929D01*
X327667Y135904D01*
X327635Y135887D01*
X327618Y135873D01*
X327611Y135866D01*
X327563Y135818D01*
X327521Y135763D01*
X327490Y135704D01*
X327463Y135649D01*
X327442Y135597D01*
X327428Y135555D01*
X327425Y135538D01*
X327421Y135528D01*
X327418Y135521D01*
Y135518D01*
X327038Y135576D01*
X327052Y135638D01*
X327072Y135701D01*
X327093Y135756D01*
X327114Y135808D01*
X327138Y135856D01*
X327166Y135901D01*
X327190Y135939D01*
X327217Y135977D01*
X327242Y136008D01*
X327266Y136036D01*
X327286Y136060D01*
X327307Y136081D01*
X327321Y136094D01*
X327335Y136105D01*
X327342Y136112D01*
X327345Y136115D01*
X327390Y136150D01*
X327439Y136181D01*
X327490Y136205D01*
X327542Y136226D01*
X327646Y136260D01*
X327743Y136284D01*
X327787Y136291D01*
X327829Y136298D01*
X327867Y136302D01*
X327898Y136305D01*
X327922Y136309D01*
X327960D01*
X328067Y136302D01*
D02*
G37*
G36*
X318875Y136305D02*
X318961Y136295D01*
X319037Y136278D01*
X319113Y136257D01*
X319182Y136233D01*
X319248Y136205D01*
X319307Y136177D01*
X319359Y136146D01*
X319407Y136115D01*
X319449Y136088D01*
X319487Y136060D01*
X319514Y136036D01*
X319538Y136015D01*
X319556Y135998D01*
X319566Y135987D01*
X319569Y135984D01*
X319621Y135922D01*
X319666Y135853D01*
X319708Y135780D01*
X319742Y135708D01*
X319770Y135632D01*
X319794Y135555D01*
X319815Y135483D01*
X319828Y135410D01*
X319842Y135345D01*
X319849Y135279D01*
X319856Y135224D01*
X319863Y135176D01*
Y135134D01*
X319867Y135103D01*
Y135086D01*
Y135079D01*
X319863Y134975D01*
X319853Y134879D01*
X319839Y134789D01*
X319822Y134706D01*
X319797Y134626D01*
X319773Y134554D01*
X319746Y134488D01*
X319718Y134429D01*
X319694Y134378D01*
X319666Y134333D01*
X319642Y134295D01*
X319618Y134264D01*
X319601Y134236D01*
X319587Y134219D01*
X319576Y134208D01*
X319573Y134205D01*
X319514Y134150D01*
X319452Y134101D01*
X319390Y134060D01*
X319321Y134025D01*
X319255Y133994D01*
X319186Y133970D01*
X319120Y133949D01*
X319058Y133932D01*
X318999Y133922D01*
X318944Y133911D01*
X318896Y133904D01*
X318851Y133897D01*
X318816D01*
X318789Y133894D01*
X318768D01*
X318696Y133897D01*
X318623Y133901D01*
X318557Y133911D01*
X318495Y133925D01*
X318436Y133939D01*
X318385Y133956D01*
X318333Y133973D01*
X318288Y133991D01*
X318246Y134008D01*
X318212Y134025D01*
X318181Y134043D01*
X318153Y134056D01*
X318136Y134070D01*
X318119Y134080D01*
X318112Y134084D01*
X318108Y134087D01*
X318060Y134125D01*
X318018Y134167D01*
X317980Y134212D01*
X317942Y134257D01*
X317880Y134350D01*
X317832Y134436D01*
X317815Y134478D01*
X317797Y134516D01*
X317784Y134550D01*
X317773Y134581D01*
X317763Y134606D01*
X317756Y134623D01*
X317752Y134637D01*
Y134640D01*
X318160Y134692D01*
X318195Y134606D01*
X318236Y134530D01*
X318277Y134464D01*
X318316Y134416D01*
X318350Y134374D01*
X318378Y134347D01*
X318395Y134333D01*
X318398Y134326D01*
X318402D01*
X318461Y134288D01*
X318523Y134264D01*
X318585Y134243D01*
X318640Y134229D01*
X318692Y134222D01*
X318733Y134219D01*
X318747Y134215D01*
X318768D01*
X318820Y134219D01*
X318872Y134226D01*
X318920Y134233D01*
X318965Y134246D01*
X319048Y134277D01*
X319117Y134315D01*
X319148Y134333D01*
X319176Y134353D01*
X319196Y134371D01*
X319217Y134384D01*
X319231Y134398D01*
X319241Y134409D01*
X319248Y134412D01*
X319252Y134416D01*
X319286Y134457D01*
X319317Y134499D01*
X319341Y134547D01*
X319366Y134592D01*
X319404Y134692D01*
X319431Y134785D01*
X319442Y134830D01*
X319449Y134872D01*
X319455Y134906D01*
X319459Y134941D01*
X319462Y134965D01*
X319466Y134986D01*
Y134999D01*
Y135003D01*
X317742D01*
X317739Y135048D01*
Y135082D01*
Y135100D01*
Y135106D01*
X317742Y135210D01*
X317752Y135307D01*
X317766Y135400D01*
X317784Y135486D01*
X317808Y135566D01*
X317832Y135638D01*
X317859Y135704D01*
X317884Y135763D01*
X317911Y135815D01*
X317939Y135863D01*
X317963Y135901D01*
X317987Y135932D01*
X318005Y135960D01*
X318018Y135977D01*
X318029Y135987D01*
X318032Y135991D01*
X318088Y136046D01*
X318150Y136094D01*
X318212Y136139D01*
X318274Y136174D01*
X318336Y136205D01*
X318402Y136233D01*
X318461Y136253D01*
X318519Y136271D01*
X318575Y136281D01*
X318626Y136291D01*
X318671Y136298D01*
X318713Y136305D01*
X318744D01*
X318768Y136309D01*
X318789D01*
X318875Y136305D01*
D02*
G37*
G36*
X313956Y136302D02*
X314060Y136288D01*
X314153Y136264D01*
X314194Y136250D01*
X314236Y136240D01*
X314270Y136226D01*
X314301Y136212D01*
X314329Y136201D01*
X314353Y136188D01*
X314374Y136181D01*
X314388Y136174D01*
X314395Y136167D01*
X314398D01*
X314488Y136108D01*
X314564Y136043D01*
X314630Y135970D01*
X314681Y135904D01*
X314723Y135842D01*
X314737Y135815D01*
X314750Y135790D01*
X314761Y135773D01*
X314768Y135759D01*
X314775Y135749D01*
Y135745D01*
X314816Y135638D01*
X314844Y135524D01*
X314865Y135414D01*
X314882Y135314D01*
X314885Y135265D01*
X314889Y135224D01*
X314892Y135186D01*
Y135151D01*
X314896Y135127D01*
Y135106D01*
Y135093D01*
Y135089D01*
X314892Y134986D01*
X314882Y134885D01*
X314868Y134792D01*
X314851Y134706D01*
X314830Y134626D01*
X314806Y134554D01*
X314778Y134488D01*
X314750Y134429D01*
X314726Y134378D01*
X314699Y134329D01*
X314674Y134291D01*
X314654Y134260D01*
X314636Y134233D01*
X314623Y134215D01*
X314612Y134205D01*
X314609Y134201D01*
X314554Y134146D01*
X314495Y134101D01*
X314433Y134060D01*
X314370Y134025D01*
X314305Y133994D01*
X314243Y133970D01*
X314181Y133949D01*
X314122Y133932D01*
X314067Y133918D01*
X314015Y133911D01*
X313966Y133904D01*
X313928Y133897D01*
X313894D01*
X313870Y133894D01*
X313849D01*
X313780Y133897D01*
X313714Y133904D01*
X313652Y133915D01*
X313590Y133928D01*
X313535Y133946D01*
X313483Y133967D01*
X313434Y133984D01*
X313389Y134008D01*
X313351Y134029D01*
X313314Y134046D01*
X313286Y134067D01*
X313258Y134084D01*
X313241Y134098D01*
X313224Y134108D01*
X313217Y134115D01*
X313213Y134118D01*
X313168Y134163D01*
X313123Y134208D01*
X313085Y134260D01*
X313054Y134312D01*
X313023Y134364D01*
X312996Y134416D01*
X312954Y134512D01*
X312937Y134561D01*
X312923Y134602D01*
X312913Y134640D01*
X312902Y134675D01*
X312896Y134702D01*
X312892Y134723D01*
X312889Y134737D01*
Y134740D01*
X313272Y134792D01*
X313282Y134737D01*
X313293Y134689D01*
X313307Y134640D01*
X313320Y134599D01*
X313338Y134557D01*
X313351Y134523D01*
X313369Y134492D01*
X313386Y134460D01*
X313403Y134436D01*
X313417Y134416D01*
X313445Y134381D01*
X313462Y134360D01*
X313465Y134357D01*
X313469Y134353D01*
X313531Y134309D01*
X313593Y134274D01*
X313659Y134250D01*
X313718Y134233D01*
X313773Y134222D01*
X313794Y134219D01*
X313814D01*
X313832Y134215D01*
X313852D01*
X313904Y134219D01*
X313956Y134226D01*
X314001Y134236D01*
X314046Y134250D01*
X314125Y134281D01*
X314194Y134322D01*
X314222Y134340D01*
X314246Y134360D01*
X314267Y134378D01*
X314288Y134395D01*
X314301Y134405D01*
X314312Y134416D01*
X314315Y134423D01*
X314319Y134426D01*
X314350Y134467D01*
X314377Y134516D01*
X314402Y134568D01*
X314419Y134619D01*
X314453Y134733D01*
X314474Y134844D01*
X314481Y134896D01*
X314485Y134944D01*
X314488Y134989D01*
X314491Y135027D01*
X314495Y135058D01*
Y135082D01*
Y135100D01*
Y135103D01*
X314491Y135186D01*
X314488Y135265D01*
X314478Y135335D01*
X314467Y135400D01*
X314453Y135462D01*
X314436Y135518D01*
X314419Y135566D01*
X314402Y135611D01*
X314388Y135649D01*
X314370Y135683D01*
X314353Y135711D01*
X314340Y135732D01*
X314329Y135752D01*
X314319Y135763D01*
X314315Y135770D01*
X314312Y135773D01*
X314277Y135811D01*
X314239Y135842D01*
X314198Y135873D01*
X314160Y135898D01*
X314118Y135918D01*
X314080Y135935D01*
X314004Y135960D01*
X313935Y135977D01*
X313908Y135980D01*
X313880Y135984D01*
X313859Y135987D01*
X313832D01*
X313763Y135984D01*
X313697Y135970D01*
X313642Y135949D01*
X313593Y135929D01*
X313555Y135904D01*
X313524Y135887D01*
X313507Y135873D01*
X313500Y135866D01*
X313452Y135818D01*
X313410Y135763D01*
X313379Y135704D01*
X313351Y135649D01*
X313331Y135597D01*
X313317Y135555D01*
X313314Y135538D01*
X313310Y135528D01*
X313307Y135521D01*
Y135518D01*
X312927Y135576D01*
X312940Y135638D01*
X312961Y135701D01*
X312982Y135756D01*
X313003Y135808D01*
X313027Y135856D01*
X313054Y135901D01*
X313079Y135939D01*
X313106Y135977D01*
X313130Y136008D01*
X313155Y136036D01*
X313175Y136060D01*
X313196Y136081D01*
X313210Y136094D01*
X313224Y136105D01*
X313231Y136112D01*
X313234Y136115D01*
X313279Y136150D01*
X313327Y136181D01*
X313379Y136205D01*
X313431Y136226D01*
X313535Y136260D01*
X313631Y136284D01*
X313676Y136291D01*
X313718Y136298D01*
X313756Y136302D01*
X313787Y136305D01*
X313811Y136309D01*
X313849D01*
X313956Y136302D01*
D02*
G37*
G36*
X366000Y133946D02*
X364787D01*
X364677Y133949D01*
X364577Y133953D01*
X364490Y133963D01*
X364449Y133967D01*
X364414Y133973D01*
X364383Y133977D01*
X364356Y133980D01*
X364332Y133987D01*
X364311Y133991D01*
X364294Y133994D01*
X364283D01*
X364276Y133998D01*
X364273D01*
X364197Y134018D01*
X364128Y134043D01*
X364069Y134070D01*
X364021Y134094D01*
X363979Y134118D01*
X363948Y134136D01*
X363931Y134150D01*
X363924Y134153D01*
X363872Y134198D01*
X363827Y134246D01*
X363786Y134295D01*
X363755Y134343D01*
X363727Y134384D01*
X363706Y134419D01*
X363699Y134433D01*
X363693Y134443D01*
X363689Y134447D01*
Y134450D01*
X363658Y134523D01*
X363634Y134599D01*
X363616Y134668D01*
X363603Y134733D01*
X363596Y134789D01*
Y134809D01*
X363592Y134830D01*
Y134847D01*
Y134858D01*
Y134865D01*
Y134868D01*
Y134920D01*
X363599Y134968D01*
X363616Y135062D01*
X363644Y135145D01*
X363672Y135213D01*
X363686Y135245D01*
X363699Y135272D01*
X363713Y135296D01*
X363727Y135317D01*
X363737Y135331D01*
X363744Y135341D01*
X363748Y135348D01*
X363751Y135352D01*
X363813Y135424D01*
X363886Y135483D01*
X363959Y135535D01*
X364031Y135573D01*
X364093Y135604D01*
X364121Y135614D01*
X364145Y135625D01*
X364166Y135632D01*
X364179Y135638D01*
X364190Y135642D01*
X364193D01*
X364114Y135687D01*
X364048Y135735D01*
X363989Y135784D01*
X363945Y135828D01*
X363907Y135870D01*
X363882Y135901D01*
X363872Y135915D01*
X363865Y135925D01*
X363862Y135929D01*
Y135932D01*
X363824Y136001D01*
X363796Y136067D01*
X363775Y136132D01*
X363762Y136191D01*
X363755Y136243D01*
X363748Y136281D01*
Y136295D01*
Y136305D01*
Y136312D01*
Y136315D01*
X363755Y136398D01*
X363769Y136474D01*
X363789Y136547D01*
X363810Y136609D01*
X363834Y136661D01*
X363844Y136685D01*
X363855Y136702D01*
X363865Y136716D01*
X363869Y136727D01*
X363876Y136734D01*
Y136737D01*
X363927Y136806D01*
X363983Y136868D01*
X364038Y136920D01*
X364093Y136961D01*
X364145Y136993D01*
X364183Y137017D01*
X364200Y137024D01*
X364211Y137031D01*
X364217Y137034D01*
X364221D01*
X364311Y137069D01*
X364404Y137093D01*
X364504Y137110D01*
X364594Y137120D01*
X364639Y137127D01*
X364677Y137131D01*
X364715D01*
X364746Y137134D01*
X366000D01*
Y133946D01*
D02*
G37*
G36*
X348690Y136305D02*
X348773Y136291D01*
X348849Y136274D01*
X348922Y136250D01*
X348987Y136219D01*
X349046Y136188D01*
X349101Y136153D01*
X349149Y136119D01*
X349194Y136081D01*
X349232Y136046D01*
X349263Y136015D01*
X349288Y135984D01*
X349308Y135960D01*
X349326Y135942D01*
X349333Y135929D01*
X349336Y135925D01*
Y136257D01*
X349688D01*
Y133946D01*
X349298D01*
Y135207D01*
X349295Y135286D01*
X349291Y135362D01*
X349281Y135428D01*
X349270Y135490D01*
X349257Y135545D01*
X349243Y135594D01*
X349225Y135638D01*
X349208Y135676D01*
X349191Y135711D01*
X349174Y135739D01*
X349160Y135759D01*
X349146Y135780D01*
X349136Y135794D01*
X349125Y135804D01*
X349122Y135808D01*
X349118Y135811D01*
X349084Y135839D01*
X349046Y135863D01*
X348973Y135904D01*
X348901Y135932D01*
X348835Y135949D01*
X348776Y135963D01*
X348749Y135967D01*
X348728D01*
X348711Y135970D01*
X348687D01*
X348628Y135967D01*
X348576Y135960D01*
X348531Y135946D01*
X348490Y135935D01*
X348459Y135922D01*
X348434Y135908D01*
X348417Y135901D01*
X348414Y135898D01*
X348372Y135870D01*
X348338Y135839D01*
X348310Y135808D01*
X348289Y135777D01*
X348272Y135749D01*
X348262Y135728D01*
X348255Y135714D01*
X348251Y135708D01*
X348234Y135659D01*
X348224Y135604D01*
X348213Y135545D01*
X348210Y135486D01*
X348206Y135435D01*
X348203Y135410D01*
Y135390D01*
Y135376D01*
Y135362D01*
Y135355D01*
Y135352D01*
Y133946D01*
X347813D01*
Y135365D01*
Y135414D01*
Y135459D01*
X347816Y135504D01*
Y135542D01*
X347820Y135576D01*
Y135607D01*
X347823Y135659D01*
X347830Y135697D01*
X347833Y135725D01*
X347837Y135742D01*
Y135745D01*
X347851Y135808D01*
X347871Y135863D01*
X347889Y135911D01*
X347909Y135953D01*
X347930Y135987D01*
X347944Y136015D01*
X347954Y136029D01*
X347958Y136036D01*
X347992Y136081D01*
X348034Y136119D01*
X348079Y136150D01*
X348120Y136181D01*
X348162Y136201D01*
X348193Y136219D01*
X348213Y136229D01*
X348217Y136233D01*
X348220D01*
X348286Y136257D01*
X348352Y136278D01*
X348417Y136291D01*
X348476Y136298D01*
X348528Y136305D01*
X348548D01*
X348569Y136309D01*
X348604D01*
X348690Y136305D01*
D02*
G37*
G36*
X343387Y133946D02*
X342942D01*
Y134391D01*
X343387D01*
Y133946D01*
D02*
G37*
G36*
X329877D02*
X329487D01*
Y136257D01*
X329877D01*
Y133946D01*
D02*
G37*
G36*
X316260Y136305D02*
X316343Y136291D01*
X316419Y136274D01*
X316492Y136250D01*
X316557Y136219D01*
X316616Y136188D01*
X316671Y136153D01*
X316719Y136119D01*
X316764Y136081D01*
X316802Y136046D01*
X316833Y136015D01*
X316858Y135984D01*
X316878Y135960D01*
X316896Y135942D01*
X316903Y135929D01*
X316906Y135925D01*
Y136257D01*
X317258D01*
Y133946D01*
X316868D01*
Y135207D01*
X316865Y135286D01*
X316861Y135362D01*
X316851Y135428D01*
X316840Y135490D01*
X316827Y135545D01*
X316813Y135594D01*
X316796Y135638D01*
X316778Y135676D01*
X316761Y135711D01*
X316744Y135739D01*
X316730Y135759D01*
X316716Y135780D01*
X316706Y135794D01*
X316695Y135804D01*
X316692Y135808D01*
X316688Y135811D01*
X316654Y135839D01*
X316616Y135863D01*
X316543Y135904D01*
X316471Y135932D01*
X316405Y135949D01*
X316346Y135963D01*
X316319Y135967D01*
X316298D01*
X316281Y135970D01*
X316257D01*
X316198Y135967D01*
X316146Y135960D01*
X316101Y135946D01*
X316060Y135935D01*
X316029Y135922D01*
X316005Y135908D01*
X315987Y135901D01*
X315984Y135898D01*
X315942Y135870D01*
X315908Y135839D01*
X315880Y135808D01*
X315859Y135777D01*
X315842Y135749D01*
X315832Y135728D01*
X315825Y135714D01*
X315821Y135708D01*
X315804Y135659D01*
X315794Y135604D01*
X315783Y135545D01*
X315780Y135486D01*
X315777Y135435D01*
X315773Y135410D01*
Y135390D01*
Y135376D01*
Y135362D01*
Y135355D01*
Y135352D01*
Y133946D01*
X315383D01*
Y135365D01*
Y135414D01*
Y135459D01*
X315386Y135504D01*
Y135542D01*
X315390Y135576D01*
Y135607D01*
X315393Y135659D01*
X315400Y135697D01*
X315403Y135725D01*
X315407Y135742D01*
Y135745D01*
X315421Y135808D01*
X315441Y135863D01*
X315459Y135911D01*
X315479Y135953D01*
X315500Y135987D01*
X315514Y136015D01*
X315524Y136029D01*
X315528Y136036D01*
X315562Y136081D01*
X315604Y136119D01*
X315649Y136150D01*
X315690Y136181D01*
X315732Y136201D01*
X315763Y136219D01*
X315783Y136229D01*
X315787Y136233D01*
X315790D01*
X315856Y136257D01*
X315922Y136278D01*
X315987Y136291D01*
X316046Y136298D01*
X316098Y136305D01*
X316119D01*
X316139Y136309D01*
X316174D01*
X316260Y136305D01*
D02*
G37*
G36*
X312550Y133946D02*
X312160D01*
Y136257D01*
X312550D01*
Y133946D01*
D02*
G37*
G36*
X311576D02*
X311186D01*
Y137134D01*
X311576D01*
Y133946D01*
D02*
G37*
G36*
X359889Y136305D02*
X359951Y136302D01*
X360010Y136295D01*
X360058Y136284D01*
X360103Y136274D01*
X360134Y136267D01*
X360155Y136264D01*
X360159Y136260D01*
X360162D01*
X360217Y136243D01*
X360269Y136222D01*
X360311Y136201D01*
X360345Y136184D01*
X360373Y136170D01*
X360393Y136157D01*
X360407Y136150D01*
X360411Y136146D01*
X360456Y136112D01*
X360494Y136077D01*
X360528Y136039D01*
X360552Y136005D01*
X360577Y135974D01*
X360590Y135949D01*
X360601Y135935D01*
X360604Y135929D01*
X360628Y135880D01*
X360646Y135828D01*
X360656Y135780D01*
X360663Y135735D01*
X360670Y135697D01*
X360673Y135669D01*
Y135649D01*
Y135645D01*
Y135642D01*
X360670Y135580D01*
X360659Y135521D01*
X360646Y135469D01*
X360632Y135424D01*
X360618Y135386D01*
X360604Y135355D01*
X360594Y135338D01*
X360590Y135331D01*
X360556Y135283D01*
X360514Y135238D01*
X360473Y135203D01*
X360432Y135172D01*
X360393Y135145D01*
X360366Y135127D01*
X360345Y135117D01*
X360342Y135113D01*
X360338D01*
X360304Y135100D01*
X360262Y135082D01*
X360221Y135065D01*
X360172Y135051D01*
X360072Y135020D01*
X359976Y134989D01*
X359927Y134975D01*
X359882Y134961D01*
X359841Y134951D01*
X359806Y134941D01*
X359779Y134934D01*
X359754Y134927D01*
X359741Y134923D01*
X359737D01*
X359682Y134910D01*
X359630Y134896D01*
X359582Y134882D01*
X359540Y134868D01*
X359502Y134858D01*
X359471Y134847D01*
X359444Y134837D01*
X359416Y134827D01*
X359395Y134820D01*
X359378Y134813D01*
X359354Y134803D01*
X359340Y134796D01*
X359337Y134792D01*
X359299Y134761D01*
X359267Y134726D01*
X359247Y134692D01*
X359233Y134657D01*
X359226Y134630D01*
X359219Y134602D01*
Y134588D01*
Y134581D01*
X359226Y134526D01*
X359240Y134478D01*
X359260Y134433D01*
X359285Y134395D01*
X359309Y134364D01*
X359330Y134343D01*
X359343Y134326D01*
X359350Y134322D01*
X359406Y134288D01*
X359468Y134260D01*
X359537Y134243D01*
X359603Y134229D01*
X359661Y134222D01*
X359685Y134219D01*
X359710D01*
X359727Y134215D01*
X359754D01*
X359848Y134222D01*
X359931Y134236D01*
X360003Y134253D01*
X360062Y134277D01*
X360110Y134298D01*
X360145Y134319D01*
X360165Y134333D01*
X360169Y134336D01*
X360172D01*
X360224Y134388D01*
X360262Y134443D01*
X360293Y134505D01*
X360317Y134564D01*
X360335Y134616D01*
X360342Y134637D01*
X360345Y134657D01*
X360349Y134675D01*
Y134685D01*
X360352Y134692D01*
Y134695D01*
X360739Y134633D01*
X360725Y134568D01*
X360708Y134502D01*
X360687Y134443D01*
X360666Y134391D01*
X360642Y134340D01*
X360618Y134295D01*
X360594Y134253D01*
X360566Y134215D01*
X360542Y134184D01*
X360518Y134157D01*
X360497Y134132D01*
X360480Y134112D01*
X360463Y134098D01*
X360452Y134087D01*
X360445Y134080D01*
X360442Y134077D01*
X360393Y134046D01*
X360345Y134018D01*
X360290Y133991D01*
X360235Y133970D01*
X360117Y133939D01*
X360007Y133918D01*
X359955Y133908D01*
X359906Y133904D01*
X359861Y133901D01*
X359827Y133897D01*
X359796Y133894D01*
X359751D01*
X359651Y133897D01*
X359561Y133908D01*
X359478Y133925D01*
X359406Y133942D01*
X359375Y133949D01*
X359347Y133956D01*
X359323Y133967D01*
X359302Y133973D01*
X359285Y133980D01*
X359274Y133984D01*
X359267Y133987D01*
X359264D01*
X359188Y134025D01*
X359122Y134067D01*
X359067Y134112D01*
X359019Y134157D01*
X358984Y134194D01*
X358956Y134226D01*
X358943Y134246D01*
X358936Y134250D01*
Y134253D01*
X358898Y134319D01*
X358867Y134384D01*
X358846Y134447D01*
X358832Y134502D01*
X358825Y134550D01*
X358818Y134588D01*
Y134602D01*
Y134613D01*
Y134619D01*
Y134623D01*
X358822Y134695D01*
X358832Y134761D01*
X358849Y134816D01*
X358867Y134865D01*
X358884Y134906D01*
X358901Y134934D01*
X358912Y134951D01*
X358915Y134958D01*
X358953Y135006D01*
X358994Y135048D01*
X359039Y135082D01*
X359081Y135110D01*
X359115Y135134D01*
X359146Y135148D01*
X359167Y135158D01*
X359171Y135162D01*
X359174D01*
X359209Y135176D01*
X359247Y135189D01*
X359288Y135207D01*
X359333Y135220D01*
X359426Y135252D01*
X359523Y135279D01*
X359568Y135293D01*
X359613Y135307D01*
X359651Y135317D01*
X359682Y135328D01*
X359713Y135335D01*
X359734Y135341D01*
X359748Y135345D01*
X359751D01*
X359803Y135359D01*
X359848Y135372D01*
X359889Y135383D01*
X359927Y135393D01*
X359958Y135403D01*
X359986Y135410D01*
X360010Y135417D01*
X360031Y135424D01*
X360062Y135435D01*
X360083Y135442D01*
X360093Y135445D01*
X360096D01*
X360131Y135462D01*
X360162Y135479D01*
X360190Y135497D01*
X360210Y135514D01*
X360228Y135528D01*
X360238Y135538D01*
X360245Y135545D01*
X360248Y135549D01*
X360262Y135573D01*
X360273Y135597D01*
X360286Y135642D01*
X360290Y135659D01*
X360293Y135673D01*
Y135683D01*
Y135687D01*
X360290Y135732D01*
X360276Y135770D01*
X360259Y135808D01*
X360235Y135839D01*
X360214Y135863D01*
X360197Y135880D01*
X360183Y135894D01*
X360179Y135898D01*
X360155Y135915D01*
X360131Y135929D01*
X360072Y135949D01*
X360007Y135967D01*
X359944Y135977D01*
X359886Y135984D01*
X359861D01*
X359841Y135987D01*
X359796D01*
X359713Y135984D01*
X359644Y135970D01*
X359582Y135956D01*
X359530Y135935D01*
X359492Y135918D01*
X359464Y135901D01*
X359447Y135887D01*
X359440Y135884D01*
X359399Y135842D01*
X359364Y135797D01*
X359337Y135752D01*
X359316Y135708D01*
X359302Y135669D01*
X359295Y135635D01*
X359288Y135614D01*
Y135611D01*
Y135607D01*
X358905Y135659D01*
X358922Y135739D01*
X358943Y135808D01*
X358963Y135870D01*
X358988Y135922D01*
X359008Y135960D01*
X359026Y135991D01*
X359039Y136008D01*
X359043Y136015D01*
X359084Y136063D01*
X359133Y136105D01*
X359181Y136143D01*
X359229Y136174D01*
X359278Y136198D01*
X359312Y136215D01*
X359326Y136222D01*
X359337Y136226D01*
X359343Y136229D01*
X359347D01*
X359426Y136257D01*
X359506Y136274D01*
X359589Y136288D01*
X359661Y136298D01*
X359727Y136305D01*
X359754D01*
X359779Y136309D01*
X359823D01*
X359889Y136305D01*
D02*
G37*
G36*
X354411Y135987D02*
X354452Y136039D01*
X354497Y136084D01*
X354542Y136122D01*
X354583Y136157D01*
X354621Y136184D01*
X354649Y136201D01*
X354670Y136215D01*
X354673Y136219D01*
X354677D01*
X354739Y136250D01*
X354804Y136271D01*
X354866Y136288D01*
X354925Y136298D01*
X354974Y136305D01*
X355015Y136309D01*
X355101D01*
X355153Y136302D01*
X355250Y136284D01*
X355336Y136260D01*
X355412Y136233D01*
X355447Y136219D01*
X355474Y136205D01*
X355502Y136191D01*
X355523Y136181D01*
X355540Y136170D01*
X355554Y136164D01*
X355561Y136160D01*
X355564Y136157D01*
X355647Y136094D01*
X355716Y136025D01*
X355775Y135956D01*
X355823Y135884D01*
X355861Y135822D01*
X355875Y135794D01*
X355889Y135773D01*
X355896Y135752D01*
X355903Y135739D01*
X355910Y135728D01*
Y135725D01*
X355948Y135618D01*
X355975Y135507D01*
X355996Y135403D01*
X356010Y135307D01*
X356013Y135262D01*
X356017Y135220D01*
X356020Y135186D01*
Y135155D01*
X356024Y135131D01*
Y135113D01*
Y135100D01*
Y135096D01*
X356017Y134968D01*
X356003Y134851D01*
X355996Y134796D01*
X355986Y134744D01*
X355972Y134695D01*
X355961Y134650D01*
X355951Y134613D01*
X355937Y134574D01*
X355927Y134543D01*
X355920Y134519D01*
X355910Y134499D01*
X355906Y134485D01*
X355899Y134474D01*
Y134471D01*
X355848Y134374D01*
X355789Y134288D01*
X355730Y134215D01*
X355671Y134157D01*
X355620Y134108D01*
X355599Y134091D01*
X355578Y134074D01*
X355561Y134063D01*
X355550Y134053D01*
X355544Y134049D01*
X355540Y134046D01*
X355495Y134018D01*
X355450Y133998D01*
X355364Y133960D01*
X355277Y133932D01*
X355198Y133915D01*
X355164Y133908D01*
X355132Y133901D01*
X355105Y133897D01*
X355081D01*
X355060Y133894D01*
X355032D01*
X354953Y133897D01*
X354880Y133908D01*
X354815Y133925D01*
X354749Y133949D01*
X354690Y133973D01*
X354638Y134001D01*
X354590Y134032D01*
X354545Y134067D01*
X354507Y134098D01*
X354476Y134129D01*
X354449Y134157D01*
X354424Y134184D01*
X354407Y134205D01*
X354393Y134222D01*
X354386Y134233D01*
X354383Y134236D01*
Y133946D01*
X354020D01*
Y137134D01*
X354411D01*
Y135987D01*
D02*
G37*
G36*
X351308Y136305D02*
X351384Y136298D01*
X351454Y136284D01*
X351523Y136267D01*
X351588Y136250D01*
X351647Y136226D01*
X351702Y136205D01*
X351751Y136181D01*
X351799Y136157D01*
X351837Y136132D01*
X351871Y136108D01*
X351903Y136091D01*
X351923Y136074D01*
X351941Y136060D01*
X351951Y136053D01*
X351954Y136049D01*
X352017Y135987D01*
X352072Y135922D01*
X352120Y135849D01*
X352162Y135773D01*
X352193Y135694D01*
X352224Y135614D01*
X352248Y135535D01*
X352265Y135459D01*
X352279Y135386D01*
X352293Y135321D01*
X352300Y135259D01*
X352303Y135203D01*
X352307Y135162D01*
X352310Y135127D01*
Y135106D01*
Y135103D01*
Y135100D01*
X352307Y134993D01*
X352296Y134892D01*
X352283Y134799D01*
X352265Y134713D01*
X352241Y134633D01*
X352217Y134561D01*
X352189Y134495D01*
X352162Y134433D01*
X352134Y134381D01*
X352106Y134333D01*
X352082Y134295D01*
X352058Y134264D01*
X352041Y134236D01*
X352027Y134219D01*
X352017Y134208D01*
X352013Y134205D01*
X351954Y134150D01*
X351892Y134101D01*
X351830Y134060D01*
X351764Y134025D01*
X351699Y133994D01*
X351633Y133970D01*
X351571Y133949D01*
X351509Y133932D01*
X351450Y133922D01*
X351398Y133911D01*
X351350Y133904D01*
X351308Y133897D01*
X351274D01*
X351250Y133894D01*
X351229D01*
X351118Y133901D01*
X351015Y133915D01*
X350922Y133939D01*
X350877Y133949D01*
X350839Y133963D01*
X350801Y133977D01*
X350770Y133987D01*
X350742Y134001D01*
X350718Y134011D01*
X350697Y134018D01*
X350683Y134025D01*
X350676Y134032D01*
X350673D01*
X350583Y134091D01*
X350504Y134153D01*
X350438Y134219D01*
X350383Y134284D01*
X350338Y134340D01*
X350321Y134367D01*
X350307Y134388D01*
X350296Y134405D01*
X350289Y134419D01*
X350283Y134426D01*
Y134429D01*
X350258Y134481D01*
X350238Y134533D01*
X350203Y134647D01*
X350179Y134764D01*
X350165Y134875D01*
X350158Y134927D01*
X350155Y134975D01*
X350151Y135020D01*
Y135058D01*
X350148Y135089D01*
Y135110D01*
Y135127D01*
Y135131D01*
X350151Y135231D01*
X350162Y135328D01*
X350175Y135417D01*
X350196Y135500D01*
X350217Y135576D01*
X350244Y135645D01*
X350272Y135711D01*
X350300Y135770D01*
X350327Y135822D01*
X350355Y135866D01*
X350383Y135904D01*
X350403Y135935D01*
X350424Y135963D01*
X350438Y135980D01*
X350448Y135991D01*
X350452Y135994D01*
X350510Y136049D01*
X350573Y136098D01*
X350635Y136139D01*
X350700Y136177D01*
X350766Y136205D01*
X350828Y136233D01*
X350894Y136253D01*
X350953Y136271D01*
X351011Y136281D01*
X351063Y136291D01*
X351108Y136298D01*
X351149Y136305D01*
X351184D01*
X351208Y136309D01*
X351229D01*
X351308Y136305D01*
D02*
G37*
G36*
X345108Y137141D02*
X345170Y137138D01*
X345229Y137127D01*
X345284Y137117D01*
X345332Y137103D01*
X345381Y137086D01*
X345426Y137069D01*
X345464Y137051D01*
X345502Y137034D01*
X345533Y137017D01*
X345560Y137003D01*
X345581Y136986D01*
X345598Y136975D01*
X345612Y136965D01*
X345619Y136961D01*
X345622Y136958D01*
X345664Y136920D01*
X345702Y136882D01*
X345771Y136796D01*
X345833Y136709D01*
X345882Y136623D01*
X345902Y136581D01*
X345920Y136547D01*
X345933Y136512D01*
X345947Y136485D01*
X345954Y136461D01*
X345961Y136440D01*
X345968Y136430D01*
Y136426D01*
X345989Y136360D01*
X346006Y136288D01*
X346034Y136139D01*
X346054Y135987D01*
X346061Y135915D01*
X346068Y135842D01*
X346072Y135777D01*
X346075Y135714D01*
X346078Y135659D01*
Y135611D01*
X346082Y135573D01*
Y135542D01*
Y135524D01*
Y135518D01*
X346078Y135355D01*
X346068Y135203D01*
X346054Y135065D01*
X346034Y134937D01*
X346009Y134820D01*
X345982Y134713D01*
X345954Y134619D01*
X345923Y134533D01*
X345895Y134460D01*
X345868Y134395D01*
X345840Y134343D01*
X345816Y134298D01*
X345795Y134264D01*
X345781Y134239D01*
X345771Y134226D01*
X345768Y134222D01*
X345716Y134163D01*
X345661Y134115D01*
X345602Y134070D01*
X345543Y134032D01*
X345484Y134001D01*
X345422Y133973D01*
X345363Y133953D01*
X345308Y133935D01*
X345253Y133922D01*
X345205Y133911D01*
X345160Y133904D01*
X345122Y133901D01*
X345090Y133897D01*
X345066Y133894D01*
X345046D01*
X344980Y133897D01*
X344921Y133901D01*
X344863Y133911D01*
X344807Y133922D01*
X344755Y133939D01*
X344711Y133953D01*
X344666Y133970D01*
X344628Y133987D01*
X344590Y134004D01*
X344558Y134022D01*
X344531Y134039D01*
X344510Y134053D01*
X344493Y134063D01*
X344479Y134074D01*
X344472Y134077D01*
X344469Y134080D01*
X344427Y134118D01*
X344386Y134157D01*
X344317Y134243D01*
X344258Y134329D01*
X344210Y134416D01*
X344189Y134457D01*
X344172Y134495D01*
X344158Y134526D01*
X344144Y134557D01*
X344134Y134578D01*
X344130Y134599D01*
X344123Y134609D01*
Y134613D01*
X344103Y134678D01*
X344085Y134751D01*
X344054Y134899D01*
X344034Y135051D01*
X344027Y135124D01*
X344020Y135196D01*
X344016Y135262D01*
X344013Y135324D01*
X344009Y135376D01*
X344006Y135424D01*
Y135462D01*
Y135493D01*
Y135511D01*
Y135518D01*
Y135604D01*
X344009Y135687D01*
X344013Y135763D01*
X344016Y135835D01*
X344023Y135901D01*
X344030Y135963D01*
X344037Y136018D01*
X344040Y136070D01*
X344047Y136115D01*
X344054Y136153D01*
X344061Y136188D01*
X344068Y136215D01*
X344072Y136240D01*
X344075Y136253D01*
X344078Y136264D01*
Y136267D01*
X344106Y136367D01*
X344141Y136461D01*
X344172Y136540D01*
X344203Y136609D01*
X344220Y136637D01*
X344230Y136664D01*
X344244Y136689D01*
X344255Y136706D01*
X344265Y136720D01*
X344268Y136730D01*
X344275Y136737D01*
Y136740D01*
X344324Y136810D01*
X344379Y136872D01*
X344431Y136924D01*
X344482Y136965D01*
X344528Y137000D01*
X344562Y137020D01*
X344576Y137031D01*
X344586Y137037D01*
X344593Y137041D01*
X344596D01*
X344673Y137076D01*
X344748Y137100D01*
X344824Y137120D01*
X344894Y137131D01*
X344956Y137138D01*
X344980Y137141D01*
X345004Y137145D01*
X345046D01*
X345108Y137141D01*
D02*
G37*
G36*
X322506Y136305D02*
X322568Y136302D01*
X322627Y136295D01*
X322675Y136284D01*
X322720Y136274D01*
X322751Y136267D01*
X322772Y136264D01*
X322775Y136260D01*
X322779D01*
X322834Y136243D01*
X322886Y136222D01*
X322927Y136201D01*
X322962Y136184D01*
X322989Y136170D01*
X323010Y136157D01*
X323024Y136150D01*
X323027Y136146D01*
X323072Y136112D01*
X323110Y136077D01*
X323145Y136039D01*
X323169Y136005D01*
X323193Y135974D01*
X323207Y135949D01*
X323217Y135935D01*
X323221Y135929D01*
X323245Y135880D01*
X323262Y135828D01*
X323273Y135780D01*
X323279Y135735D01*
X323286Y135697D01*
X323290Y135669D01*
Y135649D01*
Y135645D01*
Y135642D01*
X323286Y135580D01*
X323276Y135521D01*
X323262Y135469D01*
X323248Y135424D01*
X323234Y135386D01*
X323221Y135355D01*
X323210Y135338D01*
X323207Y135331D01*
X323172Y135283D01*
X323131Y135238D01*
X323089Y135203D01*
X323048Y135172D01*
X323010Y135145D01*
X322982Y135127D01*
X322962Y135117D01*
X322958Y135113D01*
X322955D01*
X322920Y135100D01*
X322879Y135082D01*
X322837Y135065D01*
X322789Y135051D01*
X322689Y135020D01*
X322592Y134989D01*
X322544Y134975D01*
X322499Y134961D01*
X322457Y134951D01*
X322423Y134941D01*
X322395Y134934D01*
X322371Y134927D01*
X322357Y134923D01*
X322354D01*
X322298Y134910D01*
X322247Y134896D01*
X322198Y134882D01*
X322157Y134868D01*
X322119Y134858D01*
X322088Y134847D01*
X322060Y134837D01*
X322032Y134827D01*
X322012Y134820D01*
X321994Y134813D01*
X321970Y134803D01*
X321956Y134796D01*
X321953Y134792D01*
X321915Y134761D01*
X321884Y134726D01*
X321863Y134692D01*
X321849Y134657D01*
X321842Y134630D01*
X321836Y134602D01*
Y134588D01*
Y134581D01*
X321842Y134526D01*
X321856Y134478D01*
X321877Y134433D01*
X321901Y134395D01*
X321925Y134364D01*
X321946Y134343D01*
X321960Y134326D01*
X321967Y134322D01*
X322022Y134288D01*
X322084Y134260D01*
X322153Y134243D01*
X322219Y134229D01*
X322278Y134222D01*
X322302Y134219D01*
X322326D01*
X322343Y134215D01*
X322371D01*
X322464Y134222D01*
X322547Y134236D01*
X322620Y134253D01*
X322678Y134277D01*
X322727Y134298D01*
X322761Y134319D01*
X322782Y134333D01*
X322785Y134336D01*
X322789D01*
X322841Y134388D01*
X322879Y134443D01*
X322910Y134505D01*
X322934Y134564D01*
X322951Y134616D01*
X322958Y134637D01*
X322962Y134657D01*
X322965Y134675D01*
Y134685D01*
X322968Y134692D01*
Y134695D01*
X323355Y134633D01*
X323342Y134568D01*
X323324Y134502D01*
X323304Y134443D01*
X323283Y134391D01*
X323259Y134340D01*
X323234Y134295D01*
X323210Y134253D01*
X323183Y134215D01*
X323158Y134184D01*
X323134Y134157D01*
X323114Y134132D01*
X323096Y134112D01*
X323079Y134098D01*
X323069Y134087D01*
X323062Y134080D01*
X323058Y134077D01*
X323010Y134046D01*
X322962Y134018D01*
X322906Y133991D01*
X322851Y133970D01*
X322734Y133939D01*
X322623Y133918D01*
X322571Y133908D01*
X322523Y133904D01*
X322478Y133901D01*
X322444Y133897D01*
X322412Y133894D01*
X322368D01*
X322267Y133897D01*
X322178Y133908D01*
X322095Y133925D01*
X322022Y133942D01*
X321991Y133949D01*
X321963Y133956D01*
X321939Y133967D01*
X321918Y133973D01*
X321901Y133980D01*
X321891Y133984D01*
X321884Y133987D01*
X321880D01*
X321804Y134025D01*
X321739Y134067D01*
X321684Y134112D01*
X321635Y134157D01*
X321601Y134194D01*
X321573Y134226D01*
X321559Y134246D01*
X321552Y134250D01*
Y134253D01*
X321514Y134319D01*
X321483Y134384D01*
X321462Y134447D01*
X321449Y134502D01*
X321442Y134550D01*
X321435Y134588D01*
Y134602D01*
Y134613D01*
Y134619D01*
Y134623D01*
X321438Y134695D01*
X321449Y134761D01*
X321466Y134816D01*
X321483Y134865D01*
X321500Y134906D01*
X321518Y134934D01*
X321528Y134951D01*
X321531Y134958D01*
X321570Y135006D01*
X321611Y135048D01*
X321656Y135082D01*
X321697Y135110D01*
X321732Y135134D01*
X321763Y135148D01*
X321784Y135158D01*
X321787Y135162D01*
X321791D01*
X321825Y135176D01*
X321863Y135189D01*
X321905Y135207D01*
X321950Y135220D01*
X322043Y135252D01*
X322140Y135279D01*
X322184Y135293D01*
X322229Y135307D01*
X322267Y135317D01*
X322298Y135328D01*
X322329Y135335D01*
X322350Y135341D01*
X322364Y135345D01*
X322368D01*
X322419Y135359D01*
X322464Y135372D01*
X322506Y135383D01*
X322544Y135393D01*
X322575Y135403D01*
X322602Y135410D01*
X322627Y135417D01*
X322647Y135424D01*
X322678Y135435D01*
X322699Y135442D01*
X322710Y135445D01*
X322713D01*
X322747Y135462D01*
X322779Y135479D01*
X322806Y135497D01*
X322827Y135514D01*
X322844Y135528D01*
X322854Y135538D01*
X322862Y135545D01*
X322865Y135549D01*
X322879Y135573D01*
X322889Y135597D01*
X322903Y135642D01*
X322906Y135659D01*
X322910Y135673D01*
Y135683D01*
Y135687D01*
X322906Y135732D01*
X322892Y135770D01*
X322875Y135808D01*
X322851Y135839D01*
X322830Y135863D01*
X322813Y135880D01*
X322799Y135894D01*
X322796Y135898D01*
X322772Y135915D01*
X322747Y135929D01*
X322689Y135949D01*
X322623Y135967D01*
X322561Y135977D01*
X322502Y135984D01*
X322478D01*
X322457Y135987D01*
X322412D01*
X322329Y135984D01*
X322260Y135970D01*
X322198Y135956D01*
X322146Y135935D01*
X322108Y135918D01*
X322081Y135901D01*
X322063Y135887D01*
X322057Y135884D01*
X322015Y135842D01*
X321981Y135797D01*
X321953Y135752D01*
X321932Y135708D01*
X321918Y135669D01*
X321912Y135635D01*
X321905Y135614D01*
Y135611D01*
Y135607D01*
X321521Y135659D01*
X321538Y135739D01*
X321559Y135808D01*
X321580Y135870D01*
X321604Y135922D01*
X321625Y135960D01*
X321642Y135991D01*
X321656Y136008D01*
X321659Y136015D01*
X321701Y136063D01*
X321749Y136105D01*
X321797Y136143D01*
X321846Y136174D01*
X321894Y136198D01*
X321929Y136215D01*
X321943Y136222D01*
X321953Y136226D01*
X321960Y136229D01*
X321963D01*
X322043Y136257D01*
X322122Y136274D01*
X322205Y136288D01*
X322278Y136298D01*
X322343Y136305D01*
X322371D01*
X322395Y136309D01*
X322440D01*
X322506Y136305D01*
D02*
G37*
G36*
X361062Y249573D02*
X361159Y249567D01*
X361249Y249553D01*
X361332Y249539D01*
X361394Y249532D01*
X361436Y249518D01*
X361450D01*
X361346Y248825D01*
X361270Y248832D01*
X361200Y248839D01*
X361138Y248846D01*
X361089D01*
X361048Y248852D01*
X360930D01*
X360874Y248846D01*
X360833Y248832D01*
X360791Y248825D01*
X360763Y248811D01*
X360743Y248804D01*
X360729Y248797D01*
X360722D01*
X360666Y248748D01*
X360625Y248700D01*
X360597Y248658D01*
X360590Y248651D01*
Y248644D01*
X360576Y248596D01*
X360569Y248533D01*
X360555Y248464D01*
Y248395D01*
X360548Y248325D01*
Y248270D01*
Y248228D01*
Y248221D01*
Y248214D01*
Y245496D01*
X361346D01*
Y244886D01*
X360548D01*
Y243270D01*
X359765Y243742D01*
Y244886D01*
X359182D01*
Y245496D01*
X359765D01*
Y248173D01*
Y248298D01*
X359772Y248416D01*
Y248519D01*
X359779Y248617D01*
X359786Y248700D01*
X359793Y248776D01*
X359799Y248846D01*
X359813Y248901D01*
X359820Y248950D01*
X359827Y248991D01*
X359834Y249026D01*
X359841Y249053D01*
X359848Y249088D01*
X359855Y249102D01*
X359897Y249178D01*
X359945Y249248D01*
X360001Y249310D01*
X360056Y249359D01*
X360112Y249400D01*
X360153Y249428D01*
X360181Y249449D01*
X360188Y249456D01*
X360285Y249497D01*
X360389Y249532D01*
X360500Y249553D01*
X360611Y249573D01*
X360708Y249580D01*
X360784Y249587D01*
X360854D01*
X361062Y249573D01*
D02*
G37*
G36*
X349135D02*
X349232Y249567D01*
X349322Y249553D01*
X349405Y249539D01*
X349468Y249532D01*
X349509Y249518D01*
X349523D01*
X349419Y248825D01*
X349343Y248832D01*
X349273Y248839D01*
X349211Y248846D01*
X349162D01*
X349121Y248852D01*
X349003D01*
X348947Y248846D01*
X348906Y248832D01*
X348864Y248825D01*
X348837Y248811D01*
X348816Y248804D01*
X348802Y248797D01*
X348795D01*
X348740Y248748D01*
X348698Y248700D01*
X348670Y248658D01*
X348663Y248651D01*
Y248644D01*
X348649Y248596D01*
X348642Y248533D01*
X348629Y248464D01*
Y248395D01*
X348622Y248325D01*
Y248270D01*
Y248228D01*
Y248221D01*
Y248214D01*
Y245496D01*
X349419D01*
Y244886D01*
X348622D01*
Y243270D01*
X347838Y243742D01*
Y244886D01*
X347256D01*
Y245496D01*
X347838D01*
Y248173D01*
Y248298D01*
X347845Y248416D01*
Y248519D01*
X347852Y248617D01*
X347859Y248700D01*
X347866Y248776D01*
X347873Y248846D01*
X347887Y248901D01*
X347893Y248950D01*
X347900Y248991D01*
X347907Y249026D01*
X347914Y249053D01*
X347921Y249088D01*
X347928Y249102D01*
X347970Y249178D01*
X348018Y249248D01*
X348074Y249310D01*
X348129Y249359D01*
X348185Y249400D01*
X348226Y249428D01*
X348254Y249449D01*
X348261Y249456D01*
X348358Y249497D01*
X348462Y249532D01*
X348573Y249553D01*
X348684Y249573D01*
X348781Y249580D01*
X348857Y249587D01*
X348927D01*
X349135Y249573D01*
D02*
G37*
G36*
X371574Y249622D02*
X371706Y249608D01*
X371830Y249587D01*
X371955Y249560D01*
X372066Y249525D01*
X372170Y249483D01*
X372267Y249449D01*
X372357Y249400D01*
X372434Y249359D01*
X372510Y249324D01*
X372565Y249282D01*
X372621Y249248D01*
X372655Y249220D01*
X372690Y249199D01*
X372704Y249185D01*
X372711Y249178D01*
X372801Y249088D01*
X372891Y248998D01*
X372968Y248894D01*
X373030Y248790D01*
X373092Y248686D01*
X373148Y248582D01*
X373231Y248388D01*
X373266Y248291D01*
X373293Y248207D01*
X373314Y248131D01*
X373335Y248062D01*
X373349Y248006D01*
X373356Y247965D01*
X373363Y247937D01*
Y247930D01*
X372593Y247826D01*
X372572Y247937D01*
X372551Y248034D01*
X372524Y248131D01*
X372496Y248214D01*
X372461Y248298D01*
X372434Y248367D01*
X372399Y248429D01*
X372364Y248492D01*
X372330Y248540D01*
X372302Y248582D01*
X372246Y248651D01*
X372212Y248693D01*
X372205Y248700D01*
X372198Y248707D01*
X372073Y248797D01*
X371948Y248866D01*
X371816Y248915D01*
X371699Y248950D01*
X371588Y248970D01*
X371546Y248977D01*
X371505D01*
X371470Y248984D01*
X371428D01*
X371324Y248977D01*
X371220Y248963D01*
X371130Y248943D01*
X371040Y248915D01*
X370880Y248852D01*
X370742Y248769D01*
X370686Y248734D01*
X370638Y248693D01*
X370596Y248658D01*
X370555Y248624D01*
X370527Y248603D01*
X370506Y248582D01*
X370499Y248568D01*
X370492Y248561D01*
X370430Y248478D01*
X370374Y248381D01*
X370326Y248277D01*
X370291Y248173D01*
X370222Y247944D01*
X370180Y247722D01*
X370166Y247618D01*
X370159Y247521D01*
X370152Y247431D01*
X370145Y247355D01*
X370138Y247292D01*
Y247244D01*
Y247209D01*
Y247202D01*
X370145Y247036D01*
X370152Y246876D01*
X370173Y246737D01*
X370194Y246606D01*
X370222Y246481D01*
X370256Y246370D01*
X370291Y246273D01*
X370326Y246183D01*
X370353Y246106D01*
X370388Y246037D01*
X370423Y245982D01*
X370451Y245940D01*
X370471Y245898D01*
X370492Y245878D01*
X370499Y245864D01*
X370506Y245857D01*
X370575Y245781D01*
X370652Y245718D01*
X370735Y245656D01*
X370811Y245607D01*
X370894Y245566D01*
X370970Y245531D01*
X371123Y245482D01*
X371262Y245448D01*
X371317Y245441D01*
X371373Y245434D01*
X371414Y245427D01*
X371470D01*
X371609Y245434D01*
X371740Y245462D01*
X371851Y245503D01*
X371948Y245545D01*
X372024Y245593D01*
X372087Y245628D01*
X372122Y245656D01*
X372136Y245670D01*
X372233Y245767D01*
X372316Y245878D01*
X372378Y245996D01*
X372434Y246106D01*
X372475Y246210D01*
X372503Y246294D01*
X372510Y246328D01*
X372517Y246349D01*
X372524Y246363D01*
Y246370D01*
X373287Y246252D01*
X373259Y246127D01*
X373217Y246002D01*
X373176Y245891D01*
X373134Y245788D01*
X373086Y245690D01*
X373030Y245600D01*
X372981Y245524D01*
X372926Y245448D01*
X372877Y245385D01*
X372829Y245330D01*
X372787Y245281D01*
X372746Y245240D01*
X372718Y245212D01*
X372690Y245191D01*
X372676Y245177D01*
X372669Y245170D01*
X372579Y245101D01*
X372482Y245039D01*
X372378Y244990D01*
X372274Y244948D01*
X372066Y244879D01*
X371872Y244830D01*
X371782Y244817D01*
X371699Y244803D01*
X371622Y244796D01*
X371560Y244789D01*
X371511Y244782D01*
X371435D01*
X371220Y244796D01*
X371012Y244824D01*
X370825Y244872D01*
X370742Y244900D01*
X370658Y244921D01*
X370589Y244948D01*
X370527Y244976D01*
X370471Y244997D01*
X370423Y245025D01*
X370381Y245039D01*
X370353Y245052D01*
X370340Y245066D01*
X370333D01*
X370152Y245184D01*
X370000Y245316D01*
X369868Y245462D01*
X369764Y245593D01*
X369681Y245718D01*
X369653Y245774D01*
X369625Y245822D01*
X369604Y245857D01*
X369591Y245884D01*
X369577Y245905D01*
Y245912D01*
X369493Y246127D01*
X369438Y246356D01*
X369397Y246578D01*
X369362Y246779D01*
X369355Y246876D01*
X369348Y246959D01*
X369341Y247036D01*
Y247105D01*
X369334Y247153D01*
Y247195D01*
Y247223D01*
Y247230D01*
X369341Y247438D01*
X369362Y247639D01*
X369389Y247826D01*
X369424Y247999D01*
X369466Y248159D01*
X369514Y248305D01*
X369570Y248436D01*
X369625Y248554D01*
X369674Y248658D01*
X369729Y248755D01*
X369778Y248832D01*
X369819Y248894D01*
X369854Y248950D01*
X369882Y248984D01*
X369903Y249005D01*
X369910Y249012D01*
X370020Y249123D01*
X370138Y249213D01*
X370263Y249296D01*
X370388Y249366D01*
X370520Y249428D01*
X370645Y249477D01*
X370769Y249518D01*
X370887Y249553D01*
X370998Y249580D01*
X371102Y249594D01*
X371199Y249608D01*
X371276Y249622D01*
X371345D01*
X371394Y249629D01*
X371435D01*
X371574Y249622D01*
D02*
G37*
G36*
X357172D02*
X357303Y249608D01*
X357428Y249587D01*
X357553Y249560D01*
X357664Y249525D01*
X357768Y249483D01*
X357865Y249449D01*
X357955Y249400D01*
X358031Y249359D01*
X358108Y249324D01*
X358163Y249282D01*
X358218Y249248D01*
X358253Y249220D01*
X358288Y249199D01*
X358302Y249185D01*
X358309Y249178D01*
X358399Y249088D01*
X358489Y248998D01*
X358565Y248894D01*
X358628Y248790D01*
X358690Y248686D01*
X358745Y248582D01*
X358829Y248388D01*
X358863Y248291D01*
X358891Y248207D01*
X358912Y248131D01*
X358933Y248062D01*
X358947Y248006D01*
X358954Y247965D01*
X358960Y247937D01*
Y247930D01*
X358191Y247826D01*
X358170Y247937D01*
X358149Y248034D01*
X358121Y248131D01*
X358094Y248214D01*
X358059Y248298D01*
X358031Y248367D01*
X357997Y248429D01*
X357962Y248492D01*
X357927Y248540D01*
X357900Y248582D01*
X357844Y248651D01*
X357809Y248693D01*
X357803Y248700D01*
X357796Y248707D01*
X357671Y248797D01*
X357546Y248866D01*
X357414Y248915D01*
X357296Y248950D01*
X357185Y248970D01*
X357144Y248977D01*
X357102D01*
X357067Y248984D01*
X357026D01*
X356922Y248977D01*
X356818Y248963D01*
X356728Y248943D01*
X356637Y248915D01*
X356478Y248852D01*
X356339Y248769D01*
X356284Y248734D01*
X356235Y248693D01*
X356194Y248658D01*
X356152Y248624D01*
X356124Y248603D01*
X356104Y248582D01*
X356097Y248568D01*
X356090Y248561D01*
X356027Y248478D01*
X355972Y248381D01*
X355923Y248277D01*
X355889Y248173D01*
X355819Y247944D01*
X355778Y247722D01*
X355764Y247618D01*
X355757Y247521D01*
X355750Y247431D01*
X355743Y247355D01*
X355736Y247292D01*
Y247244D01*
Y247209D01*
Y247202D01*
X355743Y247036D01*
X355750Y246876D01*
X355771Y246737D01*
X355792Y246606D01*
X355819Y246481D01*
X355854Y246370D01*
X355889Y246273D01*
X355923Y246183D01*
X355951Y246106D01*
X355986Y246037D01*
X356020Y245982D01*
X356048Y245940D01*
X356069Y245898D01*
X356090Y245878D01*
X356097Y245864D01*
X356104Y245857D01*
X356173Y245781D01*
X356249Y245718D01*
X356332Y245656D01*
X356409Y245607D01*
X356492Y245566D01*
X356568Y245531D01*
X356721Y245482D01*
X356859Y245448D01*
X356915Y245441D01*
X356970Y245434D01*
X357012Y245427D01*
X357067D01*
X357206Y245434D01*
X357338Y245462D01*
X357449Y245503D01*
X357546Y245545D01*
X357622Y245593D01*
X357685Y245628D01*
X357719Y245656D01*
X357733Y245670D01*
X357830Y245767D01*
X357913Y245878D01*
X357976Y245996D01*
X358031Y246106D01*
X358073Y246210D01*
X358101Y246294D01*
X358108Y246328D01*
X358115Y246349D01*
X358121Y246363D01*
Y246370D01*
X358884Y246252D01*
X358857Y246127D01*
X358815Y246002D01*
X358773Y245891D01*
X358732Y245788D01*
X358683Y245690D01*
X358628Y245600D01*
X358579Y245524D01*
X358524Y245448D01*
X358475Y245385D01*
X358427Y245330D01*
X358385Y245281D01*
X358343Y245240D01*
X358316Y245212D01*
X358288Y245191D01*
X358274Y245177D01*
X358267Y245170D01*
X358177Y245101D01*
X358080Y245039D01*
X357976Y244990D01*
X357872Y244948D01*
X357664Y244879D01*
X357470Y244830D01*
X357379Y244817D01*
X357296Y244803D01*
X357220Y244796D01*
X357158Y244789D01*
X357109Y244782D01*
X357033D01*
X356818Y244796D01*
X356610Y244824D01*
X356423Y244872D01*
X356339Y244900D01*
X356256Y244921D01*
X356187Y244948D01*
X356124Y244976D01*
X356069Y244997D01*
X356020Y245025D01*
X355979Y245039D01*
X355951Y245052D01*
X355937Y245066D01*
X355930D01*
X355750Y245184D01*
X355597Y245316D01*
X355466Y245462D01*
X355362Y245593D01*
X355278Y245718D01*
X355251Y245774D01*
X355223Y245822D01*
X355202Y245857D01*
X355188Y245884D01*
X355174Y245905D01*
Y245912D01*
X355091Y246127D01*
X355036Y246356D01*
X354994Y246578D01*
X354959Y246779D01*
X354953Y246876D01*
X354946Y246959D01*
X354939Y247036D01*
Y247105D01*
X354932Y247153D01*
Y247195D01*
Y247223D01*
Y247230D01*
X354939Y247438D01*
X354959Y247639D01*
X354987Y247826D01*
X355022Y247999D01*
X355064Y248159D01*
X355112Y248305D01*
X355168Y248436D01*
X355223Y248554D01*
X355271Y248658D01*
X355327Y248755D01*
X355376Y248832D01*
X355417Y248894D01*
X355452Y248950D01*
X355480Y248984D01*
X355500Y249005D01*
X355507Y249012D01*
X355618Y249123D01*
X355736Y249213D01*
X355861Y249296D01*
X355986Y249366D01*
X356118Y249428D01*
X356242Y249477D01*
X356367Y249518D01*
X356485Y249553D01*
X356596Y249580D01*
X356700Y249594D01*
X356797Y249608D01*
X356873Y249622D01*
X356943D01*
X356991Y249629D01*
X357033D01*
X357172Y249622D01*
D02*
G37*
G36*
X335301D02*
X335433Y249608D01*
X335558Y249587D01*
X335682Y249560D01*
X335793Y249525D01*
X335897Y249483D01*
X335994Y249449D01*
X336085Y249400D01*
X336161Y249359D01*
X336237Y249324D01*
X336293Y249282D01*
X336348Y249248D01*
X336383Y249220D01*
X336417Y249199D01*
X336431Y249185D01*
X336438Y249178D01*
X336528Y249088D01*
X336618Y248998D01*
X336695Y248894D01*
X336757Y248790D01*
X336820Y248686D01*
X336875Y248582D01*
X336958Y248388D01*
X336993Y248291D01*
X337021Y248207D01*
X337042Y248131D01*
X337062Y248062D01*
X337076Y248006D01*
X337083Y247965D01*
X337090Y247937D01*
Y247930D01*
X336320Y247826D01*
X336300Y247937D01*
X336279Y248034D01*
X336251Y248131D01*
X336223Y248214D01*
X336189Y248298D01*
X336161Y248367D01*
X336126Y248429D01*
X336091Y248492D01*
X336057Y248540D01*
X336029Y248582D01*
X335974Y248651D01*
X335939Y248693D01*
X335932Y248700D01*
X335925Y248707D01*
X335800Y248797D01*
X335676Y248866D01*
X335544Y248915D01*
X335426Y248950D01*
X335315Y248970D01*
X335273Y248977D01*
X335232D01*
X335197Y248984D01*
X335155D01*
X335051Y248977D01*
X334947Y248963D01*
X334857Y248943D01*
X334767Y248915D01*
X334608Y248852D01*
X334469Y248769D01*
X334413Y248734D01*
X334365Y248693D01*
X334323Y248658D01*
X334282Y248624D01*
X334254Y248603D01*
X334233Y248582D01*
X334226Y248568D01*
X334219Y248561D01*
X334157Y248478D01*
X334101Y248381D01*
X334053Y248277D01*
X334018Y248173D01*
X333949Y247944D01*
X333907Y247722D01*
X333893Y247618D01*
X333886Y247521D01*
X333880Y247431D01*
X333873Y247355D01*
X333866Y247292D01*
Y247244D01*
Y247209D01*
Y247202D01*
X333873Y247036D01*
X333880Y246876D01*
X333900Y246737D01*
X333921Y246606D01*
X333949Y246481D01*
X333983Y246370D01*
X334018Y246273D01*
X334053Y246183D01*
X334081Y246106D01*
X334115Y246037D01*
X334150Y245982D01*
X334178Y245940D01*
X334198Y245898D01*
X334219Y245878D01*
X334226Y245864D01*
X334233Y245857D01*
X334302Y245781D01*
X334379Y245718D01*
X334462Y245656D01*
X334538Y245607D01*
X334622Y245566D01*
X334698Y245531D01*
X334850Y245482D01*
X334989Y245448D01*
X335044Y245441D01*
X335100Y245434D01*
X335141Y245427D01*
X335197D01*
X335336Y245434D01*
X335467Y245462D01*
X335578Y245503D01*
X335676Y245545D01*
X335752Y245593D01*
X335814Y245628D01*
X335849Y245656D01*
X335863Y245670D01*
X335960Y245767D01*
X336043Y245878D01*
X336105Y245996D01*
X336161Y246106D01*
X336203Y246210D01*
X336230Y246294D01*
X336237Y246328D01*
X336244Y246349D01*
X336251Y246363D01*
Y246370D01*
X337014Y246252D01*
X336986Y246127D01*
X336944Y246002D01*
X336903Y245891D01*
X336861Y245788D01*
X336813Y245690D01*
X336757Y245600D01*
X336709Y245524D01*
X336653Y245448D01*
X336605Y245385D01*
X336556Y245330D01*
X336515Y245281D01*
X336473Y245240D01*
X336445Y245212D01*
X336417Y245191D01*
X336404Y245177D01*
X336397Y245170D01*
X336306Y245101D01*
X336209Y245039D01*
X336105Y244990D01*
X336001Y244948D01*
X335793Y244879D01*
X335599Y244830D01*
X335509Y244817D01*
X335426Y244803D01*
X335350Y244796D01*
X335287Y244789D01*
X335239Y244782D01*
X335162D01*
X334947Y244796D01*
X334739Y244824D01*
X334552Y244872D01*
X334469Y244900D01*
X334386Y244921D01*
X334316Y244948D01*
X334254Y244976D01*
X334198Y244997D01*
X334150Y245025D01*
X334108Y245039D01*
X334081Y245052D01*
X334067Y245066D01*
X334060D01*
X333880Y245184D01*
X333727Y245316D01*
X333595Y245462D01*
X333491Y245593D01*
X333408Y245718D01*
X333380Y245774D01*
X333353Y245822D01*
X333332Y245857D01*
X333318Y245884D01*
X333304Y245905D01*
Y245912D01*
X333221Y246127D01*
X333165Y246356D01*
X333124Y246578D01*
X333089Y246779D01*
X333082Y246876D01*
X333075Y246959D01*
X333068Y247036D01*
Y247105D01*
X333061Y247153D01*
Y247195D01*
Y247223D01*
Y247230D01*
X333068Y247438D01*
X333089Y247639D01*
X333117Y247826D01*
X333151Y247999D01*
X333193Y248159D01*
X333242Y248305D01*
X333297Y248436D01*
X333353Y248554D01*
X333401Y248658D01*
X333456Y248755D01*
X333505Y248832D01*
X333547Y248894D01*
X333581Y248950D01*
X333609Y248984D01*
X333630Y249005D01*
X333637Y249012D01*
X333748Y249123D01*
X333866Y249213D01*
X333990Y249296D01*
X334115Y249366D01*
X334247Y249428D01*
X334372Y249477D01*
X334497Y249518D01*
X334614Y249553D01*
X334725Y249580D01*
X334829Y249594D01*
X334927Y249608D01*
X335003Y249622D01*
X335072D01*
X335121Y249629D01*
X335162D01*
X335301Y249622D01*
D02*
G37*
G36*
X346500Y246675D02*
Y246578D01*
Y246488D01*
X346493Y246398D01*
Y246321D01*
X346486Y246252D01*
Y246190D01*
X346479Y246086D01*
X346465Y246009D01*
X346458Y245954D01*
X346451Y245919D01*
Y245912D01*
X346423Y245788D01*
X346382Y245676D01*
X346347Y245579D01*
X346306Y245496D01*
X346264Y245427D01*
X346236Y245371D01*
X346215Y245344D01*
X346208Y245330D01*
X346139Y245240D01*
X346056Y245163D01*
X345966Y245101D01*
X345883Y245039D01*
X345799Y244997D01*
X345737Y244962D01*
X345695Y244942D01*
X345688Y244935D01*
X345681D01*
X345550Y244886D01*
X345418Y244844D01*
X345286Y244817D01*
X345168Y244803D01*
X345064Y244789D01*
X345023D01*
X344981Y244782D01*
X344912D01*
X344739Y244789D01*
X344572Y244817D01*
X344420Y244851D01*
X344274Y244900D01*
X344142Y244962D01*
X344024Y245025D01*
X343913Y245094D01*
X343816Y245163D01*
X343726Y245240D01*
X343650Y245309D01*
X343587Y245371D01*
X343539Y245434D01*
X343497Y245482D01*
X343463Y245517D01*
X343449Y245545D01*
X343442Y245552D01*
Y244886D01*
X342734D01*
Y249525D01*
X343518D01*
Y246994D01*
X343525Y246835D01*
X343532Y246682D01*
X343553Y246550D01*
X343573Y246425D01*
X343601Y246315D01*
X343629Y246217D01*
X343664Y246127D01*
X343698Y246051D01*
X343733Y245982D01*
X343768Y245926D01*
X343795Y245884D01*
X343823Y245843D01*
X343844Y245815D01*
X343865Y245794D01*
X343872Y245788D01*
X343879Y245781D01*
X343948Y245725D01*
X344024Y245676D01*
X344170Y245593D01*
X344315Y245538D01*
X344447Y245503D01*
X344565Y245475D01*
X344621Y245469D01*
X344662D01*
X344697Y245462D01*
X344745D01*
X344863Y245469D01*
X344967Y245482D01*
X345057Y245510D01*
X345141Y245531D01*
X345203Y245559D01*
X345252Y245586D01*
X345286Y245600D01*
X345293Y245607D01*
X345376Y245663D01*
X345446Y245725D01*
X345501Y245788D01*
X345543Y245850D01*
X345578Y245905D01*
X345598Y245947D01*
X345612Y245975D01*
X345619Y245989D01*
X345654Y246086D01*
X345675Y246197D01*
X345695Y246315D01*
X345702Y246432D01*
X345709Y246536D01*
X345716Y246585D01*
Y246626D01*
Y246654D01*
Y246682D01*
Y246696D01*
Y246703D01*
Y249525D01*
X346500D01*
Y246675D01*
D02*
G37*
G36*
X351680Y249622D02*
X351839Y249608D01*
X351985Y249580D01*
X352116Y249553D01*
X352220Y249525D01*
X352269Y249511D01*
X352304Y249497D01*
X352331Y249490D01*
X352352Y249483D01*
X352366Y249477D01*
X352373D01*
X352526Y249407D01*
X352678Y249331D01*
X352817Y249241D01*
X352948Y249151D01*
X353060Y249074D01*
X353101Y249033D01*
X353143Y249005D01*
X353177Y248977D01*
X353198Y248956D01*
X353212Y248950D01*
X353219Y248943D01*
X353233Y249067D01*
X353254Y249178D01*
X353281Y249275D01*
X353309Y249359D01*
X353330Y249428D01*
X353351Y249483D01*
X353365Y249511D01*
X353372Y249525D01*
X354190D01*
X354141Y249428D01*
X354100Y249324D01*
X354065Y249234D01*
X354037Y249151D01*
X354016Y249074D01*
X354002Y249019D01*
X353996Y248984D01*
Y248970D01*
X353989Y248908D01*
X353982Y248825D01*
X353975Y248734D01*
X353968Y248631D01*
X353961Y248519D01*
Y248402D01*
X353954Y248166D01*
Y248055D01*
X353947Y247944D01*
Y247847D01*
Y247757D01*
Y247687D01*
Y247632D01*
Y247597D01*
Y247583D01*
Y246536D01*
Y246439D01*
Y246356D01*
X353940Y246280D01*
Y246203D01*
X353933Y246079D01*
X353926Y245982D01*
X353919Y245905D01*
X353912Y245857D01*
X353905Y245822D01*
Y245815D01*
X353878Y245697D01*
X353836Y245593D01*
X353795Y245503D01*
X353753Y245427D01*
X353718Y245364D01*
X353684Y245316D01*
X353663Y245288D01*
X353656Y245281D01*
X353580Y245205D01*
X353496Y245136D01*
X353406Y245073D01*
X353316Y245025D01*
X353233Y244983D01*
X353170Y244955D01*
X353143Y244942D01*
X353122Y244935D01*
X353115Y244928D01*
X353108D01*
X352962Y244879D01*
X352803Y244844D01*
X352643Y244817D01*
X352491Y244803D01*
X352359Y244789D01*
X352297D01*
X352248Y244782D01*
X352151D01*
X351936Y244789D01*
X351735Y244810D01*
X351555Y244837D01*
X351472Y244851D01*
X351402Y244865D01*
X351333Y244879D01*
X351270Y244893D01*
X351222Y244907D01*
X351180Y244921D01*
X351146Y244935D01*
X351118Y244942D01*
X351104Y244948D01*
X351097D01*
X350938Y245018D01*
X350799Y245094D01*
X350681Y245170D01*
X350584Y245247D01*
X350508Y245316D01*
X350452Y245371D01*
X350418Y245406D01*
X350404Y245413D01*
Y245420D01*
X350321Y245538D01*
X350251Y245670D01*
X350196Y245801D01*
X350147Y245926D01*
X350112Y246037D01*
X350099Y246086D01*
X350085Y246127D01*
X350078Y246162D01*
X350071Y246190D01*
X350064Y246203D01*
Y246210D01*
X350834Y246315D01*
X350861Y246224D01*
X350889Y246141D01*
X350945Y246002D01*
X351014Y245878D01*
X351076Y245788D01*
X351132Y245718D01*
X351180Y245663D01*
X351208Y245635D01*
X351222Y245628D01*
X351333Y245566D01*
X351465Y245517D01*
X351596Y245482D01*
X351728Y245455D01*
X351853Y245441D01*
X351902D01*
X351950Y245434D01*
X352040D01*
X352248Y245448D01*
X352429Y245475D01*
X352581Y245517D01*
X352706Y245566D01*
X352803Y245621D01*
X352838Y245642D01*
X352872Y245663D01*
X352900Y245676D01*
X352914Y245690D01*
X352928Y245704D01*
X353004Y245788D01*
X353060Y245891D01*
X353101Y246002D01*
X353129Y246113D01*
X353143Y246217D01*
X353157Y246301D01*
Y246328D01*
Y246356D01*
Y246370D01*
Y246377D01*
Y246398D01*
Y246425D01*
Y246495D01*
X353150Y246523D01*
Y246550D01*
Y246571D01*
Y246578D01*
X353060Y246606D01*
X352962Y246633D01*
X352851Y246661D01*
X352741Y246689D01*
X352512Y246737D01*
X352283Y246779D01*
X352172Y246793D01*
X352075Y246807D01*
X351985Y246821D01*
X351902Y246835D01*
X351839Y246842D01*
X351791Y246848D01*
X351763Y246855D01*
X351749D01*
X351582Y246876D01*
X351444Y246897D01*
X351319Y246918D01*
X351222Y246932D01*
X351146Y246952D01*
X351090Y246959D01*
X351062Y246973D01*
X351049D01*
X350938Y247008D01*
X350827Y247050D01*
X350730Y247091D01*
X350646Y247133D01*
X350577Y247167D01*
X350528Y247202D01*
X350494Y247223D01*
X350480Y247230D01*
X350390Y247299D01*
X350313Y247369D01*
X350244Y247445D01*
X350189Y247514D01*
X350140Y247583D01*
X350106Y247632D01*
X350085Y247667D01*
X350078Y247680D01*
X350029Y247792D01*
X349988Y247896D01*
X349960Y247999D01*
X349946Y248097D01*
X349932Y248180D01*
X349925Y248249D01*
Y248291D01*
Y248298D01*
Y248305D01*
X349932Y248409D01*
X349946Y248513D01*
X349960Y248610D01*
X349988Y248700D01*
X350057Y248866D01*
X350133Y248998D01*
X350168Y249060D01*
X350203Y249109D01*
X350237Y249158D01*
X350272Y249192D01*
X350300Y249220D01*
X350313Y249241D01*
X350327Y249255D01*
X350334Y249261D01*
X350418Y249324D01*
X350501Y249379D01*
X350598Y249435D01*
X350688Y249477D01*
X350882Y249539D01*
X351076Y249580D01*
X351160Y249601D01*
X351243Y249608D01*
X351319Y249615D01*
X351381Y249622D01*
X351430Y249629D01*
X351506D01*
X351680Y249622D01*
D02*
G37*
G36*
X339864Y249615D02*
X340072Y249587D01*
X340259Y249539D01*
X340349Y249518D01*
X340425Y249490D01*
X340502Y249463D01*
X340564Y249442D01*
X340620Y249414D01*
X340668Y249393D01*
X340710Y249379D01*
X340737Y249366D01*
X340751Y249352D01*
X340758D01*
X340938Y249234D01*
X341098Y249109D01*
X341230Y248977D01*
X341341Y248846D01*
X341431Y248734D01*
X341465Y248679D01*
X341493Y248637D01*
X341514Y248603D01*
X341528Y248575D01*
X341542Y248561D01*
Y248554D01*
X341590Y248450D01*
X341632Y248346D01*
X341701Y248117D01*
X341750Y247882D01*
X341777Y247660D01*
X341791Y247556D01*
X341798Y247459D01*
X341805Y247369D01*
Y247292D01*
X341812Y247230D01*
Y247188D01*
Y247153D01*
Y247147D01*
X341805Y246945D01*
X341785Y246751D01*
X341757Y246571D01*
X341715Y246405D01*
X341674Y246252D01*
X341618Y246113D01*
X341563Y245982D01*
X341507Y245864D01*
X341452Y245760D01*
X341396Y245670D01*
X341341Y245593D01*
X341299Y245531D01*
X341258Y245475D01*
X341230Y245441D01*
X341209Y245420D01*
X341202Y245413D01*
X341084Y245302D01*
X340959Y245205D01*
X340835Y245122D01*
X340703Y245046D01*
X340571Y244990D01*
X340446Y244935D01*
X340314Y244893D01*
X340197Y244858D01*
X340079Y244837D01*
X339975Y244817D01*
X339884Y244803D01*
X339801Y244789D01*
X339732D01*
X339683Y244782D01*
X339642D01*
X339482Y244789D01*
X339330Y244803D01*
X339191Y244830D01*
X339052Y244865D01*
X338921Y244900D01*
X338803Y244948D01*
X338692Y244990D01*
X338595Y245039D01*
X338498Y245087D01*
X338421Y245136D01*
X338352Y245184D01*
X338290Y245219D01*
X338248Y245254D01*
X338213Y245281D01*
X338193Y245295D01*
X338186Y245302D01*
X338061Y245427D01*
X337950Y245559D01*
X337853Y245704D01*
X337770Y245857D01*
X337707Y246016D01*
X337645Y246176D01*
X337596Y246335D01*
X337562Y246488D01*
X337534Y246633D01*
X337506Y246765D01*
X337492Y246890D01*
X337485Y247001D01*
X337478Y247084D01*
X337471Y247153D01*
Y247195D01*
Y247202D01*
Y247209D01*
X337478Y247424D01*
X337499Y247625D01*
X337527Y247812D01*
X337562Y247986D01*
X337610Y248145D01*
X337659Y248291D01*
X337714Y248423D01*
X337770Y248547D01*
X337825Y248651D01*
X337881Y248748D01*
X337929Y248825D01*
X337978Y248887D01*
X338012Y248943D01*
X338040Y248977D01*
X338061Y248998D01*
X338068Y249005D01*
X338186Y249116D01*
X338310Y249213D01*
X338435Y249296D01*
X338567Y249366D01*
X338699Y249428D01*
X338830Y249477D01*
X338955Y249518D01*
X339080Y249553D01*
X339198Y249573D01*
X339302Y249594D01*
X339399Y249608D01*
X339482Y249622D01*
X339552D01*
X339600Y249629D01*
X339642D01*
X339864Y249615D01*
D02*
G37*
G36*
X326619Y249046D02*
X326696Y249137D01*
X326779Y249220D01*
X326862Y249296D01*
X326945Y249352D01*
X327015Y249400D01*
X327077Y249442D01*
X327112Y249463D01*
X327126Y249470D01*
X327243Y249525D01*
X327368Y249560D01*
X327486Y249587D01*
X327597Y249608D01*
X327694Y249622D01*
X327763Y249629D01*
X327833D01*
X327937Y249622D01*
X328034Y249615D01*
X328221Y249580D01*
X328395Y249532D01*
X328547Y249477D01*
X328616Y249449D01*
X328679Y249428D01*
X328727Y249400D01*
X328776Y249379D01*
X328811Y249359D01*
X328838Y249345D01*
X328852Y249331D01*
X328859D01*
X329033Y249206D01*
X329178Y249067D01*
X329310Y248922D01*
X329414Y248776D01*
X329497Y248651D01*
X329525Y248596D01*
X329553Y248547D01*
X329573Y248513D01*
X329587Y248485D01*
X329601Y248464D01*
Y248457D01*
X329684Y248235D01*
X329747Y248013D01*
X329795Y247798D01*
X329823Y247604D01*
X329837Y247514D01*
X329844Y247431D01*
X329851Y247355D01*
Y247292D01*
X329858Y247244D01*
Y247209D01*
Y247181D01*
Y247174D01*
X329851Y246932D01*
X329823Y246703D01*
X329781Y246495D01*
X329761Y246405D01*
X329740Y246315D01*
X329719Y246238D01*
X329698Y246162D01*
X329677Y246099D01*
X329657Y246051D01*
X329643Y246009D01*
X329629Y245982D01*
X329622Y245961D01*
Y245954D01*
X329525Y245760D01*
X329421Y245586D01*
X329303Y245441D01*
X329192Y245316D01*
X329095Y245219D01*
X329012Y245149D01*
X328977Y245129D01*
X328956Y245108D01*
X328942Y245094D01*
X328935D01*
X328852Y245039D01*
X328762Y244990D01*
X328582Y244914D01*
X328408Y244858D01*
X328242Y244824D01*
X328166Y244810D01*
X328103Y244796D01*
X328041Y244789D01*
X327985D01*
X327944Y244782D01*
X327888D01*
X327729Y244789D01*
X327576Y244810D01*
X327445Y244837D01*
X327334Y244872D01*
X327243Y244907D01*
X327174Y244935D01*
X327132Y244955D01*
X327126Y244962D01*
X327119D01*
X327001Y245039D01*
X326897Y245122D01*
X326800Y245212D01*
X326716Y245295D01*
X326647Y245371D01*
X326592Y245441D01*
X326564Y245482D01*
X326550Y245489D01*
Y244886D01*
X325836D01*
Y251300D01*
X326619D01*
Y249046D01*
D02*
G37*
G36*
X322965Y249615D02*
X323173Y249587D01*
X323360Y249539D01*
X323451Y249518D01*
X323527Y249490D01*
X323603Y249463D01*
X323665Y249442D01*
X323721Y249414D01*
X323769Y249393D01*
X323811Y249379D01*
X323839Y249366D01*
X323853Y249352D01*
X323860D01*
X324040Y249234D01*
X324199Y249109D01*
X324331Y248977D01*
X324442Y248846D01*
X324532Y248734D01*
X324567Y248679D01*
X324595Y248637D01*
X324615Y248603D01*
X324629Y248575D01*
X324643Y248561D01*
Y248554D01*
X324692Y248450D01*
X324733Y248346D01*
X324803Y248117D01*
X324851Y247882D01*
X324879Y247660D01*
X324893Y247556D01*
X324900Y247459D01*
X324907Y247369D01*
Y247292D01*
X324914Y247230D01*
Y247188D01*
Y247153D01*
Y247147D01*
X324907Y246945D01*
X324886Y246751D01*
X324858Y246571D01*
X324817Y246405D01*
X324775Y246252D01*
X324719Y246113D01*
X324664Y245982D01*
X324608Y245864D01*
X324553Y245760D01*
X324497Y245670D01*
X324442Y245593D01*
X324400Y245531D01*
X324359Y245475D01*
X324331Y245441D01*
X324310Y245420D01*
X324303Y245413D01*
X324185Y245302D01*
X324061Y245205D01*
X323936Y245122D01*
X323804Y245046D01*
X323672Y244990D01*
X323548Y244935D01*
X323416Y244893D01*
X323298Y244858D01*
X323180Y244837D01*
X323076Y244817D01*
X322986Y244803D01*
X322903Y244789D01*
X322833D01*
X322785Y244782D01*
X322743D01*
X322584Y244789D01*
X322431Y244803D01*
X322292Y244830D01*
X322154Y244865D01*
X322022Y244900D01*
X321904Y244948D01*
X321793Y244990D01*
X321696Y245039D01*
X321599Y245087D01*
X321523Y245136D01*
X321453Y245184D01*
X321391Y245219D01*
X321349Y245254D01*
X321315Y245281D01*
X321294Y245295D01*
X321287Y245302D01*
X321162Y245427D01*
X321051Y245559D01*
X320954Y245704D01*
X320871Y245857D01*
X320808Y246016D01*
X320746Y246176D01*
X320698Y246335D01*
X320663Y246488D01*
X320635Y246633D01*
X320607Y246765D01*
X320594Y246890D01*
X320587Y247001D01*
X320580Y247084D01*
X320573Y247153D01*
Y247195D01*
Y247202D01*
Y247209D01*
X320580Y247424D01*
X320601Y247625D01*
X320628Y247812D01*
X320663Y247986D01*
X320711Y248145D01*
X320760Y248291D01*
X320816Y248423D01*
X320871Y248547D01*
X320926Y248651D01*
X320982Y248748D01*
X321030Y248825D01*
X321079Y248887D01*
X321114Y248943D01*
X321141Y248977D01*
X321162Y248998D01*
X321169Y249005D01*
X321287Y249116D01*
X321412Y249213D01*
X321537Y249296D01*
X321668Y249366D01*
X321800Y249428D01*
X321932Y249477D01*
X322057Y249518D01*
X322182Y249553D01*
X322299Y249573D01*
X322403Y249594D01*
X322500Y249608D01*
X322584Y249622D01*
X322653D01*
X322702Y249629D01*
X322743D01*
X322965Y249615D01*
D02*
G37*
G36*
X317979Y243881D02*
X320087D01*
Y243125D01*
X315025D01*
Y243881D01*
X317133D01*
Y249525D01*
X317979D01*
Y243881D01*
D02*
G37*
G36*
X368051Y245496D02*
X368953D01*
Y244886D01*
X368051D01*
Y244463D01*
X368058Y244317D01*
X368072Y244200D01*
X368100Y244102D01*
X368128Y244019D01*
X368148Y243964D01*
X368176Y243922D01*
X368190Y243901D01*
X368197Y243894D01*
X368259Y243846D01*
X368335Y243804D01*
X368419Y243777D01*
X368502Y243763D01*
X368578Y243749D01*
X368648Y243742D01*
X368703D01*
X368870Y243749D01*
X368946Y243756D01*
X369015Y243763D01*
X369077Y243777D01*
X369126Y243783D01*
X369154Y243790D01*
X369168D01*
X369286Y243104D01*
X369140Y243076D01*
X369001Y243055D01*
X368876Y243041D01*
X368765Y243028D01*
X368675D01*
X368606Y243021D01*
X368550D01*
X368370Y243028D01*
X368211Y243048D01*
X368072Y243083D01*
X367954Y243118D01*
X367864Y243153D01*
X367802Y243187D01*
X367760Y243208D01*
X367746Y243215D01*
X367649Y243291D01*
X367566Y243367D01*
X367496Y243451D01*
X367441Y243534D01*
X367399Y243603D01*
X367372Y243659D01*
X367358Y243693D01*
X367351Y243700D01*
Y243707D01*
X367323Y243804D01*
X367302Y243915D01*
X367289Y244026D01*
X367281Y244137D01*
X367275Y244241D01*
X367268Y244324D01*
Y244359D01*
Y244380D01*
Y244394D01*
Y244401D01*
Y244886D01*
X366574D01*
Y245496D01*
X367268D01*
Y249525D01*
X368051D01*
Y245496D01*
D02*
G37*
G36*
X365569D02*
X366470D01*
Y244886D01*
X365569D01*
Y244463D01*
X365576Y244317D01*
X365590Y244200D01*
X365617Y244102D01*
X365645Y244019D01*
X365666Y243964D01*
X365694Y243922D01*
X365708Y243901D01*
X365714Y243894D01*
X365777Y243846D01*
X365853Y243804D01*
X365936Y243777D01*
X366020Y243763D01*
X366096Y243749D01*
X366165Y243742D01*
X366221D01*
X366387Y243749D01*
X366463Y243756D01*
X366533Y243763D01*
X366595Y243777D01*
X366644Y243783D01*
X366671Y243790D01*
X366685D01*
X366803Y243104D01*
X366657Y243076D01*
X366519Y243055D01*
X366394Y243041D01*
X366283Y243028D01*
X366193D01*
X366124Y243021D01*
X366068D01*
X365888Y243028D01*
X365728Y243048D01*
X365590Y243083D01*
X365472Y243118D01*
X365382Y243153D01*
X365319Y243187D01*
X365278Y243208D01*
X365264Y243215D01*
X365167Y243291D01*
X365083Y243367D01*
X365014Y243451D01*
X364959Y243534D01*
X364917Y243603D01*
X364889Y243659D01*
X364875Y243693D01*
X364868Y243700D01*
Y243707D01*
X364841Y243804D01*
X364820Y243915D01*
X364806Y244026D01*
X364799Y244137D01*
X364792Y244241D01*
X364785Y244324D01*
Y244359D01*
Y244380D01*
Y244394D01*
Y244401D01*
Y244886D01*
X364092D01*
Y245496D01*
X364785D01*
Y249525D01*
X365569D01*
Y245496D01*
D02*
G37*
G36*
X576062Y249573D02*
X576159Y249567D01*
X576249Y249553D01*
X576332Y249539D01*
X576394Y249532D01*
X576436Y249518D01*
X576450D01*
X576346Y248825D01*
X576270Y248832D01*
X576200Y248839D01*
X576138Y248846D01*
X576089D01*
X576048Y248852D01*
X575930D01*
X575874Y248846D01*
X575833Y248832D01*
X575791Y248825D01*
X575763Y248811D01*
X575743Y248804D01*
X575729Y248797D01*
X575722D01*
X575666Y248748D01*
X575625Y248700D01*
X575597Y248658D01*
X575590Y248651D01*
Y248644D01*
X575576Y248596D01*
X575569Y248533D01*
X575555Y248464D01*
Y248395D01*
X575549Y248325D01*
Y248270D01*
Y248228D01*
Y248221D01*
Y248214D01*
Y245496D01*
X576346D01*
Y244886D01*
X575549D01*
Y243270D01*
X574765Y243742D01*
Y244886D01*
X574182D01*
Y245496D01*
X574765D01*
Y248173D01*
Y248298D01*
X574772Y248416D01*
Y248519D01*
X574779Y248617D01*
X574786Y248700D01*
X574793Y248776D01*
X574800Y248846D01*
X574813Y248901D01*
X574820Y248950D01*
X574827Y248991D01*
X574834Y249026D01*
X574841Y249053D01*
X574848Y249088D01*
X574855Y249102D01*
X574897Y249178D01*
X574945Y249248D01*
X575001Y249310D01*
X575056Y249359D01*
X575112Y249400D01*
X575153Y249428D01*
X575181Y249449D01*
X575188Y249456D01*
X575285Y249497D01*
X575389Y249532D01*
X575500Y249553D01*
X575611Y249573D01*
X575708Y249580D01*
X575784Y249587D01*
X575854D01*
X576062Y249573D01*
D02*
G37*
G36*
X564135D02*
X564232Y249567D01*
X564322Y249553D01*
X564405Y249539D01*
X564468Y249532D01*
X564509Y249518D01*
X564523D01*
X564419Y248825D01*
X564343Y248832D01*
X564273Y248839D01*
X564211Y248846D01*
X564162D01*
X564121Y248852D01*
X564003D01*
X563947Y248846D01*
X563906Y248832D01*
X563864Y248825D01*
X563837Y248811D01*
X563816Y248804D01*
X563802Y248797D01*
X563795D01*
X563740Y248748D01*
X563698Y248700D01*
X563670Y248658D01*
X563663Y248651D01*
Y248644D01*
X563649Y248596D01*
X563642Y248533D01*
X563629Y248464D01*
Y248395D01*
X563622Y248325D01*
Y248270D01*
Y248228D01*
Y248221D01*
Y248214D01*
Y245496D01*
X564419D01*
Y244886D01*
X563622D01*
Y243270D01*
X562838Y243742D01*
Y244886D01*
X562256D01*
Y245496D01*
X562838D01*
Y248173D01*
Y248298D01*
X562845Y248416D01*
Y248519D01*
X562852Y248617D01*
X562859Y248700D01*
X562866Y248776D01*
X562873Y248846D01*
X562887Y248901D01*
X562893Y248950D01*
X562901Y248991D01*
X562907Y249026D01*
X562914Y249053D01*
X562921Y249088D01*
X562928Y249102D01*
X562970Y249178D01*
X563018Y249248D01*
X563074Y249310D01*
X563129Y249359D01*
X563185Y249400D01*
X563226Y249428D01*
X563254Y249449D01*
X563261Y249456D01*
X563358Y249497D01*
X563462Y249532D01*
X563573Y249553D01*
X563684Y249573D01*
X563781Y249580D01*
X563857Y249587D01*
X563927D01*
X564135Y249573D01*
D02*
G37*
G36*
X586574Y249622D02*
X586706Y249608D01*
X586830Y249587D01*
X586955Y249560D01*
X587066Y249525D01*
X587170Y249483D01*
X587267Y249449D01*
X587357Y249400D01*
X587434Y249359D01*
X587510Y249324D01*
X587565Y249282D01*
X587621Y249248D01*
X587656Y249220D01*
X587690Y249199D01*
X587704Y249185D01*
X587711Y249178D01*
X587801Y249088D01*
X587891Y248998D01*
X587968Y248894D01*
X588030Y248790D01*
X588092Y248686D01*
X588148Y248582D01*
X588231Y248388D01*
X588266Y248291D01*
X588293Y248207D01*
X588314Y248131D01*
X588335Y248062D01*
X588349Y248006D01*
X588356Y247965D01*
X588363Y247937D01*
Y247930D01*
X587593Y247826D01*
X587572Y247937D01*
X587552Y248034D01*
X587524Y248131D01*
X587496Y248214D01*
X587461Y248298D01*
X587434Y248367D01*
X587399Y248429D01*
X587364Y248492D01*
X587330Y248540D01*
X587302Y248582D01*
X587247Y248651D01*
X587212Y248693D01*
X587205Y248700D01*
X587198Y248707D01*
X587073Y248797D01*
X586948Y248866D01*
X586816Y248915D01*
X586699Y248950D01*
X586588Y248970D01*
X586546Y248977D01*
X586505D01*
X586470Y248984D01*
X586428D01*
X586324Y248977D01*
X586220Y248963D01*
X586130Y248943D01*
X586040Y248915D01*
X585880Y248852D01*
X585742Y248769D01*
X585686Y248734D01*
X585638Y248693D01*
X585596Y248658D01*
X585555Y248624D01*
X585527Y248603D01*
X585506Y248582D01*
X585499Y248568D01*
X585492Y248561D01*
X585430Y248478D01*
X585374Y248381D01*
X585326Y248277D01*
X585291Y248173D01*
X585222Y247944D01*
X585180Y247722D01*
X585166Y247618D01*
X585159Y247521D01*
X585152Y247431D01*
X585145Y247355D01*
X585139Y247292D01*
Y247244D01*
Y247209D01*
Y247202D01*
X585145Y247036D01*
X585152Y246876D01*
X585173Y246737D01*
X585194Y246606D01*
X585222Y246481D01*
X585256Y246370D01*
X585291Y246273D01*
X585326Y246183D01*
X585353Y246106D01*
X585388Y246037D01*
X585423Y245982D01*
X585451Y245940D01*
X585471Y245898D01*
X585492Y245878D01*
X585499Y245864D01*
X585506Y245857D01*
X585575Y245781D01*
X585652Y245718D01*
X585735Y245656D01*
X585811Y245607D01*
X585894Y245566D01*
X585971Y245531D01*
X586123Y245482D01*
X586262Y245448D01*
X586317Y245441D01*
X586373Y245434D01*
X586414Y245427D01*
X586470D01*
X586609Y245434D01*
X586740Y245462D01*
X586851Y245503D01*
X586948Y245545D01*
X587025Y245593D01*
X587087Y245628D01*
X587122Y245656D01*
X587136Y245670D01*
X587233Y245767D01*
X587316Y245878D01*
X587378Y245996D01*
X587434Y246106D01*
X587475Y246210D01*
X587503Y246294D01*
X587510Y246328D01*
X587517Y246349D01*
X587524Y246363D01*
Y246370D01*
X588287Y246252D01*
X588259Y246127D01*
X588217Y246002D01*
X588176Y245891D01*
X588134Y245788D01*
X588086Y245690D01*
X588030Y245600D01*
X587981Y245524D01*
X587926Y245448D01*
X587878Y245385D01*
X587829Y245330D01*
X587787Y245281D01*
X587746Y245240D01*
X587718Y245212D01*
X587690Y245191D01*
X587676Y245177D01*
X587669Y245170D01*
X587579Y245101D01*
X587482Y245039D01*
X587378Y244990D01*
X587274Y244948D01*
X587066Y244879D01*
X586872Y244830D01*
X586782Y244817D01*
X586699Y244803D01*
X586622Y244796D01*
X586560Y244789D01*
X586511Y244782D01*
X586435D01*
X586220Y244796D01*
X586012Y244824D01*
X585825Y244872D01*
X585742Y244900D01*
X585658Y244921D01*
X585589Y244948D01*
X585527Y244976D01*
X585471Y244997D01*
X585423Y245025D01*
X585381Y245039D01*
X585353Y245052D01*
X585340Y245066D01*
X585333D01*
X585152Y245184D01*
X585000Y245316D01*
X584868Y245462D01*
X584764Y245593D01*
X584681Y245718D01*
X584653Y245774D01*
X584625Y245822D01*
X584604Y245857D01*
X584591Y245884D01*
X584577Y245905D01*
Y245912D01*
X584494Y246127D01*
X584438Y246356D01*
X584397Y246578D01*
X584362Y246779D01*
X584355Y246876D01*
X584348Y246959D01*
X584341Y247036D01*
Y247105D01*
X584334Y247153D01*
Y247195D01*
Y247223D01*
Y247230D01*
X584341Y247438D01*
X584362Y247639D01*
X584390Y247826D01*
X584424Y247999D01*
X584466Y248159D01*
X584514Y248305D01*
X584570Y248436D01*
X584625Y248554D01*
X584674Y248658D01*
X584729Y248755D01*
X584778Y248832D01*
X584819Y248894D01*
X584854Y248950D01*
X584882Y248984D01*
X584903Y249005D01*
X584910Y249012D01*
X585021Y249123D01*
X585139Y249213D01*
X585263Y249296D01*
X585388Y249366D01*
X585520Y249428D01*
X585645Y249477D01*
X585770Y249518D01*
X585887Y249553D01*
X585998Y249580D01*
X586102Y249594D01*
X586199Y249608D01*
X586276Y249622D01*
X586345D01*
X586394Y249629D01*
X586435D01*
X586574Y249622D01*
D02*
G37*
G36*
X572172D02*
X572303Y249608D01*
X572428Y249587D01*
X572553Y249560D01*
X572664Y249525D01*
X572768Y249483D01*
X572865Y249449D01*
X572955Y249400D01*
X573031Y249359D01*
X573108Y249324D01*
X573163Y249282D01*
X573219Y249248D01*
X573253Y249220D01*
X573288Y249199D01*
X573302Y249185D01*
X573309Y249178D01*
X573399Y249088D01*
X573489Y248998D01*
X573565Y248894D01*
X573628Y248790D01*
X573690Y248686D01*
X573746Y248582D01*
X573829Y248388D01*
X573863Y248291D01*
X573891Y248207D01*
X573912Y248131D01*
X573933Y248062D01*
X573947Y248006D01*
X573954Y247965D01*
X573960Y247937D01*
Y247930D01*
X573191Y247826D01*
X573170Y247937D01*
X573149Y248034D01*
X573121Y248131D01*
X573094Y248214D01*
X573059Y248298D01*
X573031Y248367D01*
X572997Y248429D01*
X572962Y248492D01*
X572927Y248540D01*
X572900Y248582D01*
X572844Y248651D01*
X572809Y248693D01*
X572803Y248700D01*
X572796Y248707D01*
X572671Y248797D01*
X572546Y248866D01*
X572414Y248915D01*
X572296Y248950D01*
X572185Y248970D01*
X572144Y248977D01*
X572102D01*
X572067Y248984D01*
X572026D01*
X571922Y248977D01*
X571818Y248963D01*
X571728Y248943D01*
X571638Y248915D01*
X571478Y248852D01*
X571339Y248769D01*
X571284Y248734D01*
X571235Y248693D01*
X571194Y248658D01*
X571152Y248624D01*
X571124Y248603D01*
X571104Y248582D01*
X571097Y248568D01*
X571090Y248561D01*
X571027Y248478D01*
X570972Y248381D01*
X570923Y248277D01*
X570889Y248173D01*
X570819Y247944D01*
X570778Y247722D01*
X570764Y247618D01*
X570757Y247521D01*
X570750Y247431D01*
X570743Y247355D01*
X570736Y247292D01*
Y247244D01*
Y247209D01*
Y247202D01*
X570743Y247036D01*
X570750Y246876D01*
X570771Y246737D01*
X570792Y246606D01*
X570819Y246481D01*
X570854Y246370D01*
X570889Y246273D01*
X570923Y246183D01*
X570951Y246106D01*
X570986Y246037D01*
X571020Y245982D01*
X571048Y245940D01*
X571069Y245898D01*
X571090Y245878D01*
X571097Y245864D01*
X571104Y245857D01*
X571173Y245781D01*
X571249Y245718D01*
X571333Y245656D01*
X571409Y245607D01*
X571492Y245566D01*
X571568Y245531D01*
X571721Y245482D01*
X571860Y245448D01*
X571915Y245441D01*
X571970Y245434D01*
X572012Y245427D01*
X572067D01*
X572206Y245434D01*
X572338Y245462D01*
X572449Y245503D01*
X572546Y245545D01*
X572622Y245593D01*
X572685Y245628D01*
X572719Y245656D01*
X572733Y245670D01*
X572830Y245767D01*
X572914Y245878D01*
X572976Y245996D01*
X573031Y246106D01*
X573073Y246210D01*
X573101Y246294D01*
X573108Y246328D01*
X573115Y246349D01*
X573121Y246363D01*
Y246370D01*
X573884Y246252D01*
X573857Y246127D01*
X573815Y246002D01*
X573773Y245891D01*
X573732Y245788D01*
X573683Y245690D01*
X573628Y245600D01*
X573579Y245524D01*
X573524Y245448D01*
X573475Y245385D01*
X573427Y245330D01*
X573385Y245281D01*
X573343Y245240D01*
X573316Y245212D01*
X573288Y245191D01*
X573274Y245177D01*
X573267Y245170D01*
X573177Y245101D01*
X573080Y245039D01*
X572976Y244990D01*
X572872Y244948D01*
X572664Y244879D01*
X572470Y244830D01*
X572379Y244817D01*
X572296Y244803D01*
X572220Y244796D01*
X572158Y244789D01*
X572109Y244782D01*
X572033D01*
X571818Y244796D01*
X571610Y244824D01*
X571423Y244872D01*
X571339Y244900D01*
X571256Y244921D01*
X571187Y244948D01*
X571124Y244976D01*
X571069Y244997D01*
X571020Y245025D01*
X570979Y245039D01*
X570951Y245052D01*
X570937Y245066D01*
X570930D01*
X570750Y245184D01*
X570597Y245316D01*
X570466Y245462D01*
X570362Y245593D01*
X570279Y245718D01*
X570251Y245774D01*
X570223Y245822D01*
X570202Y245857D01*
X570188Y245884D01*
X570174Y245905D01*
Y245912D01*
X570091Y246127D01*
X570036Y246356D01*
X569994Y246578D01*
X569959Y246779D01*
X569953Y246876D01*
X569946Y246959D01*
X569939Y247036D01*
Y247105D01*
X569932Y247153D01*
Y247195D01*
Y247223D01*
Y247230D01*
X569939Y247438D01*
X569959Y247639D01*
X569987Y247826D01*
X570022Y247999D01*
X570064Y248159D01*
X570112Y248305D01*
X570168Y248436D01*
X570223Y248554D01*
X570271Y248658D01*
X570327Y248755D01*
X570376Y248832D01*
X570417Y248894D01*
X570452Y248950D01*
X570480Y248984D01*
X570500Y249005D01*
X570507Y249012D01*
X570618Y249123D01*
X570736Y249213D01*
X570861Y249296D01*
X570986Y249366D01*
X571118Y249428D01*
X571242Y249477D01*
X571367Y249518D01*
X571485Y249553D01*
X571596Y249580D01*
X571700Y249594D01*
X571797Y249608D01*
X571873Y249622D01*
X571943D01*
X571991Y249629D01*
X572033D01*
X572172Y249622D01*
D02*
G37*
G36*
X550301D02*
X550433Y249608D01*
X550558Y249587D01*
X550682Y249560D01*
X550793Y249525D01*
X550897Y249483D01*
X550994Y249449D01*
X551085Y249400D01*
X551161Y249359D01*
X551237Y249324D01*
X551293Y249282D01*
X551348Y249248D01*
X551383Y249220D01*
X551417Y249199D01*
X551431Y249185D01*
X551438Y249178D01*
X551528Y249088D01*
X551618Y248998D01*
X551695Y248894D01*
X551757Y248790D01*
X551820Y248686D01*
X551875Y248582D01*
X551958Y248388D01*
X551993Y248291D01*
X552021Y248207D01*
X552042Y248131D01*
X552062Y248062D01*
X552076Y248006D01*
X552083Y247965D01*
X552090Y247937D01*
Y247930D01*
X551320Y247826D01*
X551300Y247937D01*
X551279Y248034D01*
X551251Y248131D01*
X551223Y248214D01*
X551189Y248298D01*
X551161Y248367D01*
X551126Y248429D01*
X551091Y248492D01*
X551057Y248540D01*
X551029Y248582D01*
X550974Y248651D01*
X550939Y248693D01*
X550932Y248700D01*
X550925Y248707D01*
X550800Y248797D01*
X550676Y248866D01*
X550544Y248915D01*
X550426Y248950D01*
X550315Y248970D01*
X550273Y248977D01*
X550232D01*
X550197Y248984D01*
X550155D01*
X550051Y248977D01*
X549947Y248963D01*
X549857Y248943D01*
X549767Y248915D01*
X549608Y248852D01*
X549469Y248769D01*
X549413Y248734D01*
X549365Y248693D01*
X549323Y248658D01*
X549282Y248624D01*
X549254Y248603D01*
X549233Y248582D01*
X549226Y248568D01*
X549219Y248561D01*
X549157Y248478D01*
X549101Y248381D01*
X549053Y248277D01*
X549018Y248173D01*
X548949Y247944D01*
X548907Y247722D01*
X548893Y247618D01*
X548886Y247521D01*
X548880Y247431D01*
X548873Y247355D01*
X548866Y247292D01*
Y247244D01*
Y247209D01*
Y247202D01*
X548873Y247036D01*
X548880Y246876D01*
X548900Y246737D01*
X548921Y246606D01*
X548949Y246481D01*
X548983Y246370D01*
X549018Y246273D01*
X549053Y246183D01*
X549081Y246106D01*
X549115Y246037D01*
X549150Y245982D01*
X549178Y245940D01*
X549198Y245898D01*
X549219Y245878D01*
X549226Y245864D01*
X549233Y245857D01*
X549302Y245781D01*
X549379Y245718D01*
X549462Y245656D01*
X549538Y245607D01*
X549622Y245566D01*
X549698Y245531D01*
X549850Y245482D01*
X549989Y245448D01*
X550045Y245441D01*
X550100Y245434D01*
X550141Y245427D01*
X550197D01*
X550336Y245434D01*
X550467Y245462D01*
X550578Y245503D01*
X550676Y245545D01*
X550752Y245593D01*
X550814Y245628D01*
X550849Y245656D01*
X550863Y245670D01*
X550960Y245767D01*
X551043Y245878D01*
X551105Y245996D01*
X551161Y246106D01*
X551203Y246210D01*
X551230Y246294D01*
X551237Y246328D01*
X551244Y246349D01*
X551251Y246363D01*
Y246370D01*
X552014Y246252D01*
X551986Y246127D01*
X551944Y246002D01*
X551903Y245891D01*
X551861Y245788D01*
X551813Y245690D01*
X551757Y245600D01*
X551709Y245524D01*
X551653Y245448D01*
X551605Y245385D01*
X551556Y245330D01*
X551515Y245281D01*
X551473Y245240D01*
X551445Y245212D01*
X551417Y245191D01*
X551404Y245177D01*
X551397Y245170D01*
X551306Y245101D01*
X551209Y245039D01*
X551105Y244990D01*
X551001Y244948D01*
X550793Y244879D01*
X550599Y244830D01*
X550509Y244817D01*
X550426Y244803D01*
X550350Y244796D01*
X550287Y244789D01*
X550239Y244782D01*
X550162D01*
X549947Y244796D01*
X549739Y244824D01*
X549552Y244872D01*
X549469Y244900D01*
X549386Y244921D01*
X549316Y244948D01*
X549254Y244976D01*
X549198Y244997D01*
X549150Y245025D01*
X549108Y245039D01*
X549081Y245052D01*
X549067Y245066D01*
X549060D01*
X548880Y245184D01*
X548727Y245316D01*
X548595Y245462D01*
X548491Y245593D01*
X548408Y245718D01*
X548380Y245774D01*
X548353Y245822D01*
X548332Y245857D01*
X548318Y245884D01*
X548304Y245905D01*
Y245912D01*
X548221Y246127D01*
X548165Y246356D01*
X548124Y246578D01*
X548089Y246779D01*
X548082Y246876D01*
X548075Y246959D01*
X548068Y247036D01*
Y247105D01*
X548061Y247153D01*
Y247195D01*
Y247223D01*
Y247230D01*
X548068Y247438D01*
X548089Y247639D01*
X548117Y247826D01*
X548151Y247999D01*
X548193Y248159D01*
X548242Y248305D01*
X548297Y248436D01*
X548353Y248554D01*
X548401Y248658D01*
X548456Y248755D01*
X548505Y248832D01*
X548547Y248894D01*
X548581Y248950D01*
X548609Y248984D01*
X548630Y249005D01*
X548637Y249012D01*
X548748Y249123D01*
X548866Y249213D01*
X548991Y249296D01*
X549115Y249366D01*
X549247Y249428D01*
X549372Y249477D01*
X549497Y249518D01*
X549614Y249553D01*
X549725Y249580D01*
X549829Y249594D01*
X549927Y249608D01*
X550003Y249622D01*
X550072D01*
X550121Y249629D01*
X550162D01*
X550301Y249622D01*
D02*
G37*
G36*
X561500Y246675D02*
Y246578D01*
Y246488D01*
X561493Y246398D01*
Y246321D01*
X561486Y246252D01*
Y246190D01*
X561479Y246086D01*
X561465Y246009D01*
X561458Y245954D01*
X561451Y245919D01*
Y245912D01*
X561423Y245788D01*
X561382Y245676D01*
X561347Y245579D01*
X561306Y245496D01*
X561264Y245427D01*
X561236Y245371D01*
X561216Y245344D01*
X561208Y245330D01*
X561139Y245240D01*
X561056Y245163D01*
X560966Y245101D01*
X560883Y245039D01*
X560799Y244997D01*
X560737Y244962D01*
X560695Y244942D01*
X560689Y244935D01*
X560681D01*
X560550Y244886D01*
X560418Y244844D01*
X560286Y244817D01*
X560168Y244803D01*
X560064Y244789D01*
X560023D01*
X559981Y244782D01*
X559912D01*
X559739Y244789D01*
X559572Y244817D01*
X559420Y244851D01*
X559274Y244900D01*
X559142Y244962D01*
X559024Y245025D01*
X558913Y245094D01*
X558816Y245163D01*
X558726Y245240D01*
X558650Y245309D01*
X558587Y245371D01*
X558539Y245434D01*
X558497Y245482D01*
X558463Y245517D01*
X558449Y245545D01*
X558442Y245552D01*
Y244886D01*
X557734D01*
Y249525D01*
X558518D01*
Y246994D01*
X558525Y246835D01*
X558532Y246682D01*
X558553Y246550D01*
X558573Y246425D01*
X558601Y246315D01*
X558629Y246217D01*
X558664Y246127D01*
X558698Y246051D01*
X558733Y245982D01*
X558768Y245926D01*
X558795Y245884D01*
X558823Y245843D01*
X558844Y245815D01*
X558865Y245794D01*
X558872Y245788D01*
X558879Y245781D01*
X558948Y245725D01*
X559024Y245676D01*
X559170Y245593D01*
X559315Y245538D01*
X559447Y245503D01*
X559565Y245475D01*
X559621Y245469D01*
X559662D01*
X559697Y245462D01*
X559745D01*
X559863Y245469D01*
X559967Y245482D01*
X560057Y245510D01*
X560141Y245531D01*
X560203Y245559D01*
X560252Y245586D01*
X560286Y245600D01*
X560293Y245607D01*
X560376Y245663D01*
X560446Y245725D01*
X560501Y245788D01*
X560543Y245850D01*
X560578Y245905D01*
X560598Y245947D01*
X560612Y245975D01*
X560619Y245989D01*
X560654Y246086D01*
X560675Y246197D01*
X560695Y246315D01*
X560702Y246432D01*
X560709Y246536D01*
X560716Y246585D01*
Y246626D01*
Y246654D01*
Y246682D01*
Y246696D01*
Y246703D01*
Y249525D01*
X561500D01*
Y246675D01*
D02*
G37*
G36*
X566680Y249622D02*
X566839Y249608D01*
X566985Y249580D01*
X567117Y249553D01*
X567220Y249525D01*
X567269Y249511D01*
X567304Y249497D01*
X567331Y249490D01*
X567352Y249483D01*
X567366Y249477D01*
X567373D01*
X567526Y249407D01*
X567678Y249331D01*
X567817Y249241D01*
X567949Y249151D01*
X568060Y249074D01*
X568101Y249033D01*
X568143Y249005D01*
X568177Y248977D01*
X568198Y248956D01*
X568212Y248950D01*
X568219Y248943D01*
X568233Y249067D01*
X568254Y249178D01*
X568281Y249275D01*
X568309Y249359D01*
X568330Y249428D01*
X568351Y249483D01*
X568365Y249511D01*
X568372Y249525D01*
X569190D01*
X569141Y249428D01*
X569100Y249324D01*
X569065Y249234D01*
X569037Y249151D01*
X569016Y249074D01*
X569003Y249019D01*
X568996Y248984D01*
Y248970D01*
X568989Y248908D01*
X568982Y248825D01*
X568975Y248734D01*
X568968Y248631D01*
X568961Y248519D01*
Y248402D01*
X568954Y248166D01*
Y248055D01*
X568947Y247944D01*
Y247847D01*
Y247757D01*
Y247687D01*
Y247632D01*
Y247597D01*
Y247583D01*
Y246536D01*
Y246439D01*
Y246356D01*
X568940Y246280D01*
Y246203D01*
X568933Y246079D01*
X568926Y245982D01*
X568919Y245905D01*
X568912Y245857D01*
X568905Y245822D01*
Y245815D01*
X568878Y245697D01*
X568836Y245593D01*
X568795Y245503D01*
X568753Y245427D01*
X568718Y245364D01*
X568684Y245316D01*
X568663Y245288D01*
X568656Y245281D01*
X568580Y245205D01*
X568496Y245136D01*
X568406Y245073D01*
X568316Y245025D01*
X568233Y244983D01*
X568171Y244955D01*
X568143Y244942D01*
X568122Y244935D01*
X568115Y244928D01*
X568108D01*
X567962Y244879D01*
X567803Y244844D01*
X567644Y244817D01*
X567491Y244803D01*
X567359Y244789D01*
X567297D01*
X567248Y244782D01*
X567151D01*
X566936Y244789D01*
X566735Y244810D01*
X566555Y244837D01*
X566472Y244851D01*
X566402Y244865D01*
X566333Y244879D01*
X566270Y244893D01*
X566222Y244907D01*
X566180Y244921D01*
X566146Y244935D01*
X566118Y244942D01*
X566104Y244948D01*
X566097D01*
X565938Y245018D01*
X565799Y245094D01*
X565681Y245170D01*
X565584Y245247D01*
X565508Y245316D01*
X565452Y245371D01*
X565418Y245406D01*
X565404Y245413D01*
Y245420D01*
X565321Y245538D01*
X565251Y245670D01*
X565196Y245801D01*
X565147Y245926D01*
X565112Y246037D01*
X565099Y246086D01*
X565085Y246127D01*
X565078Y246162D01*
X565071Y246190D01*
X565064Y246203D01*
Y246210D01*
X565834Y246315D01*
X565861Y246224D01*
X565889Y246141D01*
X565945Y246002D01*
X566014Y245878D01*
X566076Y245788D01*
X566132Y245718D01*
X566180Y245663D01*
X566208Y245635D01*
X566222Y245628D01*
X566333Y245566D01*
X566465Y245517D01*
X566596Y245482D01*
X566728Y245455D01*
X566853Y245441D01*
X566902D01*
X566950Y245434D01*
X567040D01*
X567248Y245448D01*
X567429Y245475D01*
X567581Y245517D01*
X567706Y245566D01*
X567803Y245621D01*
X567838Y245642D01*
X567872Y245663D01*
X567900Y245676D01*
X567914Y245690D01*
X567928Y245704D01*
X568004Y245788D01*
X568060Y245891D01*
X568101Y246002D01*
X568129Y246113D01*
X568143Y246217D01*
X568157Y246301D01*
Y246328D01*
Y246356D01*
Y246370D01*
Y246377D01*
Y246398D01*
Y246425D01*
Y246495D01*
X568150Y246523D01*
Y246550D01*
Y246571D01*
Y246578D01*
X568060Y246606D01*
X567962Y246633D01*
X567851Y246661D01*
X567741Y246689D01*
X567512Y246737D01*
X567283Y246779D01*
X567172Y246793D01*
X567075Y246807D01*
X566985Y246821D01*
X566902Y246835D01*
X566839Y246842D01*
X566791Y246848D01*
X566763Y246855D01*
X566749D01*
X566582Y246876D01*
X566444Y246897D01*
X566319Y246918D01*
X566222Y246932D01*
X566146Y246952D01*
X566090Y246959D01*
X566063Y246973D01*
X566049D01*
X565938Y247008D01*
X565827Y247050D01*
X565730Y247091D01*
X565646Y247133D01*
X565577Y247167D01*
X565528Y247202D01*
X565494Y247223D01*
X565480Y247230D01*
X565390Y247299D01*
X565314Y247369D01*
X565244Y247445D01*
X565189Y247514D01*
X565140Y247583D01*
X565106Y247632D01*
X565085Y247667D01*
X565078Y247680D01*
X565029Y247792D01*
X564988Y247896D01*
X564960Y247999D01*
X564946Y248097D01*
X564932Y248180D01*
X564925Y248249D01*
Y248291D01*
Y248298D01*
Y248305D01*
X564932Y248409D01*
X564946Y248513D01*
X564960Y248610D01*
X564988Y248700D01*
X565057Y248866D01*
X565133Y248998D01*
X565168Y249060D01*
X565203Y249109D01*
X565237Y249158D01*
X565272Y249192D01*
X565300Y249220D01*
X565314Y249241D01*
X565327Y249255D01*
X565334Y249261D01*
X565418Y249324D01*
X565501Y249379D01*
X565598Y249435D01*
X565688Y249477D01*
X565882Y249539D01*
X566076Y249580D01*
X566160Y249601D01*
X566243Y249608D01*
X566319Y249615D01*
X566381Y249622D01*
X566430Y249629D01*
X566506D01*
X566680Y249622D01*
D02*
G37*
G36*
X554864Y249615D02*
X555072Y249587D01*
X555259Y249539D01*
X555349Y249518D01*
X555425Y249490D01*
X555502Y249463D01*
X555564Y249442D01*
X555620Y249414D01*
X555668Y249393D01*
X555710Y249379D01*
X555737Y249366D01*
X555751Y249352D01*
X555758D01*
X555938Y249234D01*
X556098Y249109D01*
X556230Y248977D01*
X556341Y248846D01*
X556431Y248734D01*
X556465Y248679D01*
X556493Y248637D01*
X556514Y248603D01*
X556528Y248575D01*
X556542Y248561D01*
Y248554D01*
X556590Y248450D01*
X556632Y248346D01*
X556701Y248117D01*
X556750Y247882D01*
X556778Y247660D01*
X556791Y247556D01*
X556798Y247459D01*
X556805Y247369D01*
Y247292D01*
X556812Y247230D01*
Y247188D01*
Y247153D01*
Y247147D01*
X556805Y246945D01*
X556785Y246751D01*
X556757Y246571D01*
X556715Y246405D01*
X556674Y246252D01*
X556618Y246113D01*
X556563Y245982D01*
X556507Y245864D01*
X556452Y245760D01*
X556396Y245670D01*
X556341Y245593D01*
X556299Y245531D01*
X556258Y245475D01*
X556230Y245441D01*
X556209Y245420D01*
X556202Y245413D01*
X556084Y245302D01*
X555959Y245205D01*
X555835Y245122D01*
X555703Y245046D01*
X555571Y244990D01*
X555446Y244935D01*
X555314Y244893D01*
X555197Y244858D01*
X555079Y244837D01*
X554975Y244817D01*
X554884Y244803D01*
X554801Y244789D01*
X554732D01*
X554683Y244782D01*
X554642D01*
X554482Y244789D01*
X554330Y244803D01*
X554191Y244830D01*
X554052Y244865D01*
X553921Y244900D01*
X553803Y244948D01*
X553692Y244990D01*
X553595Y245039D01*
X553498Y245087D01*
X553421Y245136D01*
X553352Y245184D01*
X553290Y245219D01*
X553248Y245254D01*
X553213Y245281D01*
X553193Y245295D01*
X553186Y245302D01*
X553061Y245427D01*
X552950Y245559D01*
X552853Y245704D01*
X552770Y245857D01*
X552707Y246016D01*
X552645Y246176D01*
X552596Y246335D01*
X552562Y246488D01*
X552534Y246633D01*
X552506Y246765D01*
X552492Y246890D01*
X552485Y247001D01*
X552478Y247084D01*
X552471Y247153D01*
Y247195D01*
Y247202D01*
Y247209D01*
X552478Y247424D01*
X552499Y247625D01*
X552527Y247812D01*
X552562Y247986D01*
X552610Y248145D01*
X552659Y248291D01*
X552714Y248423D01*
X552770Y248547D01*
X552825Y248651D01*
X552881Y248748D01*
X552929Y248825D01*
X552978Y248887D01*
X553012Y248943D01*
X553040Y248977D01*
X553061Y248998D01*
X553068Y249005D01*
X553186Y249116D01*
X553311Y249213D01*
X553435Y249296D01*
X553567Y249366D01*
X553699Y249428D01*
X553830Y249477D01*
X553955Y249518D01*
X554080Y249553D01*
X554198Y249573D01*
X554302Y249594D01*
X554399Y249608D01*
X554482Y249622D01*
X554552D01*
X554600Y249629D01*
X554642D01*
X554864Y249615D01*
D02*
G37*
G36*
X541619Y249046D02*
X541696Y249137D01*
X541779Y249220D01*
X541862Y249296D01*
X541945Y249352D01*
X542015Y249400D01*
X542077Y249442D01*
X542112Y249463D01*
X542126Y249470D01*
X542243Y249525D01*
X542368Y249560D01*
X542486Y249587D01*
X542597Y249608D01*
X542694Y249622D01*
X542764Y249629D01*
X542833D01*
X542937Y249622D01*
X543034Y249615D01*
X543221Y249580D01*
X543395Y249532D01*
X543547Y249477D01*
X543616Y249449D01*
X543679Y249428D01*
X543727Y249400D01*
X543776Y249379D01*
X543811Y249359D01*
X543838Y249345D01*
X543852Y249331D01*
X543859D01*
X544033Y249206D01*
X544178Y249067D01*
X544310Y248922D01*
X544414Y248776D01*
X544497Y248651D01*
X544525Y248596D01*
X544553Y248547D01*
X544573Y248513D01*
X544587Y248485D01*
X544601Y248464D01*
Y248457D01*
X544684Y248235D01*
X544747Y248013D01*
X544795Y247798D01*
X544823Y247604D01*
X544837Y247514D01*
X544844Y247431D01*
X544851Y247355D01*
Y247292D01*
X544858Y247244D01*
Y247209D01*
Y247181D01*
Y247174D01*
X544851Y246932D01*
X544823Y246703D01*
X544781Y246495D01*
X544761Y246405D01*
X544740Y246315D01*
X544719Y246238D01*
X544698Y246162D01*
X544677Y246099D01*
X544657Y246051D01*
X544643Y246009D01*
X544629Y245982D01*
X544622Y245961D01*
Y245954D01*
X544525Y245760D01*
X544421Y245586D01*
X544303Y245441D01*
X544192Y245316D01*
X544095Y245219D01*
X544012Y245149D01*
X543977Y245129D01*
X543956Y245108D01*
X543942Y245094D01*
X543935D01*
X543852Y245039D01*
X543762Y244990D01*
X543582Y244914D01*
X543408Y244858D01*
X543242Y244824D01*
X543166Y244810D01*
X543103Y244796D01*
X543041Y244789D01*
X542985D01*
X542944Y244782D01*
X542888D01*
X542729Y244789D01*
X542576Y244810D01*
X542445Y244837D01*
X542334Y244872D01*
X542243Y244907D01*
X542174Y244935D01*
X542132Y244955D01*
X542126Y244962D01*
X542119D01*
X542001Y245039D01*
X541897Y245122D01*
X541800Y245212D01*
X541716Y245295D01*
X541647Y245371D01*
X541592Y245441D01*
X541564Y245482D01*
X541550Y245489D01*
Y244886D01*
X540836D01*
Y251300D01*
X541619D01*
Y249046D01*
D02*
G37*
G36*
X537965Y249615D02*
X538173Y249587D01*
X538360Y249539D01*
X538451Y249518D01*
X538527Y249490D01*
X538603Y249463D01*
X538665Y249442D01*
X538721Y249414D01*
X538769Y249393D01*
X538811Y249379D01*
X538839Y249366D01*
X538853Y249352D01*
X538860D01*
X539040Y249234D01*
X539199Y249109D01*
X539331Y248977D01*
X539442Y248846D01*
X539532Y248734D01*
X539567Y248679D01*
X539595Y248637D01*
X539615Y248603D01*
X539629Y248575D01*
X539643Y248561D01*
Y248554D01*
X539692Y248450D01*
X539733Y248346D01*
X539803Y248117D01*
X539851Y247882D01*
X539879Y247660D01*
X539893Y247556D01*
X539900Y247459D01*
X539907Y247369D01*
Y247292D01*
X539914Y247230D01*
Y247188D01*
Y247153D01*
Y247147D01*
X539907Y246945D01*
X539886Y246751D01*
X539858Y246571D01*
X539817Y246405D01*
X539775Y246252D01*
X539719Y246113D01*
X539664Y245982D01*
X539608Y245864D01*
X539553Y245760D01*
X539497Y245670D01*
X539442Y245593D01*
X539400Y245531D01*
X539359Y245475D01*
X539331Y245441D01*
X539310Y245420D01*
X539303Y245413D01*
X539185Y245302D01*
X539061Y245205D01*
X538936Y245122D01*
X538804Y245046D01*
X538672Y244990D01*
X538548Y244935D01*
X538416Y244893D01*
X538298Y244858D01*
X538180Y244837D01*
X538076Y244817D01*
X537986Y244803D01*
X537903Y244789D01*
X537833D01*
X537785Y244782D01*
X537743D01*
X537584Y244789D01*
X537431Y244803D01*
X537293Y244830D01*
X537154Y244865D01*
X537022Y244900D01*
X536904Y244948D01*
X536793Y244990D01*
X536696Y245039D01*
X536599Y245087D01*
X536523Y245136D01*
X536453Y245184D01*
X536391Y245219D01*
X536349Y245254D01*
X536315Y245281D01*
X536294Y245295D01*
X536287Y245302D01*
X536162Y245427D01*
X536051Y245559D01*
X535954Y245704D01*
X535871Y245857D01*
X535809Y246016D01*
X535746Y246176D01*
X535698Y246335D01*
X535663Y246488D01*
X535635Y246633D01*
X535607Y246765D01*
X535594Y246890D01*
X535587Y247001D01*
X535580Y247084D01*
X535573Y247153D01*
Y247195D01*
Y247202D01*
Y247209D01*
X535580Y247424D01*
X535601Y247625D01*
X535628Y247812D01*
X535663Y247986D01*
X535712Y248145D01*
X535760Y248291D01*
X535816Y248423D01*
X535871Y248547D01*
X535926Y248651D01*
X535982Y248748D01*
X536030Y248825D01*
X536079Y248887D01*
X536114Y248943D01*
X536141Y248977D01*
X536162Y248998D01*
X536169Y249005D01*
X536287Y249116D01*
X536412Y249213D01*
X536537Y249296D01*
X536668Y249366D01*
X536800Y249428D01*
X536932Y249477D01*
X537057Y249518D01*
X537182Y249553D01*
X537299Y249573D01*
X537403Y249594D01*
X537500Y249608D01*
X537584Y249622D01*
X537653D01*
X537702Y249629D01*
X537743D01*
X537965Y249615D01*
D02*
G37*
G36*
X532979Y243881D02*
X535087D01*
Y243125D01*
X530025D01*
Y243881D01*
X532133D01*
Y249525D01*
X532979D01*
Y243881D01*
D02*
G37*
G36*
X583051Y245496D02*
X583953D01*
Y244886D01*
X583051D01*
Y244463D01*
X583058Y244317D01*
X583072Y244200D01*
X583100Y244102D01*
X583128Y244019D01*
X583148Y243964D01*
X583176Y243922D01*
X583190Y243901D01*
X583197Y243894D01*
X583259Y243846D01*
X583336Y243804D01*
X583419Y243777D01*
X583502Y243763D01*
X583578Y243749D01*
X583648Y243742D01*
X583703D01*
X583870Y243749D01*
X583946Y243756D01*
X584015Y243763D01*
X584077Y243777D01*
X584126Y243783D01*
X584154Y243790D01*
X584168D01*
X584286Y243104D01*
X584140Y243076D01*
X584001Y243055D01*
X583876Y243041D01*
X583765Y243028D01*
X583675D01*
X583606Y243021D01*
X583550D01*
X583370Y243028D01*
X583211Y243048D01*
X583072Y243083D01*
X582954Y243118D01*
X582864Y243153D01*
X582802Y243187D01*
X582760Y243208D01*
X582746Y243215D01*
X582649Y243291D01*
X582566Y243367D01*
X582496Y243451D01*
X582441Y243534D01*
X582399Y243603D01*
X582372Y243659D01*
X582358Y243693D01*
X582351Y243700D01*
Y243707D01*
X582323Y243804D01*
X582302Y243915D01*
X582289Y244026D01*
X582282Y244137D01*
X582275Y244241D01*
X582268Y244324D01*
Y244359D01*
Y244380D01*
Y244394D01*
Y244401D01*
Y244886D01*
X581574D01*
Y245496D01*
X582268D01*
Y249525D01*
X583051D01*
Y245496D01*
D02*
G37*
G36*
X580569D02*
X581470D01*
Y244886D01*
X580569D01*
Y244463D01*
X580576Y244317D01*
X580590Y244200D01*
X580617Y244102D01*
X580645Y244019D01*
X580666Y243964D01*
X580694Y243922D01*
X580708Y243901D01*
X580714Y243894D01*
X580777Y243846D01*
X580853Y243804D01*
X580936Y243777D01*
X581020Y243763D01*
X581096Y243749D01*
X581165Y243742D01*
X581221D01*
X581387Y243749D01*
X581463Y243756D01*
X581533Y243763D01*
X581595Y243777D01*
X581644Y243783D01*
X581671Y243790D01*
X581685D01*
X581803Y243104D01*
X581657Y243076D01*
X581519Y243055D01*
X581394Y243041D01*
X581283Y243028D01*
X581193D01*
X581124Y243021D01*
X581068D01*
X580888Y243028D01*
X580728Y243048D01*
X580590Y243083D01*
X580472Y243118D01*
X580382Y243153D01*
X580319Y243187D01*
X580278Y243208D01*
X580264Y243215D01*
X580167Y243291D01*
X580083Y243367D01*
X580014Y243451D01*
X579959Y243534D01*
X579917Y243603D01*
X579889Y243659D01*
X579875Y243693D01*
X579869Y243700D01*
Y243707D01*
X579841Y243804D01*
X579820Y243915D01*
X579806Y244026D01*
X579799Y244137D01*
X579792Y244241D01*
X579785Y244324D01*
Y244359D01*
Y244380D01*
Y244394D01*
Y244401D01*
Y244886D01*
X579092D01*
Y245496D01*
X579785D01*
Y249525D01*
X580569D01*
Y245496D01*
D02*
G37*
%LPC*%
G36*
X361585Y135106D02*
X361582D01*
X361585Y134961D01*
X361589Y134872D01*
X361596Y134792D01*
X361606Y134723D01*
X361616Y134668D01*
X361627Y134626D01*
X361637Y134595D01*
X361644Y134578D01*
X361647Y134571D01*
X361682Y134509D01*
X361724Y134457D01*
X361765Y134409D01*
X361806Y134371D01*
X361848Y134340D01*
X361879Y134315D01*
X361900Y134302D01*
X361903Y134298D01*
X361907D01*
X361976Y134267D01*
X362045Y134243D01*
X362110Y134226D01*
X362176Y134215D01*
X362228Y134208D01*
X362252Y134205D01*
X362273Y134201D01*
X362311D01*
X362390Y134205D01*
X362459Y134219D01*
X362521Y134236D01*
X362570Y134253D01*
X362608Y134274D01*
X362635Y134288D01*
X362649Y134302D01*
X362656Y134305D01*
X362694Y134347D01*
X362725Y134388D01*
X362746Y134433D01*
X362760Y134474D01*
X362767Y134509D01*
X362770Y134540D01*
X362774Y134557D01*
Y134564D01*
X362770Y134602D01*
X362767Y134637D01*
X362756Y134668D01*
X362746Y134695D01*
X362739Y134720D01*
X362729Y134737D01*
X362725Y134747D01*
X362722Y134751D01*
X362698Y134782D01*
X362673Y134806D01*
X362649Y134827D01*
X362622Y134847D01*
X362601Y134861D01*
X362584Y134872D01*
X362570Y134875D01*
X362566Y134879D01*
X362521Y134896D01*
X362470Y134910D01*
X362414Y134923D01*
X362359Y134934D01*
X362307Y134944D01*
X362262Y134951D01*
X362248Y134955D01*
X362235Y134958D01*
X362224D01*
X362145Y134968D01*
X362072Y134982D01*
X362007Y134993D01*
X361945Y135006D01*
X361886Y135020D01*
X361834Y135030D01*
X361786Y135044D01*
X361741Y135055D01*
X361706Y135065D01*
X361672Y135075D01*
X361644Y135082D01*
X361623Y135093D01*
X361606Y135100D01*
X361592Y135103D01*
X361585Y135106D01*
D02*
G37*
G36*
X357436Y135987D02*
X357409D01*
X357354Y135984D01*
X357302Y135977D01*
X357253Y135967D01*
X357209Y135953D01*
X357126Y135915D01*
X357088Y135894D01*
X357053Y135873D01*
X357025Y135853D01*
X356998Y135832D01*
X356974Y135811D01*
X356956Y135794D01*
X356943Y135780D01*
X356929Y135770D01*
X356925Y135763D01*
X356922Y135759D01*
X356880Y135701D01*
X356846Y135632D01*
X356822Y135559D01*
X356801Y135486D01*
X356787Y135424D01*
X356784Y135397D01*
X356780Y135372D01*
X356777Y135352D01*
X356773Y135338D01*
Y135328D01*
Y135324D01*
X358065D01*
X358058Y135379D01*
X358051Y135431D01*
X358027Y135524D01*
X357993Y135607D01*
X357975Y135645D01*
X357958Y135676D01*
X357941Y135708D01*
X357924Y135732D01*
X357906Y135752D01*
X357892Y135773D01*
X357882Y135787D01*
X357872Y135797D01*
X357868Y135801D01*
X357865Y135804D01*
X357830Y135835D01*
X357792Y135866D01*
X357754Y135891D01*
X357716Y135911D01*
X357637Y135942D01*
X357568Y135963D01*
X357502Y135977D01*
X357478Y135980D01*
X357454Y135984D01*
X357436Y135987D01*
D02*
G37*
G36*
X318816D02*
X318789D01*
X318733Y135984D01*
X318682Y135977D01*
X318633Y135967D01*
X318588Y135953D01*
X318505Y135915D01*
X318468Y135894D01*
X318433Y135873D01*
X318405Y135853D01*
X318378Y135832D01*
X318354Y135811D01*
X318336Y135794D01*
X318322Y135780D01*
X318309Y135770D01*
X318305Y135763D01*
X318302Y135759D01*
X318260Y135701D01*
X318226Y135632D01*
X318202Y135559D01*
X318181Y135486D01*
X318167Y135424D01*
X318164Y135397D01*
X318160Y135372D01*
X318157Y135352D01*
X318153Y135338D01*
Y135328D01*
Y135324D01*
X319445D01*
X319438Y135379D01*
X319431Y135431D01*
X319407Y135524D01*
X319373Y135607D01*
X319355Y135645D01*
X319338Y135676D01*
X319321Y135708D01*
X319303Y135732D01*
X319286Y135752D01*
X319272Y135773D01*
X319262Y135787D01*
X319252Y135797D01*
X319248Y135801D01*
X319245Y135804D01*
X319210Y135835D01*
X319172Y135866D01*
X319134Y135891D01*
X319096Y135911D01*
X319017Y135942D01*
X318948Y135963D01*
X318882Y135977D01*
X318858Y135980D01*
X318834Y135984D01*
X318816Y135987D01*
D02*
G37*
G36*
X365579Y136758D02*
X364881D01*
X364822Y136754D01*
X364770D01*
X364722Y136751D01*
X364677Y136747D01*
X364639Y136744D01*
X364601Y136740D01*
X364570Y136737D01*
X364546Y136730D01*
X364521Y136727D01*
X364501Y136723D01*
X364487Y136720D01*
X364473Y136716D01*
X364466D01*
X364459Y136713D01*
X364408Y136692D01*
X364366Y136668D01*
X364328Y136640D01*
X364297Y136613D01*
X364273Y136588D01*
X364255Y136568D01*
X364245Y136554D01*
X364242Y136547D01*
X364214Y136502D01*
X364197Y136454D01*
X364183Y136405D01*
X364173Y136360D01*
X364166Y136322D01*
X364162Y136295D01*
Y136274D01*
Y136271D01*
Y136267D01*
X364166Y136205D01*
X364176Y136153D01*
X364190Y136105D01*
X364204Y136063D01*
X364217Y136032D01*
X364231Y136008D01*
X364242Y135994D01*
X364245Y135987D01*
X364280Y135949D01*
X364318Y135915D01*
X364359Y135887D01*
X364397Y135866D01*
X364432Y135849D01*
X364459Y135839D01*
X364480Y135832D01*
X364483Y135828D01*
X364487D01*
X364511Y135822D01*
X364539Y135818D01*
X364601Y135808D01*
X364670Y135801D01*
X364736Y135797D01*
X364794D01*
X364822Y135794D01*
X365579D01*
Y136758D01*
D02*
G37*
G36*
Y135417D02*
X364843D01*
X364736Y135414D01*
X364642Y135410D01*
X364601Y135403D01*
X364563Y135400D01*
X364528Y135397D01*
X364494Y135390D01*
X364466Y135386D01*
X364442Y135379D01*
X364425Y135376D01*
X364408Y135372D01*
X364394Y135369D01*
X364383Y135365D01*
X364380Y135362D01*
X364376D01*
X364318Y135338D01*
X364269Y135310D01*
X364224Y135283D01*
X364186Y135252D01*
X364159Y135224D01*
X364138Y135200D01*
X364124Y135186D01*
X364121Y135179D01*
X364090Y135127D01*
X364066Y135075D01*
X364052Y135024D01*
X364038Y134975D01*
X364031Y134930D01*
X364027Y134899D01*
Y134885D01*
Y134875D01*
Y134872D01*
Y134868D01*
X364031Y134813D01*
X364038Y134761D01*
X364048Y134716D01*
X364059Y134678D01*
X364072Y134644D01*
X364083Y134619D01*
X364090Y134606D01*
X364093Y134599D01*
X364117Y134557D01*
X364145Y134523D01*
X364173Y134492D01*
X364197Y134467D01*
X364221Y134447D01*
X364238Y134433D01*
X364252Y134426D01*
X364255Y134423D01*
X364294Y134402D01*
X364335Y134384D01*
X364373Y134367D01*
X364411Y134357D01*
X364445Y134347D01*
X364473Y134340D01*
X364490Y134336D01*
X364497D01*
X364532Y134333D01*
X364577Y134329D01*
X364625Y134326D01*
X364670D01*
X364715Y134322D01*
X365579D01*
Y135417D01*
D02*
G37*
G36*
X355036Y135984D02*
X355012D01*
X354963Y135980D01*
X354915Y135974D01*
X354870Y135963D01*
X354828Y135949D01*
X354749Y135911D01*
X354683Y135873D01*
X354632Y135832D01*
X354611Y135811D01*
X354590Y135794D01*
X354576Y135780D01*
X354566Y135770D01*
X354562Y135763D01*
X354559Y135759D01*
X354524Y135714D01*
X354497Y135666D01*
X354473Y135614D01*
X354452Y135559D01*
X354417Y135442D01*
X354397Y135331D01*
X354386Y135276D01*
X354383Y135227D01*
X354379Y135183D01*
X354376Y135141D01*
X354372Y135110D01*
Y135086D01*
Y135072D01*
Y135065D01*
X354376Y134986D01*
X354379Y134913D01*
X354390Y134844D01*
X354400Y134782D01*
X354414Y134726D01*
X354431Y134671D01*
X354449Y134623D01*
X354462Y134581D01*
X354480Y134543D01*
X354497Y134512D01*
X354514Y134485D01*
X354528Y134464D01*
X354538Y134443D01*
X354549Y134433D01*
X354552Y134426D01*
X354556Y134423D01*
X354590Y134384D01*
X354625Y134353D01*
X354663Y134326D01*
X354701Y134302D01*
X354735Y134284D01*
X354773Y134267D01*
X354842Y134243D01*
X354901Y134226D01*
X354929Y134222D01*
X354949Y134219D01*
X354970Y134215D01*
X354994D01*
X355043Y134219D01*
X355088Y134226D01*
X355129Y134236D01*
X355171Y134250D01*
X355247Y134284D01*
X355312Y134326D01*
X355364Y134364D01*
X355385Y134381D01*
X355402Y134398D01*
X355416Y134412D01*
X355429Y134423D01*
X355433Y134429D01*
X355436Y134433D01*
X355467Y134478D01*
X355499Y134526D01*
X355523Y134578D01*
X355544Y134630D01*
X355578Y134740D01*
X355599Y134847D01*
X355606Y134899D01*
X355613Y134944D01*
X355616Y134986D01*
X355620Y135024D01*
X355623Y135055D01*
Y135075D01*
Y135093D01*
Y135096D01*
X355620Y135179D01*
X355616Y135259D01*
X355606Y135328D01*
X355595Y135397D01*
X355582Y135455D01*
X355568Y135511D01*
X355554Y135562D01*
X355537Y135604D01*
X355519Y135645D01*
X355505Y135676D01*
X355492Y135708D01*
X355478Y135728D01*
X355467Y135745D01*
X355457Y135759D01*
X355454Y135766D01*
X355450Y135770D01*
X355416Y135808D01*
X355381Y135839D01*
X355343Y135870D01*
X355309Y135894D01*
X355271Y135915D01*
X355233Y135932D01*
X355164Y135956D01*
X355105Y135974D01*
X355077Y135977D01*
X355056Y135980D01*
X355036Y135984D01*
D02*
G37*
G36*
X351257D02*
X351229D01*
X351177Y135980D01*
X351125Y135974D01*
X351077Y135963D01*
X351032Y135949D01*
X350949Y135915D01*
X350877Y135873D01*
X350849Y135853D01*
X350821Y135832D01*
X350801Y135815D01*
X350780Y135797D01*
X350766Y135784D01*
X350756Y135773D01*
X350749Y135766D01*
X350745Y135763D01*
X350711Y135718D01*
X350680Y135673D01*
X350656Y135621D01*
X350631Y135569D01*
X350611Y135514D01*
X350597Y135459D01*
X350573Y135355D01*
X350566Y135307D01*
X350559Y135262D01*
X350555Y135220D01*
X350552Y135183D01*
X350549Y135155D01*
Y135131D01*
Y135117D01*
Y135113D01*
X350552Y135030D01*
X350555Y134955D01*
X350566Y134882D01*
X350580Y134816D01*
X350593Y134754D01*
X350611Y134699D01*
X350628Y134647D01*
X350645Y134606D01*
X350666Y134564D01*
X350683Y134530D01*
X350700Y134502D01*
X350714Y134478D01*
X350728Y134460D01*
X350738Y134447D01*
X350742Y134440D01*
X350745Y134436D01*
X350783Y134398D01*
X350821Y134364D01*
X350863Y134333D01*
X350901Y134309D01*
X350942Y134288D01*
X350984Y134270D01*
X351060Y134243D01*
X351125Y134226D01*
X351156Y134222D01*
X351181Y134219D01*
X351201Y134215D01*
X351229D01*
X351284Y134219D01*
X351333Y134226D01*
X351384Y134236D01*
X351429Y134250D01*
X351512Y134284D01*
X351581Y134326D01*
X351612Y134343D01*
X351640Y134364D01*
X351661Y134381D01*
X351682Y134398D01*
X351695Y134412D01*
X351706Y134423D01*
X351713Y134429D01*
X351716Y134433D01*
X351751Y134478D01*
X351778Y134526D01*
X351806Y134578D01*
X351827Y134630D01*
X351861Y134740D01*
X351885Y134851D01*
X351892Y134899D01*
X351899Y134948D01*
X351903Y134989D01*
X351906Y135027D01*
X351909Y135058D01*
Y135079D01*
Y135096D01*
Y135100D01*
X351906Y135179D01*
X351903Y135255D01*
X351892Y135324D01*
X351878Y135390D01*
X351865Y135448D01*
X351847Y135504D01*
X351830Y135552D01*
X351813Y135597D01*
X351796Y135635D01*
X351778Y135669D01*
X351761Y135697D01*
X351747Y135721D01*
X351733Y135739D01*
X351723Y135752D01*
X351720Y135759D01*
X351716Y135763D01*
X351678Y135801D01*
X351640Y135835D01*
X351599Y135866D01*
X351557Y135891D01*
X351516Y135911D01*
X351478Y135929D01*
X351398Y135956D01*
X351333Y135974D01*
X351301Y135977D01*
X351277Y135980D01*
X351257Y135984D01*
D02*
G37*
G36*
X345073Y136820D02*
X345049D01*
X344997Y136816D01*
X344952Y136810D01*
X344904Y136796D01*
X344863Y136778D01*
X344783Y136737D01*
X344717Y136692D01*
X344690Y136668D01*
X344666Y136644D01*
X344645Y136620D01*
X344624Y136602D01*
X344610Y136585D01*
X344600Y136571D01*
X344596Y136564D01*
X344593Y136561D01*
X344558Y136505D01*
X344531Y136443D01*
X344507Y136367D01*
X344486Y136288D01*
X344469Y136205D01*
X344451Y136119D01*
X344431Y135942D01*
X344420Y135859D01*
X344417Y135780D01*
X344413Y135708D01*
X344410Y135645D01*
X344407Y135590D01*
Y135569D01*
Y135552D01*
Y135538D01*
Y135528D01*
Y135521D01*
Y135518D01*
X344410Y135376D01*
X344413Y135248D01*
X344424Y135131D01*
X344434Y135024D01*
X344448Y134927D01*
X344465Y134844D01*
X344482Y134768D01*
X344500Y134702D01*
X344517Y134647D01*
X344534Y134599D01*
X344548Y134557D01*
X344566Y134526D01*
X344576Y134502D01*
X344586Y134488D01*
X344590Y134478D01*
X344593Y134474D01*
X344628Y134429D01*
X344666Y134388D01*
X344704Y134353D01*
X344742Y134326D01*
X344780Y134298D01*
X344818Y134277D01*
X344852Y134260D01*
X344887Y134246D01*
X344949Y134229D01*
X344977Y134222D01*
X345001Y134219D01*
X345018D01*
X345035Y134215D01*
X345046D01*
X345094Y134219D01*
X345142Y134226D01*
X345187Y134239D01*
X345229Y134257D01*
X345308Y134295D01*
X345374Y134343D01*
X345426Y134391D01*
X345446Y134412D01*
X345464Y134429D01*
X345481Y134447D01*
X345491Y134460D01*
X345495Y134467D01*
X345498Y134471D01*
X345529Y134526D01*
X345557Y134592D01*
X345584Y134664D01*
X345605Y134744D01*
X345622Y134830D01*
X345636Y134916D01*
X345657Y135093D01*
X345667Y135176D01*
X345671Y135255D01*
X345674Y135328D01*
X345678Y135390D01*
X345681Y135442D01*
Y135466D01*
Y135483D01*
Y135497D01*
Y135507D01*
Y135514D01*
Y135518D01*
X345678Y135659D01*
X345671Y135787D01*
X345664Y135908D01*
X345650Y136015D01*
X345636Y136112D01*
X345619Y136201D01*
X345598Y136278D01*
X345581Y136347D01*
X345564Y136409D01*
X345543Y136457D01*
X345526Y136499D01*
X345512Y136533D01*
X345498Y136561D01*
X345488Y136578D01*
X345484Y136588D01*
X345481Y136592D01*
X345450Y136633D01*
X345415Y136668D01*
X345381Y136699D01*
X345346Y136723D01*
X345308Y136747D01*
X345274Y136765D01*
X345205Y136792D01*
X345142Y136810D01*
X345115Y136813D01*
X345094Y136816D01*
X345073Y136820D01*
D02*
G37*
G36*
X351770Y249012D02*
X351693D01*
X351534Y249005D01*
X351395Y248977D01*
X351270Y248943D01*
X351173Y248908D01*
X351097Y248866D01*
X351042Y248839D01*
X351014Y248811D01*
X351000Y248804D01*
X350924Y248721D01*
X350861Y248637D01*
X350820Y248547D01*
X350792Y248464D01*
X350778Y248395D01*
X350771Y248332D01*
X350764Y248298D01*
Y248284D01*
X350771Y248207D01*
X350778Y248138D01*
X350799Y248076D01*
X350820Y248020D01*
X350834Y247972D01*
X350854Y247937D01*
X350861Y247916D01*
X350868Y247909D01*
X350917Y247847D01*
X350965Y247798D01*
X351014Y247757D01*
X351069Y247715D01*
X351111Y247687D01*
X351146Y247667D01*
X351173Y247660D01*
X351180Y247653D01*
X351270Y247618D01*
X351375Y247590D01*
X351485Y247563D01*
X351596Y247542D01*
X351700Y247521D01*
X351791Y247507D01*
X351818Y247500D01*
X351846Y247493D01*
X351867D01*
X352026Y247472D01*
X352172Y247445D01*
X352304Y247424D01*
X352429Y247396D01*
X352546Y247369D01*
X352650Y247348D01*
X352747Y247320D01*
X352838Y247299D01*
X352907Y247278D01*
X352976Y247257D01*
X353032Y247244D01*
X353073Y247223D01*
X353108Y247209D01*
X353136Y247202D01*
X353150Y247195D01*
X353157D01*
X353150Y247486D01*
X353143Y247667D01*
X353129Y247826D01*
X353108Y247965D01*
X353087Y248076D01*
X353066Y248159D01*
X353046Y248221D01*
X353032Y248256D01*
X353025Y248270D01*
X352956Y248395D01*
X352872Y248499D01*
X352789Y248596D01*
X352706Y248672D01*
X352623Y248734D01*
X352560Y248783D01*
X352519Y248811D01*
X352512Y248818D01*
X352505D01*
X352366Y248880D01*
X352227Y248929D01*
X352096Y248963D01*
X351964Y248984D01*
X351860Y248998D01*
X351811Y249005D01*
X351770Y249012D01*
D02*
G37*
G36*
X339697Y248984D02*
X339642D01*
X339531Y248977D01*
X339434Y248963D01*
X339330Y248943D01*
X339240Y248915D01*
X339073Y248846D01*
X338935Y248762D01*
X338872Y248728D01*
X338817Y248686D01*
X338775Y248651D01*
X338733Y248617D01*
X338706Y248589D01*
X338685Y248568D01*
X338671Y248554D01*
X338664Y248547D01*
X338595Y248457D01*
X338539Y248360D01*
X338484Y248256D01*
X338442Y248152D01*
X338373Y247930D01*
X338324Y247708D01*
X338310Y247611D01*
X338297Y247514D01*
X338290Y247431D01*
X338283Y247355D01*
X338276Y247292D01*
Y247251D01*
Y247216D01*
Y247209D01*
X338283Y247050D01*
X338290Y246897D01*
X338310Y246758D01*
X338338Y246626D01*
X338366Y246509D01*
X338401Y246398D01*
X338435Y246301D01*
X338470Y246210D01*
X338505Y246134D01*
X338539Y246065D01*
X338574Y246009D01*
X338602Y245961D01*
X338629Y245926D01*
X338650Y245898D01*
X338657Y245884D01*
X338664Y245878D01*
X338740Y245801D01*
X338817Y245732D01*
X338900Y245670D01*
X338983Y245621D01*
X339066Y245579D01*
X339143Y245545D01*
X339302Y245489D01*
X339434Y245455D01*
X339496Y245448D01*
X339545Y245441D01*
X339586Y245434D01*
X339642D01*
X339746Y245441D01*
X339850Y245455D01*
X339947Y245475D01*
X340037Y245503D01*
X340204Y245572D01*
X340349Y245656D01*
X340405Y245697D01*
X340460Y245739D01*
X340502Y245774D01*
X340543Y245808D01*
X340571Y245836D01*
X340592Y245857D01*
X340606Y245871D01*
X340613Y245878D01*
X340682Y245968D01*
X340744Y246058D01*
X340793Y246162D01*
X340841Y246266D01*
X340883Y246377D01*
X340911Y246488D01*
X340959Y246696D01*
X340973Y246793D01*
X340987Y246883D01*
X340994Y246966D01*
X341001Y247043D01*
X341008Y247098D01*
Y247147D01*
Y247174D01*
Y247181D01*
X341001Y247348D01*
X340994Y247500D01*
X340973Y247646D01*
X340945Y247778D01*
X340918Y247902D01*
X340883Y248013D01*
X340848Y248117D01*
X340814Y248201D01*
X340772Y248284D01*
X340737Y248353D01*
X340703Y248409D01*
X340675Y248457D01*
X340647Y248492D01*
X340626Y248519D01*
X340620Y248533D01*
X340613Y248540D01*
X340536Y248617D01*
X340460Y248686D01*
X340377Y248748D01*
X340301Y248797D01*
X340217Y248839D01*
X340134Y248873D01*
X339982Y248929D01*
X339850Y248963D01*
X339787Y248970D01*
X339739Y248977D01*
X339697Y248984D01*
D02*
G37*
G36*
X327826D02*
X327777D01*
X327680Y248977D01*
X327590Y248963D01*
X327507Y248943D01*
X327424Y248915D01*
X327278Y248852D01*
X327146Y248769D01*
X327042Y248693D01*
X327001Y248658D01*
X326966Y248624D01*
X326938Y248603D01*
X326918Y248582D01*
X326911Y248568D01*
X326904Y248561D01*
X326841Y248478D01*
X326786Y248381D01*
X326737Y248277D01*
X326696Y248173D01*
X326633Y247951D01*
X326592Y247736D01*
X326571Y247639D01*
X326564Y247542D01*
X326557Y247459D01*
X326550Y247382D01*
X326543Y247320D01*
Y247278D01*
Y247244D01*
Y247237D01*
X326550Y247070D01*
X326557Y246918D01*
X326578Y246779D01*
X326605Y246647D01*
X326633Y246523D01*
X326661Y246411D01*
X326696Y246308D01*
X326737Y246217D01*
X326772Y246134D01*
X326807Y246065D01*
X326834Y246009D01*
X326862Y245961D01*
X326890Y245919D01*
X326911Y245891D01*
X326918Y245878D01*
X326925Y245871D01*
X327001Y245788D01*
X327077Y245718D01*
X327153Y245649D01*
X327230Y245600D01*
X327306Y245552D01*
X327375Y245517D01*
X327514Y245455D01*
X327632Y245427D01*
X327687Y245413D01*
X327729Y245406D01*
X327763Y245399D01*
X327812D01*
X327902Y245406D01*
X327992Y245420D01*
X328083Y245441D01*
X328166Y245469D01*
X328311Y245538D01*
X328436Y245621D01*
X328540Y245704D01*
X328589Y245739D01*
X328623Y245774D01*
X328651Y245801D01*
X328672Y245822D01*
X328679Y245836D01*
X328686Y245843D01*
X328748Y245933D01*
X328811Y246030D01*
X328859Y246127D01*
X328901Y246238D01*
X328963Y246460D01*
X329005Y246675D01*
X329026Y246779D01*
X329033Y246869D01*
X329039Y246952D01*
X329046Y247029D01*
X329053Y247091D01*
Y247133D01*
Y247167D01*
Y247174D01*
X329046Y247341D01*
X329039Y247500D01*
X329019Y247646D01*
X328998Y247778D01*
X328970Y247902D01*
X328935Y248020D01*
X328901Y248117D01*
X328866Y248207D01*
X328831Y248291D01*
X328797Y248360D01*
X328769Y248416D01*
X328734Y248464D01*
X328713Y248499D01*
X328693Y248526D01*
X328686Y248540D01*
X328679Y248547D01*
X328610Y248624D01*
X328533Y248693D01*
X328457Y248748D01*
X328381Y248797D01*
X328304Y248839D01*
X328228Y248880D01*
X328089Y248929D01*
X327965Y248963D01*
X327909Y248970D01*
X327868Y248977D01*
X327826Y248984D01*
D02*
G37*
G36*
X322799D02*
X322743D01*
X322632Y248977D01*
X322535Y248963D01*
X322431Y248943D01*
X322341Y248915D01*
X322175Y248846D01*
X322036Y248762D01*
X321973Y248728D01*
X321918Y248686D01*
X321876Y248651D01*
X321835Y248617D01*
X321807Y248589D01*
X321786Y248568D01*
X321772Y248554D01*
X321765Y248547D01*
X321696Y248457D01*
X321641Y248360D01*
X321585Y248256D01*
X321544Y248152D01*
X321474Y247930D01*
X321426Y247708D01*
X321412Y247611D01*
X321398Y247514D01*
X321391Y247431D01*
X321384Y247355D01*
X321377Y247292D01*
Y247251D01*
Y247216D01*
Y247209D01*
X321384Y247050D01*
X321391Y246897D01*
X321412Y246758D01*
X321440Y246626D01*
X321467Y246509D01*
X321502Y246398D01*
X321537Y246301D01*
X321571Y246210D01*
X321606Y246134D01*
X321641Y246065D01*
X321675Y246009D01*
X321703Y245961D01*
X321731Y245926D01*
X321752Y245898D01*
X321758Y245884D01*
X321765Y245878D01*
X321842Y245801D01*
X321918Y245732D01*
X322001Y245670D01*
X322084Y245621D01*
X322168Y245579D01*
X322244Y245545D01*
X322403Y245489D01*
X322535Y245455D01*
X322598Y245448D01*
X322646Y245441D01*
X322688Y245434D01*
X322743D01*
X322847Y245441D01*
X322951Y245455D01*
X323048Y245475D01*
X323138Y245503D01*
X323305Y245572D01*
X323451Y245656D01*
X323506Y245697D01*
X323561Y245739D01*
X323603Y245774D01*
X323645Y245808D01*
X323672Y245836D01*
X323693Y245857D01*
X323707Y245871D01*
X323714Y245878D01*
X323783Y245968D01*
X323846Y246058D01*
X323894Y246162D01*
X323943Y246266D01*
X323984Y246377D01*
X324012Y246488D01*
X324061Y246696D01*
X324075Y246793D01*
X324088Y246883D01*
X324095Y246966D01*
X324102Y247043D01*
X324109Y247098D01*
Y247147D01*
Y247174D01*
Y247181D01*
X324102Y247348D01*
X324095Y247500D01*
X324075Y247646D01*
X324047Y247778D01*
X324019Y247902D01*
X323984Y248013D01*
X323950Y248117D01*
X323915Y248201D01*
X323873Y248284D01*
X323839Y248353D01*
X323804Y248409D01*
X323776Y248457D01*
X323749Y248492D01*
X323728Y248519D01*
X323721Y248533D01*
X323714Y248540D01*
X323638Y248617D01*
X323561Y248686D01*
X323478Y248748D01*
X323402Y248797D01*
X323319Y248839D01*
X323236Y248873D01*
X323083Y248929D01*
X322951Y248963D01*
X322889Y248970D01*
X322840Y248977D01*
X322799Y248984D01*
D02*
G37*
G36*
X566770Y249012D02*
X566693D01*
X566534Y249005D01*
X566395Y248977D01*
X566270Y248943D01*
X566173Y248908D01*
X566097Y248866D01*
X566042Y248839D01*
X566014Y248811D01*
X566000Y248804D01*
X565924Y248721D01*
X565861Y248637D01*
X565820Y248547D01*
X565792Y248464D01*
X565778Y248395D01*
X565771Y248332D01*
X565764Y248298D01*
Y248284D01*
X565771Y248207D01*
X565778Y248138D01*
X565799Y248076D01*
X565820Y248020D01*
X565834Y247972D01*
X565854Y247937D01*
X565861Y247916D01*
X565868Y247909D01*
X565917Y247847D01*
X565965Y247798D01*
X566014Y247757D01*
X566069Y247715D01*
X566111Y247687D01*
X566146Y247667D01*
X566173Y247660D01*
X566180Y247653D01*
X566270Y247618D01*
X566375Y247590D01*
X566485Y247563D01*
X566596Y247542D01*
X566700Y247521D01*
X566791Y247507D01*
X566818Y247500D01*
X566846Y247493D01*
X566867D01*
X567026Y247472D01*
X567172Y247445D01*
X567304Y247424D01*
X567429Y247396D01*
X567546Y247369D01*
X567650Y247348D01*
X567747Y247320D01*
X567838Y247299D01*
X567907Y247278D01*
X567976Y247257D01*
X568032Y247244D01*
X568073Y247223D01*
X568108Y247209D01*
X568136Y247202D01*
X568150Y247195D01*
X568157D01*
X568150Y247486D01*
X568143Y247667D01*
X568129Y247826D01*
X568108Y247965D01*
X568087Y248076D01*
X568066Y248159D01*
X568046Y248221D01*
X568032Y248256D01*
X568025Y248270D01*
X567956Y248395D01*
X567872Y248499D01*
X567789Y248596D01*
X567706Y248672D01*
X567623Y248734D01*
X567560Y248783D01*
X567519Y248811D01*
X567512Y248818D01*
X567505D01*
X567366Y248880D01*
X567227Y248929D01*
X567096Y248963D01*
X566964Y248984D01*
X566860Y248998D01*
X566811Y249005D01*
X566770Y249012D01*
D02*
G37*
G36*
X554697Y248984D02*
X554642D01*
X554531Y248977D01*
X554434Y248963D01*
X554330Y248943D01*
X554240Y248915D01*
X554073Y248846D01*
X553935Y248762D01*
X553872Y248728D01*
X553817Y248686D01*
X553775Y248651D01*
X553733Y248617D01*
X553706Y248589D01*
X553685Y248568D01*
X553671Y248554D01*
X553664Y248547D01*
X553595Y248457D01*
X553539Y248360D01*
X553484Y248256D01*
X553442Y248152D01*
X553373Y247930D01*
X553324Y247708D01*
X553311Y247611D01*
X553297Y247514D01*
X553290Y247431D01*
X553283Y247355D01*
X553276Y247292D01*
Y247251D01*
Y247216D01*
Y247209D01*
X553283Y247050D01*
X553290Y246897D01*
X553311Y246758D01*
X553338Y246626D01*
X553366Y246509D01*
X553401Y246398D01*
X553435Y246301D01*
X553470Y246210D01*
X553505Y246134D01*
X553539Y246065D01*
X553574Y246009D01*
X553602Y245961D01*
X553629Y245926D01*
X553650Y245898D01*
X553657Y245884D01*
X553664Y245878D01*
X553740Y245801D01*
X553817Y245732D01*
X553900Y245670D01*
X553983Y245621D01*
X554066Y245579D01*
X554143Y245545D01*
X554302Y245489D01*
X554434Y245455D01*
X554496Y245448D01*
X554545Y245441D01*
X554586Y245434D01*
X554642D01*
X554746Y245441D01*
X554850Y245455D01*
X554947Y245475D01*
X555037Y245503D01*
X555204Y245572D01*
X555349Y245656D01*
X555405Y245697D01*
X555460Y245739D01*
X555502Y245774D01*
X555543Y245808D01*
X555571Y245836D01*
X555592Y245857D01*
X555606Y245871D01*
X555613Y245878D01*
X555682Y245968D01*
X555744Y246058D01*
X555793Y246162D01*
X555841Y246266D01*
X555883Y246377D01*
X555911Y246488D01*
X555959Y246696D01*
X555973Y246793D01*
X555987Y246883D01*
X555994Y246966D01*
X556001Y247043D01*
X556008Y247098D01*
Y247147D01*
Y247174D01*
Y247181D01*
X556001Y247348D01*
X555994Y247500D01*
X555973Y247646D01*
X555946Y247778D01*
X555918Y247902D01*
X555883Y248013D01*
X555848Y248117D01*
X555814Y248201D01*
X555772Y248284D01*
X555737Y248353D01*
X555703Y248409D01*
X555675Y248457D01*
X555647Y248492D01*
X555626Y248519D01*
X555620Y248533D01*
X555613Y248540D01*
X555536Y248617D01*
X555460Y248686D01*
X555377Y248748D01*
X555301Y248797D01*
X555217Y248839D01*
X555134Y248873D01*
X554982Y248929D01*
X554850Y248963D01*
X554787Y248970D01*
X554739Y248977D01*
X554697Y248984D01*
D02*
G37*
G36*
X542826D02*
X542777D01*
X542680Y248977D01*
X542590Y248963D01*
X542507Y248943D01*
X542424Y248915D01*
X542278Y248852D01*
X542146Y248769D01*
X542042Y248693D01*
X542001Y248658D01*
X541966Y248624D01*
X541938Y248603D01*
X541918Y248582D01*
X541911Y248568D01*
X541904Y248561D01*
X541841Y248478D01*
X541786Y248381D01*
X541737Y248277D01*
X541696Y248173D01*
X541633Y247951D01*
X541592Y247736D01*
X541571Y247639D01*
X541564Y247542D01*
X541557Y247459D01*
X541550Y247382D01*
X541543Y247320D01*
Y247278D01*
Y247244D01*
Y247237D01*
X541550Y247070D01*
X541557Y246918D01*
X541578Y246779D01*
X541605Y246647D01*
X541633Y246523D01*
X541661Y246411D01*
X541696Y246308D01*
X541737Y246217D01*
X541772Y246134D01*
X541807Y246065D01*
X541834Y246009D01*
X541862Y245961D01*
X541890Y245919D01*
X541911Y245891D01*
X541918Y245878D01*
X541925Y245871D01*
X542001Y245788D01*
X542077Y245718D01*
X542153Y245649D01*
X542230Y245600D01*
X542306Y245552D01*
X542375Y245517D01*
X542514Y245455D01*
X542632Y245427D01*
X542687Y245413D01*
X542729Y245406D01*
X542764Y245399D01*
X542812D01*
X542902Y245406D01*
X542992Y245420D01*
X543083Y245441D01*
X543166Y245469D01*
X543311Y245538D01*
X543436Y245621D01*
X543540Y245704D01*
X543589Y245739D01*
X543623Y245774D01*
X543651Y245801D01*
X543672Y245822D01*
X543679Y245836D01*
X543686Y245843D01*
X543748Y245933D01*
X543811Y246030D01*
X543859Y246127D01*
X543901Y246238D01*
X543963Y246460D01*
X544005Y246675D01*
X544026Y246779D01*
X544033Y246869D01*
X544039Y246952D01*
X544046Y247029D01*
X544053Y247091D01*
Y247133D01*
Y247167D01*
Y247174D01*
X544046Y247341D01*
X544039Y247500D01*
X544019Y247646D01*
X543998Y247778D01*
X543970Y247902D01*
X543935Y248020D01*
X543901Y248117D01*
X543866Y248207D01*
X543831Y248291D01*
X543797Y248360D01*
X543769Y248416D01*
X543734Y248464D01*
X543713Y248499D01*
X543693Y248526D01*
X543686Y248540D01*
X543679Y248547D01*
X543610Y248624D01*
X543533Y248693D01*
X543457Y248748D01*
X543381Y248797D01*
X543304Y248839D01*
X543228Y248880D01*
X543089Y248929D01*
X542965Y248963D01*
X542909Y248970D01*
X542868Y248977D01*
X542826Y248984D01*
D02*
G37*
G36*
X537799D02*
X537743D01*
X537632Y248977D01*
X537535Y248963D01*
X537431Y248943D01*
X537341Y248915D01*
X537175Y248846D01*
X537036Y248762D01*
X536973Y248728D01*
X536918Y248686D01*
X536876Y248651D01*
X536835Y248617D01*
X536807Y248589D01*
X536786Y248568D01*
X536772Y248554D01*
X536766Y248547D01*
X536696Y248457D01*
X536641Y248360D01*
X536585Y248256D01*
X536544Y248152D01*
X536474Y247930D01*
X536426Y247708D01*
X536412Y247611D01*
X536398Y247514D01*
X536391Y247431D01*
X536384Y247355D01*
X536377Y247292D01*
Y247251D01*
Y247216D01*
Y247209D01*
X536384Y247050D01*
X536391Y246897D01*
X536412Y246758D01*
X536440Y246626D01*
X536467Y246509D01*
X536502Y246398D01*
X536537Y246301D01*
X536571Y246210D01*
X536606Y246134D01*
X536641Y246065D01*
X536675Y246009D01*
X536703Y245961D01*
X536731Y245926D01*
X536752Y245898D01*
X536758Y245884D01*
X536766Y245878D01*
X536842Y245801D01*
X536918Y245732D01*
X537001Y245670D01*
X537084Y245621D01*
X537168Y245579D01*
X537244Y245545D01*
X537403Y245489D01*
X537535Y245455D01*
X537598Y245448D01*
X537646Y245441D01*
X537688Y245434D01*
X537743D01*
X537847Y245441D01*
X537951Y245455D01*
X538048Y245475D01*
X538138Y245503D01*
X538305Y245572D01*
X538451Y245656D01*
X538506Y245697D01*
X538561Y245739D01*
X538603Y245774D01*
X538645Y245808D01*
X538672Y245836D01*
X538693Y245857D01*
X538707Y245871D01*
X538714Y245878D01*
X538783Y245968D01*
X538846Y246058D01*
X538894Y246162D01*
X538943Y246266D01*
X538984Y246377D01*
X539012Y246488D01*
X539061Y246696D01*
X539075Y246793D01*
X539088Y246883D01*
X539095Y246966D01*
X539102Y247043D01*
X539109Y247098D01*
Y247147D01*
Y247174D01*
Y247181D01*
X539102Y247348D01*
X539095Y247500D01*
X539075Y247646D01*
X539047Y247778D01*
X539019Y247902D01*
X538984Y248013D01*
X538950Y248117D01*
X538915Y248201D01*
X538873Y248284D01*
X538839Y248353D01*
X538804Y248409D01*
X538776Y248457D01*
X538749Y248492D01*
X538728Y248519D01*
X538721Y248533D01*
X538714Y248540D01*
X538638Y248617D01*
X538561Y248686D01*
X538478Y248748D01*
X538402Y248797D01*
X538319Y248839D01*
X538236Y248873D01*
X538083Y248929D01*
X537951Y248963D01*
X537889Y248970D01*
X537840Y248977D01*
X537799Y248984D01*
D02*
G37*
%LPD*%
M02*
