G04*
G04 #@! TF.GenerationSoftware,Altium Limited,Altium Designer,21.6.4 (81)*
G04*
G04 Layer_Color=128*
%FSLAX44Y44*%
%MOMM*%
G71*
G04*
G04 #@! TF.SameCoordinates,4107C3E3-393E-48B2-8F04-51D99C162D70*
G04*
G04*
G04 #@! TF.FilePolarity,Positive*
G04*
G01*
G75*
%ADD55C,0.0508*%
D55*
X70000Y50000D02*
X95000D01*
X82500Y37500D02*
Y62500D01*
X225000Y50000D02*
X250000D01*
X237500Y37500D02*
Y62500D01*
X113985Y-2500D02*
X116015D01*
X115000Y-3515D02*
Y-1485D01*
X18985Y-2500D02*
X21015D01*
X20000Y-3515D02*
Y-1485D01*
X46485Y-2500D02*
X48515D01*
X47500Y-3515D02*
Y-1485D01*
X73985Y100000D02*
X76015D01*
X75000Y98985D02*
Y101015D01*
X51485Y100000D02*
X53515D01*
X52500Y98985D02*
Y101015D01*
X255062Y65647D02*
X257092D01*
X256077Y64632D02*
Y66662D01*
X255062Y25647D02*
X257092D01*
X256077Y24632D02*
Y26662D01*
X245062Y5647D02*
X247092D01*
X246077Y4632D02*
Y6662D01*
X235062Y25647D02*
X237092D01*
X236077Y24632D02*
Y26662D01*
X225062Y5647D02*
X227092D01*
X226077Y4632D02*
Y6662D01*
X215062Y65647D02*
X217092D01*
X216077Y64632D02*
Y66662D01*
X215062Y25647D02*
X217092D01*
X216077Y24632D02*
Y26662D01*
X205062Y5647D02*
X207092D01*
X206077Y4632D02*
Y6662D01*
X185062Y5647D02*
X187092D01*
X186077Y4632D02*
Y6662D01*
X155062Y25647D02*
X157092D01*
X156077Y24632D02*
Y26662D01*
X85062Y85647D02*
X87092D01*
X86076Y84632D02*
Y86662D01*
X65061Y85647D02*
X67091D01*
X66076Y84632D02*
Y86662D01*
X55061Y65647D02*
X57091D01*
X56076Y64632D02*
Y66662D01*
X5062Y85647D02*
X7092D01*
X6076Y84632D02*
Y86662D01*
X15062Y65647D02*
X17091D01*
X16077Y64632D02*
Y66662D01*
X15062Y25647D02*
X17091D01*
X16077Y24632D02*
Y26662D01*
X5062Y5647D02*
X7092D01*
X6076Y4632D02*
Y6662D01*
X201985Y96750D02*
X204015D01*
X203000Y95735D02*
Y97765D01*
X201985Y88560D02*
X204015D01*
X203000Y87545D02*
Y89575D01*
X201985Y80250D02*
X204015D01*
X203000Y79235D02*
Y81265D01*
X202235Y22500D02*
X204265D01*
X203250Y21485D02*
Y23515D01*
X170235Y65250D02*
X172265D01*
X171250Y64235D02*
Y66265D01*
X186485Y16000D02*
X188515D01*
X187500Y14985D02*
Y17015D01*
X125985Y25250D02*
X128015D01*
X127000Y24235D02*
Y26265D01*
X108235Y43500D02*
X110265D01*
X109250Y42485D02*
Y44515D01*
X98485Y28500D02*
X100515D01*
X99500Y27485D02*
Y29515D01*
X33100Y61976D02*
X35129D01*
X34115Y60961D02*
Y62991D01*
X33735Y67500D02*
X35765D01*
X34750Y66485D02*
Y68515D01*
X6485Y57500D02*
X8515D01*
X7500Y56485D02*
Y58515D01*
X246485Y100000D02*
X248515D01*
X247500Y98985D02*
Y101015D01*
X219985Y100500D02*
X222015D01*
X221000Y99485D02*
Y101515D01*
X13985Y100000D02*
X16015D01*
X15000Y98985D02*
Y101015D01*
X96485Y0D02*
X98515D01*
X97500Y-1015D02*
Y1015D01*
X141485Y0D02*
X143515D01*
X142500Y-1015D02*
Y1015D01*
X155985Y5500D02*
X158015D01*
X157000Y4485D02*
Y6515D01*
X155985Y19500D02*
X158015D01*
X157000Y18485D02*
Y20515D01*
X188985Y32500D02*
X191015D01*
X190000Y31485D02*
Y33515D01*
X198985Y32500D02*
X201015D01*
X200000Y31485D02*
Y33515D01*
X188985Y67500D02*
X191015D01*
X190000Y66485D02*
Y68515D01*
X198985Y67500D02*
X201015D01*
X200000Y66485D02*
Y68515D01*
X51735Y9500D02*
X53765D01*
X52750Y8485D02*
Y10515D01*
X208985Y42500D02*
X211015D01*
X210000Y41485D02*
Y43515D01*
X208985Y57500D02*
X211015D01*
X210000Y56485D02*
Y58515D01*
X208985Y67500D02*
X211015D01*
X210000Y66485D02*
Y68515D01*
X208985Y32500D02*
X211015D01*
X210000Y31485D02*
Y33515D01*
X140735Y89000D02*
X142765D01*
X141750Y87985D02*
Y90015D01*
X148925Y89000D02*
X150955D01*
X149940Y87985D02*
Y90015D01*
X157235Y89000D02*
X159265D01*
X158250Y87985D02*
Y90015D01*
X110735Y89000D02*
X112765D01*
X111750Y87985D02*
Y90015D01*
X118925Y89000D02*
X120955D01*
X119940Y87985D02*
Y90015D01*
X127235Y89000D02*
X129265D01*
X128250Y87985D02*
Y90015D01*
X33070Y42415D02*
X35100D01*
X34085Y41400D02*
Y43430D01*
X28900Y47415D02*
X30930D01*
X29915Y46400D02*
Y48430D01*
X32985Y52500D02*
X35015D01*
X34000Y51485D02*
Y53515D01*
X31070Y72415D02*
X33100D01*
X32085Y71400D02*
Y73430D01*
X29485Y57000D02*
X31515D01*
X30500Y55985D02*
Y58015D01*
X140860Y55625D02*
X142890D01*
X141875Y54610D02*
Y56640D01*
X136735Y51250D02*
X138765D01*
X137750Y50235D02*
Y52265D01*
X130235Y49000D02*
X132265D01*
X131250Y47985D02*
Y50015D01*
X154235Y37500D02*
X156265D01*
X155250Y36485D02*
Y38515D01*
X129985Y28250D02*
X132015D01*
X131000Y27235D02*
Y29265D01*
X126985Y31250D02*
X129015D01*
X128000Y30235D02*
Y32265D01*
M02*
