G04*
G04 #@! TF.GenerationSoftware,Altium Limited,Altium Designer,21.6.4 (81)*
G04*
G04 Layer_Color=32768*
%FSLAX44Y44*%
%MOMM*%
G71*
G04*
G04 #@! TF.SameCoordinates,4107C3E3-393E-48B2-8F04-51D99C162D70*
G04*
G04*
G04 #@! TF.FilePolarity,Positive*
G04*
G01*
G75*
G36*
X4620Y80026D02*
X4411Y79984D01*
X4236Y79926D01*
X4086Y79859D01*
X3961Y79792D01*
X3870Y79734D01*
X3795Y79676D01*
X3761Y79642D01*
X3745Y79626D01*
X3653Y79501D01*
X3586Y79376D01*
X3537Y79251D01*
X3503Y79126D01*
X3487Y79018D01*
X3478Y78934D01*
X3470Y78901D01*
Y78859D01*
X3478Y78751D01*
X3487Y78651D01*
X3537Y78468D01*
X3603Y78309D01*
X3678Y78176D01*
X3753Y78068D01*
X3820Y77993D01*
X3870Y77943D01*
X3878Y77934D01*
X3886Y77926D01*
X3970Y77868D01*
X4070Y77810D01*
X4278Y77726D01*
X4503Y77660D01*
X4728Y77618D01*
X4828Y77610D01*
X4928Y77593D01*
X5011Y77585D01*
X5094D01*
X5153Y77576D01*
X5203D01*
X5236D01*
X5244D01*
X5411Y77585D01*
X5569Y77593D01*
X5711Y77610D01*
X5844Y77635D01*
X5961Y77660D01*
X6069Y77693D01*
X6169Y77726D01*
X6261Y77760D01*
X6336Y77793D01*
X6402Y77826D01*
X6461Y77860D01*
X6502Y77885D01*
X6544Y77909D01*
X6569Y77926D01*
X6577Y77943D01*
X6586D01*
X6661Y78018D01*
X6727Y78093D01*
X6786Y78168D01*
X6836Y78251D01*
X6911Y78409D01*
X6961Y78559D01*
X6986Y78693D01*
X6994Y78751D01*
X7002Y78801D01*
X7011Y78843D01*
Y78901D01*
X7002Y79043D01*
X6977Y79168D01*
X6936Y79284D01*
X6894Y79384D01*
X6844Y79459D01*
X6811Y79517D01*
X6777Y79559D01*
X6769Y79567D01*
X6669Y79667D01*
X6561Y79742D01*
X6444Y79809D01*
X6336Y79867D01*
X6236Y79909D01*
X6152Y79934D01*
X6119Y79951D01*
X6094D01*
X6086Y79959D01*
X6077D01*
X6194Y80725D01*
X6444Y80659D01*
X6661Y80567D01*
X6844Y80467D01*
X7002Y80359D01*
X7061Y80309D01*
X7119Y80259D01*
X7169Y80217D01*
X7211Y80176D01*
X7236Y80142D01*
X7261Y80126D01*
X7269Y80109D01*
X7277Y80101D01*
X7344Y80009D01*
X7402Y79909D01*
X7502Y79709D01*
X7569Y79501D01*
X7610Y79309D01*
X7627Y79218D01*
X7644Y79143D01*
X7652Y79068D01*
Y79001D01*
X7660Y78951D01*
Y78876D01*
X7652Y78659D01*
X7619Y78451D01*
X7569Y78260D01*
X7519Y78101D01*
X7469Y77959D01*
X7444Y77901D01*
X7419Y77860D01*
X7402Y77818D01*
X7386Y77793D01*
X7377Y77776D01*
Y77768D01*
X7261Y77593D01*
X7127Y77435D01*
X6986Y77301D01*
X6844Y77201D01*
X6719Y77118D01*
X6619Y77060D01*
X6586Y77035D01*
X6552Y77018D01*
X6536Y77010D01*
X6527D01*
X6311Y76926D01*
X6086Y76868D01*
X5869Y76827D01*
X5661Y76802D01*
X5569Y76785D01*
X5486D01*
X5411Y76776D01*
X5344Y76768D01*
X5294D01*
X5253D01*
X5228D01*
X5219D01*
X5011Y76776D01*
X4811Y76793D01*
X4628Y76818D01*
X4453Y76860D01*
X4295Y76901D01*
X4145Y76951D01*
X4011Y77001D01*
X3895Y77060D01*
X3786Y77110D01*
X3695Y77160D01*
X3620Y77210D01*
X3553Y77251D01*
X3503Y77293D01*
X3470Y77318D01*
X3445Y77335D01*
X3437Y77343D01*
X3328Y77451D01*
X3237Y77576D01*
X3153Y77701D01*
X3078Y77826D01*
X3020Y77951D01*
X2970Y78076D01*
X2928Y78201D01*
X2895Y78318D01*
X2870Y78434D01*
X2853Y78534D01*
X2837Y78626D01*
X2828Y78709D01*
Y78776D01*
X2820Y78826D01*
Y78868D01*
X2828Y79009D01*
X2837Y79143D01*
X2887Y79384D01*
X2962Y79601D01*
X3003Y79701D01*
X3045Y79792D01*
X3078Y79867D01*
X3120Y79942D01*
X3162Y80001D01*
X3195Y80051D01*
X3220Y80092D01*
X3245Y80117D01*
X3253Y80134D01*
X3262Y80142D01*
X3353Y80234D01*
X3445Y80326D01*
X3545Y80401D01*
X3645Y80467D01*
X3853Y80584D01*
X4053Y80667D01*
X4145Y80701D01*
X4236Y80734D01*
X4311Y80751D01*
X4378Y80775D01*
X4436Y80784D01*
X4478Y80792D01*
X4503Y80801D01*
X4511D01*
X4620Y80026D01*
D02*
G37*
G36*
X9377Y76568D02*
X9402Y76435D01*
X9418Y76310D01*
X9427Y76202D01*
X9435Y76110D01*
Y75985D01*
X9427Y75802D01*
X9402Y75644D01*
X9377Y75502D01*
X9343Y75385D01*
X9302Y75294D01*
X9277Y75227D01*
X9252Y75194D01*
X9243Y75177D01*
X9168Y75077D01*
X9085Y74994D01*
X9002Y74927D01*
X8918Y74877D01*
X8852Y74835D01*
X8794Y74810D01*
X8760Y74794D01*
X8744Y74785D01*
X8652Y74760D01*
X8543Y74735D01*
X8427Y74719D01*
X8310Y74710D01*
X8210D01*
X8127Y74702D01*
X8094D01*
X8069D01*
X8060D01*
X8052D01*
X7560D01*
Y74011D01*
X6952D01*
Y74702D01*
X2920D01*
Y75485D01*
X6952D01*
Y76385D01*
X7560D01*
Y75485D01*
X7985D01*
X8127Y75493D01*
X8252Y75510D01*
X8352Y75535D01*
X8427Y75560D01*
X8485Y75585D01*
X8519Y75610D01*
X8543Y75627D01*
X8552Y75635D01*
X8602Y75702D01*
X8644Y75777D01*
X8669Y75860D01*
X8694Y75943D01*
X8702Y76018D01*
X8710Y76085D01*
Y76143D01*
X8702Y76310D01*
X8694Y76385D01*
X8685Y76452D01*
X8677Y76510D01*
X8669Y76560D01*
X8660Y76593D01*
Y76602D01*
X9352Y76718D01*
X9377Y76568D01*
D02*
G37*
G36*
Y74085D02*
X9402Y73952D01*
X9418Y73827D01*
X9427Y73719D01*
X9435Y73627D01*
Y73502D01*
X9427Y73319D01*
X9402Y73161D01*
X9377Y73019D01*
X9343Y72902D01*
X9302Y72811D01*
X9277Y72744D01*
X9252Y72711D01*
X9243Y72694D01*
X9168Y72594D01*
X9085Y72511D01*
X9002Y72444D01*
X8918Y72394D01*
X8852Y72353D01*
X8794Y72328D01*
X8760Y72311D01*
X8744Y72303D01*
X8652Y72278D01*
X8543Y72253D01*
X8427Y72236D01*
X8310Y72228D01*
X8210D01*
X8127Y72219D01*
X8094D01*
X8069D01*
X8060D01*
X8052D01*
X7560D01*
Y71528D01*
X6952D01*
Y72219D01*
X2920D01*
Y73003D01*
X6952D01*
Y73902D01*
X7560D01*
Y73003D01*
X7985D01*
X8127Y73011D01*
X8252Y73028D01*
X8352Y73053D01*
X8427Y73078D01*
X8485Y73102D01*
X8519Y73127D01*
X8543Y73144D01*
X8552Y73152D01*
X8602Y73219D01*
X8644Y73294D01*
X8669Y73377D01*
X8694Y73461D01*
X8702Y73536D01*
X8710Y73602D01*
Y73661D01*
X8702Y73827D01*
X8694Y73902D01*
X8685Y73969D01*
X8677Y74027D01*
X8669Y74077D01*
X8660Y74110D01*
Y74119D01*
X9352Y74236D01*
X9377Y74085D01*
D02*
G37*
G36*
X3620Y68779D02*
X3611Y68704D01*
X3603Y68637D01*
Y68570D01*
X3595Y68520D01*
Y68429D01*
X3603Y68312D01*
X3620Y68229D01*
X3628Y68195D01*
X3636Y68170D01*
X3645Y68162D01*
Y68154D01*
X3695Y68095D01*
X3745Y68054D01*
X3778Y68029D01*
X3795Y68020D01*
X3845Y68012D01*
X3903Y68004D01*
X3978Y67995D01*
X4053D01*
X4120Y67987D01*
X4178D01*
X4220D01*
X4236D01*
X6952D01*
Y68779D01*
X7560D01*
Y67987D01*
X9177D01*
X8702Y67204D01*
X7560D01*
Y66621D01*
X6952D01*
Y67204D01*
X4278D01*
X4153D01*
X4036Y67212D01*
X3928D01*
X3836Y67221D01*
X3745Y67229D01*
X3670Y67237D01*
X3603Y67246D01*
X3545Y67254D01*
X3453Y67271D01*
X3395Y67279D01*
X3353Y67296D01*
X3345D01*
X3270Y67337D01*
X3203Y67387D01*
X3137Y67446D01*
X3087Y67504D01*
X3045Y67554D01*
X3020Y67587D01*
X3003Y67621D01*
X2995Y67629D01*
X2953Y67720D01*
X2920Y67829D01*
X2895Y67937D01*
X2878Y68045D01*
X2870Y68137D01*
X2862Y68220D01*
Y68287D01*
X2870Y68495D01*
X2887Y68595D01*
X2895Y68687D01*
X2912Y68770D01*
X2920Y68829D01*
X2928Y68870D01*
Y68887D01*
X3620Y68779D01*
D02*
G37*
G36*
X4620Y65621D02*
X4411Y65579D01*
X4236Y65521D01*
X4086Y65454D01*
X3961Y65388D01*
X3870Y65329D01*
X3795Y65271D01*
X3761Y65238D01*
X3745Y65221D01*
X3653Y65096D01*
X3586Y64971D01*
X3537Y64846D01*
X3503Y64721D01*
X3487Y64613D01*
X3478Y64530D01*
X3470Y64496D01*
Y64455D01*
X3478Y64346D01*
X3487Y64246D01*
X3537Y64063D01*
X3603Y63905D01*
X3678Y63772D01*
X3753Y63663D01*
X3820Y63588D01*
X3870Y63538D01*
X3878Y63530D01*
X3886Y63522D01*
X3970Y63463D01*
X4070Y63405D01*
X4278Y63322D01*
X4503Y63255D01*
X4728Y63213D01*
X4828Y63205D01*
X4928Y63188D01*
X5011Y63180D01*
X5094D01*
X5153Y63172D01*
X5203D01*
X5236D01*
X5244D01*
X5411Y63180D01*
X5569Y63188D01*
X5711Y63205D01*
X5844Y63230D01*
X5961Y63255D01*
X6069Y63288D01*
X6169Y63322D01*
X6261Y63355D01*
X6336Y63388D01*
X6402Y63422D01*
X6461Y63455D01*
X6502Y63480D01*
X6544Y63505D01*
X6569Y63522D01*
X6577Y63538D01*
X6586D01*
X6661Y63613D01*
X6727Y63688D01*
X6786Y63763D01*
X6836Y63847D01*
X6911Y64005D01*
X6961Y64155D01*
X6986Y64288D01*
X6994Y64346D01*
X7002Y64396D01*
X7011Y64438D01*
Y64496D01*
X7002Y64638D01*
X6977Y64763D01*
X6936Y64880D01*
X6894Y64980D01*
X6844Y65054D01*
X6811Y65113D01*
X6777Y65155D01*
X6769Y65163D01*
X6669Y65263D01*
X6561Y65338D01*
X6444Y65404D01*
X6336Y65463D01*
X6236Y65504D01*
X6152Y65529D01*
X6119Y65546D01*
X6094D01*
X6086Y65554D01*
X6077D01*
X6194Y66321D01*
X6444Y66254D01*
X6661Y66163D01*
X6844Y66063D01*
X7002Y65954D01*
X7061Y65904D01*
X7119Y65854D01*
X7169Y65813D01*
X7211Y65771D01*
X7236Y65738D01*
X7261Y65721D01*
X7269Y65704D01*
X7277Y65696D01*
X7344Y65604D01*
X7402Y65504D01*
X7502Y65304D01*
X7569Y65096D01*
X7610Y64904D01*
X7627Y64813D01*
X7644Y64738D01*
X7652Y64663D01*
Y64596D01*
X7660Y64546D01*
Y64471D01*
X7652Y64255D01*
X7619Y64046D01*
X7569Y63855D01*
X7519Y63696D01*
X7469Y63555D01*
X7444Y63497D01*
X7419Y63455D01*
X7402Y63413D01*
X7386Y63388D01*
X7377Y63372D01*
Y63363D01*
X7261Y63188D01*
X7127Y63030D01*
X6986Y62897D01*
X6844Y62797D01*
X6719Y62713D01*
X6619Y62655D01*
X6586Y62630D01*
X6552Y62614D01*
X6536Y62605D01*
X6527D01*
X6311Y62522D01*
X6086Y62463D01*
X5869Y62422D01*
X5661Y62397D01*
X5569Y62380D01*
X5486D01*
X5411Y62372D01*
X5344Y62364D01*
X5294D01*
X5253D01*
X5228D01*
X5219D01*
X5011Y62372D01*
X4811Y62389D01*
X4628Y62414D01*
X4453Y62455D01*
X4295Y62497D01*
X4145Y62547D01*
X4011Y62597D01*
X3895Y62655D01*
X3786Y62705D01*
X3695Y62755D01*
X3620Y62805D01*
X3553Y62847D01*
X3503Y62888D01*
X3470Y62913D01*
X3445Y62930D01*
X3437Y62938D01*
X3328Y63047D01*
X3237Y63172D01*
X3153Y63297D01*
X3078Y63422D01*
X3020Y63547D01*
X2970Y63671D01*
X2928Y63797D01*
X2895Y63913D01*
X2870Y64030D01*
X2853Y64130D01*
X2837Y64221D01*
X2828Y64305D01*
Y64371D01*
X2820Y64421D01*
Y64463D01*
X2828Y64605D01*
X2837Y64738D01*
X2887Y64980D01*
X2962Y65196D01*
X3003Y65296D01*
X3045Y65388D01*
X3078Y65463D01*
X3120Y65538D01*
X3162Y65596D01*
X3195Y65646D01*
X3220Y65688D01*
X3245Y65713D01*
X3253Y65729D01*
X3262Y65738D01*
X3353Y65829D01*
X3445Y65921D01*
X3545Y65996D01*
X3645Y66063D01*
X3853Y66179D01*
X4053Y66262D01*
X4145Y66296D01*
X4236Y66329D01*
X4311Y66346D01*
X4378Y66371D01*
X4436Y66379D01*
X4478Y66388D01*
X4503Y66396D01*
X4511D01*
X4620Y65621D01*
D02*
G37*
G36*
X3020Y61572D02*
X3120Y61530D01*
X3212Y61497D01*
X3303Y61464D01*
X3370Y61447D01*
X3428Y61430D01*
X3462Y61422D01*
X3478D01*
X3545Y61414D01*
X3620Y61405D01*
X3711D01*
X3820Y61397D01*
X4045Y61389D01*
X4278D01*
X4395Y61380D01*
X4503D01*
X4603D01*
X4686D01*
X4761D01*
X4811D01*
X4853D01*
X4861D01*
X5911D01*
X6094D01*
X6244Y61372D01*
X6369Y61364D01*
X6469D01*
X6544Y61356D01*
X6594Y61347D01*
X6627Y61339D01*
X6636D01*
X6752Y61305D01*
X6852Y61272D01*
X6944Y61231D01*
X7019Y61189D01*
X7077Y61147D01*
X7127Y61114D01*
X7152Y61097D01*
X7161Y61089D01*
X7236Y61014D01*
X7311Y60931D01*
X7369Y60839D01*
X7419Y60747D01*
X7461Y60664D01*
X7494Y60597D01*
X7510Y60556D01*
X7519Y60547D01*
Y60539D01*
X7569Y60389D01*
X7602Y60239D01*
X7627Y60072D01*
X7644Y59922D01*
X7652Y59789D01*
X7660Y59731D01*
Y59581D01*
X7652Y59364D01*
X7635Y59164D01*
X7610Y58981D01*
X7577Y58831D01*
X7544Y58698D01*
X7535Y58648D01*
X7519Y58606D01*
X7510Y58573D01*
X7502Y58548D01*
X7494Y58531D01*
Y58523D01*
X7427Y58365D01*
X7352Y58223D01*
X7277Y58106D01*
X7202Y58006D01*
X7127Y57931D01*
X7077Y57873D01*
X7044Y57840D01*
X7027Y57831D01*
X6911Y57748D01*
X6777Y57673D01*
X6644Y57615D01*
X6519Y57573D01*
X6411Y57531D01*
X6319Y57506D01*
X6286Y57498D01*
X6261D01*
X6244Y57490D01*
X6236D01*
X6127Y58256D01*
X6294Y58306D01*
X6444Y58373D01*
X6561Y58431D01*
X6652Y58498D01*
X6727Y58548D01*
X6777Y58598D01*
X6802Y58631D01*
X6811Y58639D01*
X6877Y58748D01*
X6927Y58881D01*
X6961Y59014D01*
X6986Y59156D01*
X7002Y59273D01*
X7011Y59373D01*
Y59464D01*
X7002Y59673D01*
X6969Y59856D01*
X6927Y60006D01*
X6877Y60139D01*
X6827Y60239D01*
X6786Y60306D01*
X6752Y60347D01*
X6744Y60364D01*
X6661Y60439D01*
X6552Y60497D01*
X6444Y60531D01*
X6327Y60564D01*
X6227Y60581D01*
X6136Y60589D01*
X6111D01*
X6086D01*
X6069D01*
X6061D01*
X6044D01*
X6011D01*
X5944D01*
X5911Y60581D01*
X5886D01*
X5869D01*
X5861D01*
X5836Y60489D01*
X5803Y60389D01*
X5753Y60172D01*
X5703Y59939D01*
X5661Y59714D01*
X5644Y59606D01*
X5628Y59506D01*
X5619Y59414D01*
X5611Y59339D01*
X5594Y59273D01*
Y59223D01*
X5586Y59189D01*
Y59181D01*
X5561Y59014D01*
X5544Y58873D01*
X5528Y58756D01*
X5503Y58656D01*
X5494Y58581D01*
X5478Y58523D01*
X5469Y58489D01*
Y58481D01*
X5436Y58365D01*
X5394Y58256D01*
X5353Y58165D01*
X5311Y58081D01*
X5269Y58015D01*
X5236Y57956D01*
X5219Y57923D01*
X5211Y57915D01*
X5144Y57823D01*
X5069Y57748D01*
X4994Y57673D01*
X4928Y57615D01*
X4861Y57573D01*
X4811Y57531D01*
X4778Y57515D01*
X4761Y57506D01*
X4653Y57456D01*
X4545Y57423D01*
X4436Y57390D01*
X4345Y57373D01*
X4261Y57365D01*
X4195Y57357D01*
X4153D01*
X4136D01*
X4028Y57365D01*
X3928Y57373D01*
X3745Y57423D01*
X3586Y57490D01*
X3445Y57565D01*
X3336Y57640D01*
X3253Y57698D01*
X3203Y57748D01*
X3195Y57756D01*
X3187Y57765D01*
X3120Y57848D01*
X3070Y57931D01*
X2978Y58123D01*
X2912Y58315D01*
X2870Y58506D01*
X2837Y58673D01*
X2828Y58748D01*
Y58814D01*
X2820Y58864D01*
Y58939D01*
X2828Y59106D01*
X2845Y59264D01*
X2870Y59414D01*
X2895Y59539D01*
X2920Y59648D01*
X2945Y59731D01*
X2953Y59756D01*
X2962Y59781D01*
X2970Y59789D01*
Y59798D01*
X3037Y59948D01*
X3120Y60106D01*
X3212Y60247D01*
X3295Y60372D01*
X3378Y60489D01*
X3445Y60572D01*
X3470Y60606D01*
X3487Y60631D01*
X3503Y60639D01*
Y60647D01*
X3378Y60664D01*
X3270Y60689D01*
X3170Y60706D01*
X3087Y60739D01*
X3012Y60756D01*
X2962Y60781D01*
X2928Y60789D01*
X2920Y60797D01*
Y61622D01*
X3020Y61572D01*
D02*
G37*
G36*
X3620Y56848D02*
X3611Y56773D01*
X3603Y56707D01*
Y56640D01*
X3595Y56590D01*
Y56498D01*
X3603Y56382D01*
X3620Y56298D01*
X3628Y56265D01*
X3636Y56240D01*
X3645Y56232D01*
Y56223D01*
X3695Y56165D01*
X3745Y56123D01*
X3778Y56098D01*
X3795Y56090D01*
X3845Y56082D01*
X3903Y56073D01*
X3978Y56065D01*
X4053D01*
X4120Y56057D01*
X4178D01*
X4220D01*
X4236D01*
X6952D01*
Y56848D01*
X7560D01*
Y56057D01*
X9177D01*
X8702Y55274D01*
X7560D01*
Y54690D01*
X6952D01*
Y55274D01*
X4278D01*
X4153D01*
X4036Y55282D01*
X3928D01*
X3836Y55290D01*
X3745Y55299D01*
X3670Y55307D01*
X3603Y55315D01*
X3545Y55324D01*
X3453Y55340D01*
X3395Y55349D01*
X3353Y55365D01*
X3345D01*
X3270Y55407D01*
X3203Y55457D01*
X3137Y55515D01*
X3087Y55574D01*
X3045Y55624D01*
X3020Y55657D01*
X3003Y55690D01*
X2995Y55699D01*
X2953Y55790D01*
X2920Y55898D01*
X2895Y56007D01*
X2878Y56115D01*
X2870Y56207D01*
X2862Y56290D01*
Y56357D01*
X2870Y56565D01*
X2887Y56665D01*
X2895Y56757D01*
X2912Y56840D01*
X2920Y56898D01*
X2928Y56940D01*
Y56957D01*
X3620Y56848D01*
D02*
G37*
G36*
X6119Y53924D02*
X6244Y53916D01*
X6352Y53907D01*
X6427Y53899D01*
X6486Y53891D01*
X6519Y53882D01*
X6527D01*
X6652Y53849D01*
X6761Y53816D01*
X6861Y53774D01*
X6944Y53741D01*
X7019Y53699D01*
X7069Y53666D01*
X7102Y53649D01*
X7111Y53641D01*
X7194Y53566D01*
X7277Y53482D01*
X7344Y53399D01*
X7394Y53316D01*
X7444Y53232D01*
X7477Y53174D01*
X7494Y53133D01*
X7502Y53116D01*
X7552Y52983D01*
X7594Y52849D01*
X7619Y52716D01*
X7644Y52599D01*
X7652Y52491D01*
X7660Y52416D01*
Y52341D01*
X7652Y52166D01*
X7627Y52000D01*
X7594Y51850D01*
X7544Y51708D01*
X7485Y51575D01*
X7419Y51458D01*
X7352Y51350D01*
X7277Y51250D01*
X7202Y51158D01*
X7136Y51083D01*
X7069Y51025D01*
X7011Y50966D01*
X6969Y50925D01*
X6927Y50900D01*
X6902Y50883D01*
X6894Y50875D01*
X7560D01*
Y50167D01*
X2920D01*
Y50950D01*
X5444D01*
X5603Y50958D01*
X5753Y50966D01*
X5886Y50983D01*
X6011Y51008D01*
X6119Y51033D01*
X6219Y51066D01*
X6302Y51100D01*
X6386Y51133D01*
X6452Y51166D01*
X6502Y51191D01*
X6552Y51225D01*
X6586Y51250D01*
X6619Y51275D01*
X6636Y51291D01*
X6652Y51308D01*
X6761Y51450D01*
X6844Y51600D01*
X6902Y51750D01*
X6936Y51883D01*
X6961Y52000D01*
X6969Y52099D01*
X6977Y52133D01*
Y52183D01*
X6969Y52291D01*
X6952Y52399D01*
X6927Y52491D01*
X6902Y52566D01*
X6877Y52633D01*
X6852Y52683D01*
X6836Y52716D01*
X6827Y52724D01*
X6769Y52808D01*
X6711Y52874D01*
X6644Y52933D01*
X6586Y52974D01*
X6527Y53008D01*
X6486Y53033D01*
X6452Y53049D01*
X6444D01*
X6344Y53083D01*
X6236Y53108D01*
X6119Y53124D01*
X6003Y53141D01*
X5903D01*
X5811Y53149D01*
X5778D01*
X5761D01*
X5744D01*
X5736D01*
X2920D01*
Y53932D01*
X5769D01*
X5961D01*
X6119Y53924D01*
D02*
G37*
G36*
X5503Y49234D02*
X5694Y49217D01*
X5869Y49184D01*
X6036Y49150D01*
X6194Y49100D01*
X6336Y49050D01*
X6461Y48992D01*
X6577Y48942D01*
X6677Y48884D01*
X6769Y48825D01*
X6852Y48775D01*
X6911Y48725D01*
X6961Y48692D01*
X7002Y48659D01*
X7019Y48642D01*
X7027Y48634D01*
X7136Y48517D01*
X7236Y48392D01*
X7319Y48267D01*
X7394Y48134D01*
X7452Y48000D01*
X7502Y47867D01*
X7552Y47742D01*
X7585Y47626D01*
X7610Y47509D01*
X7627Y47401D01*
X7644Y47309D01*
X7652Y47226D01*
X7660Y47159D01*
Y47067D01*
X7652Y46909D01*
X7635Y46759D01*
X7610Y46618D01*
X7577Y46476D01*
X7544Y46351D01*
X7494Y46226D01*
X7452Y46118D01*
X7402Y46018D01*
X7352Y45926D01*
X7311Y45843D01*
X7261Y45776D01*
X7227Y45718D01*
X7194Y45668D01*
X7169Y45634D01*
X7152Y45618D01*
X7144Y45609D01*
X7019Y45484D01*
X6886Y45376D01*
X6736Y45285D01*
X6586Y45201D01*
X6427Y45135D01*
X6269Y45076D01*
X6111Y45026D01*
X5953Y44993D01*
X5811Y44960D01*
X5678Y44943D01*
X5553Y44926D01*
X5444Y44910D01*
X5361D01*
X5294Y44901D01*
X5253D01*
X5236D01*
X5019Y44910D01*
X4820Y44926D01*
X4636Y44960D01*
X4461Y44993D01*
X4295Y45043D01*
X4153Y45093D01*
X4020Y45143D01*
X3895Y45201D01*
X3786Y45260D01*
X3695Y45310D01*
X3620Y45360D01*
X3553Y45409D01*
X3503Y45443D01*
X3470Y45476D01*
X3445Y45493D01*
X3437Y45501D01*
X3328Y45618D01*
X3237Y45743D01*
X3153Y45868D01*
X3078Y46001D01*
X3020Y46134D01*
X2970Y46259D01*
X2928Y46384D01*
X2895Y46509D01*
X2870Y46626D01*
X2853Y46734D01*
X2837Y46826D01*
X2828Y46909D01*
Y46976D01*
X2820Y47026D01*
Y47067D01*
X2828Y47292D01*
X2862Y47501D01*
X2912Y47692D01*
X2962Y47851D01*
X3012Y47992D01*
X3037Y48050D01*
X3062Y48092D01*
X3078Y48134D01*
X3095Y48159D01*
X3103Y48176D01*
Y48184D01*
X3220Y48367D01*
X3345Y48525D01*
X3478Y48659D01*
X3603Y48767D01*
X3720Y48859D01*
X3811Y48917D01*
X3845Y48942D01*
X3870Y48959D01*
X3886Y48967D01*
X3895D01*
X3995Y49017D01*
X4103Y49059D01*
X4336Y49125D01*
X4570Y49175D01*
X4794Y49209D01*
X4895Y49217D01*
X4994Y49225D01*
X5078Y49234D01*
X5153Y49242D01*
X5219D01*
X5261D01*
X5294D01*
X5303D01*
X5503Y49234D01*
D02*
G37*
G36*
X4620Y43743D02*
X4411Y43702D01*
X4236Y43643D01*
X4086Y43577D01*
X3961Y43510D01*
X3870Y43452D01*
X3795Y43393D01*
X3761Y43360D01*
X3745Y43343D01*
X3653Y43218D01*
X3586Y43094D01*
X3537Y42969D01*
X3503Y42843D01*
X3487Y42735D01*
X3478Y42652D01*
X3470Y42619D01*
Y42577D01*
X3478Y42469D01*
X3487Y42369D01*
X3537Y42185D01*
X3603Y42027D01*
X3678Y41894D01*
X3753Y41785D01*
X3820Y41711D01*
X3870Y41660D01*
X3878Y41652D01*
X3886Y41644D01*
X3970Y41585D01*
X4070Y41527D01*
X4278Y41444D01*
X4503Y41377D01*
X4728Y41336D01*
X4828Y41327D01*
X4928Y41311D01*
X5011Y41302D01*
X5094D01*
X5153Y41294D01*
X5203D01*
X5236D01*
X5244D01*
X5411Y41302D01*
X5569Y41311D01*
X5711Y41327D01*
X5844Y41352D01*
X5961Y41377D01*
X6069Y41411D01*
X6169Y41444D01*
X6261Y41477D01*
X6336Y41511D01*
X6402Y41544D01*
X6461Y41577D01*
X6502Y41602D01*
X6544Y41627D01*
X6569Y41644D01*
X6577Y41660D01*
X6586D01*
X6661Y41736D01*
X6727Y41810D01*
X6786Y41885D01*
X6836Y41969D01*
X6911Y42127D01*
X6961Y42277D01*
X6986Y42410D01*
X6994Y42469D01*
X7002Y42519D01*
X7011Y42560D01*
Y42619D01*
X7002Y42760D01*
X6977Y42885D01*
X6936Y43002D01*
X6894Y43102D01*
X6844Y43177D01*
X6811Y43235D01*
X6777Y43277D01*
X6769Y43285D01*
X6669Y43385D01*
X6561Y43460D01*
X6444Y43527D01*
X6336Y43585D01*
X6236Y43627D01*
X6152Y43652D01*
X6119Y43668D01*
X6094D01*
X6086Y43677D01*
X6077D01*
X6194Y44443D01*
X6444Y44377D01*
X6661Y44285D01*
X6844Y44185D01*
X7002Y44076D01*
X7061Y44027D01*
X7119Y43977D01*
X7169Y43935D01*
X7211Y43893D01*
X7236Y43860D01*
X7261Y43843D01*
X7269Y43827D01*
X7277Y43818D01*
X7344Y43727D01*
X7402Y43627D01*
X7502Y43427D01*
X7569Y43218D01*
X7610Y43027D01*
X7627Y42935D01*
X7644Y42860D01*
X7652Y42785D01*
Y42719D01*
X7660Y42669D01*
Y42594D01*
X7652Y42377D01*
X7619Y42169D01*
X7569Y41977D01*
X7519Y41819D01*
X7469Y41677D01*
X7444Y41619D01*
X7419Y41577D01*
X7402Y41536D01*
X7386Y41511D01*
X7377Y41494D01*
Y41486D01*
X7261Y41311D01*
X7127Y41152D01*
X6986Y41019D01*
X6844Y40919D01*
X6719Y40836D01*
X6619Y40777D01*
X6586Y40752D01*
X6552Y40736D01*
X6536Y40727D01*
X6527D01*
X6311Y40644D01*
X6086Y40586D01*
X5869Y40544D01*
X5661Y40519D01*
X5569Y40503D01*
X5486D01*
X5411Y40494D01*
X5344Y40486D01*
X5294D01*
X5253D01*
X5228D01*
X5219D01*
X5011Y40494D01*
X4811Y40511D01*
X4628Y40536D01*
X4453Y40577D01*
X4295Y40619D01*
X4145Y40669D01*
X4011Y40719D01*
X3895Y40777D01*
X3786Y40827D01*
X3695Y40877D01*
X3620Y40927D01*
X3553Y40969D01*
X3503Y41011D01*
X3470Y41036D01*
X3445Y41052D01*
X3437Y41061D01*
X3328Y41169D01*
X3237Y41294D01*
X3153Y41419D01*
X3078Y41544D01*
X3020Y41669D01*
X2970Y41794D01*
X2928Y41919D01*
X2895Y42035D01*
X2870Y42152D01*
X2853Y42252D01*
X2837Y42344D01*
X2828Y42427D01*
Y42494D01*
X2820Y42544D01*
Y42585D01*
X2828Y42727D01*
X2837Y42860D01*
X2887Y43102D01*
X2962Y43318D01*
X3003Y43418D01*
X3045Y43510D01*
X3078Y43585D01*
X3120Y43660D01*
X3162Y43718D01*
X3195Y43768D01*
X3220Y43810D01*
X3245Y43835D01*
X3253Y43852D01*
X3262Y43860D01*
X3353Y43952D01*
X3445Y44043D01*
X3545Y44118D01*
X3645Y44185D01*
X3853Y44302D01*
X4053Y44385D01*
X4145Y44418D01*
X4236Y44451D01*
X4311Y44468D01*
X4378Y44493D01*
X4436Y44501D01*
X4478Y44510D01*
X4503Y44518D01*
X4511D01*
X4620Y43743D01*
D02*
G37*
G36*
X5511Y37287D02*
X5744Y37262D01*
X5944Y37220D01*
X6127Y37178D01*
X6202Y37153D01*
X6277Y37137D01*
X6336Y37120D01*
X6386Y37095D01*
X6427Y37087D01*
X6461Y37070D01*
X6477Y37062D01*
X6486D01*
X6686Y36962D01*
X6861Y36853D01*
X7002Y36737D01*
X7127Y36628D01*
X7227Y36528D01*
X7294Y36445D01*
X7319Y36412D01*
X7336Y36387D01*
X7352Y36379D01*
Y36370D01*
X7452Y36195D01*
X7527Y36020D01*
X7585Y35837D01*
X7619Y35679D01*
X7644Y35537D01*
X7652Y35470D01*
Y35420D01*
X7660Y35379D01*
Y35320D01*
X7652Y35162D01*
X7635Y35012D01*
X7602Y34879D01*
X7569Y34762D01*
X7535Y34671D01*
X7502Y34604D01*
X7485Y34562D01*
X7477Y34546D01*
X7402Y34429D01*
X7319Y34321D01*
X7236Y34229D01*
X7152Y34146D01*
X7069Y34079D01*
X7011Y34021D01*
X6969Y33988D01*
X6952Y33979D01*
X7560D01*
Y33263D01*
X1145D01*
Y34046D01*
X3403D01*
X3312Y34129D01*
X3237Y34212D01*
X3162Y34296D01*
X3103Y34379D01*
X3053Y34446D01*
X3020Y34504D01*
X2995Y34537D01*
X2987Y34554D01*
X2928Y34679D01*
X2887Y34796D01*
X2862Y34921D01*
X2845Y35029D01*
X2828Y35120D01*
X2820Y35196D01*
Y35262D01*
X2837Y35462D01*
X2870Y35654D01*
X2912Y35829D01*
X2970Y35979D01*
X3028Y36104D01*
X3053Y36162D01*
X3070Y36204D01*
X3095Y36237D01*
X3103Y36262D01*
X3120Y36279D01*
Y36287D01*
X3245Y36462D01*
X3378Y36612D01*
X3528Y36737D01*
X3670Y36845D01*
X3795Y36928D01*
X3845Y36962D01*
X3895Y36987D01*
X3936Y37012D01*
X3961Y37028D01*
X3978Y37037D01*
X3986D01*
X4203Y37120D01*
X4428Y37187D01*
X4645Y37228D01*
X4845Y37262D01*
X4936Y37270D01*
X5011Y37278D01*
X5086Y37287D01*
X5153Y37295D01*
X5203D01*
X5236D01*
X5261D01*
X5269D01*
X5511Y37287D01*
D02*
G37*
G36*
X5503Y32330D02*
X5694Y32313D01*
X5869Y32280D01*
X6036Y32246D01*
X6194Y32196D01*
X6336Y32146D01*
X6461Y32088D01*
X6577Y32038D01*
X6677Y31980D01*
X6769Y31921D01*
X6852Y31871D01*
X6911Y31821D01*
X6961Y31788D01*
X7002Y31755D01*
X7019Y31738D01*
X7027Y31730D01*
X7136Y31613D01*
X7236Y31488D01*
X7319Y31363D01*
X7394Y31230D01*
X7452Y31096D01*
X7502Y30963D01*
X7552Y30838D01*
X7585Y30722D01*
X7610Y30605D01*
X7627Y30497D01*
X7644Y30405D01*
X7652Y30322D01*
X7660Y30255D01*
Y30163D01*
X7652Y30005D01*
X7635Y29855D01*
X7610Y29714D01*
X7577Y29572D01*
X7544Y29447D01*
X7494Y29322D01*
X7452Y29214D01*
X7402Y29114D01*
X7352Y29022D01*
X7311Y28939D01*
X7261Y28872D01*
X7227Y28814D01*
X7194Y28764D01*
X7169Y28730D01*
X7152Y28714D01*
X7144Y28705D01*
X7019Y28581D01*
X6886Y28472D01*
X6736Y28381D01*
X6586Y28297D01*
X6427Y28231D01*
X6269Y28172D01*
X6111Y28122D01*
X5953Y28089D01*
X5811Y28056D01*
X5678Y28039D01*
X5553Y28022D01*
X5444Y28006D01*
X5361D01*
X5294Y27997D01*
X5253D01*
X5236D01*
X5019Y28006D01*
X4820Y28022D01*
X4636Y28056D01*
X4461Y28089D01*
X4295Y28139D01*
X4153Y28189D01*
X4020Y28239D01*
X3895Y28297D01*
X3786Y28356D01*
X3695Y28406D01*
X3620Y28456D01*
X3553Y28505D01*
X3503Y28539D01*
X3470Y28572D01*
X3445Y28589D01*
X3437Y28597D01*
X3328Y28714D01*
X3237Y28839D01*
X3153Y28964D01*
X3078Y29097D01*
X3020Y29230D01*
X2970Y29355D01*
X2928Y29480D01*
X2895Y29605D01*
X2870Y29722D01*
X2853Y29830D01*
X2837Y29922D01*
X2828Y30005D01*
Y30072D01*
X2820Y30122D01*
Y30163D01*
X2828Y30388D01*
X2862Y30597D01*
X2912Y30788D01*
X2962Y30947D01*
X3012Y31088D01*
X3037Y31147D01*
X3062Y31188D01*
X3078Y31230D01*
X3095Y31255D01*
X3103Y31272D01*
Y31280D01*
X3220Y31463D01*
X3345Y31621D01*
X3478Y31755D01*
X3603Y31863D01*
X3720Y31955D01*
X3811Y32013D01*
X3845Y32038D01*
X3870Y32055D01*
X3886Y32063D01*
X3895D01*
X3995Y32113D01*
X4103Y32155D01*
X4336Y32221D01*
X4570Y32271D01*
X4794Y32305D01*
X4895Y32313D01*
X4994Y32321D01*
X5078Y32330D01*
X5153Y32338D01*
X5219D01*
X5261D01*
X5294D01*
X5303D01*
X5503Y32330D01*
D02*
G37*
G36*
X9327Y22440D02*
X8569D01*
Y24548D01*
X2920D01*
Y25398D01*
X8569D01*
Y27506D01*
X9327D01*
Y22440D01*
D02*
G37*
%LPC*%
G36*
X5244Y60581D02*
X4953D01*
X4769Y60572D01*
X4611Y60564D01*
X4478Y60539D01*
X4370Y60522D01*
X4278Y60497D01*
X4220Y60472D01*
X4186Y60464D01*
X4170Y60456D01*
X4045Y60389D01*
X3945Y60306D01*
X3845Y60214D01*
X3770Y60131D01*
X3711Y60056D01*
X3661Y59989D01*
X3636Y59948D01*
X3628Y59939D01*
Y59931D01*
X3562Y59798D01*
X3520Y59656D01*
X3487Y59523D01*
X3462Y59398D01*
X3445Y59289D01*
X3437Y59206D01*
Y59131D01*
X3445Y58973D01*
X3470Y58831D01*
X3503Y58706D01*
X3545Y58606D01*
X3578Y58531D01*
X3611Y58473D01*
X3636Y58439D01*
X3645Y58431D01*
X3728Y58356D01*
X3811Y58298D01*
X3903Y58256D01*
X3978Y58231D01*
X4053Y58215D01*
X4111Y58198D01*
X4145D01*
X4161D01*
X4236Y58206D01*
X4311Y58215D01*
X4370Y58231D01*
X4428Y58256D01*
X4470Y58273D01*
X4511Y58290D01*
X4528Y58298D01*
X4536Y58306D01*
X4595Y58348D01*
X4645Y58398D01*
X4728Y58498D01*
X4753Y58548D01*
X4769Y58581D01*
X4786Y58606D01*
Y58615D01*
X4820Y58698D01*
X4853Y58806D01*
X4878Y58923D01*
X4903Y59031D01*
X4920Y59131D01*
X4936Y59223D01*
Y59256D01*
X4945Y59273D01*
Y59298D01*
X4970Y59456D01*
X4994Y59598D01*
X5019Y59731D01*
X5044Y59856D01*
X5069Y59973D01*
X5094Y60081D01*
X5119Y60172D01*
X5144Y60256D01*
X5161Y60331D01*
X5186Y60397D01*
X5203Y60456D01*
X5219Y60497D01*
X5228Y60539D01*
X5236Y60564D01*
X5244Y60572D01*
Y60581D01*
D02*
G37*
G36*
X5344Y48434D02*
X5303D01*
X5269D01*
X5261D01*
X5094D01*
X4945Y48417D01*
X4803Y48400D01*
X4669Y48375D01*
X4545Y48342D01*
X4436Y48309D01*
X4336Y48275D01*
X4245Y48242D01*
X4170Y48200D01*
X4103Y48167D01*
X4045Y48134D01*
X3995Y48101D01*
X3961Y48075D01*
X3936Y48059D01*
X3920Y48050D01*
X3911Y48042D01*
X3836Y47967D01*
X3770Y47892D01*
X3703Y47809D01*
X3653Y47726D01*
X3578Y47559D01*
X3528Y47409D01*
X3495Y47276D01*
X3487Y47217D01*
X3478Y47167D01*
X3470Y47126D01*
Y47067D01*
X3478Y46959D01*
X3487Y46859D01*
X3537Y46667D01*
X3611Y46501D01*
X3695Y46359D01*
X3770Y46251D01*
X3845Y46159D01*
X3870Y46134D01*
X3895Y46109D01*
X3903Y46101D01*
X3911Y46093D01*
X4003Y46026D01*
X4095Y45968D01*
X4303Y45868D01*
X4528Y45801D01*
X4736Y45759D01*
X4836Y45743D01*
X4936Y45726D01*
X5019Y45718D01*
X5094D01*
X5153Y45710D01*
X5194D01*
X5228D01*
X5236D01*
X5394Y45718D01*
X5553Y45726D01*
X5694Y45743D01*
X5819Y45768D01*
X5944Y45801D01*
X6053Y45834D01*
X6152Y45868D01*
X6236Y45901D01*
X6319Y45934D01*
X6386Y45968D01*
X6436Y46001D01*
X6486Y46034D01*
X6519Y46059D01*
X6552Y46076D01*
X6561Y46093D01*
X6569D01*
X6644Y46168D01*
X6719Y46251D01*
X6777Y46326D01*
X6827Y46409D01*
X6902Y46576D01*
X6952Y46726D01*
X6986Y46859D01*
X6994Y46918D01*
X7002Y46968D01*
X7011Y47009D01*
Y47067D01*
X7002Y47176D01*
X6994Y47276D01*
X6944Y47467D01*
X6869Y47634D01*
X6786Y47776D01*
X6702Y47884D01*
X6627Y47976D01*
X6602Y48000D01*
X6577Y48025D01*
X6569Y48034D01*
X6561Y48042D01*
X6477Y48109D01*
X6377Y48176D01*
X6169Y48267D01*
X5953Y48342D01*
X5744Y48384D01*
X5644Y48400D01*
X5553Y48417D01*
X5478Y48425D01*
X5403D01*
X5344Y48434D01*
D02*
G37*
G36*
X5361Y36487D02*
X5319D01*
X5286D01*
X5278D01*
X5111D01*
X4953Y36470D01*
X4811Y36453D01*
X4678Y36428D01*
X4553Y36404D01*
X4436Y36370D01*
X4336Y36337D01*
X4245Y36304D01*
X4170Y36262D01*
X4103Y36229D01*
X4045Y36195D01*
X3995Y36170D01*
X3961Y36145D01*
X3936Y36129D01*
X3920Y36120D01*
X3911Y36112D01*
X3836Y36037D01*
X3770Y35962D01*
X3703Y35887D01*
X3653Y35812D01*
X3578Y35662D01*
X3528Y35520D01*
X3495Y35395D01*
X3487Y35345D01*
X3478Y35304D01*
X3470Y35262D01*
Y35212D01*
X3478Y35120D01*
X3487Y35029D01*
X3537Y34854D01*
X3603Y34704D01*
X3686Y34579D01*
X3761Y34471D01*
X3828Y34396D01*
X3878Y34346D01*
X3886Y34337D01*
X3895Y34329D01*
X3978Y34262D01*
X4070Y34212D01*
X4278Y34121D01*
X4495Y34062D01*
X4711Y34012D01*
X4811Y34004D01*
X4903Y33988D01*
X4994Y33979D01*
X5069D01*
X5128Y33971D01*
X5169D01*
X5203D01*
X5211D01*
X5369Y33979D01*
X5528Y33988D01*
X5669Y34004D01*
X5803Y34029D01*
X5919Y34062D01*
X6036Y34096D01*
X6136Y34129D01*
X6227Y34162D01*
X6302Y34196D01*
X6377Y34229D01*
X6436Y34262D01*
X6486Y34296D01*
X6519Y34321D01*
X6544Y34337D01*
X6561Y34354D01*
X6569D01*
X6652Y34429D01*
X6727Y34504D01*
X6786Y34579D01*
X6844Y34654D01*
X6894Y34729D01*
X6927Y34804D01*
X6986Y34945D01*
X7019Y35062D01*
X7036Y35162D01*
X7044Y35196D01*
Y35245D01*
X7036Y35337D01*
X7027Y35429D01*
X6977Y35595D01*
X6902Y35745D01*
X6827Y35870D01*
X6744Y35979D01*
X6669Y36054D01*
X6619Y36104D01*
X6611Y36120D01*
X6602D01*
X6519Y36187D01*
X6419Y36245D01*
X6211Y36328D01*
X5986Y36395D01*
X5778Y36445D01*
X5678Y36453D01*
X5578Y36470D01*
X5494Y36479D01*
X5419D01*
X5361Y36487D01*
D02*
G37*
G36*
X5344Y31530D02*
X5303D01*
X5269D01*
X5261D01*
X5094D01*
X4945Y31513D01*
X4803Y31496D01*
X4669Y31471D01*
X4545Y31438D01*
X4436Y31405D01*
X4336Y31372D01*
X4245Y31338D01*
X4170Y31297D01*
X4103Y31263D01*
X4045Y31230D01*
X3995Y31196D01*
X3961Y31172D01*
X3936Y31155D01*
X3920Y31147D01*
X3911Y31138D01*
X3836Y31063D01*
X3770Y30988D01*
X3703Y30905D01*
X3653Y30822D01*
X3578Y30655D01*
X3528Y30505D01*
X3495Y30372D01*
X3487Y30313D01*
X3478Y30263D01*
X3470Y30222D01*
Y30163D01*
X3478Y30055D01*
X3487Y29955D01*
X3537Y29764D01*
X3611Y29597D01*
X3695Y29455D01*
X3770Y29347D01*
X3845Y29255D01*
X3870Y29230D01*
X3895Y29205D01*
X3903Y29197D01*
X3911Y29189D01*
X4003Y29122D01*
X4095Y29064D01*
X4303Y28964D01*
X4528Y28897D01*
X4736Y28855D01*
X4836Y28839D01*
X4936Y28822D01*
X5019Y28814D01*
X5094D01*
X5153Y28805D01*
X5194D01*
X5228D01*
X5236D01*
X5394Y28814D01*
X5553Y28822D01*
X5694Y28839D01*
X5819Y28864D01*
X5944Y28897D01*
X6053Y28930D01*
X6152Y28964D01*
X6236Y28997D01*
X6319Y29030D01*
X6386Y29064D01*
X6436Y29097D01*
X6486Y29130D01*
X6519Y29155D01*
X6552Y29172D01*
X6561Y29189D01*
X6569D01*
X6644Y29264D01*
X6719Y29347D01*
X6777Y29422D01*
X6827Y29505D01*
X6902Y29672D01*
X6952Y29822D01*
X6986Y29955D01*
X6994Y30013D01*
X7002Y30064D01*
X7011Y30105D01*
Y30163D01*
X7002Y30272D01*
X6994Y30372D01*
X6944Y30563D01*
X6869Y30730D01*
X6786Y30872D01*
X6702Y30980D01*
X6627Y31072D01*
X6602Y31096D01*
X6577Y31121D01*
X6569Y31130D01*
X6561Y31138D01*
X6477Y31205D01*
X6377Y31272D01*
X6169Y31363D01*
X5953Y31438D01*
X5744Y31480D01*
X5644Y31496D01*
X5553Y31513D01*
X5478Y31521D01*
X5403D01*
X5344Y31530D01*
D02*
G37*
%LPD*%
M02*
