G04*
G04 #@! TF.GenerationSoftware,Altium Limited,Altium Designer,21.6.4 (81)*
G04*
G04 Layer_Physical_Order=2*
G04 Layer_Color=36540*
%FSLAX44Y44*%
%MOMM*%
G71*
G04*
G04 #@! TF.SameCoordinates,4107C3E3-393E-48B2-8F04-51D99C162D70*
G04*
G04*
G04 #@! TF.FilePolarity,Positive*
G04*
G01*
G75*
%ADD52C,0.4060*%
G36*
X250531Y105451D02*
X252547Y104616D01*
X254361Y103404D01*
X255904Y101861D01*
X257116Y100047D01*
X257951Y98031D01*
X258377Y95891D01*
Y60791D01*
X256376Y60298D01*
X256235Y60567D01*
X255563Y61679D01*
X254825Y62748D01*
X254024Y63771D01*
X253162Y64743D01*
X252243Y65662D01*
X251271Y66524D01*
X250248Y67325D01*
X249179Y68063D01*
X248067Y68735D01*
X246916Y69339D01*
X245731Y69872D01*
X244517Y70333D01*
X243276Y70720D01*
X242015Y71031D01*
X240737Y71265D01*
X239447Y71421D01*
X238150Y71500D01*
X236850D01*
X235553Y71421D01*
X234263Y71265D01*
X232985Y71031D01*
X231724Y70720D01*
X230483Y70333D01*
X229269Y69872D01*
X228084Y69339D01*
X226933Y68735D01*
X225821Y68063D01*
X224752Y67325D01*
X223729Y66524D01*
X222757Y65662D01*
X221838Y64743D01*
X220976Y63771D01*
X220175Y62748D01*
X219437Y61679D01*
X218765Y60567D01*
X218161Y59416D01*
X217628Y58231D01*
X217167Y57017D01*
X216780Y55776D01*
X216469Y54514D01*
X216235Y53236D01*
X216078Y51947D01*
X216000Y50650D01*
Y49350D01*
X216078Y48053D01*
X216235Y46764D01*
X216469Y45486D01*
X216780Y44224D01*
X217167Y42983D01*
X217628Y41769D01*
X218161Y40584D01*
X218765Y39433D01*
X219437Y38321D01*
X220175Y37252D01*
X220976Y36229D01*
X221838Y35257D01*
X222757Y34338D01*
X223729Y33476D01*
X224752Y32675D01*
X225821Y31937D01*
X226933Y31265D01*
X228084Y30661D01*
X229269Y30127D01*
X230483Y29667D01*
X231724Y29280D01*
X232985Y28969D01*
X234263Y28735D01*
X235553Y28579D01*
X236850Y28500D01*
X238150D01*
X239447Y28579D01*
X240737Y28735D01*
X242015Y28969D01*
X243276Y29280D01*
X244517Y29667D01*
X245731Y30127D01*
X246916Y30661D01*
X248067Y31265D01*
X249179Y31937D01*
X250248Y32675D01*
X251271Y33476D01*
X252243Y34338D01*
X253162Y35257D01*
X254024Y36229D01*
X254825Y37252D01*
X255563Y38321D01*
X256235Y39433D01*
X256376Y39702D01*
X258377Y39209D01*
Y4109D01*
X257951Y1969D01*
X257116Y-47D01*
X255904Y-1861D01*
X254361Y-3404D01*
X252547Y-4616D01*
X250531Y-5451D01*
X248391Y-5877D01*
X247300D01*
X12700Y-5877D01*
X11609D01*
X9469Y-5451D01*
X7453Y-4616D01*
X5639Y-3404D01*
X4096Y-1861D01*
X2884Y-47D01*
X2049Y1969D01*
X1623Y4109D01*
Y5200D01*
Y94800D01*
Y95891D01*
X2049Y98031D01*
X2884Y100047D01*
X4096Y101861D01*
X5639Y103404D01*
X7453Y104616D01*
X9469Y105451D01*
X11609Y105877D01*
X12700D01*
X247300Y105877D01*
X248391D01*
X250531Y105451D01*
D02*
G37*
%LPC*%
G36*
X34981Y71030D02*
X34519D01*
X34060Y70970D01*
X33613Y70850D01*
X33185Y70673D01*
X32785Y70441D01*
X32418Y70160D01*
X32090Y69833D01*
X31809Y69465D01*
X31577Y69065D01*
X31400Y68637D01*
X31280Y68190D01*
X31220Y67731D01*
Y67269D01*
X31280Y66810D01*
X31400Y66363D01*
X31577Y65935D01*
X31809Y65535D01*
X32090Y65167D01*
X32418Y64840D01*
X32785Y64559D01*
X33185Y64327D01*
X33613Y64150D01*
X34060Y64030D01*
X34519Y63970D01*
X34981D01*
X35440Y64030D01*
X35887Y64150D01*
X36315Y64327D01*
X36715Y64559D01*
X37083Y64840D01*
X37410Y65167D01*
X37691Y65535D01*
X37923Y65935D01*
X38100Y66363D01*
X38220Y66810D01*
X38280Y67269D01*
Y67731D01*
X38220Y68190D01*
X38100Y68637D01*
X37923Y69065D01*
X37691Y69465D01*
X37410Y69833D01*
X37083Y70160D01*
X36715Y70441D01*
X36315Y70673D01*
X35887Y70850D01*
X35440Y70970D01*
X34981Y71030D01*
D02*
G37*
G36*
X171481Y68780D02*
X171019D01*
X170560Y68720D01*
X170113Y68600D01*
X169685Y68423D01*
X169285Y68191D01*
X168918Y67910D01*
X168590Y67583D01*
X168309Y67215D01*
X168077Y66815D01*
X167900Y66387D01*
X167780Y65940D01*
X167720Y65481D01*
Y65019D01*
X167780Y64560D01*
X167900Y64113D01*
X168077Y63685D01*
X168309Y63285D01*
X168590Y62917D01*
X168918Y62590D01*
X169285Y62309D01*
X169685Y62077D01*
X170113Y61900D01*
X170560Y61780D01*
X171019Y61720D01*
X171481D01*
X171940Y61780D01*
X172387Y61900D01*
X172815Y62077D01*
X173215Y62309D01*
X173582Y62590D01*
X173910Y62917D01*
X174191Y63285D01*
X174423Y63685D01*
X174600Y64113D01*
X174720Y64560D01*
X174780Y65019D01*
Y65481D01*
X174720Y65940D01*
X174600Y66387D01*
X174423Y66815D01*
X174191Y67215D01*
X173910Y67583D01*
X173582Y67910D01*
X173215Y68191D01*
X172815Y68423D01*
X172387Y68600D01*
X171940Y68720D01*
X171481Y68780D01*
D02*
G37*
G36*
X142106Y59155D02*
X141644D01*
X141185Y59095D01*
X140738Y58975D01*
X140310Y58798D01*
X139910Y58566D01*
X139543Y58285D01*
X139215Y57958D01*
X138934Y57590D01*
X138702Y57190D01*
X138525Y56762D01*
X138405Y56315D01*
Y56315D01*
X138345Y55856D01*
X138136Y55239D01*
X137541Y54797D01*
X137060Y54720D01*
X136613Y54600D01*
X136185Y54423D01*
X135785Y54191D01*
X135417Y53910D01*
X135090Y53583D01*
X134809Y53215D01*
X134082Y52634D01*
X133350Y52368D01*
X132388Y52350D01*
X132384Y52351D01*
X131940Y52470D01*
X131481Y52530D01*
X131019D01*
X130560Y52470D01*
X130113Y52350D01*
X129685Y52173D01*
X129285Y51941D01*
X128918Y51660D01*
X128590Y51333D01*
X128309Y50965D01*
X128077Y50565D01*
X127900Y50137D01*
X127780Y49690D01*
X127720Y49231D01*
Y48769D01*
X127780Y48310D01*
X127900Y47863D01*
X128077Y47435D01*
X128309Y47035D01*
X128590Y46667D01*
X128918Y46340D01*
X129285Y46059D01*
X129685Y45827D01*
X130113Y45650D01*
X130560Y45530D01*
X131019Y45470D01*
X131481D01*
X131940Y45530D01*
X132387Y45650D01*
X132815Y45827D01*
X133215Y46059D01*
X133582Y46340D01*
X133910Y46667D01*
X134191Y47035D01*
X134918Y47616D01*
X135650Y47882D01*
X136612Y47900D01*
X136616Y47899D01*
X137060Y47780D01*
X137519Y47720D01*
X137981D01*
X138440Y47780D01*
X138887Y47900D01*
X139315Y48077D01*
X139715Y48309D01*
X140083Y48590D01*
X140410Y48917D01*
X140691Y49285D01*
X140923Y49685D01*
X141100Y50113D01*
X141220Y50560D01*
X141280Y51019D01*
X141489Y51636D01*
X142084Y52078D01*
X142565Y52155D01*
X143012Y52275D01*
X143440Y52452D01*
X143840Y52684D01*
X144207Y52965D01*
X144535Y53292D01*
X144816Y53660D01*
X145048Y54060D01*
X145225Y54488D01*
X145345Y54935D01*
X145405Y55394D01*
Y55856D01*
X145345Y56315D01*
X145225Y56762D01*
X145048Y57190D01*
X144816Y57590D01*
X144535Y57958D01*
X144207Y58285D01*
X143840Y58566D01*
X143440Y58798D01*
X143012Y58975D01*
X142565Y59095D01*
X142106Y59155D01*
D02*
G37*
G36*
X30731Y60530D02*
X30269D01*
X29810Y60470D01*
X29363Y60350D01*
X28935Y60173D01*
X28535Y59941D01*
X28168Y59660D01*
X27840Y59332D01*
X27559Y58965D01*
X27327Y58565D01*
X27150Y58137D01*
X27030Y57690D01*
X26970Y57231D01*
Y56769D01*
X27030Y56310D01*
X27150Y55863D01*
X27327Y55435D01*
X27559Y55035D01*
X27840Y54668D01*
X28168Y54340D01*
X28535Y54059D01*
X28935Y53827D01*
X29363Y53650D01*
X30323Y53272D01*
X30470Y52731D01*
Y52269D01*
X30530Y51810D01*
X30650Y51363D01*
X30827Y50935D01*
X31059Y50535D01*
X31340Y50167D01*
X31667Y49840D01*
X32035Y49559D01*
X32435Y49327D01*
X32863Y49150D01*
X33310Y49030D01*
X33769Y48970D01*
X34231D01*
X34690Y49030D01*
X35137Y49150D01*
X35565Y49327D01*
X35965Y49559D01*
X36332Y49840D01*
X36660Y50167D01*
X36941Y50535D01*
X37173Y50935D01*
X37350Y51363D01*
X37470Y51810D01*
X37530Y52269D01*
Y52731D01*
X37470Y53190D01*
X37350Y53637D01*
X37173Y54065D01*
X36941Y54465D01*
X36660Y54833D01*
X36332Y55160D01*
X35965Y55441D01*
X35565Y55673D01*
X35137Y55850D01*
X34177Y56228D01*
X34030Y56769D01*
Y57231D01*
X33970Y57690D01*
X33850Y58137D01*
X33673Y58565D01*
X33441Y58965D01*
X33160Y59332D01*
X32833Y59660D01*
X32465Y59941D01*
X32065Y60173D01*
X31637Y60350D01*
X31190Y60470D01*
X30731Y60530D01*
D02*
G37*
G36*
X155481Y41030D02*
X155019D01*
X154560Y40970D01*
X154113Y40850D01*
X153685Y40673D01*
X153285Y40441D01*
X152917Y40160D01*
X152590Y39832D01*
X152309Y39465D01*
X152077Y39065D01*
X151900Y38637D01*
X151780Y38190D01*
X151720Y37731D01*
Y37269D01*
X151780Y36810D01*
X151900Y36363D01*
X152077Y35935D01*
X152309Y35535D01*
X152590Y35168D01*
X152917Y34840D01*
X153285Y34559D01*
X153685Y34327D01*
X154113Y34150D01*
X154560Y34030D01*
X155019Y33970D01*
X155481D01*
X155940Y34030D01*
X156387Y34150D01*
X156815Y34327D01*
X157215Y34559D01*
X157583Y34840D01*
X157910Y35168D01*
X158191Y35535D01*
X158423Y35935D01*
X158600Y36363D01*
X158720Y36810D01*
X158780Y37269D01*
Y37731D01*
X158720Y38190D01*
X158600Y38637D01*
X158423Y39065D01*
X158191Y39465D01*
X157910Y39832D01*
X157583Y40160D01*
X157215Y40441D01*
X156815Y40673D01*
X156387Y40850D01*
X155940Y40970D01*
X155481Y41030D01*
D02*
G37*
G36*
X83150Y71500D02*
X81850D01*
X80553Y71421D01*
X79264Y71265D01*
X77986Y71031D01*
X76724Y70720D01*
X75483Y70333D01*
X74269Y69872D01*
X73084Y69339D01*
X71933Y68735D01*
X70821Y68063D01*
X69752Y67325D01*
X68729Y66524D01*
X67757Y65662D01*
X66838Y64743D01*
X65976Y63771D01*
X65175Y62748D01*
X64437Y61679D01*
X63765Y60567D01*
X63161Y59416D01*
X62628Y58231D01*
X62167Y57017D01*
X61780Y55776D01*
X61469Y54514D01*
X61235Y53236D01*
X61079Y51947D01*
X61000Y50650D01*
Y49350D01*
X61079Y48053D01*
X61235Y46764D01*
X61469Y45486D01*
X61780Y44224D01*
X62167Y42983D01*
X62628Y41769D01*
X63161Y40584D01*
X63765Y39433D01*
X64437Y38321D01*
X65175Y37252D01*
X65976Y36229D01*
X66838Y35257D01*
X67757Y34338D01*
X68729Y33476D01*
X69752Y32675D01*
X70821Y31937D01*
X71933Y31265D01*
X73084Y30661D01*
X74269Y30127D01*
X75483Y29667D01*
X76724Y29280D01*
X77986Y28969D01*
X79264Y28735D01*
X80553Y28579D01*
X81850Y28500D01*
X83150D01*
X84447Y28579D01*
X85737Y28735D01*
X87015Y28969D01*
X88276Y29280D01*
X89516Y29667D01*
X90731Y30127D01*
X91916Y30661D01*
X93067Y31265D01*
X94179Y31937D01*
X95248Y32675D01*
X96271Y33476D01*
X97243Y34338D01*
X98162Y35257D01*
X99024Y36229D01*
X99825Y37252D01*
X100563Y38321D01*
X101235Y39433D01*
X101839Y40584D01*
X102372Y41769D01*
X102833Y42983D01*
X103220Y44224D01*
X103531Y45486D01*
X103765Y46764D01*
X103921Y48053D01*
X104000Y49350D01*
Y50650D01*
X103921Y51947D01*
X103765Y53236D01*
X103531Y54514D01*
X103220Y55776D01*
X102833Y57017D01*
X102372Y58231D01*
X101839Y59416D01*
X101235Y60567D01*
X100563Y61679D01*
X99825Y62748D01*
X99024Y63771D01*
X98162Y64743D01*
X97243Y65662D01*
X96271Y66524D01*
X95248Y67325D01*
X94179Y68063D01*
X93067Y68735D01*
X91916Y69339D01*
X90731Y69872D01*
X89516Y70333D01*
X88276Y70720D01*
X87015Y71031D01*
X85737Y71265D01*
X84447Y71421D01*
X83150Y71500D01*
D02*
G37*
G36*
X187731Y19530D02*
X187269D01*
X186810Y19470D01*
X186363Y19350D01*
X185935Y19173D01*
X185535Y18941D01*
X185168Y18660D01*
X184840Y18333D01*
X184559Y17965D01*
X184327Y17565D01*
X184150Y17137D01*
X184030Y16690D01*
X183970Y16231D01*
Y15769D01*
X184030Y15310D01*
X184150Y14863D01*
X184327Y14435D01*
X184559Y14035D01*
X184840Y13668D01*
X185168Y13340D01*
X185535Y13059D01*
X185935Y12827D01*
X186363Y12650D01*
X186810Y12530D01*
X187269Y12470D01*
X187731D01*
X188190Y12530D01*
X188637Y12650D01*
X189065Y12827D01*
X189465Y13059D01*
X189832Y13340D01*
X190160Y13668D01*
X190441Y14035D01*
X190673Y14435D01*
X190850Y14863D01*
X190970Y15310D01*
X191030Y15769D01*
Y16231D01*
X190970Y16690D01*
X190850Y17137D01*
X190673Y17565D01*
X190441Y17965D01*
X190160Y18333D01*
X189832Y18660D01*
X189465Y18941D01*
X189065Y19173D01*
X188637Y19350D01*
X188190Y19470D01*
X187731Y19530D01*
D02*
G37*
G36*
X52981Y13030D02*
X52519D01*
X52060Y12970D01*
X51613Y12850D01*
X51185Y12673D01*
X50785Y12441D01*
X50417Y12160D01*
X50090Y11832D01*
X49809Y11465D01*
X49577Y11065D01*
X49400Y10637D01*
X49280Y10190D01*
X49220Y9731D01*
Y9269D01*
X49280Y8810D01*
X49400Y8363D01*
X49577Y7935D01*
X49809Y7535D01*
X50090Y7168D01*
X50417Y6840D01*
X50785Y6559D01*
X51185Y6327D01*
X51613Y6150D01*
X52060Y6030D01*
X52519Y5970D01*
X52981D01*
X53440Y6030D01*
X53887Y6150D01*
X54315Y6327D01*
X54715Y6559D01*
X55083Y6840D01*
X55410Y7168D01*
X55691Y7535D01*
X55923Y7935D01*
X56100Y8363D01*
X56220Y8810D01*
X56280Y9269D01*
Y9731D01*
X56220Y10190D01*
X56100Y10637D01*
X55923Y11065D01*
X55691Y11465D01*
X55410Y11832D01*
X55083Y12160D01*
X54715Y12441D01*
X54315Y12673D01*
X53887Y12850D01*
X53440Y12970D01*
X52981Y13030D01*
D02*
G37*
G36*
X142731Y3530D02*
X142269D01*
X141810Y3470D01*
X141363Y3350D01*
X140935Y3173D01*
X140535Y2941D01*
X140168Y2660D01*
X139840Y2333D01*
X139559Y1965D01*
X139327Y1565D01*
X139150Y1137D01*
X139030Y690D01*
X138970Y231D01*
Y-231D01*
X139030Y-690D01*
X139150Y-1137D01*
X139327Y-1565D01*
X139559Y-1965D01*
X139840Y-2333D01*
X140168Y-2660D01*
X140535Y-2941D01*
X140935Y-3173D01*
X141363Y-3350D01*
X141810Y-3470D01*
X142269Y-3530D01*
X142731D01*
X143190Y-3470D01*
X143637Y-3350D01*
X144065Y-3173D01*
X144465Y-2941D01*
X144832Y-2660D01*
X145160Y-2333D01*
X145441Y-1965D01*
X145673Y-1565D01*
X145850Y-1137D01*
X145970Y-690D01*
X146030Y-231D01*
Y231D01*
X145970Y690D01*
X145850Y1137D01*
X145673Y1565D01*
X145441Y1965D01*
X145160Y2333D01*
X144832Y2660D01*
X144465Y2941D01*
X144065Y3173D01*
X143637Y3350D01*
X143190Y3470D01*
X142731Y3530D01*
D02*
G37*
G36*
X97731D02*
X97269D01*
X96810Y3470D01*
X96363Y3350D01*
X95935Y3173D01*
X95535Y2941D01*
X95168Y2660D01*
X94840Y2333D01*
X94559Y1965D01*
X94327Y1565D01*
X94150Y1137D01*
X94030Y690D01*
X93970Y231D01*
Y-231D01*
X94030Y-690D01*
X94150Y-1137D01*
X94327Y-1565D01*
X94559Y-1965D01*
X94840Y-2333D01*
X95168Y-2660D01*
X95535Y-2941D01*
X95935Y-3173D01*
X96363Y-3350D01*
X96810Y-3470D01*
X97269Y-3530D01*
X97731D01*
X98190Y-3470D01*
X98637Y-3350D01*
X99065Y-3173D01*
X99465Y-2941D01*
X99832Y-2660D01*
X100160Y-2333D01*
X100441Y-1965D01*
X100673Y-1565D01*
X100850Y-1137D01*
X100970Y-690D01*
X101030Y-231D01*
Y231D01*
X100970Y690D01*
X100850Y1137D01*
X100673Y1565D01*
X100441Y1965D01*
X100160Y2333D01*
X99832Y2660D01*
X99465Y2941D01*
X99065Y3173D01*
X98637Y3350D01*
X98190Y3470D01*
X97731Y3530D01*
D02*
G37*
%LPD*%
D52*
X115000Y-2500D02*
D03*
X20000D02*
D03*
X47500D02*
D03*
X75000Y100000D02*
D03*
X52500D02*
D03*
X256077Y65647D02*
D03*
Y25647D02*
D03*
X246077Y5647D02*
D03*
X236077Y25647D02*
D03*
X226077Y5647D02*
D03*
X216077Y65647D02*
D03*
Y25647D02*
D03*
X206077Y5647D02*
D03*
X186077D02*
D03*
X156077Y25647D02*
D03*
X86076Y85647D02*
D03*
X66076D02*
D03*
X56076Y65647D02*
D03*
X6076Y85647D02*
D03*
X16077Y65647D02*
D03*
Y25647D02*
D03*
X6076Y5647D02*
D03*
X203000Y96750D02*
D03*
X203000Y88560D02*
D03*
X203000Y80250D02*
D03*
X203250Y22500D02*
D03*
X127000Y25250D02*
D03*
X109250Y43500D02*
D03*
X99500Y28500D02*
D03*
X34115Y61976D02*
D03*
X7500Y57500D02*
D03*
X247500Y100000D02*
D03*
X221000Y100500D02*
D03*
X15000Y100000D02*
D03*
X157000Y5500D02*
D03*
Y19500D02*
D03*
X190000Y32500D02*
D03*
X200000D02*
D03*
X190000Y67500D02*
D03*
X200000D02*
D03*
X210000Y42500D02*
D03*
Y57500D02*
D03*
Y67500D02*
D03*
Y32500D02*
D03*
X141750Y89000D02*
D03*
X149940Y89000D02*
D03*
X158250Y89000D02*
D03*
X111750D02*
D03*
X119940Y89000D02*
D03*
X128250Y89000D02*
D03*
X34085Y42415D02*
D03*
X29915Y47415D02*
D03*
X32085Y72415D02*
D03*
X131000Y28250D02*
D03*
X128000Y31250D02*
D03*
M02*
