G04*
G04 #@! TF.GenerationSoftware,Altium Limited,Altium Designer,23.5.1 (21)*
G04*
G04 Layer_Color=16777215*
%FSLAX44Y44*%
%MOMM*%
G71*
G04*
G04 #@! TF.SameCoordinates,8A31CEE1-4E44-459D-8F00-06555A1585A0*
G04*
G04*
G04 #@! TF.FilePolarity,Positive*
G04*
G01*
G75*
%ADD13C,0.1000*%
%ADD75C,0.0500*%
D13*
X59396Y69656D02*
X194715D01*
X59285Y62230D02*
Y69654D01*
X194715Y62230D02*
Y69656D01*
X25500Y6858D02*
X228500D01*
Y62230D01*
X194715D02*
X228500D01*
X25500Y22500D02*
X228500D01*
X127000Y45800D02*
Y57800D01*
Y45800D02*
X139000D01*
X127000Y33800D02*
Y45800D01*
X115000D02*
X127000D01*
X25500Y6858D02*
Y62230D01*
X59285D01*
D75*
X166250Y120396D02*
X165844Y122831D01*
X164669Y125003D01*
X162852Y126675D01*
X160591Y127667D01*
X158131Y127870D01*
X155737Y127264D01*
X153670Y125914D01*
X152154Y123966D01*
X151352Y121630D01*
Y119162D01*
X152154Y116826D01*
X153670Y114878D01*
X155737Y113528D01*
X158131Y112922D01*
X160591Y113125D01*
X162852Y114117D01*
X164669Y115789D01*
X165844Y117961D01*
X166250Y120396D01*
X172600Y134620D02*
X172194Y137055D01*
X171019Y139227D01*
X169202Y140899D01*
X166941Y141890D01*
X164481Y142094D01*
X162087Y141488D01*
X160020Y140138D01*
X158504Y138190D01*
X157702Y135855D01*
Y133385D01*
X158504Y131050D01*
X160020Y129102D01*
X162087Y127752D01*
X164481Y127146D01*
X166941Y127350D01*
X169202Y128341D01*
X171019Y130013D01*
X172194Y132185D01*
X172600Y134620D01*
X156090Y152400D02*
X155684Y154835D01*
X154509Y157007D01*
X152692Y158679D01*
X150431Y159670D01*
X147971Y159874D01*
X145577Y159268D01*
X143510Y157918D01*
X141994Y155970D01*
X141192Y153635D01*
Y151166D01*
X141994Y148830D01*
X143510Y146882D01*
X145577Y145532D01*
X147971Y144926D01*
X150431Y145129D01*
X152692Y146121D01*
X154509Y147793D01*
X155684Y149965D01*
X156090Y152400D01*
X172600D02*
X172194Y154835D01*
X171019Y157007D01*
X169202Y158679D01*
X166941Y159670D01*
X164481Y159874D01*
X162087Y159268D01*
X160020Y157918D01*
X158504Y155970D01*
X157702Y153635D01*
Y151166D01*
X158504Y148830D01*
X160020Y146882D01*
X162087Y145532D01*
X164481Y144926D01*
X166941Y145129D01*
X169202Y146121D01*
X171019Y147793D01*
X172194Y149965D01*
X172600Y152400D01*
X223400Y156210D02*
X222994Y158645D01*
X221819Y160817D01*
X220002Y162489D01*
X217741Y163480D01*
X215281Y163684D01*
X212887Y163078D01*
X210820Y161728D01*
X209304Y159780D01*
X208502Y157444D01*
Y154976D01*
X209304Y152640D01*
X210820Y150692D01*
X212887Y149342D01*
X215281Y148736D01*
X217741Y148940D01*
X220002Y149931D01*
X221819Y151603D01*
X222994Y153775D01*
X223400Y156210D01*
X36000Y225310D02*
X35703Y227847D01*
X34830Y230247D01*
X33426Y232381D01*
X31569Y234133D01*
X29357Y235410D01*
X26910Y236143D01*
X24360Y236291D01*
X21845Y235848D01*
X19500Y234836D01*
X17451Y233311D01*
X15810Y231355D01*
X14663Y229072D01*
X14074Y226587D01*
Y224033D01*
X14663Y221548D01*
X15810Y219265D01*
X17451Y217309D01*
X19500Y215784D01*
X21845Y214772D01*
X24360Y214329D01*
X26910Y214477D01*
X29357Y215210D01*
X31569Y216487D01*
X33426Y218239D01*
X34830Y220373D01*
X35703Y222773D01*
X36000Y225310D01*
X246000Y100310D02*
X245704Y102847D01*
X244830Y105247D01*
X243426Y107381D01*
X241569Y109133D01*
X239357Y110410D01*
X236910Y111143D01*
X234360Y111291D01*
X231845Y110848D01*
X229500Y109836D01*
X227451Y108311D01*
X225810Y106355D01*
X224663Y104072D01*
X224074Y101587D01*
Y99033D01*
X224663Y96548D01*
X225810Y94265D01*
X227451Y92309D01*
X229500Y90784D01*
X231845Y89772D01*
X234360Y89329D01*
X236910Y89477D01*
X239357Y90210D01*
X241569Y91487D01*
X243426Y93239D01*
X244830Y95373D01*
X245704Y97773D01*
X246000Y100310D01*
X36000D02*
X35703Y102847D01*
X34830Y105247D01*
X33426Y107381D01*
X31569Y109133D01*
X29357Y110410D01*
X26910Y111143D01*
X24360Y111291D01*
X21845Y110848D01*
X19500Y109836D01*
X17451Y108311D01*
X15810Y106355D01*
X14663Y104072D01*
X14074Y101587D01*
Y99033D01*
X14663Y96548D01*
X15810Y94265D01*
X17451Y92309D01*
X19500Y90784D01*
X21845Y89772D01*
X24360Y89329D01*
X26910Y89477D01*
X29357Y90210D01*
X31569Y91487D01*
X33426Y93239D01*
X34830Y95373D01*
X35703Y97773D01*
X36000Y100310D01*
X246000Y225310D02*
X245704Y227847D01*
X244830Y230247D01*
X243426Y232381D01*
X241569Y234133D01*
X239357Y235410D01*
X236910Y236143D01*
X234360Y236291D01*
X231845Y235848D01*
X229500Y234836D01*
X227451Y233311D01*
X225810Y231355D01*
X224663Y229072D01*
X224074Y226587D01*
Y224033D01*
X224663Y221548D01*
X225810Y219265D01*
X227451Y217309D01*
X229500Y215784D01*
X231845Y214772D01*
X234360Y214329D01*
X236910Y214477D01*
X239357Y215210D01*
X241569Y216487D01*
X243426Y218239D01*
X244830Y220373D01*
X245704Y222773D01*
X246000Y225310D01*
X29050Y66040D02*
X28736Y68527D01*
X27813Y70858D01*
X26340Y72885D01*
X24408Y74483D01*
X22140Y75551D01*
X19678Y76020D01*
X17176Y75863D01*
X14792Y75088D01*
X12676Y73745D01*
X10960Y71918D01*
X9752Y69721D01*
X9129Y67293D01*
Y64787D01*
X9752Y62359D01*
X10960Y60162D01*
X12676Y58335D01*
X14792Y56992D01*
X17176Y56217D01*
X19678Y56060D01*
X22140Y56529D01*
X24408Y57597D01*
X26340Y59194D01*
X27813Y61223D01*
X28736Y63553D01*
X29050Y66040D01*
X252570Y193040D02*
X252256Y195527D01*
X251333Y197857D01*
X249860Y199886D01*
X247928Y201483D01*
X245660Y202551D01*
X243198Y203020D01*
X240696Y202863D01*
X238312Y202088D01*
X236196Y200745D01*
X234480Y198918D01*
X233272Y196721D01*
X232649Y194293D01*
Y191787D01*
X233272Y189359D01*
X234480Y187162D01*
X236196Y185335D01*
X238312Y183992D01*
X240696Y183217D01*
X243198Y183060D01*
X245660Y183529D01*
X247928Y184597D01*
X249860Y186194D01*
X251333Y188223D01*
X252256Y190553D01*
X252570Y193040D01*
X125500Y71000D02*
X153500D01*
X125500Y89000D02*
X153500D01*
X135690Y80000D02*
X143310D01*
X139500Y76190D02*
Y83810D01*
X153500Y71000D02*
Y89000D01*
X125500Y71000D02*
Y89000D01*
X95500Y71000D02*
X123500D01*
X95500Y89000D02*
X123500D01*
X105690Y80000D02*
X113310D01*
X109500Y76190D02*
Y83810D01*
X123500Y71000D02*
Y89000D01*
X95500Y71000D02*
Y89000D01*
X65500Y71000D02*
X93500D01*
X65500Y89000D02*
X93500D01*
X75690Y80000D02*
X83310D01*
X79500Y76190D02*
Y83810D01*
X93500Y71000D02*
Y89000D01*
X65500Y71000D02*
Y89000D01*
X217980Y132080D02*
X223980D01*
X220980Y129080D02*
Y135080D01*
X210480Y126080D02*
X231480D01*
X210480Y138080D02*
X231480D01*
X210480Y126080D02*
Y138080D01*
X231480Y126080D02*
Y138080D01*
X217980Y142240D02*
X223980D01*
X220980Y139240D02*
Y145240D01*
X210480Y136240D02*
X231480D01*
X210480Y148240D02*
X231480D01*
X210480Y136240D02*
Y148240D01*
X231480Y136240D02*
Y148240D01*
X205900Y200490D02*
X225900D01*
X205900Y166490D02*
X225900D01*
X205900D02*
Y200490D01*
X225900Y166490D02*
Y200490D01*
X215900Y178490D02*
Y188490D01*
X210900Y183490D02*
X220900D01*
X183140Y125270D02*
Y131270D01*
X180140Y128270D02*
X186140D01*
X175140Y124270D02*
Y132270D01*
X191140Y124270D02*
Y132270D01*
X175140Y124270D02*
X191140D01*
X175140Y132270D02*
X191140D01*
X203502Y136280D02*
X209502D01*
X206502Y133280D02*
Y139280D01*
X202502Y144280D02*
X210502D01*
X202502Y128280D02*
X210502D01*
X202502D02*
Y144280D01*
X210502Y128280D02*
Y144280D01*
X190420Y131530D02*
Y150530D01*
X180420Y131530D02*
Y150530D01*
Y131530D02*
X190420D01*
X180420Y150530D02*
X190420D01*
X185420Y138280D02*
Y143780D01*
X182670Y141030D02*
X188170D01*
X19050Y61040D02*
Y71040D01*
X14050Y66040D02*
X24050D01*
X242570Y188040D02*
Y198040D01*
X237570Y193040D02*
X247570D01*
M02*
