G04*
G04 #@! TF.GenerationSoftware,Altium Limited,Altium Designer,23.5.1 (21)*
G04*
G04 Layer_Color=16711935*
%FSLAX44Y44*%
%MOMM*%
G71*
G04*
G04 #@! TF.SameCoordinates,8A31CEE1-4E44-459D-8F00-06555A1585A0*
G04*
G04*
G04 #@! TF.FilePolarity,Positive*
G04*
G01*
G75*
%ADD11C,0.2540*%
%ADD13C,0.1000*%
G36*
X147856Y80100D02*
X148014Y80083D01*
X148173Y80058D01*
X148314Y80017D01*
X148456Y79975D01*
X148581Y79925D01*
X148698Y79875D01*
X148806Y79817D01*
X148897Y79767D01*
X148981Y79717D01*
X149056Y79667D01*
X149114Y79625D01*
X149164Y79583D01*
X149198Y79558D01*
X149214Y79542D01*
X149222Y79533D01*
X149331Y79425D01*
X149422Y79309D01*
X149506Y79184D01*
X149581Y79067D01*
X149639Y78942D01*
X149689Y78825D01*
X149731Y78709D01*
X149764Y78600D01*
X149789Y78500D01*
X149806Y78409D01*
X149822Y78325D01*
X149831Y78250D01*
X149839Y78192D01*
Y78142D01*
Y78117D01*
Y78109D01*
X149822Y77884D01*
X149789Y77692D01*
X149739Y77517D01*
X149681Y77367D01*
X149622Y77242D01*
X149597Y77201D01*
X149572Y77159D01*
X149556Y77126D01*
X149539Y77101D01*
X149522Y77092D01*
Y77084D01*
X149397Y76942D01*
X149248Y76826D01*
X149106Y76726D01*
X148964Y76651D01*
X148839Y76601D01*
X148781Y76576D01*
X148731Y76559D01*
X148698Y76551D01*
X148664Y76543D01*
X148648Y76534D01*
X148639D01*
X148789Y76451D01*
X148923Y76368D01*
X149039Y76276D01*
X149131Y76184D01*
X149206Y76109D01*
X149256Y76051D01*
X149289Y76009D01*
X149297Y75993D01*
X149372Y75859D01*
X149431Y75726D01*
X149464Y75601D01*
X149497Y75484D01*
X149514Y75384D01*
X149522Y75301D01*
Y75251D01*
Y75243D01*
Y75234D01*
X149514Y75076D01*
X149489Y74926D01*
X149447Y74785D01*
X149406Y74660D01*
X149356Y74560D01*
X149322Y74476D01*
X149289Y74426D01*
X149281Y74418D01*
Y74410D01*
X149189Y74268D01*
X149081Y74152D01*
X148964Y74043D01*
X148856Y73952D01*
X148756Y73885D01*
X148681Y73835D01*
X148648Y73818D01*
X148623Y73802D01*
X148614Y73793D01*
X148606D01*
X148439Y73718D01*
X148273Y73660D01*
X148114Y73627D01*
X147964Y73593D01*
X147839Y73577D01*
X147781D01*
X147739Y73568D01*
X147648D01*
X147506Y73577D01*
X147373Y73585D01*
X147123Y73635D01*
X146906Y73710D01*
X146815Y73752D01*
X146723Y73785D01*
X146648Y73827D01*
X146573Y73868D01*
X146515Y73910D01*
X146465Y73943D01*
X146423Y73968D01*
X146398Y73993D01*
X146382Y74001D01*
X146373Y74010D01*
X146281Y74093D01*
X146198Y74185D01*
X146057Y74385D01*
X145948Y74585D01*
X145857Y74776D01*
X145823Y74868D01*
X145798Y74951D01*
X145773Y75035D01*
X145757Y75093D01*
X145740Y75151D01*
X145732Y75193D01*
X145723Y75218D01*
Y75226D01*
X146507Y75368D01*
X146548Y75168D01*
X146598Y74993D01*
X146665Y74843D01*
X146731Y74726D01*
X146790Y74626D01*
X146840Y74560D01*
X146873Y74526D01*
X146890Y74510D01*
X147015Y74410D01*
X147140Y74343D01*
X147273Y74293D01*
X147390Y74251D01*
X147498Y74235D01*
X147590Y74226D01*
X147623Y74218D01*
X147664D01*
X147831Y74226D01*
X147973Y74260D01*
X148106Y74310D01*
X148214Y74360D01*
X148298Y74418D01*
X148364Y74460D01*
X148398Y74493D01*
X148414Y74510D01*
X148514Y74618D01*
X148589Y74743D01*
X148639Y74860D01*
X148681Y74968D01*
X148698Y75068D01*
X148706Y75143D01*
X148714Y75201D01*
Y75210D01*
Y75218D01*
X148706Y75318D01*
X148698Y75409D01*
X148648Y75576D01*
X148589Y75718D01*
X148514Y75834D01*
X148439Y75918D01*
X148373Y75984D01*
X148323Y76018D01*
X148314Y76034D01*
X148306D01*
X148156Y76118D01*
X147998Y76184D01*
X147848Y76226D01*
X147706Y76259D01*
X147590Y76276D01*
X147490Y76284D01*
X147456Y76293D01*
X147365D01*
X147323Y76284D01*
X147298Y76276D01*
X147281D01*
X147190Y76967D01*
X147306Y76942D01*
X147415Y76917D01*
X147515Y76901D01*
X147598Y76892D01*
X147656Y76884D01*
X147748D01*
X147948Y76901D01*
X148123Y76942D01*
X148273Y76992D01*
X148406Y77059D01*
X148506Y77126D01*
X148581Y77176D01*
X148631Y77217D01*
X148648Y77234D01*
X148714Y77301D01*
X148764Y77376D01*
X148856Y77517D01*
X148923Y77667D01*
X148964Y77809D01*
X148989Y77934D01*
X148997Y77992D01*
Y78034D01*
X149006Y78075D01*
Y78101D01*
Y78117D01*
Y78126D01*
Y78225D01*
X148989Y78325D01*
X148947Y78509D01*
X148881Y78675D01*
X148814Y78809D01*
X148748Y78925D01*
X148681Y79009D01*
X148656Y79034D01*
X148639Y79059D01*
X148631Y79067D01*
X148623Y79075D01*
X148548Y79142D01*
X148473Y79200D01*
X148314Y79300D01*
X148156Y79367D01*
X148006Y79408D01*
X147881Y79442D01*
X147823Y79450D01*
X147773D01*
X147739Y79458D01*
X147681D01*
X147515Y79442D01*
X147356Y79408D01*
X147223Y79367D01*
X147106Y79309D01*
X147006Y79258D01*
X146940Y79208D01*
X146898Y79175D01*
X146881Y79167D01*
X146823Y79109D01*
X146773Y79042D01*
X146681Y78884D01*
X146598Y78725D01*
X146540Y78567D01*
X146490Y78417D01*
X146473Y78359D01*
X146456Y78300D01*
X146448Y78259D01*
X146440Y78225D01*
X146432Y78200D01*
Y78192D01*
X145648Y78300D01*
X145665Y78450D01*
X145698Y78592D01*
X145732Y78717D01*
X145782Y78842D01*
X145832Y78959D01*
X145882Y79067D01*
X145940Y79167D01*
X145990Y79258D01*
X146048Y79334D01*
X146098Y79408D01*
X146148Y79467D01*
X146190Y79517D01*
X146232Y79558D01*
X146257Y79583D01*
X146273Y79600D01*
X146281Y79608D01*
X146390Y79700D01*
X146498Y79775D01*
X146615Y79842D01*
X146740Y79900D01*
X146856Y79942D01*
X146973Y79983D01*
X147190Y80042D01*
X147290Y80067D01*
X147390Y80083D01*
X147473Y80092D01*
X147540Y80100D01*
X147598Y80108D01*
X147681D01*
X147856Y80100D01*
D02*
G37*
G36*
X142016Y79992D02*
X142216Y79983D01*
X142391Y79967D01*
X142541Y79942D01*
X142666Y79925D01*
X142716Y79917D01*
X142757Y79908D01*
X142791Y79900D01*
X142816D01*
X142824Y79892D01*
X142832D01*
X142991Y79850D01*
X143141Y79800D01*
X143274Y79742D01*
X143382Y79692D01*
X143474Y79650D01*
X143541Y79608D01*
X143582Y79583D01*
X143599Y79575D01*
X143715Y79483D01*
X143832Y79392D01*
X143932Y79292D01*
X144016Y79200D01*
X144090Y79117D01*
X144140Y79050D01*
X144182Y79009D01*
X144190Y78992D01*
X144282Y78850D01*
X144374Y78692D01*
X144449Y78534D01*
X144507Y78384D01*
X144557Y78259D01*
X144574Y78200D01*
X144590Y78151D01*
X144607Y78117D01*
X144615Y78084D01*
X144624Y78067D01*
Y78059D01*
X144682Y77842D01*
X144724Y77617D01*
X144757Y77401D01*
X144774Y77201D01*
X144782Y77109D01*
X144790Y77026D01*
Y76951D01*
X144799Y76892D01*
Y76834D01*
Y76801D01*
Y76776D01*
Y76768D01*
X144790Y76459D01*
X144757Y76168D01*
X144740Y76034D01*
X144715Y75909D01*
X144690Y75793D01*
X144674Y75684D01*
X144649Y75585D01*
X144624Y75501D01*
X144599Y75426D01*
X144582Y75360D01*
X144565Y75310D01*
X144549Y75276D01*
X144540Y75251D01*
Y75243D01*
X144440Y75001D01*
X144315Y74793D01*
X144190Y74601D01*
X144065Y74443D01*
X144007Y74376D01*
X143957Y74318D01*
X143907Y74268D01*
X143865Y74226D01*
X143832Y74193D01*
X143807Y74168D01*
X143791Y74160D01*
X143782Y74152D01*
X143632Y74035D01*
X143474Y73935D01*
X143316Y73860D01*
X143166Y73793D01*
X143041Y73752D01*
X142982Y73735D01*
X142932Y73718D01*
X142899Y73710D01*
X142866Y73702D01*
X142849Y73693D01*
X142841D01*
X142683Y73660D01*
X142499Y73635D01*
X142308Y73618D01*
X142124Y73602D01*
X141966D01*
X141891Y73593D01*
X139500D01*
Y80000D01*
X141808D01*
X142016Y79992D01*
D02*
G37*
G36*
X119772Y79242D02*
X116623D01*
X116732Y79092D01*
X116790Y79017D01*
X116840Y78959D01*
X116890Y78900D01*
X116923Y78859D01*
X116948Y78834D01*
X116956Y78825D01*
X116998Y78784D01*
X117056Y78725D01*
X117115Y78667D01*
X117181Y78609D01*
X117331Y78475D01*
X117490Y78342D01*
X117631Y78217D01*
X117698Y78159D01*
X117748Y78109D01*
X117798Y78075D01*
X117831Y78042D01*
X117856Y78025D01*
X117865Y78017D01*
X118014Y77884D01*
X118165Y77759D01*
X118289Y77651D01*
X118414Y77542D01*
X118523Y77442D01*
X118623Y77342D01*
X118714Y77259D01*
X118789Y77184D01*
X118864Y77117D01*
X118923Y77059D01*
X118973Y77009D01*
X119014Y76967D01*
X119039Y76934D01*
X119064Y76909D01*
X119081Y76901D01*
Y76892D01*
X119206Y76743D01*
X119314Y76592D01*
X119406Y76459D01*
X119481Y76343D01*
X119539Y76251D01*
X119572Y76176D01*
X119597Y76126D01*
X119606Y76109D01*
X119656Y75968D01*
X119697Y75834D01*
X119722Y75701D01*
X119747Y75593D01*
X119756Y75493D01*
X119764Y75418D01*
Y75368D01*
Y75351D01*
X119756Y75210D01*
X119739Y75076D01*
X119714Y74951D01*
X119681Y74835D01*
X119589Y74618D01*
X119547Y74518D01*
X119497Y74435D01*
X119439Y74351D01*
X119397Y74285D01*
X119347Y74226D01*
X119306Y74177D01*
X119272Y74135D01*
X119248Y74110D01*
X119231Y74093D01*
X119222Y74085D01*
X119114Y73993D01*
X119006Y73918D01*
X118889Y73843D01*
X118764Y73785D01*
X118639Y73735D01*
X118523Y73693D01*
X118289Y73635D01*
X118181Y73610D01*
X118081Y73593D01*
X117990Y73585D01*
X117906Y73577D01*
X117848Y73568D01*
X117756D01*
X117590Y73577D01*
X117431Y73585D01*
X117281Y73610D01*
X117148Y73643D01*
X117015Y73677D01*
X116898Y73718D01*
X116790Y73760D01*
X116690Y73802D01*
X116598Y73852D01*
X116523Y73893D01*
X116457Y73935D01*
X116398Y73968D01*
X116357Y74001D01*
X116323Y74026D01*
X116307Y74035D01*
X116298Y74043D01*
X116198Y74135D01*
X116115Y74235D01*
X116040Y74343D01*
X115973Y74460D01*
X115915Y74568D01*
X115865Y74685D01*
X115790Y74910D01*
X115757Y75010D01*
X115732Y75110D01*
X115715Y75193D01*
X115698Y75268D01*
X115690Y75335D01*
Y75376D01*
X115682Y75409D01*
Y75418D01*
X116490Y75501D01*
X116507Y75285D01*
X116540Y75101D01*
X116598Y74943D01*
X116665Y74801D01*
X116723Y74701D01*
X116782Y74618D01*
X116815Y74576D01*
X116832Y74560D01*
X116965Y74443D01*
X117115Y74360D01*
X117273Y74302D01*
X117415Y74260D01*
X117540Y74235D01*
X117598Y74226D01*
X117648D01*
X117681Y74218D01*
X117740D01*
X117931Y74235D01*
X118106Y74268D01*
X118256Y74318D01*
X118381Y74376D01*
X118481Y74443D01*
X118556Y74493D01*
X118598Y74526D01*
X118614Y74543D01*
X118731Y74668D01*
X118814Y74801D01*
X118873Y74926D01*
X118914Y75051D01*
X118939Y75160D01*
X118948Y75251D01*
X118956Y75285D01*
Y75301D01*
Y75318D01*
Y75326D01*
Y75409D01*
X118939Y75493D01*
X118898Y75668D01*
X118839Y75826D01*
X118773Y75968D01*
X118698Y76093D01*
X118664Y76143D01*
X118639Y76193D01*
X118614Y76226D01*
X118598Y76251D01*
X118589Y76268D01*
X118581Y76276D01*
X118506Y76376D01*
X118414Y76476D01*
X118314Y76584D01*
X118206Y76701D01*
X117973Y76926D01*
X117740Y77142D01*
X117631Y77242D01*
X117523Y77334D01*
X117423Y77417D01*
X117340Y77492D01*
X117273Y77551D01*
X117215Y77592D01*
X117181Y77626D01*
X117173Y77634D01*
X116931Y77834D01*
X116723Y78017D01*
X116548Y78184D01*
X116407Y78325D01*
X116290Y78442D01*
X116207Y78534D01*
X116182Y78567D01*
X116157Y78592D01*
X116148Y78600D01*
X116140Y78609D01*
X116015Y78767D01*
X115907Y78917D01*
X115823Y79059D01*
X115748Y79192D01*
X115690Y79300D01*
X115657Y79384D01*
X115640Y79417D01*
X115632Y79442D01*
X115623Y79450D01*
Y79458D01*
X115590Y79558D01*
X115565Y79650D01*
X115548Y79742D01*
X115540Y79825D01*
X115532Y79900D01*
Y79950D01*
Y79983D01*
Y80000D01*
X119772D01*
Y79242D01*
D02*
G37*
G36*
X112016Y79992D02*
X112216Y79983D01*
X112391Y79967D01*
X112541Y79942D01*
X112666Y79925D01*
X112716Y79917D01*
X112758Y79908D01*
X112791Y79900D01*
X112816D01*
X112824Y79892D01*
X112832D01*
X112991Y79850D01*
X113141Y79800D01*
X113274Y79742D01*
X113382Y79692D01*
X113474Y79650D01*
X113541Y79608D01*
X113582Y79583D01*
X113599Y79575D01*
X113716Y79483D01*
X113832Y79392D01*
X113932Y79292D01*
X114016Y79200D01*
X114090Y79117D01*
X114141Y79050D01*
X114182Y79009D01*
X114191Y78992D01*
X114282Y78850D01*
X114374Y78692D01*
X114449Y78534D01*
X114507Y78384D01*
X114557Y78259D01*
X114574Y78200D01*
X114590Y78151D01*
X114607Y78117D01*
X114615Y78084D01*
X114624Y78067D01*
Y78059D01*
X114682Y77842D01*
X114724Y77617D01*
X114757Y77401D01*
X114774Y77201D01*
X114782Y77109D01*
X114790Y77026D01*
Y76951D01*
X114799Y76892D01*
Y76834D01*
Y76801D01*
Y76776D01*
Y76768D01*
X114790Y76459D01*
X114757Y76168D01*
X114740Y76034D01*
X114715Y75909D01*
X114690Y75793D01*
X114674Y75684D01*
X114649Y75585D01*
X114624Y75501D01*
X114599Y75426D01*
X114582Y75360D01*
X114565Y75310D01*
X114549Y75276D01*
X114540Y75251D01*
Y75243D01*
X114440Y75001D01*
X114315Y74793D01*
X114191Y74601D01*
X114066Y74443D01*
X114007Y74376D01*
X113957Y74318D01*
X113907Y74268D01*
X113866Y74226D01*
X113832Y74193D01*
X113807Y74168D01*
X113791Y74160D01*
X113782Y74152D01*
X113632Y74035D01*
X113474Y73935D01*
X113316Y73860D01*
X113166Y73793D01*
X113041Y73752D01*
X112983Y73735D01*
X112933Y73718D01*
X112899Y73710D01*
X112866Y73702D01*
X112849Y73693D01*
X112841D01*
X112683Y73660D01*
X112499Y73635D01*
X112308Y73618D01*
X112124Y73602D01*
X111966D01*
X111891Y73593D01*
X109500D01*
Y80000D01*
X111808D01*
X112016Y79992D01*
D02*
G37*
G36*
X88606Y73568D02*
X88098D01*
X88006Y73727D01*
X87898Y73877D01*
X87781Y74026D01*
X87673Y74152D01*
X87565Y74268D01*
X87481Y74351D01*
X87448Y74385D01*
X87423Y74410D01*
X87406Y74418D01*
X87398Y74426D01*
X87206Y74585D01*
X87015Y74726D01*
X86815Y74860D01*
X86640Y74968D01*
X86482Y75051D01*
X86415Y75093D01*
X86357Y75118D01*
X86315Y75143D01*
X86282Y75160D01*
X86257Y75176D01*
X86248D01*
Y75943D01*
X86390Y75884D01*
X86532Y75818D01*
X86673Y75751D01*
X86798Y75684D01*
X86906Y75626D01*
X86998Y75576D01*
X87031Y75560D01*
X87057Y75543D01*
X87065Y75535D01*
X87073D01*
X87240Y75434D01*
X87381Y75335D01*
X87515Y75243D01*
X87623Y75160D01*
X87706Y75093D01*
X87773Y75035D01*
X87806Y75001D01*
X87823Y74993D01*
Y80000D01*
X88606D01*
Y73568D01*
D02*
G37*
G36*
X82016Y79992D02*
X82216Y79983D01*
X82391Y79967D01*
X82541Y79942D01*
X82666Y79925D01*
X82716Y79917D01*
X82758Y79908D01*
X82791Y79900D01*
X82816D01*
X82824Y79892D01*
X82832D01*
X82991Y79850D01*
X83141Y79800D01*
X83274Y79742D01*
X83382Y79692D01*
X83474Y79650D01*
X83541Y79608D01*
X83582Y79583D01*
X83599Y79575D01*
X83716Y79483D01*
X83832Y79392D01*
X83932Y79292D01*
X84016Y79200D01*
X84091Y79117D01*
X84141Y79050D01*
X84182Y79009D01*
X84191Y78992D01*
X84282Y78850D01*
X84374Y78692D01*
X84449Y78534D01*
X84507Y78384D01*
X84557Y78259D01*
X84574Y78200D01*
X84590Y78151D01*
X84607Y78117D01*
X84615Y78084D01*
X84624Y78067D01*
Y78059D01*
X84682Y77842D01*
X84724Y77617D01*
X84757Y77401D01*
X84774Y77201D01*
X84782Y77109D01*
X84790Y77026D01*
Y76951D01*
X84799Y76892D01*
Y76834D01*
Y76801D01*
Y76776D01*
Y76768D01*
X84790Y76459D01*
X84757Y76168D01*
X84740Y76034D01*
X84715Y75909D01*
X84690Y75793D01*
X84674Y75684D01*
X84649Y75585D01*
X84624Y75501D01*
X84599Y75426D01*
X84582Y75360D01*
X84565Y75310D01*
X84549Y75276D01*
X84540Y75251D01*
Y75243D01*
X84440Y75001D01*
X84316Y74793D01*
X84191Y74601D01*
X84066Y74443D01*
X84007Y74376D01*
X83957Y74318D01*
X83907Y74268D01*
X83866Y74226D01*
X83832Y74193D01*
X83807Y74168D01*
X83791Y74160D01*
X83782Y74152D01*
X83632Y74035D01*
X83474Y73935D01*
X83316Y73860D01*
X83166Y73793D01*
X83041Y73752D01*
X82983Y73735D01*
X82933Y73718D01*
X82899Y73710D01*
X82866Y73702D01*
X82849Y73693D01*
X82841D01*
X82683Y73660D01*
X82499Y73635D01*
X82308Y73618D01*
X82124Y73602D01*
X81966D01*
X81891Y73593D01*
X79500D01*
Y80000D01*
X81808D01*
X82016Y79992D01*
D02*
G37*
G36*
X218264Y138578D02*
X218556Y138537D01*
X218822Y138470D01*
X218939Y138437D01*
X219056Y138403D01*
X219156Y138362D01*
X219247Y138328D01*
X219322Y138295D01*
X219389Y138262D01*
X219439Y138237D01*
X219480Y138220D01*
X219505Y138212D01*
X219514Y138203D01*
X219639Y138128D01*
X219764Y138045D01*
X219980Y137862D01*
X220172Y137679D01*
X220322Y137495D01*
X220389Y137404D01*
X220447Y137329D01*
X220497Y137254D01*
X220530Y137195D01*
X220563Y137145D01*
X220588Y137104D01*
X220597Y137079D01*
X220605Y137070D01*
X220672Y136929D01*
X220730Y136779D01*
X220822Y136487D01*
X220888Y136196D01*
X220913Y136054D01*
X220930Y135921D01*
X220947Y135796D01*
X220963Y135687D01*
X220972Y135587D01*
Y135496D01*
X220980Y135429D01*
Y135371D01*
Y135337D01*
Y135329D01*
X220963Y134996D01*
X220930Y134671D01*
X220905Y134529D01*
X220872Y134388D01*
X220847Y134254D01*
X220813Y134129D01*
X220780Y134013D01*
X220755Y133913D01*
X220722Y133830D01*
X220697Y133755D01*
X220680Y133696D01*
X220663Y133646D01*
X220647Y133621D01*
Y133613D01*
X220580Y133471D01*
X220505Y133330D01*
X220430Y133205D01*
X220347Y133088D01*
X220264Y132971D01*
X220180Y132872D01*
X220105Y132780D01*
X220022Y132705D01*
X219947Y132630D01*
X219880Y132563D01*
X219814Y132513D01*
X219764Y132472D01*
X219714Y132430D01*
X219680Y132405D01*
X219664Y132397D01*
X219655Y132388D01*
X219530Y132313D01*
X219397Y132255D01*
X219255Y132197D01*
X219114Y132147D01*
X218831Y132072D01*
X218564Y132022D01*
X218439Y132005D01*
X218331Y131997D01*
X218222Y131988D01*
X218139Y131980D01*
X218064Y131972D01*
X217964D01*
X217781Y131980D01*
X217606Y131997D01*
X217439Y132022D01*
X217281Y132055D01*
X217131Y132097D01*
X216989Y132147D01*
X216864Y132188D01*
X216739Y132247D01*
X216639Y132297D01*
X216548Y132338D01*
X216465Y132388D01*
X216398Y132430D01*
X216339Y132463D01*
X216306Y132488D01*
X216281Y132505D01*
X216273Y132513D01*
X216148Y132621D01*
X216031Y132738D01*
X215923Y132863D01*
X215831Y132996D01*
X215740Y133130D01*
X215665Y133255D01*
X215590Y133388D01*
X215531Y133513D01*
X215473Y133638D01*
X215431Y133746D01*
X215390Y133846D01*
X215356Y133930D01*
X215340Y134004D01*
X215323Y134063D01*
X215306Y134096D01*
Y134104D01*
X216156Y134321D01*
X216198Y134171D01*
X216239Y134038D01*
X216290Y133913D01*
X216339Y133788D01*
X216398Y133680D01*
X216448Y133580D01*
X216506Y133488D01*
X216565Y133413D01*
X216614Y133338D01*
X216664Y133280D01*
X216714Y133221D01*
X216748Y133180D01*
X216781Y133146D01*
X216806Y133121D01*
X216823Y133113D01*
X216831Y133105D01*
X216923Y133030D01*
X217023Y132971D01*
X217123Y132913D01*
X217231Y132872D01*
X217431Y132796D01*
X217623Y132746D01*
X217706Y132730D01*
X217789Y132722D01*
X217856Y132713D01*
X217922Y132705D01*
X217972Y132697D01*
X218039D01*
X218256Y132713D01*
X218456Y132746D01*
X218639Y132788D01*
X218806Y132846D01*
X218939Y132905D01*
X218997Y132930D01*
X219039Y132946D01*
X219081Y132971D01*
X219105Y132980D01*
X219122Y132996D01*
X219130D01*
X219305Y133121D01*
X219455Y133263D01*
X219580Y133413D01*
X219689Y133563D01*
X219772Y133696D01*
X219797Y133755D01*
X219822Y133805D01*
X219847Y133846D01*
X219864Y133879D01*
X219872Y133896D01*
Y133904D01*
X219947Y134138D01*
X220005Y134388D01*
X220047Y134621D01*
X220072Y134846D01*
X220089Y134946D01*
Y135038D01*
X220097Y135121D01*
X220105Y135196D01*
Y135254D01*
Y135296D01*
Y135321D01*
Y135329D01*
X220097Y135562D01*
X220072Y135787D01*
X220039Y135996D01*
X220005Y136187D01*
X219989Y136262D01*
X219972Y136337D01*
X219955Y136404D01*
X219939Y136462D01*
X219922Y136504D01*
X219914Y136537D01*
X219905Y136554D01*
Y136562D01*
X219822Y136779D01*
X219714Y136962D01*
X219597Y137129D01*
X219480Y137262D01*
X219380Y137370D01*
X219297Y137445D01*
X219264Y137479D01*
X219239Y137495D01*
X219222Y137512D01*
X219214D01*
X219114Y137579D01*
X219014Y137629D01*
X218806Y137720D01*
X218597Y137787D01*
X218406Y137829D01*
X218314Y137837D01*
X218231Y137853D01*
X218156Y137862D01*
X218097D01*
X218047Y137870D01*
X217972D01*
X217739Y137853D01*
X217531Y137820D01*
X217348Y137770D01*
X217189Y137712D01*
X217064Y137645D01*
X217014Y137620D01*
X216973Y137595D01*
X216939Y137579D01*
X216914Y137562D01*
X216906Y137545D01*
X216898D01*
X216823Y137479D01*
X216748Y137412D01*
X216614Y137254D01*
X216506Y137087D01*
X216415Y136920D01*
X216339Y136770D01*
X216315Y136704D01*
X216290Y136645D01*
X216273Y136595D01*
X216256Y136562D01*
X216248Y136537D01*
Y136529D01*
X215415Y136729D01*
X215465Y136887D01*
X215531Y137045D01*
X215598Y137187D01*
X215673Y137320D01*
X215748Y137437D01*
X215823Y137554D01*
X215898Y137654D01*
X215973Y137745D01*
X216048Y137829D01*
X216115Y137903D01*
X216181Y137962D01*
X216231Y138012D01*
X216273Y138054D01*
X216315Y138078D01*
X216331Y138095D01*
X216339Y138104D01*
X216465Y138187D01*
X216598Y138270D01*
X216731Y138328D01*
X216864Y138387D01*
X217006Y138437D01*
X217139Y138478D01*
X217389Y138537D01*
X217506Y138553D01*
X217614Y138570D01*
X217714Y138578D01*
X217798Y138587D01*
X217864Y138595D01*
X218114D01*
X218264Y138578D01*
D02*
G37*
G36*
X212649Y138503D02*
X212799Y138495D01*
X212932Y138470D01*
X213057Y138437D01*
X213174Y138403D01*
X213290Y138362D01*
X213390Y138312D01*
X213474Y138270D01*
X213557Y138228D01*
X213632Y138178D01*
X213690Y138137D01*
X213740Y138104D01*
X213782Y138070D01*
X213807Y138054D01*
X213824Y138037D01*
X213832Y138028D01*
X213923Y137937D01*
X213999Y137845D01*
X214065Y137745D01*
X214123Y137645D01*
X214165Y137545D01*
X214207Y137445D01*
X214265Y137262D01*
X214307Y137104D01*
X214315Y137029D01*
X214323Y136970D01*
X214332Y136920D01*
Y136887D01*
Y136862D01*
Y136854D01*
X214323Y136687D01*
X214298Y136537D01*
X214257Y136404D01*
X214215Y136287D01*
X214173Y136196D01*
X214132Y136121D01*
X214107Y136079D01*
X214098Y136062D01*
X213999Y135946D01*
X213890Y135837D01*
X213765Y135754D01*
X213648Y135679D01*
X213540Y135621D01*
X213457Y135579D01*
X213424Y135562D01*
X213399Y135554D01*
X213382Y135546D01*
X213374D01*
X213582Y135479D01*
X213757Y135396D01*
X213915Y135296D01*
X214040Y135204D01*
X214140Y135113D01*
X214215Y135038D01*
X214257Y134988D01*
X214273Y134979D01*
Y134971D01*
X214382Y134804D01*
X214457Y134629D01*
X214515Y134463D01*
X214548Y134296D01*
X214573Y134146D01*
X214582Y134088D01*
Y134038D01*
X214590Y133988D01*
Y133954D01*
Y133938D01*
Y133930D01*
X214582Y133780D01*
X214565Y133630D01*
X214540Y133488D01*
X214498Y133355D01*
X214457Y133230D01*
X214407Y133113D01*
X214357Y133013D01*
X214298Y132913D01*
X214248Y132830D01*
X214198Y132755D01*
X214148Y132688D01*
X214107Y132630D01*
X214065Y132588D01*
X214040Y132555D01*
X214023Y132538D01*
X214015Y132530D01*
X213899Y132430D01*
X213782Y132347D01*
X213657Y132272D01*
X213532Y132205D01*
X213399Y132155D01*
X213274Y132105D01*
X213032Y132038D01*
X212915Y132022D01*
X212815Y132005D01*
X212724Y131988D01*
X212640Y131980D01*
X212574Y131972D01*
X212482D01*
X212307Y131980D01*
X212149Y131997D01*
X211991Y132022D01*
X211849Y132063D01*
X211707Y132105D01*
X211582Y132147D01*
X211474Y132197D01*
X211366Y132255D01*
X211274Y132305D01*
X211191Y132355D01*
X211124Y132397D01*
X211066Y132447D01*
X211016Y132480D01*
X210983Y132505D01*
X210966Y132522D01*
X210958Y132530D01*
X210858Y132638D01*
X210766Y132746D01*
X210691Y132863D01*
X210616Y132980D01*
X210566Y133096D01*
X210516Y133213D01*
X210474Y133321D01*
X210449Y133430D01*
X210424Y133530D01*
X210408Y133613D01*
X210391Y133696D01*
X210383Y133771D01*
X210374Y133830D01*
Y133871D01*
Y133896D01*
Y133904D01*
X210391Y134121D01*
X210424Y134321D01*
X210474Y134496D01*
X210524Y134646D01*
X210583Y134763D01*
X210608Y134813D01*
X210633Y134854D01*
X210658Y134888D01*
X210666Y134913D01*
X210683Y134921D01*
Y134929D01*
X210808Y135079D01*
X210949Y135204D01*
X211099Y135312D01*
X211249Y135396D01*
X211383Y135463D01*
X211432Y135487D01*
X211482Y135513D01*
X211524Y135529D01*
X211557Y135537D01*
X211574Y135546D01*
X211582D01*
X211416Y135621D01*
X211274Y135704D01*
X211149Y135787D01*
X211049Y135871D01*
X210974Y135946D01*
X210916Y136004D01*
X210883Y136037D01*
X210874Y136054D01*
X210791Y136187D01*
X210733Y136321D01*
X210691Y136446D01*
X210666Y136571D01*
X210641Y136679D01*
X210633Y136762D01*
Y136796D01*
Y136820D01*
Y136829D01*
Y136837D01*
X210641Y136962D01*
X210658Y137087D01*
X210683Y137204D01*
X210716Y137320D01*
X210799Y137520D01*
X210891Y137695D01*
X210941Y137762D01*
X210983Y137829D01*
X211033Y137887D01*
X211066Y137937D01*
X211099Y137970D01*
X211124Y137995D01*
X211141Y138012D01*
X211149Y138020D01*
X211249Y138104D01*
X211349Y138187D01*
X211466Y138245D01*
X211574Y138303D01*
X211691Y138353D01*
X211799Y138395D01*
X212016Y138453D01*
X212116Y138470D01*
X212207Y138487D01*
X212291Y138495D01*
X212357Y138503D01*
X212416Y138512D01*
X212499D01*
X212649Y138503D01*
D02*
G37*
G36*
X218264Y148738D02*
X218556Y148697D01*
X218822Y148630D01*
X218939Y148597D01*
X219056Y148563D01*
X219156Y148522D01*
X219247Y148488D01*
X219322Y148455D01*
X219389Y148422D01*
X219439Y148397D01*
X219480Y148380D01*
X219505Y148372D01*
X219514Y148363D01*
X219639Y148288D01*
X219764Y148205D01*
X219980Y148022D01*
X220172Y147839D01*
X220322Y147655D01*
X220389Y147564D01*
X220447Y147489D01*
X220497Y147414D01*
X220530Y147355D01*
X220563Y147305D01*
X220588Y147264D01*
X220597Y147239D01*
X220605Y147230D01*
X220672Y147089D01*
X220730Y146939D01*
X220822Y146647D01*
X220888Y146356D01*
X220913Y146214D01*
X220930Y146081D01*
X220947Y145956D01*
X220963Y145847D01*
X220972Y145747D01*
Y145656D01*
X220980Y145589D01*
Y145531D01*
Y145498D01*
Y145489D01*
X220963Y145156D01*
X220930Y144831D01*
X220905Y144689D01*
X220872Y144548D01*
X220847Y144414D01*
X220813Y144290D01*
X220780Y144173D01*
X220755Y144073D01*
X220722Y143990D01*
X220697Y143915D01*
X220680Y143856D01*
X220663Y143806D01*
X220647Y143781D01*
Y143773D01*
X220580Y143631D01*
X220505Y143490D01*
X220430Y143365D01*
X220347Y143248D01*
X220264Y143131D01*
X220180Y143032D01*
X220105Y142940D01*
X220022Y142865D01*
X219947Y142790D01*
X219880Y142723D01*
X219814Y142673D01*
X219764Y142632D01*
X219714Y142590D01*
X219680Y142565D01*
X219664Y142557D01*
X219655Y142548D01*
X219530Y142473D01*
X219397Y142415D01*
X219255Y142357D01*
X219114Y142307D01*
X218831Y142232D01*
X218564Y142182D01*
X218439Y142165D01*
X218331Y142157D01*
X218222Y142148D01*
X218139Y142140D01*
X218064Y142132D01*
X217964D01*
X217781Y142140D01*
X217606Y142157D01*
X217439Y142182D01*
X217281Y142215D01*
X217131Y142257D01*
X216989Y142307D01*
X216864Y142348D01*
X216739Y142407D01*
X216639Y142457D01*
X216548Y142498D01*
X216465Y142548D01*
X216398Y142590D01*
X216339Y142623D01*
X216306Y142648D01*
X216281Y142665D01*
X216273Y142673D01*
X216148Y142781D01*
X216031Y142898D01*
X215923Y143023D01*
X215831Y143156D01*
X215740Y143290D01*
X215665Y143415D01*
X215590Y143548D01*
X215531Y143673D01*
X215473Y143798D01*
X215431Y143906D01*
X215390Y144006D01*
X215356Y144089D01*
X215340Y144164D01*
X215323Y144223D01*
X215306Y144256D01*
Y144264D01*
X216156Y144481D01*
X216198Y144331D01*
X216239Y144198D01*
X216290Y144073D01*
X216339Y143948D01*
X216398Y143840D01*
X216448Y143740D01*
X216506Y143648D01*
X216565Y143573D01*
X216614Y143498D01*
X216664Y143440D01*
X216714Y143381D01*
X216748Y143340D01*
X216781Y143306D01*
X216806Y143281D01*
X216823Y143273D01*
X216831Y143265D01*
X216923Y143190D01*
X217023Y143131D01*
X217123Y143073D01*
X217231Y143032D01*
X217431Y142956D01*
X217623Y142907D01*
X217706Y142890D01*
X217789Y142881D01*
X217856Y142873D01*
X217922Y142865D01*
X217972Y142857D01*
X218039D01*
X218256Y142873D01*
X218456Y142907D01*
X218639Y142948D01*
X218806Y143006D01*
X218939Y143065D01*
X218997Y143090D01*
X219039Y143106D01*
X219081Y143131D01*
X219105Y143140D01*
X219122Y143156D01*
X219130D01*
X219305Y143281D01*
X219455Y143423D01*
X219580Y143573D01*
X219689Y143723D01*
X219772Y143856D01*
X219797Y143915D01*
X219822Y143965D01*
X219847Y144006D01*
X219864Y144039D01*
X219872Y144056D01*
Y144065D01*
X219947Y144298D01*
X220005Y144548D01*
X220047Y144781D01*
X220072Y145006D01*
X220089Y145106D01*
Y145198D01*
X220097Y145281D01*
X220105Y145356D01*
Y145414D01*
Y145456D01*
Y145481D01*
Y145489D01*
X220097Y145722D01*
X220072Y145947D01*
X220039Y146156D01*
X220005Y146347D01*
X219989Y146422D01*
X219972Y146497D01*
X219955Y146564D01*
X219939Y146622D01*
X219922Y146664D01*
X219914Y146697D01*
X219905Y146714D01*
Y146722D01*
X219822Y146939D01*
X219714Y147122D01*
X219597Y147289D01*
X219480Y147422D01*
X219380Y147530D01*
X219297Y147605D01*
X219264Y147639D01*
X219239Y147655D01*
X219222Y147672D01*
X219214D01*
X219114Y147739D01*
X219014Y147789D01*
X218806Y147880D01*
X218597Y147947D01*
X218406Y147989D01*
X218314Y147997D01*
X218231Y148013D01*
X218156Y148022D01*
X218097D01*
X218047Y148030D01*
X217972D01*
X217739Y148013D01*
X217531Y147980D01*
X217348Y147930D01*
X217189Y147872D01*
X217064Y147805D01*
X217014Y147780D01*
X216973Y147755D01*
X216939Y147739D01*
X216914Y147722D01*
X216906Y147705D01*
X216898D01*
X216823Y147639D01*
X216748Y147572D01*
X216614Y147414D01*
X216506Y147247D01*
X216415Y147080D01*
X216339Y146931D01*
X216315Y146864D01*
X216290Y146805D01*
X216273Y146756D01*
X216256Y146722D01*
X216248Y146697D01*
Y146689D01*
X215415Y146889D01*
X215465Y147047D01*
X215531Y147205D01*
X215598Y147347D01*
X215673Y147480D01*
X215748Y147597D01*
X215823Y147714D01*
X215898Y147814D01*
X215973Y147905D01*
X216048Y147989D01*
X216115Y148063D01*
X216181Y148122D01*
X216231Y148172D01*
X216273Y148214D01*
X216315Y148238D01*
X216331Y148255D01*
X216339Y148264D01*
X216465Y148347D01*
X216598Y148430D01*
X216731Y148488D01*
X216864Y148547D01*
X217006Y148597D01*
X217139Y148638D01*
X217389Y148697D01*
X217506Y148713D01*
X217614Y148730D01*
X217714Y148738D01*
X217798Y148747D01*
X217864Y148755D01*
X218114D01*
X218264Y148738D01*
D02*
G37*
G36*
X214532Y147805D02*
X211399D01*
X211616Y147539D01*
X211832Y147255D01*
X212024Y146972D01*
X212191Y146706D01*
X212266Y146589D01*
X212332Y146472D01*
X212390Y146372D01*
X212440Y146289D01*
X212482Y146222D01*
X212507Y146164D01*
X212524Y146131D01*
X212532Y146122D01*
X212715Y145747D01*
X212882Y145381D01*
X213015Y145031D01*
X213082Y144873D01*
X213132Y144714D01*
X213182Y144573D01*
X213224Y144448D01*
X213257Y144340D01*
X213290Y144240D01*
X213307Y144164D01*
X213324Y144106D01*
X213340Y144073D01*
Y144056D01*
X213390Y143856D01*
X213432Y143673D01*
X213474Y143490D01*
X213507Y143323D01*
X213532Y143165D01*
X213557Y143015D01*
X213574Y142873D01*
X213590Y142748D01*
X213607Y142632D01*
X213615Y142532D01*
X213624Y142448D01*
Y142373D01*
X213632Y142315D01*
Y142273D01*
Y142248D01*
Y142240D01*
X212824D01*
X212790Y142590D01*
X212749Y142915D01*
X212732Y143065D01*
X212707Y143215D01*
X212674Y143348D01*
X212649Y143473D01*
X212624Y143590D01*
X212607Y143690D01*
X212582Y143781D01*
X212565Y143856D01*
X212549Y143915D01*
X212532Y143965D01*
X212524Y143990D01*
Y143998D01*
X212390Y144423D01*
X212241Y144823D01*
X212166Y145014D01*
X212091Y145198D01*
X212016Y145372D01*
X211941Y145531D01*
X211874Y145681D01*
X211807Y145814D01*
X211757Y145931D01*
X211707Y146031D01*
X211666Y146106D01*
X211632Y146164D01*
X211616Y146206D01*
X211607Y146214D01*
X211491Y146414D01*
X211383Y146597D01*
X211274Y146781D01*
X211166Y146939D01*
X211057Y147097D01*
X210958Y147239D01*
X210866Y147372D01*
X210774Y147489D01*
X210691Y147589D01*
X210616Y147680D01*
X210549Y147764D01*
X210499Y147830D01*
X210449Y147880D01*
X210416Y147914D01*
X210399Y147938D01*
X210391Y147947D01*
Y148563D01*
X214532D01*
Y147805D01*
D02*
G37*
G36*
X215900Y182600D02*
X212992D01*
Y179592D01*
X212234D01*
Y182600D01*
X210251D01*
Y179125D01*
X209493D01*
Y183449D01*
X215900D01*
Y182600D01*
D02*
G37*
G36*
Y175626D02*
X215892Y175401D01*
X215883Y175201D01*
X215867Y175026D01*
X215850Y174876D01*
X215833Y174760D01*
X215825Y174710D01*
X215817Y174668D01*
X215808Y174635D01*
X215800Y174610D01*
Y174593D01*
X215758Y174443D01*
X215708Y174302D01*
X215650Y174185D01*
X215600Y174085D01*
X215558Y174002D01*
X215517Y173943D01*
X215492Y173902D01*
X215483Y173894D01*
X215392Y173794D01*
X215300Y173702D01*
X215200Y173619D01*
X215100Y173552D01*
X215017Y173494D01*
X214950Y173452D01*
X214900Y173427D01*
X214884Y173419D01*
X214734Y173352D01*
X214592Y173310D01*
X214450Y173277D01*
X214325Y173252D01*
X214209Y173235D01*
X214125Y173227D01*
X214092D01*
X214067D01*
X214059D01*
X214051D01*
X213850Y173244D01*
X213667Y173277D01*
X213501Y173327D01*
X213359Y173385D01*
X213242Y173444D01*
X213159Y173494D01*
X213126Y173510D01*
X213101Y173527D01*
X213092Y173543D01*
X213084D01*
X212942Y173668D01*
X212817Y173810D01*
X212717Y173960D01*
X212634Y174102D01*
X212568Y174235D01*
X212542Y174293D01*
X212526Y174335D01*
X212509Y174377D01*
X212501Y174410D01*
X212493Y174427D01*
Y174435D01*
X212409Y174277D01*
X212309Y174143D01*
X212218Y174027D01*
X212126Y173927D01*
X212043Y173852D01*
X211976Y173802D01*
X211934Y173769D01*
X211918Y173760D01*
X211776Y173685D01*
X211643Y173627D01*
X211509Y173594D01*
X211385Y173560D01*
X211285Y173543D01*
X211201Y173535D01*
X211176D01*
X211151D01*
X211143D01*
X211135D01*
X210968Y173543D01*
X210818Y173577D01*
X210676Y173619D01*
X210551Y173660D01*
X210443Y173710D01*
X210360Y173752D01*
X210310Y173785D01*
X210301Y173794D01*
X210293D01*
X210152Y173894D01*
X210026Y174010D01*
X209926Y174118D01*
X209843Y174235D01*
X209777Y174335D01*
X209727Y174410D01*
X209710Y174443D01*
X209702Y174468D01*
X209693Y174477D01*
Y174485D01*
X209627Y174660D01*
X209577Y174851D01*
X209543Y175051D01*
X209518Y175235D01*
X209502Y175401D01*
Y175476D01*
X209493Y175535D01*
Y178059D01*
X215900D01*
Y175626D01*
D02*
G37*
G36*
X211784Y171636D02*
X211718Y171494D01*
X211651Y171352D01*
X211584Y171227D01*
X211526Y171119D01*
X211476Y171028D01*
X211460Y170994D01*
X211443Y170969D01*
X211434Y170961D01*
Y170952D01*
X211334Y170786D01*
X211234Y170644D01*
X211143Y170511D01*
X211060Y170403D01*
X210993Y170319D01*
X210935Y170253D01*
X210901Y170219D01*
X210893Y170203D01*
X215900D01*
Y169420D01*
X209468D01*
Y169928D01*
X209627Y170019D01*
X209777Y170128D01*
X209926Y170244D01*
X210051Y170353D01*
X210168Y170461D01*
X210251Y170544D01*
X210285Y170578D01*
X210310Y170603D01*
X210318Y170619D01*
X210326Y170628D01*
X210485Y170819D01*
X210626Y171011D01*
X210760Y171211D01*
X210868Y171386D01*
X210951Y171544D01*
X210993Y171611D01*
X211018Y171669D01*
X211043Y171711D01*
X211060Y171744D01*
X211076Y171769D01*
Y171777D01*
X211843D01*
X211784Y171636D01*
D02*
G37*
G36*
X160431Y132231D02*
X160550Y132218D01*
X160662Y132199D01*
X160774Y132174D01*
X160875Y132137D01*
X160962Y132106D01*
X161049Y132068D01*
X161124Y132030D01*
X161193Y131987D01*
X161256Y131949D01*
X161306Y131918D01*
X161349Y131887D01*
X161387Y131856D01*
X161412Y131837D01*
X161424Y131824D01*
X161431Y131818D01*
X161506Y131737D01*
X161574Y131656D01*
X161630Y131574D01*
X161687Y131487D01*
X161724Y131399D01*
X161762Y131318D01*
X161793Y131237D01*
X161812Y131162D01*
X161831Y131087D01*
X161843Y131025D01*
X161856Y130962D01*
X161862Y130912D01*
X161868Y130868D01*
Y130812D01*
X161862Y130687D01*
X161843Y130568D01*
X161818Y130462D01*
X161787Y130362D01*
X161756Y130281D01*
X161730Y130225D01*
X161718Y130200D01*
X161712Y130181D01*
X161705Y130175D01*
Y130169D01*
X161643Y130056D01*
X161562Y129956D01*
X161487Y129869D01*
X161406Y129794D01*
X161337Y129731D01*
X161281Y129687D01*
X161237Y129662D01*
X161231Y129650D01*
X161356D01*
X161481Y129656D01*
X161599Y129669D01*
X161705Y129681D01*
X161805Y129694D01*
X161893Y129706D01*
X161980Y129719D01*
X162055Y129731D01*
X162118Y129750D01*
X162174Y129762D01*
X162224Y129775D01*
X162268Y129787D01*
X162299Y129800D01*
X162318Y129806D01*
X162330Y129812D01*
X162337D01*
X162474Y129881D01*
X162593Y129950D01*
X162693Y130025D01*
X162774Y130093D01*
X162843Y130156D01*
X162886Y130206D01*
X162918Y130237D01*
X162924Y130250D01*
X162980Y130337D01*
X163018Y130418D01*
X163049Y130506D01*
X163068Y130581D01*
X163080Y130650D01*
X163086Y130700D01*
Y130750D01*
X163074Y130875D01*
X163049Y130993D01*
X163005Y131093D01*
X162961Y131181D01*
X162918Y131250D01*
X162874Y131299D01*
X162849Y131331D01*
X162836Y131343D01*
X162768Y131393D01*
X162693Y131437D01*
X162612Y131481D01*
X162530Y131512D01*
X162455Y131537D01*
X162393Y131556D01*
X162368Y131562D01*
X162349D01*
X162343Y131568D01*
X162337D01*
X162380Y132156D01*
X162480Y132137D01*
X162580Y132118D01*
X162749Y132056D01*
X162830Y132018D01*
X162899Y131987D01*
X162968Y131949D01*
X163024Y131912D01*
X163080Y131874D01*
X163124Y131837D01*
X163161Y131806D01*
X163199Y131774D01*
X163224Y131749D01*
X163243Y131737D01*
X163249Y131724D01*
X163255Y131718D01*
X163311Y131649D01*
X163361Y131574D01*
X163405Y131499D01*
X163442Y131418D01*
X163499Y131262D01*
X163536Y131118D01*
X163549Y131049D01*
X163555Y130987D01*
X163561Y130931D01*
X163568Y130881D01*
X163574Y130843D01*
Y130787D01*
X163568Y130650D01*
X163549Y130518D01*
X163524Y130393D01*
X163486Y130275D01*
X163442Y130169D01*
X163399Y130069D01*
X163349Y129975D01*
X163299Y129894D01*
X163243Y129825D01*
X163193Y129756D01*
X163149Y129700D01*
X163105Y129656D01*
X163068Y129619D01*
X163043Y129594D01*
X163024Y129581D01*
X163018Y129575D01*
X162893Y129487D01*
X162749Y129406D01*
X162599Y129338D01*
X162437Y129281D01*
X162268Y129231D01*
X162099Y129187D01*
X161930Y129156D01*
X161768Y129125D01*
X161612Y129106D01*
X161468Y129087D01*
X161337Y129081D01*
X161218Y129069D01*
X161124D01*
X161087Y129062D01*
X161056D01*
X161031D01*
X161012D01*
X160999D01*
X160993D01*
X160768Y129069D01*
X160562Y129081D01*
X160368Y129106D01*
X160187Y129137D01*
X160031Y129169D01*
X159881Y129206D01*
X159750Y129250D01*
X159631Y129294D01*
X159531Y129338D01*
X159444Y129381D01*
X159369Y129419D01*
X159312Y129450D01*
X159262Y129481D01*
X159231Y129506D01*
X159212Y129519D01*
X159206Y129525D01*
X159112Y129619D01*
X159031Y129712D01*
X158956Y129812D01*
X158894Y129912D01*
X158844Y130012D01*
X158800Y130112D01*
X158763Y130212D01*
X158737Y130306D01*
X158713Y130393D01*
X158700Y130475D01*
X158687Y130543D01*
X158675Y130606D01*
Y130662D01*
X158669Y130700D01*
Y130731D01*
X158675Y130887D01*
X158700Y131031D01*
X158731Y131162D01*
X158775Y131274D01*
X158813Y131368D01*
X158825Y131406D01*
X158844Y131443D01*
X158856Y131468D01*
X158869Y131487D01*
X158875Y131493D01*
Y131499D01*
X158962Y131624D01*
X159056Y131731D01*
X159156Y131818D01*
X159250Y131899D01*
X159337Y131955D01*
X159406Y131999D01*
X159431Y132018D01*
X159450Y132030D01*
X159462Y132037D01*
X159469D01*
X159619Y132106D01*
X159762Y132156D01*
X159906Y132187D01*
X160031Y132212D01*
X160143Y132224D01*
X160187Y132231D01*
X160231Y132237D01*
X160262D01*
X160287D01*
X160300D01*
X160306D01*
X160431Y132231D01*
D02*
G37*
G36*
X162293Y128513D02*
X162412Y128494D01*
X162524Y128469D01*
X162624Y128444D01*
X162705Y128419D01*
X162768Y128394D01*
X162787Y128382D01*
X162805Y128375D01*
X162812Y128369D01*
X162818D01*
X162924Y128313D01*
X163018Y128250D01*
X163099Y128181D01*
X163161Y128119D01*
X163211Y128069D01*
X163249Y128019D01*
X163274Y127994D01*
X163280Y127982D01*
X163336Y127888D01*
X163386Y127788D01*
X163424Y127694D01*
X163455Y127600D01*
X163480Y127519D01*
X163493Y127450D01*
X163499Y127425D01*
X163505Y127413D01*
Y127394D01*
X163524Y127294D01*
X163536Y127176D01*
X163542Y127051D01*
X163549Y126938D01*
X163555Y126832D01*
Y124857D01*
X158750D01*
Y125495D01*
X160700D01*
Y126719D01*
X160706Y126901D01*
X160718Y127069D01*
X160737Y127226D01*
X160768Y127369D01*
X160800Y127494D01*
X160837Y127613D01*
X160875Y127713D01*
X160912Y127807D01*
X160949Y127882D01*
X160993Y127950D01*
X161024Y128007D01*
X161056Y128050D01*
X161087Y128082D01*
X161106Y128106D01*
X161118Y128119D01*
X161124Y128125D01*
X161206Y128194D01*
X161293Y128257D01*
X161381Y128307D01*
X161468Y128350D01*
X161556Y128394D01*
X161637Y128425D01*
X161805Y128469D01*
X161874Y128488D01*
X161943Y128500D01*
X162005Y128506D01*
X162062Y128513D01*
X162105Y128519D01*
X162137D01*
X162155D01*
X162162D01*
X162293Y128513D01*
D02*
G37*
G36*
X163555Y120396D02*
X162986D01*
Y121977D01*
X158750D01*
Y122614D01*
X162986D01*
Y124195D01*
X163555D01*
Y120396D01*
D02*
G37*
G36*
X186339Y128370D02*
X186514Y128353D01*
X186681Y128328D01*
X186839Y128295D01*
X186989Y128253D01*
X187131Y128203D01*
X187256Y128162D01*
X187381Y128103D01*
X187481Y128053D01*
X187572Y128012D01*
X187656Y127962D01*
X187722Y127920D01*
X187780Y127887D01*
X187814Y127862D01*
X187839Y127845D01*
X187847Y127837D01*
X187972Y127729D01*
X188089Y127612D01*
X188197Y127487D01*
X188289Y127354D01*
X188380Y127220D01*
X188455Y127095D01*
X188530Y126962D01*
X188589Y126837D01*
X188647Y126712D01*
X188689Y126604D01*
X188730Y126504D01*
X188764Y126420D01*
X188780Y126346D01*
X188797Y126287D01*
X188813Y126254D01*
Y126245D01*
X187964Y126029D01*
X187922Y126179D01*
X187880Y126312D01*
X187831Y126437D01*
X187780Y126562D01*
X187722Y126670D01*
X187672Y126770D01*
X187614Y126862D01*
X187556Y126937D01*
X187505Y127012D01*
X187456Y127070D01*
X187406Y127129D01*
X187372Y127170D01*
X187339Y127204D01*
X187314Y127229D01*
X187297Y127237D01*
X187289Y127245D01*
X187197Y127320D01*
X187097Y127379D01*
X186997Y127437D01*
X186889Y127479D01*
X186689Y127554D01*
X186497Y127604D01*
X186414Y127620D01*
X186331Y127628D01*
X186264Y127637D01*
X186197Y127645D01*
X186148Y127654D01*
X186081D01*
X185864Y127637D01*
X185664Y127604D01*
X185481Y127562D01*
X185314Y127503D01*
X185181Y127445D01*
X185123Y127420D01*
X185081Y127404D01*
X185040Y127379D01*
X185014Y127370D01*
X184998Y127354D01*
X184989D01*
X184815Y127229D01*
X184665Y127087D01*
X184540Y126937D01*
X184431Y126787D01*
X184348Y126654D01*
X184323Y126595D01*
X184298Y126545D01*
X184273Y126504D01*
X184256Y126470D01*
X184248Y126454D01*
Y126446D01*
X184173Y126212D01*
X184115Y125962D01*
X184073Y125729D01*
X184048Y125504D01*
X184031Y125404D01*
Y125312D01*
X184023Y125229D01*
X184015Y125154D01*
Y125096D01*
Y125054D01*
Y125029D01*
Y125021D01*
X184023Y124788D01*
X184048Y124563D01*
X184081Y124354D01*
X184115Y124163D01*
X184131Y124088D01*
X184148Y124013D01*
X184165Y123946D01*
X184181Y123888D01*
X184198Y123846D01*
X184206Y123813D01*
X184215Y123796D01*
Y123788D01*
X184298Y123571D01*
X184406Y123388D01*
X184523Y123221D01*
X184640Y123088D01*
X184740Y122980D01*
X184823Y122905D01*
X184856Y122871D01*
X184881Y122855D01*
X184898Y122838D01*
X184906D01*
X185006Y122771D01*
X185106Y122721D01*
X185314Y122630D01*
X185523Y122563D01*
X185714Y122521D01*
X185806Y122513D01*
X185889Y122497D01*
X185964Y122488D01*
X186023D01*
X186073Y122480D01*
X186148D01*
X186381Y122497D01*
X186589Y122530D01*
X186772Y122580D01*
X186931Y122638D01*
X187056Y122705D01*
X187106Y122730D01*
X187147Y122755D01*
X187181Y122771D01*
X187206Y122788D01*
X187214Y122805D01*
X187222D01*
X187297Y122871D01*
X187372Y122938D01*
X187505Y123096D01*
X187614Y123263D01*
X187705Y123430D01*
X187780Y123580D01*
X187806Y123646D01*
X187831Y123705D01*
X187847Y123755D01*
X187864Y123788D01*
X187872Y123813D01*
Y123821D01*
X188705Y123621D01*
X188655Y123463D01*
X188589Y123305D01*
X188522Y123163D01*
X188447Y123030D01*
X188372Y122913D01*
X188297Y122796D01*
X188222Y122696D01*
X188147Y122605D01*
X188072Y122521D01*
X188005Y122446D01*
X187939Y122388D01*
X187889Y122338D01*
X187847Y122296D01*
X187806Y122271D01*
X187789Y122255D01*
X187780Y122247D01*
X187656Y122163D01*
X187522Y122080D01*
X187389Y122022D01*
X187256Y121963D01*
X187114Y121913D01*
X186981Y121872D01*
X186731Y121813D01*
X186614Y121797D01*
X186506Y121780D01*
X186406Y121772D01*
X186322Y121763D01*
X186256Y121755D01*
X186006D01*
X185856Y121772D01*
X185564Y121813D01*
X185298Y121880D01*
X185181Y121913D01*
X185065Y121947D01*
X184965Y121988D01*
X184873Y122022D01*
X184798Y122055D01*
X184731Y122088D01*
X184681Y122113D01*
X184640Y122130D01*
X184615Y122138D01*
X184606Y122147D01*
X184481Y122221D01*
X184356Y122305D01*
X184140Y122488D01*
X183948Y122671D01*
X183798Y122855D01*
X183731Y122946D01*
X183673Y123021D01*
X183623Y123096D01*
X183590Y123155D01*
X183557Y123205D01*
X183532Y123246D01*
X183523Y123271D01*
X183515Y123280D01*
X183448Y123421D01*
X183390Y123571D01*
X183298Y123863D01*
X183232Y124154D01*
X183207Y124296D01*
X183190Y124429D01*
X183173Y124554D01*
X183157Y124663D01*
X183148Y124763D01*
Y124854D01*
X183140Y124921D01*
Y124979D01*
Y125013D01*
Y125021D01*
X183157Y125354D01*
X183190Y125679D01*
X183215Y125821D01*
X183248Y125962D01*
X183273Y126096D01*
X183307Y126221D01*
X183340Y126337D01*
X183365Y126437D01*
X183398Y126520D01*
X183423Y126595D01*
X183440Y126654D01*
X183457Y126704D01*
X183473Y126729D01*
Y126737D01*
X183540Y126879D01*
X183615Y127020D01*
X183690Y127145D01*
X183773Y127262D01*
X183857Y127379D01*
X183940Y127479D01*
X184015Y127570D01*
X184098Y127645D01*
X184173Y127720D01*
X184240Y127787D01*
X184306Y127837D01*
X184356Y127878D01*
X184406Y127920D01*
X184440Y127945D01*
X184456Y127953D01*
X184465Y127962D01*
X184590Y128037D01*
X184723Y128095D01*
X184865Y128153D01*
X185006Y128203D01*
X185289Y128278D01*
X185556Y128328D01*
X185681Y128345D01*
X185789Y128353D01*
X185898Y128362D01*
X185981Y128370D01*
X186056Y128378D01*
X186156D01*
X186339Y128370D01*
D02*
G37*
G36*
X191929D02*
X192121Y128337D01*
X192296Y128295D01*
X192446Y128237D01*
X192571Y128187D01*
X192621Y128170D01*
X192671Y128145D01*
X192704Y128128D01*
X192729Y128112D01*
X192738Y128103D01*
X192746D01*
X192913Y127987D01*
X193054Y127862D01*
X193171Y127729D01*
X193279Y127604D01*
X193354Y127487D01*
X193412Y127395D01*
X193437Y127362D01*
X193454Y127337D01*
X193462Y127320D01*
Y127312D01*
X193554Y127112D01*
X193621Y126920D01*
X193662Y126729D01*
X193696Y126562D01*
X193712Y126412D01*
X193721Y126354D01*
X193729Y126295D01*
Y126254D01*
Y126221D01*
Y126204D01*
Y126195D01*
X193721Y126029D01*
X193704Y125871D01*
X193679Y125721D01*
X193646Y125571D01*
X193596Y125437D01*
X193554Y125321D01*
X193504Y125204D01*
X193454Y125104D01*
X193396Y125013D01*
X193346Y124929D01*
X193304Y124862D01*
X193262Y124804D01*
X193221Y124754D01*
X193196Y124721D01*
X193179Y124704D01*
X193171Y124696D01*
X193062Y124596D01*
X192954Y124504D01*
X192846Y124429D01*
X192729Y124354D01*
X192613Y124304D01*
X192504Y124254D01*
X192396Y124213D01*
X192296Y124188D01*
X192196Y124163D01*
X192113Y124146D01*
X192029Y124129D01*
X191963Y124121D01*
X191904Y124113D01*
X191829D01*
X191663Y124121D01*
X191504Y124146D01*
X191363Y124179D01*
X191230Y124221D01*
X191121Y124263D01*
X191046Y124296D01*
X191013Y124313D01*
X190988Y124321D01*
X190980Y124329D01*
X190971D01*
X190821Y124413D01*
X190688Y124521D01*
X190571Y124621D01*
X190471Y124729D01*
X190388Y124821D01*
X190330Y124896D01*
X190296Y124954D01*
X190280Y124963D01*
Y124796D01*
X190288Y124629D01*
X190305Y124471D01*
X190322Y124329D01*
X190338Y124196D01*
X190355Y124079D01*
X190371Y123963D01*
X190388Y123863D01*
X190413Y123779D01*
X190430Y123705D01*
X190446Y123638D01*
X190463Y123580D01*
X190480Y123538D01*
X190488Y123513D01*
X190496Y123496D01*
Y123488D01*
X190588Y123305D01*
X190680Y123146D01*
X190780Y123013D01*
X190871Y122905D01*
X190955Y122813D01*
X191021Y122755D01*
X191063Y122713D01*
X191080Y122705D01*
X191196Y122630D01*
X191305Y122580D01*
X191421Y122538D01*
X191521Y122513D01*
X191613Y122497D01*
X191679Y122488D01*
X191746D01*
X191913Y122505D01*
X192071Y122538D01*
X192204Y122597D01*
X192321Y122655D01*
X192413Y122713D01*
X192479Y122771D01*
X192521Y122805D01*
X192538Y122821D01*
X192604Y122913D01*
X192663Y123013D01*
X192721Y123121D01*
X192763Y123230D01*
X192796Y123330D01*
X192821Y123413D01*
X192829Y123446D01*
Y123471D01*
X192838Y123480D01*
Y123488D01*
X193621Y123430D01*
X193596Y123296D01*
X193571Y123163D01*
X193487Y122938D01*
X193437Y122830D01*
X193396Y122738D01*
X193346Y122646D01*
X193296Y122571D01*
X193246Y122497D01*
X193196Y122438D01*
X193154Y122388D01*
X193112Y122338D01*
X193079Y122305D01*
X193062Y122280D01*
X193046Y122271D01*
X193037Y122263D01*
X192946Y122188D01*
X192846Y122122D01*
X192746Y122063D01*
X192638Y122013D01*
X192429Y121938D01*
X192238Y121888D01*
X192146Y121872D01*
X192063Y121863D01*
X191988Y121855D01*
X191921Y121847D01*
X191871Y121838D01*
X191796D01*
X191613Y121847D01*
X191438Y121872D01*
X191271Y121905D01*
X191113Y121955D01*
X190971Y122013D01*
X190838Y122072D01*
X190713Y122138D01*
X190605Y122205D01*
X190513Y122280D01*
X190422Y122346D01*
X190347Y122405D01*
X190288Y122463D01*
X190238Y122513D01*
X190205Y122547D01*
X190188Y122571D01*
X190180Y122580D01*
X190063Y122746D01*
X189955Y122938D01*
X189863Y123138D01*
X189788Y123355D01*
X189722Y123580D01*
X189663Y123805D01*
X189622Y124029D01*
X189580Y124246D01*
X189555Y124454D01*
X189530Y124646D01*
X189522Y124821D01*
X189505Y124979D01*
Y125104D01*
X189497Y125154D01*
Y125196D01*
Y125229D01*
Y125254D01*
Y125271D01*
Y125279D01*
X189505Y125579D01*
X189522Y125854D01*
X189555Y126112D01*
X189597Y126354D01*
X189638Y126562D01*
X189688Y126762D01*
X189747Y126937D01*
X189805Y127095D01*
X189863Y127229D01*
X189922Y127345D01*
X189972Y127445D01*
X190013Y127520D01*
X190055Y127587D01*
X190088Y127628D01*
X190105Y127654D01*
X190113Y127662D01*
X190238Y127787D01*
X190363Y127895D01*
X190496Y127995D01*
X190630Y128078D01*
X190763Y128145D01*
X190896Y128203D01*
X191030Y128253D01*
X191155Y128287D01*
X191271Y128320D01*
X191380Y128337D01*
X191471Y128353D01*
X191555Y128370D01*
X191630D01*
X191679Y128378D01*
X191721D01*
X191929Y128370D01*
D02*
G37*
G36*
X169842Y143355D02*
X169274D01*
Y145705D01*
X169074Y145542D01*
X168862Y145380D01*
X168649Y145236D01*
X168449Y145111D01*
X168362Y145055D01*
X168274Y145005D01*
X168199Y144961D01*
X168137Y144924D01*
X168087Y144892D01*
X168043Y144874D01*
X168018Y144861D01*
X168012Y144855D01*
X167731Y144717D01*
X167456Y144592D01*
X167193Y144493D01*
X167075Y144443D01*
X166956Y144405D01*
X166850Y144368D01*
X166756Y144336D01*
X166675Y144311D01*
X166600Y144286D01*
X166543Y144274D01*
X166500Y144261D01*
X166475Y144249D01*
X166462D01*
X166312Y144211D01*
X166175Y144180D01*
X166037Y144149D01*
X165912Y144124D01*
X165794Y144105D01*
X165681Y144086D01*
X165575Y144074D01*
X165481Y144061D01*
X165394Y144049D01*
X165319Y144043D01*
X165256Y144036D01*
X165200D01*
X165156Y144030D01*
X165125D01*
X165106D01*
X165100D01*
Y144636D01*
X165362Y144661D01*
X165606Y144692D01*
X165719Y144705D01*
X165831Y144724D01*
X165931Y144749D01*
X166025Y144767D01*
X166112Y144786D01*
X166187Y144799D01*
X166256Y144817D01*
X166312Y144830D01*
X166356Y144842D01*
X166393Y144855D01*
X166412Y144861D01*
X166418D01*
X166737Y144961D01*
X167037Y145074D01*
X167181Y145130D01*
X167318Y145186D01*
X167449Y145242D01*
X167568Y145299D01*
X167681Y145349D01*
X167781Y145399D01*
X167868Y145436D01*
X167943Y145473D01*
X167999Y145505D01*
X168043Y145530D01*
X168074Y145542D01*
X168081Y145548D01*
X168230Y145636D01*
X168368Y145717D01*
X168505Y145798D01*
X168624Y145880D01*
X168743Y145961D01*
X168849Y146036D01*
X168949Y146105D01*
X169037Y146173D01*
X169111Y146236D01*
X169180Y146292D01*
X169243Y146342D01*
X169293Y146379D01*
X169330Y146417D01*
X169355Y146442D01*
X169374Y146454D01*
X169380Y146461D01*
X169842D01*
Y143355D01*
D02*
G37*
G36*
X168643Y142737D02*
X168762Y142718D01*
X168874Y142693D01*
X168974Y142668D01*
X169055Y142643D01*
X169118Y142618D01*
X169137Y142605D01*
X169155Y142599D01*
X169161Y142593D01*
X169168D01*
X169274Y142537D01*
X169368Y142474D01*
X169449Y142406D01*
X169511Y142343D01*
X169561Y142293D01*
X169599Y142243D01*
X169624Y142218D01*
X169630Y142206D01*
X169686Y142112D01*
X169736Y142012D01*
X169774Y141918D01*
X169805Y141824D01*
X169830Y141743D01*
X169842Y141674D01*
X169849Y141649D01*
X169855Y141637D01*
Y141618D01*
X169874Y141518D01*
X169886Y141399D01*
X169893Y141274D01*
X169899Y141162D01*
X169905Y141056D01*
Y139081D01*
X165100D01*
Y139719D01*
X167050D01*
Y140943D01*
X167056Y141125D01*
X167068Y141293D01*
X167087Y141449D01*
X167118Y141593D01*
X167150Y141718D01*
X167187Y141837D01*
X167225Y141937D01*
X167262Y142031D01*
X167299Y142106D01*
X167343Y142174D01*
X167374Y142231D01*
X167406Y142274D01*
X167437Y142305D01*
X167456Y142331D01*
X167468Y142343D01*
X167474Y142349D01*
X167556Y142418D01*
X167643Y142480D01*
X167731Y142530D01*
X167818Y142574D01*
X167906Y142618D01*
X167987Y142649D01*
X168155Y142693D01*
X168224Y142712D01*
X168293Y142724D01*
X168355Y142730D01*
X168412Y142737D01*
X168455Y142743D01*
X168487D01*
X168505D01*
X168512D01*
X168643Y142737D01*
D02*
G37*
G36*
X169905Y134620D02*
X169336D01*
Y136201D01*
X165100D01*
Y136838D01*
X169336D01*
Y138419D01*
X169905D01*
Y134620D01*
D02*
G37*
G36*
X139786Y154674D02*
X139230Y154593D01*
X139180Y154668D01*
X139124Y154731D01*
X139061Y154793D01*
X139005Y154837D01*
X138955Y154881D01*
X138918Y154906D01*
X138892Y154924D01*
X138880Y154931D01*
X138792Y154974D01*
X138699Y155012D01*
X138611Y155037D01*
X138536Y155049D01*
X138461Y155062D01*
X138411Y155068D01*
X138274D01*
X138199Y155056D01*
X138049Y155024D01*
X137924Y154974D01*
X137818Y154924D01*
X137730Y154868D01*
X137668Y154818D01*
X137649Y154799D01*
X137630Y154787D01*
X137618Y154781D01*
Y154774D01*
X137568Y154718D01*
X137524Y154656D01*
X137455Y154524D01*
X137405Y154393D01*
X137374Y154262D01*
X137349Y154150D01*
X137343Y154100D01*
Y154056D01*
X137337Y154025D01*
Y154000D01*
Y153981D01*
Y153975D01*
Y153875D01*
X137349Y153787D01*
X137380Y153618D01*
X137430Y153475D01*
X137480Y153350D01*
X137512Y153300D01*
X137537Y153256D01*
X137562Y153212D01*
X137587Y153181D01*
X137605Y153156D01*
X137618Y153137D01*
X137624Y153131D01*
X137630Y153125D01*
X137687Y153069D01*
X137743Y153019D01*
X137805Y152975D01*
X137868Y152944D01*
X137986Y152881D01*
X138105Y152844D01*
X138205Y152825D01*
X138249Y152819D01*
X138280Y152812D01*
X138311Y152806D01*
X138355D01*
X138486Y152819D01*
X138599Y152844D01*
X138705Y152875D01*
X138792Y152919D01*
X138861Y152956D01*
X138918Y152994D01*
X138949Y153019D01*
X138961Y153025D01*
X139042Y153119D01*
X139111Y153225D01*
X139167Y153337D01*
X139211Y153450D01*
X139236Y153544D01*
X139249Y153587D01*
X139261Y153625D01*
X139267Y153656D01*
Y153681D01*
X139274Y153693D01*
Y153700D01*
X139892Y153656D01*
X139880Y153544D01*
X139855Y153437D01*
X139830Y153343D01*
X139792Y153250D01*
X139761Y153162D01*
X139717Y153081D01*
X139680Y153006D01*
X139636Y152944D01*
X139599Y152881D01*
X139555Y152831D01*
X139524Y152787D01*
X139486Y152750D01*
X139461Y152719D01*
X139442Y152700D01*
X139430Y152687D01*
X139424Y152681D01*
X139342Y152619D01*
X139261Y152563D01*
X139174Y152513D01*
X139080Y152475D01*
X138993Y152437D01*
X138905Y152406D01*
X138736Y152362D01*
X138655Y152350D01*
X138586Y152338D01*
X138518Y152331D01*
X138461Y152325D01*
X138418Y152319D01*
X138355D01*
X138211Y152325D01*
X138074Y152344D01*
X137943Y152375D01*
X137818Y152413D01*
X137705Y152456D01*
X137605Y152500D01*
X137512Y152556D01*
X137424Y152612D01*
X137349Y152662D01*
X137280Y152719D01*
X137224Y152762D01*
X137180Y152812D01*
X137143Y152844D01*
X137112Y152875D01*
X137099Y152894D01*
X137093Y152900D01*
X137024Y152994D01*
X136968Y153087D01*
X136918Y153181D01*
X136874Y153275D01*
X136837Y153369D01*
X136805Y153462D01*
X136762Y153643D01*
X136743Y153718D01*
X136730Y153793D01*
X136724Y153862D01*
X136718Y153918D01*
X136712Y153962D01*
Y153993D01*
Y154018D01*
Y154025D01*
X136718Y154150D01*
X136730Y154268D01*
X136749Y154381D01*
X136781Y154493D01*
X136812Y154593D01*
X136849Y154681D01*
X136887Y154768D01*
X136931Y154843D01*
X136968Y154912D01*
X137012Y154974D01*
X137049Y155024D01*
X137080Y155068D01*
X137112Y155106D01*
X137130Y155131D01*
X137143Y155143D01*
X137149Y155149D01*
X137230Y155224D01*
X137318Y155293D01*
X137405Y155349D01*
X137493Y155406D01*
X137587Y155443D01*
X137674Y155480D01*
X137755Y155512D01*
X137837Y155530D01*
X137918Y155549D01*
X137986Y155562D01*
X138049Y155574D01*
X138099Y155580D01*
X138143Y155587D01*
X138205D01*
X138293Y155580D01*
X138380Y155574D01*
X138549Y155537D01*
X138699Y155493D01*
X138836Y155437D01*
X138899Y155406D01*
X138949Y155380D01*
X138999Y155349D01*
X139036Y155330D01*
X139067Y155312D01*
X139092Y155293D01*
X139105Y155287D01*
X139111Y155281D01*
X138855Y156580D01*
X136937D01*
Y157142D01*
X139324D01*
X139786Y154674D01*
D02*
G37*
G36*
X148590Y156636D02*
X147009D01*
Y152400D01*
X146372D01*
Y156636D01*
X144791D01*
Y157205D01*
X148590D01*
Y156636D01*
D02*
G37*
G36*
X144129Y152400D02*
X143491D01*
Y154349D01*
X142267D01*
X142085Y154356D01*
X141917Y154368D01*
X141761Y154387D01*
X141617Y154418D01*
X141492Y154450D01*
X141373Y154487D01*
X141273Y154524D01*
X141179Y154562D01*
X141104Y154599D01*
X141036Y154643D01*
X140979Y154674D01*
X140936Y154706D01*
X140905Y154737D01*
X140879Y154756D01*
X140867Y154768D01*
X140861Y154774D01*
X140792Y154856D01*
X140730Y154943D01*
X140680Y155031D01*
X140636Y155118D01*
X140592Y155205D01*
X140561Y155287D01*
X140517Y155456D01*
X140498Y155524D01*
X140486Y155593D01*
X140480Y155655D01*
X140473Y155712D01*
X140467Y155755D01*
Y155787D01*
Y155805D01*
Y155812D01*
X140473Y155943D01*
X140492Y156062D01*
X140517Y156174D01*
X140542Y156274D01*
X140567Y156355D01*
X140592Y156418D01*
X140604Y156437D01*
X140611Y156455D01*
X140617Y156461D01*
Y156468D01*
X140673Y156574D01*
X140736Y156668D01*
X140805Y156749D01*
X140867Y156811D01*
X140917Y156861D01*
X140967Y156899D01*
X140992Y156924D01*
X141004Y156930D01*
X141098Y156986D01*
X141198Y157036D01*
X141292Y157074D01*
X141386Y157105D01*
X141467Y157130D01*
X141536Y157142D01*
X141560Y157149D01*
X141573Y157155D01*
X141592D01*
X141692Y157174D01*
X141811Y157186D01*
X141936Y157192D01*
X142048Y157199D01*
X142154Y157205D01*
X144129D01*
Y152400D01*
D02*
G37*
G36*
X165100Y156636D02*
X163519D01*
Y152400D01*
X162882D01*
Y156636D01*
X161301D01*
Y157205D01*
X165100D01*
Y156636D01*
D02*
G37*
G36*
X160639Y152400D02*
X160001D01*
Y154349D01*
X158777D01*
X158595Y154356D01*
X158427Y154368D01*
X158271Y154387D01*
X158127Y154418D01*
X158002Y154450D01*
X157883Y154487D01*
X157783Y154524D01*
X157689Y154562D01*
X157614Y154599D01*
X157546Y154643D01*
X157489Y154674D01*
X157446Y154706D01*
X157415Y154737D01*
X157389Y154756D01*
X157377Y154768D01*
X157371Y154774D01*
X157302Y154856D01*
X157240Y154943D01*
X157190Y155031D01*
X157146Y155118D01*
X157102Y155205D01*
X157071Y155287D01*
X157027Y155456D01*
X157008Y155524D01*
X156996Y155593D01*
X156990Y155655D01*
X156983Y155712D01*
X156977Y155755D01*
Y155787D01*
Y155805D01*
Y155812D01*
X156983Y155943D01*
X157002Y156062D01*
X157027Y156174D01*
X157052Y156274D01*
X157077Y156355D01*
X157102Y156418D01*
X157114Y156437D01*
X157121Y156455D01*
X157127Y156461D01*
Y156468D01*
X157183Y156574D01*
X157246Y156668D01*
X157315Y156749D01*
X157377Y156811D01*
X157427Y156861D01*
X157477Y156899D01*
X157502Y156924D01*
X157514Y156930D01*
X157608Y156986D01*
X157708Y157036D01*
X157802Y157074D01*
X157896Y157105D01*
X157977Y157130D01*
X158046Y157142D01*
X158070Y157149D01*
X158083Y157155D01*
X158102D01*
X158202Y157174D01*
X158321Y157186D01*
X158446Y157192D01*
X158558Y157199D01*
X158664Y157205D01*
X160639D01*
Y152400D01*
D02*
G37*
G36*
X156602Y154093D02*
Y153550D01*
X154515D01*
Y152400D01*
X153928D01*
Y153550D01*
X153278D01*
Y154093D01*
X153928D01*
Y157205D01*
X154409D01*
X156602Y154093D01*
D02*
G37*
G36*
X220724Y170475D02*
X220605Y170406D01*
X220493Y170325D01*
X220380Y170238D01*
X220286Y170156D01*
X220199Y170075D01*
X220136Y170013D01*
X220111Y169988D01*
X220093Y169969D01*
X220086Y169956D01*
X220080Y169950D01*
X219961Y169806D01*
X219855Y169663D01*
X219755Y169513D01*
X219674Y169382D01*
X219611Y169263D01*
X219580Y169213D01*
X219562Y169169D01*
X219543Y169138D01*
X219530Y169113D01*
X219518Y169094D01*
Y169088D01*
X218943D01*
X218987Y169194D01*
X219037Y169300D01*
X219087Y169407D01*
X219137Y169500D01*
X219180Y169582D01*
X219218Y169650D01*
X219230Y169675D01*
X219243Y169694D01*
X219249Y169700D01*
Y169706D01*
X219324Y169832D01*
X219399Y169938D01*
X219468Y170038D01*
X219530Y170119D01*
X219580Y170181D01*
X219624Y170231D01*
X219649Y170256D01*
X219655Y170269D01*
X215900D01*
Y170856D01*
X220724D01*
Y170475D01*
D02*
G37*
G36*
Y166745D02*
X220605Y166676D01*
X220493Y166595D01*
X220380Y166507D01*
X220286Y166426D01*
X220199Y166345D01*
X220136Y166282D01*
X220111Y166257D01*
X220093Y166239D01*
X220086Y166226D01*
X220080Y166220D01*
X219961Y166076D01*
X219855Y165933D01*
X219755Y165783D01*
X219674Y165651D01*
X219611Y165533D01*
X219580Y165483D01*
X219562Y165439D01*
X219543Y165408D01*
X219530Y165383D01*
X219518Y165364D01*
Y165358D01*
X218943D01*
X218987Y165464D01*
X219037Y165570D01*
X219087Y165676D01*
X219137Y165770D01*
X219180Y165851D01*
X219218Y165920D01*
X219230Y165945D01*
X219243Y165964D01*
X219249Y165970D01*
Y165976D01*
X219324Y166101D01*
X219399Y166207D01*
X219468Y166307D01*
X219530Y166389D01*
X219580Y166451D01*
X219624Y166501D01*
X219649Y166526D01*
X219655Y166539D01*
X215900D01*
Y167126D01*
X220724D01*
Y166745D01*
D02*
G37*
G36*
X219443Y164327D02*
X219562Y164308D01*
X219674Y164283D01*
X219774Y164258D01*
X219855Y164233D01*
X219918Y164208D01*
X219937Y164195D01*
X219955Y164189D01*
X219961Y164183D01*
X219968D01*
X220074Y164127D01*
X220168Y164064D01*
X220249Y163995D01*
X220311Y163933D01*
X220361Y163883D01*
X220399Y163833D01*
X220424Y163808D01*
X220430Y163796D01*
X220486Y163702D01*
X220536Y163602D01*
X220574Y163508D01*
X220605Y163414D01*
X220630Y163333D01*
X220643Y163264D01*
X220649Y163239D01*
X220655Y163227D01*
Y163208D01*
X220674Y163108D01*
X220686Y162990D01*
X220693Y162864D01*
X220699Y162752D01*
X220705Y162646D01*
Y160671D01*
X215900D01*
Y161309D01*
X217850D01*
Y162533D01*
X217856Y162715D01*
X217868Y162883D01*
X217887Y163039D01*
X217918Y163183D01*
X217950Y163308D01*
X217987Y163427D01*
X218025Y163527D01*
X218062Y163621D01*
X218099Y163696D01*
X218143Y163764D01*
X218174Y163821D01*
X218206Y163864D01*
X218237Y163895D01*
X218256Y163920D01*
X218268Y163933D01*
X218274Y163939D01*
X218356Y164008D01*
X218443Y164070D01*
X218531Y164121D01*
X218618Y164164D01*
X218706Y164208D01*
X218787Y164239D01*
X218955Y164283D01*
X219024Y164302D01*
X219093Y164314D01*
X219155Y164320D01*
X219212Y164327D01*
X219255Y164333D01*
X219287D01*
X219305D01*
X219312D01*
X219443Y164327D01*
D02*
G37*
G36*
X220705Y156210D02*
X220136D01*
Y157791D01*
X215900D01*
Y158428D01*
X220136D01*
Y160009D01*
X220705D01*
Y156210D01*
D02*
G37*
G36*
X149403Y47155D02*
X149568Y46926D01*
X149746Y46698D01*
X149911Y46507D01*
X150076Y46330D01*
X150203Y46203D01*
X150254Y46152D01*
X150292Y46114D01*
X150317Y46101D01*
X150330Y46088D01*
X150622Y45847D01*
X150914Y45631D01*
X151219Y45428D01*
X151486Y45263D01*
X151727Y45136D01*
X151828Y45072D01*
X151917Y45034D01*
X151981Y44996D01*
X152032Y44971D01*
X152070Y44945D01*
X152083D01*
Y43777D01*
X151867Y43866D01*
X151651Y43967D01*
X151435Y44069D01*
X151244Y44171D01*
X151079Y44260D01*
X150940Y44336D01*
X150889Y44361D01*
X150851Y44387D01*
X150838Y44399D01*
X150825D01*
X150571Y44552D01*
X150355Y44704D01*
X150152Y44844D01*
X149987Y44971D01*
X149860Y45072D01*
X149758Y45161D01*
X149708Y45212D01*
X149682Y45225D01*
Y37592D01*
X148488D01*
Y47396D01*
X149263D01*
X149403Y47155D01*
D02*
G37*
G36*
X155918Y40627D02*
Y40335D01*
X155943Y40081D01*
X155956Y39878D01*
X155981Y39700D01*
X156007Y39573D01*
X156032Y39484D01*
X156045Y39421D01*
X156058Y39408D01*
X156108Y39268D01*
X156185Y39154D01*
X156261Y39053D01*
X156350Y38964D01*
X156426Y38887D01*
X156477Y38837D01*
X156528Y38811D01*
X156540Y38798D01*
X156680Y38722D01*
X156820Y38672D01*
X156959Y38633D01*
X157086Y38608D01*
X157201Y38595D01*
X157302Y38583D01*
X157378D01*
X157607Y38595D01*
X157823Y38646D01*
X158001Y38710D01*
X158140Y38786D01*
X158267Y38862D01*
X158344Y38925D01*
X158407Y38976D01*
X158420Y38989D01*
X158483Y39078D01*
X158547Y39167D01*
X158636Y39395D01*
X158712Y39649D01*
X158763Y39903D01*
X158788Y40145D01*
X158801Y40246D01*
X158813Y40335D01*
X158826Y40411D01*
Y40462D01*
Y40500D01*
Y40513D01*
X159995Y40348D01*
Y40081D01*
X159982Y39840D01*
X159944Y39611D01*
X159906Y39395D01*
X159855Y39205D01*
X159804Y39027D01*
X159741Y38862D01*
X159690Y38710D01*
X159626Y38583D01*
X159563Y38468D01*
X159499Y38379D01*
X159448Y38303D01*
X159410Y38240D01*
X159372Y38202D01*
X159360Y38176D01*
X159347Y38163D01*
X159207Y38036D01*
X159067Y37922D01*
X158915Y37821D01*
X158750Y37744D01*
X158585Y37668D01*
X158420Y37605D01*
X158102Y37516D01*
X157963Y37490D01*
X157823Y37465D01*
X157696Y37452D01*
X157594Y37440D01*
X157505Y37427D01*
X157378D01*
X157061Y37440D01*
X156769Y37478D01*
X156515Y37541D01*
X156299Y37605D01*
X156108Y37655D01*
X155981Y37719D01*
X155931Y37744D01*
X155892Y37757D01*
X155880Y37770D01*
X155867D01*
X155639Y37922D01*
X155448Y38087D01*
X155283Y38252D01*
X155156Y38417D01*
X155054Y38570D01*
X154978Y38684D01*
X154953Y38735D01*
X154940Y38773D01*
X154927Y38786D01*
Y38798D01*
X154876Y38925D01*
X154826Y39078D01*
X154749Y39383D01*
X154699Y39700D01*
X154661Y40005D01*
X154648Y40145D01*
X154635Y40284D01*
Y40399D01*
X154622Y40500D01*
Y40589D01*
Y40653D01*
Y40691D01*
Y40704D01*
Y47358D01*
X155918D01*
Y40627D01*
D02*
G37*
G36*
X203586Y136263D02*
X203911Y136230D01*
X204053Y136205D01*
X204194Y136172D01*
X204328Y136147D01*
X204452Y136113D01*
X204569Y136080D01*
X204669Y136055D01*
X204752Y136022D01*
X204827Y135997D01*
X204886Y135980D01*
X204936Y135963D01*
X204961Y135947D01*
X204969D01*
X205111Y135880D01*
X205252Y135805D01*
X205377Y135730D01*
X205494Y135647D01*
X205611Y135564D01*
X205711Y135480D01*
X205802Y135405D01*
X205877Y135322D01*
X205952Y135247D01*
X206019Y135180D01*
X206069Y135114D01*
X206110Y135064D01*
X206152Y135014D01*
X206177Y134980D01*
X206185Y134964D01*
X206194Y134955D01*
X206269Y134830D01*
X206327Y134697D01*
X206385Y134556D01*
X206435Y134414D01*
X206510Y134131D01*
X206560Y133864D01*
X206577Y133739D01*
X206585Y133631D01*
X206594Y133522D01*
X206602Y133439D01*
X206610Y133364D01*
Y133264D01*
X206602Y133081D01*
X206585Y132906D01*
X206560Y132739D01*
X206527Y132581D01*
X206485Y132431D01*
X206435Y132289D01*
X206394Y132164D01*
X206335Y132039D01*
X206285Y131939D01*
X206244Y131848D01*
X206194Y131764D01*
X206152Y131698D01*
X206119Y131640D01*
X206094Y131606D01*
X206077Y131581D01*
X206069Y131573D01*
X205961Y131448D01*
X205844Y131331D01*
X205719Y131223D01*
X205586Y131131D01*
X205452Y131040D01*
X205327Y130965D01*
X205194Y130890D01*
X205069Y130831D01*
X204944Y130773D01*
X204836Y130731D01*
X204736Y130690D01*
X204653Y130656D01*
X204578Y130640D01*
X204519Y130623D01*
X204486Y130606D01*
X204478D01*
X204261Y131456D01*
X204411Y131498D01*
X204544Y131540D01*
X204669Y131590D01*
X204794Y131640D01*
X204902Y131698D01*
X205002Y131748D01*
X205094Y131806D01*
X205169Y131865D01*
X205244Y131915D01*
X205302Y131965D01*
X205361Y132015D01*
X205402Y132048D01*
X205436Y132081D01*
X205461Y132106D01*
X205469Y132123D01*
X205477Y132131D01*
X205552Y132223D01*
X205611Y132323D01*
X205669Y132423D01*
X205711Y132531D01*
X205786Y132731D01*
X205835Y132923D01*
X205852Y133006D01*
X205861Y133089D01*
X205869Y133156D01*
X205877Y133223D01*
X205886Y133272D01*
Y133339D01*
X205869Y133556D01*
X205835Y133756D01*
X205794Y133939D01*
X205735Y134106D01*
X205677Y134239D01*
X205652Y134297D01*
X205636Y134339D01*
X205611Y134381D01*
X205602Y134405D01*
X205586Y134422D01*
Y134431D01*
X205461Y134606D01*
X205319Y134755D01*
X205169Y134880D01*
X205019Y134989D01*
X204886Y135072D01*
X204827Y135097D01*
X204777Y135122D01*
X204736Y135147D01*
X204702Y135164D01*
X204686Y135172D01*
X204678D01*
X204444Y135247D01*
X204194Y135305D01*
X203961Y135347D01*
X203736Y135372D01*
X203636Y135389D01*
X203544D01*
X203461Y135397D01*
X203386Y135405D01*
X203328D01*
X203286D01*
X203261D01*
X203253D01*
X203020Y135397D01*
X202795Y135372D01*
X202586Y135339D01*
X202395Y135305D01*
X202320Y135289D01*
X202245Y135272D01*
X202178Y135255D01*
X202120Y135239D01*
X202078Y135222D01*
X202045Y135214D01*
X202028Y135205D01*
X202020D01*
X201803Y135122D01*
X201620Y135014D01*
X201453Y134897D01*
X201320Y134780D01*
X201212Y134681D01*
X201137Y134597D01*
X201103Y134564D01*
X201087Y134539D01*
X201070Y134522D01*
Y134514D01*
X201003Y134414D01*
X200953Y134314D01*
X200862Y134106D01*
X200795Y133897D01*
X200753Y133706D01*
X200745Y133614D01*
X200728Y133531D01*
X200720Y133456D01*
Y133397D01*
X200712Y133348D01*
Y133272D01*
X200728Y133039D01*
X200762Y132831D01*
X200812Y132648D01*
X200870Y132489D01*
X200937Y132364D01*
X200962Y132314D01*
X200987Y132273D01*
X201003Y132239D01*
X201020Y132214D01*
X201037Y132206D01*
Y132198D01*
X201103Y132123D01*
X201170Y132048D01*
X201328Y131915D01*
X201495Y131806D01*
X201662Y131714D01*
X201812Y131640D01*
X201878Y131615D01*
X201936Y131590D01*
X201987Y131573D01*
X202020Y131556D01*
X202045Y131548D01*
X202053D01*
X201853Y130715D01*
X201695Y130765D01*
X201537Y130831D01*
X201395Y130898D01*
X201262Y130973D01*
X201145Y131048D01*
X201028Y131123D01*
X200928Y131198D01*
X200837Y131273D01*
X200753Y131348D01*
X200679Y131415D01*
X200620Y131481D01*
X200570Y131531D01*
X200529Y131573D01*
X200504Y131615D01*
X200487Y131631D01*
X200478Y131640D01*
X200395Y131764D01*
X200312Y131898D01*
X200254Y132031D01*
X200195Y132164D01*
X200145Y132306D01*
X200104Y132439D01*
X200045Y132689D01*
X200029Y132806D01*
X200012Y132914D01*
X200004Y133014D01*
X199995Y133097D01*
X199987Y133164D01*
Y133414D01*
X200004Y133564D01*
X200045Y133856D01*
X200112Y134122D01*
X200145Y134239D01*
X200179Y134355D01*
X200220Y134455D01*
X200254Y134547D01*
X200287Y134622D01*
X200320Y134689D01*
X200345Y134739D01*
X200362Y134780D01*
X200370Y134805D01*
X200379Y134814D01*
X200453Y134939D01*
X200537Y135064D01*
X200720Y135280D01*
X200903Y135472D01*
X201087Y135622D01*
X201178Y135688D01*
X201253Y135747D01*
X201328Y135797D01*
X201387Y135830D01*
X201437Y135864D01*
X201478Y135889D01*
X201503Y135897D01*
X201512Y135905D01*
X201653Y135972D01*
X201803Y136030D01*
X202095Y136122D01*
X202386Y136188D01*
X202528Y136213D01*
X202661Y136230D01*
X202786Y136247D01*
X202895Y136263D01*
X202995Y136272D01*
X203086D01*
X203153Y136280D01*
X203211D01*
X203244D01*
X203253D01*
X203586Y136263D01*
D02*
G37*
G36*
X204977Y129865D02*
X205119Y129832D01*
X205244Y129798D01*
X205369Y129748D01*
X205486Y129707D01*
X205594Y129648D01*
X205694Y129598D01*
X205777Y129540D01*
X205861Y129490D01*
X205927Y129432D01*
X205986Y129390D01*
X206035Y129340D01*
X206077Y129307D01*
X206102Y129282D01*
X206119Y129265D01*
X206127Y129257D01*
X206210Y129149D01*
X206285Y129040D01*
X206352Y128924D01*
X206402Y128799D01*
X206452Y128682D01*
X206494Y128565D01*
X206552Y128340D01*
X206569Y128232D01*
X206585Y128140D01*
X206594Y128049D01*
X206602Y127974D01*
X206610Y127915D01*
Y127832D01*
X206602Y127641D01*
X206577Y127457D01*
X206535Y127282D01*
X206485Y127116D01*
X206427Y126966D01*
X206369Y126833D01*
X206294Y126707D01*
X206219Y126591D01*
X206152Y126491D01*
X206077Y126399D01*
X206019Y126324D01*
X205952Y126266D01*
X205910Y126216D01*
X205869Y126174D01*
X205844Y126158D01*
X205835Y126149D01*
X205711Y126058D01*
X205586Y125983D01*
X205461Y125916D01*
X205336Y125858D01*
X205211Y125808D01*
X205086Y125766D01*
X204844Y125708D01*
X204744Y125683D01*
X204644Y125666D01*
X204552Y125658D01*
X204478Y125649D01*
X204419Y125641D01*
X204377D01*
X204344D01*
X204336D01*
X204169Y125649D01*
X204011Y125666D01*
X203861Y125691D01*
X203711Y125733D01*
X203578Y125774D01*
X203461Y125824D01*
X203344Y125874D01*
X203244Y125933D01*
X203153Y125983D01*
X203069Y126041D01*
X203003Y126091D01*
X202945Y126133D01*
X202895Y126174D01*
X202861Y126199D01*
X202845Y126216D01*
X202836Y126224D01*
X202736Y126333D01*
X202645Y126449D01*
X202570Y126566D01*
X202495Y126683D01*
X202445Y126807D01*
X202395Y126924D01*
X202353Y127032D01*
X202328Y127141D01*
X202303Y127249D01*
X202286Y127341D01*
X202270Y127424D01*
X202261Y127491D01*
X202253Y127549D01*
Y127632D01*
X202261Y127749D01*
X202270Y127865D01*
X202320Y128090D01*
X202378Y128290D01*
X202453Y128474D01*
X202495Y128557D01*
X202528Y128624D01*
X202570Y128690D01*
X202595Y128740D01*
X202620Y128782D01*
X202645Y128815D01*
X202653Y128832D01*
X202661Y128840D01*
X200928Y128499D01*
Y125941D01*
X200179D01*
Y129123D01*
X203469Y129740D01*
X203578Y128999D01*
X203478Y128932D01*
X203395Y128857D01*
X203311Y128774D01*
X203253Y128699D01*
X203195Y128632D01*
X203161Y128582D01*
X203136Y128549D01*
X203128Y128532D01*
X203069Y128415D01*
X203020Y128290D01*
X202986Y128174D01*
X202970Y128074D01*
X202953Y127974D01*
X202945Y127907D01*
Y127724D01*
X202961Y127624D01*
X203003Y127424D01*
X203069Y127257D01*
X203136Y127116D01*
X203211Y126999D01*
X203278Y126916D01*
X203303Y126891D01*
X203319Y126866D01*
X203328Y126849D01*
X203336D01*
X203411Y126783D01*
X203494Y126724D01*
X203669Y126632D01*
X203844Y126566D01*
X204019Y126524D01*
X204169Y126491D01*
X204236Y126483D01*
X204294D01*
X204336Y126474D01*
X204369D01*
X204394D01*
X204403D01*
X204536D01*
X204653Y126491D01*
X204877Y126532D01*
X205069Y126599D01*
X205236Y126666D01*
X205302Y126707D01*
X205361Y126741D01*
X205419Y126774D01*
X205461Y126807D01*
X205494Y126833D01*
X205519Y126849D01*
X205527Y126858D01*
X205536Y126866D01*
X205611Y126941D01*
X205677Y127016D01*
X205735Y127099D01*
X205777Y127182D01*
X205861Y127341D01*
X205910Y127499D01*
X205935Y127632D01*
X205944Y127691D01*
X205952Y127732D01*
X205961Y127774D01*
Y127832D01*
X205944Y128007D01*
X205910Y128157D01*
X205869Y128299D01*
X205811Y128415D01*
X205760Y128507D01*
X205711Y128582D01*
X205677Y128624D01*
X205669Y128640D01*
X205544Y128749D01*
X205402Y128840D01*
X205252Y128915D01*
X205102Y128974D01*
X204977Y129007D01*
X204919Y129024D01*
X204869Y129040D01*
X204827Y129049D01*
X204794D01*
X204777Y129057D01*
X204769D01*
X204827Y129882D01*
X204977Y129865D01*
D02*
G37*
G36*
X26432Y234036D02*
X26273Y233944D01*
X26123Y233836D01*
X25973Y233719D01*
X25849Y233611D01*
X25732Y233503D01*
X25649Y233419D01*
X25615Y233386D01*
X25590Y233361D01*
X25582Y233344D01*
X25574Y233336D01*
X25415Y233145D01*
X25274Y232953D01*
X25140Y232753D01*
X25032Y232578D01*
X24949Y232420D01*
X24907Y232353D01*
X24882Y232295D01*
X24857Y232253D01*
X24840Y232220D01*
X24824Y232195D01*
Y232187D01*
X24057D01*
X24116Y232328D01*
X24182Y232470D01*
X24249Y232611D01*
X24316Y232736D01*
X24374Y232845D01*
X24424Y232936D01*
X24441Y232970D01*
X24457Y232995D01*
X24465Y233003D01*
Y233011D01*
X24565Y233178D01*
X24666Y233319D01*
X24757Y233453D01*
X24840Y233561D01*
X24907Y233645D01*
X24965Y233711D01*
X24999Y233744D01*
X25007Y233761D01*
X20000D01*
Y234544D01*
X26432D01*
Y234036D01*
D02*
G37*
G36*
X23266Y227938D02*
X22508D01*
Y229820D01*
X21308D01*
X21216Y229704D01*
X21133Y229579D01*
X21058Y229445D01*
X20991Y229321D01*
X20933Y229204D01*
X20891Y229104D01*
X20883Y229071D01*
X20866Y229046D01*
X20858Y229029D01*
Y229021D01*
X20791Y228821D01*
X20742Y228629D01*
X20700Y228454D01*
X20675Y228288D01*
X20658Y228146D01*
Y228088D01*
X20650Y228038D01*
Y227946D01*
X20658Y227713D01*
X20691Y227488D01*
X20733Y227288D01*
X20791Y227113D01*
X20816Y227029D01*
X20841Y226963D01*
X20858Y226896D01*
X20883Y226846D01*
X20900Y226805D01*
X20916Y226771D01*
X20925Y226755D01*
Y226746D01*
X21041Y226546D01*
X21175Y226380D01*
X21325Y226230D01*
X21458Y226113D01*
X21583Y226021D01*
X21641Y225980D01*
X21691Y225955D01*
X21725Y225930D01*
X21758Y225913D01*
X21774Y225896D01*
X21783D01*
X22008Y225797D01*
X22249Y225730D01*
X22491Y225680D01*
X22716Y225638D01*
X22816Y225630D01*
X22916Y225621D01*
X22999Y225613D01*
X23074D01*
X23133Y225605D01*
X23174D01*
X23207D01*
X23216D01*
X23474Y225613D01*
X23716Y225646D01*
X23932Y225680D01*
X24124Y225730D01*
X24207Y225746D01*
X24282Y225772D01*
X24349Y225788D01*
X24407Y225813D01*
X24449Y225821D01*
X24482Y225838D01*
X24499Y225847D01*
X24507D01*
X24632Y225905D01*
X24757Y225971D01*
X24865Y226038D01*
X24957Y226096D01*
X25032Y226155D01*
X25090Y226205D01*
X25124Y226238D01*
X25140Y226246D01*
X25240Y226346D01*
X25340Y226463D01*
X25415Y226580D01*
X25482Y226688D01*
X25540Y226780D01*
X25574Y226863D01*
X25599Y226913D01*
X25607Y226921D01*
Y226929D01*
X25665Y227096D01*
X25715Y227263D01*
X25749Y227438D01*
X25765Y227596D01*
X25782Y227729D01*
Y227788D01*
X25790Y227838D01*
Y227938D01*
X25782Y228113D01*
X25765Y228279D01*
X25732Y228429D01*
X25707Y228554D01*
X25673Y228662D01*
X25640Y228746D01*
X25624Y228796D01*
X25615Y228804D01*
Y228812D01*
X25549Y228954D01*
X25474Y229079D01*
X25399Y229187D01*
X25332Y229271D01*
X25265Y229337D01*
X25215Y229387D01*
X25182Y229421D01*
X25165Y229429D01*
X25057Y229504D01*
X24932Y229579D01*
X24799Y229637D01*
X24682Y229687D01*
X24565Y229729D01*
X24482Y229762D01*
X24449Y229771D01*
X24424Y229779D01*
X24407Y229787D01*
X24399D01*
X24607Y230554D01*
X24840Y230487D01*
X25049Y230404D01*
X25224Y230329D01*
X25374Y230245D01*
X25499Y230170D01*
X25549Y230145D01*
X25582Y230112D01*
X25615Y230095D01*
X25640Y230079D01*
X25649Y230062D01*
X25657D01*
X25798Y229937D01*
X25924Y229795D01*
X26032Y229646D01*
X26123Y229504D01*
X26190Y229379D01*
X26215Y229329D01*
X26240Y229279D01*
X26257Y229237D01*
X26273Y229212D01*
X26282Y229196D01*
Y229187D01*
X26357Y228971D01*
X26415Y228754D01*
X26457Y228546D01*
X26490Y228346D01*
X26498Y228263D01*
X26507Y228179D01*
Y228113D01*
X26515Y228046D01*
Y227929D01*
X26507Y227754D01*
X26498Y227588D01*
X26457Y227263D01*
X26423Y227113D01*
X26390Y226980D01*
X26357Y226846D01*
X26315Y226730D01*
X26282Y226621D01*
X26240Y226521D01*
X26207Y226438D01*
X26182Y226371D01*
X26148Y226313D01*
X26132Y226271D01*
X26123Y226246D01*
X26115Y226238D01*
X26040Y226105D01*
X25949Y225980D01*
X25765Y225755D01*
X25665Y225655D01*
X25565Y225563D01*
X25465Y225480D01*
X25365Y225405D01*
X25274Y225338D01*
X25190Y225280D01*
X25115Y225230D01*
X25049Y225188D01*
X24990Y225155D01*
X24949Y225130D01*
X24924Y225122D01*
X24915Y225113D01*
X24765Y225047D01*
X24607Y224988D01*
X24299Y224888D01*
X24007Y224822D01*
X23866Y224797D01*
X23741Y224780D01*
X23616Y224763D01*
X23507Y224747D01*
X23407Y224738D01*
X23324D01*
X23258Y224730D01*
X23207D01*
X23174D01*
X23166D01*
X22991Y224738D01*
X22824Y224747D01*
X22499Y224788D01*
X22349Y224822D01*
X22216Y224855D01*
X22083Y224888D01*
X21958Y224930D01*
X21850Y224963D01*
X21749Y224997D01*
X21666Y225030D01*
X21591Y225063D01*
X21533Y225088D01*
X21491Y225105D01*
X21466Y225122D01*
X21458D01*
X21316Y225197D01*
X21191Y225280D01*
X21066Y225372D01*
X20958Y225472D01*
X20850Y225563D01*
X20758Y225663D01*
X20666Y225755D01*
X20591Y225847D01*
X20525Y225938D01*
X20458Y226013D01*
X20408Y226088D01*
X20367Y226155D01*
X20333Y226205D01*
X20308Y226246D01*
X20300Y226271D01*
X20292Y226280D01*
X20225Y226430D01*
X20158Y226580D01*
X20058Y226871D01*
X19992Y227163D01*
X19967Y227296D01*
X19942Y227429D01*
X19925Y227546D01*
X19917Y227654D01*
X19900Y227754D01*
Y227838D01*
X19892Y227904D01*
Y227996D01*
X19900Y228254D01*
X19933Y228504D01*
X19975Y228737D01*
X20017Y228946D01*
X20042Y229029D01*
X20067Y229112D01*
X20083Y229187D01*
X20100Y229246D01*
X20117Y229296D01*
X20133Y229329D01*
X20142Y229354D01*
Y229362D01*
X20242Y229612D01*
X20367Y229845D01*
X20483Y230062D01*
X20608Y230262D01*
X20666Y230345D01*
X20717Y230420D01*
X20758Y230487D01*
X20800Y230545D01*
X20833Y230595D01*
X20858Y230629D01*
X20875Y230645D01*
X20883Y230654D01*
X23266D01*
Y227938D01*
D02*
G37*
G36*
X26407Y218998D02*
X25649D01*
Y221106D01*
X20000D01*
Y221956D01*
X25649D01*
Y224064D01*
X26407D01*
Y218998D01*
D02*
G37*
G36*
Y216974D02*
X21950Y215432D01*
X21708Y215349D01*
X21500Y215282D01*
X21325Y215224D01*
X21175Y215174D01*
X21066Y215141D01*
X20983Y215116D01*
X20933Y215099D01*
X20916Y215091D01*
X21050Y215049D01*
X21200Y214999D01*
X21358Y214949D01*
X21508Y214899D01*
X21650Y214858D01*
X21708Y214833D01*
X21766Y214816D01*
X21808Y214799D01*
X21841Y214791D01*
X21858Y214783D01*
X21866D01*
X26407Y213266D01*
Y212000D01*
X20000D01*
Y212817D01*
X25457D01*
X20000Y214666D01*
Y215424D01*
X25365Y217299D01*
X20000D01*
Y218115D01*
X26407D01*
Y216974D01*
D02*
G37*
G36*
X185420Y140180D02*
X182579D01*
Y139080D01*
X182587Y138989D01*
Y138906D01*
X182596Y138839D01*
X182604Y138789D01*
Y138756D01*
X182612Y138739D01*
Y138731D01*
X182662Y138589D01*
X182687Y138522D01*
X182721Y138464D01*
X182746Y138414D01*
X182771Y138381D01*
X182779Y138356D01*
X182787Y138347D01*
X182846Y138272D01*
X182904Y138197D01*
X182979Y138122D01*
X183054Y138056D01*
X183112Y137998D01*
X183171Y137956D01*
X183204Y137922D01*
X183221Y137914D01*
X183346Y137814D01*
X183487Y137714D01*
X183629Y137614D01*
X183770Y137514D01*
X183895Y137431D01*
X183954Y137389D01*
X184004Y137356D01*
X184037Y137331D01*
X184070Y137314D01*
X184087Y137298D01*
X184095D01*
X185420Y136456D01*
Y135390D01*
X183687Y136498D01*
X183504Y136623D01*
X183337Y136748D01*
X183187Y136864D01*
X183071Y136973D01*
X182971Y137073D01*
X182896Y137139D01*
X182854Y137189D01*
X182837Y137198D01*
Y137206D01*
X182779Y137281D01*
X182721Y137356D01*
X182612Y137523D01*
X182571Y137598D01*
X182537Y137656D01*
X182521Y137697D01*
X182512Y137714D01*
X182487Y137548D01*
X182454Y137389D01*
X182412Y137248D01*
X182371Y137114D01*
X182321Y136989D01*
X182271Y136873D01*
X182221Y136773D01*
X182171Y136681D01*
X182121Y136606D01*
X182071Y136539D01*
X182029Y136481D01*
X181996Y136431D01*
X181963Y136398D01*
X181938Y136364D01*
X181929Y136356D01*
X181921Y136348D01*
X181829Y136273D01*
X181738Y136198D01*
X181638Y136140D01*
X181546Y136090D01*
X181354Y136015D01*
X181171Y135965D01*
X181013Y135931D01*
X180946Y135923D01*
X180888Y135915D01*
X180838Y135906D01*
X180805D01*
X180779D01*
X180771D01*
X180580Y135915D01*
X180396Y135948D01*
X180230Y135990D01*
X180088Y136040D01*
X179971Y136090D01*
X179880Y136131D01*
X179846Y136148D01*
X179821Y136165D01*
X179813Y136173D01*
X179805D01*
X179655Y136281D01*
X179522Y136398D01*
X179413Y136515D01*
X179330Y136631D01*
X179263Y136731D01*
X179222Y136814D01*
X179205Y136848D01*
X179197Y136873D01*
X179188Y136881D01*
Y136889D01*
X179155Y136973D01*
X179130Y137073D01*
X179088Y137281D01*
X179055Y137498D01*
X179038Y137706D01*
X179030Y137806D01*
X179022Y137898D01*
Y137972D01*
X179013Y138048D01*
Y141030D01*
X185420D01*
Y140180D01*
D02*
G37*
G36*
X181304Y134148D02*
X181238Y134007D01*
X181171Y133865D01*
X181104Y133740D01*
X181046Y133632D01*
X180996Y133540D01*
X180979Y133507D01*
X180963Y133482D01*
X180954Y133474D01*
Y133465D01*
X180854Y133299D01*
X180755Y133157D01*
X180663Y133024D01*
X180580Y132915D01*
X180513Y132832D01*
X180455Y132766D01*
X180421Y132732D01*
X180413Y132716D01*
X185420D01*
Y131932D01*
X178988D01*
Y132441D01*
X179147Y132532D01*
X179297Y132640D01*
X179447Y132757D01*
X179571Y132865D01*
X179688Y132974D01*
X179771Y133057D01*
X179805Y133090D01*
X179830Y133115D01*
X179838Y133132D01*
X179846Y133140D01*
X180005Y133332D01*
X180146Y133524D01*
X180280Y133724D01*
X180388Y133898D01*
X180471Y134057D01*
X180513Y134123D01*
X180538Y134182D01*
X180563Y134223D01*
X180580Y134257D01*
X180596Y134282D01*
Y134290D01*
X181363D01*
X181304Y134148D01*
D02*
G37*
G36*
X235258Y110886D02*
X239407D01*
Y110244D01*
X235258Y107320D01*
X234533D01*
Y110103D01*
X233000D01*
Y110886D01*
X234533D01*
Y111752D01*
X235258D01*
Y110886D01*
D02*
G37*
G36*
X236266Y103938D02*
X235508D01*
Y105820D01*
X234308D01*
X234216Y105704D01*
X234133Y105579D01*
X234058Y105445D01*
X233991Y105321D01*
X233933Y105204D01*
X233891Y105104D01*
X233883Y105071D01*
X233866Y105046D01*
X233858Y105029D01*
Y105021D01*
X233792Y104821D01*
X233741Y104629D01*
X233700Y104454D01*
X233675Y104288D01*
X233658Y104146D01*
Y104087D01*
X233650Y104038D01*
Y103946D01*
X233658Y103713D01*
X233692Y103488D01*
X233733Y103288D01*
X233792Y103113D01*
X233816Y103029D01*
X233841Y102963D01*
X233858Y102896D01*
X233883Y102846D01*
X233900Y102804D01*
X233916Y102771D01*
X233925Y102755D01*
Y102746D01*
X234041Y102546D01*
X234175Y102380D01*
X234325Y102230D01*
X234458Y102113D01*
X234583Y102021D01*
X234641Y101980D01*
X234691Y101955D01*
X234725Y101930D01*
X234758Y101913D01*
X234774Y101896D01*
X234783D01*
X235008Y101797D01*
X235249Y101730D01*
X235491Y101680D01*
X235716Y101638D01*
X235816Y101630D01*
X235916Y101622D01*
X235999Y101613D01*
X236074D01*
X236133Y101605D01*
X236174D01*
X236208D01*
X236216D01*
X236474Y101613D01*
X236716Y101646D01*
X236932Y101680D01*
X237124Y101730D01*
X237207Y101747D01*
X237282Y101771D01*
X237349Y101788D01*
X237407Y101813D01*
X237449Y101821D01*
X237482Y101838D01*
X237499Y101847D01*
X237507D01*
X237632Y101905D01*
X237757Y101971D01*
X237865Y102038D01*
X237957Y102096D01*
X238032Y102155D01*
X238090Y102205D01*
X238124Y102238D01*
X238140Y102246D01*
X238240Y102346D01*
X238340Y102463D01*
X238415Y102580D01*
X238482Y102688D01*
X238540Y102780D01*
X238574Y102863D01*
X238599Y102913D01*
X238607Y102921D01*
Y102929D01*
X238665Y103096D01*
X238715Y103263D01*
X238748Y103438D01*
X238765Y103596D01*
X238782Y103729D01*
Y103788D01*
X238790Y103838D01*
Y103938D01*
X238782Y104113D01*
X238765Y104279D01*
X238732Y104429D01*
X238707Y104554D01*
X238673Y104662D01*
X238640Y104746D01*
X238624Y104796D01*
X238615Y104804D01*
Y104812D01*
X238549Y104954D01*
X238474Y105079D01*
X238399Y105187D01*
X238332Y105271D01*
X238265Y105337D01*
X238215Y105387D01*
X238182Y105421D01*
X238165Y105429D01*
X238057Y105504D01*
X237932Y105579D01*
X237799Y105637D01*
X237682Y105687D01*
X237565Y105729D01*
X237482Y105762D01*
X237449Y105771D01*
X237424Y105779D01*
X237407Y105787D01*
X237399D01*
X237607Y106554D01*
X237840Y106487D01*
X238049Y106404D01*
X238224Y106329D01*
X238374Y106245D01*
X238499Y106170D01*
X238549Y106145D01*
X238582Y106112D01*
X238615Y106095D01*
X238640Y106079D01*
X238648Y106062D01*
X238657D01*
X238799Y105937D01*
X238923Y105795D01*
X239032Y105646D01*
X239123Y105504D01*
X239190Y105379D01*
X239215Y105329D01*
X239240Y105279D01*
X239257Y105237D01*
X239273Y105212D01*
X239282Y105196D01*
Y105187D01*
X239357Y104971D01*
X239415Y104754D01*
X239457Y104546D01*
X239490Y104346D01*
X239498Y104263D01*
X239507Y104179D01*
Y104113D01*
X239515Y104046D01*
Y103929D01*
X239507Y103754D01*
X239498Y103588D01*
X239457Y103263D01*
X239423Y103113D01*
X239390Y102979D01*
X239357Y102846D01*
X239315Y102730D01*
X239282Y102621D01*
X239240Y102521D01*
X239207Y102438D01*
X239182Y102371D01*
X239148Y102313D01*
X239132Y102271D01*
X239123Y102246D01*
X239115Y102238D01*
X239040Y102105D01*
X238948Y101980D01*
X238765Y101755D01*
X238665Y101655D01*
X238565Y101563D01*
X238465Y101480D01*
X238365Y101405D01*
X238274Y101338D01*
X238190Y101280D01*
X238115Y101230D01*
X238049Y101188D01*
X237990Y101155D01*
X237949Y101130D01*
X237924Y101122D01*
X237915Y101113D01*
X237765Y101047D01*
X237607Y100988D01*
X237299Y100888D01*
X237007Y100822D01*
X236866Y100797D01*
X236741Y100780D01*
X236616Y100763D01*
X236507Y100747D01*
X236408Y100738D01*
X236324D01*
X236257Y100730D01*
X236208D01*
X236174D01*
X236166D01*
X235991Y100738D01*
X235824Y100747D01*
X235499Y100788D01*
X235349Y100822D01*
X235216Y100855D01*
X235083Y100888D01*
X234958Y100930D01*
X234849Y100963D01*
X234750Y100997D01*
X234666Y101030D01*
X234591Y101063D01*
X234533Y101088D01*
X234491Y101105D01*
X234466Y101122D01*
X234458D01*
X234316Y101197D01*
X234191Y101280D01*
X234066Y101372D01*
X233958Y101472D01*
X233850Y101563D01*
X233758Y101663D01*
X233666Y101755D01*
X233591Y101847D01*
X233525Y101938D01*
X233458Y102013D01*
X233408Y102088D01*
X233367Y102155D01*
X233333Y102205D01*
X233308Y102246D01*
X233300Y102271D01*
X233292Y102280D01*
X233225Y102430D01*
X233158Y102580D01*
X233058Y102871D01*
X232992Y103163D01*
X232967Y103296D01*
X232942Y103429D01*
X232925Y103546D01*
X232917Y103654D01*
X232900Y103754D01*
Y103838D01*
X232892Y103904D01*
Y103996D01*
X232900Y104254D01*
X232933Y104504D01*
X232975Y104737D01*
X233017Y104946D01*
X233042Y105029D01*
X233067Y105112D01*
X233083Y105187D01*
X233100Y105246D01*
X233117Y105296D01*
X233133Y105329D01*
X233142Y105354D01*
Y105362D01*
X233242Y105612D01*
X233367Y105845D01*
X233483Y106062D01*
X233608Y106262D01*
X233666Y106345D01*
X233717Y106420D01*
X233758Y106487D01*
X233800Y106545D01*
X233833Y106595D01*
X233858Y106629D01*
X233875Y106645D01*
X233883Y106654D01*
X236266D01*
Y103938D01*
D02*
G37*
G36*
X239407Y94998D02*
X238648D01*
Y97106D01*
X233000D01*
Y97956D01*
X238648D01*
Y100064D01*
X239407D01*
Y94998D01*
D02*
G37*
G36*
Y92974D02*
X234949Y91433D01*
X234708Y91349D01*
X234500Y91283D01*
X234325Y91224D01*
X234175Y91174D01*
X234066Y91141D01*
X233983Y91116D01*
X233933Y91099D01*
X233916Y91091D01*
X234050Y91049D01*
X234200Y90999D01*
X234358Y90949D01*
X234508Y90899D01*
X234650Y90858D01*
X234708Y90833D01*
X234766Y90816D01*
X234808Y90799D01*
X234841Y90791D01*
X234858Y90783D01*
X234866D01*
X239407Y89266D01*
Y88000D01*
X233000D01*
Y88816D01*
X238457D01*
X233000Y90666D01*
Y91424D01*
X238365Y93299D01*
X233000D01*
Y94115D01*
X239407D01*
Y92974D01*
D02*
G37*
G36*
X23173Y113802D02*
X23364Y113768D01*
X23539Y113718D01*
X23689Y113660D01*
X23814Y113602D01*
X23856Y113577D01*
X23898Y113552D01*
X23931Y113535D01*
X23956Y113518D01*
X23964Y113502D01*
X23973D01*
X24114Y113377D01*
X24231Y113227D01*
X24331Y113085D01*
X24406Y112944D01*
X24456Y112819D01*
X24481Y112760D01*
X24497Y112710D01*
X24506Y112677D01*
X24514Y112644D01*
X24523Y112627D01*
Y112619D01*
X24606Y112769D01*
X24689Y112902D01*
X24781Y113019D01*
X24872Y113110D01*
X24947Y113185D01*
X25006Y113235D01*
X25047Y113268D01*
X25064Y113277D01*
X25197Y113352D01*
X25331Y113410D01*
X25456Y113443D01*
X25572Y113477D01*
X25672Y113493D01*
X25756Y113502D01*
X25805D01*
X25814D01*
X25822D01*
X25980Y113493D01*
X26130Y113468D01*
X26272Y113427D01*
X26397Y113385D01*
X26497Y113335D01*
X26580Y113302D01*
X26630Y113268D01*
X26639Y113260D01*
X26647D01*
X26788Y113168D01*
X26905Y113060D01*
X27013Y112944D01*
X27105Y112835D01*
X27172Y112735D01*
X27222Y112660D01*
X27238Y112627D01*
X27255Y112602D01*
X27263Y112594D01*
Y112585D01*
X27338Y112419D01*
X27397Y112252D01*
X27430Y112094D01*
X27463Y111944D01*
X27480Y111819D01*
Y111761D01*
X27488Y111719D01*
Y111627D01*
X27480Y111486D01*
X27472Y111352D01*
X27422Y111102D01*
X27347Y110886D01*
X27305Y110794D01*
X27272Y110702D01*
X27230Y110627D01*
X27188Y110553D01*
X27147Y110494D01*
X27113Y110444D01*
X27088Y110402D01*
X27064Y110378D01*
X27055Y110361D01*
X27047Y110353D01*
X26964Y110261D01*
X26872Y110178D01*
X26672Y110036D01*
X26472Y109928D01*
X26280Y109836D01*
X26189Y109803D01*
X26105Y109778D01*
X26022Y109753D01*
X25964Y109736D01*
X25905Y109719D01*
X25864Y109711D01*
X25839Y109703D01*
X25831D01*
X25689Y110486D01*
X25889Y110527D01*
X26064Y110577D01*
X26214Y110644D01*
X26330Y110711D01*
X26430Y110769D01*
X26497Y110819D01*
X26530Y110852D01*
X26547Y110869D01*
X26647Y110994D01*
X26714Y111119D01*
X26764Y111252D01*
X26805Y111369D01*
X26822Y111477D01*
X26830Y111569D01*
X26839Y111602D01*
Y111644D01*
X26830Y111811D01*
X26797Y111952D01*
X26747Y112086D01*
X26697Y112194D01*
X26639Y112277D01*
X26597Y112344D01*
X26564Y112377D01*
X26547Y112394D01*
X26439Y112494D01*
X26314Y112569D01*
X26197Y112619D01*
X26089Y112660D01*
X25989Y112677D01*
X25914Y112685D01*
X25855Y112694D01*
X25847D01*
X25839D01*
X25739Y112685D01*
X25647Y112677D01*
X25480Y112627D01*
X25339Y112569D01*
X25222Y112494D01*
X25139Y112419D01*
X25072Y112352D01*
X25039Y112302D01*
X25022Y112294D01*
Y112285D01*
X24939Y112135D01*
X24872Y111977D01*
X24831Y111827D01*
X24797Y111686D01*
X24781Y111569D01*
X24772Y111469D01*
X24764Y111436D01*
Y111344D01*
X24772Y111302D01*
X24781Y111277D01*
Y111261D01*
X24089Y111169D01*
X24114Y111286D01*
X24139Y111394D01*
X24156Y111494D01*
X24164Y111577D01*
X24172Y111636D01*
Y111727D01*
X24156Y111927D01*
X24114Y112102D01*
X24064Y112252D01*
X23998Y112385D01*
X23931Y112485D01*
X23881Y112560D01*
X23839Y112610D01*
X23823Y112627D01*
X23756Y112694D01*
X23681Y112744D01*
X23539Y112835D01*
X23389Y112902D01*
X23248Y112944D01*
X23123Y112969D01*
X23064Y112977D01*
X23023D01*
X22981Y112985D01*
X22956D01*
X22940D01*
X22931D01*
X22831D01*
X22731Y112969D01*
X22548Y112927D01*
X22381Y112860D01*
X22248Y112794D01*
X22131Y112727D01*
X22048Y112660D01*
X22023Y112635D01*
X21998Y112619D01*
X21990Y112610D01*
X21981Y112602D01*
X21915Y112527D01*
X21857Y112452D01*
X21756Y112294D01*
X21690Y112135D01*
X21648Y111986D01*
X21615Y111861D01*
X21607Y111802D01*
Y111752D01*
X21598Y111719D01*
Y111661D01*
X21615Y111494D01*
X21648Y111336D01*
X21690Y111202D01*
X21748Y111086D01*
X21798Y110986D01*
X21848Y110919D01*
X21881Y110877D01*
X21890Y110861D01*
X21948Y110802D01*
X22015Y110752D01*
X22173Y110661D01*
X22331Y110577D01*
X22490Y110519D01*
X22640Y110469D01*
X22698Y110452D01*
X22756Y110436D01*
X22798Y110428D01*
X22831Y110419D01*
X22856Y110411D01*
X22864D01*
X22756Y109628D01*
X22606Y109644D01*
X22465Y109678D01*
X22340Y109711D01*
X22215Y109761D01*
X22098Y109811D01*
X21990Y109861D01*
X21890Y109919D01*
X21798Y109969D01*
X21723Y110028D01*
X21648Y110078D01*
X21590Y110128D01*
X21540Y110169D01*
X21498Y110211D01*
X21473Y110236D01*
X21457Y110253D01*
X21448Y110261D01*
X21357Y110369D01*
X21282Y110478D01*
X21215Y110594D01*
X21157Y110719D01*
X21115Y110836D01*
X21073Y110952D01*
X21015Y111169D01*
X20990Y111269D01*
X20973Y111369D01*
X20965Y111452D01*
X20957Y111519D01*
X20948Y111577D01*
Y111661D01*
X20957Y111835D01*
X20973Y111994D01*
X20998Y112152D01*
X21040Y112294D01*
X21082Y112435D01*
X21132Y112560D01*
X21182Y112677D01*
X21240Y112785D01*
X21290Y112877D01*
X21340Y112960D01*
X21390Y113035D01*
X21432Y113094D01*
X21473Y113144D01*
X21498Y113177D01*
X21515Y113194D01*
X21523Y113202D01*
X21632Y113310D01*
X21748Y113402D01*
X21873Y113485D01*
X21990Y113560D01*
X22115Y113618D01*
X22231Y113668D01*
X22348Y113710D01*
X22456Y113743D01*
X22556Y113768D01*
X22648Y113785D01*
X22731Y113802D01*
X22806Y113810D01*
X22864Y113818D01*
X22915D01*
X22940D01*
X22948D01*
X23173Y113802D01*
D02*
G37*
G36*
X24323Y105979D02*
X23564D01*
Y107861D01*
X22365D01*
X22273Y107745D01*
X22190Y107620D01*
X22115Y107487D01*
X22048Y107362D01*
X21990Y107245D01*
X21948Y107145D01*
X21940Y107112D01*
X21923Y107087D01*
X21915Y107070D01*
Y107062D01*
X21848Y106862D01*
X21798Y106670D01*
X21756Y106495D01*
X21732Y106329D01*
X21715Y106187D01*
Y106129D01*
X21707Y106079D01*
Y105987D01*
X21715Y105754D01*
X21748Y105529D01*
X21790Y105329D01*
X21848Y105154D01*
X21873Y105071D01*
X21898Y105004D01*
X21915Y104937D01*
X21940Y104887D01*
X21956Y104846D01*
X21973Y104812D01*
X21981Y104796D01*
Y104787D01*
X22098Y104587D01*
X22231Y104421D01*
X22381Y104271D01*
X22515Y104154D01*
X22640Y104062D01*
X22698Y104021D01*
X22748Y103996D01*
X22781Y103971D01*
X22815Y103954D01*
X22831Y103938D01*
X22840D01*
X23064Y103838D01*
X23306Y103771D01*
X23548Y103721D01*
X23773Y103679D01*
X23873Y103671D01*
X23973Y103663D01*
X24056Y103654D01*
X24131D01*
X24189Y103646D01*
X24231D01*
X24264D01*
X24272D01*
X24531Y103654D01*
X24772Y103688D01*
X24989Y103721D01*
X25181Y103771D01*
X25264Y103788D01*
X25339Y103813D01*
X25406Y103829D01*
X25464Y103854D01*
X25505Y103863D01*
X25539Y103879D01*
X25556Y103888D01*
X25564D01*
X25689Y103946D01*
X25814Y104012D01*
X25922Y104079D01*
X26014Y104137D01*
X26089Y104196D01*
X26147Y104246D01*
X26180Y104279D01*
X26197Y104287D01*
X26297Y104387D01*
X26397Y104504D01*
X26472Y104621D01*
X26539Y104729D01*
X26597Y104821D01*
X26630Y104904D01*
X26655Y104954D01*
X26664Y104962D01*
Y104971D01*
X26722Y105137D01*
X26772Y105304D01*
X26805Y105479D01*
X26822Y105637D01*
X26839Y105770D01*
Y105829D01*
X26847Y105879D01*
Y105979D01*
X26839Y106154D01*
X26822Y106320D01*
X26788Y106470D01*
X26764Y106595D01*
X26730Y106704D01*
X26697Y106787D01*
X26680Y106837D01*
X26672Y106845D01*
Y106854D01*
X26605Y106995D01*
X26530Y107120D01*
X26455Y107228D01*
X26389Y107312D01*
X26322Y107378D01*
X26272Y107428D01*
X26239Y107462D01*
X26222Y107470D01*
X26114Y107545D01*
X25989Y107620D01*
X25855Y107678D01*
X25739Y107728D01*
X25622Y107770D01*
X25539Y107803D01*
X25505Y107811D01*
X25480Y107820D01*
X25464Y107828D01*
X25456D01*
X25664Y108595D01*
X25897Y108528D01*
X26105Y108445D01*
X26280Y108370D01*
X26430Y108286D01*
X26555Y108211D01*
X26605Y108186D01*
X26639Y108153D01*
X26672Y108137D01*
X26697Y108120D01*
X26705Y108103D01*
X26714D01*
X26855Y107978D01*
X26980Y107837D01*
X27088Y107687D01*
X27180Y107545D01*
X27247Y107420D01*
X27272Y107370D01*
X27297Y107320D01*
X27313Y107278D01*
X27330Y107253D01*
X27338Y107237D01*
Y107228D01*
X27413Y107012D01*
X27472Y106795D01*
X27513Y106587D01*
X27547Y106387D01*
X27555Y106304D01*
X27563Y106220D01*
Y106154D01*
X27572Y106087D01*
Y105970D01*
X27563Y105795D01*
X27555Y105629D01*
X27513Y105304D01*
X27480Y105154D01*
X27447Y105021D01*
X27413Y104887D01*
X27372Y104771D01*
X27338Y104662D01*
X27297Y104562D01*
X27263Y104479D01*
X27238Y104412D01*
X27205Y104354D01*
X27188Y104312D01*
X27180Y104287D01*
X27172Y104279D01*
X27097Y104146D01*
X27005Y104021D01*
X26822Y103796D01*
X26722Y103696D01*
X26622Y103604D01*
X26522Y103521D01*
X26422Y103446D01*
X26330Y103379D01*
X26247Y103321D01*
X26172Y103271D01*
X26105Y103229D01*
X26047Y103196D01*
X26005Y103171D01*
X25980Y103163D01*
X25972Y103154D01*
X25822Y103088D01*
X25664Y103029D01*
X25356Y102929D01*
X25064Y102863D01*
X24922Y102838D01*
X24797Y102821D01*
X24672Y102804D01*
X24564Y102788D01*
X24464Y102780D01*
X24381D01*
X24314Y102771D01*
X24264D01*
X24231D01*
X24223D01*
X24048Y102780D01*
X23881Y102788D01*
X23556Y102830D01*
X23406Y102863D01*
X23273Y102896D01*
X23140Y102929D01*
X23015Y102971D01*
X22906Y103004D01*
X22806Y103038D01*
X22723Y103071D01*
X22648Y103104D01*
X22590Y103129D01*
X22548Y103146D01*
X22523Y103163D01*
X22515D01*
X22373Y103238D01*
X22248Y103321D01*
X22123Y103413D01*
X22015Y103513D01*
X21906Y103604D01*
X21815Y103704D01*
X21723Y103796D01*
X21648Y103888D01*
X21581Y103979D01*
X21515Y104054D01*
X21465Y104129D01*
X21423Y104196D01*
X21390Y104246D01*
X21365Y104287D01*
X21357Y104312D01*
X21348Y104321D01*
X21282Y104471D01*
X21215Y104621D01*
X21115Y104912D01*
X21048Y105204D01*
X21023Y105337D01*
X20998Y105471D01*
X20982Y105587D01*
X20973Y105695D01*
X20957Y105795D01*
Y105879D01*
X20948Y105945D01*
Y106037D01*
X20957Y106295D01*
X20990Y106545D01*
X21032Y106778D01*
X21073Y106987D01*
X21098Y107070D01*
X21123Y107153D01*
X21140Y107228D01*
X21157Y107287D01*
X21173Y107337D01*
X21190Y107370D01*
X21198Y107395D01*
Y107403D01*
X21298Y107653D01*
X21423Y107886D01*
X21540Y108103D01*
X21665Y108303D01*
X21723Y108386D01*
X21773Y108461D01*
X21815Y108528D01*
X21857Y108586D01*
X21890Y108636D01*
X21915Y108670D01*
X21932Y108686D01*
X21940Y108695D01*
X24323D01*
Y105979D01*
D02*
G37*
G36*
X27463Y97039D02*
X26705D01*
Y99147D01*
X21057D01*
Y99997D01*
X26705D01*
Y102105D01*
X27463D01*
Y97039D01*
D02*
G37*
G36*
Y95015D02*
X23006Y93474D01*
X22765Y93390D01*
X22556Y93324D01*
X22381Y93265D01*
X22231Y93215D01*
X22123Y93182D01*
X22040Y93157D01*
X21990Y93140D01*
X21973Y93132D01*
X22106Y93090D01*
X22256Y93040D01*
X22415Y92990D01*
X22565Y92940D01*
X22706Y92899D01*
X22765Y92874D01*
X22823Y92857D01*
X22864Y92840D01*
X22898Y92832D01*
X22915Y92824D01*
X22923D01*
X27463Y91307D01*
Y90041D01*
X21057D01*
Y90858D01*
X26514D01*
X21057Y92707D01*
Y93465D01*
X26422Y95340D01*
X21057D01*
Y96156D01*
X27463D01*
Y95015D01*
D02*
G37*
G36*
X232758Y233561D02*
X232908Y233670D01*
X232983Y233728D01*
X233041Y233778D01*
X233100Y233828D01*
X233141Y233861D01*
X233166Y233886D01*
X233175Y233895D01*
X233216Y233936D01*
X233275Y233995D01*
X233333Y234053D01*
X233391Y234120D01*
X233525Y234270D01*
X233658Y234428D01*
X233783Y234569D01*
X233841Y234636D01*
X233891Y234686D01*
X233925Y234736D01*
X233958Y234769D01*
X233974Y234794D01*
X233983Y234803D01*
X234116Y234953D01*
X234241Y235103D01*
X234349Y235228D01*
X234458Y235353D01*
X234558Y235461D01*
X234658Y235561D01*
X234741Y235653D01*
X234816Y235728D01*
X234883Y235802D01*
X234941Y235861D01*
X234991Y235911D01*
X235033Y235952D01*
X235066Y235977D01*
X235091Y236002D01*
X235099Y236019D01*
X235107D01*
X235257Y236144D01*
X235408Y236252D01*
X235541Y236344D01*
X235657Y236419D01*
X235749Y236477D01*
X235824Y236511D01*
X235874Y236536D01*
X235891Y236544D01*
X236032Y236594D01*
X236166Y236636D01*
X236299Y236661D01*
X236407Y236686D01*
X236507Y236694D01*
X236582Y236702D01*
X236632D01*
X236649D01*
X236790Y236694D01*
X236924Y236677D01*
X237049Y236652D01*
X237165Y236619D01*
X237382Y236527D01*
X237482Y236486D01*
X237565Y236436D01*
X237649Y236377D01*
X237715Y236336D01*
X237773Y236286D01*
X237824Y236244D01*
X237865Y236211D01*
X237890Y236186D01*
X237907Y236169D01*
X237915Y236161D01*
X238007Y236052D01*
X238082Y235944D01*
X238157Y235828D01*
X238215Y235702D01*
X238265Y235578D01*
X238307Y235461D01*
X238365Y235228D01*
X238390Y235119D01*
X238407Y235019D01*
X238415Y234928D01*
X238423Y234844D01*
X238432Y234786D01*
Y234694D01*
X238423Y234528D01*
X238415Y234370D01*
X238390Y234220D01*
X238357Y234086D01*
X238323Y233953D01*
X238282Y233836D01*
X238240Y233728D01*
X238198Y233628D01*
X238148Y233536D01*
X238107Y233461D01*
X238065Y233395D01*
X238032Y233337D01*
X237999Y233295D01*
X237973Y233262D01*
X237965Y233245D01*
X237957Y233237D01*
X237865Y233137D01*
X237765Y233053D01*
X237657Y232978D01*
X237540Y232912D01*
X237432Y232853D01*
X237315Y232803D01*
X237090Y232728D01*
X236990Y232695D01*
X236890Y232670D01*
X236807Y232653D01*
X236732Y232637D01*
X236665Y232628D01*
X236624D01*
X236590Y232620D01*
X236582D01*
X236499Y233428D01*
X236716Y233445D01*
X236899Y233478D01*
X237057Y233536D01*
X237199Y233603D01*
X237299Y233661D01*
X237382Y233720D01*
X237424Y233753D01*
X237440Y233770D01*
X237557Y233903D01*
X237640Y234053D01*
X237698Y234211D01*
X237740Y234353D01*
X237765Y234478D01*
X237773Y234536D01*
Y234586D01*
X237782Y234620D01*
Y234678D01*
X237765Y234869D01*
X237732Y235044D01*
X237682Y235194D01*
X237624Y235319D01*
X237557Y235419D01*
X237507Y235494D01*
X237474Y235536D01*
X237457Y235553D01*
X237332Y235669D01*
X237199Y235753D01*
X237074Y235811D01*
X236949Y235853D01*
X236840Y235877D01*
X236749Y235886D01*
X236716Y235894D01*
X236699D01*
X236682D01*
X236674D01*
X236590D01*
X236507Y235877D01*
X236332Y235836D01*
X236174Y235777D01*
X236032Y235711D01*
X235907Y235636D01*
X235857Y235603D01*
X235807Y235578D01*
X235774Y235553D01*
X235749Y235536D01*
X235732Y235528D01*
X235724Y235519D01*
X235624Y235444D01*
X235524Y235353D01*
X235416Y235253D01*
X235299Y235144D01*
X235074Y234911D01*
X234858Y234678D01*
X234758Y234569D01*
X234666Y234461D01*
X234583Y234361D01*
X234508Y234278D01*
X234449Y234211D01*
X234408Y234153D01*
X234374Y234120D01*
X234366Y234111D01*
X234166Y233870D01*
X233983Y233661D01*
X233816Y233486D01*
X233675Y233345D01*
X233558Y233228D01*
X233466Y233145D01*
X233433Y233120D01*
X233408Y233095D01*
X233400Y233086D01*
X233391Y233078D01*
X233233Y232953D01*
X233083Y232845D01*
X232941Y232762D01*
X232808Y232687D01*
X232700Y232628D01*
X232617Y232595D01*
X232583Y232578D01*
X232558Y232570D01*
X232550Y232562D01*
X232542D01*
X232442Y232528D01*
X232350Y232503D01*
X232258Y232487D01*
X232175Y232478D01*
X232100Y232470D01*
X232050D01*
X232017D01*
X232000D01*
Y236711D01*
X232758D01*
Y233561D01*
D02*
G37*
G36*
X235266Y228938D02*
X234508D01*
Y230820D01*
X233308D01*
X233216Y230704D01*
X233133Y230579D01*
X233058Y230445D01*
X232991Y230321D01*
X232933Y230204D01*
X232891Y230104D01*
X232883Y230071D01*
X232866Y230046D01*
X232858Y230029D01*
Y230021D01*
X232792Y229821D01*
X232742Y229629D01*
X232700Y229454D01*
X232675Y229287D01*
X232658Y229146D01*
Y229088D01*
X232650Y229038D01*
Y228946D01*
X232658Y228713D01*
X232691Y228488D01*
X232733Y228288D01*
X232792Y228113D01*
X232817Y228029D01*
X232841Y227963D01*
X232858Y227896D01*
X232883Y227846D01*
X232900Y227805D01*
X232916Y227771D01*
X232925Y227755D01*
Y227746D01*
X233041Y227546D01*
X233175Y227380D01*
X233325Y227230D01*
X233458Y227113D01*
X233583Y227021D01*
X233641Y226980D01*
X233691Y226955D01*
X233725Y226930D01*
X233758Y226913D01*
X233775Y226896D01*
X233783D01*
X234008Y226796D01*
X234249Y226730D01*
X234491Y226680D01*
X234716Y226638D01*
X234816Y226630D01*
X234916Y226621D01*
X234999Y226613D01*
X235074D01*
X235133Y226605D01*
X235174D01*
X235208D01*
X235216D01*
X235474Y226613D01*
X235716Y226646D01*
X235932Y226680D01*
X236124Y226730D01*
X236207Y226747D01*
X236282Y226772D01*
X236349Y226788D01*
X236407Y226813D01*
X236449Y226821D01*
X236482Y226838D01*
X236499Y226847D01*
X236507D01*
X236632Y226905D01*
X236757Y226971D01*
X236865Y227038D01*
X236957Y227096D01*
X237032Y227155D01*
X237090Y227205D01*
X237124Y227238D01*
X237140Y227246D01*
X237240Y227346D01*
X237340Y227463D01*
X237415Y227580D01*
X237482Y227688D01*
X237540Y227780D01*
X237574Y227863D01*
X237599Y227913D01*
X237607Y227921D01*
Y227929D01*
X237665Y228096D01*
X237715Y228263D01*
X237749Y228438D01*
X237765Y228596D01*
X237782Y228729D01*
Y228788D01*
X237790Y228838D01*
Y228938D01*
X237782Y229112D01*
X237765Y229279D01*
X237732Y229429D01*
X237707Y229554D01*
X237673Y229662D01*
X237640Y229746D01*
X237624Y229796D01*
X237615Y229804D01*
Y229812D01*
X237549Y229954D01*
X237474Y230079D01*
X237399Y230187D01*
X237332Y230271D01*
X237265Y230337D01*
X237215Y230387D01*
X237182Y230420D01*
X237165Y230429D01*
X237057Y230504D01*
X236932Y230579D01*
X236799Y230637D01*
X236682Y230687D01*
X236565Y230729D01*
X236482Y230762D01*
X236449Y230770D01*
X236424Y230779D01*
X236407Y230787D01*
X236399D01*
X236607Y231554D01*
X236840Y231487D01*
X237049Y231404D01*
X237224Y231329D01*
X237374Y231245D01*
X237499Y231170D01*
X237549Y231145D01*
X237582Y231112D01*
X237615Y231095D01*
X237640Y231079D01*
X237649Y231062D01*
X237657D01*
X237799Y230937D01*
X237924Y230795D01*
X238032Y230646D01*
X238123Y230504D01*
X238190Y230379D01*
X238215Y230329D01*
X238240Y230279D01*
X238257Y230237D01*
X238273Y230212D01*
X238282Y230196D01*
Y230187D01*
X238357Y229971D01*
X238415Y229754D01*
X238457Y229546D01*
X238490Y229346D01*
X238498Y229263D01*
X238507Y229179D01*
Y229112D01*
X238515Y229046D01*
Y228929D01*
X238507Y228754D01*
X238498Y228588D01*
X238457Y228263D01*
X238423Y228113D01*
X238390Y227980D01*
X238357Y227846D01*
X238315Y227730D01*
X238282Y227621D01*
X238240Y227521D01*
X238207Y227438D01*
X238182Y227371D01*
X238148Y227313D01*
X238132Y227271D01*
X238123Y227246D01*
X238115Y227238D01*
X238040Y227105D01*
X237948Y226980D01*
X237765Y226755D01*
X237665Y226655D01*
X237565Y226563D01*
X237465Y226480D01*
X237365Y226405D01*
X237274Y226338D01*
X237190Y226280D01*
X237115Y226230D01*
X237049Y226188D01*
X236990Y226155D01*
X236949Y226130D01*
X236924Y226122D01*
X236915Y226113D01*
X236765Y226047D01*
X236607Y225988D01*
X236299Y225888D01*
X236007Y225822D01*
X235866Y225797D01*
X235741Y225780D01*
X235616Y225763D01*
X235507Y225747D01*
X235408Y225738D01*
X235324D01*
X235257Y225730D01*
X235208D01*
X235174D01*
X235166D01*
X234991Y225738D01*
X234824Y225747D01*
X234499Y225788D01*
X234349Y225822D01*
X234216Y225855D01*
X234083Y225888D01*
X233958Y225930D01*
X233850Y225963D01*
X233750Y225997D01*
X233666Y226030D01*
X233591Y226063D01*
X233533Y226088D01*
X233491Y226105D01*
X233466Y226122D01*
X233458D01*
X233316Y226197D01*
X233191Y226280D01*
X233066Y226372D01*
X232958Y226472D01*
X232850Y226563D01*
X232758Y226663D01*
X232666Y226755D01*
X232591Y226847D01*
X232525Y226938D01*
X232458Y227013D01*
X232408Y227088D01*
X232367Y227155D01*
X232333Y227205D01*
X232308Y227246D01*
X232300Y227271D01*
X232292Y227280D01*
X232225Y227430D01*
X232158Y227580D01*
X232058Y227871D01*
X231992Y228163D01*
X231967Y228296D01*
X231942Y228429D01*
X231925Y228546D01*
X231917Y228654D01*
X231900Y228754D01*
Y228838D01*
X231892Y228904D01*
Y228996D01*
X231900Y229254D01*
X231933Y229504D01*
X231975Y229737D01*
X232017Y229946D01*
X232042Y230029D01*
X232067Y230112D01*
X232083Y230187D01*
X232100Y230246D01*
X232117Y230296D01*
X232133Y230329D01*
X232142Y230354D01*
Y230362D01*
X232242Y230612D01*
X232367Y230845D01*
X232483Y231062D01*
X232608Y231262D01*
X232666Y231345D01*
X232717Y231420D01*
X232758Y231487D01*
X232800Y231545D01*
X232833Y231595D01*
X232858Y231629D01*
X232875Y231645D01*
X232883Y231654D01*
X235266D01*
Y228938D01*
D02*
G37*
G36*
X238407Y219998D02*
X237649D01*
Y222106D01*
X232000D01*
Y222956D01*
X237649D01*
Y225064D01*
X238407D01*
Y219998D01*
D02*
G37*
G36*
Y217974D02*
X233950Y216432D01*
X233708Y216349D01*
X233500Y216283D01*
X233325Y216224D01*
X233175Y216174D01*
X233066Y216141D01*
X232983Y216116D01*
X232933Y216099D01*
X232916Y216091D01*
X233050Y216049D01*
X233200Y215999D01*
X233358Y215949D01*
X233508Y215899D01*
X233650Y215858D01*
X233708Y215833D01*
X233766Y215816D01*
X233808Y215799D01*
X233841Y215791D01*
X233858Y215783D01*
X233866D01*
X238407Y214266D01*
Y213000D01*
X232000D01*
Y213817D01*
X237457D01*
X232000Y215666D01*
Y216424D01*
X237365Y218299D01*
X232000D01*
Y219115D01*
X238407D01*
Y217974D01*
D02*
G37*
G36*
X16637Y72712D02*
X16781Y72687D01*
X16912Y72649D01*
X17025Y72605D01*
X17118Y72562D01*
X17149Y72543D01*
X17181Y72524D01*
X17206Y72512D01*
X17225Y72499D01*
X17231Y72487D01*
X17237D01*
X17343Y72393D01*
X17431Y72280D01*
X17506Y72174D01*
X17562Y72068D01*
X17599Y71974D01*
X17618Y71930D01*
X17631Y71893D01*
X17637Y71868D01*
X17643Y71843D01*
X17649Y71831D01*
Y71824D01*
X17712Y71937D01*
X17774Y72037D01*
X17843Y72124D01*
X17912Y72193D01*
X17968Y72249D01*
X18012Y72287D01*
X18043Y72312D01*
X18055Y72318D01*
X18155Y72374D01*
X18255Y72418D01*
X18349Y72443D01*
X18437Y72468D01*
X18512Y72480D01*
X18574Y72487D01*
X18612D01*
X18618D01*
X18624D01*
X18743Y72480D01*
X18855Y72462D01*
X18961Y72430D01*
X19055Y72399D01*
X19130Y72362D01*
X19193Y72337D01*
X19230Y72312D01*
X19236Y72305D01*
X19243D01*
X19349Y72237D01*
X19436Y72155D01*
X19518Y72068D01*
X19586Y71987D01*
X19636Y71912D01*
X19674Y71856D01*
X19686Y71831D01*
X19699Y71812D01*
X19705Y71806D01*
Y71799D01*
X19761Y71674D01*
X19805Y71549D01*
X19830Y71431D01*
X19855Y71318D01*
X19868Y71224D01*
Y71181D01*
X19874Y71149D01*
Y71081D01*
X19868Y70974D01*
X19861Y70875D01*
X19824Y70687D01*
X19768Y70525D01*
X19736Y70456D01*
X19711Y70387D01*
X19680Y70331D01*
X19649Y70275D01*
X19618Y70231D01*
X19593Y70193D01*
X19574Y70162D01*
X19555Y70143D01*
X19549Y70131D01*
X19543Y70125D01*
X19480Y70056D01*
X19411Y69994D01*
X19261Y69887D01*
X19111Y69806D01*
X18968Y69737D01*
X18899Y69712D01*
X18836Y69693D01*
X18774Y69675D01*
X18730Y69662D01*
X18687Y69650D01*
X18655Y69644D01*
X18637Y69637D01*
X18630D01*
X18524Y70225D01*
X18674Y70256D01*
X18805Y70293D01*
X18918Y70343D01*
X19005Y70393D01*
X19080Y70437D01*
X19130Y70475D01*
X19155Y70500D01*
X19168Y70512D01*
X19243Y70606D01*
X19293Y70700D01*
X19330Y70799D01*
X19361Y70887D01*
X19374Y70968D01*
X19380Y71037D01*
X19386Y71062D01*
Y71093D01*
X19380Y71218D01*
X19355Y71324D01*
X19318Y71424D01*
X19280Y71506D01*
X19236Y71568D01*
X19205Y71618D01*
X19180Y71643D01*
X19168Y71656D01*
X19087Y71730D01*
X18993Y71787D01*
X18905Y71824D01*
X18824Y71856D01*
X18749Y71868D01*
X18693Y71874D01*
X18649Y71880D01*
X18643D01*
X18637D01*
X18562Y71874D01*
X18493Y71868D01*
X18368Y71831D01*
X18262Y71787D01*
X18174Y71730D01*
X18112Y71674D01*
X18062Y71624D01*
X18037Y71587D01*
X18024Y71581D01*
Y71574D01*
X17962Y71462D01*
X17912Y71343D01*
X17881Y71231D01*
X17855Y71124D01*
X17843Y71037D01*
X17837Y70962D01*
X17830Y70937D01*
Y70868D01*
X17837Y70837D01*
X17843Y70818D01*
Y70806D01*
X17324Y70737D01*
X17343Y70824D01*
X17362Y70906D01*
X17374Y70981D01*
X17381Y71043D01*
X17387Y71087D01*
Y71156D01*
X17374Y71306D01*
X17343Y71437D01*
X17306Y71549D01*
X17256Y71649D01*
X17206Y71724D01*
X17168Y71781D01*
X17137Y71818D01*
X17125Y71831D01*
X17075Y71880D01*
X17018Y71918D01*
X16912Y71987D01*
X16800Y72037D01*
X16693Y72068D01*
X16600Y72087D01*
X16556Y72093D01*
X16525D01*
X16493Y72099D01*
X16475D01*
X16462D01*
X16456D01*
X16381D01*
X16306Y72087D01*
X16169Y72055D01*
X16043Y72005D01*
X15943Y71955D01*
X15856Y71905D01*
X15794Y71856D01*
X15775Y71837D01*
X15756Y71824D01*
X15750Y71818D01*
X15744Y71812D01*
X15694Y71755D01*
X15650Y71699D01*
X15575Y71581D01*
X15525Y71462D01*
X15494Y71349D01*
X15469Y71256D01*
X15462Y71212D01*
Y71174D01*
X15456Y71149D01*
Y71106D01*
X15469Y70981D01*
X15494Y70862D01*
X15525Y70762D01*
X15569Y70675D01*
X15606Y70600D01*
X15644Y70550D01*
X15669Y70518D01*
X15675Y70506D01*
X15719Y70462D01*
X15769Y70425D01*
X15887Y70356D01*
X16006Y70293D01*
X16125Y70250D01*
X16237Y70212D01*
X16281Y70200D01*
X16325Y70187D01*
X16356Y70181D01*
X16381Y70175D01*
X16400Y70168D01*
X16406D01*
X16325Y69581D01*
X16212Y69594D01*
X16106Y69619D01*
X16012Y69644D01*
X15919Y69681D01*
X15831Y69718D01*
X15750Y69756D01*
X15675Y69800D01*
X15606Y69837D01*
X15550Y69881D01*
X15494Y69918D01*
X15450Y69956D01*
X15412Y69987D01*
X15381Y70019D01*
X15362Y70037D01*
X15350Y70050D01*
X15344Y70056D01*
X15275Y70137D01*
X15219Y70218D01*
X15169Y70306D01*
X15125Y70400D01*
X15094Y70487D01*
X15063Y70575D01*
X15019Y70737D01*
X15000Y70812D01*
X14987Y70887D01*
X14981Y70950D01*
X14975Y70999D01*
X14969Y71043D01*
Y71106D01*
X14975Y71237D01*
X14987Y71356D01*
X15006Y71474D01*
X15037Y71581D01*
X15069Y71687D01*
X15106Y71781D01*
X15144Y71868D01*
X15187Y71949D01*
X15225Y72018D01*
X15263Y72080D01*
X15300Y72137D01*
X15331Y72180D01*
X15362Y72218D01*
X15381Y72243D01*
X15394Y72255D01*
X15400Y72262D01*
X15481Y72343D01*
X15569Y72412D01*
X15662Y72474D01*
X15750Y72530D01*
X15844Y72574D01*
X15931Y72611D01*
X16019Y72643D01*
X16100Y72668D01*
X16175Y72687D01*
X16243Y72699D01*
X16306Y72712D01*
X16362Y72718D01*
X16406Y72724D01*
X16443D01*
X16462D01*
X16468D01*
X16637Y72712D01*
D02*
G37*
G36*
X17706Y68938D02*
X17924Y68913D01*
X18024Y68900D01*
X18118Y68881D01*
X18205Y68863D01*
X18287Y68850D01*
X18362Y68831D01*
X18424Y68812D01*
X18480Y68794D01*
X18530Y68781D01*
X18568Y68769D01*
X18593Y68756D01*
X18612Y68750D01*
X18618D01*
X18799Y68675D01*
X18955Y68581D01*
X19099Y68488D01*
X19218Y68394D01*
X19268Y68350D01*
X19311Y68313D01*
X19349Y68275D01*
X19380Y68244D01*
X19405Y68219D01*
X19424Y68200D01*
X19430Y68188D01*
X19436Y68181D01*
X19524Y68069D01*
X19599Y67950D01*
X19655Y67832D01*
X19705Y67719D01*
X19736Y67625D01*
X19749Y67582D01*
X19761Y67544D01*
X19768Y67519D01*
X19774Y67494D01*
X19780Y67482D01*
Y67475D01*
X19805Y67357D01*
X19824Y67219D01*
X19836Y67076D01*
X19849Y66938D01*
Y66819D01*
X19855Y66763D01*
Y64970D01*
X15050D01*
Y66701D01*
X15056Y66857D01*
X15063Y67007D01*
X15075Y67138D01*
X15094Y67250D01*
X15106Y67344D01*
X15113Y67382D01*
X15119Y67413D01*
X15125Y67438D01*
Y67457D01*
X15131Y67463D01*
Y67469D01*
X15163Y67588D01*
X15200Y67700D01*
X15244Y67800D01*
X15281Y67881D01*
X15312Y67950D01*
X15344Y68000D01*
X15362Y68032D01*
X15369Y68044D01*
X15437Y68131D01*
X15506Y68219D01*
X15581Y68294D01*
X15650Y68356D01*
X15712Y68413D01*
X15762Y68450D01*
X15794Y68481D01*
X15806Y68488D01*
X15912Y68556D01*
X16031Y68625D01*
X16150Y68681D01*
X16262Y68725D01*
X16356Y68762D01*
X16400Y68775D01*
X16437Y68787D01*
X16462Y68800D01*
X16487Y68806D01*
X16500Y68812D01*
X16506D01*
X16668Y68856D01*
X16837Y68888D01*
X16999Y68913D01*
X17149Y68925D01*
X17218Y68931D01*
X17281Y68938D01*
X17337D01*
X17381Y68944D01*
X17424D01*
X17449D01*
X17468D01*
X17474D01*
X17706Y68938D01*
D02*
G37*
G36*
X19855Y63214D02*
X15050D01*
Y63851D01*
X19855D01*
Y63214D01*
D02*
G37*
G36*
Y59040D02*
X15050D01*
Y59677D01*
X17231D01*
Y61933D01*
X17799D01*
Y59677D01*
X19286D01*
Y62283D01*
X19855D01*
Y59040D01*
D02*
G37*
G36*
X241139Y198312D02*
X241251Y198393D01*
X241307Y198437D01*
X241351Y198475D01*
X241395Y198512D01*
X241426Y198537D01*
X241445Y198556D01*
X241451Y198562D01*
X241482Y198593D01*
X241526Y198637D01*
X241570Y198681D01*
X241614Y198731D01*
X241714Y198843D01*
X241813Y198962D01*
X241907Y199068D01*
X241951Y199118D01*
X241988Y199156D01*
X242013Y199193D01*
X242038Y199218D01*
X242051Y199237D01*
X242057Y199243D01*
X242157Y199356D01*
X242251Y199468D01*
X242332Y199562D01*
X242413Y199655D01*
X242488Y199737D01*
X242563Y199812D01*
X242626Y199881D01*
X242682Y199937D01*
X242732Y199993D01*
X242776Y200037D01*
X242813Y200074D01*
X242844Y200105D01*
X242869Y200124D01*
X242888Y200143D01*
X242894Y200155D01*
X242901D01*
X243013Y200249D01*
X243126Y200330D01*
X243226Y200399D01*
X243313Y200455D01*
X243382Y200499D01*
X243438Y200524D01*
X243475Y200543D01*
X243488Y200549D01*
X243594Y200586D01*
X243694Y200618D01*
X243794Y200637D01*
X243875Y200655D01*
X243950Y200662D01*
X244007Y200668D01*
X244044D01*
X244057D01*
X244163Y200662D01*
X244263Y200649D01*
X244356Y200630D01*
X244444Y200605D01*
X244606Y200537D01*
X244681Y200505D01*
X244744Y200468D01*
X244806Y200424D01*
X244856Y200393D01*
X244900Y200355D01*
X244938Y200324D01*
X244969Y200299D01*
X244988Y200280D01*
X245000Y200268D01*
X245006Y200262D01*
X245075Y200180D01*
X245131Y200099D01*
X245188Y200012D01*
X245231Y199918D01*
X245269Y199824D01*
X245300Y199737D01*
X245344Y199562D01*
X245362Y199481D01*
X245375Y199406D01*
X245381Y199337D01*
X245387Y199274D01*
X245394Y199231D01*
Y199162D01*
X245387Y199037D01*
X245381Y198918D01*
X245362Y198806D01*
X245338Y198706D01*
X245312Y198606D01*
X245281Y198518D01*
X245250Y198437D01*
X245219Y198362D01*
X245181Y198293D01*
X245150Y198237D01*
X245119Y198187D01*
X245094Y198143D01*
X245069Y198112D01*
X245050Y198087D01*
X245044Y198075D01*
X245038Y198068D01*
X244969Y197994D01*
X244894Y197931D01*
X244813Y197875D01*
X244725Y197825D01*
X244644Y197781D01*
X244557Y197743D01*
X244388Y197687D01*
X244313Y197662D01*
X244238Y197644D01*
X244175Y197631D01*
X244119Y197619D01*
X244069Y197612D01*
X244038D01*
X244013Y197606D01*
X244007D01*
X243944Y198212D01*
X244107Y198225D01*
X244244Y198250D01*
X244363Y198293D01*
X244469Y198343D01*
X244544Y198387D01*
X244606Y198431D01*
X244638Y198456D01*
X244650Y198468D01*
X244738Y198568D01*
X244800Y198681D01*
X244844Y198799D01*
X244875Y198906D01*
X244894Y198999D01*
X244900Y199043D01*
Y199081D01*
X244906Y199106D01*
Y199149D01*
X244894Y199293D01*
X244869Y199424D01*
X244831Y199537D01*
X244788Y199631D01*
X244738Y199706D01*
X244700Y199762D01*
X244675Y199793D01*
X244663Y199806D01*
X244569Y199893D01*
X244469Y199956D01*
X244375Y199999D01*
X244282Y200030D01*
X244200Y200049D01*
X244132Y200055D01*
X244107Y200062D01*
X244094D01*
X244082D01*
X244075D01*
X244013D01*
X243950Y200049D01*
X243819Y200018D01*
X243701Y199974D01*
X243594Y199924D01*
X243500Y199868D01*
X243463Y199843D01*
X243426Y199824D01*
X243400Y199806D01*
X243382Y199793D01*
X243369Y199787D01*
X243363Y199781D01*
X243288Y199724D01*
X243213Y199655D01*
X243132Y199581D01*
X243044Y199499D01*
X242876Y199324D01*
X242713Y199149D01*
X242638Y199068D01*
X242570Y198987D01*
X242507Y198912D01*
X242451Y198850D01*
X242407Y198799D01*
X242376Y198756D01*
X242351Y198731D01*
X242344Y198724D01*
X242195Y198543D01*
X242057Y198387D01*
X241932Y198256D01*
X241826Y198150D01*
X241738Y198062D01*
X241670Y198000D01*
X241645Y197981D01*
X241626Y197962D01*
X241620Y197956D01*
X241614Y197950D01*
X241495Y197856D01*
X241382Y197775D01*
X241276Y197712D01*
X241176Y197656D01*
X241095Y197612D01*
X241032Y197587D01*
X241007Y197575D01*
X240989Y197569D01*
X240982Y197562D01*
X240976D01*
X240901Y197537D01*
X240832Y197519D01*
X240764Y197506D01*
X240701Y197500D01*
X240645Y197494D01*
X240607D01*
X240583D01*
X240570D01*
Y200674D01*
X241139D01*
Y198312D01*
D02*
G37*
G36*
X243226Y196938D02*
X243444Y196912D01*
X243544Y196900D01*
X243638Y196881D01*
X243725Y196863D01*
X243807Y196850D01*
X243882Y196831D01*
X243944Y196812D01*
X244000Y196794D01*
X244050Y196781D01*
X244088Y196769D01*
X244113Y196756D01*
X244132Y196750D01*
X244138D01*
X244319Y196675D01*
X244475Y196581D01*
X244619Y196488D01*
X244738Y196394D01*
X244788Y196350D01*
X244831Y196313D01*
X244869Y196275D01*
X244900Y196244D01*
X244925Y196219D01*
X244944Y196200D01*
X244950Y196188D01*
X244956Y196181D01*
X245044Y196069D01*
X245119Y195950D01*
X245175Y195832D01*
X245225Y195719D01*
X245256Y195625D01*
X245269Y195582D01*
X245281Y195544D01*
X245287Y195519D01*
X245294Y195494D01*
X245300Y195482D01*
Y195475D01*
X245325Y195357D01*
X245344Y195219D01*
X245356Y195075D01*
X245369Y194938D01*
Y194819D01*
X245375Y194763D01*
Y192970D01*
X240570D01*
Y194701D01*
X240576Y194857D01*
X240583Y195007D01*
X240595Y195138D01*
X240614Y195250D01*
X240626Y195344D01*
X240632Y195382D01*
X240639Y195413D01*
X240645Y195438D01*
Y195457D01*
X240651Y195463D01*
Y195469D01*
X240683Y195588D01*
X240720Y195700D01*
X240764Y195800D01*
X240801Y195882D01*
X240832Y195950D01*
X240864Y196000D01*
X240882Y196031D01*
X240889Y196044D01*
X240957Y196131D01*
X241026Y196219D01*
X241101Y196294D01*
X241170Y196356D01*
X241232Y196413D01*
X241282Y196450D01*
X241314Y196481D01*
X241326Y196488D01*
X241432Y196556D01*
X241551Y196625D01*
X241670Y196681D01*
X241782Y196725D01*
X241876Y196763D01*
X241920Y196775D01*
X241957Y196787D01*
X241982Y196800D01*
X242007Y196806D01*
X242020Y196812D01*
X242026D01*
X242188Y196856D01*
X242357Y196887D01*
X242519Y196912D01*
X242670Y196925D01*
X242738Y196931D01*
X242801Y196938D01*
X242857D01*
X242901Y196944D01*
X242944D01*
X242969D01*
X242988D01*
X242994D01*
X243226Y196938D01*
D02*
G37*
G36*
X245375Y191214D02*
X240570D01*
Y191851D01*
X245375D01*
Y191214D01*
D02*
G37*
G36*
Y187040D02*
X240570D01*
Y187677D01*
X242751D01*
Y189933D01*
X243319D01*
Y187677D01*
X244806D01*
Y190283D01*
X245375D01*
Y187040D01*
D02*
G37*
%LPC*%
G36*
X141874Y79242D02*
X140350D01*
Y74351D01*
X141833D01*
X141958Y74360D01*
X142074D01*
X142183Y74368D01*
X142283Y74385D01*
X142374Y74393D01*
X142458Y74401D01*
X142524Y74418D01*
X142591Y74426D01*
X142641Y74443D01*
X142691Y74451D01*
X142724Y74460D01*
X142757Y74468D01*
X142774Y74476D01*
X142791Y74485D01*
X142874Y74526D01*
X142957Y74568D01*
X143116Y74676D01*
X143249Y74793D01*
X143366Y74918D01*
X143457Y75026D01*
X143532Y75118D01*
X143557Y75160D01*
X143574Y75185D01*
X143591Y75201D01*
Y75210D01*
X143649Y75318D01*
X143699Y75434D01*
X143782Y75676D01*
X143841Y75934D01*
X143882Y76184D01*
X143899Y76301D01*
X143907Y76409D01*
X143916Y76501D01*
Y76584D01*
X143924Y76651D01*
Y76709D01*
Y76743D01*
Y76751D01*
X143916Y77009D01*
X143899Y77251D01*
X143865Y77459D01*
X143849Y77551D01*
X143841Y77642D01*
X143824Y77717D01*
X143807Y77784D01*
X143791Y77842D01*
X143774Y77892D01*
X143765Y77934D01*
X143757Y77959D01*
X143749Y77976D01*
Y77984D01*
X143682Y78167D01*
X143607Y78325D01*
X143532Y78467D01*
X143457Y78584D01*
X143382Y78675D01*
X143332Y78742D01*
X143299Y78784D01*
X143282Y78800D01*
X143199Y78875D01*
X143099Y78942D01*
X143007Y78992D01*
X142916Y79042D01*
X142832Y79075D01*
X142766Y79100D01*
X142724Y79117D01*
X142716Y79125D01*
X142708D01*
X142566Y79167D01*
X142399Y79192D01*
X142233Y79217D01*
X142074Y79225D01*
X141933Y79233D01*
X141874Y79242D01*
D02*
G37*
G36*
X111874D02*
X110350D01*
Y74351D01*
X111833D01*
X111958Y74360D01*
X112074D01*
X112183Y74368D01*
X112283Y74385D01*
X112374Y74393D01*
X112458Y74401D01*
X112524Y74418D01*
X112591Y74426D01*
X112641Y74443D01*
X112691Y74451D01*
X112724Y74460D01*
X112758Y74468D01*
X112774Y74476D01*
X112791Y74485D01*
X112874Y74526D01*
X112957Y74568D01*
X113116Y74676D01*
X113249Y74793D01*
X113366Y74918D01*
X113457Y75026D01*
X113532Y75118D01*
X113557Y75160D01*
X113574Y75185D01*
X113591Y75201D01*
Y75210D01*
X113649Y75318D01*
X113699Y75434D01*
X113782Y75676D01*
X113841Y75934D01*
X113882Y76184D01*
X113899Y76301D01*
X113907Y76409D01*
X113916Y76501D01*
Y76584D01*
X113924Y76651D01*
Y76709D01*
Y76743D01*
Y76751D01*
X113916Y77009D01*
X113899Y77251D01*
X113866Y77459D01*
X113849Y77551D01*
X113841Y77642D01*
X113824Y77717D01*
X113807Y77784D01*
X113791Y77842D01*
X113774Y77892D01*
X113766Y77934D01*
X113757Y77959D01*
X113749Y77976D01*
Y77984D01*
X113682Y78167D01*
X113607Y78325D01*
X113532Y78467D01*
X113457Y78584D01*
X113382Y78675D01*
X113332Y78742D01*
X113299Y78784D01*
X113282Y78800D01*
X113199Y78875D01*
X113099Y78942D01*
X113007Y78992D01*
X112916Y79042D01*
X112832Y79075D01*
X112766Y79100D01*
X112724Y79117D01*
X112716Y79125D01*
X112708D01*
X112566Y79167D01*
X112399Y79192D01*
X112233Y79217D01*
X112074Y79225D01*
X111933Y79233D01*
X111874Y79242D01*
D02*
G37*
G36*
X81875D02*
X80350D01*
Y74351D01*
X81833D01*
X81958Y74360D01*
X82074D01*
X82183Y74368D01*
X82283Y74385D01*
X82374Y74393D01*
X82458Y74401D01*
X82524Y74418D01*
X82591Y74426D01*
X82641Y74443D01*
X82691Y74451D01*
X82724Y74460D01*
X82758Y74468D01*
X82774Y74476D01*
X82791Y74485D01*
X82874Y74526D01*
X82957Y74568D01*
X83116Y74676D01*
X83249Y74793D01*
X83366Y74918D01*
X83457Y75026D01*
X83532Y75118D01*
X83557Y75160D01*
X83574Y75185D01*
X83591Y75201D01*
Y75210D01*
X83649Y75318D01*
X83699Y75434D01*
X83782Y75676D01*
X83841Y75934D01*
X83882Y76184D01*
X83899Y76301D01*
X83907Y76409D01*
X83916Y76501D01*
Y76584D01*
X83924Y76651D01*
Y76709D01*
Y76743D01*
Y76751D01*
X83916Y77009D01*
X83899Y77251D01*
X83866Y77459D01*
X83849Y77551D01*
X83841Y77642D01*
X83824Y77717D01*
X83807Y77784D01*
X83791Y77842D01*
X83774Y77892D01*
X83766Y77934D01*
X83757Y77959D01*
X83749Y77976D01*
Y77984D01*
X83682Y78167D01*
X83607Y78325D01*
X83532Y78467D01*
X83457Y78584D01*
X83382Y78675D01*
X83332Y78742D01*
X83299Y78784D01*
X83282Y78800D01*
X83199Y78875D01*
X83099Y78942D01*
X83007Y78992D01*
X82916Y79042D01*
X82832Y79075D01*
X82766Y79100D01*
X82724Y79117D01*
X82716Y79125D01*
X82708D01*
X82566Y79167D01*
X82399Y79192D01*
X82233Y79217D01*
X82074Y79225D01*
X81933Y79233D01*
X81875Y79242D01*
D02*
G37*
G36*
X212524Y137862D02*
X212482D01*
X212324Y137845D01*
X212182Y137812D01*
X212057Y137770D01*
X211949Y137712D01*
X211857Y137654D01*
X211791Y137612D01*
X211757Y137579D01*
X211741Y137562D01*
X211641Y137445D01*
X211566Y137329D01*
X211516Y137204D01*
X211474Y137087D01*
X211457Y136987D01*
X211449Y136912D01*
X211441Y136879D01*
Y136854D01*
Y136845D01*
Y136837D01*
X211449Y136687D01*
X211482Y136554D01*
X211532Y136429D01*
X211582Y136329D01*
X211641Y136246D01*
X211682Y136187D01*
X211716Y136154D01*
X211732Y136137D01*
X211849Y136046D01*
X211974Y135971D01*
X212099Y135921D01*
X212216Y135887D01*
X212316Y135871D01*
X212399Y135862D01*
X212432Y135854D01*
X212474D01*
X212640Y135862D01*
X212790Y135896D01*
X212924Y135946D01*
X213032Y135996D01*
X213124Y136046D01*
X213190Y136096D01*
X213224Y136129D01*
X213240Y136137D01*
X213332Y136254D01*
X213407Y136379D01*
X213457Y136504D01*
X213490Y136621D01*
X213507Y136721D01*
X213515Y136804D01*
X213524Y136837D01*
Y136862D01*
Y136870D01*
Y136879D01*
X213507Y137020D01*
X213474Y137154D01*
X213432Y137270D01*
X213374Y137379D01*
X213324Y137454D01*
X213274Y137520D01*
X213240Y137554D01*
X213232Y137570D01*
X213115Y137670D01*
X212990Y137737D01*
X212865Y137787D01*
X212749Y137829D01*
X212640Y137845D01*
X212557Y137853D01*
X212524Y137862D01*
D02*
G37*
G36*
X212557Y135212D02*
X212399D01*
X212299Y135196D01*
X212116Y135154D01*
X211957Y135096D01*
X211816Y135029D01*
X211707Y134954D01*
X211624Y134896D01*
X211574Y134854D01*
X211557Y134846D01*
Y134838D01*
X211491Y134771D01*
X211432Y134696D01*
X211341Y134538D01*
X211274Y134379D01*
X211232Y134229D01*
X211199Y134096D01*
X211191Y134038D01*
Y133996D01*
X211182Y133954D01*
Y133921D01*
Y133904D01*
Y133896D01*
Y133796D01*
X211199Y133696D01*
X211241Y133521D01*
X211299Y133363D01*
X211366Y133230D01*
X211432Y133121D01*
X211491Y133046D01*
X211532Y132996D01*
X211541Y132988D01*
X211549Y132980D01*
X211616Y132913D01*
X211691Y132863D01*
X211849Y132772D01*
X212007Y132713D01*
X212149Y132663D01*
X212282Y132638D01*
X212341Y132630D01*
X212390D01*
X212424Y132621D01*
X212482D01*
X212616Y132630D01*
X212740Y132647D01*
X212849Y132671D01*
X212957Y132705D01*
X213040Y132738D01*
X213099Y132763D01*
X213140Y132780D01*
X213157Y132788D01*
X213265Y132863D01*
X213365Y132938D01*
X213449Y133021D01*
X213515Y133096D01*
X213565Y133163D01*
X213599Y133221D01*
X213624Y133255D01*
X213632Y133271D01*
X213682Y133388D01*
X213715Y133505D01*
X213748Y133621D01*
X213765Y133721D01*
X213773Y133805D01*
X213782Y133871D01*
Y133913D01*
Y133930D01*
X213773Y134030D01*
X213765Y134129D01*
X213724Y134304D01*
X213665Y134463D01*
X213599Y134596D01*
X213540Y134704D01*
X213482Y134779D01*
X213440Y134829D01*
X213424Y134846D01*
X213357Y134913D01*
X213282Y134971D01*
X213132Y135054D01*
X212974Y135121D01*
X212832Y135171D01*
X212699Y135196D01*
X212649Y135204D01*
X212599D01*
X212557Y135212D01*
D02*
G37*
G36*
X212184Y177209D02*
X210251D01*
Y175693D01*
X210260Y175585D01*
X210268Y175493D01*
X210276Y175401D01*
Y175318D01*
X210285Y175251D01*
X210293Y175185D01*
X210310Y175085D01*
X210326Y175018D01*
X210335Y174977D01*
X210343Y174960D01*
X210385Y174860D01*
X210435Y174768D01*
X210485Y174702D01*
X210543Y174635D01*
X210593Y174585D01*
X210635Y174552D01*
X210668Y174535D01*
X210676Y174527D01*
X210768Y174477D01*
X210868Y174435D01*
X210960Y174410D01*
X211043Y174385D01*
X211118Y174377D01*
X211185Y174368D01*
X211218D01*
X211234D01*
X211360Y174377D01*
X211468Y174393D01*
X211568Y174418D01*
X211643Y174452D01*
X211709Y174485D01*
X211759Y174510D01*
X211793Y174527D01*
X211801Y174535D01*
X211876Y174602D01*
X211943Y174685D01*
X211993Y174760D01*
X212043Y174843D01*
X212076Y174918D01*
X212101Y174977D01*
X212109Y175010D01*
X212118Y175026D01*
X212143Y175126D01*
X212159Y175251D01*
X212168Y175385D01*
X212176Y175518D01*
X212184Y175635D01*
Y177209D01*
D02*
G37*
G36*
X215142D02*
X212942D01*
Y175735D01*
X212951Y175518D01*
X212959Y175335D01*
X212976Y175168D01*
X212992Y175043D01*
X213017Y174935D01*
X213034Y174860D01*
X213042Y174818D01*
X213051Y174802D01*
X213101Y174685D01*
X213151Y174585D01*
X213217Y174502D01*
X213276Y174427D01*
X213334Y174368D01*
X213384Y174327D01*
X213417Y174302D01*
X213426Y174293D01*
X213526Y174227D01*
X213634Y174185D01*
X213734Y174152D01*
X213834Y174127D01*
X213917Y174110D01*
X213984Y174102D01*
X214025D01*
X214042D01*
X214150Y174110D01*
X214259Y174118D01*
X214350Y174143D01*
X214425Y174168D01*
X214492Y174193D01*
X214542Y174210D01*
X214575Y174227D01*
X214584Y174235D01*
X214667Y174285D01*
X214734Y174335D01*
X214800Y174393D01*
X214850Y174443D01*
X214892Y174493D01*
X214917Y174527D01*
X214934Y174552D01*
X214942Y174560D01*
X214984Y174635D01*
X215025Y174718D01*
X215050Y174793D01*
X215075Y174876D01*
X215092Y174943D01*
X215109Y174993D01*
X215117Y175026D01*
Y175043D01*
X215125Y175118D01*
X215133Y175201D01*
X215142Y175393D01*
Y177209D01*
D02*
G37*
G36*
X160325Y131631D02*
X160300D01*
X160281D01*
X160275D01*
X160181D01*
X160093Y131618D01*
X159931Y131587D01*
X159787Y131543D01*
X159669Y131499D01*
X159625Y131474D01*
X159581Y131449D01*
X159544Y131424D01*
X159512Y131406D01*
X159487Y131387D01*
X159469Y131374D01*
X159462Y131368D01*
X159456Y131362D01*
X159406Y131312D01*
X159356Y131256D01*
X159281Y131150D01*
X159231Y131043D01*
X159194Y130937D01*
X159175Y130850D01*
X159162Y130781D01*
X159156Y130756D01*
Y130718D01*
X159162Y130625D01*
X159181Y130537D01*
X159200Y130450D01*
X159231Y130381D01*
X159256Y130318D01*
X159275Y130268D01*
X159294Y130244D01*
X159300Y130231D01*
X159362Y130150D01*
X159425Y130075D01*
X159494Y130012D01*
X159562Y129962D01*
X159625Y129925D01*
X159675Y129894D01*
X159706Y129875D01*
X159719Y129869D01*
X159825Y129825D01*
X159931Y129794D01*
X160031Y129775D01*
X160118Y129762D01*
X160193Y129750D01*
X160256Y129744D01*
X160293D01*
X160300D01*
X160306D01*
X160393Y129750D01*
X160475Y129756D01*
X160625Y129787D01*
X160749Y129831D01*
X160862Y129881D01*
X160949Y129931D01*
X161012Y129975D01*
X161031Y129993D01*
X161049Y130006D01*
X161056Y130019D01*
X161062D01*
X161112Y130069D01*
X161156Y130125D01*
X161231Y130237D01*
X161281Y130356D01*
X161312Y130462D01*
X161337Y130550D01*
X161343Y130593D01*
Y130625D01*
X161349Y130656D01*
Y130768D01*
X161337Y130837D01*
X161306Y130968D01*
X161256Y131081D01*
X161206Y131181D01*
X161156Y131256D01*
X161106Y131312D01*
X161074Y131349D01*
X161068Y131362D01*
X161062D01*
X161006Y131412D01*
X160943Y131449D01*
X160818Y131518D01*
X160687Y131568D01*
X160562Y131599D01*
X160450Y131618D01*
X160400Y131624D01*
X160356D01*
X160325Y131631D01*
D02*
G37*
G36*
X162193Y127863D02*
X162155D01*
X162149D01*
X162143D01*
X161993Y127850D01*
X161868Y127819D01*
X161756Y127782D01*
X161662Y127732D01*
X161587Y127682D01*
X161537Y127644D01*
X161506Y127613D01*
X161493Y127600D01*
X161456Y127550D01*
X161418Y127488D01*
X161362Y127357D01*
X161324Y127213D01*
X161299Y127069D01*
X161281Y126938D01*
X161274Y126882D01*
Y126832D01*
X161268Y126788D01*
Y125495D01*
X162986D01*
Y126869D01*
X162980Y126994D01*
X162974Y127094D01*
X162968Y127176D01*
X162955Y127232D01*
X162949Y127275D01*
X162943Y127301D01*
Y127307D01*
X162911Y127394D01*
X162868Y127475D01*
X162824Y127544D01*
X162774Y127600D01*
X162730Y127644D01*
X162693Y127682D01*
X162668Y127700D01*
X162655Y127707D01*
X162574Y127757D01*
X162486Y127794D01*
X162399Y127825D01*
X162318Y127844D01*
X162249Y127857D01*
X162193Y127863D01*
D02*
G37*
G36*
X191754Y127729D02*
X191705D01*
X191579Y127720D01*
X191463Y127695D01*
X191346Y127670D01*
X191255Y127628D01*
X191171Y127595D01*
X191105Y127570D01*
X191071Y127545D01*
X191055Y127537D01*
X190946Y127453D01*
X190846Y127370D01*
X190763Y127279D01*
X190696Y127187D01*
X190646Y127104D01*
X190605Y127037D01*
X190580Y126995D01*
X190571Y126979D01*
X190513Y126837D01*
X190471Y126695D01*
X190446Y126562D01*
X190430Y126446D01*
X190413Y126346D01*
X190405Y126262D01*
Y126212D01*
Y126204D01*
Y126195D01*
X190413Y126079D01*
X190422Y125971D01*
X190463Y125771D01*
X190521Y125604D01*
X190588Y125454D01*
X190655Y125337D01*
X190713Y125254D01*
X190738Y125229D01*
X190755Y125204D01*
X190771Y125196D01*
Y125188D01*
X190838Y125121D01*
X190913Y125063D01*
X191063Y124963D01*
X191221Y124896D01*
X191363Y124854D01*
X191479Y124821D01*
X191538Y124813D01*
X191579D01*
X191621Y124804D01*
X191771D01*
X191863Y124821D01*
X192038Y124862D01*
X192188Y124929D01*
X192321Y124996D01*
X192421Y125063D01*
X192496Y125129D01*
X192546Y125171D01*
X192563Y125179D01*
Y125188D01*
X192629Y125262D01*
X192679Y125346D01*
X192771Y125512D01*
X192838Y125687D01*
X192879Y125854D01*
X192904Y126004D01*
X192913Y126071D01*
Y126129D01*
X192921Y126171D01*
Y126204D01*
Y126229D01*
Y126237D01*
Y126362D01*
X192904Y126479D01*
X192862Y126695D01*
X192804Y126887D01*
X192746Y127045D01*
X192712Y127104D01*
X192679Y127162D01*
X192646Y127212D01*
X192621Y127254D01*
X192596Y127287D01*
X192579Y127312D01*
X192571Y127320D01*
X192563Y127329D01*
X192496Y127395D01*
X192421Y127462D01*
X192279Y127562D01*
X192138Y127628D01*
X191996Y127678D01*
X191879Y127704D01*
X191788Y127720D01*
X191754Y127729D01*
D02*
G37*
G36*
X168543Y142087D02*
X168505D01*
X168499D01*
X168493D01*
X168343Y142074D01*
X168218Y142043D01*
X168106Y142006D01*
X168012Y141956D01*
X167937Y141906D01*
X167887Y141868D01*
X167855Y141837D01*
X167843Y141824D01*
X167806Y141774D01*
X167768Y141712D01*
X167712Y141581D01*
X167674Y141437D01*
X167649Y141293D01*
X167631Y141162D01*
X167624Y141106D01*
Y141056D01*
X167618Y141012D01*
Y139719D01*
X169336D01*
Y141093D01*
X169330Y141218D01*
X169324Y141318D01*
X169318Y141399D01*
X169305Y141456D01*
X169299Y141500D01*
X169293Y141524D01*
Y141531D01*
X169261Y141618D01*
X169218Y141699D01*
X169174Y141768D01*
X169124Y141824D01*
X169080Y141868D01*
X169043Y141906D01*
X169018Y141924D01*
X169005Y141931D01*
X168924Y141981D01*
X168836Y142018D01*
X168749Y142049D01*
X168668Y142068D01*
X168599Y142081D01*
X168543Y142087D01*
D02*
G37*
G36*
X143491Y156636D02*
X142117D01*
X141992Y156630D01*
X141892Y156624D01*
X141811Y156618D01*
X141754Y156605D01*
X141711Y156599D01*
X141685Y156593D01*
X141679D01*
X141592Y156561D01*
X141511Y156518D01*
X141442Y156474D01*
X141386Y156424D01*
X141342Y156380D01*
X141304Y156343D01*
X141286Y156318D01*
X141279Y156305D01*
X141229Y156224D01*
X141192Y156137D01*
X141161Y156049D01*
X141142Y155968D01*
X141129Y155899D01*
X141123Y155843D01*
Y155805D01*
Y155799D01*
Y155793D01*
X141136Y155643D01*
X141167Y155518D01*
X141204Y155406D01*
X141254Y155312D01*
X141304Y155237D01*
X141342Y155187D01*
X141373Y155155D01*
X141386Y155143D01*
X141436Y155106D01*
X141498Y155068D01*
X141629Y155012D01*
X141773Y154974D01*
X141917Y154949D01*
X142048Y154931D01*
X142104Y154924D01*
X142154D01*
X142198Y154918D01*
X143491D01*
Y156636D01*
D02*
G37*
G36*
X160001D02*
X158627D01*
X158502Y156630D01*
X158402Y156624D01*
X158321Y156618D01*
X158264Y156605D01*
X158221Y156599D01*
X158195Y156593D01*
X158189D01*
X158102Y156561D01*
X158021Y156518D01*
X157952Y156474D01*
X157896Y156424D01*
X157852Y156380D01*
X157814Y156343D01*
X157796Y156318D01*
X157789Y156305D01*
X157739Y156224D01*
X157702Y156137D01*
X157671Y156049D01*
X157652Y155968D01*
X157639Y155899D01*
X157633Y155843D01*
Y155805D01*
Y155799D01*
Y155793D01*
X157646Y155643D01*
X157677Y155518D01*
X157714Y155406D01*
X157764Y155312D01*
X157814Y155237D01*
X157852Y155187D01*
X157883Y155155D01*
X157896Y155143D01*
X157946Y155106D01*
X158008Y155068D01*
X158139Y155012D01*
X158283Y154974D01*
X158427Y154949D01*
X158558Y154931D01*
X158614Y154924D01*
X158664D01*
X158708Y154918D01*
X160001D01*
Y156636D01*
D02*
G37*
G36*
X154515Y156262D02*
Y154093D01*
X156027D01*
X154515Y156262D01*
D02*
G37*
G36*
X219343Y163677D02*
X219305D01*
X219299D01*
X219293D01*
X219143Y163664D01*
X219018Y163633D01*
X218906Y163596D01*
X218812Y163546D01*
X218737Y163496D01*
X218687Y163458D01*
X218655Y163427D01*
X218643Y163414D01*
X218606Y163364D01*
X218568Y163302D01*
X218512Y163171D01*
X218474Y163027D01*
X218449Y162883D01*
X218431Y162752D01*
X218424Y162696D01*
Y162646D01*
X218418Y162602D01*
Y161309D01*
X220136D01*
Y162683D01*
X220130Y162808D01*
X220124Y162908D01*
X220118Y162990D01*
X220105Y163046D01*
X220099Y163090D01*
X220093Y163114D01*
Y163121D01*
X220061Y163208D01*
X220018Y163289D01*
X219974Y163358D01*
X219924Y163414D01*
X219880Y163458D01*
X219843Y163496D01*
X219818Y163514D01*
X219805Y163521D01*
X219724Y163571D01*
X219636Y163608D01*
X219549Y163639D01*
X219468Y163658D01*
X219399Y163671D01*
X219343Y163677D01*
D02*
G37*
G36*
X181846Y140180D02*
X179722D01*
Y138031D01*
X179738Y137906D01*
X179746Y137797D01*
X179771Y137697D01*
X179788Y137598D01*
X179813Y137514D01*
X179846Y137439D01*
X179871Y137373D01*
X179930Y137256D01*
X179971Y137181D01*
X180005Y137131D01*
X180021Y137114D01*
X180138Y137006D01*
X180263Y136923D01*
X180388Y136864D01*
X180505Y136823D01*
X180613Y136798D01*
X180696Y136789D01*
X180730Y136781D01*
X180755D01*
X180763D01*
X180771D01*
X180888Y136789D01*
X180988Y136806D01*
X181088Y136839D01*
X181171Y136864D01*
X181246Y136898D01*
X181296Y136931D01*
X181338Y136948D01*
X181346Y136956D01*
X181438Y137023D01*
X181521Y137106D01*
X181588Y137189D01*
X181638Y137264D01*
X181679Y137339D01*
X181704Y137398D01*
X181721Y137439D01*
X181729Y137456D01*
X181771Y137589D01*
X181796Y137731D01*
X181821Y137889D01*
X181829Y138031D01*
X181838Y138164D01*
X181846Y138222D01*
Y140180D01*
D02*
G37*
G36*
X238149Y110103D02*
X235258D01*
Y108087D01*
X238149Y110103D01*
D02*
G37*
G36*
X17562Y68288D02*
X17518D01*
X17493D01*
X17487D01*
X17293Y68281D01*
X17112Y68269D01*
X16956Y68244D01*
X16887Y68231D01*
X16818Y68225D01*
X16762Y68213D01*
X16712Y68200D01*
X16668Y68188D01*
X16631Y68175D01*
X16600Y68169D01*
X16581Y68163D01*
X16568Y68156D01*
X16562D01*
X16425Y68106D01*
X16306Y68050D01*
X16200Y67994D01*
X16112Y67938D01*
X16043Y67881D01*
X15993Y67844D01*
X15962Y67819D01*
X15950Y67807D01*
X15893Y67744D01*
X15844Y67669D01*
X15806Y67600D01*
X15769Y67532D01*
X15744Y67469D01*
X15725Y67419D01*
X15712Y67388D01*
X15706Y67382D01*
Y67375D01*
X15675Y67269D01*
X15656Y67144D01*
X15637Y67019D01*
X15631Y66901D01*
X15625Y66794D01*
X15619Y66750D01*
Y65607D01*
X19286D01*
Y66719D01*
X19280Y66813D01*
Y66901D01*
X19274Y66982D01*
X19261Y67057D01*
X19255Y67125D01*
X19249Y67188D01*
X19236Y67238D01*
X19230Y67288D01*
X19218Y67325D01*
X19211Y67363D01*
X19205Y67388D01*
X19199Y67413D01*
X19193Y67425D01*
X19186Y67438D01*
X19155Y67500D01*
X19124Y67563D01*
X19043Y67682D01*
X18955Y67782D01*
X18862Y67869D01*
X18780Y67938D01*
X18712Y67994D01*
X18680Y68013D01*
X18662Y68025D01*
X18649Y68038D01*
X18643D01*
X18562Y68081D01*
X18474Y68119D01*
X18293Y68181D01*
X18099Y68225D01*
X17912Y68256D01*
X17824Y68269D01*
X17743Y68275D01*
X17674Y68281D01*
X17612D01*
X17562Y68288D01*
D02*
G37*
G36*
X243082Y196288D02*
X243038D01*
X243013D01*
X243007D01*
X242813Y196281D01*
X242632Y196269D01*
X242476Y196244D01*
X242407Y196231D01*
X242338Y196225D01*
X242282Y196213D01*
X242232Y196200D01*
X242188Y196188D01*
X242151Y196175D01*
X242120Y196169D01*
X242101Y196163D01*
X242088Y196156D01*
X242082D01*
X241945Y196106D01*
X241826Y196050D01*
X241720Y195994D01*
X241632Y195938D01*
X241563Y195882D01*
X241514Y195844D01*
X241482Y195819D01*
X241470Y195807D01*
X241413Y195744D01*
X241364Y195669D01*
X241326Y195600D01*
X241289Y195532D01*
X241264Y195469D01*
X241245Y195419D01*
X241232Y195388D01*
X241226Y195382D01*
Y195375D01*
X241195Y195269D01*
X241176Y195144D01*
X241157Y195019D01*
X241151Y194900D01*
X241145Y194794D01*
X241139Y194750D01*
Y193607D01*
X244806D01*
Y194719D01*
X244800Y194813D01*
Y194900D01*
X244794Y194982D01*
X244781Y195057D01*
X244775Y195125D01*
X244769Y195188D01*
X244756Y195238D01*
X244750Y195288D01*
X244738Y195325D01*
X244731Y195363D01*
X244725Y195388D01*
X244719Y195413D01*
X244713Y195425D01*
X244706Y195438D01*
X244675Y195500D01*
X244644Y195563D01*
X244563Y195681D01*
X244475Y195781D01*
X244382Y195869D01*
X244300Y195938D01*
X244232Y195994D01*
X244200Y196013D01*
X244182Y196025D01*
X244169Y196038D01*
X244163D01*
X244082Y196081D01*
X243994Y196119D01*
X243813Y196181D01*
X243619Y196225D01*
X243432Y196256D01*
X243344Y196269D01*
X243263Y196275D01*
X243194Y196281D01*
X243132D01*
X243082Y196288D01*
D02*
G37*
%LPD*%
D11*
X129754Y83900D02*
D03*
X99754D02*
D03*
X69754D02*
D03*
D13*
X166250Y120396D02*
X165844Y122831D01*
X164669Y125003D01*
X162852Y126675D01*
X160591Y127667D01*
X158131Y127870D01*
X155737Y127264D01*
X153670Y125914D01*
X152154Y123966D01*
X151352Y121630D01*
Y119162D01*
X152154Y116826D01*
X153670Y114878D01*
X155737Y113528D01*
X158131Y112922D01*
X160591Y113125D01*
X162852Y114117D01*
X164669Y115789D01*
X165844Y117961D01*
X166250Y120396D01*
X172600Y134620D02*
X172194Y137055D01*
X171019Y139227D01*
X169202Y140899D01*
X166941Y141890D01*
X164481Y142094D01*
X162087Y141488D01*
X160020Y140138D01*
X158504Y138190D01*
X157702Y135855D01*
Y133385D01*
X158504Y131050D01*
X160020Y129102D01*
X162087Y127752D01*
X164481Y127146D01*
X166941Y127350D01*
X169202Y128341D01*
X171019Y130013D01*
X172194Y132185D01*
X172600Y134620D01*
X156090Y152400D02*
X155684Y154835D01*
X154509Y157007D01*
X152692Y158679D01*
X150431Y159670D01*
X147971Y159874D01*
X145577Y159268D01*
X143510Y157918D01*
X141994Y155970D01*
X141192Y153635D01*
Y151166D01*
X141994Y148830D01*
X143510Y146882D01*
X145577Y145532D01*
X147971Y144926D01*
X150431Y145129D01*
X152692Y146121D01*
X154509Y147793D01*
X155684Y149965D01*
X156090Y152400D01*
X172600D02*
X172194Y154835D01*
X171019Y157007D01*
X169202Y158679D01*
X166941Y159670D01*
X164481Y159874D01*
X162087Y159268D01*
X160020Y157918D01*
X158504Y155970D01*
X157702Y153635D01*
Y151166D01*
X158504Y148830D01*
X160020Y146882D01*
X162087Y145532D01*
X164481Y144926D01*
X166941Y145129D01*
X169202Y146121D01*
X171019Y147793D01*
X172194Y149965D01*
X172600Y152400D01*
X223400Y156210D02*
X222994Y158645D01*
X221819Y160817D01*
X220002Y162489D01*
X217741Y163480D01*
X215281Y163684D01*
X212887Y163078D01*
X210820Y161728D01*
X209304Y159780D01*
X208502Y157444D01*
Y154976D01*
X209304Y152640D01*
X210820Y150692D01*
X212887Y149342D01*
X215281Y148736D01*
X217741Y148940D01*
X220002Y149931D01*
X221819Y151603D01*
X222994Y153775D01*
X223400Y156210D01*
X36000Y225310D02*
X35703Y227847D01*
X34830Y230247D01*
X33426Y232381D01*
X31569Y234133D01*
X29357Y235410D01*
X26910Y236143D01*
X24360Y236291D01*
X21845Y235848D01*
X19500Y234836D01*
X17451Y233311D01*
X15810Y231355D01*
X14663Y229072D01*
X14074Y226587D01*
Y224033D01*
X14663Y221548D01*
X15810Y219265D01*
X17451Y217309D01*
X19500Y215784D01*
X21845Y214772D01*
X24360Y214329D01*
X26910Y214477D01*
X29357Y215210D01*
X31569Y216487D01*
X33426Y218239D01*
X34830Y220373D01*
X35703Y222773D01*
X36000Y225310D01*
X246000Y100310D02*
X245704Y102847D01*
X244830Y105247D01*
X243426Y107381D01*
X241569Y109133D01*
X239357Y110410D01*
X236910Y111143D01*
X234360Y111291D01*
X231845Y110848D01*
X229500Y109836D01*
X227451Y108311D01*
X225810Y106355D01*
X224663Y104072D01*
X224074Y101587D01*
Y99033D01*
X224663Y96548D01*
X225810Y94265D01*
X227451Y92309D01*
X229500Y90784D01*
X231845Y89772D01*
X234360Y89329D01*
X236910Y89477D01*
X239357Y90210D01*
X241569Y91487D01*
X243426Y93239D01*
X244830Y95373D01*
X245704Y97773D01*
X246000Y100310D01*
X36000D02*
X35703Y102847D01*
X34830Y105247D01*
X33426Y107381D01*
X31569Y109133D01*
X29357Y110410D01*
X26910Y111143D01*
X24360Y111291D01*
X21845Y110848D01*
X19500Y109836D01*
X17451Y108311D01*
X15810Y106355D01*
X14663Y104072D01*
X14074Y101587D01*
Y99033D01*
X14663Y96548D01*
X15810Y94265D01*
X17451Y92309D01*
X19500Y90784D01*
X21845Y89772D01*
X24360Y89329D01*
X26910Y89477D01*
X29357Y90210D01*
X31569Y91487D01*
X33426Y93239D01*
X34830Y95373D01*
X35703Y97773D01*
X36000Y100310D01*
X246000Y225310D02*
X245704Y227847D01*
X244830Y230247D01*
X243426Y232381D01*
X241569Y234133D01*
X239357Y235410D01*
X236910Y236143D01*
X234360Y236291D01*
X231845Y235848D01*
X229500Y234836D01*
X227451Y233311D01*
X225810Y231355D01*
X224663Y229072D01*
X224074Y226587D01*
Y224033D01*
X224663Y221548D01*
X225810Y219265D01*
X227451Y217309D01*
X229500Y215784D01*
X231845Y214772D01*
X234360Y214329D01*
X236910Y214477D01*
X239357Y215210D01*
X241569Y216487D01*
X243426Y218239D01*
X244830Y220373D01*
X245704Y222773D01*
X246000Y225310D01*
X29050Y66040D02*
X28736Y68527D01*
X27813Y70858D01*
X26340Y72885D01*
X24408Y74483D01*
X22140Y75551D01*
X19678Y76020D01*
X17176Y75863D01*
X14792Y75088D01*
X12676Y73745D01*
X10960Y71918D01*
X9752Y69721D01*
X9129Y67293D01*
Y64787D01*
X9752Y62359D01*
X10960Y60162D01*
X12676Y58335D01*
X14792Y56992D01*
X17176Y56217D01*
X19678Y56060D01*
X22140Y56529D01*
X24408Y57597D01*
X26340Y59194D01*
X27813Y61223D01*
X28736Y63553D01*
X29050Y66040D01*
X252570Y193040D02*
X252256Y195527D01*
X251333Y197857D01*
X249860Y199886D01*
X247928Y201483D01*
X245660Y202551D01*
X243198Y203020D01*
X240696Y202863D01*
X238312Y202088D01*
X236196Y200745D01*
X234480Y198918D01*
X233272Y196721D01*
X232649Y194293D01*
Y191787D01*
X233272Y189359D01*
X234480Y187162D01*
X236196Y185335D01*
X238312Y183992D01*
X240696Y183217D01*
X243198Y183060D01*
X245660Y183529D01*
X247928Y184597D01*
X249860Y186194D01*
X251333Y188223D01*
X252256Y190553D01*
X252570Y193040D01*
X153500Y71000D02*
Y89000D01*
X125500D02*
X153500D01*
X125500Y71000D02*
Y89000D01*
Y71000D02*
X153500D01*
X123500D02*
Y89000D01*
X95500D02*
X123500D01*
X95500Y71000D02*
Y89000D01*
Y71000D02*
X123500D01*
X93500D02*
Y89000D01*
X65500D02*
X93500D01*
X65500Y71000D02*
Y89000D01*
Y71000D02*
X93500D01*
X231480Y126080D02*
Y138080D01*
X210480Y126080D02*
Y138080D01*
Y126080D02*
X231480D01*
X210480Y138080D02*
X231480D01*
Y136240D02*
Y148240D01*
X210480Y136240D02*
Y148240D01*
Y136240D02*
X231480D01*
X210480Y148240D02*
X231480D01*
X205900Y166490D02*
X225900D01*
Y200490D01*
X205900D02*
X225900D01*
X205900Y166490D02*
Y200490D01*
X175140Y124270D02*
Y132270D01*
X191140Y124270D02*
Y132270D01*
X175140D02*
X191140D01*
X175140Y124270D02*
X191140D01*
X25500Y6858D02*
X228500D01*
X194715Y62230D02*
Y69656D01*
X59282D02*
X194715D01*
X228500Y6858D02*
Y62230D01*
X194715D02*
X228500D01*
X59282D02*
Y69656D01*
X25500Y6858D02*
Y62230D01*
X59282D01*
X202502Y144280D02*
X210502D01*
X202502Y128280D02*
X210502D01*
Y144280D01*
X202502Y128280D02*
Y144280D01*
X180420Y131530D02*
Y150530D01*
X190420Y131530D02*
Y150530D01*
X180420Y131530D02*
X190420D01*
X180420Y150530D02*
X190420D01*
M02*
