G04*
G04 #@! TF.GenerationSoftware,Altium Limited,Altium Designer,21.2.2 (38)*
G04*
G04 Layer_Physical_Order=1*
G04 Layer_Color=255*
%FSLAX44Y44*%
%MOMM*%
G71*
G04*
G04 #@! TF.SameCoordinates,205A31CD-AC13-4E6C-8EB0-5B29ABF3557E*
G04*
G04*
G04 #@! TF.FilePolarity,Positive*
G04*
G01*
G75*
%ADD18C,0.2540*%
%ADD19R,2.1590X2.7430*%
%ADD20R,1.0000X0.9000*%
%ADD21R,0.3000X1.0000*%
%ADD22R,2.0000X1.3000*%
%ADD23R,1.3000X2.0000*%
%ADD24R,1.0000X0.3000*%
%ADD25R,0.5500X0.6500*%
%ADD26R,0.3000X0.7100*%
%ADD27R,0.7000X0.3000*%
%ADD28R,0.7000X1.0000*%
%ADD29R,0.7000X0.1800*%
%ADD30R,0.8000X0.8000*%
%ADD31R,2.0000X1.5000*%
%ADD58C,0.1270*%
%ADD59C,1.0000*%
%ADD60C,0.3810*%
%ADD61C,0.1778*%
%ADD62C,0.1580*%
%ADD63C,0.3048*%
%ADD64C,1.0160*%
%ADD65C,0.2032*%
%ADD66C,0.2500*%
%ADD67C,0.1524*%
%ADD68C,0.5080*%
%ADD69C,1.3680*%
%ADD70R,1.3680X1.3680*%
%ADD71C,5.3000*%
%ADD72C,5.5000*%
%ADD73O,1.9000X1.1000*%
%ADD74O,2.4000X1.1000*%
%ADD75C,1.8000*%
%ADD76O,2.5000X4.5000*%
%ADD77O,2.5000X5.0000*%
%ADD78O,4.5000X2.5000*%
%ADD79C,0.4064*%
%ADD80C,0.5080*%
G36*
X575106Y395669D02*
X578413Y394782D01*
X581575Y393473D01*
X584540Y391761D01*
X587256Y389677D01*
X589677Y387256D01*
X591761Y384540D01*
X593472Y381575D01*
X594783Y378413D01*
X595669Y375106D01*
X596115Y371712D01*
X596115Y370000D01*
Y298646D01*
X595540Y297614D01*
X594845Y297614D01*
X587770D01*
Y285074D01*
Y272534D01*
X594845D01*
X595540Y272534D01*
X596115Y271502D01*
Y128072D01*
X595540Y127040D01*
X594845Y127040D01*
X587770D01*
Y114500D01*
Y101960D01*
X594845D01*
X595540Y101960D01*
X596115Y100928D01*
Y30000D01*
Y28288D01*
X595669Y24894D01*
X594783Y21587D01*
X593473Y18425D01*
X591761Y15460D01*
X589677Y12744D01*
X587256Y10323D01*
X584540Y8239D01*
X581575Y6528D01*
X578413Y5217D01*
X575106Y4331D01*
X571712Y3884D01*
X483774D01*
X482825Y4660D01*
X482825Y5155D01*
Y12430D01*
X470285D01*
X457745D01*
Y5155D01*
X457745Y4660D01*
X456796Y3884D01*
X343204D01*
X342255Y4660D01*
X342255Y5155D01*
Y12430D01*
X329715D01*
X317175D01*
Y5155D01*
X317175Y4660D01*
X316226Y3884D01*
X28288D01*
X24894Y4331D01*
X21587Y5217D01*
X18425Y6528D01*
X15460Y8239D01*
X12744Y10323D01*
X10323Y12744D01*
X8239Y15460D01*
X6528Y18425D01*
X5217Y21587D01*
X4331Y24894D01*
X3884Y28288D01*
Y30000D01*
Y370000D01*
Y371712D01*
X4331Y375106D01*
X5217Y378413D01*
X6528Y381575D01*
X8239Y384540D01*
X10323Y387256D01*
X12744Y389677D01*
X15460Y391761D01*
X18425Y393472D01*
X21587Y394783D01*
X24894Y395669D01*
X28288Y396115D01*
X30000Y396115D01*
X317138Y396115D01*
X317390Y394845D01*
Y387180D01*
X329930D01*
X342470D01*
Y394845D01*
X342470Y394950D01*
X342722Y396115D01*
X457708Y396115D01*
X457960Y394845D01*
Y387180D01*
X470500D01*
X483040D01*
Y394845D01*
X483040Y394950D01*
X483292Y396115D01*
X570000D01*
X571712D01*
X575106Y395669D01*
D02*
G37*
%LPC*%
G36*
X142540Y387540D02*
X136270D01*
Y380500D01*
X133730D01*
Y387540D01*
X127460D01*
Y386714D01*
X101069Y386714D01*
X100291Y386392D01*
X92078Y378179D01*
X91756Y377402D01*
Y368744D01*
X83098D01*
X82321Y368422D01*
X73173Y359274D01*
X71786Y359202D01*
X71545Y359299D01*
X70689Y359871D01*
X69500Y360108D01*
X68311Y359871D01*
X67302Y359198D01*
X66629Y358189D01*
X66392Y357000D01*
X66490Y356508D01*
X58993Y349010D01*
X58347Y349441D01*
X56000Y349908D01*
X53653Y349441D01*
X51663Y348112D01*
X50333Y346122D01*
X49866Y343775D01*
X50333Y341427D01*
X51663Y339437D01*
X53450Y338243D01*
X53376Y337347D01*
X53239Y336973D01*
X45805D01*
X45478Y338617D01*
X44148Y340607D01*
X42158Y341937D01*
X39811Y342404D01*
X37463Y341937D01*
X35473Y340607D01*
X34144Y338617D01*
X33677Y336270D01*
X34144Y333923D01*
X35473Y331933D01*
X37463Y330603D01*
X39811Y330136D01*
X42158Y330603D01*
X44148Y331933D01*
X45266Y333606D01*
X61292D01*
X61936Y333734D01*
X62482Y334099D01*
X70474Y342091D01*
X80629D01*
X80972Y341577D01*
X81980Y340903D01*
X82851Y340730D01*
X84018Y340229D01*
X84160Y339887D01*
X84267Y339532D01*
X84318Y339505D01*
X84340Y339452D01*
X84901Y338890D01*
Y321919D01*
X84501Y321652D01*
X70445D01*
X70292Y321589D01*
X70126Y321605D01*
X69917Y321433D01*
X69668Y321330D01*
X69604Y321176D01*
X69475Y321071D01*
X68797Y319801D01*
X68780Y319635D01*
X68688Y319497D01*
X68741Y319232D01*
X68714Y318963D01*
X68820Y318835D01*
X68852Y318672D01*
X69013Y318431D01*
X69204Y317473D01*
X69013Y316514D01*
X68470Y315702D01*
X67657Y315159D01*
X66699Y314968D01*
X65741Y315159D01*
X64928Y315702D01*
X64385Y316514D01*
X64195Y317473D01*
X64385Y318431D01*
X64546Y318672D01*
X64578Y318835D01*
X64684Y318963D01*
X64658Y319232D01*
X64710Y319497D01*
X64618Y319635D01*
X64601Y319801D01*
X63923Y321071D01*
X63794Y321176D01*
X63730Y321330D01*
X63481Y321433D01*
X63272Y321605D01*
X63106Y321589D01*
X62953Y321652D01*
X42849D01*
X42072Y321330D01*
X8009Y287268D01*
X7687Y286490D01*
Y190675D01*
X8009Y189898D01*
X29400Y168507D01*
Y161647D01*
X29722Y160870D01*
X35370Y155222D01*
X36147Y154900D01*
X53000D01*
X53460Y154593D01*
Y152270D01*
X58230D01*
Y158540D01*
X57583D01*
X57206Y159106D01*
Y177894D01*
X56883Y178672D01*
X55883Y179672D01*
X62298Y186086D01*
X63901Y185767D01*
X66248Y186234D01*
X68238Y187564D01*
X69146Y188923D01*
X78358D01*
X79498Y189149D01*
X80464Y189795D01*
X85152Y194483D01*
X98770D01*
X99909Y194710D01*
X100876Y195356D01*
X102542Y197022D01*
X139998D01*
X141137Y197248D01*
X142104Y197894D01*
X145144Y200935D01*
X145696Y201303D01*
X145780Y201429D01*
X175301D01*
X175301Y201429D01*
X176094Y201587D01*
X176766Y202036D01*
X178658Y203928D01*
X178819D01*
X180084Y203916D01*
Y201186D01*
X180084Y200084D01*
X180084D01*
Y199916D01*
X180084D01*
Y196084D01*
X180084Y196084D01*
Y195916D01*
X180084D01*
X180084Y194814D01*
Y193440D01*
X178560D01*
Y191270D01*
X184600D01*
Y188730D01*
X178560D01*
Y187270D01*
X184600D01*
X190640D01*
Y190944D01*
X191567Y191129D01*
X192575Y191803D01*
X193249Y192811D01*
X193433Y193736D01*
X193715Y194205D01*
X194585Y194983D01*
X195317Y195129D01*
X196325Y195802D01*
X196999Y196811D01*
X197236Y198000D01*
X196999Y199189D01*
X196325Y200198D01*
X195317Y200871D01*
X194585Y201017D01*
X193715Y201795D01*
X193433Y202264D01*
X193249Y203189D01*
X192575Y204198D01*
X191567Y204871D01*
X191371Y204910D01*
X190534Y206335D01*
X190615Y206560D01*
X190640D01*
Y208730D01*
X184600D01*
X178560D01*
Y208072D01*
X177800D01*
X177007Y207914D01*
X176335Y207465D01*
X176335Y207465D01*
X174443Y205573D01*
X150281D01*
X150227Y206821D01*
X150871Y206949D01*
X151418Y207314D01*
X160421Y216317D01*
X178560D01*
Y215270D01*
X184600D01*
X190640D01*
Y215384D01*
X191759Y216096D01*
X191910Y216109D01*
X193000Y215892D01*
X193690Y216029D01*
X194293Y216015D01*
X195055Y215180D01*
X195129Y214811D01*
X195802Y213803D01*
X196811Y213129D01*
X198000Y212892D01*
X199189Y213129D01*
X199702Y213472D01*
X201042Y213036D01*
X201093Y212990D01*
X201128Y212810D01*
X201802Y211802D01*
X202810Y211128D01*
X204000Y210892D01*
X205189Y211128D01*
X206197Y211802D01*
X206871Y212810D01*
X207107Y214000D01*
X206871Y215189D01*
X206197Y216197D01*
X206141Y216761D01*
X209614Y220233D01*
X210145Y220184D01*
X210884Y219916D01*
X210884Y218814D01*
Y217440D01*
X209360D01*
Y215270D01*
X215400D01*
X221833D01*
X222710Y215950D01*
X223000Y215892D01*
X224189Y216129D01*
X225198Y216803D01*
X225871Y217811D01*
X226108Y219000D01*
X225871Y220189D01*
X225198Y221197D01*
X224189Y221871D01*
X223000Y222108D01*
X221811Y221871D01*
X221186Y221454D01*
X219982Y221955D01*
X219916Y222016D01*
X219916Y223916D01*
X219916Y225186D01*
Y227916D01*
X219916D01*
Y228084D01*
X219916Y228084D01*
X219916Y231916D01*
X219916Y233186D01*
Y235916D01*
X219916Y235916D01*
Y236084D01*
X219916D01*
X219916Y237186D01*
Y238560D01*
X221440D01*
Y240730D01*
X215400D01*
Y243270D01*
X221440D01*
Y245440D01*
X221440D01*
Y246560D01*
X221440D01*
Y250616D01*
X222710Y251142D01*
X230000Y243853D01*
Y239172D01*
X228127Y237299D01*
X227762Y236753D01*
X227634Y236108D01*
Y232474D01*
X227762Y231830D01*
X228127Y231284D01*
X230284Y229127D01*
X230830Y228762D01*
X231474Y228634D01*
X235317D01*
X235961Y228762D01*
X236507Y229127D01*
X239394Y232013D01*
X240000Y231892D01*
X241189Y232129D01*
X242197Y232803D01*
X242871Y233811D01*
X243108Y235000D01*
X242871Y236189D01*
X242197Y237197D01*
X241189Y237871D01*
X240000Y238108D01*
X238811Y237871D01*
X237803Y237197D01*
X237160Y236236D01*
X237074Y236177D01*
X235776Y235898D01*
X235601Y236064D01*
X235328Y236590D01*
X235524Y236883D01*
X235652Y237528D01*
Y245497D01*
X235524Y246141D01*
X235159Y246687D01*
X222656Y259190D01*
X222110Y259555D01*
X221466Y259683D01*
X221440D01*
Y261290D01*
X222710D01*
Y262325D01*
X224907D01*
X232436Y254795D01*
X232436Y254795D01*
X233907Y253813D01*
X235641Y253468D01*
X235641Y253468D01*
X240833D01*
X304799Y189502D01*
X304799Y189502D01*
X325502Y168800D01*
Y116682D01*
X324425Y115962D01*
X323134Y114030D01*
X322680Y111750D01*
X323134Y109471D01*
X324425Y107538D01*
X326357Y106247D01*
X328637Y105794D01*
X330916Y106247D01*
X331177Y106421D01*
X331437Y106247D01*
X333717Y105794D01*
X335996Y106247D01*
X337928Y107538D01*
X339220Y109471D01*
X339673Y111750D01*
X339220Y114030D01*
X337928Y115962D01*
X336852Y116682D01*
Y171624D01*
X336507Y173358D01*
X335524Y174829D01*
X335524Y174829D01*
X311283Y199070D01*
X311283Y199070D01*
X247076Y263276D01*
X247275Y264108D01*
X247568Y264546D01*
X260486D01*
X301249Y223783D01*
X302098Y222930D01*
X302098Y222910D01*
X302098Y222910D01*
X302112Y222889D01*
X302132Y222875D01*
X302216Y222841D01*
X303217Y222078D01*
X304069Y221424D01*
X305795Y220709D01*
X306266Y219475D01*
X306252Y219218D01*
X305428Y218145D01*
X304494Y215890D01*
X304175Y213469D01*
X304494Y211049D01*
X305428Y208794D01*
X306914Y206857D01*
X308851Y205371D01*
X311106Y204437D01*
X313526Y204118D01*
X315946Y204437D01*
X318202Y205371D01*
X319275Y206195D01*
X319532Y206210D01*
X320766Y205738D01*
X321481Y204013D01*
X322912Y202148D01*
X322966Y202067D01*
X339253Y185780D01*
X340096Y184913D01*
Y184912D01*
X340110Y184891D01*
X340131Y184877D01*
X341039Y183994D01*
X342970Y182062D01*
Y102180D01*
X341957Y101503D01*
X340666Y99571D01*
X340212Y97291D01*
X340666Y95012D01*
X341957Y93080D01*
X343889Y91789D01*
X346169Y91335D01*
X348448Y91789D01*
X348645Y91920D01*
X348842Y91789D01*
X351122Y91335D01*
X353401Y91789D01*
X355334Y93080D01*
X356625Y95012D01*
X357078Y97291D01*
X356625Y99571D01*
X355334Y101503D01*
X354320Y102180D01*
Y184887D01*
X353975Y186621D01*
X352993Y188091D01*
X352993Y188091D01*
X349409Y191675D01*
X349409Y191675D01*
X349026Y192058D01*
X348182Y192926D01*
Y192927D01*
X348168Y192948D01*
X348147Y192962D01*
X347240Y193844D01*
X332252Y208832D01*
X332818Y209571D01*
X333753Y211826D01*
X334071Y214246D01*
X333753Y216667D01*
X332818Y218922D01*
X331332Y220858D01*
X329396Y222344D01*
X327140Y223279D01*
X326084Y223418D01*
X325146Y224822D01*
X325348Y226357D01*
X325029Y228777D01*
X324095Y231033D01*
X323533Y231765D01*
X322949Y232640D01*
X322614Y232974D01*
X322279Y233309D01*
X321404Y233894D01*
X320672Y234455D01*
X318417Y235390D01*
X315997Y235708D01*
X313577Y235390D01*
X311321Y234455D01*
X309456Y233024D01*
X309376Y232971D01*
X308745Y232339D01*
X267932Y273152D01*
X268419Y274325D01*
X284016D01*
X336828Y221512D01*
X337170Y221171D01*
X338056Y220260D01*
X338070Y220239D01*
X338090Y220225D01*
X338174Y220191D01*
X339175Y219428D01*
X340027Y218774D01*
X341753Y218059D01*
X342224Y216825D01*
X342210Y216568D01*
X341386Y215495D01*
X340452Y213240D01*
X340133Y210819D01*
X340452Y208399D01*
X341386Y206144D01*
X342872Y204207D01*
X344809Y202721D01*
X347064Y201787D01*
X349484Y201469D01*
X351904Y201787D01*
X354160Y202721D01*
X354986Y203355D01*
X359652Y198689D01*
Y124460D01*
Y112959D01*
X357919Y111802D01*
X356544Y109743D01*
X356061Y107315D01*
X356544Y104887D01*
X357919Y102829D01*
X359652Y101671D01*
Y92838D01*
X355652Y88839D01*
X354670Y87368D01*
X354326Y85640D01*
X353312Y84962D01*
X352020Y83029D01*
X351567Y80750D01*
X352020Y78471D01*
X353312Y76538D01*
X355244Y75247D01*
X357523Y74794D01*
X359803Y75247D01*
X360000Y75379D01*
X360197Y75247D01*
X362477Y74794D01*
X364756Y75247D01*
X366688Y76538D01*
X367980Y78471D01*
X368433Y80750D01*
X367980Y83029D01*
X367145Y84279D01*
X369674Y86809D01*
X370657Y88279D01*
X371002Y90014D01*
Y201513D01*
X371002Y201513D01*
X370657Y203247D01*
X369674Y204718D01*
X366317Y208075D01*
X366317Y208075D01*
X361741Y212651D01*
X361736Y212654D01*
X361733Y212659D01*
X361402Y212990D01*
X361402Y212990D01*
X360527Y213575D01*
X359795Y214136D01*
X358112Y214834D01*
X357726Y216244D01*
X358568Y217086D01*
X358622Y217166D01*
X360053Y219032D01*
X360987Y221287D01*
X361306Y223707D01*
X360987Y226127D01*
X360053Y228383D01*
X359491Y229115D01*
X358907Y229990D01*
X358572Y230324D01*
X358237Y230659D01*
X357362Y231244D01*
X356630Y231805D01*
X354375Y232740D01*
X351955Y233058D01*
X349535Y232740D01*
X347279Y231805D01*
X345414Y230374D01*
X345334Y230321D01*
X344703Y229689D01*
X290044Y284348D01*
X288574Y285330D01*
X286840Y285675D01*
X251709D01*
X241010Y296374D01*
X239539Y297357D01*
X237805Y297702D01*
X225473D01*
X225473Y297702D01*
X225339Y297675D01*
X222710D01*
Y298710D01*
X221440D01*
Y301440D01*
X209360D01*
Y298710D01*
X208090D01*
Y289004D01*
X206820Y288117D01*
X205232Y288433D01*
X202953Y287980D01*
X201020Y286688D01*
X200343Y285675D01*
X191910D01*
Y298710D01*
X190640D01*
Y301440D01*
X178560D01*
Y298710D01*
X177290D01*
X176226Y299206D01*
X175068Y299979D01*
X172789Y300433D01*
X170510Y299979D01*
X168577Y298688D01*
X167286Y296756D01*
X166833Y294477D01*
X167286Y292197D01*
X167418Y292000D01*
X167286Y291803D01*
X166833Y289524D01*
X167286Y287244D01*
X168577Y285312D01*
X170510Y284021D01*
X172789Y283567D01*
X175068Y284021D01*
X176020Y284656D01*
X177290Y283977D01*
Y273290D01*
Y261290D01*
X178560D01*
Y259683D01*
X173227D01*
X172757Y260153D01*
X172211Y260518D01*
X171567Y260646D01*
X171275D01*
X170854Y261278D01*
X169845Y261951D01*
X168656Y262188D01*
X167467Y261951D01*
X166458Y261278D01*
X165785Y260269D01*
X165548Y259080D01*
X165785Y257891D01*
X166458Y256882D01*
X167467Y256209D01*
X168656Y255972D01*
X168933Y256027D01*
X169578Y254861D01*
X169128Y254189D01*
X168892Y252999D01*
X169128Y251810D01*
X169802Y250802D01*
X170810Y250128D01*
X172000Y249892D01*
X173189Y250128D01*
X174197Y250802D01*
X174871Y251810D01*
X174972Y252317D01*
X178560D01*
Y251270D01*
X184600D01*
Y248730D01*
X178560D01*
Y246560D01*
X178560D01*
Y245440D01*
X178560D01*
Y243270D01*
X184600D01*
X190640D01*
Y243597D01*
X191000Y243892D01*
X192189Y244128D01*
X193197Y244802D01*
X193871Y245810D01*
X194107Y246999D01*
X193871Y248189D01*
X193197Y249197D01*
X192189Y249871D01*
X191000Y250107D01*
X190640Y250402D01*
Y253440D01*
X190014D01*
X189116Y254338D01*
X189116Y255916D01*
X189116Y257186D01*
Y258560D01*
X190640D01*
Y258993D01*
X191262Y259504D01*
X193542Y259957D01*
X195474Y261248D01*
X196765Y263181D01*
X197218Y265460D01*
X196765Y267740D01*
X196591Y268000D01*
X196765Y268261D01*
X197218Y270540D01*
X196765Y272819D01*
X196508Y273205D01*
X197106Y274325D01*
X200343D01*
X201020Y273312D01*
X202953Y272020D01*
X205232Y271567D01*
X206820Y271883D01*
X208090Y270996D01*
Y261290D01*
X209360D01*
Y258560D01*
X210884D01*
Y256084D01*
X210884D01*
Y255916D01*
X210884D01*
Y253440D01*
X209360D01*
Y251270D01*
X215400D01*
Y248730D01*
X209360D01*
Y246741D01*
X204303Y241683D01*
X202541D01*
X202197Y242197D01*
X201189Y242871D01*
X200000Y243108D01*
X198811Y242871D01*
X197803Y242197D01*
X197129Y241189D01*
X196892Y240000D01*
X197012Y239396D01*
X196683Y239002D01*
X195949Y238465D01*
X195005Y238652D01*
X193816Y238416D01*
X192808Y237742D01*
X192134Y236734D01*
X191925Y235683D01*
X190220D01*
X189116Y236084D01*
X189116Y237186D01*
Y238560D01*
X190640D01*
Y240730D01*
X184600D01*
X178560D01*
Y239683D01*
X163697D01*
X155683Y247697D01*
Y299303D01*
X163697Y307317D01*
X220000D01*
X220644Y307445D01*
X221190Y307810D01*
X227697Y314317D01*
X238459D01*
X238803Y313803D01*
X239811Y313129D01*
X241000Y312892D01*
X242189Y313129D01*
X243197Y313803D01*
X243871Y314811D01*
X244108Y316000D01*
X243871Y317189D01*
X243197Y318197D01*
X242189Y318871D01*
X241000Y319108D01*
X239811Y318871D01*
X238803Y318197D01*
X238459Y317683D01*
X227000D01*
X226356Y317555D01*
X225810Y317190D01*
X219303Y310683D01*
X163000D01*
X162356Y310555D01*
X161810Y310190D01*
X152810Y301190D01*
X152445Y300644D01*
X152317Y300000D01*
Y247000D01*
X152445Y246356D01*
X152810Y245810D01*
X161810Y236810D01*
X162356Y236445D01*
X163000Y236317D01*
X178980D01*
X180084Y235916D01*
X180084Y234814D01*
X180084Y232084D01*
X180084Y230814D01*
X180084Y228084D01*
X178980Y227683D01*
X154770D01*
X131035Y251418D01*
X130489Y251783D01*
X129845Y251911D01*
X111446D01*
X111331Y252488D01*
X110672Y253475D01*
X109684Y254134D01*
X108637Y254343D01*
X108520Y254366D01*
X107377D01*
D01*
X107277Y254346D01*
X106213Y254134D01*
X105225Y253475D01*
X104844Y252904D01*
X104784Y252882D01*
X103493D01*
X103433Y252904D01*
X103052Y253475D01*
X102065Y254134D01*
X101017Y254343D01*
X100900Y254366D01*
X99757D01*
D01*
X99657Y254346D01*
X98593Y254134D01*
X97605Y253475D01*
X97261Y252960D01*
X97108Y252913D01*
X95845Y252968D01*
X95432Y253586D01*
X94445Y254245D01*
X93397Y254454D01*
X93280Y254477D01*
X92137D01*
D01*
X92037Y254457D01*
X90972Y254245D01*
X89985Y253586D01*
X89326Y252599D01*
X89189Y251911D01*
X74486D01*
X73842Y251783D01*
X73295Y251418D01*
X69415Y247538D01*
X68832Y247927D01*
X67667Y248159D01*
X66503Y247927D01*
X65615Y247334D01*
X65516Y247268D01*
Y247268D01*
X64707Y246459D01*
X64708D01*
X64651Y246375D01*
X64048Y245472D01*
X63816Y244308D01*
X63950Y243635D01*
X63923Y243576D01*
X63011Y242664D01*
X62952Y242637D01*
X62279Y242771D01*
X61115Y242539D01*
X60227Y241946D01*
X60128Y241879D01*
Y241879D01*
X59319Y241071D01*
X59319D01*
X59263Y240987D01*
X58660Y240084D01*
X58428Y238919D01*
X58562Y238246D01*
X58535Y238188D01*
X57623Y237276D01*
X57564Y237249D01*
X56891Y237383D01*
X55727Y237151D01*
X54839Y236558D01*
X54739Y236491D01*
Y236491D01*
X53931Y235683D01*
X53931D01*
X53875Y235599D01*
X53272Y234696D01*
X53040Y233531D01*
X53272Y232367D01*
X53902Y231423D01*
X53855Y231229D01*
X53305Y230247D01*
X53299Y230248D01*
X52252Y230040D01*
X52184Y230027D01*
X51239Y229395D01*
X51256Y229378D01*
X48561Y226683D01*
X37541D01*
X37197Y227197D01*
X36189Y227871D01*
X35000Y228108D01*
X33811Y227871D01*
X32803Y227197D01*
X32129Y226189D01*
X31892Y225000D01*
X32129Y223811D01*
X32803Y222803D01*
X33811Y222129D01*
X35000Y221892D01*
X36189Y222129D01*
X37197Y222803D01*
X37541Y223317D01*
X49258D01*
X49902Y223445D01*
X50448Y223810D01*
X53348Y226709D01*
X53931Y226320D01*
X55095Y226088D01*
X56260Y226320D01*
X57147Y226913D01*
X57247Y226979D01*
Y226979D01*
X58055Y227787D01*
X58055D01*
X58112Y227872D01*
X58715Y228775D01*
X58946Y229939D01*
X58812Y230612D01*
X58840Y230671D01*
X59752Y231583D01*
X59810Y231610D01*
X60483Y231476D01*
X61648Y231708D01*
X62536Y232301D01*
X62635Y232367D01*
Y232367D01*
X63443Y233176D01*
X63443D01*
X63500Y233260D01*
X64103Y234163D01*
X64335Y235327D01*
X64201Y236000D01*
X64228Y236059D01*
X65140Y236971D01*
X65198Y236998D01*
X65872Y236864D01*
X67036Y237096D01*
X67924Y237689D01*
X68023Y237756D01*
X68023D01*
X68830Y238563D01*
X68832Y238564D01*
X68832Y238564D01*
X69491Y239551D01*
X69723Y240715D01*
X69491Y241880D01*
X68861Y242823D01*
X68908Y243018D01*
X69458Y243999D01*
X69464Y243998D01*
X70511Y244207D01*
X70578Y244220D01*
X71524Y244852D01*
X71507Y244868D01*
X75183Y248544D01*
X89597D01*
Y248521D01*
X90712Y248742D01*
X90769Y248781D01*
X91657Y249374D01*
X91660Y249379D01*
X92511Y249214D01*
X92931Y248995D01*
X93136Y247968D01*
X93795Y246981D01*
X94782Y246321D01*
X95830Y246113D01*
X95947Y246089D01*
X97090D01*
D01*
X97190Y246109D01*
X98254Y246321D01*
X99242Y246981D01*
X99623Y247551D01*
X99683Y247573D01*
X100974D01*
X101034Y247551D01*
X101415Y246981D01*
X102402Y246321D01*
X103450Y246113D01*
X103567Y246089D01*
X104710D01*
D01*
X104810Y246109D01*
X105875Y246321D01*
X106862Y246981D01*
X107521Y247968D01*
X107726Y248995D01*
X108146Y249214D01*
X108997Y249379D01*
X109000Y249374D01*
X109888Y248781D01*
X109945Y248742D01*
X111060Y248521D01*
Y248544D01*
X129147D01*
X152882Y224810D01*
X152920Y224784D01*
X152995Y224447D01*
X152893Y223355D01*
X152647Y223190D01*
X145197Y215741D01*
X141794D01*
X141657Y216428D01*
X140997Y217416D01*
X140010Y218075D01*
X138963Y218283D01*
X138846Y218307D01*
X137703D01*
D01*
X137603Y218287D01*
X136538Y218075D01*
X135551Y217416D01*
X135170Y216845D01*
X135109Y216823D01*
X133819D01*
X133759Y216845D01*
X133378Y217416D01*
X132390Y218075D01*
X131343Y218283D01*
X131226Y218307D01*
X130083D01*
D01*
X129983Y218287D01*
X128918Y218075D01*
X127931Y217416D01*
X127550Y216845D01*
X127489Y216823D01*
X126199D01*
X126139Y216845D01*
X125758Y217416D01*
X124770Y218075D01*
X123723Y218283D01*
X123606Y218307D01*
X122463D01*
D01*
X122363Y218287D01*
X121298Y218075D01*
X120311Y217416D01*
X119651Y216428D01*
X119515Y215741D01*
X94433D01*
X94350Y216157D01*
X93691Y217145D01*
X92703Y217804D01*
X91656Y218013D01*
X91539Y218036D01*
X90396D01*
D01*
X90296Y218016D01*
X89231Y217804D01*
X88244Y217145D01*
X87863Y216574D01*
X87802Y216552D01*
X86512D01*
X86452Y216574D01*
X86070Y217145D01*
X85083Y217804D01*
X84036Y218013D01*
X83919Y218036D01*
X82776D01*
D01*
X82676Y218016D01*
X81611Y217804D01*
X80624Y217145D01*
X80139Y216418D01*
X79147Y216243D01*
X78696Y216291D01*
X78450Y216659D01*
X77515Y217284D01*
X77451Y217338D01*
X76761Y218442D01*
X76795Y218614D01*
X76998Y219631D01*
X76761Y220821D01*
X76087Y221829D01*
X75079Y222503D01*
X73890Y222739D01*
X72701Y222503D01*
X71692Y221829D01*
X71019Y220821D01*
X70782Y219631D01*
X70995Y218562D01*
X70734Y218243D01*
X69977Y217715D01*
X69843Y217804D01*
X68796Y218013D01*
X68679Y218036D01*
X67536D01*
D01*
X67436Y218016D01*
X66371Y217804D01*
X65384Y217145D01*
X65003Y216574D01*
X64942Y216552D01*
X63652D01*
X63592Y216574D01*
X63211Y217145D01*
X62223Y217804D01*
X61176Y218013D01*
X61059Y218036D01*
X59916D01*
D01*
X59816Y218016D01*
X58751Y217804D01*
X57764Y217145D01*
X57104Y216157D01*
X56925Y215253D01*
X56152Y214942D01*
X55629Y214906D01*
X55626Y214911D01*
X54738Y215504D01*
X54681Y215543D01*
X53566Y215764D01*
Y215741D01*
X49057D01*
X48413Y215612D01*
X47867Y215248D01*
X45349Y212729D01*
X44762Y212857D01*
X44061Y213237D01*
X43871Y214189D01*
X43197Y215198D01*
X42189Y215871D01*
X41000Y216108D01*
X39811Y215871D01*
X38802Y215198D01*
X38129Y214189D01*
X37892Y213000D01*
X38129Y211811D01*
X38802Y210802D01*
X39811Y210129D01*
X40763Y209939D01*
X41143Y209238D01*
X41271Y208651D01*
X35607Y202987D01*
X35000Y203108D01*
X33811Y202871D01*
X32803Y202197D01*
X32129Y201189D01*
X31892Y200000D01*
X31964Y199637D01*
X31149Y198488D01*
X30134Y198397D01*
X28233Y200297D01*
Y228853D01*
X34393Y235013D01*
X35000Y234892D01*
X36189Y235129D01*
X37197Y235802D01*
X37871Y236811D01*
X38108Y238000D01*
X37871Y239189D01*
X37197Y240198D01*
X36189Y240871D01*
X35000Y241108D01*
X33811Y240871D01*
X32803Y240198D01*
X32129Y239189D01*
X31892Y238000D01*
X32013Y237393D01*
X25905Y231286D01*
X24635Y231812D01*
Y238080D01*
X51383Y264827D01*
X51705Y265605D01*
Y293780D01*
X61477Y303553D01*
X83134D01*
X83631Y303759D01*
X84901Y303205D01*
Y264518D01*
X85223Y263740D01*
X91080Y257883D01*
X91857Y257561D01*
X111416D01*
X111559Y257621D01*
X111712Y257602D01*
X111934Y257776D01*
X112194Y257883D01*
X112861Y258188D01*
X113585Y258288D01*
X117651Y254222D01*
X118429Y253900D01*
X130000D01*
X130250Y253867D01*
X130500Y253900D01*
X136414D01*
X136711Y254023D01*
X137025Y254086D01*
X137042Y254097D01*
X138000Y254287D01*
X138958Y254097D01*
X138975Y254086D01*
X139290Y254023D01*
X139586Y253900D01*
X143499D01*
X144276Y254222D01*
X147778Y257724D01*
X148100Y258501D01*
X148100Y309779D01*
X149593Y311272D01*
X150820Y311151D01*
X152809Y309821D01*
X155157Y309354D01*
X157504Y309821D01*
X159494Y311151D01*
X160824Y313141D01*
X161291Y315488D01*
X160974Y317078D01*
X161892Y318349D01*
X164568D01*
X165346Y318671D01*
X179016Y332341D01*
X179338Y333118D01*
X179338Y356486D01*
X198144D01*
Y385948D01*
X174522D01*
Y385640D01*
X166101D01*
X165323Y385318D01*
X151110Y371104D01*
X151089Y371054D01*
X151041Y371029D01*
X151041Y371028D01*
X150931Y370672D01*
X150787Y370326D01*
X150808Y370277D01*
X150792Y370225D01*
X150813Y369997D01*
X150813Y369997D01*
X150899Y369833D01*
X150905Y369648D01*
X151384Y368581D01*
X151454Y368514D01*
X151473Y368420D01*
X151752Y368233D01*
X151996Y368003D01*
X152093Y368006D01*
X152173Y367952D01*
X152760Y367835D01*
X153405Y367405D01*
X153835Y366760D01*
X153987Y366000D01*
X153835Y365240D01*
X153405Y364595D01*
X152760Y364165D01*
X152000Y364013D01*
X151240Y364165D01*
X150595Y364595D01*
X150165Y365240D01*
X150106Y365536D01*
X149928Y365803D01*
X149805Y366099D01*
X149701Y366142D01*
X149638Y366236D01*
X149324Y366298D01*
X149027Y366421D01*
X147732D01*
X147656Y366462D01*
X147571Y366889D01*
X146897Y367897D01*
X146569Y368117D01*
X146837Y369465D01*
X147189Y369535D01*
X148197Y370209D01*
X148871Y371217D01*
X149108Y372406D01*
X148871Y373596D01*
X149024Y375162D01*
X149698Y376170D01*
X149935Y377359D01*
X149698Y378549D01*
X149024Y379557D01*
X148016Y380230D01*
X147165Y380400D01*
X147181Y382321D01*
X147179Y382325D01*
X147181Y382330D01*
X147022Y382714D01*
X146865Y383101D01*
X146860Y383103D01*
X146859Y383107D01*
X143574Y386392D01*
X143407Y386461D01*
X143288Y386598D01*
X143033Y386616D01*
X142796Y386714D01*
X142540D01*
Y387540D01*
D02*
G37*
G36*
X483040Y384640D02*
X471770D01*
Y376870D01*
X483040D01*
Y384640D01*
D02*
G37*
G36*
X469230D02*
X457960D01*
Y376870D01*
X469230D01*
Y384640D01*
D02*
G37*
G36*
X342470D02*
X331200D01*
Y376870D01*
X342470D01*
Y384640D01*
D02*
G37*
G36*
X328660D02*
X317390D01*
Y376870D01*
X328660D01*
Y384640D01*
D02*
G37*
G36*
X243868Y387472D02*
X231803D01*
Y372487D01*
X243868D01*
Y387472D01*
D02*
G37*
G36*
X223500Y394607D02*
X222311Y394370D01*
X221303Y393697D01*
X220629Y392688D01*
X220392Y391499D01*
X220629Y390310D01*
X221303Y389302D01*
X222140Y388742D01*
X222123Y388059D01*
X221929Y387472D01*
X217198D01*
Y372487D01*
X229263D01*
Y387472D01*
X225071D01*
X224877Y388059D01*
X224860Y388742D01*
X225697Y389302D01*
X226371Y390310D01*
X226608Y391499D01*
X226371Y392688D01*
X225697Y393697D01*
X224689Y394370D01*
X223500Y394607D01*
D02*
G37*
G36*
X447810Y367720D02*
X417190D01*
Y366450D01*
X413460D01*
Y364926D01*
X391540D01*
Y366450D01*
X388770D01*
Y358910D01*
Y351370D01*
X390817D01*
Y343339D01*
X390303Y342995D01*
X389629Y341987D01*
X389392Y340798D01*
X389629Y339609D01*
X390303Y338601D01*
X391311Y337927D01*
X392500Y337690D01*
X393689Y337927D01*
X394697Y338601D01*
X395371Y339609D01*
X395608Y340798D01*
X395371Y341987D01*
X394697Y342995D01*
X394305Y343257D01*
X394336Y344505D01*
X394829Y344765D01*
X395453Y344926D01*
X396321Y344347D01*
X397510Y344110D01*
X398699Y344347D01*
X399547Y344913D01*
X400223Y344730D01*
X400817Y344394D01*
Y341932D01*
X388810Y329925D01*
X388445Y329379D01*
X388317Y328735D01*
Y254808D01*
X387698Y254471D01*
X387047Y254298D01*
X386189Y254871D01*
X385000Y255108D01*
X384394Y254987D01*
X383134Y256247D01*
Y312175D01*
X383648Y312519D01*
X384322Y313527D01*
X384558Y314716D01*
X384322Y315905D01*
X383648Y316914D01*
X382640Y317587D01*
X381450Y317824D01*
X380261Y317587D01*
X379253Y316914D01*
X378579Y315905D01*
X378343Y314716D01*
X378579Y313527D01*
X379253Y312519D01*
X379767Y312175D01*
Y255550D01*
X379895Y254905D01*
X380260Y254359D01*
X382013Y252607D01*
X381892Y252000D01*
X382129Y250811D01*
X382803Y249802D01*
X383811Y249129D01*
X385000Y248892D01*
X386189Y249129D01*
X387047Y249702D01*
X387698Y249529D01*
X388317Y249192D01*
Y233541D01*
X387803Y233197D01*
X387129Y232189D01*
X386892Y231000D01*
X387129Y229811D01*
X387803Y228803D01*
X388317Y228459D01*
Y59500D01*
X388445Y58856D01*
X388810Y58310D01*
X389653Y57467D01*
X388844Y56480D01*
X388689Y56583D01*
X387500Y56820D01*
X386311Y56583D01*
X385303Y55910D01*
X384629Y54901D01*
X384392Y53712D01*
X383556Y53575D01*
Y53575D01*
X383555Y53575D01*
X382884Y54538D01*
X381688Y56328D01*
X379756Y57619D01*
X377477Y58073D01*
X375197Y57619D01*
X375000Y57488D01*
X374803Y57619D01*
X372523Y58073D01*
X370244Y57619D01*
X369413Y57064D01*
X368240Y57550D01*
X368195Y57779D01*
X366903Y59712D01*
X364971Y61003D01*
X362691Y61456D01*
X360412Y61003D01*
X360215Y60871D01*
X360018Y61003D01*
X357738Y61456D01*
X355459Y61003D01*
X353527Y59712D01*
X352235Y57779D01*
X351782Y55500D01*
X352235Y53221D01*
X353527Y51288D01*
X353927Y51021D01*
X353537Y49869D01*
X353240Y49510D01*
X352405D01*
Y48240D01*
X348675D01*
Y33160D01*
X352405D01*
Y31890D01*
X383025D01*
Y33160D01*
X385817D01*
Y31197D01*
X383303Y28683D01*
X350697D01*
X346690Y32690D01*
X346144Y33055D01*
X345500Y33183D01*
X259773D01*
X255717Y37239D01*
X255838Y37846D01*
X255601Y39035D01*
X254928Y40044D01*
X253919Y40717D01*
X252730Y40954D01*
X251541Y40717D01*
X250532Y40044D01*
X249859Y39035D01*
X249622Y37846D01*
X249859Y36657D01*
X250532Y35649D01*
X251541Y34975D01*
X252730Y34738D01*
X253337Y34859D01*
X257742Y30453D01*
X257648Y29863D01*
X257285Y29183D01*
X216800D01*
X186126Y59857D01*
X186197Y59963D01*
X186434Y61152D01*
X186197Y62341D01*
X185523Y63349D01*
X184515Y64023D01*
X183326Y64260D01*
X182137Y64023D01*
X181129Y63349D01*
X180455Y62341D01*
X180218Y61152D01*
X180455Y59963D01*
X181129Y58955D01*
X182137Y58281D01*
X183141Y58081D01*
X214913Y26310D01*
X215459Y25945D01*
X216103Y25817D01*
X343803D01*
X348810Y20810D01*
X349356Y20445D01*
X350000Y20317D01*
X382697D01*
X383041Y19803D01*
X384049Y19129D01*
X385238Y18892D01*
X386427Y19129D01*
X387435Y19803D01*
X388109Y20811D01*
X388346Y22000D01*
X388109Y23189D01*
X387435Y24197D01*
X386427Y24871D01*
X386111Y24934D01*
X385693Y26312D01*
X388690Y29310D01*
X389055Y29856D01*
X389183Y30500D01*
Y34684D01*
X408675D01*
Y33160D01*
X411445D01*
Y40700D01*
Y48240D01*
X409183D01*
Y55500D01*
X409055Y56144D01*
X408690Y56690D01*
X399683Y65697D01*
Y79706D01*
X399975Y79815D01*
X400953Y79917D01*
X401485Y79122D01*
X402493Y78448D01*
X403682Y78212D01*
X404871Y78448D01*
X405880Y79122D01*
X406553Y80130D01*
X406790Y81319D01*
X406553Y82509D01*
X405880Y83517D01*
X405365Y83860D01*
Y208985D01*
X407190Y210810D01*
X407555Y211356D01*
X407683Y212000D01*
Y254459D01*
X408198Y254802D01*
X408871Y255811D01*
X409047Y256693D01*
X410317Y256568D01*
Y209297D01*
X409803Y208953D01*
X409129Y207945D01*
X408892Y206756D01*
X409129Y205567D01*
X409803Y204559D01*
X410811Y203885D01*
X412000Y203648D01*
X413189Y203885D01*
X413630Y204179D01*
X414900Y203501D01*
Y97000D01*
X415222Y96222D01*
X439900Y71544D01*
Y51735D01*
X438630Y51610D01*
X438258Y53482D01*
X436967Y55414D01*
X435034Y56705D01*
X432755Y57159D01*
X430476Y56705D01*
X430215Y56531D01*
X429954Y56705D01*
X427675Y57159D01*
X425396Y56705D01*
X423463Y55414D01*
X422172Y53482D01*
X421718Y51203D01*
X422055Y49510D01*
X421295Y48358D01*
X421111Y48240D01*
X419183D01*
Y52907D01*
X419697Y53250D01*
X420371Y54259D01*
X420608Y55448D01*
X420371Y56637D01*
X419697Y57646D01*
X418689Y58319D01*
X417500Y58556D01*
X416311Y58319D01*
X415303Y57646D01*
X414629Y56637D01*
X414392Y55448D01*
X414629Y54259D01*
X415303Y53250D01*
X415817Y52907D01*
Y48240D01*
X413985D01*
Y40700D01*
Y33160D01*
X416755D01*
Y34684D01*
X418675D01*
Y33160D01*
X422405D01*
Y31890D01*
X438025D01*
Y33160D01*
X441755D01*
Y34684D01*
X450231D01*
Y46716D01*
X450090D01*
Y48900D01*
X476186D01*
X476964Y49222D01*
X494532Y66790D01*
X495102Y66410D01*
X495994Y66233D01*
X496886Y66410D01*
X497642Y66915D01*
X498147Y67671D01*
X498267Y68276D01*
X498325Y68563D01*
X498323Y68572D01*
X498147Y69455D01*
X498144Y69461D01*
X497744Y70633D01*
X496673Y74161D01*
X496197Y79000D01*
X496673Y83839D01*
X498085Y88492D01*
X500377Y92780D01*
X503461Y96539D01*
X507220Y99623D01*
X511508Y101915D01*
X516161Y103327D01*
X521000Y103803D01*
X525839Y103327D01*
X529191Y102310D01*
X530367Y101929D01*
X531247Y101754D01*
X531541Y101812D01*
X532139Y101931D01*
X532895Y102437D01*
X533400Y103193D01*
X533578Y104085D01*
X533400Y104977D01*
X533127Y105386D01*
X553058Y125316D01*
X553380Y126094D01*
Y133757D01*
X553484Y134984D01*
X565516D01*
Y136368D01*
X565673Y136603D01*
X565870Y137594D01*
X565673Y138585D01*
X565516Y138820D01*
Y141368D01*
X565673Y141603D01*
X565870Y142594D01*
X565673Y143585D01*
X565516Y143820D01*
Y145911D01*
X569709D01*
X570317Y145303D01*
Y134930D01*
X550810Y115423D01*
X550445Y114877D01*
X550317Y114233D01*
Y78000D01*
X550445Y77356D01*
X550810Y76810D01*
X554709Y72910D01*
X554333Y72347D01*
X553866Y70000D01*
X554333Y67653D01*
X555663Y65663D01*
X557653Y64333D01*
X560000Y63866D01*
X562347Y64333D01*
X564337Y65663D01*
X565667Y67653D01*
X566134Y70000D01*
X565667Y72347D01*
X564337Y74337D01*
X562347Y75667D01*
X560000Y76134D01*
X557653Y75667D01*
X557090Y75291D01*
X553683Y78697D01*
Y86339D01*
X554953Y86724D01*
X555663Y85663D01*
X557653Y84333D01*
X560000Y83866D01*
X562347Y84333D01*
X564337Y85663D01*
X565667Y87653D01*
X566134Y90000D01*
X565667Y92347D01*
X564337Y94337D01*
X562347Y95667D01*
X561683Y95799D01*
Y116303D01*
X576190Y130810D01*
X576555Y131356D01*
X576683Y132000D01*
Y148000D01*
X576555Y148644D01*
X576190Y149190D01*
X571596Y153784D01*
X571050Y154149D01*
X570406Y154277D01*
X567040D01*
Y156230D01*
X559500D01*
X551960D01*
Y153460D01*
X553484D01*
Y145184D01*
X552304D01*
X552280Y145194D01*
X459361D01*
X433100Y171455D01*
Y179860D01*
X434273Y180346D01*
X459909Y154710D01*
X460455Y154346D01*
X461099Y154217D01*
X543849D01*
X544493Y154346D01*
X545039Y154710D01*
X550690Y160361D01*
X551960Y159835D01*
Y158770D01*
X559500D01*
X567040D01*
Y161540D01*
X565516D01*
Y168460D01*
X567040D01*
Y171230D01*
X559500D01*
X551960D01*
Y169277D01*
X550594D01*
X549950Y169149D01*
X549404Y168784D01*
X541147Y160527D01*
X462629D01*
X456739Y166417D01*
X439683Y183473D01*
Y216981D01*
X440436Y218126D01*
X441625Y218363D01*
X442634Y219037D01*
X443307Y220045D01*
X443544Y221234D01*
X443307Y222423D01*
X442634Y223431D01*
X441625Y224105D01*
X440436Y224342D01*
X439247Y224105D01*
X438238Y223431D01*
X437565Y222423D01*
X437328Y221234D01*
X437449Y220627D01*
X436810Y219988D01*
X436445Y219442D01*
X436317Y218798D01*
Y215793D01*
X435888Y215450D01*
X435047Y215007D01*
X434086Y215198D01*
X434081Y215197D01*
X433100Y216003D01*
Y230000D01*
X432778Y230778D01*
X432000Y231100D01*
X417555D01*
Y334468D01*
X419544Y336456D01*
X419909Y337002D01*
X420037Y337646D01*
X419909Y338291D01*
X419544Y338837D01*
X414183Y344197D01*
Y351370D01*
X415744D01*
X416787Y350100D01*
X416567Y348996D01*
X417020Y346717D01*
X418312Y344784D01*
X420244Y343493D01*
X422523Y343040D01*
X424803Y343493D01*
X425000Y343625D01*
X425197Y343493D01*
X427477Y343040D01*
X429756Y343493D01*
X430657Y344095D01*
X431830Y343609D01*
X432020Y342653D01*
X433312Y340720D01*
X435244Y339429D01*
X437523Y338976D01*
X439803Y339429D01*
X440000Y339561D01*
X440197Y339429D01*
X442477Y338976D01*
X444756Y339429D01*
X446688Y340720D01*
X447980Y342653D01*
X448433Y344932D01*
X447980Y347211D01*
X446898Y348830D01*
X447292Y349891D01*
X447461Y350100D01*
X447810D01*
Y351370D01*
X451540D01*
Y366450D01*
X447810D01*
Y367720D01*
D02*
G37*
G36*
X229263Y369947D02*
X217198D01*
Y358497D01*
X215928Y358140D01*
X215871Y358189D01*
X215198Y359198D01*
X214189Y359871D01*
X213000Y360108D01*
X211811Y359871D01*
X210802Y359198D01*
X210129Y358189D01*
X209892Y357000D01*
X210129Y355811D01*
X210802Y354803D01*
X211811Y354129D01*
X213000Y353892D01*
X213785Y354049D01*
X214189Y354129D01*
X215128Y353310D01*
X215802Y352302D01*
X216810Y351628D01*
X218000Y351392D01*
X219189Y351628D01*
X220197Y352302D01*
X220871Y353310D01*
X221107Y354499D01*
X221487Y354962D01*
X229263D01*
Y369947D01*
D02*
G37*
G36*
X243868D02*
X231803D01*
Y354962D01*
X243868D01*
Y369947D01*
D02*
G37*
G36*
X259655Y358125D02*
X258466Y357888D01*
X257458Y357215D01*
X256784Y356207D01*
X256548Y355017D01*
X256784Y353828D01*
X257458Y352820D01*
X258466Y352146D01*
X259655Y351910D01*
X260845Y352146D01*
X261853Y352820D01*
X262526Y353828D01*
X262763Y355017D01*
X262526Y356207D01*
X261853Y357215D01*
X260845Y357888D01*
X259655Y358125D01*
D02*
G37*
G36*
X252000Y356108D02*
X250811Y355871D01*
X249802Y355197D01*
X249129Y354189D01*
X248892Y353000D01*
X249129Y351811D01*
X249802Y350802D01*
X250811Y350129D01*
X252000Y349892D01*
X253189Y350129D01*
X254198Y350802D01*
X254871Y351811D01*
X255108Y353000D01*
X254871Y354189D01*
X254198Y355197D01*
X253189Y355871D01*
X252000Y356108D01*
D02*
G37*
G36*
X315455Y369199D02*
X314678Y368877D01*
X313608Y367808D01*
X313286Y367030D01*
Y352740D01*
X313608Y351963D01*
X314448Y351123D01*
X315226Y350801D01*
X358460D01*
X359238Y351123D01*
X359485Y351370D01*
X360917D01*
X361722Y350388D01*
X361567Y349608D01*
X362020Y347328D01*
X363312Y345396D01*
X365244Y344105D01*
X367523Y343651D01*
X369803Y344105D01*
X370000Y344236D01*
X370197Y344105D01*
X372477Y343651D01*
X374756Y344105D01*
X376688Y345396D01*
X377980Y347328D01*
X378433Y349608D01*
X378278Y350388D01*
X379083Y351370D01*
X380817D01*
Y348470D01*
X380303Y348127D01*
X379629Y347119D01*
X379392Y345929D01*
X379629Y344740D01*
X380303Y343732D01*
X381311Y343058D01*
X382500Y342822D01*
X383689Y343058D01*
X384697Y343732D01*
X385371Y344740D01*
X385608Y345929D01*
X385371Y347119D01*
X384697Y348127D01*
X384183Y348470D01*
Y351370D01*
X386230D01*
Y358910D01*
Y366450D01*
X383460D01*
Y364926D01*
X381540D01*
Y366450D01*
X377810D01*
Y367720D01*
X362190D01*
X362190Y367720D01*
Y367720D01*
X360920Y367598D01*
X360273Y368246D01*
X360246Y368257D01*
X360233Y368283D01*
X359545Y368907D01*
X359172Y369039D01*
X358807Y369191D01*
X315476D01*
X315455Y369199D01*
D02*
G37*
G36*
X216316Y346375D02*
X215126Y346138D01*
X214118Y345465D01*
X213444Y344456D01*
X213208Y343267D01*
X213221Y343200D01*
X212132Y342164D01*
X211694Y342252D01*
X210504Y342015D01*
X209496Y341341D01*
X208822Y340333D01*
X208586Y339144D01*
X208822Y337954D01*
X209496Y336946D01*
X210504Y336273D01*
X211694Y336036D01*
X212883Y336273D01*
X213891Y336946D01*
X214565Y337954D01*
X214801Y339144D01*
X214788Y339211D01*
X215877Y340247D01*
X216316Y340159D01*
X217505Y340396D01*
X218513Y341070D01*
X219187Y342078D01*
X219423Y343267D01*
X219187Y344456D01*
X218513Y345465D01*
X217505Y346138D01*
X216316Y346375D01*
D02*
G37*
G36*
X220162Y339768D02*
X218973Y339531D01*
X217965Y338858D01*
X217291Y337849D01*
X217055Y336660D01*
X217291Y335471D01*
X217965Y334463D01*
X218973Y333789D01*
X220162Y333552D01*
X221352Y333789D01*
X222360Y334463D01*
X223034Y335471D01*
X223270Y336660D01*
X223034Y337849D01*
X222360Y338858D01*
X221352Y339531D01*
X220162Y339768D01*
D02*
G37*
G36*
X16464Y344698D02*
X13556Y344315D01*
X10845Y343193D01*
X8518Y341407D01*
X6732Y339080D01*
X5610Y336369D01*
X5227Y333461D01*
X5610Y330553D01*
X6732Y327842D01*
X8518Y325515D01*
X10845Y323729D01*
X13556Y322607D01*
X16464Y322224D01*
X19372Y322607D01*
X22083Y323729D01*
X24410Y325515D01*
X26196Y327842D01*
X27318Y330553D01*
X27701Y333461D01*
X27318Y336369D01*
X26196Y339080D01*
X24410Y341407D01*
X22083Y343193D01*
X19372Y344315D01*
X16464Y344698D01*
D02*
G37*
G36*
X585230Y297614D02*
X577460D01*
Y286344D01*
X585230D01*
Y297614D01*
D02*
G37*
G36*
Y283804D02*
X577460D01*
Y272534D01*
X585230D01*
Y283804D01*
D02*
G37*
G36*
X567040Y266540D02*
X551960D01*
Y262810D01*
X550690D01*
X549629Y263314D01*
X548633Y263980D01*
X546354Y264433D01*
X544075Y263980D01*
X542142Y262688D01*
X540851Y260756D01*
X540397Y258477D01*
X540851Y256197D01*
X540983Y256000D01*
X540851Y255803D01*
X540397Y253524D01*
X540851Y251244D01*
X542142Y249312D01*
X542407Y249135D01*
Y247865D01*
X542142Y247688D01*
X540851Y245756D01*
X540397Y243477D01*
X540851Y241197D01*
X540983Y241000D01*
X540851Y240803D01*
X540397Y238524D01*
X540851Y236244D01*
X542142Y234312D01*
X543497Y233407D01*
X544064Y232969D01*
X543821Y231779D01*
X543137Y230756D01*
X542683Y228477D01*
X543137Y226197D01*
X543269Y226000D01*
X543137Y225803D01*
X542683Y223524D01*
X543137Y221244D01*
X544428Y219312D01*
X544562Y219222D01*
X544232Y217915D01*
X542396Y216688D01*
X541105Y214756D01*
X540652Y212477D01*
X541105Y210197D01*
X541237Y210000D01*
X541105Y209803D01*
X540652Y207523D01*
X541105Y205244D01*
X542396Y203312D01*
X542904Y202972D01*
Y201846D01*
X541613Y199914D01*
X541160Y197634D01*
X541613Y195355D01*
X541787Y195094D01*
X541613Y194834D01*
X541160Y192554D01*
X541613Y190275D01*
X542904Y188342D01*
X544837Y187051D01*
X547116Y186598D01*
X549395Y187051D01*
X550086Y187513D01*
X550690Y187190D01*
Y187190D01*
X551960D01*
Y184183D01*
X551627D01*
X550983Y184055D01*
X550436Y183690D01*
X550107Y183360D01*
X549500Y183481D01*
X548311Y183244D01*
X547303Y182571D01*
X546629Y181563D01*
X546392Y180373D01*
X546529Y179684D01*
X545714Y178674D01*
X545552Y178584D01*
X545098Y178674D01*
X543908Y178438D01*
X542900Y177764D01*
X542226Y176756D01*
X541990Y175567D01*
X542226Y174377D01*
X542900Y173369D01*
X543908Y172695D01*
X545098Y172459D01*
X546287Y172695D01*
X547295Y173369D01*
X547639Y173883D01*
X550983D01*
X551087Y173770D01*
X559500D01*
X567040D01*
Y176540D01*
X565516D01*
Y183460D01*
X567040D01*
Y187190D01*
X568310D01*
Y192190D01*
Y202190D01*
Y207190D01*
Y217190D01*
Y222190D01*
Y232190D01*
Y237190D01*
Y247190D01*
Y252190D01*
Y262810D01*
X567040D01*
Y266540D01*
D02*
G37*
G36*
X376158Y241159D02*
X374969Y240923D01*
X373961Y240249D01*
X373287Y239241D01*
X373051Y238051D01*
X373072Y237944D01*
X373000Y237108D01*
X371811Y236871D01*
X370802Y236197D01*
X370129Y235189D01*
X369892Y234000D01*
X370129Y232811D01*
X370802Y231803D01*
X371811Y231129D01*
X373000Y230892D01*
X374189Y231129D01*
X375197Y231803D01*
X375871Y232811D01*
X376108Y234000D01*
X376847Y235081D01*
X377348Y235180D01*
X378356Y235854D01*
X379030Y236862D01*
X379266Y238051D01*
X379030Y239241D01*
X378356Y240249D01*
X377348Y240923D01*
X376158Y241159D01*
D02*
G37*
G36*
X71995Y234609D02*
X70805Y234373D01*
X69797Y233699D01*
X69124Y232691D01*
X68887Y231501D01*
X69124Y230312D01*
X69797Y229304D01*
X70805Y228630D01*
X71995Y228394D01*
X73184Y228630D01*
X74192Y229304D01*
X74866Y230312D01*
X75102Y231501D01*
X74866Y232691D01*
X74192Y233699D01*
X73184Y234373D01*
X71995Y234609D01*
D02*
G37*
G36*
X485965Y223888D02*
X483686Y223435D01*
X483489Y223303D01*
X483292Y223435D01*
X481012Y223888D01*
X478733Y223435D01*
X476801Y222144D01*
X475509Y220212D01*
X475056Y217932D01*
X475509Y215653D01*
X476801Y213720D01*
X477814Y213043D01*
Y212159D01*
X478159Y210425D01*
X479141Y208955D01*
X479478Y208617D01*
X479070Y207415D01*
X478148Y207293D01*
X475893Y206359D01*
X473956Y204873D01*
X472470Y202936D01*
X471536Y200681D01*
X471515Y200524D01*
X470167Y200011D01*
X468256Y200802D01*
X465941Y201107D01*
X465836Y201128D01*
X453749D01*
X453030Y202205D01*
X451097Y203496D01*
X448818Y203950D01*
X446539Y203496D01*
X444606Y202205D01*
X443315Y200272D01*
X442862Y197993D01*
X443315Y195714D01*
X443489Y195453D01*
X443315Y195193D01*
X442862Y192913D01*
X443315Y190634D01*
X444606Y188701D01*
X446539Y187410D01*
X448818Y186957D01*
X451097Y187410D01*
X453030Y188701D01*
X453749Y189778D01*
X463844D01*
Y188880D01*
X463865Y188775D01*
X464170Y186460D01*
X465104Y184205D01*
X466590Y182268D01*
X468527Y180782D01*
X470782Y179848D01*
X473202Y179529D01*
X475622Y179848D01*
X477878Y180782D01*
X479814Y182268D01*
X479933Y182423D01*
X481203D01*
X481322Y182268D01*
X483259Y180782D01*
X485514Y179848D01*
X487934Y179529D01*
X490354Y179848D01*
X492610Y180782D01*
X494546Y182268D01*
X495728Y183807D01*
X497255Y184236D01*
X497991Y183672D01*
X500246Y182737D01*
X502666Y182419D01*
X505086Y182737D01*
X507342Y183672D01*
X509278Y185158D01*
X510764Y187094D01*
X511698Y189350D01*
X511755Y189778D01*
X516291D01*
X516342Y189744D01*
X516996Y188765D01*
X518929Y187474D01*
X521208Y187020D01*
X523487Y187474D01*
X525420Y188765D01*
X526711Y190697D01*
X527164Y192976D01*
X526711Y195256D01*
X526579Y195453D01*
X526711Y195650D01*
X527164Y197929D01*
X526711Y200209D01*
X525420Y202141D01*
X524746Y202591D01*
Y203862D01*
X525420Y204312D01*
X526711Y206244D01*
X527164Y208524D01*
X526711Y210803D01*
X526579Y211000D01*
X526711Y211197D01*
X527164Y213477D01*
X526711Y215756D01*
X525420Y217688D01*
X523487Y218979D01*
X521208Y219433D01*
X518929Y218979D01*
X516996Y217688D01*
X516319Y216675D01*
X492673D01*
X491867Y217657D01*
X491922Y217932D01*
X491469Y220212D01*
X490177Y222144D01*
X488245Y223435D01*
X485965Y223888D01*
D02*
G37*
G36*
X221440Y212730D02*
X215400D01*
X209360D01*
Y211270D01*
X215400D01*
X221440D01*
Y212730D01*
D02*
G37*
G36*
X190640Y212730D02*
X184600D01*
X178560D01*
Y211270D01*
X184600D01*
X190640D01*
Y212730D01*
D02*
G37*
G36*
X226999Y209107D02*
X225810Y208871D01*
X224802Y208197D01*
X224459Y207683D01*
X221440D01*
Y208730D01*
X215400D01*
X209360D01*
Y206560D01*
X209385D01*
X209466Y206335D01*
X208629Y204910D01*
X208433Y204871D01*
X207425Y204198D01*
X206751Y203189D01*
X206567Y202264D01*
X206285Y201795D01*
X205415Y201017D01*
X204683Y200871D01*
X203675Y200198D01*
X203001Y199189D01*
X202764Y198000D01*
X203001Y196811D01*
X203675Y195802D01*
X204683Y195129D01*
X205415Y194983D01*
X206285Y194205D01*
X206567Y193736D01*
X206751Y192811D01*
X207425Y191803D01*
X208433Y191129D01*
X209360Y190944D01*
Y187270D01*
X215400D01*
X221440D01*
Y188730D01*
X215400D01*
Y191270D01*
X221440D01*
Y193440D01*
X219916D01*
Y194814D01*
X219916Y195916D01*
X219916D01*
Y196084D01*
X219916D01*
Y199916D01*
X219916D01*
Y200084D01*
X219916D01*
Y203916D01*
X221020Y204317D01*
X224458D01*
X224802Y203802D01*
X225810Y203128D01*
X226999Y202892D01*
X228189Y203128D01*
X229197Y203802D01*
X229871Y204810D01*
X230107Y206000D01*
X229871Y207189D01*
X229197Y208197D01*
X228189Y208871D01*
X226999Y209107D01*
D02*
G37*
G36*
X166000Y200108D02*
X164811Y199871D01*
X163803Y199198D01*
X163129Y198189D01*
X162892Y197000D01*
X163129Y195811D01*
X163634Y195055D01*
Y116237D01*
X162460Y115751D01*
X147978Y130234D01*
Y148249D01*
Y150704D01*
X149248Y151090D01*
X149274Y151052D01*
X150282Y150378D01*
X151471Y150141D01*
X152660Y150378D01*
X153669Y151052D01*
X154342Y152060D01*
X154579Y153249D01*
X154342Y154438D01*
X153669Y155447D01*
X152660Y156120D01*
X151471Y156357D01*
X150282Y156120D01*
X149605Y155668D01*
X148483Y156083D01*
X148316Y156218D01*
X148207Y156995D01*
X158106Y166894D01*
X158751Y167860D01*
X158978Y169000D01*
Y191349D01*
X159108Y192000D01*
X158871Y193189D01*
X158197Y194198D01*
X157189Y194871D01*
X156000Y195108D01*
X154811Y194871D01*
X153802Y194198D01*
X153129Y193189D01*
X152892Y192000D01*
X153022Y191349D01*
Y170234D01*
X142894Y160106D01*
X142248Y159140D01*
X142022Y158000D01*
Y149932D01*
X132515D01*
X131266Y149984D01*
X131266Y151202D01*
Y160016D01*
X130683D01*
Y162734D01*
X132766D01*
Y168986D01*
X133939Y169472D01*
X134284Y169127D01*
X134830Y168762D01*
X135475Y168634D01*
X140526D01*
X141170Y168762D01*
X141716Y169127D01*
X141854Y169265D01*
X143230Y169170D01*
X143344Y168999D01*
X144353Y168325D01*
X145542Y168088D01*
X146731Y168325D01*
X147739Y168999D01*
X148413Y170007D01*
X148650Y171196D01*
X148413Y172385D01*
X147739Y173393D01*
X146731Y174067D01*
X145542Y174304D01*
X144353Y174067D01*
X143344Y173393D01*
X142159Y173764D01*
X142080Y173861D01*
X142108Y174000D01*
X141871Y175189D01*
X141198Y176197D01*
X140189Y176871D01*
X139000Y177108D01*
X137811Y176871D01*
X137031Y176350D01*
X134290Y179090D01*
X134551Y180294D01*
X134670Y180461D01*
X134691Y180465D01*
X135699Y181139D01*
X136373Y182147D01*
X136609Y183336D01*
X136373Y184525D01*
X135699Y185534D01*
X134691Y186207D01*
X133501Y186444D01*
X133223Y186388D01*
X132827Y186755D01*
X132327Y187505D01*
X132746Y189609D01*
X132279Y191957D01*
X130949Y193947D01*
X128959Y195276D01*
X126612Y195743D01*
X124265Y195276D01*
X122275Y193947D01*
X120945Y191957D01*
X120573Y190087D01*
X119289Y189576D01*
X116705Y192159D01*
X116159Y192524D01*
X115515Y192652D01*
X91969D01*
X91325Y192524D01*
X90779Y192159D01*
X87910Y189291D01*
X87347Y189667D01*
X85000Y190134D01*
X82653Y189667D01*
X80663Y188337D01*
X79333Y186347D01*
X78866Y184000D01*
X79333Y181653D01*
X80663Y179663D01*
X82653Y178333D01*
X85000Y177866D01*
X87347Y178333D01*
X89337Y179663D01*
X90667Y181653D01*
X91134Y184000D01*
X90667Y186347D01*
X90291Y186910D01*
X92666Y189286D01*
X104037D01*
X104523Y188112D01*
X102462Y186051D01*
X102097Y185505D01*
X101969Y184861D01*
Y181706D01*
X101305Y181574D01*
X99315Y180244D01*
X97986Y178254D01*
X97519Y175907D01*
X97986Y173560D01*
X98362Y172997D01*
X96048Y170683D01*
X85541D01*
X85197Y171197D01*
X84189Y171871D01*
X83000Y172108D01*
X81811Y171871D01*
X80802Y171197D01*
X80129Y170189D01*
X79892Y169000D01*
X80129Y167811D01*
X80802Y166803D01*
X81811Y166129D01*
X83000Y165892D01*
X84189Y166129D01*
X85197Y166803D01*
X85541Y167317D01*
X96712D01*
X96782Y167244D01*
X97330Y166138D01*
X96352Y165160D01*
X95847Y164404D01*
X95819Y164266D01*
X94234D01*
Y155734D01*
X101766D01*
Y163982D01*
X102453Y164669D01*
X108246D01*
X109055Y164129D01*
X110244Y163892D01*
X111433Y164129D01*
X112242Y164669D01*
X115234D01*
Y162734D01*
X122766D01*
Y171266D01*
X121331D01*
Y175000D01*
X121153Y175892D01*
X120648Y176648D01*
X112061Y185235D01*
X111963Y185730D01*
X112657Y186863D01*
X113921Y186950D01*
X127874Y172997D01*
X128420Y172632D01*
X128901Y172536D01*
X128776Y171266D01*
X125234D01*
Y162734D01*
X127317D01*
Y160016D01*
X121234D01*
Y149984D01*
X127807D01*
X128333Y148714D01*
X117810Y138190D01*
X117445Y137644D01*
X117317Y137000D01*
Y136266D01*
X115234D01*
X114183Y136795D01*
Y139500D01*
X114055Y140144D01*
X113690Y140690D01*
X111987Y142394D01*
X112108Y143000D01*
X111871Y144189D01*
X111198Y145197D01*
X110189Y145871D01*
X109000Y146108D01*
X107811Y145871D01*
X106803Y145197D01*
X106129Y144189D01*
X105892Y143000D01*
X106129Y141811D01*
X106803Y140802D01*
X107811Y140129D01*
X109000Y139892D01*
X109607Y140013D01*
X110817Y138803D01*
Y125016D01*
X108734D01*
Y115879D01*
X99669D01*
X90763Y124785D01*
X89209Y125823D01*
X87375Y126188D01*
X80401D01*
X80096Y127458D01*
X80683Y127851D01*
X81357Y128859D01*
X81594Y130048D01*
X81357Y131237D01*
X80683Y132246D01*
X79675Y132919D01*
X79119Y133030D01*
X78293Y134198D01*
X78256Y134398D01*
X78359Y134690D01*
X79810D01*
Y134690D01*
X80721Y135438D01*
X80777Y135427D01*
X83056Y135880D01*
X84989Y137171D01*
X85214Y137508D01*
X86484Y137123D01*
Y131334D01*
X91516D01*
Y140466D01*
X90683D01*
Y142596D01*
X91484Y143534D01*
X91953Y143534D01*
X96516D01*
Y146417D01*
X105600D01*
X106244Y146545D01*
X106790Y146910D01*
X109865Y149984D01*
X118766D01*
Y160016D01*
X108734D01*
Y153615D01*
X104903Y149783D01*
X96516D01*
Y152666D01*
X91953D01*
X91484Y152666D01*
X90683Y153604D01*
Y155734D01*
X91766D01*
Y164266D01*
X84234D01*
Y155734D01*
X87317D01*
Y147938D01*
X86047Y147813D01*
X85767Y149219D01*
X84476Y151151D01*
X82543Y152442D01*
X80264Y152895D01*
X79522Y152748D01*
X78540Y153553D01*
Y154040D01*
X66460D01*
X65540Y154885D01*
Y158540D01*
X60770D01*
Y151000D01*
X59500D01*
Y149730D01*
X53460D01*
Y147810D01*
X52190D01*
Y137190D01*
Y132190D01*
X54984D01*
Y127810D01*
X52190D01*
Y117190D01*
Y112190D01*
X54984D01*
Y107810D01*
X52190D01*
Y97190D01*
Y92190D01*
X53460D01*
Y90270D01*
X59500D01*
Y89000D01*
X60770D01*
Y81460D01*
X65540D01*
Y85115D01*
X66460Y85960D01*
X78540D01*
Y89690D01*
X79810D01*
Y91503D01*
X79887D01*
X81682Y91861D01*
X83203Y92877D01*
X83209Y92883D01*
X83209Y92883D01*
X83333Y93007D01*
X83547Y92964D01*
X85342Y93321D01*
X86863Y94338D01*
X89418Y96892D01*
X90214Y98084D01*
X91484Y97699D01*
Y95534D01*
X96516D01*
Y98417D01*
X99978D01*
X102288Y96107D01*
X102167Y95500D01*
X102215Y95260D01*
X101207Y93990D01*
X100270D01*
Y89170D01*
X103040D01*
Y91800D01*
X103476Y92146D01*
X104310Y92584D01*
X105275Y92393D01*
X106464Y92629D01*
X107472Y93303D01*
X107736Y93698D01*
X108933Y93202D01*
X108892Y93000D01*
X109129Y91811D01*
X109480Y91286D01*
X108868Y90016D01*
X108734D01*
Y83615D01*
X99903Y74783D01*
X96516D01*
Y77666D01*
X91484D01*
Y68534D01*
X96516D01*
Y71417D01*
X100600D01*
X101244Y71545D01*
X101790Y71910D01*
X109865Y79984D01*
X118766D01*
Y90016D01*
X115132D01*
X114521Y91286D01*
X114871Y91811D01*
X115234Y92734D01*
X116251Y92734D01*
X122766D01*
Y101266D01*
X115234D01*
Y97670D01*
X114857D01*
X114163Y97532D01*
X113575Y97139D01*
X112454Y96018D01*
X112000Y96108D01*
X110811Y95871D01*
X109803Y95197D01*
X109539Y94803D01*
X108342Y95298D01*
X108383Y95500D01*
X108146Y96690D01*
X107472Y97698D01*
X106464Y98371D01*
X105275Y98608D01*
X104668Y98487D01*
X101865Y101290D01*
X101319Y101655D01*
X100675Y101783D01*
X96516D01*
Y103494D01*
X96527Y103503D01*
X130383D01*
X131447Y102439D01*
X130961Y101266D01*
X125234D01*
Y92734D01*
X125817D01*
Y90016D01*
X121234D01*
Y79984D01*
X131266D01*
Y90016D01*
X129183D01*
Y92734D01*
X132766D01*
Y99461D01*
X133939Y99947D01*
X136274Y97612D01*
X136274Y97612D01*
X138322Y95564D01*
X137696Y94394D01*
X137000Y94532D01*
X135811Y94296D01*
X134803Y93622D01*
X134129Y92614D01*
X133892Y91425D01*
X134129Y90236D01*
X134803Y89227D01*
X135316Y88884D01*
Y84001D01*
X135444Y83356D01*
X135809Y82810D01*
X137810Y80810D01*
X138356Y80445D01*
X139000Y80317D01*
X147000D01*
X147644Y80445D01*
X148190Y80810D01*
X157404Y90024D01*
X158578Y89538D01*
Y68953D01*
X147603Y57978D01*
X123245D01*
X122337Y59337D01*
X120347Y60667D01*
X118000Y61134D01*
X115653Y60667D01*
X113663Y59337D01*
X112333Y57347D01*
X111866Y55000D01*
X112333Y52653D01*
X113663Y50663D01*
X115653Y49333D01*
X118000Y48866D01*
X120347Y49333D01*
X122337Y50663D01*
X123245Y52022D01*
X148837D01*
X149977Y52249D01*
X150943Y52894D01*
X163662Y65613D01*
X164307Y66579D01*
X164534Y67719D01*
Y105200D01*
X165804Y105585D01*
X165810Y105577D01*
X178758Y92628D01*
X179304Y92263D01*
X179949Y92135D01*
X199464D01*
X200109Y92263D01*
X200655Y92628D01*
X204128Y96101D01*
X204493Y96647D01*
X204621Y97291D01*
Y100261D01*
X208090Y103730D01*
X209200Y103270D01*
X215400D01*
Y100730D01*
X209360D01*
Y98560D01*
X216484D01*
X216689Y97529D01*
X217980Y95596D01*
X219912Y94305D01*
X220220Y94244D01*
X220281Y93937D01*
X221572Y92004D01*
X223505Y90713D01*
X223962Y90622D01*
X224331Y89407D01*
X211115Y76191D01*
X206257D01*
X206168Y76251D01*
X205873Y76691D01*
X203941Y77983D01*
X201662Y78436D01*
X199382Y77983D01*
X197450Y76691D01*
X196159Y74759D01*
X195705Y72480D01*
X196159Y70200D01*
X196290Y70003D01*
X196159Y69806D01*
X195705Y67526D01*
X196159Y65247D01*
X197450Y63315D01*
X199382Y62024D01*
X201662Y61570D01*
X203941Y62024D01*
X205873Y63315D01*
X206208Y63815D01*
X211915D01*
X212594Y62545D01*
X212455Y62337D01*
X212218Y61148D01*
X212455Y59959D01*
X213129Y58951D01*
X214137Y58277D01*
X215326Y58040D01*
X215933Y58161D01*
X228548Y45545D01*
X229095Y45180D01*
X229739Y45052D01*
X302543D01*
X303069Y43782D01*
X298554Y39267D01*
X281612D01*
X281268Y39781D01*
X280260Y40455D01*
X279071Y40691D01*
X277882Y40455D01*
X276873Y39781D01*
X276200Y38773D01*
X275963Y37583D01*
X276200Y36394D01*
X276873Y35386D01*
X277882Y34712D01*
X279071Y34476D01*
X280260Y34712D01*
X281268Y35386D01*
X281612Y35900D01*
X299251D01*
X299895Y36028D01*
X300442Y36393D01*
X317855Y53807D01*
X318220Y54353D01*
X318348Y54997D01*
Y159177D01*
X318220Y159822D01*
X317855Y160368D01*
X293984Y184239D01*
Y192359D01*
X294498Y192703D01*
X295172Y193711D01*
X295408Y194900D01*
X295172Y196089D01*
X294498Y197097D01*
X293490Y197771D01*
X292301Y198008D01*
X291111Y197771D01*
X290584Y197419D01*
X289954Y197178D01*
X288982Y197705D01*
X288787Y197997D01*
X287778Y198671D01*
X286589Y198908D01*
X285400Y198671D01*
X284392Y197997D01*
X283718Y196989D01*
X283482Y195800D01*
X283718Y194611D01*
X284392Y193603D01*
X284906Y193259D01*
Y182768D01*
X285034Y182123D01*
X285399Y181577D01*
X312210Y154766D01*
Y118830D01*
X311036Y118344D01*
X246190Y183190D01*
X245644Y183555D01*
X245000Y183683D01*
X221440D01*
Y184730D01*
X215400D01*
X209360D01*
Y182560D01*
X210884D01*
Y180084D01*
X209780Y179683D01*
X209250D01*
X208606Y179555D01*
X208060Y179190D01*
X207522Y178653D01*
X206144Y179071D01*
X206121Y179189D01*
X205447Y180197D01*
X204439Y180871D01*
X203250Y181107D01*
X202060Y180871D01*
X201052Y180197D01*
X199618Y180337D01*
X199606Y180356D01*
X198598Y181029D01*
X197408Y181266D01*
X196219Y181029D01*
X195211Y180356D01*
X194537Y179348D01*
X194301Y178158D01*
X194313Y178094D01*
X190386Y174167D01*
X189116Y174693D01*
Y175916D01*
X189116Y175916D01*
Y176084D01*
X189116D01*
X189116Y177186D01*
Y179916D01*
X189116D01*
Y180084D01*
X189116D01*
Y182560D01*
X190640D01*
Y184730D01*
X184600D01*
X178560D01*
Y184608D01*
X177290Y184082D01*
X175747Y185625D01*
X175871Y185810D01*
X176107Y187000D01*
X175871Y188189D01*
X175197Y189197D01*
X174189Y189871D01*
X173000Y190107D01*
X172918Y190091D01*
X172604Y190307D01*
X171947Y191193D01*
X172108Y192000D01*
X171871Y193189D01*
X171197Y194198D01*
X170189Y194871D01*
X169820Y194945D01*
X168985Y195707D01*
X168971Y196310D01*
X169108Y197000D01*
X168871Y198189D01*
X168197Y199198D01*
X167189Y199871D01*
X166000Y200108D01*
D02*
G37*
G36*
X103040Y141990D02*
X100270D01*
Y137170D01*
X103040D01*
Y141990D01*
D02*
G37*
G36*
X97730D02*
X94960D01*
Y137170D01*
X97730D01*
Y141990D01*
D02*
G37*
G36*
X103040Y134630D02*
X100270D01*
Y129810D01*
X103040D01*
Y134630D01*
D02*
G37*
G36*
X97730D02*
X94960D01*
Y129810D01*
X97730D01*
Y134630D01*
D02*
G37*
G36*
X585230Y127040D02*
X577460D01*
Y115770D01*
X585230D01*
Y127040D01*
D02*
G37*
G36*
Y113230D02*
X577460D01*
Y101960D01*
X585230D01*
Y113230D01*
D02*
G37*
G36*
X97730Y93990D02*
X94960D01*
Y89170D01*
X97730D01*
Y93990D01*
D02*
G37*
G36*
X103040Y86630D02*
X100270D01*
Y81810D01*
X103040D01*
Y86630D01*
D02*
G37*
G36*
X58230Y87730D02*
X53460D01*
Y81460D01*
X58230D01*
Y87730D01*
D02*
G37*
G36*
X91516Y92466D02*
X86484D01*
Y83334D01*
X89135D01*
X90310Y82160D01*
X90856Y81795D01*
X91453Y81676D01*
X91803Y81152D01*
X92811Y80479D01*
X94000Y80242D01*
X95189Y80479D01*
X96198Y81152D01*
X96637Y81810D01*
X97730D01*
Y86630D01*
X94210D01*
X94000Y86458D01*
X92811Y86221D01*
X92786Y86205D01*
X91516Y86883D01*
Y92466D01*
D02*
G37*
G36*
X580000Y91237D02*
X577092Y90854D01*
X574381Y89732D01*
X572054Y87946D01*
X570268Y85618D01*
X569146Y82908D01*
X568763Y80000D01*
X569146Y77092D01*
X570268Y74381D01*
X572054Y72054D01*
X574381Y70268D01*
X577092Y69146D01*
X580000Y68763D01*
X582908Y69146D01*
X585619Y70268D01*
X587946Y72054D01*
X589732Y74381D01*
X590854Y77092D01*
X591237Y80000D01*
X590854Y82908D01*
X589732Y85618D01*
X587946Y87946D01*
X585619Y89732D01*
X582908Y90854D01*
X580000Y91237D01*
D02*
G37*
G36*
X103040Y66990D02*
X100270D01*
Y62170D01*
X103040D01*
Y66990D01*
D02*
G37*
G36*
X97730D02*
X94960D01*
Y62170D01*
X97730D01*
Y66990D01*
D02*
G37*
G36*
X144000Y73134D02*
X141653Y72667D01*
X139663Y71337D01*
X138333Y69347D01*
X137866Y67000D01*
X138333Y64653D01*
X139663Y62663D01*
X141653Y61333D01*
X144000Y60866D01*
X146347Y61333D01*
X148337Y62663D01*
X149667Y64653D01*
X150134Y67000D01*
X149667Y69347D01*
X148337Y71337D01*
X146347Y72667D01*
X144000Y73134D01*
D02*
G37*
G36*
X103040Y59630D02*
X100270D01*
Y54810D01*
X103040D01*
Y59630D01*
D02*
G37*
G36*
X85540Y40040D02*
X74270D01*
Y31270D01*
X85540D01*
Y40040D01*
D02*
G37*
G36*
X71730D02*
X60460D01*
Y31270D01*
X71730D01*
Y40040D01*
D02*
G37*
G36*
X85540Y28730D02*
X74270D01*
Y19960D01*
X85540D01*
Y28730D01*
D02*
G37*
G36*
X71730D02*
X60460D01*
Y19960D01*
X71730D01*
Y28730D01*
D02*
G37*
G36*
X482825Y22740D02*
X471555D01*
Y14970D01*
X482825D01*
Y22740D01*
D02*
G37*
G36*
X342255D02*
X330985D01*
Y14970D01*
X342255D01*
Y22740D01*
D02*
G37*
G36*
X469015D02*
X457745D01*
Y14970D01*
X469015D01*
Y22740D01*
D02*
G37*
G36*
X328445D02*
X317175D01*
Y14970D01*
X328445D01*
Y22740D01*
D02*
G37*
G36*
X91516Y65466D02*
X86484D01*
Y56334D01*
X90135D01*
X98061Y48408D01*
X98607Y48043D01*
X99252Y47915D01*
X106704D01*
X115211Y39409D01*
X115984Y38516D01*
X115984D01*
X115984Y38516D01*
Y21484D01*
X132317D01*
Y18541D01*
X131803Y18197D01*
X131129Y17189D01*
X130892Y16000D01*
X131129Y14811D01*
X131803Y13802D01*
X132811Y13129D01*
X134000Y12892D01*
X135189Y13129D01*
X136198Y13802D01*
X136871Y14811D01*
X137108Y16000D01*
X136871Y17189D01*
X136198Y18197D01*
X135683Y18541D01*
Y21484D01*
X138016D01*
Y38516D01*
X119838D01*
Y38846D01*
X119709Y39490D01*
X119344Y40036D01*
X108592Y50789D01*
X108046Y51153D01*
X107402Y51282D01*
X99949D01*
X97594Y53637D01*
X97730Y53965D01*
Y59630D01*
X94960D01*
Y57930D01*
X93787Y57444D01*
X91516Y59715D01*
Y65466D01*
D02*
G37*
G36*
X160000Y31237D02*
X157092Y30854D01*
X154382Y29732D01*
X152054Y27946D01*
X150268Y25619D01*
X149146Y22908D01*
X148763Y20000D01*
X149146Y17092D01*
X150268Y14382D01*
X152054Y12054D01*
X154382Y10268D01*
X157092Y9146D01*
X160000Y8763D01*
X162908Y9146D01*
X165619Y10268D01*
X167946Y12054D01*
X169732Y14382D01*
X170854Y17092D01*
X171237Y20000D01*
X170854Y22908D01*
X169732Y25619D01*
X167946Y27946D01*
X165619Y29732D01*
X162908Y30854D01*
X160000Y31237D01*
D02*
G37*
%LPD*%
G36*
X178238Y333118D02*
X164568Y319448D01*
X156214D01*
X147000Y310234D01*
X147000Y258501D01*
X143499Y255000D01*
X139586D01*
X139388Y255133D01*
X138000Y255408D01*
X136613Y255133D01*
X136414Y255000D01*
X118429D01*
X111762Y261667D01*
Y330201D01*
X140545Y358984D01*
X141016D01*
Y359455D01*
X144244Y362683D01*
X144700Y362592D01*
X145889Y362829D01*
X146897Y363503D01*
X147571Y364511D01*
X147732Y365321D01*
X149027D01*
X149129Y364811D01*
X149803Y363802D01*
X150811Y363129D01*
X152000Y362892D01*
X153189Y363129D01*
X154198Y363802D01*
X154871Y364811D01*
X155108Y366000D01*
X154871Y367189D01*
X154198Y368198D01*
X153189Y368871D01*
X152387Y369031D01*
X151908Y370098D01*
X151887Y370326D01*
X166101Y384540D01*
X178238D01*
X178238Y333118D01*
D02*
G37*
G36*
X87500Y317554D02*
Y309018D01*
X83134Y304653D01*
X61022D01*
X50605Y294236D01*
Y265605D01*
X23536Y238536D01*
Y197008D01*
X26794Y193749D01*
X40251D01*
X56106Y177894D01*
Y159105D01*
X53000Y156000D01*
X36147D01*
X30500Y161647D01*
Y168962D01*
X8787Y190675D01*
Y286490D01*
X42849Y320552D01*
X62953D01*
X63632Y319282D01*
X63349Y318860D01*
X63073Y317473D01*
X63349Y316085D01*
X64135Y314909D01*
X65312Y314123D01*
X66699Y313847D01*
X68087Y314123D01*
X69263Y314909D01*
X70049Y316085D01*
X70325Y317473D01*
X70049Y318860D01*
X69767Y319282D01*
X70445Y320552D01*
X84501D01*
X87500Y317554D01*
D02*
G37*
G36*
X128984Y385614D02*
Y374984D01*
X141016D01*
Y385614D01*
X142796D01*
X142796Y385614D01*
X146081Y382330D01*
X146065Y380315D01*
X145638Y380230D01*
X144629Y379557D01*
X143956Y378549D01*
X143719Y377359D01*
X143956Y376170D01*
X143802Y374604D01*
X143129Y373596D01*
X142892Y372406D01*
X143129Y371217D01*
X143802Y370209D01*
X144131Y369989D01*
X143863Y368641D01*
X143511Y368571D01*
X142502Y367897D01*
X141829Y366889D01*
X141592Y365700D01*
X141829Y364511D01*
X142502Y363503D01*
X142593Y362587D01*
X140238Y360233D01*
X140100Y359900D01*
X139767Y359762D01*
X110984Y330979D01*
X110662Y330201D01*
Y261667D01*
X110984Y260889D01*
X112063Y259810D01*
X111416Y258661D01*
X91857D01*
X86001Y264518D01*
Y305964D01*
X88278Y308241D01*
X88600Y309018D01*
Y317554D01*
X88278Y318332D01*
X86001Y320608D01*
Y339346D01*
X85117Y340229D01*
X85242Y341493D01*
X85367Y341577D01*
X86041Y342585D01*
X86278Y343775D01*
X86041Y344964D01*
X85367Y345972D01*
X84359Y346646D01*
X84546Y347904D01*
X84738Y348870D01*
X84501Y350059D01*
X83828Y351068D01*
X82819Y351741D01*
X81630Y351978D01*
X80441Y351741D01*
X79433Y351068D01*
X78759Y350059D01*
X78523Y348870D01*
X78585Y348558D01*
X77414Y347933D01*
X73500Y351847D01*
Y358046D01*
X83098Y367644D01*
X92856D01*
Y377402D01*
X101069Y385614D01*
X128984Y385614D01*
D02*
G37*
G36*
X141033Y206194D02*
X141202Y205550D01*
X140932Y205147D01*
X138764Y202978D01*
X101308D01*
X100168Y202752D01*
X99202Y202106D01*
X97536Y200440D01*
X83919D01*
X82779Y200213D01*
X81813Y199568D01*
X78038Y195793D01*
X77052Y196602D01*
X77610Y197438D01*
X77847Y198628D01*
X77610Y199817D01*
X76936Y200825D01*
X75928Y201499D01*
X74739Y201735D01*
X73550Y201499D01*
X72541Y200825D01*
X71868Y199817D01*
X71631Y198628D01*
X71868Y197438D01*
X72541Y196430D01*
X72962Y196149D01*
X72577Y194879D01*
X69146D01*
X68238Y196238D01*
X66248Y197568D01*
X63901Y198035D01*
X61554Y197568D01*
X59564Y196238D01*
X58234Y194248D01*
X57767Y191901D01*
X58086Y190298D01*
X51672Y183883D01*
X42192Y193364D01*
X42718Y194634D01*
X43392D01*
X44036Y194762D01*
X44583Y195127D01*
X56276Y206821D01*
X140695D01*
X141033Y206194D01*
D02*
G37*
%LPC*%
G36*
X147000Y360108D02*
X145811Y359871D01*
X144803Y359198D01*
X144129Y358189D01*
X143892Y357000D01*
X144129Y355811D01*
X144803Y354803D01*
X145811Y354129D01*
X147000Y353892D01*
X148189Y354129D01*
X149198Y354803D01*
X149871Y355811D01*
X150108Y357000D01*
X149871Y358189D01*
X149198Y359198D01*
X148189Y359871D01*
X147000Y360108D01*
D02*
G37*
G36*
X148000Y350608D02*
X146811Y350371D01*
X145802Y349697D01*
X145129Y348689D01*
X144892Y347500D01*
X145129Y346311D01*
X145802Y345303D01*
X146811Y344629D01*
X148000Y344392D01*
X149189Y344629D01*
X150197Y345303D01*
X150871Y346311D01*
X151108Y347500D01*
X150871Y348689D01*
X150197Y349697D01*
X149189Y350371D01*
X148000Y350608D01*
D02*
G37*
G36*
X151000Y342107D02*
X149810Y341870D01*
X148802Y341197D01*
X148128Y340189D01*
X147892Y338999D01*
X148128Y337810D01*
X148802Y336802D01*
X149810Y336128D01*
X151000Y335892D01*
X152189Y336128D01*
X153197Y336802D01*
X153871Y337810D01*
X154107Y338999D01*
X153871Y340189D01*
X153197Y341197D01*
X152189Y341870D01*
X151000Y342107D01*
D02*
G37*
G36*
X149000Y333108D02*
X147811Y332871D01*
X146803Y332197D01*
X146129Y331189D01*
X145892Y330000D01*
X146129Y328811D01*
X146803Y327803D01*
X147811Y327129D01*
X149000Y326892D01*
X150189Y327129D01*
X151198Y327803D01*
X151871Y328811D01*
X152108Y330000D01*
X151871Y331189D01*
X151198Y332197D01*
X150189Y332871D01*
X149000Y333108D01*
D02*
G37*
G36*
X129573Y322108D02*
X128384Y321871D01*
X127376Y321198D01*
X126702Y320189D01*
X126466Y319000D01*
X126702Y317811D01*
X127376Y316803D01*
X128384Y316129D01*
X129573Y315892D01*
X130763Y316129D01*
X131771Y316803D01*
X132444Y317811D01*
X132681Y319000D01*
X132444Y320189D01*
X131771Y321198D01*
X130763Y321871D01*
X129573Y322108D01*
D02*
G37*
G36*
X28500Y290102D02*
X25885Y289758D01*
X23449Y288749D01*
X21356Y287143D01*
X19751Y285051D01*
X18742Y282615D01*
X18398Y280000D01*
X18742Y277385D01*
X19751Y274949D01*
X21356Y272857D01*
X23449Y271251D01*
X25885Y270242D01*
X28500Y269898D01*
X31115Y270242D01*
X33551Y271251D01*
X35643Y272857D01*
X37249Y274949D01*
X38258Y277385D01*
X38602Y280000D01*
X38258Y282615D01*
X37249Y285051D01*
X35643Y287143D01*
X33551Y288749D01*
X31115Y289758D01*
X28500Y290102D01*
D02*
G37*
G36*
X18000Y260108D02*
X16811Y259871D01*
X15803Y259198D01*
X15129Y258189D01*
X14892Y257000D01*
X15129Y255811D01*
X15803Y254802D01*
X16811Y254129D01*
X18000Y253892D01*
X19189Y254129D01*
X20198Y254802D01*
X20871Y255811D01*
X21108Y257000D01*
X20871Y258189D01*
X20198Y259198D01*
X19189Y259871D01*
X18000Y260108D01*
D02*
G37*
G36*
X93750Y315080D02*
X92363Y314804D01*
X91186Y314018D01*
X90400Y312842D01*
X90124Y311454D01*
X90400Y310067D01*
X91186Y308890D01*
X92363Y308104D01*
X93750Y307828D01*
X95138Y308104D01*
X96314Y308890D01*
X97100Y310067D01*
X97376Y311454D01*
X97100Y312842D01*
X96314Y314018D01*
X95138Y314804D01*
X93750Y315080D01*
D02*
G37*
%LPD*%
G36*
X415973Y337646D02*
X414682Y336355D01*
X414317Y335809D01*
X414189Y335165D01*
Y323063D01*
X412919Y322373D01*
X412000Y322556D01*
X410811Y322319D01*
X409803Y321646D01*
X409129Y320638D01*
X408892Y319448D01*
X409129Y318259D01*
X409803Y317251D01*
X410317Y316907D01*
Y257432D01*
X409047Y257307D01*
X408871Y258189D01*
X408198Y259198D01*
X407189Y259871D01*
X406000Y260108D01*
X404811Y259871D01*
X403802Y259198D01*
X403129Y258189D01*
X402953Y257307D01*
X401683Y257432D01*
Y322459D01*
X402197Y322802D01*
X402870Y323810D01*
X403107Y324999D01*
X402870Y326189D01*
X402197Y327197D01*
X401189Y327870D01*
X399999Y328107D01*
X398810Y327870D01*
X397566Y328341D01*
X397443Y328485D01*
X397490Y328815D01*
X401206Y332532D01*
X401810Y332128D01*
X402999Y331892D01*
X404188Y332128D01*
X405197Y332802D01*
X405870Y333810D01*
X406107Y334999D01*
X405870Y336189D01*
X405197Y337197D01*
X404188Y337870D01*
X403458Y338016D01*
X402960Y339233D01*
X402957Y339312D01*
X403690Y340045D01*
X403819Y340237D01*
X404968Y340393D01*
X405288Y340324D01*
X405303Y340303D01*
X406311Y339629D01*
X407500Y339392D01*
X408689Y339629D01*
X409697Y340303D01*
X410371Y341311D01*
X410398Y341445D01*
X411773Y341847D01*
X415973Y337646D01*
D02*
G37*
G36*
X432000Y214362D02*
X431889Y214287D01*
X431215Y213279D01*
X430978Y212090D01*
X431215Y210901D01*
X431889Y209893D01*
X432000Y209818D01*
Y171000D01*
X458906Y144094D01*
X552280D01*
Y126094D01*
X532310Y106124D01*
X532139Y106238D01*
X532128Y106240D01*
X530952Y106682D01*
X530108Y107031D01*
X525611Y108111D01*
X521000Y108474D01*
X516389Y108111D01*
X511892Y107031D01*
X507619Y105261D01*
X503676Y102845D01*
X500159Y99841D01*
X497155Y96324D01*
X494739Y92381D01*
X492969Y88108D01*
X491889Y83611D01*
X491526Y79000D01*
X491889Y74389D01*
X492969Y69892D01*
X493880Y67693D01*
X493858Y67672D01*
X493844Y67666D01*
X493847Y67661D01*
X476186Y50000D01*
X441000D01*
Y72000D01*
X416000Y97000D01*
Y206806D01*
X417061Y207017D01*
X418069Y207691D01*
X418743Y208699D01*
X418980Y209888D01*
X418743Y211078D01*
X418069Y212086D01*
X417555Y212430D01*
Y230000D01*
X432000D01*
Y214362D01*
D02*
G37*
%LPC*%
G36*
X463000Y108108D02*
X461811Y107871D01*
X460802Y107198D01*
X460129Y106189D01*
X459892Y105000D01*
X460129Y103811D01*
X460802Y102802D01*
X461811Y102129D01*
X463000Y101892D01*
X464189Y102129D01*
X465197Y102802D01*
X465871Y103811D01*
X466108Y105000D01*
X465871Y106189D01*
X465197Y107198D01*
X464189Y107871D01*
X463000Y108108D01*
D02*
G37*
%LPD*%
G36*
X315464Y368091D02*
X358807D01*
X359495Y367468D01*
X360767Y366196D01*
X360438Y364926D01*
X359984D01*
Y353424D01*
X358460Y351900D01*
X315226D01*
X314386Y352740D01*
Y367030D01*
X315455Y368100D01*
X315464Y368091D01*
D02*
G37*
G36*
X309924Y114696D02*
Y58558D01*
X302070Y50705D01*
X240730D01*
X239607Y51828D01*
X239983Y52391D01*
X240450Y54738D01*
X239983Y57085D01*
X238653Y59075D01*
X236663Y60405D01*
X234316Y60872D01*
X231969Y60405D01*
X229979Y59075D01*
X228649Y57085D01*
X228182Y54738D01*
X228649Y52391D01*
X229433Y51218D01*
X228446Y50409D01*
X218313Y60542D01*
X218434Y61148D01*
X218197Y62337D01*
X217523Y63345D01*
X217326Y63478D01*
Y65005D01*
X217645Y65218D01*
X237120Y84693D01*
X238302Y84079D01*
X238701Y82071D01*
X239992Y80138D01*
X241925Y78847D01*
X244204Y78394D01*
X246484Y78847D01*
X246681Y78979D01*
X246878Y78847D01*
X249157Y78394D01*
X251437Y78847D01*
X253369Y80138D01*
X254660Y82071D01*
X255114Y84350D01*
X254660Y86629D01*
X253369Y88562D01*
X252869Y88896D01*
Y131634D01*
X252504Y133467D01*
X251465Y135021D01*
X237702Y148785D01*
X236148Y149823D01*
X234314Y150188D01*
X222710D01*
Y150710D01*
X221440D01*
Y152317D01*
X244303D01*
X286810Y109810D01*
X287356Y109445D01*
X288000Y109317D01*
X293459D01*
X293803Y108802D01*
X294811Y108129D01*
X296000Y107892D01*
X297189Y108129D01*
X298197Y108802D01*
X298871Y109811D01*
X299108Y111000D01*
X298871Y112189D01*
X298197Y113197D01*
X297189Y113871D01*
X296000Y114108D01*
X294811Y113871D01*
X293803Y113197D01*
X293459Y112683D01*
X288697D01*
X246190Y155190D01*
X245644Y155555D01*
X245000Y155683D01*
X221440D01*
Y156730D01*
X215400D01*
X209360D01*
Y154560D01*
X209360D01*
Y153440D01*
X209360D01*
Y150710D01*
X208090D01*
Y137290D01*
Y125290D01*
Y113290D01*
X209360D01*
Y111683D01*
X208747D01*
X208102Y111555D01*
X207556Y111190D01*
X202463Y106097D01*
X201085Y106515D01*
X200829Y107803D01*
X200697Y108000D01*
X200829Y108197D01*
X201283Y110477D01*
X200908Y112360D01*
X202332Y113312D01*
X203623Y115244D01*
X204076Y117523D01*
X203623Y119803D01*
X203491Y120000D01*
X203623Y120197D01*
X204076Y122477D01*
X203623Y124756D01*
X203438Y125033D01*
X203856Y125312D01*
X205147Y127244D01*
X205600Y129523D01*
X205147Y131803D01*
X205015Y132000D01*
X205147Y132197D01*
X205600Y134476D01*
X205147Y136756D01*
X203856Y138688D01*
X203438Y138967D01*
X203623Y139244D01*
X204076Y141524D01*
X203623Y143803D01*
X203491Y144000D01*
X203623Y144197D01*
X204076Y146476D01*
X203623Y148756D01*
X203281Y149267D01*
X203348Y149312D01*
X204639Y151244D01*
X205093Y153524D01*
X204639Y155803D01*
X204507Y156000D01*
X204639Y156197D01*
X205093Y158476D01*
X204639Y160756D01*
X203348Y162688D01*
X203120Y162841D01*
X203062Y163103D01*
X203854Y164316D01*
X206541D01*
X207185Y164445D01*
X207731Y164809D01*
X209614Y166692D01*
X210884Y166166D01*
Y164084D01*
X210884D01*
Y163916D01*
X210884D01*
Y161440D01*
X209360D01*
Y159270D01*
X215400D01*
X221440D01*
Y159698D01*
X222710Y160059D01*
X222847Y159854D01*
X223855Y159181D01*
X225044Y158944D01*
X226233Y159181D01*
X227241Y159854D01*
X227915Y160863D01*
X228152Y162052D01*
X227954Y163047D01*
X228227Y163656D01*
X228724Y164317D01*
X243011D01*
X285721Y121607D01*
X285600Y121000D01*
X285837Y119811D01*
X286511Y118803D01*
X287519Y118129D01*
X288708Y117892D01*
X289897Y118129D01*
X290905Y118803D01*
X291579Y119811D01*
X291816Y121000D01*
X291579Y122189D01*
X290905Y123197D01*
X289897Y123871D01*
X288708Y124108D01*
X288102Y123987D01*
X244898Y167190D01*
X244352Y167555D01*
X243708Y167683D01*
X221020D01*
X219916Y168084D01*
Y171916D01*
X219916Y171916D01*
Y172084D01*
X219916D01*
X219916Y173186D01*
Y175916D01*
X219916D01*
Y176084D01*
X219916D01*
Y179916D01*
X221020Y180317D01*
X244303D01*
X309924Y114696D01*
D02*
G37*
G36*
X134317Y133950D02*
Y132971D01*
X134445Y132327D01*
X134810Y131781D01*
X156317Y110274D01*
Y100003D01*
X155047Y99333D01*
X153668Y100254D01*
X151389Y100707D01*
X150956Y100621D01*
X150720Y100668D01*
X141204Y110185D01*
X141243Y110503D01*
X141704Y111481D01*
X142544Y111648D01*
X143552Y112322D01*
X144226Y113330D01*
X144463Y114519D01*
X144226Y115708D01*
X143552Y116717D01*
X142544Y117390D01*
X141355Y117627D01*
X140166Y117390D01*
X139157Y116717D01*
X138484Y115708D01*
X138317Y114868D01*
X137338Y114407D01*
X137021Y114368D01*
X136913Y114476D01*
X135358Y115515D01*
X133525Y115879D01*
X131266D01*
Y125016D01*
X129183D01*
Y127734D01*
X132766D01*
Y133375D01*
X134036Y134111D01*
X134317Y133950D01*
D02*
G37*
D18*
X89500Y338000D02*
Y350875D01*
X95655Y357030D01*
X103475Y364850D01*
Y373975D01*
X105000Y375500D01*
X135000Y380500D02*
Y390433D01*
X134458Y390975D02*
X135000Y390433D01*
X134458Y390975D02*
Y391387D01*
X79699Y370199D02*
X85000Y375500D01*
X109000Y185000D02*
X119000Y175000D01*
X109000Y185000D02*
X109000D01*
X119000Y167000D02*
Y175000D01*
Y167000D02*
X120000Y166000D01*
X98000Y160000D02*
Y163512D01*
X101488Y167000D01*
X110244D02*
X119000D01*
X101488D02*
X110244D01*
D19*
X186333Y371217D02*
D03*
X230533D02*
D03*
D20*
X135000Y380500D02*
D03*
Y364500D02*
D03*
D21*
X357715Y40700D02*
D03*
X367715D02*
D03*
X362715D02*
D03*
X377715D02*
D03*
X387715D02*
D03*
X382715D02*
D03*
X397715D02*
D03*
X402715D02*
D03*
X407715D02*
D03*
X422715D02*
D03*
X432715D02*
D03*
X427715D02*
D03*
X442715D02*
D03*
X447715D02*
D03*
X352715D02*
D03*
X372715D02*
D03*
X392715D02*
D03*
X412715D02*
D03*
X417715D02*
D03*
X437715D02*
D03*
X442500Y358910D02*
D03*
X432500D02*
D03*
X437500D02*
D03*
X422500D02*
D03*
X412500D02*
D03*
X417500D02*
D03*
X402500D02*
D03*
X397500D02*
D03*
X392500D02*
D03*
X377500D02*
D03*
X367500D02*
D03*
X372500D02*
D03*
X357500D02*
D03*
X352500D02*
D03*
X447500D02*
D03*
X427500D02*
D03*
X407500D02*
D03*
X387500D02*
D03*
X382500D02*
D03*
X362500D02*
D03*
D22*
X470285Y13700D02*
D03*
X329715D02*
D03*
X329930Y385910D02*
D03*
X470500D02*
D03*
D23*
X586500Y114500D02*
D03*
Y285074D02*
D03*
D24*
X559500Y262500D02*
D03*
Y242500D02*
D03*
Y222500D02*
D03*
Y202500D02*
D03*
Y197500D02*
D03*
Y177500D02*
D03*
Y157500D02*
D03*
Y137500D02*
D03*
Y252500D02*
D03*
Y257500D02*
D03*
Y247500D02*
D03*
Y232500D02*
D03*
Y237500D02*
D03*
Y227500D02*
D03*
Y212500D02*
D03*
Y217500D02*
D03*
Y207500D02*
D03*
Y192500D02*
D03*
Y187500D02*
D03*
Y182500D02*
D03*
Y167500D02*
D03*
Y172500D02*
D03*
Y162500D02*
D03*
Y147500D02*
D03*
Y152500D02*
D03*
Y142500D02*
D03*
D25*
X119000Y97000D02*
D03*
X129000D02*
D03*
X98000Y160000D02*
D03*
X88000D02*
D03*
X119000Y132000D02*
D03*
X129000D02*
D03*
X119000Y167000D02*
D03*
X129000D02*
D03*
D26*
X94000Y100100D02*
D03*
X99000Y87900D02*
D03*
X89000D02*
D03*
X94000Y148100D02*
D03*
X99000Y135900D02*
D03*
X89000D02*
D03*
X94000Y73100D02*
D03*
X99000Y60900D02*
D03*
X89000D02*
D03*
D27*
X59500Y97500D02*
D03*
Y102500D02*
D03*
X72500Y150000D02*
D03*
Y145000D02*
D03*
Y140000D02*
D03*
Y135000D02*
D03*
Y130000D02*
D03*
Y125000D02*
D03*
Y115000D02*
D03*
Y110000D02*
D03*
Y105000D02*
D03*
Y100000D02*
D03*
Y95000D02*
D03*
Y90000D02*
D03*
X59500Y107500D02*
D03*
Y112500D02*
D03*
Y117500D02*
D03*
Y122500D02*
D03*
Y127500D02*
D03*
Y132500D02*
D03*
Y137500D02*
D03*
Y142500D02*
D03*
D28*
Y89000D02*
D03*
Y151000D02*
D03*
D29*
X184600Y102000D02*
D03*
Y106000D02*
D03*
Y110000D02*
D03*
Y114000D02*
D03*
Y118000D02*
D03*
Y122000D02*
D03*
Y126000D02*
D03*
Y130000D02*
D03*
Y134000D02*
D03*
Y138000D02*
D03*
Y142000D02*
D03*
Y146000D02*
D03*
Y150000D02*
D03*
Y154000D02*
D03*
Y158000D02*
D03*
Y162000D02*
D03*
Y166000D02*
D03*
Y170000D02*
D03*
Y174000D02*
D03*
Y178000D02*
D03*
Y182000D02*
D03*
Y186000D02*
D03*
Y190000D02*
D03*
Y194000D02*
D03*
Y198000D02*
D03*
Y202000D02*
D03*
Y206000D02*
D03*
Y210000D02*
D03*
Y214000D02*
D03*
Y218000D02*
D03*
Y222000D02*
D03*
Y226000D02*
D03*
Y230000D02*
D03*
Y234000D02*
D03*
Y238000D02*
D03*
Y242000D02*
D03*
Y246000D02*
D03*
Y250000D02*
D03*
Y254000D02*
D03*
Y258000D02*
D03*
Y262000D02*
D03*
Y266000D02*
D03*
Y270000D02*
D03*
Y274000D02*
D03*
Y278000D02*
D03*
Y282000D02*
D03*
Y286000D02*
D03*
Y290000D02*
D03*
Y294000D02*
D03*
Y298000D02*
D03*
X215400Y102000D02*
D03*
Y106000D02*
D03*
Y110000D02*
D03*
Y114000D02*
D03*
Y118000D02*
D03*
Y122000D02*
D03*
Y126000D02*
D03*
Y130000D02*
D03*
Y134000D02*
D03*
Y138000D02*
D03*
Y142000D02*
D03*
Y146000D02*
D03*
Y150000D02*
D03*
Y154000D02*
D03*
Y158000D02*
D03*
Y162000D02*
D03*
Y166000D02*
D03*
Y170000D02*
D03*
Y174000D02*
D03*
Y178000D02*
D03*
Y182000D02*
D03*
Y186000D02*
D03*
Y190000D02*
D03*
Y194000D02*
D03*
Y198000D02*
D03*
Y202000D02*
D03*
Y206000D02*
D03*
Y210000D02*
D03*
Y214000D02*
D03*
Y218000D02*
D03*
Y222000D02*
D03*
Y226000D02*
D03*
Y230000D02*
D03*
Y234000D02*
D03*
Y238000D02*
D03*
Y242000D02*
D03*
Y246000D02*
D03*
Y250000D02*
D03*
Y254000D02*
D03*
Y258000D02*
D03*
Y262000D02*
D03*
Y266000D02*
D03*
Y270000D02*
D03*
Y274000D02*
D03*
Y278000D02*
D03*
Y282000D02*
D03*
Y286000D02*
D03*
Y290000D02*
D03*
Y294000D02*
D03*
Y298000D02*
D03*
D30*
X126250Y85000D02*
D03*
X113750D02*
D03*
X126250Y120000D02*
D03*
X113750D02*
D03*
X126250Y155000D02*
D03*
X113750D02*
D03*
D31*
X73000Y30000D02*
D03*
X127000D02*
D03*
D58*
X362406Y109093D02*
X364184Y110871D01*
X362406Y109093D02*
X360628Y107315D01*
X362406Y105537D01*
X364184Y103759D02*
X362406Y105537D01*
X343327Y188115D02*
X343334Y188108D01*
X326170Y212104D02*
X324918Y209939D01*
Y207437D01*
X326170Y205272D01*
X326512Y212447D02*
X326510Y212444D01*
X326512Y212447D02*
X327174Y214902D01*
X325376Y216700D01*
X322920Y216039D01*
X322918Y216036D02*
X322920Y216039D01*
X310117Y216886D02*
X308866Y214722D01*
X308864Y212222D01*
X310114Y210057D01*
X312279Y208807D01*
X314779Y208809D01*
X316942Y210061D01*
X317789Y224557D02*
X317787Y224555D01*
X317789Y224557D02*
X318537Y226349D01*
X317801Y228145D01*
X317801D02*
X317793Y228153D01*
X317785Y228161D01*
Y228161D02*
X315989Y228897D01*
X314197Y228150D01*
X314194Y228147D02*
X314197Y228150D01*
X305336Y226106D02*
X307500Y224859D01*
X309999Y224862D01*
X312161Y226113D01*
X305329Y226113D02*
X305336Y226106D01*
X305325Y226117D02*
X305329Y226113D01*
X344951Y189724D02*
X344944Y189731D01*
X327789Y206886D02*
X327786Y206888D01*
X327786Y210488D02*
X327039Y208688D01*
X327786Y206888D01*
X327786Y210488D02*
X327789Y210490D01*
X328129Y210830D02*
X329381Y212994D01*
X329382Y215494D01*
X328133Y217659D01*
X325967Y218908D01*
X323468Y218907D01*
X321304Y217655D01*
X315329Y211680D02*
X315326Y211677D01*
X311734Y215269D02*
X311072Y212814D01*
X312870Y211016D01*
X315326Y211677D01*
X311734Y215269D02*
X311737Y215272D01*
X319406Y222941D02*
X320611Y224944D01*
X320734Y227280D01*
X319744Y229398D01*
X319413Y229766D02*
X319409Y229770D01*
X319406Y229774D01*
X319038Y230105D02*
X316919Y231094D01*
X314584Y230972D01*
X312581Y229766D01*
X310547Y227733D02*
X310544Y227730D01*
X306945Y227730D02*
X308745Y226982D01*
X310544Y227730D01*
X306945Y227730D02*
X306942Y227733D01*
X356924Y207826D02*
X356926Y207824D01*
X356924Y207826D02*
X355123Y208578D01*
X353320Y207830D01*
X353317Y207828D02*
X353320Y207830D01*
X346076Y214236D02*
X344824Y212072D01*
X344822Y209572D01*
X346072Y207407D01*
X348237Y206157D01*
X350737Y206159D01*
X352900Y207411D01*
X353747Y221908D02*
X353745Y221905D01*
X353747Y221908D02*
X354495Y223699D01*
X353759Y225495D01*
X353759D02*
X353751Y225503D01*
X353743Y225511D01*
Y225511D02*
X351947Y226247D01*
X350155Y225499D01*
X350152Y225497D02*
X350155Y225499D01*
X341294Y223456D02*
X343459Y222209D01*
X345957Y222212D01*
X348119Y223463D01*
X341287Y223463D02*
X341294Y223456D01*
X341283Y223467D02*
X341287Y223463D01*
X341282Y223468D02*
X341283Y223467D01*
X358536Y209447D02*
X358529Y209454D01*
X358161Y209785D02*
X356042Y210775D01*
X353707Y210653D01*
X351704Y209447D01*
X351287Y209030D02*
X351284Y209027D01*
X347692Y212619D02*
X347030Y210164D01*
X348829Y208366D01*
X351284Y209027D01*
X347692Y212619D02*
X347695Y212622D01*
X355364Y220291D02*
X356570Y222294D01*
X356692Y224630D01*
X355702Y226748D01*
X355371Y227116D02*
X355367Y227120D01*
X355364Y227124D01*
X354996Y227454D02*
X352877Y228444D01*
X350542Y228322D01*
X348539Y227116D01*
X346505Y225082D02*
X346502Y225080D01*
X342903Y225080D02*
X344703Y224332D01*
X346502Y225080D01*
X342903Y225080D02*
X342902Y225081D01*
X510032Y194310D02*
X508236Y193566D01*
X507492Y191770D01*
X497840Y191770D02*
X498487Y189357D01*
X500253Y187590D01*
X502666Y186944D01*
X505079Y187590D01*
X506846Y189357D01*
X507492Y191770D01*
X497840Y197548D02*
X496570Y199748D01*
X494030D01*
X492760Y197548D01*
X483108Y188880D02*
X483755Y186467D01*
X485521Y184701D01*
X487934Y184054D01*
X490347Y184701D01*
X492114Y186467D01*
X492760Y188880D01*
X483108Y198261D02*
X481838Y200460D01*
X479298D01*
X478028Y198261D01*
X468376Y188880D02*
X469023Y186467D01*
X470789Y184701D01*
X473202Y184054D01*
X475615Y184701D01*
X477382Y186467D01*
X478028Y188880D01*
X468376Y191770D02*
X467632Y193566D01*
X465836Y194310D01*
X510032Y196596D02*
X507619Y195949D01*
X505853Y194183D01*
X505206Y191770D01*
X500126Y191770D02*
X501396Y189570D01*
X503936D01*
X505206Y191770D01*
X500126Y197548D02*
X499480Y199961D01*
X497713Y201728D01*
X495300Y202374D01*
X492887Y201728D01*
X491121Y199961D01*
X490474Y197548D01*
X485394Y188880D02*
X486664Y186680D01*
X489204D01*
X490474Y188880D01*
X485394Y198261D02*
X484748Y200674D01*
X482981Y202440D01*
X480568Y203087D01*
X478155Y202440D01*
X476389Y200674D01*
X475742Y198261D01*
X470662Y188880D02*
X471932Y186680D01*
X474472D01*
X475742Y188880D01*
X470662Y191770D02*
X470016Y194183D01*
X468249Y195949D01*
X465836Y196596D01*
X109853Y251434D02*
X111060Y250228D01*
X109853Y251323D02*
X108520Y252656D01*
X107377D02*
X106044Y251323D01*
X104710Y247799D02*
X106044Y249132D01*
X102233D02*
X103567Y247799D01*
X102233Y251323D02*
X100900Y252656D01*
X99757D02*
X98424Y251323D01*
X97090Y247799D02*
X98424Y249132D01*
X94614D02*
X95947Y247799D01*
X94614Y251434D02*
X93280Y252768D01*
X92137D02*
X90803Y251434D01*
X89597Y250228D02*
X90803Y251434D01*
X68611Y246059D02*
X70317Y246059D01*
X68611D02*
X66725D01*
X65916Y245250D02*
Y243365D01*
X67623Y239772D02*
Y241658D01*
X64929Y238964D02*
X66814D01*
X63222Y240671D02*
X61336D01*
X60528Y239862D02*
Y237976D01*
X62235Y234384D02*
Y236270D01*
X59540Y233576D02*
X61426D01*
X57834Y235282D02*
X55948D01*
X55140Y234474D02*
Y232588D01*
X56846Y228996D02*
Y230882D01*
X54152Y228188D02*
X56038D01*
X54152Y228188D02*
X52446D01*
X92872Y214993D02*
X91539Y216326D01*
X90396D02*
X89062Y214993D01*
X87729Y211788D02*
X89062Y213122D01*
X85252D02*
X86586Y211788D01*
X85252Y214993D02*
X83919Y216326D01*
X82776D02*
X81442Y214993D01*
X80109Y211788D02*
X81442Y213122D01*
X77632D02*
X78966Y211788D01*
X77632Y214507D02*
X76299Y215840D01*
X75156D02*
X73822Y214507D01*
X72489Y211788D02*
X73822Y213122D01*
X70012D02*
X71346Y211788D01*
X70012Y214993D02*
X68679Y216326D01*
X67536D02*
X66202Y214993D01*
X64869Y211788D02*
X66202Y213122D01*
X62392D02*
X63726Y211788D01*
X62392Y214993D02*
X61059Y216326D01*
X59916D02*
X58582Y214993D01*
X57249Y211517D02*
X58582Y212851D01*
X54772D02*
X56106Y211517D01*
X54772Y212851D02*
X53566Y214057D01*
X119923D02*
X121129Y215264D01*
X122463Y216597D02*
X121129Y215264D01*
X124939D02*
X123606Y216597D01*
X124939Y212851D02*
X126273Y211517D01*
X127416D02*
X128749Y212851D01*
X130083Y216597D02*
X128749Y215264D01*
X132559D02*
X131226Y216597D01*
X132559Y212851D02*
X133893Y211517D01*
X135036D02*
X136369Y212851D01*
X137703Y216597D02*
X136369Y215264D01*
X140179D02*
X138846Y216597D01*
X140179Y215264D02*
X141386Y214057D01*
X165317Y195561D02*
X166000Y196244D01*
Y197000D01*
X165317Y113683D02*
Y195561D01*
X437274Y47061D02*
X438201D01*
X437274Y37726D02*
Y47061D01*
X422500Y49148D02*
X422677Y49325D01*
X422500Y37500D02*
Y49148D01*
X382500Y42500D02*
X384099Y44099D01*
Y48939D01*
X192570Y125904D02*
X193482Y126816D01*
X187096Y125904D02*
X192570D01*
X190132Y114000D02*
X191020Y114888D01*
X184350Y114000D02*
X190132D01*
X188057Y118857D02*
X196088D01*
X188057Y121143D02*
X196172D01*
X189846Y102000D02*
X190681Y101165D01*
X184600Y102000D02*
X189846D01*
X180895Y96105D02*
X198518D01*
X179949Y93819D02*
X199464D01*
X167000Y106767D02*
X179949Y93819D01*
X199464D02*
X202937Y97291D01*
X169286Y107714D02*
X180895Y96105D01*
X198518D02*
X200651Y98238D01*
X169286Y107714D02*
Y112947D01*
X200651Y98238D02*
Y101905D01*
X167000Y106767D02*
Y112000D01*
X202937Y97291D02*
Y100958D01*
X165317Y113683D02*
X167000Y112000D01*
X169000Y113233D02*
X169286Y112947D01*
X169000Y113233D02*
Y192000D01*
X185746Y260604D02*
X197358D01*
X184510Y261840D02*
X185746Y260604D01*
X138576Y95632D02*
X140970Y93239D01*
X136999Y91424D02*
X137000Y91425D01*
X136999Y84001D02*
Y91424D01*
X137524Y95632D02*
X138576D01*
X140970Y90134D02*
Y93239D01*
X142750Y87598D02*
Y88354D01*
X140970Y90134D02*
X142750Y88354D01*
X149098Y102291D02*
X150778Y100611D01*
X149098Y102291D02*
Y102362D01*
X153643Y100611D02*
X154178Y100076D01*
X150778Y100611D02*
X153643D01*
X364184Y110871D02*
Y124460D01*
X362406Y109093D02*
X362406D01*
X362406Y105537D02*
X362406D01*
X364184Y103124D02*
Y103759D01*
Y124460D02*
Y200566D01*
Y95758D02*
Y103124D01*
X343334Y188108D02*
X344588Y186854D01*
X326170Y205272D02*
X343327Y188115D01*
X326170Y212104D02*
X326510Y212444D01*
X316942Y210061D02*
X322918Y216036D01*
X310117Y216886D02*
X317787Y224555D01*
X312161Y226113D02*
X314194Y228147D01*
X304075Y227367D02*
X305325Y226117D01*
X346204Y188470D02*
X346204Y188470D01*
X344951Y189724D02*
X346204Y188470D01*
X327789Y206886D02*
X344944Y189731D01*
X327789Y210490D02*
X328129Y210830D01*
X315329Y211680D02*
X321304Y217655D01*
X311737Y215272D02*
X319406Y222941D01*
X319744Y229398D02*
Y229435D01*
X319413Y229766D02*
X319744Y229435D01*
X319074Y230105D02*
X319406Y229773D01*
X319038Y230105D02*
X319074D01*
X310547Y227733D02*
X312581Y229766D01*
X305691Y228983D02*
X306942Y227733D01*
X305691Y228983D02*
X305691Y228983D01*
X344588Y186854D02*
X347502Y183940D01*
X262363Y269078D02*
X304075Y227367D01*
X346204Y188470D02*
X349788Y184887D01*
X263310Y271364D02*
X305691Y228983D01*
X356926Y207824D02*
X361496Y203254D01*
X352900Y207411D02*
X353317Y207828D01*
X346076Y214236D02*
X353745Y221905D01*
X348119Y223463D02*
X350152Y225497D01*
X340033Y224717D02*
X341282Y223468D01*
X363112Y204870D02*
X363112Y204870D01*
X358536Y209447D02*
X363112Y204870D01*
X358198Y209785D02*
X358529Y209454D01*
X358161Y209785D02*
X358198D01*
X351287Y209030D02*
X351704Y209447D01*
X347695Y212622D02*
X355364Y220291D01*
X355702Y226748D02*
Y226785D01*
X355371Y227116D02*
X355702Y226785D01*
X355033Y227454D02*
X355364Y227123D01*
X354996Y227454D02*
X355033D01*
X346505Y225082D02*
X348539Y227116D01*
X341649Y226333D02*
X342902Y225081D01*
X361496Y203254D02*
X364184Y200566D01*
X285893Y278857D02*
X340033Y224717D01*
X363112Y204870D02*
X366470Y201513D01*
X286840Y281143D02*
X341649Y226333D01*
X236858Y290884D02*
X248885Y278857D01*
X236858Y290884D02*
X236858D01*
X366470Y90014D02*
Y201513D01*
X364184Y90961D02*
Y95758D01*
X510032Y194310D02*
X517144D01*
X507492Y191770D02*
Y191770D01*
X497840Y191770D02*
Y197548D01*
X492760Y188880D02*
Y197548D01*
X483108Y188880D02*
Y198261D01*
X478028Y188880D02*
Y198261D01*
X468376Y188880D02*
Y191770D01*
X456692Y194310D02*
X465836D01*
X510032Y196596D02*
X517144D01*
X505206Y191770D02*
Y191770D01*
X500126Y191770D02*
Y197548D01*
X490474Y188880D02*
Y197548D01*
X485394Y188880D02*
Y198261D01*
X475742Y188880D02*
Y198261D01*
X470662Y188880D02*
Y191770D01*
X456692Y196596D02*
X465836D01*
X450959Y194310D02*
X456692D01*
X450959Y196596D02*
X456692D01*
X517144Y194310D02*
X517906D01*
X517144Y196596D02*
X517906D01*
X501142Y209857D02*
X509433D01*
X510177Y209113D01*
Y208992D02*
Y209113D01*
Y208992D02*
X510317Y208853D01*
X512831D01*
X512971Y208992D01*
Y209113D01*
X513715Y209857D01*
X514350D01*
X484648D02*
X501142D01*
X514350D02*
X519118D01*
X556000Y212500D02*
X559500D01*
X546608Y212477D02*
X547223D01*
X554643Y211143D02*
X556000Y212500D01*
X548302Y211397D02*
X548386D01*
X547223Y212477D02*
X548302Y211397D01*
X552595Y211143D02*
X552595Y211143D01*
X554643D01*
X548386Y211397D02*
X548640Y211143D01*
X552595D01*
X519118Y212143D02*
X520452Y213477D01*
X521208D01*
X485595Y212143D02*
X519118D01*
X485965Y217317D02*
Y217932D01*
X484632Y215984D02*
X485965Y217317D01*
X484632Y213106D02*
Y215984D01*
Y213106D02*
X485595Y212143D01*
X197554Y130857D02*
X198888Y129523D01*
X188057Y130857D02*
X197554D01*
X187200Y130000D02*
X188057Y130857D01*
X198888Y129523D02*
X199644D01*
X184600Y130000D02*
X187200D01*
X548556Y208857D02*
X551648D01*
X551648Y208857D01*
X554643D01*
X547223Y207523D02*
X548556Y208857D01*
X554643Y208857D02*
X556000Y207500D01*
X559500D01*
X546608Y207523D02*
X547223D01*
X482346Y212159D02*
X484648Y209857D01*
X520452Y208524D02*
X521208D01*
X519118Y209857D02*
X520452Y208524D01*
X481012Y217317D02*
Y217932D01*
Y217317D02*
X482346Y215984D01*
Y212159D02*
Y215984D01*
X198888Y134476D02*
X199644D01*
X197554Y133143D02*
X198888Y134476D01*
X187200Y134000D02*
X188057Y133143D01*
X197554D01*
X184600Y134000D02*
X187200D01*
X89000Y135900D02*
Y160000D01*
X548640Y228477D02*
X549396D01*
X550730Y227143D01*
X559143D02*
X559500Y227500D01*
X550730Y227143D02*
X559143D01*
X194711Y110477D02*
X195326D01*
X193378Y109143D02*
X194711Y110477D01*
X187200Y110000D02*
X188057Y109143D01*
X193378D01*
X184600Y110000D02*
X187200D01*
X550730Y224857D02*
X552577D01*
X553085Y224349D01*
X554151D01*
X549396Y223524D02*
X550730Y224857D01*
X554151Y224349D02*
X556000Y222500D01*
X559500D01*
X548640Y223524D02*
X549396D01*
X193294Y106603D02*
X193632D01*
X194711Y105524D02*
X195326D01*
X193632Y106603D02*
X194711Y105524D01*
X188057Y106857D02*
X193040D01*
X193294Y106603D01*
X187200Y106000D02*
X188057Y106857D01*
X184600Y106000D02*
X187200D01*
X438857Y351058D02*
X438857Y351058D01*
Y347022D02*
Y351058D01*
X437500Y355410D02*
X438857Y354053D01*
Y351058D02*
Y354053D01*
X437523Y345688D02*
X438857Y347022D01*
X437500Y355410D02*
Y358910D01*
X437523Y344932D02*
Y345688D01*
X182000Y294000D02*
X184600D01*
X181143Y293143D02*
X182000Y294000D01*
X173545Y294477D02*
X174879Y293143D01*
X172789Y294477D02*
X173545D01*
X174879Y293143D02*
X181143D01*
X442500Y355410D02*
Y358910D01*
X441143Y354053D02*
X442500Y355410D01*
X441143Y347022D02*
X442477Y345688D01*
X441143Y347022D02*
Y352005D01*
X442477Y344932D02*
Y345688D01*
X441143Y352005D02*
Y354053D01*
Y352005D02*
X441143Y352005D01*
X182000Y290000D02*
X184600D01*
X181143Y290857D02*
X182000Y290000D01*
X174879Y290857D02*
X181143D01*
X172789Y289524D02*
X173545D01*
X174879Y290857D01*
X174051Y282702D02*
X177349Y286000D01*
X184350D01*
X168910Y282702D02*
X174051D01*
X174244Y299720D02*
X182630D01*
X184350Y298000D01*
Y246000D02*
X184615Y246265D01*
X189509D01*
X215400Y262000D02*
X215650D01*
X427500Y355410D02*
Y358910D01*
X427174Y348996D02*
X427477D01*
X426143Y354053D02*
X427500Y355410D01*
X426143Y350027D02*
X427174Y348996D01*
X426143Y352005D02*
X426143Y352005D01*
Y350027D02*
Y352005D01*
X426143Y352005D02*
Y354053D01*
X188057Y278857D02*
X203142D01*
X184600Y278000D02*
X187200D01*
X203142Y278857D02*
X204476Y277523D01*
X187200Y278000D02*
X188057Y278857D01*
X204476Y277523D02*
X205232D01*
X423857Y351058D02*
Y354053D01*
Y351058D02*
X423857Y351058D01*
X422500Y355410D02*
X423857Y354053D01*
X423857Y350027D02*
Y351058D01*
X422826Y348996D02*
X423857Y350027D01*
X422523Y348996D02*
X422826D01*
X422500Y355410D02*
Y358910D01*
X204476Y282477D02*
X205232D01*
X203142Y281143D02*
X204476Y282477D01*
X187200Y282000D02*
X188057Y281143D01*
X203142D01*
X184600Y282000D02*
X187200D01*
X417500Y358910D02*
Y362500D01*
X417500Y349827D02*
Y358910D01*
X416385Y348713D02*
X417500Y349827D01*
X416385Y347957D02*
Y348713D01*
X206516Y271031D02*
X209484Y274000D01*
X184573Y274223D02*
X197963D01*
X200944Y271242D02*
X201154D01*
X197963Y274223D02*
X200944Y271242D01*
X208534Y288036D02*
X210570Y286000D01*
X215400D01*
X368857Y351697D02*
Y354053D01*
X367500Y355410D02*
X368857Y354053D01*
X367523Y350364D02*
X368857Y351697D01*
X367523Y349608D02*
Y350364D01*
X367500Y355410D02*
Y358910D01*
X189865Y269143D02*
X191262Y270540D01*
X187200Y270000D02*
X188057Y269143D01*
X189865D01*
X184600Y270000D02*
X187200D01*
X372500Y355410D02*
Y358910D01*
X371143Y351697D02*
X372477Y350364D01*
X371143Y354053D02*
X372500Y355410D01*
X372477Y349608D02*
Y350364D01*
X371143Y351697D02*
Y354053D01*
X188057Y266857D02*
X190518D01*
X187200Y266000D02*
X188057Y266857D01*
X184600Y266000D02*
X187200D01*
X184510Y274160D02*
X184573Y274223D01*
X215400Y298000D02*
X215650D01*
X207264Y296418D02*
X207823D01*
X209405Y298000D01*
X546243Y217500D02*
X559500D01*
X546220Y217523D02*
X546243Y217500D01*
X520673Y197395D02*
X521208Y197929D01*
X518705Y197395D02*
X520673D01*
X449562Y197993D02*
X450959Y196596D01*
X517906D02*
X518705Y197395D01*
X448818Y197993D02*
X449562D01*
X198380Y158476D02*
X199136D01*
X187200Y158000D02*
X188057Y157143D01*
X197046D02*
X198380Y158476D01*
X188057Y157143D02*
X197046D01*
X184600Y158000D02*
X187200D01*
X517906Y194310D02*
X518705Y193511D01*
X449562Y192913D02*
X450959Y194310D01*
X518705Y193511D02*
X520673D01*
X521208Y192976D01*
X448818Y192913D02*
X449562D01*
X198380Y153524D02*
X199136D01*
X188057Y154857D02*
X197046D01*
X198380Y153524D01*
X187200Y154000D02*
X188057Y154857D01*
X184600Y154000D02*
X187200D01*
X556000Y192500D02*
X559500D01*
X549257Y196237D02*
X552501D01*
X551554Y193951D02*
X551648Y193857D01*
X554643D02*
X556000Y192500D01*
X554643Y196143D02*
X556000Y197500D01*
X547860Y197634D02*
X549257Y196237D01*
X547116Y197634D02*
X547860D01*
X551648Y193857D02*
X554643D01*
X547860Y192554D02*
X549257Y193951D01*
X547116Y192554D02*
X547860D01*
X556000Y197500D02*
X559500D01*
X552595Y196143D02*
X554643D01*
X552501Y196237D02*
X552595Y196143D01*
X549257Y193951D02*
X551554D01*
X205775Y169317D02*
X210245Y173787D01*
X200250Y166000D02*
X206541D01*
X215400Y178000D02*
X215650D01*
X197724Y170683D02*
X198028Y170379D01*
X201661D02*
X202724Y169317D01*
X215400Y170000D02*
X215650D01*
X206541Y166000D02*
X210541Y170000D01*
X215436Y173787D02*
X215650Y174000D01*
X204250Y173000D02*
X209250Y178000D01*
X198028Y170379D02*
X201661D01*
X202724Y169317D02*
X205775D01*
X198120Y142794D02*
X198120Y142794D01*
X197505Y141524D02*
X198120D01*
Y142794D01*
X196426Y142603D02*
X197505Y141524D01*
X188057Y142857D02*
X196088D01*
X196342Y142603D01*
X187200Y142000D02*
X188057Y142857D01*
X196342Y142603D02*
X196426D01*
X184600Y142000D02*
X187200D01*
X548444Y254857D02*
X550648D01*
X551648Y253857D01*
X554643D01*
X547110Y253524D02*
X548444Y254857D01*
X554643Y253857D02*
X556000Y252500D01*
X559500D01*
X546354Y253524D02*
X547110D01*
X197505Y146476D02*
X198093D01*
X198120D01*
X196723Y145107D02*
X198093Y146476D01*
X187200Y146000D02*
X188057Y145143D01*
X196172D02*
X197505Y146476D01*
X188057Y145143D02*
X196172D01*
X196495Y145107D02*
X196723D01*
X184600Y146000D02*
X187200D01*
X546354Y258477D02*
X547110D01*
X556000Y257500D02*
X559500D01*
X548444Y257143D02*
X551595D01*
X547110Y258477D02*
X548444Y257143D01*
X552595Y256143D02*
X554643D01*
X556000Y257500D01*
X551595Y257143D02*
X552595Y256143D01*
X215320Y150080D02*
X215400Y150000D01*
X215320Y137920D02*
X215400Y138000D01*
X209262Y150080D02*
X215320D01*
X209182Y150160D02*
X209262Y150080D01*
X209120Y137840D02*
X209200Y137920D01*
X215320D01*
X215702Y162052D02*
X225044D01*
X215400Y186000D02*
X215650D01*
X209622D02*
X215400D01*
X546354Y243477D02*
X547110D01*
X548444Y242143D01*
X559143D02*
X559500Y242500D01*
X548444Y242143D02*
X559143D01*
X197505Y122477D02*
X198120D01*
X196172Y121143D02*
X197505Y122477D01*
X187200Y122000D02*
X188057Y121143D01*
X184600Y122000D02*
X187200D01*
X196426Y118603D02*
X197505Y117523D01*
X198120D01*
X196088Y118857D02*
X196342Y118603D01*
X187200Y118000D02*
X188057Y118857D01*
X196342Y118603D02*
X196426D01*
X184600Y118000D02*
X187200D01*
X548444Y239857D02*
X552196D01*
X547110Y238524D02*
X548444Y239857D01*
X546354Y238524D02*
X547110D01*
X552196Y239857D02*
X553688Y238365D01*
X558635D02*
X559500Y237500D01*
X553688Y238365D02*
X558635D01*
X544252Y234039D02*
X545018D01*
X546463Y232594D01*
X563280D01*
X209504Y114000D02*
X215400D01*
X209224Y114280D02*
X209224D01*
X209312Y126000D02*
X215400D01*
X209224Y114280D02*
X209504Y114000D01*
X215400Y126000D02*
X215650D01*
X194418Y149777D02*
X194532Y149891D01*
X184599Y138250D02*
X194396D01*
X194776Y137869D01*
X189475Y149777D02*
X194418D01*
X184600Y126000D02*
X187000D01*
X187096Y125904D01*
X209188Y102000D02*
X215400D01*
X215650D01*
X358857Y85634D02*
X364184Y90961D01*
X362477Y80750D02*
Y81506D01*
X362715Y40700D02*
Y44200D01*
X362157Y54965D02*
X362691Y55500D01*
X362157Y52263D02*
Y54965D01*
X361143Y82840D02*
X362477Y81506D01*
X361143Y82840D02*
Y84687D01*
X361358Y51464D02*
X362157Y52263D01*
X361358Y45557D02*
X362715Y44200D01*
X361358Y45557D02*
Y51464D01*
X358857Y82840D02*
Y85634D01*
X358273Y52263D02*
X359072Y51464D01*
Y45557D02*
Y51464D01*
X358273Y52263D02*
Y54965D01*
X357738Y55500D02*
X358273Y54965D01*
X357523Y81506D02*
X358857Y82840D01*
X357523Y80750D02*
Y81506D01*
X357715Y44200D02*
X359072Y45557D01*
X357715Y40700D02*
Y44200D01*
X225473Y293169D02*
X237805D01*
X215400Y294000D02*
X218000D01*
X218857Y290857D02*
X226393D01*
X237805Y293169D02*
X249832Y281143D01*
X218000Y294000D02*
X218857Y293143D01*
X226393Y290857D02*
X226420Y290884D01*
X215400Y290000D02*
X218000D01*
X218857Y293143D02*
X225446D01*
X226420Y290884D02*
X236858D01*
X218000Y290000D02*
X218857Y290857D01*
X225446Y293143D02*
X225473Y293169D01*
X249832Y281143D02*
X286840D01*
X248885Y278857D02*
X285893D01*
X239198Y269078D02*
X262363D01*
X240145Y271364D02*
X263310D01*
X349788Y99381D02*
Y184887D01*
X347502Y99381D02*
Y183940D01*
X361143Y84687D02*
X366470Y90014D01*
X351122Y97291D02*
Y98048D01*
X349788Y99381D02*
X351122Y98048D01*
X215400Y282000D02*
X218000D01*
X218857Y281143D01*
X230366D02*
X240145Y271364D01*
X218857Y281143D02*
X230366D01*
X346169Y98048D02*
X347502Y99381D01*
X346169Y97291D02*
Y98048D01*
X218857Y278857D02*
X229419D01*
X239198Y269078D01*
X218000Y278000D02*
X218857Y278857D01*
X215400Y278000D02*
X218000D01*
X376358Y45557D02*
X377715Y44200D01*
X376143Y50026D02*
X377477Y51360D01*
X373857Y47232D02*
Y50026D01*
X372715Y40700D02*
Y44200D01*
X377715Y40700D02*
Y44200D01*
X376143Y48179D02*
Y50026D01*
X373857Y47232D02*
X374072Y47017D01*
X372523Y51360D02*
Y52116D01*
X376143Y48179D02*
X376358Y47964D01*
X374072Y45557D02*
Y47017D01*
X372523Y51360D02*
X373857Y50026D01*
X376358Y45557D02*
Y47964D01*
X377477Y51360D02*
Y52116D01*
X372715Y44200D02*
X374072Y45557D01*
X432715Y40700D02*
Y44200D01*
X432102Y51203D02*
X432755D01*
X431358Y45557D02*
X432715Y44200D01*
X431358Y50458D02*
X432102Y51203D01*
X431358Y45557D02*
Y50458D01*
X428328Y51203D02*
X429072Y50458D01*
X427715Y44200D02*
X429072Y45557D01*
X427675Y51203D02*
X428328D01*
X429072Y45557D02*
Y50458D01*
X427715Y40700D02*
Y44200D01*
X218857Y269143D02*
X227731D01*
X236588Y260286D01*
X218857Y266857D02*
X226784D01*
X218000Y266000D02*
X218857Y266857D01*
X218000Y270000D02*
X218857Y269143D01*
X226784Y266857D02*
X228410Y265231D01*
X215400Y266000D02*
X218000D01*
X215400Y270000D02*
X218000D01*
X228410Y265231D02*
X235641Y258000D01*
X236588Y260286D02*
X243657D01*
X235641Y258000D02*
X242711D01*
X308004Y192707D02*
X330034Y170677D01*
X243657Y260286D02*
X308078Y195865D01*
X308078D01*
X332320Y171624D01*
X242711Y258000D02*
X308004Y192707D01*
X332320Y113891D02*
Y171624D01*
X330034Y113891D02*
Y170677D01*
X332320Y113891D02*
X333717Y112494D01*
Y111750D02*
Y112494D01*
X328637Y112494D02*
X330034Y113891D01*
X328637Y111750D02*
Y112494D01*
X208747Y110000D02*
X215400D01*
X200651Y101905D02*
X208747Y110000D01*
X415000Y341000D02*
X418354Y337646D01*
X415872Y209888D02*
Y335165D01*
X418354Y337646D01*
X412000Y206756D02*
Y319448D01*
X169462Y371217D02*
X186333D01*
X168020Y369775D02*
X169462Y371217D01*
X154131Y316514D02*
X155157Y315488D01*
X148650Y316514D02*
X154131D01*
X233969Y237528D02*
Y245497D01*
X233535Y237093D02*
X233969Y237528D01*
X233535Y234535D02*
Y237093D01*
X233000Y234000D02*
X233535Y234535D01*
X215650Y258000D02*
X221466D01*
X233969Y245497D01*
X231683Y238475D02*
Y244550D01*
X235317Y230317D02*
X240000Y235000D01*
X231474Y230317D02*
X235317D01*
X229317Y236108D02*
X231683Y238475D01*
X222233Y254000D02*
X231683Y244550D01*
X229317Y232474D02*
X231474Y230317D01*
X229317Y232474D02*
Y236108D01*
X215650Y254000D02*
X222233D01*
X127000Y30000D02*
X127135D01*
X134000Y23135D01*
Y16000D02*
Y23135D01*
X69777Y343775D02*
X83170D01*
X61292Y335289D02*
X69777Y343775D01*
X56000D02*
X56137D01*
X69363Y357000D01*
X69500D01*
X39811Y336270D02*
X40791Y335289D01*
X61292D01*
X26550Y199600D02*
X29833Y196317D01*
X26550Y199600D02*
Y229550D01*
X35000Y238000D01*
X215400Y246000D02*
X215650D01*
X205000Y240000D02*
X211000Y246000D01*
X215400D01*
X200000Y240000D02*
X205000D01*
X548227Y165227D02*
X550594Y167594D01*
X548227Y165227D02*
X550000Y167000D01*
X541844Y158844D02*
X548227Y165227D01*
X455549D02*
X461932Y158844D01*
X541844D01*
X556738Y162052D02*
X557280Y162594D01*
X563280D01*
X550448Y162500D02*
X559500D01*
X543849Y155901D02*
X550448Y162500D01*
X461099Y155901D02*
X543849D01*
X352526Y42526D02*
Y49974D01*
X352500Y42500D02*
X352526Y42526D01*
X352500Y37500D02*
Y42500D01*
X352526Y49974D02*
X352552Y50000D01*
X557280Y177594D02*
X563280D01*
X384432Y252568D02*
X385000D01*
X417500Y37500D02*
Y55448D01*
X407500Y37500D02*
Y48500D01*
X184600Y230000D02*
X191000D01*
X184350D02*
X184600D01*
X392500Y357500D02*
Y362500D01*
Y340798D02*
Y357500D01*
X184600Y234000D02*
X192705D01*
X184350D02*
X184600D01*
X407500Y357500D02*
Y362500D01*
Y342500D02*
Y357500D01*
X557280Y262594D02*
X563280D01*
X557280Y247594D02*
X563280D01*
X545642D02*
X557280D01*
X447500Y357500D02*
Y362500D01*
X432500Y357500D02*
Y362500D01*
X447500Y346504D02*
Y357500D01*
X432500Y346518D02*
Y357500D01*
X377500D02*
Y362500D01*
Y346004D02*
Y357500D01*
X362500D02*
Y362500D01*
Y345736D02*
Y357500D01*
X557280Y202594D02*
X563280D01*
X582000Y114564D02*
X586278Y110286D01*
X546920Y186399D02*
X562085D01*
X382500Y37500D02*
Y42500D01*
X367500Y37500D02*
Y50000D01*
X184490Y149860D02*
X189391D01*
X99135Y135170D02*
X99865Y135900D01*
X557280Y167594D02*
X563280D01*
X397500Y357500D02*
Y362500D01*
X402500Y37500D02*
Y42500D01*
X402500Y357500D02*
Y362500D01*
X397500Y37500D02*
Y42500D01*
X412500Y343500D02*
X415000Y341000D01*
X412500Y357500D02*
Y362500D01*
X112500Y120000D02*
Y139500D01*
X127500Y120000D02*
Y130500D01*
Y85000D02*
Y95500D01*
X210245Y173787D02*
X215436D01*
X541274Y249415D02*
X543821D01*
X544824Y248412D01*
X381450Y255550D02*
Y314716D01*
X400000Y247000D02*
Y324999D01*
X399999Y324999D02*
X399999Y324999D01*
X399999Y324999D02*
X400000Y324999D01*
X395000Y226244D02*
Y239000D01*
X402500Y48500D02*
Y57267D01*
X395000Y239000D02*
Y328706D01*
X381450Y255550D02*
X384432Y252568D01*
X382500Y357500D02*
Y358910D01*
Y345929D02*
Y351500D01*
Y358910D02*
X382500Y358910D01*
X413750Y342250D02*
X415000Y341000D01*
X292301Y183542D02*
X316665Y159177D01*
X292301Y183542D02*
Y194900D01*
X286589Y182768D02*
X313893Y155464D01*
X286589Y182768D02*
Y195800D01*
X316665Y54997D02*
Y159177D01*
X299251Y37583D02*
X316665Y54997D01*
X279071Y37583D02*
X299251D01*
X252730Y37846D02*
X259076Y31500D01*
X345500D02*
X350000Y27000D01*
X259076Y31500D02*
X345500D01*
X183861Y59742D02*
X216103Y27500D01*
X344500D02*
X350000Y22000D01*
X216103Y27500D02*
X344500D01*
X562085Y186399D02*
X563280Y187594D01*
X550983Y175567D02*
X552917Y177500D01*
X545098Y175567D02*
X550983D01*
X551627Y182500D02*
X559500D01*
X549500Y180373D02*
X551627Y182500D01*
X552917Y177500D02*
X559500D01*
X551141Y202524D02*
X557211D01*
X557280Y202594D01*
X544824Y248412D02*
X545642Y247594D01*
X550000Y262594D02*
X557280D01*
X550000Y262594D02*
X550000Y262594D01*
X403682Y81319D02*
Y209682D01*
X407500Y48500D02*
Y55500D01*
X388035Y52116D02*
X392715Y47436D01*
Y40700D02*
Y47436D01*
X378000Y71000D02*
Y93000D01*
X367500Y60500D02*
X378000Y71000D01*
X367500Y50000D02*
Y60500D01*
X339742Y112746D02*
X339799Y112804D01*
X382500Y351500D02*
Y357500D01*
X447500Y351500D02*
Y357500D01*
X377500Y351500D02*
Y357500D01*
X417500Y351500D02*
Y357500D01*
X362500Y351500D02*
Y357500D01*
X407500Y351500D02*
Y357500D01*
X392500Y351500D02*
Y357500D01*
X402500Y351500D02*
Y357500D01*
X412500Y351500D02*
Y357500D01*
X432500Y351500D02*
Y357500D01*
X586278Y98202D02*
Y110286D01*
X115515Y190969D02*
X128235Y178249D01*
X91969Y190969D02*
X115515D01*
X85000Y184000D02*
X91969Y190969D01*
X137000Y174000D02*
X139000D01*
X132751Y178249D02*
X137000Y174000D01*
X128235Y178249D02*
X132751D01*
X83000Y169000D02*
X96745D01*
X103652Y175907D01*
X107474Y188683D02*
X114568D01*
X103652Y184861D02*
X107474Y188683D01*
X103652Y175907D02*
Y184861D01*
X141404Y171196D02*
X145542D01*
X140526Y170317D02*
X141404Y171196D01*
X135475Y170317D02*
X140526D01*
X131605Y174187D02*
X135475Y170317D01*
X129064Y174187D02*
X131605D01*
X114568Y188683D02*
X129064Y174187D01*
X35000Y225000D02*
X49258D01*
X55579Y208504D02*
X150227D01*
X29833Y196317D02*
X43392D01*
X55579Y208504D01*
X35000Y200000D02*
X49057Y214057D01*
X150227Y208504D02*
X159723Y218000D01*
X184600D01*
X65916Y243365D02*
Y243365D01*
Y243365D02*
X66769Y242512D01*
X64075Y239817D02*
X64928Y238964D01*
X64929D01*
X60528Y237976D02*
Y237976D01*
Y237976D02*
X61381Y237123D01*
X55140Y232588D02*
X55140Y232588D01*
X55993Y231735D01*
X302767Y49021D02*
X311607Y57861D01*
X240033Y49021D02*
X302767D01*
X234316Y54738D02*
X240033Y49021D01*
X303714Y46735D02*
X313893Y56914D01*
X229739Y46735D02*
X303714D01*
X215326Y61148D02*
X229739Y46735D01*
X313893Y56914D02*
Y155464D01*
X245000Y182000D02*
X311607Y115393D01*
Y57861D02*
Y115393D01*
X154072Y226000D02*
X184600D01*
X129845Y250228D02*
X154072Y226000D01*
X113502Y250228D02*
X129845D01*
X74486D02*
X88898D01*
X111060D02*
X113502D01*
X109853Y251346D02*
Y251412D01*
X107377Y252656D02*
X108520D01*
X106044Y250228D02*
Y251323D01*
Y249132D02*
Y250228D01*
X103567Y247799D02*
X104710D01*
X102233Y249132D02*
Y250228D01*
Y251323D01*
X99757Y252656D02*
X100900D01*
X98424Y250228D02*
Y251323D01*
Y249132D02*
Y250228D01*
X95947Y247799D02*
X97090D01*
X94614Y249132D02*
Y250228D01*
Y251434D01*
X92137Y252768D02*
X93280D01*
X88898Y250228D02*
X89597D01*
X72000Y247742D02*
X74486Y250228D01*
X70317Y246059D02*
X72000Y247742D01*
X65916Y245250D02*
X66725Y246059D01*
X66769Y242512D02*
X67623Y241658D01*
X66814Y238964D02*
X67623Y239772D01*
X63222Y240671D02*
X64075Y239817D01*
X60528Y239862D02*
X61336Y240671D01*
X61381Y237123D02*
X62235Y236270D01*
X61426Y233576D02*
X62235Y234384D01*
X58687Y234429D02*
X59540Y233576D01*
X57834Y235282D02*
X58687Y234429D01*
X55140Y234474D02*
X55948Y235282D01*
X55993Y231735D02*
X56846Y230882D01*
X56038Y228188D02*
X56846Y228996D01*
X50605Y226347D02*
X52446Y228188D01*
X49258Y225000D02*
X50605Y226347D01*
X92969Y214057D02*
X117470D01*
X92872D02*
X92969D01*
X92872D02*
Y214993D01*
X90396Y216326D02*
X91539D01*
X89062Y214057D02*
Y214993D01*
Y213122D02*
Y214057D01*
X86586Y211788D02*
X87729D01*
X85252Y213122D02*
Y214057D01*
Y214993D01*
X82776Y216326D02*
X83919D01*
X81442Y214057D02*
Y214993D01*
Y213122D02*
Y214057D01*
X78966Y211788D02*
X80109D01*
X77632Y213122D02*
Y214057D01*
Y214507D01*
X75156Y215840D02*
X76299D01*
X73822Y214057D02*
Y214507D01*
Y213122D02*
Y214057D01*
X71346Y211788D02*
X72489D01*
X70012Y213122D02*
Y214057D01*
Y214993D01*
X67536Y216326D02*
X68679D01*
X66202Y214057D02*
Y214993D01*
Y213122D02*
Y214057D01*
X63726Y211788D02*
X64869D01*
X62392Y213122D02*
Y214057D01*
Y214993D01*
X59916Y216326D02*
X61059D01*
X58582Y214057D02*
Y214993D01*
Y212851D02*
Y214057D01*
X56106Y211517D02*
X57249D01*
X50962Y214057D02*
X53566D01*
X49057D02*
X50962D01*
X153837Y222000D02*
X184600Y222000D01*
X145894Y214057D02*
X153837Y222000D01*
X117470Y214057D02*
X119923D01*
X122463Y216597D02*
X123606D01*
X124939Y214057D02*
Y215264D01*
Y212851D02*
Y214057D01*
X126273Y211517D02*
X127416D01*
X128749Y212851D02*
Y214057D01*
Y215264D01*
X130083Y216597D02*
X131226D01*
X132559Y214057D02*
Y215264D01*
Y212851D02*
Y214057D01*
X133893Y211517D02*
X135036D01*
X136369Y212851D02*
Y214057D01*
Y215264D01*
X137703Y216597D02*
X138846D01*
X141386Y214057D02*
X143989D01*
X145894D01*
X184600Y222000D02*
X185000D01*
X198000Y216000D02*
X208000Y226000D01*
X184600Y214000D02*
X190378D01*
X193000Y219000D02*
X193683Y219683D01*
X199616Y174366D02*
X203250Y178000D01*
X226999Y206000D02*
X226999Y206000D01*
X215400Y206000D02*
X226999D01*
X126612Y189609D02*
X132885Y183336D01*
X133501D01*
X158000Y93000D02*
Y110971D01*
X136000Y132971D02*
X158000Y110971D01*
X173000Y187000D02*
X173534Y186465D01*
X178000Y188559D02*
X179441Y190000D01*
X178000Y186200D02*
Y188559D01*
X196758Y178158D02*
X197408D01*
X196199Y174366D02*
X199616D01*
X189282Y167449D02*
X196199Y174366D01*
X192749Y162000D02*
X195020D01*
X179441Y190000D02*
X184350D01*
X176991Y182000D02*
X184350D01*
X173534Y185457D02*
X176991Y182000D01*
X174000Y133000D02*
X177475Y136475D01*
X180416Y176551D02*
X180551D01*
X173000Y169135D02*
X180416Y176551D01*
X174534Y210465D02*
X174999Y210000D01*
X174534Y210465D02*
Y212465D01*
X174000Y213000D02*
X174534Y212465D01*
X173534Y185457D02*
Y186465D01*
X207980Y106000D02*
X215400D01*
X202937Y100958D02*
X207980Y106000D01*
X173000Y145000D02*
Y169135D01*
X182000Y178000D02*
X184600D01*
X177475Y136475D02*
Y169610D01*
X174999Y210000D02*
X184350D01*
X180416Y172551D02*
X180551D01*
X209405Y298000D02*
X215400D01*
X209484Y274000D02*
X215400D01*
Y214000D02*
X215650D01*
X209622D02*
X215400D01*
X207898Y262000D02*
X215400D01*
X184350Y214000D02*
X184600D01*
Y162000D02*
X189251D01*
X184350D02*
X184600D01*
Y186000D02*
X190378D01*
X184350D02*
X184600D01*
X552000Y114233D02*
X572000Y134233D01*
X552000Y78000D02*
Y114233D01*
Y78000D02*
X560000Y70000D01*
X575000Y132000D02*
Y148000D01*
X560000Y117000D02*
X575000Y132000D01*
X560000Y90000D02*
Y117000D01*
X570406Y147594D02*
X572000Y146000D01*
X563280Y147594D02*
X570406D01*
X572000Y134233D02*
Y146000D01*
X570406Y152594D02*
X575000Y148000D01*
X563280Y152594D02*
X570406D01*
X557264Y182610D02*
X557280Y182594D01*
X563577Y172297D02*
X572703D01*
X563280Y172594D02*
X563577Y172297D01*
X563280Y157594D02*
X563686Y158000D01*
X438000Y182776D02*
Y218798D01*
X563686Y158000D02*
X573000D01*
X557280Y202594D02*
X557280Y202594D01*
X434086Y182914D02*
Y212090D01*
Y182914D02*
X461099Y155901D01*
X550594Y167594D02*
X557280D01*
X572703Y172297D02*
X573000Y172000D01*
X438000Y182776D02*
X455549Y165227D01*
X576280Y296718D02*
X576415Y296583D01*
Y291209D02*
Y296583D01*
X582000Y114564D02*
X582280Y114844D01*
X576415Y291209D02*
X582280Y285344D01*
X438000Y218798D02*
X440436Y221234D01*
X130249Y148249D02*
X145000D01*
X119000Y137000D02*
X130249Y148249D01*
X119000Y132000D02*
Y137000D01*
X136000Y132971D02*
Y141000D01*
X147000Y82000D02*
X158000Y93000D01*
X139000Y82000D02*
X147000D01*
X136999Y84001D02*
X139000Y82000D01*
X220000Y309000D02*
X227000Y316000D01*
X241000D01*
X125019Y30000D02*
X127000D01*
X184600Y194000D02*
X190378D01*
X184350D02*
X184600D01*
X209250Y178000D02*
X215400D01*
X163000Y309000D02*
X220000D01*
X154000Y300000D02*
X163000Y309000D01*
X154000Y247000D02*
Y300000D01*
Y247000D02*
X163000Y238000D01*
X184600D01*
X182000Y174000D02*
X184600D01*
X180551Y172551D02*
X182000Y174000D01*
X177475Y169610D02*
X180416Y172551D01*
X210541Y170000D02*
X215400D01*
X180551Y176551D02*
X182000Y178000D01*
X184850Y170000D02*
X187450D01*
X188899Y167449D02*
X189282D01*
X187450Y166000D02*
X188899Y167449D01*
X187450Y170000D02*
X188899Y171449D01*
X190049D01*
X196758Y178158D01*
X215400Y238000D02*
X215650D01*
X209544D02*
X215400D01*
X195398Y223606D02*
X196000Y223005D01*
X194642Y223606D02*
X195398D01*
X204121Y217121D02*
X209000Y222000D01*
X204121Y214121D02*
Y217121D01*
X196683Y219683D02*
X207000Y230000D01*
X193683Y219683D02*
X196683D01*
X204000Y214000D02*
X204121Y214121D01*
X194249Y235544D02*
X195005D01*
X192705Y234000D02*
X194249Y235544D01*
X172000Y252999D02*
X172756D01*
X222244Y219000D02*
X223000D01*
X221244Y218000D02*
X222244Y219000D01*
X215400Y218000D02*
X221244D01*
X215400Y234000D02*
X215650D01*
X204000D02*
X215400D01*
Y226000D02*
X215650D01*
X208000D02*
X215400D01*
Y230000D02*
X215650D01*
X207000D02*
X215400D01*
Y222000D02*
X215650D01*
X209000D02*
X215400D01*
X412750Y27250D02*
X413000Y27000D01*
X412750Y27250D02*
Y37250D01*
X412500Y37500D02*
X412750Y37250D01*
X215400Y202000D02*
X215650D01*
X209622D02*
X215400D01*
X184600D02*
X190378D01*
X184350D02*
X184600D01*
Y198000D02*
X194128D01*
X184350D02*
X184600D01*
X215400Y194000D02*
X215650D01*
X209622D02*
X215400D01*
Y198000D02*
X215650D01*
X205872D02*
X215400D01*
X316000Y21000D02*
X327250D01*
X471750Y17000D02*
X483000D01*
X387500Y30500D02*
Y37500D01*
X384000Y27000D02*
X387500Y30500D01*
X350000Y27000D02*
X384000D01*
X350000Y22000D02*
X385238D01*
X437274Y37726D02*
X437500Y37500D01*
X183861Y59742D02*
Y60617D01*
X183326Y61152D02*
X183861Y60617D01*
X390000Y59500D02*
Y231000D01*
Y59500D02*
X397500Y52000D01*
Y42500D02*
Y52000D01*
X401000Y221000D02*
Y234000D01*
X398000Y218000D02*
X401000Y221000D01*
X398000Y65000D02*
Y218000D01*
Y65000D02*
X407500Y55500D01*
X327250Y21000D02*
X329750Y18500D01*
X406000Y212000D02*
Y257000D01*
X403682Y209682D02*
X406000Y212000D01*
X367500Y50000D02*
X367500Y50000D01*
X394316Y225560D02*
X395000Y226244D01*
X394316Y65451D02*
Y225560D01*
Y65451D02*
X402500Y57267D01*
Y42500D02*
Y48500D01*
X470250Y18500D02*
X471750Y17000D01*
X382500Y42500D02*
X382500Y42500D01*
X475250Y376500D02*
X481004D01*
X470250Y381500D02*
X475250Y376500D01*
X316556D02*
X324750D01*
X329750Y381500D01*
X402500Y341235D02*
Y351500D01*
X390000Y328735D02*
X402500Y341235D01*
X390000Y231000D02*
Y328735D01*
X412500Y343500D02*
Y351500D01*
X397500Y347228D02*
Y357500D01*
Y347228D02*
X397510Y347218D01*
X228000Y240000D02*
Y245000D01*
X95000Y132000D02*
X95756D01*
X96741Y132985D01*
X99135Y133298D02*
Y135170D01*
X98822Y132985D02*
X99135Y133298D01*
X100000Y60900D02*
X103700D01*
X89000Y59850D02*
Y60900D01*
X94000Y83350D02*
X94550D01*
X91500D02*
X94000D01*
X89000Y85850D02*
X91500Y83350D01*
X96784Y89216D02*
X98135D01*
X99000Y88351D01*
Y87900D02*
Y88351D01*
X94000Y92000D02*
X96784Y89216D01*
X89000Y85850D02*
Y87900D01*
X96741Y132985D02*
X98822D01*
X215650Y182000D02*
X245000D01*
X191000Y230000D02*
X193630Y227370D01*
Y224618D02*
Y227370D01*
Y224618D02*
X194642Y223606D01*
X109000Y143000D02*
X112500Y139500D01*
X288000Y111000D02*
X296000D01*
X245000Y154000D02*
X288000Y111000D01*
X215650Y154000D02*
X245000D01*
X243708Y166000D02*
X288708Y121000D01*
X223000Y250000D02*
X228000Y245000D01*
X215650Y250000D02*
X223000D01*
X215650Y210000D02*
X221678D01*
X100675Y100100D02*
X105275Y95500D01*
X94250Y100100D02*
X100675D01*
X103700Y60900D02*
Y65400D01*
X178000Y249000D02*
X183349D01*
X184350Y250000D01*
X172756Y252999D02*
X173756Y254000D01*
X184350D01*
X189391Y149860D02*
X189475Y149777D01*
X192526Y162223D02*
X192749Y162000D01*
X189475Y162223D02*
X192526D01*
X189251Y162000D02*
X189475Y162223D01*
X395000Y328706D02*
X400759Y334465D01*
X402465D02*
X402999Y334999D01*
X400759Y334465D02*
X402465D01*
X168656Y259080D02*
X168773Y258963D01*
X99252Y49598D02*
X107402D01*
X118154Y36865D02*
Y38846D01*
X89000Y59850D02*
X99252Y49598D01*
X118154Y36865D02*
X125019Y30000D01*
X107402Y49598D02*
X118154Y38846D01*
X127500Y95500D02*
X129000Y97000D01*
X100600Y73100D02*
X112500Y85000D01*
X95000Y73100D02*
X100600D01*
X127500Y130500D02*
X129000Y132000D01*
X127500Y155000D02*
X129000Y156500D01*
Y167000D01*
X105600Y148100D02*
X112500Y155000D01*
X95000Y148100D02*
X105600D01*
X171567Y258963D02*
X172530Y258000D01*
X168773Y258963D02*
X171567D01*
X172530Y258000D02*
X184350D01*
X215650Y166000D02*
X243708D01*
X215650Y162000D02*
X215702Y162052D01*
X215650Y158000D02*
X221730D01*
X215650Y242000D02*
X221756D01*
X178244D02*
X184350D01*
X215650Y190000D02*
X221678D01*
X73000Y30000D02*
Y42774D01*
D59*
X39811Y336270D02*
D03*
X155157Y315488D02*
D03*
X56000Y343775D02*
D03*
X103652Y175907D02*
D03*
X85000Y184000D02*
D03*
X126612Y189609D02*
D03*
X136000Y141000D02*
D03*
X63901Y191901D02*
D03*
X144000Y67000D02*
D03*
X118000Y55000D02*
D03*
X560000Y70000D02*
D03*
Y90000D02*
D03*
X234316Y54738D02*
D03*
X580000Y80000D02*
D03*
X16464Y333461D02*
D03*
X160000Y20000D02*
D03*
D60*
X145000Y158000D02*
X156000Y169000D01*
Y192000D01*
X161556Y67719D02*
Y112444D01*
X148837Y55000D02*
X161556Y67719D01*
X118000Y55000D02*
X148837D01*
X78358Y191901D02*
X83919Y197462D01*
X63901Y191901D02*
X78358D01*
X101308Y200000D02*
X139998D01*
X98770Y197462D02*
X101308Y200000D01*
X83919Y197462D02*
X98770D01*
X139998Y200000D02*
X143499Y203501D01*
X51562Y179562D02*
X63901Y191901D01*
X51562Y163322D02*
Y179562D01*
X145000Y129000D02*
X161556Y112444D01*
X145000Y148249D02*
Y158000D01*
Y129000D02*
Y148249D01*
X34798Y163322D02*
X51562D01*
X51562Y163322D01*
D61*
X72500Y115000D02*
X74444Y116944D01*
X72847Y118541D02*
X74444Y116944D01*
X74633Y115611D02*
Y117561D01*
X72500Y115000D02*
X74022D01*
X75675Y118603D02*
X86218D01*
X74022Y115000D02*
X74633Y115611D01*
Y117561D02*
X75675Y118603D01*
X86218D02*
X96527Y108294D01*
X245220Y85981D02*
X245284Y86044D01*
X245220Y85366D02*
Y85981D01*
X244204Y84350D02*
X245220Y85366D01*
X248997Y84692D02*
Y86203D01*
X201662Y72480D02*
X203354D01*
X143882Y96780D02*
X146493Y94169D01*
X133525Y111088D02*
X148469Y96145D01*
X87375Y121397D02*
X97684Y111088D01*
X75675Y121397D02*
X87375D01*
X97684Y111088D02*
X133525D01*
X213100Y71400D02*
X234834Y93135D01*
Y124462D01*
X228693Y130603D02*
X234834Y124462D01*
X220175Y130603D02*
X228693D01*
X219583Y130011D02*
X220175Y130603D01*
X215411Y130011D02*
X219583D01*
X215400Y130000D02*
X215411Y130011D01*
X203354Y72480D02*
X204433Y71400D01*
X213100D01*
X74022Y125000D02*
X74633Y124389D01*
Y122438D02*
Y124389D01*
Y122438D02*
X75675Y121397D01*
X72500Y125000D02*
X74022D01*
X71109D02*
X72500D01*
X70498Y121875D02*
Y124389D01*
X71109Y125000D01*
X66123Y117500D02*
X70498Y121875D01*
X59500Y117500D02*
X66123D01*
X132367Y108294D02*
X139662Y101000D01*
X96527Y108294D02*
X132367D01*
X237628Y91977D02*
Y125619D01*
X214257Y68606D02*
X237628Y91977D01*
X229850Y133397D02*
X237628Y125619D01*
X219583Y133989D02*
X220175Y133397D01*
X229850D01*
X215400Y134000D02*
X215411Y133989D01*
X219583D01*
X204433Y68606D02*
X214257D01*
X203501Y67674D02*
X204433Y68606D01*
X139662Y101000D02*
X139662D01*
X143882Y96780D01*
X148469Y96145D02*
X149377D01*
X150770Y94751D01*
X151389D01*
X146493Y93261D02*
Y94169D01*
Y93261D02*
X147886Y91867D01*
Y91249D02*
Y91867D01*
X226221Y98270D02*
X229142Y101191D01*
X224246Y100246D02*
X226348Y102348D01*
X224657Y121397D02*
X229142Y116912D01*
X220175Y121397D02*
X224657D01*
X229142Y101191D02*
Y116912D01*
X215411Y121989D02*
X219583D01*
X215400Y122000D02*
X215411Y121989D01*
X219583D02*
X220175Y121397D01*
X226221Y96654D02*
Y98270D01*
X225784Y96216D02*
X226221Y96654D01*
X223500Y118603D02*
X226348Y115755D01*
X220175Y118603D02*
X223500D01*
X226348Y102348D02*
Y115755D01*
X219583Y118011D02*
X220175Y118603D01*
X215411Y118011D02*
X219583D01*
X215400Y118000D02*
X215411Y118011D01*
X222192Y99808D02*
X222629Y100246D01*
X224246D01*
X243202Y132559D02*
X245284Y130477D01*
X243202Y132559D02*
X243202D01*
X245284Y86044D02*
Y130477D01*
X233157Y142603D02*
X243202Y132559D01*
X220175Y142603D02*
X233157D01*
X219583Y142011D02*
X220175Y142603D01*
X215411Y142011D02*
X219583D01*
X215400Y142000D02*
X215411Y142011D01*
X248078Y87122D02*
Y131634D01*
X234314Y145397D02*
X248078Y131634D01*
Y87122D02*
X248997Y86203D01*
X215411Y145989D02*
X219583D01*
X215400Y146000D02*
X215411Y145989D01*
X220175Y145397D02*
X234314D01*
X219583Y145989D02*
X220175Y145397D01*
D62*
X85001Y101308D02*
X86715Y103022D01*
X85001Y101308D02*
X86101Y100209D01*
X83547Y97654D02*
X86101Y100209D01*
X82447Y98754D02*
X83547Y97654D01*
X79893Y96200D02*
X82447Y98754D01*
X79893Y96200D02*
X79893Y96200D01*
X79887Y96194D02*
X79893Y96200D01*
X78781Y96194D02*
X79887D01*
X86715Y103022D02*
X86985Y103292D01*
X75694Y96194D02*
X78781D01*
X59500Y122500D02*
X59617Y122383D01*
X65180Y122415D02*
Y122458D01*
X65148Y122383D02*
X65180Y122415D01*
X59617Y122383D02*
X65148D01*
X86985Y103292D02*
Y112268D01*
X74500Y95000D02*
X75694Y96194D01*
X72500Y95000D02*
X74500D01*
X82507Y111793D02*
X83210Y111090D01*
Y103189D02*
Y111090D01*
X79327Y99306D02*
X83210Y103189D01*
X73194Y99306D02*
X79327D01*
X72500Y100000D02*
X73194Y99306D01*
X66028Y102488D02*
X66040Y102477D01*
X66028Y97512D02*
X66040Y97523D01*
X59512Y97512D02*
X66028D01*
X59500Y97500D02*
X59512Y97512D01*
X59512Y102488D02*
X66028D01*
X59500Y102500D02*
X59512Y102488D01*
X80264Y146281D02*
Y146939D01*
X78289Y144306D02*
X80264Y146281D01*
X73194Y144306D02*
X78289D01*
X72500Y145000D02*
X73194Y144306D01*
X80450Y141710D02*
X80777Y141383D01*
X78289Y141710D02*
X80450D01*
X73210Y140710D02*
X77289D01*
X78289Y141710D01*
X72500Y140000D02*
X73210Y140710D01*
X59500Y137500D02*
X65342D01*
X59500Y142500D02*
X65342D01*
X59500Y132500D02*
X65342D01*
X72524Y130024D02*
X78462D01*
X72500Y130000D02*
X72524Y130024D01*
X78462D02*
X78486Y130048D01*
X71790Y134290D02*
X72500Y135000D01*
X69236Y134290D02*
X71790D01*
X67921Y132975D02*
X69236Y134290D01*
X65817Y132975D02*
X67921D01*
X65342Y132500D02*
X65817Y132975D01*
D63*
X442773Y37773D02*
Y52773D01*
X442500Y37500D02*
X442773Y37773D01*
Y52773D02*
X447500Y57500D01*
X557280Y142594D02*
X563280D01*
X557280Y137594D02*
X563280D01*
X447500Y37500D02*
Y57500D01*
X546281Y137594D02*
X557280D01*
X547281Y142594D02*
X557280D01*
X546281Y137594D02*
Y141594D01*
X547281Y142594D01*
X447500Y57500D02*
X448906Y58906D01*
X447500Y58500D02*
X448406Y59406D01*
X447500Y57500D02*
Y58500D01*
D64*
X424000Y206000D02*
Y222000D01*
Y162000D02*
Y206000D01*
X448406Y137594D02*
X546281D01*
X448406Y59406D02*
Y137594D01*
X424000Y162000D02*
X448406Y137594D01*
D65*
X177800Y206000D02*
X182116D01*
X175301Y203501D02*
X177800Y206000D01*
X143499Y203501D02*
X175301D01*
D66*
X59500Y89000D02*
X62702Y92202D01*
X59500Y89000D02*
X61750Y86750D01*
X59500Y151000D02*
X61750Y153250D01*
Y147828D02*
X65278D01*
X59500Y150078D02*
X61750Y147828D01*
X59500Y150078D02*
Y151000D01*
X66700Y163200D02*
X68400D01*
X61750Y158250D02*
X66700Y163200D01*
X61750Y156215D02*
Y158250D01*
X61750Y156214D02*
X61750Y156215D01*
X61750Y153250D02*
Y156214D01*
X66700Y76800D02*
X68400D01*
X61750Y81750D02*
X66700Y76800D01*
X61750Y81750D02*
Y86750D01*
X72250Y149750D02*
X72500Y150000D01*
X67524Y149750D02*
X72250D01*
X65603Y147828D02*
X67524Y149750D01*
X65278Y147828D02*
X65603D01*
X62702Y92202D02*
X65278D01*
X69296Y90000D02*
X72500D01*
X67094Y92202D02*
X69296Y90000D01*
X65278Y92202D02*
X67094D01*
D67*
X59500Y107500D02*
X65342D01*
X59511Y112511D02*
X65267D01*
X59500Y112500D02*
X59511Y112511D01*
X71762Y105738D02*
X72500Y105000D01*
X70500Y105000D02*
X72500D01*
X69762Y105738D02*
X70500Y105000D01*
X69762Y105738D02*
Y105787D01*
X68869Y106680D02*
X69762Y105787D01*
X66849Y106680D02*
X68869D01*
X66029Y107500D02*
X66849Y106680D01*
X65342Y107500D02*
X66029D01*
X65267Y112511D02*
X65278Y112522D01*
X59484Y107516D02*
X59500Y107500D01*
X112000Y93000D02*
X114857Y95857D01*
X117857D01*
X119000Y97000D01*
D68*
X68400Y67800D02*
Y76800D01*
X14800Y67800D02*
Y76800D01*
Y163200D02*
Y172200D01*
D69*
X105000Y375500D02*
D03*
D70*
X85000D02*
D03*
D71*
X521000Y79000D02*
D03*
X279000D02*
D03*
X521000Y321000D02*
D03*
X279000D02*
D03*
D72*
X570000Y370000D02*
D03*
Y30000D02*
D03*
X30000Y370000D02*
D03*
Y30000D02*
D03*
D73*
X68400Y163200D02*
D03*
Y76800D02*
D03*
D74*
X14800Y163200D02*
D03*
Y76800D02*
D03*
D75*
X28500Y280000D02*
D03*
D76*
X70250Y280000D02*
D03*
D77*
X130250Y280000D02*
D03*
D78*
X100500Y231750D02*
D03*
D79*
X166000Y197000D02*
D03*
X156000Y192000D02*
D03*
X438201Y47061D02*
D03*
X422677Y49325D02*
D03*
X384099Y48939D02*
D03*
X193482Y126816D02*
D03*
X191020Y114888D02*
D03*
X190681Y101165D02*
D03*
X197358Y260604D02*
D03*
X137000Y91425D02*
D03*
X201662Y72480D02*
D03*
Y67526D02*
D03*
X65180Y122458D02*
D03*
X72847Y118541D02*
D03*
X151389Y94751D02*
D03*
X147886Y91249D02*
D03*
X448882Y160655D02*
D03*
X546608Y212477D02*
D03*
X521208Y213477D02*
D03*
X485965Y217932D02*
D03*
X199644Y129523D02*
D03*
X546608Y207523D02*
D03*
X521208Y208524D02*
D03*
X481012Y217932D02*
D03*
X199644Y134476D02*
D03*
X86985Y112268D02*
D03*
X81026Y111506D02*
D03*
X79248Y105156D02*
D03*
X66040Y102477D02*
D03*
Y97523D02*
D03*
X80264Y146939D02*
D03*
X80777Y141383D02*
D03*
X518414Y232918D02*
D03*
X548640Y228477D02*
D03*
X195326Y110477D02*
D03*
X548640Y223524D02*
D03*
X195326Y105524D02*
D03*
X437523Y344932D02*
D03*
X172789Y294477D02*
D03*
X442477Y344932D02*
D03*
X172789Y289524D02*
D03*
X174244Y299720D02*
D03*
X206000Y247000D02*
D03*
X191000Y246999D02*
D03*
X207898Y262000D02*
D03*
X205232Y277523D02*
D03*
Y282477D02*
D03*
X427477Y348996D02*
D03*
X422523D02*
D03*
X416385Y347957D02*
D03*
X206516Y271031D02*
D03*
X201154Y271242D02*
D03*
X208534Y288036D02*
D03*
X367523Y349608D02*
D03*
X191262Y270540D02*
D03*
X372477Y349608D02*
D03*
X191262Y265460D02*
D03*
X207264Y296418D02*
D03*
X546220Y217523D02*
D03*
X521208Y197929D02*
D03*
X448818Y197993D02*
D03*
X199136Y158476D02*
D03*
X521208Y192976D02*
D03*
X448818Y192913D02*
D03*
X199136Y153524D02*
D03*
X547116Y197634D02*
D03*
Y192554D02*
D03*
X306000Y137000D02*
D03*
X339000D02*
D03*
X377000D02*
D03*
X204250Y173000D02*
D03*
X205692Y162130D02*
D03*
X546354Y253524D02*
D03*
Y258477D02*
D03*
X209120Y137840D02*
D03*
X209182Y150160D02*
D03*
X198120Y141524D02*
D03*
Y146476D02*
D03*
X225044Y162052D02*
D03*
X209622Y186000D02*
D03*
X546354Y243477D02*
D03*
X198120Y122477D02*
D03*
Y117523D02*
D03*
X546354Y238524D02*
D03*
X544252Y234039D02*
D03*
X209224Y114280D02*
D03*
X209312Y126000D02*
D03*
X524597Y218798D02*
D03*
X194532Y149891D02*
D03*
X194776Y137869D02*
D03*
X209188Y102000D02*
D03*
X362477Y80750D02*
D03*
X362691Y55500D02*
D03*
X357523Y80750D02*
D03*
X357738Y55500D02*
D03*
X359308Y97168D02*
D03*
X351122Y97291D02*
D03*
X346169D02*
D03*
X372523Y52116D02*
D03*
X377477D02*
D03*
X334000Y217000D02*
D03*
X432755Y51203D02*
D03*
X427675D02*
D03*
X333717Y111750D02*
D03*
X328637D02*
D03*
X320439Y112746D02*
D03*
X225784Y96216D02*
D03*
X222192Y99808D02*
D03*
X244204Y84350D02*
D03*
X249157D02*
D03*
X415872Y209888D02*
D03*
X412000Y206756D02*
D03*
Y319448D02*
D03*
X218000Y354499D02*
D03*
X223500Y391499D02*
D03*
X259655Y355017D02*
D03*
X376158Y238051D02*
D03*
X233000Y234000D02*
D03*
X213000Y357000D02*
D03*
X240000Y235000D02*
D03*
X373000Y234000D02*
D03*
X216316Y343267D02*
D03*
X220162Y336660D02*
D03*
X211694Y339144D02*
D03*
X134000Y16000D02*
D03*
X83170Y343775D02*
D03*
X63000Y357689D02*
D03*
X81630Y348870D02*
D03*
X69500Y357000D02*
D03*
X134458Y391387D02*
D03*
X129573Y319000D02*
D03*
X482015Y166000D02*
D03*
X483292Y230317D02*
D03*
X473074Y220915D02*
D03*
X492548Y220886D02*
D03*
X522831Y185921D02*
D03*
X352552Y50000D02*
D03*
X337373Y96216D02*
D03*
X550990Y247147D02*
D03*
X541274Y249415D02*
D03*
X518730Y203104D02*
D03*
X381450Y314716D02*
D03*
X376000Y321000D02*
D03*
X432500D02*
D03*
X441613Y280705D02*
D03*
X399999Y324999D02*
D03*
X407500Y342500D02*
D03*
X382500Y345929D02*
D03*
X292301Y194900D02*
D03*
X286589Y195800D02*
D03*
X279071Y37583D02*
D03*
X546920Y186399D02*
D03*
X545098Y175567D02*
D03*
X549500Y180373D02*
D03*
X551141Y202524D02*
D03*
X517831Y248408D02*
D03*
X550000Y262594D02*
D03*
X368296Y78542D02*
D03*
X420500Y79000D02*
D03*
X403682Y81319D02*
D03*
X417500Y55448D02*
D03*
X385238Y22000D02*
D03*
X387500Y53712D02*
D03*
X378000Y93000D02*
D03*
X339742Y112746D02*
D03*
X350873Y80400D02*
D03*
X376688Y345800D02*
D03*
X586278Y98202D02*
D03*
X85000Y184000D02*
D03*
X83000Y169000D02*
D03*
X71995Y231501D02*
D03*
X73890Y219631D02*
D03*
X18000Y257000D02*
D03*
X34000Y212000D02*
D03*
X146827Y377359D02*
D03*
X144000Y67000D02*
D03*
X74739Y198628D02*
D03*
X96718Y202415D02*
D03*
X35000Y200000D02*
D03*
X198000Y216000D02*
D03*
X190378Y214000D02*
D03*
X193000Y219000D02*
D03*
X203250Y178000D02*
D03*
X226999Y206000D02*
D03*
X160000Y157000D02*
D03*
X139000Y174000D02*
D03*
X133501Y183336D02*
D03*
X143499Y203501D02*
D03*
X169000Y192000D02*
D03*
X173000Y187000D02*
D03*
X178000Y186200D02*
D03*
X197408Y178158D02*
D03*
X197724Y170683D02*
D03*
X200250Y166000D02*
D03*
X195020Y162000D02*
D03*
X174000Y213000D02*
D03*
X157988Y137414D02*
D03*
X145542Y171196D02*
D03*
X173000Y145000D02*
D03*
X174000Y133000D02*
D03*
X573000Y172000D02*
D03*
X576280Y296718D02*
D03*
X434086Y212090D02*
D03*
X573000Y158000D02*
D03*
X440436Y221234D02*
D03*
X241000Y316000D02*
D03*
X190378Y194000D02*
D03*
Y186000D02*
D03*
X146000Y372406D02*
D03*
X41000Y213000D02*
D03*
X195398Y223606D02*
D03*
X204000Y214000D02*
D03*
X209622Y214000D02*
D03*
X195005Y235544D02*
D03*
X144700Y365700D02*
D03*
X223000Y219000D02*
D03*
X149000Y330000D02*
D03*
X35000Y238000D02*
D03*
Y225000D02*
D03*
X57000Y258000D02*
D03*
X252000Y353000D02*
D03*
X182000Y331999D02*
D03*
X152000Y366000D02*
D03*
X147000Y357000D02*
D03*
X148000Y347500D02*
D03*
X151000Y338999D02*
D03*
X65278Y92202D02*
D03*
Y147828D02*
D03*
Y112522D02*
D03*
X65342Y142500D02*
D03*
Y137500D02*
D03*
X68400Y67800D02*
D03*
X65342Y132500D02*
D03*
Y107500D02*
D03*
X78486Y130048D02*
D03*
X316000Y21000D02*
D03*
X483000Y17000D02*
D03*
X413000Y27000D02*
D03*
X367500Y50000D02*
D03*
X252730Y37846D02*
D03*
X183326Y61152D02*
D03*
X116400Y65210D02*
D03*
X110700Y74900D02*
D03*
X128700D02*
D03*
X316556Y376500D02*
D03*
X481004D02*
D03*
X392500Y340798D02*
D03*
X397510Y347218D02*
D03*
X447500Y346504D02*
D03*
X385000Y252000D02*
D03*
X362500Y345736D02*
D03*
X432500Y346518D02*
D03*
X228000Y240000D02*
D03*
X390000Y231000D02*
D03*
X401000Y234000D02*
D03*
X395000Y239000D02*
D03*
X400000Y247000D02*
D03*
X406000Y257000D02*
D03*
X405000Y265000D02*
D03*
X44000Y65000D02*
D03*
X375000Y217000D02*
D03*
X248000Y191000D02*
D03*
X303000Y217000D02*
D03*
X248000Y216000D02*
D03*
X475000Y332000D02*
D03*
X518000Y279000D02*
D03*
X463000Y105000D02*
D03*
X270000Y114000D02*
D03*
X351000Y286000D02*
D03*
X320000Y332000D02*
D03*
X523000Y377000D02*
D03*
X399000Y383000D02*
D03*
X584000Y206000D02*
D03*
X404000Y16000D02*
D03*
X247000Y17000D02*
D03*
X95000Y132000D02*
D03*
X109000Y143000D02*
D03*
X199000Y78000D02*
D03*
X224000Y89000D02*
D03*
X212000Y78000D02*
D03*
X206000Y63000D02*
D03*
X253510Y92198D02*
D03*
X238062Y83579D02*
D03*
X154178Y100076D02*
D03*
X142750Y87598D02*
D03*
X351215Y58535D02*
D03*
X448631Y203950D02*
D03*
X451283Y186399D02*
D03*
X288708Y121000D02*
D03*
X296000Y111000D02*
D03*
X94000Y92000D02*
D03*
Y83350D02*
D03*
X424125Y214375D02*
D03*
X424000Y222000D02*
D03*
Y206000D02*
D03*
X204000Y234000D02*
D03*
X209544Y238000D02*
D03*
X221678Y210000D02*
D03*
X200000Y240000D02*
D03*
X136000Y141000D02*
D03*
X34798Y163322D02*
D03*
X112000Y93000D02*
D03*
X123445Y147000D02*
D03*
X118000Y55000D02*
D03*
X109000Y185000D02*
D03*
X110244Y167000D02*
D03*
X105275Y95500D02*
D03*
X138834Y120500D02*
D03*
X141355Y114519D02*
D03*
X168910Y282702D02*
D03*
X178000Y249000D02*
D03*
X172000Y252999D02*
D03*
X402999Y334999D02*
D03*
X168656Y259080D02*
D03*
X234316Y54738D02*
D03*
X215326Y61148D02*
D03*
X221730Y158000D02*
D03*
X178244Y242000D02*
D03*
X209622Y202000D02*
D03*
X205872Y198000D02*
D03*
X194128D02*
D03*
X209622Y194000D02*
D03*
X190378Y202000D02*
D03*
X221678Y190000D02*
D03*
X135890Y161798D02*
D03*
X14800Y172200D02*
D03*
Y67800D02*
D03*
X73000Y42774D02*
D03*
X103700Y65400D02*
D03*
X151471Y153249D02*
D03*
X51562Y163322D02*
D03*
X81812Y134644D02*
D03*
D80*
X261031Y375071D02*
D03*
Y367063D02*
D03*
X253833Y370347D02*
D03*
Y378354D02*
D03*
X332011Y361289D02*
D03*
X324004D02*
D03*
X340019D02*
D03*
X93222Y266527D02*
D03*
X66699Y317473D02*
D03*
X93222Y282542D02*
D03*
Y290550D02*
D03*
Y274535D02*
D03*
X80243Y356427D02*
D03*
X96257D02*
D03*
X88250D02*
D03*
X138000Y251783D02*
D03*
X93750Y311454D02*
D03*
X80168Y315650D02*
D03*
X72668D02*
D03*
Y308150D02*
D03*
X80168D02*
D03*
X541750Y79000D02*
D03*
X500250D02*
D03*
X521000Y58250D02*
D03*
Y99750D02*
D03*
X299750Y79000D02*
D03*
X258250D02*
D03*
X279000Y58250D02*
D03*
Y99750D02*
D03*
X541750Y321000D02*
D03*
X500250D02*
D03*
X521000Y300250D02*
D03*
Y341750D02*
D03*
X299750Y321000D02*
D03*
X258250D02*
D03*
X279000Y300250D02*
D03*
Y341750D02*
D03*
M02*
