G04*
G04 #@! TF.GenerationSoftware,Altium Limited,Altium Designer,19.1.7 (138)*
G04*
G04 Layer_Color=2752767*
%FSLAX25Y25*%
%MOIN*%
G70*
G01*
G75*
%ADD53C,0.00200*%
%ADD54C,0.00267*%
D53*
X-42139Y38298D02*
Y39898D01*
X-40539D01*
Y38298D01*
X-42139D01*
X40539D02*
Y39898D01*
X42139D01*
Y38298D01*
X40539D01*
X-42139Y-10914D02*
Y-9314D01*
X-40539D01*
Y-10914D01*
X-42139D01*
X40539D02*
Y-9314D01*
X42139D01*
Y-10914D01*
X40539D01*
D54*
X14686Y-41043D02*
X14133Y-40282D01*
X13239Y-40573D01*
Y-41513D01*
X14133Y-41804D01*
X14686Y-41043D01*
X2505Y-40897D02*
X1952Y-40136D01*
X1058Y-40426D01*
Y-41367D01*
X1952Y-41658D01*
X2505Y-40897D01*
X21765Y-31988D02*
X21212Y-31227D01*
X20317Y-31518D01*
Y-32458D01*
X21212Y-32749D01*
X21765Y-31988D01*
X9461Y-37205D02*
X8909Y-36444D01*
X8014Y-36735D01*
Y-37675D01*
X8909Y-37966D01*
X9461Y-37205D01*
X-3629Y-42913D02*
X-4182Y-42153D01*
X-5076Y-42443D01*
Y-43384D01*
X-4182Y-43674D01*
X-3629Y-42913D01*
X6902Y-39075D02*
X6350Y-38314D01*
X5455Y-38605D01*
Y-39545D01*
X6350Y-39836D01*
X6902Y-39075D01*
X209Y-39272D02*
X-343Y-38511D01*
X-1238Y-38801D01*
Y-39742D01*
X-343Y-40033D01*
X209Y-39272D01*
X-6090Y-39173D02*
X-6643Y-38412D01*
X-7537Y-38703D01*
Y-39643D01*
X-6643Y-39934D01*
X-6090Y-39173D01*
X42387Y-33071D02*
X41834Y-32310D01*
X40939Y-32601D01*
Y-33541D01*
X41834Y-33832D01*
X42387Y-33071D01*
X-36995Y-984D02*
X-37548Y-223D01*
X-38443Y-514D01*
Y-1455D01*
X-37548Y-1745D01*
X-36995Y-984D01*
X-36088Y-19390D02*
X-36641Y-18629D01*
X-37535Y-18920D01*
Y-19860D01*
X-36641Y-20151D01*
X-36088Y-19390D01*
X46272Y18110D02*
X45720Y18871D01*
X44825Y18580D01*
Y17640D01*
X45720Y17349D01*
X46272Y18110D01*
X32690Y-17224D02*
X32137Y-16464D01*
X31242Y-16754D01*
Y-17695D01*
X32137Y-17985D01*
X32690Y-17224D01*
X32493Y-3740D02*
X31940Y-2979D01*
X31046Y-3270D01*
Y-4210D01*
X31940Y-4501D01*
X32493Y-3740D01*
X33576Y30906D02*
X33023Y31666D01*
X32128Y31376D01*
Y30435D01*
X33023Y30145D01*
X33576Y30906D01*
X-14850Y4921D02*
X-15402Y5682D01*
X-16297Y5392D01*
Y4451D01*
X-15402Y4160D01*
X-14850Y4921D01*
X-14948Y11713D02*
X-15501Y12473D01*
X-16395Y12183D01*
Y11242D01*
X-15501Y10952D01*
X-14948Y11713D01*
X-8550Y8366D02*
X-9103Y9127D01*
X-9998Y8836D01*
Y7896D01*
X-9103Y7605D01*
X-8550Y8366D01*
X-33255Y30906D02*
X-33808Y31666D01*
X-34702Y31376D01*
Y30435D01*
X-33808Y30145D01*
X-33255Y30906D01*
X23832Y-42913D02*
X23279Y-42153D01*
X22384Y-42443D01*
Y-43384D01*
X23279Y-43674D01*
X23832Y-42913D01*
X33084Y-38583D02*
X32531Y-37822D01*
X31636Y-38113D01*
Y-39053D01*
X32531Y-39344D01*
X33084Y-38583D01*
X-22133Y-42815D02*
X-22686Y-42054D01*
X-23580Y-42345D01*
Y-43285D01*
X-22686Y-43576D01*
X-22133Y-42815D01*
X-31484Y-38878D02*
X-32036Y-38117D01*
X-32931Y-38408D01*
Y-39348D01*
X-32036Y-39639D01*
X-31484Y-38878D01*
X-6779Y-12402D02*
X-7332Y-11641D01*
X-8226Y-11931D01*
Y-12872D01*
X-7332Y-13162D01*
X-6779Y-12402D01*
X-34732Y-26280D02*
X-35284Y-25519D01*
X-36179Y-25809D01*
Y-26750D01*
X-35284Y-27040D01*
X-34732Y-26280D01*
X-23511Y-2559D02*
X-24064Y-1798D01*
X-24958Y-2089D01*
Y-3029D01*
X-24064Y-3320D01*
X-23511Y-2559D01*
X-14062Y-36811D02*
X-14615Y-36050D01*
X-15509Y-36341D01*
Y-37281D01*
X-14615Y-37572D01*
X-14062Y-36811D01*
X-8058D02*
X-8611Y-36050D01*
X-9505Y-36341D01*
Y-37281D01*
X-8611Y-37572D01*
X-8058Y-36811D01*
X-4121D02*
X-4674Y-36050D01*
X-5568Y-36341D01*
Y-37281D01*
X-4674Y-37572D01*
X-4121Y-36811D01*
X13595Y-36909D02*
X13043Y-36149D01*
X12148Y-36439D01*
Y-37380D01*
X13043Y-37670D01*
X13595Y-36909D01*
X35150Y25886D02*
X34598Y26647D01*
X33703Y26356D01*
Y25416D01*
X34598Y25125D01*
X35150Y25886D01*
X37217Y-24016D02*
X36665Y-23255D01*
X35770Y-23546D01*
Y-24486D01*
X36665Y-24777D01*
X37217Y-24016D01*
X39875Y15846D02*
X39322Y16607D01*
X38428Y16317D01*
Y15376D01*
X39322Y15086D01*
X39875Y15846D01*
X35347Y16929D02*
X34795Y17690D01*
X33900Y17399D01*
Y16459D01*
X34795Y16168D01*
X35347Y16929D01*
X28457Y11909D02*
X27905Y12670D01*
X27010Y12380D01*
Y11439D01*
X27905Y11149D01*
X28457Y11909D01*
Y16437D02*
X27905Y17198D01*
X27010Y16907D01*
Y15967D01*
X27905Y15676D01*
X28457Y16437D01*
X-18294Y18012D02*
X-18847Y18773D01*
X-19742Y18482D01*
Y17542D01*
X-18847Y17251D01*
X-18294Y18012D01*
X-3235Y11024D02*
X-3788Y11784D01*
X-4683Y11494D01*
Y10553D01*
X-3788Y10263D01*
X-3235Y11024D01*
X-10519Y1673D02*
X-11072Y2434D01*
X-11966Y2144D01*
Y1203D01*
X-11072Y912D01*
X-10519Y1673D01*
Y4921D02*
X-11072Y5682D01*
X-11966Y5392D01*
Y4451D01*
X-11072Y4160D01*
X-10519Y4921D01*
X-36995Y25689D02*
X-37548Y26450D01*
X-38443Y26159D01*
Y25219D01*
X-37548Y24928D01*
X-36995Y25689D01*
X-43098Y5118D02*
X-43650Y5879D01*
X-44545Y5588D01*
Y4648D01*
X-43650Y4357D01*
X-43098Y5118D01*
X-35716Y3248D02*
X-36268Y4009D01*
X-37163Y3718D01*
Y2778D01*
X-36268Y2487D01*
X-35716Y3248D01*
X18517Y10531D02*
X17964Y11292D01*
X17069Y11002D01*
Y10061D01*
X17964Y9771D01*
X18517Y10531D01*
X-22625Y1673D02*
X-23178Y2434D01*
X-24072Y2144D01*
Y1203D01*
X-23178Y912D01*
X-22625Y1673D01*
X18418Y14567D02*
X17865Y15328D01*
X16971Y15037D01*
Y14097D01*
X17865Y13806D01*
X18418Y14567D01*
X24521Y-4921D02*
X23968Y-4160D01*
X23073Y-4451D01*
Y-5392D01*
X23968Y-5682D01*
X24521Y-4921D01*
X28359Y-19193D02*
X27806Y-18432D01*
X26912Y-18723D01*
Y-19663D01*
X27806Y-19954D01*
X28359Y-19193D01*
X9363Y8169D02*
X8810Y8930D01*
X7916Y8640D01*
Y7699D01*
X8810Y7408D01*
X9363Y8169D01*
X4639Y8268D02*
X4086Y9029D01*
X3191Y8738D01*
Y7797D01*
X4086Y7507D01*
X4639Y8268D01*
X13D02*
X-540Y9029D01*
X-1435Y8738D01*
Y7797D01*
X-540Y7507D01*
X13Y8268D01*
X-4121Y8169D02*
X-4674Y8930D01*
X-5568Y8640D01*
Y7699D01*
X-4674Y7408D01*
X-4121Y8169D01*
X3753Y-14567D02*
X3200Y-13806D01*
X2306Y-14097D01*
Y-15037D01*
X3200Y-15328D01*
X3753Y-14567D01*
X5229Y-24311D02*
X4676Y-23550D01*
X3782Y-23841D01*
Y-24781D01*
X4676Y-25072D01*
X5229Y-24311D01*
X6115Y-12500D02*
X5562Y-11739D01*
X4668Y-12030D01*
Y-12970D01*
X5562Y-13261D01*
X6115Y-12500D01*
X1587Y-12303D02*
X1035Y-11542D01*
X140Y-11833D01*
Y-12773D01*
X1035Y-13064D01*
X1587Y-12303D01*
X9855Y-12205D02*
X9302Y-11444D01*
X8408Y-11734D01*
Y-12675D01*
X9302Y-12966D01*
X9855Y-12205D01*
X1587Y-4921D02*
X1035Y-4160D01*
X140Y-4451D01*
Y-5392D01*
X1035Y-5682D01*
X1587Y-4921D01*
X38202Y-28740D02*
X37649Y-27979D01*
X36754Y-28270D01*
Y-29210D01*
X37649Y-29501D01*
X38202Y-28740D01*
X24422Y-28740D02*
X23869Y-27979D01*
X22975Y-28270D01*
Y-29210D01*
X23869Y-29501D01*
X24422Y-28740D01*
X-22330Y-33071D02*
X-22883Y-32310D01*
X-23777Y-32601D01*
Y-33541D01*
X-22883Y-33832D01*
X-22330Y-33071D01*
X-26661Y-19390D02*
X-27213Y-18629D01*
X-28108Y-18920D01*
Y-19860D01*
X-27213Y-20151D01*
X-26661Y-19390D01*
X-31976Y-33366D02*
X-32528Y-32605D01*
X-33423Y-32896D01*
Y-33836D01*
X-32528Y-34127D01*
X-31976Y-33366D01*
X-36109Y12697D02*
X-36662Y13458D01*
X-37557Y13167D01*
Y12227D01*
X-36662Y11936D01*
X-36109Y12697D01*
X-39948Y13976D02*
X-40501Y14737D01*
X-41395Y14447D01*
Y13506D01*
X-40501Y13216D01*
X-39948Y13976D01*
M02*
