G04*
G04 #@! TF.GenerationSoftware,Altium Limited,Altium Designer,21.2.2 (38)*
G04*
G04 Layer_Physical_Order=2*
G04 Layer_Color=36540*
%FSLAX44Y44*%
%MOMM*%
G71*
G04*
G04 #@! TF.SameCoordinates,2EB6EAD6-5C33-48E4-AA2B-E0AFE4ABDD4A*
G04*
G04*
G04 #@! TF.FilePolarity,Positive*
G04*
G01*
G75*
%ADD11C,0.2000*%
%ADD18C,0.1500*%
%ADD137C,0.5080*%
%ADD151C,1.0000*%
%ADD152C,0.5000*%
%ADD161C,1.6000*%
%ADD164C,2.7000*%
%ADD165O,1.0000X0.7000*%
G04:AMPARAMS|DCode=166|XSize=1.6mm|YSize=0.9mm|CornerRadius=0mm|HoleSize=0mm|Usage=FLASHONLY|Rotation=225.000|XOffset=0mm|YOffset=0mm|HoleType=Round|Shape=Round|*
%AMOVALD166*
21,1,0.7000,0.9000,0.0000,0.0000,225.0*
1,1,0.9000,0.2475,0.2475*
1,1,0.9000,-0.2475,-0.2475*
%
%ADD166OVALD166*%

G04:AMPARAMS|DCode=167|XSize=1.6mm|YSize=0.9mm|CornerRadius=0mm|HoleSize=0mm|Usage=FLASHONLY|Rotation=135.000|XOffset=0mm|YOffset=0mm|HoleType=Round|Shape=Round|*
%AMOVALD167*
21,1,0.7000,0.9000,0.0000,0.0000,135.0*
1,1,0.9000,0.2475,-0.2475*
1,1,0.9000,-0.2475,0.2475*
%
%ADD167OVALD167*%

%ADD172C,2.4000*%
%ADD173C,0.4064*%
%ADD175C,3.0000*%
G36*
X1225000Y626115D02*
X1227080Y626115D01*
X1231159Y625304D01*
X1235002Y623712D01*
X1238460Y621401D01*
X1241401Y618460D01*
X1243712Y615002D01*
X1245304Y611159D01*
X1246115Y607080D01*
Y605000D01*
X1246115Y25000D01*
X1246115Y22920D01*
X1245304Y18841D01*
X1243712Y14998D01*
X1241402Y11540D01*
X1238460Y8598D01*
X1235002Y6288D01*
X1231159Y4696D01*
X1227080Y3884D01*
X1225000D01*
X25000Y3884D01*
X22920D01*
X18841Y4696D01*
X14998Y6288D01*
X11540Y8599D01*
X8598Y11540D01*
X6288Y14998D01*
X4696Y18841D01*
X3884Y22920D01*
X3884Y25000D01*
X3885Y604950D01*
X3884Y604952D01*
X3885Y604954D01*
X3883Y607036D01*
X4691Y611121D01*
X6281Y614970D01*
X8591Y618435D01*
X11532Y621382D01*
X14993Y623699D01*
X18838Y625297D01*
X22922Y626113D01*
X25004Y626115D01*
X1225000Y626115D01*
D02*
G37*
%LPC*%
G36*
X192010Y612330D02*
X189990D01*
X188123Y611557D01*
X186693Y610128D01*
X185920Y608260D01*
Y606240D01*
X186693Y604372D01*
X188123Y602943D01*
X189990Y602170D01*
X192010D01*
X193878Y602943D01*
X195307Y604372D01*
X196080Y606240D01*
Y608260D01*
X195307Y610128D01*
X193878Y611557D01*
X192010Y612330D01*
D02*
G37*
G36*
X1082769Y611977D02*
X1080748D01*
X1078881Y611203D01*
X1077452Y609774D01*
X1076678Y607907D01*
Y605886D01*
X1077452Y604019D01*
X1078881Y602590D01*
X1080748Y601817D01*
X1082769D01*
X1084636Y602590D01*
X1086065Y604019D01*
X1086838Y605886D01*
Y607907D01*
X1086065Y609774D01*
X1084636Y611203D01*
X1082769Y611977D01*
D02*
G37*
G36*
X834779Y607091D02*
X832758D01*
X830890Y606317D01*
X829461Y604888D01*
X828688Y603021D01*
Y601000D01*
X829461Y599133D01*
X830890Y597704D01*
X832758Y596931D01*
X834779D01*
X836646Y597704D01*
X838075Y599133D01*
X838848Y601000D01*
Y603021D01*
X838075Y604888D01*
X836646Y606317D01*
X834779Y607091D01*
D02*
G37*
G36*
X870011Y598080D02*
X867990D01*
X866122Y597307D01*
X865250Y596434D01*
X864628Y597057D01*
X862760Y597830D01*
X860740D01*
X858872Y597057D01*
X857443Y595628D01*
X856670Y593760D01*
Y591740D01*
X857443Y589872D01*
X858872Y588443D01*
X860740Y587670D01*
X862760D01*
X864628Y588443D01*
X865500Y589316D01*
X866122Y588693D01*
X867990Y587920D01*
X870011D01*
X871878Y588693D01*
X873307Y590122D01*
X874080Y591990D01*
Y594011D01*
X873307Y595878D01*
X871878Y597307D01*
X870011Y598080D01*
D02*
G37*
G36*
X368511Y607330D02*
X366489D01*
X364622Y606557D01*
X363193Y605128D01*
X362420Y603260D01*
Y601240D01*
X363099Y599600D01*
X362757Y598769D01*
X362440Y598330D01*
X361489D01*
X359622Y597557D01*
X358193Y596128D01*
X357924Y595477D01*
X356679Y595230D01*
X356422Y595486D01*
X354555Y596259D01*
X352534D01*
X350667Y595486D01*
X349238Y594057D01*
X348585Y592482D01*
X347644Y592117D01*
X347195Y592077D01*
X346520Y592751D01*
X344653Y593524D01*
X342632D01*
X340765Y592751D01*
X340382Y592368D01*
X340087Y592662D01*
X338220Y593436D01*
X336199D01*
X334332Y592662D01*
X332903Y591233D01*
X332130Y589366D01*
Y587345D01*
X332903Y585478D01*
X334332Y584049D01*
X336199Y583276D01*
X338220D01*
X340087Y584049D01*
X340470Y584432D01*
X340765Y584138D01*
X342632Y583364D01*
X344653D01*
X346520Y584138D01*
X347949Y585567D01*
X348602Y587142D01*
X349543Y587507D01*
X349993Y587547D01*
X350667Y586873D01*
X352534Y586100D01*
X354555D01*
X356422Y586873D01*
X357851Y588302D01*
X358120Y588952D01*
X359366Y589200D01*
X359622Y588943D01*
X361489Y588170D01*
X363511D01*
X365378Y588943D01*
X366807Y590372D01*
X367580Y592239D01*
Y594260D01*
X366901Y595900D01*
X367243Y596731D01*
X367560Y597170D01*
X368511D01*
X370378Y597943D01*
X371807Y599372D01*
X372580Y601240D01*
Y603260D01*
X371807Y605128D01*
X370378Y606557D01*
X368511Y607330D01*
D02*
G37*
G36*
X604972Y597424D02*
X602951D01*
X601084Y596651D01*
X599655Y595222D01*
X598882Y593355D01*
Y592137D01*
X597612Y591660D01*
X596520Y592751D01*
X594653Y593524D01*
X592632D01*
X590765Y592751D01*
X590382Y592368D01*
X590087Y592662D01*
X588220Y593436D01*
X586199D01*
X584332Y592662D01*
X582903Y591233D01*
X582130Y589366D01*
Y587345D01*
X582903Y585478D01*
X584332Y584049D01*
X586199Y583276D01*
X588220D01*
X590087Y584049D01*
X590470Y584432D01*
X590765Y584138D01*
X592632Y583364D01*
X594653D01*
X596520Y584138D01*
X597949Y585567D01*
X598723Y587434D01*
Y588652D01*
X599993Y589129D01*
X601084Y588037D01*
X602951Y587264D01*
X604972D01*
X606839Y588037D01*
X608269Y589467D01*
X609042Y591334D01*
Y593355D01*
X608269Y595222D01*
X606839Y596651D01*
X604972Y597424D01*
D02*
G37*
G36*
X197223Y599580D02*
X195202D01*
X193335Y598806D01*
X191906Y597378D01*
X191132Y595510D01*
Y593489D01*
X191906Y591622D01*
X193335Y590193D01*
X195202Y589420D01*
X197223D01*
X199090Y590193D01*
X200519Y591622D01*
X201292Y593489D01*
Y595510D01*
X200519Y597378D01*
X199090Y598806D01*
X197223Y599580D01*
D02*
G37*
G36*
X793511Y597580D02*
X791489D01*
X789622Y596807D01*
X788193Y595378D01*
X787420Y593511D01*
Y591489D01*
X788193Y589622D01*
X789622Y588193D01*
X791489Y587420D01*
X793511D01*
X795378Y588193D01*
X796807Y589622D01*
X797580Y591489D01*
Y593511D01*
X796807Y595378D01*
X795378Y596807D01*
X793511Y597580D01*
D02*
G37*
G36*
X51727Y597540D02*
X51270D01*
Y581270D01*
X67540D01*
Y581727D01*
X66866Y585116D01*
X65544Y588308D01*
X63624Y591181D01*
X61181Y593624D01*
X58308Y595544D01*
X55116Y596866D01*
X51727Y597540D01*
D02*
G37*
G36*
X48730D02*
X48273D01*
X44884Y596866D01*
X41692Y595544D01*
X38819Y593624D01*
X36376Y591181D01*
X34456Y588308D01*
X33134Y585116D01*
X32460Y581727D01*
Y581270D01*
X48730D01*
Y597540D01*
D02*
G37*
G36*
X1201728D02*
X1201270D01*
Y581270D01*
X1217540D01*
Y581727D01*
X1216866Y585116D01*
X1215544Y588308D01*
X1213624Y591181D01*
X1211181Y593624D01*
X1208308Y595544D01*
X1205116Y596866D01*
X1201728Y597540D01*
D02*
G37*
G36*
X1198730D02*
X1198272D01*
X1194884Y596866D01*
X1191692Y595544D01*
X1188819Y593624D01*
X1186376Y591181D01*
X1184456Y588308D01*
X1183134Y585116D01*
X1182460Y581727D01*
Y581270D01*
X1198730D01*
Y597540D01*
D02*
G37*
G36*
X848511Y590580D02*
X846490D01*
X844622Y589807D01*
X843193Y588378D01*
X842420Y586511D01*
Y584490D01*
X843193Y582622D01*
X844622Y581193D01*
X846490Y580420D01*
X848511D01*
X850378Y581193D01*
X851807Y582622D01*
X852580Y584490D01*
Y586511D01*
X851807Y588378D01*
X850378Y589807D01*
X848511Y590580D01*
D02*
G37*
G36*
X184261Y590080D02*
X182240D01*
X180373Y589307D01*
X178944Y587878D01*
X178170Y586011D01*
Y583990D01*
X178944Y582122D01*
X180373Y580693D01*
X182240Y579920D01*
X184261D01*
X186128Y580693D01*
X187557Y582122D01*
X188330Y583990D01*
Y586011D01*
X187557Y587878D01*
X186128Y589307D01*
X184261Y590080D01*
D02*
G37*
G36*
X1087010Y598080D02*
X1084989D01*
X1083122Y597307D01*
X1081693Y595878D01*
X1080920Y594011D01*
Y591990D01*
X1081693Y590122D01*
X1082816Y589000D01*
X1081693Y587878D01*
X1080920Y586011D01*
Y583989D01*
X1081693Y582122D01*
X1083122Y580693D01*
X1084989Y579920D01*
X1087010D01*
X1088878Y580693D01*
X1090307Y582122D01*
X1091080Y583989D01*
Y586011D01*
X1090307Y587878D01*
X1089184Y589000D01*
X1090307Y590122D01*
X1091080Y591990D01*
Y594011D01*
X1090307Y595878D01*
X1088878Y597307D01*
X1087010Y598080D01*
D02*
G37*
G36*
X163558Y615148D02*
X161537D01*
X159670Y614374D01*
X158241Y612945D01*
X157467Y611078D01*
Y609826D01*
X155557D01*
X153690Y609053D01*
X152261Y607624D01*
X151487Y605756D01*
Y603736D01*
X152261Y601869D01*
X153690Y600439D01*
X155557Y599666D01*
X156586D01*
X157510Y598721D01*
X157438Y597451D01*
X155557D01*
X153690Y596677D01*
X152261Y595248D01*
X151487Y593381D01*
Y591360D01*
X152261Y589493D01*
X153566Y588187D01*
X152261Y586882D01*
X151487Y585015D01*
Y582994D01*
X152261Y581127D01*
X153690Y579698D01*
X155557Y578924D01*
X157578D01*
X159445Y579698D01*
X160874Y581127D01*
X161647Y582994D01*
Y585015D01*
X160874Y586882D01*
X159569Y588187D01*
X160874Y589493D01*
X161647Y591360D01*
Y592588D01*
X163642D01*
X165509Y593361D01*
X166938Y594790D01*
X167711Y596657D01*
Y598678D01*
X166938Y600545D01*
X165509Y601974D01*
X163642Y602748D01*
X162613D01*
X161665Y603718D01*
X161704Y604988D01*
X163558D01*
X165425Y605761D01*
X166854Y607190D01*
X167627Y609057D01*
Y611078D01*
X166854Y612945D01*
X165425Y614374D01*
X163558Y615148D01*
D02*
G37*
G36*
X296329Y580778D02*
X294308D01*
X292441Y580004D01*
X291012Y578575D01*
X290238Y576708D01*
Y574687D01*
X291012Y572820D01*
X292441Y571391D01*
X294308Y570618D01*
X296329D01*
X298196Y571391D01*
X299625Y572820D01*
X300398Y574687D01*
Y576708D01*
X299625Y578575D01*
X298196Y580004D01*
X296329Y580778D01*
D02*
G37*
G36*
X277748D02*
X275727D01*
X273860Y580004D01*
X272431Y578575D01*
X271658Y576708D01*
Y574687D01*
X272431Y572820D01*
X273860Y571391D01*
X275727Y570618D01*
X277748D01*
X279615Y571391D01*
X281045Y572820D01*
X281818Y574687D01*
Y576708D01*
X281045Y578575D01*
X279615Y580004D01*
X277748Y580778D01*
D02*
G37*
G36*
X139010Y577330D02*
X136990D01*
X135122Y576557D01*
X133694Y575128D01*
X132920Y573260D01*
Y571240D01*
X133694Y569372D01*
X135122Y567943D01*
X136990Y567170D01*
X139010D01*
X140878Y567943D01*
X142307Y569372D01*
X143080Y571240D01*
Y573260D01*
X142307Y575128D01*
X140878Y576557D01*
X139010Y577330D01*
D02*
G37*
G36*
X950215Y581254D02*
Y564220D01*
X959738D01*
Y581248D01*
X950221D01*
X950215Y581254D01*
D02*
G37*
G36*
X935215D02*
Y564220D01*
X944738D01*
Y581248D01*
X935221D01*
X935215Y581254D01*
D02*
G37*
G36*
X920215D02*
Y564220D01*
X929738D01*
Y581248D01*
X920221D01*
X920215Y581254D01*
D02*
G37*
G36*
X709785D02*
X709778Y581248D01*
X700262D01*
Y564220D01*
X709785D01*
Y581254D01*
D02*
G37*
G36*
X694785D02*
X694778Y581248D01*
X685262D01*
Y564220D01*
X694785D01*
Y581254D01*
D02*
G37*
G36*
X679785D02*
X679778Y581248D01*
X670262D01*
Y564220D01*
X679785D01*
Y581254D01*
D02*
G37*
G36*
X655215D02*
Y564220D01*
X664738D01*
Y581248D01*
X655221D01*
X655215Y581254D01*
D02*
G37*
G36*
X640215D02*
Y564220D01*
X649738D01*
Y581248D01*
X640221D01*
X640215Y581254D01*
D02*
G37*
G36*
X459785D02*
X459778Y581248D01*
X450262D01*
Y564220D01*
X459785D01*
Y581254D01*
D02*
G37*
G36*
X444785D02*
X444778Y581248D01*
X435262D01*
Y564220D01*
X444785D01*
Y581254D01*
D02*
G37*
G36*
X429785D02*
X429778Y581248D01*
X420262D01*
Y564220D01*
X429785D01*
Y581254D01*
D02*
G37*
G36*
X1217540Y578730D02*
X1201270D01*
Y562460D01*
X1201728D01*
X1205116Y563134D01*
X1208308Y564456D01*
X1211181Y566376D01*
X1213624Y568819D01*
X1215544Y571692D01*
X1216866Y574884D01*
X1217540Y578273D01*
Y578730D01*
D02*
G37*
G36*
X1198730D02*
X1182460D01*
Y578273D01*
X1183134Y574884D01*
X1184456Y571692D01*
X1186376Y568819D01*
X1188819Y566376D01*
X1191692Y564456D01*
X1194884Y563134D01*
X1198272Y562460D01*
X1198730D01*
Y578730D01*
D02*
G37*
G36*
X67540Y578730D02*
X51270D01*
Y562460D01*
X51727D01*
X55116Y563134D01*
X58308Y564456D01*
X61181Y566376D01*
X63624Y568819D01*
X65544Y571692D01*
X66866Y574884D01*
X67540Y578273D01*
Y578730D01*
D02*
G37*
G36*
X48730D02*
X32460D01*
Y578273D01*
X33134Y574884D01*
X34456Y571692D01*
X36376Y568819D01*
X38819Y566376D01*
X41692Y564456D01*
X44884Y563134D01*
X48273Y562460D01*
X48730D01*
Y578730D01*
D02*
G37*
G36*
X1080745Y572530D02*
X1078724D01*
X1076857Y571757D01*
X1075427Y570328D01*
X1074654Y568461D01*
Y566440D01*
X1075427Y564572D01*
X1076857Y563143D01*
X1078724Y562370D01*
X1080745D01*
X1082612Y563143D01*
X1084041Y564572D01*
X1084814Y566440D01*
Y568461D01*
X1084041Y570328D01*
X1082612Y571757D01*
X1080745Y572530D01*
D02*
G37*
G36*
X843801Y562224D02*
X841780D01*
X839913Y561451D01*
X839530Y561068D01*
X839235Y561362D01*
X837368Y562136D01*
X835347D01*
X833480Y561362D01*
X832051Y559933D01*
X831277Y558066D01*
Y556045D01*
X832051Y554178D01*
X833480Y552749D01*
X835347Y551976D01*
X837368D01*
X839235Y552749D01*
X839618Y553132D01*
X839913Y552838D01*
X841780Y552064D01*
X843801D01*
X845668Y552838D01*
X847097Y554267D01*
X847871Y556134D01*
Y558155D01*
X847097Y560022D01*
X845668Y561451D01*
X843801Y562224D01*
D02*
G37*
G36*
X292178Y561158D02*
X290157D01*
X288290Y560384D01*
X286861Y558955D01*
X286088Y557088D01*
Y555067D01*
X286861Y553200D01*
X288290Y551771D01*
X290157Y550998D01*
X292178D01*
X294045Y551771D01*
X295474Y553200D01*
X296248Y555067D01*
Y557088D01*
X295474Y558955D01*
X294045Y560384D01*
X292178Y561158D01*
D02*
G37*
G36*
X628511Y559830D02*
X626490D01*
X624622Y559057D01*
X623193Y557628D01*
X622420Y555760D01*
Y553740D01*
X623193Y551872D01*
X624622Y550443D01*
X626490Y549670D01*
X628511D01*
X630378Y550443D01*
X631807Y551872D01*
X632580Y553740D01*
Y555760D01*
X631807Y557628D01*
X630378Y559057D01*
X628511Y559830D01*
D02*
G37*
G36*
X237208Y556535D02*
X235187D01*
X233320Y555762D01*
X231891Y554333D01*
X231117Y552466D01*
Y550445D01*
X231891Y548578D01*
X233320Y547149D01*
X235187Y546375D01*
X237208D01*
X239075Y547149D01*
X240504Y548578D01*
X241277Y550445D01*
Y552466D01*
X240504Y554333D01*
X239075Y555762D01*
X237208Y556535D01*
D02*
G37*
G36*
X101340Y555788D02*
X99319D01*
X97451Y555015D01*
X96022Y553586D01*
X95249Y551718D01*
Y549698D01*
X96022Y547831D01*
X97451Y546401D01*
X99319Y545628D01*
X101340D01*
X103207Y546401D01*
X104636Y547831D01*
X105409Y549698D01*
Y551718D01*
X104636Y553586D01*
X103207Y555015D01*
X101340Y555788D01*
D02*
G37*
G36*
X114890Y554116D02*
X112869D01*
X111002Y553342D01*
X109573Y551913D01*
X108799Y550046D01*
Y548025D01*
X109573Y546158D01*
X111002Y544729D01*
X112869Y543956D01*
X114890D01*
X116757Y544729D01*
X118186Y546158D01*
X118960Y548025D01*
Y550046D01*
X118186Y551913D01*
X116757Y553342D01*
X114890Y554116D01*
D02*
G37*
G36*
X541011Y545080D02*
X538989D01*
X537122Y544307D01*
X535693Y542878D01*
X534920Y541011D01*
Y538989D01*
X535693Y537122D01*
X537122Y535693D01*
X538989Y534920D01*
X541011D01*
X542878Y535693D01*
X544307Y537122D01*
X545080Y538989D01*
Y541011D01*
X544307Y542878D01*
X542878Y544307D01*
X541011Y545080D01*
D02*
G37*
G36*
X68011Y544580D02*
X65989D01*
X64122Y543807D01*
X62693Y542378D01*
X61920Y540510D01*
Y538489D01*
X62693Y536622D01*
X64122Y535193D01*
X65989Y534420D01*
X68011D01*
X69878Y535193D01*
X71307Y536622D01*
X72080Y538489D01*
Y540510D01*
X71307Y542378D01*
X69878Y543807D01*
X68011Y544580D01*
D02*
G37*
G36*
X526011Y542580D02*
X523989D01*
X522122Y541807D01*
X520693Y540378D01*
X519920Y538511D01*
Y536489D01*
X520693Y534622D01*
X522122Y533193D01*
X523989Y532420D01*
X526011D01*
X527878Y533193D01*
X529307Y534622D01*
X530080Y536489D01*
Y538511D01*
X529307Y540378D01*
X527878Y541807D01*
X526011Y542580D01*
D02*
G37*
G36*
X391797Y545127D02*
X389776D01*
X387909Y544354D01*
X386480Y542925D01*
X385706Y541058D01*
Y539037D01*
X386480Y537169D01*
X387909Y535741D01*
X389776Y534967D01*
X391634D01*
Y533620D01*
X392408Y531753D01*
X393837Y530324D01*
X395704Y529550D01*
X397725D01*
X399592Y530324D01*
X401021Y531753D01*
X401794Y533620D01*
Y535641D01*
X401021Y537508D01*
X399592Y538937D01*
X397725Y539710D01*
X395867D01*
Y541058D01*
X395093Y542925D01*
X393664Y544354D01*
X391797Y545127D01*
D02*
G37*
G36*
X1209382Y537761D02*
X1207361D01*
X1205494Y536987D01*
X1204065Y535558D01*
X1203292Y533691D01*
Y531670D01*
X1204065Y529803D01*
X1205494Y528374D01*
X1207361Y527601D01*
X1209382D01*
X1211249Y528374D01*
X1212678Y529803D01*
X1213452Y531670D01*
Y533691D01*
X1212678Y535558D01*
X1211249Y536987D01*
X1209382Y537761D01*
D02*
G37*
G36*
X1050761Y537330D02*
X1048740D01*
X1046873Y536557D01*
X1045444Y535128D01*
X1044670Y533261D01*
Y531240D01*
X1045444Y529373D01*
X1046873Y527944D01*
X1048740Y527170D01*
X1050761D01*
X1052628Y527944D01*
X1054057Y529373D01*
X1054830Y531240D01*
Y533261D01*
X1054057Y535128D01*
X1052628Y536557D01*
X1050761Y537330D01*
D02*
G37*
G36*
X1120189Y534330D02*
X1118168D01*
X1116301Y533557D01*
X1114872Y532127D01*
X1114098Y530260D01*
Y528240D01*
X1114872Y526372D01*
X1116301Y524943D01*
X1118168Y524170D01*
X1120189D01*
X1122056Y524943D01*
X1123485Y526372D01*
X1124258Y528240D01*
Y530260D01*
X1123485Y532127D01*
X1122056Y533557D01*
X1120189Y534330D01*
D02*
G37*
G36*
X297010Y531580D02*
X294989D01*
X293122Y530807D01*
X291693Y529378D01*
X290920Y527510D01*
Y525490D01*
X291693Y523622D01*
X293122Y522193D01*
X294989Y521420D01*
X297010D01*
X298878Y522193D01*
X300307Y523622D01*
X301080Y525490D01*
Y527510D01*
X300307Y529378D01*
X298878Y530807D01*
X297010Y531580D01*
D02*
G37*
G36*
X633511Y531511D02*
X631489D01*
X629622Y530737D01*
X628193Y529308D01*
X627420Y527441D01*
Y525420D01*
X628193Y523553D01*
X629622Y522124D01*
X631489Y521351D01*
X633511D01*
X635378Y522124D01*
X636807Y523553D01*
X637580Y525420D01*
Y527441D01*
X636807Y529308D01*
X635378Y530737D01*
X633511Y531511D01*
D02*
G37*
G36*
X591319Y529246D02*
X589298D01*
X587431Y528473D01*
X586002Y527044D01*
X585228Y525177D01*
Y523156D01*
X586002Y521289D01*
X587431Y519860D01*
X589298Y519086D01*
X591319D01*
X593186Y519860D01*
X594615Y521289D01*
X595388Y523156D01*
Y525177D01*
X594615Y527044D01*
X593186Y528473D01*
X591319Y529246D01*
D02*
G37*
G36*
X832936Y528602D02*
X830915D01*
X829048Y527829D01*
X827619Y526400D01*
X826846Y524533D01*
Y522512D01*
X827619Y520645D01*
X829048Y519216D01*
X830915Y518442D01*
X832936D01*
X834803Y519216D01*
X836232Y520645D01*
X837006Y522512D01*
Y524533D01*
X836232Y526400D01*
X834803Y527829D01*
X832936Y528602D01*
D02*
G37*
G36*
X913260Y527214D02*
X911240D01*
X909372Y526440D01*
X907943Y525011D01*
X907170Y523144D01*
Y521123D01*
X907943Y519256D01*
X909372Y517827D01*
X911240Y517053D01*
X913260D01*
X915128Y517827D01*
X916557Y519256D01*
X917330Y521123D01*
Y523144D01*
X916557Y525011D01*
X915128Y526440D01*
X913260Y527214D01*
D02*
G37*
G36*
X979010Y527081D02*
X976989D01*
X975122Y526307D01*
X973692Y524878D01*
X972919Y523011D01*
Y520990D01*
X973692Y519123D01*
X975122Y517694D01*
X976989Y516921D01*
X979010D01*
X980877Y517694D01*
X982306Y519123D01*
X983079Y520990D01*
Y523011D01*
X982306Y524878D01*
X980877Y526307D01*
X979010Y527081D01*
D02*
G37*
G36*
X357173Y526914D02*
X355152D01*
X353285Y526141D01*
X351856Y524712D01*
X351083Y522845D01*
Y520824D01*
X351856Y518957D01*
X353285Y517528D01*
X355152Y516754D01*
X357173D01*
X359040Y517528D01*
X360469Y518957D01*
X361243Y520824D01*
Y522845D01*
X360469Y524712D01*
X359040Y526141D01*
X357173Y526914D01*
D02*
G37*
G36*
X270022Y525876D02*
X268001D01*
X266134Y525103D01*
X264705Y523674D01*
X263932Y521806D01*
Y519785D01*
X264705Y517918D01*
X266134Y516489D01*
X268001Y515716D01*
X270022D01*
X271889Y516489D01*
X273319Y517918D01*
X274092Y519785D01*
Y521806D01*
X273319Y523674D01*
X271889Y525103D01*
X270022Y525876D01*
D02*
G37*
G36*
X120453Y530895D02*
X118432D01*
X116565Y530122D01*
X115136Y528693D01*
X114362Y526826D01*
Y524805D01*
X115136Y522938D01*
X115861Y522213D01*
X115136Y521488D01*
X114362Y519621D01*
Y517600D01*
X115136Y515733D01*
X116565Y514304D01*
X118432Y513530D01*
X120453D01*
X122320Y514304D01*
X123749Y515733D01*
X124522Y517600D01*
Y519621D01*
X123749Y521488D01*
X123024Y522213D01*
X123749Y522938D01*
X124522Y524805D01*
Y526826D01*
X123749Y528693D01*
X122320Y530122D01*
X120453Y530895D01*
D02*
G37*
G36*
X176261Y518580D02*
X174240D01*
X172372Y517807D01*
X170943Y516378D01*
X170170Y514510D01*
Y512490D01*
X170943Y510622D01*
X172372Y509193D01*
X174240Y508420D01*
X176261D01*
X178128Y509193D01*
X179557Y510622D01*
X180330Y512490D01*
Y514510D01*
X179557Y516378D01*
X178128Y517807D01*
X176261Y518580D01*
D02*
G37*
G36*
X221950Y514044D02*
X219929D01*
X218062Y513271D01*
X216633Y511842D01*
X215859Y509975D01*
Y507954D01*
X216633Y506087D01*
X218062Y504658D01*
X219929Y503885D01*
X221950D01*
X223817Y504658D01*
X225246Y506087D01*
X226019Y507954D01*
Y509975D01*
X225246Y511842D01*
X223817Y513271D01*
X221950Y514044D01*
D02*
G37*
G36*
X285011Y519080D02*
X282990D01*
X281122Y518307D01*
X279693Y516878D01*
X278920Y515010D01*
Y512990D01*
X279693Y511122D01*
X279812Y511003D01*
X279277Y509742D01*
X277622Y509057D01*
X276193Y507628D01*
X275420Y505760D01*
Y503740D01*
X276193Y501872D01*
X277622Y500443D01*
X279489Y499670D01*
X281511D01*
X283378Y500443D01*
X284807Y501872D01*
X285580Y503740D01*
Y505760D01*
X284807Y507628D01*
X284688Y507747D01*
X285222Y509008D01*
X286878Y509693D01*
X288307Y511122D01*
X289080Y512990D01*
Y515010D01*
X288307Y516878D01*
X286878Y518307D01*
X285011Y519080D01*
D02*
G37*
G36*
X238011Y507580D02*
X235989D01*
X234122Y506807D01*
X232693Y505378D01*
X231920Y503511D01*
Y501489D01*
X232693Y499622D01*
X234122Y498193D01*
X235989Y497420D01*
X238011D01*
X239878Y498193D01*
X241307Y499622D01*
X242080Y501489D01*
Y503511D01*
X241307Y505378D01*
X239878Y506807D01*
X238011Y507580D01*
D02*
G37*
G36*
X374211Y496333D02*
X372190D01*
X370323Y495559D01*
X369009Y494246D01*
X368234Y495021D01*
X366367Y495795D01*
X364346D01*
X362479Y495021D01*
X361050Y493592D01*
X360276Y491725D01*
Y489704D01*
X361050Y487837D01*
X362479Y486408D01*
X364346Y485635D01*
X366367D01*
X368234Y486408D01*
X369547Y487722D01*
X370323Y486946D01*
X372190Y486173D01*
X374211D01*
X376078Y486946D01*
X377507Y488375D01*
X378280Y490242D01*
Y492263D01*
X377507Y494130D01*
X376078Y495559D01*
X374211Y496333D01*
D02*
G37*
G36*
X1167761Y509603D02*
X1165740D01*
X1163873Y508830D01*
X1162444Y507401D01*
X1161671Y505534D01*
Y503513D01*
X1162444Y501646D01*
X1163873Y500217D01*
X1165740Y499443D01*
X1166996D01*
X1167761Y499443D01*
X1168170Y498270D01*
Y497518D01*
X1168943Y495651D01*
X1170372Y494222D01*
X1172239Y493449D01*
X1174260D01*
X1176127Y494222D01*
X1177556Y495651D01*
X1178330Y497518D01*
Y499539D01*
X1177556Y501406D01*
X1176127Y502835D01*
X1174260Y503609D01*
X1173004D01*
X1172239Y503609D01*
X1171831Y504782D01*
Y505534D01*
X1171057Y507401D01*
X1169628Y508830D01*
X1167761Y509603D01*
D02*
G37*
G36*
X1217045Y502263D02*
X1215024D01*
X1213157Y501489D01*
X1211728Y500060D01*
X1210955Y498193D01*
Y496172D01*
X1211728Y494305D01*
X1213157Y492876D01*
X1215024Y492103D01*
X1217045D01*
X1218912Y492876D01*
X1220341Y494305D01*
X1221115Y496172D01*
Y498193D01*
X1220341Y500060D01*
X1218912Y501489D01*
X1217045Y502263D01*
D02*
G37*
G36*
X1123010Y499080D02*
X1120990D01*
X1119122Y498307D01*
X1117693Y496878D01*
X1116920Y495010D01*
Y492990D01*
X1117693Y491122D01*
X1119122Y489693D01*
X1120990Y488920D01*
X1123010D01*
X1124878Y489693D01*
X1126307Y491122D01*
X1127080Y492990D01*
Y495010D01*
X1126307Y496878D01*
X1124878Y498307D01*
X1123010Y499080D01*
D02*
G37*
G36*
X124477Y491651D02*
X122456D01*
X120589Y490878D01*
X119160Y489449D01*
X118386Y487581D01*
Y485561D01*
X119160Y483694D01*
X120589Y482265D01*
X122456Y481491D01*
X124477D01*
X126344Y482265D01*
X127773Y483694D01*
X128546Y485561D01*
Y487581D01*
X127773Y489449D01*
X126344Y490878D01*
X124477Y491651D01*
D02*
G37*
G36*
X110992Y482025D02*
X108971D01*
X107104Y481251D01*
X105675Y479822D01*
X104902Y477955D01*
Y475934D01*
X105675Y474067D01*
X107104Y472638D01*
X108971Y471865D01*
X110992D01*
X112859Y472638D01*
X114288Y474067D01*
X115062Y475934D01*
Y477955D01*
X114288Y479822D01*
X112859Y481251D01*
X110992Y482025D01*
D02*
G37*
G36*
X1011158Y480623D02*
X1009137D01*
X1007270Y479850D01*
X1005841Y478421D01*
X1005068Y476553D01*
Y474533D01*
X1005841Y472665D01*
X1007270Y471236D01*
X1009137Y470463D01*
X1011158D01*
X1013026Y471236D01*
X1014454Y472665D01*
X1015228Y474533D01*
Y476553D01*
X1014454Y478421D01*
X1013026Y479850D01*
X1011158Y480623D01*
D02*
G37*
G36*
X140312Y485244D02*
X138291D01*
X136424Y484471D01*
X134995Y483042D01*
X134222Y481174D01*
Y479154D01*
X134995Y477286D01*
X135176Y477106D01*
X135016Y476946D01*
X134242Y475079D01*
Y473058D01*
X135016Y471190D01*
X136445Y469761D01*
X138312Y468988D01*
X140333D01*
X142200Y469761D01*
X143629Y471190D01*
X144403Y473058D01*
Y475079D01*
X143629Y476946D01*
X143448Y477126D01*
X143608Y477286D01*
X144382Y479154D01*
Y481174D01*
X143608Y483042D01*
X142179Y484471D01*
X140312Y485244D01*
D02*
G37*
G36*
X1036423Y476437D02*
X1034402D01*
X1032535Y475664D01*
X1031106Y474235D01*
X1030332Y472368D01*
Y470347D01*
X1031106Y468479D01*
X1032535Y467051D01*
X1034402Y466277D01*
X1036423D01*
X1038290Y467051D01*
X1039719Y468479D01*
X1040492Y470347D01*
Y472368D01*
X1039719Y474235D01*
X1038290Y475664D01*
X1036423Y476437D01*
D02*
G37*
G36*
X54697Y475698D02*
X52676D01*
X50809Y474925D01*
X49380Y473496D01*
X48607Y471629D01*
Y469608D01*
X49380Y467741D01*
X50809Y466312D01*
X52676Y465538D01*
X54697D01*
X56564Y466312D01*
X57993Y467741D01*
X58767Y469608D01*
Y471629D01*
X57993Y473496D01*
X56564Y474925D01*
X54697Y475698D01*
D02*
G37*
G36*
X1217405Y475193D02*
X1215384D01*
X1213517Y474420D01*
X1212088Y472991D01*
X1211315Y471124D01*
Y469103D01*
X1212088Y467236D01*
X1213517Y465807D01*
X1215384Y465033D01*
X1217405D01*
X1219272Y465807D01*
X1220701Y467236D01*
X1221475Y469103D01*
Y471124D01*
X1220701Y472991D01*
X1219272Y474420D01*
X1217405Y475193D01*
D02*
G37*
G36*
X95098Y473505D02*
X93077D01*
X91210Y472731D01*
X89781Y471302D01*
X89008Y469435D01*
Y467414D01*
X89781Y465547D01*
X91210Y464118D01*
X93077Y463345D01*
X95098D01*
X96965Y464118D01*
X98394Y465547D01*
X99168Y467414D01*
Y469435D01*
X98394Y471302D01*
X96965Y472731D01*
X95098Y473505D01*
D02*
G37*
G36*
X197923Y491918D02*
X195902D01*
X194035Y491144D01*
X192605Y489715D01*
X191832Y487848D01*
Y485827D01*
X192605Y483960D01*
X194035Y482531D01*
X195902Y481758D01*
X196053D01*
Y481607D01*
X196826Y479740D01*
X195899Y478912D01*
X195160Y478605D01*
X193731Y477176D01*
X192957Y475309D01*
Y473288D01*
X193731Y471421D01*
X195160Y469992D01*
X197027Y469219D01*
X199048D01*
X200915Y469992D01*
X201400Y470477D01*
X202670Y469951D01*
Y469724D01*
X203443Y467857D01*
X203550Y467750D01*
X203443Y467643D01*
X202670Y465776D01*
Y463755D01*
X203443Y461888D01*
X204872Y460459D01*
X206740Y459686D01*
X208761D01*
X210628Y460459D01*
X212057Y461888D01*
X212830Y463755D01*
Y465776D01*
X212057Y467643D01*
X211950Y467750D01*
X212057Y467857D01*
X212830Y469724D01*
Y471745D01*
X212057Y473612D01*
X210628Y475041D01*
X208761Y475815D01*
X206740D01*
X204872Y475041D01*
X204387Y474556D01*
X203117Y475082D01*
Y475309D01*
X202344Y477176D01*
X203271Y478004D01*
X204010Y478311D01*
X205439Y479740D01*
X206213Y481607D01*
Y483628D01*
X205439Y485495D01*
X204010Y486924D01*
X202143Y487697D01*
X201992D01*
Y487848D01*
X201219Y489715D01*
X199790Y491144D01*
X197923Y491918D01*
D02*
G37*
G36*
X436406Y468991D02*
X434385D01*
X432518Y468217D01*
X431089Y466788D01*
X430315Y464921D01*
Y462900D01*
X431089Y461033D01*
X432518Y459604D01*
X434385Y458831D01*
X436406D01*
X438273Y459604D01*
X439702Y461033D01*
X440475Y462900D01*
Y464921D01*
X439702Y466788D01*
X438273Y468217D01*
X436406Y468991D01*
D02*
G37*
G36*
X1026924Y467916D02*
X1024903D01*
X1023036Y467142D01*
X1021607Y465714D01*
X1020834Y463846D01*
Y461825D01*
X1021607Y459958D01*
X1023036Y458529D01*
X1024903Y457756D01*
X1026924D01*
X1028791Y458529D01*
X1030220Y459958D01*
X1030993Y461825D01*
Y463846D01*
X1030220Y465714D01*
X1028791Y467142D01*
X1026924Y467916D01*
D02*
G37*
G36*
X1129010Y467080D02*
X1126990D01*
X1125122Y466307D01*
X1123693Y464878D01*
X1122920Y463010D01*
Y460989D01*
X1123693Y459122D01*
X1125122Y457693D01*
X1126990Y456920D01*
X1129010D01*
X1130878Y457693D01*
X1132307Y459122D01*
X1133080Y460989D01*
Y463010D01*
X1132307Y464878D01*
X1130878Y466307D01*
X1129010Y467080D01*
D02*
G37*
G36*
X1037596Y460208D02*
X1035575D01*
X1033708Y459435D01*
X1032279Y458006D01*
X1031506Y456139D01*
Y454118D01*
X1032279Y452251D01*
X1033708Y450822D01*
X1035575Y450048D01*
X1037596D01*
X1039463Y450822D01*
X1040892Y452251D01*
X1041666Y454118D01*
Y456139D01*
X1040892Y458006D01*
X1039463Y459435D01*
X1037596Y460208D01*
D02*
G37*
G36*
X539611Y465346D02*
X537590D01*
X535723Y464572D01*
X534294Y463144D01*
X533520Y461276D01*
Y459255D01*
X534294Y457388D01*
X534401Y457281D01*
X534294Y457174D01*
X533520Y455307D01*
Y453286D01*
X534294Y451419D01*
X535723Y449990D01*
X537590Y449217D01*
X539611D01*
X541478Y449990D01*
X542907Y451419D01*
X543680Y453286D01*
Y455307D01*
X542907Y457174D01*
X542800Y457281D01*
X542907Y457388D01*
X543680Y459255D01*
Y461276D01*
X542907Y463144D01*
X541478Y464572D01*
X539611Y465346D01*
D02*
G37*
G36*
X85760Y459080D02*
X83740D01*
X81872Y458307D01*
X80443Y456878D01*
X79670Y455010D01*
Y452990D01*
X80443Y451122D01*
X81872Y449693D01*
X83740Y448920D01*
X85760D01*
X87628Y449693D01*
X89057Y451122D01*
X89830Y452990D01*
Y455010D01*
X89057Y456878D01*
X87628Y458307D01*
X85760Y459080D01*
D02*
G37*
G36*
X208426Y456387D02*
X206405D01*
X204538Y455614D01*
X203109Y454185D01*
X202335Y452318D01*
Y452167D01*
X202184D01*
X200317Y451393D01*
X198888Y449964D01*
X198115Y448097D01*
Y446076D01*
X198888Y444209D01*
X200317Y442780D01*
X202184Y442007D01*
X204205D01*
X206072Y442780D01*
X207501Y444209D01*
X208275Y446076D01*
Y446227D01*
X208426D01*
X210293Y447001D01*
X211722Y448430D01*
X212495Y450297D01*
Y452318D01*
X211722Y454185D01*
X210293Y455614D01*
X208426Y456387D01*
D02*
G37*
G36*
X848228Y457040D02*
X844772D01*
X841384Y456366D01*
X838192Y455044D01*
X835319Y453124D01*
X834995Y452801D01*
X846500Y441296D01*
X858005Y452801D01*
X857681Y453124D01*
X854808Y455044D01*
X851616Y456366D01*
X848228Y457040D01*
D02*
G37*
G36*
X940163Y458778D02*
X938142D01*
X936274Y458004D01*
X934845Y456575D01*
X934072Y454708D01*
Y452687D01*
X934845Y450820D01*
X936227Y449438D01*
X935218Y448429D01*
X934445Y446562D01*
Y444542D01*
X935218Y442674D01*
X936182Y441710D01*
X935821Y440706D01*
X934530Y440430D01*
X934114Y440846D01*
X932247Y441620D01*
X930226D01*
X928359Y440846D01*
X926930Y439417D01*
X926157Y437550D01*
Y435529D01*
X926930Y433662D01*
X928359Y432233D01*
X930226Y431460D01*
X931019D01*
Y430244D01*
X931792Y428377D01*
X933221Y426948D01*
X935089Y426175D01*
X937109D01*
X938977Y426948D01*
X939447Y427419D01*
X940169Y426696D01*
X942037Y425923D01*
X944057D01*
X945925Y426696D01*
X947354Y428125D01*
X948127Y429992D01*
Y432013D01*
X947354Y433881D01*
X945925Y435310D01*
X945225Y435599D01*
X945776Y436928D01*
Y438949D01*
X945003Y440816D01*
X943574Y442245D01*
X943735Y442578D01*
X943831Y442674D01*
X944605Y444542D01*
Y446562D01*
X943831Y448429D01*
X942450Y449811D01*
X943459Y450820D01*
X944232Y452687D01*
Y454708D01*
X943459Y456575D01*
X942030Y458004D01*
X940163Y458778D01*
D02*
G37*
G36*
X1116954Y450563D02*
X1114933D01*
X1113066Y449789D01*
X1111637Y448360D01*
X1110864Y446493D01*
Y444472D01*
X1111637Y442605D01*
X1113066Y441176D01*
X1114933Y440403D01*
X1116954D01*
X1118821Y441176D01*
X1120250Y442605D01*
X1121024Y444472D01*
Y446493D01*
X1120250Y448360D01*
X1118821Y449789D01*
X1116954Y450563D01*
D02*
G37*
G36*
X333819Y439275D02*
X331798D01*
X329931Y438502D01*
X328502Y437073D01*
X328215Y436380D01*
X326841D01*
X326671Y436789D01*
X325242Y438218D01*
X323375Y438992D01*
X321354D01*
X319487Y438218D01*
X318057Y436789D01*
X317284Y434922D01*
Y432901D01*
X318057Y431034D01*
X319487Y429605D01*
X321354Y428832D01*
X323375D01*
X325242Y429605D01*
X326671Y431034D01*
X326958Y431727D01*
X328332D01*
X328502Y431317D01*
X329931Y429888D01*
X331798Y429115D01*
X333819D01*
X335686Y429888D01*
X337115Y431317D01*
X337889Y433185D01*
Y435206D01*
X337115Y437073D01*
X335686Y438502D01*
X333819Y439275D01*
D02*
G37*
G36*
X372812Y438973D02*
X370791D01*
X368924Y438199D01*
X367495Y436770D01*
X367042Y435676D01*
X365667D01*
X365592Y435859D01*
X364162Y437288D01*
X362295Y438061D01*
X360274D01*
X358407Y437288D01*
X356978Y435859D01*
X356205Y433992D01*
Y431971D01*
X356978Y430103D01*
X358407Y428674D01*
X360274Y427901D01*
X362295D01*
X364162Y428674D01*
X365592Y430103D01*
X366045Y431198D01*
X367419D01*
X367495Y431015D01*
X368924Y429586D01*
X370791Y428812D01*
X372812D01*
X374679Y429586D01*
X375616Y430523D01*
X376113Y430424D01*
X377542Y428995D01*
X379409Y428222D01*
X381430D01*
X383297Y428995D01*
X384726Y430424D01*
X385500Y432291D01*
Y434312D01*
X384726Y436179D01*
X383297Y437608D01*
X381430Y438382D01*
X379409D01*
X377542Y437608D01*
X376605Y436671D01*
X376108Y436770D01*
X374679Y438199D01*
X372812Y438973D01*
D02*
G37*
G36*
X174257Y442624D02*
X172236D01*
X170369Y441851D01*
X168940Y440422D01*
X168167Y438555D01*
Y436534D01*
X168940Y434667D01*
X170369Y433238D01*
X172236Y432464D01*
X174257D01*
X176124Y433238D01*
X177553Y434667D01*
X178327Y436534D01*
Y438555D01*
X177553Y440422D01*
X176124Y441851D01*
X174257Y442624D01*
D02*
G37*
G36*
X530861Y448564D02*
X528840D01*
X526973Y447791D01*
X525544Y446362D01*
X524771Y444495D01*
Y442474D01*
X525544Y440607D01*
X525651Y440500D01*
X525544Y440393D01*
X524771Y438526D01*
Y436505D01*
X525544Y434638D01*
X526973Y433209D01*
X528840Y432435D01*
X530861D01*
X532728Y433209D01*
X534157Y434638D01*
X534931Y436505D01*
Y438526D01*
X534157Y440393D01*
X534050Y440500D01*
X534157Y440607D01*
X534931Y442474D01*
Y444495D01*
X534157Y446362D01*
X532728Y447791D01*
X530861Y448564D01*
D02*
G37*
G36*
X85260Y441330D02*
X83239D01*
X81372Y440557D01*
X79943Y439128D01*
X79170Y437261D01*
Y435239D01*
X79943Y433372D01*
X81372Y431943D01*
X83239Y431170D01*
X85260D01*
X87128Y431943D01*
X88557Y433372D01*
X89330Y435239D01*
Y437261D01*
X88557Y439128D01*
X87128Y440557D01*
X85260Y441330D01*
D02*
G37*
G36*
X964363Y431641D02*
X962342D01*
X960475Y430868D01*
X960368Y430761D01*
X960262Y430868D01*
X958394Y431641D01*
X956373D01*
X954506Y430868D01*
X953077Y429439D01*
X952304Y427571D01*
Y425550D01*
X953077Y423683D01*
X954506Y422254D01*
X956373Y421481D01*
X958394D01*
X960262Y422254D01*
X960368Y422361D01*
X960475Y422254D01*
X962342Y421481D01*
X964363D01*
X966230Y422254D01*
X967660Y423683D01*
X968433Y425550D01*
Y427571D01*
X967660Y429439D01*
X966230Y430868D01*
X964363Y431641D01*
D02*
G37*
G36*
X1197854Y440080D02*
X1195833D01*
X1193966Y439307D01*
X1192537Y437878D01*
X1191764Y436011D01*
Y433989D01*
X1192537Y432122D01*
X1193966Y430693D01*
X1195833Y429920D01*
X1197854D01*
X1199721Y430693D01*
X1201150Y432122D01*
X1201924Y433989D01*
Y436011D01*
X1201150Y437878D01*
X1199721Y439307D01*
X1197854Y440080D01*
D02*
G37*
G36*
X308510D02*
X306490D01*
X304622Y439307D01*
X303193Y437878D01*
X302420Y436011D01*
Y433989D01*
X303193Y432122D01*
X304622Y430693D01*
X306490Y429920D01*
X308510D01*
X310378Y430693D01*
X311807Y432122D01*
X312580Y433989D01*
Y436011D01*
X311807Y437878D01*
X310378Y439307D01*
X308510Y440080D01*
D02*
G37*
G36*
X347155Y439210D02*
X345134D01*
X343267Y438437D01*
X341838Y437008D01*
X341064Y435141D01*
Y433120D01*
X341838Y431253D01*
X343267Y429824D01*
X345134Y429050D01*
X347155D01*
X349022Y429824D01*
X350451Y431253D01*
X351224Y433120D01*
Y435141D01*
X350451Y437008D01*
X349022Y438437D01*
X347155Y439210D01*
D02*
G37*
G36*
X404792Y439162D02*
X402771D01*
X400904Y438389D01*
X399475Y436959D01*
X398702Y435092D01*
Y433072D01*
X399475Y431204D01*
X400904Y429775D01*
X402771Y429002D01*
X404792D01*
X406660Y429775D01*
X406772Y429888D01*
X407344Y429317D01*
X409211Y428543D01*
X411232D01*
X413099Y429317D01*
X414528Y430746D01*
X415302Y432613D01*
Y434634D01*
X414528Y436501D01*
X413099Y437930D01*
X411232Y438703D01*
X409211D01*
X407344Y437930D01*
X407231Y437817D01*
X406660Y438389D01*
X404792Y439162D01*
D02*
G37*
G36*
X113606Y429332D02*
X111585D01*
X109718Y428559D01*
X109611Y428452D01*
X109504Y428559D01*
X107637Y429332D01*
X105616D01*
X103749Y428559D01*
X102320Y427130D01*
X101546Y425262D01*
Y423241D01*
X102320Y421374D01*
X103749Y419945D01*
X105616Y419172D01*
X107637D01*
X109504Y419945D01*
X109611Y420052D01*
X109718Y419945D01*
X111585Y419172D01*
X113606D01*
X115473Y419945D01*
X116902Y421374D01*
X117675Y423241D01*
Y425262D01*
X116902Y427130D01*
X115473Y428559D01*
X113606Y429332D01*
D02*
G37*
G36*
X191488Y454253D02*
X189467D01*
X187600Y453479D01*
X186171Y452050D01*
X185397Y450183D01*
Y448162D01*
X186171Y446295D01*
X187113Y445352D01*
X186896Y443888D01*
X186522Y443733D01*
X185093Y442304D01*
X184320Y440437D01*
Y438416D01*
X185093Y436549D01*
X185200Y436442D01*
X185093Y436335D01*
X184320Y434468D01*
Y432447D01*
X185093Y430580D01*
X186522Y429151D01*
X188389Y428377D01*
X190410D01*
X192277Y429151D01*
X193706Y430580D01*
X194480Y432447D01*
Y434468D01*
X193706Y436335D01*
X193599Y436442D01*
X193706Y436549D01*
X194480Y438416D01*
Y440437D01*
X193706Y442304D01*
X192764Y443246D01*
X192981Y444711D01*
X193355Y444866D01*
X194784Y446295D01*
X195557Y448162D01*
Y450183D01*
X194784Y452050D01*
X193355Y453479D01*
X191488Y454253D01*
D02*
G37*
G36*
X833199Y451005D02*
X832876Y450681D01*
X830956Y447808D01*
X829634Y444616D01*
X828960Y441228D01*
Y437772D01*
X829634Y434384D01*
X830956Y431192D01*
X832876Y428319D01*
X833199Y427995D01*
X844704Y439500D01*
X833199Y451005D01*
D02*
G37*
G36*
X859801D02*
X848296Y439500D01*
X859801Y427995D01*
X860124Y428319D01*
X862044Y431192D01*
X863366Y434384D01*
X864040Y437772D01*
Y441228D01*
X863366Y444616D01*
X862044Y447808D01*
X860124Y450681D01*
X859801Y451005D01*
D02*
G37*
G36*
X461216Y437851D02*
X459195D01*
X457328Y437078D01*
X455899Y435649D01*
X455125Y433782D01*
Y431761D01*
X455899Y429894D01*
X457328Y428465D01*
X459195Y427691D01*
X461216D01*
X463083Y428465D01*
X464512Y429894D01*
X465285Y431761D01*
Y433782D01*
X464512Y435649D01*
X463083Y437078D01*
X461216Y437851D01*
D02*
G37*
G36*
X504722Y441292D02*
X502701D01*
X500834Y440518D01*
X499405Y439089D01*
X498632Y437222D01*
Y437071D01*
X498481D01*
X496613Y436298D01*
X495184Y434869D01*
X494411Y433002D01*
Y430981D01*
X495184Y429114D01*
X496613Y427685D01*
X498481Y426911D01*
X500502D01*
X502369Y427685D01*
X503798Y429114D01*
X504571Y430981D01*
Y431132D01*
X504722D01*
X506589Y431905D01*
X508018Y433334D01*
X508792Y435201D01*
Y437222D01*
X508018Y439089D01*
X506589Y440518D01*
X504722Y441292D01*
D02*
G37*
G36*
X846500Y437704D02*
X834995Y426199D01*
X835319Y425876D01*
X838192Y423956D01*
X841384Y422634D01*
X844772Y421960D01*
X848228D01*
X851616Y422634D01*
X854808Y423956D01*
X857681Y425876D01*
X858005Y426199D01*
X846500Y437704D01*
D02*
G37*
G36*
X73909Y417830D02*
X71888D01*
X70021Y417057D01*
X69914Y416950D01*
X69807Y417057D01*
X67940Y417830D01*
X65919D01*
X64052Y417057D01*
X62623Y415628D01*
X61849Y413760D01*
Y411740D01*
X62623Y409872D01*
X64052Y408443D01*
X65919Y407670D01*
X67940D01*
X69807Y408443D01*
X69914Y408550D01*
X70021Y408443D01*
X71888Y407670D01*
X73909D01*
X75776Y408443D01*
X77205Y409872D01*
X77978Y411740D01*
Y413760D01*
X77205Y415628D01*
X75776Y417057D01*
X73909Y417830D01*
D02*
G37*
G36*
X985669Y430412D02*
X983649D01*
X981781Y429639D01*
X980352Y428210D01*
X979579Y426343D01*
Y424322D01*
X980352Y422455D01*
X981781Y421026D01*
X983649Y420252D01*
X983800D01*
Y420101D01*
X984573Y418234D01*
X986002Y416805D01*
X987869Y416032D01*
X989890D01*
X991757Y416805D01*
X993186Y418234D01*
X993960Y420101D01*
Y422122D01*
X993186Y423989D01*
X991757Y425418D01*
X989890Y426192D01*
X989739D01*
Y426343D01*
X988966Y428210D01*
X987537Y429639D01*
X985669Y430412D01*
D02*
G37*
G36*
X468205Y425823D02*
X466184D01*
X464317Y425050D01*
X462888Y423621D01*
X462114Y421754D01*
Y419733D01*
X462888Y417865D01*
X464317Y416436D01*
X466184Y415663D01*
X468205D01*
X470072Y416436D01*
X471501Y417865D01*
X472274Y419733D01*
Y421754D01*
X471501Y423621D01*
X470072Y425050D01*
X468205Y425823D01*
D02*
G37*
G36*
X1030290Y419580D02*
X1028269D01*
X1026402Y418807D01*
X1024973Y417378D01*
X1024199Y415510D01*
Y413490D01*
X1024973Y411622D01*
X1026402Y410193D01*
X1028269Y409420D01*
X1030290D01*
X1032157Y410193D01*
X1033586Y411622D01*
X1034359Y413490D01*
Y415510D01*
X1033586Y417378D01*
X1032157Y418807D01*
X1030290Y419580D01*
D02*
G37*
G36*
X1196481Y411213D02*
X1194460D01*
X1192592Y410439D01*
X1191692Y409539D01*
X1190862Y409151D01*
X1190033Y409539D01*
X1189132Y410439D01*
X1187265Y411213D01*
X1185244D01*
X1183377Y410439D01*
X1181948Y409010D01*
X1181175Y407143D01*
Y405122D01*
X1181948Y403255D01*
X1183377Y401826D01*
X1185244Y401053D01*
X1187265D01*
X1189132Y401826D01*
X1190033Y402727D01*
X1190862Y403114D01*
X1191692Y402727D01*
X1192592Y401826D01*
X1194460Y401053D01*
X1196481D01*
X1198348Y401826D01*
X1199777Y403255D01*
X1200550Y405122D01*
Y407143D01*
X1199777Y409010D01*
X1198348Y410439D01*
X1196481Y411213D01*
D02*
G37*
G36*
X435454Y415905D02*
X433433D01*
X431566Y415132D01*
X430137Y413703D01*
X429364Y411836D01*
Y409815D01*
X430137Y407948D01*
X431566Y406519D01*
X433433Y405745D01*
X435454D01*
X437321Y406519D01*
X438750Y407948D01*
X439524Y409815D01*
Y411836D01*
X438750Y413703D01*
X437321Y415132D01*
X435454Y415905D01*
D02*
G37*
G36*
X557343Y420225D02*
X555322D01*
X553455Y419451D01*
X552026Y418022D01*
X551253Y416155D01*
Y414134D01*
X552026Y412267D01*
X552133Y412160D01*
X552026Y412053D01*
X551253Y410186D01*
Y408165D01*
X552026Y406298D01*
X553455Y404869D01*
X555322Y404096D01*
X557343D01*
X559211Y404869D01*
X560639Y406298D01*
X561413Y408165D01*
Y410186D01*
X560639Y412053D01*
X560533Y412160D01*
X560639Y412267D01*
X561413Y414134D01*
Y416155D01*
X560639Y418022D01*
X559211Y419451D01*
X557343Y420225D01*
D02*
G37*
G36*
X460977Y412679D02*
X458956D01*
X457089Y411905D01*
X455660Y410476D01*
X454887Y408609D01*
Y406588D01*
X455660Y404721D01*
X457089Y403292D01*
X458956Y402519D01*
X460977D01*
X462845Y403292D01*
X464273Y404721D01*
X465047Y406588D01*
Y408609D01*
X464273Y410476D01*
X462845Y411905D01*
X460977Y412679D01*
D02*
G37*
G36*
X306765Y411104D02*
X304744D01*
X302877Y410330D01*
X301448Y408901D01*
X300674Y407034D01*
Y405013D01*
X301448Y403146D01*
X302877Y401717D01*
X304744Y400944D01*
X306765D01*
X308632Y401717D01*
X310061Y403146D01*
X310834Y405013D01*
Y407034D01*
X310061Y408901D01*
X308632Y410330D01*
X306765Y411104D01*
D02*
G37*
G36*
X667040Y415190D02*
X665019D01*
X663152Y414417D01*
X661723Y412988D01*
X660950Y411121D01*
Y409100D01*
X661723Y407233D01*
X661830Y407126D01*
X661723Y407019D01*
X660950Y405152D01*
Y403131D01*
X661723Y401264D01*
X663152Y399835D01*
X665019Y399061D01*
X667040D01*
X668907Y399835D01*
X670336Y401264D01*
X671110Y403131D01*
Y405152D01*
X670336Y407019D01*
X670229Y407126D01*
X670336Y407233D01*
X671110Y409100D01*
Y411121D01*
X670336Y412988D01*
X668907Y414417D01*
X667040Y415190D01*
D02*
G37*
G36*
X630540Y426200D02*
X628519D01*
X626652Y425427D01*
X625223Y423998D01*
X624450Y422130D01*
Y420109D01*
X625223Y418242D01*
X626652Y416813D01*
X628519Y416040D01*
X628670D01*
Y415889D01*
X629444Y414022D01*
X630873Y412593D01*
X632740Y411819D01*
X634479D01*
X635053Y410950D01*
X635155Y410646D01*
X634420Y408871D01*
Y406850D01*
X635193Y404983D01*
X635300Y404876D01*
X635193Y404769D01*
X634420Y402902D01*
Y400881D01*
X635193Y399014D01*
X636622Y397584D01*
X638489Y396811D01*
X640510D01*
X642378Y397584D01*
X643807Y399014D01*
X644580Y400881D01*
Y402902D01*
X643807Y404769D01*
X643700Y404876D01*
X643807Y404983D01*
X644580Y406850D01*
Y408871D01*
X643807Y410738D01*
X642378Y412167D01*
X640510Y412940D01*
X638771D01*
X638197Y413809D01*
X638095Y414114D01*
X638830Y415889D01*
Y417910D01*
X638057Y419777D01*
X636628Y421206D01*
X634761Y421979D01*
X634609D01*
Y422130D01*
X633836Y423998D01*
X632407Y425427D01*
X630540Y426200D01*
D02*
G37*
G36*
X515481Y407610D02*
X513460D01*
X511593Y406836D01*
X510164Y405407D01*
X509390Y403540D01*
Y401519D01*
X510164Y399652D01*
X511593Y398223D01*
X513460Y397450D01*
X513611D01*
Y397298D01*
X514384Y395431D01*
X515813Y394002D01*
X517681Y393229D01*
X519702D01*
X521569Y394002D01*
X522998Y395431D01*
X523771Y397298D01*
Y399319D01*
X522998Y401186D01*
X521569Y402616D01*
X519702Y403389D01*
X519550D01*
Y403540D01*
X518777Y405407D01*
X517348Y406836D01*
X515481Y407610D01*
D02*
G37*
G36*
X305165Y399648D02*
X303144D01*
X301277Y398875D01*
X299848Y397446D01*
X299074Y395578D01*
Y393558D01*
X299848Y391690D01*
X301277Y390261D01*
X303144Y389488D01*
X305165D01*
X307032Y390261D01*
X308461Y391690D01*
X309235Y393558D01*
Y395578D01*
X308461Y397446D01*
X307032Y398875D01*
X305165Y399648D01*
D02*
G37*
G36*
X54608Y410270D02*
X52587D01*
X50720Y409497D01*
X49291Y408068D01*
X48518Y406200D01*
Y404180D01*
X49291Y402313D01*
X50720Y400883D01*
X51769Y400449D01*
Y399074D01*
X51122Y398807D01*
X49693Y397378D01*
X48920Y395510D01*
Y393489D01*
X49693Y391622D01*
X51122Y390193D01*
X52990Y389420D01*
X55010D01*
X56878Y390193D01*
X58307Y391622D01*
X59080Y393489D01*
Y395510D01*
X58307Y397378D01*
X56878Y398807D01*
X55829Y399241D01*
Y400616D01*
X56475Y400883D01*
X57904Y402313D01*
X58678Y404180D01*
Y406200D01*
X57904Y408068D01*
X56475Y409497D01*
X54608Y410270D01*
D02*
G37*
G36*
X1026011Y397580D02*
X1023989D01*
X1022122Y396807D01*
X1020693Y395378D01*
X1019920Y393511D01*
Y391489D01*
X1020693Y389622D01*
X1022122Y388193D01*
X1023989Y387420D01*
X1026011D01*
X1027878Y388193D01*
X1029307Y389622D01*
X1030080Y391489D01*
Y393511D01*
X1029307Y395378D01*
X1027878Y396807D01*
X1026011Y397580D01*
D02*
G37*
G36*
X972641Y397884D02*
X970620D01*
X968753Y397111D01*
X967324Y395682D01*
X966551Y393815D01*
Y391794D01*
X967324Y389927D01*
X968753Y388498D01*
X970620Y387724D01*
X970771D01*
Y387573D01*
X971545Y385706D01*
X972974Y384277D01*
X974841Y383504D01*
X976862D01*
X978729Y384277D01*
X980158Y385706D01*
X980931Y387573D01*
Y389594D01*
X980158Y391461D01*
X978729Y392890D01*
X976862Y393664D01*
X976711D01*
Y393815D01*
X975937Y395682D01*
X974508Y397111D01*
X972641Y397884D01*
D02*
G37*
G36*
X469292Y403514D02*
X467271D01*
X465404Y402741D01*
X463975Y401312D01*
X463202Y399445D01*
Y397424D01*
X463436Y396860D01*
X462730Y395804D01*
X462247D01*
X460380Y395030D01*
X458951Y393601D01*
X458178Y391734D01*
Y389713D01*
X458951Y387846D01*
X458973Y387824D01*
X458895Y386106D01*
X458174Y385386D01*
X457401Y383518D01*
Y381497D01*
X458174Y379630D01*
X459603Y378201D01*
X461470Y377428D01*
X463491D01*
X465358Y378201D01*
X466787Y379630D01*
X467561Y381497D01*
Y383518D01*
X467534Y383582D01*
X468611Y384302D01*
X468784Y384129D01*
X470651Y383355D01*
X472672D01*
X474539Y384129D01*
X475968Y385558D01*
X476741Y387425D01*
Y389446D01*
X475968Y391313D01*
X474539Y392742D01*
X472672Y393515D01*
X472344D01*
X471818Y394785D01*
X472589Y395556D01*
X473362Y397424D01*
Y399445D01*
X472589Y401312D01*
X471160Y402741D01*
X469292Y403514D01*
D02*
G37*
G36*
X116007Y395185D02*
X115363D01*
Y381915D01*
X128632D01*
Y382559D01*
X127642Y386257D01*
X125727Y389573D01*
X123020Y392280D01*
X119705Y394194D01*
X116007Y395185D01*
D02*
G37*
G36*
X112823D02*
X112178D01*
X108480Y394194D01*
X105165Y392280D01*
X102458Y389573D01*
X100543Y386257D01*
X99552Y382559D01*
Y381915D01*
X112823D01*
Y395185D01*
D02*
G37*
G36*
X1141414D02*
X1140770D01*
Y381915D01*
X1154040D01*
Y382559D01*
X1153049Y386257D01*
X1151135Y389573D01*
X1148428Y392280D01*
X1145112Y394194D01*
X1141414Y395185D01*
D02*
G37*
G36*
X1138230D02*
X1137586D01*
X1133888Y394194D01*
X1130572Y392280D01*
X1127865Y389573D01*
X1125951Y386257D01*
X1124960Y382559D01*
Y381915D01*
X1138230D01*
Y395185D01*
D02*
G37*
G36*
X437483Y387878D02*
X435463D01*
X433595Y387105D01*
X432166Y385676D01*
X431393Y383809D01*
Y381788D01*
X432166Y379920D01*
X433595Y378491D01*
X435463Y377718D01*
X437483D01*
X439351Y378491D01*
X440780Y379920D01*
X441553Y381788D01*
Y383809D01*
X440780Y385676D01*
X439351Y387105D01*
X437483Y387878D01*
D02*
G37*
G36*
X304843Y383915D02*
X302822D01*
X300955Y383142D01*
X299526Y381712D01*
X298753Y379845D01*
Y377824D01*
X299526Y375957D01*
X300955Y374528D01*
X302822Y373755D01*
X304843D01*
X306710Y374528D01*
X308139Y375957D01*
X308913Y377824D01*
Y379845D01*
X308139Y381712D01*
X306710Y383142D01*
X304843Y383915D01*
D02*
G37*
G36*
X553887Y385694D02*
X551866D01*
X549999Y384920D01*
X548570Y383491D01*
X547797Y381624D01*
Y379603D01*
X548570Y377736D01*
X549999Y376307D01*
X550609Y376054D01*
X550312Y375337D01*
Y373316D01*
X551085Y371449D01*
X552514Y370020D01*
X554381Y369246D01*
X556402D01*
X558269Y370020D01*
X559698Y371449D01*
X560471Y373316D01*
Y375337D01*
X559698Y377204D01*
X558269Y378633D01*
X557659Y378885D01*
X557957Y379603D01*
Y381624D01*
X557183Y383491D01*
X555754Y384920D01*
X553887Y385694D01*
D02*
G37*
G36*
X471962Y379062D02*
X469941D01*
X468074Y378288D01*
X466645Y376859D01*
X465872Y374992D01*
Y372971D01*
X466645Y371104D01*
X468074Y369675D01*
X469941Y368902D01*
X471962D01*
X473829Y369675D01*
X475258Y371104D01*
X476032Y372971D01*
Y374992D01*
X475258Y376859D01*
X473829Y378288D01*
X471962Y379062D01*
D02*
G37*
G36*
X273961Y386901D02*
X271940D01*
X270073Y386128D01*
X268644Y384699D01*
X267871Y382832D01*
Y380811D01*
X268644Y378944D01*
X270073Y377515D01*
X271659Y376858D01*
X271710Y376279D01*
X271610Y375568D01*
X269900Y374860D01*
X268471Y373431D01*
X267697Y371563D01*
Y369543D01*
X268471Y367675D01*
X269900Y366246D01*
X271767Y365473D01*
X273788D01*
X275655Y366246D01*
X277084Y367675D01*
X277857Y369543D01*
Y371563D01*
X277084Y373431D01*
X275655Y374860D01*
X274070Y375516D01*
X274018Y376095D01*
X274118Y376806D01*
X275828Y377515D01*
X277257Y378944D01*
X278031Y380811D01*
Y382832D01*
X277257Y384699D01*
X275828Y386128D01*
X273961Y386901D01*
D02*
G37*
G36*
X1030260Y381830D02*
X1028240D01*
X1026372Y381057D01*
X1024943Y379628D01*
X1024170Y377761D01*
Y375740D01*
X1024943Y373872D01*
X1025816Y373000D01*
X1024443Y371628D01*
X1023670Y369761D01*
Y367739D01*
X1024443Y365872D01*
X1025872Y364443D01*
X1027739Y363670D01*
X1029761D01*
X1031628Y364443D01*
X1033057Y365872D01*
X1033830Y367739D01*
Y369761D01*
X1033057Y371628D01*
X1032184Y372500D01*
X1033557Y373872D01*
X1034330Y375740D01*
Y377761D01*
X1033557Y379628D01*
X1032128Y381057D01*
X1030260Y381830D01*
D02*
G37*
G36*
X1004726Y378547D02*
X1002705D01*
X1000838Y377774D01*
X999408Y376345D01*
X998635Y374478D01*
Y372516D01*
X996673D01*
X994806Y371742D01*
X993377Y370313D01*
X992603Y368446D01*
Y366425D01*
X993377Y364558D01*
X994806Y363129D01*
X996673Y362356D01*
X998694D01*
X1000561Y363129D01*
X1001990Y364558D01*
X1002763Y366425D01*
Y368387D01*
X1004726D01*
X1005150Y368563D01*
X1006420Y367715D01*
Y366990D01*
X1007193Y365122D01*
X1008622Y363693D01*
X1010490Y362920D01*
X1012511D01*
X1014378Y363693D01*
X1015807Y365122D01*
X1016580Y366990D01*
Y369011D01*
X1015807Y370878D01*
X1014378Y372307D01*
X1012511Y373080D01*
X1010490D01*
X1010065Y372904D01*
X1008795Y373753D01*
Y374478D01*
X1008022Y376345D01*
X1006593Y377774D01*
X1004726Y378547D01*
D02*
G37*
G36*
X1212086Y377590D02*
X1209114D01*
X1206242Y376821D01*
X1203668Y375334D01*
X1201566Y373232D01*
X1200079Y370658D01*
X1199310Y367786D01*
Y364814D01*
X1200079Y361942D01*
X1201566Y359368D01*
X1203668Y357266D01*
X1206242Y355779D01*
X1209114Y355010D01*
X1212086D01*
X1214958Y355779D01*
X1217532Y357266D01*
X1219634Y359368D01*
X1221121Y361942D01*
X1221890Y364814D01*
Y367786D01*
X1221121Y370658D01*
X1219634Y373232D01*
X1217532Y375334D01*
X1214958Y376821D01*
X1212086Y377590D01*
D02*
G37*
G36*
X44479D02*
X41506D01*
X38635Y376821D01*
X36060Y375334D01*
X33958Y373232D01*
X32472Y370658D01*
X31702Y367786D01*
Y364814D01*
X32472Y361942D01*
X33958Y359368D01*
X36060Y357266D01*
X38635Y355779D01*
X41506Y355010D01*
X44479D01*
X47350Y355779D01*
X49925Y357266D01*
X52027Y359368D01*
X53513Y361942D01*
X54282Y364814D01*
Y367786D01*
X53513Y370658D01*
X52027Y373232D01*
X49925Y375334D01*
X47350Y376821D01*
X44479Y377590D01*
D02*
G37*
G36*
X305765Y364495D02*
X303745D01*
X301877Y363722D01*
X300448Y362293D01*
X299675Y360426D01*
Y358405D01*
X300448Y356538D01*
X301877Y355108D01*
X303745Y354335D01*
X305765D01*
X307633Y355108D01*
X309062Y356538D01*
X309835Y358405D01*
Y360426D01*
X309062Y362293D01*
X307633Y363722D01*
X305765Y364495D01*
D02*
G37*
G36*
X557526Y367085D02*
X555505D01*
X553638Y366311D01*
X552209Y364883D01*
X551436Y363015D01*
Y360994D01*
X552209Y359127D01*
X553272Y358064D01*
X552250Y357042D01*
X551476Y355175D01*
Y353154D01*
X551482Y353139D01*
X551456Y353101D01*
X550458Y352294D01*
X548938Y352924D01*
X546917D01*
X545050Y352150D01*
X543621Y350721D01*
X542847Y348854D01*
Y346833D01*
X543621Y344966D01*
X545050Y343537D01*
X546917Y342763D01*
X548938D01*
X550805Y343537D01*
X552234Y344966D01*
X553007Y346833D01*
Y348854D01*
X553001Y348868D01*
X553027Y348907D01*
X554026Y349714D01*
X555546Y349084D01*
X557567D01*
X559434Y349858D01*
X560863Y351287D01*
X561636Y353154D01*
Y355175D01*
X560863Y357042D01*
X559800Y358105D01*
X560822Y359127D01*
X561596Y360994D01*
Y363015D01*
X560822Y364883D01*
X559393Y366311D01*
X557526Y367085D01*
D02*
G37*
G36*
X1107822Y367190D02*
X1105178D01*
X1102625Y366506D01*
X1100335Y365184D01*
X1098466Y363315D01*
X1097144Y361025D01*
X1096460Y358472D01*
Y355828D01*
X1097144Y353275D01*
X1098466Y350985D01*
X1100335Y349116D01*
X1102625Y347794D01*
X1105178Y347110D01*
X1107822D01*
X1110375Y347794D01*
X1112665Y349116D01*
X1114534Y350985D01*
X1115856Y353275D01*
X1116540Y355828D01*
Y358472D01*
X1115856Y361025D01*
X1114534Y363315D01*
X1112665Y365184D01*
X1110375Y366506D01*
X1107822Y367190D01*
D02*
G37*
G36*
X173814D02*
X171171D01*
X168617Y366506D01*
X166328Y365184D01*
X164459Y363315D01*
X163137Y361025D01*
X162453Y358472D01*
Y355828D01*
X163137Y353275D01*
X164459Y350985D01*
X166328Y349116D01*
X168617Y347794D01*
X171171Y347110D01*
X173814D01*
X176368Y347794D01*
X178657Y349116D01*
X180527Y350985D01*
X181848Y353275D01*
X182533Y355828D01*
Y358472D01*
X181848Y361025D01*
X180527Y363315D01*
X178657Y365184D01*
X176368Y366506D01*
X173814Y367190D01*
D02*
G37*
G36*
X1154040Y379375D02*
X1139500D01*
X1124960D01*
Y378731D01*
X1125951Y375033D01*
X1127865Y371717D01*
X1129898Y369685D01*
X1129513Y368273D01*
X1127335Y367689D01*
X1124755Y366200D01*
X1122650Y364095D01*
X1121161Y361516D01*
X1120390Y358639D01*
Y355661D01*
X1121161Y352785D01*
X1122650Y350205D01*
X1124755Y348100D01*
X1127335Y346611D01*
X1130211Y345840D01*
X1133189D01*
X1136066Y346611D01*
X1138644Y348100D01*
X1140750Y350205D01*
X1142239Y352785D01*
X1143010Y355661D01*
Y358639D01*
X1142239Y361516D01*
X1140750Y364095D01*
X1139913Y364932D01*
X1140399Y366105D01*
X1141414D01*
X1145112Y367096D01*
X1148428Y369010D01*
X1151135Y371717D01*
X1153049Y375033D01*
X1154040Y378731D01*
Y379375D01*
D02*
G37*
G36*
X128632Y379375D02*
X114093D01*
X99552D01*
Y378731D01*
X100543Y375033D01*
X102458Y371717D01*
X105165Y369010D01*
X108480Y367096D01*
X112178Y366105D01*
X113193D01*
X113679Y364932D01*
X112842Y364095D01*
X111353Y361516D01*
X110583Y358639D01*
Y355661D01*
X111353Y352785D01*
X112842Y350205D01*
X114948Y348100D01*
X117527Y346611D01*
X120403Y345840D01*
X123382D01*
X126258Y346611D01*
X128837Y348100D01*
X130943Y350205D01*
X132432Y352785D01*
X133202Y355661D01*
Y358639D01*
X132432Y361516D01*
X130943Y364095D01*
X128837Y366200D01*
X126258Y367689D01*
X124079Y368273D01*
X123695Y369685D01*
X125727Y371717D01*
X127642Y375033D01*
X128632Y378731D01*
Y379375D01*
D02*
G37*
G36*
X305165Y351648D02*
X303144D01*
X301277Y350875D01*
X299848Y349446D01*
X299074Y347578D01*
Y345558D01*
X299848Y343690D01*
X301277Y342261D01*
X303144Y341488D01*
X305165D01*
X307032Y342261D01*
X308461Y343690D01*
X309235Y345558D01*
Y347578D01*
X308461Y349446D01*
X307032Y350875D01*
X305165Y351648D01*
D02*
G37*
G36*
X1171826Y375690D02*
X1168174D01*
X1164592Y374977D01*
X1161218Y373580D01*
X1158181Y371551D01*
X1155599Y368969D01*
X1153570Y365932D01*
X1152172Y362558D01*
X1151460Y358976D01*
Y355324D01*
X1152172Y351742D01*
X1153570Y348368D01*
X1155599Y345331D01*
X1158181Y342749D01*
X1161218Y340720D01*
X1164592Y339323D01*
X1168174Y338610D01*
X1171826D01*
X1175408Y339323D01*
X1178782Y340720D01*
X1181819Y342749D01*
X1184401Y345331D01*
X1186430Y348368D01*
X1187828Y351742D01*
X1188540Y355324D01*
Y358976D01*
X1187828Y362558D01*
X1186430Y365932D01*
X1184401Y368969D01*
X1181819Y371551D01*
X1178782Y373580D01*
X1175408Y374977D01*
X1171826Y375690D01*
D02*
G37*
G36*
X85419D02*
X81766D01*
X78185Y374977D01*
X74811Y373580D01*
X71774Y371551D01*
X69191Y368969D01*
X67162Y365932D01*
X65765Y362558D01*
X65052Y358976D01*
Y355324D01*
X65765Y351742D01*
X67162Y348368D01*
X69191Y345331D01*
X71774Y342749D01*
X74811Y340720D01*
X78185Y339323D01*
X81766Y338610D01*
X85419D01*
X89000Y339323D01*
X92374Y340720D01*
X95411Y342749D01*
X97993Y345331D01*
X100022Y348368D01*
X101420Y351742D01*
X102133Y355324D01*
Y358976D01*
X101420Y362558D01*
X100022Y365932D01*
X97993Y368969D01*
X95411Y371551D01*
X92374Y373580D01*
X89000Y374977D01*
X85419Y375690D01*
D02*
G37*
G36*
X1082422Y354490D02*
X1079778D01*
X1077225Y353806D01*
X1074935Y352484D01*
X1073066Y350615D01*
X1071744Y348325D01*
X1071060Y345772D01*
Y343128D01*
X1071744Y340575D01*
X1073066Y338285D01*
X1074935Y336416D01*
X1077225Y335094D01*
X1079778Y334410D01*
X1082422D01*
X1084975Y335094D01*
X1087265Y336416D01*
X1089134Y338285D01*
X1090456Y340575D01*
X1091140Y343128D01*
Y345772D01*
X1090456Y348325D01*
X1089134Y350615D01*
X1087265Y352484D01*
X1084975Y353806D01*
X1082422Y354490D01*
D02*
G37*
G36*
X148414D02*
X145771D01*
X143217Y353806D01*
X140928Y352484D01*
X139059Y350615D01*
X137737Y348325D01*
X137052Y345772D01*
Y343128D01*
X137737Y340575D01*
X139059Y338285D01*
X140928Y336416D01*
X143217Y335094D01*
X145771Y334410D01*
X148414D01*
X150968Y335094D01*
X153257Y336416D01*
X155126Y338285D01*
X156448Y340575D01*
X157133Y343128D01*
Y345772D01*
X156448Y348325D01*
X155126Y350615D01*
X153257Y352484D01*
X150968Y353806D01*
X148414Y354490D01*
D02*
G37*
G36*
X1212086Y352190D02*
X1209114D01*
X1206242Y351421D01*
X1203668Y349934D01*
X1201566Y347832D01*
X1200079Y345258D01*
X1199310Y342386D01*
Y339414D01*
X1200079Y336542D01*
X1201566Y333968D01*
X1203668Y331866D01*
X1206242Y330379D01*
X1209114Y329610D01*
X1212086D01*
X1214958Y330379D01*
X1217532Y331866D01*
X1219634Y333968D01*
X1221121Y336542D01*
X1221890Y339414D01*
Y342386D01*
X1221121Y345258D01*
X1219634Y347832D01*
X1217532Y349934D01*
X1214958Y351421D01*
X1212086Y352190D01*
D02*
G37*
G36*
X44479D02*
X41506D01*
X38635Y351421D01*
X36060Y349934D01*
X33958Y347832D01*
X32472Y345258D01*
X31702Y342386D01*
Y339414D01*
X32472Y336542D01*
X33958Y333968D01*
X36060Y331866D01*
X38635Y330379D01*
X41506Y329610D01*
X44479D01*
X47350Y330379D01*
X49925Y331866D01*
X52027Y333968D01*
X53513Y336542D01*
X54282Y339414D01*
Y342386D01*
X53513Y345258D01*
X52027Y347832D01*
X49925Y349934D01*
X47350Y351421D01*
X44479Y352190D01*
D02*
G37*
G36*
X550586Y340566D02*
X548565D01*
X546698Y339793D01*
X545269Y338364D01*
X544496Y336497D01*
Y334476D01*
X545269Y332609D01*
X546698Y331180D01*
X548565Y330406D01*
X549402D01*
Y329822D01*
X550175Y327955D01*
X551604Y326526D01*
X553472Y325752D01*
X555493D01*
X557360Y326526D01*
X558789Y327955D01*
X559562Y329822D01*
Y331843D01*
X558789Y333710D01*
X557360Y335139D01*
X555493Y335913D01*
X554655D01*
Y336497D01*
X553882Y338364D01*
X552453Y339793D01*
X550586Y340566D01*
D02*
G37*
G36*
X434859Y335854D02*
X432838D01*
X430971Y335081D01*
X429542Y333652D01*
X428768Y331785D01*
Y329764D01*
X429542Y327897D01*
X430971Y326468D01*
X432838Y325695D01*
X434859D01*
X436726Y326468D01*
X438155Y327897D01*
X438928Y329764D01*
Y331785D01*
X438155Y333652D01*
X436726Y335081D01*
X434859Y335854D01*
D02*
G37*
G36*
X1107822Y341790D02*
X1105178D01*
X1102625Y341106D01*
X1100335Y339784D01*
X1098466Y337915D01*
X1097144Y335625D01*
X1096460Y333072D01*
Y330428D01*
X1097144Y327875D01*
X1098466Y325585D01*
X1100335Y323716D01*
X1102625Y322394D01*
X1105178Y321710D01*
X1107822D01*
X1110375Y322394D01*
X1112665Y323716D01*
X1114534Y325585D01*
X1115856Y327875D01*
X1116540Y330428D01*
Y333072D01*
X1115856Y335625D01*
X1114534Y337915D01*
X1112665Y339784D01*
X1110375Y341106D01*
X1107822Y341790D01*
D02*
G37*
G36*
X173814D02*
X171171D01*
X168617Y341106D01*
X166328Y339784D01*
X164459Y337915D01*
X163137Y335625D01*
X162453Y333072D01*
Y330428D01*
X163137Y327875D01*
X164459Y325585D01*
X166328Y323716D01*
X168617Y322394D01*
X171171Y321710D01*
X173814D01*
X176368Y322394D01*
X178657Y323716D01*
X180527Y325585D01*
X181848Y327875D01*
X182533Y330428D01*
Y333072D01*
X181848Y335625D01*
X180527Y337915D01*
X178657Y339784D01*
X176368Y341106D01*
X173814Y341790D01*
D02*
G37*
G36*
X512724Y330828D02*
X510703D01*
X508836Y330055D01*
X507407Y328626D01*
X506634Y326759D01*
Y324738D01*
X507407Y322870D01*
X508836Y321441D01*
X510703Y320668D01*
X512724D01*
X514591Y321441D01*
X516020Y322870D01*
X516794Y324738D01*
Y326759D01*
X516020Y328626D01*
X514591Y330055D01*
X512724Y330828D01*
D02*
G37*
G36*
X1145889Y343060D02*
X1142911D01*
X1140034Y342289D01*
X1137456Y340800D01*
X1135350Y338694D01*
X1133861Y336115D01*
X1133090Y333239D01*
Y330261D01*
X1133861Y327384D01*
X1135350Y324805D01*
X1137456Y322700D01*
X1140034Y321211D01*
X1142911Y320440D01*
X1145889D01*
X1148765Y321211D01*
X1151345Y322700D01*
X1153450Y324805D01*
X1154939Y327384D01*
X1155710Y330261D01*
Y333239D01*
X1154939Y336115D01*
X1153450Y338694D01*
X1151345Y340800D01*
X1148765Y342289D01*
X1145889Y343060D01*
D02*
G37*
G36*
X110681D02*
X107704D01*
X104827Y342289D01*
X102248Y340800D01*
X100142Y338694D01*
X98653Y336115D01*
X97882Y333239D01*
Y330261D01*
X98653Y327384D01*
X100142Y324805D01*
X102248Y322700D01*
X104827Y321211D01*
X107704Y320440D01*
X110681D01*
X113558Y321211D01*
X116137Y322700D01*
X118243Y324805D01*
X119732Y327384D01*
X120503Y330261D01*
Y333239D01*
X119732Y336115D01*
X118243Y338694D01*
X116137Y340800D01*
X113558Y342289D01*
X110681Y343060D01*
D02*
G37*
G36*
X471904Y329258D02*
X469883D01*
X468016Y328484D01*
X466587Y327055D01*
X465814Y325188D01*
Y323167D01*
X466587Y321300D01*
X468016Y319871D01*
X469883Y319098D01*
X471904D01*
X473771Y319871D01*
X475200Y321300D01*
X475974Y323167D01*
Y325188D01*
X475200Y327055D01*
X473771Y328484D01*
X471904Y329258D01*
D02*
G37*
G36*
X930672Y326894D02*
X928652D01*
X926784Y326121D01*
X925355Y324692D01*
X924582Y322825D01*
Y320804D01*
X925355Y318937D01*
X926784Y317508D01*
X928652Y316735D01*
X930672D01*
X932540Y317508D01*
X933969Y318937D01*
X934742Y320804D01*
Y322825D01*
X933969Y324692D01*
X932540Y326121D01*
X930672Y326894D01*
D02*
G37*
G36*
X956485Y323667D02*
X954464D01*
X952597Y322894D01*
X951168Y321465D01*
X950395Y319598D01*
Y317577D01*
X951168Y315710D01*
X952597Y314281D01*
X954464Y313507D01*
X956485D01*
X958352Y314281D01*
X959781Y315710D01*
X960555Y317577D01*
Y319598D01*
X959781Y321465D01*
X958352Y322894D01*
X956485Y323667D01*
D02*
G37*
G36*
X376813Y311804D02*
X374792D01*
X372925Y311030D01*
X371899Y310004D01*
X370949Y310954D01*
X369082Y311727D01*
X367061D01*
X365194Y310954D01*
X363765Y309525D01*
X362992Y307657D01*
Y305637D01*
X363765Y303769D01*
X365194Y302340D01*
X367061Y301567D01*
X369082D01*
X370949Y302340D01*
X371976Y303367D01*
X372925Y302417D01*
X374792Y301644D01*
X376813D01*
X378680Y302417D01*
X380109Y303846D01*
X380883Y305713D01*
Y307734D01*
X380109Y309601D01*
X378680Y311030D01*
X376813Y311804D01*
D02*
G37*
G36*
X304696Y319332D02*
X302675D01*
X300807Y318559D01*
X299379Y317130D01*
X298605Y315263D01*
Y313242D01*
X299379Y311375D01*
X300807Y309946D01*
X302675Y309172D01*
X304696D01*
X306563Y309946D01*
X307992Y311375D01*
X308765Y313242D01*
Y315263D01*
X307992Y317130D01*
X306563Y318559D01*
X304696Y319332D01*
D02*
G37*
G36*
X1082422Y329090D02*
X1079778D01*
X1077225Y328406D01*
X1074935Y327084D01*
X1073066Y325215D01*
X1071744Y322925D01*
X1071060Y320372D01*
Y317728D01*
X1071744Y315175D01*
X1073066Y312885D01*
X1074935Y311016D01*
X1077225Y309694D01*
X1079778Y309010D01*
X1082422D01*
X1084975Y309694D01*
X1087265Y311016D01*
X1089134Y312885D01*
X1090456Y315175D01*
X1091140Y317728D01*
Y320372D01*
X1090456Y322925D01*
X1089134Y325215D01*
X1087265Y327084D01*
X1084975Y328406D01*
X1082422Y329090D01*
D02*
G37*
G36*
X148414D02*
X145771D01*
X143217Y328406D01*
X140928Y327084D01*
X139059Y325215D01*
X137737Y322925D01*
X137052Y320372D01*
Y317728D01*
X137737Y315175D01*
X139059Y312885D01*
X140928Y311016D01*
X143217Y309694D01*
X145771Y309010D01*
X148414D01*
X150968Y309694D01*
X153257Y311016D01*
X155126Y312885D01*
X156448Y315175D01*
X157133Y317728D01*
Y320372D01*
X156448Y322925D01*
X155126Y325215D01*
X153257Y327084D01*
X150968Y328406D01*
X148414Y329090D01*
D02*
G37*
G36*
X325686Y310690D02*
X323665D01*
X321798Y309916D01*
X320369Y308487D01*
X319877Y307301D01*
X318503D01*
X318057Y308378D01*
X316628Y309807D01*
X314760Y310580D01*
X312740D01*
X310872Y309807D01*
X309443Y308378D01*
X308670Y306511D01*
Y304489D01*
X309443Y302622D01*
X310872Y301193D01*
X312740Y300420D01*
X314760D01*
X316628Y301193D01*
X318057Y302622D01*
X318548Y303809D01*
X319923D01*
X320369Y302732D01*
X321798Y301303D01*
X323665Y300530D01*
X325686D01*
X327553Y301303D01*
X327600Y301350D01*
X328222Y300728D01*
X330089Y299955D01*
X332110D01*
X333977Y300728D01*
X335406Y302157D01*
X336180Y304024D01*
Y306045D01*
X335406Y307913D01*
X333977Y309342D01*
X332110Y310115D01*
X330089D01*
X328222Y309342D01*
X328175Y309294D01*
X327553Y309916D01*
X325686Y310690D01*
D02*
G37*
G36*
X410241Y311991D02*
X408220D01*
X406353Y311218D01*
X404924Y309789D01*
X404151Y307922D01*
Y305901D01*
X404924Y304034D01*
X406353Y302604D01*
X408220Y301831D01*
X410241D01*
X412108Y302604D01*
X413537Y304034D01*
X414311Y305901D01*
Y307922D01*
X413537Y309789D01*
X412108Y311218D01*
X410241Y311991D01*
D02*
G37*
G36*
X355952Y311788D02*
X353931D01*
X352064Y311014D01*
X350635Y309585D01*
X349862Y307718D01*
Y305697D01*
X350635Y303830D01*
X352064Y302401D01*
X353931Y301628D01*
X355952D01*
X357819Y302401D01*
X359248Y303830D01*
X360022Y305697D01*
Y307718D01*
X359248Y309585D01*
X357819Y311014D01*
X355952Y311788D01*
D02*
G37*
G36*
X396515Y310495D02*
X394494D01*
X392627Y309722D01*
X391198Y308293D01*
X390424Y306426D01*
Y304405D01*
X391198Y302538D01*
X392627Y301109D01*
X394494Y300335D01*
X396515D01*
X398382Y301109D01*
X399811Y302538D01*
X400584Y304405D01*
Y306426D01*
X399811Y308293D01*
X398382Y309722D01*
X396515Y310495D01*
D02*
G37*
G36*
X344258Y310385D02*
X342238D01*
X340370Y309612D01*
X338941Y308183D01*
X338168Y306316D01*
Y304295D01*
X338941Y302428D01*
X340370Y300998D01*
X342238Y300225D01*
X344258D01*
X346126Y300998D01*
X347555Y302428D01*
X348328Y304295D01*
Y306316D01*
X347555Y308183D01*
X346126Y309612D01*
X344258Y310385D01*
D02*
G37*
G36*
X1107822Y316390D02*
X1105178D01*
X1102625Y315706D01*
X1100335Y314384D01*
X1098466Y312515D01*
X1097144Y310225D01*
X1096460Y307672D01*
Y305028D01*
X1097144Y302475D01*
X1098466Y300185D01*
X1100335Y298316D01*
X1102625Y296994D01*
X1105178Y296310D01*
X1107822D01*
X1110375Y296994D01*
X1112665Y298316D01*
X1114534Y300185D01*
X1115856Y302475D01*
X1116540Y305028D01*
Y307672D01*
X1115856Y310225D01*
X1114534Y312515D01*
X1112665Y314384D01*
X1110375Y315706D01*
X1107822Y316390D01*
D02*
G37*
G36*
X173814D02*
X171171D01*
X168617Y315706D01*
X166328Y314384D01*
X164459Y312515D01*
X163137Y310225D01*
X162453Y307672D01*
Y305028D01*
X163137Y302475D01*
X164459Y300185D01*
X166328Y298316D01*
X168617Y296994D01*
X171171Y296310D01*
X173814D01*
X176368Y296994D01*
X178657Y298316D01*
X180527Y300185D01*
X181848Y302475D01*
X182533Y305028D01*
Y307672D01*
X181848Y310225D01*
X180527Y312515D01*
X178657Y314384D01*
X176368Y315706D01*
X173814Y316390D01*
D02*
G37*
G36*
X958369Y289330D02*
X956348D01*
X954481Y288557D01*
X954374Y288450D01*
X954268Y288557D01*
X952400Y289330D01*
X950379D01*
X948512Y288557D01*
X947083Y287128D01*
X946310Y285261D01*
Y283240D01*
X947083Y281372D01*
X948512Y279943D01*
X950379Y279170D01*
X952400D01*
X954268Y279943D01*
X954374Y280050D01*
X954481Y279943D01*
X956348Y279170D01*
X958369D01*
X960237Y279943D01*
X961665Y281372D01*
X962439Y283240D01*
Y285261D01*
X961665Y287128D01*
X960237Y288557D01*
X958369Y289330D01*
D02*
G37*
G36*
X288510Y295080D02*
X286490D01*
X284622Y294307D01*
X283193Y292878D01*
X282420Y291010D01*
Y288990D01*
X283193Y287122D01*
X284622Y285693D01*
X286490Y284920D01*
X288510D01*
X290378Y285693D01*
X291807Y287122D01*
X292580Y288990D01*
Y291010D01*
X291807Y292878D01*
X290378Y294307D01*
X288510Y295080D01*
D02*
G37*
G36*
X446586Y300704D02*
X444382D01*
X442346Y299860D01*
X440788Y298302D01*
X439944Y296266D01*
Y295332D01*
X438547D01*
X436511Y294488D01*
X434953Y292930D01*
X434109Y290894D01*
Y288690D01*
X434953Y286654D01*
X436511Y285095D01*
X438547Y284252D01*
X440751D01*
X442787Y285095D01*
X444346Y286654D01*
X445189Y288690D01*
Y289624D01*
X446586D01*
X448623Y290467D01*
X450181Y292026D01*
X451024Y294062D01*
Y296266D01*
X450181Y298302D01*
X448623Y299860D01*
X446586Y300704D01*
D02*
G37*
G36*
X1082422Y303690D02*
X1079778D01*
X1077225Y303006D01*
X1074935Y301684D01*
X1073066Y299815D01*
X1071744Y297525D01*
X1071060Y294972D01*
Y292328D01*
X1071744Y289775D01*
X1073066Y287485D01*
X1074935Y285616D01*
X1077225Y284294D01*
X1079778Y283610D01*
X1082422D01*
X1084975Y284294D01*
X1087265Y285616D01*
X1089134Y287485D01*
X1090456Y289775D01*
X1091140Y292328D01*
Y294972D01*
X1090456Y297525D01*
X1089134Y299815D01*
X1087265Y301684D01*
X1084975Y303006D01*
X1082422Y303690D01*
D02*
G37*
G36*
X148414D02*
X145771D01*
X143217Y303006D01*
X140928Y301684D01*
X139059Y299815D01*
X137737Y297525D01*
X137052Y294972D01*
Y292328D01*
X137737Y289775D01*
X139059Y287485D01*
X140928Y285616D01*
X143217Y284294D01*
X145771Y283610D01*
X148414D01*
X150968Y284294D01*
X153257Y285616D01*
X155126Y287485D01*
X156448Y289775D01*
X157133Y292328D01*
Y294972D01*
X156448Y297525D01*
X155126Y299815D01*
X153257Y301684D01*
X150968Y303006D01*
X148414Y303690D01*
D02*
G37*
G36*
X301946Y293500D02*
X299925D01*
X298058Y292727D01*
X296628Y291298D01*
X295855Y289431D01*
Y287410D01*
X296628Y285543D01*
X298058Y284114D01*
X299925Y283340D01*
X301946D01*
X303813Y284114D01*
X305242Y285543D01*
X306015Y287410D01*
Y289431D01*
X305242Y291298D01*
X303813Y292727D01*
X301946Y293500D01*
D02*
G37*
G36*
X891809Y289061D02*
X889789D01*
X887921Y288288D01*
X886492Y286858D01*
X885719Y284991D01*
Y282970D01*
X886492Y281103D01*
X887921Y279674D01*
X889789Y278901D01*
X891809D01*
X893677Y279674D01*
X895106Y281103D01*
X895879Y282970D01*
Y284991D01*
X895106Y286858D01*
X893677Y288288D01*
X891809Y289061D01*
D02*
G37*
G36*
X1107822Y290990D02*
X1105178D01*
X1102625Y290306D01*
X1100335Y288984D01*
X1098466Y287115D01*
X1097144Y284825D01*
X1096460Y282272D01*
Y279628D01*
X1097144Y277075D01*
X1098466Y274785D01*
X1100335Y272916D01*
X1102625Y271594D01*
X1105178Y270910D01*
X1107822D01*
X1110375Y271594D01*
X1112665Y272916D01*
X1114534Y274785D01*
X1115856Y277075D01*
X1116540Y279628D01*
Y282272D01*
X1115856Y284825D01*
X1114534Y287115D01*
X1112665Y288984D01*
X1110375Y290306D01*
X1107822Y290990D01*
D02*
G37*
G36*
X173814D02*
X171171D01*
X168617Y290306D01*
X166328Y288984D01*
X164459Y287115D01*
X163137Y284825D01*
X162453Y282272D01*
Y279628D01*
X163137Y277075D01*
X164459Y274785D01*
X166328Y272916D01*
X168617Y271594D01*
X171171Y270910D01*
X173814D01*
X176368Y271594D01*
X178657Y272916D01*
X180527Y274785D01*
X181848Y277075D01*
X182533Y279628D01*
Y282272D01*
X181848Y284825D01*
X180527Y287115D01*
X178657Y288984D01*
X176368Y290306D01*
X173814Y290990D01*
D02*
G37*
G36*
X273087Y280810D02*
X271066D01*
X269199Y280037D01*
X267770Y278608D01*
X266996Y276741D01*
Y274720D01*
X267770Y272853D01*
X269199Y271423D01*
X271066Y270650D01*
X273087D01*
X274954Y271423D01*
X276383Y272853D01*
X277156Y274720D01*
Y276741D01*
X276383Y278608D01*
X274954Y280037D01*
X273087Y280810D01*
D02*
G37*
G36*
X661510Y283661D02*
X659490D01*
X657622Y282888D01*
X656193Y281459D01*
X655420Y279592D01*
Y277571D01*
X656193Y275704D01*
X656300Y275597D01*
X656193Y275490D01*
X655420Y273623D01*
Y271602D01*
X656193Y269734D01*
X657622Y268305D01*
X659490Y267532D01*
X661510D01*
X663378Y268305D01*
X664807Y269734D01*
X665580Y271602D01*
Y273623D01*
X664807Y275490D01*
X664700Y275597D01*
X664807Y275704D01*
X665580Y277571D01*
Y279592D01*
X664807Y281459D01*
X663378Y282888D01*
X661510Y283661D01*
D02*
G37*
G36*
X894834Y277295D02*
X892813D01*
X890946Y276522D01*
X889517Y275093D01*
X888744Y273226D01*
Y271205D01*
X889517Y269338D01*
X890946Y267908D01*
X892813Y267135D01*
X894834D01*
X896701Y267908D01*
X898130Y269338D01*
X898904Y271205D01*
Y273226D01*
X898130Y275093D01*
X896701Y276522D01*
X894834Y277295D01*
D02*
G37*
G36*
X370510Y274830D02*
X368489D01*
X366622Y274057D01*
X365193Y272628D01*
X364420Y270760D01*
Y268739D01*
X365193Y266872D01*
X366622Y265443D01*
X368489Y264670D01*
X370510D01*
X372378Y265443D01*
X373807Y266872D01*
X374580Y268739D01*
Y270760D01*
X373807Y272628D01*
X372378Y274057D01*
X370510Y274830D01*
D02*
G37*
G36*
X961265Y273782D02*
X959244D01*
X957377Y273009D01*
X955948Y271580D01*
X955174Y269713D01*
Y267692D01*
X955948Y265825D01*
X957377Y264396D01*
X959244Y263622D01*
X959395D01*
Y263471D01*
X960169Y261604D01*
X961598Y260175D01*
X963465Y259402D01*
X965486D01*
X967353Y260175D01*
X968782Y261604D01*
X969555Y263471D01*
Y265492D01*
X968782Y267359D01*
X967353Y268788D01*
X965486Y269562D01*
X965334D01*
Y269713D01*
X964561Y271580D01*
X963132Y273009D01*
X961265Y273782D01*
D02*
G37*
G36*
X1082422Y278290D02*
X1079778D01*
X1077225Y277606D01*
X1074935Y276284D01*
X1073066Y274415D01*
X1071744Y272125D01*
X1071060Y269572D01*
Y266928D01*
X1071744Y264375D01*
X1073066Y262085D01*
X1074935Y260216D01*
X1077225Y258894D01*
X1079778Y258210D01*
X1082422D01*
X1084975Y258894D01*
X1087265Y260216D01*
X1089134Y262085D01*
X1090456Y264375D01*
X1091140Y266928D01*
Y269572D01*
X1090456Y272125D01*
X1089134Y274415D01*
X1087265Y276284D01*
X1084975Y277606D01*
X1082422Y278290D01*
D02*
G37*
G36*
X148414D02*
X145771D01*
X143217Y277606D01*
X140928Y276284D01*
X139059Y274415D01*
X137737Y272125D01*
X137052Y269572D01*
Y266928D01*
X137737Y264375D01*
X139059Y262085D01*
X140928Y260216D01*
X143217Y258894D01*
X145771Y258210D01*
X148414D01*
X150968Y258894D01*
X153257Y260216D01*
X155126Y262085D01*
X156448Y264375D01*
X157133Y266928D01*
Y269572D01*
X156448Y272125D01*
X155126Y274415D01*
X153257Y276284D01*
X150968Y277606D01*
X148414Y278290D01*
D02*
G37*
G36*
X1145889Y279560D02*
X1142911D01*
X1140034Y278789D01*
X1137456Y277300D01*
X1135350Y275194D01*
X1133861Y272616D01*
X1133090Y269739D01*
Y266761D01*
X1133861Y263885D01*
X1135350Y261306D01*
X1137456Y259200D01*
X1140034Y257711D01*
X1142911Y256940D01*
X1145889D01*
X1148765Y257711D01*
X1151345Y259200D01*
X1153450Y261306D01*
X1154939Y263885D01*
X1155710Y266761D01*
Y269739D01*
X1154939Y272616D01*
X1153450Y275194D01*
X1151345Y277300D01*
X1148765Y278789D01*
X1145889Y279560D01*
D02*
G37*
G36*
X110681D02*
X107704D01*
X104827Y278789D01*
X102248Y277300D01*
X100142Y275194D01*
X98653Y272616D01*
X97882Y269739D01*
Y266761D01*
X98653Y263885D01*
X100142Y261306D01*
X102248Y259200D01*
X104827Y257711D01*
X107704Y256940D01*
X110681D01*
X113558Y257711D01*
X116137Y259200D01*
X118243Y261306D01*
X119732Y263885D01*
X120503Y266761D01*
Y269739D01*
X119732Y272616D01*
X118243Y275194D01*
X116137Y277300D01*
X113558Y278789D01*
X110681Y279560D01*
D02*
G37*
G36*
X678511Y270940D02*
X676490D01*
X674622Y270167D01*
X673193Y268738D01*
X672420Y266871D01*
Y264850D01*
X673193Y262983D01*
X673300Y262876D01*
X673193Y262769D01*
X672420Y260902D01*
Y258881D01*
X673193Y257014D01*
X674622Y255585D01*
X676490Y254811D01*
X678511D01*
X680378Y255585D01*
X681807Y257014D01*
X682580Y258881D01*
Y260902D01*
X681807Y262769D01*
X681700Y262876D01*
X681807Y262983D01*
X682580Y264850D01*
Y266871D01*
X681807Y268738D01*
X680378Y270167D01*
X678511Y270940D01*
D02*
G37*
G36*
X920494Y269253D02*
X918473D01*
X916606Y268480D01*
X915177Y267051D01*
X914404Y265184D01*
Y263163D01*
X915177Y261296D01*
X916606Y259867D01*
X918468Y259095D01*
Y257357D01*
X919241Y255489D01*
X920670Y254060D01*
X922537Y253287D01*
X924558D01*
X926425Y254060D01*
X927854Y255489D01*
X928628Y257357D01*
Y259377D01*
X927854Y261245D01*
X926425Y262674D01*
X924564Y263445D01*
Y265184D01*
X923790Y267051D01*
X922361Y268480D01*
X920494Y269253D01*
D02*
G37*
G36*
X1212086Y270390D02*
X1209114D01*
X1206242Y269621D01*
X1203668Y268134D01*
X1201566Y266032D01*
X1200079Y263458D01*
X1199310Y260586D01*
Y257614D01*
X1200079Y254742D01*
X1201566Y252168D01*
X1203668Y250066D01*
X1206242Y248579D01*
X1209114Y247810D01*
X1212086D01*
X1214958Y248579D01*
X1217532Y250066D01*
X1219634Y252168D01*
X1221121Y254742D01*
X1221890Y257614D01*
Y260586D01*
X1221121Y263458D01*
X1219634Y266032D01*
X1217532Y268134D01*
X1214958Y269621D01*
X1212086Y270390D01*
D02*
G37*
G36*
X44479D02*
X41506D01*
X38635Y269621D01*
X36060Y268134D01*
X33958Y266032D01*
X32472Y263458D01*
X31702Y260586D01*
Y257614D01*
X32472Y254742D01*
X33958Y252168D01*
X36060Y250066D01*
X38635Y248579D01*
X41506Y247810D01*
X44479D01*
X47350Y248579D01*
X49925Y250066D01*
X52027Y252168D01*
X53513Y254742D01*
X54282Y257614D01*
Y260586D01*
X53513Y263458D01*
X52027Y266032D01*
X49925Y268134D01*
X47350Y269621D01*
X44479Y270390D01*
D02*
G37*
G36*
X1107822Y265590D02*
X1105178D01*
X1102625Y264906D01*
X1100335Y263584D01*
X1098466Y261715D01*
X1097144Y259425D01*
X1096460Y256872D01*
Y254228D01*
X1097144Y251675D01*
X1098466Y249385D01*
X1100335Y247516D01*
X1102625Y246194D01*
X1105178Y245510D01*
X1107822D01*
X1110375Y246194D01*
X1112665Y247516D01*
X1114534Y249385D01*
X1115856Y251675D01*
X1116540Y254228D01*
Y256872D01*
X1115856Y259425D01*
X1114534Y261715D01*
X1112665Y263584D01*
X1110375Y264906D01*
X1107822Y265590D01*
D02*
G37*
G36*
X173814D02*
X171171D01*
X168617Y264906D01*
X166328Y263584D01*
X164459Y261715D01*
X163137Y259425D01*
X162453Y256872D01*
Y254228D01*
X163137Y251675D01*
X164459Y249385D01*
X166328Y247516D01*
X168617Y246194D01*
X171171Y245510D01*
X173814D01*
X176368Y246194D01*
X178657Y247516D01*
X180527Y249385D01*
X181848Y251675D01*
X182533Y254228D01*
Y256872D01*
X181848Y259425D01*
X180527Y261715D01*
X178657Y263584D01*
X176368Y264906D01*
X173814Y265590D01*
D02*
G37*
G36*
X891760Y252580D02*
X889740D01*
X887872Y251807D01*
X886443Y250378D01*
X885670Y248510D01*
Y246490D01*
X886443Y244622D01*
X887872Y243193D01*
X889740Y242420D01*
X891760D01*
X893628Y243193D01*
X895057Y244622D01*
X895830Y246490D01*
Y248510D01*
X895057Y250378D01*
X893628Y251807D01*
X891760Y252580D01*
D02*
G37*
G36*
X711510Y257440D02*
X709490D01*
X707622Y256667D01*
X706193Y255238D01*
X705420Y253371D01*
Y251350D01*
X706193Y249483D01*
X706300Y249376D01*
X706193Y249269D01*
X705420Y247402D01*
Y245381D01*
X706193Y243514D01*
X707622Y242085D01*
X709490Y241311D01*
X711510D01*
X713378Y242085D01*
X714807Y243514D01*
X715580Y245381D01*
Y247402D01*
X714807Y249269D01*
X714700Y249376D01*
X714807Y249483D01*
X715580Y251350D01*
Y253371D01*
X714807Y255238D01*
X713378Y256667D01*
X711510Y257440D01*
D02*
G37*
G36*
X210725Y240592D02*
X208705D01*
X206837Y239818D01*
X206217Y239198D01*
X205743Y239672D01*
X203876Y240445D01*
X201855D01*
X199988Y239672D01*
X198559Y238243D01*
X197785Y236376D01*
Y234355D01*
X198559Y232488D01*
X199988Y231059D01*
X201855Y230285D01*
X203876D01*
X205743Y231059D01*
X206363Y231679D01*
X206837Y231205D01*
X208705Y230432D01*
X210725D01*
X212593Y231205D01*
X214022Y232634D01*
X214795Y234501D01*
Y236522D01*
X214022Y238389D01*
X212593Y239818D01*
X210725Y240592D01*
D02*
G37*
G36*
X978511Y251080D02*
X976490D01*
X974622Y250307D01*
X973193Y248878D01*
X972420Y247010D01*
Y244990D01*
X973193Y243122D01*
X973300Y243015D01*
X973193Y242909D01*
X972420Y241042D01*
Y239021D01*
X973193Y237153D01*
X974622Y235724D01*
X976490Y234951D01*
X978511D01*
X980378Y235724D01*
X981807Y237153D01*
X982580Y239021D01*
Y241042D01*
X981807Y242909D01*
X981700Y243015D01*
X981807Y243122D01*
X982580Y244990D01*
Y247010D01*
X981807Y248878D01*
X980378Y250307D01*
X978511Y251080D01*
D02*
G37*
G36*
X870110Y245047D02*
X868089D01*
X866222Y244273D01*
X864793Y242844D01*
X864020Y240977D01*
Y238956D01*
X864793Y237089D01*
X866222Y235660D01*
X868089Y234887D01*
X870110D01*
X871977Y235660D01*
X873407Y237089D01*
X874180Y238956D01*
Y240977D01*
X873407Y242844D01*
X871977Y244273D01*
X870110Y245047D01*
D02*
G37*
G36*
X1082422Y252890D02*
X1079778D01*
X1077225Y252206D01*
X1074935Y250884D01*
X1073066Y249015D01*
X1071744Y246725D01*
X1071060Y244172D01*
Y241528D01*
X1071744Y238975D01*
X1073066Y236685D01*
X1074935Y234816D01*
X1077225Y233494D01*
X1079778Y232810D01*
X1082422D01*
X1084975Y233494D01*
X1087265Y234816D01*
X1089134Y236685D01*
X1090456Y238975D01*
X1091140Y241528D01*
Y244172D01*
X1090456Y246725D01*
X1089134Y249015D01*
X1087265Y250884D01*
X1084975Y252206D01*
X1082422Y252890D01*
D02*
G37*
G36*
X148414D02*
X145771D01*
X143217Y252206D01*
X140928Y250884D01*
X139059Y249015D01*
X137737Y246725D01*
X137052Y244172D01*
Y241528D01*
X137737Y238975D01*
X139059Y236685D01*
X140928Y234816D01*
X143217Y233494D01*
X145771Y232810D01*
X148414D01*
X150968Y233494D01*
X153257Y234816D01*
X155126Y236685D01*
X156448Y238975D01*
X157133Y241528D01*
Y244172D01*
X156448Y246725D01*
X155126Y249015D01*
X153257Y250884D01*
X150968Y252206D01*
X148414Y252890D01*
D02*
G37*
G36*
X568511Y230080D02*
X566489D01*
X564622Y229307D01*
X563750Y228434D01*
X562878Y229307D01*
X561011Y230080D01*
X558989D01*
X557122Y229307D01*
X556250Y228434D01*
X555378Y229307D01*
X553511Y230080D01*
X551489D01*
X549622Y229307D01*
X548750Y228434D01*
X547878Y229307D01*
X546011Y230080D01*
X543989D01*
X542122Y229307D01*
X540693Y227878D01*
X539920Y226010D01*
Y223990D01*
X540693Y222122D01*
X541566Y221250D01*
X540693Y220378D01*
X539920Y218510D01*
Y216490D01*
X540693Y214622D01*
X542122Y213193D01*
X543989Y212420D01*
X546011D01*
X547878Y213193D01*
X548750Y214066D01*
X549622Y213193D01*
X551489Y212420D01*
X553511D01*
X555378Y213193D01*
X556250Y214066D01*
X557122Y213193D01*
X558989Y212420D01*
X561011D01*
X562878Y213193D01*
X563750Y214066D01*
X564622Y213193D01*
X566489Y212420D01*
X568511D01*
X570378Y213193D01*
X571807Y214622D01*
X572580Y216490D01*
Y218510D01*
X571807Y220378D01*
X570934Y221250D01*
X571807Y222122D01*
X572580Y223990D01*
Y226010D01*
X571807Y227878D01*
X570378Y229307D01*
X568511Y230080D01*
D02*
G37*
G36*
X726510Y243710D02*
X724490D01*
X722622Y242936D01*
X721193Y241507D01*
X720420Y239640D01*
Y237619D01*
X721193Y235752D01*
X721300Y235645D01*
X721193Y235538D01*
X720420Y233671D01*
Y231650D01*
X721193Y229783D01*
X722622Y228354D01*
X724490Y227581D01*
X726510D01*
X728378Y228354D01*
X729807Y229783D01*
X730580Y231650D01*
Y233671D01*
X729807Y235538D01*
X729700Y235645D01*
X729807Y235752D01*
X730580Y237619D01*
Y239640D01*
X729807Y241507D01*
X728378Y242936D01*
X726510Y243710D01*
D02*
G37*
G36*
X896510Y237580D02*
X894490D01*
X892622Y236807D01*
X891193Y235378D01*
X890420Y233510D01*
Y231490D01*
X891193Y229622D01*
X892622Y228193D01*
X894490Y227420D01*
X896510D01*
X898378Y228193D01*
X899807Y229622D01*
X900580Y231490D01*
Y233510D01*
X899807Y235378D01*
X898378Y236807D01*
X896510Y237580D01*
D02*
G37*
G36*
X1171826Y261390D02*
X1168174D01*
X1164592Y260678D01*
X1161218Y259280D01*
X1158181Y257251D01*
X1155599Y254669D01*
X1153570Y251632D01*
X1152172Y248258D01*
X1151460Y244676D01*
Y241024D01*
X1152172Y237442D01*
X1153570Y234068D01*
X1155599Y231031D01*
X1158181Y228449D01*
X1161218Y226420D01*
X1164592Y225023D01*
X1168174Y224310D01*
X1171826D01*
X1175408Y225023D01*
X1178782Y226420D01*
X1181819Y228449D01*
X1184401Y231031D01*
X1186430Y234068D01*
X1187828Y237442D01*
X1188540Y241024D01*
Y244676D01*
X1187828Y248258D01*
X1186430Y251632D01*
X1184401Y254669D01*
X1181819Y257251D01*
X1178782Y259280D01*
X1175408Y260678D01*
X1171826Y261390D01*
D02*
G37*
G36*
X85419D02*
X81766D01*
X78185Y260678D01*
X74811Y259280D01*
X71774Y257251D01*
X69191Y254669D01*
X67162Y251632D01*
X65765Y248258D01*
X65052Y244676D01*
Y241024D01*
X65765Y237442D01*
X67162Y234068D01*
X69191Y231031D01*
X71774Y228449D01*
X74811Y226420D01*
X78185Y225023D01*
X81766Y224310D01*
X85419D01*
X89000Y225023D01*
X92374Y226420D01*
X95411Y228449D01*
X97993Y231031D01*
X100022Y234068D01*
X101420Y237442D01*
X102133Y241024D01*
Y244676D01*
X101420Y248258D01*
X100022Y251632D01*
X97993Y254669D01*
X95411Y257251D01*
X92374Y259280D01*
X89000Y260678D01*
X85419Y261390D01*
D02*
G37*
G36*
X1212086Y244990D02*
X1209114D01*
X1206242Y244221D01*
X1203668Y242734D01*
X1201566Y240632D01*
X1200079Y238058D01*
X1199310Y235186D01*
Y232214D01*
X1200079Y229342D01*
X1201566Y226768D01*
X1203668Y224666D01*
X1206242Y223179D01*
X1209114Y222410D01*
X1212086D01*
X1214958Y223179D01*
X1217532Y224666D01*
X1219634Y226768D01*
X1221121Y229342D01*
X1221890Y232214D01*
Y235186D01*
X1221121Y238058D01*
X1219634Y240632D01*
X1217532Y242734D01*
X1214958Y244221D01*
X1212086Y244990D01*
D02*
G37*
G36*
X44479D02*
X41506D01*
X38635Y244221D01*
X36060Y242734D01*
X33958Y240632D01*
X32472Y238058D01*
X31702Y235186D01*
Y232214D01*
X32472Y229342D01*
X33958Y226768D01*
X36060Y224666D01*
X38635Y223179D01*
X41506Y222410D01*
X44479D01*
X47350Y223179D01*
X49925Y224666D01*
X52027Y226768D01*
X53513Y229342D01*
X54282Y232214D01*
Y235186D01*
X53513Y238058D01*
X52027Y240632D01*
X49925Y242734D01*
X47350Y244221D01*
X44479Y244990D01*
D02*
G37*
G36*
X962760Y238330D02*
X960740D01*
X958872Y237557D01*
X957443Y236128D01*
X956670Y234261D01*
Y232240D01*
X957443Y230372D01*
X957550Y230266D01*
X957443Y230159D01*
X956670Y228291D01*
Y226271D01*
X957443Y224403D01*
X958872Y222974D01*
X960740Y222201D01*
X962760D01*
X964628Y222974D01*
X966057Y224403D01*
X966830Y226271D01*
Y228291D01*
X966057Y230159D01*
X965950Y230266D01*
X966057Y230372D01*
X966830Y232240D01*
Y234261D01*
X966057Y236128D01*
X964628Y237557D01*
X962760Y238330D01*
D02*
G37*
G36*
X883511Y231330D02*
X881489D01*
X879622Y230557D01*
X878193Y229128D01*
X877420Y227260D01*
Y225240D01*
X878193Y223372D01*
X879622Y221943D01*
X881489Y221170D01*
X883511D01*
X885378Y221943D01*
X886807Y223372D01*
X887580Y225240D01*
Y227260D01*
X886807Y229128D01*
X885378Y230557D01*
X883511Y231330D01*
D02*
G37*
G36*
X123382Y254160D02*
X120403D01*
X117527Y253389D01*
X114948Y251900D01*
X112842Y249795D01*
X111353Y247215D01*
X110583Y244339D01*
Y241361D01*
X111353Y238484D01*
X112842Y235905D01*
X113679Y235068D01*
X113193Y233895D01*
X112178D01*
X108480Y232904D01*
X105165Y230990D01*
X102458Y228283D01*
X100543Y224967D01*
X99552Y221269D01*
Y220625D01*
X114093D01*
X128632D01*
Y221269D01*
X127642Y224967D01*
X125727Y228283D01*
X123695Y230315D01*
X124079Y231727D01*
X126258Y232311D01*
X128837Y233800D01*
X130943Y235905D01*
X132432Y238484D01*
X133202Y241361D01*
Y244339D01*
X132432Y247215D01*
X130943Y249795D01*
X128837Y251900D01*
X126258Y253389D01*
X123382Y254160D01*
D02*
G37*
G36*
X1133189D02*
X1130211D01*
X1127335Y253389D01*
X1124755Y251900D01*
X1122650Y249795D01*
X1121161Y247215D01*
X1120390Y244339D01*
Y241361D01*
X1121161Y238484D01*
X1122650Y235905D01*
X1124755Y233800D01*
X1127335Y232311D01*
X1129513Y231727D01*
X1129898Y230315D01*
X1127865Y228283D01*
X1125951Y224967D01*
X1124960Y221269D01*
Y220625D01*
X1139500D01*
X1154040D01*
Y221269D01*
X1153049Y224967D01*
X1151135Y228283D01*
X1148428Y230990D01*
X1145112Y232904D01*
X1141414Y233895D01*
X1140399D01*
X1139913Y235068D01*
X1140750Y235905D01*
X1142239Y238484D01*
X1143010Y241361D01*
Y244339D01*
X1142239Y247215D01*
X1140750Y249795D01*
X1138644Y251900D01*
X1136066Y253389D01*
X1133189Y254160D01*
D02*
G37*
G36*
X933010Y234564D02*
X930990D01*
X929122Y233791D01*
X927693Y232362D01*
X926920Y230495D01*
Y228474D01*
X927693Y226607D01*
X927800Y226500D01*
X927693Y226393D01*
X926920Y224526D01*
Y222505D01*
X927693Y220638D01*
X929122Y219209D01*
X930990Y218435D01*
X933010D01*
X934878Y219209D01*
X936307Y220638D01*
X937080Y222505D01*
Y224526D01*
X936307Y226393D01*
X936200Y226500D01*
X936307Y226607D01*
X937080Y228474D01*
Y230495D01*
X936307Y232362D01*
X934878Y233791D01*
X933010Y234564D01*
D02*
G37*
G36*
X506096Y229278D02*
X504075D01*
X502208Y228505D01*
X500779Y227076D01*
X500006Y225208D01*
Y223188D01*
X499952Y223107D01*
X499683D01*
X497816Y222334D01*
X496387Y220905D01*
X495614Y219037D01*
Y217017D01*
X496387Y215149D01*
X497816Y213720D01*
X499683Y212947D01*
X501704D01*
X503571Y213720D01*
X505000Y215149D01*
X505774Y217017D01*
Y219037D01*
X505828Y219118D01*
X506096D01*
X507963Y219891D01*
X509392Y221320D01*
X510166Y223188D01*
Y225208D01*
X509392Y227076D01*
X507963Y228505D01*
X506096Y229278D01*
D02*
G37*
G36*
X1154040Y218085D02*
X1140770D01*
Y204815D01*
X1141414D01*
X1145112Y205806D01*
X1148428Y207720D01*
X1151135Y210427D01*
X1153049Y213743D01*
X1154040Y217441D01*
Y218085D01*
D02*
G37*
G36*
X1138230D02*
X1124960D01*
Y217441D01*
X1125951Y213743D01*
X1127865Y210427D01*
X1130572Y207720D01*
X1133888Y205806D01*
X1137586Y204815D01*
X1138230D01*
Y218085D01*
D02*
G37*
G36*
X336260Y212580D02*
X334240D01*
X332372Y211807D01*
X330943Y210378D01*
X330170Y208510D01*
Y206490D01*
X330943Y204622D01*
X332372Y203193D01*
X334240Y202420D01*
X336260D01*
X338128Y203193D01*
X339557Y204622D01*
X340330Y206490D01*
Y208510D01*
X339557Y210378D01*
X338128Y211807D01*
X336260Y212580D01*
D02*
G37*
G36*
X750020Y209580D02*
X747999D01*
X746132Y208807D01*
X744703Y207377D01*
X743929Y205510D01*
Y203489D01*
X744703Y201622D01*
X746132Y200193D01*
X747999Y199420D01*
X750020D01*
X751887Y200193D01*
X753316Y201622D01*
X754089Y203489D01*
Y205510D01*
X753316Y207377D01*
X751887Y208807D01*
X750020Y209580D01*
D02*
G37*
G36*
X737360D02*
X735339D01*
X733472Y208807D01*
X732043Y207377D01*
X731270Y205510D01*
Y203489D01*
X732043Y201622D01*
X733472Y200193D01*
X735339Y199420D01*
X737360D01*
X739228Y200193D01*
X740657Y201622D01*
X741430Y203489D01*
Y205510D01*
X740657Y207377D01*
X739228Y208807D01*
X737360Y209580D01*
D02*
G37*
G36*
X724610D02*
X722589D01*
X720722Y208807D01*
X719293Y207377D01*
X718520Y205510D01*
Y203489D01*
X719293Y201622D01*
X720722Y200193D01*
X722589Y199420D01*
X724610D01*
X726478Y200193D01*
X727907Y201622D01*
X728680Y203489D01*
Y205510D01*
X727907Y207377D01*
X726478Y208807D01*
X724610Y209580D01*
D02*
G37*
G36*
X712261D02*
X710240D01*
X708372Y208807D01*
X706944Y207377D01*
X706170Y205510D01*
Y203489D01*
X706944Y201622D01*
X708372Y200193D01*
X710240Y199420D01*
X712261D01*
X714128Y200193D01*
X715557Y201622D01*
X716330Y203489D01*
Y205510D01*
X715557Y207377D01*
X714128Y208807D01*
X712261Y209580D01*
D02*
G37*
G36*
X699110D02*
X697090D01*
X695222Y208807D01*
X693793Y207377D01*
X693020Y205510D01*
Y203489D01*
X693793Y201622D01*
X695222Y200193D01*
X697090Y199420D01*
X699110D01*
X700978Y200193D01*
X702407Y201622D01*
X703180Y203489D01*
Y205510D01*
X702407Y207377D01*
X700978Y208807D01*
X699110Y209580D01*
D02*
G37*
G36*
X686360D02*
X684340D01*
X682473Y208807D01*
X681043Y207377D01*
X680270Y205510D01*
Y203489D01*
X681043Y201622D01*
X682473Y200193D01*
X684340Y199420D01*
X686360D01*
X688228Y200193D01*
X689657Y201622D01*
X690430Y203489D01*
Y205510D01*
X689657Y207377D01*
X688228Y208807D01*
X686360Y209580D01*
D02*
G37*
G36*
X606228Y215040D02*
X602772D01*
X599384Y214366D01*
X596192Y213044D01*
X593319Y211124D01*
X592995Y210801D01*
X604500Y199296D01*
X616005Y210801D01*
X615681Y211124D01*
X612808Y213044D01*
X609616Y214366D01*
X606228Y215040D01*
D02*
G37*
G36*
X494123Y203411D02*
X492102D01*
X490235Y202638D01*
X488806Y201209D01*
X488032Y199341D01*
Y197320D01*
X488806Y195453D01*
X490235Y194024D01*
X492102Y193251D01*
X494123D01*
X495990Y194024D01*
X497419Y195453D01*
X498192Y197320D01*
Y199341D01*
X497419Y201209D01*
X495990Y202638D01*
X494123Y203411D01*
D02*
G37*
G36*
X1047594Y198220D02*
X1045573D01*
X1043706Y197446D01*
X1042277Y196017D01*
X1041503Y194150D01*
Y192129D01*
X1042277Y190262D01*
X1043706Y188833D01*
X1045573Y188060D01*
X1047594D01*
X1049461Y188833D01*
X1050890Y190262D01*
X1051663Y192129D01*
Y194150D01*
X1050890Y196017D01*
X1049461Y197446D01*
X1047594Y198220D01*
D02*
G37*
G36*
X617801Y209005D02*
X606296Y197500D01*
X617801Y185995D01*
X618124Y186319D01*
X620044Y189192D01*
X621366Y192384D01*
X622040Y195772D01*
Y199228D01*
X621366Y202616D01*
X620044Y205808D01*
X618124Y208681D01*
X617801Y209005D01*
D02*
G37*
G36*
X591199Y209005D02*
X590876Y208681D01*
X588956Y205808D01*
X587634Y202616D01*
X586960Y199228D01*
Y195772D01*
X587634Y192384D01*
X588956Y189192D01*
X590876Y186319D01*
X591199Y185995D01*
X602704Y197500D01*
X591199Y209005D01*
D02*
G37*
G36*
X1127263Y195350D02*
X1124737D01*
X1122403Y194383D01*
X1120617Y192597D01*
X1119650Y190263D01*
Y187737D01*
X1120617Y185403D01*
X1122403Y183617D01*
X1124737Y182650D01*
X1127263D01*
X1129597Y183617D01*
X1131383Y185403D01*
X1132350Y187737D01*
Y190263D01*
X1131383Y192597D01*
X1129597Y194383D01*
X1127263Y195350D01*
D02*
G37*
G36*
X1226263Y194350D02*
X1223737D01*
X1221403Y193383D01*
X1219617Y191597D01*
X1218650Y189263D01*
Y186737D01*
X1219617Y184403D01*
X1221403Y182617D01*
X1223737Y181650D01*
X1226263D01*
X1228597Y182617D01*
X1230383Y184403D01*
X1231350Y186737D01*
Y189263D01*
X1230383Y191597D01*
X1228597Y193383D01*
X1226263Y194350D01*
D02*
G37*
G36*
X1157263D02*
X1154737D01*
X1152403Y193383D01*
X1150617Y191597D01*
X1149650Y189263D01*
Y186737D01*
X1150617Y184403D01*
X1152403Y182617D01*
X1154737Y181650D01*
X1157263D01*
X1159597Y182617D01*
X1161383Y184403D01*
X1162350Y186737D01*
Y189263D01*
X1161383Y191597D01*
X1159597Y193383D01*
X1157263Y194350D01*
D02*
G37*
G36*
X1099263D02*
X1096737D01*
X1094403Y193383D01*
X1092617Y191597D01*
X1091650Y189263D01*
Y186737D01*
X1092617Y184403D01*
X1094403Y182617D01*
X1096737Y181650D01*
X1099263D01*
X1101597Y182617D01*
X1103383Y184403D01*
X1104350Y186737D01*
Y189263D01*
X1103383Y191597D01*
X1101597Y193383D01*
X1099263Y194350D01*
D02*
G37*
G36*
X1192263Y193350D02*
X1189737D01*
X1187403Y192383D01*
X1185617Y190597D01*
X1184650Y188263D01*
Y185737D01*
X1185617Y183403D01*
X1187403Y181617D01*
X1189737Y180650D01*
X1192263D01*
X1194597Y181617D01*
X1196383Y183403D01*
X1197350Y185737D01*
Y188263D01*
X1196383Y190597D01*
X1194597Y192383D01*
X1192263Y193350D01*
D02*
G37*
G36*
X1065263D02*
X1062737D01*
X1060403Y192383D01*
X1058617Y190597D01*
X1057650Y188263D01*
Y185737D01*
X1058617Y183403D01*
X1060403Y181617D01*
X1062737Y180650D01*
X1065263D01*
X1067597Y181617D01*
X1069383Y183403D01*
X1070350Y185737D01*
Y188263D01*
X1069383Y190597D01*
X1067597Y192383D01*
X1065263Y193350D01*
D02*
G37*
G36*
X604500Y195704D02*
X592995Y184199D01*
X593319Y183876D01*
X596192Y181956D01*
X599384Y180634D01*
X602772Y179960D01*
X606228D01*
X609616Y180634D01*
X612808Y181956D01*
X615681Y183876D01*
X616005Y184199D01*
X604500Y195704D01*
D02*
G37*
G36*
X1083263Y186350D02*
X1080737D01*
X1078403Y185383D01*
X1076617Y183597D01*
X1075650Y181263D01*
Y178737D01*
X1076617Y176403D01*
X1078403Y174617D01*
X1080737Y173650D01*
X1083263D01*
X1085597Y174617D01*
X1087383Y176403D01*
X1088350Y178737D01*
Y181263D01*
X1087383Y183597D01*
X1085597Y185383D01*
X1083263Y186350D01*
D02*
G37*
G36*
X1174163Y185918D02*
X1171637D01*
X1169303Y184951D01*
X1167517Y183165D01*
X1166550Y180831D01*
Y178305D01*
X1167517Y175971D01*
X1169303Y174184D01*
X1171637Y173218D01*
X1174163D01*
X1176497Y174184D01*
X1178283Y175971D01*
X1179250Y178305D01*
Y180831D01*
X1178283Y183165D01*
X1176497Y184951D01*
X1174163Y185918D01*
D02*
G37*
G36*
X1142197Y185416D02*
X1139670D01*
X1137337Y184450D01*
X1135550Y182663D01*
X1134584Y180329D01*
Y177803D01*
X1135550Y175469D01*
X1137337Y173683D01*
X1139670Y172716D01*
X1142197D01*
X1144531Y173683D01*
X1146317Y175469D01*
X1147284Y177803D01*
Y180329D01*
X1146317Y182663D01*
X1144531Y184450D01*
X1142197Y185416D01*
D02*
G37*
G36*
X1208514Y184395D02*
X1205988D01*
X1203654Y183428D01*
X1201867Y181642D01*
X1200901Y179308D01*
Y176782D01*
X1201867Y174448D01*
X1203654Y172661D01*
X1205988Y171695D01*
X1208514D01*
X1210848Y172661D01*
X1212634Y174448D01*
X1213601Y176782D01*
Y179308D01*
X1212634Y181642D01*
X1210848Y183428D01*
X1208514Y184395D01*
D02*
G37*
G36*
X763611Y176580D02*
X761590D01*
X759723Y175807D01*
X758294Y174377D01*
X757520Y172510D01*
Y170490D01*
X758294Y168622D01*
X759723Y167193D01*
X761590Y166420D01*
X763611D01*
X765478Y167193D01*
X766907Y168622D01*
X767680Y170490D01*
Y172510D01*
X766907Y174377D01*
X765478Y175807D01*
X763611Y176580D01*
D02*
G37*
G36*
X530334Y173139D02*
X528313D01*
X526446Y172366D01*
X525017Y170937D01*
X524243Y169070D01*
Y167049D01*
X525017Y165182D01*
X526446Y163753D01*
X528313Y162979D01*
X530334D01*
X532201Y163753D01*
X533630Y165182D01*
X534403Y167049D01*
Y169070D01*
X533630Y170937D01*
X532201Y172366D01*
X530334Y173139D01*
D02*
G37*
G36*
X1099263Y175350D02*
X1096737D01*
X1094403Y174383D01*
X1092617Y172597D01*
X1091650Y170263D01*
Y167737D01*
X1092617Y165403D01*
X1094403Y163617D01*
X1096737Y162650D01*
X1099263D01*
X1101597Y163617D01*
X1103383Y165403D01*
X1104350Y167737D01*
Y170263D01*
X1103383Y172597D01*
X1101597Y174383D01*
X1099263Y175350D01*
D02*
G37*
G36*
X1064263D02*
X1061737D01*
X1059403Y174383D01*
X1057617Y172597D01*
X1056650Y170263D01*
Y167737D01*
X1057617Y165403D01*
X1059403Y163617D01*
X1061737Y162650D01*
X1064263D01*
X1066597Y163617D01*
X1068383Y165403D01*
X1069350Y167737D01*
Y170263D01*
X1068383Y172597D01*
X1066597Y174383D01*
X1064263Y175350D01*
D02*
G37*
G36*
X1127263Y174350D02*
X1124737D01*
X1122403Y173383D01*
X1120617Y171597D01*
X1119650Y169263D01*
Y166737D01*
X1120617Y164403D01*
X1122403Y162617D01*
X1124737Y161650D01*
X1127263D01*
X1129597Y162617D01*
X1131383Y164403D01*
X1132350Y166737D01*
Y169263D01*
X1131383Y171597D01*
X1129597Y173383D01*
X1127263Y174350D01*
D02*
G37*
G36*
X1157263Y173350D02*
X1154737D01*
X1152403Y172383D01*
X1150617Y170597D01*
X1149650Y168263D01*
Y165737D01*
X1150617Y163403D01*
X1152403Y161617D01*
X1154737Y160650D01*
X1157263D01*
X1159597Y161617D01*
X1161383Y163403D01*
X1162350Y165737D01*
Y168263D01*
X1161383Y170597D01*
X1159597Y172383D01*
X1157263Y173350D01*
D02*
G37*
G36*
X1227263Y171350D02*
X1224737D01*
X1222403Y170383D01*
X1220617Y168597D01*
X1219650Y166263D01*
Y163737D01*
X1220617Y161403D01*
X1222403Y159617D01*
X1224737Y158650D01*
X1227263D01*
X1229597Y159617D01*
X1231383Y161403D01*
X1232350Y163737D01*
Y166263D01*
X1231383Y168597D01*
X1229597Y170383D01*
X1227263Y171350D01*
D02*
G37*
G36*
X553511Y167580D02*
X551489D01*
X549622Y166807D01*
X548193Y165378D01*
X547420Y163510D01*
Y161490D01*
X548193Y159622D01*
X549622Y158193D01*
X551489Y157420D01*
X553511D01*
X555378Y158193D01*
X556807Y159622D01*
X557580Y161490D01*
Y163510D01*
X556807Y165378D01*
X555378Y166807D01*
X553511Y167580D01*
D02*
G37*
G36*
X1082921Y168610D02*
X1080394D01*
X1078060Y167643D01*
X1076274Y165857D01*
X1075307Y163523D01*
Y160997D01*
X1076274Y158663D01*
X1078060Y156877D01*
X1080394Y155910D01*
X1082921D01*
X1085254Y156877D01*
X1087041Y158663D01*
X1088007Y160997D01*
Y163523D01*
X1087041Y165857D01*
X1085254Y167643D01*
X1082921Y168610D01*
D02*
G37*
G36*
X1142263Y165350D02*
X1139737D01*
X1137403Y164383D01*
X1135617Y162597D01*
X1134650Y160263D01*
Y157737D01*
X1135617Y155403D01*
X1137403Y153617D01*
X1139737Y152650D01*
X1142263D01*
X1144597Y153617D01*
X1146383Y155403D01*
X1147350Y157737D01*
Y160263D01*
X1146383Y162597D01*
X1144597Y164383D01*
X1142263Y165350D01*
D02*
G37*
G36*
X1118775Y161861D02*
X1116249D01*
X1113915Y160894D01*
X1112129Y159108D01*
X1111162Y156774D01*
Y154248D01*
X1112129Y151914D01*
X1113915Y150127D01*
X1116249Y149161D01*
X1118775D01*
X1121109Y150127D01*
X1122896Y151914D01*
X1123862Y154248D01*
Y156774D01*
X1122896Y159108D01*
X1121109Y160894D01*
X1118775Y161861D01*
D02*
G37*
G36*
X930690Y147523D02*
X928669D01*
X926802Y146750D01*
X926695Y146643D01*
X926588Y146750D01*
X924721Y147523D01*
X922700D01*
X920833Y146750D01*
X919404Y145321D01*
X918631Y143454D01*
Y141433D01*
X919404Y139565D01*
X920833Y138136D01*
X922700Y137363D01*
X924721D01*
X926588Y138136D01*
X926695Y138243D01*
X926802Y138136D01*
X928669Y137363D01*
X930690D01*
X932557Y138136D01*
X933986Y139565D01*
X934760Y141433D01*
Y143454D01*
X933986Y145321D01*
X932557Y146750D01*
X930690Y147523D01*
D02*
G37*
G36*
X711761Y148194D02*
X709740D01*
X707872Y147421D01*
X706443Y145992D01*
X705670Y144125D01*
Y142104D01*
X706443Y140237D01*
X707872Y138808D01*
X709740Y138034D01*
X711761D01*
X713628Y138808D01*
X715057Y140237D01*
X715830Y142104D01*
Y144125D01*
X715057Y145992D01*
X713628Y147421D01*
X711761Y148194D01*
D02*
G37*
G36*
X724461Y148174D02*
X722440D01*
X720573Y147401D01*
X719144Y145971D01*
X718370Y144104D01*
Y142084D01*
X719144Y140216D01*
X720573Y138787D01*
X722440Y138014D01*
X724461D01*
X726328Y138787D01*
X727757Y140216D01*
X728530Y142084D01*
Y144104D01*
X727757Y145971D01*
X726328Y147401D01*
X724461Y148174D01*
D02*
G37*
G36*
X686371Y148091D02*
X684350D01*
X682483Y147317D01*
X681054Y145888D01*
X680281Y144021D01*
Y142000D01*
X681054Y140133D01*
X682483Y138704D01*
X684350Y137931D01*
X686371D01*
X688238Y138704D01*
X689667Y140133D01*
X690441Y142000D01*
Y144021D01*
X689667Y145888D01*
X688238Y147317D01*
X686371Y148091D01*
D02*
G37*
G36*
X737100Y148080D02*
X735079D01*
X733212Y147307D01*
X731783Y145878D01*
X731009Y144010D01*
Y141989D01*
X731783Y140122D01*
X733212Y138693D01*
X735079Y137920D01*
X737100D01*
X738967Y138693D01*
X740396Y140122D01*
X741169Y141989D01*
Y144010D01*
X740396Y145878D01*
X738967Y147307D01*
X737100Y148080D01*
D02*
G37*
G36*
X699061D02*
X697040D01*
X695173Y147307D01*
X693744Y145878D01*
X692971Y144010D01*
Y141989D01*
X693744Y140122D01*
X695173Y138693D01*
X697040Y137920D01*
X699061D01*
X700928Y138693D01*
X702357Y140122D01*
X703131Y141989D01*
Y144010D01*
X702357Y145878D01*
X700928Y147307D01*
X699061Y148080D01*
D02*
G37*
G36*
X749824Y147755D02*
X747803D01*
X745936Y146982D01*
X744507Y145553D01*
X743734Y143685D01*
Y141664D01*
X744507Y139797D01*
X745936Y138368D01*
X747803Y137595D01*
X749824D01*
X751691Y138368D01*
X753120Y139797D01*
X753894Y141664D01*
Y143685D01*
X753120Y145553D01*
X751691Y146982D01*
X749824Y147755D01*
D02*
G37*
G36*
X1184014Y140047D02*
X1181488D01*
X1179154Y139080D01*
X1177368Y137294D01*
X1177288Y137101D01*
X1176018D01*
X1175995Y137157D01*
X1174209Y138943D01*
X1171875Y139910D01*
X1169349D01*
X1167015Y138943D01*
X1165229Y137157D01*
X1164262Y134823D01*
Y132297D01*
X1165229Y129963D01*
X1167015Y128176D01*
X1169349Y127210D01*
X1170012D01*
Y124995D01*
X1170979Y122661D01*
X1172765Y120875D01*
X1175099Y119908D01*
X1177625D01*
X1179959Y120875D01*
X1181746Y122661D01*
X1182259Y123901D01*
X1183634D01*
X1183940Y123163D01*
X1185726Y121376D01*
X1188060Y120410D01*
X1190586D01*
X1192920Y121376D01*
X1194706Y123163D01*
X1195673Y125497D01*
Y128023D01*
X1194706Y130357D01*
X1192920Y132143D01*
X1190586Y133110D01*
X1189101D01*
Y134960D01*
X1188135Y137294D01*
X1186348Y139080D01*
X1184014Y140047D01*
D02*
G37*
G36*
X897010Y147080D02*
X894989D01*
X893122Y146307D01*
X891693Y144878D01*
X890920Y143011D01*
Y140990D01*
X891693Y139122D01*
X893122Y137693D01*
X894989Y136920D01*
X897010D01*
X898878Y137693D01*
X900307Y139122D01*
X901080Y140990D01*
Y143011D01*
X900307Y144878D01*
X898878Y146307D01*
X897010Y147080D01*
D02*
G37*
G36*
X1200312Y146080D02*
X1198291D01*
X1196424Y145307D01*
X1194995Y143878D01*
X1194222Y142010D01*
Y139990D01*
X1194995Y138122D01*
X1196424Y136693D01*
X1198291Y135920D01*
X1200312D01*
X1202179Y136693D01*
X1203608Y138122D01*
X1204382Y139990D01*
Y142010D01*
X1203608Y143878D01*
X1202179Y145307D01*
X1200312Y146080D01*
D02*
G37*
G36*
X746011Y135080D02*
X743989D01*
X742122Y134307D01*
X740693Y132878D01*
X740635Y132737D01*
X739365D01*
X739307Y132878D01*
X737878Y134307D01*
X736011Y135080D01*
X733989D01*
X732122Y134307D01*
X730693Y132878D01*
X730635Y132737D01*
X729365D01*
X729307Y132878D01*
X727878Y134307D01*
X726011Y135080D01*
X723989D01*
X722122Y134307D01*
X720693Y132878D01*
X720635Y132737D01*
X719365D01*
X719307Y132878D01*
X717878Y134307D01*
X716011Y135080D01*
X713989D01*
X712122Y134307D01*
X710693Y132878D01*
X710635Y132737D01*
X709365D01*
X709307Y132878D01*
X707878Y134307D01*
X706011Y135080D01*
X703989D01*
X702122Y134307D01*
X700693Y132878D01*
X699920Y131011D01*
Y128989D01*
X700693Y127122D01*
X702122Y125693D01*
X702263Y125635D01*
Y124365D01*
X702122Y124307D01*
X700693Y122878D01*
X699920Y121011D01*
Y118989D01*
X700693Y117122D01*
X702122Y115693D01*
X703989Y114920D01*
X706011D01*
X707878Y115693D01*
X709307Y117122D01*
X709365Y117263D01*
X710635D01*
X710693Y117122D01*
X712122Y115693D01*
X713989Y114920D01*
X716011D01*
X717878Y115693D01*
X719307Y117122D01*
X719365Y117263D01*
X720635D01*
X720693Y117122D01*
X722122Y115693D01*
X723989Y114920D01*
X726011D01*
X727878Y115693D01*
X729307Y117122D01*
X729365Y117263D01*
X730635D01*
X730693Y117122D01*
X732122Y115693D01*
X733989Y114920D01*
X736011D01*
X737878Y115693D01*
X739307Y117122D01*
X739365Y117263D01*
X740635D01*
X740693Y117122D01*
X742122Y115693D01*
X743989Y114920D01*
X746011D01*
X747878Y115693D01*
X749307Y117122D01*
X750080Y118989D01*
Y121011D01*
X749307Y122878D01*
X747878Y124307D01*
X747737Y124365D01*
Y125635D01*
X747878Y125693D01*
X749307Y127122D01*
X750080Y128989D01*
Y131011D01*
X749307Y132878D01*
X747878Y134307D01*
X746011Y135080D01*
D02*
G37*
G36*
X582513Y143350D02*
X579987D01*
X577653Y142383D01*
X575867Y140597D01*
X574900Y138263D01*
Y135737D01*
X575867Y133403D01*
X577653Y131617D01*
X579987Y130650D01*
X582513D01*
X584847Y131617D01*
X585519Y132289D01*
X586262Y131545D01*
X588596Y130579D01*
X591122D01*
X593456Y131545D01*
X594385Y132474D01*
X595417Y131442D01*
X597751Y130476D01*
X600277D01*
X602611Y131442D01*
X604397Y133229D01*
X605364Y135563D01*
Y138089D01*
X604397Y140423D01*
X602611Y142209D01*
X600277Y143176D01*
X597751D01*
X595417Y142209D01*
X594488Y141280D01*
X593456Y142312D01*
X591122Y143279D01*
X588596D01*
X586262Y142312D01*
X585590Y141640D01*
X584847Y142383D01*
X582513Y143350D01*
D02*
G37*
G36*
X871011Y140080D02*
X868989D01*
X867122Y139307D01*
X865693Y137878D01*
X864920Y136011D01*
Y133989D01*
X865693Y132122D01*
X867122Y130693D01*
X868989Y129920D01*
X871011D01*
X872878Y130693D01*
X874307Y132122D01*
X875080Y133989D01*
Y136011D01*
X874307Y137878D01*
X872878Y139307D01*
X871011Y140080D01*
D02*
G37*
G36*
X978511Y137580D02*
X976489D01*
X974622Y136807D01*
X973193Y135378D01*
X972420Y133511D01*
Y131489D01*
X973193Y129622D01*
X973913Y128903D01*
X973193Y128183D01*
X972420Y126316D01*
Y124296D01*
X973193Y122428D01*
X974622Y120999D01*
X976489Y120226D01*
X978511D01*
X980378Y120999D01*
X981807Y122428D01*
X982580Y124296D01*
Y126316D01*
X981807Y128183D01*
X981087Y128903D01*
X981807Y129622D01*
X982580Y131489D01*
Y133511D01*
X981807Y135378D01*
X980378Y136807D01*
X978511Y137580D01*
D02*
G37*
G36*
X794416Y133458D02*
X792395D01*
X790528Y132684D01*
X789099Y131256D01*
X788325Y129388D01*
Y127367D01*
X789099Y125500D01*
X790528Y124071D01*
X791534Y123655D01*
X791541Y123643D01*
X791735Y122197D01*
X790760Y121222D01*
X789987Y119354D01*
Y117334D01*
X790760Y115466D01*
X792189Y114038D01*
X794056Y113264D01*
X796077D01*
X797944Y114038D01*
X799373Y115466D01*
X800147Y117334D01*
Y119354D01*
X799373Y121222D01*
X797944Y122651D01*
X796938Y123067D01*
X796931Y123079D01*
X796737Y124525D01*
X797712Y125500D01*
X798485Y127367D01*
Y129388D01*
X797712Y131256D01*
X796283Y132684D01*
X794416Y133458D01*
D02*
G37*
G36*
X764608Y118546D02*
X762587D01*
X760720Y117772D01*
X759291Y116343D01*
X758517Y114476D01*
Y112455D01*
X759291Y110588D01*
X760720Y109159D01*
X762587Y108386D01*
X764608D01*
X766475Y109159D01*
X767904Y110588D01*
X768677Y112455D01*
Y114476D01*
X767904Y116343D01*
X766475Y117772D01*
X764608Y118546D01*
D02*
G37*
G36*
X831018Y120086D02*
X828997D01*
X827130Y119313D01*
X825701Y117884D01*
X825031Y116265D01*
X824248D01*
X822381Y115491D01*
X820952Y114062D01*
X820179Y112195D01*
Y110174D01*
X820952Y108307D01*
X822381Y106878D01*
X824248Y106105D01*
X826269D01*
X828136Y106878D01*
X829565Y108307D01*
X830236Y109926D01*
X831018D01*
X832886Y110700D01*
X834314Y112129D01*
X835088Y113996D01*
Y116017D01*
X834314Y117884D01*
X832886Y119313D01*
X831018Y120086D01*
D02*
G37*
G36*
X540733Y119614D02*
X538207D01*
X535873Y118647D01*
X534087Y116861D01*
X533120Y114527D01*
Y112001D01*
X534087Y109667D01*
X535014Y108740D01*
X533839Y107565D01*
X532872Y105231D01*
Y102705D01*
X533839Y100371D01*
X535625Y98585D01*
X537959Y97618D01*
X540485D01*
X542819Y98585D01*
X544605Y100371D01*
X545572Y102705D01*
Y105231D01*
X544605Y107565D01*
X543678Y108492D01*
X544854Y109667D01*
X545820Y112001D01*
Y114527D01*
X544854Y116861D01*
X543067Y118647D01*
X540733Y119614D01*
D02*
G37*
G36*
X1195011Y100080D02*
X1192990D01*
X1191122Y99307D01*
X1189693Y97878D01*
X1188920Y96011D01*
Y93989D01*
X1189693Y92122D01*
X1191122Y90693D01*
X1192990Y89920D01*
X1195011D01*
X1196878Y90693D01*
X1198307Y92122D01*
X1199080Y93989D01*
Y96011D01*
X1198307Y97878D01*
X1196878Y99307D01*
X1195011Y100080D01*
D02*
G37*
G36*
X911011Y89080D02*
X908990D01*
X907122Y88307D01*
X905693Y86878D01*
X904920Y85010D01*
Y84859D01*
X904769D01*
X902902Y84086D01*
X901473Y82657D01*
X900699Y80790D01*
Y78769D01*
X901473Y76902D01*
X902902Y75473D01*
X904769Y74699D01*
X906790D01*
X908657Y75473D01*
X910086Y76902D01*
X910859Y78769D01*
Y78920D01*
X911011D01*
X912878Y79693D01*
X914307Y81122D01*
X914776Y82255D01*
X916144Y82240D01*
X916723Y80843D01*
X918152Y79414D01*
X920019Y78641D01*
X920170D01*
Y78490D01*
X920943Y76622D01*
X922372Y75193D01*
X924240Y74420D01*
X926261D01*
X928128Y75193D01*
X929557Y76622D01*
X930330Y78490D01*
Y80511D01*
X929557Y82378D01*
X928128Y83807D01*
X926261Y84580D01*
X926109D01*
Y84731D01*
X925336Y86598D01*
X923907Y88027D01*
X922040Y88801D01*
X920019D01*
X918152Y88027D01*
X916723Y86598D01*
X916253Y85465D01*
X914885Y85481D01*
X914307Y86878D01*
X912878Y88307D01*
X911011Y89080D01*
D02*
G37*
G36*
X825768Y84438D02*
X823747D01*
X821880Y83664D01*
X820451Y82235D01*
X819678Y80368D01*
Y78347D01*
X820451Y76480D01*
X821880Y75051D01*
X823747Y74278D01*
X825768D01*
X827635Y75051D01*
X828699Y76115D01*
X830001Y75994D01*
X830157Y75913D01*
X830510Y75061D01*
X831939Y73632D01*
X833806Y72859D01*
X835827D01*
X837694Y73632D01*
X839123Y75061D01*
X839896Y76929D01*
Y78950D01*
X839123Y80817D01*
X837694Y82246D01*
X835827Y83019D01*
X833806D01*
X831939Y82246D01*
X830875Y81182D01*
X829573Y81303D01*
X829417Y81383D01*
X829064Y82235D01*
X827635Y83664D01*
X825768Y84438D01*
D02*
G37*
G36*
X870192Y88115D02*
X868171D01*
X866304Y87341D01*
X864875Y85912D01*
X864101Y84045D01*
Y82024D01*
X864875Y80157D01*
X864982Y80050D01*
X864875Y79943D01*
X864101Y78076D01*
Y76055D01*
X864875Y74188D01*
X866304Y72759D01*
X868171Y71986D01*
X870192D01*
X872059Y72759D01*
X873488Y74188D01*
X874261Y76055D01*
Y78076D01*
X873488Y79943D01*
X873381Y80050D01*
X873488Y80157D01*
X874261Y82024D01*
Y84045D01*
X873488Y85912D01*
X872059Y87341D01*
X870192Y88115D01*
D02*
G37*
G36*
X540733Y95014D02*
X538207D01*
X535873Y94047D01*
X534087Y92261D01*
X533120Y89927D01*
Y87401D01*
X534087Y85067D01*
X535793Y83361D01*
X535835Y82650D01*
X535793Y81939D01*
X534087Y80233D01*
X533120Y77900D01*
Y75374D01*
X534087Y73040D01*
X535873Y71253D01*
X538207Y70286D01*
X540733D01*
X543067Y71253D01*
X544854Y73040D01*
X545820Y75374D01*
Y77900D01*
X544854Y80233D01*
X543148Y81939D01*
X543105Y82650D01*
X543148Y83361D01*
X544854Y85067D01*
X545820Y87401D01*
Y89927D01*
X544854Y92261D01*
X543067Y94047D01*
X540733Y95014D01*
D02*
G37*
G36*
X1000802Y85643D02*
X998781D01*
X996914Y84870D01*
X995485Y83441D01*
X994711Y81574D01*
Y79553D01*
X995485Y77686D01*
X996914Y76257D01*
X998340Y75666D01*
X998266Y74658D01*
X998167Y74363D01*
X996380Y73623D01*
X994951Y72194D01*
X994178Y70327D01*
Y68306D01*
X994951Y66439D01*
X996380Y65010D01*
X998247Y64236D01*
X1000268D01*
X1002135Y65010D01*
X1003564Y66439D01*
X1004338Y68306D01*
Y70327D01*
X1003564Y72194D01*
X1002135Y73623D01*
X1000710Y74213D01*
X1000783Y75222D01*
X1000882Y75517D01*
X1002669Y76257D01*
X1004098Y77686D01*
X1004871Y79553D01*
Y81574D01*
X1004098Y83441D01*
X1002669Y84870D01*
X1000802Y85643D01*
D02*
G37*
G36*
X678388Y82040D02*
X675612D01*
X672932Y81322D01*
X670528Y79934D01*
X668566Y77972D01*
X667178Y75568D01*
X666460Y72888D01*
Y70112D01*
X667178Y67432D01*
X668566Y65028D01*
X670528Y63066D01*
X672932Y61678D01*
X675612Y60960D01*
X678388D01*
X681068Y61678D01*
X683472Y63066D01*
X685434Y65028D01*
X686822Y67432D01*
X687540Y70112D01*
Y72888D01*
X686822Y75568D01*
X685434Y77972D01*
X683472Y79934D01*
X681068Y81322D01*
X678388Y82040D01*
D02*
G37*
G36*
X898163Y73927D02*
X896142D01*
X894275Y73154D01*
X892846Y71725D01*
X892073Y69858D01*
Y69707D01*
X891921D01*
X890054Y68933D01*
X888625Y67504D01*
X887852Y65637D01*
Y63616D01*
X888625Y61749D01*
X890054Y60320D01*
X891921Y59547D01*
X893942D01*
X895809Y60320D01*
X897238Y61749D01*
X898012Y63616D01*
Y63767D01*
X898163D01*
X900030Y64541D01*
X901459Y65970D01*
X902233Y67837D01*
Y69858D01*
X901459Y71725D01*
X900030Y73154D01*
X898163Y73927D01*
D02*
G37*
G36*
X757010Y68080D02*
X754989D01*
X753122Y67307D01*
X751693Y65878D01*
X750920Y64011D01*
Y61989D01*
X751693Y60122D01*
X753122Y58693D01*
X754989Y57920D01*
X757010D01*
X758878Y58693D01*
X760307Y60122D01*
X761080Y61989D01*
Y64011D01*
X760307Y65878D01*
X758878Y67307D01*
X757010Y68080D01*
D02*
G37*
G36*
X955975Y60331D02*
X954137Y60089D01*
X952425Y59379D01*
X951970Y59030D01*
X958450Y52551D01*
X962573Y56674D01*
X960996Y58251D01*
X959526Y59379D01*
X957813Y60089D01*
X955975Y60331D01*
D02*
G37*
G36*
X881025D02*
X879187Y60089D01*
X877475Y59379D01*
X876004Y58251D01*
X874427Y56674D01*
X878550Y52551D01*
X885030Y59031D01*
X884575Y59379D01*
X882863Y60089D01*
X881025Y60331D01*
D02*
G37*
G36*
X1201728Y67540D02*
X1201270D01*
Y51270D01*
X1217540D01*
Y51727D01*
X1216866Y55116D01*
X1215544Y58308D01*
X1213624Y61181D01*
X1211181Y63624D01*
X1208308Y65544D01*
X1205116Y66866D01*
X1201728Y67540D01*
D02*
G37*
G36*
X1198730D02*
X1198272D01*
X1194884Y66866D01*
X1191692Y65544D01*
X1188819Y63624D01*
X1186376Y61181D01*
X1184456Y58308D01*
X1183134Y55116D01*
X1182460Y51727D01*
Y51270D01*
X1198730D01*
Y67540D01*
D02*
G37*
G36*
X912992Y66085D02*
X910971D01*
X909104Y65311D01*
X907675Y63882D01*
X906901Y62015D01*
Y61133D01*
X906239D01*
X904372Y60360D01*
X902943Y58931D01*
X902169Y57063D01*
Y55043D01*
X902943Y53175D01*
X903110Y53008D01*
X902624Y51835D01*
X895271D01*
Y43011D01*
X904413D01*
Y50586D01*
X905469Y51292D01*
X906239Y50973D01*
X908260D01*
X910127Y51746D01*
X911556Y53175D01*
X912329Y55043D01*
Y55925D01*
X912992D01*
X914859Y56698D01*
X916288Y58127D01*
X917061Y59994D01*
Y62015D01*
X916288Y63882D01*
X914859Y65311D01*
X912992Y66085D01*
D02*
G37*
G36*
X1043201Y58288D02*
X1041180D01*
X1039313Y57515D01*
X1037884Y56086D01*
X1037111Y54219D01*
Y52198D01*
X1037884Y50331D01*
X1039313Y48902D01*
X1041180Y48128D01*
X1043201D01*
X1045069Y48902D01*
X1046497Y50331D01*
X1047271Y52198D01*
Y54219D01*
X1046497Y56086D01*
X1045069Y57515D01*
X1043201Y58288D01*
D02*
G37*
G36*
X872631Y54878D02*
X871054Y53301D01*
X869926Y51830D01*
X869216Y50118D01*
X868974Y48280D01*
X869216Y46442D01*
X869926Y44730D01*
X870274Y44275D01*
X876754Y50755D01*
X872631Y54878D01*
D02*
G37*
G36*
X964369Y54878D02*
X960246Y50755D01*
X966726Y44275D01*
X967074Y44730D01*
X967784Y46442D01*
X968026Y48280D01*
X967784Y50118D01*
X967074Y51830D01*
X965946Y53301D01*
X964369Y54878D01*
D02*
G37*
G36*
X944413Y51835D02*
X935271D01*
Y43011D01*
X944413D01*
Y51835D01*
D02*
G37*
G36*
X886826Y57235D02*
X879448Y49857D01*
X872070Y42479D01*
X872525Y42131D01*
X873485Y41733D01*
X873344Y41025D01*
X880750D01*
X888156D01*
X887940Y42112D01*
X886605Y44110D01*
X884889Y45256D01*
X884499Y46662D01*
X886046Y48209D01*
X887174Y49679D01*
X887884Y51392D01*
X888126Y53230D01*
X887884Y55068D01*
X887174Y56780D01*
X886826Y57235D01*
D02*
G37*
G36*
X950174Y57235D02*
X949826Y56780D01*
X949116Y55068D01*
X948874Y53230D01*
X949116Y51392D01*
X949826Y49679D01*
X950954Y48209D01*
X952501Y46662D01*
X952111Y45256D01*
X950395Y44110D01*
X949060Y42112D01*
X948844Y41025D01*
X956250D01*
X963656D01*
X963515Y41733D01*
X964475Y42131D01*
X964930Y42479D01*
X957552Y49857D01*
X950174Y57235D01*
D02*
G37*
G36*
X678388Y47040D02*
X678270D01*
Y37770D01*
X687540D01*
Y37888D01*
X686822Y40568D01*
X685434Y42972D01*
X683472Y44934D01*
X681068Y46322D01*
X678388Y47040D01*
D02*
G37*
G36*
X675730D02*
X675612D01*
X672932Y46322D01*
X670528Y44934D01*
X668566Y42972D01*
X667178Y40568D01*
X666460Y37888D01*
Y37770D01*
X675730D01*
Y47040D01*
D02*
G37*
G36*
X785034Y45192D02*
X783013D01*
X781146Y44419D01*
X779717Y42990D01*
X778944Y41122D01*
Y39102D01*
X779717Y37234D01*
X781146Y35805D01*
X783013Y35032D01*
X785034D01*
X786901Y35805D01*
X788330Y37234D01*
X789104Y39102D01*
Y41122D01*
X788330Y42990D01*
X786901Y44419D01*
X785034Y45192D01*
D02*
G37*
G36*
X914858Y45080D02*
X912837D01*
X910969Y44307D01*
X909540Y42878D01*
X908767Y41011D01*
Y38990D01*
X909540Y37123D01*
X910969Y35694D01*
X912837Y34920D01*
X914858D01*
X916725Y35694D01*
X917528Y36497D01*
X918789Y36626D01*
X919085Y36394D01*
X920276Y35203D01*
X922143Y34430D01*
X924164D01*
X926031Y35203D01*
X927460Y36632D01*
X928234Y38499D01*
Y40520D01*
X927460Y42387D01*
X926031Y43816D01*
X924164Y44590D01*
X922143D01*
X920276Y43816D01*
X919473Y43013D01*
X918212Y42884D01*
X917916Y43116D01*
X916725Y44307D01*
X914858Y45080D01*
D02*
G37*
G36*
X1217540Y48730D02*
X1201270D01*
Y32460D01*
X1201728D01*
X1205116Y33134D01*
X1208308Y34456D01*
X1211181Y36376D01*
X1213624Y38819D01*
X1215544Y41692D01*
X1216866Y44884D01*
X1217540Y48273D01*
Y48730D01*
D02*
G37*
G36*
X1198730D02*
X1182460D01*
Y48273D01*
X1183134Y44884D01*
X1184456Y41692D01*
X1186376Y38819D01*
X1188819Y36376D01*
X1191692Y34456D01*
X1194884Y33134D01*
X1198272Y32460D01*
X1198730D01*
Y48730D01*
D02*
G37*
G36*
X1069468Y34664D02*
X1067447D01*
X1065580Y33890D01*
X1064151Y32461D01*
X1063588Y31102D01*
X1062879Y30978D01*
X1062204Y30980D01*
X1060878Y32307D01*
X1059010Y33080D01*
X1056990D01*
X1055122Y32307D01*
X1053693Y30878D01*
X1052920Y29011D01*
Y26990D01*
X1053693Y25122D01*
X1055122Y23693D01*
X1056990Y22920D01*
X1059010D01*
X1060878Y23693D01*
X1062307Y25122D01*
X1062869Y26481D01*
X1063578Y26606D01*
X1064253Y26604D01*
X1065580Y25277D01*
X1067447Y24504D01*
X1069468D01*
X1071335Y25277D01*
X1072764Y26706D01*
X1073538Y28573D01*
Y30594D01*
X1072764Y32461D01*
X1071335Y33890D01*
X1069468Y34664D01*
D02*
G37*
G36*
X834010Y39080D02*
X831990D01*
X830122Y38307D01*
X828693Y36878D01*
X827920Y35010D01*
Y32989D01*
X828693Y31122D01*
X830122Y29693D01*
X831990Y28920D01*
X834010D01*
X835878Y29693D01*
X837307Y31122D01*
X838080Y32989D01*
Y35010D01*
X837307Y36878D01*
X835878Y38307D01*
X834010Y39080D01*
D02*
G37*
G36*
X901729Y36499D02*
X892587D01*
Y27675D01*
X901729D01*
Y36499D01*
D02*
G37*
G36*
X611141Y37330D02*
X609120D01*
X607253Y36557D01*
X605824Y35128D01*
X605051Y33261D01*
Y31240D01*
X605824Y29372D01*
X607253Y27943D01*
X609120Y27170D01*
X611141D01*
X613008Y27943D01*
X614437Y29372D01*
X615211Y31240D01*
Y33261D01*
X614437Y35128D01*
X613008Y36557D01*
X611141Y37330D01*
D02*
G37*
G36*
X687540Y35230D02*
X678270D01*
Y25960D01*
X678388D01*
X681068Y26678D01*
X683472Y28066D01*
X685434Y30028D01*
X686822Y32432D01*
X687540Y35112D01*
Y35230D01*
D02*
G37*
G36*
X675730D02*
X666460D01*
Y35112D01*
X667178Y32432D01*
X668566Y30028D01*
X670528Y28066D01*
X672932Y26678D01*
X675612Y25960D01*
X675730D01*
Y35230D01*
D02*
G37*
G36*
X870274Y35234D02*
X869926Y34780D01*
X869216Y33068D01*
X868974Y31230D01*
X869216Y29392D01*
X869926Y27679D01*
X871054Y26209D01*
X872631Y24632D01*
X876754Y28755D01*
X870274Y35234D01*
D02*
G37*
G36*
X966726Y35234D02*
X960246Y28755D01*
X964369Y24632D01*
X965946Y26209D01*
X967074Y27679D01*
X967784Y29392D01*
X968026Y31230D01*
X967784Y33068D01*
X967074Y34780D01*
X966726Y35234D01*
D02*
G37*
G36*
X917070Y29068D02*
X915049D01*
X913182Y28294D01*
X911753Y26865D01*
X910980Y24998D01*
Y23688D01*
X910869Y23556D01*
X909726Y22937D01*
X908324Y23518D01*
X906303D01*
X904436Y22744D01*
X903007Y21315D01*
X902234Y19448D01*
Y17427D01*
X903007Y15560D01*
X904436Y14131D01*
X906303Y13358D01*
X908324D01*
X910191Y14131D01*
X911620Y15560D01*
X912394Y17427D01*
Y18737D01*
X912504Y18870D01*
X913647Y19488D01*
X915049Y18908D01*
X917070D01*
X918937Y19681D01*
X920366Y21110D01*
X921140Y22977D01*
Y24998D01*
X920366Y26865D01*
X918937Y28294D01*
X917070Y29068D01*
D02*
G37*
G36*
X963656Y38485D02*
X956250D01*
X948844D01*
X949060Y37398D01*
X950395Y35400D01*
X952111Y34254D01*
X952501Y32848D01*
X950954Y31301D01*
X949826Y29830D01*
X949116Y28118D01*
X948874Y26280D01*
X949116Y24442D01*
X949826Y22730D01*
X950174Y22275D01*
X957552Y29653D01*
X964930Y37031D01*
X964475Y37379D01*
X963515Y37777D01*
X963656Y38485D01*
D02*
G37*
G36*
X888156D02*
X880750D01*
X873344D01*
X873485Y37777D01*
X872525Y37379D01*
X872070Y37030D01*
X879448Y29653D01*
X886826Y22275D01*
X887174Y22730D01*
X887884Y24442D01*
X888126Y26280D01*
X887884Y28118D01*
X887174Y29830D01*
X886046Y31301D01*
X884499Y32848D01*
X884889Y34254D01*
X886605Y35400D01*
X887940Y37398D01*
X888156Y38485D01*
D02*
G37*
G36*
X958450Y26959D02*
X951970Y20479D01*
X952425Y20131D01*
X954137Y19421D01*
X955975Y19179D01*
X957813Y19421D01*
X959526Y20131D01*
X960996Y21259D01*
X962573Y22836D01*
X958450Y26959D01*
D02*
G37*
G36*
X878550Y26959D02*
X874427Y22836D01*
X876004Y21259D01*
X877475Y20131D01*
X879187Y19421D01*
X881025Y19179D01*
X882863Y19421D01*
X884575Y20131D01*
X885030Y20479D01*
X878550Y26959D01*
D02*
G37*
G36*
X804230Y26972D02*
X802209D01*
X800342Y26199D01*
X798913Y24770D01*
X798140Y22903D01*
Y20882D01*
X798913Y19015D01*
X800342Y17586D01*
X802209Y16812D01*
X804230D01*
X806097Y17586D01*
X807526Y19015D01*
X808300Y20882D01*
Y22903D01*
X807526Y24770D01*
X806097Y26199D01*
X804230Y26972D01*
D02*
G37*
G36*
X941729Y36499D02*
X932587D01*
Y27675D01*
X932923D01*
X933139Y26495D01*
X931272Y25721D01*
X929843Y24292D01*
X929069Y22425D01*
Y20404D01*
X929843Y18537D01*
X931272Y17108D01*
X933139Y16335D01*
X935160D01*
X937027Y17108D01*
X937259Y17340D01*
X937459Y17140D01*
X939326Y16366D01*
X941347D01*
X943214Y17140D01*
X944643Y18569D01*
X945417Y20436D01*
Y22457D01*
X944643Y24324D01*
X943214Y25753D01*
X941639Y26405D01*
X941729Y27675D01*
X941729D01*
Y36499D01*
D02*
G37*
G36*
X128632Y218085D02*
X114093D01*
X99552D01*
Y217441D01*
X100543Y213743D01*
X102458Y210427D01*
X105165Y207720D01*
X106019Y207227D01*
X105690Y206000D01*
X28463D01*
X15847Y193384D01*
Y39228D01*
Y36726D01*
X16823Y31819D01*
X18738Y27196D01*
X21518Y23036D01*
X25055Y19498D01*
X29216Y16719D01*
X33838Y14804D01*
X38745Y13828D01*
X188308D01*
X188737Y13650D01*
X191263D01*
X191692Y13828D01*
X208308D01*
X208737Y13650D01*
X211263D01*
X211692Y13828D01*
X228308D01*
X228737Y13650D01*
X231263D01*
X231692Y13828D01*
X248308D01*
X248737Y13650D01*
X251263D01*
X251692Y13828D01*
X268308D01*
X268737Y13650D01*
X271263D01*
X271692Y13828D01*
X288308D01*
X288737Y13650D01*
X291263D01*
X291692Y13828D01*
X308308D01*
X308737Y13650D01*
X311263D01*
X311692Y13828D01*
X328308D01*
X328737Y13650D01*
X331263D01*
X331692Y13828D01*
X348308D01*
X348737Y13650D01*
X351263D01*
X351692Y13828D01*
X370139D01*
X372217Y12967D01*
X374743D01*
X376821Y13828D01*
X393308D01*
X393737Y13650D01*
X396263D01*
X396692Y13828D01*
X413308D01*
X413737Y13650D01*
X416263D01*
X416692Y13828D01*
X433308D01*
X433737Y13650D01*
X436263D01*
X436692Y13828D01*
X448992D01*
X448992Y13828D01*
X448992Y13828D01*
X478828D01*
X483916Y18917D01*
Y191378D01*
X478089Y197206D01*
X370591D01*
X359685Y186300D01*
X202700D01*
X183000Y206000D01*
X167286D01*
X166137Y206476D01*
X163611D01*
X162463Y206000D01*
X122494D01*
X122166Y207227D01*
X123020Y207720D01*
X125727Y210427D01*
X127642Y213743D01*
X128632Y217441D01*
Y218085D01*
D02*
G37*
%LPD*%
G36*
X444662Y184676D02*
X457000Y172337D01*
X457000Y113013D01*
X455730Y112760D01*
X455383Y113597D01*
X453597Y115383D01*
X451263Y116350D01*
X448737D01*
X446403Y115383D01*
X444617Y113597D01*
X443650Y111263D01*
Y108737D01*
X444617Y106403D01*
X446403Y104617D01*
X448737Y103650D01*
X451263D01*
X453597Y104617D01*
X455383Y106403D01*
X455730Y107240D01*
X457000Y106987D01*
Y93013D01*
X455730Y92760D01*
X455383Y93597D01*
X453597Y95383D01*
X451263Y96350D01*
X448737D01*
X446403Y95383D01*
X444617Y93597D01*
X443650Y91263D01*
Y88737D01*
X444617Y86403D01*
X446403Y84617D01*
X448737Y83650D01*
X451263D01*
X453597Y84617D01*
X455383Y86403D01*
X455730Y87240D01*
X457000Y86987D01*
X457000Y53012D01*
X455730Y52760D01*
X455383Y53597D01*
X453597Y55383D01*
X451263Y56350D01*
X448737D01*
X446403Y55383D01*
X444617Y53597D01*
X443650Y51263D01*
Y48737D01*
X444617Y46403D01*
X446403Y44617D01*
X448737Y43650D01*
X451263D01*
X453597Y44617D01*
X455383Y46403D01*
X455730Y47240D01*
X457000Y46988D01*
Y26911D01*
X450589Y20500D01*
X441350D01*
Y21263D01*
X440383Y23597D01*
X438597Y25383D01*
X436263Y26350D01*
X433737D01*
X431403Y25383D01*
X429617Y23597D01*
X428650Y21263D01*
Y20500D01*
X421350D01*
Y21263D01*
X420383Y23597D01*
X418597Y25383D01*
X416263Y26350D01*
X413737D01*
X411403Y25383D01*
X409617Y23597D01*
X408650Y21263D01*
Y20500D01*
X401350Y20500D01*
Y21263D01*
X400383Y23597D01*
X398597Y25383D01*
X396263Y26350D01*
X393737D01*
X391403Y25383D01*
X389617Y23597D01*
X388650Y21263D01*
Y20500D01*
X379830D01*
Y20580D01*
X378863Y22914D01*
X377077Y24701D01*
X374743Y25667D01*
X372217D01*
X369883Y24701D01*
X368097Y22914D01*
X367130Y20580D01*
Y20500D01*
X356350D01*
Y21263D01*
X355383Y23597D01*
X353597Y25383D01*
X351263Y26350D01*
X348737D01*
X346403Y25383D01*
X344617Y23597D01*
X343650Y21263D01*
Y20500D01*
X336350D01*
Y21263D01*
X335383Y23597D01*
X333597Y25383D01*
X331263Y26350D01*
X328737D01*
X326403Y25383D01*
X324617Y23597D01*
X323650Y21263D01*
Y20500D01*
X316350D01*
Y21263D01*
X315383Y23597D01*
X313597Y25383D01*
X311263Y26350D01*
X308737D01*
X306403Y25383D01*
X304617Y23597D01*
X303650Y21263D01*
Y20500D01*
X296350D01*
Y21263D01*
X295383Y23597D01*
X293597Y25383D01*
X291263Y26350D01*
X288737D01*
X286403Y25383D01*
X284617Y23597D01*
X283650Y21263D01*
X282380Y20500D01*
X276350D01*
Y21263D01*
X275383Y23597D01*
X273597Y25383D01*
X271263Y26350D01*
X268737D01*
X266403Y25383D01*
X264617Y23597D01*
X263650Y21263D01*
Y20500D01*
X259232D01*
X252000Y27732D01*
Y145000D01*
X257862Y150862D01*
X258757Y151757D01*
X258757Y151760D01*
X258757Y169757D01*
X265000Y176000D01*
X390000D01*
X398676Y184676D01*
X444662Y184676D01*
D02*
G37*
%LPC*%
G36*
X272618Y172790D02*
X272500D01*
Y163520D01*
X281770D01*
Y163638D01*
X281052Y166318D01*
X279664Y168722D01*
X277702Y170684D01*
X275299Y172072D01*
X272618Y172790D01*
D02*
G37*
G36*
X269960D02*
X269843D01*
X267162Y172072D01*
X264758Y170684D01*
X262796Y168722D01*
X261409Y166318D01*
X260690Y163638D01*
Y163520D01*
X269960D01*
Y172790D01*
D02*
G37*
G36*
X442783Y159336D02*
X440257D01*
X437923Y158370D01*
X436966Y157413D01*
X435207Y157405D01*
X434691Y157921D01*
X432357Y158888D01*
X429831D01*
X427497Y157921D01*
X425711Y156135D01*
X424744Y153801D01*
Y151275D01*
X425711Y148941D01*
X427497Y147155D01*
X429831Y146188D01*
X432357D01*
X434691Y147155D01*
X435648Y148112D01*
X437407Y148119D01*
X437923Y147603D01*
X440257Y146636D01*
X442783D01*
X445117Y147603D01*
X446903Y149389D01*
X447870Y151723D01*
Y154249D01*
X446903Y156583D01*
X445117Y158370D01*
X442783Y159336D01*
D02*
G37*
G36*
X377654Y165329D02*
X375128D01*
X372794Y164362D01*
X371008Y162576D01*
X370041Y160242D01*
Y157716D01*
X371008Y155382D01*
X372794Y153596D01*
X375128Y152629D01*
X377654D01*
X379988Y153596D01*
X381774Y155382D01*
X382741Y157716D01*
Y160242D01*
X381774Y162576D01*
X379988Y164362D01*
X377654Y165329D01*
D02*
G37*
G36*
X281770Y160980D02*
X272500D01*
Y151710D01*
X272618D01*
X275299Y152429D01*
X277702Y153816D01*
X279664Y155779D01*
X281052Y158182D01*
X281770Y160863D01*
Y160980D01*
D02*
G37*
G36*
X269960D02*
X260690D01*
Y160863D01*
X261409Y158182D01*
X262796Y155779D01*
X264758Y153816D01*
X267162Y152429D01*
X269843Y151710D01*
X269960D01*
Y160980D01*
D02*
G37*
G36*
X409676Y163027D02*
X407150D01*
X404816Y162060D01*
X403030Y160274D01*
X402063Y157940D01*
Y155414D01*
X403030Y153080D01*
X404816Y151294D01*
X407150Y150327D01*
X409676D01*
X412010Y151294D01*
X413796Y153080D01*
X414763Y155414D01*
Y157940D01*
X413796Y160274D01*
X412010Y162060D01*
X409676Y163027D01*
D02*
G37*
G36*
X298743Y152015D02*
X296217D01*
X293883Y151048D01*
X292097Y149262D01*
X291130Y146928D01*
Y144401D01*
X292097Y142067D01*
X293883Y140281D01*
X296217Y139314D01*
X298743D01*
X301077Y140281D01*
X302303Y141507D01*
X303262Y141856D01*
X303948Y141492D01*
X305284Y140155D01*
X307618Y139189D01*
X310144D01*
X312478Y140155D01*
X314265Y141942D01*
X315231Y144276D01*
Y146802D01*
X314265Y149136D01*
X312478Y150922D01*
X310144Y151889D01*
X307618D01*
X305284Y150922D01*
X304058Y149696D01*
X303099Y149347D01*
X302414Y149711D01*
X301077Y151048D01*
X298743Y152015D01*
D02*
G37*
G36*
X431263Y141350D02*
X428737D01*
X426403Y140383D01*
X424617Y138597D01*
X423650Y136263D01*
Y133737D01*
X424617Y131403D01*
X426403Y129617D01*
X428737Y128650D01*
X431263D01*
X433597Y129617D01*
X435383Y131403D01*
X436350Y133737D01*
Y136263D01*
X435383Y138597D01*
X433597Y140383D01*
X431263Y141350D01*
D02*
G37*
G36*
X449763Y138100D02*
X447237D01*
X444903Y137133D01*
X443117Y135347D01*
X442150Y133013D01*
Y130487D01*
X443117Y128153D01*
X444903Y126367D01*
X447237Y125400D01*
X449763D01*
X452097Y126367D01*
X453883Y128153D01*
X454850Y130487D01*
Y133013D01*
X453883Y135347D01*
X452097Y137133D01*
X449763Y138100D01*
D02*
G37*
G36*
X374743Y122517D02*
X372217D01*
X369883Y121551D01*
X368097Y119764D01*
X367130Y117430D01*
Y114904D01*
X368097Y112570D01*
X369883Y110784D01*
X372217Y109817D01*
X374743D01*
X377077Y110784D01*
X378863Y112570D01*
X379830Y114904D01*
Y117430D01*
X378863Y119764D01*
X377077Y121551D01*
X374743Y122517D01*
D02*
G37*
G36*
X431263Y121350D02*
X428737D01*
X426403Y120383D01*
X424617Y118597D01*
X423650Y116263D01*
Y113737D01*
X424617Y111403D01*
X426403Y109617D01*
X428737Y108650D01*
X431263D01*
X433597Y109617D01*
X435383Y111403D01*
X436350Y113737D01*
Y116263D01*
X435383Y118597D01*
X433597Y120383D01*
X431263Y121350D01*
D02*
G37*
G36*
X276393Y127148D02*
X273866D01*
X271532Y126181D01*
X269746Y124395D01*
X268780Y122061D01*
Y119535D01*
X269746Y117201D01*
X271532Y115415D01*
X272128Y115168D01*
X271460Y113556D01*
Y111030D01*
X272427Y108696D01*
X274213Y106910D01*
X276547Y105943D01*
X279073D01*
X281407Y106910D01*
X283193Y108696D01*
X284160Y111030D01*
Y113556D01*
X283193Y115890D01*
X281407Y117676D01*
X280812Y117923D01*
X281479Y119535D01*
Y122061D01*
X280513Y124395D01*
X278727Y126181D01*
X276393Y127148D01*
D02*
G37*
G36*
X304504Y123270D02*
X301978D01*
X299644Y122303D01*
X297857Y120517D01*
X296891Y118183D01*
Y115657D01*
X297857Y113323D01*
X299644Y111537D01*
X301978Y110570D01*
X304504D01*
X306838Y111537D01*
X306838Y111538D01*
X308108Y111011D01*
Y109887D01*
X309075Y107553D01*
X310861Y105767D01*
X313195Y104800D01*
X315721D01*
X318055Y105767D01*
X319841Y107553D01*
X320808Y109887D01*
Y112414D01*
X319841Y114747D01*
X318055Y116534D01*
X315721Y117500D01*
X313195D01*
X310861Y116534D01*
X310861Y116533D01*
X309591Y117059D01*
Y118183D01*
X308624Y120517D01*
X306838Y122303D01*
X304504Y123270D01*
D02*
G37*
G36*
X308892Y95592D02*
X306568D01*
X304421Y94703D01*
X303560Y93842D01*
X302730Y93102D01*
X301901Y93842D01*
X301040Y94703D01*
X298892Y95592D01*
X296568D01*
X294421Y94703D01*
X292778Y93060D01*
X291888Y90912D01*
Y88588D01*
X292778Y86441D01*
X293639Y85580D01*
X294379Y84750D01*
X293639Y83921D01*
X292778Y83060D01*
X291888Y80912D01*
Y78588D01*
X292778Y76441D01*
X294421Y74798D01*
X296568Y73908D01*
X298892D01*
X301040Y74798D01*
X301901Y75659D01*
X302730Y76399D01*
X303560Y75659D01*
X304421Y74798D01*
X306568Y73908D01*
X308892D01*
X311039Y74798D01*
X312683Y76441D01*
X313572Y78588D01*
Y80912D01*
X312683Y83060D01*
X311822Y83921D01*
X311082Y84750D01*
X311822Y85580D01*
X312683Y86441D01*
X313572Y88588D01*
Y90912D01*
X312683Y93060D01*
X311039Y94703D01*
X308892Y95592D01*
D02*
G37*
G36*
X329743Y105492D02*
X327217D01*
X324883Y104525D01*
X323097Y102739D01*
X322130Y100405D01*
Y97879D01*
X323097Y95545D01*
X324883Y93759D01*
X327217Y92792D01*
X329743D01*
X332077Y93759D01*
X333863Y95545D01*
X334830Y97879D01*
Y100405D01*
X333863Y102739D01*
X332077Y104525D01*
X329743Y105492D01*
D02*
G37*
G36*
X431263Y101350D02*
X428737D01*
X426403Y100383D01*
X424617Y98597D01*
X423650Y96263D01*
Y93737D01*
X424617Y91403D01*
X426403Y89617D01*
X428737Y88650D01*
X431263D01*
X433597Y89617D01*
X435383Y91403D01*
X436350Y93737D01*
Y96263D01*
X435383Y98597D01*
X433597Y100383D01*
X431263Y101350D01*
D02*
G37*
G36*
X273576Y99725D02*
X271050D01*
X268716Y98759D01*
X266930Y96972D01*
X265963Y94638D01*
Y92112D01*
X266930Y89778D01*
X268115Y88593D01*
X267150Y86263D01*
Y83737D01*
X268117Y81403D01*
X269903Y79617D01*
X272237Y78650D01*
X274763D01*
X277097Y79617D01*
X278883Y81403D01*
X279850Y83737D01*
Y86263D01*
X278883Y88597D01*
X277698Y89782D01*
X278663Y92112D01*
Y94638D01*
X277696Y96972D01*
X275910Y98759D01*
X273576Y99725D01*
D02*
G37*
G36*
X369013Y88600D02*
X366487D01*
X364153Y87633D01*
X362367Y85847D01*
X361400Y83513D01*
Y80987D01*
X362367Y78653D01*
X364153Y76867D01*
X366487Y75900D01*
X369013D01*
X371347Y76867D01*
X373134Y78653D01*
X374100Y80987D01*
Y83513D01*
X373134Y85847D01*
X371347Y87633D01*
X369013Y88600D01*
D02*
G37*
G36*
X431263Y81350D02*
X428737D01*
X426403Y80383D01*
X424617Y78597D01*
X423650Y76263D01*
Y73737D01*
X424617Y71403D01*
X426403Y69617D01*
X428737Y68650D01*
X431263D01*
X433597Y69617D01*
X435383Y71403D01*
X436350Y73737D01*
Y76263D01*
X435383Y78597D01*
X433597Y80383D01*
X431263Y81350D01*
D02*
G37*
G36*
X331921Y83602D02*
X329394D01*
X327061Y82635D01*
X325274Y80849D01*
X324308Y78515D01*
Y75988D01*
X325274Y73654D01*
X327061Y71868D01*
X329394Y70901D01*
X331921D01*
X332195Y71015D01*
X333465Y70167D01*
Y68646D01*
X334432Y66312D01*
X336218Y64525D01*
X338552Y63559D01*
X341078D01*
X343412Y64525D01*
X345198Y66312D01*
X346165Y68646D01*
Y71172D01*
X345198Y73506D01*
X343412Y75292D01*
X341078Y76259D01*
X338552D01*
X338278Y76145D01*
X337008Y76994D01*
Y78515D01*
X336041Y80849D01*
X334255Y82635D01*
X331921Y83602D01*
D02*
G37*
G36*
X317710Y65350D02*
X315184D01*
X312850Y64384D01*
X311063Y62597D01*
X310932Y62280D01*
X310763Y62350D01*
X308237D01*
X305903Y61383D01*
X304117Y59597D01*
X303150Y57263D01*
Y56435D01*
X301600D01*
Y56866D01*
X300633Y59200D01*
X298847Y60986D01*
X296513Y61953D01*
X294066D01*
X293841Y62497D01*
X292055Y64283D01*
X289721Y65250D01*
X287195D01*
X284861Y64283D01*
X283074Y62497D01*
X282108Y60163D01*
Y57637D01*
X283074Y55303D01*
X284861Y53517D01*
X287195Y52550D01*
X289641D01*
X289867Y52006D01*
X291653Y50219D01*
X293987Y49253D01*
X296224D01*
Y48822D01*
X297190Y46488D01*
X298977Y44702D01*
X301311Y43735D01*
X303837D01*
X306171Y44702D01*
X307957Y46488D01*
X308924Y48822D01*
Y49650D01*
X310763D01*
X313097Y50617D01*
X314883Y52403D01*
X315015Y52720D01*
X315184Y52650D01*
X317710D01*
X320044Y53617D01*
X321830Y55403D01*
X322797Y57737D01*
Y60263D01*
X321830Y62597D01*
X320044Y64384D01*
X317710Y65350D01*
D02*
G37*
G36*
X367643Y63458D02*
X365117D01*
X362783Y62491D01*
X360997Y60705D01*
X360030Y58371D01*
Y55845D01*
X360997Y53511D01*
X362783Y51725D01*
X365117Y50758D01*
X367643D01*
X369977Y51725D01*
X371763Y53511D01*
X372730Y55845D01*
Y58371D01*
X371763Y60705D01*
X369977Y62491D01*
X367643Y63458D01*
D02*
G37*
G36*
X276263Y56350D02*
X273737D01*
X271403Y55383D01*
X269617Y53597D01*
X268650Y51263D01*
Y48737D01*
X269617Y46403D01*
X271403Y44617D01*
X273737Y43650D01*
X276263D01*
X278597Y44617D01*
X280383Y46403D01*
X281350Y48737D01*
Y51263D01*
X280383Y53597D01*
X278597Y55383D01*
X276263Y56350D01*
D02*
G37*
%LPD*%
D11*
X20000Y20000D02*
X50000Y50000D01*
D18*
X1250000Y605000D02*
X1249863Y607613D01*
X1249454Y610198D01*
X1248776Y612725D01*
X1247839Y615168D01*
X1246651Y617500D01*
X1245225Y619695D01*
X1243579Y621728D01*
X1241728Y623578D01*
X1239695Y625225D01*
X1237500Y626651D01*
X1235168Y627839D01*
X1232725Y628776D01*
X1230198Y629454D01*
X1227613Y629863D01*
X1225000Y630000D01*
Y-0D02*
X1227613Y137D01*
X1230198Y546D01*
X1232725Y1223D01*
X1235168Y2161D01*
X1237500Y3349D01*
X1239695Y4775D01*
X1241728Y6421D01*
X1243579Y8272D01*
X1245225Y10305D01*
X1246651Y12500D01*
X1247839Y14832D01*
X1248776Y17275D01*
X1249454Y19802D01*
X1249863Y22387D01*
X1250000Y25000D01*
X25000Y629950D02*
X22387Y629813D01*
X19802Y629403D01*
X17275Y628726D01*
X14832Y627788D01*
X12500Y626600D01*
X10306Y625175D01*
X8272Y623528D01*
X6421Y621678D01*
X4775Y619644D01*
X3350Y617450D01*
X2162Y615118D01*
X1224Y612675D01*
X547Y610147D01*
X137Y607563D01*
X0Y604950D01*
X0Y25000D02*
X137Y22387D01*
X546Y19802D01*
X1224Y17275D01*
X2161Y14832D01*
X3349Y12500D01*
X4775Y10305D01*
X6421Y8272D01*
X8272Y6421D01*
X10305Y4775D01*
X12500Y3349D01*
X14832Y2161D01*
X17275Y1224D01*
X19802Y546D01*
X22387Y137D01*
X25000Y0D01*
X1250000Y605440D02*
X1250000Y25000D01*
X25000Y630000D02*
X1225000Y630000D01*
X25000Y-0D02*
X1225000Y-0D01*
X-0Y25000D02*
X0Y604950D01*
D137*
X86867Y537237D02*
D03*
X833196Y278078D02*
D03*
X854846Y289332D02*
D03*
X880738Y247537D02*
D03*
X827358Y290142D02*
D03*
X1048651Y143605D02*
D03*
X1080915Y147556D02*
D03*
X1139711Y42788D02*
D03*
X1003750Y44844D02*
D03*
X1047668Y32122D02*
D03*
X947968Y290544D02*
D03*
X99436Y424443D02*
D03*
X58770Y412433D02*
D03*
X80733Y412297D02*
D03*
X360164Y94121D02*
D03*
X1072563Y420631D02*
D03*
X233895Y299786D02*
D03*
X288745Y455104D02*
D03*
X538585Y27915D02*
D03*
X538539Y37035D02*
D03*
X538991Y62730D02*
D03*
X287670Y255742D02*
D03*
X411686Y468947D02*
D03*
X589827Y182827D02*
D03*
X619173D02*
D03*
Y212173D02*
D03*
X589827D02*
D03*
X356774Y32008D02*
D03*
X295278Y114331D02*
D03*
X189250Y426759D02*
D03*
X723000Y549750D02*
D03*
X874750Y550250D02*
D03*
X571183Y543836D02*
D03*
X975250Y536000D02*
D03*
X1008000Y567500D02*
D03*
X1003000Y487500D02*
D03*
X1035500Y484000D02*
D03*
X1086178Y433691D02*
D03*
X1065500Y315847D02*
D03*
X1119000Y92000D02*
D03*
X979773Y85784D02*
D03*
X763000Y122750D02*
D03*
X756750Y53500D02*
D03*
X165500Y583750D02*
D03*
X211429Y511373D02*
D03*
X224750Y471000D02*
D03*
X222398Y445642D02*
D03*
X288000Y500750D02*
D03*
X335750Y549500D02*
D03*
X380244Y540682D02*
D03*
X478091Y544484D02*
D03*
X581961Y420085D02*
D03*
X1093750Y415000D02*
D03*
X1155750Y495750D02*
D03*
X1129250Y525250D02*
D03*
X1041250Y598250D02*
D03*
X908600Y422898D02*
D03*
X976101Y511935D02*
D03*
X1078750Y459750D02*
D03*
X1060750Y459500D02*
D03*
X923000Y291500D02*
D03*
X966500Y307000D02*
D03*
X1139750Y55817D02*
D03*
X1004258Y157777D02*
D03*
X1077000Y80000D02*
D03*
X1051500Y76000D02*
D03*
X852981Y76847D02*
D03*
X675000Y171000D02*
D03*
X757500Y198250D02*
D03*
X799000Y156750D02*
D03*
X491750Y69250D02*
D03*
X492761Y139469D02*
D03*
X512966Y207692D02*
D03*
X239027Y456493D02*
D03*
X209000Y371500D02*
D03*
X89869Y414705D02*
D03*
X167625Y409147D02*
D03*
X341500Y493000D02*
D03*
X540250Y506250D02*
D03*
X505250Y539750D02*
D03*
X302166Y536334D02*
D03*
X844500Y486000D02*
D03*
X795000Y472250D02*
D03*
X755000Y511250D02*
D03*
X976750Y562000D02*
D03*
X1125250Y581000D02*
D03*
X1226000Y411500D02*
D03*
X1169250Y395000D02*
D03*
X1097750Y394750D02*
D03*
X1044750Y222750D02*
D03*
X1037166Y179358D02*
D03*
X1030500Y163500D02*
D03*
X980327Y141325D02*
D03*
X1019500Y77750D02*
D03*
X845321Y31532D02*
D03*
X845500Y53000D02*
D03*
X845250Y140500D02*
D03*
X726000Y292750D02*
D03*
X333000Y224250D02*
D03*
X437250Y222500D02*
D03*
X494500Y286750D02*
D03*
X227500Y357000D02*
D03*
X246750Y258000D02*
D03*
X220000Y197250D02*
D03*
X251000Y189750D02*
D03*
X284250D02*
D03*
X316250D02*
D03*
X877997Y144311D02*
D03*
X659378Y146180D02*
D03*
X652747Y224168D02*
D03*
X519675Y352341D02*
D03*
X485333Y469990D02*
D03*
X576729Y522549D02*
D03*
X473542Y522791D02*
D03*
X381558Y461269D02*
D03*
X396500Y490000D02*
D03*
X368810Y517348D02*
D03*
X218250Y534000D02*
D03*
X258500Y471000D02*
D03*
X440961Y451869D02*
D03*
X459996Y351207D02*
D03*
X453000Y288000D02*
D03*
X489250Y221750D02*
D03*
X195436Y213865D02*
D03*
X191593Y356177D02*
D03*
X547500Y542500D02*
D03*
X683750Y394750D02*
D03*
X725000Y394500D02*
D03*
X733750Y422250D02*
D03*
X723000Y355000D02*
D03*
X677000Y358250D02*
D03*
X643000Y376000D02*
D03*
X619250Y400750D02*
D03*
X581000Y350500D02*
D03*
X597750Y314000D02*
D03*
X583250Y293750D02*
D03*
X605000Y288750D02*
D03*
X638500Y287750D02*
D03*
X703250Y288500D02*
D03*
X859750Y233000D02*
D03*
X780000Y284750D02*
D03*
X800500Y265250D02*
D03*
X827500Y237000D02*
D03*
X851750Y213750D02*
D03*
X732205Y228731D02*
D03*
X902198Y306061D02*
D03*
X989011Y347425D02*
D03*
X1047407Y354246D02*
D03*
X1047250Y252750D02*
D03*
X900250Y530000D02*
D03*
X874750Y500000D02*
D03*
X900750Y473500D02*
D03*
X878750Y213000D02*
D03*
X900922Y265569D02*
D03*
X839750Y266250D02*
D03*
X1241925Y394889D02*
D03*
X1240000Y200000D02*
D03*
X858716Y6510D02*
D03*
X840000Y10000D02*
D03*
X810000D02*
D03*
X802255Y30593D02*
D03*
X780000Y10000D02*
D03*
X750000D02*
D03*
X720000D02*
D03*
X690000D02*
D03*
X660000D02*
D03*
X630000D02*
D03*
X600000D02*
D03*
X570000D02*
D03*
X540000D02*
D03*
X510000D02*
D03*
X480000D02*
D03*
X923212Y9327D02*
D03*
X950000Y10000D02*
D03*
X980000D02*
D03*
X1050000D02*
D03*
X1080000D02*
D03*
X1110000D02*
D03*
X1140000D02*
D03*
X1170000D02*
D03*
X1200000D02*
D03*
X1230000D02*
D03*
X1240000Y30000D02*
D03*
Y60000D02*
D03*
X1220000Y90000D02*
D03*
X1240000Y100000D02*
D03*
Y120000D02*
D03*
Y150000D02*
D03*
X1240284Y181109D02*
D03*
X1240000Y420000D02*
D03*
Y450000D02*
D03*
Y480000D02*
D03*
Y510000D02*
D03*
Y540000D02*
D03*
Y570000D02*
D03*
Y600000D02*
D03*
X1230000Y610000D02*
D03*
X1210000Y620000D02*
D03*
X1180000D02*
D03*
X1130000D02*
D03*
X1100000D02*
D03*
X1070000D02*
D03*
X1040000D02*
D03*
X1010000D02*
D03*
X960000D02*
D03*
X930000D02*
D03*
X900000D02*
D03*
X870000D02*
D03*
X840000D02*
D03*
X790000D02*
D03*
X760000D02*
D03*
X700000D02*
D03*
X670000D02*
D03*
X640000D02*
D03*
X610000D02*
D03*
X580000D02*
D03*
X540000D02*
D03*
X510000D02*
D03*
X450000D02*
D03*
X420000D02*
D03*
X390000D02*
D03*
X360000D02*
D03*
X330000D02*
D03*
X298500Y620053D02*
D03*
X270000Y620000D02*
D03*
X240000D02*
D03*
X210000D02*
D03*
X180000D02*
D03*
X150000D02*
D03*
X120000D02*
D03*
X90000D02*
D03*
X60000D02*
D03*
X30000D02*
D03*
X10000Y610000D02*
D03*
Y580000D02*
D03*
Y550000D02*
D03*
Y520000D02*
D03*
Y490000D02*
D03*
Y460000D02*
D03*
Y430000D02*
D03*
Y400000D02*
D03*
Y370000D02*
D03*
Y340000D02*
D03*
Y310000D02*
D03*
Y280000D02*
D03*
Y250000D02*
D03*
Y220000D02*
D03*
X20000Y20000D02*
D03*
X333763Y52989D02*
D03*
X330755Y153118D02*
D03*
X365287Y156603D02*
D03*
X439184Y32250D02*
D03*
X407486Y180580D02*
D03*
X961746Y219841D02*
D03*
X378955Y269592D02*
D03*
X964017Y392699D02*
D03*
X653371Y269071D02*
D03*
X653539Y282091D02*
D03*
X703539Y255870D02*
D03*
X703795Y242462D02*
D03*
X732461Y242139D02*
D03*
X717461Y255870D02*
D03*
X717205Y242462D02*
D03*
X684205Y255962D02*
D03*
X684461Y269370D02*
D03*
X669004Y256090D02*
D03*
X668546Y282147D02*
D03*
X668738Y269041D02*
D03*
X983404Y389562D02*
D03*
X993804Y415474D02*
D03*
X984076Y433121D02*
D03*
X969313Y421829D02*
D03*
X949766Y425716D02*
D03*
X538554Y467905D02*
D03*
X508724Y441208D02*
D03*
X494875Y426797D02*
D03*
X665901Y417793D02*
D03*
X666048Y396689D02*
D03*
X639476Y394231D02*
D03*
X632157Y409304D02*
D03*
X626000Y428000D02*
D03*
X641643Y415661D02*
D03*
X298871Y485951D02*
D03*
X1061349Y335072D02*
D03*
X1183000Y517000D02*
D03*
Y465000D02*
D03*
X1155421Y448422D02*
D03*
X1109773Y508302D02*
D03*
X993250Y496757D02*
D03*
X1047571Y497514D02*
D03*
X1062000Y274758D02*
D03*
X1037194Y274695D02*
D03*
X816000Y53000D02*
D03*
X815000Y133000D02*
D03*
X691536Y183966D02*
D03*
X459917Y330742D02*
D03*
X132369Y459793D02*
D03*
X352041Y189676D02*
D03*
X347792Y255731D02*
D03*
X353959Y255602D02*
D03*
X272529Y209892D02*
D03*
X220392Y209608D02*
D03*
X245785Y222865D02*
D03*
Y232865D02*
D03*
X492980Y170375D02*
D03*
X944525Y120766D02*
D03*
X1047432Y308757D02*
D03*
X1040618Y335613D02*
D03*
X1014291Y10600D02*
D03*
X970093Y236481D02*
D03*
X981108Y252836D02*
D03*
X124477Y501031D02*
D03*
X254527Y504064D02*
D03*
X253105Y575129D02*
D03*
X146921Y527103D02*
D03*
X907250Y122750D02*
D03*
X899250D02*
D03*
X891250D02*
D03*
X1119380Y483878D02*
D03*
X532500Y537500D02*
D03*
X917513Y552446D02*
D03*
X870250Y120250D02*
D03*
X318398Y330861D02*
D03*
X320050Y261304D02*
D03*
X300943Y264833D02*
D03*
X435000Y370000D02*
D03*
X539542Y53568D02*
D03*
X370732Y32250D02*
D03*
X316551Y418132D02*
D03*
X257839Y361723D02*
D03*
X255900Y390004D02*
D03*
X479895Y336640D02*
D03*
X369981Y371269D02*
D03*
X410150Y328880D02*
D03*
X412323Y410969D02*
D03*
X409979Y390144D02*
D03*
X410000Y370000D02*
D03*
Y350000D02*
D03*
X389353Y338353D02*
D03*
X390000Y360000D02*
D03*
Y380000D02*
D03*
Y400000D02*
D03*
X370000Y410000D02*
D03*
Y390000D02*
D03*
Y350000D02*
D03*
Y330000D02*
D03*
X350000Y340000D02*
D03*
Y360000D02*
D03*
Y401040D02*
D03*
Y380000D02*
D03*
X329209Y409616D02*
D03*
X330000Y390000D02*
D03*
Y370000D02*
D03*
Y350000D02*
D03*
Y330000D02*
D03*
X361446Y304003D02*
D03*
X86670Y507518D02*
D03*
X86670Y497499D02*
D03*
X77653Y497888D02*
D03*
X96278Y494992D02*
D03*
X77500Y507085D02*
D03*
Y487500D02*
D03*
X330707Y463191D02*
D03*
X316317Y619472D02*
D03*
X483317D02*
D03*
X983317D02*
D03*
X816317D02*
D03*
X733317Y619472D02*
D03*
X566317D02*
D03*
X357500Y585500D02*
D03*
X1118299Y554787D02*
D03*
X1093196Y529196D02*
D03*
X1048192Y554900D02*
D03*
X936419Y142603D02*
D03*
X793889Y112104D02*
D03*
X652750Y113250D02*
D03*
X869230Y89585D02*
D03*
Y70484D02*
D03*
X930056Y74452D02*
D03*
X915551Y87994D02*
D03*
X947422Y56994D02*
D03*
X937240Y15422D02*
D03*
X887780Y59756D02*
D03*
X901263Y74615D02*
D03*
X1009000Y134000D02*
D03*
X917030Y142429D02*
D03*
X570716Y242990D02*
D03*
X540393Y242561D02*
D03*
X577817Y242956D02*
D03*
X321000Y148750D02*
D03*
X533000Y242810D02*
D03*
X553125Y282750D02*
D03*
X557631Y289760D02*
D03*
X562016Y284027D02*
D03*
X549000Y289118D02*
D03*
X333250Y92500D02*
D03*
X203149Y270276D02*
D03*
X226385Y270000D02*
D03*
X226750Y325000D02*
D03*
X962500Y585500D02*
D03*
X1093079Y495839D02*
D03*
X947500Y585500D02*
D03*
X917500D02*
D03*
X932500D02*
D03*
X947500Y554995D02*
D03*
X947599Y528982D02*
D03*
X917074Y528790D02*
D03*
X1108528Y477180D02*
D03*
X712500Y585500D02*
D03*
X887500Y585500D02*
D03*
X872500D02*
D03*
X857500D02*
D03*
X682500Y585500D02*
D03*
X652500D02*
D03*
X607500D02*
D03*
X622500D02*
D03*
X697500Y554287D02*
D03*
X861172Y424828D02*
D03*
X903000Y416330D02*
D03*
X861172Y454173D02*
D03*
X831827Y424828D02*
D03*
Y454173D02*
D03*
X667500Y554287D02*
D03*
X637500Y554277D02*
D03*
X556305Y422500D02*
D03*
X948493Y404500D02*
D03*
Y392500D02*
D03*
Y380500D02*
D03*
X948000Y368330D02*
D03*
X959750Y275500D02*
D03*
X948000Y360182D02*
D03*
X903000Y404330D02*
D03*
Y392330D02*
D03*
Y380330D02*
D03*
X933800Y280330D02*
D03*
X903000Y360330D02*
D03*
Y368330D02*
D03*
X972000Y266000D02*
D03*
X948000Y268670D02*
D03*
Y256670D02*
D03*
X933800Y244330D02*
D03*
X932000Y236376D02*
D03*
X931825Y216944D02*
D03*
X899508Y276013D02*
D03*
X583826Y396593D02*
D03*
X579204Y379035D02*
D03*
X556500Y402500D02*
D03*
X562000Y369345D02*
D03*
X447500Y585500D02*
D03*
X462500D02*
D03*
X432500D02*
D03*
X417500Y583780D02*
D03*
X372500Y585500D02*
D03*
X387500D02*
D03*
X447500Y528175D02*
D03*
X417213Y528188D02*
D03*
X207507Y478293D02*
D03*
X190457Y532872D02*
D03*
X86875Y525239D02*
D03*
X57945Y523869D02*
D03*
X190858Y519500D02*
D03*
X196838Y493993D02*
D03*
X29125Y507875D02*
D03*
X533986Y449070D02*
D03*
X523000Y440750D02*
D03*
X509500Y408000D02*
D03*
X523500Y393000D02*
D03*
X532333Y324559D02*
D03*
Y308559D02*
D03*
X210216Y457956D02*
D03*
X196167Y443466D02*
D03*
X43375Y468708D02*
D03*
X119430Y424211D02*
D03*
X84410Y428847D02*
D03*
X56914Y427164D02*
D03*
X203514Y325276D02*
D03*
D151*
X258757Y37866D02*
Y103592D01*
Y37866D02*
X264615Y32008D01*
X356774D01*
X270082Y151082D02*
Y161102D01*
X258757Y103592D02*
Y139757D01*
X270082Y161102D02*
X271230Y162250D01*
X258757Y139757D02*
X270082Y151082D01*
D152*
X333272Y92500D02*
X333272Y92500D01*
X358521D02*
X360142Y94121D01*
X333272Y92500D02*
X358521D01*
X360142Y94121D02*
X360164D01*
X291016Y106521D02*
Y110048D01*
X295278Y114309D01*
Y114331D01*
X333272Y92500D02*
Y92500D01*
X333228D02*
X333272D01*
X318918Y91562D02*
X332290D01*
X258757Y103592D02*
X288087D01*
X306889D01*
X332290Y91562D02*
X333228Y92500D01*
X306889Y103592D02*
X318918Y91562D01*
X288087Y103592D02*
X291016Y106521D01*
D161*
X271230Y162250D02*
D03*
X677000Y36500D02*
D03*
D164*
X604500Y197500D02*
D03*
X846500Y439500D02*
D03*
D165*
X880750Y39755D02*
D03*
X956250D02*
D03*
D166*
X878550Y50755D02*
D03*
X958450Y28755D02*
D03*
D167*
X878550D02*
D03*
X958450Y50755D02*
D03*
D172*
X1139500Y219355D02*
D03*
Y380645D02*
D03*
X114093D02*
D03*
Y219355D02*
D03*
D173*
X160500Y462750D02*
D03*
X170500D02*
D03*
Y472750D02*
D03*
X160500D02*
D03*
D175*
X50000Y580000D02*
D03*
X1200000D02*
D03*
Y50000D02*
D03*
X50000D02*
D03*
M02*
