G04*
G04 #@! TF.GenerationSoftware,Altium Limited,Altium Designer,21.2.2 (38)*
G04*
G04 Layer_Color=128*
%FSLAX44Y44*%
%MOMM*%
G71*
G04*
G04 #@! TF.SameCoordinates,2EB6EAD6-5C33-48E4-AA2B-E0AFE4ABDD4A*
G04*
G04*
G04 #@! TF.FilePolarity,Positive*
G04*
G01*
G75*
%ADD18C,0.1500*%
%ADD264C,0.0508*%
D18*
X1250000Y605000D02*
X1249863Y607613D01*
X1249454Y610198D01*
X1248776Y612725D01*
X1247839Y615168D01*
X1246651Y617500D01*
X1245225Y619695D01*
X1243579Y621728D01*
X1241728Y623578D01*
X1239695Y625225D01*
X1237500Y626651D01*
X1235168Y627839D01*
X1232725Y628776D01*
X1230198Y629454D01*
X1227613Y629863D01*
X1225000Y630000D01*
Y-0D02*
X1227613Y137D01*
X1230198Y546D01*
X1232725Y1223D01*
X1235168Y2161D01*
X1237500Y3349D01*
X1239695Y4775D01*
X1241728Y6421D01*
X1243579Y8272D01*
X1245225Y10305D01*
X1246651Y12500D01*
X1247839Y14832D01*
X1248776Y17275D01*
X1249454Y19802D01*
X1249863Y22387D01*
X1250000Y25000D01*
X25000Y629950D02*
X22387Y629813D01*
X19802Y629403D01*
X17275Y628726D01*
X14832Y627788D01*
X12500Y626600D01*
X10306Y625175D01*
X8272Y623528D01*
X6421Y621678D01*
X4775Y619644D01*
X3350Y617450D01*
X2162Y615118D01*
X1224Y612675D01*
X547Y610147D01*
X137Y607563D01*
X0Y604950D01*
X0Y25000D02*
X137Y22387D01*
X546Y19802D01*
X1224Y17275D01*
X2161Y14832D01*
X3349Y12500D01*
X4775Y10305D01*
X6421Y8272D01*
X8272Y6421D01*
X10305Y4775D01*
X12500Y3349D01*
X14832Y2161D01*
X17275Y1224D01*
X19802Y546D01*
X22387Y137D01*
X25000Y0D01*
X1250000Y605440D02*
X1250000Y25000D01*
X25000Y630000D02*
X1225000Y630000D01*
X25000Y-0D02*
X1225000Y-0D01*
X-0Y25000D02*
X0Y604950D01*
D264*
X267230Y162250D02*
X275230D01*
X271230Y158250D02*
Y166250D01*
X242230Y162250D02*
X250230D01*
X246230Y158250D02*
Y166250D01*
X36250Y580000D02*
X63750D01*
X50000Y566250D02*
Y593750D01*
X589500Y197500D02*
X619500D01*
X604500Y182500D02*
Y212500D01*
X878250Y39755D02*
X883250D01*
X880750Y37255D02*
Y42255D01*
X875050Y50755D02*
X882050D01*
X878550Y47255D02*
Y54255D01*
X875050Y28755D02*
X882050D01*
X878550Y25255D02*
Y32255D01*
X954950Y28755D02*
X961950D01*
X958450Y25255D02*
Y32255D01*
X953750Y39755D02*
X958750D01*
X956250Y37255D02*
Y42255D01*
X954950Y50755D02*
X961950D01*
X958450Y47255D02*
Y54255D01*
X673000Y71500D02*
X681000D01*
X677000Y67500D02*
Y75500D01*
X673000Y36500D02*
X681000D01*
X677000Y32500D02*
Y40500D01*
X1154000Y242850D02*
X1186000D01*
X1170000Y226850D02*
Y258850D01*
X1154000Y357150D02*
X1186000D01*
X1170000Y341150D02*
Y373150D01*
X1205500Y233700D02*
X1215700D01*
X1210600Y228600D02*
Y238800D01*
X1205500Y259100D02*
X1215700D01*
X1210600Y254000D02*
Y264200D01*
X1205500Y340900D02*
X1215700D01*
X1210600Y335800D02*
Y346000D01*
X1205500Y366300D02*
X1215700D01*
X1210600Y361200D02*
Y371400D01*
X1127200Y242850D02*
X1136200D01*
X1131700Y238350D02*
Y247350D01*
X1139900Y268250D02*
X1148900D01*
X1144400Y263750D02*
Y272750D01*
X1139900Y331750D02*
X1148900D01*
X1144400Y327250D02*
Y336250D01*
X1127200Y357150D02*
X1136200D01*
X1131700Y352650D02*
Y361650D01*
X1076600Y242850D02*
X1085600D01*
X1081100Y238350D02*
Y247350D01*
X1076600Y268250D02*
X1085600D01*
X1081100Y263750D02*
Y272750D01*
X1076600Y293650D02*
X1085600D01*
X1081100Y289150D02*
Y298150D01*
X1076600Y319050D02*
X1085600D01*
X1081100Y314550D02*
Y323550D01*
X1076600Y344450D02*
X1085600D01*
X1081100Y339950D02*
Y348950D01*
X1102000Y357150D02*
X1111000D01*
X1106500Y352650D02*
Y361650D01*
X1102000Y331750D02*
X1111000D01*
X1106500Y327250D02*
Y336250D01*
X1102000Y306350D02*
X1111000D01*
X1106500Y301850D02*
Y310850D01*
X1102000Y280950D02*
X1111000D01*
X1106500Y276450D02*
Y285450D01*
X1102000Y255550D02*
X1111000D01*
X1106500Y251050D02*
Y260050D01*
X1131000Y219355D02*
X1148000D01*
X1139500Y210855D02*
Y227855D01*
X1131000Y380645D02*
X1148000D01*
X1139500Y372145D02*
Y389145D01*
X1186250Y580000D02*
X1213750D01*
X1200000Y566250D02*
Y593750D01*
X1186250Y50000D02*
X1213750D01*
X1200000Y36250D02*
Y63750D01*
X831500Y439500D02*
X861500D01*
X846500Y424500D02*
Y454500D01*
X105592Y380645D02*
X122592D01*
X114093Y372145D02*
Y389145D01*
X105592Y219355D02*
X122592D01*
X114093Y210855D02*
Y227855D01*
X36250Y50000D02*
X63750D01*
X50000Y36250D02*
Y63750D01*
X67593Y357150D02*
X99593D01*
X83593Y341150D02*
Y373150D01*
X67593Y242850D02*
X99593D01*
X83593Y226850D02*
Y258850D01*
X37892Y366300D02*
X48092D01*
X42993Y361200D02*
Y371400D01*
X37892Y340900D02*
X48092D01*
X42993Y335800D02*
Y346000D01*
X37892Y259100D02*
X48092D01*
X42993Y254000D02*
Y264200D01*
X37892Y233700D02*
X48092D01*
X42993Y228600D02*
Y238800D01*
X117393Y357150D02*
X126392D01*
X121892Y352650D02*
Y361650D01*
X104692Y331750D02*
X113693D01*
X109192Y327250D02*
Y336250D01*
X104692Y268250D02*
X113693D01*
X109192Y263750D02*
Y272750D01*
X117393Y242850D02*
X126392D01*
X121892Y238350D02*
Y247350D01*
X167992Y357150D02*
X176992D01*
X172493Y352650D02*
Y361650D01*
X167992Y331750D02*
X176992D01*
X172493Y327250D02*
Y336250D01*
X167992Y306350D02*
X176992D01*
X172493Y301850D02*
Y310850D01*
X167992Y280950D02*
X176992D01*
X172493Y276450D02*
Y285450D01*
X167992Y255550D02*
X176992D01*
X172493Y251050D02*
Y260050D01*
X142592Y242850D02*
X151593D01*
X147093Y238350D02*
Y247350D01*
X142592Y268250D02*
X151593D01*
X147093Y263750D02*
Y272750D01*
X142592Y293650D02*
X151593D01*
X147093Y289150D02*
Y298150D01*
X142592Y319050D02*
X151593D01*
X147093Y314550D02*
Y323550D01*
X142592Y344450D02*
X151593D01*
X147093Y339950D02*
Y348950D01*
X85597Y537237D02*
X88137D01*
X86867Y535966D02*
Y538507D01*
X831926Y278078D02*
X834466D01*
X833196Y276808D02*
Y279349D01*
X889529Y283981D02*
X892069D01*
X890799Y282711D02*
Y285251D01*
X853576Y289332D02*
X856116D01*
X854846Y288062D02*
Y290602D01*
X1040921Y53208D02*
X1043461D01*
X1042191Y51938D02*
Y54478D01*
X879468Y247537D02*
X882008D01*
X880738Y246267D02*
Y248807D01*
X894230Y232500D02*
X896770D01*
X895500Y231230D02*
Y233770D01*
X826088Y290142D02*
X828628D01*
X827358Y288872D02*
Y291412D01*
X881230Y226250D02*
X883770D01*
X882500Y224980D02*
Y227520D01*
X1047381Y143605D02*
X1049921D01*
X1048651Y142335D02*
Y144875D01*
X1079645Y147556D02*
X1082185D01*
X1080915Y146286D02*
Y148826D01*
X1139730Y159000D02*
X1142270D01*
X1141000Y157730D02*
Y160270D01*
X1138441Y42788D02*
X1140981D01*
X1139711Y41518D02*
Y44058D01*
X1002480Y44844D02*
X1005020D01*
X1003750Y43574D02*
Y46114D01*
X1046398Y32122D02*
X1048938D01*
X1047668Y30852D02*
Y33392D01*
X1067188Y29584D02*
X1069727D01*
X1068457Y28314D02*
Y30854D01*
X946698Y290544D02*
X949238D01*
X947968Y289274D02*
Y291814D01*
X954205Y318587D02*
X956745D01*
X955475Y317317D02*
Y319857D01*
X928392Y321814D02*
X930932D01*
X929662Y320545D02*
Y323084D01*
X98166Y424443D02*
X100706D01*
X99436Y423173D02*
Y425713D01*
X57500Y412433D02*
X60040D01*
X58770Y411163D02*
Y413703D01*
X79463Y412297D02*
X82003D01*
X80733Y411027D02*
Y413567D01*
X659230Y272612D02*
X661770D01*
X660500Y271342D02*
Y273882D01*
X1224730Y165000D02*
X1227270D01*
X1226000Y163730D02*
Y166270D01*
X1223730Y188000D02*
X1226270D01*
X1225000Y186730D02*
Y189270D01*
X1205981Y178045D02*
X1208521D01*
X1207251Y176775D02*
Y179315D01*
X1189730Y187000D02*
X1192270D01*
X1191000Y185730D02*
Y188270D01*
X1171630Y179568D02*
X1174170D01*
X1172900Y178298D02*
Y180838D01*
X1154730Y188000D02*
X1157270D01*
X1156000Y186730D02*
Y189270D01*
X1154730Y167000D02*
X1157270D01*
X1156000Y165730D02*
Y168270D01*
X1139664Y179066D02*
X1142204D01*
X1140934Y177796D02*
Y180336D01*
X1124730Y189000D02*
X1127270D01*
X1126000Y187730D02*
Y190270D01*
X1124730Y168000D02*
X1127270D01*
X1126000Y166730D02*
Y169270D01*
X1096730Y169000D02*
X1099270D01*
X1098000Y167730D02*
Y170270D01*
X1096730Y188000D02*
X1099270D01*
X1098000Y186730D02*
Y189270D01*
X1080730Y180000D02*
X1083270D01*
X1082000Y178730D02*
Y181270D01*
X1080387Y162260D02*
X1082927D01*
X1081657Y160990D02*
Y163530D01*
X1061730Y169000D02*
X1064270D01*
X1063000Y167730D02*
Y170270D01*
X1062730Y187000D02*
X1065270D01*
X1064000Y185730D02*
Y188270D01*
X323405Y305610D02*
X325946D01*
X324675Y304340D02*
Y306880D01*
X358894Y94121D02*
X361434D01*
X360164Y92851D02*
Y95391D01*
X1071293Y420631D02*
X1073833D01*
X1072563Y419361D02*
Y421902D01*
X217835Y54771D02*
X220375D01*
X219105Y53501D02*
Y56041D01*
X217835Y61358D02*
X220375D01*
X219105Y60088D02*
Y62628D01*
X232625Y299786D02*
X235165D01*
X233895Y298516D02*
Y301056D01*
X1207102Y532681D02*
X1209642D01*
X1208372Y531410D02*
Y533951D01*
X228219Y92788D02*
X230759D01*
X229489Y91518D02*
Y94058D01*
X510444Y325748D02*
X512984D01*
X511714Y324478D02*
Y327018D01*
X287475Y455104D02*
X290015D01*
X288745Y453834D02*
Y456374D01*
X469682Y373982D02*
X472222D01*
X470952Y372712D02*
Y375252D01*
X747544Y142675D02*
X750084D01*
X748814Y141405D02*
Y143945D01*
X537315Y27915D02*
X539855D01*
X538585Y26645D02*
Y29185D01*
X537269Y37035D02*
X539809D01*
X538539Y35765D02*
Y38305D01*
X537721Y62730D02*
X540261D01*
X538991Y61460D02*
Y64000D01*
X286400Y255742D02*
X288940D01*
X287670Y254472D02*
Y257012D01*
X374533Y306724D02*
X377073D01*
X375803Y305454D02*
Y307994D01*
X434125Y463911D02*
X436665D01*
X435395Y462641D02*
Y465181D01*
X410416Y468947D02*
X412956D01*
X411686Y467677D02*
Y470217D01*
X159484Y462750D02*
X161516D01*
X160500Y461734D02*
Y463766D01*
X169484Y462750D02*
X171516D01*
X170500Y461734D02*
Y463766D01*
X169484Y472750D02*
X171516D01*
X170500Y471734D02*
Y473766D01*
X159484Y472750D02*
X161516D01*
X160500Y471734D02*
Y473766D01*
X588558Y182827D02*
X591097D01*
X589827Y181558D02*
Y184097D01*
X617902Y182827D02*
X620443D01*
X619173Y181558D02*
Y184097D01*
X617902Y212173D02*
X620443D01*
X619173Y210903D02*
Y213442D01*
X588558Y212173D02*
X591097D01*
X589827Y210903D02*
Y213442D01*
X296714Y79750D02*
X298746D01*
X297730Y78734D02*
Y80766D01*
X296714Y89750D02*
X298746D01*
X297730Y88734D02*
Y90766D01*
X306714Y89750D02*
X308746D01*
X307730Y88734D02*
Y90766D01*
X306714Y79750D02*
X308746D01*
X307730Y78734D02*
Y80766D01*
X121585Y98175D02*
X124125D01*
X122855Y96905D02*
Y99445D01*
X111252Y99602D02*
X113792D01*
X112522Y98332D02*
Y100872D01*
X122673Y73294D02*
X125213D01*
X123943Y72024D02*
Y74564D01*
X131034Y70711D02*
X133574D01*
X132304Y69441D02*
Y71981D01*
X188730Y20000D02*
X191270D01*
X190000Y18730D02*
Y21270D01*
X208730Y20000D02*
X211270D01*
X210000Y18730D02*
Y21270D01*
X202730Y47000D02*
X205270D01*
X204000Y45730D02*
Y48270D01*
X276540Y112293D02*
X279080D01*
X277810Y111023D02*
Y113563D01*
X355504Y32008D02*
X358045D01*
X356774Y30738D02*
Y33278D01*
X371930Y491253D02*
X374470D01*
X373200Y489983D02*
Y492523D01*
X402512Y434082D02*
X405052D01*
X403782Y432812D02*
Y435352D01*
X408951Y433623D02*
X411492D01*
X410221Y432353D02*
Y434893D01*
X294008Y114331D02*
X296548D01*
X295278Y113061D02*
Y115601D01*
X273860Y120798D02*
X276399D01*
X275130Y119528D02*
Y122068D01*
X327210Y99142D02*
X329750D01*
X328480Y97872D02*
Y100412D01*
X375121Y158979D02*
X377661D01*
X376391Y157709D02*
Y160249D01*
X307611Y145539D02*
X310151D01*
X308881Y144269D02*
Y146809D01*
X296210Y145665D02*
X298750D01*
X297480Y144395D02*
Y146934D01*
X273730Y50000D02*
X276270D01*
X275000Y48730D02*
Y51270D01*
X233730Y50000D02*
X236270D01*
X235000Y48730D02*
Y51270D01*
X228730Y20000D02*
X231270D01*
X230000Y18730D02*
Y21270D01*
X248730Y20000D02*
X251270D01*
X250000Y18730D02*
Y21270D01*
X268730Y20000D02*
X271270D01*
X270000Y18730D02*
Y21270D01*
X288730Y20000D02*
X291270D01*
X290000Y18730D02*
Y21270D01*
X308730Y20000D02*
X311270D01*
X310000Y18730D02*
Y21270D01*
X328730Y20000D02*
X331270D01*
X330000Y18730D02*
Y21270D01*
X348730Y20000D02*
X351270D01*
X350000Y18730D02*
Y21270D01*
X372210Y19317D02*
X374750D01*
X373480Y18047D02*
Y20587D01*
X393730Y20000D02*
X396270D01*
X395000Y18730D02*
Y21270D01*
X413730Y20000D02*
X416270D01*
X415000Y18730D02*
Y21270D01*
X448730Y50000D02*
X451270D01*
X450000Y48730D02*
Y51270D01*
X433730Y20000D02*
X436270D01*
X435000Y18730D02*
Y21270D01*
X428730Y95000D02*
X431270D01*
X430000Y93730D02*
Y96270D01*
X428730Y75000D02*
X431270D01*
X430000Y73730D02*
Y76270D01*
X448730Y90000D02*
X451270D01*
X450000Y88730D02*
Y91270D01*
X448730Y110000D02*
X451270D01*
X450000Y108730D02*
Y111270D01*
X428730Y115000D02*
X431270D01*
X430000Y113730D02*
Y116270D01*
X447230Y131750D02*
X449770D01*
X448500Y130480D02*
Y133020D01*
X428730Y135000D02*
X431270D01*
X430000Y133730D02*
Y136270D01*
X187980Y426759D02*
X190520D01*
X189250Y425489D02*
Y428029D01*
X502442Y436212D02*
X504982D01*
X503712Y434942D02*
Y437482D01*
X962083Y426561D02*
X964623D01*
X963353Y425291D02*
Y427831D01*
X956114Y426561D02*
X958654D01*
X957384Y425291D02*
Y427831D01*
X832498Y602011D02*
X835038D01*
X833768Y600741D02*
Y603281D01*
X721730Y549750D02*
X724270D01*
X723000Y548480D02*
Y551020D01*
X873480Y550250D02*
X876020D01*
X874750Y548980D02*
Y551520D01*
X569913Y543836D02*
X572453D01*
X571183Y542566D02*
Y545106D01*
X973980Y536000D02*
X976520D01*
X975250Y534730D02*
Y537270D01*
X1006730Y567500D02*
X1009270D01*
X1008000Y566230D02*
Y568770D01*
X1001730Y487500D02*
X1004270D01*
X1003000Y486230D02*
Y488770D01*
X1034230Y484000D02*
X1036770D01*
X1035500Y482730D02*
Y485270D01*
X1084908Y433691D02*
X1087448D01*
X1086178Y432421D02*
Y434961D01*
X1064230Y315847D02*
X1066770D01*
X1065500Y314577D02*
Y317117D01*
X1117730Y92000D02*
X1120270D01*
X1119000Y90730D02*
Y93270D01*
X978503Y85784D02*
X981043D01*
X979773Y84514D02*
Y87054D01*
X761730Y122750D02*
X764270D01*
X763000Y121480D02*
Y124020D01*
X755480Y53500D02*
X758020D01*
X756750Y52230D02*
Y54770D01*
X164230Y583750D02*
X166770D01*
X165500Y582480D02*
Y585020D01*
X210159Y511373D02*
X212699D01*
X211429Y510103D02*
Y512643D01*
X223480Y471000D02*
X226020D01*
X224750Y469730D02*
Y472270D01*
X221128Y445642D02*
X223668D01*
X222398Y444372D02*
Y446912D01*
X286730Y500750D02*
X289270D01*
X288000Y499480D02*
Y502020D01*
X334480Y549500D02*
X337020D01*
X335750Y548230D02*
Y550770D01*
X378974Y540682D02*
X381514D01*
X380244Y539412D02*
Y541952D01*
X476821Y544484D02*
X479361D01*
X478091Y543214D02*
Y545754D01*
X580691Y420085D02*
X583231D01*
X581961Y418815D02*
Y421355D01*
X1092480Y415000D02*
X1095020D01*
X1093750Y413730D02*
Y416270D01*
X1154480Y495750D02*
X1157020D01*
X1155750Y494480D02*
Y497020D01*
X1127980Y525250D02*
X1130520D01*
X1129250Y523980D02*
Y526520D01*
X1039980Y598250D02*
X1042520D01*
X1041250Y596980D02*
Y599520D01*
X907330Y422898D02*
X909870D01*
X908600Y421628D02*
Y424168D01*
X974831Y511935D02*
X977371D01*
X976101Y510665D02*
Y513205D01*
X1077480Y459750D02*
X1080020D01*
X1078750Y458480D02*
Y461020D01*
X1059480Y459500D02*
X1062020D01*
X1060750Y458230D02*
Y460770D01*
X921730Y291500D02*
X924270D01*
X923000Y290230D02*
Y292770D01*
X965230Y307000D02*
X967770D01*
X966500Y305730D02*
Y308270D01*
X1138480Y55817D02*
X1141020D01*
X1139750Y54547D02*
Y57087D01*
X1002988Y157777D02*
X1005528D01*
X1004258Y156507D02*
Y159047D01*
X1075730Y80000D02*
X1078270D01*
X1077000Y78730D02*
Y81270D01*
X1050230Y76000D02*
X1052770D01*
X1051500Y74730D02*
Y77270D01*
X851711Y76847D02*
X854251D01*
X852981Y75577D02*
Y78117D01*
X673730Y171000D02*
X676270D01*
X675000Y169730D02*
Y172270D01*
X756230Y198250D02*
X758770D01*
X757500Y196980D02*
Y199520D01*
X797730Y156750D02*
X800270D01*
X799000Y155480D02*
Y158020D01*
X490480Y69250D02*
X493020D01*
X491750Y67980D02*
Y70520D01*
X491492Y139469D02*
X494031D01*
X492761Y138199D02*
Y140739D01*
X511696Y207692D02*
X514236D01*
X512966Y206422D02*
Y208962D01*
X235730Y502500D02*
X238270D01*
X237000Y501230D02*
Y503770D01*
X237757Y456493D02*
X240297D01*
X239027Y455223D02*
Y457763D01*
X207730Y371500D02*
X210270D01*
X209000Y370230D02*
Y372770D01*
X88599Y414705D02*
X91139D01*
X89869Y413435D02*
Y415975D01*
X166355Y409147D02*
X168895D01*
X167625Y407877D02*
Y410417D01*
X340230Y493000D02*
X342770D01*
X341500Y491730D02*
Y494270D01*
X538980Y506250D02*
X541520D01*
X540250Y504980D02*
Y507520D01*
X503980Y539750D02*
X506520D01*
X505250Y538480D02*
Y541020D01*
X300896Y536334D02*
X303436D01*
X302166Y535064D02*
Y537604D01*
X843230Y486000D02*
X845770D01*
X844500Y484730D02*
Y487270D01*
X793730Y472250D02*
X796270D01*
X795000Y470980D02*
Y473520D01*
X753730Y511250D02*
X756270D01*
X755000Y509980D02*
Y512520D01*
X975480Y562000D02*
X978020D01*
X976750Y560730D02*
Y563270D01*
X1123980Y581000D02*
X1126520D01*
X1125250Y579730D02*
Y582270D01*
X1224730Y411500D02*
X1227270D01*
X1226000Y410230D02*
Y412770D01*
X1167980Y395000D02*
X1170520D01*
X1169250Y393730D02*
Y396270D01*
X1096480Y394750D02*
X1099020D01*
X1097750Y393480D02*
Y396020D01*
X1043480Y222750D02*
X1046020D01*
X1044750Y221480D02*
Y224020D01*
X1035896Y179358D02*
X1038436D01*
X1037166Y178088D02*
Y180628D01*
X1029230Y163500D02*
X1031770D01*
X1030500Y162230D02*
Y164770D01*
X979057Y141325D02*
X981597D01*
X980327Y140055D02*
Y142594D01*
X1018230Y77750D02*
X1020770D01*
X1019500Y76480D02*
Y79020D01*
X844051Y31532D02*
X846591D01*
X845321Y30262D02*
Y32802D01*
X844230Y53000D02*
X846770D01*
X845500Y51730D02*
Y54270D01*
X843980Y140500D02*
X846520D01*
X845250Y139230D02*
Y141770D01*
X724730Y292750D02*
X727270D01*
X726000Y291480D02*
Y294020D01*
X331730Y224250D02*
X334270D01*
X333000Y222980D02*
Y225520D01*
X435980Y222500D02*
X438520D01*
X437250Y221230D02*
Y223770D01*
X493230Y286750D02*
X495770D01*
X494500Y285480D02*
Y288020D01*
X226230Y357000D02*
X228770D01*
X227500Y355730D02*
Y358270D01*
X245480Y258000D02*
X248020D01*
X246750Y256730D02*
Y259270D01*
X218730Y197250D02*
X221270D01*
X220000Y195980D02*
Y198520D01*
X249730Y189750D02*
X252270D01*
X251000Y188480D02*
Y191020D01*
X282980Y189750D02*
X285520D01*
X284250Y188480D02*
Y191020D01*
X314980Y189750D02*
X317520D01*
X316250Y188480D02*
Y191020D01*
X876727Y144311D02*
X879267D01*
X877997Y143041D02*
Y145581D01*
X658108Y146180D02*
X660648D01*
X659378Y144910D02*
Y147450D01*
X651477Y224168D02*
X654017D01*
X652747Y222898D02*
Y225438D01*
X518405Y352341D02*
X520945D01*
X519675Y351071D02*
Y353611D01*
X484063Y469990D02*
X486603D01*
X485333Y468720D02*
Y471260D01*
X575459Y522549D02*
X577999D01*
X576729Y521279D02*
Y523819D01*
X472272Y522791D02*
X474812D01*
X473542Y521521D02*
Y524061D01*
X380288Y461269D02*
X382828D01*
X381558Y459999D02*
Y462539D01*
X395230Y490000D02*
X397770D01*
X396500Y488730D02*
Y491270D01*
X367540Y517348D02*
X370080D01*
X368810Y516078D02*
Y518618D01*
X216980Y534000D02*
X219520D01*
X218250Y532730D02*
Y535270D01*
X257230Y471000D02*
X259770D01*
X258500Y469730D02*
Y472270D01*
X439691Y451869D02*
X442231D01*
X440961Y450599D02*
Y453139D01*
X458726Y351207D02*
X461266D01*
X459996Y349937D02*
Y352477D01*
X467012Y398434D02*
X469552D01*
X468282Y397164D02*
Y399704D01*
X458697Y407599D02*
X461237D01*
X459967Y406329D02*
Y408869D01*
X451730Y288000D02*
X454270D01*
X453000Y286730D02*
Y289270D01*
X487980Y221750D02*
X490520D01*
X489250Y220480D02*
Y223020D01*
X194166Y213865D02*
X196706D01*
X195436Y212595D02*
Y215135D01*
X190322Y356177D02*
X192862D01*
X191593Y354907D02*
Y357447D01*
X546230Y542500D02*
X548770D01*
X547500Y541230D02*
Y543770D01*
X682480Y394750D02*
X685020D01*
X683750Y393480D02*
Y396020D01*
X723730Y394500D02*
X726270D01*
X725000Y393230D02*
Y395770D01*
X732480Y422250D02*
X735020D01*
X733750Y420980D02*
Y423520D01*
X721730Y355000D02*
X724270D01*
X723000Y353730D02*
Y356270D01*
X675730Y358250D02*
X678270D01*
X677000Y356980D02*
Y359520D01*
X641730Y376000D02*
X644270D01*
X643000Y374730D02*
Y377270D01*
X617980Y400750D02*
X620520D01*
X619250Y399480D02*
Y402020D01*
X579730Y350500D02*
X582270D01*
X581000Y349230D02*
Y351770D01*
X596480Y314000D02*
X599020D01*
X597750Y312730D02*
Y315270D01*
X581980Y293750D02*
X584520D01*
X583250Y292480D02*
Y295020D01*
X603730Y288750D02*
X606270D01*
X605000Y287480D02*
Y290020D01*
X637230Y287750D02*
X639770D01*
X638500Y286480D02*
Y289020D01*
X701980Y288500D02*
X704520D01*
X703250Y287230D02*
Y289770D01*
X858480Y233000D02*
X861020D01*
X859750Y231730D02*
Y234270D01*
X778730Y284750D02*
X781270D01*
X780000Y283480D02*
Y286020D01*
X799230Y265250D02*
X801770D01*
X800500Y263980D02*
Y266520D01*
X826230Y237000D02*
X828770D01*
X827500Y235730D02*
Y238270D01*
X850480Y213750D02*
X853020D01*
X851750Y212480D02*
Y215020D01*
X730935Y228731D02*
X733475D01*
X732205Y227461D02*
Y230002D01*
X900928Y306061D02*
X903468D01*
X902198Y304792D02*
Y307332D01*
X987741Y347425D02*
X990281D01*
X989011Y346155D02*
Y348695D01*
X1046137Y354246D02*
X1048677D01*
X1047407Y352976D02*
Y355516D01*
X1045980Y252750D02*
X1048520D01*
X1047250Y251480D02*
Y254020D01*
X898980Y530000D02*
X901520D01*
X900250Y528730D02*
Y531270D01*
X873480Y500000D02*
X876020D01*
X874750Y498730D02*
Y501270D01*
X899480Y473500D02*
X902020D01*
X900750Y472230D02*
Y474770D01*
X877480Y213000D02*
X880020D01*
X878750Y211730D02*
Y214270D01*
X899652Y265569D02*
X902192D01*
X900922Y264299D02*
Y266839D01*
X838480Y266250D02*
X841020D01*
X839750Y264980D02*
Y267520D01*
X1240655Y394889D02*
X1243195D01*
X1241925Y393619D02*
Y396159D01*
X1238730Y200000D02*
X1241270D01*
X1240000Y198730D02*
Y201270D01*
X857446Y6510D02*
X859986D01*
X858716Y5240D02*
Y7780D01*
X838730Y10000D02*
X841270D01*
X840000Y8730D02*
Y11270D01*
X808730Y10000D02*
X811270D01*
X810000Y8730D02*
Y11270D01*
X831730Y34000D02*
X834270D01*
X833000Y32730D02*
Y35270D01*
X800985Y30593D02*
X803525D01*
X802255Y29323D02*
Y31863D01*
X801950Y21892D02*
X804490D01*
X803220Y20622D02*
Y23162D01*
X778730Y10000D02*
X781270D01*
X780000Y8730D02*
Y11270D01*
X748730Y10000D02*
X751270D01*
X750000Y8730D02*
Y11270D01*
X718730Y10000D02*
X721270D01*
X720000Y8730D02*
Y11270D01*
X688730Y10000D02*
X691270D01*
X690000Y8730D02*
Y11270D01*
X658730Y10000D02*
X661270D01*
X660000Y8730D02*
Y11270D01*
X628730Y10000D02*
X631270D01*
X630000Y8730D02*
Y11270D01*
X598730Y10000D02*
X601270D01*
X600000Y8730D02*
Y11270D01*
X568730Y10000D02*
X571270D01*
X570000Y8730D02*
Y11270D01*
X538730Y10000D02*
X541270D01*
X540000Y8730D02*
Y11270D01*
X508730Y10000D02*
X511270D01*
X510000Y8730D02*
Y11270D01*
X478730Y10000D02*
X481270D01*
X480000Y8730D02*
Y11270D01*
X921942Y9327D02*
X924482D01*
X923212Y8056D02*
Y10596D01*
X948730Y10000D02*
X951270D01*
X950000Y8730D02*
Y11270D01*
X978730Y10000D02*
X981270D01*
X980000Y8730D02*
Y11270D01*
X1048730Y10000D02*
X1051270D01*
X1050000Y8730D02*
Y11270D01*
X1078730Y10000D02*
X1081270D01*
X1080000Y8730D02*
Y11270D01*
X1108730Y10000D02*
X1111270D01*
X1110000Y8730D02*
Y11270D01*
X1138730Y10000D02*
X1141270D01*
X1140000Y8730D02*
Y11270D01*
X1168730Y10000D02*
X1171270D01*
X1170000Y8730D02*
Y11270D01*
X1198730Y10000D02*
X1201270D01*
X1200000Y8730D02*
Y11270D01*
X1228730Y10000D02*
X1231270D01*
X1230000Y8730D02*
Y11270D01*
X1238730Y30000D02*
X1241270D01*
X1240000Y28730D02*
Y31270D01*
X1238730Y60000D02*
X1241270D01*
X1240000Y58730D02*
Y61270D01*
X1218730Y90000D02*
X1221270D01*
X1220000Y88730D02*
Y91270D01*
X1238730Y100000D02*
X1241270D01*
X1240000Y98730D02*
Y101270D01*
X1238730Y120000D02*
X1241270D01*
X1240000Y118730D02*
Y121270D01*
X1238730Y150000D02*
X1241270D01*
X1240000Y148730D02*
Y151270D01*
X1239014Y181109D02*
X1241554D01*
X1240284Y179839D02*
Y182379D01*
X1238730Y420000D02*
X1241270D01*
X1240000Y418730D02*
Y421270D01*
X1238730Y450000D02*
X1241270D01*
X1240000Y448730D02*
Y451270D01*
X1238730Y480000D02*
X1241270D01*
X1240000Y478730D02*
Y481270D01*
X1238730Y510000D02*
X1241270D01*
X1240000Y508730D02*
Y511270D01*
X1238730Y540000D02*
X1241270D01*
X1240000Y538730D02*
Y541270D01*
X1238730Y570000D02*
X1241270D01*
X1240000Y568730D02*
Y571270D01*
X1238730Y600000D02*
X1241270D01*
X1240000Y598730D02*
Y601270D01*
X1228730Y610000D02*
X1231270D01*
X1230000Y608730D02*
Y611270D01*
X1208730Y620000D02*
X1211270D01*
X1210000Y618730D02*
Y621270D01*
X1178730Y620000D02*
X1181270D01*
X1180000Y618730D02*
Y621270D01*
X1128730Y620000D02*
X1131270D01*
X1130000Y618730D02*
Y621270D01*
X1098730Y620000D02*
X1101270D01*
X1100000Y618730D02*
Y621270D01*
X1068730Y620000D02*
X1071270D01*
X1070000Y618730D02*
Y621270D01*
X1038730Y620000D02*
X1041270D01*
X1040000Y618730D02*
Y621270D01*
X1008730Y620000D02*
X1011270D01*
X1010000Y618730D02*
Y621270D01*
X958730Y620000D02*
X961270D01*
X960000Y618730D02*
Y621270D01*
X928730Y620000D02*
X931270D01*
X930000Y618730D02*
Y621270D01*
X898730Y620000D02*
X901270D01*
X900000Y618730D02*
Y621270D01*
X868730Y620000D02*
X871270D01*
X870000Y618730D02*
Y621270D01*
X838730Y620000D02*
X841270D01*
X840000Y618730D02*
Y621270D01*
X788730Y620000D02*
X791270D01*
X790000Y618730D02*
Y621270D01*
X758730Y620000D02*
X761270D01*
X760000Y618730D02*
Y621270D01*
X698730Y620000D02*
X701270D01*
X700000Y618730D02*
Y621270D01*
X668730Y620000D02*
X671270D01*
X670000Y618730D02*
Y621270D01*
X638730Y620000D02*
X641270D01*
X640000Y618730D02*
Y621270D01*
X608730Y620000D02*
X611270D01*
X610000Y618730D02*
Y621270D01*
X578730Y620000D02*
X581270D01*
X580000Y618730D02*
Y621270D01*
X538730Y620000D02*
X541270D01*
X540000Y618730D02*
Y621270D01*
X508730Y620000D02*
X511270D01*
X510000Y618730D02*
Y621270D01*
X448730Y620000D02*
X451270D01*
X450000Y618730D02*
Y621270D01*
X418730Y620000D02*
X421270D01*
X420000Y618730D02*
Y621270D01*
X388730Y620000D02*
X391270D01*
X390000Y618730D02*
Y621270D01*
X358730Y620000D02*
X361270D01*
X360000Y618730D02*
Y621270D01*
X328730Y620000D02*
X331270D01*
X330000Y618730D02*
Y621270D01*
X297230Y620053D02*
X299770D01*
X298500Y618783D02*
Y621323D01*
X268730Y620000D02*
X271270D01*
X270000Y618730D02*
Y621270D01*
X238730Y620000D02*
X241270D01*
X240000Y618730D02*
Y621270D01*
X208730Y620000D02*
X211270D01*
X210000Y618730D02*
Y621270D01*
X178730Y620000D02*
X181270D01*
X180000Y618730D02*
Y621270D01*
X148730Y620000D02*
X151270D01*
X150000Y618730D02*
Y621270D01*
X118730Y620000D02*
X121270D01*
X120000Y618730D02*
Y621270D01*
X88730Y620000D02*
X91270D01*
X90000Y618730D02*
Y621270D01*
X58730Y620000D02*
X61270D01*
X60000Y618730D02*
Y621270D01*
X28730Y620000D02*
X31270D01*
X30000Y618730D02*
Y621270D01*
X8730Y610000D02*
X11270D01*
X10000Y608730D02*
Y611270D01*
X8730Y580000D02*
X11270D01*
X10000Y578730D02*
Y581270D01*
X8730Y550000D02*
X11270D01*
X10000Y548730D02*
Y551270D01*
X8730Y520000D02*
X11270D01*
X10000Y518730D02*
Y521270D01*
X8730Y490000D02*
X11270D01*
X10000Y488730D02*
Y491270D01*
X8730Y460000D02*
X11270D01*
X10000Y458730D02*
Y461270D01*
X8730Y430000D02*
X11270D01*
X10000Y428730D02*
Y431270D01*
X8730Y400000D02*
X11270D01*
X10000Y398730D02*
Y401270D01*
X8730Y370000D02*
X11270D01*
X10000Y368730D02*
Y371270D01*
X8730Y340000D02*
X11270D01*
X10000Y338730D02*
Y341270D01*
X8730Y310000D02*
X11270D01*
X10000Y308730D02*
Y311270D01*
X8730Y280000D02*
X11270D01*
X10000Y278730D02*
Y281270D01*
X8730Y250000D02*
X11270D01*
X10000Y248730D02*
Y251270D01*
X8730Y220000D02*
X11270D01*
X10000Y218730D02*
Y221270D01*
X18730Y20000D02*
X21270D01*
X20000Y18730D02*
Y21270D01*
X301304Y50085D02*
X303844D01*
X302574Y48815D02*
Y51355D01*
X332493Y52989D02*
X335033D01*
X333763Y51719D02*
Y54259D01*
X329485Y153118D02*
X332025D01*
X330755Y151848D02*
Y154389D01*
X407143Y156677D02*
X409683D01*
X408413Y155407D02*
Y157947D01*
X364017Y156603D02*
X366557D01*
X365287Y155333D02*
Y157873D01*
X437914Y32250D02*
X440454D01*
X439184Y30980D02*
Y33520D01*
X429824Y152538D02*
X432364D01*
X431094Y151268D02*
Y153808D01*
X440250Y152986D02*
X442790D01*
X441520Y151716D02*
Y154256D01*
X406216Y180580D02*
X408756D01*
X407486Y179310D02*
Y181850D01*
X912577Y40000D02*
X915117D01*
X913847Y38730D02*
Y41270D01*
X921884Y39510D02*
X924424D01*
X923154Y38240D02*
Y40780D01*
X960476Y219841D02*
X963016D01*
X961746Y218571D02*
Y221111D01*
X867830Y239967D02*
X870370D01*
X869100Y238697D02*
Y241237D01*
X377685Y269592D02*
X380225D01*
X378955Y268323D02*
Y270863D01*
X368230Y269750D02*
X370770D01*
X369500Y268480D02*
Y271020D01*
X963205Y264482D02*
X965745D01*
X964475Y263212D02*
Y265752D01*
X958985Y268702D02*
X961525D01*
X960255Y267432D02*
Y269972D01*
X960480Y227281D02*
X963020D01*
X961750Y226011D02*
Y228551D01*
X960480Y233250D02*
X963020D01*
X961750Y231980D02*
Y234520D01*
X628260Y421120D02*
X630799D01*
X629529Y419850D02*
Y422390D01*
X632480Y416899D02*
X635020D01*
X633750Y415629D02*
Y418169D01*
X987610Y421112D02*
X990150D01*
X988880Y419842D02*
Y422382D01*
X983389Y425332D02*
X985929D01*
X984659Y424062D02*
Y426603D01*
X938255Y445552D02*
X940795D01*
X939525Y444282D02*
Y446822D01*
X937882Y453698D02*
X940422D01*
X939152Y452427D02*
Y454967D01*
X1024643Y462836D02*
X1027184D01*
X1025913Y461566D02*
Y464106D01*
X1034143Y471357D02*
X1036683D01*
X1035413Y470087D02*
Y472627D01*
X1035316Y455128D02*
X1037856D01*
X1036586Y453858D02*
Y456398D01*
X1008878Y475543D02*
X1011418D01*
X1010148Y474273D02*
Y476813D01*
X962747Y392699D02*
X965287D01*
X964017Y391429D02*
Y393969D01*
X652101Y269071D02*
X654641D01*
X653371Y267801D02*
Y270341D01*
X652269Y282091D02*
X654809D01*
X653539Y280821D02*
Y283361D01*
X702269Y255870D02*
X704809D01*
X703539Y254600D02*
Y257140D01*
X702525Y242462D02*
X705065D01*
X703795Y241192D02*
Y243732D01*
X731191Y242139D02*
X733731D01*
X732461Y240870D02*
Y243410D01*
X716191Y255870D02*
X718731D01*
X717461Y254600D02*
Y257140D01*
X715935Y242462D02*
X718475D01*
X717205Y241192D02*
Y243732D01*
X682935Y255962D02*
X685475D01*
X684205Y254692D02*
Y257232D01*
X683191Y269370D02*
X685731D01*
X684461Y268100D02*
Y270640D01*
X667734Y256090D02*
X670274D01*
X669004Y254820D02*
Y257360D01*
X667276Y282147D02*
X669816D01*
X668546Y280877D02*
Y283417D01*
X667468Y269041D02*
X670008D01*
X668738Y267771D02*
Y270311D01*
X982134Y389562D02*
X984675D01*
X983404Y388292D02*
Y390832D01*
X992534Y415474D02*
X995074D01*
X993804Y414204D02*
Y416744D01*
X982806Y433121D02*
X985346D01*
X984076Y431851D02*
Y434391D01*
X968043Y421829D02*
X970583D01*
X969313Y420559D02*
Y423099D01*
X948496Y425716D02*
X951036D01*
X949766Y424446D02*
Y426986D01*
X537284Y467905D02*
X539824D01*
X538554Y466634D02*
Y469174D01*
X507454Y441208D02*
X509994D01*
X508724Y439938D02*
Y442478D01*
X493605Y426797D02*
X496145D01*
X494875Y425527D02*
Y428067D01*
X664632Y417793D02*
X667171D01*
X665901Y416523D02*
Y419063D01*
X664778Y396689D02*
X667318D01*
X666048Y395419D02*
Y397959D01*
X638206Y394231D02*
X640746D01*
X639476Y392961D02*
Y395501D01*
X630887Y409304D02*
X633427D01*
X632157Y408034D02*
Y410574D01*
X624730Y428000D02*
X627270D01*
X626000Y426730D02*
Y429270D01*
X640373Y415661D02*
X642913D01*
X641643Y414391D02*
Y416931D01*
X297602Y485951D02*
X300142D01*
X298871Y484682D02*
Y487221D01*
X1060079Y335072D02*
X1062619D01*
X1061349Y333802D02*
Y336342D01*
X1181730Y517000D02*
X1184270D01*
X1183000Y515730D02*
Y518270D01*
X1181730Y465000D02*
X1184270D01*
X1183000Y463730D02*
Y466270D01*
X1154151Y448422D02*
X1156691D01*
X1155421Y447152D02*
Y449692D01*
X1108503Y508302D02*
X1111043D01*
X1109773Y507032D02*
Y509572D01*
X991980Y496757D02*
X994520D01*
X993250Y495487D02*
Y498027D01*
X1046301Y497514D02*
X1048841D01*
X1047571Y496244D02*
Y498784D01*
X1060730Y274758D02*
X1063270D01*
X1062000Y273488D02*
Y276028D01*
X1035924Y274695D02*
X1038464D01*
X1037194Y273425D02*
Y275965D01*
X814730Y53000D02*
X817270D01*
X816000Y51730D02*
Y54270D01*
X813730Y133000D02*
X816270D01*
X815000Y131730D02*
Y134270D01*
X690266Y183966D02*
X692806D01*
X691536Y182696D02*
Y185236D01*
X458647Y330742D02*
X461187D01*
X459917Y329472D02*
Y332012D01*
X122196Y486571D02*
X124736D01*
X123466Y485301D02*
Y487841D01*
X131099Y459793D02*
X133639D01*
X132369Y458523D02*
Y461063D01*
X138032Y480164D02*
X140572D01*
X139302Y478894D02*
Y481434D01*
X138053Y474068D02*
X140592D01*
X139323Y472798D02*
Y475338D01*
X108712Y476945D02*
X111252D01*
X109982Y475675D02*
Y478215D01*
X350771Y189676D02*
X353311D01*
X352041Y188406D02*
Y190946D01*
X346522Y255731D02*
X349062D01*
X347792Y254461D02*
Y257001D01*
X352689Y255602D02*
X355229D01*
X353959Y254332D02*
Y256872D01*
X271259Y209892D02*
X273799D01*
X272529Y208622D02*
Y211162D01*
X219122Y209608D02*
X221662D01*
X220392Y208338D02*
Y210878D01*
X244515Y222865D02*
X247055D01*
X245785Y221595D02*
Y224135D01*
X244515Y232865D02*
X247055D01*
X245785Y231595D02*
Y234135D01*
X491710Y170375D02*
X494250D01*
X492980Y169105D02*
Y171645D01*
X943255Y120766D02*
X945795D01*
X944525Y119496D02*
Y122036D01*
X1046162Y308757D02*
X1048702D01*
X1047432Y307488D02*
Y310028D01*
X1027480Y368750D02*
X1030020D01*
X1028750Y367480D02*
Y370020D01*
X1027980Y376750D02*
X1030520D01*
X1029250Y375480D02*
Y378020D01*
X1039348Y335613D02*
X1041888D01*
X1040618Y334343D02*
Y336883D01*
X1013021Y10600D02*
X1015561D01*
X1014291Y9330D02*
Y11870D01*
X968823Y236481D02*
X971363D01*
X970093Y235211D02*
Y237751D01*
X979838Y252836D02*
X982378D01*
X981108Y251566D02*
Y254106D01*
X956089Y284250D02*
X958629D01*
X957359Y282980D02*
Y285520D01*
X950120Y284250D02*
X952660D01*
X951390Y282980D02*
Y285520D01*
X922278Y258367D02*
X924818D01*
X923548Y257097D02*
Y259637D01*
X918214Y264173D02*
X920754D01*
X919484Y262903D02*
Y265443D01*
X892554Y272215D02*
X895094D01*
X893824Y270945D02*
Y273485D01*
X626230Y554750D02*
X628770D01*
X627500Y553480D02*
Y556020D01*
X631230Y526431D02*
X633770D01*
X632500Y525160D02*
Y527701D01*
X164692Y99750D02*
X167232D01*
X165962Y98480D02*
Y101020D01*
X163730Y107758D02*
X166270D01*
X165000Y106488D02*
Y109028D01*
X159706Y84660D02*
X162246D01*
X160976Y83390D02*
Y85930D01*
X154703Y88907D02*
X157243D01*
X155973Y87637D02*
Y90177D01*
X158730Y140000D02*
X161270D01*
X160000Y138730D02*
Y141270D01*
X151230Y152500D02*
X153770D01*
X152500Y151230D02*
Y153770D01*
X169105Y196729D02*
X171645D01*
X170375Y195459D02*
Y197999D01*
X163604Y200126D02*
X166144D01*
X164874Y198856D02*
Y201396D01*
X163604Y193140D02*
X166144D01*
X164874Y191870D02*
Y194410D01*
X167778Y169438D02*
X170318D01*
X169048Y168168D02*
Y170708D01*
X134066Y169578D02*
X136606D01*
X135336Y168308D02*
Y170848D01*
X65225Y146665D02*
X67765D01*
X66495Y145395D02*
Y147935D01*
X46959Y195419D02*
X49499D01*
X48229Y194149D02*
Y196689D01*
X41469Y186963D02*
X44009D01*
X42739Y185693D02*
Y188233D01*
X83930Y169500D02*
X86470D01*
X85200Y168230D02*
Y170770D01*
X50683Y137796D02*
X53223D01*
X51953Y136526D02*
Y139066D01*
X43526Y140376D02*
X46066D01*
X44796Y139106D02*
Y141646D01*
X59078Y137680D02*
X61618D01*
X60348Y136410D02*
Y138950D01*
X98730Y120000D02*
X101270D01*
X100000Y118730D02*
Y121270D01*
X98730Y130000D02*
X101270D01*
X100000Y128730D02*
Y131270D01*
X98683Y140047D02*
X101223D01*
X99953Y138777D02*
Y141317D01*
X41225Y178859D02*
X43765D01*
X42495Y177589D02*
Y180129D01*
X1048480Y532250D02*
X1051020D01*
X1049750Y530980D02*
Y533520D01*
X976729Y522001D02*
X979269D01*
X977999Y520731D02*
Y523271D01*
X136730Y572250D02*
X139270D01*
X138000Y570980D02*
Y573520D01*
X92818Y468425D02*
X95358D01*
X94088Y467155D02*
Y469695D01*
X83480Y454000D02*
X86020D01*
X84750Y452730D02*
Y455270D01*
X123207Y501031D02*
X125747D01*
X124477Y499761D02*
Y502301D01*
X267742Y520796D02*
X270282D01*
X269012Y519526D02*
Y522066D01*
X253257Y504064D02*
X255797D01*
X254527Y502794D02*
Y505334D01*
X282730Y514000D02*
X285270D01*
X284000Y512730D02*
Y515270D01*
X234927Y551455D02*
X237467D01*
X236197Y550185D02*
Y552725D01*
X251835Y575129D02*
X254375D01*
X253105Y573859D02*
Y576399D01*
X145651Y527103D02*
X148191D01*
X146921Y525833D02*
Y528373D01*
X112610Y549036D02*
X115149D01*
X113879Y547766D02*
Y550306D01*
X118172Y525815D02*
X120712D01*
X119442Y524545D02*
Y527085D01*
X118172Y518610D02*
X120712D01*
X119442Y517340D02*
Y519880D01*
X173980Y513500D02*
X176520D01*
X175250Y512230D02*
Y514770D01*
X360015Y432981D02*
X362555D01*
X361285Y431711D02*
Y434251D01*
X364086Y490715D02*
X366626D01*
X365356Y489445D02*
Y491985D01*
X469624Y324178D02*
X472164D01*
X470894Y322908D02*
Y325448D01*
X208445Y235512D02*
X210985D01*
X209715Y234242D02*
Y236782D01*
X201595Y235365D02*
X204135D01*
X202865Y234095D02*
Y236635D01*
X551230Y162500D02*
X553770D01*
X552500Y161230D02*
Y163770D01*
X703730Y120000D02*
X706270D01*
X705000Y118730D02*
Y121270D01*
X703730Y130000D02*
X706270D01*
X705000Y128730D02*
Y131270D01*
X713730Y120000D02*
X716270D01*
X715000Y118730D02*
Y121270D01*
X713730Y130000D02*
X716270D01*
X715000Y128730D02*
Y131270D01*
X723730Y120000D02*
X726270D01*
X725000Y118730D02*
Y121270D01*
X723730Y130000D02*
X726270D01*
X725000Y128730D02*
Y131270D01*
X733730Y120000D02*
X736270D01*
X735000Y118730D02*
Y121270D01*
X733730Y130000D02*
X736270D01*
X735000Y128730D02*
Y131270D01*
X743730Y120000D02*
X746270D01*
X745000Y118730D02*
Y121270D01*
X743730Y130000D02*
X746270D01*
X745000Y128730D02*
Y131270D01*
X868730Y135000D02*
X871270D01*
X870000Y133730D02*
Y136270D01*
X793797Y118344D02*
X796337D01*
X795067Y117074D02*
Y119614D01*
X905980Y122750D02*
X908520D01*
X907250Y121480D02*
Y124020D01*
X897980Y122750D02*
X900520D01*
X899250Y121480D02*
Y124020D01*
X889980Y122750D02*
X892520D01*
X891250Y121480D02*
Y124020D01*
X976230Y132500D02*
X978770D01*
X977500Y131230D02*
Y133770D01*
X976230Y125306D02*
X978770D01*
X977500Y124036D02*
Y126576D01*
X791230Y592500D02*
X793770D01*
X792500Y591230D02*
Y593770D01*
X395444Y534630D02*
X397984D01*
X396714Y533360D02*
Y535900D01*
X389516Y540047D02*
X392057D01*
X390787Y538777D02*
Y541317D01*
X289898Y556078D02*
X292438D01*
X291168Y554808D02*
Y557348D01*
X354893Y521834D02*
X357433D01*
X356163Y520564D02*
Y523104D01*
X294048Y575698D02*
X296588D01*
X295318Y574428D02*
Y576968D01*
X279230Y504750D02*
X281770D01*
X280500Y503480D02*
Y506020D01*
X1023730Y392500D02*
X1026270D01*
X1025000Y391230D02*
Y393770D01*
X761330Y171500D02*
X763870D01*
X762600Y170230D02*
Y172770D01*
X1118110Y483878D02*
X1120650D01*
X1119380Y482608D02*
Y485148D01*
X1126730Y462000D02*
X1129270D01*
X1128000Y460730D02*
Y463270D01*
X531230Y537500D02*
X533770D01*
X532500Y536230D02*
Y538770D01*
X916243Y552446D02*
X918783D01*
X917513Y551176D02*
Y553716D01*
X868980Y120250D02*
X871520D01*
X870250Y118980D02*
Y121520D01*
X433174Y410825D02*
X435714D01*
X434444Y409555D02*
Y412095D01*
X461211Y382508D02*
X463751D01*
X462481Y381238D02*
Y383778D01*
X461988Y390724D02*
X464528D01*
X463258Y389454D02*
Y391994D01*
X470391Y388435D02*
X472931D01*
X471661Y387165D02*
Y389705D01*
X465924Y420743D02*
X468464D01*
X467194Y419473D02*
Y422013D01*
X317128Y330861D02*
X319668D01*
X318398Y329591D02*
Y332131D01*
X318780Y261304D02*
X321320D01*
X320050Y260034D02*
Y262574D01*
X299673Y264833D02*
X302213D01*
X300943Y263563D02*
Y266103D01*
X270806Y275730D02*
X273346D01*
X272076Y274460D02*
Y277000D01*
X286230Y290000D02*
X288770D01*
X287500Y288730D02*
Y291270D01*
X271507Y370553D02*
X274047D01*
X272777Y369283D02*
Y371823D01*
X271681Y381821D02*
X274221D01*
X272951Y380551D02*
Y383091D01*
X443984Y295164D02*
X446984D01*
X445484Y293664D02*
Y296664D01*
X438149Y289792D02*
X441149D01*
X439649Y288292D02*
Y291292D01*
X433730Y370000D02*
X436270D01*
X435000Y368730D02*
Y371270D01*
X299665Y288420D02*
X302205D01*
X300935Y287150D02*
Y289690D01*
X1214765Y497183D02*
X1217305D01*
X1216035Y495913D02*
Y498453D01*
X1215125Y470113D02*
X1217665D01*
X1216395Y468843D02*
Y471383D01*
X1045313Y193140D02*
X1047853D01*
X1046583Y191870D02*
Y194410D01*
X1116242Y155511D02*
X1118782D01*
X1117512Y154241D02*
Y156781D01*
X1188053Y126760D02*
X1190593D01*
X1189323Y125490D02*
Y128030D01*
X1169342Y133560D02*
X1171882D01*
X1170612Y132290D02*
Y134830D01*
X1175092Y126258D02*
X1177632D01*
X1176362Y124988D02*
Y127528D01*
X1181481Y133697D02*
X1184021D01*
X1182751Y132427D02*
Y134967D01*
X538200Y113264D02*
X540740D01*
X539470Y111994D02*
Y114534D01*
X537952Y103968D02*
X540492D01*
X539222Y102698D02*
Y105238D01*
X538272Y53568D02*
X540812D01*
X539542Y52298D02*
Y54838D01*
X97324Y63976D02*
X99864D01*
X98594Y62705D02*
Y65245D01*
X91039Y64181D02*
X93579D01*
X92309Y62912D02*
Y65451D01*
X97839Y70363D02*
X100379D01*
X99109Y69093D02*
Y71633D01*
X90782Y70621D02*
X93322D01*
X92052Y69351D02*
Y71891D01*
X1198032Y141000D02*
X1200572D01*
X1199302Y139730D02*
Y142270D01*
X293980Y55603D02*
X296520D01*
X295250Y54333D02*
Y56873D01*
X369463Y32250D02*
X372002D01*
X370732Y30980D02*
Y33520D01*
X365110Y57108D02*
X367650D01*
X366380Y55838D02*
Y58378D01*
X287188Y58900D02*
X289728D01*
X288458Y57630D02*
Y60170D01*
X315177Y59000D02*
X317717D01*
X316447Y57730D02*
Y60270D01*
X308230Y56000D02*
X310770D01*
X309500Y54730D02*
Y57270D01*
X341978Y305305D02*
X344518D01*
X343248Y304035D02*
Y306575D01*
X312480Y305500D02*
X315020D01*
X313750Y304230D02*
Y306770D01*
X499424Y218027D02*
X501964D01*
X500694Y216757D02*
Y219297D01*
X503816Y224198D02*
X506356D01*
X505086Y222928D02*
Y225468D01*
X491842Y198331D02*
X494382D01*
X493112Y197061D02*
Y199601D01*
X333980Y207500D02*
X336520D01*
X335250Y206230D02*
Y208770D01*
X315281Y418132D02*
X317821D01*
X316551Y416862D02*
Y419402D01*
X304484Y406024D02*
X307024D01*
X305754Y404754D02*
Y407294D01*
X344874Y434130D02*
X347414D01*
X346144Y432860D02*
Y435400D01*
X256569Y361723D02*
X259109D01*
X257839Y360453D02*
Y362993D01*
X254630Y390004D02*
X257170D01*
X255900Y388734D02*
Y391274D01*
X52730Y394500D02*
X55270D01*
X54000Y393230D02*
Y395770D01*
X52328Y405190D02*
X54868D01*
X53598Y403920D02*
Y406460D01*
X1194200Y406133D02*
X1196740D01*
X1195470Y404863D02*
Y407403D01*
X1184985Y406133D02*
X1187525D01*
X1186255Y404863D02*
Y407403D01*
X548306Y335486D02*
X550845D01*
X549576Y334216D02*
Y336757D01*
X407961Y306911D02*
X410501D01*
X409231Y305641D02*
Y308181D01*
X478625Y336640D02*
X481165D01*
X479895Y335370D02*
Y337910D01*
X435203Y382798D02*
X437743D01*
X436473Y381528D02*
Y384068D01*
X458935Y432771D02*
X461475D01*
X460205Y431501D02*
Y434041D01*
X331539Y434195D02*
X334079D01*
X332809Y432925D02*
Y435465D01*
X368711Y371269D02*
X371251D01*
X369981Y369999D02*
Y372539D01*
X408880Y328880D02*
X411420D01*
X410150Y327610D02*
Y330150D01*
X411053Y410969D02*
X413592D01*
X412323Y409699D02*
Y412239D01*
X408709Y390144D02*
X411249D01*
X409979Y388874D02*
Y391414D01*
X408730Y370000D02*
X411270D01*
X410000Y368730D02*
Y371270D01*
X408730Y350000D02*
X411270D01*
X410000Y348730D02*
Y351270D01*
X388083Y338353D02*
X390623D01*
X389353Y337083D02*
Y339623D01*
X388730Y360000D02*
X391270D01*
X390000Y358730D02*
Y361270D01*
X388730Y380000D02*
X391270D01*
X390000Y378730D02*
Y381270D01*
X388730Y400000D02*
X391270D01*
X390000Y398730D02*
Y401270D01*
X368730Y410000D02*
X371270D01*
X370000Y408730D02*
Y411270D01*
X368730Y390000D02*
X371270D01*
X370000Y388730D02*
Y391270D01*
X368730Y350000D02*
X371270D01*
X370000Y348730D02*
Y351270D01*
X368730Y330000D02*
X371270D01*
X370000Y328730D02*
Y331270D01*
X348730Y340000D02*
X351270D01*
X350000Y338730D02*
Y341270D01*
X348730Y360000D02*
X351270D01*
X350000Y358730D02*
Y361270D01*
X348730Y401040D02*
X351270D01*
X350000Y399770D02*
Y402309D01*
X348730Y380000D02*
X351270D01*
X350000Y378730D02*
Y381270D01*
X327939Y409616D02*
X330479D01*
X329209Y408346D02*
Y410886D01*
X328730Y390000D02*
X331270D01*
X330000Y388730D02*
Y391270D01*
X328730Y370000D02*
X331270D01*
X330000Y368730D02*
Y371270D01*
X328730Y350000D02*
X331270D01*
X330000Y348730D02*
Y351270D01*
X328730Y330000D02*
X331270D01*
X330000Y328730D02*
Y331270D01*
X321094Y433912D02*
X323634D01*
X322364Y432642D02*
Y435182D01*
X306230Y435000D02*
X308770D01*
X307500Y433730D02*
Y436270D01*
X379150Y433302D02*
X381690D01*
X380420Y432032D02*
Y434572D01*
X370532Y433893D02*
X373072D01*
X371802Y432622D02*
Y435163D01*
X432578Y330774D02*
X435118D01*
X433848Y329505D02*
Y332044D01*
X394234Y305415D02*
X396774D01*
X395504Y304145D02*
Y306685D01*
X360176Y304003D02*
X362716D01*
X361446Y302733D02*
Y305273D01*
X353672Y306708D02*
X356212D01*
X354942Y305438D02*
Y307978D01*
X366802Y306647D02*
X369342D01*
X368072Y305377D02*
Y307917D01*
X329830Y305035D02*
X332370D01*
X331100Y303765D02*
Y306305D01*
X302415Y314252D02*
X304955D01*
X303685Y312982D02*
Y315522D01*
X302885Y346568D02*
X305424D01*
X304154Y345298D02*
Y347838D01*
X302885Y394568D02*
X305424D01*
X304154Y393298D02*
Y395838D01*
X302563Y378835D02*
X305103D01*
X303833Y377565D02*
Y380105D01*
X303485Y359415D02*
X306025D01*
X304755Y358145D02*
Y360685D01*
X85400Y507518D02*
X87940D01*
X86670Y506248D02*
Y508788D01*
X85400Y497499D02*
X87940D01*
X86670Y496229D02*
Y498769D01*
X76383Y497888D02*
X78923D01*
X77653Y496618D02*
Y499158D01*
X95008Y494992D02*
X97548D01*
X96278Y493722D02*
Y496262D01*
X76230Y507085D02*
X78770D01*
X77500Y505815D02*
Y508355D01*
X76230Y487500D02*
X78770D01*
X77500Y486230D02*
Y488770D01*
X329437Y463191D02*
X331977D01*
X330707Y461921D02*
Y464461D01*
X315047Y619472D02*
X317587D01*
X316317Y618202D02*
Y620742D01*
X482047Y619472D02*
X484587D01*
X483317Y618202D02*
Y620742D01*
X982047Y619472D02*
X984587D01*
X983317Y618202D02*
Y620742D01*
X815047Y619472D02*
X817587D01*
X816317Y618202D02*
Y620742D01*
X732047Y619472D02*
X734587D01*
X733317Y618202D02*
Y620742D01*
X565047Y619472D02*
X567587D01*
X566317Y618202D02*
Y620742D01*
X538730Y540000D02*
X541270D01*
X540000Y538730D02*
Y541270D01*
X523730Y537500D02*
X526270D01*
X525000Y536230D02*
Y538770D01*
X342373Y588444D02*
X344913D01*
X343643Y587174D02*
Y589714D01*
X335939Y588356D02*
X338479D01*
X337210Y587086D02*
Y589626D01*
X356230Y585500D02*
X358770D01*
X357500Y584230D02*
Y586770D01*
X352275Y591180D02*
X354814D01*
X353545Y589910D02*
Y592449D01*
X592373Y588444D02*
X594913D01*
X593643Y587174D02*
Y589714D01*
X585939Y588356D02*
X588479D01*
X587210Y587086D02*
Y589626D01*
X602692Y592344D02*
X605232D01*
X603962Y591074D02*
Y593614D01*
X841521Y557144D02*
X844061D01*
X842791Y555874D02*
Y558414D01*
X835087Y557056D02*
X837627D01*
X836357Y555786D02*
Y558326D01*
X1117029Y554787D02*
X1119569D01*
X1118299Y553517D02*
Y556057D01*
X1171980Y498529D02*
X1174520D01*
X1173250Y497259D02*
Y499799D01*
X1117908Y529250D02*
X1120448D01*
X1119178Y527980D02*
Y530520D01*
X1091926Y529196D02*
X1094466D01*
X1093196Y527926D02*
Y530466D01*
X1046922Y554900D02*
X1049462D01*
X1048192Y553630D02*
Y556170D01*
X1078464Y567450D02*
X1081004D01*
X1079734Y566180D02*
Y568720D01*
X1028009Y414500D02*
X1030549D01*
X1029279Y413230D02*
Y415770D01*
X553212Y330832D02*
X555752D01*
X554482Y329562D02*
Y332103D01*
X1010230Y368000D02*
X1012770D01*
X1011500Y366730D02*
Y369270D01*
X1120730Y494000D02*
X1123270D01*
X1122000Y492730D02*
Y495270D01*
X1084730Y593000D02*
X1087270D01*
X1086000Y591730D02*
Y594270D01*
X1080488Y606897D02*
X1083028D01*
X1081758Y605627D02*
Y608167D01*
X1084730Y585000D02*
X1087270D01*
X1086000Y583730D02*
Y586270D01*
X1165481Y504523D02*
X1168021D01*
X1166751Y503253D02*
Y505793D01*
X1195574Y435000D02*
X1198114D01*
X1196844Y433730D02*
Y436270D01*
X754730Y63000D02*
X757270D01*
X756000Y61730D02*
Y64270D01*
X935149Y142603D02*
X937689D01*
X936419Y141333D02*
Y143872D01*
X762327Y113466D02*
X764867D01*
X763597Y112196D02*
Y114736D01*
X782754Y40112D02*
X785294D01*
X784024Y38842D02*
Y41382D01*
X792135Y128378D02*
X794675D01*
X793405Y127108D02*
Y129648D01*
X828738Y115006D02*
X831278D01*
X830008Y113736D02*
Y116276D01*
X823988Y111185D02*
X826528D01*
X825258Y109915D02*
Y112455D01*
X833547Y77939D02*
X836087D01*
X834817Y76669D02*
Y79209D01*
X792619Y112104D02*
X795159D01*
X793889Y110834D02*
Y113374D01*
X651480Y113250D02*
X654020D01*
X652750Y111980D02*
Y114520D01*
X608861Y32250D02*
X611401D01*
X610131Y30980D02*
Y33520D01*
X867960Y89585D02*
X870500D01*
X869230Y88315D02*
Y90855D01*
X867960Y70484D02*
X870500D01*
X869230Y69214D02*
Y71754D01*
X928786Y74452D02*
X931326D01*
X930056Y73182D02*
Y75722D01*
X914281Y87994D02*
X916821D01*
X915551Y86724D02*
Y89264D01*
X946152Y56994D02*
X948692D01*
X947422Y55724D02*
Y58264D01*
X935970Y15422D02*
X938510D01*
X937240Y14152D02*
Y16692D01*
X932879Y21415D02*
X935419D01*
X934149Y20145D02*
Y22685D01*
X939067Y21446D02*
X941607D01*
X940337Y20176D02*
Y22716D01*
X906044Y18438D02*
X908584D01*
X907314Y17168D02*
Y19708D01*
X914790Y23988D02*
X917329D01*
X916059Y22718D02*
Y25258D01*
X886510Y59756D02*
X889050D01*
X887780Y58486D02*
Y61026D01*
X899993Y74615D02*
X902533D01*
X901263Y73345D02*
Y75885D01*
X905979Y56053D02*
X908519D01*
X907249Y54783D02*
Y57323D01*
X910712Y61005D02*
X913251D01*
X911982Y59735D02*
Y62275D01*
X823488Y79358D02*
X826028D01*
X824758Y78088D02*
Y80628D01*
X1007730Y134000D02*
X1010270D01*
X1009000Y132730D02*
Y135270D01*
X1192730Y95000D02*
X1195270D01*
X1194000Y93730D02*
Y96270D01*
X997988Y69316D02*
X1000528D01*
X999258Y68046D02*
Y70586D01*
X998521Y80563D02*
X1001061D01*
X999791Y79293D02*
Y81833D01*
X1056730Y28000D02*
X1059270D01*
X1058000Y26730D02*
Y29270D01*
X928410Y142443D02*
X930950D01*
X929680Y141173D02*
Y143713D01*
X922441Y142443D02*
X924981D01*
X923711Y141173D02*
Y143713D01*
X915760Y142429D02*
X918300D01*
X917030Y141159D02*
Y143699D01*
X894730Y142000D02*
X897270D01*
X896000Y140730D02*
Y143270D01*
X566230Y217500D02*
X568770D01*
X567500Y216230D02*
Y218770D01*
X566230Y225000D02*
X568770D01*
X567500Y223730D02*
Y226270D01*
X558730Y217500D02*
X561270D01*
X560000Y216230D02*
Y218770D01*
X558730Y225000D02*
X561270D01*
X560000Y223730D02*
Y226270D01*
X551230Y217500D02*
X553770D01*
X552500Y216230D02*
Y218770D01*
X551230Y225000D02*
X553770D01*
X552500Y223730D02*
Y226270D01*
X543730Y217500D02*
X546270D01*
X545000Y216230D02*
Y218770D01*
X543730Y225000D02*
X546270D01*
X545000Y223730D02*
Y226270D01*
X569446Y242990D02*
X571986D01*
X570716Y241720D02*
Y244260D01*
X539123Y242561D02*
X541663D01*
X540393Y241291D02*
Y243831D01*
X576548Y242956D02*
X579087D01*
X577817Y241686D02*
Y244226D01*
X597744Y136826D02*
X600284D01*
X599014Y135556D02*
Y138096D01*
X588589Y136929D02*
X591129D01*
X589859Y135659D02*
Y138199D01*
X579980Y137000D02*
X582520D01*
X581250Y135730D02*
Y138270D01*
X538200Y88664D02*
X540740D01*
X539470Y87394D02*
Y89934D01*
X538200Y76637D02*
X540740D01*
X539470Y75367D02*
Y77906D01*
X319730Y148750D02*
X322270D01*
X321000Y147480D02*
Y150020D01*
X531730Y242810D02*
X534270D01*
X533000Y241540D02*
Y244080D01*
X551855Y282750D02*
X554395D01*
X553125Y281480D02*
Y284020D01*
X556362Y289760D02*
X558901D01*
X557631Y288490D02*
Y291030D01*
X560746Y284027D02*
X563287D01*
X562016Y282757D02*
Y285296D01*
X547730Y289118D02*
X550270D01*
X549000Y287848D02*
Y290389D01*
X684080Y204500D02*
X686620D01*
X685350Y203230D02*
Y205770D01*
X696830Y204500D02*
X699370D01*
X698100Y203230D02*
Y205770D01*
X709980Y204500D02*
X712520D01*
X711250Y203230D02*
Y205770D01*
X735080Y204500D02*
X737620D01*
X736350Y203230D02*
Y205770D01*
X747739Y204500D02*
X750279D01*
X749009Y203230D02*
Y205770D01*
X722330Y204500D02*
X724870D01*
X723600Y203230D02*
Y205770D01*
X372210Y116167D02*
X374750D01*
X373480Y114897D02*
Y117437D01*
X366480Y82250D02*
X369020D01*
X367750Y80980D02*
Y83520D01*
X313188Y111150D02*
X315728D01*
X314458Y109880D02*
Y112420D01*
X331980Y92500D02*
X334520D01*
X333250Y91230D02*
Y93770D01*
X338545Y69909D02*
X341085D01*
X339815Y68639D02*
Y71179D01*
X271043Y93375D02*
X273583D01*
X272313Y92105D02*
Y94645D01*
X272230Y85000D02*
X274770D01*
X273500Y83730D02*
Y86270D01*
X201879Y270276D02*
X204419D01*
X203149Y269006D02*
Y271546D01*
X225115Y270000D02*
X227655D01*
X226385Y268730D02*
Y271270D01*
X225480Y325000D02*
X228020D01*
X226750Y323730D02*
Y326270D01*
X961230Y585500D02*
X963770D01*
X962500Y584230D02*
Y586770D01*
X1091809Y495839D02*
X1094349D01*
X1093079Y494569D02*
Y497109D01*
X946230Y585500D02*
X948770D01*
X947500Y584230D02*
Y586770D01*
X916230Y585500D02*
X918770D01*
X917500Y584230D02*
Y586770D01*
X931230Y585500D02*
X933770D01*
X932500Y584230D02*
Y586770D01*
X946230Y554995D02*
X948770D01*
X947500Y553725D02*
Y556265D01*
X946329Y528982D02*
X948869D01*
X947599Y527712D02*
Y530252D01*
X915804Y528790D02*
X918344D01*
X917074Y527520D02*
Y530060D01*
X1107258Y477180D02*
X1109798D01*
X1108528Y475910D02*
Y478450D01*
X711230Y585500D02*
X713770D01*
X712500Y584230D02*
Y586770D01*
X886230Y585500D02*
X888770D01*
X887500Y584230D02*
Y586770D01*
X871230Y585500D02*
X873770D01*
X872500Y584230D02*
Y586770D01*
X856230Y585500D02*
X858770D01*
X857500Y584230D02*
Y586770D01*
X681230Y585500D02*
X683770D01*
X682500Y584230D02*
Y586770D01*
X651230Y585500D02*
X653770D01*
X652500Y584230D02*
Y586770D01*
X606230Y585500D02*
X608770D01*
X607500Y584230D02*
Y586770D01*
X621230Y585500D02*
X623770D01*
X622500Y584230D02*
Y586770D01*
X696230Y554287D02*
X698770D01*
X697500Y553018D02*
Y555558D01*
X859902Y424828D02*
X862442D01*
X861172Y423558D02*
Y426098D01*
X901730Y416330D02*
X904270D01*
X903000Y415060D02*
Y417600D01*
X859902Y454173D02*
X862442D01*
X861172Y452902D02*
Y455443D01*
X830557Y424828D02*
X833098D01*
X831827Y423558D02*
Y426098D01*
X830557Y454173D02*
X833098D01*
X831827Y452902D02*
Y455443D01*
X666230Y554287D02*
X668770D01*
X667500Y553018D02*
Y555558D01*
X636230Y554277D02*
X638770D01*
X637500Y553008D02*
Y555547D01*
X555035Y422500D02*
X557575D01*
X556305Y421230D02*
Y423770D01*
X947223Y404500D02*
X949763D01*
X948493Y403230D02*
Y405770D01*
X947223Y392500D02*
X949763D01*
X948493Y391230D02*
Y393770D01*
X947223Y380500D02*
X949763D01*
X948493Y379230D02*
Y381770D01*
X946730Y368330D02*
X949270D01*
X948000Y367060D02*
Y369600D01*
X958480Y275500D02*
X961020D01*
X959750Y274230D02*
Y276770D01*
X946730Y360182D02*
X949270D01*
X948000Y358912D02*
Y361452D01*
X901730Y404330D02*
X904270D01*
X903000Y403060D02*
Y405600D01*
X901730Y392330D02*
X904270D01*
X903000Y391060D02*
Y393600D01*
X901730Y380330D02*
X904270D01*
X903000Y379060D02*
Y381600D01*
X932530Y280330D02*
X935070D01*
X933800Y279060D02*
Y281600D01*
X901730Y360330D02*
X904270D01*
X903000Y359060D02*
Y361600D01*
X901730Y368330D02*
X904270D01*
X903000Y367060D02*
Y369600D01*
X970730Y266000D02*
X973270D01*
X972000Y264730D02*
Y267270D01*
X946730Y268670D02*
X949270D01*
X948000Y267400D02*
Y269940D01*
X946730Y256670D02*
X949270D01*
X948000Y255400D02*
Y257940D01*
X932530Y244330D02*
X935070D01*
X933800Y243060D02*
Y245600D01*
X930730Y236376D02*
X933270D01*
X932000Y235105D02*
Y237645D01*
X930555Y216944D02*
X933095D01*
X931825Y215674D02*
Y218214D01*
X898238Y276013D02*
X900778D01*
X899508Y274743D02*
Y277283D01*
X582556Y396593D02*
X585096D01*
X583826Y395323D02*
Y397863D01*
X577934Y379035D02*
X580474D01*
X579204Y377765D02*
Y380305D01*
X555230Y402500D02*
X557770D01*
X556500Y401230D02*
Y403770D01*
X560730Y369345D02*
X563270D01*
X562000Y368075D02*
Y370615D01*
X446230Y585500D02*
X448770D01*
X447500Y584230D02*
Y586770D01*
X461230Y585500D02*
X463770D01*
X462500Y584230D02*
Y586770D01*
X431230Y585500D02*
X433770D01*
X432500Y584230D02*
Y586770D01*
X416230Y583780D02*
X418770D01*
X417500Y582510D02*
Y585050D01*
X371230Y585500D02*
X373770D01*
X372500Y584230D02*
Y586770D01*
X386230Y585500D02*
X388770D01*
X387500Y584230D02*
Y586770D01*
X446230Y528175D02*
X448770D01*
X447500Y526905D02*
Y529445D01*
X415943Y528188D02*
X418483D01*
X417213Y526918D02*
Y529458D01*
X206237Y478293D02*
X208777D01*
X207507Y477023D02*
Y479563D01*
X189186Y532872D02*
X191726D01*
X190457Y531602D02*
Y534142D01*
X85605Y525239D02*
X88145D01*
X86875Y523969D02*
Y526509D01*
X56675Y523869D02*
X59215D01*
X57945Y522599D02*
Y525139D01*
X189588Y519500D02*
X192128D01*
X190858Y518230D02*
Y520770D01*
X195567Y493993D02*
X198107D01*
X196838Y492724D02*
Y495263D01*
X27855Y507875D02*
X30395D01*
X29125Y506605D02*
Y509145D01*
X532716Y449070D02*
X535256D01*
X533986Y447800D02*
Y450340D01*
X521730Y440750D02*
X524270D01*
X523000Y439480D02*
Y442020D01*
X508230Y408000D02*
X510770D01*
X509500Y406730D02*
Y409270D01*
X522230Y393000D02*
X524770D01*
X523500Y391730D02*
Y394270D01*
X531063Y324559D02*
X533604D01*
X532333Y323289D02*
Y325829D01*
X531063Y308559D02*
X533604D01*
X532333Y307289D02*
Y309829D01*
X208946Y457956D02*
X211486D01*
X210216Y456686D02*
Y459226D01*
X194897Y443466D02*
X197437D01*
X196167Y442196D02*
Y444736D01*
X42105Y468708D02*
X44645D01*
X43375Y467438D02*
Y469978D01*
X118160Y424211D02*
X120700D01*
X119430Y422941D02*
Y425481D01*
X83140Y428847D02*
X85680D01*
X84410Y427577D02*
Y430117D01*
X55644Y427164D02*
X58184D01*
X56914Y425894D02*
Y428434D01*
X202244Y325276D02*
X204784D01*
X203514Y324006D02*
Y326546D01*
X329388Y77252D02*
X331928D01*
X330658Y75981D02*
Y78521D01*
X301971Y116920D02*
X304511D01*
X303241Y115650D02*
Y118190D01*
X528053Y168059D02*
X530593D01*
X529323Y166789D02*
Y169329D01*
X554122Y374326D02*
X556661D01*
X555392Y373056D02*
Y375596D01*
X551607Y380614D02*
X554147D01*
X552877Y379343D02*
Y381884D01*
X589038Y524166D02*
X591578D01*
X590308Y522896D02*
Y525436D01*
X366230Y602250D02*
X368770D01*
X367500Y600980D02*
Y603520D01*
X361230Y593250D02*
X363770D01*
X362500Y591980D02*
Y594520D01*
X867730Y593000D02*
X870270D01*
X869000Y591730D02*
Y594270D01*
X939426Y437939D02*
X941966D01*
X940696Y436669D02*
Y439209D01*
X860480Y592750D02*
X863020D01*
X861750Y591480D02*
Y594020D01*
X910980Y522133D02*
X913520D01*
X912250Y520863D02*
Y523404D01*
X941777Y431003D02*
X944317D01*
X943047Y429733D02*
Y432273D01*
X929967Y436540D02*
X932507D01*
X931237Y435270D02*
Y437810D01*
X934829Y431255D02*
X937369D01*
X936099Y429985D02*
Y432525D01*
X846230Y585500D02*
X848770D01*
X847500Y584230D02*
Y586770D01*
X830656Y523522D02*
X833196D01*
X831926Y522252D02*
Y524792D01*
X1114674Y445483D02*
X1117214D01*
X1115944Y444213D02*
Y446753D01*
X219669Y508965D02*
X222209D01*
X220939Y507695D02*
Y510234D01*
X181980Y585000D02*
X184520D01*
X183250Y583730D02*
Y586270D01*
X155297Y584005D02*
X157837D01*
X156567Y582734D02*
Y585275D01*
X155297Y592371D02*
X157837D01*
X156567Y591101D02*
Y593641D01*
X155297Y604746D02*
X157837D01*
X156567Y603476D02*
Y606016D01*
X161361Y597668D02*
X163901D01*
X162631Y596398D02*
Y598938D01*
X161277Y610068D02*
X163817D01*
X162547Y608798D02*
Y611338D01*
X189730Y607250D02*
X192270D01*
X191000Y605980D02*
Y608520D01*
X194942Y594500D02*
X197482D01*
X196212Y593230D02*
Y595770D01*
X275468Y575698D02*
X278008D01*
X276738Y574428D02*
Y576968D01*
X294730Y526500D02*
X297270D01*
X296000Y525230D02*
Y527770D01*
X82980Y436250D02*
X85520D01*
X84250Y434980D02*
Y437520D01*
X52417Y470618D02*
X54957D01*
X53687Y469348D02*
Y471888D01*
X171977Y437544D02*
X174517D01*
X173247Y436274D02*
Y438814D01*
X196767Y474299D02*
X199307D01*
X198037Y473029D02*
Y475569D01*
X189207Y449173D02*
X191747D01*
X190477Y447903D02*
Y450443D01*
X206145Y451307D02*
X208685D01*
X207416Y450037D02*
Y452577D01*
X201925Y447087D02*
X204465D01*
X203195Y445817D02*
Y448357D01*
X111325Y424252D02*
X113865D01*
X112595Y422982D02*
Y425522D01*
X105356Y424252D02*
X107896D01*
X106626Y422982D02*
Y425522D01*
X99059Y550708D02*
X101599D01*
X100329Y549438D02*
Y551978D01*
X65730Y539500D02*
X68270D01*
X67000Y538230D02*
Y540770D01*
X555246Y362005D02*
X557786D01*
X556516Y360735D02*
Y363275D01*
X555286Y354164D02*
X557826D01*
X556556Y352894D02*
Y355434D01*
X498221Y431991D02*
X500761D01*
X499491Y430721D02*
Y433261D01*
X517421Y398309D02*
X519961D01*
X518691Y397039D02*
Y399579D01*
X513200Y402530D02*
X515740D01*
X514470Y401260D02*
Y403800D01*
X546657Y347844D02*
X549197D01*
X547927Y346573D02*
Y349114D01*
X1002445Y373467D02*
X1004985D01*
X1003715Y372197D02*
Y374737D01*
X996413Y367436D02*
X998953D01*
X997683Y366166D02*
Y368706D01*
X889480Y247500D02*
X892020D01*
X890750Y246230D02*
Y248770D01*
X684091Y143011D02*
X686631D01*
X685361Y141741D02*
Y144281D01*
X734819Y143000D02*
X737359D01*
X736089Y141730D02*
Y144270D01*
X722180Y143094D02*
X724720D01*
X723450Y141824D02*
Y144364D01*
X709480Y143114D02*
X712020D01*
X710750Y141844D02*
Y144384D01*
X696781Y143000D02*
X699321D01*
X698051Y141730D02*
Y144270D01*
X664760Y410110D02*
X667300D01*
X666030Y408840D02*
Y411380D01*
X664760Y404141D02*
X667300D01*
X666030Y402871D02*
Y405411D01*
X638230Y407860D02*
X640770D01*
X639500Y406590D02*
Y409130D01*
X638230Y401891D02*
X640770D01*
X639500Y400621D02*
Y403161D01*
X71628Y412750D02*
X74168D01*
X72898Y411480D02*
Y414020D01*
X65659Y412750D02*
X68199D01*
X66929Y411480D02*
Y414020D01*
X923980Y79500D02*
X926520D01*
X925250Y78230D02*
Y80770D01*
X537330Y460266D02*
X539870D01*
X538600Y458996D02*
Y461536D01*
X919759Y83721D02*
X922299D01*
X921029Y82451D02*
Y84991D01*
X537330Y454297D02*
X539870D01*
X538600Y453027D02*
Y455567D01*
X528581Y443484D02*
X531121D01*
X529851Y442215D02*
Y444754D01*
X528581Y437515D02*
X531121D01*
X529851Y436245D02*
Y438786D01*
X555063Y409176D02*
X557603D01*
X556333Y407906D02*
Y410446D01*
X555063Y415145D02*
X557603D01*
X556333Y413875D02*
Y416415D01*
X724230Y232661D02*
X726770D01*
X725500Y231390D02*
Y233930D01*
X724230Y238629D02*
X726770D01*
X725500Y237360D02*
Y239900D01*
X867912Y83034D02*
X870452D01*
X869182Y81764D02*
Y84305D01*
X867912Y77066D02*
X870452D01*
X869182Y75795D02*
Y78335D01*
X895882Y68847D02*
X898422D01*
X897152Y67577D02*
Y70117D01*
X891662Y64627D02*
X894202D01*
X892932Y63357D02*
Y65897D01*
X904509Y79779D02*
X907049D01*
X905779Y78509D02*
Y81049D01*
X908730Y84000D02*
X911270D01*
X910000Y82730D02*
Y85270D01*
X188130Y433457D02*
X190670D01*
X189400Y432187D02*
Y434727D01*
X188130Y439426D02*
X190670D01*
X189400Y438156D02*
Y440696D01*
X709230Y252360D02*
X711770D01*
X710500Y251090D02*
Y253630D01*
X709230Y246391D02*
X711770D01*
X710500Y245121D02*
Y247661D01*
X676230Y265860D02*
X678770D01*
X677500Y264590D02*
Y267130D01*
X676230Y259891D02*
X678770D01*
X677500Y258621D02*
Y261161D01*
X659230Y278581D02*
X661770D01*
X660500Y277311D02*
Y279851D01*
X976230Y240031D02*
X978770D01*
X977500Y238761D02*
Y241301D01*
X976230Y246000D02*
X978770D01*
X977500Y244730D02*
Y247270D01*
X930730Y229485D02*
X933270D01*
X932000Y228214D02*
Y230755D01*
X930730Y223515D02*
X933270D01*
X932000Y222246D02*
Y224785D01*
X195642Y486838D02*
X198182D01*
X196912Y485568D02*
Y488108D01*
X199863Y482617D02*
X202403D01*
X201133Y481347D02*
Y483887D01*
X206480Y470734D02*
X209020D01*
X207750Y469464D02*
Y472005D01*
X206480Y464766D02*
X209020D01*
X207750Y463495D02*
Y466035D01*
X970361Y392804D02*
X972901D01*
X971631Y391534D02*
Y394074D01*
X974582Y388584D02*
X977122D01*
X975852Y387314D02*
Y389854D01*
M02*
