G04*
G04 #@! TF.GenerationSoftware,Altium Limited,Altium Designer,22.11.1 (43)*
G04*
G04 Layer_Physical_Order=4*
G04 Layer_Color=6736896*
%FSLAX44Y44*%
%MOMM*%
G71*
G04*
G04 #@! TF.SameCoordinates,EA2F1550-8411-4DB4-965C-DA60C2665ED4*
G04*
G04*
G04 #@! TF.FilePolarity,Positive*
G04*
G01*
G75*
%ADD11C,0.3000*%
%ADD78C,0.1016*%
%ADD79C,0.5000*%
%ADD82C,1.6000*%
%ADD84O,1.1000X1.9000*%
%ADD85O,1.1000X2.4000*%
%ADD86C,0.4064*%
%ADD87C,2.7000*%
G36*
X430580Y297904D02*
X454422D01*
X456230Y297895D01*
X459784Y297190D01*
X463128Y295806D01*
X466138Y293796D01*
X468698Y291238D01*
X470709Y288229D01*
X472094Y284886D01*
X472800Y281336D01*
Y279527D01*
X472800Y44158D01*
X468424Y44158D01*
X468385Y44142D01*
X468344Y44156D01*
X466384Y44060D01*
X466270Y44006D01*
X466147Y44031D01*
X462302Y43266D01*
X462163Y43173D01*
X461997D01*
X458375Y41673D01*
X458257Y41556D01*
X458094Y41523D01*
X454834Y39345D01*
X454742Y39207D01*
X454588Y39143D01*
X451816Y36371D01*
X451752Y36217D01*
X451614Y36125D01*
X449436Y32865D01*
X449403Y32702D01*
X449286Y32584D01*
X447785Y28962D01*
Y28795D01*
X447693Y28657D01*
X446928Y24812D01*
X446953Y24688D01*
X446899Y24575D01*
X446802Y22615D01*
X446817Y22574D01*
X446801Y22535D01*
X446800Y2160D01*
X351312Y2109D01*
X351274Y2093D01*
X351234Y2107D01*
X349273Y2011D01*
X349159Y1958D01*
X349036Y1982D01*
X345188Y1218D01*
X345050Y1126D01*
X344884Y1126D01*
X341260Y-375D01*
X341142Y-492D01*
X340979Y-525D01*
X337717Y-2704D01*
X337647Y-2808D01*
X337529Y-2851D01*
X336074Y-4169D01*
X336056Y-4208D01*
X336016Y-4224D01*
X333899Y-6342D01*
X177453D01*
X175286Y-4175D01*
X175247Y-4159D01*
X175228Y-4120D01*
X173774Y-2802D01*
X173655Y-2760D01*
X173586Y-2655D01*
X170326Y-477D01*
X170163Y-444D01*
X170045Y-327D01*
X166423Y1173D01*
X166257D01*
X166118Y1266D01*
X162273Y2031D01*
X162150Y2006D01*
X162036Y2060D01*
X160075Y2156D01*
X160035Y2142D01*
X159996Y2158D01*
X98644D01*
X-6603Y2185D01*
X-6603Y2185D01*
X-6603Y2185D01*
X-8410Y2185D01*
X-11955Y2890D01*
X-15295Y4274D01*
X-18300Y6282D01*
X-20856Y8838D01*
X-22864Y11843D01*
X-24248Y15182D01*
X-24953Y18728D01*
X-24953Y20535D01*
X-24952Y255904D01*
X-18568D01*
X-18529Y255921D01*
X-18489Y255906D01*
X-16528Y256003D01*
X-16415Y256056D01*
X-16291Y256032D01*
X-12446Y256797D01*
X-12308Y256889D01*
X-12141D01*
X-8519Y258389D01*
X-8401Y258507D01*
X-8238Y258539D01*
X-4979Y260718D01*
X-4886Y260856D01*
X-4733Y260919D01*
X-1960Y263692D01*
X-1896Y263846D01*
X-1758Y263938D01*
X420Y267198D01*
X452Y267361D01*
X570Y267479D01*
X2070Y271101D01*
Y271267D01*
X2163Y271405D01*
X2928Y275251D01*
X2903Y275374D01*
X2957Y275488D01*
X3053Y277448D01*
X3039Y277488D01*
X3055Y277528D01*
X3055Y297904D01*
X102832D01*
X103638Y296968D01*
X103638Y296968D01*
X103638D01*
X103671Y296696D01*
X102551Y296232D01*
X101693Y295375D01*
X101229Y294254D01*
Y293042D01*
X100330Y291895D01*
X99772Y291664D01*
X98914Y290807D01*
X98450Y289686D01*
Y288474D01*
X98914Y287353D01*
X99772Y286496D01*
X100892Y286032D01*
X102105D01*
X103225Y286496D01*
X104082Y287353D01*
X104114Y287430D01*
X106080D01*
X107246Y287913D01*
X109434Y290102D01*
X225024D01*
X225409Y288832D01*
X224965Y288535D01*
X202465Y266035D01*
X195515Y259085D01*
X129310D01*
Y282775D01*
X129037Y284146D01*
X128260Y285310D01*
X128035Y285535D01*
X126872Y286312D01*
X125500Y286585D01*
X124128Y286312D01*
X122965Y285535D01*
X122188Y284372D01*
X121915Y283000D01*
X122140Y281867D01*
Y259085D01*
X106688D01*
X106297Y260355D01*
X106877Y260935D01*
X107341Y262056D01*
Y263268D01*
X106877Y264389D01*
X106579Y264687D01*
X106284Y265715D01*
X106618Y266307D01*
X107084Y266773D01*
X107548Y267894D01*
Y269106D01*
X107084Y270227D01*
X106227Y271084D01*
X105106Y271548D01*
X103894D01*
X102773Y271084D01*
X101916Y270227D01*
X101452Y269106D01*
Y267894D01*
X101916Y266773D01*
X102215Y266475D01*
X102509Y265447D01*
X102176Y264855D01*
X101709Y264389D01*
X101245Y263268D01*
Y262056D01*
X101709Y260935D01*
X102290Y260355D01*
X101898Y259085D01*
X78212D01*
X76840Y258812D01*
X75677Y258035D01*
X44727Y227085D01*
X32237D01*
X30865Y226812D01*
X29702Y226035D01*
X25774Y222107D01*
X25378Y221843D01*
X24601Y220680D01*
X24328Y219308D01*
X24601Y217936D01*
X25378Y216773D01*
X26542Y215996D01*
X27913Y215723D01*
X28045D01*
X29416Y215996D01*
X30580Y216773D01*
X33722Y219915D01*
X74515D01*
X90465Y203965D01*
X91628Y203188D01*
X93000Y202915D01*
X121015D01*
X128484Y195446D01*
Y185554D01*
X115530Y172600D01*
X106588D01*
X105811Y172278D01*
X105577Y172044D01*
X104861Y171747D01*
X104086D01*
X103370Y172044D01*
X103136Y172278D01*
X102358Y172600D01*
X51000D01*
X50222Y172278D01*
X46222Y168278D01*
X45900Y167500D01*
Y164500D01*
X46222Y163722D01*
X49674Y160270D01*
X50452Y159948D01*
X51388D01*
X52104Y159652D01*
X52652Y159104D01*
X52948Y158387D01*
Y157452D01*
X53270Y156674D01*
X76685Y133259D01*
X76755Y133231D01*
X76792Y133165D01*
X77135Y133073D01*
X77463Y132937D01*
X77533Y132966D01*
X77605Y132947D01*
X79058Y133136D01*
X79366Y133313D01*
X79694Y133449D01*
X80396Y134152D01*
X81112Y134448D01*
X81888D01*
X82604Y134152D01*
X83152Y133604D01*
X83448Y132887D01*
Y132112D01*
X83152Y131396D01*
X82449Y130694D01*
X82313Y130366D01*
X82136Y130058D01*
X81947Y128605D01*
X81966Y128532D01*
X81937Y128463D01*
X82073Y128135D01*
X82165Y127792D01*
X82231Y127755D01*
X82260Y127685D01*
X89400Y120545D01*
Y95401D01*
X88227Y94915D01*
X77876Y105266D01*
X77043Y105822D01*
X76062Y106017D01*
X74679D01*
X73517Y107179D01*
Y108562D01*
X73322Y109543D01*
X72766Y110376D01*
X66065Y117076D01*
Y138000D01*
X65870Y138982D01*
X65314Y139814D01*
X65314Y139814D01*
X17173Y187955D01*
X16340Y188511D01*
X15359Y188707D01*
X9292D01*
X9181Y188907D01*
X9085Y190242D01*
X9942Y191099D01*
X10406Y192220D01*
Y193432D01*
X9942Y194552D01*
X9848Y194646D01*
X9967Y195245D01*
X10825Y196102D01*
X10927Y196350D01*
X18176D01*
X29408Y185119D01*
X30574Y184635D01*
X119054D01*
X119773Y183916D01*
X120894Y183452D01*
X122106D01*
X123227Y183916D01*
X124084Y184773D01*
X124548Y185894D01*
Y187106D01*
X124084Y188227D01*
X123227Y189084D01*
X122373Y189437D01*
X122207Y190413D01*
X122247Y190760D01*
X122942Y191048D01*
X123799Y191905D01*
X124264Y193025D01*
Y194238D01*
X123799Y195358D01*
X122942Y196216D01*
X121822Y196680D01*
X120609D01*
X119489Y196216D01*
X118632Y195358D01*
X118539Y195135D01*
X117047D01*
X116158Y196229D01*
X116136Y196308D01*
Y197468D01*
X115672Y198588D01*
X114815Y199445D01*
X113694Y199909D01*
X112482D01*
X111362Y199445D01*
X110504Y198588D01*
X110472Y198511D01*
X85850D01*
X85001Y199781D01*
X85048Y199894D01*
Y201106D01*
X84584Y202227D01*
X83727Y203084D01*
X82606Y203548D01*
X81394D01*
X80273Y203084D01*
X79416Y202227D01*
X79384Y202150D01*
X35962D01*
X29866Y208245D01*
X29898Y208322D01*
Y209535D01*
X29434Y210655D01*
X28577Y211512D01*
X27456Y211976D01*
X26244D01*
X25124Y211512D01*
X24266Y210655D01*
X24034Y210095D01*
X22629Y209704D01*
X18244Y214089D01*
X17077Y214572D01*
X10497D01*
X10439Y214711D01*
X9582Y215568D01*
X8462Y216032D01*
X7249D01*
X6396Y217053D01*
X6337Y217504D01*
X21583Y232750D01*
X21679Y232982D01*
X22727Y233416D01*
X23584Y234273D01*
X24048Y235394D01*
Y236606D01*
X23584Y237727D01*
X22727Y238584D01*
X22052Y238864D01*
X22304Y240134D01*
X23027D01*
X24800Y240868D01*
X26158Y242226D01*
X26893Y244000D01*
Y245919D01*
X26238Y247500D01*
X26893Y249080D01*
Y251000D01*
X26641Y251607D01*
X27160Y252250D01*
X27589Y252638D01*
X29393D01*
X31167Y253372D01*
X32524Y254730D01*
X33259Y256504D01*
Y258423D01*
X32604Y260004D01*
X33259Y261583D01*
Y263503D01*
X32524Y265277D01*
X31167Y266635D01*
X29561Y267300D01*
X29007Y267791D01*
X28626Y268361D01*
Y270281D01*
X27891Y272055D01*
X27792Y272155D01*
X28325Y273442D01*
Y275361D01*
X27590Y277135D01*
X26232Y278493D01*
X24459Y279227D01*
X22539D01*
X20765Y278493D01*
X19407Y277135D01*
X18673Y275361D01*
Y273442D01*
X19407Y271668D01*
X19507Y271568D01*
X18974Y270281D01*
Y268361D01*
X19708Y266588D01*
X21066Y265230D01*
X22672Y264565D01*
X23226Y264074D01*
X23607Y263503D01*
Y261583D01*
X24261Y260004D01*
X23607Y258423D01*
Y256504D01*
X23859Y255896D01*
X23340Y255253D01*
X22911Y254866D01*
X21107D01*
X19333Y254131D01*
X17975Y252773D01*
X17241Y251000D01*
Y249080D01*
X17895Y247500D01*
X17241Y245919D01*
Y244000D01*
X17975Y242226D01*
X19333Y240868D01*
X20661Y240318D01*
X20409Y239048D01*
X20394D01*
X19273Y238584D01*
X18416Y237727D01*
X17952Y236606D01*
Y235394D01*
X18416Y234273D01*
X18428Y234261D01*
X2636Y218468D01*
X2152Y217302D01*
Y190774D01*
X2636Y189608D01*
X5908Y186335D01*
X5870Y186141D01*
X6065Y185160D01*
X6621Y184327D01*
X7453Y183771D01*
X8435Y183576D01*
X14296D01*
X60935Y136937D01*
Y116014D01*
X61130Y115032D01*
X61686Y114200D01*
X68387Y107499D01*
Y106116D01*
X68582Y105134D01*
X69138Y104302D01*
X71802Y101638D01*
X72634Y101082D01*
X73616Y100887D01*
X74999D01*
X114874Y61012D01*
X114348Y59742D01*
X113692D01*
X112571Y59278D01*
X111714Y58420D01*
X111250Y57300D01*
Y56087D01*
X111714Y54967D01*
X112571Y54110D01*
X113692Y53646D01*
X114904D01*
X116025Y54110D01*
X116882Y54967D01*
X117346Y56087D01*
Y56744D01*
X118616Y57270D01*
X119080Y56806D01*
X119912Y56250D01*
X120893Y56055D01*
X139600D01*
X146469Y49186D01*
X147302Y48630D01*
X148283Y48435D01*
X173255D01*
X173273Y48416D01*
X174394Y47952D01*
X175428D01*
X175989Y47489D01*
X176452Y46928D01*
Y46572D01*
X175712Y45676D01*
X175279Y45548D01*
X174394D01*
X173273Y45084D01*
X172416Y44227D01*
X171952Y43106D01*
Y41894D01*
X172416Y40773D01*
X173273Y39916D01*
X174394Y39452D01*
X175428D01*
X175989Y38989D01*
X176452Y38428D01*
Y38072D01*
X175712Y37176D01*
X175279Y37048D01*
X174394D01*
X173273Y36584D01*
X172416Y35727D01*
X171952Y34606D01*
Y33394D01*
X172416Y32273D01*
X173273Y31416D01*
X174394Y30952D01*
X175606D01*
X176017Y31122D01*
X176642Y30499D01*
X176863Y30098D01*
X176452Y29106D01*
Y28572D01*
X175712Y27676D01*
X175279Y27548D01*
X174394D01*
X173273Y27084D01*
X172416Y26227D01*
X171952Y25106D01*
Y23894D01*
X172416Y22773D01*
X173273Y21916D01*
X174394Y21452D01*
X175606D01*
X176727Y21916D01*
X177584Y22773D01*
X178048Y23894D01*
Y24428D01*
X178788Y25324D01*
X179221Y25452D01*
X180106D01*
X181227Y25916D01*
X182084Y26773D01*
X182548Y27894D01*
Y29106D01*
X182084Y30227D01*
X181227Y31084D01*
X180106Y31548D01*
X178894D01*
X178483Y31378D01*
X177858Y32001D01*
X177637Y32402D01*
X178048Y33394D01*
Y33928D01*
X178788Y34824D01*
X179221Y34952D01*
X180106D01*
X181227Y35416D01*
X182084Y36273D01*
X182548Y37394D01*
Y38606D01*
X182084Y39727D01*
X181227Y40584D01*
X180106Y41048D01*
X179072D01*
X178634Y41410D01*
X178292Y42723D01*
X178788Y43324D01*
X179221Y43452D01*
X180106D01*
X181227Y43916D01*
X182084Y44773D01*
X182548Y45894D01*
Y47106D01*
X182084Y48226D01*
X181227Y49084D01*
X180106Y49548D01*
X179072D01*
X178511Y50011D01*
X178048Y50572D01*
Y51606D01*
X177584Y52727D01*
X176727Y53584D01*
X175606Y54048D01*
X174394D01*
X173273Y53584D01*
X173255Y53565D01*
X149346D01*
X142477Y60434D01*
X141645Y60990D01*
X140663Y61186D01*
X121956D01*
X119415Y63727D01*
X119901Y64900D01*
X149393Y64900D01*
X149595Y64984D01*
X149814D01*
X149969Y65139D01*
X150171Y65222D01*
X150255Y65424D01*
X150409Y65579D01*
X150935Y66849D01*
Y67068D01*
X151019Y67270D01*
X150935Y67472D01*
Y67691D01*
X150932Y67694D01*
X150552Y68612D01*
Y69387D01*
X150848Y70104D01*
X151396Y70652D01*
X152112Y70948D01*
X152888D01*
X153604Y70652D01*
X154152Y70104D01*
X154448Y69387D01*
Y68612D01*
X154068Y67694D01*
X154065Y67691D01*
Y67472D01*
X153981Y67270D01*
X154065Y67068D01*
Y66849D01*
X154591Y65579D01*
X154745Y65424D01*
X154829Y65222D01*
X155031Y65139D01*
X155186Y64984D01*
X155405D01*
X155607Y64900D01*
X160015D01*
X160792Y65222D01*
X170211Y74641D01*
X170361Y74714D01*
X171697Y74815D01*
X172184Y74327D01*
X173305Y73863D01*
X174517D01*
X175638Y74327D01*
X176495Y75184D01*
X176959Y76305D01*
Y77517D01*
X176495Y78638D01*
X176476Y78656D01*
Y84492D01*
X179314Y87330D01*
X179870Y88162D01*
X180065Y89144D01*
Y110637D01*
X179870Y111618D01*
X179314Y112451D01*
X173769Y117996D01*
Y121720D01*
X174048Y122394D01*
Y122420D01*
X181563Y129935D01*
X197255D01*
X197273Y129916D01*
X198394Y129452D01*
X199606D01*
X200727Y129916D01*
X200745Y129935D01*
X212725D01*
X213974Y128686D01*
X213974Y128686D01*
X216237Y126423D01*
X215820Y125044D01*
X215196Y124786D01*
X214338Y123929D01*
X213874Y122808D01*
Y121596D01*
X214338Y120476D01*
X215196Y119618D01*
X216316Y119154D01*
X217529D01*
X218649Y119618D01*
X219506Y120476D01*
X220273Y121416D01*
X221394Y120952D01*
X222606D01*
X223727Y121416D01*
X224584Y122273D01*
X225048Y123394D01*
Y124606D01*
X224584Y125727D01*
X223727Y126584D01*
X223053Y126863D01*
X217602Y132314D01*
X217602Y132314D01*
X217439Y132477D01*
X217924Y133651D01*
X223294D01*
X227666Y129279D01*
X228443Y128957D01*
X249372D01*
X250150Y129279D01*
X251778Y130907D01*
X252100Y131684D01*
Y137681D01*
X252030Y137849D01*
X252043Y138029D01*
X251875Y138223D01*
X251778Y138459D01*
X251610Y138528D01*
X251492Y138665D01*
X250294Y139264D01*
X250253Y139267D01*
X250223Y139296D01*
X249839D01*
X249454Y139323D01*
X249423Y139296D01*
X249382D01*
X248463Y138916D01*
X247688D01*
X246972Y139212D01*
X246424Y139760D01*
X246128Y140476D01*
Y141251D01*
X246424Y141967D01*
X247127Y142670D01*
X247250Y142966D01*
X247428Y143233D01*
X247544Y143820D01*
X247523Y143930D01*
X247566Y144034D01*
X247443Y144330D01*
X247380Y144645D01*
X247287Y144708D01*
X247244Y144812D01*
X230600Y161455D01*
Y188393D01*
X230278Y189171D01*
X230131Y189318D01*
X229834Y190034D01*
Y190809D01*
X230131Y191525D01*
X230278Y191672D01*
X230600Y192449D01*
Y192544D01*
X267778Y229722D01*
X268100Y230500D01*
Y230812D01*
X268548Y231894D01*
Y233106D01*
X268430Y233392D01*
X269138Y234538D01*
X269533Y234531D01*
X269761Y234277D01*
X270249Y233323D01*
X269952Y232606D01*
Y231394D01*
X270416Y230273D01*
X271273Y229416D01*
X272394Y228952D01*
X273606D01*
X274727Y229416D01*
X275584Y230273D01*
X275865Y230952D01*
X285599D01*
X293608Y222943D01*
X292888Y221867D01*
X292554Y222005D01*
X291341D01*
X290221Y221541D01*
X289363Y220684D01*
X288098Y220947D01*
X287499Y221194D01*
X286287D01*
X285166Y220730D01*
X284309Y219873D01*
X283845Y218753D01*
Y217540D01*
X284309Y216420D01*
X284850Y215878D01*
Y213500D01*
X285334Y212334D01*
X287946Y209721D01*
X287843Y209366D01*
X287323Y208548D01*
X286394D01*
X285273Y208084D01*
X284416Y207227D01*
X283952Y206106D01*
Y204894D01*
X284416Y203773D01*
X285273Y202916D01*
X286394Y202452D01*
X287064D01*
X292365Y197152D01*
X291932Y195789D01*
X291270Y195514D01*
X290412Y194657D01*
X289948Y193537D01*
Y192324D01*
X290412Y191204D01*
X291270Y190346D01*
X292390Y189882D01*
X293603D01*
X294723Y190346D01*
X295227Y190850D01*
X351560D01*
X359481Y182929D01*
X359505Y182920D01*
X359252Y181650D01*
X318210D01*
X317044Y181166D01*
X302834Y166956D01*
X302350Y165790D01*
Y135612D01*
X300213Y133475D01*
X299212D01*
X298092Y133011D01*
X297234Y132154D01*
X296770Y131033D01*
X296393Y129919D01*
X295181Y129919D01*
X294060Y129455D01*
X293203Y128598D01*
X292739Y127477D01*
Y126265D01*
X293203Y125145D01*
X294060Y124287D01*
X295181Y123823D01*
X296367D01*
Y122709D01*
X296831Y121588D01*
X297688Y120731D01*
X298808Y120267D01*
X300021D01*
X301141Y120731D01*
X301867Y121456D01*
X302637Y121394D01*
X302849Y121093D01*
X303106Y120072D01*
X302253Y119219D01*
X302176Y119251D01*
X300963D01*
X299843Y118787D01*
X298986Y117930D01*
X298522Y116809D01*
Y115597D01*
X298986Y114476D01*
X299843Y113619D01*
X300963Y113155D01*
X302176D01*
X303296Y113619D01*
X304154Y114476D01*
X304618Y115597D01*
Y116809D01*
X304586Y116886D01*
X314667Y126967D01*
X315150Y128133D01*
Y160317D01*
X321183Y166350D01*
X375384D01*
X375416Y166273D01*
X376273Y165416D01*
X377394Y164952D01*
X378606D01*
X379727Y165416D01*
X380584Y166273D01*
X381048Y167394D01*
Y168606D01*
X380584Y169727D01*
X379727Y170584D01*
X378606Y171048D01*
X377862Y171408D01*
X377877Y172716D01*
X378574Y172950D01*
X378606Y172952D01*
X378606D01*
X379727Y173416D01*
X380584Y174273D01*
X381048Y175394D01*
Y176606D01*
X380584Y177727D01*
X379727Y178584D01*
X378606Y179048D01*
X378606D01*
X378574Y179050D01*
X377548Y179394D01*
Y180606D01*
X377312Y181176D01*
X378024Y182446D01*
X380221D01*
X383350Y179317D01*
Y167183D01*
X372439Y156271D01*
X371955Y155105D01*
Y124860D01*
X371878Y124828D01*
X371021Y123971D01*
X370557Y122851D01*
Y121638D01*
X371021Y120518D01*
X371878Y119660D01*
X372999Y119196D01*
X374211D01*
X375331Y119660D01*
X376189Y120518D01*
X376653Y121638D01*
Y122851D01*
X376189Y123971D01*
X375331Y124828D01*
X375255Y124860D01*
Y129753D01*
X375621Y129951D01*
X376525Y130143D01*
X384334Y122334D01*
X385500Y121850D01*
X393884D01*
X393916Y121773D01*
X394773Y120916D01*
X395894Y120452D01*
X397106D01*
X398227Y120916D01*
X399084Y121773D01*
X399548Y122894D01*
Y123413D01*
X400459Y123740D01*
X400818Y123769D01*
X401602Y122985D01*
X402722Y122521D01*
X403935D01*
X405055Y122985D01*
X405913Y123842D01*
X406377Y124963D01*
Y126175D01*
X405913Y127295D01*
X405854Y127354D01*
X405914Y127958D01*
X406278Y129132D01*
X407491D01*
X408611Y129596D01*
X409469Y130453D01*
X409933Y131574D01*
Y132786D01*
X409469Y133906D01*
X408611Y134764D01*
X407571Y135195D01*
Y148079D01*
X407088Y149245D01*
X403554Y152779D01*
X403657Y153133D01*
X404177Y153952D01*
X405106D01*
X406227Y154416D01*
X407084Y155273D01*
X407548Y156394D01*
Y157606D01*
X407084Y158727D01*
X406227Y159584D01*
X405990Y159682D01*
X406242Y160952D01*
X407106D01*
X408227Y161416D01*
X409084Y162273D01*
X409548Y163394D01*
Y164606D01*
X409084Y165727D01*
X408227Y166584D01*
X407106Y167048D01*
X405894D01*
X404773Y166584D01*
X403916Y165727D01*
X403452Y164606D01*
Y163394D01*
X403916Y162273D01*
X404416Y161773D01*
X404102Y160424D01*
X403516Y160317D01*
X401150Y162683D01*
Y193024D01*
X400666Y194190D01*
X380190Y214666D01*
X379024Y215150D01*
X358000D01*
X356834Y214666D01*
X349317Y207150D01*
X306683D01*
X298650Y215183D01*
Y221884D01*
X298166Y223050D01*
X287449Y233768D01*
X286283Y234251D01*
X275778D01*
X275415Y235447D01*
X275446Y235556D01*
X275744Y235756D01*
X276739Y237244D01*
X277088Y239000D01*
X276739Y240756D01*
X275854Y242080D01*
X276019Y242684D01*
X276434Y243350D01*
X279317D01*
X286041Y236626D01*
X287208Y236143D01*
X361524D01*
X390472Y207195D01*
X391638Y206712D01*
X405096D01*
X405128Y206635D01*
X405985Y205778D01*
X407105Y205314D01*
X408318D01*
X409438Y205778D01*
X410296Y206635D01*
X410760Y207756D01*
Y208968D01*
X410506Y209580D01*
X411193Y210850D01*
X415940D01*
X418745Y208046D01*
X418713Y207969D01*
Y206756D01*
X419177Y205636D01*
X420034Y204778D01*
X421155Y204314D01*
X422367D01*
X423487Y204778D01*
X424345Y205636D01*
X424809Y206756D01*
Y207969D01*
X424345Y209089D01*
X423487Y209946D01*
X422367Y210410D01*
X421155D01*
X421078Y210378D01*
X417790Y213666D01*
X416623Y214150D01*
X392426D01*
X365005Y241570D01*
X363839Y242053D01*
X351882D01*
X351356Y243323D01*
X380948Y272915D01*
X381090Y273258D01*
X382113Y272984D01*
X384487D01*
X386780Y273598D01*
X388836Y274785D01*
X390515Y276464D01*
X391702Y278520D01*
X392316Y280813D01*
Y283187D01*
X391908Y284711D01*
X393046Y285368D01*
X397581Y280834D01*
X398748Y280350D01*
X399808D01*
X400298Y278520D01*
X401485Y276464D01*
X403164Y274785D01*
X405220Y273598D01*
X407513Y272984D01*
X409887D01*
X412180Y273598D01*
X414236Y274785D01*
X415915Y276464D01*
X417102Y278520D01*
X417716Y280813D01*
Y283187D01*
X417102Y285480D01*
X415915Y287536D01*
X414236Y289215D01*
X412180Y290402D01*
X409887Y291016D01*
X407513D01*
X405220Y290402D01*
X403164Y289215D01*
X401485Y287536D01*
X400298Y285480D01*
X400108Y284769D01*
X398691Y284389D01*
X389819Y293262D01*
X388652Y293745D01*
X377549D01*
X376382Y293262D01*
X369834Y286712D01*
X369350Y285546D01*
Y272064D01*
X344683Y247397D01*
X304098D01*
X290798Y260698D01*
Y281390D01*
X290315Y282556D01*
X277710Y295161D01*
X276544Y295644D01*
X106592D01*
X106004Y296232D01*
X104884Y296696D01*
X104917Y296968D01*
X104917D01*
X104917Y296968D01*
X105723Y297904D01*
X430426D01*
X430575Y297904D01*
X430578Y297905D01*
X430580Y297904D01*
D02*
G37*
G36*
X285350Y279817D02*
Y258883D01*
X285834Y257716D01*
X300227Y243323D01*
X299701Y242053D01*
X289780D01*
X281666Y250166D01*
X280500Y250650D01*
X197011D01*
X197000Y251915D01*
X198372Y252188D01*
X199535Y252965D01*
X207535Y260965D01*
X228985Y282415D01*
X241000D01*
X242372Y282688D01*
X243535Y283465D01*
X244312Y284628D01*
X244585Y286000D01*
X244312Y287372D01*
X243535Y288535D01*
X243091Y288832D01*
X243476Y290102D01*
X275065D01*
X285350Y279817D01*
D02*
G37*
G36*
X113000Y250650D02*
X111834Y250166D01*
X97334Y235666D01*
X96850Y234500D01*
Y227396D01*
X95709Y226254D01*
X95632Y226286D01*
X94420D01*
X93299Y225822D01*
X92442Y224965D01*
X91978Y223845D01*
Y222632D01*
X92442Y221512D01*
X93299Y220654D01*
X94420Y220190D01*
X94835D01*
X95434Y220122D01*
Y218909D01*
X95898Y217789D01*
X96756Y216931D01*
X97876Y216467D01*
X99088D01*
X100209Y216931D01*
X101066Y217789D01*
X101530Y218909D01*
Y220122D01*
X101362Y220529D01*
X102666Y221833D01*
X103150Y223000D01*
Y232817D01*
X113683Y243350D01*
X220566D01*
X221092Y242080D01*
X188523Y209511D01*
X187277Y209759D01*
X187241Y209845D01*
X186107Y210979D01*
X184625Y211593D01*
X183021D01*
X181539Y210979D01*
X180405Y209845D01*
X179791Y208363D01*
Y206759D01*
X180405Y205277D01*
X181539Y204143D01*
X181625Y204107D01*
X181873Y202862D01*
X148024Y169013D01*
X147150Y169236D01*
X146686Y169446D01*
X146679Y169463D01*
X146310Y169616D01*
X146286Y169635D01*
X146273Y169633D01*
X145937Y169785D01*
X145936Y169785D01*
X145919Y169778D01*
X145901Y169785D01*
X144948D01*
X144232Y170082D01*
X143684Y170630D01*
X143387Y171346D01*
Y171500D01*
X143065Y172278D01*
X142287Y172600D01*
X127329D01*
X126843Y173773D01*
X134604Y181534D01*
X135381Y182697D01*
X135654Y184069D01*
Y196931D01*
X135381Y198303D01*
X134604Y199466D01*
X125035Y209035D01*
X123872Y209812D01*
X122500Y210085D01*
X94485D01*
X78535Y226035D01*
X77372Y226812D01*
X76000Y227085D01*
X56526D01*
X56040Y228258D01*
X79697Y251915D01*
X112989D01*
X113000Y250650D01*
D02*
G37*
G36*
X391350Y187817D02*
Y156942D01*
X391834Y155776D01*
X401679Y145931D01*
Y128185D01*
X401602Y128153D01*
X400745Y127295D01*
X400281Y126175D01*
Y125656D01*
X399370Y125329D01*
X399011Y125300D01*
X398227Y126084D01*
X397106Y126548D01*
X395894D01*
X394773Y126084D01*
X393916Y125227D01*
X393884Y125150D01*
X386183D01*
X379150Y132183D01*
Y152817D01*
X389270Y162937D01*
X389753Y164104D01*
Y181396D01*
X389270Y182563D01*
X383938Y187895D01*
X382771Y188378D01*
X362826D01*
X355068Y196136D01*
X353902Y196619D01*
X353553D01*
X353239Y197605D01*
X353222Y197889D01*
X359183Y203850D01*
X369512D01*
X369770Y202602D01*
X369770Y202580D01*
X368916Y201727D01*
X368452Y200606D01*
Y199394D01*
X368916Y198273D01*
X369773Y197416D01*
X370894Y196952D01*
X372106D01*
X373227Y197416D01*
X374084Y198273D01*
X374548Y199394D01*
Y200606D01*
X374084Y201727D01*
X373230Y202580D01*
X373230Y202602D01*
X373488Y203850D01*
X375317D01*
X391350Y187817D01*
D02*
G37*
G36*
X267000Y230500D02*
X229500Y193000D01*
Y192449D01*
X229199Y192148D01*
X228734Y191028D01*
Y189815D01*
X229199Y188695D01*
X229500Y188393D01*
Y161000D01*
X246466Y144034D01*
X246349Y143448D01*
X245492Y142590D01*
X245028Y141470D01*
Y140258D01*
X245492Y139137D01*
X246349Y138280D01*
X247470Y137816D01*
X248682D01*
X249802Y138280D01*
X251000Y137681D01*
Y131684D01*
X249372Y130057D01*
X228443D01*
X223750Y134750D01*
X214949D01*
X214770Y134870D01*
X213788Y135065D01*
X200745D01*
X200727Y135084D01*
X199606Y135548D01*
X198394D01*
X197273Y135084D01*
X197255Y135065D01*
X180500D01*
X179518Y134870D01*
X178686Y134314D01*
X170420Y126048D01*
X170394D01*
X169273Y125584D01*
X168416Y124727D01*
X167952Y123606D01*
Y122394D01*
X168416Y121273D01*
X168638Y121051D01*
Y116933D01*
X168834Y115951D01*
X169390Y115119D01*
X169500Y115009D01*
Y109333D01*
X169303D01*
X168318Y108925D01*
X167686Y109158D01*
X167048Y109531D01*
Y110106D01*
X166584Y111227D01*
X165727Y112084D01*
X164606Y112548D01*
X163394D01*
X162273Y112084D01*
X161416Y111227D01*
X160952Y110106D01*
Y108894D01*
X161416Y107773D01*
X162273Y106916D01*
X163394Y106452D01*
X164606D01*
X165591Y106860D01*
X166223Y106627D01*
X166861Y106254D01*
Y105679D01*
X167325Y104558D01*
X168182Y103701D01*
X169303Y103237D01*
X169500D01*
Y99311D01*
X168916Y98727D01*
X168452Y97606D01*
Y96394D01*
X168916Y95273D01*
X169500Y94690D01*
Y75485D01*
X160015Y66000D01*
X155607D01*
X155080Y67270D01*
X155084Y67273D01*
X155548Y68394D01*
Y69606D01*
X155084Y70727D01*
X154227Y71584D01*
X153106Y72048D01*
X151894D01*
X150773Y71584D01*
X149916Y70727D01*
X149452Y69606D01*
Y68394D01*
X149916Y67273D01*
X149920Y67270D01*
X149393Y66000D01*
X117142Y66000D01*
X90500Y92642D01*
Y121000D01*
X83037Y128463D01*
X83227Y129916D01*
X84084Y130773D01*
X84548Y131894D01*
Y133106D01*
X84084Y134227D01*
X83227Y135084D01*
X82106Y135548D01*
X80894D01*
X79773Y135084D01*
X78916Y134227D01*
X77463Y134037D01*
X54048Y157452D01*
Y158606D01*
X53584Y159727D01*
X52727Y160584D01*
X51606Y161048D01*
X50452D01*
X47000Y164500D01*
Y167500D01*
X51000Y171500D01*
X102358D01*
X102747Y171112D01*
X103867Y170648D01*
X105079D01*
X106200Y171112D01*
X106588Y171500D01*
X142287D01*
Y171127D01*
X142751Y170007D01*
X143609Y169150D01*
X144729Y168686D01*
X145901D01*
X146010Y168570D01*
X146592Y167581D01*
X120714Y141703D01*
X119720Y140215D01*
X119371Y138459D01*
Y136736D01*
X118101Y136210D01*
X117727Y136584D01*
X116606Y137048D01*
X115394D01*
X114273Y136584D01*
X113416Y135727D01*
X112952Y134606D01*
Y133394D01*
X113416Y132273D01*
X114273Y131416D01*
X115394Y130952D01*
X116606D01*
X117727Y131416D01*
X118101Y131790D01*
X119371Y131264D01*
Y123337D01*
X118101Y122489D01*
X117818Y122605D01*
X116606D01*
X116119Y122931D01*
Y123106D01*
X115655Y124227D01*
X114798Y125084D01*
X113677Y125548D01*
X112465D01*
X111344Y125084D01*
X110487Y124227D01*
X110023Y123106D01*
Y121894D01*
X110487Y120773D01*
X111344Y119916D01*
X112465Y119452D01*
X113677D01*
X114164Y119127D01*
Y118951D01*
X114628Y117831D01*
X115485Y116973D01*
X116606Y116510D01*
X117818D01*
X118101Y116626D01*
X119371Y115778D01*
Y101920D01*
X119261Y101756D01*
X118912Y100000D01*
X119020Y99454D01*
X118817Y98624D01*
X118404Y98498D01*
X117723Y98892D01*
X117584Y99227D01*
X116727Y100084D01*
X115606Y100548D01*
X114394D01*
X113273Y100084D01*
X112416Y99227D01*
X111952Y98106D01*
Y96894D01*
X112416Y95773D01*
X112610Y95580D01*
X113163Y94750D01*
X112610Y93920D01*
X112416Y93727D01*
X111952Y92606D01*
Y91394D01*
X112416Y90273D01*
X112890Y89800D01*
X113142Y89000D01*
X112890Y88200D01*
X112416Y87727D01*
X111952Y86606D01*
Y85394D01*
X112416Y84273D01*
X113273Y83416D01*
X114394Y82952D01*
X115606D01*
X116727Y83416D01*
X117584Y84273D01*
X118048Y85394D01*
Y86606D01*
X117584Y87727D01*
X117110Y88200D01*
X116858Y89000D01*
X117110Y89800D01*
X117584Y90273D01*
X118048Y91394D01*
Y92606D01*
X117584Y93727D01*
X117390Y93920D01*
X116837Y94750D01*
X117390Y95580D01*
X117584Y95773D01*
X118048Y96894D01*
X118048Y97347D01*
X119261Y98244D01*
X119261Y98244D01*
X119673Y97628D01*
X120256Y96756D01*
X121744Y95761D01*
X123500Y95412D01*
X125256Y95761D01*
X126744Y96756D01*
X127203Y97214D01*
X128198Y98703D01*
X128547Y100459D01*
Y102870D01*
X128910Y103065D01*
X129817Y103259D01*
X130483Y102593D01*
X131603Y102129D01*
X132815D01*
X133936Y102593D01*
X134793Y103451D01*
X135257Y104571D01*
Y105784D01*
X134793Y106904D01*
X134832Y107101D01*
X135989Y107580D01*
X137346Y108937D01*
X138001Y110517D01*
X139581Y111172D01*
X140938Y112529D01*
X141673Y114303D01*
Y116223D01*
X142625Y117243D01*
X143477Y117596D01*
X144335Y118454D01*
X144799Y119574D01*
Y120787D01*
X144335Y121907D01*
X143477Y122764D01*
X142357Y123228D01*
X141144D01*
X140024Y122764D01*
X139167Y121907D01*
X138811Y121048D01*
X137807Y120089D01*
X135887D01*
X134113Y119354D01*
X132756Y117997D01*
X132101Y116417D01*
X130521Y115762D01*
X129817Y115058D01*
X128547Y115584D01*
Y136558D01*
X139279Y147290D01*
X140665Y146880D01*
X140916Y146273D01*
X141773Y145416D01*
X142894Y144952D01*
X144106D01*
X145227Y145416D01*
X146084Y146273D01*
X146548Y147394D01*
Y148606D01*
X146084Y149727D01*
X145227Y150584D01*
X144620Y150835D01*
X144210Y152221D01*
X226983Y234994D01*
X267000D01*
Y230500D01*
D02*
G37*
%LPC*%
G36*
X347500Y296585D02*
X295500D01*
X294128Y296312D01*
X292965Y295535D01*
X292188Y294372D01*
X291915Y293000D01*
X292188Y291628D01*
X292965Y290465D01*
X294128Y289688D01*
X295500Y289415D01*
X347500D01*
X348872Y289688D01*
X350035Y290465D01*
X350812Y291628D01*
X351085Y293000D01*
X350812Y294372D01*
X350035Y295535D01*
X348872Y296312D01*
X347500Y296585D01*
D02*
G37*
G36*
X77180Y294029D02*
X75260D01*
X73486Y293294D01*
X72129Y291937D01*
X71394Y290163D01*
Y288243D01*
X72129Y286469D01*
X73486Y285112D01*
X75066Y284457D01*
X75721Y282877D01*
X77078Y281520D01*
X78852Y280785D01*
X80772D01*
X82546Y281520D01*
X83903Y282877D01*
X84638Y284651D01*
Y286571D01*
X83903Y288344D01*
X82546Y289702D01*
X80965Y290357D01*
X80311Y291937D01*
X78953Y293294D01*
X77180Y294029D01*
D02*
G37*
G36*
X65457Y277229D02*
X63537D01*
X61957Y276574D01*
X60377Y277229D01*
X58457D01*
X56683Y276494D01*
X55325Y275136D01*
X54591Y273363D01*
Y271443D01*
X55325Y269669D01*
X56683Y268311D01*
X58457Y267577D01*
X60377D01*
X61957Y268231D01*
X63537Y267577D01*
X65457D01*
X67230Y268311D01*
X68588Y269669D01*
X69323Y271443D01*
Y273363D01*
X68588Y275136D01*
X67230Y276494D01*
X65457Y277229D01*
D02*
G37*
G36*
X443116Y291016D02*
X425084D01*
Y272984D01*
X443116D01*
Y291016D01*
D02*
G37*
G36*
X88520Y277123D02*
X86600D01*
X84826Y276388D01*
X83469Y275030D01*
X82734Y273256D01*
Y271337D01*
X83469Y269563D01*
X84826Y268205D01*
X86406Y267551D01*
X87061Y265971D01*
X88418Y264613D01*
X90192Y263878D01*
X92112D01*
X93886Y264613D01*
X95243Y265971D01*
X95978Y267745D01*
Y269664D01*
X95243Y271438D01*
X93886Y272796D01*
X92305Y273450D01*
X91651Y275030D01*
X90293Y276388D01*
X88520Y277123D01*
D02*
G37*
G36*
X405302Y258032D02*
X403698D01*
X402216Y257418D01*
X401082Y256284D01*
X400468Y254802D01*
Y253198D01*
X401082Y251716D01*
X402216Y250582D01*
X403698Y249968D01*
X405302D01*
X406784Y250582D01*
X407918Y251716D01*
X408532Y253198D01*
Y254802D01*
X407918Y256284D01*
X406784Y257418D01*
X405302Y258032D01*
D02*
G37*
G36*
X-11723Y252243D02*
X-14360D01*
X-16908Y251561D01*
X-19192Y250242D01*
X-21056Y248377D01*
X-22375Y246093D01*
X-23058Y243546D01*
Y240909D01*
X-22375Y238361D01*
X-21056Y236077D01*
X-19192Y234213D01*
X-16908Y232894D01*
X-14360Y232211D01*
X-11723D01*
X-9176Y232894D01*
X-6892Y234213D01*
X-5027Y236077D01*
X-3708Y238361D01*
X-3026Y240909D01*
Y243546D01*
X-3708Y246093D01*
X-5027Y248377D01*
X-6892Y250242D01*
X-9176Y251561D01*
X-11723Y252243D01*
D02*
G37*
G36*
X30106Y237048D02*
X28894D01*
X27773Y236584D01*
X26916Y235727D01*
X26452Y234606D01*
Y233394D01*
X26221Y233048D01*
X25394D01*
X24273Y232584D01*
X23416Y231727D01*
X22952Y230606D01*
Y229394D01*
X23416Y228273D01*
X24273Y227416D01*
X25394Y226952D01*
X26606D01*
X27727Y227416D01*
X28584Y228273D01*
X29048Y229394D01*
Y230606D01*
X29279Y230952D01*
X30106D01*
X31227Y231416D01*
X32084Y232273D01*
X32548Y233394D01*
Y234606D01*
X32084Y235727D01*
X31227Y236584D01*
X30106Y237048D01*
D02*
G37*
G36*
X331373Y232932D02*
X329453D01*
X327679Y232197D01*
X326322Y230839D01*
X325587Y229066D01*
Y227146D01*
X326242Y225566D01*
X325587Y223986D01*
Y222066D01*
X326322Y220292D01*
X327679Y218934D01*
X329453Y218200D01*
X331373D01*
X333147Y218934D01*
X334504Y220292D01*
X335239Y222066D01*
Y223986D01*
X334585Y225566D01*
X335239Y227146D01*
Y229066D01*
X334504Y230839D01*
X333147Y232197D01*
X331373Y232932D01*
D02*
G37*
G36*
X343515Y232616D02*
X341595D01*
X339822Y231882D01*
X338464Y230524D01*
X337729Y228750D01*
Y226830D01*
X338464Y225056D01*
X338633Y224887D01*
X338130Y223672D01*
Y221752D01*
X338865Y219978D01*
X340222Y218620D01*
X341996Y217886D01*
X343916D01*
X345690Y218620D01*
X347047Y219978D01*
X347782Y221752D01*
Y223672D01*
X347047Y225445D01*
X346878Y225615D01*
X347381Y226830D01*
Y228750D01*
X346646Y230524D01*
X345289Y231882D01*
X343515Y232616D01*
D02*
G37*
G36*
X306797Y232351D02*
X304877D01*
X303103Y231616D01*
X301745Y230259D01*
X301011Y228485D01*
Y226565D01*
X301745Y224791D01*
X301874Y224662D01*
X301359Y223417D01*
Y221497D01*
X302093Y219723D01*
X303451Y218366D01*
X305225Y217631D01*
X307145D01*
X308918Y218366D01*
X310276Y219723D01*
X311011Y221497D01*
Y223417D01*
X310276Y225191D01*
X310147Y225320D01*
X310663Y226565D01*
Y228485D01*
X309928Y230259D01*
X308570Y231616D01*
X306797Y232351D01*
D02*
G37*
G36*
X320030Y232260D02*
X318110D01*
X316336Y231526D01*
X314978Y230168D01*
X314244Y228394D01*
Y226474D01*
X314898Y224894D01*
X314244Y223314D01*
Y221394D01*
X314978Y219621D01*
X316336Y218263D01*
X318110Y217528D01*
X320030D01*
X321803Y218263D01*
X323161Y219621D01*
X323896Y221394D01*
Y223314D01*
X323241Y224894D01*
X323896Y226474D01*
Y228394D01*
X323161Y230168D01*
X321803Y231526D01*
X320030Y232260D01*
D02*
G37*
G36*
X357179Y231507D02*
X355260D01*
X353486Y230773D01*
X352128Y229415D01*
X351394Y227642D01*
Y225722D01*
X352048Y224142D01*
X351394Y222561D01*
Y220642D01*
X352128Y218868D01*
X353486Y217510D01*
X355260Y216775D01*
X357179D01*
X358953Y217510D01*
X360311Y218868D01*
X361046Y220642D01*
Y222561D01*
X360391Y224142D01*
X361046Y225722D01*
Y227642D01*
X360311Y229415D01*
X358953Y230773D01*
X357179Y231507D01*
D02*
G37*
G36*
X436106Y213298D02*
X434894D01*
X433773Y212834D01*
X432916Y211977D01*
X432452Y210856D01*
Y209644D01*
X432916Y208523D01*
X433773Y207666D01*
X434894Y207202D01*
X436106D01*
X437227Y207666D01*
X438084Y208523D01*
X438548Y209644D01*
Y210856D01*
X438084Y211977D01*
X437227Y212834D01*
X436106Y213298D01*
D02*
G37*
G36*
X332117Y159858D02*
X330197D01*
X328617Y159203D01*
X327037Y159858D01*
X325117D01*
X323344Y159123D01*
X321986Y157765D01*
X321251Y155991D01*
Y154072D01*
X321986Y152298D01*
X323344Y150940D01*
X325117Y150206D01*
X327037D01*
X328617Y150860D01*
X330197Y150206D01*
X332117D01*
X333891Y150940D01*
X335249Y152298D01*
X335983Y154072D01*
Y155991D01*
X335249Y157765D01*
X333891Y159123D01*
X332117Y159858D01*
D02*
G37*
G36*
X358777Y159809D02*
X356857D01*
X355277Y159155D01*
X353697Y159809D01*
X351777D01*
X350003Y159074D01*
X348645Y157717D01*
X347911Y155943D01*
Y154023D01*
X348645Y152249D01*
X350003Y150892D01*
X351777Y150157D01*
X353697D01*
X355277Y150812D01*
X356857Y150157D01*
X358777D01*
X360550Y150892D01*
X361908Y152249D01*
X362643Y154023D01*
Y155943D01*
X361908Y157717D01*
X360550Y159074D01*
X358777Y159809D01*
D02*
G37*
G36*
X290546Y173519D02*
X288626D01*
X286853Y172785D01*
X285495Y171427D01*
X284760Y169653D01*
Y167733D01*
X285415Y166153D01*
X284760Y164573D01*
Y162653D01*
X285495Y160880D01*
X286853Y159522D01*
X288626Y158787D01*
X290546D01*
X292320Y159522D01*
X293678Y160880D01*
X294412Y162653D01*
Y164573D01*
X293758Y166153D01*
X294412Y167733D01*
Y169653D01*
X293678Y171427D01*
X292320Y172785D01*
X290546Y173519D01*
D02*
G37*
G36*
X427856Y158048D02*
X426644D01*
X425523Y157584D01*
X424666Y156727D01*
X424202Y155606D01*
Y154394D01*
X424666Y153273D01*
X425523Y152416D01*
X426644Y151952D01*
X427856D01*
X428977Y152416D01*
X429834Y153273D01*
X430298Y154394D01*
Y155606D01*
X429834Y156727D01*
X428977Y157584D01*
X427856Y158048D01*
D02*
G37*
G36*
X28106Y157048D02*
X26894D01*
X25773Y156584D01*
X24916Y155727D01*
X24452Y154606D01*
Y153394D01*
X24916Y152273D01*
X25773Y151416D01*
X25844Y151387D01*
X25937Y150605D01*
X25909Y149985D01*
X25143Y149219D01*
X24679Y148099D01*
Y146886D01*
X25143Y145766D01*
X26000Y144909D01*
X27120Y144445D01*
X28333D01*
X29453Y144909D01*
X30311Y145766D01*
X30775Y146886D01*
Y148099D01*
X30311Y149219D01*
X29453Y150077D01*
X29382Y150106D01*
X29289Y150887D01*
X29318Y151507D01*
X30084Y152273D01*
X30548Y153394D01*
Y154606D01*
X30084Y155727D01*
X29227Y156584D01*
X28106Y157048D01*
D02*
G37*
G36*
X348387Y136512D02*
X346467D01*
X344887Y135857D01*
X343307Y136512D01*
X341387D01*
X339613Y135777D01*
X338255Y134420D01*
X337521Y132646D01*
Y130726D01*
X338255Y128952D01*
X339613Y127595D01*
X341387Y126860D01*
X343307D01*
X344887Y127514D01*
X346467Y126860D01*
X348387D01*
X350160Y127595D01*
X351518Y128952D01*
X352253Y130726D01*
Y132646D01*
X351518Y134420D01*
X350160Y135777D01*
X348387Y136512D01*
D02*
G37*
G36*
X28606Y141048D02*
X27394D01*
X26273Y140584D01*
X25416Y139727D01*
X24952Y138606D01*
Y137394D01*
X25416Y136273D01*
X26273Y135416D01*
X27394Y134952D01*
X28606D01*
X29727Y135416D01*
X30584Y136273D01*
X31048Y137394D01*
Y138606D01*
X30584Y139727D01*
X29727Y140584D01*
X28606Y141048D01*
D02*
G37*
G36*
X436356Y134548D02*
X435144D01*
X434023Y134084D01*
X433166Y133227D01*
X432702Y132106D01*
Y130894D01*
X433166Y129773D01*
X434023Y128916D01*
X435144Y128452D01*
X436356D01*
X437477Y128916D01*
X438334Y129773D01*
X438798Y130894D01*
Y132106D01*
X438334Y133227D01*
X437477Y134084D01*
X436356Y134548D01*
D02*
G37*
G36*
X426606Y131048D02*
X425394D01*
X424273Y130584D01*
X423416Y129727D01*
X422952Y128606D01*
Y127394D01*
X423416Y126273D01*
X424273Y125416D01*
X425394Y124952D01*
X426606D01*
X427727Y125416D01*
X428584Y126273D01*
X429048Y127394D01*
Y128606D01*
X428584Y129727D01*
X427727Y130584D01*
X426606Y131048D01*
D02*
G37*
G36*
X28606D02*
X27394D01*
X26273Y130584D01*
X25416Y129727D01*
X24952Y128606D01*
Y127394D01*
X25416Y126273D01*
X26273Y125416D01*
X27394Y124952D01*
X28606D01*
X29727Y125416D01*
X30584Y126273D01*
X31048Y127394D01*
Y128606D01*
X30584Y129727D01*
X29727Y130584D01*
X28606Y131048D01*
D02*
G37*
G36*
X245106Y118548D02*
X243894D01*
X242773Y118084D01*
X242580Y117890D01*
X241750Y117337D01*
X240920Y117890D01*
X240727Y118084D01*
X239606Y118548D01*
X238394D01*
X237273Y118084D01*
X236416Y117227D01*
X236378Y117135D01*
X234880Y116837D01*
X234763Y116955D01*
X233642Y117419D01*
X232430D01*
X231310Y116955D01*
X230452Y116098D01*
X229988Y114977D01*
Y113765D01*
X230452Y112644D01*
X231310Y111787D01*
X232430Y111323D01*
X233642D01*
X234763Y111787D01*
X235620Y112644D01*
X235658Y112736D01*
X237156Y113034D01*
X237273Y112916D01*
X238394Y112452D01*
X239606D01*
X240727Y112916D01*
X240920Y113110D01*
X241750Y113663D01*
X242580Y113110D01*
X242773Y112916D01*
X243894Y112452D01*
X245106D01*
X246227Y112916D01*
X247411Y112398D01*
X248268Y111541D01*
X249389Y111077D01*
X250601D01*
X251721Y111541D01*
X252579Y112398D01*
X253043Y113518D01*
Y114731D01*
X252579Y115851D01*
X251721Y116709D01*
X250601Y117173D01*
X249389D01*
X248268Y116709D01*
X247084Y117227D01*
X246227Y118084D01*
X245106Y118548D01*
D02*
G37*
G36*
X29123Y121371D02*
X27911D01*
X26790Y120907D01*
X25933Y120050D01*
X25469Y118930D01*
Y117717D01*
X25933Y116597D01*
X26790Y115739D01*
X27911Y115275D01*
X29123D01*
X30243Y115739D01*
X31101Y116597D01*
X31565Y117717D01*
Y118930D01*
X31101Y120050D01*
X30243Y120907D01*
X29123Y121371D01*
D02*
G37*
G36*
X52675Y125892D02*
X51462D01*
X50342Y125428D01*
X49485Y124570D01*
X49021Y123450D01*
Y122237D01*
X49485Y121117D01*
X49660Y120942D01*
X49554Y120409D01*
X48697Y119552D01*
X48233Y118431D01*
Y117219D01*
X48697Y116098D01*
X49554Y115241D01*
X50674Y114777D01*
X51887D01*
X53007Y115241D01*
X53864Y116098D01*
X54329Y117219D01*
Y118431D01*
X53864Y119552D01*
X53689Y119727D01*
X53795Y120260D01*
X54653Y121117D01*
X55117Y122237D01*
Y123450D01*
X54653Y124570D01*
X53795Y125428D01*
X52675Y125892D01*
D02*
G37*
G36*
X356146Y128431D02*
X354226D01*
X352452Y127696D01*
X351094Y126338D01*
X350360Y124565D01*
Y122645D01*
X351014Y121065D01*
X350360Y119485D01*
Y117565D01*
X351094Y115791D01*
X352452Y114433D01*
X354226Y113699D01*
X356146D01*
X357919Y114433D01*
X359277Y115791D01*
X360012Y117565D01*
Y119485D01*
X359357Y121065D01*
X360012Y122645D01*
Y124565D01*
X359277Y126338D01*
X357919Y127696D01*
X356146Y128431D01*
D02*
G37*
G36*
X29123Y113092D02*
X27911D01*
X26790Y112628D01*
X25933Y111770D01*
X25469Y110650D01*
Y109437D01*
X25933Y108317D01*
X26790Y107460D01*
X27911Y106996D01*
X29123D01*
X30243Y107460D01*
X31101Y108317D01*
X31565Y109437D01*
Y110650D01*
X31101Y111770D01*
X30243Y112628D01*
X29123Y113092D01*
D02*
G37*
G36*
X453606Y116548D02*
X452394D01*
X451273Y116084D01*
X450416Y115227D01*
X449952Y114106D01*
Y112894D01*
X450233Y112217D01*
X450302Y111611D01*
X449677Y110716D01*
X449252Y110540D01*
X448394Y109683D01*
X447930Y108563D01*
Y107350D01*
X448394Y106230D01*
X449252Y105372D01*
X450372Y104908D01*
X451584D01*
X452705Y105372D01*
X453896Y104894D01*
X454360Y103773D01*
X455217Y102916D01*
X456338Y102452D01*
X457550D01*
X458671Y102916D01*
X459528Y103773D01*
X459992Y104894D01*
Y106106D01*
X459528Y107227D01*
X458671Y108084D01*
X457550Y108548D01*
X456338D01*
X455218Y108084D01*
X454026Y108563D01*
X453746Y109240D01*
X453676Y109846D01*
X454301Y110740D01*
X454727Y110916D01*
X455584Y111773D01*
X456048Y112894D01*
Y114106D01*
X455584Y115227D01*
X454727Y116084D01*
X453606Y116548D01*
D02*
G37*
G36*
X371066Y115974D02*
X369146D01*
X367373Y115239D01*
X366015Y113882D01*
X365280Y112108D01*
Y110188D01*
X365935Y108608D01*
X365280Y107028D01*
Y105108D01*
X366015Y103334D01*
X367373Y101977D01*
X369146Y101242D01*
X371066D01*
X372840Y101977D01*
X374198Y103334D01*
X374932Y105108D01*
Y107028D01*
X374278Y108608D01*
X374932Y110188D01*
Y112108D01*
X374198Y113882D01*
X372840Y115239D01*
X371066Y115974D01*
D02*
G37*
G36*
X436169Y113154D02*
X434249D01*
X432475Y112420D01*
X431118Y111062D01*
X430383Y109288D01*
Y107368D01*
X431038Y105788D01*
X430383Y104208D01*
Y102289D01*
X430479Y102057D01*
X429507Y101085D01*
X429035Y101281D01*
X427115D01*
X425341Y100546D01*
X423984Y99188D01*
X423249Y97415D01*
Y95495D01*
X423904Y93915D01*
X423249Y92335D01*
Y90415D01*
X423984Y88641D01*
X425341Y87283D01*
X427115Y86549D01*
X427136D01*
X427821Y85524D01*
Y83604D01*
X428475Y82024D01*
X427821Y80444D01*
Y78524D01*
X428031Y78018D01*
X427058Y77046D01*
X426268Y77373D01*
X424348D01*
X422574Y76638D01*
X421217Y75281D01*
X420482Y73507D01*
Y71587D01*
X421136Y70007D01*
X420482Y68427D01*
Y66507D01*
X421217Y64734D01*
X422574Y63376D01*
X424348Y62641D01*
X426268D01*
X428042Y63376D01*
X429399Y64734D01*
X430134Y66507D01*
Y68427D01*
X429479Y70007D01*
X430134Y71587D01*
Y73507D01*
X429924Y74014D01*
X430896Y74985D01*
X431687Y74658D01*
X433607D01*
X435380Y75393D01*
X436738Y76750D01*
X437473Y78524D01*
Y80444D01*
X436818Y82024D01*
X437473Y83604D01*
Y85524D01*
X436738Y87298D01*
X435380Y88655D01*
X433607Y89390D01*
X433586D01*
X432901Y90415D01*
Y92335D01*
X432247Y93915D01*
X432901Y95495D01*
Y97415D01*
X432805Y97646D01*
X433777Y98618D01*
X434249Y98422D01*
X436169D01*
X437943Y99157D01*
X439300Y100515D01*
X440035Y102289D01*
Y104208D01*
X439381Y105788D01*
X440035Y107368D01*
Y109288D01*
X439300Y111062D01*
X437943Y112420D01*
X436169Y113154D01*
D02*
G37*
G36*
X21710Y104990D02*
X20497D01*
X19377Y104526D01*
X18519Y103669D01*
X18055Y102548D01*
Y101336D01*
X18519Y100216D01*
X19377Y99358D01*
X20497Y98894D01*
X21710D01*
X22830Y99358D01*
X23687Y100216D01*
X24151Y101336D01*
Y102548D01*
X23687Y103669D01*
X22830Y104526D01*
X21710Y104990D01*
D02*
G37*
G36*
X53106Y104548D02*
X51894D01*
X50773Y104084D01*
X49916Y103227D01*
X49452Y102106D01*
Y100894D01*
X49916Y99773D01*
X50773Y98916D01*
X51894Y98452D01*
X53106D01*
X54227Y98916D01*
X55084Y99773D01*
X55548Y100894D01*
Y102106D01*
X55084Y103227D01*
X54227Y104084D01*
X53106Y104548D01*
D02*
G37*
G36*
X39606Y101048D02*
X38394D01*
X37273Y100584D01*
X36416Y99727D01*
X35952Y98606D01*
Y97394D01*
X36416Y96273D01*
X37273Y95416D01*
X38394Y94952D01*
X39606D01*
X40727Y95416D01*
X41584Y96273D01*
X42048Y97394D01*
Y98606D01*
X41584Y99727D01*
X40727Y100584D01*
X39606Y101048D01*
D02*
G37*
G36*
X8806D02*
X7594D01*
X6473Y100584D01*
X5616Y99727D01*
X5152Y98606D01*
Y97394D01*
X5616Y96273D01*
X6473Y95416D01*
X7594Y94952D01*
X8806D01*
X9927Y95416D01*
X10784Y96273D01*
X11248Y97394D01*
Y98606D01*
X10784Y99727D01*
X9927Y100584D01*
X8806Y101048D01*
D02*
G37*
G36*
X67106Y93548D02*
X65894D01*
X64773Y93084D01*
X64300Y92610D01*
X63500Y92358D01*
X62700Y92610D01*
X62227Y93084D01*
X61106Y93548D01*
X59894D01*
X58773Y93084D01*
X57916Y92227D01*
X57452Y91106D01*
Y89894D01*
X57916Y88773D01*
X58773Y87916D01*
X59894Y87452D01*
X61106D01*
X62227Y87916D01*
X62700Y88390D01*
X63500Y88642D01*
X64300Y88390D01*
X64773Y87916D01*
X65894Y87452D01*
X67106D01*
X68227Y87916D01*
X69084Y88773D01*
X69548Y89894D01*
Y91106D01*
X69084Y92227D01*
X68227Y93084D01*
X67106Y93548D01*
D02*
G37*
G36*
X21606Y97548D02*
X20394D01*
X19273Y97084D01*
X18416Y96227D01*
X17952Y95106D01*
Y93894D01*
X18416Y92773D01*
X19273Y91916D01*
X20394Y91452D01*
X21606D01*
X22727Y91916D01*
X23584Y92773D01*
X24048Y93894D01*
Y95106D01*
X23584Y96227D01*
X22727Y97084D01*
X21606Y97548D01*
D02*
G37*
G36*
X53106Y97048D02*
X51894D01*
X50773Y96584D01*
X49916Y95727D01*
X49452Y94606D01*
Y93394D01*
X49916Y92273D01*
X50773Y91416D01*
X51894Y90952D01*
X53106D01*
X54227Y91416D01*
X55084Y92273D01*
X55548Y93394D01*
Y94606D01*
X55084Y95727D01*
X54227Y96584D01*
X53106Y97048D01*
D02*
G37*
G36*
X39606Y93548D02*
X38394D01*
X37273Y93084D01*
X36416Y92227D01*
X35952Y91106D01*
Y89894D01*
X36416Y88773D01*
X37273Y87916D01*
X38394Y87452D01*
X39606D01*
X40727Y87916D01*
X41584Y88773D01*
X42048Y89894D01*
Y91106D01*
X41584Y92227D01*
X40727Y93084D01*
X39606Y93548D01*
D02*
G37*
G36*
X8806D02*
X7594D01*
X6473Y93084D01*
X5616Y92227D01*
X5152Y91106D01*
Y89894D01*
X5616Y88773D01*
X6473Y87916D01*
X7594Y87452D01*
X8806D01*
X9927Y87916D01*
X10784Y88773D01*
X11248Y89894D01*
Y91106D01*
X10784Y92227D01*
X9927Y93084D01*
X8806Y93548D01*
D02*
G37*
G36*
X250911Y83292D02*
X248991D01*
X247411Y82638D01*
X245831Y83292D01*
X243911D01*
X242137Y82558D01*
X240780Y81200D01*
X240045Y79426D01*
Y77506D01*
X240780Y75733D01*
X242137Y74375D01*
X243911Y73640D01*
X245831D01*
X247411Y74295D01*
X248991Y73640D01*
X250911D01*
X252684Y74375D01*
X254042Y75733D01*
X254777Y77506D01*
Y79426D01*
X254042Y81200D01*
X252684Y82558D01*
X250911Y83292D01*
D02*
G37*
G36*
X205856Y79154D02*
X203936D01*
X202356Y78499D01*
X200776Y79154D01*
X198856D01*
X197082Y78419D01*
X195724Y77061D01*
X194990Y75288D01*
Y73368D01*
X195724Y71594D01*
X197082Y70236D01*
X198856Y69502D01*
X200776D01*
X202356Y70156D01*
X203936Y69502D01*
X205856D01*
X207629Y70236D01*
X208987Y71594D01*
X209722Y73368D01*
Y75288D01*
X208987Y77061D01*
X207629Y78419D01*
X205856Y79154D01*
D02*
G37*
G36*
X231500Y85150D02*
X226500D01*
X225334Y84666D01*
X219662Y78995D01*
X219179Y77829D01*
Y77428D01*
X215257Y73506D01*
X215180Y73538D01*
X213968D01*
X212848Y73074D01*
X211990Y72216D01*
X211526Y71096D01*
Y69883D01*
X211990Y68763D01*
X212848Y67906D01*
X213968Y67442D01*
X215180D01*
X216301Y67906D01*
X217158Y68763D01*
X217622Y69883D01*
Y71096D01*
X217590Y71173D01*
X221995Y75578D01*
X222478Y76744D01*
Y77145D01*
X226234Y80901D01*
X226332Y80882D01*
X226393Y80835D01*
X227010Y79452D01*
X226827Y79009D01*
Y77797D01*
X227291Y76676D01*
X228148Y75819D01*
X228225Y75787D01*
Y74125D01*
X228708Y72959D01*
X229921Y71746D01*
Y65097D01*
X229177Y64599D01*
X226853D01*
X224706Y63710D01*
X224277Y63281D01*
X223897Y63439D01*
X221977D01*
X220203Y62704D01*
X218846Y61347D01*
X218487Y60480D01*
X216992Y60191D01*
X216722Y60462D01*
X215602Y60926D01*
X214389D01*
X213269Y60462D01*
X212993Y60185D01*
X211500Y60470D01*
X211457Y60575D01*
X210099Y61932D01*
X208325Y62667D01*
X206406D01*
X204825Y62013D01*
X203245Y62667D01*
X201325D01*
X199552Y61932D01*
X198194Y60575D01*
X197459Y58801D01*
Y56881D01*
X198194Y55107D01*
X199552Y53750D01*
X201325Y53015D01*
X203245D01*
X204825Y53670D01*
X206406Y53015D01*
X208325D01*
X210099Y53750D01*
X211457Y55107D01*
X211516Y55250D01*
X213014Y55548D01*
X213269Y55294D01*
X214389Y54830D01*
X215602D01*
X216722Y55294D01*
X217423Y55995D01*
X218273Y56005D01*
X218843Y55885D01*
X218846Y55879D01*
X220203Y54522D01*
X220308Y53995D01*
X219410Y53098D01*
X218456Y51670D01*
X218121Y49985D01*
Y49042D01*
X217509Y48429D01*
X216985Y47164D01*
X215610D01*
X215584Y47227D01*
X214727Y48084D01*
X213606Y48548D01*
X212394D01*
X211273Y48084D01*
X210416Y47227D01*
X209952Y46106D01*
Y44894D01*
X210416Y43773D01*
X211273Y42916D01*
X212394Y42452D01*
X213606D01*
X214727Y42916D01*
X215446Y43635D01*
X216251Y43603D01*
X216827Y43456D01*
X217509Y41811D01*
X219152Y40167D01*
X221299Y39278D01*
X223623D01*
X225770Y40167D01*
X226097Y40494D01*
X226581Y40294D01*
X228501D01*
X230275Y41029D01*
X231632Y42386D01*
X231766Y42708D01*
X232593Y42873D01*
X233714Y42409D01*
X234926D01*
X236047Y42873D01*
X236148Y42974D01*
X237494Y43042D01*
X238352Y42185D01*
X239472Y41721D01*
X240684D01*
X241805Y42185D01*
X242662Y43042D01*
X243126Y44163D01*
Y45375D01*
X242662Y46495D01*
X241805Y47353D01*
X240684Y47817D01*
X239472D01*
X238352Y47353D01*
X238250Y47252D01*
X236904Y47183D01*
X236047Y48041D01*
X234926Y48505D01*
X233854D01*
X233221Y49138D01*
Y54104D01*
X234491Y54952D01*
X234608Y54904D01*
X235820D01*
X236940Y55368D01*
X236954Y55382D01*
X238336Y55363D01*
X239694Y54005D01*
X241468Y53271D01*
X243388D01*
X244994Y53936D01*
X246548Y53292D01*
X248468D01*
X250241Y54027D01*
X251599Y55384D01*
X252334Y57158D01*
Y59078D01*
X251599Y60852D01*
X250241Y62209D01*
X248468Y62944D01*
X246548D01*
X244942Y62279D01*
X243388Y62923D01*
X241468D01*
X239694Y62188D01*
X238336Y60830D01*
X236940Y60536D01*
X235820Y61000D01*
X234608D01*
X234238Y60847D01*
X233221Y61800D01*
Y72429D01*
X232737Y73595D01*
X231730Y74602D01*
X231762Y75980D01*
X232459Y76676D01*
X232965Y76777D01*
X233172Y76569D01*
X234293Y76105D01*
X235505D01*
X236625Y76569D01*
X237483Y77427D01*
X237947Y78547D01*
Y79760D01*
X237483Y80880D01*
X236625Y81737D01*
X235505Y82201D01*
X235131D01*
X232666Y84666D01*
X231500Y85150D01*
D02*
G37*
G36*
X404104Y65343D02*
X402185D01*
X400411Y64608D01*
X399053Y63251D01*
X398318Y61477D01*
Y59557D01*
X398973Y57977D01*
X398318Y56397D01*
Y54477D01*
X399053Y52703D01*
X400411Y51346D01*
X402185Y50611D01*
X404104D01*
X405878Y51346D01*
X407236Y52703D01*
X407971Y54477D01*
Y56397D01*
X407316Y57977D01*
X407971Y59557D01*
Y61477D01*
X407236Y63251D01*
X405878Y64608D01*
X404104Y65343D01*
D02*
G37*
G36*
X460277Y67243D02*
X457640D01*
X455092Y66561D01*
X452808Y65242D01*
X450943Y63377D01*
X449625Y61094D01*
X448942Y58546D01*
Y55909D01*
X449625Y53361D01*
X450943Y51077D01*
X452808Y49213D01*
X455092Y47894D01*
X457640Y47211D01*
X460277D01*
X462824Y47894D01*
X465108Y49213D01*
X466973Y51077D01*
X468292Y53361D01*
X468974Y55909D01*
Y58546D01*
X468292Y61094D01*
X466973Y63377D01*
X465108Y65242D01*
X462824Y66561D01*
X460277Y67243D01*
D02*
G37*
G36*
X134606Y36548D02*
X133394D01*
X132273Y36084D01*
X131416Y35227D01*
X130952Y34106D01*
Y32894D01*
X131416Y31773D01*
X132273Y30916D01*
X133394Y30452D01*
X134606D01*
X135727Y30916D01*
X136584Y31773D01*
X137048Y32894D01*
Y34106D01*
X136584Y35227D01*
X135727Y36084D01*
X134606Y36548D01*
D02*
G37*
G36*
X355356Y30048D02*
X354144D01*
X353023Y29584D01*
X352166Y28727D01*
X351702Y27606D01*
Y26394D01*
X352166Y25273D01*
X353023Y24416D01*
X354144Y23952D01*
X355356D01*
X356477Y24416D01*
X357334Y25273D01*
X357798Y26394D01*
Y27606D01*
X357334Y28727D01*
X356477Y29584D01*
X355356Y30048D01*
D02*
G37*
G36*
X277356Y24548D02*
X276144D01*
X275023Y24084D01*
X274166Y23227D01*
X273702Y22106D01*
Y20894D01*
X274166Y19773D01*
X275023Y18916D01*
X276144Y18452D01*
X277356D01*
X278477Y18916D01*
X279334Y19773D01*
X279798Y20894D01*
Y22106D01*
X279334Y23227D01*
X278477Y24084D01*
X277356Y24548D01*
D02*
G37*
G36*
X320356Y18798D02*
X319144D01*
X318023Y18334D01*
X317166Y17477D01*
X316702Y16356D01*
Y15144D01*
X317166Y14023D01*
X318023Y13166D01*
X319144Y12702D01*
X320356D01*
X321477Y13166D01*
X322334Y14023D01*
X322798Y15144D01*
Y16356D01*
X322334Y17477D01*
X321477Y18334D01*
X320356Y18798D01*
D02*
G37*
G36*
X376356Y16550D02*
X375144D01*
X374023Y16086D01*
X373166Y15228D01*
X372702Y14108D01*
Y12895D01*
X373166Y11775D01*
X374023Y10918D01*
X375144Y10454D01*
X376356D01*
X377477Y10918D01*
X378334Y11775D01*
X378798Y12895D01*
Y14108D01*
X378334Y15228D01*
X377477Y16086D01*
X376356Y16550D01*
D02*
G37*
G36*
X245106Y270048D02*
X243894D01*
X242773Y269584D01*
X241916Y268727D01*
X241452Y267606D01*
Y266394D01*
X241916Y265273D01*
X242773Y264416D01*
X243894Y263952D01*
X245106D01*
X246227Y264416D01*
X247084Y265273D01*
X247548Y266394D01*
Y267606D01*
X247084Y268727D01*
X246227Y269584D01*
X245106Y270048D01*
D02*
G37*
G36*
X273106Y269548D02*
X271894D01*
X270773Y269084D01*
X269916Y268227D01*
X269452Y267106D01*
Y265894D01*
X269916Y264773D01*
X270773Y263916D01*
X271894Y263452D01*
X273106D01*
X274227Y263916D01*
X275084Y264773D01*
X275548Y265894D01*
Y267106D01*
X275084Y268227D01*
X274227Y269084D01*
X273106Y269548D01*
D02*
G37*
G36*
X153067Y233025D02*
X151147D01*
X149373Y232290D01*
X148015Y230932D01*
X147846Y230524D01*
X147837Y230518D01*
X146388Y230323D01*
X145487Y231224D01*
X143713Y231959D01*
X141793D01*
X140019Y231224D01*
X138946Y230151D01*
X137540Y230225D01*
X137522Y230269D01*
X136165Y231626D01*
X134391Y232361D01*
X132471D01*
X130697Y231626D01*
X129340Y230269D01*
X128726Y228788D01*
X127650Y228627D01*
X127404Y228662D01*
X126820Y230071D01*
X125462Y231429D01*
X123689Y232163D01*
X121769D01*
X119995Y231429D01*
X118638Y230071D01*
X117903Y228297D01*
Y227752D01*
X116633Y227500D01*
X116070Y228858D01*
X114712Y230215D01*
X112939Y230950D01*
X111019D01*
X109245Y230215D01*
X107888Y228858D01*
X107153Y227084D01*
Y225164D01*
X107780Y223651D01*
X107098Y222004D01*
Y220084D01*
X107832Y218311D01*
X109190Y216953D01*
X110964Y216218D01*
X112884D01*
X114657Y216953D01*
X116015Y218311D01*
X116750Y220084D01*
Y220763D01*
X118020Y221015D01*
X118638Y219524D01*
X119995Y218166D01*
X121769Y217431D01*
X123689D01*
X125462Y218166D01*
X126820Y219524D01*
X127433Y221005D01*
X128509Y221165D01*
X128756Y221131D01*
X129340Y219722D01*
X130697Y218364D01*
X132471Y217629D01*
X134391D01*
X136165Y218364D01*
X137238Y219438D01*
X138644Y219363D01*
X138662Y219319D01*
X140019Y217962D01*
X141793Y217227D01*
X143713D01*
X145487Y217962D01*
X146844Y219319D01*
X146907Y219471D01*
X148405Y219769D01*
X149142Y219033D01*
X150916Y218298D01*
X152836D01*
X154609Y219033D01*
X155967Y220390D01*
X156701Y222164D01*
Y224084D01*
X156150Y225417D01*
X156198Y225465D01*
X156933Y227239D01*
Y229159D01*
X156198Y230932D01*
X154840Y232290D01*
X153067Y233025D01*
D02*
G37*
G36*
X161245Y205973D02*
X160032D01*
X158912Y205509D01*
X158054Y204651D01*
X157590Y203531D01*
Y202318D01*
X158054Y201198D01*
X158912Y200341D01*
X160032Y199877D01*
X161245D01*
X162365Y200341D01*
X163222Y201198D01*
X163686Y202318D01*
Y203531D01*
X163222Y204651D01*
X162365Y205509D01*
X161245Y205973D01*
D02*
G37*
G36*
X394303Y149475D02*
X392383D01*
X390609Y148741D01*
X389252Y147383D01*
X388517Y145609D01*
Y143689D01*
X389171Y142109D01*
X388517Y140529D01*
Y138610D01*
X389252Y136836D01*
X390609Y135478D01*
X392383Y134743D01*
X394303D01*
X396077Y135478D01*
X397434Y136836D01*
X398169Y138610D01*
Y140529D01*
X397514Y142109D01*
X398169Y143689D01*
Y145609D01*
X397434Y147383D01*
X396077Y148741D01*
X394303Y149475D01*
D02*
G37*
G36*
X220606Y210048D02*
X219394D01*
X218273Y209584D01*
X217416Y208727D01*
X216952Y207606D01*
Y206394D01*
X217416Y205273D01*
X218273Y204416D01*
X219394Y203952D01*
X220606D01*
X221727Y204416D01*
X222584Y205273D01*
X223048Y206394D01*
Y207606D01*
X222584Y208727D01*
X221727Y209584D01*
X220606Y210048D01*
D02*
G37*
G36*
X199130Y161141D02*
X197917D01*
X196797Y160677D01*
X195939Y159820D01*
X195475Y158700D01*
Y157487D01*
X195939Y156367D01*
X196797Y155509D01*
X197917Y155045D01*
X199130D01*
X200250Y155509D01*
X201107Y156367D01*
X201571Y157487D01*
Y158700D01*
X201107Y159820D01*
X200250Y160677D01*
X199130Y161141D01*
D02*
G37*
G36*
X81606Y150048D02*
X80394D01*
X79273Y149584D01*
X78416Y148727D01*
X77952Y147606D01*
Y146394D01*
X78416Y145273D01*
X79273Y144416D01*
X80394Y143952D01*
X81606D01*
X82727Y144416D01*
X83584Y145273D01*
X84048Y146394D01*
Y147606D01*
X83584Y148727D01*
X82727Y149584D01*
X81606Y150048D01*
D02*
G37*
G36*
X173545Y149235D02*
X172333D01*
X171213Y148771D01*
X170355Y147914D01*
X169891Y146794D01*
Y145581D01*
X170355Y144461D01*
X171213Y143603D01*
X172333Y143139D01*
X173545D01*
X174666Y143603D01*
X175523Y144461D01*
X175987Y145581D01*
Y146794D01*
X175523Y147914D01*
X174666Y148771D01*
X173545Y149235D01*
D02*
G37*
G36*
X221606Y153048D02*
X220394D01*
X219273Y152584D01*
X218416Y151727D01*
X217952Y150606D01*
Y149394D01*
X218416Y148273D01*
X219189Y147500D01*
X218416Y146727D01*
X217952Y145606D01*
Y144394D01*
X218416Y143273D01*
X219273Y142416D01*
X220394Y141952D01*
X221606D01*
X222727Y142416D01*
X223584Y143273D01*
X224048Y144394D01*
Y145606D01*
X223584Y146727D01*
X222810Y147500D01*
X223584Y148273D01*
X224048Y149394D01*
Y150606D01*
X223584Y151727D01*
X222727Y152584D01*
X221606Y153048D01*
D02*
G37*
G36*
X190106Y147548D02*
X188894D01*
X187773Y147084D01*
X186916Y146227D01*
X186452Y145106D01*
Y143894D01*
X186916Y142773D01*
X187773Y141916D01*
X188894Y141452D01*
X190106D01*
X191227Y141916D01*
X192084Y142773D01*
X192548Y143894D01*
Y145106D01*
X192084Y146227D01*
X191227Y147084D01*
X190106Y147548D01*
D02*
G37*
G36*
X97876Y136048D02*
X96664D01*
X95543Y135584D01*
X94686Y134727D01*
X94222Y133606D01*
Y132394D01*
X94686Y131273D01*
X95543Y130416D01*
X96664Y129952D01*
X97876D01*
X98997Y130416D01*
X99854Y131273D01*
X100318Y132394D01*
Y133606D01*
X99854Y134727D01*
X98997Y135584D01*
X97876Y136048D01*
D02*
G37*
G36*
X160667Y126722D02*
X159455D01*
X158334Y126258D01*
X157477Y125401D01*
X157013Y124280D01*
Y123068D01*
X157477Y121948D01*
X158334Y121090D01*
X159455Y120626D01*
X160667D01*
X161787Y121090D01*
X162645Y121948D01*
X163109Y123068D01*
Y124280D01*
X162645Y125401D01*
X161787Y126258D01*
X160667Y126722D01*
D02*
G37*
G36*
X113606Y113048D02*
X112394D01*
X111273Y112584D01*
X110416Y111727D01*
X109952Y110606D01*
Y109394D01*
X110416Y108273D01*
X111273Y107416D01*
X112394Y106952D01*
X113606D01*
X114726Y107416D01*
X115584Y108273D01*
X116048Y109394D01*
Y110606D01*
X115584Y111727D01*
X114726Y112584D01*
X113606Y113048D01*
D02*
G37*
G36*
X140515Y89333D02*
X139303D01*
X138182Y88869D01*
X137325Y88011D01*
X136861Y86891D01*
Y85679D01*
X137325Y84558D01*
X138182Y83701D01*
X138307Y83649D01*
X137876Y82476D01*
X137680Y82476D01*
X136664D01*
X135543Y82012D01*
X134686Y81154D01*
X134222Y80034D01*
Y78822D01*
X134686Y77701D01*
X135543Y76844D01*
X136016Y76648D01*
X136637Y75866D01*
X136599Y75136D01*
X136347Y74527D01*
Y73315D01*
X136811Y72194D01*
X137668Y71337D01*
X138789Y70873D01*
X140001D01*
X141122Y71337D01*
X141979Y72194D01*
X142443Y73315D01*
Y74527D01*
X141979Y75648D01*
X141122Y76505D01*
X140649Y76701D01*
X140028Y77482D01*
X140065Y78212D01*
X140318Y78822D01*
Y80034D01*
X139854Y81154D01*
X138996Y82012D01*
X138871Y82064D01*
X139303Y83237D01*
X139498Y83237D01*
X140515D01*
X141635Y83701D01*
X142493Y84558D01*
X142957Y85679D01*
Y86891D01*
X142493Y88011D01*
X141635Y88869D01*
X140515Y89333D01*
D02*
G37*
%LPD*%
D11*
X120893Y58620D02*
X140663D01*
X148283Y51000D02*
X175000D01*
X140663Y58620D02*
X148283Y51000D01*
X76062Y103452D02*
X120893Y58620D01*
X63500Y116014D02*
X70952Y108562D01*
Y106116D02*
X73616Y103452D01*
X76062D01*
X63500Y116014D02*
Y138000D01*
X70952Y106116D02*
Y108562D01*
X11187Y186141D02*
X15359D01*
X8435D02*
X11187D01*
X171000Y123000D02*
X171204Y122796D01*
Y116933D02*
X177500Y110637D01*
X171000Y123000D02*
X180500Y132500D01*
X171204Y116933D02*
Y122796D01*
X180500Y132500D02*
X213788D01*
X177500Y89144D02*
Y110637D01*
X15359Y186141D02*
X63500Y138000D01*
X213788Y132500D02*
X215788Y130500D01*
Y130500D02*
X222000Y124288D01*
X215788Y130500D02*
Y130500D01*
X222000Y124000D02*
Y124288D01*
X173911Y76911D02*
Y85555D01*
X177500Y89144D01*
D78*
X19000Y259692D02*
Y261000D01*
Y259692D02*
X23925Y254768D01*
X19000Y261000D02*
X22001Y264001D01*
Y264571D01*
X23232Y254768D02*
X23925D01*
X299415Y123315D02*
X305111D01*
X310000Y128204D01*
X304780Y126871D02*
X307500Y129591D01*
X295787Y126871D02*
X304780D01*
X307500Y129591D02*
Y164500D01*
X299818Y130747D02*
X304000Y134929D01*
X299818Y130427D02*
Y130747D01*
X310000Y128204D02*
Y162500D01*
X313500Y128133D02*
Y161000D01*
X301570Y116203D02*
X313500Y128133D01*
X222461Y45120D02*
X222523Y45182D01*
Y49985D01*
X227740Y55201D01*
Y58482D02*
X228015Y58757D01*
X227740Y55201D02*
Y58482D01*
X388652Y292095D02*
X398748Y282000D01*
X377549Y292095D02*
X388652D01*
X371000Y285546D02*
X377549Y292095D01*
X398748Y282000D02*
X408700D01*
X403329Y125569D02*
Y146614D01*
X393000Y156942D02*
X403329Y146614D01*
X98500Y226712D02*
Y234500D01*
X95026Y223238D02*
X98500Y226712D01*
X106080Y289080D02*
X108751Y291751D01*
X275749D02*
X287000Y280500D01*
X108751Y291751D02*
X275749D01*
X276544Y293994D02*
X289148Y281390D01*
X104624Y293994D02*
X276544D01*
X104277Y293648D02*
X104624Y293994D01*
X291439Y212561D02*
Y218449D01*
X291947Y218957D01*
X21319Y203530D02*
X31544Y193305D01*
X21319Y203530D02*
Y203652D01*
X391638Y208362D02*
X407712D01*
X362208Y237792D02*
X391638Y208362D01*
X273000Y232000D02*
X273583Y232583D01*
X275101D02*
X275119Y232601D01*
X286283D02*
X297000Y221884D01*
X273583Y232583D02*
X275101D01*
X275119Y232601D02*
X286283D01*
X297000Y214500D02*
Y221884D01*
X286500Y213500D02*
Y217753D01*
X286893Y218146D01*
X286500Y213500D02*
X301000Y199000D01*
X293427Y192500D02*
X352243D01*
X292996Y192930D02*
X293427Y192500D01*
X29979Y189841D02*
X117673D01*
X7480Y202953D02*
X16867D01*
X29979Y189841D01*
X17077Y212923D02*
X33139Y196861D01*
X113088D01*
X121069Y193485D02*
X121216Y193632D01*
X116453Y193485D02*
X121069D01*
X31544Y193305D02*
X116273D01*
X116453Y193485D01*
X220829Y76744D02*
Y77829D01*
X214574Y70490D02*
X220829Y76744D01*
Y77829D02*
X226500Y83500D01*
X231500D01*
X234239Y80638D02*
Y80761D01*
Y80638D02*
X234899Y79978D01*
X231500Y83500D02*
X234239Y80761D01*
X234899Y79153D02*
Y79978D01*
X234320Y45457D02*
Y45706D01*
X231571Y48455D02*
X234320Y45706D01*
X231571Y48455D02*
Y72429D01*
X7917Y212923D02*
X17077D01*
X7855Y212984D02*
X7917Y212923D01*
X7358Y202831D02*
X7480Y202953D01*
X8412Y198000D02*
X18859D01*
X8241Y197829D02*
X8412Y198000D01*
X3802Y217302D02*
X20417Y233917D01*
X3802Y190774D02*
X8435Y186141D01*
X3802Y190774D02*
Y217302D01*
X101498Y289080D02*
X106080D01*
X30574Y186285D02*
X121285D01*
X18859Y198000D02*
X30574Y186285D01*
X121285D02*
X121500Y186500D01*
X406885Y132180D02*
Y133005D01*
X405921Y133968D02*
Y148079D01*
Y133968D02*
X406885Y133005D01*
X395500Y158500D02*
X405921Y148079D01*
X324412Y217088D02*
Y228568D01*
X137583Y219083D02*
Y234083D01*
X137000Y218500D02*
X137583Y219083D01*
X147238Y217237D02*
Y229647D01*
Y234737D01*
X382771Y186728D02*
X388104Y181396D01*
X296880Y194969D02*
X353902D01*
X362143Y186728D02*
X382771D01*
X353902Y194969D02*
X362143Y186728D01*
X380904Y184096D02*
X385000Y180000D01*
X352243Y192500D02*
X360647Y184096D01*
X380904D01*
X35278Y200500D02*
X82000D01*
X26850Y208928D02*
X35278Y200500D01*
X20417Y235417D02*
X21000Y236000D01*
X20417Y233917D02*
Y235417D01*
X280000Y245000D02*
X287208Y237792D01*
X101500Y233500D02*
X113000Y245000D01*
X280000D01*
X98500Y234500D02*
X113000Y249000D01*
X280500D02*
X289096Y240404D01*
X113000Y249000D02*
X280500D01*
X363839Y240404D02*
X391743Y212500D01*
X416623D02*
X421761Y207362D01*
X391743Y212500D02*
X416623D01*
X303415Y245747D02*
X345367D01*
X371000Y271381D02*
Y285546D01*
X345367Y245747D02*
X371000Y271381D01*
X383300Y277945D02*
Y282000D01*
X379782Y274081D02*
Y274427D01*
X302495Y243388D02*
X349088D01*
X379782Y274081D01*
Y274427D02*
X383300Y277945D01*
X289148Y260014D02*
Y281390D01*
Y260014D02*
X303415Y245747D01*
X287000Y258883D02*
X302495Y243388D01*
X287000Y258883D02*
Y280500D01*
X289096Y240404D02*
X363839D01*
X287208Y237792D02*
X362208D01*
X98482Y219982D02*
X101500Y223000D01*
X98482Y219515D02*
Y219982D01*
X101500Y223000D02*
Y233500D01*
X377500Y131500D02*
X385500Y123500D01*
X396500D01*
X297000Y214500D02*
X306000Y205500D01*
X350000D01*
X358000Y213500D01*
X379024D01*
X399500Y193024D01*
Y162000D02*
Y193024D01*
Y162000D02*
X404500Y157000D01*
X377158Y208295D02*
X395500Y189952D01*
Y158500D02*
Y189952D01*
X376000Y205500D02*
X393000Y188500D01*
Y156942D02*
Y188500D01*
X301000Y199000D02*
X352000D01*
X291439Y212561D02*
X302500Y201500D01*
X357342Y208295D02*
X377158D01*
X358500Y205500D02*
X376000D01*
X350548Y201500D02*
X357342Y208295D01*
X352000Y199000D02*
X358500Y205500D01*
X302500Y201500D02*
X350548D01*
X287000Y204849D02*
Y205500D01*
Y204849D02*
X296880Y194969D01*
X388104Y164104D02*
Y181396D01*
X377500Y153500D02*
X388104Y164104D01*
X377500Y131500D02*
Y153500D01*
X385000Y166500D02*
Y180000D01*
X373605Y155105D02*
X385000Y166500D01*
X373605Y122244D02*
Y155105D01*
X307500Y164500D02*
X319000Y176000D01*
X304000Y165790D02*
X318210Y180000D01*
X304000Y134929D02*
Y165790D01*
X310000Y162500D02*
X319500Y172000D01*
X313500Y161000D02*
X320500Y168000D01*
X319000Y176000D02*
X378000D01*
X319500Y172000D02*
X374500D01*
X320500Y168000D02*
X378000D01*
X318210Y180000D02*
X374500D01*
X229875Y74125D02*
X231571Y72429D01*
X229875Y74125D02*
Y78403D01*
D79*
X123959Y138459D02*
X225082Y239582D01*
X123959Y100459D02*
Y138459D01*
X123500Y100000D02*
X123959Y100459D01*
X271918Y239582D02*
X272500Y239000D01*
X225082Y239582D02*
X271918D01*
X132069Y184069D02*
Y196931D01*
X122500Y206500D02*
X132069Y196931D01*
X115500Y167500D02*
X132069Y184069D01*
X28045Y219308D02*
X32237Y223500D01*
X46212D01*
X27913Y219308D02*
X28045D01*
X93000Y206500D02*
X122500D01*
X76000Y223500D02*
X93000Y206500D01*
X46212Y223500D02*
X76000D01*
X46212D02*
X78212Y255500D01*
X197000D02*
X205000Y263500D01*
X125725Y255500D02*
X197000D01*
X205000Y263500D02*
X227500Y286000D01*
X241000D01*
X78212Y255500D02*
X125725D01*
Y282775D01*
X125500Y283000D02*
X125725Y282775D01*
X295500Y293000D02*
X347500D01*
D82*
X408700Y282000D02*
D03*
X383300D02*
D03*
X357900D02*
D03*
D84*
X268200Y60400D02*
D03*
X181800D02*
D03*
D85*
X268200Y6800D02*
D03*
X181800D02*
D03*
D86*
X422750Y224250D02*
D03*
X459909Y286285D02*
D03*
X469909Y266285D02*
D03*
Y146285D02*
D03*
Y106285D02*
D03*
Y66285D02*
D03*
X439909Y246285D02*
D03*
X449909Y146285D02*
D03*
X439909Y6285D02*
D03*
X419909Y286285D02*
D03*
X429909Y266285D02*
D03*
Y226285D02*
D03*
Y186285D02*
D03*
X419909Y6285D02*
D03*
X409909Y266285D02*
D03*
X399909Y46285D02*
D03*
Y6285D02*
D03*
X389909Y266285D02*
D03*
X289909Y106285D02*
D03*
X279909Y6285D02*
D03*
X259909Y286285D02*
D03*
X269909Y226285D02*
D03*
Y26285D02*
D03*
X249909D02*
D03*
X239909Y6285D02*
D03*
X219909D02*
D03*
X199909D02*
D03*
X139909D02*
D03*
X119909D02*
D03*
X99909D02*
D03*
X69909Y66285D02*
D03*
X39909Y46285D02*
D03*
X19909Y286285D02*
D03*
X29909Y66285D02*
D03*
X19909Y46285D02*
D03*
Y6285D02*
D03*
X-91Y246285D02*
D03*
Y206285D02*
D03*
X9909Y66285D02*
D03*
Y26285D02*
D03*
X-91Y6285D02*
D03*
X-10091Y226285D02*
D03*
Y186285D02*
D03*
Y146285D02*
D03*
Y106285D02*
D03*
Y66285D02*
D03*
X445500Y266750D02*
D03*
X437500Y257250D02*
D03*
X449750Y247750D02*
D03*
X453500Y193500D02*
D03*
X437750Y194250D02*
D03*
X438250Y175000D02*
D03*
X437500Y183250D02*
D03*
X445500Y174250D02*
D03*
X445000Y136500D02*
D03*
X453750Y127000D02*
D03*
X320750Y36250D02*
D03*
X329750Y29000D02*
D03*
X307500Y46500D02*
D03*
X301000Y26750D02*
D03*
X280500Y31250D02*
D03*
X289250Y47500D02*
D03*
X421500Y155555D02*
D03*
Y136000D02*
D03*
X445498Y106298D02*
D03*
X437000Y114500D02*
D03*
X439000Y63500D02*
D03*
X321000Y65000D02*
D03*
X170100Y5900D02*
D03*
X27913Y219308D02*
D03*
X384798Y47000D02*
D03*
X299415Y123315D02*
D03*
X299818Y130427D02*
D03*
X295787Y126871D02*
D03*
X301570Y116203D02*
D03*
X22001Y264571D02*
D03*
X23925Y254768D02*
D03*
X222461Y45120D02*
D03*
X228015Y58757D02*
D03*
X93673Y14327D02*
D03*
X64328Y43672D02*
D03*
Y14327D02*
D03*
X93673Y43672D02*
D03*
X335672Y256328D02*
D03*
X306327Y285672D02*
D03*
Y256328D02*
D03*
X335672Y285672D02*
D03*
X391523Y223133D02*
D03*
X176582Y201968D02*
D03*
X403329Y125569D02*
D03*
X95026Y223238D02*
D03*
X109810Y231478D02*
D03*
X104857Y218323D02*
D03*
X176702Y286750D02*
D03*
Y263500D02*
D03*
X176463Y274976D02*
D03*
X361588Y218640D02*
D03*
X291947Y218957D02*
D03*
X8130Y171320D02*
D03*
X21319Y203652D02*
D03*
X51951Y217952D02*
D03*
X52486Y205048D02*
D03*
X409633Y136718D02*
D03*
X407712Y208362D02*
D03*
X424602Y212289D02*
D03*
X403964Y203962D02*
D03*
X286893Y218146D02*
D03*
X292996Y192930D02*
D03*
X117673Y189841D02*
D03*
X113088Y196861D02*
D03*
X121216Y193632D02*
D03*
X166505Y202952D02*
D03*
X196986Y57974D02*
D03*
X214574Y70490D02*
D03*
X234899Y79153D02*
D03*
X253255Y57674D02*
D03*
X234320Y45457D02*
D03*
X161600Y5400D02*
D03*
X153100Y14602D02*
D03*
X121948Y11599D02*
D03*
X138042Y52474D02*
D03*
X52947Y69652D02*
D03*
X46735Y75897D02*
D03*
X7335Y104354D02*
D03*
X37500Y113806D02*
D03*
X37712Y103610D02*
D03*
X51948Y142326D02*
D03*
X7855Y212984D02*
D03*
X7358Y202831D02*
D03*
X8241Y197829D02*
D03*
X8183Y231915D02*
D03*
X101498Y289080D02*
D03*
X126231Y192367D02*
D03*
X248076Y140864D02*
D03*
X243000Y103000D02*
D03*
X288563Y223513D02*
D03*
X101500Y284000D02*
D03*
X89000Y290000D02*
D03*
X96000Y276500D02*
D03*
X40500Y291000D02*
D03*
X213000Y258500D02*
D03*
X227000Y253000D02*
D03*
X231782Y190421D02*
D03*
X270500Y174000D02*
D03*
X272000Y117000D02*
D03*
X300500Y66500D02*
D03*
X394039Y87959D02*
D03*
X363000Y132000D02*
D03*
X322271Y128945D02*
D03*
X318353Y106696D02*
D03*
X308831Y176752D02*
D03*
X104473Y173696D02*
D03*
X70500Y177500D02*
D03*
X119600Y199749D02*
D03*
X145335Y171734D02*
D03*
X148150Y190431D02*
D03*
X444000Y83000D02*
D03*
X406500Y174500D02*
D03*
X369500Y146000D02*
D03*
Y135000D02*
D03*
X354500Y63500D02*
D03*
X276000Y73000D02*
D03*
X235794Y92671D02*
D03*
X214485Y91697D02*
D03*
X123500Y100000D02*
D03*
X171000Y123000D02*
D03*
X193586Y76621D02*
D03*
X108500Y19000D02*
D03*
X366418Y217940D02*
D03*
X190000Y64500D02*
D03*
X52500Y275000D02*
D03*
X51501Y253999D02*
D03*
X52000Y237429D02*
D03*
X38500Y182500D02*
D03*
X249999Y94001D02*
D03*
X113324Y12824D02*
D03*
X66000Y70000D02*
D03*
X190000Y222000D02*
D03*
X252500Y187500D02*
D03*
X364147Y224624D02*
D03*
X285075Y228075D02*
D03*
X279803Y228571D02*
D03*
X258500Y254000D02*
D03*
X423500Y218000D02*
D03*
X373500Y193500D02*
D03*
X375500Y163500D02*
D03*
X408501Y51999D02*
D03*
X409001Y63999D02*
D03*
X408501Y75999D02*
D03*
X422000Y100000D02*
D03*
X425000Y115000D02*
D03*
X378501Y75999D02*
D03*
Y87999D02*
D03*
X58000Y105500D02*
D03*
X81500Y132500D02*
D03*
X87000Y201500D02*
D03*
X82000Y200500D02*
D03*
X52500Y165000D02*
D03*
X26850Y208928D02*
D03*
X23054Y212403D02*
D03*
X52000Y212000D02*
D03*
X173911Y76911D02*
D03*
X164500Y75000D02*
D03*
X247929Y133500D02*
D03*
X267000Y74500D02*
D03*
X295500Y293000D02*
D03*
X347500D02*
D03*
X241000Y286000D02*
D03*
X265500Y232500D02*
D03*
X66000Y167500D02*
D03*
X159500Y75000D02*
D03*
X131501Y52500D02*
D03*
X137999Y46598D02*
D03*
X131501D02*
D03*
X152500Y69000D02*
D03*
X421761Y207362D02*
D03*
X104277Y293648D02*
D03*
X125500Y283000D02*
D03*
X148500Y263571D02*
D03*
X205000Y263500D02*
D03*
X147500Y287500D02*
D03*
X130000Y288000D02*
D03*
X80000Y243000D02*
D03*
X93000Y228500D02*
D03*
X98482Y219515D02*
D03*
X121500Y186500D02*
D03*
X272500Y239000D02*
D03*
X273000Y232000D02*
D03*
X392000Y236500D02*
D03*
Y248000D02*
D03*
X421500Y247500D02*
D03*
Y236000D02*
D03*
X408500Y202000D02*
D03*
Y192000D02*
D03*
X398523Y128469D02*
D03*
X392000Y151000D02*
D03*
Y133000D02*
D03*
X396500Y123500D02*
D03*
X404500Y157000D02*
D03*
X406885Y132180D02*
D03*
X287000Y205500D02*
D03*
X373605Y122244D02*
D03*
X285500Y199500D02*
D03*
X309500Y188921D02*
D03*
X75500Y108000D02*
D03*
X85500D02*
D03*
X51000Y158000D02*
D03*
X39047Y176148D02*
D03*
X4500Y138000D02*
D03*
X4000Y157000D02*
D03*
X5000Y128000D02*
D03*
X6000Y114000D02*
D03*
X39000Y77000D02*
D03*
X54000D02*
D03*
X389883Y42454D02*
D03*
X370383Y41954D02*
D03*
X233000Y132500D02*
D03*
X211000Y157500D02*
D03*
X183500Y224500D02*
D03*
X167000Y217500D02*
D03*
X80000Y231000D02*
D03*
X199000Y132500D02*
D03*
X183000Y112000D02*
D03*
X189500Y118000D02*
D03*
X195500Y112000D02*
D03*
X202000Y118000D02*
D03*
X208500Y112000D02*
D03*
X210240Y75904D02*
D03*
X118000Y218000D02*
D03*
X128000Y231000D02*
D03*
X137000Y218500D02*
D03*
X147238Y229647D02*
D03*
X156000Y218500D02*
D03*
X294345Y133815D02*
D03*
X303107Y111361D02*
D03*
X348500Y228500D02*
D03*
X334500Y219000D02*
D03*
X326000Y231000D02*
D03*
X320566Y216801D02*
D03*
X307694Y217607D02*
D03*
X309000Y231500D02*
D03*
X431500Y66000D02*
D03*
Y73000D02*
D03*
X437000Y75500D02*
D03*
X437500Y88000D02*
D03*
X423500Y87500D02*
D03*
X438500Y97500D02*
D03*
X53500Y267500D02*
D03*
X67937Y267782D02*
D03*
X69500Y289500D02*
D03*
X80500Y278500D02*
D03*
X97464Y265753D02*
D03*
X85000Y277000D02*
D03*
X290000Y174500D02*
D03*
X292000Y157000D02*
D03*
X374000Y100000D02*
D03*
X375500Y115000D02*
D03*
X353500Y129000D02*
D03*
X349500Y115500D02*
D03*
X362641Y149949D02*
D03*
X321000Y160000D02*
D03*
X335000Y159500D02*
D03*
X347341Y150926D02*
D03*
X353000Y136000D02*
D03*
X338500D02*
D03*
X229875Y78403D02*
D03*
X222000Y124000D02*
D03*
X14500Y76500D02*
D03*
X374500Y172000D02*
D03*
X378000Y168000D02*
D03*
Y176000D02*
D03*
X374500Y180000D02*
D03*
X21000Y236000D02*
D03*
X25500Y240500D02*
D03*
X26500Y278500D02*
D03*
X239500Y77000D02*
D03*
X253000Y73500D02*
D03*
X175000Y51000D02*
D03*
D87*
X79000Y29000D02*
D03*
X321000Y271000D02*
D03*
M02*
