G04*
G04 #@! TF.GenerationSoftware,Altium Limited,Altium Designer,22.11.1 (43)*
G04*
G04 Layer_Color=32768*
%FSLAX44Y44*%
%MOMM*%
G71*
G04*
G04 #@! TF.SameCoordinates,EA2F1550-8411-4DB4-965C-DA60C2665ED4*
G04*
G04*
G04 #@! TF.FilePolarity,Positive*
G04*
G01*
G75*
%ADD14C,0.2500*%
%ADD119C,0.0500*%
G36*
X122664Y78991D02*
X122738Y78981D01*
X122822Y78972D01*
X122914Y78954D01*
X123016Y78935D01*
X123238Y78880D01*
X123469Y78787D01*
X123589Y78732D01*
X123700Y78667D01*
X123811Y78584D01*
X123922Y78501D01*
X123931Y78491D01*
X123950Y78473D01*
X123977Y78445D01*
X124005Y78408D01*
X124051Y78362D01*
X124097Y78297D01*
X124153Y78233D01*
X124208Y78149D01*
X124264Y78057D01*
X124319Y77964D01*
X124421Y77743D01*
X124504Y77484D01*
X124532Y77345D01*
X124551Y77197D01*
X123765Y77095D01*
Y77105D01*
X123755Y77123D01*
X123746Y77160D01*
X123737Y77206D01*
X123728Y77262D01*
X123709Y77326D01*
X123663Y77465D01*
X123598Y77632D01*
X123515Y77789D01*
X123423Y77937D01*
X123312Y78066D01*
X123293Y78075D01*
X123256Y78112D01*
X123182Y78159D01*
X123090Y78205D01*
X122979Y78260D01*
X122840Y78306D01*
X122683Y78344D01*
X122516Y78353D01*
X122461D01*
X122424Y78344D01*
X122322Y78334D01*
X122193Y78306D01*
X122045Y78260D01*
X121888Y78196D01*
X121731Y78103D01*
X121583Y77974D01*
X121564Y77955D01*
X121518Y77900D01*
X121462Y77817D01*
X121389Y77706D01*
X121315Y77567D01*
X121259Y77410D01*
X121213Y77225D01*
X121194Y77021D01*
Y77012D01*
Y76994D01*
Y76966D01*
X121204Y76929D01*
X121213Y76827D01*
X121241Y76707D01*
X121278Y76559D01*
X121342Y76411D01*
X121435Y76263D01*
X121555Y76125D01*
X121573Y76106D01*
X121620Y76069D01*
X121694Y76014D01*
X121795Y75949D01*
X121925Y75884D01*
X122082Y75829D01*
X122258Y75792D01*
X122452Y75773D01*
X122535D01*
X122600Y75782D01*
X122683Y75792D01*
X122775Y75810D01*
X122886Y75829D01*
X123006Y75856D01*
X122914Y75163D01*
X122868D01*
X122831Y75172D01*
X122711D01*
X122609Y75154D01*
X122489Y75135D01*
X122350Y75107D01*
X122193Y75061D01*
X122045Y74997D01*
X121888Y74913D01*
X121879D01*
X121869Y74904D01*
X121823Y74867D01*
X121758Y74802D01*
X121684Y74719D01*
X121610Y74599D01*
X121546Y74460D01*
X121500Y74303D01*
X121481Y74211D01*
Y74109D01*
Y74100D01*
Y74090D01*
Y74035D01*
X121500Y73961D01*
X121518Y73859D01*
X121555Y73748D01*
X121601Y73628D01*
X121675Y73508D01*
X121777Y73397D01*
X121786Y73388D01*
X121832Y73351D01*
X121897Y73305D01*
X121980Y73249D01*
X122091Y73203D01*
X122221Y73157D01*
X122369Y73120D01*
X122535Y73110D01*
X122609D01*
X122692Y73129D01*
X122803Y73148D01*
X122923Y73184D01*
X123043Y73231D01*
X123173Y73305D01*
X123293Y73397D01*
X123302Y73406D01*
X123339Y73453D01*
X123395Y73517D01*
X123460Y73610D01*
X123524Y73730D01*
X123589Y73878D01*
X123645Y74054D01*
X123681Y74257D01*
X124467Y74118D01*
Y74109D01*
X124458Y74081D01*
X124449Y74044D01*
X124440Y73989D01*
X124421Y73924D01*
X124393Y73850D01*
X124338Y73675D01*
X124245Y73471D01*
X124135Y73268D01*
X123996Y73074D01*
X123820Y72898D01*
X123811Y72889D01*
X123792Y72879D01*
X123765Y72861D01*
X123728Y72833D01*
X123681Y72796D01*
X123617Y72759D01*
X123552Y72722D01*
X123469Y72676D01*
X123284Y72602D01*
X123071Y72528D01*
X122822Y72482D01*
X122692Y72463D01*
X122461D01*
X122359Y72473D01*
X122239Y72491D01*
X122091Y72519D01*
X121925Y72565D01*
X121758Y72621D01*
X121592Y72694D01*
X121583D01*
X121573Y72704D01*
X121518Y72731D01*
X121435Y72787D01*
X121342Y72852D01*
X121231Y72944D01*
X121120Y73046D01*
X121010Y73166D01*
X120917Y73305D01*
X120908Y73323D01*
X120880Y73369D01*
X120843Y73453D01*
X120797Y73554D01*
X120751Y73675D01*
X120714Y73813D01*
X120686Y73970D01*
X120677Y74127D01*
Y74146D01*
Y74201D01*
X120686Y74275D01*
X120704Y74377D01*
X120732Y74497D01*
X120778Y74627D01*
X120834Y74756D01*
X120908Y74886D01*
X120917Y74904D01*
X120945Y74941D01*
X121000Y75006D01*
X121074Y75080D01*
X121167Y75163D01*
X121278Y75255D01*
X121407Y75339D01*
X121564Y75422D01*
X121555D01*
X121537Y75431D01*
X121509Y75440D01*
X121472Y75450D01*
X121370Y75487D01*
X121241Y75542D01*
X121093Y75616D01*
X120945Y75708D01*
X120806Y75829D01*
X120677Y75967D01*
X120667Y75986D01*
X120630Y76041D01*
X120575Y76134D01*
X120520Y76254D01*
X120464Y76402D01*
X120408Y76578D01*
X120372Y76781D01*
X120362Y77003D01*
Y77012D01*
Y77040D01*
Y77086D01*
X120372Y77142D01*
X120381Y77215D01*
X120399Y77299D01*
X120418Y77391D01*
X120436Y77493D01*
X120510Y77715D01*
X120566Y77835D01*
X120621Y77946D01*
X120695Y78066D01*
X120778Y78186D01*
X120871Y78306D01*
X120982Y78418D01*
X120991Y78427D01*
X121010Y78445D01*
X121046Y78473D01*
X121093Y78510D01*
X121148Y78556D01*
X121222Y78602D01*
X121305Y78658D01*
X121407Y78704D01*
X121509Y78760D01*
X121629Y78815D01*
X121749Y78861D01*
X121888Y78907D01*
X122036Y78945D01*
X122193Y78972D01*
X122350Y78991D01*
X122526Y79000D01*
X122609D01*
X122664Y78991D01*
D02*
G37*
G36*
X128387Y75579D02*
X130569Y72491D01*
X129562D01*
X128397Y74137D01*
Y74146D01*
X128378Y74155D01*
X128360Y74183D01*
X128332Y74220D01*
X128277Y74312D01*
X128193Y74423D01*
X128110Y74553D01*
X128027Y74682D01*
X127953Y74802D01*
X127888Y74913D01*
X127879Y74895D01*
X127851Y74858D01*
X127805Y74784D01*
X127740Y74692D01*
X127666Y74590D01*
X127574Y74460D01*
X127481Y74331D01*
X127371Y74192D01*
X126095Y72491D01*
X125170D01*
X127389Y75533D01*
X124994Y78889D01*
X126039D01*
X127657Y76615D01*
X127666Y76605D01*
X127685Y76578D01*
X127703Y76541D01*
X127740Y76494D01*
X127823Y76365D01*
X127916Y76226D01*
X127925Y76235D01*
X127953Y76273D01*
X127990Y76328D01*
X128036Y76402D01*
X128138Y76550D01*
X128184Y76615D01*
X128221Y76670D01*
X129839Y78889D01*
X130856D01*
X128387Y75579D01*
D02*
G37*
G36*
X137679Y72491D02*
X136413D01*
X134896Y77031D01*
Y77040D01*
X134887Y77058D01*
X134878Y77086D01*
X134859Y77132D01*
X134822Y77243D01*
X134776Y77382D01*
X134730Y77539D01*
X134675Y77696D01*
X134628Y77844D01*
X134591Y77974D01*
X134582Y77955D01*
X134573Y77909D01*
X134545Y77826D01*
X134508Y77715D01*
X134462Y77567D01*
X134397Y77391D01*
X134332Y77188D01*
X134249Y76947D01*
X132714Y72491D01*
X131577D01*
Y78889D01*
X132391D01*
Y73536D01*
X134258Y78889D01*
X135017D01*
X136866Y73443D01*
Y78889D01*
X137679D01*
Y72491D01*
D02*
G37*
G36*
X118633Y78880D02*
Y78852D01*
Y78815D01*
X118624Y78760D01*
Y78686D01*
X118615Y78593D01*
X118606Y78491D01*
X118596Y78380D01*
X118578Y78251D01*
X118559Y78122D01*
X118532Y77964D01*
X118504Y77807D01*
X118476Y77641D01*
X118439Y77456D01*
X118347Y77077D01*
Y77068D01*
X118337Y77031D01*
X118319Y76975D01*
X118291Y76892D01*
X118264Y76800D01*
X118227Y76688D01*
X118190Y76559D01*
X118134Y76420D01*
X118079Y76263D01*
X118023Y76106D01*
X117885Y75755D01*
X117718Y75385D01*
X117533Y75015D01*
X117524Y75006D01*
X117505Y74969D01*
X117478Y74923D01*
X117441Y74849D01*
X117395Y74766D01*
X117330Y74664D01*
X117265Y74553D01*
X117191Y74433D01*
X117015Y74165D01*
X116831Y73887D01*
X116618Y73601D01*
X116396Y73332D01*
X119530D01*
Y72574D01*
X115388D01*
Y73194D01*
X115397Y73203D01*
X115416Y73221D01*
X115453Y73258D01*
X115490Y73314D01*
X115545Y73379D01*
X115619Y73453D01*
X115693Y73545D01*
X115777Y73656D01*
X115860Y73767D01*
X115961Y73896D01*
X116063Y74044D01*
X116165Y74192D01*
X116276Y74359D01*
X116387Y74534D01*
X116498Y74728D01*
X116609Y74923D01*
X116618Y74932D01*
X116636Y74969D01*
X116664Y75024D01*
X116710Y75107D01*
X116756Y75209D01*
X116812Y75320D01*
X116877Y75450D01*
X116941Y75598D01*
X117015Y75764D01*
X117099Y75930D01*
X117173Y76115D01*
X117247Y76309D01*
X117395Y76707D01*
X117533Y77132D01*
Y77142D01*
X117542Y77169D01*
X117552Y77215D01*
X117570Y77271D01*
X117589Y77345D01*
X117607Y77437D01*
X117635Y77539D01*
X117653Y77650D01*
X117681Y77779D01*
X117709Y77918D01*
X117755Y78214D01*
X117801Y78538D01*
X117829Y78889D01*
X118633D01*
Y78880D01*
D02*
G37*
G36*
X140000Y72491D02*
X139149D01*
Y78889D01*
X140000D01*
Y72491D01*
D02*
G37*
G36*
X112670Y78991D02*
X112753Y78981D01*
X112846Y78972D01*
X112947Y78954D01*
X113058Y78926D01*
X113308Y78861D01*
X113437Y78815D01*
X113558Y78769D01*
X113687Y78704D01*
X113816Y78630D01*
X113937Y78547D01*
X114047Y78445D01*
X114057Y78436D01*
X114075Y78418D01*
X114103Y78390D01*
X114140Y78344D01*
X114177Y78288D01*
X114233Y78223D01*
X114279Y78149D01*
X114334Y78057D01*
X114390Y77964D01*
X114436Y77853D01*
X114528Y77622D01*
X114565Y77484D01*
X114593Y77345D01*
X114612Y77197D01*
X114621Y77049D01*
Y77040D01*
Y77021D01*
Y76984D01*
X114612Y76947D01*
Y76892D01*
X114602Y76827D01*
X114584Y76679D01*
X114547Y76513D01*
X114491Y76347D01*
X114408Y76171D01*
X114306Y76004D01*
Y75995D01*
X114288Y75986D01*
X114251Y75940D01*
X114177Y75866D01*
X114075Y75773D01*
X113946Y75681D01*
X113789Y75579D01*
X113613Y75496D01*
X113400Y75431D01*
X113410D01*
X113419Y75422D01*
X113447Y75413D01*
X113484Y75394D01*
X113567Y75357D01*
X113678Y75302D01*
X113798Y75228D01*
X113918Y75135D01*
X114029Y75034D01*
X114131Y74923D01*
X114140Y74904D01*
X114168Y74867D01*
X114205Y74793D01*
X114242Y74701D01*
X114288Y74580D01*
X114325Y74442D01*
X114353Y74285D01*
X114362Y74118D01*
Y74109D01*
Y74090D01*
Y74054D01*
X114353Y73998D01*
X114343Y73943D01*
X114334Y73869D01*
X114297Y73712D01*
X114242Y73527D01*
X114149Y73332D01*
X114094Y73231D01*
X114029Y73129D01*
X113946Y73036D01*
X113863Y72944D01*
X113853Y72935D01*
X113835Y72926D01*
X113807Y72898D01*
X113770Y72870D01*
X113724Y72833D01*
X113659Y72796D01*
X113585Y72750D01*
X113511Y72704D01*
X113419Y72657D01*
X113317Y72611D01*
X113206Y72574D01*
X113086Y72537D01*
X112827Y72482D01*
X112679Y72473D01*
X112531Y72463D01*
X112448D01*
X112393Y72473D01*
X112319Y72482D01*
X112235Y72491D01*
X112143Y72500D01*
X112051Y72528D01*
X111829Y72583D01*
X111607Y72667D01*
X111496Y72722D01*
X111385Y72787D01*
X111283Y72870D01*
X111181Y72953D01*
X111172Y72963D01*
X111163Y72972D01*
X111135Y73000D01*
X111098Y73036D01*
X111061Y73092D01*
X111015Y73148D01*
X110922Y73286D01*
X110830Y73462D01*
X110747Y73665D01*
X110682Y73896D01*
X110673Y74017D01*
X110664Y74146D01*
Y74155D01*
Y74165D01*
Y74220D01*
X110673Y74303D01*
X110691Y74405D01*
X110719Y74534D01*
X110765Y74664D01*
X110821Y74793D01*
X110904Y74923D01*
X110913Y74941D01*
X110950Y74978D01*
X111006Y75034D01*
X111080Y75107D01*
X111181Y75191D01*
X111302Y75274D01*
X111440Y75357D01*
X111607Y75431D01*
X111597D01*
X111579Y75440D01*
X111551Y75450D01*
X111514Y75468D01*
X111403Y75514D01*
X111274Y75579D01*
X111135Y75672D01*
X110987Y75773D01*
X110849Y75903D01*
X110719Y76051D01*
Y76060D01*
X110710Y76069D01*
X110673Y76125D01*
X110617Y76217D01*
X110562Y76337D01*
X110506Y76485D01*
X110451Y76661D01*
X110414Y76855D01*
X110405Y77068D01*
Y77077D01*
Y77105D01*
Y77151D01*
X110414Y77206D01*
X110423Y77271D01*
X110433Y77354D01*
X110451Y77447D01*
X110479Y77548D01*
X110543Y77761D01*
X110590Y77881D01*
X110654Y77992D01*
X110719Y78112D01*
X110793Y78223D01*
X110886Y78334D01*
X110987Y78445D01*
X110997Y78454D01*
X111015Y78473D01*
X111043Y78501D01*
X111089Y78528D01*
X111154Y78575D01*
X111218Y78621D01*
X111302Y78667D01*
X111394Y78723D01*
X111496Y78778D01*
X111616Y78824D01*
X111745Y78871D01*
X111875Y78917D01*
X112023Y78945D01*
X112180Y78972D01*
X112337Y78991D01*
X112513Y79000D01*
X112605D01*
X112670Y78991D01*
D02*
G37*
G36*
X144106Y89876D02*
X144170D01*
X144244Y89867D01*
X144420Y89830D01*
X144614Y89784D01*
X144818Y89710D01*
X145021Y89608D01*
X145123Y89544D01*
X145215Y89470D01*
X145224Y89460D01*
X145234Y89451D01*
X145261Y89423D01*
X145289Y89396D01*
X145326Y89349D01*
X145372Y89294D01*
X145465Y89164D01*
X145557Y88998D01*
X145650Y88795D01*
X145724Y88563D01*
X145779Y88295D01*
X145021Y88231D01*
Y88240D01*
X145012Y88258D01*
Y88277D01*
X145002Y88314D01*
X144975Y88416D01*
X144938Y88526D01*
X144892Y88656D01*
X144827Y88785D01*
X144753Y88906D01*
X144660Y89007D01*
X144651Y89017D01*
X144614Y89044D01*
X144550Y89081D01*
X144475Y89118D01*
X144374Y89164D01*
X144254Y89201D01*
X144115Y89229D01*
X143967Y89238D01*
X143902D01*
X143838Y89229D01*
X143754Y89220D01*
X143653Y89201D01*
X143551Y89174D01*
X143440Y89137D01*
X143338Y89081D01*
X143329Y89072D01*
X143292Y89053D01*
X143237Y89017D01*
X143181Y88961D01*
X143107Y88896D01*
X143033Y88822D01*
X142959Y88739D01*
X142885Y88638D01*
X142876Y88628D01*
X142858Y88582D01*
X142821Y88517D01*
X142784Y88434D01*
X142737Y88323D01*
X142691Y88194D01*
X142645Y88046D01*
X142599Y87879D01*
Y87870D01*
X142589Y87861D01*
Y87833D01*
X142580Y87796D01*
X142562Y87704D01*
X142534Y87584D01*
X142515Y87436D01*
X142497Y87278D01*
X142488Y87103D01*
X142479Y86918D01*
Y86909D01*
Y86881D01*
Y86835D01*
Y86761D01*
X142488Y86779D01*
X142525Y86825D01*
X142580Y86890D01*
X142645Y86982D01*
X142737Y87075D01*
X142848Y87177D01*
X142978Y87278D01*
X143126Y87371D01*
X143144Y87380D01*
X143200Y87408D01*
X143283Y87445D01*
X143385Y87482D01*
X143523Y87528D01*
X143671Y87565D01*
X143838Y87593D01*
X144013Y87602D01*
X144087D01*
X144143Y87593D01*
X144217Y87584D01*
X144291Y87574D01*
X144383Y87556D01*
X144475Y87528D01*
X144688Y87463D01*
X144799Y87417D01*
X144910Y87362D01*
X145030Y87297D01*
X145141Y87214D01*
X145252Y87130D01*
X145354Y87029D01*
X145363Y87020D01*
X145382Y87001D01*
X145400Y86973D01*
X145437Y86927D01*
X145483Y86862D01*
X145529Y86798D01*
X145576Y86714D01*
X145622Y86622D01*
X145677Y86520D01*
X145724Y86409D01*
X145770Y86280D01*
X145816Y86150D01*
X145853Y86003D01*
X145872Y85845D01*
X145890Y85688D01*
X145899Y85513D01*
Y85503D01*
Y85466D01*
Y85420D01*
X145890Y85355D01*
X145881Y85272D01*
X145872Y85170D01*
X145853Y85069D01*
X145825Y84949D01*
X145761Y84708D01*
X145714Y84579D01*
X145659Y84440D01*
X145594Y84311D01*
X145511Y84190D01*
X145428Y84061D01*
X145326Y83950D01*
X145317Y83941D01*
X145298Y83922D01*
X145271Y83895D01*
X145224Y83857D01*
X145169Y83811D01*
X145095Y83756D01*
X145021Y83710D01*
X144929Y83645D01*
X144836Y83589D01*
X144725Y83543D01*
X144475Y83441D01*
X144346Y83405D01*
X144198Y83377D01*
X144050Y83358D01*
X143893Y83349D01*
X143828D01*
X143782Y83358D01*
X143736D01*
X143671Y83368D01*
X143514Y83395D01*
X143338Y83432D01*
X143144Y83497D01*
X142950Y83580D01*
X142756Y83691D01*
X142747D01*
X142737Y83710D01*
X142710Y83728D01*
X142673Y83756D01*
X142580Y83830D01*
X142460Y83932D01*
X142340Y84070D01*
X142201Y84237D01*
X142081Y84431D01*
X141970Y84653D01*
Y84662D01*
X141961Y84680D01*
X141942Y84717D01*
X141924Y84764D01*
X141905Y84828D01*
X141877Y84911D01*
X141859Y85004D01*
X141831Y85106D01*
X141804Y85226D01*
X141776Y85365D01*
X141757Y85513D01*
X141739Y85670D01*
X141720Y85845D01*
X141702Y86030D01*
X141693Y86234D01*
Y86446D01*
Y86455D01*
Y86502D01*
Y86566D01*
Y86650D01*
X141702Y86751D01*
Y86872D01*
X141711Y87010D01*
X141730Y87149D01*
X141757Y87463D01*
X141804Y87796D01*
X141868Y88111D01*
X141915Y88268D01*
X141961Y88406D01*
Y88416D01*
X141970Y88434D01*
X141988Y88471D01*
X142007Y88526D01*
X142035Y88582D01*
X142072Y88656D01*
X142164Y88813D01*
X142275Y88989D01*
X142404Y89174D01*
X142571Y89349D01*
X142756Y89507D01*
X142765D01*
X142784Y89525D01*
X142811Y89544D01*
X142848Y89562D01*
X142904Y89590D01*
X142959Y89627D01*
X143033Y89664D01*
X143107Y89691D01*
X143283Y89765D01*
X143496Y89830D01*
X143727Y89867D01*
X143986Y89886D01*
X144059D01*
X144106Y89876D01*
D02*
G37*
G36*
X111441Y86465D02*
X113623Y83377D01*
X112615D01*
X111450Y85022D01*
Y85032D01*
X111432Y85041D01*
X111413Y85069D01*
X111385Y85106D01*
X111330Y85198D01*
X111247Y85309D01*
X111164Y85438D01*
X111080Y85568D01*
X111006Y85688D01*
X110942Y85799D01*
X110933Y85781D01*
X110905Y85744D01*
X110858Y85670D01*
X110794Y85577D01*
X110720Y85476D01*
X110627Y85346D01*
X110535Y85217D01*
X110424Y85078D01*
X109148Y83377D01*
X108223D01*
X110442Y86419D01*
X108048Y89775D01*
X109093D01*
X110711Y87500D01*
X110720Y87491D01*
X110738Y87463D01*
X110757Y87426D01*
X110794Y87380D01*
X110877Y87251D01*
X110969Y87112D01*
X110979Y87121D01*
X111006Y87158D01*
X111043Y87214D01*
X111090Y87288D01*
X111191Y87436D01*
X111238Y87500D01*
X111275Y87556D01*
X112893Y89775D01*
X113910D01*
X111441Y86465D01*
D02*
G37*
G36*
X120733Y83377D02*
X119466D01*
X117950Y87916D01*
Y87926D01*
X117941Y87944D01*
X117931Y87972D01*
X117913Y88018D01*
X117876Y88129D01*
X117830Y88268D01*
X117783Y88425D01*
X117728Y88582D01*
X117682Y88730D01*
X117645Y88859D01*
X117635Y88841D01*
X117626Y88795D01*
X117598Y88711D01*
X117562Y88601D01*
X117515Y88453D01*
X117451Y88277D01*
X117386Y88074D01*
X117303Y87833D01*
X115768Y83377D01*
X114631D01*
Y89775D01*
X115444D01*
Y84422D01*
X117312Y89775D01*
X118070D01*
X119919Y84329D01*
Y89775D01*
X120733D01*
Y83377D01*
D02*
G37*
G36*
X152205D02*
X151280D01*
X149616Y88027D01*
Y88036D01*
X149607Y88055D01*
X149598Y88083D01*
X149579Y88120D01*
X149570Y88175D01*
X149551Y88231D01*
X149505Y88369D01*
X149450Y88526D01*
X149394Y88702D01*
X149283Y89072D01*
Y89063D01*
X149274Y89044D01*
X149265Y89017D01*
X149256Y88980D01*
X149228Y88878D01*
X149181Y88739D01*
X149135Y88582D01*
X149080Y88406D01*
X149015Y88221D01*
X148941Y88027D01*
X147203Y83377D01*
X146343D01*
X148839Y89775D01*
X149727D01*
X152205Y83377D01*
D02*
G37*
G36*
X123053D02*
X122203D01*
Y89775D01*
X123053D01*
Y83377D01*
D02*
G37*
G36*
X95150Y88240D02*
X97933D01*
Y87519D01*
X95002Y83377D01*
X94364D01*
Y87519D01*
X93495D01*
Y88240D01*
X94364D01*
Y89775D01*
X95150D01*
Y88240D01*
D02*
G37*
G36*
X141036Y89765D02*
Y89728D01*
Y89673D01*
X141027Y89599D01*
X141018Y89516D01*
X140999Y89423D01*
X140981Y89331D01*
X140944Y89229D01*
Y89220D01*
X140934Y89211D01*
X140916Y89155D01*
X140879Y89072D01*
X140823Y88961D01*
X140750Y88832D01*
X140657Y88684D01*
X140555Y88536D01*
X140426Y88379D01*
Y88369D01*
X140407Y88360D01*
X140361Y88305D01*
X140278Y88221D01*
X140158Y88101D01*
X140019Y87963D01*
X139844Y87796D01*
X139631Y87611D01*
X139400Y87417D01*
X139390Y87408D01*
X139353Y87380D01*
X139298Y87334D01*
X139233Y87278D01*
X139150Y87204D01*
X139048Y87121D01*
X138947Y87029D01*
X138826Y86927D01*
X138595Y86705D01*
X138364Y86483D01*
X138253Y86372D01*
X138152Y86261D01*
X138059Y86160D01*
X137985Y86058D01*
Y86049D01*
X137967Y86039D01*
X137948Y86012D01*
X137930Y85975D01*
X137865Y85873D01*
X137791Y85753D01*
X137726Y85605D01*
X137662Y85448D01*
X137625Y85272D01*
X137606Y85106D01*
Y85096D01*
Y85087D01*
X137615Y85032D01*
X137625Y84939D01*
X137652Y84838D01*
X137689Y84708D01*
X137754Y84579D01*
X137837Y84449D01*
X137948Y84320D01*
X137967Y84301D01*
X138013Y84264D01*
X138077Y84218D01*
X138179Y84153D01*
X138309Y84098D01*
X138457Y84042D01*
X138632Y84005D01*
X138826Y83996D01*
X138882D01*
X138919Y84005D01*
X139030Y84015D01*
X139159Y84042D01*
X139298Y84079D01*
X139455Y84144D01*
X139603Y84227D01*
X139742Y84338D01*
X139760Y84357D01*
X139797Y84403D01*
X139853Y84477D01*
X139908Y84588D01*
X139973Y84717D01*
X140028Y84884D01*
X140065Y85069D01*
X140084Y85281D01*
X140888Y85198D01*
Y85189D01*
X140879Y85161D01*
Y85115D01*
X140870Y85050D01*
X140851Y84976D01*
X140833Y84893D01*
X140805Y84791D01*
X140777Y84690D01*
X140703Y84468D01*
X140592Y84246D01*
X140528Y84135D01*
X140444Y84024D01*
X140361Y83922D01*
X140269Y83830D01*
X140260Y83820D01*
X140241Y83811D01*
X140213Y83784D01*
X140167Y83756D01*
X140112Y83719D01*
X140047Y83682D01*
X139973Y83636D01*
X139880Y83589D01*
X139779Y83543D01*
X139668Y83497D01*
X139548Y83460D01*
X139418Y83423D01*
X139279Y83395D01*
X139131Y83368D01*
X138974Y83358D01*
X138808Y83349D01*
X138715D01*
X138651Y83358D01*
X138577Y83368D01*
X138484Y83377D01*
X138383Y83395D01*
X138281Y83414D01*
X138041Y83478D01*
X137800Y83571D01*
X137680Y83626D01*
X137560Y83691D01*
X137449Y83774D01*
X137347Y83867D01*
X137338Y83876D01*
X137319Y83885D01*
X137301Y83922D01*
X137264Y83959D01*
X137218Y84005D01*
X137171Y84070D01*
X137125Y84135D01*
X137070Y84218D01*
X136977Y84394D01*
X136885Y84616D01*
X136848Y84727D01*
X136829Y84856D01*
X136811Y84986D01*
X136802Y85124D01*
Y85143D01*
Y85189D01*
X136811Y85263D01*
X136820Y85365D01*
X136839Y85476D01*
X136876Y85605D01*
X136913Y85744D01*
X136968Y85882D01*
X136977Y85901D01*
X136996Y85947D01*
X137033Y86021D01*
X137088Y86123D01*
X137162Y86234D01*
X137255Y86372D01*
X137366Y86511D01*
X137495Y86668D01*
X137514Y86687D01*
X137560Y86742D01*
X137606Y86788D01*
X137652Y86835D01*
X137708Y86890D01*
X137782Y86964D01*
X137856Y87038D01*
X137948Y87121D01*
X138041Y87214D01*
X138152Y87315D01*
X138272Y87417D01*
X138401Y87537D01*
X138549Y87657D01*
X138697Y87787D01*
X138706Y87796D01*
X138725Y87815D01*
X138762Y87842D01*
X138808Y87879D01*
X138863Y87935D01*
X138928Y87990D01*
X139076Y88111D01*
X139233Y88249D01*
X139381Y88388D01*
X139511Y88508D01*
X139566Y88554D01*
X139612Y88601D01*
X139622Y88610D01*
X139649Y88638D01*
X139686Y88674D01*
X139733Y88730D01*
X139779Y88795D01*
X139834Y88859D01*
X139945Y89017D01*
X136792D01*
Y89775D01*
X141036D01*
Y89765D01*
D02*
G37*
G36*
X134010Y89876D02*
X134093Y89867D01*
X134185Y89858D01*
X134287Y89839D01*
X134398Y89812D01*
X134647Y89747D01*
X134777Y89701D01*
X134897Y89655D01*
X135027Y89590D01*
X135156Y89516D01*
X135276Y89433D01*
X135387Y89331D01*
X135396Y89322D01*
X135415Y89303D01*
X135443Y89275D01*
X135479Y89229D01*
X135517Y89174D01*
X135572Y89109D01*
X135618Y89035D01*
X135674Y88943D01*
X135729Y88850D01*
X135775Y88739D01*
X135868Y88508D01*
X135905Y88369D01*
X135933Y88231D01*
X135951Y88083D01*
X135960Y87935D01*
Y87926D01*
Y87907D01*
Y87870D01*
X135951Y87833D01*
Y87778D01*
X135942Y87713D01*
X135923Y87565D01*
X135886Y87399D01*
X135831Y87232D01*
X135748Y87057D01*
X135646Y86890D01*
Y86881D01*
X135627Y86872D01*
X135590Y86825D01*
X135517Y86751D01*
X135415Y86659D01*
X135285Y86566D01*
X135128Y86465D01*
X134952Y86382D01*
X134740Y86317D01*
X134749D01*
X134758Y86308D01*
X134786Y86298D01*
X134823Y86280D01*
X134906Y86243D01*
X135017Y86187D01*
X135137Y86113D01*
X135258Y86021D01*
X135369Y85919D01*
X135470Y85808D01*
X135479Y85790D01*
X135507Y85753D01*
X135544Y85679D01*
X135581Y85586D01*
X135627Y85466D01*
X135664Y85328D01*
X135692Y85170D01*
X135701Y85004D01*
Y84995D01*
Y84976D01*
Y84939D01*
X135692Y84884D01*
X135683Y84828D01*
X135674Y84754D01*
X135637Y84597D01*
X135581Y84412D01*
X135489Y84218D01*
X135433Y84116D01*
X135369Y84015D01*
X135285Y83922D01*
X135202Y83830D01*
X135193Y83820D01*
X135174Y83811D01*
X135147Y83784D01*
X135110Y83756D01*
X135063Y83719D01*
X134999Y83682D01*
X134925Y83636D01*
X134851Y83589D01*
X134758Y83543D01*
X134657Y83497D01*
X134546Y83460D01*
X134425Y83423D01*
X134167Y83368D01*
X134019Y83358D01*
X133871Y83349D01*
X133788D01*
X133732Y83358D01*
X133658Y83368D01*
X133575Y83377D01*
X133483Y83386D01*
X133390Y83414D01*
X133168Y83469D01*
X132946Y83552D01*
X132835Y83608D01*
X132724Y83673D01*
X132623Y83756D01*
X132521Y83839D01*
X132512Y83848D01*
X132502Y83857D01*
X132475Y83885D01*
X132438Y83922D01*
X132401Y83978D01*
X132354Y84033D01*
X132262Y84172D01*
X132170Y84347D01*
X132086Y84551D01*
X132022Y84782D01*
X132012Y84902D01*
X132003Y85032D01*
Y85041D01*
Y85050D01*
Y85106D01*
X132012Y85189D01*
X132031Y85291D01*
X132059Y85420D01*
X132105Y85549D01*
X132160Y85679D01*
X132244Y85808D01*
X132253Y85827D01*
X132290Y85864D01*
X132345Y85919D01*
X132419Y85993D01*
X132521Y86076D01*
X132641Y86160D01*
X132780Y86243D01*
X132946Y86317D01*
X132937D01*
X132919Y86326D01*
X132891Y86335D01*
X132854Y86354D01*
X132743Y86400D01*
X132613Y86465D01*
X132475Y86557D01*
X132327Y86659D01*
X132188Y86788D01*
X132059Y86936D01*
Y86945D01*
X132049Y86955D01*
X132012Y87010D01*
X131957Y87103D01*
X131902Y87223D01*
X131846Y87371D01*
X131791Y87547D01*
X131754Y87741D01*
X131744Y87953D01*
Y87963D01*
Y87990D01*
Y88036D01*
X131754Y88092D01*
X131763Y88157D01*
X131772Y88240D01*
X131791Y88332D01*
X131818Y88434D01*
X131883Y88647D01*
X131929Y88767D01*
X131994Y88878D01*
X132059Y88998D01*
X132133Y89109D01*
X132225Y89220D01*
X132327Y89331D01*
X132336Y89340D01*
X132354Y89359D01*
X132382Y89386D01*
X132429Y89414D01*
X132493Y89460D01*
X132558Y89507D01*
X132641Y89553D01*
X132734Y89608D01*
X132835Y89664D01*
X132956Y89710D01*
X133085Y89756D01*
X133214Y89802D01*
X133362Y89830D01*
X133519Y89858D01*
X133677Y89876D01*
X133852Y89886D01*
X133945D01*
X134010Y89876D01*
D02*
G37*
G36*
X131088Y89765D02*
Y89728D01*
Y89673D01*
X131079Y89599D01*
X131069Y89516D01*
X131051Y89423D01*
X131032Y89331D01*
X130995Y89229D01*
Y89220D01*
X130986Y89211D01*
X130968Y89155D01*
X130931Y89072D01*
X130875Y88961D01*
X130801Y88832D01*
X130709Y88684D01*
X130607Y88536D01*
X130478Y88379D01*
Y88369D01*
X130459Y88360D01*
X130413Y88305D01*
X130330Y88221D01*
X130210Y88101D01*
X130071Y87963D01*
X129895Y87796D01*
X129683Y87611D01*
X129451Y87417D01*
X129442Y87408D01*
X129405Y87380D01*
X129350Y87334D01*
X129285Y87278D01*
X129202Y87204D01*
X129100Y87121D01*
X128998Y87029D01*
X128878Y86927D01*
X128647Y86705D01*
X128416Y86483D01*
X128305Y86372D01*
X128203Y86261D01*
X128111Y86160D01*
X128037Y86058D01*
Y86049D01*
X128018Y86039D01*
X128000Y86012D01*
X127981Y85975D01*
X127917Y85873D01*
X127843Y85753D01*
X127778Y85605D01*
X127713Y85448D01*
X127676Y85272D01*
X127658Y85106D01*
Y85096D01*
Y85087D01*
X127667Y85032D01*
X127676Y84939D01*
X127704Y84838D01*
X127741Y84708D01*
X127806Y84579D01*
X127889Y84449D01*
X128000Y84320D01*
X128018Y84301D01*
X128065Y84264D01*
X128129Y84218D01*
X128231Y84153D01*
X128360Y84098D01*
X128508Y84042D01*
X128684Y84005D01*
X128878Y83996D01*
X128934D01*
X128971Y84005D01*
X129082Y84015D01*
X129211Y84042D01*
X129350Y84079D01*
X129507Y84144D01*
X129655Y84227D01*
X129794Y84338D01*
X129812Y84357D01*
X129849Y84403D01*
X129904Y84477D01*
X129960Y84588D01*
X130025Y84717D01*
X130080Y84884D01*
X130117Y85069D01*
X130136Y85281D01*
X130940Y85198D01*
Y85189D01*
X130931Y85161D01*
Y85115D01*
X130921Y85050D01*
X130903Y84976D01*
X130885Y84893D01*
X130857Y84791D01*
X130829Y84690D01*
X130755Y84468D01*
X130644Y84246D01*
X130579Y84135D01*
X130496Y84024D01*
X130413Y83922D01*
X130321Y83830D01*
X130311Y83820D01*
X130293Y83811D01*
X130265Y83784D01*
X130219Y83756D01*
X130163Y83719D01*
X130099Y83682D01*
X130025Y83636D01*
X129932Y83589D01*
X129831Y83543D01*
X129719Y83497D01*
X129599Y83460D01*
X129470Y83423D01*
X129331Y83395D01*
X129183Y83368D01*
X129026Y83358D01*
X128860Y83349D01*
X128767D01*
X128702Y83358D01*
X128629Y83368D01*
X128536Y83377D01*
X128434Y83395D01*
X128333Y83414D01*
X128092Y83478D01*
X127852Y83571D01*
X127732Y83626D01*
X127612Y83691D01*
X127501Y83774D01*
X127399Y83867D01*
X127390Y83876D01*
X127371Y83885D01*
X127353Y83922D01*
X127316Y83959D01*
X127269Y84005D01*
X127223Y84070D01*
X127177Y84135D01*
X127121Y84218D01*
X127029Y84394D01*
X126937Y84616D01*
X126900Y84727D01*
X126881Y84856D01*
X126863Y84986D01*
X126853Y85124D01*
Y85143D01*
Y85189D01*
X126863Y85263D01*
X126872Y85365D01*
X126890Y85476D01*
X126927Y85605D01*
X126964Y85744D01*
X127020Y85882D01*
X127029Y85901D01*
X127048Y85947D01*
X127085Y86021D01*
X127140Y86123D01*
X127214Y86234D01*
X127306Y86372D01*
X127417Y86511D01*
X127547Y86668D01*
X127565Y86687D01*
X127612Y86742D01*
X127658Y86788D01*
X127704Y86835D01*
X127760Y86890D01*
X127833Y86964D01*
X127907Y87038D01*
X128000Y87121D01*
X128092Y87214D01*
X128203Y87315D01*
X128323Y87417D01*
X128453Y87537D01*
X128601Y87657D01*
X128749Y87787D01*
X128758Y87796D01*
X128777Y87815D01*
X128813Y87842D01*
X128860Y87879D01*
X128915Y87935D01*
X128980Y87990D01*
X129128Y88111D01*
X129285Y88249D01*
X129433Y88388D01*
X129562Y88508D01*
X129618Y88554D01*
X129664Y88601D01*
X129673Y88610D01*
X129701Y88638D01*
X129738Y88674D01*
X129784Y88730D01*
X129831Y88795D01*
X129886Y88859D01*
X129997Y89017D01*
X126844D01*
Y89775D01*
X131088D01*
Y89765D01*
D02*
G37*
G36*
X107724D02*
Y89728D01*
Y89673D01*
X107715Y89599D01*
X107706Y89516D01*
X107687Y89423D01*
X107669Y89331D01*
X107632Y89229D01*
Y89220D01*
X107622Y89211D01*
X107604Y89155D01*
X107567Y89072D01*
X107512Y88961D01*
X107438Y88832D01*
X107345Y88684D01*
X107243Y88536D01*
X107114Y88379D01*
Y88369D01*
X107095Y88360D01*
X107049Y88305D01*
X106966Y88221D01*
X106846Y88101D01*
X106707Y87963D01*
X106532Y87796D01*
X106319Y87611D01*
X106088Y87417D01*
X106079Y87408D01*
X106041Y87380D01*
X105986Y87334D01*
X105921Y87278D01*
X105838Y87204D01*
X105736Y87121D01*
X105635Y87029D01*
X105514Y86927D01*
X105283Y86705D01*
X105052Y86483D01*
X104941Y86372D01*
X104840Y86261D01*
X104747Y86160D01*
X104673Y86058D01*
Y86049D01*
X104655Y86039D01*
X104636Y86012D01*
X104618Y85975D01*
X104553Y85873D01*
X104479Y85753D01*
X104414Y85605D01*
X104350Y85448D01*
X104313Y85272D01*
X104294Y85106D01*
Y85096D01*
Y85087D01*
X104303Y85032D01*
X104313Y84939D01*
X104340Y84838D01*
X104377Y84708D01*
X104442Y84579D01*
X104525Y84449D01*
X104636Y84320D01*
X104655Y84301D01*
X104701Y84264D01*
X104766Y84218D01*
X104867Y84153D01*
X104997Y84098D01*
X105145Y84042D01*
X105320Y84005D01*
X105514Y83996D01*
X105570D01*
X105607Y84005D01*
X105718Y84015D01*
X105847Y84042D01*
X105986Y84079D01*
X106143Y84144D01*
X106291Y84227D01*
X106430Y84338D01*
X106448Y84357D01*
X106485Y84403D01*
X106541Y84477D01*
X106596Y84588D01*
X106661Y84717D01*
X106716Y84884D01*
X106754Y85069D01*
X106772Y85281D01*
X107576Y85198D01*
Y85189D01*
X107567Y85161D01*
Y85115D01*
X107558Y85050D01*
X107539Y84976D01*
X107521Y84893D01*
X107493Y84791D01*
X107465Y84690D01*
X107391Y84468D01*
X107281Y84246D01*
X107216Y84135D01*
X107133Y84024D01*
X107049Y83922D01*
X106957Y83830D01*
X106948Y83820D01*
X106929Y83811D01*
X106901Y83784D01*
X106855Y83756D01*
X106800Y83719D01*
X106735Y83682D01*
X106661Y83636D01*
X106568Y83589D01*
X106467Y83543D01*
X106356Y83497D01*
X106236Y83460D01*
X106106Y83423D01*
X105968Y83395D01*
X105820Y83368D01*
X105662Y83358D01*
X105496Y83349D01*
X105404D01*
X105339Y83358D01*
X105265Y83368D01*
X105173Y83377D01*
X105071Y83395D01*
X104969Y83414D01*
X104729Y83478D01*
X104488Y83571D01*
X104368Y83626D01*
X104248Y83691D01*
X104137Y83774D01*
X104035Y83867D01*
X104026Y83876D01*
X104008Y83885D01*
X103989Y83922D01*
X103952Y83959D01*
X103906Y84005D01*
X103860Y84070D01*
X103813Y84135D01*
X103758Y84218D01*
X103665Y84394D01*
X103573Y84616D01*
X103536Y84727D01*
X103518Y84856D01*
X103499Y84986D01*
X103490Y85124D01*
Y85143D01*
Y85189D01*
X103499Y85263D01*
X103508Y85365D01*
X103527Y85476D01*
X103564Y85605D01*
X103601Y85744D01*
X103656Y85882D01*
X103665Y85901D01*
X103684Y85947D01*
X103721Y86021D01*
X103776Y86123D01*
X103850Y86234D01*
X103943Y86372D01*
X104054Y86511D01*
X104183Y86668D01*
X104202Y86687D01*
X104248Y86742D01*
X104294Y86788D01*
X104340Y86835D01*
X104396Y86890D01*
X104470Y86964D01*
X104544Y87038D01*
X104636Y87121D01*
X104729Y87214D01*
X104840Y87315D01*
X104960Y87417D01*
X105089Y87537D01*
X105237Y87657D01*
X105385Y87787D01*
X105394Y87796D01*
X105413Y87815D01*
X105450Y87842D01*
X105496Y87879D01*
X105552Y87935D01*
X105616Y87990D01*
X105764Y88111D01*
X105921Y88249D01*
X106069Y88388D01*
X106199Y88508D01*
X106254Y88554D01*
X106300Y88601D01*
X106310Y88610D01*
X106337Y88638D01*
X106374Y88674D01*
X106421Y88730D01*
X106467Y88795D01*
X106522Y88859D01*
X106633Y89017D01*
X103481D01*
Y89775D01*
X107724D01*
Y89765D01*
D02*
G37*
G36*
X100466Y84773D02*
X100476Y84782D01*
X100522Y84819D01*
X100577Y84874D01*
X100670Y84939D01*
X100772Y85022D01*
X100901Y85115D01*
X101049Y85217D01*
X101215Y85318D01*
X101225D01*
X101234Y85328D01*
X101289Y85365D01*
X101382Y85411D01*
X101493Y85466D01*
X101622Y85531D01*
X101761Y85596D01*
X101899Y85660D01*
X102038Y85716D01*
Y84958D01*
X102029D01*
X102010Y84939D01*
X101973Y84930D01*
X101927Y84902D01*
X101872Y84874D01*
X101807Y84838D01*
X101650Y84745D01*
X101465Y84643D01*
X101280Y84514D01*
X101086Y84366D01*
X100892Y84209D01*
X100883Y84200D01*
X100873Y84190D01*
X100845Y84163D01*
X100808Y84135D01*
X100725Y84042D01*
X100614Y83932D01*
X100503Y83802D01*
X100383Y83654D01*
X100281Y83506D01*
X100189Y83349D01*
X99681D01*
Y89775D01*
X100466D01*
Y84773D01*
D02*
G37*
G36*
X155838Y89876D02*
X155922D01*
X156014Y89858D01*
X156116Y89849D01*
X156236Y89830D01*
X156486Y89775D01*
X156754Y89701D01*
X157031Y89590D01*
X157170Y89525D01*
X157308Y89451D01*
X157318Y89442D01*
X157336Y89433D01*
X157373Y89405D01*
X157429Y89368D01*
X157484Y89331D01*
X157549Y89275D01*
X157706Y89137D01*
X157882Y88970D01*
X158067Y88767D01*
X158233Y88536D01*
X158390Y88268D01*
Y88258D01*
X158409Y88231D01*
X158427Y88194D01*
X158446Y88138D01*
X158473Y88064D01*
X158501Y87981D01*
X158538Y87889D01*
X158566Y87787D01*
X158603Y87667D01*
X158640Y87547D01*
X158695Y87269D01*
X158732Y86982D01*
X158751Y86668D01*
Y86659D01*
Y86650D01*
Y86594D01*
X158742Y86511D01*
Y86400D01*
X158723Y86271D01*
X158705Y86113D01*
X158677Y85938D01*
X158640Y85753D01*
X158603Y85559D01*
X158547Y85355D01*
X158473Y85152D01*
X158390Y84939D01*
X158298Y84736D01*
X158177Y84532D01*
X158048Y84347D01*
X157900Y84172D01*
X157891Y84163D01*
X157863Y84135D01*
X157808Y84089D01*
X157743Y84033D01*
X157660Y83959D01*
X157558Y83885D01*
X157438Y83802D01*
X157299Y83719D01*
X157151Y83636D01*
X156985Y83552D01*
X156800Y83478D01*
X156606Y83405D01*
X156393Y83349D01*
X156171Y83303D01*
X155940Y83275D01*
X155690Y83266D01*
X155607D01*
X155542Y83275D01*
X155459D01*
X155376Y83284D01*
X155265Y83303D01*
X155154Y83321D01*
X154914Y83368D01*
X154636Y83441D01*
X154368Y83552D01*
X154230Y83617D01*
X154091Y83691D01*
X154082Y83700D01*
X154063Y83710D01*
X154026Y83737D01*
X153971Y83765D01*
X153915Y83811D01*
X153841Y83867D01*
X153684Y83996D01*
X153518Y84163D01*
X153333Y84366D01*
X153157Y84606D01*
X153009Y84874D01*
Y84884D01*
X152991Y84911D01*
X152972Y84949D01*
X152954Y85004D01*
X152917Y85078D01*
X152889Y85161D01*
X152852Y85263D01*
X152815Y85374D01*
X152787Y85494D01*
X152750Y85623D01*
X152713Y85771D01*
X152686Y85919D01*
X152649Y86243D01*
X152630Y86594D01*
Y86603D01*
Y86640D01*
Y86687D01*
X152639Y86761D01*
Y86844D01*
X152649Y86945D01*
X152667Y87057D01*
X152676Y87177D01*
X152723Y87445D01*
X152796Y87741D01*
X152898Y88036D01*
X152954Y88184D01*
X153028Y88332D01*
Y88342D01*
X153046Y88369D01*
X153065Y88406D01*
X153102Y88462D01*
X153139Y88526D01*
X153185Y88591D01*
X153314Y88767D01*
X153471Y88952D01*
X153656Y89146D01*
X153878Y89331D01*
X154137Y89497D01*
X154146D01*
X154165Y89516D01*
X154211Y89534D01*
X154267Y89562D01*
X154331Y89590D01*
X154405Y89618D01*
X154498Y89655D01*
X154599Y89691D01*
X154710Y89728D01*
X154831Y89765D01*
X155099Y89821D01*
X155385Y89867D01*
X155690Y89886D01*
X155783D01*
X155838Y89876D01*
D02*
G37*
G36*
X124514Y83266D02*
X123886D01*
X125744Y89886D01*
X126373D01*
X124514Y83266D01*
D02*
G37*
G36*
X344106Y89876D02*
X344170D01*
X344244Y89867D01*
X344420Y89830D01*
X344614Y89784D01*
X344818Y89710D01*
X345021Y89608D01*
X345123Y89544D01*
X345215Y89470D01*
X345224Y89460D01*
X345234Y89451D01*
X345261Y89423D01*
X345289Y89396D01*
X345326Y89349D01*
X345372Y89294D01*
X345465Y89164D01*
X345557Y88998D01*
X345650Y88795D01*
X345724Y88563D01*
X345779Y88295D01*
X345021Y88231D01*
Y88240D01*
X345012Y88258D01*
Y88277D01*
X345003Y88314D01*
X344975Y88416D01*
X344938Y88526D01*
X344892Y88656D01*
X344827Y88785D01*
X344753Y88906D01*
X344660Y89007D01*
X344651Y89017D01*
X344614Y89044D01*
X344549Y89081D01*
X344476Y89118D01*
X344374Y89164D01*
X344254Y89201D01*
X344115Y89229D01*
X343967Y89238D01*
X343902D01*
X343838Y89229D01*
X343754Y89220D01*
X343653Y89201D01*
X343551Y89174D01*
X343440Y89137D01*
X343338Y89081D01*
X343329Y89072D01*
X343292Y89053D01*
X343237Y89017D01*
X343181Y88961D01*
X343107Y88896D01*
X343033Y88822D01*
X342959Y88739D01*
X342885Y88638D01*
X342876Y88628D01*
X342858Y88582D01*
X342821Y88517D01*
X342784Y88434D01*
X342737Y88323D01*
X342691Y88194D01*
X342645Y88046D01*
X342599Y87879D01*
Y87870D01*
X342589Y87861D01*
Y87833D01*
X342580Y87796D01*
X342562Y87704D01*
X342534Y87584D01*
X342515Y87436D01*
X342497Y87278D01*
X342488Y87103D01*
X342478Y86918D01*
Y86909D01*
Y86881D01*
Y86835D01*
Y86761D01*
X342488Y86779D01*
X342525Y86825D01*
X342580Y86890D01*
X342645Y86982D01*
X342737Y87075D01*
X342848Y87177D01*
X342978Y87278D01*
X343126Y87371D01*
X343144Y87380D01*
X343200Y87408D01*
X343283Y87445D01*
X343385Y87482D01*
X343523Y87528D01*
X343671Y87565D01*
X343838Y87593D01*
X344013Y87602D01*
X344087D01*
X344143Y87593D01*
X344217Y87584D01*
X344291Y87574D01*
X344383Y87556D01*
X344476Y87528D01*
X344688Y87463D01*
X344799Y87417D01*
X344910Y87362D01*
X345030Y87297D01*
X345141Y87214D01*
X345252Y87130D01*
X345354Y87029D01*
X345363Y87020D01*
X345382Y87001D01*
X345400Y86973D01*
X345437Y86927D01*
X345483Y86862D01*
X345530Y86798D01*
X345576Y86714D01*
X345622Y86622D01*
X345677Y86520D01*
X345724Y86409D01*
X345770Y86280D01*
X345816Y86150D01*
X345853Y86003D01*
X345872Y85845D01*
X345890Y85688D01*
X345899Y85513D01*
Y85503D01*
Y85466D01*
Y85420D01*
X345890Y85355D01*
X345881Y85272D01*
X345872Y85170D01*
X345853Y85069D01*
X345825Y84949D01*
X345761Y84708D01*
X345714Y84579D01*
X345659Y84440D01*
X345594Y84311D01*
X345511Y84190D01*
X345428Y84061D01*
X345326Y83950D01*
X345317Y83941D01*
X345298Y83922D01*
X345271Y83895D01*
X345224Y83857D01*
X345169Y83811D01*
X345095Y83756D01*
X345021Y83710D01*
X344929Y83645D01*
X344836Y83589D01*
X344725Y83543D01*
X344476Y83441D01*
X344346Y83405D01*
X344198Y83377D01*
X344050Y83358D01*
X343893Y83349D01*
X343828D01*
X343782Y83358D01*
X343736D01*
X343671Y83368D01*
X343514Y83395D01*
X343338Y83432D01*
X343144Y83497D01*
X342950Y83580D01*
X342756Y83691D01*
X342747D01*
X342737Y83710D01*
X342710Y83728D01*
X342673Y83756D01*
X342580Y83830D01*
X342460Y83932D01*
X342340Y84070D01*
X342201Y84237D01*
X342081Y84431D01*
X341970Y84653D01*
Y84662D01*
X341961Y84680D01*
X341942Y84717D01*
X341924Y84764D01*
X341905Y84828D01*
X341878Y84911D01*
X341859Y85004D01*
X341831Y85106D01*
X341804Y85226D01*
X341776Y85365D01*
X341757Y85513D01*
X341739Y85670D01*
X341720Y85845D01*
X341702Y86030D01*
X341693Y86234D01*
Y86446D01*
Y86455D01*
Y86502D01*
Y86566D01*
Y86650D01*
X341702Y86751D01*
Y86872D01*
X341711Y87010D01*
X341730Y87149D01*
X341757Y87463D01*
X341804Y87796D01*
X341868Y88111D01*
X341914Y88268D01*
X341961Y88406D01*
Y88416D01*
X341970Y88434D01*
X341988Y88471D01*
X342007Y88526D01*
X342035Y88582D01*
X342072Y88656D01*
X342164Y88813D01*
X342275Y88989D01*
X342405Y89174D01*
X342571Y89349D01*
X342756Y89507D01*
X342765D01*
X342784Y89525D01*
X342811Y89544D01*
X342848Y89562D01*
X342904Y89590D01*
X342959Y89627D01*
X343033Y89664D01*
X343107Y89691D01*
X343283Y89765D01*
X343495Y89830D01*
X343727Y89867D01*
X343985Y89886D01*
X344059D01*
X344106Y89876D01*
D02*
G37*
G36*
X311441Y86465D02*
X313623Y83377D01*
X312615D01*
X311450Y85022D01*
Y85032D01*
X311432Y85041D01*
X311413Y85069D01*
X311385Y85106D01*
X311330Y85198D01*
X311247Y85309D01*
X311164Y85438D01*
X311080Y85568D01*
X311006Y85688D01*
X310942Y85799D01*
X310933Y85781D01*
X310905Y85744D01*
X310858Y85670D01*
X310794Y85577D01*
X310720Y85476D01*
X310627Y85346D01*
X310535Y85217D01*
X310424Y85078D01*
X309148Y83377D01*
X308223D01*
X310443Y86419D01*
X308048Y89775D01*
X309093D01*
X310711Y87500D01*
X310720Y87491D01*
X310738Y87463D01*
X310757Y87426D01*
X310794Y87380D01*
X310877Y87251D01*
X310970Y87112D01*
X310979Y87121D01*
X311006Y87158D01*
X311043Y87214D01*
X311090Y87288D01*
X311191Y87436D01*
X311238Y87500D01*
X311275Y87556D01*
X312892Y89775D01*
X313910D01*
X311441Y86465D01*
D02*
G37*
G36*
X320733Y83377D02*
X319466D01*
X317950Y87916D01*
Y87926D01*
X317941Y87944D01*
X317931Y87972D01*
X317913Y88018D01*
X317876Y88129D01*
X317830Y88268D01*
X317784Y88425D01*
X317728Y88582D01*
X317682Y88730D01*
X317645Y88859D01*
X317635Y88841D01*
X317626Y88795D01*
X317599Y88711D01*
X317562Y88601D01*
X317515Y88453D01*
X317451Y88277D01*
X317386Y88074D01*
X317303Y87833D01*
X315768Y83377D01*
X314631D01*
Y89775D01*
X315444D01*
Y84422D01*
X317312Y89775D01*
X318070D01*
X319919Y84329D01*
Y89775D01*
X320733D01*
Y83377D01*
D02*
G37*
G36*
X352205D02*
X351280D01*
X349616Y88027D01*
Y88036D01*
X349607Y88055D01*
X349598Y88083D01*
X349579Y88120D01*
X349570Y88175D01*
X349551Y88231D01*
X349505Y88369D01*
X349450Y88526D01*
X349394Y88702D01*
X349283Y89072D01*
Y89063D01*
X349274Y89044D01*
X349265Y89017D01*
X349255Y88980D01*
X349228Y88878D01*
X349182Y88739D01*
X349135Y88582D01*
X349080Y88406D01*
X349015Y88221D01*
X348941Y88027D01*
X347203Y83377D01*
X346343D01*
X348839Y89775D01*
X349727D01*
X352205Y83377D01*
D02*
G37*
G36*
X323054D02*
X322203D01*
Y89775D01*
X323054D01*
Y83377D01*
D02*
G37*
G36*
X295150Y88240D02*
X297933D01*
Y87519D01*
X295002Y83377D01*
X294364D01*
Y87519D01*
X293495D01*
Y88240D01*
X294364D01*
Y89775D01*
X295150D01*
Y88240D01*
D02*
G37*
G36*
X341036Y89765D02*
Y89728D01*
Y89673D01*
X341027Y89599D01*
X341018Y89516D01*
X340999Y89423D01*
X340981Y89331D01*
X340944Y89229D01*
Y89220D01*
X340934Y89211D01*
X340916Y89155D01*
X340879Y89072D01*
X340824Y88961D01*
X340750Y88832D01*
X340657Y88684D01*
X340555Y88536D01*
X340426Y88379D01*
Y88369D01*
X340407Y88360D01*
X340361Y88305D01*
X340278Y88221D01*
X340158Y88101D01*
X340019Y87963D01*
X339843Y87796D01*
X339631Y87611D01*
X339400Y87417D01*
X339390Y87408D01*
X339353Y87380D01*
X339298Y87334D01*
X339233Y87278D01*
X339150Y87204D01*
X339048Y87121D01*
X338947Y87029D01*
X338826Y86927D01*
X338595Y86705D01*
X338364Y86483D01*
X338253Y86372D01*
X338152Y86261D01*
X338059Y86160D01*
X337985Y86058D01*
Y86049D01*
X337967Y86039D01*
X337948Y86012D01*
X337930Y85975D01*
X337865Y85873D01*
X337791Y85753D01*
X337726Y85605D01*
X337662Y85448D01*
X337625Y85272D01*
X337606Y85106D01*
Y85096D01*
Y85087D01*
X337615Y85032D01*
X337625Y84939D01*
X337652Y84838D01*
X337689Y84708D01*
X337754Y84579D01*
X337837Y84449D01*
X337948Y84320D01*
X337967Y84301D01*
X338013Y84264D01*
X338078Y84218D01*
X338179Y84153D01*
X338309Y84098D01*
X338457Y84042D01*
X338632Y84005D01*
X338826Y83996D01*
X338882D01*
X338919Y84005D01*
X339030Y84015D01*
X339159Y84042D01*
X339298Y84079D01*
X339455Y84144D01*
X339603Y84227D01*
X339742Y84338D01*
X339760Y84357D01*
X339797Y84403D01*
X339853Y84477D01*
X339908Y84588D01*
X339973Y84717D01*
X340028Y84884D01*
X340065Y85069D01*
X340084Y85281D01*
X340888Y85198D01*
Y85189D01*
X340879Y85161D01*
Y85115D01*
X340870Y85050D01*
X340851Y84976D01*
X340833Y84893D01*
X340805Y84791D01*
X340777Y84690D01*
X340703Y84468D01*
X340592Y84246D01*
X340528Y84135D01*
X340444Y84024D01*
X340361Y83922D01*
X340269Y83830D01*
X340260Y83820D01*
X340241Y83811D01*
X340213Y83784D01*
X340167Y83756D01*
X340112Y83719D01*
X340047Y83682D01*
X339973Y83636D01*
X339880Y83589D01*
X339779Y83543D01*
X339668Y83497D01*
X339548Y83460D01*
X339418Y83423D01*
X339280Y83395D01*
X339132Y83368D01*
X338974Y83358D01*
X338808Y83349D01*
X338716D01*
X338651Y83358D01*
X338577Y83368D01*
X338484Y83377D01*
X338383Y83395D01*
X338281Y83414D01*
X338041Y83478D01*
X337800Y83571D01*
X337680Y83626D01*
X337560Y83691D01*
X337449Y83774D01*
X337347Y83867D01*
X337338Y83876D01*
X337319Y83885D01*
X337301Y83922D01*
X337264Y83959D01*
X337218Y84005D01*
X337172Y84070D01*
X337125Y84135D01*
X337070Y84218D01*
X336977Y84394D01*
X336885Y84616D01*
X336848Y84727D01*
X336829Y84856D01*
X336811Y84986D01*
X336802Y85124D01*
Y85143D01*
Y85189D01*
X336811Y85263D01*
X336820Y85365D01*
X336839Y85476D01*
X336876Y85605D01*
X336913Y85744D01*
X336968Y85882D01*
X336977Y85901D01*
X336996Y85947D01*
X337033Y86021D01*
X337088Y86123D01*
X337162Y86234D01*
X337255Y86372D01*
X337366Y86511D01*
X337495Y86668D01*
X337514Y86687D01*
X337560Y86742D01*
X337606Y86788D01*
X337652Y86835D01*
X337708Y86890D01*
X337782Y86964D01*
X337856Y87038D01*
X337948Y87121D01*
X338041Y87214D01*
X338152Y87315D01*
X338272Y87417D01*
X338401Y87537D01*
X338549Y87657D01*
X338697Y87787D01*
X338706Y87796D01*
X338725Y87815D01*
X338762Y87842D01*
X338808Y87879D01*
X338863Y87935D01*
X338928Y87990D01*
X339076Y88111D01*
X339233Y88249D01*
X339381Y88388D01*
X339511Y88508D01*
X339566Y88554D01*
X339612Y88601D01*
X339622Y88610D01*
X339649Y88638D01*
X339686Y88674D01*
X339733Y88730D01*
X339779Y88795D01*
X339834Y88859D01*
X339945Y89017D01*
X336792D01*
Y89775D01*
X341036D01*
Y89765D01*
D02*
G37*
G36*
X334010Y89876D02*
X334093Y89867D01*
X334185Y89858D01*
X334287Y89839D01*
X334398Y89812D01*
X334647Y89747D01*
X334777Y89701D01*
X334897Y89655D01*
X335027Y89590D01*
X335156Y89516D01*
X335276Y89433D01*
X335387Y89331D01*
X335396Y89322D01*
X335415Y89303D01*
X335443Y89275D01*
X335480Y89229D01*
X335517Y89174D01*
X335572Y89109D01*
X335618Y89035D01*
X335674Y88943D01*
X335729Y88850D01*
X335775Y88739D01*
X335868Y88508D01*
X335905Y88369D01*
X335933Y88231D01*
X335951Y88083D01*
X335960Y87935D01*
Y87926D01*
Y87907D01*
Y87870D01*
X335951Y87833D01*
Y87778D01*
X335942Y87713D01*
X335923Y87565D01*
X335886Y87399D01*
X335831Y87232D01*
X335748Y87057D01*
X335646Y86890D01*
Y86881D01*
X335628Y86872D01*
X335591Y86825D01*
X335517Y86751D01*
X335415Y86659D01*
X335285Y86566D01*
X335128Y86465D01*
X334953Y86382D01*
X334740Y86317D01*
X334749D01*
X334758Y86308D01*
X334786Y86298D01*
X334823Y86280D01*
X334906Y86243D01*
X335017Y86187D01*
X335137Y86113D01*
X335258Y86021D01*
X335369Y85919D01*
X335470Y85808D01*
X335480Y85790D01*
X335507Y85753D01*
X335544Y85679D01*
X335581Y85586D01*
X335628Y85466D01*
X335664Y85328D01*
X335692Y85170D01*
X335701Y85004D01*
Y84995D01*
Y84976D01*
Y84939D01*
X335692Y84884D01*
X335683Y84828D01*
X335674Y84754D01*
X335637Y84597D01*
X335581Y84412D01*
X335489Y84218D01*
X335433Y84116D01*
X335369Y84015D01*
X335285Y83922D01*
X335202Y83830D01*
X335193Y83820D01*
X335174Y83811D01*
X335147Y83784D01*
X335110Y83756D01*
X335064Y83719D01*
X334999Y83682D01*
X334925Y83636D01*
X334851Y83589D01*
X334758Y83543D01*
X334657Y83497D01*
X334546Y83460D01*
X334426Y83423D01*
X334167Y83368D01*
X334019Y83358D01*
X333871Y83349D01*
X333788D01*
X333732Y83358D01*
X333658Y83368D01*
X333575Y83377D01*
X333483Y83386D01*
X333390Y83414D01*
X333168Y83469D01*
X332946Y83552D01*
X332835Y83608D01*
X332724Y83673D01*
X332623Y83756D01*
X332521Y83839D01*
X332512Y83848D01*
X332503Y83857D01*
X332475Y83885D01*
X332438Y83922D01*
X332401Y83978D01*
X332355Y84033D01*
X332262Y84172D01*
X332170Y84347D01*
X332086Y84551D01*
X332022Y84782D01*
X332012Y84902D01*
X332003Y85032D01*
Y85041D01*
Y85050D01*
Y85106D01*
X332012Y85189D01*
X332031Y85291D01*
X332059Y85420D01*
X332105Y85549D01*
X332160Y85679D01*
X332244Y85808D01*
X332253Y85827D01*
X332290Y85864D01*
X332345Y85919D01*
X332419Y85993D01*
X332521Y86076D01*
X332641Y86160D01*
X332780Y86243D01*
X332946Y86317D01*
X332937D01*
X332919Y86326D01*
X332891Y86335D01*
X332854Y86354D01*
X332743Y86400D01*
X332613Y86465D01*
X332475Y86557D01*
X332327Y86659D01*
X332188Y86788D01*
X332059Y86936D01*
Y86945D01*
X332049Y86955D01*
X332012Y87010D01*
X331957Y87103D01*
X331902Y87223D01*
X331846Y87371D01*
X331791Y87547D01*
X331754Y87741D01*
X331744Y87953D01*
Y87963D01*
Y87990D01*
Y88036D01*
X331754Y88092D01*
X331763Y88157D01*
X331772Y88240D01*
X331791Y88332D01*
X331818Y88434D01*
X331883Y88647D01*
X331929Y88767D01*
X331994Y88878D01*
X332059Y88998D01*
X332133Y89109D01*
X332225Y89220D01*
X332327Y89331D01*
X332336Y89340D01*
X332355Y89359D01*
X332382Y89386D01*
X332429Y89414D01*
X332493Y89460D01*
X332558Y89507D01*
X332641Y89553D01*
X332734Y89608D01*
X332835Y89664D01*
X332956Y89710D01*
X333085Y89756D01*
X333214Y89802D01*
X333362Y89830D01*
X333520Y89858D01*
X333677Y89876D01*
X333852Y89886D01*
X333945D01*
X334010Y89876D01*
D02*
G37*
G36*
X331088Y89765D02*
Y89728D01*
Y89673D01*
X331079Y89599D01*
X331069Y89516D01*
X331051Y89423D01*
X331032Y89331D01*
X330995Y89229D01*
Y89220D01*
X330986Y89211D01*
X330968Y89155D01*
X330931Y89072D01*
X330875Y88961D01*
X330801Y88832D01*
X330709Y88684D01*
X330607Y88536D01*
X330478Y88379D01*
Y88369D01*
X330459Y88360D01*
X330413Y88305D01*
X330330Y88221D01*
X330210Y88101D01*
X330071Y87963D01*
X329895Y87796D01*
X329683Y87611D01*
X329451Y87417D01*
X329442Y87408D01*
X329405Y87380D01*
X329350Y87334D01*
X329285Y87278D01*
X329202Y87204D01*
X329100Y87121D01*
X328998Y87029D01*
X328878Y86927D01*
X328647Y86705D01*
X328416Y86483D01*
X328305Y86372D01*
X328203Y86261D01*
X328111Y86160D01*
X328037Y86058D01*
Y86049D01*
X328018Y86039D01*
X328000Y86012D01*
X327981Y85975D01*
X327917Y85873D01*
X327843Y85753D01*
X327778Y85605D01*
X327713Y85448D01*
X327676Y85272D01*
X327658Y85106D01*
Y85096D01*
Y85087D01*
X327667Y85032D01*
X327676Y84939D01*
X327704Y84838D01*
X327741Y84708D01*
X327806Y84579D01*
X327889Y84449D01*
X328000Y84320D01*
X328018Y84301D01*
X328065Y84264D01*
X328129Y84218D01*
X328231Y84153D01*
X328360Y84098D01*
X328508Y84042D01*
X328684Y84005D01*
X328878Y83996D01*
X328934D01*
X328971Y84005D01*
X329082Y84015D01*
X329211Y84042D01*
X329350Y84079D01*
X329507Y84144D01*
X329655Y84227D01*
X329794Y84338D01*
X329812Y84357D01*
X329849Y84403D01*
X329904Y84477D01*
X329960Y84588D01*
X330025Y84717D01*
X330080Y84884D01*
X330117Y85069D01*
X330136Y85281D01*
X330940Y85198D01*
Y85189D01*
X330931Y85161D01*
Y85115D01*
X330922Y85050D01*
X330903Y84976D01*
X330885Y84893D01*
X330857Y84791D01*
X330829Y84690D01*
X330755Y84468D01*
X330644Y84246D01*
X330579Y84135D01*
X330496Y84024D01*
X330413Y83922D01*
X330321Y83830D01*
X330311Y83820D01*
X330293Y83811D01*
X330265Y83784D01*
X330219Y83756D01*
X330163Y83719D01*
X330099Y83682D01*
X330025Y83636D01*
X329932Y83589D01*
X329831Y83543D01*
X329720Y83497D01*
X329599Y83460D01*
X329470Y83423D01*
X329331Y83395D01*
X329183Y83368D01*
X329026Y83358D01*
X328860Y83349D01*
X328767D01*
X328703Y83358D01*
X328629Y83368D01*
X328536Y83377D01*
X328434Y83395D01*
X328333Y83414D01*
X328092Y83478D01*
X327852Y83571D01*
X327732Y83626D01*
X327612Y83691D01*
X327501Y83774D01*
X327399Y83867D01*
X327390Y83876D01*
X327371Y83885D01*
X327353Y83922D01*
X327316Y83959D01*
X327269Y84005D01*
X327223Y84070D01*
X327177Y84135D01*
X327122Y84218D01*
X327029Y84394D01*
X326937Y84616D01*
X326900Y84727D01*
X326881Y84856D01*
X326863Y84986D01*
X326853Y85124D01*
Y85143D01*
Y85189D01*
X326863Y85263D01*
X326872Y85365D01*
X326890Y85476D01*
X326927Y85605D01*
X326964Y85744D01*
X327020Y85882D01*
X327029Y85901D01*
X327048Y85947D01*
X327085Y86021D01*
X327140Y86123D01*
X327214Y86234D01*
X327306Y86372D01*
X327417Y86511D01*
X327547Y86668D01*
X327565Y86687D01*
X327612Y86742D01*
X327658Y86788D01*
X327704Y86835D01*
X327760Y86890D01*
X327833Y86964D01*
X327907Y87038D01*
X328000Y87121D01*
X328092Y87214D01*
X328203Y87315D01*
X328323Y87417D01*
X328453Y87537D01*
X328601Y87657D01*
X328749Y87787D01*
X328758Y87796D01*
X328777Y87815D01*
X328814Y87842D01*
X328860Y87879D01*
X328915Y87935D01*
X328980Y87990D01*
X329128Y88111D01*
X329285Y88249D01*
X329433Y88388D01*
X329562Y88508D01*
X329618Y88554D01*
X329664Y88601D01*
X329673Y88610D01*
X329701Y88638D01*
X329738Y88674D01*
X329784Y88730D01*
X329831Y88795D01*
X329886Y88859D01*
X329997Y89017D01*
X326844D01*
Y89775D01*
X331088D01*
Y89765D01*
D02*
G37*
G36*
X307724D02*
Y89728D01*
Y89673D01*
X307715Y89599D01*
X307706Y89516D01*
X307687Y89423D01*
X307669Y89331D01*
X307632Y89229D01*
Y89220D01*
X307623Y89211D01*
X307604Y89155D01*
X307567Y89072D01*
X307512Y88961D01*
X307438Y88832D01*
X307345Y88684D01*
X307243Y88536D01*
X307114Y88379D01*
Y88369D01*
X307096Y88360D01*
X307049Y88305D01*
X306966Y88221D01*
X306846Y88101D01*
X306707Y87963D01*
X306532Y87796D01*
X306319Y87611D01*
X306088Y87417D01*
X306078Y87408D01*
X306042Y87380D01*
X305986Y87334D01*
X305921Y87278D01*
X305838Y87204D01*
X305736Y87121D01*
X305635Y87029D01*
X305515Y86927D01*
X305283Y86705D01*
X305052Y86483D01*
X304941Y86372D01*
X304840Y86261D01*
X304747Y86160D01*
X304673Y86058D01*
Y86049D01*
X304655Y86039D01*
X304636Y86012D01*
X304618Y85975D01*
X304553Y85873D01*
X304479Y85753D01*
X304414Y85605D01*
X304350Y85448D01*
X304313Y85272D01*
X304294Y85106D01*
Y85096D01*
Y85087D01*
X304303Y85032D01*
X304313Y84939D01*
X304340Y84838D01*
X304377Y84708D01*
X304442Y84579D01*
X304525Y84449D01*
X304636Y84320D01*
X304655Y84301D01*
X304701Y84264D01*
X304766Y84218D01*
X304867Y84153D01*
X304997Y84098D01*
X305145Y84042D01*
X305320Y84005D01*
X305515Y83996D01*
X305570D01*
X305607Y84005D01*
X305718Y84015D01*
X305847Y84042D01*
X305986Y84079D01*
X306143Y84144D01*
X306291Y84227D01*
X306430Y84338D01*
X306448Y84357D01*
X306485Y84403D01*
X306541Y84477D01*
X306596Y84588D01*
X306661Y84717D01*
X306716Y84884D01*
X306754Y85069D01*
X306772Y85281D01*
X307576Y85198D01*
Y85189D01*
X307567Y85161D01*
Y85115D01*
X307558Y85050D01*
X307539Y84976D01*
X307521Y84893D01*
X307493Y84791D01*
X307465Y84690D01*
X307391Y84468D01*
X307281Y84246D01*
X307216Y84135D01*
X307132Y84024D01*
X307049Y83922D01*
X306957Y83830D01*
X306948Y83820D01*
X306929Y83811D01*
X306901Y83784D01*
X306855Y83756D01*
X306800Y83719D01*
X306735Y83682D01*
X306661Y83636D01*
X306569Y83589D01*
X306467Y83543D01*
X306356Y83497D01*
X306236Y83460D01*
X306106Y83423D01*
X305968Y83395D01*
X305820Y83368D01*
X305662Y83358D01*
X305496Y83349D01*
X305404D01*
X305339Y83358D01*
X305265Y83368D01*
X305173Y83377D01*
X305071Y83395D01*
X304969Y83414D01*
X304729Y83478D01*
X304488Y83571D01*
X304368Y83626D01*
X304248Y83691D01*
X304137Y83774D01*
X304035Y83867D01*
X304026Y83876D01*
X304007Y83885D01*
X303989Y83922D01*
X303952Y83959D01*
X303906Y84005D01*
X303860Y84070D01*
X303813Y84135D01*
X303758Y84218D01*
X303665Y84394D01*
X303573Y84616D01*
X303536Y84727D01*
X303517Y84856D01*
X303499Y84986D01*
X303490Y85124D01*
Y85143D01*
Y85189D01*
X303499Y85263D01*
X303508Y85365D01*
X303527Y85476D01*
X303564Y85605D01*
X303601Y85744D01*
X303656Y85882D01*
X303665Y85901D01*
X303684Y85947D01*
X303721Y86021D01*
X303776Y86123D01*
X303850Y86234D01*
X303943Y86372D01*
X304054Y86511D01*
X304183Y86668D01*
X304202Y86687D01*
X304248Y86742D01*
X304294Y86788D01*
X304340Y86835D01*
X304396Y86890D01*
X304470Y86964D01*
X304544Y87038D01*
X304636Y87121D01*
X304729Y87214D01*
X304840Y87315D01*
X304960Y87417D01*
X305089Y87537D01*
X305237Y87657D01*
X305385Y87787D01*
X305394Y87796D01*
X305413Y87815D01*
X305450Y87842D01*
X305496Y87879D01*
X305551Y87935D01*
X305616Y87990D01*
X305764Y88111D01*
X305921Y88249D01*
X306069Y88388D01*
X306199Y88508D01*
X306254Y88554D01*
X306300Y88601D01*
X306310Y88610D01*
X306337Y88638D01*
X306374Y88674D01*
X306421Y88730D01*
X306467Y88795D01*
X306522Y88859D01*
X306633Y89017D01*
X303480D01*
Y89775D01*
X307724D01*
Y89765D01*
D02*
G37*
G36*
X300466Y84773D02*
X300476Y84782D01*
X300522Y84819D01*
X300577Y84874D01*
X300670Y84939D01*
X300772Y85022D01*
X300901Y85115D01*
X301049Y85217D01*
X301215Y85318D01*
X301225D01*
X301234Y85328D01*
X301289Y85365D01*
X301382Y85411D01*
X301493Y85466D01*
X301622Y85531D01*
X301761Y85596D01*
X301900Y85660D01*
X302038Y85716D01*
Y84958D01*
X302029D01*
X302010Y84939D01*
X301973Y84930D01*
X301927Y84902D01*
X301872Y84874D01*
X301807Y84838D01*
X301650Y84745D01*
X301465Y84643D01*
X301280Y84514D01*
X301086Y84366D01*
X300892Y84209D01*
X300882Y84200D01*
X300873Y84190D01*
X300846Y84163D01*
X300809Y84135D01*
X300725Y84042D01*
X300614Y83932D01*
X300503Y83802D01*
X300383Y83654D01*
X300282Y83506D01*
X300189Y83349D01*
X299681D01*
Y89775D01*
X300466D01*
Y84773D01*
D02*
G37*
G36*
X355838Y89876D02*
X355922D01*
X356014Y89858D01*
X356116Y89849D01*
X356236Y89830D01*
X356485Y89775D01*
X356754Y89701D01*
X357031Y89590D01*
X357170Y89525D01*
X357308Y89451D01*
X357318Y89442D01*
X357336Y89433D01*
X357373Y89405D01*
X357429Y89368D01*
X357484Y89331D01*
X357549Y89275D01*
X357706Y89137D01*
X357882Y88970D01*
X358066Y88767D01*
X358233Y88536D01*
X358390Y88268D01*
Y88258D01*
X358409Y88231D01*
X358427Y88194D01*
X358446Y88138D01*
X358473Y88064D01*
X358501Y87981D01*
X358538Y87889D01*
X358566Y87787D01*
X358603Y87667D01*
X358640Y87547D01*
X358695Y87269D01*
X358732Y86982D01*
X358751Y86668D01*
Y86659D01*
Y86650D01*
Y86594D01*
X358741Y86511D01*
Y86400D01*
X358723Y86271D01*
X358704Y86113D01*
X358677Y85938D01*
X358640Y85753D01*
X358603Y85559D01*
X358547Y85355D01*
X358473Y85152D01*
X358390Y84939D01*
X358298Y84736D01*
X358177Y84532D01*
X358048Y84347D01*
X357900Y84172D01*
X357891Y84163D01*
X357863Y84135D01*
X357808Y84089D01*
X357743Y84033D01*
X357660Y83959D01*
X357558Y83885D01*
X357438Y83802D01*
X357299Y83719D01*
X357151Y83636D01*
X356985Y83552D01*
X356800Y83478D01*
X356606Y83405D01*
X356393Y83349D01*
X356171Y83303D01*
X355940Y83275D01*
X355690Y83266D01*
X355607D01*
X355542Y83275D01*
X355459D01*
X355376Y83284D01*
X355265Y83303D01*
X355154Y83321D01*
X354914Y83368D01*
X354636Y83441D01*
X354368Y83552D01*
X354230Y83617D01*
X354091Y83691D01*
X354082Y83700D01*
X354063Y83710D01*
X354026Y83737D01*
X353971Y83765D01*
X353915Y83811D01*
X353841Y83867D01*
X353684Y83996D01*
X353518Y84163D01*
X353333Y84366D01*
X353157Y84606D01*
X353009Y84874D01*
Y84884D01*
X352991Y84911D01*
X352972Y84949D01*
X352954Y85004D01*
X352917Y85078D01*
X352889Y85161D01*
X352852Y85263D01*
X352815Y85374D01*
X352787Y85494D01*
X352750Y85623D01*
X352713Y85771D01*
X352686Y85919D01*
X352649Y86243D01*
X352630Y86594D01*
Y86603D01*
Y86640D01*
Y86687D01*
X352639Y86761D01*
Y86844D01*
X352649Y86945D01*
X352667Y87057D01*
X352676Y87177D01*
X352723Y87445D01*
X352797Y87741D01*
X352898Y88036D01*
X352954Y88184D01*
X353028Y88332D01*
Y88342D01*
X353046Y88369D01*
X353065Y88406D01*
X353102Y88462D01*
X353139Y88526D01*
X353185Y88591D01*
X353314Y88767D01*
X353471Y88952D01*
X353656Y89146D01*
X353878Y89331D01*
X354137Y89497D01*
X354146D01*
X354165Y89516D01*
X354211Y89534D01*
X354267Y89562D01*
X354331Y89590D01*
X354405Y89618D01*
X354498Y89655D01*
X354599Y89691D01*
X354710Y89728D01*
X354831Y89765D01*
X355099Y89821D01*
X355385Y89867D01*
X355690Y89886D01*
X355783D01*
X355838Y89876D01*
D02*
G37*
G36*
X324514Y83266D02*
X323886D01*
X325744Y89886D01*
X326373D01*
X324514Y83266D01*
D02*
G37*
G36*
X322664Y78991D02*
X322738Y78981D01*
X322822Y78972D01*
X322914Y78954D01*
X323016Y78935D01*
X323238Y78880D01*
X323469Y78787D01*
X323589Y78732D01*
X323700Y78667D01*
X323811Y78584D01*
X323922Y78501D01*
X323931Y78491D01*
X323950Y78473D01*
X323977Y78445D01*
X324005Y78408D01*
X324051Y78362D01*
X324098Y78297D01*
X324153Y78233D01*
X324208Y78149D01*
X324264Y78057D01*
X324319Y77964D01*
X324421Y77743D01*
X324504Y77484D01*
X324532Y77345D01*
X324551Y77197D01*
X323765Y77095D01*
Y77105D01*
X323755Y77123D01*
X323746Y77160D01*
X323737Y77206D01*
X323728Y77262D01*
X323709Y77326D01*
X323663Y77465D01*
X323598Y77632D01*
X323515Y77789D01*
X323423Y77937D01*
X323312Y78066D01*
X323293Y78075D01*
X323256Y78112D01*
X323182Y78159D01*
X323090Y78205D01*
X322979Y78260D01*
X322840Y78306D01*
X322683Y78344D01*
X322517Y78353D01*
X322461D01*
X322424Y78344D01*
X322322Y78334D01*
X322193Y78306D01*
X322045Y78260D01*
X321888Y78196D01*
X321731Y78103D01*
X321583Y77974D01*
X321564Y77955D01*
X321518Y77900D01*
X321463Y77817D01*
X321389Y77706D01*
X321315Y77567D01*
X321259Y77410D01*
X321213Y77225D01*
X321194Y77021D01*
Y77012D01*
Y76994D01*
Y76966D01*
X321204Y76929D01*
X321213Y76827D01*
X321241Y76707D01*
X321278Y76559D01*
X321342Y76411D01*
X321435Y76263D01*
X321555Y76125D01*
X321573Y76106D01*
X321620Y76069D01*
X321694Y76014D01*
X321795Y75949D01*
X321925Y75884D01*
X322082Y75829D01*
X322258Y75792D01*
X322452Y75773D01*
X322535D01*
X322600Y75782D01*
X322683Y75792D01*
X322775Y75810D01*
X322886Y75829D01*
X323007Y75856D01*
X322914Y75163D01*
X322868D01*
X322831Y75172D01*
X322711D01*
X322609Y75154D01*
X322489Y75135D01*
X322350Y75107D01*
X322193Y75061D01*
X322045Y74997D01*
X321888Y74913D01*
X321879D01*
X321869Y74904D01*
X321823Y74867D01*
X321758Y74802D01*
X321684Y74719D01*
X321610Y74599D01*
X321546Y74460D01*
X321499Y74303D01*
X321481Y74211D01*
Y74109D01*
Y74100D01*
Y74090D01*
Y74035D01*
X321499Y73961D01*
X321518Y73859D01*
X321555Y73748D01*
X321601Y73628D01*
X321675Y73508D01*
X321777Y73397D01*
X321786Y73388D01*
X321832Y73351D01*
X321897Y73305D01*
X321980Y73249D01*
X322091Y73203D01*
X322221Y73157D01*
X322369Y73120D01*
X322535Y73110D01*
X322609D01*
X322692Y73129D01*
X322803Y73148D01*
X322923Y73184D01*
X323044Y73231D01*
X323173Y73305D01*
X323293Y73397D01*
X323302Y73406D01*
X323339Y73453D01*
X323395Y73517D01*
X323460Y73610D01*
X323524Y73730D01*
X323589Y73878D01*
X323644Y74054D01*
X323681Y74257D01*
X324467Y74118D01*
Y74109D01*
X324458Y74081D01*
X324449Y74044D01*
X324440Y73989D01*
X324421Y73924D01*
X324393Y73850D01*
X324338Y73675D01*
X324245Y73471D01*
X324134Y73268D01*
X323996Y73074D01*
X323820Y72898D01*
X323811Y72889D01*
X323792Y72879D01*
X323765Y72861D01*
X323728Y72833D01*
X323681Y72796D01*
X323617Y72759D01*
X323552Y72722D01*
X323469Y72676D01*
X323284Y72602D01*
X323071Y72528D01*
X322822Y72482D01*
X322692Y72463D01*
X322461D01*
X322359Y72473D01*
X322239Y72491D01*
X322091Y72519D01*
X321925Y72565D01*
X321758Y72621D01*
X321592Y72694D01*
X321583D01*
X321573Y72704D01*
X321518Y72731D01*
X321435Y72787D01*
X321342Y72852D01*
X321231Y72944D01*
X321120Y73046D01*
X321009Y73166D01*
X320917Y73305D01*
X320908Y73323D01*
X320880Y73369D01*
X320843Y73453D01*
X320797Y73554D01*
X320751Y73675D01*
X320714Y73813D01*
X320686Y73970D01*
X320677Y74127D01*
Y74146D01*
Y74201D01*
X320686Y74275D01*
X320704Y74377D01*
X320732Y74497D01*
X320778Y74627D01*
X320834Y74756D01*
X320908Y74886D01*
X320917Y74904D01*
X320945Y74941D01*
X321000Y75006D01*
X321074Y75080D01*
X321167Y75163D01*
X321278Y75255D01*
X321407Y75339D01*
X321564Y75422D01*
X321555D01*
X321536Y75431D01*
X321509Y75440D01*
X321472Y75450D01*
X321370Y75487D01*
X321241Y75542D01*
X321093Y75616D01*
X320945Y75708D01*
X320806Y75829D01*
X320677Y75967D01*
X320667Y75986D01*
X320630Y76041D01*
X320575Y76134D01*
X320519Y76254D01*
X320464Y76402D01*
X320409Y76578D01*
X320372Y76781D01*
X320362Y77003D01*
Y77012D01*
Y77040D01*
Y77086D01*
X320372Y77142D01*
X320381Y77215D01*
X320399Y77299D01*
X320418Y77391D01*
X320436Y77493D01*
X320510Y77715D01*
X320566Y77835D01*
X320621Y77946D01*
X320695Y78066D01*
X320778Y78186D01*
X320871Y78306D01*
X320982Y78418D01*
X320991Y78427D01*
X321009Y78445D01*
X321046Y78473D01*
X321093Y78510D01*
X321148Y78556D01*
X321222Y78602D01*
X321305Y78658D01*
X321407Y78704D01*
X321509Y78760D01*
X321629Y78815D01*
X321749Y78861D01*
X321888Y78907D01*
X322036Y78945D01*
X322193Y78972D01*
X322350Y78991D01*
X322526Y79000D01*
X322609D01*
X322664Y78991D01*
D02*
G37*
G36*
X328387Y75579D02*
X330569Y72491D01*
X329562D01*
X328397Y74137D01*
Y74146D01*
X328378Y74155D01*
X328360Y74183D01*
X328332Y74220D01*
X328276Y74312D01*
X328193Y74423D01*
X328110Y74553D01*
X328027Y74682D01*
X327953Y74802D01*
X327888Y74913D01*
X327879Y74895D01*
X327851Y74858D01*
X327805Y74784D01*
X327740Y74692D01*
X327666Y74590D01*
X327574Y74460D01*
X327481Y74331D01*
X327370Y74192D01*
X326095Y72491D01*
X325170D01*
X327389Y75533D01*
X324994Y78889D01*
X326039D01*
X327657Y76615D01*
X327666Y76605D01*
X327685Y76578D01*
X327703Y76541D01*
X327740Y76494D01*
X327823Y76365D01*
X327916Y76226D01*
X327925Y76235D01*
X327953Y76273D01*
X327990Y76328D01*
X328036Y76402D01*
X328138Y76550D01*
X328184Y76615D01*
X328221Y76670D01*
X329839Y78889D01*
X330856D01*
X328387Y75579D01*
D02*
G37*
G36*
X337679Y72491D02*
X336413D01*
X334896Y77031D01*
Y77040D01*
X334887Y77058D01*
X334878Y77086D01*
X334859Y77132D01*
X334822Y77243D01*
X334776Y77382D01*
X334730Y77539D01*
X334674Y77696D01*
X334628Y77844D01*
X334591Y77974D01*
X334582Y77955D01*
X334573Y77909D01*
X334545Y77826D01*
X334508Y77715D01*
X334462Y77567D01*
X334397Y77391D01*
X334332Y77188D01*
X334249Y76947D01*
X332714Y72491D01*
X331577D01*
Y78889D01*
X332391D01*
Y73536D01*
X334258Y78889D01*
X335017D01*
X336866Y73443D01*
Y78889D01*
X337679D01*
Y72491D01*
D02*
G37*
G36*
X318633Y78880D02*
Y78852D01*
Y78815D01*
X318624Y78760D01*
Y78686D01*
X318615Y78593D01*
X318606Y78491D01*
X318596Y78380D01*
X318578Y78251D01*
X318559Y78122D01*
X318532Y77964D01*
X318504Y77807D01*
X318476Y77641D01*
X318439Y77456D01*
X318347Y77077D01*
Y77068D01*
X318337Y77031D01*
X318319Y76975D01*
X318291Y76892D01*
X318263Y76800D01*
X318227Y76688D01*
X318190Y76559D01*
X318134Y76420D01*
X318079Y76263D01*
X318023Y76106D01*
X317885Y75755D01*
X317718Y75385D01*
X317533Y75015D01*
X317524Y75006D01*
X317505Y74969D01*
X317478Y74923D01*
X317441Y74849D01*
X317395Y74766D01*
X317330Y74664D01*
X317265Y74553D01*
X317191Y74433D01*
X317015Y74165D01*
X316831Y73887D01*
X316618Y73601D01*
X316396Y73332D01*
X319530D01*
Y72574D01*
X315388D01*
Y73194D01*
X315397Y73203D01*
X315416Y73221D01*
X315453Y73258D01*
X315490Y73314D01*
X315545Y73379D01*
X315619Y73453D01*
X315693Y73545D01*
X315777Y73656D01*
X315860Y73767D01*
X315961Y73896D01*
X316063Y74044D01*
X316165Y74192D01*
X316276Y74359D01*
X316387Y74534D01*
X316498Y74728D01*
X316609Y74923D01*
X316618Y74932D01*
X316636Y74969D01*
X316664Y75024D01*
X316710Y75107D01*
X316756Y75209D01*
X316812Y75320D01*
X316877Y75450D01*
X316941Y75598D01*
X317015Y75764D01*
X317099Y75930D01*
X317173Y76115D01*
X317246Y76309D01*
X317395Y76707D01*
X317533Y77132D01*
Y77142D01*
X317542Y77169D01*
X317552Y77215D01*
X317570Y77271D01*
X317589Y77345D01*
X317607Y77437D01*
X317635Y77539D01*
X317653Y77650D01*
X317681Y77779D01*
X317709Y77918D01*
X317755Y78214D01*
X317801Y78538D01*
X317829Y78889D01*
X318633D01*
Y78880D01*
D02*
G37*
G36*
X340000Y72491D02*
X339149D01*
Y78889D01*
X340000D01*
Y72491D01*
D02*
G37*
G36*
X312670Y78991D02*
X312753Y78981D01*
X312846Y78972D01*
X312947Y78954D01*
X313058Y78926D01*
X313308Y78861D01*
X313437Y78815D01*
X313557Y78769D01*
X313687Y78704D01*
X313816Y78630D01*
X313937Y78547D01*
X314048Y78445D01*
X314057Y78436D01*
X314075Y78418D01*
X314103Y78390D01*
X314140Y78344D01*
X314177Y78288D01*
X314233Y78223D01*
X314279Y78149D01*
X314334Y78057D01*
X314390Y77964D01*
X314436Y77853D01*
X314528Y77622D01*
X314565Y77484D01*
X314593Y77345D01*
X314611Y77197D01*
X314621Y77049D01*
Y77040D01*
Y77021D01*
Y76984D01*
X314611Y76947D01*
Y76892D01*
X314602Y76827D01*
X314584Y76679D01*
X314547Y76513D01*
X314491Y76347D01*
X314408Y76171D01*
X314306Y76004D01*
Y75995D01*
X314288Y75986D01*
X314251Y75940D01*
X314177Y75866D01*
X314075Y75773D01*
X313946Y75681D01*
X313789Y75579D01*
X313613Y75496D01*
X313400Y75431D01*
X313410D01*
X313419Y75422D01*
X313447Y75413D01*
X313484Y75394D01*
X313567Y75357D01*
X313678Y75302D01*
X313798Y75228D01*
X313918Y75135D01*
X314029Y75034D01*
X314131Y74923D01*
X314140Y74904D01*
X314168Y74867D01*
X314205Y74793D01*
X314242Y74701D01*
X314288Y74580D01*
X314325Y74442D01*
X314353Y74285D01*
X314362Y74118D01*
Y74109D01*
Y74090D01*
Y74054D01*
X314353Y73998D01*
X314343Y73943D01*
X314334Y73869D01*
X314297Y73712D01*
X314242Y73527D01*
X314149Y73332D01*
X314094Y73231D01*
X314029Y73129D01*
X313946Y73036D01*
X313863Y72944D01*
X313853Y72935D01*
X313835Y72926D01*
X313807Y72898D01*
X313770Y72870D01*
X313724Y72833D01*
X313659Y72796D01*
X313585Y72750D01*
X313511Y72704D01*
X313419Y72657D01*
X313317Y72611D01*
X313206Y72574D01*
X313086Y72537D01*
X312827Y72482D01*
X312679Y72473D01*
X312531Y72463D01*
X312448D01*
X312393Y72473D01*
X312319Y72482D01*
X312235Y72491D01*
X312143Y72500D01*
X312050Y72528D01*
X311829Y72583D01*
X311607Y72667D01*
X311496Y72722D01*
X311385Y72787D01*
X311283Y72870D01*
X311181Y72953D01*
X311172Y72963D01*
X311163Y72972D01*
X311135Y73000D01*
X311098Y73036D01*
X311061Y73092D01*
X311015Y73148D01*
X310923Y73286D01*
X310830Y73462D01*
X310747Y73665D01*
X310682Y73896D01*
X310673Y74017D01*
X310664Y74146D01*
Y74155D01*
Y74165D01*
Y74220D01*
X310673Y74303D01*
X310691Y74405D01*
X310719Y74534D01*
X310765Y74664D01*
X310821Y74793D01*
X310904Y74923D01*
X310913Y74941D01*
X310950Y74978D01*
X311006Y75034D01*
X311080Y75107D01*
X311181Y75191D01*
X311302Y75274D01*
X311440Y75357D01*
X311607Y75431D01*
X311597D01*
X311579Y75440D01*
X311551Y75450D01*
X311514Y75468D01*
X311403Y75514D01*
X311274Y75579D01*
X311135Y75672D01*
X310987Y75773D01*
X310849Y75903D01*
X310719Y76051D01*
Y76060D01*
X310710Y76069D01*
X310673Y76125D01*
X310617Y76217D01*
X310562Y76337D01*
X310506Y76485D01*
X310451Y76661D01*
X310414Y76855D01*
X310405Y77068D01*
Y77077D01*
Y77105D01*
Y77151D01*
X310414Y77206D01*
X310423Y77271D01*
X310432Y77354D01*
X310451Y77447D01*
X310479Y77548D01*
X310543Y77761D01*
X310590Y77881D01*
X310654Y77992D01*
X310719Y78112D01*
X310793Y78223D01*
X310886Y78334D01*
X310987Y78445D01*
X310996Y78454D01*
X311015Y78473D01*
X311043Y78501D01*
X311089Y78528D01*
X311154Y78575D01*
X311218Y78621D01*
X311302Y78667D01*
X311394Y78723D01*
X311496Y78778D01*
X311616Y78824D01*
X311745Y78871D01*
X311875Y78917D01*
X312023Y78945D01*
X312180Y78972D01*
X312337Y78991D01*
X312513Y79000D01*
X312605D01*
X312670Y78991D01*
D02*
G37*
%LPC*%
G36*
X112513Y78353D02*
X112457D01*
X112420Y78344D01*
X112309Y78334D01*
X112180Y78306D01*
X112032Y78260D01*
X111875Y78205D01*
X111727Y78112D01*
X111579Y77992D01*
X111560Y77974D01*
X111524Y77927D01*
X111459Y77844D01*
X111394Y77743D01*
X111329Y77613D01*
X111265Y77456D01*
X111228Y77271D01*
X111209Y77077D01*
Y77068D01*
Y77049D01*
Y77021D01*
X111218Y76984D01*
X111228Y76883D01*
X111255Y76744D01*
X111302Y76605D01*
X111366Y76448D01*
X111459Y76291D01*
X111588Y76143D01*
X111607Y76125D01*
X111653Y76088D01*
X111736Y76023D01*
X111847Y75949D01*
X111986Y75884D01*
X112152Y75820D01*
X112337Y75782D01*
X112541Y75764D01*
X112596D01*
X112633Y75773D01*
X112735Y75782D01*
X112864Y75810D01*
X113012Y75856D01*
X113160Y75921D01*
X113317Y76014D01*
X113456Y76134D01*
X113474Y76152D01*
X113511Y76199D01*
X113567Y76282D01*
X113631Y76383D01*
X113706Y76522D01*
X113761Y76679D01*
X113798Y76855D01*
X113816Y77049D01*
Y77068D01*
Y77105D01*
X113807Y77169D01*
X113798Y77252D01*
X113779Y77354D01*
X113752Y77465D01*
X113715Y77576D01*
X113668Y77696D01*
X113659Y77706D01*
X113641Y77752D01*
X113604Y77807D01*
X113548Y77872D01*
X113484Y77955D01*
X113400Y78038D01*
X113308Y78112D01*
X113197Y78186D01*
X113179Y78196D01*
X113141Y78214D01*
X113077Y78242D01*
X112994Y78270D01*
X112892Y78297D01*
X112772Y78325D01*
X112642Y78344D01*
X112513Y78353D01*
D02*
G37*
G36*
Y75126D02*
X112494D01*
X112439Y75117D01*
X112356Y75107D01*
X112245Y75089D01*
X112125Y75052D01*
X112004Y75006D01*
X111875Y74932D01*
X111764Y74839D01*
X111755Y74830D01*
X111718Y74784D01*
X111671Y74728D01*
X111616Y74645D01*
X111560Y74544D01*
X111514Y74423D01*
X111477Y74285D01*
X111468Y74137D01*
Y74127D01*
Y74118D01*
Y74063D01*
X111487Y73980D01*
X111505Y73878D01*
X111542Y73767D01*
X111597Y73647D01*
X111671Y73527D01*
X111773Y73406D01*
X111782Y73397D01*
X111829Y73360D01*
X111893Y73314D01*
X111976Y73258D01*
X112087Y73203D01*
X112208Y73157D01*
X112356Y73120D01*
X112513Y73110D01*
X112587D01*
X112670Y73129D01*
X112781Y73148D01*
X112901Y73184D01*
X113031Y73231D01*
X113151Y73305D01*
X113271Y73406D01*
X113280Y73416D01*
X113317Y73453D01*
X113363Y73517D01*
X113410Y73601D01*
X113465Y73702D01*
X113511Y73822D01*
X113548Y73952D01*
X113558Y74100D01*
Y74109D01*
Y74118D01*
X113548Y74174D01*
X113539Y74257D01*
X113521Y74359D01*
X113484Y74479D01*
X113437Y74599D01*
X113363Y74728D01*
X113271Y74839D01*
X113262Y74849D01*
X113215Y74886D01*
X113151Y74932D01*
X113068Y74978D01*
X112957Y75034D01*
X112827Y75080D01*
X112679Y75117D01*
X112513Y75126D01*
D02*
G37*
G36*
X143819Y86909D02*
X143764D01*
X143727Y86899D01*
X143625Y86890D01*
X143505Y86862D01*
X143357Y86816D01*
X143209Y86751D01*
X143061Y86659D01*
X142922Y86530D01*
X142904Y86511D01*
X142867Y86455D01*
X142811Y86372D01*
X142737Y86252D01*
X142673Y86104D01*
X142617Y85928D01*
X142580Y85716D01*
X142562Y85476D01*
Y85466D01*
Y85448D01*
Y85411D01*
X142571Y85365D01*
Y85300D01*
X142580Y85235D01*
X142608Y85087D01*
X142645Y84911D01*
X142710Y84727D01*
X142802Y84551D01*
X142922Y84394D01*
Y84384D01*
X142941Y84375D01*
X142987Y84329D01*
X143061Y84264D01*
X143163Y84190D01*
X143292Y84126D01*
X143440Y84061D01*
X143606Y84015D01*
X143699Y83996D01*
X143847D01*
X143884Y84005D01*
X143986Y84015D01*
X144106Y84052D01*
X144254Y84098D01*
X144411Y84181D01*
X144568Y84283D01*
X144642Y84357D01*
X144716Y84431D01*
Y84440D01*
X144734Y84449D01*
X144753Y84477D01*
X144771Y84505D01*
X144836Y84597D01*
X144901Y84727D01*
X144975Y84884D01*
X145040Y85078D01*
X145077Y85300D01*
X145095Y85540D01*
Y85549D01*
Y85568D01*
Y85596D01*
X145086Y85642D01*
Y85697D01*
X145077Y85753D01*
X145049Y85892D01*
X145002Y86049D01*
X144947Y86215D01*
X144855Y86382D01*
X144734Y86530D01*
X144716Y86548D01*
X144670Y86585D01*
X144586Y86650D01*
X144485Y86714D01*
X144346Y86788D01*
X144189Y86853D01*
X144013Y86890D01*
X143819Y86909D01*
D02*
G37*
G36*
X97166Y87519D02*
X95150D01*
Y84653D01*
X97166Y87519D01*
D02*
G37*
G36*
X133852Y89238D02*
X133797D01*
X133760Y89229D01*
X133649Y89220D01*
X133519Y89192D01*
X133371Y89146D01*
X133214Y89090D01*
X133066Y88998D01*
X132919Y88878D01*
X132900Y88859D01*
X132863Y88813D01*
X132798Y88730D01*
X132734Y88628D01*
X132669Y88499D01*
X132604Y88342D01*
X132567Y88157D01*
X132549Y87963D01*
Y87953D01*
Y87935D01*
Y87907D01*
X132558Y87870D01*
X132567Y87768D01*
X132595Y87630D01*
X132641Y87491D01*
X132706Y87334D01*
X132798Y87177D01*
X132928Y87029D01*
X132946Y87010D01*
X132992Y86973D01*
X133076Y86909D01*
X133187Y86835D01*
X133325Y86770D01*
X133492Y86705D01*
X133677Y86668D01*
X133880Y86650D01*
X133935D01*
X133973Y86659D01*
X134074Y86668D01*
X134204Y86696D01*
X134352Y86742D01*
X134500Y86807D01*
X134657Y86899D01*
X134795Y87020D01*
X134814Y87038D01*
X134851Y87084D01*
X134906Y87167D01*
X134971Y87269D01*
X135045Y87408D01*
X135100Y87565D01*
X135137Y87741D01*
X135156Y87935D01*
Y87953D01*
Y87990D01*
X135147Y88055D01*
X135137Y88138D01*
X135119Y88240D01*
X135091Y88351D01*
X135054Y88462D01*
X135008Y88582D01*
X134999Y88591D01*
X134980Y88638D01*
X134943Y88693D01*
X134888Y88758D01*
X134823Y88841D01*
X134740Y88924D01*
X134647Y88998D01*
X134537Y89072D01*
X134518Y89081D01*
X134481Y89100D01*
X134416Y89128D01*
X134333Y89155D01*
X134231Y89183D01*
X134111Y89211D01*
X133982Y89229D01*
X133852Y89238D01*
D02*
G37*
G36*
Y86012D02*
X133834D01*
X133778Y86003D01*
X133695Y85993D01*
X133584Y85975D01*
X133464Y85938D01*
X133344Y85892D01*
X133214Y85818D01*
X133103Y85725D01*
X133094Y85716D01*
X133057Y85670D01*
X133011Y85614D01*
X132956Y85531D01*
X132900Y85429D01*
X132854Y85309D01*
X132817Y85170D01*
X132808Y85022D01*
Y85013D01*
Y85004D01*
Y84949D01*
X132826Y84865D01*
X132844Y84764D01*
X132881Y84653D01*
X132937Y84532D01*
X133011Y84412D01*
X133113Y84292D01*
X133122Y84283D01*
X133168Y84246D01*
X133233Y84200D01*
X133316Y84144D01*
X133427Y84089D01*
X133547Y84042D01*
X133695Y84005D01*
X133852Y83996D01*
X133926D01*
X134010Y84015D01*
X134120Y84033D01*
X134241Y84070D01*
X134370Y84116D01*
X134490Y84190D01*
X134610Y84292D01*
X134620Y84301D01*
X134657Y84338D01*
X134703Y84403D01*
X134749Y84486D01*
X134805Y84588D01*
X134851Y84708D01*
X134888Y84838D01*
X134897Y84986D01*
Y84995D01*
Y85004D01*
X134888Y85059D01*
X134879Y85143D01*
X134860Y85244D01*
X134823Y85365D01*
X134777Y85485D01*
X134703Y85614D01*
X134610Y85725D01*
X134601Y85734D01*
X134555Y85771D01*
X134490Y85818D01*
X134407Y85864D01*
X134296Y85919D01*
X134167Y85965D01*
X134019Y86003D01*
X133852Y86012D01*
D02*
G37*
G36*
X155700Y89164D02*
X155653D01*
X155607Y89155D01*
X155542D01*
X155459Y89146D01*
X155367Y89128D01*
X155256Y89109D01*
X155145Y89081D01*
X155015Y89044D01*
X154895Y88998D01*
X154757Y88952D01*
X154627Y88887D01*
X154498Y88804D01*
X154368Y88721D01*
X154239Y88619D01*
X154119Y88499D01*
X154109Y88490D01*
X154091Y88471D01*
X154063Y88425D01*
X154017Y88369D01*
X153971Y88305D01*
X153925Y88221D01*
X153869Y88120D01*
X153804Y88009D01*
X153749Y87879D01*
X153693Y87731D01*
X153647Y87574D01*
X153592Y87408D01*
X153555Y87223D01*
X153527Y87020D01*
X153509Y86807D01*
X153499Y86585D01*
Y86576D01*
Y86548D01*
Y86511D01*
Y86455D01*
X153509Y86391D01*
Y86308D01*
X153518Y86224D01*
X153536Y86123D01*
X153564Y85910D01*
X153610Y85688D01*
X153675Y85448D01*
X153767Y85226D01*
Y85217D01*
X153777Y85198D01*
X153795Y85170D01*
X153814Y85133D01*
X153878Y85022D01*
X153961Y84893D01*
X154072Y84745D01*
X154211Y84597D01*
X154368Y84449D01*
X154544Y84320D01*
X154553D01*
X154563Y84301D01*
X154590Y84292D01*
X154636Y84264D01*
X154683Y84246D01*
X154738Y84218D01*
X154877Y84153D01*
X155043Y84098D01*
X155237Y84042D01*
X155459Y84005D01*
X155690Y83996D01*
X155774D01*
X155838Y84005D01*
X155922Y84015D01*
X156005Y84033D01*
X156107Y84052D01*
X156217Y84070D01*
X156458Y84144D01*
X156587Y84200D01*
X156717Y84255D01*
X156855Y84329D01*
X156985Y84412D01*
X157114Y84505D01*
X157234Y84616D01*
X157244Y84625D01*
X157262Y84643D01*
X157290Y84680D01*
X157336Y84736D01*
X157382Y84801D01*
X157438Y84884D01*
X157493Y84986D01*
X157558Y85106D01*
X157613Y85235D01*
X157678Y85392D01*
X157734Y85559D01*
X157780Y85744D01*
X157826Y85947D01*
X157854Y86178D01*
X157872Y86419D01*
X157882Y86677D01*
Y86687D01*
Y86724D01*
Y86788D01*
X157872Y86872D01*
X157863Y86964D01*
X157845Y87075D01*
X157826Y87204D01*
X157808Y87334D01*
X157734Y87630D01*
X157678Y87778D01*
X157623Y87935D01*
X157549Y88083D01*
X157466Y88231D01*
X157373Y88369D01*
X157262Y88499D01*
X157253Y88508D01*
X157234Y88526D01*
X157198Y88563D01*
X157151Y88601D01*
X157086Y88656D01*
X157013Y88711D01*
X156929Y88767D01*
X156837Y88832D01*
X156726Y88896D01*
X156606Y88952D01*
X156476Y89007D01*
X156338Y89063D01*
X156190Y89100D01*
X156042Y89137D01*
X155875Y89155D01*
X155700Y89164D01*
D02*
G37*
G36*
X343819Y86909D02*
X343764D01*
X343727Y86899D01*
X343625Y86890D01*
X343505Y86862D01*
X343357Y86816D01*
X343209Y86751D01*
X343061Y86659D01*
X342922Y86530D01*
X342904Y86511D01*
X342867Y86455D01*
X342811Y86372D01*
X342737Y86252D01*
X342673Y86104D01*
X342617Y85928D01*
X342580Y85716D01*
X342562Y85476D01*
Y85466D01*
Y85448D01*
Y85411D01*
X342571Y85365D01*
Y85300D01*
X342580Y85235D01*
X342608Y85087D01*
X342645Y84911D01*
X342710Y84727D01*
X342802Y84551D01*
X342922Y84394D01*
Y84384D01*
X342941Y84375D01*
X342987Y84329D01*
X343061Y84264D01*
X343163Y84190D01*
X343292Y84126D01*
X343440Y84061D01*
X343606Y84015D01*
X343699Y83996D01*
X343847D01*
X343884Y84005D01*
X343985Y84015D01*
X344106Y84052D01*
X344254Y84098D01*
X344411Y84181D01*
X344568Y84283D01*
X344642Y84357D01*
X344716Y84431D01*
Y84440D01*
X344734Y84449D01*
X344753Y84477D01*
X344771Y84505D01*
X344836Y84597D01*
X344901Y84727D01*
X344975Y84884D01*
X345039Y85078D01*
X345076Y85300D01*
X345095Y85540D01*
Y85549D01*
Y85568D01*
Y85596D01*
X345086Y85642D01*
Y85697D01*
X345076Y85753D01*
X345049Y85892D01*
X345003Y86049D01*
X344947Y86215D01*
X344855Y86382D01*
X344734Y86530D01*
X344716Y86548D01*
X344670Y86585D01*
X344586Y86650D01*
X344485Y86714D01*
X344346Y86788D01*
X344189Y86853D01*
X344013Y86890D01*
X343819Y86909D01*
D02*
G37*
G36*
X297166Y87519D02*
X295150D01*
Y84653D01*
X297166Y87519D01*
D02*
G37*
G36*
X333852Y89238D02*
X333797D01*
X333760Y89229D01*
X333649Y89220D01*
X333520Y89192D01*
X333372Y89146D01*
X333214Y89090D01*
X333066Y88998D01*
X332919Y88878D01*
X332900Y88859D01*
X332863Y88813D01*
X332798Y88730D01*
X332734Y88628D01*
X332669Y88499D01*
X332604Y88342D01*
X332567Y88157D01*
X332549Y87963D01*
Y87953D01*
Y87935D01*
Y87907D01*
X332558Y87870D01*
X332567Y87768D01*
X332595Y87630D01*
X332641Y87491D01*
X332706Y87334D01*
X332798Y87177D01*
X332928Y87029D01*
X332946Y87010D01*
X332993Y86973D01*
X333076Y86909D01*
X333187Y86835D01*
X333325Y86770D01*
X333492Y86705D01*
X333677Y86668D01*
X333880Y86650D01*
X333936D01*
X333973Y86659D01*
X334074Y86668D01*
X334204Y86696D01*
X334352Y86742D01*
X334500Y86807D01*
X334657Y86899D01*
X334795Y87020D01*
X334814Y87038D01*
X334851Y87084D01*
X334906Y87167D01*
X334971Y87269D01*
X335045Y87408D01*
X335101Y87565D01*
X335137Y87741D01*
X335156Y87935D01*
Y87953D01*
Y87990D01*
X335147Y88055D01*
X335137Y88138D01*
X335119Y88240D01*
X335091Y88351D01*
X335054Y88462D01*
X335008Y88582D01*
X334999Y88591D01*
X334980Y88638D01*
X334943Y88693D01*
X334888Y88758D01*
X334823Y88841D01*
X334740Y88924D01*
X334647Y88998D01*
X334537Y89072D01*
X334518Y89081D01*
X334481Y89100D01*
X334416Y89128D01*
X334333Y89155D01*
X334231Y89183D01*
X334111Y89211D01*
X333982Y89229D01*
X333852Y89238D01*
D02*
G37*
G36*
Y86012D02*
X333834D01*
X333778Y86003D01*
X333695Y85993D01*
X333584Y85975D01*
X333464Y85938D01*
X333344Y85892D01*
X333214Y85818D01*
X333103Y85725D01*
X333094Y85716D01*
X333057Y85670D01*
X333011Y85614D01*
X332956Y85531D01*
X332900Y85429D01*
X332854Y85309D01*
X332817Y85170D01*
X332808Y85022D01*
Y85013D01*
Y85004D01*
Y84949D01*
X332826Y84865D01*
X332845Y84764D01*
X332882Y84653D01*
X332937Y84532D01*
X333011Y84412D01*
X333113Y84292D01*
X333122Y84283D01*
X333168Y84246D01*
X333233Y84200D01*
X333316Y84144D01*
X333427Y84089D01*
X333547Y84042D01*
X333695Y84005D01*
X333852Y83996D01*
X333926D01*
X334010Y84015D01*
X334120Y84033D01*
X334241Y84070D01*
X334370Y84116D01*
X334490Y84190D01*
X334610Y84292D01*
X334620Y84301D01*
X334657Y84338D01*
X334703Y84403D01*
X334749Y84486D01*
X334805Y84588D01*
X334851Y84708D01*
X334888Y84838D01*
X334897Y84986D01*
Y84995D01*
Y85004D01*
X334888Y85059D01*
X334879Y85143D01*
X334860Y85244D01*
X334823Y85365D01*
X334777Y85485D01*
X334703Y85614D01*
X334610Y85725D01*
X334601Y85734D01*
X334555Y85771D01*
X334490Y85818D01*
X334407Y85864D01*
X334296Y85919D01*
X334167Y85965D01*
X334019Y86003D01*
X333852Y86012D01*
D02*
G37*
G36*
X355700Y89164D02*
X355653D01*
X355607Y89155D01*
X355542D01*
X355459Y89146D01*
X355367Y89128D01*
X355256Y89109D01*
X355145Y89081D01*
X355015Y89044D01*
X354895Y88998D01*
X354757Y88952D01*
X354627Y88887D01*
X354498Y88804D01*
X354368Y88721D01*
X354239Y88619D01*
X354119Y88499D01*
X354109Y88490D01*
X354091Y88471D01*
X354063Y88425D01*
X354017Y88369D01*
X353971Y88305D01*
X353924Y88221D01*
X353869Y88120D01*
X353804Y88009D01*
X353749Y87879D01*
X353693Y87731D01*
X353647Y87574D01*
X353592Y87408D01*
X353555Y87223D01*
X353527Y87020D01*
X353508Y86807D01*
X353499Y86585D01*
Y86576D01*
Y86548D01*
Y86511D01*
Y86455D01*
X353508Y86391D01*
Y86308D01*
X353518Y86224D01*
X353536Y86123D01*
X353564Y85910D01*
X353610Y85688D01*
X353675Y85448D01*
X353767Y85226D01*
Y85217D01*
X353777Y85198D01*
X353795Y85170D01*
X353814Y85133D01*
X353878Y85022D01*
X353961Y84893D01*
X354072Y84745D01*
X354211Y84597D01*
X354368Y84449D01*
X354544Y84320D01*
X354553D01*
X354562Y84301D01*
X354590Y84292D01*
X354636Y84264D01*
X354683Y84246D01*
X354738Y84218D01*
X354877Y84153D01*
X355043Y84098D01*
X355237Y84042D01*
X355459Y84005D01*
X355690Y83996D01*
X355774D01*
X355838Y84005D01*
X355922Y84015D01*
X356005Y84033D01*
X356106Y84052D01*
X356217Y84070D01*
X356458Y84144D01*
X356587Y84200D01*
X356717Y84255D01*
X356855Y84329D01*
X356985Y84412D01*
X357114Y84505D01*
X357234Y84616D01*
X357244Y84625D01*
X357262Y84643D01*
X357290Y84680D01*
X357336Y84736D01*
X357382Y84801D01*
X357438Y84884D01*
X357493Y84986D01*
X357558Y85106D01*
X357613Y85235D01*
X357678Y85392D01*
X357734Y85559D01*
X357780Y85744D01*
X357826Y85947D01*
X357854Y86178D01*
X357872Y86419D01*
X357882Y86677D01*
Y86687D01*
Y86724D01*
Y86788D01*
X357872Y86872D01*
X357863Y86964D01*
X357845Y87075D01*
X357826Y87204D01*
X357808Y87334D01*
X357734Y87630D01*
X357678Y87778D01*
X357623Y87935D01*
X357549Y88083D01*
X357466Y88231D01*
X357373Y88369D01*
X357262Y88499D01*
X357253Y88508D01*
X357234Y88526D01*
X357197Y88563D01*
X357151Y88601D01*
X357086Y88656D01*
X357012Y88711D01*
X356929Y88767D01*
X356837Y88832D01*
X356726Y88896D01*
X356606Y88952D01*
X356476Y89007D01*
X356338Y89063D01*
X356190Y89100D01*
X356042Y89137D01*
X355875Y89155D01*
X355700Y89164D01*
D02*
G37*
G36*
X312513Y78353D02*
X312457D01*
X312420Y78344D01*
X312309Y78334D01*
X312180Y78306D01*
X312032Y78260D01*
X311875Y78205D01*
X311727Y78112D01*
X311579Y77992D01*
X311560Y77974D01*
X311523Y77927D01*
X311459Y77844D01*
X311394Y77743D01*
X311329Y77613D01*
X311265Y77456D01*
X311228Y77271D01*
X311209Y77077D01*
Y77068D01*
Y77049D01*
Y77021D01*
X311218Y76984D01*
X311228Y76883D01*
X311255Y76744D01*
X311302Y76605D01*
X311366Y76448D01*
X311459Y76291D01*
X311588Y76143D01*
X311607Y76125D01*
X311653Y76088D01*
X311736Y76023D01*
X311847Y75949D01*
X311986Y75884D01*
X312152Y75820D01*
X312337Y75782D01*
X312540Y75764D01*
X312596D01*
X312633Y75773D01*
X312735Y75782D01*
X312864Y75810D01*
X313012Y75856D01*
X313160Y75921D01*
X313317Y76014D01*
X313456Y76134D01*
X313474Y76152D01*
X313511Y76199D01*
X313567Y76282D01*
X313631Y76383D01*
X313706Y76522D01*
X313761Y76679D01*
X313798Y76855D01*
X313816Y77049D01*
Y77068D01*
Y77105D01*
X313807Y77169D01*
X313798Y77252D01*
X313779Y77354D01*
X313752Y77465D01*
X313715Y77576D01*
X313668Y77696D01*
X313659Y77706D01*
X313641Y77752D01*
X313604Y77807D01*
X313548Y77872D01*
X313484Y77955D01*
X313400Y78038D01*
X313308Y78112D01*
X313197Y78186D01*
X313179Y78196D01*
X313141Y78214D01*
X313077Y78242D01*
X312994Y78270D01*
X312892Y78297D01*
X312772Y78325D01*
X312642Y78344D01*
X312513Y78353D01*
D02*
G37*
G36*
Y75126D02*
X312494D01*
X312439Y75117D01*
X312356Y75107D01*
X312245Y75089D01*
X312125Y75052D01*
X312004Y75006D01*
X311875Y74932D01*
X311764Y74839D01*
X311755Y74830D01*
X311718Y74784D01*
X311671Y74728D01*
X311616Y74645D01*
X311560Y74544D01*
X311514Y74423D01*
X311477Y74285D01*
X311468Y74137D01*
Y74127D01*
Y74118D01*
Y74063D01*
X311486Y73980D01*
X311505Y73878D01*
X311542Y73767D01*
X311597Y73647D01*
X311671Y73527D01*
X311773Y73406D01*
X311782Y73397D01*
X311829Y73360D01*
X311893Y73314D01*
X311977Y73258D01*
X312087Y73203D01*
X312208Y73157D01*
X312356Y73120D01*
X312513Y73110D01*
X312587D01*
X312670Y73129D01*
X312781Y73148D01*
X312901Y73184D01*
X313030Y73231D01*
X313151Y73305D01*
X313271Y73406D01*
X313280Y73416D01*
X313317Y73453D01*
X313363Y73517D01*
X313410Y73601D01*
X313465Y73702D01*
X313511Y73822D01*
X313548Y73952D01*
X313557Y74100D01*
Y74109D01*
Y74118D01*
X313548Y74174D01*
X313539Y74257D01*
X313521Y74359D01*
X313484Y74479D01*
X313437Y74599D01*
X313363Y74728D01*
X313271Y74839D01*
X313262Y74849D01*
X313216Y74886D01*
X313151Y74932D01*
X313067Y74978D01*
X312957Y75034D01*
X312827Y75080D01*
X312679Y75117D01*
X312513Y75126D01*
D02*
G37*
%LPD*%
D14*
X402250Y650D02*
Y23900D01*
X362500D02*
X402250D01*
X362500Y650D02*
Y23900D01*
Y650D02*
X402250D01*
D119*
X107500Y29000D02*
X107388Y31519D01*
X107055Y34018D01*
X106502Y36478D01*
X105733Y38879D01*
X104755Y41203D01*
X103576Y43432D01*
X102204Y45547D01*
X100651Y47533D01*
X98928Y49374D01*
X97050Y51056D01*
X95030Y52565D01*
X92884Y53889D01*
X90630Y55019D01*
X88285Y55945D01*
X85868Y56660D01*
X83396Y57159D01*
X80890Y57437D01*
X78369Y57493D01*
X75854Y57326D01*
X73363Y56937D01*
X70916Y56329D01*
X68532Y55508D01*
X66230Y54479D01*
X64028Y53251D01*
X61943Y51833D01*
X59992Y50236D01*
X58190Y48473D01*
X56550Y46557D01*
X55086Y44505D01*
X53810Y42330D01*
X52730Y40052D01*
X51856Y37687D01*
X51195Y35254D01*
X50751Y32772D01*
X50528Y30261D01*
Y27739D01*
X50751Y25228D01*
X51195Y22746D01*
X51856Y20313D01*
X52730Y17948D01*
X53810Y15670D01*
X55086Y13496D01*
X56550Y11443D01*
X58190Y9527D01*
X59992Y7764D01*
X61943Y6168D01*
X64028Y4749D01*
X66230Y3521D01*
X68532Y2492D01*
X70916Y1671D01*
X73363Y1063D01*
X75854Y674D01*
X78369Y507D01*
X80890Y563D01*
X83396Y841D01*
X85868Y1340D01*
X88285Y2055D01*
X90630Y2981D01*
X92884Y4111D01*
X95030Y5435D01*
X97050Y6944D01*
X98928Y8626D01*
X100651Y10467D01*
X102204Y12453D01*
X103576Y14568D01*
X104755Y16797D01*
X105733Y19121D01*
X106502Y21522D01*
X107055Y23982D01*
X107388Y26481D01*
X107500Y29000D01*
X349500Y271000D02*
X349388Y273519D01*
X349055Y276018D01*
X348502Y278478D01*
X347733Y280879D01*
X346755Y283203D01*
X345576Y285432D01*
X344204Y287547D01*
X342651Y289533D01*
X340928Y291374D01*
X339050Y293056D01*
X337030Y294565D01*
X334884Y295889D01*
X332630Y297019D01*
X330285Y297945D01*
X327868Y298660D01*
X325396Y299159D01*
X322890Y299437D01*
X320369Y299493D01*
X317854Y299326D01*
X315363Y298937D01*
X312916Y298329D01*
X310532Y297508D01*
X308230Y296479D01*
X306028Y295251D01*
X303944Y293833D01*
X301992Y292236D01*
X300190Y290473D01*
X298550Y288557D01*
X297086Y286505D01*
X295810Y284331D01*
X294730Y282052D01*
X293856Y279687D01*
X293195Y277254D01*
X292751Y274772D01*
X292528Y272261D01*
Y269739D01*
X292751Y267228D01*
X293195Y264746D01*
X293856Y262313D01*
X294730Y259948D01*
X295810Y257670D01*
X297086Y255495D01*
X298550Y253443D01*
X300190Y251527D01*
X301992Y249764D01*
X303944Y248167D01*
X306028Y246749D01*
X308230Y245521D01*
X310532Y244492D01*
X312916Y243671D01*
X315363Y243063D01*
X317854Y242674D01*
X320369Y242507D01*
X322890Y242563D01*
X325396Y242841D01*
X327868Y243340D01*
X330285Y244055D01*
X332630Y244981D01*
X334884Y246111D01*
X337030Y247435D01*
X339050Y248944D01*
X340928Y250626D01*
X342651Y252467D01*
X344204Y254453D01*
X345576Y256568D01*
X346755Y258797D01*
X347733Y261121D01*
X348502Y263522D01*
X349055Y265982D01*
X349388Y268481D01*
X349500Y271000D01*
X239000Y177000D02*
X238594Y179435D01*
X237418Y181607D01*
X235602Y183279D01*
X233341Y184270D01*
X230881Y184474D01*
X228487Y183868D01*
X226420Y182518D01*
X224904Y180570D01*
X224102Y178235D01*
Y175765D01*
X224904Y173430D01*
X226420Y171482D01*
X228487Y170132D01*
X230881Y169526D01*
X233341Y169729D01*
X235602Y170721D01*
X237418Y172393D01*
X238594Y174565D01*
X239000Y177000D01*
X80933Y184657D02*
X79628Y187427D01*
X76747Y188463D01*
X173186D02*
X170305Y187427D01*
X169000Y184657D01*
X214500Y232000D02*
X214094Y234435D01*
X212918Y236607D01*
X211102Y238279D01*
X208841Y239270D01*
X206381Y239474D01*
X203987Y238868D01*
X201920Y237518D01*
X200404Y235570D01*
X199602Y233235D01*
Y230765D01*
X200404Y228430D01*
X201920Y226482D01*
X203987Y225132D01*
X206381Y224526D01*
X208841Y224729D01*
X211102Y225721D01*
X212918Y227393D01*
X214094Y229565D01*
X214500Y232000D01*
X200500Y129500D02*
X200186Y131987D01*
X199263Y134318D01*
X197790Y136346D01*
X195858Y137943D01*
X193590Y139011D01*
X191128Y139480D01*
X188626Y139323D01*
X186242Y138548D01*
X184126Y137205D01*
X182410Y135378D01*
X181202Y133181D01*
X180579Y130753D01*
Y128247D01*
X181202Y125819D01*
X182410Y123622D01*
X184126Y121795D01*
X186242Y120452D01*
X188626Y119677D01*
X191128Y119520D01*
X193590Y119989D01*
X195858Y121057D01*
X197790Y122654D01*
X199263Y124683D01*
X200186Y127013D01*
X200500Y129500D01*
X133000Y254000D02*
X132686Y256487D01*
X131763Y258818D01*
X130290Y260846D01*
X128358Y262443D01*
X126090Y263511D01*
X123628Y263980D01*
X121126Y263823D01*
X118742Y263048D01*
X116626Y261705D01*
X114910Y259878D01*
X113702Y257681D01*
X113079Y255253D01*
Y252747D01*
X113702Y250319D01*
X114910Y248122D01*
X116626Y246295D01*
X118742Y244952D01*
X121126Y244177D01*
X123628Y244020D01*
X126090Y244489D01*
X128358Y245557D01*
X130290Y247155D01*
X131763Y249182D01*
X132686Y251513D01*
X133000Y254000D01*
X153500D02*
X153186Y256487D01*
X152263Y258818D01*
X150790Y260846D01*
X148858Y262443D01*
X146590Y263510D01*
X144128Y263980D01*
X141626Y263823D01*
X139242Y263048D01*
X137126Y261705D01*
X135410Y259878D01*
X134202Y257681D01*
X133579Y255253D01*
Y252747D01*
X134202Y250319D01*
X135410Y248122D01*
X137126Y246295D01*
X139242Y244952D01*
X141626Y244177D01*
X144128Y244020D01*
X146590Y244489D01*
X148858Y245557D01*
X150790Y247155D01*
X152263Y249182D01*
X153186Y251513D01*
X153500Y254000D01*
X200000Y153500D02*
X199686Y155987D01*
X198763Y158317D01*
X197290Y160345D01*
X195358Y161943D01*
X193090Y163011D01*
X190628Y163480D01*
X188126Y163323D01*
X185742Y162548D01*
X183626Y161205D01*
X181910Y159378D01*
X180702Y157181D01*
X180079Y154753D01*
Y152247D01*
X180702Y149819D01*
X181910Y147622D01*
X183626Y145795D01*
X185742Y144452D01*
X188126Y143677D01*
X190628Y143520D01*
X193090Y143989D01*
X195358Y145057D01*
X197290Y146655D01*
X198763Y148682D01*
X199686Y151013D01*
X200000Y153500D01*
X67500Y115500D02*
X67186Y117987D01*
X66263Y120317D01*
X64790Y122346D01*
X62858Y123943D01*
X60590Y125011D01*
X58128Y125480D01*
X55626Y125323D01*
X53242Y124548D01*
X51126Y123205D01*
X49410Y121378D01*
X48202Y119181D01*
X47579Y116753D01*
Y114247D01*
X48202Y111819D01*
X49410Y109622D01*
X51126Y107795D01*
X53242Y106452D01*
X55626Y105677D01*
X58128Y105520D01*
X60590Y105989D01*
X62858Y107057D01*
X64790Y108654D01*
X66263Y110682D01*
X67186Y113013D01*
X67500Y115500D01*
Y136500D02*
X67186Y138987D01*
X66263Y141318D01*
X64790Y143345D01*
X62858Y144943D01*
X60590Y146011D01*
X58128Y146480D01*
X55626Y146323D01*
X53242Y145548D01*
X51126Y144205D01*
X49410Y142378D01*
X48202Y140181D01*
X47579Y137753D01*
Y135247D01*
X48202Y132819D01*
X49410Y130622D01*
X51126Y128795D01*
X53242Y127452D01*
X55626Y126677D01*
X58128Y126520D01*
X60590Y126989D01*
X62858Y128057D01*
X64790Y129655D01*
X66263Y131683D01*
X67186Y134013D01*
X67500Y136500D01*
Y157500D02*
X67186Y159987D01*
X66263Y162318D01*
X64790Y164345D01*
X62858Y165943D01*
X60590Y167011D01*
X58128Y167480D01*
X55626Y167323D01*
X53242Y166548D01*
X51126Y165205D01*
X49410Y163378D01*
X48202Y161181D01*
X47579Y158753D01*
Y156247D01*
X48202Y153819D01*
X49410Y151622D01*
X51126Y149795D01*
X53242Y148452D01*
X55626Y147677D01*
X58128Y147520D01*
X60590Y147989D01*
X62858Y149057D01*
X64790Y150654D01*
X66263Y152682D01*
X67186Y155013D01*
X67500Y157500D01*
X294000Y279500D02*
X293686Y281987D01*
X292763Y284317D01*
X291290Y286346D01*
X289358Y287943D01*
X287090Y289011D01*
X284628Y289480D01*
X282126Y289323D01*
X279742Y288548D01*
X277626Y287205D01*
X275910Y285378D01*
X274702Y283181D01*
X274079Y280753D01*
Y278247D01*
X274702Y275819D01*
X275910Y273622D01*
X277626Y271795D01*
X279742Y270452D01*
X282126Y269677D01*
X284628Y269520D01*
X287090Y269989D01*
X289358Y271057D01*
X291290Y272654D01*
X292763Y274683D01*
X293686Y277013D01*
X294000Y279500D01*
X240000Y207000D02*
X239686Y209487D01*
X238763Y211817D01*
X237290Y213846D01*
X235358Y215443D01*
X233090Y216511D01*
X230628Y216980D01*
X228126Y216823D01*
X225742Y216048D01*
X223626Y214705D01*
X221910Y212878D01*
X220702Y210681D01*
X220079Y208253D01*
Y205747D01*
X220702Y203319D01*
X221910Y201122D01*
X223626Y199295D01*
X225742Y197952D01*
X228126Y197177D01*
X230628Y197020D01*
X233090Y197489D01*
X235358Y198557D01*
X237290Y200154D01*
X238763Y202183D01*
X239686Y204513D01*
X240000Y207000D01*
X239000Y232000D02*
X238594Y234435D01*
X237418Y236607D01*
X235602Y238279D01*
X233341Y239270D01*
X230881Y239474D01*
X228487Y238868D01*
X226420Y237518D01*
X224904Y235570D01*
X224102Y233235D01*
Y230765D01*
X224904Y228430D01*
X226420Y226482D01*
X228487Y225132D01*
X230881Y224526D01*
X233341Y224729D01*
X235602Y225721D01*
X237418Y227393D01*
X238594Y229565D01*
X239000Y232000D01*
X179500Y68000D02*
X179094Y70435D01*
X177919Y72607D01*
X176102Y74279D01*
X173841Y75271D01*
X171381Y75474D01*
X168987Y74868D01*
X166920Y73518D01*
X165404Y71570D01*
X164602Y69234D01*
Y66765D01*
X165404Y64430D01*
X166920Y62482D01*
X168987Y61132D01*
X171381Y60526D01*
X173841Y60729D01*
X176102Y61721D01*
X177919Y63393D01*
X179094Y65565D01*
X179500Y68000D01*
X269000Y269000D02*
X268686Y271487D01*
X267763Y273818D01*
X266290Y275846D01*
X264358Y277443D01*
X262090Y278511D01*
X259628Y278980D01*
X257126Y278823D01*
X254742Y278048D01*
X252626Y276705D01*
X250910Y274878D01*
X249702Y272681D01*
X249079Y270253D01*
Y267747D01*
X249702Y265319D01*
X250910Y263122D01*
X252626Y261295D01*
X254742Y259952D01*
X257126Y259177D01*
X259628Y259020D01*
X262090Y259489D01*
X264358Y260557D01*
X266290Y262155D01*
X267763Y264182D01*
X268686Y266513D01*
X269000Y269000D01*
X454250Y158750D02*
X453936Y161237D01*
X453013Y163568D01*
X451540Y165595D01*
X449608Y167193D01*
X447340Y168261D01*
X444878Y168730D01*
X442376Y168573D01*
X439992Y167798D01*
X437876Y166455D01*
X436160Y164628D01*
X434952Y162431D01*
X434329Y160003D01*
Y157497D01*
X434952Y155069D01*
X436160Y152872D01*
X437876Y151045D01*
X439992Y149702D01*
X442376Y148927D01*
X444878Y148770D01*
X447340Y149239D01*
X449608Y150307D01*
X451540Y151904D01*
X453013Y153933D01*
X453936Y156263D01*
X454250Y158750D01*
X439000Y24000D02*
X438686Y26487D01*
X437763Y28818D01*
X436290Y30845D01*
X434358Y32443D01*
X432090Y33511D01*
X429628Y33980D01*
X427126Y33823D01*
X424742Y33048D01*
X422626Y31705D01*
X420910Y29878D01*
X419702Y27681D01*
X419079Y25253D01*
Y22747D01*
X419702Y20319D01*
X420910Y18122D01*
X422626Y16295D01*
X424742Y14952D01*
X427126Y14177D01*
X429628Y14020D01*
X432090Y14489D01*
X434358Y15557D01*
X436290Y17155D01*
X437763Y19182D01*
X438686Y21513D01*
X439000Y24000D01*
X146231Y181902D02*
X145916Y184389D01*
X144994Y186719D01*
X143520Y188747D01*
X141589Y190345D01*
X139321Y191413D01*
X136859Y191882D01*
X134357Y191725D01*
X131973Y190950D01*
X129856Y189607D01*
X128140Y187780D01*
X126933Y185583D01*
X126309Y183155D01*
Y180649D01*
X126933Y178221D01*
X128140Y176024D01*
X129856Y174197D01*
X131973Y172854D01*
X134357Y172079D01*
X136859Y171922D01*
X139321Y172391D01*
X141589Y173459D01*
X143520Y175056D01*
X144994Y177084D01*
X145916Y179415D01*
X146231Y181902D01*
X272000Y111500D02*
X271686Y113987D01*
X270763Y116318D01*
X269290Y118345D01*
X267358Y119943D01*
X265090Y121011D01*
X262628Y121480D01*
X260126Y121323D01*
X257742Y120548D01*
X255626Y119205D01*
X253910Y117378D01*
X252702Y115181D01*
X252079Y112753D01*
Y110247D01*
X252702Y107819D01*
X253910Y105622D01*
X255626Y103795D01*
X257742Y102452D01*
X260126Y101677D01*
X262628Y101520D01*
X265090Y101989D01*
X267358Y103057D01*
X269290Y104655D01*
X270763Y106683D01*
X271686Y109013D01*
X272000Y111500D01*
Y138500D02*
X271686Y140987D01*
X270763Y143317D01*
X269290Y145345D01*
X267358Y146943D01*
X265090Y148011D01*
X262628Y148480D01*
X260126Y148323D01*
X257742Y147548D01*
X255626Y146205D01*
X253910Y144378D01*
X252702Y142181D01*
X252079Y139753D01*
Y137247D01*
X252702Y134819D01*
X253910Y132622D01*
X255626Y130795D01*
X257742Y129452D01*
X260126Y128677D01*
X262628Y128520D01*
X265090Y128989D01*
X267358Y130057D01*
X269290Y131655D01*
X270763Y133682D01*
X271686Y136013D01*
X272000Y138500D01*
X112500Y59500D02*
X112186Y61987D01*
X111263Y64317D01*
X109790Y66346D01*
X107858Y67943D01*
X105590Y69011D01*
X103128Y69480D01*
X100626Y69323D01*
X98242Y68548D01*
X96126Y67205D01*
X94410Y65378D01*
X93202Y63181D01*
X92579Y60753D01*
Y58247D01*
X93202Y55819D01*
X94410Y53622D01*
X96126Y51795D01*
X98242Y50452D01*
X100626Y49677D01*
X103128Y49520D01*
X105590Y49989D01*
X107858Y51057D01*
X109790Y52655D01*
X111263Y54682D01*
X112186Y57013D01*
X112500Y59500D01*
X296000Y62000D02*
X295686Y64487D01*
X294763Y66817D01*
X293290Y68846D01*
X291358Y70443D01*
X289090Y71511D01*
X286628Y71980D01*
X284126Y71823D01*
X281742Y71048D01*
X279626Y69705D01*
X277910Y67878D01*
X276702Y65681D01*
X276079Y63253D01*
Y60747D01*
X276702Y58319D01*
X277910Y56122D01*
X279626Y54295D01*
X281742Y52952D01*
X284126Y52177D01*
X286628Y52020D01*
X289090Y52489D01*
X291358Y53557D01*
X293290Y55155D01*
X294763Y57182D01*
X295686Y59513D01*
X296000Y62000D01*
X153500Y277500D02*
X153186Y279987D01*
X152263Y282318D01*
X150790Y284345D01*
X148858Y285943D01*
X146590Y287011D01*
X144128Y287480D01*
X141626Y287323D01*
X139242Y286548D01*
X137126Y285205D01*
X135410Y283378D01*
X134202Y281181D01*
X133579Y278753D01*
Y276247D01*
X134202Y273819D01*
X135410Y271622D01*
X137126Y269795D01*
X139242Y268452D01*
X141626Y267677D01*
X144128Y267520D01*
X146590Y267989D01*
X148858Y269057D01*
X150790Y270655D01*
X152263Y272682D01*
X153186Y275013D01*
X153500Y277500D01*
X365500Y258000D02*
X365186Y260487D01*
X364263Y262817D01*
X362790Y264846D01*
X360858Y266443D01*
X358590Y267511D01*
X356128Y267980D01*
X353626Y267823D01*
X351242Y267048D01*
X349126Y265705D01*
X347410Y263878D01*
X346202Y261681D01*
X345579Y259253D01*
Y256747D01*
X346202Y254319D01*
X347410Y252122D01*
X349126Y250295D01*
X351242Y248952D01*
X353626Y248177D01*
X356128Y248020D01*
X358590Y248489D01*
X360858Y249557D01*
X362790Y251154D01*
X364263Y253183D01*
X365186Y255513D01*
X365500Y258000D01*
X294000Y258000D02*
X293686Y260487D01*
X292763Y262817D01*
X291290Y264846D01*
X289358Y266443D01*
X287090Y267511D01*
X284628Y267980D01*
X282126Y267823D01*
X279742Y267048D01*
X277626Y265705D01*
X275910Y263878D01*
X274702Y261681D01*
X274079Y259253D01*
Y256747D01*
X274702Y254319D01*
X275910Y252122D01*
X277626Y250295D01*
X279742Y248952D01*
X282126Y248177D01*
X284628Y248020D01*
X287090Y248489D01*
X289358Y249557D01*
X291290Y251154D01*
X292763Y253183D01*
X293686Y255513D01*
X294000Y258000D01*
X373186Y188463D02*
X370305Y187427D01*
X369000Y184657D01*
X280933D02*
X279628Y187427D01*
X276747Y188463D01*
X-35000Y87500D02*
X10000D01*
Y14500D02*
Y87500D01*
X-35000Y14500D02*
X10000D01*
X-35000D02*
Y87500D01*
X436500Y192750D02*
X481500D01*
X436500D02*
Y265750D01*
X481500D01*
Y192750D02*
Y265750D01*
X436500Y118500D02*
X481500D01*
X436500D02*
Y191500D01*
X481500D01*
Y118500D02*
Y191500D01*
X9500Y164000D02*
Y180000D01*
X17500Y164000D02*
Y180000D01*
X9500Y164000D02*
X17500D01*
X9500Y180000D02*
X17500D01*
X13500Y169250D02*
Y174750D01*
X10750Y172000D02*
X16250D01*
X19000Y164000D02*
Y180000D01*
X27000Y164000D02*
Y180000D01*
X19000Y164000D02*
X27000D01*
X19000Y180000D02*
X27000D01*
X23000Y169250D02*
Y174750D01*
X20250Y172000D02*
X25750D01*
X28500Y164000D02*
Y180000D01*
X36500Y164000D02*
Y180000D01*
X28500Y164000D02*
X36500D01*
X28500Y180000D02*
X36500D01*
X32500Y169250D02*
Y174750D01*
X29750Y172000D02*
X35250D01*
X341117Y35836D02*
X346617D01*
X343867Y33086D02*
Y38586D01*
X339867Y43836D02*
X347867D01*
X339867Y27836D02*
X347867D01*
Y43836D01*
X339867Y27836D02*
Y43836D01*
X310367Y37836D02*
Y43336D01*
X307617Y40586D02*
X313117D01*
X318367Y36586D02*
Y44586D01*
X302367Y36586D02*
Y44586D01*
Y36586D02*
X318367D01*
X302367Y44586D02*
X318367D01*
X330367Y37836D02*
Y43336D01*
X327617Y40586D02*
X333117D01*
X338367Y36586D02*
Y44586D01*
X322367Y36586D02*
Y44586D01*
Y36586D02*
X338367D01*
X322367Y44586D02*
X338367D01*
X291250Y38000D02*
Y43500D01*
X288500Y40750D02*
X294000D01*
X299250Y36750D02*
Y44750D01*
X283250Y36750D02*
Y44750D01*
Y36750D02*
X299250D01*
X283250Y44750D02*
X299250D01*
X147950Y61300D02*
X157950D01*
X152950Y56300D02*
Y66300D01*
X145950Y55050D02*
X159950D01*
X145950Y67550D02*
X159950D01*
X145950Y55050D02*
Y67550D01*
X159950Y55050D02*
Y67550D01*
X220000Y114500D02*
X231000D01*
X220000Y91500D02*
X231000D01*
Y114500D01*
X220000Y91500D02*
Y114500D01*
X220750Y103000D02*
X230250D01*
X225500Y98250D02*
Y107750D01*
X180322Y72000D02*
Y202843D01*
X69678Y72000D02*
X180322D01*
X69678D02*
Y202843D01*
X73000Y188463D02*
Y202564D01*
Y188463D02*
X76747D01*
X80933Y82000D02*
Y184657D01*
X125000Y126000D02*
X134100D01*
X125000D02*
Y135100D01*
X115900Y126000D02*
X125000D01*
Y116900D02*
Y126000D01*
X124878Y215431D02*
Y224531D01*
X115778D02*
X124878D01*
Y233631D01*
Y224531D02*
X133978D01*
X66458Y202843D02*
X184128D01*
X66458D02*
Y241842D01*
X184128D01*
Y202843D02*
Y241842D01*
X81000Y82000D02*
X169000D01*
X176933Y188463D02*
Y202564D01*
X173186Y188463D02*
X176933D01*
X169000Y82000D02*
Y184657D01*
X225000Y145000D02*
Y155000D01*
X220000Y150000D02*
X230000D01*
X240000Y132500D02*
Y167500D01*
X210000Y132500D02*
X240000D01*
X210000D02*
Y167500D01*
X240000D01*
X190500Y204250D02*
Y213750D01*
X185750Y209000D02*
X195250D01*
X185000Y197500D02*
Y220500D01*
X196000Y197500D02*
Y220500D01*
X185000Y197500D02*
X196000D01*
X185000Y220500D02*
X196000D01*
X198500Y172500D02*
Y182500D01*
X193500Y177500D02*
X203500D01*
X181500Y187500D02*
X215500D01*
X181500Y167500D02*
X215500D01*
X181500D02*
Y187500D01*
X215500Y167500D02*
Y187500D01*
X450300Y266550D02*
Y297450D01*
X341700D02*
X450300D01*
X341700Y266550D02*
Y297450D01*
Y266550D02*
X450300D01*
X396000Y277000D02*
Y287000D01*
X391000Y282000D02*
X401000D01*
X175000Y73000D02*
X275000D01*
Y-12000D02*
Y73000D01*
X175000Y-12000D02*
X275000D01*
X175000D02*
Y73000D01*
X225000Y58000D02*
X232500D01*
X217500D02*
X225000D01*
Y65500D01*
Y50500D02*
Y58000D01*
X301000Y14350D02*
X320000D01*
X301000D02*
Y35650D01*
X320000D01*
Y14350D02*
Y35650D01*
X305500Y25000D02*
X315500D01*
X310500Y20000D02*
Y30000D01*
X204000Y206500D02*
Y216500D01*
X199000Y211500D02*
X209000D01*
X196500Y197500D02*
Y225500D01*
X211500Y197500D02*
Y225500D01*
X196500Y197500D02*
X211500D01*
X196500Y225500D02*
X211500D01*
X231500Y92000D02*
X253500D01*
Y114000D01*
X231500D02*
X253500D01*
X231500Y92000D02*
Y114000D01*
X242500Y95002D02*
Y103000D01*
X234500D02*
X242500D01*
X250498D01*
X242500D02*
Y111000D01*
X119500Y27500D02*
Y37500D01*
X114500Y32500D02*
X124500D01*
X110000Y13000D02*
Y52000D01*
X129000Y13000D02*
Y52000D01*
X110000Y13000D02*
X129000D01*
X110000Y52000D02*
X129000D01*
X143500Y35000D02*
X173500D01*
X143500Y20000D02*
X173500D01*
X143500D02*
Y35000D01*
X173500Y20000D02*
Y35000D01*
X153750Y27500D02*
X163250D01*
X158500Y22750D02*
Y32250D01*
X190500Y124500D02*
Y134500D01*
X185500Y129500D02*
X195500D01*
X118000Y254000D02*
X128000D01*
X123000Y249000D02*
Y259000D01*
X138500Y254000D02*
X148500D01*
X143500Y249000D02*
Y259000D01*
X185000Y153500D02*
X195000D01*
X190000Y148500D02*
Y158500D01*
X52500Y115500D02*
X62500D01*
X57500Y110500D02*
Y120500D01*
X52500Y136500D02*
X62500D01*
X57500Y131500D02*
Y141500D01*
Y152500D02*
Y162500D01*
X52500Y157500D02*
X62500D01*
X279000Y279500D02*
X289000D01*
X284000Y274500D02*
Y284500D01*
X230000Y202000D02*
Y212000D01*
X225000Y207000D02*
X235000D01*
X254000Y269000D02*
X264000D01*
X259000Y264000D02*
Y274000D01*
X444250Y153750D02*
Y163750D01*
X439250Y158750D02*
X449250D01*
X429000Y19000D02*
Y29000D01*
X424000Y24000D02*
X434000D01*
X136231Y176902D02*
Y186902D01*
X131231Y181902D02*
X141231D01*
X202300Y136900D02*
X208300D01*
X205300Y133900D02*
Y139900D01*
X201300Y144900D02*
X209300D01*
X201300Y128900D02*
X209300D01*
Y144900D01*
X201300Y128900D02*
Y144900D01*
X202300Y153500D02*
X208300D01*
X205300Y150500D02*
Y156500D01*
X201300Y145500D02*
X209300D01*
X201300Y161500D02*
X209300D01*
X201300Y145500D02*
Y161500D01*
X209300Y145500D02*
Y161500D01*
X330000Y20000D02*
Y30000D01*
X325000Y25000D02*
X335000D01*
X339500Y14350D02*
Y35650D01*
X320500D02*
X339500D01*
X320500Y14350D02*
Y35650D01*
Y14350D02*
X339500D01*
X291000Y20000D02*
Y30000D01*
X286000Y25000D02*
X296000D01*
X300500Y14350D02*
Y35650D01*
X281500D02*
X300500D01*
X281500Y14350D02*
Y35650D01*
Y14350D02*
X300500D01*
X145500Y54000D02*
Y70000D01*
X137500Y54000D02*
Y70000D01*
X145500D01*
X137500Y54000D02*
X145500D01*
X141500Y59000D02*
Y65000D01*
X138500Y62000D02*
X144500D01*
X158500Y38250D02*
Y47750D01*
X153750Y43000D02*
X163250D01*
X173500Y35500D02*
Y50500D01*
X143500Y35500D02*
Y50500D01*
Y35500D02*
X173500D01*
X143500Y50500D02*
X173500D01*
X214250Y123000D02*
X219750D01*
X217000Y120250D02*
Y125750D01*
X213000Y115000D02*
X221000D01*
X213000Y131000D02*
X221000D01*
X213000Y115000D02*
Y131000D01*
X221000Y115000D02*
Y131000D01*
X252250Y124000D02*
X257750D01*
X255000Y121250D02*
Y126750D01*
X251000Y116000D02*
X259000D01*
X251000Y132000D02*
X259000D01*
X251000Y116000D02*
Y132000D01*
X259000Y116000D02*
Y132000D01*
X262000Y95250D02*
Y100750D01*
X259250Y98000D02*
X264750D01*
X270000Y94000D02*
Y102000D01*
X254000Y94000D02*
Y102000D01*
Y94000D02*
X270000D01*
X254000Y102000D02*
X270000D01*
X225750Y124000D02*
X231250D01*
X228500Y121250D02*
Y126750D01*
X224500Y116000D02*
X232500D01*
X224500Y132000D02*
X232500D01*
X224500Y116000D02*
Y132000D01*
X232500Y116000D02*
Y132000D01*
X262000Y86750D02*
Y92250D01*
X259250Y89500D02*
X264750D01*
X270000Y85500D02*
Y93500D01*
X254000Y85500D02*
Y93500D01*
Y85500D02*
X270000D01*
X254000Y93500D02*
X270000D01*
X254000Y85000D02*
X270000D01*
X254000Y77000D02*
X270000D01*
X254000D02*
Y85000D01*
X270000Y77000D02*
Y85000D01*
X259000Y81000D02*
X265000D01*
X262000Y78000D02*
Y84000D01*
X243250Y124000D02*
X248750D01*
X246000Y121250D02*
Y126750D01*
X242000Y116000D02*
X250000D01*
X242000Y132000D02*
X250000D01*
X242000Y116000D02*
Y132000D01*
X250000Y116000D02*
Y132000D01*
X234250Y124000D02*
X239750D01*
X237000Y121250D02*
Y126750D01*
X233000Y116000D02*
X241000D01*
X233000Y132000D02*
X241000D01*
X233000Y116000D02*
Y132000D01*
X241000Y116000D02*
Y132000D01*
X262000Y106500D02*
Y116500D01*
X257000Y111500D02*
X267000D01*
X262000Y133500D02*
Y143500D01*
X257000Y138500D02*
X267000D01*
X52000Y186000D02*
X62000D01*
X57000Y181000D02*
Y191000D01*
X67000Y169000D02*
Y203000D01*
X47000Y169000D02*
Y203000D01*
X67000D01*
X47000Y169000D02*
X67000D01*
X167000Y245750D02*
Y251250D01*
X164250Y248500D02*
X169750D01*
X175000Y244500D02*
Y252500D01*
X159000Y244500D02*
Y252500D01*
Y244500D02*
X175000D01*
X159000Y252500D02*
X175000D01*
X89000Y245250D02*
Y250750D01*
X86250Y248000D02*
X91750D01*
X97000Y244000D02*
Y252000D01*
X81000Y244000D02*
Y252000D01*
Y244000D02*
X97000D01*
X81000Y252000D02*
X97000D01*
X103500Y190250D02*
Y195750D01*
X100750Y193000D02*
X106250D01*
X95500Y189000D02*
Y197000D01*
X111500Y189000D02*
Y197000D01*
X95500D02*
X111500D01*
X95500Y189000D02*
X111500D01*
X173000Y189000D02*
X189000D01*
X173000Y197000D02*
X189000D01*
Y189000D02*
Y197000D01*
X173000Y189000D02*
Y197000D01*
X178000Y193000D02*
X184000D01*
X181000Y190000D02*
Y196000D01*
X54500Y227500D02*
X65500D01*
X54500Y204500D02*
X65500D01*
Y227500D01*
X54500Y204500D02*
Y227500D01*
X55250Y216000D02*
X64750D01*
X60000Y211250D02*
Y220750D01*
X73000Y197000D02*
X89000D01*
X73000Y189000D02*
X89000D01*
X73000D02*
Y197000D01*
X89000Y189000D02*
Y197000D01*
X78000Y193000D02*
X84000D01*
X81000Y190000D02*
Y196000D01*
X156500Y197000D02*
X172500D01*
X156500Y189000D02*
X172500D01*
X156500D02*
Y197000D01*
X172500Y189000D02*
Y197000D01*
X161500Y193000D02*
X167500D01*
X164500Y190000D02*
Y196000D01*
X97500Y59500D02*
X107500D01*
X102500Y54500D02*
Y64500D01*
X281000Y62000D02*
X291000D01*
X286000Y57000D02*
Y67000D01*
X53500Y65500D02*
X64500D01*
X53500Y88500D02*
X64500D01*
X53500Y65500D02*
Y88500D01*
X64500Y65500D02*
Y88500D01*
X54250Y77000D02*
X63750D01*
X59000Y72250D02*
Y81750D01*
X41500Y65500D02*
X52500D01*
X41500Y88500D02*
X52500D01*
X41500Y65500D02*
Y88500D01*
X52500Y65500D02*
Y88500D01*
X42250Y77000D02*
X51750D01*
X47000Y72250D02*
Y81750D01*
X160500Y54000D02*
Y70000D01*
X168500Y54000D02*
Y70000D01*
X160500Y54000D02*
X168500D01*
X160500Y70000D02*
X168500D01*
X164500Y59000D02*
Y65000D01*
X161500Y62000D02*
X167500D01*
X143500Y272500D02*
Y282500D01*
X138500Y277500D02*
X148500D01*
X397000Y251000D02*
X412000D01*
X397000Y223000D02*
X412000D01*
Y251000D01*
X397000Y223000D02*
Y251000D01*
X399500Y237000D02*
X409500D01*
X404500Y232000D02*
Y242000D01*
X250500Y220000D02*
X260500D01*
X255500Y215000D02*
Y225000D01*
X245500Y203000D02*
Y237000D01*
X265500Y203000D02*
Y237000D01*
X245500Y203000D02*
X265500D01*
X245500Y237000D02*
X265500D01*
X387500Y183500D02*
X397500D01*
X392500Y178500D02*
Y188500D01*
X402500Y166500D02*
Y200500D01*
X382500Y166500D02*
Y200500D01*
X402500D01*
X382500Y166500D02*
X402500D01*
X373000Y243750D02*
Y249250D01*
X370250Y246500D02*
X375750D01*
X381000Y242500D02*
Y250500D01*
X365000Y242500D02*
Y250500D01*
Y242500D02*
X381000D01*
X365000Y250500D02*
X381000D01*
X269500Y244750D02*
Y250250D01*
X266750Y247500D02*
X272250D01*
X277500Y243500D02*
Y251500D01*
X261500Y243500D02*
Y251500D01*
Y243500D02*
X277500D01*
X261500Y251500D02*
X277500D01*
X350500Y258000D02*
X360500D01*
X355500Y253000D02*
Y263000D01*
X304781Y190750D02*
Y196250D01*
X302031Y193500D02*
X307531D01*
X296781Y189500D02*
Y197500D01*
X312781Y189500D02*
Y197500D01*
X296781D02*
X312781D01*
X296781Y189500D02*
X312781D01*
X279000Y258000D02*
X289000D01*
X284000Y253000D02*
Y263000D01*
X385000Y234000D02*
X396000D01*
X385000Y211000D02*
X396000D01*
Y234000D01*
X385000Y211000D02*
Y234000D01*
X385750Y222500D02*
X395250D01*
X390500Y217750D02*
Y227250D01*
X420000Y211000D02*
Y222000D01*
X397000Y211000D02*
Y222000D01*
Y211000D02*
X420000D01*
X397000Y222000D02*
X420000D01*
X408500Y211750D02*
Y221250D01*
X403750Y216500D02*
X413250D01*
X385000Y210500D02*
X401000D01*
X385000Y202500D02*
X401000D01*
X385000D02*
Y210500D01*
X401000Y202500D02*
Y210500D01*
X390000Y206500D02*
X396000D01*
X393000Y203500D02*
Y209500D01*
X246000Y191000D02*
Y202000D01*
X269000Y191000D02*
Y202000D01*
X246000D02*
X269000D01*
X246000Y191000D02*
X269000D01*
X257500Y191750D02*
Y201250D01*
X252750Y196500D02*
X262250D01*
X272900Y197500D02*
X288900D01*
X272900Y189500D02*
X288900D01*
X272900D02*
Y197500D01*
X288900Y189500D02*
Y197500D01*
X277900Y193500D02*
X283900D01*
X280900Y190500D02*
Y196500D01*
X356500Y197500D02*
X372500D01*
X356500Y189500D02*
X372500D01*
X356500D02*
Y197500D01*
X372500Y189500D02*
Y197500D01*
X361500Y193500D02*
X367500D01*
X364500Y190500D02*
Y196500D01*
X37500Y106250D02*
Y111750D01*
X34750Y109000D02*
X40250D01*
X29500Y105000D02*
Y113000D01*
X45500Y105000D02*
Y113000D01*
X29500D02*
X45500D01*
X29500Y105000D02*
X45500D01*
X37500Y116250D02*
Y121750D01*
X34750Y119000D02*
X40250D01*
X29500Y115000D02*
Y123000D01*
X45500Y115000D02*
Y123000D01*
X29500D02*
X45500D01*
X29500Y115000D02*
X45500D01*
X37500Y125750D02*
Y131250D01*
X34750Y128500D02*
X40250D01*
X29500Y124500D02*
Y132500D01*
X45500Y124500D02*
Y132500D01*
X29500D02*
X45500D01*
X29500Y124500D02*
X45500D01*
X37500Y135250D02*
Y140750D01*
X34750Y138000D02*
X40250D01*
X29500Y134000D02*
Y142000D01*
X45500Y134000D02*
Y142000D01*
X29500D02*
X45500D01*
X29500Y134000D02*
X45500D01*
X37500Y144750D02*
Y150250D01*
X34750Y147500D02*
X40250D01*
X29500Y143500D02*
Y151500D01*
X45500Y143500D02*
Y151500D01*
X29500D02*
X45500D01*
X29500Y143500D02*
X45500D01*
X37500Y154250D02*
Y159750D01*
X34750Y157000D02*
X40250D01*
X29500Y153000D02*
Y161000D01*
X45500Y153000D02*
Y161000D01*
X29500D02*
X45500D01*
X29500Y153000D02*
X45500D01*
X13500Y106750D02*
Y112250D01*
X10750Y109500D02*
X16250D01*
X5500Y105500D02*
Y113500D01*
X21500Y105500D02*
Y113500D01*
X5500D02*
X21500D01*
X5500Y105500D02*
X21500D01*
X13500Y116250D02*
Y121750D01*
X10750Y119000D02*
X16250D01*
X5500Y115000D02*
Y123000D01*
X21500Y115000D02*
Y123000D01*
X5500D02*
X21500D01*
X5500Y115000D02*
X21500D01*
X13500Y125750D02*
Y131250D01*
X10750Y128500D02*
X16250D01*
X5500Y124500D02*
Y132500D01*
X21500Y124500D02*
Y132500D01*
X5500D02*
X21500D01*
X5500Y124500D02*
X21500D01*
X13500Y135250D02*
Y140750D01*
X10750Y138000D02*
X16250D01*
X5500Y134000D02*
Y142000D01*
X21500Y134000D02*
Y142000D01*
X5500D02*
X21500D01*
X5500Y134000D02*
X21500D01*
X13500Y144750D02*
Y150250D01*
X10750Y147500D02*
X16250D01*
X5500Y143500D02*
Y151500D01*
X21500Y143500D02*
Y151500D01*
X5500D02*
X21500D01*
X5500Y143500D02*
X21500D01*
X13500Y154250D02*
Y159750D01*
X10750Y157000D02*
X16250D01*
X5500Y153000D02*
Y161000D01*
X21500Y153000D02*
Y161000D01*
X5500D02*
X21500D01*
X5500Y153000D02*
X21500D01*
X310750Y6790D02*
Y12290D01*
X308000Y9540D02*
X313500D01*
X302750Y5540D02*
Y13540D01*
X318750Y5540D02*
Y13540D01*
X302750D02*
X318750D01*
X302750Y5540D02*
X318750D01*
X329250Y6790D02*
Y12290D01*
X326500Y9540D02*
X332000D01*
X321250Y5540D02*
Y13540D01*
X337250Y5540D02*
Y13540D01*
X321250D02*
X337250D01*
X321250Y5540D02*
X337250D01*
X291250Y6790D02*
Y12290D01*
X288500Y9540D02*
X294000D01*
X283250Y5540D02*
Y13540D01*
X299250Y5540D02*
Y13540D01*
X283250D02*
X299250D01*
X283250Y5540D02*
X299250D01*
X369000Y82000D02*
Y184657D01*
X373186Y188463D02*
X376933D01*
Y202564D01*
X281000Y82000D02*
X369000D01*
X384128Y202843D02*
Y241842D01*
X266458D02*
X384128D01*
X266458Y202843D02*
Y241842D01*
Y202843D02*
X384128D01*
X324878Y224531D02*
X333978D01*
X324878D02*
Y233631D01*
X315778Y224531D02*
X324878D01*
Y215431D02*
Y224531D01*
X325000Y116900D02*
Y126000D01*
X315900D02*
X325000D01*
Y135100D01*
Y126000D02*
X334100D01*
X280933Y82000D02*
Y184657D01*
X273000Y188463D02*
X276747D01*
X273000D02*
Y202564D01*
X269678Y72000D02*
Y202843D01*
Y72000D02*
X380322D01*
Y202843D01*
M02*
