G04*
G04 #@! TF.GenerationSoftware,Altium Limited,Altium Designer,21.2.2 (38)*
G04*
G04 Layer_Physical_Order=2*
G04 Layer_Color=36540*
%FSLAX44Y44*%
%MOMM*%
G71*
G04*
G04 #@! TF.SameCoordinates,D456B635-538E-4451-A7FB-46C12EC00BC4*
G04*
G04*
G04 #@! TF.FilePolarity,Positive*
G04*
G01*
G75*
%ADD18C,0.2540*%
%ADD122C,0.5080*%
%ADD148C,1.6000*%
%ADD150O,1.0000X0.7000*%
G04:AMPARAMS|DCode=151|XSize=1.6mm|YSize=0.9mm|CornerRadius=0mm|HoleSize=0mm|Usage=FLASHONLY|Rotation=135.000|XOffset=0mm|YOffset=0mm|HoleType=Round|Shape=Round|*
%AMOVALD151*
21,1,0.7000,0.9000,0.0000,0.0000,135.0*
1,1,0.9000,0.2475,-0.2475*
1,1,0.9000,-0.2475,0.2475*
%
%ADD151OVALD151*%

G04:AMPARAMS|DCode=152|XSize=1.6mm|YSize=0.9mm|CornerRadius=0mm|HoleSize=0mm|Usage=FLASHONLY|Rotation=225.000|XOffset=0mm|YOffset=0mm|HoleType=Round|Shape=Round|*
%AMOVALD152*
21,1,0.7000,0.9000,0.0000,0.0000,225.0*
1,1,0.9000,0.2475,0.2475*
1,1,0.9000,-0.2475,-0.2475*
%
%ADD152OVALD152*%

%ADD154C,2.4000*%
%ADD160C,0.4064*%
%ADD161C,2.7000*%
%ADD162C,3.0000*%
G36*
X1002660Y467340D02*
X1005898Y464102D01*
X1005748Y463821D01*
X1005216Y462988D01*
X1002835Y462515D01*
X1000735Y461111D01*
X999332Y459011D01*
X998839Y456533D01*
X999332Y454056D01*
X1000735Y451955D01*
X1002835Y450552D01*
X1005313Y450059D01*
X1007791Y450552D01*
X1009891Y451955D01*
X1011295Y454056D01*
X1011768Y456436D01*
X1012601Y456968D01*
X1012882Y457118D01*
X1043672Y426328D01*
X1054363Y415637D01*
X1054238Y414374D01*
X1053422Y413828D01*
X1053173Y413455D01*
X1051903D01*
X1051583Y413934D01*
X1049483Y415337D01*
X1047005Y415830D01*
X1044528Y415337D01*
X1042427Y413934D01*
X1041023Y411833D01*
X1040531Y409356D01*
X1041023Y406878D01*
X1042427Y404778D01*
X1044528Y403374D01*
X1047005Y402881D01*
X1049483Y403374D01*
X1051583Y404778D01*
X1051832Y405150D01*
X1053102D01*
X1053422Y404672D01*
X1055522Y403268D01*
X1056732Y403028D01*
Y401733D01*
X1055454Y401479D01*
X1053354Y400075D01*
X1051950Y397975D01*
X1051457Y395497D01*
X1051950Y393019D01*
X1053354Y390919D01*
X1055454Y389515D01*
X1056800Y389248D01*
X1057130Y387590D01*
X1057280Y387366D01*
X1056018Y385478D01*
X1055526Y383001D01*
X1056018Y380523D01*
X1057422Y378423D01*
X1059522Y377019D01*
X1062000Y376526D01*
X1064478Y377019D01*
X1066578Y378423D01*
X1067982Y380523D01*
X1068474Y383001D01*
X1067982Y385478D01*
X1067832Y385703D01*
X1068980Y387421D01*
X1069652Y387406D01*
X1070250Y387210D01*
Y372977D01*
X1069130Y372379D01*
X1068228Y372982D01*
X1065750Y373474D01*
X1063272Y372982D01*
X1061172Y371578D01*
X1059768Y369478D01*
X1059276Y367000D01*
X1059768Y364522D01*
X1061172Y362422D01*
X1063272Y361018D01*
X1065750Y360526D01*
X1068228Y361018D01*
X1069130Y361621D01*
X1070250Y361023D01*
Y357794D01*
X1069206Y357123D01*
X1068980Y357146D01*
X1066552Y357629D01*
X1064074Y357136D01*
X1061974Y355733D01*
X1060570Y353633D01*
X1060078Y351155D01*
X1060570Y348677D01*
X1061974Y346577D01*
X1063445Y345594D01*
X1063304Y344271D01*
X1061203Y342868D01*
X1059800Y340767D01*
X1059307Y338289D01*
X1059800Y335812D01*
X1061203Y333711D01*
X1063304Y332308D01*
X1065781Y331815D01*
X1068259Y332308D01*
X1069130Y332890D01*
X1070250Y332291D01*
Y324500D01*
X1045148D01*
X1044442Y325556D01*
X1045006Y326917D01*
X1045412Y330000D01*
X1045006Y333083D01*
X1043816Y335956D01*
X1041923Y338423D01*
X1039456Y340316D01*
X1037930Y340948D01*
X1037696Y342420D01*
X1038838Y344129D01*
X1039331Y346607D01*
X1038838Y349084D01*
X1038171Y350082D01*
X1038657Y351256D01*
X1039978Y351518D01*
X1042078Y352922D01*
X1043482Y355022D01*
X1043974Y357500D01*
X1043919Y357779D01*
X1044817Y358676D01*
X1045137Y358613D01*
X1047615Y359106D01*
X1049716Y360509D01*
X1051119Y362610D01*
X1051612Y365087D01*
X1051119Y367565D01*
X1049716Y369665D01*
X1047615Y371069D01*
X1045137Y371562D01*
X1042660Y371069D01*
X1040559Y369665D01*
X1039156Y367565D01*
X1038663Y365087D01*
X1038718Y364809D01*
X1037820Y363911D01*
X1037500Y363974D01*
X1035022Y363482D01*
X1032922Y362078D01*
X1031518Y359978D01*
X1031026Y357500D01*
X1031518Y355022D01*
X1032185Y354024D01*
X1031699Y352851D01*
X1030379Y352588D01*
X1028279Y351185D01*
X1026875Y349084D01*
X1026382Y346607D01*
X1026875Y344129D01*
X1028279Y342029D01*
X1028459Y341908D01*
X1028335Y340644D01*
X1027544Y340316D01*
X1025077Y338423D01*
X1023184Y335956D01*
X1021994Y333083D01*
X1021588Y330000D01*
X1021994Y326917D01*
X1022558Y325556D01*
X1021852Y324500D01*
X1019005D01*
X1018156Y325770D01*
X1018769Y327248D01*
X1018964Y328730D01*
X1008500D01*
Y330000D01*
D01*
Y328730D01*
X998036D01*
X998231Y327248D01*
X998844Y325770D01*
X997995Y324500D01*
X899750Y324500D01*
X880500Y305250D01*
X832061D01*
X831748Y379949D01*
X833578Y381172D01*
X834982Y383272D01*
X835474Y385750D01*
X834982Y388228D01*
X833578Y390328D01*
X831699Y391583D01*
X831653Y402719D01*
X833078Y403672D01*
X834482Y405772D01*
X834974Y408250D01*
X834482Y410728D01*
X833078Y412828D01*
X831606Y413811D01*
X831580Y420088D01*
X832828Y420922D01*
X834232Y423022D01*
X834724Y425500D01*
X834232Y427978D01*
X832828Y430078D01*
X831535Y430942D01*
X831502Y438674D01*
X831978Y438768D01*
X834078Y440172D01*
X835482Y442272D01*
X835974Y444750D01*
X835482Y447228D01*
X834078Y449328D01*
X831978Y450732D01*
X831451Y450836D01*
X831426Y456735D01*
X832828Y457672D01*
X834232Y459772D01*
X834724Y462250D01*
X834556Y463097D01*
X835699Y463861D01*
X835836Y463769D01*
X838313Y463276D01*
X840791Y463769D01*
X842891Y465173D01*
X844295Y467273D01*
X844788Y469751D01*
X844295Y472228D01*
X843190Y473883D01*
X844105Y474798D01*
X845272Y474018D01*
X847750Y473526D01*
X850228Y474018D01*
X851506Y474873D01*
X852422Y473957D01*
X852268Y473728D01*
X851776Y471250D01*
X852268Y468772D01*
X853672Y466672D01*
X855772Y465268D01*
X858250Y464776D01*
X860728Y465268D01*
X862828Y466672D01*
X864232Y468772D01*
X864724Y471250D01*
X864232Y473728D01*
X864178Y473807D01*
X865094Y474723D01*
X866522Y473768D01*
X869000Y473276D01*
X871478Y473768D01*
X872154Y474221D01*
X873070Y473305D01*
X873018Y473228D01*
X872526Y470750D01*
X873018Y468272D01*
X874422Y466172D01*
X876522Y464768D01*
X879000Y464276D01*
X881478Y464768D01*
X883578Y466172D01*
X884982Y468272D01*
X885474Y470750D01*
X885178Y472242D01*
X886258Y473322D01*
X887750Y473026D01*
X890228Y473518D01*
X892328Y474922D01*
X893732Y477022D01*
X894224Y479500D01*
X893732Y481978D01*
X893463Y482380D01*
X894062Y483500D01*
X902273D01*
X902871Y482380D01*
X902268Y481478D01*
X901776Y479000D01*
X902268Y476522D01*
X903672Y474422D01*
X905772Y473018D01*
X908250Y472526D01*
X910728Y473018D01*
X911507Y473539D01*
X912918Y472955D01*
X913240Y471337D01*
X914643Y469236D01*
X916744Y467833D01*
X919221Y467340D01*
X921699Y467833D01*
X923799Y469236D01*
X925203Y471337D01*
X925696Y473814D01*
X925539Y474600D01*
X925649Y474702D01*
X926709Y475230D01*
X928522Y474018D01*
X931000Y473526D01*
X933119Y473947D01*
X933998Y473418D01*
X934315Y473051D01*
X934768Y470772D01*
X936172Y468672D01*
X938272Y467268D01*
X940750Y466776D01*
X943228Y467268D01*
X945328Y468672D01*
X946732Y470772D01*
X947116Y472703D01*
X947508Y473340D01*
X948443Y473635D01*
X948782Y473568D01*
X949305Y472169D01*
X948433Y469295D01*
X948109Y466000D01*
X948433Y462705D01*
X949394Y459536D01*
X950955Y456616D01*
X953056Y454056D01*
X955616Y451955D01*
X958536Y450395D01*
X961705Y449433D01*
X965000Y449109D01*
X968295Y449433D01*
X971464Y450395D01*
X974384Y451955D01*
X976944Y454056D01*
X978341Y455759D01*
X979704Y455418D01*
X979896Y454454D01*
X981299Y452353D01*
X983400Y450950D01*
X985878Y450457D01*
X988355Y450950D01*
X990456Y452353D01*
X991859Y454454D01*
X992352Y456931D01*
X991859Y459409D01*
X990456Y461510D01*
X988355Y462913D01*
X985878Y463406D01*
X983400Y462913D01*
X982791Y462506D01*
X981621Y463252D01*
X981891Y466000D01*
X981567Y469295D01*
X980606Y472464D01*
X979045Y475384D01*
X976944Y477944D01*
X974384Y480045D01*
X971464Y481606D01*
X969406Y482230D01*
X969594Y483500D01*
X986500D01*
X1002660Y467340D01*
D02*
G37*
G36*
X800000Y312013D02*
X816750D01*
Y284250D01*
X880750D01*
X895141Y298912D01*
X896329Y299149D01*
X898009Y300271D01*
X899132Y301952D01*
X899388Y303239D01*
X908000Y312013D01*
X908000D01*
X908000Y312013D01*
X908000Y312013D01*
X1076115Y312013D01*
Y25000D01*
Y22920D01*
X1075304Y18841D01*
X1073712Y14998D01*
X1071401Y11539D01*
X1068460Y8598D01*
X1065002Y6288D01*
X1061159Y4696D01*
X1057080Y3884D01*
X1055000D01*
X829856Y3884D01*
X829856Y3884D01*
X829856Y3884D01*
X829364Y3884D01*
X828401Y4076D01*
X827493Y4452D01*
X826676Y4998D01*
X825982Y5692D01*
X825436Y6510D01*
X825060Y7417D01*
X824868Y8381D01*
Y18621D01*
X824849Y18716D01*
X824864Y18811D01*
X824821Y19681D01*
X824751Y19960D01*
Y20248D01*
X824412Y21954D01*
X824265Y22308D01*
X824191Y22683D01*
X823525Y24290D01*
X823313Y24608D01*
X823166Y24961D01*
X822200Y26407D01*
X821929Y26678D01*
X821717Y26996D01*
X820487Y28226D01*
X820169Y28438D01*
X819898Y28709D01*
X818452Y29675D01*
X818099Y29822D01*
X817781Y30034D01*
X816174Y30700D01*
X815798Y30774D01*
X815445Y30921D01*
X813739Y31260D01*
X813451D01*
X813172Y31330D01*
X812302Y31373D01*
X812207Y31358D01*
X812112Y31377D01*
X649576D01*
X649481Y31358D01*
X649385Y31373D01*
X648515Y31330D01*
X648236Y31260D01*
X647948D01*
X646242Y30921D01*
X645889Y30774D01*
X645514Y30700D01*
X643907Y30034D01*
X643589Y29822D01*
X643235Y29675D01*
X641789Y28709D01*
X641518Y28438D01*
X641200Y28226D01*
X639971Y26996D01*
X639758Y26678D01*
X639487Y26407D01*
X638521Y24961D01*
X638375Y24608D01*
X638162Y24290D01*
X637497Y22683D01*
X637422Y22308D01*
X637276Y21954D01*
X636936Y20248D01*
Y19960D01*
X636866Y19681D01*
X636824Y18811D01*
X636838Y18716D01*
X636819Y18621D01*
Y8381D01*
X636627Y7417D01*
X636251Y6510D01*
X635705Y5692D01*
X635011Y4998D01*
X634194Y4452D01*
X633286Y4076D01*
X632323Y3884D01*
X631831D01*
X104950Y3884D01*
X102920Y3884D01*
X98841Y4696D01*
X94998Y6288D01*
X91540Y8598D01*
X88599Y11540D01*
X86288Y14998D01*
X84696Y18841D01*
X83885Y22920D01*
Y25000D01*
Y55000D01*
X83866Y55095D01*
X83880Y55191D01*
X83759Y57641D01*
X83689Y57920D01*
Y58208D01*
X82733Y63015D01*
X82587Y63368D01*
X82512Y63744D01*
X80637Y68271D01*
X80424Y68590D01*
X80278Y68943D01*
X77555Y73018D01*
X77285Y73288D01*
X77072Y73607D01*
X73607Y77072D01*
X73288Y77285D01*
X73018Y77555D01*
X68943Y80278D01*
X68590Y80424D01*
X68271Y80637D01*
X63744Y82512D01*
X63368Y82587D01*
X63015Y82733D01*
X58208Y83689D01*
X57920D01*
X57641Y83759D01*
X55191Y83880D01*
X55095Y83866D01*
X55000Y83884D01*
X22920D01*
X18841Y84696D01*
X14998Y86288D01*
X11540Y88598D01*
X8599Y91540D01*
X6288Y94998D01*
X4696Y98841D01*
X3885Y102920D01*
Y105000D01*
Y395000D01*
Y397080D01*
X4696Y401159D01*
X6288Y405002D01*
X8599Y408460D01*
X11540Y411401D01*
X14998Y413712D01*
X18841Y415304D01*
X22920Y416115D01*
X55000D01*
X55095Y416134D01*
X55191Y416120D01*
X57641Y416241D01*
X57920Y416310D01*
X58208D01*
X63015Y417267D01*
X63369Y417413D01*
X63744Y417488D01*
X68271Y419363D01*
X68590Y419576D01*
X68943Y419722D01*
X73018Y422445D01*
X73289Y422715D01*
X73607Y422928D01*
X77072Y426393D01*
X77285Y426712D01*
X77555Y426982D01*
X80278Y431057D01*
X80424Y431410D01*
X80637Y431729D01*
X82512Y436256D01*
X82587Y436632D01*
X82733Y436985D01*
X83689Y441792D01*
Y442080D01*
X83759Y442359D01*
X83880Y444809D01*
X83866Y444905D01*
X83885Y445000D01*
Y475000D01*
Y477080D01*
X84696Y481159D01*
X86288Y485002D01*
X88599Y488460D01*
X91540Y491401D01*
X94998Y493712D01*
X98841Y495304D01*
X102920Y496115D01*
X800000D01*
X800000Y312013D01*
D02*
G37*
%LPC*%
G36*
X978750Y445974D02*
X976272Y445482D01*
X974172Y444078D01*
X973584Y443198D01*
X972822Y443707D01*
X970344Y444200D01*
X967867Y443707D01*
X965766Y442303D01*
X965048Y441229D01*
X963187Y441599D01*
X960709Y441106D01*
X958609Y439703D01*
X957205Y437602D01*
X956712Y435125D01*
X957205Y432647D01*
X958609Y430547D01*
X960709Y429143D01*
X963187Y428650D01*
X965664Y429143D01*
X967765Y430547D01*
X968483Y431621D01*
X970344Y431251D01*
X972822Y431744D01*
X974922Y433147D01*
X975511Y434027D01*
X976272Y433518D01*
X977906Y433194D01*
X978387Y430772D01*
X979791Y428672D01*
X981891Y427268D01*
X984369Y426776D01*
X986846Y427268D01*
X988947Y428672D01*
X990350Y430772D01*
X990843Y433250D01*
X990350Y435728D01*
X988947Y437828D01*
X986846Y439232D01*
X985213Y439556D01*
X984732Y441978D01*
X983328Y444078D01*
X981228Y445482D01*
X978750Y445974D01*
D02*
G37*
G36*
X1013758Y451691D02*
X1011281Y451198D01*
X1009180Y449795D01*
X1007777Y447694D01*
X1007284Y445217D01*
X1007777Y442739D01*
X1009180Y440639D01*
X1011281Y439235D01*
X1013758Y438742D01*
X1016236Y439235D01*
X1018336Y440639D01*
X1019740Y442739D01*
X1020233Y445217D01*
X1019740Y447694D01*
X1018336Y449795D01*
X1016236Y451198D01*
X1013758Y451691D01*
D02*
G37*
G36*
X1025242Y439866D02*
X1022765Y439374D01*
X1020664Y437970D01*
X1019261Y435870D01*
X1018768Y433392D01*
X1019261Y430914D01*
X1020664Y428814D01*
X1022765Y427411D01*
X1025242Y426918D01*
X1027720Y427411D01*
X1029820Y428814D01*
X1031224Y430914D01*
X1031717Y433392D01*
X1031224Y435870D01*
X1029820Y437970D01*
X1027720Y439374D01*
X1025242Y439866D01*
D02*
G37*
G36*
X982000Y418456D02*
X979721Y418003D01*
X977788Y416712D01*
X977635Y416483D01*
X976365D01*
X976212Y416712D01*
X974279Y418003D01*
X972000Y418456D01*
X969721Y418003D01*
X967788Y416712D01*
X966497Y414779D01*
X966043Y412500D01*
X966497Y410220D01*
X967788Y408288D01*
X968017Y408135D01*
Y406865D01*
X967788Y406712D01*
X966497Y404780D01*
X966044Y402500D01*
X966497Y400221D01*
X967788Y398288D01*
X969721Y396997D01*
X972000Y396544D01*
X974279Y396997D01*
X976212Y398288D01*
X976365Y398517D01*
X977635D01*
X977788Y398288D01*
X979721Y396997D01*
X982000Y396544D01*
X984279Y396997D01*
X986212Y398288D01*
X987503Y400221D01*
X987956Y402500D01*
X987503Y404780D01*
X986212Y406712D01*
X985983Y406865D01*
Y408135D01*
X986212Y408288D01*
X987503Y410220D01*
X987956Y412500D01*
X987503Y414779D01*
X986212Y416712D01*
X984279Y418003D01*
X982000Y418456D01*
D02*
G37*
G36*
X941000Y424474D02*
X938522Y423982D01*
X936422Y422578D01*
X935018Y420478D01*
X934526Y418000D01*
X935018Y415522D01*
X936422Y413422D01*
X938522Y412018D01*
X941000Y411526D01*
X943478Y412018D01*
X945578Y413422D01*
X946982Y415522D01*
X947474Y418000D01*
X946982Y420478D01*
X945578Y422578D01*
X943478Y423982D01*
X941000Y424474D01*
D02*
G37*
G36*
X887500Y428224D02*
X885022Y427732D01*
X882922Y426328D01*
X881518Y424228D01*
X881026Y421750D01*
X881518Y419272D01*
X882922Y417172D01*
X885022Y415769D01*
X887500Y415276D01*
X889978Y415769D01*
X891287Y416643D01*
X892976Y415514D01*
X895453Y415022D01*
X897931Y415514D01*
X900032Y416918D01*
X900862Y418161D01*
X902058Y417666D01*
X902026Y417500D01*
X902518Y415022D01*
X903922Y412922D01*
X906022Y411518D01*
X908500Y411026D01*
X910978Y411518D01*
X913078Y412922D01*
X914482Y415022D01*
X914974Y417500D01*
X914482Y419978D01*
X913078Y422078D01*
X910978Y423482D01*
X908500Y423974D01*
X906022Y423482D01*
X903922Y422078D01*
X903091Y420835D01*
X901895Y421330D01*
X901928Y421496D01*
X901435Y423974D01*
X900032Y426074D01*
X897931Y427478D01*
X895453Y427970D01*
X892976Y427478D01*
X891667Y426603D01*
X889978Y427732D01*
X887500Y428224D01*
D02*
G37*
G36*
X957521Y398114D02*
X955043Y397621D01*
X952943Y396218D01*
X951540Y394118D01*
X951047Y391640D01*
X951540Y389162D01*
X952943Y387062D01*
X955043Y385658D01*
X957521Y385165D01*
X959999Y385658D01*
X962099Y387062D01*
X963503Y389162D01*
X963996Y391640D01*
X963503Y394118D01*
X962099Y396218D01*
X959999Y397621D01*
X957521Y398114D01*
D02*
G37*
G36*
X967602Y385092D02*
X965125Y384599D01*
X963024Y383195D01*
X961656Y381147D01*
X960000Y382254D01*
X957522Y382747D01*
X955044Y382254D01*
X952944Y380850D01*
X951541Y378750D01*
X951048Y376272D01*
X951541Y373795D01*
X952944Y371694D01*
X955044Y370290D01*
X957522Y369798D01*
X960000Y370290D01*
X962100Y371694D01*
X963469Y373742D01*
X965125Y372636D01*
X967602Y372143D01*
X969351Y372491D01*
X970513Y370752D01*
X972614Y369348D01*
X975091Y368856D01*
X977569Y369348D01*
X979669Y370752D01*
X981073Y372852D01*
X981566Y375330D01*
X981073Y377808D01*
X979669Y379908D01*
X977569Y381311D01*
X975091Y381804D01*
X973342Y381456D01*
X972180Y383195D01*
X970080Y384599D01*
X967602Y385092D01*
D02*
G37*
G36*
X1008359Y410138D02*
X1005881Y409645D01*
X1003781Y408242D01*
X1002377Y406141D01*
X1001884Y403664D01*
X1002377Y401186D01*
X1003050Y400179D01*
X1002602Y398795D01*
X1000501Y397391D01*
X999098Y395291D01*
X998605Y392813D01*
X999098Y390336D01*
X1000501Y388235D01*
X1002602Y386832D01*
X1005079Y386339D01*
X1007557Y386832D01*
X1009658Y388235D01*
X1010519Y389525D01*
X1010720Y389824D01*
X1011916Y389329D01*
X1011835Y388923D01*
X1011474Y387107D01*
X1011967Y384630D01*
X1013370Y382529D01*
X1015471Y381126D01*
X1017948Y380633D01*
X1020426Y381126D01*
X1022526Y382529D01*
X1023930Y384630D01*
X1024423Y387107D01*
X1023930Y389585D01*
X1022526Y391685D01*
X1020426Y393089D01*
X1017948Y393582D01*
X1015471Y393089D01*
X1013370Y391685D01*
X1012508Y390396D01*
X1012308Y390096D01*
X1011112Y390592D01*
X1011193Y390998D01*
X1011554Y392813D01*
X1011061Y395291D01*
X1010388Y396298D01*
X1010836Y397682D01*
X1012937Y399086D01*
X1014340Y401186D01*
X1014833Y403664D01*
X1014340Y406141D01*
X1012937Y408242D01*
X1010836Y409645D01*
X1008359Y410138D01*
D02*
G37*
G36*
X896230Y380724D02*
X893752Y380232D01*
X891652Y378828D01*
X891049Y377925D01*
X889029Y378327D01*
X886552Y377834D01*
X884451Y376431D01*
X883048Y374330D01*
X882555Y371852D01*
X883048Y369375D01*
X884451Y367274D01*
X886552Y365871D01*
X889029Y365378D01*
X891507Y365871D01*
X893608Y367274D01*
X894211Y368177D01*
X896230Y367776D01*
X898708Y368268D01*
X900808Y369672D01*
X902212Y371772D01*
X902704Y374250D01*
X902212Y376728D01*
X900808Y378828D01*
X898708Y380232D01*
X896230Y380724D01*
D02*
G37*
G36*
X907095Y390124D02*
X904617Y389632D01*
X902517Y388228D01*
X901113Y386128D01*
X900620Y383650D01*
X901113Y381172D01*
X902517Y379072D01*
X904617Y377668D01*
X907095Y377176D01*
X909572Y377668D01*
X911673Y379072D01*
X913076Y381172D01*
X913569Y383650D01*
X913076Y386128D01*
X911673Y388228D01*
X909572Y389632D01*
X907095Y390124D01*
D02*
G37*
G36*
X1007117Y380002D02*
X1004640Y379509D01*
X1002539Y378106D01*
X1001136Y376005D01*
X1000643Y373528D01*
X1001136Y371050D01*
X1002539Y368950D01*
X1004640Y367546D01*
X1007117Y367053D01*
X1009595Y367546D01*
X1010080Y367870D01*
X1011365Y367201D01*
X1011747Y365281D01*
X1013150Y363180D01*
X1015251Y361777D01*
X1017728Y361284D01*
X1020206Y361777D01*
X1022307Y363180D01*
X1023710Y365281D01*
X1024203Y367758D01*
X1023710Y370236D01*
X1022307Y372337D01*
X1020206Y373740D01*
X1017728Y374233D01*
X1015251Y373740D01*
X1014766Y373416D01*
X1013481Y374085D01*
X1013099Y376005D01*
X1011695Y378106D01*
X1009595Y379509D01*
X1007117Y380002D01*
D02*
G37*
G36*
X914792Y371478D02*
X912314Y370985D01*
X910213Y369582D01*
X908810Y367481D01*
X908317Y365004D01*
X908810Y362526D01*
X910213Y360425D01*
X912314Y359022D01*
X914792Y358529D01*
X917269Y359022D01*
X919370Y360425D01*
X920773Y362526D01*
X921266Y365004D01*
X920773Y367481D01*
X919370Y369582D01*
X917269Y370985D01*
X914792Y371478D01*
D02*
G37*
G36*
X948918Y371151D02*
X946440Y370658D01*
X944340Y369254D01*
X942936Y367154D01*
X942444Y364676D01*
X942936Y362199D01*
X944340Y360098D01*
X946440Y358695D01*
X948918Y358202D01*
X951396Y358695D01*
X953496Y360098D01*
X954900Y362199D01*
X955392Y364676D01*
X954900Y367154D01*
X953496Y369254D01*
X951396Y370658D01*
X948918Y371151D01*
D02*
G37*
G36*
X991663Y357800D02*
X989185Y357308D01*
X988091Y356576D01*
X987122Y357224D01*
X984644Y357716D01*
X982167Y357224D01*
X980066Y355820D01*
X978663Y353720D01*
X978170Y351242D01*
X978663Y348764D01*
X980066Y346664D01*
X982167Y345260D01*
X984644Y344768D01*
X987122Y345260D01*
X988216Y345992D01*
X989185Y345345D01*
X991663Y344852D01*
X994140Y345345D01*
X996241Y346748D01*
X997644Y348848D01*
X998137Y351326D01*
X997644Y353804D01*
X996241Y355904D01*
X994140Y357308D01*
X991663Y357800D01*
D02*
G37*
G36*
X927747Y360788D02*
X925269Y360295D01*
X923168Y358892D01*
X921765Y356791D01*
X921272Y354314D01*
X921765Y351836D01*
X923168Y349736D01*
X925269Y348332D01*
X927747Y347839D01*
X930224Y348332D01*
X932325Y349736D01*
X933728Y351836D01*
X934221Y354314D01*
X933728Y356791D01*
X932325Y358892D01*
X930224Y360295D01*
X927747Y360788D01*
D02*
G37*
G36*
X966215Y359313D02*
X963737Y358820D01*
X961637Y357417D01*
X960233Y355316D01*
X959740Y352839D01*
X960233Y350361D01*
X961637Y348260D01*
X963737Y346857D01*
X966215Y346364D01*
X968692Y346857D01*
X970793Y348260D01*
X972196Y350361D01*
X972689Y352839D01*
X972196Y355316D01*
X970793Y357417D01*
X968692Y358820D01*
X966215Y359313D01*
D02*
G37*
G36*
X893051Y354075D02*
X890573Y353582D01*
X888473Y352179D01*
X887069Y350078D01*
X886576Y347601D01*
X887069Y345123D01*
X888473Y343023D01*
X890573Y341619D01*
X893051Y341126D01*
X895528Y341619D01*
X897629Y343023D01*
X899032Y345123D01*
X899525Y347601D01*
X899032Y350078D01*
X897629Y352179D01*
X895528Y353582D01*
X893051Y354075D01*
D02*
G37*
G36*
X1009770Y340464D02*
Y331270D01*
X1018964D01*
X1018769Y332752D01*
X1017707Y335316D01*
X1016017Y337517D01*
X1013816Y339207D01*
X1011252Y340269D01*
X1009770Y340464D01*
D02*
G37*
G36*
X1007230Y340464D02*
X1005749Y340269D01*
X1003185Y339207D01*
X1000983Y337517D01*
X999293Y335316D01*
X998231Y332752D01*
X998036Y331270D01*
X1007230D01*
Y340464D01*
D02*
G37*
G36*
X905000Y343974D02*
X902522Y343482D01*
X900422Y342078D01*
X899018Y339978D01*
X898526Y337500D01*
X899018Y335022D01*
X900422Y332922D01*
X902522Y331518D01*
X905000Y331026D01*
X907478Y331518D01*
X909578Y332922D01*
X910982Y335022D01*
X911474Y337500D01*
X910982Y339978D01*
X909578Y342078D01*
X907478Y343482D01*
X905000Y343974D01*
D02*
G37*
G36*
X842750Y377474D02*
X840272Y376982D01*
X838172Y375578D01*
X836768Y373478D01*
X836276Y371000D01*
X836768Y368522D01*
X837492Y367440D01*
X836697Y366251D01*
X836204Y363773D01*
X836697Y361296D01*
X837758Y359709D01*
X836768Y358228D01*
X836276Y355750D01*
X836768Y353272D01*
X837475Y352215D01*
X836038Y351254D01*
X834634Y349154D01*
X834142Y346676D01*
X834634Y344198D01*
X835602Y342750D01*
X834322Y340834D01*
X833829Y338356D01*
X834322Y335878D01*
X835675Y333852D01*
X834572Y332201D01*
X834079Y329723D01*
X834572Y327246D01*
X835975Y325145D01*
X838076Y323742D01*
X840554Y323249D01*
X843031Y323742D01*
X845132Y325145D01*
X846535Y327246D01*
X847028Y329723D01*
X846535Y332201D01*
X845181Y334227D01*
X846285Y335878D01*
X846778Y338356D01*
X846285Y340834D01*
X845317Y342282D01*
X846598Y344198D01*
X847091Y346676D01*
X846598Y349154D01*
X845891Y350211D01*
X847328Y351172D01*
X848732Y353272D01*
X849224Y355750D01*
X848732Y358228D01*
X847671Y359815D01*
X848660Y361296D01*
X849153Y363773D01*
X848660Y366251D01*
X847937Y367333D01*
X848732Y368522D01*
X849224Y371000D01*
X848732Y373478D01*
X847328Y375578D01*
X845228Y376982D01*
X842750Y377474D01*
D02*
G37*
G36*
X352731Y484679D02*
X350749Y484285D01*
X349747Y483615D01*
X348744Y484285D01*
X346762Y484679D01*
X344780Y484285D01*
X343100Y483162D01*
X341977Y481482D01*
X341583Y479500D01*
X341554Y479486D01*
X340029Y479934D01*
X339671Y480797D01*
X339322Y481252D01*
X331945Y473874D01*
X324567Y466496D01*
X325021Y466148D01*
X325982Y465750D01*
X325841Y465042D01*
X333247D01*
X340652D01*
X340436Y466129D01*
X339101Y468127D01*
X337386Y469273D01*
X336996Y470679D01*
X338543Y472226D01*
X339671Y473697D01*
X340380Y475409D01*
X340622Y477247D01*
X340528Y477959D01*
X340866Y479014D01*
X341045Y479044D01*
X341814Y478335D01*
X341977Y477518D01*
X343100Y475838D01*
X344780Y474715D01*
X346762Y474320D01*
X348744Y474715D01*
X349747Y475384D01*
X350749Y474715D01*
X352731Y474320D01*
X354713Y474715D01*
X356394Y475838D01*
X357516Y477518D01*
X357911Y479500D01*
X357516Y481482D01*
X356394Y483162D01*
X354713Y484285D01*
X352731Y484679D01*
D02*
G37*
G36*
X500151Y492396D02*
X498169Y492002D01*
X496488Y490879D01*
X495366Y489199D01*
X494972Y487216D01*
X495366Y485234D01*
X496488Y483554D01*
X498169Y482431D01*
X500151Y482037D01*
X502133Y482431D01*
X503814Y483554D01*
X504936Y485234D01*
X505331Y487216D01*
X504936Y489199D01*
X503814Y490879D01*
X502133Y492002D01*
X500151Y492396D01*
D02*
G37*
G36*
X275750Y490429D02*
X273768Y490035D01*
X272087Y488913D01*
X270965Y487232D01*
X270571Y485250D01*
X270965Y483268D01*
X272087Y481587D01*
X273768Y480465D01*
X275750Y480070D01*
X277732Y480465D01*
X279412Y481587D01*
X280535Y483268D01*
X280930Y485250D01*
X280535Y487232D01*
X279412Y488913D01*
X277732Y490035D01*
X275750Y490429D01*
D02*
G37*
G36*
X556285Y489726D02*
X554302Y489332D01*
X552622Y488209D01*
X551499Y486529D01*
X551105Y484547D01*
X551499Y482565D01*
X552622Y480885D01*
X554302Y479762D01*
X556285Y479367D01*
X558267Y479762D01*
X558276Y479768D01*
X559582Y479113D01*
X559857Y477734D01*
X560979Y476053D01*
X562660Y474930D01*
X564642Y474536D01*
X566624Y474930D01*
X568304Y476053D01*
X569136Y477298D01*
X570951Y476937D01*
X572933Y477331D01*
X574614Y478454D01*
X575737Y480135D01*
X576131Y482117D01*
X575737Y484099D01*
X574614Y485779D01*
X572933Y486902D01*
X570951Y487296D01*
X568969Y486902D01*
X567289Y485779D01*
X566457Y484534D01*
X564642Y484895D01*
X562660Y484501D01*
X562650Y484495D01*
X561344Y485149D01*
X561070Y486529D01*
X559947Y488209D01*
X558267Y489332D01*
X556285Y489726D01*
D02*
G37*
G36*
X408472Y484348D02*
X406634Y484106D01*
X404921Y483396D01*
X404467Y483048D01*
X410947Y476568D01*
X415070Y480691D01*
X413493Y482268D01*
X412022Y483396D01*
X410310Y484106D01*
X408472Y484348D01*
D02*
G37*
G36*
X333521D02*
X331684Y484106D01*
X329971Y483396D01*
X328501Y482268D01*
X326924Y480691D01*
X331047Y476568D01*
X337526Y483048D01*
X337072Y483396D01*
X335359Y484106D01*
X333521Y484348D01*
D02*
G37*
G36*
X381130Y491917D02*
X379148Y491523D01*
X377467Y490400D01*
X376345Y488720D01*
X376193Y487956D01*
X375642Y486787D01*
X374728Y486605D01*
X374728Y486605D01*
X374651Y486590D01*
X373660Y486392D01*
X371980Y485270D01*
X370857Y483589D01*
X370463Y481607D01*
X370857Y479625D01*
X371980Y477945D01*
X373660Y476822D01*
X375642Y476428D01*
X377625Y476822D01*
X379305Y477945D01*
X380296Y479429D01*
X381114Y479486D01*
X381670Y479373D01*
X382696Y477838D01*
X384377Y476715D01*
X386359Y476320D01*
X388341Y476715D01*
X389343Y477384D01*
X390346Y476715D01*
X392328Y476320D01*
X394310Y476715D01*
X395990Y477838D01*
X397113Y479518D01*
X397507Y481500D01*
X397113Y483482D01*
X395990Y485163D01*
X394310Y486285D01*
X392328Y486679D01*
X390346Y486285D01*
X389343Y485616D01*
X388341Y486285D01*
X386359Y486679D01*
X386075Y487918D01*
X385915Y488720D01*
X384792Y490400D01*
X383112Y491523D01*
X381130Y491917D01*
D02*
G37*
G36*
X184250Y483180D02*
X182268Y482785D01*
X180588Y481662D01*
X179465Y479982D01*
X179070Y478000D01*
X179465Y476018D01*
X180588Y474338D01*
X182268Y473215D01*
X184250Y472821D01*
X186232Y473215D01*
X187913Y474338D01*
X189035Y476018D01*
X189429Y478000D01*
X189035Y479982D01*
X187913Y481662D01*
X186232Y482785D01*
X184250Y483180D01*
D02*
G37*
G36*
X307166Y475977D02*
X305184Y475583D01*
X303503Y474460D01*
X302381Y472780D01*
X302321Y472480D01*
X300973Y472212D01*
X300518Y472894D01*
X298837Y474017D01*
X296855Y474411D01*
X294873Y474017D01*
X293193Y472894D01*
X292070Y471213D01*
X291675Y469231D01*
X292070Y467249D01*
X293193Y465569D01*
X294873Y464446D01*
X296855Y464052D01*
X298837Y464446D01*
X300518Y465569D01*
X301640Y467249D01*
X301700Y467549D01*
X303048Y467817D01*
X303503Y467135D01*
X305184Y466013D01*
X307166Y465618D01*
X309148Y466013D01*
X310828Y467135D01*
X311951Y468816D01*
X312346Y470798D01*
X311951Y472780D01*
X310828Y474460D01*
X309148Y475583D01*
X307166Y475977D01*
D02*
G37*
G36*
X172250Y482430D02*
X170268Y482035D01*
X168587Y480912D01*
X167465Y479232D01*
X167071Y477250D01*
X167465Y475268D01*
X168587Y473587D01*
X170268Y472465D01*
X172250Y472071D01*
X174232Y472465D01*
X175912Y473587D01*
X177035Y475268D01*
X177430Y477250D01*
X177035Y479232D01*
X175912Y480912D01*
X174232Y482035D01*
X172250Y482430D01*
D02*
G37*
G36*
X469793Y473679D02*
X467811Y473285D01*
X466131Y472162D01*
X465841Y471728D01*
X464192Y472831D01*
X462209Y473225D01*
X460227Y472831D01*
X458547Y471708D01*
X457424Y470027D01*
X457030Y468045D01*
X457424Y466063D01*
X458547Y464383D01*
X460227Y463260D01*
X462209Y462866D01*
X464192Y463260D01*
X465872Y464383D01*
X466162Y464817D01*
X467811Y463714D01*
X469793Y463320D01*
X471775Y463714D01*
X473456Y464837D01*
X474579Y466517D01*
X474973Y468500D01*
X474579Y470482D01*
X473456Y472162D01*
X471775Y473285D01*
X469793Y473679D01*
D02*
G37*
G36*
X197250Y481180D02*
X195268Y480785D01*
X193587Y479663D01*
X192465Y477982D01*
X192071Y476000D01*
X192465Y474018D01*
X193587Y472337D01*
X195268Y471215D01*
X197250Y470821D01*
X199232Y471215D01*
X200912Y472337D01*
X202035Y474018D01*
X202430Y476000D01*
X202035Y477982D01*
X200912Y479663D01*
X199232Y480785D01*
X197250Y481180D01*
D02*
G37*
G36*
X160750Y480929D02*
X158768Y480535D01*
X157087Y479412D01*
X155965Y477732D01*
X155570Y475750D01*
X155965Y473768D01*
X157087Y472088D01*
X158768Y470965D01*
X160750Y470570D01*
X162732Y470965D01*
X164412Y472088D01*
X165535Y473768D01*
X165930Y475750D01*
X165535Y477732D01*
X164412Y479412D01*
X162732Y480535D01*
X160750Y480929D01*
D02*
G37*
G36*
X325128Y478895D02*
X323551Y477318D01*
X322422Y475848D01*
X321713Y474135D01*
X321471Y472297D01*
X321713Y470459D01*
X322422Y468747D01*
X322771Y468292D01*
X329251Y474772D01*
X325128Y478895D01*
D02*
G37*
G36*
X416866D02*
X412743Y474772D01*
X419222Y468292D01*
X419571Y468747D01*
X420280Y470459D01*
X420522Y472297D01*
X420280Y474135D01*
X419571Y475848D01*
X418442Y477318D01*
X416866Y478895D01*
D02*
G37*
G36*
X402671Y481252D02*
X402322Y480797D01*
X401613Y479085D01*
X401371Y477247D01*
X401613Y475409D01*
X402322Y473697D01*
X403451Y472226D01*
X404997Y470679D01*
X404608Y469273D01*
X402892Y468127D01*
X401557Y466129D01*
X401341Y465042D01*
X408746D01*
X416152D01*
X416012Y465750D01*
X416972Y466148D01*
X417426Y466496D01*
X410049Y473874D01*
X402671Y481252D01*
D02*
G37*
G36*
X672465Y472644D02*
X670482Y472250D01*
X668802Y471127D01*
X667679Y469447D01*
X667285Y467464D01*
X667679Y465482D01*
X668802Y463802D01*
X670482Y462679D01*
X672465Y462285D01*
X674447Y462679D01*
X676127Y463802D01*
X677250Y465482D01*
X677644Y467464D01*
X677250Y469447D01*
X676127Y471127D01*
X674447Y472250D01*
X672465Y472644D01*
D02*
G37*
G36*
X571000Y470429D02*
X569018Y470035D01*
X567337Y468913D01*
X566215Y467232D01*
X565821Y465250D01*
X566215Y463268D01*
X567337Y461587D01*
X569018Y460465D01*
X571000Y460070D01*
X572982Y460465D01*
X574663Y461587D01*
X575785Y463268D01*
X576180Y465250D01*
X575785Y467232D01*
X574663Y468913D01*
X572982Y470035D01*
X571000Y470429D01*
D02*
G37*
G36*
X358250Y468929D02*
X356268Y468535D01*
X354588Y467412D01*
X353465Y465732D01*
X353070Y463750D01*
X353465Y461768D01*
X354588Y460088D01*
X356268Y458965D01*
X358250Y458571D01*
X360232Y458965D01*
X361912Y460088D01*
X363035Y461768D01*
X363429Y463750D01*
X363035Y465732D01*
X361912Y467412D01*
X360232Y468535D01*
X358250Y468929D01*
D02*
G37*
G36*
X377630Y468804D02*
X375648Y468410D01*
X373967Y467287D01*
X372845Y465607D01*
X372450Y463625D01*
X372845Y461642D01*
X373967Y459962D01*
X375648Y458839D01*
X377630Y458445D01*
X379612Y458839D01*
X381292Y459962D01*
X382415Y461642D01*
X382809Y463625D01*
X382415Y465607D01*
X381292Y467287D01*
X379612Y468410D01*
X377630Y468804D01*
D02*
G37*
G36*
X521093Y474184D02*
X519110Y473789D01*
X517430Y472666D01*
X516307Y470986D01*
X515913Y469004D01*
X516307Y467022D01*
X517430Y465341D01*
X518725Y464476D01*
X518228Y463732D01*
X517833Y461750D01*
X518228Y459768D01*
X519350Y458088D01*
X521031Y456965D01*
X523013Y456571D01*
X524995Y456965D01*
X526675Y458088D01*
X527798Y459768D01*
X528192Y461750D01*
X527798Y463732D01*
X526675Y465412D01*
X525381Y466278D01*
X525878Y467022D01*
X526272Y469004D01*
X525878Y470986D01*
X524755Y472666D01*
X523075Y473789D01*
X521093Y474184D01*
D02*
G37*
G36*
X545851Y479610D02*
X543869Y479216D01*
X542188Y478093D01*
X541066Y476413D01*
X540672Y474430D01*
X541066Y472448D01*
X541492Y471811D01*
X540110Y470888D01*
X538987Y469208D01*
X538593Y467225D01*
X538987Y465243D01*
X540110Y463563D01*
X540145Y463540D01*
X539326Y462314D01*
X538932Y460332D01*
X539326Y458349D01*
X540448Y456669D01*
X542129Y455546D01*
X544111Y455152D01*
X546093Y455546D01*
X547774Y456669D01*
X548896Y458349D01*
X549291Y460332D01*
X548896Y462314D01*
X547774Y463994D01*
X547739Y464017D01*
X548558Y465243D01*
X548952Y467225D01*
X548558Y469208D01*
X548132Y469845D01*
X549514Y470768D01*
X550636Y472448D01*
X551031Y474430D01*
X550636Y476413D01*
X549514Y478093D01*
X547833Y479216D01*
X545851Y479610D01*
D02*
G37*
G36*
X153750Y462430D02*
X151768Y462035D01*
X150087Y460913D01*
X148965Y459232D01*
X148570Y457250D01*
X148965Y455268D01*
X150087Y453587D01*
X151768Y452465D01*
X153750Y452071D01*
X155732Y452465D01*
X157413Y453587D01*
X158535Y455268D01*
X158930Y457250D01*
X158535Y459232D01*
X157413Y460913D01*
X155732Y462035D01*
X153750Y462430D01*
D02*
G37*
G36*
X115000Y481615D02*
X111954Y481315D01*
X109024Y480426D01*
X106325Y478983D01*
X103958Y477042D01*
X102016Y474675D01*
X100574Y471976D01*
X99685Y469046D01*
X99385Y466000D01*
X99685Y462954D01*
X100574Y460024D01*
X102016Y457325D01*
X103958Y454958D01*
X106325Y453017D01*
X109024Y451573D01*
X111954Y450685D01*
X115000Y450385D01*
X118046Y450685D01*
X120976Y451573D01*
X123675Y453017D01*
X126042Y454958D01*
X127984Y457325D01*
X129426Y460024D01*
X130315Y462954D01*
X130615Y466000D01*
X130315Y469046D01*
X129426Y471976D01*
X127984Y474675D01*
X126042Y477042D01*
X123675Y478983D01*
X120976Y480426D01*
X118046Y481315D01*
X115000Y481615D01*
D02*
G37*
G36*
X369887Y453267D02*
X367905Y452873D01*
X366225Y451750D01*
X365281Y450337D01*
X365056Y450271D01*
X364290Y450246D01*
X363870Y450337D01*
X362979Y451671D01*
X361298Y452794D01*
X359316Y453188D01*
X357334Y452794D01*
X355654Y451671D01*
X354531Y449991D01*
X354137Y448009D01*
X354326Y447056D01*
X353183Y446292D01*
X353111Y446341D01*
X351129Y446735D01*
X349147Y446341D01*
X347466Y445218D01*
X346343Y443537D01*
X345949Y441555D01*
X346343Y439573D01*
X347466Y437893D01*
X349147Y436770D01*
X349210Y436617D01*
X348677Y435819D01*
X348283Y433837D01*
X348677Y431855D01*
X349800Y430175D01*
X351480Y429052D01*
X353462Y428658D01*
X355444Y429052D01*
X357125Y430175D01*
X358248Y431855D01*
X358642Y433837D01*
X358343Y435341D01*
X359982Y435667D01*
X360882Y436269D01*
X361338Y435588D01*
X363018Y434465D01*
X365000Y434071D01*
X366982Y434465D01*
X368662Y435588D01*
X369785Y437268D01*
X370179Y439250D01*
X369785Y441232D01*
X369476Y441695D01*
X369637Y442169D01*
X370157Y442962D01*
X371870Y443302D01*
X373550Y444425D01*
X374673Y446105D01*
X375067Y448088D01*
X374673Y450070D01*
X373550Y451750D01*
X371870Y452873D01*
X369887Y453267D01*
D02*
G37*
G36*
X608770Y458214D02*
Y449020D01*
X617964D01*
X617769Y450502D01*
X616707Y453065D01*
X615017Y455267D01*
X612816Y456957D01*
X610252Y458019D01*
X608770Y458214D01*
D02*
G37*
G36*
X606230Y458214D02*
X604748Y458019D01*
X602184Y456957D01*
X599983Y455267D01*
X598293Y453065D01*
X597231Y450502D01*
X597036Y449020D01*
X606230D01*
Y458214D01*
D02*
G37*
G36*
X322771Y459252D02*
X322422Y458797D01*
X321713Y457085D01*
X321471Y455247D01*
X321713Y453409D01*
X322422Y451697D01*
X323551Y450226D01*
X325128Y448649D01*
X329251Y452772D01*
X322771Y459252D01*
D02*
G37*
G36*
X419222D02*
X412743Y452772D01*
X416866Y448649D01*
X418442Y450226D01*
X419571Y451697D01*
X420280Y453409D01*
X420522Y455247D01*
X420280Y457085D01*
X419571Y458797D01*
X419222Y459252D01*
D02*
G37*
G36*
X509455Y458429D02*
X507473Y458035D01*
X505792Y456912D01*
X504670Y455232D01*
X504275Y453250D01*
X504670Y451268D01*
X505792Y449588D01*
X507473Y448465D01*
X509455Y448070D01*
X511437Y448465D01*
X513117Y449588D01*
X514240Y451268D01*
X514634Y453250D01*
X514240Y455232D01*
X513117Y456912D01*
X511437Y458035D01*
X509455Y458429D01*
D02*
G37*
G36*
X416152Y462502D02*
X408746D01*
X401341D01*
X401557Y461415D01*
X402892Y459417D01*
X404608Y458271D01*
X404997Y456865D01*
X403451Y455318D01*
X402322Y453848D01*
X401613Y452135D01*
X401371Y450297D01*
X401613Y448459D01*
X402322Y446747D01*
X402671Y446292D01*
X410049Y453670D01*
X417426Y461048D01*
X416972Y461396D01*
X416012Y461794D01*
X416152Y462502D01*
D02*
G37*
G36*
X340652D02*
X333247D01*
X325841D01*
X325982Y461794D01*
X325021Y461396D01*
X324567Y461048D01*
X331945Y453670D01*
X339322Y446292D01*
X339671Y446747D01*
X340380Y448459D01*
X340622Y450297D01*
X340380Y452135D01*
X339671Y453848D01*
X338543Y455318D01*
X336996Y456865D01*
X337386Y458271D01*
X339101Y459417D01*
X340436Y461415D01*
X340652Y462502D01*
D02*
G37*
G36*
X267498Y450678D02*
X265516Y450284D01*
X263835Y449161D01*
X262712Y447480D01*
X262480Y446313D01*
X261163Y445998D01*
X259482Y447121D01*
X257500Y447515D01*
X255518Y447121D01*
X253838Y445998D01*
X252715Y444318D01*
X252321Y442336D01*
X252715Y440354D01*
X253838Y438674D01*
X255518Y437551D01*
X257500Y437156D01*
X259482Y437551D01*
X261163Y438674D01*
X262285Y440354D01*
X262518Y441522D01*
X263835Y441836D01*
X265516Y440713D01*
X267498Y440319D01*
X269480Y440713D01*
X270023Y441076D01*
X270964Y439669D01*
X272644Y438546D01*
X274626Y438152D01*
X276608Y438546D01*
X277858Y439381D01*
X278088Y439038D01*
X279768Y437915D01*
X281750Y437521D01*
X283732Y437915D01*
X285413Y439038D01*
X286535Y440718D01*
X286929Y442701D01*
X286535Y444683D01*
X285413Y446363D01*
X283732Y447486D01*
X281750Y447880D01*
X279768Y447486D01*
X278518Y446651D01*
X278288Y446994D01*
X276608Y448116D01*
X274626Y448511D01*
X272644Y448116D01*
X272101Y447753D01*
X271160Y449161D01*
X269480Y450284D01*
X267498Y450678D01*
D02*
G37*
G36*
X432345Y449348D02*
X430363Y448954D01*
X428683Y447831D01*
X427796Y446504D01*
X426325Y445959D01*
X425800Y446310D01*
X423817Y446705D01*
X421835Y446310D01*
X420155Y445187D01*
X419032Y443507D01*
X418638Y441525D01*
X419032Y439543D01*
X420155Y437863D01*
X421835Y436740D01*
X423817Y436345D01*
X425800Y436740D01*
X427480Y437863D01*
X428497Y439384D01*
X429837Y439734D01*
X430363Y439383D01*
X432345Y438989D01*
X434327Y439383D01*
X436007Y440506D01*
X437130Y442186D01*
X437524Y444169D01*
X437130Y446151D01*
X436007Y447831D01*
X434327Y448954D01*
X432345Y449348D01*
D02*
G37*
G36*
X447345Y455916D02*
X445363Y455522D01*
X443683Y454399D01*
X442560Y452719D01*
X442166Y450737D01*
X442560Y448755D01*
X443683Y447074D01*
X445363Y445952D01*
X447345Y445557D01*
X449328Y445952D01*
X451008Y447074D01*
X452131Y448755D01*
X452525Y450737D01*
X452131Y452719D01*
X451008Y454399D01*
X449328Y455522D01*
X447345Y455916D01*
D02*
G37*
G36*
X410947Y450976D02*
X404467Y444496D01*
X404921Y444148D01*
X406634Y443438D01*
X408472Y443196D01*
X410310Y443438D01*
X412022Y444148D01*
X413493Y445276D01*
X415070Y446853D01*
X410947Y450976D01*
D02*
G37*
G36*
X331047D02*
X326924Y446853D01*
X328501Y445276D01*
X329971Y444148D01*
X331684Y443438D01*
X333521Y443196D01*
X335359Y443438D01*
X337072Y444148D01*
X337526Y444496D01*
X331047Y450976D01*
D02*
G37*
G36*
X381429Y449629D02*
X379446Y449234D01*
X377766Y448111D01*
X376643Y446431D01*
X376249Y444449D01*
X376643Y442467D01*
X377766Y440787D01*
X379446Y439664D01*
X381429Y439269D01*
X383411Y439664D01*
X385091Y440787D01*
X386214Y442467D01*
X386608Y444449D01*
X386214Y446431D01*
X385091Y448111D01*
X383411Y449234D01*
X381429Y449629D01*
D02*
G37*
G36*
X500590Y449269D02*
X498608Y448875D01*
X496927Y447752D01*
X495804Y446072D01*
X495410Y444090D01*
X495804Y442108D01*
X496927Y440427D01*
X498608Y439305D01*
X500590Y438910D01*
X502572Y439305D01*
X504252Y440427D01*
X505375Y442108D01*
X505769Y444090D01*
X505375Y446072D01*
X504252Y447752D01*
X502572Y448875D01*
X500590Y449269D01*
D02*
G37*
G36*
X606230Y446480D02*
X597036D01*
X597231Y444999D01*
X598293Y442435D01*
X599983Y440233D01*
X602184Y438543D01*
X604748Y437481D01*
X606230Y437286D01*
Y446480D01*
D02*
G37*
G36*
X617964D02*
X608770D01*
Y437286D01*
X610252Y437481D01*
X612816Y438543D01*
X615017Y440233D01*
X616707Y442435D01*
X617769Y444999D01*
X617964Y446480D01*
D02*
G37*
G36*
X642500Y458381D02*
X639748Y458019D01*
X637184Y456957D01*
X634983Y455267D01*
X633293Y453065D01*
X632231Y450502D01*
X631869Y447750D01*
X632231Y444999D01*
X633293Y442435D01*
X634983Y440233D01*
X637184Y438543D01*
X639748Y437481D01*
X642500Y437119D01*
X645251Y437481D01*
X647815Y438543D01*
X650017Y440233D01*
X651707Y442435D01*
X652769Y444999D01*
X653131Y447750D01*
X652769Y450502D01*
X651707Y453065D01*
X650017Y455267D01*
X647815Y456957D01*
X645251Y458019D01*
X642500Y458381D01*
D02*
G37*
G36*
X577281Y455194D02*
X575298Y454800D01*
X573618Y453677D01*
X572495Y451997D01*
X572101Y450014D01*
X572495Y448032D01*
X573250Y446902D01*
X573519Y445554D01*
X572396Y443874D01*
X572002Y441892D01*
X572396Y439910D01*
X573519Y438229D01*
X575199Y437107D01*
X577181Y436712D01*
X579163Y437107D01*
X580844Y438229D01*
X581967Y439910D01*
X582361Y441892D01*
X581967Y443874D01*
X580844Y445554D01*
X581249Y446810D01*
X582066Y448032D01*
X582460Y450014D01*
X582066Y451997D01*
X580943Y453677D01*
X579263Y454800D01*
X577281Y455194D01*
D02*
G37*
G36*
X518000Y446680D02*
X516018Y446286D01*
X514338Y445163D01*
X513215Y443483D01*
X512821Y441501D01*
X513215Y439519D01*
X514338Y437838D01*
X516018Y436715D01*
X518000Y436321D01*
X519982Y436715D01*
X521662Y437838D01*
X522785Y439519D01*
X523180Y441501D01*
X522785Y443483D01*
X521662Y445163D01*
X519982Y446286D01*
X518000Y446680D01*
D02*
G37*
G36*
X305270Y452616D02*
X303288Y452221D01*
X301608Y451099D01*
X300485Y449418D01*
X300091Y447436D01*
X300210Y446835D01*
X299865Y446490D01*
X297882Y446095D01*
X296202Y444973D01*
X295079Y443292D01*
X294685Y441310D01*
X295079Y439328D01*
X296202Y437648D01*
X297882Y436525D01*
X299865Y436131D01*
X301847Y436525D01*
X303527Y437648D01*
X303914Y438227D01*
X305441D01*
X305763Y437744D01*
X307444Y436622D01*
X309426Y436227D01*
X311408Y436622D01*
X313088Y437744D01*
X314211Y439425D01*
X314605Y441407D01*
X314211Y443389D01*
X313088Y445070D01*
X311408Y446192D01*
X310248Y446423D01*
X310450Y447436D01*
X310056Y449418D01*
X308933Y451099D01*
X307252Y452221D01*
X305270Y452616D01*
D02*
G37*
G36*
X544460Y446358D02*
X542478Y445964D01*
X540798Y444841D01*
X539675Y443161D01*
X539281Y441179D01*
X539675Y439197D01*
X540798Y437516D01*
X542478Y436393D01*
X544460Y435999D01*
X546442Y436393D01*
X548123Y437516D01*
X549246Y439197D01*
X549640Y441179D01*
X549246Y443161D01*
X548123Y444841D01*
X546442Y445964D01*
X544460Y446358D01*
D02*
G37*
G36*
X177009Y445201D02*
X175026Y444807D01*
X173346Y443684D01*
X172223Y442004D01*
X171829Y440022D01*
X172223Y438039D01*
X173346Y436359D01*
X175026Y435236D01*
X177009Y434842D01*
X178991Y435236D01*
X180671Y436359D01*
X181794Y438039D01*
X182188Y440022D01*
X181794Y442004D01*
X180671Y443684D01*
X178991Y444807D01*
X177009Y445201D01*
D02*
G37*
G36*
X340078Y435179D02*
X338096Y434785D01*
X337093Y434115D01*
X336091Y434785D01*
X334109Y435179D01*
X332127Y434785D01*
X330446Y433662D01*
X329324Y431982D01*
X328929Y430000D01*
X329324Y428018D01*
X330446Y426338D01*
X332127Y425215D01*
X334109Y424821D01*
X336091Y425215D01*
X337093Y425885D01*
X338096Y425215D01*
X340078Y424821D01*
X342060Y425215D01*
X343740Y426338D01*
X344863Y428018D01*
X345257Y430000D01*
X344863Y431982D01*
X343740Y433662D01*
X342060Y434785D01*
X340078Y435179D01*
D02*
G37*
G36*
X483138Y438970D02*
X481156Y438576D01*
X479475Y437453D01*
X478353Y435773D01*
X477958Y433791D01*
X478099Y433084D01*
X476956Y432320D01*
X475792Y433098D01*
X473810Y433493D01*
X471827Y433098D01*
X470147Y431976D01*
X469024Y430295D01*
X468630Y428313D01*
X469024Y426331D01*
X470147Y424651D01*
X471827Y423528D01*
X473810Y423134D01*
X475792Y423528D01*
X477472Y424651D01*
X478595Y426331D01*
X478989Y428313D01*
X478848Y429020D01*
X479991Y429784D01*
X481156Y429006D01*
X483138Y428611D01*
X485120Y429006D01*
X486800Y430128D01*
X487923Y431809D01*
X488317Y433791D01*
X487923Y435773D01*
X486800Y437453D01*
X485120Y438576D01*
X483138Y438970D01*
D02*
G37*
G36*
X142985Y428429D02*
X141002Y428035D01*
X140000Y427365D01*
X138998Y428035D01*
X137015Y428429D01*
X135033Y428035D01*
X133353Y426912D01*
X133030Y426429D01*
X132123Y427035D01*
X130141Y427430D01*
X128159Y427035D01*
X127157Y426366D01*
X126154Y427035D01*
X124172Y427430D01*
X122190Y427035D01*
X120510Y425913D01*
X119387Y424232D01*
X118993Y422250D01*
X119387Y420268D01*
X120510Y418587D01*
X122190Y417465D01*
X124172Y417071D01*
X126154Y417465D01*
X127157Y418134D01*
X128159Y417465D01*
X130141Y417071D01*
X132123Y417465D01*
X133804Y418587D01*
X134127Y419071D01*
X135033Y418465D01*
X137015Y418070D01*
X138998Y418465D01*
X140000Y419134D01*
X141002Y418465D01*
X142985Y418070D01*
X144967Y418465D01*
X146647Y419588D01*
X147770Y421268D01*
X148164Y423250D01*
X147770Y425232D01*
X146647Y426912D01*
X144967Y428035D01*
X142985Y428429D01*
D02*
G37*
G36*
X197369Y428662D02*
X195387Y428268D01*
X193706Y427145D01*
X193395Y426679D01*
X191653Y426337D01*
X190982Y426785D01*
X189000Y427179D01*
X187018Y426785D01*
X185338Y425662D01*
X184215Y423982D01*
X183820Y422000D01*
X184215Y420018D01*
X185338Y418338D01*
X187018Y417215D01*
X189000Y416820D01*
X190982Y417215D01*
X192663Y418338D01*
X192974Y418804D01*
X194715Y419146D01*
X195387Y418698D01*
X197369Y418303D01*
X199351Y418698D01*
X201031Y419820D01*
X202154Y421501D01*
X202548Y423483D01*
X202154Y425465D01*
X201031Y427145D01*
X199351Y428268D01*
X197369Y428662D01*
D02*
G37*
G36*
X160648Y430149D02*
X158666Y429754D01*
X156986Y428632D01*
X155863Y426951D01*
X155469Y424969D01*
X155863Y422987D01*
X156986Y421307D01*
X158666Y420184D01*
X160648Y419790D01*
X162631Y420184D01*
X164055Y421136D01*
X164088Y421087D01*
X165768Y419965D01*
X167750Y419571D01*
X169732Y419965D01*
X171413Y421087D01*
X172535Y422768D01*
X172929Y424750D01*
X172535Y426732D01*
X171413Y428413D01*
X169732Y429535D01*
X167750Y429930D01*
X165768Y429535D01*
X164343Y428583D01*
X164311Y428632D01*
X162631Y429754D01*
X160648Y430149D01*
D02*
G37*
G36*
X280329Y428857D02*
X278347Y428463D01*
X276666Y427340D01*
X275543Y425660D01*
X275149Y423678D01*
X275543Y421696D01*
X276666Y420015D01*
X278347Y418893D01*
X280329Y418498D01*
X282311Y418893D01*
X283991Y420015D01*
X285114Y421696D01*
X285508Y423678D01*
X285114Y425660D01*
X283991Y427340D01*
X282311Y428463D01*
X280329Y428857D01*
D02*
G37*
G36*
X156141Y418180D02*
X154159Y417785D01*
X153157Y417116D01*
X152154Y417785D01*
X150172Y418180D01*
X148190Y417785D01*
X146510Y416662D01*
X145387Y414982D01*
X144993Y413000D01*
X145387Y411018D01*
X146510Y409338D01*
X148190Y408215D01*
X150172Y407821D01*
X152154Y408215D01*
X153157Y408885D01*
X154159Y408215D01*
X156141Y407821D01*
X158123Y408215D01*
X159804Y409338D01*
X160926Y411018D01*
X161321Y413000D01*
X160926Y414982D01*
X159804Y416662D01*
X158123Y417785D01*
X156141Y418180D01*
D02*
G37*
G36*
X684730Y418999D02*
X682252Y418507D01*
X680152Y417103D01*
X679492Y416115D01*
X678222D01*
X677578Y417078D01*
X675478Y418482D01*
X673000Y418974D01*
X670522Y418482D01*
X668422Y417078D01*
X667019Y414978D01*
X666526Y412500D01*
X667019Y410022D01*
X668422Y407922D01*
X670522Y406518D01*
X673000Y406026D01*
X675478Y406518D01*
X677578Y407922D01*
X678238Y408910D01*
X679508D01*
X680152Y407947D01*
X682252Y406543D01*
X684730Y406051D01*
X687208Y406543D01*
X689308Y407947D01*
X690712Y410047D01*
X691204Y412525D01*
X690712Y415003D01*
X689308Y417103D01*
X687208Y418507D01*
X684730Y418999D01*
D02*
G37*
G36*
X378750Y430429D02*
X376768Y430035D01*
X375087Y428913D01*
X373965Y427232D01*
X373570Y425250D01*
X373965Y423268D01*
X374242Y422853D01*
X373212Y421311D01*
X372817Y419329D01*
X373212Y417347D01*
X374334Y415666D01*
X376015Y414543D01*
X377997Y414149D01*
X379979Y414543D01*
X381659Y415666D01*
X382782Y417347D01*
X383176Y419329D01*
X382782Y421311D01*
X382505Y421726D01*
X383535Y423268D01*
X383929Y425250D01*
X383535Y427232D01*
X382412Y428913D01*
X380732Y430035D01*
X378750Y430429D01*
D02*
G37*
G36*
X296270Y424179D02*
X294288Y423785D01*
X292608Y422663D01*
X291485Y420982D01*
X291091Y419000D01*
X291485Y417018D01*
X292608Y415337D01*
X294288Y414215D01*
X296270Y413820D01*
X298252Y414215D01*
X299933Y415337D01*
X301056Y417018D01*
X301450Y419000D01*
X301056Y420982D01*
X299933Y422663D01*
X298252Y423785D01*
X296270Y424179D01*
D02*
G37*
G36*
X311051Y423158D02*
X309068Y422764D01*
X307388Y421642D01*
X306265Y419961D01*
X305871Y417979D01*
X306265Y415997D01*
X307388Y414316D01*
X309068Y413194D01*
X311051Y412799D01*
X313033Y413194D01*
X314713Y414316D01*
X315836Y415997D01*
X316230Y417979D01*
X315836Y419961D01*
X314713Y421642D01*
X313033Y422764D01*
X311051Y423158D01*
D02*
G37*
G36*
X344028Y419987D02*
X342046Y419593D01*
X340365Y418470D01*
X339242Y416790D01*
X338848Y414807D01*
X339242Y412825D01*
X340365Y411145D01*
X342046Y410022D01*
X344028Y409628D01*
X346010Y410022D01*
X347690Y411145D01*
X348813Y412825D01*
X349207Y414807D01*
X348813Y416790D01*
X347690Y418470D01*
X346010Y419593D01*
X344028Y419987D01*
D02*
G37*
G36*
X574674Y420290D02*
X572692Y419896D01*
X571011Y418773D01*
X569889Y417093D01*
X569494Y415111D01*
X569889Y413128D01*
X571011Y411448D01*
X572018Y410775D01*
X571979Y410718D01*
X571585Y408736D01*
X571979Y406754D01*
X573102Y405073D01*
X574783Y403950D01*
X576765Y403556D01*
X578747Y403950D01*
X580427Y405073D01*
X581550Y406754D01*
X581880Y408410D01*
X583778Y408788D01*
X585458Y409911D01*
X586581Y411591D01*
X586976Y413573D01*
X586581Y415555D01*
X585458Y417236D01*
X583778Y418359D01*
X581796Y418753D01*
X579814Y418359D01*
X578984Y417804D01*
X578336Y418773D01*
X576656Y419896D01*
X574674Y420290D01*
D02*
G37*
G36*
X602364Y419771D02*
X600381Y419377D01*
X598701Y418254D01*
X597578Y416573D01*
X597184Y414591D01*
X597578Y412609D01*
X598701Y410929D01*
X599149Y410630D01*
X598215Y409232D01*
X597821Y407250D01*
X598215Y405268D01*
X599338Y403587D01*
X601018Y402465D01*
X603000Y402071D01*
X604982Y402465D01*
X606662Y403587D01*
X607785Y405268D01*
X608180Y407250D01*
X607785Y409232D01*
X606662Y410913D01*
X606215Y411212D01*
X607149Y412609D01*
X607543Y414591D01*
X607149Y416573D01*
X606026Y418254D01*
X604346Y419377D01*
X602364Y419771D01*
D02*
G37*
G36*
X304043Y399001D02*
X302061Y398607D01*
X300381Y397484D01*
X300326Y397402D01*
X298959Y398315D01*
X296977Y398709D01*
X294995Y398315D01*
X293315Y397192D01*
X292192Y395512D01*
X291798Y393530D01*
X292192Y391548D01*
X293315Y389867D01*
X294995Y388745D01*
X295495Y388645D01*
X295309Y387712D01*
X295703Y385729D01*
X296826Y384049D01*
X298506Y382926D01*
X300488Y382532D01*
X302470Y382926D01*
X302658Y382622D01*
X302675Y382537D01*
X303798Y380857D01*
X305478Y379734D01*
X307460Y379340D01*
X309442Y379734D01*
X311123Y380857D01*
X312246Y382537D01*
X312640Y384519D01*
X312246Y386501D01*
X311123Y388181D01*
X309442Y389304D01*
X308746Y389443D01*
X308169Y390853D01*
X308829Y391840D01*
X309223Y393822D01*
X308829Y395804D01*
X307706Y397484D01*
X306026Y398607D01*
X304043Y399001D01*
D02*
G37*
G36*
X549000Y403180D02*
X547018Y402785D01*
X545337Y401662D01*
X544215Y399982D01*
X543820Y398000D01*
X544101Y396587D01*
X543509Y395175D01*
X541829Y394052D01*
X541420Y393440D01*
X540398D01*
X539992Y393588D01*
X538418Y394640D01*
X536436Y395034D01*
X534454Y394640D01*
X532773Y393517D01*
X531651Y391837D01*
X531256Y389855D01*
X531651Y387873D01*
X532773Y386192D01*
X534454Y385070D01*
X536436Y384675D01*
X538418Y385070D01*
X540098Y386192D01*
X540507Y386804D01*
X541529D01*
X541935Y386656D01*
X543509Y385604D01*
X545491Y385210D01*
X547473Y385604D01*
X549154Y386727D01*
X550276Y388407D01*
X550671Y390389D01*
X550390Y391802D01*
X550982Y393215D01*
X552663Y394338D01*
X553785Y396018D01*
X554179Y398000D01*
X553785Y399982D01*
X552663Y401662D01*
X550982Y402785D01*
X549000Y403180D01*
D02*
G37*
G36*
X394500Y413180D02*
X392518Y412785D01*
X390838Y411662D01*
X389715Y409982D01*
X389320Y408000D01*
X389715Y406018D01*
X390838Y404338D01*
X391519Y403882D01*
X391446Y402403D01*
X390337Y401662D01*
X389215Y399982D01*
X388820Y398000D01*
X389215Y396018D01*
X390337Y394338D01*
X392018Y393215D01*
X394000Y392821D01*
X395982Y393215D01*
X397663Y394338D01*
X398785Y396018D01*
X399179Y398000D01*
X398785Y399982D01*
X397663Y401662D01*
X396981Y402118D01*
X397054Y403597D01*
X398162Y404338D01*
X399285Y406018D01*
X399679Y408000D01*
X399285Y409982D01*
X398162Y411662D01*
X396482Y412785D01*
X394500Y413180D01*
D02*
G37*
G36*
X429569Y408522D02*
X427587Y408128D01*
X425907Y407005D01*
X424784Y405325D01*
X424390Y403343D01*
X424676Y401904D01*
X424348Y401839D01*
X422668Y400716D01*
X421545Y399036D01*
X421151Y397054D01*
X421545Y395072D01*
X422668Y393391D01*
X424348Y392269D01*
X425317Y392076D01*
X425266Y391820D01*
X425661Y389838D01*
X426783Y388158D01*
X428464Y387035D01*
X430446Y386641D01*
X432428Y387035D01*
X434108Y388158D01*
X435231Y389838D01*
X435625Y391820D01*
X435231Y393802D01*
X434108Y395482D01*
X432428Y396605D01*
X431459Y396798D01*
X431510Y397054D01*
X431224Y398492D01*
X431551Y398557D01*
X433232Y399680D01*
X434355Y401360D01*
X434749Y403343D01*
X434355Y405325D01*
X433232Y407005D01*
X431551Y408128D01*
X429569Y408522D01*
D02*
G37*
G36*
X474500Y401679D02*
X472518Y401285D01*
X470838Y400163D01*
X469715Y398482D01*
X469320Y396500D01*
X469715Y394518D01*
X470838Y392837D01*
X470318Y392251D01*
X470191Y392167D01*
X469068Y390486D01*
X468674Y388504D01*
X469068Y386522D01*
X470191Y384842D01*
X471872Y383719D01*
X473854Y383325D01*
X475836Y383719D01*
X477516Y384842D01*
X478639Y386522D01*
X479033Y388504D01*
X478639Y390486D01*
X477516Y392167D01*
X478036Y392753D01*
X478162Y392837D01*
X479285Y394518D01*
X479679Y396500D01*
X479285Y398482D01*
X478162Y400163D01*
X476482Y401285D01*
X474500Y401679D01*
D02*
G37*
G36*
X667500Y393974D02*
X665022Y393482D01*
X662922Y392078D01*
X661518Y389978D01*
X661026Y387500D01*
X661518Y385022D01*
X662922Y382922D01*
X665022Y381518D01*
X667500Y381026D01*
X669978Y381518D01*
X672078Y382922D01*
X673482Y385022D01*
X673974Y387500D01*
X673482Y389978D01*
X672078Y392078D01*
X669978Y393482D01*
X667500Y393974D01*
D02*
G37*
G36*
X255000Y384679D02*
X253018Y384285D01*
X251338Y383162D01*
X250215Y381482D01*
X249820Y379500D01*
X250215Y377518D01*
X251338Y375838D01*
X253018Y374715D01*
X255000Y374320D01*
X256982Y374715D01*
X258662Y375838D01*
X259785Y377518D01*
X260180Y379500D01*
X259785Y381482D01*
X258662Y383162D01*
X256982Y384285D01*
X255000Y384679D01*
D02*
G37*
G36*
X430000Y383929D02*
X428018Y383535D01*
X426338Y382412D01*
X425215Y380732D01*
X424821Y378750D01*
X425215Y376768D01*
X426338Y375088D01*
X428018Y373965D01*
X430000Y373571D01*
X431982Y373965D01*
X433662Y375088D01*
X434785Y376768D01*
X435179Y378750D01*
X434785Y380732D01*
X433662Y382412D01*
X431982Y383535D01*
X430000Y383929D01*
D02*
G37*
G36*
X752500Y413974D02*
X750022Y413482D01*
X747922Y412078D01*
X746518Y409978D01*
X746026Y407500D01*
X746518Y405022D01*
X747922Y402922D01*
Y402078D01*
X746518Y399978D01*
X746026Y397500D01*
X746518Y395022D01*
X747922Y392922D01*
Y392078D01*
X746518Y389978D01*
X746026Y387500D01*
X746518Y385022D01*
X747922Y382922D01*
Y382078D01*
X746518Y379978D01*
X746026Y377500D01*
X746518Y375022D01*
X747922Y372922D01*
X750022Y371518D01*
X752500Y371026D01*
X754978Y371518D01*
X757078Y372922D01*
X758482Y375022D01*
X758974Y377500D01*
X758482Y379978D01*
X757078Y382078D01*
Y382922D01*
X758482Y385022D01*
X758974Y387500D01*
X758482Y389978D01*
X757394Y391605D01*
X757179Y392500D01*
X757394Y393395D01*
X758482Y395022D01*
X758974Y397500D01*
X758482Y399978D01*
X757078Y402078D01*
Y402922D01*
X758482Y405022D01*
X758974Y407500D01*
X758482Y409978D01*
X757078Y412078D01*
X754978Y413482D01*
X752500Y413974D01*
D02*
G37*
G36*
X505750Y383929D02*
X503768Y383535D01*
X502088Y382412D01*
X500965Y380732D01*
X500570Y378750D01*
X500965Y376768D01*
X502088Y375088D01*
X503768Y373965D01*
X505750Y373571D01*
X507157Y373850D01*
X508423Y373994D01*
X509546Y372314D01*
X511226Y371191D01*
X513208Y370797D01*
X515191Y371191D01*
X516871Y372314D01*
X517994Y373994D01*
X518388Y375976D01*
X517994Y377958D01*
X516871Y379639D01*
X515191Y380762D01*
X513208Y381156D01*
X511801Y380876D01*
X510535Y380732D01*
X509412Y382412D01*
X507732Y383535D01*
X505750Y383929D01*
D02*
G37*
G36*
X112805Y396712D02*
X110823Y396317D01*
X109143Y395195D01*
X108020Y393514D01*
X107626Y391532D01*
X108020Y389550D01*
X109143Y387870D01*
X110823Y386747D01*
X112805Y386353D01*
X114787Y386747D01*
X115381Y387144D01*
X116088Y386087D01*
X117768Y384965D01*
X118994Y384721D01*
X119120Y384559D01*
X119476Y383330D01*
X118630Y382064D01*
X118236Y380082D01*
X118630Y378099D01*
X119753Y376419D01*
X121433Y375296D01*
X123415Y374902D01*
X125397Y375296D01*
X127078Y376419D01*
X128200Y378099D01*
X128595Y380082D01*
X128524Y380439D01*
X129715Y380768D01*
X130837Y379087D01*
X132518Y377965D01*
X134500Y377570D01*
X136482Y377965D01*
X137810Y378852D01*
X138726Y377937D01*
X138533Y377648D01*
X138139Y375665D01*
X138533Y373683D01*
X139656Y372003D01*
X141336Y370880D01*
X143318Y370486D01*
X145300Y370880D01*
X146980Y372003D01*
X148103Y373683D01*
X148497Y375665D01*
X148103Y377648D01*
X146980Y379328D01*
X145300Y380451D01*
X143818Y380746D01*
X143535Y382084D01*
X144663Y382837D01*
X145785Y384518D01*
X146180Y386500D01*
X145785Y388482D01*
X144663Y390163D01*
X142982Y391285D01*
X141000Y391679D01*
X139018Y391285D01*
X137338Y390163D01*
X136345Y388676D01*
X135793Y388395D01*
X135597Y388354D01*
X134285Y389227D01*
X134035Y390482D01*
X132913Y392163D01*
X131232Y393285D01*
X129250Y393680D01*
X127268Y393285D01*
X125637Y392195D01*
X125564Y392165D01*
X124154Y392303D01*
X123413Y393413D01*
X121732Y394535D01*
X119750Y394930D01*
X117768Y394535D01*
X117174Y394138D01*
X116468Y395195D01*
X114787Y396317D01*
X112805Y396712D01*
D02*
G37*
G36*
X372020Y386000D02*
Y369770D01*
X388250D01*
X388036Y371938D01*
X387033Y375245D01*
X385405Y378292D01*
X383213Y380963D01*
X380542Y383154D01*
X377495Y384783D01*
X374188Y385786D01*
X372020Y386000D01*
D02*
G37*
G36*
X369480D02*
X367312Y385786D01*
X364005Y384783D01*
X360958Y383154D01*
X358287Y380963D01*
X356096Y378292D01*
X354467Y375245D01*
X353464Y371938D01*
X353250Y369770D01*
X369480D01*
Y386000D01*
D02*
G37*
G36*
X624730Y379654D02*
X622748Y379260D01*
X621067Y378137D01*
X619945Y376457D01*
X619550Y374475D01*
X619945Y372493D01*
X621067Y370812D01*
X622748Y369690D01*
X624730Y369295D01*
X626712Y369690D01*
X628392Y370812D01*
X629515Y372493D01*
X629909Y374475D01*
X629515Y376457D01*
X628392Y378137D01*
X626712Y379260D01*
X624730Y379654D01*
D02*
G37*
G36*
X526697Y377396D02*
X524714Y377002D01*
X523034Y375879D01*
X521911Y374199D01*
X521517Y372217D01*
X521911Y370235D01*
X523034Y368554D01*
X524714Y367432D01*
X526697Y367037D01*
X528679Y367432D01*
X530359Y368554D01*
X531482Y370235D01*
X531876Y372217D01*
X531482Y374199D01*
X530359Y375879D01*
X528679Y377002D01*
X526697Y377396D01*
D02*
G37*
G36*
X607808Y376457D02*
X605826Y376063D01*
X604146Y374940D01*
X603023Y373260D01*
X602629Y371278D01*
X603023Y369296D01*
X604146Y367615D01*
X605826Y366492D01*
X607808Y366098D01*
X609790Y366492D01*
X611471Y367615D01*
X612593Y369296D01*
X612988Y371278D01*
X612593Y373260D01*
X611471Y374940D01*
X609790Y376063D01*
X607808Y376457D01*
D02*
G37*
G36*
X222039Y375493D02*
X220057Y375098D01*
X218377Y373976D01*
X217254Y372295D01*
X216860Y370313D01*
X217254Y368331D01*
X218377Y366651D01*
X220057Y365528D01*
X222039Y365134D01*
X224021Y365528D01*
X225702Y366651D01*
X226825Y368331D01*
X227219Y370313D01*
X226825Y372295D01*
X225702Y373976D01*
X224021Y375098D01*
X222039Y375493D01*
D02*
G37*
G36*
X255025Y368340D02*
X253042Y367946D01*
X251362Y366823D01*
X250239Y365143D01*
X249845Y363161D01*
X250239Y361178D01*
X251362Y359498D01*
X253042Y358375D01*
X255025Y357981D01*
X257007Y358375D01*
X258687Y359498D01*
X259810Y361178D01*
X260204Y363161D01*
X259810Y365143D01*
X258687Y366823D01*
X257007Y367946D01*
X255025Y368340D01*
D02*
G37*
G36*
X566659Y367549D02*
X564677Y367155D01*
X562996Y366032D01*
X561873Y364352D01*
X561479Y362370D01*
X561873Y360388D01*
X562996Y358707D01*
X564677Y357585D01*
X566659Y357190D01*
X568641Y357585D01*
X570321Y358707D01*
X571444Y360388D01*
X571838Y362370D01*
X571444Y364352D01*
X570321Y366032D01*
X568641Y367155D01*
X566659Y367549D01*
D02*
G37*
G36*
X184330Y364376D02*
X182348Y363981D01*
X180667Y362859D01*
X179545Y361178D01*
X179150Y359196D01*
X179545Y357214D01*
X180667Y355534D01*
X182348Y354411D01*
X184330Y354017D01*
X186312Y354411D01*
X187992Y355534D01*
X189115Y357214D01*
X189510Y359196D01*
X189115Y361178D01*
X187992Y362859D01*
X186312Y363981D01*
X184330Y364376D01*
D02*
G37*
G36*
X588000Y368148D02*
X586018Y367754D01*
X584338Y366632D01*
X583215Y364951D01*
X582821Y362969D01*
X583215Y360987D01*
X583885Y359985D01*
X583215Y358982D01*
X582821Y357000D01*
X583215Y355018D01*
X584338Y353338D01*
X586018Y352215D01*
X588000Y351820D01*
X589982Y352215D01*
X591662Y353338D01*
X592785Y355018D01*
X593180Y357000D01*
X592785Y358982D01*
X592116Y359985D01*
X592785Y360987D01*
X593180Y362969D01*
X592785Y364951D01*
X591662Y366632D01*
X589982Y367754D01*
X588000Y368148D01*
D02*
G37*
G36*
X41270Y367500D02*
Y351270D01*
X57500D01*
X57286Y353438D01*
X56283Y356745D01*
X54654Y359792D01*
X52463Y362463D01*
X49792Y364655D01*
X46745Y366283D01*
X43438Y367286D01*
X41270Y367500D01*
D02*
G37*
G36*
X38730Y367500D02*
X36562Y367286D01*
X33255Y366283D01*
X30208Y364655D01*
X27537Y362463D01*
X25345Y359792D01*
X23717Y356745D01*
X22714Y353438D01*
X22500Y351270D01*
X38730D01*
Y367500D01*
D02*
G37*
G36*
X388250Y367230D02*
X372020D01*
Y351000D01*
X374188Y351214D01*
X377495Y352217D01*
X380542Y353845D01*
X383213Y356037D01*
X385405Y358708D01*
X387033Y361755D01*
X388036Y365062D01*
X388250Y367230D01*
D02*
G37*
G36*
X369480D02*
X353250D01*
X353464Y365062D01*
X354467Y361755D01*
X356096Y358708D01*
X358287Y356037D01*
X360958Y353845D01*
X364005Y352217D01*
X367312Y351214D01*
X369480Y351000D01*
Y367230D01*
D02*
G37*
G36*
X631780Y366586D02*
X629798Y366191D01*
X628118Y365069D01*
X626995Y363388D01*
X626601Y361406D01*
X626995Y359424D01*
X628118Y357743D01*
X629230Y357000D01*
X628897Y356502D01*
X628503Y354520D01*
X628897Y352538D01*
X630020Y350858D01*
X631700Y349735D01*
X633682Y349341D01*
X635664Y349735D01*
X637345Y350858D01*
X638468Y352538D01*
X638862Y354520D01*
X638468Y356502D01*
X637345Y358182D01*
X636233Y358926D01*
X636566Y359424D01*
X636960Y361406D01*
X636566Y363388D01*
X635443Y365069D01*
X633762Y366191D01*
X631780Y366586D01*
D02*
G37*
G36*
X153165Y357332D02*
X151183Y356938D01*
X149503Y355816D01*
X148380Y354135D01*
X147986Y352153D01*
X148380Y350171D01*
X149503Y348490D01*
X151183Y347368D01*
X153165Y346973D01*
X155147Y347368D01*
X156828Y348490D01*
X157950Y350171D01*
X158345Y352153D01*
X157950Y354135D01*
X156828Y355816D01*
X155147Y356938D01*
X153165Y357332D01*
D02*
G37*
G36*
X137532Y356143D02*
X135550Y355748D01*
X133870Y354626D01*
X132747Y352945D01*
X132353Y350963D01*
X132747Y348981D01*
X133870Y347301D01*
X135550Y346178D01*
X137532Y345784D01*
X139514Y346178D01*
X141195Y347301D01*
X142317Y348981D01*
X142712Y350963D01*
X142317Y352945D01*
X141195Y354626D01*
X139514Y355748D01*
X137532Y356143D01*
D02*
G37*
G36*
X491195Y350916D02*
X489213Y350522D01*
X487533Y349399D01*
X486410Y347718D01*
X486016Y345736D01*
X486073Y345447D01*
X484930Y344683D01*
X484486Y344980D01*
X482503Y345374D01*
X480521Y344980D01*
X478841Y343857D01*
X477718Y342177D01*
X477324Y340195D01*
X477718Y338213D01*
X478841Y336532D01*
X480521Y335410D01*
X482503Y335015D01*
X484486Y335410D01*
X486166Y336532D01*
X487289Y338213D01*
X487683Y340195D01*
X487625Y340484D01*
X488768Y341248D01*
X489213Y340951D01*
X491195Y340557D01*
X493177Y340951D01*
X494858Y342074D01*
X495980Y343754D01*
X496375Y345736D01*
X495980Y347718D01*
X494858Y349399D01*
X493177Y350522D01*
X491195Y350916D01*
D02*
G37*
G36*
X220500Y353180D02*
X218518Y352785D01*
X216838Y351662D01*
X215715Y349982D01*
X215320Y348000D01*
X215715Y346018D01*
X216838Y344338D01*
X218518Y343215D01*
X220500Y342821D01*
X222482Y343215D01*
X224163Y344338D01*
X225285Y346018D01*
X225679Y348000D01*
X225285Y349982D01*
X224163Y351662D01*
X222482Y352785D01*
X220500Y353180D01*
D02*
G37*
G36*
X552250Y352179D02*
X550268Y351785D01*
X548588Y350662D01*
X547465Y348982D01*
X547071Y347000D01*
X547465Y345018D01*
X548588Y343338D01*
X550268Y342215D01*
X552250Y341820D01*
X554232Y342215D01*
X555913Y343338D01*
X557035Y345018D01*
X557430Y347000D01*
X557035Y348982D01*
X555913Y350662D01*
X554232Y351785D01*
X552250Y352179D01*
D02*
G37*
G36*
X439480Y352074D02*
X437498Y351680D01*
X435817Y350557D01*
X434694Y348876D01*
X434300Y346894D01*
X434694Y344912D01*
X435817Y343232D01*
X437498Y342109D01*
X439480Y341715D01*
X441462Y342109D01*
X443142Y343232D01*
X444265Y344912D01*
X444659Y346894D01*
X444265Y348876D01*
X443142Y350557D01*
X441462Y351680D01*
X439480Y352074D01*
D02*
G37*
G36*
X465000Y350929D02*
X463018Y350535D01*
X461338Y349412D01*
X460215Y347732D01*
X459821Y345750D01*
X460215Y343768D01*
X461338Y342088D01*
X463018Y340965D01*
X465000Y340570D01*
X466982Y340965D01*
X468662Y342088D01*
X469785Y343768D01*
X470179Y345750D01*
X469785Y347732D01*
X468662Y349412D01*
X466982Y350535D01*
X465000Y350929D01*
D02*
G37*
G36*
X340500Y355429D02*
X338518Y355035D01*
X336838Y353913D01*
X335715Y352232D01*
X335321Y350250D01*
X335158Y350088D01*
X334143Y349658D01*
X332268Y349285D01*
X330588Y348162D01*
X329465Y346482D01*
X329071Y344500D01*
X329465Y342518D01*
X330588Y340838D01*
X332268Y339715D01*
X334250Y339320D01*
X336232Y339715D01*
X337912Y340838D01*
X339035Y342518D01*
X339430Y344500D01*
X339592Y344662D01*
X340607Y345092D01*
X342482Y345465D01*
X344162Y346587D01*
X345285Y348268D01*
X345680Y350250D01*
X345285Y352232D01*
X344162Y353913D01*
X342482Y355035D01*
X340500Y355429D01*
D02*
G37*
G36*
X166765Y340139D02*
X164783Y339745D01*
X163103Y338622D01*
X162715Y338041D01*
X161781Y338665D01*
X159799Y339059D01*
X157817Y338665D01*
X156137Y337542D01*
X155014Y335862D01*
X154620Y333880D01*
X155014Y331898D01*
X156137Y330218D01*
X157817Y329095D01*
X159799Y328700D01*
X161781Y329095D01*
X163461Y330218D01*
X163849Y330798D01*
X164783Y330174D01*
X166765Y329780D01*
X168747Y330174D01*
X170427Y331297D01*
X171550Y332977D01*
X171945Y334959D01*
X171550Y336941D01*
X170427Y338622D01*
X168747Y339745D01*
X166765Y340139D01*
D02*
G37*
G36*
X38730Y348730D02*
X22500D01*
X22714Y346562D01*
X23717Y343255D01*
X25345Y340208D01*
X27537Y337537D01*
X30208Y335345D01*
X33255Y333717D01*
X36562Y332714D01*
X38730Y332500D01*
Y348730D01*
D02*
G37*
G36*
X57500D02*
X41270D01*
Y332500D01*
X43438Y332714D01*
X46745Y333717D01*
X49792Y335345D01*
X52463Y337537D01*
X54654Y340208D01*
X56283Y343255D01*
X57286Y346562D01*
X57500Y348730D01*
D02*
G37*
G36*
X185514Y341342D02*
X183532Y340947D01*
X181851Y339825D01*
X180728Y338144D01*
X180334Y336162D01*
X180728Y334180D01*
X181851Y332500D01*
X183532Y331377D01*
X185514Y330983D01*
X187496Y331377D01*
X189176Y332500D01*
X190299Y334180D01*
X190693Y336162D01*
X190299Y338144D01*
X189176Y339825D01*
X187496Y340947D01*
X185514Y341342D01*
D02*
G37*
G36*
X145939Y338725D02*
X143957Y338331D01*
X142276Y337208D01*
X141154Y335528D01*
X140759Y333546D01*
X141154Y331564D01*
X142276Y329883D01*
X143957Y328760D01*
X145939Y328366D01*
X147921Y328760D01*
X149601Y329883D01*
X150724Y331564D01*
X151118Y333546D01*
X150724Y335528D01*
X149601Y337208D01*
X147921Y338331D01*
X145939Y338725D01*
D02*
G37*
G36*
X98631Y336375D02*
X96649Y335981D01*
X94969Y334858D01*
X93846Y333178D01*
X93452Y331196D01*
X93846Y329214D01*
X94969Y327533D01*
X96649Y326411D01*
X98631Y326016D01*
X100613Y326411D01*
X102294Y327533D01*
X103417Y329214D01*
X103811Y331196D01*
X103417Y333178D01*
X102294Y334858D01*
X100613Y335981D01*
X98631Y336375D01*
D02*
G37*
G36*
X533526Y331016D02*
X531544Y330621D01*
X529864Y329498D01*
X528741Y327818D01*
X528347Y325836D01*
X528502Y325057D01*
X527306Y324561D01*
X527165Y324771D01*
X525485Y325894D01*
X523503Y326288D01*
X521521Y325894D01*
X519840Y324771D01*
X518718Y323091D01*
X518323Y321109D01*
X518718Y319127D01*
X519387Y318124D01*
X518718Y317122D01*
X518323Y315140D01*
X518718Y313158D01*
X519840Y311477D01*
X521521Y310355D01*
X523503Y309960D01*
X525485Y310355D01*
X527165Y311477D01*
X528288Y313158D01*
X528682Y315140D01*
X528288Y317122D01*
X527618Y318124D01*
X528288Y319127D01*
X528682Y321109D01*
X528527Y321888D01*
X529724Y322383D01*
X529864Y322174D01*
X531544Y321051D01*
X533526Y320657D01*
X535509Y321051D01*
X537189Y322174D01*
X538312Y323854D01*
X538706Y325836D01*
X538312Y327818D01*
X537189Y329498D01*
X535509Y330621D01*
X533526Y331016D01*
D02*
G37*
G36*
X118903Y334425D02*
X116921Y334031D01*
X115241Y332908D01*
X114118Y331228D01*
X113724Y329245D01*
X114118Y327263D01*
X115241Y325583D01*
X116921Y324460D01*
X118903Y324066D01*
X120885Y324460D01*
X122566Y325583D01*
X123688Y327263D01*
X124083Y329245D01*
X123688Y331228D01*
X122566Y332908D01*
X120885Y334031D01*
X118903Y334425D01*
D02*
G37*
G36*
X580358Y328727D02*
X578376Y328333D01*
X576696Y327210D01*
X575573Y325530D01*
X575179Y323548D01*
X575573Y321566D01*
X576696Y319885D01*
X578376Y318762D01*
X580358Y318368D01*
X582340Y318762D01*
X584021Y319885D01*
X585144Y321566D01*
X585538Y323548D01*
X585144Y325530D01*
X584021Y327210D01*
X582340Y328333D01*
X580358Y328727D01*
D02*
G37*
G36*
X751361Y327692D02*
X749379Y327298D01*
X747698Y326175D01*
X746575Y324495D01*
X746181Y322513D01*
X746575Y320531D01*
X747698Y318850D01*
X749379Y317727D01*
X751361Y317333D01*
X753343Y317727D01*
X755023Y318850D01*
X756146Y320531D01*
X756540Y322513D01*
X756146Y324495D01*
X755023Y326175D01*
X753343Y327298D01*
X751361Y327692D01*
D02*
G37*
G36*
X640000Y327179D02*
X638018Y326785D01*
X636338Y325662D01*
X635215Y323982D01*
X634821Y322000D01*
X635215Y320018D01*
X636338Y318337D01*
X638018Y317215D01*
X640000Y316821D01*
X641982Y317215D01*
X643662Y318337D01*
X644785Y320018D01*
X645180Y322000D01*
X644785Y323982D01*
X643662Y325662D01*
X641982Y326785D01*
X640000Y327179D01*
D02*
G37*
G36*
X720250Y332929D02*
X718268Y332535D01*
X716588Y331413D01*
X715465Y329732D01*
X715070Y327750D01*
X715465Y325768D01*
X716588Y324087D01*
X718268Y322965D01*
X720239Y322573D01*
X720582Y322497D01*
X721363Y321715D01*
X721320Y321500D01*
X721715Y319518D01*
X722838Y317838D01*
X724518Y316715D01*
X726500Y316320D01*
X728482Y316715D01*
X730163Y317838D01*
X731285Y319518D01*
X731680Y321500D01*
X731285Y323482D01*
X730163Y325163D01*
X728482Y326285D01*
X726511Y326677D01*
X726168Y326753D01*
X725387Y327535D01*
X725430Y327750D01*
X725035Y329732D01*
X723913Y331413D01*
X722232Y332535D01*
X720250Y332929D01*
D02*
G37*
G36*
X201623Y330650D02*
X199641Y330255D01*
X197960Y329133D01*
X196838Y327452D01*
X196444Y325470D01*
X196838Y323488D01*
X197960Y321808D01*
X199641Y320685D01*
X201314Y320352D01*
X202553Y320069D01*
X202947Y318087D01*
X204069Y316406D01*
X205750Y315284D01*
X207732Y314889D01*
X209714Y315284D01*
X211395Y316406D01*
X212517Y318087D01*
X212911Y320069D01*
X212517Y322051D01*
X211395Y323731D01*
X209714Y324854D01*
X208041Y325187D01*
X206803Y325470D01*
X206408Y327452D01*
X205285Y329133D01*
X203605Y330255D01*
X201623Y330650D01*
D02*
G37*
G36*
X292000Y315180D02*
X290018Y314785D01*
X288337Y313662D01*
X287913D01*
X286232Y314785D01*
X284250Y315180D01*
X282268Y314785D01*
X280588Y313662D01*
X279465Y311982D01*
X279070Y310000D01*
X279465Y308018D01*
X280588Y306338D01*
X282268Y305215D01*
X284250Y304820D01*
X286232Y305215D01*
X287150Y305828D01*
X288125Y306246D01*
X289100Y305828D01*
X290018Y305215D01*
X292000Y304820D01*
X293982Y305215D01*
X295662Y306338D01*
X296785Y308018D01*
X297180Y310000D01*
X296785Y311982D01*
X295662Y313662D01*
X293982Y314785D01*
X292000Y315180D01*
D02*
G37*
G36*
X457990Y333446D02*
X456008Y333051D01*
X454328Y331928D01*
X453205Y330248D01*
X452810Y328266D01*
X453205Y326284D01*
X454328Y324604D01*
X456008Y323481D01*
X456543Y323374D01*
X456811Y322026D01*
X456657Y321923D01*
X455534Y320243D01*
X455140Y318260D01*
X455534Y316278D01*
X456657Y314598D01*
X458338Y313475D01*
X460320Y313081D01*
X462302Y313475D01*
X463982Y314598D01*
X465105Y316278D01*
X465499Y318260D01*
X465182Y319857D01*
X466982Y320215D01*
X468662Y321338D01*
X469785Y323018D01*
X470179Y325000D01*
X469785Y326982D01*
X468662Y328662D01*
X466982Y329785D01*
X465000Y330179D01*
X464119Y330004D01*
X462775Y330248D01*
X461652Y331928D01*
X459972Y333051D01*
X457990Y333446D01*
D02*
G37*
G36*
X69000Y320429D02*
X67018Y320035D01*
X65338Y318913D01*
X64215Y317232D01*
X63821Y315250D01*
X64134Y313675D01*
X63717Y313347D01*
X62964Y313045D01*
X61482Y314035D01*
X59500Y314429D01*
X57518Y314035D01*
X55837Y312913D01*
X54715Y311232D01*
X54321Y309250D01*
X54715Y307268D01*
X55837Y305588D01*
X57518Y304465D01*
X59500Y304070D01*
X61482Y304465D01*
X63162Y305588D01*
X64285Y307268D01*
X64679Y309250D01*
X64366Y310825D01*
X64783Y311153D01*
X65536Y311455D01*
X67018Y310465D01*
X69000Y310070D01*
X70133Y310296D01*
X71213Y309216D01*
X71070Y308500D01*
X71465Y306518D01*
X72587Y304837D01*
X74268Y303715D01*
X76250Y303321D01*
X78232Y303715D01*
X79913Y304837D01*
X81035Y306518D01*
X81430Y308500D01*
X81035Y310482D01*
X79913Y312162D01*
X78232Y313285D01*
X76250Y313680D01*
X75117Y313454D01*
X74037Y314534D01*
X74180Y315250D01*
X73785Y317232D01*
X72663Y318913D01*
X70982Y320035D01*
X69000Y320429D01*
D02*
G37*
G36*
X429034Y319035D02*
X427052Y318641D01*
X425371Y317518D01*
X424249Y315837D01*
X423940Y314288D01*
X422062Y313914D01*
X420381Y312792D01*
X419402Y311325D01*
X418211Y311815D01*
X418204Y311819D01*
X417810Y313800D01*
X416688Y315480D01*
X415007Y316603D01*
X413025Y316997D01*
X411043Y316603D01*
X409363Y315480D01*
X409002Y314940D01*
X407855Y315706D01*
X405873Y316101D01*
X403891Y315706D01*
X402210Y314584D01*
X401087Y312903D01*
X400693Y310921D01*
X401087Y308939D01*
X402210Y307259D01*
X403891Y306136D01*
X405873Y305742D01*
X407855Y306136D01*
X409535Y307259D01*
X409896Y307799D01*
X411043Y307032D01*
X413025Y306638D01*
X415007Y307032D01*
X416688Y308155D01*
X417667Y309621D01*
X418858Y309132D01*
X418865Y309127D01*
X419258Y307147D01*
X420381Y305467D01*
X422062Y304344D01*
X424044Y303950D01*
X426026Y304344D01*
X427706Y305467D01*
X428829Y307147D01*
X429137Y308696D01*
X431016Y309070D01*
X432696Y310193D01*
X433819Y311873D01*
X434213Y313855D01*
X433819Y315837D01*
X432696Y317518D01*
X431016Y318641D01*
X429034Y319035D01*
D02*
G37*
G36*
X225487Y315135D02*
X223505Y314741D01*
X221824Y313618D01*
X220701Y311938D01*
X220307Y309956D01*
X220701Y307974D01*
X221824Y306293D01*
X223505Y305171D01*
X225487Y304776D01*
X227469Y305171D01*
X229149Y306293D01*
X230272Y307974D01*
X230666Y309956D01*
X230272Y311938D01*
X229149Y313618D01*
X227469Y314741D01*
X225487Y315135D01*
D02*
G37*
G36*
X339703Y306264D02*
X337720Y305870D01*
X336796Y305252D01*
X335662Y304662D01*
X333982Y305785D01*
X332000Y306180D01*
X330018Y305785D01*
X328338Y304662D01*
X327215Y302982D01*
X326820Y301000D01*
X327215Y299018D01*
X328307Y297383D01*
X327196Y295721D01*
X326802Y293739D01*
X327196Y291757D01*
X328319Y290076D01*
X329999Y288954D01*
X331981Y288559D01*
X333964Y288954D01*
X335644Y290076D01*
X336767Y291757D01*
X337161Y293739D01*
X336838Y295361D01*
X337417Y295976D01*
X337677Y296183D01*
X337853Y296273D01*
X339703Y295905D01*
X341685Y296299D01*
X343365Y297422D01*
X344488Y299102D01*
X344882Y301084D01*
X344488Y303066D01*
X343365Y304747D01*
X341685Y305870D01*
X339703Y306264D01*
D02*
G37*
G36*
X539837Y305994D02*
X537855Y305600D01*
X536174Y304477D01*
X535978Y304183D01*
X535853D01*
X534173Y305306D01*
X532191Y305700D01*
X530209Y305306D01*
X528528Y304183D01*
X527405Y302503D01*
X527011Y300521D01*
X527405Y298539D01*
X528528Y296858D01*
X530209Y295736D01*
X532191Y295341D01*
X534173Y295736D01*
X535853Y296858D01*
X536050Y297152D01*
X536174D01*
X537855Y296030D01*
X539837Y295635D01*
X541819Y296030D01*
X543499Y297152D01*
X544622Y298833D01*
X545016Y300815D01*
X544622Y302797D01*
X543499Y304477D01*
X541819Y305600D01*
X539837Y305994D01*
D02*
G37*
G36*
X550899Y312855D02*
X548917Y312461D01*
X547237Y311338D01*
X546114Y309658D01*
X545720Y307675D01*
X546114Y305693D01*
X547237Y304013D01*
X548917Y302890D01*
X550899Y302496D01*
X552881Y302890D01*
X553918Y303583D01*
X554183Y303186D01*
X555864Y302063D01*
X557846Y301669D01*
X559828Y302063D01*
X561508Y303186D01*
X562631Y304866D01*
X563025Y306848D01*
X562631Y308831D01*
X561508Y310511D01*
X559828Y311634D01*
X557846Y312028D01*
X555864Y311634D01*
X554827Y310941D01*
X554562Y311338D01*
X552881Y312461D01*
X550899Y312855D01*
D02*
G37*
G36*
X166290Y310933D02*
X164308Y310539D01*
X162627Y309416D01*
X161504Y307736D01*
X161110Y305754D01*
X161504Y303772D01*
X162627Y302091D01*
X164308Y300968D01*
X166290Y300574D01*
X168272Y300968D01*
X169952Y302091D01*
X171075Y303772D01*
X171469Y305754D01*
X171075Y307736D01*
X169952Y309416D01*
X168272Y310539D01*
X166290Y310933D01*
D02*
G37*
G36*
X486496Y310691D02*
X484514Y310296D01*
X482833Y309174D01*
X481711Y307493D01*
X481316Y305511D01*
X481711Y303529D01*
X482833Y301849D01*
X484514Y300726D01*
X486496Y300332D01*
X488478Y300726D01*
X490158Y301849D01*
X491281Y303529D01*
X491675Y305511D01*
X491281Y307493D01*
X490158Y309174D01*
X488478Y310296D01*
X486496Y310691D01*
D02*
G37*
G36*
X37897Y308671D02*
X35915Y308276D01*
X34235Y307154D01*
X33112Y305473D01*
X32718Y303491D01*
X33112Y301509D01*
X34235Y299829D01*
X35915Y298706D01*
X37897Y298312D01*
X39879Y298706D01*
X41560Y299829D01*
X42682Y301509D01*
X43077Y303491D01*
X42682Y305473D01*
X41560Y307154D01*
X39879Y308276D01*
X37897Y308671D01*
D02*
G37*
G36*
X103726Y309411D02*
X101744Y309017D01*
X100064Y307894D01*
X98941Y306213D01*
X98547Y304231D01*
X98941Y302249D01*
X100064Y300569D01*
X101744Y299446D01*
X103726Y299052D01*
X105708Y299446D01*
X107389Y300569D01*
X107682D01*
X108337Y299587D01*
X110018Y298465D01*
X112000Y298071D01*
X113982Y298465D01*
X115662Y299587D01*
X116785Y301268D01*
X117179Y303250D01*
X116785Y305232D01*
X115662Y306912D01*
X113982Y308035D01*
X112000Y308430D01*
X110018Y308035D01*
X108338Y306912D01*
X108044D01*
X107389Y307894D01*
X105708Y309017D01*
X103726Y309411D01*
D02*
G37*
G36*
X963000Y308179D02*
X961018Y307785D01*
X959337Y306663D01*
X958215Y304982D01*
X957821Y303000D01*
X958215Y301018D01*
X959337Y299338D01*
X961018Y298215D01*
X963000Y297820D01*
X964982Y298215D01*
X966663Y299338D01*
X967785Y301018D01*
X968179Y303000D01*
X967785Y304982D01*
X966663Y306663D01*
X964982Y307785D01*
X963000Y308179D01*
D02*
G37*
G36*
X588468Y308957D02*
X586486Y308563D01*
X584805Y307440D01*
X583683Y305760D01*
X583288Y303777D01*
X583683Y301795D01*
X584805Y300115D01*
X586486Y298992D01*
X588468Y298598D01*
X588884Y298681D01*
X589215Y297018D01*
X590337Y295338D01*
X592018Y294215D01*
X594000Y293820D01*
X595982Y294215D01*
X597663Y295338D01*
X598242Y296206D01*
X599018Y297215D01*
X601000Y296821D01*
X602982Y297215D01*
X604663Y298337D01*
X605785Y300018D01*
X606180Y302000D01*
X605785Y303982D01*
X604663Y305662D01*
X602982Y306785D01*
X601000Y307180D01*
X599018Y306785D01*
X597337Y305662D01*
X596758Y304795D01*
X595982Y303785D01*
X594000Y304179D01*
X593584Y304097D01*
X593253Y305760D01*
X592130Y307440D01*
X590450Y308563D01*
X588468Y308957D01*
D02*
G37*
G36*
X146912Y306742D02*
X144930Y306347D01*
X143250Y305225D01*
X142127Y303544D01*
X141733Y301562D01*
X142127Y299580D01*
X143250Y297900D01*
X144930Y296777D01*
X146912Y296383D01*
X148895Y296777D01*
X150575Y297900D01*
X151698Y299580D01*
X152092Y301562D01*
X151698Y303544D01*
X150575Y305225D01*
X148895Y306347D01*
X146912Y306742D01*
D02*
G37*
G36*
X616438Y306471D02*
X614456Y306077D01*
X612776Y304954D01*
X611653Y303274D01*
X611259Y301292D01*
X611653Y299310D01*
X612776Y297629D01*
X614456Y296507D01*
X616438Y296112D01*
X618420Y296507D01*
X620101Y297629D01*
X621223Y299310D01*
X621618Y301292D01*
X621223Y303274D01*
X620101Y304954D01*
X618420Y306077D01*
X616438Y306471D01*
D02*
G37*
G36*
X125708Y305483D02*
X123726Y305089D01*
X122045Y303966D01*
X120923Y302285D01*
X120528Y300303D01*
X120923Y298321D01*
X122045Y296641D01*
X123726Y295518D01*
X125708Y295124D01*
X127690Y295518D01*
X129370Y296641D01*
X130493Y298321D01*
X130887Y300303D01*
X130493Y302285D01*
X129370Y303966D01*
X127690Y305089D01*
X125708Y305483D01*
D02*
G37*
G36*
X658390Y297944D02*
X656408Y297550D01*
X654728Y296427D01*
X653645Y294807D01*
X653391Y294520D01*
X652402Y294110D01*
X652041Y294351D01*
X650059Y294745D01*
X648077Y294351D01*
X646397Y293228D01*
X645274Y291548D01*
X644880Y289566D01*
X645274Y287584D01*
X646397Y285903D01*
X648077Y284781D01*
X650059Y284386D01*
X652041Y284781D01*
X653722Y285903D01*
X654805Y287524D01*
X655059Y287811D01*
X656048Y288220D01*
X656408Y287980D01*
X658390Y287585D01*
X660372Y287980D01*
X662053Y289102D01*
X663176Y290783D01*
X663570Y292765D01*
X663176Y294747D01*
X662053Y296427D01*
X660372Y297550D01*
X658390Y297944D01*
D02*
G37*
G36*
X438250Y303930D02*
X436268Y303535D01*
X434588Y302412D01*
X433465Y300732D01*
X433070Y298750D01*
X433465Y296768D01*
X434588Y295088D01*
X436268Y293965D01*
X438250Y293570D01*
X440232Y293965D01*
X441912Y295088D01*
X443035Y296768D01*
X443429Y298750D01*
X443035Y300732D01*
X441912Y302412D01*
X440232Y303535D01*
X438250Y303930D01*
D02*
G37*
G36*
X929492Y294599D02*
X927510Y294205D01*
X925999Y293195D01*
X924540Y294170D01*
X922558Y294564D01*
X920576Y294170D01*
X918896Y293047D01*
X917773Y291367D01*
X917638Y290690D01*
X916227Y290106D01*
X915839Y290366D01*
X913857Y290760D01*
X911874Y290366D01*
X910194Y289243D01*
X909071Y287563D01*
X908677Y285580D01*
X909071Y283598D01*
X910194Y281918D01*
X911874Y280795D01*
X913857Y280401D01*
X915839Y280795D01*
X917519Y281918D01*
X918642Y283598D01*
X918776Y284275D01*
X920187Y284859D01*
X920576Y284599D01*
X922558Y284205D01*
X924540Y284599D01*
X926052Y285609D01*
X927510Y284634D01*
X929492Y284240D01*
X931475Y284634D01*
X933155Y285757D01*
X934278Y287438D01*
X934672Y289420D01*
X934278Y291402D01*
X933155Y293082D01*
X931475Y294205D01*
X929492Y294599D01*
D02*
G37*
G36*
X182000Y293680D02*
X180018Y293285D01*
X178337Y292162D01*
X176770Y292102D01*
X175786Y292760D01*
X173804Y293154D01*
X171822Y292760D01*
X170141Y291637D01*
X169018Y289957D01*
X168624Y287975D01*
X169018Y285993D01*
X170141Y284312D01*
X171822Y283189D01*
X173804Y282795D01*
X175786Y283189D01*
X177466Y284312D01*
X179034Y284372D01*
X180018Y283715D01*
X182000Y283321D01*
X183982Y283715D01*
X185662Y284837D01*
X186785Y286518D01*
X187180Y288500D01*
X186785Y290482D01*
X185662Y292162D01*
X183982Y293285D01*
X182000Y293680D01*
D02*
G37*
G36*
X366985Y300145D02*
X365003Y299751D01*
X363323Y298628D01*
X362200Y296948D01*
X361806Y294966D01*
X362200Y292984D01*
X363323Y291304D01*
X365003Y290181D01*
X366985Y289786D01*
X368967Y290181D01*
X370648Y291304D01*
X371771Y292984D01*
X372165Y294966D01*
X371771Y296948D01*
X370648Y298628D01*
X368967Y299751D01*
X366985Y300145D01*
D02*
G37*
G36*
X382750Y299429D02*
X380768Y299035D01*
X379087Y297913D01*
X377965Y296232D01*
X377570Y294250D01*
X377965Y292268D01*
X379087Y290588D01*
X380768Y289465D01*
X382750Y289070D01*
X384732Y289465D01*
X386413Y290588D01*
X387535Y292268D01*
X387929Y294250D01*
X387535Y296232D01*
X386413Y297913D01*
X384732Y299035D01*
X382750Y299429D01*
D02*
G37*
G36*
X26500Y298680D02*
X24518Y298285D01*
X22838Y297162D01*
X21715Y295482D01*
X21321Y293500D01*
X21715Y291518D01*
X22838Y289837D01*
X24518Y288715D01*
X26500Y288321D01*
X28482Y288715D01*
X30162Y289837D01*
X31285Y291518D01*
X31679Y293500D01*
X31285Y295482D01*
X30162Y297162D01*
X28482Y298285D01*
X26500Y298680D01*
D02*
G37*
G36*
X235375Y297740D02*
X233393Y297346D01*
X231713Y296223D01*
X230590Y294543D01*
X230196Y292560D01*
X230590Y290578D01*
X231713Y288898D01*
X233393Y287775D01*
X235375Y287381D01*
X237358Y287775D01*
X239038Y288898D01*
X240161Y290578D01*
X240555Y292560D01*
X240161Y294543D01*
X239038Y296223D01*
X237358Y297346D01*
X235375Y297740D01*
D02*
G37*
G36*
X796138Y295547D02*
X794156Y295153D01*
X792475Y294030D01*
X791352Y292350D01*
X790958Y290368D01*
X791352Y288386D01*
X792475Y286705D01*
X794156Y285583D01*
X796138Y285188D01*
X798120Y285583D01*
X799800Y286705D01*
X800923Y288386D01*
X801317Y290368D01*
X800923Y292350D01*
X799800Y294030D01*
X798120Y295153D01*
X796138Y295547D01*
D02*
G37*
G36*
X310549Y295329D02*
X308567Y294935D01*
X306887Y293812D01*
X305764Y292132D01*
X305370Y290149D01*
X305764Y288167D01*
X306585Y286938D01*
X305572Y285423D01*
X305178Y283440D01*
X305279Y282933D01*
X304157Y282155D01*
X302175Y282549D01*
X300193Y282155D01*
X298512Y281032D01*
X297390Y279352D01*
X296996Y277370D01*
X297390Y275388D01*
X298512Y273707D01*
X300193Y272584D01*
X301098Y272404D01*
X301450Y270639D01*
X302572Y268959D01*
X304253Y267836D01*
X306235Y267442D01*
X308217Y267836D01*
X309897Y268959D01*
X311020Y270639D01*
X311414Y272621D01*
X311020Y274604D01*
X309897Y276284D01*
X308217Y277407D01*
X308496Y278631D01*
X310357Y278261D01*
X312340Y278655D01*
X314020Y279778D01*
X315143Y281458D01*
X315537Y283440D01*
X315143Y285423D01*
X314322Y286652D01*
X315334Y288167D01*
X315729Y290149D01*
X315334Y292132D01*
X314212Y293812D01*
X312531Y294935D01*
X310549Y295329D01*
D02*
G37*
G36*
X131632Y292026D02*
X129650Y291632D01*
X127969Y290509D01*
X126847Y288829D01*
X126452Y286847D01*
X126847Y284865D01*
X127969Y283184D01*
X129650Y282061D01*
X131632Y281667D01*
X133614Y282061D01*
X135294Y283184D01*
X136417Y284865D01*
X136811Y286847D01*
X136417Y288829D01*
X135294Y290509D01*
X133614Y291632D01*
X131632Y292026D01*
D02*
G37*
G36*
X816515Y279312D02*
X814532Y278918D01*
X812852Y277796D01*
X811729Y276115D01*
X811335Y274133D01*
X811729Y272151D01*
X812852Y270471D01*
X814532Y269348D01*
X816515Y268953D01*
X818497Y269348D01*
X819973Y270334D01*
X820123Y270111D01*
X821803Y268988D01*
X823785Y268594D01*
X825767Y268988D01*
X827448Y270111D01*
X828570Y271791D01*
X828964Y273773D01*
X828570Y275755D01*
X827448Y277436D01*
X825767Y278558D01*
X823785Y278953D01*
X821803Y278558D01*
X820327Y277572D01*
X820177Y277796D01*
X818497Y278918D01*
X816515Y279312D01*
D02*
G37*
G36*
X877750Y278179D02*
X875768Y277785D01*
X874088Y276663D01*
X872965Y274982D01*
X872570Y273000D01*
X872965Y271018D01*
X874088Y269338D01*
X875768Y268215D01*
X877750Y267820D01*
X879732Y268215D01*
X881413Y269338D01*
X882535Y271018D01*
X882930Y273000D01*
X882535Y274982D01*
X881413Y276663D01*
X879732Y277785D01*
X877750Y278179D01*
D02*
G37*
G36*
X498158Y276937D02*
X496176Y276543D01*
X494496Y275420D01*
X493373Y273740D01*
X492979Y271758D01*
X493373Y269776D01*
X494070Y268732D01*
X493513Y267899D01*
X493119Y265917D01*
X493513Y263934D01*
X494636Y262254D01*
X496317Y261131D01*
X498299Y260737D01*
X500281Y261131D01*
X501961Y262254D01*
X503084Y263934D01*
X503478Y265917D01*
X503084Y267899D01*
X502387Y268942D01*
X502943Y269776D01*
X503338Y271758D01*
X502943Y273740D01*
X501821Y275420D01*
X500140Y276543D01*
X498158Y276937D01*
D02*
G37*
G36*
X876478Y262913D02*
X874496Y262519D01*
X872815Y261396D01*
X871693Y259715D01*
X871408Y258287D01*
X870114D01*
X869996Y258876D01*
X868874Y260557D01*
X867193Y261679D01*
X865211Y262074D01*
X863229Y261679D01*
X861548Y260557D01*
X860426Y258876D01*
X860032Y256894D01*
X860426Y254912D01*
X861548Y253232D01*
X863229Y252109D01*
X865211Y251715D01*
X867193Y252109D01*
X868874Y253232D01*
X869996Y254912D01*
X870280Y256341D01*
X871575D01*
X871693Y255751D01*
X872815Y254071D01*
X874496Y252948D01*
X876478Y252554D01*
X878460Y252948D01*
X880140Y254071D01*
X881263Y255751D01*
X881657Y257733D01*
X881263Y259715D01*
X880140Y261396D01*
X878460Y262519D01*
X876478Y262913D01*
D02*
G37*
G36*
X152360Y257929D02*
X150378Y257535D01*
X149376Y256866D01*
X148373Y257535D01*
X146391Y257929D01*
X144409Y257535D01*
X142729Y256413D01*
X141606Y254732D01*
X141212Y252750D01*
X141606Y250768D01*
X142729Y249088D01*
X144409Y247965D01*
X146391Y247570D01*
X148373Y247965D01*
X149376Y248634D01*
X150378Y247965D01*
X152360Y247570D01*
X154342Y247965D01*
X156023Y249088D01*
X157145Y250768D01*
X157540Y252750D01*
X157145Y254732D01*
X156023Y256413D01*
X154342Y257535D01*
X152360Y257929D01*
D02*
G37*
G36*
X525750Y265930D02*
X523768Y265535D01*
X522088Y264412D01*
X520965Y262732D01*
X520570Y260750D01*
X520965Y258768D01*
X522088Y257087D01*
X523768Y255965D01*
X525750Y255571D01*
X527732Y255965D01*
X529412Y257087D01*
X530535Y258768D01*
X530929Y260750D01*
X530535Y262732D01*
X529412Y264412D01*
X527732Y265535D01*
X525750Y265930D01*
D02*
G37*
G36*
X386531Y266956D02*
X384549Y266562D01*
X382869Y265439D01*
X381746Y263759D01*
X381352Y261777D01*
X381746Y259795D01*
X382567Y258566D01*
X382337Y258412D01*
X381215Y256732D01*
X380821Y254750D01*
X381215Y252768D01*
X382337Y251087D01*
X384018Y249965D01*
X386000Y249571D01*
X387982Y249965D01*
X389663Y251087D01*
X390785Y252768D01*
X391180Y254750D01*
X390785Y256732D01*
X389964Y257961D01*
X390194Y258114D01*
X391317Y259795D01*
X391711Y261777D01*
X391317Y263759D01*
X390194Y265439D01*
X388513Y266562D01*
X386531Y266956D01*
D02*
G37*
G36*
X891750Y265040D02*
X889768Y264645D01*
X888088Y263523D01*
X886965Y261842D01*
X886571Y259860D01*
X886965Y257878D01*
X887635Y256876D01*
X886965Y255873D01*
X886571Y253891D01*
X886965Y251909D01*
X888088Y250229D01*
X889768Y249106D01*
X891750Y248712D01*
X893732Y249106D01*
X895413Y250229D01*
X896535Y251909D01*
X896929Y253891D01*
X896535Y255873D01*
X895865Y256876D01*
X896535Y257878D01*
X896929Y259860D01*
X896535Y261842D01*
X895413Y263523D01*
X893732Y264645D01*
X891750Y265040D01*
D02*
G37*
G36*
X557000Y260180D02*
X555018Y259785D01*
X553338Y258662D01*
X552215Y256982D01*
X551820Y255000D01*
X552215Y253018D01*
X553338Y251338D01*
X555018Y250215D01*
X557000Y249820D01*
X557876Y249995D01*
X559358Y249055D01*
X559465Y248518D01*
X560588Y246838D01*
X562268Y245715D01*
X564250Y245320D01*
X566232Y245715D01*
X567912Y246838D01*
X569035Y248518D01*
X569430Y250500D01*
X569035Y252482D01*
X567912Y254163D01*
X566232Y255285D01*
X564250Y255679D01*
X563374Y255505D01*
X561892Y256445D01*
X561785Y256982D01*
X560662Y258662D01*
X558982Y259785D01*
X557000Y260180D01*
D02*
G37*
G36*
X576750Y259111D02*
X574768Y258717D01*
X573088Y257595D01*
X571965Y255914D01*
X571571Y253932D01*
X571965Y251950D01*
X573088Y250270D01*
X574768Y249147D01*
X576750Y248752D01*
X577302Y247586D01*
X577465Y246768D01*
X578587Y245088D01*
X580268Y243965D01*
X582250Y243570D01*
X584232Y243965D01*
X585913Y245088D01*
X587035Y246768D01*
X587430Y248750D01*
X587035Y250732D01*
X585913Y252412D01*
X584232Y253535D01*
X582250Y253930D01*
X581698Y255096D01*
X581535Y255914D01*
X580412Y257595D01*
X578732Y258717D01*
X576750Y259111D01*
D02*
G37*
G36*
X202000Y257929D02*
X200018Y257535D01*
X198337Y256413D01*
X197215Y254732D01*
X196821Y252750D01*
X197215Y250768D01*
X198337Y249088D01*
X200018Y247965D01*
X202000Y247570D01*
X203112Y247792D01*
X203465Y246018D01*
X204587Y244338D01*
X206268Y243215D01*
X208250Y242820D01*
X210232Y243215D01*
X211912Y244338D01*
X213035Y246018D01*
X213430Y248000D01*
X213035Y249982D01*
X211912Y251663D01*
X210232Y252785D01*
X208250Y253179D01*
X207138Y252958D01*
X206785Y254732D01*
X205662Y256413D01*
X203982Y257535D01*
X202000Y257929D01*
D02*
G37*
G36*
X801000Y244179D02*
X799018Y243785D01*
X797337Y242663D01*
X796764Y241804D01*
X795236D01*
X794662Y242663D01*
X792982Y243785D01*
X791000Y244179D01*
X789018Y243785D01*
X787337Y242663D01*
X786215Y240982D01*
X785820Y239000D01*
X786215Y237018D01*
X787337Y235338D01*
X789018Y234215D01*
X791000Y233820D01*
X792982Y234215D01*
X794662Y235338D01*
X795236Y236196D01*
X796764D01*
X797337Y235338D01*
X799018Y234215D01*
X801000Y233820D01*
X802982Y234215D01*
X804662Y235338D01*
X805785Y237018D01*
X806180Y239000D01*
X805785Y240982D01*
X804662Y242663D01*
X802982Y243785D01*
X801000Y244179D01*
D02*
G37*
G36*
X640500Y257788D02*
X638518Y257394D01*
X636838Y256271D01*
X635715Y254591D01*
X635321Y252609D01*
X635715Y250627D01*
X636385Y249624D01*
X635715Y248622D01*
X635321Y246640D01*
X635715Y244658D01*
X636838Y242977D01*
X638518Y241855D01*
X640500Y241460D01*
X642482Y241855D01*
X644163Y242977D01*
X645285Y244658D01*
X645679Y246640D01*
X645285Y248622D01*
X644615Y249624D01*
X645285Y250627D01*
X645679Y252609D01*
X645285Y254591D01*
X644163Y256271D01*
X642482Y257394D01*
X640500Y257788D01*
D02*
G37*
G36*
X120502Y250370D02*
X118520Y249976D01*
X116840Y248853D01*
X115717Y247173D01*
X115323Y245191D01*
X115717Y243209D01*
X116840Y241528D01*
X118520Y240406D01*
X120502Y240011D01*
X122484Y240406D01*
X124164Y241528D01*
X125287Y243209D01*
X125681Y245191D01*
X125287Y247173D01*
X124164Y248853D01*
X122484Y249976D01*
X120502Y250370D01*
D02*
G37*
G36*
X152360Y240679D02*
X150378Y240285D01*
X149376Y239615D01*
X148373Y240285D01*
X146391Y240679D01*
X144409Y240285D01*
X142729Y239163D01*
X141606Y237482D01*
X141212Y235500D01*
X141606Y233518D01*
X142729Y231838D01*
X144409Y230715D01*
X146391Y230320D01*
X148373Y230715D01*
X149376Y231385D01*
X150378Y230715D01*
X152360Y230320D01*
X154342Y230715D01*
X156023Y231838D01*
X157145Y233518D01*
X157540Y235500D01*
X157145Y237482D01*
X156023Y239163D01*
X154342Y240285D01*
X152360Y240679D01*
D02*
G37*
G36*
X413819Y256943D02*
X411837Y256549D01*
X410156Y255426D01*
X409034Y253746D01*
X408639Y251764D01*
X409034Y249782D01*
X410156Y248101D01*
X411127Y247453D01*
X410270Y246170D01*
X409876Y244188D01*
X410270Y242206D01*
X411393Y240526D01*
X413073Y239403D01*
X415055Y239009D01*
X417038Y239403D01*
X418718Y240526D01*
X419841Y242206D01*
X420235Y244188D01*
X419841Y246170D01*
X418718Y247851D01*
X417747Y248499D01*
X418604Y249782D01*
X418998Y251764D01*
X418604Y253746D01*
X417481Y255426D01*
X415801Y256549D01*
X413819Y256943D01*
D02*
G37*
G36*
X907654Y255405D02*
X905672Y255011D01*
X903991Y253888D01*
X902869Y252208D01*
X902475Y250226D01*
X902869Y248243D01*
X903877Y246734D01*
X902866Y245221D01*
X902471Y243239D01*
X902866Y241257D01*
X903988Y239576D01*
X905669Y238454D01*
X907651Y238059D01*
X909633Y238454D01*
X911313Y239576D01*
X912436Y241257D01*
X912831Y243239D01*
X912436Y245221D01*
X911428Y246730D01*
X912439Y248243D01*
X912833Y250226D01*
X912439Y252208D01*
X911317Y253888D01*
X909636Y255011D01*
X907654Y255405D01*
D02*
G37*
G36*
X348941Y246431D02*
X346958Y246037D01*
X345278Y244914D01*
X344155Y243234D01*
X343761Y241252D01*
X344155Y239270D01*
X345278Y237589D01*
X346958Y236466D01*
X348941Y236072D01*
X350923Y236466D01*
X352603Y237589D01*
X353726Y239270D01*
X354120Y241252D01*
X353726Y243234D01*
X352603Y244914D01*
X350923Y246037D01*
X348941Y246431D01*
D02*
G37*
G36*
X40000Y265615D02*
X36954Y265315D01*
X34024Y264426D01*
X31325Y262983D01*
X28958Y261042D01*
X27016Y258675D01*
X25573Y255976D01*
X24685Y253046D01*
X24385Y250000D01*
X24685Y246954D01*
X25573Y244024D01*
X27016Y241325D01*
X28958Y238958D01*
X31325Y237017D01*
X34024Y235574D01*
X36954Y234685D01*
X40000Y234385D01*
X43046Y234685D01*
X45976Y235574D01*
X48675Y237017D01*
X51042Y238958D01*
X52983Y241325D01*
X54426Y244024D01*
X55315Y246954D01*
X55615Y250000D01*
X55315Y253046D01*
X54426Y255976D01*
X52983Y258675D01*
X51042Y261042D01*
X48675Y262983D01*
X45976Y264426D01*
X43046Y265315D01*
X40000Y265615D01*
D02*
G37*
G36*
X300713Y261868D02*
X298731Y261474D01*
X297050Y260351D01*
X295928Y258671D01*
X295533Y256688D01*
X295928Y254706D01*
X297050Y253026D01*
X298731Y251903D01*
X300309Y251589D01*
X300673Y250305D01*
X299338Y249412D01*
X298215Y247732D01*
X297820Y245750D01*
X298215Y243768D01*
X299338Y242087D01*
X299465Y242003D01*
Y240733D01*
X299420Y240703D01*
X298297Y239023D01*
X297903Y237040D01*
X298297Y235058D01*
X299420Y233378D01*
X301101Y232255D01*
X303083Y231861D01*
X305065Y232255D01*
X306745Y233378D01*
X307868Y235058D01*
X308262Y237040D01*
X307868Y239023D01*
X306745Y240703D01*
X306618Y240788D01*
Y242058D01*
X306663Y242087D01*
X307785Y243768D01*
X308179Y245750D01*
X307785Y247732D01*
X306663Y249412D01*
X304982Y250535D01*
X303404Y250849D01*
X303040Y252134D01*
X304375Y253026D01*
X305498Y254706D01*
X305892Y256688D01*
X305498Y258671D01*
X304375Y260351D01*
X302695Y261474D01*
X300713Y261868D01*
D02*
G37*
G36*
X376235Y241125D02*
X374253Y240731D01*
X372573Y239608D01*
X371450Y237928D01*
X371056Y235946D01*
X371450Y233964D01*
X372573Y232283D01*
X374253Y231161D01*
X376235Y230766D01*
X378217Y231161D01*
X379898Y232283D01*
X381021Y233964D01*
X381415Y235946D01*
X381021Y237928D01*
X379898Y239608D01*
X378217Y240731D01*
X376235Y241125D01*
D02*
G37*
G36*
X399250Y238179D02*
X397268Y237785D01*
X395588Y236663D01*
X394465Y234982D01*
X394071Y233000D01*
X394465Y231018D01*
X395588Y229338D01*
X397268Y228215D01*
X399250Y227820D01*
X401232Y228215D01*
X402912Y229338D01*
X404035Y231018D01*
X404430Y233000D01*
X404035Y234982D01*
X402912Y236663D01*
X401232Y237785D01*
X399250Y238179D01*
D02*
G37*
G36*
X942250Y243538D02*
X940268Y243144D01*
X938587Y242021D01*
X937465Y240341D01*
X937070Y238359D01*
X937465Y236377D01*
X938135Y235374D01*
X937465Y234372D01*
X937070Y232390D01*
X937465Y230408D01*
X938587Y228727D01*
X940268Y227605D01*
X942250Y227210D01*
X944232Y227605D01*
X945912Y228727D01*
X947035Y230408D01*
X947430Y232390D01*
X947035Y234372D01*
X946366Y235374D01*
X947035Y236377D01*
X947430Y238359D01*
X947035Y240341D01*
X945912Y242021D01*
X944232Y243144D01*
X942250Y243538D01*
D02*
G37*
G36*
X646500Y240288D02*
X644518Y239894D01*
X642838Y238771D01*
X641715Y237091D01*
X641320Y235109D01*
X641715Y233127D01*
X642384Y232124D01*
X641715Y231122D01*
X641320Y229140D01*
X641715Y227158D01*
X642838Y225477D01*
X644518Y224355D01*
X646500Y223960D01*
X648482Y224355D01*
X650163Y225477D01*
X651285Y227158D01*
X651680Y229140D01*
X651285Y231122D01*
X650615Y232124D01*
X651285Y233127D01*
X651680Y235109D01*
X651285Y237091D01*
X650163Y238771D01*
X648482Y239894D01*
X646500Y240288D01*
D02*
G37*
G36*
X669750Y233038D02*
X667768Y232644D01*
X666087Y231521D01*
X664965Y229841D01*
X664570Y227859D01*
X664965Y225877D01*
X665635Y224874D01*
X664965Y223872D01*
X664570Y221890D01*
X664965Y219908D01*
X666087Y218227D01*
X667768Y217105D01*
X669750Y216710D01*
X671732Y217105D01*
X673412Y218227D01*
X674535Y219908D01*
X674930Y221890D01*
X674535Y223872D01*
X673866Y224874D01*
X674535Y225877D01*
X674930Y227859D01*
X674535Y229841D01*
X673412Y231521D01*
X671732Y232644D01*
X669750Y233038D01*
D02*
G37*
G36*
X341432Y226158D02*
X339450Y225763D01*
X337769Y224641D01*
X336647Y222960D01*
X336252Y220978D01*
X336647Y218996D01*
X337769Y217316D01*
X339450Y216193D01*
X341432Y215799D01*
X343414Y216193D01*
X345094Y217316D01*
X346217Y218996D01*
X346611Y220978D01*
X346217Y222960D01*
X345094Y224641D01*
X343414Y225763D01*
X341432Y226158D01*
D02*
G37*
G36*
X599230Y209786D02*
Y209730D01*
X519230D01*
Y209786D01*
X515434Y209286D01*
X511897Y207821D01*
X508859Y205490D01*
X506529Y202453D01*
X505064Y198916D01*
X504564Y195120D01*
X504620D01*
Y185120D01*
X504564D01*
X505064Y181325D01*
X506529Y177788D01*
X508859Y174750D01*
X511897Y172420D01*
X515434Y170955D01*
X519230Y170455D01*
Y170511D01*
X599230D01*
Y170455D01*
X603025Y170955D01*
X606562Y172420D01*
X609599Y174750D01*
X611930Y177788D01*
X613395Y181325D01*
X613812Y184489D01*
X615022Y185115D01*
X615162Y185114D01*
X615271Y185041D01*
X617253Y184647D01*
X619236Y185041D01*
X620916Y186164D01*
X622039Y187844D01*
X622433Y189826D01*
X622039Y191808D01*
X620916Y193489D01*
X619236Y194611D01*
X617253Y195006D01*
X615271Y194611D01*
X614959Y194403D01*
X614697Y194543D01*
X613883Y195211D01*
X613395Y198916D01*
X611930Y202453D01*
X609599Y205490D01*
X606562Y207821D01*
X603025Y209286D01*
X599230Y209786D01*
D02*
G37*
G36*
X295914Y215180D02*
X293932Y214785D01*
X292251Y213662D01*
X291129Y211982D01*
X290734Y210000D01*
X291129Y208018D01*
X292251Y206338D01*
X293932Y205215D01*
X295914Y204820D01*
X297896Y205215D01*
X299576Y206338D01*
X300699Y208018D01*
X301093Y210000D01*
X300699Y211982D01*
X299576Y213662D01*
X297896Y214785D01*
X295914Y215180D01*
D02*
G37*
G36*
X123778Y213357D02*
X121796Y212963D01*
X120116Y211840D01*
X118993Y210160D01*
X118599Y208178D01*
X118993Y206196D01*
X120116Y204515D01*
X121796Y203392D01*
X123778Y202998D01*
X125760Y203392D01*
X127441Y204515D01*
X128563Y206196D01*
X128958Y208178D01*
X128563Y210160D01*
X127441Y211840D01*
X125760Y212963D01*
X123778Y213357D01*
D02*
G37*
G36*
X274500Y211180D02*
X272518Y210785D01*
X270837Y209662D01*
X269715Y207982D01*
X269321Y206000D01*
X269715Y204018D01*
X270837Y202337D01*
X272518Y201215D01*
X274500Y200821D01*
X276482Y201215D01*
X278162Y202337D01*
X279285Y204018D01*
X279680Y206000D01*
X279285Y207982D01*
X278162Y209662D01*
X276482Y210785D01*
X274500Y211180D01*
D02*
G37*
G36*
X820693Y210451D02*
X818711Y210057D01*
X817031Y208934D01*
X815908Y207254D01*
X815514Y205271D01*
X815908Y203289D01*
X817031Y201609D01*
X818711Y200486D01*
X820693Y200092D01*
X822675Y200486D01*
X824356Y201609D01*
X824874Y202384D01*
X826360Y202324D01*
X827087Y201237D01*
X828767Y200114D01*
X830749Y199720D01*
X832731Y200114D01*
X834412Y201237D01*
X835535Y202917D01*
X835929Y204899D01*
X835535Y206881D01*
X834412Y208561D01*
X832731Y209684D01*
X830749Y210079D01*
X828767Y209684D01*
X827087Y208561D01*
X826569Y207786D01*
X825082Y207847D01*
X824356Y208934D01*
X822675Y210057D01*
X820693Y210451D01*
D02*
G37*
G36*
X286000Y209429D02*
X284018Y209035D01*
X282337Y207913D01*
X281215Y206232D01*
X280821Y204250D01*
X281215Y202268D01*
X282337Y200588D01*
X284018Y199465D01*
X286000Y199070D01*
X287982Y199465D01*
X289662Y200588D01*
X290785Y202268D01*
X291180Y204250D01*
X290785Y206232D01*
X289662Y207913D01*
X287982Y209035D01*
X286000Y209429D01*
D02*
G37*
G36*
X648423Y210961D02*
X646441Y210566D01*
X644761Y209443D01*
X643638Y207763D01*
X643244Y205781D01*
X643638Y203799D01*
X644255Y202875D01*
X644029Y201196D01*
X643929Y201130D01*
X642806Y199449D01*
X642412Y197467D01*
X642806Y195485D01*
X643929Y193805D01*
X645609Y192682D01*
X647591Y192288D01*
X649573Y192682D01*
X651254Y193805D01*
X652376Y195485D01*
X652771Y197467D01*
X652376Y199449D01*
X651759Y200373D01*
X651986Y202052D01*
X652086Y202119D01*
X653208Y203799D01*
X653603Y205781D01*
X653208Y207763D01*
X652086Y209443D01*
X650405Y210566D01*
X648423Y210961D01*
D02*
G37*
G36*
X253750Y199259D02*
X251768Y198865D01*
X250088Y197742D01*
X248965Y196062D01*
X248570Y194080D01*
X248965Y192098D01*
X250088Y190417D01*
X251768Y189295D01*
X253750Y188900D01*
X255732Y189295D01*
X257412Y190417D01*
X258535Y192098D01*
X258930Y194080D01*
X258535Y196062D01*
X257412Y197742D01*
X255732Y198865D01*
X253750Y199259D01*
D02*
G37*
G36*
X280000Y199179D02*
X278018Y198785D01*
X276338Y197663D01*
X275215Y195982D01*
X274820Y194000D01*
X275215Y192018D01*
X276338Y190338D01*
X278018Y189215D01*
X280000Y188820D01*
X281982Y189215D01*
X283662Y190338D01*
X284785Y192018D01*
X285180Y194000D01*
X284785Y195982D01*
X283662Y197663D01*
X281982Y198785D01*
X280000Y199179D01*
D02*
G37*
G36*
X775145Y208837D02*
X772524Y208492D01*
X770082Y207480D01*
X767984Y205871D01*
X766375Y203773D01*
X765363Y201331D01*
X765018Y198710D01*
X765363Y196089D01*
X766375Y193647D01*
X767984Y191549D01*
X770082Y189940D01*
X772524Y188928D01*
X775145Y188583D01*
X777766Y188928D01*
X780208Y189940D01*
X782306Y191549D01*
X783915Y193647D01*
X784927Y196089D01*
X785272Y198710D01*
X784927Y201331D01*
X783915Y203773D01*
X782306Y205871D01*
X780208Y207480D01*
X777766Y208492D01*
X775145Y208837D01*
D02*
G37*
G36*
X749745D02*
X747124Y208492D01*
X744682Y207480D01*
X742584Y205871D01*
X740975Y203773D01*
X739964Y201331D01*
X739618Y198710D01*
X739964Y196089D01*
X740975Y193647D01*
X742584Y191549D01*
X744682Y189940D01*
X747124Y188928D01*
X749745Y188583D01*
X752366Y188928D01*
X754808Y189940D01*
X756906Y191549D01*
X758515Y193647D01*
X759527Y196089D01*
X759872Y198710D01*
X759527Y201331D01*
X758515Y203773D01*
X756906Y205871D01*
X754808Y207480D01*
X752366Y208492D01*
X749745Y208837D01*
D02*
G37*
G36*
X724345D02*
X721724Y208492D01*
X719282Y207480D01*
X717184Y205871D01*
X715575Y203773D01*
X714564Y201331D01*
X714218Y198710D01*
X714564Y196089D01*
X715575Y193647D01*
X717184Y191549D01*
X719282Y189940D01*
X721724Y188928D01*
X724345Y188583D01*
X726966Y188928D01*
X729408Y189940D01*
X731506Y191549D01*
X733115Y193647D01*
X734127Y196089D01*
X734472Y198710D01*
X734127Y201331D01*
X733115Y203773D01*
X731506Y205871D01*
X729408Y207480D01*
X726966Y208492D01*
X724345Y208837D01*
D02*
G37*
G36*
X698945D02*
X696324Y208492D01*
X693882Y207480D01*
X691784Y205871D01*
X690175Y203773D01*
X689164Y201331D01*
X688818Y198710D01*
X689164Y196089D01*
X690175Y193647D01*
X691784Y191549D01*
X693882Y189940D01*
X696324Y188928D01*
X698945Y188583D01*
X701566Y188928D01*
X704008Y189940D01*
X706106Y191549D01*
X707715Y193647D01*
X708727Y196089D01*
X709072Y198710D01*
X708727Y201331D01*
X707715Y203773D01*
X706106Y205871D01*
X704008Y207480D01*
X701566Y208492D01*
X698945Y208837D01*
D02*
G37*
G36*
X673545D02*
X670924Y208492D01*
X668482Y207480D01*
X666384Y205871D01*
X664775Y203773D01*
X663764Y201331D01*
X663418Y198710D01*
X663764Y196089D01*
X664775Y193647D01*
X666384Y191549D01*
X668482Y189940D01*
X670924Y188928D01*
X673545Y188583D01*
X676166Y188928D01*
X678608Y189940D01*
X680706Y191549D01*
X682315Y193647D01*
X683327Y196089D01*
X683672Y198710D01*
X683327Y201331D01*
X682315Y203773D01*
X680706Y205871D01*
X678608Y207480D01*
X676166Y208492D01*
X673545Y208837D01*
D02*
G37*
G36*
X630875Y201008D02*
X628893Y200613D01*
X627212Y199491D01*
X626090Y197810D01*
X625695Y195828D01*
X626090Y193846D01*
X627166Y192236D01*
X626775Y191975D01*
X625652Y190295D01*
X625258Y188312D01*
X625652Y186330D01*
X626775Y184650D01*
X628455Y183527D01*
X630438Y183133D01*
X632420Y183527D01*
X634100Y184650D01*
X635223Y186330D01*
X635617Y188312D01*
X635223Y190295D01*
X634147Y191905D01*
X634538Y192166D01*
X635660Y193846D01*
X636054Y195828D01*
X635660Y197810D01*
X634538Y199491D01*
X632857Y200613D01*
X630875Y201008D01*
D02*
G37*
G36*
X278000Y187430D02*
X276018Y187035D01*
X274338Y185912D01*
X273215Y184232D01*
X272820Y182250D01*
X273215Y180268D01*
X274338Y178587D01*
X276018Y177465D01*
X278000Y177071D01*
X279982Y177465D01*
X281663Y178587D01*
X282785Y180268D01*
X283179Y182250D01*
X282785Y184232D01*
X281663Y185912D01*
X279982Y187035D01*
X278000Y187430D01*
D02*
G37*
G36*
X260379D02*
X258397Y187035D01*
X256717Y185912D01*
X255594Y184232D01*
X255200Y182250D01*
X255594Y180268D01*
X256717Y178587D01*
X258397Y177465D01*
X260379Y177071D01*
X262361Y177465D01*
X264042Y178587D01*
X265164Y180268D01*
X265559Y182250D01*
X265164Y184232D01*
X264042Y185912D01*
X262361Y187035D01*
X260379Y187430D01*
D02*
G37*
G36*
X65500Y185180D02*
X63518Y184785D01*
X61838Y183662D01*
X60715Y181982D01*
X60321Y180000D01*
X60715Y178018D01*
X61838Y176338D01*
X63518Y175215D01*
X65500Y174820D01*
X67482Y175215D01*
X69163Y176338D01*
X70285Y178018D01*
X70679Y180000D01*
X70285Y181982D01*
X69163Y183662D01*
X67482Y184785D01*
X65500Y185180D01*
D02*
G37*
G36*
X787845Y183437D02*
X785224Y183092D01*
X782782Y182080D01*
X780684Y180471D01*
X779075Y178373D01*
X778064Y175931D01*
X777718Y173310D01*
X778064Y170689D01*
X779075Y168247D01*
X780684Y166149D01*
X782782Y164540D01*
X785224Y163528D01*
X787845Y163183D01*
X790466Y163528D01*
X792908Y164540D01*
X795006Y166149D01*
X796615Y168247D01*
X797627Y170689D01*
X797972Y173310D01*
X797627Y175931D01*
X796615Y178373D01*
X795006Y180471D01*
X792908Y182080D01*
X790466Y183092D01*
X787845Y183437D01*
D02*
G37*
G36*
X762445D02*
X759824Y183092D01*
X757382Y182080D01*
X755284Y180471D01*
X753675Y178373D01*
X752663Y175931D01*
X752318Y173310D01*
X752663Y170689D01*
X753675Y168247D01*
X755284Y166149D01*
X757382Y164540D01*
X759824Y163528D01*
X762445Y163183D01*
X765066Y163528D01*
X767508Y164540D01*
X769606Y166149D01*
X771215Y168247D01*
X772227Y170689D01*
X772572Y173310D01*
X772227Y175931D01*
X771215Y178373D01*
X769606Y180471D01*
X767508Y182080D01*
X765066Y183092D01*
X762445Y183437D01*
D02*
G37*
G36*
X737045D02*
X734424Y183092D01*
X731982Y182080D01*
X729884Y180471D01*
X728275Y178373D01*
X727263Y175931D01*
X726918Y173310D01*
X727263Y170689D01*
X728275Y168247D01*
X729884Y166149D01*
X731982Y164540D01*
X734424Y163528D01*
X737045Y163183D01*
X739666Y163528D01*
X742108Y164540D01*
X744206Y166149D01*
X745815Y168247D01*
X746827Y170689D01*
X747172Y173310D01*
X746827Y175931D01*
X745815Y178373D01*
X744206Y180471D01*
X742108Y182080D01*
X739666Y183092D01*
X737045Y183437D01*
D02*
G37*
G36*
X711645D02*
X709024Y183092D01*
X706582Y182080D01*
X704484Y180471D01*
X702875Y178373D01*
X701863Y175931D01*
X701518Y173310D01*
X701863Y170689D01*
X702875Y168247D01*
X704484Y166149D01*
X706582Y164540D01*
X709024Y163528D01*
X711645Y163183D01*
X714266Y163528D01*
X716708Y164540D01*
X718806Y166149D01*
X720415Y168247D01*
X721427Y170689D01*
X721772Y173310D01*
X721427Y175931D01*
X720415Y178373D01*
X718806Y180471D01*
X716708Y182080D01*
X714266Y183092D01*
X711645Y183437D01*
D02*
G37*
G36*
X686245D02*
X683624Y183092D01*
X681182Y182080D01*
X679084Y180471D01*
X677475Y178373D01*
X676463Y175931D01*
X676118Y173310D01*
X676463Y170689D01*
X677475Y168247D01*
X679084Y166149D01*
X681182Y164540D01*
X683624Y163528D01*
X686245Y163183D01*
X688866Y163528D01*
X691308Y164540D01*
X693406Y166149D01*
X695015Y168247D01*
X696027Y170689D01*
X696372Y173310D01*
X696027Y175931D01*
X695015Y178373D01*
X693406Y180471D01*
X691308Y182080D01*
X688866Y183092D01*
X686245Y183437D01*
D02*
G37*
G36*
X323250Y172430D02*
X321268Y172035D01*
X319587Y170912D01*
X318465Y169232D01*
X318071Y167250D01*
X318465Y165268D01*
X319587Y163587D01*
X321268Y162465D01*
X323250Y162071D01*
X325232Y162465D01*
X326912Y163587D01*
X328035Y165268D01*
X328429Y167250D01*
X328035Y169232D01*
X326912Y170912D01*
X325232Y172035D01*
X323250Y172430D01*
D02*
G37*
G36*
X985985Y194385D02*
X884015D01*
X883640Y194310D01*
X883257D01*
X881325Y193926D01*
X880972Y193779D01*
X880596Y193705D01*
X878777Y192951D01*
X878459Y192738D01*
X878105Y192592D01*
X876467Y191497D01*
X876197Y191227D01*
X875879Y191014D01*
X874486Y189621D01*
X874273Y189303D01*
X874003Y189033D01*
X872908Y187395D01*
X872762Y187041D01*
X872549Y186723D01*
X871795Y184903D01*
X871721Y184528D01*
X871574Y184175D01*
X871190Y182243D01*
Y181860D01*
X871115Y181485D01*
Y169495D01*
X871190Y169120D01*
Y168737D01*
X871573Y166809D01*
X871720Y166456D01*
X871795Y166080D01*
X872547Y164265D01*
X872759Y163947D01*
X872906Y163593D01*
X873997Y161959D01*
X874268Y161688D01*
X874481Y161370D01*
X875870Y159981D01*
X876189Y159768D01*
X876459Y159497D01*
X878093Y158406D01*
X878447Y158259D01*
X878765Y158047D01*
X880581Y157294D01*
X880956Y157220D01*
X881309Y157073D01*
X883237Y156690D01*
X883620D01*
X883995Y156615D01*
X884978D01*
X985000Y156615D01*
X985985D01*
X986360Y156690D01*
X986743D01*
X988675Y157074D01*
X989028Y157221D01*
X989404Y157295D01*
X991223Y158049D01*
X991542Y158262D01*
X991895Y158408D01*
X993533Y159502D01*
X993803Y159773D01*
X994121Y159986D01*
X995514Y161378D01*
X995727Y161696D01*
X995997Y161967D01*
X997092Y163605D01*
X997238Y163958D01*
X997451Y164277D01*
X998205Y166096D01*
X998279Y166472D01*
X998426Y166825D01*
X998810Y168757D01*
Y169140D01*
X998885Y169515D01*
Y181485D01*
X998810Y181860D01*
Y182243D01*
X998426Y184175D01*
X998279Y184528D01*
X998205Y184903D01*
X997451Y186723D01*
X997238Y187041D01*
X997092Y187395D01*
X995997Y189033D01*
X995727Y189303D01*
X995514Y189621D01*
X994121Y191014D01*
X993803Y191227D01*
X993533Y191497D01*
X991895Y192592D01*
X991542Y192738D01*
X991223Y192951D01*
X989404Y193705D01*
X989028Y193779D01*
X988675Y193926D01*
X986743Y194310D01*
X986360D01*
X985985Y194385D01*
D02*
G37*
G36*
X235985D02*
X134015D01*
X133640Y194310D01*
X133257D01*
X131325Y193926D01*
X130972Y193779D01*
X130597Y193705D01*
X128777Y192951D01*
X128459Y192738D01*
X128105Y192592D01*
X126467Y191497D01*
X126197Y191227D01*
X125879Y191014D01*
X124486Y189621D01*
X124273Y189303D01*
X124003Y189033D01*
X122908Y187395D01*
X122762Y187041D01*
X122549Y186723D01*
X121795Y184903D01*
X121721Y184528D01*
X121574Y184175D01*
X121190Y182243D01*
Y181860D01*
X121115Y181485D01*
Y169515D01*
X121190Y169140D01*
Y168757D01*
X121574Y166825D01*
X121721Y166472D01*
X121795Y166096D01*
X122549Y164277D01*
X122762Y163958D01*
X122908Y163605D01*
X124003Y161967D01*
X124273Y161696D01*
X124486Y161378D01*
X125879Y159986D01*
X126197Y159773D01*
X126467Y159502D01*
X128105Y158408D01*
X128459Y158262D01*
X128777Y158049D01*
X130597Y157295D01*
X130972Y157221D01*
X131325Y157074D01*
X133257Y156690D01*
X133640D01*
X134015Y156615D01*
X235985D01*
X236360Y156690D01*
X236743D01*
X238675Y157074D01*
X239028Y157221D01*
X239403Y157295D01*
X241223Y158049D01*
X241542Y158262D01*
X241895Y158408D01*
X243533Y159502D01*
X243803Y159773D01*
X244121Y159986D01*
X245514Y161378D01*
X245727Y161696D01*
X245998Y161967D01*
X247092Y163605D01*
X247238Y163958D01*
X247451Y164277D01*
X248205Y166096D01*
X248279Y166472D01*
X248426Y166825D01*
X248810Y168757D01*
Y169140D01*
X248885Y169515D01*
Y181485D01*
X248810Y181860D01*
Y182243D01*
X248426Y184175D01*
X248279Y184528D01*
X248205Y184903D01*
X247451Y186723D01*
X247238Y187041D01*
X247092Y187395D01*
X245998Y189033D01*
X245727Y189303D01*
X245514Y189621D01*
X244121Y191014D01*
X243803Y191227D01*
X243533Y191497D01*
X241895Y192592D01*
X241542Y192738D01*
X241223Y192951D01*
X239403Y193705D01*
X239028Y193779D01*
X238675Y193926D01*
X236743Y194310D01*
X236360D01*
X235985Y194385D01*
D02*
G37*
G36*
X366000Y166929D02*
X364018Y166535D01*
X362337Y165413D01*
X361215Y163732D01*
X360821Y161750D01*
X361215Y159768D01*
X362337Y158088D01*
X364018Y156965D01*
X366000Y156571D01*
X367982Y156965D01*
X369663Y158088D01*
X370785Y159768D01*
X371180Y161750D01*
X370785Y163732D01*
X369663Y165413D01*
X367982Y166535D01*
X366000Y166929D01*
D02*
G37*
G36*
X461983Y158798D02*
X460001Y158403D01*
X458321Y157281D01*
X457198Y155600D01*
X456828Y155685D01*
X456773Y155722D01*
X454790Y156117D01*
X452808Y155722D01*
X451128Y154600D01*
X450005Y152919D01*
X449611Y150937D01*
X450005Y148955D01*
X451128Y147275D01*
X452808Y146152D01*
X454790Y145758D01*
X456773Y146152D01*
X458453Y147275D01*
X458945Y148011D01*
X460001Y148833D01*
X461983Y148439D01*
X463965Y148833D01*
X465646Y149956D01*
X466769Y151636D01*
X467163Y153618D01*
X466769Y155600D01*
X465646Y157281D01*
X463965Y158403D01*
X461983Y158798D01*
D02*
G37*
G36*
X518693Y163839D02*
X516711Y163445D01*
X515031Y162322D01*
X513908Y160642D01*
X513514Y158660D01*
X513908Y156678D01*
X515031Y154997D01*
X516711Y153875D01*
X518693Y153480D01*
X520675Y153875D01*
X522356Y154997D01*
X523479Y156678D01*
X523873Y158660D01*
X523479Y160642D01*
X522356Y162322D01*
X520675Y163445D01*
X518693Y163839D01*
D02*
G37*
G36*
X41270Y167500D02*
Y151270D01*
X57500D01*
X57286Y153439D01*
X56283Y156745D01*
X54654Y159792D01*
X52463Y162463D01*
X49792Y164655D01*
X46745Y166283D01*
X43438Y167286D01*
X41270Y167500D01*
D02*
G37*
G36*
X38730Y167500D02*
X36562Y167286D01*
X33255Y166283D01*
X30208Y164655D01*
X27537Y162463D01*
X25345Y159792D01*
X23717Y156745D01*
X22714Y153439D01*
X22500Y151270D01*
X38730D01*
Y167500D01*
D02*
G37*
G36*
X673545Y159518D02*
X670593Y159129D01*
X667841Y157989D01*
X665479Y156176D01*
X663666Y153814D01*
X662526Y151062D01*
X662391Y150038D01*
X661165Y149710D01*
X660420Y150680D01*
X657383Y153011D01*
X653846Y154476D01*
X651320Y154808D01*
Y140310D01*
Y125812D01*
X653846Y126144D01*
X657383Y127609D01*
X660420Y129940D01*
X662751Y132977D01*
X664216Y136514D01*
X664571Y139213D01*
X664646Y139282D01*
X665917Y139707D01*
X667841Y138231D01*
X670593Y137091D01*
X673545Y136702D01*
X676498Y137091D01*
X679249Y138231D01*
X681611Y140044D01*
X683424Y142406D01*
X684564Y145157D01*
X684953Y148110D01*
X684564Y151062D01*
X683424Y153814D01*
X681611Y156176D01*
X679249Y157989D01*
X676498Y159129D01*
X673545Y159518D01*
D02*
G37*
G36*
X562679Y157055D02*
X560697Y156661D01*
X559017Y155538D01*
X557894Y153858D01*
X557500Y151876D01*
X557894Y149894D01*
X559017Y148213D01*
X560697Y147090D01*
X562679Y146696D01*
X564661Y147090D01*
X566342Y148213D01*
X567464Y149894D01*
X567859Y151876D01*
X567464Y153858D01*
X566342Y155538D01*
X564661Y156661D01*
X562679Y157055D01*
D02*
G37*
G36*
X252322Y156358D02*
X250340Y155963D01*
X248659Y154841D01*
X247537Y153160D01*
X247142Y151178D01*
X247537Y149196D01*
X248659Y147516D01*
X250340Y146393D01*
X252322Y145999D01*
X254304Y146393D01*
X255984Y147516D01*
X257107Y149196D01*
X257501Y151178D01*
X257107Y153160D01*
X255984Y154841D01*
X254304Y155963D01*
X252322Y156358D01*
D02*
G37*
G36*
X812610Y154808D02*
Y141580D01*
X825838D01*
X825506Y144106D01*
X824041Y147643D01*
X821710Y150680D01*
X818673Y153011D01*
X815136Y154476D01*
X812610Y154808D01*
D02*
G37*
G36*
X648780D02*
X646254Y154476D01*
X642717Y153011D01*
X639680Y150680D01*
X637349Y147643D01*
X635884Y144106D01*
X635552Y141580D01*
X648780D01*
Y154808D01*
D02*
G37*
G36*
X240500Y148680D02*
X238518Y148285D01*
X236838Y147163D01*
X235715Y145482D01*
X235320Y143500D01*
X235715Y141518D01*
X236838Y139838D01*
X238518Y138715D01*
X240500Y138321D01*
X242482Y138715D01*
X244163Y139838D01*
X245285Y141518D01*
X245679Y143500D01*
X245285Y145482D01*
X244163Y147163D01*
X242482Y148285D01*
X240500Y148680D01*
D02*
G37*
G36*
X274750Y147929D02*
X272768Y147535D01*
X271087Y146412D01*
X269965Y144732D01*
X269571Y142750D01*
X269965Y140768D01*
X271087Y139087D01*
X272768Y137965D01*
X274750Y137570D01*
X276732Y137965D01*
X278412Y139087D01*
X279535Y140768D01*
X279930Y142750D01*
X279535Y144732D01*
X278412Y146412D01*
X276732Y147535D01*
X274750Y147929D01*
D02*
G37*
G36*
X38730Y148730D02*
X22500D01*
X22714Y146562D01*
X23717Y143255D01*
X25345Y140208D01*
X27537Y137537D01*
X30208Y135345D01*
X33255Y133717D01*
X36562Y132714D01*
X38730Y132500D01*
Y148730D01*
D02*
G37*
G36*
X57500D02*
X41270D01*
Y132500D01*
X43438Y132714D01*
X46745Y133717D01*
X49792Y135345D01*
X52463Y137537D01*
X54654Y140208D01*
X56283Y143255D01*
X57286Y146562D01*
X57500Y148730D01*
D02*
G37*
G36*
X843616Y147567D02*
X841138Y147075D01*
X839037Y145671D01*
X837634Y143571D01*
X837141Y141093D01*
X837634Y138615D01*
X839037Y136515D01*
X841138Y135111D01*
X842715Y134798D01*
X843018Y133272D01*
X844422Y131172D01*
X846522Y129768D01*
X849000Y129276D01*
X851478Y129768D01*
X853578Y131172D01*
X854982Y133272D01*
X855474Y135750D01*
X854982Y138228D01*
X853578Y140328D01*
X851478Y141732D01*
X849901Y142045D01*
X849597Y143571D01*
X848194Y145671D01*
X846093Y147075D01*
X843616Y147567D01*
D02*
G37*
G36*
X128750Y144125D02*
X125312Y143786D01*
X122005Y142783D01*
X118958Y141154D01*
X117274Y139772D01*
X128750Y128296D01*
X140226Y139772D01*
X138542Y141154D01*
X135495Y142783D01*
X132188Y143786D01*
X128750Y144125D01*
D02*
G37*
G36*
X459862Y128680D02*
X457880Y128285D01*
X456877Y127615D01*
X455875Y128285D01*
X453893Y128680D01*
X451911Y128285D01*
X450230Y127163D01*
X449108Y125482D01*
X448713Y123500D01*
X449108Y121518D01*
X450230Y119838D01*
X451911Y118715D01*
X453893Y118321D01*
X455875Y118715D01*
X456877Y119384D01*
X457880Y118715D01*
X459862Y118321D01*
X461844Y118715D01*
X463524Y119838D01*
X464647Y121518D01*
X465041Y123500D01*
X464647Y125482D01*
X463524Y127163D01*
X461844Y128285D01*
X459862Y128680D01*
D02*
G37*
G36*
X825838Y139040D02*
X812610D01*
Y125812D01*
X815136Y126144D01*
X818673Y127609D01*
X821710Y129940D01*
X824041Y132977D01*
X825506Y136514D01*
X825838Y139040D01*
D02*
G37*
G36*
X787845Y159518D02*
X784893Y159129D01*
X782141Y157989D01*
X779779Y156176D01*
X777966Y153814D01*
X776826Y151062D01*
X776438Y148110D01*
X776826Y145157D01*
X777966Y142406D01*
X779779Y140044D01*
X782141Y138231D01*
X784893Y137091D01*
X787845Y136702D01*
X790798Y137091D01*
X793549Y138231D01*
X795473Y139707D01*
X796744Y139282D01*
X796819Y139213D01*
X797174Y136514D01*
X798639Y132977D01*
X800970Y129940D01*
X804007Y127609D01*
X807544Y126144D01*
X810070Y125812D01*
Y140310D01*
Y154808D01*
X807544Y154476D01*
X804007Y153011D01*
X800970Y150680D01*
X800226Y149710D01*
X798999Y150038D01*
X798864Y151062D01*
X797724Y153814D01*
X795911Y156176D01*
X793549Y157989D01*
X790798Y159129D01*
X787845Y159518D01*
D02*
G37*
G36*
X648780Y139040D02*
X635552D01*
X635884Y136514D01*
X637349Y132977D01*
X639680Y129940D01*
X642717Y127609D01*
X646254Y126144D01*
X648780Y125812D01*
Y139040D01*
D02*
G37*
G36*
X606116Y135970D02*
X604134Y135575D01*
X602453Y134453D01*
X601331Y132772D01*
X600936Y130790D01*
X601331Y128808D01*
X602453Y127128D01*
X604134Y126005D01*
X606116Y125611D01*
X608098Y126005D01*
X609778Y127128D01*
X610901Y128808D01*
X611296Y130790D01*
X610901Y132772D01*
X609778Y134453D01*
X608098Y135575D01*
X606116Y135970D01*
D02*
G37*
G36*
X762445Y146818D02*
X759493Y146429D01*
X756741Y145289D01*
X754379Y143476D01*
X752566Y141114D01*
X751426Y138363D01*
X751038Y135410D01*
X751426Y132458D01*
X752566Y129706D01*
X754379Y127344D01*
X756741Y125531D01*
X759493Y124391D01*
X762445Y124002D01*
X765398Y124391D01*
X768149Y125531D01*
X770511Y127344D01*
X772324Y129706D01*
X773464Y132458D01*
X773853Y135410D01*
X773464Y138363D01*
X772324Y141114D01*
X770511Y143476D01*
X768149Y145289D01*
X765398Y146429D01*
X762445Y146818D01*
D02*
G37*
G36*
X698945D02*
X695993Y146429D01*
X693241Y145289D01*
X690879Y143476D01*
X689066Y141114D01*
X687926Y138363D01*
X687538Y135410D01*
X687926Y132458D01*
X689066Y129706D01*
X690879Y127344D01*
X693241Y125531D01*
X695993Y124391D01*
X698945Y124002D01*
X701898Y124391D01*
X704649Y125531D01*
X707011Y127344D01*
X708824Y129706D01*
X709964Y132458D01*
X710353Y135410D01*
X709964Y138363D01*
X708824Y141114D01*
X707011Y143476D01*
X704649Y145289D01*
X701898Y146429D01*
X698945Y146818D01*
D02*
G37*
G36*
X993601Y135065D02*
X991123Y134572D01*
X989023Y133169D01*
X987619Y131068D01*
X987126Y128590D01*
X987619Y126113D01*
X989023Y124012D01*
X991123Y122609D01*
X993601Y122116D01*
X996078Y122609D01*
X997498Y123557D01*
X999204Y122417D01*
X1001682Y121924D01*
X1004160Y122417D01*
X1005858Y123552D01*
X1007859Y122215D01*
X1010337Y121722D01*
X1012814Y122215D01*
X1014915Y123619D01*
X1016318Y125719D01*
X1016811Y128197D01*
X1016318Y130674D01*
X1014915Y132775D01*
X1012814Y134178D01*
X1010337Y134671D01*
X1007859Y134178D01*
X1006160Y133043D01*
X1004160Y134380D01*
X1001682Y134873D01*
X999204Y134380D01*
X997785Y133432D01*
X996078Y134572D01*
X993601Y135065D01*
D02*
G37*
G36*
X954814Y133933D02*
X952336Y133441D01*
X950236Y132037D01*
X948832Y129937D01*
X948340Y127459D01*
X948832Y124981D01*
X950236Y122881D01*
X952336Y121477D01*
X954814Y120985D01*
X957292Y121477D01*
X958802Y122486D01*
X960422Y121403D01*
X962900Y120911D01*
X965378Y121403D01*
X967005Y122491D01*
X967900Y122706D01*
X968795Y122491D01*
X970422Y121403D01*
X972900Y120911D01*
X975378Y121403D01*
X977478Y122807D01*
X978882Y124907D01*
X979374Y127385D01*
X978882Y129863D01*
X977478Y131963D01*
X975378Y133367D01*
X972900Y133859D01*
X970422Y133367D01*
X968795Y132279D01*
X967900Y132064D01*
X967005Y132279D01*
X965378Y133367D01*
X962900Y133859D01*
X960422Y133367D01*
X958913Y132358D01*
X957292Y133441D01*
X954814Y133933D01*
D02*
G37*
G36*
X1048500Y151615D02*
X1045454Y151315D01*
X1042524Y150427D01*
X1039825Y148983D01*
X1037458Y147042D01*
X1035517Y144675D01*
X1034073Y141976D01*
X1033185Y139046D01*
X1032885Y136000D01*
X1033185Y132954D01*
X1034073Y130024D01*
X1035517Y127325D01*
X1037458Y124958D01*
X1039825Y123017D01*
X1042524Y121573D01*
X1045454Y120685D01*
X1048500Y120385D01*
X1051546Y120685D01*
X1054476Y121573D01*
X1057175Y123017D01*
X1059542Y124958D01*
X1061484Y127325D01*
X1062927Y130024D01*
X1063815Y132954D01*
X1064115Y136000D01*
X1063815Y139046D01*
X1062927Y141976D01*
X1061484Y144675D01*
X1059542Y147042D01*
X1057175Y148983D01*
X1054476Y150427D01*
X1051546Y151315D01*
X1048500Y151615D01*
D02*
G37*
G36*
X115478Y137976D02*
X114095Y136292D01*
X112467Y133245D01*
X111464Y129938D01*
X111125Y126500D01*
X111464Y123062D01*
X112467Y119755D01*
X114095Y116708D01*
X115478Y115024D01*
X126954Y126500D01*
X115478Y137976D01*
D02*
G37*
G36*
X142022Y137976D02*
X130546Y126500D01*
X142022Y115024D01*
X143405Y116708D01*
X145033Y119755D01*
X146036Y123062D01*
X146375Y126500D01*
X146036Y129938D01*
X145033Y133245D01*
X143405Y136292D01*
X142022Y137976D01*
D02*
G37*
G36*
X633625Y126054D02*
X631643Y125660D01*
X629963Y124537D01*
X628840Y122857D01*
X628446Y120875D01*
X628840Y118893D01*
X629963Y117212D01*
X631643Y116090D01*
X633371Y115746D01*
X633715Y114018D01*
X634837Y112338D01*
X636518Y111215D01*
X638500Y110821D01*
X640482Y111215D01*
X642162Y112338D01*
X643285Y114018D01*
X643680Y116000D01*
X643285Y117982D01*
X642162Y119663D01*
X640482Y120785D01*
X638754Y121129D01*
X638410Y122857D01*
X637287Y124537D01*
X635607Y125660D01*
X633625Y126054D01*
D02*
G37*
G36*
X128750Y124704D02*
X117274Y113228D01*
X118958Y111846D01*
X122005Y110217D01*
X125312Y109214D01*
X128750Y108875D01*
X132188Y109214D01*
X135495Y110217D01*
X138542Y111846D01*
X140226Y113228D01*
X128750Y124704D01*
D02*
G37*
G36*
X939750Y119794D02*
X937272Y119302D01*
X935172Y117898D01*
X933768Y115798D01*
X933276Y113320D01*
X933768Y110842D01*
X935172Y108742D01*
X937272Y107338D01*
X939750Y106846D01*
X942228Y107338D01*
X944328Y108742D01*
X945732Y110842D01*
X946224Y113320D01*
X945732Y115798D01*
X944328Y117898D01*
X942228Y119302D01*
X939750Y119794D01*
D02*
G37*
G36*
X313092Y110945D02*
X311110Y110551D01*
X309430Y109428D01*
X308307Y107748D01*
X307999Y106200D01*
X306697Y105862D01*
X306162Y106663D01*
X304482Y107785D01*
X302500Y108180D01*
X300518Y107785D01*
X298838Y106663D01*
X297715Y104982D01*
X297320Y103000D01*
X297715Y101018D01*
X298838Y99338D01*
X300518Y98215D01*
X302500Y97821D01*
X304482Y98215D01*
X306162Y99338D01*
X307285Y101018D01*
X307488Y102039D01*
X308617Y102367D01*
X309063Y101954D01*
X308944Y100901D01*
X308587Y100662D01*
X307465Y98982D01*
X307071Y97000D01*
X307465Y95018D01*
X308587Y93337D01*
X310268Y92215D01*
X312250Y91820D01*
X314232Y92215D01*
X315912Y93337D01*
X317035Y95018D01*
X317430Y97000D01*
X317035Y98982D01*
X316100Y100381D01*
X316309Y101790D01*
X316397Y101864D01*
X316755Y102103D01*
X316850Y102245D01*
X316880Y102271D01*
X318346Y102198D01*
X319088Y101088D01*
X320768Y99965D01*
X322750Y99571D01*
X324002Y99820D01*
X324138Y99846D01*
X324633Y98650D01*
X324509Y98567D01*
X323397Y97824D01*
X322274Y96144D01*
X321880Y94161D01*
X322274Y92179D01*
X323397Y90499D01*
X325077Y89376D01*
X327059Y88982D01*
X329041Y89376D01*
X330722Y90499D01*
X331844Y92179D01*
X332239Y94161D01*
X331844Y96144D01*
X330722Y97824D01*
X329041Y98947D01*
X327059Y99341D01*
X325807Y99092D01*
X325671Y99065D01*
X325176Y100261D01*
X325300Y100344D01*
X326413Y101088D01*
X327535Y102768D01*
X327929Y104750D01*
X327535Y106732D01*
X326413Y108413D01*
X324732Y109535D01*
X322750Y109930D01*
X320768Y109535D01*
X319088Y108413D01*
X318975Y108244D01*
X317497Y108318D01*
X316755Y109428D01*
X315074Y110551D01*
X313092Y110945D01*
D02*
G37*
G36*
X515673Y115323D02*
X513691Y114929D01*
X512011Y113806D01*
X510888Y112126D01*
X510494Y110144D01*
X510888Y108161D01*
X512011Y106481D01*
X513691Y105358D01*
X515673Y104964D01*
X517655Y105358D01*
X519336Y106481D01*
X520458Y108161D01*
X520853Y110144D01*
X520458Y112126D01*
X519336Y113806D01*
X517655Y114929D01*
X515673Y115323D01*
D02*
G37*
G36*
X535000Y112680D02*
X533018Y112285D01*
X531338Y111163D01*
X530215Y109482D01*
X529821Y107500D01*
X530215Y105518D01*
X531338Y103837D01*
X533018Y102715D01*
X535000Y102320D01*
X536982Y102715D01*
X538662Y103837D01*
X539785Y105518D01*
X540179Y107500D01*
X539785Y109482D01*
X538662Y111163D01*
X536982Y112285D01*
X535000Y112680D01*
D02*
G37*
G36*
X335233Y111930D02*
X333251Y111535D01*
X331570Y110413D01*
X330447Y108732D01*
X330053Y106750D01*
X330447Y104768D01*
X331570Y103088D01*
X333251Y101965D01*
X335233Y101571D01*
X337215Y101965D01*
X338895Y103088D01*
X340018Y104768D01*
X340412Y106750D01*
X340018Y108732D01*
X338895Y110413D01*
X337215Y111535D01*
X335233Y111930D01*
D02*
G37*
G36*
X1027639Y113956D02*
X1025161Y113463D01*
X1023061Y112059D01*
X1021657Y109959D01*
X1021164Y107481D01*
X1021657Y105004D01*
X1023061Y102903D01*
X1025161Y101500D01*
X1027639Y101007D01*
X1030117Y101500D01*
X1032217Y102903D01*
X1033621Y105004D01*
X1034113Y107481D01*
X1033621Y109959D01*
X1032217Y112059D01*
X1030117Y113463D01*
X1027639Y113956D01*
D02*
G37*
G36*
X920000Y127224D02*
X917522Y126732D01*
X915422Y125328D01*
X914018Y123228D01*
X913526Y120750D01*
X914018Y118272D01*
X914695Y117260D01*
X914422Y117078D01*
X913018Y114978D01*
X912526Y112500D01*
X913018Y110022D01*
X914422Y107922D01*
Y107078D01*
X913018Y104978D01*
X912526Y102500D01*
X913018Y100022D01*
X914422Y97922D01*
X916522Y96518D01*
X919000Y96026D01*
X921478Y96518D01*
X923578Y97922D01*
X924982Y100022D01*
X925474Y102500D01*
X924982Y104978D01*
X923578Y107078D01*
Y107922D01*
X924982Y110022D01*
X925474Y112500D01*
X924982Y114978D01*
X924305Y115990D01*
X924578Y116172D01*
X925982Y118272D01*
X926474Y120750D01*
X925982Y123228D01*
X924578Y125328D01*
X922478Y126732D01*
X920000Y127224D01*
D02*
G37*
G36*
X787845Y128440D02*
X784211Y128082D01*
X780716Y127022D01*
X777495Y125300D01*
X774672Y122983D01*
X772355Y120160D01*
X770633Y116939D01*
X769573Y113444D01*
X769215Y109810D01*
X769573Y106175D01*
X770633Y102681D01*
X772355Y99460D01*
X774672Y96637D01*
X777495Y94320D01*
X780716Y92598D01*
X784211Y91538D01*
X787845Y91180D01*
X791479Y91538D01*
X794974Y92598D01*
X798195Y94320D01*
X801018Y96637D01*
X803335Y99460D01*
X805057Y102681D01*
X806117Y106175D01*
X806475Y109810D01*
X806117Y113444D01*
X805057Y116939D01*
X803335Y120160D01*
X801018Y122983D01*
X798195Y125300D01*
X794974Y127022D01*
X791479Y128082D01*
X787845Y128440D01*
D02*
G37*
G36*
X673545D02*
X669911Y128082D01*
X666416Y127022D01*
X663195Y125300D01*
X660372Y122983D01*
X658055Y120160D01*
X656333Y116939D01*
X655273Y113444D01*
X654915Y109810D01*
X655273Y106175D01*
X656333Y102681D01*
X658055Y99460D01*
X660372Y96637D01*
X663195Y94320D01*
X666416Y92598D01*
X669911Y91538D01*
X673545Y91180D01*
X677179Y91538D01*
X680674Y92598D01*
X683895Y94320D01*
X686718Y96637D01*
X689035Y99460D01*
X690757Y102681D01*
X691817Y106175D01*
X692175Y109810D01*
X691817Y113444D01*
X690757Y116939D01*
X689035Y120160D01*
X686718Y122983D01*
X683895Y125300D01*
X680674Y127022D01*
X677179Y128082D01*
X673545Y128440D01*
D02*
G37*
G36*
X241386Y96981D02*
X239404Y96586D01*
X237724Y95464D01*
X236601Y93783D01*
X236207Y91801D01*
X236601Y89819D01*
X237724Y88139D01*
X239404Y87016D01*
X241386Y86622D01*
X243368Y87016D01*
X245049Y88139D01*
X246172Y89819D01*
X246566Y91801D01*
X246172Y93783D01*
X245049Y95464D01*
X243368Y96586D01*
X241386Y96981D01*
D02*
G37*
G36*
X286000Y86930D02*
X284018Y86535D01*
X282337Y85413D01*
X281215Y83732D01*
X280821Y81750D01*
X281031Y80689D01*
X279951Y79609D01*
X278857Y79827D01*
X276874Y79433D01*
X275194Y78310D01*
X274071Y76630D01*
X273677Y74647D01*
X274071Y72665D01*
X275194Y70985D01*
X276874Y69862D01*
X278857Y69468D01*
X280839Y69862D01*
X282519Y70985D01*
X283642Y72665D01*
X284036Y74647D01*
X283825Y75708D01*
X284905Y76788D01*
X286000Y76571D01*
X287982Y76965D01*
X289662Y78088D01*
X290785Y79768D01*
X291180Y81750D01*
X290785Y83732D01*
X289662Y85413D01*
X287982Y86535D01*
X286000Y86930D01*
D02*
G37*
G36*
X849000Y98724D02*
X846522Y98232D01*
X844422Y96828D01*
X843018Y94728D01*
X842526Y92250D01*
X843018Y89772D01*
X844422Y87672D01*
X846522Y86268D01*
X848036Y85967D01*
X849000Y85776D01*
X849492Y84664D01*
X849768Y83272D01*
X851172Y81172D01*
X853272Y79768D01*
X855750Y79276D01*
X858228Y79768D01*
X860328Y81172D01*
X861732Y83272D01*
X862224Y85750D01*
X861732Y88228D01*
X860328Y90328D01*
X858228Y91732D01*
X856937Y91988D01*
X856714Y92033D01*
X856713Y92033D01*
X855750Y92225D01*
X855328Y93179D01*
X855246Y93397D01*
X854982Y94728D01*
X853578Y96828D01*
X851478Y98232D01*
X849000Y98724D01*
D02*
G37*
G36*
X517500Y77680D02*
X515518Y77285D01*
X513838Y76163D01*
X513662D01*
X511982Y77285D01*
X510000Y77680D01*
X508018Y77285D01*
X506338Y76163D01*
X505215Y74482D01*
X504821Y72500D01*
X505215Y70518D01*
X506338Y68837D01*
X508018Y67715D01*
X510000Y67320D01*
X511982Y67715D01*
X513662Y68837D01*
X513838D01*
X515518Y67715D01*
X517500Y67320D01*
X519482Y67715D01*
X521162Y68837D01*
X522285Y70518D01*
X522679Y72500D01*
X522285Y74482D01*
X521162Y76163D01*
X519482Y77285D01*
X517500Y77680D01*
D02*
G37*
G36*
X205983Y84224D02*
X204001Y83830D01*
X202320Y82707D01*
X201198Y81027D01*
X200803Y79045D01*
X201198Y77063D01*
X202320Y75382D01*
X204001Y74260D01*
X205983Y73865D01*
X207965Y74260D01*
X209645Y75382D01*
X210768Y77063D01*
X211162Y79045D01*
X210768Y81027D01*
X209645Y82707D01*
X207965Y83830D01*
X205983Y84224D01*
D02*
G37*
G36*
X388107Y72930D02*
X386125Y72535D01*
X385123Y71866D01*
X384120Y72535D01*
X382138Y72930D01*
X380156Y72535D01*
X378476Y71413D01*
X377353Y69732D01*
X376959Y67750D01*
X377353Y65768D01*
X378476Y64088D01*
X380156Y62965D01*
X382138Y62571D01*
X384120Y62965D01*
X385123Y63635D01*
X386125Y62965D01*
X388107Y62571D01*
X390089Y62965D01*
X391770Y64088D01*
X392892Y65768D01*
X393287Y67750D01*
X392892Y69732D01*
X391770Y71413D01*
X390089Y72535D01*
X388107Y72930D01*
D02*
G37*
G36*
X609753Y84785D02*
X607771Y84390D01*
X606090Y83268D01*
X604967Y81587D01*
X604573Y79605D01*
X604967Y77623D01*
X605889Y76243D01*
X605171Y75169D01*
X604777Y73187D01*
X605171Y71205D01*
X606294Y69524D01*
X607974Y68401D01*
X609957Y68007D01*
X611939Y68401D01*
X613619Y69524D01*
X614742Y71205D01*
X615136Y73187D01*
X614742Y75169D01*
X613820Y76548D01*
X614538Y77623D01*
X614932Y79605D01*
X614538Y81587D01*
X613415Y83268D01*
X611735Y84390D01*
X609753Y84785D01*
D02*
G37*
G36*
X220707Y96263D02*
X218725Y95869D01*
X217045Y94746D01*
X215922Y93066D01*
X215527Y91083D01*
X215922Y89101D01*
X217045Y87421D01*
X218650Y86348D01*
Y86318D01*
X217527Y84638D01*
X217133Y82656D01*
X217527Y80674D01*
X218650Y78994D01*
X220201Y77957D01*
X220239Y77443D01*
X220067Y76636D01*
X219189Y76461D01*
X217509Y75339D01*
X216386Y73658D01*
X215991Y71676D01*
X216386Y69694D01*
X217509Y68014D01*
X219189Y66891D01*
X221171Y66497D01*
X223153Y66891D01*
X224833Y68014D01*
X225956Y69694D01*
X226350Y71676D01*
X225956Y73658D01*
X224833Y75339D01*
X223283Y76375D01*
X223244Y76889D01*
X223417Y77696D01*
X224294Y77871D01*
X225975Y78994D01*
X227098Y80674D01*
X227492Y82656D01*
X227098Y84638D01*
X225975Y86319D01*
X224370Y87391D01*
Y87421D01*
X225492Y89101D01*
X225886Y91083D01*
X225492Y93066D01*
X224370Y94746D01*
X222689Y95869D01*
X220707Y96263D01*
D02*
G37*
G36*
X566913Y63406D02*
X564931Y63012D01*
X563251Y61889D01*
X562400Y60615D01*
X561142Y60472D01*
X560930Y60528D01*
X560497Y61177D01*
X558817Y62299D01*
X556835Y62694D01*
X554853Y62299D01*
X553206Y61199D01*
X553164Y61263D01*
X551484Y62386D01*
X549501Y62780D01*
X547519Y62386D01*
X545839Y61263D01*
X544716Y59583D01*
X544322Y57601D01*
X544716Y55619D01*
X545839Y53938D01*
X547519Y52815D01*
X549501Y52421D01*
X551484Y52815D01*
X553130Y53915D01*
X553172Y53852D01*
X554853Y52729D01*
X556835Y52335D01*
X558817Y52729D01*
X560497Y53852D01*
X561348Y55125D01*
X562606Y55269D01*
X562818Y55213D01*
X563251Y54564D01*
X564931Y53441D01*
X566913Y53047D01*
X568895Y53441D01*
X570576Y54564D01*
X571699Y56245D01*
X572093Y58227D01*
X571699Y60209D01*
X570576Y61889D01*
X568895Y63012D01*
X566913Y63406D01*
D02*
G37*
G36*
X835074Y77817D02*
X832597Y77325D01*
X830496Y75921D01*
X829093Y73821D01*
X828600Y71343D01*
X829093Y68865D01*
X830496Y66765D01*
X832597Y65361D01*
X834217Y65039D01*
X834518Y63522D01*
X835922Y61422D01*
X838022Y60018D01*
X840500Y59526D01*
X842978Y60018D01*
X845078Y61422D01*
X846482Y63522D01*
X846974Y66000D01*
X846482Y68478D01*
X845078Y70578D01*
X842978Y71982D01*
X841357Y72304D01*
X841056Y73821D01*
X839652Y75921D01*
X837552Y77325D01*
X835074Y77817D01*
D02*
G37*
G36*
X796995Y80597D02*
X794048Y80209D01*
X791301Y79072D01*
X788943Y77262D01*
X787133Y74904D01*
X785996Y72157D01*
X785608Y69210D01*
X785996Y66263D01*
X787133Y63516D01*
X788943Y61158D01*
X791301Y59348D01*
X794048Y58211D01*
X796995Y57823D01*
X799942Y58211D01*
X802689Y59348D01*
X805047Y61158D01*
X806857Y63516D01*
X807994Y66263D01*
X808382Y69210D01*
X807994Y72157D01*
X806857Y74904D01*
X805047Y77262D01*
X802689Y79072D01*
X799942Y80209D01*
X796995Y80597D01*
D02*
G37*
G36*
X771595D02*
X768648Y80209D01*
X765901Y79072D01*
X763543Y77262D01*
X761733Y74904D01*
X760596Y72157D01*
X760208Y69210D01*
X760596Y66263D01*
X761733Y63516D01*
X763543Y61158D01*
X765901Y59348D01*
X768648Y58211D01*
X771595Y57823D01*
X774542Y58211D01*
X777289Y59348D01*
X779647Y61158D01*
X781457Y63516D01*
X782594Y66263D01*
X782982Y69210D01*
X782594Y72157D01*
X781457Y74904D01*
X779647Y77262D01*
X777289Y79072D01*
X774542Y80209D01*
X771595Y80597D01*
D02*
G37*
G36*
X689795D02*
X686848Y80209D01*
X684101Y79072D01*
X681743Y77262D01*
X679933Y74904D01*
X678796Y72157D01*
X678408Y69210D01*
X678796Y66263D01*
X679933Y63516D01*
X681743Y61158D01*
X684101Y59348D01*
X686848Y58211D01*
X689795Y57823D01*
X692742Y58211D01*
X695489Y59348D01*
X697847Y61158D01*
X699657Y63516D01*
X700795Y66263D01*
X701182Y69210D01*
X700795Y72157D01*
X699657Y74904D01*
X697847Y77262D01*
X695489Y79072D01*
X692742Y80209D01*
X689795Y80597D01*
D02*
G37*
G36*
X664395D02*
X661448Y80209D01*
X658701Y79072D01*
X656343Y77262D01*
X654533Y74904D01*
X653396Y72157D01*
X653008Y69210D01*
X653396Y66263D01*
X654533Y63516D01*
X656343Y61158D01*
X658701Y59348D01*
X661448Y58211D01*
X664395Y57823D01*
X667342Y58211D01*
X670089Y59348D01*
X672447Y61158D01*
X674257Y63516D01*
X675395Y66263D01*
X675782Y69210D01*
X675395Y72157D01*
X674257Y74904D01*
X672447Y77262D01*
X670089Y79072D01*
X667342Y80209D01*
X664395Y80597D01*
D02*
G37*
G36*
X825000Y65180D02*
X823018Y64785D01*
X821338Y63663D01*
X820215Y61982D01*
X819820Y60000D01*
X820215Y58018D01*
X821338Y56337D01*
X823018Y55215D01*
X825000Y54820D01*
X826982Y55215D01*
X828662Y56337D01*
X829785Y58018D01*
X830180Y60000D01*
X829785Y61982D01*
X828662Y63663D01*
X826982Y64785D01*
X825000Y65180D01*
D02*
G37*
G36*
X588577Y65159D02*
X586594Y64765D01*
X584914Y63642D01*
X583791Y61961D01*
X583397Y59979D01*
X583791Y57997D01*
X584914Y56317D01*
X586594Y55194D01*
X588577Y54800D01*
X590559Y55194D01*
X592239Y56317D01*
X593362Y57997D01*
X593756Y59979D01*
X593362Y61961D01*
X592239Y63642D01*
X590559Y64765D01*
X588577Y65159D01*
D02*
G37*
G36*
X94500Y59429D02*
X92518Y59035D01*
X90837Y57913D01*
X89715Y56232D01*
X89320Y54250D01*
X89715Y52268D01*
X90837Y50588D01*
X92518Y49465D01*
X94500Y49071D01*
X96482Y49465D01*
X98162Y50588D01*
X99285Y52268D01*
X99679Y54250D01*
X99285Y56232D01*
X98162Y57913D01*
X96482Y59035D01*
X94500Y59429D01*
D02*
G37*
G36*
X217750Y55430D02*
X215768Y55035D01*
X214088Y53913D01*
X212965Y52232D01*
X212570Y50250D01*
X212744Y49380D01*
X212717Y49323D01*
X211643Y48402D01*
X210250Y48679D01*
X208268Y48285D01*
X207265Y47615D01*
X206567Y47179D01*
X205638Y47939D01*
X205147Y48674D01*
X203467Y49796D01*
X201485Y50191D01*
X199503Y49796D01*
X197822Y48674D01*
X196700Y46993D01*
X196305Y45011D01*
X196700Y43029D01*
X197822Y41349D01*
X199503Y40226D01*
X201485Y39832D01*
X203467Y40226D01*
X204469Y40896D01*
X205168Y41332D01*
X206097Y40572D01*
X206588Y39838D01*
X208268Y38715D01*
X210250Y38321D01*
X212232Y38715D01*
X213913Y39838D01*
X215035Y41518D01*
X215429Y43500D01*
X215256Y44370D01*
X215283Y44427D01*
X216357Y45348D01*
X217750Y45071D01*
X219732Y45465D01*
X221413Y46588D01*
X222535Y48268D01*
X222929Y50250D01*
X222535Y52232D01*
X221413Y53913D01*
X219732Y55035D01*
X217750Y55430D01*
D02*
G37*
G36*
X251750Y50180D02*
X249768Y49785D01*
X248088Y48663D01*
X247469Y47736D01*
X246232Y47035D01*
X244250Y47429D01*
X242268Y47035D01*
X240588Y45912D01*
X239465Y44232D01*
X239070Y42250D01*
X239465Y40268D01*
X240588Y38588D01*
X242268Y37465D01*
X244250Y37071D01*
X246232Y37465D01*
X247913Y38588D01*
X248531Y39514D01*
X249768Y40215D01*
X251750Y39820D01*
X253732Y40215D01*
X255413Y41337D01*
X256535Y43018D01*
X256929Y45000D01*
X256535Y46982D01*
X255413Y48663D01*
X253732Y49785D01*
X251750Y50180D01*
D02*
G37*
G36*
X920013Y80192D02*
X917536Y79700D01*
X915435Y78296D01*
X914032Y76196D01*
X913539Y73718D01*
X914032Y71240D01*
X915192Y69504D01*
X914190Y68004D01*
X913697Y65527D01*
X914190Y63049D01*
X915068Y61734D01*
X914063Y60230D01*
X913570Y57753D01*
X914063Y55275D01*
X915467Y53175D01*
X917567Y51771D01*
X920045Y51278D01*
X922078Y51683D01*
X922792Y50615D01*
X921834Y49181D01*
X921341Y46704D01*
X921834Y44226D01*
X923238Y42126D01*
X925338Y40722D01*
X927816Y40230D01*
X930293Y40722D01*
X932394Y42126D01*
X933797Y44226D01*
X934290Y46704D01*
X933797Y49181D01*
X933024Y50339D01*
X933982Y51772D01*
X934474Y54250D01*
X933982Y56728D01*
X932578Y58828D01*
X930478Y60232D01*
X928000Y60724D01*
X925967Y60320D01*
X925148Y61545D01*
X926153Y63049D01*
X926646Y65527D01*
X926153Y68004D01*
X924993Y69741D01*
X925995Y71240D01*
X926488Y73718D01*
X925995Y76196D01*
X924592Y78296D01*
X922491Y79700D01*
X920013Y80192D01*
D02*
G37*
G36*
X265250Y58679D02*
X263268Y58285D01*
X261588Y57162D01*
X260465Y55482D01*
X260070Y53500D01*
X260465Y51518D01*
X261588Y49837D01*
X263268Y48715D01*
X265250Y48320D01*
X267232Y48715D01*
X268913Y49837D01*
X270035Y51518D01*
X270103Y51858D01*
X271320Y51750D01*
X271715Y49768D01*
X272838Y48088D01*
X272635Y46695D01*
X271838Y46163D01*
X270715Y44482D01*
X270320Y42500D01*
X270715Y40518D01*
X271838Y38837D01*
X273518Y37715D01*
X275500Y37320D01*
X277482Y37715D01*
X279163Y38837D01*
X280285Y40518D01*
X280679Y42500D01*
X280285Y44482D01*
X279163Y46162D01*
X279365Y47555D01*
X280163Y48088D01*
X281285Y49768D01*
X281679Y51750D01*
X281285Y53732D01*
X280163Y55413D01*
X278482Y56535D01*
X276500Y56929D01*
X274518Y56535D01*
X272838Y55413D01*
X271715Y53732D01*
X271647Y53393D01*
X270429Y53500D01*
X270035Y55482D01*
X268913Y57162D01*
X267232Y58285D01*
X265250Y58679D01*
D02*
G37*
G36*
X1046270Y53500D02*
Y37270D01*
X1062500D01*
X1062286Y39439D01*
X1061283Y42745D01*
X1059654Y45792D01*
X1057463Y48463D01*
X1054792Y50655D01*
X1051745Y52283D01*
X1048438Y53286D01*
X1046270Y53500D01*
D02*
G37*
G36*
X1043730Y53500D02*
X1041562Y53286D01*
X1038255Y52283D01*
X1035208Y50655D01*
X1032537Y48463D01*
X1030346Y45792D01*
X1028717Y42745D01*
X1027714Y39439D01*
X1027500Y37270D01*
X1043730D01*
Y53500D01*
D02*
G37*
G36*
X458250Y51787D02*
X456268Y51393D01*
X454588Y50270D01*
X453465Y48589D01*
X453070Y46607D01*
X453465Y44625D01*
X454134Y43623D01*
X453465Y42620D01*
X453070Y40638D01*
X453465Y38656D01*
X454588Y36976D01*
X456268Y35853D01*
X458250Y35459D01*
X460232Y35853D01*
X461912Y36976D01*
X463035Y38656D01*
X463429Y40638D01*
X463035Y42620D01*
X462365Y43623D01*
X463035Y44625D01*
X463429Y46607D01*
X463035Y48589D01*
X461912Y50270D01*
X460232Y51393D01*
X458250Y51787D01*
D02*
G37*
G36*
X439750D02*
X437768Y51393D01*
X436087Y50270D01*
X434965Y48589D01*
X434571Y46607D01*
X434965Y44625D01*
X435634Y43623D01*
X434965Y42620D01*
X434571Y40638D01*
X434965Y38656D01*
X436087Y36976D01*
X437768Y35853D01*
X439750Y35459D01*
X441732Y35853D01*
X443413Y36976D01*
X444535Y38656D01*
X444930Y40638D01*
X444535Y42620D01*
X443866Y43623D01*
X444535Y44625D01*
X444930Y46607D01*
X444535Y48589D01*
X443413Y50270D01*
X441732Y51393D01*
X439750Y51787D01*
D02*
G37*
G36*
X376000Y47051D02*
X374018Y46657D01*
X372338Y45534D01*
X371215Y43854D01*
X370821Y41872D01*
X371215Y39890D01*
X371884Y38887D01*
X371215Y37885D01*
X370821Y35903D01*
X371215Y33921D01*
X372338Y32240D01*
X374018Y31117D01*
X376000Y30723D01*
X377982Y31117D01*
X379663Y32240D01*
X380785Y33921D01*
X381180Y35903D01*
X380785Y37885D01*
X380116Y38887D01*
X380785Y39890D01*
X381180Y41872D01*
X380785Y43854D01*
X379663Y45534D01*
X377982Y46657D01*
X376000Y47051D01*
D02*
G37*
G36*
X285000Y29430D02*
X283018Y29035D01*
X281338Y27912D01*
X280215Y26232D01*
X280141Y25864D01*
X278968Y25378D01*
X278732Y25535D01*
X276750Y25930D01*
X274768Y25535D01*
X273088Y24413D01*
X271965Y22732D01*
X271570Y20750D01*
X271965Y18768D01*
X273088Y17088D01*
X274768Y15965D01*
X276750Y15570D01*
X278732Y15965D01*
X280413Y17088D01*
X281535Y18768D01*
X281609Y19136D01*
X282782Y19622D01*
X283018Y19465D01*
X285000Y19071D01*
X286982Y19465D01*
X288662Y20587D01*
X289785Y22268D01*
X290180Y24250D01*
X289785Y26232D01*
X288662Y27912D01*
X286982Y29035D01*
X285000Y29430D01*
D02*
G37*
G36*
X1043730Y34730D02*
X1027500D01*
X1027714Y32562D01*
X1028717Y29255D01*
X1030346Y26208D01*
X1032537Y23537D01*
X1035208Y21346D01*
X1038255Y19717D01*
X1041562Y18714D01*
X1043730Y18500D01*
Y34730D01*
D02*
G37*
G36*
X1062500D02*
X1046270D01*
Y18500D01*
X1048438Y18714D01*
X1051745Y19717D01*
X1054792Y21346D01*
X1057463Y23537D01*
X1059654Y26208D01*
X1061283Y29255D01*
X1062286Y32562D01*
X1062500Y34730D01*
D02*
G37*
G36*
X246000Y24430D02*
X244018Y24035D01*
X242337Y22912D01*
X241215Y21232D01*
X240821Y19250D01*
X241215Y17268D01*
X242337Y15588D01*
X244018Y14465D01*
X246000Y14071D01*
X247982Y14465D01*
X249662Y15588D01*
X250785Y17268D01*
X251180Y19250D01*
X250785Y21232D01*
X249662Y22912D01*
X247982Y24035D01*
X246000Y24430D01*
D02*
G37*
G36*
X465250Y28679D02*
X463268Y28285D01*
X461587Y27162D01*
X460465Y25482D01*
X460070Y23500D01*
X460465Y21518D01*
X461587Y19837D01*
X463268Y18715D01*
X465250Y18320D01*
X466077Y18485D01*
X467321Y18250D01*
X467715Y16268D01*
X468838Y14588D01*
X470518Y13465D01*
X472500Y13070D01*
X474482Y13465D01*
X476162Y14588D01*
X477285Y16268D01*
X477679Y18250D01*
X477285Y20232D01*
X476162Y21913D01*
X474482Y23035D01*
X472500Y23430D01*
X471673Y23265D01*
X470429Y23500D01*
X470035Y25482D01*
X468913Y27162D01*
X467232Y28285D01*
X465250Y28679D01*
D02*
G37*
G36*
X450500Y23180D02*
X448518Y22785D01*
X446838Y21662D01*
X445715Y19982D01*
X445321Y18000D01*
X445715Y16018D01*
X446838Y14338D01*
X448518Y13215D01*
X450500Y12821D01*
X452482Y13215D01*
X454162Y14338D01*
X455285Y16018D01*
X455680Y18000D01*
X455285Y19982D01*
X454162Y21662D01*
X452482Y22785D01*
X450500Y23180D01*
D02*
G37*
%LPD*%
D18*
X978750Y439500D02*
X979437D01*
D122*
X212699Y303730D02*
D03*
X236111Y337366D02*
D03*
X215053Y319354D02*
D03*
X1070000Y120000D02*
D03*
Y140000D02*
D03*
X1069925Y185152D02*
D03*
X1070000Y285000D02*
D03*
Y265000D02*
D03*
Y245000D02*
D03*
Y225000D02*
D03*
Y205000D02*
D03*
Y165000D02*
D03*
Y105000D02*
D03*
X920640Y397722D02*
D03*
X920120Y375626D02*
D03*
X928149Y385521D02*
D03*
X429379Y434668D02*
D03*
X443386Y410777D02*
D03*
X444317Y396691D02*
D03*
X436134Y434760D02*
D03*
X846967Y310383D02*
D03*
X870607Y310269D02*
D03*
X713503Y412541D02*
D03*
X580000Y490000D02*
D03*
X600000D02*
D03*
X660000D02*
D03*
X680000D02*
D03*
X740000D02*
D03*
X780000D02*
D03*
X762530Y239332D02*
D03*
X311204Y492532D02*
D03*
X190000Y490000D02*
D03*
X8051Y202223D02*
D03*
X8533Y243158D02*
D03*
X10000Y275000D02*
D03*
X471810Y6794D02*
D03*
X430094Y7589D02*
D03*
X379481Y7626D02*
D03*
X343448Y6967D02*
D03*
X313053Y7113D02*
D03*
X288423Y7409D02*
D03*
X259928Y6976D02*
D03*
X231395Y6906D02*
D03*
X205374Y7116D02*
D03*
X181740Y6720D02*
D03*
X151785Y6774D02*
D03*
X127187Y6931D02*
D03*
X107918Y7272D02*
D03*
X144338Y417150D02*
D03*
X121162Y415916D02*
D03*
X134361Y416493D02*
D03*
X892103Y247640D02*
D03*
X576161Y363175D02*
D03*
X587595Y349050D02*
D03*
X515723Y324597D02*
D03*
X397275Y489302D02*
D03*
X167591Y200091D02*
D03*
X204624Y199765D02*
D03*
X131209Y198626D02*
D03*
X123477Y158092D02*
D03*
X175812Y153453D02*
D03*
X598867Y12487D02*
D03*
X563958Y12397D02*
D03*
X1055000Y90000D02*
D03*
X1045000D02*
D03*
X795000Y490000D02*
D03*
Y385000D02*
D03*
Y405000D02*
D03*
Y425000D02*
D03*
Y445000D02*
D03*
Y465000D02*
D03*
X885615Y238272D02*
D03*
X957404Y343564D02*
D03*
X785250Y318750D02*
D03*
X785500Y326500D02*
D03*
X876000Y195000D02*
D03*
X896500Y197500D02*
D03*
X927750Y197250D02*
D03*
X979750D02*
D03*
X980000Y215000D02*
D03*
X979750Y253000D02*
D03*
Y277750D02*
D03*
Y289250D02*
D03*
X968983Y308793D02*
D03*
X979563Y308568D02*
D03*
X959113Y309354D02*
D03*
X863740Y271979D02*
D03*
X837750Y274812D02*
D03*
X946500Y306250D02*
D03*
X931310Y344385D02*
D03*
X939104Y344308D02*
D03*
X922620Y344651D02*
D03*
X974476Y344774D02*
D03*
X966491Y344885D02*
D03*
X676120Y272195D02*
D03*
X656000Y269500D02*
D03*
X378728Y122957D02*
D03*
X614928Y243203D02*
D03*
X607260D02*
D03*
X485901Y128575D02*
D03*
X491313Y486861D02*
D03*
X397761Y463802D02*
D03*
X291853Y440096D02*
D03*
X297250Y409749D02*
D03*
X322118Y408511D02*
D03*
X331330Y416541D02*
D03*
X330773Y424033D02*
D03*
X340687Y481274D02*
D03*
X373255Y412689D02*
D03*
X376558Y448227D02*
D03*
X344102Y446593D02*
D03*
X346907Y426908D02*
D03*
X369073Y426472D02*
D03*
X389849Y489164D02*
D03*
X359507Y479924D02*
D03*
X353744Y426488D02*
D03*
X359575Y434170D02*
D03*
X381835Y45474D02*
D03*
X446266Y123525D02*
D03*
X467500Y122500D02*
D03*
X472672Y155484D02*
D03*
X449827Y145904D02*
D03*
X394766Y70329D02*
D03*
X374873Y66087D02*
D03*
X368851Y32554D02*
D03*
X462362Y52204D02*
D03*
X433338Y49909D02*
D03*
X462972Y35393D02*
D03*
X434846Y34413D02*
D03*
X139340Y252757D02*
D03*
X139543Y235380D02*
D03*
X161428Y236140D02*
D03*
X681564Y229314D02*
D03*
X648639Y256593D02*
D03*
X634345Y240399D02*
D03*
X652519Y238871D02*
D03*
X653858Y225085D02*
D03*
X669549Y213633D02*
D03*
X901708Y252864D02*
D03*
X895351Y265867D02*
D03*
X914197Y245737D02*
D03*
X950813Y233785D02*
D03*
X949821Y241772D02*
D03*
X737880Y255751D02*
D03*
X696195Y254803D02*
D03*
X737520Y208661D02*
D03*
X770235Y211364D02*
D03*
X692884Y210483D02*
D03*
X717629Y209482D02*
D03*
X589082Y272571D02*
D03*
X273357Y335906D02*
D03*
X376396Y208182D02*
D03*
X523503Y342578D02*
D03*
X290110Y335428D02*
D03*
X613005Y174201D02*
D03*
X613887Y205405D02*
D03*
X657251Y171419D02*
D03*
X804117Y173578D02*
D03*
X84489Y287082D02*
D03*
X90227Y257997D02*
D03*
X14218Y262108D02*
D03*
X267229Y487609D02*
D03*
X620000Y490000D02*
D03*
X622292Y13558D02*
D03*
X633277Y38892D02*
D03*
X221737Y14757D02*
D03*
X109458Y23291D02*
D03*
X97411Y16875D02*
D03*
X613000Y383000D02*
D03*
X748662Y348498D02*
D03*
X199237Y54510D02*
D03*
X114087Y413443D02*
D03*
X57500Y407500D02*
D03*
X80000Y415000D02*
D03*
X720000Y337500D02*
D03*
X710000Y290000D02*
D03*
X714274Y255672D02*
D03*
X717500Y227500D02*
D03*
X160000Y487500D02*
D03*
X245000D02*
D03*
X97500Y482500D02*
D03*
X121284Y487634D02*
D03*
X95000Y457500D02*
D03*
X15000Y390000D02*
D03*
X35000Y407500D02*
D03*
X17500Y230000D02*
D03*
X15000Y187500D02*
D03*
X22500Y97500D02*
D03*
X55000Y95000D02*
D03*
X165000Y122500D02*
D03*
X193148Y154104D02*
D03*
X158068Y153209D02*
D03*
X118594Y179905D02*
D03*
X240029Y199521D02*
D03*
X220740Y199195D02*
D03*
X185985Y200091D02*
D03*
X150092Y199765D02*
D03*
X700000Y490000D02*
D03*
X640000D02*
D03*
X720000D02*
D03*
X760000D02*
D03*
X795000Y395000D02*
D03*
Y415000D02*
D03*
Y435000D02*
D03*
Y455000D02*
D03*
Y475000D02*
D03*
X857500Y150000D02*
D03*
X820000Y197500D02*
D03*
X979250Y299250D02*
D03*
X979750Y265250D02*
D03*
X979751Y227479D02*
D03*
X979500Y240750D02*
D03*
X979713Y205385D02*
D03*
X961750Y197500D02*
D03*
X943750Y197250D02*
D03*
X912250Y197500D02*
D03*
X866343Y176303D02*
D03*
X847500Y177500D02*
D03*
X1065000Y70000D02*
D03*
Y90000D02*
D03*
Y80000D02*
D03*
X1005000Y17500D02*
D03*
X866378Y13149D02*
D03*
X840000Y20000D02*
D03*
X582500Y12500D02*
D03*
X545000D02*
D03*
X509048Y484289D02*
D03*
X573632Y126072D02*
D03*
X525434Y156051D02*
D03*
X518000Y134000D02*
D03*
X536480Y459920D02*
D03*
X194637Y252855D02*
D03*
X340956Y309191D02*
D03*
X422096Y369529D02*
D03*
X76437Y331568D02*
D03*
X488028Y47608D02*
D03*
X465650Y260250D02*
D03*
X633000Y399000D02*
D03*
X554522Y327642D02*
D03*
X415713Y396037D02*
D03*
X483194Y462466D02*
D03*
X502956Y472347D02*
D03*
X530327Y457405D02*
D03*
X548499Y449833D02*
D03*
X555661Y457730D02*
D03*
X231993Y447554D02*
D03*
X243551Y440943D02*
D03*
X487000Y12000D02*
D03*
X857000Y197000D02*
D03*
X334743Y213092D02*
D03*
X312538Y424726D02*
D03*
X559332Y320134D02*
D03*
X907250Y459750D02*
D03*
X788410Y366061D02*
D03*
X789750Y373750D02*
D03*
X789000Y358000D02*
D03*
X657057Y356708D02*
D03*
X716725Y459302D02*
D03*
X716556Y435622D02*
D03*
X291135Y388265D02*
D03*
X444309Y389416D02*
D03*
X536565Y275069D02*
D03*
X515129Y86445D02*
D03*
X545299Y111459D02*
D03*
X541723Y93246D02*
D03*
X619433Y113216D02*
D03*
X553785Y121370D02*
D03*
X541868Y125000D02*
D03*
X148352Y390317D02*
D03*
X279445Y155770D02*
D03*
X410280Y432940D02*
D03*
X372000Y441454D02*
D03*
X263797Y424076D02*
D03*
X241787Y424946D02*
D03*
X133445Y440926D02*
D03*
X145630Y440743D02*
D03*
X165487Y440870D02*
D03*
X156597Y440942D02*
D03*
X156830Y303410D02*
D03*
X246215Y260993D02*
D03*
X432780Y252852D02*
D03*
X526065Y308631D02*
D03*
X672363Y292738D02*
D03*
X906752Y257288D02*
D03*
X925587Y305497D02*
D03*
X908224Y304591D02*
D03*
X919387Y309094D02*
D03*
X932375Y306822D02*
D03*
X939790Y306032D02*
D03*
X617251Y85909D02*
D03*
X566571Y145921D02*
D03*
X576681Y142336D02*
D03*
X584017Y142283D02*
D03*
X120743Y269252D02*
D03*
X982842Y379743D02*
D03*
X536033Y308720D02*
D03*
X241431Y331641D02*
D03*
X151590Y70753D02*
D03*
X163697Y72130D02*
D03*
X175744Y71962D02*
D03*
X188549Y73815D02*
D03*
X201528Y73078D02*
D03*
X212842Y72402D02*
D03*
X648867Y354538D02*
D03*
X729395Y120012D02*
D03*
X399025Y432421D02*
D03*
X531000Y425500D02*
D03*
X560977Y426006D02*
D03*
X633008Y429289D02*
D03*
X353250Y263250D02*
D03*
X449204Y327909D02*
D03*
X453856Y306019D02*
D03*
X597083Y399102D02*
D03*
X495531Y279268D02*
D03*
X368997Y236766D02*
D03*
X322595Y234764D02*
D03*
X202411Y389636D02*
D03*
X285133Y393023D02*
D03*
X80500Y302750D02*
D03*
X145983Y352020D02*
D03*
X606000Y119000D02*
D03*
X574564Y111718D02*
D03*
X590067Y151711D02*
D03*
X894500Y449250D02*
D03*
X894000Y471000D02*
D03*
X593000Y37000D02*
D03*
X589436Y408816D02*
D03*
X577747Y387802D02*
D03*
X517273Y390622D02*
D03*
X582702Y151279D02*
D03*
X567250Y112000D02*
D03*
X480651Y378807D02*
D03*
X495779Y335203D02*
D03*
X457068Y346367D02*
D03*
X441000Y245000D02*
D03*
X351000Y463750D02*
D03*
X370879Y487726D02*
D03*
X398561Y444328D02*
D03*
X163243Y412138D02*
D03*
X941141Y440791D02*
D03*
X933500Y430000D02*
D03*
X978750Y439500D02*
D03*
X227355Y361234D02*
D03*
X232515Y355740D02*
D03*
X354325Y275280D02*
D03*
X264032Y310045D02*
D03*
X244222Y295112D02*
D03*
X255877Y252960D02*
D03*
X335850Y40166D02*
D03*
X325530Y40102D02*
D03*
X186000Y390750D02*
D03*
X173875Y391889D02*
D03*
X161582D02*
D03*
X201910Y357628D02*
D03*
X209446Y357327D02*
D03*
X142808Y410946D02*
D03*
X394440Y194820D02*
D03*
X394000Y187000D02*
D03*
X394239Y136424D02*
D03*
X428006Y170916D02*
D03*
X118000Y427000D02*
D03*
X398225Y311799D02*
D03*
X390979Y300065D02*
D03*
X442000Y238000D02*
D03*
X375755Y252784D02*
D03*
X410381Y279518D02*
D03*
X403000Y271000D02*
D03*
X421000D02*
D03*
Y288000D02*
D03*
X404131Y288268D02*
D03*
X355876Y30456D02*
D03*
X311718Y40624D02*
D03*
X298361Y41133D02*
D03*
X287939Y40744D02*
D03*
X147485Y25323D02*
D03*
X165400Y23224D02*
D03*
X176034Y23543D02*
D03*
X187558Y22881D02*
D03*
X197623Y22973D02*
D03*
X205450Y22881D02*
D03*
X287669Y53955D02*
D03*
X296833Y54241D02*
D03*
X148303Y382104D02*
D03*
X161820Y351518D02*
D03*
X164291Y359722D02*
D03*
X87255Y338177D02*
D03*
X16000Y293000D02*
D03*
X524456Y480440D02*
D03*
X564776Y472668D02*
D03*
X622000Y412000D02*
D03*
X729679Y447959D02*
D03*
X703064Y457726D02*
D03*
X713000Y467000D02*
D03*
X743000Y434000D02*
D03*
X729725Y473279D02*
D03*
X432993Y462915D02*
D03*
X516736Y406002D02*
D03*
X516783Y451806D02*
D03*
X432344Y451434D02*
D03*
X439982Y458908D02*
D03*
X464848Y452334D02*
D03*
X482019Y455827D02*
D03*
X513000Y421000D02*
D03*
X505000D02*
D03*
X436021Y318288D02*
D03*
X906000Y290392D02*
D03*
X577873Y380628D02*
D03*
X621174Y382661D02*
D03*
X626684Y260694D02*
D03*
X627431Y273071D02*
D03*
X738267Y228526D02*
D03*
X696000Y228000D02*
D03*
X240794Y226219D02*
D03*
X245500Y218500D02*
D03*
X637626Y288671D02*
D03*
X662228Y300157D02*
D03*
X668519Y318410D02*
D03*
X663555Y323273D02*
D03*
X656742Y347675D02*
D03*
X528546Y267754D02*
D03*
X581257Y276971D02*
D03*
X591909Y286880D02*
D03*
X555325Y151907D02*
D03*
X947709Y270366D02*
D03*
X552266Y166842D02*
D03*
X559452Y166751D02*
D03*
X524998Y133841D02*
D03*
X953768Y289268D02*
D03*
X953079Y305704D02*
D03*
X919000Y252000D02*
D03*
X925356Y271758D02*
D03*
X937000Y270000D02*
D03*
X949577Y252897D02*
D03*
X615779Y107133D02*
D03*
X616000Y97000D02*
D03*
X607000Y23000D02*
D03*
X618000Y37000D02*
D03*
X515000Y12000D02*
D03*
X512000Y38000D02*
D03*
X522559Y46029D02*
D03*
X857716Y237946D02*
D03*
X879484Y203050D02*
D03*
X866000Y197000D02*
D03*
X159500Y253500D02*
D03*
X281207Y348626D02*
D03*
X281512Y358906D02*
D03*
X281625Y369375D02*
D03*
X192125Y306625D02*
D03*
X181765Y305228D02*
D03*
X174893Y305289D02*
D03*
X161250Y288500D02*
D03*
X186000Y273000D02*
D03*
X175000Y253250D02*
D03*
X186000Y252750D02*
D03*
X256000Y424250D02*
D03*
X368226Y252420D02*
D03*
X292000Y425000D02*
D03*
X437750Y305750D02*
D03*
X84250Y275500D02*
D03*
X99500Y275000D02*
D03*
X114500D02*
D03*
X46250Y309500D02*
D03*
X62000Y291750D02*
D03*
X63000Y270500D02*
D03*
X747500Y460000D02*
D03*
X947071Y397736D02*
D03*
X391500Y368500D02*
D03*
X350000D02*
D03*
X370750Y347750D02*
D03*
Y389250D02*
D03*
X114078Y111827D02*
D03*
X143422Y141173D02*
D03*
X114078D02*
D03*
X143422Y111827D02*
D03*
X383231Y284768D02*
D03*
X495531Y305268D02*
D03*
X465650Y286250D02*
D03*
D148*
X607500Y447750D02*
D03*
X1008500Y330000D02*
D03*
D150*
X333247Y463772D02*
D03*
X408747D02*
D03*
D151*
X331047Y452772D02*
D03*
X410947Y474772D02*
D03*
D152*
Y452772D02*
D03*
X331047Y474772D02*
D03*
D154*
X650050Y140310D02*
D03*
X811340D02*
D03*
D160*
X459000Y420250D02*
D03*
Y410250D02*
D03*
X613230Y324250D02*
D03*
X603230D02*
D03*
X613230Y334250D02*
D03*
X603230D02*
D03*
D161*
X370750Y368500D02*
D03*
X128750Y126500D02*
D03*
D162*
X40000Y150000D02*
D03*
Y350000D02*
D03*
X1045000Y36000D02*
D03*
M02*
