G04*
G04 #@! TF.GenerationSoftware,Altium Limited,Altium Designer,21.2.2 (38)*
G04*
G04 Layer_Color=128*
%FSLAX44Y44*%
%MOMM*%
G71*
G04*
G04 #@! TF.SameCoordinates,5E46DD17-87F1-4086-B896-1A8DD57D8BDF*
G04*
G04*
G04 #@! TF.FilePolarity,Positive*
G04*
G01*
G75*
%ADD16C,0.1000*%
%ADD190C,0.0508*%
D16*
X32500Y379977D02*
X29879Y379475D01*
X27629Y378042D01*
X26067Y375879D01*
X6627Y356424D02*
X4461Y354860D01*
X3025Y352606D01*
X2523Y349982D01*
X14577Y348441D02*
X16530Y346819D01*
X18746Y345585D01*
X21152Y344778D01*
X23665Y344428D01*
X26200Y344545D01*
X28670Y345126D01*
X30991Y346151D01*
X33084Y347585D01*
X34878Y349379D01*
X36312Y351472D01*
X37337Y353793D01*
X37918Y356264D01*
X38036Y358798D01*
X37685Y361311D01*
X36879Y363717D01*
X35644Y365934D01*
X34023Y367886D01*
X26067Y4098D02*
X27629Y1935D01*
X29879Y501D01*
X32500Y-0D01*
X34023Y12091D02*
X35644Y14043D01*
X36879Y16260D01*
X37685Y18666D01*
X38036Y21179D01*
X37918Y23713D01*
X37337Y26183D01*
X36312Y28504D01*
X34879Y30598D01*
X33084Y32392D01*
X30991Y33826D01*
X28670Y34851D01*
X26200Y35432D01*
X23665Y35549D01*
X21152Y35198D01*
X18746Y34392D01*
X16530Y33157D01*
X14577Y31536D01*
X2523Y29995D02*
X3025Y27370D01*
X4461Y25117D01*
X6627Y23553D01*
X622495Y350000D02*
X621993Y352621D01*
X620560Y354871D01*
X618396Y356433D01*
X590958Y367923D02*
X589337Y365970D01*
X588102Y363754D01*
X587296Y361348D01*
X586946Y358835D01*
X587063Y356300D01*
X587644Y353830D01*
X588669Y351509D01*
X590103Y349416D01*
X591897Y347621D01*
X593990Y346188D01*
X596311Y345163D01*
X598781Y344582D01*
X601316Y344464D01*
X603829Y344815D01*
X606235Y345621D01*
X608452Y346856D01*
X610404Y348477D01*
X598942Y375873D02*
X597378Y378039D01*
X595124Y379475D01*
X592500Y379977D01*
X592500Y0D02*
X595124Y502D01*
X597378Y1938D01*
X598942Y4104D01*
X610404Y31500D02*
X608452Y33121D01*
X606235Y34356D01*
X603829Y35162D01*
X601316Y35512D01*
X598781Y35395D01*
X596311Y34814D01*
X593990Y33790D01*
X591897Y32355D01*
X590103Y30561D01*
X588669Y28468D01*
X587644Y26147D01*
X587063Y23677D01*
X586946Y21142D01*
X587296Y18629D01*
X588102Y16223D01*
X589337Y14007D01*
X590958Y12055D01*
X618396Y23544D02*
X620560Y25106D01*
X621993Y27356D01*
X622495Y29977D01*
X622495Y350000D02*
X622495Y30000D01*
X26050Y375859D02*
X34023Y367886D01*
X6604Y356413D02*
X14577Y348441D01*
X26050Y4118D02*
X34023Y12091D01*
X6604Y23563D02*
X14577Y31536D01*
X610404Y348477D02*
X618377Y356450D01*
X590958Y367923D02*
X598931Y375896D01*
X590958Y12055D02*
X598931Y4081D01*
X610404Y31500D02*
X618377Y23527D01*
X2500Y350000D02*
X2500Y29982D01*
X32500Y-0D02*
X592500Y-0D01*
X32500Y379977D02*
X592500Y379977D01*
D190*
X26000Y157500D02*
X44000D01*
X35000Y148500D02*
Y166500D01*
X101750Y109250D02*
X112250D01*
X107000Y104000D02*
Y114500D01*
X131500Y157500D02*
X142000D01*
X136750Y152250D02*
Y162750D01*
X71500Y157500D02*
X82000D01*
X76750Y152250D02*
Y162750D01*
X68100Y318000D02*
X74100D01*
X71100Y315000D02*
Y321000D01*
X14500Y318000D02*
X20500D01*
X17500Y315000D02*
Y321000D01*
X14500Y231600D02*
X20500D01*
X17500Y228600D02*
Y234600D01*
X68100Y231600D02*
X74100D01*
X71100Y228600D02*
Y234600D01*
X528000Y59750D02*
X558000D01*
X543000Y44750D02*
Y74750D01*
X286000Y301750D02*
X316000D01*
X301000Y286750D02*
Y316750D01*
X135984Y198250D02*
X138016D01*
X137000Y197234D02*
Y199266D01*
X71484Y199500D02*
X73516D01*
X72500Y198484D02*
Y200516D01*
X67415Y262181D02*
X69447D01*
X68431Y261165D02*
Y263197D01*
X136200Y296572D02*
X138232D01*
X137216Y295556D02*
Y297588D01*
X145984Y249250D02*
X148016D01*
X147000Y248234D02*
Y250266D01*
X123306Y295987D02*
X125338D01*
X124322Y294971D02*
Y297003D01*
X118011Y288822D02*
X120043D01*
X119027Y287806D02*
Y289838D01*
X91984Y281201D02*
X94016D01*
X93000Y280185D02*
Y282217D01*
X146984Y287000D02*
X149016D01*
X148000Y285984D02*
Y288016D01*
X142984Y292500D02*
X145016D01*
X144000Y291484D02*
Y293516D01*
X142234Y282250D02*
X144266D01*
X143250Y281234D02*
Y283266D01*
X94734Y352584D02*
X96766D01*
X95750Y351568D02*
Y353600D01*
X100415Y356230D02*
X102447D01*
X101431Y355214D02*
Y357246D01*
X87906Y277556D02*
X89938D01*
X88922Y276540D02*
Y278572D01*
X88047Y269468D02*
X90078D01*
X89062Y268452D02*
Y270484D01*
X82156Y280026D02*
X84188D01*
X83172Y279010D02*
Y281042D01*
X81983Y272152D02*
X84015D01*
X82999Y271136D02*
Y273168D01*
X100618Y268235D02*
X102650D01*
X101634Y267219D02*
Y269251D01*
X105577Y268329D02*
X107609D01*
X106593Y267313D02*
Y269345D01*
X54409Y297276D02*
X56441D01*
X55425Y296260D02*
Y298292D01*
X54409Y292323D02*
X56441D01*
X55425Y291307D02*
Y293339D01*
X449460Y116483D02*
X451493D01*
X450476Y115468D02*
Y117500D01*
X444507Y116483D02*
X446539D01*
X445523Y115468D02*
Y117500D01*
X439484Y116500D02*
X441516D01*
X440500Y115484D02*
Y117516D01*
X120984Y234000D02*
X123016D01*
X122000Y232984D02*
Y235016D01*
X143734Y269000D02*
X145766D01*
X144750Y267984D02*
Y270016D01*
X86794Y304616D02*
X88826D01*
X87810Y303600D02*
Y305632D01*
X90296Y301114D02*
X92328D01*
X91312Y300098D02*
Y302130D01*
X166734Y276000D02*
X168766D01*
X167750Y274984D02*
Y277016D01*
X67288Y251875D02*
X69320D01*
X68304Y250859D02*
Y252891D01*
X67222Y256828D02*
X69254D01*
X68238Y255812D02*
Y257843D01*
X89746Y248012D02*
X91778D01*
X90762Y246996D02*
Y249028D01*
X86243Y244509D02*
X88275D01*
X87259Y243493D02*
Y245525D01*
X167234Y186250D02*
X169266D01*
X168250Y185234D02*
Y187266D01*
X143466Y185215D02*
X145498D01*
X144482Y184200D02*
Y186231D01*
X155502Y206970D02*
X157534D01*
X156518Y205954D02*
Y207986D01*
X183273Y205167D02*
X185305D01*
X184289Y204151D02*
Y206183D01*
X169056Y205485D02*
X171088D01*
X170072Y204468D02*
Y206500D01*
X196480Y91258D02*
X198512D01*
X197496Y90242D02*
Y92274D01*
X196478Y86244D02*
X198510D01*
X197494Y85228D02*
Y87260D01*
X214234Y110274D02*
X216266D01*
X215250Y109257D02*
Y111290D01*
X214234Y115226D02*
X216266D01*
X215250Y114211D02*
Y116243D01*
X141869Y193749D02*
X143901D01*
X142885Y192733D02*
Y194765D01*
X416564Y202806D02*
X418596D01*
X417580Y201790D02*
Y203822D01*
X244072Y156429D02*
X246104D01*
X245088Y155413D02*
Y157445D01*
X224977Y159805D02*
X227008D01*
X225993Y158789D02*
Y160821D01*
X394723Y211599D02*
X396754D01*
X395738Y210583D02*
Y212615D01*
X390433Y200382D02*
X392465D01*
X391449Y199366D02*
Y201398D01*
X402570Y204991D02*
X404602D01*
X403586Y203975D02*
Y206007D01*
X385661Y255366D02*
X387692D01*
X386676Y254350D02*
Y256382D01*
X379569Y235353D02*
X381601D01*
X380585Y234337D02*
Y236369D01*
X593629Y182081D02*
X595661D01*
X594645Y181065D02*
Y183097D01*
X613471Y175634D02*
X615504D01*
X614487Y174618D02*
Y176650D01*
X176315Y274000D02*
X178347D01*
X177330Y272984D02*
Y275016D01*
X171362Y274000D02*
X173393D01*
X172377Y272984D02*
Y275016D01*
X569405Y236820D02*
X571437D01*
X570421Y235804D02*
Y237836D01*
X221184Y220360D02*
X223216D01*
X222200Y219344D02*
Y221376D01*
X180276Y29334D02*
X182308D01*
X181292Y28318D02*
Y30350D01*
X122532Y356427D02*
X124564D01*
X123548Y355411D02*
Y357443D01*
X510047Y281317D02*
X512079D01*
X511063Y280301D02*
Y282333D01*
X312651Y253000D02*
X314683D01*
X313667Y251984D02*
Y254016D01*
X235361Y327149D02*
X237393D01*
X236377Y326133D02*
Y328165D01*
X80980Y53250D02*
X83520D01*
X82250Y51980D02*
Y54520D01*
X570980Y77000D02*
X573520D01*
X572250Y75730D02*
Y78270D01*
X221234Y84750D02*
X223266D01*
X222250Y83734D02*
Y85766D01*
X359234Y48750D02*
X361266D01*
X360250Y47734D02*
Y49766D01*
X389484Y60250D02*
X391516D01*
X390500Y59234D02*
Y61266D01*
X310946Y61091D02*
X312978D01*
X311962Y60075D02*
Y62107D01*
X353913Y237430D02*
X355945D01*
X354929Y236414D02*
Y238446D01*
X197734Y261250D02*
X199766D01*
X198750Y260234D02*
Y262266D01*
X368355Y140988D02*
X370387D01*
X369371Y139972D02*
Y142004D01*
X613234Y152250D02*
X615266D01*
X614250Y151234D02*
Y153266D01*
X613484Y300242D02*
X615516D01*
X614500Y299226D02*
Y301257D01*
X613984Y264273D02*
X616016D01*
X615000Y263258D02*
Y265289D01*
X613484Y305194D02*
X615516D01*
X614500Y304179D02*
Y306210D01*
X479496Y297767D02*
X481528D01*
X480512Y296751D02*
Y298783D01*
X484484Y297750D02*
X486516D01*
X485500Y296734D02*
Y298766D01*
X319265Y150015D02*
X321297D01*
X320281Y148999D02*
Y151031D01*
X265984Y89000D02*
X268016D01*
X267000Y87984D02*
Y90016D01*
X511643Y80929D02*
X513675D01*
X512659Y79913D02*
Y81945D01*
X183984Y108000D02*
X186016D01*
X185000Y106984D02*
Y109016D01*
X179984Y145000D02*
X182016D01*
X181000Y143984D02*
Y146016D01*
X559609Y234605D02*
X561641D01*
X560625Y233589D02*
Y235621D01*
X259675Y195446D02*
X261707D01*
X260691Y194431D02*
Y196462D01*
X251954Y195414D02*
X253986D01*
X252971Y194398D02*
Y196430D01*
X255864Y198042D02*
X257896D01*
X256880Y197026D02*
Y199058D01*
X612990Y147273D02*
X615022D01*
X614006Y146257D02*
Y148289D01*
X301984Y102584D02*
X304016D01*
X303000Y101568D02*
Y103600D01*
X180525Y361489D02*
X182557D01*
X181541Y360473D02*
Y362505D01*
X181342Y273915D02*
X183374D01*
X182358Y272899D02*
Y274931D01*
X183984Y261000D02*
X186016D01*
X185000Y259984D02*
Y262016D01*
X125625Y342912D02*
X127657D01*
X126641Y341896D02*
Y343928D01*
X119109Y336625D02*
X121141D01*
X120125Y335609D02*
Y337641D01*
X136517Y350984D02*
X138549D01*
X137534Y349968D02*
Y352000D01*
X305984Y243000D02*
X308016D01*
X307000Y241984D02*
Y244016D01*
X158762Y360554D02*
X160794D01*
X159778Y359538D02*
Y361570D01*
X166484Y297750D02*
X168516D01*
X167500Y296734D02*
Y298766D01*
X181484Y297750D02*
X183516D01*
X182500Y296734D02*
Y298766D01*
X460648Y43651D02*
X462680D01*
X461664Y42635D02*
Y44667D01*
X428984Y41000D02*
X431016D01*
X430000Y39984D02*
Y42016D01*
X569130Y272646D02*
X571162D01*
X570146Y271630D02*
Y273662D01*
X569234Y284750D02*
X571266D01*
X570250Y283734D02*
Y285766D01*
X528734Y353500D02*
X530766D01*
X529750Y352484D02*
Y354516D01*
X293984Y233000D02*
X296016D01*
X295000Y231984D02*
Y234016D01*
X344984Y150000D02*
X347016D01*
X346000Y148984D02*
Y151016D01*
X450984Y173000D02*
X453016D01*
X452000Y171984D02*
Y174016D01*
X545984Y259000D02*
X548016D01*
X547000Y257984D02*
Y260016D01*
X373984Y298000D02*
X376016D01*
X375000Y296984D02*
Y299016D01*
X436984Y338000D02*
X439016D01*
X438000Y336984D02*
Y339016D01*
X615200Y323507D02*
X617740D01*
X616470Y322237D02*
Y324777D01*
X615392Y60628D02*
X617932D01*
X616662Y59358D02*
Y61898D01*
X615392Y83628D02*
X617932D01*
X616662Y82358D02*
Y84898D01*
X7253Y56495D02*
X9793D01*
X8523Y55225D02*
Y57765D01*
X7253Y79495D02*
X9793D01*
X8523Y78225D02*
Y80765D01*
X7253Y102495D02*
X9793D01*
X8523Y101225D02*
Y103765D01*
X7253Y125495D02*
X9793D01*
X8523Y124225D02*
Y126765D01*
X7253Y148495D02*
X9793D01*
X8523Y147225D02*
Y149765D01*
X6957Y241508D02*
X9497D01*
X8227Y240238D02*
Y242778D01*
X7253Y217495D02*
X9793D01*
X8523Y216225D02*
Y218765D01*
X7253Y194495D02*
X9793D01*
X8523Y193225D02*
Y195765D01*
X7253Y171495D02*
X9793D01*
X8523Y170225D02*
Y172765D01*
X7168Y307209D02*
X9708D01*
X8438Y305939D02*
Y308479D01*
X7253Y286495D02*
X9793D01*
X8523Y285225D02*
Y287765D01*
X7253Y263495D02*
X9793D01*
X8523Y262225D02*
Y264765D01*
X564730Y373977D02*
X567270D01*
X566000Y372707D02*
Y375247D01*
X541730Y373977D02*
X544270D01*
X543000Y372707D02*
Y375247D01*
X518730Y373977D02*
X521270D01*
X520000Y372707D02*
Y375247D01*
X495730Y373977D02*
X498270D01*
X497000Y372707D02*
Y375247D01*
X472730Y373977D02*
X475270D01*
X474000Y372707D02*
Y375247D01*
X380730Y373977D02*
X383270D01*
X382000Y372707D02*
Y375247D01*
X403730Y373977D02*
X406270D01*
X405000Y372707D02*
Y375247D01*
X426730Y373977D02*
X429270D01*
X428000Y372707D02*
Y375247D01*
X449730Y373977D02*
X452270D01*
X451000Y372707D02*
Y375247D01*
X288730Y373977D02*
X291270D01*
X290000Y372707D02*
Y375247D01*
X311730Y373977D02*
X314270D01*
X313000Y372707D02*
Y375247D01*
X334730Y373977D02*
X337270D01*
X336000Y372707D02*
Y375247D01*
X357730Y373977D02*
X360270D01*
X359000Y372707D02*
Y375247D01*
X196730Y373977D02*
X199270D01*
X198000Y372707D02*
Y375247D01*
X219730Y373977D02*
X222270D01*
X221000Y372707D02*
Y375247D01*
X242730Y373977D02*
X245270D01*
X244000Y372707D02*
Y375247D01*
X265730Y373977D02*
X268270D01*
X267000Y372707D02*
Y375247D01*
X104730Y373977D02*
X107270D01*
X106000Y372707D02*
Y375247D01*
X127730Y373977D02*
X130270D01*
X129000Y372707D02*
Y375247D01*
X157730Y374000D02*
X160270D01*
X159000Y372730D02*
Y375270D01*
X173730Y373977D02*
X176270D01*
X175000Y372707D02*
Y375247D01*
X58730Y373977D02*
X61270D01*
X60000Y372707D02*
Y375247D01*
X80494Y374221D02*
X83034D01*
X81764Y372952D02*
Y375491D01*
X81730Y6000D02*
X84270D01*
X83000Y4730D02*
Y7270D01*
X58730Y6000D02*
X61270D01*
X60000Y4730D02*
Y7270D01*
X173730Y6000D02*
X176270D01*
X175000Y4730D02*
Y7270D01*
X150730Y6000D02*
X153270D01*
X152000Y4730D02*
Y7270D01*
X127730Y6000D02*
X130270D01*
X129000Y4730D02*
Y7270D01*
X104730Y6000D02*
X107270D01*
X106000Y4730D02*
Y7270D01*
X265730Y6000D02*
X268270D01*
X267000Y4730D02*
Y7270D01*
X242730Y6000D02*
X245270D01*
X244000Y4730D02*
Y7270D01*
X219730Y6000D02*
X222270D01*
X221000Y4730D02*
Y7270D01*
X196730Y6000D02*
X199270D01*
X198000Y4730D02*
Y7270D01*
X357730Y6000D02*
X360270D01*
X359000Y4730D02*
Y7270D01*
X334730Y6000D02*
X337270D01*
X336000Y4730D02*
Y7270D01*
X311730Y6000D02*
X314270D01*
X313000Y4730D02*
Y7270D01*
X288730Y6000D02*
X291270D01*
X290000Y4730D02*
Y7270D01*
X449730Y6000D02*
X452270D01*
X451000Y4730D02*
Y7270D01*
X426730Y6000D02*
X429270D01*
X428000Y4730D02*
Y7270D01*
X403730Y6000D02*
X406270D01*
X405000Y4730D02*
Y7270D01*
X380730Y6000D02*
X383270D01*
X382000Y4730D02*
Y7270D01*
X472730Y6000D02*
X475270D01*
X474000Y4730D02*
Y7270D01*
X495730Y6000D02*
X498270D01*
X497000Y4730D02*
Y7270D01*
X518730Y6000D02*
X521270D01*
X520000Y4730D02*
Y7270D01*
X541730Y6000D02*
X544270D01*
X543000Y4730D02*
Y7270D01*
X211460Y56387D02*
X213492D01*
X212476Y55371D02*
Y57403D01*
X206507Y56387D02*
X208539D01*
X207523Y55371D02*
Y57403D01*
X122067Y362100D02*
X124099D01*
X123083Y361085D02*
Y363116D01*
X67403Y246675D02*
X69435D01*
X68419Y245659D02*
Y247691D01*
X199876Y82640D02*
X201908D01*
X200891Y81624D02*
Y83656D01*
X494313Y201888D02*
X496345D01*
X495329Y200872D02*
Y202904D01*
X501684Y205000D02*
X503716D01*
X502700Y203984D02*
Y206016D01*
X54486Y287371D02*
X56518D01*
X55502Y286355D02*
Y288387D01*
X54408Y302229D02*
X56440D01*
X55424Y301213D02*
Y303245D01*
X583771Y166840D02*
X585803D01*
X584787Y165824D02*
Y167856D01*
X338425Y90803D02*
X340457D01*
X339441Y89787D02*
Y91819D01*
X132234Y39000D02*
X134266D01*
X133250Y37984D02*
Y40016D01*
X122234Y39000D02*
X124266D01*
X123250Y37984D02*
Y40016D01*
X32984Y85000D02*
X35016D01*
X34000Y83984D02*
Y86016D01*
X146790Y211187D02*
X148822D01*
X147806Y210171D02*
Y212203D01*
X96734Y222500D02*
X98766D01*
X97750Y221484D02*
Y223516D01*
X490463Y125021D02*
X492495D01*
X491479Y124005D02*
Y126037D01*
X458734Y33250D02*
X460766D01*
X459750Y32234D02*
Y34266D01*
X446484Y45000D02*
X448516D01*
X447500Y43984D02*
Y46016D01*
X583532Y212690D02*
X585564D01*
X584548Y211674D02*
Y213706D01*
X583532Y224848D02*
X585564D01*
X584548Y223832D02*
Y225864D01*
X469613Y83836D02*
X471645D01*
X470629Y82820D02*
Y84852D01*
X557216Y190681D02*
X559248D01*
X558232Y189665D02*
Y191697D01*
X538543Y169980D02*
X540575D01*
X539559Y168964D02*
Y170996D01*
X405933Y283000D02*
X407965D01*
X406949Y281984D02*
Y284016D01*
X411072Y283000D02*
X413103D01*
X412088Y281984D02*
Y284016D01*
X419484Y273000D02*
X421516D01*
X420500Y271984D02*
Y274016D01*
X429460Y273000D02*
X431493D01*
X430476Y271984D02*
Y274016D01*
X424507Y273000D02*
X426539D01*
X425523Y271984D02*
Y274016D01*
X180115Y336492D02*
X182147D01*
X181131Y335476D02*
Y337508D01*
X180115Y341445D02*
X182147D01*
X181131Y340429D02*
Y342461D01*
X180352Y356539D02*
X182384D01*
X181368Y355523D02*
Y357555D01*
X180356Y351540D02*
X182388D01*
X181372Y350524D02*
Y352556D01*
X186493Y274245D02*
X188525D01*
X187509Y273230D02*
Y275261D01*
X191475Y274245D02*
X193507D01*
X192491Y273230D02*
Y275261D01*
X436234Y208750D02*
X438266D01*
X437250Y207734D02*
Y209766D01*
X434068Y193681D02*
X436100D01*
X435084Y192665D02*
Y194697D01*
X384586Y298000D02*
X386618D01*
X385602Y296984D02*
Y299016D01*
X379633Y298000D02*
X381665D01*
X380649Y296984D02*
Y299016D01*
X389532Y297748D02*
X391564D01*
X390548Y296732D02*
Y298764D01*
X613990Y269226D02*
X616022D01*
X615006Y268211D02*
Y270243D01*
X414670Y339128D02*
X416702D01*
X415686Y338112D02*
Y340144D01*
X514693Y177975D02*
X516725D01*
X515709Y176959D02*
Y178991D01*
X128708Y201293D02*
X130740D01*
X129724Y200277D02*
Y202309D01*
X133160Y360634D02*
X135192D01*
X134176Y359618D02*
Y361650D01*
X118702Y207295D02*
X120735D01*
X119719Y206279D02*
Y208311D01*
X118852Y218135D02*
X120884D01*
X119868Y217119D02*
Y219151D01*
X118727Y212914D02*
X120759D01*
X119743Y211898D02*
Y213930D01*
X212592Y119899D02*
X214624D01*
X213608Y118883D02*
Y120915D01*
X93594Y269264D02*
X95626D01*
X94610Y268248D02*
Y270280D01*
X67403Y267224D02*
X69435D01*
X68419Y266208D02*
Y268240D01*
X285360Y67125D02*
X287392D01*
X286376Y66108D02*
Y68141D01*
X281857Y70627D02*
X283889D01*
X282873Y69611D02*
Y71643D01*
X369461Y320250D02*
X371493D01*
X370477Y319234D02*
Y321266D01*
X364508Y320250D02*
X366540D01*
X365524Y319234D02*
Y321266D01*
X569207Y309574D02*
X571239D01*
X570223Y308558D02*
Y310590D01*
X226460Y59750D02*
X228492D01*
X227476Y58734D02*
Y60766D01*
X221507Y59750D02*
X223539D01*
X222523Y58734D02*
Y60766D01*
X511865Y125500D02*
X513896D01*
X512881Y124484D02*
Y126516D01*
X516818Y125500D02*
X518849D01*
X517834Y124484D02*
Y126516D01*
X500016Y92673D02*
X502048D01*
X501032Y91657D02*
Y93688D01*
X503519Y96175D02*
X505551D01*
X504535Y95159D02*
Y97191D01*
X583532Y176551D02*
X585564D01*
X584548Y175535D02*
Y177567D01*
X559984Y152000D02*
X562016D01*
X561000Y150984D02*
Y153016D01*
X557162Y198382D02*
X559194D01*
X558178Y197366D02*
Y199398D01*
X549407Y194694D02*
X551439D01*
X550423Y193678D02*
Y195710D01*
X598984Y133000D02*
X601016D01*
X600000Y131984D02*
Y134016D01*
X613515Y246262D02*
X615546D01*
X614530Y245246D02*
Y247278D01*
X598094Y246484D02*
X600126D01*
X599110Y245468D02*
Y247500D01*
X612984Y231000D02*
X615016D01*
X614000Y229984D02*
Y232016D01*
X581926Y240818D02*
X583958D01*
X582942Y239802D02*
Y241834D01*
X597825Y237952D02*
X599856D01*
X598840Y236936D02*
Y238968D01*
X596157Y231905D02*
X598189D01*
X597173Y230889D02*
Y232921D01*
X612947Y236814D02*
X614979D01*
X613963Y235798D02*
Y237830D01*
X560984Y167000D02*
X563016D01*
X562000Y165984D02*
Y168016D01*
X599088Y184322D02*
X601120D01*
X600104Y183306D02*
Y185338D01*
X600484Y164000D02*
X602516D01*
X601500Y162984D02*
Y165016D01*
X541973Y227473D02*
X544005D01*
X542989Y226457D02*
Y228489D01*
X549425Y227611D02*
X551457D01*
X550441Y226595D02*
Y228627D01*
X583060Y232726D02*
X585092D01*
X584076Y231710D02*
Y233742D01*
X476251Y177279D02*
X478283D01*
X477267Y176264D02*
Y178295D01*
X452471Y182554D02*
X454503D01*
X453487Y181539D02*
Y183570D01*
X419927Y183484D02*
X421959D01*
X420943Y182468D02*
Y184500D01*
X278240Y74276D02*
X280272D01*
X279256Y73260D02*
Y75292D01*
X569051Y112750D02*
X571083D01*
X570067Y111734D02*
Y113766D01*
X88233Y84899D02*
X90266D01*
X89249Y83883D02*
Y85915D01*
X191984Y50000D02*
X194016D01*
X193000Y48984D02*
Y51016D01*
X132984Y367750D02*
X135016D01*
X134000Y366734D02*
Y368766D01*
X149607Y54414D02*
X151639D01*
X150623Y53398D02*
Y55430D01*
X151234Y59500D02*
X153266D01*
X152250Y58484D02*
Y60516D01*
X116371Y59708D02*
X118403D01*
X117387Y58692D02*
Y60724D01*
X121484Y60750D02*
X123516D01*
X122500Y59734D02*
Y61766D01*
X126484Y60750D02*
X128516D01*
X127500Y59734D02*
Y61766D01*
X166484Y61250D02*
X168516D01*
X167500Y60234D02*
Y62266D01*
X151483Y295965D02*
X153515D01*
X152499Y294949D02*
Y296981D01*
X108836Y296527D02*
X110868D01*
X109852Y295511D02*
Y297543D01*
X114963Y362979D02*
X116995D01*
X115979Y361963D02*
Y363995D01*
X83325Y329282D02*
X85357D01*
X84341Y328266D02*
Y330298D01*
X112984Y372287D02*
X115016D01*
X114000Y371271D02*
Y373303D01*
X66484Y354500D02*
X68516D01*
X67500Y353484D02*
Y355516D01*
X69402Y335056D02*
X71434D01*
X70418Y334040D02*
Y336072D01*
X119908Y368604D02*
X121940D01*
X120924Y367588D02*
Y369620D01*
X114234Y210000D02*
X116266D01*
X115250Y208984D02*
Y211016D01*
X114234Y215750D02*
X116266D01*
X115250Y214734D02*
Y216766D01*
X94734Y249000D02*
X96766D01*
X95750Y247984D02*
Y250016D01*
X93836Y297650D02*
X95869D01*
X94853Y296634D02*
Y298666D01*
X439234Y187500D02*
X441266D01*
X440250Y186484D02*
Y188516D01*
X443734Y192750D02*
X445766D01*
X444750Y191734D02*
Y193766D01*
X142351Y83657D02*
X144383D01*
X143367Y82641D02*
Y84673D01*
X243257Y252722D02*
X245289D01*
X244273Y251706D02*
Y253738D01*
X359484Y319750D02*
X361516D01*
X360500Y318734D02*
Y320766D01*
X419484Y298000D02*
X421516D01*
X420500Y296984D02*
Y299016D01*
X338234Y351500D02*
X340266D01*
X339250Y350484D02*
Y352516D01*
X268484Y320000D02*
X270516D01*
X269500Y318984D02*
Y321016D01*
X101234Y30500D02*
X103266D01*
X102250Y29484D02*
Y31516D01*
X408713Y128285D02*
X410745D01*
X409729Y127268D02*
Y129300D01*
X352734Y104750D02*
X354766D01*
X353750Y103734D02*
Y105766D01*
X520984Y339000D02*
X523016D01*
X522000Y337984D02*
Y340016D01*
X454484Y116500D02*
X456516D01*
X455500Y115484D02*
Y117516D01*
X473234Y119750D02*
X475266D01*
X474250Y118734D02*
Y120766D01*
X379484Y83250D02*
X381516D01*
X380500Y82234D02*
Y84266D01*
X314984Y248000D02*
X317016D01*
X316000Y246984D02*
Y249016D01*
X212734Y175750D02*
X214766D01*
X213750Y174734D02*
Y176766D01*
X213984Y166654D02*
X216016D01*
X215000Y165638D02*
Y167670D01*
X534734Y114000D02*
X536766D01*
X535750Y112984D02*
Y115016D01*
X558484Y125000D02*
X560516D01*
X559500Y123984D02*
Y126016D01*
X550734Y210750D02*
X552766D01*
X551750Y209734D02*
Y211766D01*
X541605Y210316D02*
X543637D01*
X542621Y209300D02*
Y211332D01*
X246484Y83250D02*
X248516D01*
X247500Y82234D02*
Y84266D01*
X488984Y286000D02*
X491016D01*
X490000Y284984D02*
Y287016D01*
X221294Y154017D02*
X223326D01*
X222309Y153001D02*
Y155033D01*
X212734Y95250D02*
X214766D01*
X213750Y94234D02*
Y96266D01*
X199547Y95147D02*
X201579D01*
X200563Y94131D02*
Y96163D01*
X597234Y154500D02*
X599266D01*
X598250Y153484D02*
Y155516D01*
X602692Y109206D02*
X604724D01*
X603708Y108190D02*
Y110223D01*
X506734Y125500D02*
X508766D01*
X507750Y124484D02*
Y126516D01*
X521984Y125500D02*
X524016D01*
X523000Y124484D02*
Y126516D01*
X566500Y248807D02*
X568532D01*
X567516Y247791D02*
Y249823D01*
X569322Y252877D02*
X571354D01*
X570338Y251861D02*
Y253893D01*
X565890Y256865D02*
X567922D01*
X566906Y255849D02*
Y257881D01*
X612916Y225958D02*
X614949D01*
X613932Y224942D02*
Y226973D01*
X612884Y284750D02*
X614916D01*
X613900Y283734D02*
Y285766D01*
X444484Y295250D02*
X446516D01*
X445500Y294234D02*
Y296266D01*
X412984Y295250D02*
X415016D01*
X414000Y294234D02*
Y296266D01*
X255646Y230412D02*
X257678D01*
X256662Y229396D02*
Y231428D01*
X264391Y255579D02*
X266423D01*
X265407Y254563D02*
Y256595D01*
X334984Y191250D02*
X337016D01*
X336000Y190234D02*
Y192266D01*
X358984Y182250D02*
X361016D01*
X360000Y181234D02*
Y183266D01*
X138729Y60548D02*
X140761D01*
X139745Y59532D02*
Y61564D01*
X338984Y199250D02*
X341016D01*
X340000Y198234D02*
Y200266D01*
X285182Y150260D02*
X287214D01*
X286198Y149244D02*
Y151276D01*
X300734Y183500D02*
X302766D01*
X301750Y182484D02*
Y184516D01*
X213617Y130324D02*
X215649D01*
X214633Y129308D02*
Y131340D01*
X220234Y122000D02*
X222266D01*
X221250Y120984D02*
Y123016D01*
X222109Y145625D02*
X224141D01*
X223125Y144609D02*
Y146641D01*
X217610Y158075D02*
X219643D01*
X218626Y157059D02*
Y159091D01*
X214021Y183097D02*
X216053D01*
X215037Y182081D02*
Y184113D01*
X212484Y158750D02*
X214516D01*
X213500Y157734D02*
Y159766D01*
X219874Y274455D02*
X221907D01*
X220891Y273439D02*
Y275471D01*
X211484Y283000D02*
X213516D01*
X212500Y281984D02*
Y284016D01*
X219691Y291236D02*
X221723D01*
X220707Y290219D02*
Y292251D01*
X225816Y291101D02*
X227848D01*
X226832Y290085D02*
Y292117D01*
X246484Y274750D02*
X248516D01*
X247500Y273734D02*
Y275766D01*
X243484Y278750D02*
X245516D01*
X244500Y277734D02*
Y279766D01*
X218984Y30750D02*
X221016D01*
X220000Y29734D02*
Y31766D01*
X317038Y26297D02*
X319070D01*
X318054Y25281D02*
Y27313D01*
X310480Y31367D02*
X312512D01*
X311496Y30351D02*
Y32383D01*
X289734Y22000D02*
X291766D01*
X290750Y20984D02*
Y23016D01*
X268234Y29000D02*
X270266D01*
X269250Y27984D02*
Y30016D01*
X208734Y346500D02*
X210766D01*
X209750Y345484D02*
Y347516D01*
X249734Y259750D02*
X251766D01*
X250750Y258734D02*
Y260766D01*
X253984Y255500D02*
X256016D01*
X255000Y254484D02*
Y256516D01*
X328994Y249740D02*
X331026D01*
X330010Y248724D02*
Y250756D01*
X212954Y105453D02*
X214986D01*
X213970Y104437D02*
Y106469D01*
X230034Y106750D02*
X232066D01*
X231050Y105734D02*
Y107766D01*
X242734Y110750D02*
X244766D01*
X243750Y109734D02*
Y111766D01*
X242734Y122750D02*
X244766D01*
X243750Y121734D02*
Y123766D01*
X242734Y134750D02*
X244766D01*
X243750Y133734D02*
Y135766D01*
X242734Y146750D02*
X244766D01*
X243750Y145734D02*
Y147766D01*
X199484Y252750D02*
X201516D01*
X200500Y251734D02*
Y253766D01*
X199484Y220750D02*
X201516D01*
X200500Y219734D02*
Y221766D01*
X199484Y204750D02*
X201516D01*
X200500Y203734D02*
Y205766D01*
X213484Y190750D02*
X215516D01*
X214500Y189734D02*
Y191766D01*
X212984Y151750D02*
X215016D01*
X214000Y150734D02*
Y152766D01*
X270984Y95750D02*
X273016D01*
X272000Y94734D02*
Y96766D01*
X256984Y110750D02*
X259016D01*
X258000Y109734D02*
Y111766D01*
X262734Y116500D02*
X264766D01*
X263750Y115484D02*
Y117516D01*
X262489Y127133D02*
X264521D01*
X263505Y126117D02*
Y128149D01*
X351484Y200000D02*
X353516D01*
X352500Y198984D02*
Y201016D01*
X345984Y255000D02*
X348016D01*
X347000Y253984D02*
Y256016D01*
X401984Y128500D02*
X404016D01*
X403000Y127484D02*
Y129516D01*
X382484Y101750D02*
X384516D01*
X383500Y100734D02*
Y102766D01*
X338484Y83000D02*
X340516D01*
X339500Y81984D02*
Y84016D01*
X216276Y57994D02*
X218308D01*
X217292Y56978D02*
Y59010D01*
X475734Y282250D02*
X477766D01*
X476750Y281234D02*
Y283266D01*
X456987Y274342D02*
X459019D01*
X458003Y273326D02*
Y275358D01*
X469670Y297542D02*
X471702D01*
X470686Y296526D02*
Y298558D01*
X458631Y297835D02*
X460663D01*
X459647Y296819D02*
Y298851D01*
X514234Y212250D02*
X516266D01*
X515250Y211234D02*
Y213266D01*
X514234Y131250D02*
X516266D01*
X515250Y130234D02*
Y132266D01*
X482234Y202000D02*
X484266D01*
X483250Y200984D02*
Y203016D01*
X213484Y272750D02*
X215516D01*
X214500Y271734D02*
Y273766D01*
X213234Y260500D02*
X215266D01*
X214250Y259484D02*
Y261516D01*
X243984Y259500D02*
X246016D01*
X245000Y258484D02*
Y260516D01*
X228984Y260500D02*
X231016D01*
X230000Y259484D02*
Y261516D01*
X229484Y271750D02*
X231516D01*
X230500Y270734D02*
Y272766D01*
X67734Y287750D02*
X69766D01*
X68750Y286734D02*
Y288766D01*
X179984Y331500D02*
X182016D01*
X181000Y330484D02*
Y332516D01*
X180234Y346500D02*
X182266D01*
X181250Y345484D02*
Y347516D01*
X449484Y297750D02*
X451516D01*
X450500Y296734D02*
Y298766D01*
X464484Y297750D02*
X466516D01*
X465500Y296734D02*
Y298766D01*
X455129Y294333D02*
X457161D01*
X456145Y293317D02*
Y295349D01*
X416734Y289750D02*
X418766D01*
X417750Y288734D02*
Y290766D01*
X434484Y297750D02*
X436516D01*
X435500Y296734D02*
Y298766D01*
X374484Y319750D02*
X376516D01*
X375500Y318734D02*
Y320766D01*
X404484Y297750D02*
X406516D01*
X405500Y296734D02*
Y298766D01*
X246484Y319750D02*
X248516D01*
X247500Y318734D02*
Y320766D01*
X241484Y319750D02*
X243516D01*
X242500Y318734D02*
Y320766D01*
X226484Y319750D02*
X228516D01*
X227500Y318734D02*
Y320766D01*
X211484Y319750D02*
X213516D01*
X212500Y318734D02*
Y320766D01*
X196484Y319750D02*
X198516D01*
X197500Y318734D02*
Y320766D01*
X96234Y360750D02*
X98266D01*
X97250Y359734D02*
Y361766D01*
X161234Y58500D02*
X163266D01*
X162250Y57484D02*
Y59516D01*
X329484Y68250D02*
X331516D01*
X330500Y67234D02*
Y69266D01*
X360984Y99250D02*
X363016D01*
X362000Y98234D02*
Y100266D01*
X320234Y94000D02*
X322266D01*
X321250Y92984D02*
Y95016D01*
X399484Y83000D02*
X401516D01*
X400500Y81984D02*
Y84016D01*
X392917Y83626D02*
X394949D01*
X393933Y82610D02*
Y84642D01*
X435734Y28500D02*
X437766D01*
X436750Y27484D02*
Y29516D01*
X359484Y83250D02*
X361516D01*
X360500Y82234D02*
Y84266D01*
X364484Y83250D02*
X366516D01*
X365500Y82234D02*
Y84266D01*
X338734Y29500D02*
X340766D01*
X339750Y28484D02*
Y30516D01*
X384234Y56000D02*
X386266D01*
X385250Y54984D02*
Y57016D01*
X156484Y61250D02*
X158516D01*
X157500Y60234D02*
Y62266D01*
X171484Y83250D02*
X173516D01*
X172500Y82234D02*
Y84266D01*
X484488Y89228D02*
X486520D01*
X485504Y88212D02*
Y90244D01*
X409484Y83250D02*
X411516D01*
X410500Y82234D02*
Y84266D01*
X288941Y63444D02*
X290973D01*
X289957Y62428D02*
Y64461D01*
X413484Y28000D02*
X415516D01*
X414500Y26984D02*
Y29016D01*
X391984Y27500D02*
X394016D01*
X393000Y26484D02*
Y28516D01*
X379984Y27500D02*
X382016D01*
X381000Y26484D02*
Y28516D01*
X569051Y148750D02*
X571083D01*
X570067Y147734D02*
Y149766D01*
X569051Y136750D02*
X571083D01*
X570067Y135734D02*
Y137766D01*
X569051Y124750D02*
X571083D01*
X570067Y123734D02*
Y125766D01*
X507234Y99750D02*
X509266D01*
X508250Y98734D02*
Y100766D01*
X599884Y124750D02*
X601916D01*
X600900Y123734D02*
Y125766D01*
X435772Y108495D02*
X437804D01*
X436788Y107479D02*
Y109511D01*
X599484Y191500D02*
X601516D01*
X600500Y190484D02*
Y192516D01*
X560485Y245251D02*
X562517D01*
X561501Y244235D02*
Y246267D01*
X612984Y188250D02*
X615016D01*
X614000Y187234D02*
Y189266D01*
X613292Y180663D02*
X615324D01*
X614308Y179647D02*
Y181679D01*
X362019Y106763D02*
X364051D01*
X363035Y105747D02*
Y107779D01*
X454484Y83836D02*
X456516D01*
X455500Y82820D02*
Y84852D01*
X439397Y83836D02*
X441428D01*
X440412Y82820D02*
Y84852D01*
X429234Y104500D02*
X431266D01*
X430250Y103484D02*
Y105516D01*
X496234Y89000D02*
X498266D01*
X497250Y87984D02*
Y90016D01*
X613234Y157250D02*
X615266D01*
X614250Y156234D02*
Y158266D01*
X612917Y136750D02*
X614949D01*
X613933Y135734D02*
Y137766D01*
X612884Y162191D02*
X614916D01*
X613900Y161175D02*
Y163207D01*
X231484Y59750D02*
X233516D01*
X232500Y58734D02*
Y60766D01*
X201484Y56500D02*
X203516D01*
X202500Y55484D02*
Y57516D01*
X612734Y168750D02*
X614766D01*
X613750Y167734D02*
Y169766D01*
X501734Y283750D02*
X503766D01*
X502750Y282734D02*
Y284766D01*
X569234Y296750D02*
X571266D01*
X570250Y295734D02*
Y297766D01*
X221184Y250780D02*
X223216D01*
X222200Y249764D02*
Y251796D01*
X221184Y240640D02*
X223216D01*
X222200Y239624D02*
Y241656D01*
X221184Y230500D02*
X223216D01*
X222200Y229484D02*
Y231516D01*
X221184Y210220D02*
X223216D01*
X222200Y209204D02*
Y211236D01*
X221184Y200310D02*
X223216D01*
X222200Y199294D02*
Y201326D01*
X196734Y274250D02*
X198766D01*
X197750Y273234D02*
Y275266D01*
X434484Y273000D02*
X436516D01*
X435500Y271984D02*
Y274016D01*
X416234Y283250D02*
X418266D01*
X417250Y282234D02*
Y284266D01*
X400734Y283250D02*
X402766D01*
X401750Y282234D02*
Y284266D01*
X613935Y274179D02*
X615967D01*
X614951Y273163D02*
Y275195D01*
X613993Y259321D02*
X616025D01*
X615009Y258305D02*
Y260336D01*
X613484Y310147D02*
X615516D01*
X614500Y309132D02*
Y311164D01*
X613193Y295297D02*
X615225D01*
X614209Y294281D02*
Y296313D01*
X569234Y260750D02*
X571266D01*
X570250Y259734D02*
Y261766D01*
X82984Y308000D02*
X85016D01*
X84000Y306984D02*
Y309016D01*
X82234Y241000D02*
X84266D01*
X83250Y239984D02*
Y242016D01*
X520980Y59750D02*
X523520D01*
X522250Y58480D02*
Y61020D01*
X562480Y59750D02*
X565020D01*
X563750Y58480D02*
Y61020D01*
X541730Y39000D02*
X544270D01*
X543000Y37730D02*
Y40270D01*
X541730Y80500D02*
X544270D01*
X543000Y79230D02*
Y81770D01*
X278980Y301750D02*
X281520D01*
X280250Y300480D02*
Y303020D01*
X320480Y301750D02*
X323020D01*
X321750Y300480D02*
Y303020D01*
X299730Y281000D02*
X302270D01*
X301000Y279730D02*
Y282270D01*
X299730Y322500D02*
X302270D01*
X301000Y321230D02*
Y323770D01*
X7565Y328803D02*
X10105D01*
X8835Y327533D02*
Y330073D01*
X38881Y342324D02*
X41421D01*
X40151Y341054D02*
Y343594D01*
X44704Y352411D02*
X47244D01*
X45974Y351141D02*
Y353681D01*
X44704Y364058D02*
X47244D01*
X45974Y362788D02*
Y365328D01*
X38881Y374144D02*
X41421D01*
X40151Y372874D02*
Y375414D01*
X7061Y342324D02*
X9601D01*
X8331Y341054D02*
Y343594D01*
X17148Y336501D02*
X19688D01*
X18418Y335231D02*
Y337771D01*
X28794Y336501D02*
X31334D01*
X30064Y335231D02*
Y337771D01*
X38881Y37652D02*
X41421D01*
X40151Y36383D02*
Y38923D01*
X44704Y27566D02*
X47244D01*
X45974Y26296D02*
Y28836D01*
X44704Y15919D02*
X47244D01*
X45974Y14649D02*
Y17189D01*
X38881Y5833D02*
X41421D01*
X40151Y4563D02*
Y7103D01*
X7061Y37652D02*
X9601D01*
X8331Y36383D02*
Y38923D01*
X17148Y43476D02*
X19688D01*
X18418Y42206D02*
Y44746D01*
X28794Y43476D02*
X31334D01*
X30064Y42206D02*
Y44746D01*
X583572Y342349D02*
X586112D01*
X584842Y341079D02*
Y343619D01*
X593659Y336526D02*
X596199D01*
X594929Y335256D02*
Y337796D01*
X605305Y336526D02*
X607845D01*
X606575Y335256D02*
Y337796D01*
X615392Y342349D02*
X617932D01*
X616662Y341079D02*
Y343619D01*
X583572Y374169D02*
X586112D01*
X584842Y372899D02*
Y375439D01*
X577749Y364083D02*
X580289D01*
X579019Y362813D02*
Y365353D01*
X577749Y352436D02*
X580289D01*
X579019Y351166D02*
Y353706D01*
X577749Y27541D02*
X580289D01*
X579019Y26271D02*
Y28811D01*
X577749Y15894D02*
X580289D01*
X579019Y14624D02*
Y17164D01*
X583572Y5808D02*
X586112D01*
X584842Y4538D02*
Y7078D01*
X615392Y37628D02*
X617932D01*
X616662Y36358D02*
Y38898D01*
X605305Y43451D02*
X607845D01*
X606575Y42181D02*
Y44721D01*
X593659Y43451D02*
X596199D01*
X594929Y42181D02*
Y44721D01*
X583572Y37628D02*
X586112D01*
X584842Y36358D02*
Y38898D01*
X564730Y6000D02*
X567270D01*
X566000Y4730D02*
Y7270D01*
M02*
