G04*
G04 #@! TF.GenerationSoftware,Altium Limited,Altium Designer,21.2.2 (38)*
G04*
G04 Layer_Physical_Order=6*
G04 Layer_Color=16711680*
%FSLAX44Y44*%
%MOMM*%
G71*
G04*
G04 #@! TF.SameCoordinates,5E46DD17-87F1-4086-B896-1A8DD57D8BDF*
G04*
G04*
G04 #@! TF.FilePolarity,Positive*
G04*
G01*
G75*
%ADD11C,0.3000*%
%ADD13C,0.2500*%
%ADD14C,0.5000*%
%ADD15C,0.2000*%
%ADD16C,0.1000*%
%ADD17C,0.1016*%
G04:AMPARAMS|DCode=21|XSize=0.2mm|YSize=0.565mm|CornerRadius=0.05mm|HoleSize=0mm|Usage=FLASHONLY|Rotation=90.000|XOffset=0mm|YOffset=0mm|HoleType=Round|Shape=RoundedRectangle|*
%AMROUNDEDRECTD21*
21,1,0.2000,0.4650,0,0,90.0*
21,1,0.1000,0.5650,0,0,90.0*
1,1,0.1000,0.2325,0.0500*
1,1,0.1000,0.2325,-0.0500*
1,1,0.1000,-0.2325,-0.0500*
1,1,0.1000,-0.2325,0.0500*
%
%ADD21ROUNDEDRECTD21*%
G04:AMPARAMS|DCode=22|XSize=0.4mm|YSize=0.565mm|CornerRadius=0.05mm|HoleSize=0mm|Usage=FLASHONLY|Rotation=90.000|XOffset=0mm|YOffset=0mm|HoleType=Round|Shape=RoundedRectangle|*
%AMROUNDEDRECTD22*
21,1,0.4000,0.4650,0,0,90.0*
21,1,0.3000,0.5650,0,0,90.0*
1,1,0.1000,0.2325,0.1500*
1,1,0.1000,0.2325,-0.1500*
1,1,0.1000,-0.2325,-0.1500*
1,1,0.1000,-0.2325,0.1500*
%
%ADD22ROUNDEDRECTD22*%
%ADD31R,0.6500X0.5500*%
%ADD33R,1.0000X0.9000*%
%ADD35R,0.5500X0.6500*%
%ADD39R,0.7100X0.3000*%
%ADD97C,0.0889*%
%ADD98C,1.0000*%
%ADD100C,0.1270*%
%ADD101C,0.4000*%
%ADD103C,0.1500*%
%ADD105C,1.8000*%
%ADD106O,4.5000X2.5000*%
%ADD107O,2.5000X5.0000*%
%ADD108O,2.5000X4.5000*%
%ADD109O,1.9000X1.1000*%
%ADD110O,2.4000X1.1000*%
%ADD112C,0.4064*%
%ADD113C,0.5080*%
%ADD127C,2.7000*%
G04:AMPARAMS|DCode=130|XSize=0.6mm|YSize=1mm|CornerRadius=0.051mm|HoleSize=0mm|Usage=FLASHONLY|Rotation=180.000|XOffset=0mm|YOffset=0mm|HoleType=Round|Shape=RoundedRectangle|*
%AMROUNDEDRECTD130*
21,1,0.6000,0.8980,0,0,180.0*
21,1,0.4980,1.0000,0,0,180.0*
1,1,0.1020,-0.2490,0.4490*
1,1,0.1020,0.2490,0.4490*
1,1,0.1020,0.2490,-0.4490*
1,1,0.1020,-0.2490,-0.4490*
%
%ADD130ROUNDEDRECTD130*%
%ADD131R,2.7000X1.0000*%
%ADD132R,1.7000X0.6000*%
%ADD133R,2.4000X2.4000*%
%ADD134R,0.3000X1.6000*%
%ADD135R,2.4000X2.4000*%
%ADD136R,0.3200X0.3600*%
G04:AMPARAMS|DCode=137|XSize=0.25mm|YSize=0.6mm|CornerRadius=0.025mm|HoleSize=0mm|Usage=FLASHONLY|Rotation=0.000|XOffset=0mm|YOffset=0mm|HoleType=Round|Shape=RoundedRectangle|*
%AMROUNDEDRECTD137*
21,1,0.2500,0.5500,0,0,0.0*
21,1,0.2000,0.6000,0,0,0.0*
1,1,0.0500,0.1000,-0.2750*
1,1,0.0500,-0.1000,-0.2750*
1,1,0.0500,-0.1000,0.2750*
1,1,0.0500,0.1000,0.2750*
%
%ADD137ROUNDEDRECTD137*%
G04:AMPARAMS|DCode=138|XSize=1mm|YSize=3mm|CornerRadius=0.05mm|HoleSize=0mm|Usage=FLASHONLY|Rotation=90.000|XOffset=0mm|YOffset=0mm|HoleType=Round|Shape=RoundedRectangle|*
%AMROUNDEDRECTD138*
21,1,1.0000,2.9000,0,0,90.0*
21,1,0.9000,3.0000,0,0,90.0*
1,1,0.1000,1.4500,0.4500*
1,1,0.1000,1.4500,-0.4500*
1,1,0.1000,-1.4500,-0.4500*
1,1,0.1000,-1.4500,0.4500*
%
%ADD138ROUNDEDRECTD138*%
G04:AMPARAMS|DCode=139|XSize=0.25mm|YSize=0.6mm|CornerRadius=0.025mm|HoleSize=0mm|Usage=FLASHONLY|Rotation=90.000|XOffset=0mm|YOffset=0mm|HoleType=Round|Shape=RoundedRectangle|*
%AMROUNDEDRECTD139*
21,1,0.2500,0.5500,0,0,90.0*
21,1,0.2000,0.6000,0,0,90.0*
1,1,0.0500,0.2750,0.1000*
1,1,0.0500,0.2750,-0.1000*
1,1,0.0500,-0.2750,-0.1000*
1,1,0.0500,-0.2750,0.1000*
%
%ADD139ROUNDEDRECTD139*%
%ADD140R,0.9000X1.0000*%
%ADD141R,0.7000X0.9000*%
%ADD142R,0.4000X0.9000*%
G04:AMPARAMS|DCode=143|XSize=0.3mm|YSize=0.67mm|CornerRadius=0.0495mm|HoleSize=0mm|Usage=FLASHONLY|Rotation=180.000|XOffset=0mm|YOffset=0mm|HoleType=Round|Shape=RoundedRectangle|*
%AMROUNDEDRECTD143*
21,1,0.3000,0.5710,0,0,180.0*
21,1,0.2010,0.6700,0,0,180.0*
1,1,0.0990,-0.1005,0.2855*
1,1,0.0990,0.1005,0.2855*
1,1,0.0990,0.1005,-0.2855*
1,1,0.0990,-0.1005,-0.2855*
%
%ADD143ROUNDEDRECTD143*%
%ADD144R,0.8000X2.0000*%
%ADD145R,0.5200X0.5200*%
G04:AMPARAMS|DCode=146|XSize=0.2mm|YSize=0.565mm|CornerRadius=0.05mm|HoleSize=0mm|Usage=FLASHONLY|Rotation=225.000|XOffset=0mm|YOffset=0mm|HoleType=Round|Shape=RoundedRectangle|*
%AMROUNDEDRECTD146*
21,1,0.2000,0.4650,0,0,225.0*
21,1,0.1000,0.5650,0,0,225.0*
1,1,0.1000,-0.1998,0.1291*
1,1,0.1000,-0.1291,0.1998*
1,1,0.1000,0.1998,-0.1291*
1,1,0.1000,0.1291,-0.1998*
%
%ADD146ROUNDEDRECTD146*%
G04:AMPARAMS|DCode=147|XSize=0.4mm|YSize=0.565mm|CornerRadius=0.05mm|HoleSize=0mm|Usage=FLASHONLY|Rotation=225.000|XOffset=0mm|YOffset=0mm|HoleType=Round|Shape=RoundedRectangle|*
%AMROUNDEDRECTD147*
21,1,0.4000,0.4650,0,0,225.0*
21,1,0.3000,0.5650,0,0,225.0*
1,1,0.1000,-0.2705,0.0583*
1,1,0.1000,-0.0583,0.2705*
1,1,0.1000,0.2705,-0.0583*
1,1,0.1000,0.0583,-0.2705*
%
%ADD147ROUNDEDRECTD147*%
G04:AMPARAMS|DCode=148|XSize=0.2mm|YSize=0.565mm|CornerRadius=0.05mm|HoleSize=0mm|Usage=FLASHONLY|Rotation=0.000|XOffset=0mm|YOffset=0mm|HoleType=Round|Shape=RoundedRectangle|*
%AMROUNDEDRECTD148*
21,1,0.2000,0.4650,0,0,0.0*
21,1,0.1000,0.5650,0,0,0.0*
1,1,0.1000,0.0500,-0.2325*
1,1,0.1000,-0.0500,-0.2325*
1,1,0.1000,-0.0500,0.2325*
1,1,0.1000,0.0500,0.2325*
%
%ADD148ROUNDEDRECTD148*%
G04:AMPARAMS|DCode=149|XSize=0.4mm|YSize=0.565mm|CornerRadius=0.05mm|HoleSize=0mm|Usage=FLASHONLY|Rotation=0.000|XOffset=0mm|YOffset=0mm|HoleType=Round|Shape=RoundedRectangle|*
%AMROUNDEDRECTD149*
21,1,0.4000,0.4650,0,0,0.0*
21,1,0.3000,0.5650,0,0,0.0*
1,1,0.1000,0.1500,-0.2325*
1,1,0.1000,-0.1500,-0.2325*
1,1,0.1000,-0.1500,0.2325*
1,1,0.1000,0.1500,0.2325*
%
%ADD149ROUNDEDRECTD149*%
%ADD150R,0.7600X2.4000*%
%ADD151R,0.5500X0.4500*%
%ADD152R,0.9000X0.7000*%
%ADD153R,0.7500X1.4000*%
%ADD154R,0.2500X0.6750*%
%ADD155R,0.5750X0.2500*%
%ADD156R,0.4500X0.5500*%
%ADD157R,0.5200X0.5200*%
%ADD158R,0.3600X0.3200*%
G36*
X593571Y376726D02*
X593996Y375355D01*
X588761Y370120D01*
X588704Y370034D01*
X588622Y369972D01*
X587436Y368619D01*
X587283Y368354D01*
X587081Y368124D01*
X585286Y365015D01*
X585156Y364631D01*
X584976Y364266D01*
X584047Y360799D01*
X584020Y360393D01*
X583941Y359995D01*
Y356405D01*
X584020Y356006D01*
X584047Y355601D01*
X584976Y352134D01*
X585156Y351769D01*
X585286Y351384D01*
X587081Y348276D01*
X587349Y347970D01*
X587575Y347632D01*
X590113Y345094D01*
X590451Y344868D01*
X590757Y344600D01*
X593865Y342805D01*
X594250Y342674D01*
X594615Y342495D01*
X598082Y341566D01*
X598488Y341539D01*
X598886Y341460D01*
X602476D01*
X602874Y341539D01*
X603280Y341566D01*
X606747Y342495D01*
X607112Y342674D01*
X607497Y342805D01*
X610605Y344600D01*
X610835Y344802D01*
X611100Y344955D01*
X612453Y346141D01*
X612513Y346220D01*
X612596Y346275D01*
X617873Y351527D01*
X619235Y351091D01*
X619387Y350570D01*
Y313602D01*
X618117Y312836D01*
X616704Y313422D01*
X614500Y313712D01*
X613789D01*
X611584Y313422D01*
X609530Y312571D01*
X609197Y312315D01*
X594837D01*
X565600Y341551D01*
X565541Y342006D01*
X564690Y344061D01*
X563336Y345825D01*
X560798Y348363D01*
X559034Y349717D01*
X558858Y349789D01*
X558785Y349965D01*
X558143Y350802D01*
X558472Y352029D01*
X560079Y352694D01*
X562612Y354638D01*
X564556Y357171D01*
X565777Y360120D01*
X566194Y363286D01*
X565777Y366451D01*
X564556Y369400D01*
X562612Y371933D01*
X560079Y373877D01*
X557130Y375098D01*
X553964Y375515D01*
X550799Y375098D01*
X547850Y373877D01*
X545317Y371933D01*
X543373Y369400D01*
X542253Y366695D01*
X540978Y366174D01*
X534193Y372959D01*
X532429Y374313D01*
X530374Y375164D01*
X528170Y375454D01*
X408462D01*
X406258Y375164D01*
X404204Y374313D01*
X402440Y372959D01*
X390898Y361417D01*
X389544Y359653D01*
X388693Y357599D01*
X388403Y355395D01*
Y319873D01*
X388124Y319509D01*
X387809Y318750D01*
X379686D01*
X378994Y319539D01*
Y320250D01*
X378704Y322454D01*
X377853Y324509D01*
X376499Y326273D01*
X374735Y327626D01*
X372681Y328477D01*
X370477Y328767D01*
X368272Y328477D01*
X368000Y328364D01*
X367728Y328477D01*
X365524Y328767D01*
X363319Y328477D01*
X361265Y327626D01*
X359501Y326273D01*
X358147Y324509D01*
X357296Y322454D01*
X357006Y320250D01*
Y319539D01*
X357096Y318859D01*
X357000Y318750D01*
X357000D01*
Y315382D01*
X356983Y315250D01*
Y307856D01*
X357000Y307724D01*
Y298750D01*
X372131D01*
Y298000D01*
X372421Y295795D01*
X373272Y293741D01*
X373399Y293576D01*
X372838Y292437D01*
X331500D01*
X330472Y292232D01*
X329600Y291650D01*
X314637Y276687D01*
X286363D01*
X277900Y285150D01*
X277028Y285732D01*
X276000Y285937D01*
X268520D01*
X267787Y287207D01*
X268273Y288048D01*
X268750Y289828D01*
Y291672D01*
X268273Y293452D01*
X267351Y295048D01*
X266048Y296351D01*
X264452Y297273D01*
X262672Y297750D01*
X260828D01*
X259048Y297273D01*
X257452Y296351D01*
X256149Y295048D01*
X255227Y293452D01*
X254750Y291672D01*
Y290750D01*
X244215D01*
X240304Y294662D01*
Y298750D01*
X251000D01*
Y317664D01*
X251532Y318948D01*
Y320552D01*
X250918Y322034D01*
X249784Y323168D01*
X248302Y323782D01*
X246698D01*
X245216Y323168D01*
X245000Y322952D01*
X244784Y323168D01*
X243302Y323782D01*
X241698D01*
X240216Y323168D01*
X239082Y322034D01*
X238468Y320552D01*
Y318948D01*
X238336Y318750D01*
X235304D01*
Y322110D01*
X236311Y323117D01*
X237179D01*
X238661Y323731D01*
X239795Y324865D01*
X240409Y326347D01*
Y327951D01*
X239795Y329433D01*
X238661Y330567D01*
X237179Y331181D01*
X235575D01*
X234093Y330567D01*
X232959Y329433D01*
X232345Y327951D01*
Y327082D01*
X230517Y325254D01*
X229909Y324344D01*
X229696Y323271D01*
Y318750D01*
X229000D01*
Y308750D01*
X226000D01*
Y318750D01*
X214000D01*
Y308750D01*
X211000D01*
Y318750D01*
X163304D01*
X162873Y320020D01*
X164021Y320901D01*
X164021Y320901D01*
X164761Y321865D01*
X164792Y321906D01*
X165588Y322944D01*
X166574Y325322D01*
X166910Y327875D01*
X166901Y327945D01*
X168327Y329371D01*
X175827D01*
X176161Y329115D01*
X178215Y328264D01*
X180419Y327974D01*
X181131D01*
X183335Y328264D01*
X185389Y329115D01*
X187153Y330469D01*
X188507Y332233D01*
X189358Y334287D01*
X189648Y336492D01*
X189358Y338696D01*
X189245Y338968D01*
X189358Y339240D01*
X189648Y341445D01*
X189358Y343649D01*
X188507Y345703D01*
X188022Y346335D01*
X188748Y347282D01*
X189599Y349336D01*
X189889Y351540D01*
X189599Y353745D01*
X189475Y354044D01*
X189596Y354335D01*
X189886Y356539D01*
X189596Y358744D01*
X188745Y360798D01*
X187391Y362562D01*
X185627Y363915D01*
X183573Y364766D01*
X181368Y365056D01*
X180680D01*
X178475Y364766D01*
X176421Y363915D01*
X176058Y363637D01*
X162226D01*
X160022Y363346D01*
X157968Y362496D01*
X156203Y361142D01*
X122898Y327836D01*
X121544Y326072D01*
X120694Y324018D01*
X120403Y321814D01*
Y319873D01*
X120124Y319509D01*
X119810Y318750D01*
X119000D01*
Y315382D01*
X118983Y315250D01*
Y308750D01*
X119000Y308618D01*
Y298750D01*
X149775D01*
X149968Y298368D01*
X150124Y297991D01*
X150223Y297863D01*
X150311Y297688D01*
X150074Y297379D01*
X149223Y295324D01*
X149065Y294126D01*
X147762Y293955D01*
X147418Y294784D01*
X146284Y295918D01*
X144802Y296532D01*
X143198D01*
X141716Y295918D01*
X140582Y294784D01*
X139968Y293302D01*
Y291698D01*
X140582Y290216D01*
X141702Y289095D01*
X141703Y289039D01*
X141343Y287862D01*
X139675Y288081D01*
X136025D01*
X133804Y287789D01*
X133675Y287736D01*
X133546Y287789D01*
X131325Y288081D01*
X127675D01*
X125454Y287789D01*
X124106Y287231D01*
X123525Y287669D01*
X123059Y288172D01*
Y289624D01*
X122445Y291106D01*
X121311Y292240D01*
X119829Y292854D01*
X118225D01*
X116743Y292240D01*
X115609Y291106D01*
X114995Y289624D01*
Y288279D01*
X114257Y287792D01*
X113821Y287656D01*
X110253Y291225D01*
X110654Y292495D01*
X112136Y293109D01*
X113270Y294243D01*
X113884Y295725D01*
Y297329D01*
X113270Y298811D01*
X112136Y299945D01*
X110654Y300559D01*
X109050D01*
X107568Y299945D01*
X106434Y298811D01*
X105820Y297329D01*
Y297309D01*
X104550Y296682D01*
X103826Y297238D01*
X101757Y298095D01*
X100703Y298234D01*
X99602Y298892D01*
X99693Y299592D01*
X99894Y301114D01*
X99601Y303335D01*
X98744Y305404D01*
X97380Y307182D01*
X95603Y308545D01*
X95348Y308651D01*
X95242Y308907D01*
X93878Y310684D01*
X92101Y312048D01*
X90031Y312905D01*
X87810Y313197D01*
X85589Y312905D01*
X83519Y312048D01*
X81742Y310684D01*
X81276Y310218D01*
X79913Y308441D01*
X79055Y306371D01*
X78989Y305865D01*
X78269Y305145D01*
X76905Y303368D01*
X76048Y301299D01*
X75756Y299077D01*
Y293500D01*
X76048Y291280D01*
X76905Y289210D01*
X77711Y288160D01*
X77592Y286469D01*
X77104Y286094D01*
X77018Y286008D01*
X75654Y284230D01*
X74231Y284114D01*
X73474Y284427D01*
X72989Y284491D01*
X72761Y284763D01*
X72315Y285819D01*
X72782Y286948D01*
Y288552D01*
X72168Y290034D01*
X71034Y291168D01*
X69552Y291782D01*
X67948D01*
X66466Y291168D01*
X65332Y290034D01*
X64718Y288552D01*
Y287899D01*
X63947Y287626D01*
X63126Y288682D01*
X63714Y290102D01*
X64007Y292323D01*
X63714Y294544D01*
X63608Y294800D01*
X63714Y295055D01*
X64007Y297276D01*
X63714Y299497D01*
X62857Y301567D01*
X61493Y303344D01*
X59716Y304708D01*
X57646Y305565D01*
X55425Y305858D01*
X54767D01*
X52545Y305565D01*
X50476Y304708D01*
X50029Y304365D01*
X44910D01*
X44910Y304365D01*
X42689Y304073D01*
X40620Y303216D01*
X38842Y301852D01*
X38842Y301852D01*
X33900Y296910D01*
X32536Y295132D01*
X31679Y293063D01*
X31387Y290842D01*
Y278658D01*
X31679Y276437D01*
X32536Y274368D01*
X33900Y272590D01*
X38452Y268038D01*
X38452Y268038D01*
X40229Y266674D01*
X42299Y265817D01*
X44520Y265525D01*
X44520Y265525D01*
X63684D01*
X63947Y264259D01*
X62170Y262895D01*
X60806Y261118D01*
X59949Y259049D01*
X59656Y256828D01*
X59949Y254606D01*
X60088Y254271D01*
X60015Y254096D01*
X59722Y251875D01*
X60015Y249654D01*
X60872Y247584D01*
X62236Y245807D01*
X64013Y244443D01*
X66083Y243586D01*
X68304Y243293D01*
X68914D01*
X71135Y243586D01*
X73204Y244443D01*
X73673Y244803D01*
X78420D01*
X78678Y244509D01*
X78970Y242288D01*
X79828Y240219D01*
X81191Y238441D01*
X81657Y237976D01*
X83434Y236612D01*
X85504Y235755D01*
X86010Y235688D01*
X94790Y226908D01*
X94725Y225177D01*
X94332Y224784D01*
X93718Y223302D01*
Y221698D01*
X93242Y220986D01*
X92000D01*
Y213986D01*
X90500D01*
Y212486D01*
X84000D01*
Y206986D01*
X84000D01*
X84000Y205735D01*
X84000D01*
Y200236D01*
X90500D01*
Y198736D01*
X92000D01*
Y191736D01*
X94946D01*
Y191500D01*
X95160Y190427D01*
X95767Y189517D01*
X101447Y183838D01*
X101000Y182172D01*
Y180328D01*
X101477Y178548D01*
X102399Y176952D01*
X103702Y175649D01*
X105298Y174727D01*
X107078Y174250D01*
X108922D01*
X110702Y174727D01*
X112298Y175649D01*
X113601Y176952D01*
X114523Y178548D01*
X115000Y180328D01*
Y182172D01*
X114523Y183952D01*
X113601Y185548D01*
X112298Y186851D01*
X110702Y187773D01*
X108922Y188250D01*
X107078D01*
X105412Y187803D01*
X102653Y190562D01*
X103139Y191736D01*
X113000D01*
Y193912D01*
X115750D01*
X116268Y194015D01*
X117250Y193209D01*
Y193078D01*
X117727Y191298D01*
X118649Y189702D01*
X119952Y188399D01*
X121548Y187477D01*
X123328Y187000D01*
X125172D01*
X126952Y187477D01*
X128548Y188399D01*
X129851Y189702D01*
X130773Y191298D01*
X131250Y193078D01*
Y194922D01*
X130920Y196154D01*
X130773Y196702D01*
X131649Y197726D01*
X132008Y197874D01*
X133142Y199009D01*
X133756Y200491D01*
Y202095D01*
X133142Y203577D01*
X132008Y204711D01*
X130526Y205325D01*
X128922D01*
X127440Y204711D01*
X126306Y203577D01*
X125755Y202246D01*
X125670Y202212D01*
X125305Y202334D01*
X124641Y202840D01*
X124456Y203165D01*
Y214932D01*
X125726Y215675D01*
X127675Y215419D01*
X131325D01*
X133546Y215711D01*
X133675Y215764D01*
X133804Y215711D01*
X136025Y215419D01*
X139675D01*
X141896Y215711D01*
X143204Y216253D01*
X143524Y216187D01*
X144541Y215484D01*
X144767Y213772D01*
X145624Y211702D01*
X145794Y211480D01*
X145458Y210227D01*
X145306Y210031D01*
X144684Y209615D01*
X144186Y208871D01*
X144111Y208493D01*
X148928D01*
X149056Y208440D01*
Y205493D01*
X144111D01*
X144186Y205115D01*
X144602Y204493D01*
X144186Y203871D01*
X144012Y202993D01*
Y200993D01*
X144186Y200115D01*
X144684Y199371D01*
X145428Y198873D01*
X146306Y198699D01*
X150144D01*
X150523Y197447D01*
X150495Y197406D01*
X150434Y197365D01*
X149936Y196621D01*
X149929Y196586D01*
X149826Y196436D01*
X145901D01*
X145169Y197167D01*
X143687Y197781D01*
X142083D01*
X140601Y197167D01*
X139467Y196033D01*
X138853Y194551D01*
Y192947D01*
X139467Y191465D01*
X140601Y190331D01*
X142083Y189717D01*
X143687D01*
X145169Y190331D01*
X145901Y191063D01*
X149498D01*
X149767Y189022D01*
X150624Y186952D01*
X150958Y186516D01*
Y183210D01*
X151251Y180989D01*
X152108Y178920D01*
X153472Y177142D01*
X165419Y165195D01*
Y105485D01*
X165711Y103263D01*
X166568Y101194D01*
X167932Y99417D01*
X169845Y97503D01*
X183925Y83423D01*
X183439Y82250D01*
X174000D01*
Y72250D01*
X171000D01*
Y82250D01*
X159000D01*
Y72250D01*
X156000D01*
Y82250D01*
X144000D01*
Y72250D01*
X141001D01*
Y82250D01*
X135187D01*
Y88388D01*
X134996Y89347D01*
X135101Y89452D01*
X136023Y91048D01*
X136500Y92828D01*
Y94672D01*
X136023Y96452D01*
X135101Y98048D01*
X133798Y99351D01*
X132202Y100273D01*
X130422Y100750D01*
X130190D01*
X129629Y101889D01*
X129666Y101937D01*
X131127Y105465D01*
X131428Y107750D01*
X108500D01*
Y94625D01*
X117000D01*
X120785Y95123D01*
X121548Y95439D01*
X122500Y94459D01*
Y92828D01*
X122977Y91048D01*
X123899Y89452D01*
X125202Y88149D01*
X126798Y87227D01*
X128578Y86750D01*
X129813D01*
Y82250D01*
X119000D01*
Y72595D01*
X118932Y72250D01*
Y64236D01*
X118189Y63740D01*
X116585D01*
X115103Y63126D01*
X113969Y61992D01*
X113355Y60510D01*
Y59750D01*
X103000D01*
Y47250D01*
X115500D01*
Y54982D01*
X116556Y55688D01*
X116585Y55676D01*
X118189D01*
X119671Y56289D01*
X120568Y57186D01*
X121698Y56718D01*
X123302D01*
X124784Y57332D01*
X125000Y57548D01*
X125216Y57332D01*
X126698Y56718D01*
X128302D01*
X129784Y57332D01*
X130918Y58466D01*
X131532Y59948D01*
Y61552D01*
X131998Y62250D01*
X134919D01*
X135018Y61754D01*
X135600Y60883D01*
X135713Y60770D01*
Y59746D01*
X136327Y58264D01*
X137461Y57130D01*
X138943Y56516D01*
X140547D01*
X142029Y57130D01*
X143163Y58264D01*
X143543Y59181D01*
X144813Y58929D01*
Y57538D01*
X145018Y56509D01*
X145600Y55638D01*
X146592Y54647D01*
Y53612D01*
X147205Y52130D01*
X148340Y50996D01*
X149821Y50382D01*
X151426D01*
X152907Y50996D01*
X154042Y52130D01*
X154655Y53612D01*
Y55216D01*
X154332Y55998D01*
X154534Y56082D01*
X155668Y57216D01*
X156282Y58698D01*
Y60302D01*
X156001Y60980D01*
X156850Y62250D01*
X158502D01*
X159028Y60980D01*
X158832Y60784D01*
X158218Y59302D01*
Y57698D01*
X158832Y56216D01*
X159966Y55082D01*
X161448Y54468D01*
X163052D01*
X164534Y55082D01*
X165668Y56216D01*
X166173Y57435D01*
X166698Y57218D01*
X168302D01*
X169784Y57832D01*
X170918Y58966D01*
X171532Y60448D01*
Y62052D01*
X171664Y62250D01*
X199298D01*
X199495Y62042D01*
X200029Y61071D01*
X199296Y59302D01*
X199006Y57098D01*
Y56387D01*
X199296Y54182D01*
X200147Y52128D01*
X201501Y50364D01*
X203265Y49010D01*
X205319Y48159D01*
X207523Y47869D01*
X209728Y48159D01*
X210000Y48272D01*
X210272Y48159D01*
X212476Y47869D01*
X214681Y48159D01*
X216735Y49010D01*
X218499Y50364D01*
X219613Y51815D01*
X220319Y51523D01*
X222434Y51244D01*
X222260Y49921D01*
Y42772D01*
X222550Y40568D01*
X223401Y38513D01*
X224755Y36749D01*
X231242Y30263D01*
X233006Y28909D01*
X235060Y28058D01*
X237264Y27768D01*
X246055D01*
X248259Y28058D01*
X250313Y28909D01*
X252077Y30263D01*
X253839Y32024D01*
X254500Y31750D01*
Y31750D01*
X267000D01*
Y45750D01*
X268500D01*
Y47250D01*
X282500D01*
Y55801D01*
X283661Y55954D01*
X285715Y56805D01*
X287479Y58158D01*
X287660Y58340D01*
X288077Y58394D01*
X290131Y59245D01*
X291895Y60599D01*
X292398Y61102D01*
X293752Y62866D01*
X294603Y64920D01*
X294893Y67125D01*
X294603Y69329D01*
X293752Y71383D01*
X292398Y73147D01*
X290634Y74501D01*
X290362Y74613D01*
X290250Y74886D01*
X288896Y76649D01*
X287132Y78003D01*
X285078Y78854D01*
X282873Y79144D01*
X280669Y78854D01*
X278615Y78003D01*
X276851Y76649D01*
X276348Y76147D01*
X275358Y74857D01*
X257680D01*
X255475Y74567D01*
X253421Y73716D01*
X252270Y72833D01*
X251000Y73459D01*
Y82250D01*
X206192D01*
X205486Y83306D01*
X205783Y84023D01*
X206076Y86244D01*
X205783Y88465D01*
X205666Y88749D01*
X205785Y89037D01*
X206077Y91258D01*
X205785Y93479D01*
X204928Y95548D01*
X203786Y97036D01*
X208153Y101403D01*
Y102949D01*
X208385Y103153D01*
X208385Y103153D01*
X209895Y103153D01*
X210301Y102842D01*
X212370Y101985D01*
X214591Y101692D01*
X215250D01*
X217471Y101985D01*
X219541Y102842D01*
X221318Y104206D01*
X222682Y105983D01*
X223539Y108053D01*
X223831Y110274D01*
X223539Y112494D01*
X223433Y112750D01*
X223539Y113006D01*
X223831Y115226D01*
X223572Y117195D01*
X223737Y117384D01*
X225100Y117387D01*
X225234Y117330D01*
X226537Y116027D01*
X228134Y115105D01*
X229914Y114628D01*
X231757D01*
X233538Y115105D01*
X235134Y116027D01*
X236437Y117330D01*
X237358Y118926D01*
X237836Y120707D01*
Y122550D01*
X237358Y124330D01*
X236437Y125926D01*
X235134Y127229D01*
X233538Y128151D01*
X231757Y128628D01*
X229914D01*
X228134Y128151D01*
X226537Y127229D01*
X225234Y125926D01*
X225083Y125665D01*
X223534Y125418D01*
X222052Y126032D01*
X221128D01*
X220177Y126983D01*
X219267Y127590D01*
X218194Y127804D01*
X214496D01*
X208687Y133613D01*
Y150183D01*
X209957Y150954D01*
X209968Y150948D01*
X210582Y149466D01*
X211716Y148332D01*
X213198Y147718D01*
X214802D01*
X216284Y148332D01*
X217418Y149466D01*
X217989Y150845D01*
X218500Y151086D01*
X219302Y151322D01*
X220026Y150599D01*
X220652Y150339D01*
X220755Y149633D01*
X220730Y148932D01*
X219707Y147909D01*
X219093Y146427D01*
Y144823D01*
X219044Y144750D01*
X217328D01*
X215548Y144273D01*
X213952Y143351D01*
X212649Y142048D01*
X211727Y140452D01*
X211250Y138672D01*
Y136828D01*
X211727Y135048D01*
X212649Y133452D01*
X213952Y132149D01*
X215548Y131227D01*
X217328Y130750D01*
X219172D01*
X220952Y131227D01*
X222548Y132149D01*
X223851Y133452D01*
X224773Y135048D01*
X225250Y136828D01*
Y138672D01*
X224773Y140452D01*
X224765Y140466D01*
X225025Y140725D01*
X225607Y141597D01*
X225808Y142606D01*
X226543Y143341D01*
X227157Y144823D01*
Y146427D01*
X226543Y147909D01*
X225409Y149043D01*
X225344Y150445D01*
X225577Y150796D01*
X227460D01*
X227727Y149798D01*
X228649Y148202D01*
X229952Y146899D01*
X231548Y145977D01*
X233328Y145500D01*
X235172D01*
X236952Y145977D01*
X238548Y146899D01*
X239851Y148202D01*
X240699Y149669D01*
X259781D01*
X263350Y146100D01*
X264222Y145518D01*
X264500Y145463D01*
Y142687D01*
X261777D01*
X261773Y142702D01*
X260851Y144298D01*
X259548Y145601D01*
X257952Y146523D01*
X256172Y147000D01*
X254328D01*
X252548Y146523D01*
X250952Y145601D01*
X249649Y144298D01*
X248727Y142702D01*
X248250Y140921D01*
Y139078D01*
X248727Y137298D01*
X249649Y135702D01*
X250952Y134399D01*
X252548Y133477D01*
X254328Y133000D01*
X256172D01*
X257952Y133477D01*
X259548Y134399D01*
X260851Y135702D01*
X261773Y137298D01*
X261777Y137313D01*
X264500D01*
Y133560D01*
X263489Y132884D01*
X263489Y132884D01*
X260621Y130017D01*
X260489Y129819D01*
X260087Y129417D01*
X259869Y128891D01*
X259737Y128694D01*
X259691Y128460D01*
X259473Y127935D01*
Y127366D01*
X259427Y127133D01*
X259473Y126900D01*
Y126331D01*
X259691Y125805D01*
X259737Y125572D01*
X259869Y125374D01*
X260087Y124849D01*
X260489Y124447D01*
X260621Y124249D01*
X260819Y124117D01*
X261221Y123715D01*
X261747Y123497D01*
X261945Y123365D01*
X262178Y123319D01*
X262703Y123101D01*
X263272D01*
X263505Y123054D01*
X263738Y123101D01*
X264091D01*
X264479Y122058D01*
X264500Y121927D01*
Y118000D01*
X271000D01*
Y115000D01*
X264500D01*
Y111000D01*
X265848D01*
X266500Y110000D01*
Y97000D01*
X267922D01*
Y95750D01*
X267968Y95517D01*
Y94948D01*
X268186Y94422D01*
X268232Y94189D01*
X268364Y93992D01*
X268582Y93466D01*
X268984Y93064D01*
X269116Y92866D01*
X269314Y92734D01*
X269716Y92332D01*
X270242Y92114D01*
X270439Y91982D01*
X270672Y91936D01*
X271198Y91718D01*
X271767D01*
X272000Y91672D01*
X272233Y91718D01*
X272802D01*
X273328Y91936D01*
X273561Y91982D01*
X273758Y92114D01*
X274284Y92332D01*
X274686Y92734D01*
X274884Y92866D01*
X275016Y93064D01*
X275418Y93466D01*
X275636Y93992D01*
X275768Y94189D01*
X275814Y94422D01*
X276032Y94948D01*
Y95517D01*
X276078Y95750D01*
Y97000D01*
X277500D01*
Y97650D01*
X286100D01*
Y98172D01*
X290750D01*
X290750Y98172D01*
X292311Y98482D01*
X293634Y99366D01*
X293654Y99386D01*
X294924Y98860D01*
Y94939D01*
X294924Y94336D01*
X294924D01*
X294927Y93670D01*
X294927D01*
Y75670D01*
X306427D01*
Y76000D01*
X309527D01*
Y75670D01*
X321027D01*
Y93670D01*
X321027D01*
X321078Y94336D01*
X321078D01*
X321078Y94919D01*
Y96436D01*
X317278D01*
Y97936D01*
X315778D01*
Y101536D01*
X313927D01*
Y105714D01*
X314304D01*
Y111089D01*
Y116464D01*
X300054D01*
Y117714D01*
X295179D01*
Y120714D01*
X300054D01*
Y125964D01*
Y136964D01*
X314304D01*
Y142339D01*
X317304D01*
Y136964D01*
X336554D01*
Y131819D01*
X335936Y131696D01*
X335064Y131114D01*
X333850Y129900D01*
X333268Y129028D01*
X333063Y128000D01*
Y117500D01*
X331974Y116464D01*
X317304D01*
Y111089D01*
Y105714D01*
X344054D01*
Y108403D01*
X358444D01*
X359003Y107565D01*
Y105961D01*
X359617Y104479D01*
X359955Y104142D01*
X359716Y102668D01*
X358582Y101534D01*
X357968Y100052D01*
Y98968D01*
X356698Y98628D01*
X355995Y99845D01*
X354692Y101149D01*
X353095Y102070D01*
X351893Y102392D01*
Y95547D01*
Y88702D01*
X353095Y89024D01*
X354692Y89946D01*
X355995Y91249D01*
X356916Y92845D01*
X357393Y94626D01*
Y96469D01*
X357357Y96604D01*
X358563Y97013D01*
X358582Y96966D01*
X359716Y95832D01*
X361198Y95218D01*
X362560D01*
X362812Y95208D01*
X363750Y94236D01*
Y93328D01*
X364227Y91548D01*
X365149Y89952D01*
X366452Y88649D01*
X366787Y88455D01*
X366302Y87282D01*
X364698D01*
X363216Y86668D01*
X363000Y86452D01*
X362784Y86668D01*
X361302Y87282D01*
X359698D01*
X358216Y86668D01*
X357082Y85534D01*
X356468Y84052D01*
Y82448D01*
X357000Y81164D01*
Y62250D01*
X379001D01*
Y72250D01*
Y82250D01*
X378187D01*
Y84387D01*
X385400Y91600D01*
X385982Y92472D01*
X386187Y93500D01*
Y98735D01*
X386918Y99466D01*
X387532Y100948D01*
Y102552D01*
X386918Y104034D01*
X385784Y105168D01*
X384302Y105782D01*
X382698D01*
X381216Y105168D01*
X380082Y104034D01*
X379468Y102552D01*
Y100948D01*
X380082Y99466D01*
X380813Y98735D01*
Y94613D01*
X378895Y92694D01*
X377791Y93306D01*
X377750Y93345D01*
Y95172D01*
X377273Y96952D01*
X376351Y98548D01*
X375048Y99851D01*
X373452Y100773D01*
X371672Y101250D01*
X369828D01*
X368048Y100773D01*
X367205Y100286D01*
X365715Y100818D01*
X365418Y101534D01*
X365080Y101872D01*
X365319Y103345D01*
X366454Y104479D01*
X367067Y105961D01*
Y107565D01*
X367627Y108403D01*
X392434D01*
X392953Y107133D01*
X392228Y105876D01*
X391751Y104096D01*
Y102253D01*
X392228Y100472D01*
X393149Y98876D01*
X394453Y97573D01*
X396049Y96651D01*
X396064Y96647D01*
Y93249D01*
X396269Y92221D01*
X396851Y91350D01*
X397813Y90387D01*
Y86016D01*
X397082Y85284D01*
X396468Y83802D01*
Y82250D01*
X382000D01*
Y72250D01*
Y62250D01*
X382688D01*
Y59141D01*
X381832Y58284D01*
X381218Y56802D01*
Y55198D01*
X381832Y53716D01*
X382966Y52582D01*
X384448Y51968D01*
X386052D01*
X387534Y52582D01*
X388668Y53716D01*
X389282Y55198D01*
Y55940D01*
X389698Y56218D01*
X391302D01*
X392784Y56832D01*
X393918Y57966D01*
X394532Y59448D01*
Y61052D01*
X394473Y61194D01*
X395179Y62250D01*
X409001D01*
Y72250D01*
X412000D01*
Y62250D01*
X489000D01*
Y72118D01*
X489017Y72250D01*
Y78750D01*
X489000Y78882D01*
Y82250D01*
X488190D01*
X487876Y83009D01*
X487597Y83373D01*
Y83582D01*
X487876Y83946D01*
X488727Y86001D01*
X489017Y88205D01*
Y91795D01*
X488862Y92977D01*
X490065Y93570D01*
X492247Y91388D01*
X492302Y90971D01*
X493153Y88917D01*
X494507Y87153D01*
X495010Y86650D01*
X496774Y85296D01*
X498828Y84445D01*
X501032Y84155D01*
X503237Y84445D01*
X505291Y85296D01*
X507055Y86650D01*
X508409Y88414D01*
X508521Y88686D01*
X508793Y88799D01*
X510557Y90152D01*
X511911Y91916D01*
X512762Y93970D01*
X513052Y96175D01*
X512762Y98379D01*
X511911Y100434D01*
X510557Y102198D01*
X510054Y102701D01*
X509677Y102990D01*
X510108Y104260D01*
X511404D01*
X513608Y104550D01*
X515662Y105401D01*
X517426Y106755D01*
X522459Y111788D01*
X523813Y113552D01*
X524664Y115606D01*
X524954Y117810D01*
Y120197D01*
X525210Y120530D01*
X526061Y122584D01*
X526351Y124789D01*
Y125500D01*
X526061Y127704D01*
X525210Y129759D01*
X523856Y131523D01*
X522092Y132876D01*
X521200Y133750D01*
Y146250D01*
X515400D01*
Y149250D01*
X521200D01*
Y159630D01*
X548067D01*
X549095Y159835D01*
X549967Y160417D01*
X557863Y168313D01*
X562500D01*
Y166500D01*
X573000D01*
X583500D01*
Y169030D01*
X583605Y169100D01*
X586288Y171784D01*
X586870Y172655D01*
X586998Y173300D01*
X587966Y174267D01*
X588580Y175749D01*
Y177353D01*
X587966Y178835D01*
X586832Y179969D01*
X585350Y180583D01*
X584000D01*
Y188637D01*
X584561Y189011D01*
X615832Y220283D01*
X616415Y221154D01*
X616619Y222183D01*
Y222942D01*
X617351Y223674D01*
X617964Y225156D01*
Y226759D01*
X617351Y228242D01*
X617147Y228445D01*
X617418Y228716D01*
X618032Y230198D01*
Y231802D01*
X617418Y233284D01*
X616777Y233925D01*
X617381Y234530D01*
X617995Y236012D01*
Y237041D01*
X619004Y237957D01*
X619168Y238012D01*
X619387Y237945D01*
X619387Y182256D01*
X618117Y182004D01*
X617726Y182947D01*
X616892Y183781D01*
X616621Y184249D01*
X616815Y185363D01*
X617418Y185966D01*
X618032Y187448D01*
Y189052D01*
X617418Y190534D01*
X616284Y191668D01*
X614802Y192282D01*
X613198D01*
X611716Y191668D01*
X610582Y190534D01*
X609968Y189052D01*
Y187448D01*
X610582Y185966D01*
X611416Y185132D01*
X611687Y184664D01*
X611493Y183550D01*
X610890Y182947D01*
X610276Y181465D01*
Y179861D01*
X610890Y178379D01*
X611210Y178059D01*
X611069Y177918D01*
X610456Y176436D01*
Y174832D01*
X611069Y173350D01*
X612203Y172216D01*
X613685Y171602D01*
X615289D01*
X616771Y172216D01*
X617906Y173350D01*
X618117Y173860D01*
X619387Y173608D01*
Y158703D01*
X618117Y158450D01*
X617668Y159534D01*
X616534Y160668D01*
X615052Y161282D01*
X613448D01*
X611966Y160668D01*
X610832Y159534D01*
X610218Y158052D01*
Y156448D01*
X610832Y154966D01*
X611048Y154750D01*
X610832Y154534D01*
X610218Y153052D01*
Y151448D01*
X610832Y149966D01*
X611966Y148832D01*
X613448Y148218D01*
X615052D01*
X616534Y148832D01*
X617668Y149966D01*
X618117Y151050D01*
X619387Y150797D01*
Y141000D01*
X606500D01*
Y134000D01*
Y127000D01*
X619387D01*
Y29980D01*
X619386Y29407D01*
X619228Y28866D01*
X617872Y28427D01*
X612601Y33697D01*
X612515Y33754D01*
X612453Y33836D01*
X611100Y35022D01*
X610835Y35175D01*
X610605Y35377D01*
X607497Y37172D01*
X607112Y37302D01*
X606747Y37482D01*
X603280Y38411D01*
X602874Y38438D01*
X602476Y38517D01*
X598886D01*
X598488Y38438D01*
X598082Y38411D01*
X594615Y37482D01*
X594250Y37302D01*
X593865Y37172D01*
X590757Y35377D01*
X590451Y35109D01*
X590113Y34883D01*
X587575Y32345D01*
X587349Y32007D01*
X587081Y31701D01*
X585286Y28593D01*
X585156Y28208D01*
X584976Y27843D01*
X584047Y24376D01*
X584020Y23970D01*
X583941Y23572D01*
Y19982D01*
X584020Y19584D01*
X584047Y19178D01*
X584976Y15711D01*
X585156Y15346D01*
X585286Y14962D01*
X587081Y11853D01*
X587283Y11623D01*
X587436Y11358D01*
X588622Y10006D01*
X588706Y9941D01*
X588765Y9852D01*
X594015Y4624D01*
X593587Y3258D01*
X593071Y3108D01*
X592500D01*
X32500Y3108D01*
X31930D01*
X31409Y3259D01*
X30972Y4622D01*
X36225Y9899D01*
X36280Y9981D01*
X36359Y10042D01*
X37545Y11394D01*
X37698Y11659D01*
X37900Y11889D01*
X39695Y14998D01*
X39825Y15383D01*
X40005Y15747D01*
X40934Y19215D01*
X40961Y19620D01*
X41040Y20019D01*
Y23608D01*
X40961Y24007D01*
X40934Y24413D01*
X40005Y27880D01*
X39825Y28244D01*
X39695Y28629D01*
X37900Y31738D01*
X37632Y32043D01*
X37406Y32381D01*
X34868Y34920D01*
X34530Y35145D01*
X34224Y35413D01*
X31116Y37208D01*
X30731Y37339D01*
X30366Y37519D01*
X26899Y38448D01*
X26494Y38474D01*
X26095Y38554D01*
X22506D01*
X22107Y38474D01*
X21701Y38448D01*
X18234Y37519D01*
X17869Y37339D01*
X17485Y37208D01*
X14376Y35413D01*
X14146Y35212D01*
X13881Y35059D01*
X12529Y33873D01*
X12464Y33788D01*
X12376Y33729D01*
X7127Y28459D01*
X5766Y28892D01*
X5610Y29421D01*
X5608Y29985D01*
X5622Y224673D01*
X6892Y225299D01*
X7218Y225049D01*
X9042Y224293D01*
X11000Y224035D01*
X16000D01*
Y231600D01*
Y239165D01*
X11000D01*
X9042Y238907D01*
X7218Y238151D01*
X6893Y237902D01*
X5623Y238528D01*
X5628Y311068D01*
X6898Y311694D01*
X7218Y311449D01*
X9042Y310693D01*
X11000Y310435D01*
X16000D01*
Y318000D01*
Y325565D01*
X11000D01*
X9042Y325307D01*
X7218Y324551D01*
X6899Y324306D01*
X5629Y324933D01*
X5631Y349982D01*
X5630Y349985D01*
X5631Y349988D01*
X5630Y350556D01*
X5774Y351053D01*
X7145Y351478D01*
X12380Y346243D01*
X12466Y346186D01*
X12529Y346104D01*
X13881Y344918D01*
X14146Y344765D01*
X14376Y344563D01*
X17484Y342769D01*
X17869Y342638D01*
X18234Y342458D01*
X21701Y341529D01*
X22107Y341502D01*
X22506Y341423D01*
X26095D01*
X26493Y341502D01*
X26899Y341529D01*
X30366Y342458D01*
X30731Y342638D01*
X31116Y342769D01*
X34224Y344563D01*
X34530Y344831D01*
X34868Y345057D01*
X37406Y347595D01*
X37632Y347933D01*
X37900Y348239D01*
X39695Y351348D01*
X39825Y351732D01*
X40005Y352097D01*
X40934Y355564D01*
X40961Y355970D01*
X41040Y356368D01*
Y359958D01*
X40961Y360357D01*
X40934Y360762D01*
X40005Y364229D01*
X39825Y364594D01*
X39695Y364979D01*
X37900Y368087D01*
X37698Y368318D01*
X37545Y368583D01*
X36359Y369935D01*
X36280Y369995D01*
X36225Y370078D01*
X30973Y375355D01*
X31409Y376717D01*
X31930Y376869D01*
X32500D01*
X592500Y376869D01*
X592503Y376870D01*
X592505Y376869D01*
X593074Y376870D01*
X593571Y376726D01*
D02*
G37*
G36*
X492500Y336750D02*
X506500D01*
X520777D01*
X521673Y337121D01*
X526441Y332353D01*
X526501Y331898D01*
X527352Y329844D01*
X528706Y328080D01*
X531244Y325541D01*
X533008Y324188D01*
X533184Y324115D01*
X533256Y323940D01*
X534610Y322175D01*
X537149Y319637D01*
X538913Y318283D01*
X540967Y317432D01*
X541422Y317373D01*
X542505Y316290D01*
X542505Y316290D01*
X545260Y313534D01*
Y271837D01*
X545550Y269632D01*
X546401Y267578D01*
X547755Y265814D01*
X553921Y259648D01*
X555685Y258294D01*
X557739Y257443D01*
X557999Y257409D01*
X558407Y256207D01*
X556054Y253854D01*
X520950D01*
Y265250D01*
X515150D01*
Y266750D01*
X513650D01*
Y280750D01*
X509350D01*
Y280750D01*
X508250D01*
X507036Y280885D01*
X506398Y282020D01*
X506782Y282948D01*
Y283983D01*
X511113Y288313D01*
X514973D01*
X514977Y288298D01*
X515899Y286702D01*
X517202Y285399D01*
X518798Y284477D01*
X520578Y284000D01*
X522422D01*
X524202Y284477D01*
X525798Y285399D01*
X527101Y286702D01*
X528023Y288298D01*
X528027Y288313D01*
X530852D01*
X531750Y287415D01*
X531750Y285250D01*
X531750Y283980D01*
Y281500D01*
X542250D01*
Y283980D01*
X542250Y284750D01*
X542250Y286020D01*
Y294750D01*
X531750D01*
Y293687D01*
X528027D01*
X528023Y293702D01*
X527101Y295298D01*
X525798Y296601D01*
X524202Y297523D01*
X522422Y298000D01*
X520578D01*
X518798Y297523D01*
X517202Y296601D01*
X515899Y295298D01*
X514977Y293702D01*
X514973Y293687D01*
X510000D01*
X508972Y293482D01*
X508100Y292900D01*
X502983Y287782D01*
X501948D01*
X500466Y287168D01*
X499332Y286034D01*
X498718Y284552D01*
Y282948D01*
X499102Y282020D01*
X498388Y280750D01*
X496650D01*
Y280750D01*
X495550D01*
Y280750D01*
X492687D01*
Y282985D01*
X493418Y283716D01*
X494032Y285198D01*
Y286802D01*
X493418Y288284D01*
X492284Y289418D01*
X490802Y290032D01*
X489198D01*
X487716Y289418D01*
X486582Y288284D01*
X485968Y286802D01*
Y285198D01*
X486582Y283716D01*
X487313Y282985D01*
Y280750D01*
X483950D01*
Y280750D01*
X482850D01*
Y280750D01*
X481248D01*
X480782Y281448D01*
Y283052D01*
X480168Y284534D01*
X479034Y285668D01*
X477552Y286282D01*
X475948D01*
X474466Y285668D01*
X473332Y284534D01*
X472718Y283052D01*
Y281448D01*
X472417Y280998D01*
X471250Y280750D01*
X470150D01*
Y280750D01*
X458550D01*
X448625Y290675D01*
X448549D01*
X448355Y291650D01*
X448187Y291902D01*
Y292234D01*
X448918Y292966D01*
X449532Y294448D01*
Y296052D01*
X448918Y297534D01*
X449000Y297705D01*
Y298750D01*
X449001D01*
Y308750D01*
Y318750D01*
X424421D01*
X423895Y320020D01*
X430963Y327088D01*
X432317Y328853D01*
X433168Y330907D01*
X433458Y333111D01*
Y338109D01*
X439554Y344206D01*
X440173Y343731D01*
X442520Y342758D01*
X445040Y342427D01*
X447559Y342758D01*
X449907Y343731D01*
X451369Y344852D01*
X492500D01*
Y336750D01*
D02*
G37*
G36*
X584392Y295616D02*
X586156Y294262D01*
X588210Y293411D01*
X590415Y293121D01*
X609197D01*
X609530Y292865D01*
X611584Y292014D01*
X613789Y291724D01*
X614500D01*
X616704Y292014D01*
X618117Y292600D01*
X619387Y291834D01*
Y277927D01*
X618117Y277078D01*
X617210Y277454D01*
X615006Y277744D01*
X614294D01*
X612090Y277454D01*
X610036Y276603D01*
X609702Y276347D01*
X564454D01*
Y313894D01*
X565627Y314380D01*
X584392Y295616D01*
D02*
G37*
G36*
X201650Y256030D02*
X201650Y255990D01*
Y252280D01*
X206400D01*
Y249280D01*
X201650D01*
Y245530D01*
X201650D01*
Y242140D01*
X206400D01*
Y239140D01*
X201650D01*
Y235750D01*
X201650D01*
Y232000D01*
X206400D01*
Y229000D01*
X201650D01*
Y225250D01*
X201650D01*
Y221860D01*
X206400D01*
Y218860D01*
X201650D01*
Y215470D01*
X201650D01*
Y211720D01*
X206400D01*
Y208720D01*
X201650D01*
Y204970D01*
X201650D01*
Y201810D01*
X206400D01*
Y198810D01*
X201650D01*
Y195250D01*
X200250D01*
Y192000D01*
X210750D01*
Y194167D01*
X211650Y195060D01*
X212420Y195060D01*
X221150D01*
Y196112D01*
X221398Y196278D01*
X223000D01*
Y195060D01*
X232500Y195060D01*
X232922Y193965D01*
Y186750D01*
X232922Y186750D01*
X233232Y185189D01*
X234116Y183866D01*
X237616Y180366D01*
X237616Y180366D01*
X237707Y180306D01*
X237322Y179036D01*
X222844D01*
X219069Y182810D01*
Y183899D01*
X218456Y185381D01*
X217321Y186515D01*
X215839Y187129D01*
X214235D01*
X212754Y186515D01*
X212020Y185781D01*
X210750Y186308D01*
X210750Y186520D01*
Y189000D01*
X200250D01*
Y186520D01*
X200250Y185750D01*
X200250Y184480D01*
Y183187D01*
X198799D01*
X191533Y190452D01*
X191637Y191243D01*
Y192993D01*
X191350Y195176D01*
Y195743D01*
X191175Y196621D01*
X190678Y197365D01*
X190582Y197429D01*
X190968Y198699D01*
X194806D01*
X195683Y198873D01*
X196428Y199371D01*
X196925Y200115D01*
X197100Y200993D01*
Y202993D01*
X196925Y203871D01*
X196509Y204493D01*
X196925Y205115D01*
X197000Y205493D01*
X192056D01*
Y208440D01*
X192183Y208493D01*
X197000D01*
X196925Y208871D01*
X196428Y209615D01*
X195806Y210031D01*
X195653Y210227D01*
X195317Y211480D01*
X195487Y211702D01*
X196345Y213772D01*
X196637Y215993D01*
Y217743D01*
X196345Y219964D01*
X195887Y221068D01*
X195987Y221199D01*
X196845Y223269D01*
X197137Y225490D01*
Y225690D01*
X196845Y227911D01*
X196605Y228490D01*
X196845Y229069D01*
X197137Y231290D01*
Y231490D01*
X196845Y233711D01*
X195987Y235781D01*
X195153Y236868D01*
Y243145D01*
X195153Y243146D01*
X194861Y245366D01*
X194003Y247436D01*
X192640Y249214D01*
X192640Y249214D01*
X185766Y256087D01*
X186252Y257260D01*
X197846D01*
X197948Y257218D01*
X199552D01*
X199654Y257260D01*
X201554D01*
X201650Y256030D01*
D02*
G37*
G36*
X610030Y256897D02*
X612084Y256046D01*
X614289Y255756D01*
X615000D01*
X617205Y256046D01*
X618117Y256424D01*
X619387Y255576D01*
Y253000D01*
X606500D01*
Y246000D01*
Y239000D01*
X609361D01*
X610067Y237944D01*
X609931Y237616D01*
Y236012D01*
X610545Y234530D01*
X611186Y233888D01*
X610582Y233284D01*
X610448Y232962D01*
X609586Y232386D01*
X584349Y207148D01*
X583500Y207500D01*
Y207500D01*
X562500D01*
Y201550D01*
X561230Y201032D01*
X560462Y201800D01*
X558980Y202414D01*
X557376D01*
X555894Y201800D01*
X555217Y201123D01*
X546436D01*
X545408Y200918D01*
X544537Y200336D01*
X522373Y178173D01*
X521200Y178659D01*
Y185250D01*
X515400D01*
Y186750D01*
X513900D01*
Y200750D01*
X511000D01*
Y213750D01*
X513650D01*
Y227750D01*
Y241750D01*
X510270D01*
X509000Y242875D01*
Y244714D01*
X557469D01*
Y244449D01*
X558082Y242967D01*
X559217Y241833D01*
X560699Y241219D01*
X562303D01*
X563784Y241833D01*
X564919Y242967D01*
X565335Y243971D01*
X566706Y244778D01*
X566714Y244775D01*
X568318D01*
X569800Y245389D01*
X570934Y246523D01*
X571548Y248005D01*
Y249609D01*
X570934Y251091D01*
X569800Y252225D01*
X569678Y252275D01*
X569537Y252613D01*
X569476Y253734D01*
X570324Y254581D01*
X570938Y256063D01*
Y257153D01*
X609697D01*
X610030Y256897D01*
D02*
G37*
G36*
X371634Y259755D02*
X373398Y258401D01*
X375452Y257550D01*
X377657Y257260D01*
X389601D01*
X390087Y256087D01*
X386423Y252423D01*
X385250Y252909D01*
Y254250D01*
X372250D01*
Y248937D01*
X370000D01*
Y254250D01*
X357000D01*
Y240250D01*
X370000D01*
Y243563D01*
X372250D01*
Y240250D01*
X379951D01*
X383813Y236387D01*
Y232750D01*
X372250D01*
Y228687D01*
X370000D01*
Y233000D01*
X357000D01*
Y219000D01*
X364813D01*
Y210297D01*
Y202500D01*
Y195500D01*
X365018Y194472D01*
X365600Y193600D01*
X367423Y191777D01*
X367005Y190399D01*
X366781Y190354D01*
X365950Y189800D01*
X365396Y188969D01*
X365201Y187990D01*
Y186328D01*
X357100D01*
Y192250D01*
X352500D01*
Y193750D01*
D01*
Y192250D01*
X347900D01*
Y187328D01*
X334888D01*
Y189856D01*
X329388D01*
X323888D01*
Y187328D01*
X320888D01*
Y197856D01*
X320588D01*
Y204830D01*
X320510Y205224D01*
Y211330D01*
X312510D01*
Y205224D01*
X312432Y204830D01*
Y197856D01*
X309888D01*
Y187328D01*
X303044D01*
X302552Y187532D01*
X301951D01*
X301780Y187566D01*
X301779Y187566D01*
X301767D01*
X301596Y187532D01*
X300948D01*
X300456Y187328D01*
X242189D01*
X241078Y188439D01*
Y195060D01*
X242500D01*
Y205560D01*
X242500D01*
Y215110D01*
X242500D01*
Y225250D01*
Y235390D01*
Y245530D01*
Y254797D01*
X243770Y255645D01*
X244198Y255468D01*
X245802D01*
X247284Y256082D01*
X248000Y256798D01*
X248466Y256332D01*
X249948Y255718D01*
X250968D01*
Y254698D01*
X251210Y254115D01*
X250361Y252845D01*
X247805D01*
Y246310D01*
X246017Y244523D01*
X245410Y243613D01*
X245196Y242540D01*
Y240312D01*
X245180Y240231D01*
Y232269D01*
X245196Y232188D01*
Y214550D01*
X245410Y213477D01*
X246017Y212567D01*
X249550Y209035D01*
Y200000D01*
X249550D01*
X250009Y198893D01*
X249032Y197916D01*
X248590Y197254D01*
X248434Y196474D01*
Y194527D01*
X248434Y194526D01*
X248590Y193746D01*
X249032Y193084D01*
X249032Y193084D01*
X250558Y191558D01*
X251220Y191116D01*
X252000Y190961D01*
X262000Y190961D01*
X262000Y190961D01*
X262780Y191116D01*
X263442Y191558D01*
X263442Y191558D01*
X264110Y192227D01*
X265350Y192300D01*
X265350Y192300D01*
X297350D01*
Y216300D01*
X290147D01*
X288519Y217928D01*
Y224300D01*
X288499Y224399D01*
Y227155D01*
X288305Y228129D01*
X287754Y228954D01*
X286964Y229482D01*
X286927Y229509D01*
X286559Y230874D01*
X287043Y231357D01*
X287761Y232432D01*
X288014Y233701D01*
Y234835D01*
X288305Y235271D01*
X288499Y236245D01*
Y241955D01*
X288305Y242929D01*
X288271Y242980D01*
Y243058D01*
X289084Y243871D01*
X289802Y244946D01*
X290055Y246215D01*
Y246500D01*
X292350D01*
Y248922D01*
X297772D01*
X297899Y248702D01*
X299202Y247399D01*
X300798Y246477D01*
X302578Y246000D01*
X304422D01*
X306202Y246477D01*
X307798Y247399D01*
X309101Y248702D01*
X309228Y248922D01*
X311932D01*
Y247476D01*
X310510D01*
Y234476D01*
X312432D01*
Y226830D01*
Y220093D01*
X312432Y220093D01*
X312742Y218532D01*
X313626Y217209D01*
X315969Y214866D01*
X315969Y214866D01*
X317292Y213982D01*
X318853Y213672D01*
X327167D01*
X327167Y213672D01*
X328728Y213982D01*
X330051Y214866D01*
X332394Y217209D01*
X332394Y217209D01*
X333278Y218532D01*
X333588Y220093D01*
Y226830D01*
X333510Y227224D01*
Y233206D01*
X333510Y233330D01*
X333809Y234476D01*
X335510D01*
Y239476D01*
X330010D01*
X324510D01*
Y234600D01*
X324510Y234476D01*
X324211Y233330D01*
X321809D01*
X321510Y234476D01*
X321510D01*
Y247476D01*
X320088D01*
Y250657D01*
X319778Y252218D01*
X318894Y253541D01*
X318894Y253541D01*
X316551Y255884D01*
X316392Y255990D01*
X316375Y256066D01*
X316905Y257260D01*
X328027D01*
X330232Y257550D01*
X332286Y258401D01*
X334050Y259755D01*
X344778Y270483D01*
X360906D01*
X371634Y259755D01*
D02*
G37*
G36*
X376281Y204146D02*
X377260Y203951D01*
X378453D01*
X378838Y203376D01*
X379764Y202449D01*
X380636Y201867D01*
X381664Y201662D01*
X392477D01*
X394988Y199151D01*
X395859Y198569D01*
X396887Y198364D01*
X398658D01*
Y198211D01*
X403408D01*
Y195211D01*
X398658D01*
Y195172D01*
X371628D01*
X370187Y196613D01*
Y203951D01*
X372740D01*
X373719Y204146D01*
X374550Y204700D01*
X375450D01*
X376281Y204146D01*
D02*
G37*
G36*
X259719Y200000D02*
X263122Y196596D01*
Y194122D01*
X262000Y193000D01*
X252000Y193000D01*
X250474Y194526D01*
Y196474D01*
X254000Y200000D01*
X259719Y200000D01*
D02*
G37*
G36*
X455063Y178005D02*
Y170863D01*
X411101Y126901D01*
X407565D01*
X407032Y127698D01*
Y129302D01*
X406418Y130784D01*
X405284Y131918D01*
X403802Y132532D01*
X402198D01*
X400716Y131918D01*
X399582Y130784D01*
X398968Y129302D01*
Y127698D01*
X398435Y126901D01*
X368412D01*
X368000Y128000D01*
X368000Y128171D01*
Y136576D01*
X368569Y136956D01*
X370173D01*
X370985Y137292D01*
X372417Y136723D01*
X372464Y136548D01*
X373386Y134952D01*
X374689Y133649D01*
X376285Y132727D01*
X378065Y132250D01*
X379909D01*
X381689Y132727D01*
X383285Y133649D01*
X384589Y134952D01*
X385510Y136548D01*
X385987Y138328D01*
Y140172D01*
X385510Y141952D01*
X384589Y143548D01*
X383285Y144851D01*
X381689Y145773D01*
X379909Y146250D01*
X378065D01*
X376285Y145773D01*
X374689Y144851D01*
X373490Y143652D01*
X372409D01*
X371655Y144406D01*
X370173Y145020D01*
X368569D01*
X368000Y145400D01*
Y146750D01*
X360270D01*
X359500Y146750D01*
X358230Y146750D01*
X350500D01*
Y145026D01*
X344054D01*
Y147714D01*
X339198D01*
X338783Y148984D01*
X343863Y154063D01*
X360473D01*
X360477Y154048D01*
X361399Y152452D01*
X362702Y151149D01*
X364298Y150227D01*
X366078Y149750D01*
X367922D01*
X369702Y150227D01*
X371298Y151149D01*
X372601Y152452D01*
X373523Y154048D01*
X374000Y155828D01*
Y156313D01*
X429933D01*
X430961Y156518D01*
X431833Y157100D01*
X453255Y178522D01*
X454289D01*
X455063Y178005D01*
D02*
G37*
G36*
X470000Y128000D02*
X474750D01*
Y125000D01*
X470000D01*
Y123454D01*
X467244D01*
X465040Y123164D01*
X462986Y122313D01*
X461222Y120959D01*
X459748Y119486D01*
X458250Y119784D01*
X457853Y120742D01*
X456499Y122506D01*
X454735Y123860D01*
X452681Y124711D01*
X450476Y125001D01*
X448272Y124711D01*
X448000Y124598D01*
X447728Y124711D01*
X445523Y125001D01*
X443319Y124711D01*
X441265Y123860D01*
X439501Y122506D01*
X438147Y120742D01*
X437296Y118688D01*
X437006Y116483D01*
Y115772D01*
X437266Y113797D01*
X436988Y113228D01*
X436353Y112527D01*
X435986D01*
X434504Y111913D01*
X433370Y110779D01*
X432756Y109297D01*
Y109201D01*
X431486Y108352D01*
X431052Y108532D01*
X429448D01*
X427966Y107918D01*
X426832Y106784D01*
X426218Y105302D01*
Y103698D01*
X426832Y102216D01*
X427604Y101444D01*
X427451Y100675D01*
Y100145D01*
X426181Y99618D01*
X420900Y104900D01*
X420028Y105482D01*
X419000Y105687D01*
X405324D01*
X405274Y105876D01*
X404548Y107133D01*
X405067Y108403D01*
X419839D01*
X420867Y108607D01*
X421739Y109189D01*
X442113Y129563D01*
X470000D01*
Y128000D01*
D02*
G37*
%LPC*%
G36*
X121726Y372636D02*
X120122D01*
X118640Y372022D01*
X117909Y371290D01*
X69854D01*
X68825Y371086D01*
X67954Y370503D01*
X66466Y369015D01*
X66452Y369023D01*
X64672Y369500D01*
X62828D01*
X61048Y369023D01*
X59452Y368101D01*
X58149Y366798D01*
X57227Y365202D01*
X56750Y363422D01*
Y361578D01*
X57227Y359798D01*
X58149Y358202D01*
X59452Y356899D01*
X61048Y355977D01*
X62295Y355643D01*
X63165Y355390D01*
X63341Y354141D01*
X58261Y349061D01*
X57679Y348189D01*
X57474Y347161D01*
Y346070D01*
X57298Y346023D01*
X55702Y345101D01*
X54399Y343798D01*
X53477Y342202D01*
X53000Y340422D01*
Y338578D01*
X53477Y336798D01*
X54399Y335202D01*
X54824Y334777D01*
X54787Y334400D01*
X50386Y329999D01*
X49944Y330254D01*
X48164Y330731D01*
X46321D01*
X44540Y330254D01*
X42944Y329333D01*
X41641Y328030D01*
X40719Y326433D01*
X40242Y324653D01*
Y322810D01*
X40719Y321030D01*
X41641Y319433D01*
X42944Y318130D01*
X44540Y317208D01*
X46321Y316731D01*
X48164D01*
X49944Y317208D01*
X51540Y318130D01*
X52843Y319433D01*
X53765Y321030D01*
X54242Y322810D01*
Y324653D01*
X53903Y325917D01*
X57799Y329813D01*
X67862D01*
X68890Y330018D01*
X69762Y330600D01*
X70185Y331024D01*
X71220D01*
X72702Y331638D01*
X73237Y332173D01*
X73899Y332738D01*
X74912Y332188D01*
X75452Y331649D01*
X77048Y330727D01*
X78828Y330250D01*
X80198D01*
X80309Y330084D01*
Y328480D01*
X80923Y326998D01*
X82057Y325864D01*
X83539Y325250D01*
X85143D01*
X86230Y325700D01*
X87500Y325079D01*
Y321250D01*
X100000D01*
Y335250D01*
X103000D01*
Y321250D01*
X115500D01*
Y333936D01*
X116452Y334255D01*
X116770Y334278D01*
X117841Y333207D01*
X119323Y332593D01*
X120927D01*
X122409Y333207D01*
X123543Y334341D01*
X124157Y335823D01*
Y337427D01*
X123543Y338909D01*
X122812Y339641D01*
Y345375D01*
X122607Y346403D01*
X122190Y347027D01*
X122606Y348297D01*
X134518D01*
X135250Y347566D01*
X136732Y346952D01*
X138336D01*
X139817Y347566D01*
X140952Y348700D01*
X141566Y350182D01*
Y351786D01*
X140952Y353268D01*
X139817Y354402D01*
X138336Y355016D01*
X136732D01*
X135250Y354402D01*
X134518Y353671D01*
X128145D01*
X127296Y354941D01*
X127580Y355625D01*
Y357229D01*
X126966Y358711D01*
X126181Y359496D01*
X126501Y359817D01*
X127115Y361298D01*
Y362902D01*
X126501Y364384D01*
X125367Y365519D01*
X125249Y365567D01*
X124695Y367172D01*
X124956Y367802D01*
Y369406D01*
X124342Y370887D01*
X123208Y372022D01*
X121726Y372636D01*
D02*
G37*
G36*
X134802Y371782D02*
X133198D01*
X131716Y371168D01*
X130582Y370034D01*
X129968Y368552D01*
Y366948D01*
X130582Y365466D01*
X131114Y364934D01*
X131688Y364283D01*
X131114Y363275D01*
X130758Y362918D01*
X130144Y361436D01*
Y359832D01*
X130758Y358350D01*
X131892Y357216D01*
X133374Y356602D01*
X134978D01*
X136460Y357216D01*
X137594Y358350D01*
X138208Y359832D01*
Y361436D01*
X137594Y362918D01*
X137062Y363450D01*
X136488Y364101D01*
X137062Y365110D01*
X137418Y365466D01*
X138032Y366948D01*
Y368552D01*
X137418Y370034D01*
X136284Y371168D01*
X134802Y371782D01*
D02*
G37*
G36*
X353500Y349250D02*
X341000D01*
Y336750D01*
X353500D01*
Y349250D01*
D02*
G37*
G36*
X282500Y349250D02*
X270000D01*
Y336750D01*
X282500D01*
Y349250D01*
D02*
G37*
G36*
X338000Y349250D02*
X325500D01*
Y336750D01*
X338000D01*
Y349250D01*
D02*
G37*
G36*
X267000Y349250D02*
X254500D01*
Y336750D01*
X267000D01*
Y349250D01*
D02*
G37*
G36*
X282500Y333750D02*
X270000D01*
Y321250D01*
X282500D01*
Y333750D01*
D02*
G37*
G36*
X267000D02*
X254500D01*
Y321250D01*
X267000D01*
Y333750D01*
D02*
G37*
G36*
X353500D02*
X341000D01*
Y321250D01*
X353500D01*
Y333750D01*
D02*
G37*
G36*
X338000D02*
X325500D01*
Y321250D01*
X338000D01*
Y333750D01*
D02*
G37*
G36*
X75100Y325565D02*
X72600D01*
Y319500D01*
X82467D01*
X82407Y319958D01*
X81651Y321782D01*
X80449Y323349D01*
X78882Y324551D01*
X77058Y325307D01*
X75100Y325565D01*
D02*
G37*
G36*
X69600D02*
X67100D01*
X65142Y325307D01*
X63318Y324551D01*
X61751Y323349D01*
X60549Y321782D01*
X59793Y319958D01*
X59733Y319500D01*
X69600D01*
Y325565D01*
D02*
G37*
G36*
X24000D02*
X19000D01*
Y319500D01*
X31367D01*
X31307Y319958D01*
X30551Y321782D01*
X29349Y323349D01*
X27782Y324551D01*
X25958Y325307D01*
X24000Y325565D01*
D02*
G37*
G36*
X82467Y316500D02*
X72600D01*
Y310435D01*
X75100D01*
X77058Y310693D01*
X78882Y311449D01*
X80449Y312651D01*
X81651Y314218D01*
X82407Y316042D01*
X82467Y316500D01*
D02*
G37*
G36*
X69600D02*
X59733D01*
X59793Y316042D01*
X60549Y314218D01*
X61751Y312651D01*
X63318Y311449D01*
X65142Y310693D01*
X67100Y310435D01*
X69600D01*
Y316500D01*
D02*
G37*
G36*
X31367D02*
X19000D01*
Y310435D01*
X24000D01*
X25958Y310693D01*
X27782Y311449D01*
X29349Y312651D01*
X30551Y314218D01*
X31307Y316042D01*
X31367Y316500D01*
D02*
G37*
G36*
X302674Y318750D02*
X302500D01*
Y303250D01*
X318000D01*
Y303424D01*
X317347Y306709D01*
X316065Y309802D01*
X314205Y312587D01*
X311837Y314955D01*
X309053Y316815D01*
X305959Y318097D01*
X302674Y318750D01*
D02*
G37*
G36*
X299500D02*
X299326D01*
X296041Y318097D01*
X292948Y316815D01*
X290163Y314955D01*
X287795Y312587D01*
X285935Y309802D01*
X284653Y306709D01*
X284000Y303424D01*
Y303250D01*
X299500D01*
Y318750D01*
D02*
G37*
G36*
X318000Y300250D02*
X302500D01*
Y284750D01*
X302674D01*
X305959Y285403D01*
X309053Y286685D01*
X311837Y288545D01*
X314205Y290913D01*
X316065Y293697D01*
X317347Y296791D01*
X318000Y300076D01*
Y300250D01*
D02*
G37*
G36*
X299500D02*
X284000D01*
Y300076D01*
X284653Y296791D01*
X285935Y293697D01*
X287795Y290913D01*
X290163Y288545D01*
X292948Y286685D01*
X296041Y285403D01*
X299326Y284750D01*
X299500D01*
Y300250D01*
D02*
G37*
G36*
X75100Y239165D02*
X72600D01*
Y233100D01*
X82467D01*
X82407Y233558D01*
X81651Y235382D01*
X80449Y236949D01*
X78882Y238151D01*
X77058Y238907D01*
X75100Y239165D01*
D02*
G37*
G36*
X69600D02*
X67100D01*
X65142Y238907D01*
X63318Y238151D01*
X61751Y236949D01*
X60549Y235382D01*
X59793Y233558D01*
X59733Y233100D01*
X69600D01*
Y239165D01*
D02*
G37*
G36*
X24000D02*
X19000D01*
Y233100D01*
X31367D01*
X31307Y233558D01*
X30551Y235382D01*
X29349Y236949D01*
X27782Y238151D01*
X25958Y238907D01*
X24000Y239165D01*
D02*
G37*
G36*
X82467Y230100D02*
X72600D01*
Y224035D01*
X75100D01*
X77058Y224293D01*
X78882Y225049D01*
X80449Y226251D01*
X81651Y227818D01*
X82407Y229642D01*
X82467Y230100D01*
D02*
G37*
G36*
X69600D02*
X59733D01*
X59793Y229642D01*
X60549Y227818D01*
X61751Y226251D01*
X63318Y225049D01*
X65142Y224293D01*
X67100Y224035D01*
X69600D01*
Y230100D01*
D02*
G37*
G36*
X31367D02*
X19000D01*
Y224035D01*
X24000D01*
X25958Y224293D01*
X27782Y225049D01*
X29349Y226251D01*
X30551Y227818D01*
X31307Y229642D01*
X31367Y230100D01*
D02*
G37*
G36*
X89000Y220986D02*
X84000D01*
Y215485D01*
X89000D01*
Y220986D01*
D02*
G37*
G36*
X89000Y197236D02*
X84000D01*
Y191736D01*
X89000D01*
Y197236D01*
D02*
G37*
G36*
X601302Y195532D02*
X599698D01*
X598216Y194918D01*
X597082Y193784D01*
X596468Y192302D01*
Y190698D01*
X597082Y189216D01*
X597370Y188928D01*
X597820Y187740D01*
X596685Y186606D01*
X596330Y185747D01*
X595447Y186113D01*
X593843D01*
X592361Y185499D01*
X591227Y184365D01*
X590613Y182883D01*
Y181279D01*
X591227Y179797D01*
X592361Y178663D01*
X593843Y178049D01*
X595447D01*
X596929Y178663D01*
X598063Y179797D01*
X598419Y180655D01*
X599302Y180290D01*
X600906D01*
X602043Y180761D01*
X603313Y180170D01*
Y168708D01*
X602302Y168032D01*
X600698D01*
X599216Y167418D01*
X598082Y166284D01*
X597468Y164802D01*
Y163198D01*
X598082Y161716D01*
X599216Y160582D01*
X599434Y159484D01*
X598483Y158532D01*
X597448D01*
X595966Y157918D01*
X594832Y156784D01*
X594218Y155302D01*
Y153698D01*
X594832Y152216D01*
X595966Y151082D01*
X597448Y150468D01*
X599052D01*
X600534Y151082D01*
X601668Y152216D01*
X602282Y153698D01*
Y154733D01*
X607900Y160350D01*
X608482Y161222D01*
X608687Y162250D01*
Y186000D01*
X608482Y187028D01*
X607900Y187900D01*
X604532Y191267D01*
Y192302D01*
X603918Y193784D01*
X602784Y194918D01*
X601302Y195532D01*
D02*
G37*
G36*
X583500Y163500D02*
X574500D01*
Y160000D01*
X583500D01*
Y163500D01*
D02*
G37*
G36*
X571500D02*
X562500D01*
Y160000D01*
X571500D01*
Y163500D01*
D02*
G37*
G36*
X78250Y181928D02*
Y159000D01*
X91375D01*
Y167500D01*
X90877Y171285D01*
X89416Y174813D01*
X87092Y177841D01*
X84063Y180166D01*
X80535Y181627D01*
X78250Y181928D01*
D02*
G37*
G36*
X75250D02*
X72965Y181627D01*
X69438Y180166D01*
X66409Y177841D01*
X64085Y174813D01*
X62623Y171285D01*
X62125Y167500D01*
Y159000D01*
X75250D01*
Y181928D01*
D02*
G37*
G36*
X583500Y157500D02*
X574500D01*
Y154000D01*
X583500D01*
Y157500D01*
D02*
G37*
G36*
X571500D02*
X562500D01*
Y154000D01*
X571500D01*
Y157500D01*
D02*
G37*
G36*
X583500Y151000D02*
X574500D01*
Y147500D01*
X583500D01*
Y151000D01*
D02*
G37*
G36*
X571500D02*
X562500D01*
Y147500D01*
X571500D01*
Y151000D01*
D02*
G37*
G36*
X36448Y168500D02*
X33552D01*
X30754Y167750D01*
X28246Y166302D01*
X26198Y164254D01*
X24750Y161746D01*
X24000Y158948D01*
Y156052D01*
X24750Y153254D01*
X26198Y150746D01*
X28246Y148698D01*
X30754Y147250D01*
X33552Y146500D01*
X36448D01*
X39246Y147250D01*
X41754Y148698D01*
X43802Y150746D01*
X45251Y153254D01*
X46000Y156052D01*
Y158948D01*
X45251Y161746D01*
X43802Y164254D01*
X41754Y166302D01*
X39246Y167750D01*
X36448Y168500D01*
D02*
G37*
G36*
X603500Y141000D02*
X589500D01*
Y135500D01*
X603500D01*
Y141000D01*
D02*
G37*
G36*
X91375Y156000D02*
X78250D01*
Y133072D01*
X80535Y133373D01*
X84063Y134834D01*
X87092Y137158D01*
X89416Y140188D01*
X90877Y143715D01*
X91375Y147500D01*
Y156000D01*
D02*
G37*
G36*
X75250D02*
X62125D01*
Y147500D01*
X62623Y143715D01*
X64085Y140188D01*
X66409Y137158D01*
X69438Y134834D01*
X72965Y133373D01*
X75250Y133072D01*
Y156000D01*
D02*
G37*
G36*
X603500Y132500D02*
X589500D01*
Y127000D01*
X603500D01*
Y132500D01*
D02*
G37*
G36*
X117000Y123875D02*
X108500D01*
Y110750D01*
X131428D01*
X131127Y113035D01*
X129666Y116563D01*
X127342Y119592D01*
X124313Y121916D01*
X120785Y123377D01*
X117000Y123875D01*
D02*
G37*
G36*
X105500D02*
X97000D01*
X93215Y123377D01*
X89688Y121916D01*
X86659Y119592D01*
X84334Y116563D01*
X82873Y113035D01*
X82572Y110750D01*
X105500D01*
Y123875D01*
D02*
G37*
G36*
X263500Y110000D02*
X259500D01*
Y105000D01*
X263500D01*
Y110000D01*
D02*
G37*
G36*
X256500D02*
X252500D01*
Y105000D01*
X256500D01*
Y110000D01*
D02*
G37*
G36*
X136750Y184625D02*
X132965Y184127D01*
X129438Y182666D01*
X126409Y180341D01*
X124085Y177313D01*
X122623Y173785D01*
X122125Y170000D01*
Y145000D01*
X122623Y141215D01*
X124085Y137687D01*
X126409Y134658D01*
X129438Y132334D01*
X132965Y130873D01*
X133691Y130778D01*
Y123573D01*
X133691Y123573D01*
X133924Y122402D01*
X134587Y121410D01*
X142183Y113814D01*
X141812Y112432D01*
Y110589D01*
X142289Y108809D01*
X143211Y107212D01*
X144514Y105909D01*
X146110Y104988D01*
X147891Y104511D01*
X149734D01*
X151514Y104988D01*
X153110Y105909D01*
X154414Y107212D01*
X155335Y108809D01*
X155812Y110589D01*
Y112432D01*
X155335Y114212D01*
X154414Y115809D01*
X153110Y117112D01*
X151514Y118034D01*
X149734Y118511D01*
X147891D01*
X146508Y118140D01*
X139809Y124840D01*
Y130778D01*
X140535Y130873D01*
X144063Y132334D01*
X147092Y134658D01*
X149416Y137687D01*
X150877Y141215D01*
X151375Y145000D01*
Y170000D01*
X150877Y173785D01*
X149416Y177313D01*
X147092Y180341D01*
X144063Y182666D01*
X140535Y184127D01*
X136750Y184625D01*
D02*
G37*
G36*
X321078Y101536D02*
X318778D01*
Y99436D01*
X321078D01*
Y101536D01*
D02*
G37*
G36*
X348893Y102392D02*
X347691Y102070D01*
X346095Y101149D01*
X344792Y99845D01*
X343871Y98249D01*
X343548Y97047D01*
X348893D01*
Y102392D01*
D02*
G37*
G36*
X263500Y102000D02*
X259500D01*
Y97000D01*
X263500D01*
Y102000D01*
D02*
G37*
G36*
X256500D02*
X252500D01*
Y97000D01*
X256500D01*
Y102000D01*
D02*
G37*
G36*
X243500Y101845D02*
Y96500D01*
X248845D01*
X248523Y97702D01*
X247601Y99298D01*
X246298Y100601D01*
X244702Y101523D01*
X243500Y101845D01*
D02*
G37*
G36*
X240500D02*
X239298Y101523D01*
X237702Y100601D01*
X236399Y99298D01*
X235477Y97702D01*
X235155Y96500D01*
X240500D01*
Y101845D01*
D02*
G37*
G36*
X105500Y107750D02*
X82572D01*
X82873Y105465D01*
X84334Y101937D01*
X86659Y98909D01*
X89688Y96584D01*
X93215Y95123D01*
X97000Y94625D01*
X105500D01*
Y107750D01*
D02*
G37*
G36*
X348893Y94047D02*
X343548D01*
X343871Y92845D01*
X344792Y91249D01*
X346095Y89946D01*
X347691Y89024D01*
X348893Y88702D01*
Y94047D01*
D02*
G37*
G36*
X248845Y93500D02*
X243500D01*
Y88155D01*
X244702Y88477D01*
X246298Y89399D01*
X247601Y90702D01*
X248523Y92298D01*
X248845Y93500D01*
D02*
G37*
G36*
X240500D02*
X235155D01*
X235477Y92298D01*
X236399Y90702D01*
X237702Y89399D01*
X239298Y88477D01*
X240500Y88155D01*
Y93500D01*
D02*
G37*
G36*
X90051Y88931D02*
X88448D01*
X86966Y88317D01*
X85831Y87183D01*
X85218Y85701D01*
Y84097D01*
X85831Y82615D01*
X86966Y81480D01*
X88448Y80867D01*
X90051D01*
X91533Y81480D01*
X92668Y82615D01*
X93281Y84097D01*
Y85701D01*
X92668Y87183D01*
X91533Y88317D01*
X90051Y88931D01*
D02*
G37*
G36*
X332674Y92000D02*
X330831D01*
X329050Y91523D01*
X327454Y90601D01*
X326151Y89298D01*
X325229Y87702D01*
X324752Y85922D01*
Y84078D01*
X325229Y82298D01*
X326151Y80702D01*
X327454Y79399D01*
X329050Y78477D01*
X330831Y78000D01*
X332674D01*
X334454Y78477D01*
X336050Y79399D01*
X336725Y80073D01*
X337216Y79582D01*
X338698Y78968D01*
X340302D01*
X341784Y79582D01*
X342918Y80716D01*
X343532Y82198D01*
Y83802D01*
X342918Y85284D01*
X341784Y86418D01*
X340302Y87032D01*
X338698D01*
X338418Y87170D01*
X338275Y87702D01*
X337354Y89298D01*
X336050Y90601D01*
X334454Y91523D01*
X332674Y92000D01*
D02*
G37*
G36*
X513461Y84961D02*
X511857D01*
X510375Y84347D01*
X509241Y83213D01*
X508627Y81731D01*
Y80127D01*
X509241Y78645D01*
X510375Y77511D01*
X511857Y76897D01*
X513461D01*
X514943Y77511D01*
X516077Y78645D01*
X516691Y80127D01*
Y81731D01*
X516077Y83213D01*
X514943Y84347D01*
X513461Y84961D01*
D02*
G37*
G36*
X331302Y72282D02*
X329698D01*
X328560Y71811D01*
X326922Y72250D01*
X325078D01*
X323298Y71773D01*
X321702Y70851D01*
X320399Y69548D01*
X319477Y67952D01*
X319000Y66172D01*
Y64328D01*
X319477Y62548D01*
X320399Y60952D01*
X321702Y59649D01*
X323298Y58727D01*
X325078Y58250D01*
X325500D01*
Y47250D01*
X338000D01*
Y59750D01*
X332059D01*
X331811Y60349D01*
X331641Y61020D01*
X332523Y62548D01*
X333000Y64328D01*
Y65048D01*
X333918Y65966D01*
X334532Y67448D01*
Y69052D01*
X333918Y70534D01*
X332784Y71668D01*
X331302Y72282D01*
D02*
G37*
G36*
X544674Y76750D02*
X544500D01*
Y61250D01*
X560000D01*
Y61424D01*
X559347Y64709D01*
X558065Y67803D01*
X556205Y70587D01*
X553837Y72955D01*
X551053Y74815D01*
X547959Y76097D01*
X544674Y76750D01*
D02*
G37*
G36*
X541500D02*
X541326D01*
X538041Y76097D01*
X534948Y74815D01*
X532163Y72955D01*
X529795Y70587D01*
X527935Y67803D01*
X526653Y64709D01*
X526000Y61424D01*
Y61250D01*
X541500D01*
Y76750D01*
D02*
G37*
G36*
X312764Y65123D02*
X311160D01*
X309678Y64509D01*
X308544Y63375D01*
X307930Y61893D01*
Y60289D01*
X307403Y59500D01*
X303000D01*
X303000Y59500D01*
X302500D01*
Y59500D01*
X301730Y59500D01*
X293000D01*
Y49000D01*
X298535D01*
X299861Y47673D01*
X299650Y47163D01*
Y43000D01*
Y39500D01*
X301328D01*
Y38093D01*
X299735Y36500D01*
X292600D01*
Y29500D01*
X303700D01*
Y32535D01*
X305665Y34500D01*
X307160D01*
X307360Y34315D01*
X307904Y33230D01*
X307464Y32169D01*
Y30565D01*
X308078Y29083D01*
X308892Y28270D01*
X308438Y27000D01*
X304250Y27000D01*
X302980Y27000D01*
X294250D01*
Y25998D01*
X293034Y25418D01*
X291552Y26032D01*
X289948D01*
X288466Y25418D01*
X287332Y24284D01*
X286718Y22802D01*
Y21198D01*
X287332Y19716D01*
X288466Y18582D01*
X289948Y17968D01*
X291552D01*
X293034Y18582D01*
X294250Y18002D01*
Y16500D01*
X302980D01*
X303750Y16500D01*
X305020Y16500D01*
X313750D01*
Y17948D01*
X314750Y18691D01*
X315921Y18924D01*
X316913Y19587D01*
X319822Y22496D01*
X319978Y22730D01*
X320338Y22879D01*
X321472Y24013D01*
X322086Y25495D01*
Y27099D01*
X321472Y28581D01*
X321113Y28940D01*
Y49446D01*
X320880Y50617D01*
X320217Y51609D01*
X320216Y51609D01*
X315413Y56413D01*
X314975Y56705D01*
X314780Y58160D01*
X314804Y58231D01*
X315380Y58807D01*
X315994Y60289D01*
Y61893D01*
X315380Y63375D01*
X314246Y64509D01*
X312764Y65123D01*
D02*
G37*
G36*
X520500Y59750D02*
X508000D01*
Y47250D01*
X520500D01*
Y59750D01*
D02*
G37*
G36*
X353500Y59750D02*
X341000D01*
Y47250D01*
X353500D01*
Y59750D01*
D02*
G37*
G36*
X505000Y59750D02*
X492500D01*
Y47250D01*
X505000D01*
Y59750D01*
D02*
G37*
G36*
X100000Y59750D02*
X87500D01*
Y47250D01*
X100000D01*
Y59750D01*
D02*
G37*
G36*
X193802Y54032D02*
X192198D01*
X190716Y53418D01*
X189582Y52284D01*
X188968Y50802D01*
Y49198D01*
X189582Y47716D01*
X190716Y46582D01*
X192198Y45968D01*
X193802D01*
X195284Y46582D01*
X196418Y47716D01*
X197032Y49198D01*
Y50802D01*
X196418Y52284D01*
X195284Y53418D01*
X193802Y54032D01*
D02*
G37*
G36*
X296650Y46500D02*
X292600D01*
Y44500D01*
X296650D01*
Y46500D01*
D02*
G37*
G36*
X560000Y58250D02*
X544500D01*
Y42750D01*
X544674D01*
X547959Y43403D01*
X551053Y44685D01*
X553837Y46545D01*
X556205Y48913D01*
X558065Y51698D01*
X559347Y54791D01*
X560000Y58076D01*
Y58250D01*
D02*
G37*
G36*
X541500D02*
X526000D01*
Y58076D01*
X526653Y54791D01*
X527935Y51698D01*
X529795Y48913D01*
X532163Y46545D01*
X534948Y44685D01*
X538041Y43403D01*
X541326Y42750D01*
X541500D01*
Y58250D01*
D02*
G37*
G36*
X448302Y49032D02*
X446698D01*
X445216Y48418D01*
X444082Y47284D01*
X443468Y45802D01*
Y44198D01*
X444082Y42716D01*
X445216Y41582D01*
X446698Y40968D01*
X448302D01*
X449784Y41582D01*
X450918Y42716D01*
X451532Y44198D01*
Y45802D01*
X450918Y47284D01*
X449784Y48418D01*
X448302Y49032D01*
D02*
G37*
G36*
X296650Y41500D02*
X292600D01*
Y39500D01*
X296650D01*
Y41500D01*
D02*
G37*
G36*
X69000Y57230D02*
X65835Y56813D01*
X62885Y55591D01*
X60352Y53648D01*
X58409Y51115D01*
X57187Y48165D01*
X56770Y45000D01*
X57187Y41835D01*
X58409Y38885D01*
X60352Y36352D01*
X62885Y34409D01*
X65835Y33187D01*
X69000Y32770D01*
X72165Y33187D01*
X75115Y34409D01*
X77648Y36352D01*
X79591Y38885D01*
X80813Y41835D01*
X81230Y45000D01*
X80813Y48165D01*
X79591Y51115D01*
X77648Y53648D01*
X75115Y55591D01*
X72165Y56813D01*
X69000Y57230D01*
D02*
G37*
G36*
X353500Y44250D02*
X341000D01*
Y31750D01*
X353500D01*
Y44250D01*
D02*
G37*
G36*
X338000D02*
X325500D01*
Y31750D01*
X338000D01*
Y44250D01*
D02*
G37*
G36*
X115500D02*
X103000D01*
Y31750D01*
X115500D01*
Y44250D01*
D02*
G37*
G36*
X100000D02*
X87500D01*
Y31750D01*
X100000D01*
Y44250D01*
D02*
G37*
G36*
X520500D02*
X508000D01*
Y31750D01*
X520500D01*
Y44250D01*
D02*
G37*
G36*
X505000D02*
X492500D01*
Y31750D01*
X505000D01*
Y44250D01*
D02*
G37*
G36*
X282500D02*
X270000D01*
Y31750D01*
X282500D01*
Y44250D01*
D02*
G37*
G36*
X460552Y37282D02*
X458948D01*
X457466Y36668D01*
X456332Y35534D01*
X455718Y34052D01*
Y32448D01*
X456332Y30966D01*
X457466Y29832D01*
X458948Y29218D01*
X460552D01*
X462034Y29832D01*
X463168Y30966D01*
X463782Y32448D01*
Y34052D01*
X463168Y35534D01*
X462034Y36668D01*
X460552Y37282D01*
D02*
G37*
G36*
X220802Y34782D02*
X219198D01*
X217716Y34168D01*
X216582Y33034D01*
X215968Y31552D01*
Y29948D01*
X216582Y28466D01*
X217716Y27332D01*
X219198Y26718D01*
X220802D01*
X222284Y27332D01*
X223418Y28466D01*
X224032Y29948D01*
Y31552D01*
X223418Y33034D01*
X222284Y34168D01*
X220802Y34782D01*
D02*
G37*
G36*
X182094Y33366D02*
X180490D01*
X179008Y32752D01*
X177873Y31618D01*
X177260Y30136D01*
Y28532D01*
X177873Y27050D01*
X179008Y25916D01*
X180490Y25302D01*
X182094D01*
X183576Y25916D01*
X184710Y27050D01*
X185324Y28532D01*
Y30136D01*
X184710Y31618D01*
X183576Y32752D01*
X182094Y33366D01*
D02*
G37*
G36*
X437552Y32532D02*
X435948D01*
X434466Y31918D01*
X433332Y30784D01*
X432718Y29302D01*
Y27698D01*
X433332Y26216D01*
X434466Y25082D01*
X435948Y24468D01*
X437552D01*
X439034Y25082D01*
X440168Y26216D01*
X440782Y27698D01*
Y29302D01*
X440168Y30784D01*
X439034Y31918D01*
X437552Y32532D01*
D02*
G37*
G36*
X415302Y32032D02*
X413698D01*
X412216Y31418D01*
X411082Y30284D01*
X410468Y28802D01*
Y27198D01*
X411082Y25716D01*
X412216Y24582D01*
X413698Y23968D01*
X415302D01*
X416784Y24582D01*
X417918Y25716D01*
X418532Y27198D01*
Y28802D01*
X417918Y30284D01*
X416784Y31418D01*
X415302Y32032D01*
D02*
G37*
G36*
X393802Y31532D02*
X392198D01*
X390716Y30918D01*
X389582Y29784D01*
X388968Y28302D01*
Y26698D01*
X389582Y25216D01*
X390716Y24082D01*
X392198Y23468D01*
X393802D01*
X395284Y24082D01*
X396418Y25216D01*
X397032Y26698D01*
Y28302D01*
X396418Y29784D01*
X395284Y30918D01*
X393802Y31532D01*
D02*
G37*
G36*
X381802D02*
X380198D01*
X378716Y30918D01*
X377582Y29784D01*
X376968Y28302D01*
Y26698D01*
X377582Y25216D01*
X378716Y24082D01*
X380198Y23468D01*
X381802D01*
X383284Y24082D01*
X384418Y25216D01*
X385032Y26698D01*
Y28302D01*
X384418Y29784D01*
X383284Y30918D01*
X381802Y31532D01*
D02*
G37*
G36*
X536750Y31980D02*
X533585Y31563D01*
X530635Y30341D01*
X528102Y28398D01*
X526159Y25865D01*
X524937Y22915D01*
X524520Y19750D01*
X524937Y16585D01*
X526159Y13635D01*
X528102Y11102D01*
X530635Y9159D01*
X533585Y7937D01*
X536750Y7520D01*
X539915Y7937D01*
X542865Y9159D01*
X545398Y11102D01*
X547341Y13635D01*
X548563Y16585D01*
X548980Y19750D01*
X548563Y22915D01*
X547341Y25865D01*
X545398Y28398D01*
X542865Y30341D01*
X539915Y31563D01*
X536750Y31980D01*
D02*
G37*
G36*
X520500Y333750D02*
X508000D01*
Y321250D01*
X520500D01*
Y333750D01*
D02*
G37*
G36*
X505000D02*
X492500D01*
Y321250D01*
X505000D01*
Y333750D01*
D02*
G37*
G36*
X537250Y316095D02*
Y310750D01*
X542595D01*
X542273Y311952D01*
X541351Y313548D01*
X540048Y314851D01*
X538452Y315773D01*
X537250Y316095D01*
D02*
G37*
G36*
X534250Y316095D02*
X533048Y315773D01*
X531452Y314851D01*
X530149Y313548D01*
X529227Y311952D01*
X528905Y310750D01*
X534250D01*
Y316095D01*
D02*
G37*
G36*
X489000Y318750D02*
X466999D01*
Y308750D01*
X464001D01*
Y318750D01*
X452000D01*
Y308750D01*
Y298750D01*
X453136D01*
Y297026D01*
X452727Y296617D01*
X452113Y295135D01*
Y293531D01*
X452727Y292049D01*
X453861Y290915D01*
X455343Y290301D01*
X456947D01*
X458429Y290915D01*
X459563Y292049D01*
X460177Y293531D01*
Y293803D01*
X460449D01*
X461931Y294417D01*
X463065Y295551D01*
X463679Y297033D01*
Y298637D01*
X463754Y298750D01*
X466382D01*
X466654Y298344D01*
Y296740D01*
X467268Y295258D01*
X468402Y294124D01*
X469884Y293510D01*
X471488D01*
X472970Y294124D01*
X473230Y294383D01*
X474764Y294470D01*
X474780Y294458D01*
X475003Y294235D01*
X475773Y293446D01*
X475785Y293430D01*
X477495Y292118D01*
X479485Y291294D01*
X481622Y291012D01*
X481638Y291015D01*
X482740Y291029D01*
X483905Y291002D01*
X485125Y291122D01*
X487173Y291324D01*
X490315Y292277D01*
X493210Y293825D01*
X494801Y295130D01*
X495749Y295908D01*
X495756Y295917D01*
X496627Y296827D01*
X504113Y304313D01*
X509473D01*
X509477Y304298D01*
X510399Y302702D01*
X511702Y301399D01*
X513298Y300477D01*
X515078Y300000D01*
X516922D01*
X518702Y300477D01*
X520298Y301399D01*
X521601Y302702D01*
X522523Y304298D01*
X523000Y306078D01*
Y307922D01*
X522523Y309702D01*
X521601Y311298D01*
X520298Y312601D01*
X518702Y313523D01*
X516922Y314000D01*
X515078D01*
X513298Y313523D01*
X511702Y312601D01*
X510399Y311298D01*
X509477Y309702D01*
X509473Y309687D01*
X503000D01*
X501972Y309482D01*
X501100Y308900D01*
X492832Y300632D01*
X491936Y299735D01*
X491935Y299734D01*
X490980Y298973D01*
X490713Y298768D01*
X490697Y298765D01*
X489246Y299243D01*
X489000Y299836D01*
Y318750D01*
D02*
G37*
G36*
X534250Y307750D02*
X528905D01*
X529227Y306548D01*
X530149Y304952D01*
X531452Y303649D01*
X533048Y302727D01*
X534250Y302405D01*
Y307750D01*
D02*
G37*
G36*
X542595D02*
X537250D01*
Y302405D01*
X538452Y302727D01*
X540048Y303649D01*
X541351Y304952D01*
X542273Y306548D01*
X542595Y307750D01*
D02*
G37*
G36*
X542250Y278500D02*
X538500D01*
Y275250D01*
X542250D01*
Y278500D01*
D02*
G37*
G36*
X535500D02*
X531750D01*
Y275250D01*
X535500D01*
Y278500D01*
D02*
G37*
G36*
X520950Y280750D02*
X516650D01*
Y268250D01*
X520950D01*
Y280750D01*
D02*
G37*
G36*
X603500Y253000D02*
X589500D01*
Y247500D01*
X603500D01*
Y253000D01*
D02*
G37*
G36*
X583744Y244850D02*
X582140D01*
X580658Y244236D01*
X579524Y243102D01*
X578910Y241620D01*
Y240016D01*
X579524Y238534D01*
X580658Y237400D01*
X581175Y237186D01*
X581214Y237119D01*
X581376Y235728D01*
X580658Y235010D01*
X580044Y233528D01*
Y232500D01*
X573594D01*
X573073Y233770D01*
X573839Y234536D01*
X574453Y236018D01*
Y237622D01*
X573839Y239104D01*
X572705Y240238D01*
X571223Y240852D01*
X569619D01*
X568137Y240238D01*
X567003Y239104D01*
X566389Y237622D01*
Y236018D01*
X567003Y234536D01*
X567769Y233770D01*
X567248Y232500D01*
X565261D01*
X564555Y233556D01*
X564657Y233803D01*
Y235407D01*
X564043Y236889D01*
X562909Y238023D01*
X561427Y238637D01*
X559823D01*
X558341Y238023D01*
X557207Y236889D01*
X556593Y235407D01*
Y233803D01*
X556777Y233358D01*
X555929Y232088D01*
X551563D01*
X551005Y232199D01*
X550441D01*
X549637Y232039D01*
X549527Y232061D01*
X542989D01*
X541234Y231712D01*
X539745Y230717D01*
X538750Y229229D01*
X538401Y227473D01*
X538750Y225717D01*
X539745Y224229D01*
X541234Y223234D01*
X542989Y222885D01*
X549527D01*
X550331Y223045D01*
X550441Y223023D01*
X550558D01*
X551116Y222912D01*
X562500D01*
Y222500D01*
X583500D01*
Y228694D01*
X584878D01*
X586360Y229307D01*
X587494Y230442D01*
X588108Y231924D01*
Y233528D01*
X587494Y235010D01*
X586360Y236144D01*
X585844Y236358D01*
X585804Y236424D01*
X585643Y237816D01*
X586360Y238534D01*
X586974Y240016D01*
Y241620D01*
X586360Y243102D01*
X585226Y244236D01*
X583744Y244850D01*
D02*
G37*
G36*
X520950Y241750D02*
X516650D01*
Y229250D01*
X520950D01*
Y241750D01*
D02*
G37*
G36*
X603500Y244500D02*
X589500D01*
Y239000D01*
X594644D01*
X594809Y238754D01*
Y237150D01*
X594980Y236735D01*
X594889Y235323D01*
X593755Y234189D01*
X593141Y232707D01*
Y231103D01*
X593755Y229621D01*
X594889Y228487D01*
X596371Y227873D01*
X597975D01*
X599457Y228487D01*
X600591Y229621D01*
X601205Y231103D01*
Y232707D01*
X601033Y233121D01*
X601124Y234534D01*
X602259Y235668D01*
X602873Y237150D01*
Y238754D01*
X603037Y239000D01*
X603500D01*
Y244500D01*
D02*
G37*
G36*
X520950Y226250D02*
X516650D01*
Y213750D01*
X520950D01*
Y226250D01*
D02*
G37*
G36*
X583500Y220000D02*
X562500D01*
Y219588D01*
X559000D01*
X557244Y219239D01*
X555756Y218244D01*
X552416Y214904D01*
X542621D01*
X540866Y214555D01*
X539377Y213560D01*
X538382Y212072D01*
X538033Y210316D01*
X538382Y208560D01*
X539377Y207072D01*
X540866Y206077D01*
X542621Y205728D01*
X554316D01*
X556072Y206077D01*
X557560Y207072D01*
X560900Y210412D01*
X562500D01*
Y210000D01*
X583500D01*
Y220000D01*
D02*
G37*
G36*
X521200Y200750D02*
X516900D01*
Y188250D01*
X521200D01*
Y200750D01*
D02*
G37*
G36*
X335510Y247476D02*
X331510D01*
Y242476D01*
X335510D01*
Y247476D01*
D02*
G37*
G36*
X328510D02*
X324510D01*
Y242476D01*
X328510D01*
Y247476D01*
D02*
G37*
G36*
X347802Y259032D02*
X346198D01*
X344716Y258418D01*
X343582Y257284D01*
X342968Y255802D01*
Y254250D01*
X341000D01*
Y240250D01*
X354000D01*
Y254250D01*
X351032D01*
Y255802D01*
X350418Y257284D01*
X349284Y258418D01*
X347802Y259032D01*
D02*
G37*
G36*
X351250Y215345D02*
Y210000D01*
X356595D01*
X356273Y211202D01*
X355351Y212798D01*
X354048Y214101D01*
X352452Y215023D01*
X351250Y215345D01*
D02*
G37*
G36*
X356595Y207000D02*
X351250D01*
Y201655D01*
X352452Y201977D01*
X354048Y202899D01*
X355351Y204202D01*
X356273Y205798D01*
X356595Y207000D01*
D02*
G37*
G36*
X354000Y233000D02*
X341000D01*
Y222299D01*
X337350Y218650D01*
X336768Y217778D01*
X336563Y216750D01*
Y201489D01*
X335968Y200052D01*
Y198448D01*
X336582Y196966D01*
X337716Y195832D01*
X339198Y195218D01*
X340802D01*
X342284Y195832D01*
X343418Y196966D01*
X344032Y198448D01*
Y200052D01*
X343418Y201534D01*
X342284Y202668D01*
X341937Y202812D01*
Y205707D01*
X343207Y205874D01*
X343227Y205798D01*
X344149Y204202D01*
X345452Y202899D01*
X347048Y201977D01*
X348250Y201655D01*
Y208500D01*
Y215345D01*
X347048Y215023D01*
X345452Y214101D01*
X344149Y212798D01*
X343227Y211202D01*
X343207Y211126D01*
X341937Y211293D01*
Y215637D01*
X345299Y219000D01*
X354000D01*
Y233000D01*
D02*
G37*
G36*
X357100Y198350D02*
X354000D01*
Y195250D01*
X357100D01*
Y198350D01*
D02*
G37*
G36*
X351000D02*
X347900D01*
Y195250D01*
X351000D01*
Y198350D01*
D02*
G37*
G36*
X333510Y211330D02*
X325510D01*
Y199126D01*
X325510Y198330D01*
X324436Y197856D01*
X323888D01*
Y192856D01*
X329388D01*
X334888D01*
Y197856D01*
X334584D01*
X333510Y198330D01*
X333510Y199126D01*
Y211330D01*
D02*
G37*
%LPD*%
D11*
X129500Y234000D02*
X137850D01*
X122000D02*
X129500D01*
X122000Y234000D02*
X122000Y234000D01*
X137850Y269500D02*
X143962D01*
X129500D02*
X137850D01*
X143962D02*
X144462Y269000D01*
X144750D01*
X168153Y186347D02*
Y192896D01*
X168056Y192993D02*
X168153Y192896D01*
Y186347D02*
X168250Y186250D01*
X87000Y217486D02*
X87500D01*
X90250Y197250D02*
Y214736D01*
X85400Y231600D02*
X86744Y230256D01*
X71100Y231600D02*
X85400D01*
X86744Y230256D02*
X90250Y226750D01*
X71000Y231500D02*
X71100Y231600D01*
X87500Y217486D02*
X90250Y214736D01*
Y226750D01*
X506500Y45750D02*
X506500Y45750D01*
X489000Y45750D02*
X506500D01*
X485500Y49250D02*
Y72250D01*
Y49250D02*
X489000Y45750D01*
X256550Y206500D02*
X256807Y206243D01*
X269407D02*
X271350Y204300D01*
X76750Y172500D02*
Y183750D01*
X90250Y197250D01*
X122500Y60750D02*
Y72250D01*
X122500Y60750D02*
X122500Y60750D01*
X127500D02*
Y72250D01*
X258000Y110750D02*
X263750Y116500D01*
X258000Y103500D02*
Y110750D01*
X263750Y116500D02*
X271000D01*
X284950Y216450D02*
X288600Y212800D01*
X288850D02*
X291350Y210300D01*
X284950Y216450D02*
Y224300D01*
X288600Y212800D02*
X288850D01*
X291350Y204300D02*
Y210300D01*
D13*
X137216Y296572D02*
X137515Y296273D01*
X137358Y308608D02*
X137500Y308750D01*
X137358Y296714D02*
Y308608D01*
X137216Y296572D02*
X137358Y296714D01*
X124322Y295987D02*
Y296353D01*
X122500Y298174D02*
X124322Y296353D01*
X403172Y196947D02*
X403408Y196711D01*
X395307Y196947D02*
X403172D01*
X391872Y200382D02*
X395307Y196947D01*
X389849Y211599D02*
X395738D01*
X389250Y211000D02*
X389849Y211599D01*
X387267Y200681D02*
X391149D01*
X391449Y200382D01*
X391872D01*
X511063Y281028D02*
Y281317D01*
X180701Y329009D02*
Y331201D01*
X179666Y327974D02*
X180701Y329009D01*
X171724Y327974D02*
X179666D01*
X180701Y331201D02*
X181000Y331500D01*
X167500Y323750D02*
X171724Y327974D01*
X167500Y308750D02*
Y323750D01*
X197625Y274375D02*
Y308625D01*
X480512Y297767D02*
Y302000D01*
X480500Y308750D02*
X480512Y302000D01*
X485500Y297750D02*
Y308750D01*
X315804Y153304D02*
X318000Y155500D01*
X315804Y142339D02*
Y153304D01*
X318850Y151869D02*
X320281Y150439D01*
X318850Y151869D02*
Y154150D01*
X320281Y150015D02*
Y150439D01*
X523000Y125500D02*
X526500D01*
X528000Y124000D01*
Y115000D02*
Y124000D01*
X516000Y103000D02*
X528000Y115000D01*
X508673Y99750D02*
X511923Y103000D01*
X508250Y99750D02*
X508673D01*
X511923Y103000D02*
X516000D01*
X485618Y89114D02*
X497136D01*
X485504Y89228D02*
X485618Y89114D01*
X497136D02*
X497250Y89000D01*
X167500Y297750D02*
Y308750D01*
X182500Y297750D02*
Y308750D01*
X529750Y353250D02*
Y353500D01*
X531250Y351723D02*
Y351750D01*
Y351723D02*
X543069Y339904D01*
X529750Y353250D02*
X531250Y351750D01*
X294750Y104500D02*
X297637D01*
X300804Y107667D02*
Y111089D01*
X297637Y104500D02*
X300804Y107667D01*
X209915Y90992D02*
X213750Y94827D01*
X208535Y85000D02*
X209915Y86380D01*
X206760Y85000D02*
X208535D01*
X213750Y94827D02*
Y95250D01*
X209915Y86380D02*
Y90992D01*
X202750Y80990D02*
X206760Y85000D01*
X202750Y72500D02*
Y80990D01*
X202500Y72250D02*
X202750Y72500D01*
X360500Y297260D02*
Y308750D01*
X361965Y295795D02*
X372421D01*
X360500Y297260D02*
X361965Y295795D01*
X372421D02*
X374626Y298000D01*
X375000D01*
X375250Y298250D01*
Y308500D02*
X375500Y308750D01*
X375250Y298250D02*
Y308500D01*
X375799Y320049D02*
X381223D01*
X383173Y322000D02*
X386000D01*
X375500Y319750D02*
X375799Y320049D01*
X381223D02*
X383173Y322000D01*
X390250Y309000D02*
Y317750D01*
Y309000D02*
X390500Y308750D01*
X386000Y322000D02*
X390250Y317750D01*
X543069Y339904D02*
X548973Y334000D01*
X122500Y298174D02*
Y308750D01*
X148105Y206993D02*
X149056D01*
X147806Y211187D02*
X148105Y210888D01*
X149056Y206993D02*
X156806D01*
X148105D02*
Y210888D01*
X470500Y72250D02*
Y98350D01*
X470500Y72250D02*
X470500Y72250D01*
X390500Y308750D02*
X390524Y308726D01*
Y297772D02*
X390548Y297748D01*
X390524Y297772D02*
Y308726D01*
X284700Y238850D02*
X284957Y239107D01*
Y244431D01*
X286741Y246215D01*
Y252891D02*
X286850Y253000D01*
X286741Y246215D02*
Y252891D01*
X272850Y252000D02*
X279950Y244900D01*
Y239100D02*
Y244900D01*
X272850Y252000D02*
Y253329D01*
X515400Y178285D02*
X515709Y177975D01*
X515400Y178285D02*
Y186750D01*
X152200Y295666D02*
X152499Y295965D01*
X512600Y277500D02*
Y279491D01*
Y277500D02*
X515150Y274950D01*
Y266750D02*
Y274950D01*
X511063Y281028D02*
X512600Y279491D01*
X317500Y155500D02*
X318850Y154150D01*
X477267Y177279D02*
Y186717D01*
X477300Y186750D01*
X152500Y295965D02*
Y308750D01*
X152500Y308750D01*
X152499Y295965D02*
X152500Y295965D01*
X142750Y72500D02*
Y82617D01*
X143367Y83234D02*
Y83657D01*
X142500Y72250D02*
X142750Y72500D01*
Y82617D02*
X143367Y83234D01*
X360500Y308750D02*
Y319750D01*
X474500Y120000D02*
Y126250D01*
X474750Y126500D01*
X474250Y119750D02*
X474500Y120000D01*
X380500Y72250D02*
Y83250D01*
X247500Y72250D02*
Y83250D01*
X265407Y255579D02*
X270600D01*
X272850Y253329D01*
X280200Y224550D02*
Y229200D01*
X279950Y224300D02*
X280200Y224550D01*
X284700Y233701D02*
Y238850D01*
X280200Y229200D02*
X284700Y233701D01*
X351185Y201738D02*
Y207065D01*
X352500Y200000D02*
Y200423D01*
X349750Y208500D02*
X351185Y207065D01*
Y201738D02*
X352500Y200423D01*
X329388Y191356D02*
X329494Y191250D01*
X336000D01*
X330000Y249750D02*
X330010Y249740D01*
Y240976D02*
Y249740D01*
X323010Y233976D02*
X326760Y237726D01*
X327760D02*
X330010Y239976D01*
X323010Y226830D02*
Y233976D01*
X326760Y237726D02*
X327760D01*
X330010Y239976D02*
Y240976D01*
X217500Y72250D02*
X217500Y72250D01*
X352500Y193750D02*
Y200000D01*
X217292Y57994D02*
X217396Y58098D01*
Y72146D01*
X515250Y212250D02*
Y227650D01*
X515150Y227750D02*
X515250Y227650D01*
Y131250D02*
Y147600D01*
X515400Y147750D01*
X197500Y308750D02*
X197625Y308625D01*
Y274375D02*
X197750Y274250D01*
X84250Y318000D02*
X101500Y335250D01*
X71100Y318000D02*
X84250D01*
X450500Y297750D02*
Y308750D01*
X465500Y297750D02*
Y308750D01*
X375500D02*
Y319750D01*
X405500Y297750D02*
Y308750D01*
X252500Y235750D02*
X256550Y231700D01*
X252500Y235750D02*
Y236250D01*
X256550Y222500D02*
Y231700D01*
X247500Y308750D02*
Y319750D01*
X242500Y308750D02*
Y319750D01*
X227500Y308750D02*
Y319750D01*
X212500Y308750D02*
Y319750D01*
X197500Y308750D02*
Y319750D01*
X395250Y72500D02*
X395500Y72250D01*
X393933Y83203D02*
X395250Y81886D01*
Y72500D02*
Y81886D01*
X393933Y83203D02*
Y83626D01*
X360500Y72250D02*
Y83250D01*
X365500Y72250D02*
Y83250D01*
X339750Y29500D02*
Y40500D01*
X157500Y61250D02*
Y72250D01*
X172500Y72250D02*
Y83250D01*
X202500Y56500D02*
Y72250D01*
Y56500D02*
X202500Y56500D01*
X202500Y72250D02*
X202500Y72250D01*
X217396Y72146D02*
X217500Y72250D01*
X232500Y59750D02*
Y72250D01*
X232500Y72250D02*
X232500Y72250D01*
Y59750D02*
X232500Y59750D01*
X485504Y78228D02*
Y89228D01*
X410500Y72250D02*
Y83250D01*
X455500Y72250D02*
Y84750D01*
X470500Y98350D02*
X470500Y98350D01*
X440250Y98850D02*
X440375Y98725D01*
Y72375D02*
X440500Y72250D01*
X440375Y72375D02*
Y98725D01*
X310000Y155500D02*
X310804Y154696D01*
Y142339D02*
Y154696D01*
X286195Y125942D02*
X287922Y124214D01*
X281500Y126750D02*
X282308Y125942D01*
X287922Y124214D02*
X295179D01*
X282308Y125942D02*
X286195D01*
X281500Y118750D02*
X281964Y119214D01*
X281500Y110250D02*
Y118750D01*
X271000Y116500D02*
X279250D01*
X281500Y118750D01*
X281964Y119214D02*
X295179D01*
D14*
X535750Y309250D02*
X535750Y309250D01*
X506500Y335250D02*
X506880Y334870D01*
X247500Y83250D02*
X252110Y87860D01*
X252110D01*
X551005Y227611D02*
X551116Y227500D01*
X573000D01*
Y165000D02*
X573500Y165500D01*
X256807Y206243D02*
X269407D01*
X119868Y202618D02*
Y218135D01*
X115250Y210000D02*
Y215750D01*
X108264D02*
X115250D01*
X106500Y213986D02*
X108264Y215750D01*
X115750Y198500D02*
X119868Y202618D01*
X106735Y198500D02*
X115750D01*
X106500Y198736D02*
X106735Y198500D01*
X542621Y210316D02*
X554316D01*
X550441Y227611D02*
X551005D01*
X542989Y227473D02*
X549527D01*
X554316Y210316D02*
X559000Y215000D01*
X573000D01*
D15*
X136750Y123573D02*
X148812Y111510D01*
X136750Y123573D02*
Y157500D01*
X167600Y276150D02*
Y291175D01*
Y276150D02*
X167750Y276000D01*
X237000Y240640D02*
Y250780D01*
Y230500D02*
Y240640D01*
Y210220D02*
Y220360D01*
X363750Y140407D02*
X364726Y141383D01*
X369766Y140593D02*
X377644D01*
X364726Y141383D02*
X368976D01*
X377644Y140593D02*
X378987Y139250D01*
X362750Y132750D02*
X363750Y133750D01*
X368976Y141383D02*
X369766Y140593D01*
X363750Y133750D02*
Y140407D01*
X237000Y220360D02*
Y230500D01*
Y200310D02*
Y210220D01*
X167475Y291350D02*
Y297725D01*
X167500Y297750D01*
X136750Y157500D02*
Y172250D01*
X167450Y291325D02*
X167600Y291175D01*
X572500Y152000D02*
X573000Y152500D01*
X167450Y291325D02*
X167475Y291350D01*
X274845Y234402D02*
Y238995D01*
X265905Y232845D02*
X273288D01*
X274845Y238995D02*
X274950Y239100D01*
X273288Y232845D02*
X274845Y234402D01*
X283500Y150000D02*
X285937D01*
X286198Y150260D01*
X281626Y148126D02*
X283500Y150000D01*
X281626Y143771D02*
Y148126D01*
X287479Y144647D02*
Y145729D01*
Y143771D02*
Y144647D01*
X318054Y26297D02*
Y49446D01*
X309000Y21750D02*
X314750D01*
X313250Y54250D02*
X318054Y49446D01*
X314750Y21750D02*
X317659Y24659D01*
X307750Y54250D02*
X313250D01*
X264750Y234000D02*
X265905Y232845D01*
X262500Y235750D02*
Y236250D01*
Y235750D02*
X264250Y234000D01*
X264750D01*
X262528Y236278D02*
Y247568D01*
X262555Y247595D01*
X262500Y236250D02*
X262528Y236278D01*
X281626Y143771D02*
X282502Y144647D01*
X287479D01*
Y145729D02*
X290250Y148500D01*
X294632D02*
X295804Y147328D01*
Y142339D02*
Y147328D01*
X290250Y148500D02*
X294632D01*
X287479Y143771D02*
X289000Y142250D01*
Y135500D02*
Y142250D01*
X290286Y134214D02*
X295179D01*
X289000Y135500D02*
X290286Y134214D01*
D16*
X32500Y379977D02*
X29879Y379475D01*
X27629Y378042D01*
X26067Y375879D01*
X6627Y356424D02*
X4461Y354860D01*
X3025Y352606D01*
X2523Y349982D01*
X14577Y348441D02*
X16530Y346819D01*
X18746Y345585D01*
X21152Y344778D01*
X23665Y344428D01*
X26200Y344545D01*
X28670Y345126D01*
X30991Y346151D01*
X33084Y347585D01*
X34878Y349379D01*
X36312Y351472D01*
X37337Y353793D01*
X37918Y356264D01*
X38036Y358798D01*
X37685Y361311D01*
X36879Y363717D01*
X35644Y365934D01*
X34023Y367886D01*
X26067Y4098D02*
X27629Y1935D01*
X29879Y501D01*
X32500Y-0D01*
X34023Y12091D02*
X35644Y14043D01*
X36879Y16260D01*
X37685Y18666D01*
X38036Y21179D01*
X37918Y23713D01*
X37337Y26183D01*
X36312Y28504D01*
X34879Y30598D01*
X33084Y32392D01*
X30991Y33826D01*
X28670Y34851D01*
X26200Y35432D01*
X23665Y35549D01*
X21152Y35198D01*
X18746Y34392D01*
X16530Y33157D01*
X14577Y31536D01*
X2523Y29995D02*
X3025Y27370D01*
X4461Y25117D01*
X6627Y23553D01*
X622495Y350000D02*
X621993Y352621D01*
X620560Y354871D01*
X618396Y356433D01*
X590958Y367923D02*
X589337Y365970D01*
X588102Y363754D01*
X587296Y361348D01*
X586946Y358835D01*
X587063Y356300D01*
X587644Y353830D01*
X588669Y351509D01*
X590103Y349416D01*
X591897Y347621D01*
X593990Y346188D01*
X596311Y345163D01*
X598781Y344582D01*
X601316Y344464D01*
X603829Y344815D01*
X606235Y345621D01*
X608452Y346856D01*
X610404Y348477D01*
X598942Y375873D02*
X597378Y378039D01*
X595124Y379475D01*
X592500Y379977D01*
X592500Y0D02*
X595124Y502D01*
X597378Y1938D01*
X598942Y4104D01*
X610404Y31500D02*
X608452Y33121D01*
X606235Y34356D01*
X603829Y35162D01*
X601316Y35512D01*
X598781Y35395D01*
X596311Y34814D01*
X593990Y33790D01*
X591897Y32355D01*
X590103Y30561D01*
X588669Y28468D01*
X587644Y26147D01*
X587063Y23677D01*
X586946Y21142D01*
X587296Y18629D01*
X588102Y16223D01*
X589337Y14007D01*
X590958Y12055D01*
X618396Y23544D02*
X620560Y25106D01*
X621993Y27356D01*
X622495Y29977D01*
X622495Y350000D02*
X622495Y30000D01*
X26050Y375859D02*
X34023Y367886D01*
X6604Y356413D02*
X14577Y348441D01*
X26050Y4118D02*
X34023Y12091D01*
X6604Y23563D02*
X14577Y31536D01*
X610404Y348477D02*
X618377Y356450D01*
X590958Y367923D02*
X598931Y375896D01*
X590958Y12055D02*
X598931Y4081D01*
X610404Y31500D02*
X618377Y23527D01*
X2500Y350000D02*
X2500Y29982D01*
X32500Y-0D02*
X592500Y-0D01*
X32500Y379977D02*
X592500Y379977D01*
D17*
X195598Y127395D02*
X197358D01*
X199334Y127610D02*
X197574D01*
X200088Y125096D02*
X200088Y126856D01*
X199872Y124880D02*
Y123120D01*
X183531Y98827D02*
X185291D01*
X187267Y99043D02*
X185506D01*
X188021Y96529D02*
X188021Y98289D01*
X187805Y96313D02*
Y94553D01*
X148890Y240484D02*
X147874Y239468D01*
X146896Y237956D02*
X147874Y238934D01*
X145080D02*
X146058Y237956D01*
X145080Y239468D02*
X144064Y240484D01*
X117907Y225484D02*
X116891Y224468D01*
X115913Y222943D02*
X116891Y223921D01*
X114097D02*
X115075Y222943D01*
X114097Y224468D02*
X113081Y225484D01*
X62812Y276138D02*
X63828Y277154D01*
X64806Y278680D02*
X63828Y277702D01*
X66622D02*
X65644Y278680D01*
X66622Y277154D02*
X67638Y276138D01*
X159540Y183210D02*
X174000Y168750D01*
Y105485D02*
X175913Y103571D01*
X161572Y184052D02*
X176032Y169592D01*
X161572Y184052D02*
Y189906D01*
X159540Y183210D02*
Y189906D01*
X174000Y105485D02*
Y168750D01*
X176032Y106326D02*
Y169592D01*
X175913Y103571D02*
X191751Y87734D01*
X188468Y131651D02*
Y133683D01*
Y175057D01*
X181572Y184827D02*
X190500Y175898D01*
Y133683D02*
Y175898D01*
X179540Y183985D02*
X188468Y175057D01*
X179540Y183985D02*
Y189906D01*
X181572Y184827D02*
Y189906D01*
X88922Y277556D02*
X88992Y277486D01*
Y269538D02*
X89062Y269468D01*
X88992Y269538D02*
Y277486D01*
X83086Y279940D02*
X83172Y280026D01*
X83086Y272238D02*
Y279940D01*
X82999Y272152D02*
X83086Y272238D01*
X190500Y132492D02*
Y133683D01*
Y132492D02*
X195598Y127395D01*
X195598Y127395D02*
X195598Y127395D01*
X197358D02*
X197574Y127610D01*
X199334D02*
X200088Y126856D01*
X200088Y125096D02*
X200088D01*
X199872Y124880D02*
X200088Y125096D01*
X199872Y123120D02*
X199872Y123120D01*
X202746Y120246D01*
X209226Y113766D01*
X177350Y105008D02*
X183531Y98827D01*
X183531Y98827D02*
X183531Y98827D01*
X185291D02*
X185506Y99043D01*
X187267D02*
X188021Y98289D01*
X188021Y96529D02*
X188021D01*
X187805Y96313D02*
X188021Y96529D01*
X187805Y94553D02*
X187805Y94553D01*
X190679Y91679D01*
X176032Y106326D02*
X177350Y105008D01*
X190679Y91679D02*
X192592Y89766D01*
X148890Y240484D02*
X155399D01*
X147874Y238934D02*
Y239468D01*
X146058Y237956D02*
X146896D01*
X145080Y238934D02*
Y239468D01*
X140762Y240484D02*
X144064D01*
X155399D02*
X159047D01*
X164540Y234992D01*
X126588Y225484D02*
X126675Y225397D01*
X117907Y225484D02*
X126588D01*
X116891Y223921D02*
Y224468D01*
X115075Y222943D02*
X115913D01*
X114097Y223921D02*
Y224468D01*
X109779Y225484D02*
X113081D01*
X126675Y225397D02*
X127183Y224889D01*
X108350Y225484D02*
X109779D01*
X140762D02*
X149823D01*
X140167Y224889D02*
X140762Y225484D01*
X48000Y276138D02*
X62812D01*
X63828Y277154D02*
Y277702D01*
X64806Y278680D02*
X65644D01*
X66622Y277154D02*
Y277702D01*
X67638Y276138D02*
X70940D01*
X45362D02*
X48000D01*
X42000Y279500D02*
X45362Y276138D01*
X140762Y260984D02*
X145266D01*
X140167Y259992D02*
Y260389D01*
X140762Y260984D01*
X135533Y259992D02*
X136025Y259500D01*
X137850D02*
X139675D01*
X140167Y259992D01*
X136025Y259500D02*
X137850D01*
X132412Y260984D02*
X134938D01*
X135533Y260389D01*
X131817D02*
X132412Y260984D01*
X131817Y259992D02*
Y260389D01*
X135533Y259992D02*
Y260389D01*
X131325Y259500D02*
X131817Y259992D01*
X174540Y219080D02*
Y238178D01*
X173944Y218485D02*
X174540Y219080D01*
X164500Y248218D02*
X174540Y238178D01*
X173798Y218485D02*
X173944D01*
X173056Y215993D02*
Y217743D01*
X173798Y218485D01*
X145266Y260984D02*
X152250Y254000D01*
X153687Y252563D01*
X153687D02*
X158032Y248218D01*
X164500D01*
X153687Y252563D02*
X153687D01*
X54767Y297276D02*
X55425D01*
X53306Y295816D02*
X54767Y297276D01*
X50983Y295784D02*
X51015Y295816D01*
X53306D01*
X44910Y295784D02*
X50983D01*
X39968Y290842D02*
X44910Y295784D01*
X127183Y259992D02*
Y260389D01*
Y259992D02*
X127675Y259500D01*
X129500D02*
X131325D01*
X127675D02*
X129500D01*
X39968Y278658D02*
X44520Y274106D01*
X70412D01*
X39968Y278658D02*
Y290842D01*
X83534Y260984D02*
X126588D01*
X127183Y260389D01*
X70412Y274106D02*
X83534Y260984D01*
X70940Y276138D02*
X71253D01*
X136025Y264500D02*
X137850D01*
X135533Y264008D02*
X136025Y264500D01*
X139675D02*
X140167Y264008D01*
Y263611D02*
Y264008D01*
X137850Y264500D02*
X139675D01*
X135533Y263611D02*
Y264008D01*
X127675Y264500D02*
X129500D01*
X127183Y264008D02*
X127675Y264500D01*
X71253Y276138D02*
X84375Y263016D01*
X131325Y264500D02*
X131817Y264008D01*
Y263611D02*
Y264008D01*
X129500Y264500D02*
X131325D01*
X127183Y263611D02*
Y264008D01*
X176572Y219080D02*
Y239020D01*
X158874Y250250D02*
X165342D01*
X176572Y239020D01*
X177314Y218485D02*
X178056Y217743D01*
Y215993D02*
Y217743D01*
X176572Y219080D02*
X177167Y218485D01*
X177314D01*
X134938Y263016D02*
X135533Y263611D01*
X140167D02*
X140762Y263016D01*
X126588D02*
X127183Y263611D01*
X131817D02*
X132412Y263016D01*
X140762D02*
X146108D01*
X158874Y250250D01*
X84375Y263016D02*
X126588D01*
X132412D02*
X134938D01*
X51857Y293784D02*
X53306D01*
X54767Y292323D01*
X51825Y293752D02*
X51857Y293784D01*
X42000Y290000D02*
X45752Y293752D01*
X54767Y292323D02*
X55425D01*
X45752Y293752D02*
X51825D01*
X42000Y279500D02*
Y290000D01*
X166572Y233177D02*
Y235833D01*
X140762Y242516D02*
X159889D01*
X164540Y233177D02*
Y234992D01*
X159889Y242516D02*
X166572Y235833D01*
Y233177D02*
X167167Y232582D01*
X163648D02*
X163944D01*
X162556Y231490D02*
X163648Y232582D01*
X163944D02*
X164540Y233177D01*
X170215Y256629D02*
X184540Y242304D01*
X163260Y256629D02*
X170215D01*
X144747Y278016D02*
X164102Y258661D01*
X143905Y275984D02*
X163260Y256629D01*
X164102Y258661D02*
X171056D01*
X186572Y243146D01*
X184540Y233177D02*
Y242304D01*
X186572Y233177D02*
Y243146D01*
X140762Y275984D02*
X143905D01*
X140167Y275389D02*
X140762Y275984D01*
X140167Y274992D02*
Y275389D01*
X139675Y274500D02*
X140167Y274992D01*
X134938Y275984D02*
X135533Y275389D01*
Y274992D02*
Y275389D01*
X132412Y275984D02*
X134938D01*
X136025Y274500D02*
X137850D01*
X139675D01*
X135533Y274992D02*
X136025Y274500D01*
X183944Y232582D02*
X184540Y233177D01*
X183648Y232582D02*
X183944D01*
X182556Y231490D02*
X183648Y232582D01*
X182556Y231290D02*
Y231490D01*
X87344Y304150D02*
X87810Y304616D01*
X87344Y302085D02*
Y304150D01*
X84337Y299077D02*
X87344Y302085D01*
X84337Y293500D02*
X90063Y287774D01*
X84337Y293500D02*
Y299077D01*
X131817Y275389D02*
X132412Y275984D01*
X131817Y274992D02*
Y275389D01*
X129500Y274500D02*
X131325D01*
X131817Y274992D01*
X127675Y274500D02*
X129500D01*
X98694Y287774D02*
X110484Y275984D01*
X110889D02*
X126588D01*
X90063Y287774D02*
X98694D01*
X127183Y274992D02*
Y275389D01*
Y274992D02*
X127675Y274500D01*
X126588Y275984D02*
X127183Y275389D01*
X139675Y279500D02*
X140167Y279008D01*
Y278611D02*
Y279008D01*
X137850Y279500D02*
X139675D01*
X140167Y278611D02*
X140762Y278016D01*
X144747D01*
X136025Y279500D02*
X137850D01*
X135533Y279008D02*
X136025Y279500D01*
X131817Y278611D02*
Y279008D01*
X135533Y278611D02*
Y279008D01*
X134938Y278016D02*
X135533Y278611D01*
X132412Y278016D02*
X134938D01*
X186572Y233177D02*
X187167Y232582D01*
X187464D02*
X188556Y231490D01*
Y231290D02*
Y231490D01*
X187167Y232582D02*
X187464D01*
X90847Y300648D02*
X91312Y301114D01*
X88781Y300648D02*
X90847D01*
X86369Y298236D02*
X88781Y300648D01*
X86369Y294342D02*
Y298236D01*
X127675Y279500D02*
X129500D01*
X127183Y279008D02*
X127675Y279500D01*
X131325D02*
X131817Y279008D01*
Y278611D02*
X132412Y278016D01*
X129500Y279500D02*
X131325D01*
X90905Y289806D02*
X99536D01*
X111326Y278016D01*
X86369Y294342D02*
X90905Y289806D01*
X127183Y278611D02*
Y279008D01*
X126588Y278016D02*
X127183Y278611D01*
X111326Y278016D02*
X126588D01*
X97492Y253384D02*
X110392Y240484D01*
X98334Y255416D02*
X111234Y242516D01*
X70423Y253384D02*
X97492D01*
X68914Y251875D02*
X70423Y253384D01*
X68304Y251875D02*
X68914D01*
X140167Y239889D02*
X140762Y240484D01*
X140167Y239492D02*
Y239889D01*
X136025Y239000D02*
X137850D01*
X132412Y240484D02*
X134938D01*
X135533Y239889D01*
X131817Y239492D02*
Y239889D01*
X135533Y239492D02*
X136025Y239000D01*
X135533Y239492D02*
Y239889D01*
X137850Y239000D02*
X139675D01*
X140167Y239492D01*
X162556Y231290D02*
Y231490D01*
X131817Y239889D02*
X132412Y240484D01*
X131325Y239000D02*
X131817Y239492D01*
X129500Y239000D02*
X131325D01*
X68238Y256828D02*
X68946D01*
X70357Y255416D01*
X98334D01*
X136025Y244000D02*
X137850D01*
X139675D01*
X140167Y243111D02*
Y243508D01*
X139675Y244000D02*
X140167Y243508D01*
X135533Y243111D02*
Y243508D01*
X136025Y244000D01*
X134938Y242516D02*
X135533Y243111D01*
X132412Y242516D02*
X134938D01*
X167167Y232582D02*
X167464D01*
X168556Y231290D02*
Y231490D01*
X167464Y232582D02*
X168556Y231490D01*
X140167Y243111D02*
X140762Y242516D01*
X131817Y243111D02*
Y243508D01*
Y243111D02*
X132412Y242516D01*
X129500Y244000D02*
X131325D01*
X131817Y243508D01*
X126588Y242516D02*
X127183Y243111D01*
Y239492D02*
Y239889D01*
Y239492D02*
X127675Y239000D01*
X126588Y240484D02*
X127183Y239889D01*
X110392Y240484D02*
X126588D01*
X127675Y239000D02*
X129500D01*
X127675Y244000D02*
X129500D01*
X111234Y242516D02*
X126588D01*
X127183Y243508D02*
X127675Y244000D01*
X127183Y243111D02*
Y243508D01*
X136025Y229000D02*
X137850D01*
X135533Y228508D02*
X136025Y229000D01*
X135533Y228111D02*
Y228508D01*
X131325Y229000D02*
X131817Y228508D01*
X129500Y229000D02*
X131325D01*
X131817Y228111D02*
X132412Y227516D01*
X131817Y228111D02*
Y228508D01*
X134938Y227516D02*
X135533Y228111D01*
X132412Y227516D02*
X134938D01*
X90762Y248012D02*
X91227Y247546D01*
X127183Y228508D02*
X127675Y229000D01*
X129500D01*
X126588Y227516D02*
X127183Y228111D01*
X91227Y245480D02*
X109192Y227516D01*
X91227Y245480D02*
Y247546D01*
X127183Y228111D02*
Y228508D01*
X109192Y227516D02*
X126588D01*
X134938Y225484D02*
X135533Y224889D01*
Y224492D02*
Y224889D01*
X132412Y225484D02*
X134938D01*
X135533Y224492D02*
X136025Y224000D01*
X131817Y224492D02*
Y224889D01*
X132412Y225484D01*
X131325Y224000D02*
X131817Y224492D01*
X129500Y224000D02*
X131325D01*
X136025D02*
X137850D01*
X87725Y244044D02*
X89790D01*
X87259Y244509D02*
X87725Y244044D01*
X127183Y224492D02*
Y224889D01*
X127675Y224000D02*
X129500D01*
X127183Y224492D02*
X127675Y224000D01*
X89790Y244044D02*
X108350Y225484D01*
X150665Y227516D02*
X156572Y221609D01*
Y219080D02*
Y221609D01*
Y219080D02*
X157167Y218485D01*
X157314D01*
X153056Y217743D02*
X153798Y218485D01*
X153945D02*
X154540Y219080D01*
X149823Y225484D02*
X154540Y220768D01*
X158056Y215993D02*
Y217743D01*
X153056Y215993D02*
Y217743D01*
X153798Y218485D02*
X153945D01*
X154540Y219080D02*
Y220768D01*
X157314Y218485D02*
X158056Y217743D01*
X140762Y227516D02*
X150665D01*
X140167Y224492D02*
Y224889D01*
Y228111D02*
X140762Y227516D01*
X137850Y229000D02*
X139675D01*
X140167Y228111D02*
Y228508D01*
X139675Y224000D02*
X140167Y224492D01*
X139675Y229000D02*
X140167Y228508D01*
X137850Y224000D02*
X139675D01*
X163056Y191243D02*
Y192993D01*
X162314Y190501D02*
X163056Y191243D01*
X162167Y190501D02*
X162314D01*
X161572Y189906D02*
X162167Y190501D01*
X196868Y91258D02*
X197496D01*
X195377Y89766D02*
X196868Y91258D01*
X192592Y89766D02*
X195377D01*
X158945Y190501D02*
X159540Y189906D01*
X158056Y191243D02*
X158798Y190501D01*
X158056Y191243D02*
Y192993D01*
X158798Y190501D02*
X158945D01*
X191751Y87734D02*
X195377D01*
X196867Y86244D02*
X197494D01*
X195377Y87734D02*
X196867Y86244D01*
X208385Y111734D02*
X213131D01*
X214591Y110274D02*
X215250D01*
X213131Y111734D02*
X214591Y110274D01*
X188468Y131651D02*
X208385Y111734D01*
X178798Y190501D02*
X178944D01*
X179540Y189906D01*
X178056Y191243D02*
Y192993D01*
Y191243D02*
X178798Y190501D01*
X214591Y115226D02*
X215250D01*
X213131Y113766D02*
X214591Y115226D01*
X209226Y113766D02*
X213131D01*
X183056Y191243D02*
Y192993D01*
X182314Y190501D02*
X183056Y191243D01*
X181572Y189906D02*
X182167Y190501D01*
X182314D01*
X187167Y224398D02*
X187464D01*
X186572Y223803D02*
X187167Y224398D01*
X186572Y221016D02*
Y223803D01*
X186572Y221016D02*
X186572Y221016D01*
X186572Y219080D02*
Y221016D01*
Y219080D02*
X187167Y218485D01*
X187314D01*
X188056Y217743D01*
X183056D02*
X183798Y218485D01*
X182556Y225490D02*
Y225690D01*
X184540Y221857D02*
X184540Y221857D01*
X187464Y224398D02*
X188556Y225490D01*
X184540Y221857D02*
Y223803D01*
X183648Y224398D02*
X183944D01*
X183944Y218485D02*
X184540Y219080D01*
X183056Y215993D02*
Y217743D01*
X188056Y215993D02*
Y217743D01*
X183798Y218485D02*
X183944D01*
X182556Y225490D02*
X183648Y224398D01*
X184540Y219080D02*
Y221857D01*
X188556Y225490D02*
Y225690D01*
X183944Y224398D02*
X184540Y223803D01*
X167167Y224398D02*
X167464D01*
X166572Y223803D02*
X167167Y224398D01*
X166572Y219080D02*
Y223803D01*
X168556Y225490D02*
Y225690D01*
X166572Y219080D02*
X167167Y218485D01*
X167464Y224398D02*
X168556Y225490D01*
X167167Y218485D02*
X167314D01*
X168056Y217743D01*
Y215993D02*
Y217743D01*
X163056D02*
X163798Y218485D01*
X163944D02*
X164540Y219080D01*
X163944Y224398D02*
X164540Y223803D01*
X162556Y225490D02*
X163648Y224398D01*
X163056Y215993D02*
Y217743D01*
X163798Y218485D02*
X163944D01*
X164540Y219080D02*
Y223803D01*
X163648Y224398D02*
X163944D01*
X162556Y225490D02*
Y225690D01*
D21*
X129500Y259500D02*
D03*
Y264500D02*
D03*
Y274500D02*
D03*
Y279500D02*
D03*
X137850D02*
D03*
Y274500D02*
D03*
Y264500D02*
D03*
Y259500D02*
D03*
X129500Y224000D02*
D03*
Y229000D02*
D03*
Y239000D02*
D03*
Y244000D02*
D03*
X137850D02*
D03*
Y239000D02*
D03*
Y229000D02*
D03*
Y224000D02*
D03*
D22*
X129500Y269500D02*
D03*
X137850D02*
D03*
X129500Y234000D02*
D03*
X137850D02*
D03*
D31*
X537000Y280000D02*
D03*
Y290000D02*
D03*
X76250Y356250D02*
D03*
Y366250D02*
D03*
X411750Y187250D02*
D03*
Y197250D02*
D03*
X205500Y190500D02*
D03*
Y180500D02*
D03*
D33*
X256550Y206500D02*
D03*
Y222500D02*
D03*
D35*
X474750Y126500D02*
D03*
X484750D02*
D03*
X307750Y54250D02*
D03*
X297750D02*
D03*
X299000Y21750D02*
D03*
X309000D02*
D03*
X252555Y247595D02*
D03*
X262555D02*
D03*
X262500Y236250D02*
D03*
X252500D02*
D03*
X206400Y250780D02*
D03*
X216400D02*
D03*
X237750Y250780D02*
D03*
X227750D02*
D03*
X237750Y210220D02*
D03*
X227750D02*
D03*
X237750Y200310D02*
D03*
X227750D02*
D03*
X206400Y210220D02*
D03*
X216400D02*
D03*
X206400Y200310D02*
D03*
X216400D02*
D03*
X206400Y220360D02*
D03*
X216400D02*
D03*
X206400Y230500D02*
D03*
X216400D02*
D03*
X237750Y220360D02*
D03*
X227750D02*
D03*
X237750Y230500D02*
D03*
X227750D02*
D03*
X237750Y240640D02*
D03*
X227750D02*
D03*
X206400D02*
D03*
X216400D02*
D03*
D39*
X310350Y38000D02*
D03*
X298150Y43000D02*
D03*
Y33000D02*
D03*
D97*
X250447Y48132D02*
X248987Y49592D01*
X248865Y52513D02*
X247405Y51053D01*
X248865Y49592D01*
X248987Y52513D02*
X250447Y53974D01*
X399080Y349434D02*
X400286Y348227D01*
X400667Y345814D02*
Y348227D01*
X400286Y345814D02*
X399080Y344608D01*
X447453Y353370D02*
X446246Y352163D01*
X443834Y352161D02*
X446246D01*
X443834Y352161D02*
X442627Y353368D01*
X157802Y330892D02*
Y329006D01*
X157990Y326932D02*
X157990Y328818D01*
X156104Y326932D02*
X157990D01*
X155916Y327120D02*
X154030D01*
X146177Y336017D02*
Y334131D01*
X146177Y332245D02*
X146177Y334131D01*
X144291Y332245D02*
X146177D01*
X144291Y332245D02*
X142405D01*
X391951Y267936D02*
X393412Y269397D01*
X396333Y269518D02*
X394872Y270979D01*
X393412Y269518D01*
X396333Y269397D02*
X397793Y267936D01*
X450476Y115772D02*
Y116483D01*
X449080Y114375D02*
X450476Y115772D01*
X445523D02*
X446921Y114375D01*
X445523Y115772D02*
Y116483D01*
X158870Y273859D02*
X166952Y265777D01*
X161029Y274753D02*
X167846Y267936D01*
X161029Y274753D02*
Y280074D01*
X158870Y273859D02*
Y280074D01*
X166952Y265777D02*
X249831D01*
X167846Y267936D02*
X248937D01*
X377657Y265777D02*
X403863D01*
X175933Y277363D02*
X176029Y277459D01*
X175933Y276108D02*
Y277363D01*
X176029Y277459D02*
Y280074D01*
X176584Y280629D01*
X176029Y285876D02*
X176584Y285321D01*
X175933Y276108D02*
X177330Y274711D01*
X176584Y280629D02*
X176899D01*
X176584Y285321D02*
X176899D01*
X176029Y294226D02*
X176584Y293671D01*
X176029Y285876D02*
Y288424D01*
X176584Y288979D01*
X176029Y297661D02*
X176080Y297711D01*
X176029Y294226D02*
Y297661D01*
X176080Y297711D02*
Y300830D01*
X176584Y288979D02*
X176899D01*
X176584Y293671D02*
X176899D01*
X176080Y300830D02*
X177500Y302250D01*
X176899Y288979D02*
X177450Y289530D01*
X177330Y274000D02*
Y274711D01*
X176899Y293671D02*
X177450Y293120D01*
Y289530D02*
Y291325D01*
Y293120D01*
X176899Y280629D02*
X177450Y281180D01*
Y282975D01*
Y284770D01*
X176899Y285321D02*
X177450Y284770D01*
X177500Y302250D02*
Y308750D01*
X172377Y274000D02*
Y274711D01*
X172450Y281180D02*
X173001Y280629D01*
X172450Y284770D02*
X173001Y285321D01*
X172450Y281180D02*
Y282975D01*
Y284770D01*
X172377Y274711D02*
X173775Y276108D01*
X173315Y280629D02*
X173871Y280074D01*
X173001Y280629D02*
X173315D01*
X172450Y291325D02*
Y293120D01*
Y289530D02*
X173001Y288979D01*
X172450Y289530D02*
Y291325D01*
Y293120D02*
X173001Y293671D01*
X173315D01*
X172500Y302250D02*
Y308750D01*
X173001Y288979D02*
X173315D01*
Y285321D02*
X173871Y285876D01*
X173001Y285321D02*
X173315D01*
X172500Y302250D02*
X173921Y300830D01*
X173315Y288979D02*
X173871Y288424D01*
X173775Y276108D02*
Y278257D01*
X173871Y285876D02*
Y288424D01*
X173315Y293671D02*
X173871Y294226D01*
Y298555D01*
X173775Y278257D02*
X173871Y278353D01*
Y280074D01*
Y298555D02*
X173921Y298605D01*
Y300830D01*
X612392Y303797D02*
X613789Y305194D01*
X560838Y267829D02*
X612897D01*
X613789Y300242D02*
X614500D01*
X614289Y264273D02*
X615000D01*
X612897Y267829D02*
X614294Y269226D01*
X553778Y271837D02*
X559944Y265671D01*
X555937Y272731D02*
X560838Y267829D01*
X612392Y301639D02*
X613789Y300242D01*
X559944Y265671D02*
X612892D01*
X590415Y301639D02*
X612392D01*
X612892Y265671D02*
X614289Y264273D01*
X614294Y269226D02*
X615006D01*
X613789Y305194D02*
X614500D01*
X557091Y338015D02*
X591309Y303797D01*
X612392D01*
X555564Y336488D02*
X590415Y301639D01*
X211079Y58495D02*
Y64330D01*
Y58495D02*
X212476Y57098D01*
Y56387D02*
Y57098D01*
X212500Y65750D02*
Y69894D01*
X211079Y64330D02*
X212500Y65750D01*
X208920Y58495D02*
Y64330D01*
X207500Y65750D02*
Y69000D01*
X207523Y57098D02*
X208920Y58495D01*
X207523Y56387D02*
Y57098D01*
X207500Y65750D02*
X208920Y64330D01*
X250447Y43731D02*
Y48132D01*
X248865Y49592D02*
X248987D01*
X248865Y52513D02*
X248987D01*
X250447Y53974D02*
Y57340D01*
Y59107D01*
X399080Y349434D02*
Y351750D01*
X400286Y348227D02*
X400667D01*
X400286Y345814D02*
X400667D01*
X399080Y341750D02*
Y344608D01*
Y351750D02*
Y354500D01*
Y316670D02*
Y341750D01*
X447453Y353370D02*
X451750D01*
X446246Y352161D02*
Y352163D01*
X443834Y352161D02*
Y352161D01*
X439769Y353368D02*
X442627D01*
X451750Y353370D02*
X517470D01*
X436671Y353368D02*
X439769D01*
X157802Y330892D02*
X162080Y335170D01*
X157802Y329006D02*
X157802Y329006D01*
X157990Y328818D01*
Y326932D02*
X157990Y326932D01*
X155916Y327120D02*
X156104Y326932D01*
X151830Y324920D02*
X154030Y327120D01*
X162080Y335170D02*
X164799Y337888D01*
X146080Y319169D02*
X151830Y324920D01*
X146177Y336017D02*
X159955Y349795D01*
X146177Y334131D02*
X146177Y334131D01*
X146177Y334131D01*
Y332245D02*
X146177Y332245D01*
X144291Y332245D02*
X144291Y332245D01*
X140205Y330045D02*
X142405Y332245D01*
X159955Y349795D02*
X163120Y352960D01*
X131080Y320919D02*
X140205Y330045D01*
X378829Y267936D02*
X391951D01*
X393412Y269397D02*
Y269518D01*
X396333Y269397D02*
Y269518D01*
X397793Y267936D02*
X401159D01*
X378551D02*
X378829D01*
X401159D02*
X402969D01*
X365329Y281159D02*
X378551Y267936D01*
X364434Y279000D02*
X377657Y265777D01*
X340356Y281159D02*
X365329D01*
X327133Y267936D02*
X340356Y281159D01*
X341250Y279000D02*
X364434D01*
X328027Y265777D02*
X341250Y279000D01*
X288394Y265777D02*
X328027D01*
X281998Y267936D02*
X327133D01*
X273881Y273000D02*
X281104Y265777D01*
X288394D01*
X274776Y275159D02*
X281998Y267936D01*
X408438Y273406D02*
Y280892D01*
X402969Y267936D02*
X408438Y273406D01*
X406949Y282382D02*
X408438Y280892D01*
X162500Y302250D02*
Y308750D01*
X162450Y291325D02*
Y293120D01*
X406949Y282382D02*
Y283000D01*
X161899Y293671D02*
X162450Y293120D01*
X161080Y300830D02*
X162500Y302250D01*
X162450Y289530D02*
Y291325D01*
X161899Y288979D02*
X162450Y289530D01*
X161584Y288979D02*
X161899D01*
X161080Y297711D02*
Y300830D01*
X161029Y294226D02*
Y297661D01*
X161080Y297711D01*
X161584Y293671D02*
X161899D01*
X161029Y288424D02*
X161584Y288979D01*
X161029Y294226D02*
X161584Y293671D01*
X161899Y285321D02*
X162450Y284770D01*
Y282975D02*
Y284770D01*
Y281180D02*
Y282975D01*
X161899Y280629D02*
X162450Y281180D01*
X161029Y285876D02*
X161584Y285321D01*
X161899D01*
X161029Y285876D02*
Y288424D01*
X161584Y280629D02*
X161899D01*
X161029Y280074D02*
X161584Y280629D01*
X410597Y272512D02*
Y280892D01*
X403863Y265777D02*
X410597Y272512D01*
X412088Y282382D02*
Y283000D01*
X158921Y298605D02*
Y300830D01*
X410597Y280892D02*
X412088Y282382D01*
X158870Y298555D02*
X158921Y298605D01*
X158870Y294226D02*
Y298555D01*
X157500Y302250D02*
X158921Y300830D01*
X158315Y293671D02*
X158870Y294226D01*
X158315Y288979D02*
X158870Y288424D01*
X158001Y288979D02*
X158315D01*
X157500Y302250D02*
Y308750D01*
X158001Y293671D02*
X158315D01*
X157450Y293120D02*
X158001Y293671D01*
X157450Y289530D02*
Y291325D01*
Y289530D02*
X158001Y288979D01*
X157450Y291325D02*
Y293120D01*
X158870Y285876D02*
Y288424D01*
X158315Y285321D02*
X158870Y285876D01*
X158315Y280629D02*
X158870Y280074D01*
X158001Y285321D02*
X158315D01*
X157450Y282975D02*
Y284770D01*
X158001Y285321D01*
X157450Y281180D02*
X158001Y280629D01*
X158315D01*
X157450Y281180D02*
Y282975D01*
X249831Y265777D02*
X257053Y273000D01*
X273881D01*
X248937Y267936D02*
X256159Y275159D01*
X274776D01*
X430476Y273000D02*
Y273711D01*
X425523D02*
X426921Y275108D01*
X425523Y273000D02*
Y273711D01*
X429080Y275108D02*
X430476Y273711D01*
X164799Y337888D02*
X179022D01*
X180419Y336492D01*
X181131D01*
X146080Y316670D02*
Y319169D01*
X147500Y308750D02*
Y315250D01*
X146080Y316670D02*
X147500Y315250D01*
X143921Y320064D02*
X163904Y340047D01*
X179022D01*
X180419Y341445D02*
X181131D01*
X179022Y340047D02*
X180419Y341445D01*
X143921Y316670D02*
Y320064D01*
X142500Y308750D02*
Y315250D01*
X143921Y316670D01*
X180680Y356539D02*
X181368D01*
X179260Y355119D02*
X180680Y356539D01*
X162226Y355119D02*
X179260D01*
X128921Y321814D02*
X162226Y355119D01*
X128921Y316670D02*
Y321814D01*
X127500Y308750D02*
Y315250D01*
X128921Y316670D01*
X179264Y352960D02*
X180683Y351540D01*
X163120Y352960D02*
X179264D01*
X180683Y351540D02*
X181372D01*
X131080Y316670D02*
Y320919D01*
X132500Y308750D02*
Y315250D01*
X131080Y316670D02*
X132500Y315250D01*
X188920Y298605D02*
Y300830D01*
X188920Y298605D02*
X188920Y298605D01*
X188920Y278488D02*
Y280174D01*
X188920Y278488D02*
X188920Y278488D01*
Y294326D02*
Y298605D01*
X188365Y293771D02*
X188920Y294326D01*
Y285976D02*
Y288524D01*
X188365Y280729D02*
X188920Y280174D01*
X188365Y289079D02*
X188920Y288524D01*
X188920Y276354D02*
Y278488D01*
X187500Y302250D02*
X188920Y300830D01*
X188051Y285421D02*
X188365D01*
X188920Y285976D01*
X188051Y289079D02*
X188365D01*
X187500Y302250D02*
Y308750D01*
X188051Y293771D02*
X188365D01*
X187500Y293220D02*
X188051Y293771D01*
X187500Y289630D02*
Y291425D01*
Y289630D02*
X188051Y289079D01*
X187500Y291425D02*
Y293220D01*
Y281280D02*
X188051Y280729D01*
X188365D01*
X187509Y274942D02*
X188920Y276354D01*
X187500Y283075D02*
Y284870D01*
Y281280D02*
Y283075D01*
Y284870D02*
X188051Y285421D01*
X187509Y274245D02*
Y274942D01*
X192500Y302250D02*
Y308750D01*
X191949Y285421D02*
X192500Y284870D01*
Y283075D02*
Y284870D01*
Y281280D02*
Y283075D01*
X191949Y280729D02*
X192500Y281280D01*
X191949Y293771D02*
X192500Y293220D01*
Y291425D02*
Y293220D01*
X191635Y293771D02*
X191949D01*
X192500Y289630D02*
Y291425D01*
X191949Y289079D02*
X192500Y289630D01*
X192491Y274245D02*
Y274942D01*
X191080Y300830D02*
X192500Y302250D01*
X191635Y289079D02*
X191949D01*
X191080Y285976D02*
X191635Y285421D01*
X191080Y297711D02*
Y300830D01*
X191080Y294326D02*
Y297711D01*
X191080Y297711D01*
X191080Y288524D02*
X191635Y289079D01*
X191080Y285976D02*
Y288524D01*
Y294326D02*
X191635Y293771D01*
Y285421D02*
X191949D01*
X191635Y280729D02*
X191949D01*
X191080Y276354D02*
X192491Y274942D01*
X191080Y280174D02*
X191635Y280729D01*
X191080Y277593D02*
Y280174D01*
X191080Y276354D02*
Y277593D01*
X191080Y277593D01*
X380649Y298000D02*
Y309496D01*
X385602Y298000D02*
Y308648D01*
X385500Y308750D02*
X385602Y308648D01*
X380500Y309644D02*
X380649Y309496D01*
X408462Y366936D02*
X528170D01*
X396921Y355395D02*
X408462Y366936D01*
X396921Y316670D02*
Y355395D01*
X409357Y364777D02*
X527276D01*
X399080Y354500D02*
X409357Y364777D01*
X424941Y341637D02*
X436671Y353368D01*
X422782Y342532D02*
X435777Y355527D01*
X424941Y333111D02*
Y341637D01*
X422782Y334005D02*
Y342532D01*
X435777Y355527D02*
X441973D01*
X557313Y339022D02*
Y339802D01*
X557091Y338800D02*
X557313Y339022D01*
X553995Y342340D02*
X554775D01*
X556044Y341071D01*
X553773Y342118D02*
X553995Y342340D01*
X557091Y338015D02*
Y338800D01*
X556044Y341071D02*
X557313Y339802D01*
X548871Y348245D02*
X550140Y346975D01*
X551409Y345706D01*
X548091Y348245D02*
X548871D01*
X551409Y344927D02*
Y345706D01*
X551187Y344704D02*
X551409Y344927D01*
X528170Y366936D02*
X547084Y348022D01*
X547869D02*
X548091Y348245D01*
X547084Y348022D02*
X547869D01*
X551187Y343919D02*
Y344704D01*
X552988Y342118D02*
X553773D01*
X551187Y343919D02*
X552988Y342118D01*
X395500Y308750D02*
Y315250D01*
X396921Y316670D01*
X554780Y336488D02*
X555564D01*
X554557Y336266D02*
X554780Y336488D01*
X551461Y339807D02*
Y340592D01*
X551239Y338805D02*
X552509Y337536D01*
X551239Y339584D02*
X551461Y339807D01*
X553778Y336266D02*
X554557D01*
X552509Y337536D02*
X553778Y336266D01*
X545335Y344709D02*
X546604Y343440D01*
X547873Y342171D01*
X545335Y345489D02*
X545557Y345711D01*
X548875Y342393D02*
X549660D01*
X547873Y342171D02*
X548653D01*
X527276Y364777D02*
X545557Y346496D01*
Y345711D02*
Y346496D01*
X545335Y344709D02*
Y345489D01*
X548653Y342171D02*
X548875Y342393D01*
X549660D02*
X551461Y340592D01*
X551239Y338805D02*
Y339584D01*
X400500Y308750D02*
Y315250D01*
X399080Y316670D02*
X400500Y315250D01*
X441975Y355529D02*
X518364D01*
X441973Y355527D02*
X441975Y355529D01*
X411921Y323144D02*
X422782Y334005D01*
X546707Y328416D02*
Y329195D01*
X546485Y327408D02*
X549421Y324472D01*
X546485Y328193D02*
X546707Y328416D01*
X549422Y324472D02*
X555937Y317957D01*
Y272731D02*
Y317957D01*
X549421Y324472D02*
X549422D01*
X543389Y331734D02*
X544168D01*
X545438Y330465D01*
X543167Y331511D02*
X543389Y331734D01*
X545438Y330465D02*
X546707Y329195D01*
X546485Y327408D02*
Y328193D01*
X542382Y331511D02*
X543167D01*
X537484Y337638D02*
X538264D01*
X539533Y336369D01*
X537262Y337416D02*
X537484Y337638D01*
X540802Y334320D02*
Y335099D01*
X540580Y334098D02*
X540802Y334320D01*
X539533Y336369D02*
X540802Y335099D01*
X518364Y355529D02*
X536477Y337416D01*
X537262D01*
X540580Y333313D02*
Y334098D01*
Y333313D02*
X542382Y331511D01*
X411921Y316670D02*
Y323144D01*
X410500Y312894D02*
Y315250D01*
X411921Y316670D01*
X414080Y322250D02*
X424941Y333111D01*
X544173Y325882D02*
X544958D01*
X548527Y322313D01*
X543951Y325660D02*
X544173Y325882D01*
X548527Y322313D02*
X553778Y317062D01*
Y271837D02*
Y317062D01*
X548527Y322313D02*
X548527D01*
X540855Y329200D02*
Y329985D01*
X540633Y328198D02*
Y328978D01*
X540855Y329200D01*
X543171Y325660D02*
X543951D01*
X541902Y326929D02*
X543171Y325660D01*
X534951Y335104D02*
Y335889D01*
X534728Y334103D02*
X535998Y332833D01*
X534728Y334882D02*
X534951Y335104D01*
X538269Y331786D02*
X539054D01*
X537267Y331564D02*
X538046D01*
X535998Y332833D02*
X537267Y331564D01*
X517470Y353370D02*
X534951Y335889D01*
X534728Y334103D02*
Y334882D01*
X538046Y331564D02*
X538269Y331786D01*
X539054D02*
X540855Y329985D01*
X540633Y328198D02*
X541902Y326929D01*
X414080Y316670D02*
Y322250D01*
X415500Y312000D02*
Y315250D01*
X414080Y316670D02*
X415500Y315250D01*
X365500Y308750D02*
Y315250D01*
Y307856D02*
Y308750D01*
X365524Y319539D02*
Y320250D01*
Y319539D02*
X366921Y318142D01*
X365500Y315250D02*
X366921Y316670D01*
X369080Y316670D02*
X370500Y315250D01*
X369080Y318142D02*
X370477Y319539D01*
X366921Y316670D02*
Y318142D01*
X370477Y319539D02*
Y320250D01*
X369080Y316670D02*
Y318142D01*
X370500Y308750D02*
Y315250D01*
X430500Y286555D02*
Y288350D01*
Y280000D02*
Y281795D01*
X429949Y286004D02*
X430500Y286555D01*
Y302250D02*
Y308750D01*
X429949Y290696D02*
X430500Y290145D01*
Y288350D02*
Y290145D01*
X429080Y300830D02*
X430500Y302250D01*
X429635Y286004D02*
X429949D01*
X429080Y291251D02*
X429635Y290696D01*
X429080Y291251D02*
Y300830D01*
X429635Y290696D02*
X429949D01*
X429080Y285449D02*
X429635Y286004D01*
X429949Y282346D02*
X430500Y281795D01*
X429080Y282901D02*
Y285449D01*
X429635Y282346D02*
X429949D01*
X429080Y282901D02*
X429635Y282346D01*
X426921Y282901D02*
Y285449D01*
X426365Y286004D02*
X426921Y285449D01*
Y291251D02*
Y300830D01*
X426365Y290696D02*
X426921Y291251D01*
X426051Y282346D02*
X426365D01*
X426051Y286004D02*
X426365D01*
Y282346D02*
X426921Y282901D01*
X425500Y302250D02*
X426921Y300830D01*
X426051Y290696D02*
X426365D01*
X425500Y286555D02*
X426051Y286004D01*
X425500Y290145D02*
X426051Y290696D01*
X425500Y302250D02*
Y308750D01*
Y286555D02*
Y288350D01*
Y290145D01*
Y281795D02*
X426051Y282346D01*
X425500Y280000D02*
Y281795D01*
X426921Y275108D02*
Y277099D01*
X426365Y277654D02*
X426921Y277099D01*
X426051Y277654D02*
X426365D01*
X429949D02*
X430500Y278205D01*
X429080Y277099D02*
X429635Y277654D01*
X425500Y278205D02*
Y280000D01*
X430500Y278205D02*
Y280000D01*
X429635Y277654D02*
X429949D01*
X429080Y275108D02*
Y277099D01*
X425500Y278205D02*
X426051Y277654D01*
X222500Y65750D02*
X223920Y64330D01*
X226079D02*
X227500Y65750D01*
Y72250D01*
X222523Y60461D02*
X223920Y61858D01*
X222500Y65750D02*
Y72250D01*
X226079Y61858D02*
X227476Y60461D01*
X222523Y59750D02*
Y60461D01*
X223920Y61858D02*
Y64330D01*
X227476Y59750D02*
Y60461D01*
X226079Y61858D02*
Y64330D01*
X258574Y64181D02*
X281456D01*
X257680Y66340D02*
X280562D01*
X237500Y65750D02*
Y72250D01*
Y65750D02*
X238920Y64330D01*
X252606Y58213D02*
X258574Y64181D01*
X246055Y36285D02*
X252606Y42837D01*
X238920Y58064D02*
Y64330D01*
X252606Y42837D02*
Y58213D01*
X230777Y49921D02*
X238920Y58064D01*
X230777Y42772D02*
X237264Y36285D01*
X246055D01*
X230777Y42772D02*
Y49921D01*
X250447Y59107D02*
X257680Y66340D01*
X245161Y38444D02*
X250447Y43731D01*
X238159Y38444D02*
X245161D01*
X242500Y65750D02*
Y72250D01*
X241079Y57169D02*
Y64330D01*
X242500Y65750D01*
X232936Y43666D02*
Y49026D01*
Y43666D02*
X238159Y38444D01*
X232936Y49026D02*
X241079Y57169D01*
X283897Y66622D02*
X285873D01*
X282370Y68148D02*
Y70124D01*
X285873Y66622D02*
X286376Y67125D01*
X281456Y64181D02*
X283897Y66622D01*
X282370Y70124D02*
X282873Y70627D01*
X280562Y66340D02*
X282370Y68148D01*
X511404Y112778D02*
X516437Y117810D01*
X510509Y114937D02*
X514277Y118705D01*
X468139Y112778D02*
X511404D01*
X465500Y90000D02*
Y91795D01*
Y88205D02*
Y90000D01*
Y96555D02*
Y98350D01*
X464949Y100696D02*
X465500Y100145D01*
X464080Y108719D02*
X468139Y112778D01*
X465500Y98350D02*
Y100145D01*
X464949Y96004D02*
X465500Y96555D01*
X464635Y96004D02*
X464949D01*
X464080Y101251D02*
X464635Y100696D01*
X464949D01*
X464080Y101251D02*
Y108719D01*
Y92901D02*
Y95449D01*
Y92901D02*
X464635Y92346D01*
X464080Y95449D02*
X464635Y96004D01*
X464949Y92346D02*
X465500Y91795D01*
X464949Y87654D02*
X465500Y88205D01*
X464079Y80170D02*
X465500Y78750D01*
Y72250D02*
Y78750D01*
X464635Y92346D02*
X464949D01*
X464635Y87654D02*
X464949D01*
X464080Y87099D02*
X464635Y87654D01*
X464080Y82395D02*
Y87099D01*
X464079Y80170D02*
Y82395D01*
X464080Y82395D01*
X467244Y114937D02*
X510509D01*
X461921Y109613D02*
X467244Y114937D01*
X461921Y92901D02*
Y95449D01*
Y83289D02*
Y87099D01*
Y101251D02*
Y109613D01*
X461365Y100696D02*
X461921Y101251D01*
X461051Y96004D02*
X461365D01*
X461921Y95449D01*
X461365Y92346D02*
X461921Y92901D01*
X461051Y92346D02*
X461365D01*
X461051Y100696D02*
X461365D01*
X460500Y98350D02*
Y100145D01*
X461051Y100696D01*
X460500Y96555D02*
X461051Y96004D01*
X460500Y91795D02*
X461051Y92346D01*
X460500Y96555D02*
Y98350D01*
X461365Y87654D02*
X461921Y87099D01*
X461920Y83289D02*
X461921Y83289D01*
X461920Y80170D02*
Y83289D01*
X460500Y78750D02*
X461920Y80170D01*
X460500Y88205D02*
Y90000D01*
Y88205D02*
X461051Y87654D01*
X460500Y90000D02*
Y91795D01*
X461051Y87654D02*
X461365D01*
X460500Y72250D02*
Y78750D01*
X514277Y118705D02*
Y123392D01*
X512881Y124789D02*
X514277Y123392D01*
X512881Y124789D02*
Y125500D01*
X516437Y117810D02*
Y123392D01*
X517834Y124789D01*
Y125500D01*
X479080Y106229D02*
X479600Y106750D01*
X476921Y107123D02*
X478706Y108909D01*
X479600Y106750D02*
X488930D01*
X476921Y101251D02*
Y107123D01*
X479080Y101251D02*
Y106229D01*
X478706Y108909D02*
X489825D01*
X488930Y106750D02*
X500529Y95151D01*
X489825Y108909D02*
X502056Y96678D01*
X450500Y90000D02*
Y91795D01*
Y96555D02*
Y98350D01*
Y100145D01*
X449949Y100696D02*
X450500Y100145D01*
X449635Y96004D02*
X449949D01*
X449080Y101251D02*
Y114375D01*
X449635Y100696D02*
X449949D01*
X449080Y101251D02*
X449635Y100696D01*
X449949Y96004D02*
X450500Y96555D01*
X449949Y92346D02*
X450500Y91795D01*
X449080Y92901D02*
Y95449D01*
X449635Y96004D01*
Y92346D02*
X449949D01*
X449080Y92901D02*
X449635Y92346D01*
X446921Y92901D02*
Y95449D01*
X446365Y92346D02*
X446921Y92901D01*
Y101251D02*
Y114375D01*
X446365Y100696D02*
X446921Y101251D01*
X446365Y96004D02*
X446921Y95449D01*
X446051Y92346D02*
X446365D01*
X446051Y100696D02*
X446365D01*
X445500Y100145D02*
X446051Y100696D01*
X445500Y96555D02*
Y98350D01*
Y100145D01*
X446051Y96004D02*
X446365D01*
X445500Y91795D02*
X446051Y92346D01*
X445500Y96555D02*
X446051Y96004D01*
X445500Y90000D02*
Y91795D01*
X450500Y88205D02*
Y90000D01*
X449949Y87654D02*
X450500Y88205D01*
X449080Y87099D02*
X449635Y87654D01*
X449079Y80170D02*
X450500Y78750D01*
X446920Y80170D02*
Y83289D01*
X450500Y72250D02*
Y78750D01*
X446921Y83289D02*
Y87099D01*
X449080Y82395D02*
Y87099D01*
X446365Y87654D02*
X446921Y87099D01*
X449635Y87654D02*
X449949D01*
X446051D02*
X446365D01*
X449079Y82395D02*
X449080Y82395D01*
X445500Y88205D02*
X446051Y87654D01*
X445500Y78750D02*
X446920Y80170D01*
X445500Y72250D02*
Y78750D01*
X445500Y88205D02*
Y90000D01*
X446920Y83289D02*
X446921Y83289D01*
X449079Y80170D02*
Y82395D01*
X480500Y96555D02*
Y98350D01*
X500529Y93175D02*
X501032Y92673D01*
X500529Y93175D02*
Y95151D01*
X480500Y88205D02*
Y90000D01*
X479635Y100696D02*
X479949D01*
X480500Y100145D01*
Y98350D02*
Y100145D01*
X479949Y96004D02*
X480500Y96555D01*
X479635Y96004D02*
X479949D01*
X479080Y101251D02*
X479635Y100696D01*
X479080Y92901D02*
Y95449D01*
Y92901D02*
X479635Y92346D01*
X479080Y95449D02*
X479635Y96004D01*
X480500Y90000D02*
Y91795D01*
X479949Y87654D02*
X480500Y88205D01*
X479949Y92346D02*
X480500Y91795D01*
X479079Y80170D02*
X480500Y78750D01*
Y72250D02*
Y78750D01*
X479635Y92346D02*
X479949D01*
X479635Y87654D02*
X479949D01*
X479080Y87099D02*
X479635Y87654D01*
X479080Y82395D02*
Y87099D01*
X479079Y80170D02*
Y82395D01*
X479080Y82395D01*
X504032Y96678D02*
X504535Y96175D01*
X502056Y96678D02*
X504032D01*
X476921Y92901D02*
Y95449D01*
X476365Y100696D02*
X476921Y101251D01*
X476051Y96004D02*
X476365D01*
X476921Y95449D01*
X476365Y92346D02*
X476921Y92901D01*
X476051Y92346D02*
X476365D01*
X476051Y100696D02*
X476365D01*
X475500Y98350D02*
Y100145D01*
X476051Y100696D01*
X475500Y96555D02*
X476051Y96004D01*
X475500Y91795D02*
X476051Y92346D01*
X475500Y96555D02*
Y98350D01*
X476921Y83289D02*
Y87099D01*
X476920Y83289D02*
X476921Y83289D01*
X476365Y87654D02*
X476921Y87099D01*
X476920Y80170D02*
Y83289D01*
X475500Y78750D02*
X476920Y80170D01*
X475500Y90000D02*
Y91795D01*
Y88205D02*
Y90000D01*
Y88205D02*
X476051Y87654D01*
X476365D01*
X475500Y72250D02*
Y78750D01*
D98*
X108000Y181250D02*
D03*
X79750Y337250D02*
D03*
X60000Y339500D02*
D03*
X63750Y362500D02*
D03*
X536750Y19750D02*
D03*
X69000Y45000D02*
D03*
X129500Y93750D02*
D03*
X445500Y241500D02*
D03*
X221750Y283250D02*
D03*
X398751Y103174D02*
D03*
X331752Y85000D02*
D03*
X370750Y94250D02*
D03*
X350393Y95547D02*
D03*
X255250Y140000D02*
D03*
X367000Y156750D02*
D03*
X234250Y152500D02*
D03*
X218250Y137750D02*
D03*
X516000Y307000D02*
D03*
X445500Y261875D02*
D03*
X242000Y95000D02*
D03*
X261750Y290750D02*
D03*
X521500Y291000D02*
D03*
X230836Y121628D02*
D03*
X47242Y323731D02*
D03*
X148812Y111510D02*
D03*
X416562Y91934D02*
D03*
X303500Y253000D02*
D03*
X124250Y194000D02*
D03*
X378987Y139250D02*
D03*
X535750Y309250D02*
D03*
X349750Y208500D02*
D03*
X326000Y65250D02*
D03*
X553964Y363286D02*
D03*
D100*
X483905Y293718D02*
X486645Y293988D01*
X489280Y294788D01*
X491708Y296087D01*
X493835Y297835D01*
X475500Y299204D02*
X476676Y296365D01*
X477689Y295353D02*
X479497Y294141D01*
X481633Y293718D01*
X188056Y192993D02*
X188671Y192378D01*
Y189515D02*
X197686Y180500D01*
X205500D01*
X188671Y189515D02*
Y192378D01*
X69854Y368604D02*
X120924D01*
X80250Y337750D02*
Y348157D01*
X80994Y348901D02*
X116599D01*
X80250Y348157D02*
X80994Y348901D01*
X116599D02*
X120125Y345375D01*
X470250Y132250D02*
X474135Y136135D01*
X441000Y132250D02*
X470250D01*
X419839Y111089D02*
X441000Y132250D01*
X464600Y150415D02*
Y155950D01*
X448250Y147250D02*
X461435D01*
X416000Y115000D02*
X448250Y147250D01*
X461435D02*
X464600Y150415D01*
X167834Y206970D02*
X169696Y205108D01*
X170072Y204976D02*
X170556Y204493D01*
X171230Y205167D01*
X156518Y206970D02*
X167834D01*
X170072Y204976D02*
Y205485D01*
X172079Y205250D02*
X184206D01*
X170389Y205167D02*
X171313D01*
X184206Y205250D02*
X184289Y205167D01*
X152441Y193749D02*
X153056Y193134D01*
Y192993D02*
Y193134D01*
X142885Y193749D02*
X152441D01*
X389250Y183000D02*
X389750D01*
X390250Y182500D01*
X389250Y183500D02*
X389750Y183000D01*
X403250Y187553D02*
X403408Y187711D01*
X403250Y183244D02*
Y187553D01*
X390250Y182500D02*
X402506D01*
X403250Y183244D01*
X221731Y176349D02*
X387099D01*
X389250Y178500D02*
Y183000D01*
X387099Y176349D02*
X389250Y178500D01*
X402263Y173000D02*
X410750Y181487D01*
Y188000D01*
X216208Y173000D02*
X402263D01*
X417045Y203340D02*
X417580Y202806D01*
X413750Y204345D02*
X414755Y203340D01*
X413750Y204345D02*
Y211250D01*
X414755Y203340D02*
X417045D01*
X218626Y158075D02*
Y158126D01*
X428358Y163500D02*
X454000Y189142D01*
X230894Y152356D02*
X260894D01*
X321337Y160250D02*
X324532Y157054D01*
X226300Y160112D02*
X263888D01*
X265250Y148000D02*
X276000D01*
X225993Y159805D02*
X226300Y160112D01*
X425500Y166500D02*
X449750Y190750D01*
X218626Y158126D02*
X224000Y163500D01*
X221250Y166500D02*
X425500D01*
X276000Y148000D02*
X288250Y160250D01*
X260894Y152356D02*
X265250Y148000D01*
X288250Y160250D02*
X321337D01*
X213500Y158750D02*
X221250Y166500D01*
X266885Y157115D02*
X268135D01*
X224000Y163500D02*
X428358D01*
X263888Y160112D02*
X266885Y157115D01*
X324532Y148193D02*
Y157054D01*
X380737Y205275D02*
X381664Y204349D01*
X380737Y205275D02*
Y215173D01*
X386500Y220936D01*
X393589Y204349D02*
X396887Y201051D01*
X407199D01*
X381664Y204349D02*
X393589D01*
X367500Y210297D02*
Y222500D01*
X386500Y220936D02*
Y237500D01*
X413750Y211250D02*
X420500D01*
X418985Y192485D02*
X424500Y198000D01*
X367500Y195500D02*
Y202500D01*
X421500Y206750D02*
X424500Y203750D01*
X378250Y245750D02*
X386500Y237500D01*
X420500Y211250D02*
X421500Y210250D01*
X403586Y204991D02*
Y216415D01*
X370515Y192485D02*
X418985D01*
X424500Y198000D02*
Y203750D01*
X367500Y195500D02*
X370515Y192485D01*
X421500Y206750D02*
Y210250D01*
X394750Y225250D02*
X403586Y216415D01*
X398615Y241885D02*
Y242885D01*
Y241885D02*
X408500Y232000D01*
X395250Y246250D02*
X398615Y242885D01*
X394250Y246250D02*
X395250D01*
X347000Y246750D02*
Y255000D01*
X390500Y60250D02*
Y72250D01*
X390500Y60250D02*
X390500Y60250D01*
X493835Y297835D02*
X503000Y307000D01*
X516000D01*
X429000Y237000D02*
Y256000D01*
X416347Y268654D02*
Y274625D01*
Y268654D02*
X429000Y256000D01*
X424000Y232000D02*
X429000Y237000D01*
X408500Y232000D02*
X424000D01*
X618689Y230855D02*
Y252877D01*
X483897Y293718D02*
X483905Y293718D01*
X476676Y296365D02*
X477689Y295353D01*
X475500Y299204D02*
X475500D01*
Y308750D01*
X481633Y293718D02*
X483897D01*
X481633Y293718D02*
Y293718D01*
X67862Y332500D02*
X70418Y335056D01*
X56687Y332500D02*
X67862D01*
X47918Y323731D02*
X56687Y332500D01*
X320804Y144464D02*
X324532Y148193D01*
X616250Y136750D02*
X617865Y138365D01*
Y145564D02*
X618812Y146511D01*
Y234000D01*
X613933Y136750D02*
X616250D01*
X617865Y138365D02*
Y145564D01*
X618689Y252877D02*
X618812Y253000D01*
X617865Y252053D02*
X618689Y252877D01*
Y277448D01*
X613900Y282236D02*
Y284750D01*
Y279723D02*
Y282236D01*
X618032Y230198D02*
X618689Y230855D01*
X613900Y282236D02*
X618689Y277448D01*
X613900Y279723D02*
X614951Y278672D01*
Y274179D02*
Y278672D01*
X615000Y246731D02*
X617865Y249596D01*
X614530Y246262D02*
X615000Y246731D01*
Y255756D01*
X615009Y255765D01*
Y259321D01*
X617865Y249596D02*
Y252053D01*
X618812Y253000D02*
Y279838D01*
X613900Y284750D02*
X618812Y279838D01*
X614500Y320506D02*
X616470Y322476D01*
X614500Y310147D02*
Y320506D01*
X614054Y284904D02*
X618812Y289662D01*
X613900Y284750D02*
X614054Y284904D01*
Y295143D02*
X614209Y295297D01*
X614054Y284904D02*
Y295143D01*
X616470Y322476D02*
X618812Y320134D01*
X616470Y322476D02*
Y323507D01*
X618812Y289662D02*
Y320134D01*
X305804Y104989D02*
X306683Y104110D01*
X303000Y102347D02*
Y102584D01*
X305804Y104989D02*
Y111089D01*
X306683Y100095D02*
Y104110D01*
X120125Y336625D02*
Y345375D01*
X120016Y350984D02*
X137534D01*
X435500Y280000D02*
Y297750D01*
Y280000D02*
X435500Y280000D01*
X435500Y273000D02*
Y280000D01*
X84933Y364433D02*
X106567D01*
X120016Y350984D01*
X298924Y97936D02*
X300873Y99885D01*
X298724Y97936D02*
X298924D01*
X300873Y99885D02*
Y100220D01*
X304524Y97936D02*
X306683Y100095D01*
X300873Y100220D02*
X303000Y102347D01*
X304324Y97936D02*
X304524D01*
X353589Y142339D02*
X353750Y142500D01*
X340804Y142339D02*
X353589D01*
X453083Y251167D02*
X557167D01*
X562331Y256331D02*
X566371D01*
X557167Y251167D02*
X562331Y256331D01*
X435500Y297750D02*
Y308750D01*
X490000Y186750D02*
X493073Y189823D01*
Y199632D01*
X495329Y201888D02*
Y201888D01*
X493073Y199632D02*
X495329Y201888D01*
X500559Y205683D02*
X500707Y205535D01*
X464000Y205683D02*
X500559D01*
X502165Y205535D02*
X502700Y205000D01*
X500707Y205535D02*
X502165D01*
X457750Y199433D02*
X464000Y205683D01*
X432250Y208750D02*
X437250D01*
X429750Y211250D02*
X432250Y208750D01*
X489744Y126000D02*
X490723Y125021D01*
X485250Y126000D02*
X489744D01*
X490723Y125021D02*
X491479D01*
X552707Y190681D02*
X558232D01*
X539559Y169980D02*
X547079Y177500D01*
X457968Y216385D02*
X461185D01*
X444750Y203167D02*
X457968Y216385D01*
X444750Y192750D02*
Y203167D01*
X459004Y243734D02*
X474266D01*
X455250Y239980D02*
X459004Y243734D01*
X455250Y219250D02*
Y239980D01*
X474266Y243734D02*
X477050Y240950D01*
X559350Y247401D02*
X561501Y245251D01*
X451401Y247401D02*
X559350D01*
X445500Y241500D02*
X451401Y247401D01*
X445500Y258750D02*
X453083Y251167D01*
X221750Y283250D02*
X276000D01*
X285250Y274000D01*
X315750D01*
X416347Y274625D02*
X420933Y279211D01*
X331500Y289750D02*
X408500D01*
X315750Y274000D02*
X331500Y289750D01*
X410250Y198000D02*
X410750D01*
X407199Y201051D02*
X410250Y198000D01*
X449750Y190750D02*
Y202750D01*
X420943Y183193D02*
Y183484D01*
X218048Y169798D02*
X407548D01*
X420943Y183193D01*
X213545Y170337D02*
X216208Y173000D01*
X509067Y162317D02*
X548067D01*
X556750Y171000D02*
X581705D01*
X548067Y162317D02*
X556750Y171000D01*
X523712Y168874D02*
X546724Y191886D01*
X480465Y159465D02*
X489874Y168874D01*
X523712D01*
X502700Y155950D02*
X509067Y162317D01*
X480802Y172153D02*
X520153D01*
X527621Y165595D02*
X552707Y190681D01*
X499645Y165595D02*
X527621D01*
X464600Y155950D02*
X480802Y172153D01*
X520153D02*
X546436Y198436D01*
X490000Y155950D02*
X499645Y165595D01*
X611486Y230486D02*
X613486D01*
X573000Y202500D02*
X583500D01*
X613486Y230486D02*
X614000Y231000D01*
X583500Y202500D02*
X611486Y230486D01*
X573000Y190000D02*
X573911Y190911D01*
X582661D02*
X613932Y222183D01*
X573911Y190911D02*
X582661D01*
X613932Y222183D02*
Y225958D01*
X124250Y194000D02*
Y195062D01*
X129724Y200536D01*
Y201293D01*
X584388Y176391D02*
X584548Y176551D01*
X584388Y173683D02*
Y176391D01*
X581705Y171000D02*
X584388Y173683D01*
X549667Y194694D02*
X550423D01*
X546724Y191886D02*
X546835D01*
X548542Y193570D02*
X549667Y194694D01*
X546835Y191886D02*
X548520Y193570D01*
X548542D01*
X546436Y198436D02*
X558124D01*
X558178Y198382D01*
X605000Y246000D02*
X605262Y246262D01*
X614530D01*
X599595Y246000D02*
X605000D01*
X599110Y246484D02*
X599595Y246000D01*
X547079Y177500D02*
X573000D01*
X598250Y154500D02*
X606000Y162250D01*
Y186000D01*
X600500Y191500D02*
X606000Y186000D01*
X429933Y159000D02*
X453487Y182554D01*
X371612Y159000D02*
X429933D01*
X369362Y156750D02*
X371612Y159000D01*
X320804Y142339D02*
Y144464D01*
X453487Y182554D02*
Y182554D01*
X412214Y124214D02*
X457750Y169750D01*
Y199433D01*
X454000Y189142D02*
Y201250D01*
X215000Y166654D02*
Y166750D01*
X218048Y169798D01*
X400500Y83000D02*
Y91500D01*
X398751Y93249D02*
Y103174D01*
Y93249D02*
X400500Y91500D01*
Y72250D02*
Y83000D01*
X375500Y72250D02*
Y85500D01*
X383500Y93500D02*
Y101750D01*
X375500Y85500D02*
X383500Y93500D01*
X147500Y57538D02*
X150623Y54414D01*
X147500Y57538D02*
Y72250D01*
X152250Y59500D02*
X152375Y59625D01*
Y72125D01*
X152500Y72250D01*
X535750Y291000D02*
X535750Y291000D01*
X521500Y291000D02*
X535750D01*
X167500Y61250D02*
X167500Y61250D01*
Y72250D01*
X76750Y356250D02*
X84933Y364433D01*
X76250Y356250D02*
X76750D01*
X120924Y368604D02*
X121139Y368389D01*
X63750Y362500D02*
X69854Y368604D01*
X60161Y347161D02*
X67500Y354500D01*
X60000Y339500D02*
X60161Y339661D01*
Y347161D01*
X47242Y323731D02*
X47918D01*
X79750Y337250D02*
X80250Y337750D01*
X341429Y124214D02*
X412214D01*
X462000Y209250D02*
X492150D01*
X500900Y218000D01*
X454000Y201250D02*
X462000Y209250D01*
X449750Y202750D02*
X459250Y212250D01*
X482450D01*
X477050Y227750D02*
Y240950D01*
X440250Y204250D02*
X455250Y219250D01*
X440250Y187500D02*
Y204250D01*
X461185Y216385D02*
X464350Y219550D01*
X327500Y65250D02*
X330500Y68250D01*
X326000Y65250D02*
X327500D01*
X211954Y176954D02*
X213158Y175750D01*
X209750Y166612D02*
X213475Y170337D01*
X213545D01*
X206000Y171000D02*
X211954Y176954D01*
X209750Y156000D02*
Y166612D01*
X213158Y175750D02*
X213750D01*
X206000Y132500D02*
Y171000D01*
Y132500D02*
X213500Y125000D01*
X209750Y156000D02*
X214000Y151750D01*
X490000Y267000D02*
Y286000D01*
X489750Y266750D02*
X490000Y267000D01*
X222309Y154017D02*
X222844Y153482D01*
X230217D01*
X413214Y119214D02*
X464600Y170600D01*
X341429Y119214D02*
X413214D01*
X464600Y170600D02*
Y194950D01*
X484750Y126500D02*
X485250Y126000D01*
X566371Y256331D02*
X566906Y256865D01*
X502700Y186750D02*
Y205000D01*
X215037Y183043D02*
X221731Y176349D01*
X445500Y295250D02*
Y308750D01*
Y288350D02*
Y295250D01*
X408500Y289750D02*
X414000Y295250D01*
X139734Y60548D02*
X139745D01*
X137500Y62782D02*
X139734Y60548D01*
X137500Y62782D02*
Y72250D01*
X147500Y72250D02*
X147500Y72250D01*
X339250Y199994D02*
X339994Y199250D01*
X339250Y199994D02*
Y216750D01*
X339994Y199250D02*
X340000D01*
X339250Y216750D02*
X348000Y225500D01*
Y226000D01*
X335804Y149804D02*
X342750Y156750D01*
X369362D01*
X500900Y218000D02*
X502450D01*
X482450Y212250D02*
X489750Y219550D01*
X474135Y136135D02*
Y144585D01*
X480465Y150915D01*
X218250Y137750D02*
X223125Y142625D01*
X218250Y137750D02*
Y137750D01*
X223125Y142625D02*
Y145625D01*
X215037Y183043D02*
Y183097D01*
X230217Y153482D02*
X230894Y152806D01*
Y152356D02*
Y152806D01*
X220135Y274455D02*
X220891D01*
X217839Y276750D02*
X220135Y274455D01*
X204250Y276750D02*
X217839D01*
X207500Y283075D02*
X207865Y282710D01*
X207500Y283075D02*
Y308750D01*
X216146Y279089D02*
X220307Y283250D01*
X207865Y280885D02*
X209661Y279089D01*
X220307Y283250D02*
X221750D01*
X209661Y279089D02*
X216146D01*
X207865Y280885D02*
Y282710D01*
X202500Y278500D02*
X204250Y276750D01*
X217500Y294494D02*
X220707Y291287D01*
Y291236D02*
Y291287D01*
X217500Y294494D02*
Y308750D01*
X222500Y295434D02*
Y308750D01*
Y295434D02*
X226832Y291101D01*
X222500Y308750D02*
X222500Y308750D01*
X217500Y308750D02*
X217500Y308750D01*
X436750Y255000D02*
X446500Y245250D01*
X436750Y255000D02*
Y265500D01*
X440500Y269250D01*
Y280000D01*
X268135Y157115D02*
X271000Y154250D01*
X335804Y142339D02*
Y149804D01*
X510000Y291000D02*
X521500D01*
X502750Y283750D02*
X510000Y291000D01*
X502750Y267050D02*
Y283750D01*
X347000Y246750D02*
X347500Y246250D01*
X394750Y225250D02*
Y225750D01*
X333965Y83535D02*
X338965D01*
X332500Y85000D02*
X333965Y83535D01*
X338965D02*
X339500Y83000D01*
X477000Y266800D02*
Y282000D01*
X476750Y282250D02*
X477000Y282000D01*
X464350Y266750D02*
Y271177D01*
X458003Y274342D02*
X461185D01*
X464350Y271177D01*
X477000Y266800D02*
X477050Y266750D01*
X470500Y308750D02*
X470593Y308657D01*
Y297635D02*
X470686Y297542D01*
X470593Y297635D02*
Y308657D01*
X460074Y308324D02*
X460500Y308750D01*
X459647Y297835D02*
X460074Y298262D01*
Y308324D01*
X480465Y150915D02*
Y159465D01*
X471650Y202000D02*
X483250D01*
X464600Y194950D02*
X471650Y202000D01*
X473885Y224585D02*
X477050Y227750D01*
X489750Y219550D02*
Y227750D01*
X464350Y219550D02*
Y227750D01*
X202500Y283075D02*
Y291425D01*
Y278500D02*
Y283075D01*
X455500Y308750D02*
X455822Y308428D01*
Y294655D02*
X456145Y294333D01*
X455822Y294655D02*
Y308428D01*
X417750Y289750D02*
X418000Y289500D01*
X418000D01*
X420933Y279211D02*
Y286567D01*
X418000Y289500D02*
X420933Y286567D01*
X162375Y58625D02*
Y72125D01*
X162500Y72250D01*
X162250Y58500D02*
X162375Y58625D01*
X317478Y97936D02*
X321500Y93914D01*
X317078Y97936D02*
X317278D01*
X317478D01*
X385375Y56125D02*
Y72125D01*
X385250Y56000D02*
X385375Y56125D01*
X129500Y91388D02*
X132500Y88388D01*
Y72250D02*
Y88388D01*
X129500Y91388D02*
Y93750D01*
X385375Y72125D02*
X385500Y72250D01*
X435500Y106451D02*
X436788Y107739D01*
Y108495D01*
X435500Y98350D02*
Y106451D01*
X370625Y72375D02*
Y94125D01*
X370500Y72250D02*
X370625Y72375D01*
Y94125D02*
X370750Y94250D01*
X340804Y111089D02*
X419839D01*
X435500Y90000D02*
Y98350D01*
Y85750D02*
Y90000D01*
X398925Y103000D02*
X419000D01*
X398751Y103174D02*
X398925Y103000D01*
X405500Y88000D02*
X409434Y91934D01*
X416562D01*
X417566D01*
X425250Y84250D01*
X434000D01*
X424750Y88500D02*
Y97250D01*
Y88500D02*
X425886Y87364D01*
X419000Y103000D02*
X424750Y97250D01*
X430375Y90625D02*
Y104375D01*
X429188Y87364D02*
X430500Y88675D01*
X425886Y87364D02*
X429188D01*
X434000Y84250D02*
X435500Y85750D01*
X430375Y90625D02*
X430500Y90500D01*
X430250Y104500D02*
X430375Y104375D01*
X430500Y88675D02*
Y90500D01*
X405500Y72250D02*
Y88000D01*
X297559Y96971D02*
X298524Y97936D01*
X294500Y93712D02*
X297559Y96771D01*
X298524Y97936D02*
X298724D01*
X294500Y76750D02*
Y93712D01*
X297559Y96771D02*
Y96971D01*
X363500Y246250D02*
X378250D01*
Y245750D02*
Y246250D01*
X378500Y226000D02*
X378750Y225750D01*
X364000Y226000D02*
X378500D01*
X364000D02*
X367500Y222500D01*
Y202500D02*
Y210297D01*
X490000Y147750D02*
Y155950D01*
X502700Y147750D02*
Y155950D01*
X440500Y288350D02*
Y308750D01*
X440500Y280000D02*
Y288350D01*
X445500Y258750D02*
Y280000D01*
Y288350D01*
X502450Y266750D02*
X502750Y267050D01*
X337000Y116250D02*
X345214D01*
X346464Y115000D01*
X416000D01*
X335750Y128000D02*
X336964Y129214D01*
X341429D01*
X335750Y117500D02*
Y128000D01*
Y117500D02*
X337000Y116250D01*
X345786Y134214D02*
X347250Y132750D01*
X353750D01*
X341429Y134214D02*
X345786D01*
X270750Y140000D02*
X271000Y140250D01*
X255250Y140000D02*
X270750D01*
X289227Y129214D02*
X295179D01*
X283241Y133156D02*
X285285D01*
X289227Y129214D01*
X273865Y137385D02*
X278512D01*
X281126Y134771D02*
X281626D01*
X271000Y140250D02*
X273865Y137385D01*
X278512D02*
X281126Y134771D01*
X304324Y91567D02*
Y97936D01*
X281626Y134771D02*
X283241Y133156D01*
X294500Y76750D02*
X296250Y75000D01*
X320250D01*
X321500Y76250D01*
Y93914D01*
X315804Y99210D02*
X317078Y97936D01*
X315804Y99210D02*
Y111089D01*
X300677Y87920D02*
X304324Y91567D01*
X300677Y84670D02*
Y87920D01*
X311678Y91519D02*
X315277Y87920D01*
X311678Y91519D02*
Y97936D01*
X315277Y84670D02*
Y87920D01*
X311241Y98373D02*
Y110652D01*
X310804Y111089D02*
X311241Y110652D01*
Y98373D02*
X311678Y97936D01*
X222200Y200310D02*
X227000D01*
X217400D02*
X222200D01*
X222200Y210220D02*
X227000D01*
X217400D02*
X222200D01*
X222200Y220360D02*
X227000D01*
X217400D02*
X222200D01*
X222200Y230500D02*
X227000D01*
X217400D02*
X222200D01*
X222200Y240640D02*
X227000D01*
X217400D02*
X222200D01*
X222200Y250780D02*
X227000D01*
X217400D02*
X222200D01*
X227000Y200310D02*
X227000Y200310D01*
X227000Y210220D02*
X227000Y210220D01*
X227000Y230500D02*
X227000Y230500D01*
X227000Y250780D02*
X227000Y250780D01*
X202500Y291425D02*
Y308750D01*
X435500Y280000D02*
X435500Y280000D01*
X445500Y308750D02*
X445500Y308750D01*
D101*
X303500Y253000D02*
X313667D01*
X256807Y206243D02*
X256868Y206182D01*
X252983Y195426D02*
X255585D01*
X256868Y196709D01*
X252971Y195414D02*
X252983Y195426D01*
X256868Y196709D02*
Y198030D01*
X256880Y198042D01*
X256868Y198054D02*
Y206182D01*
Y198054D02*
X256880Y198042D01*
X315531Y183250D02*
X352250D01*
X316510Y190356D02*
Y204830D01*
X352250Y182250D02*
X360000D01*
X314716Y183922D02*
X315388Y184593D01*
X314045Y183250D02*
X314716Y183922D01*
X301750Y183470D02*
X301767Y183488D01*
X240500Y183250D02*
X301750D01*
X237000Y186750D02*
Y200310D01*
X301767Y183488D02*
X301780D01*
X302017Y183250D01*
X314045D01*
X315388Y184593D02*
Y191356D01*
X273250Y102250D02*
X290750D01*
X563017Y166000D02*
X572000D01*
X562017Y167000D02*
X563017Y166000D01*
X572000D02*
X573000Y165000D01*
X562000Y167000D02*
X562017D01*
X573500Y165500D02*
X583447D01*
X584787Y166840D01*
X316010Y240976D02*
Y250657D01*
X561000Y152000D02*
X572500D01*
X352250Y182250D02*
Y185500D01*
X352500Y185750D01*
X286850Y253000D02*
X303500D01*
X313667D02*
X316010Y250657D01*
X360000Y182250D02*
X366750D01*
X367500Y183000D01*
X316510Y226830D02*
Y239990D01*
Y220093D02*
Y226830D01*
Y220093D02*
X318853Y217750D01*
X327167D01*
X329510Y220093D01*
Y226830D01*
X238755Y184995D02*
X240500Y183250D01*
X237000Y186750D02*
X238755Y184995D01*
X272000Y95750D02*
Y103500D01*
X272000Y103500D01*
X263505Y127133D02*
X266372Y130000D01*
X272000Y103500D02*
X273250Y102250D01*
X290750D02*
X293000Y104500D01*
X294750D01*
X266372Y130000D02*
X270500D01*
X271000Y130500D01*
X275150Y127350D02*
X280900D01*
X271000Y130500D02*
X272000D01*
X280900Y127350D02*
X281500Y126750D01*
X272000Y130500D02*
X275150Y127350D01*
D103*
X192056Y206993D02*
X197563D01*
X171313Y205250D02*
X173056Y206993D01*
X170556Y204493D02*
X173056Y201993D01*
X173056Y206993D02*
X192056D01*
X197563D02*
X199806Y204750D01*
X200500D01*
X232500Y323271D02*
X236377Y327149D01*
X232500Y308750D02*
Y323271D01*
X256646Y287946D02*
X259450Y290750D01*
X237500Y293500D02*
X243054Y287946D01*
X259450Y290750D02*
X261750D01*
X243054Y287946D02*
X256646D01*
X237500Y293500D02*
Y308750D01*
X537000Y269000D02*
X547000Y259000D01*
X537000Y269000D02*
Y280000D01*
X241028Y256000D02*
X244273Y252754D01*
Y252722D02*
Y252754D01*
X203750Y256000D02*
X241028D01*
X200500Y252750D02*
X203750Y256000D01*
X248000Y214550D02*
Y232253D01*
Y214550D02*
X256050Y206500D01*
X256550D01*
X248000Y240247D02*
Y242540D01*
X247984Y240231D02*
X248000Y240247D01*
Y242540D02*
X252555Y247095D01*
X247984Y232269D02*
Y240231D01*
Y232269D02*
X248000Y232253D01*
X269250Y45000D02*
X289470D01*
X291470Y43000D02*
X298150D01*
X289470Y45000D02*
X291470Y43000D01*
X269250Y29000D02*
Y45000D01*
X435500Y308750D02*
Y319121D01*
X423000Y320000D02*
X434621D01*
X435500Y319121D01*
X421000Y318000D02*
X423000Y320000D01*
X421000Y309250D02*
Y318000D01*
X420500Y308750D02*
X421000Y309250D01*
X97750Y191500D02*
Y222500D01*
Y191500D02*
X108000Y181250D01*
X173056Y192993D02*
Y201993D01*
X420500Y308750D02*
X420500Y308750D01*
X420500Y298000D02*
Y308750D01*
X339250Y335500D02*
Y351500D01*
Y335500D02*
X339500Y335250D01*
X269500Y320000D02*
Y334250D01*
X268500Y335250D02*
X269500Y334250D01*
X102250Y30500D02*
Y45000D01*
X101500Y45750D02*
X102250Y45000D01*
X350000Y99300D02*
X353259Y102559D01*
X350000Y97000D02*
Y99300D01*
X353259Y102559D02*
Y104259D01*
X353750Y104750D01*
X510250Y339000D02*
X522000D01*
X506500Y335250D02*
X510250Y339000D01*
X213500Y125000D02*
X218194D01*
X221194Y122000D02*
X221250D01*
X218194Y125000D02*
X221194Y122000D01*
X200250Y94750D02*
Y94834D01*
X200563Y95147D01*
X221436Y121814D02*
X230650D01*
X230836Y121628D01*
X221250Y122000D02*
X221436Y121814D01*
X310350Y38000D02*
X310746D01*
X311496Y37250D01*
Y31367D02*
Y37250D01*
X300200Y33000D02*
X304132Y36932D01*
X297750Y53750D02*
X304132Y47368D01*
Y36932D02*
Y47368D01*
X298150Y33000D02*
X300200D01*
X297750Y53750D02*
Y54250D01*
X298750Y22000D02*
X299000Y21750D01*
X290750Y22000D02*
X298750D01*
X207400Y200810D02*
Y220360D01*
X205400Y202810D02*
X207400Y200810D01*
X203451Y204259D02*
X204900Y202810D01*
X200500Y204750D02*
X200991Y204259D01*
X207400Y200310D02*
Y200810D01*
X204900Y202810D02*
X205400D01*
X200991Y204259D02*
X203451D01*
X200500Y220750D02*
X207010D01*
X207400Y220360D01*
X200593Y252750D02*
X202563Y250780D01*
X207400D01*
X200500Y252750D02*
X200593D01*
X207400Y220360D02*
Y250780D01*
X207400Y250780D02*
X207400Y250780D01*
X252555Y247095D02*
Y247595D01*
D105*
X35000Y157500D02*
D03*
D106*
X107000Y109250D02*
D03*
D107*
X136750Y157500D02*
D03*
D108*
X76750Y157500D02*
D03*
D109*
X71100Y318000D02*
D03*
Y231600D02*
D03*
D110*
X17500Y318000D02*
D03*
Y231600D02*
D03*
D112*
X137000Y198250D02*
D03*
X72500Y199500D02*
D03*
X68431Y262181D02*
D03*
X137216Y296572D02*
D03*
X147000Y249250D02*
D03*
X124322Y295987D02*
D03*
X119027Y288822D02*
D03*
X93000Y281201D02*
D03*
X148000Y287000D02*
D03*
X144000Y292500D02*
D03*
X143250Y282250D02*
D03*
X95750Y352584D02*
D03*
X101431Y356230D02*
D03*
X88922Y277556D02*
D03*
X89062Y269468D02*
D03*
X83172Y280026D02*
D03*
X82999Y272152D02*
D03*
X101634Y268235D02*
D03*
X106593Y268329D02*
D03*
X55425Y297276D02*
D03*
Y292323D02*
D03*
X450476Y116483D02*
D03*
X445523D02*
D03*
X440500Y116500D02*
D03*
X122000Y234000D02*
D03*
X144750Y269000D02*
D03*
X87810Y304616D02*
D03*
X91312Y301114D02*
D03*
X167750Y276000D02*
D03*
X68304Y251875D02*
D03*
X68238Y256828D02*
D03*
X90762Y248012D02*
D03*
X87259Y244509D02*
D03*
X168250Y186250D02*
D03*
X144482Y185215D02*
D03*
X156518Y206970D02*
D03*
X184289Y205167D02*
D03*
X170072Y205485D02*
D03*
X197496Y91258D02*
D03*
X197494Y86244D02*
D03*
X215250Y110274D02*
D03*
Y115226D02*
D03*
X142885Y193749D02*
D03*
X417580Y202806D02*
D03*
X245088Y156429D02*
D03*
X225993Y159805D02*
D03*
X395738Y211599D02*
D03*
X391449Y200382D02*
D03*
X403586Y204991D02*
D03*
X386676Y255366D02*
D03*
X380585Y235353D02*
D03*
X594645Y182081D02*
D03*
X614487Y175634D02*
D03*
X177330Y274000D02*
D03*
X172377D02*
D03*
X570421Y236820D02*
D03*
X222200Y220360D02*
D03*
X181292Y29334D02*
D03*
X123548Y356427D02*
D03*
X511063Y281317D02*
D03*
X313667Y253000D02*
D03*
X236377Y327149D02*
D03*
X222250Y84750D02*
D03*
X360250Y48750D02*
D03*
X390500Y60250D02*
D03*
X311962Y61091D02*
D03*
X354929Y237430D02*
D03*
X198750Y261250D02*
D03*
X369371Y140988D02*
D03*
X614250Y152250D02*
D03*
X614500Y300242D02*
D03*
X615000Y264273D02*
D03*
X614500Y305194D02*
D03*
X480512Y297767D02*
D03*
X485500Y297750D02*
D03*
X320281Y150015D02*
D03*
X267000Y89000D02*
D03*
X512659Y80929D02*
D03*
X185000Y108000D02*
D03*
X181000Y145000D02*
D03*
X560625Y234605D02*
D03*
X260691Y195446D02*
D03*
X252971Y195414D02*
D03*
X256880Y198042D02*
D03*
X614006Y147273D02*
D03*
X303000Y102584D02*
D03*
X181541Y361489D02*
D03*
X182358Y273915D02*
D03*
X185000Y261000D02*
D03*
X126641Y342912D02*
D03*
X120125Y336625D02*
D03*
X137534Y350984D02*
D03*
X307000Y243000D02*
D03*
X159778Y360554D02*
D03*
X167500Y297750D02*
D03*
X182500D02*
D03*
X461664Y43651D02*
D03*
X430000Y41000D02*
D03*
X570146Y272646D02*
D03*
X570250Y284750D02*
D03*
X529750Y353500D02*
D03*
X295000Y233000D02*
D03*
X346000Y150000D02*
D03*
X452000Y173000D02*
D03*
X547000Y259000D02*
D03*
X375000Y298000D02*
D03*
X438000Y338000D02*
D03*
X212476Y56387D02*
D03*
X207523D02*
D03*
X123083Y362100D02*
D03*
X68419Y246675D02*
D03*
X200891Y82640D02*
D03*
X495329Y201888D02*
D03*
X502700Y205000D02*
D03*
X55502Y287371D02*
D03*
X55424Y302229D02*
D03*
X584787Y166840D02*
D03*
X339441Y90803D02*
D03*
X133250Y39000D02*
D03*
X123250D02*
D03*
X34000Y85000D02*
D03*
X147806Y211187D02*
D03*
X97750Y222500D02*
D03*
X491479Y125021D02*
D03*
X459750Y33250D02*
D03*
X447500Y45000D02*
D03*
X584548Y212690D02*
D03*
Y224848D02*
D03*
X470629Y83836D02*
D03*
X558232Y190681D02*
D03*
X539559Y169980D02*
D03*
X406949Y283000D02*
D03*
X412088D02*
D03*
X420500Y273000D02*
D03*
X430476D02*
D03*
X425523D02*
D03*
X181131Y336492D02*
D03*
Y341445D02*
D03*
X181368Y356539D02*
D03*
X181372Y351540D02*
D03*
X187509Y274245D02*
D03*
X192491D02*
D03*
X437250Y208750D02*
D03*
X435084Y193681D02*
D03*
X385602Y298000D02*
D03*
X380649D02*
D03*
X390548Y297748D02*
D03*
X615006Y269226D02*
D03*
X415686Y339128D02*
D03*
X515709Y177975D02*
D03*
X129724Y201293D02*
D03*
X134176Y360634D02*
D03*
X119719Y207295D02*
D03*
X119868Y218135D02*
D03*
X119743Y212914D02*
D03*
X213608Y119899D02*
D03*
X94610Y269264D02*
D03*
X68419Y267224D02*
D03*
X286376Y67125D02*
D03*
X282873Y70627D02*
D03*
X370477Y320250D02*
D03*
X365524D02*
D03*
X570223Y309574D02*
D03*
X227476Y59750D02*
D03*
X222523D02*
D03*
X512881Y125500D02*
D03*
X517834D02*
D03*
X501032Y92673D02*
D03*
X504535Y96175D02*
D03*
X584548Y176551D02*
D03*
X561000Y152000D02*
D03*
X558178Y198382D02*
D03*
X550423Y194694D02*
D03*
X600000Y133000D02*
D03*
X614530Y246262D02*
D03*
X599110Y246484D02*
D03*
X614000Y231000D02*
D03*
X582942Y240818D02*
D03*
X598840Y237952D02*
D03*
X597173Y231905D02*
D03*
X613963Y236814D02*
D03*
X562000Y167000D02*
D03*
X600104Y184322D02*
D03*
X601500Y164000D02*
D03*
X542989Y227473D02*
D03*
X550441Y227611D02*
D03*
X584076Y232726D02*
D03*
X477267Y177279D02*
D03*
X453487Y182554D02*
D03*
X420943Y183484D02*
D03*
X279256Y74276D02*
D03*
X570067Y112750D02*
D03*
X89249Y84899D02*
D03*
X193000Y50000D02*
D03*
X134000Y367750D02*
D03*
X150623Y54414D02*
D03*
X152250Y59500D02*
D03*
X117387Y59708D02*
D03*
X122500Y60750D02*
D03*
X127500D02*
D03*
X167500Y61250D02*
D03*
X152499Y295965D02*
D03*
X109852Y296527D02*
D03*
X115979Y362979D02*
D03*
X84341Y329282D02*
D03*
X114000Y372287D02*
D03*
X67500Y354500D02*
D03*
X70418Y335056D02*
D03*
X120924Y368604D02*
D03*
X115250Y210000D02*
D03*
Y215750D02*
D03*
X95750Y249000D02*
D03*
X94853Y297650D02*
D03*
X440250Y187500D02*
D03*
X444750Y192750D02*
D03*
X143367Y83657D02*
D03*
X244273Y252722D02*
D03*
X360500Y319750D02*
D03*
X420500Y298000D02*
D03*
X339250Y351500D02*
D03*
X269500Y320000D02*
D03*
X102250Y30500D02*
D03*
X409729Y128285D02*
D03*
X353750Y104750D02*
D03*
X522000Y339000D02*
D03*
X455500Y116500D02*
D03*
X474250Y119750D02*
D03*
X380500Y83250D02*
D03*
X316000Y248000D02*
D03*
X213750Y175750D02*
D03*
X215000Y166654D02*
D03*
X535750Y114000D02*
D03*
X559500Y125000D02*
D03*
X551750Y210750D02*
D03*
X542621Y210316D02*
D03*
X247500Y83250D02*
D03*
X490000Y286000D02*
D03*
X222309Y154017D02*
D03*
X213750Y95250D02*
D03*
X200563Y95147D02*
D03*
X598250Y154500D02*
D03*
X603708Y109206D02*
D03*
X507750Y125500D02*
D03*
X523000D02*
D03*
X567516Y248807D02*
D03*
X570338Y252877D02*
D03*
X566906Y256865D02*
D03*
X613932Y225958D02*
D03*
X613900Y284750D02*
D03*
X445500Y295250D02*
D03*
X414000D02*
D03*
X256662Y230412D02*
D03*
X265407Y255579D02*
D03*
X336000Y191250D02*
D03*
X360000Y182250D02*
D03*
X139745Y60548D02*
D03*
X340000Y199250D02*
D03*
X286198Y150260D02*
D03*
X301750Y183500D02*
D03*
X214633Y130324D02*
D03*
X221250Y122000D02*
D03*
X223125Y145625D02*
D03*
X218626Y158075D02*
D03*
X215037Y183097D02*
D03*
X213500Y158750D02*
D03*
X220891Y274455D02*
D03*
X212500Y283000D02*
D03*
X220707Y291236D02*
D03*
X226832Y291101D02*
D03*
X247500Y274750D02*
D03*
X244500Y278750D02*
D03*
X220000Y30750D02*
D03*
X318054Y26297D02*
D03*
X311496Y31367D02*
D03*
X290750Y22000D02*
D03*
X269250Y29000D02*
D03*
X209750Y346500D02*
D03*
X250750Y259750D02*
D03*
X255000Y255500D02*
D03*
X330010Y249740D02*
D03*
X213970Y105453D02*
D03*
X231050Y106750D02*
D03*
X243750Y110750D02*
D03*
Y122750D02*
D03*
Y134750D02*
D03*
Y146750D02*
D03*
X200500Y252750D02*
D03*
Y220750D02*
D03*
Y204750D02*
D03*
X214500Y190750D02*
D03*
X214000Y151750D02*
D03*
X272000Y95750D02*
D03*
X258000Y110750D02*
D03*
X263750Y116500D02*
D03*
X263505Y127133D02*
D03*
X352500Y200000D02*
D03*
X347000Y255000D02*
D03*
X403000Y128500D02*
D03*
X383500Y101750D02*
D03*
X339500Y83000D02*
D03*
X217292Y57994D02*
D03*
X476750Y282250D02*
D03*
X458003Y274342D02*
D03*
X470686Y297542D02*
D03*
X459647Y297835D02*
D03*
X515250Y212250D02*
D03*
Y131250D02*
D03*
X483250Y202000D02*
D03*
X214500Y272750D02*
D03*
X214250Y260500D02*
D03*
X245000Y259500D02*
D03*
X230000Y260500D02*
D03*
X230500Y271750D02*
D03*
X68750Y287750D02*
D03*
X181000Y331500D02*
D03*
X181250Y346500D02*
D03*
X450500Y297750D02*
D03*
X465500D02*
D03*
X456145Y294333D02*
D03*
X417750Y289750D02*
D03*
X435500Y297750D02*
D03*
X375500Y319750D02*
D03*
X405500Y297750D02*
D03*
X247500Y319750D02*
D03*
X242500D02*
D03*
X227500D02*
D03*
X212500D02*
D03*
X197500D02*
D03*
X97250Y360750D02*
D03*
X162250Y58500D02*
D03*
X330500Y68250D02*
D03*
X362000Y99250D02*
D03*
X321250Y94000D02*
D03*
X400500Y83000D02*
D03*
X393933Y83626D02*
D03*
X436750Y28500D02*
D03*
X360500Y83250D02*
D03*
X365500D02*
D03*
X339750Y29500D02*
D03*
X385250Y56000D02*
D03*
X157500Y61250D02*
D03*
X172500Y83250D02*
D03*
X485504Y89228D02*
D03*
X410500Y83250D02*
D03*
X289957Y63444D02*
D03*
X414500Y28000D02*
D03*
X393000Y27500D02*
D03*
X381000D02*
D03*
X570067Y148750D02*
D03*
Y136750D02*
D03*
Y124750D02*
D03*
X508250Y99750D02*
D03*
X600900Y124750D02*
D03*
X436788Y108495D02*
D03*
X600500Y191500D02*
D03*
X561501Y245251D02*
D03*
X614000Y188250D02*
D03*
X614308Y180663D02*
D03*
X363035Y106763D02*
D03*
X455500Y83836D02*
D03*
X440412D02*
D03*
X430250Y104500D02*
D03*
X497250Y89000D02*
D03*
X614250Y157250D02*
D03*
X613933Y136750D02*
D03*
X613900Y162191D02*
D03*
X232500Y59750D02*
D03*
X202500Y56500D02*
D03*
X613750Y168750D02*
D03*
X502750Y283750D02*
D03*
X570250Y296750D02*
D03*
X222200Y250780D02*
D03*
X222200Y240640D02*
D03*
X222200Y230500D02*
D03*
Y210220D02*
D03*
X222200Y200310D02*
D03*
X197750Y274250D02*
D03*
X435500Y273000D02*
D03*
X417250Y283250D02*
D03*
X401750D02*
D03*
X614951Y274179D02*
D03*
X615009Y259321D02*
D03*
X614500Y310147D02*
D03*
X614209Y295297D02*
D03*
X570250Y260750D02*
D03*
X84000Y308000D02*
D03*
X83250Y241000D02*
D03*
D113*
X82250Y53250D02*
D03*
X572250Y77000D02*
D03*
X616470Y323507D02*
D03*
X616662Y60628D02*
D03*
Y83628D02*
D03*
X8523Y56495D02*
D03*
Y79495D02*
D03*
Y102495D02*
D03*
Y125495D02*
D03*
Y148495D02*
D03*
X8227Y241508D02*
D03*
X8523Y217495D02*
D03*
Y194495D02*
D03*
Y171495D02*
D03*
X8438Y307209D02*
D03*
X8523Y286495D02*
D03*
Y263495D02*
D03*
X566000Y373977D02*
D03*
X543000D02*
D03*
X520000D02*
D03*
X497000D02*
D03*
X474000D02*
D03*
X382000D02*
D03*
X405000D02*
D03*
X428000D02*
D03*
X451000D02*
D03*
X290000D02*
D03*
X313000D02*
D03*
X336000D02*
D03*
X359000D02*
D03*
X198000D02*
D03*
X221000D02*
D03*
X244000D02*
D03*
X267000D02*
D03*
X106000D02*
D03*
X129000D02*
D03*
X159000Y374000D02*
D03*
X175000Y373977D02*
D03*
X60000D02*
D03*
X81764Y374221D02*
D03*
X83000Y6000D02*
D03*
X60000D02*
D03*
X175000D02*
D03*
X152000D02*
D03*
X129000D02*
D03*
X106000D02*
D03*
X267000D02*
D03*
X244000D02*
D03*
X221000D02*
D03*
X198000D02*
D03*
X359000D02*
D03*
X336000D02*
D03*
X313000D02*
D03*
X290000D02*
D03*
X451000D02*
D03*
X428000D02*
D03*
X405000D02*
D03*
X382000D02*
D03*
X474000D02*
D03*
X497000D02*
D03*
X520000D02*
D03*
X543000D02*
D03*
X522250Y59750D02*
D03*
X563750D02*
D03*
X543000Y39000D02*
D03*
Y80500D02*
D03*
X280250Y301750D02*
D03*
X321750D02*
D03*
X301000Y281000D02*
D03*
Y322500D02*
D03*
X8835Y328803D02*
D03*
X40151Y342324D02*
D03*
X45974Y352411D02*
D03*
Y364058D02*
D03*
X40151Y374144D02*
D03*
X8331Y342324D02*
D03*
X18418Y336501D02*
D03*
X30064D02*
D03*
X40151Y37652D02*
D03*
X45974Y27566D02*
D03*
Y15919D02*
D03*
X40151Y5833D02*
D03*
X8331Y37652D02*
D03*
X18418Y43476D02*
D03*
X30064D02*
D03*
X584842Y342349D02*
D03*
X594929Y336526D02*
D03*
X606575D02*
D03*
X616662Y342349D02*
D03*
X584842Y374169D02*
D03*
X579019Y364083D02*
D03*
Y352436D02*
D03*
X579019Y27541D02*
D03*
Y15894D02*
D03*
X584842Y5808D02*
D03*
X616662Y37628D02*
D03*
X606575Y43451D02*
D03*
X594929D02*
D03*
X584842Y37628D02*
D03*
X566000Y6000D02*
D03*
D127*
X543000Y59750D02*
D03*
X301000Y301750D02*
D03*
D130*
X370250Y211000D02*
D03*
X379750D02*
D03*
X389250D02*
D03*
Y183500D02*
D03*
X370250D02*
D03*
D131*
X605000Y134000D02*
D03*
Y246000D02*
D03*
D132*
X573000Y227500D02*
D03*
Y215000D02*
D03*
Y202500D02*
D03*
Y190000D02*
D03*
Y177500D02*
D03*
Y165000D02*
D03*
Y152500D02*
D03*
D133*
X506500Y45750D02*
D03*
X268500D02*
D03*
X101500Y335250D02*
D03*
X339500D02*
D03*
D134*
X390500Y72250D02*
D03*
X395500D02*
D03*
X400500D02*
D03*
X405500D02*
D03*
X410500D02*
D03*
X415500D02*
D03*
X420500D02*
D03*
X430500D02*
D03*
X435500D02*
D03*
X440500D02*
D03*
X445500D02*
D03*
X450500D02*
D03*
X455500D02*
D03*
X460500D02*
D03*
X465500D02*
D03*
X470500D02*
D03*
X475500D02*
D03*
X480500D02*
D03*
X485500D02*
D03*
X425500D02*
D03*
X370500D02*
D03*
X375500D02*
D03*
X380500D02*
D03*
X385500D02*
D03*
X360500D02*
D03*
X365500D02*
D03*
X152500D02*
D03*
X157500D02*
D03*
X162500D02*
D03*
X167500D02*
D03*
X172500D02*
D03*
X177500D02*
D03*
X182500D02*
D03*
X192500D02*
D03*
X197500D02*
D03*
X202500D02*
D03*
X207500D02*
D03*
X212500D02*
D03*
X217500D02*
D03*
X222500D02*
D03*
X227500D02*
D03*
X232500D02*
D03*
X237500D02*
D03*
X242500D02*
D03*
X247500D02*
D03*
X187500D02*
D03*
X132500D02*
D03*
X137500D02*
D03*
X142500D02*
D03*
X147500D02*
D03*
X122500D02*
D03*
X127500D02*
D03*
X242500Y308750D02*
D03*
X247500D02*
D03*
X222500D02*
D03*
X227500D02*
D03*
X232500D02*
D03*
X237500D02*
D03*
X182500D02*
D03*
X122500D02*
D03*
X127500D02*
D03*
X132500D02*
D03*
X137500D02*
D03*
X142500D02*
D03*
X147500D02*
D03*
X152500D02*
D03*
X157500D02*
D03*
X162500D02*
D03*
X167500D02*
D03*
X172500D02*
D03*
X177500D02*
D03*
X187500D02*
D03*
X192500D02*
D03*
X197500D02*
D03*
X202500D02*
D03*
X207500D02*
D03*
X212500D02*
D03*
X217500D02*
D03*
X455500D02*
D03*
X450500D02*
D03*
X445500D02*
D03*
X440500D02*
D03*
X435500D02*
D03*
X430500D02*
D03*
X425500D02*
D03*
X415500D02*
D03*
X410500D02*
D03*
X405500D02*
D03*
X400500D02*
D03*
X395500D02*
D03*
X390500D02*
D03*
X385500D02*
D03*
X380500D02*
D03*
X375500D02*
D03*
X370500D02*
D03*
X365500D02*
D03*
X360500D02*
D03*
X420500D02*
D03*
X475500D02*
D03*
X470500D02*
D03*
X465500D02*
D03*
X460500D02*
D03*
X485500D02*
D03*
X480500D02*
D03*
D135*
X339500Y45750D02*
D03*
X101500D02*
D03*
X268500Y335250D02*
D03*
X506500D02*
D03*
D136*
X168556Y225690D02*
D03*
Y231290D02*
D03*
X162556Y225690D02*
D03*
Y231290D02*
D03*
X188556Y225690D02*
D03*
Y231290D02*
D03*
X182556Y225690D02*
D03*
Y231290D02*
D03*
D137*
X178056Y192993D02*
D03*
X183056D02*
D03*
X158056D02*
D03*
X163056D02*
D03*
X188056D02*
D03*
X173056D02*
D03*
X168056D02*
D03*
X153056D02*
D03*
X158056Y215993D02*
D03*
X153056D02*
D03*
X178056D02*
D03*
X173056D02*
D03*
X168056D02*
D03*
X163056D02*
D03*
X188056D02*
D03*
X183056D02*
D03*
D138*
X170556Y204493D02*
D03*
D139*
X149056Y201993D02*
D03*
Y206993D02*
D03*
X192056D02*
D03*
Y201993D02*
D03*
D140*
X429750Y211250D02*
D03*
X413750D02*
D03*
X363500Y247250D02*
D03*
X347500D02*
D03*
X378750D02*
D03*
X394750D02*
D03*
X347500Y226000D02*
D03*
X363500D02*
D03*
X394750Y225750D02*
D03*
X378750D02*
D03*
X106500Y213986D02*
D03*
X90500D02*
D03*
X106500Y198736D02*
D03*
X90500D02*
D03*
D141*
X330010Y240976D02*
D03*
X316010D02*
D03*
X329388Y191356D02*
D03*
X315388D02*
D03*
X286850Y253000D02*
D03*
X272850D02*
D03*
X272000Y103500D02*
D03*
X258000D02*
D03*
D142*
X329510Y204830D02*
D03*
Y226830D02*
D03*
X316510Y204830D02*
D03*
Y226830D02*
D03*
X323010D02*
D03*
D143*
X274950Y224300D02*
D03*
X284950D02*
D03*
Y239100D02*
D03*
X279950D02*
D03*
X274950D02*
D03*
X279950Y224300D02*
D03*
D144*
X271350Y204300D02*
D03*
X291350D02*
D03*
D145*
X352500Y185750D02*
D03*
Y193750D02*
D03*
X281500Y118750D02*
D03*
Y126750D02*
D03*
Y110250D02*
D03*
Y102250D02*
D03*
D146*
X556044Y341071D02*
D03*
X552509Y337536D02*
D03*
X545438Y330465D02*
D03*
X541902Y326929D02*
D03*
X535998Y332833D02*
D03*
X539533Y336369D02*
D03*
X546604Y343440D02*
D03*
X550140Y346975D02*
D03*
D147*
X548973Y334000D02*
D03*
X543069Y339904D02*
D03*
D148*
X425500Y288350D02*
D03*
X430500D02*
D03*
X440500D02*
D03*
X445500D02*
D03*
Y280000D02*
D03*
X440500D02*
D03*
X430500D02*
D03*
X425500D02*
D03*
X157450Y282975D02*
D03*
X162450D02*
D03*
X172450D02*
D03*
X177450D02*
D03*
Y291325D02*
D03*
X172450D02*
D03*
X162450D02*
D03*
X157450D02*
D03*
X187500Y283075D02*
D03*
X192500D02*
D03*
X202500D02*
D03*
X207500D02*
D03*
Y291425D02*
D03*
X202500D02*
D03*
X192500D02*
D03*
X187500D02*
D03*
X480500Y98350D02*
D03*
X475500D02*
D03*
X465500D02*
D03*
X460500D02*
D03*
Y90000D02*
D03*
X465500D02*
D03*
X475500D02*
D03*
X480500D02*
D03*
X450500Y98350D02*
D03*
X445500D02*
D03*
X435500D02*
D03*
X430500D02*
D03*
Y90000D02*
D03*
X435500D02*
D03*
X445500D02*
D03*
X450500D02*
D03*
D149*
X435500Y288350D02*
D03*
Y280000D02*
D03*
X167450Y282975D02*
D03*
Y291325D02*
D03*
X197500Y283075D02*
D03*
Y291425D02*
D03*
X470500Y98350D02*
D03*
Y90000D02*
D03*
X440500Y98350D02*
D03*
Y90000D02*
D03*
D150*
X515400Y147750D02*
D03*
X502700D02*
D03*
X490000D02*
D03*
X477300D02*
D03*
X464600D02*
D03*
X515400Y186750D02*
D03*
X502700D02*
D03*
X490000D02*
D03*
X477300D02*
D03*
X464600D02*
D03*
X515150Y227750D02*
D03*
X502450D02*
D03*
X489750D02*
D03*
X477050D02*
D03*
X464350D02*
D03*
X515150Y266750D02*
D03*
X502450D02*
D03*
X489750D02*
D03*
X477050D02*
D03*
X464350D02*
D03*
D151*
X281626Y143771D02*
D03*
Y134771D02*
D03*
X403408Y187711D02*
D03*
Y196711D02*
D03*
D152*
X271000Y130500D02*
D03*
Y116500D02*
D03*
Y154250D02*
D03*
Y140250D02*
D03*
D153*
X315277Y84670D02*
D03*
X300677D02*
D03*
D154*
X295804Y111089D02*
D03*
X340804D02*
D03*
X335804D02*
D03*
X330804D02*
D03*
X325804D02*
D03*
X320804D02*
D03*
X315804D02*
D03*
X310804D02*
D03*
X305804D02*
D03*
X300804D02*
D03*
X295804Y142339D02*
D03*
X300804D02*
D03*
X305804D02*
D03*
X310804D02*
D03*
X315804D02*
D03*
X320804D02*
D03*
X325804D02*
D03*
X330804D02*
D03*
X335804D02*
D03*
X340804D02*
D03*
D155*
X341429Y134214D02*
D03*
Y129214D02*
D03*
Y124214D02*
D03*
Y119214D02*
D03*
X295179D02*
D03*
Y124214D02*
D03*
Y129214D02*
D03*
Y134214D02*
D03*
D156*
X354750Y132750D02*
D03*
X363750D02*
D03*
X354750Y142000D02*
D03*
X363750D02*
D03*
D157*
X309500Y155500D02*
D03*
X317500D02*
D03*
D158*
X311678Y97936D02*
D03*
X317278D02*
D03*
X304324D02*
D03*
X298724D02*
D03*
M02*
