G04*
G04 #@! TF.GenerationSoftware,Altium Limited,Altium Designer,21.7.1 (17)*
G04*
G04 Layer_Physical_Order=3*
G04 Layer_Color=36540*
%FSLAX44Y44*%
%MOMM*%
G71*
G04*
G04 #@! TF.SameCoordinates,FD0472FB-917D-4E3E-8D43-4C0FEB5CB7B0*
G04*
G04*
G04 #@! TF.FilePolarity,Positive*
G04*
G01*
G75*
%ADD10C,0.2000*%
%ADD13C,0.3000*%
%ADD93C,0.1270*%
%ADD94C,0.1500*%
%ADD95C,0.4000*%
%ADD99O,1.9000X1.1000*%
%ADD100O,2.4000X1.1000*%
%ADD102O,4.5000X2.5000*%
%ADD104O,2.5000X4.5000*%
%ADD106C,0.4064*%
%ADD107C,0.5080*%
%ADD121C,2.7000*%
G36*
X620576Y376870D02*
X621092Y376719D01*
X621521Y375353D01*
X616271Y370125D01*
X616211Y370036D01*
X616127Y369972D01*
X614941Y368619D01*
X614788Y368354D01*
X614586Y368124D01*
X612792Y365016D01*
X612661Y364631D01*
X612481Y364266D01*
X611552Y360799D01*
X611526Y360393D01*
X611446Y359995D01*
Y356405D01*
X611526Y356007D01*
X611552Y355601D01*
X612481Y352134D01*
X612661Y351769D01*
X612792Y351384D01*
X614586Y348276D01*
X614854Y347970D01*
X615080Y347632D01*
X617618Y345094D01*
X617956Y344868D01*
X618262Y344600D01*
X621371Y342805D01*
X621756Y342675D01*
X622120Y342495D01*
X625587Y341566D01*
X625993Y341539D01*
X626391Y341460D01*
X629981D01*
X630380Y341539D01*
X630785Y341566D01*
X634252Y342495D01*
X634617Y342675D01*
X635002Y342805D01*
X638111Y344600D01*
X638341Y344802D01*
X638606Y344955D01*
X639958Y346141D01*
X640021Y346223D01*
X640106Y346280D01*
X645381Y351555D01*
X646734Y351112D01*
X646892Y350570D01*
Y350000D01*
X646892Y30050D01*
X646873Y29457D01*
X646707Y28886D01*
X645345Y28450D01*
X640068Y33702D01*
X639985Y33758D01*
X639924Y33837D01*
X638572Y35022D01*
X638307Y35175D01*
X638077Y35377D01*
X634968Y37172D01*
X634583Y37302D01*
X634219Y37482D01*
X630752Y38411D01*
X630346Y38438D01*
X629947Y38517D01*
X626358D01*
X625959Y38438D01*
X625554Y38411D01*
X622086Y37482D01*
X621722Y37302D01*
X621337Y37172D01*
X618228Y35377D01*
X617923Y35109D01*
X617585Y34883D01*
X615047Y32345D01*
X614821Y32007D01*
X614553Y31702D01*
X612758Y28593D01*
X612627Y28208D01*
X612448Y27843D01*
X611519Y24376D01*
X611492Y23971D01*
X611413Y23572D01*
Y19983D01*
X611492Y19584D01*
X611519Y19178D01*
X612448Y15711D01*
X612627Y15346D01*
X612758Y14962D01*
X614553Y11853D01*
X614754Y11623D01*
X614908Y11358D01*
X616093Y10006D01*
X616175Y9943D01*
X616232Y9857D01*
X621463Y4627D01*
X621041Y3253D01*
X620543Y3108D01*
X619972D01*
X29977Y3108D01*
X29407D01*
X28886Y3260D01*
X28449Y4622D01*
X33702Y9899D01*
X33757Y9981D01*
X33836Y10042D01*
X35022Y11394D01*
X35175Y11659D01*
X35377Y11889D01*
X37172Y14998D01*
X37302Y15383D01*
X37482Y15748D01*
X38411Y19215D01*
X38438Y19620D01*
X38517Y20019D01*
Y23608D01*
X38438Y24007D01*
X38411Y24413D01*
X37482Y27880D01*
X37302Y28245D01*
X37172Y28629D01*
X35377Y31738D01*
X35109Y32044D01*
X34883Y32382D01*
X32345Y34920D01*
X32007Y35145D01*
X31701Y35414D01*
X28593Y37208D01*
X28208Y37339D01*
X27843Y37519D01*
X24376Y38448D01*
X23970Y38474D01*
X23572Y38554D01*
X19982D01*
X19584Y38474D01*
X19178Y38448D01*
X15711Y37519D01*
X15346Y37339D01*
X14962Y37208D01*
X11853Y35414D01*
X11623Y35212D01*
X11358Y35059D01*
X10006Y33873D01*
X9943Y33791D01*
X9857Y33734D01*
X4627Y28504D01*
X3253Y28926D01*
X3108Y29424D01*
X3108Y29995D01*
X3108Y29995D01*
X3108Y29995D01*
X3094Y214682D01*
X4364Y215308D01*
X4768Y214999D01*
X6592Y214243D01*
X8550Y213985D01*
X13550D01*
Y221550D01*
Y229115D01*
X8550D01*
X6592Y228857D01*
X4768Y228101D01*
X4363Y227791D01*
X3093Y228417D01*
X3088Y301087D01*
X4358Y301713D01*
X4768Y301399D01*
X6592Y300643D01*
X8550Y300385D01*
X13550D01*
Y307950D01*
Y315515D01*
X8550D01*
X6592Y315257D01*
X4768Y314501D01*
X4357Y314186D01*
X3087Y314813D01*
X3085Y349964D01*
X3097Y350519D01*
X3258Y351070D01*
X4624Y351497D01*
X9852Y346248D01*
X9941Y346189D01*
X10005Y346104D01*
X11358Y344918D01*
X11623Y344765D01*
X11853Y344563D01*
X14961Y342769D01*
X15346Y342638D01*
X15711Y342458D01*
X19178Y341529D01*
X19584Y341503D01*
X19982Y341423D01*
X23572D01*
X23970Y341503D01*
X24376Y341529D01*
X27843Y342458D01*
X28208Y342638D01*
X28593Y342769D01*
X31701Y344563D01*
X32007Y344832D01*
X32345Y345057D01*
X34883Y347595D01*
X35109Y347933D01*
X35377Y348239D01*
X37172Y351348D01*
X37302Y351733D01*
X37482Y352097D01*
X38411Y355564D01*
X38438Y355970D01*
X38517Y356369D01*
Y359958D01*
X38438Y360357D01*
X38411Y360762D01*
X37482Y364229D01*
X37302Y364594D01*
X37172Y364979D01*
X35377Y368088D01*
X35175Y368318D01*
X35022Y368583D01*
X33836Y369935D01*
X33754Y369998D01*
X33697Y370083D01*
X28422Y375358D01*
X28865Y376711D01*
X29407Y376869D01*
X29977D01*
X620005Y376870D01*
X620576Y376870D01*
D02*
G37*
%LPC*%
G36*
X119203Y372636D02*
X117599D01*
X116117Y372022D01*
X114983Y370888D01*
X114586Y369929D01*
X114546Y369937D01*
X77727D01*
X76699Y369732D01*
X75827Y369150D01*
X65209Y358532D01*
X64175D01*
X62693Y357918D01*
X61559Y356784D01*
X60945Y355302D01*
Y353698D01*
X61559Y352216D01*
X62693Y351082D01*
X64175Y350468D01*
X65779D01*
X66770Y350879D01*
X68040Y350202D01*
Y322475D01*
X68245Y321447D01*
X68827Y320575D01*
X68968Y320435D01*
Y319400D01*
X69582Y317918D01*
X70715Y316785D01*
X70715Y316780D01*
X70462Y315515D01*
X70150D01*
Y307950D01*
X68650D01*
Y306450D01*
X57283D01*
X57343Y305992D01*
X57945Y304540D01*
X57936Y304523D01*
X57660Y304339D01*
X57372Y304172D01*
X57331Y304119D01*
X57274Y304081D01*
X54035Y300842D01*
X53593Y300180D01*
X53438Y299400D01*
Y295378D01*
X53438Y295378D01*
X53593Y294598D01*
X53639Y294529D01*
X52961Y293258D01*
X51775D01*
X49558Y292340D01*
X47861Y290643D01*
X46943Y288426D01*
Y286027D01*
X47472Y284750D01*
X46943Y283473D01*
Y281074D01*
X47861Y278857D01*
X49558Y277160D01*
X51775Y276241D01*
X53054D01*
X53691Y274972D01*
X53593Y274825D01*
X53438Y274044D01*
Y233523D01*
X53438Y233523D01*
X53593Y232743D01*
X54035Y232081D01*
X54035Y232081D01*
X59264Y226852D01*
X58099Y225332D01*
X57343Y223508D01*
X57283Y223050D01*
X80017D01*
X79957Y223508D01*
X79201Y225332D01*
X77999Y226899D01*
X77814Y227041D01*
X77733Y228460D01*
X77868Y228734D01*
X77886Y228801D01*
X77924Y228858D01*
X77978Y229127D01*
X78090Y229202D01*
X78823Y229346D01*
X79147Y229370D01*
X79315Y229339D01*
X80925Y227729D01*
X83142Y226810D01*
X85542D01*
X85597Y226784D01*
X86228Y225720D01*
X86386Y225483D01*
X86516Y225230D01*
X86605Y225155D01*
X86670Y225058D01*
X86906Y224900D01*
X87123Y224716D01*
X87234Y224681D01*
X87331Y224616D01*
X87610Y224561D01*
X87881Y224474D01*
X87997Y224484D01*
X88112Y224461D01*
X96869Y224461D01*
Y216244D01*
X96552Y216032D01*
X94948D01*
X93466Y215418D01*
X92332Y214284D01*
X91718Y212802D01*
Y211198D01*
X92332Y209716D01*
X93466Y208582D01*
X94948Y207968D01*
X96552D01*
X96869Y207756D01*
Y205054D01*
X97083Y203981D01*
X97690Y203071D01*
X112793Y187969D01*
X113703Y187361D01*
X114776Y187147D01*
X141936D01*
X142422Y187244D01*
X161567D01*
X161695Y187052D01*
Y185448D01*
X162309Y183966D01*
X163443Y182832D01*
X164925Y182218D01*
X166529D01*
X168011Y182832D01*
X169145Y183966D01*
X169759Y185448D01*
Y187052D01*
X169887Y187244D01*
X190268D01*
X190631Y186881D01*
X191131Y186547D01*
X200137Y177541D01*
X199582Y176986D01*
X198968Y175504D01*
Y173900D01*
X199582Y172418D01*
X200716Y171284D01*
X202198Y170670D01*
X203802D01*
X205284Y171284D01*
X206418Y172418D01*
X207032Y173900D01*
Y175504D01*
X206418Y176986D01*
X205687Y177718D01*
Y178477D01*
X205482Y179505D01*
X204900Y180377D01*
X194930Y190346D01*
X194596Y190846D01*
X193412Y192031D01*
X192502Y192638D01*
X191429Y192852D01*
X144458D01*
X144394Y192947D01*
Y194551D01*
X143780Y196033D01*
X142646Y197167D01*
X141164Y197781D01*
X139560D01*
X138078Y197167D01*
X136944Y196033D01*
X136330Y194551D01*
Y192947D01*
X136202Y192755D01*
X115937D01*
X102477Y206215D01*
Y227616D01*
X116419Y241558D01*
X116861Y242220D01*
X117016Y243000D01*
Y284790D01*
X117306D01*
X118787Y285404D01*
X119922Y286538D01*
X120536Y288020D01*
Y289624D01*
X119922Y291106D01*
X118787Y292241D01*
X117306Y292854D01*
X116947D01*
X116899Y292924D01*
X116571Y293688D01*
X116474Y294124D01*
X116505Y294170D01*
X116619Y294274D01*
X116724Y294497D01*
X116861Y294703D01*
X116891Y294854D01*
X116957Y294994D01*
X116968Y295241D01*
X117016Y295483D01*
Y302750D01*
X117016Y302750D01*
X116861Y303531D01*
X116419Y304192D01*
X116419Y304192D01*
X106669Y313942D01*
X106007Y314384D01*
X105227Y314539D01*
X102111D01*
X101839Y314485D01*
X101561Y314464D01*
X101452Y314408D01*
X101331Y314384D01*
X101100Y314229D01*
X100851Y314103D01*
X100772Y314010D01*
X100669Y313942D01*
X100515Y313710D01*
X100334Y313499D01*
X99620Y312229D01*
X99582Y312112D01*
X99514Y312010D01*
X99459Y311737D01*
X99373Y311473D01*
X99382Y311350D01*
X99358Y311230D01*
X99413Y310957D01*
X99434Y310679D01*
X99490Y310570D01*
X99514Y310450D01*
X99743Y309896D01*
Y309104D01*
X99439Y308371D01*
X98991Y307923D01*
X98833Y307686D01*
X98649Y307469D01*
X98614Y307358D01*
X98549Y307261D01*
X98494Y306982D01*
X98450Y306964D01*
X98330Y306928D01*
X97528Y306863D01*
X97183Y306922D01*
X97093Y307133D01*
X96875Y307450D01*
X96660Y307772D01*
X96061Y308371D01*
X95757Y309104D01*
Y309896D01*
X95986Y310450D01*
X96010Y310570D01*
X96066Y310679D01*
X96087Y310957D01*
X96142Y311230D01*
X96118Y311350D01*
X96127Y311473D01*
X96041Y311737D01*
X95986Y312010D01*
X95918Y312112D01*
X95880Y312229D01*
X95166Y313499D01*
X94985Y313710D01*
X94831Y313942D01*
X94728Y314010D01*
X94649Y314103D01*
X94400Y314229D01*
X94169Y314384D01*
X94049Y314408D01*
X93939Y314464D01*
X93661Y314485D01*
X93389Y314539D01*
X89637D01*
X89440Y314500D01*
X89239D01*
X89054Y314423D01*
X88857Y314384D01*
X88690Y314272D01*
X88504Y314196D01*
X88362Y314053D01*
X88195Y313942D01*
X88084Y313775D01*
X87942Y313633D01*
X87934Y313615D01*
X87342Y313448D01*
X87336Y313447D01*
X87164D01*
X87158Y313448D01*
X86566Y313615D01*
X86558Y313633D01*
X86416Y313775D01*
X86305Y313942D01*
X86138Y314053D01*
X85996Y314196D01*
X85810Y314272D01*
X85643Y314384D01*
X85446Y314423D01*
X85260Y314500D01*
X85060D01*
X84863Y314539D01*
X80093D01*
X79802Y314481D01*
X79507Y314453D01*
X79415Y314404D01*
X79313Y314384D01*
X79066Y314219D01*
X78804Y314080D01*
X78685Y313965D01*
X78651Y313942D01*
X77439Y313835D01*
X77126Y313969D01*
X76432Y314501D01*
X74762Y315193D01*
X74629Y315689D01*
X74670Y316530D01*
X75284Y316784D01*
X76418Y317918D01*
X77032Y319400D01*
Y321004D01*
X76418Y322486D01*
X75284Y323620D01*
X73802Y324234D01*
X73414D01*
Y353387D01*
X81773Y361746D01*
X90565D01*
X90695Y361552D01*
Y359948D01*
X91309Y358466D01*
X91986Y357789D01*
X91765Y356343D01*
X90943Y356002D01*
X89809Y354868D01*
X89195Y353386D01*
Y351782D01*
X89809Y350300D01*
X90943Y349166D01*
X92425Y348552D01*
X94029D01*
X95511Y349166D01*
X96645Y350300D01*
X97044Y351263D01*
X98106Y352198D01*
X99710D01*
X101192Y352812D01*
X102326Y353946D01*
X102940Y355428D01*
Y357032D01*
X102326Y358514D01*
X101192Y359648D01*
X99710Y360262D01*
X98759D01*
Y361552D01*
X98889Y361746D01*
X105681D01*
X110031Y357397D01*
X110903Y356814D01*
X111931Y356610D01*
X114601D01*
X116390Y354820D01*
X117262Y354238D01*
X117595Y354172D01*
X117607Y354143D01*
X118741Y353009D01*
X120223Y352395D01*
X121827D01*
X123309Y353009D01*
X124443Y354143D01*
X125057Y355625D01*
Y357229D01*
X124443Y358711D01*
X123658Y359496D01*
X123978Y359817D01*
X124592Y361299D01*
Y362903D01*
X123978Y364384D01*
X122844Y365519D01*
X122726Y365568D01*
X122172Y367172D01*
X122433Y367802D01*
Y369406D01*
X121819Y370888D01*
X120685Y372022D01*
X119203Y372636D01*
D02*
G37*
G36*
X180045Y362571D02*
X177645D01*
X175428Y361653D01*
X173732Y359956D01*
X172813Y357739D01*
Y355339D01*
X173353Y354035D01*
X172817Y352740D01*
Y350341D01*
X173735Y348124D01*
X174370Y347489D01*
X174363Y345731D01*
X173494Y344861D01*
X172576Y342645D01*
Y340245D01*
X172712Y339915D01*
X172376Y339281D01*
X170821Y339040D01*
X165669Y344192D01*
X165007Y344634D01*
X164227Y344789D01*
X128150D01*
X127370Y344634D01*
X126708Y344192D01*
X126266Y343531D01*
X126111Y342750D01*
Y342516D01*
X125808Y341783D01*
X125247Y341223D01*
X124515Y340919D01*
X123722D01*
X122999Y341219D01*
X122683Y341282D01*
X122504Y341332D01*
X122493Y341387D01*
X122454Y341706D01*
X122416Y341775D01*
X122400Y341853D01*
X122126Y342516D01*
Y342750D01*
X121970Y343531D01*
X121528Y344192D01*
X120867Y344634D01*
X120086Y344789D01*
X82227D01*
X82227Y344789D01*
X81447Y344634D01*
X80785Y344192D01*
X80785Y344192D01*
X77785Y341192D01*
X77343Y340531D01*
X77188Y339750D01*
Y327500D01*
X77343Y326720D01*
X77785Y326058D01*
X77785Y326058D01*
X80345Y323499D01*
X79332Y322486D01*
X78718Y321004D01*
Y319400D01*
X79332Y317918D01*
X80466Y316784D01*
X81948Y316170D01*
X83552D01*
X85034Y316784D01*
X86168Y317918D01*
X86497Y318711D01*
X108882D01*
X121938Y305655D01*
Y299475D01*
X122093Y298695D01*
X122388Y298254D01*
X122743Y297396D01*
Y296604D01*
X122388Y295746D01*
X122093Y295305D01*
X121938Y294525D01*
X121938Y240345D01*
X120386Y238793D01*
X120386Y238793D01*
X119944Y238132D01*
X119789Y237351D01*
X119944Y236571D01*
X120386Y235909D01*
X121166Y235129D01*
X121470Y234396D01*
Y233604D01*
X121166Y232871D01*
X120606Y232311D01*
X119873Y232007D01*
X119081D01*
X118348Y232311D01*
X117568Y233091D01*
X116906Y233533D01*
X116126Y233688D01*
X115346Y233533D01*
X114684Y233091D01*
X114684Y233091D01*
X106785Y225192D01*
X106343Y224531D01*
X106188Y223750D01*
X106188Y210500D01*
X106188Y210500D01*
X106343Y209720D01*
X106785Y209058D01*
X113035Y202808D01*
X113697Y202366D01*
X114477Y202211D01*
X123091D01*
X123169Y202095D01*
Y200491D01*
X123783Y199009D01*
X124917Y197875D01*
X126399Y197261D01*
X128003D01*
X129485Y197875D01*
X130619Y199009D01*
X131233Y200491D01*
Y202095D01*
X131311Y202211D01*
X146477D01*
X146477Y202211D01*
X147257Y202366D01*
X147919Y202808D01*
X147919Y202808D01*
X151405Y206294D01*
X151847Y206956D01*
X151861Y207025D01*
X152306Y208099D01*
X152866Y208660D01*
X153941Y209104D01*
X154009Y209118D01*
X154671Y209560D01*
X154671Y209560D01*
X157419Y212308D01*
X157861Y212970D01*
X158016Y213750D01*
Y226655D01*
X170322Y238961D01*
X200550D01*
X201330Y239116D01*
X201992Y239558D01*
X202434Y240220D01*
X202811Y241129D01*
X203371Y241689D01*
X204104Y241993D01*
X204896D01*
X205629Y241689D01*
X206189Y241129D01*
X206566Y240220D01*
X207008Y239558D01*
X207670Y239116D01*
X208450Y238961D01*
X221550D01*
X221565Y238964D01*
X222082Y237716D01*
X222593Y237205D01*
X223092Y236375D01*
X222593Y235545D01*
X222082Y235034D01*
X221468Y233552D01*
Y231948D01*
X222082Y230466D01*
X223216Y229332D01*
X224698Y228718D01*
X226302D01*
X227784Y229332D01*
X228918Y230466D01*
X229532Y231948D01*
Y233552D01*
X228918Y235034D01*
X228407Y235545D01*
X227908Y236375D01*
X228407Y237205D01*
X228918Y237716D01*
X229435Y238964D01*
X229450Y238961D01*
X238477D01*
X239257Y239116D01*
X239919Y239558D01*
X249669Y249308D01*
X250111Y249970D01*
X250266Y250750D01*
Y251214D01*
X250266Y251214D01*
X250111Y251994D01*
X249669Y252656D01*
X249669Y252656D01*
X249561Y252764D01*
X249257Y253497D01*
Y254289D01*
X249561Y255022D01*
X249669Y255130D01*
X250111Y255792D01*
X250266Y256572D01*
Y258718D01*
X251802D01*
X253151Y257902D01*
X253332Y257466D01*
X254466Y256332D01*
X255948Y255718D01*
X256267D01*
X257218Y254695D01*
Y253091D01*
X257832Y251609D01*
X258966Y250475D01*
X260448Y249861D01*
X262052D01*
X263534Y250475D01*
X264668Y251609D01*
X265282Y253091D01*
Y254695D01*
X264668Y256177D01*
X263937Y256909D01*
Y269459D01*
X263732Y270487D01*
X263150Y271358D01*
X243858Y290650D01*
X242987Y291232D01*
X241959Y291437D01*
X227489D01*
X226052Y292032D01*
X224448D01*
X222966Y291418D01*
X221832Y290284D01*
X221631Y289799D01*
X220231Y289630D01*
X211992Y297869D01*
X211825Y297980D01*
X211683Y298122D01*
X211498Y298199D01*
X211331Y298311D01*
X211134Y298350D01*
X210948Y298427D01*
X210747Y298427D01*
X210550Y298466D01*
X210418Y298440D01*
X210418D01*
X210353Y298427D01*
X210152Y298427D01*
X210020Y298400D01*
X209835Y298324D01*
X209638Y298284D01*
X209471Y298173D01*
X209285Y298096D01*
X209143Y297954D01*
X208976Y297842D01*
X208129Y296995D01*
X207396Y296692D01*
X206604D01*
X205871Y296995D01*
X205311Y297556D01*
X205007Y298288D01*
Y299081D01*
X205311Y299813D01*
X206158Y300661D01*
X206270Y300828D01*
X206411Y300970D01*
X206488Y301155D01*
X206600Y301322D01*
X206639Y301519D01*
X206716Y301705D01*
X206742Y301837D01*
X206742Y302038D01*
X206782Y302235D01*
X206742Y302432D01*
X206742Y302632D01*
X206665Y302818D01*
X206626Y303015D01*
X206515Y303182D01*
X206438Y303368D01*
X206296Y303510D01*
X206184Y303677D01*
X190280Y319581D01*
X190113Y319692D01*
X189971Y319834D01*
X189785Y319911D01*
X189618Y320023D01*
X189422Y320062D01*
X189236Y320139D01*
X189035D01*
X188838Y320178D01*
X188641Y320139D01*
X188440D01*
X187195Y319891D01*
X187009Y319814D01*
X186812Y319775D01*
X186645Y319664D01*
X186460Y319587D01*
X186318Y319445D01*
X186151Y319333D01*
X186039Y319166D01*
X185897Y319024D01*
X185820Y318838D01*
X185709Y318671D01*
X185690Y318628D01*
X185130Y318067D01*
X184397Y317764D01*
X183605D01*
X182872Y318067D01*
X182312Y318628D01*
X182008Y319360D01*
Y320153D01*
X182312Y320885D01*
X182872Y321446D01*
X182916Y321464D01*
X183083Y321576D01*
X183269Y321652D01*
X183411Y321795D01*
X183578Y321906D01*
X183689Y322073D01*
X183831Y322215D01*
X183908Y322401D01*
X184020Y322568D01*
X184059Y322765D01*
X184136Y322950D01*
X184383Y324196D01*
Y324397D01*
X184423Y324594D01*
X184383Y324791D01*
Y324991D01*
X184307Y325177D01*
X184267Y325374D01*
X184156Y325541D01*
X184079Y325727D01*
X183937Y325869D01*
X183825Y326036D01*
X180884Y328977D01*
X180355Y329330D01*
X180279Y329952D01*
X180357Y330687D01*
X182024Y331378D01*
X183721Y333075D01*
X184640Y335292D01*
Y337691D01*
X184111Y338968D01*
X184640Y340245D01*
Y342645D01*
X183721Y344861D01*
X183086Y345497D01*
X183094Y347255D01*
X183963Y348124D01*
X184881Y350341D01*
Y352740D01*
X184341Y354044D01*
X184877Y355339D01*
Y357739D01*
X183959Y359956D01*
X182262Y361653D01*
X180045Y362571D01*
D02*
G37*
G36*
X280224Y348749D02*
X280050D01*
Y333249D01*
X295550D01*
Y333423D01*
X294897Y336707D01*
X293615Y339801D01*
X291755Y342585D01*
X289387Y344953D01*
X286602Y346814D01*
X283509Y348095D01*
X280224Y348749D01*
D02*
G37*
G36*
X277050D02*
X276876D01*
X273591Y348095D01*
X270497Y346814D01*
X267713Y344953D01*
X265345Y342585D01*
X263485Y339801D01*
X262203Y336707D01*
X261550Y333423D01*
Y333249D01*
X277050D01*
Y348749D01*
D02*
G37*
G36*
X369153Y326282D02*
X366754D01*
X365477Y325753D01*
X364200Y326282D01*
X361801D01*
X359584Y325364D01*
X357887Y323667D01*
X356969Y321450D01*
Y319050D01*
X357887Y316833D01*
X359584Y315137D01*
X361801Y314218D01*
X364200D01*
X365477Y314747D01*
X366754Y314218D01*
X369153D01*
X371371Y315137D01*
X373067Y316833D01*
X373986Y319050D01*
Y321450D01*
X373067Y323667D01*
X371371Y325364D01*
X369153Y326282D01*
D02*
G37*
G36*
X295550Y330249D02*
X280050D01*
Y314749D01*
X280224D01*
X283509Y315402D01*
X286602Y316683D01*
X289387Y318544D01*
X291755Y320912D01*
X293615Y323696D01*
X294897Y326790D01*
X295550Y330074D01*
Y330249D01*
D02*
G37*
G36*
X277050D02*
X261550D01*
Y330074D01*
X262203Y326790D01*
X263485Y323696D01*
X265345Y320912D01*
X267713Y318544D01*
X270497Y316683D01*
X273591Y315402D01*
X276876Y314749D01*
X277050D01*
Y330249D01*
D02*
G37*
G36*
X67150Y315515D02*
X64650D01*
X62692Y315257D01*
X60868Y314501D01*
X59301Y313299D01*
X58099Y311732D01*
X57343Y309908D01*
X57283Y309450D01*
X67150D01*
Y315515D01*
D02*
G37*
G36*
X21550D02*
X16550D01*
Y309450D01*
X28917D01*
X28857Y309908D01*
X28101Y311732D01*
X26899Y313299D01*
X25332Y314501D01*
X23508Y315257D01*
X21550Y315515D01*
D02*
G37*
G36*
X384278Y304032D02*
X381879D01*
X380602Y303503D01*
X379325Y304032D01*
X376926D01*
X374709Y303114D01*
X373012Y301417D01*
X372094Y299200D01*
Y296800D01*
X373012Y294583D01*
X374709Y292886D01*
X376926Y291968D01*
X379325D01*
X380602Y292497D01*
X381879Y291968D01*
X384278D01*
X386495Y292886D01*
X388192Y294583D01*
X389111Y296800D01*
Y299200D01*
X388192Y301417D01*
X386495Y303114D01*
X384278Y304032D01*
D02*
G37*
G36*
X623300Y311227D02*
X620900D01*
X618683Y310308D01*
X616986Y308611D01*
X616068Y306394D01*
Y303995D01*
X616597Y302718D01*
X616068Y301441D01*
Y299042D01*
X616986Y296825D01*
X618683Y295128D01*
X620900Y294209D01*
X623300D01*
X625517Y295128D01*
X627214Y296825D01*
X628132Y299042D01*
Y301441D01*
X628067Y301597D01*
X628064Y301714D01*
X628251Y302001D01*
X629878Y302169D01*
X629966Y302082D01*
X631448Y301468D01*
X633052D01*
X634534Y302082D01*
X635668Y303216D01*
X636282Y304698D01*
Y306302D01*
X635668Y307784D01*
X634534Y308918D01*
X633052Y309532D01*
X631448D01*
X629966Y308918D01*
X628832Y307784D01*
X627507Y307904D01*
X627214Y308611D01*
X625517Y310308D01*
X623300Y311227D01*
D02*
G37*
G36*
X227802Y301914D02*
X226198D01*
X224716Y301300D01*
X224434Y301018D01*
X224284Y301168D01*
X222802Y301782D01*
X221198D01*
X219716Y301168D01*
X218582Y300034D01*
X217968Y298552D01*
Y296948D01*
X218582Y295466D01*
X219716Y294332D01*
X221198Y293718D01*
X222802D01*
X224284Y294332D01*
X224566Y294614D01*
X224716Y294464D01*
X226198Y293850D01*
X227802D01*
X229284Y294464D01*
X230418Y295598D01*
X231032Y297080D01*
Y298684D01*
X230418Y300166D01*
X229284Y301300D01*
X227802Y301914D01*
D02*
G37*
G36*
X28917Y306450D02*
X16550D01*
Y300385D01*
X21550D01*
X23508Y300643D01*
X25332Y301399D01*
X26899Y302601D01*
X28101Y304168D01*
X28857Y305992D01*
X28917Y306450D01*
D02*
G37*
G36*
X40052Y301532D02*
X38448D01*
X36966Y300918D01*
X35832Y299784D01*
X35218Y298302D01*
Y296698D01*
X35832Y295216D01*
X36966Y294082D01*
X38448Y293468D01*
X40052D01*
X41534Y294082D01*
X42668Y295216D01*
X43282Y296698D01*
Y298302D01*
X42668Y299784D01*
X41534Y300918D01*
X40052Y301532D01*
D02*
G37*
G36*
X633552Y299032D02*
X631948D01*
X630466Y298418D01*
X629332Y297284D01*
X628718Y295802D01*
Y294198D01*
X629332Y292716D01*
X630466Y291582D01*
X631948Y290968D01*
X633552D01*
X635034Y291582D01*
X636168Y292716D01*
X636782Y294198D01*
Y295802D01*
X636168Y297284D01*
X635034Y298418D01*
X633552Y299032D01*
D02*
G37*
G36*
X429153Y279032D02*
X426754D01*
X425477Y278503D01*
X424200Y279032D01*
X421801D01*
X419584Y278114D01*
X417887Y276417D01*
X416968Y274200D01*
Y271800D01*
X417887Y269583D01*
X419584Y267886D01*
X421801Y266968D01*
X424200D01*
X425477Y267497D01*
X426754Y266968D01*
X429153D01*
X431370Y267886D01*
X433067Y269583D01*
X433985Y271800D01*
Y274200D01*
X433067Y276417D01*
X431370Y278114D01*
X429153Y279032D01*
D02*
G37*
G36*
X633052Y277032D02*
X631448D01*
X629966Y276418D01*
X628832Y275284D01*
X628259Y273900D01*
X627768Y273665D01*
X626948Y273415D01*
X626022Y274340D01*
X623806Y275259D01*
X621406D01*
X619189Y274340D01*
X617492Y272643D01*
X616574Y270426D01*
Y268027D01*
X617100Y266757D01*
X616568Y265473D01*
Y263074D01*
X617486Y260857D01*
X619183Y259160D01*
X621400Y258242D01*
X623800D01*
X626017Y259160D01*
X626979Y260122D01*
X627205Y260136D01*
X628403Y259750D01*
X628832Y258716D01*
X629966Y257582D01*
X631448Y256968D01*
X633052D01*
X634534Y257582D01*
X635668Y258716D01*
X636282Y260198D01*
Y261802D01*
X635668Y263284D01*
X634534Y264418D01*
X633052Y265032D01*
X631448D01*
X629966Y264418D01*
X629902Y264354D01*
X628632Y264880D01*
Y265473D01*
X628106Y266743D01*
X628638Y268027D01*
Y269114D01*
X629908Y269640D01*
X629966Y269582D01*
X631448Y268968D01*
X633052D01*
X634534Y269582D01*
X635668Y270716D01*
X636282Y272198D01*
Y273802D01*
X635668Y275284D01*
X634534Y276418D01*
X633052Y277032D01*
D02*
G37*
G36*
X298802Y290782D02*
X297198D01*
X295716Y290168D01*
X294582Y289034D01*
X293968Y287552D01*
Y285948D01*
X294582Y284466D01*
X295716Y283332D01*
X297198Y282718D01*
X298067D01*
X327767Y253018D01*
X328677Y252410D01*
X329750Y252196D01*
X341579D01*
X342193Y251582D01*
X343675Y250968D01*
X345279D01*
X346761Y251582D01*
X347895Y252716D01*
X348509Y254198D01*
Y255802D01*
X347895Y257284D01*
X346761Y258418D01*
X345279Y259032D01*
X343675D01*
X342193Y258418D01*
X341579Y257804D01*
X330911D01*
X302032Y286683D01*
Y287552D01*
X301418Y289034D01*
X300284Y290168D01*
X298802Y290782D01*
D02*
G37*
G36*
X633735Y255032D02*
X632131D01*
X630649Y254418D01*
X629515Y253284D01*
X628901Y251802D01*
Y250198D01*
X629515Y248716D01*
X630649Y247582D01*
X632131Y246968D01*
X633735D01*
X635217Y247582D01*
X636351Y248716D01*
X636965Y250198D01*
Y251802D01*
X636351Y253284D01*
X635217Y254418D01*
X633735Y255032D01*
D02*
G37*
G36*
X311946Y257032D02*
X310342D01*
X308860Y256418D01*
X307726Y255284D01*
X307112Y253802D01*
Y252198D01*
X307726Y250716D01*
X308860Y249582D01*
X309635Y249261D01*
X309445Y248802D01*
Y247198D01*
X310059Y245716D01*
X311193Y244582D01*
X312675Y243968D01*
X314279D01*
X315761Y244582D01*
X316895Y245716D01*
X317509Y247198D01*
Y248802D01*
X316895Y250284D01*
X315761Y251418D01*
X314986Y251739D01*
X315176Y252198D01*
Y253802D01*
X314562Y255284D01*
X313428Y256418D01*
X311946Y257032D01*
D02*
G37*
G36*
X21550Y229115D02*
X16550D01*
Y223050D01*
X28917D01*
X28857Y223508D01*
X28101Y225332D01*
X26899Y226899D01*
X25332Y228101D01*
X23508Y228857D01*
X21550Y229115D01*
D02*
G37*
G36*
X226271Y224082D02*
X224667D01*
X223185Y223468D01*
X222051Y222334D01*
X221437Y220852D01*
Y219248D01*
X222051Y217766D01*
X223185Y216632D01*
X224667Y216018D01*
X226271D01*
X227753Y216632D01*
X228887Y217766D01*
X229501Y219248D01*
Y220852D01*
X228887Y222334D01*
X227753Y223468D01*
X226271Y224082D01*
D02*
G37*
G36*
X80017Y220050D02*
X70150D01*
Y213985D01*
X72650D01*
X74608Y214243D01*
X76432Y214999D01*
X77999Y216201D01*
X79201Y217768D01*
X79957Y219592D01*
X80017Y220050D01*
D02*
G37*
G36*
X67150D02*
X57283D01*
X57343Y219592D01*
X58099Y217768D01*
X59301Y216201D01*
X60868Y214999D01*
X62692Y214243D01*
X64650Y213985D01*
X67150D01*
Y220050D01*
D02*
G37*
G36*
X28917D02*
X16550D01*
Y213985D01*
X21550D01*
X23508Y214243D01*
X25332Y214999D01*
X26899Y216201D01*
X28101Y217768D01*
X28857Y219592D01*
X28917Y220050D01*
D02*
G37*
G36*
X226302Y213782D02*
X224698D01*
X223216Y213168D01*
X222082Y212034D01*
X221468Y210552D01*
Y208948D01*
X222082Y207466D01*
X223216Y206332D01*
X224698Y205718D01*
X226302D01*
X227784Y206332D01*
X228918Y207466D01*
X229532Y208948D01*
Y210552D01*
X228918Y212034D01*
X227784Y213168D01*
X226302Y213782D01*
D02*
G37*
G36*
Y204032D02*
X224698D01*
X223216Y203418D01*
X222082Y202284D01*
X221468Y200802D01*
Y199198D01*
X222082Y197716D01*
X223216Y196582D01*
X224698Y195968D01*
X226302D01*
X227784Y196582D01*
X228918Y197716D01*
X229532Y199198D01*
Y200802D01*
X228918Y202284D01*
X227784Y203418D01*
X226302Y204032D01*
D02*
G37*
G36*
X132279Y371782D02*
X130675D01*
X129193Y371168D01*
X128059Y370034D01*
X127445Y368552D01*
Y366948D01*
X128059Y365466D01*
X129193Y364332D01*
X130675Y363718D01*
X132279D01*
X133761Y364332D01*
X134120Y364691D01*
X201960D01*
X226471Y340181D01*
Y315948D01*
X226471Y315948D01*
X226703Y314777D01*
X227367Y313785D01*
X296168Y244983D01*
Y195039D01*
X273477Y195039D01*
X273477Y195039D01*
X272697Y194884D01*
X272035Y194442D01*
X272035Y194442D01*
X235202Y157609D01*
X234125Y158328D01*
X234532Y159310D01*
Y160914D01*
X233918Y162396D01*
X232784Y163530D01*
X231302Y164144D01*
X229698D01*
X228216Y163530D01*
X227082Y162396D01*
X226468Y160914D01*
Y159310D01*
X227082Y157828D01*
X227823Y157087D01*
X227722Y155741D01*
X227649Y155602D01*
X226802Y154754D01*
X225765Y155008D01*
X225532Y155143D01*
Y156302D01*
X224918Y157784D01*
X223827Y158875D01*
X224668Y159716D01*
X225282Y161198D01*
Y162802D01*
X224668Y164284D01*
X223534Y165418D01*
X222052Y166032D01*
X220448D01*
X220207Y165932D01*
X218937Y166781D01*
Y174952D01*
X220207Y175775D01*
X220948Y175468D01*
X222552D01*
X224034Y176082D01*
X225168Y177216D01*
X225782Y178698D01*
Y180302D01*
X225168Y181784D01*
X224034Y182918D01*
X222552Y183532D01*
X220948D01*
X220207Y183225D01*
X218937Y184048D01*
Y204650D01*
X218732Y205678D01*
X218150Y206550D01*
X208708Y215992D01*
X208173Y217284D01*
X207038Y218418D01*
X205556Y219032D01*
X203952D01*
X202470Y218418D01*
X201336Y217284D01*
X200722Y215802D01*
Y214198D01*
X201301Y212801D01*
X200784Y212284D01*
X200170Y210802D01*
Y209198D01*
X200784Y207716D01*
X201918Y206582D01*
X203400Y205968D01*
X205004D01*
X206486Y206582D01*
X206552Y206648D01*
X210563Y202637D01*
Y169030D01*
X209293Y168222D01*
X208527Y168539D01*
X206923D01*
X205441Y167925D01*
X204307Y166791D01*
X203693Y165309D01*
Y163705D01*
X204307Y162223D01*
X205441Y161089D01*
X206923Y160475D01*
X208527D01*
X209293Y160793D01*
X210563Y159984D01*
Y150000D01*
X210768Y148972D01*
X211350Y148100D01*
X216666Y142785D01*
Y141948D01*
X217280Y140466D01*
X217670Y140077D01*
X206990Y129397D01*
X206978Y129378D01*
X206959Y129366D01*
X206757Y129048D01*
X206548Y128736D01*
X206544Y128714D01*
X206532Y128695D01*
X206466Y128324D01*
X206393Y127955D01*
X206397Y127933D01*
X206394Y127911D01*
X206475Y127544D01*
X206548Y127175D01*
X205847Y126222D01*
X205716Y126168D01*
X204582Y125034D01*
X204528Y124903D01*
X203575Y124202D01*
X203206Y124275D01*
X202839Y124356D01*
X202817Y124353D01*
X202795Y124357D01*
X202426Y124284D01*
X202055Y124218D01*
X202036Y124206D01*
X202014Y124202D01*
X201702Y123993D01*
X201384Y123791D01*
X201371Y123772D01*
X201353Y123760D01*
X193132Y115539D01*
X138227Y115539D01*
X138227Y115539D01*
X137446Y115384D01*
X136785Y114942D01*
X128386Y106543D01*
X126924Y106877D01*
X124841Y109592D01*
X121813Y111916D01*
X118285Y113377D01*
X114500Y113875D01*
X106000D01*
Y99250D01*
X104500D01*
Y97750D01*
X80072D01*
X80373Y95465D01*
X81834Y91938D01*
X84158Y88909D01*
X87187Y86584D01*
X90715Y85123D01*
X93422Y84767D01*
X93586Y84446D01*
X93757Y83442D01*
X92849Y82534D01*
X92235Y81052D01*
Y79448D01*
X92849Y77966D01*
X93983Y76832D01*
X95465Y76218D01*
X97069D01*
X98551Y76832D01*
X99685Y77966D01*
X99996Y78716D01*
X101198Y78218D01*
X102802D01*
X104284Y78832D01*
X104764Y79312D01*
X106188Y78722D01*
X106188Y63475D01*
X106343Y62695D01*
X106785Y62033D01*
X107447Y61591D01*
X108259Y61255D01*
X107968Y60552D01*
Y58948D01*
X108582Y57466D01*
X109716Y56332D01*
X111198Y55718D01*
X112233D01*
X114530Y53421D01*
X114004Y52151D01*
X110899D01*
X88282Y74767D01*
Y75802D01*
X87668Y77284D01*
X86534Y78418D01*
X85052Y79032D01*
X83448D01*
X81966Y78418D01*
X80832Y77284D01*
X80218Y75802D01*
Y74198D01*
X80832Y72716D01*
X81966Y71582D01*
X83448Y70968D01*
X84483D01*
X107886Y47564D01*
X108758Y46982D01*
X109786Y46777D01*
X153464D01*
X154492Y46982D01*
X155364Y47564D01*
X162363Y54563D01*
X164969D01*
X165818Y53293D01*
X165718Y53052D01*
Y51448D01*
X166332Y49966D01*
X165330Y49319D01*
X164966Y49168D01*
X163832Y48034D01*
X163218Y46552D01*
Y44948D01*
X163832Y43466D01*
X164966Y42332D01*
X166306Y41777D01*
X165695Y40302D01*
Y39532D01*
X165122D01*
X163640Y38918D01*
X162506Y37784D01*
X161892Y36302D01*
Y34698D01*
X162506Y33216D01*
X163640Y32082D01*
X165122Y31468D01*
X166726D01*
X168208Y32082D01*
X168939Y32813D01*
X174750D01*
X175350Y31618D01*
X174737Y30136D01*
Y28532D01*
X175350Y27050D01*
X176485Y25916D01*
X177967Y25302D01*
X179571D01*
X181053Y25916D01*
X181412Y26276D01*
X183800D01*
X184398Y25876D01*
X185568Y25643D01*
X185568Y25643D01*
X214870D01*
X214870Y25643D01*
X216041Y25876D01*
X217033Y26539D01*
X217212Y26718D01*
X218279D01*
X219761Y27332D01*
X220120Y27691D01*
X249960D01*
X256553Y21098D01*
X256552Y21051D01*
X256162Y19828D01*
X132939D01*
X118134Y34634D01*
X117936Y34766D01*
X117534Y35168D01*
X117008Y35386D01*
X116811Y35518D01*
X116578Y35564D01*
X116052Y35782D01*
X115483D01*
X115250Y35828D01*
X115017Y35782D01*
X114448D01*
X113922Y35564D01*
X113689Y35518D01*
X113492Y35386D01*
X112966Y35168D01*
X112564Y34766D01*
X112366Y34634D01*
X112234Y34436D01*
X111832Y34034D01*
X111614Y33508D01*
X111482Y33311D01*
X111436Y33078D01*
X111218Y32552D01*
Y31983D01*
X111172Y31750D01*
X111218Y31517D01*
Y30948D01*
X111436Y30422D01*
X111482Y30189D01*
X111614Y29992D01*
X111832Y29466D01*
X112234Y29064D01*
X112366Y28866D01*
X128366Y12866D01*
X128366Y12866D01*
X129689Y11982D01*
X131250Y11672D01*
X131250Y11672D01*
X291000D01*
X291000Y11672D01*
X292561Y11982D01*
X293884Y12866D01*
X293939Y12922D01*
X322250D01*
X322483Y12968D01*
X323052D01*
X323578Y13186D01*
X323811Y13232D01*
X324008Y13364D01*
X324534Y13582D01*
X324936Y13984D01*
X325134Y14116D01*
X325266Y14314D01*
X325668Y14716D01*
X325886Y15242D01*
X326018Y15439D01*
X326064Y15672D01*
X326282Y16198D01*
Y16767D01*
X326328Y17000D01*
X326282Y17233D01*
Y17802D01*
X326064Y18328D01*
X326018Y18561D01*
X325886Y18758D01*
X325668Y19284D01*
X325266Y19686D01*
X325134Y19884D01*
X324936Y20016D01*
X324534Y20418D01*
X324008Y20636D01*
X323811Y20768D01*
X323578Y20814D01*
X323052Y21032D01*
X322483D01*
X322250Y21078D01*
X316533D01*
X316333Y22265D01*
X317815Y22879D01*
X318949Y24013D01*
X319563Y25495D01*
Y27099D01*
X318949Y28581D01*
X317815Y29715D01*
X316333Y30329D01*
X314729D01*
X314179Y30101D01*
X313872Y30222D01*
X313005Y30990D01*
Y32169D01*
X312878Y32476D01*
X313727Y33746D01*
X361660D01*
X362688Y33951D01*
X363560Y34533D01*
X381267Y52241D01*
X381925Y51968D01*
X382960D01*
X383260Y51667D01*
X384132Y51085D01*
X385160Y50880D01*
X439859D01*
X440887Y51085D01*
X441758Y51667D01*
X443654Y53563D01*
X579250D01*
X580278Y53768D01*
X581150Y54350D01*
X629650Y102850D01*
X630232Y103722D01*
X630437Y104750D01*
Y120452D01*
X631707Y121275D01*
X632448Y120968D01*
X634052D01*
X635534Y121582D01*
X636668Y122716D01*
X637282Y124198D01*
Y125802D01*
X636668Y127284D01*
X635534Y128418D01*
X634052Y129032D01*
X634004D01*
Y131588D01*
X634198Y131718D01*
X635802D01*
X637284Y132332D01*
X638418Y133466D01*
X639032Y134948D01*
Y135983D01*
X640150Y137100D01*
X640732Y137972D01*
X640937Y139000D01*
Y220000D01*
X640732Y221028D01*
X640150Y221900D01*
X630282Y231767D01*
Y233168D01*
X629668Y234650D01*
X628534Y235784D01*
X627052Y236398D01*
X626532D01*
Y237802D01*
X625918Y239284D01*
X624784Y240418D01*
X623302Y241032D01*
X622267D01*
X616658Y246642D01*
Y248487D01*
X616453Y249515D01*
X615871Y250387D01*
X608664Y257594D01*
Y284000D01*
X608459Y285028D01*
X607877Y285900D01*
X587127Y306650D01*
X586255Y307232D01*
X585227Y307437D01*
X457093D01*
X456065Y307232D01*
X455193Y306650D01*
X451327Y302784D01*
X450745Y301912D01*
X450540Y300884D01*
Y296954D01*
X450204Y296617D01*
X449590Y295135D01*
Y293531D01*
X449606Y293493D01*
X448900Y292437D01*
X447525D01*
X446702Y293707D01*
X447009Y294448D01*
Y296052D01*
X446395Y297534D01*
X445261Y298668D01*
X443779Y299282D01*
X442175D01*
X440693Y298668D01*
X439962Y297937D01*
X439477D01*
X438449Y297732D01*
X437577Y297150D01*
X436364Y295937D01*
X418631D01*
X417418Y297150D01*
X416547Y297732D01*
X415518Y297937D01*
X414492D01*
X413761Y298668D01*
X412279Y299282D01*
X410675D01*
X409193Y298668D01*
X408059Y297534D01*
X407445Y296052D01*
Y294448D01*
X408059Y292966D01*
X409193Y291832D01*
X410675Y291218D01*
X411154Y290141D01*
X410604Y289032D01*
X410022Y289032D01*
X408365D01*
X406995Y288465D01*
X405625Y289032D01*
X403226D01*
X401009Y288114D01*
X399312Y286417D01*
X398394Y284200D01*
Y281800D01*
X399312Y279583D01*
X401009Y277886D01*
X403226Y276968D01*
X405625D01*
X406995Y277535D01*
X408365Y276968D01*
X410764D01*
X412981Y277886D01*
X414678Y279583D01*
X415597Y281800D01*
Y284200D01*
X415374Y284738D01*
X416029Y285718D01*
X417511Y286332D01*
X418242Y287064D01*
X460371D01*
X461399Y287268D01*
X462271Y287850D01*
X467930Y293510D01*
X468965D01*
X470447Y294124D01*
X471581Y295258D01*
X472195Y296740D01*
Y298344D01*
X472487Y298781D01*
X472775D01*
X473957Y297569D01*
Y296965D01*
X474571Y295483D01*
X475705Y294349D01*
X477187Y293735D01*
X478791D01*
X480273Y294349D01*
X480475Y294550D01*
X480693Y294332D01*
X482175Y293718D01*
X483779D01*
X484703Y292880D01*
X485082Y291966D01*
X485944Y291104D01*
X485892Y290008D01*
X485751Y289650D01*
X485193Y289418D01*
X484059Y288284D01*
X483445Y286802D01*
Y285768D01*
X479529Y281852D01*
X478259Y282378D01*
Y283052D01*
X477645Y284534D01*
X476511Y285668D01*
X475029Y286282D01*
X473425D01*
X471943Y285668D01*
X471212Y284937D01*
X451477D01*
X450449Y284732D01*
X449577Y284150D01*
X416840Y251413D01*
X416258Y250541D01*
X416053Y249513D01*
Y206968D01*
X415859Y206838D01*
X414255D01*
X412773Y206224D01*
X411639Y205090D01*
X411025Y203608D01*
Y202004D01*
X411639Y200522D01*
X412773Y199388D01*
X414255Y198774D01*
X415733D01*
Y186500D01*
X415002Y185768D01*
X414388Y184286D01*
Y182682D01*
X415002Y181201D01*
X416136Y180066D01*
X417618Y179452D01*
X419222D01*
X419697Y179135D01*
Y132020D01*
X409864Y122187D01*
X336727D01*
X335699Y121982D01*
X334827Y121400D01*
X307539Y94112D01*
X306957Y93240D01*
X306752Y92212D01*
Y64107D01*
X306021Y63375D01*
X305407Y61893D01*
Y60289D01*
X306021Y58807D01*
X307155Y57673D01*
X308637Y57059D01*
X310241D01*
X311723Y57673D01*
X312857Y58807D01*
X313471Y60289D01*
Y61893D01*
X312857Y63375D01*
X312126Y64107D01*
Y91099D01*
X337840Y116813D01*
X347355D01*
X347841Y115640D01*
X328827Y96627D01*
X328245Y95755D01*
X328040Y94727D01*
Y84863D01*
X317577Y74400D01*
X316995Y73528D01*
X316790Y72500D01*
Y58741D01*
X310736Y52687D01*
X183032D01*
Y53052D01*
X182418Y54534D01*
X181284Y55668D01*
X179802Y56282D01*
X178995D01*
X176127Y59150D01*
X175255Y59732D01*
X174227Y59937D01*
X161250D01*
X160222Y59732D01*
X159350Y59150D01*
X152351Y52151D01*
X149996D01*
X149470Y53421D01*
X164363Y68313D01*
X254477D01*
X255505Y68518D01*
X256377Y69100D01*
X282590Y95314D01*
X301977D01*
X303005Y95518D01*
X303877Y96100D01*
X339377Y131600D01*
X339959Y132472D01*
X340164Y133500D01*
Y196235D01*
X340895Y196966D01*
X341509Y198448D01*
Y200052D01*
X340895Y201534D01*
X339761Y202668D01*
X338279Y203282D01*
X336675D01*
X335193Y202668D01*
X334059Y201534D01*
X333445Y200052D01*
Y198448D01*
X334059Y196966D01*
X334790Y196235D01*
Y134613D01*
X300864Y100687D01*
X284957D01*
X284471Y101860D01*
X306919Y124308D01*
X307361Y124970D01*
X307516Y125750D01*
X307516Y189000D01*
X307361Y189780D01*
X306919Y190442D01*
X302919Y194442D01*
X302919Y194442D01*
X302286Y194865D01*
Y246250D01*
X302286Y246250D01*
X302053Y247421D01*
X301390Y248413D01*
X232588Y317215D01*
Y341448D01*
X232588Y341448D01*
X232355Y342618D01*
X231692Y343611D01*
X205390Y369913D01*
X204398Y370576D01*
X203227Y370809D01*
X203227Y370809D01*
X134120D01*
X133761Y371168D01*
X132279Y371782D01*
D02*
G37*
G36*
X257159Y202324D02*
X255555D01*
X254073Y201710D01*
X252939Y200576D01*
X252574Y199696D01*
X251646D01*
X250163Y199082D01*
X249029Y197948D01*
X248416Y196466D01*
Y194862D01*
X249029Y193380D01*
X250163Y192246D01*
X251646Y191632D01*
X253249D01*
X254731Y192246D01*
X255529Y193043D01*
X256283Y193271D01*
X257106Y193056D01*
X257884Y192278D01*
X259366Y191665D01*
X260970D01*
X262452Y192278D01*
X263586Y193413D01*
X264200Y194895D01*
Y196499D01*
X263586Y197980D01*
X262452Y199115D01*
X260970Y199729D01*
X260126D01*
X259775Y200576D01*
X258641Y201710D01*
X257159Y202324D01*
D02*
G37*
G36*
X121552Y180282D02*
X119948D01*
X118466Y179668D01*
X117332Y178534D01*
X116718Y177052D01*
Y175448D01*
X117332Y173966D01*
X118466Y172832D01*
X119948Y172218D01*
X121552D01*
X123034Y172832D01*
X124168Y173966D01*
X124782Y175448D01*
Y177052D01*
X124168Y178534D01*
X123034Y179668D01*
X121552Y180282D01*
D02*
G37*
G36*
X75750Y171928D02*
Y149000D01*
X88875D01*
Y157500D01*
X88377Y161285D01*
X86916Y164813D01*
X84592Y167841D01*
X81563Y170166D01*
X78035Y171627D01*
X75750Y171928D01*
D02*
G37*
G36*
X72750D02*
X70465Y171627D01*
X66937Y170166D01*
X63909Y167841D01*
X61584Y164813D01*
X60123Y161285D01*
X59625Y157500D01*
Y149000D01*
X72750D01*
Y171928D01*
D02*
G37*
G36*
X207552Y146782D02*
X205948D01*
X204466Y146168D01*
X203332Y145034D01*
X202718Y143552D01*
Y141948D01*
X203332Y140466D01*
X204466Y139332D01*
X205948Y138718D01*
X207552D01*
X209034Y139332D01*
X210168Y140466D01*
X210782Y141948D01*
Y143552D01*
X210168Y145034D01*
X209034Y146168D01*
X207552Y146782D01*
D02*
G37*
G36*
X358279Y186282D02*
X356675D01*
X355193Y185668D01*
X354059Y184534D01*
X353445Y183052D01*
Y181448D01*
X354059Y179966D01*
X354418Y179607D01*
Y150359D01*
X354418Y150359D01*
X354651Y149188D01*
X355314Y148196D01*
X360231Y143279D01*
X360231Y143279D01*
X360231Y143279D01*
X362816Y140694D01*
Y140186D01*
X363429Y138704D01*
X364564Y137570D01*
X366045Y136956D01*
X367650D01*
X369132Y137570D01*
X370266Y138704D01*
X370880Y140186D01*
Y141790D01*
X370266Y143272D01*
X369132Y144406D01*
X367650Y145020D01*
X367141D01*
X364557Y147605D01*
X364557Y147605D01*
X360536Y151626D01*
Y179607D01*
X360895Y179966D01*
X361509Y181448D01*
Y183052D01*
X360895Y184534D01*
X359761Y185668D01*
X358279Y186282D01*
D02*
G37*
G36*
X33948Y158500D02*
X31052D01*
X28254Y157750D01*
X25746Y156302D01*
X23698Y154254D01*
X22250Y151746D01*
X21500Y148948D01*
Y146052D01*
X22250Y143254D01*
X23698Y140746D01*
X25746Y138698D01*
X28254Y137250D01*
X31052Y136500D01*
X33948D01*
X36746Y137250D01*
X39254Y138698D01*
X41302Y140746D01*
X42750Y143254D01*
X43500Y146052D01*
Y148948D01*
X42750Y151746D01*
X41302Y154254D01*
X39254Y156302D01*
X36746Y157750D01*
X33948Y158500D01*
D02*
G37*
G36*
X134250Y167063D02*
X132357Y166813D01*
X130594Y166083D01*
X129079Y164921D01*
X127917Y163406D01*
X127187Y161643D01*
X126937Y159750D01*
Y135250D01*
X127187Y133357D01*
X127917Y131594D01*
X129079Y130079D01*
X130594Y128917D01*
X132357Y128187D01*
X134250Y127937D01*
X136143Y128187D01*
X137906Y128917D01*
X139421Y130079D01*
X140583Y131594D01*
X141313Y133357D01*
X141563Y135250D01*
Y159750D01*
X141313Y161643D01*
X140583Y163406D01*
X139421Y164921D01*
X137906Y166083D01*
X136143Y166813D01*
X134250Y167063D01*
D02*
G37*
G36*
X401864Y209023D02*
X400260D01*
X398778Y208409D01*
X397644Y207275D01*
X397030Y205793D01*
Y204189D01*
X397644Y202707D01*
X398083Y202269D01*
Y131808D01*
X397059Y130784D01*
X396445Y129302D01*
Y127698D01*
X397059Y126216D01*
X398193Y125082D01*
X399675Y124468D01*
X401279D01*
X402761Y125082D01*
X403895Y126216D01*
X404509Y127698D01*
Y129302D01*
X403895Y130784D01*
X403456Y131223D01*
Y201683D01*
X404481Y202707D01*
X405094Y204189D01*
Y205793D01*
X404481Y207275D01*
X403346Y208409D01*
X401864Y209023D01*
D02*
G37*
G36*
X88875Y146000D02*
X75750D01*
Y123072D01*
X78035Y123373D01*
X81563Y124834D01*
X84592Y127158D01*
X86916Y130188D01*
X88377Y133715D01*
X88875Y137500D01*
Y146000D01*
D02*
G37*
G36*
X72750D02*
X59625D01*
Y137500D01*
X60123Y133715D01*
X61584Y130188D01*
X63909Y127158D01*
X66937Y124834D01*
X70465Y123373D01*
X72750Y123072D01*
Y146000D01*
D02*
G37*
G36*
X103000Y113875D02*
X94500D01*
X90715Y113377D01*
X87187Y111916D01*
X84158Y109592D01*
X81834Y106563D01*
X80373Y103035D01*
X80072Y100750D01*
X103000D01*
Y113875D01*
D02*
G37*
G36*
X208176Y67032D02*
X205777D01*
X204500Y66503D01*
X203223Y67032D01*
X200824D01*
X198606Y66114D01*
X196910Y64417D01*
X196852Y64405D01*
X195393Y65864D01*
X193176Y66782D01*
X190777D01*
X189500Y66253D01*
X188223Y66782D01*
X185824D01*
X183607Y65864D01*
X181910Y64167D01*
X180991Y61950D01*
Y59550D01*
X181910Y57333D01*
X183607Y55636D01*
X185824Y54718D01*
X188223D01*
X189500Y55247D01*
X190777Y54718D01*
X193176D01*
X195393Y55636D01*
X197090Y57333D01*
X197148Y57345D01*
X198606Y55886D01*
X200824Y54968D01*
X203223D01*
X204500Y55497D01*
X205777Y54968D01*
X208176D01*
X210393Y55886D01*
X212090Y57583D01*
X213008Y59800D01*
Y62200D01*
X212090Y64417D01*
X210393Y66114D01*
X208176Y67032D01*
D02*
G37*
G36*
X281550Y76659D02*
X279150D01*
X276933Y75741D01*
X275236Y74044D01*
X274318Y71827D01*
Y69427D01*
X275236Y67210D01*
X276933Y65513D01*
X278210Y64984D01*
X278739Y63708D01*
X280436Y62011D01*
X282653Y61093D01*
X285052D01*
X287269Y62011D01*
X288966Y63708D01*
X289884Y65925D01*
Y68324D01*
X288966Y70541D01*
X287269Y72238D01*
X285993Y72767D01*
X285464Y74044D01*
X283767Y75741D01*
X281550Y76659D01*
D02*
G37*
G36*
X126694Y38924D02*
X125090D01*
X123608Y38310D01*
X122474Y37176D01*
X121860Y35694D01*
Y34090D01*
X122474Y32608D01*
X123608Y31474D01*
X125090Y30860D01*
X126694D01*
X128176Y31474D01*
X129310Y32608D01*
X129924Y34090D01*
Y35694D01*
X129310Y37176D01*
X128176Y38310D01*
X126694Y38924D01*
D02*
G37*
%LPD*%
G36*
X114977Y302750D02*
Y295483D01*
X113782Y295302D01*
X113168Y296784D01*
X112034Y297918D01*
X110552Y298532D01*
X108948D01*
X107466Y297918D01*
X106332Y296784D01*
X105718Y295302D01*
Y293698D01*
X106332Y292216D01*
X107466Y291082D01*
X108948Y290468D01*
X110552D01*
X111632Y290915D01*
X112638Y290027D01*
X112472Y289624D01*
Y288020D01*
X113085Y286538D01*
X114220Y285404D01*
X114977Y285091D01*
Y243000D01*
X98477Y226500D01*
X88112Y226500D01*
X87811Y227549D01*
X87801Y227770D01*
X89456Y229425D01*
X89985Y230702D01*
X91262Y231231D01*
X92958Y232928D01*
X93459Y234137D01*
X95050Y234853D01*
X95073Y234843D01*
X96677D01*
X98159Y235457D01*
X99293Y236591D01*
X99907Y238073D01*
Y239677D01*
X99293Y241159D01*
X98159Y242293D01*
X96677Y242907D01*
X95073D01*
X94303Y242588D01*
X93495Y243396D01*
X92013Y244010D01*
X90409D01*
X88927Y243396D01*
X87908Y242377D01*
X86645D01*
X84428Y241458D01*
X82731Y239761D01*
X82202Y238485D01*
X80925Y237956D01*
X79229Y236259D01*
X79070Y235876D01*
X78689D01*
X77207Y235262D01*
X76073Y234128D01*
X75459Y232646D01*
Y231042D01*
X76040Y229638D01*
X75905Y229365D01*
X75243Y228594D01*
X74608Y228857D01*
X72650Y229115D01*
X64650D01*
X62692Y228857D01*
X60890Y228110D01*
X55477Y233523D01*
Y274044D01*
X56470Y275037D01*
X57084Y276519D01*
Y277852D01*
X58089Y278857D01*
X59007Y281074D01*
Y283473D01*
X58478Y284750D01*
X59007Y286027D01*
Y288426D01*
X58089Y290643D01*
X57006Y291726D01*
Y292981D01*
X56392Y294463D01*
X55477Y295378D01*
Y299400D01*
X58716Y302639D01*
X59301Y302601D01*
X60868Y301399D01*
X62692Y300643D01*
X64650Y300385D01*
X72650D01*
X74608Y300643D01*
X76432Y301399D01*
X77999Y302601D01*
X79201Y304168D01*
X79957Y305992D01*
X80215Y307950D01*
X79957Y309908D01*
X79409Y311230D01*
X80093Y312500D01*
X84863D01*
X85115Y311230D01*
X84966Y311168D01*
X83832Y310034D01*
X83218Y308552D01*
Y306948D01*
X83832Y305466D01*
X84966Y304332D01*
X86448Y303718D01*
X88052D01*
X89534Y304332D01*
X90668Y305466D01*
X91282Y306948D01*
Y308552D01*
X90668Y310034D01*
X89534Y311168D01*
X89385Y311230D01*
X89637Y312500D01*
X93389D01*
X94102Y311230D01*
X93718Y310302D01*
Y308698D01*
X94332Y307216D01*
X95218Y306330D01*
X95436Y305821D01*
X95317Y304769D01*
X94582Y304034D01*
X93968Y302552D01*
Y302282D01*
X93783Y302082D01*
X92698Y301539D01*
X90903Y302282D01*
X88503D01*
X87253Y301764D01*
X85912Y302320D01*
X83512D01*
X81295Y301402D01*
X79925Y300032D01*
X78448D01*
X76966Y299418D01*
X75832Y298284D01*
X75218Y296802D01*
Y295198D01*
X75832Y293716D01*
X76966Y292582D01*
X78448Y291968D01*
X80052D01*
X80370Y292100D01*
X81295Y291174D01*
X83512Y290256D01*
X85912D01*
X87162Y290774D01*
X88503Y290218D01*
X90903D01*
X93120Y291136D01*
X94817Y292833D01*
X95735Y295050D01*
Y296949D01*
X96718Y297775D01*
X96908Y297838D01*
X97198Y297718D01*
X98802D01*
X100284Y298332D01*
X101418Y299466D01*
X102032Y300948D01*
Y302552D01*
X101418Y304034D01*
X100532Y304920D01*
X100314Y305429D01*
X100433Y306481D01*
X101168Y307216D01*
X101782Y308698D01*
Y310302D01*
X101398Y311230D01*
X102111Y312500D01*
X105227D01*
X114977Y302750D01*
D02*
G37*
%LPC*%
G36*
X66552Y298282D02*
X64948D01*
X63466Y297668D01*
X62332Y296534D01*
X61718Y295052D01*
Y293448D01*
X62332Y291966D01*
X63466Y290832D01*
X64948Y290218D01*
X66552D01*
X68034Y290832D01*
X69168Y291966D01*
X69782Y293448D01*
Y295052D01*
X69168Y296534D01*
X68034Y297668D01*
X66552Y298282D01*
D02*
G37*
G36*
X91552Y282782D02*
X89948D01*
X88466Y282168D01*
X87332Y281034D01*
X86718Y279552D01*
Y277948D01*
X86764Y277838D01*
X86058Y276782D01*
X85800D01*
X83583Y275864D01*
X83358Y275638D01*
X81200Y276532D01*
X78800D01*
X76583Y275614D01*
X74886Y273917D01*
X73968Y271700D01*
Y269300D01*
X74886Y267083D01*
X75219Y266750D01*
X75136Y266667D01*
X74218Y264450D01*
Y262050D01*
X75136Y259833D01*
X76833Y258136D01*
X79050Y257218D01*
X80365D01*
X80374Y257195D01*
X82071Y255498D01*
X84288Y254580D01*
X86688D01*
X88905Y255498D01*
X90601Y257195D01*
X91520Y259412D01*
Y260468D01*
X93052D01*
X94534Y261082D01*
X95668Y262216D01*
X96282Y263698D01*
Y265302D01*
X95668Y266784D01*
X94534Y267918D01*
X93052Y268532D01*
X92779Y268940D01*
X93032Y269550D01*
Y271950D01*
X92114Y274167D01*
X92284Y275021D01*
X93034Y275332D01*
X94168Y276466D01*
X94782Y277948D01*
Y279552D01*
X94168Y281034D01*
X93034Y282168D01*
X91552Y282782D01*
D02*
G37*
G36*
X67169Y261271D02*
X65565D01*
X64083Y260658D01*
X62949Y259523D01*
X62335Y258041D01*
Y256437D01*
X62949Y254955D01*
X64083Y253821D01*
X64176Y253783D01*
Y252408D01*
X62713Y251802D01*
X61016Y250105D01*
X60097Y247889D01*
Y245489D01*
X60682Y244078D01*
X60209Y242937D01*
Y240537D01*
X61127Y238320D01*
X62218Y237229D01*
Y235948D01*
X62832Y234466D01*
X63966Y233332D01*
X65448Y232718D01*
X67052D01*
X68534Y233332D01*
X69668Y234466D01*
X70282Y235948D01*
Y237247D01*
X71355Y238320D01*
X72273Y240537D01*
Y242937D01*
X71689Y244347D01*
X72161Y245489D01*
Y247889D01*
X71243Y250105D01*
X69546Y251802D01*
X68321Y252310D01*
Y253685D01*
X68651Y253821D01*
X69785Y254955D01*
X70399Y256437D01*
Y258041D01*
X69785Y259523D01*
X68651Y260658D01*
X67169Y261271D01*
D02*
G37*
%LPD*%
G36*
X173205Y333772D02*
X173494Y333075D01*
X174445Y332124D01*
Y330698D01*
X175059Y329216D01*
X176193Y328082D01*
X177675Y327468D01*
X179279D01*
X179442Y327536D01*
X182383Y324594D01*
X182136Y323348D01*
X181717Y323175D01*
X180583Y322040D01*
X179969Y320559D01*
Y318955D01*
X180583Y317473D01*
X181717Y316338D01*
X183199Y315725D01*
X184803D01*
X186285Y316338D01*
X187419Y317473D01*
X187593Y317891D01*
X188838Y318139D01*
X204742Y302235D01*
X204716Y302103D01*
X203582Y300968D01*
X202968Y299487D01*
Y297882D01*
X203582Y296401D01*
X204716Y295266D01*
X206198Y294653D01*
X207802D01*
X209284Y295266D01*
X210418Y296401D01*
X210550Y296427D01*
X219727Y287250D01*
X221218D01*
Y287198D01*
X221832Y285716D01*
X222966Y284582D01*
X224448Y283968D01*
X226052D01*
X227534Y284582D01*
X228668Y285716D01*
X228812Y286063D01*
X230043D01*
X230218Y285802D01*
Y284198D01*
X230832Y282716D01*
X231966Y281582D01*
X233448Y280968D01*
X234218Y279802D01*
Y278198D01*
X234832Y276716D01*
X235966Y275582D01*
X237448Y274968D01*
X239052D01*
X240534Y275582D01*
X241668Y276716D01*
X241897Y276762D01*
X244130Y274529D01*
Y273475D01*
X244335Y272446D01*
X244917Y271575D01*
X248227Y268265D01*
Y256572D01*
X247832Y256177D01*
X247218Y254695D01*
Y253091D01*
X247832Y251609D01*
X248227Y251214D01*
Y250750D01*
X238477Y241000D01*
X229450D01*
X228918Y242284D01*
X227784Y243418D01*
X226302Y244032D01*
X224698D01*
X223216Y243418D01*
X222082Y242284D01*
X221550Y241000D01*
X208450D01*
X207918Y242284D01*
X206784Y243418D01*
X205302Y244032D01*
X203698D01*
X202216Y243418D01*
X201082Y242284D01*
X200550Y241000D01*
X169477D01*
X155977Y227500D01*
Y213750D01*
X153229Y211002D01*
X153193D01*
X151711Y210388D01*
X150577Y209254D01*
X149963Y207772D01*
Y207736D01*
X146477Y204250D01*
X129946D01*
X129485Y204711D01*
X128003Y205325D01*
X126399D01*
X124917Y204711D01*
X124456Y204250D01*
X114477D01*
X108227Y210500D01*
X108227Y223750D01*
X116126Y231649D01*
X117193Y230582D01*
X118675Y229968D01*
X120279D01*
X121761Y230582D01*
X122895Y231716D01*
X123509Y233198D01*
Y234802D01*
X122895Y236284D01*
X121828Y237351D01*
X123977Y239500D01*
X123977Y294525D01*
X124168Y294716D01*
X124782Y296198D01*
Y297802D01*
X124168Y299284D01*
X123977Y299475D01*
Y306500D01*
X109727Y320750D01*
X85977D01*
X79227Y327500D01*
Y339750D01*
X82227Y342750D01*
X120086D01*
Y342110D01*
X120516Y341072D01*
X119502Y340202D01*
X118404Y340657D01*
X116800D01*
X115318Y340043D01*
X114184Y338909D01*
X113570Y337427D01*
Y335823D01*
X114184Y334341D01*
X115318Y333207D01*
X116800Y332593D01*
X118404D01*
X119886Y333207D01*
X121020Y334341D01*
X121634Y335823D01*
Y337427D01*
X121204Y338465D01*
X122218Y339335D01*
X123316Y338880D01*
X124920D01*
X126402Y339494D01*
X127536Y340628D01*
X128150Y342110D01*
Y342750D01*
X164227D01*
X173205Y333772D01*
D02*
G37*
%LPC*%
G36*
X158176Y331032D02*
X155777D01*
X154500Y330503D01*
X153223Y331032D01*
X150824D01*
X148607Y330114D01*
X147525Y329032D01*
X146198D01*
X144716Y328418D01*
X143582Y327284D01*
X142968Y325802D01*
Y324198D01*
X143582Y322716D01*
X144716Y321582D01*
X146198Y320968D01*
X147525D01*
X148607Y319886D01*
X150824Y318968D01*
X153223D01*
X154500Y319497D01*
X155777Y318968D01*
X158176D01*
X160394Y319886D01*
X161225Y320718D01*
X162825D01*
X164307Y321332D01*
X165441Y322466D01*
X166055Y323948D01*
Y325552D01*
X165441Y327034D01*
X164307Y328168D01*
X162825Y328782D01*
X161725D01*
X160394Y330114D01*
X158176Y331032D01*
D02*
G37*
G36*
X173370Y302782D02*
X170970D01*
X169694Y302253D01*
X168417Y302782D01*
X166017D01*
X163800Y301864D01*
X162719Y300782D01*
X161221D01*
X159739Y300168D01*
X158605Y299034D01*
X157991Y297552D01*
Y295948D01*
X158605Y294466D01*
X159739Y293332D01*
X161221Y292718D01*
X162719D01*
X163800Y291636D01*
X166017Y290718D01*
X168417D01*
X169694Y291247D01*
X170970Y290718D01*
X173370D01*
X175587Y291636D01*
X176414Y292463D01*
X177918D01*
X179400Y293077D01*
X180535Y294211D01*
X181148Y295693D01*
Y297297D01*
X180535Y298779D01*
X179400Y299913D01*
X177918Y300527D01*
X176923D01*
X175587Y301864D01*
X173370Y302782D01*
D02*
G37*
G36*
X192775Y302691D02*
X191171D01*
X189688Y302077D01*
X188554Y300943D01*
X187941Y299461D01*
Y297857D01*
X188554Y296375D01*
X189688Y295241D01*
X191171Y294627D01*
X192775D01*
X194256Y295241D01*
X195391Y296375D01*
X196005Y297857D01*
Y299461D01*
X195391Y300943D01*
X194256Y302077D01*
X192775Y302691D01*
D02*
G37*
G36*
X132802Y302032D02*
X131198D01*
X129716Y301418D01*
X128582Y300284D01*
X127968Y298802D01*
Y297198D01*
X128582Y295716D01*
X129716Y294582D01*
X131198Y293968D01*
X132802D01*
X134284Y294582D01*
X135418Y295716D01*
X136032Y297198D01*
Y298802D01*
X135418Y300284D01*
X134284Y301418D01*
X132802Y302032D01*
D02*
G37*
G36*
X179052Y291032D02*
X177448D01*
X175966Y290418D01*
X174832Y289284D01*
X174218Y287802D01*
Y286198D01*
X174832Y284716D01*
X175966Y283582D01*
X177448Y282968D01*
X179052D01*
X180534Y283582D01*
X181668Y284716D01*
X182282Y286198D01*
Y287802D01*
X181668Y289284D01*
X180534Y290418D01*
X179052Y291032D01*
D02*
G37*
G36*
X144802Y293032D02*
X143198D01*
X141716Y292418D01*
X140582Y291284D01*
X139968Y289802D01*
Y288198D01*
X140291Y287419D01*
X139880Y286239D01*
X139591Y286042D01*
X138367Y285535D01*
X137233Y284401D01*
X136619Y282919D01*
Y281315D01*
X137233Y279833D01*
X138367Y278699D01*
X139849Y278085D01*
X141453D01*
X142935Y278699D01*
X144069Y279833D01*
X144187Y280117D01*
X145133Y280306D01*
X145624Y280267D01*
X146948Y279718D01*
X148552D01*
X150034Y280332D01*
X151168Y281466D01*
X151782Y282948D01*
Y284552D01*
X151168Y286034D01*
X150034Y287168D01*
X149134Y287541D01*
X148032Y288198D01*
Y289802D01*
X147418Y291284D01*
X146284Y292418D01*
X144802Y293032D01*
D02*
G37*
G36*
X220802Y283032D02*
X219198D01*
X217716Y282418D01*
X216582Y281284D01*
X215968Y279802D01*
Y278198D01*
X216582Y276716D01*
X217716Y275582D01*
X219198Y274968D01*
X220802D01*
X222284Y275582D01*
X223418Y276716D01*
X224032Y278198D01*
Y279802D01*
X223418Y281284D01*
X222284Y282418D01*
X220802Y283032D01*
D02*
G37*
G36*
X208552Y279398D02*
X206948D01*
X205466Y278784D01*
X204332Y277650D01*
X203718Y276168D01*
Y274564D01*
X204332Y273082D01*
X205466Y271948D01*
X206948Y271334D01*
X208552D01*
X210034Y271948D01*
X211168Y273082D01*
X211782Y274564D01*
Y276168D01*
X211168Y277650D01*
X210034Y278784D01*
X208552Y279398D01*
D02*
G37*
G36*
X143029Y273032D02*
X141425D01*
X139943Y272418D01*
X138809Y271284D01*
X138195Y269802D01*
Y268198D01*
X138809Y266716D01*
X139943Y265582D01*
X141425Y264968D01*
X143029D01*
X144511Y265582D01*
X145645Y266716D01*
X146259Y268198D01*
Y269802D01*
X145645Y271284D01*
X144511Y272418D01*
X143029Y273032D01*
D02*
G37*
G36*
X179052Y272532D02*
X177448D01*
X175966Y271918D01*
X174832Y270784D01*
X174218Y269302D01*
Y267698D01*
X174832Y266216D01*
X175966Y265082D01*
X177448Y264468D01*
X179052D01*
X180534Y265082D01*
X181668Y266216D01*
X182282Y267698D01*
Y269302D01*
X181668Y270784D01*
X180534Y271918D01*
X179052Y272532D01*
D02*
G37*
G36*
X202302Y267782D02*
X200698D01*
X199216Y267168D01*
X198082Y266034D01*
X197468Y264552D01*
Y262948D01*
X198082Y261466D01*
X199216Y260332D01*
X200698Y259718D01*
X202302D01*
X203784Y260332D01*
X204918Y261466D01*
X205532Y262948D01*
Y264552D01*
X204918Y266034D01*
X203784Y267168D01*
X202302Y267782D01*
D02*
G37*
G36*
X239629Y260330D02*
X238025D01*
X236543Y259716D01*
X235408Y258582D01*
X234795Y257100D01*
Y255496D01*
X235408Y254014D01*
X236543Y252880D01*
X238025Y252266D01*
X239629D01*
X241111Y252880D01*
X242245Y254014D01*
X242859Y255496D01*
Y257100D01*
X242245Y258582D01*
X241111Y259716D01*
X239629Y260330D01*
D02*
G37*
G36*
X205302Y254032D02*
X203698D01*
X202216Y253418D01*
X201082Y252284D01*
X200468Y250802D01*
Y249198D01*
X201082Y247716D01*
X202216Y246582D01*
X203698Y245968D01*
X205302D01*
X206784Y246582D01*
X207918Y247716D01*
X208532Y249198D01*
Y250802D01*
X207918Y252284D01*
X206784Y253418D01*
X205302Y254032D01*
D02*
G37*
G36*
X229052Y260330D02*
X227448D01*
X225966Y259716D01*
X224832Y258582D01*
X224218Y257100D01*
Y255496D01*
X224776Y254149D01*
X224698Y254032D01*
X223216Y253418D01*
X222082Y252284D01*
X221468Y250802D01*
Y249198D01*
X222082Y247716D01*
X223216Y246582D01*
X224698Y245968D01*
X226302D01*
X227784Y246582D01*
X228918Y247716D01*
X229532Y249198D01*
Y250802D01*
X228974Y252149D01*
X229052Y252266D01*
X230534Y252880D01*
X231668Y254014D01*
X232282Y255496D01*
Y257100D01*
X231668Y258582D01*
X230534Y259716D01*
X229052Y260330D01*
D02*
G37*
G36*
X190052Y254032D02*
X188448D01*
X186966Y253418D01*
X185832Y252284D01*
X185218Y250802D01*
Y249198D01*
X185832Y247716D01*
X186966Y246582D01*
X188448Y245968D01*
X190052D01*
X191534Y246582D01*
X192668Y247716D01*
X193282Y249198D01*
Y250802D01*
X192668Y252284D01*
X191534Y253418D01*
X190052Y254032D01*
D02*
G37*
G36*
X145279Y253282D02*
X143675D01*
X142193Y252668D01*
X141059Y251534D01*
X140445Y250052D01*
Y248448D01*
X141059Y246966D01*
X142193Y245832D01*
X143675Y245218D01*
X145279D01*
X146761Y245832D01*
X147895Y246966D01*
X148509Y248448D01*
Y250052D01*
X147895Y251534D01*
X146761Y252668D01*
X145279Y253282D01*
D02*
G37*
G36*
X145552Y226032D02*
X143948D01*
X142466Y225418D01*
X141332Y224284D01*
X140718Y222802D01*
Y221198D01*
X141332Y219716D01*
X142466Y218582D01*
X143948Y217968D01*
X145552D01*
X147034Y218582D01*
X148168Y219716D01*
X148782Y221198D01*
Y222802D01*
X148168Y224284D01*
X147034Y225418D01*
X145552Y226032D01*
D02*
G37*
G36*
X146085Y215219D02*
X144481D01*
X142999Y214605D01*
X141864Y213471D01*
X141251Y211989D01*
Y210385D01*
X141864Y208903D01*
X142999Y207769D01*
X144481Y207155D01*
X146085D01*
X147566Y207769D01*
X148701Y208903D01*
X149315Y210385D01*
Y211989D01*
X148701Y213471D01*
X147566Y214605D01*
X146085Y215219D01*
D02*
G37*
%LPD*%
G36*
X599726Y281702D02*
Y249391D01*
X599731Y249364D01*
X598561Y248738D01*
X595321Y251978D01*
Y275574D01*
X595117Y276602D01*
X594534Y277474D01*
X577506Y294502D01*
X576635Y295084D01*
X575606Y295289D01*
X493579D01*
X492551Y295084D01*
X492514Y295095D01*
X491918Y296534D01*
X490784Y297668D01*
X490481Y297794D01*
X490734Y299063D01*
X582364D01*
X599726Y281702D01*
D02*
G37*
G36*
X603059Y230100D02*
X603930Y229518D01*
X604958Y229313D01*
X623601D01*
X623966Y228948D01*
X625448Y228334D01*
X626117D01*
X635563Y218887D01*
Y193255D01*
X635302Y193080D01*
X633698D01*
X632216Y192466D01*
X631580Y191830D01*
X630750Y191474D01*
X629920Y191830D01*
X629284Y192466D01*
X627802Y193080D01*
X626198D01*
X624716Y192466D01*
X623582Y191332D01*
X623269Y190577D01*
X621795Y190255D01*
X588270Y223780D01*
X588264Y224238D01*
X588808Y224571D01*
X589693Y224605D01*
X589966Y224332D01*
X591448Y223718D01*
X593052D01*
X594534Y224332D01*
X595668Y225466D01*
X596282Y226948D01*
Y228552D01*
X595668Y230034D01*
X594577Y231125D01*
X595168Y231716D01*
X595782Y233198D01*
Y234802D01*
X595168Y236284D01*
X596129Y237030D01*
X603059Y230100D01*
D02*
G37*
G36*
X496195Y282948D02*
X496809Y281466D01*
X497943Y280332D01*
X499425Y279718D01*
X501029D01*
X502511Y280332D01*
X503645Y281466D01*
X503996Y282313D01*
X559679D01*
X582344Y259648D01*
Y223219D01*
X582549Y222191D01*
X583131Y221319D01*
X627369Y177082D01*
X627312Y176799D01*
X625868Y176048D01*
X625302Y176282D01*
X623698D01*
X622216Y175668D01*
X621484Y174937D01*
X619750D01*
X618722Y174732D01*
X617850Y174150D01*
X609658Y165957D01*
X605569D01*
X604880Y167227D01*
X605282Y168198D01*
Y169802D01*
X604668Y171284D01*
X604655Y171297D01*
X609900Y176542D01*
X610482Y177413D01*
X610687Y178441D01*
Y178484D01*
X611418Y179216D01*
X612032Y180698D01*
Y182302D01*
X611418Y183784D01*
X610284Y184918D01*
X608802Y185532D01*
X607198D01*
X605716Y184918D01*
X605373Y184575D01*
X605236Y184602D01*
X604102Y185736D01*
X602620Y186350D01*
X601016D01*
X599534Y185736D01*
X598802Y185004D01*
X562116D01*
X561587Y186275D01*
X562102Y187518D01*
Y189122D01*
X561488Y190604D01*
X560354Y191738D01*
X559391Y192137D01*
Y193267D01*
X558777Y194749D01*
X558251Y195276D01*
X559073Y196098D01*
X559687Y197580D01*
Y199184D01*
X559073Y200666D01*
X557939Y201800D01*
X556457Y202414D01*
X554853D01*
X553371Y201800D01*
X552237Y200666D01*
X551623Y199184D01*
Y197580D01*
X552237Y196098D01*
X552763Y195572D01*
X551941Y194749D01*
X551327Y193267D01*
Y191663D01*
X551941Y190181D01*
X553075Y189047D01*
X554038Y188648D01*
Y187518D01*
X554553Y186275D01*
X554025Y185004D01*
X454216D01*
X453248Y185973D01*
X451766Y186587D01*
X450162D01*
X448680Y185973D01*
X447546Y184839D01*
X446932Y183357D01*
Y181753D01*
X447546Y180271D01*
X448680Y179136D01*
X450162Y178523D01*
X451766D01*
X453248Y179136D01*
X453743Y179631D01*
X598802D01*
X599534Y178900D01*
X601016Y178286D01*
X602249D01*
X602859Y177173D01*
X602872Y177113D01*
X601129Y175370D01*
X597657D01*
X596629Y175165D01*
X595757Y174583D01*
X594207Y173032D01*
X593977Y173077D01*
X592843Y174212D01*
X591361Y174825D01*
X589757D01*
X588275Y174212D01*
X587141Y173077D01*
X586527Y171595D01*
Y169991D01*
X587141Y168510D01*
X588275Y167375D01*
X588321Y167146D01*
X583072Y161897D01*
X582581Y161800D01*
X581709Y161217D01*
X573033Y152541D01*
X457604D01*
X456576Y152336D01*
X455704Y151754D01*
X428608Y124658D01*
X427622Y125467D01*
X427959Y125972D01*
X428164Y127000D01*
Y179855D01*
X429337Y180341D01*
X443827Y165850D01*
X444699Y165268D01*
X445727Y165063D01*
X463750D01*
X464778Y165268D01*
X465594Y165813D01*
X540485D01*
X541216Y165082D01*
X542698Y164468D01*
X544302D01*
X545784Y165082D01*
X546918Y166216D01*
X547532Y167698D01*
Y169302D01*
X546918Y170784D01*
X545784Y171918D01*
X544302Y172532D01*
X542698D01*
X541216Y171918D01*
X540485Y171187D01*
X464500D01*
X463472Y170982D01*
X462655Y170437D01*
X446840D01*
X431414Y185863D01*
Y189418D01*
X431759Y189649D01*
X432878D01*
X433693Y188689D01*
X433767Y188475D01*
X433695Y188302D01*
Y186698D01*
X434309Y185216D01*
X435443Y184082D01*
X436925Y183468D01*
X438529D01*
X440011Y184082D01*
X441145Y185216D01*
X441759Y186698D01*
Y188302D01*
X442037Y188718D01*
X443029D01*
X444511Y189332D01*
X445645Y190466D01*
X446259Y191948D01*
Y193552D01*
X445645Y195034D01*
X444511Y196168D01*
X444465Y196397D01*
X454064Y205996D01*
X477225D01*
X477751Y204727D01*
X477309Y204284D01*
X476695Y202802D01*
Y201198D01*
X477309Y199716D01*
X478443Y198582D01*
X479925Y197968D01*
X481529D01*
X483011Y198582D01*
X484145Y199716D01*
X484759Y201198D01*
Y202802D01*
X484145Y204284D01*
X483703Y204727D01*
X484229Y205996D01*
X489416D01*
X489942Y204727D01*
X489388Y204172D01*
X488774Y202690D01*
Y201086D01*
X489388Y199604D01*
X490522Y198470D01*
X492004Y197856D01*
X493608D01*
X495090Y198470D01*
X496224Y199604D01*
X496766Y200913D01*
X497316Y201239D01*
X498108Y201493D01*
X499375Y200968D01*
X500979D01*
X502461Y201582D01*
X503595Y202716D01*
X503962Y203602D01*
X505382Y203978D01*
X506943Y202417D01*
X507815Y201835D01*
X508843Y201630D01*
X527814D01*
X528843Y201835D01*
X529714Y202417D01*
X557870Y230573D01*
X558904D01*
X560386Y231187D01*
X561520Y232321D01*
X562134Y233803D01*
Y235407D01*
X561520Y236889D01*
X560386Y238023D01*
X558904Y238637D01*
X557300D01*
X555818Y238023D01*
X554684Y236889D01*
X554070Y235407D01*
Y234372D01*
X526702Y207004D01*
X509956D01*
X506377Y210583D01*
X505505Y211165D01*
X504477Y211370D01*
X452951D01*
X451923Y211165D01*
X451052Y210583D01*
X436836Y196367D01*
X435576D01*
X434845Y197099D01*
X434685Y197165D01*
X434437Y198411D01*
X436877Y200850D01*
X437459Y201722D01*
X437664Y202750D01*
Y205985D01*
X438145Y206466D01*
X438759Y207948D01*
Y209552D01*
X438145Y211034D01*
X437011Y212168D01*
X435529Y212782D01*
X433925D01*
X432443Y212168D01*
X431309Y211034D01*
X430695Y209552D01*
Y207948D01*
X431309Y206466D01*
X432290Y205485D01*
Y203863D01*
X429337Y200910D01*
X428164Y201395D01*
Y243226D01*
X455248Y270310D01*
X456282D01*
X457764Y270924D01*
X458496Y271656D01*
X482069D01*
X483097Y271860D01*
X483969Y272442D01*
X494925Y283399D01*
X496195Y282948D01*
D02*
G37*
G36*
X301477Y193000D02*
X305477Y189000D01*
X305477Y125750D01*
X279726Y99999D01*
X279577Y99900D01*
X269802Y90125D01*
X268532Y90651D01*
Y91552D01*
X267918Y93034D01*
X266784Y94168D01*
X265302Y94782D01*
X263698D01*
X262216Y94168D01*
X261082Y93034D01*
X260468Y91552D01*
Y89948D01*
X260681Y89433D01*
X260644Y89418D01*
X259510Y88284D01*
X258896Y86802D01*
Y85198D01*
X259510Y83716D01*
X260644Y82582D01*
X260730Y82546D01*
X260978Y81301D01*
X253364Y73687D01*
X163250D01*
X162222Y73482D01*
X161350Y72900D01*
X147200Y58750D01*
X116984D01*
X116032Y59702D01*
Y60552D01*
X115418Y62034D01*
X114284Y63168D01*
X112802Y63782D01*
X111198D01*
X109716Y63168D01*
X109497Y62949D01*
X108227Y63475D01*
X108227Y78894D01*
X109284Y79332D01*
X110418Y80466D01*
X111032Y81948D01*
Y83552D01*
X111025Y83569D01*
X111731Y84625D01*
X114500D01*
X117399Y85007D01*
X118292Y83843D01*
X118218Y83665D01*
Y82061D01*
X118832Y80579D01*
X119966Y79445D01*
X121448Y78831D01*
X123052D01*
X124534Y79445D01*
X125668Y80579D01*
X126282Y82061D01*
Y83665D01*
X125668Y85147D01*
X124534Y86281D01*
X123865Y86558D01*
X123673Y88012D01*
X124841Y88909D01*
X127166Y91938D01*
X128627Y95465D01*
X129125Y99250D01*
X128627Y103035D01*
X128373Y103647D01*
X138227Y113500D01*
X193977Y113500D01*
X202795Y122318D01*
X204042Y121769D01*
X204582Y120466D01*
X205716Y119332D01*
X207198Y118718D01*
X208802D01*
X210284Y119332D01*
X211418Y120466D01*
X212032Y121948D01*
Y123552D01*
X211418Y125034D01*
X210284Y126168D01*
X208981Y126708D01*
X208432Y127955D01*
X219400Y138923D01*
X219896Y138718D01*
X221500D01*
X222628Y137811D01*
X223082Y136716D01*
X224216Y135582D01*
X225698Y134968D01*
X227302D01*
X228784Y135582D01*
X229918Y136716D01*
X230532Y138198D01*
Y139802D01*
X229918Y141284D01*
X228784Y142418D01*
X227302Y143032D01*
X226780D01*
X226254Y144302D01*
X226918Y144966D01*
X227532Y146448D01*
Y147055D01*
X228842Y148365D01*
X229198Y148218D01*
X230802D01*
X232284Y148832D01*
X233418Y149966D01*
X234032Y151448D01*
Y153052D01*
X233885Y153408D01*
X273477Y193000D01*
X301477Y193000D01*
D02*
G37*
G36*
X591582Y154216D02*
X592716Y153082D01*
X594198Y152468D01*
X595802D01*
X597284Y153082D01*
X598000Y153798D01*
X598716Y153082D01*
X600198Y152468D01*
X601802D01*
X603284Y153082D01*
X603875Y153673D01*
X604216Y153332D01*
X605698Y152718D01*
X607302D01*
X607813Y152376D01*
Y118863D01*
X592387Y103437D01*
X558363D01*
X542400Y119400D01*
X541528Y119982D01*
X540500Y120187D01*
X520324D01*
X519798Y121457D01*
X520424Y122083D01*
X521343Y124300D01*
Y126700D01*
X520424Y128917D01*
X518727Y130614D01*
X516510Y131532D01*
X514111D01*
X512834Y131003D01*
X511557Y131532D01*
X509158D01*
X506941Y130614D01*
X505244Y128917D01*
X504325Y126700D01*
Y124300D01*
X505244Y122083D01*
X506285Y121042D01*
X506160Y119440D01*
X506100Y119400D01*
X485701Y99000D01*
X437026D01*
X431759Y104268D01*
Y105302D01*
X431145Y106784D01*
X430011Y107918D01*
X429336Y108198D01*
X429588Y109468D01*
X430302D01*
X431784Y110082D01*
X432918Y111216D01*
X433532Y112698D01*
Y113733D01*
X461899Y142099D01*
X579495D01*
X580523Y142304D01*
X581394Y142886D01*
X588384Y149876D01*
X588967Y150748D01*
X589171Y151776D01*
Y152080D01*
X591353Y154262D01*
X591582Y154216D01*
D02*
G37*
G36*
X621048Y148218D02*
X622083D01*
X625063Y145237D01*
Y105863D01*
X620707Y101506D01*
X619437Y102032D01*
Y147511D01*
X620707Y148359D01*
X621048Y148218D01*
D02*
G37*
G36*
X614063Y116144D02*
Y101363D01*
X576320Y63620D01*
X402975D01*
X401946Y63415D01*
X401230Y62937D01*
X390993D01*
X390261Y63668D01*
X388779Y64282D01*
X387175D01*
X385693Y63668D01*
X384797Y62772D01*
X379313D01*
X378284Y62568D01*
X377413Y61985D01*
X357614Y42187D01*
X320872D01*
X320386Y43360D01*
X329877Y52850D01*
X330459Y53722D01*
X330664Y54750D01*
Y65235D01*
X331395Y65966D01*
X332009Y67448D01*
Y69052D01*
X331395Y70534D01*
X330261Y71668D01*
X330126Y72349D01*
X336744Y78968D01*
X337779D01*
X339261Y79582D01*
X340395Y80716D01*
X341009Y82198D01*
Y83802D01*
X340395Y85284D01*
X339261Y86418D01*
X337779Y87032D01*
X336175D01*
X334693Y86418D01*
X334684Y86409D01*
X333414Y86935D01*
Y93614D01*
X352613Y112814D01*
X413977D01*
X415005Y113018D01*
X415510Y113355D01*
X416319Y112369D01*
X413401Y109450D01*
X363528D01*
X362796Y110182D01*
X361314Y110795D01*
X359710D01*
X358228Y110182D01*
X357094Y109047D01*
X356480Y107565D01*
Y105962D01*
X357094Y104480D01*
X357432Y104142D01*
X357193Y102668D01*
X356059Y101534D01*
X355445Y100052D01*
Y98448D01*
X356059Y96966D01*
X357193Y95832D01*
X358675Y95218D01*
X360279D01*
X361761Y95832D01*
X362492Y96564D01*
X362750D01*
X363778Y96768D01*
X364650Y97350D01*
X366613Y99313D01*
X372637D01*
X376850Y95100D01*
X377722Y94518D01*
X378750Y94313D01*
X382864D01*
X393945Y83233D01*
Y82198D01*
X394559Y80716D01*
X395693Y79582D01*
X397175Y78968D01*
X398779D01*
X400261Y79582D01*
X401395Y80716D01*
X402009Y82198D01*
Y83802D01*
X401395Y85284D01*
X400261Y86418D01*
X398779Y87032D01*
X397744D01*
X385877Y98900D01*
X385005Y99482D01*
X384665Y100118D01*
X385009Y100948D01*
Y102552D01*
X384903Y102807D01*
X385752Y104077D01*
X414514D01*
X415542Y104281D01*
X416413Y104864D01*
X424295Y112745D01*
X425637Y112291D01*
X426082Y111216D01*
X427216Y110082D01*
X427891Y109802D01*
X427639Y108532D01*
X426925D01*
X425443Y107918D01*
X424309Y106784D01*
X423695Y105302D01*
Y103698D01*
X424309Y102216D01*
X425443Y101082D01*
X426925Y100468D01*
X427960D01*
X434014Y94414D01*
X434885Y93832D01*
X435913Y93627D01*
X486814D01*
X487842Y93832D01*
X488713Y94414D01*
X509113Y114813D01*
X539387D01*
X555350Y98850D01*
X556222Y98268D01*
X557250Y98063D01*
X593500D01*
X594528Y98268D01*
X595400Y98850D01*
X612400Y115850D01*
X612793Y116439D01*
X614063Y116144D01*
D02*
G37*
G36*
X305068Y32476D02*
X304941Y32169D01*
Y30566D01*
X305005Y30412D01*
X304299Y29356D01*
X274024D01*
X274024Y29356D01*
X272854Y29123D01*
X271861Y28460D01*
X271861Y28460D01*
X269710Y26309D01*
X259994D01*
X253826Y32476D01*
X254352Y33746D01*
X304220D01*
X305068Y32476D01*
D02*
G37*
%LPC*%
G36*
X629302Y209532D02*
X627698D01*
X626216Y208918D01*
X625082Y207784D01*
X624468Y206302D01*
Y204698D01*
X625082Y203216D01*
X626216Y202082D01*
X627698Y201468D01*
X629302D01*
X630784Y202082D01*
X631918Y203216D01*
X632532Y204698D01*
Y206302D01*
X631918Y207784D01*
X630784Y208918D01*
X629302Y209532D01*
D02*
G37*
G36*
X565185Y260897D02*
X563581D01*
X562099Y260284D01*
X560965Y259149D01*
X560351Y257667D01*
Y256063D01*
X560965Y254582D01*
X562099Y253447D01*
X562221Y253397D01*
X562362Y253059D01*
X562423Y251938D01*
X561575Y251091D01*
X561159Y250086D01*
X559788Y249279D01*
X559780Y249283D01*
X558176D01*
X556694Y248669D01*
X555559Y247535D01*
X554946Y246053D01*
Y244449D01*
X555559Y242967D01*
X556694Y241833D01*
X558176Y241219D01*
X559780D01*
X561261Y241833D01*
X562396Y242967D01*
X562812Y243971D01*
X564183Y244778D01*
X564191Y244775D01*
X565795D01*
X567277Y245389D01*
X568411Y246523D01*
X569025Y248005D01*
Y249609D01*
X568411Y251091D01*
X567277Y252225D01*
X567155Y252276D01*
X567014Y252614D01*
X566953Y253734D01*
X567801Y254582D01*
X568415Y256063D01*
Y257667D01*
X567801Y259149D01*
X566667Y260284D01*
X565185Y260897D01*
D02*
G37*
G36*
X550302Y212032D02*
X548698D01*
X547216Y211418D01*
X546082Y210284D01*
X545468Y208802D01*
Y207198D01*
X546082Y205716D01*
X547216Y204582D01*
X548698Y203968D01*
X550302D01*
X551784Y204582D01*
X552918Y205716D01*
X553532Y207198D01*
Y208802D01*
X552918Y210284D01*
X551784Y211418D01*
X550302Y212032D01*
D02*
G37*
G36*
X252802Y160782D02*
X251198D01*
X249716Y160168D01*
X248582Y159034D01*
X247968Y157552D01*
Y155948D01*
X248582Y154466D01*
X249716Y153332D01*
X250686Y152930D01*
Y151555D01*
X250471Y151466D01*
X249336Y150332D01*
X248722Y148850D01*
Y147246D01*
X249336Y145764D01*
X250471Y144630D01*
X251952Y144016D01*
X253556D01*
X255038Y144630D01*
X256173Y145764D01*
X256786Y147246D01*
Y148850D01*
X256173Y150332D01*
X255038Y151466D01*
X254069Y151868D01*
Y153243D01*
X254284Y153332D01*
X255418Y154466D01*
X256032Y155948D01*
Y157552D01*
X255418Y159034D01*
X254284Y160168D01*
X252802Y160782D01*
D02*
G37*
G36*
X261784Y131165D02*
X260180D01*
X258698Y130551D01*
X257564Y129417D01*
X256950Y127935D01*
Y126331D01*
X257564Y124849D01*
X258698Y123715D01*
X260180Y123101D01*
X261784D01*
X263266Y123715D01*
X264400Y124849D01*
X265014Y126331D01*
Y127935D01*
X264400Y129417D01*
X263266Y130551D01*
X261784Y131165D01*
D02*
G37*
G36*
X252802Y135782D02*
X251198D01*
X249716Y135168D01*
X248582Y134034D01*
X247968Y132552D01*
Y130948D01*
X248582Y129466D01*
X249716Y128332D01*
X250392Y128052D01*
X250139Y126782D01*
X249948D01*
X248466Y126168D01*
X247332Y125034D01*
X246718Y123552D01*
Y121948D01*
X247332Y120466D01*
X248466Y119332D01*
X249948Y118718D01*
X251552D01*
X253034Y119332D01*
X254168Y120466D01*
X254782Y121948D01*
Y123552D01*
X254168Y125034D01*
X253034Y126168D01*
X252358Y126448D01*
X252611Y127718D01*
X252802D01*
X254284Y128332D01*
X255418Y129466D01*
X256032Y130948D01*
Y132552D01*
X255418Y134034D01*
X254284Y135168D01*
X252802Y135782D01*
D02*
G37*
G36*
X262029Y120532D02*
X260425D01*
X258943Y119918D01*
X257809Y118784D01*
X257195Y117302D01*
Y115698D01*
X256279Y114782D01*
X254675D01*
X253193Y114168D01*
X252059Y113034D01*
X251445Y111552D01*
Y109948D01*
X252059Y108466D01*
X253193Y107332D01*
X254675Y106718D01*
X256279D01*
X257761Y107332D01*
X258895Y108466D01*
X259509Y109948D01*
Y111552D01*
X260425Y112468D01*
X262029D01*
X263511Y113082D01*
X264645Y114216D01*
X265259Y115698D01*
Y117302D01*
X264645Y118784D01*
X263511Y119918D01*
X262029Y120532D01*
D02*
G37*
G36*
X183279Y112032D02*
X181675D01*
X180193Y111418D01*
X179059Y110284D01*
X178445Y108802D01*
Y107198D01*
X179059Y105716D01*
X180193Y104582D01*
X181675Y103968D01*
X183279D01*
X184761Y104582D01*
X185895Y105716D01*
X186509Y107198D01*
Y108802D01*
X185895Y110284D01*
X184761Y111418D01*
X183279Y112032D01*
D02*
G37*
G36*
X239552Y115782D02*
X237948D01*
X236466Y115168D01*
X235332Y114034D01*
X234718Y112552D01*
Y110948D01*
X235332Y109466D01*
X235812Y108986D01*
X235218Y107552D01*
Y105948D01*
X235832Y104466D01*
X236966Y103332D01*
X238448Y102718D01*
X240052D01*
X241534Y103332D01*
X242668Y104466D01*
X243282Y105948D01*
Y107552D01*
X242668Y109034D01*
X242188Y109514D01*
X242782Y110948D01*
Y112552D01*
X242168Y114034D01*
X241034Y115168D01*
X239552Y115782D01*
D02*
G37*
G36*
X221734Y131636D02*
X220130D01*
X218648Y131023D01*
X217514Y129888D01*
X216900Y128406D01*
Y126802D01*
X217514Y125320D01*
X218648Y124186D01*
X219030Y124028D01*
X219332Y122534D01*
X218718Y121052D01*
Y119675D01*
X217686Y118643D01*
X216768Y116426D01*
Y114027D01*
X217297Y112750D01*
X216768Y111473D01*
Y109074D01*
X217686Y106857D01*
X218718Y105825D01*
Y104448D01*
X219332Y102966D01*
X220466Y101832D01*
X221948Y101218D01*
X223552D01*
X225034Y101832D01*
X226168Y102966D01*
X226782Y104448D01*
Y105725D01*
X227914Y106857D01*
X228832Y109074D01*
Y111473D01*
X228303Y112750D01*
X228832Y114027D01*
Y116426D01*
X227914Y118643D01*
X226782Y119775D01*
Y121052D01*
X226168Y122534D01*
X225034Y123668D01*
X224652Y123826D01*
X224350Y125320D01*
X224964Y126802D01*
Y128406D01*
X224350Y129888D01*
X223216Y131023D01*
X221734Y131636D01*
D02*
G37*
G36*
X206552Y100210D02*
X204948D01*
X203466Y99596D01*
X202332Y98462D01*
X201718Y96980D01*
Y96408D01*
X201629Y96371D01*
X199932Y94675D01*
X199014Y92457D01*
Y90058D01*
X199554Y88753D01*
X199012Y87444D01*
Y87253D01*
X197716Y86716D01*
X196582Y85582D01*
X195968Y84100D01*
Y82496D01*
X196582Y81014D01*
X197716Y79880D01*
X199198Y79266D01*
X200802D01*
X202284Y79880D01*
X202976Y80572D01*
X203844Y80212D01*
X206244D01*
X208461Y81131D01*
X210158Y82827D01*
X211076Y85044D01*
Y87444D01*
X210536Y88749D01*
X211078Y90058D01*
Y92457D01*
X210160Y94675D01*
X209687Y95147D01*
X209782Y95376D01*
Y96980D01*
X209168Y98462D01*
X208034Y99596D01*
X206552Y100210D01*
D02*
G37*
G36*
X152802Y86895D02*
X151198D01*
X149716Y86281D01*
X148582Y85147D01*
X147968Y83665D01*
Y82061D01*
X148582Y80579D01*
X149716Y79445D01*
X151198Y78831D01*
X152802D01*
X154284Y79445D01*
X155418Y80579D01*
X156032Y82061D01*
Y83665D01*
X155418Y85147D01*
X154284Y86281D01*
X152802Y86895D01*
D02*
G37*
G36*
X137802D02*
X136198D01*
X134716Y86281D01*
X133582Y85147D01*
X132968Y83665D01*
Y82061D01*
X133582Y80579D01*
X134716Y79445D01*
X136198Y78831D01*
X137802D01*
X139284Y79445D01*
X140418Y80579D01*
X141032Y82061D01*
Y83665D01*
X140418Y85147D01*
X139284Y86281D01*
X137802Y86895D01*
D02*
G37*
G36*
X449153Y116426D02*
X446754D01*
X445477Y115898D01*
X444200Y116426D01*
X441801D01*
X439584Y115508D01*
X437887Y113811D01*
X436968Y111594D01*
Y109194D01*
X437887Y106978D01*
X439584Y105281D01*
X441801Y104362D01*
X444200D01*
X445477Y104891D01*
X446754Y104362D01*
X449153D01*
X451370Y105281D01*
X453067Y106978D01*
X453985Y109194D01*
Y111594D01*
X453067Y113811D01*
X451370Y115508D01*
X449153Y116426D01*
D02*
G37*
G36*
X479153Y112782D02*
X476754D01*
X475477Y112253D01*
X474200Y112782D01*
X471801D01*
X469584Y111864D01*
X467887Y110167D01*
X466968Y107950D01*
Y105550D01*
X467887Y103333D01*
X469584Y101636D01*
X471801Y100718D01*
X474200D01*
X475477Y101247D01*
X476754Y100718D01*
X479153D01*
X481370Y101636D01*
X483067Y103333D01*
X483985Y105550D01*
Y107950D01*
X483067Y110167D01*
X481370Y111864D01*
X479153Y112782D01*
D02*
G37*
G36*
X522274Y106749D02*
X522100D01*
Y91249D01*
X537600D01*
Y91423D01*
X536947Y94707D01*
X535665Y97801D01*
X533805Y100585D01*
X531437Y102953D01*
X528652Y104814D01*
X525559Y106095D01*
X522274Y106749D01*
D02*
G37*
G36*
X519100D02*
X518926D01*
X515641Y106095D01*
X512547Y104814D01*
X509763Y102953D01*
X507395Y100585D01*
X505535Y97801D01*
X504253Y94707D01*
X503600Y91423D01*
Y91249D01*
X519100D01*
Y106749D01*
D02*
G37*
G36*
X363779Y87282D02*
X362175D01*
X360693Y86668D01*
X360477Y86452D01*
X360261Y86668D01*
X358779Y87282D01*
X357175D01*
X355693Y86668D01*
X354559Y85534D01*
X353945Y84052D01*
Y82448D01*
X354559Y80966D01*
X355693Y79832D01*
X357175Y79218D01*
X358779D01*
X360261Y79832D01*
X360477Y80048D01*
X360693Y79832D01*
X362175Y79218D01*
X363779D01*
X365261Y79832D01*
X366395Y80966D01*
X367009Y82448D01*
Y84052D01*
X366395Y85534D01*
X365261Y86668D01*
X363779Y87282D01*
D02*
G37*
G36*
X537600Y88249D02*
X522100D01*
Y72749D01*
X522274D01*
X525559Y73402D01*
X528652Y74683D01*
X531437Y76544D01*
X533805Y78912D01*
X535665Y81696D01*
X536947Y84790D01*
X537600Y88074D01*
Y88249D01*
D02*
G37*
G36*
X519100D02*
X503600D01*
Y88074D01*
X504253Y84790D01*
X505535Y81696D01*
X507395Y78912D01*
X509763Y76544D01*
X512547Y74683D01*
X515641Y73402D01*
X518926Y72749D01*
X519100D01*
Y88249D01*
D02*
G37*
G36*
X362802Y64282D02*
X361198D01*
X359716Y63668D01*
X358582Y62534D01*
X357121Y62327D01*
X356073Y62761D01*
X354469D01*
X352987Y62147D01*
X351853Y61013D01*
X351239Y59531D01*
Y57927D01*
X351853Y56445D01*
X352987Y55311D01*
X354469Y54697D01*
X356073D01*
X357555Y55311D01*
X358689Y56445D01*
X360149Y56652D01*
X361198Y56218D01*
X362802D01*
X364284Y56832D01*
X365418Y57966D01*
X366032Y59448D01*
Y61052D01*
X365418Y62534D01*
X364284Y63668D01*
X362802Y64282D01*
D02*
G37*
%LPD*%
D10*
X214870Y28702D02*
X216918Y30750D01*
X184936Y29334D02*
X185568Y28702D01*
X178769Y29334D02*
X184936D01*
X185568Y28702D02*
X214870D01*
X216918Y30750D02*
X251227D01*
X357477Y150359D02*
Y182250D01*
Y150359D02*
X362394Y145442D01*
X362394D01*
X229529Y315948D02*
X299227Y246250D01*
X229529Y315948D02*
Y341448D01*
X203227Y367750D02*
X229529Y341448D01*
X299227Y183500D02*
Y246250D01*
X362394Y145442D02*
X366848Y140988D01*
X131477Y367750D02*
X203227D01*
X258727Y23250D02*
X270977D01*
X251227Y30750D02*
X258727Y23250D01*
X274024Y26297D02*
X315531D01*
X270977Y23250D02*
X274024Y26297D01*
D13*
X82750Y320202D02*
X87048Y324500D01*
X98518Y269116D02*
Y290655D01*
X66238Y252181D02*
X88681D01*
X62569D02*
X66238D01*
X98518Y290655D02*
X104187Y296324D01*
X59750Y255000D02*
Y260023D01*
X66238Y252181D02*
X66288Y252232D01*
X59750Y260023D02*
X66227Y266500D01*
X59750Y255000D02*
X62569Y252181D01*
X99025Y262525D02*
X99111Y262611D01*
X88681Y252181D02*
X99025Y262525D01*
X99111Y262611D02*
Y268235D01*
X66227Y266500D02*
Y277750D01*
X98518Y269116D02*
X99111Y268523D01*
Y268235D02*
Y268523D01*
D93*
X213250Y150000D02*
Y203750D01*
X220500Y142750D02*
X220698D01*
X213250Y150000D02*
X220500Y142750D01*
X216250Y154500D02*
X223500Y147250D01*
X216250Y154500D02*
Y204650D01*
X205900Y215000D02*
X216250Y204650D01*
X204754Y215000D02*
X205900D01*
X207000Y210000D02*
X213250Y203750D01*
X204202Y210000D02*
X207000D01*
X87048Y324500D02*
X94250D01*
X378750Y97000D02*
X383977D01*
X373750Y102000D02*
X378750Y97000D01*
X365500Y102000D02*
X373750D01*
X362750Y99250D02*
X365500Y102000D01*
X359477Y99250D02*
X362750D01*
X254477Y71000D02*
X281477Y98000D01*
X163250Y71000D02*
X254477D01*
X147125Y54875D02*
X163250Y71000D01*
X527814Y204317D02*
X558102Y234605D01*
X508843Y204317D02*
X527814D01*
X463750Y167750D02*
X464500Y168500D01*
X543500D01*
X383977Y97000D02*
X397977Y83000D01*
X351500Y115500D02*
X413977D01*
X330727Y94727D02*
X351500Y115500D01*
X330727Y83750D02*
Y94727D01*
X116875Y54875D02*
X147125D01*
X112000Y59750D02*
X116875Y54875D01*
X226000Y288750D02*
X241959D01*
X225250Y288000D02*
X226000Y288750D01*
X585031Y223219D02*
X630884Y177366D01*
X585031Y223219D02*
Y260760D01*
X508000Y117500D02*
X540500D01*
X427727Y104500D02*
X435913Y96314D01*
X486814D01*
X508000Y117500D01*
X460786Y144786D02*
X579495D01*
X429500Y113500D02*
X460786Y144786D01*
X414514Y106763D02*
X457604Y149854D01*
X574146D01*
X387977Y60086D02*
X388141Y60250D01*
X379313Y60086D02*
X387977D01*
X381942Y55465D02*
X382727Y56250D01*
X442542D02*
X579250D01*
X402975Y60933D02*
X577433D01*
X616750Y100250D01*
X385160Y53567D02*
X439859D01*
X442542Y56250D01*
X388141Y60250D02*
X402292D01*
X382727Y56000D02*
X385160Y53567D01*
X402292Y60250D02*
X402975Y60933D01*
X382727Y56000D02*
Y56250D01*
X246817Y273475D02*
X256750Y263542D01*
Y259750D02*
Y263542D01*
X621850Y295338D02*
Y296000D01*
X621809Y295297D02*
X621850Y295338D01*
X604750Y238750D02*
X608173D01*
X608251Y238672D01*
X602413Y249391D02*
X608179Y243624D01*
X602413Y249391D02*
Y282814D01*
X605977Y256482D02*
Y284000D01*
X613971Y245529D02*
Y248487D01*
X605977Y256482D02*
X613971Y248487D01*
X631317Y138817D02*
X631933Y139433D01*
X630884Y163325D02*
X631933Y162276D01*
Y139433D02*
Y162276D01*
X630884Y163325D02*
Y177366D01*
X586484Y153193D02*
X596562Y163271D01*
X610771D01*
X619750Y172250D01*
X584292Y159318D02*
X597657Y172683D01*
X583609Y159318D02*
X584292D01*
X597657Y172683D02*
X602242D01*
X574146Y149854D02*
X583609Y159318D01*
X602242Y172683D02*
X608000Y178441D01*
X579495Y144786D02*
X586484Y151776D01*
Y153193D01*
X451201Y182318D02*
X601818D01*
X450964Y182555D02*
X451201Y182318D01*
X109786Y49464D02*
X153464D01*
X84250Y75000D02*
X109786Y49464D01*
X174227Y57250D02*
X179114Y52364D01*
X181250Y50000D02*
X311849D01*
X179000Y52250D02*
X181250Y50000D01*
X165924Y35500D02*
X187042D01*
X361660Y36433D02*
X380692Y55465D01*
X187042Y35500D02*
X187974Y36433D01*
X361660D01*
X153464Y49464D02*
X161250Y57250D01*
X174227D01*
X169750Y52250D02*
X173317D01*
X179250Y46317D02*
X314294D01*
X173317Y52250D02*
X179250Y46317D01*
X167250Y45750D02*
X171977D01*
X174227Y43500D01*
X169727Y39500D02*
X358727D01*
X241959Y288750D02*
X261250Y269459D01*
X246817Y273475D02*
Y275641D01*
X261250Y253893D02*
Y269459D01*
X239776Y282683D02*
X246817Y275641D01*
X234250Y285000D02*
X236567Y282683D01*
X239776D01*
X631317Y126933D02*
Y138817D01*
Y126933D02*
X633250Y125000D01*
X560791Y285000D02*
X585031Y260760D01*
X70727Y322475D02*
Y354500D01*
Y322475D02*
X73000Y320202D01*
X608000Y178441D02*
Y181500D01*
X619750Y172250D02*
X624500D01*
X192614Y188864D02*
X203000Y178477D01*
Y174702D02*
Y178477D01*
X504477Y208683D02*
X508843Y204317D01*
X618000Y164750D02*
X621839D01*
X610500Y157250D02*
X618000Y164750D01*
X610500Y117750D02*
Y157250D01*
X593500Y100750D02*
X610500Y117750D01*
X557250Y100750D02*
X593500D01*
X540500Y117500D02*
X557250Y100750D01*
X360512Y106763D02*
X414514D01*
X588826Y248132D02*
Y268965D01*
Y248132D02*
X604958Y232000D01*
X616750Y100250D02*
Y152359D01*
X621642Y157250D01*
X621850D01*
X579250Y56250D02*
X627750Y104750D01*
Y146350D01*
X621850Y152250D02*
X627750Y146350D01*
X604958Y232000D02*
X625884D01*
X626250Y232366D01*
X635000Y135750D02*
X638250Y139000D01*
Y220000D01*
X626250Y232000D02*
X638250Y220000D01*
X428727Y184750D02*
Y196500D01*
Y184750D02*
X445727Y167750D01*
X463750D01*
X613971Y245529D02*
X622500Y237000D01*
X502233Y285000D02*
X560791D01*
X493579Y292602D02*
X575606D01*
X496160Y288433D02*
X569358D01*
X575606Y292602D02*
X592635Y275574D01*
X569358Y288433D02*
X588826Y268965D01*
X592635Y250866D02*
Y275574D01*
Y250866D02*
X604750Y238750D01*
X622100Y309250D02*
Y310147D01*
X418740Y201280D02*
Y249513D01*
X451477Y282250D01*
X418420Y183484D02*
Y200960D01*
X418740Y201280D01*
X400770Y128793D02*
Y204699D01*
X401062Y204991D01*
X120732Y356720D02*
X121025Y356427D01*
X115714Y359296D02*
X118290Y356720D01*
X120732D01*
X336727Y119500D02*
X410977D01*
X309439Y92212D02*
X336727Y119500D01*
X309439Y61091D02*
Y92212D01*
X500227Y283750D02*
X500983D01*
X502233Y285000D01*
X111931Y359296D02*
X115714D01*
X106794Y364433D02*
X111931Y359296D01*
X80660Y364433D02*
X106794D01*
X319477Y57628D02*
Y72500D01*
X330727Y83750D01*
X583477Y301750D02*
X602413Y282814D01*
X457124Y297835D02*
X457659Y298370D01*
Y299957D02*
X459452Y301750D01*
X583477D01*
X457659Y298370D02*
Y299957D01*
X585227Y304750D02*
X605977Y284000D01*
X457093Y304750D02*
X585227D01*
X453227Y300884D02*
X457093Y304750D01*
X281477Y98000D02*
X301977D01*
X337477Y133500D01*
X482069Y274342D02*
X496160Y288433D01*
X116875Y364921D02*
X117740D01*
X114546Y367250D02*
X116875Y364921D01*
X117740D02*
X120560Y362101D01*
X70727Y354500D02*
X80660Y364433D01*
X437949Y193681D02*
X452951Y208683D01*
X504477D01*
X400477Y128500D02*
X400770Y128793D01*
X434977Y202750D02*
Y208500D01*
X434727Y208750D02*
X434977Y208500D01*
X428727Y196500D02*
X434977Y202750D01*
X432561Y193681D02*
X437949D01*
X417518Y293250D02*
X437477D01*
X415518Y295250D02*
X417518Y293250D01*
X425477Y127000D02*
Y244339D01*
X413977Y115500D02*
X425477Y127000D01*
X422384Y130907D02*
Y247157D01*
X410977Y119500D02*
X422384Y130907D01*
X311849Y50000D02*
X319477Y57628D01*
X337477Y133500D02*
Y199250D01*
X174227Y43500D02*
X316727D01*
X327977Y54750D01*
X314294Y46317D02*
X324294Y56317D01*
X77727Y367250D02*
X114546D01*
X64977Y354500D02*
X77727Y367250D01*
X64977Y354500D02*
Y354500D01*
X422384Y247157D02*
X453477Y278250D01*
X411477Y295250D02*
X415518D01*
X479727Y278250D02*
X487477Y286000D01*
X425477Y244339D02*
X455480Y274342D01*
X439477Y295250D02*
X442977D01*
X437477Y293250D02*
X439477Y295250D01*
X324294Y70317D02*
X336977Y83000D01*
X324294Y56317D02*
Y70317D01*
X327977Y54750D02*
Y68250D01*
X451477Y282250D02*
X474227D01*
X453477Y278250D02*
X479727D01*
X455480Y274342D02*
X482069D01*
X415227Y289750D02*
X460371D01*
X468163Y297542D02*
Y297542D01*
X460371Y289750D02*
X468163Y297542D01*
X487477Y286500D02*
X493579Y292602D01*
X487477Y286000D02*
Y286500D01*
X453227Y294728D02*
X453622Y294333D01*
X453227Y294728D02*
Y300884D01*
X358727Y39500D02*
X379313Y60086D01*
X380692Y55465D02*
X381942D01*
D94*
X298000Y286750D02*
X329750Y255000D01*
X344477D01*
X99025Y262525D02*
X99673Y261877D01*
Y205054D02*
X114776Y189951D01*
X99673Y205054D02*
Y261877D01*
X191429Y190048D02*
X192614Y188864D01*
X142032Y190048D02*
X191429D01*
X141936Y189951D02*
X142032Y190048D01*
X114776Y189951D02*
X141936D01*
D95*
X247775Y95798D02*
X266591D01*
X269447Y95762D02*
X269456Y95754D01*
X266591Y95798D02*
X266627Y95762D01*
X269447D01*
X226628Y74651D02*
X247775Y95798D01*
X269456Y95729D02*
Y95754D01*
X118500Y71157D02*
X121994Y74651D01*
X226628D01*
X118500Y60267D02*
Y71157D01*
X115250Y31750D02*
X131250Y15750D01*
X291000D01*
X292250Y17000D01*
X322250D01*
X269456Y95729D02*
X283727Y110000D01*
Y150260D01*
X283704Y150273D02*
X283739D01*
X299227Y165760D02*
Y183500D01*
X283704Y150260D02*
Y150273D01*
X283739D02*
X299227Y165760D01*
D99*
X68650Y221550D02*
D03*
Y307950D02*
D03*
D100*
X15050Y221550D02*
D03*
Y307950D02*
D03*
D102*
X104500Y99250D02*
D03*
D104*
X74250Y147500D02*
D03*
D106*
X269477Y95750D02*
D03*
X220698Y142750D02*
D03*
X223500Y147250D02*
D03*
X204500Y205000D02*
D03*
X204202Y210000D02*
D03*
X204754Y215000D02*
D03*
X594385Y198224D02*
D03*
X602000Y220500D02*
D03*
X82750Y320202D02*
D03*
X184001Y319757D02*
D03*
X512727Y212250D02*
D03*
X112000Y59750D02*
D03*
X118500Y60250D02*
D03*
X182071Y60840D02*
D03*
X212000Y60770D02*
D03*
X227000Y62250D02*
D03*
X97750Y309500D02*
D03*
X207000Y298685D02*
D03*
X225250Y288000D02*
D03*
X99750Y289750D02*
D03*
X115250Y31750D02*
D03*
X322250Y17000D02*
D03*
X363806Y17444D02*
D03*
X403750Y22500D02*
D03*
X389500D02*
D03*
X444000Y52500D02*
D03*
X444500Y32500D02*
D03*
X354000Y283500D02*
D03*
X319000Y302750D02*
D03*
X301500Y304250D02*
D03*
X256750Y259750D02*
D03*
X59250Y329500D02*
D03*
X66288Y252232D02*
D03*
X429500Y113500D02*
D03*
X298000Y286750D02*
D03*
X621809Y295297D02*
D03*
X608251Y238672D02*
D03*
X608179Y243624D02*
D03*
X629000Y243250D02*
D03*
X633450Y77950D02*
D03*
X568250Y357750D02*
D03*
X628500Y212750D02*
D03*
X625150Y317600D02*
D03*
X609000Y168750D02*
D03*
X601818Y182318D02*
D03*
X523000Y296750D02*
D03*
X542250Y231000D02*
D03*
X68500Y61250D02*
D03*
X258500Y54500D02*
D03*
X336977Y30523D02*
D03*
X240977Y349727D02*
D03*
X205750Y319798D02*
D03*
X120727Y39000D02*
D03*
X130727D02*
D03*
X197000Y191750D02*
D03*
X208250Y190750D02*
D03*
X179000Y52250D02*
D03*
X169750D02*
D03*
X167250Y45750D02*
D03*
X169727Y39500D02*
D03*
X165924Y35500D02*
D03*
X208250Y262750D02*
D03*
X206500Y268000D02*
D03*
X236500Y271500D02*
D03*
X232750Y265500D02*
D03*
X221000Y263500D02*
D03*
X239250Y267250D02*
D03*
X251250Y253893D02*
D03*
X234250Y285000D02*
D03*
X261250Y253893D02*
D03*
X275164Y247164D02*
D03*
X268000Y245750D02*
D03*
X220250Y270750D02*
D03*
X578000Y252798D02*
D03*
X120750Y297000D02*
D03*
X543500Y168500D02*
D03*
X633250Y125000D02*
D03*
X73000Y320202D02*
D03*
X608000Y181500D02*
D03*
X624500Y172250D02*
D03*
X204500Y240000D02*
D03*
X204750Y230000D02*
D03*
X204500Y220000D02*
D03*
X204750Y200000D02*
D03*
X203000Y174702D02*
D03*
X99111Y268235D02*
D03*
X104070Y268329D02*
D03*
X52974Y292180D02*
D03*
X53052Y277321D02*
D03*
X66227Y277750D02*
D03*
X84250Y75000D02*
D03*
X32000Y74750D02*
D03*
X567750Y202000D02*
D03*
X467977Y106734D02*
D03*
X482977Y106767D02*
D03*
X437500Y110250D02*
D03*
X453250Y110500D02*
D03*
X632500Y279250D02*
D03*
X633000Y285750D02*
D03*
X626250Y232366D02*
D03*
X621839Y164750D02*
D03*
X621850Y157250D02*
D03*
Y152250D02*
D03*
X621750Y146500D02*
D03*
X620750Y112750D02*
D03*
Y124750D02*
D03*
Y136750D02*
D03*
X635000Y135750D02*
D03*
X505227Y125500D02*
D03*
X577750Y136750D02*
D03*
Y112750D02*
D03*
Y124750D02*
D03*
X578500Y160750D02*
D03*
X578250Y168750D02*
D03*
X578250Y212750D02*
D03*
Y224750D02*
D03*
X577750Y296750D02*
D03*
X576750Y308750D02*
D03*
X577500Y260750D02*
D03*
X622500Y237000D02*
D03*
X622458Y259321D02*
D03*
X622401Y274179D02*
D03*
X621350Y284750D02*
D03*
X622100Y310147D02*
D03*
X134477Y198250D02*
D03*
X69977Y199500D02*
D03*
X119477Y234000D02*
D03*
X141959Y185216D02*
D03*
X153995Y206970D02*
D03*
X181766Y205167D02*
D03*
X167549Y205485D02*
D03*
X393215Y211599D02*
D03*
X388926Y200382D02*
D03*
X401062Y204991D02*
D03*
X384154Y255366D02*
D03*
X378062Y235353D02*
D03*
X178769Y29334D02*
D03*
X121025Y356427D02*
D03*
X508540Y281317D02*
D03*
X357727Y48750D02*
D03*
X387977Y60250D02*
D03*
X309439Y61091D02*
D03*
X352406Y237430D02*
D03*
X366848Y140988D02*
D03*
X317758Y150015D02*
D03*
X178477Y145000D02*
D03*
X558102Y234605D02*
D03*
X300477Y102584D02*
D03*
X179018Y361489D02*
D03*
X124118Y342912D02*
D03*
X304477Y243000D02*
D03*
X157255Y360554D02*
D03*
X459141Y43652D02*
D03*
X452500Y22500D02*
D03*
X527227Y353500D02*
D03*
X292477Y233000D02*
D03*
X343477Y150000D02*
D03*
X449477Y173000D02*
D03*
X372477Y298000D02*
D03*
X435477Y338000D02*
D03*
X120560Y362101D02*
D03*
X336918Y90803D02*
D03*
X468106Y83836D02*
D03*
X417977Y273000D02*
D03*
X434727Y208750D02*
D03*
X432561Y193681D02*
D03*
X388025Y297748D02*
D03*
X413163Y339128D02*
D03*
X513186Y177976D02*
D03*
X117195Y207295D02*
D03*
X117345Y218135D02*
D03*
X117220Y212914D02*
D03*
X474744Y177280D02*
D03*
X450964Y182555D02*
D03*
X418420Y183484D02*
D03*
X276733Y74276D02*
D03*
X131477Y367750D02*
D03*
X111477Y372287D02*
D03*
X64977Y354500D02*
D03*
X112727Y210000D02*
D03*
Y215750D02*
D03*
X357977Y319750D02*
D03*
X417977Y298000D02*
D03*
X336727Y351500D02*
D03*
X351227Y104750D02*
D03*
X519477Y339000D02*
D03*
X377977Y83250D02*
D03*
X487477Y286000D02*
D03*
X520477Y125500D02*
D03*
X442977Y295250D02*
D03*
X411477D02*
D03*
X254139Y230413D02*
D03*
X333477Y191250D02*
D03*
X357477Y182250D02*
D03*
X337477Y199250D02*
D03*
X283675Y150260D02*
D03*
X299227Y183500D02*
D03*
X217477Y30750D02*
D03*
X315531Y26297D02*
D03*
X266727Y29000D02*
D03*
X207227Y346500D02*
D03*
X327487Y249740D02*
D03*
X349977Y200000D02*
D03*
X344477Y255000D02*
D03*
X400477Y128500D02*
D03*
X336977Y83000D02*
D03*
X474227Y282250D02*
D03*
X455480Y274342D02*
D03*
X468163Y297542D02*
D03*
X457124Y297835D02*
D03*
X512727Y131250D02*
D03*
X447977Y297750D02*
D03*
X453622Y294333D02*
D03*
X415227Y289750D02*
D03*
X432977Y297750D02*
D03*
X372977Y319750D02*
D03*
X402977Y297750D02*
D03*
X327977Y68250D02*
D03*
X359477Y99250D02*
D03*
X318727Y94000D02*
D03*
X397977Y83000D02*
D03*
X391410Y83626D02*
D03*
X382727Y56000D02*
D03*
X482981Y89228D02*
D03*
X407977Y83250D02*
D03*
X287434Y63445D02*
D03*
X360512Y106763D02*
D03*
X452977Y83836D02*
D03*
X437890D02*
D03*
X427727Y104500D02*
D03*
X500227Y283750D02*
D03*
X432977Y273000D02*
D03*
X414727Y283250D02*
D03*
X399227D02*
D03*
D107*
X5584Y87500D02*
D03*
X569727Y77000D02*
D03*
X606524Y352436D02*
D03*
Y364083D02*
D03*
X612347Y374169D02*
D03*
X644167Y342349D02*
D03*
X634081Y336526D02*
D03*
X622434D02*
D03*
X612347Y342349D02*
D03*
X612314Y37628D02*
D03*
X622400Y43451D02*
D03*
X634047D02*
D03*
X644134Y37628D02*
D03*
X612314Y5808D02*
D03*
X606490Y15895D02*
D03*
Y27541D02*
D03*
X614139Y60628D02*
D03*
Y83628D02*
D03*
X6000Y56495D02*
D03*
Y102495D02*
D03*
Y125495D02*
D03*
Y148495D02*
D03*
X5704Y241508D02*
D03*
X6000Y194495D02*
D03*
Y171495D02*
D03*
Y286495D02*
D03*
Y263495D02*
D03*
X563477Y373977D02*
D03*
X540477D02*
D03*
X517477D02*
D03*
X494477D02*
D03*
X471477D02*
D03*
X379477D02*
D03*
X402477D02*
D03*
X425477D02*
D03*
X448477D02*
D03*
X287477D02*
D03*
X310477D02*
D03*
X333477D02*
D03*
X356477D02*
D03*
X195477D02*
D03*
X218477D02*
D03*
X241477D02*
D03*
X264477D02*
D03*
X103477D02*
D03*
X126477D02*
D03*
X156477Y374000D02*
D03*
X172477Y373977D02*
D03*
X57477D02*
D03*
X79241Y374222D02*
D03*
X80477Y6000D02*
D03*
X57477D02*
D03*
X172477D02*
D03*
X149477D02*
D03*
X126477D02*
D03*
X103477D02*
D03*
X264477D02*
D03*
X241477D02*
D03*
X218477D02*
D03*
X195477D02*
D03*
X356477D02*
D03*
X333477D02*
D03*
X310477D02*
D03*
X287477D02*
D03*
X448477D02*
D03*
X425477D02*
D03*
X402477D02*
D03*
X379477D02*
D03*
X471477D02*
D03*
X494477D02*
D03*
X517477D02*
D03*
X540477D02*
D03*
X257800Y331749D02*
D03*
X299300D02*
D03*
X278550Y310999D02*
D03*
Y352499D02*
D03*
X6312Y328803D02*
D03*
X37628Y342324D02*
D03*
X43451Y352411D02*
D03*
Y364058D02*
D03*
X37628Y374144D02*
D03*
X5808Y342324D02*
D03*
X15894Y336501D02*
D03*
X27541D02*
D03*
X37628Y37653D02*
D03*
X43451Y27566D02*
D03*
Y15919D02*
D03*
X37628Y5833D02*
D03*
X5808Y37653D02*
D03*
X15894Y43476D02*
D03*
X27541D02*
D03*
X563477Y6000D02*
D03*
D121*
X520600Y89749D02*
D03*
X278550Y331749D02*
D03*
M02*
