G04*
G04 #@! TF.GenerationSoftware,Altium Limited,Altium Designer,19.1.8 (144)*
G04*
G04 Layer_Color=128*
%FSLAX44Y44*%
%MOMM*%
G71*
G01*
G75*
%ADD13C,0.2500*%
%ADD23R,0.5500X0.6500*%
%ADD30R,0.6500X0.5500*%
%ADD32R,0.9000X1.0000*%
%ADD40R,1.0000X0.9000*%
%ADD41R,0.7100X0.3000*%
%ADD48R,0.6200X0.6200*%
%ADD49R,0.6200X0.6200*%
%ADD164R,1.1500X1.4500*%
%ADD165R,0.3000X1.2000*%
%ADD166R,2.7000X3.0000*%
%ADD167R,0.3800X2.0500*%
%ADD168R,4.5000X4.6000*%
%ADD169R,1.3000X1.5000*%
%ADD170R,1.5000X1.3000*%
%ADD171R,0.5630X0.2250*%
%ADD172R,0.2250X0.5630*%
%ADD173R,0.2250X0.6630*%
%ADD174R,0.2200X0.5000*%
%ADD175R,1.0000X0.8000*%
%ADD176R,0.9000X0.4000*%
%ADD177O,0.5500X1.2500*%
%ADD178R,0.4000X0.5100*%
%ADD179R,0.5100X0.4000*%
%ADD180R,1.5500X1.5000*%
%ADD181R,1.3500X0.4000*%
%ADD182R,0.6000X4.2000*%
%ADD183R,0.6000X2.0000*%
%ADD184R,2.4000X0.7600*%
%ADD185R,1.5500X1.2000*%
%ADD186R,1.5500X1.2000*%
D13*
X357183Y31250D02*
D03*
Y39250D02*
D03*
Y35250D02*
D03*
X365183Y31250D02*
D03*
Y39250D02*
D03*
Y35250D02*
D03*
X361184Y31250D02*
D03*
Y39250D02*
D03*
Y35250D02*
D03*
D23*
X625533Y299483D02*
D03*
X635533D02*
D03*
X770900Y369563D02*
D03*
X760900D02*
D03*
X411184Y274750D02*
D03*
X421184D02*
D03*
X390183Y274750D02*
D03*
X380183D02*
D03*
X680250Y65000D02*
D03*
X690250D02*
D03*
X66234Y133709D02*
D03*
X56234D02*
D03*
X78000Y134000D02*
D03*
X88000D02*
D03*
X146439Y263677D02*
D03*
X156439D02*
D03*
X246663Y121418D02*
D03*
X236663D02*
D03*
X245184Y110000D02*
D03*
X235184D02*
D03*
X1065607Y178375D02*
D03*
X1075607D02*
D03*
X994000Y259313D02*
D03*
X984000D02*
D03*
X116000Y299000D02*
D03*
X106000D02*
D03*
X997857Y275655D02*
D03*
X1007857D02*
D03*
X390284Y34366D02*
D03*
X380284D02*
D03*
X756835Y197280D02*
D03*
X766835D02*
D03*
X984000Y249100D02*
D03*
X994000D02*
D03*
D30*
X989000Y304156D02*
D03*
Y294156D02*
D03*
X833230Y321056D02*
D03*
Y331056D02*
D03*
X60184Y80813D02*
D03*
Y90813D02*
D03*
X601000Y284000D02*
D03*
Y294000D02*
D03*
X580565Y286326D02*
D03*
Y296326D02*
D03*
X487284Y264663D02*
D03*
Y274663D02*
D03*
X512166Y275056D02*
D03*
Y285056D02*
D03*
X670284Y76000D02*
D03*
Y66000D02*
D03*
X702000Y76000D02*
D03*
Y66000D02*
D03*
X693000Y27000D02*
D03*
Y17000D02*
D03*
X658000Y37000D02*
D03*
Y47000D02*
D03*
X703000Y33000D02*
D03*
Y43000D02*
D03*
X43000Y134300D02*
D03*
Y124300D02*
D03*
X108000Y134000D02*
D03*
Y124000D02*
D03*
X655250Y271649D02*
D03*
Y261649D02*
D03*
X284400Y507250D02*
D03*
Y517250D02*
D03*
X259000Y507000D02*
D03*
Y517000D02*
D03*
X602000Y323000D02*
D03*
Y313000D02*
D03*
X365183Y63450D02*
D03*
Y53450D02*
D03*
X792721Y44517D02*
D03*
Y54517D02*
D03*
X766969Y44517D02*
D03*
Y54517D02*
D03*
X863200Y183375D02*
D03*
Y173375D02*
D03*
X1049770Y224246D02*
D03*
Y234246D02*
D03*
D32*
X766500Y245100D02*
D03*
X750500D02*
D03*
X120403Y131500D02*
D03*
X136403D02*
D03*
X627284Y264280D02*
D03*
X643283D02*
D03*
X594750Y114975D02*
D03*
X610750D02*
D03*
X950000Y84000D02*
D03*
X966000D02*
D03*
X950000Y69000D02*
D03*
X966000D02*
D03*
X950000Y54000D02*
D03*
X966000D02*
D03*
X950000Y39000D02*
D03*
X966000D02*
D03*
X960600Y300794D02*
D03*
X976600D02*
D03*
X799793Y197280D02*
D03*
X783794D02*
D03*
D40*
X622000Y328000D02*
D03*
Y312000D02*
D03*
X637000Y328000D02*
D03*
Y312000D02*
D03*
X780000Y111050D02*
D03*
Y95050D02*
D03*
X30000Y131460D02*
D03*
Y115460D02*
D03*
X65000Y121500D02*
D03*
Y105500D02*
D03*
X80283Y121500D02*
D03*
Y105500D02*
D03*
X784000Y353257D02*
D03*
Y337257D02*
D03*
X130656Y324263D02*
D03*
Y308263D02*
D03*
X72183Y361565D02*
D03*
Y345565D02*
D03*
X87470Y369565D02*
D03*
Y353565D02*
D03*
X1030945Y288517D02*
D03*
Y304517D02*
D03*
X735000Y450000D02*
D03*
Y434000D02*
D03*
X735116Y403689D02*
D03*
Y419688D02*
D03*
X749000Y371000D02*
D03*
Y387000D02*
D03*
D41*
X29490Y87414D02*
D03*
X41690Y82414D02*
D03*
Y92414D02*
D03*
D48*
X814900Y252749D02*
D03*
Y261749D02*
D03*
X737045Y292156D02*
D03*
Y283156D02*
D03*
X742558Y349600D02*
D03*
Y340600D02*
D03*
X749500Y290495D02*
D03*
Y281495D02*
D03*
X762526Y274756D02*
D03*
Y265756D02*
D03*
X774830Y274901D02*
D03*
Y265901D02*
D03*
X830889Y254149D02*
D03*
Y263149D02*
D03*
X788694Y281556D02*
D03*
Y272556D02*
D03*
X811000Y351500D02*
D03*
Y360500D02*
D03*
X770064Y348652D02*
D03*
Y357651D02*
D03*
X117000Y320763D02*
D03*
Y311763D02*
D03*
X76849Y310789D02*
D03*
Y319789D02*
D03*
X1016854Y296617D02*
D03*
Y305617D02*
D03*
X749135Y436351D02*
D03*
Y427351D02*
D03*
X748552Y405951D02*
D03*
Y414951D02*
D03*
D49*
X681500Y76000D02*
D03*
X690500D02*
D03*
X713175Y55000D02*
D03*
X704175D02*
D03*
X713175Y22000D02*
D03*
X704175D02*
D03*
X823500Y344000D02*
D03*
X832500D02*
D03*
X825625Y311056D02*
D03*
X834625D02*
D03*
X824600Y296056D02*
D03*
X833600D02*
D03*
X750937Y326644D02*
D03*
X741937D02*
D03*
X750850Y314656D02*
D03*
X741850D02*
D03*
X93684Y332895D02*
D03*
X84684D02*
D03*
X967600Y314844D02*
D03*
X976600D02*
D03*
X772011Y387456D02*
D03*
X763011D02*
D03*
X365684Y19000D02*
D03*
X356684D02*
D03*
X313683Y39600D02*
D03*
X304683D02*
D03*
X516003Y262801D02*
D03*
X525003D02*
D03*
X571499Y262656D02*
D03*
X562499D02*
D03*
D164*
X679284Y22500D02*
D03*
X661283D02*
D03*
X692000Y92000D02*
D03*
X674000D02*
D03*
D165*
X108349Y550864D02*
D03*
X103349D02*
D03*
X98349D02*
D03*
X73348D02*
D03*
X78348D02*
D03*
X83349D02*
D03*
X88349D02*
D03*
X93349D02*
D03*
D166*
X54049Y569464D02*
D03*
X127648D02*
D03*
D167*
X682283Y157960D02*
D03*
D03*
X679284Y239960D02*
D03*
X676283Y157960D02*
D03*
X670284D02*
D03*
X664284D02*
D03*
X658283D02*
D03*
X652283D02*
D03*
X646283D02*
D03*
X640284D02*
D03*
X634283D02*
D03*
X628284D02*
D03*
X622284D02*
D03*
X616283D02*
D03*
X610284D02*
D03*
X604283D02*
D03*
X598284D02*
D03*
X592284D02*
D03*
X586283D02*
D03*
X580284D02*
D03*
X574283D02*
D03*
X568284D02*
D03*
X526283D02*
D03*
X520284D02*
D03*
X514283D02*
D03*
X508284D02*
D03*
X502284D02*
D03*
X496283D02*
D03*
X490284D02*
D03*
X484283D02*
D03*
X478284D02*
D03*
X472284D02*
D03*
X466283D02*
D03*
X460284D02*
D03*
X454283D02*
D03*
X448284D02*
D03*
X442284D02*
D03*
X436283D02*
D03*
X430284D02*
D03*
X424283D02*
D03*
X418284D02*
D03*
X412284D02*
D03*
X406283D02*
D03*
X400284D02*
D03*
X394283D02*
D03*
X388284D02*
D03*
X382284D02*
D03*
X376283D02*
D03*
X370284D02*
D03*
X364283D02*
D03*
X358284D02*
D03*
X352284D02*
D03*
X346283D02*
D03*
X340284D02*
D03*
X334283D02*
D03*
X328284D02*
D03*
X322284D02*
D03*
X316283D02*
D03*
X310284D02*
D03*
X304284D02*
D03*
X298284D02*
D03*
X292283D02*
D03*
X286283D02*
D03*
X280284D02*
D03*
X274284D02*
D03*
X268284D02*
D03*
X262283D02*
D03*
X256283D02*
D03*
X250284D02*
D03*
X244284D02*
D03*
X238284D02*
D03*
X232283D02*
D03*
X226283D02*
D03*
X220284D02*
D03*
X214284D02*
D03*
X208284D02*
D03*
X202283D02*
D03*
X196283D02*
D03*
X190284D02*
D03*
X184284D02*
D03*
X178284D02*
D03*
X172283D02*
D03*
X166283D02*
D03*
X160284D02*
D03*
X154284D02*
D03*
X148284D02*
D03*
X142283D02*
D03*
X136284D02*
D03*
X130283D02*
D03*
X124284D02*
D03*
X118284D02*
D03*
X112283D02*
D03*
X106284D02*
D03*
X100283D02*
D03*
X94284D02*
D03*
X88284D02*
D03*
X82283D02*
D03*
X76283D02*
D03*
X70283D02*
D03*
X64283D02*
D03*
X58284D02*
D03*
X52284D02*
D03*
X679284Y239960D02*
D03*
X673283D02*
D03*
X667283D02*
D03*
X661283D02*
D03*
X655284D02*
D03*
X649284D02*
D03*
X643283D02*
D03*
X637284D02*
D03*
X631283D02*
D03*
X625284D02*
D03*
X619283D02*
D03*
X613284D02*
D03*
X607284D02*
D03*
X601283D02*
D03*
X595284D02*
D03*
X589283D02*
D03*
X583284D02*
D03*
X577284D02*
D03*
X571283D02*
D03*
X565284D02*
D03*
X523284D02*
D03*
X517284D02*
D03*
X511283D02*
D03*
X505284D02*
D03*
X499283D02*
D03*
X493284D02*
D03*
X487284D02*
D03*
X481283D02*
D03*
X475284D02*
D03*
X469283D02*
D03*
X463284D02*
D03*
X457284D02*
D03*
X451283D02*
D03*
X445284D02*
D03*
X439283D02*
D03*
X433284D02*
D03*
X427284D02*
D03*
X421283D02*
D03*
X415284D02*
D03*
X409283D02*
D03*
X403284D02*
D03*
X397284D02*
D03*
X391283D02*
D03*
X385284D02*
D03*
X379283D02*
D03*
X373284D02*
D03*
X367284D02*
D03*
X361283D02*
D03*
X355284D02*
D03*
X349283D02*
D03*
X343284D02*
D03*
X337284D02*
D03*
X331283D02*
D03*
X325284D02*
D03*
X319284D02*
D03*
X313284D02*
D03*
X307283D02*
D03*
X301283D02*
D03*
X295284D02*
D03*
X289284D02*
D03*
X283284D02*
D03*
X277283D02*
D03*
X271283D02*
D03*
X265284D02*
D03*
X259284D02*
D03*
X253284D02*
D03*
X247283D02*
D03*
X241283D02*
D03*
X235284D02*
D03*
X229284D02*
D03*
X223284D02*
D03*
X217283D02*
D03*
X211283D02*
D03*
X205284D02*
D03*
X199284D02*
D03*
X193284D02*
D03*
X187283D02*
D03*
X181283D02*
D03*
X175284D02*
D03*
X169284D02*
D03*
X163284D02*
D03*
X157283D02*
D03*
X151284D02*
D03*
X145283D02*
D03*
X139284D02*
D03*
X133284D02*
D03*
X127283D02*
D03*
X121284D02*
D03*
X115283D02*
D03*
X109284D02*
D03*
X103284D02*
D03*
X97283D02*
D03*
X91284D02*
D03*
X85283D02*
D03*
X79283D02*
D03*
X73284D02*
D03*
X67284D02*
D03*
X61283D02*
D03*
X55283D02*
D03*
X49283D02*
D03*
D168*
X691283Y318960D02*
D03*
X40283D02*
D03*
D169*
X719800Y439911D02*
D03*
X700800D02*
D03*
X732901Y387456D02*
D03*
X713901D02*
D03*
X975363Y284406D02*
D03*
X956363D02*
D03*
D170*
X719000Y404500D02*
D03*
Y423500D02*
D03*
X1047304Y284959D02*
D03*
Y303959D02*
D03*
X147000Y316080D02*
D03*
Y335080D02*
D03*
X953000Y316500D02*
D03*
Y335500D02*
D03*
X104000Y374565D02*
D03*
Y355565D02*
D03*
X55550Y364115D02*
D03*
Y383115D02*
D03*
D171*
X845408Y231538D02*
D03*
Y227538D02*
D03*
Y223538D02*
D03*
X860779D02*
D03*
Y227538D02*
D03*
Y231538D02*
D03*
D172*
X851094Y221853D02*
D03*
X855094D02*
D03*
Y233223D02*
D03*
D173*
X851094Y232723D02*
D03*
D174*
X808000Y402000D02*
D03*
X812000D02*
D03*
X828000Y426000D02*
D03*
X824000D02*
D03*
X820000D02*
D03*
X816000D02*
D03*
X812000D02*
D03*
X808000D02*
D03*
X804000D02*
D03*
X800000D02*
D03*
X796000D02*
D03*
X792000D02*
D03*
X788000D02*
D03*
X784000D02*
D03*
X780000D02*
D03*
X776000D02*
D03*
X772000D02*
D03*
Y402000D02*
D03*
X776000D02*
D03*
X780000D02*
D03*
X784000D02*
D03*
X788000D02*
D03*
X792000D02*
D03*
X796000D02*
D03*
X800000D02*
D03*
X804000D02*
D03*
X816000D02*
D03*
X820000D02*
D03*
X824000D02*
D03*
X828000D02*
D03*
D175*
X298284Y64000D02*
D03*
X322284Y54500D02*
D03*
Y73500D02*
D03*
D176*
X670883Y40803D02*
D03*
Y47303D02*
D03*
Y53803D02*
D03*
X689883D02*
D03*
Y47303D02*
D03*
Y40803D02*
D03*
D177*
X942762Y216325D02*
D03*
X955462D02*
D03*
X968162D02*
D03*
X980862D02*
D03*
X942762Y163825D02*
D03*
X955462D02*
D03*
X968162D02*
D03*
X980862D02*
D03*
D178*
X1049770Y263749D02*
D03*
X1044770Y250749D02*
D03*
X1054770D02*
D03*
X347183Y45500D02*
D03*
X352183Y58500D02*
D03*
X342183D02*
D03*
X1030945Y237776D02*
D03*
X1025945Y224776D02*
D03*
X1035945D02*
D03*
D179*
X378783Y53450D02*
D03*
X391783Y48450D02*
D03*
Y58450D02*
D03*
X995950Y231496D02*
D03*
X1008950Y226496D02*
D03*
Y236496D02*
D03*
D180*
X1083500Y110000D02*
D03*
Y130000D02*
D03*
D181*
X1056500Y107000D02*
D03*
Y113500D02*
D03*
Y120000D02*
D03*
Y126500D02*
D03*
Y133000D02*
D03*
D182*
X256000Y70000D02*
D03*
X96000D02*
D03*
X623000D02*
D03*
X463000D02*
D03*
D183*
X246000Y90000D02*
D03*
X236000D02*
D03*
X226000D02*
D03*
X216000D02*
D03*
X206000D02*
D03*
X196000D02*
D03*
X186000D02*
D03*
X176000D02*
D03*
X166000D02*
D03*
X156000D02*
D03*
X146000D02*
D03*
X136000D02*
D03*
X126000D02*
D03*
X116000D02*
D03*
X106000D02*
D03*
X613000D02*
D03*
X603000D02*
D03*
X593000D02*
D03*
X583000D02*
D03*
X573000D02*
D03*
X563000D02*
D03*
X553000D02*
D03*
X543000D02*
D03*
X533000D02*
D03*
X523000D02*
D03*
X513000D02*
D03*
X503000D02*
D03*
X493000D02*
D03*
X483000D02*
D03*
X473000D02*
D03*
D184*
X1030500Y424600D02*
D03*
Y437300D02*
D03*
Y450000D02*
D03*
Y462700D02*
D03*
Y475400D02*
D03*
X1069500Y424600D02*
D03*
Y437300D02*
D03*
Y450000D02*
D03*
Y462700D02*
D03*
Y475400D02*
D03*
X950500Y494600D02*
D03*
Y507300D02*
D03*
Y520000D02*
D03*
Y532700D02*
D03*
Y545400D02*
D03*
X989500Y494600D02*
D03*
Y507300D02*
D03*
Y520000D02*
D03*
Y532700D02*
D03*
Y545400D02*
D03*
X1030500Y494600D02*
D03*
Y507300D02*
D03*
Y520000D02*
D03*
Y532700D02*
D03*
Y545400D02*
D03*
X1069500Y494600D02*
D03*
Y507300D02*
D03*
Y520000D02*
D03*
Y532700D02*
D03*
Y545400D02*
D03*
D185*
X1083500Y91000D02*
D03*
D186*
X1083499Y149000D02*
D03*
M02*
