G04*
G04 #@! TF.GenerationSoftware,Altium Limited,Altium Designer,19.1.8 (144)*
G04*
G04 Layer_Color=16711935*
%FSLAX44Y44*%
%MOMM*%
G71*
G01*
G75*
%ADD12C,0.2000*%
%ADD65C,0.2540*%
D12*
X-39999Y64309D02*
X-42447Y64033D01*
X-44772Y63219D01*
X-46858Y61909D01*
X-48599Y60167D01*
X-49910Y58081D01*
X-50723Y55757D01*
X-50999Y53309D01*
Y43309D02*
X-50723Y40861D01*
X-49910Y38536D01*
X-48599Y36450D01*
X-46858Y34709D01*
X-44772Y33398D01*
X-42447Y32585D01*
X-39999Y32309D01*
X40001D02*
X42449Y32585D01*
X44774Y33398D01*
X46859Y34709D01*
X48601Y36450D01*
X49911Y38536D01*
X50725Y40861D01*
X51001Y43309D01*
Y53309D02*
X50725Y55757D01*
X49911Y58081D01*
X48601Y60167D01*
X46859Y61909D01*
X44774Y63219D01*
X42449Y64033D01*
X40001Y64309D01*
X-39999D02*
X1D01*
X-50999Y43309D02*
Y53309D01*
X-39999Y32309D02*
X40001D01*
X51001Y43309D02*
Y53309D01*
X1Y64309D02*
X40001D01*
D65*
X111081Y82292D02*
X113412Y83336D01*
X115569Y84702D01*
X117508Y86363D01*
X119189Y88285D01*
X120577Y90428D01*
X121644Y92748D01*
X122368Y95196D01*
X122734Y97723D01*
Y100277D01*
X122368Y102804D01*
X121644Y105252D01*
X120577Y107572D01*
X119189Y109715D01*
X117508Y111637D01*
X115569Y113298D01*
X113412Y114664D01*
X111081Y115708D01*
X108625Y116406D01*
X106095Y116746D01*
X103541Y116720D01*
X101018Y116328D01*
X98577Y115579D01*
X96269Y114488D01*
X94140Y113078D01*
X92235Y111377D01*
X90594Y109421D01*
X89250Y107250D01*
X88231Y104909D01*
X87557Y102446D01*
X87243Y99912D01*
X87296Y97360D01*
X87713Y94840D01*
X88487Y92407D01*
X89602Y90110D01*
X122780Y-26000D02*
X122599Y-23470D01*
X122060Y-20991D01*
X121173Y-18614D01*
X119958Y-16387D01*
X118437Y-14357D01*
X116643Y-12563D01*
X114613Y-11042D01*
X112386Y-9827D01*
X110009Y-8940D01*
X107530Y-8401D01*
X105000Y-8220D01*
X102470Y-8401D01*
X99991Y-8940D01*
X97614Y-9827D01*
X95387Y-11042D01*
X93357Y-12563D01*
X91563Y-14357D01*
X90042Y-16387D01*
X88827Y-18614D01*
X87940Y-20991D01*
X87401Y-23470D01*
X87220Y-26000D01*
X87401Y-28530D01*
X87940Y-31009D01*
X88827Y-33386D01*
X90042Y-35613D01*
X91563Y-37643D01*
X93357Y-39437D01*
X95387Y-40957D01*
X97614Y-42173D01*
X99991Y-43060D01*
X102470Y-43599D01*
X105000Y-43780D01*
X107530Y-43599D01*
X110009Y-43060D01*
X112386Y-42173D01*
X114613Y-40957D01*
X116643Y-39437D01*
X118437Y-37643D01*
X119958Y-35613D01*
X121173Y-33386D01*
X122060Y-31009D01*
X122599Y-28530D01*
X122780Y-26000D01*
X-87220Y99000D02*
X-87401Y101530D01*
X-87940Y104009D01*
X-88827Y106386D01*
X-90042Y108613D01*
X-91563Y110643D01*
X-93357Y112437D01*
X-95387Y113958D01*
X-97614Y115173D01*
X-99991Y116060D01*
X-102470Y116599D01*
X-105000Y116780D01*
X-107530Y116599D01*
X-110009Y116060D01*
X-112386Y115173D01*
X-114613Y113958D01*
X-116643Y112437D01*
X-118437Y110643D01*
X-119958Y108613D01*
X-121173Y106386D01*
X-122060Y104009D01*
X-122599Y101530D01*
X-122780Y99000D01*
X-122599Y96470D01*
X-122060Y93991D01*
X-121173Y91614D01*
X-119958Y89387D01*
X-118437Y87357D01*
X-116643Y85563D01*
X-114613Y84043D01*
X-112386Y82827D01*
X-110009Y81940D01*
X-107530Y81401D01*
X-105000Y81220D01*
X-102470Y81401D01*
X-99991Y81940D01*
X-97614Y82827D01*
X-95387Y84043D01*
X-93357Y85563D01*
X-91563Y87357D01*
X-90042Y89387D01*
X-88827Y91614D01*
X-87940Y93991D01*
X-87401Y96470D01*
X-87220Y99000D01*
Y-26000D02*
X-87401Y-23470D01*
X-87940Y-20991D01*
X-88827Y-18614D01*
X-90042Y-16387D01*
X-91563Y-14357D01*
X-93357Y-12563D01*
X-95387Y-11042D01*
X-97614Y-9827D01*
X-99991Y-8940D01*
X-102470Y-8401D01*
X-105000Y-8220D01*
X-107530Y-8401D01*
X-110009Y-8940D01*
X-112386Y-9827D01*
X-114613Y-11042D01*
X-116643Y-12563D01*
X-118437Y-14357D01*
X-119958Y-16387D01*
X-121173Y-18614D01*
X-122060Y-20991D01*
X-122599Y-23470D01*
X-122780Y-26000D01*
X-122599Y-28530D01*
X-122060Y-31009D01*
X-121173Y-33386D01*
X-119958Y-35613D01*
X-118437Y-37643D01*
X-116643Y-39437D01*
X-114613Y-40957D01*
X-112386Y-42173D01*
X-110009Y-43060D01*
X-107530Y-43599D01*
X-105000Y-43780D01*
X-102470Y-43599D01*
X-99991Y-43060D01*
X-97614Y-42173D01*
X-95387Y-40957D01*
X-93357Y-39437D01*
X-91563Y-37643D01*
X-90042Y-35613D01*
X-88827Y-33386D01*
X-87940Y-31009D01*
X-87401Y-28530D01*
X-87220Y-26000D01*
M02*
