G04*
G04 #@! TF.GenerationSoftware,Altium Limited,Altium Designer,19.1.8 (144)*
G04*
G04 Layer_Color=8388736*
%FSLAX44Y44*%
%MOMM*%
G71*
G01*
G75*
%ADD29R,0.3200X0.6000*%
%ADD30R,0.5000X1.0000*%
%ADD31R,1.0000X0.5000*%
%ADD32R,0.6400X0.4200*%
%ADD33R,1.0400X1.7400*%
%ADD34R,1.1032X1.2032*%
%ADD35R,0.7532X0.8532*%
%ADD36R,2.2032X1.0032*%
%ADD37R,0.8232X0.8232*%
%ADD38R,0.5032X1.2032*%
%ADD39R,1.8532X1.5032*%
%ADD40R,1.5032X1.7032*%
%ADD41R,0.8532X0.7532*%
%ADD42R,1.7032X1.5032*%
%ADD43R,1.2032X1.1032*%
%ADD44R,0.8232X0.8232*%
%ADD45C,2.0000*%
%ADD46C,1.7272*%
%ADD47C,0.5032*%
D29*
X28001Y103309D02*
D03*
X24001D02*
D03*
X20001D02*
D03*
X16001D02*
D03*
X4001D02*
D03*
X1D02*
D03*
X-3999D02*
D03*
X-7999D02*
D03*
X-11999D02*
D03*
X-15999D02*
D03*
X-19999D02*
D03*
X-23999D02*
D03*
X-27999D02*
D03*
Y79309D02*
D03*
X-23999D02*
D03*
X-19999D02*
D03*
X-15999D02*
D03*
X-11999D02*
D03*
X-7999D02*
D03*
X-3999D02*
D03*
X1D02*
D03*
X4001D02*
D03*
X8001D02*
D03*
X12001D02*
D03*
X16001D02*
D03*
X20001D02*
D03*
X24001D02*
D03*
X28001D02*
D03*
X12001Y103309D02*
D03*
X8001D02*
D03*
D30*
X112320Y42849D02*
D03*
Y20849D02*
D03*
X99320Y42849D02*
D03*
Y20849D02*
D03*
X105820D02*
D03*
D31*
X-106504Y25726D02*
D03*
Y32226D02*
D03*
X-84504D02*
D03*
X-106504Y19225D02*
D03*
X-84504D02*
D03*
D32*
X56945Y-37400D02*
D03*
Y-42400D02*
D03*
Y-47400D02*
D03*
Y-52400D02*
D03*
X75945Y-37400D02*
D03*
Y-42400D02*
D03*
Y-47400D02*
D03*
Y-52400D02*
D03*
D33*
X66445Y-44900D02*
D03*
D34*
X113500Y-61250D02*
D03*
X97500D02*
D03*
X38000Y-23500D02*
D03*
X54000D02*
D03*
X60250Y-65500D02*
D03*
X76250D02*
D03*
X98250Y58154D02*
D03*
X114250D02*
D03*
X98250Y5654D02*
D03*
X114250D02*
D03*
X-82504Y45725D02*
D03*
X-98504D02*
D03*
X58362Y109060D02*
D03*
X74362D02*
D03*
X-108160Y5997D02*
D03*
X-92160D02*
D03*
D35*
X47367Y-6428D02*
D03*
X57367D02*
D03*
D36*
X30250Y-41500D02*
D03*
Y-61500D02*
D03*
D37*
X65164Y96360D02*
D03*
X74164D02*
D03*
X-107750Y-55750D02*
D03*
X-98750D02*
D03*
D38*
X-57406Y-84280D02*
D03*
X-47406D02*
D03*
X-52406D02*
D03*
X-37406D02*
D03*
X-27406D02*
D03*
X-32406D02*
D03*
X-17406D02*
D03*
X-12406D02*
D03*
X-7406D02*
D03*
X7594D02*
D03*
X17594D02*
D03*
X12594D02*
D03*
X27594D02*
D03*
X37594D02*
D03*
X32594D02*
D03*
X47594D02*
D03*
X57594D02*
D03*
X52594D02*
D03*
X-62406D02*
D03*
X-42406D02*
D03*
X-22406D02*
D03*
X-2406D02*
D03*
X2594D02*
D03*
X22594D02*
D03*
X42594D02*
D03*
X62594D02*
D03*
D39*
X85344Y-103280D02*
D03*
X-85156D02*
D03*
D40*
X-86000Y-71500D02*
D03*
X-105000D02*
D03*
X-86596Y62484D02*
D03*
X-105596D02*
D03*
D41*
X73406Y-14121D02*
D03*
Y-24121D02*
D03*
D42*
X107250Y-97750D02*
D03*
Y-78750D02*
D03*
D43*
X-106750Y-87000D02*
D03*
Y-103000D02*
D03*
X-68974Y93961D02*
D03*
Y109961D02*
D03*
D44*
X-56020Y100866D02*
D03*
Y109866D02*
D03*
D45*
X-77000Y-47000D02*
D03*
X96520Y76708D02*
D03*
D46*
X105000Y-25690D02*
D03*
X-105000Y99310D02*
D03*
X105000D02*
D03*
X-105000Y-25690D02*
D03*
D47*
X66445Y-49900D02*
D03*
Y-39900D02*
D03*
M02*
