G04*
G04 #@! TF.GenerationSoftware,Altium Limited,Altium Designer,19.1.8 (144)*
G04*
G04 Layer_Color=12811406*
%FSLAX44Y44*%
%MOMM*%
G71*
G01*
G75*
%ADD56C,0.1000*%
%ADD63C,0.0500*%
D56*
X52001Y-76691D02*
Y28309D01*
X29101D02*
X52001D01*
X-51999D02*
X-29999D01*
X-51999Y-64691D02*
Y28309D01*
Y-76691D02*
Y-64691D01*
Y-76691D02*
X52001D01*
D63*
X78500Y-85250D02*
X78094Y-82815D01*
X76919Y-80643D01*
X75102Y-78971D01*
X72841Y-77979D01*
X70381Y-77776D01*
X67987Y-78382D01*
X65920Y-79732D01*
X64404Y-81680D01*
X63602Y-84016D01*
Y-86484D01*
X64404Y-88820D01*
X65920Y-90768D01*
X67987Y-92118D01*
X70381Y-92724D01*
X72841Y-92521D01*
X75102Y-91529D01*
X76919Y-89857D01*
X78094Y-87685D01*
X78500Y-85250D01*
X-99000Y72000D02*
X-99314Y74487D01*
X-100237Y76818D01*
X-101710Y78846D01*
X-103642Y80443D01*
X-105910Y81511D01*
X-108372Y81980D01*
X-110874Y81823D01*
X-113258Y81048D01*
X-115374Y79705D01*
X-117090Y77878D01*
X-118298Y75681D01*
X-118921Y73253D01*
Y70747D01*
X-118298Y68319D01*
X-117090Y66122D01*
X-115374Y64295D01*
X-113258Y62952D01*
X-110874Y62177D01*
X-108372Y62020D01*
X-105910Y62489D01*
X-103642Y63557D01*
X-101710Y65155D01*
X-100237Y67182D01*
X-99314Y69513D01*
X-99000Y72000D01*
X59000Y105750D02*
X58594Y108185D01*
X57419Y110357D01*
X55602Y112029D01*
X53341Y113020D01*
X50881Y113224D01*
X48487Y112618D01*
X46420Y111268D01*
X44904Y109320D01*
X44102Y106985D01*
Y104515D01*
X44904Y102180D01*
X46420Y100232D01*
X48487Y98882D01*
X50881Y98276D01*
X53341Y98479D01*
X55602Y99471D01*
X57419Y101143D01*
X58594Y103315D01*
X59000Y105750D01*
X-12500Y97750D02*
X-12906Y100185D01*
X-14081Y102357D01*
X-15898Y104029D01*
X-18159Y105021D01*
X-20619Y105224D01*
X-23013Y104618D01*
X-25080Y103268D01*
X-26596Y101320D01*
X-27398Y98984D01*
Y96516D01*
X-26596Y94180D01*
X-25080Y92232D01*
X-23013Y90882D01*
X-20619Y90276D01*
X-18159Y90479D01*
X-15898Y91471D01*
X-14081Y93144D01*
X-12906Y95315D01*
X-12500Y97750D01*
X-29250Y104250D02*
X-29656Y106685D01*
X-30831Y108857D01*
X-32648Y110529D01*
X-34909Y111521D01*
X-37369Y111724D01*
X-39763Y111118D01*
X-41830Y109768D01*
X-43346Y107820D01*
X-44148Y105485D01*
Y103015D01*
X-43346Y100680D01*
X-41830Y98732D01*
X-39763Y97382D01*
X-37369Y96776D01*
X-34909Y96980D01*
X-32648Y97971D01*
X-30831Y99643D01*
X-29656Y101815D01*
X-29250Y104250D01*
X119000Y-104000D02*
X118686Y-101513D01*
X117763Y-99183D01*
X116290Y-97155D01*
X114358Y-95557D01*
X112090Y-94489D01*
X109628Y-94020D01*
X107126Y-94177D01*
X104742Y-94952D01*
X102626Y-96295D01*
X100910Y-98122D01*
X99702Y-100319D01*
X99079Y-102747D01*
Y-105253D01*
X99702Y-107681D01*
X100910Y-109878D01*
X102626Y-111705D01*
X104742Y-113048D01*
X107126Y-113823D01*
X109628Y-113980D01*
X112090Y-113511D01*
X114358Y-112443D01*
X116290Y-110845D01*
X117763Y-108818D01*
X118686Y-106487D01*
X119000Y-104000D01*
X94500Y-85000D02*
X94094Y-82565D01*
X92919Y-80393D01*
X91102Y-78721D01*
X88841Y-77730D01*
X86381Y-77526D01*
X83987Y-78132D01*
X81920Y-79482D01*
X80404Y-81430D01*
X79602Y-83765D01*
Y-86235D01*
X80404Y-88570D01*
X81920Y-90518D01*
X83987Y-91868D01*
X86381Y-92474D01*
X88841Y-92270D01*
X91102Y-91279D01*
X92919Y-89607D01*
X94094Y-87435D01*
X94500Y-85000D01*
X-56250Y40750D02*
X-56656Y43185D01*
X-57831Y45356D01*
X-59648Y47028D01*
X-61909Y48020D01*
X-64369Y48224D01*
X-66762Y47618D01*
X-68829Y46268D01*
X-70346Y44319D01*
X-71147Y41984D01*
Y39515D01*
X-70346Y37180D01*
X-68829Y35232D01*
X-66762Y33881D01*
X-64369Y33275D01*
X-61909Y33479D01*
X-59648Y34471D01*
X-57831Y36143D01*
X-56656Y38314D01*
X-56250Y40750D01*
X-56250Y68750D02*
X-56656Y71185D01*
X-57832Y73357D01*
X-59648Y75029D01*
X-61909Y76020D01*
X-64369Y76224D01*
X-66763Y75618D01*
X-68830Y74268D01*
X-70346Y72320D01*
X-71148Y69984D01*
Y67516D01*
X-70346Y65180D01*
X-68830Y63232D01*
X-66763Y61882D01*
X-64369Y61276D01*
X-61909Y61480D01*
X-59648Y62471D01*
X-57832Y64143D01*
X-56656Y66315D01*
X-56250Y68750D01*
X45750Y-85750D02*
X45344Y-83315D01*
X44169Y-81143D01*
X42352Y-79471D01*
X40091Y-78479D01*
X37631Y-78276D01*
X35237Y-78882D01*
X33170Y-80232D01*
X31654Y-82180D01*
X30852Y-84515D01*
Y-86985D01*
X31654Y-89320D01*
X33170Y-91268D01*
X35237Y-92618D01*
X37631Y-93224D01*
X40091Y-93020D01*
X42352Y-92029D01*
X44169Y-90357D01*
X45344Y-88185D01*
X45750Y-85750D01*
X62250Y-85500D02*
X61844Y-83065D01*
X60669Y-80893D01*
X58852Y-79221D01*
X56591Y-78229D01*
X54131Y-78026D01*
X51737Y-78632D01*
X49670Y-79982D01*
X48154Y-81930D01*
X47352Y-84265D01*
Y-86735D01*
X48154Y-89070D01*
X49670Y-91018D01*
X51737Y-92368D01*
X54131Y-92974D01*
X56591Y-92771D01*
X58852Y-91779D01*
X60669Y-90107D01*
X61844Y-87935D01*
X62250Y-85500D01*
X45000Y-110000D02*
X44594Y-107565D01*
X43419Y-105393D01*
X41602Y-103721D01*
X39341Y-102730D01*
X36881Y-102526D01*
X34487Y-103132D01*
X32420Y-104482D01*
X30904Y-106430D01*
X30102Y-108765D01*
Y-111235D01*
X30904Y-113570D01*
X32420Y-115518D01*
X34487Y-116868D01*
X36881Y-117474D01*
X39341Y-117270D01*
X41602Y-116279D01*
X43419Y-114607D01*
X44594Y-112435D01*
X45000Y-110000D01*
X20000D02*
X19594Y-107565D01*
X18419Y-105393D01*
X16602Y-103721D01*
X14341Y-102730D01*
X11881Y-102526D01*
X9487Y-103132D01*
X7420Y-104482D01*
X5904Y-106430D01*
X5102Y-108765D01*
Y-111235D01*
X5904Y-113570D01*
X7420Y-115518D01*
X9487Y-116868D01*
X11881Y-117474D01*
X14341Y-117270D01*
X16602Y-116279D01*
X18419Y-114607D01*
X19594Y-112435D01*
X20000Y-110000D01*
X-5000D02*
X-5407Y-107565D01*
X-6582Y-105393D01*
X-8398Y-103721D01*
X-10659Y-102730D01*
X-13120Y-102526D01*
X-15513Y-103132D01*
X-17580Y-104482D01*
X-19096Y-106430D01*
X-19898Y-108765D01*
Y-111235D01*
X-19096Y-113570D01*
X-17580Y-115518D01*
X-15513Y-116868D01*
X-13120Y-117474D01*
X-10659Y-117270D01*
X-8398Y-116279D01*
X-6582Y-114607D01*
X-5407Y-112435D01*
X-5000Y-110000D01*
X-30000D02*
X-30406Y-107565D01*
X-31581Y-105393D01*
X-33398Y-103721D01*
X-35659Y-102730D01*
X-38119Y-102526D01*
X-40513Y-103132D01*
X-42580Y-104482D01*
X-44096Y-106430D01*
X-44898Y-108765D01*
Y-111235D01*
X-44096Y-113570D01*
X-42580Y-115518D01*
X-40513Y-116868D01*
X-38119Y-117474D01*
X-35659Y-117270D01*
X-33398Y-116279D01*
X-31581Y-114607D01*
X-30406Y-112435D01*
X-30000Y-110000D01*
X-55000D02*
X-55406Y-107565D01*
X-56581Y-105393D01*
X-58398Y-103721D01*
X-60659Y-102730D01*
X-63119Y-102526D01*
X-65513Y-103132D01*
X-67580Y-104482D01*
X-69096Y-106430D01*
X-69898Y-108765D01*
Y-111235D01*
X-69096Y-113570D01*
X-67580Y-115518D01*
X-65513Y-116868D01*
X-63119Y-117474D01*
X-60659Y-117270D01*
X-58398Y-116279D01*
X-56581Y-114607D01*
X-55406Y-112435D01*
X-55000Y-110000D01*
X70000D02*
X69594Y-107565D01*
X68419Y-105393D01*
X66602Y-103721D01*
X64341Y-102730D01*
X61881Y-102526D01*
X59487Y-103132D01*
X57420Y-104482D01*
X55904Y-106430D01*
X55102Y-108765D01*
Y-111235D01*
X55904Y-113570D01*
X57420Y-115518D01*
X59487Y-116868D01*
X61881Y-117474D01*
X64341Y-117270D01*
X66602Y-116279D01*
X68419Y-114607D01*
X69594Y-112435D01*
X70000Y-110000D01*
X66000Y-85250D02*
X76000D01*
X71000Y-90250D02*
Y-80250D01*
X-114000Y72000D02*
X-104000D01*
X-109000Y67000D02*
Y77000D01*
X51500Y100750D02*
Y110750D01*
X46500Y105750D02*
X56500D01*
X-20000Y92750D02*
Y102750D01*
X-25000Y97750D02*
X-15000D01*
X-36750Y99250D02*
Y109250D01*
X-41750Y104250D02*
X-31750D01*
X109000Y-109000D02*
Y-99000D01*
X104000Y-104000D02*
X114000D01*
X82000Y-85000D02*
X92000D01*
X87000Y-90000D02*
Y-80000D01*
X-68750Y40750D02*
X-58750D01*
X-63750Y35750D02*
Y45750D01*
X-68750Y68750D02*
X-58750D01*
X-63750Y63750D02*
Y73750D01*
X33250Y-85750D02*
X43250D01*
X38250Y-90750D02*
Y-80750D01*
X49750Y-85500D02*
X59750D01*
X54750Y-90500D02*
Y-80500D01*
X32500Y-110000D02*
X42500D01*
X37500Y-115000D02*
Y-105000D01*
X7500Y-110000D02*
X17500D01*
X12500Y-115000D02*
Y-105000D01*
X-17500Y-110000D02*
X-7500D01*
X-12500Y-115000D02*
Y-105000D01*
X-42500Y-110000D02*
X-32500D01*
X-37500Y-115000D02*
Y-105000D01*
X-67500Y-110000D02*
X-57500D01*
X-62500Y-115000D02*
Y-105000D01*
X57500Y-110000D02*
X67500D01*
X62500Y-115000D02*
Y-105000D01*
M02*
