G04*
G04 #@! TF.GenerationSoftware,Altium Limited,Altium Designer,19.1.8 (144)*
G04*
G04 Layer_Color=128*
%FSLAX44Y44*%
%MOMM*%
G71*
G01*
G75*
%ADD66C,0.0508*%
D66*
X94000Y-25690D02*
X116000D01*
X105000Y-36690D02*
Y-14690D01*
X-116000Y99310D02*
X-94000D01*
X-105000Y88310D02*
Y110310D01*
X94000Y99310D02*
X116000D01*
X105000Y88310D02*
Y110310D01*
X-116000Y-25690D02*
X-94000D01*
X-105000Y-36690D02*
Y-14690D01*
X65429Y-49900D02*
X67461D01*
X66445Y-50916D02*
Y-48884D01*
X65429Y-39900D02*
X67461D01*
X66445Y-40916D02*
Y-38884D01*
X67000Y-62500D02*
X69000D01*
X68000Y-63500D02*
Y-61500D01*
X83500Y-54750D02*
X85500D01*
X84500Y-55750D02*
Y-53750D01*
X81000Y-45000D02*
X83000D01*
X82000Y-46000D02*
Y-44000D01*
X-115750Y-67000D02*
X-113750D01*
X-114750Y-68000D02*
Y-66000D01*
X-96500Y-67000D02*
X-94500D01*
X-95500Y-68000D02*
Y-66000D01*
X-115750Y-74750D02*
X-113750D01*
X-114750Y-75750D02*
Y-73750D01*
X-96500Y-75250D02*
X-94500D01*
X-95500Y-76250D02*
Y-74250D01*
X-79000Y-62000D02*
X-77000D01*
X-78000Y-63000D02*
Y-61000D01*
X-75000Y-70250D02*
X-73000D01*
X-74000Y-71250D02*
Y-69250D01*
X113250Y66154D02*
X115250D01*
X114250Y65154D02*
Y67154D01*
X98000Y-1000D02*
X100000D01*
X99000Y-2000D02*
Y0D01*
X113006Y-2500D02*
X115006D01*
X114006Y-3500D02*
Y-1500D01*
X90250Y58154D02*
X92250D01*
X91250Y57154D02*
Y59154D01*
X-116000Y6000D02*
X-114000D01*
X-115000Y5000D02*
Y7000D01*
X-65000Y80729D02*
X-63000D01*
X-64000Y79729D02*
Y81729D01*
X-34500Y24100D02*
X-32500D01*
X-33500Y23100D02*
Y25100D01*
X-93540Y-2500D02*
X-91540D01*
X-92540Y-3500D02*
Y-1500D01*
X-99250Y-48503D02*
X-97250D01*
X-98250Y-49503D02*
Y-47503D01*
X104918Y11938D02*
X106918D01*
X105918Y10938D02*
Y12938D01*
X39000Y76250D02*
X41000D01*
X40000Y75250D02*
Y77250D01*
X32250Y79500D02*
X34250D01*
X33250Y78500D02*
Y80500D01*
X89170Y38100D02*
X91170D01*
X90170Y37100D02*
Y39100D01*
X78250Y87000D02*
X80250D01*
X79250Y86000D02*
Y88000D01*
X68342Y2540D02*
X70342D01*
X69342Y1540D02*
Y3540D01*
X32782Y-4318D02*
X34782D01*
X33782Y-5318D02*
Y-3318D01*
X9922Y-26670D02*
X11922D01*
X10922Y-27670D02*
Y-25670D01*
X12208Y-7112D02*
X14208D01*
X13208Y-8112D02*
Y-6112D01*
X23500Y-23250D02*
X25500D01*
X24500Y-24250D02*
Y-22250D01*
X67000Y-68750D02*
X69000D01*
X68000Y-69750D02*
Y-67750D01*
X50000Y107750D02*
X52000D01*
X51000Y106750D02*
Y108750D01*
X86000Y-85000D02*
X88000D01*
X87000Y-86000D02*
Y-84000D01*
X68750Y-85250D02*
X70750D01*
X69750Y-86250D02*
Y-84250D01*
X44750Y-93500D02*
X46750D01*
X45750Y-94500D02*
Y-92500D01*
X53500Y-93500D02*
X55500D01*
X54500Y-94500D02*
Y-92500D01*
X102000Y-89500D02*
X104000D01*
X103000Y-90500D02*
Y-88500D01*
X-56750Y93500D02*
X-54750D01*
X-55750Y92500D02*
Y94500D01*
X-11500Y110750D02*
X-9500D01*
X-10500Y109750D02*
Y111750D01*
X-6000Y109750D02*
X-4000D01*
X-5000Y108750D02*
Y110750D01*
X-22250D02*
X-20250D01*
X-21250Y109750D02*
Y111750D01*
X-28250Y110000D02*
X-26250D01*
X-27250Y109000D02*
Y111000D01*
X-34500Y104750D02*
X-32500D01*
X-33500Y103750D02*
Y105750D01*
X250Y71500D02*
X2250D01*
X1250Y70500D02*
Y72500D01*
X7500Y72000D02*
X9500D01*
X8500Y71000D02*
Y73000D01*
X-14000Y71250D02*
X-12000D01*
X-13000Y70250D02*
Y72250D01*
X-6750D02*
X-4750D01*
X-5750Y71250D02*
Y73250D01*
X29000Y-94500D02*
X31000D01*
X30000Y-95500D02*
Y-93500D01*
X36750Y-95250D02*
X38750D01*
X37750Y-96250D02*
Y-94250D01*
X-68250Y-76250D02*
X-66250D01*
X-67250Y-77250D02*
Y-75250D01*
X-48500Y-93500D02*
X-46500D01*
X-47500Y-94500D02*
Y-92500D01*
X-33500Y-75000D02*
X-31500D01*
X-32500Y-76000D02*
Y-74000D01*
X-18500Y-75000D02*
X-16500D01*
X-17500Y-76000D02*
Y-74000D01*
X-3500Y-93500D02*
X-1500D01*
X-2500Y-94500D02*
Y-92500D01*
X11500Y-75000D02*
X13500D01*
X12500Y-76000D02*
Y-74000D01*
X41500Y-75000D02*
X43500D01*
X42500Y-76000D02*
Y-74000D01*
X26500Y-75000D02*
X28500D01*
X27500Y-76000D02*
Y-74000D01*
X112000Y-53500D02*
X114000D01*
X113000Y-54500D02*
Y-52500D01*
X35250Y-13000D02*
X37250D01*
X36250Y-14000D02*
Y-12000D01*
X90500Y-107750D02*
X92500D01*
X91500Y-108750D02*
Y-106750D01*
X78000Y-98750D02*
X80000D01*
X79000Y-99750D02*
Y-97750D01*
X-92500Y-107750D02*
X-90500D01*
X-91500Y-108750D02*
Y-106750D01*
X-80000Y-98750D02*
X-78000D01*
X-79000Y-99750D02*
Y-97750D01*
X-21000Y72750D02*
X-19000D01*
X-20000Y71750D02*
Y73750D01*
X-27750Y72500D02*
X-25750D01*
X-26750Y71500D02*
Y73500D01*
X27000Y109000D02*
X29000D01*
X28000Y108000D02*
Y110000D01*
X15000Y109000D02*
X17000D01*
X16000Y108000D02*
Y110000D01*
X3000Y109000D02*
X5000D01*
X4000Y108000D02*
Y110000D01*
X-17000Y108250D02*
X-15000D01*
X-16000Y107250D02*
Y109250D01*
X-78250Y109750D02*
X-76250D01*
X-77250Y108750D02*
Y110750D01*
X-49861Y110250D02*
X-47861D01*
X-48861Y109250D02*
Y111250D01*
X11500Y-110000D02*
X13500D01*
X12500Y-111000D02*
Y-109000D01*
X-13500Y-110000D02*
X-11500D01*
X-12500Y-111000D02*
Y-109000D01*
X-38500Y-110250D02*
X-36500D01*
X-37500Y-111250D02*
Y-109250D01*
X-63500Y-110000D02*
X-61500D01*
X-62500Y-111000D02*
Y-109000D01*
X36500Y-110250D02*
X38500D01*
X37500Y-111250D02*
Y-109250D01*
X61500Y-110000D02*
X63500D01*
X62500Y-111000D02*
Y-109000D01*
X-100000Y25750D02*
X-98000D01*
X-99000Y24750D02*
Y26750D01*
X-107750Y45500D02*
X-105750D01*
X-106750Y44500D02*
Y46500D01*
M02*
