G04*
G04 #@! TF.GenerationSoftware,Altium Limited,Altium Designer,20.0.13 (296)*
G04*
G04 Layer_Color=8388736*
%FSLAX44Y44*%
%MOMM*%
G71*
G01*
G75*
%ADD49R,0.3200X0.6000*%
%ADD50R,0.9516X0.4516*%
%ADD51R,0.7516X0.6516*%
%ADD52R,0.7216X0.7216*%
%ADD53C,2.0000*%
%ADD54R,1.0016X1.1016*%
%ADD55R,0.7216X0.7216*%
%ADD56R,0.6516X0.5516*%
%ADD57R,0.5516X0.6516*%
%ADD58R,0.4000X0.9000*%
%ADD59R,0.9000X0.4000*%
%ADD60R,2.8000X2.8000*%
%ADD61R,1.3016X1.3016*%
%ADD62R,1.1016X1.0016*%
G04:AMPARAMS|DCode=63|XSize=0.6516mm|YSize=0.9016mm|CornerRadius=0.1003mm|HoleSize=0mm|Usage=FLASHONLY|Rotation=270.000|XOffset=0mm|YOffset=0mm|HoleType=Round|Shape=RoundedRectangle|*
%AMROUNDEDRECTD63*
21,1,0.6516,0.7010,0,0,270.0*
21,1,0.4510,0.9016,0,0,270.0*
1,1,0.2006,-0.3505,-0.2255*
1,1,0.2006,-0.3505,0.2255*
1,1,0.2006,0.3505,0.2255*
1,1,0.2006,0.3505,-0.2255*
%
%ADD63ROUNDEDRECTD63*%
%ADD64R,0.4616X0.4216*%
%ADD65R,1.0016X0.8016*%
G04:AMPARAMS|DCode=66|XSize=0.39mm|YSize=0.74mm|CornerRadius=0.095mm|HoleSize=0mm|Usage=FLASHONLY|Rotation=0.000|XOffset=0mm|YOffset=0mm|HoleType=Round|Shape=RoundedRectangle|*
%AMROUNDEDRECTD66*
21,1,0.3900,0.5500,0,0,0.0*
21,1,0.2000,0.7400,0,0,0.0*
1,1,0.1900,0.1000,-0.2750*
1,1,0.1900,-0.1000,-0.2750*
1,1,0.1900,-0.1000,0.2750*
1,1,0.1900,0.1000,0.2750*
%
%ADD66ROUNDEDRECTD66*%
G04:AMPARAMS|DCode=67|XSize=1.14mm|YSize=3.14mm|CornerRadius=0.12mm|HoleSize=0mm|Usage=FLASHONLY|Rotation=270.000|XOffset=0mm|YOffset=0mm|HoleType=Round|Shape=RoundedRectangle|*
%AMROUNDEDRECTD67*
21,1,1.1400,2.9000,0,0,270.0*
21,1,0.9000,3.1400,0,0,270.0*
1,1,0.2400,-1.4500,-0.4500*
1,1,0.2400,-1.4500,0.4500*
1,1,0.2400,1.4500,0.4500*
1,1,0.2400,1.4500,-0.4500*
%
%ADD67ROUNDEDRECTD67*%
G04:AMPARAMS|DCode=68|XSize=0.39mm|YSize=0.74mm|CornerRadius=0.095mm|HoleSize=0mm|Usage=FLASHONLY|Rotation=270.000|XOffset=0mm|YOffset=0mm|HoleType=Round|Shape=RoundedRectangle|*
%AMROUNDEDRECTD68*
21,1,0.3900,0.5500,0,0,270.0*
21,1,0.2000,0.7400,0,0,270.0*
1,1,0.1900,-0.2750,-0.1000*
1,1,0.1900,-0.2750,0.1000*
1,1,0.1900,0.2750,0.1000*
1,1,0.1900,0.2750,-0.1000*
%
%ADD68ROUNDEDRECTD68*%
%ADD69R,0.4216X0.4616*%
%ADD70R,0.6516X0.7516*%
%ADD71R,1.1016X1.3016*%
G04:AMPARAMS|DCode=72|XSize=0.34mm|YSize=0.705mm|CornerRadius=0.12mm|HoleSize=0mm|Usage=FLASHONLY|Rotation=0.000|XOffset=0mm|YOffset=0mm|HoleType=Round|Shape=RoundedRectangle|*
%AMROUNDEDRECTD72*
21,1,0.3400,0.4650,0,0,0.0*
21,1,0.1000,0.7050,0,0,0.0*
1,1,0.2400,0.0500,-0.2325*
1,1,0.2400,-0.0500,-0.2325*
1,1,0.2400,-0.0500,0.2325*
1,1,0.2400,0.0500,0.2325*
%
%ADD72ROUNDEDRECTD72*%
G04:AMPARAMS|DCode=73|XSize=0.54mm|YSize=0.705mm|CornerRadius=0.12mm|HoleSize=0mm|Usage=FLASHONLY|Rotation=0.000|XOffset=0mm|YOffset=0mm|HoleType=Round|Shape=RoundedRectangle|*
%AMROUNDEDRECTD73*
21,1,0.5400,0.4650,0,0,0.0*
21,1,0.3000,0.7050,0,0,0.0*
1,1,0.2400,0.1500,-0.2325*
1,1,0.2400,-0.1500,-0.2325*
1,1,0.2400,-0.1500,0.2325*
1,1,0.2400,0.1500,0.2325*
%
%ADD73ROUNDEDRECTD73*%
%ADD74R,2.8524X2.8524*%
%ADD75O,0.8524X0.3524*%
%ADD76O,0.3524X0.8524*%
%ADD77R,1.3716X1.6516*%
%ADD78R,1.5016X1.1516*%
%ADD79R,2.7016X2.7016*%
%ADD80R,0.8016X0.3516*%
%ADD81R,0.3516X0.8016*%
%ADD82R,0.8016X0.2816*%
%ADD83R,1.0016X1.0516*%
G04:AMPARAMS|DCode=84|XSize=1.4016mm|YSize=0.9016mm|CornerRadius=0mm|HoleSize=0mm|Usage=FLASHONLY|Rotation=45.000|XOffset=0mm|YOffset=0mm|HoleType=Round|Shape=Round|*
%AMOVALD84*
21,1,0.5000,0.9016,0.0000,0.0000,45.0*
1,1,0.9016,-0.1768,-0.1768*
1,1,0.9016,0.1768,0.1768*
%
%ADD84OVALD84*%

%ADD85O,0.6516X0.8516*%
G04:AMPARAMS|DCode=86|XSize=1.4016mm|YSize=0.9016mm|CornerRadius=0mm|HoleSize=0mm|Usage=FLASHONLY|Rotation=135.000|XOffset=0mm|YOffset=0mm|HoleType=Round|Shape=Round|*
%AMOVALD86*
21,1,0.5000,0.9016,0.0000,0.0000,135.0*
1,1,0.9016,0.1768,-0.1768*
1,1,0.9016,-0.1768,0.1768*
%
%ADD86OVALD86*%

%ADD87C,1.7000*%
%ADD88R,1.7000X1.7000*%
%ADD89R,1.7000X1.7000*%
%ADD90C,3.3016*%
%ADD91C,2.5016*%
%ADD92C,1.8516*%
%ADD93C,1.6016*%
%ADD94C,0.6016*%
%ADD95C,1.6256*%
%ADD96C,5.4000*%
%ADD97C,5.6016*%
%ADD98C,0.6096*%
%ADD99C,0.5080*%
D49*
X307945Y424283D02*
D03*
X311945D02*
D03*
X327944Y400283D02*
D03*
X323945D02*
D03*
X319944D02*
D03*
X315944D02*
D03*
X311945D02*
D03*
X307945D02*
D03*
X303944D02*
D03*
X299944D02*
D03*
X295944D02*
D03*
X291945D02*
D03*
X287945D02*
D03*
X283944D02*
D03*
X279944D02*
D03*
X275944D02*
D03*
X271945D02*
D03*
Y424283D02*
D03*
X275944D02*
D03*
X279944D02*
D03*
X283944D02*
D03*
X287945D02*
D03*
X291945D02*
D03*
X295944D02*
D03*
X299944D02*
D03*
X303944D02*
D03*
X315944D02*
D03*
X319944D02*
D03*
X323945D02*
D03*
X327944D02*
D03*
D50*
X479500Y279250D02*
D03*
Y285750D02*
D03*
Y292250D02*
D03*
X501500D02*
D03*
Y285750D02*
D03*
Y279250D02*
D03*
D51*
X571142Y354814D02*
D03*
Y364814D02*
D03*
X133969Y296528D02*
D03*
Y286528D02*
D03*
X259370Y205028D02*
D03*
Y195028D02*
D03*
X361774Y244908D02*
D03*
Y254908D02*
D03*
X350747Y254711D02*
D03*
Y244711D02*
D03*
X328188Y245026D02*
D03*
Y255026D02*
D03*
X339576D02*
D03*
Y245026D02*
D03*
X227912Y245518D02*
D03*
Y255518D02*
D03*
X97764Y255035D02*
D03*
Y245035D02*
D03*
D52*
X585701Y362202D02*
D03*
Y353202D02*
D03*
X116264Y282528D02*
D03*
Y291528D02*
D03*
X274381Y192369D02*
D03*
Y201369D02*
D03*
X106500Y218000D02*
D03*
Y209000D02*
D03*
X85764Y265535D02*
D03*
Y256535D02*
D03*
X85764Y234535D02*
D03*
Y243535D02*
D03*
D53*
X30250Y508000D02*
D03*
X27250Y84750D02*
D03*
X485269Y15149D02*
D03*
D54*
X85661Y290028D02*
D03*
X101661D02*
D03*
X396761Y201102D02*
D03*
X380761D02*
D03*
X380761Y183305D02*
D03*
X396761D02*
D03*
X380129Y234483D02*
D03*
X396129D02*
D03*
X396445Y217740D02*
D03*
X380445D02*
D03*
X308555Y143054D02*
D03*
X324555D02*
D03*
X511852Y67555D02*
D03*
X527852D02*
D03*
D55*
X313211Y248944D02*
D03*
X304211D02*
D03*
X240369Y274278D02*
D03*
X249370D02*
D03*
X313289Y261193D02*
D03*
X304289D02*
D03*
X230620Y289404D02*
D03*
X239620D02*
D03*
X178684Y236750D02*
D03*
X169684D02*
D03*
X286971Y115071D02*
D03*
X277971D02*
D03*
X414250Y89500D02*
D03*
X405250D02*
D03*
D56*
X342942Y274877D02*
D03*
Y265877D02*
D03*
Y291877D02*
D03*
Y282877D02*
D03*
X269550Y269904D02*
D03*
Y278904D02*
D03*
X260550Y269904D02*
D03*
Y278904D02*
D03*
D57*
X324692Y282877D02*
D03*
X333692D02*
D03*
X269050Y287404D02*
D03*
X278050D02*
D03*
X260550D02*
D03*
X251550D02*
D03*
X324568Y274030D02*
D03*
X333568D02*
D03*
D58*
X254050Y218404D02*
D03*
X259050D02*
D03*
X264050D02*
D03*
X269050D02*
D03*
X274050D02*
D03*
X279050D02*
D03*
Y258404D02*
D03*
X274050D02*
D03*
X269050D02*
D03*
X264050D02*
D03*
X259050D02*
D03*
X254050D02*
D03*
D59*
X286550Y225904D02*
D03*
Y230904D02*
D03*
Y235904D02*
D03*
Y240904D02*
D03*
Y245904D02*
D03*
Y250904D02*
D03*
X246550D02*
D03*
Y245904D02*
D03*
Y240904D02*
D03*
Y235904D02*
D03*
Y230904D02*
D03*
Y225904D02*
D03*
D60*
X266550Y238404D02*
D03*
D61*
X268750Y22750D02*
D03*
Y47750D02*
D03*
X327750Y22750D02*
D03*
Y47750D02*
D03*
D62*
X92500Y217250D02*
D03*
Y201250D02*
D03*
X294118Y128197D02*
D03*
Y144197D02*
D03*
D63*
X410700Y198450D02*
D03*
X432700Y207950D02*
D03*
Y188950D02*
D03*
D64*
X163049Y276579D02*
D03*
X168649D02*
D03*
X162950Y283250D02*
D03*
X168550D02*
D03*
D65*
X449000Y271250D02*
D03*
Y285250D02*
D03*
X461500Y271250D02*
D03*
Y285250D02*
D03*
D66*
X567693Y511915D02*
D03*
X572693D02*
D03*
X547693D02*
D03*
X552693D02*
D03*
X577693D02*
D03*
X562693D02*
D03*
X557693D02*
D03*
X542693D02*
D03*
X547693Y488915D02*
D03*
X542693D02*
D03*
X567693D02*
D03*
X562693D02*
D03*
X557693D02*
D03*
X552693D02*
D03*
X577693D02*
D03*
X572693D02*
D03*
D67*
X560193Y500415D02*
D03*
D68*
X538693Y502915D02*
D03*
Y497915D02*
D03*
X581693D02*
D03*
Y502915D02*
D03*
D69*
X591000Y451818D02*
D03*
Y457418D02*
D03*
X584000Y451818D02*
D03*
Y457418D02*
D03*
X533243Y460814D02*
D03*
Y466414D02*
D03*
X526243Y460814D02*
D03*
Y466414D02*
D03*
D70*
X79250Y218750D02*
D03*
X69250D02*
D03*
X540718Y331968D02*
D03*
X550718D02*
D03*
X572718Y332218D02*
D03*
X562718D02*
D03*
X540718Y344768D02*
D03*
X550718D02*
D03*
X540718Y319168D02*
D03*
X550718D02*
D03*
X540718Y293568D02*
D03*
X550718D02*
D03*
X540718Y306368D02*
D03*
X550718D02*
D03*
X540718Y280768D02*
D03*
X550718D02*
D03*
X572718Y345018D02*
D03*
X562718D02*
D03*
X572718Y319418D02*
D03*
X562718D02*
D03*
X572718Y306618D02*
D03*
X562718D02*
D03*
X572718Y293818D02*
D03*
X562718D02*
D03*
X572718Y281018D02*
D03*
X562718D02*
D03*
D71*
X58264Y242535D02*
D03*
X71264Y259535D02*
D03*
Y242535D02*
D03*
X58264Y259535D02*
D03*
D72*
X190000Y207175D02*
D03*
X195000D02*
D03*
X205000D02*
D03*
X210000D02*
D03*
Y198825D02*
D03*
X205000D02*
D03*
X195000D02*
D03*
X190000D02*
D03*
X118000Y207175D02*
D03*
X123000D02*
D03*
X133000D02*
D03*
X138000D02*
D03*
Y198825D02*
D03*
X133000D02*
D03*
X123000D02*
D03*
X118000D02*
D03*
D73*
X200000Y207175D02*
D03*
Y198825D02*
D03*
X128000Y207175D02*
D03*
Y198825D02*
D03*
D74*
X133764Y248035D02*
D03*
D75*
X115014Y234035D02*
D03*
Y238035D02*
D03*
Y242035D02*
D03*
Y246035D02*
D03*
Y250035D02*
D03*
Y254035D02*
D03*
Y258035D02*
D03*
Y262035D02*
D03*
X152514D02*
D03*
Y258035D02*
D03*
Y254035D02*
D03*
Y250035D02*
D03*
Y246035D02*
D03*
Y242035D02*
D03*
Y238035D02*
D03*
Y234035D02*
D03*
D76*
X119764Y266785D02*
D03*
X123764D02*
D03*
X127764D02*
D03*
X131764D02*
D03*
X135764D02*
D03*
X139764D02*
D03*
X143764D02*
D03*
X147764D02*
D03*
Y229285D02*
D03*
X143764D02*
D03*
X139764D02*
D03*
X135764D02*
D03*
X131764D02*
D03*
X127764D02*
D03*
X123764D02*
D03*
X119764D02*
D03*
D77*
X558750Y252250D02*
D03*
X533750D02*
D03*
X508750D02*
D03*
X483750D02*
D03*
X458750D02*
D03*
X558750Y86750D02*
D03*
X533750D02*
D03*
X508750D02*
D03*
X483750D02*
D03*
X458750D02*
D03*
D78*
X402126Y120663D02*
D03*
Y139663D02*
D03*
X279750Y93500D02*
D03*
Y74500D02*
D03*
X320750Y93250D02*
D03*
Y74250D02*
D03*
X300250Y93500D02*
D03*
Y74500D02*
D03*
D79*
X357500Y123250D02*
D03*
D80*
X377001Y133250D02*
D03*
Y128250D02*
D03*
Y123250D02*
D03*
Y118250D02*
D03*
Y113250D02*
D03*
X338000D02*
D03*
Y118250D02*
D03*
Y123250D02*
D03*
Y128250D02*
D03*
Y133250D02*
D03*
D81*
X367500Y103750D02*
D03*
X362500D02*
D03*
X357500D02*
D03*
X352500D02*
D03*
X347500D02*
D03*
Y142750D02*
D03*
X352500D02*
D03*
X357500D02*
D03*
X362500D02*
D03*
X367500D02*
D03*
D82*
X480600Y379250D02*
D03*
Y383250D02*
D03*
Y387250D02*
D03*
Y391250D02*
D03*
Y395250D02*
D03*
Y399250D02*
D03*
Y403250D02*
D03*
Y407250D02*
D03*
Y411250D02*
D03*
Y415250D02*
D03*
Y419250D02*
D03*
Y423250D02*
D03*
Y427250D02*
D03*
Y431250D02*
D03*
Y435250D02*
D03*
Y439250D02*
D03*
Y443250D02*
D03*
Y447250D02*
D03*
Y451250D02*
D03*
Y455250D02*
D03*
Y459250D02*
D03*
Y463250D02*
D03*
Y467250D02*
D03*
Y471250D02*
D03*
Y475250D02*
D03*
Y479250D02*
D03*
Y483250D02*
D03*
Y487250D02*
D03*
Y491250D02*
D03*
Y495250D02*
D03*
Y499250D02*
D03*
Y503250D02*
D03*
Y507250D02*
D03*
Y511250D02*
D03*
Y515250D02*
D03*
Y519250D02*
D03*
Y523250D02*
D03*
Y527250D02*
D03*
Y531250D02*
D03*
Y535250D02*
D03*
Y539250D02*
D03*
Y543250D02*
D03*
Y547250D02*
D03*
Y551250D02*
D03*
Y555250D02*
D03*
Y559250D02*
D03*
Y563250D02*
D03*
Y567250D02*
D03*
Y571250D02*
D03*
Y575250D02*
D03*
X511400Y379250D02*
D03*
Y383250D02*
D03*
Y387250D02*
D03*
Y391250D02*
D03*
Y395250D02*
D03*
Y399250D02*
D03*
Y403250D02*
D03*
Y407250D02*
D03*
Y411250D02*
D03*
Y415250D02*
D03*
Y419250D02*
D03*
Y423250D02*
D03*
Y427250D02*
D03*
Y431250D02*
D03*
Y435250D02*
D03*
Y439250D02*
D03*
Y443250D02*
D03*
Y447250D02*
D03*
Y451250D02*
D03*
Y455250D02*
D03*
Y459250D02*
D03*
Y463250D02*
D03*
Y467250D02*
D03*
Y471250D02*
D03*
Y475250D02*
D03*
Y479250D02*
D03*
Y483250D02*
D03*
Y487250D02*
D03*
Y491250D02*
D03*
Y495250D02*
D03*
Y499250D02*
D03*
Y503250D02*
D03*
Y507250D02*
D03*
Y511250D02*
D03*
Y515250D02*
D03*
Y519250D02*
D03*
Y523250D02*
D03*
Y527250D02*
D03*
Y531250D02*
D03*
Y535250D02*
D03*
Y539250D02*
D03*
Y543250D02*
D03*
Y547250D02*
D03*
Y551250D02*
D03*
Y555250D02*
D03*
Y559250D02*
D03*
Y563250D02*
D03*
Y567250D02*
D03*
Y571250D02*
D03*
Y575250D02*
D03*
X110600Y349250D02*
D03*
Y353250D02*
D03*
Y357250D02*
D03*
Y361250D02*
D03*
Y365250D02*
D03*
Y369250D02*
D03*
Y373250D02*
D03*
Y377250D02*
D03*
Y381250D02*
D03*
Y385250D02*
D03*
Y389250D02*
D03*
Y393250D02*
D03*
Y397250D02*
D03*
Y401250D02*
D03*
Y405250D02*
D03*
Y409250D02*
D03*
Y413250D02*
D03*
Y417250D02*
D03*
Y421250D02*
D03*
Y425250D02*
D03*
Y429250D02*
D03*
Y433250D02*
D03*
Y437250D02*
D03*
Y441250D02*
D03*
Y445250D02*
D03*
Y449250D02*
D03*
Y453250D02*
D03*
Y457250D02*
D03*
Y461250D02*
D03*
Y465250D02*
D03*
Y469250D02*
D03*
Y473250D02*
D03*
Y477250D02*
D03*
Y481250D02*
D03*
Y485250D02*
D03*
Y489250D02*
D03*
Y493250D02*
D03*
Y497250D02*
D03*
Y501250D02*
D03*
Y505250D02*
D03*
Y509250D02*
D03*
Y513250D02*
D03*
Y517250D02*
D03*
Y521250D02*
D03*
Y525250D02*
D03*
Y529250D02*
D03*
Y533250D02*
D03*
Y537250D02*
D03*
Y541250D02*
D03*
Y545250D02*
D03*
X141400Y349250D02*
D03*
Y353250D02*
D03*
Y357250D02*
D03*
Y361250D02*
D03*
Y365250D02*
D03*
Y369250D02*
D03*
Y373250D02*
D03*
Y377250D02*
D03*
Y381250D02*
D03*
Y385250D02*
D03*
Y389250D02*
D03*
Y393250D02*
D03*
Y397250D02*
D03*
Y401250D02*
D03*
Y405250D02*
D03*
Y409250D02*
D03*
Y413250D02*
D03*
Y417250D02*
D03*
Y421250D02*
D03*
Y425250D02*
D03*
Y429250D02*
D03*
Y433250D02*
D03*
Y437250D02*
D03*
Y441250D02*
D03*
Y445250D02*
D03*
Y449250D02*
D03*
Y453250D02*
D03*
Y457250D02*
D03*
Y461250D02*
D03*
Y465250D02*
D03*
Y469250D02*
D03*
Y473250D02*
D03*
Y477250D02*
D03*
Y481250D02*
D03*
Y485250D02*
D03*
Y489250D02*
D03*
Y493250D02*
D03*
Y497250D02*
D03*
Y501250D02*
D03*
Y505250D02*
D03*
Y509250D02*
D03*
Y513250D02*
D03*
Y517250D02*
D03*
Y521250D02*
D03*
Y525250D02*
D03*
Y529250D02*
D03*
Y533250D02*
D03*
Y537250D02*
D03*
Y541250D02*
D03*
Y545250D02*
D03*
D83*
X445500Y64500D02*
D03*
X477000Y64500D02*
D03*
D84*
X571450Y378998D02*
D03*
X549452Y458897D02*
D03*
D85*
X560450Y381198D02*
D03*
X560452Y456697D02*
D03*
D86*
X549450Y378998D02*
D03*
X571452Y458897D02*
D03*
D87*
X313533Y194334D02*
D03*
X391250Y34750D02*
D03*
D88*
X348533Y194334D02*
D03*
D89*
X391250Y59750D02*
D03*
D90*
X104750Y84600D02*
D03*
X219050D02*
D03*
D91*
X81255Y115100D02*
D03*
X242545D02*
D03*
D92*
X95600Y44000D02*
D03*
X121000D02*
D03*
X202800D02*
D03*
X228200D02*
D03*
D93*
X104750Y122900D02*
D03*
X130150Y110200D02*
D03*
X193650D02*
D03*
X219050Y122900D02*
D03*
X104750Y173500D02*
D03*
X130150D02*
D03*
X155550D02*
D03*
X180950D02*
D03*
X206350D02*
D03*
X219050Y148100D02*
D03*
X193650D02*
D03*
X168250D02*
D03*
X142850D02*
D03*
X117450D02*
D03*
D94*
X578123Y345568D02*
D03*
Y332568D02*
D03*
Y319568D02*
D03*
Y307568D02*
D03*
Y294568D02*
D03*
Y281568D02*
D03*
X534856Y293421D02*
D03*
X534885Y306959D02*
D03*
X534739Y319038D02*
D03*
X534716Y331951D02*
D03*
X534543Y344939D02*
D03*
D95*
X30000Y210000D02*
D03*
X500000Y35000D02*
D03*
D96*
X447000Y326250D02*
D03*
X205000Y568250D02*
D03*
D97*
X560000Y40000D02*
D03*
X560000Y560000D02*
D03*
X40000Y40000D02*
D03*
X40000Y560000D02*
D03*
D98*
X125750Y558500D02*
D03*
X119750Y579750D02*
D03*
D99*
X186509Y417750D02*
D03*
Y407750D02*
D03*
X138764Y253035D02*
D03*
Y243035D02*
D03*
X128764Y253035D02*
D03*
Y243035D02*
D03*
X352500Y118250D02*
D03*
X352500Y128250D02*
D03*
X362500Y128250D02*
D03*
X362500Y118250D02*
D03*
M02*
