G04*
G04 #@! TF.GenerationSoftware,Altium Limited,Altium Designer,24.5.1 (21)*
G04*
G04 Layer_Color=32768*
%FSLAX44Y44*%
%MOMM*%
G71*
G04*
G04 #@! TF.SameCoordinates,1EF2566E-269B-4A58-AF15-B59DA95DBDD1*
G04*
G04*
G04 #@! TF.FilePolarity,Positive*
G04*
G01*
G75*
G36*
X4611Y329781D02*
X4506Y329762D01*
X4405Y329739D01*
X4311Y329715D01*
X4226Y329684D01*
X4148Y329653D01*
X4078Y329618D01*
X4012Y329587D01*
X3954Y329552D01*
X3903Y329521D01*
X3860Y329490D01*
X3826Y329463D01*
X3794Y329439D01*
X3771Y329416D01*
X3752Y329400D01*
X3744Y329393D01*
X3740Y329389D01*
X3690Y329330D01*
X3647Y329268D01*
X3608Y329202D01*
X3577Y329140D01*
X3550Y329074D01*
X3526Y329012D01*
X3507Y328950D01*
X3491Y328887D01*
X3480Y328833D01*
X3472Y328783D01*
X3464Y328736D01*
X3460Y328697D01*
Y328666D01*
X3456Y328639D01*
Y328619D01*
X3460Y328514D01*
X3476Y328413D01*
X3495Y328320D01*
X3522Y328231D01*
X3553Y328149D01*
X3589Y328071D01*
X3627Y328001D01*
X3666Y327939D01*
X3705Y327881D01*
X3744Y327830D01*
X3779Y327788D01*
X3810Y327753D01*
X3837Y327722D01*
X3857Y327702D01*
X3872Y327691D01*
X3876Y327687D01*
X3961Y327625D01*
X4055Y327570D01*
X4160Y327523D01*
X4268Y327481D01*
X4377Y327450D01*
X4490Y327419D01*
X4603Y327395D01*
X4712Y327376D01*
X4816Y327364D01*
X4914Y327352D01*
X5003Y327345D01*
X5081Y327337D01*
X5143D01*
X5170Y327333D01*
X5193D01*
X5209D01*
X5221D01*
X5228D01*
X5232D01*
X5399Y327337D01*
X5555Y327349D01*
X5699Y327368D01*
X5831Y327391D01*
X5951Y327419D01*
X6060Y327450D01*
X6157Y327485D01*
X6247Y327519D01*
X6324Y327551D01*
X6390Y327586D01*
X6449Y327617D01*
X6492Y327644D01*
X6526Y327667D01*
X6554Y327687D01*
X6569Y327698D01*
X6573Y327702D01*
X6647Y327772D01*
X6713Y327850D01*
X6771Y327928D01*
X6818Y328009D01*
X6861Y328087D01*
X6892Y328168D01*
X6923Y328246D01*
X6942Y328320D01*
X6962Y328390D01*
X6973Y328456D01*
X6985Y328514D01*
X6989Y328565D01*
X6993Y328604D01*
X6997Y328635D01*
Y328662D01*
X6993Y328736D01*
X6985Y328802D01*
X6973Y328868D01*
X6962Y328934D01*
X6942Y328992D01*
X6923Y329047D01*
X6899Y329097D01*
X6880Y329144D01*
X6857Y329187D01*
X6833Y329222D01*
X6814Y329253D01*
X6798Y329280D01*
X6783Y329303D01*
X6771Y329319D01*
X6763Y329327D01*
X6760Y329330D01*
X6713Y329381D01*
X6662Y329428D01*
X6554Y329505D01*
X6437Y329575D01*
X6324Y329626D01*
X6270Y329649D01*
X6219Y329665D01*
X6177Y329680D01*
X6138Y329696D01*
X6107Y329704D01*
X6079Y329711D01*
X6064Y329715D01*
X6060D01*
X6177Y330477D01*
X6305Y330446D01*
X6425Y330411D01*
X6538Y330368D01*
X6643Y330325D01*
X6740Y330275D01*
X6830Y330224D01*
X6907Y330170D01*
X6981Y330119D01*
X7043Y330069D01*
X7102Y330022D01*
X7148Y329980D01*
X7187Y329941D01*
X7218Y329910D01*
X7242Y329882D01*
X7253Y329867D01*
X7257Y329863D01*
X7323Y329770D01*
X7381Y329673D01*
X7432Y329571D01*
X7479Y329470D01*
X7513Y329366D01*
X7545Y329264D01*
X7572Y329163D01*
X7591Y329066D01*
X7607Y328977D01*
X7618Y328895D01*
X7626Y328821D01*
X7634Y328755D01*
Y328705D01*
X7638Y328666D01*
Y328631D01*
X7634Y328522D01*
X7626Y328413D01*
X7611Y328308D01*
X7595Y328207D01*
X7572Y328114D01*
X7548Y328021D01*
X7525Y327935D01*
X7498Y327858D01*
X7471Y327788D01*
X7448Y327722D01*
X7424Y327667D01*
X7401Y327621D01*
X7385Y327582D01*
X7370Y327555D01*
X7362Y327539D01*
X7358Y327531D01*
X7304Y327438D01*
X7242Y327352D01*
X7175Y327275D01*
X7109Y327201D01*
X7039Y327131D01*
X6970Y327073D01*
X6899Y327014D01*
X6833Y326964D01*
X6767Y326921D01*
X6709Y326882D01*
X6655Y326851D01*
X6608Y326824D01*
X6569Y326805D01*
X6538Y326789D01*
X6522Y326781D01*
X6515Y326777D01*
X6410Y326735D01*
X6297Y326696D01*
X6188Y326661D01*
X6076Y326633D01*
X5963Y326610D01*
X5854Y326591D01*
X5753Y326571D01*
X5652Y326560D01*
X5559Y326548D01*
X5473Y326540D01*
X5399Y326536D01*
X5333Y326532D01*
X5283Y326529D01*
X5244D01*
X5228D01*
X5217D01*
X5213D01*
X5209D01*
X4999Y326536D01*
X4801Y326552D01*
X4614Y326583D01*
X4443Y326618D01*
X4284Y326661D01*
X4136Y326711D01*
X4004Y326762D01*
X3888Y326816D01*
X3783Y326870D01*
X3690Y326921D01*
X3612Y326972D01*
X3550Y327014D01*
X3499Y327049D01*
X3460Y327080D01*
X3441Y327096D01*
X3433Y327104D01*
X3324Y327216D01*
X3231Y327333D01*
X3149Y327457D01*
X3079Y327586D01*
X3017Y327714D01*
X2971Y327838D01*
X2928Y327963D01*
X2897Y328083D01*
X2869Y328192D01*
X2850Y328297D01*
X2838Y328390D01*
X2831Y328472D01*
X2827Y328507D01*
X2823Y328538D01*
Y328561D01*
X2819Y328584D01*
Y328627D01*
X2823Y328767D01*
X2838Y328899D01*
X2862Y329027D01*
X2889Y329148D01*
X2924Y329261D01*
X2959Y329366D01*
X3002Y329459D01*
X3044Y329548D01*
X3083Y329630D01*
X3126Y329700D01*
X3161Y329758D01*
X3196Y329809D01*
X3223Y329847D01*
X3246Y329879D01*
X3262Y329894D01*
X3266Y329902D01*
X3355Y329995D01*
X3449Y330080D01*
X3546Y330154D01*
X3651Y330224D01*
X3752Y330283D01*
X3857Y330337D01*
X3958Y330384D01*
X4055Y330423D01*
X4148Y330454D01*
X4234Y330485D01*
X4311Y330504D01*
X4377Y330524D01*
X4432Y330535D01*
X4475Y330543D01*
X4490Y330547D01*
X4502Y330551D01*
X4506D01*
X4509D01*
X4611Y329781D01*
D02*
G37*
G36*
X9348Y326342D02*
X9367Y326206D01*
X9379Y326082D01*
X9383Y326027D01*
X9391Y325973D01*
Y325926D01*
X9394Y325883D01*
Y325849D01*
X9398Y325817D01*
Y325759D01*
X9394Y325666D01*
X9391Y325576D01*
X9383Y325495D01*
X9367Y325417D01*
X9356Y325347D01*
X9340Y325281D01*
X9321Y325219D01*
X9305Y325168D01*
X9286Y325118D01*
X9270Y325075D01*
X9251Y325040D01*
X9239Y325013D01*
X9227Y324990D01*
X9216Y324970D01*
X9212Y324962D01*
X9208Y324958D01*
X9173Y324908D01*
X9134Y324861D01*
X9053Y324776D01*
X8971Y324710D01*
X8893Y324655D01*
X8823Y324613D01*
X8796Y324597D01*
X8769Y324585D01*
X8749Y324574D01*
X8730Y324566D01*
X8722Y324562D01*
X8718D01*
X8672Y324547D01*
X8625Y324535D01*
X8516Y324515D01*
X8400Y324500D01*
X8287Y324492D01*
X8236Y324488D01*
X8186Y324484D01*
X8143D01*
X8104Y324481D01*
X8069D01*
X8046D01*
X8030D01*
X8026D01*
X7537D01*
Y323789D01*
X6927D01*
Y324481D01*
X2920D01*
Y325258D01*
X6927D01*
Y326156D01*
X7537D01*
Y325258D01*
X7960D01*
X8034D01*
X8104Y325266D01*
X8170Y325273D01*
X8229Y325281D01*
X8279Y325293D01*
X8326Y325304D01*
X8368Y325316D01*
X8403Y325332D01*
X8435Y325347D01*
X8462Y325359D01*
X8485Y325370D01*
X8501Y325382D01*
X8516Y325394D01*
X8524Y325398D01*
X8532Y325405D01*
X8559Y325437D01*
X8582Y325471D01*
X8621Y325545D01*
X8648Y325631D01*
X8664Y325713D01*
X8676Y325790D01*
X8679Y325825D01*
Y325852D01*
X8683Y325876D01*
Y325992D01*
X8676Y326074D01*
X8672Y326152D01*
X8664Y326222D01*
X8656Y326280D01*
X8652Y326307D01*
X8648Y326326D01*
X8644Y326346D01*
Y326358D01*
X8640Y326365D01*
Y326369D01*
X9321Y326486D01*
X9348Y326342D01*
D02*
G37*
G36*
Y323867D02*
X9367Y323731D01*
X9379Y323606D01*
X9383Y323552D01*
X9391Y323497D01*
Y323451D01*
X9394Y323408D01*
Y323373D01*
X9398Y323342D01*
Y323284D01*
X9394Y323190D01*
X9391Y323101D01*
X9383Y323019D01*
X9367Y322942D01*
X9356Y322872D01*
X9340Y322806D01*
X9321Y322743D01*
X9305Y322693D01*
X9286Y322642D01*
X9270Y322600D01*
X9251Y322565D01*
X9239Y322537D01*
X9227Y322514D01*
X9216Y322495D01*
X9212Y322487D01*
X9208Y322483D01*
X9173Y322433D01*
X9134Y322386D01*
X9053Y322300D01*
X8971Y322234D01*
X8893Y322180D01*
X8823Y322137D01*
X8796Y322122D01*
X8769Y322110D01*
X8749Y322098D01*
X8730Y322090D01*
X8722Y322087D01*
X8718D01*
X8672Y322071D01*
X8625Y322059D01*
X8516Y322040D01*
X8400Y322024D01*
X8287Y322017D01*
X8236Y322013D01*
X8186Y322009D01*
X8143D01*
X8104Y322005D01*
X8069D01*
X8046D01*
X8030D01*
X8026D01*
X7537D01*
Y321313D01*
X6927D01*
Y322005D01*
X2920D01*
Y322782D01*
X6927D01*
Y323680D01*
X7537D01*
Y322782D01*
X7960D01*
X8034D01*
X8104Y322790D01*
X8170Y322798D01*
X8229Y322806D01*
X8279Y322817D01*
X8326Y322829D01*
X8368Y322841D01*
X8403Y322856D01*
X8435Y322872D01*
X8462Y322883D01*
X8485Y322895D01*
X8501Y322907D01*
X8516Y322918D01*
X8524Y322922D01*
X8532Y322930D01*
X8559Y322961D01*
X8582Y322996D01*
X8621Y323070D01*
X8648Y323155D01*
X8664Y323237D01*
X8676Y323315D01*
X8679Y323350D01*
Y323377D01*
X8683Y323400D01*
Y323517D01*
X8676Y323598D01*
X8672Y323676D01*
X8664Y323746D01*
X8656Y323804D01*
X8652Y323831D01*
X8648Y323851D01*
X8644Y323870D01*
Y323882D01*
X8640Y323890D01*
Y323894D01*
X9321Y324010D01*
X9348Y323867D01*
D02*
G37*
G36*
X3620Y318573D02*
X3608Y318496D01*
X3600Y318430D01*
X3596Y318371D01*
X3592Y318321D01*
X3589Y318282D01*
Y318232D01*
X3592Y318169D01*
X3596Y318115D01*
X3604Y318068D01*
X3616Y318033D01*
X3627Y318002D01*
X3635Y317979D01*
X3639Y317967D01*
X3643Y317963D01*
X3666Y317932D01*
X3690Y317901D01*
X3717Y317878D01*
X3740Y317862D01*
X3763Y317847D01*
X3779Y317835D01*
X3790Y317831D01*
X3794Y317827D01*
X3814Y317820D01*
X3841Y317816D01*
X3903Y317804D01*
X3973Y317796D01*
X4047Y317792D01*
X4117D01*
X4144Y317789D01*
X4171D01*
X4195D01*
X4210D01*
X4222D01*
X4226D01*
X6927D01*
Y318573D01*
X7537D01*
Y317789D01*
X9150D01*
X8679Y317007D01*
X7537D01*
Y316436D01*
X6927D01*
Y317007D01*
X4268D01*
X4144D01*
X4028Y317011D01*
X3923Y317015D01*
X3826Y317023D01*
X3744Y317031D01*
X3666Y317038D01*
X3600Y317046D01*
X3542Y317058D01*
X3491Y317066D01*
X3452Y317073D01*
X3417Y317081D01*
X3390Y317089D01*
X3367Y317097D01*
X3355Y317101D01*
X3347Y317104D01*
X3344D01*
X3266Y317147D01*
X3196Y317198D01*
X3138Y317252D01*
X3087Y317307D01*
X3048Y317357D01*
X3017Y317396D01*
X3009Y317411D01*
X3002Y317423D01*
X2994Y317431D01*
Y317435D01*
X2971Y317481D01*
X2951Y317532D01*
X2916Y317637D01*
X2893Y317746D01*
X2877Y317855D01*
X2873Y317901D01*
X2869Y317948D01*
X2866Y317991D01*
Y318026D01*
X2862Y318053D01*
Y318095D01*
X2866Y318197D01*
X2873Y318298D01*
X2881Y318399D01*
X2897Y318488D01*
X2901Y318531D01*
X2908Y318570D01*
X2912Y318601D01*
X2916Y318632D01*
X2920Y318655D01*
X2924Y318671D01*
X2928Y318682D01*
Y318686D01*
X3620Y318573D01*
D02*
G37*
G36*
X4611Y315426D02*
X4506Y315406D01*
X4405Y315383D01*
X4311Y315360D01*
X4226Y315329D01*
X4148Y315297D01*
X4078Y315263D01*
X4012Y315231D01*
X3954Y315196D01*
X3903Y315165D01*
X3860Y315134D01*
X3826Y315107D01*
X3794Y315084D01*
X3771Y315060D01*
X3752Y315045D01*
X3744Y315037D01*
X3740Y315033D01*
X3690Y314975D01*
X3647Y314913D01*
X3608Y314847D01*
X3577Y314785D01*
X3550Y314718D01*
X3526Y314656D01*
X3507Y314594D01*
X3491Y314532D01*
X3480Y314478D01*
X3472Y314427D01*
X3464Y314380D01*
X3460Y314341D01*
Y314310D01*
X3456Y314283D01*
Y314264D01*
X3460Y314159D01*
X3476Y314058D01*
X3495Y313965D01*
X3522Y313875D01*
X3553Y313794D01*
X3589Y313716D01*
X3627Y313646D01*
X3666Y313584D01*
X3705Y313525D01*
X3744Y313475D01*
X3779Y313432D01*
X3810Y313397D01*
X3837Y313366D01*
X3857Y313347D01*
X3872Y313335D01*
X3876Y313331D01*
X3961Y313269D01*
X4055Y313214D01*
X4160Y313168D01*
X4268Y313125D01*
X4377Y313094D01*
X4490Y313063D01*
X4603Y313040D01*
X4712Y313020D01*
X4816Y313008D01*
X4914Y312997D01*
X5003Y312989D01*
X5081Y312981D01*
X5143D01*
X5170Y312977D01*
X5193D01*
X5209D01*
X5221D01*
X5228D01*
X5232D01*
X5399Y312981D01*
X5555Y312993D01*
X5699Y313012D01*
X5831Y313036D01*
X5951Y313063D01*
X6060Y313094D01*
X6157Y313129D01*
X6247Y313164D01*
X6324Y313195D01*
X6390Y313230D01*
X6449Y313261D01*
X6492Y313288D01*
X6526Y313312D01*
X6554Y313331D01*
X6569Y313343D01*
X6573Y313347D01*
X6647Y313417D01*
X6713Y313494D01*
X6771Y313572D01*
X6818Y313654D01*
X6861Y313731D01*
X6892Y313813D01*
X6923Y313891D01*
X6942Y313965D01*
X6962Y314034D01*
X6973Y314100D01*
X6985Y314159D01*
X6989Y314209D01*
X6993Y314248D01*
X6997Y314279D01*
Y314307D01*
X6993Y314380D01*
X6985Y314446D01*
X6973Y314512D01*
X6962Y314578D01*
X6942Y314637D01*
X6923Y314691D01*
X6899Y314742D01*
X6880Y314788D01*
X6857Y314831D01*
X6833Y314866D01*
X6814Y314897D01*
X6798Y314924D01*
X6783Y314948D01*
X6771Y314963D01*
X6763Y314971D01*
X6760Y314975D01*
X6713Y315025D01*
X6662Y315072D01*
X6554Y315150D01*
X6437Y315220D01*
X6324Y315270D01*
X6270Y315294D01*
X6219Y315309D01*
X6177Y315325D01*
X6138Y315340D01*
X6107Y315348D01*
X6079Y315356D01*
X6064Y315360D01*
X6060D01*
X6177Y316121D01*
X6305Y316090D01*
X6425Y316055D01*
X6538Y316012D01*
X6643Y315970D01*
X6740Y315919D01*
X6830Y315869D01*
X6907Y315814D01*
X6981Y315764D01*
X7043Y315713D01*
X7102Y315667D01*
X7148Y315624D01*
X7187Y315585D01*
X7218Y315554D01*
X7242Y315527D01*
X7253Y315511D01*
X7257Y315507D01*
X7323Y315414D01*
X7381Y315317D01*
X7432Y315216D01*
X7479Y315115D01*
X7513Y315010D01*
X7545Y314909D01*
X7572Y314808D01*
X7591Y314711D01*
X7607Y314621D01*
X7618Y314540D01*
X7626Y314466D01*
X7634Y314400D01*
Y314349D01*
X7638Y314310D01*
Y314275D01*
X7634Y314167D01*
X7626Y314058D01*
X7611Y313953D01*
X7595Y313852D01*
X7572Y313759D01*
X7548Y313665D01*
X7525Y313580D01*
X7498Y313502D01*
X7471Y313432D01*
X7448Y313366D01*
X7424Y313312D01*
X7401Y313265D01*
X7385Y313226D01*
X7370Y313199D01*
X7362Y313183D01*
X7358Y313176D01*
X7304Y313082D01*
X7242Y312997D01*
X7175Y312919D01*
X7109Y312845D01*
X7039Y312775D01*
X6970Y312717D01*
X6899Y312659D01*
X6833Y312608D01*
X6767Y312565D01*
X6709Y312527D01*
X6655Y312495D01*
X6608Y312468D01*
X6569Y312449D01*
X6538Y312433D01*
X6522Y312425D01*
X6515Y312422D01*
X6410Y312379D01*
X6297Y312340D01*
X6188Y312305D01*
X6076Y312278D01*
X5963Y312255D01*
X5854Y312235D01*
X5753Y312216D01*
X5652Y312204D01*
X5559Y312192D01*
X5473Y312185D01*
X5399Y312181D01*
X5333Y312177D01*
X5283Y312173D01*
X5244D01*
X5228D01*
X5217D01*
X5213D01*
X5209D01*
X4999Y312181D01*
X4801Y312196D01*
X4614Y312227D01*
X4443Y312262D01*
X4284Y312305D01*
X4136Y312356D01*
X4004Y312406D01*
X3888Y312460D01*
X3783Y312515D01*
X3690Y312565D01*
X3612Y312616D01*
X3550Y312659D01*
X3499Y312694D01*
X3460Y312725D01*
X3441Y312740D01*
X3433Y312748D01*
X3324Y312861D01*
X3231Y312977D01*
X3149Y313102D01*
X3079Y313230D01*
X3017Y313358D01*
X2971Y313483D01*
X2928Y313607D01*
X2897Y313727D01*
X2869Y313836D01*
X2850Y313941D01*
X2838Y314034D01*
X2831Y314116D01*
X2827Y314151D01*
X2823Y314182D01*
Y314205D01*
X2819Y314229D01*
Y314272D01*
X2823Y314411D01*
X2838Y314543D01*
X2862Y314672D01*
X2889Y314792D01*
X2924Y314905D01*
X2959Y315010D01*
X3002Y315103D01*
X3044Y315193D01*
X3083Y315274D01*
X3126Y315344D01*
X3161Y315402D01*
X3196Y315453D01*
X3223Y315492D01*
X3246Y315523D01*
X3262Y315538D01*
X3266Y315546D01*
X3355Y315639D01*
X3449Y315725D01*
X3546Y315799D01*
X3651Y315869D01*
X3752Y315927D01*
X3857Y315981D01*
X3958Y316028D01*
X4055Y316067D01*
X4148Y316098D01*
X4234Y316129D01*
X4311Y316148D01*
X4377Y316168D01*
X4432Y316180D01*
X4475Y316187D01*
X4490Y316191D01*
X4502Y316195D01*
X4506D01*
X4509D01*
X4611Y315426D01*
D02*
G37*
G36*
X3021Y311396D02*
X3118Y311353D01*
X3212Y311318D01*
X3297Y311291D01*
X3332Y311283D01*
X3367Y311271D01*
X3398Y311264D01*
X3421Y311260D01*
X3445Y311252D01*
X3460D01*
X3468Y311248D01*
X3472D01*
X3503Y311244D01*
X3534Y311240D01*
X3573Y311236D01*
X3616Y311232D01*
X3709Y311225D01*
X3810Y311221D01*
X3923Y311217D01*
X4035Y311213D01*
X4272Y311209D01*
X4385Y311205D01*
X4490D01*
X4591Y311201D01*
X4677D01*
X4715D01*
X4750D01*
X4778D01*
X4805D01*
X4824D01*
X4840D01*
X4848D01*
X4852D01*
X5897D01*
X5990D01*
X6076D01*
X6157Y311197D01*
X6227Y311194D01*
X6293Y311190D01*
X6352D01*
X6406Y311186D01*
X6453Y311182D01*
X6492Y311178D01*
X6526Y311174D01*
X6554Y311170D01*
X6577Y311166D01*
X6593Y311162D01*
X6608D01*
X6612Y311159D01*
X6616D01*
X6732Y311127D01*
X6833Y311093D01*
X6927Y311054D01*
X7004Y311015D01*
X7035Y310995D01*
X7067Y310976D01*
X7090Y310960D01*
X7109Y310945D01*
X7129Y310933D01*
X7140Y310926D01*
X7144Y310922D01*
X7148Y310918D01*
X7187Y310883D01*
X7226Y310844D01*
X7292Y310758D01*
X7354Y310669D01*
X7405Y310580D01*
X7444Y310498D01*
X7459Y310463D01*
X7475Y310436D01*
X7482Y310409D01*
X7490Y310389D01*
X7498Y310378D01*
Y310374D01*
X7521Y310304D01*
X7545Y310226D01*
X7580Y310067D01*
X7603Y309907D01*
X7615Y309830D01*
X7622Y309756D01*
X7626Y309686D01*
X7630Y309620D01*
X7634Y309561D01*
Y309511D01*
X7638Y309472D01*
Y309305D01*
X7630Y309200D01*
X7622Y309095D01*
X7611Y308998D01*
X7599Y308909D01*
X7587Y308819D01*
X7572Y308741D01*
X7556Y308668D01*
X7541Y308598D01*
X7525Y308539D01*
X7513Y308489D01*
X7502Y308446D01*
X7490Y308411D01*
X7482Y308384D01*
X7479Y308368D01*
X7475Y308365D01*
X7444Y308283D01*
X7409Y308205D01*
X7370Y308135D01*
X7335Y308065D01*
X7296Y308003D01*
X7257Y307949D01*
X7218Y307894D01*
X7179Y307852D01*
X7144Y307809D01*
X7113Y307774D01*
X7082Y307743D01*
X7059Y307719D01*
X7039Y307700D01*
X7020Y307684D01*
X7012Y307677D01*
X7008Y307673D01*
X6950Y307630D01*
X6888Y307591D01*
X6760Y307521D01*
X6628Y307459D01*
X6503Y307412D01*
X6445Y307393D01*
X6390Y307377D01*
X6344Y307362D01*
X6301Y307350D01*
X6266Y307342D01*
X6243Y307335D01*
X6223Y307331D01*
X6219D01*
X6115Y308096D01*
X6204Y308120D01*
X6285Y308151D01*
X6359Y308178D01*
X6429Y308209D01*
X6492Y308240D01*
X6546Y308275D01*
X6596Y308306D01*
X6639Y308337D01*
X6678Y308368D01*
X6713Y308396D01*
X6740Y308419D01*
X6760Y308442D01*
X6779Y308462D01*
X6791Y308473D01*
X6795Y308481D01*
X6798Y308485D01*
X6833Y308539D01*
X6865Y308598D01*
X6888Y308660D01*
X6911Y308726D01*
X6946Y308858D01*
X6970Y308994D01*
X6977Y309056D01*
X6981Y309114D01*
X6989Y309165D01*
Y309212D01*
X6993Y309247D01*
Y309301D01*
X6989Y309410D01*
X6981Y309511D01*
X6970Y309604D01*
X6950Y309690D01*
X6931Y309767D01*
X6907Y309841D01*
X6884Y309907D01*
X6861Y309970D01*
X6833Y310020D01*
X6810Y310067D01*
X6787Y310105D01*
X6767Y310137D01*
X6748Y310160D01*
X6736Y310175D01*
X6729Y310187D01*
X6725Y310191D01*
X6686Y310230D01*
X6639Y310265D01*
X6589Y310292D01*
X6538Y310319D01*
X6484Y310343D01*
X6425Y310358D01*
X6317Y310385D01*
X6262Y310393D01*
X6216Y310401D01*
X6169Y310405D01*
X6130Y310409D01*
X6099Y310413D01*
X6072D01*
X6056D01*
X6052D01*
X6033D01*
X6002D01*
X5967D01*
X5932D01*
X5901Y310409D01*
X5874D01*
X5854D01*
X5846D01*
X5819Y310319D01*
X5792Y310222D01*
X5765Y310113D01*
X5738Y310000D01*
X5695Y309771D01*
X5671Y309655D01*
X5656Y309542D01*
X5637Y309437D01*
X5621Y309336D01*
X5609Y309247D01*
X5598Y309169D01*
X5594Y309134D01*
X5590Y309103D01*
X5586Y309076D01*
X5582Y309056D01*
Y309037D01*
X5578Y309025D01*
Y309014D01*
X5566Y308928D01*
X5559Y308850D01*
X5547Y308776D01*
X5535Y308706D01*
X5528Y308644D01*
X5516Y308590D01*
X5508Y308535D01*
X5501Y308493D01*
X5493Y308450D01*
X5485Y308415D01*
X5477Y308384D01*
X5473Y308361D01*
X5469Y308341D01*
X5465Y308330D01*
X5462Y308322D01*
Y308318D01*
X5427Y308205D01*
X5384Y308096D01*
X5341Y308003D01*
X5302Y307917D01*
X5283Y307883D01*
X5263Y307852D01*
X5248Y307820D01*
X5232Y307797D01*
X5221Y307778D01*
X5213Y307766D01*
X5209Y307758D01*
X5205Y307754D01*
X5135Y307665D01*
X5061Y307587D01*
X4988Y307517D01*
X4918Y307459D01*
X4852Y307412D01*
X4824Y307393D01*
X4801Y307377D01*
X4782Y307366D01*
X4766Y307358D01*
X4758Y307350D01*
X4754D01*
X4649Y307300D01*
X4541Y307261D01*
X4436Y307234D01*
X4342Y307214D01*
X4296Y307206D01*
X4257Y307202D01*
X4222Y307199D01*
X4195D01*
X4171Y307195D01*
X4152D01*
X4140D01*
X4136D01*
X4031Y307199D01*
X3930Y307214D01*
X3833Y307234D01*
X3744Y307257D01*
X3658Y307288D01*
X3581Y307323D01*
X3511Y307362D01*
X3445Y307401D01*
X3386Y307436D01*
X3336Y307474D01*
X3293Y307509D01*
X3254Y307541D01*
X3227Y307564D01*
X3204Y307587D01*
X3192Y307599D01*
X3188Y307603D01*
X3122Y307684D01*
X3068Y307770D01*
X3017Y307863D01*
X2974Y307960D01*
X2939Y308057D01*
X2908Y308155D01*
X2885Y308248D01*
X2866Y308341D01*
X2850Y308431D01*
X2838Y308512D01*
X2831Y308586D01*
X2827Y308648D01*
X2823Y308699D01*
X2819Y308738D01*
Y308773D01*
X2827Y308944D01*
X2842Y309103D01*
X2854Y309177D01*
X2866Y309251D01*
X2877Y309317D01*
X2893Y309379D01*
X2908Y309433D01*
X2920Y309484D01*
X2932Y309530D01*
X2943Y309565D01*
X2955Y309596D01*
X2959Y309616D01*
X2967Y309631D01*
Y309635D01*
X2998Y309713D01*
X3033Y309787D01*
X3110Y309938D01*
X3200Y310078D01*
X3243Y310144D01*
X3285Y310207D01*
X3324Y310265D01*
X3363Y310315D01*
X3398Y310362D01*
X3429Y310401D01*
X3452Y310432D01*
X3472Y310455D01*
X3483Y310471D01*
X3487Y310475D01*
X3371Y310490D01*
X3262Y310513D01*
X3165Y310541D01*
X3083Y310564D01*
X3044Y310580D01*
X3013Y310591D01*
X2986Y310603D01*
X2963Y310611D01*
X2943Y310618D01*
X2932Y310626D01*
X2924Y310630D01*
X2920D01*
Y311446D01*
X3021Y311396D01*
D02*
G37*
G36*
X3620Y306693D02*
X3608Y306616D01*
X3600Y306550D01*
X3596Y306491D01*
X3592Y306441D01*
X3589Y306402D01*
Y306351D01*
X3592Y306289D01*
X3596Y306235D01*
X3604Y306188D01*
X3616Y306153D01*
X3627Y306122D01*
X3635Y306099D01*
X3639Y306087D01*
X3643Y306083D01*
X3666Y306052D01*
X3690Y306021D01*
X3717Y305998D01*
X3740Y305982D01*
X3763Y305967D01*
X3779Y305955D01*
X3790Y305951D01*
X3794Y305947D01*
X3814Y305940D01*
X3841Y305936D01*
X3903Y305924D01*
X3973Y305916D01*
X4047Y305912D01*
X4117D01*
X4144Y305908D01*
X4171D01*
X4195D01*
X4210D01*
X4222D01*
X4226D01*
X6927D01*
Y306693D01*
X7537D01*
Y305908D01*
X9150D01*
X8679Y305127D01*
X7537D01*
Y304556D01*
X6927D01*
Y305127D01*
X4268D01*
X4144D01*
X4028Y305131D01*
X3923Y305135D01*
X3826Y305143D01*
X3744Y305151D01*
X3666Y305158D01*
X3600Y305166D01*
X3542Y305178D01*
X3491Y305186D01*
X3452Y305193D01*
X3417Y305201D01*
X3390Y305209D01*
X3367Y305217D01*
X3355Y305221D01*
X3347Y305224D01*
X3344D01*
X3266Y305267D01*
X3196Y305318D01*
X3138Y305372D01*
X3087Y305427D01*
X3048Y305477D01*
X3017Y305516D01*
X3009Y305531D01*
X3002Y305543D01*
X2994Y305551D01*
Y305555D01*
X2971Y305601D01*
X2951Y305652D01*
X2916Y305757D01*
X2893Y305866D01*
X2877Y305974D01*
X2873Y306021D01*
X2869Y306068D01*
X2866Y306110D01*
Y306145D01*
X2862Y306173D01*
Y306215D01*
X2866Y306316D01*
X2873Y306418D01*
X2881Y306518D01*
X2897Y306608D01*
X2901Y306651D01*
X2908Y306689D01*
X2912Y306721D01*
X2916Y306752D01*
X2920Y306775D01*
X2924Y306791D01*
X2928Y306802D01*
Y306806D01*
X3620Y306693D01*
D02*
G37*
G36*
X6029Y303783D02*
X6107Y303779D01*
X6177Y303775D01*
X6239D01*
X6293Y303771D01*
X6344Y303767D01*
X6387Y303763D01*
X6421Y303759D01*
X6453Y303755D01*
X6476Y303752D01*
X6495Y303748D01*
X6507D01*
X6515Y303744D01*
X6519D01*
X6639Y303713D01*
X6748Y303678D01*
X6849Y303635D01*
X6892Y303615D01*
X6931Y303596D01*
X6970Y303577D01*
X7000Y303557D01*
X7028Y303542D01*
X7051Y303526D01*
X7071Y303514D01*
X7082Y303507D01*
X7090Y303503D01*
X7094Y303499D01*
X7140Y303464D01*
X7179Y303425D01*
X7257Y303344D01*
X7327Y303258D01*
X7381Y303172D01*
X7428Y303095D01*
X7444Y303060D01*
X7459Y303033D01*
X7471Y303009D01*
X7479Y302990D01*
X7486Y302978D01*
Y302974D01*
X7537Y302842D01*
X7576Y302706D01*
X7603Y302578D01*
X7611Y302520D01*
X7618Y302461D01*
X7626Y302407D01*
X7630Y302360D01*
X7634Y302318D01*
Y302279D01*
X7638Y302248D01*
Y302209D01*
X7634Y302119D01*
X7630Y302034D01*
X7618Y301952D01*
X7607Y301871D01*
X7568Y301715D01*
X7521Y301575D01*
X7463Y301443D01*
X7397Y301323D01*
X7331Y301214D01*
X7261Y301113D01*
X7187Y301027D01*
X7121Y300954D01*
X7055Y300887D01*
X7000Y300833D01*
X6950Y300794D01*
X6911Y300763D01*
X6899Y300751D01*
X6888Y300748D01*
X6884Y300740D01*
X7537D01*
Y300036D01*
X2920D01*
Y300818D01*
X5438D01*
X5598Y300821D01*
X5745Y300833D01*
X5881Y300852D01*
X6002Y300876D01*
X6111Y300903D01*
X6212Y300930D01*
X6297Y300965D01*
X6375Y301000D01*
X6441Y301031D01*
X6495Y301066D01*
X6542Y301093D01*
X6581Y301124D01*
X6608Y301144D01*
X6628Y301163D01*
X6639Y301175D01*
X6643Y301179D01*
X6697Y301249D01*
X6748Y301323D01*
X6791Y301393D01*
X6826Y301467D01*
X6857Y301540D01*
X6884Y301614D01*
X6903Y301680D01*
X6923Y301746D01*
X6934Y301808D01*
X6946Y301867D01*
X6954Y301913D01*
X6958Y301960D01*
Y301995D01*
X6962Y302018D01*
Y302042D01*
X6954Y302154D01*
X6938Y302259D01*
X6915Y302353D01*
X6892Y302434D01*
X6876Y302469D01*
X6865Y302500D01*
X6853Y302527D01*
X6841Y302547D01*
X6830Y302566D01*
X6826Y302578D01*
X6818Y302586D01*
Y302590D01*
X6763Y302671D01*
X6701Y302737D01*
X6639Y302796D01*
X6577Y302838D01*
X6522Y302873D01*
X6480Y302897D01*
X6464Y302904D01*
X6453Y302908D01*
X6445Y302912D01*
X6441D01*
X6394Y302928D01*
X6344Y302943D01*
X6231Y302966D01*
X6111Y302982D01*
X5994Y302994D01*
X5940Y302998D01*
X5889Y303001D01*
X5842D01*
X5804Y303005D01*
X5773D01*
X5745D01*
X5730D01*
X5726D01*
X2920D01*
Y303787D01*
X5757D01*
X5854D01*
X5947D01*
X6029Y303783D01*
D02*
G37*
G36*
X5493Y299111D02*
X5679Y299092D01*
X5858Y299065D01*
X6025Y299026D01*
X6177Y298979D01*
X6320Y298929D01*
X6449Y298874D01*
X6565Y298816D01*
X6666Y298758D01*
X6756Y298703D01*
X6833Y298653D01*
X6899Y298606D01*
X6946Y298567D01*
X6985Y298540D01*
X7004Y298521D01*
X7012Y298513D01*
X7121Y298396D01*
X7218Y298272D01*
X7304Y298148D01*
X7374Y298015D01*
X7436Y297887D01*
X7486Y297755D01*
X7525Y297631D01*
X7560Y297510D01*
X7587Y297398D01*
X7607Y297293D01*
X7618Y297199D01*
X7630Y297118D01*
Y297083D01*
X7634Y297052D01*
Y297024D01*
X7638Y297001D01*
Y296959D01*
X7634Y296799D01*
X7615Y296651D01*
X7591Y296504D01*
X7556Y296368D01*
X7517Y296239D01*
X7475Y296123D01*
X7428Y296010D01*
X7381Y295909D01*
X7335Y295820D01*
X7288Y295738D01*
X7245Y295668D01*
X7207Y295610D01*
X7171Y295567D01*
X7148Y295532D01*
X7133Y295513D01*
X7125Y295505D01*
X7067Y295439D01*
X7004Y295381D01*
X6934Y295322D01*
X6868Y295272D01*
X6721Y295175D01*
X6569Y295093D01*
X6414Y295023D01*
X6254Y294969D01*
X6099Y294922D01*
X5947Y294883D01*
X5800Y294852D01*
X5668Y294833D01*
X5605Y294821D01*
X5543Y294817D01*
X5489Y294809D01*
X5438Y294806D01*
X5392Y294802D01*
X5353Y294798D01*
X5314D01*
X5287Y294794D01*
X5260D01*
X5244D01*
X5232D01*
X5228D01*
X5015Y294802D01*
X4816Y294821D01*
X4630Y294848D01*
X4455Y294887D01*
X4296Y294934D01*
X4148Y294980D01*
X4016Y295035D01*
X3896Y295093D01*
X3787Y295147D01*
X3697Y295202D01*
X3616Y295252D01*
X3553Y295295D01*
X3503Y295334D01*
X3464Y295361D01*
X3445Y295381D01*
X3437Y295388D01*
X3328Y295505D01*
X3235Y295629D01*
X3149Y295758D01*
X3079Y295886D01*
X3021Y296018D01*
X2971Y296150D01*
X2928Y296275D01*
X2897Y296399D01*
X2869Y296511D01*
X2850Y296620D01*
X2838Y296714D01*
X2831Y296799D01*
X2827Y296834D01*
X2823Y296865D01*
Y296892D01*
X2819Y296916D01*
Y296959D01*
X2823Y297071D01*
X2831Y297180D01*
X2846Y297285D01*
X2862Y297386D01*
X2885Y297483D01*
X2908Y297576D01*
X2932Y297662D01*
X2959Y297740D01*
X2986Y297813D01*
X3009Y297876D01*
X3033Y297934D01*
X3056Y297980D01*
X3072Y298019D01*
X3087Y298047D01*
X3095Y298066D01*
X3099Y298070D01*
X3153Y298163D01*
X3212Y298253D01*
X3278Y298334D01*
X3340Y298408D01*
X3406Y298478D01*
X3472Y298544D01*
X3534Y298602D01*
X3600Y298653D01*
X3658Y298699D01*
X3713Y298738D01*
X3760Y298773D01*
X3802Y298801D01*
X3837Y298824D01*
X3864Y298839D01*
X3884Y298847D01*
X3888Y298851D01*
X3989Y298898D01*
X4094Y298940D01*
X4206Y298975D01*
X4323Y299007D01*
X4439Y299034D01*
X4556Y299053D01*
X4673Y299073D01*
X4782Y299084D01*
X4886Y299096D01*
X4984Y299104D01*
X5069Y299111D01*
X5143Y299115D01*
X5205Y299119D01*
X5232D01*
X5252D01*
X5267D01*
X5279D01*
X5287D01*
X5291D01*
X5493Y299111D01*
D02*
G37*
G36*
X4611Y293643D02*
X4506Y293624D01*
X4405Y293601D01*
X4311Y293577D01*
X4226Y293546D01*
X4148Y293515D01*
X4078Y293480D01*
X4012Y293449D01*
X3954Y293414D01*
X3903Y293383D01*
X3860Y293352D01*
X3826Y293325D01*
X3794Y293302D01*
X3771Y293278D01*
X3752Y293263D01*
X3744Y293255D01*
X3740Y293251D01*
X3690Y293193D01*
X3647Y293131D01*
X3608Y293064D01*
X3577Y293002D01*
X3550Y292936D01*
X3526Y292874D01*
X3507Y292812D01*
X3491Y292750D01*
X3480Y292695D01*
X3472Y292645D01*
X3464Y292598D01*
X3460Y292559D01*
Y292528D01*
X3456Y292501D01*
Y292482D01*
X3460Y292377D01*
X3476Y292276D01*
X3495Y292182D01*
X3522Y292093D01*
X3553Y292011D01*
X3589Y291934D01*
X3627Y291864D01*
X3666Y291801D01*
X3705Y291743D01*
X3744Y291693D01*
X3779Y291650D01*
X3810Y291615D01*
X3837Y291584D01*
X3857Y291564D01*
X3872Y291553D01*
X3876Y291549D01*
X3961Y291487D01*
X4055Y291432D01*
X4160Y291386D01*
X4268Y291343D01*
X4377Y291312D01*
X4490Y291281D01*
X4603Y291257D01*
X4712Y291238D01*
X4816Y291226D01*
X4914Y291215D01*
X5003Y291207D01*
X5081Y291199D01*
X5143D01*
X5170Y291195D01*
X5193D01*
X5209D01*
X5221D01*
X5228D01*
X5232D01*
X5399Y291199D01*
X5555Y291211D01*
X5699Y291230D01*
X5831Y291254D01*
X5951Y291281D01*
X6060Y291312D01*
X6157Y291347D01*
X6247Y291382D01*
X6324Y291413D01*
X6390Y291448D01*
X6449Y291479D01*
X6492Y291506D01*
X6526Y291529D01*
X6554Y291549D01*
X6569Y291560D01*
X6573Y291564D01*
X6647Y291634D01*
X6713Y291712D01*
X6771Y291790D01*
X6818Y291871D01*
X6861Y291949D01*
X6892Y292031D01*
X6923Y292108D01*
X6942Y292182D01*
X6962Y292252D01*
X6973Y292318D01*
X6985Y292377D01*
X6989Y292427D01*
X6993Y292466D01*
X6997Y292497D01*
Y292524D01*
X6993Y292598D01*
X6985Y292664D01*
X6973Y292730D01*
X6962Y292796D01*
X6942Y292855D01*
X6923Y292909D01*
X6899Y292960D01*
X6880Y293006D01*
X6857Y293049D01*
X6833Y293084D01*
X6814Y293115D01*
X6798Y293142D01*
X6783Y293165D01*
X6771Y293181D01*
X6763Y293189D01*
X6760Y293193D01*
X6713Y293243D01*
X6662Y293290D01*
X6554Y293368D01*
X6437Y293438D01*
X6324Y293488D01*
X6270Y293511D01*
X6219Y293527D01*
X6177Y293542D01*
X6138Y293558D01*
X6107Y293566D01*
X6079Y293574D01*
X6064Y293577D01*
X6060D01*
X6177Y294339D01*
X6305Y294308D01*
X6425Y294273D01*
X6538Y294230D01*
X6643Y294188D01*
X6740Y294137D01*
X6830Y294087D01*
X6907Y294032D01*
X6981Y293982D01*
X7043Y293931D01*
X7102Y293885D01*
X7148Y293842D01*
X7187Y293803D01*
X7218Y293772D01*
X7242Y293745D01*
X7253Y293729D01*
X7257Y293725D01*
X7323Y293632D01*
X7381Y293535D01*
X7432Y293434D01*
X7479Y293333D01*
X7513Y293228D01*
X7545Y293127D01*
X7572Y293026D01*
X7591Y292929D01*
X7607Y292839D01*
X7618Y292757D01*
X7626Y292684D01*
X7634Y292618D01*
Y292567D01*
X7638Y292528D01*
Y292493D01*
X7634Y292384D01*
X7626Y292276D01*
X7611Y292171D01*
X7595Y292070D01*
X7572Y291976D01*
X7548Y291883D01*
X7525Y291798D01*
X7498Y291720D01*
X7471Y291650D01*
X7448Y291584D01*
X7424Y291529D01*
X7401Y291483D01*
X7385Y291444D01*
X7370Y291417D01*
X7362Y291401D01*
X7358Y291393D01*
X7304Y291300D01*
X7242Y291215D01*
X7175Y291137D01*
X7109Y291063D01*
X7039Y290993D01*
X6970Y290935D01*
X6899Y290877D01*
X6833Y290826D01*
X6767Y290783D01*
X6709Y290744D01*
X6655Y290713D01*
X6608Y290686D01*
X6569Y290667D01*
X6538Y290651D01*
X6522Y290643D01*
X6515Y290639D01*
X6410Y290597D01*
X6297Y290558D01*
X6188Y290523D01*
X6076Y290496D01*
X5963Y290472D01*
X5854Y290453D01*
X5753Y290434D01*
X5652Y290422D01*
X5559Y290410D01*
X5473Y290402D01*
X5399Y290399D01*
X5333Y290395D01*
X5283Y290391D01*
X5244D01*
X5228D01*
X5217D01*
X5213D01*
X5209D01*
X4999Y290399D01*
X4801Y290414D01*
X4614Y290445D01*
X4443Y290480D01*
X4284Y290523D01*
X4136Y290573D01*
X4004Y290624D01*
X3888Y290678D01*
X3783Y290733D01*
X3690Y290783D01*
X3612Y290834D01*
X3550Y290877D01*
X3499Y290912D01*
X3460Y290943D01*
X3441Y290958D01*
X3433Y290966D01*
X3324Y291079D01*
X3231Y291195D01*
X3149Y291320D01*
X3079Y291448D01*
X3017Y291576D01*
X2971Y291700D01*
X2928Y291825D01*
X2897Y291945D01*
X2869Y292054D01*
X2850Y292159D01*
X2838Y292252D01*
X2831Y292334D01*
X2827Y292369D01*
X2823Y292400D01*
Y292423D01*
X2819Y292447D01*
Y292489D01*
X2823Y292629D01*
X2838Y292761D01*
X2862Y292890D01*
X2889Y293010D01*
X2924Y293123D01*
X2959Y293228D01*
X3002Y293321D01*
X3044Y293410D01*
X3083Y293492D01*
X3126Y293562D01*
X3161Y293620D01*
X3196Y293671D01*
X3223Y293710D01*
X3246Y293741D01*
X3262Y293756D01*
X3266Y293764D01*
X3355Y293857D01*
X3449Y293943D01*
X3546Y294017D01*
X3651Y294087D01*
X3752Y294145D01*
X3857Y294199D01*
X3958Y294246D01*
X4055Y294285D01*
X4148Y294316D01*
X4234Y294347D01*
X4311Y294366D01*
X4377Y294386D01*
X4432Y294398D01*
X4475Y294405D01*
X4490Y294409D01*
X4502Y294413D01*
X4506D01*
X4509D01*
X4611Y293643D01*
D02*
G37*
G36*
X5384Y287208D02*
X5501Y287200D01*
X5617Y287189D01*
X5730Y287177D01*
X5835Y287157D01*
X5936Y287138D01*
X6029Y287119D01*
X6115Y287095D01*
X6196Y287072D01*
X6266Y287052D01*
X6328Y287033D01*
X6379Y287014D01*
X6421Y287002D01*
X6453Y286990D01*
X6468Y286983D01*
X6476Y286979D01*
X6577Y286932D01*
X6674Y286885D01*
X6763Y286831D01*
X6845Y286777D01*
X6923Y286718D01*
X6993Y286664D01*
X7055Y286606D01*
X7113Y286551D01*
X7164Y286501D01*
X7210Y286454D01*
X7249Y286411D01*
X7280Y286373D01*
X7304Y286341D01*
X7319Y286318D01*
X7331Y286303D01*
X7335Y286299D01*
X7389Y286213D01*
X7436Y286124D01*
X7475Y286034D01*
X7510Y285945D01*
X7541Y285856D01*
X7564Y285770D01*
X7584Y285688D01*
X7599Y285611D01*
X7611Y285537D01*
X7622Y285467D01*
X7630Y285409D01*
X7634Y285358D01*
X7638Y285315D01*
Y285175D01*
X7630Y285094D01*
X7622Y285016D01*
X7611Y284946D01*
X7599Y284876D01*
X7584Y284814D01*
X7568Y284756D01*
X7552Y284701D01*
X7533Y284651D01*
X7517Y284608D01*
X7502Y284573D01*
X7490Y284542D01*
X7479Y284515D01*
X7471Y284499D01*
X7467Y284488D01*
X7463Y284484D01*
X7428Y284426D01*
X7389Y284371D01*
X7308Y284262D01*
X7218Y284165D01*
X7133Y284083D01*
X7094Y284045D01*
X7055Y284014D01*
X7024Y283986D01*
X6993Y283959D01*
X6970Y283944D01*
X6950Y283928D01*
X6938Y283920D01*
X6934Y283916D01*
X7537D01*
Y283205D01*
X1152D01*
Y283986D01*
X3398D01*
X3309Y284064D01*
X3227Y284149D01*
X3157Y284235D01*
X3095Y284317D01*
X3048Y284387D01*
X3029Y284418D01*
X3013Y284445D01*
X2998Y284464D01*
X2990Y284480D01*
X2986Y284492D01*
X2982Y284495D01*
X2928Y284616D01*
X2889Y284736D01*
X2858Y284853D01*
X2838Y284966D01*
X2835Y285012D01*
X2827Y285059D01*
X2823Y285098D01*
Y285133D01*
X2819Y285160D01*
Y285199D01*
X2823Y285300D01*
X2831Y285397D01*
X2846Y285490D01*
X2866Y285584D01*
X2889Y285673D01*
X2912Y285758D01*
X2939Y285836D01*
X2971Y285910D01*
X2998Y285976D01*
X3025Y286038D01*
X3048Y286089D01*
X3072Y286135D01*
X3091Y286170D01*
X3107Y286194D01*
X3114Y286213D01*
X3118Y286217D01*
X3176Y286306D01*
X3243Y286388D01*
X3309Y286466D01*
X3379Y286536D01*
X3452Y286602D01*
X3522Y286664D01*
X3596Y286718D01*
X3662Y286769D01*
X3728Y286812D01*
X3790Y286850D01*
X3845Y286882D01*
X3892Y286909D01*
X3930Y286928D01*
X3961Y286944D01*
X3977Y286952D01*
X3985Y286955D01*
X4094Y287002D01*
X4202Y287041D01*
X4315Y287076D01*
X4424Y287103D01*
X4533Y287130D01*
X4638Y287150D01*
X4739Y287165D01*
X4836Y287181D01*
X4925Y287192D01*
X5007Y287200D01*
X5077Y287204D01*
X5139Y287208D01*
X5190Y287212D01*
X5228D01*
X5252D01*
X5260D01*
X5384Y287208D01*
D02*
G37*
G36*
X5493Y282280D02*
X5679Y282261D01*
X5858Y282234D01*
X6025Y282195D01*
X6177Y282148D01*
X6320Y282098D01*
X6449Y282043D01*
X6565Y281985D01*
X6666Y281927D01*
X6756Y281872D01*
X6833Y281822D01*
X6899Y281775D01*
X6946Y281736D01*
X6985Y281709D01*
X7004Y281690D01*
X7012Y281682D01*
X7121Y281565D01*
X7218Y281441D01*
X7304Y281317D01*
X7374Y281184D01*
X7436Y281056D01*
X7486Y280924D01*
X7525Y280800D01*
X7560Y280679D01*
X7587Y280567D01*
X7607Y280462D01*
X7618Y280368D01*
X7630Y280287D01*
Y280252D01*
X7634Y280221D01*
Y280193D01*
X7638Y280170D01*
Y280127D01*
X7634Y279968D01*
X7615Y279820D01*
X7591Y279673D01*
X7556Y279537D01*
X7517Y279408D01*
X7475Y279292D01*
X7428Y279179D01*
X7381Y279078D01*
X7335Y278989D01*
X7288Y278907D01*
X7245Y278837D01*
X7207Y278779D01*
X7171Y278736D01*
X7148Y278701D01*
X7133Y278682D01*
X7125Y278674D01*
X7067Y278608D01*
X7004Y278549D01*
X6934Y278491D01*
X6868Y278441D01*
X6721Y278344D01*
X6569Y278262D01*
X6414Y278192D01*
X6254Y278138D01*
X6099Y278091D01*
X5947Y278052D01*
X5800Y278021D01*
X5668Y278002D01*
X5605Y277990D01*
X5543Y277986D01*
X5489Y277978D01*
X5438Y277974D01*
X5392Y277971D01*
X5353Y277967D01*
X5314D01*
X5287Y277963D01*
X5260D01*
X5244D01*
X5232D01*
X5228D01*
X5015Y277971D01*
X4816Y277990D01*
X4630Y278017D01*
X4455Y278056D01*
X4296Y278103D01*
X4148Y278149D01*
X4016Y278204D01*
X3896Y278262D01*
X3787Y278316D01*
X3697Y278371D01*
X3616Y278421D01*
X3553Y278464D01*
X3503Y278503D01*
X3464Y278530D01*
X3445Y278549D01*
X3437Y278557D01*
X3328Y278674D01*
X3235Y278798D01*
X3149Y278927D01*
X3079Y279055D01*
X3021Y279187D01*
X2971Y279319D01*
X2928Y279443D01*
X2897Y279568D01*
X2869Y279680D01*
X2850Y279789D01*
X2838Y279883D01*
X2831Y279968D01*
X2827Y280003D01*
X2823Y280034D01*
Y280061D01*
X2819Y280085D01*
Y280127D01*
X2823Y280240D01*
X2831Y280349D01*
X2846Y280454D01*
X2862Y280555D01*
X2885Y280652D01*
X2908Y280745D01*
X2932Y280831D01*
X2959Y280909D01*
X2986Y280982D01*
X3009Y281045D01*
X3033Y281103D01*
X3056Y281149D01*
X3072Y281188D01*
X3087Y281215D01*
X3095Y281235D01*
X3099Y281239D01*
X3153Y281332D01*
X3212Y281421D01*
X3278Y281503D01*
X3340Y281577D01*
X3406Y281647D01*
X3472Y281713D01*
X3534Y281771D01*
X3600Y281822D01*
X3658Y281868D01*
X3713Y281907D01*
X3760Y281942D01*
X3802Y281969D01*
X3837Y281993D01*
X3864Y282008D01*
X3884Y282016D01*
X3888Y282020D01*
X3989Y282066D01*
X4094Y282109D01*
X4206Y282144D01*
X4323Y282175D01*
X4439Y282203D01*
X4556Y282222D01*
X4673Y282241D01*
X4782Y282253D01*
X4886Y282265D01*
X4984Y282272D01*
X5069Y282280D01*
X5143Y282284D01*
X5205Y282288D01*
X5232D01*
X5252D01*
X5267D01*
X5279D01*
X5287D01*
X5291D01*
X5493Y282280D01*
D02*
G37*
G36*
X9290Y272437D02*
X8540D01*
Y274539D01*
X2920D01*
Y275382D01*
X8540D01*
Y277489D01*
X9290D01*
Y272437D01*
D02*
G37*
G36*
X331693Y122702D02*
X331299D01*
Y123154D01*
X331693D01*
Y122702D01*
D02*
G37*
G36*
X314281D02*
X313888D01*
Y123154D01*
X314281D01*
Y122702D01*
D02*
G37*
G36*
X340784Y123165D02*
X340862Y123157D01*
X340936Y123144D01*
X341007Y123129D01*
X341071Y123111D01*
X341132Y123091D01*
X341185Y123070D01*
X341236Y123048D01*
X341279Y123025D01*
X341320Y123005D01*
X341353Y122984D01*
X341378Y122966D01*
X341401Y122951D01*
X341416Y122938D01*
X341426Y122931D01*
X341429Y122928D01*
X341477Y122883D01*
X341520Y122832D01*
X341558Y122776D01*
X341591Y122720D01*
X341619Y122664D01*
X341645Y122606D01*
X341668Y122550D01*
X341685Y122497D01*
X341701Y122443D01*
X341711Y122395D01*
X341721Y122352D01*
X341728Y122314D01*
X341734Y122283D01*
X341736Y122260D01*
X341739Y122245D01*
Y122242D01*
Y122240D01*
X341335Y122199D01*
X341332Y122255D01*
X341327Y122306D01*
X341320Y122354D01*
X341307Y122400D01*
X341294Y122441D01*
X341281Y122479D01*
X341266Y122514D01*
X341248Y122547D01*
X341233Y122575D01*
X341218Y122601D01*
X341205Y122621D01*
X341190Y122639D01*
X341180Y122651D01*
X341172Y122662D01*
X341167Y122667D01*
X341165Y122669D01*
X341132Y122700D01*
X341096Y122725D01*
X341058Y122751D01*
X341020Y122768D01*
X340982Y122786D01*
X340944Y122799D01*
X340870Y122822D01*
X340837Y122827D01*
X340806Y122832D01*
X340779Y122837D01*
X340756Y122839D01*
X340735Y122842D01*
X340707D01*
X340659Y122839D01*
X340611Y122834D01*
X340568Y122827D01*
X340524Y122816D01*
X340486Y122804D01*
X340451Y122791D01*
X340418Y122776D01*
X340387Y122761D01*
X340362Y122745D01*
X340336Y122730D01*
X340319Y122718D01*
X340301Y122705D01*
X340288Y122695D01*
X340278Y122687D01*
X340273Y122682D01*
X340271Y122679D01*
X340240Y122649D01*
X340215Y122616D01*
X340192Y122583D01*
X340174Y122550D01*
X340156Y122517D01*
X340144Y122484D01*
X340123Y122423D01*
X340116Y122395D01*
X340110Y122367D01*
X340108Y122344D01*
X340105Y122324D01*
X340103Y122309D01*
Y122296D01*
Y122288D01*
Y122286D01*
X340105Y122242D01*
X340110Y122202D01*
X340121Y122159D01*
X340131Y122118D01*
X340161Y122037D01*
X340179Y121999D01*
X340194Y121966D01*
X340212Y121933D01*
X340230Y121902D01*
X340245Y121877D01*
X340260Y121854D01*
X340271Y121836D01*
X340281Y121821D01*
X340286Y121813D01*
X340288Y121811D01*
X340326Y121762D01*
X340372Y121709D01*
X340420Y121656D01*
X340476Y121600D01*
X340532Y121544D01*
X340593Y121486D01*
X340652Y121432D01*
X340710Y121379D01*
X340766Y121328D01*
X340819Y121282D01*
X340867Y121239D01*
X340910Y121204D01*
X340944Y121173D01*
X340971Y121150D01*
X340982Y121143D01*
X340989Y121138D01*
X340992Y121135D01*
X340994Y121132D01*
X341055Y121082D01*
X341114Y121031D01*
X341167Y120985D01*
X341215Y120940D01*
X341264Y120896D01*
X341304Y120856D01*
X341342Y120820D01*
X341378Y120785D01*
X341408Y120754D01*
X341436Y120726D01*
X341457Y120703D01*
X341477Y120683D01*
X341492Y120665D01*
X341502Y120655D01*
X341507Y120647D01*
X341510Y120645D01*
X341571Y120566D01*
X341624Y120490D01*
X341670Y120419D01*
X341706Y120355D01*
X341718Y120325D01*
X341731Y120299D01*
X341744Y120276D01*
X341751Y120259D01*
X341759Y120241D01*
X341761Y120231D01*
X341767Y120223D01*
Y120221D01*
X341782Y120172D01*
X341795Y120122D01*
X341802Y120076D01*
X341807Y120035D01*
X341812Y120000D01*
Y119972D01*
Y119962D01*
Y119954D01*
Y119951D01*
Y119949D01*
X339694D01*
Y120327D01*
X341269D01*
X341243Y120368D01*
X341215Y120406D01*
X341187Y120442D01*
X341160Y120472D01*
X341137Y120500D01*
X341119Y120520D01*
X341106Y120533D01*
X341101Y120538D01*
X341078Y120561D01*
X341053Y120586D01*
X341022Y120614D01*
X340987Y120647D01*
X340913Y120713D01*
X340834Y120779D01*
X340799Y120813D01*
X340763Y120843D01*
X340730Y120871D01*
X340702Y120894D01*
X340679Y120914D01*
X340662Y120929D01*
X340652Y120940D01*
X340646Y120942D01*
X340570Y121008D01*
X340499Y121069D01*
X340433Y121127D01*
X340372Y121181D01*
X340319Y121232D01*
X340268Y121277D01*
X340222Y121320D01*
X340184Y121359D01*
X340149Y121392D01*
X340121Y121422D01*
X340095Y121447D01*
X340075Y121468D01*
X340060Y121486D01*
X340047Y121496D01*
X340042Y121503D01*
X340039Y121506D01*
X339976Y121582D01*
X339920Y121653D01*
X339877Y121719D01*
X339839Y121778D01*
X339826Y121806D01*
X339813Y121828D01*
X339801Y121849D01*
X339793Y121864D01*
X339785Y121879D01*
X339780Y121889D01*
X339778Y121895D01*
Y121897D01*
X339752Y121968D01*
X339732Y122037D01*
X339719Y122100D01*
X339709Y122156D01*
X339707Y122182D01*
X339704Y122204D01*
X339701Y122225D01*
X339699Y122242D01*
Y122258D01*
Y122268D01*
Y122273D01*
Y122275D01*
X339701Y122344D01*
X339712Y122413D01*
X339724Y122474D01*
X339742Y122535D01*
X339762Y122591D01*
X339785Y122644D01*
X339808Y122692D01*
X339834Y122735D01*
X339859Y122773D01*
X339882Y122809D01*
X339905Y122839D01*
X339925Y122865D01*
X339943Y122885D01*
X339955Y122898D01*
X339966Y122908D01*
X339968Y122910D01*
X340022Y122956D01*
X340077Y122994D01*
X340136Y123030D01*
X340197Y123058D01*
X340258Y123083D01*
X340319Y123104D01*
X340377Y123121D01*
X340436Y123134D01*
X340489Y123147D01*
X340540Y123154D01*
X340585Y123159D01*
X340624Y123162D01*
X340654Y123165D01*
X340679Y123167D01*
X340700D01*
X340784Y123165D01*
D02*
G37*
G36*
X334185Y119949D02*
X333791D01*
Y121216D01*
Y121267D01*
X333788Y121313D01*
X333786Y121359D01*
X333781Y121399D01*
X333776Y121437D01*
X333771Y121473D01*
X333765Y121506D01*
X333758Y121534D01*
X333753Y121559D01*
X333748Y121582D01*
X333743Y121602D01*
X333738Y121618D01*
X333732Y121630D01*
X333730Y121638D01*
X333727Y121643D01*
Y121646D01*
X333699Y121701D01*
X333666Y121750D01*
X333628Y121793D01*
X333593Y121826D01*
X333560Y121854D01*
X333534Y121874D01*
X333524Y121882D01*
X333517Y121887D01*
X333512Y121892D01*
X333509D01*
X333451Y121923D01*
X333392Y121945D01*
X333336Y121961D01*
X333285Y121973D01*
X333242Y121978D01*
X333224Y121981D01*
X333209D01*
X333197Y121983D01*
X333179D01*
X333136Y121981D01*
X333095Y121978D01*
X333059Y121971D01*
X333024Y121963D01*
X332991Y121953D01*
X332963Y121940D01*
X332935Y121927D01*
X332910Y121917D01*
X332889Y121905D01*
X332871Y121892D01*
X332854Y121879D01*
X332841Y121869D01*
X332831Y121861D01*
X332823Y121854D01*
X332821Y121851D01*
X332818Y121849D01*
X332795Y121821D01*
X332775Y121793D01*
X332757Y121760D01*
X332742Y121724D01*
X332719Y121653D01*
X332704Y121585D01*
X332699Y121552D01*
X332696Y121521D01*
X332694Y121493D01*
X332691Y121468D01*
X332689Y121447D01*
Y121432D01*
Y121422D01*
Y121419D01*
Y119949D01*
X332295D01*
Y121417D01*
Y121478D01*
X332297Y121536D01*
X332303Y121592D01*
X332308Y121643D01*
X332315Y121689D01*
X332320Y121732D01*
X332328Y121770D01*
X332336Y121806D01*
X332346Y121836D01*
X332353Y121864D01*
X332358Y121884D01*
X332366Y121905D01*
X332371Y121920D01*
X332376Y121930D01*
X332379Y121935D01*
Y121938D01*
X332394Y121971D01*
X332414Y122001D01*
X332455Y122057D01*
X332501Y122105D01*
X332544Y122146D01*
X332587Y122179D01*
X332605Y122192D01*
X332620Y122202D01*
X332633Y122210D01*
X332643Y122215D01*
X332648Y122220D01*
X332650D01*
X332724Y122253D01*
X332800Y122278D01*
X332877Y122296D01*
X332945Y122309D01*
X332978Y122314D01*
X333006Y122316D01*
X333032Y122319D01*
X333054D01*
X333072Y122321D01*
X333097D01*
X333174Y122319D01*
X333247Y122309D01*
X333316Y122291D01*
X333382Y122270D01*
X333443Y122248D01*
X333501Y122220D01*
X333555Y122192D01*
X333600Y122161D01*
X333644Y122131D01*
X333682Y122103D01*
X333715Y122075D01*
X333743Y122052D01*
X333763Y122032D01*
X333778Y122014D01*
X333788Y122004D01*
X333791Y122001D01*
Y123154D01*
X334185D01*
Y119949D01*
D02*
G37*
G36*
X343044Y123129D02*
X343069Y123088D01*
X343123Y123012D01*
X343181Y122941D01*
X343237Y122875D01*
X343265Y122844D01*
X343290Y122819D01*
X343313Y122796D01*
X343334Y122776D01*
X343352Y122761D01*
X343364Y122748D01*
X343372Y122740D01*
X343374Y122738D01*
X343471Y122659D01*
X343567Y122585D01*
X343664Y122522D01*
X343712Y122494D01*
X343755Y122466D01*
X343796Y122443D01*
X343834Y122423D01*
X343867Y122405D01*
X343895Y122390D01*
X343918Y122377D01*
X343936Y122369D01*
X343946Y122364D01*
X343951Y122362D01*
Y121981D01*
X343880Y122009D01*
X343809Y122042D01*
X343740Y122075D01*
X343674Y122108D01*
X343646Y122123D01*
X343621Y122138D01*
X343595Y122151D01*
X343575Y122161D01*
X343560Y122171D01*
X343547Y122179D01*
X343539Y122182D01*
X343537Y122184D01*
X343456Y122235D01*
X343382Y122283D01*
X343349Y122306D01*
X343316Y122329D01*
X343288Y122352D01*
X343263Y122369D01*
X343240Y122390D01*
X343219Y122405D01*
X343204Y122420D01*
X343189Y122433D01*
X343179Y122443D01*
X343171Y122451D01*
X343166Y122453D01*
X343163Y122456D01*
Y119949D01*
X342770D01*
Y123167D01*
X343024D01*
X343044Y123129D01*
D02*
G37*
G36*
X339201Y121463D02*
X338833Y121414D01*
X338797Y121463D01*
X338759Y121508D01*
X338718Y121546D01*
X338680Y121577D01*
X338647Y121602D01*
X338619Y121623D01*
X338609Y121630D01*
X338602Y121633D01*
X338597Y121638D01*
X338594D01*
X338536Y121666D01*
X338477Y121689D01*
X338419Y121704D01*
X338366Y121714D01*
X338320Y121719D01*
X338299Y121722D01*
X338284Y121724D01*
X338251D01*
X338195Y121722D01*
X338142Y121717D01*
X338091Y121707D01*
X338043Y121694D01*
X338000Y121679D01*
X337959Y121663D01*
X337921Y121646D01*
X337888Y121628D01*
X337858Y121608D01*
X337832Y121590D01*
X337809Y121574D01*
X337789Y121559D01*
X337776Y121546D01*
X337763Y121536D01*
X337758Y121531D01*
X337756Y121529D01*
X337723Y121491D01*
X337692Y121450D01*
X337667Y121409D01*
X337647Y121364D01*
X337626Y121320D01*
X337611Y121277D01*
X337598Y121232D01*
X337588Y121191D01*
X337581Y121150D01*
X337575Y121115D01*
X337570Y121082D01*
X337568Y121054D01*
X337565Y121031D01*
Y121013D01*
Y121003D01*
Y120998D01*
X337568Y120934D01*
X337573Y120873D01*
X337583Y120815D01*
X337596Y120762D01*
X337611Y120711D01*
X337629Y120663D01*
X337647Y120622D01*
X337664Y120581D01*
X337682Y120548D01*
X337700Y120518D01*
X337718Y120492D01*
X337733Y120470D01*
X337746Y120454D01*
X337756Y120442D01*
X337761Y120434D01*
X337763Y120431D01*
X337802Y120393D01*
X337840Y120360D01*
X337880Y120332D01*
X337921Y120307D01*
X337962Y120287D01*
X338002Y120272D01*
X338040Y120256D01*
X338076Y120246D01*
X338111Y120236D01*
X338142Y120228D01*
X338172Y120226D01*
X338195Y120221D01*
X338216D01*
X338231Y120218D01*
X338243D01*
X338287Y120221D01*
X338330Y120226D01*
X338368Y120231D01*
X338406Y120241D01*
X338475Y120266D01*
X338505Y120279D01*
X338533Y120294D01*
X338559Y120307D01*
X338581Y120320D01*
X338602Y120332D01*
X338617Y120345D01*
X338630Y120355D01*
X338640Y120360D01*
X338645Y120365D01*
X338647Y120368D01*
X338678Y120399D01*
X338703Y120431D01*
X338729Y120467D01*
X338749Y120503D01*
X338787Y120579D01*
X338815Y120655D01*
X338825Y120688D01*
X338835Y120721D01*
X338843Y120749D01*
X338848Y120774D01*
X338853Y120797D01*
X338856Y120813D01*
X338858Y120823D01*
Y120825D01*
X339272Y120790D01*
X339262Y120716D01*
X339247Y120645D01*
X339229Y120579D01*
X339206Y120518D01*
X339183Y120459D01*
X339155Y120406D01*
X339128Y120355D01*
X339100Y120312D01*
X339074Y120272D01*
X339046Y120238D01*
X339023Y120208D01*
X339001Y120185D01*
X338983Y120165D01*
X338970Y120149D01*
X338960Y120142D01*
X338957Y120139D01*
X338904Y120096D01*
X338848Y120058D01*
X338790Y120028D01*
X338729Y120000D01*
X338668Y119974D01*
X338609Y119954D01*
X338551Y119939D01*
X338498Y119926D01*
X338444Y119916D01*
X338396Y119908D01*
X338353Y119903D01*
X338317Y119901D01*
X338287Y119898D01*
X338264Y119895D01*
X338243D01*
X338147Y119901D01*
X338056Y119913D01*
X337969Y119931D01*
X337888Y119957D01*
X337814Y119987D01*
X337743Y120017D01*
X337682Y120053D01*
X337624Y120091D01*
X337573Y120127D01*
X337530Y120162D01*
X337492Y120195D01*
X337459Y120223D01*
X337436Y120249D01*
X337418Y120266D01*
X337405Y120279D01*
X337403Y120284D01*
X337357Y120345D01*
X337319Y120406D01*
X337286Y120470D01*
X337256Y120533D01*
X337230Y120597D01*
X337210Y120660D01*
X337195Y120721D01*
X337179Y120777D01*
X337169Y120830D01*
X337161Y120878D01*
X337156Y120924D01*
X337154Y120960D01*
X337151Y120990D01*
X337149Y121013D01*
Y121028D01*
Y121033D01*
X337151Y121117D01*
X337161Y121196D01*
X337174Y121272D01*
X337195Y121343D01*
X337215Y121409D01*
X337240Y121470D01*
X337266Y121526D01*
X337294Y121580D01*
X337322Y121625D01*
X337347Y121663D01*
X337372Y121699D01*
X337393Y121727D01*
X337410Y121750D01*
X337426Y121768D01*
X337436Y121778D01*
X337438Y121780D01*
X337494Y121831D01*
X337550Y121877D01*
X337611Y121915D01*
X337669Y121950D01*
X337730Y121978D01*
X337789Y122001D01*
X337845Y122022D01*
X337898Y122037D01*
X337949Y122047D01*
X337997Y122057D01*
X338038Y122065D01*
X338073Y122067D01*
X338104Y122070D01*
X338127Y122072D01*
X338144D01*
X338203Y122070D01*
X338261Y122065D01*
X338317Y122055D01*
X338373Y122042D01*
X338426Y122024D01*
X338475Y122009D01*
X338523Y121988D01*
X338566Y121971D01*
X338607Y121953D01*
X338642Y121933D01*
X338673Y121917D01*
X338698Y121902D01*
X338721Y121887D01*
X338736Y121877D01*
X338746Y121872D01*
X338749Y121869D01*
X338579Y122733D01*
X337299D01*
Y123109D01*
X338891D01*
X339201Y121463D01*
D02*
G37*
G36*
X364177Y122319D02*
X364228Y122314D01*
X364276Y122309D01*
X364322Y122301D01*
X364365Y122296D01*
X364406Y122288D01*
X364444Y122281D01*
X364477Y122270D01*
X364507Y122263D01*
X364533Y122258D01*
X364553Y122250D01*
X364571Y122245D01*
X364583Y122240D01*
X364591Y122237D01*
X364594D01*
X364672Y122204D01*
X364710Y122187D01*
X364743Y122166D01*
X364774Y122149D01*
X364802Y122128D01*
X364830Y122108D01*
X364853Y122090D01*
X364873Y122072D01*
X364891Y122057D01*
X364906Y122042D01*
X364919Y122029D01*
X364929Y122019D01*
X364936Y122011D01*
X364939Y122006D01*
X364941Y122004D01*
X364982Y121943D01*
X365018Y121879D01*
X365048Y121813D01*
X365071Y121750D01*
X365081Y121719D01*
X365089Y121694D01*
X365096Y121669D01*
X365102Y121648D01*
X365107Y121630D01*
X365109Y121618D01*
X365112Y121610D01*
Y121608D01*
X364728Y121554D01*
X364715Y121600D01*
X364703Y121641D01*
X364688Y121679D01*
X364672Y121712D01*
X364657Y121742D01*
X364639Y121770D01*
X364624Y121796D01*
X364609Y121818D01*
X364594Y121836D01*
X364581Y121854D01*
X364568Y121867D01*
X364555Y121879D01*
X364548Y121887D01*
X364540Y121892D01*
X364538Y121897D01*
X364535D01*
X364510Y121915D01*
X364479Y121930D01*
X364416Y121955D01*
X364347Y121973D01*
X364278Y121983D01*
X364248Y121988D01*
X364220Y121991D01*
X364192Y121994D01*
X364169D01*
X364149Y121996D01*
X364124D01*
X364070Y121994D01*
X364020Y121991D01*
X363974Y121983D01*
X363931Y121976D01*
X363890Y121966D01*
X363852Y121953D01*
X363819Y121940D01*
X363788Y121930D01*
X363763Y121917D01*
X363740Y121905D01*
X363720Y121892D01*
X363704Y121882D01*
X363692Y121874D01*
X363684Y121867D01*
X363679Y121864D01*
X363677Y121861D01*
X363656Y121841D01*
X363638Y121818D01*
X363613Y121768D01*
X363593Y121712D01*
X363577Y121656D01*
X363570Y121605D01*
X363567Y121582D01*
Y121562D01*
X363565Y121546D01*
Y121534D01*
Y121526D01*
Y121524D01*
Y121514D01*
Y121498D01*
Y121465D01*
X363567Y121447D01*
Y121435D01*
Y121425D01*
Y121422D01*
X363613Y121407D01*
X363661Y121394D01*
X363715Y121381D01*
X363773Y121369D01*
X363887Y121343D01*
X363946Y121333D01*
X364002Y121323D01*
X364055Y121315D01*
X364106Y121308D01*
X364151Y121300D01*
X364190Y121295D01*
X364223Y121290D01*
X364248Y121287D01*
X364263Y121285D01*
X364268D01*
X364312Y121280D01*
X364350Y121275D01*
X364388Y121270D01*
X364421Y121265D01*
X364454Y121259D01*
X364482Y121254D01*
X364507Y121249D01*
X364530Y121244D01*
X364553Y121242D01*
X364571Y121237D01*
X364583Y121234D01*
X364596Y121232D01*
X364606Y121229D01*
X364614D01*
X364616Y121227D01*
X364619D01*
X364677Y121209D01*
X364728Y121188D01*
X364776Y121166D01*
X364820Y121145D01*
X364853Y121127D01*
X364878Y121112D01*
X364888Y121105D01*
X364896Y121102D01*
X364898Y121097D01*
X364901D01*
X364944Y121064D01*
X364985Y121026D01*
X365020Y120988D01*
X365048Y120952D01*
X365074Y120919D01*
X365089Y120894D01*
X365096Y120884D01*
X365102Y120878D01*
X365104Y120873D01*
Y120871D01*
X365129Y120818D01*
X365147Y120764D01*
X365163Y120711D01*
X365170Y120663D01*
X365175Y120622D01*
X365178Y120604D01*
Y120589D01*
X365180Y120579D01*
Y120569D01*
Y120564D01*
Y120561D01*
X365178Y120508D01*
X365173Y120457D01*
X365163Y120409D01*
X365147Y120363D01*
X365132Y120320D01*
X365117Y120282D01*
X365096Y120246D01*
X365079Y120213D01*
X365061Y120183D01*
X365041Y120157D01*
X365025Y120134D01*
X365008Y120117D01*
X364995Y120104D01*
X364985Y120091D01*
X364980Y120086D01*
X364977Y120084D01*
X364936Y120050D01*
X364893Y120022D01*
X364847Y119997D01*
X364799Y119977D01*
X364748Y119959D01*
X364700Y119944D01*
X364652Y119931D01*
X364606Y119921D01*
X364563Y119913D01*
X364522Y119908D01*
X364484Y119903D01*
X364454Y119901D01*
X364426D01*
X364408Y119898D01*
X364390D01*
X364304Y119901D01*
X364223Y119911D01*
X364149Y119923D01*
X364116Y119929D01*
X364086Y119936D01*
X364058Y119944D01*
X364032Y119951D01*
X364009Y119957D01*
X363992Y119962D01*
X363976Y119967D01*
X363966Y119972D01*
X363959Y119974D01*
X363956D01*
X363918Y119990D01*
X363880Y120007D01*
X363804Y120048D01*
X363732Y120091D01*
X363669Y120134D01*
X363641Y120155D01*
X363613Y120172D01*
X363590Y120190D01*
X363572Y120205D01*
X363555Y120218D01*
X363545Y120228D01*
X363537Y120233D01*
X363534Y120236D01*
X363527Y120177D01*
X363517Y120122D01*
X363504Y120073D01*
X363489Y120030D01*
X363476Y119997D01*
X363466Y119972D01*
X363461Y119962D01*
X363458Y119954D01*
X363456Y119951D01*
Y119949D01*
X363044D01*
X363069Y120000D01*
X363092Y120048D01*
X363110Y120094D01*
X363123Y120137D01*
X363133Y120172D01*
X363141Y120200D01*
X363143Y120211D01*
Y120218D01*
X363146Y120223D01*
Y120226D01*
X363151Y120259D01*
X363153Y120297D01*
X363156Y120345D01*
X363158Y120396D01*
X363161Y120452D01*
X363163Y120510D01*
X363166Y120627D01*
Y120686D01*
Y120739D01*
X363169Y120787D01*
Y120833D01*
Y120868D01*
Y120896D01*
Y120906D01*
Y120914D01*
Y120917D01*
Y120919D01*
Y121445D01*
Y121493D01*
Y121536D01*
X363171Y121574D01*
Y121613D01*
X363174Y121646D01*
Y121676D01*
X363176Y121701D01*
X363179Y121724D01*
X363181Y121745D01*
Y121762D01*
X363184Y121778D01*
X363186Y121788D01*
Y121798D01*
X363189Y121803D01*
Y121808D01*
X363204Y121867D01*
X363224Y121917D01*
X363245Y121963D01*
X363265Y122001D01*
X363283Y122032D01*
X363298Y122055D01*
X363308Y122070D01*
X363313Y122075D01*
X363349Y122113D01*
X363392Y122149D01*
X363438Y122177D01*
X363481Y122202D01*
X363522Y122222D01*
X363539Y122230D01*
X363555Y122237D01*
X363567Y122242D01*
X363577Y122248D01*
X363583Y122250D01*
X363585D01*
X363621Y122263D01*
X363659Y122273D01*
X363737Y122291D01*
X363819Y122303D01*
X363895Y122314D01*
X363931Y122316D01*
X363964Y122319D01*
X363994D01*
X364020Y122321D01*
X364068D01*
X364177Y122319D01*
D02*
G37*
G36*
X328462Y119949D02*
X328068D01*
Y120868D01*
X327794Y121135D01*
X327024Y119949D01*
X326539D01*
X327517Y121407D01*
X326628Y122270D01*
X327139D01*
X328068Y121326D01*
Y123154D01*
X328462D01*
Y119949D01*
D02*
G37*
G36*
X335356Y122844D02*
Y122270D01*
X335645D01*
Y121966D01*
X335356D01*
Y120627D01*
Y120564D01*
X335353Y120505D01*
X335350Y120454D01*
X335348Y120406D01*
X335345Y120363D01*
X335340Y120325D01*
X335338Y120292D01*
X335333Y120261D01*
X335328Y120238D01*
X335325Y120216D01*
X335320Y120198D01*
X335317Y120185D01*
X335315Y120175D01*
X335312Y120167D01*
X335310Y120165D01*
Y120162D01*
X335289Y120124D01*
X335264Y120089D01*
X335236Y120058D01*
X335208Y120033D01*
X335185Y120012D01*
X335163Y119997D01*
X335150Y119987D01*
X335145Y119984D01*
X335097Y119962D01*
X335043Y119946D01*
X334987Y119934D01*
X334931Y119926D01*
X334883Y119921D01*
X334863D01*
X334845Y119918D01*
X334809D01*
X334759Y119921D01*
X334708Y119923D01*
X334660Y119929D01*
X334611Y119936D01*
X334573Y119941D01*
X334556Y119944D01*
X334540Y119946D01*
X334528Y119949D01*
X334520D01*
X334515Y119951D01*
X334512D01*
X334568Y120299D01*
X334606Y120294D01*
X334639Y120292D01*
X334670Y120289D01*
X334695D01*
X334715Y120287D01*
X334741D01*
X334771Y120289D01*
X334799Y120292D01*
X334822Y120297D01*
X334840Y120302D01*
X334855Y120307D01*
X334865Y120310D01*
X334873Y120315D01*
X334875D01*
X334906Y120337D01*
X334926Y120363D01*
X334931Y120373D01*
X334936Y120383D01*
X334941Y120388D01*
Y120391D01*
X334944Y120401D01*
X334949Y120414D01*
X334954Y120444D01*
X334957Y120480D01*
X334959Y120518D01*
X334962Y120551D01*
Y120579D01*
Y120591D01*
Y120599D01*
Y120604D01*
Y120607D01*
Y121966D01*
X334568D01*
Y122270D01*
X334962D01*
Y123081D01*
X335356Y122844D01*
D02*
G37*
G36*
X322671D02*
Y122270D01*
X322960D01*
Y121966D01*
X322671D01*
Y120627D01*
Y120564D01*
X322668Y120505D01*
X322666Y120454D01*
X322663Y120406D01*
X322661Y120363D01*
X322656Y120325D01*
X322653Y120292D01*
X322648Y120261D01*
X322643Y120238D01*
X322640Y120216D01*
X322635Y120198D01*
X322633Y120185D01*
X322630Y120175D01*
X322628Y120167D01*
X322625Y120165D01*
Y120162D01*
X322605Y120124D01*
X322579Y120089D01*
X322551Y120058D01*
X322523Y120033D01*
X322501Y120012D01*
X322478Y119997D01*
X322465Y119987D01*
X322460Y119984D01*
X322412Y119962D01*
X322358Y119946D01*
X322303Y119934D01*
X322247Y119926D01*
X322198Y119921D01*
X322178D01*
X322160Y119918D01*
X322125D01*
X322074Y119921D01*
X322023Y119923D01*
X321975Y119929D01*
X321927Y119936D01*
X321889Y119941D01*
X321871Y119944D01*
X321856Y119946D01*
X321843Y119949D01*
X321835D01*
X321830Y119951D01*
X321828D01*
X321883Y120299D01*
X321922Y120294D01*
X321954Y120292D01*
X321985Y120289D01*
X322010D01*
X322031Y120287D01*
X322056D01*
X322087Y120289D01*
X322114Y120292D01*
X322137Y120297D01*
X322155Y120302D01*
X322170Y120307D01*
X322181Y120310D01*
X322188Y120315D01*
X322191D01*
X322221Y120337D01*
X322242Y120363D01*
X322247Y120373D01*
X322252Y120383D01*
X322257Y120388D01*
Y120391D01*
X322259Y120401D01*
X322264Y120414D01*
X322270Y120444D01*
X322272Y120480D01*
X322275Y120518D01*
X322277Y120551D01*
Y120579D01*
Y120591D01*
Y120599D01*
Y120604D01*
Y120607D01*
Y121966D01*
X321883D01*
Y122270D01*
X322277D01*
Y123081D01*
X322671Y122844D01*
D02*
G37*
G36*
X359458Y122319D02*
X359539Y122309D01*
X359620Y122291D01*
X359694Y122270D01*
X359762Y122245D01*
X359826Y122220D01*
X359887Y122189D01*
X359940Y122159D01*
X359989Y122128D01*
X360029Y122100D01*
X360067Y122072D01*
X360095Y122047D01*
X360121Y122027D01*
X360136Y122011D01*
X360149Y121999D01*
X360151Y121996D01*
X360204Y121933D01*
X360250Y121864D01*
X360291Y121793D01*
X360324Y121719D01*
X360354Y121643D01*
X360377Y121567D01*
X360397Y121493D01*
X360413Y121422D01*
X360425Y121354D01*
X360435Y121292D01*
X360441Y121234D01*
X360446Y121186D01*
X360448Y121145D01*
X360451Y121130D01*
Y121115D01*
Y121105D01*
Y121097D01*
Y121092D01*
Y121089D01*
X360448Y120985D01*
X360438Y120889D01*
X360423Y120797D01*
X360405Y120713D01*
X360382Y120635D01*
X360357Y120564D01*
X360329Y120498D01*
X360301Y120437D01*
X360275Y120386D01*
X360248Y120340D01*
X360222Y120299D01*
X360199Y120269D01*
X360182Y120244D01*
X360166Y120226D01*
X360156Y120213D01*
X360154Y120211D01*
X360095Y120155D01*
X360034Y120106D01*
X359968Y120066D01*
X359902Y120030D01*
X359833Y120000D01*
X359767Y119974D01*
X359701Y119954D01*
X359638Y119936D01*
X359580Y119923D01*
X359524Y119916D01*
X359473Y119908D01*
X359430Y119903D01*
X359394Y119901D01*
X359369Y119898D01*
X359346D01*
X359272Y119901D01*
X359201Y119906D01*
X359135Y119916D01*
X359072Y119929D01*
X359013Y119944D01*
X358960Y119959D01*
X358909Y119977D01*
X358863Y119997D01*
X358823Y120015D01*
X358787Y120033D01*
X358754Y120048D01*
X358729Y120063D01*
X358708Y120076D01*
X358696Y120086D01*
X358685Y120091D01*
X358683Y120094D01*
X358635Y120132D01*
X358591Y120175D01*
X358553Y120218D01*
X358518Y120264D01*
X358485Y120310D01*
X358454Y120355D01*
X358429Y120401D01*
X358406Y120444D01*
X358388Y120485D01*
X358371Y120523D01*
X358358Y120559D01*
X358345Y120589D01*
X358338Y120614D01*
X358332Y120632D01*
X358327Y120642D01*
Y120647D01*
X358731Y120701D01*
X358749Y120655D01*
X358767Y120612D01*
X358787Y120574D01*
X358807Y120538D01*
X358828Y120505D01*
X358848Y120475D01*
X358868Y120447D01*
X358886Y120424D01*
X358906Y120403D01*
X358922Y120383D01*
X358937Y120368D01*
X358950Y120358D01*
X358960Y120348D01*
X358967Y120340D01*
X358973Y120337D01*
X358975Y120335D01*
X359003Y120315D01*
X359033Y120297D01*
X359097Y120269D01*
X359160Y120249D01*
X359216Y120236D01*
X359244Y120231D01*
X359270Y120226D01*
X359290Y120223D01*
X359310D01*
X359325Y120221D01*
X359346D01*
X359399Y120223D01*
X359450Y120228D01*
X359498Y120238D01*
X359544Y120251D01*
X359587Y120266D01*
X359625Y120284D01*
X359663Y120302D01*
X359696Y120322D01*
X359727Y120340D01*
X359755Y120358D01*
X359778Y120376D01*
X359795Y120391D01*
X359811Y120403D01*
X359821Y120414D01*
X359828Y120419D01*
X359831Y120421D01*
X359867Y120462D01*
X359897Y120505D01*
X359922Y120551D01*
X359948Y120599D01*
X359968Y120647D01*
X359986Y120696D01*
X360001Y120744D01*
X360011Y120792D01*
X360022Y120835D01*
X360029Y120876D01*
X360037Y120914D01*
X360042Y120945D01*
X360044Y120972D01*
Y120990D01*
X360047Y121003D01*
Y121008D01*
X358315D01*
Y121033D01*
X358312Y121054D01*
Y121072D01*
Y121087D01*
Y121097D01*
Y121105D01*
Y121110D01*
Y121112D01*
X358315Y121216D01*
X358325Y121315D01*
X358340Y121407D01*
X358358Y121493D01*
X358381Y121574D01*
X358406Y121646D01*
X358434Y121714D01*
X358459Y121773D01*
X358487Y121826D01*
X358515Y121874D01*
X358541Y121912D01*
X358563Y121945D01*
X358581Y121971D01*
X358597Y121988D01*
X358607Y122001D01*
X358609Y122004D01*
X358665Y122060D01*
X358726Y122108D01*
X358790Y122151D01*
X358853Y122187D01*
X358917Y122217D01*
X358980Y122245D01*
X359041Y122265D01*
X359100Y122281D01*
X359155Y122296D01*
X359206Y122303D01*
X359252Y122311D01*
X359292Y122316D01*
X359323Y122319D01*
X359348Y122321D01*
X359369D01*
X359458Y122319D01*
D02*
G37*
G36*
X329821D02*
X329874Y122316D01*
X329978Y122298D01*
X330027Y122288D01*
X330072Y122275D01*
X330116Y122263D01*
X330154Y122250D01*
X330189Y122237D01*
X330222Y122225D01*
X330250Y122212D01*
X330273Y122202D01*
X330293Y122192D01*
X330306Y122184D01*
X330316Y122182D01*
X330319Y122179D01*
X330364Y122151D01*
X330408Y122121D01*
X330448Y122088D01*
X330484Y122055D01*
X330519Y122019D01*
X330550Y121983D01*
X330578Y121950D01*
X330603Y121915D01*
X330626Y121884D01*
X330644Y121854D01*
X330662Y121826D01*
X330674Y121803D01*
X330685Y121785D01*
X330692Y121770D01*
X330695Y121760D01*
X330697Y121757D01*
X330720Y121704D01*
X330738Y121648D01*
X330756Y121592D01*
X330768Y121536D01*
X330791Y121425D01*
X330799Y121374D01*
X330806Y121323D01*
X330812Y121277D01*
X330814Y121234D01*
X330817Y121196D01*
X330819Y121163D01*
X330822Y121135D01*
Y121117D01*
Y121105D01*
Y121100D01*
X330819Y120993D01*
X330809Y120894D01*
X330794Y120802D01*
X330776Y120716D01*
X330756Y120635D01*
X330730Y120561D01*
X330705Y120495D01*
X330677Y120437D01*
X330649Y120383D01*
X330624Y120337D01*
X330598Y120297D01*
X330578Y120266D01*
X330558Y120241D01*
X330545Y120223D01*
X330535Y120211D01*
X330532Y120208D01*
X330476Y120155D01*
X330415Y120106D01*
X330354Y120063D01*
X330291Y120030D01*
X330227Y120000D01*
X330164Y119974D01*
X330100Y119954D01*
X330042Y119936D01*
X329986Y119923D01*
X329933Y119913D01*
X329887Y119908D01*
X329846Y119903D01*
X329813Y119901D01*
X329788Y119898D01*
X329768D01*
X329696Y119901D01*
X329630Y119908D01*
X329567Y119918D01*
X329506Y119934D01*
X329450Y119949D01*
X329397Y119969D01*
X329348Y119990D01*
X329303Y120010D01*
X329262Y120030D01*
X329226Y120050D01*
X329196Y120071D01*
X329171Y120086D01*
X329150Y120101D01*
X329138Y120111D01*
X329128Y120119D01*
X329125Y120122D01*
X329079Y120165D01*
X329036Y120213D01*
X328998Y120264D01*
X328965Y120315D01*
X328934Y120368D01*
X328907Y120419D01*
X328884Y120470D01*
X328863Y120518D01*
X328848Y120566D01*
X328833Y120609D01*
X328823Y120647D01*
X328812Y120680D01*
X328807Y120708D01*
X328802Y120729D01*
X328800Y120741D01*
Y120746D01*
X329186Y120800D01*
X329196Y120746D01*
X329206Y120696D01*
X329219Y120650D01*
X329234Y120607D01*
X329252Y120566D01*
X329267Y120531D01*
X329285Y120498D01*
X329300Y120470D01*
X329318Y120444D01*
X329333Y120421D01*
X329346Y120403D01*
X329359Y120388D01*
X329369Y120376D01*
X329376Y120368D01*
X329381Y120363D01*
X329384Y120360D01*
X329414Y120335D01*
X329445Y120315D01*
X329478Y120297D01*
X329511Y120279D01*
X329575Y120254D01*
X329636Y120238D01*
X329663Y120233D01*
X329691Y120228D01*
X329714Y120226D01*
X329734Y120223D01*
X329750Y120221D01*
X329773D01*
X329826Y120223D01*
X329874Y120231D01*
X329922Y120241D01*
X329966Y120254D01*
X330009Y120269D01*
X330047Y120287D01*
X330083Y120307D01*
X330113Y120327D01*
X330144Y120345D01*
X330169Y120365D01*
X330189Y120383D01*
X330207Y120399D01*
X330222Y120411D01*
X330232Y120421D01*
X330238Y120429D01*
X330240Y120431D01*
X330271Y120475D01*
X330298Y120520D01*
X330321Y120571D01*
X330342Y120627D01*
X330359Y120683D01*
X330375Y120739D01*
X330387Y120795D01*
X330395Y120851D01*
X330403Y120901D01*
X330408Y120950D01*
X330413Y120995D01*
X330415Y121033D01*
X330418Y121067D01*
Y121089D01*
Y121105D01*
Y121110D01*
X330415Y121194D01*
X330410Y121272D01*
X330400Y121343D01*
X330390Y121409D01*
X330375Y121470D01*
X330359Y121526D01*
X330342Y121577D01*
X330324Y121620D01*
X330309Y121661D01*
X330291Y121694D01*
X330276Y121722D01*
X330260Y121745D01*
X330250Y121762D01*
X330240Y121775D01*
X330235Y121783D01*
X330232Y121785D01*
X330197Y121823D01*
X330159Y121856D01*
X330118Y121884D01*
X330077Y121910D01*
X330039Y121930D01*
X329999Y121948D01*
X329958Y121961D01*
X329922Y121973D01*
X329887Y121981D01*
X329854Y121988D01*
X329823Y121991D01*
X329798Y121996D01*
X329778D01*
X329762Y121999D01*
X329714D01*
X329679Y121994D01*
X329615Y121981D01*
X329559Y121961D01*
X329511Y121940D01*
X329470Y121917D01*
X329455Y121907D01*
X329442Y121897D01*
X329430Y121889D01*
X329422Y121884D01*
X329420Y121882D01*
X329417Y121879D01*
X329392Y121856D01*
X329369Y121831D01*
X329328Y121775D01*
X329293Y121717D01*
X329267Y121661D01*
X329247Y121610D01*
X329239Y121587D01*
X329232Y121567D01*
X329226Y121552D01*
X329224Y121539D01*
X329221Y121531D01*
Y121529D01*
X328838Y121587D01*
X328853Y121651D01*
X328871Y121712D01*
X328891Y121768D01*
X328914Y121821D01*
X328940Y121869D01*
X328965Y121912D01*
X328993Y121953D01*
X329018Y121988D01*
X329044Y122022D01*
X329067Y122050D01*
X329089Y122072D01*
X329110Y122093D01*
X329125Y122108D01*
X329138Y122121D01*
X329145Y122126D01*
X329148Y122128D01*
X329193Y122161D01*
X329242Y122192D01*
X329293Y122217D01*
X329346Y122240D01*
X329397Y122258D01*
X329448Y122273D01*
X329498Y122288D01*
X329547Y122298D01*
X329590Y122306D01*
X329633Y122311D01*
X329671Y122316D01*
X329701Y122319D01*
X329729Y122321D01*
X329765D01*
X329821Y122319D01*
D02*
G37*
G36*
X320636D02*
X320718Y122309D01*
X320799Y122291D01*
X320872Y122270D01*
X320941Y122245D01*
X321005Y122220D01*
X321065Y122189D01*
X321119Y122159D01*
X321167Y122128D01*
X321208Y122100D01*
X321246Y122072D01*
X321274Y122047D01*
X321299Y122027D01*
X321314Y122011D01*
X321327Y121999D01*
X321330Y121996D01*
X321383Y121933D01*
X321429Y121864D01*
X321469Y121793D01*
X321502Y121719D01*
X321533Y121643D01*
X321556Y121567D01*
X321576Y121493D01*
X321591Y121422D01*
X321604Y121354D01*
X321614Y121292D01*
X321619Y121234D01*
X321624Y121186D01*
X321627Y121145D01*
X321629Y121130D01*
Y121115D01*
Y121105D01*
Y121097D01*
Y121092D01*
Y121089D01*
X321627Y120985D01*
X321617Y120889D01*
X321601Y120797D01*
X321584Y120713D01*
X321561Y120635D01*
X321535Y120564D01*
X321507Y120498D01*
X321479Y120437D01*
X321454Y120386D01*
X321426Y120340D01*
X321401Y120299D01*
X321378Y120269D01*
X321360Y120244D01*
X321345Y120226D01*
X321335Y120213D01*
X321332Y120211D01*
X321274Y120155D01*
X321213Y120106D01*
X321147Y120066D01*
X321081Y120030D01*
X321012Y120000D01*
X320946Y119974D01*
X320880Y119954D01*
X320817Y119936D01*
X320758Y119923D01*
X320702Y119916D01*
X320652Y119908D01*
X320608Y119903D01*
X320573Y119901D01*
X320547Y119898D01*
X320524D01*
X320451Y119901D01*
X320380Y119906D01*
X320314Y119916D01*
X320250Y119929D01*
X320192Y119944D01*
X320138Y119959D01*
X320088Y119977D01*
X320042Y119997D01*
X320001Y120015D01*
X319966Y120033D01*
X319933Y120048D01*
X319907Y120063D01*
X319887Y120076D01*
X319874Y120086D01*
X319864Y120091D01*
X319862Y120094D01*
X319813Y120132D01*
X319770Y120175D01*
X319732Y120218D01*
X319697Y120264D01*
X319663Y120310D01*
X319633Y120355D01*
X319608Y120401D01*
X319585Y120444D01*
X319567Y120485D01*
X319549Y120523D01*
X319536Y120559D01*
X319524Y120589D01*
X319516Y120614D01*
X319511Y120632D01*
X319506Y120642D01*
Y120647D01*
X319910Y120701D01*
X319928Y120655D01*
X319945Y120612D01*
X319966Y120574D01*
X319986Y120538D01*
X320006Y120505D01*
X320027Y120475D01*
X320047Y120447D01*
X320065Y120424D01*
X320085Y120403D01*
X320100Y120383D01*
X320116Y120368D01*
X320128Y120358D01*
X320138Y120348D01*
X320146Y120340D01*
X320151Y120337D01*
X320154Y120335D01*
X320182Y120315D01*
X320212Y120297D01*
X320276Y120269D01*
X320339Y120249D01*
X320395Y120236D01*
X320423Y120231D01*
X320448Y120226D01*
X320469Y120223D01*
X320489D01*
X320504Y120221D01*
X320524D01*
X320578Y120223D01*
X320629Y120228D01*
X320677Y120238D01*
X320723Y120251D01*
X320766Y120266D01*
X320804Y120284D01*
X320842Y120302D01*
X320875Y120322D01*
X320905Y120340D01*
X320933Y120358D01*
X320956Y120376D01*
X320974Y120391D01*
X320989Y120403D01*
X320999Y120414D01*
X321007Y120419D01*
X321010Y120421D01*
X321045Y120462D01*
X321076Y120505D01*
X321101Y120551D01*
X321127Y120599D01*
X321147Y120647D01*
X321165Y120696D01*
X321180Y120744D01*
X321190Y120792D01*
X321200Y120835D01*
X321208Y120876D01*
X321215Y120914D01*
X321221Y120945D01*
X321223Y120972D01*
Y120990D01*
X321226Y121003D01*
Y121008D01*
X319493D01*
Y121033D01*
X319491Y121054D01*
Y121072D01*
Y121087D01*
Y121097D01*
Y121105D01*
Y121110D01*
Y121112D01*
X319493Y121216D01*
X319503Y121315D01*
X319519Y121407D01*
X319536Y121493D01*
X319559Y121574D01*
X319585Y121646D01*
X319613Y121714D01*
X319638Y121773D01*
X319666Y121826D01*
X319694Y121874D01*
X319719Y121912D01*
X319742Y121945D01*
X319760Y121971D01*
X319775Y121988D01*
X319785Y122001D01*
X319788Y122004D01*
X319844Y122060D01*
X319905Y122108D01*
X319968Y122151D01*
X320032Y122187D01*
X320095Y122217D01*
X320159Y122245D01*
X320220Y122265D01*
X320278Y122281D01*
X320334Y122296D01*
X320385Y122303D01*
X320430Y122311D01*
X320471Y122316D01*
X320502Y122319D01*
X320527Y122321D01*
X320547D01*
X320636Y122319D01*
D02*
G37*
G36*
X315640D02*
X315693Y122316D01*
X315798Y122298D01*
X315846Y122288D01*
X315891Y122275D01*
X315935Y122263D01*
X315973Y122250D01*
X316008Y122237D01*
X316041Y122225D01*
X316069Y122212D01*
X316092Y122202D01*
X316112Y122192D01*
X316125Y122184D01*
X316135Y122182D01*
X316138Y122179D01*
X316184Y122151D01*
X316227Y122121D01*
X316268Y122088D01*
X316303Y122055D01*
X316339Y122019D01*
X316369Y121983D01*
X316397Y121950D01*
X316422Y121915D01*
X316445Y121884D01*
X316463Y121854D01*
X316481Y121826D01*
X316493Y121803D01*
X316504Y121785D01*
X316511Y121770D01*
X316514Y121760D01*
X316516Y121757D01*
X316539Y121704D01*
X316557Y121648D01*
X316575Y121592D01*
X316588Y121536D01*
X316610Y121425D01*
X316618Y121374D01*
X316626Y121323D01*
X316631Y121277D01*
X316633Y121234D01*
X316636Y121196D01*
X316638Y121163D01*
X316641Y121135D01*
Y121117D01*
Y121105D01*
Y121100D01*
X316638Y120993D01*
X316628Y120894D01*
X316613Y120802D01*
X316595Y120716D01*
X316575Y120635D01*
X316549Y120561D01*
X316524Y120495D01*
X316496Y120437D01*
X316468Y120383D01*
X316443Y120337D01*
X316417Y120297D01*
X316397Y120266D01*
X316377Y120241D01*
X316364Y120223D01*
X316354Y120211D01*
X316351Y120208D01*
X316295Y120155D01*
X316234Y120106D01*
X316173Y120063D01*
X316110Y120030D01*
X316047Y120000D01*
X315983Y119974D01*
X315919Y119954D01*
X315861Y119936D01*
X315805Y119923D01*
X315752Y119913D01*
X315706Y119908D01*
X315665Y119903D01*
X315632Y119901D01*
X315607Y119898D01*
X315587D01*
X315516Y119901D01*
X315450Y119908D01*
X315386Y119918D01*
X315325Y119934D01*
X315269Y119949D01*
X315216Y119969D01*
X315168Y119990D01*
X315122Y120010D01*
X315081Y120030D01*
X315046Y120050D01*
X315015Y120071D01*
X314990Y120086D01*
X314970Y120101D01*
X314957Y120111D01*
X314947Y120119D01*
X314944Y120122D01*
X314898Y120165D01*
X314855Y120213D01*
X314817Y120264D01*
X314784Y120315D01*
X314754Y120368D01*
X314726Y120419D01*
X314703Y120470D01*
X314683Y120518D01*
X314667Y120566D01*
X314652Y120609D01*
X314642Y120647D01*
X314632Y120680D01*
X314627Y120708D01*
X314622Y120729D01*
X314619Y120741D01*
Y120746D01*
X315005Y120800D01*
X315015Y120746D01*
X315025Y120696D01*
X315038Y120650D01*
X315053Y120607D01*
X315071Y120566D01*
X315086Y120531D01*
X315104Y120498D01*
X315119Y120470D01*
X315137Y120444D01*
X315152Y120421D01*
X315165Y120403D01*
X315178Y120388D01*
X315188Y120376D01*
X315196Y120368D01*
X315201Y120363D01*
X315203Y120360D01*
X315234Y120335D01*
X315264Y120315D01*
X315297Y120297D01*
X315330Y120279D01*
X315394Y120254D01*
X315455Y120238D01*
X315483Y120233D01*
X315511Y120228D01*
X315533Y120226D01*
X315554Y120223D01*
X315569Y120221D01*
X315592D01*
X315645Y120223D01*
X315693Y120231D01*
X315742Y120241D01*
X315785Y120254D01*
X315828Y120269D01*
X315866Y120287D01*
X315902Y120307D01*
X315932Y120327D01*
X315963Y120345D01*
X315988Y120365D01*
X316008Y120383D01*
X316026Y120399D01*
X316041Y120411D01*
X316052Y120421D01*
X316057Y120429D01*
X316059Y120431D01*
X316090Y120475D01*
X316118Y120520D01*
X316140Y120571D01*
X316161Y120627D01*
X316179Y120683D01*
X316194Y120739D01*
X316206Y120795D01*
X316214Y120851D01*
X316222Y120901D01*
X316227Y120950D01*
X316232Y120995D01*
X316234Y121033D01*
X316237Y121067D01*
Y121089D01*
Y121105D01*
Y121110D01*
X316234Y121194D01*
X316229Y121272D01*
X316219Y121343D01*
X316209Y121409D01*
X316194Y121470D01*
X316179Y121526D01*
X316161Y121577D01*
X316143Y121620D01*
X316128Y121661D01*
X316110Y121694D01*
X316095Y121722D01*
X316080Y121745D01*
X316069Y121762D01*
X316059Y121775D01*
X316054Y121783D01*
X316052Y121785D01*
X316016Y121823D01*
X315978Y121856D01*
X315937Y121884D01*
X315897Y121910D01*
X315858Y121930D01*
X315818Y121948D01*
X315777Y121961D01*
X315742Y121973D01*
X315706Y121981D01*
X315673Y121988D01*
X315643Y121991D01*
X315617Y121996D01*
X315597D01*
X315582Y121999D01*
X315533D01*
X315498Y121994D01*
X315434Y121981D01*
X315378Y121961D01*
X315330Y121940D01*
X315290Y121917D01*
X315274Y121907D01*
X315262Y121897D01*
X315249Y121889D01*
X315241Y121884D01*
X315239Y121882D01*
X315236Y121879D01*
X315211Y121856D01*
X315188Y121831D01*
X315147Y121775D01*
X315112Y121717D01*
X315086Y121661D01*
X315066Y121610D01*
X315058Y121587D01*
X315051Y121567D01*
X315046Y121552D01*
X315043Y121539D01*
X315041Y121531D01*
Y121529D01*
X314657Y121587D01*
X314672Y121651D01*
X314690Y121712D01*
X314710Y121768D01*
X314733Y121821D01*
X314759Y121869D01*
X314784Y121912D01*
X314812Y121953D01*
X314837Y121988D01*
X314863Y122022D01*
X314886Y122050D01*
X314909Y122072D01*
X314929Y122093D01*
X314944Y122108D01*
X314957Y122121D01*
X314964Y122126D01*
X314967Y122128D01*
X315013Y122161D01*
X315061Y122192D01*
X315112Y122217D01*
X315165Y122240D01*
X315216Y122258D01*
X315267Y122273D01*
X315317Y122288D01*
X315366Y122298D01*
X315409Y122306D01*
X315452Y122311D01*
X315490Y122316D01*
X315521Y122319D01*
X315549Y122321D01*
X315584D01*
X315640Y122319D01*
D02*
G37*
G36*
X368000Y119949D02*
X366725D01*
X366669Y119951D01*
X366618Y119954D01*
X366570Y119957D01*
X366524Y119962D01*
X366481Y119967D01*
X366443Y119972D01*
X366407Y119977D01*
X366374Y119979D01*
X366346Y119984D01*
X366321Y119990D01*
X366300Y119995D01*
X366283Y119997D01*
X366272Y120000D01*
X366265Y120002D01*
X366262D01*
X366186Y120025D01*
X366118Y120050D01*
X366059Y120076D01*
X366008Y120101D01*
X365985Y120114D01*
X365968Y120124D01*
X365950Y120134D01*
X365937Y120142D01*
X365927Y120149D01*
X365917Y120155D01*
X365914Y120160D01*
X365912D01*
X365861Y120203D01*
X365815Y120251D01*
X365777Y120299D01*
X365742Y120348D01*
X365716Y120391D01*
X365704Y120409D01*
X365696Y120426D01*
X365688Y120439D01*
X365683Y120449D01*
X365678Y120454D01*
Y120457D01*
X365645Y120531D01*
X365622Y120604D01*
X365604Y120675D01*
X365594Y120741D01*
X365589Y120769D01*
X365587Y120797D01*
X365584Y120820D01*
Y120840D01*
X365582Y120856D01*
Y120868D01*
Y120876D01*
Y120878D01*
X365584Y120929D01*
X365589Y120980D01*
X365597Y121028D01*
X365607Y121072D01*
X365617Y121115D01*
X365632Y121155D01*
X365645Y121191D01*
X365660Y121227D01*
X365676Y121257D01*
X365688Y121285D01*
X365704Y121308D01*
X365714Y121328D01*
X365724Y121343D01*
X365731Y121354D01*
X365737Y121361D01*
X365739Y121364D01*
X365770Y121402D01*
X365802Y121435D01*
X365838Y121468D01*
X365874Y121496D01*
X365912Y121524D01*
X365947Y121546D01*
X366021Y121587D01*
X366054Y121602D01*
X366085Y121618D01*
X366112Y121630D01*
X366138Y121638D01*
X366158Y121646D01*
X366173Y121651D01*
X366184Y121656D01*
X366186D01*
X366145Y121676D01*
X366107Y121699D01*
X366072Y121724D01*
X366039Y121747D01*
X366008Y121773D01*
X365980Y121796D01*
X365955Y121818D01*
X365932Y121841D01*
X365912Y121864D01*
X365896Y121882D01*
X365881Y121900D01*
X365869Y121915D01*
X365861Y121927D01*
X365853Y121938D01*
X365848Y121943D01*
Y121945D01*
X365828Y121981D01*
X365810Y122014D01*
X365785Y122083D01*
X365764Y122149D01*
X365749Y122210D01*
X365747Y122235D01*
X365742Y122260D01*
X365739Y122281D01*
Y122298D01*
X365737Y122314D01*
Y122324D01*
Y122331D01*
Y122334D01*
X365739Y122375D01*
X365742Y122415D01*
X365757Y122494D01*
X365777Y122565D01*
X365787Y122598D01*
X365800Y122629D01*
X365813Y122656D01*
X365823Y122679D01*
X365833Y122702D01*
X365843Y122720D01*
X365851Y122735D01*
X365858Y122745D01*
X365861Y122753D01*
X365863Y122756D01*
X365914Y122827D01*
X365970Y122888D01*
X366029Y122941D01*
X366085Y122982D01*
X366135Y123015D01*
X366156Y123027D01*
X366173Y123038D01*
X366191Y123045D01*
X366201Y123050D01*
X366209Y123055D01*
X366212D01*
X366255Y123073D01*
X366300Y123088D01*
X366397Y123114D01*
X366493Y123132D01*
X366542Y123137D01*
X366587Y123142D01*
X366631Y123147D01*
X366671Y123149D01*
X366707Y123152D01*
X366737D01*
X366763Y123154D01*
X368000D01*
Y119949D01*
D02*
G37*
G36*
X350606Y122316D02*
X350687Y122306D01*
X350763Y122286D01*
X350834Y122263D01*
X350900Y122232D01*
X350961Y122202D01*
X351017Y122166D01*
X351065Y122131D01*
X351109Y122095D01*
X351147Y122060D01*
X351180Y122029D01*
X351205Y121999D01*
X351226Y121976D01*
X351241Y121955D01*
X351251Y121945D01*
X351253Y121940D01*
Y122270D01*
X351609D01*
Y119949D01*
X351215D01*
Y121214D01*
X351213Y121295D01*
X351208Y121369D01*
X351198Y121435D01*
X351187Y121498D01*
X351175Y121552D01*
X351159Y121602D01*
X351142Y121646D01*
X351124Y121686D01*
X351109Y121719D01*
X351091Y121747D01*
X351076Y121770D01*
X351063Y121788D01*
X351053Y121803D01*
X351043Y121813D01*
X351037Y121818D01*
X351035Y121821D01*
X350999Y121849D01*
X350964Y121874D01*
X350926Y121895D01*
X350890Y121912D01*
X350852Y121930D01*
X350816Y121943D01*
X350748Y121961D01*
X350718Y121968D01*
X350690Y121973D01*
X350664Y121976D01*
X350644Y121978D01*
X350626Y121981D01*
X350601D01*
X350545Y121978D01*
X350491Y121971D01*
X350446Y121958D01*
X350405Y121945D01*
X350372Y121933D01*
X350347Y121920D01*
X350331Y121912D01*
X350329Y121910D01*
X350326D01*
X350286Y121882D01*
X350253Y121851D01*
X350225Y121818D01*
X350202Y121788D01*
X350184Y121760D01*
X350171Y121740D01*
X350166Y121724D01*
X350164Y121722D01*
Y121719D01*
X350156Y121696D01*
X350149Y121669D01*
X350136Y121613D01*
X350128Y121552D01*
X350121Y121493D01*
X350118Y121442D01*
Y121417D01*
X350116Y121399D01*
Y121381D01*
Y121369D01*
Y121361D01*
Y121359D01*
Y119949D01*
X349722D01*
Y121374D01*
Y121425D01*
Y121470D01*
X349724Y121511D01*
Y121549D01*
X349727Y121585D01*
X349729Y121615D01*
X349732Y121643D01*
Y121669D01*
X349734Y121689D01*
X349737Y121709D01*
X349740Y121724D01*
X349742Y121737D01*
Y121745D01*
X349745Y121752D01*
Y121757D01*
X349760Y121818D01*
X349780Y121874D01*
X349800Y121923D01*
X349821Y121966D01*
X349839Y121999D01*
X349854Y122027D01*
X349861Y122034D01*
X349864Y122042D01*
X349869Y122044D01*
Y122047D01*
X349905Y122090D01*
X349945Y122128D01*
X349989Y122164D01*
X350032Y122192D01*
X350070Y122215D01*
X350088Y122225D01*
X350103Y122232D01*
X350113Y122237D01*
X350123Y122242D01*
X350128Y122245D01*
X350131D01*
X350197Y122270D01*
X350265Y122288D01*
X350329Y122303D01*
X350390Y122311D01*
X350415Y122316D01*
X350441D01*
X350463Y122319D01*
X350481Y122321D01*
X350517D01*
X350606Y122316D01*
D02*
G37*
G36*
X345274Y119949D02*
X344827D01*
Y120396D01*
X345274D01*
Y119949D01*
D02*
G37*
G36*
X331693D02*
X331299D01*
Y122270D01*
X331693D01*
Y119949D01*
D02*
G37*
G36*
X318007Y122316D02*
X318089Y122306D01*
X318165Y122286D01*
X318236Y122263D01*
X318302Y122232D01*
X318363Y122202D01*
X318419Y122166D01*
X318467Y122131D01*
X318510Y122095D01*
X318548Y122060D01*
X318581Y122029D01*
X318607Y121999D01*
X318627Y121976D01*
X318642Y121955D01*
X318652Y121945D01*
X318655Y121940D01*
Y122270D01*
X319011D01*
Y119949D01*
X318617D01*
Y121214D01*
X318614Y121295D01*
X318609Y121369D01*
X318599Y121435D01*
X318589Y121498D01*
X318576Y121552D01*
X318561Y121602D01*
X318543Y121646D01*
X318526Y121686D01*
X318510Y121719D01*
X318493Y121747D01*
X318477Y121770D01*
X318465Y121788D01*
X318454Y121803D01*
X318444Y121813D01*
X318439Y121818D01*
X318437Y121821D01*
X318401Y121849D01*
X318365Y121874D01*
X318327Y121895D01*
X318292Y121912D01*
X318254Y121930D01*
X318218Y121943D01*
X318150Y121961D01*
X318119Y121968D01*
X318091Y121973D01*
X318066Y121976D01*
X318046Y121978D01*
X318028Y121981D01*
X318002D01*
X317946Y121978D01*
X317893Y121971D01*
X317847Y121958D01*
X317807Y121945D01*
X317774Y121933D01*
X317748Y121920D01*
X317733Y121912D01*
X317731Y121910D01*
X317728D01*
X317687Y121882D01*
X317654Y121851D01*
X317626Y121818D01*
X317603Y121788D01*
X317586Y121760D01*
X317573Y121740D01*
X317568Y121724D01*
X317565Y121722D01*
Y121719D01*
X317558Y121696D01*
X317550Y121669D01*
X317537Y121613D01*
X317530Y121552D01*
X317522Y121493D01*
X317520Y121442D01*
Y121417D01*
X317517Y121399D01*
Y121381D01*
Y121369D01*
Y121361D01*
Y121359D01*
Y119949D01*
X317123D01*
Y121374D01*
Y121425D01*
Y121470D01*
X317126Y121511D01*
Y121549D01*
X317129Y121585D01*
X317131Y121615D01*
X317134Y121643D01*
Y121669D01*
X317136Y121689D01*
X317139Y121709D01*
X317141Y121724D01*
X317144Y121737D01*
Y121745D01*
X317146Y121752D01*
Y121757D01*
X317162Y121818D01*
X317182Y121874D01*
X317202Y121923D01*
X317222Y121966D01*
X317240Y121999D01*
X317255Y122027D01*
X317263Y122034D01*
X317266Y122042D01*
X317271Y122044D01*
Y122047D01*
X317306Y122090D01*
X317347Y122128D01*
X317390Y122164D01*
X317433Y122192D01*
X317471Y122215D01*
X317489Y122225D01*
X317504Y122232D01*
X317515Y122237D01*
X317525Y122242D01*
X317530Y122245D01*
X317532D01*
X317598Y122270D01*
X317667Y122288D01*
X317731Y122303D01*
X317792Y122311D01*
X317817Y122316D01*
X317842D01*
X317865Y122319D01*
X317883Y122321D01*
X317918D01*
X318007Y122316D01*
D02*
G37*
G36*
X314281Y119949D02*
X313888D01*
Y122270D01*
X314281D01*
Y119949D01*
D02*
G37*
G36*
X313298D02*
X312904D01*
Y123154D01*
X313298D01*
Y119949D01*
D02*
G37*
G36*
X361861Y122319D02*
X361924Y122314D01*
X361982Y122306D01*
X362033Y122298D01*
X362056Y122293D01*
X362076Y122288D01*
X362094Y122283D01*
X362109Y122281D01*
X362122Y122278D01*
X362130Y122275D01*
X362135Y122273D01*
X362137D01*
X362193Y122255D01*
X362242Y122235D01*
X362285Y122217D01*
X362320Y122199D01*
X362348Y122184D01*
X362369Y122171D01*
X362381Y122161D01*
X362386Y122159D01*
X362429Y122126D01*
X362467Y122088D01*
X362500Y122052D01*
X362528Y122016D01*
X362551Y121986D01*
X362567Y121963D01*
X362572Y121953D01*
X362577Y121945D01*
X362579Y121943D01*
Y121940D01*
X362602Y121889D01*
X362620Y121839D01*
X362633Y121790D01*
X362640Y121747D01*
X362645Y121709D01*
X362648Y121694D01*
X362650Y121679D01*
Y121669D01*
Y121661D01*
Y121656D01*
Y121653D01*
X362648Y121592D01*
X362638Y121534D01*
X362622Y121481D01*
X362607Y121432D01*
X362592Y121394D01*
X362584Y121379D01*
X362577Y121366D01*
X362572Y121356D01*
X362567Y121348D01*
X362564Y121343D01*
Y121341D01*
X362528Y121292D01*
X362488Y121247D01*
X362445Y121209D01*
X362404Y121178D01*
X362369Y121153D01*
X362338Y121135D01*
X362325Y121127D01*
X362318Y121125D01*
X362313Y121120D01*
X362310D01*
X362275Y121105D01*
X362236Y121089D01*
X362193Y121074D01*
X362145Y121056D01*
X362046Y121026D01*
X361947Y120995D01*
X361899Y120983D01*
X361855Y120970D01*
X361815Y120960D01*
X361779Y120950D01*
X361749Y120942D01*
X361726Y120937D01*
X361713Y120934D01*
X361708Y120932D01*
X361650Y120917D01*
X361599Y120904D01*
X361551Y120889D01*
X361510Y120876D01*
X361472Y120866D01*
X361439Y120856D01*
X361411Y120845D01*
X361385Y120835D01*
X361365Y120828D01*
X361347Y120820D01*
X361335Y120815D01*
X361325Y120810D01*
X361317Y120805D01*
X361312Y120802D01*
X361307Y120800D01*
X361286Y120785D01*
X361269Y120769D01*
X361238Y120734D01*
X361218Y120698D01*
X361205Y120665D01*
X361195Y120635D01*
X361192Y120612D01*
X361190Y120602D01*
Y120594D01*
Y120591D01*
Y120589D01*
X361192Y120561D01*
X361195Y120536D01*
X361210Y120485D01*
X361231Y120442D01*
X361256Y120403D01*
X361281Y120373D01*
X361302Y120350D01*
X361317Y120335D01*
X361319Y120332D01*
X361322Y120330D01*
X361347Y120310D01*
X361378Y120294D01*
X361441Y120266D01*
X361507Y120249D01*
X361573Y120233D01*
X361604Y120231D01*
X361632Y120226D01*
X361660Y120223D01*
X361680D01*
X361700Y120221D01*
X361726D01*
X361774Y120223D01*
X361822Y120226D01*
X361866Y120233D01*
X361906Y120241D01*
X361942Y120249D01*
X361977Y120261D01*
X362010Y120272D01*
X362038Y120284D01*
X362064Y120294D01*
X362084Y120307D01*
X362104Y120317D01*
X362119Y120325D01*
X362132Y120335D01*
X362140Y120340D01*
X362145Y120343D01*
X362147Y120345D01*
X362173Y120371D01*
X362198Y120396D01*
X362239Y120454D01*
X362269Y120513D01*
X362295Y120571D01*
X362310Y120622D01*
X362315Y120645D01*
X362320Y120665D01*
X362323Y120680D01*
X362325Y120693D01*
X362328Y120701D01*
Y120703D01*
X362716Y120642D01*
X362704Y120576D01*
X362686Y120513D01*
X362666Y120454D01*
X362643Y120399D01*
X362620Y120348D01*
X362594Y120302D01*
X362569Y120261D01*
X362544Y120223D01*
X362518Y120190D01*
X362495Y120162D01*
X362473Y120139D01*
X362455Y120119D01*
X362440Y120104D01*
X362427Y120091D01*
X362419Y120086D01*
X362417Y120084D01*
X362369Y120050D01*
X362318Y120022D01*
X362264Y119997D01*
X362208Y119977D01*
X362150Y119959D01*
X362092Y119944D01*
X362036Y119931D01*
X361980Y119921D01*
X361929Y119913D01*
X361881Y119908D01*
X361835Y119903D01*
X361797Y119901D01*
X361767D01*
X361744Y119898D01*
X361723D01*
X361624Y119903D01*
X361533Y119913D01*
X361490Y119921D01*
X361449Y119929D01*
X361411Y119936D01*
X361378Y119946D01*
X361347Y119954D01*
X361319Y119962D01*
X361294Y119969D01*
X361274Y119977D01*
X361259Y119984D01*
X361246Y119987D01*
X361238Y119992D01*
X361236D01*
X361159Y120030D01*
X361091Y120073D01*
X361035Y120119D01*
X361010Y120139D01*
X360987Y120160D01*
X360966Y120180D01*
X360951Y120200D01*
X360936Y120216D01*
X360923Y120231D01*
X360916Y120244D01*
X360908Y120251D01*
X360903Y120256D01*
Y120259D01*
X360883Y120292D01*
X360865Y120325D01*
X360834Y120391D01*
X360814Y120454D01*
X360801Y120510D01*
X360796Y120536D01*
X360791Y120559D01*
X360789Y120579D01*
Y120597D01*
X360786Y120609D01*
Y120622D01*
Y120627D01*
Y120630D01*
X360791Y120701D01*
X360801Y120767D01*
X360816Y120825D01*
X360832Y120873D01*
X360842Y120894D01*
X360849Y120912D01*
X360857Y120927D01*
X360865Y120942D01*
X360872Y120952D01*
X360875Y120960D01*
X360880Y120962D01*
Y120965D01*
X360918Y121013D01*
X360961Y121056D01*
X361004Y121092D01*
X361045Y121120D01*
X361081Y121143D01*
X361111Y121160D01*
X361124Y121166D01*
X361132Y121171D01*
X361137Y121173D01*
X361139D01*
X361172Y121186D01*
X361213Y121201D01*
X361253Y121216D01*
X361299Y121232D01*
X361396Y121262D01*
X361492Y121292D01*
X361538Y121305D01*
X361581Y121318D01*
X361622Y121328D01*
X361655Y121338D01*
X361683Y121346D01*
X361706Y121351D01*
X361718Y121356D01*
X361723D01*
X361774Y121371D01*
X361822Y121384D01*
X361863Y121394D01*
X361899Y121404D01*
X361932Y121414D01*
X361959Y121422D01*
X361985Y121430D01*
X362005Y121435D01*
X362023Y121440D01*
X362038Y121445D01*
X362048Y121447D01*
X362059Y121450D01*
X362069Y121455D01*
X362071D01*
X362107Y121470D01*
X362137Y121488D01*
X362163Y121506D01*
X362183Y121524D01*
X362201Y121536D01*
X362211Y121549D01*
X362219Y121557D01*
X362221Y121559D01*
X362236Y121585D01*
X362249Y121608D01*
X362257Y121630D01*
X362264Y121653D01*
X362267Y121671D01*
X362269Y121686D01*
Y121696D01*
Y121699D01*
X362267Y121722D01*
X362264Y121742D01*
X362252Y121783D01*
X362234Y121818D01*
X362211Y121849D01*
X362191Y121872D01*
X362173Y121892D01*
X362160Y121902D01*
X362155Y121907D01*
X362132Y121923D01*
X362104Y121938D01*
X362046Y121961D01*
X361980Y121976D01*
X361916Y121988D01*
X361886Y121991D01*
X361858Y121994D01*
X361833Y121996D01*
X361810D01*
X361792Y121999D01*
X361723D01*
X361685Y121994D01*
X361647Y121988D01*
X361614Y121983D01*
X361581Y121976D01*
X361553Y121966D01*
X361525Y121958D01*
X361502Y121948D01*
X361482Y121938D01*
X361462Y121930D01*
X361446Y121920D01*
X361434Y121912D01*
X361424Y121907D01*
X361416Y121902D01*
X361413Y121897D01*
X361411D01*
X361368Y121856D01*
X361332Y121811D01*
X361307Y121765D01*
X361286Y121719D01*
X361271Y121679D01*
X361266Y121661D01*
X361261Y121648D01*
X361259Y121635D01*
Y121625D01*
X361256Y121620D01*
Y121618D01*
X360872Y121671D01*
X360890Y121750D01*
X360910Y121821D01*
X360933Y121882D01*
X360943Y121910D01*
X360956Y121935D01*
X360966Y121955D01*
X360976Y121976D01*
X360984Y121991D01*
X360994Y122004D01*
X360999Y122016D01*
X361004Y122024D01*
X361010Y122027D01*
Y122029D01*
X361030Y122055D01*
X361050Y122077D01*
X361099Y122121D01*
X361149Y122156D01*
X361200Y122187D01*
X361246Y122210D01*
X361266Y122220D01*
X361284Y122227D01*
X361297Y122235D01*
X361307Y122240D01*
X361314Y122242D01*
X361317D01*
X361396Y122268D01*
X361479Y122288D01*
X361558Y122301D01*
X361632Y122311D01*
X361667Y122314D01*
X361698Y122316D01*
X361726Y122319D01*
X361749Y122321D01*
X361794D01*
X361861Y122319D01*
D02*
G37*
G36*
X356359Y122001D02*
X356399Y122052D01*
X356445Y122098D01*
X356491Y122136D01*
X356531Y122171D01*
X356570Y122197D01*
X356587Y122207D01*
X356600Y122217D01*
X356613Y122222D01*
X356620Y122227D01*
X356626Y122232D01*
X356628D01*
X356692Y122263D01*
X356755Y122283D01*
X356816Y122298D01*
X356874Y122311D01*
X356900Y122314D01*
X356925Y122316D01*
X356946Y122319D01*
X356963D01*
X356979Y122321D01*
X356999D01*
X357052Y122319D01*
X357103Y122314D01*
X357151Y122306D01*
X357200Y122298D01*
X357245Y122286D01*
X357286Y122273D01*
X357327Y122260D01*
X357362Y122245D01*
X357398Y122230D01*
X357426Y122217D01*
X357451Y122204D01*
X357474Y122192D01*
X357492Y122184D01*
X357504Y122177D01*
X357512Y122171D01*
X357514Y122169D01*
X357558Y122138D01*
X357596Y122108D01*
X357631Y122072D01*
X357667Y122037D01*
X357697Y122001D01*
X357725Y121966D01*
X357751Y121930D01*
X357776Y121895D01*
X357797Y121864D01*
X357814Y121834D01*
X357830Y121806D01*
X357840Y121780D01*
X357850Y121762D01*
X357857Y121747D01*
X357860Y121737D01*
X357863Y121735D01*
X357883Y121681D01*
X357901Y121628D01*
X357929Y121519D01*
X357949Y121412D01*
X357957Y121361D01*
X357962Y121315D01*
X357967Y121272D01*
X357972Y121232D01*
X357974Y121196D01*
Y121166D01*
X357977Y121140D01*
Y121122D01*
Y121112D01*
Y121107D01*
X357974Y121041D01*
X357972Y120978D01*
X357964Y120917D01*
X357957Y120858D01*
X357946Y120802D01*
X357936Y120751D01*
X357926Y120703D01*
X357913Y120660D01*
X357901Y120619D01*
X357890Y120584D01*
X357880Y120551D01*
X357870Y120526D01*
X357863Y120505D01*
X357855Y120490D01*
X357852Y120480D01*
X357850Y120477D01*
X357824Y120426D01*
X357799Y120381D01*
X357769Y120335D01*
X357741Y120294D01*
X357710Y120256D01*
X357680Y120221D01*
X357652Y120190D01*
X357624Y120162D01*
X357596Y120134D01*
X357570Y120114D01*
X357550Y120094D01*
X357530Y120078D01*
X357514Y120066D01*
X357502Y120058D01*
X357494Y120053D01*
X357492Y120050D01*
X357449Y120022D01*
X357403Y120000D01*
X357357Y119979D01*
X357314Y119962D01*
X357271Y119949D01*
X357228Y119936D01*
X357187Y119926D01*
X357149Y119918D01*
X357113Y119911D01*
X357080Y119906D01*
X357052Y119903D01*
X357027Y119901D01*
X357009Y119898D01*
X356981D01*
X356902Y119903D01*
X356829Y119913D01*
X356763Y119929D01*
X356699Y119951D01*
X356641Y119977D01*
X356587Y120007D01*
X356539Y120038D01*
X356496Y120071D01*
X356458Y120101D01*
X356422Y120132D01*
X356394Y120162D01*
X356371Y120188D01*
X356354Y120211D01*
X356341Y120226D01*
X356333Y120238D01*
X356331Y120241D01*
Y119949D01*
X355965D01*
Y123154D01*
X356359D01*
Y122001D01*
D02*
G37*
G36*
X353235Y122319D02*
X353311Y122311D01*
X353385Y122298D01*
X353453Y122281D01*
X353517Y122260D01*
X353575Y122240D01*
X353631Y122217D01*
X353682Y122192D01*
X353727Y122169D01*
X353768Y122143D01*
X353804Y122123D01*
X353831Y122103D01*
X353854Y122085D01*
X353872Y122072D01*
X353882Y122065D01*
X353885Y122062D01*
X353948Y122001D01*
X354004Y121933D01*
X354050Y121859D01*
X354091Y121783D01*
X354126Y121704D01*
X354157Y121625D01*
X354179Y121546D01*
X354197Y121470D01*
X354212Y121397D01*
X354225Y121331D01*
X354233Y121267D01*
X354238Y121214D01*
Y121191D01*
X354240Y121171D01*
Y121153D01*
X354243Y121138D01*
Y121125D01*
Y121117D01*
Y121112D01*
Y121110D01*
X354240Y121003D01*
X354230Y120901D01*
X354215Y120807D01*
X354197Y120721D01*
X354174Y120640D01*
X354149Y120566D01*
X354121Y120498D01*
X354093Y120439D01*
X354065Y120383D01*
X354037Y120337D01*
X354012Y120299D01*
X353989Y120266D01*
X353971Y120241D01*
X353956Y120223D01*
X353946Y120211D01*
X353943Y120208D01*
X353885Y120155D01*
X353824Y120106D01*
X353760Y120063D01*
X353694Y120030D01*
X353628Y120000D01*
X353562Y119974D01*
X353499Y119954D01*
X353438Y119936D01*
X353379Y119923D01*
X353326Y119913D01*
X353278Y119908D01*
X353237Y119903D01*
X353202Y119901D01*
X353176Y119898D01*
X353156D01*
X353100Y119901D01*
X353044Y119903D01*
X352940Y119921D01*
X352892Y119931D01*
X352844Y119941D01*
X352800Y119954D01*
X352760Y119969D01*
X352724Y119982D01*
X352691Y119995D01*
X352663Y120005D01*
X352640Y120015D01*
X352620Y120025D01*
X352607Y120033D01*
X352597Y120035D01*
X352594Y120038D01*
X352549Y120066D01*
X352503Y120096D01*
X352463Y120127D01*
X352424Y120160D01*
X352389Y120193D01*
X352358Y120226D01*
X352328Y120259D01*
X352302Y120292D01*
X352280Y120320D01*
X352259Y120348D01*
X352242Y120373D01*
X352229Y120393D01*
X352219Y120411D01*
X352209Y120426D01*
X352206Y120434D01*
X352203Y120437D01*
X352180Y120487D01*
X352158Y120541D01*
X352140Y120597D01*
X352125Y120655D01*
X352102Y120772D01*
X352092Y120830D01*
X352086Y120884D01*
X352079Y120937D01*
X352076Y120985D01*
X352074Y121028D01*
X352071Y121067D01*
X352069Y121097D01*
Y121120D01*
Y121135D01*
Y121140D01*
X352071Y121242D01*
X352081Y121336D01*
X352097Y121425D01*
X352117Y121508D01*
X352140Y121587D01*
X352165Y121658D01*
X352193Y121722D01*
X352221Y121780D01*
X352249Y121834D01*
X352277Y121879D01*
X352302Y121917D01*
X352325Y121948D01*
X352346Y121973D01*
X352361Y121991D01*
X352371Y122004D01*
X352374Y122006D01*
X352432Y122062D01*
X352495Y122110D01*
X352559Y122154D01*
X352625Y122189D01*
X352691Y122220D01*
X352755Y122245D01*
X352818Y122265D01*
X352879Y122283D01*
X352935Y122296D01*
X352988Y122303D01*
X353036Y122311D01*
X353077Y122316D01*
X353110Y122319D01*
X353136Y122321D01*
X353156D01*
X353235Y122319D01*
D02*
G37*
G36*
X324284D02*
X324347Y122314D01*
X324406Y122306D01*
X324456Y122298D01*
X324479Y122293D01*
X324500Y122288D01*
X324517Y122283D01*
X324533Y122281D01*
X324545Y122278D01*
X324553Y122275D01*
X324558Y122273D01*
X324561D01*
X324616Y122255D01*
X324665Y122235D01*
X324708Y122217D01*
X324743Y122199D01*
X324771Y122184D01*
X324792Y122171D01*
X324804Y122161D01*
X324809Y122159D01*
X324853Y122126D01*
X324891Y122088D01*
X324924Y122052D01*
X324952Y122016D01*
X324975Y121986D01*
X324990Y121963D01*
X324995Y121953D01*
X325000Y121945D01*
X325003Y121943D01*
Y121940D01*
X325025Y121889D01*
X325043Y121839D01*
X325056Y121790D01*
X325064Y121747D01*
X325069Y121709D01*
X325071Y121694D01*
X325074Y121679D01*
Y121669D01*
Y121661D01*
Y121656D01*
Y121653D01*
X325071Y121592D01*
X325061Y121534D01*
X325046Y121481D01*
X325031Y121432D01*
X325015Y121394D01*
X325008Y121379D01*
X325000Y121366D01*
X324995Y121356D01*
X324990Y121348D01*
X324987Y121343D01*
Y121341D01*
X324952Y121292D01*
X324911Y121247D01*
X324868Y121209D01*
X324827Y121178D01*
X324792Y121153D01*
X324761Y121135D01*
X324748Y121127D01*
X324741Y121125D01*
X324736Y121120D01*
X324733D01*
X324698Y121105D01*
X324660Y121089D01*
X324616Y121074D01*
X324568Y121056D01*
X324469Y121026D01*
X324370Y120995D01*
X324322Y120983D01*
X324279Y120970D01*
X324238Y120960D01*
X324202Y120950D01*
X324172Y120942D01*
X324149Y120937D01*
X324136Y120934D01*
X324131Y120932D01*
X324073Y120917D01*
X324022Y120904D01*
X323974Y120889D01*
X323933Y120876D01*
X323895Y120866D01*
X323862Y120856D01*
X323834Y120845D01*
X323809Y120835D01*
X323788Y120828D01*
X323771Y120820D01*
X323758Y120815D01*
X323748Y120810D01*
X323740Y120805D01*
X323735Y120802D01*
X323730Y120800D01*
X323710Y120785D01*
X323692Y120769D01*
X323661Y120734D01*
X323641Y120698D01*
X323628Y120665D01*
X323618Y120635D01*
X323616Y120612D01*
X323613Y120602D01*
Y120594D01*
Y120591D01*
Y120589D01*
X323616Y120561D01*
X323618Y120536D01*
X323633Y120485D01*
X323654Y120442D01*
X323679Y120403D01*
X323705Y120373D01*
X323725Y120350D01*
X323740Y120335D01*
X323743Y120332D01*
X323745Y120330D01*
X323771Y120310D01*
X323801Y120294D01*
X323865Y120266D01*
X323931Y120249D01*
X323997Y120233D01*
X324027Y120231D01*
X324055Y120226D01*
X324083Y120223D01*
X324103D01*
X324124Y120221D01*
X324149D01*
X324197Y120223D01*
X324246Y120226D01*
X324289Y120233D01*
X324329Y120241D01*
X324365Y120249D01*
X324400Y120261D01*
X324434Y120272D01*
X324462Y120284D01*
X324487Y120294D01*
X324507Y120307D01*
X324528Y120317D01*
X324543Y120325D01*
X324556Y120335D01*
X324563Y120340D01*
X324568Y120343D01*
X324571Y120345D01*
X324596Y120371D01*
X324622Y120396D01*
X324662Y120454D01*
X324693Y120513D01*
X324718Y120571D01*
X324733Y120622D01*
X324738Y120645D01*
X324743Y120665D01*
X324746Y120680D01*
X324748Y120693D01*
X324751Y120701D01*
Y120703D01*
X325140Y120642D01*
X325127Y120576D01*
X325109Y120513D01*
X325089Y120454D01*
X325066Y120399D01*
X325043Y120348D01*
X325018Y120302D01*
X324992Y120261D01*
X324967Y120223D01*
X324942Y120190D01*
X324919Y120162D01*
X324896Y120139D01*
X324878Y120119D01*
X324863Y120104D01*
X324850Y120091D01*
X324842Y120086D01*
X324840Y120084D01*
X324792Y120050D01*
X324741Y120022D01*
X324688Y119997D01*
X324632Y119977D01*
X324573Y119959D01*
X324515Y119944D01*
X324459Y119931D01*
X324403Y119921D01*
X324352Y119913D01*
X324304Y119908D01*
X324258Y119903D01*
X324220Y119901D01*
X324190D01*
X324167Y119898D01*
X324146D01*
X324048Y119903D01*
X323956Y119913D01*
X323913Y119921D01*
X323872Y119929D01*
X323834Y119936D01*
X323801Y119946D01*
X323771Y119954D01*
X323743Y119962D01*
X323717Y119969D01*
X323697Y119977D01*
X323682Y119984D01*
X323669Y119987D01*
X323661Y119992D01*
X323659D01*
X323583Y120030D01*
X323514Y120073D01*
X323458Y120119D01*
X323433Y120139D01*
X323410Y120160D01*
X323390Y120180D01*
X323374Y120200D01*
X323359Y120216D01*
X323346Y120231D01*
X323339Y120244D01*
X323331Y120251D01*
X323326Y120256D01*
Y120259D01*
X323306Y120292D01*
X323288Y120325D01*
X323257Y120391D01*
X323237Y120454D01*
X323224Y120510D01*
X323219Y120536D01*
X323214Y120559D01*
X323212Y120579D01*
Y120597D01*
X323209Y120609D01*
Y120622D01*
Y120627D01*
Y120630D01*
X323214Y120701D01*
X323224Y120767D01*
X323240Y120825D01*
X323255Y120873D01*
X323265Y120894D01*
X323273Y120912D01*
X323280Y120927D01*
X323288Y120942D01*
X323296Y120952D01*
X323298Y120960D01*
X323303Y120962D01*
Y120965D01*
X323341Y121013D01*
X323385Y121056D01*
X323428Y121092D01*
X323468Y121120D01*
X323504Y121143D01*
X323534Y121160D01*
X323547Y121166D01*
X323555Y121171D01*
X323560Y121173D01*
X323562D01*
X323595Y121186D01*
X323636Y121201D01*
X323677Y121216D01*
X323722Y121232D01*
X323819Y121262D01*
X323915Y121292D01*
X323961Y121305D01*
X324004Y121318D01*
X324045Y121328D01*
X324078Y121338D01*
X324106Y121346D01*
X324129Y121351D01*
X324142Y121356D01*
X324146D01*
X324197Y121371D01*
X324246Y121384D01*
X324286Y121394D01*
X324322Y121404D01*
X324355Y121414D01*
X324383Y121422D01*
X324408Y121430D01*
X324428Y121435D01*
X324446Y121440D01*
X324462Y121445D01*
X324472Y121447D01*
X324482Y121450D01*
X324492Y121455D01*
X324495D01*
X324530Y121470D01*
X324561Y121488D01*
X324586Y121506D01*
X324606Y121524D01*
X324624Y121536D01*
X324634Y121549D01*
X324642Y121557D01*
X324644Y121559D01*
X324660Y121585D01*
X324672Y121608D01*
X324680Y121630D01*
X324688Y121653D01*
X324690Y121671D01*
X324693Y121686D01*
Y121696D01*
Y121699D01*
X324690Y121722D01*
X324688Y121742D01*
X324675Y121783D01*
X324657Y121818D01*
X324634Y121849D01*
X324614Y121872D01*
X324596Y121892D01*
X324583Y121902D01*
X324578Y121907D01*
X324556Y121923D01*
X324528Y121938D01*
X324469Y121961D01*
X324403Y121976D01*
X324340Y121988D01*
X324309Y121991D01*
X324281Y121994D01*
X324256Y121996D01*
X324233D01*
X324215Y121999D01*
X324146D01*
X324108Y121994D01*
X324070Y121988D01*
X324037Y121983D01*
X324004Y121976D01*
X323976Y121966D01*
X323948Y121958D01*
X323926Y121948D01*
X323905Y121938D01*
X323885Y121930D01*
X323870Y121920D01*
X323857Y121912D01*
X323847Y121907D01*
X323839Y121902D01*
X323837Y121897D01*
X323834D01*
X323791Y121856D01*
X323755Y121811D01*
X323730Y121765D01*
X323710Y121719D01*
X323694Y121679D01*
X323689Y121661D01*
X323684Y121648D01*
X323682Y121635D01*
Y121625D01*
X323679Y121620D01*
Y121618D01*
X323296Y121671D01*
X323313Y121750D01*
X323334Y121821D01*
X323357Y121882D01*
X323367Y121910D01*
X323380Y121935D01*
X323390Y121955D01*
X323400Y121976D01*
X323407Y121991D01*
X323418Y122004D01*
X323423Y122016D01*
X323428Y122024D01*
X323433Y122027D01*
Y122029D01*
X323453Y122055D01*
X323473Y122077D01*
X323522Y122121D01*
X323573Y122156D01*
X323623Y122187D01*
X323669Y122210D01*
X323689Y122220D01*
X323707Y122227D01*
X323720Y122235D01*
X323730Y122240D01*
X323738Y122242D01*
X323740D01*
X323819Y122268D01*
X323903Y122288D01*
X323981Y122301D01*
X324055Y122311D01*
X324091Y122314D01*
X324121Y122316D01*
X324149Y122319D01*
X324172Y122321D01*
X324218D01*
X324284Y122319D01*
D02*
G37*
G36*
X347004Y123165D02*
X347065Y123159D01*
X347123Y123149D01*
X347179Y123137D01*
X347230Y123124D01*
X347278Y123109D01*
X347322Y123091D01*
X347362Y123073D01*
X347398Y123055D01*
X347431Y123038D01*
X347459Y123022D01*
X347481Y123010D01*
X347499Y122997D01*
X347512Y122987D01*
X347520Y122982D01*
X347522Y122979D01*
X347563Y122941D01*
X347603Y122903D01*
X347639Y122860D01*
X347672Y122816D01*
X347702Y122771D01*
X347733Y122728D01*
X347758Y122682D01*
X347781Y122641D01*
X347802Y122601D01*
X347819Y122563D01*
X347835Y122529D01*
X347845Y122502D01*
X347855Y122476D01*
X347863Y122458D01*
X347865Y122448D01*
X347868Y122443D01*
X347888Y122377D01*
X347906Y122306D01*
X347921Y122230D01*
X347936Y122154D01*
X347957Y122001D01*
X347964Y121927D01*
X347969Y121856D01*
X347974Y121790D01*
X347979Y121727D01*
X347982Y121671D01*
Y121623D01*
X347984Y121585D01*
Y121567D01*
Y121554D01*
Y121544D01*
Y121536D01*
Y121531D01*
Y121529D01*
Y121445D01*
X347982Y121366D01*
X347977Y121287D01*
X347972Y121214D01*
X347964Y121143D01*
X347957Y121074D01*
X347946Y121008D01*
X347936Y120945D01*
X347924Y120884D01*
X347911Y120828D01*
X347898Y120772D01*
X347885Y120721D01*
X347870Y120670D01*
X347857Y120625D01*
X347842Y120581D01*
X347827Y120538D01*
X347812Y120500D01*
X347797Y120464D01*
X347784Y120431D01*
X347769Y120401D01*
X347756Y120373D01*
X347743Y120348D01*
X347718Y120302D01*
X347697Y120269D01*
X347682Y120246D01*
X347672Y120231D01*
X347669Y120226D01*
X347616Y120167D01*
X347560Y120117D01*
X347502Y120073D01*
X347443Y120035D01*
X347383Y120002D01*
X347322Y119977D01*
X347263Y119954D01*
X347205Y119936D01*
X347151Y119923D01*
X347100Y119913D01*
X347055Y119906D01*
X347017Y119901D01*
X346984Y119898D01*
X346961Y119895D01*
X346940D01*
X346875Y119898D01*
X346814Y119903D01*
X346755Y119913D01*
X346702Y119926D01*
X346648Y119939D01*
X346600Y119954D01*
X346557Y119972D01*
X346516Y119990D01*
X346481Y120007D01*
X346450Y120025D01*
X346422Y120040D01*
X346399Y120053D01*
X346382Y120066D01*
X346369Y120076D01*
X346361Y120081D01*
X346359Y120084D01*
X346316Y120122D01*
X346278Y120160D01*
X346242Y120203D01*
X346206Y120246D01*
X346176Y120292D01*
X346148Y120335D01*
X346120Y120378D01*
X346097Y120421D01*
X346077Y120462D01*
X346059Y120498D01*
X346044Y120531D01*
X346034Y120561D01*
X346024Y120584D01*
X346016Y120602D01*
X346013Y120612D01*
X346011Y120617D01*
X345990Y120686D01*
X345973Y120757D01*
X345957Y120830D01*
X345942Y120906D01*
X345922Y121059D01*
X345914Y121132D01*
X345909Y121204D01*
X345904Y121270D01*
X345899Y121333D01*
X345897Y121386D01*
Y121435D01*
X345894Y121475D01*
Y121491D01*
Y121503D01*
Y121514D01*
Y121524D01*
Y121526D01*
Y121529D01*
Y121615D01*
X345897Y121699D01*
X345902Y121775D01*
X345904Y121849D01*
X345912Y121915D01*
X345917Y121978D01*
X345924Y122034D01*
X345930Y122088D01*
X345937Y122133D01*
X345945Y122171D01*
X345950Y122207D01*
X345955Y122235D01*
X345960Y122258D01*
X345965Y122273D01*
X345968Y122283D01*
Y122286D01*
X345996Y122387D01*
X346013Y122436D01*
X346029Y122479D01*
X346044Y122522D01*
X346062Y122560D01*
X346077Y122598D01*
X346092Y122631D01*
X346107Y122659D01*
X346123Y122687D01*
X346135Y122710D01*
X346146Y122728D01*
X346153Y122743D01*
X346161Y122756D01*
X346163Y122761D01*
X346166Y122763D01*
X346217Y122832D01*
X346270Y122893D01*
X346323Y122943D01*
X346374Y122987D01*
X346420Y123020D01*
X346440Y123032D01*
X346455Y123043D01*
X346471Y123053D01*
X346481Y123058D01*
X346486Y123063D01*
X346488D01*
X346562Y123098D01*
X346641Y123124D01*
X346717Y123142D01*
X346786Y123154D01*
X346819Y123159D01*
X346849Y123162D01*
X346875Y123165D01*
X346897D01*
X346915Y123167D01*
X346940D01*
X347004Y123165D01*
D02*
G37*
%LPC*%
G36*
X5236Y310409D02*
X4949D01*
X4855D01*
X4766Y310405D01*
X4684Y310397D01*
X4611Y310389D01*
X4537Y310381D01*
X4475Y310370D01*
X4416Y310358D01*
X4366Y310346D01*
X4319Y310335D01*
X4280Y310323D01*
X4245Y310311D01*
X4218Y310304D01*
X4195Y310296D01*
X4179Y310288D01*
X4171Y310284D01*
X4168D01*
X4105Y310249D01*
X4043Y310214D01*
X3938Y310133D01*
X3888Y310090D01*
X3845Y310047D01*
X3802Y310004D01*
X3767Y309962D01*
X3732Y309923D01*
X3705Y309884D01*
X3682Y309849D01*
X3658Y309822D01*
X3643Y309799D01*
X3631Y309779D01*
X3627Y309767D01*
X3623Y309764D01*
X3589Y309697D01*
X3557Y309627D01*
X3530Y309561D01*
X3511Y309492D01*
X3472Y309355D01*
X3460Y309289D01*
X3449Y309231D01*
X3441Y309173D01*
X3437Y309122D01*
X3433Y309076D01*
X3429Y309037D01*
X3425Y309002D01*
Y308959D01*
X3429Y308877D01*
X3433Y308800D01*
X3445Y308726D01*
X3456Y308660D01*
X3476Y308598D01*
X3491Y308539D01*
X3511Y308489D01*
X3530Y308442D01*
X3550Y308403D01*
X3569Y308368D01*
X3589Y308337D01*
X3604Y308310D01*
X3616Y308291D01*
X3627Y308279D01*
X3631Y308271D01*
X3635Y308267D01*
X3674Y308225D01*
X3717Y308190D01*
X3760Y308158D01*
X3806Y308131D01*
X3849Y308108D01*
X3892Y308088D01*
X3973Y308061D01*
X4047Y308042D01*
X4078Y308038D01*
X4105Y308034D01*
X4125Y308030D01*
X4140D01*
X4152D01*
X4156D01*
X4230Y308034D01*
X4300Y308046D01*
X4366Y308065D01*
X4420Y308085D01*
X4467Y308104D01*
X4498Y308123D01*
X4521Y308135D01*
X4529Y308139D01*
X4587Y308182D01*
X4638Y308232D01*
X4681Y308283D01*
X4719Y308333D01*
X4746Y308376D01*
X4766Y308415D01*
X4778Y308438D01*
X4782Y308442D01*
Y308446D01*
X4797Y308489D01*
X4813Y308535D01*
X4828Y308586D01*
X4844Y308636D01*
X4871Y308753D01*
X4894Y308866D01*
X4906Y308916D01*
X4914Y308967D01*
X4921Y309014D01*
X4929Y309052D01*
X4933Y309083D01*
X4937Y309111D01*
X4941Y309126D01*
Y309130D01*
X4964Y309286D01*
X4988Y309429D01*
X5015Y309565D01*
X5038Y309690D01*
X5061Y309802D01*
X5088Y309907D01*
X5112Y310004D01*
X5135Y310090D01*
X5155Y310164D01*
X5174Y310230D01*
X5193Y310284D01*
X5209Y310327D01*
X5221Y310362D01*
X5228Y310389D01*
X5236Y310405D01*
Y310409D01*
D02*
G37*
G36*
X5310Y298315D02*
X5291D01*
X5275D01*
X5263D01*
X5256D01*
X5252D01*
X5088Y298311D01*
X4933Y298299D01*
X4789Y298280D01*
X4657Y298253D01*
X4537Y298225D01*
X4424Y298190D01*
X4323Y298155D01*
X4234Y298120D01*
X4156Y298085D01*
X4086Y298050D01*
X4031Y298015D01*
X3985Y297988D01*
X3946Y297961D01*
X3919Y297942D01*
X3903Y297930D01*
X3899Y297926D01*
X3822Y297852D01*
X3752Y297775D01*
X3693Y297693D01*
X3643Y297611D01*
X3600Y297530D01*
X3565Y297452D01*
X3534Y297374D01*
X3511Y297297D01*
X3495Y297227D01*
X3480Y297164D01*
X3472Y297106D01*
X3464Y297056D01*
X3460Y297017D01*
X3456Y296986D01*
Y296959D01*
X3460Y296850D01*
X3476Y296749D01*
X3495Y296651D01*
X3526Y296558D01*
X3557Y296473D01*
X3596Y296391D01*
X3635Y296317D01*
X3678Y296251D01*
X3717Y296189D01*
X3756Y296138D01*
X3794Y296092D01*
X3826Y296053D01*
X3857Y296022D01*
X3876Y296003D01*
X3892Y295987D01*
X3896Y295983D01*
X3985Y295917D01*
X4082Y295855D01*
X4183Y295804D01*
X4292Y295762D01*
X4401Y295723D01*
X4513Y295692D01*
X4622Y295668D01*
X4727Y295645D01*
X4828Y295629D01*
X4925Y295618D01*
X5007Y295610D01*
X5081Y295606D01*
X5143Y295602D01*
X5170Y295598D01*
X5190D01*
X5205D01*
X5217D01*
X5225D01*
X5228D01*
X5388Y295602D01*
X5539Y295614D01*
X5679Y295633D01*
X5811Y295660D01*
X5928Y295688D01*
X6037Y295719D01*
X6134Y295754D01*
X6223Y295793D01*
X6301Y295828D01*
X6367Y295863D01*
X6425Y295894D01*
X6472Y295925D01*
X6507Y295948D01*
X6534Y295968D01*
X6550Y295979D01*
X6554Y295983D01*
X6631Y296057D01*
X6697Y296138D01*
X6756Y296216D01*
X6806Y296298D01*
X6849Y296383D01*
X6884Y296461D01*
X6915Y296543D01*
X6938Y296616D01*
X6958Y296686D01*
X6970Y296752D01*
X6981Y296811D01*
X6985Y296861D01*
X6989Y296900D01*
X6993Y296931D01*
Y296959D01*
X6989Y297063D01*
X6973Y297164D01*
X6954Y297262D01*
X6923Y297351D01*
X6892Y297437D01*
X6853Y297518D01*
X6814Y297588D01*
X6771Y297658D01*
X6729Y297716D01*
X6690Y297771D01*
X6651Y297813D01*
X6620Y297852D01*
X6593Y297883D01*
X6569Y297903D01*
X6554Y297918D01*
X6550Y297922D01*
X6464Y297992D01*
X6367Y298050D01*
X6266Y298105D01*
X6161Y298148D01*
X6052Y298186D01*
X5947Y298218D01*
X5839Y298245D01*
X5738Y298264D01*
X5637Y298284D01*
X5547Y298295D01*
X5465Y298303D01*
X5392Y298307D01*
X5333Y298311D01*
X5310Y298315D01*
D02*
G37*
G36*
X5326Y286411D02*
X5306D01*
X5291D01*
X5279D01*
X5271D01*
X5267D01*
X5100Y286407D01*
X4941Y286396D01*
X4797Y286376D01*
X4661Y286353D01*
X4537Y286326D01*
X4424Y286295D01*
X4323Y286260D01*
X4234Y286225D01*
X4152Y286190D01*
X4086Y286155D01*
X4028Y286124D01*
X3981Y286096D01*
X3942Y286073D01*
X3915Y286054D01*
X3899Y286042D01*
X3896Y286038D01*
X3818Y285968D01*
X3752Y285894D01*
X3693Y285821D01*
X3643Y285743D01*
X3600Y285669D01*
X3565Y285595D01*
X3534Y285521D01*
X3511Y285455D01*
X3491Y285389D01*
X3480Y285331D01*
X3468Y285280D01*
X3464Y285234D01*
X3460Y285199D01*
X3456Y285172D01*
Y285148D01*
X3460Y285055D01*
X3476Y284962D01*
X3495Y284876D01*
X3522Y284795D01*
X3553Y284717D01*
X3592Y284647D01*
X3627Y284581D01*
X3670Y284519D01*
X3709Y284464D01*
X3748Y284414D01*
X3783Y284375D01*
X3814Y284340D01*
X3841Y284309D01*
X3860Y284289D01*
X3876Y284278D01*
X3880Y284274D01*
X3965Y284212D01*
X4059Y284153D01*
X4160Y284107D01*
X4268Y284064D01*
X4377Y284029D01*
X4486Y284002D01*
X4595Y283979D01*
X4700Y283959D01*
X4801Y283944D01*
X4894Y283932D01*
X4980Y283924D01*
X5054Y283916D01*
X5116D01*
X5143Y283913D01*
X5162D01*
X5178D01*
X5190D01*
X5197D01*
X5201D01*
X5365Y283916D01*
X5516Y283928D01*
X5656Y283948D01*
X5788Y283975D01*
X5908Y284002D01*
X6021Y284033D01*
X6122Y284068D01*
X6212Y284107D01*
X6293Y284142D01*
X6363Y284177D01*
X6421Y284208D01*
X6472Y284239D01*
X6507Y284262D01*
X6534Y284282D01*
X6554Y284293D01*
X6557Y284297D01*
X6639Y284371D01*
X6713Y284445D01*
X6775Y284523D01*
X6830Y284597D01*
X6876Y284674D01*
X6911Y284748D01*
X6942Y284818D01*
X6970Y284884D01*
X6989Y284946D01*
X7004Y285005D01*
X7012Y285055D01*
X7020Y285098D01*
X7024Y285133D01*
X7028Y285160D01*
Y285183D01*
X7024Y285277D01*
X7008Y285366D01*
X6989Y285448D01*
X6958Y285529D01*
X6927Y285607D01*
X6888Y285677D01*
X6849Y285743D01*
X6810Y285801D01*
X6767Y285856D01*
X6729Y285906D01*
X6690Y285949D01*
X6659Y285980D01*
X6628Y286011D01*
X6608Y286031D01*
X6593Y286042D01*
X6589Y286046D01*
X6503Y286112D01*
X6406Y286166D01*
X6305Y286217D01*
X6196Y286256D01*
X6087Y286291D01*
X5979Y286322D01*
X5870Y286345D01*
X5765Y286365D01*
X5664Y286380D01*
X5570Y286392D01*
X5485Y286400D01*
X5411Y286407D01*
X5353D01*
X5326Y286411D01*
D02*
G37*
G36*
X5310Y281484D02*
X5291D01*
X5275D01*
X5263D01*
X5256D01*
X5252D01*
X5088Y281480D01*
X4933Y281468D01*
X4789Y281449D01*
X4657Y281421D01*
X4537Y281394D01*
X4424Y281359D01*
X4323Y281324D01*
X4234Y281289D01*
X4156Y281254D01*
X4086Y281219D01*
X4031Y281184D01*
X3985Y281157D01*
X3946Y281130D01*
X3919Y281110D01*
X3903Y281099D01*
X3899Y281095D01*
X3822Y281021D01*
X3752Y280943D01*
X3693Y280862D01*
X3643Y280780D01*
X3600Y280699D01*
X3565Y280621D01*
X3534Y280543D01*
X3511Y280465D01*
X3495Y280396D01*
X3480Y280333D01*
X3472Y280275D01*
X3464Y280224D01*
X3460Y280186D01*
X3456Y280154D01*
Y280127D01*
X3460Y280019D01*
X3476Y279918D01*
X3495Y279820D01*
X3526Y279727D01*
X3557Y279642D01*
X3596Y279560D01*
X3635Y279486D01*
X3678Y279420D01*
X3717Y279358D01*
X3756Y279307D01*
X3794Y279261D01*
X3826Y279222D01*
X3857Y279191D01*
X3876Y279171D01*
X3892Y279156D01*
X3896Y279152D01*
X3985Y279086D01*
X4082Y279024D01*
X4183Y278973D01*
X4292Y278930D01*
X4401Y278892D01*
X4513Y278860D01*
X4622Y278837D01*
X4727Y278814D01*
X4828Y278798D01*
X4925Y278787D01*
X5007Y278779D01*
X5081Y278775D01*
X5143Y278771D01*
X5170Y278767D01*
X5190D01*
X5205D01*
X5217D01*
X5225D01*
X5228D01*
X5388Y278771D01*
X5539Y278783D01*
X5679Y278802D01*
X5811Y278829D01*
X5928Y278857D01*
X6037Y278888D01*
X6134Y278923D01*
X6223Y278962D01*
X6301Y278996D01*
X6367Y279031D01*
X6425Y279062D01*
X6472Y279094D01*
X6507Y279117D01*
X6534Y279136D01*
X6550Y279148D01*
X6554Y279152D01*
X6631Y279226D01*
X6697Y279307D01*
X6756Y279385D01*
X6806Y279467D01*
X6849Y279552D01*
X6884Y279630D01*
X6915Y279711D01*
X6938Y279785D01*
X6958Y279855D01*
X6970Y279921D01*
X6981Y279980D01*
X6985Y280030D01*
X6989Y280069D01*
X6993Y280100D01*
Y280127D01*
X6989Y280232D01*
X6973Y280333D01*
X6954Y280431D01*
X6923Y280520D01*
X6892Y280605D01*
X6853Y280687D01*
X6814Y280757D01*
X6771Y280827D01*
X6729Y280885D01*
X6690Y280940D01*
X6651Y280982D01*
X6620Y281021D01*
X6593Y281052D01*
X6569Y281072D01*
X6554Y281087D01*
X6550Y281091D01*
X6464Y281161D01*
X6367Y281219D01*
X6266Y281274D01*
X6161Y281317D01*
X6052Y281355D01*
X5947Y281387D01*
X5839Y281414D01*
X5738Y281433D01*
X5637Y281453D01*
X5547Y281464D01*
X5465Y281472D01*
X5392Y281476D01*
X5333Y281480D01*
X5310Y281484D01*
D02*
G37*
G36*
X363570Y121115D02*
X363567D01*
Y120970D01*
Y120922D01*
X363570Y120878D01*
X363572Y120835D01*
X363577Y120797D01*
X363583Y120762D01*
X363588Y120731D01*
X363593Y120701D01*
X363598Y120675D01*
X363605Y120653D01*
X363610Y120632D01*
X363616Y120614D01*
X363621Y120602D01*
X363626Y120591D01*
X363628Y120581D01*
X363631Y120579D01*
Y120576D01*
X363666Y120515D01*
X363707Y120462D01*
X363750Y120414D01*
X363793Y120376D01*
X363831Y120345D01*
X363849Y120332D01*
X363865Y120322D01*
X363875Y120315D01*
X363885Y120310D01*
X363890Y120304D01*
X363893D01*
X363961Y120272D01*
X364030Y120246D01*
X364098Y120231D01*
X364159Y120218D01*
X364190Y120213D01*
X364215Y120211D01*
X364238Y120208D01*
X364258D01*
X364273Y120205D01*
X364337D01*
X364378Y120211D01*
X364413Y120216D01*
X364446Y120221D01*
X364479Y120231D01*
X364507Y120238D01*
X364533Y120249D01*
X364555Y120259D01*
X364576Y120266D01*
X364594Y120276D01*
X364609Y120287D01*
X364621Y120294D01*
X364632Y120299D01*
X364639Y120304D01*
X364642Y120310D01*
X364644D01*
X364665Y120330D01*
X364682Y120350D01*
X364713Y120393D01*
X364733Y120439D01*
X364746Y120480D01*
X364756Y120515D01*
X364759Y120546D01*
X364761Y120556D01*
Y120564D01*
Y120569D01*
Y120571D01*
X364759Y120609D01*
X364753Y120645D01*
X364743Y120675D01*
X364733Y120703D01*
X364726Y120726D01*
X364715Y120744D01*
X364710Y120757D01*
X364708Y120759D01*
X364685Y120790D01*
X364662Y120815D01*
X364634Y120835D01*
X364611Y120853D01*
X364588Y120868D01*
X364571Y120878D01*
X364558Y120884D01*
X364553Y120886D01*
X364533Y120894D01*
X364510Y120901D01*
X364456Y120917D01*
X364400Y120929D01*
X364342Y120942D01*
X364291Y120952D01*
X364268Y120955D01*
X364248Y120960D01*
X364233Y120962D01*
X364220D01*
X364212Y120965D01*
X364210D01*
X364131Y120978D01*
X364060Y120988D01*
X363992Y121000D01*
X363931Y121013D01*
X363872Y121026D01*
X363819Y121039D01*
X363770Y121051D01*
X363727Y121064D01*
X363692Y121074D01*
X363659Y121084D01*
X363631Y121092D01*
X363608Y121100D01*
X363590Y121107D01*
X363577Y121110D01*
X363570Y121115D01*
D02*
G37*
G36*
X359389Y121999D02*
X359364D01*
X359308Y121996D01*
X359257Y121988D01*
X359206Y121978D01*
X359160Y121963D01*
X359117Y121945D01*
X359077Y121927D01*
X359041Y121905D01*
X359008Y121884D01*
X358978Y121864D01*
X358952Y121844D01*
X358929Y121823D01*
X358909Y121806D01*
X358896Y121790D01*
X358884Y121780D01*
X358879Y121773D01*
X358876Y121770D01*
X358853Y121742D01*
X358835Y121709D01*
X358800Y121641D01*
X358774Y121567D01*
X358754Y121496D01*
X358746Y121463D01*
X358741Y121430D01*
X358736Y121402D01*
X358731Y121379D01*
X358729Y121359D01*
Y121343D01*
X358726Y121333D01*
Y121331D01*
X360024D01*
X360019Y121386D01*
X360011Y121437D01*
X359999Y121488D01*
X359986Y121534D01*
X359968Y121577D01*
X359953Y121618D01*
X359935Y121653D01*
X359915Y121686D01*
X359897Y121717D01*
X359879Y121742D01*
X359864Y121765D01*
X359849Y121783D01*
X359839Y121798D01*
X359828Y121808D01*
X359823Y121813D01*
X359821Y121816D01*
X359785Y121849D01*
X359747Y121877D01*
X359709Y121900D01*
X359671Y121923D01*
X359633Y121940D01*
X359595Y121953D01*
X359557Y121966D01*
X359524Y121976D01*
X359491Y121983D01*
X359460Y121988D01*
X359432Y121994D01*
X359409Y121996D01*
X359389Y121999D01*
D02*
G37*
G36*
X320568D02*
X320542D01*
X320486Y121996D01*
X320436Y121988D01*
X320385Y121978D01*
X320339Y121963D01*
X320296Y121945D01*
X320255Y121927D01*
X320220Y121905D01*
X320187Y121884D01*
X320156Y121864D01*
X320131Y121844D01*
X320108Y121823D01*
X320088Y121806D01*
X320075Y121790D01*
X320062Y121780D01*
X320057Y121773D01*
X320055Y121770D01*
X320032Y121742D01*
X320014Y121709D01*
X319978Y121641D01*
X319953Y121567D01*
X319933Y121496D01*
X319925Y121463D01*
X319920Y121430D01*
X319915Y121402D01*
X319910Y121379D01*
X319907Y121359D01*
Y121343D01*
X319905Y121333D01*
Y121331D01*
X321203D01*
X321198Y121386D01*
X321190Y121437D01*
X321177Y121488D01*
X321165Y121534D01*
X321147Y121577D01*
X321132Y121618D01*
X321114Y121653D01*
X321093Y121686D01*
X321076Y121717D01*
X321058Y121742D01*
X321043Y121765D01*
X321027Y121783D01*
X321017Y121798D01*
X321007Y121808D01*
X321002Y121813D01*
X320999Y121816D01*
X320964Y121849D01*
X320926Y121877D01*
X320888Y121900D01*
X320850Y121923D01*
X320812Y121940D01*
X320773Y121953D01*
X320735Y121966D01*
X320702Y121976D01*
X320669Y121983D01*
X320639Y121988D01*
X320611Y121994D01*
X320588Y121996D01*
X320568Y121999D01*
D02*
G37*
G36*
X367575Y122776D02*
X366874D01*
X366816Y122773D01*
X366763Y122771D01*
X366714Y122768D01*
X366671Y122766D01*
X366631Y122761D01*
X366595Y122758D01*
X366564Y122753D01*
X366537Y122748D01*
X366514Y122745D01*
X366493Y122740D01*
X366478Y122738D01*
X366465Y122735D01*
X366458Y122733D01*
X366453Y122730D01*
X366450D01*
X366399Y122710D01*
X366356Y122684D01*
X366318Y122656D01*
X366288Y122629D01*
X366262Y122603D01*
X366247Y122583D01*
X366234Y122568D01*
X366232Y122565D01*
Y122563D01*
X366206Y122517D01*
X366186Y122469D01*
X366173Y122423D01*
X366163Y122377D01*
X366158Y122339D01*
X366156Y122324D01*
X366153Y122311D01*
Y122298D01*
Y122291D01*
Y122286D01*
Y122283D01*
X366156Y122222D01*
X366166Y122169D01*
X366179Y122121D01*
X366194Y122080D01*
X366212Y122047D01*
X366224Y122024D01*
X366234Y122009D01*
X366237Y122006D01*
Y122004D01*
X366270Y121966D01*
X366308Y121933D01*
X366349Y121905D01*
X366389Y121882D01*
X366425Y121864D01*
X366453Y121854D01*
X366465Y121849D01*
X366473Y121846D01*
X366478Y121844D01*
X366481D01*
X366506Y121839D01*
X366534Y121831D01*
X366595Y121823D01*
X366661Y121816D01*
X366727Y121813D01*
X366760Y121811D01*
X366788D01*
X366816Y121808D01*
X367575D01*
Y122776D01*
D02*
G37*
G36*
Y121430D02*
X366780D01*
X366727Y121427D01*
X366679Y121425D01*
X366633Y121422D01*
X366590Y121417D01*
X366552Y121412D01*
X366516Y121407D01*
X366486Y121402D01*
X366458Y121397D01*
X366435Y121392D01*
X366415Y121386D01*
X366397Y121381D01*
X366384Y121379D01*
X366374Y121376D01*
X366369Y121374D01*
X366366D01*
X366308Y121351D01*
X366257Y121323D01*
X366214Y121292D01*
X366179Y121262D01*
X366151Y121234D01*
X366130Y121209D01*
X366118Y121194D01*
X366112Y121191D01*
Y121188D01*
X366082Y121138D01*
X366059Y121084D01*
X366041Y121033D01*
X366031Y120985D01*
X366023Y120942D01*
X366021Y120924D01*
Y120909D01*
X366018Y120896D01*
Y120886D01*
Y120881D01*
Y120878D01*
X366021Y120823D01*
X366029Y120772D01*
X366039Y120724D01*
X366049Y120686D01*
X366062Y120653D01*
X366072Y120627D01*
X366079Y120612D01*
X366082Y120609D01*
Y120607D01*
X366107Y120566D01*
X366135Y120531D01*
X366161Y120500D01*
X366186Y120475D01*
X366209Y120454D01*
X366227Y120442D01*
X366239Y120431D01*
X366245Y120429D01*
X366283Y120409D01*
X366326Y120391D01*
X366366Y120376D01*
X366404Y120363D01*
X366440Y120353D01*
X366465Y120348D01*
X366476Y120345D01*
X366483D01*
X366488Y120343D01*
X366491D01*
X366509Y120340D01*
X366526Y120337D01*
X366570Y120335D01*
X366618Y120330D01*
X366664D01*
X366709Y120327D01*
X367575D01*
Y121430D01*
D02*
G37*
G36*
X356973Y121996D02*
X356961D01*
X356912Y121994D01*
X356864Y121986D01*
X356819Y121976D01*
X356775Y121961D01*
X356737Y121945D01*
X356699Y121925D01*
X356666Y121905D01*
X356633Y121884D01*
X356605Y121864D01*
X356580Y121844D01*
X356559Y121823D01*
X356542Y121808D01*
X356526Y121793D01*
X356516Y121783D01*
X356511Y121775D01*
X356509Y121773D01*
X356476Y121727D01*
X356448Y121679D01*
X356422Y121625D01*
X356402Y121569D01*
X356384Y121511D01*
X356369Y121453D01*
X356356Y121397D01*
X356346Y121341D01*
X356339Y121285D01*
X356333Y121237D01*
X356328Y121191D01*
X356326Y121153D01*
X356323Y121120D01*
Y121094D01*
Y121079D01*
Y121077D01*
Y121074D01*
X356326Y120995D01*
X356331Y120922D01*
X356341Y120853D01*
X356351Y120790D01*
X356364Y120731D01*
X356379Y120680D01*
X356397Y120632D01*
X356412Y120589D01*
X356430Y120551D01*
X356448Y120518D01*
X356463Y120492D01*
X356476Y120470D01*
X356486Y120452D01*
X356496Y120439D01*
X356501Y120431D01*
X356504Y120429D01*
X356539Y120393D01*
X356575Y120360D01*
X356610Y120332D01*
X356648Y120310D01*
X356687Y120289D01*
X356722Y120272D01*
X356758Y120259D01*
X356791Y120246D01*
X356824Y120238D01*
X356852Y120231D01*
X356877Y120228D01*
X356900Y120223D01*
X356918D01*
X356930Y120221D01*
X356943D01*
X356991Y120223D01*
X357034Y120231D01*
X357080Y120241D01*
X357121Y120254D01*
X357159Y120272D01*
X357197Y120289D01*
X357230Y120310D01*
X357261Y120330D01*
X357289Y120350D01*
X357314Y120371D01*
X357337Y120388D01*
X357355Y120406D01*
X357367Y120419D01*
X357380Y120429D01*
X357385Y120437D01*
X357388Y120439D01*
X357421Y120482D01*
X357449Y120531D01*
X357474Y120584D01*
X357494Y120637D01*
X357512Y120693D01*
X357527Y120746D01*
X357540Y120802D01*
X357550Y120856D01*
X357558Y120906D01*
X357563Y120955D01*
X357568Y120998D01*
X357570Y121033D01*
Y121064D01*
X357573Y121087D01*
Y121102D01*
Y121107D01*
X357570Y121191D01*
X357565Y121267D01*
X357558Y121341D01*
X357545Y121407D01*
X357532Y121468D01*
X357517Y121521D01*
X357502Y121572D01*
X357484Y121615D01*
X357469Y121656D01*
X357454Y121689D01*
X357438Y121717D01*
X357426Y121740D01*
X357413Y121757D01*
X357405Y121770D01*
X357400Y121778D01*
X357398Y121780D01*
X357365Y121818D01*
X357329Y121851D01*
X357291Y121879D01*
X357255Y121905D01*
X357220Y121925D01*
X357182Y121943D01*
X357146Y121958D01*
X357113Y121968D01*
X357083Y121978D01*
X357052Y121986D01*
X357027Y121988D01*
X357004Y121994D01*
X356986D01*
X356973Y121996D01*
D02*
G37*
G36*
X353169D02*
X353156D01*
X353102Y121994D01*
X353052Y121986D01*
X353004Y121976D01*
X352958Y121961D01*
X352915Y121945D01*
X352874Y121925D01*
X352838Y121905D01*
X352805Y121884D01*
X352775Y121864D01*
X352747Y121844D01*
X352724Y121823D01*
X352706Y121808D01*
X352691Y121793D01*
X352678Y121783D01*
X352673Y121775D01*
X352671Y121773D01*
X352635Y121729D01*
X352605Y121681D01*
X352579Y121630D01*
X352556Y121577D01*
X352536Y121524D01*
X352521Y121470D01*
X352508Y121417D01*
X352498Y121364D01*
X352490Y121315D01*
X352483Y121270D01*
X352478Y121229D01*
X352475Y121194D01*
X352473Y121163D01*
Y121140D01*
Y121127D01*
Y121122D01*
X352475Y121039D01*
X352480Y120962D01*
X352490Y120889D01*
X352503Y120823D01*
X352518Y120762D01*
X352534Y120706D01*
X352551Y120655D01*
X352569Y120612D01*
X352589Y120571D01*
X352607Y120536D01*
X352622Y120508D01*
X352638Y120485D01*
X352650Y120464D01*
X352661Y120452D01*
X352666Y120444D01*
X352668Y120442D01*
X352706Y120403D01*
X352744Y120368D01*
X352785Y120340D01*
X352826Y120315D01*
X352869Y120292D01*
X352910Y120274D01*
X352948Y120261D01*
X352986Y120249D01*
X353021Y120238D01*
X353054Y120233D01*
X353082Y120228D01*
X353108Y120223D01*
X353128D01*
X353143Y120221D01*
X353156D01*
X353209Y120223D01*
X353263Y120231D01*
X353311Y120241D01*
X353357Y120256D01*
X353400Y120272D01*
X353440Y120292D01*
X353479Y120310D01*
X353512Y120332D01*
X353542Y120353D01*
X353567Y120373D01*
X353593Y120391D01*
X353610Y120406D01*
X353626Y120421D01*
X353636Y120431D01*
X353644Y120439D01*
X353646Y120442D01*
X353679Y120485D01*
X353710Y120533D01*
X353735Y120586D01*
X353758Y120640D01*
X353776Y120693D01*
X353791Y120749D01*
X353804Y120805D01*
X353814Y120858D01*
X353824Y120909D01*
X353829Y120955D01*
X353834Y120998D01*
X353837Y121033D01*
Y121064D01*
X353839Y121087D01*
Y121102D01*
Y121107D01*
X353837Y121188D01*
X353831Y121265D01*
X353821Y121336D01*
X353809Y121399D01*
X353793Y121460D01*
X353778Y121516D01*
X353760Y121564D01*
X353743Y121610D01*
X353725Y121648D01*
X353707Y121681D01*
X353692Y121709D01*
X353677Y121735D01*
X353664Y121752D01*
X353654Y121765D01*
X353649Y121773D01*
X353646Y121775D01*
X353608Y121813D01*
X353570Y121849D01*
X353529Y121877D01*
X353486Y121902D01*
X353445Y121925D01*
X353405Y121943D01*
X353364Y121958D01*
X353329Y121968D01*
X353293Y121978D01*
X353260Y121983D01*
X353229Y121988D01*
X353204Y121994D01*
X353184D01*
X353169Y121996D01*
D02*
G37*
G36*
X346958Y122842D02*
X346946D01*
X346895Y122839D01*
X346847Y122832D01*
X346801Y122819D01*
X346758Y122801D01*
X346714Y122781D01*
X346676Y122758D01*
X346643Y122735D01*
X346610Y122712D01*
X346582Y122687D01*
X346557Y122664D01*
X346534Y122641D01*
X346516Y122621D01*
X346501Y122606D01*
X346491Y122591D01*
X346486Y122583D01*
X346483Y122580D01*
X346465Y122555D01*
X346450Y122527D01*
X346435Y122494D01*
X346422Y122461D01*
X346397Y122387D01*
X346377Y122306D01*
X346359Y122222D01*
X346344Y122133D01*
X346331Y122044D01*
X346321Y121958D01*
X346313Y121872D01*
X346308Y121793D01*
X346303Y121722D01*
Y121686D01*
X346300Y121656D01*
Y121628D01*
X346298Y121602D01*
Y121582D01*
Y121564D01*
Y121549D01*
Y121539D01*
Y121531D01*
Y121529D01*
Y121458D01*
X346300Y121386D01*
X346303Y121320D01*
X346306Y121257D01*
X346311Y121196D01*
X346316Y121140D01*
X346321Y121084D01*
X346326Y121033D01*
X346333Y120983D01*
X346341Y120937D01*
X346349Y120891D01*
X346356Y120851D01*
X346374Y120774D01*
X346389Y120708D01*
X346407Y120653D01*
X346425Y120604D01*
X346440Y120564D01*
X346455Y120533D01*
X346465Y120510D01*
X346476Y120492D01*
X346481Y120482D01*
X346483Y120480D01*
X346519Y120434D01*
X346557Y120393D01*
X346595Y120358D01*
X346633Y120327D01*
X346671Y120304D01*
X346709Y120282D01*
X346745Y120264D01*
X346781Y120251D01*
X346814Y120241D01*
X346844Y120231D01*
X346872Y120226D01*
X346895Y120223D01*
X346915Y120221D01*
X346928Y120218D01*
X346940D01*
X346991Y120221D01*
X347037Y120228D01*
X347083Y120241D01*
X347126Y120259D01*
X347167Y120279D01*
X347205Y120299D01*
X347240Y120325D01*
X347271Y120348D01*
X347299Y120373D01*
X347324Y120396D01*
X347347Y120416D01*
X347365Y120437D01*
X347380Y120454D01*
X347390Y120467D01*
X347395Y120475D01*
X347398Y120477D01*
X347416Y120503D01*
X347431Y120533D01*
X347443Y120564D01*
X347459Y120597D01*
X347481Y120670D01*
X347504Y120751D01*
X347522Y120838D01*
X347535Y120924D01*
X347548Y121013D01*
X347558Y121102D01*
X347565Y121186D01*
X347570Y121265D01*
X347575Y121338D01*
Y121371D01*
X347578Y121402D01*
Y121430D01*
Y121455D01*
X347581Y121475D01*
Y121493D01*
Y121508D01*
Y121521D01*
Y121526D01*
Y121529D01*
Y121602D01*
X347578Y121671D01*
X347575Y121737D01*
X347573Y121803D01*
X347568Y121864D01*
X347563Y121923D01*
X347555Y121978D01*
X347550Y122032D01*
X347542Y122083D01*
X347535Y122131D01*
X347525Y122177D01*
X347517Y122217D01*
X347499Y122296D01*
X347479Y122367D01*
X347461Y122425D01*
X347443Y122476D01*
X347426Y122519D01*
X347410Y122552D01*
X347398Y122578D01*
X347388Y122596D01*
X347383Y122608D01*
X347380Y122611D01*
X347349Y122651D01*
X347314Y122687D01*
X347278Y122718D01*
X347243Y122745D01*
X347207Y122766D01*
X347172Y122786D01*
X347136Y122801D01*
X347100Y122814D01*
X347070Y122822D01*
X347040Y122829D01*
X347014Y122834D01*
X346991Y122839D01*
X346971D01*
X346958Y122842D01*
D02*
G37*
%LPD*%
M02*
