G04*
G04 #@! TF.GenerationSoftware,Altium Limited,Altium Designer,24.5.1 (21)*
G04*
G04 Layer_Color=0*
%FSLAX44Y44*%
%MOMM*%
G71*
G04*
G04 #@! TF.SameCoordinates,1EF2566E-269B-4A58-AF15-B59DA95DBDD1*
G04*
G04*
G04 #@! TF.FilePolarity,Positive*
G04*
G01*
G75*
%ADD15C,0.1000*%
%ADD237C,0.0500*%
D15*
X640500Y533500D02*
X640402Y536064D01*
X640107Y538614D01*
X639619Y541133D01*
X638939Y543608D01*
X638071Y546023D01*
X637022Y548365D01*
X635796Y550619D01*
X634401Y552773D01*
X632845Y554814D01*
X631138Y556730D01*
X629288Y558510D01*
X627309Y560142D01*
X625210Y561619D01*
X623004Y562930D01*
X620704Y564069D01*
X618324Y565028D01*
X615877Y565802D01*
X613378Y566387D01*
X610842Y566779D01*
X608283Y566975D01*
X605717D01*
X603158Y566779D01*
X600622Y566387D01*
X598123Y565802D01*
X595676Y565028D01*
X593296Y564069D01*
X590996Y562930D01*
X588791Y561619D01*
X586692Y560142D01*
X584712Y558509D01*
X582863Y556730D01*
X581155Y554814D01*
X579599Y552773D01*
X578204Y550619D01*
X576978Y548365D01*
X575929Y546023D01*
X575061Y543608D01*
X574381Y541133D01*
X573893Y538614D01*
X573598Y536064D01*
X573500Y533500D01*
Y498500D02*
X573598Y495936D01*
X573893Y493386D01*
X574381Y490867D01*
X575061Y488392D01*
X575929Y485977D01*
X576978Y483635D01*
X578204Y481381D01*
X579599Y479227D01*
X581155Y477186D01*
X582863Y475270D01*
X584712Y473490D01*
X586692Y471858D01*
X588791Y470381D01*
X590996Y469070D01*
X593296Y467931D01*
X595676Y466972D01*
X598123Y466198D01*
X600622Y465613D01*
X603158Y465221D01*
X605717Y465025D01*
X608283D01*
X610842Y465221D01*
X613378Y465613D01*
X615877Y466198D01*
X618324Y466972D01*
X620704Y467931D01*
X623004Y469070D01*
X625210Y470381D01*
X627309Y471858D01*
X629289Y473490D01*
X631138Y475270D01*
X632845Y477186D01*
X634401Y479227D01*
X635796Y481381D01*
X637022Y483635D01*
X638071Y485977D01*
X638939Y488392D01*
X639619Y490867D01*
X640107Y493386D01*
X640402Y495936D01*
X640500Y498500D01*
X607500Y309500D02*
X604936Y309402D01*
X602386Y309107D01*
X599867Y308619D01*
X597392Y307939D01*
X594977Y307071D01*
X592635Y306022D01*
X590381Y304796D01*
X588227Y303401D01*
X586186Y301845D01*
X584270Y300138D01*
X582491Y298288D01*
X580858Y296309D01*
X579381Y294209D01*
X578070Y292004D01*
X576931Y289704D01*
X575972Y287324D01*
X575198Y284877D01*
X574613Y282378D01*
X574221Y279842D01*
X574025Y277283D01*
Y274717D01*
X574221Y272158D01*
X574613Y269622D01*
X575198Y267123D01*
X575972Y264676D01*
X576931Y262296D01*
X578070Y259996D01*
X579381Y257791D01*
X580858Y255692D01*
X582491Y253712D01*
X584270Y251863D01*
X586186Y250155D01*
X588227Y248599D01*
X590381Y247204D01*
X592635Y245979D01*
X594977Y244929D01*
X597392Y244061D01*
X599867Y243381D01*
X602386Y242893D01*
X604936Y242598D01*
X607500Y242500D01*
X632500D02*
X635065Y242598D01*
X637614Y242893D01*
X640133Y243381D01*
X642608Y244061D01*
X645023Y244929D01*
X647365Y245979D01*
X649619Y247204D01*
X651773Y248599D01*
X653814Y250155D01*
X655730Y251863D01*
X657510Y253712D01*
X659142Y255692D01*
X660619Y257791D01*
X661930Y259996D01*
X663069Y262296D01*
X664028Y264677D01*
X664803Y267123D01*
X665387Y269622D01*
X665779Y272158D01*
X665975Y274717D01*
Y277283D01*
X665779Y279842D01*
X665387Y282378D01*
X664802Y284877D01*
X664028Y287324D01*
X663069Y289704D01*
X661930Y292004D01*
X660619Y294210D01*
X659142Y296309D01*
X657509Y298289D01*
X655730Y300138D01*
X653814Y301845D01*
X651773Y303401D01*
X649619Y304796D01*
X647364Y306022D01*
X645023Y307071D01*
X642607Y307939D01*
X640133Y308619D01*
X637613Y309107D01*
X635064Y309402D01*
X632500Y309500D01*
X573500Y498500D02*
Y533500D01*
X640500Y498500D02*
Y533500D01*
X607500Y242500D02*
X632500D01*
X607500Y309500D02*
X632500D01*
D237*
X523500Y351000D02*
X523094Y353435D01*
X521919Y355607D01*
X520102Y357279D01*
X517841Y358270D01*
X515381Y358474D01*
X512987Y357868D01*
X510920Y356518D01*
X509404Y354570D01*
X508602Y352234D01*
Y349766D01*
X509404Y347430D01*
X510920Y345482D01*
X512987Y344132D01*
X515381Y343526D01*
X517841Y343730D01*
X520102Y344721D01*
X521919Y346393D01*
X523094Y348565D01*
X523500Y351000D01*
X129500Y225000D02*
X129389Y227519D01*
X129055Y230018D01*
X128502Y232478D01*
X127733Y234879D01*
X126755Y237203D01*
X125576Y239432D01*
X124204Y241547D01*
X122651Y243533D01*
X120928Y245374D01*
X119050Y247056D01*
X117030Y248565D01*
X114885Y249889D01*
X112630Y251019D01*
X110285Y251945D01*
X107868Y252660D01*
X105396Y253159D01*
X102890Y253437D01*
X100370Y253493D01*
X97854Y253326D01*
X95363Y252937D01*
X92916Y252329D01*
X90532Y251508D01*
X88230Y250479D01*
X86028Y249251D01*
X83944Y247833D01*
X81992Y246236D01*
X80190Y244473D01*
X78550Y242557D01*
X77087Y240505D01*
X75810Y238330D01*
X74730Y236052D01*
X73856Y233687D01*
X73195Y231254D01*
X72751Y228772D01*
X72528Y226261D01*
Y223739D01*
X72751Y221228D01*
X73195Y218746D01*
X73856Y216313D01*
X74730Y213948D01*
X75810Y211670D01*
X77087Y209495D01*
X78550Y207443D01*
X80190Y205527D01*
X81992Y203764D01*
X83944Y202167D01*
X86028Y200749D01*
X88230Y199521D01*
X90532Y198492D01*
X92916Y197671D01*
X95363Y197063D01*
X97854Y196674D01*
X100370Y196507D01*
X102890Y196563D01*
X105396Y196841D01*
X107868Y197340D01*
X110285Y198055D01*
X112630Y198981D01*
X114884Y200111D01*
X117030Y201435D01*
X119050Y202944D01*
X120928Y204626D01*
X122651Y206467D01*
X124204Y208453D01*
X125576Y210568D01*
X126755Y212797D01*
X127733Y215121D01*
X128502Y217522D01*
X129055Y219982D01*
X129389Y222481D01*
X129500Y225000D01*
X371500Y467000D02*
X371389Y469519D01*
X371055Y472018D01*
X370502Y474478D01*
X369733Y476879D01*
X368755Y479203D01*
X367576Y481432D01*
X366204Y483547D01*
X364651Y485533D01*
X362928Y487374D01*
X361050Y489056D01*
X359030Y490565D01*
X356884Y491889D01*
X354630Y493019D01*
X352285Y493945D01*
X349868Y494660D01*
X347396Y495159D01*
X344890Y495437D01*
X342370Y495493D01*
X339854Y495326D01*
X337363Y494937D01*
X334916Y494329D01*
X332532Y493508D01*
X330230Y492479D01*
X328028Y491251D01*
X325944Y489833D01*
X323992Y488236D01*
X322190Y486473D01*
X320550Y484557D01*
X319086Y482505D01*
X317810Y480330D01*
X316730Y478052D01*
X315856Y475687D01*
X315195Y473254D01*
X314751Y470772D01*
X314528Y468261D01*
Y465739D01*
X314751Y463228D01*
X315195Y460746D01*
X315856Y458313D01*
X316730Y455948D01*
X317810Y453670D01*
X319086Y451495D01*
X320550Y449443D01*
X322190Y447527D01*
X323992Y445764D01*
X325943Y444167D01*
X328028Y442749D01*
X330230Y441521D01*
X332532Y440492D01*
X334916Y439671D01*
X337363Y439063D01*
X339854Y438674D01*
X342369Y438507D01*
X344890Y438563D01*
X347396Y438841D01*
X349868Y439340D01*
X352285Y440055D01*
X354630Y440981D01*
X356884Y442111D01*
X359030Y443435D01*
X361050Y444944D01*
X362928Y446626D01*
X364651Y448467D01*
X366204Y450453D01*
X367576Y452568D01*
X368755Y454797D01*
X369733Y457121D01*
X370502Y459522D01*
X371055Y461982D01*
X371389Y464481D01*
X371500Y467000D01*
X90000Y20000D02*
X89686Y22487D01*
X88763Y24818D01*
X87290Y26846D01*
X85358Y28443D01*
X83090Y29511D01*
X80628Y29980D01*
X78126Y29823D01*
X75742Y29048D01*
X73626Y27705D01*
X71910Y25878D01*
X70702Y23681D01*
X70079Y21253D01*
Y18747D01*
X70702Y16319D01*
X71910Y14122D01*
X73626Y12295D01*
X75742Y10952D01*
X78126Y10177D01*
X80628Y10020D01*
X83090Y10489D01*
X85358Y11557D01*
X87290Y13154D01*
X88763Y15182D01*
X89686Y17513D01*
X90000Y20000D01*
X790000Y520000D02*
X789686Y522487D01*
X788763Y524818D01*
X787290Y526846D01*
X785358Y528443D01*
X783090Y529511D01*
X780628Y529980D01*
X778126Y529823D01*
X775742Y529048D01*
X773626Y527705D01*
X771910Y525878D01*
X770702Y523681D01*
X770079Y521253D01*
Y518747D01*
X770702Y516319D01*
X771910Y514122D01*
X773626Y512295D01*
X775742Y510952D01*
X778126Y510177D01*
X780628Y510020D01*
X783090Y510489D01*
X785358Y511557D01*
X787290Y513154D01*
X788763Y515182D01*
X789686Y517513D01*
X790000Y520000D01*
X730000Y20000D02*
X729686Y22487D01*
X728763Y24818D01*
X727290Y26846D01*
X725358Y28443D01*
X723090Y29511D01*
X720628Y29980D01*
X718126Y29823D01*
X715742Y29048D01*
X713626Y27705D01*
X711910Y25878D01*
X710702Y23681D01*
X710079Y21253D01*
Y18747D01*
X710702Y16319D01*
X711910Y14122D01*
X713626Y12295D01*
X715742Y10952D01*
X718126Y10177D01*
X720628Y10020D01*
X723090Y10489D01*
X725358Y11557D01*
X727290Y13154D01*
X728763Y15182D01*
X729686Y17513D01*
X730000Y20000D01*
X794000Y35000D02*
X793890Y37527D01*
X793559Y40036D01*
X793012Y42506D01*
X792251Y44919D01*
X791283Y47256D01*
X790115Y49500D01*
X788755Y51634D01*
X787215Y53641D01*
X785506Y55506D01*
X783641Y57215D01*
X781634Y58755D01*
X779500Y60115D01*
X777256Y61283D01*
X774919Y62251D01*
X772506Y63012D01*
X770036Y63559D01*
X767528Y63890D01*
X765000Y64000D01*
X762473Y63890D01*
X759964Y63559D01*
X757494Y63012D01*
X755081Y62251D01*
X752744Y61283D01*
X750500Y60115D01*
X748366Y58755D01*
X746359Y57215D01*
X744494Y55506D01*
X742785Y53641D01*
X741245Y51634D01*
X739885Y49500D01*
X738717Y47256D01*
X737749Y44919D01*
X736988Y42506D01*
X736441Y40036D01*
X736110Y37527D01*
X736000Y35000D01*
X736110Y32473D01*
X736441Y29964D01*
X736988Y27494D01*
X737749Y25081D01*
X738717Y22744D01*
X739885Y20500D01*
X741245Y18366D01*
X742785Y16359D01*
X744494Y14494D01*
X746359Y12785D01*
X748366Y11245D01*
X750500Y9885D01*
X752744Y8717D01*
X755081Y7749D01*
X757494Y6988D01*
X759964Y6441D01*
X762473Y6110D01*
X765000Y6000D01*
X767528Y6110D01*
X770036Y6441D01*
X772506Y6988D01*
X774919Y7749D01*
X777256Y8717D01*
X779500Y9885D01*
X781634Y11245D01*
X783641Y12785D01*
X785506Y14494D01*
X787215Y16359D01*
X788755Y18366D01*
X790115Y20500D01*
X791283Y22744D01*
X792251Y25081D01*
X793012Y27494D01*
X793559Y29964D01*
X793890Y32473D01*
X794000Y35000D01*
X64000Y565000D02*
X63890Y567528D01*
X63559Y570036D01*
X63012Y572506D01*
X62251Y574919D01*
X61283Y577256D01*
X60115Y579500D01*
X58755Y581634D01*
X57215Y583641D01*
X55506Y585506D01*
X53641Y587215D01*
X51634Y588755D01*
X49500Y590115D01*
X47256Y591283D01*
X44919Y592251D01*
X42506Y593012D01*
X40036Y593559D01*
X37528Y593890D01*
X35000Y594000D01*
X32473Y593890D01*
X29964Y593559D01*
X27494Y593012D01*
X25082Y592251D01*
X22744Y591283D01*
X20500Y590115D01*
X18366Y588755D01*
X16359Y587215D01*
X14494Y585506D01*
X12785Y583641D01*
X11245Y581634D01*
X9885Y579500D01*
X8717Y577256D01*
X7749Y574919D01*
X6988Y572506D01*
X6441Y570036D01*
X6110Y567528D01*
X6000Y565000D01*
X6110Y562472D01*
X6441Y559964D01*
X6988Y557494D01*
X7749Y555081D01*
X8717Y552744D01*
X9885Y550500D01*
X11245Y548366D01*
X12785Y546359D01*
X14494Y544494D01*
X16359Y542785D01*
X18366Y541245D01*
X20500Y539885D01*
X22744Y538717D01*
X25082Y537749D01*
X27494Y536988D01*
X29964Y536441D01*
X32473Y536110D01*
X35000Y536000D01*
X37528Y536110D01*
X40036Y536441D01*
X42506Y536988D01*
X44919Y537749D01*
X47256Y538717D01*
X49500Y539885D01*
X51634Y541245D01*
X53641Y542785D01*
X55506Y544494D01*
X57215Y546359D01*
X58755Y548366D01*
X60115Y550500D01*
X61283Y552744D01*
X62251Y555081D01*
X63012Y557494D01*
X63559Y559964D01*
X63890Y562472D01*
X64000Y565000D01*
Y35000D02*
X63890Y37527D01*
X63559Y40036D01*
X63012Y42506D01*
X62251Y44919D01*
X61283Y47256D01*
X60115Y49500D01*
X58755Y51634D01*
X57215Y53641D01*
X55506Y55506D01*
X53641Y57215D01*
X51634Y58755D01*
X49500Y60115D01*
X47256Y61283D01*
X44919Y62251D01*
X42506Y63012D01*
X40036Y63559D01*
X37528Y63890D01*
X35000Y64000D01*
X32473Y63890D01*
X29964Y63559D01*
X27494Y63012D01*
X25082Y62251D01*
X22744Y61283D01*
X20500Y60115D01*
X18366Y58755D01*
X16359Y57215D01*
X14494Y55506D01*
X12785Y53641D01*
X11245Y51634D01*
X9885Y49500D01*
X8717Y47256D01*
X7749Y44919D01*
X6988Y42506D01*
X6441Y40036D01*
X6110Y37527D01*
X6000Y35000D01*
X6110Y32473D01*
X6441Y29964D01*
X6988Y27494D01*
X7749Y25081D01*
X8717Y22744D01*
X9885Y20500D01*
X11245Y18366D01*
X12785Y16359D01*
X14494Y14494D01*
X16359Y12785D01*
X18366Y11245D01*
X20500Y9885D01*
X22744Y8717D01*
X25082Y7749D01*
X27494Y6988D01*
X29964Y6441D01*
X32473Y6110D01*
X35000Y6000D01*
X37528Y6110D01*
X40036Y6441D01*
X42506Y6988D01*
X44919Y7749D01*
X47256Y8717D01*
X49500Y9885D01*
X51634Y11245D01*
X53641Y12785D01*
X55506Y14494D01*
X57215Y16359D01*
X58755Y18366D01*
X60115Y20500D01*
X61283Y22744D01*
X62251Y25081D01*
X63012Y27494D01*
X63559Y29964D01*
X63890Y32473D01*
X64000Y35000D01*
X794000Y565000D02*
X793890Y567528D01*
X793559Y570036D01*
X793012Y572506D01*
X792251Y574919D01*
X791283Y577256D01*
X790115Y579500D01*
X788755Y581634D01*
X787215Y583641D01*
X785506Y585506D01*
X783641Y587215D01*
X781634Y588755D01*
X779500Y590115D01*
X777256Y591283D01*
X774919Y592251D01*
X772506Y593012D01*
X770036Y593559D01*
X767528Y593890D01*
X765000Y594000D01*
X762473Y593890D01*
X759964Y593559D01*
X757494Y593012D01*
X755081Y592251D01*
X752744Y591283D01*
X750500Y590115D01*
X748366Y588755D01*
X746359Y587215D01*
X744494Y585506D01*
X742785Y583641D01*
X741245Y581634D01*
X739885Y579500D01*
X738717Y577256D01*
X737749Y574919D01*
X736988Y572506D01*
X736441Y570036D01*
X736110Y567528D01*
X736000Y565000D01*
X736110Y562472D01*
X736441Y559964D01*
X736988Y557494D01*
X737749Y555081D01*
X738717Y552744D01*
X739885Y550500D01*
X741245Y548366D01*
X742785Y546359D01*
X744494Y544494D01*
X746359Y542785D01*
X748366Y541245D01*
X750500Y539885D01*
X752744Y538717D01*
X755081Y537749D01*
X757494Y536988D01*
X759964Y536441D01*
X762473Y536110D01*
X765000Y536000D01*
X767528Y536110D01*
X770036Y536441D01*
X772506Y536988D01*
X774919Y537749D01*
X777256Y538717D01*
X779500Y539885D01*
X781634Y541245D01*
X783641Y542785D01*
X785506Y544494D01*
X787215Y546359D01*
X788755Y548366D01*
X790115Y550500D01*
X791283Y552744D01*
X792251Y555081D01*
X793012Y557494D01*
X793559Y559964D01*
X793890Y562472D01*
X794000Y565000D01*
X135500Y382000D02*
Y518000D01*
X-1500D02*
X135500D01*
X-1500Y382000D02*
Y518000D01*
Y382000D02*
X135500D01*
X70000Y450000D02*
X101000D01*
X70000Y419000D02*
Y450000D01*
X39000D02*
X70000D01*
Y481000D01*
X576500Y342000D02*
Y366000D01*
X545500Y342000D02*
Y366000D01*
X576500D01*
X545500Y342000D02*
X576500D01*
X556000Y354000D02*
X566000D01*
X561000Y349000D02*
Y359000D01*
X582000Y369000D02*
Y409000D01*
X542000Y369000D02*
Y409000D01*
Y369000D02*
X582000D01*
X542000Y409000D02*
X582000D01*
X551500Y389000D02*
X572500D01*
X562000Y378500D02*
Y399500D01*
X536000Y333280D02*
Y342780D01*
X531250Y338030D02*
X540750D01*
X541500Y326530D02*
Y349530D01*
X530500Y326530D02*
Y349530D01*
Y326530D02*
X541500D01*
X530500Y349530D02*
X541500D01*
X524500Y333280D02*
Y342780D01*
X519750Y338030D02*
X529250D01*
X530000Y326530D02*
Y349530D01*
X519000Y326530D02*
Y349530D01*
Y326530D02*
X530000D01*
X519000Y349530D02*
X530000D01*
X536000Y359250D02*
Y368750D01*
X531250Y364000D02*
X540750D01*
X530500Y352500D02*
Y375500D01*
X541500Y352500D02*
Y375500D01*
X530500D02*
X541500D01*
X530500Y352500D02*
X541500D01*
X524000Y359250D02*
Y368750D01*
X519250Y364000D02*
X528750D01*
X518500Y352500D02*
Y375500D01*
X529500Y352500D02*
Y375500D01*
X518500D02*
X529500D01*
X518500Y352500D02*
X529500D01*
X529000Y376350D02*
Y379650D01*
X527350Y378000D02*
X530650D01*
X523000Y375000D02*
X535000D01*
X523000Y381000D02*
X535000D01*
X523000Y375000D02*
Y381000D01*
X535000Y375000D02*
Y381000D01*
X521000D02*
X537000D01*
X521000Y389000D02*
X537000D01*
X521000Y381000D02*
Y389000D01*
X537000Y381000D02*
Y389000D01*
X526250Y385000D02*
X531750D01*
X529000Y382250D02*
Y387750D01*
X521000Y397000D02*
X537000D01*
X521000Y389000D02*
X537000D01*
Y397000D01*
X521000Y389000D02*
Y397000D01*
X526250Y393000D02*
X531750D01*
X529000Y390250D02*
Y395750D01*
X545000Y410500D02*
X575000D01*
X545000Y425500D02*
X575000D01*
X545000Y410500D02*
Y425500D01*
X575000Y410500D02*
Y425500D01*
X555250Y418000D02*
X564750D01*
X560000Y413250D02*
Y422750D01*
X382872Y391064D02*
X388372D01*
X385622Y388314D02*
Y393814D01*
X381622Y383064D02*
X389622D01*
X381622Y399064D02*
X389622D01*
Y383064D02*
Y399064D01*
X381622Y383064D02*
Y399064D01*
X255410Y123490D02*
X261410D01*
X258410Y120491D02*
Y126490D01*
X247910Y129490D02*
X268910D01*
X247910Y117491D02*
X268910D01*
Y129490D01*
X247910Y117491D02*
Y129490D01*
X372543Y383168D02*
Y399168D01*
X380543Y383168D02*
Y399168D01*
X372543D02*
X380543D01*
X372543Y383168D02*
X380543D01*
X376543Y388418D02*
Y393918D01*
X373793Y391168D02*
X379293D01*
X561250Y486000D02*
X570750D01*
X566000Y481250D02*
Y490750D01*
X558500Y471000D02*
X573500D01*
X558500Y501000D02*
X573500D01*
Y471000D02*
Y501000D01*
X558500Y471000D02*
Y501000D01*
X534500Y467000D02*
Y503000D01*
X507500Y467000D02*
Y503000D01*
Y467000D02*
X534500D01*
X507500Y503000D02*
X534500D01*
X516000Y485000D02*
X526000D01*
X521000Y480000D02*
Y490000D01*
X548000Y456250D02*
Y465750D01*
X543250Y461000D02*
X552750D01*
X563000Y453500D02*
Y468500D01*
X533000Y453500D02*
Y468500D01*
X563000D01*
X533000Y453500D02*
X563000D01*
X521000Y456250D02*
Y465750D01*
X516250Y461000D02*
X525750D01*
X536000Y453500D02*
Y468500D01*
X506000Y453500D02*
Y468500D01*
X536000D01*
X506000Y453500D02*
X536000D01*
X560500Y467000D02*
Y503000D01*
X533500Y467000D02*
Y503000D01*
Y467000D02*
X560500D01*
X533500Y503000D02*
X560500D01*
X542000Y485000D02*
X552000D01*
X547000Y480000D02*
Y490000D01*
X506000Y501500D02*
X536000D01*
X506000Y516500D02*
X536000D01*
X506000Y501500D02*
Y516500D01*
X536000Y501500D02*
Y516500D01*
X516250Y509000D02*
X525750D01*
X521000Y504250D02*
Y513750D01*
X487250Y475000D02*
X496750D01*
X492000Y470250D02*
Y479750D01*
X484500Y460000D02*
X499500D01*
X484500Y490000D02*
X499500D01*
Y460000D02*
Y490000D01*
X484500Y460000D02*
Y490000D01*
X259000Y152250D02*
Y157750D01*
X256250Y155000D02*
X261750D01*
X249500Y150000D02*
Y160000D01*
X268500Y150000D02*
Y160000D01*
X249500Y150000D02*
X268500D01*
X249500Y160000D02*
X268500D01*
X691500Y579000D02*
X701500D01*
X696500Y574000D02*
Y584000D01*
X679000Y569500D02*
X714000D01*
X679000Y588500D02*
X714000D01*
X679000Y569500D02*
Y588500D01*
X714000Y569500D02*
Y588500D01*
X719000Y556250D02*
Y565750D01*
X714250Y561000D02*
X723750D01*
X704000Y553500D02*
Y568500D01*
X734000Y553500D02*
Y568500D01*
X704000Y553500D02*
X734000D01*
X704000Y568500D02*
X734000D01*
X658440Y552200D02*
X736440D01*
Y506200D02*
Y552200D01*
X658440Y506200D02*
Y552200D01*
Y506200D02*
X736440D01*
X697440Y524200D02*
Y534200D01*
X692440Y529200D02*
X702440D01*
X505001Y198251D02*
Y224251D01*
X541001Y198251D02*
Y224251D01*
X515501Y211250D02*
X523000D01*
Y218749D01*
Y211250D02*
X530499D01*
X523000Y203751D02*
Y211250D01*
X505001Y198251D02*
X541001D01*
X505001Y224251D02*
X541001D01*
X658000Y290500D02*
X688000D01*
X658000Y305500D02*
X688000D01*
X658000Y290500D02*
Y305500D01*
X688000Y290500D02*
Y305500D01*
X668250Y298000D02*
X677750D01*
X673000Y293250D02*
Y302750D01*
X538500Y110000D02*
Y130000D01*
X503500Y110000D02*
Y130000D01*
X538500D01*
X503500Y110000D02*
X538500D01*
X521000Y115000D02*
Y125000D01*
X516000Y120000D02*
X526000D01*
X688500Y306000D02*
Y326000D01*
X653500Y306000D02*
Y326000D01*
X688500D01*
X653500Y306000D02*
X688500D01*
X671000Y311000D02*
Y321000D01*
X666000Y316000D02*
X676000D01*
X489500Y197000D02*
Y227000D01*
X504500Y197000D02*
Y227000D01*
X489500D02*
X504500D01*
X489500Y197000D02*
X504500D01*
X497000Y207250D02*
Y216750D01*
X492250Y212000D02*
X501750D01*
X541500Y197000D02*
Y227000D01*
X556500Y197000D02*
Y227000D01*
X541500D02*
X556500D01*
X541500Y197000D02*
X556500D01*
X549000Y207250D02*
Y216750D01*
X544250Y212000D02*
X553750D01*
X630000Y440000D02*
Y470000D01*
X615000Y440000D02*
Y470000D01*
Y440000D02*
X630000D01*
X615000Y470000D02*
X630000D01*
X622500Y450250D02*
Y459750D01*
X617750Y455000D02*
X627250D01*
X656500Y544000D02*
Y574000D01*
X641500Y544000D02*
Y574000D01*
Y544000D02*
X656500D01*
X641500Y574000D02*
X656500D01*
X649000Y554250D02*
Y563750D01*
X644250Y559000D02*
X653750D01*
X491581Y328669D02*
Y343670D01*
X461581Y328669D02*
Y343670D01*
X491581D01*
X461581Y328669D02*
X491581D01*
X471830Y336170D02*
X481331D01*
X476581Y331420D02*
Y340920D01*
X557250Y321000D02*
X562750D01*
X560000Y318250D02*
Y323750D01*
X555000Y311500D02*
X565000D01*
X555000Y330500D02*
X565000D01*
Y311500D02*
Y330500D01*
X555000Y311500D02*
Y330500D01*
X545250Y321000D02*
X550750D01*
X548000Y318250D02*
Y323750D01*
X543000Y311500D02*
X553000D01*
X543000Y330500D02*
X553000D01*
Y311500D02*
Y330500D01*
X543000Y311500D02*
Y330500D01*
X499000Y366250D02*
Y371750D01*
X496250Y369000D02*
X501750D01*
X508500Y364000D02*
Y374000D01*
X489500Y364000D02*
Y374000D01*
X508500D01*
X489500Y364000D02*
X508500D01*
X219308Y82488D02*
Y87988D01*
X216558Y85238D02*
X222058D01*
X209808Y80238D02*
Y90238D01*
X228808Y80238D02*
Y90238D01*
X209808Y80238D02*
X228808D01*
X209808Y90238D02*
X228808D01*
X219308Y95488D02*
Y100988D01*
X216558Y98238D02*
X222058D01*
X209808Y93238D02*
Y103238D01*
X228808Y93238D02*
Y103238D01*
X209808Y93238D02*
X228808D01*
X209808Y103238D02*
X228808D01*
X243308Y31288D02*
Y36788D01*
X240558Y34038D02*
X246058D01*
X252808Y29038D02*
Y39038D01*
X233808Y29038D02*
Y39038D01*
X252808D01*
X233808Y29038D02*
X252808D01*
X243308Y44088D02*
Y49588D01*
X240558Y46838D02*
X246058D01*
X252808Y41838D02*
Y51838D01*
X233808Y41838D02*
Y51838D01*
X252808D01*
X233808Y41838D02*
X252808D01*
X34500Y80750D02*
Y86250D01*
X31750Y83500D02*
X37250D01*
X25000Y78500D02*
Y88500D01*
X44000Y78500D02*
Y88500D01*
X25000Y78500D02*
X44000D01*
X25000Y88500D02*
X44000D01*
X34500Y168750D02*
Y174250D01*
X31750Y171500D02*
X37250D01*
X25000Y166500D02*
Y176500D01*
X44000Y166500D02*
Y176500D01*
X25000Y166500D02*
X44000D01*
X25000Y176500D02*
X44000D01*
X38000Y200250D02*
Y205750D01*
X35250Y203000D02*
X40750D01*
X28500Y198000D02*
Y208000D01*
X47500Y198000D02*
Y208000D01*
X28500Y198000D02*
X47500D01*
X28500Y208000D02*
X47500D01*
X34494Y124756D02*
Y130256D01*
X31744Y127506D02*
X37244D01*
X24994Y122506D02*
Y132506D01*
X43994Y122506D02*
Y132506D01*
X24994Y122506D02*
X43994D01*
X24994Y132506D02*
X43994D01*
X219308Y18488D02*
Y23988D01*
X216558Y21238D02*
X222058D01*
X209808Y16238D02*
Y26238D01*
X228808Y16238D02*
Y26238D01*
X209808Y16238D02*
X228808D01*
X209808Y26238D02*
X228808D01*
X219308Y31288D02*
Y36788D01*
X216558Y34038D02*
X222058D01*
X209808Y29038D02*
Y39038D01*
X228808Y29038D02*
Y39038D01*
X209808Y29038D02*
X228808D01*
X209808Y39038D02*
X228808D01*
X219308Y44088D02*
Y49588D01*
X216558Y46838D02*
X222058D01*
X209808Y41838D02*
Y51838D01*
X228808Y41838D02*
Y51838D01*
X209808Y41838D02*
X228808D01*
X209808Y51838D02*
X228808D01*
X219308Y56888D02*
Y62388D01*
X216558Y59638D02*
X222058D01*
X209808Y54638D02*
Y64638D01*
X228808Y54638D02*
Y64638D01*
X209808Y54638D02*
X228808D01*
X209808Y64638D02*
X228808D01*
X219308Y69688D02*
Y75188D01*
X216558Y72438D02*
X222058D01*
X209808Y67438D02*
Y77438D01*
X228808Y67438D02*
Y77438D01*
X209808Y67438D02*
X228808D01*
X209808Y77438D02*
X228808D01*
X243308Y18488D02*
Y23988D01*
X240558Y21238D02*
X246058D01*
X252808Y16238D02*
Y26238D01*
X233808Y16238D02*
Y26238D01*
X252808D01*
X233808Y16238D02*
X252808D01*
X243308Y69688D02*
Y75188D01*
X240558Y72438D02*
X246058D01*
X252808Y67438D02*
Y77438D01*
X233808Y67438D02*
Y77438D01*
X252808D01*
X233808Y67438D02*
X252808D01*
X243308Y56888D02*
Y62388D01*
X240558Y59638D02*
X246058D01*
X252808Y54638D02*
Y64638D01*
X233808Y54638D02*
Y64638D01*
X252808D01*
X233808Y54638D02*
X252808D01*
X243308Y82488D02*
Y87988D01*
X240558Y85238D02*
X246058D01*
X252808Y80238D02*
Y90238D01*
X233808Y80238D02*
Y90238D01*
X252808D01*
X233808Y80238D02*
X252808D01*
X219576Y111754D02*
Y117254D01*
X216827Y114504D02*
X222326D01*
X229077Y109504D02*
Y119504D01*
X210076Y109504D02*
Y119504D01*
X229077D01*
X210076Y109504D02*
X229077D01*
X429000Y251018D02*
Y264982D01*
X395000Y241000D02*
X421000D01*
Y264982D02*
Y275000D01*
Y264982D02*
X429000D01*
X421000Y241000D02*
Y251018D01*
X429000D01*
X395000Y275000D02*
X421000D01*
X412000Y258000D02*
X419000D01*
X412000Y251018D02*
Y258018D01*
X405018Y258000D02*
X412018D01*
X412000Y257982D02*
Y264982D01*
X395000Y241000D02*
Y275000D01*
X80000Y15000D02*
Y25000D01*
X75000Y20000D02*
X85000D01*
X780000Y515000D02*
Y525000D01*
X775000Y520000D02*
X785000D01*
X720000Y15000D02*
Y25000D01*
X715000Y20000D02*
X725000D01*
X509241Y420000D02*
X521241D01*
X509241Y399000D02*
X521241D01*
X509241D02*
Y420000D01*
X521241Y399000D02*
Y420000D01*
X512241Y409500D02*
X518241D01*
X515241Y406500D02*
Y412500D01*
X25450Y90500D02*
Y109500D01*
Y90500D02*
X46750D01*
Y109500D01*
X25450D02*
X46750D01*
X36100Y95000D02*
Y105000D01*
X31100Y100000D02*
X41100D01*
X25444Y134506D02*
Y153506D01*
Y134506D02*
X46744D01*
Y153506D01*
X25444D02*
X46744D01*
X36094Y139006D02*
Y149006D01*
X31094Y144006D02*
X41094D01*
X25450Y178500D02*
Y197500D01*
Y178500D02*
X46750D01*
Y197500D01*
X25450D02*
X46750D01*
X36100Y183000D02*
Y193000D01*
X31100Y188000D02*
X41100D01*
X103232Y530538D02*
Y549539D01*
X93232Y530538D02*
Y549539D01*
Y530538D02*
X103232D01*
X93232Y549539D02*
X103232D01*
X98232Y537288D02*
Y542788D01*
X95482Y540038D02*
X100982D01*
X75568Y530163D02*
Y549163D01*
X85568Y530163D02*
Y549163D01*
X75568D02*
X85568D01*
X75568Y530163D02*
X85568D01*
X80568Y536913D02*
Y542412D01*
X77818Y539663D02*
X83318D01*
X48920Y247389D02*
Y272890D01*
X54920D01*
X48920Y243890D02*
Y247389D01*
X-17080Y355940D02*
X48920D01*
Y352440D02*
Y355940D01*
Y326940D02*
X54920D01*
X48920D02*
Y352440D01*
X54920Y272890D02*
Y326940D01*
X-17080Y243890D02*
Y355940D01*
Y243890D02*
X48920D01*
X40000Y300000D02*
X47500D01*
X40000Y292500D02*
Y300000D01*
X32500D02*
X40000D01*
Y307500D01*
X489581Y340669D02*
X501581D01*
X489581Y361670D02*
X501581D01*
Y340669D02*
Y361670D01*
X489581Y340669D02*
Y361670D01*
X492581Y351170D02*
X498581D01*
X495580Y348170D02*
Y354170D01*
X487278Y344170D02*
Y374169D01*
X459425Y344170D02*
Y374169D01*
X473470Y359169D02*
X482170D01*
X473470Y350469D02*
Y359169D01*
X464770D02*
X473470D01*
Y367869D01*
X459425Y374169D02*
X487278D01*
X459425Y344170D02*
X487278D01*
X446581Y354669D02*
Y373670D01*
X456581Y354669D02*
Y373670D01*
X446581D02*
X456581D01*
X446581Y354669D02*
X456581D01*
X451581Y361420D02*
Y366920D01*
X448831Y364170D02*
X454331D01*
X489500Y386000D02*
Y405000D01*
X479500Y386000D02*
Y405000D01*
Y386000D02*
X489500D01*
X479500Y405000D02*
X489500D01*
X484500Y392750D02*
Y398250D01*
X481750Y395500D02*
X487250D01*
X258501Y109754D02*
Y115254D01*
X255751Y112505D02*
X261251D01*
X268001Y107504D02*
Y117504D01*
X249001Y107504D02*
Y117504D01*
X268001D01*
X249001Y107504D02*
X268001D01*
X258501Y99754D02*
Y105254D01*
X255751Y102505D02*
X261251D01*
X268001Y97504D02*
Y107504D01*
X249001Y97504D02*
Y107504D01*
X268001D01*
X249001Y97504D02*
X268001D01*
X781000Y395000D02*
Y405000D01*
X776000Y400000D02*
X786000D01*
X769500Y376500D02*
Y423500D01*
X792500Y376500D02*
Y423500D01*
X769500D02*
X792500D01*
X769500Y376500D02*
X792500D01*
X720250Y450000D02*
X729750D01*
X725000Y445250D02*
Y454750D01*
X717500Y435000D02*
X732500D01*
X717500Y465000D02*
X732500D01*
Y435000D02*
Y465000D01*
X717500Y435000D02*
Y465000D01*
X607000Y395000D02*
Y405000D01*
X602000Y400000D02*
X612000D01*
X595500Y376500D02*
Y423500D01*
X618500Y376500D02*
Y423500D01*
X595500D02*
X618500D01*
X595500Y376500D02*
X618500D01*
X680500Y433000D02*
Y467000D01*
X714500Y433000D02*
Y467000D01*
X680500Y433000D02*
X714500D01*
X680500Y467000D02*
X714500D01*
X692500Y450000D02*
X702500D01*
X697500Y445000D02*
Y455000D01*
X640000Y427750D02*
Y437250D01*
X635250Y432500D02*
X644750D01*
X655000Y425000D02*
Y440000D01*
X625000Y425000D02*
Y440000D01*
X655000D01*
X625000Y425000D02*
X655000D01*
X658000Y455250D02*
Y464750D01*
X653250Y460000D02*
X662750D01*
X643000Y452500D02*
Y467500D01*
X673000Y452500D02*
Y467500D01*
X643000Y452500D02*
X673000D01*
X643000Y467500D02*
X673000D01*
X737750Y450000D02*
X747250D01*
X742500Y445250D02*
Y454750D01*
X735000Y465000D02*
X750000D01*
X735000Y435000D02*
X750000D01*
X735000D02*
Y465000D01*
X750000Y435000D02*
Y465000D01*
X248882Y137936D02*
X267882D01*
X248882Y127936D02*
X267882D01*
Y137936D01*
X248882Y127936D02*
Y137936D01*
X255632Y132936D02*
X261132D01*
X258382Y130186D02*
Y135686D01*
X249500Y149000D02*
X268500D01*
X249500Y139000D02*
X268500D01*
Y149000D01*
X249500Y139000D02*
Y149000D01*
X256250Y144000D02*
X261750D01*
X259000Y141250D02*
Y146750D01*
X286000Y86503D02*
Y105503D01*
X296000Y86503D02*
Y105503D01*
X286000D02*
X296000D01*
X286000Y86503D02*
X296000D01*
X291000Y93253D02*
Y98753D01*
X288250Y96003D02*
X293750D01*
X270000Y86503D02*
Y105503D01*
X280000Y86503D02*
Y105503D01*
X270000D02*
X280000D01*
X270000Y86503D02*
X280000D01*
X275000Y93253D02*
Y98753D01*
X272250Y96003D02*
X277750D01*
X310000Y118500D02*
Y137500D01*
X300000Y118500D02*
Y137500D01*
Y118500D02*
X310000D01*
X300000Y137500D02*
X310000D01*
X305000Y125250D02*
Y130750D01*
X302250Y128000D02*
X307750D01*
X262868Y10203D02*
X274868D01*
X262868Y31203D02*
X274868D01*
Y10203D02*
Y31203D01*
X262868Y10203D02*
Y31203D01*
X265868Y20703D02*
X271868D01*
X268868Y17703D02*
Y23703D01*
X276100Y9900D02*
X288100D01*
X276100Y30900D02*
X288100D01*
Y9900D02*
Y30900D01*
X276100Y9900D02*
Y30900D01*
X279100Y20400D02*
X285100D01*
X282100Y17400D02*
Y23400D01*
X337922Y144452D02*
X349922D01*
X337922Y165452D02*
X349922D01*
Y144452D02*
Y165452D01*
X337922Y144452D02*
Y165452D01*
X340922Y154952D02*
X346922D01*
X343922Y151952D02*
Y157952D01*
X339101Y97505D02*
X342401D01*
X340751Y95855D02*
Y99155D01*
X337751Y91504D02*
Y103504D01*
X343751Y91504D02*
Y103504D01*
X337751D02*
X343751D01*
X337751Y91504D02*
X343751D01*
X333101Y97505D02*
X336401D01*
X334751Y95855D02*
Y99155D01*
X331751Y91504D02*
Y103504D01*
X337751Y91504D02*
Y103504D01*
X331751D02*
X337751D01*
X331751Y91504D02*
X337751D01*
X359101Y97505D02*
X362401D01*
X360751Y95855D02*
Y99155D01*
X357751Y91504D02*
Y103504D01*
X363751Y91504D02*
Y103504D01*
X357751D02*
X363751D01*
X357751Y91504D02*
X363751D01*
X353101Y97505D02*
X356401D01*
X354751Y95855D02*
Y99155D01*
X351751Y91504D02*
Y103504D01*
X357751Y91504D02*
Y103504D01*
X351751D02*
X357751D01*
X351751Y91504D02*
X357751D01*
X291863Y154228D02*
X310863D01*
X291863Y144228D02*
X310863D01*
Y154228D01*
X291863Y144228D02*
Y154228D01*
X298613Y149228D02*
X304113D01*
X301363Y146478D02*
Y151978D01*
X279000Y62503D02*
Y81503D01*
X269000Y62503D02*
Y81503D01*
Y62503D02*
X279000D01*
X269000Y81503D02*
X279000D01*
X274000Y69253D02*
Y74753D01*
X271250Y72003D02*
X276750D01*
X290000Y62503D02*
Y81503D01*
X280000Y62503D02*
Y81503D01*
Y62503D02*
X290000D01*
X280000Y81503D02*
X290000D01*
X285000Y69253D02*
Y74753D01*
X282250Y72003D02*
X287750D01*
X341999Y121003D02*
Y129003D01*
Y113003D02*
Y121003D01*
X349999D01*
X333999D02*
X341999D01*
X316000Y105003D02*
X368000D01*
Y137003D01*
X316000D02*
X368000D01*
X316000Y105003D02*
Y137003D01*
X299000Y97000D02*
X311000D01*
X299000Y118000D02*
X311000D01*
Y97000D02*
Y118000D01*
X299000Y97000D02*
Y118000D01*
X302000Y107500D02*
X308000D01*
X305000Y104500D02*
Y110500D01*
X283751Y122504D02*
Y130504D01*
X275753Y122504D02*
X283751D01*
X291751D01*
X283751Y114506D02*
Y122504D01*
X294751Y111504D02*
Y133504D01*
X272751D02*
X294751D01*
X272751Y111504D02*
Y133504D01*
Y111504D02*
X294751D01*
X755000Y291500D02*
Y326500D01*
X689000Y291500D02*
Y326500D01*
X755000D01*
X689000Y291500D02*
X755000D01*
X717000Y309000D02*
X727000D01*
X722000Y304000D02*
Y314000D01*
X413500Y294000D02*
X432500D01*
X413500Y304000D02*
X432500D01*
X413500Y294000D02*
Y304000D01*
X432500Y294000D02*
Y304000D01*
X420250Y299000D02*
X425750D01*
X423000Y296250D02*
Y301750D01*
X458500Y182704D02*
Y194704D01*
X437500Y182704D02*
Y194704D01*
X458500D01*
X437500Y182704D02*
X458500D01*
X448000Y185704D02*
Y191703D01*
X445000Y188704D02*
X451000D01*
X466250Y303189D02*
X478250D01*
X466250Y282189D02*
X478250D01*
X466250D02*
Y303189D01*
X478250Y282189D02*
Y303189D01*
X469250Y292689D02*
X475250D01*
X472250Y289688D02*
Y295688D01*
X438500Y235750D02*
X457500D01*
X438500Y225750D02*
X457500D01*
Y235750D01*
X438500Y225750D02*
Y235750D01*
X445250Y230750D02*
X450750D01*
X448000Y228000D02*
Y233500D01*
X439250Y303132D02*
X451250D01*
X439250Y282132D02*
X451250D01*
X439250D02*
Y303132D01*
X451250Y282132D02*
Y303132D01*
X442250Y292631D02*
X448250D01*
X445250Y289632D02*
Y295632D01*
X470600Y241900D02*
Y260900D01*
X480600Y241900D02*
Y260900D01*
X470600D02*
X480600D01*
X470600Y241900D02*
X480600D01*
X475600Y248650D02*
Y254150D01*
X472850Y251400D02*
X478350D01*
X403000Y200203D02*
Y219203D01*
X413000Y200203D02*
Y219203D01*
X403000D02*
X413000D01*
X403000Y200203D02*
X413000D01*
X408000Y206954D02*
Y212454D01*
X405250Y209703D02*
X410750D01*
X414500Y194704D02*
X433500D01*
X414500Y184704D02*
X433500D01*
Y194704D01*
X414500Y184704D02*
Y194704D01*
X421250Y189704D02*
X426750D01*
X424000Y186954D02*
Y192453D01*
X560000Y274000D02*
Y280000D01*
X557000Y277000D02*
X563000D01*
X554000Y266500D02*
Y287500D01*
X566000Y266500D02*
Y287500D01*
X554000D02*
X566000D01*
X554000Y266500D02*
X566000D01*
X540000Y247000D02*
X546000D01*
X543000Y244000D02*
Y250000D01*
X532500Y241000D02*
X553500D01*
X532500Y253000D02*
X553500D01*
X532500Y241000D02*
Y253000D01*
X553500Y241000D02*
Y253000D01*
X557250Y299000D02*
X562750D01*
X560000Y296250D02*
Y301750D01*
X555000Y289500D02*
X565000D01*
X555000Y308500D02*
X565000D01*
Y289500D02*
Y308500D01*
X555000Y289500D02*
Y308500D01*
X534631Y276516D02*
X544631D01*
X539631Y271516D02*
Y281516D01*
X526631Y254266D02*
Y298766D01*
X552631Y254266D02*
Y298766D01*
X526631D02*
X552631D01*
X526631Y254266D02*
X552631D01*
X516250Y276000D02*
X521750D01*
X519000Y273250D02*
Y278750D01*
X514000Y285500D02*
X524000D01*
X514000Y266500D02*
X524000D01*
X514000D02*
Y285500D01*
X524000Y266500D02*
Y285500D01*
X539000Y304250D02*
Y309750D01*
X536250Y307000D02*
X541750D01*
X529500Y302000D02*
Y312000D01*
X548500Y302000D02*
Y312000D01*
X529500Y302000D02*
X548500D01*
X529500Y312000D02*
X548500D01*
X436000Y204000D02*
Y214000D01*
X431000Y209000D02*
X441000D01*
X413750Y196000D02*
X458250D01*
X413750Y222000D02*
X458250D01*
X413750Y196000D02*
Y222000D01*
X458250Y196000D02*
Y222000D01*
X422000Y229000D02*
X428000D01*
X425000Y226000D02*
Y232000D01*
X414500Y235000D02*
X435500D01*
X414500Y223000D02*
X435500D01*
Y235000D01*
X414500Y223000D02*
Y235000D01*
M02*
