M48
;Layer_Color=9474304
;FILE_FORMAT=4:4
METRIC
;TYPE=PLATED
T1F00S00C0.2000
T2F00S00C0.2032
T3F00S00C0.2540
T4F00S00C0.5000
T6F00S00C0.8600
T8F00S00C1.1000
T9F00S00C2.1000
T10F00S00C3.0000
%
T01
X00509500Y00041500
Y00051500
X00519500
Y00041500
X00529500
Y00051500
T02
X00417000Y00007000
X00402555Y00031460
X00411000Y00040500
X00419000Y00047500
X00436000Y00048802
X00449000Y00061500
X00461000Y00062000
X00475468Y00063930
X00499886Y00052762
X00493500Y00036000
X00491500Y00015000
X00499999Y00015500
X00507504Y00015118
X00515351Y00012649
X00521500Y00014500
X00529250Y00015000
X00536000
X00551000Y00046502
X00543500Y00060000
X00543944Y00065171
X00542032Y00070704
X00521930Y00076782
X00522141Y00085782
X00510524Y00085927
X00501000Y00086500
X00450000Y00084500
X00441499Y00093500
X00430466Y00125614
X00417000Y00132529
X00401447Y00127336
X00400345Y00099421
X00408500Y00059698
X00481042Y00021042
X00456499Y00126247
Y00131500
X00459994Y00135184
X00445000Y00178000
X00434000Y00180000
X00434907Y00186093
X00431020Y00189339
X00426784Y00195904
X00447584Y00203171
X00450946Y00208893
X00455503Y00211497
X00460349Y00208271
X00462904Y00220887
X00456522Y00224136
X00451220Y00223171
X00447794Y00218393
X00496315Y00225600
X00508120Y00225382
X00509722Y00188507
X00504583Y00190213
X00500126Y00187508
X00496062Y00191063
X00492252Y00187254
X00484378
X00487934Y00191063
X00511000Y00168500
X00511280Y00152829
X00526250Y00201250
X00539000Y00204000
X00569540Y00222902
X00585000Y00182500
Y00174500
X00564500Y00084000
X00569809Y00073040
X00422999Y00164000
X00355796Y00157196
X00357999Y00149000
X00352499Y00149500
X00350263Y00139829
X00348056Y00135271
X00341500Y00146000
X00335499Y00142500
X00322940Y00142666
X00318174Y00138546
X00319999Y00128000
X00309000Y00128000
X00306500Y00123000
X00320500Y00157000
X00314500Y00164500
X00313999Y00190000
X00308478Y00186550
X00295686Y00191186
X00292244Y00207080
X00329499Y00191000
X00330978Y00175000
X00339233Y00168717
X00347287Y00169813
X00342000Y00159000
X00341000Y00182000
X00354838Y00181626
X00350387Y00188098
X00381613Y00205756
X00398557Y00234533
X00389800Y00093537
X00389500Y00085500
X00390000Y00065500
X00380276Y00010040
X00315350Y00021900
X00266000Y00027500
X00257500Y00028000
Y00052000
X00268000
X00232000
X00221500
X00210653Y00051569
X00205000Y00060040
X00213390Y00075056
X00218738Y00076238
X00223560Y00074691
X00229080Y00071151
X00236431Y00070715
X00242500Y00072500
X00247999Y00074000
X00253500Y00075000
X00244500Y00082500
X00245000Y00089000
X00236794Y00104301
X00232516Y00107009
X00215911Y00098308
X00209850Y00080664
X00188500Y00109000
X00181500Y00107000
X00164553Y00122000
X00158039Y00122333
X00138017Y00125477
X00132000Y00121000
X00140000Y00116500
X00141460Y00106944
X00146500Y00103500
X00135500Y00098540
X00139000Y00088500
X00113500Y00085000
X00115997Y00102080
X00105000Y00114250
X00097250Y00127000
X00112750
X00105000Y00139750
X00107743Y00146828
X00102122Y00150937
X00094000Y00152175
X00081000Y00153000
X00073485Y00151445
X00068379Y00151499
X00068318Y00158435
X00065841Y00146734
X00064661Y00139213
X00063983Y00134195
X00070915Y00129227
X00069000Y00119404
X00072983Y00116215
X00064960Y00116053
X00057179Y00113821
X00060788Y00110207
X00060960Y00100000
X00067500Y00104000
X00076694Y00099063
X00083589Y00105292
X00082104Y00117040
X00082500Y00129000
X00081817Y00134945
X00073500Y00143500
X00049250Y00140500
X00033750
X00016072Y00141000
X00018000Y00147000
X00018653Y00159347
X00019164Y00167000
X00028260Y00170783
X00038000Y00162000
X00041500Y00153250
X00049000Y00168790
X00042000Y00187000
X00043974Y00193791
X00045000Y00201000
X00047404Y00208442
X00041130Y00211274
X00048000Y00220000
X00046000Y00234000
X00028000Y00218480
X00020000Y00206500
X00069200Y00211000
Y00199000
Y00223000
X00102362Y00223322
X00109168Y00222661
X00114066Y00218970
X00118183Y00225194
X00112014Y00203510
X00101000Y00187000
X00125581Y00162362
X00123783Y00150250
X00129140Y00139459
X00198511Y00129176
X00224308Y00135989
X00223774Y00156753
X00238506Y00167428
X00261000Y00166540
X00279937Y00156783
X00256563Y00125500
X00246000Y00131000
X00270500Y00089500
X00273500Y00083000
X00232000Y00028000
X00221500
X00210500Y00028000
X00192000Y00030000
X00096000Y00051000
X00081000Y00044500
Y00065452
X00069500Y00065500
X00069053Y00084634
X00084000Y00087173
X00058732Y00049732
X00035171Y00065037
X00019500Y00105872
X00021165Y00119000
X00019040Y00124320
X00019000Y00131000
X00041500Y00127750
X00154439Y00214115
X00183212Y00212536
X00179000Y00235000
X00143385Y00236514
X00189000Y00186000
X00207000Y00184000
X00212285
X00226597Y00212536
X00240028Y00223464
X00228000Y00237000
X00219234Y00247129
X00232000Y00259000
Y00269000
X00249000Y00260000
X00248920Y00246690
X00279000Y00260000
X00279324Y00298324
X00288000Y00299000
X00284456Y00312513
X00294956Y00312978
X00294000Y00321000
X00294637Y00329363
X00295067Y00339933
X00294601Y00352399
X00294816Y00364184
X00295232Y00375217
X00306000Y00374000
X00319650Y00366775
Y00348425
X00338000
X00328825Y00357600
Y00339250
X00347175
X00356350Y00348425
X00347175Y00357600
X00356350Y00366775
X00347175Y00375950
X00338000Y00366775
X00328825Y00375950
X00299476Y00389000
X00293541Y00402472
X00278000Y00417000
Y00423000
X00277733Y00429700
Y00435700
X00244967Y00432991
X00239554Y00431882
X00235973Y00428301
X00230489Y00432885
X00182015Y00469992
X00143678Y00435738
X00134000Y00434000
X00127000
X00122000Y00432000
X00092710Y00470210
X00087000Y00470000
X00078000Y00471000
X00076000Y00478000
X00087675Y00482921
X00059183Y00468086
X00069000Y00454000
X00041498Y00420065
X00037294Y00415833
X00021000Y00403000
X00011000Y00402000
X00007000Y00406000
X00012040Y00381118
Y00346939
X00038715Y00349000
X00039000Y00358500
X00046000Y00341000
X00056000Y00335000
Y00323000
X00038000Y00324000
X00034000Y00318994
X00034997Y00312987
X00048000Y00312000
X00045942Y00307000
X00038715Y00300000
Y00289800
X00037645Y00269786
X00025937Y00270000
X00011884Y00268000
X00015424Y00284924
X00014500Y00294000
X00012214Y00301316
X00023000Y00324000
X00069000Y00335000
X00074610Y00338468
Y00343532
X00069000Y00347000
X00068000Y00359000
Y00371000
X00063000Y00386000
X00100000Y00383000
Y00371000
X00105457Y00371038
X00109733Y00375652
X00100000Y00359000
Y00347000
Y00335000
X00103000Y00323000
X00104000Y00316000
X00108484Y00313000
X00100000Y00295000
X00086800Y00299000
X00085035Y00304523
X00077639Y00311070
X00081359Y00315242
X00084909Y00322616
X00086700Y00291000
X00082700Y00287000
Y00279000
X00086700Y00283000
X00086800Y00271000
X00082000Y00260000
X00085140Y00254000
X00085516Y00248102
X00085945Y00242737
X00071000Y00241000
X00072000Y00246000
X00072000Y00253000
X00071000Y00261000
X00070100Y00277192
X00073300Y00283000
X00069300Y00287000
X00073300Y00291000
X00069200Y00299000
X00050500Y00263000
X00054000Y00258811
X00030000Y00258000
X00041936Y00241948
X00046907Y00240093
X00108000Y00243000
X00109000Y00248000
Y00253064
X00113235Y00258075
X00105000Y00263000
X00100500Y00258900
X00100000Y00275000
X00134000Y00283000
X00139419Y00281419
X00143000Y00285000
X00144000Y00290000
X00143000Y00317000
X00170000Y00311000
X00178000Y00310860
Y00323000
X00190000Y00323000
X00189370Y00337000
X00182000Y00337000
X00198000Y00337000
X00204000Y00337000
X00222000Y00334000
X00229998Y00328999
X00235000Y00313000
X00226000Y00300000
X00214000
X00202000
X00190000
X00182000Y00298000
X00174000Y00300000
X00172000Y00284000
X00157000Y00274000
X00156336Y00254622
X00151000Y00252000
X00147419Y00248419
X00143510Y00242880
X00137064Y00237000
X00132000
X00164000Y00252000
X00189000Y00239123
X00244000Y00287000
X00310000Y00288000
X00311000Y00282000
X00318000
X00323000Y00286000
X00322999Y00297000
X00312999Y00295000
X00334264Y00297998
X00341666Y00299949
X00340999Y00306000
X00337117Y00313205
X00332000Y00318000
X00349000Y00302091
X00353135Y00296143
X00357500Y00291897
X00343916Y00292119
X00383000Y00280000
Y00377000
X00374000Y00375000
X00330209Y00418100
X00163229Y00338957
X00407000Y00338511
X00418001Y00333001
X00415519Y00325334
X00417000Y00311000
X00407500Y00312500
X00446396Y00323056
X00455702Y00330004
X00461702Y00321890
X00461000Y00315000
X00465000Y00342000
X00476500Y00341500
X00483000Y00342006
X00489000Y00331000
X00487000Y00320000
X00497000Y00315000
X00498000Y00310032
Y00304968
X00497000Y00300000
X00479000
X00488000Y00285000
X00465284Y00283850
X00479000Y00270000
X00497000
X00498000Y00265032
Y00259968
X00497000Y00255000
X00515144Y00257183
X00520909Y00260022
Y00265102
X00518160Y00270820
X00509000Y00274936
Y00280000
X00515855Y00282810
X00522909Y00283062
X00527909Y00286063
X00534957Y00287563
X00534631Y00277584
X00534567Y00272562
Y00267563
Y00262562
X00534631Y00257264
X00534567Y00297563
Y00302562
Y00307563
X00534631Y00312890
X00517999Y00301000
X00519807Y00293494
X00502999Y00323499
X00497000Y00353000
X00506000Y00367000
X00505000Y00382000
X00507000Y00402500
X00519000Y00417000
X00514467Y00423444
X00531804Y00415061
X00537003Y00411608
X00536942Y00406483
X00533475Y00401075
X00546000Y00415000
X00570000Y00414782
Y00409718
X00570219Y00402526
X00570000Y00422000
X00548000Y00439000
X00541000Y00439500
X00548999Y00452499
X00493000Y00443000
X00487000Y00446000
X00476151Y00447346
X00462000Y00437000
X00449000Y00432000
Y00405000
X00472000Y00412000
X00479000
X00488000
X00472000Y00419000
X00469000Y00389500
X00478000Y00380000
X00477041Y00363445
X00468500Y00371000
X00459500Y00380500
X00487500Y00389000
X00487000Y00370500
X00522000Y00368500
X00551180Y00378770
X00544000Y00342000
X00537000Y00344000
X00582190Y00343826
X00449500Y00349409
X00419000Y00363000
X00399000Y00368000
X00404000Y00373000
X00420000Y00433000
X00458470Y00486720
X00482600
X00481255Y00243085
X00476000Y00242375
X00460000Y00253000
X00453581Y00251420
X00449746Y00255254
X00450000Y00261000
X00418000Y00259000
T03
X00431103Y00103004
X00456023Y00107000
X00461273Y00116500
X00480612Y00127388
X00457499Y00084500
X00542500Y00089000
X00557957Y00060524
X00590500Y00057266
X00413672Y00149328
Y00178673
X00384328
Y00149328
X00375500Y00131500
X00377500Y00122000
X00381679Y00117554
X00377900Y00104600
X00382000Y00100500
X00369203Y00070072
Y00062000
Y00053928
X00329437Y00095000
X00329000Y00123500
X00270556Y00131500
X00300952Y00168952
X00276500Y00059000
Y00052500
X00273039Y00027500
X00245058Y00027935
X00245000Y00045000
X00171672Y00149328
Y00178673
X00142327
Y00149328
X00070500Y00051000
X00142327Y00391328
Y00420672
X00171672
Y00391328
X00384328
Y00420672
X00389921Y00307175
X00407800Y00286000
X00413672Y00391328
Y00420672
X00530000Y00346500
T04
X00071000Y00017000
X00083500
X00096000
X00108500
X00121000
X00133500
X00146000
X00158500
X00158500Y00493000
X00146000
X00133500
X00121000
X00108500
X00096000
X00083500
X00071000
T06
X00505000Y00487000
X00525000
T08
X00428800Y00033500
X00454200
T09
X00574000Y00026000
X00026000
Y00484000
X00574000
T10
X00399000Y00164000
X00157000
Y00406000
X00399000
M30
