G04*
G04 #@! TF.GenerationSoftware,Altium Limited,Altium Designer,23.3.1 (30)*
G04*
G04 Layer_Color=8388736*
%FSLAX44Y44*%
%MOMM*%
G71*
G04*
G04 #@! TF.SameCoordinates,D194EA9E-320C-42BA-852E-FFA0FE6248A8*
G04*
G04*
G04 #@! TF.FilePolarity,Positive*
G04*
G01*
G75*
%ADD13C,0.1000*%
%ADD14C,0.2000*%
%ADD84C,0.1270*%
%ADD158C,0.0762*%
%ADD162C,0.0254*%
D13*
X429266Y4694D02*
X461766D01*
X429266Y-11806D02*
X461766D01*
Y4694D01*
X429266Y-11806D02*
Y4694D01*
D14*
X468310Y46980D02*
X503310D01*
X468310Y18980D02*
Y46980D01*
Y18980D02*
X503310D01*
Y46980D01*
D84*
X-6800Y41500D02*
X45200D01*
Y205500D01*
X-6800D02*
X45200D01*
X-6800Y41500D02*
Y205500D01*
X33850Y26260D02*
X40200Y38960D01*
X33850Y26260D02*
X46550D01*
X40200Y38960D02*
X46550Y26260D01*
X513660Y4660D02*
Y20660D01*
X542660D01*
Y4660D02*
Y20660D01*
X513660Y4660D02*
X542660D01*
D158*
X390740Y128016D02*
X399204Y119552D01*
Y128016D02*
X390740Y119552D01*
X394972Y128016D02*
Y119552D01*
X399204Y123784D02*
X390740D01*
X100476Y103389D02*
Y94925D01*
X94128D01*
X96244Y99157D01*
Y101273D01*
X94128Y103389D01*
X89896D01*
X87780Y101273D01*
Y97041D01*
X89896Y94925D01*
X100476Y116085D02*
Y107621D01*
X94128D01*
X96244Y111853D01*
Y113969D01*
X94128Y116085D01*
X89896D01*
X87780Y113969D01*
Y109737D01*
X89896Y107621D01*
X98360Y120317D02*
X100476Y122433D01*
Y126665D01*
X98360Y128781D01*
X89896D01*
X87780Y126665D01*
Y122433D01*
X89896Y120317D01*
X98360D01*
X89896Y133013D02*
X87780Y135129D01*
Y139361D01*
X89896Y141477D01*
X98360D01*
X100476Y139361D01*
Y135129D01*
X98360Y133013D01*
X96244D01*
X94128Y135129D01*
Y141477D01*
X87780Y145709D02*
Y149941D01*
Y147825D01*
X100476D01*
X98360Y145709D01*
Y156289D02*
X100476Y158405D01*
Y162637D01*
X98360Y164753D01*
X89896D01*
X87780Y162637D01*
Y158405D01*
X89896Y156289D01*
X98360D01*
Y168984D02*
X100476Y171100D01*
Y175332D01*
X98360Y177448D01*
X96244D01*
X94128Y175332D01*
Y173216D01*
Y175332D01*
X92012Y177448D01*
X89896D01*
X87780Y175332D01*
Y171100D01*
X89896Y168984D01*
X100476Y181680D02*
Y190144D01*
X98360D01*
X89896Y181680D01*
X87780D01*
Y200724D02*
X100476D01*
X94128Y194376D01*
Y202840D01*
D162*
X393192Y127381D02*
X396748D01*
X393192D02*
Y131318D01*
X396748D01*
Y127381D02*
Y131318D01*
X393192Y108331D02*
X396748D01*
Y104394D02*
Y108331D01*
X393192Y104394D02*
X396748D01*
X393192D02*
Y108331D01*
X387731Y123762D02*
X391351Y127381D01*
X398590D02*
X402209Y123762D01*
Y108331D02*
Y127381D01*
X387731Y108331D02*
X402209D01*
X387731D02*
Y127381D01*
X402209D01*
M02*
