G04*
G04 #@! TF.GenerationSoftware,Altium Limited,Altium Designer,23.3.1 (30)*
G04*
G04 Layer_Color=255*
%FSLAX44Y44*%
%MOMM*%
G71*
G04*
G04 #@! TF.SameCoordinates,D194EA9E-320C-42BA-852E-FFA0FE6248A8*
G04*
G04*
G04 #@! TF.FilePolarity,Positive*
G04*
G01*
G75*
%ADD20R,0.4500X0.5500*%
%ADD23R,1.0000X0.9000*%
%ADD26R,0.9000X1.0000*%
%ADD27R,1.0500X1.4000*%
%ADD28R,1.8000X1.1500*%
%ADD36R,0.6200X0.6200*%
%ADD37R,0.5500X0.4500*%
%ADD79C,0.7500*%
%ADD80C,1.0000*%
G04:AMPARAMS|DCode=89|XSize=4mm|YSize=1.5mm|CornerRadius=0.375mm|HoleSize=0mm|Usage=FLASHONLY|Rotation=270.000|XOffset=0mm|YOffset=0mm|HoleType=Round|Shape=RoundedRectangle|*
%AMROUNDEDRECTD89*
21,1,4.0000,0.7500,0,0,270.0*
21,1,3.2500,1.5000,0,0,270.0*
1,1,0.7500,-0.3750,-1.6250*
1,1,0.7500,-0.3750,1.6250*
1,1,0.7500,0.3750,1.6250*
1,1,0.7500,0.3750,-1.6250*
%
%ADD89ROUNDEDRECTD89*%
%ADD90C,1.4000*%
%ADD91C,0.7000*%
%ADD92C,0.9000*%
%ADD93P,2.2627X4X270.0*%
%ADD94C,1.6000*%
%ADD95C,2.0000*%
%ADD96C,4.3000*%
%ADD97C,4.2000*%
%ADD98R,1.6000X1.6000*%
%ADD113R,0.6000X0.6000*%
%ADD114R,0.6000X0.4000*%
%ADD115R,0.4064X1.1684*%
%ADD116R,2.0000X2.5000*%
%ADD117R,1.8000X0.3500*%
%ADD118R,0.5500X0.3000*%
%ADD119R,0.5500X0.4000*%
%ADD120R,0.3500X0.8500*%
%ADD121R,1.4000X1.7500*%
G04:AMPARAMS|DCode=122|XSize=0.55mm|YSize=0.8mm|CornerRadius=0.0495mm|HoleSize=0mm|Usage=FLASHONLY|Rotation=0.000|XOffset=0mm|YOffset=0mm|HoleType=Round|Shape=RoundedRectangle|*
%AMROUNDEDRECTD122*
21,1,0.5500,0.7010,0,0,0.0*
21,1,0.4510,0.8000,0,0,0.0*
1,1,0.0990,0.2255,-0.3505*
1,1,0.0990,-0.2255,-0.3505*
1,1,0.0990,-0.2255,0.3505*
1,1,0.0990,0.2255,0.3505*
%
%ADD122ROUNDEDRECTD122*%
%ADD123R,1.1500X1.8000*%
G04:AMPARAMS|DCode=124|XSize=1.24mm|YSize=0.55mm|CornerRadius=0.0385mm|HoleSize=0mm|Usage=FLASHONLY|Rotation=270.000|XOffset=0mm|YOffset=0mm|HoleType=Round|Shape=RoundedRectangle|*
%AMROUNDEDRECTD124*
21,1,1.2400,0.4730,0,0,270.0*
21,1,1.1630,0.5500,0,0,270.0*
1,1,0.0770,-0.2365,-0.5815*
1,1,0.0770,-0.2365,0.5815*
1,1,0.0770,0.2365,0.5815*
1,1,0.0770,0.2365,-0.5815*
%
%ADD124ROUNDEDRECTD124*%
%ADD125R,1.2000X2.7000*%
%ADD126R,1.8800X0.6400*%
%ADD127R,1.2000X1.2000*%
%ADD128R,1.7800X1.5200*%
%ADD129R,1.3900X1.4000*%
%ADD130R,3.3600X4.8600*%
%ADD131R,0.9500X0.9000*%
%ADD132R,1.1500X1.4500*%
%ADD133R,2.1590X1.7780*%
D20*
X75470Y26813D02*
D03*
X66470D02*
D03*
D23*
X120490Y262470D02*
D03*
Y278470D02*
D03*
X97630Y287870D02*
D03*
Y303870D02*
D03*
X137000Y262470D02*
D03*
Y278470D02*
D03*
X211127Y270130D02*
D03*
Y286130D02*
D03*
D26*
X47880Y267970D02*
D03*
X63880D02*
D03*
X80900D02*
D03*
X96900D02*
D03*
X138810Y181610D02*
D03*
X122810D02*
D03*
X14350Y250190D02*
D03*
X-1650D02*
D03*
X210367Y180300D02*
D03*
X226367D02*
D03*
D27*
X-3150Y229870D02*
D03*
X15850D02*
D03*
D28*
X133658Y213560D02*
D03*
Y243560D02*
D03*
D36*
X519160Y-12700D02*
D03*
X528160D02*
D03*
X518580Y41870D02*
D03*
X527580D02*
D03*
X128160Y196850D02*
D03*
X137160D02*
D03*
D37*
X552290Y17160D02*
D03*
Y8160D02*
D03*
D79*
X265270Y281900D02*
D03*
X233987Y222210D02*
D03*
X265270Y257770D02*
D03*
X430516Y19558D02*
D03*
X125730Y-7620D02*
D03*
D80*
X36576Y-5334D02*
D03*
X532130Y302260D02*
D03*
D89*
X437112Y85747D02*
D03*
X562112D02*
D03*
D90*
X518112Y89247D02*
D03*
X514112Y73747D02*
D03*
X499612Y85747D02*
D03*
Y67247D02*
D03*
X485112Y73747D02*
D03*
X481112Y89247D02*
D03*
X490612Y102247D02*
D03*
X508612D02*
D03*
X246320Y67286D02*
D03*
X260320Y53286D02*
D03*
X288320D02*
D03*
X302320Y67286D02*
D03*
Y95286D02*
D03*
X288320Y109286D02*
D03*
X260320D02*
D03*
X246320Y95286D02*
D03*
D91*
X19200Y180500D02*
D03*
D92*
Y66500D02*
D03*
D93*
X61468Y51562D02*
D03*
D94*
X36719Y26813D02*
D03*
X242410Y282970D02*
D03*
D95*
X224320Y81286D02*
D03*
X274320Y31286D02*
D03*
X324320Y81286D02*
D03*
D96*
X570000Y300000D02*
D03*
X394500Y-0D02*
D03*
D97*
X0Y0D02*
D03*
D98*
X242410Y257970D02*
D03*
D113*
X551290Y144660D02*
D03*
Y129660D02*
D03*
X533290D02*
D03*
Y144660D02*
D03*
D114*
X551290Y137160D02*
D03*
D115*
X394970Y129032D02*
D03*
Y106680D02*
D03*
D116*
X19200Y198500D02*
D03*
Y48500D02*
D03*
D117*
X-1800Y167950D02*
D03*
Y161600D02*
D03*
Y155250D02*
D03*
Y148900D02*
D03*
Y142550D02*
D03*
Y136200D02*
D03*
Y129850D02*
D03*
Y123500D02*
D03*
Y117150D02*
D03*
Y110800D02*
D03*
Y104450D02*
D03*
Y98100D02*
D03*
Y91750D02*
D03*
Y85400D02*
D03*
Y79050D02*
D03*
X40200Y167950D02*
D03*
Y161600D02*
D03*
Y155250D02*
D03*
Y148900D02*
D03*
Y142550D02*
D03*
Y136200D02*
D03*
Y129850D02*
D03*
Y123500D02*
D03*
Y117150D02*
D03*
Y110800D02*
D03*
Y104450D02*
D03*
Y98100D02*
D03*
Y91750D02*
D03*
Y85400D02*
D03*
Y79050D02*
D03*
D118*
X439240Y55720D02*
D03*
Y50720D02*
D03*
Y40720D02*
D03*
Y35720D02*
D03*
X447040D02*
D03*
Y40720D02*
D03*
Y50720D02*
D03*
Y55720D02*
D03*
D119*
X439240Y45720D02*
D03*
X447040D02*
D03*
D120*
X83970Y12270D02*
D03*
X77470D02*
D03*
X70970D02*
D03*
Y-9730D02*
D03*
X77470D02*
D03*
X83970D02*
D03*
D121*
X460516Y-3556D02*
D03*
X430516D02*
D03*
D122*
X79190Y283600D02*
D03*
X60190D02*
D03*
X69690Y305600D02*
D03*
D123*
X164460Y302220D02*
D03*
X134460D02*
D03*
D124*
X518660Y810D02*
D03*
X537660D02*
D03*
Y24510D02*
D03*
X528160D02*
D03*
X518660D02*
D03*
D125*
X498810Y32980D02*
D03*
X472810D02*
D03*
D126*
X101440Y30050D02*
D03*
Y40050D02*
D03*
Y50050D02*
D03*
Y60050D02*
D03*
Y70050D02*
D03*
Y80050D02*
D03*
Y90050D02*
D03*
Y100050D02*
D03*
Y110050D02*
D03*
Y120050D02*
D03*
Y130050D02*
D03*
Y140050D02*
D03*
X190340D02*
D03*
Y130050D02*
D03*
Y120050D02*
D03*
Y110050D02*
D03*
Y100050D02*
D03*
Y90050D02*
D03*
Y80050D02*
D03*
Y70050D02*
D03*
Y60050D02*
D03*
Y50050D02*
D03*
Y40050D02*
D03*
Y30050D02*
D03*
D127*
X345947Y190170D02*
D03*
X370947D02*
D03*
X345947Y249170D02*
D03*
X370947D02*
D03*
X295147Y190170D02*
D03*
X320147D02*
D03*
X295147Y249170D02*
D03*
X320147D02*
D03*
D128*
X159058Y278700D02*
D03*
X184457D02*
D03*
X159058Y183500D02*
D03*
X184457D02*
D03*
D129*
X96830Y236840D02*
D03*
X78430D02*
D03*
D130*
X87630Y197020D02*
D03*
D131*
X211127Y253200D02*
D03*
X211127Y221700D02*
D03*
D132*
X227637Y200620D02*
D03*
X209638D02*
D03*
D133*
X264467Y229830D02*
D03*
Y189190D02*
D03*
M02*
