G04*
G04 #@! TF.GenerationSoftware,Altium Limited,Altium Designer,23.3.1 (30)*
G04*
G04 Layer_Color=32896*
%FSLAX44Y44*%
%MOMM*%
G71*
G04*
G04 #@! TF.SameCoordinates,065D5753-7B19-4784-9F45-B8A4711B8C0D*
G04*
G04*
G04 #@! TF.FilePolarity,Positive*
G04*
G01*
G75*
%ADD10C,0.4000*%
%ADD34C,0.1080*%
%ADD35C,0.2000*%
G36*
X48952Y48249D02*
X48964Y48237D01*
X48976Y48221D01*
X48980Y48184D01*
X48978Y41521D01*
X48973Y41502D01*
X48962Y41491D01*
X45357Y41486D01*
X44515D01*
X44497Y41481D01*
X44459Y41491D01*
X44448Y41502D01*
X44443Y42754D01*
X44459Y42770D01*
X47501Y42774D01*
X47520Y42779D01*
X47527Y42786D01*
X47531Y48209D01*
X47541Y48242D01*
X47548Y48249D01*
X47571Y48253D01*
X47618Y48249D01*
X47632Y48253D01*
X48866Y48251D01*
X48920Y48253D01*
X48952Y48249D01*
D02*
G37*
G36*
X22015Y48251D02*
X22057Y48246D01*
X22085Y48242D01*
X22109Y48237D01*
X22146Y48228D01*
X22194Y48221D01*
X22232Y48212D01*
X22271Y48191D01*
X22329Y48170D01*
X22357Y48151D01*
X22408Y48123D01*
X22418Y48114D01*
X22460Y48081D01*
X22469Y48077D01*
X22476Y48070D01*
X22480Y48060D01*
X22492Y48049D01*
X22501Y48044D01*
X22522Y48023D01*
X22527Y48014D01*
X22555Y47986D01*
X22578Y47944D01*
X22594Y47928D01*
X22613Y47900D01*
X22629Y47856D01*
X22636Y47849D01*
X22655Y47821D01*
X22662Y47791D01*
X22667Y47772D01*
X22680Y47726D01*
X22690Y47702D01*
X22694Y47684D01*
X22699Y47670D01*
X22704Y47474D01*
X22694Y47409D01*
X22683Y47370D01*
X22669Y47333D01*
X22662Y47293D01*
X22643Y47251D01*
X22627Y47226D01*
X22611Y47181D01*
X22592Y47163D01*
X22569Y47121D01*
X22532Y47084D01*
X22527Y47074D01*
X22511Y47058D01*
X22501Y47053D01*
X22490Y47042D01*
X22485Y47032D01*
X22464Y47016D01*
X22455Y47012D01*
X22427Y46984D01*
X22385Y46960D01*
X22376Y46956D01*
X22367Y46947D01*
X22350Y46935D01*
X22306Y46919D01*
X22260Y46891D01*
X22194Y46877D01*
X22176Y46872D01*
X22136Y46860D01*
X22111Y46853D01*
X22097Y46849D01*
X22009Y46844D01*
X21995Y46839D01*
X21929Y46844D01*
X21869Y46849D01*
X21850Y46853D01*
X21797Y46870D01*
X21778Y46874D01*
X21739Y46881D01*
X21720Y46886D01*
X21697Y46895D01*
X21692D01*
X21688Y46900D01*
X21678Y46905D01*
X21671Y46912D01*
X21627Y46928D01*
X21604Y46937D01*
X21590Y46951D01*
X21548Y46974D01*
X21532Y46991D01*
X21506Y47012D01*
X21497Y47016D01*
X21425Y47088D01*
X21406Y47121D01*
X21395Y47133D01*
X21374Y47158D01*
X21369Y47167D01*
X21360Y47191D01*
X21334Y47226D01*
X21322Y47256D01*
X21318Y47274D01*
X21297Y47323D01*
X21288Y47347D01*
X21283Y47365D01*
X21278Y47402D01*
X21271Y47493D01*
X21267Y47507D01*
X21269Y47588D01*
X21274Y47644D01*
X21281Y47716D01*
X21290Y47754D01*
X21316Y47807D01*
X21327Y47856D01*
X21346Y47884D01*
X21381Y47947D01*
X21390Y47951D01*
X21402Y47967D01*
X21416Y47991D01*
X21495Y48070D01*
X21520Y48091D01*
X21529Y48095D01*
X21553Y48119D01*
X21595Y48142D01*
X21604Y48147D01*
X21613Y48156D01*
X21646Y48174D01*
X21678Y48184D01*
X21713Y48205D01*
X21736Y48214D01*
X21760Y48219D01*
X21816Y48228D01*
X21834Y48232D01*
X21864Y48239D01*
X21878Y48244D01*
X21948Y48249D01*
X21962Y48253D01*
X22015Y48251D01*
D02*
G37*
G36*
X38946Y46609D02*
X38950Y46581D01*
X38913Y46544D01*
X38908Y46535D01*
X38885Y46512D01*
X38862Y46470D01*
X38839Y46446D01*
X38820Y46414D01*
X38801Y46395D01*
X38778Y46363D01*
X38773Y46354D01*
X38750Y46330D01*
X38732Y46298D01*
X38715Y46281D01*
X38685Y46237D01*
X38680Y46228D01*
X38669Y46216D01*
X38648Y46191D01*
X38643Y46181D01*
X38615Y46153D01*
X38597Y46121D01*
X38592Y46112D01*
X38578Y46098D01*
X38555Y46065D01*
X38550Y46056D01*
X38527Y46033D01*
X38508Y46000D01*
X38480Y45972D01*
X38462Y45939D01*
X38439Y45916D01*
X38415Y45874D01*
X38392Y45851D01*
X38378Y45828D01*
X38357Y45807D01*
X38327Y45763D01*
X38322Y45753D01*
X38304Y45735D01*
X38285Y45702D01*
X38257Y45674D01*
X38239Y45642D01*
X38220Y45623D01*
X38197Y45591D01*
X38192Y45581D01*
X38169Y45558D01*
X38150Y45526D01*
X38145Y45516D01*
X38122Y45493D01*
X38108Y45470D01*
X38099Y45461D01*
X38094Y45451D01*
X38087Y45449D01*
X38080Y45442D01*
X38076Y45433D01*
X38057Y45405D01*
X38052Y45395D01*
X38034Y45377D01*
X38015Y45344D01*
X37997Y45326D01*
X37973Y45293D01*
X37969Y45284D01*
X37945Y45260D01*
X37927Y45228D01*
X37911Y45212D01*
X37880Y45167D01*
X37876Y45158D01*
X37857Y45139D01*
X37843Y45116D01*
X37834Y45107D01*
X37829Y45098D01*
X37822Y45095D01*
X37792Y45051D01*
X37787Y45042D01*
X37769Y45023D01*
X37750Y44991D01*
X37722Y44963D01*
X37704Y44930D01*
X37685Y44912D01*
X37662Y44879D01*
X37657Y44870D01*
X37634Y44847D01*
X37629Y44837D01*
X37611Y44809D01*
X37606Y44800D01*
X37587Y44781D01*
X37562Y44742D01*
X37552Y44737D01*
X37522Y44693D01*
X37518Y44684D01*
X37499Y44665D01*
X37480Y44633D01*
X37462Y44614D01*
X37439Y44581D01*
X37434Y44572D01*
X37411Y44549D01*
X37392Y44516D01*
X37364Y44488D01*
X37345Y44456D01*
X37341Y44447D01*
X37332Y44437D01*
X37299Y44395D01*
X37294Y44386D01*
X37280Y44377D01*
X37262Y44344D01*
X37246Y44328D01*
X37215Y44284D01*
X37211Y44274D01*
X37187Y44251D01*
X37169Y44219D01*
X37136Y44186D01*
X37118Y44153D01*
X37113Y44135D01*
X37132Y44093D01*
X37136Y44084D01*
X37155Y44065D01*
X37178Y44033D01*
X37183Y44023D01*
X37201Y44005D01*
X37218Y43979D01*
X37236Y43951D01*
X37246Y43946D01*
X37266Y43912D01*
X37294Y43884D01*
X37313Y43851D01*
X37329Y43835D01*
X37359Y43791D01*
X37364Y43781D01*
X37387Y43758D01*
X37406Y43726D01*
X37429Y43702D01*
X37443Y43679D01*
X37471Y43651D01*
X37494Y43609D01*
X37518Y43586D01*
X37536Y43554D01*
X37550Y43540D01*
X37583Y43498D01*
X37587Y43488D01*
X37606Y43470D01*
X37625Y43437D01*
X37634Y43428D01*
X37666Y43386D01*
X37671Y43377D01*
X37680Y43368D01*
X37713Y43326D01*
X37718Y43316D01*
X37741Y43293D01*
X37759Y43260D01*
X37776Y43244D01*
X37806Y43200D01*
X37811Y43191D01*
X37834Y43167D01*
X37848Y43144D01*
X37866Y43126D01*
X37890Y43093D01*
X37894Y43084D01*
X37906Y43072D01*
X37936Y43028D01*
X37941Y43019D01*
X37964Y42995D01*
X37990Y42956D01*
X37999Y42951D01*
X38006Y42944D01*
X38029Y42902D01*
X38052Y42879D01*
X38071Y42846D01*
X38099Y42819D01*
X38118Y42786D01*
X38136Y42768D01*
X38159Y42735D01*
X38164Y42726D01*
X38180Y42709D01*
X38211Y42665D01*
X38215Y42656D01*
X38234Y42637D01*
X38248Y42614D01*
X38276Y42586D01*
X38294Y42554D01*
X38311Y42537D01*
X38341Y42493D01*
X38345Y42484D01*
X38369Y42460D01*
X38387Y42428D01*
X38394Y42421D01*
X38404Y42416D01*
X38425Y42386D01*
X38429Y42377D01*
X38436Y42370D01*
X38457Y42344D01*
X38476Y42312D01*
X38494Y42293D01*
X38518Y42260D01*
X38522Y42251D01*
X38541Y42233D01*
X38564Y42200D01*
X38569Y42191D01*
X38583Y42177D01*
X38606Y42144D01*
X38611Y42135D01*
X38634Y42112D01*
X38653Y42079D01*
X38671Y42060D01*
X38694Y42028D01*
X38699Y42019D01*
X38722Y41995D01*
X38741Y41963D01*
X38750Y41954D01*
X38755Y41944D01*
X38762Y41942D01*
X38769Y41930D01*
X38794Y41891D01*
X38811Y41879D01*
X38829Y41846D01*
X38857Y41819D01*
X38880Y41777D01*
X38904Y41754D01*
X38922Y41721D01*
X38939Y41705D01*
X38960Y41679D01*
X38964Y41670D01*
X38987Y41646D01*
X39011Y41605D01*
X39034Y41581D01*
X39053Y41549D01*
X39085Y41516D01*
X39083Y41491D01*
X39066Y41484D01*
X37650Y41486D01*
X37618Y41481D01*
X37580Y41491D01*
X37562Y41509D01*
X37552Y41514D01*
X37545Y41521D01*
X37527Y41554D01*
X37504Y41577D01*
X37480Y41609D01*
X37476Y41619D01*
X37462Y41633D01*
X37439Y41665D01*
X37434Y41674D01*
X37411Y41698D01*
X37392Y41730D01*
X37364Y41758D01*
X37350Y41781D01*
X37334Y41798D01*
X37304Y41842D01*
X37299Y41851D01*
X37276Y41874D01*
X37257Y41907D01*
X37229Y41935D01*
X37215Y41958D01*
X37187Y41986D01*
X37183Y41995D01*
X37164Y42023D01*
X37160Y42033D01*
X37141Y42051D01*
X37122Y42084D01*
X37106Y42100D01*
X37085Y42126D01*
X37080Y42135D01*
X37053Y42163D01*
X37034Y42195D01*
X37018Y42212D01*
X36987Y42256D01*
X36983Y42265D01*
X36971Y42277D01*
X36950Y42302D01*
X36946Y42312D01*
X36918Y42340D01*
X36899Y42372D01*
X36876Y42395D01*
X36857Y42428D01*
X36848Y42437D01*
X36815Y42479D01*
X36811Y42488D01*
X36783Y42516D01*
X36764Y42549D01*
X36741Y42572D01*
X36722Y42605D01*
X36704Y42623D01*
X36680Y42656D01*
X36676Y42665D01*
X36657Y42684D01*
X36634Y42716D01*
X36629Y42726D01*
X36622Y42733D01*
X36613Y42737D01*
X36587Y42777D01*
X36583Y42786D01*
X36560Y42809D01*
X36541Y42842D01*
X36518Y42865D01*
X36504Y42888D01*
X36494Y42898D01*
X36490Y42907D01*
X36483Y42909D01*
X36476Y42916D01*
X36457Y42949D01*
X36446Y42961D01*
X36425Y42986D01*
X36406Y43019D01*
X36385Y43039D01*
X36362Y43077D01*
X36339Y43091D01*
X36306Y43077D01*
X36276Y43033D01*
X36271Y43023D01*
X36248Y43000D01*
X36222Y42961D01*
X36206Y42949D01*
X36187Y42916D01*
X36164Y42893D01*
X36141Y42851D01*
X36118Y42828D01*
X36099Y42795D01*
X36076Y42772D01*
X36052Y42740D01*
X36048Y42730D01*
X36034Y42716D01*
X36011Y42684D01*
X36006Y42674D01*
X35999Y42667D01*
X35978Y42642D01*
X35959Y42609D01*
X35952Y42602D01*
X35943Y42598D01*
X35922Y42568D01*
X35918Y42558D01*
X35901Y42542D01*
X35871Y42498D01*
X35866Y42488D01*
X35848Y42470D01*
X35829Y42437D01*
X35806Y42414D01*
X35794Y42398D01*
X35776Y42370D01*
X35766Y42365D01*
X35741Y42326D01*
X35736Y42316D01*
X35713Y42293D01*
X35708Y42284D01*
X35690Y42256D01*
X35685Y42246D01*
X35678Y42244D01*
X35671Y42237D01*
X35652Y42205D01*
X35625Y42177D01*
X35606Y42144D01*
X35597Y42135D01*
X35592Y42126D01*
X35585Y42123D01*
X35578Y42112D01*
X35559Y42079D01*
X35532Y42051D01*
X35527Y42042D01*
X35506Y42012D01*
X35497Y42007D01*
X35471Y41968D01*
X35466Y41958D01*
X35448Y41940D01*
X35429Y41907D01*
X35401Y41879D01*
X35383Y41846D01*
X35364Y41828D01*
X35341Y41795D01*
X35336Y41786D01*
X35329Y41779D01*
X35308Y41754D01*
X35290Y41721D01*
X35266Y41698D01*
X35252Y41674D01*
X35232Y41653D01*
X35201Y41609D01*
X35197Y41600D01*
X35178Y41581D01*
X35159Y41549D01*
X35122Y41512D01*
X35118Y41502D01*
X35104Y41488D01*
X35085Y41484D01*
X33571Y41486D01*
X33552Y41491D01*
X33541Y41502D01*
X33546Y41521D01*
X33564Y41549D01*
X33569Y41558D01*
X33581Y41570D01*
X33601Y41595D01*
X33606Y41605D01*
X33629Y41628D01*
X33653Y41670D01*
X33676Y41693D01*
X33694Y41726D01*
X33722Y41754D01*
X33741Y41786D01*
X33769Y41814D01*
X33787Y41846D01*
X33792Y41856D01*
X33806Y41870D01*
X33829Y41902D01*
X33834Y41912D01*
X33853Y41930D01*
X33876Y41963D01*
X33881Y41972D01*
X33894Y41986D01*
X33918Y42019D01*
X33922Y42028D01*
X33946Y42051D01*
X33950Y42060D01*
X33969Y42088D01*
X33974Y42098D01*
X33981Y42100D01*
X33987Y42107D01*
X34006Y42140D01*
X34034Y42168D01*
X34057Y42209D01*
X34080Y42233D01*
X34099Y42265D01*
X34118Y42284D01*
X34141Y42316D01*
X34146Y42326D01*
X34169Y42349D01*
X34187Y42381D01*
X34204Y42398D01*
X34234Y42442D01*
X34239Y42451D01*
X34250Y42463D01*
X34271Y42488D01*
X34276Y42498D01*
X34292Y42514D01*
X34322Y42558D01*
X34327Y42568D01*
X34346Y42586D01*
X34364Y42619D01*
X34392Y42646D01*
X34411Y42679D01*
X34439Y42707D01*
X34457Y42740D01*
X34462Y42749D01*
X34476Y42763D01*
X34499Y42795D01*
X34504Y42805D01*
X34527Y42828D01*
X34541Y42851D01*
X34550Y42860D01*
X34555Y42870D01*
X34562Y42872D01*
X34587Y42912D01*
X34592Y42921D01*
X34611Y42940D01*
X34615Y42949D01*
X34639Y42981D01*
X34643Y42991D01*
X34650Y42993D01*
X34657Y43000D01*
X34676Y43033D01*
X34704Y43060D01*
X34727Y43102D01*
X34750Y43126D01*
X34769Y43158D01*
X34787Y43177D01*
X34811Y43209D01*
X34815Y43219D01*
X34839Y43242D01*
X34857Y43274D01*
X34873Y43291D01*
X34904Y43335D01*
X34908Y43344D01*
X34915Y43351D01*
X34925Y43356D01*
X34941Y43381D01*
X34945Y43391D01*
X34962Y43407D01*
X34992Y43451D01*
X34997Y43460D01*
X35015Y43479D01*
X35034Y43512D01*
X35062Y43540D01*
X35080Y43572D01*
X35104Y43595D01*
X35122Y43628D01*
X35132Y43637D01*
X35136Y43646D01*
X35145Y43656D01*
X35169Y43688D01*
X35173Y43698D01*
X35197Y43721D01*
X35211Y43744D01*
X35227Y43760D01*
X35257Y43805D01*
X35262Y43814D01*
X35280Y43833D01*
X35299Y43865D01*
X35308Y43874D01*
X35313Y43884D01*
X35320Y43886D01*
X35327Y43893D01*
X35345Y43926D01*
X35373Y43953D01*
X35397Y43995D01*
X35413Y44012D01*
X35434Y44037D01*
X35439Y44079D01*
X35429Y44102D01*
X35425Y44112D01*
X35397Y44139D01*
X35378Y44172D01*
X35373Y44181D01*
X35355Y44200D01*
X35336Y44233D01*
X35322Y44247D01*
X35290Y44288D01*
X35285Y44298D01*
X35273Y44309D01*
X35243Y44353D01*
X35239Y44363D01*
X35225Y44377D01*
X35201Y44409D01*
X35197Y44419D01*
X35190Y44426D01*
X35180Y44430D01*
X35164Y44460D01*
X35155Y44470D01*
X35150Y44479D01*
X35139Y44491D01*
X35108Y44535D01*
X35104Y44544D01*
X35097Y44551D01*
X35076Y44577D01*
X35071Y44586D01*
X35043Y44614D01*
X35025Y44647D01*
X35020Y44656D01*
X34997Y44679D01*
X34992Y44688D01*
X34973Y44716D01*
X34941Y44758D01*
X34936Y44767D01*
X34908Y44795D01*
X34890Y44828D01*
X34885Y44837D01*
X34866Y44856D01*
X34848Y44888D01*
X34829Y44907D01*
X34806Y44939D01*
X34801Y44949D01*
X34778Y44972D01*
X34760Y45005D01*
X34750Y45014D01*
X34746Y45023D01*
X34732Y45037D01*
X34713Y45070D01*
X34694Y45088D01*
X34671Y45121D01*
X34667Y45130D01*
X34657Y45139D01*
X34655Y45142D01*
X34639Y45158D01*
X34620Y45191D01*
X34615Y45200D01*
X34597Y45219D01*
X34578Y45251D01*
X34560Y45270D01*
X34536Y45302D01*
X34532Y45312D01*
X34504Y45339D01*
X34485Y45372D01*
X34480Y45381D01*
X34462Y45400D01*
X34443Y45433D01*
X34425Y45451D01*
X34401Y45484D01*
X34397Y45493D01*
X34380Y45509D01*
X34350Y45553D01*
X34346Y45563D01*
X34327Y45581D01*
X34308Y45614D01*
X34290Y45633D01*
X34267Y45665D01*
X34262Y45674D01*
X34239Y45698D01*
X34234Y45707D01*
X34215Y45735D01*
X34211Y45744D01*
X34201Y45753D01*
X34178Y45786D01*
X34174Y45795D01*
X34155Y45814D01*
X34132Y45847D01*
X34127Y45856D01*
X34104Y45879D01*
X34085Y45912D01*
X34080Y45921D01*
X34067Y45935D01*
X34043Y45967D01*
X34039Y45977D01*
X34020Y45995D01*
X33997Y46028D01*
X33992Y46037D01*
X33969Y46060D01*
X33950Y46093D01*
X33946Y46102D01*
X33932Y46116D01*
X33908Y46149D01*
X33904Y46158D01*
X33897Y46165D01*
X33887Y46170D01*
X33862Y46209D01*
X33857Y46219D01*
X33834Y46242D01*
X33815Y46274D01*
X33811Y46284D01*
X33804Y46291D01*
X33794Y46295D01*
X33767Y46342D01*
X33757Y46347D01*
X33727Y46391D01*
X33722Y46400D01*
X33706Y46416D01*
X33674Y46467D01*
X33664Y46472D01*
X33639Y46512D01*
X33634Y46521D01*
X33601Y46554D01*
X33597Y46563D01*
X33583Y46577D01*
X33578Y46600D01*
X33590Y46612D01*
X35045Y46616D01*
X35078Y46612D01*
X35097Y46607D01*
X35108Y46595D01*
X35127Y46563D01*
X35132Y46554D01*
X35150Y46535D01*
X35169Y46502D01*
X35197Y46474D01*
X35215Y46442D01*
X35243Y46414D01*
X35262Y46381D01*
X35266Y46372D01*
X35285Y46354D01*
X35304Y46321D01*
X35332Y46293D01*
X35350Y46260D01*
X35373Y46237D01*
X35392Y46205D01*
X35406Y46191D01*
X35411Y46181D01*
X35420Y46172D01*
X35439Y46139D01*
X35452Y46125D01*
X35485Y46084D01*
X35490Y46074D01*
X35513Y46051D01*
X35532Y46019D01*
X35536Y46009D01*
X35543Y46007D01*
X35573Y45963D01*
X35578Y45953D01*
X35585Y45946D01*
X35594Y45942D01*
X35620Y45902D01*
X35625Y45893D01*
X35643Y45874D01*
X35662Y45842D01*
X35685Y45819D01*
X35704Y45786D01*
X35713Y45777D01*
X35718Y45767D01*
X35725Y45765D01*
X35745Y45735D01*
X35750Y45726D01*
X35757Y45719D01*
X35778Y45693D01*
X35797Y45660D01*
X35820Y45637D01*
X35839Y45605D01*
X35857Y45586D01*
X35880Y45553D01*
X35885Y45544D01*
X35897Y45532D01*
X35927Y45488D01*
X35932Y45479D01*
X35955Y45456D01*
X35973Y45423D01*
X35997Y45400D01*
X36015Y45367D01*
X36032Y45351D01*
X36062Y45307D01*
X36067Y45298D01*
X36090Y45274D01*
X36108Y45242D01*
X36127Y45223D01*
X36150Y45191D01*
X36155Y45181D01*
X36162Y45174D01*
X36183Y45149D01*
X36187Y45139D01*
X36197Y45116D01*
X36213Y45105D01*
X36232Y45109D01*
X36250Y45128D01*
X36271Y45153D01*
X36285Y45177D01*
X36308Y45200D01*
X36327Y45233D01*
X36336Y45242D01*
X36341Y45251D01*
X36350Y45260D01*
X36373Y45293D01*
X36378Y45302D01*
X36401Y45326D01*
X36415Y45349D01*
X36443Y45377D01*
X36466Y45419D01*
X36490Y45442D01*
X36508Y45474D01*
X36536Y45502D01*
X36555Y45535D01*
X36583Y45563D01*
X36601Y45595D01*
X36606Y45605D01*
X36625Y45623D01*
X36643Y45656D01*
X36667Y45679D01*
X36690Y45712D01*
X36694Y45721D01*
X36713Y45739D01*
X36732Y45772D01*
X36753Y45793D01*
X36785Y45844D01*
X36794Y45849D01*
X36801Y45856D01*
X36820Y45888D01*
X36848Y45916D01*
X36867Y45949D01*
X36871Y45958D01*
X36885Y45972D01*
X36908Y46005D01*
X36913Y46014D01*
X36932Y46033D01*
X36955Y46065D01*
X36960Y46074D01*
X36983Y46098D01*
X37001Y46130D01*
X37008Y46137D01*
X37029Y46163D01*
X37048Y46195D01*
X37060Y46207D01*
X37069Y46212D01*
X37085Y46242D01*
X37113Y46270D01*
X37136Y46312D01*
X37160Y46335D01*
X37178Y46367D01*
X37206Y46395D01*
X37225Y46428D01*
X37248Y46451D01*
X37266Y46484D01*
X37276Y46493D01*
X37280Y46502D01*
X37294Y46516D01*
X37313Y46549D01*
X37341Y46577D01*
X37355Y46600D01*
X37371Y46612D01*
X38920Y46616D01*
X38946Y46609D01*
D02*
G37*
G36*
X55959Y49060D02*
X56080Y49056D01*
X56141Y49051D01*
X56192Y49047D01*
X56229Y49042D01*
X56252Y49037D01*
X56313Y49028D01*
X56359Y49023D01*
X56473Y49016D01*
X56492Y49012D01*
X56524Y49007D01*
X56543Y49002D01*
X56569Y48995D01*
X56587Y48991D01*
X56617Y48984D01*
X56631Y48979D01*
X56697Y48974D01*
X56715Y48970D01*
X56748Y48965D01*
X56801Y48949D01*
X56824Y48939D01*
X56855Y48932D01*
X56920Y48923D01*
X56938Y48919D01*
X56978Y48902D01*
X57001Y48893D01*
X57020Y48888D01*
X57069Y48881D01*
X57087Y48877D01*
X57141Y48851D01*
X57159Y48847D01*
X57194Y48840D01*
X57227Y48830D01*
X57276Y48805D01*
X57294Y48800D01*
X57334Y48793D01*
X57357Y48784D01*
X57385Y48765D01*
X57401Y48758D01*
X57450Y48747D01*
X57483Y48733D01*
X57494Y48721D01*
X57538Y48705D01*
X57557Y48700D01*
X57583Y48688D01*
X57620Y48665D01*
X57650Y48658D01*
X57673Y48649D01*
X57680Y48642D01*
X57717Y48619D01*
X57748Y48612D01*
X57776Y48593D01*
X57792Y48581D01*
X57822Y48570D01*
X57848Y48558D01*
X57873Y48537D01*
X57924Y48519D01*
X57931Y48512D01*
X57957Y48491D01*
X58004Y48472D01*
X58017Y48458D01*
X58069Y48430D01*
X58078Y48425D01*
X58092Y48412D01*
X58143Y48384D01*
X58152Y48379D01*
X58155Y48372D01*
X58162Y48365D01*
X58204Y48342D01*
X58213Y48337D01*
X58227Y48323D01*
X58278Y48295D01*
X58289Y48284D01*
X58294Y48274D01*
X58334Y48253D01*
X58357Y48230D01*
X58399Y48207D01*
X58415Y48191D01*
X58441Y48170D01*
X58450Y48165D01*
X58466Y48149D01*
X58492Y48128D01*
X58501Y48123D01*
X58529Y48095D01*
X58552Y48081D01*
X58585Y48049D01*
X58594Y48044D01*
X58604Y48035D01*
X58613Y48030D01*
X58641Y48002D01*
X58650Y47998D01*
X58659Y47988D01*
X58669Y47984D01*
X58706Y47947D01*
X58715Y47942D01*
X58727Y47930D01*
X58731Y47921D01*
X58743Y47909D01*
X58752Y47905D01*
X58799Y47858D01*
X58808Y47853D01*
X58815Y47846D01*
X58820Y47837D01*
X58829Y47828D01*
X58857Y47805D01*
X58862Y47795D01*
X58892Y47765D01*
X58901Y47760D01*
X58903Y47754D01*
X58913Y47744D01*
X58917Y47735D01*
X58924Y47728D01*
X58934Y47723D01*
X58950Y47707D01*
X58955Y47698D01*
X58992Y47660D01*
X58997Y47651D01*
X59022Y47626D01*
X59043Y47600D01*
X59048Y47591D01*
X59069Y47570D01*
X59089Y47544D01*
X59094Y47535D01*
X59122Y47507D01*
X59136Y47484D01*
X59169Y47451D01*
X59194Y47412D01*
X59210Y47400D01*
X59229Y47367D01*
X59234Y47358D01*
X59255Y47337D01*
X59287Y47286D01*
X59296Y47281D01*
X59303Y47270D01*
X59322Y47237D01*
X59336Y47223D01*
X59341Y47214D01*
X59352Y47202D01*
X59364Y47172D01*
X59376Y47160D01*
X59399Y47133D01*
X59410Y47102D01*
X59424Y47088D01*
X59429Y47079D01*
X59438Y47070D01*
X59443Y47060D01*
X59457Y47028D01*
X59482Y47002D01*
X59494Y46972D01*
X59503Y46949D01*
X59517Y46935D01*
X59529Y46919D01*
X59541Y46888D01*
X59578Y46832D01*
X59583Y46814D01*
X59597Y46781D01*
X59606Y46772D01*
X59617Y46756D01*
X59634Y46712D01*
X59645Y46691D01*
X59669Y46653D01*
X59676Y46619D01*
X59694Y46591D01*
X59710Y46565D01*
X59717Y46540D01*
X59736Y46498D01*
X59752Y46472D01*
X59764Y46423D01*
X59799Y46356D01*
X59810Y46302D01*
X59841Y46244D01*
X59845Y46226D01*
X59857Y46172D01*
X59875Y46130D01*
X59882Y46123D01*
X59889Y46098D01*
X59894Y46079D01*
X59899Y46047D01*
X59903Y46028D01*
X59929Y45970D01*
X59934Y45951D01*
X59941Y45912D01*
X59950Y45856D01*
X59966Y45816D01*
X59976Y45793D01*
X59983Y45749D01*
X59987Y45716D01*
X59992Y45670D01*
X60001Y45647D01*
X60027Y45626D01*
X60055Y45621D01*
X60073Y45616D01*
X60087Y45621D01*
X61192Y45619D01*
X61250Y45621D01*
X61273Y45612D01*
X61278Y45593D01*
X61276Y44051D01*
X61280Y44037D01*
X61276Y44005D01*
X61262Y43991D01*
X60069Y43993D01*
X60036Y43988D01*
X60013Y43979D01*
X60003Y43970D01*
X59994Y43946D01*
X59990Y43923D01*
X59983Y43865D01*
X59978Y43833D01*
X59973Y43814D01*
X59962Y43784D01*
X59952Y43760D01*
X59945Y43735D01*
X59941Y43716D01*
X59936Y43670D01*
X59927Y43637D01*
X59915Y43612D01*
X59906Y43588D01*
X59899Y43563D01*
X59894Y43544D01*
X59889Y43512D01*
X59864Y43453D01*
X59855Y43430D01*
X59850Y43402D01*
X59843Y43372D01*
X59813Y43314D01*
X59806Y43284D01*
X59797Y43251D01*
X59787Y43228D01*
X59776Y43216D01*
X59766Y43193D01*
X59759Y43163D01*
X59750Y43130D01*
X59741Y43121D01*
X59736Y43112D01*
X59729Y43105D01*
X59720Y43081D01*
X59713Y43046D01*
X59694Y43019D01*
X59676Y42986D01*
X59666Y42949D01*
X59634Y42902D01*
X59629Y42884D01*
X59615Y42851D01*
X59610Y42842D01*
X59601Y42833D01*
X59597Y42823D01*
X59590Y42816D01*
X59583Y42791D01*
X59573Y42768D01*
X59559Y42754D01*
X59541Y42721D01*
X59527Y42688D01*
X59522Y42679D01*
X59503Y42660D01*
X59499Y42651D01*
X59478Y42602D01*
X59469Y42598D01*
X59457Y42581D01*
X59452Y42572D01*
X59438Y42540D01*
X59424Y42526D01*
X59397Y42474D01*
X59378Y42456D01*
X59350Y42405D01*
X59331Y42386D01*
X59308Y42344D01*
X59285Y42321D01*
X59266Y42288D01*
X59259Y42281D01*
X59238Y42256D01*
X59220Y42223D01*
X59194Y42198D01*
X59171Y42161D01*
X59162Y42156D01*
X59141Y42130D01*
X59136Y42121D01*
X59115Y42100D01*
X59094Y42074D01*
X59089Y42065D01*
X59080Y42056D01*
X59076Y42046D01*
X59048Y42019D01*
X59043Y42009D01*
X59010Y41977D01*
X59006Y41968D01*
X58997Y41958D01*
X58992Y41949D01*
X58985Y41942D01*
X58976Y41937D01*
X58964Y41926D01*
X58959Y41916D01*
X58950Y41907D01*
X58945Y41898D01*
X58938Y41895D01*
X58917Y41874D01*
X58913Y41865D01*
X58892Y41844D01*
X58882Y41839D01*
X58876Y41833D01*
X58871Y41823D01*
X58850Y41802D01*
X58834Y41791D01*
X58829Y41781D01*
X58804Y41756D01*
X58794Y41751D01*
X58783Y41740D01*
X58778Y41730D01*
X58766Y41719D01*
X58757Y41714D01*
X58710Y41667D01*
X58701Y41663D01*
X58685Y41646D01*
X58680Y41637D01*
X58664Y41626D01*
X58655Y41621D01*
X58622Y41588D01*
X58613Y41584D01*
X58604Y41574D01*
X58594Y41570D01*
X58566Y41542D01*
X58557Y41537D01*
X58548Y41528D01*
X58538Y41523D01*
X58515Y41500D01*
X58492Y41486D01*
X58464Y41458D01*
X58448Y41446D01*
X58420Y41428D01*
X58415Y41419D01*
X58399Y41407D01*
X58366Y41388D01*
X58357Y41384D01*
X58338Y41365D01*
X58306Y41347D01*
X58278Y41319D01*
X58238Y41298D01*
X58213Y41277D01*
X58171Y41253D01*
X58157Y41240D01*
X58124Y41216D01*
X58106Y41212D01*
X58096Y41202D01*
X58087Y41198D01*
X58078Y41188D01*
X58055Y41175D01*
X58031Y41165D01*
X58017Y41151D01*
X57976Y41128D01*
X57952Y41119D01*
X57938Y41105D01*
X57922Y41093D01*
X57892Y41081D01*
X57866Y41070D01*
X57841Y41049D01*
X57804Y41035D01*
X57780Y41026D01*
X57771Y41016D01*
X57755Y41005D01*
X57724Y40993D01*
X57706Y40988D01*
X57678Y40970D01*
X57645Y40951D01*
X57608Y40942D01*
X57576Y40919D01*
X57552Y40909D01*
X57520Y40900D01*
X57499Y40893D01*
X57471Y40874D01*
X57441Y40863D01*
X57422Y40858D01*
X57389Y40849D01*
X57362Y40830D01*
X57345Y40823D01*
X57320Y40816D01*
X57301Y40812D01*
X57269Y40802D01*
X57229Y40781D01*
X57180Y40770D01*
X57143Y40760D01*
X57090Y40735D01*
X57055Y40728D01*
X57036Y40723D01*
X57003Y40719D01*
X56964Y40702D01*
X56941Y40693D01*
X56911Y40686D01*
X56892Y40681D01*
X56845Y40677D01*
X56806Y40665D01*
X56769Y40651D01*
X56750Y40647D01*
X56727Y40642D01*
X56659Y40635D01*
X56641Y40630D01*
X56608Y40626D01*
X56583Y40619D01*
X56527Y40605D01*
X56504Y40600D01*
X56396Y40591D01*
X56341Y40586D01*
X56299Y40581D01*
X56271Y40577D01*
X56210Y40567D01*
X56169Y40563D01*
X56073Y40556D01*
X56059Y40551D01*
X55610Y40553D01*
X55483Y40565D01*
X55464Y40570D01*
X55401Y40577D01*
X55373Y40581D01*
X55336Y40586D01*
X55255Y40593D01*
X55180Y40598D01*
X55124Y40612D01*
X55099Y40619D01*
X55080Y40623D01*
X55029Y40633D01*
X54945Y40642D01*
X54908Y40651D01*
X54878Y40663D01*
X54855Y40672D01*
X54811Y40679D01*
X54773Y40684D01*
X54750Y40688D01*
X54731Y40693D01*
X54680Y40716D01*
X54662Y40721D01*
X54618Y40728D01*
X54580Y40737D01*
X54520Y40765D01*
X54501Y40770D01*
X54469Y40774D01*
X54411Y40800D01*
X54387Y40809D01*
X54357Y40816D01*
X54338Y40821D01*
X54306Y40835D01*
X54290Y40847D01*
X54266Y40856D01*
X54231Y40863D01*
X54190Y40881D01*
X54173Y40893D01*
X54150Y40902D01*
X54120Y40909D01*
X54096Y40919D01*
X54087Y40928D01*
X54055Y40946D01*
X54036Y40951D01*
X54004Y40960D01*
X53994Y40970D01*
X53969Y40986D01*
X53938Y40998D01*
X53920Y41002D01*
X53910Y41012D01*
X53901Y41016D01*
X53890Y41028D01*
X53831Y41049D01*
X53822Y41058D01*
X53813Y41063D01*
X53804Y41072D01*
X53794Y41077D01*
X53748Y41095D01*
X53734Y41109D01*
X53692Y41133D01*
X53673Y41137D01*
X53666Y41144D01*
X53641Y41165D01*
X53631Y41170D01*
X53599Y41184D01*
X53585Y41198D01*
X53534Y41226D01*
X53515Y41244D01*
X53464Y41272D01*
X53455Y41277D01*
X53441Y41291D01*
X53408Y41309D01*
X53399Y41319D01*
X53390Y41323D01*
X53387Y41330D01*
X53380Y41337D01*
X53348Y41356D01*
X53338Y41361D01*
X53315Y41384D01*
X53283Y41402D01*
X53273Y41407D01*
X53250Y41430D01*
X53227Y41444D01*
X53199Y41472D01*
X53176Y41486D01*
X53155Y41507D01*
X53129Y41528D01*
X53120Y41533D01*
X53092Y41561D01*
X53083Y41565D01*
X53073Y41574D01*
X53064Y41579D01*
X53036Y41607D01*
X53027Y41612D01*
X53018Y41621D01*
X53008Y41626D01*
X52971Y41663D01*
X52962Y41667D01*
X52945Y41684D01*
X52941Y41693D01*
X52934Y41700D01*
X52924Y41705D01*
X52873Y41756D01*
X52864Y41761D01*
X52857Y41768D01*
X52852Y41777D01*
X52836Y41793D01*
X52827Y41798D01*
X52815Y41809D01*
X52811Y41819D01*
X52764Y41865D01*
X52759Y41874D01*
X52752Y41881D01*
X52743Y41886D01*
X52727Y41902D01*
X52722Y41912D01*
X52676Y41958D01*
X52671Y41968D01*
X52643Y41995D01*
X52638Y42005D01*
X52629Y42014D01*
X52625Y42023D01*
X52604Y42044D01*
X52583Y42070D01*
X52578Y42079D01*
X52550Y42107D01*
X52536Y42130D01*
X52508Y42158D01*
X52494Y42181D01*
X52466Y42209D01*
X52448Y42242D01*
X52438Y42251D01*
X52434Y42260D01*
X52415Y42279D01*
X52397Y42312D01*
X52392Y42321D01*
X52385Y42323D01*
X52355Y42368D01*
X52350Y42377D01*
X52331Y42395D01*
X52311Y42435D01*
X52308Y42437D01*
Y42442D01*
X52290Y42460D01*
X52262Y42512D01*
X52248Y42526D01*
X52220Y42577D01*
X52215Y42586D01*
X52201Y42600D01*
X52183Y42633D01*
X52173Y42656D01*
X52169Y42665D01*
X52155Y42679D01*
X52141Y42702D01*
X52127Y42735D01*
X52122Y42744D01*
X52113Y42754D01*
X52101Y42770D01*
X52090Y42800D01*
X52080Y42823D01*
X52071Y42833D01*
X52066Y42842D01*
X52059Y42849D01*
X52050Y42872D01*
X52043Y42898D01*
X52024Y42926D01*
X52013Y42942D01*
X52001Y42972D01*
X51992Y43005D01*
X51983Y43014D01*
X51978Y43023D01*
X51971Y43030D01*
X51962Y43053D01*
X51955Y43084D01*
X51943Y43109D01*
X51922Y43135D01*
X51908Y43191D01*
X51901Y43212D01*
X51878Y43249D01*
X51866Y43298D01*
X51852Y43330D01*
X51848Y43340D01*
X51841Y43347D01*
X51831Y43370D01*
X51827Y43393D01*
X51822Y43421D01*
X51815Y43451D01*
X51794Y43486D01*
X51785Y43509D01*
X51778Y43554D01*
X51769Y43591D01*
X51757Y43616D01*
X51743Y43653D01*
X51736Y43684D01*
X51727Y43740D01*
X51715Y43779D01*
X51699Y43823D01*
X51694Y43842D01*
X51690Y43874D01*
X51685Y43921D01*
X51676Y43958D01*
X51664Y43998D01*
X51655Y44035D01*
X51650Y44063D01*
X51643Y44149D01*
X51638Y44167D01*
X51631Y44230D01*
X51622Y44277D01*
X51617Y44295D01*
X51608Y44356D01*
X51604Y44416D01*
X51597Y44623D01*
X51592Y44781D01*
X51597Y44939D01*
X51601Y45126D01*
X51606Y45228D01*
X51613Y45291D01*
X51617Y45314D01*
X51622Y45332D01*
X51627Y45356D01*
X51636Y45412D01*
X51643Y45470D01*
X51652Y45563D01*
X51666Y45619D01*
X51673Y45644D01*
X51683Y45681D01*
X51690Y45735D01*
X51694Y45753D01*
X51699Y45786D01*
X51706Y45812D01*
X51725Y45863D01*
X51736Y45916D01*
X51741Y45949D01*
X51745Y45967D01*
X51764Y46009D01*
X51773Y46033D01*
X51783Y46093D01*
X51787Y46112D01*
X51803Y46142D01*
X51817Y46170D01*
X51822Y46193D01*
X51829Y46233D01*
X51843Y46265D01*
X51862Y46298D01*
X51876Y46354D01*
X51906Y46412D01*
X51913Y46437D01*
X51922Y46474D01*
X51945Y46507D01*
X51952Y46523D01*
X51959Y46549D01*
X51978Y46591D01*
X52001Y46632D01*
X52006Y46651D01*
X52020Y46684D01*
X52036Y46700D01*
X52052Y46744D01*
X52062Y46767D01*
X52071Y46777D01*
X52083Y46793D01*
X52099Y46837D01*
X52118Y46865D01*
X52136Y46898D01*
X52145Y46921D01*
X52155Y46930D01*
X52159Y46940D01*
X52176Y46960D01*
X52190Y46998D01*
X52210Y47023D01*
X52234Y47065D01*
X52238Y47074D01*
X52252Y47088D01*
X52257Y47098D01*
X52264Y47105D01*
X52276Y47135D01*
X52287Y47147D01*
X52308Y47172D01*
X52313Y47181D01*
X52322Y47205D01*
X52345Y47228D01*
X52369Y47270D01*
X52392Y47293D01*
X52415Y47335D01*
X52429Y47349D01*
X52452Y47381D01*
X52457Y47391D01*
X52473Y47407D01*
X52494Y47432D01*
X52499Y47442D01*
X52515Y47458D01*
X52536Y47484D01*
X52541Y47493D01*
X52569Y47521D01*
X52573Y47530D01*
X52583Y47540D01*
X52587Y47549D01*
X52615Y47577D01*
X52620Y47586D01*
X52629Y47595D01*
X52634Y47605D01*
X52655Y47626D01*
X52676Y47651D01*
X52680Y47660D01*
X52692Y47672D01*
X52701Y47677D01*
X52708Y47684D01*
X52713Y47693D01*
X52759Y47740D01*
X52764Y47749D01*
X52776Y47760D01*
X52785Y47765D01*
X52801Y47781D01*
X52806Y47791D01*
X52827Y47812D01*
X52836Y47816D01*
X52843Y47823D01*
X52848Y47832D01*
X52869Y47853D01*
X52878Y47858D01*
X52894Y47874D01*
X52899Y47884D01*
X52910Y47895D01*
X52920Y47900D01*
X52962Y47942D01*
X52971Y47947D01*
X53008Y47984D01*
X53018Y47988D01*
X53038Y48009D01*
X53064Y48030D01*
X53073Y48035D01*
X53094Y48056D01*
X53120Y48077D01*
X53129Y48081D01*
X53157Y48109D01*
X53173Y48121D01*
X53201Y48140D01*
X53206Y48149D01*
X53213Y48156D01*
X53245Y48174D01*
X53273Y48202D01*
X53315Y48225D01*
X53334Y48244D01*
X53366Y48263D01*
X53394Y48291D01*
X53427Y48309D01*
X53436Y48314D01*
X53450Y48328D01*
X53501Y48356D01*
X53520Y48374D01*
X53571Y48402D01*
X53580Y48407D01*
X53594Y48421D01*
X53611Y48432D01*
X53641Y48444D01*
X53650Y48453D01*
X53659Y48458D01*
X53673Y48472D01*
X53720Y48491D01*
X53729Y48495D01*
X53750Y48516D01*
X53780Y48528D01*
X53804Y48537D01*
X53818Y48551D01*
X53850Y48570D01*
X53869Y48574D01*
X53892Y48584D01*
X53906Y48598D01*
X53915Y48602D01*
X53922Y48609D01*
X53948Y48616D01*
X53978Y48628D01*
X54004Y48649D01*
X54020Y48656D01*
X54050Y48663D01*
X54083Y48677D01*
X54092Y48686D01*
X54108Y48698D01*
X54138Y48705D01*
X54180Y48723D01*
X54190Y48728D01*
X54197Y48735D01*
X54220Y48744D01*
X54255Y48751D01*
X54297Y48770D01*
X54306Y48774D01*
X54313Y48781D01*
X54336Y48791D01*
X54376Y48798D01*
X54452Y48833D01*
X54487Y48840D01*
X54506Y48844D01*
X54538Y48853D01*
X54578Y48874D01*
X54613Y48881D01*
X54631Y48886D01*
X54664Y48891D01*
X54683Y48895D01*
X54743Y48923D01*
X54790Y48928D01*
X54808Y48932D01*
X54841Y48937D01*
X54894Y48953D01*
X54917Y48963D01*
X54985Y48974D01*
X55031Y48979D01*
X55064Y48984D01*
X55097Y48993D01*
X55115Y48998D01*
X55141Y49005D01*
X55159Y49009D01*
X55187Y49014D01*
X55297Y49021D01*
X55329Y49026D01*
X55424Y49037D01*
X55452Y49042D01*
X55525Y49049D01*
X55538Y49053D01*
X55725Y49058D01*
X55738Y49063D01*
X55959Y49060D01*
D02*
G37*
G36*
X44134Y46612D02*
X44148Y46598D01*
X44152Y46579D01*
X44150Y43414D01*
X44145Y43381D01*
X44141Y43195D01*
X44136Y43121D01*
X44131Y43074D01*
X44124Y43012D01*
X44106Y42937D01*
X44101Y42909D01*
X44094Y42851D01*
X44090Y42833D01*
X44085Y42800D01*
X44073Y42770D01*
X44057Y42726D01*
X44053Y42707D01*
X44048Y42674D01*
X44039Y42637D01*
X44022Y42607D01*
X44013Y42584D01*
X44008Y42565D01*
X44001Y42535D01*
X43987Y42502D01*
X43964Y42460D01*
X43959Y42433D01*
X43945Y42400D01*
X43929Y42384D01*
X43918Y42354D01*
X43908Y42321D01*
X43894Y42307D01*
X43876Y42274D01*
X43862Y42242D01*
X43857Y42233D01*
X43850Y42230D01*
X43829Y42195D01*
X43820Y42172D01*
X43808Y42161D01*
X43778Y42116D01*
X43773Y42107D01*
X43750Y42084D01*
X43727Y42042D01*
X43711Y42026D01*
X43690Y42000D01*
X43685Y41991D01*
X43648Y41954D01*
X43643Y41944D01*
X43632Y41933D01*
X43622Y41928D01*
X43611Y41916D01*
X43606Y41907D01*
X43580Y41881D01*
X43571Y41877D01*
X43564Y41870D01*
X43559Y41860D01*
X43543Y41844D01*
X43534Y41839D01*
X43508Y41814D01*
X43483Y41793D01*
X43473Y41788D01*
X43446Y41761D01*
X43436Y41756D01*
X43408Y41737D01*
X43399Y41733D01*
X43380Y41714D01*
X43348Y41695D01*
X43329Y41677D01*
X43278Y41649D01*
X43269Y41644D01*
X43259Y41635D01*
X43218Y41612D01*
X43194Y41602D01*
X43185Y41593D01*
X43143Y41570D01*
X43125Y41565D01*
X43099Y41554D01*
X43062Y41530D01*
X43036Y41523D01*
X43018Y41519D01*
X42959Y41488D01*
X42941Y41484D01*
X42906Y41477D01*
X42880Y41470D01*
X42857Y41460D01*
X42829Y41446D01*
X42811Y41442D01*
X42743Y41430D01*
X42725Y41426D01*
X42692Y41416D01*
X42671Y41409D01*
X42634Y41400D01*
X42606Y41395D01*
X42525Y41388D01*
X42492Y41384D01*
X42429Y41377D01*
X42357Y41370D01*
X42343Y41365D01*
X42120Y41361D01*
X42018Y41365D01*
X41999Y41370D01*
X41936Y41377D01*
X41899Y41381D01*
X41827Y41388D01*
X41794Y41393D01*
X41748Y41398D01*
X41729Y41402D01*
X41662Y41423D01*
X41627Y41430D01*
X41608Y41435D01*
X41553Y41444D01*
X41499Y41470D01*
X41480Y41474D01*
X41427Y41486D01*
X41369Y41516D01*
X41332Y41526D01*
X41306Y41533D01*
X41273Y41556D01*
X41243Y41568D01*
X41218Y41574D01*
X41190Y41593D01*
X41173Y41605D01*
X41143Y41616D01*
X41120Y41626D01*
X41106Y41640D01*
X41073Y41658D01*
X41050Y41667D01*
X41036Y41681D01*
X40985Y41709D01*
X40962Y41733D01*
X40920Y41756D01*
X40897Y41779D01*
X40864Y41798D01*
X40848Y41814D01*
X40822Y41835D01*
X40813Y41839D01*
X40776Y41877D01*
X40766Y41881D01*
X40750Y41898D01*
X40746Y41907D01*
X40734Y41919D01*
X40692Y41942D01*
X40676Y41940D01*
X40671Y41521D01*
X40662Y41498D01*
X40655Y41491D01*
X39353Y41486D01*
X39334Y41491D01*
X39325Y41505D01*
X39320Y41533D01*
X39322Y46507D01*
X39318Y46567D01*
X39322Y46600D01*
X39334Y46612D01*
X40725Y46616D01*
X40750Y46605D01*
X40762Y46588D01*
X40760Y43614D01*
X40764Y43498D01*
X40769Y43479D01*
X40778Y43423D01*
X40783Y43405D01*
X40797Y43307D01*
X40801Y43288D01*
X40811Y43265D01*
X40818Y43258D01*
X40834Y43214D01*
X40838Y43195D01*
X40852Y43163D01*
X40857Y43154D01*
X40869Y43142D01*
X40880Y43112D01*
X40890Y43088D01*
X40908Y43070D01*
X40932Y43028D01*
X40936Y43019D01*
X40960Y42995D01*
X40973Y42972D01*
X40990Y42956D01*
X40999Y42951D01*
X41006Y42944D01*
X41011Y42935D01*
X41036Y42909D01*
X41045Y42905D01*
X41057Y42893D01*
X41062Y42884D01*
X41097Y42858D01*
X41106Y42853D01*
X41125Y42835D01*
X41157Y42816D01*
X41190Y42793D01*
X41259Y42756D01*
X41301Y42733D01*
X41339Y42723D01*
X41387Y42702D01*
X41425Y42688D01*
X41462Y42684D01*
X41490Y42679D01*
X41546Y42665D01*
X41569Y42660D01*
X41613Y42653D01*
X41631Y42649D01*
X41734Y42644D01*
X41739D01*
X41831Y42649D01*
X41878Y42653D01*
X41897Y42658D01*
X41929Y42663D01*
X41955Y42670D01*
X41973Y42674D01*
X41997Y42679D01*
X42041Y42686D01*
X42073Y42691D01*
X42143Y42723D01*
X42162Y42728D01*
X42194Y42737D01*
X42218Y42751D01*
X42250Y42770D01*
X42283Y42784D01*
X42292Y42788D01*
X42311Y42807D01*
X42343Y42826D01*
X42352Y42830D01*
X42359Y42837D01*
X42364Y42846D01*
X42371Y42849D01*
X42380Y42858D01*
X42390Y42863D01*
X42404Y42877D01*
X42413Y42881D01*
X42418Y42891D01*
X42427Y42895D01*
X42476Y42944D01*
X42480Y42954D01*
X42490Y42963D01*
X42494Y42972D01*
X42513Y42991D01*
X42536Y43023D01*
X42541Y43033D01*
X42566Y43058D01*
X42576Y43081D01*
X42587Y43112D01*
X42608Y43133D01*
X42618Y43156D01*
X42625Y43181D01*
X42662Y43260D01*
X42666Y43298D01*
X42676Y43335D01*
X42685Y43368D01*
X42697Y43407D01*
X42701Y43435D01*
X42706Y43477D01*
X42711Y46523D01*
X42708Y46581D01*
X42713Y46600D01*
X42725Y46612D01*
X44101Y46616D01*
X44134Y46612D01*
D02*
G37*
G36*
X25178Y46744D02*
X25373Y46740D01*
X25429Y46735D01*
X25467Y46730D01*
X25494Y46726D01*
X25518Y46721D01*
X25546Y46716D01*
X25622Y46705D01*
X25669Y46700D01*
X25701Y46695D01*
X25720Y46691D01*
X25787Y46670D01*
X25818Y46663D01*
X25836Y46658D01*
X25869Y46653D01*
X25887Y46649D01*
X25927Y46632D01*
X25950Y46623D01*
X25976Y46616D01*
X26013Y46607D01*
X26083Y46574D01*
X26115Y46565D01*
X26134Y46560D01*
X26157Y46547D01*
X26167Y46542D01*
X26174Y46535D01*
X26204Y46523D01*
X26222Y46519D01*
X26246Y46505D01*
X26271Y46488D01*
X26315Y46472D01*
X26329Y46458D01*
X26371Y46435D01*
X26395Y46426D01*
X26418Y46402D01*
X26460Y46379D01*
X26469Y46374D01*
X26471Y46367D01*
X26483Y46360D01*
X26525Y46337D01*
X26541Y46321D01*
X26567Y46300D01*
X26576Y46295D01*
X26597Y46274D01*
X26622Y46253D01*
X26632Y46249D01*
X26639Y46242D01*
X26643Y46233D01*
X26655Y46221D01*
X26664Y46216D01*
X26676Y46205D01*
X26681Y46195D01*
X26697Y46179D01*
X26725Y46174D01*
X26736Y46186D01*
X26741Y46502D01*
X26736Y46577D01*
X26741Y46595D01*
X26762Y46612D01*
X28060Y46616D01*
X28092Y46612D01*
X28104Y46600D01*
X28108Y44293D01*
Y44288D01*
Y41549D01*
X28104Y41502D01*
X28092Y41491D01*
X26701Y41486D01*
X26683Y41491D01*
X26671Y41507D01*
X26667Y44498D01*
X26662Y44586D01*
X26657Y44605D01*
X26653Y44637D01*
X26648Y44656D01*
X26643Y44670D01*
X26639Y44716D01*
X26634Y44735D01*
X26629Y44767D01*
X26597Y44837D01*
X26588Y44874D01*
X26578Y44898D01*
X26574Y44907D01*
X26560Y44921D01*
X26555Y44930D01*
X26546Y44953D01*
X26534Y44979D01*
X26513Y45005D01*
X26495Y45037D01*
X26490Y45047D01*
X26483Y45049D01*
X26462Y45074D01*
X26457Y45084D01*
X26425Y45116D01*
X26420Y45126D01*
X26362Y45184D01*
X26353Y45188D01*
X26332Y45209D01*
X26306Y45230D01*
X26297Y45235D01*
X26274Y45258D01*
X26232Y45281D01*
X26222Y45286D01*
X26201Y45307D01*
X26171Y45319D01*
X26139Y45332D01*
X26129Y45342D01*
X26104Y45358D01*
X26085Y45363D01*
X26055Y45370D01*
X26020Y45391D01*
X25997Y45400D01*
X25978Y45405D01*
X25939Y45412D01*
X25920Y45416D01*
X25853Y45437D01*
X25808Y45444D01*
X25794Y45449D01*
X25557Y45454D01*
X25497Y45449D01*
X25434Y45442D01*
X25411Y45437D01*
X25392Y45433D01*
X25369Y45423D01*
X25332Y45414D01*
X25304Y45409D01*
X25280Y45405D01*
X25250Y45398D01*
X25215Y45377D01*
X25185Y45365D01*
X25167Y45360D01*
X25143Y45351D01*
X25134Y45346D01*
X25118Y45330D01*
X25087Y45319D01*
X25064Y45309D01*
X25046Y45291D01*
X25004Y45267D01*
X24987Y45251D01*
X24962Y45230D01*
X24953Y45226D01*
X24941Y45214D01*
X24929Y45198D01*
X24920Y45193D01*
X24894Y45167D01*
X24890Y45158D01*
X24878Y45146D01*
X24869Y45142D01*
X24862Y45135D01*
X24848Y45112D01*
X24820Y45084D01*
X24801Y45051D01*
X24797Y45042D01*
X24787Y45033D01*
X24783Y45023D01*
X24771Y45012D01*
X24762Y44988D01*
X24750Y44958D01*
X24741Y44949D01*
X24729Y44932D01*
X24718Y44902D01*
X24713Y44884D01*
X24690Y44833D01*
X24678Y44802D01*
X24674Y44779D01*
X24667Y44735D01*
X24662Y44716D01*
X24648Y44670D01*
X24643Y44656D01*
X24639Y44619D01*
X24634Y44605D01*
X24629Y41563D01*
X24625Y41502D01*
X24618Y41495D01*
X24602Y41484D01*
X23292Y41486D01*
X23232Y41481D01*
X23208Y41491D01*
X23201Y41498D01*
X23197Y44693D01*
X23201Y44921D01*
X23206Y44967D01*
X23213Y45030D01*
X23218Y45058D01*
X23222Y45077D01*
X23232Y45123D01*
X23243Y45200D01*
X23248Y45247D01*
X23280Y45349D01*
X23285Y45367D01*
X23294Y45423D01*
X23315Y45472D01*
X23325Y45495D01*
X23336Y45544D01*
X23350Y45577D01*
X23355Y45586D01*
X23362Y45593D01*
X23374Y45623D01*
X23378Y45642D01*
X23397Y45684D01*
X23413Y45709D01*
X23429Y45753D01*
X23448Y45781D01*
X23462Y45805D01*
X23476Y45837D01*
X23481Y45847D01*
X23495Y45860D01*
X23509Y45884D01*
X23518Y45907D01*
X23527Y45916D01*
X23532Y45926D01*
X23541Y45935D01*
X23564Y45977D01*
X23588Y46000D01*
X23602Y46023D01*
X23615Y46037D01*
X23648Y46079D01*
X23653Y46088D01*
X23685Y46121D01*
X23690Y46130D01*
X23725Y46165D01*
X23748Y46193D01*
X23757Y46198D01*
X23808Y46249D01*
X23818Y46253D01*
X23841Y46277D01*
X23883Y46309D01*
X23892Y46314D01*
X23904Y46326D01*
X23929Y46347D01*
X23939Y46351D01*
X23962Y46374D01*
X24004Y46398D01*
X24022Y46416D01*
X24055Y46435D01*
X24078Y46444D01*
X24104Y46470D01*
X24134Y46481D01*
X24160Y46493D01*
X24185Y46514D01*
X24236Y46533D01*
X24260Y46547D01*
X24292Y46565D01*
X24329Y46574D01*
X24388Y46605D01*
X24413Y46612D01*
X24450Y46621D01*
X24508Y46646D01*
X24527Y46651D01*
X24557Y46658D01*
X24590Y46663D01*
X24671Y46688D01*
X24690Y46693D01*
X24713Y46698D01*
X24750Y46702D01*
X24792Y46707D01*
X24829Y46712D01*
X24853Y46716D01*
X24880Y46721D01*
X24904Y46726D01*
X24953Y46733D01*
X24967Y46737D01*
X25134Y46742D01*
X25148Y46747D01*
X25178Y46744D01*
D02*
G37*
G36*
X22692Y46612D02*
X22704Y46600D01*
X22708Y46558D01*
X22704Y46544D01*
X22706Y41537D01*
X22704Y41516D01*
X22699Y41498D01*
X22690Y41488D01*
X22671Y41484D01*
X21339Y41486D01*
X21325Y41481D01*
X21302Y41486D01*
X21283Y41491D01*
X21271Y41507D01*
X21267Y44419D01*
Y44423D01*
Y46581D01*
X21271Y46600D01*
X21288Y46612D01*
X22674Y46616D01*
X22692Y46612D01*
D02*
G37*
G36*
X31295Y46735D02*
X31434Y46730D01*
X31481Y46726D01*
X31606Y46712D01*
X31687Y46705D01*
X31734Y46700D01*
X31813Y46691D01*
X31832Y46686D01*
X31864Y46677D01*
X31890Y46670D01*
X31913Y46665D01*
X31941Y46660D01*
X31983Y46656D01*
X32029Y46646D01*
X32053Y46637D01*
X32090Y46623D01*
X32108Y46619D01*
X32153Y46612D01*
X32185Y46602D01*
X32211Y46591D01*
X32269Y46570D01*
X32301Y46565D01*
X32325Y46556D01*
X32355Y46540D01*
X32378Y46530D01*
X32408Y46523D01*
X32450Y46505D01*
X32459Y46500D01*
X32466Y46493D01*
X32490Y46484D01*
X32520Y46477D01*
X32543Y46467D01*
X32553Y46458D01*
X32578Y46442D01*
X32604Y46435D01*
X32627Y46426D01*
X32636Y46421D01*
X32646Y46412D01*
X32662Y46400D01*
X32692Y46388D01*
X32718Y46377D01*
X32743Y46356D01*
X32752Y46351D01*
X32785Y46337D01*
X32794Y46333D01*
X32808Y46319D01*
X32841Y46300D01*
X32864Y46291D01*
X32883Y46272D01*
X32925Y46249D01*
X32948Y46226D01*
X32980Y46207D01*
X32990Y46202D01*
X33004Y46188D01*
X33036Y46165D01*
X33046Y46160D01*
X33062Y46144D01*
X33087Y46123D01*
X33097Y46119D01*
X33129Y46086D01*
X33139Y46081D01*
X33171Y46049D01*
X33180Y46044D01*
X33227Y45998D01*
X33236Y45993D01*
X33336Y45893D01*
X33341Y45884D01*
X33378Y45847D01*
X33383Y45837D01*
X33420Y45800D01*
X33425Y45791D01*
X33453Y45763D01*
X33466Y45739D01*
X33499Y45707D01*
X33518Y45674D01*
X33522Y45665D01*
X33541Y45647D01*
X33564Y45605D01*
X33587Y45581D01*
X33611Y45539D01*
X33615Y45530D01*
X33629Y45516D01*
X33657Y45465D01*
X33662Y45456D01*
X33674Y45444D01*
X33706Y45379D01*
X33727Y45353D01*
X33734Y45337D01*
X33741Y45312D01*
X33760Y45284D01*
X33778Y45251D01*
X33783Y45233D01*
X33794Y45202D01*
X33813Y45174D01*
X33825Y45144D01*
X33839Y45098D01*
X33862Y45060D01*
X33876Y45005D01*
X33897Y44956D01*
X33906Y44932D01*
X33918Y44879D01*
X33934Y44826D01*
X33953Y44774D01*
X33964Y44698D01*
X33969Y44679D01*
X33985Y44626D01*
X33990Y44607D01*
X33999Y44556D01*
X34006Y44484D01*
X34011Y44451D01*
X34018Y44388D01*
X34027Y44333D01*
X34032Y44295D01*
X34039Y44195D01*
X34043Y44181D01*
X34041Y44165D01*
X34043Y43967D01*
X34039Y43949D01*
X34043Y43935D01*
X34041Y43914D01*
X34036Y43849D01*
X34032Y43798D01*
X34027Y43760D01*
X34020Y43721D01*
X34015Y43702D01*
X34011Y43656D01*
X34006Y43623D01*
X33997Y43521D01*
X33987Y43484D01*
X33971Y43430D01*
X33967Y43412D01*
X33960Y43363D01*
X33955Y43344D01*
X33950Y43312D01*
X33941Y43288D01*
X33925Y43249D01*
X33908Y43172D01*
X33887Y43123D01*
X33874Y43086D01*
X33869Y43067D01*
X33862Y43037D01*
X33841Y43002D01*
X33832Y42979D01*
X33825Y42954D01*
X33806Y42912D01*
X33801Y42902D01*
X33794Y42895D01*
X33774Y42837D01*
X33760Y42814D01*
X33748Y42798D01*
X33736Y42768D01*
X33722Y42735D01*
X33713Y42726D01*
X33690Y42684D01*
X33681Y42660D01*
X33667Y42646D01*
X33648Y42614D01*
X33639Y42591D01*
X33620Y42572D01*
X33615Y42563D01*
X33608Y42556D01*
X33597Y42526D01*
X33569Y42498D01*
X33550Y42465D01*
X33546Y42456D01*
X33534Y42444D01*
X33504Y42400D01*
X33499Y42391D01*
X33476Y42368D01*
X33462Y42344D01*
X33429Y42312D01*
X33425Y42302D01*
X33387Y42265D01*
X33383Y42256D01*
X33341Y42214D01*
X33336Y42205D01*
X33315Y42184D01*
X33306Y42179D01*
X33304Y42172D01*
X33236Y42105D01*
X33227Y42100D01*
X33185Y42058D01*
X33176Y42053D01*
X33155Y42033D01*
X33150Y42023D01*
X33139Y42016D01*
X33129Y42012D01*
X33108Y41991D01*
X33083Y41970D01*
X33073Y41965D01*
X33055Y41947D01*
X33022Y41923D01*
X33013Y41919D01*
X32990Y41895D01*
X32957Y41877D01*
X32948Y41872D01*
X32929Y41853D01*
X32887Y41830D01*
X32869Y41812D01*
X32836Y41793D01*
X32813Y41784D01*
X32806Y41777D01*
X32780Y41756D01*
X32771Y41751D01*
X32739Y41737D01*
X32729Y41733D01*
X32720Y41723D01*
X32694Y41707D01*
X32669Y41700D01*
X32641Y41681D01*
X32625Y41670D01*
X32580Y41653D01*
X32557Y41644D01*
X32541Y41628D01*
X32518Y41619D01*
X32492Y41612D01*
X32450Y41593D01*
X32425Y41577D01*
X32387Y41568D01*
X32357Y41561D01*
X32322Y41540D01*
X32299Y41530D01*
X32246Y41519D01*
X32197Y41498D01*
X32167Y41486D01*
X32148Y41481D01*
X32115Y41477D01*
X32097Y41472D01*
X32043Y41456D01*
X32020Y41446D01*
X32001Y41442D01*
X31974Y41437D01*
X31915Y41430D01*
X31878Y41421D01*
X31853Y41414D01*
X31815Y41405D01*
X31760Y41395D01*
X31643Y41386D01*
X31597Y41381D01*
X31515Y41374D01*
X31501Y41370D01*
X31413Y41365D01*
X31399Y41361D01*
X31136Y41363D01*
X31076Y41368D01*
X31034Y41372D01*
X30988Y41377D01*
X30946Y41381D01*
X30899Y41386D01*
X30794Y41393D01*
X30776Y41398D01*
X30720Y41407D01*
X30694Y41414D01*
X30639Y41428D01*
X30611Y41433D01*
X30569Y41437D01*
X30541Y41442D01*
X30522Y41446D01*
X30485Y41460D01*
X30462Y41470D01*
X30443Y41474D01*
X30399Y41481D01*
X30353Y41495D01*
X30327Y41507D01*
X30283Y41523D01*
X30250Y41528D01*
X30171Y41565D01*
X30143Y41570D01*
X30101Y41588D01*
X30092Y41593D01*
X30085Y41600D01*
X30062Y41609D01*
X30032Y41616D01*
X30008Y41626D01*
X29999Y41635D01*
X29990Y41640D01*
X29983Y41646D01*
X29953Y41658D01*
X29920Y41667D01*
X29906Y41681D01*
X29897Y41686D01*
X29890Y41693D01*
X29860Y41705D01*
X29836Y41714D01*
X29829Y41721D01*
X29792Y41744D01*
X29762Y41756D01*
X29748Y41770D01*
X29688Y41802D01*
X29669Y41821D01*
X29627Y41844D01*
X29608Y41863D01*
X29557Y41891D01*
X29534Y41914D01*
X29532Y41916D01*
X29515Y41928D01*
X29506Y41933D01*
X29490Y41949D01*
X29464Y41970D01*
X29455Y41974D01*
X29439Y41991D01*
X29413Y42012D01*
X29404Y42016D01*
X29371Y42049D01*
X29362Y42053D01*
X29348Y42067D01*
X29339Y42072D01*
X29332Y42079D01*
X29320Y42095D01*
X29311Y42100D01*
X29192Y42219D01*
X29188Y42228D01*
X29155Y42260D01*
X29150Y42270D01*
X29141Y42279D01*
X29136Y42288D01*
X29118Y42307D01*
X29085Y42349D01*
X29081Y42358D01*
X29074Y42365D01*
X29064Y42370D01*
X29043Y42400D01*
X29039Y42409D01*
X29011Y42437D01*
X28992Y42470D01*
X28988Y42479D01*
X28974Y42493D01*
X28950Y42535D01*
X28936Y42549D01*
X28913Y42581D01*
X28908Y42600D01*
X28899Y42609D01*
X28895Y42619D01*
X28878Y42635D01*
X28862Y42679D01*
X28850Y42691D01*
X28832Y42719D01*
X28813Y42765D01*
X28792Y42791D01*
X28788Y42800D01*
X28778Y42823D01*
X28760Y42865D01*
X28748Y42881D01*
X28739Y42905D01*
X28732Y42930D01*
X28718Y42963D01*
X28695Y43005D01*
X28685Y43042D01*
X28662Y43093D01*
X28655Y43109D01*
X28643Y43158D01*
X28639Y43177D01*
X28613Y43235D01*
X28608Y43253D01*
X28601Y43284D01*
X28597Y43316D01*
X28592Y43335D01*
X28567Y43416D01*
X28557Y43472D01*
X28553Y43514D01*
X28548Y43542D01*
X28539Y43588D01*
X28529Y43626D01*
X28520Y43681D01*
X28515Y43728D01*
X28508Y43879D01*
X28504Y44009D01*
X28508Y44181D01*
X28513Y44326D01*
X28518Y44386D01*
X28525Y44449D01*
X28529Y44472D01*
X28543Y44528D01*
X28548Y44551D01*
X28555Y44619D01*
X28560Y44637D01*
X28564Y44670D01*
X28590Y44751D01*
X28595Y44770D01*
X28601Y44814D01*
X28606Y44833D01*
X28615Y44865D01*
X28639Y44916D01*
X28643Y44944D01*
X28648Y44963D01*
X28657Y44995D01*
X28683Y45044D01*
X28688Y45063D01*
X28692Y45086D01*
X28699Y45112D01*
X28722Y45144D01*
X28732Y45167D01*
X28736Y45186D01*
X28755Y45228D01*
X28774Y45260D01*
X28783Y45284D01*
X28788Y45302D01*
X28797Y45312D01*
X28801Y45321D01*
X28811Y45330D01*
X28815Y45339D01*
X28834Y45386D01*
X28839Y45395D01*
X28848Y45405D01*
X28881Y45465D01*
X28885Y45474D01*
X28895Y45484D01*
X28922Y45535D01*
X28946Y45558D01*
X28969Y45600D01*
X28974Y45609D01*
X28988Y45623D01*
X29006Y45656D01*
X29029Y45679D01*
X29041Y45695D01*
X29060Y45723D01*
X29069Y45728D01*
X29095Y45763D01*
X29099Y45772D01*
X29127Y45800D01*
X29132Y45809D01*
X29141Y45819D01*
X29146Y45828D01*
X29178Y45860D01*
X29183Y45870D01*
X29297Y45984D01*
X29313Y45995D01*
X29318Y46005D01*
X29334Y46021D01*
X29343Y46026D01*
X29369Y46051D01*
X29395Y46072D01*
X29404Y46077D01*
X29418Y46091D01*
X29427Y46095D01*
X29446Y46114D01*
X29469Y46128D01*
X29483Y46142D01*
X29525Y46174D01*
X29534Y46179D01*
X29536Y46186D01*
X29548Y46198D01*
X29581Y46216D01*
X29590Y46221D01*
X29597Y46228D01*
X29622Y46249D01*
X29632Y46253D01*
X29655Y46263D01*
X29678Y46286D01*
X29729Y46314D01*
X29739Y46319D01*
X29748Y46328D01*
X29780Y46347D01*
X29806Y46358D01*
X29832Y46379D01*
X29883Y46398D01*
X29897Y46412D01*
X29939Y46435D01*
X29966Y46439D01*
X29994Y46458D01*
X30027Y46477D01*
X30078Y46491D01*
X30085Y46498D01*
X30113Y46516D01*
X30150Y46526D01*
X30180Y46533D01*
X30215Y46554D01*
X30239Y46563D01*
X30292Y46574D01*
X30341Y46595D01*
X30364Y46605D01*
X30383Y46609D01*
X30422Y46616D01*
X30441Y46621D01*
X30480Y46632D01*
X30518Y46646D01*
X30536Y46651D01*
X30564Y46656D01*
X30622Y46663D01*
X30641Y46667D01*
X30673Y46677D01*
X30699Y46684D01*
X30718Y46688D01*
X30778Y46698D01*
X30825Y46702D01*
X30890Y46707D01*
X30973Y46716D01*
X31050Y46723D01*
X31064Y46728D01*
X31222Y46733D01*
X31236Y46737D01*
X31295Y46735D01*
D02*
G37*
G36*
X18783D02*
X18948Y46728D01*
X19053Y46716D01*
X19090Y46712D01*
X19199Y46705D01*
X19232Y46700D01*
X19295Y46693D01*
X19318Y46688D01*
X19392Y46670D01*
X19422Y46663D01*
X19455Y46658D01*
X19511Y46649D01*
X19550Y46637D01*
X19588Y46623D01*
X19641Y46612D01*
X19660Y46607D01*
X19708Y46586D01*
X19732Y46577D01*
X19785Y46565D01*
X19818Y46551D01*
X19827Y46547D01*
X19834Y46540D01*
X19878Y46523D01*
X19897Y46519D01*
X19920Y46509D01*
X19936Y46493D01*
X19974Y46479D01*
X19999Y46472D01*
X20013Y46458D01*
X20055Y46435D01*
X20078Y46426D01*
X20088Y46421D01*
X20101Y46407D01*
X20125Y46393D01*
X20148Y46384D01*
X20171Y46360D01*
X20213Y46337D01*
X20236Y46314D01*
X20269Y46295D01*
X20290Y46274D01*
X20315Y46253D01*
X20325Y46249D01*
X20332Y46242D01*
X20336Y46233D01*
X20348Y46221D01*
X20357Y46216D01*
X20429Y46144D01*
X20434Y46135D01*
X20450Y46119D01*
X20460Y46114D01*
X20481Y46084D01*
X20485Y46074D01*
X20499Y46060D01*
X20522Y46028D01*
X20527Y46019D01*
X20546Y46000D01*
X20574Y45949D01*
X20587Y45935D01*
X20611Y45893D01*
X20620Y45870D01*
X20629Y45860D01*
X20634Y45851D01*
X20641Y45844D01*
X20657Y45800D01*
X20671Y45767D01*
X20683Y45756D01*
X20692Y45732D01*
X20699Y45707D01*
X20704Y45688D01*
X20725Y45640D01*
X20734Y45616D01*
X20741Y45577D01*
X20746Y45558D01*
X20750Y45526D01*
X20760Y45493D01*
X20764Y45474D01*
X20774Y45451D01*
X20778Y45414D01*
X20783Y45400D01*
X20788Y45256D01*
X20792Y45242D01*
X20788Y45060D01*
X20783Y44958D01*
X20778Y44939D01*
X20774Y44907D01*
X20769Y44888D01*
X20762Y44863D01*
X20757Y44844D01*
X20746Y44795D01*
X20741Y44777D01*
X20736Y44744D01*
X20704Y44674D01*
X20699Y44656D01*
X20685Y44609D01*
X20676Y44600D01*
X20671Y44591D01*
X20664Y44584D01*
X20643Y44526D01*
X20629Y44512D01*
X20597Y44451D01*
X20578Y44433D01*
X20560Y44400D01*
X20532Y44372D01*
X20518Y44349D01*
X20501Y44333D01*
X20492Y44328D01*
X20469Y44295D01*
X20460Y44291D01*
X20434Y44265D01*
X20429Y44256D01*
X20422Y44254D01*
X20376Y44207D01*
X20367Y44202D01*
X20357Y44193D01*
X20348Y44188D01*
X20346Y44181D01*
X20320Y44160D01*
X20311Y44156D01*
X20288Y44133D01*
X20246Y44109D01*
X20236Y44100D01*
X20227Y44095D01*
X20218Y44086D01*
X20176Y44063D01*
X20157Y44044D01*
X20125Y44026D01*
X20092Y44012D01*
X20078Y43998D01*
X20055Y43984D01*
X20006Y43963D01*
X19981Y43942D01*
X19962Y43937D01*
X19911Y43914D01*
X19885Y43898D01*
X19860Y43891D01*
X19818Y43872D01*
X19808Y43868D01*
X19801Y43861D01*
X19771Y43849D01*
X19753Y43844D01*
X19720Y43835D01*
X19674Y43807D01*
X19646Y43802D01*
X19609Y43793D01*
X19539Y43760D01*
X19511Y43756D01*
X19492Y43751D01*
X19441Y43728D01*
X19425Y43721D01*
X19406Y43716D01*
X19371Y43709D01*
X19339Y43700D01*
X19313Y43688D01*
X19276Y43674D01*
X19241Y43667D01*
X19204Y43658D01*
X19146Y43633D01*
X19127Y43628D01*
X19104Y43623D01*
X19064Y43616D01*
X19016Y43595D01*
X18992Y43586D01*
X18969Y43581D01*
X18929Y43574D01*
X18881Y43554D01*
X18857Y43544D01*
X18785Y43528D01*
X18718Y43498D01*
X18699Y43493D01*
X18669Y43486D01*
X18650Y43481D01*
X18592Y43451D01*
X18574Y43446D01*
X18543Y43439D01*
X18511Y43426D01*
X18499Y43414D01*
X18476Y43405D01*
X18450Y43398D01*
X18418Y43384D01*
X18408Y43374D01*
X18376Y43356D01*
X18357Y43351D01*
X18325Y43328D01*
X18283Y43305D01*
X18274Y43295D01*
X18232Y43263D01*
X18223Y43258D01*
X18202Y43237D01*
X18197Y43228D01*
X18190Y43226D01*
X18169Y43205D01*
X18146Y43172D01*
X18141Y43163D01*
X18127Y43149D01*
X18109Y43116D01*
X18071Y43037D01*
X18067Y42879D01*
X18071Y42846D01*
X18081Y42814D01*
X18092Y42793D01*
X18104Y42763D01*
X18123Y42721D01*
X18155Y42679D01*
X18160Y42670D01*
X18181Y42649D01*
X18190Y42644D01*
X18211Y42623D01*
X18236Y42602D01*
X18276Y42581D01*
X18302Y42561D01*
X18318Y42554D01*
X18343Y42547D01*
X18367Y42537D01*
X18408Y42514D01*
X18453Y42507D01*
X18508Y42498D01*
X18532Y42493D01*
X18550Y42488D01*
X18597Y42479D01*
X18639Y42474D01*
X18713Y42470D01*
X18850Y42472D01*
X18869Y42477D01*
X18932Y42484D01*
X18978Y42493D01*
X19034Y42502D01*
X19076Y42507D01*
X19120Y42514D01*
X19169Y42535D01*
X19192Y42544D01*
X19216Y42549D01*
X19246Y42556D01*
X19276Y42568D01*
X19313Y42591D01*
X19339Y42598D01*
X19364Y42609D01*
X19390Y42630D01*
X19399Y42635D01*
X19432Y42649D01*
X19446Y42663D01*
X19478Y42686D01*
X19488Y42691D01*
X19511Y42714D01*
X19520Y42719D01*
X19529Y42728D01*
X19539Y42733D01*
X19611Y42805D01*
X19615Y42814D01*
X19625Y42823D01*
X19629Y42833D01*
X19657Y42860D01*
X19676Y42893D01*
X19695Y42912D01*
X19718Y42954D01*
X19729Y42979D01*
X19750Y43005D01*
X19760Y43028D01*
X19764Y43046D01*
X19776Y43072D01*
X19794Y43100D01*
X19799Y43119D01*
X19806Y43158D01*
X19818Y43170D01*
X19850Y43174D01*
X19927Y43140D01*
X19953Y43133D01*
X19990Y43123D01*
X20025Y43102D01*
X20048Y43093D01*
X20067Y43088D01*
X20097Y43081D01*
X20155Y43051D01*
X20204Y43039D01*
X20236Y43026D01*
X20276Y43005D01*
X20294Y43000D01*
X20325Y42993D01*
X20355Y42981D01*
X20383Y42963D01*
X20408Y42956D01*
X20446Y42947D01*
X20478Y42933D01*
X20485Y42926D01*
X20508Y42916D01*
X20534Y42909D01*
X20571Y42900D01*
X20606Y42879D01*
X20629Y42870D01*
X20648Y42865D01*
X20678Y42858D01*
X20736Y42828D01*
X20785Y42816D01*
X20818Y42802D01*
X20827Y42798D01*
X20834Y42791D01*
X20864Y42779D01*
X20920Y42765D01*
X20964Y42740D01*
X20990Y42733D01*
X21013Y42723D01*
X21020Y42716D01*
X21025Y42693D01*
X21018Y42672D01*
X21006Y42623D01*
X20969Y42544D01*
X20955Y42498D01*
X20946Y42488D01*
X20922Y42446D01*
X20918Y42433D01*
Y42428D01*
X20909Y42405D01*
X20899Y42395D01*
X20876Y42354D01*
X20867Y42330D01*
X20853Y42316D01*
X20825Y42265D01*
X20820Y42256D01*
X20801Y42237D01*
X20783Y42205D01*
X20760Y42181D01*
X20741Y42149D01*
X20727Y42135D01*
X20722Y42126D01*
X20715Y42123D01*
X20694Y42093D01*
X20690Y42084D01*
X20653Y42046D01*
X20648Y42037D01*
X20632Y42021D01*
X20622Y42016D01*
X20615Y42009D01*
X20611Y42000D01*
X20585Y41974D01*
X20576Y41970D01*
X20564Y41958D01*
X20560Y41949D01*
X20548Y41937D01*
X20539Y41933D01*
X20518Y41916D01*
X20513Y41907D01*
X20474Y41877D01*
X20464Y41872D01*
X20441Y41849D01*
X20408Y41830D01*
X20390Y41812D01*
X20357Y41788D01*
X20348Y41784D01*
X20329Y41765D01*
X20278Y41737D01*
X20269Y41733D01*
X20255Y41719D01*
X20232Y41705D01*
X20199Y41691D01*
X20190Y41686D01*
X20174Y41670D01*
X20143Y41658D01*
X20120Y41649D01*
X20111Y41644D01*
X20101Y41635D01*
X20069Y41616D01*
X20032Y41607D01*
X20008Y41593D01*
X19999Y41588D01*
X19992Y41581D01*
X19969Y41572D01*
X19939Y41565D01*
X19885Y41540D01*
X19862Y41530D01*
X19832Y41523D01*
X19813Y41519D01*
X19764Y41498D01*
X19741Y41488D01*
X19711Y41481D01*
X19678Y41477D01*
X19641Y41467D01*
X19602Y41451D01*
X19576Y41444D01*
X19562Y41439D01*
X19506Y41435D01*
X19488Y41430D01*
X19455Y41426D01*
X19436Y41421D01*
X19397Y41409D01*
X19350Y41400D01*
X19313Y41395D01*
X19202Y41386D01*
X19136Y41381D01*
X19055Y41374D01*
X19041Y41370D01*
X18920Y41365D01*
X18906Y41361D01*
X18685Y41363D01*
X18588Y41368D01*
X18527Y41372D01*
X18499Y41377D01*
X18453Y41381D01*
X18353Y41388D01*
X18306Y41393D01*
X18243Y41400D01*
X18220Y41405D01*
X18164Y41419D01*
X18141Y41423D01*
X18085Y41433D01*
X18032Y41439D01*
X18013Y41444D01*
X17974Y41456D01*
X17923Y41474D01*
X17878Y41481D01*
X17841Y41491D01*
X17788Y41516D01*
X17769Y41521D01*
X17746Y41526D01*
X17716Y41533D01*
X17681Y41554D01*
X17657Y41563D01*
X17632Y41570D01*
X17613Y41574D01*
X17590Y41588D01*
X17581Y41593D01*
X17574Y41600D01*
X17529Y41616D01*
X17506Y41626D01*
X17497Y41630D01*
X17481Y41646D01*
X17450Y41658D01*
X17427Y41667D01*
X17418Y41672D01*
X17408Y41681D01*
X17348Y41714D01*
X17334Y41728D01*
X17283Y41756D01*
X17260Y41779D01*
X17227Y41798D01*
X17199Y41826D01*
X17176Y41839D01*
X17143Y41872D01*
X17134Y41877D01*
X17097Y41914D01*
X17088Y41919D01*
X17039Y41968D01*
X17034Y41977D01*
X16997Y42014D01*
X16992Y42023D01*
X16983Y42033D01*
X16978Y42042D01*
X16971Y42049D01*
X16962Y42053D01*
X16941Y42088D01*
X16918Y42112D01*
X16904Y42135D01*
X16857Y42200D01*
X16853Y42219D01*
X16843Y42228D01*
X16839Y42237D01*
X16832Y42239D01*
X16816Y42270D01*
X16797Y42312D01*
X16792Y42321D01*
X16781Y42333D01*
X16769Y42363D01*
X16760Y42395D01*
X16743Y42426D01*
X16729Y42453D01*
X16723Y42488D01*
X16713Y42521D01*
X16690Y42572D01*
X16685Y42586D01*
X16681Y42628D01*
X16676Y42646D01*
X16671Y42679D01*
X16662Y42716D01*
X16655Y42742D01*
X16646Y42788D01*
X16641Y42826D01*
X16634Y42963D01*
X16639Y43191D01*
X16646Y43253D01*
X16650Y43272D01*
X16655Y43300D01*
X16660Y43319D01*
X16664Y43342D01*
X16669Y43361D01*
X16674Y43384D01*
X16681Y43433D01*
X16690Y43470D01*
X16702Y43500D01*
X16716Y43528D01*
X16723Y43558D01*
X16727Y43577D01*
X16741Y43609D01*
X16746Y43619D01*
X16753Y43626D01*
X16769Y43670D01*
X16778Y43693D01*
X16783Y43702D01*
X16792Y43712D01*
X16811Y43744D01*
X16825Y43777D01*
X16839Y43791D01*
X16862Y43833D01*
X16881Y43851D01*
X16904Y43884D01*
X16909Y43893D01*
X16936Y43921D01*
X16941Y43930D01*
X16950Y43939D01*
X16955Y43949D01*
X16992Y43986D01*
X16997Y43995D01*
X17013Y44012D01*
X17023Y44016D01*
X17053Y44047D01*
X17078Y44068D01*
X17088Y44072D01*
X17102Y44086D01*
X17143Y44119D01*
X17153Y44123D01*
X17176Y44146D01*
X17208Y44165D01*
X17227Y44184D01*
X17278Y44212D01*
X17288Y44221D01*
X17320Y44244D01*
X17339Y44249D01*
X17388Y44284D01*
X17418Y44295D01*
X17441Y44305D01*
X17450Y44314D01*
X17492Y44337D01*
X17511Y44342D01*
X17536Y44353D01*
X17574Y44377D01*
X17604Y44384D01*
X17627Y44393D01*
X17655Y44412D01*
X17685Y44423D01*
X17708Y44428D01*
X17734Y44435D01*
X17769Y44456D01*
X17792Y44465D01*
X17823Y44472D01*
X17855Y44481D01*
X17916Y44509D01*
X17943Y44514D01*
X17962Y44519D01*
X17995Y44528D01*
X18020Y44539D01*
X18057Y44553D01*
X18097Y44560D01*
X18134Y44570D01*
X18155Y44577D01*
X18202Y44595D01*
X18220Y44600D01*
X18260Y44607D01*
X18297Y44616D01*
X18327Y44628D01*
X18350Y44637D01*
X18376Y44644D01*
X18395Y44649D01*
X18427Y44654D01*
X18464Y44663D01*
X18488Y44672D01*
X18513Y44684D01*
X18567Y44695D01*
X18599Y44700D01*
X18629Y44712D01*
X18653Y44721D01*
X18683Y44732D01*
X18701Y44737D01*
X18757Y44746D01*
X18811Y44772D01*
X18860Y44784D01*
X18878Y44788D01*
X18936Y44814D01*
X18960Y44823D01*
X18985Y44830D01*
X19027Y44849D01*
X19053Y44865D01*
X19078Y44872D01*
X19111Y44886D01*
X19125Y44900D01*
X19176Y44928D01*
X19218Y44960D01*
X19227Y44965D01*
X19299Y45037D01*
X19318Y45070D01*
X19336Y45098D01*
X19353Y45123D01*
X19357Y45142D01*
X19364Y45209D01*
X19369Y45223D01*
X19367Y45281D01*
X19360Y45349D01*
X19350Y45386D01*
X19332Y45414D01*
X19304Y45465D01*
X19299Y45474D01*
X19276Y45493D01*
X19271Y45502D01*
X19241Y45532D01*
X19232Y45537D01*
X19197Y45558D01*
X19169Y45581D01*
X19143Y45588D01*
X19120Y45598D01*
X19090Y45614D01*
X19067Y45623D01*
X18955Y45642D01*
X18915Y45649D01*
X18901Y45654D01*
X18813Y45658D01*
X18799Y45663D01*
X18713Y45660D01*
X18671Y45656D01*
X18648Y45651D01*
X18620Y45647D01*
X18597Y45642D01*
X18569Y45637D01*
X18492Y45626D01*
X18450Y45607D01*
X18415Y45591D01*
X18385Y45584D01*
X18362Y45574D01*
X18353Y45565D01*
X18292Y45532D01*
X18283Y45523D01*
X18241Y45491D01*
X18232Y45486D01*
X18190Y45444D01*
X18181Y45440D01*
X18174Y45433D01*
X18169Y45423D01*
X18155Y45409D01*
X18150Y45400D01*
X18139Y45388D01*
X18118Y45363D01*
X18099Y45330D01*
X18081Y45312D01*
X18067Y45288D01*
X18048Y45247D01*
X18025Y45214D01*
X18020Y45186D01*
X18006Y45153D01*
X17983Y45144D01*
X17953Y45146D01*
X17929Y45156D01*
X17888Y45179D01*
X17832Y45193D01*
X17792Y45214D01*
X17769Y45223D01*
X17720Y45235D01*
X17695Y45247D01*
X17667Y45265D01*
X17641Y45272D01*
X17604Y45281D01*
X17571Y45295D01*
X17564Y45302D01*
X17541Y45312D01*
X17515Y45319D01*
X17478Y45328D01*
X17443Y45349D01*
X17420Y45358D01*
X17401Y45363D01*
X17371Y45370D01*
X17313Y45400D01*
X17264Y45412D01*
X17232Y45426D01*
X17222Y45430D01*
X17215Y45437D01*
X17192Y45447D01*
X17174Y45451D01*
X17143Y45458D01*
X17113Y45470D01*
X17085Y45488D01*
X17060Y45495D01*
X17023Y45505D01*
X16990Y45519D01*
X16983Y45526D01*
X16960Y45535D01*
X16911Y45546D01*
X16853Y45577D01*
X16827Y45584D01*
X16804Y45593D01*
X16795Y45598D01*
X16783Y45619D01*
X16788Y45633D01*
X16804Y45663D01*
X16816Y45712D01*
X16834Y45753D01*
X16846Y45770D01*
X16857Y45800D01*
X16867Y45833D01*
X16881Y45847D01*
X16885Y45856D01*
X16892Y45863D01*
X16909Y45907D01*
X16918Y45916D01*
X16923Y45926D01*
X16936Y45939D01*
X16941Y45949D01*
X16950Y45972D01*
X16974Y45995D01*
X16992Y46028D01*
X17002Y46037D01*
X17006Y46047D01*
X17020Y46060D01*
X17043Y46093D01*
X17048Y46102D01*
X17055Y46109D01*
X17064Y46114D01*
X17071Y46121D01*
X17076Y46130D01*
X17085Y46139D01*
X17090Y46149D01*
X17097Y46156D01*
X17106Y46160D01*
X17115Y46170D01*
X17139Y46198D01*
X17148Y46202D01*
X17178Y46233D01*
X17204Y46253D01*
X17213Y46258D01*
X17241Y46286D01*
X17283Y46309D01*
X17306Y46333D01*
X17339Y46351D01*
X17357Y46370D01*
X17418Y46402D01*
X17432Y46416D01*
X17464Y46435D01*
X17488Y46444D01*
X17497Y46449D01*
X17506Y46458D01*
X17539Y46477D01*
X17557Y46481D01*
X17581Y46491D01*
X17588Y46498D01*
X17615Y46516D01*
X17641Y46523D01*
X17660Y46528D01*
X17692Y46542D01*
X17704Y46554D01*
X17727Y46563D01*
X17757Y46570D01*
X17795Y46579D01*
X17843Y46605D01*
X17862Y46609D01*
X17906Y46616D01*
X17939Y46625D01*
X17969Y46637D01*
X17992Y46646D01*
X18011Y46651D01*
X18097Y46663D01*
X18134Y46672D01*
X18167Y46681D01*
X18192Y46688D01*
X18248Y46698D01*
X18299Y46702D01*
X18385Y46709D01*
X18418Y46714D01*
X18520Y46723D01*
X18534Y46728D01*
X18720Y46733D01*
X18734Y46737D01*
X18783Y46735D01*
D02*
G37*
G36*
X47566Y64416D02*
X47742Y64398D01*
X47909Y64361D01*
X48066Y64315D01*
X48204Y64250D01*
X48343Y64195D01*
X48463Y64121D01*
X48574Y64056D01*
X48667Y63991D01*
X48759Y63917D01*
X48833Y63862D01*
X48889Y63806D01*
X48935Y63751D01*
X48972Y63714D01*
X48990Y63695D01*
X49000Y63686D01*
X49120Y63520D01*
X49222Y63326D01*
X49314Y63122D01*
X49397Y62909D01*
X49462Y62688D01*
X49517Y62466D01*
X49564Y62235D01*
X49601Y62022D01*
X49628Y61809D01*
X49647Y61615D01*
X49665Y61439D01*
X49675Y61291D01*
Y61162D01*
X49684Y61070D01*
Y61033D01*
Y61005D01*
Y60996D01*
Y60986D01*
X49675Y60690D01*
X49656Y60413D01*
X49628Y60154D01*
X49582Y59914D01*
X49536Y59701D01*
X49490Y59507D01*
X49434Y59331D01*
X49369Y59174D01*
X49314Y59045D01*
X49258Y58925D01*
X49212Y58832D01*
X49157Y58749D01*
X49120Y58684D01*
X49092Y58647D01*
X49074Y58619D01*
X49064Y58610D01*
X48944Y58481D01*
X48815Y58370D01*
X48685Y58277D01*
X48556Y58194D01*
X48417Y58120D01*
X48288Y58065D01*
X48158Y58018D01*
X48029Y57982D01*
X47918Y57954D01*
X47807Y57926D01*
X47714Y57908D01*
X47631Y57898D01*
X47557D01*
X47511Y57889D01*
X47465D01*
X47252Y57898D01*
X47058Y57935D01*
X46882Y57972D01*
X46725Y58028D01*
X46605Y58074D01*
X46512Y58120D01*
X46476Y58129D01*
X46448Y58148D01*
X46438Y58157D01*
X46429D01*
X46272Y58268D01*
X46124Y58398D01*
X46004Y58527D01*
X45902Y58656D01*
X45819Y58777D01*
X45764Y58869D01*
X45745Y58906D01*
X45727Y58934D01*
X45717Y58943D01*
Y58952D01*
X45625Y59146D01*
X45560Y59350D01*
X45514Y59535D01*
X45486Y59710D01*
X45458Y59858D01*
Y59914D01*
X45449Y59969D01*
Y60016D01*
Y60043D01*
Y60062D01*
Y60071D01*
X45458Y60237D01*
X45477Y60395D01*
X45505Y60552D01*
X45532Y60690D01*
X45579Y60820D01*
X45625Y60949D01*
X45671Y61060D01*
X45727Y61162D01*
X45782Y61255D01*
X45828Y61338D01*
X45875Y61402D01*
X45921Y61467D01*
X45949Y61513D01*
X45976Y61541D01*
X45995Y61560D01*
X46004Y61569D01*
X46106Y61670D01*
X46217Y61763D01*
X46337Y61837D01*
X46448Y61902D01*
X46559Y61966D01*
X46670Y62013D01*
X46882Y62077D01*
X46975Y62105D01*
X47067Y62123D01*
X47141Y62133D01*
X47215Y62142D01*
X47271Y62151D01*
X47345D01*
X47511Y62142D01*
X47668Y62114D01*
X47816Y62087D01*
X47946Y62050D01*
X48057Y62003D01*
X48140Y61976D01*
X48195Y61948D01*
X48204Y61939D01*
X48214D01*
X48362Y61846D01*
X48491Y61744D01*
X48611Y61643D01*
X48704Y61532D01*
X48787Y61439D01*
X48852Y61365D01*
X48889Y61310D01*
X48898Y61301D01*
Y61467D01*
X48889Y61634D01*
X48879Y61782D01*
X48861Y61929D01*
X48852Y62059D01*
X48833Y62179D01*
X48815Y62290D01*
X48787Y62392D01*
X48768Y62484D01*
X48750Y62558D01*
X48731Y62623D01*
X48722Y62678D01*
X48704Y62715D01*
X48695Y62743D01*
X48685Y62762D01*
Y62771D01*
X48593Y62956D01*
X48500Y63122D01*
X48399Y63252D01*
X48306Y63362D01*
X48223Y63455D01*
X48158Y63520D01*
X48112Y63557D01*
X48094Y63566D01*
X47983Y63640D01*
X47872Y63686D01*
X47761Y63723D01*
X47650Y63751D01*
X47566Y63769D01*
X47492Y63779D01*
X47428D01*
X47261Y63760D01*
X47104Y63723D01*
X46975Y63668D01*
X46855Y63612D01*
X46762Y63547D01*
X46697Y63492D01*
X46660Y63455D01*
X46642Y63436D01*
X46577Y63353D01*
X46512Y63252D01*
X46457Y63141D01*
X46420Y63030D01*
X46383Y62928D01*
X46355Y62845D01*
X46346Y62789D01*
X46337Y62780D01*
Y62771D01*
X45551Y62835D01*
X45606Y63094D01*
X45690Y63326D01*
X45782Y63529D01*
X45884Y63695D01*
X45985Y63825D01*
X46023Y63880D01*
X46069Y63926D01*
X46097Y63954D01*
X46124Y63982D01*
X46133Y63991D01*
X46143Y64000D01*
X46235Y64074D01*
X46337Y64139D01*
X46540Y64250D01*
X46744Y64324D01*
X46938Y64370D01*
X47113Y64407D01*
X47187Y64416D01*
X47252D01*
X47308Y64426D01*
X47382D01*
X47566Y64416D01*
D02*
G37*
G36*
X42824D02*
X42971Y64398D01*
X43119Y64370D01*
X43249Y64333D01*
X43498Y64232D01*
X43609Y64185D01*
X43702Y64130D01*
X43794Y64065D01*
X43868Y64019D01*
X43942Y63963D01*
X43998Y63917D01*
X44044Y63880D01*
X44072Y63853D01*
X44090Y63834D01*
X44099Y63825D01*
X44201Y63714D01*
X44284Y63584D01*
X44367Y63464D01*
X44432Y63335D01*
X44488Y63196D01*
X44534Y63067D01*
X44599Y62826D01*
X44626Y62706D01*
X44645Y62604D01*
X44654Y62503D01*
X44663Y62419D01*
X44673Y62355D01*
Y62309D01*
Y62271D01*
Y62262D01*
X44663Y62087D01*
X44645Y61929D01*
X44626Y61772D01*
X44589Y61624D01*
X44543Y61495D01*
X44497Y61365D01*
X44451Y61255D01*
X44395Y61153D01*
X44349Y61060D01*
X44303Y60977D01*
X44257Y60912D01*
X44210Y60848D01*
X44173Y60801D01*
X44155Y60774D01*
X44136Y60755D01*
X44127Y60746D01*
X44025Y60644D01*
X43914Y60561D01*
X43804Y60478D01*
X43683Y60413D01*
X43572Y60358D01*
X43461Y60311D01*
X43249Y60247D01*
X43156Y60219D01*
X43064Y60201D01*
X42990Y60191D01*
X42916Y60182D01*
X42860Y60173D01*
X42786D01*
X42611Y60182D01*
X42444Y60210D01*
X42297Y60247D01*
X42158Y60293D01*
X42056Y60330D01*
X41973Y60367D01*
X41917Y60395D01*
X41899Y60404D01*
X41751Y60496D01*
X41622Y60598D01*
X41511Y60700D01*
X41418Y60792D01*
X41354Y60885D01*
X41298Y60949D01*
X41261Y60996D01*
X41252Y61014D01*
Y60940D01*
Y60894D01*
Y60866D01*
Y60857D01*
X41261Y60672D01*
X41270Y60496D01*
X41289Y60339D01*
X41307Y60191D01*
X41335Y60071D01*
X41354Y59979D01*
X41363Y59942D01*
Y59914D01*
X41372Y59905D01*
Y59895D01*
X41418Y59729D01*
X41464Y59581D01*
X41511Y59452D01*
X41557Y59341D01*
X41594Y59257D01*
X41631Y59193D01*
X41649Y59146D01*
X41659Y59137D01*
X41733Y59036D01*
X41807Y58952D01*
X41880Y58878D01*
X41954Y58814D01*
X42010Y58758D01*
X42065Y58721D01*
X42102Y58703D01*
X42112Y58693D01*
X42213Y58638D01*
X42324Y58601D01*
X42426Y58573D01*
X42528Y58555D01*
X42611Y58545D01*
X42676Y58536D01*
X42740D01*
X42888Y58545D01*
X43027Y58573D01*
X43147Y58610D01*
X43249Y58656D01*
X43323Y58693D01*
X43387Y58730D01*
X43425Y58758D01*
X43434Y58767D01*
X43526Y58869D01*
X43600Y58989D01*
X43665Y59119D01*
X43711Y59248D01*
X43748Y59359D01*
X43776Y59461D01*
X43785Y59498D01*
Y59516D01*
X43794Y59535D01*
Y59544D01*
X44552Y59479D01*
X44497Y59211D01*
X44423Y58980D01*
X44331Y58777D01*
X44238Y58610D01*
X44146Y58481D01*
X44099Y58425D01*
X44062Y58379D01*
X44035Y58351D01*
X44007Y58324D01*
X43998Y58314D01*
X43988Y58305D01*
X43896Y58231D01*
X43794Y58166D01*
X43591Y58065D01*
X43387Y57991D01*
X43193Y57944D01*
X43018Y57908D01*
X42944Y57898D01*
X42879D01*
X42833Y57889D01*
X42759D01*
X42500Y57908D01*
X42269Y57944D01*
X42056Y58009D01*
X41880Y58083D01*
X41807Y58111D01*
X41733Y58148D01*
X41677Y58185D01*
X41622Y58213D01*
X41585Y58231D01*
X41557Y58250D01*
X41538Y58268D01*
X41529D01*
X41344Y58425D01*
X41178Y58601D01*
X41048Y58786D01*
X40937Y58962D01*
X40845Y59119D01*
X40808Y59193D01*
X40780Y59248D01*
X40762Y59304D01*
X40743Y59341D01*
X40734Y59359D01*
Y59368D01*
X40688Y59507D01*
X40641Y59664D01*
X40577Y59979D01*
X40531Y60311D01*
X40503Y60626D01*
X40484Y60764D01*
X40475Y60903D01*
Y61023D01*
X40466Y61125D01*
Y61208D01*
Y61273D01*
Y61319D01*
Y61328D01*
Y61541D01*
X40475Y61744D01*
X40494Y61929D01*
X40512Y62105D01*
X40531Y62262D01*
X40549Y62410D01*
X40577Y62549D01*
X40605Y62669D01*
X40632Y62771D01*
X40651Y62863D01*
X40679Y62946D01*
X40697Y63011D01*
X40715Y63057D01*
X40734Y63094D01*
X40743Y63113D01*
Y63122D01*
X40854Y63344D01*
X40974Y63538D01*
X41113Y63705D01*
X41233Y63843D01*
X41354Y63945D01*
X41446Y64019D01*
X41483Y64047D01*
X41511Y64065D01*
X41520Y64084D01*
X41529D01*
X41723Y64195D01*
X41917Y64278D01*
X42112Y64342D01*
X42287Y64380D01*
X42444Y64407D01*
X42509Y64416D01*
X42555D01*
X42602Y64426D01*
X42666D01*
X42824Y64416D01*
D02*
G37*
G36*
X61250Y58000D02*
X60399D01*
Y60598D01*
X58763D01*
X58523Y60607D01*
X58291Y60626D01*
X58088Y60654D01*
X57903Y60690D01*
X57727Y60728D01*
X57579Y60774D01*
X57441Y60829D01*
X57321Y60885D01*
X57219Y60931D01*
X57126Y60986D01*
X57052Y61033D01*
X56997Y61079D01*
X56951Y61107D01*
X56923Y61134D01*
X56905Y61153D01*
X56895Y61162D01*
X56803Y61273D01*
X56720Y61384D01*
X56655Y61495D01*
X56590Y61615D01*
X56535Y61735D01*
X56498Y61846D01*
X56433Y62059D01*
X56414Y62161D01*
X56396Y62253D01*
X56387Y62336D01*
X56378Y62401D01*
X56368Y62466D01*
Y62503D01*
Y62530D01*
Y62540D01*
X56378Y62715D01*
X56396Y62882D01*
X56433Y63030D01*
X56461Y63159D01*
X56498Y63270D01*
X56535Y63353D01*
X56553Y63399D01*
X56562Y63418D01*
X56636Y63557D01*
X56729Y63677D01*
X56812Y63788D01*
X56895Y63871D01*
X56969Y63936D01*
X57025Y63991D01*
X57062Y64019D01*
X57080Y64028D01*
X57200Y64102D01*
X57339Y64167D01*
X57469Y64222D01*
X57589Y64268D01*
X57700Y64296D01*
X57783Y64315D01*
X57848Y64333D01*
X57866D01*
X58005Y64352D01*
X58162Y64370D01*
X58328Y64380D01*
X58486Y64389D01*
X58624Y64398D01*
X61250D01*
Y58000D01*
D02*
G37*
G36*
X55989D02*
X55092D01*
X54399Y59942D01*
X51718D01*
X50969Y58000D01*
X50007D01*
X52624Y64398D01*
X53548D01*
X55989Y58000D01*
D02*
G37*
G36*
X39967Y60256D02*
Y59535D01*
X37184D01*
Y58000D01*
X36398D01*
Y59535D01*
X35529D01*
Y60256D01*
X36398D01*
Y64398D01*
X37036D01*
X39967Y60256D01*
D02*
G37*
G36*
X32885Y64407D02*
X33116Y64370D01*
X33310Y64306D01*
X33476Y64241D01*
X33615Y64167D01*
X33670Y64139D01*
X33717Y64102D01*
X33754Y64084D01*
X33781Y64065D01*
X33791Y64047D01*
X33800D01*
X33966Y63899D01*
X34105Y63723D01*
X34225Y63547D01*
X34318Y63381D01*
X34392Y63224D01*
X34429Y63159D01*
X34447Y63094D01*
X34465Y63048D01*
X34484Y63011D01*
X34493Y62993D01*
Y62983D01*
X34530Y62845D01*
X34567Y62706D01*
X34623Y62401D01*
X34669Y62096D01*
X34697Y61809D01*
X34706Y61670D01*
X34715Y61550D01*
Y61439D01*
X34724Y61338D01*
Y61264D01*
Y61199D01*
Y61162D01*
Y61153D01*
X34715Y60829D01*
X34697Y60524D01*
X34669Y60247D01*
X34623Y59988D01*
X34576Y59747D01*
X34521Y59535D01*
X34465Y59341D01*
X34410Y59174D01*
X34355Y59026D01*
X34290Y58897D01*
X34244Y58786D01*
X34197Y58703D01*
X34151Y58629D01*
X34123Y58583D01*
X34105Y58555D01*
X34096Y58545D01*
X33994Y58435D01*
X33883Y58333D01*
X33763Y58240D01*
X33643Y58166D01*
X33522Y58102D01*
X33402Y58046D01*
X33282Y58009D01*
X33171Y57972D01*
X33060Y57944D01*
X32959Y57926D01*
X32866Y57908D01*
X32792Y57898D01*
X32727Y57889D01*
X32635D01*
X32385Y57908D01*
X32154Y57944D01*
X31960Y58009D01*
X31793Y58074D01*
X31655Y58139D01*
X31609Y58176D01*
X31562Y58203D01*
X31525Y58222D01*
X31498Y58240D01*
X31488Y58259D01*
X31479D01*
X31313Y58416D01*
X31174Y58583D01*
X31054Y58767D01*
X30961Y58934D01*
X30887Y59091D01*
X30851Y59156D01*
X30832Y59220D01*
X30814Y59267D01*
X30795Y59304D01*
X30786Y59322D01*
Y59331D01*
X30740Y59470D01*
X30703Y59609D01*
X30647Y59905D01*
X30601Y60210D01*
X30573Y60506D01*
X30564Y60635D01*
X30555Y60755D01*
Y60866D01*
X30545Y60968D01*
Y61042D01*
Y61107D01*
Y61143D01*
Y61153D01*
Y61328D01*
X30555Y61495D01*
Y61643D01*
X30564Y61791D01*
X30582Y61920D01*
X30592Y62050D01*
X30601Y62161D01*
X30619Y62262D01*
X30629Y62355D01*
X30647Y62438D01*
X30656Y62503D01*
X30666Y62558D01*
X30675Y62604D01*
X30684Y62632D01*
X30693Y62650D01*
Y62660D01*
X30749Y62863D01*
X30814Y63048D01*
X30887Y63205D01*
X30943Y63344D01*
X31008Y63464D01*
X31045Y63547D01*
X31082Y63594D01*
X31091Y63612D01*
X31193Y63751D01*
X31294Y63871D01*
X31405Y63973D01*
X31507Y64065D01*
X31599Y64130D01*
X31673Y64176D01*
X31720Y64204D01*
X31729Y64213D01*
X31738D01*
X31886Y64287D01*
X32043Y64333D01*
X32191Y64370D01*
X32330Y64398D01*
X32450Y64416D01*
X32552Y64426D01*
X32635D01*
X32885Y64407D01*
D02*
G37*
G36*
X52772Y56768D02*
X52874Y56621D01*
X52994Y56473D01*
X53105Y56343D01*
X53216Y56232D01*
X53299Y56140D01*
X53336Y56112D01*
X53363Y56084D01*
X53373Y56075D01*
X53382Y56066D01*
X53576Y55909D01*
X53770Y55761D01*
X53955Y55631D01*
X54140Y55530D01*
X54297Y55437D01*
X54362Y55400D01*
X54418Y55372D01*
X54464Y55345D01*
X54501Y55335D01*
X54519Y55317D01*
X54528D01*
Y54559D01*
X54390Y54614D01*
X54251Y54679D01*
X54112Y54744D01*
X53983Y54809D01*
X53872Y54864D01*
X53780Y54910D01*
X53724Y54947D01*
X53715Y54956D01*
X53706D01*
X53539Y55058D01*
X53391Y55160D01*
X53262Y55252D01*
X53160Y55335D01*
X53068Y55400D01*
X53012Y55456D01*
X52966Y55493D01*
X52957Y55502D01*
Y50500D01*
X52171D01*
Y56926D01*
X52679D01*
X52772Y56768D01*
D02*
G37*
G36*
X29408D02*
X29510Y56621D01*
X29630Y56473D01*
X29741Y56343D01*
X29852Y56232D01*
X29935Y56140D01*
X29972Y56112D01*
X30000Y56084D01*
X30009Y56075D01*
X30018Y56066D01*
X30213Y55909D01*
X30407Y55761D01*
X30592Y55631D01*
X30777Y55530D01*
X30934Y55437D01*
X30998Y55400D01*
X31054Y55372D01*
X31100Y55345D01*
X31137Y55335D01*
X31156Y55317D01*
X31165D01*
Y54559D01*
X31026Y54614D01*
X30887Y54679D01*
X30749Y54744D01*
X30619Y54809D01*
X30508Y54864D01*
X30416Y54910D01*
X30360Y54947D01*
X30351Y54956D01*
X30342D01*
X30175Y55058D01*
X30028Y55160D01*
X29898Y55252D01*
X29797Y55335D01*
X29704Y55400D01*
X29648Y55456D01*
X29602Y55493D01*
X29593Y55502D01*
Y50500D01*
X28807D01*
Y56926D01*
X29316D01*
X29408Y56768D01*
D02*
G37*
G36*
X49859Y50500D02*
X49046D01*
Y55946D01*
X47197Y50500D01*
X46438D01*
X44571Y55853D01*
Y50500D01*
X43757D01*
Y56898D01*
X44894D01*
X46429Y52442D01*
X46512Y52201D01*
X46577Y51998D01*
X46642Y51822D01*
X46688Y51674D01*
X46725Y51563D01*
X46753Y51480D01*
X46762Y51434D01*
X46771Y51415D01*
X46808Y51545D01*
X46855Y51693D01*
X46910Y51850D01*
X46956Y52007D01*
X47003Y52146D01*
X47039Y52257D01*
X47058Y52303D01*
X47067Y52331D01*
X47077Y52349D01*
Y52358D01*
X48593Y56898D01*
X49859D01*
Y50500D01*
D02*
G37*
G36*
X61250D02*
X60399D01*
Y53338D01*
X59308D01*
X59207Y53329D01*
X59133D01*
X59068Y53320D01*
X59022Y53311D01*
X58985D01*
X58966Y53301D01*
X58957D01*
X58809Y53255D01*
X58744Y53228D01*
X58689Y53200D01*
X58633Y53172D01*
X58597Y53154D01*
X58578Y53144D01*
X58569Y53135D01*
X58495Y53080D01*
X58421Y53015D01*
X58282Y52876D01*
X58217Y52811D01*
X58171Y52756D01*
X58144Y52719D01*
X58134Y52710D01*
X58042Y52580D01*
X57940Y52442D01*
X57838Y52294D01*
X57737Y52155D01*
X57653Y52025D01*
X57589Y51924D01*
X57561Y51887D01*
X57543Y51859D01*
X57524Y51841D01*
Y51831D01*
X56683Y50500D01*
X55629D01*
X56729Y52238D01*
X56858Y52423D01*
X56979Y52590D01*
X57099Y52728D01*
X57200Y52858D01*
X57293Y52950D01*
X57367Y53024D01*
X57413Y53070D01*
X57432Y53089D01*
X57505Y53144D01*
X57589Y53209D01*
X57755Y53311D01*
X57829Y53348D01*
X57885Y53385D01*
X57922Y53403D01*
X57940Y53412D01*
X57774Y53440D01*
X57617Y53468D01*
X57478Y53514D01*
X57339Y53551D01*
X57219Y53597D01*
X57108Y53653D01*
X57006Y53699D01*
X56914Y53745D01*
X56840Y53801D01*
X56766Y53847D01*
X56710Y53884D01*
X56664Y53921D01*
X56627Y53949D01*
X56599Y53976D01*
X56590Y53986D01*
X56581Y53995D01*
X56507Y54087D01*
X56433Y54180D01*
X56322Y54374D01*
X56248Y54568D01*
X56193Y54753D01*
X56156Y54910D01*
X56146Y54975D01*
Y55040D01*
X56137Y55086D01*
Y55123D01*
Y55141D01*
Y55150D01*
X56146Y55345D01*
X56174Y55520D01*
X56220Y55687D01*
X56267Y55826D01*
X56322Y55946D01*
X56359Y56038D01*
X56396Y56094D01*
X56405Y56103D01*
Y56112D01*
X56516Y56260D01*
X56627Y56389D01*
X56747Y56500D01*
X56858Y56584D01*
X56960Y56648D01*
X57043Y56685D01*
X57099Y56713D01*
X57108Y56722D01*
X57117D01*
X57200Y56750D01*
X57302Y56778D01*
X57505Y56824D01*
X57727Y56852D01*
X57931Y56880D01*
X58125Y56889D01*
X58208D01*
X58282Y56898D01*
X61250D01*
Y50500D01*
D02*
G37*
G36*
X37396D02*
X32616D01*
Y51258D01*
X36546D01*
Y53431D01*
X33005D01*
Y54189D01*
X36546D01*
Y56140D01*
X32764D01*
Y56898D01*
X37396D01*
Y50500D01*
D02*
G37*
G36*
X40863Y56907D02*
X41095Y56870D01*
X41289Y56806D01*
X41455Y56741D01*
X41594Y56667D01*
X41649Y56639D01*
X41695Y56602D01*
X41733Y56584D01*
X41760Y56565D01*
X41769Y56547D01*
X41779D01*
X41945Y56399D01*
X42084Y56223D01*
X42204Y56047D01*
X42297Y55881D01*
X42371Y55724D01*
X42407Y55659D01*
X42426Y55594D01*
X42444Y55548D01*
X42463Y55511D01*
X42472Y55493D01*
Y55483D01*
X42509Y55345D01*
X42546Y55206D01*
X42602Y54901D01*
X42648Y54596D01*
X42676Y54309D01*
X42685Y54170D01*
X42694Y54050D01*
Y53939D01*
X42703Y53838D01*
Y53764D01*
Y53699D01*
Y53662D01*
Y53653D01*
X42694Y53329D01*
X42676Y53024D01*
X42648Y52747D01*
X42602Y52488D01*
X42555Y52247D01*
X42500Y52035D01*
X42444Y51841D01*
X42389Y51674D01*
X42333Y51526D01*
X42269Y51397D01*
X42222Y51286D01*
X42176Y51203D01*
X42130Y51129D01*
X42102Y51083D01*
X42084Y51055D01*
X42075Y51045D01*
X41973Y50935D01*
X41862Y50833D01*
X41742Y50740D01*
X41622Y50666D01*
X41501Y50602D01*
X41381Y50546D01*
X41261Y50509D01*
X41150Y50472D01*
X41039Y50444D01*
X40937Y50426D01*
X40845Y50408D01*
X40771Y50398D01*
X40706Y50389D01*
X40614D01*
X40364Y50408D01*
X40133Y50444D01*
X39939Y50509D01*
X39773Y50574D01*
X39634Y50639D01*
X39588Y50676D01*
X39541Y50703D01*
X39504Y50722D01*
X39477Y50740D01*
X39467Y50759D01*
X39458D01*
X39292Y50916D01*
X39153Y51083D01*
X39033Y51267D01*
X38940Y51434D01*
X38866Y51591D01*
X38829Y51656D01*
X38811Y51720D01*
X38792Y51767D01*
X38774Y51804D01*
X38765Y51822D01*
Y51831D01*
X38719Y51970D01*
X38681Y52109D01*
X38626Y52405D01*
X38580Y52710D01*
X38552Y53006D01*
X38543Y53135D01*
X38534Y53255D01*
Y53366D01*
X38524Y53468D01*
Y53542D01*
Y53607D01*
Y53643D01*
Y53653D01*
Y53828D01*
X38534Y53995D01*
Y54143D01*
X38543Y54291D01*
X38561Y54420D01*
X38570Y54550D01*
X38580Y54661D01*
X38598Y54762D01*
X38607Y54855D01*
X38626Y54938D01*
X38635Y55003D01*
X38644Y55058D01*
X38654Y55104D01*
X38663Y55132D01*
X38672Y55150D01*
Y55160D01*
X38728Y55363D01*
X38792Y55548D01*
X38866Y55705D01*
X38922Y55844D01*
X38987Y55964D01*
X39024Y56047D01*
X39061Y56094D01*
X39070Y56112D01*
X39172Y56251D01*
X39273Y56371D01*
X39384Y56473D01*
X39486Y56565D01*
X39578Y56630D01*
X39652Y56676D01*
X39699Y56704D01*
X39708Y56713D01*
X39717D01*
X39865Y56787D01*
X40022Y56833D01*
X40170Y56870D01*
X40309Y56898D01*
X40429Y56916D01*
X40531Y56926D01*
X40614D01*
X40863Y56907D01*
D02*
G37*
G36*
X38301Y125223D02*
X36591D01*
Y126586D01*
X36375Y126305D01*
X36158Y126067D01*
X35920Y125850D01*
X35661Y125655D01*
X35423Y125504D01*
X35163Y125374D01*
X34925Y125266D01*
X34687Y125179D01*
X34254Y125071D01*
X34059Y125028D01*
X33908Y125006D01*
X33778D01*
X33670Y124985D01*
X33583D01*
X33237Y125006D01*
X32891Y125050D01*
X32566Y125114D01*
X32263Y125223D01*
X31679Y125461D01*
X31441Y125612D01*
X31203Y125742D01*
X30986Y125894D01*
X30813Y126023D01*
X30662Y126153D01*
X30510Y126262D01*
X30402Y126370D01*
X30337Y126435D01*
X30294Y126478D01*
X30272Y126500D01*
X30034Y126803D01*
X29818Y127127D01*
X29623Y127452D01*
X29471Y127820D01*
X29341Y128166D01*
X29233Y128534D01*
X29060Y129226D01*
X28995Y129551D01*
X28952Y129854D01*
X28930Y130113D01*
X28909Y130352D01*
X28887Y130546D01*
Y130676D01*
Y130784D01*
Y130806D01*
X28909Y131239D01*
X28930Y131650D01*
X28995Y132018D01*
X29060Y132343D01*
X29125Y132624D01*
X29168Y132840D01*
X29190Y132905D01*
X29212Y132970D01*
X29233Y132992D01*
Y133013D01*
X29363Y133381D01*
X29515Y133728D01*
X29666Y134031D01*
X29818Y134290D01*
X29948Y134485D01*
X30056Y134636D01*
X30121Y134745D01*
X30142Y134766D01*
X30359Y135026D01*
X30618Y135264D01*
X30856Y135459D01*
X31095Y135610D01*
X31289Y135740D01*
X31462Y135848D01*
X31570Y135892D01*
X31614Y135913D01*
X31938Y136043D01*
X32285Y136151D01*
X32609Y136216D01*
X32891Y136281D01*
X33129Y136303D01*
X33324Y136324D01*
X33497D01*
X33821Y136303D01*
X34146Y136259D01*
X34449Y136195D01*
X34730Y136086D01*
X35228Y135870D01*
X35661Y135589D01*
X35834Y135459D01*
X36007Y135329D01*
X36137Y135199D01*
X36245Y135091D01*
X36353Y134983D01*
X36418Y134918D01*
X36440Y134874D01*
X36461Y134853D01*
Y140198D01*
X38301D01*
Y125223D01*
D02*
G37*
G36*
X51978D02*
X49987D01*
Y131304D01*
X46156D01*
X45594Y131325D01*
X45053Y131369D01*
X44577Y131434D01*
X44144Y131520D01*
X43733Y131607D01*
X43386Y131715D01*
X43062Y131845D01*
X42780Y131975D01*
X42542Y132083D01*
X42326Y132213D01*
X42153Y132321D01*
X42023Y132429D01*
X41915Y132494D01*
X41850Y132559D01*
X41807Y132602D01*
X41785Y132624D01*
X41569Y132884D01*
X41374Y133143D01*
X41222Y133403D01*
X41071Y133684D01*
X40941Y133966D01*
X40855Y134225D01*
X40703Y134723D01*
X40660Y134961D01*
X40616Y135177D01*
X40595Y135372D01*
X40573Y135524D01*
X40552Y135675D01*
Y135762D01*
Y135827D01*
Y135848D01*
X40573Y136259D01*
X40616Y136649D01*
X40703Y136995D01*
X40768Y137298D01*
X40855Y137558D01*
X40941Y137753D01*
X40984Y137861D01*
X41006Y137904D01*
X41179Y138229D01*
X41396Y138510D01*
X41590Y138770D01*
X41785Y138965D01*
X41958Y139116D01*
X42088Y139246D01*
X42175Y139311D01*
X42218Y139333D01*
X42499Y139506D01*
X42824Y139657D01*
X43127Y139787D01*
X43408Y139895D01*
X43668Y139960D01*
X43863Y140003D01*
X44014Y140047D01*
X44057D01*
X44382Y140090D01*
X44750Y140133D01*
X45139Y140155D01*
X45507Y140176D01*
X45832Y140198D01*
X51978D01*
Y125223D01*
D02*
G37*
G36*
X41963Y107500D02*
X40771D01*
Y111723D01*
X36134D01*
Y107500D01*
X34942D01*
Y116464D01*
X36134D01*
Y112785D01*
X40771D01*
Y116464D01*
X41963D01*
Y107500D01*
D02*
G37*
G36*
X58000D02*
X56808D01*
Y111477D01*
X55280D01*
X55137Y111464D01*
X55033D01*
X54943Y111451D01*
X54878Y111438D01*
X54826D01*
X54800Y111425D01*
X54787D01*
X54580Y111360D01*
X54489Y111321D01*
X54412Y111283D01*
X54334Y111244D01*
X54282Y111218D01*
X54256Y111205D01*
X54243Y111192D01*
X54140Y111114D01*
X54036Y111024D01*
X53842Y110829D01*
X53751Y110738D01*
X53686Y110661D01*
X53647Y110609D01*
X53635Y110596D01*
X53505Y110415D01*
X53362Y110220D01*
X53220Y110013D01*
X53078Y109819D01*
X52961Y109637D01*
X52870Y109495D01*
X52831Y109443D01*
X52806Y109404D01*
X52779Y109378D01*
Y109365D01*
X51601Y107500D01*
X50124D01*
X51666Y109935D01*
X51847Y110194D01*
X52015Y110428D01*
X52184Y110622D01*
X52326Y110803D01*
X52456Y110933D01*
X52559Y111036D01*
X52624Y111101D01*
X52650Y111127D01*
X52754Y111205D01*
X52870Y111295D01*
X53103Y111438D01*
X53207Y111490D01*
X53285Y111542D01*
X53337Y111567D01*
X53362Y111580D01*
X53129Y111619D01*
X52909Y111658D01*
X52715Y111723D01*
X52520Y111775D01*
X52352Y111840D01*
X52197Y111917D01*
X52054Y111982D01*
X51925Y112047D01*
X51821Y112125D01*
X51717Y112189D01*
X51640Y112241D01*
X51575Y112293D01*
X51523Y112332D01*
X51484Y112371D01*
X51471Y112384D01*
X51458Y112397D01*
X51355Y112526D01*
X51251Y112656D01*
X51095Y112928D01*
X50992Y113200D01*
X50914Y113459D01*
X50862Y113679D01*
X50849Y113770D01*
Y113860D01*
X50836Y113925D01*
Y113977D01*
Y114003D01*
Y114016D01*
X50849Y114288D01*
X50888Y114534D01*
X50953Y114767D01*
X51018Y114962D01*
X51095Y115130D01*
X51147Y115259D01*
X51199Y115337D01*
X51212Y115350D01*
Y115363D01*
X51368Y115570D01*
X51523Y115752D01*
X51691Y115907D01*
X51847Y116024D01*
X51989Y116114D01*
X52106Y116166D01*
X52184Y116205D01*
X52197Y116218D01*
X52210D01*
X52326Y116257D01*
X52469Y116296D01*
X52754Y116361D01*
X53064Y116399D01*
X53349Y116438D01*
X53622Y116451D01*
X53738D01*
X53842Y116464D01*
X58000D01*
Y107500D01*
D02*
G37*
G36*
X46704Y114132D02*
X46911Y114120D01*
X47313Y114029D01*
X47663Y113912D01*
X47818Y113847D01*
X47961Y113783D01*
X48090Y113718D01*
X48194Y113653D01*
X48298Y113588D01*
X48375Y113537D01*
X48440Y113485D01*
X48492Y113446D01*
X48518Y113433D01*
X48531Y113420D01*
X48712Y113252D01*
X48854Y113057D01*
X48997Y112850D01*
X49101Y112643D01*
X49204Y112423D01*
X49282Y112189D01*
X49347Y111969D01*
X49399Y111762D01*
X49450Y111555D01*
X49476Y111373D01*
X49502Y111192D01*
X49515Y111049D01*
Y110920D01*
X49528Y110829D01*
Y110777D01*
Y110751D01*
X49515Y110454D01*
X49489Y110169D01*
X49450Y109909D01*
X49399Y109663D01*
X49334Y109443D01*
X49269Y109236D01*
X49191Y109042D01*
X49114Y108873D01*
X49036Y108718D01*
X48958Y108588D01*
X48893Y108484D01*
X48829Y108394D01*
X48777Y108316D01*
X48738Y108264D01*
X48712Y108238D01*
X48699Y108225D01*
X48531Y108070D01*
X48362Y107940D01*
X48181Y107824D01*
X48000Y107720D01*
X47818Y107642D01*
X47624Y107565D01*
X47274Y107461D01*
X47119Y107435D01*
X46963Y107409D01*
X46834Y107383D01*
X46717Y107370D01*
X46613Y107358D01*
X46484D01*
X46173Y107370D01*
X45888Y107422D01*
X45616Y107487D01*
X45396Y107552D01*
X45202Y107629D01*
X45124Y107655D01*
X45059Y107681D01*
X44994Y107707D01*
X44955Y107733D01*
X44942Y107746D01*
X44929D01*
X44670Y107914D01*
X44450Y108096D01*
X44256Y108277D01*
X44100Y108459D01*
X43984Y108614D01*
X43893Y108744D01*
X43867Y108795D01*
X43841Y108834D01*
X43828Y108847D01*
Y108860D01*
X43699Y109158D01*
X43608Y109482D01*
X43530Y109806D01*
X43492Y110130D01*
X43466Y110272D01*
Y110402D01*
X43453Y110531D01*
X43440Y110635D01*
Y110725D01*
Y110790D01*
Y110829D01*
Y110842D01*
X43453Y111127D01*
X43479Y111386D01*
X43517Y111632D01*
X43569Y111866D01*
X43634Y112086D01*
X43712Y112280D01*
X43790Y112474D01*
X43867Y112630D01*
X43945Y112772D01*
X44023Y112902D01*
X44100Y113018D01*
X44165Y113109D01*
X44217Y113174D01*
X44256Y113226D01*
X44282Y113252D01*
X44295Y113265D01*
X44463Y113420D01*
X44632Y113549D01*
X44813Y113679D01*
X44994Y113770D01*
X45176Y113860D01*
X45357Y113925D01*
X45707Y114042D01*
X45875Y114068D01*
X46018Y114094D01*
X46147Y114120D01*
X46264Y114132D01*
X46354Y114145D01*
X46484D01*
X46704Y114132D01*
D02*
G37*
G36*
X30214Y116607D02*
X30512Y116568D01*
X30797Y116516D01*
X31043Y116464D01*
X31237Y116412D01*
X31328Y116386D01*
X31393Y116361D01*
X31444Y116335D01*
X31483Y116322D01*
X31509Y116309D01*
X31522D01*
X31781Y116179D01*
X32014Y116037D01*
X32209Y115881D01*
X32364Y115739D01*
X32481Y115609D01*
X32571Y115506D01*
X32636Y115428D01*
X32649Y115415D01*
Y115402D01*
X32779Y115182D01*
X32869Y114962D01*
X32934Y114741D01*
X32973Y114547D01*
X32999Y114379D01*
X33025Y114249D01*
Y114197D01*
Y114158D01*
Y114145D01*
Y114132D01*
X33012Y113912D01*
X32973Y113705D01*
X32921Y113511D01*
X32869Y113342D01*
X32817Y113213D01*
X32766Y113109D01*
X32727Y113044D01*
X32714Y113018D01*
X32584Y112837D01*
X32429Y112669D01*
X32273Y112526D01*
X32118Y112410D01*
X31988Y112306D01*
X31872Y112241D01*
X31794Y112189D01*
X31781Y112176D01*
X31768D01*
X31665Y112125D01*
X31548Y112073D01*
X31289Y111982D01*
X30991Y111891D01*
X30706Y111801D01*
X30447Y111723D01*
X30330Y111697D01*
X30227Y111671D01*
X30149Y111645D01*
X30084Y111632D01*
X30045Y111619D01*
X30032D01*
X29812Y111567D01*
X29605Y111516D01*
X29423Y111464D01*
X29268Y111425D01*
X29113Y111386D01*
X28983Y111347D01*
X28867Y111321D01*
X28776Y111283D01*
X28685Y111257D01*
X28620Y111244D01*
X28517Y111205D01*
X28452Y111192D01*
X28439Y111179D01*
X28245Y111101D01*
X28076Y111011D01*
X27934Y110920D01*
X27830Y110842D01*
X27740Y110764D01*
X27688Y110713D01*
X27649Y110674D01*
X27636Y110661D01*
X27545Y110544D01*
X27480Y110415D01*
X27441Y110285D01*
X27403Y110182D01*
X27390Y110078D01*
X27377Y110000D01*
Y109935D01*
Y109922D01*
X27390Y109767D01*
X27416Y109624D01*
X27455Y109495D01*
X27506Y109391D01*
X27558Y109288D01*
X27597Y109223D01*
X27623Y109171D01*
X27636Y109158D01*
X27740Y109029D01*
X27869Y108925D01*
X27998Y108834D01*
X28115Y108744D01*
X28232Y108692D01*
X28322Y108640D01*
X28387Y108614D01*
X28413Y108601D01*
X28607Y108536D01*
X28815Y108484D01*
X29022Y108459D01*
X29203Y108433D01*
X29359Y108420D01*
X29488Y108407D01*
X29605D01*
X29890Y108420D01*
X30149Y108446D01*
X30382Y108484D01*
X30589Y108536D01*
X30758Y108588D01*
X30887Y108627D01*
X30926Y108640D01*
X30965Y108653D01*
X30978Y108666D01*
X30991D01*
X31198Y108770D01*
X31393Y108886D01*
X31535Y109003D01*
X31665Y109119D01*
X31768Y109210D01*
X31833Y109301D01*
X31872Y109352D01*
X31885Y109365D01*
X31975Y109534D01*
X32066Y109715D01*
X32118Y109909D01*
X32170Y110078D01*
X32209Y110246D01*
X32234Y110363D01*
Y110415D01*
X32248Y110454D01*
Y110466D01*
Y110479D01*
X33361Y110376D01*
X33336Y110052D01*
X33284Y109741D01*
X33206Y109469D01*
X33115Y109223D01*
X33025Y109029D01*
X32986Y108951D01*
X32960Y108886D01*
X32921Y108834D01*
X32908Y108795D01*
X32882Y108770D01*
Y108757D01*
X32688Y108510D01*
X32481Y108290D01*
X32260Y108109D01*
X32053Y107953D01*
X31872Y107837D01*
X31716Y107759D01*
X31665Y107733D01*
X31626Y107707D01*
X31600Y107694D01*
X31587D01*
X31263Y107578D01*
X30926Y107487D01*
X30589Y107435D01*
X30266Y107383D01*
X30110Y107370D01*
X29980Y107358D01*
X29864D01*
X29760Y107345D01*
X29553D01*
X29203Y107358D01*
X28879Y107396D01*
X28582Y107461D01*
X28335Y107526D01*
X28128Y107578D01*
X28037Y107617D01*
X27960Y107642D01*
X27908Y107668D01*
X27869Y107681D01*
X27843Y107694D01*
X27830D01*
X27558Y107837D01*
X27325Y107992D01*
X27118Y108161D01*
X26949Y108316D01*
X26820Y108446D01*
X26729Y108562D01*
X26664Y108640D01*
X26651Y108653D01*
Y108666D01*
X26509Y108912D01*
X26405Y109145D01*
X26340Y109365D01*
X26289Y109573D01*
X26263Y109754D01*
X26237Y109896D01*
Y109948D01*
Y109987D01*
Y110000D01*
Y110013D01*
X26250Y110272D01*
X26289Y110518D01*
X26353Y110738D01*
X26418Y110920D01*
X26496Y111075D01*
X26548Y111192D01*
X26600Y111257D01*
X26613Y111283D01*
X26768Y111477D01*
X26949Y111658D01*
X27144Y111814D01*
X27338Y111956D01*
X27506Y112060D01*
X27649Y112137D01*
X27701Y112163D01*
X27740Y112189D01*
X27765Y112202D01*
X27778D01*
X27882Y112254D01*
X28012Y112293D01*
X28154Y112345D01*
X28309Y112397D01*
X28633Y112487D01*
X28970Y112578D01*
X29125Y112617D01*
X29268Y112656D01*
X29411Y112695D01*
X29527Y112720D01*
X29618Y112746D01*
X29695Y112759D01*
X29747Y112772D01*
X29760D01*
X30019Y112837D01*
X30252Y112889D01*
X30460Y112954D01*
X30641Y113005D01*
X30810Y113070D01*
X30952Y113122D01*
X31082Y113174D01*
X31198Y113213D01*
X31289Y113265D01*
X31367Y113303D01*
X31418Y113329D01*
X31470Y113368D01*
X31535Y113407D01*
X31548Y113420D01*
X31665Y113549D01*
X31742Y113679D01*
X31807Y113809D01*
X31846Y113938D01*
X31872Y114042D01*
X31885Y114132D01*
Y114184D01*
Y114210D01*
X31859Y114417D01*
X31807Y114599D01*
X31729Y114754D01*
X31639Y114897D01*
X31561Y115000D01*
X31483Y115091D01*
X31431Y115143D01*
X31405Y115156D01*
X31302Y115221D01*
X31198Y115285D01*
X30952Y115389D01*
X30693Y115454D01*
X30434Y115506D01*
X30201Y115532D01*
X30097Y115544D01*
X30019Y115557D01*
X29838D01*
X29475Y115544D01*
X29151Y115493D01*
X28892Y115415D01*
X28672Y115337D01*
X28504Y115259D01*
X28374Y115182D01*
X28309Y115130D01*
X28284Y115117D01*
X28102Y114936D01*
X27960Y114741D01*
X27843Y114534D01*
X27765Y114327D01*
X27714Y114132D01*
X27675Y113990D01*
X27662Y113925D01*
X27649Y113886D01*
Y113860D01*
Y113847D01*
X26509Y113938D01*
X26535Y114223D01*
X26600Y114482D01*
X26664Y114728D01*
X26755Y114936D01*
X26833Y115104D01*
X26897Y115233D01*
X26923Y115272D01*
X26949Y115311D01*
X26962Y115324D01*
Y115337D01*
X27131Y115557D01*
X27312Y115752D01*
X27506Y115920D01*
X27701Y116050D01*
X27869Y116166D01*
X27998Y116231D01*
X28050Y116257D01*
X28089Y116283D01*
X28115Y116296D01*
X28128D01*
X28413Y116399D01*
X28724Y116477D01*
X29009Y116542D01*
X29281Y116581D01*
X29527Y116607D01*
X29618D01*
X29708Y116620D01*
X29877D01*
X30214Y116607D01*
D02*
G37*
%LPC*%
G36*
X55757Y47435D02*
X55669Y47430D01*
X55622Y47425D01*
X55520Y47421D01*
X55459Y47416D01*
X55427Y47412D01*
X55408Y47407D01*
X55376Y47398D01*
X55350Y47391D01*
X55299Y47381D01*
X55241Y47374D01*
X55203Y47365D01*
X55173Y47353D01*
X55150Y47344D01*
X55131Y47340D01*
X55101Y47333D01*
X55069Y47328D01*
X55050Y47323D01*
X55027Y47314D01*
X55020Y47307D01*
X54983Y47293D01*
X54943Y47286D01*
X54910Y47272D01*
X54901Y47267D01*
X54894Y47260D01*
X54871Y47251D01*
X54845Y47244D01*
X54813Y47235D01*
X54792Y47223D01*
X54764Y47205D01*
X54734Y47198D01*
X54710Y47188D01*
X54678Y47165D01*
X54641Y47151D01*
X54618Y47142D01*
X54611Y47135D01*
X54573Y47112D01*
X54548Y47105D01*
X54536Y47093D01*
X54499Y47070D01*
X54469Y47058D01*
X54450Y47039D01*
X54397Y47009D01*
X54371Y46988D01*
X54338Y46970D01*
X54329Y46965D01*
X54315Y46951D01*
X54283Y46928D01*
X54273Y46923D01*
X54250Y46900D01*
X54218Y46881D01*
X54201Y46865D01*
X54176Y46844D01*
X54166Y46839D01*
X54157Y46830D01*
X54148Y46826D01*
X54145Y46819D01*
X54120Y46798D01*
X54110Y46793D01*
X54099Y46781D01*
X54094Y46772D01*
X54069Y46751D01*
X54059Y46747D01*
X54052Y46740D01*
X54048Y46730D01*
X54027Y46709D01*
X54018Y46705D01*
X54001Y46688D01*
X53997Y46679D01*
X53990Y46672D01*
X53980Y46667D01*
X53959Y46646D01*
X53955Y46637D01*
X53938Y46621D01*
X53929Y46616D01*
X53917Y46605D01*
X53913Y46595D01*
X53876Y46558D01*
X53871Y46549D01*
X53845Y46523D01*
X53825Y46498D01*
X53820Y46488D01*
X53797Y46465D01*
X53773Y46432D01*
X53769Y46423D01*
X53745Y46400D01*
X53727Y46367D01*
X53699Y46340D01*
X53680Y46307D01*
X53676Y46298D01*
X53662Y46284D01*
X53634Y46233D01*
X53615Y46214D01*
X53587Y46163D01*
X53583Y46153D01*
X53573Y46144D01*
X53555Y46112D01*
X53545Y46088D01*
X53541Y46079D01*
X53520Y46058D01*
X53508Y46028D01*
X53503Y46009D01*
X53485Y45981D01*
X53466Y45949D01*
X53452Y45902D01*
X53443Y45893D01*
X53427Y45867D01*
X53420Y45842D01*
X53415Y45823D01*
X53404Y45798D01*
X53385Y45770D01*
X53378Y45744D01*
X53373Y45726D01*
X53364Y45693D01*
X53355Y45670D01*
X53348Y45663D01*
X53338Y45640D01*
X53334Y45621D01*
X53329Y45593D01*
X53320Y45556D01*
X53296Y45505D01*
X53292Y45486D01*
X53285Y45428D01*
X53280Y45409D01*
X53271Y45377D01*
X53259Y45346D01*
X53252Y45316D01*
X53248Y45302D01*
X53243Y45237D01*
X53238Y45205D01*
X53231Y45142D01*
X53227Y45114D01*
X53222Y45095D01*
X53215Y45042D01*
X53211Y45028D01*
X53206Y44893D01*
X53201Y44879D01*
X53204Y44732D01*
X53208Y44630D01*
X53213Y44584D01*
X53218Y44542D01*
X53222Y44519D01*
X53231Y44467D01*
X53236Y44440D01*
X53243Y44358D01*
X53252Y44293D01*
X53262Y44261D01*
X53273Y44230D01*
X53283Y44193D01*
X53290Y44135D01*
X53294Y44116D01*
X53313Y44074D01*
X53317Y44056D01*
X53320Y44054D01*
X53327Y44028D01*
X53331Y44009D01*
X53336Y43977D01*
X53369Y43907D01*
X53383Y43851D01*
X53394Y43826D01*
X53413Y43798D01*
X53418Y43779D01*
X53425Y43744D01*
X53443Y43716D01*
X53459Y43691D01*
X53466Y43660D01*
X53478Y43635D01*
X53499Y43609D01*
X53513Y43572D01*
X53522Y43549D01*
X53543Y43528D01*
X53555Y43498D01*
X53564Y43474D01*
X53583Y43456D01*
X53611Y43405D01*
X53615Y43395D01*
X53629Y43381D01*
X53643Y43358D01*
X53652Y43335D01*
X53676Y43312D01*
X53694Y43279D01*
X53699Y43270D01*
X53706Y43263D01*
X53715Y43258D01*
X53741Y43219D01*
X53745Y43209D01*
X53759Y43195D01*
X53783Y43163D01*
X53787Y43154D01*
X53808Y43133D01*
X53829Y43107D01*
X53834Y43098D01*
X53841Y43091D01*
X53850Y43086D01*
X53871Y43060D01*
X53876Y43051D01*
X53887Y43039D01*
X53896Y43035D01*
X53903Y43028D01*
X53908Y43019D01*
X53938Y42988D01*
X53948Y42984D01*
X53955Y42972D01*
X53959Y42963D01*
X53971Y42951D01*
X53980Y42947D01*
X53997Y42930D01*
X54008Y42914D01*
X54018Y42909D01*
X54027Y42900D01*
X54036Y42895D01*
X54038Y42888D01*
X54064Y42863D01*
X54073Y42858D01*
X54110Y42821D01*
X54120Y42816D01*
X54145Y42791D01*
X54171Y42770D01*
X54180Y42765D01*
X54204Y42742D01*
X54213Y42737D01*
X54245Y42714D01*
X54255Y42709D01*
X54273Y42691D01*
X54306Y42672D01*
X54329Y42649D01*
X54371Y42626D01*
X54378Y42619D01*
X54404Y42598D01*
X54413Y42593D01*
X54436Y42584D01*
X54455Y42565D01*
X54487Y42547D01*
X54520Y42533D01*
X54541Y42512D01*
X54571Y42500D01*
X54597Y42488D01*
X54622Y42467D01*
X54673Y42449D01*
X54720Y42416D01*
X54748Y42412D01*
X54780Y42398D01*
X54790Y42393D01*
X54801Y42381D01*
X54831Y42370D01*
X54850Y42365D01*
X54890Y42354D01*
X54927Y42330D01*
X54962Y42323D01*
X54980Y42319D01*
X55048Y42288D01*
X55066Y42284D01*
X55111Y42277D01*
X55129Y42272D01*
X55155Y42265D01*
X55201Y42246D01*
X55227Y42239D01*
X55245Y42235D01*
X55292Y42230D01*
X55348Y42221D01*
X55401Y42205D01*
X55424Y42200D01*
X55452Y42195D01*
X55504Y42191D01*
X55592Y42186D01*
X55706Y42179D01*
X55720Y42174D01*
X55950Y42177D01*
X56015Y42181D01*
X56134Y42188D01*
X56194Y42193D01*
X56241Y42198D01*
X56259Y42202D01*
X56292Y42212D01*
X56317Y42219D01*
X56336Y42223D01*
X56385Y42230D01*
X56403Y42235D01*
X56450Y42239D01*
X56469Y42244D01*
X56517Y42265D01*
X56536Y42270D01*
X56566Y42277D01*
X56599Y42281D01*
X56631Y42291D01*
X56662Y42307D01*
X56685Y42316D01*
X56720Y42323D01*
X56738Y42328D01*
X56759Y42335D01*
X56796Y42358D01*
X56822Y42365D01*
X56841Y42370D01*
X56883Y42388D01*
X56892Y42393D01*
X56899Y42400D01*
X56929Y42412D01*
X56948Y42416D01*
X56971Y42426D01*
X56980Y42435D01*
X56989Y42439D01*
X56999Y42449D01*
X57017Y42453D01*
X57059Y42472D01*
X57076Y42484D01*
X57141Y42516D01*
X57166Y42537D01*
X57203Y42551D01*
X57227Y42574D01*
X57278Y42602D01*
X57287Y42607D01*
X57301Y42621D01*
X57334Y42639D01*
X57343Y42644D01*
X57366Y42667D01*
X57399Y42686D01*
X57422Y42709D01*
X57455Y42728D01*
X57483Y42756D01*
X57515Y42774D01*
X57531Y42791D01*
X57536Y42800D01*
X57552Y42812D01*
X57562Y42816D01*
X57583Y42837D01*
X57587Y42846D01*
X57599Y42853D01*
X57608Y42858D01*
X57624Y42874D01*
X57629Y42884D01*
X57641Y42895D01*
X57650Y42900D01*
X57717Y42968D01*
X57722Y42977D01*
X57734Y42988D01*
X57743Y42993D01*
X57759Y43009D01*
X57764Y43019D01*
X57801Y43056D01*
X57806Y43065D01*
X57843Y43102D01*
X57848Y43112D01*
X57857Y43121D01*
X57862Y43130D01*
X57873Y43142D01*
X57883Y43147D01*
X57903Y43181D01*
X57908Y43191D01*
X57931Y43214D01*
X57950Y43246D01*
X57973Y43270D01*
X57992Y43302D01*
X58011Y43321D01*
X58043Y43381D01*
X58066Y43405D01*
X58071Y43414D01*
X58085Y43446D01*
X58099Y43460D01*
X58117Y43493D01*
X58131Y43526D01*
X58136Y43535D01*
X58145Y43544D01*
X58157Y43561D01*
X58169Y43591D01*
X58178Y43614D01*
X58187Y43623D01*
X58210Y43665D01*
X58215Y43693D01*
X58234Y43721D01*
X58252Y43753D01*
X58257Y43781D01*
X58266Y43805D01*
X58285Y43833D01*
X58294Y43856D01*
X58308Y43912D01*
X58334Y43960D01*
X58345Y44014D01*
X58355Y44051D01*
X58366Y44077D01*
X58380Y44114D01*
X58385Y44137D01*
X58392Y44191D01*
X58397Y44209D01*
X58404Y44235D01*
X58417Y44272D01*
X58422Y44291D01*
X58434Y44367D01*
X58438Y44442D01*
X58443Y44460D01*
X58448Y44493D01*
X58452Y44512D01*
X58457Y44526D01*
X58462Y44591D01*
X58466Y44605D01*
X58471Y44888D01*
X58466Y44991D01*
X58462Y45023D01*
X58455Y45086D01*
X58450Y45105D01*
X58436Y45193D01*
X58431Y45258D01*
X58427Y45295D01*
X58422Y45319D01*
X58415Y45349D01*
X58401Y45381D01*
X58397Y45395D01*
X58392Y45428D01*
X58387Y45447D01*
X58383Y45493D01*
X58362Y45542D01*
X58352Y45565D01*
X58348Y45584D01*
X58341Y45623D01*
X58331Y45656D01*
X58310Y45691D01*
X58306Y45709D01*
X58299Y45735D01*
X58294Y45753D01*
X58280Y45786D01*
X58276Y45795D01*
X58269Y45802D01*
X58257Y45833D01*
X58252Y45851D01*
X58238Y45884D01*
X58234Y45893D01*
X58224Y45902D01*
X58217Y45919D01*
X58210Y45944D01*
X58201Y45967D01*
X58176Y46002D01*
X58155Y46060D01*
X58141Y46074D01*
X58122Y46107D01*
X58108Y46139D01*
X58094Y46153D01*
X58066Y46205D01*
X58062Y46214D01*
X58048Y46228D01*
X58024Y46270D01*
X58020Y46279D01*
X57997Y46302D01*
X57992Y46312D01*
X57971Y46347D01*
X57962Y46351D01*
X57936Y46391D01*
X57931Y46400D01*
X57908Y46423D01*
X57889Y46456D01*
X57869Y46477D01*
X57848Y46502D01*
X57843Y46512D01*
X57836Y46519D01*
X57827Y46523D01*
X57806Y46549D01*
X57801Y46558D01*
X57790Y46570D01*
X57780Y46574D01*
X57769Y46586D01*
X57764Y46595D01*
X57738Y46621D01*
X57729Y46625D01*
X57727Y46632D01*
X57717Y46642D01*
X57713Y46651D01*
X57706Y46658D01*
X57696Y46663D01*
X57671Y46688D01*
X57666Y46698D01*
X57655Y46705D01*
X57638Y46716D01*
X57634Y46726D01*
X57608Y46751D01*
X57599Y46756D01*
X57562Y46793D01*
X57552Y46798D01*
X57531Y46819D01*
X57506Y46839D01*
X57497Y46844D01*
X57469Y46872D01*
X57459Y46877D01*
X57431Y46895D01*
X57422Y46900D01*
X57403Y46919D01*
X57371Y46937D01*
X57343Y46965D01*
X57311Y46984D01*
X57301Y46988D01*
X57287Y47002D01*
X57271Y47014D01*
X57241Y47026D01*
X57229Y47037D01*
X57203Y47058D01*
X57157Y47077D01*
X57143Y47091D01*
X57111Y47109D01*
X57087Y47119D01*
X57078Y47123D01*
X57071Y47130D01*
X57043Y47149D01*
X57017Y47156D01*
X56994Y47165D01*
X56985Y47174D01*
X56976Y47179D01*
X56969Y47186D01*
X56924Y47202D01*
X56892Y47216D01*
X56850Y47239D01*
X56794Y47253D01*
X56759Y47274D01*
X56736Y47284D01*
X56697Y47291D01*
X56638Y47316D01*
X56615Y47326D01*
X56585Y47333D01*
X56552Y47337D01*
X56534Y47342D01*
X56504Y47353D01*
X56466Y47367D01*
X56422Y47374D01*
X56403Y47379D01*
X56357Y47384D01*
X56320Y47393D01*
X56294Y47400D01*
X56257Y47409D01*
X56234Y47414D01*
X56196Y47419D01*
X56050Y47425D01*
X56036Y47430D01*
X55757Y47435D01*
D02*
G37*
%LPD*%
G36*
X55948Y45607D02*
X55985Y45598D01*
X56010Y45591D01*
X56083Y45579D01*
X56115Y45570D01*
X56143Y45551D01*
X56180Y45537D01*
X56213Y45528D01*
X56224Y45516D01*
X56252Y45498D01*
X56283Y45486D01*
X56306Y45463D01*
X56348Y45440D01*
X56364Y45423D01*
X56369Y45414D01*
X56376Y45412D01*
X56385Y45402D01*
X56394Y45398D01*
X56406Y45386D01*
X56410Y45377D01*
X56436Y45351D01*
X56445Y45346D01*
X56462Y45316D01*
X56485Y45293D01*
X56508Y45251D01*
X56524Y45235D01*
X56543Y45207D01*
X56550Y45177D01*
X56569Y45149D01*
X56585Y45123D01*
X56596Y45070D01*
X56617Y45021D01*
X56627Y44998D01*
X56631Y44970D01*
X56636Y44923D01*
X56641Y44816D01*
X56638Y44730D01*
X56634Y44670D01*
X56629Y44623D01*
X56617Y44593D01*
X56599Y44546D01*
X56587Y44493D01*
X56578Y44470D01*
X56569Y44460D01*
X56557Y44444D01*
X56548Y44421D01*
X56541Y44395D01*
X56517Y44372D01*
X56494Y44330D01*
X56490Y44321D01*
X56478Y44309D01*
X56457Y44284D01*
X56452Y44274D01*
X56410Y44233D01*
X56406Y44223D01*
X56389Y44212D01*
X56380Y44207D01*
X56348Y44174D01*
X56315Y44156D01*
X56297Y44137D01*
X56264Y44119D01*
X56241Y44109D01*
X56227Y44095D01*
X56194Y44077D01*
X56162Y44068D01*
X56104Y44037D01*
X56036Y44026D01*
X55962Y44007D01*
X55948Y44002D01*
X55897Y43998D01*
X55883Y43993D01*
X55787Y43995D01*
X55750Y44000D01*
X55704Y44009D01*
X55648Y44023D01*
X55603Y44030D01*
X55585Y44035D01*
X55559Y44042D01*
X55531Y44060D01*
X55501Y44072D01*
X55483Y44077D01*
X55459Y44086D01*
X55450Y44095D01*
X55441Y44100D01*
X55431Y44109D01*
X55422Y44114D01*
X55390Y44128D01*
X55378Y44139D01*
X55334Y44170D01*
X55325Y44174D01*
X55313Y44186D01*
X55308Y44195D01*
X55301Y44198D01*
X55292Y44207D01*
X55283Y44212D01*
X55271Y44223D01*
X55266Y44233D01*
X55236Y44263D01*
X55215Y44288D01*
X55210Y44298D01*
X55187Y44321D01*
X55169Y44353D01*
Y44358D01*
X55150Y44377D01*
X55145Y44386D01*
X55138Y44393D01*
X55122Y44437D01*
X55104Y44465D01*
X55092Y44481D01*
X55087Y44500D01*
X55080Y44530D01*
X55076Y44549D01*
X55050Y44607D01*
X55041Y44663D01*
X55034Y44786D01*
X55038Y44916D01*
X55043Y44963D01*
X55048Y44995D01*
X55073Y45054D01*
X55085Y45102D01*
X55090Y45121D01*
X55101Y45146D01*
X55122Y45172D01*
X55127Y45191D01*
X55141Y45223D01*
X55155Y45237D01*
X55178Y45279D01*
X55187Y45288D01*
X55192Y45298D01*
X55199Y45305D01*
X55220Y45330D01*
X55224Y45339D01*
X55236Y45351D01*
X55245Y45356D01*
X55257Y45367D01*
X55262Y45377D01*
X55283Y45398D01*
X55292Y45402D01*
X55325Y45435D01*
X55357Y45454D01*
X55373Y45470D01*
X55401Y45488D01*
X55431Y45500D01*
X55445Y45514D01*
X55455Y45519D01*
X55462Y45526D01*
X55492Y45537D01*
X55525Y45546D01*
X55559Y45567D01*
X55583Y45577D01*
X55643Y45586D01*
X55699Y45600D01*
X55729Y45607D01*
X55743Y45612D01*
X55892Y45616D01*
X55948Y45607D01*
D02*
G37*
%LPC*%
G36*
X55817Y45016D02*
X55771Y45012D01*
X55738Y44998D01*
X55729Y44993D01*
X55715Y44979D01*
X55706Y44974D01*
X55692Y44960D01*
X55683Y44956D01*
X55673Y44946D01*
X55650Y44909D01*
X55643Y44884D01*
X55620Y44847D01*
X55615Y44805D01*
X55620Y44772D01*
X55648Y44712D01*
X55662Y44679D01*
X55687Y44654D01*
X55704Y44642D01*
X55729Y44621D01*
X55771Y44598D01*
X55864Y44593D01*
X55869D01*
X55901Y44598D01*
X55934Y44612D01*
X55943Y44616D01*
X55957Y44630D01*
X55966Y44635D01*
X55976Y44644D01*
X55985Y44649D01*
X56006Y44670D01*
X56024Y44702D01*
X56034Y44726D01*
X56052Y44758D01*
X56057Y44837D01*
X56029Y44898D01*
X56015Y44930D01*
X55985Y44960D01*
X55976Y44965D01*
X55962Y44979D01*
X55952Y44984D01*
X55943Y44993D01*
X55911Y45012D01*
X55817Y45016D01*
D02*
G37*
G36*
X31306Y45449D02*
X31148Y45444D01*
X31085Y45437D01*
X31062Y45433D01*
X31043Y45428D01*
X30997Y45419D01*
X30892Y45402D01*
X30860Y45393D01*
X30834Y45381D01*
X30797Y45367D01*
X30757Y45360D01*
X30727Y45349D01*
X30690Y45326D01*
X30664Y45319D01*
X30641Y45309D01*
X30632Y45305D01*
X30622Y45295D01*
X30613Y45291D01*
X30606Y45284D01*
X30562Y45267D01*
X30548Y45254D01*
X30539Y45249D01*
X30529Y45240D01*
X30520Y45235D01*
X30487Y45221D01*
X30464Y45198D01*
X30441Y45184D01*
X30413Y45156D01*
X30404Y45151D01*
X30394Y45142D01*
X30385Y45137D01*
X30339Y45091D01*
X30329Y45086D01*
X30313Y45070D01*
X30308Y45060D01*
X30290Y45042D01*
X30285Y45033D01*
X30269Y45016D01*
X30248Y44991D01*
X30243Y44981D01*
X30220Y44958D01*
X30201Y44926D01*
X30178Y44902D01*
X30150Y44851D01*
X30146Y44842D01*
X30136Y44833D01*
X30122Y44809D01*
X30104Y44767D01*
X30099Y44758D01*
X30087Y44746D01*
X30076Y44716D01*
X30071Y44698D01*
X30057Y44665D01*
X30053Y44656D01*
X30046Y44649D01*
X30036Y44626D01*
X30032Y44607D01*
X30025Y44567D01*
X30015Y44544D01*
X30004Y44519D01*
X29992Y44488D01*
X29987Y44470D01*
X29980Y44407D01*
X29976Y44384D01*
X29966Y44346D01*
X29957Y44300D01*
X29950Y44251D01*
X29946Y44237D01*
X29941Y44079D01*
X29946Y43907D01*
X29957Y43812D01*
X29962Y43793D01*
X29966Y43770D01*
X29971Y43751D01*
X29978Y43721D01*
X29983Y43702D01*
X29992Y43623D01*
X30013Y43574D01*
X30025Y43544D01*
X30029Y43526D01*
X30034Y43493D01*
X30043Y43470D01*
X30062Y43442D01*
X30069Y43426D01*
X30076Y43395D01*
X30085Y43372D01*
X30108Y43340D01*
X30122Y43302D01*
X30134Y43281D01*
X30155Y43256D01*
X30160Y43246D01*
X30173Y43214D01*
X30192Y43195D01*
X30215Y43154D01*
X30239Y43130D01*
X30253Y43107D01*
X30290Y43070D01*
X30294Y43060D01*
X30362Y42993D01*
X30371Y42988D01*
X30383Y42972D01*
X30408Y42951D01*
X30418Y42947D01*
X30425Y42940D01*
X30436Y42923D01*
X30469Y42905D01*
X30480Y42893D01*
X30506Y42872D01*
X30515Y42867D01*
X30548Y42853D01*
X30566Y42835D01*
X30590Y42821D01*
X30622Y42807D01*
X30632Y42802D01*
X30648Y42786D01*
X30678Y42774D01*
X30697Y42770D01*
X30722Y42758D01*
X30750Y42740D01*
X30769Y42735D01*
X30799Y42728D01*
X30818Y42723D01*
X30876Y42698D01*
X30894Y42693D01*
X31034Y42670D01*
X31057Y42665D01*
X31087Y42658D01*
X31101Y42653D01*
X31218Y42649D01*
X31232Y42644D01*
X31299Y42646D01*
X31388Y42651D01*
X31425Y42656D01*
X31453Y42660D01*
X31506Y42672D01*
X31525Y42677D01*
X31590Y42686D01*
X31646Y42695D01*
X31704Y42721D01*
X31722Y42726D01*
X31757Y42733D01*
X31799Y42751D01*
X31832Y42770D01*
X31864Y42779D01*
X31887Y42788D01*
X31897Y42798D01*
X31913Y42809D01*
X31957Y42826D01*
X31976Y42844D01*
X31985Y42849D01*
X31992Y42856D01*
X32022Y42867D01*
X32046Y42891D01*
X32078Y42909D01*
X32087Y42919D01*
X32097Y42923D01*
X32099Y42930D01*
X32106Y42933D01*
X32120Y42947D01*
X32129Y42951D01*
X32139Y42961D01*
X32148Y42965D01*
X32160Y42977D01*
X32164Y42986D01*
X32171Y42988D01*
X32190Y43007D01*
X32199Y43012D01*
X32201Y43019D01*
X32215Y43033D01*
X32220Y43042D01*
X32227Y43049D01*
X32243Y43060D01*
X32248Y43070D01*
X32257Y43079D01*
X32262Y43088D01*
X32271Y43098D01*
X32276Y43107D01*
X32294Y43126D01*
X32313Y43158D01*
X32336Y43181D01*
X32359Y43223D01*
X32373Y43237D01*
X32397Y43279D01*
X32406Y43302D01*
X32411Y43312D01*
X32420Y43321D01*
X32436Y43347D01*
X32443Y43372D01*
X32455Y43402D01*
X32478Y43439D01*
X32485Y43465D01*
X32490Y43484D01*
X32511Y43533D01*
X32520Y43556D01*
X32529Y43593D01*
X32536Y43637D01*
X32541Y43656D01*
X32557Y43709D01*
X32564Y43735D01*
X32569Y43749D01*
X32573Y43833D01*
X32578Y43847D01*
X32583Y44009D01*
X32587Y44023D01*
X32585Y44081D01*
X32580Y44188D01*
X32573Y44298D01*
X32564Y44363D01*
X32543Y44430D01*
X32539Y44449D01*
X32529Y44505D01*
X32522Y44535D01*
X32513Y44558D01*
X32501Y44584D01*
X32492Y44607D01*
X32485Y44637D01*
X32466Y44679D01*
X32462Y44688D01*
X32455Y44695D01*
X32443Y44726D01*
X32439Y44744D01*
X32427Y44770D01*
X32406Y44795D01*
X32397Y44819D01*
X32383Y44851D01*
X32369Y44865D01*
X32346Y44907D01*
X32329Y44923D01*
X32299Y44967D01*
X32294Y44977D01*
X32278Y44993D01*
X32257Y45019D01*
X32253Y45028D01*
X32241Y45040D01*
X32232Y45044D01*
X32225Y45051D01*
X32220Y45060D01*
X32194Y45086D01*
X32178Y45098D01*
X32174Y45107D01*
X32164Y45116D01*
X32139Y45137D01*
X32129Y45142D01*
X32108Y45163D01*
X32064Y45193D01*
X32055Y45198D01*
X32029Y45223D01*
X31999Y45235D01*
X31997Y45237D01*
X31990Y45244D01*
X31981Y45249D01*
X31971Y45258D01*
X31955Y45270D01*
X31929Y45277D01*
X31901Y45295D01*
X31885Y45307D01*
X31827Y45328D01*
X31781Y45356D01*
X31739Y45365D01*
X31706Y45374D01*
X31681Y45386D01*
X31636Y45402D01*
X31539Y45416D01*
X31520Y45421D01*
X31487Y45426D01*
X31450Y45435D01*
X31436Y45440D01*
X31339Y45444D01*
X31306Y45449D01*
D02*
G37*
G36*
X47557Y61458D02*
X47502D01*
X47308Y61439D01*
X47132Y61393D01*
X46984Y61338D01*
X46855Y61264D01*
X46753Y61190D01*
X46679Y61134D01*
X46633Y61088D01*
X46614Y61070D01*
X46494Y60912D01*
X46402Y60746D01*
X46337Y60570D01*
X46300Y60404D01*
X46272Y60256D01*
X46263Y60191D01*
Y60136D01*
X46254Y60090D01*
Y60052D01*
Y60034D01*
Y60025D01*
X46272Y59775D01*
X46309Y59563D01*
X46365Y59378D01*
X46429Y59220D01*
X46503Y59100D01*
X46559Y59008D01*
X46596Y58952D01*
X46614Y58943D01*
Y58934D01*
X46679Y58860D01*
X46753Y58804D01*
X46901Y58703D01*
X47049Y58638D01*
X47178Y58583D01*
X47298Y58555D01*
X47391Y58545D01*
X47428Y58536D01*
X47474D01*
X47604Y58545D01*
X47724Y58564D01*
X47835Y58601D01*
X47927Y58638D01*
X48010Y58666D01*
X48075Y58703D01*
X48112Y58721D01*
X48130Y58730D01*
X48241Y58814D01*
X48334Y58897D01*
X48417Y58998D01*
X48482Y59082D01*
X48537Y59165D01*
X48574Y59230D01*
X48602Y59276D01*
X48611Y59294D01*
X48667Y59433D01*
X48704Y59572D01*
X48741Y59701D01*
X48759Y59821D01*
X48768Y59923D01*
X48778Y60006D01*
Y60052D01*
Y60071D01*
X48759Y60293D01*
X48722Y60487D01*
X48657Y60663D01*
X48593Y60801D01*
X48528Y60922D01*
X48463Y61005D01*
X48426Y61051D01*
X48408Y61070D01*
X48260Y61199D01*
X48112Y61291D01*
X47955Y61365D01*
X47816Y61412D01*
X47687Y61439D01*
X47594Y61449D01*
X47557Y61458D01*
D02*
G37*
G36*
X42620Y63779D02*
X42472D01*
X42380Y63760D01*
X42213Y63714D01*
X42065Y63649D01*
X41936Y63584D01*
X41834Y63510D01*
X41760Y63446D01*
X41714Y63399D01*
X41695Y63390D01*
Y63381D01*
X41575Y63224D01*
X41483Y63048D01*
X41418Y62863D01*
X41381Y62688D01*
X41354Y62540D01*
X41344Y62475D01*
Y62410D01*
X41335Y62364D01*
Y62327D01*
Y62309D01*
Y62299D01*
X41354Y62059D01*
X41390Y61846D01*
X41446Y61670D01*
X41511Y61523D01*
X41585Y61402D01*
X41640Y61319D01*
X41677Y61264D01*
X41695Y61245D01*
X41834Y61116D01*
X41982Y61023D01*
X42130Y60959D01*
X42278Y60912D01*
X42398Y60885D01*
X42500Y60875D01*
X42537Y60866D01*
X42592D01*
X42786Y60885D01*
X42962Y60922D01*
X43119Y60986D01*
X43258Y61060D01*
X43360Y61125D01*
X43443Y61190D01*
X43489Y61227D01*
X43508Y61245D01*
X43628Y61393D01*
X43720Y61560D01*
X43776Y61726D01*
X43822Y61883D01*
X43850Y62022D01*
X43859Y62077D01*
Y62133D01*
X43868Y62179D01*
Y62207D01*
Y62225D01*
Y62235D01*
X43850Y62475D01*
X43813Y62697D01*
X43748Y62891D01*
X43674Y63048D01*
X43609Y63177D01*
X43545Y63270D01*
X43526Y63298D01*
X43508Y63326D01*
X43489Y63335D01*
Y63344D01*
X43415Y63418D01*
X43341Y63492D01*
X43184Y63594D01*
X43027Y63677D01*
X42879Y63723D01*
X42759Y63760D01*
X42657Y63769D01*
X42620Y63779D01*
D02*
G37*
G36*
X60399Y63640D02*
X58569D01*
X58402Y63631D01*
X58264Y63621D01*
X58153Y63612D01*
X58079Y63594D01*
X58023Y63584D01*
X57986Y63575D01*
X57977D01*
X57857Y63529D01*
X57755Y63473D01*
X57663Y63418D01*
X57579Y63353D01*
X57524Y63288D01*
X57478Y63242D01*
X57450Y63205D01*
X57441Y63196D01*
X57376Y63085D01*
X57321Y62974D01*
X57284Y62854D01*
X57265Y62752D01*
X57247Y62660D01*
X57237Y62577D01*
Y62530D01*
Y62521D01*
Y62512D01*
X57256Y62318D01*
X57293Y62151D01*
X57348Y62003D01*
X57413Y61883D01*
X57478Y61791D01*
X57533Y61717D01*
X57570Y61680D01*
X57589Y61661D01*
X57653Y61606D01*
X57737Y61560D01*
X57912Y61486D01*
X58106Y61430D01*
X58301Y61393D01*
X58476Y61375D01*
X58550Y61365D01*
X58615D01*
X58680Y61356D01*
X60399D01*
Y63640D01*
D02*
G37*
G36*
X53105Y63732D02*
X53040Y63520D01*
X52966Y63298D01*
X52892Y63076D01*
X52818Y62863D01*
X52781Y62771D01*
X52753Y62678D01*
X52726Y62595D01*
X52698Y62530D01*
X52679Y62475D01*
X52661Y62429D01*
X52652Y62401D01*
Y62392D01*
X51986Y60635D01*
X54149D01*
X53456Y62503D01*
X53373Y62734D01*
X53308Y62956D01*
X53243Y63159D01*
X53197Y63344D01*
X53160Y63501D01*
X53142Y63566D01*
X53132Y63631D01*
X53114Y63668D01*
Y63705D01*
X53105Y63723D01*
Y63732D01*
D02*
G37*
G36*
X37184Y63122D02*
Y60256D01*
X39199D01*
X37184Y63122D01*
D02*
G37*
G36*
X32700Y63779D02*
X32644D01*
X32542Y63769D01*
X32441Y63760D01*
X32348Y63732D01*
X32265Y63695D01*
X32108Y63612D01*
X31969Y63520D01*
X31867Y63418D01*
X31784Y63335D01*
X31756Y63298D01*
X31738Y63270D01*
X31720Y63261D01*
Y63252D01*
X31655Y63141D01*
X31599Y63011D01*
X31544Y62863D01*
X31507Y62706D01*
X31470Y62540D01*
X31442Y62364D01*
X31396Y62013D01*
X31377Y61837D01*
X31368Y61680D01*
X31359Y61532D01*
Y61412D01*
X31350Y61301D01*
Y61217D01*
Y61171D01*
Y61162D01*
Y61153D01*
Y60866D01*
X31368Y60607D01*
X31387Y60376D01*
X31405Y60154D01*
X31433Y59969D01*
X31470Y59794D01*
X31507Y59646D01*
X31535Y59507D01*
X31572Y59396D01*
X31609Y59304D01*
X31636Y59220D01*
X31673Y59156D01*
X31692Y59110D01*
X31710Y59082D01*
X31729Y59063D01*
Y59054D01*
X31803Y58962D01*
X31877Y58888D01*
X31951Y58814D01*
X32025Y58758D01*
X32182Y58666D01*
X32320Y58601D01*
X32450Y58564D01*
X32542Y58545D01*
X32579Y58536D01*
X32635D01*
X32737Y58545D01*
X32829Y58555D01*
X33005Y58619D01*
X33162Y58703D01*
X33300Y58795D01*
X33402Y58888D01*
X33486Y58971D01*
X33532Y59036D01*
X33550Y59045D01*
Y59054D01*
X33615Y59165D01*
X33670Y59294D01*
X33726Y59442D01*
X33763Y59599D01*
X33800Y59766D01*
X33828Y59942D01*
X33874Y60302D01*
X33892Y60469D01*
X33902Y60626D01*
X33911Y60774D01*
Y60894D01*
X33920Y61005D01*
Y61088D01*
Y61134D01*
Y61153D01*
X33911Y61439D01*
X33902Y61698D01*
X33883Y61939D01*
X33855Y62161D01*
X33828Y62355D01*
X33791Y62530D01*
X33754Y62688D01*
X33717Y62826D01*
X33680Y62946D01*
X33652Y63048D01*
X33615Y63131D01*
X33587Y63205D01*
X33559Y63252D01*
X33541Y63288D01*
X33522Y63307D01*
Y63316D01*
X33458Y63399D01*
X33393Y63473D01*
X33319Y63529D01*
X33245Y63584D01*
X33097Y63668D01*
X32959Y63723D01*
X32838Y63751D01*
X32737Y63769D01*
X32700Y63779D01*
D02*
G37*
G36*
X60399Y56186D02*
X58384D01*
X58134Y56177D01*
X57922Y56140D01*
X57737Y56094D01*
X57598Y56038D01*
X57478Y55983D01*
X57404Y55936D01*
X57358Y55899D01*
X57339Y55890D01*
X57228Y55770D01*
X57145Y55650D01*
X57090Y55520D01*
X57043Y55409D01*
X57025Y55299D01*
X57016Y55215D01*
X57006Y55160D01*
Y55150D01*
Y55141D01*
X57016Y55030D01*
X57034Y54919D01*
X57062Y54827D01*
X57090Y54744D01*
X57126Y54670D01*
X57154Y54614D01*
X57173Y54577D01*
X57182Y54568D01*
X57247Y54476D01*
X57330Y54392D01*
X57413Y54328D01*
X57496Y54272D01*
X57570Y54235D01*
X57626Y54208D01*
X57663Y54189D01*
X57681Y54180D01*
X57811Y54143D01*
X57959Y54115D01*
X58106Y54096D01*
X58254Y54087D01*
X58384Y54078D01*
X58495Y54069D01*
X60399D01*
Y56186D01*
D02*
G37*
G36*
X40679Y56279D02*
X40623D01*
X40521Y56269D01*
X40420Y56260D01*
X40327Y56232D01*
X40244Y56195D01*
X40087Y56112D01*
X39948Y56020D01*
X39846Y55918D01*
X39763Y55835D01*
X39736Y55798D01*
X39717Y55770D01*
X39699Y55761D01*
Y55752D01*
X39634Y55641D01*
X39578Y55511D01*
X39523Y55363D01*
X39486Y55206D01*
X39449Y55040D01*
X39421Y54864D01*
X39375Y54513D01*
X39356Y54337D01*
X39347Y54180D01*
X39338Y54032D01*
Y53912D01*
X39329Y53801D01*
Y53717D01*
Y53671D01*
Y53662D01*
Y53653D01*
Y53366D01*
X39347Y53107D01*
X39366Y52876D01*
X39384Y52654D01*
X39412Y52469D01*
X39449Y52294D01*
X39486Y52146D01*
X39514Y52007D01*
X39551Y51896D01*
X39588Y51804D01*
X39615Y51720D01*
X39652Y51656D01*
X39671Y51610D01*
X39689Y51582D01*
X39708Y51563D01*
Y51554D01*
X39782Y51462D01*
X39856Y51388D01*
X39930Y51314D01*
X40004Y51258D01*
X40161Y51166D01*
X40300Y51101D01*
X40429Y51064D01*
X40521Y51045D01*
X40558Y51036D01*
X40614D01*
X40715Y51045D01*
X40808Y51055D01*
X40984Y51119D01*
X41141Y51203D01*
X41280Y51295D01*
X41381Y51388D01*
X41464Y51471D01*
X41511Y51536D01*
X41529Y51545D01*
Y51554D01*
X41594Y51665D01*
X41649Y51794D01*
X41705Y51942D01*
X41742Y52099D01*
X41779Y52266D01*
X41807Y52442D01*
X41853Y52802D01*
X41871Y52969D01*
X41880Y53126D01*
X41890Y53274D01*
Y53394D01*
X41899Y53505D01*
Y53588D01*
Y53634D01*
Y53653D01*
X41890Y53939D01*
X41880Y54198D01*
X41862Y54439D01*
X41834Y54661D01*
X41807Y54855D01*
X41769Y55030D01*
X41733Y55188D01*
X41695Y55326D01*
X41659Y55446D01*
X41631Y55548D01*
X41594Y55631D01*
X41566Y55705D01*
X41538Y55752D01*
X41520Y55788D01*
X41501Y55807D01*
Y55816D01*
X41437Y55899D01*
X41372Y55973D01*
X41298Y56029D01*
X41224Y56084D01*
X41076Y56168D01*
X40937Y56223D01*
X40817Y56251D01*
X40715Y56269D01*
X40679Y56279D01*
D02*
G37*
G36*
X33778Y134810D02*
X33453D01*
X33237Y134766D01*
X32826Y134658D01*
X32480Y134485D01*
X32176Y134312D01*
X31938Y134117D01*
X31765Y133944D01*
X31657Y133836D01*
X31614Y133814D01*
Y133792D01*
X31462Y133598D01*
X31332Y133360D01*
X31116Y132884D01*
X30965Y132343D01*
X30878Y131845D01*
X30813Y131390D01*
X30791Y131174D01*
Y131001D01*
X30770Y130849D01*
Y130741D01*
Y130676D01*
Y130655D01*
Y130287D01*
X30813Y129919D01*
X30856Y129594D01*
X30900Y129291D01*
X30965Y129010D01*
X31051Y128750D01*
X31138Y128534D01*
X31203Y128317D01*
X31289Y128144D01*
X31376Y127971D01*
X31441Y127841D01*
X31527Y127733D01*
X31570Y127647D01*
X31614Y127582D01*
X31657Y127560D01*
Y127538D01*
X31830Y127365D01*
X32003Y127192D01*
X32350Y126932D01*
X32696Y126759D01*
X33021Y126629D01*
X33302Y126564D01*
X33540Y126521D01*
X33626Y126500D01*
X33735D01*
X34016Y126521D01*
X34254Y126564D01*
X34514Y126629D01*
X34730Y126716D01*
X35141Y126954D01*
X35466Y127214D01*
X35747Y127452D01*
X35942Y127690D01*
X36007Y127776D01*
X36050Y127841D01*
X36093Y127885D01*
Y127906D01*
X36180Y128079D01*
X36267Y128274D01*
X36396Y128707D01*
X36483Y129183D01*
X36548Y129637D01*
X36591Y130049D01*
Y130243D01*
X36613Y130395D01*
Y130525D01*
Y130633D01*
Y130698D01*
Y130719D01*
Y131087D01*
X36570Y131412D01*
X36526Y131737D01*
X36483Y132040D01*
X36418Y132299D01*
X36332Y132559D01*
X36267Y132775D01*
X36180Y132992D01*
X36093Y133165D01*
X36029Y133316D01*
X35942Y133446D01*
X35877Y133554D01*
X35834Y133641D01*
X35791Y133706D01*
X35747Y133728D01*
Y133749D01*
X35574Y133944D01*
X35401Y134095D01*
X35228Y134247D01*
X35055Y134355D01*
X34708Y134550D01*
X34384Y134680D01*
X34102Y134745D01*
X33865Y134788D01*
X33778Y134810D01*
D02*
G37*
G36*
X49987Y138424D02*
X45702D01*
X45312Y138402D01*
X44988Y138380D01*
X44728Y138359D01*
X44555Y138315D01*
X44425Y138294D01*
X44339Y138272D01*
X44317D01*
X44036Y138164D01*
X43798Y138034D01*
X43581Y137904D01*
X43386Y137753D01*
X43257Y137601D01*
X43148Y137493D01*
X43084Y137407D01*
X43062Y137385D01*
X42910Y137125D01*
X42780Y136866D01*
X42694Y136584D01*
X42651Y136346D01*
X42607Y136130D01*
X42586Y135935D01*
Y135827D01*
Y135805D01*
Y135783D01*
X42629Y135329D01*
X42716Y134939D01*
X42845Y134593D01*
X42997Y134312D01*
X43148Y134095D01*
X43278Y133922D01*
X43365Y133836D01*
X43408Y133792D01*
X43560Y133663D01*
X43754Y133554D01*
X44166Y133381D01*
X44620Y133251D01*
X45074Y133165D01*
X45486Y133122D01*
X45659Y133100D01*
X45810D01*
X45962Y133078D01*
X49987D01*
Y138424D01*
D02*
G37*
G36*
X56808Y115467D02*
X53984D01*
X53635Y115454D01*
X53337Y115402D01*
X53078Y115337D01*
X52883Y115259D01*
X52715Y115182D01*
X52611Y115117D01*
X52546Y115065D01*
X52520Y115052D01*
X52365Y114884D01*
X52248Y114715D01*
X52171Y114534D01*
X52106Y114379D01*
X52080Y114223D01*
X52067Y114107D01*
X52054Y114029D01*
Y114016D01*
Y114003D01*
X52067Y113847D01*
X52093Y113692D01*
X52132Y113562D01*
X52171Y113446D01*
X52222Y113342D01*
X52261Y113265D01*
X52287Y113213D01*
X52300Y113200D01*
X52391Y113070D01*
X52508Y112954D01*
X52624Y112863D01*
X52741Y112785D01*
X52844Y112733D01*
X52922Y112695D01*
X52974Y112669D01*
X53000Y112656D01*
X53181Y112604D01*
X53388Y112565D01*
X53596Y112539D01*
X53803Y112526D01*
X53984Y112513D01*
X54140Y112500D01*
X56808D01*
Y115467D01*
D02*
G37*
G36*
X46562Y113239D02*
X46484D01*
X46329Y113226D01*
X46186Y113213D01*
X45927Y113148D01*
X45694Y113044D01*
X45499Y112928D01*
X45344Y112811D01*
X45227Y112720D01*
X45150Y112643D01*
X45124Y112630D01*
Y112617D01*
X45020Y112500D01*
X44942Y112358D01*
X44800Y112073D01*
X44696Y111762D01*
X44632Y111477D01*
X44593Y111205D01*
X44580Y111088D01*
Y110985D01*
X44567Y110907D01*
Y110842D01*
Y110803D01*
Y110790D01*
Y110557D01*
X44593Y110337D01*
X44619Y110143D01*
X44657Y109948D01*
X44696Y109780D01*
X44748Y109624D01*
X44787Y109482D01*
X44839Y109352D01*
X44891Y109249D01*
X44942Y109145D01*
X44994Y109067D01*
X45033Y109003D01*
X45072Y108951D01*
X45098Y108912D01*
X45111Y108899D01*
X45124Y108886D01*
X45227Y108782D01*
X45344Y108679D01*
X45564Y108523D01*
X45797Y108420D01*
X46005Y108342D01*
X46199Y108303D01*
X46341Y108277D01*
X46406Y108264D01*
X46484D01*
X46639Y108277D01*
X46782Y108290D01*
X47054Y108355D01*
X47287Y108459D01*
X47481Y108575D01*
X47637Y108679D01*
X47753Y108782D01*
X47831Y108847D01*
X47844Y108873D01*
X47857D01*
X47948Y109003D01*
X48038Y109132D01*
X48168Y109430D01*
X48272Y109741D01*
X48336Y110052D01*
X48375Y110324D01*
X48388Y110441D01*
Y110544D01*
X48401Y110635D01*
Y110700D01*
Y110738D01*
Y110751D01*
X48388Y110972D01*
X48375Y111192D01*
X48349Y111386D01*
X48310Y111567D01*
X48272Y111736D01*
X48233Y111891D01*
X48181Y112021D01*
X48129Y112150D01*
X48077Y112254D01*
X48025Y112358D01*
X47987Y112436D01*
X47948Y112500D01*
X47909Y112552D01*
X47883Y112591D01*
X47857Y112604D01*
Y112617D01*
X47753Y112720D01*
X47637Y112824D01*
X47417Y112979D01*
X47183Y113083D01*
X46963Y113161D01*
X46769Y113213D01*
X46626Y113226D01*
X46562Y113239D01*
D02*
G37*
%LPD*%
D10*
X250000Y85000D02*
G03*
X250000Y85000I-78000J0D01*
G01*
D34*
X55759Y131500D02*
G03*
X55759Y131500I-12759J0D01*
G01*
D35*
X309000Y71750D02*
X310000D01*
X309000Y79750D02*
X310000D01*
X301250Y106500D02*
X302250D01*
X301250Y113500D02*
X302250D01*
M02*
