M48
;Layer_Color=9474304
;FILE_FORMAT=4:4
METRIC
;TYPE=PLATED
T1F00S00C0.2000
T2F00S00C0.2030
T3F00S00C0.2032
T5F00S00C0.8000
T6F00S00C1.0000
%
T01
X00196750Y00084750
X00243000Y00097500
X00246250Y00120750
X00225000Y00120250
X00260750Y00110000
X00275250Y00121500
X00284500Y00126412
X00296000Y00132500
X00308500Y00120000
X00308750Y00102750
X00294500Y00100750
X00293000Y00085500
X00338750Y00083750
X00147750Y00072250
X00145718Y00062532
X00139704Y00061549
X00134604Y00061481
X00135750Y00067500
X00108750Y00075000
X00100500Y00111250
X00111000Y00146250
X00126400Y00146500
X00131500
X00141750Y00158750
X00116000
X00140500Y00103000
X00174500Y00126000
X00052250Y00088000
X00052604Y00083000
T02
X00181701Y00043100
X00201701
X00221701
X00241701
X00261701
X00281701
X00301701
X00321701
X00331701Y00063100
X00311701
X00291701
X00231701
X00211701
X00221701Y00083100
X00211701Y00103100
X00201701Y00123100
X00211701Y00143101
X00231701
X00311701
X00321701Y00123100
X00331701Y00103100
X00231701Y00023100
X00211701
X00131701
X00111701
X00031701Y00143101
T03
X00195750Y00108750
X00130000Y00105000
X00118000Y00096000
X00109750Y00102500
X00120750Y00071000
X00123750Y00052750
X00137000Y00048250
X00155500Y00049500
X00165000
X00102000Y00054736
X00087750Y00033500
X00054000Y00027000
X00032500Y00031750
X00021000Y00044000
X00015000Y00065750
X00015250Y00103000
X00023750Y00121500
X00036000Y00133750
X00053000Y00147250
X00100500Y00146750
T05
X00060533Y00076000
Y00094000
X00073533Y00103500
X00089033Y00099500
X00095533Y00085000
X00077033Y00085000
X00073533Y00066500
X00089033Y00070500
T06
X00188500Y00076000
Y00094000
X00248500Y00085000
X00267000
X00270500Y00103500
X00255000Y00099500
Y00070500
X00270500Y00066500
X00283500Y00076000
Y00094000
X00175500Y00103500
X00160000Y00099500
X00153500Y00085000
X00172000
X00175500Y00066500
X00160000Y00070500
M30
